<?xml version="1.0" encoding="iso-8859-1"?>
<!-- Generator: Adobe Illustrator 11 Build 196, SVG Export Plug-In . SVG Version: 6.0.0 Build 78)  -->
<!DOCTYPE svg PUBLIC "-//W3C//DTD SVG 1.0//EN"    "http://www.w3.org/TR/2001/REC-SVG-20010904/DTD/svg10.dtd" [
	<!ENTITY ns_flows "http://ns.adobe.com/Flows/1.0/">
	<!ENTITY ns_svg "http://www.w3.org/2000/svg">
	<!ENTITY ns_xlink "http://www.w3.org/1999/xlink">
]>
<svg  
	 width="457.25" height="301.25" viewBox="0 0 457.25 301.25" style="overflow:visible;enable-background:new 0 0 457.25 301.25"
	 xml:space="preserve">
	<style type="text/css">
	
	</style>
	<g id="Layer_1">
		<g>
			<text transform="matrix(1 0 0 1 5.75 13.25)"><tspan x="0" y="0" style="font-family:'Courier'; font-size:12;">Ag      107.9   Eu      152.0   Mo       95.9   Sc       45.0</tspan></text>
			<text transform="matrix(1 0 0 1 5.75 27.75)"><tspan x="0" y="0" style="font-family:'Courier'; font-size:12;">Al       27.0   F        19.0   N        14.0   Se       79.0</tspan></text>
			<text transform="matrix(1 0 0 1 5.75 42.25)"><tspan x="0" y="0" style="font-family:'Courier'; font-size:12;">Ar       39.9   Fe       55.8   Na       23.0   Si       28.1</tspan></text>
			<text transform="matrix(1 0 0 1 5.75 56.75)"><tspan x="0" y="0" style="font-family:'Courier'; font-size:12;">As       74.9   Ga       69.7   Nb       92.9   Sn      118.7</tspan></text>
			<text transform="matrix(1 0 0 1 5.75 71.25)"><tspan x="0" y="0" style="font-family:'Courier'; font-size:12;">Au      197.0   Gd      157.2   Nd      144.2   Sr       87.6</tspan></text>
			<text transform="matrix(1 0 0 1 5.75 85.75)"><tspan x="0" y="0" style="font-family:'Courier'; font-size:12;">B        10.8   Ge       72.6   Ne       20.2   Ta      180.9</tspan></text>
			<text transform="matrix(1 0 0 1 5.75 100.25)"><tspan x="0" y="0" style="font-family:'Courier'; font-size:12;">Ba      137.3   H        1.0    Ni       58.7   Tb      158.9</tspan></text>
			<text transform="matrix(1 0 0 1 5.75 114.75)"><tspan x="0" y="0" style="font-family:'Courier'; font-size:12;">Be       9.0    He       4.0    O        16.0   Te      127.6</tspan></text>
			<text transform="matrix(1 0 0 1 5.75 129.25)"><tspan x="0" y="0" style="font-family:'Courier'; font-size:12;">Bi      209.0  </tspan></text>
			<text transform="matrix(1 0 0 1 113.748 129.25)"><tspan x="0" y="0" style="font-family:'Courier'; font-size:12;"> Hf      178.5   Os      190.2   Ti       47.9</tspan></text>
			<text transform="matrix(1 0 0 1 5.75 143.75)"><tspan x="0" y="0" style="font-family:'Courier'; font-size:12;">Br       79.9   Hg      200.6   P        31.0   Tl      204.4</tspan></text>
			<text transform="matrix(1 0 0 1 5.75 158.25)"><tspan x="0" y="0" style="font-family:'Courier'; font-size:12;">C        12.0   Ho      164.9   Pb      207.2   Tm      168.9</tspan></text>
			<text transform="matrix(1 0 0 1 5.75 172.75)"><tspan x="0" y="0" style="font-family:'Courier'; font-size:12;">Ca       40.1   In      114.8   Pd      106.4   U       238</tspan></text>
			<text transform="matrix(1 0 0 1 5.75 187.25)"><tspan x="0" y="0" style="font-family:'Courier'; font-size:12;">Ce      140.1   Ir      192.2   Pt      195.1   V        50.9</tspan></text>
			<text transform="matrix(1 0 0 1 5.75 201.75)"><tspan x="0" y="0" style="font-family:'Courier'; font-size:12;">Cl       35.5   K        39.1   Pr      140.9   W       183.8</tspan></text>
			<text transform="matrix(1 0 0 1 5.75 216.25)"><tspan x="0" y="0" style="font-family:'Courier'; font-size:12;">Co       58.9   Kr       83.8   Rb       85.5   Xe      131.3</tspan></text>
			<text transform="matrix(1 0 0 1 5.75 230.75)"><tspan x="0" y="0" style="font-family:'Courier'; font-size:12;">Cr       52.0   La      138.9   Re      186.2   Y        88.9</tspan></text>
			<text transform="matrix(1 0 0 1 5.75 245.25)"><tspan x="0" y="0" style="font-family:'Courier'; font-size:12;">Cs      132.9   Li       </tspan></text>
			<text transform="matrix(1 0 0 1 185.7471 245.25)"><tspan x="0" y="0" style="font-family:'Courier'; font-size:12;">6.9    Rh      102.9   Yb      173.0</tspan></text>
			<text transform="matrix(1 0 0 1 5.75 259.75)"><tspan x="0" y="0" style="font-family:'Courier'; font-size:12;">Cu       63.5   Lu      175.0   Ru      101.1   Zn       65.4</tspan></text>
			<text transform="matrix(1 0 0 1 5.75 274.25)"><tspan x="0" y="0" style="font-family:'Courier'; font-size:12;">Dy      162.5   Mg       24.3   S        32.1   Zr       91.2 </tspan></text>
			<text transform="matrix(1 0 0 1 5.75 288.75)"><tspan x="0" y="0" style="font-family:'Courier'; font-size:12;">Er      167.3   Mn       54.9   Sb      121.8    </tspan></text>
		</g>
		<rect x="0.25" y="0.25" style="fill:none;stroke:#000000;stroke-width:0.5;" width="452" height="296"/> 
		<line style="fill:none;stroke:#000000;stroke-width:0.5;" x1="111.188" y1="0.251" x2="111.188" y2="296.249"/>
		<line style="fill:none;stroke:#000000;stroke-width:0.5;" x1="225.938" y1="0.251" x2="225.938" y2="296.249"/>
		<line style="fill:none;stroke:#000000;stroke-width:0.5;" x1="340.688" y1="0.251" x2="340.688" y2="296.249"/>
		<polyline style="fill:none;" points="457.25,283.25 457.25,301.25 440.25,301.25 "/>
	</g>
</svg>
