<?xml version="1.0" encoding="iso-8859-1"?>
<!-- Generator: Adobe Illustrator 11 Build 196, SVG Export Plug-In . SVG Version: 6.0.0 Build 78)  -->
<!DOCTYPE svg PUBLIC "-//W3C//DTD SVG 1.0//EN"    "http://www.w3.org/TR/2001/REC-SVG-20010904/DTD/svg10.dtd" [
	<!ENTITY ns_flows "http://ns.adobe.com/Flows/1.0/">
	<!ENTITY ns_svg "http://www.w3.org/2000/svg">
	<!ENTITY ns_xlink "http://www.w3.org/1999/xlink">
]>
<svg  
	 width="52.667" height="59.209" viewBox="0 0 52.667 59.209" style="overflow:visible;enable-background:new 0 0 52.667 59.209"
	 xml:space="preserve">
	<style type="text/css">
	
	</style>
	<g id="Layer_1">
		<line style="fill:none;stroke:#000000;stroke-miterlimit:1;" x1="0.125" y1="14.466" x2="5.875" y2="14.466"/>
		<circle style="fill:none;stroke:#000000;stroke-miterlimit:1;" cx="20.215" cy="8.278" r="7.778"/> 
		<path style="fill:none;stroke:#000000;stroke-miterlimit:1;" d="M5.548,14.445c19.5,0,17.833-8.5,14.667-8.5
			c-3.167,0-5,8.667,15.833,8.667l3.702-0.083v9"/>
		<g>
			<line style="fill:none;stroke:#000000;stroke-miterlimit:1;" x1="19.298" y1="48.709" x2="19.298" y2="55.709"/>
			<line style="fill:none;stroke:#000000;stroke-miterlimit:1;" x1="22.298" y1="45.209" x2="22.298" y2="59.209"/>
			<polyline style="fill:none;stroke:#000000;stroke-miterlimit:1;" points="39.75,42.653 39.75,52.209 22.25,52.209 "/>
			<polyline style="fill:none;stroke:#000000;stroke-miterlimit:1;" points="18.75,52.209 0.5,52.209 0.5,23.195 "/>
		</g>
		<line style="fill:none;stroke:#000000;stroke-miterlimit:1;" x1="0.5" y1="23.362" x2="0.5" y2="14.528"/>
		<g>
			<circle style="fill:#FFFFFF;stroke:#000000;stroke-miterlimit:1;" cx="39.802" cy="33.351" r="9.723"/> 
			<g>
				<text transform="matrix(1 0 0 1 36.4673 36.9512)"><tspan x="0" y="0" style="font-family:Liberation Sans; font-size:8.500000;">A</tspan></text>
			</g>
		</g>
		<line style="fill:none;" x1="52.667" y1="35.028" x2="52.667" y2="41.195"/>
	</g>
</svg>
