<?xml version="1.0" encoding="iso-8859-1"?>
<!-- Generator: Adobe Illustrator 11 Build 196, SVG Export Plug-In . SVG Version: 6.0.0 Build 78)  -->
<!DOCTYPE svg PUBLIC "-//W3C//DTD SVG 1.0//EN"    "http://www.w3.org/TR/2001/REC-SVG-20010904/DTD/svg10.dtd" [
	<!ENTITY ns_flows "http://ns.adobe.com/Flows/1.0/">
	<!ENTITY ns_svg "http://www.w3.org/2000/svg">
	<!ENTITY ns_xlink "http://www.w3.org/1999/xlink">
]>
<svg  
	 width="65.8" height="55.988" viewBox="0 0 65.8 55.988" style="overflow:visible;enable-background:new 0 0 65.8 55.988"
	 xml:space="preserve">
	<g id="Layer_1">
		<g>
			
				<rect x="0.25" y="21.363" style="fill:#B4B4B4;stroke:#000000;stroke-width:0.5;stroke-linejoin:round;" width="23.125" height="34.375"/> 
			<polygon style="fill:#B4B4B4;stroke:#000000;stroke-width:0.5;stroke-linejoin:round;" points="23.375,21.452 27.841,18.874 
				4.716,18.874 0.25,21.452 "/>
			<polygon style="fill:#B4B4B4;stroke:#000000;stroke-width:0.5;stroke-linejoin:round;" points="27.594,18.837 23.219,21.363 
				23.219,55.738 27.594,53.212 "/>
			<path style="fill:#FFFFFF;stroke:#000000;stroke-width:0.5;stroke-linejoin:round;" d="M21.868,16.959h-3.203v2.502
				c-0.049,0.075-0.099,0.15-0.099,0.232c0,0.439,0.752,0.796,1.68,0.796c0.927,0,1.679-0.356,1.679-0.796
				c0-0.047-0.04-0.088-0.057-0.133V16.959z"/>
			
				<ellipse style="fill:#FFFFFF;stroke:#000000;stroke-width:0.5;stroke-linejoin:round;" cx="20.245" cy="17.142" rx="2.399" ry="1.136"/> 
			<path style="fill:#FFFFFF;stroke:#000000;stroke-width:0.5;stroke-linejoin:round;" d="M9.495,17.584H6.292v1.6
				c-0.049,0.075-0.099,0.15-0.099,0.233c0,0.439,0.752,0.795,1.68,0.795c0.927,0,1.679-0.356,1.679-0.795
				c0-0.048-0.04-0.089-0.057-0.134V17.584z"/>
			
				<ellipse style="fill:#FFFFFF;stroke:#000000;stroke-width:0.5;stroke-linejoin:round;" cx="7.872" cy="17.35" rx="1.516" ry="0.718"/> 
		</g>
		<g>
			<circle style="fill:#FFFFFF;stroke:#000000;stroke-width:0.5;stroke-linejoin:round;" cx="54.978" cy="17.784" r="8.176"/> 
			<g>
				
					<ellipse style="fill:#FFFFFF;stroke:#000000;stroke-width:0.5;stroke-linejoin:round;" cx="54.978" cy="25.319" rx="4.596" ry="2.298"/> 
				
					<ellipse style="fill:#FFFFFF;stroke:#000000;stroke-width:0.5;stroke-linejoin:round;" cx="54.978" cy="26.17" rx="4.596" ry="2.298"/> 
				
					<ellipse style="fill:#FFFFFF;stroke:#000000;stroke-width:0.5;stroke-linejoin:round;" cx="54.978" cy="27.02" rx="4.596" ry="2.298"/> 
				
					<ellipse style="fill:#FFFFFF;stroke:#000000;stroke-width:0.5;stroke-linejoin:round;" cx="54.978" cy="27.87" rx="4.596" ry="2.298"/> 
				
					<ellipse style="fill:#FFFFFF;stroke:#000000;stroke-width:0.5;stroke-linejoin:round;" cx="54.978" cy="28.721" rx="4.596" ry="2.298"/> 
				
					<ellipse style="fill:#FFFFFF;stroke:#000000;stroke-width:0.5;stroke-linejoin:round;" cx="54.978" cy="29.571" rx="4.596" ry="2.298"/> 
				<path style="fill:#7F7F7F;stroke:#000000;stroke-width:0.5;stroke-linejoin:round;" d="M54.978,29.09
					c-1.258,0-2.371,0.255-3.066,0.646l2.471,4.28h1.19l2.471-4.279C57.348,29.345,56.235,29.09,54.978,29.09z"/>
				<polygon style="fill:#FFFFFF;stroke:#000000;stroke-width:0.5;stroke-linejoin:round;" points="53.321,32.178 54.382,34.015 
					55.573,34.015 56.634,32.178 "/>
			</g>
			<path style="fill:none;stroke:#000000;stroke-width:0.5;stroke-linejoin:round;" d="M52.891,22.834
				c-0.391-1.641-3.125-6.484-1.016-5.312s1.875,2.031,1.172,1.797c-0.703-0.234-1.484-2.969,0.781-2.266
				c2.266,0.703,2.5,2.344,1.562,1.719s-1.796-3.359,0.781-2.188c2.578,1.172,1.797,2.422,1.328,2.578
				c-0.468,0.156-0.703-2.188,0.547-1.797s1.172,2.344,0.781,3.672c-0.391,1.328-0.859,2.656-0.859,2.656"/>
		</g>
		<line style="fill:none;" x1="65.8" y1="15.277" x2="65.8" y2="31.527"/>
		<path style="fill:none;stroke:#000000;stroke-width:0.5;stroke-linejoin:round;" d="M5.758,16.173
			c-0.75-5.25,15.25-16.25,26.75-5.75S43.254,26.617,50.381,27.02"/>
		<path style="fill:none;stroke:#000000;stroke-width:0.5;stroke-linejoin:round;" d="M54.382,34.015
			c-0.124,4.658-25.374-20.842-33.124-18.592"/>
		<g>
			<line style="fill:none;stroke:#000000;stroke-linejoin:round;" x1="35.258" y1="29.173" x2="42.758" y2="33.673"/>
			<path d="M45.348,35.222c-1.489-0.279-3.462-0.414-4.888-0.16l1.96-1.597l0.486-2.481C43.353,32.362,44.401,34.04,45.348,35.222z"
				/>
		</g>
		<g>
			<line style="fill:none;stroke:#000000;stroke-linejoin:round;" x1="31.508" y1="4.423" x2="23.008" y2="1.923"/>
			<path d="M20.111,1.075C21.623,0.97,23.566,0.605,24.882,0l-1.496,2.038l0.154,2.523C22.762,3.341,21.325,1.981,20.111,1.075z"/>
		</g>
	</g>
</svg>
