<?xml version="1.0" encoding="UTF-8" standalone="no"?>
<!-- Generator: Adobe Illustrator 11 Build 196, SVG Export Plug-In . SVG Version: 6.0.0 Build 78)  -->

<svg
   xmlns:dc="http://purl.org/dc/elements/1.1/"
   xmlns:cc="http://creativecommons.org/ns#"
   xmlns:rdf="http://www.w3.org/1999/02/22-rdf-syntax-ns#"
   xmlns:svg="http://www.w3.org/2000/svg"
   xmlns="http://www.w3.org/2000/svg"
   xmlns:sodipodi="http://sodipodi.sourceforge.net/DTD/sodipodi-0.dtd"
   xmlns:inkscape="http://www.inkscape.org/namespaces/inkscape"
   width="93.04"
   height="97.071"
   viewBox="0 0 93.04 97.071"
   style="overflow:visible;enable-background:new 0 0 93.04 97.071"
   xml:space="preserve"
   id="svg3068"
   version="1.1"
   sodipodi:docname="circuits-5.svg"><metadata
     id="metadata3121"><rdf:RDF><cc:Work
         rdf:about=""><dc:format>image/svg+xml</dc:format><dc:type
           rdf:resource="http://purl.org/dc/dcmitype/StillImage" /></cc:Work></rdf:RDF></metadata><defs
     id="defs3119" /><sodipodi:namedview
     pagecolor="#ffffff"
     bordercolor="#666666"
     borderopacity="1"
     objecttolerance="10"
     gridtolerance="10"
     guidetolerance="10"
     inkscape:pageopacity="0"
     inkscape:pageshadow="2"
     inkscape:window-width="1280"
     inkscape:window-height="996"
     id="namedview3117"
     showgrid="false"
     inkscape:zoom="0.8595626"
     inkscape:cx="46.52"
     inkscape:cy="48.5355"
     inkscape:window-x="0"
     inkscape:window-y="0"
     inkscape:window-maximized="1"
     inkscape:current-layer="svg3068" /><g
     id="Layer_1"><line
       style="fill:none;"
       x1="93.04"
       y1="44.786"
       x2="93.04"
       y2="68.786"
       id="line3071" /><g
       id="g3073"><line
         style="fill:none;stroke:#000000;"
         x1="41.357"
         y1="80.901"
         x2="41.357"
         y2="88.409"
         id="line3075" /><line
         style="fill:none;stroke:#000000;"
         x1="44.245"
         y1="72.239"
         x2="44.245"
         y2="97.071"
         id="line3077" /></g><line
       style="fill:none;stroke:#000000;"
       x1="70.083"
       y1="17.04"
       x2="87.437"
       y2="17.04"
       id="line3079" /><line
       style="fill:none;stroke:#000000;"
       x1="0"
       y1="17.04"
       x2="16.979"
       y2="17.04"
       id="line3081" /><polyline
       style="fill:none;stroke:#000000;"
       points="25.583,17.04 35.771,17.04 35.771,48.911 "
       id="polyline3083" /><polyline
       style="fill:none;stroke:#000000;"
       points="60.458,17.04 47.583,17.04 47.583,48.723 "
       id="polyline3085" /><circle
       style="fill:none;stroke:#000000;"
       cx="65.391"
       cy="40.934"
       r="8.984"
       id="circle3087" /><path
       style="fill:none;stroke:#000000;"
       d="M60.458,48.489c5.198,0,9.817-12.705,4.62-12.705c-5.198,0,0.578,12.705,5.197,12.705"
       id="path3089" /><circle
       style="fill:none;stroke:#000000;"
       cx="21.333"
       cy="9.484"
       r="8.984"
       id="circle3091" /><path
       style="fill:none;stroke:#000000;"
       d="M16.4,17.04c5.198,0,9.818-12.705,4.62-12.705c-5.197,0,0.578,12.705,5.198,12.705"
       id="path3093" /><circle
       style="fill:none;stroke:#000000;"
       cx="21.333"
       cy="40.934"
       r="8.984"
       id="circle3095" /><path
       style="fill:none;stroke:#000000;"
       d="M16.4,48.489c5.198,0,9.818-12.705,4.62-12.705c-5.197,0,0.578,12.705,5.198,12.705"
       id="path3097" /><line
       style="fill:none;stroke:#000000;"
       x1="70.083"
       y1="48.489"
       x2="87.02"
       y2="48.489"
       id="line3099" /><line
       style="fill:none;stroke:#000000;"
       x1="25.333"
       y1="48.489"
       x2="36.083"
       y2="48.489"
       id="line3101" /><line
       style="fill:none;stroke:#000000;"
       x1="47.208"
       y1="48.489"
       x2="60.747"
       y2="48.489"
       id="line3103" /><line
       style="fill:none;stroke:#000000;"
       x1="0.333"
       y1="48.489"
       x2="16.583"
       y2="48.489"
       id="line3105" /><line
       style="fill:none;stroke:#000000;"
       x1="87.003"
       y1="16.867"
       x2="87.003"
       y2="85.286"
       id="line3107" /><line
       style="fill:none;stroke:#000000;"
       x1="0.057"
       y1="84.819"
       x2="41.083"
       y2="84.819"
       id="line3109" /><line
       style="fill:none;stroke:#000000;"
       x1="44.833"
       y1="84.819"
       x2="87.003"
       y2="84.819"
       id="line3111" /><line
       style="fill:none;stroke:#000000;"
       x1="35.667"
       y1="31.619"
       x2="47.333"
       y2="31.619"
       id="line3113" /><line
       style="fill:none;stroke:#000000;"
       x1="0.542"
       y1="16.869"
       x2="0.542"
       y2="85.286"
       id="line3115" /></g><g
     id="g3399"
     transform="translate(147.74957,-8.1436769)"><line
       style="fill:none;overflow:visible"
       x1="-172.45139"
       y1="53.12051"
       x2="-172.45139"
       y2="77.120514"
       id="line5" /><g
       transform="translate(-265.49238,-2.5084896)"
       id="g7"
       style="overflow:visible"><line
         style="fill:none;stroke:#000000"
         x1="41.356998"
         y1="91.745003"
         x2="41.356998"
         y2="99.251999"
         id="line9" /><line
         style="fill:none;stroke:#000000"
         x1="44.244999"
         y1="83.082001"
         x2="44.244999"
         y2="107.915"
         id="line11" /></g><circle
       transform="translate(-265.49238,-2.5084896)"
       d="m 74.374999,20.327 c 0,4.961726 -4.022274,8.984 -8.984,8.984 -4.961726,0 -8.984,-4.022274 -8.984,-8.984 0,-4.961727 4.022274,-8.984001 8.984,-8.984001 4.961726,0 8.984,4.022274 8.984,8.984001 z"
       sodipodi:ry="8.9840002"
       sodipodi:rx="8.9840002"
       sodipodi:cy="20.327"
       sodipodi:cx="65.390999"
       style="fill:none;stroke:#000000;overflow:visible"
       cx="65.390999"
       cy="20.327"
       r="8.9840002"
       id="circle13" /><path
       inkscape:connector-curvature="0"
       style="fill:none;stroke:#000000;stroke-width:1;overflow:visible"
       d="m -205.03438,25.374511 c 5.197,0 9.817,-12.705 4.62,-12.705 -5.198,0 0.577,12.705 5.197,12.705"
       id="path15" /><line
       style="fill:none;stroke:#000000;stroke-width:1;overflow:visible"
       x1="-265.49237"
       y1="25.37451"
       x2="-248.51338"
       y2="25.37451"
       id="line19" /><polyline
       transform="translate(-265.49238,-2.5084896)"
       style="fill:none;stroke:#000000;overflow:visible"
       points="25.583,27.883 35.771,27.883 35.771,59.754 "
       id="polyline21" /><polyline
       transform="translate(-265.49238,-2.5084896)"
       style="fill:none;stroke:#000000;overflow:visible"
       points="52.978,27.883 47.583,27.883 47.583,59.566 "
       id="polyline25" /><circle
       transform="translate(-265.49238,-2.5084896)"
       d="m 74.374999,51.777 c 0,4.961727 -4.022274,8.984001 -8.984,8.984001 -4.961726,0 -8.984,-4.022274 -8.984,-8.984001 0,-4.961726 4.022274,-8.984 8.984,-8.984 4.961726,0 8.984,4.022274 8.984,8.984 z"
       sodipodi:ry="8.9840002"
       sodipodi:rx="8.9840002"
       sodipodi:cy="51.777"
       sodipodi:cx="65.390999"
       style="fill:none;stroke:#000000;overflow:visible"
       cx="65.390999"
       cy="51.777"
       r="8.9840002"
       id="circle29" /><path
       inkscape:connector-curvature="0"
       style="fill:none;stroke:#000000;stroke-width:1;overflow:visible"
       d="m -205.03438,56.824512 c 5.197,0 9.817,-12.705001 4.62,-12.705001 -5.198,0 0.577,12.705001 5.197,12.705001"
       id="path31" /><circle
       transform="translate(-265.49238,-2.5084896)"
       d="m 30.317,20.327 c 0,4.961726 -4.022274,8.984 -8.984,8.984 -4.961726,0 -8.984,-4.022274 -8.984,-8.984 0,-4.961727 4.022274,-8.984001 8.984,-8.984001 4.961726,0 8.984,4.022274 8.984,8.984001 z"
       sodipodi:ry="8.9840002"
       sodipodi:rx="8.9840002"
       sodipodi:cy="20.327"
       sodipodi:cx="21.333"
       style="fill:none;stroke:#000000;overflow:visible"
       cx="21.333"
       cy="20.327"
       r="8.9840002"
       id="circle33" /><path
       inkscape:connector-curvature="0"
       style="fill:none;stroke:#000000;stroke-width:1;overflow:visible"
       d="m -249.09138,25.374511 c 5.197,0 9.817,-12.705 4.62,-12.705 -5.198,0 0.577,12.705 5.197,12.705"
       id="path35" /><circle
       transform="translate(-265.49238,-2.5084896)"
       d="m 30.317,51.777 c 0,4.961727 -4.022274,8.984001 -8.984,8.984001 -4.961726,0 -8.984,-4.022274 -8.984,-8.984001 0,-4.961726 4.022274,-8.984 8.984,-8.984 4.961726,0 8.984,4.022274 8.984,8.984 z"
       sodipodi:ry="8.9840002"
       sodipodi:rx="8.9840002"
       sodipodi:cy="51.777"
       sodipodi:cx="21.333"
       style="fill:none;stroke:#000000;overflow:visible"
       cx="21.333"
       cy="51.777"
       r="8.9840002"
       id="circle37" /><path
       inkscape:connector-curvature="0"
       style="fill:none;stroke:#000000;stroke-width:1;overflow:visible"
       d="m -249.09138,56.824512 c 5.197,0 9.817,-12.705001 4.62,-12.705001 -5.198,0 0.577,12.705001 5.197,12.705001"
       id="path39" /><line
       style="fill:none;stroke:#000000;stroke-width:1;overflow:visible"
       x1="-195.40938"
       y1="56.824509"
       x2="-182.09637"
       y2="56.824509"
       id="line41" /><line
       style="fill:none;stroke:#000000;stroke-width:1;overflow:visible"
       x1="-183.01439"
       y1="56.824509"
       x2="-178.46938"
       y2="56.824509"
       id="line43" /><line
       style="fill:none;stroke:#000000;stroke-width:1;overflow:visible"
       x1="-240.15938"
       y1="56.824509"
       x2="-229.40938"
       y2="56.824509"
       id="line45" /><line
       style="fill:none;stroke:#000000;stroke-width:1;overflow:visible"
       x1="-218.28438"
       y1="56.824509"
       x2="-204.74538"
       y2="56.824509"
       id="line47" /><line
       style="fill:none;stroke:#000000;stroke-width:1;overflow:visible"
       x1="-265.15939"
       y1="56.824509"
       x2="-248.90938"
       y2="56.824509"
       id="line49" /><line
       style="fill:none;stroke:#000000;stroke-width:1;overflow:visible"
       x1="-178.48938"
       y1="25.201509"
       x2="-178.48938"
       y2="93.620514"
       id="line51" /><line
       style="fill:none;stroke:#000000;stroke-width:1;overflow:visible"
       x1="-265.43539"
       y1="93.154518"
       x2="-224.40938"
       y2="93.154518"
       id="line53" /><line
       style="fill:none;stroke:#000000;stroke-width:1;overflow:visible"
       x1="-220.65938"
       y1="93.154518"
       x2="-178.48938"
       y2="93.154518"
       id="line55" /><line
       style="fill:none;stroke:#000000;stroke-width:1;overflow:visible"
       x1="-229.82538"
       y1="39.95351"
       x2="-218.15938"
       y2="39.95351"
       id="line117" /><line
       style="fill:none;stroke:#000000;stroke-width:1;overflow:visible"
       x1="-264.95038"
       y1="25.20351"
       x2="-264.95038"
       y2="93.620514"
       id="line119" /><path
       inkscape:connector-curvature="0"
       id="path3475"
       d="m -212.73156,25.369401 7.80597,0"
       style="color:#000000;fill:none;stroke:#000000;stroke-width:1;stroke-linecap:butt;stroke-linejoin:miter;stroke-miterlimit:4;stroke-opacity:1;stroke-dasharray:none;stroke-dashoffset:0;marker:none;visibility:visible;display:inline;overflow:visible;enable-background:accumulate" /><path
       sodipodi:nodetypes="cc"
       inkscape:connector-curvature="0"
       id="path3475-1"
       d="m -195.67991,25.36843 17.68244,0"
       style="color:#000000;fill:none;stroke:#000000;stroke-width:1;stroke-linecap:butt;stroke-linejoin:miter;stroke-miterlimit:4;stroke-opacity:1;stroke-dasharray:none;stroke-dashoffset:0;marker:none;visibility:visible;display:inline;overflow:visible;enable-background:accumulate" /></g></svg>