<?xml version="1.0" encoding="UTF-8" standalone="no"?>
<!-- Generator: Adobe Illustrator 11 Build 196, SVG Export Plug-In . SVG Version: 6.0.0 Build 78)  -->
<svg
   xmlns:dc="http://purl.org/dc/elements/1.1/"
   xmlns:cc="http://web.resource.org/cc/"
   xmlns:rdf="http://www.w3.org/1999/02/22-rdf-syntax-ns#"
   xmlns:svg="http://www.w3.org/2000/svg"
   xmlns="http://www.w3.org/2000/svg"
   xmlns:sodipodi="http://inkscape.sourceforge.net/DTD/sodipodi-0.dtd"
   xmlns:inkscape="http://www.inkscape.org/namespaces/inkscape"
   width="135.271"
   height="58.35"
   viewBox="0 0 135.271 58.35"
   style="overflow:visible;enable-background:new 0 0 135.271 58.35"
   xml:space="preserve"
   id="svg2"
   sodipodi:version="0.32"
   sodipodi:docname="dq-point-charge-in-capacitor.svg"
   sodipodi:docbase="/home/bcrowell/Documents/writing/lm/trunk/4em/ch06/figs"><metadata
   id="metadata202"><rdf:RDF><cc:Work
       rdf:about=""><dc:format>image/svg+xml</dc:format><dc:type
         rdf:resource="http://purl.org/dc/dcmitype/StillImage" /></cc:Work></rdf:RDF></metadata><defs
   id="defs200">
		
		
		
		
		
		
		
		
		
		
		
		
		
		
		
		
		
		
	
			
			
			
			
			
			
			
			
			
			
			
			
			
			
			
			
		
			
			
		</defs><sodipodi:namedview
   inkscape:cy="-46.723024"
   inkscape:cx="59.995930"
   inkscape:zoom="2.1294236"
   inkscape:window-height="996"
   inkscape:window-width="1278"
   inkscape:pageshadow="2"
   inkscape:pageopacity="0.0"
   borderopacity="1.0"
   bordercolor="#666666"
   pagecolor="#ffffff"
   id="base"
   inkscape:window-x="0"
   inkscape:window-y="0"
   inkscape:current-layer="svg2" />
	<style
   type="text/css"
   id="style4">
	
	</style>
	<rect
   style="fill:#dedede;fill-opacity:1.0000000;fill-rule:evenodd;stroke:none;stroke-width:1.0000000pt;stroke-linecap:butt;stroke-linejoin:miter;stroke-opacity:1.0000000"
   id="rect1500"
   width="181.39850"
   height="104.13617"
   x="-14.911007"
   y="-5.4755230" /><rect
   style="fill:#dedede;fill-opacity:1.0000000;fill-rule:evenodd;stroke:none;stroke-width:1.0000000pt;stroke-linecap:butt;stroke-linejoin:miter;stroke-opacity:1.0000000;overflow:visible"
   id="rect2368"
   width="181.39850"
   height="104.13617"
   x="-14.777832"
   y="106.46468" /><line
   style="fill:none;stroke:#000000"
   x1="17.788538"
   y1="26.999277"
   x2="150.83008"
   y2="26.999277"
   id="line9" /><g
   id="g11"
   transform="matrix(2.192980,0.000000,0.000000,2.192980,17.78854,2.146230)">
				<text
   transform="translate(1.125000,9.000000)"
   id="text13"><tspan
     x="0"
     y="0"
     style="font-size:7.6500001px;font-family:Liberation Sans"
     id="tspan15">+</tspan></text>



			</g><g
   id="g17"
   transform="matrix(2.192980,0.000000,0.000000,2.192980,17.78854,2.146230)">
				<text
   transform="translate(9.628900,9.000000)"
   id="text19"><tspan
     x="0"
     y="0"
     style="font-size:7.6500001px;font-family:Liberation Sans"
     id="tspan21">+</tspan></text>



			</g><g
   id="g23"
   transform="matrix(2.192980,0.000000,0.000000,2.192980,17.78854,2.146230)">
				<text
   transform="translate(18.13280,9.000000)"
   id="text25"><tspan
     x="0"
     y="0"
     style="font-size:7.6500001px;font-family:Liberation Sans"
     id="tspan27">+</tspan></text>



			</g><g
   id="g29"
   transform="matrix(2.192980,0.000000,0.000000,2.192980,17.78854,2.146230)">
				<text
   transform="translate(26.63670,9.000000)"
   id="text31"><tspan
     x="0"
     y="0"
     style="font-size:7.6500001px;font-family:Liberation Sans"
     id="tspan33">+</tspan></text>



			</g><g
   id="g35"
   transform="matrix(2.192980,0.000000,0.000000,2.192980,17.78854,2.146230)">
				<text
   transform="translate(35.14060,9.000000)"
   id="text37"><tspan
     x="0"
     y="0"
     style="font-size:7.6500001px;font-family:Liberation Sans"
     id="tspan39">+</tspan></text>



			</g><g
   id="g41"
   transform="matrix(2.192980,0.000000,0.000000,2.192980,17.78854,2.146230)">
				<text
   transform="translate(43.64450,9.000000)"
   id="text43"><tspan
     x="0"
     y="0"
     style="font-size:7.6500001px;font-family:Liberation Sans"
     id="tspan45">+</tspan></text>



			</g><g
   id="g47"
   transform="matrix(2.192980,0.000000,0.000000,2.192980,17.78854,2.146230)">
				<text
   transform="translate(52.14840,9.000000)"
   id="text49"><tspan
     x="0"
     y="0"
     style="font-size:7.6500001px;font-family:Liberation Sans"
     id="tspan51">+</tspan></text>



			</g><line
   style="fill:none;stroke:#000000"
   x1="17.788538"
   y1="71.225105"
   x2="150.83008"
   y2="71.225105"
   id="line53" /><g
   id="g55"
   transform="matrix(2.192980,0.000000,0.000000,2.192980,17.78854,2.146230)">
				<text
   transform="translate(1.625000,39.00000)"
   id="text57"><tspan
     x="0"
     y="0"
     style="font-size:7.6500001px;font-family:Liberation Sans"
     id="tspan59">–</tspan></text>



			</g><g
   id="g61"
   transform="matrix(2.192980,0.000000,0.000000,2.192980,17.78854,2.146230)">
				<text
   transform="translate(10.12890,39.00000)"
   id="text63"><tspan
     x="0"
     y="0"
     style="font-size:7.6500001px;font-family:Liberation Sans"
     id="tspan65">–</tspan></text>



			</g><g
   id="g67"
   transform="matrix(2.192980,0.000000,0.000000,2.192980,17.78854,2.146230)">
				<text
   transform="translate(18.63280,39.00000)"
   id="text69"><tspan
     x="0"
     y="0"
     style="font-size:7.6500001px;font-family:Liberation Sans"
     id="tspan71">–</tspan></text>



			</g><g
   id="g73"
   transform="matrix(2.192980,0.000000,0.000000,2.192980,17.78854,2.146230)">
				<text
   transform="translate(27.13670,39.00000)"
   id="text75"><tspan
     x="0"
     y="0"
     style="font-size:7.6500001px;font-family:Liberation Sans"
     id="tspan77">–</tspan></text>



			</g><g
   id="g79"
   transform="matrix(2.192980,0.000000,0.000000,2.192980,17.78854,2.146230)">
				<text
   transform="translate(35.64060,39.00000)"
   id="text81"><tspan
     x="0"
     y="0"
     style="font-size:7.6500001px;font-family:Liberation Sans"
     id="tspan83">–</tspan></text>



			</g><g
   id="g85"
   transform="matrix(2.192980,0.000000,0.000000,2.192980,17.78854,2.146230)">
				<text
   transform="translate(44.14450,39.00000)"
   id="text87"><tspan
     x="0"
     y="0"
     style="font-size:7.6500001px;font-family:Liberation Sans"
     id="tspan89">–</tspan></text>



			</g><g
   id="g91"
   transform="matrix(2.192980,0.000000,0.000000,2.192980,17.78854,2.146230)">
				<text
   transform="translate(52.64840,39.00000)"
   id="text93"><tspan
     x="0"
     y="0"
     style="font-size:7.6500001px;font-family:Liberation Sans"
     id="tspan95">–</tspan></text>



			</g>
<text
   xml:space="preserve"
   style="font-size:10.000000px;font-style:normal;font-variant:normal;font-weight:normal;font-stretch:normal;text-align:start;line-height:125.00000%;writing-mode:lr-tb;text-anchor:start;fill:#000000;fill-opacity:1.0000000;stroke:none;stroke-width:1.0000000pt;stroke-linecap:butt;stroke-linejoin:miter;stroke-opacity:1.0000000;font-family:Liberation Sans"
   x="-10.332814"
   y="8.1588392"
   id="text2370"
   sodipodi:linespacing="125.00000%"><tspan
     sodipodi:role="line"
     id="tspan2372"
     x="-10.332814"
     y="8.1588392">1</tspan></text>


<text
   xml:space="preserve"
   style="font-size:10.000000px;font-style:normal;font-variant:normal;font-weight:normal;font-stretch:normal;text-align:start;line-height:125.00000%;writing-mode:lr-tb;text-anchor:start;fill:#000000;fill-opacity:1.0000000;stroke:none;stroke-width:1.0000000pt;stroke-linecap:butt;stroke-linejoin:miter;stroke-opacity:1.0000000;font-family:Liberation Sans"
   x="-10.110646"
   y="120.8654"
   id="text2374"
   sodipodi:linespacing="125.00000%"><tspan
     sodipodi:role="line"
     id="tspan2376"
     x="-10.110646"
     y="120.86540">2</tspan></text>


<path
   sodipodi:type="arc"
   style="fill:#000000;fill-opacity:1.0000000;fill-rule:evenodd;stroke:#000000;stroke-width:1.0000000pt;stroke-linecap:butt;stroke-linejoin:miter;stroke-opacity:1.0000000"
   id="path1397"
   sodipodi:cx="-121.62916"
   sodipodi:cy="39.095963"
   sodipodi:rx="2.3480532"
   sodipodi:ry="2.3480532"
   d="M -119.28110 39.095963 A 2.3480532 2.3480532 0 1 1  -123.97721,39.095963 A 2.3480532 2.3480532 0 1 1  -119.28110 39.095963 z"
   transform="translate(221.6562,-2.348053)" /><g
   style="overflow:visible"
   id="g2125"
   transform="matrix(2.192980,0.000000,0.000000,2.192980,26.73713,21.80046)">
				<text
   transform="translate(35.14060,9.000000)"
   id="text2127"><tspan
     x="0"
     y="0"
     style="font-size:7.6500001px;font-family:Liberation Sans"
     id="tspan2129">+</tspan></text>



			</g><line
   style="fill:none;stroke:#000000;overflow:visible"
   x1="18.478760"
   y1="139.26924"
   x2="151.52031"
   y2="139.26924"
   id="line2131" /><g
   style="overflow:visible"
   id="g2133"
   transform="matrix(2.192980,0.000000,0.000000,2.192980,18.47876,114.4162)">
				<text
   transform="translate(1.125000,9.000000)"
   id="text2135"><tspan
     x="0"
     y="0"
     style="font-size:7.6500001px;font-family:Liberation Sans"
     id="tspan2137">+</tspan></text>



			</g><g
   style="overflow:visible"
   id="g2139"
   transform="matrix(2.192980,0.000000,0.000000,2.192980,18.47876,114.4162)">
				<text
   transform="translate(9.628900,9.000000)"
   id="text2141"><tspan
     x="0"
     y="0"
     style="font-size:7.6500001px;font-family:Liberation Sans"
     id="tspan2143">+</tspan></text>



			</g><g
   style="overflow:visible"
   id="g2145"
   transform="matrix(2.192980,0.000000,0.000000,2.192980,18.47876,114.4162)">
				<text
   transform="translate(18.13280,9.000000)"
   id="text2147"><tspan
     x="0"
     y="0"
     style="font-size:7.6500001px;font-family:Liberation Sans"
     id="tspan2149">+</tspan></text>



			</g><g
   style="overflow:visible"
   id="g2151"
   transform="matrix(2.192980,0.000000,0.000000,2.192980,18.47876,114.4162)">
				<text
   transform="translate(26.63670,9.000000)"
   id="text2153"><tspan
     x="0"
     y="0"
     style="font-size:7.6500001px;font-family:Liberation Sans"
     id="tspan2155">+</tspan></text>



			</g><g
   style="overflow:visible"
   id="g2157"
   transform="matrix(2.192980,0.000000,0.000000,2.192980,18.47876,114.4162)">
				<text
   transform="translate(35.14060,9.000000)"
   id="text2159"><tspan
     x="0"
     y="0"
     style="font-size:7.6500001px;font-family:Liberation Sans"
     id="tspan2161">+</tspan></text>



			</g><g
   style="overflow:visible"
   id="g2163"
   transform="matrix(2.192980,0.000000,0.000000,2.192980,18.47876,114.4162)">
				<text
   transform="translate(43.64450,9.000000)"
   id="text2165"><tspan
     x="0"
     y="0"
     style="font-size:7.6500001px;font-family:Liberation Sans"
     id="tspan2167">+</tspan></text>



			</g><g
   style="overflow:visible"
   id="g2169"
   transform="matrix(2.192980,0.000000,0.000000,2.192980,18.47876,114.4162)">
				<text
   transform="translate(52.14840,9.000000)"
   id="text2171"><tspan
     x="0"
     y="0"
     style="font-size:7.6500001px;font-family:Liberation Sans"
     id="tspan2173">+</tspan></text>



			</g><line
   style="fill:none;stroke:#000000;overflow:visible"
   x1="18.478760"
   y1="183.49507"
   x2="151.52031"
   y2="183.49507"
   id="line2175" /><g
   style="overflow:visible"
   id="g2177"
   transform="matrix(2.192980,0.000000,0.000000,2.192980,18.47876,114.4162)">
				<text
   transform="translate(1.625000,39.00000)"
   id="text2179"><tspan
     x="0"
     y="0"
     style="font-size:7.6500001px;font-family:Liberation Sans"
     id="tspan2181">–</tspan></text>



			</g><g
   style="overflow:visible"
   id="g2183"
   transform="matrix(2.192980,0.000000,0.000000,2.192980,18.47876,114.4162)">
				<text
   transform="translate(10.12890,39.00000)"
   id="text2185"><tspan
     x="0"
     y="0"
     style="font-size:7.6500001px;font-family:Liberation Sans"
     id="tspan2187">–</tspan></text>



			</g><g
   style="overflow:visible"
   id="g2189"
   transform="matrix(2.192980,0.000000,0.000000,2.192980,18.47876,114.4162)">
				<text
   transform="translate(18.63280,39.00000)"
   id="text2191"><tspan
     x="0"
     y="0"
     style="font-size:7.6500001px;font-family:Liberation Sans"
     id="tspan2193">–</tspan></text>



			</g><g
   style="overflow:visible"
   id="g2195"
   transform="matrix(2.192980,0.000000,0.000000,2.192980,18.47876,114.4162)">
				<text
   transform="translate(27.13670,39.00000)"
   id="text2197"><tspan
     x="0"
     y="0"
     style="font-size:7.6500001px;font-family:Liberation Sans"
     id="tspan2199">–</tspan></text>



			</g><g
   style="overflow:visible"
   id="g2201"
   transform="matrix(2.192980,0.000000,0.000000,2.192980,18.47876,114.4162)">
				<text
   transform="translate(35.64060,39.00000)"
   id="text2203"><tspan
     x="0"
     y="0"
     style="font-size:7.6500001px;font-family:Liberation Sans"
     id="tspan2205">–</tspan></text>



			</g><g
   style="overflow:visible"
   id="g2207"
   transform="matrix(2.192980,0.000000,0.000000,2.192980,18.47876,114.4162)">
				<text
   transform="translate(44.14450,39.00000)"
   id="text2209"><tspan
     x="0"
     y="0"
     style="font-size:7.6500001px;font-family:Liberation Sans"
     id="tspan2211">–</tspan></text>



			</g><g
   style="overflow:visible"
   id="g2213"
   transform="matrix(2.192980,0.000000,0.000000,2.192980,18.47876,114.4162)">
				<text
   transform="translate(52.64840,39.00000)"
   id="text2215"><tspan
     x="0"
     y="0"
     style="font-size:7.6500001px;font-family:Liberation Sans"
     id="tspan2217">–</tspan></text>



			</g><path
   sodipodi:type="arc"
   style="fill:#000000;fill-opacity:1.0000000;fill-rule:evenodd;stroke:#000000;stroke-width:1.0000000pt;stroke-linecap:butt;stroke-linejoin:miter;stroke-opacity:1.0000000;overflow:visible"
   id="path2219"
   sodipodi:cx="-121.62916"
   sodipodi:cy="39.095963"
   sodipodi:rx="2.3480532"
   sodipodi:ry="2.3480532"
   d="M -119.28110 39.095963 A 2.3480532 2.3480532 0 1 1  -123.97721,39.095963 A 2.3480532 2.3480532 0 1 1  -119.28110 39.095963 z"
   transform="translate(222.3465,133.9219)" /><g
   style="overflow:visible"
   id="g2221"
   transform="matrix(2.192980,0.000000,0.000000,2.192980,27.42735,158.0704)">
				<text
   transform="translate(35.14060,9.000000)"
   id="text2223"><tspan
     x="0"
     y="0"
     style="font-size:7.6500001px;font-family:Liberation Sans"
     id="tspan2225">+</tspan></text>



			</g></svg>