<?xml version="1.0" encoding="UTF-8" standalone="no"?>
<!-- Generator: Adobe Illustrator 11 Build 196, SVG Export Plug-In . SVG Version: 6.0.0 Build 78)  -->
<svg
   xmlns:dc="http://purl.org/dc/elements/1.1/"
   xmlns:cc="http://web.resource.org/cc/"
   xmlns:rdf="http://www.w3.org/1999/02/22-rdf-syntax-ns#"
   xmlns:svg="http://www.w3.org/2000/svg"
   xmlns="http://www.w3.org/2000/svg"
   xmlns:sodipodi="http://inkscape.sourceforge.net/DTD/sodipodi-0.dtd"
   xmlns:inkscape="http://www.inkscape.org/namespaces/inkscape"
   width="360.188"
   height="121.76"
   viewBox="0 0 360.188 121.76"
   style="overflow:visible;enable-background:new 0 0 360.188 121.76"
   xml:space="preserve"
   id="svg2"
   sodipodi:version="0.32"
   sodipodi:docname="em-wave.svg"
   sodipodi:docbase="/home/bcrowell/Documents/writing/lm/trunk/4em/ch06/figs"><metadata
   id="metadata220"><rdf:RDF><cc:Work
       rdf:about=""><dc:format>image/svg+xml</dc:format><dc:type
         rdf:resource="http://purl.org/dc/dcmitype/StillImage" /></cc:Work></rdf:RDF></metadata><defs
   id="defs218">
		
		
		
		
		
		
		
		
		
		
		
		
		
		
		
		
		
		
		
		
		
		
		
		
		
		
		
		
		
		
		 
		
		
		
		
		
		
		
		
		
		
		
		
		
		
		
	</defs><sodipodi:namedview
   inkscape:cy="50.458782"
   inkscape:cx="179.58312"
   inkscape:zoom="2.7575300"
   inkscape:window-height="996"
   inkscape:window-width="1278"
   inkscape:pageshadow="2"
   inkscape:pageopacity="0.0"
   borderopacity="1.0"
   bordercolor="#666666"
   pagecolor="#ffffff"
   id="base"
   inkscape:window-x="0"
   inkscape:window-y="0"
   inkscape:current-layer="svg2" />
	<style
   type="text/css"
   id="style4">
	
	</style>
	<rect
   style="fill:#dedede;fill-opacity:1.0000000;fill-rule:evenodd;stroke:none;stroke-width:1.0000000pt;stroke-linecap:butt;stroke-linejoin:miter;stroke-opacity:1.0000000"
   id="rect1518"
   width="400.39371"
   height="136.61816"
   x="-21.616798"
   y="-6.2114410" /><g
   id="g7">
			<path
   id="path9"
   d="M 126.75200,40.822000 C 109.37700,72.432000 83.360000,71.064000 70.649000,40.840000"
   style="fill:none;stroke:#000000" />
			<path
   id="path11"
   d="M 14.311000,40.827000 C 31.687000,9.2180000 57.703000,10.586000 70.414000,40.810000"
   style="fill:none;stroke:#000000" />
			<path
   id="path13"
   d="M 239.37300,42.114000 C 221.99800,73.724000 195.98100,72.356000 183.27000,42.132000"
   style="fill:none;stroke:#000000" />
			<path
   id="path15"
   d="M 126.93300,42.119000 C 144.30800,10.509000 170.32500,11.878000 183.03600,42.101000"
   style="fill:none;stroke:#000000" />
			<path
   id="path17"
   d="M 352.02600,42.278000 C 334.65100,73.888000 308.63400,72.520000 295.92300,42.296000"
   style="fill:none;stroke:#000000" />
			<path
   id="path19"
   d="M 239.58600,42.283000 C 256.96100,10.673000 282.97800,12.042000 295.68900,42.265000"
   style="fill:none;stroke:#000000" />
		</g><g
   id="g21">
			<path
   id="path23"
   d="M 127.44000,41.667000 C 104.87800,24.012000 79.010000,24.796000 71.175000,41.699000"
   style="fill:none;stroke:#000000" />
			<path
   id="path25"
   d="M 14.679000,41.748000 C 37.241000,59.403000 63.109000,58.619000 70.944000,41.716000"
   style="fill:none;stroke:#000000" />
			<path
   id="path27"
   d="M 240.17200,40.861000 C 217.61000,23.205000 191.74200,23.989000 183.90700,40.893000"
   style="fill:none;stroke:#000000" />
			<path
   id="path29"
   d="M 127.41100,40.942000 C 149.97300,58.598000 175.84100,57.814000 183.67600,40.911000"
   style="fill:none;stroke:#000000" />
			<path
   id="path31"
   d="M 353.11900,40.685000 C 330.55700,23.030000 304.68900,23.814000 296.85400,40.717000"
   style="fill:none;stroke:#000000" />
			<path
   id="path33"
   d="M 240.35800,40.767000 C 262.92000,58.422000 288.78800,57.638000 296.62400,40.735000"
   style="fill:none;stroke:#000000" />
		</g><line
   id="line35"
   y2="41.311001"
   x2="360.18799"
   y1="41.311001"
   x1="0.0000000"
   style="fill:none;stroke:#000000;stroke-width:0.50000000;stroke-dasharray:2.0000000 " /><g
   id="g37">
			<line
   id="line39"
   y2="6.2309999"
   x2="270.16599"
   y1="6.2309999"
   x1="209.49899"
   style="stroke:#000000" />
			<path
   id="path41"
   d="M 273.78700,6.2310000 C 272.08300,6.8630000 269.96900,7.9420000 268.65900,9.0840000 L 269.69100,6.2310000 L 268.65900,3.3780000 C 269.96900,4.5200000 272.08300,5.5990000 273.78700,6.2310000 z " />
		</g><g
   id="g43">
			<text
   id="text45"
   transform="translate(97.45510,9.000000)"><tspan
     id="tspan47"
     style="font-size:7.6500001px;font-family:Liberation Sans"
     y="0"
     x="0">direction of motion of wave</tspan></text>

		</g><polygon
   id="polygon49"
   points="40.661000,23.243000 42.985000,17.594000 45.696000,23.243000 44.244000,23.243000 44.244000,40.996000 42.114000,40.996000 42.114000,23.243000 40.661000,23.243000 " /><polygon
   id="polygon51"
   points="42.116000,41.295000 45.554000,51.482000 44.304000,51.482000 47.616000,54.295000 49.241000,51.482000 47.741000,51.482000 44.054000,41.295000 42.116000,41.295000 "
   style="fill:#ffffff;stroke:#000000;stroke-width:0.50000000" /><polygon
   id="polygon53"
   points="98.097000,41.304000 94.660000,31.117000 95.910000,31.117000 92.597000,28.304000 90.972000,31.117000 92.472000,31.117000 96.160000,41.304000 98.097000,41.304000 "
   style="fill:#ffffff;stroke:#000000;stroke-width:0.50000000" /><polygon
   id="polygon55"
   points="99.821000,59.097000 97.498000,64.746000 94.786000,59.097000 96.239000,59.097000 96.239000,41.344000 98.369000,41.344000 98.369000,59.097000 99.821000,59.097000 " /><polygon
   id="polygon57"
   points="154.22400,23.993000 156.54700,18.344000 159.25900,23.993000 157.80600,23.993000 157.80600,41.746000 155.67600,41.746000 155.67600,23.993000 154.22400,23.993000 " /><polygon
   id="polygon59"
   points="266.97400,23.993000 269.29700,18.344000 272.00900,23.993000 270.55600,23.993000 270.55600,41.746000 268.42600,41.746000 268.42600,23.993000 266.97400,23.993000 " /><polygon
   id="polygon61"
   points="212.17900,40.857000 208.74100,30.670000 209.99100,30.670000 206.67900,27.857000 205.05400,30.670000 206.55400,30.670000 210.24100,40.857000 212.17900,40.857000 "
   style="fill:#ffffff;stroke:#000000;stroke-width:0.50000000" /><polygon
   id="polygon63"
   points="155.74100,41.295000 159.17900,51.482000 157.92900,51.482000 161.24100,54.295000 162.86600,51.482000 161.36600,51.482000 157.67900,41.295000 155.74100,41.295000 "
   style="fill:#ffffff;stroke:#000000;stroke-width:0.50000000" /><polygon
   id="polygon65"
   points="268.74100,41.232000 272.17900,51.420000 270.92900,51.420000 274.24100,54.232000 275.86600,51.420000 274.36600,51.420000 270.67900,41.232000 268.74100,41.232000 "
   style="fill:#ffffff;stroke:#000000;stroke-width:0.50000000" /><polygon
   id="polygon67"
   points="213.44600,59.347000 211.12300,64.996000 208.41100,59.347000 209.86300,59.347000 209.86300,41.594000 211.99400,41.594000 211.99400,59.347000 213.44600,59.347000 " /><polygon
   id="polygon69"
   points="325.25900,59.597000 322.93500,65.246000 320.22400,59.597000 321.67600,59.597000 321.67600,41.844000 323.80600,41.844000 323.80600,59.597000 325.25900,59.597000 " /><polygon
   id="polygon71"
   points="323.49100,40.545000 320.05400,30.357000 321.30400,30.357000 317.99100,27.545000 316.36600,30.357000 317.86600,30.357000 321.55400,40.545000 323.49100,40.545000 "
   style="fill:#ffffff;stroke:#000000;stroke-width:0.50000000" /><g
   id="g73">
			<text
   id="text75"
   transform="translate(46.88720,33.14940)"><tspan
     id="tspan77"
     style="font-size:7.6500001px;font-family:Liberation Sans"
     y="0"
     x="0">E</tspan></text>

		</g><g
   id="g79">
			<text
   id="text81"
   transform="translate(160.7188,33.14940)"><tspan
     id="tspan83"
     style="font-size:7.6500001px;font-family:Liberation Sans"
     y="0"
     x="0">E</tspan></text>

		</g><g
   id="g85">
			<text
   id="text87"
   transform="translate(273.7188,33.14940)"><tspan
     id="tspan89"
     style="font-size:7.6500001px;font-family:Liberation Sans"
     y="0"
     x="0">E</tspan></text>

		</g><g
   id="g91">
			<text
   id="text93"
   transform="translate(100.3872,56.51370)"><tspan
     id="tspan95"
     style="font-size:7.6500001px;font-family:Liberation Sans"
     y="0"
     x="0">E</tspan></text>

		</g><g
   id="g97">
			<text
   id="text99"
   transform="translate(214.3872,56.51370)"><tspan
     id="tspan101"
     style="font-size:7.6500001px;font-family:Liberation Sans"
     y="0"
     x="0">E</tspan></text>

		</g><g
   id="g103">
			<text
   id="text105"
   transform="translate(98.88720,38.21140)"><tspan
     id="tspan107"
     style="font-size:7.6500001px;font-family:Liberation Sans"
     y="0"
     x="0">B</tspan></text>

		</g><g
   id="g109">
			<text
   id="text111"
   transform="translate(162.3857,50.56250)"><tspan
     id="tspan113"
     style="font-size:7.6500001px;font-family:Liberation Sans"
     y="0"
     x="0">B</tspan></text>

		</g><g
   id="g115">
			<text
   id="text117"
   transform="translate(212.3857,38.11820)"><tspan
     id="tspan119"
     style="font-size:7.6500001px;font-family:Liberation Sans"
     y="0"
     x="0">B</tspan></text>

		</g><g
   id="g121">
			<text
   id="text123"
   transform="translate(276.0522,50.56250)"><tspan
     id="tspan125"
     style="font-size:7.6500001px;font-family:Liberation Sans"
     y="0"
     x="0">B</tspan></text>

		</g><g
   id="g127">
			<text
   id="text129"
   transform="translate(49.71880,50.56250)"><tspan
     id="tspan131"
     style="font-size:7.6500001px;font-family:Liberation Sans"
     y="0"
     x="0">B</tspan></text>

		</g><g
   id="g133">
			<text
   id="text135"
   transform="translate(323.5537,37.87840)"><tspan
     id="tspan137"
     style="font-size:7.6500001px;font-family:Liberation Sans"
     y="0"
     x="0">B</tspan></text>

		</g><g
   id="g139">
			<text
   id="text141"
   transform="translate(326.0522,56.51370)"><tspan
     id="tspan143"
     style="font-size:7.6500001px;font-family:Liberation Sans"
     y="0"
     x="0">E</tspan></text>

		</g><polygon
   id="polygon145"
   points="201.41700,109.87300 193.67800,83.979000 94.357000,83.979000 102.09700,109.87300 201.41700,109.87300 "
   style="fill:none;stroke:#000000;stroke-width:0.25000000" /><rect
   id="rect147"
   height="48.667000"
   width="99.217003"
   style="fill:none;stroke:#000000;stroke-width:0.25000000"
   y="72.593002"
   x="98.445000" /><line
   id="line149"
   y2="96.926003"
   x2="197.55400"
   y1="96.926003"
   x1="98.554001"
   style="fill:none;stroke:#000000;stroke-width:0.50000000;stroke-dasharray:2.0000000 " /><g
   id="g151">
			<line
   id="line153"
   y2="114.92900"
   x2="34.557999"
   y1="78.262001"
   x1="34.557999"
   style="fill:none;stroke:#000000;stroke-width:3.0000000" />
			<path
   id="path155"
   d="M 34.558000,119.45500 C 33.768000,117.32500 32.419000,114.68300 30.992000,113.04500 L 34.558000,114.33500 L 38.124000,113.04500 C 36.696000,114.68300 35.347000,117.32500 34.558000,119.45500 z " />
			<path
   id="path157"
   d="M 34.558000,73.735000 C 35.348000,75.865000 36.697000,78.507000 38.124000,80.145000 L 34.558000,78.855000 L 30.992000,80.145000 C 32.419000,78.508000 33.768000,75.865000 34.558000,73.735000 z " />
		</g><polygon
   id="polygon159"
   points="298.99100,105.17000 295.30700,94.992000 295.32600,94.992000 291.88900,84.805000 293.13900,84.805000 289.82600,81.992000 288.20100,84.805000 289.70100,84.805000 293.38500,94.982000 293.36600,94.982000 296.80400,105.17000 295.55400,105.17000 298.86600,107.98200 300.49100,105.17000 298.99100,105.17000 "
   style="fill:#ffffff;stroke:#000000;stroke-width:0.50000000;fill-opacity:1.0000000" /><g
   id="g161">
			<path
   id="path163"
   d="M 89.811000,72.768000 C 85.440000,74.918000 90.782000,92.115000 84.469000,96.952000"
   style="fill:none;stroke:#000000;stroke-width:1.5000000" />
			<path
   id="path165"
   d="M 89.871000,121.06200 C 85.500000,118.91300 90.842000,101.71500 84.529000,96.879000"
   style="fill:none;stroke:#000000;stroke-width:1.5000000" />
		</g><g
   id="g167">
			<path
   id="path169"
   d="M 208.12500,83.999000 C 212.76300,84.878000 210.44900,94.548000 217.44100,96.757000"
   style="fill:none;stroke:#000000;stroke-width:1.5000000" />
			<path
   id="path171"
   d="M 216.23700,110.17700 C 220.14800,108.72600 212.01400,99.755000 217.36900,96.721000"
   style="fill:none;stroke:#000000;stroke-width:1.5000000" />
		</g><line
   id="line173"
   y2="72.544998"
   x2="96.220001"
   y1="72.544998"
   x1="91.887001"
   style="fill:none;stroke:#000000;stroke-width:0.50000000" /><line
   id="line175"
   y2="120.87800"
   x2="95.907997"
   y1="120.87800"
   x1="91.574997"
   style="fill:none;stroke:#000000;stroke-width:0.50000000" /><line
   id="line177"
   y2="109.54500"
   x2="211.05400"
   y1="109.54500"
   x1="206.72000"
   style="fill:none;stroke:#000000;stroke-width:0.50000000" /><line
   id="line179"
   y2="84.044998"
   x2="203.88699"
   y1="84.044998"
   x1="199.55400"
   style="fill:none;stroke:#000000;stroke-width:0.50000000" /><polyline
   id="polyline181"
   points="197.554,96.982 197.554,72.655 98.445,72.655 98.445,96.92 "
   style="fill:none;stroke:#000000" /><polyline
   id="polyline183"
   points="197.679,109.92 197.679,121.26 98.429,121.26 98.429,96.92 "
   style="fill:none;stroke:#000000" /><polyline
   id="polyline185"
   points="98.366,83.92 94.357,83.92 98.241,96.857 102.097,109.873 201.417,109.873     197.554,96.857 "
   style="fill:none;stroke:#000000" /><g
   id="g187">
			<text
   id="text189"
   transform="translate(218.5537,92.54490)"><tspan
     id="tspan191"
     style="font-size:7.6500001px;font-family:Liberation Sans"
     y="0"
     x="0">plane of vibration</tspan></text>

		</g><g
   id="g193">
			<text
   id="text195"
   transform="translate(225.0537,104.0449)"><tspan
     id="tspan197"
     style="font-size:7.6500001px;font-family:Liberation Sans"
     y="0"
     x="0">of magnetic field</tspan></text>

		</g><g
   id="g199">
			<text
   id="text201"
   transform="translate(49.53960,80.54490)"><tspan
     id="tspan203"
     style="font-size:7.6500001px;font-family:Liberation Sans"
     y="0"
     x="0">plane of</tspan></text>

			<text
   id="text205"
   transform="translate(47.55130,91.54490)"><tspan
     id="tspan207"
     style="font-size:7.6500001px;font-family:Liberation Sans"
     y="0"
     x="0">vibration</tspan></text>

			<text
   id="text209"
   transform="translate(43.05370,102.5449)"><tspan
     id="tspan211"
     style="font-size:7.6500001px;font-family:Liberation Sans"
     y="0"
     x="0">of electric</tspan></text>

			<text
   id="text213"
   transform="translate(65.05270,113.5449)"><tspan
     id="tspan215"
     style="font-size:7.6500001px;font-family:Liberation Sans"
     y="0"
     x="0">field</tspan></text>

		</g>
</svg>