<?xml version="1.0" encoding="iso-8859-1"?>
<!-- Generator: Adobe Illustrator 11 Build 196, SVG Export Plug-In . SVG Version: 6.0.0 Build 78)  -->
<!DOCTYPE svg PUBLIC "-//W3C//DTD SVG 1.0//EN"    "http://www.w3.org/TR/2001/REC-SVG-20010904/DTD/svg10.dtd" [
	<!ENTITY ns_flows "http://ns.adobe.com/Flows/1.0/">
	<!ENTITY ns_svg "http://www.w3.org/2000/svg">
	<!ENTITY ns_xlink "http://www.w3.org/1999/xlink">
]>
<svg  
	 width="75.58" height="60.882" viewBox="0 0 75.58 60.882" style="overflow:visible;enable-background:new 0 0 75.58 60.882"
	 xml:space="preserve">
	<g id="Layer_1">
		<g>
			<path style="fill:none;stroke:#000000;stroke-width:0.5;" d="M10.185,0.812C24.807,1.296,38.086,1.694,41.646,1.32
				c3.56-0.373,8.943-1.605,10.52-0.805s5.975,5.413,6.994,6.921s9.739,10.496,10.603,11.528c0.863,1.033,4.719,3.982,5.238,9.598
				s0.413,10.122-0.232,12.173s-4.312,6.931-5.35,8.584c-1.038,1.654-2.323,4.967-3.594,5.907c-1.271,0.941-3.007,0.456-3.007,0.456
				"/>
			<path style="fill:none;stroke:#000000;stroke-width:0.5;" d="M0.146,26.444c4.802,3.429,8.333,7.798,11.645,9.083
				s9.467,3.22,11.431,5.208c1.964,1.989,10.709,7.023,12.989,9.171c2.279,2.148,6.533,4.705,8.191,4.952
				c1.659,0.248,3.71,0.893,5.126,2.008c1.417,1.116,5.748,3.909,7.013,3.759c1.266-0.15,4.67-0.999,5.151-1.945
				c0.48-0.946,1.13-3.788-0.199-6.247c-1.329-2.459-2.968-5.868-4.069-6.824c-1.101-0.956-6.062-4.069-7.716-5.107
				c-1.654-1.038-5.82-4.937-6.13-5.888s-3.036-7.687-3.036-7.687"/>
			<path style="fill:none;stroke:#000000;stroke-width:0.5;" d="M43.519,31.216c0,0,4.598-14.914,4.287-15.864"/>
			<path style="fill:none;stroke:#000000;stroke-width:0.5;" d="M47.69,21.438c2.192,3.492,6.363,6.601,7.711,5.897"/>
			<path style="fill:none;stroke:#000000;stroke-width:0.5;" d="M56.711,26.514c1.535,1.077,6.152,4.478,6.625,4.718
				c0.473,0.24,0.699,6.435,0.888,7.819s0.58,2.178,0.58,2.178s-4.884,3.567-5.129,4.831"/>
			<path style="fill:none;stroke:#000000;stroke-width:0.5;" d="M53.701,29.645c2.092,2.648,5.387,6.832,5.387,6.832l1.339,5.173"/>
			<line style="fill:none;stroke:#000000;stroke-width:0.5;" x1="57.755" y1="21.658" x2="56.944" y2="25.079"/>
			<line style="fill:none;stroke:#000000;stroke-width:0.5;" x1="64.923" y1="30.188" x2="66.35" y2="29.722"/>
			<line style="fill:none;stroke:#000000;stroke-width:0.5;" x1="67.122" y1="41.216" x2="65.858" y2="41.103"/>
			<polyline style="fill:none;stroke:#000000;stroke-width:0.5;" points="60.98,57.708 56.54,53.373 51.93,57.376 "/>
			<path style="fill:none;stroke:#000000;stroke-width:0.5;" d="M50.168,49.163c0,0-0.01,1.581-0.684,1.933"/>
			<polyline style="fill:none;stroke:#000000;stroke-width:0.5;" points="60.061,32.477 61.684,34.226 61.936,36.072 "/>
		</g>
	</g>
</svg>
