<?xml version="1.0" encoding="iso-8859-1"?>
<!-- Generator: Adobe Illustrator 11 Build 196, SVG Export Plug-In . SVG Version: 6.0.0 Build 78)  -->
<!DOCTYPE svg PUBLIC "-//W3C//DTD SVG 1.0//EN"    "http://www.w3.org/TR/2001/REC-SVG-20010904/DTD/svg10.dtd" [
	<!ENTITY ns_flows "http://ns.adobe.com/Flows/1.0/">
	<!ENTITY ns_svg "http://www.w3.org/2000/svg">
	<!ENTITY ns_xlink "http://www.w3.org/1999/xlink">
]>
<svg  
	 width="82.333" height="129.125" viewBox="0 0 82.333 129.125" style="overflow:visible;enable-background:new 0 0 82.333 129.125"
	 xml:space="preserve">
	<style type="text/css">
	
	</style>
	<g id="Layer_1">
		<line style="fill:none;stroke:#000000;stroke-width:2;" x1="25.5" y1="0" x2="25.5" y2="57"/>
		<line style="fill:none;stroke:#000000;stroke-width:2;" x1="49.5" y1="0" x2="49.5" y2="57"/>
		<polyline style="fill:none;stroke:#000000;" points="33.375,112.375 32.5,112.375 27.5,112.375 0.5,112.375 0.5,50.625 
			24.5,50.625 25.438,50.625 "/>
		<line style="fill:none;stroke:#000000;" x1="49.5" y1="50.625" x2="77.375" y2="50.625"/>
		<polyline style="fill:none;stroke:#000000;" points="77,50.812 77,112.375 40.938,112.375 "/>
		<g>
			<line style="fill:none;stroke:#000000;" x1="33.5" y1="107.125" x2="33.5" y2="117.625"/>
			<line style="fill:none;stroke:#000000;" x1="41" y1="95.625" x2="41" y2="129.125"/>
		</g>
		<g>
			<text transform="matrix(1 0 0 1 45 119.875)"><tspan x="0" y="0" style="font-family:Liberation Sans; font-size:8.500000;">+</tspan></text>
		</g>
		<g>
			<text transform="matrix(1 0 0 1 26 119.875)"><tspan x="0" y="0" style="font-family:Liberation Sans; font-size:8.500000;">&#x2013;</tspan></text>
		</g>
		<g>
			<text transform="matrix(1 0 0 1 16.3335 32.2085)"><tspan x="0" y="0" style="font-family:Liberation Sans; font-size:8.500000;">A</tspan></text>
		</g>
		<rect x="45.333" y="20.344" style="fill:#FFFFFF;" width="11.333" height="16.729"/> 
		<g>
			<text transform="matrix(1 0 0 1 47 32.2085)"><tspan x="0" y="0" style="font-family:Liberation Sans; font-size:8.500000;">B</tspan></text>
		</g>
		<line style="fill:none;" x1="82.333" y1="71.542" x2="82.333" y2="80.875"/>
	</g>
</svg>
