<?xml version="1.0" encoding="iso-8859-1"?>
<!-- Generator: Adobe Illustrator 11 Build 196, SVG Export Plug-In . SVG Version: 6.0.0 Build 78)  -->
<!DOCTYPE svg PUBLIC "-//W3C//DTD SVG 1.0//EN"    "http://www.w3.org/TR/2001/REC-SVG-20010904/DTD/svg10.dtd" [
	<!ENTITY ns_flows "http://ns.adobe.com/Flows/1.0/">
	<!ENTITY ns_svg "http://www.w3.org/2000/svg">
	<!ENTITY ns_xlink "http://www.w3.org/1999/xlink">
]>
<svg  
	 width="145.417" height="43.357" viewBox="0 0 145.417 43.357" style="overflow:visible;enable-background:new 0 0 145.417 43.357"
	 xml:space="preserve">
	<g id="Layer_1">
		<g>
			<line style="fill:none;stroke:#000000;stroke-width:2;" x1="0.12" y1="37.754" x2="32.61" y2="37.754"/>
			<line style="fill:none;stroke:#000000;stroke-width:2;" x1="32.61" y1="5.264" x2="0.12" y2="5.264"/>
			<line style="fill:none;stroke:#000000;stroke-width:2;" x1="16.365" y1="5.114" x2="16.365" y2="0"/>
			<line style="fill:none;stroke:#000000;stroke-width:2;" x1="16.365" y1="43.357" x2="16.365" y2="38.243"/>
			<g>
				<line style="fill:none;stroke:#000000;stroke-width:0.5;" x1="2.146" y1="9.476" x2="2.146" y2="15.493"/>
				<path d="M2.146,18.216C1.67,16.935,0.859,15.345,0,14.359l2.146,0.776l2.146-0.776C3.433,15.345,2.621,16.935,2.146,18.216z"/>
			</g>
			<g>
				<line style="fill:none;stroke:#000000;stroke-width:0.5;" x1="9.328" y1="9.476" x2="9.328" y2="15.493"/>
				<path d="M9.328,18.216c-0.475-1.281-1.287-2.871-2.146-3.857l2.146,0.776l2.146-0.776C10.615,15.345,9.803,16.935,9.328,18.216z
					"/>
			</g>
			<g>
				<line style="fill:none;stroke:#000000;stroke-width:0.5;" x1="16.51" y1="9.476" x2="16.51" y2="15.493"/>
				<path d="M16.51,18.216c-0.475-1.281-1.287-2.871-2.146-3.857l2.146,0.776l2.146-0.776C17.797,15.345,16.986,16.935,16.51,18.216
					z"/>
			</g>
			<g>
				<line style="fill:none;stroke:#000000;stroke-width:0.5;" x1="23.693" y1="9.476" x2="23.693" y2="15.493"/>
				<path d="M23.693,18.216c-0.475-1.281-1.287-2.871-2.146-3.857l2.146,0.776l2.146-0.776
					C24.98,15.345,24.168,16.935,23.693,18.216z"/>
			</g>
			<g>
				<line style="fill:none;stroke:#000000;stroke-width:0.5;" x1="30.875" y1="9.476" x2="30.875" y2="15.493"/>
				<path d="M30.875,18.216c-0.476-1.281-1.287-2.871-2.146-3.857l2.146,0.776l2.146-0.776
					C32.162,15.345,31.35,16.935,30.875,18.216z"/>
			</g>
			<g>
				<line style="fill:none;stroke:#000000;stroke-width:0.5;" x1="2.146" y1="22.863" x2="2.146" y2="28.88"/>
				<path d="M2.146,31.603C1.67,30.322,0.859,28.732,0,27.746l2.146,0.776l2.146-0.776C3.433,28.732,2.621,30.322,2.146,31.603z"/>
			</g>
			<g>
				<line style="fill:none;stroke:#000000;stroke-width:0.5;" x1="9.328" y1="22.863" x2="9.328" y2="28.88"/>
				<path d="M9.328,31.603c-0.475-1.281-1.287-2.871-2.146-3.857l2.146,0.776l2.146-0.776C10.615,28.732,9.803,30.322,9.328,31.603z
					"/>
			</g>
			<g>
				<line style="fill:none;stroke:#000000;stroke-width:0.5;" x1="16.51" y1="22.863" x2="16.51" y2="28.88"/>
				<path d="M16.51,31.603c-0.475-1.281-1.287-2.871-2.146-3.857l2.146,0.776l2.146-0.776C17.797,28.732,16.986,30.322,16.51,31.603
					z"/>
			</g>
			<g>
				<line style="fill:none;stroke:#000000;stroke-width:0.5;" x1="23.693" y1="22.863" x2="23.693" y2="28.88"/>
				<path d="M23.693,31.603c-0.475-1.281-1.287-2.871-2.146-3.857l2.146,0.776l2.146-0.776
					C24.98,28.732,24.168,30.322,23.693,31.603z"/>
			</g>
			<g>
				<line style="fill:none;stroke:#000000;stroke-width:0.5;" x1="30.875" y1="22.863" x2="30.875" y2="28.88"/>
				<path d="M30.875,31.603c-0.476-1.281-1.287-2.871-2.146-3.857l2.146,0.776l2.146-0.776
					C32.162,28.732,31.35,30.322,30.875,31.603z"/>
			</g>
		</g>
		<g>
			<line style="fill:none;stroke:#000000;stroke-width:2;" x1="84.395" y1="38.069" x2="84.395" y2="5.579"/>
			<line style="fill:none;stroke:#000000;stroke-width:2;" x1="51.905" y1="5.579" x2="51.905" y2="38.069"/>
			<line style="fill:none;stroke:#000000;stroke-width:2;" x1="51.755" y1="21.824" x2="46.64" y2="21.824"/>
			<line style="fill:none;stroke:#000000;stroke-width:2;" x1="89.998" y1="21.824" x2="84.884" y2="21.824"/>
			<g>
				<line style="fill:none;stroke:#000000;stroke-width:0.5;" x1="56.117" y1="36.043" x2="62.134" y2="36.043"/>
				<path d="M64.857,36.043c-1.281,0.475-2.871,1.287-3.856,2.146l0.776-2.146L61,33.898C61.986,34.756,63.575,35.568,64.857,36.043
					z"/>
			</g>
			<g>
				<line style="fill:none;stroke:#000000;stroke-width:0.5;" x1="56.117" y1="28.861" x2="62.134" y2="28.861"/>
				<path d="M64.857,28.861c-1.281,0.475-2.871,1.287-3.856,2.146l0.776-2.146L61,26.715C61.986,27.574,63.575,28.385,64.857,28.861
					z"/>
			</g>
			<g>
				<line style="fill:none;stroke:#000000;stroke-width:0.5;" x1="56.117" y1="21.678" x2="62.134" y2="21.678"/>
				<path d="M64.857,21.678c-1.281,0.475-2.871,1.287-3.856,2.146l0.776-2.146L61,19.533C61.986,20.392,63.575,21.203,64.857,21.678
					z"/>
			</g>
			<g>
				<line style="fill:none;stroke:#000000;stroke-width:0.5;" x1="56.117" y1="14.496" x2="62.134" y2="14.496"/>
				<path d="M64.857,14.496c-1.281,0.476-2.871,1.287-3.856,2.146l0.776-2.146L61,12.351C61.986,13.209,63.575,14.021,64.857,14.496
					z"/>
			</g>
			<g>
				<line style="fill:none;stroke:#000000;stroke-width:0.5;" x1="56.117" y1="7.314" x2="62.134" y2="7.314"/>
				<path d="M64.857,7.314C63.575,7.789,61.986,8.601,61,9.459l0.776-2.146L61,5.168C61.986,6.027,63.575,6.838,64.857,7.314z"/>
			</g>
			<g>
				<line style="fill:none;stroke:#000000;stroke-width:0.5;" x1="69.504" y1="36.043" x2="75.52" y2="36.043"/>
				<path d="M78.244,36.043c-1.281,0.475-2.872,1.287-3.857,2.146l0.776-2.146l-0.776-2.146
					C75.372,34.756,76.963,35.568,78.244,36.043z"/>
			</g>
			<g>
				<line style="fill:none;stroke:#000000;stroke-width:0.5;" x1="69.504" y1="28.861" x2="75.52" y2="28.861"/>
				<path d="M78.244,28.861c-1.281,0.475-2.872,1.287-3.857,2.146l0.776-2.146l-0.776-2.146
					C75.372,27.574,76.963,28.385,78.244,28.861z"/>
			</g>
			<g>
				<line style="fill:none;stroke:#000000;stroke-width:0.5;" x1="69.504" y1="21.678" x2="75.52" y2="21.678"/>
				<path d="M78.244,21.678c-1.281,0.475-2.872,1.287-3.857,2.146l0.776-2.146l-0.776-2.146
					C75.372,20.392,76.963,21.203,78.244,21.678z"/>
			</g>
			<g>
				<line style="fill:none;stroke:#000000;stroke-width:0.5;" x1="69.504" y1="14.496" x2="75.52" y2="14.496"/>
				<path d="M78.244,14.496c-1.281,0.476-2.872,1.287-3.857,2.146l0.776-2.146l-0.776-2.146
					C75.372,13.209,76.963,14.021,78.244,14.496z"/>
			</g>
			<g>
				<line style="fill:none;stroke:#000000;stroke-width:0.5;" x1="69.504" y1="7.314" x2="75.52" y2="7.314"/>
				<path d="M78.244,7.314c-1.281,0.476-2.872,1.287-3.857,2.146l0.776-2.146l-0.776-2.146C75.372,6.027,76.963,6.838,78.244,7.314z
					"/>
			</g>
		</g>
		<g>
			<g>
				<line style="fill:none;stroke:#000000;stroke-width:2;" x1="139.814" y1="36.34" x2="139.814" y2="7.018"/>
				<line style="fill:none;stroke:#000000;stroke-width:2;" x1="107.324" y1="7.018" x2="107.324" y2="36.34"/>
				<line style="fill:none;stroke:#000000;stroke-width:2;" x1="107.174" y1="21.678" x2="102.059" y2="21.678"/>
				<line style="fill:none;stroke:#000000;stroke-width:2;" x1="145.417" y1="21.678" x2="140.302" y2="21.678"/>
			</g>
			<g>
				<line style="fill:none;stroke:#000000;stroke-width:2;" x1="138.399" y1="5.603" x2="109.077" y2="5.603"/>
				<line style="fill:none;stroke:#000000;stroke-width:2;" x1="109.077" y1="38.093" x2="138.399" y2="38.093"/>
				<line style="fill:none;stroke:#000000;stroke-width:2;" x1="123.738" y1="38.243" x2="123.738" y2="43.357"/>
				<line style="fill:none;stroke:#000000;stroke-width:2;" x1="123.738" y1="0" x2="123.738" y2="5.114"/>
			</g>
		</g>
	</g>
</svg>
