<?xml version="1.0" encoding="iso-8859-1"?>
<!-- Generator: Adobe Illustrator 11 Build 196, SVG Export Plug-In . SVG Version: 6.0.0 Build 78)  -->
<!DOCTYPE svg PUBLIC "-//W3C//DTD SVG 1.0//EN"    "http://www.w3.org/TR/2001/REC-SVG-20010904/DTD/svg10.dtd" [
	<!ENTITY ns_flows "http://ns.adobe.com/Flows/1.0/">
	<!ENTITY ns_svg "http://www.w3.org/2000/svg">
	<!ENTITY ns_xlink "http://www.w3.org/1999/xlink">
]>
<svg  
	 width="144.819" height="48.125" viewBox="0 0 144.819 48.125" style="overflow:visible;enable-background:new 0 0 144.819 48.125"
	 xml:space="preserve">
	<style type="text/css">
	
	</style>
	<g id="Layer_1">
		<path style="fill:none;stroke:#000000;stroke-width:0.5;" d="M23.181,11.07C11.628,11.082,2.269,16.894,2.269,24.062
			s9.359,12.98,20.912,12.993c7.599,5.243,19.658,9.174,33.905,10.82h30.013c14.247-1.646,26.306-5.577,33.904-10.82
			c11.553-0.012,20.912-5.824,20.912-12.993s-9.359-12.98-20.912-12.993c-7.599-5.243-19.658-9.174-33.905-10.82H57.085
			C42.838,1.896,30.779,5.827,23.181,11.07z"/>
		<rect x="69.967" y="19.862" style="fill:#B4B4B4;stroke:#000000;stroke-width:0.5;" width="4.25" height="8.4"/> 
		
			<rect x="69.967" y="22.662" style="fill:#FFFFFF;stroke:#000000;stroke-width:0.5;stroke-dasharray:1;" width="4.25" height="2.8"/> 
		<line style="fill:none;stroke:#000000;stroke-width:0.7;" x1="109.675" y1="24.062" x2="85.675" y2="24.062"/>
		<path d="M83.865,24.062c0.852-0.316,1.909-0.855,2.564-1.426l-0.516,1.426l0.516,1.426C85.774,24.918,84.717,24.378,83.865,24.062
			z"/>
		<line style="fill:none;stroke:#000000;stroke-width:0.7;" x1="58.3" y1="24.062" x2="34.3" y2="24.062"/>
		<path d="M32.49,24.062c0.852-0.316,1.909-0.855,2.564-1.426l-0.516,1.426l0.516,1.426C34.399,24.918,33.342,24.378,32.49,24.062z"
			/>
		<g>
			<text transform="matrix(1 0 0 1 82.4253 20.999)"><tspan x="0" y="0" style="font-family:Liberation Sans; font-size:8.500000;">negative</tspan></text>
			<text transform="matrix(1 0 0 1 82.4253 32.999)"><tspan x="0" y="0" style="font-family:Liberation Sans; font-size:8.500000;">ions</tspan></text>
		</g>
		<g>
			<text transform="matrix(1 0 0 1 31.4253 20.999)"><tspan x="0" y="0" style="font-family:Liberation Sans; font-size:8.500000;">positive</tspan></text>
			<text transform="matrix(1 0 0 1 31.4253 32.999)"><tspan x="0" y="0" style="font-family:Liberation Sans; font-size:8.500000;">ions</tspan></text>
		</g>
		<g>
			<line style="fill:#FFFFFF;stroke:#000000;stroke-width:0.5;" x1="144.613" y1="21.688" x2="140.488" y2="21.688"/>
			<line style="fill:#FFFFFF;stroke:#000000;stroke-width:0.5;" x1="140.488" y1="26.438" x2="144.613" y2="26.438"/>
			<rect x="140.282" y="22.051" style="fill:#FFFFFF;" width="4.537" height="4.022"/> 
		</g>
		<g>
			<line style="fill:#FFFFFF;stroke:#000000;stroke-width:0.5;" x1="4.332" y1="21.688" x2="0.207" y2="21.688"/>
			<line style="fill:#FFFFFF;stroke:#000000;stroke-width:0.5;" x1="0.207" y1="26.438" x2="4.332" y2="26.438"/>
			<rect y="22.051" style="fill:#FFFFFF;" width="4.538" height="4.022"/> 
		</g>
	</g>
</svg>
