<?xml version="1.0" encoding="iso-8859-1"?>
<!-- Generator: Adobe Illustrator 11 Build 196, SVG Export Plug-In . SVG Version: 6.0.0 Build 78)  -->
<!DOCTYPE svg PUBLIC "-//W3C//DTD SVG 1.0//EN"    "http://www.w3.org/TR/2001/REC-SVG-20010904/DTD/svg10.dtd" [
	<!ENTITY ns_flows "http://ns.adobe.com/Flows/1.0/">
	<!ENTITY ns_svg "http://www.w3.org/2000/svg">
	<!ENTITY ns_xlink "http://www.w3.org/1999/xlink">
]>
<svg  
	 width="114.054" height="99.781" viewBox="0 0 114.054 99.781" style="overflow:visible;enable-background:new 0 0 114.054 99.781"
	 xml:space="preserve">
	<style type="text/css">
	
	</style>
	<g id="Layer_1">
		
			<rect x="14.358" y="7.312" style="fill:#FFFFFF;stroke:#000000;stroke-width:0.5;stroke-dasharray:2;" width="85.2" height="85.2"/> 
		<circle cx="14.892" cy="7.74" r="2.758"/> 
		<circle cx="14.399" cy="92.767" r="2.758"/> 
		<circle cx="99.726" cy="49.912" r="2.758"/> 
		<g>
			<text transform="matrix(1 0 0 1 0.0918 8)"><tspan x="0" y="0" style="font-family:Liberation Sans; font-size:6.800000;">q</tspan></text>
			<text transform="matrix(1 0 0 1 4.541 10)"><tspan x="0" y="0" style="font-family:Liberation Sans; font-size:5.950000;">1</tspan></text>
		</g>
		<g>
			<text transform="matrix(1 0 0 1 0 94.5679)"><tspan x="0" y="0" style="font-family:Liberation Sans; font-size:6.800000;">q</tspan></text>
			<text transform="matrix(1 0 0 1 4.4492 96.5679)"><tspan x="0" y="0" style="font-family:Liberation Sans; font-size:5.950000;">1</tspan></text>
		</g>
		<g>
			<text transform="matrix(1 0 0 1 105.6006 52.4346)"><tspan x="0" y="0" style="font-family:Liberation Sans; font-size:6.800000;">q</tspan></text>
			<text transform="matrix(1 0 0 1 110.0498 54.4346)"><tspan x="0" y="0" style="font-family:Liberation Sans; font-size:5.950000;">2</tspan></text>
		</g>
	</g>
</svg>
