<?xml version="1.0" encoding="iso-8859-1"?>
<!-- Generator: Adobe Illustrator 11 Build 196, SVG Export Plug-In . SVG Version: 6.0.0 Build 78)  -->
<!DOCTYPE svg PUBLIC "-//W3C//DTD SVG 1.0//EN"    "http://www.w3.org/TR/2001/REC-SVG-20010904/DTD/svg10.dtd" [
	<!ENTITY ns_flows "http://ns.adobe.com/Flows/1.0/">
	<!ENTITY ns_svg "http://www.w3.org/2000/svg">
	<!ENTITY ns_xlink "http://www.w3.org/1999/xlink">
]>
<svg  
	 width="120.394" height="17.355" viewBox="0 0 120.394 17.355" style="overflow:visible;enable-background:new 0 0 120.394 17.355"
	 xml:space="preserve">
	<style type="text/css">
	
	</style>
	<g id="Layer_1">
		<g>
			<g>
				<text transform="matrix(1 0 0 1 0 12)"><tspan x="0" y="0" style="font-family:Liberation Sans; font-size:10.200000;">+</tspan></text>
			</g>
			<g>
				<text transform="matrix(1 0 0 1 14.1733 12)"><tspan x="0" y="0" style="font-family:Liberation Sans; font-size:10.200000;">+</tspan></text>
			</g>
			<g>
				<text transform="matrix(1 0 0 1 28.3467 12)"><tspan x="0" y="0" style="font-family:Liberation Sans; font-size:10.200000;">+</tspan></text>
			</g>
			<g>
				<text transform="matrix(1 0 0 1 42.52 12)"><tspan x="0" y="0" style="font-family:Liberation Sans; font-size:10.200000;">+</tspan></text>
			</g>
			<g>
				<text transform="matrix(1 0 0 1 56.6934 12)"><tspan x="0" y="0" style="font-family:Liberation Sans; font-size:10.200000;">+</tspan></text>
			</g>
			<g>
				<text transform="matrix(1 0 0 1 70.8662 12)"><tspan x="0" y="0" style="font-family:Liberation Sans; font-size:10.200000;">+</tspan></text>
			</g>
			<g>
				<text transform="matrix(1 0 0 1 85.0396 12)"><tspan x="0" y="0" style="font-family:Liberation Sans; font-size:10.200000;">+</tspan></text>
			</g>
			<g>
				<text transform="matrix(1 0 0 1 99.2129 12)"><tspan x="0" y="0" style="font-family:Liberation Sans; font-size:10.200000;">+</tspan></text>
			</g>
			<g>
				<text transform="matrix(1 0 0 1 113.3862 12)"><tspan x="0" y="0" style="font-family:Liberation Sans; font-size:10.200000;">+</tspan></text>
			</g>
		</g>
	</g>
</svg>
