<?xml version="1.0" encoding="UTF-8" standalone="no"?>
<!-- Generator: Adobe Illustrator 11 Build 196, SVG Export Plug-In . SVG Version: 6.0.0 Build 78)  -->

<svg
   xmlns:dc="http://purl.org/dc/elements/1.1/"
   xmlns:cc="http://creativecommons.org/ns#"
   xmlns:rdf="http://www.w3.org/1999/02/22-rdf-syntax-ns#"
   xmlns:svg="http://www.w3.org/2000/svg"
   xmlns="http://www.w3.org/2000/svg"
   xmlns:sodipodi="http://sodipodi.sourceforge.net/DTD/sodipodi-0.dtd"
   xmlns:inkscape="http://www.inkscape.org/namespaces/inkscape"
   width="140.553"
   height="59.689"
   viewBox="0 0 140.553 59.689"
   style="overflow:visible;enable-background:new 0 0 140.553 59.689"
   xml:space="preserve"
   id="svg2"
   sodipodi:version="0.32"
   sodipodi:docname="relativity.svg"
   version="1.1"><metadata
   id="metadata72"><rdf:RDF><cc:Work
       rdf:about=""><dc:format>image/svg+xml</dc:format><dc:type
         rdf:resource="http://purl.org/dc/dcmitype/StillImage" /></cc:Work></rdf:RDF></metadata><defs
   id="defs70"><linearGradient
   id="XMLID_20_"
   gradientUnits="userSpaceOnUse"
   x1="87.001"
   y1="93.731"
   x2="45.3342"
   y2="93.731"
   gradientTransform="translate(61.33350,-23.66700)">
			<stop
   offset="0.0000000"
   style="stop-color:#c5c5c5;stop-opacity:1.0000000;"
   id="stop154" />
			<stop
   offset="1"
   style="stop-color:#000000"
   id="stop156" />
			<midPointStop
   offset="0"
   style="stop-color:#FFFFFF"
   id="midPointStop158" />
			<midPointStop
   offset="0.5"
   style="stop-color:#FFFFFF"
   id="midPointStop160" />
			<midPointStop
   offset="1"
   style="stop-color:#000000"
   id="midPointStop162" />
		</linearGradient>
		
		
		
		
		
		
		
		
		
		
		
		
		
			<linearGradient
   gradientTransform="translate(61.33350,-23.66700)"
   y2="93.731003"
   x2="45.334202"
   y1="93.731003"
   x1="87.000999"
   gradientUnits="userSpaceOnUse"
   id="linearGradient1520">
			<stop
   id="stop1522"
   style="stop-color:#FFFFFF"
   offset="0" />
			<stop
   id="stop1524"
   style="stop-color:#000000"
   offset="1" />
			<midPointStop
   id="midPointStop1526"
   style="stop-color:#FFFFFF"
   offset="0" />
			<midPointStop
   id="midPointStop1528"
   style="stop-color:#FFFFFF"
   offset="0.5" />
			<midPointStop
   id="midPointStop1530"
   style="stop-color:#000000"
   offset="1" />
		</linearGradient>
		
		
		
	</defs><sodipodi:namedview
   inkscape:cy="-22.684896"
   inkscape:cx="74.536087"
   inkscape:zoom="3.3537492"
   inkscape:window-height="996"
   inkscape:window-width="1278"
   inkscape:pageshadow="2"
   inkscape:pageopacity="0.0"
   borderopacity="1.0"
   bordercolor="#666666"
   pagecolor="#ffffff"
   id="base"
   inkscape:window-x="0"
   inkscape:window-y="0"
   inkscape:current-layer="svg2"
   showgrid="false"
   inkscape:window-maximized="0" />
	<style
   type="text/css"
   id="style4">
	
	</style>
	<rect
   style="fill:#dedede;fill-opacity:1.0000000;fill-rule:evenodd;stroke:none;stroke-width:1.0000000pt;stroke-linecap:butt;stroke-linejoin:miter;stroke-opacity:1.0000000;overflow:visible"
   id="rect2267"
   width="184.25198"
   height="88.342255"
   x="-21.806717"
   y="76.259514" /><rect
   style="fill:#dedede;fill-opacity:1.0000000;fill-rule:evenodd;stroke:none;stroke-width:1.0000000pt;stroke-linecap:butt;stroke-linejoin:miter;stroke-opacity:1.0000000"
   id="rect1537"
   width="184.25198"
   height="68.734070"
   x="-21.806717"
   y="-3.9848888" /><g
   id="Layer_1">
		<g
   id="g7">
			<rect
   x="116.455"
   y="10.701"
   style="fill:#B4B4B4;stroke:#000000;stroke-width:0.5;"
   width="18"
   height="46.125"
   id="rect9" /> 
			<polygon
   style="fill:#B4B4B4;stroke:#000000;stroke-width:0.5;stroke-linejoin:round;"
   points="134.394,10.641 140.185,7.297      122.365,7.297 116.575,10.641 "
   id="polygon11" />
			<polygon
   style="fill:#B4B4B4;stroke:#000000;stroke-width:0.5;"
   points="140.303,53.406 140.303,7.281 134.381,10.701      134.381,56.826 "
   id="polygon13" />
			<g
   id="g15">
				<text
   transform="matrix(1 0 0 1 122.145 21.0532)"
   id="text17"><tspan
     x="0"
     y="0"
     style="font-family:Liberation Sans; font-size:7.650000;"
     id="tspan19">S</tspan></text>


			</g>
			<g
   id="g21">
				<text
   transform="matrix(1 0 0 1 122.3921 52.5425)"
   id="text23"><tspan
     x="0"
     y="0"
     style="font-family:Liberation Sans; font-size:7.650000;"
     id="tspan25">N</tspan></text>


			</g>
		</g>
		<line
   style="fill:none;stroke:#000000;stroke-width:0.5;"
   x1="17.333"
   y1="40.937"
   x2="17.333"
   y2="15.938"
   id="line27" />
		<polyline
   style="fill:none;stroke:#000000;stroke-width:0.5;"
   points="42.083,40.687 17.083,40.687 7.667,46 "
   id="polyline29" />
		<g
   id="g31">
			<text
   transform="matrix(1 0 0 1 44.667 44.3335)"
   id="text33"><tspan
     x="0"
     y="0"
     style="font-family:Liberation Sans; font-size:10.200000;"
     id="tspan35">x</tspan></text>


		</g>
		<g
   id="g37">
			<text
   transform="matrix(1 0 0 1 14 11.9995)"
   id="text39"><tspan
     x="0"
     y="0"
     style="font-family:Liberation Sans; font-size:10.200000;"
     id="tspan41">y</tspan></text>


		</g>
		<g
   id="g43">
			<text
   transform="matrix(1 0 0 1 0 54.3335)"
   id="text45"><tspan
     x="0"
     y="0"
     style="font-family:Liberation Sans; font-size:10.200000;"
     id="tspan47">z</tspan></text>


		</g>
		<g
   id="g49">
			<line
   style="fill:none;stroke:#000000;stroke-width:0.5;"
   x1="96.512"
   y1="38.373"
   x2="96.512"
   y2="13.705"
   id="line51" />
			<path
   d="M96.512,10.688c0.526,1.42,1.426,3.182,2.378,4.273l-2.378-0.86l-2.377,0.86C95.086,13.869,95.986,12.107,96.512,10.688z     "
   id="path53" />
		</g>
		<g
   id="g55">
			<line
   style="fill:none;stroke:#000000;stroke-width:0.5;"
   x1="74.167"
   y1="38"
   x2="74.167"
   y2="27.667"
   id="line57" />
			<path
   d="M74.167,24.649c0.527,1.419,1.426,3.182,2.377,4.273l-2.377-0.86l-2.377,0.86C72.741,27.831,73.64,26.069,74.167,24.649z     "
   id="path59" />
		</g>
		<text
   transform="matrix(1 0 0 1 92.8452 9.021)"
   id="text61"><tspan
     x="0"
     y="0"
     style="font-family:Liberation Sans-Bold'; font-size:8.500000;"
     id="tspan63">B</tspan></text>


		<text
   transform="matrix(1 0 0 1 70.832 21.6001)"
   id="text65"><tspan
     x="0"
     y="0"
     style="font-family:Liberation Sans-Bold'; font-size:8.500000;"
     id="tspan67">B</tspan></text>


	</g>
<g
   id="g79"
   transform="translate(-0.116752,79.35605)">
			<rect
   id="rect81"
   height="46.125000"
   width="18.000000"
   style="fill:#b4b4b4;stroke:#000000;stroke-width:0.50000000"
   y="10.701000"
   x="116.45500" /> 
			<polygon
   id="polygon83"
   points="134.39400,10.641000 140.18500,7.2970000 122.36500,7.2970000 116.57500,10.641000 134.39400,10.641000 "
   style="fill:#b4b4b4;stroke:#000000;stroke-width:0.50000000;stroke-linejoin:round" />
			<polygon
   id="polygon85"
   points="140.30300,53.406000 140.30300,7.2810000 134.38100,10.701000 134.38100,56.826000 140.30300,53.406000 "
   style="fill:#b4b4b4;stroke:#000000;stroke-width:0.50000000" />
			<g
   id="g87">
				<text
   id="text89"
   transform="translate(122.1450,21.05320)"><tspan
     id="tspan91"
     style="font-size:7.6500001px;font-family:Liberation Sans"
     y="0"
     x="0">S</tspan></text>


			</g>
			<g
   id="g93">
				<text
   id="text95"
   transform="translate(122.3921,52.54250)"><tspan
     id="tspan97"
     style="font-size:7.6500001px;font-family:Liberation Sans"
     y="0"
     x="0">N</tspan></text>


			</g>
		</g><line
   id="line99"
   y2="95.294052"
   x2="17.216248"
   y1="120.29305"
   x1="17.216248"
   style="fill:none;stroke:#000000;stroke-width:0.50000000" /><polyline
   id="polyline101"
   points="42.083,40.687 17.083,40.687 7.667,46 "
   style="fill:none;stroke:#000000;stroke-width:0.50000000"
   transform="translate(-0.116752,79.35605)" /><g
   id="g103"
   transform="translate(-0.116752,79.35605)">
			<text
   id="text105"
   transform="translate(44.66700,44.33350)"><tspan
     id="tspan107"
     style="font-size:10.200000px;font-family:Liberation Sans"
     y="0"
     x="0">x</tspan></text>


		</g><g
   id="g109"
   transform="translate(-0.116752,79.35605)">
			<text
   id="text111"
   transform="translate(14.00000,11.99950)"><tspan
     id="tspan113"
     style="font-size:10.200000px;font-family:Liberation Sans"
     y="0"
     x="0">y</tspan></text>


		</g><g
   id="g115"
   transform="translate(-0.116752,79.35605)">
			<text
   id="text117"
   transform="translate(0.000000,54.33350)"><tspan
     id="tspan119"
     style="font-size:10.200000px;font-family:Liberation Sans"
     y="0"
     x="0">z</tspan></text>


		</g><g
   id="g121"
   transform="translate(-0.116752,79.35605)">
			<line
   id="line123"
   y2="13.705000"
   x2="96.512001"
   y1="38.373001"
   x1="96.512001"
   style="fill:none;stroke:#000000;stroke-width:0.50000000" />
			<path
   id="path125"
   d="M 96.512000,10.688000 C 97.038000,12.108000 97.938000,13.870000 98.890000,14.961000 L 96.512000,14.101000 L 94.135000,14.961000 C 95.086000,13.869000 95.986000,12.107000 96.512000,10.688000 z " />
		</g><g
   id="g127"
   transform="translate(-0.116752,79.35605)">
			<line
   id="line129"
   y2="27.667000"
   x2="74.167000"
   y1="38.000000"
   x1="74.167000"
   style="fill:none;stroke:#000000;stroke-width:0.50000000" />
			<path
   id="path131"
   d="M 74.167000,24.649000 C 74.694000,26.068000 75.593000,27.831000 76.544000,28.922000 L 74.167000,28.062000 L 71.790000,28.922000 C 72.741000,27.831000 73.640000,26.069000 74.167000,24.649000 z " />
		</g><text
   id="text133"
   x="92.728447"
   y="88.377052"><tspan
     id="tspan135"
     style="font-size:8.5000000px;font-family:Liberation Sans-Bold'"
     y="88.377052"
     x="92.728447">B</tspan></text>

<g
   id="g137"
   transform="translate(-0.116752,79.35605)">
			<line
   id="line139"
   y2="48.174999"
   x2="84.211998"
   y1="38.841000"
   x1="96.211998"
   style="fill:none;stroke:#000000;stroke-width:0.50000000" />
			<path
   id="path141"
   d="M 81.833000,50.033000 C 82.630000,48.746000 83.469000,46.955000 83.747000,45.533000 L 84.528000,47.937000 L 86.666000,49.286000 C 85.219000,49.206000 83.276000,49.578000 81.833000,50.033000 z " />
		</g><g
   id="g143"
   transform="translate(-0.116752,79.35605)">
			<line
   id="line145"
   y2="43.089001"
   x2="68.429001"
   y1="38.761002"
   x1="73.972000"
   style="fill:none;stroke:#000000;stroke-width:0.50000000" />
			<path
   id="path147"
   d="M 66.054000,44.948000 C 66.849000,43.658000 67.685000,41.866000 67.960000,40.444000 L 68.745000,42.847000 L 70.886000,44.191000 C 69.439000,44.114000 67.497000,44.489000 66.054000,44.948000 z " />
		</g><text
   id="text149"
   x="76.395447"
   y="139.6895"><tspan
     id="tspan151"
     style="font-size:8.5000000px;font-family:Liberation Sans-Bold'"
     y="139.6895"
     x="76.395447">E</tspan></text>

<polygon
   id="polygon164"
   points="148.47200,66.397000 115.61100,66.397000 115.61100,61.735000 106.66700,70.064000 115.61100,78.393000 115.61100,73.730000 148.47200,73.730000 148.47200,66.397000 "
   style="fill:url(#XMLID_20_)"
   transform="translate(-0.116752,79.35605)" /><text
   id="text166"
   x="59.381748"
   y="133.9561"><tspan
     id="tspan168"
     style="font-size:8.5000000px;font-family:Liberation Sans-Bold'"
     y="133.9561"
     x="59.381748">E</tspan></text>

<text
   id="text170"
   x="70.715248"
   y="100.9561"><tspan
     id="tspan172"
     style="font-size:8.5000000px;font-family:Liberation Sans-Bold'"
     y="100.9561"
     x="70.715248">B</tspan></text>

<text
   xml:space="preserve"
   style="font-size:10px;font-style:normal;font-variant:normal;font-weight:normal;font-stretch:normal;text-indent:0;text-align:start;text-decoration:none;line-height:125%;letter-spacing:0px;word-spacing:0px;text-transform:none;direction:ltr;block-progression:tb;writing-mode:lr-tb;text-anchor:start;baseline-shift:baseline;color:#000000;fill:#000000;fill-opacity:1;fill-rule:nonzero;stroke:none;stroke-width:1px;marker:none;visibility:visible;display:inline;overflow:visible;enable-background:accumulate;font-family:FreeSans;-inkscape-font-specification:FreeSans"
   x="-16.515905"
   y="9.5958071"
   id="text3070"
   sodipodi:linespacing="125%"><tspan
     sodipodi:role="line"
     id="tspan3072"
     x="-16.515905"
     y="9.5958071">1</tspan></text>
<text
   xml:space="preserve"
   style="font-size:10px;font-style:normal;font-variant:normal;font-weight:normal;font-stretch:normal;text-indent:0;text-align:start;text-decoration:none;line-height:125%;letter-spacing:0px;word-spacing:0px;text-transform:none;direction:ltr;block-progression:tb;writing-mode:lr-tb;text-anchor:start;baseline-shift:baseline;color:#000000;fill:#000000;fill-opacity:1;fill-rule:nonzero;stroke:none;stroke-width:1px;marker:none;visibility:visible;display:inline;overflow:visible;enable-background:accumulate;font-family:FreeSans;-inkscape-font-specification:FreeSans"
   x="-16.995905"
   y="89.208206"
   id="text3074"
   sodipodi:linespacing="125%"><tspan
     sodipodi:role="line"
     id="tspan3076"
     x="-16.995905"
     y="89.208206">2</tspan></text>
</svg>