<?xml version="1.0" encoding="iso-8859-1"?>
<!-- Generator: Adobe Illustrator 11 Build 196, SVG Export Plug-In . SVG Version: 6.0.0 Build 78)  -->
<!DOCTYPE svg PUBLIC "-//W3C//DTD SVG 1.0//EN"    "http://www.w3.org/TR/2001/REC-SVG-20010904/DTD/svg10.dtd" [
	<!ENTITY ns_flows "http://ns.adobe.com/Flows/1.0/">
	<!ENTITY ns_svg "http://www.w3.org/2000/svg">
	<!ENTITY ns_xlink "http://www.w3.org/1999/xlink">
]>
<svg  
	 width="301.757" height="100.463" viewBox="0 0 301.757 100.463"
	 style="overflow:visible;enable-background:new 0 0 301.757 100.463" xml:space="preserve">
	<style type="text/css">
	
	</style>
	<g id="Layer_1">
		<path style="fill:none;stroke:#000000;stroke-width:0.5;" d="M269.688,18.439c-0.087,0-0.173,0.006-0.261,0.006
			c-8.968,0.789-16.862,5.301-22.141,11.976l-0.026,0.002c-0.011,0.027-0.029,0.051-0.041,0.078
			c-0.24,0.306-0.465,0.623-0.694,0.938c-1.326,1.236-3.802,1.756-5.687,2.08h-55.044c-3.119-0.579-6.935-2.647-7.458-5.085V18.75
			h-0.108c0-2.246-1.84-4.066-4.11-4.066c-2.27,0-4.11,1.82-4.11,4.066v9.793c-0.16,2.686-4.048,4.683-7.057,4.977h-37.242l0-0.026
			c0,0-1.958,0-3.5,0c-0.38,0-0.747,0.011-1.107,0.026h-0.352v0.019c-12.351,0.716-13.314,10.455-20.458,10.455l-0.078,0.203H66.663
			l0.042-0.02c-0.015,0-0.03-0.001-0.045,0c-2.318,0.029-6.498,0.201-7.847-1.881L58.762,42.3c-2.345-3.126-6.02-5.634-10.481-7.091
			c-1.371-0.881-3.204-2.172-3.631-3.983l-0.496-10.763l-0.116,0.005c-0.24-1.916-2.015-3.411-4.194-3.411
			c-2.343,0-4.242,1.721-4.242,3.843c0,0.282,0.038,0.556,0.102,0.82l0.358,7.773L36,29.525c0.121,2.538-2.559,4.197-4.149,5.208
			c-5.696,1.482-10.316,4.626-12.818,8.635l-0.095-0.031c0,0-1.5,1.5-2.25,1.938s-2.875,1.25-4,1.5S10.25,47.212,9.312,47.4
			s-1.562,0.438-1.875,1.062s-0.5,1.5-0.25,2.125s0.625,1.438,1.688,1.812s2.375,0.438,3.312,0.75s2.438,0.812,3.125,1.25
			s1.938,1.25,2.562,1.938s1.25,1.188,1.875,1.875c0.056,0.062,0.135,0.117,0.224,0.17c3.849,4.907,11.046,8.212,19.297,8.212
			c8.388,0,15.679-3.42,19.477-8.464l0.021,0.002c1.349-2.083,5.528-1.911,7.846-1.881c0.015,0,0.03-0.001,0.045,0l-0.119-0.054
			h35.552c5.609,1.465,7.425,9.575,18.656,10.226v0.098h37.171l-0.048,0.248c0,0,1.375,0.062,4.5,0.062
			c3.065,0,7.623,2.107,7.796,5.019v9.793c0,2.246,1.84,4.066,4.11,4.066s4.11-1.82,4.11-4.066h0.108v-9.686
			c0.618-2.879,5.833-5.252,9.062-5.252c0.633,0,1.06-0.071,1.34-0.185h51.771c1.983,0.151,4.292,0.521,5.439,1.754
			c5.747,8.266,15.31,13.679,26.14,13.679c0.087,0,0.173-0.006,0.261-0.007c16.25-1.43,28.997-15.067,28.997-31.688
			C301.507,32.686,287.261,18.439,269.688,18.439z"/>
		<ellipse style="fill:none;stroke:#000000;stroke-width:0.5;" cx="41.125" cy="49.4" rx="1.237" ry="4.243"/> 
		<line style="fill:none;stroke:#000000;stroke-width:0.5;" x1="39.888" y1="49.4" x2="3.75" y2="49.4"/>
		<g>
			<ellipse style="fill:none;stroke:#000000;stroke-width:0.5;" cx="73.375" cy="50.212" rx="2.475" ry="6.01"/> 
			<path style="fill:none;stroke:#000000;stroke-width:0.5;" d="M64.715,44.314c-1.031,0.726-1.784,3.036-1.784,5.773
				c0,3.015,0.914,5.512,2.106,5.944"/>
			<line style="fill:none;stroke:#000000;stroke-width:0.5;" x1="71" y1="49.587" x2="75.375" y2="46.9"/>
			<line style="fill:none;stroke:#000000;stroke-width:0.5;" x1="71.125" y1="52.712" x2="75.75" y2="49.775"/>
		</g>
		<ellipse style="fill:none;stroke:#000000;stroke-width:0.5;" cx="101.578" cy="50.087" rx="2.475" ry="6.01"/> 
		<path style="fill:none;stroke:#000000;stroke-width:0.5;" d="M94.168,44.189c-1.031,0.726-1.784,3.036-1.784,5.773
			c0,3.015,0.915,5.512,2.106,5.944"/>
		<line style="fill:none;stroke:#000000;stroke-width:0.5;" x1="99.203" y1="49.462" x2="103.578" y2="46.775"/>
		<line style="fill:none;stroke:#000000;stroke-width:0.5;" x1="99.328" y1="52.587" x2="103.953" y2="49.65"/>
		<polygon style="fill:none;stroke:#000000;stroke-width:0.5;" points="200.79,35.525 191.71,41.275 148.96,41.275 158.04,35.525 
			"/>
		<polygon style="fill:none;stroke:#000000;stroke-width:0.5;" points="200.727,54.775 191.648,60.525 148.898,60.525 
			157.977,54.775 "/>
		<line style="fill:none;stroke:#000000;stroke-width:0.5;" x1="174.75" y1="37.275" x2="174.75" y2="11.525"/>
		<line style="fill:none;stroke:#000000;stroke-width:0.5;" x1="174.875" y1="60.525" x2="174.875" y2="88.65"/>
		<path style="fill:none;stroke:#000000;stroke-width:0.5;" d="M64.125,44.775c0,0-8.75-0.5-15.125-5.75s-10.125-2-10.125-24.5"/>
		<g>
			<text transform="matrix(1 0 0 1 41.375 14.3999)"><tspan x="0" y="0" style="font-family:Liberation Sans; font-size:8.500000;">+</tspan></text>
		</g>
		<g>
			<text transform="matrix(1 0 0 1 65.4346 41.8896)"><tspan x="0" y="0" style="font-family:Liberation Sans; font-size:7.650000;">A</tspan></text>
		</g>
		<g>
			<text transform="matrix(1 0 0 1 38.3096 43.7646)"><tspan x="0" y="0" style="font-family:Liberation Sans; font-size:7.650000;">c</tspan></text>
		</g>
		<g>
			<text transform="matrix(1 0 0 1 95.5596 41.1396)"><tspan x="0" y="0" style="font-family:Liberation Sans; font-size:7.650000;">B</tspan></text>
		</g>
		<g>
			<text transform="matrix(1 0 0 1 141.0596 42.0146)"><tspan x="0" y="0" style="font-family:Liberation Sans; font-size:7.650000;">D</tspan></text>
		</g>
		<g>
			<text transform="matrix(1 0 0 1 142.8096 60.1396)"><tspan x="0" y="0" style="font-family:Liberation Sans; font-size:7.650000;">E</tspan></text>
		</g>
		<g>
			<text transform="matrix(1 0 0 1 0 58.0249)"><tspan x="0" y="0" style="font-family:Liberation Sans; font-size:8.500000;">&#x2013;</tspan></text>
		</g>
		<g>
			<text transform="matrix(1 0 0 1 171.0801 10)"><tspan x="0" y="0" style="font-family:Liberation Sans; font-size:8.500000;">+</tspan></text>
		</g>
		<g>
			<text transform="matrix(1 0 0 1 172.7207 96)"><tspan x="0" y="0" style="font-family:Liberation Sans; font-size:8.500000;">&#x2013;</tspan></text>
		</g>
	</g>
</svg>
