<?xml version="1.0" encoding="iso-8859-1"?>
<!-- Generator: Adobe Illustrator 11 Build 196, SVG Export Plug-In . SVG Version: 6.0.0 Build 78)  -->
<!DOCTYPE svg PUBLIC "-//W3C//DTD SVG 1.0//EN"    "http://www.w3.org/TR/2001/REC-SVG-20010904/DTD/svg10.dtd" [
	<!ENTITY ns_flows "http://ns.adobe.com/Flows/1.0/">
	<!ENTITY ns_svg "http://www.w3.org/2000/svg">
	<!ENTITY ns_xlink "http://www.w3.org/1999/xlink">
]>
<svg  
	 width="128.529" height="144.472" viewBox="0 0 128.529 144.472"
	 style="overflow:visible;enable-background:new 0 0 128.529 144.472" xml:space="preserve">
	<g id="Layer_1">
		<g>
			<line style="fill:none;stroke:#000000;stroke-width:0.5;" x1="1.902" y1="19.748" x2="1.902" y2="2.414"/>
			<path d="M1.902,0c0.422,1.136,1.141,2.545,1.902,3.419L1.902,2.731L0,3.419C0.761,2.545,1.481,1.136,1.902,0z"/>
		</g>
		<g>
			<line style="fill:none;stroke:#000000;stroke-width:0.5;" x1="33.083" y1="19.748" x2="33.083" y2="2.414"/>
			<path d="M33.083,0c0.422,1.136,1.141,2.545,1.902,3.419l-1.902-0.688l-1.902,0.688C31.943,2.545,32.662,1.136,33.083,0z"/>
		</g>
		<g>
			<line style="fill:none;stroke:#000000;stroke-width:0.5;" x1="64.264" y1="19.748" x2="64.264" y2="2.414"/>
			<path d="M64.264,0c0.422,1.136,1.141,2.545,1.902,3.419l-1.902-0.688l-1.901,0.688C63.123,2.545,63.843,1.136,64.264,0z"/>
		</g>
		<g>
			<line style="fill:none;stroke:#000000;stroke-width:0.5;" x1="95.445" y1="19.748" x2="95.445" y2="2.414"/>
			<path d="M95.445,0c0.421,1.136,1.141,2.545,1.902,3.419l-1.902-0.688l-1.902,0.688C94.304,2.545,95.024,1.136,95.445,0z"/>
		</g>
		<g>
			<line style="fill:none;stroke:#000000;stroke-width:0.5;" x1="126.626" y1="19.748" x2="126.626" y2="2.414"/>
			<path d="M126.626,0c0.421,1.136,1.141,2.545,1.902,3.419l-1.902-0.688l-1.902,0.688C125.486,2.545,126.205,1.136,126.626,0z"/>
		</g>
		<g>
			<line style="fill:none;stroke:#000000;stroke-width:0.5;" x1="1.902" y1="50.929" x2="1.902" y2="33.595"/>
			<path d="M1.902,31.181c0.422,1.136,1.141,2.545,1.902,3.418l-1.902-0.688L0,34.6C0.761,33.727,1.481,32.317,1.902,31.181z"/>
		</g>
		<g>
			<line style="fill:none;stroke:#000000;stroke-width:0.5;" x1="33.083" y1="50.929" x2="33.083" y2="33.595"/>
			<path d="M33.083,31.181c0.422,1.136,1.141,2.545,1.902,3.418l-1.902-0.688L31.181,34.6
				C31.943,33.727,32.662,32.317,33.083,31.181z"/>
		</g>
		<g>
			<line style="fill:none;stroke:#000000;stroke-width:0.5;" x1="64.264" y1="50.929" x2="64.264" y2="33.595"/>
			<path d="M64.264,31.181c0.422,1.136,1.141,2.545,1.902,3.418l-1.902-0.688L62.363,34.6
				C63.123,33.727,63.843,32.317,64.264,31.181z"/>
		</g>
		<g>
			<line style="fill:none;stroke:#000000;stroke-width:0.5;" x1="95.445" y1="50.929" x2="95.445" y2="33.595"/>
			<path d="M95.445,31.181c0.421,1.136,1.141,2.545,1.902,3.418l-1.902-0.688L93.543,34.6
				C94.304,33.727,95.024,32.317,95.445,31.181z"/>
		</g>
		<g>
			<line style="fill:none;stroke:#000000;stroke-width:0.5;" x1="126.626" y1="50.929" x2="126.626" y2="33.595"/>
			<path d="M126.626,31.181c0.421,1.136,1.141,2.545,1.902,3.418l-1.902-0.688l-1.902,0.688
				C125.486,33.727,126.205,32.317,126.626,31.181z"/>
		</g>
		<g>
			<line style="fill:none;stroke:#000000;stroke-width:0.5;" x1="1.902" y1="82.109" x2="1.902" y2="64.776"/>
			<path d="M1.902,62.362c0.422,1.136,1.141,2.545,1.902,3.419l-1.902-0.688L0,65.781C0.761,64.907,1.481,63.498,1.902,62.362z"/>
		</g>
		<g>
			<line style="fill:none;stroke:#000000;stroke-width:0.5;" x1="33.083" y1="82.109" x2="33.083" y2="64.776"/>
			<path d="M33.083,62.362c0.422,1.136,1.141,2.545,1.902,3.419l-1.902-0.688l-1.902,0.688
				C31.943,64.907,32.662,63.498,33.083,62.362z"/>
		</g>
		<g>
			<line style="fill:none;stroke:#000000;stroke-width:0.5;" x1="64.264" y1="82.109" x2="64.264" y2="64.776"/>
			<path d="M64.264,62.362c0.422,1.136,1.141,2.545,1.902,3.419l-1.902-0.688l-1.901,0.688
				C63.123,64.907,63.843,63.498,64.264,62.362z"/>
		</g>
		<g>
			<line style="fill:none;stroke:#000000;stroke-width:0.5;" x1="95.445" y1="82.109" x2="95.445" y2="64.776"/>
			<path d="M95.445,62.362c0.421,1.136,1.141,2.545,1.902,3.419l-1.902-0.688l-1.902,0.688
				C94.304,64.907,95.024,63.498,95.445,62.362z"/>
		</g>
		<g>
			<line style="fill:none;stroke:#000000;stroke-width:0.5;" x1="126.626" y1="82.109" x2="126.626" y2="64.776"/>
			<path d="M126.626,62.362c0.421,1.136,1.141,2.545,1.902,3.419l-1.902-0.688l-1.902,0.688
				C125.486,64.907,126.205,63.498,126.626,62.362z"/>
		</g>
		<g>
			<line style="fill:none;stroke:#000000;stroke-width:0.5;" x1="1.902" y1="113.291" x2="1.902" y2="95.958"/>
			<path d="M1.902,93.543c0.422,1.136,1.141,2.545,1.902,3.418l-1.902-0.688L0,96.962C0.761,96.088,1.481,94.679,1.902,93.543z"/>
		</g>
		<g>
			<line style="fill:none;stroke:#000000;stroke-width:0.5;" x1="33.083" y1="113.291" x2="33.083" y2="95.958"/>
			<path d="M33.083,93.543c0.422,1.136,1.141,2.545,1.902,3.418l-1.902-0.688l-1.902,0.688
				C31.943,96.088,32.662,94.679,33.083,93.543z"/>
		</g>
		<g>
			<line style="fill:none;stroke:#000000;stroke-width:0.5;" x1="64.264" y1="113.291" x2="64.264" y2="95.958"/>
			<path d="M64.264,93.543c0.422,1.136,1.141,2.545,1.902,3.418l-1.902-0.688l-1.901,0.688
				C63.123,96.088,63.843,94.679,64.264,93.543z"/>
		</g>
		<g>
			<line style="fill:none;stroke:#000000;stroke-width:0.5;" x1="95.445" y1="113.291" x2="95.445" y2="95.958"/>
			<path d="M95.445,93.543c0.421,1.136,1.141,2.545,1.902,3.418l-1.902-0.688l-1.902,0.688
				C94.304,96.088,95.024,94.679,95.445,93.543z"/>
		</g>
		<g>
			<line style="fill:none;stroke:#000000;stroke-width:0.5;" x1="126.626" y1="113.291" x2="126.626" y2="95.958"/>
			<path d="M126.626,93.543c0.421,1.136,1.141,2.545,1.902,3.418l-1.902-0.688l-1.902,0.688
				C125.486,96.088,126.205,94.679,126.626,93.543z"/>
		</g>
		<g>
			<line style="fill:none;stroke:#000000;stroke-width:0.5;" x1="1.902" y1="144.472" x2="1.902" y2="127.139"/>
			<path d="M1.902,124.725c0.422,1.136,1.141,2.545,1.902,3.418l-1.902-0.688L0,128.143C0.761,127.27,1.481,125.86,1.902,124.725z"
				/>
		</g>
		<g>
			<line style="fill:none;stroke:#000000;stroke-width:0.5;" x1="33.083" y1="144.472" x2="33.083" y2="127.139"/>
			<path d="M33.083,124.725c0.422,1.136,1.141,2.545,1.902,3.418l-1.902-0.688l-1.902,0.688
				C31.943,127.27,32.662,125.86,33.083,124.725z"/>
		</g>
		<g>
			<line style="fill:none;stroke:#000000;stroke-width:0.5;" x1="64.264" y1="144.472" x2="64.264" y2="127.139"/>
			<path d="M64.264,124.725c0.422,1.136,1.141,2.545,1.902,3.418l-1.902-0.688l-1.901,0.688
				C63.123,127.27,63.843,125.86,64.264,124.725z"/>
		</g>
		<g>
			<line style="fill:none;stroke:#000000;stroke-width:0.5;" x1="95.445" y1="144.472" x2="95.445" y2="127.139"/>
			<path d="M95.445,124.725c0.421,1.136,1.141,2.545,1.902,3.418l-1.902-0.688l-1.902,0.688
				C94.304,127.27,95.024,125.86,95.445,124.725z"/>
		</g>
		<g>
			<line style="fill:none;stroke:#000000;stroke-width:0.5;" x1="126.626" y1="144.472" x2="126.626" y2="127.139"/>
			<path d="M126.626,124.725c0.421,1.136,1.141,2.545,1.902,3.418l-1.902-0.688l-1.902,0.688
				C125.486,127.27,126.205,125.86,126.626,124.725z"/>
		</g>
	</g>
</svg>
