<?xml version="1.0" encoding="iso-8859-1"?>
<!-- Generator: Adobe Illustrator 11 Build 196, SVG Export Plug-In . SVG Version: 6.0.0 Build 78)  -->
<!DOCTYPE svg PUBLIC "-//W3C//DTD SVG 1.0//EN"    "http://www.w3.org/TR/2001/REC-SVG-20010904/DTD/svg10.dtd" [
	<!ENTITY ns_flows "http://ns.adobe.com/Flows/1.0/">
	<!ENTITY ns_svg "http://www.w3.org/2000/svg">
	<!ENTITY ns_xlink "http://www.w3.org/1999/xlink">
]>
<svg  
	 width="128.911" height="144.872" viewBox="0 0 128.911 144.872"
	 style="overflow:visible;enable-background:new 0 0 128.911 144.872" xml:space="preserve">
	<style type="text/css">
	
	</style>
	<g id="Layer_1">
		<g>
			<line style="fill:none;stroke:#000000;stroke-width:0.5;" x1="95.576" y1="19.748" x2="95.576" y2="2.414"/>
			<path d="M95.576,0c0.421,1.136,1.141,2.545,1.902,3.418L95.576,2.73l-1.902,0.688C94.436,2.545,95.155,1.136,95.576,0z"/>
		</g>
		<g>
			<line style="fill:none;stroke:#000000;stroke-width:0.5;" x1="126.757" y1="19.748" x2="126.757" y2="2.414"/>
			<path d="M126.757,0c0.421,1.136,1.141,2.545,1.902,3.418l-1.902-0.688l-1.902,0.688C125.617,2.545,126.336,1.136,126.757,0z"/>
		</g>
		<g>
			<line style="fill:none;stroke:#000000;stroke-width:0.5;" x1="96.626" y1="49.991" x2="94.525" y2="34.533"/>
			<path d="M94.204,32.138c0.571,1.069,1.473,2.369,2.345,3.132l-1.978-0.426l-1.792,0.938
				C93.416,34.813,93.939,33.32,94.204,32.138z"/>
		</g>
		<g>
			<line style="fill:none;stroke:#000000;stroke-width:0.5;" x1="127.065" y1="50.923" x2="126.449" y2="33.601"/>
			<path d="M126.361,31.185c0.461,1.12,1.23,2.503,2.022,3.349l-1.925-0.62l-1.876,0.755
				C125.312,33.769,125.98,32.335,126.361,31.185z"/>
		</g>
		<g>
			<line style="fill:none;stroke:#000000;stroke-width:0.5;" x1="95.576" y1="79.91" x2="95.576" y2="67.776"/>
			<path d="M95.576,65.362c0.421,1.136,1.141,2.545,1.902,3.418l-1.902-0.688l-1.902,0.688
				C94.436,67.907,95.155,66.498,95.576,65.362z"/>
		</g>
		<g>
			<line style="fill:none;stroke:#000000;stroke-width:0.5;" x1="126.757" y1="82.51" x2="126.757" y2="65.176"/>
			<path d="M126.757,62.762c0.421,1.136,1.141,2.545,1.902,3.418l-1.902-0.688l-1.902,0.688
				C125.617,65.307,126.336,63.898,126.757,62.762z"/>
		</g>
		<g>
			<line style="fill:none;stroke:#000000;stroke-width:0.5;" x1="94.521" y1="112.752" x2="96.63" y2="97.296"/>
			<path d="M96.959,94.902c0.264,1.183,0.786,2.676,1.422,3.645l-1.792-0.938l-1.978,0.424
				C95.485,97.27,96.388,95.971,96.959,94.902z"/>
		</g>
		<g>
			<line style="fill:none;stroke:#000000;stroke-width:0.5;" x1="126.47" y1="113.686" x2="127.045" y2="96.362"/>
			<path d="M127.123,93.945c0.384,1.149,1.056,2.582,1.788,3.48l-1.878-0.751l-1.924,0.625
				C125.899,96.451,126.665,95.066,127.123,93.945z"/>
		</g>
		<g>
			<line style="fill:none;stroke:#000000;stroke-width:0.5;" x1="95.576" y1="144.872" x2="95.576" y2="127.539"/>
			<path d="M95.576,125.125c0.421,1.136,1.141,2.545,1.902,3.418l-1.902-0.688l-1.902,0.688
				C94.436,127.669,95.155,126.26,95.576,125.125z"/>
		</g>
		<g>
			<line style="fill:none;stroke:#000000;stroke-width:0.5;" x1="126.757" y1="144.872" x2="126.757" y2="127.539"/>
			<path d="M126.757,125.125c0.421,1.136,1.141,2.545,1.902,3.418l-1.902-0.688l-1.902,0.688
				C125.617,127.669,126.336,126.26,126.757,125.125z"/>
		</g>
		<g>
			<g>
				
					<radialGradient id="XMLID_19_" cx="-109.855" cy="-82.3696" r="35.8504" fx="-109.855" fy="-82.3696" gradientTransform="matrix(0.0153 0.3021 -0.3021 0.0153 30.3476 104.9525)" gradientUnits="userSpaceOnUse">
					<stop  offset="0" style="stop-color:#FEEDE2"/>
					<stop  offset="0.31" style="stop-color:#FDD0B8"/>
					<stop  offset="1" style="stop-color:#FDBD9E"/>
					<midPointStop  offset="0" style="stop-color:#FEEDE2"/>
					<midPointStop  offset="0.5" style="stop-color:#FEEDE2"/>
					<midPointStop  offset="0.31" style="stop-color:#FDD0B8"/>
					<midPointStop  offset="0.5" style="stop-color:#FDD0B8"/>
					<midPointStop  offset="1" style="stop-color:#FDBD9E"/>
				</radialGradient>
				<circle style="fill:url(#XMLID_19_);" cx="49.945" cy="68.187" r="9.09"/> 
				
					<linearGradient id="XMLID_20_" gradientUnits="userSpaceOnUse" x1="-76.855" y1="37.0503" x2="-73.105" y2="37.0503" gradientTransform="matrix(-0.3091 0.951 -0.951 -0.3091 76.8566 155.412)">
					<stop  offset="0" style="stop-color:#B3D7AE"/>
					<stop  offset="0.25" style="stop-color:#EDF5E9"/>
					<stop  offset="0.3753" style="stop-color:#DEECD7"/>
					<stop  offset="0.5346" style="stop-color:#CDE3C5"/>
					<stop  offset="0.6933" style="stop-color:#BFDCB8"/>
					<stop  offset="0.8494" style="stop-color:#B7D8B1"/>
					<stop  offset="1" style="stop-color:#B3D7AE"/>
					<midPointStop  offset="0" style="stop-color:#B3D7AE"/>
					<midPointStop  offset="0.5" style="stop-color:#B3D7AE"/>
					<midPointStop  offset="0.25" style="stop-color:#EDF5E9"/>
					<midPointStop  offset="0.3" style="stop-color:#EDF5E9"/>
					<midPointStop  offset="1" style="stop-color:#B3D7AE"/>
				</linearGradient>
				<polygon style="fill:url(#XMLID_20_);" points="57.203,68.524 73.371,73.778 72.366,76.869 56.199,71.615 "/>
				
					<radialGradient id="XMLID_21_" cx="-109.855" cy="-82.3696" r="35.8504" fx="-109.855" fy="-82.3696" gradientTransform="matrix(0.0153 0.3021 -0.3021 0.0153 58.1059 113.9734)" gradientUnits="userSpaceOnUse">
					<stop  offset="0" style="stop-color:#EBF0F4"/>
					<stop  offset="0.31" style="stop-color:#CADAE5"/>
					<stop  offset="1" style="stop-color:#B4CDDD"/>
					<midPointStop  offset="0" style="stop-color:#EBF0F4"/>
					<midPointStop  offset="0.5" style="stop-color:#EBF0F4"/>
					<midPointStop  offset="0.31" style="stop-color:#CADAE5"/>
					<midPointStop  offset="0.5" style="stop-color:#CADAE5"/>
					<midPointStop  offset="1" style="stop-color:#B4CDDD"/>
				</radialGradient>
				<circle style="fill:url(#XMLID_21_);" cx="77.703" cy="77.208" r="9.091"/> 
			</g>
			<g>
				
					<radialGradient id="XMLID_22_" cx="-109.855" cy="-82.3696" r="35.8504" fx="-109.855" fy="-82.3696" gradientTransform="matrix(0.1415 0.2673 -0.2673 0.1415 47.0912 115.7934)" gradientUnits="userSpaceOnUse">
					<stop  offset="0" style="stop-color:#FEEDE2"/>
					<stop  offset="0.31" style="stop-color:#FDD0B8"/>
					<stop  offset="1" style="stop-color:#FDBD9E"/>
					<midPointStop  offset="0" style="stop-color:#FEEDE2"/>
					<midPointStop  offset="0.5" style="stop-color:#FEEDE2"/>
					<midPointStop  offset="0.31" style="stop-color:#FDD0B8"/>
					<midPointStop  offset="0.5" style="stop-color:#FDD0B8"/>
					<midPointStop  offset="1" style="stop-color:#FDBD9E"/>
				</radialGradient>
				<circle style="fill:url(#XMLID_22_);" cx="49.339" cy="74.475" r="9.091"/> 
				
					<linearGradient id="XMLID_23_" gradientUnits="userSpaceOnUse" x1="-76.855" y1="37.3408" x2="-73.105" y2="37.3408" gradientTransform="matrix(0.1218 0.9925 -0.9925 0.1218 110.8931 142.202)">
					<stop  offset="0" style="stop-color:#B3D7AE"/>
					<stop  offset="0.25" style="stop-color:#EDF5E9"/>
					<stop  offset="0.3753" style="stop-color:#DEECD7"/>
					<stop  offset="0.5346" style="stop-color:#CDE3C5"/>
					<stop  offset="0.6933" style="stop-color:#BFDCB8"/>
					<stop  offset="0.8494" style="stop-color:#B7D8B1"/>
					<stop  offset="1" style="stop-color:#B3D7AE"/>
					<midPointStop  offset="0" style="stop-color:#B3D7AE"/>
					<midPointStop  offset="0.5" style="stop-color:#B3D7AE"/>
					<midPointStop  offset="0.25" style="stop-color:#EDF5E9"/>
					<midPointStop  offset="0.3" style="stop-color:#EDF5E9"/>
					<midPointStop  offset="1" style="stop-color:#B3D7AE"/>
				</linearGradient>
				<polygon style="fill:url(#XMLID_23_);" points="56.06,71.713 72.933,69.642 73.329,72.868 56.456,74.938 "/>
				
					<radialGradient id="XMLID_24_" cx="-109.855" cy="-82.3696" r="35.8504" fx="-109.855" fy="-82.3696" gradientTransform="matrix(0.1415 0.2673 -0.2673 0.1415 76.0615 112.2385)" gradientUnits="userSpaceOnUse">
					<stop  offset="0" style="stop-color:#EBF0F4"/>
					<stop  offset="0.31" style="stop-color:#CADAE5"/>
					<stop  offset="1" style="stop-color:#B4CDDD"/>
					<midPointStop  offset="0" style="stop-color:#EBF0F4"/>
					<midPointStop  offset="0.5" style="stop-color:#EBF0F4"/>
					<midPointStop  offset="0.31" style="stop-color:#CADAE5"/>
					<midPointStop  offset="0.5" style="stop-color:#CADAE5"/>
					<midPointStop  offset="1" style="stop-color:#B4CDDD"/>
				</radialGradient>
				<circle style="fill:url(#XMLID_24_);" cx="78.309" cy="70.919" r="9.091"/> 
			</g>
			<g>
				
					<radialGradient id="XMLID_25_" cx="-109.855" cy="-82.3696" r="35.8504" fx="-109.855" fy="-82.3696" gradientTransform="matrix(0.2413 0.1825 -0.1825 0.2413 67.0938 119.4045)" gradientUnits="userSpaceOnUse">
					<stop  offset="0" style="stop-color:#FEEDE2"/>
					<stop  offset="0.31" style="stop-color:#FDD0B8"/>
					<stop  offset="1" style="stop-color:#FDBD9E"/>
					<midPointStop  offset="0" style="stop-color:#FEEDE2"/>
					<midPointStop  offset="0.5" style="stop-color:#FEEDE2"/>
					<midPointStop  offset="0.31" style="stop-color:#FDD0B8"/>
					<midPointStop  offset="0.5" style="stop-color:#FDD0B8"/>
					<midPointStop  offset="1" style="stop-color:#FDBD9E"/>
				</radialGradient>
				<circle style="fill:url(#XMLID_25_);" cx="51.447" cy="80.429" r="9.091"/> 
				
					<linearGradient id="XMLID_26_" gradientUnits="userSpaceOnUse" x1="-76.855" y1="37.0845" x2="-73.105" y2="37.0845" gradientTransform="matrix(0.5299 0.8481 -0.8481 0.5299 135.9147 116.3644)">
					<stop  offset="0" style="stop-color:#B3D7AE"/>
					<stop  offset="0.25" style="stop-color:#EDF5E9"/>
					<stop  offset="0.3753" style="stop-color:#DEECD7"/>
					<stop  offset="0.5346" style="stop-color:#CDE3C5"/>
					<stop  offset="0.6933" style="stop-color:#BFDCB8"/>
					<stop  offset="0.8494" style="stop-color:#B7D8B1"/>
					<stop  offset="1" style="stop-color:#B3D7AE"/>
					<midPointStop  offset="0" style="stop-color:#B3D7AE"/>
					<midPointStop  offset="0.5" style="stop-color:#B3D7AE"/>
					<midPointStop  offset="0.25" style="stop-color:#EDF5E9"/>
					<midPointStop  offset="0.3" style="stop-color:#EDF5E9"/>
					<midPointStop  offset="1" style="stop-color:#B3D7AE"/>
				</linearGradient>
				<polygon style="fill:url(#XMLID_26_);" points="56.371,75.086 70.789,66.079 72.511,68.835 58.093,77.842 "/>
				
					<radialGradient id="XMLID_27_" cx="-109.855" cy="-82.3696" r="35.8504" fx="-109.855" fy="-82.3696" gradientTransform="matrix(0.2413 0.1825 -0.1825 0.2413 91.847 103.9391)" gradientUnits="userSpaceOnUse">
					<stop  offset="0" style="stop-color:#EBF0F4"/>
					<stop  offset="0.31" style="stop-color:#CADAE5"/>
					<stop  offset="1" style="stop-color:#B4CDDD"/>
					<midPointStop  offset="0" style="stop-color:#EBF0F4"/>
					<midPointStop  offset="0.5" style="stop-color:#EBF0F4"/>
					<midPointStop  offset="0.31" style="stop-color:#CADAE5"/>
					<midPointStop  offset="0.5" style="stop-color:#CADAE5"/>
					<midPointStop  offset="1" style="stop-color:#B4CDDD"/>
				</radialGradient>
				<circle style="fill:url(#XMLID_27_);" cx="76.2" cy="64.964" r="9.091"/> 
			</g>
			<g>
				
					<radialGradient id="XMLID_28_" cx="-109.855" cy="-82.3696" r="35.8504" fx="-109.855" fy="-82.3696" gradientTransform="matrix(0.2958 0.0634 -0.0634 0.2958 86.5594 113.4542)" gradientUnits="userSpaceOnUse">
					<stop  offset="0" style="stop-color:#FEEDE2"/>
					<stop  offset="0.31" style="stop-color:#FDD0B8"/>
					<stop  offset="1" style="stop-color:#FDBD9E"/>
					<midPointStop  offset="0" style="stop-color:#FEEDE2"/>
					<midPointStop  offset="0.5" style="stop-color:#FEEDE2"/>
					<midPointStop  offset="0.31" style="stop-color:#FDD0B8"/>
					<midPointStop  offset="0.5" style="stop-color:#FDD0B8"/>
					<midPointStop  offset="1" style="stop-color:#FDBD9E"/>
				</radialGradient>
				<circle style="fill:url(#XMLID_28_);" cx="55.875" cy="84.935" r="9.091"/> 
				
					<linearGradient id="XMLID_29_" gradientUnits="userSpaceOnUse" x1="-76.855" y1="37.189" x2="-73.105" y2="37.189" gradientTransform="matrix(0.8386 0.5447 -0.5447 0.8386 147.3393 81.5088)">
					<stop  offset="0" style="stop-color:#B3D7AE"/>
					<stop  offset="0.25" style="stop-color:#EDF5E9"/>
					<stop  offset="0.3753" style="stop-color:#DEECD7"/>
					<stop  offset="0.5346" style="stop-color:#CDE3C5"/>
					<stop  offset="0.6933" style="stop-color:#BFDCB8"/>
					<stop  offset="0.8494" style="stop-color:#B7D8B1"/>
					<stop  offset="1" style="stop-color:#B3D7AE"/>
					<midPointStop  offset="0" style="stop-color:#B3D7AE"/>
					<midPointStop  offset="0.5" style="stop-color:#B3D7AE"/>
					<midPointStop  offset="0.25" style="stop-color:#EDF5E9"/>
					<midPointStop  offset="0.3" style="stop-color:#EDF5E9"/>
					<midPointStop  offset="1" style="stop-color:#B3D7AE"/>
				</linearGradient>
				<polygon style="fill:url(#XMLID_29_);" points="58.079,78.012 67.339,63.755 70.065,65.526 60.805,79.782 "/>
				
					<radialGradient id="XMLID_30_" cx="-109.855" cy="-82.3696" r="35.8504" fx="-109.855" fy="-82.3696" gradientTransform="matrix(0.2958 0.0634 -0.0634 0.2958 102.4581 88.9769)" gradientUnits="userSpaceOnUse">
					<stop  offset="0" style="stop-color:#EBF0F4"/>
					<stop  offset="0.31" style="stop-color:#CADAE5"/>
					<stop  offset="1" style="stop-color:#B4CDDD"/>
					<midPointStop  offset="0" style="stop-color:#EBF0F4"/>
					<midPointStop  offset="0.5" style="stop-color:#EBF0F4"/>
					<midPointStop  offset="0.31" style="stop-color:#CADAE5"/>
					<midPointStop  offset="0.5" style="stop-color:#CADAE5"/>
					<midPointStop  offset="1" style="stop-color:#B4CDDD"/>
				</radialGradient>
				<circle style="fill:url(#XMLID_30_);" cx="71.773" cy="60.458" r="9.091"/> 
			</g>
			<g>
				
					<radialGradient id="XMLID_31_" cx="-109.855" cy="-82.3696" r="35.8504" fx="-109.855" fy="-82.3696" gradientTransform="matrix(0.2949 -0.0675 0.0675 0.2949 101.5385 100.3123)" gradientUnits="userSpaceOnUse">
					<stop  offset="0" style="stop-color:#FEEDE2"/>
					<stop  offset="0.31" style="stop-color:#FDD0B8"/>
					<stop  offset="1" style="stop-color:#FDBD9E"/>
					<midPointStop  offset="0" style="stop-color:#FEEDE2"/>
					<midPointStop  offset="0.5" style="stop-color:#FEEDE2"/>
					<midPointStop  offset="0.31" style="stop-color:#FDD0B8"/>
					<midPointStop  offset="0.5" style="stop-color:#FDD0B8"/>
					<midPointStop  offset="1" style="stop-color:#FDBD9E"/>
				</radialGradient>
				<circle style="fill:url(#XMLID_31_);" cx="61.791" cy="87.148" r="9.091"/> 
				
					<linearGradient id="XMLID_32_" gradientUnits="userSpaceOnUse" x1="-76.855" y1="37.2476" x2="-73.105" y2="37.2476" gradientTransform="matrix(0.9903 0.1392 -0.1392 0.9903 143.8427 45.407)">
					<stop  offset="0" style="stop-color:#B3D7AE"/>
					<stop  offset="0.25" style="stop-color:#EDF5E9"/>
					<stop  offset="0.3753" style="stop-color:#DEECD7"/>
					<stop  offset="0.5346" style="stop-color:#CDE3C5"/>
					<stop  offset="0.6933" style="stop-color:#BFDCB8"/>
					<stop  offset="0.8494" style="stop-color:#B7D8B1"/>
					<stop  offset="1" style="stop-color:#B3D7AE"/>
					<midPointStop  offset="0" style="stop-color:#B3D7AE"/>
					<midPointStop  offset="0.5" style="stop-color:#B3D7AE"/>
					<midPointStop  offset="0.25" style="stop-color:#EDF5E9"/>
					<midPointStop  offset="0.3" style="stop-color:#EDF5E9"/>
					<midPointStop  offset="1" style="stop-color:#B3D7AE"/>
				</linearGradient>
				<polygon style="fill:url(#XMLID_32_);" points="60.864,79.942 63.231,63.107 66.449,63.56 64.082,80.394 "/>
				
					<radialGradient id="XMLID_33_" cx="-109.855" cy="-82.3696" r="35.8504" fx="-109.855" fy="-82.3696" gradientTransform="matrix(0.2949 -0.0675 0.0675 0.2949 105.6032 71.4094)" gradientUnits="userSpaceOnUse">
					<stop  offset="0" style="stop-color:#EBF0F4"/>
					<stop  offset="0.31" style="stop-color:#CADAE5"/>
					<stop  offset="1" style="stop-color:#B4CDDD"/>
					<midPointStop  offset="0" style="stop-color:#EBF0F4"/>
					<midPointStop  offset="0.5" style="stop-color:#EBF0F4"/>
					<midPointStop  offset="0.31" style="stop-color:#CADAE5"/>
					<midPointStop  offset="0.5" style="stop-color:#CADAE5"/>
					<midPointStop  offset="1" style="stop-color:#B4CDDD"/>
				</radialGradient>
				<circle style="fill:url(#XMLID_33_);" cx="65.856" cy="58.246" r="9.091"/> 
			</g>
			<g>
				
					<radialGradient id="XMLID_34_" cx="-109.855" cy="-82.3696" r="35.8504" fx="-109.855" fy="-82.3696" gradientTransform="matrix(0.2827 -0.1076 0.1076 0.2827 105.8572 95.9669)" gradientUnits="userSpaceOnUse">
					<stop  offset="0" style="stop-color:#FDD0B8"/>
					<stop  offset="0.31" style="stop-color:#FD9268"/>
					<stop  offset="1" style="stop-color:#FF5100"/>
					<midPointStop  offset="0" style="stop-color:#FDD0B8"/>
					<midPointStop  offset="0.5" style="stop-color:#FDD0B8"/>
					<midPointStop  offset="0.31" style="stop-color:#FD9268"/>
					<midPointStop  offset="0.5" style="stop-color:#FD9268"/>
					<midPointStop  offset="1" style="stop-color:#FF5100"/>
				</radialGradient>
				<circle style="fill:url(#XMLID_34_);" cx="64.911" cy="88.468" r="9.091"/> 
				
					<linearGradient id="XMLID_35_" gradientUnits="userSpaceOnUse" x1="-76.855" y1="37.1416" x2="-73.105" y2="37.1416" gradientTransform="matrix(1 0.001 -0.001 1 140.065 35.8951)">
					<stop  offset="0" style="stop-color:#00A669"/>
					<stop  offset="0.25" style="stop-color:#D9EAD2"/>
					<stop  offset="0.331" style="stop-color:#C2DEBC"/>
					<stop  offset="0.4444" style="stop-color:#A3CEA2"/>
					<stop  offset="0.5586" style="stop-color:#82C08C"/>
					<stop  offset="0.6717" style="stop-color:#63B57C"/>
					<stop  offset="0.7837" style="stop-color:#49AD72"/>
					<stop  offset="0.8938" style="stop-color:#2FA86C"/>
					<stop  offset="1" style="stop-color:#00A669"/>
					<midPointStop  offset="0" style="stop-color:#00A669"/>
					<midPointStop  offset="0.5" style="stop-color:#00A669"/>
					<midPointStop  offset="0.25" style="stop-color:#D9EAD2"/>
					<midPointStop  offset="0.3" style="stop-color:#D9EAD2"/>
					<midPointStop  offset="1" style="stop-color:#00A669"/>
				</linearGradient>
				<polygon style="fill:url(#XMLID_35_);" points="62.996,81.459 63.013,64.459 66.263,64.462 66.245,81.462 "/>
				
					<radialGradient id="XMLID_36_" cx="-109.855" cy="-82.3696" r="35.8504" fx="-109.855" fy="-82.3696" gradientTransform="matrix(0.2827 -0.1076 0.1076 0.2827 105.8872 66.7798)" gradientUnits="userSpaceOnUse">
					<stop  offset="0" style="stop-color:#CADAE5"/>
					<stop  offset="0.31" style="stop-color:#83B4CE"/>
					<stop  offset="1" style="stop-color:#2A9AC2"/>
					<midPointStop  offset="0" style="stop-color:#CADAE5"/>
					<midPointStop  offset="0.5" style="stop-color:#CADAE5"/>
					<midPointStop  offset="0.31" style="stop-color:#83B4CE"/>
					<midPointStop  offset="0.5" style="stop-color:#83B4CE"/>
					<midPointStop  offset="1" style="stop-color:#2A9AC2"/>
				</radialGradient>
				<circle style="fill:url(#XMLID_36_);" cx="64.941" cy="59.281" r="9.091"/> 
				<g>
					<text transform="matrix(1 0.001 -0.001 1 60.7173 93.2061)"><tspan x="0" y="0" style="font-family:Liberation Sans; font-size:11.900000;">&#x2013;</tspan></text>
				</g>
				<g>
					<text transform="matrix(1 0.001 -0.001 1 60.8848 62.8525)"><tspan x="0" y="0" style="font-family:Liberation Sans; font-size:11.900000;">+</tspan></text>
				</g>
			</g>
		</g>
		<g>
			<line style="fill:none;stroke:#000000;stroke-width:0.5;" x1="64.521" y1="19.748" x2="64.521" y2="2.414"/>
			<path d="M64.521,0c0.421,1.136,1.141,2.545,1.902,3.418L64.521,2.73L62.62,3.418C63.381,2.545,64.1,1.136,64.521,0z"/>
		</g>
		<g>
			<line style="fill:none;stroke:#000000;stroke-width:0.5;" x1="33.34" y1="19.748" x2="33.34" y2="2.414"/>
			<path d="M33.34,0c0.421,1.136,1.141,2.545,1.902,3.418L33.34,2.73l-1.902,0.688C32.2,2.545,32.919,1.136,33.34,0z"/>
		</g>
		<g>
			<line style="fill:none;stroke:#000000;stroke-width:0.5;" x1="2.159" y1="19.748" x2="2.159" y2="2.414"/>
			<path d="M2.159,0C2.581,1.136,3.3,2.545,4.062,3.418L2.159,2.73L0.257,3.418C1.019,2.545,1.738,1.136,2.159,0z"/>
		</g>
		<g>
			<line style="fill:none;stroke:#000000;stroke-width:0.5;" x1="64.521" y1="51.795" x2="64.521" y2="32.729"/>
			<path d="M64.521,30.314c0.421,1.136,1.141,2.545,1.902,3.418l-1.902-0.688l-1.902,0.688C63.381,32.859,64.1,31.45,64.521,30.314z
				"/>
		</g>
		<g>
			<line style="fill:none;stroke:#000000;stroke-width:0.5;" x1="32.29" y1="49.991" x2="34.391" y2="34.533"/>
			<path d="M34.716,32.145c0.265,1.182,0.788,2.676,1.424,3.644l-1.792-0.938l-1.977,0.425
				C33.243,34.514,34.146,33.214,34.716,32.145z"/>
		</g>
		<g>
			<line style="fill:none;stroke:#000000;stroke-width:0.5;" x1="1.852" y1="50.923" x2="2.467" y2="33.601"/>
			<path d="M2.549,31.188c0.381,1.15,1.05,2.584,1.78,3.484l-1.876-0.755l-1.925,0.62C1.319,33.691,2.088,32.309,2.549,31.188z"/>
		</g>
		<g>
			<line style="fill:none;stroke:#000000;stroke-width:0.5;" x1="33.34" y1="79.91" x2="33.34" y2="67.776"/>
			<path d="M33.34,65.362c0.421,1.136,1.141,2.545,1.902,3.418l-1.902-0.688l-1.902,0.688C32.2,67.907,32.919,66.498,33.34,65.362z"
				/>
		</g>
		<g>
			<line style="fill:none;stroke:#000000;stroke-width:0.5;" x1="2.159" y1="82.51" x2="2.159" y2="65.176"/>
			<path d="M2.159,62.762c0.421,1.136,1.141,2.545,1.902,3.418l-1.902-0.688l-1.902,0.688C1.019,65.307,1.738,63.898,2.159,62.762z"
				/>
		</g>
		<g>
			<line style="fill:none;stroke:#000000;stroke-width:0.5;" x1="64.521" y1="114.557" x2="64.521" y2="95.491"/>
			<path d="M64.521,93.077c0.421,1.136,1.141,2.545,1.902,3.418l-1.902-0.688l-1.902,0.688C63.381,95.622,64.1,94.212,64.521,93.077
				z"/>
		</g>
		<g>
			<line style="fill:none;stroke:#000000;stroke-width:0.5;" x1="34.395" y1="112.752" x2="32.286" y2="97.296"/>
			<path d="M31.96,94.907c0.571,1.068,1.475,2.368,2.347,3.13l-1.978-0.424l-1.791,0.938C31.174,97.583,31.696,96.089,31.96,94.907z
				"/>
		</g>
		<g>
			<line style="fill:none;stroke:#000000;stroke-width:0.5;" x1="2.447" y1="113.686" x2="1.872" y2="96.362"/>
			<path d="M1.788,93.951c0.459,1.121,1.225,2.506,2.015,3.354L1.878,96.68L0,97.431C0.732,96.533,1.404,95.1,1.788,93.951z"/>
		</g>
		<g>
			<line style="fill:none;stroke:#000000;stroke-width:0.5;" x1="64.521" y1="144.872" x2="64.521" y2="127.539"/>
			<path d="M64.521,125.125c0.421,1.136,1.141,2.545,1.902,3.418l-1.902-0.688l-1.902,0.688
				C63.381,127.669,64.1,126.26,64.521,125.125z"/>
		</g>
		<g>
			<line style="fill:none;stroke:#000000;stroke-width:0.5;" x1="33.34" y1="144.872" x2="33.34" y2="127.539"/>
			<path d="M33.34,125.125c0.421,1.136,1.141,2.545,1.902,3.418l-1.902-0.688l-1.902,0.688
				C32.2,127.669,32.919,126.26,33.34,125.125z"/>
		</g>
		<g>
			<line style="fill:none;stroke:#000000;stroke-width:0.5;" x1="2.159" y1="144.872" x2="2.159" y2="127.539"/>
			<path d="M2.159,125.125c0.421,1.136,1.141,2.545,1.902,3.418l-1.902-0.688l-1.902,0.688
				C1.019,127.669,1.738,126.26,2.159,125.125z"/>
		</g>
	</g>
</svg>
