<?xml version="1.0" encoding="iso-8859-1"?>
<!-- Generator: Adobe Illustrator 11 Build 196, SVG Export Plug-In . SVG Version: 6.0.0 Build 78)  -->
<!DOCTYPE svg PUBLIC "-//W3C//DTD SVG 1.0//EN"    "http://www.w3.org/TR/2001/REC-SVG-20010904/DTD/svg10.dtd" [
	<!ENTITY ns_flows "http://ns.adobe.com/Flows/1.0/">
	<!ENTITY ns_svg "http://www.w3.org/2000/svg">
	<!ENTITY ns_xlink "http://www.w3.org/1999/xlink">
]>
<svg  
	 width="129.368" height="144.472" viewBox="0 0 129.368 144.472"
	 style="overflow:visible;enable-background:new 0 0 129.368 144.472" xml:space="preserve">
	<style type="text/css">
	
	</style>
	<g id="Layer_1">
		<g>
			<line style="fill:none;stroke:#000000;stroke-width:0.5;" x1="1.902" y1="19.748" x2="1.902" y2="2.414"/>
			<path d="M1.902,0c0.422,1.136,1.141,2.545,1.902,3.419L1.902,2.731L0,3.419C0.761,2.545,1.481,1.136,1.902,0z"/>
		</g>
		<g>
			<line style="fill:none;stroke:#000000;stroke-width:0.5;" x1="33.083" y1="19.748" x2="33.083" y2="2.414"/>
			<path d="M33.083,0c0.422,1.136,1.141,2.545,1.902,3.419l-1.902-0.688l-1.902,0.688C31.943,2.545,32.662,1.136,33.083,0z"/>
		</g>
		<g>
			<line style="fill:none;stroke:#000000;stroke-width:0.5;" x1="64.264" y1="19.748" x2="64.264" y2="2.414"/>
			<path d="M64.264,0c0.422,1.136,1.141,2.545,1.902,3.419l-1.902-0.688l-1.901,0.688C63.123,2.545,63.843,1.136,64.264,0z"/>
		</g>
		<g>
			<line style="fill:none;stroke:#000000;stroke-width:0.5;" x1="95.445" y1="19.748" x2="95.445" y2="2.414"/>
			<path d="M95.445,0c0.421,1.136,1.141,2.545,1.902,3.419l-1.902-0.688l-1.902,0.688C94.304,2.545,95.024,1.136,95.445,0z"/>
		</g>
		<g>
			<line style="fill:none;stroke:#000000;stroke-width:0.5;" x1="126.626" y1="19.748" x2="126.626" y2="2.414"/>
			<path d="M126.626,0c0.421,1.136,1.141,2.545,1.902,3.419l-1.902-0.688l-1.902,0.688C125.486,2.545,126.205,1.136,126.626,0z"/>
		</g>
		<g>
			<line style="fill:none;stroke:#000000;stroke-width:0.5;" x1="1.902" y1="50.929" x2="1.902" y2="33.595"/>
			<path d="M1.902,31.181c0.422,1.136,1.141,2.545,1.902,3.418l-1.902-0.688L0,34.6C0.761,33.727,1.481,32.317,1.902,31.181z"/>
		</g>
		<g>
			<line style="fill:none;stroke:#000000;stroke-width:0.5;" x1="32.269" y1="49.147" x2="33.897" y2="35.376"/>
			<path d="M34.178,32.979c0.286,1.178,0.834,2.662,1.488,3.619l-1.808-0.907l-1.969,0.46
				C32.747,35.373,33.626,34.058,34.178,32.979z"/>
		</g>
		<g>
			<line style="fill:none;stroke:#000000;stroke-width:0.5;" x1="65.804" y1="51.67" x2="62.723" y2="32.854"/>
			<path d="M62.331,30.469c0.6,1.053,1.537,2.328,2.43,3.066l-1.988-0.372l-1.766,0.986C61.616,33.166,62.098,31.658,62.331,30.469z
				"/>
		</g>
		<g>
			<line style="fill:none;stroke:#000000;stroke-width:0.5;" x1="94.391" y1="51.737" x2="96.499" y2="32.787"/>
			<path d="M96.768,30.386c0.293,1.176,0.853,2.656,1.513,3.608L96.467,33.1L94.5,33.573C95.353,32.79,96.224,31.468,96.768,30.386z
				"/>
		</g>
		<g>
			<line style="fill:none;stroke:#000000;stroke-width:0.5;" x1="126.626" y1="50.929" x2="126.626" y2="33.595"/>
			<path d="M126.626,31.181c0.421,1.136,1.141,2.545,1.902,3.418l-1.902-0.688l-1.902,0.688
				C125.486,33.727,126.205,32.317,126.626,31.181z"/>
		</g>
		<g>
			<line style="fill:none;stroke:#000000;stroke-width:0.5;" x1="1.025" y1="82.5" x2="2.779" y2="64.385"/>
			<path d="M3.012,61.98c0.31,1.171,0.89,2.643,1.564,3.586l-1.827-0.868L0.79,65.199C1.632,64.403,2.484,63.07,3.012,61.98z"/>
		</g>
		<g>
			<line style="fill:none;stroke:#000000;stroke-width:0.5;" x1="29.691" y1="83.274" x2="36.475" y2="63.612"/>
			<path d="M37.262,61.33c0.028,1.211,0.248,2.778,0.683,3.852l-1.574-1.271l-2.022,0.03C35.354,63.364,36.494,62.266,37.262,61.33z
				"/>
		</g>
		<g>
			<line style="fill:none;stroke:#000000;stroke-width:0.5;" x1="68.739" y1="85.648" x2="59.79" y2="61.237"/>
			<path d="M58.961,58.972c0.787,0.921,1.947,1.997,2.963,2.555l-2.022,0.009l-1.549,1.3C58.767,61.754,58.957,60.184,58.961,58.972
				z"/>
		</g>
		<g>
			<line style="fill:none;stroke:#000000;stroke-width:0.5;" x1="93.328" y1="83.625" x2="97.563" y2="63.261"/>
			<path d="M98.054,60.895c0.181,1.198,0.598,2.724,1.166,3.734l-1.722-1.061l-2.002,0.287
				C96.419,63.154,97.41,61.921,98.054,60.895z"/>
		</g>
		<g>
			<line style="fill:none;stroke:#000000;stroke-width:0.5;" x1="125.671" y1="82.493" x2="127.582" y2="64.394"/>
			<path d="M127.836,61.989c0.3,1.174,0.867,2.651,1.532,3.6l-1.819-0.884l-1.963,0.484
				C126.434,64.401,127.297,63.075,127.836,61.989z"/>
		</g>
		<g>
			<line style="fill:none;stroke:#000000;stroke-width:0.5;" x1="1.902" y1="113.291" x2="1.902" y2="95.958"/>
			<path d="M1.902,93.543c0.422,1.136,1.141,2.545,1.902,3.418l-1.902-0.688L0,96.962C0.761,96.088,1.481,94.679,1.902,93.543z"/>
		</g>
		<g>
			<line style="fill:none;stroke:#000000;stroke-width:0.5;" x1="32.043" y1="114.101" x2="34.123" y2="95.147"/>
			<path d="M34.382,92.75c0.295,1.175,0.856,2.655,1.518,3.606l-1.815-0.892l-1.966,0.477C32.97,95.156,33.839,93.833,34.382,92.75z
				"/>
		</g>
		<g>
			<line style="fill:none;stroke:#000000;stroke-width:0.5;" x1="66.086" y1="113.097" x2="62.442" y2="96.151"/>
			<path d="M61.935,93.79c0.65,1.021,1.65,2.249,2.578,2.942l-2.004-0.272l-1.715,1.072C61.355,96.518,61.761,94.989,61.935,93.79z"
				/>
		</g>
		<g>
			<line style="fill:none;stroke:#000000;stroke-width:0.5;" x1="94.508" y1="111.494" x2="96.383" y2="97.754"/>
			<path d="M96.711,95.362c0.264,1.183,0.786,2.676,1.422,3.645l-1.792-0.939l-1.978,0.424C95.237,97.73,96.14,96.431,96.711,95.362
				z"/>
		</g>
		<g>
			<line style="fill:none;stroke:#000000;stroke-width:0.5;" x1="126.626" y1="113.291" x2="126.626" y2="95.958"/>
			<path d="M126.626,93.543c0.421,1.136,1.141,2.545,1.902,3.418l-1.902-0.688l-1.902,0.688
				C125.486,96.088,126.205,94.679,126.626,93.543z"/>
		</g>
		<g>
			<line style="fill:none;stroke:#000000;stroke-width:0.5;" x1="1.902" y1="144.472" x2="1.902" y2="127.139"/>
			<path d="M1.902,124.725c0.422,1.136,1.141,2.545,1.902,3.418l-1.902-0.688L0,128.143C0.761,127.27,1.481,125.86,1.902,124.725z"
				/>
		</g>
		<g>
			<line style="fill:none;stroke:#000000;stroke-width:0.5;" x1="33.083" y1="144.472" x2="33.083" y2="127.139"/>
			<path d="M33.083,124.725c0.422,1.136,1.141,2.545,1.902,3.418l-1.902-0.688l-1.902,0.688
				C31.943,127.27,32.662,125.86,33.083,124.725z"/>
		</g>
		<g>
			<line style="fill:none;stroke:#000000;stroke-width:0.5;" x1="64.264" y1="144.472" x2="64.264" y2="127.139"/>
			<path d="M64.264,124.725c0.422,1.136,1.141,2.545,1.902,3.418l-1.902-0.688l-1.901,0.688
				C63.123,127.27,63.843,125.86,64.264,124.725z"/>
		</g>
		<g>
			<line style="fill:none;stroke:#000000;stroke-width:0.5;" x1="95.445" y1="144.472" x2="95.445" y2="127.139"/>
			<path d="M95.445,124.725c0.421,1.136,1.141,2.545,1.902,3.418l-1.902-0.688l-1.902,0.688
				C94.304,127.27,95.024,125.86,95.445,124.725z"/>
		</g>
		<g>
			<line style="fill:none;stroke:#000000;stroke-width:0.5;" x1="126.626" y1="144.472" x2="126.626" y2="127.139"/>
			<path d="M126.626,124.725c0.421,1.136,1.141,2.545,1.902,3.418l-1.902-0.688l-1.902,0.688
				C125.486,127.27,126.205,125.86,126.626,124.725z"/>
		</g>
		<g>
			
				<radialGradient id="XMLID_40_" cx="52.5686" cy="20.6641" r="35.8504" fx="52.5686" fy="20.6641" gradientTransform="matrix(0.0153 0.3021 -0.3021 0.0153 58.8579 53.2871)" gradientUnits="userSpaceOnUse">
				<stop  offset="0" style="stop-color:#FDD0B8"/>
				<stop  offset="0.31" style="stop-color:#FD9268"/>
				<stop  offset="1" style="stop-color:#FF5100"/>
				<midPointStop  offset="0" style="stop-color:#FDD0B8"/>
				<midPointStop  offset="0.5" style="stop-color:#FDD0B8"/>
				<midPointStop  offset="0.31" style="stop-color:#FD9268"/>
				<midPointStop  offset="0.5" style="stop-color:#FD9268"/>
				<midPointStop  offset="1" style="stop-color:#FF5100"/>
			</radialGradient>
			<circle style="fill:url(#XMLID_40_);" cx="49.814" cy="67.166" r="9.091"/> 
			
				<linearGradient id="XMLID_41_" gradientUnits="userSpaceOnUse" x1="85.5686" y1="140.083" x2="89.3186" y2="140.083" gradientTransform="matrix(-0.3091 0.951 -0.951 -0.3091 224.9156 31.7742)">
				<stop  offset="0" style="stop-color:#00A669"/>
				<stop  offset="0.25" style="stop-color:#D9EAD2"/>
				<stop  offset="0.331" style="stop-color:#C2DEBC"/>
				<stop  offset="0.4444" style="stop-color:#A3CEA2"/>
				<stop  offset="0.5586" style="stop-color:#82C08C"/>
				<stop  offset="0.6717" style="stop-color:#63B57C"/>
				<stop  offset="0.7837" style="stop-color:#49AD72"/>
				<stop  offset="0.8938" style="stop-color:#2FA86C"/>
				<stop  offset="1" style="stop-color:#00A669"/>
				<midPointStop  offset="0" style="stop-color:#00A669"/>
				<midPointStop  offset="0.5" style="stop-color:#00A669"/>
				<midPointStop  offset="0.25" style="stop-color:#D9EAD2"/>
				<midPointStop  offset="0.3" style="stop-color:#D9EAD2"/>
				<midPointStop  offset="1" style="stop-color:#00A669"/>
			</linearGradient>
			<polygon style="fill:url(#XMLID_41_);" points="57.072,67.503 73.24,72.757 72.235,75.848 56.068,70.594 "/>
			
				<radialGradient id="XMLID_42_" cx="52.5686" cy="20.6641" r="35.8504" fx="52.5686" fy="20.6641" gradientTransform="matrix(0.0153 0.3021 -0.3021 0.0153 86.6167 62.3079)" gradientUnits="userSpaceOnUse">
				<stop  offset="0" style="stop-color:#CADAE5"/>
				<stop  offset="0.31" style="stop-color:#83B4CE"/>
				<stop  offset="1" style="stop-color:#2A9AC2"/>
				<midPointStop  offset="0" style="stop-color:#CADAE5"/>
				<midPointStop  offset="0.5" style="stop-color:#CADAE5"/>
				<midPointStop  offset="0.31" style="stop-color:#83B4CE"/>
				<midPointStop  offset="0.5" style="stop-color:#83B4CE"/>
				<midPointStop  offset="1" style="stop-color:#2A9AC2"/>
			</radialGradient>
			<circle style="fill:url(#XMLID_42_);" cx="77.572" cy="76.187" r="9.091"/> 
			<g>
				<text transform="matrix(-0.3091 0.951 -0.951 -0.3091 46.5989 61.7163)"><tspan x="0" y="0" style="font-family:Liberation Sans; font-size:11.900000;">&#x2013;</tspan></text>
			</g>
			<g>
				<text transform="matrix(-0.3091 0.951 -0.951 -0.3091 75.4241 71.228)"><tspan x="0" y="0" style="font-family:Liberation Sans; font-size:11.900000;">+</tspan></text>
			</g>
		</g>
	</g>
</svg>
