<?xml version="1.0" encoding="iso-8859-1"?>
<!-- Generator: Adobe Illustrator 11 Build 196, SVG Export Plug-In . SVG Version: 6.0.0 Build 78)  -->
<!DOCTYPE svg PUBLIC "-//W3C//DTD SVG 1.0//EN"    "http://www.w3.org/TR/2001/REC-SVG-20010904/DTD/svg10.dtd" [
	<!ENTITY ns_flows "http://ns.adobe.com/Flows/1.0/">
	<!ENTITY ns_svg "http://www.w3.org/2000/svg">
	<!ENTITY ns_xlink "http://www.w3.org/1999/xlink">
]>
<svg  
	 width="267.118" height="84.295" viewBox="0 0 267.118 84.295" style="overflow:visible;enable-background:new 0 0 267.118 84.295"
	 xml:space="preserve">
	<style type="text/css">
	
	</style>
	<g id="Layer_1">
		<path style="fill:#DCDCDC;stroke:#000000;stroke-width:0.5;" d="M215.014,48c0,7.159,3,1,10,10.5s21,6,24,4s11-9,12-13.5
			s0.5-12-3-17s-10.5-14-16.5-11.5s-16.5-1.5-18,6s-7,9-7,12.5S215.014,45.5,215.014,48z"/>
		<path style="fill:#DCDCDC;stroke:#000000;stroke-width:0.5;" d="M18.264,58.775c10.125,3.375,28.125,4.5,25.875-6.75
			c-2.25-11.25-3.375-28.125-6.75-30.375s-18-4.5-20.25,0s-4.5,7.875-10.125,16.875S-3.111,64.4,3.639,63.275
			S18.264,58.775,18.264,58.775z"/>
		<path style="fill:#DCDCDC;stroke:#000000;stroke-width:0.5;" d="M71.086,63.249c3.712-5.569,8.353-9.281,11.138-15.778
			c2.784-6.497,4.641-3.712-2.785-12.994c-7.425-9.281,4.641-17.635,14.85-22.275c10.209-4.641,23.203,4.64,25.988,11.137
			c2.784,6.497,4.641,19.491-0.928,21.347c-5.569,1.856-3.712-3.712-8.353-6.497s-14.85-2.784-14.85,3.712
			s-5.569,13.922-9.281,16.706c-3.713,2.785,2.784,8.354-7.425,12.066S71.086,63.249,71.086,63.249z"/>
		<path style="fill:#DCDCDC;stroke:#000000;stroke-width:0.5;" d="M154.104,53.908c5.203,10.405,14.344,10.519,17.213,11.475
			c2.869,0.956,11.475-14.344,14.344-15.3s8.606-8.606,9.562-14.344c0.957-5.737,4.781-21.994-0.957-18.169
			c-5.737,3.825-13.387,9.563-15.3,12.432c-1.913,2.869-11.475-2.869-14.344-6.694c-2.869-3.825-12.432-2.869-15.3,0
			c-2.869,2.869,0,4.781-2.869,11.475C143.585,41.476,152.191,50.083,154.104,53.908z"/>
		<g>
			<text transform="matrix(1 0 0 1 20.2637 11)"><tspan x="0" y="0" style="font-family:Liberation Sans; font-size:7.650000;">Na</tspan></text>
			<text transform="matrix(1 0 0 1 31.7686 9)"><tspan x="0" y="0" style="font-family:Liberation Sans; font-size:7.650000;">+</tspan></text>
		</g>
		<g>
			<text transform="matrix(1 0 0 1 230.8857 35.8647)"><tspan x="0" y="0" style="font-family:Liberation Sans; font-size:7.650000;">Na</tspan></text>
			<text transform="matrix(1 0 0 1 242.3906 33.8647)"><tspan x="0" y="0" style="font-family:Liberation Sans; font-size:7.650000;">+</tspan></text>
		</g>
		<g>
			<text transform="matrix(1 0 0 1 180.6357 12.8647)"><tspan x="0" y="0" style="font-family:Liberation Sans; font-size:7.650000;">Cl</tspan></text>
			<text transform="matrix(1 0 0 1 189.1348 10.8647)"><tspan x="0" y="0" style="font-family:Liberation Sans; font-size:7.650000;">&#x2013;</tspan></text>
		</g>
		<g>
			<text transform="matrix(1 0 0 1 151.1357 39.3647)"><tspan x="0" y="0" style="font-family:Liberation Sans; font-size:7.650000;">Ca</tspan></text>
			<text transform="matrix(1 0 0 1 162.6406 37.3647)"><tspan x="0" y="0" style="font-family:Liberation Sans; font-size:7.650000;">+2</tspan></text>
		</g>
		
			<linearGradient id="XMLID_6_" gradientUnits="userSpaceOnUse" x1="148.7529" y1="-21.3184" x2="148.7529" y2="-41.4939" gradientTransform="matrix(0.75 0 0 0.75 125.5107 43.4653)">
			<stop  offset="0" style="stop-color:#FFFFFF"/>
			<stop  offset="1" style="stop-color:#000000"/>
			<midPointStop  offset="0" style="stop-color:#FFFFFF"/>
			<midPointStop  offset="0.5" style="stop-color:#FFFFFF"/>
			<midPointStop  offset="1" style="stop-color:#000000"/>
		</linearGradient>
		<polygon style="fill:url(#XMLID_6_);" points="241.514,18.5 237.076,12.345 232.638,18.5 234.576,18.5 234.576,27.977 
			239.576,27.977 239.576,18.5 "/>
		
			<linearGradient id="XMLID_7_" gradientUnits="userSpaceOnUse" x1="148.7529" y1="-21.3184" x2="148.7529" y2="-41.4939" gradientTransform="matrix(-0.75 0 0 -0.75 138.0938 -2.4771)">
			<stop  offset="0" style="stop-color:#FFFFFF"/>
			<stop  offset="1" style="stop-color:#000000"/>
			<midPointStop  offset="0" style="stop-color:#FFFFFF"/>
			<midPointStop  offset="0.5" style="stop-color:#FFFFFF"/>
			<midPointStop  offset="1" style="stop-color:#000000"/>
		</linearGradient>
		<polygon style="fill:url(#XMLID_7_);" points="22.091,22.489 26.529,28.644 30.967,22.489 29.029,22.489 29.029,13.012 
			24.029,13.012 24.029,22.489 "/>
		
			<linearGradient id="XMLID_8_" gradientUnits="userSpaceOnUse" x1="148.7524" y1="-21.3184" x2="148.7524" y2="-41.4939" gradientTransform="matrix(-0.75 0 0 -0.75 297.3281 -0.2739)">
			<stop  offset="0" style="stop-color:#FFFFFF"/>
			<stop  offset="1" style="stop-color:#000000"/>
			<midPointStop  offset="0" style="stop-color:#FFFFFF"/>
			<midPointStop  offset="0.5" style="stop-color:#FFFFFF"/>
			<midPointStop  offset="1" style="stop-color:#000000"/>
		</linearGradient>
		<polygon style="fill:url(#XMLID_8_);" points="181.326,24.692 185.764,30.847 190.202,24.692 188.264,24.692 188.264,15.215 
			183.264,15.215 183.264,24.692 "/>
		
			<linearGradient id="XMLID_9_" gradientUnits="userSpaceOnUse" x1="148.7529" y1="-21.3184" x2="148.7529" y2="-41.4939" gradientTransform="matrix(0.75 0 0 0.75 48.1367 43.4653)">
			<stop  offset="0" style="stop-color:#FFFFFF"/>
			<stop  offset="1" style="stop-color:#000000"/>
			<midPointStop  offset="0" style="stop-color:#FFFFFF"/>
			<midPointStop  offset="0.5" style="stop-color:#FFFFFF"/>
			<midPointStop  offset="1" style="stop-color:#000000"/>
		</linearGradient>
		<polygon style="fill:url(#XMLID_9_);" points="164.14,18.5 159.702,12.345 155.264,18.5 157.202,18.5 157.202,27.977 
			162.202,27.977 162.202,18.5 "/>
		<g>
			<text transform="matrix(1 0 0 1 21.3989 80.2783)"><tspan x="0" y="0" style="font-family:Liberation Sans; font-size:7.650000;">A</tspan></text>
		</g>
		<g>
			<text transform="matrix(1 0 0 1 94.3984 80.2783)"><tspan x="0" y="0" style="font-family:Liberation Sans; font-size:7.650000;">B</tspan></text>
		</g>
		<g>
			<text transform="matrix(1 0 0 1 167.1509 80.2783)"><tspan x="0" y="0" style="font-family:Liberation Sans; font-size:7.650000;">C</tspan></text>
		</g>
		<line style="fill:none;" x1="267.118" y1="37.542" x2="267.118" y2="51.042"/>
		<g>
			<text transform="matrix(1 0 0 1 94.4058 26.772)"><tspan x="0" y="0" style="font-family:Liberation Sans; font-size:7.650000;">Cl</tspan></text>
			<text transform="matrix(1 0 0 1 102.9048 24.772)"><tspan x="0" y="0" style="font-family:Liberation Sans; font-size:7.650000;">&#x2013;</tspan></text>
		</g>
		
			<linearGradient id="XMLID_10_" gradientUnits="userSpaceOnUse" x1="148.7529" y1="-21.3184" x2="148.7529" y2="-41.4939" gradientTransform="matrix(0.75 0 0 0.75 -12.5312 33.2429)">
			<stop  offset="0" style="stop-color:#FFFFFF"/>
			<stop  offset="1" style="stop-color:#000000"/>
			<midPointStop  offset="0" style="stop-color:#FFFFFF"/>
			<midPointStop  offset="0.5" style="stop-color:#FFFFFF"/>
			<midPointStop  offset="1" style="stop-color:#000000"/>
		</linearGradient>
		<polygon style="fill:url(#XMLID_10_);" points="103.472,8.277 99.034,2.123 94.596,8.277 96.534,8.277 96.534,17.754 
			101.534,17.754 101.534,8.277 "/>
		<g>
			<text transform="matrix(1 0 0 1 240.1504 80.2783)"><tspan x="0" y="0" style="font-family:Liberation Sans; font-size:7.650000;">D</tspan></text>
		</g>
	</g>
</svg>
