<?xml version="1.0" encoding="iso-8859-1"?>
<!-- Generator: Adobe Illustrator 11 Build 196, SVG Export Plug-In . SVG Version: 6.0.0 Build 78)  -->
<!DOCTYPE svg PUBLIC "-//W3C//DTD SVG 1.0//EN"    "http://www.w3.org/TR/2001/REC-SVG-20010904/DTD/svg10.dtd" [
	<!ENTITY ns_flows "http://ns.adobe.com/Flows/1.0/">
	<!ENTITY ns_svg "http://www.w3.org/2000/svg">
	<!ENTITY ns_xlink "http://www.w3.org/1999/xlink">
]>
<svg  
	 width="178.436" height="174.105" viewBox="0 0 178.436 174.105"
	 style="overflow:visible;enable-background:new 0 0 178.436 174.105" xml:space="preserve">
	<style type="text/css">
	
	</style>
	<g id="Layer_1">
		<line style="fill:none;stroke:#000000;stroke-width:3;" x1="18.75" y1="0" x2="18.75" y2="160.5"/>
		
			<linearGradient id="XMLID_16_" gradientUnits="userSpaceOnUse" x1="-0.0835" y1="80.25" x2="37.4165" y2="80.25" gradientTransform="matrix(1 0 0 1 0.0833 0)">
			<stop  offset="0" style="stop-color:#AE8C78"/>
			<stop  offset="0.1046" style="stop-color:#B18F7C"/>
			<stop  offset="0.2184" style="stop-color:#B69989"/>
			<stop  offset="0.3366" style="stop-color:#BEA89C"/>
			<stop  offset="0.4577" style="stop-color:#C9BAB3"/>
			<stop  offset="0.5799" style="stop-color:#D8D0CD"/>
			<stop  offset="0.69" style="stop-color:#E5E5E5"/>
			<stop  offset="1" style="stop-color:#AE8C78"/>
			<midPointStop  offset="0" style="stop-color:#AE8C78"/>
			<midPointStop  offset="0.69" style="stop-color:#AE8C78"/>
			<midPointStop  offset="0.69" style="stop-color:#E5E5E5"/>
			<midPointStop  offset="0.5" style="stop-color:#E5E5E5"/>
			<midPointStop  offset="1" style="stop-color:#AE8C78"/>
		</linearGradient>
		<rect y="33.75" style="fill:url(#XMLID_16_);" width="37.5" height="93"/> 
		
			<linearGradient id="XMLID_17_" gradientUnits="userSpaceOnUse" x1="102.1665" y1="135.75" x2="139.6665" y2="135.75" gradientTransform="matrix(1 0 0 1 -102.1665 -28)">
			<stop  offset="0" style="stop-color:#EB0000"/>
			<stop  offset="0.0881" style="stop-color:#EB1F1F"/>
			<stop  offset="0.1839" style="stop-color:#EA4343"/>
			<stop  offset="0.2834" style="stop-color:#EA6363"/>
			<stop  offset="0.3855" style="stop-color:#E98585"/>
			<stop  offset="0.4895" style="stop-color:#E8A6A6"/>
			<stop  offset="0.5935" style="stop-color:#E6C7C7"/>
			<stop  offset="0.69" style="stop-color:#E5E5E5"/>
			<stop  offset="1" style="stop-color:#EB0000"/>
			<midPointStop  offset="0" style="stop-color:#EB0000"/>
			<midPointStop  offset="0.69" style="stop-color:#EB0000"/>
			<midPointStop  offset="0.69" style="stop-color:#E5E5E5"/>
			<midPointStop  offset="0.5" style="stop-color:#E5E5E5"/>
			<midPointStop  offset="1" style="stop-color:#EB0000"/>
		</linearGradient>
		<rect y="103.1" style="fill:url(#XMLID_17_);" width="37.5" height="9.301"/> 
		
			<linearGradient id="XMLID_18_" gradientUnits="userSpaceOnUse" x1="99.6665" y1="88.75" x2="137.1665" y2="88.75" gradientTransform="matrix(1 0 0 1 -99.6665 -20.6665)">
			<stop  offset="0" style="stop-color:#328ECA"/>
			<stop  offset="0.0905" style="stop-color:#3B91CB"/>
			<stop  offset="0.1888" style="stop-color:#5498CD"/>
			<stop  offset="0.291" style="stop-color:#6FA3D0"/>
			<stop  offset="0.3957" style="stop-color:#8EB2D4"/>
			<stop  offset="0.5025" style="stop-color:#AEC3D9"/>
			<stop  offset="0.6093" style="stop-color:#CDD6E0"/>
			<stop  offset="0.69" style="stop-color:#E5E5E5"/>
			<stop  offset="1" style="stop-color:#328ECA"/>
			<midPointStop  offset="0" style="stop-color:#328ECA"/>
			<midPointStop  offset="0.69" style="stop-color:#328ECA"/>
			<midPointStop  offset="0.69" style="stop-color:#E5E5E5"/>
			<midPointStop  offset="0.5" style="stop-color:#E5E5E5"/>
			<midPointStop  offset="1" style="stop-color:#328ECA"/>
		</linearGradient>
		<rect y="63.433" style="fill:url(#XMLID_18_);" width="37.5" height="9.301"/> 
		
			<linearGradient id="XMLID_19_" gradientUnits="userSpaceOnUse" x1="94.6665" y1="67.25" x2="132.1665" y2="67.25" gradientTransform="matrix(1 0 0 1 -94.6665 -19)">
			<stop  offset="0" style="stop-color:#ACACAC"/>
			<stop  offset="0.1095" style="stop-color:#B0B0B0"/>
			<stop  offset="0.2287" style="stop-color:#B9B9B9"/>
			<stop  offset="0.3524" style="stop-color:#C8C8C8"/>
			<stop  offset="0.4792" style="stop-color:#DADADA"/>
			<stop  offset="0.6071" style="stop-color:#F0F0F0"/>
			<stop  offset="0.69" style="stop-color:#FFFFFF"/>
			<stop  offset="1" style="stop-color:#ACACAC"/>
			<midPointStop  offset="0" style="stop-color:#ACACAC"/>
			<midPointStop  offset="0.69" style="stop-color:#ACACAC"/>
			<midPointStop  offset="0.69" style="stop-color:#FFFFFF"/>
			<midPointStop  offset="0.5" style="stop-color:#FFFFFF"/>
			<midPointStop  offset="1" style="stop-color:#ACACAC"/>
		</linearGradient>
		<rect y="43.6" style="fill:url(#XMLID_19_);" width="37.5" height="9.301"/> 
		
			<linearGradient id="XMLID_20_" gradientUnits="userSpaceOnUse" x1="96.6665" y1="106.25" x2="134.1665" y2="106.25" gradientTransform="matrix(1 0 0 1 -96.6665 -18.3335)">
			<stop  offset="0" style="stop-color:#83695A"/>
			<stop  offset="0.0964" style="stop-color:#876E5F"/>
			<stop  offset="0.2012" style="stop-color:#907B70"/>
			<stop  offset="0.31" style="stop-color:#9E8F86"/>
			<stop  offset="0.4216" style="stop-color:#B1A6A1"/>
			<stop  offset="0.5353" style="stop-color:#C6C0BD"/>
			<stop  offset="0.6492" style="stop-color:#DDDBDA"/>
			<stop  offset="0.69" style="stop-color:#E5E5E5"/>
			<stop  offset="1" style="stop-color:#83695A"/>
			<midPointStop  offset="0" style="stop-color:#83695A"/>
			<midPointStop  offset="0.69" style="stop-color:#83695A"/>
			<midPointStop  offset="0.69" style="stop-color:#E5E5E5"/>
			<midPointStop  offset="0.5" style="stop-color:#E5E5E5"/>
			<midPointStop  offset="1" style="stop-color:#83695A"/>
		</linearGradient>
		<rect y="83.266" style="fill:url(#XMLID_20_);" width="37.5" height="9.301"/> 
		<g>
			<text transform="matrix(1 0 0 1 45.1665 51.25)"><tspan x="0" y="0" style="font-family:Liberation Sans; font-size:7.650000;">silver</tspan></text>
		</g>
		<g>
			<text transform="matrix(1 0 0 1 45.1665 71.417)"><tspan x="0" y="0" style="font-family:Liberation Sans; font-size:7.650000;">blue</tspan></text>
		</g>
		<g>
			<text transform="matrix(1 0 0 1 45.1665 91.583)"><tspan x="0" y="0" style="font-family:Liberation Sans; font-size:7.650000;">brown</tspan></text>
		</g>
		<g>
			<text transform="matrix(1 0 0 1 45.1665 111.75)"><tspan x="0" y="0" style="font-family:Liberation Sans; font-size:7.650000;">red</tspan></text>
		</g>
		<g>
			<polyline style="fill:none;stroke:#000000;" points="73.167,109.75 88.167,109.75 88.167,131.25 "/>
			<path d="M88.167,134.268c-0.527-1.42-1.426-3.182-2.377-4.273l2.377,0.86l2.377-0.86
				C89.592,131.086,88.693,132.848,88.167,134.268z"/>
		</g>
		<g>
			<polyline style="fill:none;stroke:#000000;" points="72.667,68.25 137.167,68.25 137.167,131.25 "/>
			<path d="M137.167,134.268c-0.527-1.42-1.426-3.182-2.377-4.273l2.377,0.86l2.377-0.86
				C138.592,131.086,137.693,132.848,137.167,134.268z"/>
		</g>
		<g>
			<polyline style="fill:none;stroke:#000000;" points="72.667,49.75 163.167,49.75 163.167,131.25 "/>
			<path d="M163.167,134.268c-0.527-1.42-1.426-3.182-2.377-4.273l2.377,0.86l2.377-0.86
				C164.592,131.086,163.693,132.848,163.167,134.268z"/>
		</g>
		<g>
			<polyline style="fill:none;stroke:#000000;" points="72.667,89.25 110.167,89.25 110.167,131.25 "/>
			<path d="M110.167,134.268c-0.527-1.42-1.426-3.182-2.377-4.273l2.377,0.86l2.377-0.86
				C111.592,131.086,110.693,132.848,110.167,134.268z"/>
		</g>
		<g>
			<text transform="matrix(1 0 0 1 85.1665 146.75)"><tspan x="0" y="0" style="font-family:Liberation Sans; font-size:7.650000;">2</tspan></text>
		</g>
		<g>
			<text transform="matrix(1 0 0 1 108.1665 146.75)"><tspan x="0" y="0" style="font-family:Liberation Sans; font-size:7.650000;">1</tspan></text>
		</g>
		<g>
			<text transform="matrix(1 0 0 1 136.1665 145.25)"><tspan x="0" y="0" style="font-family:Liberation Sans; font-size:7.650000;">6</tspan></text>
		</g>
		<g>
			<g>
				<text transform="matrix(1 0 0 1 155.1665 145.75)"><tspan x="0" y="0" style="font-family:Liberation Sans; font-size:7.650000;">+10%</tspan></text>
			</g>
			<line style="fill:none;stroke:#000000;stroke-width:0.7;" x1="155.729" y1="145.812" x2="159.792" y2="145.812"/>
		</g>
		<g>
			<text transform="matrix(1 0 0 1 87.6665 168.75)"><tspan x="0" y="0" style="font-family:Liberation Sans; font-size:10.200000;">21x10</tspan></text>
			<text transform="matrix(1 0 0 1 120.3618 165.75)"><tspan x="0" y="0" style="font-family:Liberation Sans; font-size:7.650000;">6 </tspan></text>
			<text transform="matrix(1 0 0 1 127.8677 168.75)"><tspan x="0" y="0" style="font-family:'Symbol'; font-size:11;">&#x2126;</tspan></text>
			<text transform="matrix(1 0 0 1 136.3154 168.75)"><tspan x="0" y="0" style="font-family:Liberation Sans; font-size:10.200000;"> +10%</tspan></text>
		</g>
		<line style="fill:none;stroke:#000000;" x1="140.917" y1="168.75" x2="145.167" y2="168.75"/>
	</g>
</svg>
