<?xml version="1.0" encoding="UTF-8" standalone="no"?>
<!-- Generator: Adobe Illustrator 11 Build 196, SVG Export Plug-In . SVG Version: 6.0.0 Build 78)  -->
<svg
   xmlns:dc="http://purl.org/dc/elements/1.1/"
   xmlns:cc="http://web.resource.org/cc/"
   xmlns:rdf="http://www.w3.org/1999/02/22-rdf-syntax-ns#"
   xmlns:svg="http://www.w3.org/2000/svg"
   xmlns="http://www.w3.org/2000/svg"
   xmlns:sodipodi="http://inkscape.sourceforge.net/DTD/sodipodi-0.dtd"
   xmlns:inkscape="http://www.inkscape.org/namespaces/inkscape"
   width="47.984"
   height="67.583"
   viewBox="0 0 47.984 67.583"
   style="overflow:visible;enable-background:new 0 0 47.984 67.583"
   xml:space="preserve"
   id="svg2"
   sodipodi:version="0.32"
   sodipodi:docname="constant-voltage-areas.svg"
   sodipodi:docbase="/home/bcrowell/Documents/writing/books/physics/9share/em-dc"><metadata
   id="metadata38"><rdf:RDF><cc:Work
       rdf:about=""><dc:format>image/svg+xml</dc:format><dc:type
         rdf:resource="http://purl.org/dc/dcmitype/StillImage" /></cc:Work></rdf:RDF></metadata><defs
   id="defs36">
		
		
		
		
		 
		
		
		
		
		
		
		 
		
	</defs><sodipodi:namedview
   inkscape:cy="14.971496"
   inkscape:cx="43.762833"
   inkscape:zoom="4.6798888"
   inkscape:window-height="996"
   inkscape:window-width="1278"
   inkscape:pageshadow="2"
   inkscape:pageopacity="0.0"
   borderopacity="1.0"
   bordercolor="#666666"
   pagecolor="#ffffff"
   id="base"
   inkscape:window-x="0"
   inkscape:window-y="0"
   inkscape:current-layer="svg2" />
	<polygon
   id="polygon5"
   points="42.964000,12.154000 38.804000,12.154000 33.337000,12.154000 33.337000,16.904000 38.804000,16.904000 38.804000,39.966000 31.344000,39.966000 31.344000,44.716000 38.804000,44.716000 38.804000,58.674000 25.250000,58.674000 25.250000,63.277000 38.804000,63.277000 44.064000,63.277000 44.064000,58.674000 44.064000,12.154000 42.964000,12.154000 "
   style="fill:#696cff;fill-opacity:1.0000000" /><polygon
   id="polygon7"
   points="1.1000000,12.154000 5.2610000,12.154000 10.727000,12.154000 10.727000,16.904000 5.2610000,16.904000 5.2610000,39.966000 12.720000,39.966000 12.720000,44.716000 5.2610000,44.716000 5.2610000,58.674000 18.814000,58.674000 18.814000,63.277000 5.2610000,63.277000 0.0000000,63.277000 0.0000000,58.674000 0.0000000,12.154000 1.1000000,12.154000 "
   style="fill:#ff6985;fill-opacity:1.0000000" /><line
   id="line9"
   y2="41.965000"
   x2="7.3169999"
   y1="41.965000"
   x1="1.5670000"
   style="fill:none;stroke:#000000;stroke-miterlimit:1.0000000" /><g
   id="g11">
			<line
   id="line13"
   y2="64.083000"
   x2="20.740999"
   y1="57.083000"
   x1="20.740999"
   style="fill:none;stroke:#000000;stroke-miterlimit:1.0000000" />
			<line
   id="line15"
   y2="67.583000"
   x2="23.740999"
   y1="53.583000"
   x1="23.740999"
   style="fill:none;stroke:#000000;stroke-miterlimit:1.0000000" />
		</g><circle
   sodipodi:ry="7.7779999"
   sodipodi:rx="7.7779999"
   sodipodi:cy="35.778000"
   sodipodi:cx="21.657000"
   id="circle17"
   r="7.7779999"
   cy="35.778000"
   cx="21.657000"
   style="fill:none;stroke:#000000;stroke-miterlimit:1.0000000" /><path
   id="path19"
   d="M 6.9910000,41.944000 C 26.491000,41.944000 24.824000,33.444000 21.658000,33.444000 C 18.491000,33.444000 16.658000,42.111000 37.491000,42.111000"
   style="fill:none;stroke:#000000;stroke-miterlimit:1.0000000" /><polyline
   id="polyline21"
   points="37.491,42.111 41.192,42.028 41.192,60.583     23.692,60.583 "
   style="fill:none;stroke:#000000;stroke-miterlimit:1.0000000" /><polyline
   id="polyline23"
   points="20.192,60.583 1.942,60.583 1.942,42.028 "
   style="fill:none;stroke:#000000;stroke-miterlimit:1.0000000" /><polyline
   id="polyline25"
   points="1.942,42.028 1.942,14.278 7.088,14.278 "
   style="fill:none;stroke:#000000;stroke-miterlimit:1.0000000" /><polyline
   id="polyline27"
   points="37.526,14.278 41.192,14.278 41.192,42.028 "
   style="fill:none;stroke:#000000;stroke-miterlimit:1.0000000" /><line
   id="line29"
   y2="32.262001"
   x2="47.984001"
   y1="54.262001"
   x1="47.984001"
   style="fill:none" /><circle
   sodipodi:ry="7.7779999"
   sodipodi:rx="7.7779999"
   sodipodi:cy="8.2779999"
   sodipodi:cx="21.754999"
   id="circle31"
   r="7.7779999"
   cy="8.2779999"
   cx="21.754999"
   style="fill:#ffffff;stroke:#000000;stroke-miterlimit:1.0000000" /><path
   id="path33"
   d="M 6.9740000,14.102000 C 26.474000,14.102000 24.807000,5.6020000 21.641000,5.6020000 C 18.474000,5.6020000 16.641000,14.269000 37.474000,14.269000"
   style="fill:none;stroke:#000000;stroke-miterlimit:1.0000000" />
</svg>