<?xml version="1.0" encoding="UTF-8" standalone="no"?>
<!-- Created with Inkscape (http://www.inkscape.org/) -->

<svg
   xmlns:dc="http://purl.org/dc/elements/1.1/"
   xmlns:cc="http://creativecommons.org/ns#"
   xmlns:rdf="http://www.w3.org/1999/02/22-rdf-syntax-ns#"
   xmlns:svg="http://www.w3.org/2000/svg"
   xmlns="http://www.w3.org/2000/svg"
   xmlns:xlink="http://www.w3.org/1999/xlink"
   xmlns:sodipodi="http://sodipodi.sourceforge.net/DTD/sodipodi-0.dtd"
   xmlns:inkscape="http://www.inkscape.org/namespaces/inkscape"
   width="744.09448819"
   height="1052.3622047"
   id="svg3056"
   version="1.1"
   sodipodi:docname="doorknob.svg">
  <defs
     id="defs3058">
    <linearGradient
       id="linearGradient4013">
      <stop
         style="stop-color:#595959;stop-opacity:1;"
         offset="0"
         id="stop4015" />
      <stop
         id="stop4021"
         offset="0.5"
         style="stop-color:#2f2f2f;stop-opacity:0.49803922;" />
      <stop
         style="stop-color:#6f6f6f;stop-opacity:0;"
         offset="1"
         id="stop4017" />
    </linearGradient>
    <radialGradient
       inkscape:collect="always"
       xlink:href="#linearGradient4013-4"
       id="radialGradient4019-0"
       cx="335.772"
       cy="554.42139"
       fx="335.772"
       fy="554.42139"
       r="44.413418"
       gradientUnits="userSpaceOnUse" />
    <linearGradient
       id="linearGradient4013-4">
      <stop
         style="stop-color:#595959;stop-opacity:1;"
         offset="0"
         id="stop4015-4" />
      <stop
         id="stop4021-4"
         offset="0.5"
         style="stop-color:#2f2f2f;stop-opacity:0.49803922;" />
      <stop
         style="stop-color:#6f6f6f;stop-opacity:0;"
         offset="1"
         id="stop4017-2" />
    </linearGradient>
    <radialGradient
       inkscape:collect="always"
       xlink:href="#linearGradient4013"
       id="radialGradient3096"
       gradientUnits="userSpaceOnUse"
       cx="335.772"
       cy="554.42139"
       fx="335.772"
       fy="554.42139"
       r="44.413418" />
  </defs>
  <sodipodi:namedview
     id="base"
     pagecolor="#ffffff"
     bordercolor="#666666"
     borderopacity="1.0"
     inkscape:pageopacity="0.0"
     inkscape:pageshadow="2"
     inkscape:zoom="1.145614"
     inkscape:cx="179.17378"
     inkscape:cy="480.64732"
     inkscape:document-units="mm"
     inkscape:current-layer="layer1"
     showgrid="false"
     inkscape:window-width="1280"
     inkscape:window-height="998"
     inkscape:window-x="0"
     inkscape:window-y="0"
     inkscape:window-maximized="1" />
  <metadata
     id="metadata3061">
    <rdf:RDF>
      <cc:Work
         rdf:about="">
        <dc:format>image/svg+xml</dc:format>
        <dc:type
           rdf:resource="http://purl.org/dc/dcmitype/StillImage" />
      </cc:Work>
    </rdf:RDF>
  </metadata>
  <g
     inkscape:label="Layer 1"
     inkscape:groupmode="layer"
     id="layer1">
    <g
       id="g3207">
      <rect
         y="376.83963"
         x="-88.947372"
         height="107.88548"
         width="148.4633"
         id="rect4009"
         style="fill:#dedede;fill-opacity:1;stroke:none" />
      <g
         transform="translate(-427.48992,-51.833416)"
         id="g3993">
        <path
           id="path601-6"
           d="m 368.47472,469.29695 c 0.45648,1.63879 1.28438,3.45438 1.70536,4.57843 0.42226,1.12375 1.27128,2.67311 1.94467,4.17534 0.67339,1.50225 1.37494,2.03953 0.53676,3.45044 -0.8369,1.41063 -0.68943,2.42272 -0.97225,3.35855 -0.19798,0.65508 -0.86022,1.58486 -1.53332,1.91383 0,0 -7.80296,1.43321 -8.33239,1.29241"
           style="fill:#6f6f6f;fill-opacity:1;stroke:none"
           inkscape:connector-curvature="0" />
        <path
           id="path603-2"
           d="m 364.30624,474.25508 c 0.86564,1.98128 1.80677,4.29391 2.38227,5.7313 0.5755,1.43741 1.81256,3.59548 1.78439,4.56044 -0.0282,0.96495 -1.27775,2.38247 -2.38016,2.63362 -1.10241,0.25117 -2.45242,-0.22552 -3.12933,-1.37839 -0.67691,-1.15289 -1.5355,-3.83288 -1.5355,-3.83288"
           style="fill:#6f6f6f;fill-opacity:1;stroke:none"
           inkscape:connector-curvature="0" />
        <path
           id="path605-5"
           d="m 363.17806,486.01456 c -0.99494,1.44662 -2.22917,3.29634 -3.73945,3.20473 -1.5103,-0.0916 -2.08932,-1.17965 -2.96553,-2.11283 -0.10266,-0.10933 -0.21705,-0.21736 -0.34169,-0.32302"
           style="fill:#6f6f6f;fill-opacity:1;stroke:none"
           inkscape:connector-curvature="0" />
        <path
           id="path607-8"
           d="m 355.75942,483.60919 c -0.2086,1.26747 -0.47254,2.28615 -0.47254,2.28615"
           style="fill:#6f6f6f;fill-opacity:1;stroke:none"
           inkscape:connector-curvature="0" />
        <path
           id="path609-1"
           d="m 359.61986,475.84561 c 1.13312,0.61325 2.21562,2.458 1.8503,3.76116"
           style="fill:#6f6f6f;fill-opacity:1;stroke:none"
           inkscape:connector-curvature="0" />
        <path
           id="path611-4"
           d="m 361.35481,470.74479 c 1.94184,0.16757 2.86058,2.74673 2.86058,2.74673"
           style="fill:#6f6f6f;fill-opacity:1;stroke:none"
           inkscape:connector-curvature="0" />
        <path
           id="path613-3"
           d="m 359.01915,470.66695 c -2.73523,0.71032 -3.38369,0.77091 -3.38369,0.77091"
           style="fill:#6f6f6f;fill-opacity:1;stroke:none"
           inkscape:connector-curvature="0" />
        <path
           id="path619-5"
           d="m 354.42025,486.09278 c -2.24129,0.33636 -12.16645,-0.71371 -12.5532,-1.32271"
           style="fill:#6f6f6f;fill-opacity:1;stroke:none"
           inkscape:connector-curvature="0" />
        <path
           id="path621-2"
           d="m 348.12963,480.64194 c 0,0 5.37568,4.70075 6.66682,5.27799"
           style="fill:#6f6f6f;fill-opacity:1;stroke:none"
           inkscape:connector-curvature="0" />
        <path
           id="path623-8"
           d="m 372.14644,482.14135 c -0.71211,0.5108 -4.02862,0.48214 -4.32229,0.28763"
           style="fill:#6f6f6f;fill-opacity:1;stroke:none"
           inkscape:connector-curvature="0" />
        <path
           style="color:#000000;fill:#6f6f6f;fill-opacity:1;stroke:none;stroke-width:0.75;marker:none;visibility:visible;display:inline;overflow:visible;enable-background:accumulate"
           d="m 340.94458,468.93298 10.5288,-1.30254 7.27247,-1.41107 4.01614,-0.32564 5.96994,-0.86835 c 0,0 3.14779,-0.10855 4.45032,0 1.30253,0.10854 1.9538,0.10854 1.9538,0.10854"
           id="path3110-6"
           inkscape:connector-curvature="0" />
        <path
           style="color:#000000;fill:#6f6f6f;fill-opacity:1;stroke:none;stroke-width:0.75;marker:none;visibility:visible;display:inline;overflow:visible;enable-background:accumulate"
           d="m 374.2083,465.14601 c 1.35268,-0.0633 2.41956,0.2514 3.77004,0.21288 0.65134,0.1248 1.54912,0.0402 2.20724,0.0944 0.86851,-0.0152 1.54122,-0.0755 2.39703,0.0547 0.99926,0.3829 1.62969,0.85266 2.47194,1.05152 1.60776,0.51664 3.28713,0.95556 4.83408,1.5139 1.0579,0.67143 1.82294,1.42517 2.78752,2.05902 0.70807,0.41019 1.41615,0.82037 2.12422,1.23056 -0.11935,0.38732 -0.16757,0.81714 -0.33004,1.1787 -0.51993,0.47777 -0.89903,0.44741 -1.61186,0.79659 -0.99612,0.10387 -1.32726,0.10957 -2.34018,-0.053 -0.63669,-0.21309 -1.49542,-0.60731 -1.98702,-0.8713 -0.62996,-0.16875 -1.64476,-0.17566 -2.31304,-0.36865 -1.28108,-0.31098 -2.45151,-0.20418 -3.71858,-0.55423 -0.44931,-0.20154 -0.88478,-0.48716 -1.34253,-0.63739 -1.32376,0.17144 -2.30277,0.22091 -3.62592,0.36417 -1.01611,-0.18592 -1.89925,0.006 -2.91536,-0.18015 -1.00993,0.15955 -1.55322,0.31746 -2.5196,0.18611 -1.50065,-0.39135 -2.56832,-0.54839 -3.0689,-0.92826"
           id="path3880-8"
           inkscape:connector-curvature="0"
           sodipodi:nodetypes="ccccccccccccccccccc" />
        <path
           style="color:#000000;fill:#6f6f6f;fill-opacity:1;stroke:none;stroke-width:0.75;marker:none;visibility:visible;display:inline;overflow:visible;enable-background:accumulate"
           d="m 394.2094,472.55558 c -1.7039,-0.61083 -2.47548,-1.63961 -2.47548,-1.63961 l 0.0964,-1.09307"
           id="path3885-8"
           inkscape:connector-curvature="0" />
        <path
           style="color:#000000;fill:#6f6f6f;fill-opacity:1;stroke:none;stroke-width:0.875;marker:none;visibility:visible;display:inline;overflow:visible;enable-background:accumulate"
           d="m 341.20362,469.01115 0.90052,16.02909 7.29413,0.90051 5.58317,0.27016 2.34133,1.62092 8.2847,-0.90052 3.15179,-15.75894 5.40307,-4.14235 0.81046,-1.80102 -5.67322,-0.1801 -10.80613,1.44081 -7.38419,0.99057 -7.29414,1.17066 z"
           id="path3972"
           inkscape:connector-curvature="0" />
      </g>
      <g
         transform="translate(-443.64679,-109.39225)"
         id="g3887">
        <path
           id="path601"
           d="m 384.42393,526.93737 c 0.45648,1.63879 1.28438,3.45438 1.70536,4.57843 0.42226,1.12375 1.27128,2.67311 1.94467,4.17534 0.67339,1.50225 1.37494,2.03953 0.53676,3.45044 -0.8369,1.41063 -0.68943,2.42272 -0.97225,3.35855 -0.19798,0.65508 -0.86022,1.58486 -1.53332,1.91383 0,0 -7.80296,1.43321 -8.33239,1.29241"
           style="fill:none;stroke:#000000;stroke-width:0.75;stroke-miterlimit:4;stroke-dasharray:none"
           inkscape:connector-curvature="0" />
        <path
           id="path603"
           d="m 380.25545,531.8955 c 0.86564,1.98128 1.80677,4.29391 2.38227,5.7313 0.5755,1.43741 1.81256,3.59548 1.78439,4.56044 -0.0282,0.96495 -1.27775,2.38247 -2.38016,2.63362 -1.10241,0.25117 -2.45242,-0.22552 -3.12933,-1.37839 -0.67691,-1.15289 -1.5355,-3.83288 -1.5355,-3.83288"
           style="fill:none;stroke:#000000;stroke-width:0.75;stroke-miterlimit:4;stroke-dasharray:none"
           inkscape:connector-curvature="0" />
        <path
           id="path605"
           d="m 379.12727,543.65498 c -0.99494,1.44662 -2.22917,3.29634 -3.73945,3.20473 -1.5103,-0.0916 -2.08932,-1.17965 -2.96553,-2.11283 -0.10266,-0.10933 -0.21705,-0.21736 -0.34169,-0.32302"
           style="fill:none;stroke:#000000;stroke-width:0.75;stroke-miterlimit:4;stroke-dasharray:none"
           inkscape:connector-curvature="0" />
        <path
           id="path607"
           d="m 371.70863,541.24961 c -0.2086,1.26747 -0.47254,2.28615 -0.47254,2.28615"
           style="fill:none;stroke:#000000;stroke-width:0.75;stroke-miterlimit:4;stroke-dasharray:none"
           inkscape:connector-curvature="0" />
        <path
           id="path609"
           d="m 375.56907,533.48603 c 1.13312,0.61325 2.21562,2.458 1.8503,3.76116"
           style="fill:none;stroke:#000000;stroke-width:0.75;stroke-miterlimit:4;stroke-dasharray:none"
           inkscape:connector-curvature="0" />
        <path
           id="path611"
           d="m 377.30402,528.38521 c 1.94184,0.16757 2.86058,2.74673 2.86058,2.74673"
           style="fill:none;stroke:#000000;stroke-width:0.75;stroke-miterlimit:4;stroke-dasharray:none"
           inkscape:connector-curvature="0" />
        <path
           id="path613"
           d="m 374.96836,528.30737 c -2.73523,0.71032 -3.38369,0.77091 -3.38369,0.77091"
           style="fill:none;stroke:#000000;stroke-width:0.75;stroke-miterlimit:4;stroke-dasharray:none"
           inkscape:connector-curvature="0" />
        <path
           id="path619"
           d="m 370.36946,543.7332 c -2.24129,0.33636 -12.16645,-0.71371 -12.5532,-1.32271"
           style="fill:none;stroke:#000000;stroke-width:0.75;stroke-miterlimit:4;stroke-dasharray:none"
           inkscape:connector-curvature="0" />
        <path
           id="path621"
           d="m 364.07884,538.28236 c 0,0 5.37568,4.70075 6.66682,5.27799"
           style="fill:none;stroke:#000000;stroke-width:0.75;stroke-miterlimit:4;stroke-dasharray:none"
           inkscape:connector-curvature="0" />
        <path
           id="path623"
           d="m 388.09565,539.78177 c -0.71211,0.5108 -4.02862,0.48214 -4.32229,0.28763"
           style="fill:none;stroke:#000000;stroke-width:0.75;stroke-miterlimit:4;stroke-dasharray:none"
           inkscape:connector-curvature="0" />
        <path
           style="color:#000000;fill:none;stroke:#000000;stroke-width:0.75;stroke-linecap:butt;stroke-linejoin:miter;stroke-miterlimit:4;stroke-opacity:1;stroke-dasharray:none;stroke-dashoffset:0;marker:none;visibility:visible;display:inline;overflow:visible;enable-background:accumulate"
           d="m 356.89379,526.5734 10.5288,-1.30254 7.27247,-1.41107 4.01614,-0.32564 5.96994,-0.86835 c 0,0 3.14779,-0.10855 4.45032,0 1.30253,0.10854 1.9538,0.10854 1.9538,0.10854"
           id="path3110"
           inkscape:connector-curvature="0" />
        <path
           style="color:#000000;fill:none;stroke:#000000;stroke-width:0.75;stroke-linecap:butt;stroke-linejoin:miter;stroke-miterlimit:4;stroke-opacity:1;stroke-dasharray:none;stroke-dashoffset:0;marker:none;visibility:visible;display:inline;overflow:visible;enable-background:accumulate"
           d="m 390.15751,522.78643 c 1.35268,-0.0633 2.41956,0.2514 3.77004,0.21288 0.65134,0.1248 1.54912,0.0402 2.20724,0.0944 0.86851,-0.0152 1.54122,-0.0755 2.39703,0.0547 0.99926,0.3829 1.62969,0.85266 2.47194,1.05152 1.60776,0.51664 3.28713,0.95556 4.83408,1.5139 1.0579,0.67143 1.82294,1.42517 2.78752,2.05902 0.70807,0.41019 1.41615,0.82037 2.12422,1.23056 -0.11935,0.38732 -0.16757,0.81714 -0.33004,1.1787 -0.51993,0.47777 -0.89903,0.44741 -1.61186,0.79659 -0.99612,0.10387 -1.32726,0.10957 -2.34018,-0.053 -0.63669,-0.21309 -1.49542,-0.60731 -1.98702,-0.8713 -0.62996,-0.16875 -1.64476,-0.17566 -2.31304,-0.36865 -1.28108,-0.31098 -2.45151,-0.20418 -3.71858,-0.55423 -0.44931,-0.20154 -0.88478,-0.48716 -1.34253,-0.63739 -1.32376,0.17144 -2.30277,0.22091 -3.62592,0.36417 -1.01611,-0.18592 -1.89925,0.006 -2.91536,-0.18015 -1.00993,0.15955 -1.55322,0.31746 -2.5196,0.18611 -1.50065,-0.39135 -2.56832,-0.54839 -3.0689,-0.92826"
           id="path3880"
           inkscape:connector-curvature="0"
           sodipodi:nodetypes="ccccccccccccccccccc" />
        <path
           style="color:#000000;fill:none;stroke:#000000;stroke-width:0.75;stroke-linecap:butt;stroke-linejoin:miter;stroke-miterlimit:4;stroke-opacity:1;stroke-dasharray:none;stroke-dashoffset:0;marker:none;visibility:visible;display:inline;overflow:visible;enable-background:accumulate"
           d="m 410.15861,530.196 c -1.7039,-0.61083 -2.47548,-1.63961 -2.47548,-1.63961 l 0.0964,-1.09307"
           id="path3885"
           inkscape:connector-curvature="0" />
      </g>
      <path
         transform="translate(-366.53054,-132.24151)"
         d="m 419.8551,565.74438 a 43.913418,43.913418 0 1 1 -87.82684,0 43.913418,43.913418 0 1 1 87.82684,0 z"
         sodipodi:ry="43.913418"
         sodipodi:rx="43.913418"
         sodipodi:cy="565.74438"
         sodipodi:cx="375.94168"
         id="path4011"
         style="color:#000000;fill:url(#radialGradient3096);fill-opacity:1;stroke:#000000;stroke-width:1;stroke-linecap:butt;stroke-linejoin:miter;stroke-miterlimit:4;stroke-opacity:1;stroke-dasharray:none;stroke-dashoffset:0;marker:none;visibility:visible;display:inline;overflow:visible;enable-background:accumulate"
         sodipodi:type="arc" />
      <text
         sodipodi:linespacing="125%"
         id="text4078"
         y="390.66547"
         x="-78.017891"
         style="font-size:10px;font-style:normal;font-variant:normal;font-weight:normal;font-stretch:normal;text-indent:0;text-align:start;text-decoration:none;line-height:125%;letter-spacing:0px;word-spacing:0px;text-transform:none;direction:ltr;block-progression:tb;writing-mode:lr-tb;text-anchor:start;baseline-shift:baseline;color:#000000;fill:#000000;fill-opacity:1;fill-rule:nonzero;stroke:none;stroke-width:1px;marker:none;visibility:visible;display:inline;overflow:visible;enable-background:accumulate;font-family:FreeSans;-inkscape-font-specification:FreeSans"
         xml:space="preserve"><tspan
           y="390.66547"
           x="-78.017891"
           id="tspan4080"
           sodipodi:role="line">1</tspan></text>
    </g>
    <g
       id="g3242"
       transform="translate(-21.265114,0)">
      <rect
         y="376.83963"
         x="97.908485"
         height="107.88548"
         width="103.94569"
         id="rect4009-0"
         style="fill:#dedede;fill-opacity:1;stroke:none" />
      <path
         transform="translate(-226.42892,-137.2496)"
         d="m 419.8551,565.74438 c 0,24.25272 -19.66071,43.91342 -43.91342,43.91342 -24.25271,0 -43.91342,-19.6607 -43.91342,-43.91342 0,-24.25271 19.66071,-43.91341 43.91342,-43.91341 24.25271,0 43.91342,19.6607 43.91342,43.91341 z"
         sodipodi:ry="43.913418"
         sodipodi:rx="43.913418"
         sodipodi:cy="565.74438"
         sodipodi:cx="375.94168"
         id="path4011-9"
         style="color:#000000;fill:#9e9e9e;fill-opacity:1;stroke:#000000;stroke-width:1;stroke-linecap:butt;stroke-linejoin:miter;stroke-miterlimit:4;stroke-opacity:1;stroke-dasharray:none;stroke-dashoffset:0;marker:none;visibility:visible;display:inline;overflow:visible;enable-background:accumulate"
         sodipodi:type="arc" />
      <text
         sodipodi:linespacing="125%"
         id="text4082"
         y="390.66547"
         x="105.56715"
         style="font-size:10px;font-style:normal;font-variant:normal;font-weight:normal;font-stretch:normal;text-indent:0;text-align:start;text-decoration:none;line-height:125%;letter-spacing:0px;word-spacing:0px;text-transform:none;direction:ltr;block-progression:tb;writing-mode:lr-tb;text-anchor:start;baseline-shift:baseline;color:#000000;fill:#000000;fill-opacity:1;fill-rule:nonzero;stroke:none;stroke-width:1px;marker:none;visibility:visible;display:inline;overflow:visible;enable-background:accumulate;font-family:FreeSans;-inkscape-font-specification:FreeSans"
         xml:space="preserve"><tspan
           y="390.66547"
           x="105.56715"
           id="tspan4084"
           sodipodi:role="line">2</tspan></text>
    </g>
    <g
       id="g3248"
       transform="translate(-35.547104,0)">
      <rect
         y="376.83963"
         x="233.2636"
         height="107.88548"
         width="113.54753"
         id="rect4009-0-9"
         style="fill:#dedede;fill-opacity:1;stroke:none" />
      <path
         transform="translate(-79.726199,-132.01223)"
         d="m 419.8551,565.74438 c 0,24.25272 -19.66071,43.91342 -43.91342,43.91342 -24.25271,0 -43.91342,-19.6607 -43.91342,-43.91342 0,-24.25271 19.66071,-43.91341 43.91342,-43.91341 24.25271,0 43.91342,19.6607 43.91342,43.91341 z"
         sodipodi:ry="43.913418"
         sodipodi:rx="43.913418"
         sodipodi:cy="565.74438"
         sodipodi:cx="375.94168"
         id="path4011-9-5"
         style="color:#000000;fill:#9e9e9e;fill-opacity:1;stroke:#000000;stroke-width:1;stroke-linecap:butt;stroke-linejoin:miter;stroke-miterlimit:4;stroke-opacity:1;stroke-dasharray:none;stroke-dashoffset:0;marker:none;visibility:visible;display:inline;overflow:visible;enable-background:accumulate"
         sodipodi:type="arc" />
      <text
         sodipodi:linespacing="125%"
         id="text4082-9"
         y="390.66547"
         x="241.79515"
         style="font-size:10px;font-style:normal;font-variant:normal;font-weight:normal;font-stretch:normal;text-indent:0;text-align:start;text-decoration:none;line-height:125%;letter-spacing:0px;word-spacing:0px;text-transform:none;direction:ltr;block-progression:tb;writing-mode:lr-tb;text-anchor:start;baseline-shift:baseline;color:#000000;fill:#000000;fill-opacity:1;fill-rule:nonzero;stroke:none;stroke-width:1px;marker:none;visibility:visible;display:inline;overflow:visible;enable-background:accumulate;font-family:FreeSans;-inkscape-font-specification:FreeSans"
         xml:space="preserve"><tspan
           y="390.66547"
           x="241.79515"
           id="tspan4084-1"
           sodipodi:role="line">3</tspan></text>
      <rect
         transform="matrix(0.7619573,-0.64762727,0.64762727,0.7619573,0,0)"
         x="-79.491005"
         y="467.57376"
         style="fill:#dcdcdc;stroke:#000000;stroke-width:0.74731457;stroke-linejoin:round"
         width="32.283989"
         height="29.693798"
         id="rect301" />
      <circle
         transform="matrix(1.1388435,-0.9679625,0.9679625,1.1388435,-93.789398,200.01923)"
         sodipodi:ry="1.296"
         sodipodi:rx="1.296"
         sodipodi:cy="270.90799"
         sodipodi:cx="82.331001"
         id="circle305"
         r="1.296"
         cy="270.90799"
         cx="82.331001"
         style="fill:#ffffff;stroke:#000000;stroke-width:0.5;stroke-linejoin:round"
         d="m 83.627001,270.90799 c 0,0.71576 -0.580239,1.296 -1.296,1.296 -0.715761,0 -1.296,-0.58024 -1.296,-1.296 0,-0.71576 0.580239,-1.296 1.296,-1.296 0.715761,0 1.296,0.58024 1.296,1.296 z" />
      <circle
         transform="matrix(1.1388435,-0.9679625,0.9679625,1.1388435,-93.789398,200.01923)"
         sodipodi:ry="1.296"
         sodipodi:rx="1.296"
         sodipodi:cy="270.909"
         sodipodi:cx="101.445"
         id="circle307"
         r="1.296"
         cy="270.909"
         cx="101.445"
         style="fill:#ffffff;stroke:#000000;stroke-width:0.5;stroke-linejoin:round"
         d="m 102.741,270.909 c 0,0.71576 -0.58024,1.296 -1.296,1.296 -0.71576,0 -1.296,-0.58024 -1.296,-1.296 0,-0.71576 0.58024,-1.296 1.296,-1.296 0.71576,0 1.296,0.58024 1.296,1.296 z" />
      <path
         style="fill:none;stroke:#000000;stroke-width:4.48388767;stroke-linejoin:round;stroke-miterlimit:1;stroke-opacity:1"
         d="m 286.42459,410.57594 c 5.88347,1.7687 18.42318,7.30916 27.53338,19.18158"
         id="path309"
         inkscape:connector-curvature="0" />
      <path
         style="fill:none;stroke:#000000;stroke-width:4.48388767;stroke-linejoin:round;stroke-opacity:1"
         d="m 260.72567,430.10219 c -2.7456,9.07748 9.22222,19.43319 18.19547,29.73898"
         id="path311"
         inkscape:connector-curvature="0" />
      <path
         style="fill:#ffffff"
         d="m 272.56905,404.27665 c 1.78229,-1.51487 1.99915,-4.1884 0.48331,-5.97183 l -3.54661,-4.17272 c -1.51487,-1.78229 -4.1884,-1.99914 -5.97069,-0.48427 l -14.04194,11.93498 c -1.78343,1.51583 -2.00027,4.18936 -0.48541,5.97165 l 3.54662,4.17272 c 1.51583,1.78343 4.18936,2.00028 5.97279,0.48445 l 14.04193,-11.93498 z"
         id="path359"
         inkscape:connector-curvature="0" />
      <g
         transform="matrix(0.7619573,-0.64762727,0.64762727,0.7619573,-0.69879892,188.50215)"
         id="g3966">
        <polygon
           points="91.74,255.347 91.74,255.347 91.74,255.347 91.435,255.847 91.435,256.637 91.435,256.638 91.435,257.429 91.74,257.928 91.74,257.929 91.74,257.929 91.74,257.929 91.74,257.928 92.044,257.429 92.044,256.638 92.044,256.637 92.044,255.847 91.74,255.347 91.74,255.347 91.74,255.347 "
           id="polygon405"
           transform="matrix(1.494629,0,0,1.494629,-78.642598,-51.495648)" />
        <polygon
           points="91.74,258.131 91.74,258.13 91.74,258.131 91.435,258.63 91.435,259.421 91.435,259.422 91.435,260.213 91.74,260.712 91.74,260.713 91.74,260.713 91.74,260.713 91.74,260.712 92.044,260.213 92.044,259.422 92.044,259.421 92.044,258.63 91.74,258.131 91.74,258.131 91.74,258.13 "
           id="polygon407"
           transform="matrix(1.494629,0,0,1.494629,-78.642598,-51.495648)" />
        <polygon
           points="91.981,255.288 91.981,255.288 91.982,255.288 92.481,255.592 93.272,255.592 93.273,255.592 94.064,255.592 94.563,255.288 94.564,255.288 94.563,255.288 94.564,255.288 94.563,255.288 94.064,254.983 93.273,254.983 93.272,254.983 92.481,254.983 91.982,255.288 91.982,255.288 91.981,255.288 "
           id="polygon409"
           transform="matrix(1.494629,0,0,1.494629,-78.642598,-51.495648)" />
        <polygon
           points="91.981,260.772 91.981,260.772 91.982,260.772 92.481,261.076 93.272,261.076 93.273,261.076 94.064,261.076 94.563,260.772 94.564,260.772 94.563,260.772 94.564,260.771 94.563,260.771 94.064,260.467 93.273,260.467 93.272,260.467 92.481,260.467 91.982,260.771 91.982,260.771 91.981,260.771 "
           id="polygon411"
           transform="matrix(1.494629,0,0,1.494629,-78.642598,-51.495648)" />
        <polygon
           points="94.806,255.338 94.806,255.338 94.806,255.339 94.501,255.838 94.501,256.629 94.501,256.63 94.501,257.421 94.806,257.92 94.806,257.921 94.806,257.92 94.806,257.921 94.806,257.92 95.11,257.421 95.11,256.63 95.11,256.629 95.11,255.838 94.806,255.339 94.806,255.339 94.806,255.338 "
           id="polygon413"
           transform="matrix(1.494629,0,0,1.494629,-78.642598,-51.495648)" />
        <polygon
           points="94.806,258.123 94.806,258.123 94.806,258.123 94.501,258.623 94.501,259.413 94.501,259.414 94.501,260.205 94.806,260.705 94.806,260.705 94.806,260.705 94.806,260.705 94.806,260.705 95.11,260.205 95.11,259.414 95.11,259.413 95.11,258.623 94.806,258.123 94.806,258.123 94.806,258.123 "
           id="polygon415"
           transform="matrix(1.494629,0,0,1.494629,-78.642598,-51.495648)" />
      </g>
      <g
         transform="matrix(0.7619573,-0.64762727,0.64762727,0.7619573,-0.50620192,188.33845)"
         id="g3974">
        <polygon
           points="96.178,255.347 96.178,255.347 96.178,255.347 96.178,255.347 95.874,255.847 95.874,256.637 95.874,256.638 95.874,257.429 96.178,257.928 96.178,257.929 96.178,257.929 96.178,257.929 96.178,257.928 96.482,257.429 96.482,256.638 96.482,256.637 96.482,255.847 96.178,255.347 96.178,255.347 "
           id="polygon417"
           transform="matrix(1.494629,0,0,1.494629,-78.642598,-51.495648)" />
        <polygon
           points="96.178,258.13 96.178,258.131 96.178,258.13 96.178,258.131 95.874,258.63 95.874,259.421 95.874,259.422 95.874,260.213 96.178,260.712 96.178,260.713 96.178,260.713 96.178,260.713 96.178,260.712 96.482,260.213 96.482,259.422 96.482,259.421 96.482,258.63 96.178,258.131 96.178,258.131 "
           id="polygon419"
           transform="matrix(1.494629,0,0,1.494629,-78.642598,-51.495648)" />
        <polygon
           points="96.42,255.288 96.42,255.288 96.42,255.288 96.42,255.288 96.92,255.592 97.71,255.592 97.711,255.592 98.502,255.592 99.001,255.288 99.002,255.288 99.002,255.288 99.002,255.288 99.001,255.288 98.502,254.983 97.711,254.983 97.71,254.983 96.92,254.983 96.42,255.288 96.42,255.288 "
           id="polygon421"
           transform="matrix(1.494629,0,0,1.494629,-78.642598,-51.495648)" />
        <polygon
           points="96.42,260.771 96.42,260.772 96.42,260.772 96.42,260.772 96.92,261.076 97.71,261.076 97.711,261.076 98.502,261.076 99.001,260.772 99.002,260.772 99.002,260.772 99.002,260.771 99.001,260.771 98.502,260.467 97.711,260.467 97.71,260.467 96.92,260.467 96.42,260.771 96.42,260.771 "
           id="polygon423"
           transform="matrix(1.494629,0,0,1.494629,-78.642598,-51.495648)" />
        <polygon
           points="99.244,255.338 99.244,255.338 99.244,255.338 99.244,255.339 98.939,255.838 98.939,256.629 98.939,256.63 98.939,257.421 99.244,257.92 99.244,257.921 99.244,257.92 99.244,257.921 99.244,257.92 99.548,257.421 99.548,256.63 99.548,256.629 99.548,255.838 99.244,255.339 99.244,255.339 "
           id="polygon425"
           transform="matrix(1.494629,0,0,1.494629,-78.642598,-51.495648)" />
        <polygon
           points="99.244,258.123 99.244,258.123 99.244,258.123 99.244,258.123 98.939,258.623 98.939,259.413 98.939,259.414 98.939,260.205 99.244,260.705 99.244,260.705 99.244,260.705 99.244,260.705 99.244,260.705 99.548,260.205 99.548,259.414 99.548,259.413 99.548,258.623 99.244,258.123 99.244,258.123 "
           id="polygon427"
           transform="matrix(1.494629,0,0,1.494629,-78.642598,-51.495648)" />
      </g>
      <circle
         transform="matrix(1.1388435,-0.9679625,0.9679625,1.1388435,-93.789398,200.01923)"
         sodipodi:ry="0.42399999"
         sodipodi:rx="0.42399999"
         sodipodi:cy="261.11801"
         sodipodi:cx="90.938004"
         id="circle429"
         r="0.42399999"
         cy="261.11801"
         cx="90.938004"
         d="m 91.362004,261.11801 c 0,0.23417 -0.189832,0.424 -0.424,0.424 -0.234169,0 -0.424,-0.18983 -0.424,-0.424 0,-0.23417 0.189831,-0.424 0.424,-0.424 0.234168,0 0.424,0.18983 0.424,0.424 z" />
      <g
         transform="matrix(0.7619573,-0.64762727,0.64762727,0.7619573,-0.52801792,188.31279)"
         id="g3958">
        <polygon
           points="91.435,257.429 91.74,257.928 91.74,257.929 91.74,257.929 91.74,257.929 91.74,257.928 92.044,257.429 92.044,256.638 92.044,256.637 92.044,255.847 91.74,255.347 91.74,255.347 91.74,255.347 91.74,255.347 91.74,255.347 91.74,255.347 91.435,255.847 91.435,256.637 91.435,256.638 "
           id="polygon405-0"
           transform="matrix(1.494629,0,0,1.494629,-85.782036,-51.461963)" />
        <polygon
           points="91.435,260.213 91.74,260.712 91.74,260.713 91.74,260.713 91.74,260.713 91.74,260.712 92.044,260.213 92.044,259.422 92.044,259.421 92.044,258.63 91.74,258.131 91.74,258.131 91.74,258.13 91.74,258.131 91.74,258.13 91.74,258.131 91.435,258.63 91.435,259.421 91.435,259.422 "
           id="polygon407-1"
           transform="matrix(1.494629,0,0,1.494629,-85.782036,-51.461963)" />
        <polygon
           points="94.064,255.592 94.563,255.288 94.564,255.288 94.563,255.288 94.564,255.288 94.563,255.288 94.064,254.983 93.273,254.983 93.272,254.983 92.481,254.983 91.982,255.288 91.982,255.288 91.981,255.288 91.981,255.288 91.981,255.288 91.982,255.288 92.481,255.592 93.272,255.592 93.273,255.592 "
           id="polygon409-8"
           transform="matrix(1.494629,0,0,1.494629,-85.782036,-51.461963)" />
        <polygon
           points="94.064,261.076 94.563,260.772 94.564,260.772 94.563,260.772 94.564,260.771 94.563,260.771 94.064,260.467 93.273,260.467 93.272,260.467 92.481,260.467 91.982,260.771 91.982,260.771 91.981,260.771 91.981,260.772 91.981,260.772 91.982,260.772 92.481,261.076 93.272,261.076 93.273,261.076 "
           id="polygon411-3"
           transform="matrix(1.494629,0,0,1.494629,-85.782036,-51.461963)" />
        <polygon
           points="94.501,257.421 94.806,257.92 94.806,257.921 94.806,257.92 94.806,257.921 94.806,257.92 95.11,257.421 95.11,256.63 95.11,256.629 95.11,255.838 94.806,255.339 94.806,255.339 94.806,255.338 94.806,255.338 94.806,255.338 94.806,255.339 94.501,255.838 94.501,256.629 94.501,256.63 "
           id="polygon413-1"
           transform="matrix(1.494629,0,0,1.494629,-85.782036,-51.461963)" />
        <polygon
           points="94.501,260.205 94.806,260.705 94.806,260.705 94.806,260.705 94.806,260.705 94.806,260.705 95.11,260.205 95.11,259.414 95.11,259.413 95.11,258.623 94.806,258.123 94.806,258.123 94.806,258.123 94.806,258.123 94.806,258.123 94.806,258.123 94.501,258.623 94.501,259.413 94.501,259.414 "
           id="polygon415-4"
           transform="matrix(1.494629,0,0,1.494629,-85.782036,-51.461963)" />
      </g>
    </g>
  </g>
</svg>
