<?xml version="1.0" encoding="iso-8859-1"?>
<!-- Generator: Adobe Illustrator 11 Build 196, SVG Export Plug-In . SVG Version: 6.0.0 Build 78)  -->
<!DOCTYPE svg PUBLIC "-//W3C//DTD SVG 1.0//EN"    "http://www.w3.org/TR/2001/REC-SVG-20010904/DTD/svg10.dtd" [
	<!ENTITY ns_flows "http://ns.adobe.com/Flows/1.0/">
	<!ENTITY ns_svg "http://www.w3.org/2000/svg">
	<!ENTITY ns_xlink "http://www.w3.org/1999/xlink">
]>
<svg  
	 width="147.375" height="95.627" viewBox="0 0 147.375 95.627" style="overflow:visible;enable-background:new 0 0 147.375 95.627"
	 xml:space="preserve">
	<g id="Layer_1">
		<path style="fill:#F2F2F2;stroke:#000000;stroke-width:0.3;" d="M41.388,82.484c-10.003-3.456-20.552-0.728-30.616-2.91
			c-0.728-0.182-1.516,0.364-1.698,1.152c-0.182,0.728,0.303,1.516,1.091,1.698c10.064,2.304,20.613-0.485,30.495,2.849
			c0.788,0.243,1.576-0.242,1.758-1.03C42.661,83.454,42.176,82.666,41.388,82.484L41.388,82.484z"/>
		<path style="fill:#F2F2F2;stroke:#000000;stroke-width:0.3;" d="M44.561,5.943c-4.761-0.826-9.944-1.766-14.437,0.46
			c-5.184,2.554-7.372,8.313-9.062,13.669c-0.288,0.902-0.864,1.939-1.805,2.15c-2.633,0.567-5.241-0.17-7.833,0.021
			c-0.122-0.035-0.25-0.06-0.384-0.06c-1.939-0.192-3.84,0.384-5.779,0.307c-0.768,0-1.382,0.614-1.382,1.382
			s0.615,1.382,1.382,1.382c1.32,0.078,2.622-0.178,3.93-0.291c0.307,0.231,0.708,0.337,1.119,0.252
			c3.129-0.825,6.278,0.576,9.369-0.25c2.707-0.729,4.607-3.628,4.55-6.393c1.9-3.628,3.245-8.121,7.295-9.791
			c3.878-1.594,8.274-0.96,12.344-0.154c0.749,0.192,1.497-0.269,1.689-0.998C45.751,6.883,45.29,6.135,44.561,5.943z"/>
		<path style="fill:#F2F2F2;stroke:#000000;stroke-width:0.3;" d="M43.543,23.739c-4.799-0.595-9.599-1.229-14.168-3.033
			c-1.92-0.768-4.012-0.787-6.028-0.346c-3.359-1.094-6.815-2.649-10.443-1.574l-0.211,0.039c-0.365,0.058-0.71,0.269-0.922,0.595
			l-0.23,0.364l0.403-0.403l-0.345,0.23c-0.307,0.192-0.538,0.518-0.615,0.902l-0.096,0.633c0.038,0.269-0.077,0.499-0.154,0.749
			c-0.192,0.729,0.23,1.497,0.979,1.689c0.729,0.211,1.498-0.23,1.689-0.959c0.077-0.23,0.173-0.461,0.25-0.691l0.057-0.902
			l-0.614,0.902l0.346-0.23c0.154-0.096,0.307-0.23,0.403-0.403l0.25-0.364l-0.921,0.595l0.96-0.211
			c-0.058,0.019-0.115,0.019-0.173,0.038c1.267-0.172,2.534-0.288,3.782,0.02c1.9,0.461,3.59,1.67,5.529,1.651
			c1.708-0.039,3.417-0.422,5.068,0.23c4.761,1.843,9.714,2.63,14.706,3.206c0.749,0.134,1.478-0.365,1.613-1.113
			C44.791,24.603,44.292,23.874,43.543,23.739L43.543,23.739z"/>
		<path style="fill:#F2F2F2;stroke:#000000;stroke-width:0.3;" d="M32.773,16.099c-2.63,0.576-5.471,0-7.986,1.248
			c-2.592,1.287-3.398,4.243-5.721,5.817c-0.538-0.614-1.402-0.153-1.997-0.576c-0.729-0.211-1.517,0.192-1.728,0.921
			c-0.23,0.729,0.192,1.517,0.922,1.728c4.358,2.016,6.566-2.381,9.292-4.934c2.169-2.016,5.356-0.672,7.986-1.555
			c0.729-0.211,1.152-0.979,0.941-1.708C34.271,16.31,33.502,15.887,32.773,16.099L32.773,16.099z"/>
		<g>
			<path style="fill:#F2F2F2;" d="M128.529,18.988c-0.535-0.064-1.062-0.202-1.548-0.39c-0.338-0.137-0.857-0.036-0.864-0.763
				c-0.021,0.072-0.05,0.144-0.072,0.216c-0.065-0.468,0.187-0.914,0.123-1.382c0-0.763-0.62-1.382-1.382-1.382
				c-0.763,0-1.382,0.619-1.382,1.382c-0.05,0.813-0.187,1.648,0.166,2.404c0.904,1.946,2.904,2.636,4.96,2.685V18.988z"/>
			<path style="fill:none;stroke:#000000;stroke-width:0.3;" d="M128.562,18.986c-0.535-0.064-1.062-0.202-1.548-0.39
				c-0.338-0.137-0.856-0.036-0.864-0.763c-0.021,0.072-0.05,0.144-0.072,0.216c-0.065-0.468,0.187-0.914,0.122-1.382
				c0-0.763-0.619-1.382-1.382-1.382c-0.763,0-1.382,0.619-1.382,1.382c-0.05,0.814-0.188,1.649,0.166,2.405
				c0.904,1.946,2.904,2.636,4.96,2.685V18.986z"/>
		</g>
		<g>
			<path style="fill:#F2F2F2;" d="M127.53,14.361c0.803-1.633,0.407-3.517-0.635-4.929l-2.286,1.606
				c0.357,0.511,0.643,1.059,0.616,1.675c-0.111,0.23-0.209,0.46-0.293,0.705c-0.259,0.712,0.108,1.512,0.828,1.771
				C126.472,15.449,127.264,15.082,127.53,14.361z"/>
			<path style="fill:none;stroke:#000000;stroke-width:0.3;" d="M127.366,14.347c0.802-1.633,0.406-3.517-0.635-4.929l-2.286,1.606
				c0.356,0.511,0.643,1.059,0.615,1.675c-0.111,0.23-0.209,0.46-0.293,0.705c-0.259,0.713,0.108,1.512,0.828,1.771
				C126.307,15.435,127.099,15.067,127.366,14.347z"/>
		</g>
		<g>
			<rect x="42.238" y="20.552" style="fill:#BC574C;stroke:#000000;stroke-width:0.3;" width="56.211" height="9.676"/> 
			<polygon style="fill:#B8493F;stroke:#000000;stroke-width:0.3;" points="98.464,20.495 106.743,15.83 106.282,15.657 
				50.632,15.657 42.252,20.495 "/>
			<polygon style="fill:#AE0000;stroke:#000000;stroke-width:0.3;stroke-linejoin:round;" points="107.139,25.312 107.139,16.06 
				106.843,15.657 98.514,20.631 98.514,30.292 "/>
		</g>
		<g>
			<rect x="28.396" y="30.698" style="fill:#BC574C;stroke:#000000;stroke-width:0.3;" width="56.211" height="9.676"/> 
			<polygon style="fill:#B8493F;stroke:#000000;stroke-width:0.3;" points="84.622,30.641 92.901,25.976 92.44,25.803 36.79,25.803 
				28.411,30.641 "/>
			<polygon style="fill:#AE0000;stroke:#000000;stroke-width:0.3;stroke-linejoin:round;" points="93.297,35.458 93.297,26.206 
				93.001,25.803 84.672,30.777 84.672,40.438 "/>
		</g>
		<g>
			<rect x="42.074" y="5.045" style="fill:#BC574C;stroke:#000000;stroke-width:0.3;" width="56.211" height="9.676"/> 
			<polygon style="fill:#B8493F;stroke:#000000;stroke-width:0.3;" points="98.3,4.988 106.579,0.323 106.119,0.15 50.468,0.15 
				42.089,4.988 "/>
			<polygon style="fill:#AE0000;stroke:#000000;stroke-width:0.3;stroke-linejoin:round;" points="106.975,9.805 106.975,0.553 
				106.68,0.15 98.351,5.124 98.351,14.784 "/>
		</g>
		<g>
			<rect x="28.233" y="15.191" style="fill:#BC574C;stroke:#000000;stroke-width:0.3;" width="56.211" height="9.676"/> 
			<polygon style="fill:#B8493F;stroke:#000000;stroke-width:0.3;" points="84.459,15.134 92.738,10.469 92.277,10.296 
				36.627,10.296 28.248,15.134 "/>
			<polygon style="fill:#AE0000;stroke:#000000;stroke-width:0.3;stroke-linejoin:round;" points="93.134,19.951 93.134,10.699 
				92.838,10.296 84.509,15.27 84.509,24.93 "/>
		</g>
		
			<linearGradient id="XMLID_10_" gradientUnits="userSpaceOnUse" x1="99.8394" y1="31.6675" x2="102.0893" y2="34.2925" gradientTransform="matrix(0.9215 0 0 0.9215 19.956 -11.7449)">
			<stop  offset="0" style="stop-color:#F2F2F2"/>
			<stop  offset="0.52" style="stop-color:#FFFFFF"/>
			<stop  offset="0.7238" style="stop-color:#FBFBFB"/>
			<stop  offset="1" style="stop-color:#F2F2F2"/>
			<midPointStop  offset="0" style="stop-color:#F2F2F2"/>
			<midPointStop  offset="0.51" style="stop-color:#F2F2F2"/>
			<midPointStop  offset="0.52" style="stop-color:#FFFFFF"/>
			<midPointStop  offset="0.62" style="stop-color:#FFFFFF"/>
			<midPointStop  offset="1" style="stop-color:#F2F2F2"/>
		</linearGradient>
		<path style="fill:url(#XMLID_10_);stroke:#000000;stroke-width:0.3;" d="M102.423,24.296c2.606-0.295,5.255-0.562,7.639-1.9
			c2.433-1.354,4.175-3.333,5.824-5.45c1.188-0.856,2.167-1.972,3.484-2.649c0.749-0.382,1.583-0.396,2.426-0.367
			c-0.05,0.014-0.094,0.021-0.144,0.036c0.728,0.238,1.505-0.151,1.75-0.878c0.238-0.72-0.151-1.505-0.878-1.742
			c-1.577-0.417-3.291-0.195-4.708,0.677c-2.448,1.512-4.528,3.318-6.091,5.658c-2.412,2.585-5.86,3.636-9.301,3.852
			c-0.763,0-1.382,0.619-1.382,1.382S101.66,24.296,102.423,24.296L102.423,24.296z"/>
		
			<linearGradient id="XMLID_11_" gradientUnits="userSpaceOnUse" x1="91.147" y1="14.7139" x2="108.9269" y2="35.4575" gradientTransform="matrix(0.9215 0 0 0.9215 19.956 -11.7449)">
			<stop  offset="0" style="stop-color:#F2F2F2"/>
			<stop  offset="0.52" style="stop-color:#FFFFFF"/>
			<stop  offset="0.7238" style="stop-color:#FBFBFB"/>
			<stop  offset="1" style="stop-color:#F2F2F2"/>
			<midPointStop  offset="0" style="stop-color:#F2F2F2"/>
			<midPointStop  offset="0.51" style="stop-color:#F2F2F2"/>
			<midPointStop  offset="0.52" style="stop-color:#FFFFFF"/>
			<midPointStop  offset="0.62" style="stop-color:#FFFFFF"/>
			<midPointStop  offset="1" style="stop-color:#F2F2F2"/>
		</linearGradient>
		<path style="fill:url(#XMLID_11_);stroke:#000000;stroke-width:0.3;" d="M102.236,9.091c2.736,0.31,5.292,1.317,7.552,3.045
			c2.304,1.764,3.751,3.967,6.213,5.615c1.368,0.921,3.017,0.727,4.413,0.101c1.339-0.604,1.937-1.994,2.239-3.34
			c0.18-0.742-0.267-1.49-1.008-1.677c-0.742-0.18-1.49,0.266-1.678,1.008c-0.158,0.41-0.144,0.893-0.446,1.238
			c-0.46,0.525-1.317,0.712-1.9,0.36c-2.491-1.519-3.895-3.88-6.292-5.623c-2.779-2.009-5.803-3.211-9.093-3.492
			c-0.763,0-1.382,0.619-1.382,1.382S101.473,9.091,102.236,9.091L102.236,9.091z"/>
		<g>
			<path style="fill:#F2F2F2;stroke:#000000;stroke-width:0.3;" d="M88.284,18.796c2.822-0.778,5.788-0.59,8.61-1.526
				c1.994-0.663,3.945-1.238,5.853-2.109c2.008-0.921,3.715-2.282,5.853-2.894c2.433-0.698,4.866-1.051,7.35-1.123
				c1.346-0.036,2.793,0.007,3.888,0.907c2.375,1.98,3.988,4.708,6.933,5.76c2.074,0.734,4.334,0.18,6.516,0.302
				c1.015,0.058,2.037-0.065,3.06-0.137c2.246-0.159,4.456,0.158,6.688-0.036c0.763-0.021,1.361-0.655,1.346-1.418
				c-0.021-0.763-0.662-1.368-1.425-1.346c-2.16,0.18-4.305-0.151-6.479,0.05c-2.829,0.266-5.594-0.072-8.38,0.194
				c-2.973-1.13-4.478-4.132-6.99-5.896c-4.24-2.152-9.165-0.785-13.556,0.137c-2.542,0.943-4.715,2.599-7.286,3.542
				c-1.965,0.727-3.83,1.447-5.961,1.857c-2.361,0.453-4.629,0.446-6.868,1.101c-0.727,0.238-1.123,1.015-0.893,1.743
				C86.779,18.63,87.557,19.026,88.284,18.796L88.284,18.796z"/>
			
				<linearGradient id="XMLID_12_" gradientUnits="userSpaceOnUse" x1="139.3379" y1="51.2441" x2="139.3379" y2="52.1816" gradientTransform="matrix(0.9215 0 0 0.9215 7.0551 -31.5569)">
				<stop  offset="0" style="stop-color:#F2F2F2"/>
				<stop  offset="0.52" style="stop-color:#FFFFFF"/>
				<stop  offset="0.7238" style="stop-color:#FBFBFB"/>
				<stop  offset="1" style="stop-color:#F2F2F2"/>
				<midPointStop  offset="0" style="stop-color:#F2F2F2"/>
				<midPointStop  offset="0.51" style="stop-color:#F2F2F2"/>
				<midPointStop  offset="0.52" style="stop-color:#FFFFFF"/>
				<midPointStop  offset="0.62" style="stop-color:#FFFFFF"/>
				<midPointStop  offset="1" style="stop-color:#F2F2F2"/>
			</linearGradient>
			<path style="fill:url(#XMLID_12_);" d="M128.148,16.497c2.568-0.442,5.141,0.47,7.703,0.023c2.328,0.024,4.656-0.153,6.983-0.019
				c0.254,0,0.465-0.206,0.465-0.46s-0.206-0.461-0.46-0.461c-2.774-0.082-5.553-0.01-8.327,0.12
				c-2.179,0.105-4.343-0.495-6.518-0.115c-0.25,0.043-0.417,0.283-0.379,0.533C127.659,16.367,127.898,16.535,128.148,16.497
				L128.148,16.497z"/>
			
				<linearGradient id="XMLID_13_" gradientUnits="userSpaceOnUse" x1="129.1763" y1="51.1108" x2="129.5929" y2="50.3608" gradientTransform="matrix(0.9215 0 0 0.9215 7.0551 -31.5569)">
				<stop  offset="0" style="stop-color:#F2F2F2"/>
				<stop  offset="0.52" style="stop-color:#FFFFFF"/>
				<stop  offset="0.7238" style="stop-color:#FBFBFB"/>
				<stop  offset="1" style="stop-color:#F2F2F2"/>
				<midPointStop  offset="0" style="stop-color:#F2F2F2"/>
				<midPointStop  offset="0.51" style="stop-color:#F2F2F2"/>
				<midPointStop  offset="0.52" style="stop-color:#FFFFFF"/>
				<midPointStop  offset="0.62" style="stop-color:#FFFFFF"/>
				<midPointStop  offset="1" style="stop-color:#F2F2F2"/>
			</linearGradient>
			<path style="fill:url(#XMLID_13_);" d="M127.553,15.436c-0.835-0.12-1.526-0.658-2.083-1.277
				c-0.173-0.187-0.466-0.201-0.653-0.033c-0.188,0.173-0.202,0.465-0.034,0.652c0.691,0.749,1.55,1.402,2.577,1.56
				c0.25,0.053,0.495-0.105,0.547-0.355S127.803,15.489,127.553,15.436L127.553,15.436z"/>
			
				<linearGradient id="XMLID_14_" gradientUnits="userSpaceOnUse" x1="126.7876" y1="49.3008" x2="127.7876" y2="48.6341" gradientTransform="matrix(0.9215 0 0 0.9215 7.0551 -31.5569)">
				<stop  offset="0" style="stop-color:#F2F2F2"/>
				<stop  offset="0.52" style="stop-color:#FFFFFF"/>
				<stop  offset="0.7238" style="stop-color:#FBFBFB"/>
				<stop  offset="1" style="stop-color:#F2F2F2"/>
				<midPointStop  offset="0" style="stop-color:#F2F2F2"/>
				<midPointStop  offset="0.51" style="stop-color:#F2F2F2"/>
				<midPointStop  offset="0.52" style="stop-color:#FFFFFF"/>
				<midPointStop  offset="0.62" style="stop-color:#FFFFFF"/>
				<midPointStop  offset="1" style="stop-color:#F2F2F2"/>
			</linearGradient>
			<path style="fill:url(#XMLID_14_);" d="M125.288,14.04c-0.394-0.533-0.989-0.869-1.368-1.416
				c-0.173-0.187-0.466-0.197-0.648-0.024c-0.188,0.173-0.197,0.465-0.024,0.653c0.369,0.518,0.907,0.869,1.31,1.349
				c0.154,0.202,0.446,0.24,0.648,0.086C125.408,14.529,125.441,14.241,125.288,14.04L125.288,14.04z"/>
			
				<linearGradient id="XMLID_15_" gradientUnits="userSpaceOnUse" x1="124.9297" y1="47.7642" x2="125.9296" y2="47.0975" gradientTransform="matrix(0.9215 0 0 0.9215 7.0551 -31.5569)">
				<stop  offset="0" style="stop-color:#F2F2F2"/>
				<stop  offset="0.52" style="stop-color:#FFFFFF"/>
				<stop  offset="0.7238" style="stop-color:#FBFBFB"/>
				<stop  offset="1" style="stop-color:#F2F2F2"/>
				<midPointStop  offset="0" style="stop-color:#F2F2F2"/>
				<midPointStop  offset="0.51" style="stop-color:#F2F2F2"/>
				<midPointStop  offset="0.52" style="stop-color:#FFFFFF"/>
				<midPointStop  offset="0.62" style="stop-color:#FFFFFF"/>
				<midPointStop  offset="1" style="stop-color:#F2F2F2"/>
			</linearGradient>
			<path style="fill:url(#XMLID_15_);" d="M123.627,12.427c-0.292-0.465-0.691-0.84-1.061-1.238
				c-0.183-0.182-0.47-0.182-0.653-0.005c-0.182,0.178-0.182,0.471-0.005,0.653c0.327,0.341,0.667,0.667,0.931,1.061
				c0.13,0.221,0.413,0.292,0.629,0.158C123.689,12.926,123.761,12.643,123.627,12.427L123.627,12.427z"/>
		</g>
		<g>
			<path style="fill:#F2F2F2;" d="M123.913,10.217c0.177,0.237,0.366,0.48,0.542,0.731l2.286-1.607
				c-0.565-0.767-1.318-1.396-2.18-1.766c-1.296-0.547-2.793-0.54-4.067,0.086c-1.648,0.813-3.24,1.648-4.557,2.995
				c-2.253,2.29-3.009,5.356-4.132,8.2c-2.001,3.484-5.63,5.371-9.143,7.105c-4.262,2.109-8.754,3.283-13.369,4.067
				c-0.749,0.144-1.238,0.871-1.087,1.62c0.144,0.749,0.871,1.238,1.62,1.087c6.731-1.08,13.038-3.189,19.035-7.055
				c2.39-1.541,4.348-3.413,5.529-5.918c0.878-1.872,1.332-3.83,2.361-5.666c1.08-1.937,2.93-2.909,4.794-3.888
				C122.286,9.821,123.143,9.95,123.913,10.217z"/>
			<path style="fill:none;stroke:#000000;stroke-width:0.3;" d="M123.897,10.217c0.177,0.237,0.366,0.48,0.542,0.73l2.286-1.606
				c-0.565-0.767-1.318-1.396-2.18-1.766c-1.296-0.547-2.793-0.54-4.067,0.086c-1.648,0.813-3.24,1.648-4.557,2.995
				c-2.253,2.29-3.009,5.356-4.132,8.2c-2.001,3.484-5.63,5.371-9.143,7.105c-4.262,2.109-8.754,3.283-13.369,4.067
				c-0.749,0.144-1.238,0.871-1.087,1.62c0.144,0.749,0.871,1.238,1.62,1.087c6.731-1.08,13.038-3.189,19.035-7.055
				c2.39-1.541,4.348-3.413,5.529-5.918c0.878-1.872,1.332-3.83,2.361-5.666c1.08-1.937,2.93-2.909,4.795-3.888
				C122.271,9.821,123.127,9.95,123.897,10.217z"/>
		</g>
		<path style="fill:#F2F2F2;" d="M126.09,9.3c-0.504,0.295-0.958,0.666-1.443,0.99c-0.191,0.173-0.205,0.464-0.036,0.651
			c0.173,0.191,0.464,0.205,0.651,0.036c0.407-0.267,0.807-0.54,1.177-0.857c0,0.011,0.003,0.018,0.003,0.029
			c0.234-0.097,0.346-0.367,0.249-0.601S126.324,9.203,126.09,9.3L126.09,9.3z"/>
		
			<linearGradient id="XMLID_16_" gradientUnits="userSpaceOnUse" x1="113.5093" y1="22.8643" x2="114.5093" y2="21.6767" gradientTransform="matrix(0.9215 0 0 0.9215 19.956 -11.7449)">
			<stop  offset="0" style="stop-color:#F2F2F2"/>
			<stop  offset="0.52" style="stop-color:#FFFFFF"/>
			<stop  offset="0.7238" style="stop-color:#FBFBFB"/>
			<stop  offset="1" style="stop-color:#F2F2F2"/>
			<midPointStop  offset="0" style="stop-color:#F2F2F2"/>
			<midPointStop  offset="0.51" style="stop-color:#F2F2F2"/>
			<midPointStop  offset="0.52" style="stop-color:#FFFFFF"/>
			<midPointStop  offset="0.62" style="stop-color:#FFFFFF"/>
			<midPointStop  offset="1" style="stop-color:#F2F2F2"/>
		</linearGradient>
		<path style="fill:url(#XMLID_16_);" d="M122.354,8.422c0.806-0.31,1.537,0.284,2.278,0.486c0.695,0.637,1.455,1.228,1.897,2.077
			c0.159,0.198,0.45,0.23,0.648,0.072c0.202-0.158,0.234-0.446,0.076-0.645c-0.525-0.939-1.357-1.645-2.185-2.307
			c-0.641-0.23-1.238-0.601-1.922-0.666c-0.382-0.036-0.795-0.065-1.145,0.133c-0.234,0.097-0.345,0.367-0.248,0.601
			S122.12,8.519,122.354,8.422L122.354,8.422z"/>
		<g>
			<path style="fill:#F2F2F2;" d="M133.481,17.184c-0.655-0.389-1.504-0.173-1.894,0.482c-0.223,0.302-0.266,0.742-0.612,0.921
				c-0.754,0.393-1.616,0.472-2.455,0.363v2.772c0.976,0.029,1.965-0.086,2.858-0.284c1.252-0.281,2.131-1.209,2.592-2.369
				C134.36,18.415,134.144,17.565,133.481,17.184z"/>
			<path style="fill:none;stroke:#000000;stroke-width:0.3;" d="M133.565,17.138c-0.655-0.389-1.505-0.173-1.894,0.482
				c-0.223,0.302-0.266,0.741-0.612,0.921c-0.754,0.393-1.616,0.472-2.455,0.363v2.772c0.975,0.029,1.965-0.086,2.858-0.284
				c1.252-0.281,2.131-1.21,2.591-2.369C134.443,18.369,134.227,17.519,133.565,17.138z"/>
		</g>
		<path style="fill:#F2F2F2;" d="M128.023,19.354c-0.202,0.454,0.032,0.933,0.104,1.4c0.014,0.094-0.025,0.194-0.018,0.299
			c-0.007-0.015-0.015-0.029-0.022-0.043c-0.064,0.245,0.08,0.5,0.324,0.565c0.245,0.068,0.5-0.076,0.565-0.324
			c0.209-0.54-0.144-1.051-0.104-1.591c0.003,0.007,0.011,0.011,0.014,0.018c0.09-0.241-0.032-0.504-0.27-0.594
			C128.376,18.994,128.113,19.116,128.023,19.354L128.023,19.354z"/>
		<path style="fill:#F2F2F2;stroke:#000000;stroke-width:0.3;" d="M30.258,33.875c-5.894-0.864-13.65-4.703-12.805-11.73
			l0.077-0.307l-0.345,0.614l0.326-0.327l-0.806,0.403l0.307-0.039h-0.154h0.422l-0.729-0.192l0.192,0.096
			c0.346,0.307,0.691,0.595,1.037,0.902c0.576,0.499,1.44,0.46,1.958-0.115c0.499-0.557,0.461-1.44-0.115-1.939
			c-0.288-0.269-0.595-0.519-0.883-0.787l-0.768-0.538c-0.211-0.135-0.461-0.192-0.729-0.192H16.82
			c-0.057,0-0.115,0.019-0.173,0.019l-0.307,0.038c-0.307,0.039-0.595,0.192-0.806,0.403l-0.326,0.327
			c-0.173,0.172-0.288,0.403-0.346,0.633l-0.134,0.499c-1.267,8.62,7.718,14.053,15.186,14.955c0.749,0.115,1.44-0.422,1.536-1.19
			C31.563,34.663,31.026,33.972,30.258,33.875L30.258,33.875z"/>
		<g>
			<rect x="30.192" y="76.125" style="fill:#BC574C;stroke:#000000;stroke-width:0.3;" width="56.211" height="19.352"/> 
			<polygon style="fill:#B8493F;stroke:#000000;stroke-width:0.3;" points="86.351,76.09 102.71,66.76 102.548,66.414 
				46.898,66.414 30.14,76.09 "/>
			<polygon style="fill:#AE0000;stroke:#000000;stroke-width:0.3;stroke-linejoin:round;" points="103.771,85.514 103.771,67.011 
				103.179,66.204 86.521,76.152 86.521,95.473 "/>
		</g>
		<path style="fill:#F2F2F2;stroke:#000000;stroke-width:0.3;" d="M95.647,81.393c7.881-2.122,15.884,0.485,23.886-0.061
			c3.152-0.182,6.244-0.545,9.397-0.849c0.788-0.061,1.395-0.728,1.333-1.516c-0.061-0.849-0.728-1.455-1.516-1.395
			c-3.092,0.303-6.123,0.667-9.215,0.849c-8.185,0.546-16.369-2.243-24.493,0.182c-0.788,0.182-1.273,0.909-1.091,1.697
			C94.131,81.09,94.859,81.575,95.647,81.393L95.647,81.393z"/>
		
			<linearGradient id="XMLID_17_" gradientUnits="userSpaceOnUse" x1="108.6348" y1="80.9438" x2="108.5723" y2="81.9438" gradientTransform="matrix(0.97 0 0 0.97 -1.6615 -0.5109)">
			<stop  offset="0" style="stop-color:#F2F2F2"/>
			<stop  offset="0.52" style="stop-color:#FFFFFF"/>
			<stop  offset="0.7238" style="stop-color:#FBFBFB"/>
			<stop  offset="1" style="stop-color:#F2F2F2"/>
			<midPointStop  offset="0" style="stop-color:#F2F2F2"/>
			<midPointStop  offset="0.51" style="stop-color:#F2F2F2"/>
			<midPointStop  offset="0.52" style="stop-color:#FFFFFF"/>
			<midPointStop  offset="0.62" style="stop-color:#FFFFFF"/>
			<midPointStop  offset="1" style="stop-color:#F2F2F2"/>
		</linearGradient>
		<path style="fill:url(#XMLID_17_);" d="M100.194,79.029c0.758-0.038,1.493-0.228,2.258-0.091c1.599,0.272,3.115,0.083,4.661,0.326
			c0.265,0.023,0.5-0.174,0.523-0.439c0.022-0.265-0.174-0.5-0.44-0.523c-1.576-0.243-3.114-0.061-4.744-0.333
			c-0.766-0.136-1.5,0.038-2.258,0.091c-0.265,0-0.485,0.22-0.485,0.485C99.709,78.809,99.929,79.029,100.194,79.029L100.194,79.029
			z"/>
		
			<linearGradient id="XMLID_18_" gradientUnits="userSpaceOnUse" x1="114.9639" y1="81.6152" x2="114.8389" y2="82.8028" gradientTransform="matrix(0.97 0 0 0.97 -1.6615 -0.5109)">
			<stop  offset="0" style="stop-color:#F2F2F2"/>
			<stop  offset="0.52" style="stop-color:#FFFFFF"/>
			<stop  offset="0.7238" style="stop-color:#FBFBFB"/>
			<stop  offset="1" style="stop-color:#F2F2F2"/>
			<midPointStop  offset="0" style="stop-color:#F2F2F2"/>
			<midPointStop  offset="0.51" style="stop-color:#F2F2F2"/>
			<midPointStop  offset="0.52" style="stop-color:#FFFFFF"/>
			<midPointStop  offset="0.62" style="stop-color:#FFFFFF"/>
			<midPointStop  offset="1" style="stop-color:#F2F2F2"/>
		</linearGradient>
		<path style="fill:url(#XMLID_18_);" d="M106.916,79.256c1.872,0.425,3.751,0.561,5.668,0.622c0.265,0,0.485-0.22,0.485-0.485
			s-0.22-0.485-0.485-0.485c-1.061-0.038-2.122-0.053-3.183-0.197c-0.758-0.099-1.5-0.243-2.251-0.394
			c-0.265-0.068-0.523,0.091-0.591,0.356C106.499,78.93,106.658,79.195,106.916,79.256L106.916,79.256z"/>
		<line style="fill:none;" x1="147.375" y1="14.703" x2="147.375" y2="37.369"/>
		<line style="fill:none;" x1="0" y1="20.036" x2="0" y2="42.703"/>
	</g>
</svg>
