<?xml version="1.0" encoding="UTF-8" standalone="no"?>
<!-- Generator: Adobe Illustrator 11 Build 196, SVG Export Plug-In . SVG Version: 6.0.0 Build 78)  -->
<svg
   xmlns:dc="http://purl.org/dc/elements/1.1/"
   xmlns:cc="http://web.resource.org/cc/"
   xmlns:rdf="http://www.w3.org/1999/02/22-rdf-syntax-ns#"
   xmlns:svg="http://www.w3.org/2000/svg"
   xmlns="http://www.w3.org/2000/svg"
   xmlns:sodipodi="http://inkscape.sourceforge.net/DTD/sodipodi-0.dtd"
   xmlns:inkscape="http://www.inkscape.org/namespaces/inkscape"
   width="81.413"
   height="206.411"
   viewBox="0 0 81.413 206.411"
   style="overflow:visible;enable-background:new 0 0 81.413 206.411"
   xml:space="preserve"
   id="svg2"
   sodipodi:version="0.32"
   sodipodi:docname="eg-three-resistors-in-parallel.svg"
   sodipodi:docbase="/home/bcrowell/Documents/writing/lm/trunk/4em/ch04/figs"><metadata
   id="metadata152"><rdf:RDF><cc:Work
       rdf:about=""><dc:format>image/svg+xml</dc:format><dc:type
         rdf:resource="http://purl.org/dc/dcmitype/StillImage" /></cc:Work></rdf:RDF></metadata><defs
   id="defs150">
		
		
		
		
		
		
		
		
		
		
		
		
		
		
		
		
		
		
		
		
		
	
			
			
			
			
			
			
			
			
			
			
		</defs><sodipodi:namedview
   inkscape:cy="103.74098"
   inkscape:cx="213.05257"
   inkscape:zoom="1.2727162"
   inkscape:window-height="996"
   inkscape:window-width="1278"
   inkscape:pageshadow="2"
   inkscape:pageopacity="0.0"
   borderopacity="1.0"
   bordercolor="#666666"
   pagecolor="#ffffff"
   id="base"
   inkscape:window-x="0"
   inkscape:window-y="0"
   inkscape:current-layer="svg2" />
	<style
   type="text/css"
   id="style4">
	
	</style>
	<rect
   style="fill:#dedede;fill-opacity:1.0000000;fill-rule:evenodd;stroke:none;stroke-width:1.0000000pt;stroke-linecap:butt;stroke-linejoin:miter;stroke-opacity:1.0000000"
   id="rect1450"
   width="90.549706"
   height="119.80140"
   x="204.05919"
   y="28.394562" /><rect
   style="fill:#dedede;fill-opacity:1.0000000;fill-rule:evenodd;stroke:none;stroke-width:1.0000000pt;stroke-linecap:butt;stroke-linejoin:miter;stroke-opacity:1.0000000;overflow:visible"
   id="rect2411"
   width="86.243454"
   height="119.80140"
   x="302.06769"
   y="28.394562" /><rect
   style="fill:#dedede;fill-opacity:1.0000000;fill-rule:evenodd;stroke:none;stroke-width:1.0000000pt;stroke-linecap:butt;stroke-linejoin:miter;stroke-opacity:1.0000000;overflow:visible"
   id="rect2413"
   width="107.45793"
   height="86.801109"
   x="244.37308"
   y="154.69621" /><g
   id="g2387"
   transform="matrix(1.420464,0.000000,0.000000,1.420464,50.87377,-68.84934)"><g
     id="g2318"><line
       style="fill:none;stroke:#000000;stroke-miterlimit:1.0000000"
       x1="120.34118"
       y1="145.58401"
       x2="120.30918"
       y2="95.975014"
       id="line15" /><polyline
       style="fill:none;stroke:#000000;stroke-miterlimit:1.0000000"
       points="32.665,41.047 37.612,41.047 42.415,41.047      44.227,37.193 46.394,43.714 49.29,37.193 51.727,43.693 54.29,37.13 56.977,43.63 59.04,37.318 60.727,41.047 67.565,41.047      71.852,41.047 "
       id="polyline17"
       transform="translate(87.67618,79.20901)" /><polyline
       style="fill:none;stroke:#000000;stroke-miterlimit:1.0000000"
       points="32.696,17.234 37.644,17.234 42.446,17.234      44.258,13.38 46.425,19.901 49.321,13.38 51.758,19.88 54.321,13.318 57.008,19.818 59.071,13.505 60.758,17.234 67.597,17.234      71.883,17.234 71.883,66.375 "
       id="polyline19"
       transform="translate(87.67618,79.20901)" /><g
       id="g21"
       transform="translate(87.67618,79.20901)">
				<text
   transform="translate(46.86470,9.000000)"
   id="text23"><tspan
     x="0"
     y="0"
     style="font-size:7.6500001px;font-family:Liberation Sans"
     id="tspan25">R</tspan></text>


				<text
   transform="translate(53.36430,12.00000)"
   id="text27"><tspan
     x="0"
     y="0"
     style="font-size:5.9499998px;font-family:Liberation Sans"
     id="tspan29">1</tspan></text>


			</g><g
       id="g31"
       transform="translate(87.67618,79.20901)">
				<text
   transform="translate(46.86470,32.75000)"
   id="text33"><tspan
     x="0"
     y="0"
     style="font-size:7.6500001px;font-family:Liberation Sans"
     id="tspan35">R</tspan></text>


				<text
   transform="translate(53.36430,35.75000)"
   id="text37"><tspan
     x="0"
     y="0"
     style="font-size:5.9499998px;font-family:Liberation Sans"
     id="tspan39">2</tspan></text>


			</g><line
       style="fill:none;stroke:#000000;stroke-miterlimit:1.0000000"
       x1="120.11618"
       y1="120.27801"
       x2="110.86618"
       y2="120.27801"
       id="line41" /><polyline
       style="fill:none;stroke:#000000;stroke-miterlimit:1.0000000"
       points="32.34,66.375 38.163,66.375 42.965,66.375      44.778,62.521 46.944,69.042 49.84,62.521 52.278,69.021 54.84,62.458 57.528,68.958 59.59,62.646 61.278,66.375 68.116,66.375      72.403,66.375 "
       id="polyline45"
       transform="translate(87.67618,79.20901)" /><g
       id="g47"
       transform="translate(87.67618,79.20901)">
				<text
   transform="translate(47.41600,58.07810)"
   id="text49"><tspan
     x="0"
     y="0"
     style="font-size:7.6500001px;font-family:Liberation Sans"
     id="tspan51">R</tspan></text>


				<text
   transform="translate(53.91550,61.07810)"
   id="text53"><tspan
     x="0"
     y="0"
     style="font-size:5.9499998px;font-family:Liberation Sans"
     id="tspan55">3</tspan></text>


			</g></g><line
     id="line43"
     y2="120.19113"
     x2="159.74434"
     y1="120.19113"
     x1="168.99434"
     style="fill:none;stroke:#000000;stroke-miterlimit:1.0000000" /></g><g
   id="g2363"
   transform="matrix(1.420464,0.000000,0.000000,1.420464,56.41289,-68.65903)"><line
     style="fill:none;stroke:#000000;stroke-miterlimit:1.0000000"
     x1="183.22728"
     y1="145.34650"
     x2="183.19527"
     y2="95.737511"
     id="line63" /><polyline
     transform="translate(150.5624,-3.364491)"
     style="fill:none;stroke:#000000;stroke-miterlimit:1.0000000"
     points="32.665,123.383 37.612,123.383 42.415,123.383     44.227,119.529 46.394,126.05 49.29,119.529 51.727,126.029 54.29,119.466 56.977,125.966 59.04,119.654 60.727,123.383     67.565,123.383 71.852,123.383 "
     id="polyline65" /><polyline
     transform="translate(150.5624,-3.364491)"
     style="fill:none;stroke:#000000;stroke-miterlimit:1.0000000"
     points="32.696,99.571 37.644,99.571 42.446,99.571     44.258,95.716 46.425,102.237 49.321,95.716 51.758,102.216 54.321,95.654 57.008,102.154 59.071,95.841 60.758,99.571     67.597,99.571 71.883,99.571 71.883,148.711 "
     id="polyline67" /><g
     transform="translate(150.5624,-3.364491)"
     id="g69">
			<text
   transform="translate(46.86470,91.33640)"
   id="text71"><tspan
     x="0"
     y="0"
     style="font-size:7.6500001px;font-family:Liberation Sans"
     id="tspan73">R</tspan></text>


			<text
   transform="translate(53.36430,94.33640)"
   id="text75"><tspan
     x="0"
     y="0"
     style="font-size:5.9499998px;font-family:Liberation Sans"
     id="tspan77">1</tspan></text>


		</g><g
     transform="translate(150.5624,-3.364491)"
     id="g79">
			<text
   transform="translate(46.86470,115.0864)"
   id="text81"><tspan
     x="0"
     y="0"
     style="font-size:7.6500001px;font-family:Liberation Sans"
     id="tspan83">R</tspan></text>


			<text
   transform="translate(53.36430,118.0864)"
   id="text85"><tspan
     x="0"
     y="0"
     style="font-size:5.9499998px;font-family:Liberation Sans"
     id="tspan87">2</tspan></text>


		</g><line
     style="fill:none;stroke:#000000;stroke-miterlimit:1.0000000"
     x1="183.00227"
     y1="120.04053"
     x2="173.75227"
     y2="120.04053"
     id="line89" /><line
     style="fill:none;stroke:#000000;stroke-miterlimit:1.0000000"
     x1="232.90782"
     y1="119.49425"
     x2="223.65782"
     y2="119.49425"
     id="line91" /><polyline
     transform="translate(150.5624,-3.364491)"
     style="fill:none;stroke:#000000;stroke-miterlimit:1.0000000"
     points="32.34,148.711 38.163,148.711 42.965,148.711     44.778,144.857 46.944,151.377 49.84,144.857 52.278,151.357 54.84,144.794 57.528,151.294 59.59,144.982 61.278,148.711     68.116,148.711 72.403,148.711 "
     id="polyline93" /><g
     transform="translate(150.5624,-3.364491)"
     id="g95">
			<text
   transform="translate(47.41600,140.4141)"
   id="text97"><tspan
     x="0"
     y="0"
     style="font-size:7.6500001px;font-family:Liberation Sans"
     id="tspan99">R</tspan></text>


			<text
   transform="translate(53.91550,143.4141)"
   id="text101"><tspan
     x="0"
     y="0"
     style="font-size:5.9499998px;font-family:Liberation Sans"
     id="tspan103">3</tspan></text>


		</g><path
     style="fill:none;stroke:#000000;stroke-dasharray:2.0000000 "
     d="M 215.60528,125.94751 C 222.23228,125.94751 227.60528,120.57451 227.60528,113.94751 L 227.60528,90.447509 C 227.60528,83.820509 222.23228,78.447509 215.60528,78.447509 L 189.60528,78.447509 C 182.97828,78.447509 177.60528,83.820509 177.60528,90.447509 L 177.60528,113.94751 C 177.60528,120.57451 182.97828,125.94751 189.60528,125.94751 L 215.60528,125.94751 z "
     id="path105" /></g><g
   id="g2273"
   transform="matrix(1.420464,0.000000,0.000000,1.420464,-78.25455,36.66604)"><polyline
     transform="translate(212.7718,-71.83438)"
     style="fill:none;stroke:#000000;stroke-miterlimit:1.0000000"
     points="32.554,203.542 32.554,179.666 37.7,179.666 "
     id="polyline113" /><polyline
     transform="translate(212.7718,-71.83438)"
     style="fill:none;stroke:#000000;stroke-miterlimit:1.0000000"
     points="68.137,179.666 71.804,179.666 71.804,203.542 "
     id="polyline115" /><g
     transform="translate(212.7718,-71.83438)"
     id="g117">
			<polyline
   style="fill:none;stroke:#000000;stroke-miterlimit:1.0000000"
   points="32.637,203.542 37.585,203.542 42.387,203.542      44.2,199.688 46.367,206.208 49.262,199.688 51.7,206.188 54.262,199.625 56.95,206.125 59.012,199.812 60.7,203.542      67.538,203.542 71.825,203.542 "
   id="polyline119" />
		</g><g
     transform="translate(212.7718,-71.83438)"
     id="g121">
			<polyline
   style="fill:none;stroke:#000000;stroke-miterlimit:1.0000000"
   points="32.668,179.729 37.616,179.729 42.418,179.729      44.231,175.875 46.397,182.396 49.293,175.875 51.731,182.375 54.293,175.812 56.981,182.312 59.043,176 60.731,179.729      67.569,179.729 71.856,179.729 "
   id="polyline123" />
		</g><g
     transform="translate(212.7718,-71.83438)"
     id="g125">
			<text
   transform="translate(37.83740,170.8281)"
   id="text127"><tspan
     x="0"
     y="0"
     style="font-size:7.6500001px;font-family:Liberation Sans"
     id="tspan129">R</tspan></text>


			<text
   transform="translate(44.33690,173.8281)"
   id="text131"><tspan
     x="0"
     y="0"
     style="font-size:5.9499998px;font-family:Liberation Sans"
     id="tspan133">1 and 2</tspan></text>


		</g><g
     transform="translate(212.7718,-71.83438)"
     id="g135">
			<text
   transform="translate(46.83790,195.2446)"
   id="text137"><tspan
     x="0"
     y="0"
     style="font-size:7.6500001px;font-family:Liberation Sans"
     id="tspan139">R</tspan></text>


			<text
   transform="translate(53.33740,198.2446)"
   id="text141"><tspan
     x="0"
     y="0"
     style="font-size:5.9499998px;font-family:Liberation Sans"
     id="tspan143">3</tspan></text>


		</g><line
     style="fill:none;stroke:#000000;stroke-miterlimit:1.0000000"
     x1="245.18478"
     y1="119.29163"
     x2="235.93480"
     y2="119.29163"
     id="line145" /><line
     style="fill:none;stroke:#000000;stroke-miterlimit:1.0000000"
     x1="294.18481"
     y1="119.29163"
     x2="284.93481"
     y2="119.29163"
     id="line147" /></g><g
   id="g9"
   transform="translate(208.9220,12.70927)">
				<text
   transform="translate(0.000000,26.64840)"
   id="text11"><tspan
     x="0"
     y="0"
     style="font-size:8.5000000px;font-family:Liberation Sans"
     id="tspan13">1</tspan></text>


			</g><g
   id="g57"
   transform="translate(306.3308,-69.90762)">
			<text
   id="text59"
   transform="translate(0.000000,108.9844)"><tspan
     id="tspan61"
     style="font-size:8.5000000px;font-family:Liberation Sans"
     y="0"
     x="0">2</tspan></text>


		</g><g
   id="g107"
   transform="translate(251.8247,-21.14794)">
			<text
   id="text109"
   transform="translate(0.306200,187.4761)"><tspan
     id="tspan111"
     style="font-size:8.5000000px;font-family:Liberation Sans"
     y="0"
     x="0">3</tspan></text>


		</g>
</svg>