<?xml version="1.0" encoding="UTF-8" standalone="no"?>
<!-- Generator: Adobe Illustrator 11 Build 196, SVG Export Plug-In . SVG Version: 6.0.0 Build 78)  -->
<svg
   xmlns:dc="http://purl.org/dc/elements/1.1/"
   xmlns:cc="http://web.resource.org/cc/"
   xmlns:rdf="http://www.w3.org/1999/02/22-rdf-syntax-ns#"
   xmlns:svg="http://www.w3.org/2000/svg"
   xmlns="http://www.w3.org/2000/svg"
   xmlns:sodipodi="http://inkscape.sourceforge.net/DTD/sodipodi-0.dtd"
   xmlns:inkscape="http://www.inkscape.org/namespaces/inkscape"
   width="116.139"
   height="172.642"
   viewBox="0 0 116.139 172.642"
   style="overflow:visible;enable-background:new 0 0 116.139 172.642"
   xml:space="preserve"
   id="svg2"
   sodipodi:version="0.32"
   sodipodi:docname="eg-voltmeter-internal-resistance.svg"
   sodipodi:docbase="/home/bcrowell/Documents/writing/lm/trunk/4em/ch04/figs"><metadata
   id="metadata259"><rdf:RDF><cc:Work
       rdf:about=""><dc:format>image/svg+xml</dc:format><dc:type
         rdf:resource="http://purl.org/dc/dcmitype/StillImage" /></cc:Work></rdf:RDF></metadata><defs
   id="defs257">
		
		
			<linearGradient
   gradientTransform="matrix(0.000000,-0.250000,0.250000,0.000000,97.67820,49.30470)"
   y2="-146.5"
   x2="-121.3652"
   y1="-146.5"
   x1="-158.8652"
   gradientUnits="userSpaceOnUse"
   id="XMLID_12_">
			<stop
   id="stop10"
   style="stop-color:#AE8C78"
   offset="0" />
			<stop
   id="stop12"
   style="stop-color:#B18F7C"
   offset="0.1046" />
			<stop
   id="stop14"
   style="stop-color:#B69989"
   offset="0.2184" />
			<stop
   id="stop16"
   style="stop-color:#BEA89C"
   offset="0.3366" />
			<stop
   id="stop18"
   style="stop-color:#C9BAB3"
   offset="0.4577" />
			<stop
   id="stop20"
   style="stop-color:#D8D0CD"
   offset="0.5799" />
			<stop
   id="stop22"
   style="stop-color:#E5E5E5"
   offset="0.69" />
			<stop
   id="stop24"
   style="stop-color:#AE8C78"
   offset="1" />
			<midPointStop
   id="midPointStop26"
   style="stop-color:#AE8C78"
   offset="0" />
			<midPointStop
   id="midPointStop28"
   style="stop-color:#AE8C78"
   offset="0.69" />
			<midPointStop
   id="midPointStop30"
   style="stop-color:#E5E5E5"
   offset="0.69" />
			<midPointStop
   id="midPointStop32"
   style="stop-color:#E5E5E5"
   offset="0.5" />
			<midPointStop
   id="midPointStop34"
   style="stop-color:#AE8C78"
   offset="1" />
		</linearGradient>
		 
		
			<linearGradient
   gradientTransform="matrix(0.000000,-0.250000,0.250000,0.000000,90.67820,74.86770)"
   y2="-91"
   x2="-19.1133"
   y1="-91"
   x1="-56.6133"
   gradientUnits="userSpaceOnUse"
   id="XMLID_13_">
			<stop
   id="stop39"
   style="stop-color:#EB0000"
   offset="0" />
			<stop
   id="stop41"
   style="stop-color:#EB1F1F"
   offset="0.0881" />
			<stop
   id="stop43"
   style="stop-color:#EA4343"
   offset="0.1839" />
			<stop
   id="stop45"
   style="stop-color:#EA6363"
   offset="0.2834" />
			<stop
   id="stop47"
   style="stop-color:#E98585"
   offset="0.3855" />
			<stop
   id="stop49"
   style="stop-color:#E8A6A6"
   offset="0.4895" />
			<stop
   id="stop51"
   style="stop-color:#E6C7C7"
   offset="0.5935" />
			<stop
   id="stop53"
   style="stop-color:#E5E5E5"
   offset="0.69" />
			<stop
   id="stop55"
   style="stop-color:#EB0000"
   offset="1" />
			<midPointStop
   id="midPointStop57"
   style="stop-color:#EB0000"
   offset="0" />
			<midPointStop
   id="midPointStop59"
   style="stop-color:#EB0000"
   offset="0.69" />
			<midPointStop
   id="midPointStop61"
   style="stop-color:#E5E5E5"
   offset="0.69" />
			<midPointStop
   id="midPointStop63"
   style="stop-color:#E5E5E5"
   offset="0.5" />
			<midPointStop
   id="midPointStop65"
   style="stop-color:#EB0000"
   offset="1" />
		</linearGradient>
		 
		
			<linearGradient
   gradientTransform="matrix(0.000000,-0.250000,0.250000,0.000000,92.51200,74.24220)"
   y2="-138.001"
   x2="-21.6152"
   y1="-138.001"
   x1="-59.1152"
   gradientUnits="userSpaceOnUse"
   id="XMLID_14_">
			<stop
   id="stop70"
   style="stop-color:#328ECA"
   offset="0" />
			<stop
   id="stop72"
   style="stop-color:#3B91CB"
   offset="0.0905" />
			<stop
   id="stop74"
   style="stop-color:#5498CD"
   offset="0.1888" />
			<stop
   id="stop76"
   style="stop-color:#6FA3D0"
   offset="0.291" />
			<stop
   id="stop78"
   style="stop-color:#8EB2D4"
   offset="0.3957" />
			<stop
   id="stop80"
   style="stop-color:#AEC3D9"
   offset="0.5025" />
			<stop
   id="stop82"
   style="stop-color:#CDD6E0"
   offset="0.6093" />
			<stop
   id="stop84"
   style="stop-color:#E5E5E5"
   offset="0.69" />
			<stop
   id="stop86"
   style="stop-color:#328ECA"
   offset="1" />
			<midPointStop
   id="midPointStop88"
   style="stop-color:#328ECA"
   offset="0" />
			<midPointStop
   id="midPointStop90"
   style="stop-color:#328ECA"
   offset="0.69" />
			<midPointStop
   id="midPointStop92"
   style="stop-color:#E5E5E5"
   offset="0.69" />
			<midPointStop
   id="midPointStop94"
   style="stop-color:#E5E5E5"
   offset="0.5" />
			<midPointStop
   id="midPointStop96"
   style="stop-color:#328ECA"
   offset="1" />
		</linearGradient>
		 
		
			<linearGradient
   gradientTransform="matrix(0.000000,-0.250000,0.250000,0.000000,92.92820,72.99220)"
   y2="-159.5"
   x2="-26.6152"
   y1="-159.5"
   x1="-64.1152"
   gradientUnits="userSpaceOnUse"
   id="XMLID_15_">
			<stop
   id="stop101"
   style="stop-color:#ACACAC"
   offset="0" />
			<stop
   id="stop103"
   style="stop-color:#B0B0B0"
   offset="0.1095" />
			<stop
   id="stop105"
   style="stop-color:#B9B9B9"
   offset="0.2287" />
			<stop
   id="stop107"
   style="stop-color:#C8C8C8"
   offset="0.3524" />
			<stop
   id="stop109"
   style="stop-color:#DADADA"
   offset="0.4792" />
			<stop
   id="stop111"
   style="stop-color:#F0F0F0"
   offset="0.6071" />
			<stop
   id="stop113"
   style="stop-color:#FFFFFF"
   offset="0.69" />
			<stop
   id="stop115"
   style="stop-color:#ACACAC"
   offset="1" />
			<midPointStop
   id="midPointStop117"
   style="stop-color:#ACACAC"
   offset="0" />
			<midPointStop
   id="midPointStop119"
   style="stop-color:#ACACAC"
   offset="0.69" />
			<midPointStop
   id="midPointStop121"
   style="stop-color:#FFFFFF"
   offset="0.69" />
			<midPointStop
   id="midPointStop123"
   style="stop-color:#FFFFFF"
   offset="0.5" />
			<midPointStop
   id="midPointStop125"
   style="stop-color:#ACACAC"
   offset="1" />
		</linearGradient>
		 
		
			<linearGradient
   gradientTransform="matrix(0.000000,-0.250000,0.250000,0.000000,93.09500,73.49220)"
   y2="-120.499"
   x2="-24.6152"
   y1="-120.499"
   x1="-62.1152"
   gradientUnits="userSpaceOnUse"
   id="XMLID_16_">
			<stop
   id="stop130"
   style="stop-color:#83695A"
   offset="0" />
			<stop
   id="stop132"
   style="stop-color:#876E5F"
   offset="0.0964" />
			<stop
   id="stop134"
   style="stop-color:#907B70"
   offset="0.2012" />
			<stop
   id="stop136"
   style="stop-color:#9E8F86"
   offset="0.31" />
			<stop
   id="stop138"
   style="stop-color:#B1A6A1"
   offset="0.4216" />
			<stop
   id="stop140"
   style="stop-color:#C6C0BD"
   offset="0.5353" />
			<stop
   id="stop142"
   style="stop-color:#DDDBDA"
   offset="0.6492" />
			<stop
   id="stop144"
   style="stop-color:#E5E5E5"
   offset="0.69" />
			<stop
   id="stop146"
   style="stop-color:#83695A"
   offset="1" />
			<midPointStop
   id="midPointStop148"
   style="stop-color:#83695A"
   offset="0" />
			<midPointStop
   id="midPointStop150"
   style="stop-color:#83695A"
   offset="0.69" />
			<midPointStop
   id="midPointStop152"
   style="stop-color:#E5E5E5"
   offset="0.69" />
			<midPointStop
   id="midPointStop154"
   style="stop-color:#E5E5E5"
   offset="0.5" />
			<midPointStop
   id="midPointStop156"
   style="stop-color:#83695A"
   offset="1" />
		</linearGradient>
		 
		
			 
		
		
		
			
		
		
		
		
		
		
		
		
		
		
		
		
		
		
		
		
		
		
		
	
			
			
			
			
			
			
			
		
				 
				
			</defs><sodipodi:namedview
   inkscape:cy="78.021178"
   inkscape:cx="62.945899"
   inkscape:zoom="4.2294481"
   inkscape:window-height="996"
   inkscape:window-width="1278"
   inkscape:pageshadow="2"
   inkscape:pageopacity="0.0"
   borderopacity="1.0"
   bordercolor="#666666"
   pagecolor="#ffffff"
   id="base"
   inkscape:window-x="0"
   inkscape:window-y="0"
   inkscape:current-layer="svg2" />
	<style
   type="text/css"
   id="style4">
	
	</style>
	<rect
   style="fill:#dedede;fill-opacity:1.0000000;fill-rule:evenodd;stroke:none;stroke-width:1.0000000pt;stroke-linecap:butt;stroke-linejoin:miter;stroke-opacity:1.0000000;overflow:visible"
   id="rect2413"
   width="184.25197"
   height="78.497238"
   x="-27.578548"
   y="100.52857" /><rect
   style="fill:#dedede;fill-opacity:1.0000000;fill-rule:evenodd;stroke:none;stroke-width:1.0000000pt;stroke-linecap:butt;stroke-linejoin:miter;stroke-opacity:1.0000000"
   id="rect1557"
   width="184.25197"
   height="92.683487"
   x="-27.190310"
   y="-0.43022752" /><line
   id="line7"
   y2="84.333000"
   x2="99.220001"
   y1="84.333000"
   x1="27.552999"
   style="fill:none;stroke:#000000;stroke-width:3.0000000" /><rect
   id="rect36"
   height="9.3750000"
   width="23.250000"
   style="fill:url(#XMLID_12_)"
   y="79.646004"
   x="49.428001" /><rect
   id="rect67"
   height="9.3750000"
   width="2.3250000"
   style="fill:url(#XMLID_13_)"
   y="79.646004"
   x="66.765999" /><rect
   id="rect98"
   height="9.3750000"
   width="2.3250000"
   style="fill:url(#XMLID_14_)"
   y="79.646004"
   x="56.848999" /><rect
   id="rect127"
   height="9.3750000"
   width="2.3250000"
   style="fill:url(#XMLID_15_)"
   y="79.646004"
   x="51.890999" /><rect
   id="rect158"
   height="9.3750000"
   width="2.3250000"
   style="fill:url(#XMLID_16_)"
   y="79.646004"
   x="61.807999" /><rect
   id="rect160"
   height="49.667000"
   width="54.000000"
   style="fill:none;stroke:#000000;stroke-width:0.50000000;stroke-linejoin:round;stroke-dasharray:2.0000000 "
   y="3.7700000"
   x="34.742001" /><g
   id="g162">
			<circle
   sodipodi:ry="2.5929999"
   sodipodi:rx="2.5929999"
   sodipodi:cy="47.540001"
   sodipodi:cx="42.221001"
   id="circle164"
   r="2.5929999"
   cy="47.540001"
   cx="42.221001"
   style="fill:#ffffff;stroke:#000000;stroke-width:0.50000000;stroke-linejoin:round" /> 
			<circle
   sodipodi:ry="2.5929999"
   sodipodi:rx="2.5929999"
   sodipodi:cy="47.542000"
   sodipodi:cx="80.449997"
   id="circle166"
   r="2.5929999"
   cy="47.542000"
   cx="80.449997"
   style="fill:#ffffff;stroke:#000000;stroke-width:0.50000000;stroke-linejoin:round" /> 
		</g><path
   id="path168"
   d="M 61.289000,11.213000 C 51.326000,11.213000 42.706000,16.940000 38.525000,25.279000 L 50.486000,30.967000 C 52.535000,27.093000 56.601000,24.451000 61.289000,24.451000 C 65.977000,24.451000 70.043000,27.093000 72.092000,30.967000 L 84.053000,25.279000 C 79.873000,16.940000 71.252000,11.213000 61.289000,11.213000 z "
   style="fill:none;stroke:#000000;stroke-width:0.50000000;stroke-linejoin:round;stroke-dasharray:2.0000000" /><line
   id="line170"
   y2="18.187000"
   x2="68.388000"
   y1="35.437000"
   x1="61.638000"
   style="fill:#ffffff;stroke:#000000;stroke-width:0.50000000;stroke-linejoin:round" /><path
   id="path172"
   d="M 63.335000,31.175000 C 65.579000,32.216000 66.555000,34.879000 65.514000,37.123000 C 64.577000,39.143000 62.181000,40.021000 60.160000,39.084000 C 58.342000,38.241000 57.552000,36.084000 58.395000,34.266000 C 59.154000,32.630000 61.095000,31.918000 62.731000,32.677000 C 64.203000,33.360000 64.843000,35.107000 64.161000,36.579000 C 63.546000,37.905000 61.974000,38.481000 60.649000,37.866000 C 59.456000,37.313000 58.938000,35.898000 59.491000,34.705000 C 59.989000,33.632000 61.262000,33.165000 62.336000,33.663000 C 63.302000,34.111000 63.722000,35.257000 63.274000,36.223000 C 62.871000,37.093000 61.839000,37.471000 60.970000,37.067000 C 60.187000,36.704000 59.847000,35.775000 60.210000,34.993000 C 60.537000,34.289000 61.372000,33.983000 62.076000,34.309000 C 62.710000,34.603000 62.986000,35.355000 62.692000,35.989000 C 62.427000,36.559000 61.751000,36.807000 61.180000,36.543000"
   style="fill:none;stroke:#000000;stroke-width:0.30000001;stroke-linejoin:round" /><path
   id="path174"
   d="M 74.262000,37.792000 C 71.439000,36.151000 74.843000,32.365000 76.332000,33.230000 C 77.821000,34.095000 75.953000,38.774000 73.207000,37.178000"
   style="fill:none;stroke:#000000;stroke-width:0.50000000;stroke-miterlimit:1.0000000" /><path
   id="path176"
   d="M 73.207000,37.179000 C 70.384000,35.537000 73.788000,31.752000 75.277000,32.617000 C 76.766000,33.483000 74.898000,38.161000 72.152000,36.565000"
   style="fill:none;stroke:#000000;stroke-width:0.50000000;stroke-miterlimit:1.0000000" /><path
   id="path178"
   d="M 72.151000,36.565000 C 69.328000,34.924000 72.732000,31.138000 74.221000,32.004000 C 75.710000,32.869000 73.842000,37.548000 71.096000,35.952000"
   style="fill:none;stroke:#000000;stroke-width:0.50000000;stroke-miterlimit:1.0000000" /><path
   id="path180"
   d="M 71.096000,35.952000 C 68.273000,34.311000 71.677000,30.525000 73.166000,31.391000 C 74.655000,32.256000 72.787000,36.935000 70.041000,35.339000"
   style="fill:none;stroke:#000000;stroke-width:0.50000000;stroke-miterlimit:1.0000000" /><path
   id="path182"
   d="M 70.041000,35.338000 C 67.218000,33.697000 70.622000,29.911000 72.111000,30.776000 C 73.600000,31.641000 71.732000,36.320000 68.986000,34.724000"
   style="fill:none;stroke:#000000;stroke-width:0.50000000;stroke-miterlimit:1.0000000" /><path
   id="path184"
   d="M 68.986000,34.725000 C 66.163000,33.084000 69.567000,29.298000 71.056000,30.164000 C 72.545000,31.030000 70.677000,35.708000 67.931000,34.112000"
   style="fill:none;stroke:#000000;stroke-width:0.50000000;stroke-miterlimit:1.0000000" /><path
   id="path186"
   d="M 67.931000,34.111000 C 65.107000,32.470000 68.512000,28.684000 70.001000,29.550000 C 71.490000,30.415000 69.622000,35.094000 66.876000,33.498000"
   style="fill:none;stroke:#000000;stroke-width:0.50000000;stroke-miterlimit:1.0000000" /><path
   id="path188"
   d="M 66.875000,33.498000 C 64.052000,31.857000 67.456000,28.071000 68.945000,28.937000 C 70.434000,29.802000 68.566000,34.481000 65.820000,32.885000"
   style="fill:none;stroke:#000000;stroke-width:0.50000000;stroke-miterlimit:1.0000000" /><path
   id="path190"
   d="M 74.262000,37.792000 C 76.450000,38.792000 80.350000,42.606000 80.450000,44.949000"
   style="fill:none;stroke:#000000;stroke-width:0.50000000;stroke-miterlimit:1.0000000" /><path
   id="path192"
   d="M 66.795000,47.503000 C 73.342000,47.125000 67.175000,36.229000 66.675000,33.854000 L 66.237000,33.104000"
   style="fill:none;stroke:#000000;stroke-width:0.50000000;stroke-miterlimit:1.0000000" /><polyline
   id="polyline194"
   points="44.889,47.503 51.806,47.503     52.712,45.576 53.795,48.837 55.243,45.576 56.462,48.826 57.743,45.545 59.087,48.795 60.118,45.639 60.962,47.503     66.795,47.503 "
   style="fill:none;stroke:#000000;stroke-width:0.50000000;stroke-miterlimit:1.0000000" /><polygon
   id="polygon196"
   points="83.979000,78.778000 81.663000,83.157000 83.102000,78.417000 83.979000,78.778000 " /><polygon
   id="polygon198"
   points="37.553000,78.333000 37.325000,83.282000 36.605000,78.381000 37.553000,78.333000 " /><path
   id="path200"
   d="M 39.793000,49.677000 C 34.460000,53.115000 36.777000,70.525000 36.886000,79.667000"
   style="fill:none;stroke:#b4b4b4;stroke-width:3.0000000;stroke-linejoin:round" /><path
   id="path202"
   d="M 82.637000,49.042000 C 90.304000,57.042000 84.970000,75.042000 83.304000,78.709000"
   style="fill:none;stroke:#404040;stroke-width:3.0000000" /><g
   id="g206">
				<polyline
   style="fill:none;stroke:#000000;stroke-miterlimit:1.0000000"
   points="64.622,133.38 106.488,133.38 106.488,157.255       84.075,157.255 79.789,157.255 72.95,157.255 71.263,153.526 69.2,159.839 66.513,153.339 63.95,159.901 61.513,153.401       58.617,159.922 56.45,153.401 54.638,157.255 49.836,157.255 44.888,157.255 25.238,157.255 25.238,133.38 30.384,133.38 "
   id="polyline208" />
			</g><g
   id="g210">
				<polyline
   style="fill:none;stroke:#000000;stroke-miterlimit:1.0000000"
   points="25.353,133.443 30.3,133.443 35.103,133.443       36.915,129.589 39.082,136.109 41.978,129.589 44.415,136.089 46.978,129.526 49.665,136.026 51.728,129.714 53.415,133.443       60.253,133.443 64.54,133.443 "
   id="polyline212" />
			</g><g
   id="g214">
				<text
   transform="translate(39.52200,125.2085)"
   id="text216"><tspan
     x="0"
     y="0"
     style="font-size:7.6500001px;font-family:Liberation Sans"
     id="tspan218">R</tspan></text>

				<text
   transform="translate(46.02150,128.2085)"
   id="text220"><tspan
     x="0"
     y="0"
     style="font-size:5.9499998px;font-family:Liberation Sans"
     id="tspan222">v</tspan></text>

			</g><g
   id="g224">
				<text
   transform="translate(60.52200,168.6255)"
   id="text226"><tspan
     x="0"
     y="0"
     style="font-size:7.6500001px;font-family:Liberation Sans"
     id="tspan228">R</tspan></text>

			</g><line
   style="fill:none;stroke:#000000;stroke-miterlimit:1.0000000"
   x1="25.097000"
   y1="144.84000"
   x2="15.847000"
   y2="144.84000"
   id="line230" /><line
   style="fill:none;stroke:#000000;stroke-miterlimit:1.0000000"
   x1="116.13900"
   y1="144.84000"
   x2="106.88900"
   y2="144.84000"
   id="line232" /><circle
   sodipodi:ry="9.7229996"
   sodipodi:rx="9.7229996"
   sodipodi:cy="133.33299"
   sodipodi:cx="84.831001"
   id="circle236"
   r="9.7229996"
   cy="133.33299"
   cx="84.831001"
   style="fill:#dedede;stroke:#000000;stroke-miterlimit:1.0000000;fill-opacity:1.0000000" /><g
   id="g238">
					<text
   id="text240"
   transform="translate(81.49560,136.9331)"><tspan
     id="tspan242"
     style="font-size:8.5000000px;font-family:Liberation Sans"
     y="0"
     x="0">A</tspan></text>

				</g><g
   id="g244"
   transform="translate(-15.60487,-7.938095e-15)">
			<text
   id="text246"
   transform="translate(0.000000,10.00000)"><tspan
     id="tspan248"
     style="font-size:8.5000000px;font-family:Liberation Sans"
     y="0"
     x="0">1</tspan></text>

		</g><g
   id="g250"
   transform="translate(-15.60487,-7.938095e-15)">
			<text
   id="text252"
   transform="translate(0.000000,122.9331)"><tspan
     id="tspan254"
     style="font-size:8.5000000px;font-family:Liberation Sans"
     y="0"
     x="0">2</tspan></text>

		</g>
</svg>