<?xml version="1.0" encoding="UTF-8" standalone="no"?>
<!-- Generator: Adobe Illustrator 11 Build 196, SVG Export Plug-In . SVG Version: 6.0.0 Build 78)  -->

<svg
   xmlns:dc="http://purl.org/dc/elements/1.1/"
   xmlns:cc="http://creativecommons.org/ns#"
   xmlns:rdf="http://www.w3.org/1999/02/22-rdf-syntax-ns#"
   xmlns:svg="http://www.w3.org/2000/svg"
   xmlns="http://www.w3.org/2000/svg"
   xmlns:sodipodi="http://sodipodi.sourceforge.net/DTD/sodipodi-0.dtd"
   xmlns:inkscape="http://www.inkscape.org/namespaces/inkscape"
   width="87.439"
   height="83.728"
   viewBox="0 0 87.439 83.728"
   style="overflow:visible;enable-background:new 0 0 87.439 83.728"
   xml:space="preserve"
   id="svg2"
   version="1.1"
   sodipodi:docname="hw-battery-and-bulb.svg"><metadata
     id="metadata37"><rdf:RDF><cc:Work
         rdf:about=""><dc:format>image/svg+xml</dc:format><dc:type
           rdf:resource="http://purl.org/dc/dcmitype/StillImage" /></cc:Work></rdf:RDF></metadata><defs
     id="defs35" /><sodipodi:namedview
     pagecolor="#ffffff"
     bordercolor="#666666"
     borderopacity="1"
     objecttolerance="10"
     gridtolerance="10"
     guidetolerance="10"
     inkscape:pageopacity="0"
     inkscape:pageshadow="2"
     inkscape:window-width="640"
     inkscape:window-height="480"
     id="namedview33"
     showgrid="false"
     inkscape:zoom="2.818651"
     inkscape:cx="43.719501"
     inkscape:cy="41.863998"
     inkscape:window-x="0"
     inkscape:window-y="0"
     inkscape:window-maximized="0"
     inkscape:current-layer="svg2" /><g
     id="g5"
     transform="matrix(0.1103992,-0.99388733,0.99388733,0.1103992,-6.1659297,98.257751)"
     inkscape:transform-center-x="-4.6121354"
     inkscape:transform-center-y="15.610304"><circle
       sodipodi:ry="7.513"
       sodipodi:rx="7.513"
       sodipodi:cy="50.727001"
       sodipodi:cx="68.903"
       id="circle7"
       r="7.513"
       cy="50.727001"
       cx="68.903"
       style="fill:#ffffff;stroke:#000000"
       d="m 76.416,50.727001 c 0,4.149316 -3.363685,7.513 -7.513,7.513 -4.149315,0 -7.513,-3.363684 -7.513,-7.513 0,-4.149315 3.363685,-7.513 7.513,-7.513 4.149315,0 7.513,3.363685 7.513,7.513 z" /><path
       inkscape:connector-curvature="0"
       id="path9"
       d="m 65.342,61.04 c 5.625,-8.75 6.875,-14.375 3.75,-14.375 -3.125,0 -4.062,6.562 2.5,15"
       style="fill:none;stroke:#000000" /><rect
       id="rect11"
       height="15"
       width="9.375"
       style="fill:#ffffff;stroke:#000000"
       y="56.665001"
       x="64.092003" /><line
       id="line13"
       y2="59.165001"
       x2="72.217003"
       y1="58.540001"
       x1="65.342003"
       style="fill:#ffffff;stroke:#000000" /><line
       id="line15"
       y2="61.665001"
       x2="72.217003"
       y1="61.040001"
       x1="65.342003"
       style="fill:#ffffff;stroke:#000000" /><line
       id="line17"
       y2="64.165001"
       x2="72.217003"
       y1="63.540001"
       x1="65.342003"
       style="fill:#ffffff;stroke:#000000" /><line
       id="line19"
       y2="66.665001"
       x2="72.217003"
       y1="66.040001"
       x1="65.342003"
       style="fill:#ffffff;stroke:#000000" /><line
       id="line21"
       y2="69.165001"
       x2="72.217003"
       y1="68.540001"
       x1="65.342003"
       style="fill:#ffffff;stroke:#000000" /><polygon
       id="polygon23"
       points="69.717,74.478 67.529,74.478 65.967,71.978 71.279,71.978 " /></g><g
     id="g25"
     transform="matrix(-0.07603032,-0.99710551,0.99710551,-0.07603032,-43.851715,60.203803)"><rect
       id="rect27"
       height="2.812"
       width="3.75"
       style="fill:#ffffff;stroke:#000000"
       y="45.415001"
       x="18.622999" /><rect
       id="rect29"
       height="35.312"
       width="23.125"
       style="fill:#b4b4b4;stroke:#000000"
       y="47.915001"
       x="8.9359999" /></g><path
     inkscape:connector-curvature="0"
     id="path31"
     d="m 1.123,0.995 c 29.062,32.812 49.688,2.812 58.125,10.312 8.437,7.5 27.188,24.375 27.188,24.375"
     style="fill:none;stroke:#000000;stroke-width:3" /></svg>