<?xml version="1.0" encoding="iso-8859-1"?>
<!-- Generator: Adobe Illustrator 11 Build 196, SVG Export Plug-In . SVG Version: 6.0.0 Build 78)  -->
<!DOCTYPE svg PUBLIC "-//W3C//DTD SVG 1.0//EN"    "http://www.w3.org/TR/2001/REC-SVG-20010904/DTD/svg10.dtd" [
	<!ENTITY ns_flows "http://ns.adobe.com/Flows/1.0/">
	<!ENTITY ns_svg "http://www.w3.org/2000/svg">
	<!ENTITY ns_xlink "http://www.w3.org/1999/xlink">
]>
<svg  
	 width="150.198" height="126.923" viewBox="0 0 150.198 126.923"
	 style="overflow:visible;enable-background:new 0 0 150.198 126.923" xml:space="preserve">
	<style type="text/css">
	
	</style>
	<g id="Layer_1">
		<polyline style="fill:none;stroke:#000000;stroke-miterlimit:1;" points="103.183,44.789 97.91,44.789 89.573,44.789 "/>
		<line style="fill:none;stroke:#000000;stroke-miterlimit:1;" x1="63.636" y1="44.789" x2="48.662" y2="44.789"/>
		<polyline style="fill:none;stroke:#000000;stroke-miterlimit:1;" points="97.368,44.789 104.53,44.789 109.448,44.789 "/>
		<polyline style="fill:none;stroke:#000000;stroke-miterlimit:1;" points="136.576,44.789 146.645,44.789 146.645,110.729 "/>
		<polyline style="fill:none;stroke:#000000;stroke-miterlimit:1;" points="67.323,80.852 49.123,80.919 49.123,44.789 "/>
		<polyline style="fill:none;stroke:#000000;stroke-miterlimit:1;" points="0,59.981 5.932,59.981 13.323,59.981 "/>
		<polyline style="fill:none;stroke:#000000;stroke-miterlimit:1;" points="36.066,59.981 42.774,59.981 49.43,59.981 "/>
		<polyline style="fill:none;stroke:#000000;stroke-miterlimit:1;" points="99.553,45.17 99.553,26.157 57.198,26.157 "/>
		<polyline style="fill:none;stroke:#000000;stroke-miterlimit:1;" points="31.073,26.157 0.538,26.157 0.538,110.729 
			33.198,110.729 "/>
		<line style="fill:none;stroke:#000000;stroke-miterlimit:1;" x1="38.198" y1="110.729" x2="83.532" y2="110.729"/>
		<line style="fill:none;stroke:#000000;stroke-miterlimit:1;" x1="108.198" y1="110.729" x2="146.908" y2="110.729"/>
		<line style="fill:none;stroke:#000000;stroke-miterlimit:1;" x1="37.836" y1="115.076" x2="37.836" y2="106.466"/>
		<line style="fill:none;stroke:#000000;stroke-miterlimit:1;" x1="33.532" y1="119.996" x2="33.532" y2="100.316"/>
		<g>
			<circle style="fill:none;stroke:#000000;stroke-miterlimit:1;" cx="43.928" cy="19.993" r="7.778"/> 
			<path style="fill:none;stroke:#000000;stroke-miterlimit:1;" d="M57.455,26.289c-18.383-0.617-16.571-8.629-13.526-8.629
				c2.884,0,4.524,7.051-9.938,8.309c0,0-1.792,0.073-2.917,0.073"/>
		</g>
		<g>
			<circle style="fill:none;stroke:#000000;stroke-miterlimit:1;" cx="23.893" cy="54.538" r="7"/> 
			<path style="fill:none;stroke:#000000;stroke-miterlimit:1;" d="M36.066,60.205c-16.544-0.555-14.914-7.766-12.173-7.766
				c2.596,0,4.071,6.346-8.944,7.478c0,0-1.613,0.065-2.625,0.065"/>
		</g>
		<g>
			<circle style="fill:none;stroke:#000000;stroke-miterlimit:1;" cx="76.071" cy="38.521" r="7.778"/> 
			<path style="fill:none;stroke:#000000;stroke-miterlimit:1;" d="M89.597,44.816c-18.383-0.617-16.571-8.629-13.526-8.629
				c2.884,0,4.524,7.051-9.938,8.309c0,0-1.792,0.073-2.917,0.073"/>
		</g>
		<g>
			<circle style="fill:none;stroke:#000000;stroke-miterlimit:1;" cx="123.016" cy="38.083" r="8.556"/> 
			<path style="fill:none;stroke:#000000;stroke-miterlimit:1;" d="M137.895,45.008c-20.221-0.679-18.228-9.492-14.879-9.492
				c3.173,0,4.977,7.756-10.932,9.14c0,0-1.971,0.08-3.209,0.08"/>
		</g>
		<polyline style="fill:none;stroke:#000000;stroke-miterlimit:1;" points="106.235,80.789 97.91,80.789 85.323,80.789 "/>
		<g>
			<circle style="fill:none;stroke:#000000;stroke-miterlimit:1;" cx="76.173" cy="76.333" r="5.445"/> 
			<path style="fill:none;stroke:#000000;stroke-miterlimit:1;" d="M85.642,80.74c-12.868-0.432-11.6-6.041-9.468-6.041
				c2.019,0,3.167,4.936-6.957,5.816c0,0-1.254,0.051-2.042,0.051"/>
		</g>
		<g>
			<circle style="fill:none;stroke:#000000;stroke-miterlimit:1;" cx="122.947" cy="72.708" r="10.112"/> 
			<path style="fill:none;stroke:#000000;stroke-miterlimit:1;" d="M140.531,80.893c-23.898-0.802-21.542-11.218-17.584-11.218
				c3.749,0,5.881,9.166-12.92,10.802c0,0-2.33,0.095-3.792,0.095"/>
		</g>
		<line style="fill:none;" x1="150.198" y1="71.667" x2="150.198" y2="91.667"/>
		<line style="fill:none;stroke:#000000;stroke-miterlimit:1;" x1="140.531" y1="81.004" x2="146.511" y2="80.979"/>
		<g>
			<line style="fill:none;stroke:#000000;stroke-miterlimit:1;" x1="14.532" y1="66" x2="29.532" y2="65.667"/>
			<path d="M32.548,65.6c-1.408,0.558-3.149,1.496-4.219,2.472l0.807-2.396l-0.913-2.357C29.336,64.245,31.117,65.104,32.548,65.6z"
				/>
		</g>
		<g>
			<text transform="matrix(1 0 0 1 10.8647 75.6665)"><tspan x="0" y="0" style="font-family:Liberation Sans; font-size:7.650000;">300 mA</tspan></text>
		</g>
		<g>
			<line style="fill:none;stroke:#000000;stroke-miterlimit:1;" x1="66.865" y1="49.667" x2="81.865" y2="49.333"/>
			<path d="M84.882,49.266c-1.408,0.558-3.149,1.496-4.22,2.472l0.807-2.396l-0.913-2.357
				C81.669,47.912,83.451,48.771,84.882,49.266z"/>
		</g>
		<g>
			<text transform="matrix(1 0 0 1 63.1982 59.333)"><tspan x="0" y="0" style="font-family:Liberation Sans; font-size:7.650000;">200 mA</tspan></text>
		</g>
		<g>
			<line style="fill:none;stroke:#000000;stroke-miterlimit:1;" x1="113.865" y1="49.667" x2="128.865" y2="49.333"/>
			<path d="M131.882,49.266c-1.408,0.558-3.149,1.496-4.22,2.472l0.807-2.396l-0.913-2.357
				C128.669,47.912,130.451,48.771,131.882,49.266z"/>
		</g>
		<g>
			<text transform="matrix(1 0 0 1 110.1982 59.333)"><tspan x="0" y="0" style="font-family:Liberation Sans; font-size:7.650000;">500 mA</tspan></text>
		</g>
		<g>
			<text transform="matrix(1 0 0 1 41.5317 9)"><tspan x="0" y="0" style="font-family:Liberation Sans; font-size:7.650000;">A</tspan></text>
		</g>
		<g>
			<text transform="matrix(1 0 0 1 73.5317 90.6665)"><tspan x="0" y="0" style="font-family:Liberation Sans; font-size:7.650000;">B</tspan></text>
		</g>
		<g>
			<text transform="matrix(1 0 0 1 119.1982 92.333)"><tspan x="0" y="0" style="font-family:Liberation Sans; font-size:7.650000;">C</tspan></text>
		</g>
		<g>
			<circle style="fill:none;stroke:#000000;stroke-miterlimit:1;" cx="95.446" cy="104.833" r="7.778"/> 
			<path style="fill:none;stroke:#000000;stroke-miterlimit:1;" d="M108.972,111.129c-18.383-0.617-16.571-8.629-13.526-8.629
				c2.884,0,4.524,7.051-9.938,8.309c0,0-1.792,0.073-2.917,0.073"/>
		</g>
		<g>
			<text transform="matrix(1 0 0 1 91.7827 122.9062)"><tspan x="0" y="0" style="font-family:Liberation Sans; font-size:7.650000;">D</tspan></text>
		</g>
	</g>
</svg>
