<?xml version="1.0" encoding="iso-8859-1"?>
<!-- Generator: Adobe Illustrator 11 Build 196, SVG Export Plug-In . SVG Version: 6.0.0 Build 78)  -->
<!DOCTYPE svg PUBLIC "-//W3C//DTD SVG 1.0//EN"    "http://www.w3.org/TR/2001/REC-SVG-20010904/DTD/svg10.dtd" [
	<!ENTITY ns_flows "http://ns.adobe.com/Flows/1.0/">
	<!ENTITY ns_svg "http://www.w3.org/2000/svg">
	<!ENTITY ns_xlink "http://www.w3.org/1999/xlink">
]>
<svg  
	 width="147.401" height="156.326" viewBox="0 0 147.401 156.326"
	 style="overflow:visible;enable-background:new 0 0 147.401 156.326" xml:space="preserve">
	<g id="Layer_1">
		<g>
			<line style="fill:none;stroke:#000000;stroke-width:0.5;" x1="68.194" y1="156.326" x2="68.194" y2="119.876"/>
			<line style="fill:none;stroke:#000000;stroke-width:0.5;" x1="75.45" y1="146.707" x2="75.45" y2="128.482"/>
		</g>
		<polyline style="fill:none;stroke:#000000;stroke-width:0.5;" points="75.45,137.711 113.419,137.711 113.419,24.333 "/>
		<polyline style="fill:none;stroke:#000000;stroke-width:0.5;" points="41.019,24.472 32.756,24.472 32.756,123.337 "/>
		<polyline style="fill:none;stroke:#000000;stroke-width:0.5;" points="32.869,119.737 32.869,137.711 68.109,137.711 "/>
		<line style="fill:none;stroke:#000000;stroke-width:0.5;" x1="106.382" y1="24.472" x2="113.419" y2="24.472"/>
		<g>
			<path style="fill:none;stroke:#000000;stroke-width:0.5;" d="M94.582,5.964c9.42,0,8.121,18.45-7.146,18.45h-4.419"/>
			<path style="fill:none;stroke:#000000;stroke-width:0.5;" d="M94.667,5.964c-9.42,0-8.121,18.45,7.146,18.45h4.984"/>
			<circle style="fill:none;stroke:#000000;stroke-width:0.5;" cx="94.569" cy="13.614" r="13.364"/> 
		</g>
		<g>
			<path style="fill:none;stroke:#000000;stroke-width:0.5;" d="M52.226,5.964c9.42,0,8.121,18.45-7.146,18.45h-4.42"/>
			<path style="fill:none;stroke:#000000;stroke-width:0.5;" d="M52.311,5.964c-9.42,0-8.121,18.45,7.146,18.45h4.984h18.575"/>
			<circle style="fill:none;stroke:#000000;stroke-width:0.5;" cx="52.213" cy="13.614" r="13.364"/> 
		</g>
		<g>
			<path style="fill:none;stroke:#000000;stroke-width:0.5;" d="M52.654,64.69c9.42,0,8.121,18.45-7.146,18.45h-4.419h-8.282"/>
			<path style="fill:none;stroke:#000000;stroke-width:0.5;" d="M52.739,64.69c-9.42,0-8.121,18.45,7.146,18.45h4.984h6.919"/>
			<circle style="fill:none;stroke:#000000;stroke-width:0.5;" cx="52.642" cy="72.34" r="13.364"/> 
		</g>
		<g>
			<path style="fill:none;stroke:#000000;stroke-width:0.5;" d="M91.607,48.04c9.42,0,8.121,18.45-7.146,18.45h-4.419h-8.253v34.51"
				/>
			<path style="fill:none;stroke:#000000;stroke-width:0.5;" d="M91.692,48.04c-9.42,0-8.121,18.45,7.146,18.45h4.984h9.731"/>
			<circle style="fill:none;stroke:#000000;stroke-width:0.5;" cx="91.595" cy="55.69" r="13.364"/> 
		</g>
		<g>
			<path style="fill:none;stroke:#000000;stroke-width:0.5;" d="M91.607,82.549c9.42,0,8.121,18.45-7.146,18.45h-4.419h-8.253"/>
			<path style="fill:none;stroke:#000000;stroke-width:0.5;" d="M91.692,82.549c-9.42,0-8.121,18.45,7.146,18.45h4.984h9.731"/>
			<circle style="fill:none;stroke:#000000;stroke-width:0.5;" cx="91.595" cy="90.199" r="13.365"/> 
		</g>
		<circle style="stroke:#000000;stroke-width:0.5;" cx="59.5" cy="137.741" r="1.414"/> 
		<rect y="78.968" style="fill:none;" width="147.401" height="2.834"/> 
	</g>
</svg>
