<?xml version="1.0" encoding="UTF-8" standalone="no"?>
<!-- Generator: Adobe Illustrator 11 Build 196, SVG Export Plug-In . SVG Version: 6.0.0 Build 78)  -->
<svg
   xmlns:dc="http://purl.org/dc/elements/1.1/"
   xmlns:cc="http://web.resource.org/cc/"
   xmlns:rdf="http://www.w3.org/1999/02/22-rdf-syntax-ns#"
   xmlns:svg="http://www.w3.org/2000/svg"
   xmlns="http://www.w3.org/2000/svg"
   xmlns:sodipodi="http://inkscape.sourceforge.net/DTD/sodipodi-0.dtd"
   xmlns:inkscape="http://www.inkscape.org/namespaces/inkscape"
   width="150.198"
   height="98.261"
   viewBox="0 0 150.198 98.261"
   style="overflow:visible;enable-background:new 0 0 150.198 98.261"
   xml:space="preserve"
   id="svg2"
   sodipodi:version="0.32"
   sodipodi:docname="hw-network.svg"
   sodipodi:docbase="/home/bcrowell/Documents/writing/books/physics/9share/em-dc"><metadata
   id="metadata76"><rdf:RDF><cc:Work
       rdf:about=""><dc:format>image/svg+xml</dc:format><dc:type
         rdf:resource="http://purl.org/dc/dcmitype/StillImage" /></cc:Work></rdf:RDF></metadata><defs
   id="defs74">
		
		
		
		
		
		
		
		
		
		
		
		
		
		
		
		
		
		
		
		
		
		
	</defs><sodipodi:namedview
   inkscape:window-height="520"
   inkscape:window-width="819"
   inkscape:pageshadow="2"
   inkscape:pageopacity="0.0"
   borderopacity="1.0"
   bordercolor="#666666"
   pagecolor="#ffffff"
   id="base"
   inkscape:zoom="3.5008803"
   inkscape:cx="75.098999"
   inkscape:cy="26.279105"
   inkscape:window-x="32"
   inkscape:window-y="32"
   inkscape:current-layer="svg2" />
	<polyline
   id="polyline5"
   points="103.183,33.074 97.91,33.074 89.573,33.074 "
   style="fill:none;stroke:#000000;stroke-miterlimit:1.0000000" /><line
   id="line7"
   y2="33.074001"
   x2="48.661999"
   y1="33.074001"
   x1="63.636002"
   style="fill:none;stroke:#000000;stroke-miterlimit:1.0000000" /><polyline
   id="polyline9"
   points="97.368,33.074 104.53,33.074 111.198,33.074 "
   style="fill:none;stroke:#000000;stroke-miterlimit:1.0000000" /><polyline
   id="polyline11"
   points="136.576,33.074 146.645,33.074 146.645,87.806 "
   style="fill:none;stroke:#000000;stroke-miterlimit:1.0000000" /><polyline
   id="polyline13"
   points="63.448,63.575 49.123,63.642 49.123,32.61 "
   style="fill:none;stroke:#000000;stroke-miterlimit:1.0000000" /><polyline
   id="polyline15"
   points="0,48.267 5.932,48.267 11.261,48.267 "
   style="fill:none;stroke:#000000;stroke-miterlimit:1.0000000" /><polyline
   id="polyline17"
   points="37.323,48.267 42.774,48.267 49.43,48.267 "
   style="fill:none;stroke:#000000;stroke-miterlimit:1.0000000" /><polyline
   id="polyline19"
   points="99.553,33.455 99.553,14.442 57.198,14.442 "
   style="fill:none;stroke:#000000;stroke-miterlimit:1.0000000" /><polyline
   id="polyline21"
   points="31.073,14.442 0.538,14.442 0.538,87.806 76.875,87.806     "
   style="fill:none;stroke:#000000;stroke-miterlimit:1.0000000" /><line
   id="line23"
   y2="87.806000"
   x2="146.90800"
   y1="87.806000"
   x1="81.102997"
   style="fill:none;stroke:#000000;stroke-miterlimit:1.0000000" /><g
   id="g1408"
   transform="matrix(-1.000000,0.000000,0.000000,-1.000000,157.9010,175.6989)"><line
     style="fill:none;stroke:#000000;stroke-miterlimit:1.0000000"
     x1="76.797997"
     y1="83.500999"
     x2="76.797997"
     y2="92.111000"
     id="line25" /><line
     style="fill:none;stroke:#000000;stroke-miterlimit:1.0000000"
     x1="81.102997"
     y1="78.581001"
     x2="81.102997"
     y2="98.261002"
     id="line27" /></g><g
   id="g29">
			<circle
   sodipodi:ry="7.7779999"
   sodipodi:rx="7.7779999"
   sodipodi:cy="8.2779999"
   sodipodi:cx="43.928001"
   id="circle31"
   r="7.7779999"
   cy="8.2779999"
   cx="43.928001"
   style="fill:none;stroke:#000000;stroke-miterlimit:1.0000000" /> 
			<path
   id="path33"
   d="M 57.455000,14.574000 C 39.072000,13.957000 40.884000,5.9450000 43.929000,5.9450000 C 46.813000,5.9450000 48.453000,12.996000 33.991000,14.254000 C 33.991000,14.254000 32.199000,14.327000 31.074000,14.327000"
   style="fill:none;stroke:#000000;stroke-miterlimit:1.0000000" />
		</g><g
   id="g35">
			<circle
   sodipodi:ry="7.7779999"
   sodipodi:rx="7.7779999"
   sodipodi:cy="42.077000"
   sodipodi:cx="23.988001"
   id="circle37"
   r="7.7779999"
   cy="42.077000"
   cx="23.988001"
   style="fill:none;stroke:#000000;stroke-miterlimit:1.0000000" /> 
			<path
   id="path39"
   d="M 37.514000,48.373000 C 19.131000,47.756000 20.943000,39.744000 23.988000,39.744000 C 26.872000,39.744000 28.512000,46.795000 14.050000,48.053000 C 14.050000,48.053000 12.258000,48.126000 11.133000,48.126000"
   style="fill:none;stroke:#000000;stroke-miterlimit:1.0000000" />
		</g><g
   id="g41">
			<circle
   sodipodi:ry="7.7779999"
   sodipodi:rx="7.7779999"
   sodipodi:cy="26.993000"
   sodipodi:cx="76.070999"
   id="circle43"
   r="7.7779999"
   cy="26.993000"
   cx="76.070999"
   style="fill:none;stroke:#000000;stroke-miterlimit:1.0000000" /> 
			<path
   id="path45"
   d="M 89.597000,33.289000 C 71.214000,32.672000 73.026000,24.660000 76.071000,24.660000 C 78.955000,24.660000 80.595000,31.711000 66.133000,32.969000 C 66.133000,32.969000 64.341000,33.042000 63.216000,33.042000"
   style="fill:none;stroke:#000000;stroke-miterlimit:1.0000000" />
		</g><g
   id="g47">
			<circle
   sodipodi:ry="7.7779999"
   sodipodi:rx="7.7779999"
   sodipodi:cy="26.993000"
   sodipodi:cx="123.05000"
   id="circle49"
   r="7.7779999"
   cy="26.993000"
   cx="123.05000"
   style="fill:none;stroke:#000000;stroke-miterlimit:1.0000000" /> 
			<path
   id="path51"
   d="M 136.57600,33.289000 C 118.19300,32.672000 120.00500,24.660000 123.05000,24.660000 C 125.93400,24.660000 127.57400,31.711000 113.11200,32.969000 C 113.11200,32.969000 111.32000,33.042000 110.19500,33.042000"
   style="fill:none;stroke:#000000;stroke-miterlimit:1.0000000" />
		</g><polyline
   id="polyline53"
   points="103.183,63.512 97.91,63.512 89.573,63.512 "
   style="fill:none;stroke:#000000;stroke-miterlimit:1.0000000" /><polyline
   id="polyline55"
   points="97.368,63.512 104.53,63.512 111.198,63.512 "
   style="fill:none;stroke:#000000;stroke-miterlimit:1.0000000" /><g
   id="g57">
			<circle
   sodipodi:ry="7.7779999"
   sodipodi:rx="7.7779999"
   sodipodi:cy="57.431000"
   sodipodi:cx="76.070999"
   id="circle59"
   r="7.7779999"
   cy="57.431000"
   cx="76.070999"
   style="fill:none;stroke:#000000;stroke-miterlimit:1.0000000" /> 
			<path
   id="path61"
   d="M 89.597000,63.727000 C 71.214000,63.110000 73.026000,55.098000 76.071000,55.098000 C 78.955000,55.098000 80.595000,62.149000 66.133000,63.407000 C 66.133000,63.407000 64.341000,63.480000 63.216000,63.480000"
   style="fill:none;stroke:#000000;stroke-miterlimit:1.0000000" />
		</g><g
   id="g63">
			<circle
   sodipodi:ry="7.7779999"
   sodipodi:rx="7.7779999"
   sodipodi:cy="57.431000"
   sodipodi:cx="123.05000"
   id="circle65"
   r="7.7779999"
   cy="57.431000"
   cx="123.05000"
   style="fill:none;stroke:#000000;stroke-miterlimit:1.0000000" /> 
			<path
   id="path67"
   d="M 136.57600,63.727000 C 118.19300,63.110000 120.00500,55.098000 123.05000,55.098000 C 125.93400,55.098000 127.57400,62.149000 113.11200,63.407000 C 113.11200,63.407000 111.32000,63.480000 110.19500,63.480000"
   style="fill:none;stroke:#000000;stroke-miterlimit:1.0000000" />
		</g><line
   id="line69"
   y2="79.952003"
   x2="150.19800"
   y1="59.952000"
   x1="150.19800"
   style="fill:none" /><line
   id="line71"
   y2="63.702000"
   x2="146.51100"
   y1="63.727001"
   x1="136.57600"
   style="fill:none;stroke:#000000;stroke-miterlimit:1.0000000" />
</svg>