<?xml version="1.0" encoding="UTF-8" standalone="no"?>
<!-- Generator: Adobe Illustrator 11 Build 196, SVG Export Plug-In . SVG Version: 6.0.0 Build 78)  -->
<svg
   xmlns:dc="http://purl.org/dc/elements/1.1/"
   xmlns:cc="http://web.resource.org/cc/"
   xmlns:rdf="http://www.w3.org/1999/02/22-rdf-syntax-ns#"
   xmlns:svg="http://www.w3.org/2000/svg"
   xmlns="http://www.w3.org/2000/svg"
   xmlns:sodipodi="http://inkscape.sourceforge.net/DTD/sodipodi-0.dtd"
   xmlns:inkscape="http://www.inkscape.org/namespaces/inkscape"
   width="129.879"
   height="203.274"
   viewBox="0 0 129.879 203.274"
   style="overflow:visible;enable-background:new 0 0 129.879 203.274"
   xml:space="preserve"
   id="svg2"
   sodipodi:version="0.32"
   sodipodi:docname="hw-neuroncurrent.svg"
   sodipodi:docbase="/home/bcrowell/Documents/writing/lm/trunk/0sn/ch09/figs"><metadata
   id="metadata319"><rdf:RDF><cc:Work
       rdf:about=""><dc:format>image/svg+xml</dc:format><dc:type
         rdf:resource="http://purl.org/dc/dcmitype/StillImage" /></cc:Work></rdf:RDF></metadata><defs
   id="defs317">
		
		 
		 
		 
		
		
		
			<linearGradient
   gradientTransform="matrix(0.000000,-0.609100,0.621400,0.000000,-1.279600,190.4246)"
   y2="116.2388"
   x2="115.0942"
   y1="116.2388"
   x1="53.5864"
   gradientUnits="userSpaceOnUse"
   id="XMLID_30_">
			<stop
   id="stop28"
   style="stop-color:#000000"
   offset="0" />
			<stop
   id="stop30"
   style="stop-color:#1F1F1F"
   offset="0.0048" />
			<stop
   id="stop32"
   style="stop-color:#7B7B7B"
   offset="0.0777" />
			<stop
   id="stop34"
   style="stop-color:#A5A5A5"
   offset="0.1509" />
			<stop
   id="stop36"
   style="stop-color:#C1C1C1"
   offset="0.2229" />
			<stop
   id="stop38"
   style="stop-color:#D4D4D4"
   offset="0.2936" />
			<stop
   id="stop40"
   style="stop-color:#E1E1E1"
   offset="0.3626" />
			<stop
   id="stop42"
   style="stop-color:#E8E8E8"
   offset="0.429" />
			<stop
   id="stop44"
   style="stop-color:#EBEBEB"
   offset="0.49" />
			<stop
   id="stop46"
   style="stop-color:#E9E9E9"
   offset="0.5687" />
			<stop
   id="stop48"
   style="stop-color:#E2E2E2"
   offset="0.6389" />
			<stop
   id="stop50"
   style="stop-color:#D8D8D8"
   offset="0.706" />
			<stop
   id="stop52"
   style="stop-color:#C8C8C8"
   offset="0.7711" />
			<stop
   id="stop54"
   style="stop-color:#B2B2B2"
   offset="0.8347" />
			<stop
   id="stop56"
   style="stop-color:#939393"
   offset="0.8973" />
			<stop
   id="stop58"
   style="stop-color:#616161"
   offset="0.9579" />
			<stop
   id="stop60"
   style="stop-color:#000000"
   offset="1" />
			<midPointStop
   id="midPointStop62"
   style="stop-color:#000000"
   offset="0" />
			<midPointStop
   id="midPointStop64"
   style="stop-color:#000000"
   offset="0.31" />
			<midPointStop
   id="midPointStop66"
   style="stop-color:#EBEBEB"
   offset="0.49" />
			<midPointStop
   id="midPointStop68"
   style="stop-color:#EBEBEB"
   offset="0.73" />
			<midPointStop
   id="midPointStop70"
   style="stop-color:#000000"
   offset="1" />
		</linearGradient>
		
		 
		
		
		
		
		
		
		
		
	</defs><sodipodi:namedview
   inkscape:cy="101.34551"
   inkscape:cx="67.947557"
   inkscape:zoom="1.2445873"
   inkscape:window-height="510"
   inkscape:window-width="712"
   inkscape:pageshadow="2"
   inkscape:pageopacity="0.0"
   borderopacity="1.0"
   bordercolor="#666666"
   pagecolor="#ffffff"
   id="base"
   inkscape:window-x="137"
   inkscape:window-y="137"
   inkscape:current-layer="svg2" />
	<style
   type="text/css"
   id="style4">
	
	</style>
	<g
   id="g7">
			<path
   id="path9"
   d="M 93.536000,14.940000 C 90.954000,12.573000 88.905000,10.991000 88.905000,10.991000 C 88.905000,10.991000 90.695000,12.716000 93.536000,14.940000 z "
   style="fill:#b4b4b4;stroke:#000000;stroke-width:0.50000000" />
			<path
   id="path11"
   d="M 113.65500,0.022000000 C 113.65500,0.022000000 113.40700,2.7980000 113.43200,6.2900000 C 113.68400,2.7400000 113.65500,0.022000000 113.65500,0.022000000 z "
   style="fill:#b4b4b4;stroke:#000000;stroke-width:0.50000000" />
			<path
   id="path13"
   d="M 127.71700,46.147000 C 127.71700,46.147000 126.65100,44.998000 124.97200,43.469000 C 126.54800,45.062000 127.71700,46.147000 127.71700,46.147000 z "
   style="fill:#b4b4b4;stroke:#000000;stroke-width:0.50000000" />
			<path
   id="path15"
   d="M 23.140000,28.253000 C 27.885000,28.253000 58.330000,30.312000 100.57400,30.029000 C 101.75600,30.234000 103.00400,30.633000 103.71000,31.401000 C 102.72100,39.205000 103.24900,57.679000 103.24900,57.679000 C 103.24900,57.679000 102.96800,37.429000 109.99900,36.023000 C 114.81100,35.061000 121.33300,40.157000 124.97300,43.470000 C 121.53800,39.999000 116.17000,34.118000 116.74900,31.804000 C 117.59300,28.429000 129.68700,13.804000 129.68700,13.804000 C 129.68700,13.804000 120.68700,23.085000 116.46800,19.429000 C 114.02000,17.308000 113.46600,11.116000 113.43200,6.2900000 C 112.90100,13.757000 111.12600,24.910000 105.21800,22.241000 C 100.73300,20.216000 96.546000,17.297000 93.537000,14.940000 C 97.059000,18.169000 101.56900,22.858000 103.22200,26.985000 C 102.66300,27.678000 101.82500,28.232000 100.96500,28.659000 C 58.822000,29.170000 22.694000,27.570000 22.298000,25.721000 C 21.876000,23.752000 19.345000,8.5650000 19.345000,8.5650000 L 18.850000,9.0070000 C 18.850000,9.0070000 21.319000,20.945000 20.475000,22.632000 C 19.631000,24.319000 8.3740000,16.440000 8.3740000,16.440000 L 7.3500000,16.382000 C 7.3500000,16.382000 20.475000,24.101000 20.475000,25.507000 C 20.475000,26.913000 16.194000,44.288000 15.350000,45.132000 C 14.506000,45.976000 13.859000,47.097000 13.859000,47.097000 L 15.975000,45.382000 C 15.975000,45.382000 19.765000,32.191000 20.609000,33.316000 C 21.453000,34.441000 25.671000,47.097000 25.671000,47.097000 L 27.225000,48.632000 C 27.225000,48.632000 18.077000,28.253000 23.140000,28.253000 z "
   style="fill:#b4b4b4;stroke:#000000;stroke-width:0.50000000" />
		</g><ellipse
   sodipodi:ry="2.5860000"
   sodipodi:rx="1.5910000"
   sodipodi:cy="27.063999"
   sodipodi:cx="110.72500"
   id="ellipse17"
   ry="2.5860000"
   rx="1.5910000"
   cy="27.063999"
   cx="110.72500"
   transform="matrix(-0.965500,0.260500,-0.260500,-0.965500,224.6764,24.34440)" />
</svg>