<?xml version="1.0" encoding="iso-8859-1"?>
<!-- Generator: Adobe Illustrator 11 Build 196, SVG Export Plug-In . SVG Version: 6.0.0 Build 78)  -->
<!DOCTYPE svg PUBLIC "-//W3C//DTD SVG 1.0//EN"    "http://www.w3.org/TR/2001/REC-SVG-20010904/DTD/svg10.dtd" [
	<!ENTITY ns_flows "http://ns.adobe.com/Flows/1.0/">
	<!ENTITY ns_svg "http://www.w3.org/2000/svg">
	<!ENTITY ns_xlink "http://www.w3.org/1999/xlink">
]>
<svg  
	 width="114" height="100.616" viewBox="0 0 114 100.616" style="overflow:visible;enable-background:new 0 0 114 100.616"
	 xml:space="preserve">
	<style type="text/css">
	
	</style>
	<g id="Layer_1">
		<g>
			<line style="fill:none;stroke:#000000;" x1="43.525" y1="76.714" x2="43.525" y2="96.714"/>
			<line style="fill:none;stroke:#000000;" x1="46.525" y1="83.339" x2="46.525" y2="90.089"/>
		</g>
		<polyline style="fill:none;stroke:#000000;" points="43,85.85 0.5,85.85 0.5,36.35 8,36.35 105,36.35 105,86.35 46.5,86.35 "/>
		<g>
			<circle style="fill:#FFFFFF;stroke:#000000;" cx="24.042" cy="29.537" r="12.021"/> 
			<path style="fill:none;stroke:#000000;" d="M42.979,36.35c0,0-2.104,0.021-13.104,0.021s-12-12.333-6.333-12.333
				c5.667,0,5.667,12.333-7.667,12.333H3.208"/>
		</g>
		<g>
			<circle style="fill:#FFFFFF;stroke:#000000;" cx="77.156" cy="29.454" r="12.021"/> 
			<path style="fill:none;stroke:#000000;" d="M96.094,36.266c0,0-2.104,0.021-13.104,0.021s-12-12.333-6.333-12.333
				s5.667,12.333-7.667,12.333H56.323"/>
		</g>
		<circle cx="50" cy="36.672" r="2.178"/> 
		<circle cx="65.25" cy="86.537" r="2.178"/> 
		<g>
			<text transform="matrix(1 0 0 1 47 32.5996)"><tspan x="0" y="0" style="font-family:Liberation Sans; font-size:7.650000;">A</tspan></text>
		</g>
		<g>
			<text transform="matrix(1 0 0 1 62.25 96.5996)"><tspan x="0" y="0" style="font-family:Liberation Sans; font-size:7.650000;">B</tspan></text>
		</g>
		<g>
			<text transform="matrix(1 0 0 1 15 12)"><tspan x="0" y="0" style="font-family:Liberation Sans; font-size:10.200000;">5 </tspan></text>
			<text transform="matrix(1 0 0 1 25.0078 12)"><tspan x="0" y="0" style="font-family:'Symbol'; font-size:12;">&#x2126;</tspan></text>
		</g>
		<g>
			<text transform="matrix(1 0 0 1 63.8906 12)"><tspan x="0" y="0" style="font-family:Liberation Sans; font-size:10.200000;">10 </tspan></text>
			<text transform="matrix(1 0 0 1 80.5723 12)"><tspan x="0" y="0" style="font-family:'Symbol'; font-size:12;">&#x2126;</tspan></text>
		</g>
		<line style="fill:none;" x1="114" y1="48.85" x2="114" y2="80.85"/>
	</g>
</svg>
