<?xml version="1.0" encoding="iso-8859-1"?>
<!-- Generator: Adobe Illustrator 11 Build 196, SVG Export Plug-In . SVG Version: 6.0.0 Build 78)  -->
<!DOCTYPE svg PUBLIC "-//W3C//DTD SVG 1.0//EN"    "http://www.w3.org/TR/2001/REC-SVG-20010904/DTD/svg10.dtd" [
	<!ENTITY ns_flows "http://ns.adobe.com/Flows/1.0/">
	<!ENTITY ns_svg "http://www.w3.org/2000/svg">
	<!ENTITY ns_xlink "http://www.w3.org/1999/xlink">
]>
<svg  
	 width="150.198" height="98.261" viewBox="0 0 150.198 98.261" style="overflow:visible;enable-background:new 0 0 150.198 98.261"
	 xml:space="preserve">
	<g id="Layer_1">
		<polyline style="fill:none;stroke:#000000;stroke-miterlimit:1;" points="103.183,33.074 97.91,33.074 89.573,33.074 "/>
		<line style="fill:none;stroke:#000000;stroke-miterlimit:1;" x1="63.636" y1="33.074" x2="48.662" y2="33.074"/>
		<polyline style="fill:none;stroke:#000000;stroke-miterlimit:1;" points="97.368,33.074 104.53,33.074 111.198,33.074 "/>
		<polyline style="fill:none;stroke:#000000;stroke-miterlimit:1;" points="136.576,33.074 146.645,33.074 146.645,87.806 "/>
		<line style="fill:none;stroke:#000000;stroke-miterlimit:1;" x1="146.178" y1="63.829" x2="111.823" y2="63.829"/>
		<polyline style="fill:none;stroke:#000000;stroke-miterlimit:1;" points="85.948,63.642 49.123,63.642 49.123,32.61 "/>
		<polyline style="fill:none;stroke:#000000;stroke-miterlimit:1;" points="0,48.267 5.932,48.267 11.261,48.267 "/>
		<polyline style="fill:none;stroke:#000000;stroke-miterlimit:1;" points="37.323,48.267 42.774,48.267 49.43,48.267 "/>
		<polyline style="fill:none;stroke:#000000;stroke-miterlimit:1;" points="99.553,33.455 99.553,14.442 57.198,14.442 "/>
		<polyline style="fill:none;stroke:#000000;stroke-miterlimit:1;" points="31.073,14.442 0.538,14.442 0.538,87.806 76.875,87.806 
			"/>
		<line style="fill:none;stroke:#000000;stroke-miterlimit:1;" x1="81.103" y1="87.806" x2="146.908" y2="87.806"/>
		<line style="fill:none;stroke:#000000;stroke-miterlimit:1;" x1="76.798" y1="83.501" x2="76.798" y2="92.111"/>
		<line style="fill:none;stroke:#000000;stroke-miterlimit:1;" x1="81.103" y1="78.581" x2="81.103" y2="98.261"/>
		<g>
			<circle style="fill:none;stroke:#000000;stroke-miterlimit:1;" cx="43.928" cy="8.278" r="7.778"/> 
			<path style="fill:none;stroke:#000000;stroke-miterlimit:1;" d="M57.455,14.574c-18.383-0.617-16.571-8.629-13.526-8.629
				c2.884,0,4.524,7.051-9.938,8.309c0,0-1.792,0.073-2.917,0.073"/>
		</g>
		<g>
			<circle style="fill:none;stroke:#000000;stroke-miterlimit:1;" cx="23.988" cy="42.077" r="7.778"/> 
			<path style="fill:none;stroke:#000000;stroke-miterlimit:1;" d="M37.514,48.373c-18.383-0.617-16.571-8.629-13.526-8.629
				c2.884,0,4.524,7.051-9.938,8.309c0,0-1.792,0.073-2.917,0.073"/>
		</g>
		<g>
			<circle style="fill:none;stroke:#000000;stroke-miterlimit:1;" cx="76.071" cy="26.993" r="7.778"/> 
			<path style="fill:none;stroke:#000000;stroke-miterlimit:1;" d="M89.597,33.289c-18.383-0.617-16.571-8.629-13.526-8.629
				c2.884,0,4.524,7.051-9.938,8.309c0,0-1.792,0.073-2.917,0.073"/>
		</g>
		<g>
			<circle style="fill:none;stroke:#000000;stroke-miterlimit:1;" cx="98.446" cy="57.66" r="7.778"/> 
			<path style="fill:none;stroke:#000000;stroke-miterlimit:1;" d="M111.972,63.956c-18.383-0.617-16.571-8.629-13.526-8.629
				c2.884,0,4.524,7.051-9.938,8.309c0,0-1.792,0.073-2.917,0.073"/>
		</g>
		<g>
			<circle style="fill:none;stroke:#000000;stroke-miterlimit:1;" cx="123.05" cy="26.993" r="7.778"/> 
			<path style="fill:none;stroke:#000000;stroke-miterlimit:1;" d="M136.576,33.289c-18.383-0.617-16.571-8.629-13.526-8.629
				c2.884,0,4.524,7.051-9.938,8.309c0,0-1.792,0.073-2.917,0.073"/>
		</g>
		<line style="fill:none;" x1="150.198" y1="59.952" x2="150.198" y2="79.952"/>
	</g>
</svg>
