<?xml version="1.0" encoding="UTF-8" standalone="no"?>
<!-- Generator: Adobe Illustrator 11 Build 196, SVG Export Plug-In . SVG Version: 6.0.0 Build 78)  -->
<svg
   xmlns:dc="http://purl.org/dc/elements/1.1/"
   xmlns:cc="http://web.resource.org/cc/"
   xmlns:rdf="http://www.w3.org/1999/02/22-rdf-syntax-ns#"
   xmlns:svg="http://www.w3.org/2000/svg"
   xmlns="http://www.w3.org/2000/svg"
   xmlns:xlink="http://www.w3.org/1999/xlink"
   xmlns:sodipodi="http://inkscape.sourceforge.net/DTD/sodipodi-0.dtd"
   xmlns:inkscape="http://www.inkscape.org/namespaces/inkscape"
   width="84.182"
   height="259.433"
   viewBox="0 0 84.182 259.433"
   style="overflow:visible;enable-background:new 0 0 84.182 259.433"
   xml:space="preserve"
   id="svg2"
   sodipodi:version="0.32"
   sodipodi:docname="parallel-resistors.svg"
   sodipodi:docbase="/home/bcrowell/Documents/writing/books/physics/9share/em-dc"><metadata
   id="metadata216"><rdf:RDF><cc:Work
       rdf:about=""><dc:format>image/svg+xml</dc:format><dc:type
         rdf:resource="http://purl.org/dc/dcmitype/StillImage" /></cc:Work></rdf:RDF></metadata><defs
   id="defs214"><linearGradient
   id="linearGradient2200"><stop
     style="stop-color:#888888;stop-opacity:1;"
     offset="0"
     id="stop2202" /><stop
     style="stop-color:#888888;stop-opacity:0.0000000;"
     offset="1.0000000"
     id="stop2204" /></linearGradient>
		
		
		
		
		
		
		
		
		
		
		
		
		
		
		
		
		
		
		
		
		
		
	
			
			
		
			
			
		
			
			
		
			
			
		
			

		
			

		
			

		
			

		
			 
			 
			
			
			
			
			
			
			
			
			
			
		<linearGradient
   inkscape:collect="always"
   xlink:href="#linearGradient2200"
   id="linearGradient2206"
   x1="163.53195"
   y1="71.365540"
   x2="163.53195"
   y2="74.392471"
   gradientUnits="userSpaceOnUse"
   gradientTransform="matrix(0.948540,0.000000,0.000000,0.948540,8.173390,3.646411)" /><linearGradient
   inkscape:collect="always"
   xlink:href="#linearGradient2200"
   id="linearGradient2214"
   x1="165.57184"
   y1="39.407307"
   x2="165.57184"
   y2="42.434238"
   gradientUnits="userSpaceOnUse" /><linearGradient
   inkscape:collect="always"
   xlink:href="#linearGradient2200"
   id="linearGradient2218"
   gradientUnits="userSpaceOnUse"
   x1="165.57184"
   y1="39.407307"
   x2="165.57184"
   y2="42.434238"
   gradientTransform="translate(-268.9974,-69.16740)" /><linearGradient
   inkscape:collect="always"
   xlink:href="#linearGradient2200"
   id="linearGradient2222"
   gradientUnits="userSpaceOnUse"
   gradientTransform="matrix(0.948540,0.000000,0.000000,0.948540,-258.9569,-123.0673)"
   x1="163.53195"
   y1="71.365540"
   x2="163.53195"
   y2="74.392471" /><linearGradient
   inkscape:collect="always"
   xlink:href="#linearGradient2200"
   id="linearGradient2230"
   x1="48.206566"
   y1="-118.62144"
   x2="48.229294"
   y2="-120.00694"
   gradientUnits="userSpaceOnUse" /><linearGradient
   inkscape:collect="always"
   xlink:href="#linearGradient2200"
   id="linearGradient2234"
   gradientUnits="userSpaceOnUse"
   x1="48.206566"
   y1="-118.62144"
   x2="48.229294"
   y2="-120.00694"
   gradientTransform="matrix(0.900006,0.000000,0.000000,1.000000,4.927892,-35.61663)" />
			
			
		
			
			
		</defs><sodipodi:namedview
   inkscape:cy="192.11250"
   inkscape:cx="163.78777"
   inkscape:zoom="1.2758842"
   inkscape:window-height="996"
   inkscape:window-width="1278"
   inkscape:pageshadow="2"
   inkscape:pageopacity="0.0"
   borderopacity="1.0"
   bordercolor="#666666"
   pagecolor="#ffffff"
   id="base"
   inkscape:window-x="0"
   inkscape:window-y="0"
   inkscape:current-layer="svg2" />
	<style
   type="text/css"
   id="style4">
	
	</style>
	<rect
   style="fill:#dedede;fill-opacity:1.0000000;fill-rule:evenodd;stroke:none;stroke-width:1.0000000pt;stroke-linecap:butt;stroke-linejoin:miter;stroke-opacity:1.0000000"
   id="rect1514"
   width="96.888954"
   height="100.00000"
   x="-123.51250"
   y="-9.8121634" /><g
   id="g49"
   transform="matrix(1.331490,0.000000,0.000000,1.331490,-148.9919,-7.160601)">
			<g
   id="g51">
				<line
   id="line53"
   y2="66.976997"
   x2="56.040001"
   y1="59.977001"
   x1="56.040001"
   style="fill:none;stroke:#000000;stroke-miterlimit:1.0000000" />
				<line
   id="line55"
   y2="70.476997"
   x2="59.040001"
   y1="56.477001"
   x1="59.040001"
   style="fill:none;stroke:#000000;stroke-miterlimit:1.0000000" />
			</g>
			<polyline
   id="polyline57"
   points="76.492,44.921 76.492,63.477 58.992,63.477 "
   style="fill:none;stroke:#000000;stroke-miterlimit:1.0000000" />
			<polyline
   id="polyline59"
   points="55.492,63.477 37.242,63.477 37.242,44.921 "
   style="fill:none;stroke:#000000;stroke-miterlimit:1.0000000" />
			<polyline
   id="polyline61"
   points="37.242,44.921 37.242,17.171 42.388,17.171 "
   style="fill:none;stroke:#000000;stroke-miterlimit:1.0000000" />
			<polyline
   id="polyline63"
   points="72.825,17.171 76.492,17.171 76.492,44.921 "
   style="fill:none;stroke:#000000;stroke-miterlimit:1.0000000" />
			<g
   id="g65">
				<polyline
   id="polyline67"
   points="37.325,41.047 42.273,41.047 47.075,41.047       48.888,37.193 51.055,43.713 53.95,37.193 56.388,43.693 58.95,37.13 61.638,43.63 63.7,37.318 65.388,41.047 72.227,41.047       76.513,41.047 "
   style="fill:none;stroke:#000000;stroke-miterlimit:1.0000000" />
			</g>
			<g
   id="g69">
				<polyline
   id="polyline71"
   points="37.356,17.234 42.305,17.234 47.106,17.234       48.919,13.38 51.086,19.901 53.981,13.38 56.419,19.88 58.981,13.318 61.669,19.818 63.731,13.505 65.419,17.234 72.258,17.234       76.544,17.234 "
   style="fill:none;stroke:#000000;stroke-miterlimit:1.0000000" />
			</g>
			<g
   id="g73">
				<text
   id="text75"
   transform="translate(51.52590,9.000000)"><tspan
     id="tspan77"
     style="font-size:7.6500001px;font-family:Liberation Sans"
     y="0"
     x="0">R</tspan></text>



				<text
   id="text79"
   transform="translate(58.02540,12.00000)"><tspan
     id="tspan81"
     style="font-size:5.9499998px;font-family:Liberation Sans"
     y="0"
     x="0">1</tspan></text>



			</g>
			<g
   id="g83">
				<text
   id="text85"
   transform="translate(51.52590,32.75000)"><tspan
     id="tspan87"
     style="font-size:7.6500001px;font-family:Liberation Sans"
     y="0"
     x="0">R</tspan></text>



				<text
   id="text89"
   transform="translate(58.02540,35.75000)"><tspan
     id="tspan91"
     style="font-size:5.9499998px;font-family:Liberation Sans"
     y="0"
     x="0">2</tspan></text>



			</g>
		</g><rect
   style="fill:#dedede;fill-opacity:1.0000000;fill-rule:evenodd;stroke:none;stroke-width:1.0000000pt;stroke-linecap:butt;stroke-linejoin:miter;stroke-opacity:1.0000000;overflow:visible"
   id="rect2351"
   width="99.406487"
   height="100.00000"
   x="-22.277870"
   y="-9.8121634" /><rect
   x="-0.81573588"
   y="44.636581"
   style="fill:#ff6985;fill-opacity:1.0000000"
   width="14.868749"
   height="6.2140636"
   id="rect17" /><rect
   x="38.575066"
   y="44.636581"
   style="fill:#696cff;fill-opacity:1.0000000"
   width="14.868749"
   height="6.2140636"
   id="rect19" /><polygon
   style="fill:#696cff;fill-opacity:1.0000000"
   points="78.339000,80.461000 74.179000,80.461000 68.712000,80.461000 68.712000,85.211000 74.179000,85.211000 74.179000,108.27200 74.179000,113.02200 74.179000,115.89700 74.179000,126.98000 60.625000,126.98000 60.625000,131.58300 74.179000,131.58300 79.439000,131.58300 79.439000,126.98000 79.439000,80.461000 78.339000,80.461000 "
   id="polygon21"
   transform="matrix(1.331490,0.000000,0.000000,1.331490,-50.50295,-94.03411)" /><polygon
   style="fill:#ff6985;fill-opacity:1.0000000"
   points="40.636000,126.98000 40.636000,115.33500 40.636000,113.02200 40.636000,108.27200 40.636000,85.211000 46.102000,85.211000 46.102000,80.461000 40.636000,80.461000 36.475000,80.461000 35.375000,80.461000 35.375000,126.98000 35.375000,131.58300 40.636000,131.58300 54.189000,131.58300 54.189000,126.98000 40.636000,126.98000 "
   id="polygon23"
   transform="matrix(1.331490,0.000000,0.000000,1.331490,-50.50295,-94.03411)" /><g
   id="g25"
   transform="matrix(1.331490,0.000000,0.000000,1.331490,-50.50295,-94.03411)">
				<line
   style="fill:none;stroke:#000000;stroke-miterlimit:1.0000000"
   x1="56.116001"
   y1="125.39000"
   x2="56.116001"
   y2="132.39000"
   id="line27" />
				<line
   style="fill:none;stroke:#000000;stroke-miterlimit:1.0000000"
   x1="59.116001"
   y1="121.89000"
   x2="59.116001"
   y2="135.89000"
   id="line29" />
			</g><polyline
   style="fill:none;stroke:#000000;stroke-miterlimit:1.0000000"
   points="76.567,110.334 76.567,128.89 59.067,128.89 "
   id="polyline31"
   transform="matrix(1.331490,0.000000,0.000000,1.331490,-50.50295,-94.03411)" /><polyline
   style="fill:none;stroke:#000000;stroke-miterlimit:1.0000000"
   points="55.567,128.89 37.317,128.89 37.317,110.334 "
   id="polyline33"
   transform="matrix(1.331490,0.000000,0.000000,1.331490,-50.50295,-94.03411)" /><polyline
   style="fill:none;stroke:#000000;stroke-miterlimit:1.0000000"
   points="37.317,110.334 37.317,82.584 42.463,82.584 "
   id="polyline35"
   transform="matrix(1.331490,0.000000,0.000000,1.331490,-50.50295,-94.03411)" /><polyline
   style="fill:none;stroke:#000000;stroke-miterlimit:1.0000000"
   points="72.901,82.584 76.567,82.584 76.567,110.334 "
   id="polyline37"
   transform="matrix(1.331490,0.000000,0.000000,1.331490,-50.50295,-94.03411)" /><line
   style="fill:none"
   x1="60.488728"
   y1="69.163956"
   x2="60.488728"
   y2="39.871178"
   id="line39" /><g
   id="g41"
   transform="matrix(1.331490,0.000000,0.000000,1.331490,-50.50295,-94.03411)">
				<polyline
   style="fill:none;stroke:#000000;stroke-miterlimit:1.0000000"
   points="37.401,106.46 42.349,106.46 47.151,106.46       48.963,102.606 51.13,109.126 54.026,102.606 56.463,109.106 59.026,102.543 61.713,109.043 63.776,102.731 65.463,106.46       72.302,106.46 76.588,106.46 "
   id="polyline43" />
			</g><g
   id="g45"
   transform="matrix(1.331490,0.000000,0.000000,1.331490,-50.50295,-94.03411)">
				<polyline
   style="fill:none;stroke:#000000;stroke-miterlimit:1.0000000"
   points="37.432,82.647 42.38,82.647 47.182,82.647       48.995,78.793 51.161,85.314 54.057,78.793 56.495,85.293 59.057,78.731 61.745,85.231 63.807,78.918 65.495,82.647       72.333,82.647 76.62,82.647 "
   id="polyline47" />
			</g><rect
   style="fill:#dedede;fill-opacity:1.0000000;fill-rule:evenodd;stroke:none;stroke-width:1.0000000pt;stroke-linecap:butt;stroke-linejoin:miter;stroke-opacity:1.0000000;overflow:visible"
   id="rect2355"
   width="93.599487"
   height="100.00000"
   x="190.26152"
   y="-9.8121634" /><polyline
   id="polyline177"
   points="34.424,256.563 34.424,232.688 39.57,232.688 "
   style="fill:none;stroke:#000000;stroke-miterlimit:1.0000000"
   transform="matrix(1.331490,0.000000,0.000000,1.331490,166.0681,-280.8762)" /><polyline
   id="polyline179"
   points="70.008,232.688 73.674,232.688 73.674,256.563 "
   style="fill:none;stroke:#000000;stroke-miterlimit:1.0000000"
   transform="matrix(1.331490,0.000000,0.000000,1.331490,166.0681,-280.8762)" /><g
   id="g181"
   transform="matrix(1.331490,0.000000,0.000000,1.331490,166.0681,-280.8762)">
			<polyline
   id="polyline183"
   points="34.508,256.563 39.456,256.563 44.258,256.563      46.07,252.708 48.237,259.229 51.133,252.708 53.57,259.208 56.133,252.646 58.82,259.146 60.883,252.833 62.57,256.563      69.409,256.563 73.695,256.563 "
   style="fill:none;stroke:#000000;stroke-miterlimit:1.0000000" />
		</g><g
   id="g185"
   transform="matrix(1.331490,0.000000,0.000000,1.331490,166.0681,-280.8762)">
			<polyline
   id="polyline187"
   points="34.539,232.75 39.487,232.75 44.289,232.75      46.102,228.896 48.268,235.417 51.164,228.896 53.602,235.396 56.164,228.833 58.852,235.333 60.914,229.021 62.602,232.75      69.44,232.75 73.727,232.75 "
   style="fill:none;stroke:#000000;stroke-miterlimit:1.0000000" />
		</g><g
   id="g189"
   transform="matrix(1.331490,0.000000,0.000000,1.331490,166.0681,-280.8762)">
			<text
   id="text191"
   transform="translate(48.70800,224.5161)"><tspan
     id="tspan193"
     style="font-size:7.6500001px;font-family:Liberation Sans"
     y="0"
     x="0">R</tspan></text>



			<text
   id="text195"
   transform="translate(55.20750,227.5161)"><tspan
     id="tspan197"
     style="font-size:5.9499998px;font-family:Liberation Sans"
     y="0"
     x="0">1</tspan></text>



		</g><g
   id="g199"
   transform="matrix(1.331490,0.000000,0.000000,1.331490,166.0681,-280.8762)">
			<text
   id="text201"
   transform="translate(48.70800,248.2661)"><tspan
     id="tspan203"
     style="font-size:7.6500001px;font-family:Liberation Sans"
     y="0"
     x="0">R</tspan></text>



			<text
   id="text205"
   transform="translate(55.20750,251.2661)"><tspan
     id="tspan207"
     style="font-size:5.9499998px;font-family:Liberation Sans"
     y="0"
     x="0">2</tspan></text>



		</g><line
   id="line209"
   y2="44.203091"
   x2="199.40054"
   y1="44.203091"
   x1="211.71683"
   style="fill:none;stroke:#000000;stroke-miterlimit:1.0000000" /><line
   id="line211"
   y2="44.203091"
   x2="264.64355"
   y1="44.203091"
   x1="276.95984"
   style="fill:none;stroke:#000000;stroke-miterlimit:1.0000000" />
<rect
   style="fill:#dedede;fill-opacity:1.0000000;fill-rule:evenodd;stroke:none;stroke-width:1.0000000pt;stroke-linecap:butt;stroke-linejoin:miter;stroke-opacity:1.0000000;overflow:visible"
   id="rect2353"
   width="104.44156"
   height="100.00000"
   x="81.474289"
   y="-9.8121634" /><g
   id="g7"
   transform="matrix(1.331490,0.000000,0.000000,1.331490,60.94726,-188.1131)">
			<path
   id="path9"
   d="M 81.273000,180.09800 C 81.443000,179.76000 81.548000,179.38400 81.548000,178.98100 C 81.590000,178.50200 81.486000,178.03300 81.392000,177.56400 C 81.392000,177.71000 81.382000,177.85600 81.382000,178.00200 C 81.372000,177.19000 81.455000,176.35600 81.184000,175.56400 L 81.151000,175.47100 C 81.181000,175.31000 81.201000,175.14800 81.194000,174.98100 C 81.100000,172.14800 81.038000,169.34500 81.173000,166.52300 C 80.340000,161.80400 80.663000,156.33500 76.892000,152.73100 C 74.956000,150.87400 72.292000,151.15200 69.784000,151.22600 L 69.784000,151.06400 L 38.784000,151.06400 L 38.784000,151.17800 C 36.753000,151.12800 34.734000,151.24300 33.183000,152.73100 C 29.412000,156.33500 29.735000,161.80400 28.902000,166.52300 C 29.038000,169.34600 28.975000,172.14800 28.881000,174.98100 C 28.875000,175.14800 28.895000,175.31100 28.925000,175.47100 L 28.892000,175.56400 C 28.621000,176.35600 28.704000,177.18900 28.694000,178.00200 C 28.694000,177.85600 28.684000,177.71000 28.684000,177.56400 C 28.590000,178.03300 28.486000,178.50200 28.528000,178.98100 C 28.528000,179.38400 28.633000,179.76000 28.803000,180.09800 C 27.738000,184.56400 28.323000,189.24400 28.746000,193.77200 C 28.736000,193.58400 28.715000,193.39700 28.704000,193.21000 C 28.923000,197.07500 30.318000,201.27200 34.027000,203.05400 C 37.142000,204.54400 40.683000,203.79400 44.027000,204.06400 C 44.404000,204.06400 44.762000,203.99500 45.108000,203.89700 L 64.969000,203.89700 C 65.315000,203.99500 65.673000,204.06400 66.050000,204.06400 C 69.394000,203.79300 72.936000,204.54300 76.050000,203.05400 C 79.758000,201.27300 81.154000,197.07500 81.373000,193.21000 C 81.362000,193.39800 81.342000,193.58500 81.331000,193.77200 C 81.753000,189.24400 82.338000,184.56400 81.273000,180.09800 z M 37.931000,195.90500 C 38.061000,195.92300 38.189000,195.95300 38.311000,196.02200 C 38.182000,195.98300 38.057000,195.94400 37.931000,195.90500 z M 71.764000,196.02200 C 71.887000,195.95300 72.014000,195.92300 72.144000,195.90500 C 72.019000,195.94400 71.893000,195.98300 71.764000,196.02200 z M 73.215000,193.98800 C 73.059000,194.59500 72.955000,195.22300 72.580000,195.76200 C 72.695000,195.63700 72.820000,195.52200 72.934000,195.39700 C 72.796000,195.58400 72.646000,195.74900 72.472000,195.89800 C 72.283000,195.89800 72.093000,195.89700 71.903000,195.89700 C 71.902000,195.89700 71.901000,195.89700 71.899000,195.89800 C 71.834000,195.89800 71.768000,195.89800 71.703000,195.89800 C 71.704000,195.89700 71.705000,195.89700 71.705000,195.89600 C 71.342000,195.89500 70.979000,195.89800 70.617000,195.90400 L 70.617000,195.73100 L 40.784000,195.73100 L 40.784000,195.95600 C 39.980000,195.90000 39.176000,195.89500 38.369000,195.89700 C 38.370000,195.89700 38.371000,195.89800 38.371000,195.89900 C 38.306000,195.89900 38.241000,195.89900 38.175000,195.89900 C 38.174000,195.89900 38.173000,195.89900 38.171000,195.89800 C 37.981000,195.89800 37.792000,195.89900 37.602000,195.89900 C 37.429000,195.75000 37.278000,195.58500 37.141000,195.39800 C 37.255000,195.52300 37.380000,195.63800 37.495000,195.76300 C 37.120000,195.22400 37.016000,194.59600 36.860000,193.98900 C 36.473000,190.66500 36.041000,187.27700 36.281000,183.92100 C 36.427000,183.69700 36.518000,183.43400 36.526000,183.14900 C 36.490000,182.80600 36.485000,182.44300 36.520000,182.08100 C 36.556000,181.88300 36.588000,181.68400 36.614000,181.48600 C 36.619000,181.46300 36.628000,181.44100 36.634000,181.41700 C 36.625000,181.50500 36.616000,181.59300 36.611000,181.68100 C 36.722000,181.36600 36.806000,181.04500 36.875000,180.72100 C 37.129000,180.16100 37.520000,179.68300 38.101000,179.41000 C 39.289000,178.84800 40.611000,178.77500 41.924000,178.87900 C 42.263000,178.93900 42.592000,178.87800 42.876000,178.73300 L 67.203000,178.73300 C 67.486000,178.87700 67.815000,178.93900 68.155000,178.87900 C 69.467000,178.77500 70.790000,178.84800 71.978000,179.41000 C 72.560000,179.68300 72.950000,180.16100 73.204000,180.72100 C 73.272000,181.04500 73.356000,181.36600 73.468000,181.68100 C 73.462000,181.59300 73.453000,181.50500 73.445000,181.41700 C 73.450000,181.44000 73.459000,181.46200 73.464000,181.48600 C 73.490000,181.68400 73.522000,181.88300 73.558000,182.08100 C 73.592000,182.44300 73.587000,182.80700 73.551000,183.14900 C 73.558000,183.43500 73.650000,183.69700 73.796000,183.92100 C 74.034000,187.27600 73.602000,190.66500 73.215000,193.98800 z M 73.880000,177.07900 C 73.878000,177.08200 73.876000,177.08400 73.874000,177.08700 C 72.367000,176.05700 70.450000,175.80900 68.617000,175.86300 L 68.617000,175.73100 L 40.950000,175.73100 L 40.950000,175.85500 C 39.276000,175.86000 37.570000,176.15200 36.200000,177.08700 C 36.198000,177.08400 36.196000,177.08200 36.194000,177.07900 L 33.735000,178.54300 L 34.026000,174.41600 C 33.981000,174.34300 33.939000,174.26800 33.886000,174.19900 C 34.021000,171.71900 34.076000,169.25500 33.891000,166.77200 C 34.505000,163.26200 34.641000,159.61600 36.224000,156.36600 C 37.077000,156.24900 37.930000,156.22400 38.783000,156.22300 L 38.783000,156.23000 L 39.979000,156.23000 C 40.550000,156.23700 41.122000,156.24300 41.692000,156.23000 L 68.381000,156.23000 C 70.204000,156.27200 72.027000,156.11500 73.850000,156.36500 C 75.433000,159.61500 75.569000,163.26100 76.183000,166.77100 C 75.998000,169.25300 76.053000,171.71800 76.188000,174.19800 C 76.135000,174.26600 76.093000,174.34200 76.048000,174.41500 L 76.339000,178.54200 L 73.880000,177.07900 z "
   style="fill:#b4b4b4" />
			<path
   id="path11"
   d="M 71.759000,195.85500 C 71.741000,195.86900 71.723000,195.88200 71.705000,195.89600 C 71.771000,195.89600 71.837000,195.89600 71.903000,195.89600 C 72.003000,195.86500 72.103000,195.83400 72.205000,195.80300 C 72.060000,195.82400 71.905000,195.83500 71.759000,195.85500 z "
   style="fill:#b4b4b4" />
			<path
   id="path13"
   d="M 37.870000,195.80400 C 37.972000,195.83500 38.072000,195.86600 38.172000,195.89700 C 38.238000,195.89700 38.304000,195.89700 38.369000,195.89700 C 38.351000,195.88300 38.333000,195.87000 38.315000,195.85600 C 38.170000,195.83500 38.015000,195.82400 37.870000,195.80400 z "
   style="fill:#b4b4b4" />
		</g><polygon
   style="fill:none;stroke:#000000;stroke-width:0.30000001"
   points="70.407000,194.75600 77.165000,183.05100 83.922000,194.75600 70.407000,194.75600 "
   id="polygon113"
   transform="matrix(1.331490,0.000000,0.000000,1.331490,60.94726,-188.1131)" /><polygon
   style="fill:#888888;fill-opacity:1.0000000;stroke:none;stroke-opacity:1.0000000"
   points="70.407000,195.04400 77.165000,183.33900 83.922000,195.04400 70.407000,195.04400 "
   id="polygon115"
   transform="matrix(1.331490,0.000000,0.000000,1.331490,60.94726,-188.3209)" /><polygon
   style="fill:none;stroke:#000000;stroke-width:0.30000001"
   points="39.172000,183.03900 32.415000,194.74400 25.657000,183.03900 39.172000,183.03900 "
   id="polygon119"
   transform="matrix(1.331490,0.000000,0.000000,1.331490,60.94726,-188.1131)" /><polygon
   style="fill:#888888;fill-opacity:1.0000000;stroke:none;stroke-opacity:1.0000000"
   points="39.172000,182.75100 32.415000,194.45600 25.657000,182.75100 39.172000,182.75100 "
   id="polygon121"
   transform="matrix(1.331490,0.000000,0.000000,1.331490,60.94726,-187.9378)" /><polygon
   style="fill:none;stroke:#000000;stroke-width:0.30000001"
   points="74.604000,170.90800 78.659000,163.88500 82.713000,170.90800 74.604000,170.90800 "
   id="polygon125"
   transform="matrix(1.331490,0.000000,0.000000,1.331490,60.94726,-188.1131)" /><polygon
   style="fill:#888888;fill-opacity:1.0000000;stroke:none;stroke-opacity:1.0000000"
   points="74.604000,171.08100 78.659000,164.05800 82.713000,171.08100 74.604000,171.08100 "
   id="polygon127"
   transform="matrix(1.331490,0.000000,0.000000,1.331490,60.94726,-188.1131)" /><polygon
   style="fill:#888888;fill-opacity:1.0000000;stroke:#000000;stroke-width:0.30000001"
   points="69.950000,180.28000 65.268000,177.57700 69.950000,174.87400 69.950000,180.28000 "
   id="polygon131"
   transform="matrix(1.331490,0.000000,0.000000,1.331490,60.94726,-188.1131)" /><polygon
   style="fill:#888888;fill-opacity:1.0000000"
   points="70.065000,180.28000 65.383000,177.57700 70.065000,174.87400 70.065000,180.28000 "
   id="polygon133"
   transform="matrix(1.331490,0.000000,0.000000,1.331490,60.99224,-188.1131)" /><polygon
   style="fill:none;stroke:#000000;stroke-width:0.30000001"
   points="35.713000,163.75800 31.659000,170.78000 27.604000,163.75800 35.713000,163.75800 "
   id="polygon137"
   transform="matrix(1.331490,0.000000,0.000000,1.331490,60.94726,-188.1131)" /><polygon
   style="fill:#888888;fill-opacity:1.0000000;stroke:none;stroke-opacity:1.0000000"
   points="35.713000,163.58500 31.659000,170.60800 27.604000,163.58500 35.713000,163.58500 "
   id="polygon139"
   transform="matrix(1.331490,0.000000,0.000000,1.331490,60.94726,-188.1131)" /><polygon
   style="fill:#888888;fill-opacity:1.0000000;stroke:#000000;stroke-width:0.30000001"
   points="43.250000,180.28000 38.568000,177.57700 43.250000,174.87400 43.250000,180.28000 "
   id="polygon143"
   transform="matrix(1.331490,0.000000,0.000000,1.331490,60.94726,-188.1131)" /><polygon
   style="fill:#888888;fill-opacity:1.0000000"
   points="43.365000,180.28000 38.683000,177.57700 43.365000,174.87400 43.365000,180.28000 "
   id="polygon145"
   transform="matrix(1.331490,0.000000,0.000000,1.331490,60.99224,-188.1131)" /><rect
   style="fill:url(#linearGradient2206);fill-opacity:1.0000000;fill-rule:evenodd;stroke:none;stroke-width:1.0000000pt;stroke-linecap:butt;stroke-linejoin:miter;stroke-opacity:1.0000000;overflow:visible"
   id="rect2550"
   width="10.194719"
   height="2.8711662"
   x="158.19269"
   y="71.339508" /><rect
   style="fill:url(#linearGradient2230);fill-opacity:1.0;fill-rule:evenodd;stroke:none;stroke-width:1.0000000pt;stroke-linecap:butt;stroke-linejoin:miter;stroke-opacity:1.0000000;overflow:visible"
   id="rect2554"
   width="4.2732639"
   height="1.3854997"
   x="45.867649"
   y="-120.00694"
   transform="matrix(0.000000,1.000000,-1.000000,0.000000,0.000000,0.000000)" /><rect
   style="fill:url(#linearGradient2222);fill-opacity:1.0000000;fill-rule:evenodd;stroke:none;stroke-width:1.0000000pt;stroke-linecap:butt;stroke-linejoin:miter;stroke-opacity:1.0000000;overflow:visible"
   id="rect2220"
   width="10.194719"
   height="2.8711662"
   x="-108.93764"
   y="-55.374138"
   transform="scale(-1.000000,-1.000000)" /><rect
   style="fill:url(#linearGradient2234);fill-opacity:1.0000000;fill-rule:evenodd;stroke:none;stroke-width:1.0000000pt;stroke-linecap:butt;stroke-linejoin:miter;stroke-opacity:1.0000000;overflow:visible"
   id="rect2232"
   width="3.8459616"
   height="1.3854997"
   x="46.209034"
   y="-155.62357"
   transform="matrix(0.000000,1.000000,-1.000000,0.000000,0.000000,0.000000)" /><g
   id="g147"
   transform="matrix(1.331490,0.000000,0.000000,1.331490,60.94726,-188.1131)">
			<g
   id="g149">
				<line
   id="line151"
   y2="203.45300"
   x2="53.832001"
   y1="196.45300"
   x1="53.832001"
   style="fill:none;stroke:#000000;stroke-miterlimit:1.0000000" />
				<line
   id="line153"
   y2="206.95300"
   x2="56.832001"
   y1="192.95300"
   x1="56.832001"
   style="fill:none;stroke:#000000;stroke-miterlimit:1.0000000" />
			</g>
			<polyline
   id="polyline155"
   points="74.284,181.397 74.284,199.953 56.784,199.953 "
   style="fill:none;stroke:#000000;stroke-miterlimit:1.0000000" />
			<polyline
   id="polyline157"
   points="53.284,199.953 35.034,199.953 35.034,181.397 "
   style="fill:none;stroke:#000000;stroke-miterlimit:1.0000000" />
			<polyline
   id="polyline159"
   points="35.034,181.397 35.034,153.647 40.18,153.647 "
   style="fill:none;stroke:#000000;stroke-miterlimit:1.0000000" />
			<polyline
   id="polyline161"
   points="70.617,153.647 74.284,153.647 74.284,181.397 "
   style="fill:none;stroke:#000000;stroke-miterlimit:1.0000000" />
			<g
   id="g163">
				<polyline
   id="polyline165"
   points="35.117,177.523 40.065,177.523 44.867,177.523       46.68,173.669 48.846,180.189 51.742,173.669 54.18,180.169 56.742,173.606 59.43,180.106 61.492,173.794 63.18,177.523       70.018,177.523 74.305,177.523 "
   style="fill:none;stroke:#000000;stroke-miterlimit:1.0000000" />
			</g>
			<g
   id="g167">
				<polyline
   id="polyline169"
   points="35.148,153.71 40.096,153.71 44.898,153.71       46.711,149.856 48.877,156.377 51.773,149.856 54.211,156.356 56.773,149.794 59.461,156.294 61.523,149.981 63.211,153.71       70.049,153.71 74.336,153.71 "
   style="fill:none;stroke:#000000;stroke-miterlimit:1.0000000" />
			</g>
		</g><rect
   style="fill:url(#linearGradient2214);fill-opacity:1.0;fill-rule:evenodd;stroke:none;stroke-width:1.0000000pt;stroke-linecap:butt;stroke-linejoin:miter;stroke-opacity:1.0000000"
   id="rect2544"
   width="6.6241527"
   height="3.0269308"
   x="162.25977"
   y="39.407307" /><text
   id="text95"
   x="-118.2317"
   y="1.58566"><tspan
     x="-118.2317"
     y="1.58566"
     style="font-size:8.5000000px;font-family:Liberation Sans"
     id="tspan97">1</tspan></text>

<text
   id="text101"
   x="-17.20647"
   y="1.5857"><tspan
     x="-17.20647"
     y="1.5857"
     style="font-size:8.5000000px;font-family:Liberation Sans"
     id="tspan103">2</tspan></text>

<text
   id="text107"
   x="89.746201"
   y="1.4653"><tspan
     x="89.746201"
     y="1.4653"
     style="font-size:8.5000000px;font-family:Liberation Sans"
     id="tspan109">3</tspan></text>

<text
   id="text173"
   x="197.3446"
   y="1.5857"><tspan
     x="197.3446"
     y="1.5857"
     style="font-size:8.5000000px;font-family:Liberation Sans"
     id="tspan175">4</tspan></text>

<line
   id="line1439"
   y2="-51.666298"
   x2="51.986931"
   y1="-29.666296"
   x1="51.986931"
   style="fill:none;overflow:visible" /><rect
   style="fill:url(#linearGradient2218);fill-opacity:1.0000000;fill-rule:evenodd;stroke:none;stroke-width:1.0000000pt;stroke-linecap:butt;stroke-linejoin:miter;stroke-opacity:1.0000000;overflow:visible"
   id="rect2216"
   width="6.6241527"
   height="3.0269308"
   x="-106.73757"
   y="-29.760099"
   transform="scale(-1.000000,-1.000000)" /></svg>