<?xml version="1.0" encoding="UTF-8" standalone="no"?>
<!-- Generator: Adobe Illustrator 11 Build 196, SVG Export Plug-In . SVG Version: 6.0.0 Build 78)  -->

<svg
   xmlns:dc="http://purl.org/dc/elements/1.1/"
   xmlns:cc="http://creativecommons.org/ns#"
   xmlns:rdf="http://www.w3.org/1999/02/22-rdf-syntax-ns#"
   xmlns:svg="http://www.w3.org/2000/svg"
   xmlns="http://www.w3.org/2000/svg"
   xmlns:sodipodi="http://sodipodi.sourceforge.net/DTD/sodipodi-0.dtd"
   xmlns:inkscape="http://www.inkscape.org/namespaces/inkscape"
   width="117.125"
   height="362.623"
   viewBox="0 0 117.125 362.623"
   style="overflow:visible;enable-background:new 0 0 117.125 362.623"
   xml:space="preserve"
   id="svg2"
   sodipodi:version="0.32"
   sodipodi:docname="seriesresistors.svg"
   version="1.1"><metadata
   id="metadata434"><rdf:RDF><cc:Work
       rdf:about=""><dc:format>image/svg+xml</dc:format><dc:type
         rdf:resource="http://purl.org/dc/dcmitype/StillImage" /></cc:Work></rdf:RDF></metadata><defs
   id="defs432">
		
			 
		
		
		
		
		
			 
		
		
		
		
		
		 
		
		
		
		
		
		
		
		
		
		
			 
		
		
		
		
		
		
		
		
		
		
	
			
			
			
			
			
		
			
			
		
			
			
			 
			
			
			
			
			
			
			
			
		
			 
			 
		
			
			
			
			
			
		
			
		
			 
			 
		
			 
			 
		
			
			
			
			
			
			
			
			
			
			
			
			
			
			
			
			
			
			
			 
		
			
			
			
			
			
			
			
			
			
			
			
			
			
			
			 
		
			
			
			
			
			
			
			
			
			
			
			
			
			
			
			
			
			
			 
		
				
				
				 
				
				
				
				
				
			
				




				




				




			
				




				




				




			</defs><sodipodi:namedview
   inkscape:cy="190.28133"
   inkscape:cx="73.657289"
   inkscape:zoom="0.93677083"
   inkscape:window-height="996"
   inkscape:window-width="1278"
   inkscape:pageshadow="2"
   inkscape:pageopacity="0.0"
   borderopacity="1.0"
   bordercolor="#666666"
   pagecolor="#ffffff"
   id="base"
   inkscape:window-x="0"
   inkscape:window-y="0"
   inkscape:current-layer="svg2"
   showgrid="false"
   inkscape:window-maximized="0" />
	<style
   type="text/css"
   id="style4">
	
	</style>
	














<rect
   style="fill:#dedede;fill-opacity:1;fill-rule:evenodd;stroke:none;overflow:visible"
   id="rect1732"
   width="184.25197"
   height="90.446823"
   x="-34.481148"
   y="-85.282784" /><g
   style="overflow:visible"
   id="g13"
   transform="matrix(1.494629,0,0,1.494629,-54.092275,-83.451412)"><g
     id="g15"><line
       style="fill:none;stroke:#000000;stroke-miterlimit:1"
       x1="75.301003"
       y1="34.082001"
       x2="75.301003"
       y2="41.082001"
       id="line17" /><line
       style="fill:none;stroke:#000000;stroke-miterlimit:1"
       x1="78.301003"
       y1="30.582001"
       x2="78.301003"
       y2="44.582001"
       id="line19" /></g><polyline
     style="fill:none;stroke:#000000;stroke-miterlimit:1"
     points="107.294,19.026 107.294,37.582 78.169,37.582 "
     id="polyline21" /><polyline
     style="fill:none;stroke:#000000;stroke-miterlimit:1"
     points="75.169,37.582 44.794,37.582 44.794,19.026 "
     id="polyline23" /><g
     id="g25"><polyline
       style="fill:none;stroke:#000000;stroke-miterlimit:1"
       points="44.688,19.04 49.49,19.04 51.302,15.186        53.469,21.707 56.365,15.186 58.802,21.686 61.365,15.124 64.052,21.624 66.115,15.311 67.802,19.04 79.469,19.04 "
       id="polyline27" /></g><g
     id="g29"><polyline
       style="fill:none;stroke:#000000;stroke-miterlimit:1"
       points="107.271,19.04 102.469,19.04 100.656,15.186        98.49,21.707 95.594,15.186 93.156,21.686 90.594,15.124 87.906,21.624 85.844,15.311 84.156,19.04 72.49,19.04 "
       id="polyline31" /></g></g><g
   style="overflow:visible"
   id="g33"
   transform="matrix(1.494629,0,0,1.494629,-54.092275,-83.451412)"><text
     transform="translate(51.7861,9)"
     id="text35"><tspan
       x="0"
       y="0"
       style="font-size:7.6500001px;font-family:Liberation Sans"
       id="tspan37">R</tspan></text>
<text
     transform="translate(58.2856,12)"
     id="text39"><tspan
       x="0"
       y="0"
       style="font-size:5.94999981px;font-family:Liberation Sans"
       id="tspan41">1</tspan></text>
</g><g
   style="overflow:visible"
   id="g43"
   transform="matrix(1.494629,0,0,1.494629,-54.092275,-83.451412)"><text
     transform="translate(87.9668,9)"
     id="text45"><tspan
       x="0"
       y="0"
       style="font-size:7.6500001px;font-family:Liberation Sans"
       id="tspan47">R</tspan></text>
<text
     transform="translate(94.4663,12)"
     id="text49"><tspan
       x="0"
       y="0"
       style="font-size:5.94999981px;font-family:Liberation Sans"
       id="tspan51">2</tspan></text>
</g><g
   style="overflow:visible"
   id="g67"
   transform="translate(-29.053655,-85.680512)"><text
     transform="translate(0,16.79)"
     id="text69"><tspan
       x="0"
       y="0"
       style="font-size:8.5px;font-family:Liberation Sans"
       id="tspan71">1</tspan></text>
</g><g
   style="overflow:visible"
   id="g3172"
   transform="translate(-41.827755,-63.720172)"><rect
     y="75.256462"
     x="7.3466091"
     height="81.847153"
     width="184.25197"
     id="rect2462"
     style="fill:#dedede;fill-opacity:1;fill-rule:evenodd;stroke:none;overflow:visible" /><polygon
     transform="matrix(1.494629,0,0,1.494629,-10.48392,-30.294164)"
     style="fill:#b4b4b4"
     points="105.341,89.435 105.341,108.845 81.391,108.845 81.391,113.645 105.341,113.645 110.141,113.645 110.141,108.845 110.141,89.435 105.341,89.435 "
     id="polygon79" /><polygon
     transform="matrix(1.494629,0,0,1.494629,-10.48392,-30.294164)"
     style="fill:#b4b4b4"
     points="47.691,89.435 47.691,108.845 71.641,108.845 71.641,113.645 47.691,113.645 42.891,113.645 42.891,108.845 42.891,89.435 47.691,89.435 "
     id="polygon81" /><rect
     x="94.247696"
     y="103.90852"
     style="fill:#b4b4b4"
     width="19.560211"
     height="7.473146"
     id="rect83" /><g
     transform="matrix(1.494629,0,0,1.494629,-10.48392,-30.294164)"
     id="g85"><g
       id="g87"><line
         style="fill:none;stroke:#000000;stroke-miterlimit:1"
         x1="75.677002"
         y1="107.332"
         x2="75.677002"
         y2="114.332"
         id="line89" /><line
         style="fill:none;stroke:#000000;stroke-miterlimit:1"
         x1="78.677002"
         y1="103.832"
         x2="78.677002"
         y2="117.832"
         id="line91" /></g><polyline
       style="fill:none;stroke:#000000;stroke-miterlimit:1"
       points="107.67,92.276 107.67,110.832 78.545,110.832 "
       id="polyline93" /><polyline
       style="fill:none;stroke:#000000;stroke-miterlimit:1"
       points="75.545,110.832 45.17,110.832 45.17,92.276 "
       id="polyline95" /><g
       id="g97"><polyline
         style="fill:none;stroke:#000000;stroke-miterlimit:1"
         points="45.064,92.29 49.866,92.29 51.678,88.436         53.845,94.957 56.741,88.436 59.178,94.936 61.741,88.374 64.428,94.874 66.491,88.561 68.178,92.29 79.845,92.29 "
         id="polyline99" /></g><g
       id="g101"><polyline
         style="fill:none;stroke:#000000;stroke-miterlimit:1"
         points="107.647,92.29 102.845,92.29 101.033,88.436         98.866,94.957 95.97,88.436 93.533,94.936 90.97,88.374 88.283,94.874 86.22,88.561 84.533,92.29 72.866,92.29 "
         id="polyline103" /></g></g><g
     transform="translate(12.15428,4.895156)"
     id="g139"><text
       transform="translate(0,85.3901)"
       id="text141"><tspan
         x="0"
         y="0"
         style="font-size:8.5px;font-family:Liberation Sans"
         id="tspan143">2</tspan></text>
</g></g><g
   style="overflow:visible"
   id="g1625"
   transform="translate(-41.827755,44.246208)"><rect
     y="185.42197"
     x="7.3466091"
     height="181.61674"
     width="184.25197"
     id="rect2466"
     style="fill:#dedede;fill-opacity:1;fill-rule:evenodd;stroke:none;overflow:visible" /><rect
     x="-360.4762"
     y="86.068405"
     transform="matrix(0.0011,-0.999999,0.999999,0.0011,0,0)"
     style="fill:#bfbfbf;stroke:#000000;stroke-width:0.74731356;stroke-linejoin:round"
     width="29.692263"
     height="32.283951"
     id="rect7" /><path
     style="fill:#ffffff"
     d="m 111.04654,356.87609 c 2.3391,0 4.23578,-1.89818 4.23578,-4.23727 l 0,-5.47632 c 0,-2.3391 -1.89668,-4.23578 -4.23578,-4.23578 l -18.430269,0 c -2.339095,0 -4.235779,1.89668 -4.235779,4.23578 l 0,5.47632 c 0,2.33909 1.896684,4.23727 4.235779,4.23727 l 18.430269,0 z"
     id="path9"
     inkscape:connector-curvature="0" /><rect
     x="56.795986"
     y="195.23793"
     style="fill:#dcdcdc;stroke:#000000;stroke-width:0.74731457;stroke-linejoin:round"
     width="32.283989"
     height="29.693798"
     id="rect239" /><circle
     transform="matrix(1.494629,0,0,1.494629,-11.19626,-181.0021)"
     sodipodi:ry="1.296"
     sodipodi:rx="1.296"
     sodipodi:cy="271.129"
     sodipodi:cx="46.549999"
     id="circle243"
     r="1.296"
     cy="271.129"
     cx="46.549999"
     style="fill:#ffffff;stroke:#000000;stroke-width:0.5;stroke-linejoin:round"
     d="m 47.845999,271.129 c 0,0.71576 -0.580239,1.296 -1.296,1.296 -0.715761,0 -1.296,-0.58024 -1.296,-1.296 0,-0.71576 0.580239,-1.296 1.296,-1.296 0.715761,0 1.296,0.58024 1.296,1.296 z" /><circle
     transform="matrix(1.494629,0,0,1.494629,-11.19626,-181.0021)"
     sodipodi:ry="1.296"
     sodipodi:rx="1.296"
     sodipodi:cy="271.13101"
     sodipodi:cx="65.665001"
     id="circle245"
     r="1.296"
     cy="271.13101"
     cx="65.665001"
     style="fill:#ffffff;stroke:#000000;stroke-width:0.5;stroke-linejoin:round"
     d="m 66.961001,271.13101 c 0,0.71576 -0.580239,1.296 -1.296,1.296 -0.715761,0 -1.296,-0.58024 -1.296,-1.296 0,-0.71576 0.580239,-1.296 1.296,-1.296 0.715761,0 1.296,0.58024 1.296,1.296 z" /><path
     style="fill:none;stroke:#7f7f7f;stroke-width:4.48388767;stroke-linejoin:round;stroke-miterlimit:1"
     d="m 88.667461,226.00188 c 3.339001,5.15797 9.664272,16.55152 8.916957,31.49781"
     id="path247"
     inkscape:connector-curvature="0" /><path
     style="fill:none;stroke:#b4b4b4;stroke-width:4.48388767;stroke-linejoin:round"
     d="m 56.440267,224.23523 c -7.970858,5.13853 -10.03793,26.86596 -5.395612,34.44373"
     id="path249"
     inkscape:connector-curvature="0" /><polygon
     transform="matrix(1.494629,0,0,1.494629,-11.19626,-181.0021)"
     style="fill:#b4b4b4"
     points="110.141,295.603 105.341,295.603 105.341,295.603 105.341,315.014 81.391,315.014 81.391,319.813 105.341,319.813 110.141,319.813 110.141,315.014 "
     id="polygon251" /><polygon
     transform="matrix(1.494629,0,0,1.494629,-11.19626,-181.0021)"
     style="fill:#b4b4b4"
     points="42.891,295.603 47.691,295.603 47.691,295.603 47.691,315.014 71.641,315.014 71.641,319.813 47.691,319.813 42.891,319.813 42.891,315.014 "
     id="polygon253" /><rect
     x="93.535454"
     y="261.3454"
     style="fill:#b4b4b4"
     width="19.560211"
     height="7.473146"
     id="rect255" /><g
     transform="matrix(1.494629,0,0,1.494629,-11.19626,-181.0021)"
     id="g259"><line
       id="line261"
       y2="320.5"
       x2="75.677002"
       y1="313.5"
       x1="75.677002"
       style="fill:none;stroke:#000000;stroke-miterlimit:1" /><line
       id="line263"
       y2="324"
       x2="78.677002"
       y1="310"
       x1="78.677002"
       style="fill:none;stroke:#000000;stroke-miterlimit:1" /></g><polyline
     transform="matrix(1.494629,0,0,1.494629,-11.19626,-181.0021)"
     id="polyline265"
     points="107.67,298.444 107.67,317 78.545,317 "
     style="fill:none;stroke:#000000;stroke-miterlimit:1" /><polyline
     transform="matrix(1.494629,0,0,1.494629,-11.19626,-181.0021)"
     id="polyline267"
     points="75.545,317 45.17,317 45.17,298.444 "
     style="fill:none;stroke:#000000;stroke-miterlimit:1" /><g
     transform="matrix(1.494629,0,0,1.494629,-11.19626,-181.0021)"
     id="g269"><polyline
       id="polyline271"
       points="45.064,298.458 49.866,298.458 51.678,294.604       53.845,301.125 56.741,294.604 59.178,301.104 61.741,294.542 64.428,301.042 66.491,294.729 68.178,298.458 79.845,298.458 "
       style="fill:none;stroke:#000000;stroke-miterlimit:1" /></g><g
     transform="matrix(1.494629,0,0,1.494629,-11.19626,-181.0021)"
     id="g273"><polyline
       id="polyline275"
       points="107.647,298.458 102.845,298.458 101.033,294.604       98.866,301.125 95.97,294.604 93.533,301.104 90.97,294.542 88.283,301.042 86.22,294.729 84.533,298.458 72.866,298.458 "
       style="fill:none;stroke:#000000;stroke-miterlimit:1" /></g><polygon
     transform="matrix(1.494629,0,0,1.494629,-11.19626,-181.0021)"
     points="73.728,293.458 73.728,293.458 72.877,298.337 72.782,293.385 "
     id="polygon283" /><polygon
     transform="matrix(1.494629,0,0,1.494629,-11.19626,-181.0021)"
     points="42.421,293.631 42.421,293.631 44.855,297.946 41.644,294.175 "
     id="polygon285" /><circle
     transform="matrix(1.494629,0,0,1.494629,-11.19626,-181.0021)"
     sodipodi:ry="1.296"
     sodipodi:rx="1.296"
     sodipodi:cy="342.97"
     sodipodi:cx="85.244003"
     id="circle289"
     r="1.296"
     cy="342.97"
     cx="85.244003"
     style="fill:#ffffff;stroke:#000000;stroke-width:0.5;stroke-linejoin:round"
     d="m 86.540003,342.97 c 0,0.71576 -0.580239,1.296 -1.296,1.296 -0.715761,0 -1.296,-0.58024 -1.296,-1.296 0,-0.71576 0.580239,-1.296 1.296,-1.296 0.715761,0 1.296,0.58024 1.296,1.296 z" /><circle
     transform="matrix(1.494629,0,0,1.494629,-11.19626,-181.0021)"
     sodipodi:ry="1.296"
     sodipodi:rx="1.296"
     sodipodi:cy="342.948"
     sodipodi:cx="66.129997"
     id="circle291"
     r="1.296"
     cy="342.948"
     cx="66.129997"
     style="fill:#ffffff;stroke:#000000;stroke-width:0.5;stroke-linejoin:round"
     d="m 67.425997,342.948 c 0,0.71576 -0.580239,1.296 -1.296,1.296 -0.715761,0 -1.296,-0.58024 -1.296,-1.296 0,-0.71576 0.580239,-1.296 1.296,-1.296 0.715761,0 1.296,0.58024 1.296,1.296 z" /><path
     style="fill:none;stroke:#7f7f7f;stroke-width:4.48388767;stroke-linejoin:round;stroke-miterlimit:1"
     d="M 86.799174,330.62592 C 83.467646,325.46347 77.30529,316.33278 78.07054,301.38799"
     id="path293"
     inkscape:connector-curvature="0" /><path
     style="fill:none;stroke:#b4b4b4;stroke-width:4.48388767;stroke-linejoin:round"
     d="m 117.7664,330.91737 c 7.97683,-5.12956 10.88239,-18.97431 10.84054,-30.34695"
     id="path295"
     inkscape:connector-curvature="0" /><polygon
     transform="matrix(1.494629,0,0,1.494629,-11.19626,-181.0021)"
     points="59.154,322.425 59.154,322.425 60.01,317.546 60.1,322.499 "
     id="polygon297" /><polygon
     transform="matrix(1.494629,0,0,1.494629,-11.19626,-181.0021)"
     points="93.538,322.202 93.538,322.202 93.827,317.257 94.486,322.167 "
     id="polygon299" /><rect
     x="110.31416"
     y="194.90613"
     style="fill:#dcdcdc;stroke:#000000;stroke-width:0.74731457;stroke-linejoin:round"
     width="32.283989"
     height="29.693798"
     id="rect301" /><circle
     transform="matrix(1.494629,0,0,1.494629,-11.19626,-181.0021)"
     sodipodi:ry="1.296"
     sodipodi:rx="1.296"
     sodipodi:cy="270.90799"
     sodipodi:cx="82.331001"
     id="circle305"
     r="1.296"
     cy="270.90799"
     cx="82.331001"
     style="fill:#ffffff;stroke:#000000;stroke-width:0.5;stroke-linejoin:round"
     d="m 83.627001,270.90799 c 0,0.71576 -0.580239,1.296 -1.296,1.296 -0.715761,0 -1.296,-0.58024 -1.296,-1.296 0,-0.71576 0.580239,-1.296 1.296,-1.296 0.715761,0 1.296,0.58024 1.296,1.296 z" /><circle
     transform="matrix(1.494629,0,0,1.494629,-11.19626,-181.0021)"
     sodipodi:ry="1.296"
     sodipodi:rx="1.296"
     sodipodi:cy="270.909"
     sodipodi:cx="101.445"
     id="circle307"
     r="1.296"
     cy="270.909"
     cx="101.445"
     style="fill:#ffffff;stroke:#000000;stroke-width:0.5;stroke-linejoin:round"
     d="m 102.741,270.909 c 0,0.71576 -0.58024,1.296 -1.296,1.296 -0.71576,0 -1.296,-0.58024 -1.296,-1.296 0,-0.71576 0.58024,-1.296 1.296,-1.296 0.71576,0 1.296,0.58024 1.296,1.296 z" /><path
     style="fill:none;stroke:#7f7f7f;stroke-width:4.48388767;stroke-linejoin:round;stroke-miterlimit:1"
     d="m 142.14829,225.67007 c 3.3375,5.15797 9.30406,17.50062 8.55675,32.44691"
     id="path309"
     inkscape:connector-curvature="0" /><path
     style="fill:none;stroke:#b4b4b4;stroke-width:4.48388767;stroke-linejoin:round"
     d="m 109.92109,223.90492 c -7.97086,5.13853 -5.55853,20.77982 -5.39561,34.44372"
     id="path311"
     inkscape:connector-curvature="0" /><polygon
     transform="matrix(1.494629,0,0,1.494629,-11.19626,-181.0021)"
     points="108.321,293.798 108.321,293.798 107.471,298.678 107.375,293.726 "
     id="polygon313" /><polygon
     transform="matrix(1.494629,0,0,1.494629,-11.19626,-181.0021)"
     points="77.875,293.568 77.875,293.568 77.646,298.517 76.927,293.616 "
     id="polygon315" /><polygon
     transform="matrix(1.494629,0,0,1.494629,-11.19626,-181.0021)"
     id="polygon319"
     points="82.719,355.336 81.928,355.336 81.429,355.641 81.428,355.641 81.428,355.641 81.428,355.641 81.429,355.641 81.928,355.946 82.719,355.946 82.72,355.946 83.511,355.946 84.01,355.641 84.01,355.641 84.011,355.641 84.01,355.641 84.011,355.641 84.01,355.641 83.511,355.336 82.72,355.336 " /><polygon
     transform="matrix(1.494629,0,0,1.494629,-11.19626,-181.0021)"
     id="polygon321"
     points="78.281,358.079 77.49,358.079 76.99,358.383 76.99,358.383 76.99,358.383 76.99,358.383 76.99,358.383 77.49,358.688 78.281,358.688 78.282,358.688 79.072,358.688 79.572,358.383 79.572,358.383 79.572,358.383 79.572,358.383 79.572,358.383 79.572,358.383 79.072,358.079 78.282,358.079 " /><polygon
     transform="matrix(1.494629,0,0,1.494629,-11.19626,-181.0021)"
     id="polygon323"
     points="78.281,355.336 77.49,355.336 76.99,355.641 76.99,355.641 76.99,355.641 76.99,355.641 76.99,355.641 77.49,355.946 78.281,355.946 78.282,355.946 79.072,355.946 79.572,355.641 79.572,355.641 79.572,355.641 79.572,355.641 79.572,355.641 79.572,355.641 79.072,355.336 78.282,355.336 " /><polygon
     transform="matrix(1.494629,0,0,1.494629,-11.19626,-181.0021)"
     id="polygon325"
     points="78.281,352.595 77.49,352.595 76.99,352.899 76.99,352.899 76.99,352.899 76.99,352.899 76.99,352.899 77.49,353.204 78.281,353.204 78.282,353.204 79.072,353.204 79.572,352.899 79.572,352.899 79.572,352.899 79.572,352.899 79.572,352.899 79.572,352.899 79.072,352.595 78.282,352.595 " /><polygon
     transform="matrix(1.494629,0,0,1.494629,-11.19626,-181.0021)"
     id="polygon327"
     points="77.053,357.041 77.053,356.25 76.748,355.75 76.748,355.75 76.748,355.75 76.748,355.75 76.748,355.75 76.443,356.25 76.443,357.041 76.443,357.042 76.443,357.833 76.748,358.332 76.748,358.332 76.748,358.333 76.748,358.333 76.748,358.333 76.748,358.332 77.053,357.833 77.053,357.042 " /><polygon
     transform="matrix(1.494629,0,0,1.494629,-11.19626,-181.0021)"
     id="polygon329"
     points="77.053,354.257 77.053,353.466 76.748,352.966 76.748,352.966 76.748,352.966 76.748,352.966 76.748,352.966 76.443,353.466 76.443,354.257 76.443,354.258 76.443,355.048 76.748,355.548 76.748,355.548 76.748,355.548 76.748,355.548 76.748,355.548 76.748,355.548 77.053,355.048 77.053,354.258 " /><polygon
     transform="matrix(1.494629,0,0,1.494629,-11.19626,-181.0021)"
     id="polygon331"
     points="75.68,357.033 75.68,356.242 75.376,355.743 75.376,355.742 75.376,355.742 75.375,355.742 75.375,355.743 75.071,356.242 75.071,357.033 75.071,357.034 75.071,357.824 75.375,358.324 75.375,358.324 75.375,358.324 75.376,358.324 75.376,358.324 75.376,358.324 75.68,357.824 75.68,357.034 " /><polygon
     transform="matrix(1.494629,0,0,1.494629,-11.19626,-181.0021)"
     id="polygon333"
     points="75.68,354.249 75.68,353.458 75.376,352.958 75.376,352.958 75.376,352.958 75.375,352.958 75.375,352.958 75.071,353.458 75.071,354.249 75.071,354.25 75.071,355.041 75.375,355.54 75.375,355.54 75.375,355.541 75.376,355.54 75.376,355.541 75.376,355.54 75.68,355.041 75.68,354.25 " /><polygon
     transform="matrix(1.494629,0,0,1.494629,-11.19626,-181.0021)"
     id="polygon335"
     points="73.842,358.079 73.052,358.079 72.552,358.383 72.552,358.383 72.552,358.383 72.552,358.383 72.552,358.383 73.052,358.688 73.842,358.688 73.843,358.688 74.634,358.688 75.134,358.383 75.134,358.383 75.134,358.383 75.134,358.383 75.134,358.383 75.134,358.383 74.634,358.079 73.843,358.079 " /><polygon
     transform="matrix(1.494629,0,0,1.494629,-11.19626,-181.0021)"
     id="polygon337"
     points="73.842,352.595 73.052,352.595 72.552,352.899 72.552,352.899 72.552,352.899 72.552,352.899 72.552,352.899 73.052,353.204 73.842,353.204 73.843,353.204 74.634,353.204 75.134,352.899 75.134,352.899 75.134,352.899 75.134,352.899 75.134,352.899 75.134,352.899 74.634,352.595 73.843,352.595 " /><polygon
     transform="matrix(1.494629,0,0,1.494629,-11.19626,-181.0021)"
     id="polygon339"
     points="72.615,357.041 72.615,356.25 72.31,355.75 72.31,355.75 72.31,355.75 72.31,355.75 72.31,355.75 72.005,356.25 72.005,357.041 72.005,357.042 72.005,357.833 72.31,358.332 72.31,358.332 72.31,358.333 72.31,358.333 72.31,358.333 72.31,358.332 72.615,357.833 72.615,357.042 " /><polygon
     transform="matrix(1.494629,0,0,1.494629,-11.19626,-181.0021)"
     id="polygon341"
     points="72.615,354.257 72.615,353.466 72.31,352.966 72.31,352.966 72.31,352.966 72.31,352.966 72.31,352.966 72.005,353.466 72.005,354.257 72.005,354.258 72.005,355.048 72.31,355.548 72.31,355.548 72.31,355.548 72.31,355.548 72.31,355.548 72.31,355.548 72.615,355.048 72.615,354.258 " /><polygon
     transform="matrix(1.494629,0,0,1.494629,-11.19626,-181.0021)"
     id="polygon343"
     points="71.242,357.033 71.242,356.242 70.938,355.743 70.938,355.742 70.938,355.742 70.938,355.742 70.938,355.743 70.633,356.242 70.633,357.033 70.633,357.034 70.633,357.824 70.938,358.324 70.938,358.324 70.938,358.324 70.938,358.324 70.938,358.324 70.938,358.324 71.242,357.824 71.242,357.034 " /><polygon
     transform="matrix(1.494629,0,0,1.494629,-11.19626,-181.0021)"
     id="polygon345"
     points="71.242,354.249 71.242,353.458 70.938,352.958 70.938,352.958 70.938,352.958 70.938,352.958 70.938,352.958 70.633,353.458 70.633,354.249 70.633,354.25 70.633,355.041 70.938,355.54 70.938,355.54 70.938,355.541 70.938,355.54 70.938,355.541 70.938,355.54 71.242,355.041 71.242,354.25 " /><polygon
     transform="matrix(1.494629,0,0,1.494629,-11.19626,-181.0021)"
     id="polygon347"
     points="69.404,358.079 68.613,358.079 68.114,358.383 68.113,358.383 68.114,358.383 68.113,358.383 68.114,358.383 68.613,358.688 69.404,358.688 69.405,358.688 70.196,358.688 70.695,358.383 70.695,358.383 70.696,358.383 70.696,358.383 70.696,358.383 70.695,358.383 70.196,358.079 69.405,358.079 " /><polygon
     transform="matrix(1.494629,0,0,1.494629,-11.19626,-181.0021)"
     id="polygon349"
     points="69.404,352.595 68.613,352.595 68.114,352.899 68.113,352.899 68.114,352.899 68.113,352.899 68.114,352.899 68.613,353.204 69.404,353.204 69.405,353.204 70.196,353.204 70.695,352.899 70.695,352.899 70.696,352.899 70.696,352.899 70.696,352.899 70.695,352.899 70.196,352.595 69.405,352.595 " /><polygon
     transform="matrix(1.494629,0,0,1.494629,-11.19626,-181.0021)"
     id="polygon351"
     points="68.176,357.041 68.176,356.25 67.872,355.75 67.872,355.75 67.872,355.75 67.872,355.75 67.872,355.75 67.567,356.25 67.567,357.041 67.567,357.042 67.567,357.833 67.872,358.332 67.872,358.332 67.872,358.333 67.872,358.333 67.872,358.333 67.872,358.332 68.176,357.833 68.176,357.042 " /><polygon
     transform="matrix(1.494629,0,0,1.494629,-11.19626,-181.0021)"
     id="polygon353"
     points="68.176,354.257 68.176,353.466 67.872,352.966 67.872,352.966 67.872,352.966 67.872,352.966 67.872,352.966 67.567,353.466 67.567,354.257 67.567,354.258 67.567,355.048 67.872,355.548 67.872,355.548 67.872,355.548 67.872,355.548 67.872,355.548 67.872,355.548 68.176,355.048 68.176,354.258 " /><circle
     transform="matrix(1.494629,0,0,1.494629,-11.19626,-181.0021)"
     sodipodi:ry="0.42399999"
     sodipodi:rx="0.42399999"
     sodipodi:cy="352.55301"
     sodipodi:cx="76.178001"
     id="circle355"
     r="0.42399999"
     cy="352.55301"
     cx="76.178001"
     d="m 76.602001,352.55301 c 0,0.23417 -0.189831,0.424 -0.424,0.424 -0.234168,0 -0.424,-0.18983 -0.424,-0.424 0,-0.23417 0.189832,-0.424 0.424,-0.424 0.234169,0 0.424,0.18983 0.424,0.424 z" /><path
     style="fill:#ffffff"
     d="m 82.152372,211.89706 c 2.339095,0 4.235779,-1.89668 4.235779,-4.23727 l 0,-5.47632 c 0,-2.3391 -1.896684,-4.23578 -4.235779,-4.23578 l -18.430272,0 c -2.339095,0 -4.235779,1.89668 -4.235779,4.23578 l 0,5.47632 c 0,2.34059 1.896684,4.23727 4.235779,4.23727 l 18.430272,0 z"
     id="path357"
     inkscape:connector-curvature="0" /><path
     style="fill:#ffffff"
     d="m 135.67056,211.89706 c 2.3391,0 4.23578,-1.89668 4.23578,-4.23727 l 0,-5.47632 c 0,-2.3391 -1.89668,-4.23578 -4.23578,-4.23578 l -18.42878,0 c -2.34059,0 -4.23727,1.89668 -4.23727,4.23578 l 0,5.47632 c 0,2.34059 1.89668,4.23727 4.23727,4.23727 l 18.42878,0 z"
     id="path359"
     inkscape:connector-curvature="0" /><polygon
     transform="matrix(1.494629,0,0,1.494629,-11.19626,-181.0021)"
     id="polygon363"
     points="53.395,256.63 53.395,257.421 53.699,257.92 53.699,257.921 53.699,257.92 53.699,257.921 53.699,257.92 54.003,257.421 54.003,256.63 54.003,256.629 54.003,255.838 53.699,255.339 53.699,255.339 53.699,255.338 53.699,255.338 53.699,255.338 53.699,255.339 53.395,255.838 53.395,256.629 " /><polygon
     transform="matrix(1.494629,0,0,1.494629,-11.19626,-181.0021)"
     id="polygon365"
     points="53.395,259.414 53.395,260.205 53.699,260.705 53.699,260.705 53.699,260.705 53.699,260.705 53.699,260.705 54.003,260.205 54.003,259.414 54.003,259.413 54.003,258.623 53.699,258.123 53.699,258.123 53.699,258.123 53.699,258.123 53.699,258.123 53.699,258.123 53.395,258.623 53.395,259.413 " /><polygon
     transform="matrix(1.494629,0,0,1.494629,-11.19626,-181.0021)"
     id="polygon367"
     points="54.767,256.638 54.767,257.429 55.071,257.928 55.071,257.929 55.071,257.929 55.071,257.929 55.071,257.928 55.376,257.429 55.376,256.638 55.376,256.637 55.376,255.847 55.071,255.347 55.071,255.347 55.071,255.347 55.071,255.347 55.071,255.347 55.071,255.347 54.767,255.847 54.767,256.637 " /><polygon
     transform="matrix(1.494629,0,0,1.494629,-11.19626,-181.0021)"
     id="polygon369"
     points="54.767,259.422 54.767,260.213 55.071,260.712 55.071,260.713 55.071,260.713 55.071,260.713 55.071,260.712 55.376,260.213 55.376,259.422 55.376,259.421 55.376,258.63 55.071,258.131 55.071,258.131 55.071,258.13 55.071,258.131 55.071,258.13 55.071,258.131 54.767,258.63 54.767,259.421 " /><polygon
     transform="matrix(1.494629,0,0,1.494629,-11.19626,-181.0021)"
     id="polygon371"
     points="56.605,255.592 57.396,255.592 57.895,255.288 57.896,255.288 57.896,255.288 57.896,255.288 57.895,255.288 57.396,254.983 56.605,254.983 56.604,254.983 55.813,254.983 55.313,255.288 55.313,255.288 55.313,255.288 55.313,255.288 55.313,255.288 55.313,255.288 55.813,255.592 56.604,255.592 " /><polygon
     transform="matrix(1.494629,0,0,1.494629,-11.19626,-181.0021)"
     id="polygon373"
     points="56.605,261.076 57.396,261.076 57.895,260.772 57.896,260.772 57.896,260.772 57.896,260.771 57.895,260.771 57.396,260.467 56.605,260.467 56.604,260.467 55.813,260.467 55.313,260.771 55.313,260.771 55.313,260.771 55.313,260.772 55.313,260.772 55.313,260.772 55.813,261.076 56.604,261.076 " /><polygon
     transform="matrix(1.494629,0,0,1.494629,-11.19626,-181.0021)"
     id="polygon375"
     points="57.833,256.63 57.833,257.421 58.137,257.92 58.137,257.921 58.137,257.92 58.137,257.921 58.137,257.92 58.442,257.421 58.442,256.63 58.442,256.629 58.442,255.838 58.137,255.339 58.137,255.339 58.137,255.338 58.137,255.338 58.137,255.338 58.137,255.339 57.833,255.838 57.833,256.629 " /><polygon
     transform="matrix(1.494629,0,0,1.494629,-11.19626,-181.0021)"
     id="polygon377"
     points="57.833,259.414 57.833,260.205 58.137,260.705 58.137,260.705 58.137,260.705 58.137,260.705 58.137,260.705 58.442,260.205 58.442,259.414 58.442,259.413 58.442,258.623 58.137,258.123 58.137,258.123 58.137,258.123 58.137,258.123 58.137,258.123 58.137,258.123 57.833,258.623 57.833,259.413 " /><polygon
     transform="matrix(1.494629,0,0,1.494629,-11.19626,-181.0021)"
     id="polygon379"
     points="59.205,256.638 59.205,257.429 59.51,257.928 59.51,257.929 59.51,257.929 59.51,257.929 59.51,257.928 59.814,257.429 59.814,256.638 59.814,256.637 59.814,255.847 59.51,255.347 59.51,255.347 59.51,255.347 59.51,255.347 59.51,255.347 59.51,255.347 59.205,255.847 59.205,256.637 " /><polygon
     transform="matrix(1.494629,0,0,1.494629,-11.19626,-181.0021)"
     id="polygon381"
     points="59.205,259.422 59.205,260.213 59.51,260.712 59.51,260.713 59.51,260.713 59.51,260.713 59.51,260.712 59.814,260.213 59.814,259.422 59.814,259.421 59.814,258.63 59.51,258.131 59.51,258.131 59.51,258.13 59.51,258.131 59.51,258.13 59.51,258.131 59.205,258.63 59.205,259.421 " /><polygon
     transform="matrix(1.494629,0,0,1.494629,-11.19626,-181.0021)"
     id="polygon383"
     points="61.043,255.592 61.833,255.592 62.333,255.288 62.333,255.288 62.333,255.288 62.333,255.288 62.333,255.288 61.833,254.983 61.043,254.983 61.042,254.983 60.251,254.983 59.751,255.288 59.751,255.288 59.751,255.288 59.751,255.288 59.751,255.288 59.751,255.288 60.251,255.592 61.042,255.592 " /><polygon
     transform="matrix(1.494629,0,0,1.494629,-11.19626,-181.0021)"
     id="polygon385"
     points="61.043,261.076 61.833,261.076 62.333,260.772 62.333,260.772 62.333,260.772 62.333,260.771 62.333,260.771 61.833,260.467 61.043,260.467 61.042,260.467 60.251,260.467 59.751,260.771 59.751,260.771 59.751,260.771 59.751,260.772 59.751,260.772 59.751,260.772 60.251,261.076 61.042,261.076 " /><polygon
     transform="matrix(1.494629,0,0,1.494629,-11.19626,-181.0021)"
     id="polygon387"
     points="62.271,256.63 62.271,257.421 62.575,257.92 62.575,257.921 62.575,257.92 62.576,257.921 62.576,257.92 62.88,257.421 62.88,256.63 62.88,256.629 62.88,255.838 62.576,255.339 62.576,255.339 62.576,255.338 62.575,255.338 62.575,255.338 62.575,255.339 62.271,255.838 62.271,256.629 " /><polygon
     transform="matrix(1.494629,0,0,1.494629,-11.19626,-181.0021)"
     id="polygon389"
     points="62.271,259.414 62.271,260.205 62.575,260.705 62.575,260.705 62.575,260.705 62.576,260.705 62.576,260.705 62.88,260.205 62.88,259.414 62.88,259.413 62.88,258.623 62.576,258.123 62.576,258.123 62.576,258.123 62.575,258.123 62.575,258.123 62.575,258.123 62.271,258.623 62.271,259.413 " /><circle
     transform="matrix(1.494629,0,0,1.494629,-11.19626,-181.0021)"
     sodipodi:ry="0.42399999"
     sodipodi:rx="0.42399999"
     sodipodi:cy="261.11801"
     sodipodi:cx="54.269001"
     id="circle391"
     r="0.42399999"
     cy="261.11801"
     cx="54.269001"
     d="m 54.693001,261.11801 c 0,0.23417 -0.189831,0.424 -0.424,0.424 -0.234169,0 -0.424,-0.18983 -0.424,-0.424 0,-0.23417 0.189831,-0.424 0.424,-0.424 0.234169,0 0.424,0.18983 0.424,0.424 z" /><polygon
     transform="matrix(1.494629,0,0,1.494629,-11.19626,-181.0021)"
     id="polygon395"
     points="86.997,259.422 86.997,260.213 87.302,260.712 87.302,260.713 87.302,260.713 87.302,260.713 87.302,260.712 87.606,260.213 87.606,259.422 87.606,259.421 87.606,258.63 87.302,258.131 87.302,258.131 87.302,258.13 87.302,258.131 87.302,258.13 87.302,258.131 86.997,258.63 86.997,259.421 " /><polygon
     transform="matrix(1.494629,0,0,1.494629,-11.19626,-181.0021)"
     id="polygon397"
     points="88.835,255.592 89.625,255.592 90.125,255.288 90.125,255.288 90.125,255.288 90.125,255.288 90.125,255.288 89.625,254.983 88.835,254.983 88.834,254.983 88.043,254.983 87.544,255.288 87.544,255.288 87.543,255.288 87.543,255.288 87.543,255.288 87.544,255.288 88.043,255.592 88.834,255.592 " /><polygon
     transform="matrix(1.494629,0,0,1.494629,-11.19626,-181.0021)"
     id="polygon399"
     points="88.835,258.334 89.625,258.334 90.125,258.03 90.125,258.03 90.125,258.03 90.125,258.029 90.125,258.029 89.625,257.725 88.835,257.725 88.834,257.725 88.043,257.725 87.544,258.029 87.544,258.029 87.543,258.029 87.543,258.03 87.543,258.03 87.544,258.03 88.043,258.334 88.834,258.334 " /><polygon
     transform="matrix(1.494629,0,0,1.494629,-11.19626,-181.0021)"
     id="polygon401"
     points="88.835,261.076 89.625,261.076 90.125,260.772 90.125,260.772 90.125,260.772 90.125,260.771 90.125,260.771 89.625,260.467 88.835,260.467 88.834,260.467 88.043,260.467 87.544,260.771 87.544,260.771 87.543,260.771 87.543,260.772 87.543,260.772 87.544,260.772 88.043,261.076 88.834,261.076 " /><polygon
     transform="matrix(1.494629,0,0,1.494629,-11.19626,-181.0021)"
     id="polygon403"
     points="90.063,256.63 90.063,257.421 90.367,257.92 90.367,257.921 90.367,257.92 90.368,257.921 90.368,257.92 90.672,257.421 90.672,256.63 90.672,256.629 90.672,255.838 90.368,255.339 90.368,255.339 90.368,255.338 90.367,255.338 90.367,255.338 90.367,255.339 90.063,255.838 90.063,256.629 " /><polygon
     transform="matrix(1.494629,0,0,1.494629,-11.19626,-181.0021)"
     id="polygon405"
     points="91.435,256.638 91.435,257.429 91.74,257.928 91.74,257.929 91.74,257.929 91.74,257.929 91.74,257.928 92.044,257.429 92.044,256.638 92.044,256.637 92.044,255.847 91.74,255.347 91.74,255.347 91.74,255.347 91.74,255.347 91.74,255.347 91.74,255.347 91.435,255.847 91.435,256.637 " /><polygon
     transform="matrix(1.494629,0,0,1.494629,-11.19626,-181.0021)"
     id="polygon407"
     points="91.435,259.422 91.435,260.213 91.74,260.712 91.74,260.713 91.74,260.713 91.74,260.713 91.74,260.712 92.044,260.213 92.044,259.422 92.044,259.421 92.044,258.63 91.74,258.131 91.74,258.131 91.74,258.13 91.74,258.131 91.74,258.13 91.74,258.131 91.435,258.63 91.435,259.421 " /><polygon
     transform="matrix(1.494629,0,0,1.494629,-11.19626,-181.0021)"
     id="polygon409"
     points="93.273,255.592 94.064,255.592 94.563,255.288 94.564,255.288 94.563,255.288 94.564,255.288 94.563,255.288 94.064,254.983 93.273,254.983 93.272,254.983 92.481,254.983 91.982,255.288 91.982,255.288 91.981,255.288 91.981,255.288 91.981,255.288 91.982,255.288 92.481,255.592 93.272,255.592 " /><polygon
     transform="matrix(1.494629,0,0,1.494629,-11.19626,-181.0021)"
     id="polygon411"
     points="93.273,261.076 94.064,261.076 94.563,260.772 94.564,260.772 94.563,260.772 94.564,260.771 94.563,260.771 94.064,260.467 93.273,260.467 93.272,260.467 92.481,260.467 91.982,260.771 91.982,260.771 91.981,260.771 91.981,260.772 91.981,260.772 91.982,260.772 92.481,261.076 93.272,261.076 " /><polygon
     transform="matrix(1.494629,0,0,1.494629,-11.19626,-181.0021)"
     id="polygon413"
     points="94.501,256.63 94.501,257.421 94.806,257.92 94.806,257.921 94.806,257.92 94.806,257.921 94.806,257.92 95.11,257.421 95.11,256.63 95.11,256.629 95.11,255.838 94.806,255.339 94.806,255.339 94.806,255.338 94.806,255.338 94.806,255.338 94.806,255.339 94.501,255.838 94.501,256.629 " /><polygon
     transform="matrix(1.494629,0,0,1.494629,-11.19626,-181.0021)"
     id="polygon415"
     points="94.501,259.414 94.501,260.205 94.806,260.705 94.806,260.705 94.806,260.705 94.806,260.705 94.806,260.705 95.11,260.205 95.11,259.414 95.11,259.413 95.11,258.623 94.806,258.123 94.806,258.123 94.806,258.123 94.806,258.123 94.806,258.123 94.806,258.123 94.501,258.623 94.501,259.413 " /><polygon
     transform="matrix(1.494629,0,0,1.494629,-11.19626,-181.0021)"
     id="polygon417"
     points="95.874,256.638 95.874,257.429 96.178,257.928 96.178,257.929 96.178,257.929 96.178,257.929 96.178,257.928 96.482,257.429 96.482,256.638 96.482,256.637 96.482,255.847 96.178,255.347 96.178,255.347 96.178,255.347 96.178,255.347 96.178,255.347 96.178,255.347 95.874,255.847 95.874,256.637 " /><polygon
     transform="matrix(1.494629,0,0,1.494629,-11.19626,-181.0021)"
     id="polygon419"
     points="95.874,259.422 95.874,260.213 96.178,260.712 96.178,260.713 96.178,260.713 96.178,260.713 96.178,260.712 96.482,260.213 96.482,259.422 96.482,259.421 96.482,258.63 96.178,258.131 96.178,258.131 96.178,258.13 96.178,258.131 96.178,258.13 96.178,258.131 95.874,258.63 95.874,259.421 " /><polygon
     transform="matrix(1.494629,0,0,1.494629,-11.19626,-181.0021)"
     id="polygon421"
     points="97.711,255.592 98.502,255.592 99.001,255.288 99.002,255.288 99.002,255.288 99.002,255.288 99.001,255.288 98.502,254.983 97.711,254.983 97.71,254.983 96.92,254.983 96.42,255.288 96.42,255.288 96.42,255.288 96.42,255.288 96.42,255.288 96.42,255.288 96.92,255.592 97.71,255.592 " /><polygon
     transform="matrix(1.494629,0,0,1.494629,-11.19626,-181.0021)"
     id="polygon423"
     points="97.711,261.076 98.502,261.076 99.001,260.772 99.002,260.772 99.002,260.772 99.002,260.771 99.001,260.771 98.502,260.467 97.711,260.467 97.71,260.467 96.92,260.467 96.42,260.771 96.42,260.771 96.42,260.771 96.42,260.772 96.42,260.772 96.42,260.772 96.92,261.076 97.71,261.076 " /><polygon
     transform="matrix(1.494629,0,0,1.494629,-11.19626,-181.0021)"
     id="polygon425"
     points="98.939,256.63 98.939,257.421 99.244,257.92 99.244,257.921 99.244,257.92 99.244,257.921 99.244,257.92 99.548,257.421 99.548,256.63 99.548,256.629 99.548,255.838 99.244,255.339 99.244,255.339 99.244,255.338 99.244,255.338 99.244,255.338 99.244,255.339 98.939,255.838 98.939,256.629 " /><polygon
     transform="matrix(1.494629,0,0,1.494629,-11.19626,-181.0021)"
     id="polygon427"
     points="98.939,259.414 98.939,260.205 99.244,260.705 99.244,260.705 99.244,260.705 99.244,260.705 99.244,260.705 99.548,260.205 99.548,259.414 99.548,259.413 99.548,258.623 99.244,258.123 99.244,258.123 99.244,258.123 99.244,258.123 99.244,258.123 99.244,258.123 98.939,258.623 98.939,259.413 " /><circle
     transform="matrix(1.494629,0,0,1.494629,-11.19626,-181.0021)"
     sodipodi:ry="0.42399999"
     sodipodi:rx="0.42399999"
     sodipodi:cy="261.11801"
     sodipodi:cx="90.938004"
     id="circle429"
     r="0.42399999"
     cy="261.11801"
     cx="90.938004"
     d="m 91.362004,261.11801 c 0,0.23417 -0.189832,0.424 -0.424,0.424 -0.234169,0 -0.424,-0.18983 -0.424,-0.424 0,-0.23417 0.189831,-0.424 0.424,-0.424 0.234168,0 0.424,0.18983 0.424,0.424 z" /><text
     x="11.594717"
     y="202.67737"
     id="text279"><tspan
       id="tspan281"
       style="font-size:8.5px;font-family:Liberation Sans"
       y="202.67737"
       x="11.594717">4</tspan></text>
</g><g
   style="overflow:visible"
   id="g3191"
   transform="translate(-41.827755,152.43482)"><rect
     y="-51.941746"
     x="7.3466091"
     height="120.9857"
     width="184.25197"
     id="rect2464"
     style="fill:#dedede;fill-opacity:1;fill-rule:evenodd;stroke:none;overflow:visible" /><polygon
     transform="matrix(1.494629,0,0,1.494629,-12.62063,-284.56)"
     id="polygon147"
     points="110.141,183.791 105.341,183.791 105.341,183.791 105.341,203.201 81.391,203.201 81.391,208.001 105.341,208.001 110.141,208.001 110.141,203.201 "
     style="fill:#b4b4b4" /><polygon
     transform="matrix(1.494629,0,0,1.494629,-12.62063,-284.56)"
     id="polygon149"
     points="42.891,183.791 47.691,183.791 47.691,183.791 47.691,203.201 71.641,203.201 71.641,208.001 47.691,208.001 42.891,208.001 42.891,203.201 "
     style="fill:#b4b4b4" /><rect
     id="rect151"
     height="7.473146"
     width="19.560211"
     style="fill:#b4b4b4"
     y="-9.3301058"
     x="92.111023" /><g
     transform="matrix(1.494629,0,0,1.494629,-12.62063,-284.56)"
     id="g153"><g
       id="g155"><line
         id="line157"
         y2="208.688"
         x2="75.677002"
         y1="201.688"
         x1="75.677002"
         style="fill:none;stroke:#000000;stroke-miterlimit:1" /><line
         id="line159"
         y2="212.188"
         x2="78.677002"
         y1="198.188"
         x1="78.677002"
         style="fill:none;stroke:#000000;stroke-miterlimit:1" /></g><polyline
       id="polyline161"
       points="107.67,186.632 107.67,205.188 78.545,205.188 "
       style="fill:none;stroke:#000000;stroke-miterlimit:1" /><polyline
       id="polyline163"
       points="75.545,205.188 45.17,205.188 45.17,186.632 "
       style="fill:none;stroke:#000000;stroke-miterlimit:1" /><g
       id="g165"><polyline
         id="polyline167"
         points="45.064,186.646 49.866,186.646 51.678,182.792        53.845,189.312 56.741,182.792 59.178,189.292 61.741,182.729 64.428,189.229 66.491,182.917 68.178,186.646 79.845,186.646        "
         style="fill:none;stroke:#000000;stroke-miterlimit:1" /></g><g
       id="g169"><polyline
         id="polyline171"
         points="107.647,186.646 102.845,186.646 101.033,182.792        98.866,189.312 95.97,182.792 93.533,189.292 90.97,182.729 88.283,189.229 86.22,182.917 84.533,186.646 72.866,186.646 "
         style="fill:none;stroke:#000000;stroke-miterlimit:1" /></g></g><text
     style="font-size:17.93554878px"
     y="60.484074"
     x="97.31337"
     id="text183"><tspan
       x="97.31337"
       y="60.484074"
       style="font-size:8.89304256px;font-family:Liberation Sans"
       id="tspan185">battery</tspan></text>
<g
     transform="matrix(1.494629,0,0,1.494629,-12.62063,-284.56)"
     id="g193"><path
       id="path195"
       d="m 77.191,180.291 c 1.371,-10.968 13.709,-1.688 14.566,-7.593"
       style="fill:none;stroke:#000000"
       inkscape:connector-curvature="0" /><path
       id="path197"
       d="m 106.324,180.291 c -1.371,-10.968 -13.709,-1.688 -14.566,-7.593"
       style="fill:none;stroke:#000000"
       inkscape:connector-curvature="0" /></g><g
     transform="matrix(1.494629,0,0,1.494629,-12.62063,-284.56)"
     id="g199"><path
       id="path201"
       d="m 44.299,180.024 c 1.371,-10.969 13.71,-1.688 14.566,-7.594"
       style="fill:none;stroke:#000000"
       inkscape:connector-curvature="0" /><path
       id="path203"
       d="M 73.433,180.024 C 72.062,169.055 59.723,178.336 58.866,172.43"
       style="fill:none;stroke:#000000"
       inkscape:connector-curvature="0" /></g><g
     transform="matrix(1.494629,0,0,1.494629,-12.62063,-284.56)"
     id="g205"><path
       id="path207"
       d="m 92.683,210.946 c -1.371,10.969 -13.71,1.688 -14.567,7.594"
       style="fill:none;stroke:#000000"
       inkscape:connector-curvature="0" /><path
       id="path209"
       d="m 63.549,210.946 c 1.371,10.969 13.71,1.688 14.566,7.594"
       style="fill:none;stroke:#000000"
       inkscape:connector-curvature="0" /></g><text
     style="font-size:17.93554878px"
     y="-30.01531"
     x="81.269264"
     id="text221"><tspan
       x="81.269264"
       y="-30.01531"
       style="font-size:8.89304256px;font-family:Liberation Sans"
       id="tspan223">1</tspan></text>
<g
     transform="translate(12.53324,-216.1542)"
     id="g187"><text
       id="text189"
       transform="translate(0,179.7456)"><tspan
         id="tspan191"
         style="font-size:8.5px;font-family:Liberation Sans"
         y="0"
         x="0">3</tspan></text>
</g><text
     sodipodi:linespacing="125%"
     id="text3188"
     y="-33.124928"
     x="64.74646"
     style="font-size:11.74625683px;font-style:normal;font-variant:normal;font-weight:normal;font-stretch:normal;text-indent:0;text-align:start;text-decoration:none;line-height:125%;letter-spacing:0px;word-spacing:0px;text-transform:none;direction:ltr;block-progression:tb;writing-mode:lr-tb;text-anchor:start;baseline-shift:baseline;color:#000000;fill:#000000;fill-opacity:1;fill-rule:nonzero;stroke:none;stroke-width:1px;marker:none;visibility:visible;display:inline;overflow:visible;enable-background:accumulate;font-family:FreeSans;-inkscape-font-specification:FreeSans"
     xml:space="preserve"><tspan
       y="-33.124928"
       x="64.74646"
       id="tspan3190"
       sodipodi:role="line">ΔV</tspan></text>
<text
     style="font-size:17.93554878px;overflow:visible"
     y="-30.01531"
     x="128.31334"
     id="text221-4"><tspan
       x="128.31334"
       y="-30.01531"
       style="font-size:8.89304256px;font-family:Liberation Sans"
       id="tspan223-8">2</tspan></text>
<text
     sodipodi:linespacing="125%"
     id="text3188-7"
     y="-33.124928"
     x="111.79053"
     style="font-size:11.74625683px;font-style:normal;font-variant:normal;font-weight:normal;font-stretch:normal;text-indent:0;text-align:start;text-decoration:none;line-height:125%;letter-spacing:0px;word-spacing:0px;text-transform:none;direction:ltr;block-progression:tb;writing-mode:lr-tb;text-anchor:start;baseline-shift:baseline;color:#000000;fill:#000000;fill-opacity:1;fill-rule:nonzero;stroke:none;stroke-width:1px;marker:none;visibility:visible;display:inline;overflow:visible;enable-background:accumulate;font-family:FreeSans;-inkscape-font-specification:FreeSans"
     xml:space="preserve"><tspan
       y="-33.124928"
       x="111.79053"
       id="tspan3190-1"
       sodipodi:role="line">ΔV</tspan></text>
<text
     sodipodi:linespacing="125%"
     id="text3188-72"
     y="56.828224"
     x="79.779694"
     style="font-size:11.74625683px;font-style:normal;font-variant:normal;font-weight:normal;font-stretch:normal;text-indent:0;text-align:start;text-decoration:none;line-height:125%;letter-spacing:0px;word-spacing:0px;text-transform:none;direction:ltr;block-progression:tb;writing-mode:lr-tb;text-anchor:start;baseline-shift:baseline;color:#000000;fill:#000000;fill-opacity:1;fill-rule:nonzero;stroke:none;stroke-width:1px;marker:none;visibility:visible;display:inline;overflow:visible;enable-background:accumulate;font-family:FreeSans;-inkscape-font-specification:FreeSans"
     xml:space="preserve"><tspan
       y="56.828224"
       x="79.779694"
       id="tspan3190-7"
       sodipodi:role="line">ΔV</tspan></text>
</g><text
   id="text183-2"
   x="53.011673"
   y="-4.333684"
   style="font-size:17.93554878px;overflow:visible"><tspan
     id="tspan185-2"
     style="font-size:8.89304256px;font-family:Liberation Sans"
     y="-4.333684"
     x="53.011673">battery</tspan></text>
<text
   xml:space="preserve"
   style="font-size:11.74625683px;font-style:normal;font-variant:normal;font-weight:normal;font-stretch:normal;text-indent:0;text-align:start;text-decoration:none;line-height:125%;letter-spacing:0px;word-spacing:0px;text-transform:none;direction:ltr;block-progression:tb;writing-mode:lr-tb;text-anchor:start;baseline-shift:baseline;color:#000000;fill:#000000;fill-opacity:1;fill-rule:nonzero;stroke:none;stroke-width:1px;marker:none;visibility:visible;display:inline;overflow:visible;enable-background:accumulate;font-family:FreeSans;-inkscape-font-specification:FreeSans"
   x="35.477997"
   y="-7.9895372"
   id="text3188-72-6"
   sodipodi:linespacing="125%"><tspan
     sodipodi:role="line"
     id="tspan3190-7-1"
     x="35.477997"
     y="-7.9895372">ΔV</tspan></text>
</svg>