<?xml version="1.0" encoding="UTF-8" standalone="no"?>
<!-- Generator: Adobe Illustrator 11 Build 196, SVG Export Plug-In . SVG Version: 6.0.0 Build 78)  -->
<svg
   xmlns:dc="http://purl.org/dc/elements/1.1/"
   xmlns:cc="http://web.resource.org/cc/"
   xmlns:rdf="http://www.w3.org/1999/02/22-rdf-syntax-ns#"
   xmlns:svg="http://www.w3.org/2000/svg"
   xmlns="http://www.w3.org/2000/svg"
   xmlns:sodipodi="http://inkscape.sourceforge.net/DTD/sodipodi-0.dtd"
   xmlns:inkscape="http://www.inkscape.org/namespaces/inkscape"
   width="58.225"
   height="98.737"
   viewBox="0 0 58.225 98.737"
   style="overflow:visible;enable-background:new 0 0 58.225 98.737"
   xml:space="preserve"
   id="svg2"
   sodipodi:version="0.32"
   sodipodi:docname="shortcircuit.svg"
   sodipodi:docbase="/home/bcrowell/Documents/writing/lm/trunk/4em/ch03/figs"><metadata
   id="metadata28"><rdf:RDF><cc:Work
       rdf:about=""><dc:format>image/svg+xml</dc:format><dc:type
         rdf:resource="http://purl.org/dc/dcmitype/StillImage" /></cc:Work></rdf:RDF></metadata><defs
   id="defs26" /><sodipodi:namedview
   inkscape:cy="48.935957"
   inkscape:cx="7.5286087"
   inkscape:zoom="2.8557733"
   inkscape:window-height="996"
   inkscape:window-width="1278"
   inkscape:pageshadow="2"
   inkscape:pageopacity="0.0"
   borderopacity="1.0"
   bordercolor="#666666"
   pagecolor="#ffffff"
   id="base"
   inkscape:window-x="0"
   inkscape:window-y="0"
   inkscape:current-layer="svg2" />
	<rect
   style="fill:#dedede;fill-opacity:1.0000000;fill-rule:evenodd;stroke:none;stroke-width:1.0000000pt;stroke-linecap:butt;stroke-linejoin:miter;stroke-opacity:1.0000000"
   id="rect1326"
   width="184.25197"
   height="114.15472"
   x="-71.084076"
   y="-8.7645311" /><g
   id="Layer_1"
   transform="translate(0.000000,-2.000000)">
		<g
   id="g5">
			
				<rect
   x="0.37500000"
   y="46.799000"
   style="fill:#b4b4b4;stroke:#000000;stroke-width:0.75000000;stroke-linejoin:round"
   width="34.688000"
   height="51.562000"
   id="rect7" /> 
			<polygon
   style="fill:#b4b4b4;stroke:#000000;stroke-width:0.75000000;stroke-linejoin:round"
   points="35.062000,46.933000 41.761000,43.065000 7.0730000,43.065000 0.37500000,46.933000 35.062000,46.933000 "
   id="polygon9" />
			<polygon
   style="fill:#b4b4b4;stroke:#000000;stroke-width:0.75000000;stroke-linejoin:round"
   points="41.391000,43.010000 34.829000,46.799000 34.829000,98.362000 41.391000,94.573000 41.391000,43.010000 "
   id="polygon11" />
			<path
   style="fill:#ffffff;stroke:#000000;stroke-width:0.75000000;stroke-linejoin:round"
   d="M 32.801000,40.194000 L 27.997000,40.194000 L 27.997000,43.946000 C 27.923000,44.058000 27.848000,44.171000 27.848000,44.295000 C 27.848000,44.954000 28.976000,45.488000 30.367000,45.488000 C 31.758000,45.488000 32.886000,44.954000 32.886000,44.295000 C 32.886000,44.224000 32.826000,44.162000 32.801000,44.094000 L 32.801000,40.194000 L 32.801000,40.194000 z "
   id="path13" />
			
				<ellipse
   style="fill:#ffffff;stroke:#000000;stroke-width:0.75000000;stroke-linejoin:round"
   cx="30.367001"
   cy="40.466999"
   rx="3.5999999"
   ry="1.7050000"
   id="ellipse15"
   sodipodi:cx="30.367001"
   sodipodi:cy="40.466999"
   sodipodi:rx="3.5999999"
   sodipodi:ry="1.7050000" /> 
			<path
   style="fill:#ffffff;stroke:#000000;stroke-width:0.75000000;stroke-linejoin:round"
   d="M 14.242000,41.132000 L 9.4370000,41.132000 L 9.4370000,43.531000 C 9.3630000,43.643000 9.2890000,43.757000 9.2890000,43.880000 C 9.2890000,44.539000 10.417000,45.073000 11.808000,45.073000 C 13.199000,45.073000 14.327000,44.538000 14.327000,43.880000 C 14.327000,43.809000 14.267000,43.747000 14.242000,43.680000 L 14.242000,41.132000 L 14.242000,41.132000 z "
   id="path17" />
			
				<ellipse
   style="fill:#ffffff;stroke:#000000;stroke-width:0.75000000;stroke-linejoin:round"
   cx="11.808000"
   cy="40.779999"
   rx="2.2730000"
   ry="1.0770000"
   id="ellipse19"
   sodipodi:cx="11.808000"
   sodipodi:cy="40.779999"
   sodipodi:rx="2.2730000"
   sodipodi:ry="1.0770000" /> 
		</g>
		<path
   style="fill:none;stroke:#000000;stroke-width:0.75000000;stroke-linejoin:round"
   d="M 11.808000,39.703000 C 10.683000,31.828000 25.044000,-11.986000 42.294000,3.7640000 C 59.544000,19.514000 46.138000,31.514000 31.888000,38.264000"
   id="path21" />
		<line
   style="fill:none"
   x1="58.224998"
   y1="26.216000"
   x2="58.224998"
   y2="49.716000"
   id="line23" />
	</g>
</svg>