<?xml version="1.0" encoding="UTF-8" standalone="no"?>
<!-- Created with Inkscape (http://www.inkscape.org/) -->
<svg
   xmlns:dc="http://purl.org/dc/elements/1.1/"
   xmlns:cc="http://web.resource.org/cc/"
   xmlns:rdf="http://www.w3.org/1999/02/22-rdf-syntax-ns#"
   xmlns:svg="http://www.w3.org/2000/svg"
   xmlns="http://www.w3.org/2000/svg"
   xmlns:sodipodi="http://inkscape.sourceforge.net/DTD/sodipodi-0.dtd"
   xmlns:inkscape="http://www.inkscape.org/namespaces/inkscape"
   width="744.09448819"
   height="1052.3622047"
   id="svg2"
   sodipodi:version="0.32"
   sodipodi:docbase="/home/bcrowell/Documents/writing/lm/trunk/0sn/ch05/figs"
   sodipodi:docname="gamma-spring-of-air.svg">
  <defs
     id="defs4" />
  <sodipodi:namedview
     id="base"
     pagecolor="#ffffff"
     bordercolor="#666666"
     borderopacity="1.0"
     inkscape:pageopacity="0.0"
     inkscape:pageshadow="2"
     inkscape:zoom="0.40969968"
     inkscape:cx="271.87875"
     inkscape:cy="811.98196"
     inkscape:document-units="px"
     inkscape:current-layer="layer1"
     inkscape:window-width="862"
     inkscape:window-height="693"
     inkscape:window-x="74"
     inkscape:window-y="200" />
  <metadata
     id="metadata7">
    <rdf:RDF>
      <cc:Work
         rdf:about="">
        <dc:format>image/svg+xml</dc:format>
        <dc:type
           rdf:resource="http://purl.org/dc/dcmitype/StillImage" />
      </cc:Work>
    </rdf:RDF>
  </metadata>
  <g
     inkscape:label="Layer 1"
     inkscape:groupmode="layer"
     id="layer1">
    <path
       style="fill:none;fill-opacity:0.75000000;fill-rule:evenodd;stroke:#aaaaaa;stroke-width:6.2500000;stroke-linecap:butt;stroke-linejoin:miter;stroke-miterlimit:4.0000000;stroke-dasharray:none;stroke-opacity:1.0000000"
       d="M 250.87500 229.59375 L 250.87500 282.25000 L 196.12500 282.25000 L 196.12500 282.40625 C 195.96470 282.40238 195.81748 282.34375 195.65625 282.34375 C 184.85508 282.34376 176.09375 291.10509 176.09375 301.90625 C 176.09375 302.24911 176.17005 302.56772 176.18750 302.90625 L 176.18750 457.71875 C 176.18131 457.92091 176.12500 458.10886 176.12500 458.31250 C 176.12500 469.11368 184.88633 477.87500 195.68750 477.87500 C 195.83703 477.87501 195.97627 477.84709 196.12500 477.84375 L 196.12500 477.96875 L 342.65625 477.96875 L 342.65625 477.84375 C 342.80498 477.84709 342.94422 477.87501 343.09375 477.87500 C 353.89492 477.87500 362.65625 469.11368 362.65625 458.31250 C 362.65625 458.10886 362.59994 457.92091 362.59375 457.71875 L 362.59375 302.90625 C 362.61120 302.56772 362.68750 302.24911 362.68750 301.90625 C 362.68750 291.10509 353.92617 282.34376 343.12500 282.34375 C 342.96377 282.34375 342.81655 282.40238 342.65625 282.40625 L 342.65625 282.25000 L 287.90625 282.25000 L 287.90625 229.59375 L 250.87500 229.59375 z "
       id="rect1306" />
    <path
       sodipodi:type="arc"
       style="fill:#000000;fill-opacity:1.0000000;fill-rule:evenodd;stroke:none;stroke-width:1.0000000pt;stroke-linecap:butt;stroke-linejoin:miter;stroke-opacity:1.0000000"
       id="path2048"
       sodipodi:cx="273.75421"
       sodipodi:cy="263.38849"
       sodipodi:rx="14.038678"
       sodipodi:ry="14.740612"
       d="M 287.79289 263.38849 A 14.038678 14.740612 0 1 1  259.71553,263.38849 A 14.038678 14.740612 0 1 1  287.79289 263.38849 z"
       transform="matrix(1.094452,0.000000,0.000000,1.094452,-30.18647,-27.84912)" />
    <rect
       style="fill:#ffffff;fill-opacity:1.0000000;fill-rule:evenodd;stroke:none;stroke-width:1.0000000pt;stroke-linecap:butt;stroke-linejoin:miter;stroke-opacity:1.0000000"
       id="rect2050"
       width="30.815254"
       height="10.983655"
       x="253.99702"
       y="224.46918" />
  </g>
</svg>
