<?xml version="1.0" encoding="iso-8859-1"?>
<!-- Generator: Adobe Illustrator 11 Build 196, SVG Export Plug-In . SVG Version: 6.0.0 Build 78)  -->
<!DOCTYPE svg PUBLIC "-//W3C//DTD SVG 1.0//EN"    "http://www.w3.org/TR/2001/REC-SVG-20010904/DTD/svg10.dtd" [
	<!ENTITY ns_flows "http://ns.adobe.com/Flows/1.0/">
	<!ENTITY ns_svg "http://www.w3.org/2000/svg">
	<!ENTITY ns_xlink "http://www.w3.org/1999/xlink">
]>
<svg  
	 width="91.059" height="235.712" viewBox="0 0 91.059 235.712" style="overflow:visible;enable-background:new 0 0 91.059 235.712"
	 xml:space="preserve">
	<style type="text/css">
	
	</style>
	<g id="Layer_1">
		<line style="fill:none;stroke:#000000;stroke-width:0.375;" x1="8.184" y1="4.195" x2="8.184" y2="82.172"/>
		<line style="fill:none;stroke:#000000;stroke-width:0.375;" x1="7.997" y1="57.281" x2="85.622" y2="57.281"/>
		<g>
			<text transform="matrix(1 0 0 1 0.5591 10)"><tspan x="0" y="0" style="font-family:Liberation Sans; font-size:8.500000;">x</tspan></text>
		</g>
		<g>
			<text transform="matrix(1 0 0 1 88.2808 60)"><tspan x="0" y="0" style="font-family:Liberation Sans; font-size:8.500000;">t</tspan></text>
		</g>
		<line style="fill:none;stroke:#000000;stroke-width:0.375;" x1="8.184" y1="103.257" x2="8.184" y2="153.038"/>
		<line style="fill:none;stroke:#000000;stroke-width:0.375;" x1="7.997" y1="128.147" x2="85.622" y2="128.147"/>
		<g>
			<text transform="matrix(1 0 0 1 0.5591 109.8662)"><tspan x="0" y="0" style="font-family:Liberation Sans; font-size:8.500000;">v</tspan></text>
		</g>
		<g>
			<text transform="matrix(1 0 0 1 88.2808 130.8662)"><tspan x="0" y="0" style="font-family:Liberation Sans; font-size:8.500000;">t</tspan></text>
		</g>
		<line style="fill:none;stroke:#000000;stroke-width:0.375;" x1="8.184" y1="174.123" x2="8.184" y2="223.904"/>
		<line style="fill:none;stroke:#000000;stroke-width:0.375;" x1="7.997" y1="199.014" x2="85.622" y2="199.014"/>
		<g>
			<text transform="matrix(1 0 0 1 0 180.7324)"><tspan x="0" y="0" style="font-family:Liberation Sans; font-size:8.500000;">a</tspan></text>
		</g>
		<g>
			<text transform="matrix(1 0 0 1 88.2808 201.7324)"><tspan x="0" y="0" style="font-family:Liberation Sans; font-size:8.500000;">t</tspan></text>
		</g>
		<line style="fill:none;stroke:#000000;" x1="13.254" y1="201.789" x2="35.337" y2="201.789"/>
		<line style="fill:none;stroke:#000000;" x1="42.712" y1="201.789" x2="56.712" y2="201.789"/>
		<line style="fill:none;stroke:#000000;" x1="62.004" y1="201.789" x2="69.045" y2="201.789"/>
		<line style="fill:none;stroke:#000000;" x1="72.65" y1="201.789" x2="77.045" y2="201.789"/>
		<line style="fill:none;stroke:#000000;" x1="35.379" y1="177.049" x2="42.379" y2="177.049"/>
		<line style="fill:none;stroke:#000000;" x1="57.087" y1="184.383" x2="61.962" y2="184.383"/>
		<line style="fill:none;stroke:#000000;" x1="69.566" y1="192.737" x2="72.379" y2="192.737"/>
		<line style="fill:none;stroke:#000000;" x1="77.369" y1="197.695" x2="78.983" y2="197.695"/>
		<line style="fill:none;stroke:#000000;" x1="79.587" y1="199.029" x2="86.629" y2="199.029"/>
		<g>
			<path style="fill:none;stroke:#000000;" d="M8.254,42.945c3-0.375,5.172-3.606,5.406-6c3.594-36.75,15.094-56,21.269,20.852"/>
			<path style="fill:none;stroke:#000000;" d="M43.43,57.642c0.139-0.296,0.28-0.581,0.421-0.855"/>
			<path style="fill:none;stroke:#000000;" d="M43.852,56.786c5.069-25.758,11.152-11.091,12.289,0.826"/>
			<path style="fill:none;stroke:#000000;" d="M62.052,57.424c2.182-2.115,4.486-2.089,6.634,0.069"/>
			<path style="fill:none;stroke:#000000;" d="M72.664,57.412c0.346-0.221,0.694-0.39,1.042-0.506"/>
			<path style="fill:none;stroke:#000000;" d="M43.43,57.642c-0.967,3.28-2.969,5.183-4.831,5.187"/>
			<path style="fill:none;stroke:#000000;" d="M38.6,62.822c-1.452,0.004-2.884-1.662-3.54-4.983"/>
			<path style="fill:none;stroke:#000000;" d="M62.066,57.612c-0.622,1.038-2.012,1.786-3.209,1.787"/>
			<path style="fill:none;stroke:#000000;" d="M58.795,59.398c-0.934,0.001-2.416-0.141-2.655-1.787"/>
			<path style="fill:none;stroke:#000000;" d="M72.664,57.412c-0.35,0.583-1.561,1.106-2.234,1.107"/>
			<path style="fill:none;stroke:#000000;" d="M70.395,58.519c-0.525,0.001-1.472-0.434-1.709-1.025"/>
			<polyline style="fill:none;stroke:#000000;" points="88.816,57.362 78.004,57.362 76.816,56.925 75.254,56.612 74.504,56.55 
				73.629,56.8 "/>
		</g>
		<line style="fill:none;stroke:#000000;stroke-width:0.5;stroke-dasharray:2;" x1="35.004" y1="223.57" x2="35.004" y2="32.862"/>
		<line style="fill:none;stroke:#000000;stroke-width:0.5;stroke-dasharray:2;" x1="13.504" y1="223.57" x2="13.504" y2="32.862"/>
		<line style="fill:none;stroke:#000000;stroke-width:0.5;stroke-dasharray:2;" x1="42.552" y1="223.57" x2="42.552" y2="32.862"/>
		<line style="fill:none;stroke:#000000;stroke-width:0.5;stroke-dasharray:2;" x1="56.913" y1="223.57" x2="56.913" y2="32.862"/>
		<line style="fill:none;stroke:#000000;stroke-width:0.5;stroke-dasharray:2;" x1="61.898" y1="223.57" x2="61.898" y2="32.862"/>
		<line style="fill:none;stroke:#000000;stroke-width:0.5;stroke-dasharray:2;" x1="69.259" y1="223.57" x2="69.259" y2="32.862"/>
		<line style="fill:none;stroke:#000000;stroke-width:0.5;stroke-dasharray:2;" x1="72.531" y1="223.57" x2="72.531" y2="32.862"/>
		<line style="fill:none;stroke:#000000;stroke-width:0.5;stroke-dasharray:2;" x1="76.804" y1="223.57" x2="76.804" y2="32.862"/>
		<line style="fill:none;stroke:#000000;stroke-width:0.5;stroke-dasharray:2;" x1="79.013" y1="223.57" x2="79.013" y2="32.862"/>
		<polyline style="fill:none;stroke:#000000;" points="8.254,127.82 13.315,106.225 35.004,152.82 42.379,112.445 56.879,143.07 
			61.879,117.82 69.254,135.57 72.379,121.195 77.004,134.82 78.879,128.07 87.129,128.07 "/>
		<line style="fill:none;stroke:#000000;" x1="13.504" y1="188.695" x2="8.254" y2="188.695"/>
		<g>
			<text transform="matrix(1 0 0 1 12.0039 231.6953)"><tspan x="0" y="0" style="font-family:Liberation Sans; font-size:7.650000;">b</tspan></text>
		</g>
		<g>
			<text transform="matrix(1 0 0 1 32.0039 231.6953)"><tspan x="0" y="0" style="font-family:Liberation Sans; font-size:7.650000;">c</tspan></text>
		</g>
		<g>
			<text transform="matrix(1 0 0 1 40.0039 231.6953)"><tspan x="0" y="0" style="font-family:Liberation Sans; font-size:7.650000;">d</tspan></text>
		</g>
		<g>
			<text transform="matrix(1 0 0 1 53.5039 231.6953)"><tspan x="0" y="0" style="font-family:Liberation Sans; font-size:7.650000;">e</tspan></text>
		</g>
		<g>
			<text transform="matrix(1 0 0 1 61.0039 231.6953)"><tspan x="0" y="0" style="font-family:Liberation Sans; font-size:7.650000;">f</tspan></text>
		</g>
		<g>
			<text transform="matrix(1 0 0 1 5.0039 231.6953)"><tspan x="0" y="0" style="font-family:Liberation Sans; font-size:7.650000;">a</tspan></text>
		</g>
	</g>
</svg>
