<?xml version="1.0" encoding="iso-8859-1"?>
<!-- Generator: Adobe Illustrator 11 Build 196, SVG Export Plug-In . SVG Version: 6.0.0 Build 78)  -->
<!DOCTYPE svg PUBLIC "-//W3C//DTD SVG 1.0//EN"    "http://www.w3.org/TR/2001/REC-SVG-20010904/DTD/svg10.dtd" [
	<!ENTITY ns_flows "http://ns.adobe.com/Flows/1.0/">
	<!ENTITY ns_svg "http://www.w3.org/2000/svg">
	<!ENTITY ns_xlink "http://www.w3.org/1999/xlink">
]>
<svg  
	 width="125.958" height="121.12" viewBox="0 0 125.958 121.12" style="overflow:visible;enable-background:new 0 0 125.958 121.12"
	 xml:space="preserve">
	<style type="text/css">
	
	</style>
	<g id="Layer_1">
		<path style="fill:none;stroke:#000000;" d="M54.78,0.5c75.24,0,80.52,120.12,2.64,120.12"/>
		<line style="fill:none;stroke:#000000;" x1="58.41" y1="120.62" x2="0" y2="120.62"/>
		<line style="fill:none;stroke:#000000;" x1="54.45" y1="0.5" x2="3.3" y2="0.5"/>
		<g>
			<line style="fill:none;stroke:#000000;" x1="107.836" y1="69.13" x2="83.109" y2="65.765"/>
			<path d="M79.948,65.339c1.561-0.351,3.531-1.043,4.808-1.885l-1.236,2.367l0.564,2.609C83.077,67.28,81.36,66.091,79.948,65.339z
				"/>
		</g>
		<g>
			<line style="fill:none;stroke:#000000;" x1="103.575" y1="31.968" x2="69.718" y2="14.551"/>
			<path d="M66.882,13.09c1.588,0.191,3.676,0.198,5.162-0.168l-1.956,1.817l-0.341,2.647C69.181,15.966,67.961,14.271,66.882,13.09
				z"/>
		</g>
		<g>
			<line style="fill:none;stroke:#000000;" x1="101.599" y1="95.441" x2="64.435" y2="103.716"/>
			<path d="M61.321,104.408c1.343-0.869,2.952-2.2,3.859-3.432l-0.341,2.648l1.432,2.253
				C64.928,105.147,62.906,104.625,61.321,104.408z"/>
		</g>
		<g>
			<text transform="matrix(1 0 0 1 111.9888 102.6587)"><tspan x="0" y="0" style="font-family:Liberation Sans; font-size:7.650000;">A</tspan></text>
		</g>
		<g>
			<text transform="matrix(1 0 0 1 119.9551 74.4434)"><tspan x="0" y="0" style="font-family:Liberation Sans; font-size:7.650000;">B</tspan></text>
		</g>
		<g>
			<text transform="matrix(1 0 0 1 114.0151 38.8032)"><tspan x="0" y="0" style="font-family:Liberation Sans; font-size:7.650000;">C</tspan></text>
		</g>
		<line style="fill:none;stroke:#000000;" x1="11.44" y1="64.722" x2="39.195" y2="64.615"/>
		<g>
			<text transform="matrix(1 0 0 1 14.0249 51.8931)"><tspan x="0" y="0" style="font-family:Liberation Sans; font-size:7.650000;">scale:</tspan></text>
			<text transform="matrix(1 0 0 1 14.0249 62.8931)"><tspan x="0" y="0" style="font-family:Liberation Sans; font-size:7.650000;">5 m/s</tspan></text>
			<text transform="matrix(1 0 0 1 36.0283 61.8931)"><tspan x="0" y="0" style="font-family:Liberation Sans; font-size:5.950000;">2</tspan></text>
		</g>
		<circle style="fill:#FFFFFF;stroke:#000000;" cx="105.27" cy="95.363" r="2.333"/> 
		<circle style="fill:#FFFFFF;stroke:#000000;" cx="113.025" cy="69.8" r="2.333"/> 
		<circle style="fill:#FFFFFF;stroke:#000000;" cx="106.59" cy="32.156" r="2.333"/> 
	</g>
</svg>
