<?xml version="1.0" encoding="iso-8859-1"?>
<!-- Generator: Adobe Illustrator 11 Build 196, SVG Export Plug-In . SVG Version: 6.0.0 Build 78)  -->
<!DOCTYPE svg PUBLIC "-//W3C//DTD SVG 1.0//EN"    "http://www.w3.org/TR/2001/REC-SVG-20010904/DTD/svg10.dtd" [
	<!ENTITY ns_flows "http://ns.adobe.com/Flows/1.0/">
	<!ENTITY ns_svg "http://www.w3.org/2000/svg">
	<!ENTITY ns_xlink "http://www.w3.org/1999/xlink">
]>
<svg  
	 width="91.059" height="150.878" viewBox="0 0 91.059 150.878" style="overflow:visible;enable-background:new 0 0 91.059 150.878"
	 xml:space="preserve">
	<style type="text/css">
	
	</style>
	<g id="Layer_1">
		<line style="fill:none;stroke:#000000;stroke-width:0.375;" x1="8.184" y1="10.094" x2="8.184" y2="76.469"/>
		<line style="fill:none;stroke:#000000;stroke-width:0.375;" x1="7.997" y1="43.281" x2="85.622" y2="43.281"/>
		<g>
			<text transform="matrix(1 0 0 1 0.5591 10)"><tspan x="0" y="0" style="font-family:Liberation Sans; font-size:8.500000;">v</tspan></text>
		</g>
		<g>
			<text transform="matrix(1 0 0 1 88.2808 46)"><tspan x="0" y="0" style="font-family:Liberation Sans; font-size:8.500000;">t</tspan></text>
		</g>
		<polyline style="fill:none;stroke:#000000;stroke-width:2.25;" points="8.291,43.281 33.509,18.25 47.197,16 "/>
		<line style="fill:none;stroke:#000000;stroke-width:0.375;" x1="8.184" y1="84.503" x2="8.184" y2="150.878"/>
		<line style="fill:none;stroke:#000000;stroke-width:0.375;" x1="7.997" y1="117.691" x2="85.622" y2="117.691"/>
		<g>
			<text transform="matrix(1 0 0 1 0 84.4097)"><tspan x="0" y="0" style="font-family:Liberation Sans; font-size:8.500000;">a</tspan></text>
		</g>
		<g>
			<text transform="matrix(1 0 0 1 88.2808 120.4097)"><tspan x="0" y="0" style="font-family:Liberation Sans; font-size:8.500000;">t</tspan></text>
		</g>
		<line style="fill:none;stroke:#000000;stroke-width:2.25;" x1="33.497" y1="95.5" x2="8.372" y2="95.5"/>
		<line style="fill:none;stroke:#000000;stroke-width:2.25;" x1="33.497" y1="109.656" x2="46.809" y2="109.656"/>
	</g>
</svg>
