<?xml version="1.0" encoding="iso-8859-1"?>
<!-- Generator: Adobe Illustrator 11 Build 196, SVG Export Plug-In . SVG Version: 6.0.0 Build 78)  -->
<!DOCTYPE svg PUBLIC "-//W3C//DTD SVG 1.0//EN"    "http://www.w3.org/TR/2001/REC-SVG-20010904/DTD/svg10.dtd" [
	<!ENTITY ns_flows "http://ns.adobe.com/Flows/1.0/">
	<!ENTITY ns_svg "http://www.w3.org/2000/svg">
	<!ENTITY ns_xlink "http://www.w3.org/1999/xlink">
]>
<svg  
	 width="138.037" height="102.846" viewBox="0 0 138.037 102.846"
	 style="overflow:visible;enable-background:new 0 0 138.037 102.846" xml:space="preserve">
	<style type="text/css">
	
	</style>
	<g id="Layer_1">
		<line style="fill:none;stroke:#000000;stroke-width:0.5;" x1="14.55" y1="44.551" x2="14.55" y2="0"/>
		<line style="fill:none;stroke:#000000;stroke-width:0.5;" x1="14.1" y1="22.275" x2="133.308" y2="22.275"/>
		<g>
			<text transform="matrix(1 0 0 1 0 22.4814)"><tspan x="0" y="0" style="font-family:Liberation Sans; font-size:8.500000;">x</tspan></text>
		</g>
		<line style="fill:none;stroke:#000000;stroke-width:0.5;" x1="14.55" y1="57.516" x2="14.55" y2="102.067"/>
		<g>
			<text transform="matrix(1 0 0 1 0 80.7944)"><tspan x="0" y="0" style="font-family:Liberation Sans; font-size:8.500000;">v</tspan></text>
		</g>
		<line style="fill:none;stroke:#000000;stroke-width:0.5;" x1="14.1" y1="79.792" x2="133.308" y2="79.792"/>
		<g>
			<text transform="matrix(1 0 0 1 135.2583 26.8184)"><tspan x="0" y="0" style="font-family:Liberation Sans; font-size:8.500000;">t</tspan></text>
		</g>
		<g>
			<text transform="matrix(1 0 0 1 135.2583 84.2188)"><tspan x="0" y="0" style="font-family:Liberation Sans; font-size:8.500000;">t</tspan></text>
		</g>
		<line style="fill:none;stroke:#000000;stroke-width:0.5;stroke-dasharray:3;" x1="117.45" y1="0.898" x2="117.45" y2="102.846"/>
		<line style="fill:none;stroke:#000000;stroke-width:0.5;stroke-dasharray:3;" x1="39.204" y1="0.898" x2="39.204" y2="102.846"/>
		<line style="fill:none;stroke:#000000;stroke-width:0.5;stroke-dasharray:3;" x1="65.286" y1="0.898" x2="65.286" y2="102.846"/>
		<line style="fill:none;stroke:#000000;stroke-width:0.5;stroke-dasharray:3;" x1="91.368" y1="0.898" x2="91.368" y2="102.846"/>
		<path style="fill:none;stroke:#000000;stroke-width:3;" d="M19.854,18.377c18,0,19.35-14.85,31.95-14.85s20.7,25.2,45.451,25.2
			c24.75,0,17.55,0,17.55,0"/>
		<line style="fill:none;stroke:#000000;stroke-width:3;" x1="110.061" y1="28.747" x2="115.461" y2="28.747"/>
		<path style="fill:none;stroke:#000000;stroke-width:3;" d="M18.879,79.623c14.4-12.6,24.6-15.3,33,0.3
			c8.4,15.6,7.2,14.7,13.5,14.7c18.003,0,11.1-14.7,28.2-14.7"/>
		<line style="fill:none;stroke:#000000;stroke-width:3;" x1="93.879" y1="79.923" x2="114.58" y2="79.923"/>
	</g>
</svg>
