<?xml version="1.0" encoding="iso-8859-1"?>
<!-- Generator: Adobe Illustrator 11 Build 196, SVG Export Plug-In . SVG Version: 6.0.0 Build 78)  -->
<!DOCTYPE svg PUBLIC "-//W3C//DTD SVG 1.0//EN"    "http://www.w3.org/TR/2001/REC-SVG-20010904/DTD/svg10.dtd" [
	<!ENTITY ns_flows "http://ns.adobe.com/Flows/1.0/">
	<!ENTITY ns_svg "http://www.w3.org/2000/svg">
	<!ENTITY ns_xlink "http://www.w3.org/1999/xlink">
]>
<svg  
	 width="147.425" height="176.336" viewBox="0 0 147.425 176.336"
	 style="overflow:visible;enable-background:new 0 0 147.425 176.336" xml:space="preserve">
	<style type="text/css">
	
	</style>
	<g id="Layer_1">
		<g>
			<g>
				
					<line style="fill:none;stroke:#000000;stroke-linecap:square;stroke-miterlimit:1;" x1="1.707" y1="71.447" x2="2.467" y2="64.447"/>
				
					<line style="fill:none;stroke:#000000;stroke-linecap:square;stroke-miterlimit:1;" x1="2.467" y1="64.447" x2="3.987" y2="52.947"/>
				
					<line style="fill:none;stroke:#000000;stroke-linecap:square;stroke-miterlimit:1;" x1="3.987" y1="52.947" x2="4.747" y2="49.447"/>
				
					<line style="fill:none;stroke:#000000;stroke-linecap:square;stroke-miterlimit:1;" x1="4.747" y1="49.447" x2="5.507" y2="45.447"/>
				
					<line style="fill:none;stroke:#000000;stroke-linecap:square;stroke-miterlimit:1;" x1="5.507" y1="45.447" x2="6.267" y2="43.447"/>
				
					<line style="fill:none;stroke:#000000;stroke-linecap:square;stroke-miterlimit:1;" x1="6.267" y1="43.447" x2="7.787" y2="44.447"/>
				
					<line style="fill:none;stroke:#000000;stroke-linecap:square;stroke-miterlimit:1;" x1="7.787" y1="44.447" x2="8.547" y2="47.947"/>
				
					<line style="fill:none;stroke:#000000;stroke-linecap:square;stroke-miterlimit:1;" x1="8.547" y1="47.947" x2="9.307" y2="53.947"/>
				
					<line style="fill:none;stroke:#000000;stroke-linecap:square;stroke-miterlimit:1;" x1="9.307" y1="53.947" x2="10.067" y2="58.947"/>
				
					<line style="fill:none;stroke:#000000;stroke-linecap:square;stroke-miterlimit:1;" x1="10.067" y1="58.947" x2="10.827" y2="64.447"/>
				
					<line style="fill:none;stroke:#000000;stroke-linecap:square;stroke-miterlimit:1;" x1="10.827" y1="64.447" x2="11.587" y2="73.947"/>
				
					<line style="fill:none;stroke:#000000;stroke-linecap:square;stroke-miterlimit:1;" x1="11.587" y1="73.947" x2="12.347" y2="84.447"/>
				
					<line style="fill:none;stroke:#000000;stroke-linecap:square;stroke-miterlimit:1;" x1="12.347" y1="84.447" x2="13.107" y2="90.947"/>
				
					<line style="fill:none;stroke:#000000;stroke-linecap:square;stroke-miterlimit:1;" x1="13.107" y1="90.947" x2="13.867" y2="96.947"/>
				
					<line style="fill:none;stroke:#000000;stroke-linecap:square;stroke-miterlimit:1;" x1="13.867" y1="96.947" x2="14.627" y2="103.947"/>
				
					<line style="fill:none;stroke:#000000;stroke-linecap:square;stroke-miterlimit:1;" x1="14.627" y1="103.947" x2="15.387" y2="108.947"/>
				
					<line style="fill:none;stroke:#000000;stroke-linecap:square;stroke-miterlimit:1;" x1="15.387" y1="108.947" x2="16.147" y2="109.947"/>
				
					<line style="fill:none;stroke:#000000;stroke-linecap:square;stroke-miterlimit:1;" x1="16.147" y1="109.947" x2="16.907" y2="109.447"/>
				
					<line style="fill:none;stroke:#000000;stroke-linecap:square;stroke-miterlimit:1;" x1="16.907" y1="109.447" x2="17.667" y2="105.447"/>
				
					<line style="fill:none;stroke:#000000;stroke-linecap:square;stroke-miterlimit:1;" x1="17.667" y1="105.447" x2="18.427" y2="97.947"/>
				
					<line style="fill:none;stroke:#000000;stroke-linecap:square;stroke-miterlimit:1;" x1="18.427" y1="97.947" x2="19.187" y2="91.447"/>
				
					<line style="fill:none;stroke:#000000;stroke-linecap:square;stroke-miterlimit:1;" x1="19.187" y1="91.447" x2="19.947" y2="83.947"/>
				
					<line style="fill:none;stroke:#000000;stroke-linecap:square;stroke-miterlimit:1;" x1="19.947" y1="83.947" x2="20.707" y2="71.947"/>
				
					<line style="fill:none;stroke:#000000;stroke-linecap:square;stroke-miterlimit:1;" x1="20.707" y1="71.947" x2="21.467" y2="60.447"/>
				
					<line style="fill:none;stroke:#000000;stroke-linecap:square;stroke-miterlimit:1;" x1="21.467" y1="60.447" x2="22.227" y2="53.447"/>
				
					<line style="fill:none;stroke:#000000;stroke-linecap:square;stroke-miterlimit:1;" x1="22.227" y1="53.447" x2="22.987" y2="48.447"/>
				
					<line style="fill:none;stroke:#000000;stroke-linecap:square;stroke-miterlimit:1;" x1="22.987" y1="48.447" x2="23.747" y2="43.947"/>
				
					<line style="fill:none;stroke:#000000;stroke-linecap:square;stroke-miterlimit:1;" x1="23.747" y1="43.4" x2="24.507" y2="44.447"/>
				
					<line style="fill:none;stroke:#000000;stroke-linecap:square;stroke-miterlimit:1;" x1="24.507" y1="44.447" x2="25.267" y2="47.447"/>
				
					<line style="fill:none;stroke:#000000;stroke-linecap:square;stroke-miterlimit:1;" x1="25.267" y1="47.447" x2="26.027" y2="52.947"/>
				
					<line style="fill:none;stroke:#000000;stroke-linecap:square;stroke-miterlimit:1;" x1="26.027" y1="52.947" x2="26.787" y2="63.947"/>
				
					<line style="fill:none;stroke:#000000;stroke-linecap:square;stroke-miterlimit:1;" x1="26.787" y1="63.947" x2="27.547" y2="77.947"/>
				
					<line style="fill:none;stroke:#000000;stroke-linecap:square;stroke-miterlimit:1;" x1="27.547" y1="77.947" x2="28.307" y2="86.947"/>
				
					<line style="fill:none;stroke:#000000;stroke-linecap:square;stroke-miterlimit:1;" x1="28.307" y1="86.947" x2="29.067" y2="95.447"/>
				
					<line style="fill:none;stroke:#000000;stroke-linecap:square;stroke-miterlimit:1;" x1="29.067" y1="95.447" x2="29.827" y2="104.947"/>
				
					<line style="fill:none;stroke:#000000;stroke-linecap:square;stroke-miterlimit:1;" x1="29.827" y1="104.947" x2="30.587" y2="109.947"/>
				
					<line style="fill:none;stroke:#000000;stroke-linecap:square;stroke-miterlimit:1;" x1="30.587" y1="109.947" x2="31.347" y2="109.447"/>
				
					<line style="fill:none;stroke:#000000;stroke-linecap:square;stroke-miterlimit:1;" x1="31.347" y1="109.447" x2="32.107" y2="105.947"/>
				
					<line style="fill:none;stroke:#000000;stroke-linecap:square;stroke-miterlimit:1;" x1="32.107" y1="105.947" x2="32.867" y2="95.447"/>
				
					<line style="fill:none;stroke:#000000;stroke-linecap:square;stroke-miterlimit:1;" x1="32.867" y1="95.447" x2="33.627" y2="81.947"/>
				
					<line style="fill:none;stroke:#000000;stroke-linecap:square;stroke-miterlimit:1;" x1="33.627" y1="81.947" x2="34.387" y2="71.447"/>
				
					<line style="fill:none;stroke:#000000;stroke-linecap:square;stroke-miterlimit:1;" x1="34.387" y1="71.447" x2="35.147" y2="61.447"/>
				
					<line style="fill:none;stroke:#000000;stroke-linecap:square;stroke-miterlimit:1;" x1="35.147" y1="61.447" x2="35.907" y2="49.947"/>
				
					<line style="fill:none;stroke:#000000;stroke-linecap:square;stroke-miterlimit:1;" x1="35.907" y1="49.947" x2="36.667" y2="43.447"/>
				
					<line style="fill:none;stroke:#000000;stroke-linecap:square;stroke-miterlimit:1;" x1="36.667" y1="43.447" x2="37.427" y2="43.947"/>
				
					<line style="fill:none;stroke:#000000;stroke-linecap:square;stroke-miterlimit:1;" x1="37.427" y1="43.947" x2="38.187" y2="47.947"/>
				
					<line style="fill:none;stroke:#000000;stroke-linecap:square;stroke-miterlimit:1;" x1="38.187" y1="47.947" x2="38.947" y2="59.447"/>
				
					<line style="fill:none;stroke:#000000;stroke-linecap:square;stroke-miterlimit:1;" x1="38.947" y1="59.447" x2="39.707" y2="74.947"/>
				
					<line style="fill:none;stroke:#000000;stroke-linecap:square;stroke-miterlimit:1;" x1="39.707" y1="74.947" x2="40.467" y2="86.447"/>
				
					<line style="fill:none;stroke:#000000;stroke-linecap:square;stroke-miterlimit:1;" x1="40.467" y1="86.447" x2="41.227" y2="96.447"/>
				
					<line style="fill:none;stroke:#000000;stroke-linecap:square;stroke-miterlimit:1;" x1="41.227" y1="96.447" x2="41.987" y2="106.447"/>
				
					<line style="fill:none;stroke:#000000;stroke-linecap:square;stroke-miterlimit:1;" x1="41.987" y1="106.447" x2="42.747" y2="109.947"/>
				
					<line style="fill:none;stroke:#000000;stroke-linecap:square;stroke-miterlimit:1;" x1="42.747" y1="109.947" x2="43.507" y2="106.447"/>
				
					<line style="fill:none;stroke:#000000;stroke-linecap:square;stroke-miterlimit:1;" x1="43.507" y1="106.447" x2="44.267" y2="98.947"/>
				
					<line style="fill:none;stroke:#000000;stroke-linecap:square;stroke-miterlimit:1;" x1="44.267" y1="98.947" x2="45.027" y2="82.947"/>
				
					<line style="fill:none;stroke:#000000;stroke-linecap:square;stroke-miterlimit:1;" x1="45.027" y1="82.947" x2="45.787" y2="64.947"/>
				
					<line style="fill:none;stroke:#000000;stroke-linecap:square;stroke-miterlimit:1;" x1="45.787" y1="64.947" x2="46.547" y2="54.447"/>
				
					<line style="fill:none;stroke:#000000;stroke-linecap:square;stroke-miterlimit:1;" x1="46.547" y1="54.447" x2="47.307" y2="46.947"/>
				
					<line style="fill:none;stroke:#000000;stroke-linecap:square;stroke-miterlimit:1;" x1="47.307" y1="46.947" x2="48.067" y2="43.447"/>
				
					<line style="fill:none;stroke:#000000;stroke-linecap:square;stroke-miterlimit:1;" x1="48.067" y1="43.447" x2="48.827" y2="52.447"/>
				
					<line style="fill:none;stroke:#000000;stroke-linecap:square;stroke-miterlimit:1;" x1="48.827" y1="52.447" x2="50.347" y2="72.947"/>
				
					<line style="fill:none;stroke:#000000;stroke-linecap:square;stroke-miterlimit:1;" x1="50.347" y1="72.947" x2="51.107" y2="91.447"/>
				
					<line style="fill:none;stroke:#000000;stroke-linecap:square;stroke-miterlimit:1;" x1="51.107" y1="91.447" x2="51.867" y2="105.947"/>
				
					<line style="fill:none;stroke:#000000;stroke-linecap:square;stroke-miterlimit:1;" x1="51.867" y1="105.947" x2="52.627" y2="109.947"/>
				
					<line style="fill:none;stroke:#000000;stroke-linecap:square;stroke-miterlimit:1;" x1="52.627" y1="109.947" x2="53.387" y2="108.447"/>
				
					<line style="fill:none;stroke:#000000;stroke-linecap:square;stroke-miterlimit:1;" x1="53.387" y1="108.447" x2="54.147" y2="96.447"/>
				
					<line style="fill:none;stroke:#000000;stroke-linecap:square;stroke-miterlimit:1;" x1="54.147" y1="96.447" x2="54.907" y2="77.947"/>
				
					<line style="fill:none;stroke:#000000;stroke-linecap:square;stroke-miterlimit:1;" x1="54.907" y1="77.947" x2="55.667" y2="63.947"/>
				
					<line style="fill:none;stroke:#000000;stroke-linecap:square;stroke-miterlimit:1;" x1="55.667" y1="63.947" x2="56.427" y2="52.447"/>
				
					<line style="fill:none;stroke:#000000;stroke-linecap:square;stroke-miterlimit:1;" x1="56.427" y1="52.447" x2="57.187" y2="44.447"/>
				
					<line style="fill:none;stroke:#000000;stroke-linecap:square;stroke-miterlimit:1;" x1="57.187" y1="43.587" x2="57.947" y2="47.447"/>
				
					<line style="fill:none;stroke:#000000;stroke-linecap:square;stroke-miterlimit:1;" x1="57.947" y1="47.447" x2="58.707" y2="56.947"/>
				
					<line style="fill:none;stroke:#000000;stroke-linecap:square;stroke-miterlimit:1;" x1="58.707" y1="56.947" x2="59.467" y2="70.447"/>
				
					<line style="fill:none;stroke:#000000;stroke-linecap:square;stroke-miterlimit:1;" x1="59.467" y1="70.447" x2="60.227" y2="90.947"/>
				
					<line style="fill:none;stroke:#000000;stroke-linecap:square;stroke-miterlimit:1;" x1="60.227" y1="90.947" x2="60.987" y2="106.947"/>
				
					<line style="fill:none;stroke:#000000;stroke-linecap:square;stroke-miterlimit:1;" x1="60.987" y1="106.947" x2="61.747" y2="109.947"/>
				
					<line style="fill:none;stroke:#000000;stroke-linecap:square;stroke-miterlimit:1;" x1="61.747" y1="109.947" x2="62.507" y2="106.947"/>
				
					<line style="fill:none;stroke:#000000;stroke-linecap:square;stroke-miterlimit:1;" x1="62.507" y1="106.947" x2="63.267" y2="90.447"/>
				
					<line style="fill:none;stroke:#000000;stroke-linecap:square;stroke-miterlimit:1;" x1="63.267" y1="90.447" x2="64.027" y2="68.447"/>
				
					<line style="fill:none;stroke:#000000;stroke-linecap:square;stroke-miterlimit:1;" x1="64.027" y1="68.447" x2="64.787" y2="54.947"/>
				
					<line style="fill:none;stroke:#000000;stroke-linecap:square;stroke-miterlimit:1;" x1="64.787" y1="54.947" x2="65.547" y2="44.447"/>
				
					<line style="fill:none;stroke:#000000;stroke-linecap:square;stroke-miterlimit:1;" x1="65.642" y1="43.587" x2="66.307" y2="47.947"/>
				
					<line style="fill:none;stroke:#000000;stroke-linecap:square;stroke-miterlimit:1;" x1="66.307" y1="47.947" x2="67.067" y2="58.947"/>
				
					<line style="fill:none;stroke:#000000;stroke-linecap:square;stroke-miterlimit:1;" x1="67.067" y1="58.947" x2="67.827" y2="73.947"/>
				
					<line style="fill:none;stroke:#000000;stroke-linecap:square;stroke-miterlimit:1;" x1="67.827" y1="73.947" x2="68.587" y2="89.447"/>
				
					<line style="fill:none;stroke:#000000;stroke-linecap:square;stroke-miterlimit:1;" x1="68.587" y1="89.447" x2="69.347" y2="105.947"/>
				
					<line style="fill:none;stroke:#000000;stroke-linecap:square;stroke-miterlimit:1;" x1="69.347" y1="105.947" x2="70.107" y2="109.947"/>
				
					<line style="fill:none;stroke:#000000;stroke-linecap:square;stroke-miterlimit:1;" x1="70.107" y1="109.947" x2="70.867" y2="97.947"/>
				
					<line style="fill:none;stroke:#000000;stroke-linecap:square;stroke-miterlimit:1;" x1="70.867" y1="97.947" x2="72.387" y2="62.947"/>
				
					<line style="fill:none;stroke:#000000;stroke-linecap:square;stroke-miterlimit:1;" x1="72.387" y1="62.947" x2="73.147" y2="45.947"/>
				
					<line style="fill:none;stroke:#000000;stroke-linecap:square;stroke-miterlimit:1;" x1="73.147" y1="45.947" x2="73.907" y2="43.447"/>
				
					<line style="fill:none;stroke:#000000;stroke-linecap:square;stroke-miterlimit:1;" x1="73.907" y1="43.447" x2="74.667" y2="49.947"/>
				
					<line style="fill:none;stroke:#000000;stroke-linecap:square;stroke-miterlimit:1;" x1="74.667" y1="49.947" x2="75.427" y2="71.447"/>
				
					<line style="fill:none;stroke:#000000;stroke-linecap:square;stroke-miterlimit:1;" x1="75.427" y1="71.447" x2="76.187" y2="95.947"/>
				
					<line style="fill:none;stroke:#000000;stroke-linecap:square;stroke-miterlimit:1;" x1="76.187" y1="95.947" x2="76.947" y2="106.947"/>
				
					<line style="fill:none;stroke:#000000;stroke-linecap:square;stroke-miterlimit:1;" x1="76.947" y1="106.947" x2="77.707" y2="109.947"/>
				
					<line style="fill:none;stroke:#000000;stroke-linecap:square;stroke-miterlimit:1;" x1="77.707" y1="109.947" x2="78.467" y2="96.947"/>
				
					<line style="fill:none;stroke:#000000;stroke-linecap:square;stroke-miterlimit:1;" x1="78.467" y1="96.947" x2="79.227" y2="73.447"/>
				
					<line style="fill:none;stroke:#000000;stroke-linecap:square;stroke-miterlimit:1;" x1="79.227" y1="73.447" x2="79.987" y2="56.947"/>
				
					<line style="fill:none;stroke:#000000;stroke-linecap:square;stroke-miterlimit:1;" x1="79.987" y1="56.947" x2="80.747" y2="44.447"/>
				
					<line style="fill:none;stroke:#000000;stroke-linecap:square;stroke-miterlimit:1;" x1="80.747" y1="43.4" x2="81.507" y2="47.447"/>
				
					<line style="fill:none;stroke:#000000;stroke-linecap:square;stroke-miterlimit:1;" x1="81.507" y1="47.447" x2="82.267" y2="65.947"/>
				
					<line style="fill:none;stroke:#000000;stroke-linecap:square;stroke-miterlimit:1;" x1="82.267" y1="65.947" x2="83.027" y2="83.947"/>
				
					<line style="fill:none;stroke:#000000;stroke-linecap:square;stroke-miterlimit:1;" x1="83.027" y1="83.947" x2="83.787" y2="99.947"/>
				
					<line style="fill:none;stroke:#000000;stroke-linecap:square;stroke-miterlimit:1;" x1="83.787" y1="99.947" x2="84.547" y2="109.447"/>
				
					<line style="fill:none;stroke:#000000;stroke-linecap:square;stroke-miterlimit:1;" x1="84.547" y1="109.962" x2="85.307" y2="94.447"/>
				
					<line style="fill:none;stroke:#000000;stroke-linecap:square;stroke-miterlimit:1;" x1="85.307" y1="94.447" x2="86.827" y2="62.447"/>
				
					<line style="fill:none;stroke:#000000;stroke-linecap:square;stroke-miterlimit:1;" x1="86.827" y1="62.447" x2="87.967" y2="43.462"/>
				
					<line style="fill:none;stroke:#000000;stroke-linecap:square;stroke-miterlimit:1;" x1="87.967" y1="43.462" x2="88.347" y2="48.947"/>
				
					<line style="fill:none;stroke:#000000;stroke-linecap:square;stroke-miterlimit:1;" x1="88.347" y1="48.947" x2="89.106" y2="63.947"/>
				
					<line style="fill:none;stroke:#000000;stroke-linecap:square;stroke-miterlimit:1;" x1="89.106" y1="63.947" x2="89.867" y2="82.947"/>
				
					<line style="fill:none;stroke:#000000;stroke-linecap:square;stroke-miterlimit:1;" x1="89.867" y1="82.947" x2="90.626" y2="104.447"/>
				
					<line style="fill:none;stroke:#000000;stroke-linecap:square;stroke-miterlimit:1;" x1="90.626" y1="104.447" x2="91.387" y2="109.947"/>
				
					<line style="fill:none;stroke:#000000;stroke-linecap:square;stroke-miterlimit:1;" x1="91.387" y1="109.947" x2="92.146" y2="91.947"/>
				
					<line style="fill:none;stroke:#000000;stroke-linecap:square;stroke-miterlimit:1;" x1="92.146" y1="91.947" x2="93.667" y2="51.447"/>
				
					<line style="fill:none;stroke:#000000;stroke-linecap:square;stroke-miterlimit:1;" x1="93.667" y1="51.447" x2="94.427" y2="43.447"/>
				
					<line style="fill:none;stroke:#000000;stroke-linecap:square;stroke-miterlimit:1;" x1="94.427" y1="43.447" x2="95.187" y2="58.947"/>
				
					<line style="fill:none;stroke:#000000;stroke-linecap:square;stroke-miterlimit:1;" x1="95.187" y1="58.947" x2="96.707" y2="99.947"/>
				
					<line style="fill:none;stroke:#000000;stroke-linecap:square;stroke-miterlimit:1;" x1="96.707" y1="99.947" x2="97.467" y2="109.947"/>
				
					<line style="fill:none;stroke:#000000;stroke-linecap:square;stroke-miterlimit:1;" x1="97.467" y1="109.947" x2="98.227" y2="94.947"/>
				
					<line style="fill:none;stroke:#000000;stroke-linecap:square;stroke-miterlimit:1;" x1="98.227" y1="94.947" x2="99.747" y2="53.447"/>
				
					<line style="fill:none;stroke:#000000;stroke-linecap:square;stroke-miterlimit:1;" x1="99.747" y1="53.447" x2="100.507" y2="43.447"/>
				
					<line style="fill:none;stroke:#000000;stroke-linecap:square;stroke-miterlimit:1;" x1="100.507" y1="43.447" x2="101.267" y2="58.947"/>
				
					<line style="fill:none;stroke:#000000;stroke-linecap:square;stroke-miterlimit:1;" x1="101.267" y1="58.947" x2="102.787" y2="100.947"/>
				
					<line style="fill:none;stroke:#000000;stroke-linecap:square;stroke-miterlimit:1;" x1="102.787" y1="100.947" x2="103.546" y2="109.947"/>
				
					<line style="fill:none;stroke:#000000;stroke-linecap:square;stroke-miterlimit:1;" x1="103.546" y1="109.947" x2="104.307" y2="91.947"/>
				
					<line style="fill:none;stroke:#000000;stroke-linecap:square;stroke-miterlimit:1;" x1="104.307" y1="91.947" x2="105.827" y2="49.447"/>
				
					<line style="fill:none;stroke:#000000;stroke-linecap:square;stroke-miterlimit:1;" x1="105.827" y1="49.447" x2="106.586" y2="43.447"/>
				
					<line style="fill:none;stroke:#000000;stroke-linecap:square;stroke-miterlimit:1;" x1="106.586" y1="43.447" x2="107.347" y2="65.447"/>
				
					<line style="fill:none;stroke:#000000;stroke-linecap:square;stroke-miterlimit:1;" x1="107.347" y1="65.447" x2="108.771" y2="109.65"/>
				
					<line style="fill:none;stroke:#000000;stroke-linecap:square;stroke-miterlimit:1;" x1="108.771" y1="109.837" x2="109.626" y2="102.447"/>
				
					<line style="fill:none;stroke:#000000;stroke-linecap:square;stroke-miterlimit:1;" x1="109.626" y1="102.447" x2="110.387" y2="82.947"/>
				
					<line style="fill:none;stroke:#000000;stroke-linecap:square;stroke-miterlimit:1;" x1="110.387" y1="82.947" x2="111.146" y2="60.947"/>
				
					<line style="fill:none;stroke:#000000;stroke-linecap:square;stroke-miterlimit:1;" x1="111.146" y1="60.947" x2="111.906" y2="44.447"/>
				
					<line style="fill:none;stroke:#000000;stroke-linecap:square;stroke-miterlimit:1;" x1="112.001" y1="43.462" x2="112.667" y2="62.947"/>
				
					<line style="fill:none;stroke:#000000;stroke-linecap:square;stroke-miterlimit:1;" x1="112.667" y1="62.947" x2="114.187" y2="101.447"/>
				
					<line style="fill:none;stroke:#000000;stroke-linecap:square;stroke-miterlimit:1;" x1="114.187" y1="101.447" x2="114.946" y2="109.947"/>
				
					<line style="fill:none;stroke:#000000;stroke-linecap:square;stroke-miterlimit:1;" x1="114.946" y1="109.947" x2="115.707" y2="80.947"/>
				
					<line style="fill:none;stroke:#000000;stroke-linecap:square;stroke-miterlimit:1;" x1="115.707" y1="80.947" x2="117.227" y2="43.462"/>
				
					<line style="fill:none;stroke:#000000;stroke-linecap:square;stroke-miterlimit:1;" x1="117.227" y1="43.947" x2="117.986" y2="53.947"/>
				
					<line style="fill:none;stroke:#000000;stroke-linecap:square;stroke-miterlimit:1;" x1="117.986" y1="53.947" x2="118.747" y2="86.447"/>
				
					<line style="fill:none;stroke:#000000;stroke-linecap:square;stroke-miterlimit:1;" x1="118.747" y1="86.447" x2="119.506" y2="104.947"/>
				
					<line style="fill:none;stroke:#000000;stroke-linecap:square;stroke-miterlimit:1;" x1="119.506" y1="104.947" x2="120.267" y2="109.947"/>
				
					<line style="fill:none;stroke:#000000;stroke-linecap:square;stroke-miterlimit:1;" x1="120.267" y1="109.947" x2="121.026" y2="80.447"/>
				
					<line style="fill:none;stroke:#000000;stroke-linecap:square;stroke-miterlimit:1;" x1="121.026" y1="80.447" x2="122.546" y2="43.447"/>
				
					<line style="fill:none;stroke:#000000;stroke-linecap:square;stroke-miterlimit:1;" x1="122.546" y1="43.447" x2="123.306" y2="52.447"/>
				
					<line style="fill:none;stroke:#000000;stroke-linecap:square;stroke-miterlimit:1;" x1="123.306" y1="52.447" x2="124.066" y2="85.947"/>
				
					<line style="fill:none;stroke:#000000;stroke-linecap:square;stroke-miterlimit:1;" x1="124.066" y1="85.947" x2="124.826" y2="109.947"/>
				
					<line style="fill:none;stroke:#000000;stroke-linecap:square;stroke-miterlimit:1;" x1="124.826" y1="109.947" x2="125.586" y2="103.947"/>
				
					<line style="fill:none;stroke:#000000;stroke-linecap:square;stroke-miterlimit:1;" x1="125.586" y1="103.947" x2="126.346" y2="82.947"/>
				
					<line style="fill:none;stroke:#000000;stroke-linecap:square;stroke-miterlimit:1;" x1="126.346" y1="82.947" x2="127.106" y2="50.947"/>
				
					<line style="fill:none;stroke:#000000;stroke-linecap:square;stroke-miterlimit:1;" x1="127.106" y1="50.947" x2="127.866" y2="43.447"/>
				
					<line style="fill:none;stroke:#000000;stroke-linecap:square;stroke-miterlimit:1;" x1="127.866" y1="43.447" x2="128.626" y2="70.947"/>
				
					<line style="fill:none;stroke:#000000;stroke-linecap:square;stroke-miterlimit:1;" x1="128.626" y1="70.947" x2="130.146" y2="109.447"/>
				
					<line style="fill:none;stroke:#000000;stroke-linecap:square;stroke-miterlimit:1;" x1="130.146" y1="109.447" x2="130.906" y2="82.447"/>
				
					<line style="fill:none;stroke:#000000;stroke-linecap:square;stroke-miterlimit:1;" x1="130.906" y1="82.447" x2="132.426" y2="43.947"/>
				
					<line style="fill:none;stroke:#000000;stroke-linecap:square;stroke-miterlimit:1;" x1="132.331" y1="43.462" x2="133.187" y2="58.947"/>
				
					<line style="fill:none;stroke:#000000;stroke-linecap:square;stroke-miterlimit:1;" x1="133.187" y1="58.947" x2="133.946" y2="94.947"/>
				
					<line style="fill:none;stroke:#000000;stroke-linecap:square;stroke-miterlimit:1;" x1="133.946" y1="94.947" x2="134.706" y2="109.447"/>
				
					<line style="fill:none;stroke:#000000;stroke-linecap:square;stroke-miterlimit:1;" x1="134.706" y1="109.447" x2="135.466" y2="103.947"/>
				
					<line style="fill:none;stroke:#000000;stroke-linecap:square;stroke-miterlimit:1;" x1="135.466" y1="103.947" x2="136.226" y2="68.447"/>
				
					<line style="fill:none;stroke:#000000;stroke-linecap:square;stroke-miterlimit:1;" x1="136.226" y1="68.447" x2="136.986" y2="43.447"/>
				
					<line style="fill:none;stroke:#000000;stroke-linecap:square;stroke-miterlimit:1;" x1="136.986" y1="43.447" x2="137.746" y2="51.947"/>
				
					<line style="fill:none;stroke:#000000;stroke-linecap:square;stroke-miterlimit:1;" x1="137.746" y1="51.947" x2="138.506" y2="76.447"/>
				
					<line style="fill:none;stroke:#000000;stroke-linecap:square;stroke-miterlimit:1;" x1="138.506" y1="76.447" x2="139.551" y2="109.775"/>
				
					<line style="fill:none;stroke:#000000;stroke-linecap:square;stroke-miterlimit:1;" x1="139.551" y1="109.962" x2="140.026" y2="97.447"/>
				
					<line style="fill:none;stroke:#000000;stroke-linecap:square;stroke-miterlimit:1;" x1="140.026" y1="97.447" x2="140.786" y2="71.447"/>
				
					<line style="fill:none;stroke:#000000;stroke-linecap:square;stroke-miterlimit:1;" x1="140.786" y1="71.447" x2="141.546" y2="45.947"/>
				
					<line style="fill:none;stroke:#000000;stroke-linecap:square;stroke-miterlimit:1;" x1="141.641" y1="43.462" x2="142.306" y2="52.947"/>
				
					<line style="fill:none;stroke:#000000;stroke-linecap:square;stroke-miterlimit:1;" x1="142.306" y1="52.947" x2="143.066" y2="89.447"/>
				
					<line style="fill:none;stroke:#000000;stroke-linecap:square;stroke-miterlimit:1;" x1="143.066" y1="89.447" x2="143.826" y2="108.947"/>
				
					<line style="fill:none;stroke:#000000;stroke-linecap:square;stroke-miterlimit:1;" x1="143.731" y1="109.837" x2="144.586" y2="105.447"/>
				
					<line style="fill:none;stroke:#000000;stroke-linecap:square;stroke-miterlimit:1;" x1="144.586" y1="105.447" x2="145.346" y2="69.447"/>
				
					<line style="fill:none;stroke:#000000;stroke-linecap:square;stroke-miterlimit:1;" x1="145.346" y1="69.447" x2="146.106" y2="43.447"/>
				
					<line style="fill:none;stroke:#000000;stroke-linecap:square;stroke-miterlimit:1;" x1="146.106" y1="43.447" x2="146.866" y2="53.947"/>
			</g>
			<g>
				<line style="fill:none;stroke:#000000;" x1="50.512" y1="29" x2="84.512" y2="29"/>
				<path d="M89.038,29c-2.13,0.79-4.772,2.139-6.41,3.566L83.918,29l-1.29-3.566C84.266,26.861,86.908,28.21,89.038,29z"/>
			</g>
			<g>
				<g>
					<text transform="matrix(1 0 0 1 1.1562 128.3198)"><tspan x="0" y="0" style="font-family:Liberation Sans; font-size:7.650000;">high PE</tspan></text>
				</g>
				<g>
					<text transform="matrix(1 0 0 1 1.1562 139.3198)"><tspan x="0" y="0" style="font-family:Liberation Sans; font-size:7.650000;">low KE</tspan></text>
				</g>
				<g>
					<text transform="matrix(1 0 0 1 1.1562 150.3198)"><tspan x="0" y="0" style="font-family:Liberation Sans; font-size:7.650000;">low momentum</tspan></text>
				</g>
				<g>
					<text transform="matrix(1 0 0 1 1.1562 161.3198)"><tspan x="0" y="0" style="font-family:Liberation Sans; font-size:7.650000;">long wavelength</tspan></text>
				</g>
				<g>
					<text transform="matrix(1 0 0 1 1.1562 172.3198)"><tspan x="0" y="0" style="font-family:Liberation Sans; font-size:7.650000;">weak curvature</tspan></text>
				</g>
			</g>
			<g>
				<g>
					<text transform="matrix(1 0 0 1 119.397 128.3198)"><tspan x="0" y="0" style="font-family:Liberation Sans; font-size:7.650000;">low PE</tspan></text>
				</g>
				<g>
					<text transform="matrix(1 0 0 1 115.8877 139.3198)"><tspan x="0" y="0" style="font-family:Liberation Sans; font-size:7.650000;">high KE</tspan></text>
				</g>
				<g>
					<text transform="matrix(1 0 0 1 82.896 150.3198)"><tspan x="0" y="0" style="font-family:Liberation Sans; font-size:7.650000;">high momentum</tspan></text>
				</g>
				<g>
					<text transform="matrix(1 0 0 1 79.3848 161.3198)"><tspan x="0" y="0" style="font-family:Liberation Sans; font-size:7.650000;">short wavelength</tspan></text>
				</g>
				<g>
					<text transform="matrix(1 0 0 1 82.3926 172.3198)"><tspan x="0" y="0" style="font-family:Liberation Sans; font-size:7.650000;">strong curvature</tspan></text>
				</g>
			</g>
			<g>
				<g>
					<text transform="matrix(1 0 0 1 41.0381 9)"><tspan x="0" y="0" style="font-family:Liberation Sans; font-size:7.650000;">direction of motion</tspan></text>
				</g>
				<g>
					<text transform="matrix(1 0 0 1 41.0381 20)"><tspan x="0" y="0" style="font-family:Liberation Sans; font-size:7.650000;">(speeding up)</tspan></text>
				</g>
			</g>
		</g>
		<rect y="117.188" style="fill:none;" width="147.402" height="2.834"/> 
	</g>
</svg>
