<?xml version="1.0" encoding="UTF-8" standalone="no"?>
<!-- Generator: Adobe Illustrator 11 Build 196, SVG Export Plug-In . SVG Version: 6.0.0 Build 78)  -->

<svg
   xmlns:dc="http://purl.org/dc/elements/1.1/"
   xmlns:cc="http://creativecommons.org/ns#"
   xmlns:rdf="http://www.w3.org/1999/02/22-rdf-syntax-ns#"
   xmlns:svg="http://www.w3.org/2000/svg"
   xmlns="http://www.w3.org/2000/svg"
   xmlns:sodipodi="http://sodipodi.sourceforge.net/DTD/sodipodi-0.dtd"
   xmlns:inkscape="http://www.inkscape.org/namespaces/inkscape"
   width="147.402"
   height="144.943"
   viewBox="0 0 147.402 144.943"
   style="overflow:visible;enable-background:new 0 0 147.402 144.943"
   xml:space="preserve"
   id="svg2"
   version="1.1"
   sodipodi:docname="average.svg"><metadata
   id="metadata33"><rdf:RDF><cc:Work
       rdf:about=""><dc:format>image/svg+xml</dc:format><dc:type
         rdf:resource="http://purl.org/dc/dcmitype/StillImage" /></cc:Work></rdf:RDF></metadata><defs
   id="defs31">
		
		
		 
	</defs><sodipodi:namedview
   pagecolor="#ffffff"
   bordercolor="#666666"
   borderopacity="1"
   objecttolerance="10"
   gridtolerance="10"
   guidetolerance="10"
   inkscape:pageopacity="0"
   inkscape:pageshadow="2"
   inkscape:window-width="1280"
   inkscape:window-height="996"
   id="namedview29"
   showgrid="false"
   inkscape:zoom="1.9415381"
   inkscape:cx="64.220992"
   inkscape:cy="8.4632315"
   inkscape:window-x="0"
   inkscape:window-y="0"
   inkscape:window-maximized="1"
   inkscape:current-layer="svg2" />
	<path
   inkscape:connector-curvature="0"
   id="path5"
   d="m 0.09,99.069 c 47.339,0 38.443,-106.318 62.258,-86.833 4.505,3.686 8.833,-7.833 16.793,-10.649 26.623,-9.421 12.288,97.482 58.162,97.482 45.874,0 -137.213,0 -137.213,0 z"
   style="fill:#b4b4b4;stroke:#000000;stroke-width:1.99800003;stroke-linecap:square;stroke-miterlimit:1" /><rect
   x="0"
   id="rect27"
   height="2.8340001"
   width="147.40199"
   style="fill:none"
   y="103.09" />
<path
   style="color:#000000;fill:none;stroke:#000000;stroke-width:0.625;stroke-linecap:butt;stroke-linejoin:miter;stroke-miterlimit:4;stroke-opacity:1;stroke-dasharray:none;stroke-dashoffset:0;marker:none;visibility:visible;display:inline;overflow:visible;enable-background:accumulate"
   d="m 75.622364,144.83063 -0.449464,-6.18014 1.544681,-0.95835 c 0,0 2.042866,-2.34617 2.155233,-2.79563 0.112366,-0.44946 2.989387,-5.94357 2.427557,-7.85379 -0.56183,-1.91023 -3.430685,-1.65142 -3.543051,-2.21325 -0.112366,-0.56183 -0.42778,-2.977 -0.37906,-3.49687 0.04689,-0.50032 0.37906,-4.03166 0.266694,-5.04295 -0.112367,-1.0113 -0.273453,-2.56415 -0.273453,-2.56415 0,0 -0.06365,-3.16652 0.04872,-3.61599 0.112366,-0.44946 0,-3.48335 0,-3.48335 l -1.214342,-5.06323 c 0,0 -1.006398,-1.22027 -2.044274,-1.00453 -2.025405,0.42102 -2.134955,4.38227 -2.134955,4.38227 0,0 -0.56183,2.92152 -0.337098,4.04518 0.224732,1.12366 0.139401,4.89933 0.139401,4.89933 0,0 -0.364133,3.86522 -0.251767,4.65179 0.112366,0.78656 0.441297,3.1178 0.441297,3.1178 l -0.104199,1.48921"
   id="path3010"
   inkscape:connector-curvature="0"
   sodipodi:nodetypes="cccssssscsccscscscc" /><path
   style="color:#000000;fill:none;stroke:#000000;stroke-width:0.625;stroke-linecap:butt;stroke-linejoin:miter;stroke-miterlimit:4;stroke-opacity:1;stroke-dasharray:none;stroke-dashoffset:0;marker:none;visibility:visible;display:inline;overflow:visible;enable-background:accumulate"
   d="m 71.577186,114.94125 c -2.809152,-3.48335 -5.056474,-3.37098 -5.16884,0.11237 -0.112366,3.48335 0.449465,5.73067 0.449465,5.73067"
   id="path3012"
   inkscape:connector-curvature="0"
   sodipodi:nodetypes="csc" /><path
   style="color:#000000;fill:none;stroke:#000000;stroke-width:0.625;stroke-linecap:butt;stroke-linejoin:miter;stroke-miterlimit:4;stroke-opacity:1;stroke-dasharray:none;stroke-dashoffset:0;marker:none;visibility:visible;display:inline;overflow:visible;enable-background:accumulate"
   d="m 65.397052,116.17728 c -3.370982,-2.13496 -4.944107,-1.12366 -4.719375,1.23603 0.224732,2.35968 0.898929,4.71937 0.898929,4.71937"
   id="path3014"
   inkscape:connector-curvature="0"
   sodipodi:nodetypes="csc" /><path
   style="color:#000000;fill:none;stroke:#000000;stroke-width:0.625;stroke-linecap:butt;stroke-linejoin:miter;stroke-miterlimit:4;stroke-opacity:1;stroke-dasharray:none;stroke-dashoffset:0;marker:none;visibility:visible;display:inline;overflow:visible;enable-background:accumulate"
   d="m 60.340579,118.98643 c -1.460759,-1.01129 -4.434557,-3.44908 -4.607009,1.57313 -0.07611,2.21645 1.011295,5.73067 1.011295,5.73067 0,0 -0.782935,2.95794 0.22836,5.20526 1.011295,2.24732 2.084553,4.90587 2.084553,4.90587 0,0 1.058069,2.13677 1.058069,3.59753 0,1.46076 -0.449464,4.607 -0.449464,4.607"
   id="path3016"
   inkscape:connector-curvature="0"
   sodipodi:nodetypes="cscscsc" /><path
   style="color:#000000;fill:none;stroke:#000000;stroke-width:0.625;stroke-linecap:butt;stroke-linejoin:miter;stroke-miterlimit:4;stroke-opacity:1;stroke-dasharray:none;stroke-dashoffset:0;marker:none;visibility:visible;display:inline;overflow:visible;enable-background:accumulate"
   d="m 77.621298,124.80722 c 0,0.28162 0.105607,3.48504 0,4.25949 -0.105608,0.77445 -0.915263,4.4355 -0.915263,4.4355 l 0,0"
   id="path3018"
   inkscape:connector-curvature="0" /></svg>