<?xml version="1.0" encoding="iso-8859-1"?>
<!-- Generator: Adobe Illustrator 11 Build 196, SVG Export Plug-In . SVG Version: 6.0.0 Build 78)  -->
<!DOCTYPE svg PUBLIC "-//W3C//DTD SVG 1.0//EN"    "http://www.w3.org/TR/2001/REC-SVG-20010904/DTD/svg10.dtd" [
	<!ENTITY ns_flows "http://ns.adobe.com/Flows/1.0/">
	<!ENTITY ns_svg "http://www.w3.org/2000/svg">
	<!ENTITY ns_xlink "http://www.w3.org/1999/xlink">
]>
<svg  
	 width="320.322" height="298.258" viewBox="0 0 320.322 298.258"
	 style="overflow:visible;enable-background:new 0 0 320.322 298.258" xml:space="preserve">
	<style type="text/css">
	
	</style>
	<g id="Layer_1">
		<g>
			<rect x="74.509" y="5.73" style="fill:none;stroke:#000000;stroke-width:0.5;" width="241.023" height="262.527"/> 
			<line style="fill:none;stroke:#000000;stroke-width:0.5;" x1="74.509" y1="268.498" x2="74.509" y2="272.978"/>
			<line style="fill:none;stroke:#000000;stroke-width:0.5;" x1="121.818" y1="268.498" x2="121.818" y2="272.978"/>
			<line style="fill:none;stroke:#000000;stroke-width:0.5;" x1="169.126" y1="268.498" x2="169.126" y2="272.978"/>
			<line style="fill:none;stroke:#000000;stroke-width:0.5;" x1="216.435" y1="268.498" x2="216.435" y2="272.978"/>
			<line style="fill:none;stroke:#000000;stroke-width:0.5;" x1="263.744" y1="268.498" x2="263.744" y2="272.978"/>
			<line style="fill:none;stroke:#000000;stroke-width:0.5;" x1="311.052" y1="268.498" x2="311.052" y2="272.978"/>
			<line style="fill:none;stroke:#000000;stroke-width:0.5;" x1="74.397" y1="250.651" x2="68.125" y2="250.651"/>
			<line style="fill:none;stroke:#000000;stroke-width:0.5;" x1="74.397" y1="233.156" x2="68.125" y2="233.156"/>
			<line style="fill:none;stroke:#000000;stroke-width:0.5;" x1="74.397" y1="215.662" x2="68.125" y2="215.662"/>
			<line style="fill:none;stroke:#000000;stroke-width:0.5;" x1="74.397" y1="198.168" x2="68.125" y2="198.168"/>
			<line style="fill:none;stroke:#000000;stroke-width:0.5;" x1="74.397" y1="180.673" x2="68.125" y2="180.673"/>
			<line style="fill:none;stroke:#000000;stroke-width:0.5;" x1="74.397" y1="163.179" x2="68.125" y2="163.179"/>
			<line style="fill:none;stroke:#000000;stroke-width:0.5;" x1="74.397" y1="145.685" x2="68.125" y2="145.685"/>
			<line style="fill:none;stroke:#000000;stroke-width:0.5;" x1="74.397" y1="128.19" x2="68.125" y2="128.19"/>
			<line style="fill:none;stroke:#000000;stroke-width:0.5;" x1="74.397" y1="110.696" x2="68.125" y2="110.696"/>
			<line style="fill:none;stroke:#000000;stroke-width:0.5;" x1="74.397" y1="93.202" x2="68.125" y2="93.202"/>
			<line style="fill:none;stroke:#000000;stroke-width:0.5;" x1="74.397" y1="75.708" x2="68.125" y2="75.708"/>
			<line style="fill:none;stroke:#000000;stroke-width:0.5;" x1="74.397" y1="58.213" x2="68.125" y2="58.213"/>
			<line style="fill:none;stroke:#000000;stroke-width:0.5;" x1="74.397" y1="40.719" x2="68.125" y2="40.719"/>
			<line style="fill:none;stroke:#000000;stroke-width:0.5;" x1="74.397" y1="23.225" x2="68.125" y2="23.225"/>
			<line style="fill:none;stroke:#000000;stroke-width:0.5;" x1="74.397" y1="5.73" x2="68.125" y2="5.73"/>
			<line style="fill:none;stroke:#000000;stroke-width:0.5;" x1="74.313" y1="268.229" x2="68.042" y2="268.229"/>
			<path style="fill:none;stroke:#000000;" d="M75.405,44.258c86.912,45.696,180.991,83.328,240.127,100.351"/>
			<g>
				<g>
					<text transform="matrix(1 0 0 1 0.0386 132.1328)"><tspan x="0" y="0" style="font-family:Liberation Sans; font-size:7.650000;">ratio of</tspan></text>
				</g>
				<g>
					<text transform="matrix(1 0 0 1 30.0425 129.1328)"><tspan x="0" y="0" style="font-family:Liberation Sans; font-size:6.800000;">14</tspan></text>
				</g>
				<g>
					<text transform="matrix(1 0 0 1 38.937 132.1328)"><tspan x="0" y="0" style="font-family:Liberation Sans; font-size:7.650000;">C</tspan></text>
				</g>
				<g>
					<text transform="matrix(1 0 0 1 20.0381 143.1328)"><tspan x="0" y="0" style="font-family:Liberation Sans; font-size:7.650000;">to</tspan></text>
				</g>
				<g>
					<text transform="matrix(1 0 0 1 30.0425 140.1328)"><tspan x="0" y="0" style="font-family:Liberation Sans; font-size:6.800000;">12</tspan></text>
				</g>
				<g>
					<text transform="matrix(1 0 0 1 38.937 143.1328)"><tspan x="0" y="0" style="font-family:Liberation Sans; font-size:7.650000;">C</tspan></text>
				</g>
				<g>
					<text transform="matrix(1 0 0 1 16.0435 154.1328)"><tspan x="0" y="0" style="font-family:Liberation Sans; font-size:7.650000;">(x10</tspan></text>
				</g>
				<g>
					<text transform="matrix(1 0 0 1 33.5449 151.1328)"><tspan x="0" y="0" style="font-family:Liberation Sans; font-size:6.800000;">12</tspan></text>
				</g>
				<g>
					<text transform="matrix(1 0 0 1 42.4395 154.1328)"><tspan x="0" y="0" style="font-family:Liberation Sans; font-size:7.650000;">)</tspan></text>
				</g>
			</g>
			<g>
				<g>
					<text transform="matrix(1 0 0 1 52.4614 253.125)"><tspan x="0" y="0" style="font-family:Liberation Sans; font-size:7.650000;">0.1</tspan></text>
				</g>
			</g>
			<g>
				<g>
					<text transform="matrix(1 0 0 1 52.4614 235.6875)"><tspan x="0" y="0" style="font-family:Liberation Sans; font-size:7.650000;">0.2</tspan></text>
				</g>
			</g>
			<g>
				<g>
					<text transform="matrix(1 0 0 1 52.4614 218.25)"><tspan x="0" y="0" style="font-family:Liberation Sans; font-size:7.650000;">0.3</tspan></text>
				</g>
			</g>
			<g>
				<g>
					<text transform="matrix(1 0 0 1 52.4614 200.8125)"><tspan x="0" y="0" style="font-family:Liberation Sans; font-size:7.650000;">0.4</tspan></text>
				</g>
			</g>
			<g>
				<g>
					<text transform="matrix(1 0 0 1 52.4614 183.375)"><tspan x="0" y="0" style="font-family:Liberation Sans; font-size:7.650000;">0.5</tspan></text>
				</g>
			</g>
			<g>
				<g>
					<text transform="matrix(1 0 0 1 52.4614 165.9375)"><tspan x="0" y="0" style="font-family:Liberation Sans; font-size:7.650000;">0.6</tspan></text>
				</g>
			</g>
			<g>
				<g>
					<text transform="matrix(1 0 0 1 52.4614 148.5)"><tspan x="0" y="0" style="font-family:Liberation Sans; font-size:7.650000;">0.7</tspan></text>
				</g>
			</g>
			<g>
				<g>
					<text transform="matrix(1 0 0 1 52.4614 131.0625)"><tspan x="0" y="0" style="font-family:Liberation Sans; font-size:7.650000;">0.8</tspan></text>
				</g>
			</g>
			<g>
				<g>
					<text transform="matrix(1 0 0 1 52.4614 113.625)"><tspan x="0" y="0" style="font-family:Liberation Sans; font-size:7.650000;">0.9</tspan></text>
				</g>
			</g>
			<g>
				<g>
					<text transform="matrix(1 0 0 1 52.4614 96.1875)"><tspan x="0" y="0" style="font-family:Liberation Sans; font-size:7.650000;">1.0</tspan></text>
				</g>
			</g>
			<g>
				<g>
					<text transform="matrix(1 0 0 1 52.4614 78.75)"><tspan x="0" y="0" style="font-family:Liberation Sans; font-size:7.650000;">1.1</tspan></text>
				</g>
			</g>
			<g>
				<g>
					<text transform="matrix(1 0 0 1 52.4614 61.3125)"><tspan x="0" y="0" style="font-family:Liberation Sans; font-size:7.650000;">1.2</tspan></text>
				</g>
			</g>
			<g>
				<g>
					<text transform="matrix(1 0 0 1 52.4614 43.875)"><tspan x="0" y="0" style="font-family:Liberation Sans; font-size:7.650000;">1.3</tspan></text>
				</g>
			</g>
			<g>
				<g>
					<text transform="matrix(1 0 0 1 52.4614 26.4375)"><tspan x="0" y="0" style="font-family:Liberation Sans; font-size:7.650000;">1.4</tspan></text>
				</g>
			</g>
			<g>
				<g>
					<text transform="matrix(1 0 0 1 52.4614 9)"><tspan x="0" y="0" style="font-family:Liberation Sans; font-size:7.650000;">1.5</tspan></text>
				</g>
			</g>
			<g>
				<g>
					<text transform="matrix(1 0 0 1 52.4614 270.5625)"><tspan x="0" y="0" style="font-family:Liberation Sans; font-size:7.650000;">0.0</tspan></text>
				</g>
			</g>
			<g>
				<path style="fill:none;stroke:#000000;stroke-width:0.5;" d="M216.647,121.46c-0.112,15.447,43.244,16.262,43.564,24.702"/>
				<path style="fill:none;stroke:#000000;stroke-width:0.5;" d="M310.014,151.429c-8.899,12.626-44.63-11.943-49.802-5.267"/>
			</g>
			<line style="fill:none;stroke:#000000;stroke-width:0.5;" x1="154.552" y1="24.546" x2="122.296" y2="61.581"/>
			<path style="stroke:#000000;stroke-width:0.5;" d="M120.871,63.213c0.383-1.015,0.727-2.391,0.727-3.429l0.88,1.584l1.69,0.654
				C123.14,62.165,121.824,62.693,120.871,63.213z"/>
			<line style="fill:none;stroke:#000000;stroke-width:0.5;" x1="159.331" y1="27.533" x2="139.619" y2="63.97"/>
			<path style="stroke:#000000;stroke-width:0.5;" d="M138.589,65.868c0.152-1.075,0.186-2.492-0.042-3.505l1.206,1.353l1.792,0.269
				C140.573,64.349,139.405,65.153,138.589,65.868z"/>
			<line style="fill:none;stroke:#000000;stroke-width:0.5;" x1="166.499" y1="28.728" x2="205.922" y2="98.615"/>
			<path style="stroke:#000000;stroke-width:0.5;" d="M206.987,100.502c-0.829-0.701-2.011-1.484-2.99-1.831l1.788-0.3l1.181-1.374
				C206.757,98.014,206.816,99.431,206.987,100.502z"/>
			<line style="fill:none;stroke:#000000;stroke-width:0.5;" x1="144.995" y1="114.146" x2="160.525" y2="95.031"/>
			<path style="stroke:#000000;stroke-width:0.5;" d="M161.89,93.351c-0.349,1.028-0.645,2.415-0.609,3.452l-0.934-1.553
				l-1.711-0.596C159.659,94.477,160.956,93.903,161.89,93.351z"/>
			<line style="fill:none;stroke:#000000;stroke-width:0.5;" x1="153.357" y1="135.65" x2="168.291" y2="94.434"/>
			<path style="stroke:#000000;stroke-width:0.5;" d="M169.026,92.401c0.008,1.085,0.184,2.492,0.559,3.46l-1.392-1.16l-1.812,0
				C167.289,94.197,168.325,93.229,169.026,92.401z"/>
			<line style="fill:none;stroke:#000000;stroke-width:0.5;" x1="167.096" y1="159.543" x2="193.378" y2="108.172"/>
			<path style="stroke:#000000;stroke-width:0.5;" d="M194.361,106.248c-0.127,1.078-0.129,2.496,0.122,3.503l-1.236-1.325
				l-1.798-0.228C192.412,107.812,193.561,106.982,194.361,106.248z"/>
			<g>
				<g>
					<text transform="matrix(1 0 0 1 150.3706 19.1704)"><tspan x="0" y="0" style="font-family:Liberation Sans; font-size:7.650000;">tree rings</tspan></text>
				</g>
			</g>
			<g>
				<g>
					<text transform="matrix(1 0 0 1 110.9468 118.9243)"><tspan x="0" y="0" style="font-family:Liberation Sans; font-size:7.650000;">Pompeii</tspan></text>
				</g>
			</g>
			<g>
				<g>
					<text transform="matrix(1 0 0 1 134.2427 140.4282)"><tspan x="0" y="0" style="font-family:Liberation Sans; font-size:7.650000;">Bible</tspan></text>
				</g>
			</g>
			<g>
				<g>
					<text transform="matrix(1 0 0 1 134.2427 166.1133)"><tspan x="0" y="0" style="font-family:Liberation Sans; font-size:7.650000;">T</tspan></text>
				</g>
				<g>
					<text transform="matrix(1 0 0 1 138.7427 166.1133)"><tspan x="0" y="0" style="font-family:Liberation Sans; font-size:7.650000;">ayinat</tspan></text>
				</g>
			</g>
			<g>
				<g>
					<text transform="matrix(1 0 0 1 216.0767 159.8418)"><tspan x="0" y="0" style="font-family:Liberation Sans; font-size:7.650000;">Egyptian artifacts</tspan></text>
				</g>
			</g>
			<g>
				<g>
					<text transform="matrix(1 0 0 1 75.1069 281.0996)"><tspan x="0" y="0" style="font-family:Liberation Sans; font-size:7.650000;">0</tspan></text>
				</g>
			</g>
			<g>
				<g>
					<text transform="matrix(1 0 0 1 110.9468 282.5928)"><tspan x="0" y="0" style="font-family:Liberation Sans; font-size:7.650000;">1000</tspan></text>
				</g>
			</g>
			<g>
				<g>
					<text transform="matrix(1 0 0 1 159.9277 281.6973)"><tspan x="0" y="0" style="font-family:Liberation Sans; font-size:7.650000;">2000</tspan></text>
				</g>
			</g>
			<g>
				<g>
					<text transform="matrix(1 0 0 1 207.1167 281.6973)"><tspan x="0" y="0" style="font-family:Liberation Sans; font-size:7.650000;">3000</tspan></text>
				</g>
			</g>
			<g>
				<g>
					<text transform="matrix(1 0 0 1 252.5142 281.0996)"><tspan x="0" y="0" style="font-family:Liberation Sans; font-size:7.650000;">4000</tspan></text>
				</g>
			</g>
			<g>
				<g>
					<text transform="matrix(1 0 0 1 300.3003 281.6973)"><tspan x="0" y="0" style="font-family:Liberation Sans; font-size:7.650000;">5000</tspan></text>
				</g>
			</g>
			<g>
				<g>
					<text transform="matrix(1 0 0 1 171.8745 294.2412)"><tspan x="0" y="0" style="font-family:Liberation Sans; font-size:7.650000;">age (years)</tspan></text>
				</g>
			</g>
			<circle style="fill:#FFFFFF;stroke:#000000;" cx="290.037" cy="141.922" r="1.901"/> 
			<circle style="fill:#FFFFFF;stroke:#000000;" cx="290.336" cy="132.365" r="1.901"/> 
			<circle style="fill:#FFFFFF;stroke:#000000;" cx="308.853" cy="137.143" r="1.901"/> 
			<circle style="fill:#FFFFFF;stroke:#000000;" cx="309.186" cy="140.559" r="1.901"/> 
			<circle style="fill:#FFFFFF;stroke:#000000;" cx="309.26" cy="143.306" r="1.901"/> 
			<circle style="fill:#FFFFFF;stroke:#000000;" cx="254.903" cy="125.984" r="1.901"/> 
			<circle style="fill:#FFFFFF;stroke:#000000;" cx="252.514" cy="125.386" r="1.901"/> 
			<circle style="fill:#FFFFFF;stroke:#000000;" cx="221.154" cy="113.739" r="1.901"/> 
			<circle style="fill:#FFFFFF;stroke:#000000;" cx="209.506" cy="107.168" r="1.901"/> 
			<circle style="fill:#FFFFFF;stroke:#000000;" cx="197.75" cy="102.498" r="1.901"/> 
			<circle style="fill:#FFFFFF;stroke:#000000;" cx="172.173" cy="86.56" r="1.901"/> 
			<circle style="fill:#FFFFFF;stroke:#000000;" cx="164.707" cy="89.845" r="1.901"/> 
			<circle style="fill:#FFFFFF;stroke:#000000;" cx="135.736" cy="69.835" r="1.901"/> 
			<circle style="fill:#FFFFFF;stroke:#000000;" cx="117.424" cy="67.965" r="1.901"/> 
		</g>
		<rect y="258.694" style="fill:none;" width="320.315" height="2.834"/> 
	</g>
</svg>
