<?xml version="1.0" encoding="UTF-8" standalone="no"?>
<!-- Created with Inkscape (http://www.inkscape.org/) -->
<svg
   xmlns:dc="http://purl.org/dc/elements/1.1/"
   xmlns:cc="http://web.resource.org/cc/"
   xmlns:rdf="http://www.w3.org/1999/02/22-rdf-syntax-ns#"
   xmlns:svg="http://www.w3.org/2000/svg"
   xmlns="http://www.w3.org/2000/svg"
   xmlns:sodipodi="http://inkscape.sourceforge.net/DTD/sodipodi-0.dtd"
   xmlns:inkscape="http://www.inkscape.org/namespaces/inkscape"
   sodipodi:docname="cat.svg"
   sodipodi:docbase="/home/bcrowell/Documents/writing/lm/trunk/6mr/ch04/figs"
   sodipodi:version="0.32"
   id="svg2"
   height="297mm"
   width="210mm">
  <defs
     id="defs3" />
  <sodipodi:namedview
     inkscape:window-y="0"
     inkscape:window-x="0"
     inkscape:window-height="576"
     inkscape:window-width="798"
     inkscape:current-layer="layer1"
     inkscape:document-units="px"
     inkscape:cy="411.60019"
     inkscape:cx="318.75805"
     inkscape:zoom="1.3743309"
     inkscape:pageshadow="2"
     inkscape:pageopacity="0.0"
     borderopacity="1.0"
     bordercolor="#666666"
     pagecolor="#ffffff"
     id="base" />
  <metadata
     id="metadata4">
    <rdf:RDF
       id="RDF5">
      <cc:Work
         id="Work6"
         rdf:about="">
        <dc:format
           id="format7">image/svg+xml</dc:format>
        <dc:type
           rdf:resource="http://purl.org/dc/dcmitype/StillImage"
           id="type9" />
      </cc:Work>
    </rdf:RDF>
  </metadata>
  <g
     id="layer1"
     inkscape:groupmode="layer"
     inkscape:label="Layer 1">
    <rect
       y="590.91418"
       x="245.35399"
       height="107.98734"
       width="183.10898"
       id="rect2168"
       style="stroke-opacity:1.0000000;stroke-linejoin:miter;stroke-linecap:butt;stroke-width:0.91720991pt;stroke:#000000;fill-rule:evenodd;fill-opacity:0.75000000;fill:#bbbbbb" />
    <path
       id="path2999"
       d="M 338.83112,629.38407 C 333.27114,629.38407 328.76378,633.24037 328.59025,638.03623 L 328.55314,638.03623 L 328.55314,666.64833 L 328.55314,668.20102 L 328.73866,668.20102 C 329.58793,672.38634 333.77312,675.56822 338.83112,675.56821 C 343.88911,675.56821 348.06194,672.38634 348.91120,668.20102 L 349.09673,668.20102 L 349.09673,666.64833 L 349.09673,638.03623 L 349.05962,638.03623 C 348.88609,633.24037 344.39109,629.38408 338.83112,629.38407 z "
       style="fill:#e7e7e7;fill-opacity:1.0000000;fill-rule:evenodd;stroke:#000000;stroke-width:0.80255866;stroke-linecap:butt;stroke-linejoin:miter;stroke-miterlimit:4.0000000;stroke-opacity:1.0000000" />
    <path
       id="path3022"
       d="M 339.07250,643.19050 C 336.66384,643.19050 334.70979,645.14937 334.70979,647.55802 C 334.70979,649.27441 335.71384,650.74127 337.15599,651.45364 L 337.15599,653.66389 L 340.99382,653.66389 L 340.99382,651.45364 C 342.43597,650.74127 343.44002,649.27441 343.44002,647.55802 C 343.44002,645.14937 341.48114,643.19050 339.07250,643.19050 z "
       style="fill:#878787;fill-opacity:1.0000000;fill-rule:evenodd;stroke:#000000;stroke-width:0.87500000;stroke-linecap:butt;stroke-linejoin:miter;stroke-miterlimit:4.0000000;stroke-opacity:1.0000000" />
    <path
       id="rect3027"
       d="M 333.31261,652.46742 C 332.83052,652.50846 332.37709,652.85131 332.18678,653.37414 C 331.93305,654.07128 332.24066,654.82548 332.87441,655.05615 C 333.31582,655.21681 333.78985,655.06477 334.12833,654.73256 L 337.28672,655.88198 L 334.12833,657.03141 C 333.78985,656.69920 333.31581,656.54716 332.87441,656.70782 C 332.24066,656.93848 331.93305,657.69607 332.18678,658.39319 C 332.44052,659.09031 333.16088,659.46317 333.79463,659.23251 C 334.23749,659.07131 334.50872,658.65484 334.55305,658.18083 L 339.07659,656.53254 L 343.60013,658.18083 C 343.64547,658.65348 343.91672,659.07506 344.35856,659.23588 C 344.99230,659.46655 345.70929,659.08358 345.96303,658.38645 C 346.21676,657.68933 345.90914,656.94185 345.27540,656.71119 C 344.83264,656.55004 344.35673,656.69698 344.01810,657.03141 L 340.86308,655.88198 L 344.01810,654.73256 C 344.35673,655.06699 344.83264,655.21730 345.27540,655.05615 C 345.90914,654.82548 346.21676,654.07464 345.96303,653.37752 C 345.70929,652.68040 344.99230,652.30079 344.35856,652.53146 C 343.91672,652.69228 343.64547,653.11049 343.60013,653.58313 L 339.07659,655.23143 L 334.55305,653.58313 C 334.50872,653.10913 334.23749,652.69265 333.79463,652.53146 C 333.63619,652.47380 333.47330,652.45374 333.31261,652.46742 z "
       style="fill:#878787;fill-opacity:1.0000000;fill-rule:evenodd;stroke:#000000;stroke-width:0.87500000;stroke-linecap:butt;stroke-linejoin:miter;stroke-miterlimit:4.0000000;stroke-opacity:1.0000000" />
    <path
       style="stroke-miterlimit:4.0000000;stroke-dasharray:none;stroke-opacity:1.0000000;stroke-linejoin:miter;stroke-linecap:butt;stroke-width:0.87500000;stroke:#000000;fill-rule:evenodd;fill-opacity:0.75000000;fill:none"
       d="M 274.93946,638.93091 C 294.35898,639.95299 296.40314,649.15171 292.31482,650.17379 C 288.22650,651.19587 291.29274,656.30627 299.46938,655.28419 C 307.64602,654.26211 307.64602,654.26211 307.64602,654.26211"
       id="path2105" />
    <rect
       style="stroke-miterlimit:4.0000000;stroke-dasharray:none;stroke-opacity:1.0000000;stroke-linejoin:miter;stroke-linecap:butt;stroke-width:0.87500000;stroke:#000000;fill-rule:evenodd;fill-opacity:1.0000000;fill:#ffffff"
       id="rect2101"
       width="21.463675"
       height="19.419516"
       x="297.42523"
       y="639.95300" />
    <path
       style="stroke-miterlimit:4.0000000;stroke-dasharray:none;stroke-opacity:1.0000000;stroke-linejoin:miter;stroke-linecap:butt;stroke-width:0.87500000;stroke:#000000;fill-rule:evenodd;fill-opacity:1.0000000;fill:#ffffff"
       d="M 315.90173,617.58468 L 311.30017,625.55481 L 316.60457,628.61731 L 307.90145,643.69157 C 306.14064,643.63829 304.40029,644.47450 303.45835,646.10599 C 302.09396,648.46919 302.90239,651.48635 305.26560,652.85074 C 307.62881,654.21514 310.65949,653.41450 312.02388,651.05130 C 312.96582,649.41981 312.81982,647.49451 311.89329,645.99626 L 320.59641,630.92200 L 325.90082,633.98450 L 330.50238,626.01437 L 315.90173,617.58468 z "
       id="rect1334" />
    <path
       id="path2930"
       d="M 415.31917,606.43761 C 412.73998,607.46927 410.67580,610.90901 410.67580,610.90901 C 410.67579,610.90902 409.64328,611.43369 406.03242,611.25297 C 402.24838,611.59181 401.38905,611.59692 401.38905,611.59692 C 401.38906,611.59689 396.22965,607.46967 395.71381,608.50134 C 395.19798,609.53300 396.74567,615.20843 396.74567,615.20843 C 396.74568,615.20843 395.71390,618.30420 396.22974,619.33588 C 396.74557,620.36752 397.26160,623.46361 397.26160,625.01112 C 397.26160,625.35501 397.26160,625.14704 397.26160,625.35507 L 395.36986,626.67356 L 395.71381,626.04298 C 393.13463,627.07462 390.03848,630.17061 389.52264,631.20228 C 389.00679,632.23393 387.97485,633.26601 387.97485,633.26601 C 387.97484,633.26600 385.39491,632.75018 383.84741,633.26601 C 382.29989,633.78184 379.20403,635.84566 379.20403,635.84566 C 379.20403,635.84569 375.07631,635.84594 373.52879,637.39345 C 371.98129,638.94098 367.85270,642.01024 363.21018,653.35864 C 358.56765,664.70704 359.08274,669.86870 359.08274,671.41621 C 359.08273,672.96372 358.56652,676.05996 357.01901,678.12331 C 355.47151,680.18665 354.43785,682.25056 346.18447,681.21889 C 337.93109,680.18721 336.38179,682.25075 336.38179,682.25075 C 336.38180,682.25077 341.02573,685.86227 344.12075,685.86227 C 347.21575,685.86225 356.50347,686.37801 358.56680,685.34634 C 360.22567,684.51692 363.45032,683.34574 364.95861,681.84947 C 364.96977,681.85690 364.95034,681.86308 367.85356,683.79854 C 370.94857,685.86189 378.68857,683.28234 381.26775,681.73482 C 383.84693,680.18731 387.97524,675.54272 390.03857,670.38435 C 391.13171,667.65150 390.83416,664.97533 389.55131,662.70271 L 390.32520,662.58806 C 392.55670,665.89047 394.16602,668.34553 394.16602,670.90028 C 394.16602,673.99528 392.61869,677.09192 395.19788,679.67110 C 397.77705,682.25028 396.74605,681.73492 398.80939,682.25075 C 400.80071,682.74861 402.71426,681.37624 402.85085,681.27622 L 402.93684,682.25075 C 405.00018,682.76661 407.06400,682.25046 405.51649,680.70296 C 404.22689,679.41335 403.02034,678.51734 402.50690,678.12331 L 402.59288,678.86854 L 402.07695,677.75069 C 402.09950,677.76771 402.43320,678.06675 402.50690,678.12331 L 400.75846,660.92562 C 400.61362,661.51783 400.58949,662.15377 400.50050,662.73138 L 400.67248,660.06574 L 400.75846,660.92562 C 401.35698,658.47865 402.50385,655.82217 405.00056,652.32678 C 410.15893,645.10510 411.19163,643.58405 410.67580,640.48903 C 410.15997,637.39403 411.70775,632.74970 412.22359,630.68635 C 412.73942,628.62303 413.77138,623.97925 413.77138,623.97925 L 415.31917,620.36774 C 415.31916,620.36774 418.41456,617.27178 417.38290,615.20843 C 416.35123,613.14509 417.89835,605.40595 415.31917,606.43761 z M 390.58317,662.55940 L 392.10230,665.05307 L 390.41119,662.58806 L 390.58317,662.55940 z M 399.92724,671.93214 C 400.01076,672.68079 400.13827,673.30582 400.29986,673.90987 L 399.86992,672.99266 L 399.92724,671.93214 z M 386.88566,680.12970 C 386.17639,679.93627 385.13699,679.92912 383.84741,680.18703 L 379.71996,683.79854 L 386.94299,683.79854 C 386.94299,683.79854 387.97484,682.25055 387.97485,681.21889 C 387.97485,680.70306 387.59493,680.32314 386.88566,680.12970 z M 402.56422,680.50232 L 402.76486,680.50232 L 402.82219,680.96093 L 402.56422,680.50232 z "
       style="fill:#ffffff;fill-opacity:1.0000000;fill-rule:evenodd;stroke:none;stroke-width:1.2500000;stroke-linecap:butt;stroke-linejoin:miter;stroke-miterlimit:4.0000000;stroke-opacity:1.0000000" />
    <g
       transform="translate(187.5412,47.97567)"
       id="g2130">
      <path
         id="path1373"
         d="M 201.90419,612.44895 C 204.99922,617.09148 207.06256,619.67066 207.06256,622.76567 C 207.06256,625.86069 205.51505,628.95571 208.09423,631.53489 C 210.67341,634.11406 209.64174,633.59823 211.70509,634.11406 C 213.76843,634.62990 215.83177,633.08240 215.83177,633.08240 L 214.80010,631.01905 L 214.80010,631.01905"
         style="fill:none;fill-opacity:0.75000000;fill-rule:evenodd;stroke:#000000;stroke-width:0.87500000;stroke-linecap:butt;stroke-linejoin:miter;stroke-miterlimit:4.0000000;stroke-opacity:1.0000000" />
      <g
         id="g2117">
        <path
           id="path1367"
           d="M 208.61006,577.88794 C 206.03089,578.91960 202.93587,582.01462 202.42003,583.04630 C 201.90419,584.07797 200.87253,585.10963 200.87253,585.10963 C 200.87253,585.10963 198.29334,584.59381 196.74583,585.10963 C 195.19833,585.62547 192.10331,587.68882 192.10331,587.68882 C 192.10331,587.68882 187.97663,587.68882 186.42911,589.23633 C 184.88161,590.78384 180.75492,593.87885 176.11239,605.22725 C 171.46987,616.57564 171.98571,621.73400 171.98571,623.28151 C 171.98571,624.82902 171.46987,627.92403 169.92236,629.98738 C 168.37485,632.05073 167.34318,634.11406 159.08980,633.08240 C 150.83642,632.05073 149.28891,634.11406 149.28891,634.11406 C 149.28891,634.11406 153.93144,637.72492 157.02646,637.72492 C 160.12147,637.72492 169.40652,638.24076 171.46987,637.20909 C 173.53321,636.17741 178.17574,634.62990 178.69157,632.56657 C 179.20741,630.50322 179.20741,630.50322 179.20741,630.50322"
           style="fill:none;fill-opacity:0.75000000;fill-rule:evenodd;stroke:#000000;stroke-width:0.87500000;stroke-linecap:butt;stroke-linejoin:miter;stroke-miterlimit:4.0000000;stroke-opacity:1.0000000" />
        <path
           id="path1369"
           d="M 196.74583,609.86977 C 202.42003,611.93311 204.99922,617.09148 202.93587,622.24983 C 200.87253,627.40820 196.74583,632.05073 194.16666,633.59823 C 191.58748,635.14574 183.84994,637.72492 180.75492,635.66157 C 177.65990,633.59823 177.65990,633.59823 177.65990,633.59823"
           style="fill:none;fill-opacity:0.75000000;fill-rule:evenodd;stroke:#000000;stroke-width:0.87500000;stroke-linecap:butt;stroke-linejoin:miter;stroke-miterlimit:4.0000000;stroke-opacity:1.0000000" />
        <path
           id="path1371"
           d="M 196.74583,632.05073 C 199.32502,631.53489 200.87253,632.05073 200.87253,633.08240 C 200.87253,634.11406 199.84086,635.66157 199.84086,635.66157 L 192.61915,635.66157 L 192.61915,635.66157"
           style="fill:none;fill-opacity:0.75000000;fill-rule:evenodd;stroke:#000000;stroke-width:0.87500000;stroke-linecap:butt;stroke-linejoin:miter;stroke-miterlimit:4.0000000;stroke-opacity:1.0000000" />
        <path
           sodipodi:nodetypes="ccccccccccccccccccc"
           id="path1375"
           d="M 215.83177,634.11406 C 217.89512,634.62990 219.95846,634.11406 218.41096,632.56657 C 216.86344,631.01905 214.80010,629.47154 214.80010,629.47154 C 214.80010,629.47154 212.22092,626.37653 212.73676,620.70234 C 213.25260,615.02814 212.73676,611.41728 217.89512,604.19557 C 223.05348,596.97387 224.08515,595.42636 223.56932,592.33134 C 223.05348,589.23633 224.60099,584.59381 225.11683,582.53046 C 225.63266,580.46711 226.66433,575.82459 226.66433,575.82459 L 228.21184,572.21374 C 228.21184,572.21374 231.30686,569.11872 230.27519,567.05537 C 229.24351,564.99203 230.79102,557.25449 228.21184,558.28616 C 225.63266,559.31784 223.56555,562.76301 223.56555,562.76301 C 223.56555,562.76301 222.53764,563.28638 218.92679,563.10566 C 215.14274,563.44452 214.28049,563.44076 214.28049,563.44076 C 214.28049,563.44076 209.12590,559.31784 208.61006,560.34950 C 208.09423,561.38117 209.64174,567.05537 209.64174,567.05537 C 209.64174,567.05537 208.61006,570.15039 209.12590,571.18207 C 209.64174,572.21374 210.15757,575.30875 210.15757,576.85626 C 210.15757,578.40377 210.15757,578.40377 210.15757,578.40377"
           style="fill:none;fill-opacity:0.75000000;fill-rule:evenodd;stroke:#000000;stroke-width:0.87500000;stroke-linecap:butt;stroke-linejoin:miter;stroke-miterlimit:4.0000000;stroke-opacity:1.0000000" />
        <path
           id="path1377"
           d="M 219.76832,572.17796 C 220.28792,571.65836 220.28792,570.96557 220.98072,570.27276 C 221.67352,569.57996 223.23233,569.23356 223.75193,569.57996 C 224.27153,569.92636 224.27153,570.61917 224.09833,571.13877 C 223.92513,571.65836 221.84672,572.69756 220.80753,572.17796 C 219.76832,571.65836 219.94152,571.65836 219.94152,571.65836"
           style="fill:none;fill-opacity:0.75000000;fill-rule:evenodd;stroke:#000000;stroke-width:0.87500000;stroke-linecap:butt;stroke-linejoin:miter;stroke-miterlimit:4.0000000;stroke-opacity:1.0000000" />
        <path
           id="path1379"
           d="M 215.78471,571.65836 C 214.22590,569.75316 213.01350,569.06036 212.14749,570.09956 C 211.28149,571.13877 212.14749,572.35117 213.01350,572.69756 C 213.87950,573.04397 214.91871,572.87077 215.26511,572.35117 C 215.61151,571.83157 215.78471,571.65836 215.78471,571.65836 z "
           style="fill:none;fill-opacity:0.75000000;fill-rule:evenodd;stroke:#000000;stroke-width:0.87500000;stroke-linecap:butt;stroke-linejoin:miter;stroke-miterlimit:4.0000000;stroke-opacity:1.0000000" />
        <path
           id="path1381"
           d="M 216.13111,574.60277 L 217.68991,576.33478 L 219.42191,574.77597 L 219.42191,574.77597"
           style="fill:none;fill-opacity:0.75000000;fill-rule:evenodd;stroke:#000000;stroke-width:0.87500000;stroke-linecap:butt;stroke-linejoin:miter;stroke-miterlimit:4.0000000;stroke-opacity:1.0000000" />
        <path
           id="path1383"
           d="M 218.03631,576.68118 L 218.03631,577.20078 L 216.13111,578.23998 L 216.13111,578.23998"
           style="fill:none;fill-opacity:0.75000000;fill-rule:evenodd;stroke:#000000;stroke-width:0.87500000;stroke-linecap:butt;stroke-linejoin:miter;stroke-miterlimit:4.0000000;stroke-opacity:1.0000000" />
        <path
           id="path1385"
           d="M 218.38272,577.20078 L 219.94152,577.72038"
           style="fill:none;fill-opacity:0.75000000;fill-rule:evenodd;stroke:#000000;stroke-width:0.87500000;stroke-linecap:butt;stroke-linejoin:miter;stroke-miterlimit:4.0000000;stroke-opacity:1.0000000" />
        <path
           id="path1387"
           d="M 221.84672,570.27276 C 221.67352,571.65836 222.19313,571.83157 222.19313,571.83157 C 222.19313,571.83157 222.01992,570.44596 221.84672,570.27276 z "
           style="fill:none;fill-opacity:0.75000000;fill-rule:evenodd;stroke:#000000;stroke-width:0.87500000;stroke-linecap:butt;stroke-linejoin:miter;stroke-miterlimit:4.0000000;stroke-opacity:1.0000000" />
        <path
           id="path1389"
           d="M 213.70630,570.44596 C 213.35990,571.83157 213.70630,572.52437 213.70630,572.52437 L 213.70630,570.44596 z "
           style="fill:none;fill-opacity:0.75000000;fill-rule:evenodd;stroke:#000000;stroke-width:0.87500000;stroke-linecap:butt;stroke-linejoin:miter;stroke-miterlimit:4.0000000;stroke-opacity:1.0000000" />
      </g>
    </g>
    <g
       transform="translate(4.000000,-6.000000)"
       id="g2091">
      <rect
         y="626.47272"
         x="247.35376"
         height="28.012854"
         width="29.660669"
         id="rect3020"
         style="fill:#ffffff;fill-opacity:1.0000000;fill-rule:evenodd;stroke:#000000;stroke-width:0.72738051pt;stroke-linecap:butt;stroke-linejoin:miter;stroke-opacity:1.0000000" />
      <g
         id="g2149">
        <path
           transform="matrix(0.108345,0.000000,0.000000,0.108345,251.1648,561.1945)"
           d="M 138.18999 730.67401 A 33.981148 33.981148 0 1 1  70.227699,730.67401 A 33.981148 33.981148 0 1 1  138.18999 730.67401 z"
           sodipodi:ry="33.981148"
           sodipodi:rx="33.981148"
           sodipodi:cy="730.67401"
           sodipodi:cx="104.20885"
           id="path3006"
           style="fill:#878787;fill-opacity:1.0000000;fill-rule:evenodd;stroke:#000000;stroke-width:4.3264570;stroke-linecap:butt;stroke-linejoin:miter;stroke-miterlimit:4.0000000;stroke-opacity:1.0000000"
           sodipodi:type="arc" />
        <path
           id="path3008"
           d="M 263.32110,630.10074 L 263.32110,634.35514 L 267.57550,636.64596 L 271.50263,634.02787 C 271.50263,634.02787 270.84811,632.39157 268.23002,631.08253 C 265.61193,629.77348 263.32110,630.10074 263.32110,630.10074 z "
           style="fill:#878787;fill-opacity:1.0000000;fill-rule:evenodd;stroke:#000000;stroke-width:0.62500000;stroke-linecap:butt;stroke-linejoin:miter;stroke-miterlimit:4.0000000;stroke-opacity:1.0000000" />
        <path
           id="path3010"
           d="M 271.33881,645.85489 L 267.65440,643.72769 L 263.54329,646.26669 L 263.84705,650.97673 C 263.84705,650.97673 265.59139,651.22805 268.03410,649.61524 C 270.47682,648.00243 271.33881,645.85489 271.33881,645.85489 z "
           style="fill:#878787;fill-opacity:1.0000000;fill-rule:evenodd;stroke:#000000;stroke-width:0.62500000;stroke-linecap:butt;stroke-linejoin:miter;stroke-miterlimit:4.0000000;stroke-opacity:1.0000000" />
        <path
           id="path3012"
           d="M 252.96740,644.98557 L 256.65181,642.85838 L 256.50853,638.02855 L 252.27763,635.93659 C 252.27763,635.93659 251.18781,637.32158 251.36319,640.24343 C 251.53857,643.16529 252.96740,644.98557 252.96740,644.98557 z "
           style="fill:#878787;fill-opacity:1.0000000;fill-rule:evenodd;stroke:#000000;stroke-width:0.62500000;stroke-linecap:butt;stroke-linejoin:miter;stroke-miterlimit:4.0000000;stroke-opacity:1.0000000" />
      </g>
    </g>
    <path
       transform="translate(-0.614395,2.051210)"
       d="M 339.14598 644.91595 A 1.1263906 1.1263906 0 1 1  336.89320,644.91595 A 1.1263906 1.1263906 0 1 1  339.14598 644.91595 z"
       sodipodi:ry="1.1263906"
       sodipodi:rx="1.1263906"
       sodipodi:cy="644.91595"
       sodipodi:cx="338.01959"
       id="path2121"
       style="fill:none;fill-opacity:0.75000000;fill-rule:evenodd;stroke:#000000;stroke-width:0.62500000;stroke-linecap:butt;stroke-linejoin:miter;stroke-miterlimit:4.0000000;stroke-opacity:1.0000000"
       sodipodi:type="arc" />
    <path
       transform="translate(2.764767,2.051210)"
       d="M 339.14598 644.91595 A 1.1263906 1.1263906 0 1 1  336.89320,644.91595 A 1.1263906 1.1263906 0 1 1  339.14598 644.91595 z"
       sodipodi:ry="1.1263906"
       sodipodi:rx="1.1263906"
       sodipodi:cy="644.91595"
       sodipodi:cx="338.01959"
       id="path2123"
       style="fill:none;fill-opacity:0.75000000;fill-rule:evenodd;stroke:#000000;stroke-width:0.62500000;stroke-linecap:butt;stroke-linejoin:miter;stroke-miterlimit:4.0000000;stroke-opacity:1.0000000"
       sodipodi:type="arc" />
    <path
       sodipodi:nodetypes="cccccc"
       id="path3643"
       d="M 338.00178,631.53988 C 329.93812,631.87587 330.61009,638.59559 330.61009,645.65129 C 330.61009,652.70699 330.61009,656.40284 330.61009,656.40284 L 331.61805,652.67614 C 333.55226,653.83667 332.82943,638.98243 334.84535,636.29454 C 336.86126,633.60665 338.00178,631.53988 338.00178,631.53988 z "
       style="fill:#ffffff;fill-opacity:1.0000000;fill-rule:evenodd;stroke:none;stroke-width:0.25000000pt;stroke-linecap:butt;stroke-linejoin:miter;stroke-opacity:1.0000000" />
  </g>
</svg>
