<?xml version="1.0" encoding="iso-8859-1"?>
<!-- Generator: Adobe Illustrator 11 Build 196, SVG Export Plug-In . SVG Version: 6.0.0 Build 78)  -->
<!DOCTYPE svg PUBLIC "-//W3C//DTD SVG 1.0//EN"    "http://www.w3.org/TR/2001/REC-SVG-20010904/DTD/svg10.dtd" [
	<!ENTITY ns_flows "http://ns.adobe.com/Flows/1.0/">
	<!ENTITY ns_svg "http://www.w3.org/2000/svg">
	<!ENTITY ns_xlink "http://www.w3.org/1999/xlink">
]>
<svg  
	 width="147.83" height="121.405" viewBox="0 0 147.83 121.405" style="overflow:visible;enable-background:new 0 0 147.83 121.405"
	 xml:space="preserve">
	<style type="text/css">
	
	</style>
	<g id="Layer_1">
		<rect x="23.291" y="91.763" style="fill:#DCDCDC;" width="117.098" height="1.354"/> 
		<rect x="21.646" y="12.794" style="fill:#DCDCDC;" width="24.368" height="79.419"/> 
		<path style="fill:#DCDCDC;" d="M139.825,90.635c-12.635-0.451-42.417-2.256-60.918-21.208
			c-18.501-18.953-15.793-18.05-31.136-57.309v80.096h91.941L139.825,90.635z"/>
		<line style="fill:none;stroke:#000000;stroke-width:0.3;" x1="21.646" y1="93.117" x2="21.646" y2="12.794"/>
		<line style="fill:none;stroke:#000000;" x1="23.291" y1="12.794" x2="140.63" y2="12.794"/>
		<line style="fill:none;stroke:#000000;" x1="140.63" y1="12.794" x2="140.63" y2="93.117"/>
		<line style="fill:none;stroke:#000000;" x1="23.291" y1="93.117" x2="140.63" y2="93.117"/>
		<line style="fill:none;stroke:#000000;stroke-width:0.3;" x1="23.291" y1="87.341" x2="140.63" y2="87.341"/>
		<line style="fill:none;stroke:#000000;stroke-width:0.3;" x1="23.291" y1="82.016" x2="140.63" y2="82.016"/>
		<line style="fill:none;stroke:#000000;stroke-width:0.3;" x1="23.291" y1="76.691" x2="140.63" y2="76.691"/>
		<line style="fill:none;stroke:#000000;stroke-width:0.3;" x1="23.291" y1="71.367" x2="140.63" y2="71.367"/>
		<line style="fill:none;stroke:#000000;" x1="23.291" y1="66.042" x2="140.63" y2="66.042"/>
		<line style="fill:none;stroke:#000000;stroke-width:0.3;" x1="23.291" y1="55.392" x2="140.63" y2="55.392"/>
		<line style="fill:none;stroke:#000000;stroke-width:0.3;" x1="23.291" y1="60.717" x2="140.63" y2="60.717"/>
		<line style="fill:none;stroke:#000000;stroke-width:0.3;" x1="23.291" y1="50.067" x2="140.63" y2="50.067"/>
		<line style="fill:none;stroke:#000000;stroke-width:0.3;" x1="23.291" y1="44.743" x2="140.63" y2="44.743"/>
		<line style="fill:none;stroke:#000000;" x1="23.291" y1="39.418" x2="140.63" y2="39.418"/>
		<line style="fill:none;stroke:#000000;stroke-width:0.3;" x1="23.291" y1="34.093" x2="140.63" y2="34.093"/>
		<line style="fill:none;stroke:#000000;stroke-width:0.3;" x1="23.291" y1="28.769" x2="140.63" y2="28.769"/>
		<line style="fill:none;stroke:#000000;stroke-width:0.3;" x1="23.291" y1="23.444" x2="140.63" y2="23.444"/>
		<line style="fill:none;stroke:#000000;stroke-width:0.3;" x1="23.291" y1="18.119" x2="140.63" y2="18.119"/>
		<line style="fill:none;stroke:#000000;stroke-width:0.3;" x1="30.673" y1="12.794" x2="30.673" y2="93.117"/>
		<line style="fill:none;stroke:#000000;stroke-width:0.3;" x1="39.699" y1="12.794" x2="39.699" y2="93.117"/>
		<line style="fill:none;stroke:#000000;stroke-width:0.3;" x1="59.395" y1="12.794" x2="59.395" y2="93.117"/>
		<line style="fill:none;stroke:#000000;stroke-width:0.3;" x1="68.421" y1="12.794" x2="68.421" y2="93.117"/>
		<line style="fill:none;stroke:#000000;stroke-width:0.3;" x1="77.447" y1="12.794" x2="77.447" y2="93.117"/>
		<line style="fill:none;stroke:#000000;stroke-width:0.3;" x1="86.473" y1="12.794" x2="86.473" y2="93.117"/>
		<line style="fill:none;stroke:#000000;stroke-width:0.3;" x1="104.525" y1="12.794" x2="104.525" y2="93.117"/>
		<line style="fill:none;stroke:#000000;" x1="95.499" y1="12.794" x2="95.499" y2="93.117"/>
		<line style="fill:none;stroke:#000000;stroke-width:0.3;" x1="113.551" y1="12.794" x2="113.551" y2="93.117"/>
		<line style="fill:none;stroke:#000000;stroke-width:0.3;" x1="122.578" y1="12.794" x2="122.578" y2="93.117"/>
		<line style="fill:none;stroke:#000000;stroke-width:0.3;" x1="131.604" y1="12.794" x2="131.604" y2="93.117"/>
		<path style="fill:none;stroke:#000000;stroke-width:2;" d="M48.109,12.343c9.476,26.849,12.635,38.356,31.136,57.309
			c18.501,18.952,48.284,20.757,60.918,21.208"/>
		<g>
			<g>
				<g>
					<text transform="matrix(1 0 0 1 42.7783 108.1729)"><tspan x="0" y="0" style="font-family:Liberation Sans; font-size:7.650000;">225</tspan></text>
				</g>
			</g>
		</g>
		<g>
			<g>
				<g>
					<text transform="matrix(1 0 0 1 87.7925 108.1729)"><tspan x="0" y="0" style="font-family:Liberation Sans; font-size:7.650000;">230</tspan></text>
				</g>
			</g>
		</g>
		<g>
			<g>
				<g>
					<text transform="matrix(1 0 0 1 132.8066 108.1729)"><tspan x="0" y="0" style="font-family:Liberation Sans; font-size:7.650000;">235</tspan></text>
				</g>
			</g>
		</g>
		<g>
			<g>
				<g>
					<text transform="matrix(1 0 0 1 70.0645 117.3887)"><tspan x="0" y="0" style="font-family:Liberation Sans; font-size:7.650000;">height (cm)</tspan></text>
				</g>
			</g>
		</g>
		<rect x="17.651" y="10.144" style="fill:#FFFFFF;" width="30.609" height="83.932"/> 
		<g>
			<g>
				<g>
					<text transform="matrix(1 0 0 1 15.4272 68.2788)"><tspan x="0" y="0" style="font-family:Liberation Sans; font-size:7.650000;">1x10</tspan></text>
				</g>
			</g>
			<g>
				<g>
					<text transform="matrix(1 0 0 1 37.4375 65.9038)"><tspan x="0" y="0" style="font-family:Liberation Sans; font-size:6.800000;">&#x2013;7</tspan></text>
				</g>
			</g>
		</g>
		<g>
			<g>
				<g>
					<text transform="matrix(1 0 0 1 15.4272 42.1729)"><tspan x="0" y="0" style="font-family:Liberation Sans; font-size:7.650000;">2x10</tspan></text>
				</g>
			</g>
			<g>
				<g>
					<text transform="matrix(1 0 0 1 37.4375 39.7979)"><tspan x="0" y="0" style="font-family:Liberation Sans; font-size:6.800000;">&#x2013;7</tspan></text>
				</g>
			</g>
		</g>
		<g>
			<g>
				<g>
					<text transform="matrix(1 0 0 1 15.4272 14.623)"><tspan x="0" y="0" style="font-family:Liberation Sans; font-size:7.650000;">3x10</tspan></text>
				</g>
			</g>
			<g>
				<g>
					<text transform="matrix(1 0 0 1 37.4375 12.248)"><tspan x="0" y="0" style="font-family:Liberation Sans; font-size:6.800000;">&#x2013;7</tspan></text>
				</g>
			</g>
		</g>
		<g>
			<g>
				<g>
					<text transform="matrix(1 0 0 1 15.4272 96.3228)"><tspan x="0" y="0" style="font-family:Liberation Sans; font-size:7.650000;">0x10</tspan></text>
				</g>
			</g>
			<g>
				<g>
					<text transform="matrix(1 0 0 1 37.4375 93.9478)"><tspan x="0" y="0" style="font-family:Liberation Sans; font-size:6.800000;">&#x2013;7</tspan></text>
				</g>
			</g>
		</g>
		<g>
			<g>
				<g>
					<text transform="matrix(0 -1 1 0 11.2559 110.5156)"><tspan x="0" y="0" style="font-family:Liberation Sans; font-size:7.650000;">prob. per unit height (cm</tspan></text>
				</g>
			</g>
			<g>
				<g>
					<text transform="matrix(0 -1 1 0 9 13.0029)"><tspan x="0" y="0" style="font-family:Liberation Sans; font-size:7.650000;">&#x2013;1</tspan></text>
				</g>
			</g>
			<g>
				<g>
					<text transform="matrix(0 -1 1 0 11.2559 2.9971)"><tspan x="0" y="0" style="font-family:Liberation Sans; font-size:7.650000;">)</tspan></text>
				</g>
			</g>
		</g>
		<rect x="0.429" y="53.339" style="fill:none;" width="147.401" height="2.834"/> 
		<line style="fill:none;stroke:#000000;" x1="48.725" y1="12.794" x2="48.725" y2="93.117"/>
	</g>
</svg>
