<?xml version="1.0" encoding="iso-8859-1"?>
<!-- Generator: Adobe Illustrator 11 Build 196, SVG Export Plug-In . SVG Version: 6.0.0 Build 78)  -->
<!DOCTYPE svg PUBLIC "-//W3C//DTD SVG 1.0//EN"    "http://www.w3.org/TR/2001/REC-SVG-20010904/DTD/svg10.dtd" [
	<!ENTITY ns_flows "http://ns.adobe.com/Flows/1.0/">
	<!ENTITY ns_svg "http://www.w3.org/2000/svg">
	<!ENTITY ns_xlink "http://www.w3.org/1999/xlink">
]>
<svg  
	 width="147.401" height="152.042" viewBox="0 0 147.401 152.042"
	 style="overflow:visible;enable-background:new 0 0 147.401 152.042" xml:space="preserve">
	<style type="text/css">
	
	</style>
	<g id="Layer_1">
		<g>
			<line style="fill:none;stroke:#000000;stroke-width:0.5;" x1="41.959" y1="0.25" x2="120.204" y2="0.25"/>
			<line style="fill:none;stroke:#000000;stroke-width:0.5;" x1="41.959" y1="1.299" x2="120.204" y2="1.299"/>
			<line style="fill:none;stroke:#000000;stroke-width:0.5;" x1="41.959" y1="3.028" x2="120.204" y2="3.028"/>
			<line style="fill:none;stroke:#000000;stroke-width:0.5;" x1="41.959" y1="6.217" x2="120.204" y2="6.217"/>
			<line style="fill:none;stroke:#000000;stroke-width:0.5;" x1="41.959" y1="13.105" x2="120.204" y2="13.105"/>
			<line style="fill:none;stroke:#000000;stroke-width:0.5;" x1="41.959" y1="32.792" x2="120.204" y2="32.792"/>
			<line style="fill:none;stroke:#000000;stroke-width:0.5;" x1="41.959" y1="139.091" x2="120.204" y2="139.091"/>
			<g>
				<g>
					<text transform="matrix(1 0 0 1 25.2822 142.3586)"><tspan x="0" y="0" style="font-family:Liberation Sans; font-size:7.650000;">n=1</tspan></text>
				</g>
			</g>
			<g>
				<g>
					<text transform="matrix(1 0 0 1 25.2822 36.0984)"><tspan x="0" y="0" style="font-family:Liberation Sans; font-size:7.650000;">n=2</tspan></text>
				</g>
			</g>
			<g>
				<g>
					<text transform="matrix(1 0 0 1 25.2822 17.0984)"><tspan x="0" y="0" style="font-family:Liberation Sans; font-size:7.650000;">n=3</tspan></text>
				</g>
			</g>
			<g>
				<g>
					<text transform="matrix(1 0 0 1 25.2822 10.0984)"><tspan x="0" y="0" style="font-family:Liberation Sans; font-size:7.650000;">n=4</tspan></text>
				</g>
			</g>
			<g>
				<line style="fill:none;stroke:#000000;" x1="49.122" y1="32.859" x2="49.122" y2="134.859"/>
				<path d="M49.122,139.083c-0.737-1.988-1.996-4.454-3.329-5.983l3.329,1.204l3.328-1.204
					C51.118,134.629,49.859,137.095,49.122,139.083z"/>
			</g>
			<g>
				<line style="fill:none;stroke:#000000;" x1="59.051" y1="13.296" x2="59.051" y2="134.859"/>
				<path d="M59.051,139.083c-0.738-1.988-1.997-4.454-3.329-5.983l3.329,1.204l3.328-1.204
					C61.047,134.629,59.788,137.095,59.051,139.083z"/>
			</g>
			<g>
				<line style="fill:none;stroke:#000000;" x1="68.979" y1="6.484" x2="68.979" y2="134.859"/>
				<path d="M68.979,139.083c-0.737-1.988-1.996-4.454-3.328-5.983l3.328,1.204l3.329-1.204
					C70.975,134.629,69.716,137.095,68.979,139.083z"/>
			</g>
			<g>
				<line style="fill:none;stroke:#000000;" x1="78.908" y1="13.171" x2="78.908" y2="28.359"/>
				<path d="M78.908,32.583c-0.737-1.988-1.996-4.454-3.329-5.983l3.329,1.204l3.328-1.204
					C80.904,28.129,79.645,30.595,78.908,32.583z"/>
			</g>
			<g>
				<line style="fill:none;stroke:#000000;" x1="88.836" y1="6.421" x2="88.836" y2="28.296"/>
				<path d="M88.836,32.521c-0.738-1.988-1.996-4.454-3.329-5.983l3.329,1.204l3.328-1.204
					C90.833,28.067,89.574,30.533,88.836,32.521z"/>
			</g>
			<g>
				<line style="fill:none;stroke:#000000;" x1="98.765" y1="3.171" x2="98.765" y2="28.734"/>
				<path d="M98.765,32.958c-0.738-1.988-1.997-4.454-3.329-5.983l3.329,1.204l3.328-1.204
					C100.761,28.504,99.502,30.97,98.765,32.958z"/>
			</g>
			<g>
				<line style="fill:none;stroke:#000000;" x1="108.693" y1="6.359" x2="108.693" y2="8.859"/>
				<path d="M108.693,13.083c-0.737-1.988-1.996-4.454-3.329-5.983l3.329,1.204l3.328-1.204
					C110.689,8.629,109.431,11.095,108.693,13.083z"/>
			</g>
			<g>
				<line style="fill:none;stroke:#000000;" x1="118.622" y1="2.921" x2="118.622" y2="8.984"/>
				<path d="M118.622,13.208c-0.737-1.988-1.997-4.454-3.329-5.983l3.329,1.204l3.328-1.204
					C120.618,8.754,119.359,11.22,118.622,13.208z"/>
			</g>
			<g>
				<g>
					<text transform="matrix(1 0 0 1 46.6221 148.0251)"><tspan x="0" y="0" style="font-family:Liberation Sans; font-size:7.650000;">A</tspan></text>
				</g>
			</g>
			<g>
				<g>
					<text transform="matrix(1 0 0 1 56.2456 148.0251)"><tspan x="0" y="0" style="font-family:Liberation Sans; font-size:7.650000;">B</tspan></text>
				</g>
			</g>
			<g>
				<g>
					<text transform="matrix(1 0 0 1 65.6221 148.0251)"><tspan x="0" y="0" style="font-family:Liberation Sans; font-size:7.650000;">C</tspan></text>
				</g>
			</g>
			<g>
				<g>
					<text transform="matrix(1 0 0 1 76.1221 42.1917)"><tspan x="0" y="0" style="font-family:Liberation Sans; font-size:7.650000;">D</tspan></text>
				</g>
			</g>
			<g>
				<g>
					<text transform="matrix(1 0 0 1 86.3691 42.1917)"><tspan x="0" y="0" style="font-family:Liberation Sans; font-size:7.650000;">E</tspan></text>
				</g>
			</g>
			<g>
				<g>
					<text transform="matrix(1 0 0 1 96.6221 42.1917)"><tspan x="0" y="0" style="font-family:Liberation Sans; font-size:7.650000;">F</tspan></text>
				</g>
			</g>
			<g>
				<g>
					<text transform="matrix(1 0 0 1 105.6221 21.3586)"><tspan x="0" y="0" style="font-family:Liberation Sans; font-size:7.650000;">G</tspan></text>
				</g>
			</g>
			<g>
				<g>
					<text transform="matrix(1 0 0 1 115.6221 21.3586)"><tspan x="0" y="0" style="font-family:Liberation Sans; font-size:7.650000;">H</tspan></text>
				</g>
			</g>
		</g>
		<rect y="73.585" style="fill:none;" width="147.401" height="2.834"/> 
	</g>
</svg>
