<?xml version="1.0" encoding="iso-8859-1"?>
<!-- Generator: Adobe Illustrator 11 Build 196, SVG Export Plug-In . SVG Version: 6.0.0 Build 78)  -->
<!DOCTYPE svg PUBLIC "-//W3C//DTD SVG 1.0//EN"    "http://www.w3.org/TR/2001/REC-SVG-20010904/DTD/svg10.dtd" [
	<!ENTITY ns_flows "http://ns.adobe.com/Flows/1.0/">
	<!ENTITY ns_svg "http://www.w3.org/2000/svg">
	<!ENTITY ns_xlink "http://www.w3.org/1999/xlink">
]>
<svg  
	 width="147.401" height="336.195" viewBox="0 0 147.401 336.195"
	 style="overflow:visible;enable-background:new 0 0 147.401 336.195" xml:space="preserve">
	<style type="text/css">
	
	</style>
	<g id="Layer_1">
		<line style="fill:none;stroke:#000000;stroke-width:0.5;" x1="144.797" y1="313.512" x2="54.797" y2="313.512"/>
		<line style="fill:none;stroke:#000000;" x1="54.797" y1="313.512" x2="54.797" y2="0.25"/>
		<line style="fill:none;stroke:#000000;stroke-width:0.5;" x1="64.798" y1="313.512" x2="64.798" y2="0.25"/>
		<line style="fill:none;stroke:#000000;" x1="74.798" y1="313.512" x2="74.798" y2="0.25"/>
		<line style="fill:none;stroke:#000000;stroke-width:0.5;" x1="84.799" y1="313.512" x2="84.799" y2="0.25"/>
		<line style="fill:none;stroke:#000000;" x1="94.8" y1="313.512" x2="94.8" y2="0.25"/>
		<line style="fill:none;stroke:#000000;stroke-width:0.5;" x1="104.8" y1="313.512" x2="104.8" y2="0.25"/>
		<line style="fill:none;stroke:#000000;" x1="114.801" y1="313.512" x2="114.801" y2="0.25"/>
		<line style="fill:none;stroke:#000000;stroke-width:0.5;" x1="124.802" y1="313.512" x2="124.802" y2="0.25"/>
		<line style="fill:none;stroke:#000000;" x1="134.802" y1="313.512" x2="134.802" y2="0.25"/>
		<line style="fill:none;stroke:#000000;stroke-width:0.5;" x1="144.803" y1="313.512" x2="144.803" y2="0.25"/>
		<line style="fill:none;stroke:#000000;stroke-width:0.5;" x1="54.797" y1="0.25" x2="144.797" y2="0.25"/>
		<line style="fill:none;stroke:#000000;stroke-width:0.5;" x1="54.797" y1="308.971" x2="144.797" y2="308.971"/>
		<line style="fill:none;stroke:#000000;stroke-width:0.5;" x1="54.797" y1="304.43" x2="144.797" y2="304.43"/>
		<line style="fill:none;stroke:#000000;stroke-width:0.5;" x1="54.797" y1="299.889" x2="144.797" y2="299.889"/>
		<line style="fill:none;stroke:#000000;stroke-width:0.5;" x1="54.797" y1="295.348" x2="144.797" y2="295.348"/>
		<line style="fill:none;stroke:#000000;" x1="54.797" y1="290.812" x2="144.797" y2="290.812"/>
		<line style="fill:none;stroke:#000000;stroke-width:0.5;" x1="54.797" y1="286.271" x2="144.797" y2="286.271"/>
		<line style="fill:none;stroke:#000000;stroke-width:0.5;" x1="54.797" y1="281.73" x2="144.797" y2="281.73"/>
		<line style="fill:none;stroke:#000000;stroke-width:0.5;" x1="54.797" y1="277.189" x2="144.797" y2="277.189"/>
		<line style="fill:none;stroke:#000000;stroke-width:0.5;" x1="54.797" y1="272.648" x2="144.797" y2="272.648"/>
		<line style="fill:none;stroke:#000000;" x1="54.797" y1="268.112" x2="144.797" y2="268.112"/>
		<line style="fill:none;stroke:#000000;stroke-width:0.5;" x1="54.797" y1="263.571" x2="144.797" y2="263.571"/>
		<line style="fill:none;stroke:#000000;stroke-width:0.5;" x1="54.797" y1="259.03" x2="144.797" y2="259.03"/>
		<line style="fill:none;stroke:#000000;stroke-width:0.5;" x1="54.797" y1="254.489" x2="144.797" y2="254.489"/>
		<line style="fill:none;stroke:#000000;stroke-width:0.5;" x1="54.797" y1="249.948" x2="144.797" y2="249.948"/>
		<line style="fill:none;stroke:#000000;" x1="54.797" y1="245.413" x2="144.797" y2="245.413"/>
		<line style="fill:none;stroke:#000000;stroke-width:0.5;" x1="54.797" y1="240.872" x2="144.797" y2="240.872"/>
		<line style="fill:none;stroke:#000000;stroke-width:0.5;" x1="54.797" y1="236.331" x2="144.797" y2="236.331"/>
		<line style="fill:none;stroke:#000000;stroke-width:0.5;" x1="54.797" y1="231.79" x2="144.797" y2="231.79"/>
		<line style="fill:none;stroke:#000000;stroke-width:0.5;" x1="54.797" y1="227.248" x2="144.797" y2="227.248"/>
		<line style="fill:none;stroke:#000000;" x1="54.797" y1="222.713" x2="144.797" y2="222.713"/>
		<line style="fill:none;stroke:#000000;stroke-width:0.5;" x1="54.797" y1="218.172" x2="144.797" y2="218.172"/>
		<line style="fill:none;stroke:#000000;stroke-width:0.5;" x1="54.797" y1="213.63" x2="144.797" y2="213.63"/>
		<line style="fill:none;stroke:#000000;stroke-width:0.5;" x1="54.797" y1="209.089" x2="144.797" y2="209.089"/>
		<line style="fill:none;stroke:#000000;stroke-width:0.5;" x1="54.797" y1="204.548" x2="144.797" y2="204.548"/>
		<line style="fill:none;stroke:#000000;" x1="54.797" y1="200.013" x2="144.797" y2="200.013"/>
		<line style="fill:none;stroke:#000000;stroke-width:0.5;" x1="54.797" y1="195.472" x2="144.797" y2="195.472"/>
		<line style="fill:none;stroke:#000000;stroke-width:0.5;" x1="54.797" y1="190.931" x2="144.797" y2="190.931"/>
		<line style="fill:none;stroke:#000000;stroke-width:0.5;" x1="54.797" y1="186.39" x2="144.797" y2="186.39"/>
		<line style="fill:none;stroke:#000000;stroke-width:0.5;" x1="54.797" y1="181.849" x2="144.797" y2="181.849"/>
		<line style="fill:none;stroke:#000000;" x1="54.797" y1="177.313" x2="144.797" y2="177.313"/>
		<line style="fill:none;stroke:#000000;stroke-width:0.5;" x1="54.797" y1="172.772" x2="144.797" y2="172.772"/>
		<line style="fill:none;stroke:#000000;stroke-width:0.5;" x1="54.797" y1="168.231" x2="144.797" y2="168.231"/>
		<line style="fill:none;stroke:#000000;stroke-width:0.5;" x1="54.797" y1="163.69" x2="144.797" y2="163.69"/>
		<line style="fill:none;stroke:#000000;stroke-width:0.5;" x1="54.797" y1="159.149" x2="144.797" y2="159.149"/>
		<line style="fill:none;stroke:#000000;" x1="54.797" y1="154.613" x2="144.797" y2="154.613"/>
		<line style="fill:none;stroke:#000000;stroke-width:0.5;" x1="54.797" y1="150.072" x2="144.797" y2="150.072"/>
		<line style="fill:none;stroke:#000000;stroke-width:0.5;" x1="54.797" y1="145.531" x2="144.797" y2="145.531"/>
		<line style="fill:none;stroke:#000000;stroke-width:0.5;" x1="54.797" y1="140.99" x2="144.797" y2="140.99"/>
		<line style="fill:none;stroke:#000000;stroke-width:0.5;" x1="54.797" y1="136.449" x2="144.797" y2="136.449"/>
		<line style="fill:none;stroke:#000000;" x1="54.797" y1="131.914" x2="144.797" y2="131.914"/>
		<line style="fill:none;stroke:#000000;stroke-width:0.5;" x1="54.797" y1="127.373" x2="144.797" y2="127.373"/>
		<line style="fill:none;stroke:#000000;stroke-width:0.5;" x1="54.797" y1="122.832" x2="144.797" y2="122.832"/>
		<line style="fill:none;stroke:#000000;stroke-width:0.5;" x1="54.797" y1="118.29" x2="144.797" y2="118.29"/>
		<line style="fill:none;stroke:#000000;stroke-width:0.5;" x1="54.797" y1="113.749" x2="144.797" y2="113.749"/>
		<line style="fill:none;stroke:#000000;" x1="54.797" y1="109.214" x2="144.797" y2="109.214"/>
		<line style="fill:none;stroke:#000000;stroke-width:0.5;" x1="54.797" y1="104.672" x2="144.797" y2="104.672"/>
		<line style="fill:none;stroke:#000000;stroke-width:0.5;" x1="54.797" y1="100.131" x2="144.797" y2="100.131"/>
		<line style="fill:none;stroke:#000000;stroke-width:0.5;" x1="54.797" y1="95.59" x2="144.797" y2="95.59"/>
		<line style="fill:none;stroke:#000000;stroke-width:0.5;" x1="54.797" y1="91.049" x2="144.797" y2="91.049"/>
		<line style="fill:none;stroke:#000000;" x1="54.797" y1="86.514" x2="144.797" y2="86.514"/>
		<line style="fill:none;stroke:#000000;stroke-width:0.5;" x1="54.797" y1="81.973" x2="144.797" y2="81.973"/>
		<line style="fill:none;stroke:#000000;stroke-width:0.5;" x1="54.797" y1="77.432" x2="144.797" y2="77.432"/>
		<line style="fill:none;stroke:#000000;stroke-width:0.5;" x1="54.797" y1="72.891" x2="144.797" y2="72.891"/>
		<line style="fill:none;stroke:#000000;stroke-width:0.5;" x1="54.797" y1="68.35" x2="144.797" y2="68.35"/>
		<line style="fill:none;stroke:#000000;" x1="54.797" y1="63.814" x2="144.797" y2="63.814"/>
		<line style="fill:none;stroke:#000000;stroke-width:0.5;" x1="54.797" y1="59.273" x2="144.797" y2="59.273"/>
		<line style="fill:none;stroke:#000000;stroke-width:0.5;" x1="54.797" y1="54.732" x2="144.797" y2="54.732"/>
		<line style="fill:none;stroke:#000000;stroke-width:0.5;" x1="54.797" y1="50.191" x2="144.797" y2="50.191"/>
		<line style="fill:none;stroke:#000000;stroke-width:0.5;" x1="54.797" y1="45.649" x2="144.797" y2="45.649"/>
		<line style="fill:none;stroke:#000000;" x1="54.797" y1="41.114" x2="144.797" y2="41.114"/>
		<line style="fill:none;stroke:#000000;stroke-width:0.5;" x1="54.797" y1="36.573" x2="144.797" y2="36.573"/>
		<line style="fill:none;stroke:#000000;stroke-width:0.5;" x1="54.797" y1="32.032" x2="144.797" y2="32.032"/>
		<line style="fill:none;stroke:#000000;stroke-width:0.5;" x1="54.797" y1="27.491" x2="144.797" y2="27.491"/>
		<line style="fill:none;stroke:#000000;stroke-width:0.5;" x1="54.797" y1="22.95" x2="144.797" y2="22.95"/>
		<line style="fill:none;stroke:#000000;" x1="54.797" y1="18.415" x2="144.797" y2="18.415"/>
		<line style="fill:none;stroke:#000000;stroke-width:0.5;" x1="54.797" y1="13.874" x2="144.797" y2="13.874"/>
		<line style="fill:none;stroke:#000000;stroke-width:0.5;" x1="54.797" y1="9.332" x2="144.797" y2="9.332"/>
		<line style="fill:none;stroke:#000000;stroke-width:0.5;" x1="54.797" y1="4.791" x2="144.797" y2="4.791"/>
		<circle cx="55.131" cy="2.589" r="2.475"/> 
		<circle cx="65.131" cy="40.845" r="2.475"/> 
		<circle cx="75.131" cy="73.845" r="2.475"/> 
		<circle cx="85.297" cy="102.845" r="2.475"/> 
		<circle cx="95.339" cy="128.137" r="2.475"/> 
		<circle cx="105.262" cy="150.845" r="2.475"/> 
		<circle cx="115.131" cy="170.845" r="2.475"/> 
		<circle cx="124.928" cy="187.845" r="2.475"/> 
		<circle cx="134.964" cy="202.845" r="2.475"/> 
		<circle cx="144.797" cy="216.845" r="2.475"/> 
		<g>
			<g>
				<text transform="matrix(1 0 0 1 40.1309 314.8457)"><tspan x="0" y="0" style="font-family:Liberation Sans; font-size:7.650000;">0.0</tspan></text>
			</g>
		</g>
		<g>
			<g>
				<text transform="matrix(1 0 0 1 40.1309 292.2451)"><tspan x="0" y="0" style="font-family:Liberation Sans; font-size:7.650000;">0.1</tspan></text>
			</g>
		</g>
		<g>
			<g>
				<text transform="matrix(1 0 0 1 40.1309 269.644)"><tspan x="0" y="0" style="font-family:Liberation Sans; font-size:7.650000;">0.2</tspan></text>
			</g>
		</g>
		<g>
			<g>
				<text transform="matrix(1 0 0 1 40.1309 247.0435)"><tspan x="0" y="0" style="font-family:Liberation Sans; font-size:7.650000;">0.3</tspan></text>
			</g>
		</g>
		<g>
			<g>
				<text transform="matrix(1 0 0 1 40.1309 224.4429)"><tspan x="0" y="0" style="font-family:Liberation Sans; font-size:7.650000;">0.4</tspan></text>
			</g>
		</g>
		<g>
			<g>
				<text transform="matrix(1 0 0 1 40.1309 201.8423)"><tspan x="0" y="0" style="font-family:Liberation Sans; font-size:7.650000;">0.5</tspan></text>
			</g>
		</g>
		<g>
			<g>
				<text transform="matrix(1 0 0 1 40.1309 179.2417)"><tspan x="0" y="0" style="font-family:Liberation Sans; font-size:7.650000;">0.6</tspan></text>
			</g>
		</g>
		<g>
			<g>
				<text transform="matrix(1 0 0 1 40.1309 156.6411)"><tspan x="0" y="0" style="font-family:Liberation Sans; font-size:7.650000;">0.7</tspan></text>
			</g>
		</g>
		<g>
			<g>
				<text transform="matrix(1 0 0 1 40.1309 134.0405)"><tspan x="0" y="0" style="font-family:Liberation Sans; font-size:7.650000;">0.8</tspan></text>
			</g>
		</g>
		<g>
			<g>
				<text transform="matrix(1 0 0 1 40.1309 111.4399)"><tspan x="0" y="0" style="font-family:Liberation Sans; font-size:7.650000;">0.9</tspan></text>
			</g>
		</g>
		<g>
			<g>
				<text transform="matrix(1 0 0 1 40.1309 88.8394)"><tspan x="0" y="0" style="font-family:Liberation Sans; font-size:7.650000;">1.0</tspan></text>
			</g>
		</g>
		<g>
			<g>
				<text transform="matrix(1 0 0 1 40.1309 66.2383)"><tspan x="0" y="0" style="font-family:Liberation Sans; font-size:7.650000;">1.1</tspan></text>
			</g>
		</g>
		<g>
			<g>
				<text transform="matrix(1 0 0 1 40.1309 43.6377)"><tspan x="0" y="0" style="font-family:Liberation Sans; font-size:7.650000;">1.2</tspan></text>
			</g>
		</g>
		<g>
			<g>
				<text transform="matrix(1 0 0 1 40.1309 21.0371)"><tspan x="0" y="0" style="font-family:Liberation Sans; font-size:7.650000;">1.3</tspan></text>
			</g>
		</g>
		<g>
			<g>
				<text transform="matrix(1 0 0 1 52.4639 322.1123)"><tspan x="0" y="0" style="font-family:Liberation Sans; font-size:7.650000;">0</tspan></text>
			</g>
		</g>
		<g>
			<g>
				<text transform="matrix(1 0 0 1 70.0879 322.1123)"><tspan x="0" y="0" style="font-family:Liberation Sans; font-size:7.650000;">10</tspan></text>
			</g>
		</g>
		<g>
			<g>
				<text transform="matrix(1 0 0 1 90.2134 322.1123)"><tspan x="0" y="0" style="font-family:Liberation Sans; font-size:7.650000;">20</tspan></text>
			</g>
		</g>
		<g>
			<g>
				<text transform="matrix(1 0 0 1 110.3389 322.1123)"><tspan x="0" y="0" style="font-family:Liberation Sans; font-size:7.650000;">30</tspan></text>
			</g>
		</g>
		<g>
			<g>
				<text transform="matrix(1 0 0 1 130.4639 322.1123)"><tspan x="0" y="0" style="font-family:Liberation Sans; font-size:7.650000;">40</tspan></text>
			</g>
		</g>
		<g>
			<g>
				<text transform="matrix(1 0 0 1 68.4639 332.1787)"><tspan x="0" y="0" style="font-family:Liberation Sans; font-size:7.650000;">time (minutes)</tspan></text>
			</g>
		</g>
		<g>
			<g>
				<text transform="matrix(1 0 0 1 6.6318 146.8457)"><tspan x="0" y="0" style="font-family:Liberation Sans; font-size:7.650000;">activity</tspan></text>
			</g>
			<g>
				<text transform="matrix(1 0 0 1 1.145 157.8457)"><tspan x="0" y="0" style="font-family:Liberation Sans; font-size:7.650000;">(millions</tspan></text>
			</g>
			<g>
				<text transform="matrix(1 0 0 1 11.1255 168.8457)"><tspan x="0" y="0" style="font-family:Liberation Sans; font-size:7.650000;">of de-</tspan></text>
			</g>
			<g>
				<text transform="matrix(1 0 0 1 0.126 179.8457)"><tspan x="0" y="0" style="font-family:Liberation Sans; font-size:7.650000;">cays per</tspan></text>
			</g>
			<g>
				<text transform="matrix(1 0 0 1 2.123 190.8457)"><tspan x="0" y="0" style="font-family:Liberation Sans; font-size:7.650000;">second)</tspan></text>
			</g>
		</g>
		<rect y="216.969" style="fill:none;" width="147.401" height="2.834"/> 
	</g>
</svg>
