<?xml version="1.0" encoding="iso-8859-1"?>
<!-- Generator: Adobe Illustrator 11 Build 196, SVG Export Plug-In . SVG Version: 6.0.0 Build 78)  -->
<!DOCTYPE svg PUBLIC "-//W3C//DTD SVG 1.0//EN"    "http://www.w3.org/TR/2001/REC-SVG-20010904/DTD/svg10.dtd" [
	<!ENTITY ns_flows "http://ns.adobe.com/Flows/1.0/">
	<!ENTITY ns_svg "http://www.w3.org/2000/svg">
	<!ENTITY ns_xlink "http://www.w3.org/1999/xlink">
]>
<svg  
	 width="147.401" height="171.017" viewBox="0 0 147.401 171.017"
	 style="overflow:visible;enable-background:new 0 0 147.401 171.017" xml:space="preserve">
	<style type="text/css">
	
	</style>
	<g id="Layer_1">
		<g>
			<line style="fill:none;stroke:#000000;stroke-width:0.5;" x1="38.626" y1="16.417" x2="135.226" y2="16.417"/>
			<line style="fill:none;stroke:#000000;stroke-width:0.5;" x1="38.626" y1="16.758" x2="135.226" y2="16.758"/>
			<line style="fill:none;stroke:#000000;stroke-width:0.5;" x1="38.626" y1="17.211" x2="135.226" y2="17.211"/>
			<line style="fill:none;stroke:#000000;stroke-width:0.5;" x1="38.626" y1="17.891" x2="135.226" y2="17.891"/>
			<line style="fill:none;stroke:#000000;stroke-width:0.5;" x1="38.626" y1="18.94" x2="135.226" y2="18.94"/>
			<line style="fill:none;stroke:#000000;stroke-width:0.5;" x1="38.626" y1="20.669" x2="135.226" y2="20.669"/>
			<line style="fill:none;stroke:#000000;stroke-width:0.5;" x1="38.626" y1="23.858" x2="135.226" y2="23.858"/>
			<line style="fill:none;stroke:#000000;stroke-width:0.5;" x1="38.626" y1="30.746" x2="135.226" y2="30.746"/>
			<line style="fill:none;stroke:#000000;stroke-width:0.5;" x1="38.626" y1="50.433" x2="135.226" y2="50.433"/>
			<line style="fill:none;stroke:#000000;stroke-width:0.5;" x1="38.626" y1="156.732" x2="135.226" y2="156.732"/>
			
				<linearGradient id="XMLID_15_" gradientUnits="userSpaceOnUse" x1="-33.4854" y1="79.7576" x2="-33.4854" y2="57.0076" gradientTransform="matrix(0.7 0 0 1 110.3657 -60.2573)">
				<stop  offset="0" style="stop-color:#FFFFFF"/>
				<stop  offset="1" style="stop-color:#000000"/>
				<midPointStop  offset="0" style="stop-color:#FFFFFF"/>
				<midPointStop  offset="0.5" style="stop-color:#FFFFFF"/>
				<midPointStop  offset="1" style="stop-color:#000000"/>
			</linearGradient>
			<rect x="38.451" y="0.312" style="fill:url(#XMLID_15_);" width="96.95" height="16"/> 
			<g>
				<text transform="matrix(1 0 0 1 56.1611 8.9998)"><tspan x="0" y="0" style="fill:#FFFFFF; font-family:Liberation Sans; font-size:7.650000;">unbound states</tspan></text>
			</g>
			<g>
				<line style="fill:none;stroke:#000000;stroke-width:0.75;" x1="25.466" y1="145" x2="25.466" y2="56"/>
				<path d="M25.466,52.379c0.632,1.704,1.711,3.818,2.853,5.128l-2.853-1.032l-2.853,1.032
					C23.755,56.197,24.834,54.083,25.466,52.379z"/>
			</g>
			<g>
				<text transform="matrix(0 -1 1 0 20.46 117.5139)"><tspan x="0" y="0" style="font-family:Liberation Sans; font-size:7.650000;">energy</tspan></text>
			</g>
			<g>
				<text transform="matrix(1 0 0 1 79.2949 167.0002)"><tspan x="0" y="0" style="font-family:Liberation Sans; font-size:7.650000;">n=1</tspan></text>
			</g>
			<g>
				<text transform="matrix(1 0 0 1 79.2949 64.24)"><tspan x="0" y="0" style="font-family:Liberation Sans; font-size:7.650000;">n=2</tspan></text>
			</g>
			<g>
				<text transform="matrix(1 0 0 1 79.2949 40.24)"><tspan x="0" y="0" style="font-family:Liberation Sans; font-size:7.650000;">n=3</tspan></text>
			</g>
		</g>
		<rect y="83.229" style="fill:none;" width="147.401" height="2.834"/> 
	</g>
</svg>
