<?xml version="1.0" encoding="UTF-8" standalone="no"?>
<svg
   xmlns:dc="http://purl.org/dc/elements/1.1/"
   xmlns:cc="http://creativecommons.org/ns#"
   xmlns:rdf="http://www.w3.org/1999/02/22-rdf-syntax-ns#"
   xmlns:svg="http://www.w3.org/2000/svg"
   xmlns="http://www.w3.org/2000/svg"
   xmlns:xlink="http://www.w3.org/1999/xlink"
   xmlns:sodipodi="http://sodipodi.sourceforge.net/DTD/sodipodi-0.dtd"
   xmlns:inkscape="http://www.inkscape.org/namespaces/inkscape"
   width="100%"
   height="100%"
   viewBox="140 65 320 275"
   id="svg2"
   version="1.1"
   sodipodi:docname="laplacian-geometrical.svg">
  <metadata
     id="metadata2730">
    <rdf:RDF>
      <cc:Work
         rdf:about="">
        <dc:format>image/svg+xml</dc:format>
        <dc:type
           rdf:resource="http://purl.org/dc/dcmitype/StillImage" />
        <dc:title></dc:title>
      </cc:Work>
    </rdf:RDF>
  </metadata>
  <sodipodi:namedview
     pagecolor="#ffffff"
     bordercolor="#666666"
     borderopacity="1"
     objecttolerance="10"
     gridtolerance="10"
     guidetolerance="10"
     inkscape:pageopacity="0"
     inkscape:pageshadow="2"
     inkscape:window-width="1280"
     inkscape:window-height="996"
     id="namedview2728"
     showgrid="false"
     inkscape:zoom="0.83761882"
     inkscape:cx="-125.61236"
     inkscape:cy="272.81744"
     inkscape:window-x="0"
     inkscape:window-y="0"
     inkscape:window-maximized="1"
     inkscape:current-layer="svg2" />
  <desc
     id="desc4">Produced by GNUPLOT 4.4 patchlevel 2 </desc>
  <defs
     id="defs6">
    <circle
       id="gpDot"
       r="0.5"
       stroke-width="0.5" />
    <path
       id="gpPt0"
       stroke-width="0.222"
       stroke="currentColor"
       d="M-1,0 h2 M0,-1 v2" />
    <path
       id="gpPt1"
       stroke-width="0.222"
       stroke="currentColor"
       d="M-1,-1 L1,1 M1,-1 L-1,1" />
    <path
       id="gpPt2"
       stroke-width="0.222"
       stroke="currentColor"
       d="M-1,0 L1,0 M0,-1 L0,1 M-1,-1 L1,1 M-1,1 L1,-1" />
    <rect
       id="gpPt3"
       stroke-width="0.222"
       stroke="currentColor"
       x="-1"
       y="-1"
       width="2"
       height="2" />
    <rect
       id="gpPt4"
       stroke-width="0.222"
       stroke="currentColor"
       fill="currentColor"
       x="-1"
       y="-1"
       width="2"
       height="2" />
    <circle
       id="gpPt5"
       stroke-width="0.222"
       stroke="currentColor"
       cx="0"
       cy="0"
       r="1" />
    <use
       xlink:href="#gpPt5"
       id="gpPt6"
       fill="currentColor"
       stroke="none" />
    <path
       id="gpPt7"
       stroke-width="0.222"
       stroke="currentColor"
       d="M0,-1.33 L-1.33,0.67 L1.33,0.67 z" />
    <use
       xlink:href="#gpPt7"
       id="gpPt8"
       fill="currentColor"
       stroke="none" />
    <use
       xlink:href="#gpPt7"
       id="gpPt9"
       stroke="currentColor"
       transform="rotate(180)" />
    <use
       xlink:href="#gpPt9"
       id="gpPt10"
       fill="currentColor"
       stroke="none" />
    <use
       xlink:href="#gpPt3"
       id="gpPt11"
       stroke="currentColor"
       transform="rotate(45)" />
    <use
       xlink:href="#gpPt11"
       id="gpPt12"
       fill="currentColor"
       stroke="none" />
  </defs>
  <g
     style="color:#ffffff;fill:none;stroke:currentColor;stroke-width:1;stroke-linecap:butt;stroke-linejoin:miter"
     id="g22"
     transform="matrix(0.58161598,0,0,0.58161598,-101.89553,-95.788771)" />
  <g
     style="color:#000000;fill:none;stroke:currentColor;stroke-width:1;stroke-linecap:butt;stroke-linejoin:miter"
     id="g24"
     transform="matrix(0.58161598,0,0,0.58161598,-101.89553,-95.788771)" />
  <g
     id="g7117"
     transform="matrix(0.87047231,0,0,0.87047231,-4.3795005,46.079152)">
    <rect
       y="-65.06459"
       x="-33.811306"
       height="174.45648"
       width="211.66896"
       id="rect6936-5"
       style="fill:#dedede;fill-opacity:1;stroke:none" />
    <g
       transform="translate(-1.2442158,0)"
       id="g7073">
      <path
         style="color:#000000;fill:#959595;fill-opacity:1;stroke:#000000;stroke-width:2.125;stroke-linecap:butt;stroke-linejoin:miter;stroke-miterlimit:4;stroke-opacity:1;stroke-dasharray:none;stroke-dashoffset:0;marker:none;visibility:visible;display:inline;overflow:visible;enable-background:accumulate"
         d="m -17.125,-16.343671 c 0,0 45.30952,114.91435 90.65939,115.06909 0.0305,0 0.0603,1.1e-4 0.0909,0 45.34987,-0.15474 90.67757,-115.06909 90.67757,-115.06909 l -90.71392,7.8203703 z"
         id="path6542"
         inkscape:connector-curvature="0"
         sodipodi:nodetypes="cccccc" />
      <path
         sodipodi:type="arc"
         style="fill:#e9e9e9;fill-opacity:1;stroke:#000000;stroke-width:3.65361357;stroke-linejoin:miter;stroke-miterlimit:4;stroke-opacity:1;stroke-dasharray:none;stroke-dashoffset:0"
         id="path5772"
         sodipodi:cx="161.15826"
         sodipodi:cy="65.540695"
         sodipodi:rx="156.51393"
         sodipodi:ry="59.911861"
         d="m 317.6722,65.540695 c 0,33.088408 -70.07368,59.911865 -156.51394,59.911865 -86.440253,0 -156.5139271,-26.823457 -156.5139271,-59.911865 0,-33.088407 70.0736741,-59.9118612 156.5139271,-59.9118612 86.44026,0 156.51394,26.8234542 156.51394,59.9118612 z"
         transform="matrix(0.58161598,0,0,0.58161598,-20.4693,-57.983731)" />
      <path
         style="color:#000000;fill:none;stroke:#000000;stroke-width:2.125;stroke-linecap:butt;stroke-linejoin:miter;stroke-miterlimit:4;stroke-opacity:1;stroke-dasharray:none;stroke-dashoffset:0;marker:none;visibility:visible;display:inline;overflow:visible;enable-background:accumulate"
         d="M 2.5703297,1.9692893 C 27.83534,73.081689 45.79277,85.685349 45.79277,85.685349"
         id="path6568"
         inkscape:connector-curvature="0"
         sodipodi:nodetypes="cc" />
      <path
         style="color:#000000;fill:none;stroke:#000000;stroke-width:2.125;stroke-linecap:butt;stroke-linejoin:miter;stroke-miterlimit:4;stroke-opacity:1;stroke-dasharray:none;stroke-dashoffset:0;marker:none;visibility:visible;display:inline;overflow:visible;enable-background:accumulate"
         d="m 146.72871,-40.432831 c -7.02317,28.09265 -14.62472,46.9860803 -14.62472,46.9860803"
         id="path6570"
         inkscape:connector-curvature="0"
         sodipodi:nodetypes="cc" />
      <path
         style="color:#000000;fill:none;stroke:#000000;stroke-width:2.125;stroke-linecap:butt;stroke-linejoin:miter;stroke-miterlimit:4;stroke-opacity:1;stroke-dasharray:none;stroke-dashoffset:0;marker:none;visibility:visible;display:inline;overflow:visible;enable-background:accumulate"
         d="M 0.76697973,-41.077471 C 7.7901397,-12.984811 17.84864,7.7990993 17.84864,7.7990993"
         id="path6570-0"
         inkscape:connector-curvature="0"
         sodipodi:nodetypes="cc" />
      <path
         style="color:#000000;fill:none;stroke:#000000;stroke-width:2.125;stroke-linecap:butt;stroke-linejoin:miter;stroke-miterlimit:4;stroke-opacity:1;stroke-dasharray:none;stroke-dashoffset:0;marker:none;visibility:visible;display:inline;overflow:visible;enable-background:accumulate"
         d="M 144.73711,2.3179393 C 119.4721,73.430329 101.32035,85.937049 101.32035,85.937049"
         id="path6568-3"
         inkscape:connector-curvature="0"
         sodipodi:nodetypes="cc" />
      <path
         style="color:#000000;fill:none;stroke:#272727;stroke-width:0.75;stroke-linecap:butt;stroke-linejoin:miter;stroke-miterlimit:4;stroke-opacity:1;stroke-dasharray:none;stroke-dashoffset:0;marker:none;visibility:visible;display:inline;overflow:visible;enable-background:accumulate"
         d="M 18.30651,9.6586947 C 41.26187,67.929994 57.88794,80.771089 70.68997,87.392839 c 8.4938,4.39334 19.78068,3.01914 22.82254,1.78866 7.75429,-3.13671 12.71412,-7.96895 12.71412,-7.96895"
         id="path6650"
         inkscape:connector-curvature="0"
         sodipodi:nodetypes="cssc" />
      <path
         style="color:#000000;fill:none;stroke:#272727;stroke-width:0.75;stroke-linecap:butt;stroke-linejoin:miter;stroke-miterlimit:4;stroke-opacity:1;stroke-dasharray:none;stroke-dashoffset:0;marker:none;visibility:visible;display:inline;overflow:visible;enable-background:accumulate"
         d="M 131.33195,8.4113546 C 108.37659,66.682654 90.85028,81.238869 78.04825,87.860609 c -8.49381,4.39335 -19.78068,3.01914 -22.82255,1.78867 -7.75428,-3.13671 -12.71411,-7.96896 -12.71411,-7.96896"
         id="path6650-6"
         inkscape:connector-curvature="0"
         sodipodi:nodetypes="cssc" />
      <path
         sodipodi:type="arc"
         style="fill:#000000;fill-opacity:1;stroke:none"
         id="path6750-7"
         sodipodi:cx="-260.00964"
         sodipodi:cy="-92.023239"
         sodipodi:rx="3.3441753"
         sodipodi:ry="3.3441753"
         d="m -256.66547,-92.023239 c 0,1.846937 -1.49724,3.344175 -3.34417,3.344175 -1.84694,0 -3.34418,-1.497238 -3.34418,-3.344175 0,-1.846937 1.49724,-3.344175 3.34418,-3.344175 1.84693,0 3.34417,1.497238 3.34417,3.344175 z"
         transform="translate(260.49663,50.785324)" />
      <path
         sodipodi:type="arc"
         style="fill:#000000;fill-opacity:1;stroke:none"
         id="path6750-2"
         sodipodi:cx="-260.00964"
         sodipodi:cy="-92.023239"
         sodipodi:rx="3.3441753"
         sodipodi:ry="3.3441753"
         d="m -256.66547,-92.023239 c 0,1.846937 -1.49724,3.344175 -3.34417,3.344175 -1.84694,0 -3.34418,-1.497238 -3.34418,-3.344175 0,-1.846937 1.49724,-3.344175 3.34418,-3.344175 1.84693,0 3.34417,1.497238 3.34417,3.344175 z"
         transform="translate(262.47995,94.157146)" />
      <path
         sodipodi:type="arc"
         style="fill:#000000;fill-opacity:1;stroke:none"
         id="path6750-6"
         sodipodi:cx="-260.00964"
         sodipodi:cy="-92.023239"
         sodipodi:rx="3.3441753"
         sodipodi:ry="3.3441753"
         d="m -256.66547,-92.023239 c 0,1.846937 -1.49724,3.344175 -3.34417,3.344175 -1.84694,0 -3.34418,-1.497238 -3.34418,-3.344175 0,-1.846937 1.49724,-3.344175 3.34418,-3.344175 1.84693,0 3.34417,1.497238 3.34417,3.344175 z"
         transform="translate(406.77931,51.835896)" />
      <path
         sodipodi:type="arc"
         style="fill:#000000;fill-opacity:1;stroke:none"
         id="path6750-13"
         sodipodi:cx="-260.00964"
         sodipodi:cy="-92.023239"
         sodipodi:rx="3.3441753"
         sodipodi:ry="3.3441753"
         d="m -256.66547,-92.023239 c 0,1.846937 -1.49724,3.344175 -3.34417,3.344175 -1.84694,0 -3.34418,-1.497238 -3.34418,-3.344175 0,-1.846937 1.49724,-3.344175 3.34418,-3.344175 1.84693,0 3.34417,1.497238 3.34417,3.344175 z"
         transform="translate(405.24276,92.779187)" />
    </g>
    <text
       sodipodi:linespacing="125%"
       id="text6893"
       y="-13.982221"
       x="60.110641"
       style="font-size:10px;font-style:normal;font-variant:normal;font-weight:normal;font-stretch:normal;text-indent:0;text-align:start;text-decoration:none;line-height:125%;letter-spacing:0px;word-spacing:0px;text-transform:none;direction:ltr;block-progression:tb;writing-mode:lr-tb;text-anchor:start;baseline-shift:baseline;color:#000000;fill:#000000;fill-opacity:1;fill-rule:nonzero;stroke:none;stroke-width:1.24999988px;marker:none;visibility:visible;display:inline;overflow:visible;enable-background:accumulate;font-family:Liberation Sans;-inkscape-font-specification:Liberation Sans"
       xml:space="preserve"><tspan
         style="font-size:12px"
         y="-13.982221"
         x="60.110641"
         id="tspan6895"
         sodipodi:role="line">∇<tspan
   id="tspan6897"
   style="font-size:10px;baseline-shift:super">2</tspan><tspan
   id="tspan6901"
   style="font-style:italic;-inkscape-font-specification:Liberation Sans Italic">A</tspan>&gt;0</tspan></text>
  </g>
  <g
     id="g7099"
     transform="matrix(0.87047231,0,0,0.87047231,-4.3795005,37.648091)">
    <rect
       y="132.05304"
       x="-33.811306"
       height="241.55692"
       width="211.66896"
       id="rect6936-5-3"
       style="fill:#dedede;fill-opacity:1;stroke:none" />
    <g
       transform="translate(-1.244211,0)"
       id="g7087">
      <path
         style="color:#000000;fill:#959595;fill-opacity:1;stroke:#000000;stroke-width:2.125;stroke-linecap:butt;stroke-linejoin:miter;stroke-miterlimit:4;stroke-opacity:1;stroke-dasharray:none;stroke-dashoffset:0;marker:none;visibility:visible;display:inline;overflow:visible;enable-background:accumulate"
         d="m 103.17633,279.43875 c 0,0 2.61228,1.37736 4.87021,1.45897 1.93208,0.0698 5.49764,-0.28768 10.94394,-4.58531 5.90097,-4.65641 10.33652,-11.41605 18.51668,-30.76854 8.33556,-19.72012 13.07513,-50.84661 12.46375,-54.82055 -0.61137,-3.97395 -3.37473,-2.5185 -6.7373,2.37251 -3.36257,4.89101 -11.61614,22.00953 -28.12329,59.30346 C 98.60317,289.69322 78.19055,334.37146 60.90885,351.6963 46.55618,366.08478 32.40912,359.79051 25.5522,348.51002 10.98514,324.54542 0.17166,280.82827 -2.88522,222.13619 -5.9421,163.4441 3.22287,151.85496 10.85857,152.17014 c 15.55703,0.64216 48.84081,71.86139 51.97911,76.0798 3.13831,4.21841 5.54073,7.98627 10.39339,11.61615 10.27239,7.68394 20.56272,7.6057 28.57143,3.26878 7.43478,-4.02612 16.49862,-13.93975 20.71379,-19.44591 4.86508,-6.35514 16.51068,-23.37827 16.51068,-23.37827"
         id="path6670"
         inkscape:connector-curvature="0"
         sodipodi:nodetypes="csssssssssszsssc" />
      <path
         style="color:#000000;fill:#e9e9e9;fill-opacity:1;stroke:#000000;stroke-width:2.125;stroke-linecap:butt;stroke-linejoin:miter;stroke-miterlimit:4;stroke-opacity:1;stroke-dasharray:none;stroke-dashoffset:0;marker:none;visibility:visible;display:inline;overflow:visible;enable-background:accumulate"
         d="m 143.23362,193.09582 c -3.36257,4.89101 -11.61615,22.00953 -28.1233,59.30346 C 98.60318,289.69321 78.19056,334.37145 60.90885,351.69629 46.55619,366.08477 32.40912,359.7905 25.5522,348.51001 10.98514,324.54541 0.17166,280.82826 -2.88522,222.13618 -5.9421,163.4441 3.22287,151.85495 10.85857,152.17014 c 15.55703,0.64215 48.84081,71.86138 51.97912,76.07979 3.1383,4.21841 5.54072,7.98627 10.39339,11.61615 10.27238,7.68394 20.56271,7.6057 28.57142,3.26878 7.43478,-4.02612 16.49863,-13.93975 20.71379,-19.44591 4.86508,-6.35514 16.51068,-23.37827 16.51068,-23.37827"
         id="path6670-9"
         inkscape:connector-curvature="0" />
      <path
         style="color:#000000;fill:none;stroke:#000000;stroke-width:2.125;stroke-linecap:butt;stroke-linejoin:miter;stroke-miterlimit:4;stroke-opacity:1;stroke-dasharray:none;stroke-dashoffset:0;marker:none;visibility:visible;display:inline;overflow:visible;enable-background:accumulate"
         d="m 36.46974,357.57161 c 9.930302,-57.12613 26.567025,-98.55636 33.825121,-106.9107 7.437874,-8.56127 12.207904,-5.98296 12.207904,-5.98296"
         id="path6701"
         inkscape:connector-curvature="0"
         sodipodi:nodetypes="csc" />
      <path
         style="color:#000000;fill:none;stroke:#000000;stroke-width:2.125;stroke-linecap:butt;stroke-linejoin:miter;stroke-miterlimit:4;stroke-opacity:1;stroke-dasharray:none;stroke-dashoffset:0;marker:none;visibility:visible;display:inline;overflow:visible;enable-background:accumulate"
         d="m 106.81785,270.93818 c 2.40835,4.8167 4.38286,10.44722 4.38286,10.44722"
         id="path6703"
         inkscape:connector-curvature="0"
         sodipodi:nodetypes="cc" />
      <path
         style="color:#000000;fill:none;stroke:#272727;stroke-width:0.75;stroke-linecap:butt;stroke-linejoin:miter;stroke-miterlimit:4;stroke-opacity:1;stroke-dasharray:none;stroke-dashoffset:0;marker:none;visibility:visible;display:inline;overflow:visible;enable-background:accumulate"
         d="m 83.46107,245.04979 c 11.84986,3.66718 22.62809,24.41881 22.62809,24.41881"
         id="path6705"
         inkscape:connector-curvature="0"
         sodipodi:nodetypes="cc" />
      <path
         sodipodi:type="arc"
         style="fill:#000000;fill-opacity:1;stroke:none"
         id="path6750-5"
         sodipodi:cx="-260.00964"
         sodipodi:cy="-92.023239"
         sodipodi:rx="3.3441753"
         sodipodi:ry="3.3441753"
         d="m -256.66547,-92.023239 c 0,1.846937 -1.49724,3.344175 -3.34417,3.344175 -1.84694,0 -3.34418,-1.497238 -3.34418,-3.344175 0,-1.846937 1.49724,-3.344175 3.34418,-3.344175 1.84693,0 3.34417,1.497238 3.34417,3.344175 z"
         transform="translate(271.32455,244.21104)" />
      <path
         sodipodi:type="arc"
         style="fill:#000000;fill-opacity:1;stroke:none"
         id="path6750-24"
         sodipodi:cx="-260.00964"
         sodipodi:cy="-92.023239"
         sodipodi:rx="3.3441753"
         sodipodi:ry="3.3441753"
         d="m -256.66547,-92.023239 c 0,1.846937 -1.49724,3.344175 -3.34417,3.344175 -1.84694,0 -3.34418,-1.497238 -3.34418,-3.344175 0,-1.846937 1.49724,-3.344175 3.34418,-3.344175 1.84693,0 3.34417,1.497238 3.34417,3.344175 z"
         transform="translate(296.94341,449.34041)" />
      <path
         sodipodi:type="arc"
         style="fill:#000000;fill-opacity:1;stroke:none"
         id="path6750-131"
         sodipodi:cx="-260.00964"
         sodipodi:cy="-92.023239"
         sodipodi:rx="3.3441753"
         sodipodi:ry="3.3441753"
         d="m -256.66547,-92.023239 c 0,1.846937 -1.49724,3.344175 -3.34417,3.344175 -1.84694,0 -3.34418,-1.497238 -3.34418,-3.344175 0,-1.846937 1.49724,-3.344175 3.34418,-3.344175 1.84693,0 3.34417,1.497238 3.34417,3.344175 z"
         transform="translate(371.11228,372.66329)" />
      <path
         sodipodi:type="arc"
         style="fill:#000000;fill-opacity:1;stroke:none"
         id="path6750-3"
         sodipodi:cx="-260.00964"
         sodipodi:cy="-92.023239"
         sodipodi:rx="3.3441753"
         sodipodi:ry="3.3441753"
         d="m -256.66547,-92.023239 c 0,1.846937 -1.49724,3.344175 -3.34417,3.344175 -1.84694,0 -3.34418,-1.497238 -3.34418,-3.344175 0,-1.846937 1.49724,-3.344175 3.34418,-3.344175 1.84693,0 3.34417,1.497238 3.34417,3.344175 z"
         transform="translate(407.36092,279.98162)" />
      <path
         style="color:#000000;fill:none;stroke:#000000;stroke-width:2.125;stroke-linecap:butt;stroke-linejoin:miter;stroke-miterlimit:4;stroke-opacity:1;stroke-dasharray:none;stroke-dashoffset:0;marker:none;visibility:visible;display:inline;overflow:visible;enable-background:accumulate"
         d="m 11.04753,152.33204 c 22.18552,50.91206 39.321823,89.9195 61.41289,98.74229 13.857646,5.53451 42.35281,-11.83503 50.17995,-25.68303 7.82713,-13.84801 22.93904,-36.2254 22.93904,-36.2254"
         id="path6699"
         inkscape:connector-curvature="0"
         sodipodi:nodetypes="cssc" />
    </g>
    <text
       sodipodi:linespacing="125%"
       id="text6893-4"
       y="196.35651"
       x="58.552025"
       style="font-size:10px;font-style:normal;font-variant:normal;font-weight:normal;font-stretch:normal;text-indent:0;text-align:start;text-decoration:none;line-height:125%;letter-spacing:0px;word-spacing:0px;text-transform:none;direction:ltr;block-progression:tb;writing-mode:lr-tb;text-anchor:start;baseline-shift:baseline;color:#000000;fill:#000000;fill-opacity:1;fill-rule:nonzero;stroke:none;stroke-width:1.24999988px;marker:none;visibility:visible;display:inline;overflow:visible;enable-background:accumulate;font-family:Liberation Sans;-inkscape-font-specification:Liberation Sans"
       xml:space="preserve"><tspan
         style="font-size:12px"
         y="196.35651"
         x="58.552025"
         id="tspan6895-3"
         sodipodi:role="line">∇<tspan
   id="tspan6897-5"
   style="font-size:10px;baseline-shift:super">2</tspan><tspan
   id="tspan6930"
   style="font-style:italic;-inkscape-font-specification:Liberation Sans Italic">C</tspan>=0</tspan></text>
  </g>
  <g
     id="g7137"
     transform="matrix(0.87047231,0,0,0.87047231,-4.3795005,47.00104)">
    <rect
       y="-227.09619"
       x="-33.811306"
       height="147.99701"
       width="211.66896"
       id="rect6936"
       style="fill:#dedede;fill-opacity:1;stroke:none" />
    <g
       transform="translate(-1.2442158,0)"
       id="g7066">
      <g
         id="g6858"
         transform="translate(4.6443427,0)">
        <g
           transform="translate(0,-24.326158)"
           id="g6826">
          <path
             style="color:#000000;fill:none;stroke:#000000;stroke-width:2.125;stroke-linecap:butt;stroke-linejoin:miter;stroke-miterlimit:4;stroke-opacity:1;stroke-dasharray:none;stroke-dashoffset:0;marker:none;visibility:visible;display:inline;overflow:visible;enable-background:accumulate"
             d="m -10.557666,-181.98728 c 0,0 39.58484,115.051752 79.20493,115.206672 0.0266,0 0.0527,1.1e-4 0.0794,0 39.620096,-0.15492 79.220826,-115.206672 79.220826,-115.206672"
             id="path6542-2"
             inkscape:connector-curvature="0"
             sodipodi:nodetypes="cccc" />
          <path
             sodipodi:type="arc"
             style="fill:#000000;fill-opacity:1;stroke:none"
             id="path6750"
             sodipodi:cx="-260.00964"
             sodipodi:cy="-92.023239"
             sodipodi:rx="3.3441753"
             sodipodi:ry="3.3441753"
             d="m -256.66547,-92.023239 c 0,1.846937 -1.49724,3.344175 -3.34417,3.344175 -1.84694,0 -3.34418,-1.497238 -3.34418,-3.344175 0,-1.846937 1.49724,-3.344175 3.34418,-3.344175 1.84693,0 3.34417,1.497238 3.34417,3.344175 z"
             transform="translate(248.48707,-92.883362)" />
          <path
             sodipodi:type="arc"
             style="fill:#000000;fill-opacity:1;stroke:none"
             id="path6750-1"
             sodipodi:cx="-260.00964"
             sodipodi:cy="-92.023239"
             sodipodi:rx="3.3441753"
             sodipodi:ry="3.3441753"
             d="m -256.66547,-92.023239 c 0,1.846937 -1.49724,3.344175 -3.34417,3.344175 -1.84694,0 -3.34418,-1.497238 -3.34418,-3.344175 0,-1.846937 1.49724,-3.344175 3.34418,-3.344175 1.84693,0 3.34417,1.497238 3.34417,3.344175 z"
             transform="translate(408.77831,-92.390154)" />
        </g>
      </g>
    </g>
    <g
       transform="translate(-1.1938571,0)"
       id="g7052">
      <text
         xml:space="preserve"
         style="font-size:10px;font-style:normal;font-variant:normal;font-weight:normal;font-stretch:normal;text-indent:0;text-align:start;text-decoration:none;line-height:125%;letter-spacing:0px;word-spacing:0px;text-transform:none;direction:ltr;block-progression:tb;writing-mode:lr-tb;text-anchor:start;baseline-shift:baseline;color:#000000;fill:#000000;fill-opacity:1;fill-rule:nonzero;stroke:none;stroke-width:1.24999988px;marker:none;visibility:visible;display:inline;overflow:visible;enable-background:accumulate;font-family:Liberation Sans;-inkscape-font-specification:Liberation Sans"
         x="60.488152"
         y="-172.52693"
         id="text6938"
         sodipodi:linespacing="125%"><tspan
           sodipodi:role="line"
           id="tspan6940"
           x="60.488152"
           y="-172.52693"
           style="font-size:12px">d<tspan
   style="font-size:10px;baseline-shift:super"
   id="tspan6942">2</tspan><tspan
   style="font-style:italic;-inkscape-font-specification:Liberation Sans Italic"
   id="tspan6946">y</tspan></tspan></text>
      <text
         xml:space="preserve"
         style="font-size:10px;font-style:normal;font-variant:normal;font-weight:normal;font-stretch:normal;text-indent:0;text-align:start;text-decoration:none;line-height:125%;letter-spacing:0px;word-spacing:0px;text-transform:none;direction:ltr;block-progression:tb;writing-mode:lr-tb;text-anchor:start;baseline-shift:baseline;color:#000000;fill:#000000;fill-opacity:1;fill-rule:nonzero;stroke:none;stroke-width:1.24999988px;marker:none;visibility:visible;display:inline;overflow:visible;enable-background:accumulate;font-family:Liberation Sans;-inkscape-font-specification:Liberation Sans"
         x="61.015766"
         y="-156.38185"
         id="text6948"
         sodipodi:linespacing="125%"><tspan
           sodipodi:role="line"
           id="tspan6950"
           x="61.015766"
           y="-156.38185"><tspan
             style="font-size:12px"
             id="tspan6952">d<tspan
   style="font-style:italic;-inkscape-font-specification:Liberation Sans Italic"
   id="tspan6954">x</tspan></tspan><tspan
             style="font-size:10px;baseline-shift:super"
             id="tspan6958">2</tspan></tspan></text>
      <path
         style="color:#000000;fill:none;stroke:#000000;stroke-width:0.80000001;stroke-linecap:butt;stroke-linejoin:miter;stroke-miterlimit:4;stroke-opacity:1;stroke-dasharray:none;stroke-dashoffset:0;marker:none;visibility:visible;display:inline;overflow:visible;enable-background:accumulate"
         d="m 61.174051,-169.30847 19.25802,0"
         id="path6960"
         inkscape:connector-curvature="0" />
      <text
         xml:space="preserve"
         style="font-size:10px;font-style:normal;font-variant:normal;font-weight:normal;font-stretch:normal;text-indent:0;text-align:start;text-decoration:none;line-height:125%;letter-spacing:0px;word-spacing:0px;text-transform:none;direction:ltr;block-progression:tb;writing-mode:lr-tb;text-anchor:start;baseline-shift:baseline;color:#000000;fill:#000000;fill-opacity:1;fill-rule:nonzero;stroke:none;stroke-width:1.24999988px;marker:none;visibility:visible;display:inline;overflow:visible;enable-background:accumulate;font-family:Liberation Sans;-inkscape-font-specification:Liberation Sans"
         x="81.557816"
         y="-164.98239"
         id="text6962"
         sodipodi:linespacing="125%"><tspan
           sodipodi:role="line"
           id="tspan6964"
           x="81.557816"
           y="-164.98239"
           style="font-size:12px">&gt;0</tspan></text>
    </g>
  </g>
  <text
     xml:space="preserve"
     style="font-size:10px;font-style:normal;font-variant:normal;font-weight:normal;font-stretch:normal;text-indent:0;text-align:start;text-decoration:none;line-height:125%;letter-spacing:0px;word-spacing:0px;text-transform:none;direction:ltr;block-progression:tb;writing-mode:lr-tb;text-anchor:start;baseline-shift:baseline;color:#000000;fill:#000000;fill-opacity:1;fill-rule:nonzero;stroke:none;stroke-width:1.24999988px;marker:none;visibility:visible;display:inline;overflow:visible;enable-background:accumulate;font-family:Liberation Sans;-inkscape-font-specification:Liberation Sans"
     x="132.83684"
     y="-31.290606"
     id="text7159"
     sodipodi:linespacing="125%"><tspan
       sodipodi:role="line"
       id="tspan7161"
       x="132.83684"
       y="-31.290606">1</tspan></text>
  <text
     xml:space="preserve"
     style="font-size:10px;font-style:normal;font-variant:normal;font-weight:normal;font-stretch:normal;text-indent:0;text-align:start;text-decoration:none;line-height:125%;letter-spacing:0px;word-spacing:0px;text-transform:none;direction:ltr;block-progression:tb;writing-mode:lr-tb;text-anchor:start;baseline-shift:baseline;color:#000000;fill:#000000;fill-opacity:1;fill-rule:nonzero;stroke:none;stroke-width:1.24999988px;marker:none;visibility:visible;display:inline;overflow:visible;enable-background:accumulate;font-family:Liberation Sans;-inkscape-font-specification:Liberation Sans"
     x="132.83684"
     y="130.65601"
     id="text7163"
     sodipodi:linespacing="125%"><tspan
       sodipodi:role="line"
       id="tspan7165"
       x="132.83684"
       y="130.65601">2</tspan></text>
  <text
     xml:space="preserve"
     style="font-size:10px;font-style:normal;font-variant:normal;font-weight:normal;font-stretch:normal;text-indent:0;text-align:start;text-decoration:none;line-height:125%;letter-spacing:0px;word-spacing:0px;text-transform:none;direction:ltr;block-progression:tb;writing-mode:lr-tb;text-anchor:start;baseline-shift:baseline;color:#000000;fill:#000000;fill-opacity:1;fill-rule:nonzero;stroke:none;stroke-width:1.24999988px;marker:none;visibility:visible;display:inline;overflow:visible;enable-background:accumulate;font-family:Liberation Sans;-inkscape-font-specification:Liberation Sans"
     x="132.83684"
     y="350.35703"
     id="text7167"
     sodipodi:linespacing="125%"><tspan
       sodipodi:role="line"
       id="tspan7169"
       x="132.83684"
       y="350.35703">3</tspan></text>
</svg>
