<?xml version="1.0" encoding="UTF-8" standalone="no"?>
<!-- Generator: Adobe Illustrator 11 Build 196, SVG Export Plug-In . SVG Version: 6.0.0 Build 78)  -->

<svg
   xmlns:dc="http://purl.org/dc/elements/1.1/"
   xmlns:cc="http://creativecommons.org/ns#"
   xmlns:rdf="http://www.w3.org/1999/02/22-rdf-syntax-ns#"
   xmlns:svg="http://www.w3.org/2000/svg"
   xmlns="http://www.w3.org/2000/svg"
   xmlns:xlink="http://www.w3.org/1999/xlink"
   xmlns:sodipodi="http://sodipodi.sourceforge.net/DTD/sodipodi-0.dtd"
   xmlns:inkscape="http://www.inkscape.org/namespaces/inkscape"
   width="147.401"
   height="126.234"
   viewBox="0 0 147.401 126.234"
   style="overflow:visible;enable-background:new 0 0 147.401 126.234"
   xml:space="preserve"
   id="svg2"
   version="1.1"
   sodipodi:docname="moat-rainbow.svg"><metadata
     id="metadata116"><rdf:RDF><cc:Work
         rdf:about=""><dc:format>image/svg+xml</dc:format><dc:type
           rdf:resource="http://purl.org/dc/dcmitype/StillImage" /></cc:Work></rdf:RDF></metadata><defs
     id="defs114"><radialGradient
       gradientUnits="userSpaceOnUse"
       gradientTransform="matrix(0.59,0,0,0.59,41.0059,-5.4175)"
       fy="329.63062"
       fx="54.082001"
       r="215"
       cy="329.63062"
       cx="54.082001"
       id="XMLID_12_"><stop
         id="stop68"
         style="stop-color:#000000"
         offset="0" /><stop
         id="stop70"
         style="stop-color:#161616"
         offset="0.3915" /><stop
         id="stop72"
         style="stop-color:#323232"
         offset="0.5709" /><stop
         id="stop74"
         style="stop-color:#4A4A4A"
         offset="0.7067" /><stop
         id="stop76"
         style="stop-color:#626262"
         offset="0.81" /><stop
         id="stop78"
         style="stop-color:#E4E4E4"
         offset="1" /><midPointStop
         style="stop-color:#000000"
         offset="0" /><midPointStop
         style="stop-color:#000000"
         offset="0.84" /><midPointStop
         style="stop-color:#626262"
         offset="0.81" /><midPointStop
         style="stop-color:#626262"
         offset="0.5" /><midPointStop
         style="stop-color:#E4E4E4"
         offset="1" /></radialGradient><radialGradient
       gradientUnits="userSpaceOnUse"
       gradientTransform="matrix(0.59,0,0,0.59,193.30546,-2.1071672)"
       fy="329.63062"
       fx="54.082001"
       r="215"
       cy="329.63062"
       cx="54.082001"
       id="XMLID_12_-3"><stop
         id="stop68-6"
         style="stop-color:#000000"
         offset="0" /><stop
         id="stop70-7"
         style="stop-color:#161616"
         offset="0.3915" /><stop
         id="stop72-5"
         style="stop-color:#323232"
         offset="0.5709" /><stop
         id="stop74-3"
         style="stop-color:#4A4A4A"
         offset="0.7067" /><stop
         id="stop76-5"
         style="stop-color:#626262"
         offset="0.81" /><stop
         id="stop78-6"
         style="stop-color:#E4E4E4"
         offset="1" /><midPointStop
         style="stop-color:#000000"
         offset="0" /><midPointStop
         style="stop-color:#000000"
         offset="0.84" /><midPointStop
         style="stop-color:#626262"
         offset="0.81" /><midPointStop
         style="stop-color:#626262"
         offset="0.5" /><midPointStop
         style="stop-color:#E4E4E4"
         offset="1" /></radialGradient><radialGradient
       gradientUnits="userSpaceOnUse"
       gradientTransform="matrix(0.59,0,0,0.59,193.49984,-2.1065421)"
       fy="329.63062"
       fx="54.082001"
       r="215"
       cy="329.63062"
       cx="54.082001"
       id="XMLID_12_-3-7"><stop
         id="stop68-6-9"
         style="stop-color:#000000"
         offset="0" /><stop
         id="stop70-7-2"
         style="stop-color:#161616"
         offset="0.3915" /><stop
         id="stop72-5-0"
         style="stop-color:#323232"
         offset="0.5709" /><stop
         id="stop74-3-2"
         style="stop-color:#4A4A4A"
         offset="0.7067" /><stop
         id="stop76-5-3"
         style="stop-color:#626262"
         offset="0.81" /><stop
         id="stop78-6-7"
         style="stop-color:#E4E4E4"
         offset="1" /><midPointStop
         style="stop-color:#000000"
         offset="0" /><midPointStop
         style="stop-color:#000000"
         offset="0.84" /><midPointStop
         style="stop-color:#626262"
         offset="0.81" /><midPointStop
         style="stop-color:#626262"
         offset="0.5" /><midPointStop
         style="stop-color:#E4E4E4"
         offset="1" /></radialGradient><radialGradient
       gradientUnits="userSpaceOnUse"
       gradientTransform="matrix(0.59,0,0,0.59,309.21693,126.64606)"
       fy="329.63062"
       fx="54.082001"
       r="215"
       cy="329.63062"
       cx="54.082001"
       id="XMLID_12_-2"><stop
         id="stop68-2"
         style="stop-color:#000000"
         offset="0" /><stop
         id="stop70-8"
         style="stop-color:#161616"
         offset="0.3915" /><stop
         id="stop72-9"
         style="stop-color:#323232"
         offset="0.5709" /><stop
         id="stop74-7"
         style="stop-color:#4A4A4A"
         offset="0.7067" /><stop
         id="stop76-3"
         style="stop-color:#626262"
         offset="0.81" /><stop
         id="stop78-61"
         style="stop-color:#E4E4E4"
         offset="1" /><midPointStop
         style="stop-color:#000000"
         offset="0" /><midPointStop
         style="stop-color:#000000"
         offset="0.84" /><midPointStop
         style="stop-color:#626262"
         offset="0.81" /><midPointStop
         style="stop-color:#626262"
         offset="0.5" /><midPointStop
         style="stop-color:#E4E4E4"
         offset="1" /></radialGradient></defs><sodipodi:namedview
     pagecolor="#ffffff"
     bordercolor="#666666"
     borderopacity="1"
     objecttolerance="10"
     gridtolerance="10"
     guidetolerance="10"
     inkscape:pageopacity="0"
     inkscape:pageshadow="2"
     inkscape:window-width="1280"
     inkscape:window-height="998"
     id="namedview112"
     showgrid="false"
     inkscape:zoom="1.845056"
     inkscape:cx="81.343372"
     inkscape:cy="-40.368117"
     inkscape:window-x="0"
     inkscape:window-y="0"
     inkscape:window-maximized="1"
     inkscape:current-layer="svg2" /><g
     id="g4603"
     transform="translate(0.27322578,0)"><rect
       y="-6.9149218"
       x="-16.54924"
       height="139.68584"
       width="184.25197"
       id="rect4325"
       style="color:#000000;clip-rule:nonzero;display:inline;overflow:visible;visibility:visible;opacity:1;isolation:auto;mix-blend-mode:normal;color-interpolation:sRGB;color-interpolation-filters:linearRGB;solid-color:#000000;solid-opacity:1;fill:#dedede;fill-opacity:1;fill-rule:nonzero;stroke:none;stroke-width:0.875;stroke-linecap:butt;stroke-linejoin:miter;stroke-miterlimit:1;stroke-dasharray:none;stroke-dashoffset:0;stroke-opacity:1;color-rendering:auto;image-rendering:auto;shape-rendering:auto;text-rendering:auto;enable-background:accumulate" /><path
       inkscape:connector-curvature="0"
       id="ellipse80-2"
       d="m 73.812626,62.037971 a 35.599998,7.855 0 0 1 3.04101,0.0332 35.599998,7.855 0 0 0 -3.04101,-0.0332 z m -3.05079,0.0332 a 35.599998,7.855 0 0 0 -1.80468,0.04883 35.599998,7.855 0 0 1 1.80468,-0.04883 z m 7.73243,0.04297 a 35.599998,7.855 0 0 1 1.93164,0.06445 35.599998,7.855 0 0 0 -1.93164,-0.06445 z m -11.21094,0.0625 a 35.599998,7.855 0 0 0 -1.77539,0.08789 35.599998,7.855 0 0 1 1.77539,-0.08789 z m 14.59375,0.07422 a 35.599998,7.855 0 0 1 2.07226,0.117187 35.599998,7.855 0 0 0 -2.07226,-0.117187 z m -18.14453,0.113281 a 35.599998,7.855 0 0 0 -1.4375,0.105469 35.599998,7.855 0 0 1 1.4375,-0.105469 z m 21.52148,0.09961 a 35.599998,7.855 0 0 1 1.97266,0.158204 35.599998,7.855 0 0 0 -1.97266,-0.158204 z m -24.875,0.158204 a 35.599998,7.855 0 0 0 -1.53125,0.152343 35.599998,7.855 0 0 1 1.53125,-0.152343 z m 28.28516,0.142578 a 35.599998,7.855 0 0 1 1.8125,0.193359 35.599998,7.855 0 0 0 -1.8125,-0.193359 z m -31.4668,0.185546 a 35.599998,7.855 0 0 0 -1.47461,0.1875 35.599998,7.855 0 0 1 1.47461,-0.1875 z m 34.55274,0.167969 a 35.599998,7.855 0 0 1 1.79101,0.242188 35.599998,7.855 0 0 0 -1.79101,-0.242188 z m -37.64649,0.238281 a 35.599998,7.855 0 0 0 -1.17383,0.183594 35.599998,7.855 0 0 1 1.17383,-0.183594 z m 40.58594,0.185547 a 35.599998,7.855 0 0 1 1.75195,0.294922 35.599998,7.855 0 0 0 -1.75195,-0.294922 z m -43.54883,0.298829 a 35.599998,7.855 0 0 0 -0.86914,0.169921 35.599998,7.855 0 0 1 0.86914,-0.169921 z m 46.20899,0.171874 a 35.599998,7.855 0 0 1 1.74609,0.359376 35.599998,7.855 0 0 0 -1.74609,-0.359376 z m -48.81641,0.355469 a 35.599998,7.855 0 0 0 -0.81055,0.191407 35.599998,7.855 0 0 1 0.81055,-0.191407 z m 51.316407,0.181641 a 35.599998,7.855 0 0 1 1.630847,0.410156 35.599998,7.855 0 0 0 -1.630847,-0.410156 z m -53.710937,0.408203 a 35.599998,7.855 0 0 0 -0.66797,0.193359 35.599998,7.855 0 0 1 0.66797,-0.193359 z m 55.972644,0.185547 a 35.599998,7.855 0 0 1 1.46289,0.451172 35.599998,7.855 0 0 0 -1.46289,-0.451172 z m -58.064444,0.447266 a 35.599998,7.855 0 0 0 -0.5918,0.21289 35.599998,7.855 0 0 1 0.5918,-0.21289 z m 60.087884,0.205078 a 35.599998,7.855 0 0 1 1.22852,0.472656 35.599998,7.855 0 0 0 -1.22852,-0.472656 z M 42.250126,66.26844 a 35.599998,7.855 0 0 0 -0.4961,0.224609 35.599998,7.855 0 0 1 0.4961,-0.224609 z m 63.601554,0.222656 a 35.599998,7.855 0 0 1 0.98242,0.484375 35.599998,7.855 0 0 0 -0.98242,-0.484375 z m -65.082024,0.486328 a 35.599998,7.855 0 0 0 -0.38086,0.230469 35.599998,7.855 0 0 1 0.38086,-0.230469 z m 66.476554,0.246094 a 35.599998,7.855 0 0 1 0.75195,0.5 35.599998,7.855 0 0 0 -0.75195,-0.5 z m -67.644524,0.509766 a 35.599998,7.855 0 0 0 -0.24414,0.210937 35.599998,7.855 0 0 1 0.24414,-0.210937 z m 68.666004,0.224609 a 35.599998,7.855 0 0 1 0.54297,0.533203 35.599998,7.855 0 0 0 -0.54297,-0.533203 z m -69.468744,0.535156 a 35.599998,7.855 0 0 0 -0.15234,0.220703 35.599998,7.855 0 0 1 0.15234,-0.220703 z m 70.167964,0.22461 a 35.599998,7.855 0 0 1 0.30469,0.550781 35.599998,7.855 0 0 0 -0.30469,-0.550781 z m -70.628894,0.55664 a 35.599998,7.855 0 0 0 -0.08594,0.38086 35.599998,7.855 0 0 1 0.08594,-0.38086 z m 71.025384,0.402344 a 35.599998,7.855 0 0 1 0.0352,0.216797 35.599998,7.855 0 0 1 -0.0898,0.40039 35.599998,7.855 0 0 0 0.10352,-0.402343 35.599998,7.855 0 0 0 -0.0488,-0.214844 z M 38.375126,70.60633 a 35.599998,7.855 0 0 0 0.0059,0.0293 l -0.20117,0 -0.08984,0 0,48.41016 0.31641,0 c 1.85974,3.95241 17.00132,7.03515 35.40625,7.03515 18.40494,0 33.546514,-3.08274 35.406244,-7.03515 l 0.28515,0 0,-48.41016 -0.082,0 -0.19141,0 A 35.599998,7.855 0 0 1 73.796996,77.748909 35.599998,7.855 0 0 1 38.375126,70.60633 Z"
       style="overflow:visible;fill:#ffffff;fill-opacity:1;stroke:none;stroke-width:0.5;stroke-opacity:1" /><rect
       x="2.987"
       y="0.25"
       style="fill:#ffffff;fill-opacity:1;stroke:#000000;stroke-width:0.5"
       width="141.403"
       height="47.790001"
       id="rect63" /><g
       id="g9"><g
         id="g11"><path
           style="fill:none;stroke:#000000;stroke-width:1.5"
           d="M 2.974,24.148 C 4.475,16.645 4.992,14.755 5.459,13.082 5.927,11.409 6.222,11.031 6.418,10.653 6.614,10.275 7.083,9.735 7.427,9.789 c 0.344,0.054 0.713,0.27 0.984,0.864 0.271,0.594 0.689,1.511 0.984,2.537 0.295,1.026 0.566,1.89 0.984,3.833 0.418,1.944 0.319,1.08 1.476,7.126"
           id="path13"
           inkscape:connector-curvature="0" /><path
           style="fill:none;stroke:#000000;stroke-width:1.5"
           d="m 11.875,24.144 c 1.501,7.504 2.018,9.393 2.485,11.067 0.468,1.673 0.763,2.051 0.96,2.429 0.197,0.378 0.665,0.918 1.009,0.864 0.345,-0.054 0.714,-0.27 0.984,-0.864 0.27,-0.594 0.689,-1.511 0.984,-2.537 0.296,-1.026 0.566,-1.89 0.985,-3.833 0.418,-1.943 0.32,-1.08 1.477,-7.126"
           id="path15"
           inkscape:connector-curvature="0" /></g><g
         id="g17"><path
           style="fill:none;stroke:#000000;stroke-width:1.5"
           d="m 20.637,24.148 c 1.501,-7.503 2.018,-9.393 2.485,-11.066 0.467,-1.673 0.763,-2.051 0.959,-2.429 0.196,-0.378 0.665,-0.918 1.009,-0.864 0.344,0.054 0.713,0.27 0.984,0.864 0.271,0.594 0.689,1.511 0.984,2.537 0.295,1.026 0.566,1.89 0.984,3.833 0.418,1.944 0.32,1.08 1.477,7.126"
           id="path19"
           inkscape:connector-curvature="0" /><path
           style="fill:none;stroke:#000000;stroke-width:1.5"
           d="m 29.538,24.144 c 1.501,7.504 2.018,9.393 2.485,11.067 0.468,1.673 0.763,2.051 0.959,2.429 0.197,0.378 0.665,0.918 1.009,0.864 0.344,-0.054 0.713,-0.27 0.984,-0.864 0.271,-0.594 0.689,-1.511 0.984,-2.537 0.295,-1.026 0.566,-1.89 0.984,-3.833 0.418,-1.943 0.32,-1.08 1.476,-7.126"
           id="path21"
           inkscape:connector-curvature="0" /></g><g
         id="g23"><path
           style="fill:none;stroke:#000000;stroke-width:1.5"
           d="m 38.3,24.148 c 1.501,-7.503 2.018,-9.393 2.486,-11.066 0.467,-1.673 0.763,-2.051 0.959,-2.429 0.197,-0.378 0.665,-0.918 1.009,-0.864 0.344,0.054 0.713,0.27 0.984,0.864 0.271,0.594 0.689,1.511 0.984,2.537 0.295,1.026 0.566,1.89 0.984,3.833 0.418,1.944 0.32,1.08 1.477,7.126"
           id="path25"
           inkscape:connector-curvature="0" /><path
           style="fill:none;stroke:#000000;stroke-width:1.5"
           d="m 47.202,24.144 c 1.501,7.504 2.018,9.393 2.485,11.067 0.467,1.673 0.763,2.051 0.959,2.429 0.197,0.378 0.665,0.918 1.009,0.864 0.344,-0.054 0.713,-0.27 0.984,-0.864 0.271,-0.594 0.689,-1.511 0.984,-2.537 0.295,-1.026 0.566,-1.89 0.984,-3.833 0.418,-1.943 0.32,-1.08 1.477,-7.126"
           id="path27"
           inkscape:connector-curvature="0" /></g><g
         id="g29"><path
           style="fill:none;stroke:#000000;stroke-width:1.5"
           d="m 55.964,24.148 c 1.501,-7.503 2.018,-9.393 2.485,-11.066 0.467,-1.673 0.763,-2.051 0.959,-2.429 0.196,-0.378 0.665,-0.918 1.009,-0.864 0.345,0.054 0.714,0.27 0.984,0.864 0.271,0.594 0.689,1.511 0.984,2.537 0.295,1.026 0.566,1.89 0.984,3.833 0.418,1.944 0.32,1.08 1.477,7.126"
           id="path31"
           inkscape:connector-curvature="0" /><path
           style="fill:none;stroke:#000000;stroke-width:1.5"
           d="m 64.865,24.144 c 1.501,7.504 2.018,9.393 2.485,11.067 0.467,1.673 0.763,2.051 0.959,2.429 0.197,0.378 0.665,0.918 1.009,0.864 0.344,-0.054 0.713,-0.27 0.984,-0.864 0.271,-0.594 0.689,-1.511 0.984,-2.537 0.295,-1.026 0.566,-1.89 0.984,-3.833 0.418,-1.943 0.32,-1.08 1.477,-7.126"
           id="path33"
           inkscape:connector-curvature="0" /></g><g
         id="g35"><path
           style="fill:none;stroke:#000000;stroke-width:1.5"
           d="m 73.628,24.148 c 1.5,-7.503 2.018,-9.393 2.485,-11.066 0.467,-1.673 0.763,-2.051 0.959,-2.429 0.196,-0.378 0.665,-0.918 1.009,-0.864 0.344,0.054 0.713,0.27 0.984,0.864 0.271,0.594 0.689,1.511 0.984,2.537 0.295,1.026 0.566,1.89 0.984,3.833 0.418,1.944 0.32,1.08 1.477,7.126"
           id="path37"
           inkscape:connector-curvature="0" /><path
           style="fill:none;stroke:#000000;stroke-width:1.5"
           d="m 82.528,24.144 c 1.501,7.504 2.018,9.393 2.486,11.067 0.467,1.673 0.763,2.051 0.959,2.429 0.197,0.378 0.665,0.918 1.009,0.864 0.345,-0.054 0.714,-0.27 0.984,-0.864 0.271,-0.594 0.689,-1.511 0.984,-2.537 0.295,-1.026 0.566,-1.89 0.984,-3.833 0.418,-1.943 0.32,-1.08 1.477,-7.126"
           id="path39"
           inkscape:connector-curvature="0" /></g><g
         id="g41"><path
           style="fill:none;stroke:#000000;stroke-width:1.5"
           d="m 91.291,24.148 c 1.501,-7.503 2.018,-9.393 2.485,-11.066 0.468,-1.673 0.763,-2.051 0.96,-2.429 0.197,-0.378 0.665,-0.918 1.009,-0.864 0.344,0.054 0.713,0.27 0.984,0.864 0.271,0.594 0.689,1.511 0.984,2.537 0.295,1.026 0.566,1.89 0.984,3.833 0.418,1.944 0.32,1.08 1.477,7.126"
           id="path43"
           inkscape:connector-curvature="0" /><path
           style="fill:none;stroke:#000000;stroke-width:1.5"
           d="m 100.192,24.144 c 1.501,7.504 2.018,9.393 2.485,11.067 0.467,1.673 0.763,2.051 0.959,2.429 0.197,0.378 0.665,0.918 1.009,0.864 0.345,-0.054 0.714,-0.27 0.985,-0.864 0.271,-0.594 0.689,-1.511 0.984,-2.537 0.295,-1.026 0.566,-1.89 0.984,-3.833 0.418,-1.943 0.32,-1.08 1.477,-7.126"
           id="path45"
           inkscape:connector-curvature="0" /></g><g
         id="g47"><path
           style="fill:none;stroke:#000000;stroke-width:1.5"
           d="m 108.955,24.148 c 1.501,-7.503 2.018,-9.393 2.486,-11.066 0.467,-1.673 0.763,-2.051 0.959,-2.429 0.196,-0.378 0.665,-0.918 1.009,-0.864 0.345,0.054 0.714,0.27 0.984,0.864 0.271,0.594 0.689,1.511 0.984,2.537 0.295,1.026 0.566,1.89 0.984,3.833 0.418,1.944 0.32,1.08 1.477,7.126"
           id="path49"
           inkscape:connector-curvature="0" /><path
           style="fill:none;stroke:#000000;stroke-width:1.5"
           d="m 117.855,24.144 c 1.501,7.504 2.018,9.393 2.485,11.067 0.468,1.673 0.763,2.051 0.96,2.429 0.197,0.378 0.665,0.918 1.009,0.864 0.345,-0.054 0.714,-0.27 0.984,-0.864 0.271,-0.594 0.689,-1.511 0.984,-2.537 0.295,-1.026 0.566,-1.89 0.984,-3.833 0.418,-1.943 0.32,-1.08 1.477,-7.126"
           id="path51"
           inkscape:connector-curvature="0" /></g><g
         id="g53"><path
           style="fill:none;stroke:#000000;stroke-width:1.5"
           d="m 126.618,24.148 c 1.501,-7.503 2.018,-9.393 2.485,-11.066 0.468,-1.673 0.763,-2.051 0.96,-2.429 0.197,-0.378 0.665,-0.918 1.009,-0.864 0.345,0.054 0.714,0.27 0.984,0.864 0.271,0.594 0.689,1.511 0.984,2.537 0.295,1.026 0.566,1.89 0.984,3.833 0.418,1.944 0.32,1.08 1.477,7.126"
           id="path55"
           inkscape:connector-curvature="0" /><path
           style="fill:none;stroke:#000000;stroke-width:1.5"
           d="m 135.519,24.144 c 1.501,7.504 2.018,9.393 2.485,11.067 0.468,1.673 0.763,2.051 0.96,2.429 0.197,0.378 0.665,0.918 1.009,0.864 0.345,-0.054 0.714,-0.27 0.984,-0.864 0.271,-0.594 0.689,-1.511 0.984,-2.537 0.295,-1.026 0.566,-1.89 0.984,-3.833 0.418,-1.943 0.32,-1.08 1.477,-7.126"
           id="path57"
           inkscape:connector-curvature="0" /></g></g><rect
       x="144.534"
       y="23.125"
       style="fill:#dedede;fill-opacity:1"
       width="2.5810001"
       height="6.8590002"
       id="rect59" /><rect
       x="0.28600001"
       y="20.198999"
       style="fill:#dedede;fill-opacity:1"
       width="2.5810001"
       height="6.8590002"
       id="rect61" /><ellipse
       style="fill:url(#XMLID_12_);stroke:#000000;stroke-width:0.5"
       cx="73.722"
       cy="69.795998"
       rx="35.599998"
       ry="7.855"
       id="ellipse80" /><path
       style="fill:none;stroke:#000000;stroke-width:0.5"
       d="m 38.122,118.129 c 0,4.338 15.939,7.855 35.6,7.855 19.661,0 35.6,-3.517 35.6,-7.855"
       id="path82"
       inkscape:connector-curvature="0" /><g
       id="g84"><path
         style="fill:none;stroke:#000000;stroke-width:1.5"
         d="m 38.154,92.885 c 0.506,-6.936 0.68,-8.63 0.838,-10.127 0.158,-1.497 0.257,-1.763 0.324,-2.067 0.066,-0.303 0.044,-0.667 0.16,-0.482 0.116,0.185 0.155,0.54 0.246,1.236 0.091,0.696 0.245,1.772 0.344,2.91 0.1,1.137 0.302,2.127 0.443,4.228 0.141,2.102 0.147,1.18 0.64,7.661"
         id="path86"
         inkscape:connector-curvature="0" /><path
         style="fill:none;stroke:#000000;stroke-width:1.5"
         d="m 41.098,96.105 c 0.99,7.715 1.434,9.898 1.818,11.703 0.383,1.805 0.576,2.32 0.737,2.753 0.161,0.433 0.709,1.069 0.991,1.111 0.283,0.043 0.585,-0.069 0.808,-0.587 0.222,-0.518 0.565,-1.318 0.807,-2.26 0.242,-0.943 0.464,-1.73 0.807,-3.556 0.343,-1.826 0.374,-1.199 1.471,-6.993"
         id="path88"
         inkscape:connector-curvature="0" /><path
         style="fill:none;stroke:#000000;stroke-width:1.5"
         d="m 48.537,98.276 c 1.959,-7.246 2.634,-9.046 3.244,-10.64 0.61,-1.594 0.996,-1.92 1.252,-2.265 0.257,-0.344 0.868,-0.804 1.317,-0.69 0.45,0.113 0.932,0.393 1.285,1.033 0.353,0.64 0.899,1.63 1.285,2.706 0.386,1.077 0.739,1.987 1.285,4.002 0.546,2.015 0.417,1.338 1.927,7.583"
         id="path90"
         inkscape:connector-curvature="0" /><path
         style="fill:none;stroke:#000000;stroke-width:1.5"
         d="m 60.132,100.005 c 2.271,7.631 3.052,9.564 3.759,11.277 0.708,1.713 1.154,2.116 1.452,2.51 0.298,0.395 1.005,0.974 1.526,0.949 0.521,-0.025 1.08,-0.209 1.488,-0.781 0.41,-0.571 1.042,-1.453 1.489,-2.454 0.447,-1.001 0.856,-1.842 1.489,-3.75 0.633,-1.908 0.484,-1.053 2.233,-7.001"
         id="path92"
         inkscape:connector-curvature="0" /><path
         style="fill:none;stroke:#000000;stroke-width:1.5"
         d="m 109.273,93.307 c -0.509,8.049 -0.7,11.354 -0.768,11.942 -0.099,0.848 -0.16,2.128 -0.246,2.704 -0.066,0.444 -0.081,1.07 -0.197,1.131 -0.116,0.061 -0.4,0.039 -0.491,-0.465 -0.091,-0.503 -0.146,-1.263 -0.246,-2.19 -0.1,-0.927 -0.203,-1.687 -0.344,-3.491 -0.141,-1.804 -0.147,-1.131 -0.836,-6.736"
         id="path94"
         inkscape:connector-curvature="0" /><path
         style="fill:none;stroke:#000000;stroke-width:1.5"
         d="m 106.145,96.203 c -1.032,-7.277 -1.721,-8.998 -2.212,-10.522 -0.488,-1.515 -0.812,-1.804 -0.973,-2.127 -0.162,-0.324 -0.545,-0.735 -0.828,-0.586 -0.283,0.148 -0.436,0.522 -0.658,1.19 -0.222,0.668 -0.544,1.646 -0.787,2.753 -0.242,1.106 -0.493,2.071 -0.836,4.13 -0.343,2.059 -0.244,1.356 -1.351,7.679"
         id="path96"
         inkscape:connector-curvature="0" /><path
         style="fill:none;stroke:#000000;stroke-width:1.5"
         d="m 98.473,98.634 c -1.719,7.501 -2.634,9.752 -3.244,11.509 -0.61,1.757 -0.996,2.188 -1.252,2.601 -0.256,0.413 -0.867,1.036 -1.317,1.043 -0.45,0.007 -0.932,-0.143 -1.285,-0.688 -0.354,-0.545 -0.899,-1.389 -1.285,-2.362 -0.385,-0.973 -0.738,-1.789 -1.285,-3.657 -0.546,-1.869 -0.417,-1.023 -1.927,-6.863"
         id="path98"
         inkscape:connector-curvature="0" /><path
         style="fill:none;stroke:#000000;stroke-width:1.5"
         d="m 86.892,100.151 c -2.27,-7.35 -3.052,-9.187 -3.759,-10.812 -0.707,-1.626 -1.154,-1.974 -1.452,-2.332 -0.297,-0.357 -1.005,-0.85 -1.526,-0.76 -0.521,0.09 -1.08,0.343 -1.489,0.964 -0.409,0.622 -1.042,1.582 -1.489,2.638 -0.447,1.056 -0.856,1.947 -1.489,3.934 -0.632,1.986 -0.484,1.112 -2.233,7.277"
         id="path100"
         inkscape:connector-curvature="0" /></g><rect
       x="109.479"
       y="92.178001"
       style="fill:#dedede;fill-opacity:1"
       width="2.5810001"
       height="6.8590002"
       id="rect102" /><rect
       x="35.341999"
       y="89.008003"
       style="fill:#dedede;fill-opacity:1"
       width="2.5810001"
       height="6.8579998"
       id="rect104" /><line
       style="fill:none;stroke:#000000;stroke-width:0.5"
       x1="109.331"
       y1="69.759003"
       x2="109.331"
       y2="118.138"
       id="line106" /><line
       style="fill:none;stroke:#000000;stroke-width:0.5"
       x1="38.089001"
       y1="69.722"
       x2="38.089001"
       y2="118.101"
       id="line108" /><rect
       y="61.699001"
       style="fill:none"
       width="147.401"
       height="2.8340001"
       id="rect110"
       x="0" /></g><image
     sodipodi:absref="/home/bcrowell/Documents/writing/books/physics/share/quantum/figs/moat-rainbow-bitmaps/moat.png"
     xlink:href="moat-rainbow-bitmaps/moat.png"
     width="184.25197"
     height="117.3114"
     preserveAspectRatio="none"
     id="image4322"
     x="-16.276014"
     y="137.03214" /><text
     xml:space="preserve"
     style="color:#000000;font-style:normal;font-variant:normal;font-weight:normal;font-stretch:normal;font-size:12.5px;line-height:125%;font-family:'Liberation Sans';-inkscape-font-specification:'Liberation Sans';text-indent:0;text-align:start;text-decoration:none;text-decoration-line:none;text-decoration-style:solid;text-decoration-color:#000000;letter-spacing:0px;word-spacing:0px;text-transform:none;direction:ltr;block-progression:tb;writing-mode:lr-tb;baseline-shift:baseline;text-anchor:start;white-space:normal;clip-rule:nonzero;display:inline;overflow:visible;visibility:visible;opacity:1;isolation:auto;mix-blend-mode:normal;color-interpolation:sRGB;color-interpolation-filters:linearRGB;solid-color:#000000;solid-opacity:1;fill:#000000;fill-opacity:1;fill-rule:nonzero;stroke:none;stroke-width:1.24999988px;stroke-linecap:butt;stroke-linejoin:miter;stroke-miterlimit:4;stroke-dasharray:none;stroke-dashoffset:0;stroke-opacity:1;marker:none;marker-start:none;marker-mid:none;marker-end:none;color-rendering:auto;image-rendering:auto;shape-rendering:auto;text-rendering:auto;enable-background:accumulate"
     x="156.6162"
     y="121.24858"
     id="text4651"
     sodipodi:linespacing="125%"><tspan
       sodipodi:role="line"
       id="tspan4653"
       x="156.6162"
       y="121.24858">1</tspan></text>
<text
     xml:space="preserve"
     style="color:#000000;font-style:normal;font-variant:normal;font-weight:normal;font-stretch:normal;font-size:12.5px;line-height:125%;font-family:'Liberation Sans';-inkscape-font-specification:'Liberation Sans';text-indent:0;text-align:start;text-decoration:none;text-decoration-line:none;text-decoration-style:solid;text-decoration-color:#000000;letter-spacing:0px;word-spacing:0px;text-transform:none;direction:ltr;block-progression:tb;writing-mode:lr-tb;baseline-shift:baseline;text-anchor:start;white-space:normal;clip-rule:nonzero;display:inline;overflow:visible;visibility:visible;opacity:1;isolation:auto;mix-blend-mode:normal;color-interpolation:sRGB;color-interpolation-filters:linearRGB;solid-color:#000000;solid-opacity:1;fill:#000000;fill-opacity:1;fill-rule:nonzero;stroke:none;stroke-width:1.24999988px;stroke-linecap:butt;stroke-linejoin:miter;stroke-miterlimit:4;stroke-dasharray:none;stroke-dashoffset:0;stroke-opacity:1;marker:none;marker-start:none;marker-mid:none;marker-end:none;color-rendering:auto;image-rendering:auto;shape-rendering:auto;text-rendering:auto;enable-background:accumulate"
     x="156.78709"
     y="245.05322"
     id="text4655"
     sodipodi:linespacing="125%"><tspan
       sodipodi:role="line"
       id="tspan4657"
       x="156.78709"
       y="245.05322">2</tspan></text>
<ellipse
     style="color:#000000;clip-rule:nonzero;display:inline;overflow:visible;visibility:visible;opacity:1;isolation:auto;mix-blend-mode:normal;color-interpolation:sRGB;color-interpolation-filters:linearRGB;solid-color:#000000;solid-opacity:1;fill:none;fill-opacity:1;fill-rule:nonzero;stroke:#000000;stroke-width:0.57189888;stroke-linecap:butt;stroke-linejoin:miter;stroke-miterlimit:4;stroke-dasharray:none;stroke-dashoffset:0;stroke-opacity:1;marker:none;color-rendering:auto;image-rendering:auto;shape-rendering:auto;text-rendering:auto;enable-background:accumulate"
     id="path4659"
     cx="75.920555"
     cy="172.20734"
     rx="73.600998"
     ry="29.35836" /><path
     style="color:#000000;clip-rule:nonzero;display:inline;overflow:visible;visibility:visible;opacity:1;isolation:auto;mix-blend-mode:normal;color-interpolation:sRGB;color-interpolation-filters:linearRGB;solid-color:#000000;solid-opacity:1;fill:none;fill-opacity:1;fill-rule:nonzero;stroke:#000000;stroke-width:0.57189888;stroke-linecap:butt;stroke-linejoin:miter;stroke-miterlimit:4;stroke-dasharray:none;stroke-dashoffset:0;stroke-opacity:1;marker:none;color-rendering:auto;image-rendering:auto;shape-rendering:auto;text-rendering:auto;enable-background:accumulate"
     id="path4659-9"
     sodipodi:type="arc"
     sodipodi:cx="76.03775"
     sodipodi:cy="219.23184"
     sodipodi:rx="73.600998"
     sodipodi:ry="29.35836"
     sodipodi:start="0"
     sodipodi:end="3.1415927"
     sodipodi:open="true"
     d="m 149.63875,219.23184 a 73.600998,29.35836 0 0 1 -36.8005,25.42509 73.600998,29.35836 0 0 1 -73.601001,0 73.600998,29.35836 0 0 1 -36.8004967,-25.42509" /><path
     style="overflow:visible;fill:#ffffff;fill-opacity:1;stroke:#000000;stroke-width:0.625;stroke-miterlimit:4;stroke-dasharray:none;stroke-opacity:1"
     d="m 95.878835,220.80404 0,1.06836 0,0.35351 a 13.996685,0.9907218 0 0 1 -13.761719,0.81641 13.996685,0.9907218 0 0 1 -13.923828,-0.89844 l -0.08008,0 -0.03516,0 0,6.10547 0.125,0 c 0.731185,0.4985 6.683743,0.88867 13.919922,0.88867 6.944997,0 12.656869,-0.36054 13.755859,-0.83008 l 0,1.41602 c 0,0 1.072141,-0.36544 1.878906,-0.8457 3.418325,-2.03489 4.693365,-5.82227 4.693365,-5.82227 0,0 -0.90609,-0.22502 -2.716802,-0.54883 -2.01765,-0.57676 -3.855469,-1.70311 -3.855469,-1.70312 z"
     id="ellipse80-2-3"
     inkscape:connector-curvature="0" /></svg>