<?xml version="1.0" encoding="iso-8859-1"?>
<!-- Generator: Adobe Illustrator 11 Build 196, SVG Export Plug-In . SVG Version: 6.0.0 Build 78)  -->
<!DOCTYPE svg PUBLIC "-//W3C//DTD SVG 1.0//EN"    "http://www.w3.org/TR/2001/REC-SVG-20010904/DTD/svg10.dtd" [
	<!ENTITY ns_flows "http://ns.adobe.com/Flows/1.0/">
	<!ENTITY ns_svg "http://www.w3.org/2000/svg">
	<!ENTITY ns_xlink "http://www.w3.org/1999/xlink">
]>
<svg  
	 width="320.315" height="83.094" viewBox="0 0 320.315 83.094" style="overflow:visible;enable-background:new 0 0 320.315 83.094"
	 xml:space="preserve">
	<style type="text/css">
	
	</style>
	<g id="Layer_1">
		<path style="fill:none;stroke:#000000;stroke-width:2;" d="M156.875,1c3.018,0,6.791,66.946,10.187,66.946
			s9.383-46.169,15.847-46.169c6.868,0,15.092,25.393,27.165,25.393s18.865-16.544,35.466-16.544c16.601,0,33.529,7.31,49.376,7.31"
			/>
		<path style="fill:none;stroke:#000000;stroke-width:2;" d="M156.883,1c-3.018,0-6.792,66.946-10.187,66.946
			s-9.382-46.169-15.846-46.169c-6.868,0-15.092,25.393-27.165,25.393c-12.074,0-18.865-16.544-35.466-16.544
			s-33.53,7.31-49.376,7.31"/>
		<g>
			<g>
				<path style="fill:none;stroke:#000000;stroke-dasharray:3;" d="M231.177,38.263c-1.967-15.387-2.644-19.261-3.256-22.693
					c-0.613-3.432-1-4.207-1.257-4.981s-0.871-1.882-1.322-1.771c-0.452,0.111-0.935,0.553-1.29,1.771
					c-0.355,1.218-0.903,3.1-1.29,5.203c-0.387,2.103-0.741,3.874-1.29,7.859c-0.548,3.985-0.419,2.214-1.934,14.612"/>
				<path style="fill:none;stroke:#000000;stroke-dasharray:3;" d="M219.515,38.256c-1.966,15.387-2.644,19.261-3.256,22.693
					c-0.612,3.432-0.999,4.207-1.257,4.981c-0.258,0.775-0.87,1.882-1.322,1.771c-0.451-0.111-0.935-0.553-1.29-1.771
					s-0.902-3.1-1.29-5.203c-0.387-2.104-0.741-3.875-1.29-7.86c-0.548-3.985-0.419-2.213-1.935-14.612"/>
			</g>
			<g>
				<path style="fill:none;stroke:#000000;stroke-dasharray:3;" d="M208.035,38.263c-1.967-15.387-2.644-19.261-3.256-22.693
					c-0.612-3.432-0.999-4.207-1.257-4.981c-0.258-0.775-0.87-1.882-1.322-1.771c-0.451,0.111-0.935,0.553-1.29,1.771
					s-0.903,3.1-1.29,5.203c-0.387,2.103-0.742,3.874-1.29,7.859c-0.548,3.985-0.419,2.214-1.935,14.612"/>
				<path style="fill:none;stroke:#000000;stroke-dasharray:3;" d="M196.374,38.256c-1.967,15.387-2.644,19.261-3.256,22.693
					c-0.613,3.432-1,4.207-1.257,4.981s-0.871,1.882-1.322,1.771s-0.935-0.553-1.29-1.771s-0.903-3.1-1.29-5.203
					c-0.387-2.104-0.742-3.875-1.29-7.86c-0.548-3.985-0.419-2.213-1.935-14.612"/>
			</g>
			<g>
				<path style="fill:none;stroke:#000000;stroke-dasharray:3;" d="M184.894,38.263c-1.967-15.387-2.644-19.261-3.256-22.693
					c-0.613-3.432-1-4.207-1.257-4.981s-0.871-1.882-1.322-1.771c-0.451,0.111-0.935,0.553-1.289,1.771s-0.903,3.1-1.29,5.203
					c-0.387,2.103-0.741,3.874-1.29,7.859c-0.548,3.985-0.419,2.214-1.934,14.612"/>
				<path style="fill:none;stroke:#000000;stroke-dasharray:3;" d="M173.232,38.256c-1.966,15.387-2.644,19.261-3.256,22.693
					c-0.613,3.432-1,4.207-1.257,4.981c-0.258,0.775-0.871,1.882-1.322,1.771c-0.452-0.111-0.936-0.553-1.29-1.771
					s-0.903-3.1-1.29-5.203c-0.387-2.104-0.741-3.875-1.29-7.86c-0.548-3.985-0.419-2.213-1.934-14.612"/>
			</g>
			<g>
				<path style="fill:none;stroke:#000000;stroke-dasharray:3;" d="M161.752,38.263c-1.967-15.387-2.644-19.261-3.256-22.693
					c-0.612-3.432-1-4.207-1.257-4.981c-0.258-0.775-0.871-1.882-1.322-1.771c-0.451,0.111-0.935,0.553-1.29,1.771
					s-0.903,3.1-1.29,5.203c-0.387,2.103-0.741,3.874-1.29,7.859c-0.548,3.985-0.419,2.214-1.935,14.612"/>
				<path style="fill:none;stroke:#000000;stroke-dasharray:3;" d="M150.091,38.256c-1.966,15.387-2.643,19.261-3.256,22.693
					s-1,4.207-1.257,4.981s-0.871,1.882-1.322,1.771c-0.452-0.111-0.935-0.553-1.29-1.771s-0.903-3.1-1.29-5.203
					c-0.387-2.104-0.742-3.875-1.29-7.86c-0.548-3.985-0.419-2.213-1.934-14.612"/>
			</g>
			<g>
				<path style="fill:none;stroke:#000000;stroke-dasharray:3;" d="M138.611,38.263c-1.967-15.387-2.644-19.261-3.256-22.693
					c-0.612-3.432-1-4.207-1.257-4.981s-0.871-1.882-1.322-1.771c-0.452,0.111-0.935,0.553-1.29,1.771
					c-0.354,1.218-0.902,3.1-1.289,5.203c-0.387,2.103-0.742,3.874-1.29,7.859c-0.548,3.985-0.419,2.214-1.935,14.612"/>
				<path style="fill:none;stroke:#000000;stroke-dasharray:3;" d="M126.95,38.256c-1.967,15.387-2.644,19.261-3.256,22.693
					c-0.613,3.432-1,4.207-1.257,4.981c-0.258,0.775-0.871,1.882-1.322,1.771c-0.452-0.111-0.935-0.553-1.29-1.771
					c-0.354-1.218-0.902-3.1-1.29-5.203c-0.387-2.104-0.741-3.875-1.29-7.86c-0.548-3.985-0.419-2.213-1.934-14.612"/>
			</g>
			<g>
				<path style="fill:none;stroke:#000000;stroke-dasharray:3;" d="M115.47,38.263c-1.966-15.387-2.644-19.261-3.256-22.693
					c-0.613-3.432-1-4.207-1.258-4.981s-0.87-1.882-1.322-1.771c-0.451,0.111-0.935,0.553-1.29,1.771
					c-0.354,1.218-0.903,3.1-1.29,5.203c-0.387,2.103-0.742,3.874-1.29,7.859c-0.548,3.985-0.419,2.214-1.935,14.612"/>
				<path style="fill:none;stroke:#000000;stroke-dasharray:3;" d="M103.809,38.256c-1.967,15.387-2.644,19.261-3.256,22.693
					c-0.612,3.432-1,4.207-1.257,4.981s-0.871,1.882-1.322,1.771s-0.935-0.553-1.29-1.771c-0.355-1.218-0.903-3.1-1.29-5.203
					c-0.387-2.104-0.742-3.875-1.29-7.86c-0.548-3.985-0.419-2.213-1.935-14.612"/>
			</g>
		</g>
		<line style="fill:none;stroke:#000000;stroke-width:0.5;" x1="320.315" y1="38.311" x2="0.032" y2="38.311"/>
		<ellipse style="fill:#FFFFFF;stroke:#000000;" cx="167.161" cy="67.199" rx="1.976" ry="2.546"/> 
		<g>
			<g>
				<text transform="matrix(1 0 0 1 168.6738 78.6309)"><tspan x="0" y="0" style="font-family:Liberation Sans; font-size:8.500000;">P</tspan></text>
			</g>
		</g>
		<rect y="10.818" style="fill:none;" width="320.315" height="2.834"/> 
	</g>
</svg>
