<?xml version="1.0" encoding="iso-8859-1"?>
<!-- Generator: Adobe Illustrator 11 Build 196, SVG Export Plug-In . SVG Version: 6.0.0 Build 78)  -->
<!DOCTYPE svg PUBLIC "-//W3C//DTD SVG 1.0//EN"    "http://www.w3.org/TR/2001/REC-SVG-20010904/DTD/svg10.dtd" [
	<!ENTITY ns_flows "http://ns.adobe.com/Flows/1.0/">
	<!ENTITY ns_svg "http://www.w3.org/2000/svg">
	<!ENTITY ns_xlink "http://www.w3.org/1999/xlink">
]>
<svg  
	 width="147.401" height="318.401" viewBox="0 0 147.401 318.401"
	 style="overflow:visible;enable-background:new 0 0 147.401 318.401" xml:space="preserve">
	<style type="text/css">
	
	</style>
	<g id="Layer_1">
		<rect style="fill:#EDEDED;" width="147.401" height="147.401"/> 
		<g>
			<line style="fill:none;stroke:#000000;stroke-width:0.5;" x1="16.938" y1="128.312" x2="120.938" y2="128.312"/>
			<path d="M123.955,128.312c-1.42,0.527-3.182,1.426-4.273,2.377l0.86-2.377l-0.86-2.377
				C120.773,126.887,122.535,127.786,123.955,128.312z"/>
		</g>
		<rect y="171" style="fill:#EDEDED;" width="147.401" height="147.401"/> 
		<polygon style="fill:#CACACA;stroke:#000000;stroke-width:0.5;" points="94.5,136.299 109.091,127.875 94.5,119.451 94.5,124.5 
			74.114,124.5 74.114,131.25 94.5,131.25 "/>
		<g>
			<line style="fill:none;stroke:#000000;stroke-width:0.5;" x1="16.877" y1="128.377" x2="16.877" y2="24.377"/>
			<path d="M16.877,21.36c0.527,1.42,1.426,3.182,2.377,4.273l-2.377-0.86l-2.377,0.86C15.452,24.542,16.351,22.78,16.877,21.36z"/>
		</g>
		<g>
			<line style="fill:none;stroke:#000000;stroke-width:0.5;" x1="17.075" y1="128.166" x2="51.075" y2="82.666"/>
			<path d="M52.883,80.244c-0.428,1.453-0.762,3.402-0.653,4.847l-1.39-2.112l-2.419-0.734
				C49.837,81.939,51.612,81.066,52.883,80.244z"/>
		</g>
		
			<linearGradient id="XMLID_3_" gradientUnits="userSpaceOnUse" x1="174.8999" y1="47.4102" x2="169.8999" y2="52.9103" gradientTransform="matrix(1 0 0 1 -103 78.5)">
			<stop  offset="0" style="stop-color:#FFFFFF"/>
			<stop  offset="1" style="stop-color:#000000"/>
			<midPointStop  offset="0" style="stop-color:#FFFFFF"/>
			<midPointStop  offset="0.5" style="stop-color:#FFFFFF"/>
			<midPointStop  offset="1" style="stop-color:#000000"/>
		</linearGradient>
		<circle style="fill:url(#XMLID_3_);stroke:#000000;stroke-width:0.5;" cx="70" cy="128" r="5.657"/> 
		<polygon style="fill:#CACACA;stroke:#000000;stroke-width:0.5;" points="89.53,287.464 88.562,277.521 72.681,287.464 
			77.73,287.464 67.313,301.353 74.063,301.353 84.48,287.464 "/>
		<g>
			<line style="fill:none;stroke:#000000;stroke-width:0.5;" x1="16.938" y1="301.694" x2="120.938" y2="301.694"/>
			<path d="M123.955,301.694c-1.42,0.527-3.182,1.427-4.273,2.378l0.86-2.378l-0.86-2.377
				C120.773,300.269,122.535,301.168,123.955,301.694z"/>
		</g>
		<g>
			<line style="fill:none;stroke:#000000;stroke-width:0.5;" x1="16.877" y1="301.76" x2="16.877" y2="197.76"/>
			<path d="M16.877,194.742c0.527,1.42,1.426,3.182,2.377,4.273l-2.377-0.86l-2.377,0.86
				C15.452,197.924,16.351,196.162,16.877,194.742z"/>
		</g>
		<g>
			<line style="fill:none;stroke:#000000;stroke-width:0.5;" x1="17.075" y1="301.548" x2="51.075" y2="256.048"/>
			<path d="M52.883,253.627c-0.428,1.453-0.762,3.402-0.653,4.846l-1.39-2.111l-2.419-0.734
				C49.837,255.322,51.612,254.448,52.883,253.627z"/>
		</g>
		
			<linearGradient id="XMLID_4_" gradientUnits="userSpaceOnUse" x1="174.8999" y1="47.4097" x2="169.8999" y2="52.9097" gradientTransform="matrix(1 0 0 1 -103 251.8818)">
			<stop  offset="0" style="stop-color:#FFFFFF"/>
			<stop  offset="1" style="stop-color:#000000"/>
			<midPointStop  offset="0" style="stop-color:#FFFFFF"/>
			<midPointStop  offset="0.5" style="stop-color:#FFFFFF"/>
			<midPointStop  offset="1" style="stop-color:#000000"/>
		</linearGradient>
		<circle style="fill:url(#XMLID_4_);stroke:#000000;stroke-width:0.5;" cx="70" cy="301.382" r="5.657"/> 
		<line style="fill:none;" x1="142" y1="135" x2="142" y2="123"/>
		<text transform="matrix(1 0 0 1 126.5 130.5)"><tspan x="0" y="0" style="font-family:'Myriad-Roman'; font-size:12;">x</tspan></text>
		<text transform="matrix(1 0 0 1 54.7954 79.0605)"><tspan x="0" y="0" style="font-family:'Myriad-Roman'; font-size:12;">y</tspan></text>
		<text transform="matrix(1 0 0 1 14.4497 19.4917)"><tspan x="0" y="0" style="font-family:'Myriad-Roman'; font-size:12;">z</tspan></text>
		<text transform="matrix(1 0 0 1 126.1523 305.1611)"><tspan x="0" y="0" style="font-family:'Myriad-Roman'; font-size:12;">x</tspan></text>
		<text transform="matrix(1 0 0 1 54.4478 253.7207)"><tspan x="0" y="0" style="font-family:'Myriad-Roman'; font-size:12;">y</tspan></text>
		<text transform="matrix(1 0 0 1 14.1021 194.1528)"><tspan x="0" y="0" style="font-family:'Myriad-Roman'; font-size:12;">z</tspan></text>
		<text transform="matrix(1 0 0 1 137.1411 12.313)"><tspan x="0" y="0" style="font-family:'Myriad-Roman'; font-size:12;">1</tspan></text>
		<text transform="matrix(1 0 0 1 137.1411 183.9507)"><tspan x="0" y="0" style="font-family:'Myriad-Roman'; font-size:12;">2</tspan></text>
	</g>
</svg>
