<?xml version="1.0" encoding="iso-8859-1"?>
<!-- Generator: Adobe Illustrator 11 Build 196, SVG Export Plug-In . SVG Version: 6.0.0 Build 78)  -->
<!DOCTYPE svg PUBLIC "-//W3C//DTD SVG 1.0//EN"    "http://www.w3.org/TR/2001/REC-SVG-20010904/DTD/svg10.dtd" [
	<!ENTITY ns_flows "http://ns.adobe.com/Flows/1.0/">
	<!ENTITY ns_svg "http://www.w3.org/2000/svg">
	<!ENTITY ns_xlink "http://www.w3.org/1999/xlink">
]>
<svg  
	 width="147.402" height="166.031" viewBox="0 0 147.402 166.031"
	 style="overflow:visible;enable-background:new 0 0 147.402 166.031" xml:space="preserve">
	<style type="text/css">
	
	</style>
	<g id="Layer_1">
		<g>
			<path style="fill:none;stroke:#000000;" d="M0.441,141.192c8.228-12.718,11.061-15.921,13.624-18.757
				c2.563-2.837,4.182-3.477,5.26-4.118c1.079-0.641,3.642-1.556,5.531-1.464c1.889,0.091,3.912,0.458,5.396,1.464
				c1.484,1.006,3.777,2.562,5.396,4.3c1.619,1.739,3.103,3.203,5.396,6.497c2.292,3.294,1.752,1.83,8.092,12.078"/>
			<path style="fill:none;stroke:#000000;" d="M49.231,141.187c8.228,12.718,11.061,15.92,13.624,18.757s4.182,3.477,5.261,4.118
				c1.079,0.64,3.642,1.556,5.531,1.464c1.888-0.091,3.912-0.458,5.395-1.464c1.484-1.006,3.777-2.562,5.396-4.3
				c1.619-1.739,3.103-3.203,5.396-6.497c2.293-3.294,1.754-1.83,8.094-12.078"/>
		</g>
		<path style="fill:none;stroke:#000000;" d="M97.971,141.192c8.229-12.718,11.062-15.921,13.624-18.757
			c2.563-2.837,4.182-3.477,5.261-4.118s3.642-1.556,5.531-1.464c1.889,0.091,3.912,0.458,5.396,1.464s3.777,2.562,5.396,4.3
			c1.618,1.739,3.102,3.203,5.395,6.497c2.293,3.294,1.754,1.83,8.094,12.078"/>
		<path style="fill:none;stroke:#000000;" d="M0.438,83.923C12.781,71.205,17.03,68.002,20.874,65.166
			c3.845-2.836,6.273-3.477,7.89-4.117c1.619-0.641,5.463-1.556,8.296-1.464c2.833,0.091,5.868,0.457,8.093,1.464
			c2.226,1.006,5.666,2.562,8.094,4.3c2.428,1.739,4.654,3.203,8.093,6.497c3.438,3.294,2.629,1.83,12.139,12.078"/>
		<path style="fill:none;stroke:#000000;" d="M73.624,83.917c12.341,12.718,16.59,15.92,20.435,18.757
			c3.844,2.836,6.272,3.477,7.891,4.118c1.619,0.64,5.463,1.555,8.296,1.464c2.833-0.091,5.868-0.458,8.092-1.464
			c2.226-1.006,5.666-2.562,8.093-4.3c2.429-1.739,4.654-3.203,8.094-6.497c3.439-3.294,2.63-1.83,12.141-12.078"/>
		<path style="fill:none;stroke:#000000;" d="M0.508,24.845C25.194,12.126,33.692,8.924,41.381,6.088s12.545-3.477,15.78-4.118
			c3.237-0.64,10.926-1.555,16.592-1.464C79.418,0.598,85.488,0.964,89.94,1.97s11.331,2.562,16.188,4.301
			c4.856,1.738,9.308,3.202,16.188,6.496c6.876,3.294,5.258,1.83,24.277,12.078"/>
		<line style="fill:none;stroke:#000000;stroke-width:0.5;" x1="0.174" y1="25.458" x2="147.4" y2="25.458"/>
		<line style="fill:none;stroke:#000000;stroke-width:0.5;" x1="0.174" y1="83.92" x2="147.4" y2="83.92"/>
		<line style="fill:none;stroke:#000000;stroke-width:0.5;" x1="0.174" y1="141.188" x2="147.4" y2="141.188"/>
		<g>
			<g>
				<text transform="matrix(1 0 0 1 9.0786 35.021)"><tspan x="0" y="0" style="font-family:Liberation Sans; font-size:8.500000;">n=1</tspan></text>
			</g>
		</g>
		<g>
			<g>
				<text transform="matrix(1 0 0 1 9.0786 93.9873)"><tspan x="0" y="0" style="font-family:Liberation Sans; font-size:8.500000;">n=2</tspan></text>
			</g>
		</g>
		<g>
			<g>
				<text transform="matrix(1 0 0 1 9.0786 152.9541)"><tspan x="0" y="0" style="font-family:Liberation Sans; font-size:8.500000;">n=3</tspan></text>
			</g>
		</g>
		<rect y="41.542" style="fill:none;" width="147.402" height="2.835"/> 
	</g>
</svg>
