<?xml version="1.0" encoding="iso-8859-1"?>
<!-- Generator: Adobe Illustrator 11 Build 196, SVG Export Plug-In . SVG Version: 6.0.0 Build 78)  -->
<!DOCTYPE svg PUBLIC "-//W3C//DTD SVG 1.0//EN"    "http://www.w3.org/TR/2001/REC-SVG-20010904/DTD/svg10.dtd" [
	<!ENTITY ns_flows "http://ns.adobe.com/Flows/1.0/">
	<!ENTITY ns_svg "http://www.w3.org/2000/svg">
	<!ENTITY ns_xlink "http://www.w3.org/1999/xlink">
]>
<svg  
	 width="147.401" height="96.568" viewBox="0 0 147.401 96.568" style="overflow:visible;enable-background:new 0 0 147.401 96.568"
	 xml:space="preserve">
	<style type="text/css">
	
	</style>
	<g id="Layer_1">
		<g>
			<path style="fill:none;stroke:#000000;" d="M102.687,21.056L102.687,21.056c-0.001-0.007,0-0.014,0-0.021
				c0-8.325-9.973-15.074-22.274-15.074s-22.274,6.749-22.274,15.074c0,0.007,0.001,0.014,0.001,0.021h-0.001v53.93h0.001
				c0.017,8.315,9.982,15.053,22.273,15.053s22.256-6.738,22.273-15.053h0.001V21.056z"/>
			<g>
				<circle style="fill:#FFFFFF;stroke:#000000;stroke-miterlimit:1;" cx="22.438" cy="47.422" r="9.723"/> 
				<g>
					<g>
						<text transform="matrix(1 0 0 1 19.1025 51.0215)"><tspan x="0" y="0" style="font-family:Liberation Sans; font-size:8.500000;">A</tspan></text>
					</g>
				</g>
			</g>
			<line style="stroke:#000000;" x1="63.788" y1="23.5" x2="97.038" y2="23.5"/>
			<polyline style="fill:none;stroke:#000000;" points="80.25,23.5 80.25,0.5 22.25,0.5 22.25,37.137 "/>
			<polyline style="fill:none;stroke:#000000;" points="80.25,73.068 80.25,96.068 22.25,96.068 22.25,57.145 "/>
			<polygon style="fill:#00C9E0;" points="92.965,72 123.997,31.956 110.278,21.324 71.005,72 "/>
			<line style="stroke:#000000;" x1="63.788" y1="72.5" x2="97.038" y2="72.5"/>
			<polygon style="fill:#FFFFFF;" points="97.7,40.068 99.755,49.182 109.094,48.897 106,46.5 109.81,41.584 104.603,37.549 
				100.793,42.465 "/>
			<g>
				<g>
					<text transform="matrix(1 0 0 1 113.25 20.75)"><tspan x="0" y="0" style="font-family:Liberation Sans; font-size:10.200000;">light</tspan></text>
				</g>
			</g>
			<g>
				<path style="fill:none;stroke:#000000;stroke-width:0.5;" d="M88.25,71.75c-1.75-11.25-10.75-39.25-14-46"/>
				<path d="M73.202,23.572c0.873,0.841,2.132,1.799,3.197,2.255l-2.012,0.206l-1.415,1.445
					C73.278,26.36,73.315,24.778,73.202,23.572z"/>
			</g>
			<g>
				<path style="fill:none;stroke:#000000;stroke-width:0.5;" d="M84.5,72.25C75.75,67.75,72.75,67,67.25,70"/>
				<path d="M65.13,71.155c0.795-0.914,1.688-2.22,2.091-3.307l0.307,2l1.515,1.34C67.911,70.938,66.33,70.98,65.13,71.155z"/>
			</g>
			<g>
				<path style="fill:none;stroke:#000000;stroke-width:0.5;" d="M87.75,72c-5.25-9.75-18-21.75-27-22.25"/>
				<path d="M58.338,49.619c1.158-0.358,2.604-0.998,3.519-1.709l-0.792,1.861l0.582,1.938
					C60.816,50.899,59.449,50.103,58.338,49.619z"/>
			</g>
			<g>
				<path style="fill:none;stroke:#000000;stroke-width:0.5;" d="M79,71.75c5.25-4.5,15.75-9,19.5-8.5"/>
				<path d="M101.493,63.645c-1.477,0.334-3.342,0.993-4.55,1.792l1.167-2.243l-0.538-2.47
					C98.528,61.812,100.155,62.936,101.493,63.645z"/>
			</g>
		</g>
		<rect y="47.188" style="fill:none;" width="147.401" height="2.834"/> 
	</g>
</svg>
