<?xml version="1.0" encoding="iso-8859-1"?>
<!-- Generator: Adobe Illustrator 11 Build 196, SVG Export Plug-In . SVG Version: 6.0.0 Build 78)  -->
<!DOCTYPE svg PUBLIC "-//W3C//DTD SVG 1.0//EN"    "http://www.w3.org/TR/2001/REC-SVG-20010904/DTD/svg10.dtd" [
	<!ENTITY ns_flows "http://ns.adobe.com/Flows/1.0/">
	<!ENTITY ns_svg "http://www.w3.org/2000/svg">
	<!ENTITY ns_xlink "http://www.w3.org/1999/xlink">
]>
<svg  
	 width="147.402" height="96.568" viewBox="0 0 147.402 96.568" style="overflow:visible;enable-background:new 0 0 147.402 96.568"
	 xml:space="preserve">
	<style type="text/css">
	
	</style>
	<g id="Layer_1">
		<path style="fill:none;stroke:#000000;" d="M102.666,21.056L102.666,21.056c-0.001-0.007,0-0.014,0-0.021
			c0-8.325-9.973-15.074-22.274-15.074s-22.274,6.749-22.274,15.074c0,0.007,0.001,0.014,0.001,0.021h-0.001v53.93h0.001
			c0.017,8.315,9.982,15.053,22.273,15.053s22.256-6.738,22.273-15.053h0.001V21.056z"/>
		<circle style="fill:#FFFFFF;stroke:#000000;stroke-miterlimit:1;" cx="22.417" cy="47.422" r="9.723"/> 
		<g>
			<g>
				<text transform="matrix(1 0 0 1 19.0818 51.0215)"><tspan x="0" y="0" style="font-family:Liberation Sans; font-size:8.500000;">V</tspan></text>
			</g>
		</g>
		<line style="stroke:#000000;" x1="63.767" y1="23.5" x2="97.017" y2="23.5"/>
		<polyline style="fill:none;stroke:#000000;" points="80.229,23.5 80.229,0.5 22.229,0.5 22.229,37.137 "/>
		<polyline style="fill:none;stroke:#000000;" points="80.229,73.068 80.229,96.068 22.229,96.068 22.229,57.145 "/>
		<polygon style="fill:#00C9E0;" points="92.944,72 123.976,31.956 110.257,21.324 70.985,72 "/>
		<line style="stroke:#000000;" x1="63.767" y1="72.5" x2="97.017" y2="72.5"/>
		<polygon style="fill:#FFFFFF;" points="97.679,40.068 99.735,49.182 109.073,48.897 105.979,46.5 109.789,41.584 104.582,37.549 
			100.773,42.465 "/>
		<g>
			<g>
				<text transform="matrix(1 0 0 1 113.2292 20.75)"><tspan x="0" y="0" style="font-family:Liberation Sans; font-size:10.200000;">light</tspan></text>
			</g>
		</g>
		<g>
			<path style="fill:none;stroke:#000000;stroke-width:0.5;" d="M88.229,71.75c-1.75-11.25-10.75-39.25-14-46"/>
			<path d="M73.181,23.572c0.873,0.841,2.132,1.799,3.197,2.255l-2.012,0.206l-1.415,1.445
				C73.258,26.36,73.294,24.778,73.181,23.572z"/>
		</g>
		<g>
			<path style="fill:none;stroke:#000000;stroke-width:0.5;" d="M84.479,72.25c-8.75-4.5-11.75-5.25-17.25-2.25"/>
			<path d="M65.11,71.155c0.795-0.914,1.688-2.22,2.091-3.307l0.307,2l1.515,1.34C67.89,70.938,66.309,70.98,65.11,71.155z"/>
		</g>
		<g>
			<path style="fill:none;stroke:#000000;stroke-width:0.5;" d="M87.729,72c-5.25-9.75-18-21.75-27-22.25"/>
			<path d="M58.318,49.619c1.157-0.358,2.605-0.998,3.519-1.709l-0.792,1.861l0.581,1.938
				C60.796,50.899,59.428,50.103,58.318,49.619z"/>
		</g>
		<g>
			<path style="fill:none;stroke:#000000;stroke-width:0.5;" d="M75.792,72.138c5.25-4.5,15.75-9,19.5-8.5"/>
			<path d="M98.284,64.033c-1.477,0.334-3.342,0.993-4.55,1.792l1.167-2.243l-0.538-2.47C95.32,62.199,96.947,63.324,98.284,64.033z
				"/>
		</g>
		<rect y="44.667" style="fill:none;" width="147.402" height="2.835"/> 
	</g>
</svg>
