<?xml version="1.0" encoding="iso-8859-1"?>
<!-- Generator: Adobe Illustrator 11 Build 196, SVG Export Plug-In . SVG Version: 6.0.0 Build 78)  -->
<!DOCTYPE svg PUBLIC "-//W3C//DTD SVG 1.0//EN"    "http://www.w3.org/TR/2001/REC-SVG-20010904/DTD/svg10.dtd" [
	<!ENTITY ns_flows "http://ns.adobe.com/Flows/1.0/">
	<!ENTITY ns_svg "http://www.w3.org/2000/svg">
	<!ENTITY ns_xlink "http://www.w3.org/1999/xlink">
]>
<svg  
	 width="147.401" height="49.684" viewBox="0 0 147.401 49.684" style="overflow:visible;enable-background:new 0 0 147.401 49.684"
	 xml:space="preserve">
	<g id="Layer_1">
		<g>
			<g>
				<path style="fill:none;stroke:#000000;" d="M0.518,24.845C1.347,12.126,1.632,8.924,1.89,6.088
					C2.148,3.251,2.312,2.611,2.42,1.97C2.529,1.33,2.787,0.415,2.977,0.506c0.19,0.091,0.394,0.458,0.544,1.464
					c0.149,1.006,0.38,2.562,0.543,4.301c0.163,1.738,0.312,3.202,0.543,6.496s0.177,1.83,0.815,12.078"/>
				<path style="fill:none;stroke:#000000;" d="M5.433,24.839C6.262,37.557,6.547,40.76,6.806,43.596
					c0.258,2.836,0.421,3.477,0.53,4.117s0.367,1.556,0.557,1.464c0.19-0.091,0.394-0.458,0.543-1.464s0.381-2.562,0.544-4.3
					c0.163-1.739,0.312-3.203,0.543-6.497s0.177-1.83,0.815-12.078"/>
			</g>
			<g>
				<path style="fill:none;stroke:#000000;" d="M10.272,24.845c0.829-12.718,1.114-15.92,1.373-18.757
					c0.258-2.837,0.421-3.477,0.53-4.118c0.109-0.641,0.367-1.556,0.557-1.464c0.19,0.091,0.395,0.458,0.544,1.464
					s0.38,2.562,0.543,4.301c0.163,1.738,0.312,3.202,0.543,6.496s0.177,1.83,0.815,12.078"/>
				<path style="fill:none;stroke:#000000;" d="M15.188,24.839c0.829,12.718,1.114,15.921,1.373,18.757
					c0.258,2.836,0.421,3.477,0.53,4.117c0.109,0.641,0.367,1.556,0.557,1.464c0.19-0.091,0.394-0.458,0.544-1.464
					c0.149-1.006,0.38-2.562,0.543-4.3c0.163-1.739,0.312-3.203,0.543-6.497s0.177-1.83,0.815-12.078"/>
			</g>
			<g>
				<path style="fill:none;stroke:#000000;" d="M20.026,24.845c0.829-12.718,1.114-15.92,1.373-18.757
					c0.258-2.837,0.421-3.477,0.53-4.118c0.108-0.641,0.367-1.556,0.557-1.464c0.19,0.091,0.394,0.458,0.543,1.464
					s0.38,2.562,0.543,4.301c0.163,1.738,0.312,3.202,0.543,6.496c0.231,3.294,0.177,1.83,0.815,12.078"/>
				<path style="fill:none;stroke:#000000;" d="M24.942,24.839c0.829,12.718,1.114,15.921,1.373,18.757
					c0.258,2.836,0.421,3.477,0.53,4.117c0.109,0.641,0.367,1.556,0.557,1.464c0.19-0.091,0.394-0.458,0.544-1.464
					c0.149-1.006,0.38-2.562,0.543-4.3c0.163-1.739,0.312-3.203,0.543-6.497s0.177-1.83,0.815-12.078"/>
			</g>
			<g>
				<path style="fill:none;stroke:#000000;" d="M29.781,24.845c0.829-12.718,1.114-15.92,1.373-18.757
					c0.258-2.837,0.421-3.477,0.53-4.118c0.108-0.641,0.367-1.556,0.557-1.464c0.19,0.091,0.394,0.458,0.543,1.464
					s0.38,2.562,0.543,4.301c0.163,1.738,0.312,3.202,0.543,6.496c0.231,3.294,0.177,1.83,0.815,12.078"/>
				<path style="fill:none;stroke:#000000;" d="M34.696,24.839c0.829,12.718,1.114,15.921,1.373,18.757
					c0.258,2.836,0.421,3.477,0.53,4.117c0.108,0.641,0.367,1.556,0.557,1.464c0.19-0.091,0.394-0.458,0.543-1.464
					s0.38-2.562,0.543-4.3c0.163-1.739,0.312-3.203,0.543-6.497s0.177-1.83,0.815-12.078"/>
			</g>
			<g>
				<path style="fill:none;stroke:#000000;" d="M39.535,24.845c0.829-12.718,1.115-15.92,1.373-18.757
					c0.258-2.837,0.421-3.477,0.53-4.118c0.108-0.641,0.367-1.556,0.557-1.464c0.19,0.091,0.394,0.458,0.543,1.464
					s0.381,2.562,0.543,4.301c0.163,1.738,0.313,3.202,0.544,6.496s0.176,1.83,0.815,12.078"/>
				<path style="fill:none;stroke:#000000;" d="M44.451,24.839c0.829,12.718,1.114,15.921,1.373,18.757
					c0.258,2.836,0.421,3.477,0.53,4.117c0.109,0.641,0.367,1.556,0.558,1.464c0.19-0.091,0.394-0.458,0.543-1.464
					s0.38-2.562,0.543-4.3c0.163-1.739,0.312-3.203,0.544-6.497c0.231-3.294,0.176-1.83,0.815-12.078"/>
			</g>
			<g>
				<path style="fill:none;stroke:#000000;" d="M49.29,24.845c0.829-12.718,1.115-15.92,1.373-18.757
					c0.258-2.837,0.421-3.477,0.53-4.118s0.367-1.556,0.557-1.464c0.19,0.091,0.394,0.458,0.543,1.464s0.38,2.562,0.543,4.301
					C53,8.009,53.149,9.473,53.38,12.767s0.177,1.83,0.815,12.078"/>
				<path style="fill:none;stroke:#000000;" d="M54.205,24.839c0.829,12.718,1.115,15.921,1.373,18.757
					c0.258,2.836,0.421,3.477,0.53,4.117c0.108,0.641,0.367,1.556,0.557,1.464c0.19-0.091,0.394-0.458,0.543-1.464
					s0.38-2.562,0.543-4.3c0.163-1.739,0.312-3.203,0.543-6.497s0.177-1.83,0.816-12.078"/>
			</g>
			<g>
				<path style="fill:none;stroke:#000000;" d="M59.044,24.845c0.829-12.718,1.115-15.92,1.373-18.757
					c0.258-2.837,0.421-3.477,0.53-4.118s0.367-1.556,0.557-1.464c0.19,0.091,0.394,0.458,0.543,1.464
					c0.15,1.006,0.381,2.562,0.544,4.301c0.163,1.738,0.312,3.202,0.543,6.496s0.177,1.83,0.815,12.078"/>
				<path style="fill:none;stroke:#000000;" d="M63.96,24.839c0.829,12.718,1.114,15.921,1.373,18.757
					c0.258,2.836,0.421,3.477,0.53,4.117s0.367,1.556,0.557,1.464c0.19-0.091,0.394-0.458,0.543-1.464s0.38-2.562,0.543-4.3
					c0.163-1.739,0.313-3.203,0.544-6.497s0.177-1.83,0.815-12.078"/>
			</g>
			<g>
				<path style="fill:none;stroke:#000000;" d="M68.799,24.845c0.829-12.718,1.114-15.92,1.373-18.757
					c0.258-2.837,0.421-3.477,0.53-4.118c0.109-0.641,0.367-1.556,0.557-1.464c0.19,0.091,0.394,0.458,0.544,1.464
					c0.149,1.006,0.38,2.562,0.543,4.301c0.163,1.738,0.312,3.202,0.543,6.496s0.177,1.83,0.815,12.078"/>
				<path style="fill:none;stroke:#000000;" d="M73.714,24.839c0.829,12.718,1.114,15.921,1.372,18.757
					c0.259,2.836,0.421,3.477,0.53,4.117s0.367,1.556,0.557,1.464c0.19-0.091,0.394-0.458,0.543-1.464
					c0.15-1.006,0.381-2.562,0.544-4.3c0.163-1.739,0.312-3.203,0.543-6.497s0.177-1.83,0.815-12.078"/>
			</g>
			<g>
				<path style="fill:none;stroke:#000000;" d="M78.553,24.845c0.829-12.718,1.114-15.92,1.373-18.757
					c0.258-2.837,0.421-3.477,0.53-4.118c0.109-0.641,0.367-1.556,0.558-1.464c0.19,0.091,0.394,0.458,0.543,1.464
					c0.149,1.006,0.38,2.562,0.543,4.301c0.163,1.738,0.312,3.202,0.543,6.496s0.177,1.83,0.815,12.078"/>
				<path style="fill:none;stroke:#000000;" d="M83.469,24.839c0.829,12.718,1.114,15.921,1.373,18.757
					c0.258,2.836,0.421,3.477,0.53,4.117s0.367,1.556,0.557,1.464c0.19-0.091,0.394-0.458,0.544-1.464
					c0.149-1.006,0.38-2.562,0.543-4.3c0.163-1.739,0.312-3.203,0.543-6.497s0.177-1.83,0.815-12.078"/>
			</g>
			<g>
				<path style="fill:none;stroke:#000000;" d="M88.308,24.845c0.829-12.718,1.114-15.92,1.373-18.757
					c0.258-2.837,0.421-3.477,0.53-4.118c0.109-0.641,0.367-1.556,0.558-1.464c0.19,0.091,0.394,0.458,0.543,1.464
					s0.38,2.562,0.543,4.301c0.163,1.738,0.312,3.202,0.543,6.496s0.177,1.83,0.815,12.078"/>
				<path style="fill:none;stroke:#000000;" d="M93.223,24.839c0.829,12.718,1.114,15.921,1.373,18.757
					c0.258,2.836,0.421,3.477,0.53,4.117c0.109,0.641,0.367,1.556,0.558,1.464c0.19-0.091,0.394-0.458,0.543-1.464
					c0.149-1.006,0.38-2.562,0.543-4.3c0.163-1.739,0.312-3.203,0.543-6.497s0.177-1.83,0.815-12.078"/>
			</g>
			<g>
				<path style="fill:none;stroke:#000000;" d="M98.062,24.845c0.829-12.718,1.114-15.92,1.373-18.757
					c0.258-2.837,0.421-3.477,0.53-4.118c0.108-0.641,0.367-1.556,0.557-1.464c0.19,0.091,0.394,0.458,0.543,1.464
					s0.38,2.562,0.543,4.301c0.163,1.738,0.312,3.202,0.543,6.496c0.231,3.294,0.177,1.83,0.815,12.078"/>
				<path style="fill:none;stroke:#000000;" d="M102.978,24.839c0.829,12.718,1.114,15.921,1.373,18.757
					c0.258,2.836,0.421,3.477,0.53,4.117c0.109,0.641,0.367,1.556,0.557,1.464c0.19-0.091,0.395-0.458,0.544-1.464
					s0.38-2.562,0.543-4.3c0.163-1.739,0.312-3.203,0.543-6.497c0.231-3.294,0.177-1.83,0.815-12.078"/>
			</g>
			<g>
				<path style="fill:none;stroke:#000000;" d="M107.816,24.845c0.829-12.718,1.114-15.92,1.373-18.757
					c0.258-2.837,0.421-3.477,0.53-4.118c0.108-0.641,0.367-1.556,0.557-1.464c0.19,0.091,0.394,0.458,0.543,1.464
					s0.38,2.562,0.543,4.301c0.163,1.738,0.313,3.202,0.544,6.496s0.177,1.83,0.815,12.078"/>
				<path style="fill:none;stroke:#000000;" d="M112.732,24.839c0.829,12.718,1.114,15.921,1.373,18.757
					c0.258,2.836,0.421,3.477,0.53,4.117c0.108,0.641,0.367,1.556,0.557,1.464c0.19-0.091,0.394-0.458,0.543-1.464
					s0.38-2.562,0.543-4.3c0.163-1.739,0.312-3.203,0.543-6.497c0.231-3.294,0.177-1.83,0.815-12.078"/>
			</g>
			<g>
				<path style="fill:none;stroke:#000000;" d="M117.571,24.845c0.829-12.718,1.114-15.92,1.373-18.757
					c0.258-2.837,0.421-3.477,0.53-4.118s0.367-1.556,0.557-1.464c0.19,0.091,0.394,0.458,0.543,1.464
					c0.15,1.006,0.381,2.562,0.544,4.301c0.163,1.738,0.312,3.202,0.543,6.496s0.177,1.83,0.815,12.078"/>
				<path style="fill:none;stroke:#000000;" d="M122.486,24.839c0.829,12.718,1.114,15.921,1.373,18.757
					c0.258,2.836,0.421,3.477,0.53,4.117c0.108,0.641,0.367,1.556,0.557,1.464c0.19-0.091,0.394-0.458,0.543-1.464
					s0.38-2.562,0.543-4.3c0.163-1.739,0.313-3.203,0.544-6.497s0.176-1.83,0.815-12.078"/>
			</g>
			<g>
				<path style="fill:none;stroke:#000000;" d="M127.326,24.845c0.829-12.718,1.114-15.92,1.373-18.757
					c0.258-2.837,0.421-3.477,0.53-4.118s0.367-1.556,0.557-1.464c0.19,0.091,0.394,0.458,0.543,1.464
					c0.15,1.006,0.381,2.562,0.544,4.301c0.163,1.738,0.312,3.202,0.543,6.496s0.177,1.83,0.815,12.078"/>
				<path style="fill:none;stroke:#000000;" d="M132.241,24.839c0.829,12.718,1.115,15.921,1.373,18.757
					c0.258,2.836,0.421,3.477,0.53,4.117c0.108,0.641,0.367,1.556,0.557,1.464c0.19-0.091,0.394-0.458,0.543-1.464
					s0.38-2.562,0.543-4.3c0.163-1.739,0.313-3.203,0.544-6.497s0.176-1.83,0.815-12.078"/>
			</g>
			<g>
				<path style="fill:none;stroke:#000000;" d="M137.08,24.845c0.829-12.718,1.114-15.92,1.373-18.757
					c0.258-2.837,0.421-3.477,0.53-4.118s0.367-1.556,0.557-1.464c0.19,0.091,0.394,0.458,0.544,1.464
					c0.149,1.006,0.38,2.562,0.543,4.301c0.163,1.738,0.312,3.202,0.543,6.496s0.177,1.83,0.815,12.078"/>
				<path style="fill:none;stroke:#000000;" d="M141.996,24.839c0.829,12.718,1.114,15.921,1.372,18.757
					c0.258,2.836,0.421,3.477,0.53,4.117s0.367,1.556,0.557,1.464c0.19-0.091,0.394-0.458,0.543-1.464s0.381-2.562,0.544-4.3
					c0.163-1.739,0.312-3.203,0.543-6.497s0.177-1.83,0.815-12.078"/>
			</g>
		</g>
		<rect y="26.529" style="fill:none;" width="147.401" height="2.834"/> 
	</g>
</svg>
