<?xml version="1.0" encoding="iso-8859-1"?>
<!-- Generator: Adobe Illustrator 11 Build 196, SVG Export Plug-In . SVG Version: 6.0.0 Build 78)  -->
<!DOCTYPE svg PUBLIC "-//W3C//DTD SVG 1.0//EN"    "http://www.w3.org/TR/2001/REC-SVG-20010904/DTD/svg10.dtd" [
	<!ENTITY ns_flows "http://ns.adobe.com/Flows/1.0/">
	<!ENTITY ns_svg "http://www.w3.org/2000/svg">
	<!ENTITY ns_xlink "http://www.w3.org/1999/xlink">
]>
<svg  
	 width="147.977" height="115.38" viewBox="0 0 147.977 115.38" style="overflow:visible;enable-background:new 0 0 147.977 115.38"
	 xml:space="preserve">
	<style type="text/css">
	
	</style>
	<g id="Layer_1">
		<rect x="33.719" y="0.25" style="fill:none;stroke:#000000;stroke-width:0.5;" width="114" height="87"/> 
		<rect x="33.719" y="19.139" style="fill:#EDEDED;stroke:#000000;stroke-width:0.5;" width="18.594" height="68.111"/> 
		<rect x="52.802" y="19.139" style="fill:#EDEDED;stroke:#000000;stroke-width:0.5;" width="18.594" height="68.111"/> 
		<rect x="71.884" y="19.139" style="fill:#EDEDED;stroke:#000000;stroke-width:0.5;" width="18.594" height="68.111"/> 
		<rect x="90.967" y="19.139" style="fill:#EDEDED;stroke:#000000;stroke-width:0.5;" width="18.594" height="68.111"/> 
		<rect x="110.049" y="19.139" style="fill:#EDEDED;stroke:#000000;stroke-width:0.5;" width="18.594" height="68.111"/> 
		<rect x="129.131" y="19.139" style="fill:#EDEDED;stroke:#000000;stroke-width:0.5;" width="18.594" height="68.111"/> 
		<g>
			<g>
				<text transform="matrix(1 0 0 1 17.886 22.5835)"><tspan x="0" y="0" style="font-family:Liberation Sans; font-size:7.650000;">1/6</tspan></text>
			</g>
		</g>
		<g>
			<g>
				<text transform="matrix(1 0 0 1 26.2234 90.917)"><tspan x="0" y="0" style="font-family:Liberation Sans; font-size:7.650000;">0</tspan></text>
			</g>
		</g>
		<g>
			<g>
				<text transform="matrix(1 0 0 1 40.886 99.25)"><tspan x="0" y="0" style="font-family:Liberation Sans; font-size:7.650000;">1</tspan></text>
			</g>
		</g>
		<g>
			<g>
				<text transform="matrix(1 0 0 1 59.9915 99.25)"><tspan x="0" y="0" style="font-family:Liberation Sans; font-size:7.650000;">2</tspan></text>
			</g>
		</g>
		<g>
			<g>
				<text transform="matrix(1 0 0 1 79.0969 99.25)"><tspan x="0" y="0" style="font-family:Liberation Sans; font-size:7.650000;">3</tspan></text>
			</g>
		</g>
		<g>
			<g>
				<text transform="matrix(1 0 0 1 98.2024 99.25)"><tspan x="0" y="0" style="font-family:Liberation Sans; font-size:7.650000;">4</tspan></text>
			</g>
		</g>
		<g>
			<g>
				<text transform="matrix(1 0 0 1 117.3079 99.25)"><tspan x="0" y="0" style="font-family:Liberation Sans; font-size:7.650000;">5</tspan></text>
			</g>
		</g>
		<g>
			<g>
				<text transform="matrix(1 0 0 1 136.4133 99.25)"><tspan x="0" y="0" style="font-family:Liberation Sans; font-size:7.650000;">6</tspan></text>
			</g>
		</g>
		<g>
			<g>
				<text transform="matrix(0 -1 1 0 10.0002 74.4302)"><tspan x="0" y="0" style="font-family:Liberation Sans; font-size:8.500000;">probability</tspan></text>
			</g>
		</g>
		<g>
			<g>
				<text transform="matrix(1 0 0 1 71.5525 110.917)"><tspan x="0" y="0" style="font-family:Liberation Sans; font-size:8.500000;">result</tspan></text>
			</g>
		</g>
		<rect x="0.575" y="54.75" style="fill:none;" width="147.402" height="2.835"/> 
	</g>
</svg>
