<?xml version="1.0" encoding="iso-8859-1"?>
<!-- Generator: Adobe Illustrator 11 Build 196, SVG Export Plug-In . SVG Version: 6.0.0 Build 78)  -->
<!DOCTYPE svg PUBLIC "-//W3C//DTD SVG 1.0//EN"    "http://www.w3.org/TR/2001/REC-SVG-20010904/DTD/svg10.dtd" [
	<!ENTITY ns_flows "http://ns.adobe.com/Flows/1.0/">
	<!ENTITY ns_svg "http://www.w3.org/2000/svg">
	<!ENTITY ns_xlink "http://www.w3.org/1999/xlink">
]>
<svg  
	 width="147.402" height="73.235" viewBox="0 0 147.402 73.235" style="overflow:visible;enable-background:new 0 0 147.402 73.235"
	 xml:space="preserve">
	<style type="text/css">
	
	</style>
	<g id="Layer_1">
		<g>
			<line style="fill:none;stroke:#000000;stroke-width:0.5;" x1="1.136" y1="17.424" x2="19.277" y2="17.424"/>
			<line style="fill:none;stroke:#000000;stroke-width:0.5;" x1="1.136" y1="35.566" x2="1.136" y2="17.424"/>
			<line style="fill:none;stroke:#000000;stroke-width:0.5;" x1="19.277" y1="35.566" x2="19.277" y2="17.424"/>
			<line style="fill:none;stroke:#000000;stroke-width:0.5;" x1="128.146" y1="17.424" x2="146.289" y2="17.424"/>
			<line style="fill:none;stroke:#000000;stroke-width:0.5;" x1="128.146" y1="35.566" x2="128.146" y2="17.424"/>
			<line style="fill:none;stroke:#000000;stroke-width:0.5;" x1="146.289" y1="35.566" x2="146.289" y2="17.424"/>
			<line style="fill:none;stroke:#000000;stroke-width:0.5;" x1="1.136" y1="35.566" x2="19.277" y2="35.566"/>
			<line style="fill:none;stroke:#000000;stroke-width:0.5;" x1="1.136" y1="53.708" x2="1.136" y2="35.566"/>
			<line style="fill:none;stroke:#000000;stroke-width:0.5;" x1="19.277" y1="35.566" x2="37.419" y2="35.566"/>
			<line style="fill:none;stroke:#000000;stroke-width:0.5;" x1="19.277" y1="53.708" x2="19.277" y2="35.566"/>
			<line style="fill:none;stroke:#000000;stroke-width:0.5;" x1="37.419" y1="53.708" x2="37.419" y2="35.566"/>
			<line style="fill:none;stroke:#000000;stroke-width:0.5;" x1="37.437" y1="35.566" x2="55.579" y2="35.566"/>
			<line style="fill:none;stroke:#000000;stroke-width:0.5;" x1="37.437" y1="53.708" x2="37.437" y2="35.566"/>
			<line style="fill:none;stroke:#000000;stroke-width:0.5;" x1="55.579" y1="35.566" x2="73.721" y2="35.566"/>
			<line style="fill:none;stroke:#000000;stroke-width:0.5;" x1="55.579" y1="53.708" x2="55.579" y2="35.566"/>
			<line style="fill:none;stroke:#000000;stroke-width:0.5;" x1="73.721" y1="35.566" x2="91.863" y2="35.566"/>
			<line style="fill:none;stroke:#000000;stroke-width:0.5;" x1="73.721" y1="53.708" x2="73.721" y2="35.566"/>
			<line style="fill:none;stroke:#000000;stroke-width:0.5;" x1="91.863" y1="35.566" x2="110.005" y2="35.566"/>
			<line style="fill:none;stroke:#000000;stroke-width:0.5;" x1="91.863" y1="53.708" x2="91.863" y2="35.566"/>
			<line style="fill:none;stroke:#000000;stroke-width:0.5;" x1="110.005" y1="35.566" x2="128.146" y2="35.566"/>
			<line style="fill:none;stroke:#000000;stroke-width:0.5;" x1="110.005" y1="53.708" x2="110.005" y2="35.566"/>
			<line style="fill:none;stroke:#000000;stroke-width:0.5;" x1="128.146" y1="35.566" x2="146.289" y2="35.566"/>
			<line style="fill:none;stroke:#000000;stroke-width:0.5;" x1="128.146" y1="53.708" x2="128.146" y2="35.566"/>
			<line style="fill:none;stroke:#000000;stroke-width:0.5;" x1="146.289" y1="53.708" x2="146.289" y2="35.566"/>
			<line style="fill:none;stroke:#000000;stroke-width:0.5;" x1="1.136" y1="53.708" x2="19.277" y2="53.708"/>
			<line style="fill:none;stroke:#000000;stroke-width:0.5;" x1="19.277" y1="53.708" x2="37.419" y2="53.708"/>
			<line style="fill:none;stroke:#000000;stroke-width:0.5;" x1="37.437" y1="53.708" x2="55.579" y2="53.708"/>
			<line style="fill:none;stroke:#000000;stroke-width:0.5;" x1="55.579" y1="53.708" x2="73.721" y2="53.708"/>
			<line style="fill:none;stroke:#000000;stroke-width:0.5;" x1="73.721" y1="53.708" x2="91.863" y2="53.708"/>
			<line style="fill:none;stroke:#000000;stroke-width:0.5;" x1="91.863" y1="53.708" x2="110.005" y2="53.708"/>
			<line style="fill:none;stroke:#000000;stroke-width:0.5;" x1="110.005" y1="53.708" x2="128.146" y2="53.708"/>
			<line style="fill:none;stroke:#000000;stroke-width:0.5;" x1="128.146" y1="53.708" x2="146.289" y2="53.708"/>
			<g>
				<g>
					<text transform="matrix(1 0 0 1 6.8452 50.6279)"><tspan x="0" y="0" style="font-family:Liberation Sans; font-size:8.500000;">Li</tspan></text>
				</g>
			</g>
			<g>
				<g>
					<text transform="matrix(1 0 0 1 7.1138 32.4863)"><tspan x="0" y="0" style="font-family:Liberation Sans; font-size:8.500000;">H</tspan></text>
				</g>
			</g>
			<g>
				<g>
					<text transform="matrix(1 0 0 1 23.2397 50.6279)"><tspan x="0" y="0" style="font-family:Liberation Sans; font-size:8.500000;">Be</tspan></text>
				</g>
			</g>
			<g>
				<g>
					<text transform="matrix(1 0 0 1 43.7417 50.6279)"><tspan x="0" y="0" style="font-family:Liberation Sans; font-size:8.500000;">B</tspan></text>
				</g>
			</g>
			<g>
				<g>
					<text transform="matrix(1 0 0 1 61.8872 50.6279)"><tspan x="0" y="0" style="font-family:Liberation Sans; font-size:8.500000;">C</tspan></text>
				</g>
			</g>
			<g>
				<g>
					<text transform="matrix(1 0 0 1 79.4512 50.6279)"><tspan x="0" y="0" style="font-family:Liberation Sans; font-size:8.500000;">N</tspan></text>
				</g>
			</g>
			<g>
				<g>
					<text transform="matrix(1 0 0 1 97.6807 50.6279)"><tspan x="0" y="0" style="font-family:Liberation Sans; font-size:8.500000;">O</tspan></text>
				</g>
			</g>
			<g>
				<g>
					<text transform="matrix(1 0 0 1 115.9556 50.6279)"><tspan x="0" y="0" style="font-family:Liberation Sans; font-size:8.500000;">F</tspan></text>
				</g>
			</g>
			<g>
				<g>
					<text transform="matrix(1 0 0 1 131.5967 50.6279)"><tspan x="0" y="0" style="font-family:Liberation Sans; font-size:8.500000;">Ne</tspan></text>
				</g>
			</g>
			<g>
				<g>
					<text transform="matrix(1 0 0 1 131.5967 32.4863)"><tspan x="0" y="0" style="font-family:Liberation Sans; font-size:8.500000;">He</tspan></text>
				</g>
			</g>
			<g>
				<g>
					<text transform="matrix(1 0 0 1 8.4561 23.8281)"><tspan x="0" y="0" style="font-family:Liberation Sans; font-size:6.800000;">1</tspan></text>
				</g>
			</g>
			<g>
				<g>
					<text transform="matrix(1 0 0 1 135.2563 23.8281)"><tspan x="0" y="0" style="font-family:Liberation Sans; font-size:6.800000;">2</tspan></text>
				</g>
			</g>
			<g>
				<g>
					<text transform="matrix(1 0 0 1 8.9224 42.6948)"><tspan x="0" y="0" style="font-family:Liberation Sans; font-size:6.800000;">3</tspan></text>
				</g>
			</g>
			<g>
				<g>
					<text transform="matrix(1 0 0 1 27.5894 42.6948)"><tspan x="0" y="0" style="font-family:Liberation Sans; font-size:6.800000;">4</tspan></text>
				</g>
			</g>
			<g>
				<g>
					<text transform="matrix(1 0 0 1 45.1226 42.6948)"><tspan x="0" y="0" style="font-family:Liberation Sans; font-size:6.800000;">5</tspan></text>
				</g>
			</g>
			<g>
				<g>
					<text transform="matrix(1 0 0 1 63.1851 42.6948)"><tspan x="0" y="0" style="font-family:Liberation Sans; font-size:6.800000;">6</tspan></text>
				</g>
			</g>
			<g>
				<g>
					<text transform="matrix(1 0 0 1 81.2476 42.6948)"><tspan x="0" y="0" style="font-family:Liberation Sans; font-size:6.800000;">7</tspan></text>
				</g>
			</g>
			<g>
				<g>
					<text transform="matrix(1 0 0 1 99.3105 42.6948)"><tspan x="0" y="0" style="font-family:Liberation Sans; font-size:6.800000;">8</tspan></text>
				</g>
			</g>
			<g>
				<g>
					<text transform="matrix(1 0 0 1 116.3726 42.6948)"><tspan x="0" y="0" style="font-family:Liberation Sans; font-size:6.800000;">9</tspan></text>
				</g>
			</g>
			<g>
				<g>
					<text transform="matrix(1 0 0 1 132.6562 42.6948)"><tspan x="0" y="0" style="font-family:Liberation Sans; font-size:6.800000;">10</tspan></text>
				</g>
			</g>
			<line style="fill:none;stroke:#000000;stroke-width:0.5;" x1="1.113" y1="71.852" x2="1.113" y2="53.71"/>
			<line style="fill:none;stroke:#000000;stroke-width:0.5;" x1="19.255" y1="71.852" x2="19.255" y2="53.71"/>
			<line style="fill:none;stroke:#000000;stroke-width:0.5;" x1="1.113" y1="71.852" x2="19.255" y2="71.852"/>
			<g>
				<g>
					<text transform="matrix(1 0 0 1 4.5635 68.772)"><tspan x="0" y="0" style="font-family:Liberation Sans; font-size:8.500000;">Na</tspan></text>
				</g>
			</g>
			<g>
				<g>
					<text transform="matrix(1 0 0 1 5.623 60.8389)"><tspan x="0" y="0" style="font-family:Liberation Sans; font-size:6.800000;">1</tspan></text>
				</g>
				<g>
					<text transform="matrix(1 0 0 1 9.4785 60.8389)"><tspan x="0" y="0" style="font-family:Liberation Sans; font-size:6.800000;">1</tspan></text>
				</g>
			</g>
			<g>
				<g>
					<text transform="matrix(1 0 0 1 31.1406 67)"><tspan x="0" y="0" style="font-family:Liberation Sans; font-size:8.500000;">...</tspan></text>
				</g>
			</g>
			<g>
				<g>
					<text transform="matrix(1 0 0 1 9.3906 12)"><tspan x="0" y="0" style="font-family:Liberation Sans; font-size:10.200000;">I</tspan></text>
				</g>
			</g>
			<g>
				<g>
					<text transform="matrix(1 0 0 1 26.6406 22)"><tspan x="0" y="0" style="font-family:Liberation Sans; font-size:10.200000;">II</tspan></text>
				</g>
			</g>
			<g>
				<g>
					<text transform="matrix(1 0 0 1 42.7739 22)"><tspan x="0" y="0" style="font-family:Liberation Sans; font-size:10.200000;">III</tspan></text>
				</g>
			</g>
			<g>
				<g>
					<text transform="matrix(1 0 0 1 59.9062 22)"><tspan x="0" y="0" style="font-family:Liberation Sans; font-size:10.200000;">IV</tspan></text>
				</g>
			</g>
			<g>
				<g>
					<text transform="matrix(1 0 0 1 79.3735 22)"><tspan x="0" y="0" style="font-family:Liberation Sans; font-size:10.200000;">V</tspan></text>
				</g>
			</g>
			<g>
				<g>
					<text transform="matrix(1 0 0 1 95.5068 22)"><tspan x="0" y="0" style="font-family:Liberation Sans; font-size:10.200000;">VI</tspan></text>
				</g>
			</g>
			<g>
				<g>
					<text transform="matrix(1 0 0 1 111.6406 22)"><tspan x="0" y="0" style="font-family:Liberation Sans; font-size:10.200000;">VII</tspan></text>
				</g>
			</g>
			<g>
				<g>
					<text transform="matrix(1 0 0 1 133.6406 12)"><tspan x="0" y="0" style="font-family:Liberation Sans; font-size:10.200000;">0</tspan></text>
				</g>
			</g>
		</g>
		<rect y="34.994" style="fill:none;" width="147.402" height="2.834"/> 
	</g>
</svg>
