<?xml version="1.0" encoding="iso-8859-1"?>
<!-- Generator: Adobe Illustrator 11 Build 196, SVG Export Plug-In . SVG Version: 6.0.0 Build 78)  -->
<!DOCTYPE svg PUBLIC "-//W3C//DTD SVG 1.0//EN"    "http://www.w3.org/TR/2001/REC-SVG-20010904/DTD/svg10.dtd" [
	<!ENTITY ns_flows "http://ns.adobe.com/Flows/1.0/">
	<!ENTITY ns_svg "http://www.w3.org/2000/svg">
	<!ENTITY ns_xlink "http://www.w3.org/1999/xlink">
]>
<svg  
	 width="147.401" height="126.234" viewBox="0 0 147.401 126.234"
	 style="overflow:visible;enable-background:new 0 0 147.401 126.234" xml:space="preserve">
	<g id="Layer_1">
		<g>
			<g>
				<g>
					<g>
						<path style="fill:none;stroke:#000000;stroke-width:1.5;" d="M2.974,24.148c1.501-7.503,2.018-9.393,2.485-11.066
							c0.468-1.673,0.763-2.051,0.959-2.429s0.665-0.918,1.009-0.864c0.344,0.054,0.713,0.27,0.984,0.864
							c0.271,0.594,0.689,1.511,0.984,2.537c0.295,1.026,0.566,1.89,0.984,3.833c0.418,1.944,0.319,1.08,1.476,7.126"/>
						<path style="fill:none;stroke:#000000;stroke-width:1.5;" d="M11.875,24.144c1.501,7.504,2.018,9.393,2.485,11.067
							c0.468,1.673,0.763,2.051,0.96,2.429c0.197,0.378,0.665,0.918,1.009,0.864c0.345-0.054,0.714-0.27,0.984-0.864
							s0.689-1.511,0.984-2.537c0.296-1.026,0.566-1.89,0.985-3.833c0.418-1.943,0.32-1.08,1.477-7.126"/>
					</g>
					<g>
						<path style="fill:none;stroke:#000000;stroke-width:1.5;" d="M20.637,24.148c1.501-7.503,2.018-9.393,2.485-11.066
							c0.467-1.673,0.763-2.051,0.959-2.429s0.665-0.918,1.009-0.864c0.344,0.054,0.713,0.27,0.984,0.864
							c0.271,0.594,0.689,1.511,0.984,2.537c0.295,1.026,0.566,1.89,0.984,3.833c0.418,1.944,0.32,1.08,1.477,7.126"/>
						<path style="fill:none;stroke:#000000;stroke-width:1.5;" d="M29.538,24.144c1.501,7.504,2.018,9.393,2.485,11.067
							c0.468,1.673,0.763,2.051,0.959,2.429c0.197,0.378,0.665,0.918,1.009,0.864c0.344-0.054,0.713-0.27,0.984-0.864
							c0.271-0.594,0.689-1.511,0.984-2.537c0.295-1.026,0.566-1.89,0.984-3.833c0.418-1.943,0.32-1.08,1.476-7.126"/>
					</g>
					<g>
						<path style="fill:none;stroke:#000000;stroke-width:1.5;" d="M38.3,24.148c1.501-7.503,2.018-9.393,2.486-11.066
							c0.467-1.673,0.763-2.051,0.959-2.429c0.197-0.378,0.665-0.918,1.009-0.864c0.344,0.054,0.713,0.27,0.984,0.864
							c0.271,0.594,0.689,1.511,0.984,2.537c0.295,1.026,0.566,1.89,0.984,3.833c0.418,1.944,0.32,1.08,1.477,7.126"/>
						<path style="fill:none;stroke:#000000;stroke-width:1.5;" d="M47.202,24.144c1.501,7.504,2.018,9.393,2.485,11.067
							c0.467,1.673,0.763,2.051,0.959,2.429c0.197,0.378,0.665,0.918,1.009,0.864c0.344-0.054,0.713-0.27,0.984-0.864
							c0.271-0.594,0.689-1.511,0.984-2.537c0.295-1.026,0.566-1.89,0.984-3.833c0.418-1.943,0.32-1.08,1.477-7.126"/>
					</g>
					<g>
						<path style="fill:none;stroke:#000000;stroke-width:1.5;" d="M55.964,24.148c1.501-7.503,2.018-9.393,2.485-11.066
							c0.467-1.673,0.763-2.051,0.959-2.429s0.665-0.918,1.009-0.864c0.345,0.054,0.714,0.27,0.984,0.864
							c0.271,0.594,0.689,1.511,0.984,2.537c0.295,1.026,0.566,1.89,0.984,3.833c0.418,1.944,0.32,1.08,1.477,7.126"/>
						<path style="fill:none;stroke:#000000;stroke-width:1.5;" d="M64.865,24.144c1.501,7.504,2.018,9.393,2.485,11.067
							c0.467,1.673,0.763,2.051,0.959,2.429c0.197,0.378,0.665,0.918,1.009,0.864c0.344-0.054,0.713-0.27,0.984-0.864
							c0.271-0.594,0.689-1.511,0.984-2.537c0.295-1.026,0.566-1.89,0.984-3.833c0.418-1.943,0.32-1.08,1.477-7.126"/>
					</g>
					<g>
						<path style="fill:none;stroke:#000000;stroke-width:1.5;" d="M73.628,24.148c1.5-7.503,2.018-9.393,2.485-11.066
							c0.467-1.673,0.763-2.051,0.959-2.429s0.665-0.918,1.009-0.864c0.344,0.054,0.713,0.27,0.984,0.864
							c0.271,0.594,0.689,1.511,0.984,2.537c0.295,1.026,0.566,1.89,0.984,3.833c0.418,1.944,0.32,1.08,1.477,7.126"/>
						<path style="fill:none;stroke:#000000;stroke-width:1.5;" d="M82.528,24.144c1.501,7.504,2.018,9.393,2.486,11.067
							c0.467,1.673,0.763,2.051,0.959,2.429c0.197,0.378,0.665,0.918,1.009,0.864c0.345-0.054,0.714-0.27,0.984-0.864
							c0.271-0.594,0.689-1.511,0.984-2.537c0.295-1.026,0.566-1.89,0.984-3.833c0.418-1.943,0.32-1.08,1.477-7.126"/>
					</g>
					<g>
						<path style="fill:none;stroke:#000000;stroke-width:1.5;" d="M91.291,24.148c1.501-7.503,2.018-9.393,2.485-11.066
							c0.468-1.673,0.763-2.051,0.96-2.429s0.665-0.918,1.009-0.864c0.344,0.054,0.713,0.27,0.984,0.864
							c0.271,0.594,0.689,1.511,0.984,2.537c0.295,1.026,0.566,1.89,0.984,3.833c0.418,1.944,0.32,1.08,1.477,7.126"/>
						<path style="fill:none;stroke:#000000;stroke-width:1.5;" d="M100.192,24.144c1.501,7.504,2.018,9.393,2.485,11.067
							c0.467,1.673,0.763,2.051,0.959,2.429c0.197,0.378,0.665,0.918,1.009,0.864c0.345-0.054,0.714-0.27,0.985-0.864
							c0.271-0.594,0.689-1.511,0.984-2.537c0.295-1.026,0.566-1.89,0.984-3.833s0.32-1.08,1.477-7.126"/>
					</g>
					<g>
						<path style="fill:none;stroke:#000000;stroke-width:1.5;" d="M108.955,24.148c1.501-7.503,2.018-9.393,2.486-11.066
							c0.467-1.673,0.763-2.051,0.959-2.429s0.665-0.918,1.009-0.864c0.345,0.054,0.714,0.27,0.984,0.864
							c0.271,0.594,0.689,1.511,0.984,2.537c0.295,1.026,0.566,1.89,0.984,3.833c0.418,1.944,0.32,1.08,1.477,7.126"/>
						<path style="fill:none;stroke:#000000;stroke-width:1.5;" d="M117.855,24.144c1.501,7.504,2.018,9.393,2.485,11.067
							c0.468,1.673,0.763,2.051,0.96,2.429c0.197,0.378,0.665,0.918,1.009,0.864c0.345-0.054,0.714-0.27,0.984-0.864
							c0.271-0.594,0.689-1.511,0.984-2.537c0.295-1.026,0.566-1.89,0.984-3.833s0.32-1.08,1.477-7.126"/>
					</g>
					<g>
						<path style="fill:none;stroke:#000000;stroke-width:1.5;" d="M126.618,24.148c1.501-7.503,2.018-9.393,2.485-11.066
							c0.468-1.673,0.763-2.051,0.96-2.429s0.665-0.918,1.009-0.864c0.345,0.054,0.714,0.27,0.984,0.864
							c0.271,0.594,0.689,1.511,0.984,2.537c0.295,1.026,0.566,1.89,0.984,3.833c0.418,1.944,0.32,1.08,1.477,7.126"/>
						<path style="fill:none;stroke:#000000;stroke-width:1.5;" d="M135.519,24.144c1.501,7.504,2.018,9.393,2.485,11.067
							c0.468,1.673,0.763,2.051,0.96,2.429c0.197,0.378,0.665,0.918,1.009,0.864c0.345-0.054,0.714-0.27,0.984-0.864
							c0.271-0.594,0.689-1.511,0.984-2.537c0.295-1.026,0.566-1.89,0.984-3.833s0.32-1.08,1.477-7.126"/>
					</g>
				</g>
				<rect x="144.534" y="23.125" style="fill:#FFFFFF;" width="2.581" height="6.859"/> 
				<rect x="0.286" y="20.199" style="fill:#FFFFFF;" width="2.581" height="6.859"/> 
				<rect x="2.987" y="0.25" style="fill:none;stroke:#000000;stroke-width:0.5;" width="141.403" height="47.79"/> 
			</g>
			<g>
				
					<radialGradient id="XMLID_12_" cx="54.082" cy="329.6306" r="215" fx="54.082" fy="329.6306" gradientTransform="matrix(0.59 0 0 0.59 41.0059 -5.4175)" gradientUnits="userSpaceOnUse">
					<stop  offset="0" style="stop-color:#000000"/>
					<stop  offset="0.3915" style="stop-color:#161616"/>
					<stop  offset="0.5709" style="stop-color:#323232"/>
					<stop  offset="0.7067" style="stop-color:#4A4A4A"/>
					<stop  offset="0.81" style="stop-color:#626262"/>
					<stop  offset="1" style="stop-color:#E4E4E4"/>
					<midPointStop  offset="0" style="stop-color:#000000"/>
					<midPointStop  offset="0.84" style="stop-color:#000000"/>
					<midPointStop  offset="0.81" style="stop-color:#626262"/>
					<midPointStop  offset="0.5" style="stop-color:#626262"/>
					<midPointStop  offset="1" style="stop-color:#E4E4E4"/>
				</radialGradient>
				<ellipse style="fill:url(#XMLID_12_);stroke:#000000;stroke-width:0.5;" cx="73.722" cy="69.796" rx="35.6" ry="7.855"/> 
				<path style="fill:none;stroke:#000000;stroke-width:0.5;" d="M38.122,118.129c0,4.338,15.939,7.855,35.6,7.855
					s35.6-3.517,35.6-7.855"/>
				<g>
					<path style="fill:none;stroke:#000000;stroke-width:1.5;" d="M38.154,92.885c0.506-6.936,0.68-8.63,0.838-10.127
						c0.158-1.497,0.257-1.763,0.324-2.067c0.066-0.303,0.044-0.667,0.16-0.482c0.116,0.185,0.155,0.54,0.246,1.236
						c0.091,0.696,0.245,1.772,0.344,2.91c0.1,1.137,0.302,2.127,0.443,4.228c0.141,2.102,0.147,1.18,0.64,7.661"/>
					<path style="fill:none;stroke:#000000;stroke-width:1.5;" d="M41.098,96.105c0.99,7.715,1.434,9.898,1.818,11.703
						c0.383,1.805,0.576,2.32,0.737,2.753s0.709,1.069,0.991,1.111c0.283,0.043,0.585-0.069,0.808-0.587
						c0.222-0.518,0.565-1.318,0.807-2.26c0.242-0.943,0.464-1.73,0.807-3.556c0.343-1.826,0.374-1.199,1.471-6.993"/>
					<path style="fill:none;stroke:#000000;stroke-width:1.5;" d="M48.537,98.276c1.959-7.246,2.634-9.046,3.244-10.64
						s0.996-1.92,1.252-2.265c0.257-0.344,0.868-0.804,1.317-0.69c0.45,0.113,0.932,0.393,1.285,1.033
						c0.353,0.64,0.899,1.63,1.285,2.706c0.386,1.077,0.739,1.987,1.285,4.002s0.417,1.338,1.927,7.583"/>
					<path style="fill:none;stroke:#000000;stroke-width:1.5;" d="M60.132,100.005c2.271,7.631,3.052,9.564,3.759,11.277
						c0.708,1.713,1.154,2.116,1.452,2.51c0.298,0.395,1.005,0.974,1.526,0.949s1.08-0.209,1.488-0.781
						c0.41-0.571,1.042-1.453,1.489-2.454c0.447-1.001,0.856-1.842,1.489-3.75c0.633-1.908,0.484-1.053,2.233-7.001"/>
					<path style="fill:none;stroke:#000000;stroke-width:1.5;" d="M109.273,93.307c-0.509,8.049-0.7,11.354-0.768,11.942
						c-0.099,0.848-0.16,2.128-0.246,2.704c-0.066,0.444-0.081,1.07-0.197,1.131c-0.116,0.061-0.4,0.039-0.491-0.465
						c-0.091-0.503-0.146-1.263-0.246-2.19s-0.203-1.687-0.344-3.491c-0.141-1.804-0.147-1.131-0.836-6.736"/>
					<path style="fill:none;stroke:#000000;stroke-width:1.5;" d="M106.145,96.203c-1.032-7.277-1.721-8.998-2.212-10.522
						c-0.488-1.515-0.812-1.804-0.973-2.127c-0.162-0.324-0.545-0.735-0.828-0.586c-0.283,0.148-0.436,0.522-0.658,1.19
						c-0.222,0.668-0.544,1.646-0.787,2.753c-0.242,1.106-0.493,2.071-0.836,4.13c-0.343,2.059-0.244,1.356-1.351,7.679"/>
					<path style="fill:none;stroke:#000000;stroke-width:1.5;" d="M98.473,98.634c-1.719,7.501-2.634,9.752-3.244,11.509
						c-0.61,1.757-0.996,2.188-1.252,2.601s-0.867,1.036-1.317,1.043s-0.932-0.143-1.285-0.688
						c-0.354-0.545-0.899-1.389-1.285-2.362c-0.385-0.973-0.738-1.789-1.285-3.657c-0.546-1.869-0.417-1.023-1.927-6.863"/>
					<path style="fill:none;stroke:#000000;stroke-width:1.5;" d="M86.892,100.151c-2.27-7.35-3.052-9.187-3.759-10.812
						c-0.707-1.626-1.154-1.974-1.452-2.332c-0.297-0.357-1.005-0.85-1.526-0.76s-1.08,0.343-1.489,0.964
						c-0.409,0.622-1.042,1.582-1.489,2.638c-0.447,1.056-0.856,1.947-1.489,3.934c-0.632,1.986-0.484,1.112-2.233,7.277"/>
				</g>
				<rect x="109.479" y="92.178" style="fill:#FFFFFF;" width="2.581" height="6.859"/> 
				<rect x="35.342" y="89.008" style="fill:#FFFFFF;" width="2.581" height="6.858"/> 
				<line style="fill:none;stroke:#000000;stroke-width:0.5;" x1="109.331" y1="69.759" x2="109.331" y2="118.138"/>
				<line style="fill:none;stroke:#000000;stroke-width:0.5;" x1="38.089" y1="69.722" x2="38.089" y2="118.101"/>
			</g>
		</g>
		<rect y="61.699" style="fill:none;" width="147.401" height="2.834"/> 
	</g>
</svg>
