<?xml version="1.0" encoding="iso-8859-1"?>
<!-- Generator: Adobe Illustrator 11 Build 196, SVG Export Plug-In . SVG Version: 6.0.0 Build 78)  -->
<!DOCTYPE svg PUBLIC "-//W3C//DTD SVG 1.0//EN"    "http://www.w3.org/TR/2001/REC-SVG-20010904/DTD/svg10.dtd" [
	<!ENTITY ns_flows "http://ns.adobe.com/Flows/1.0/">
	<!ENTITY ns_svg "http://www.w3.org/2000/svg">
	<!ENTITY ns_xlink "http://www.w3.org/1999/xlink">
]>
<svg  
	 width="79.355" height="67.045" viewBox="0 0 79.355 67.045" style="overflow:visible;enable-background:new 0 0 79.355 67.045"
	 xml:space="preserve">
	<style type="text/css">
	
	</style>
	<g id="Layer_1">
		<polyline style="fill:none;stroke:#000000;stroke-miterlimit:1;" points="69.023,62.123 58.241,55.897 55.094,58.086 
			56.34,52.028 51.148,55.808 52.174,49.645 47.223,53.606 48.054,47.331 43.605,51.323 43.968,47.657 34.875,42.407 "/>
		<polyline style="fill:none;stroke:#000000;stroke-miterlimit:1;" points="34.398,42.241 25.305,47.49 22.312,45.343 
			23.545,51.191 18.525,47.334 19.481,53.602 14.656,49.633 15.333,56.018 10.71,51.911 11.032,55.73 0.25,61.955 "/>
		<polyline style="fill:none;stroke:#000000;stroke-miterlimit:1;" points="0.875,61.906 26.836,61.906 28.467,58.438 
			30.417,64.306 33.023,58.438 35.217,64.288 37.523,58.381 39.942,64.231 41.798,58.55 43.317,61.907 68.708,61.907 "/>
		<polyline style="fill:none;stroke:#000000;stroke-miterlimit:1;" points="34.679,2.966 34.679,15.416 38.147,17.047 
			32.278,18.997 38.147,21.603 32.297,23.797 38.203,26.103 32.354,28.521 38.034,30.378 34.678,31.896 34.678,42.396 "/>
		<polyline style="fill:none;stroke:#000000;stroke-miterlimit:1;" points="68.964,61.833 55.985,39.35 52.165,39.671 
			56.273,35.048 49.887,35.726 53.857,30.901 47.589,31.856 51.446,26.837 45.598,28.07 47.745,25.076 35.05,3.086 "/>
		<polyline style="fill:none;stroke:#000000;stroke-miterlimit:1;" points="34.457,2.74 21.476,25.221 23.664,28.368 17.606,27.123 
			21.386,32.314 15.223,31.289 19.184,36.239 12.909,35.408 16.9,39.856 13.234,39.494 0.538,61.483 "/>
		<path style="fill:none;stroke:#000000;stroke-miterlimit:1;" d="M34.608,3.148c7.333-1,14.167-4.667,16.5-1.167
			s8.5,2.167,8.5,2.167"/>
		<path style="fill:none;stroke:#000000;stroke-miterlimit:1;" d="M68.796,61.565c2.667-3.833,1.333-14.833,4.5-14.667
			c3.167,0.167,5.667-3,5.667-3"/>
		<g>
			<text transform="matrix(1 0 0 1 19.5669 61.6899)"><tspan x="0" y="0" style="font-family:Liberation Sans; font-size:10.200000;">*</tspan></text>
		</g>
	</g>
</svg>
