<?xml version="1.0" encoding="iso-8859-1"?>
<!-- Generator: Adobe Illustrator 11 Build 196, SVG Export Plug-In . SVG Version: 6.0.0 Build 78)  -->
<!DOCTYPE svg PUBLIC "-//W3C//DTD SVG 1.0//EN"    "http://www.w3.org/TR/2001/REC-SVG-20010904/DTD/svg10.dtd" [
	<!ENTITY ns_flows "http://ns.adobe.com/Flows/1.0/">
	<!ENTITY ns_svg "http://www.w3.org/2000/svg">
	<!ENTITY ns_xlink "http://www.w3.org/1999/xlink">
]>
<svg  
	 width="144.392" height="96.343" viewBox="0 0 144.392 96.343" style="overflow:visible;enable-background:new 0 0 144.392 96.343"
	 xml:space="preserve">
	<style type="text/css">
	
	</style>
	<g id="Layer_1">
		<g>
			<path style="fill:#FFFFFF;stroke:#000000;stroke-width:0.5;" d="M117.063,3.845c-0.294,0-0.568,0.155-0.8,0.421L1.957,66.495
				v5.653l115.007-62.61V9.372c0.033,0.004,0.066,0.007,0.1,0.007c0.833,0,1.509-1.239,1.509-2.767
				C118.572,5.084,117.897,3.845,117.063,3.845z"/>
			<ellipse style="fill:#FFFFFF;stroke:#000000;stroke-width:0.5;" cx="1.759" cy="69.424" rx="1.509" ry="2.767"/> 
		</g>
		<g>
			<path style="fill:#FFFFFF;stroke:#000000;stroke-width:0.5;" d="M142.633,23.614c-0.294,0-0.568,0.154-0.8,0.421L27.527,86.264
				v5.652l115.007-62.61v-0.166c0.033,0.004,0.066,0.006,0.1,0.006c0.833,0,1.509-1.239,1.509-2.767S143.466,23.614,142.633,23.614z
				"/>
			<ellipse style="fill:#FFFFFF;stroke:#000000;stroke-width:0.5;" cx="27.329" cy="89.193" rx="1.509" ry="2.767"/> 
		</g>
		<g>
			<line style="fill:#FFFFFF;stroke:#000000;" x1="29.16" y1="42.223" x2="13.333" y2="50.797"/>
			<path d="M10.68,52.235c0.998-1.14,2.118-2.77,2.625-4.126l0.376,2.5l1.889,1.68C14.157,51.973,12.18,52.021,10.68,52.235z"/>
		</g>
		<g>
			<text transform="matrix(1 0 0 1 2.5698 55.7891)"><tspan x="0" y="0" style="font-family:Liberation Sans; font-size:8.500000;">I</tspan></text>
			<text transform="matrix(1 0 0 1 5.3481 58.7891)"><tspan x="0" y="0" style="font-family:Liberation Sans; font-size:7.650000;">2</tspan></text>
		</g>
		<g>
			<line style="fill:none;stroke:#000000;" x1="63.104" y1="35.844" x2="63.104" y2="15.844"/>
			<path d="M63.104,12.826c0.527,1.42,1.426,3.182,2.377,4.273l-2.377-0.86l-2.377,0.86C61.678,16.008,62.577,14.246,63.104,12.826z
				"/>
		</g>
		<text transform="matrix(1 0 0 1 59.5435 8.5996)"><tspan x="0" y="0" style="font-family:Liberation Sans-Bold'; font-size:8.500000;">B</tspan></text>
		<g>
			<line style="fill:#FFFFFF;stroke:#000000;" x1="35.469" y1="95.903" x2="51.295" y2="87.328"/>
			<path d="M53.949,85.891c-0.998,1.14-2.118,2.77-2.625,4.126l-0.376-2.5l-1.888-1.681C50.472,86.153,52.45,86.104,53.949,85.891z"
				/>
		</g>
		<g>
			<text transform="matrix(1 0 0 1 56.856 87.1621)"><tspan x="0" y="0" style="font-family:Liberation Sans; font-size:8.500000;">I</tspan></text>
			<text transform="matrix(1 0 0 1 59.6343 90.1621)"><tspan x="0" y="0" style="font-family:Liberation Sans; font-size:7.650000;">1</tspan></text>
		</g>
		<g>
			<line style="fill:none;stroke:#000000;" x1="57.856" y1="33.287" x2="45.856" y2="24.037"/>
			<path d="M43.46,22.197c1.446,0.45,3.391,0.813,4.836,0.726l-2.133,1.358l-0.771,2.408C45.11,25.269,44.264,23.48,43.46,22.197z"
				/>
		</g>
		<text transform="matrix(1 0 0 1 38.0435 21.0996)"><tspan x="0" y="0" style="font-family:Liberation Sans-Bold'; font-size:8.500000;">F</tspan></text>
	</g>
</svg>
