<?xml version="1.0" encoding="UTF-8" standalone="no"?>
<svg
   xmlns:dc="http://purl.org/dc/elements/1.1/"
   xmlns:cc="http://creativecommons.org/ns#"
   xmlns:rdf="http://www.w3.org/1999/02/22-rdf-syntax-ns#"
   xmlns:svg="http://www.w3.org/2000/svg"
   xmlns="http://www.w3.org/2000/svg"
   xmlns:xlink="http://www.w3.org/1999/xlink"
   xmlns:sodipodi="http://sodipodi.sourceforge.net/DTD/sodipodi-0.dtd"
   xmlns:inkscape="http://www.inkscape.org/namespaces/inkscape"
   version="1.0"
   width="676.000000pt"
   height="600.000000pt"
   viewBox="0 0 676.000000 600.000000"
   preserveAspectRatio="xMidYMid meet"
   id="svg3037"
   sodipodi:docname="tomato.svg">
  <defs
     id="defs3077">
    <marker
       inkscape:stockid="Arrow2Mend"
       orient="auto"
       refY="0.0"
       refX="0.0"
       id="Arrow2Mend"
       style="overflow:visible;">
      <path
         id="path3873"
         style="fill-rule:evenodd;stroke-width:0.62500000;stroke-linejoin:round;"
         d="M 8.7185878,4.0337352 L -2.2072895,0.016013256 L 8.7185884,-4.0017078 C 6.9730900,-1.6296469 6.9831476,1.6157441 8.7185878,4.0337352 z "
         transform="scale(0.6) rotate(180) translate(0,0)" />
    </marker>
    <marker
       inkscape:stockid="Arrow2Mstart"
       orient="auto"
       refY="0.0"
       refX="0.0"
       id="Arrow2Mstart"
       style="overflow:visible">
      <path
         id="path3870"
         style="fill-rule:evenodd;stroke-width:0.62500000;stroke-linejoin:round"
         d="M 8.7185878,4.0337352 L -2.2072895,0.016013256 L 8.7185884,-4.0017078 C 6.9730900,-1.6296469 6.9831476,1.6157441 8.7185878,4.0337352 z "
         transform="scale(0.6) translate(0,0)" />
    </marker>
    <linearGradient
       id="linearGradient4534">
      <stop
         style="stop-color:#ffffff;stop-opacity:1;"
         offset="0"
         id="stop4536" />
      <stop
         style="stop-color:#f13810;stop-opacity:0;"
         offset="1"
         id="stop4538" />
    </linearGradient>
    <linearGradient
       id="linearGradient4528">
      <stop
         id="stop4530"
         offset="0"
         style="stop-color:#ffffff;stop-opacity:1;" />
      <stop
         id="stop4532"
         offset="1"
         style="stop-color:#f13810;stop-opacity:1" />
    </linearGradient>
    <linearGradient
       id="linearGradient4484">
      <stop
         style="stop-color:#ffffff;stop-opacity:1;"
         offset="0"
         id="stop4486" />
      <stop
         style="stop-color:#f13810;stop-opacity:0;"
         offset="1"
         id="stop4488" />
    </linearGradient>
    <linearGradient
       id="linearGradient4468">
      <stop
         style="stop-color:#ffffff;stop-opacity:1;"
         offset="0"
         id="stop4470" />
      <stop
         style="stop-color:#ee2b00;stop-opacity:1;"
         offset="1"
         id="stop4472" />
    </linearGradient>
    <linearGradient
       id="linearGradient4460">
      <stop
         id="stop4462"
         offset="0"
         style="stop-color:#ee2b00;stop-opacity:1;" />
      <stop
         style="stop-color:#ee2b00;stop-opacity:0.49803922;"
         offset="0.5"
         id="stop4466" />
      <stop
         id="stop4464"
         offset="1"
         style="stop-color:#ee2b00;stop-opacity:0;" />
    </linearGradient>
    <linearGradient
       id="linearGradient4452">
      <stop
         style="stop-color:#ee2b00;stop-opacity:1;"
         offset="0"
         id="stop4454" />
      <stop
         style="stop-color:#ee2b00;stop-opacity:0;"
         offset="1"
         id="stop4456" />
    </linearGradient>
    <linearGradient
       id="linearGradient4430">
      <stop
         style="stop-color:#ff3f15;stop-opacity:1;"
         offset="0"
         id="stop4432" />
      <stop
         id="stop4448"
         offset="0.56151229"
         style="stop-color:#e3320b;stop-opacity:1;" />
      <stop
         style="stop-color:#aa1f00;stop-opacity:1;"
         offset="1"
         id="stop4434" />
    </linearGradient>
    <radialGradient
       inkscape:collect="always"
       xlink:href="#linearGradient4484-2"
       id="radialGradient4490-9"
       cx="472.55374"
       cy="421.81812"
       fx="472.55374"
       fy="421.81812"
       r="21.831842"
       gradientTransform="matrix(0.85180069,0.01490856,-0.0202197,1.5211416,78.561185,-226.87207)"
       gradientUnits="userSpaceOnUse" />
    <linearGradient
       id="linearGradient4484-2">
      <stop
         style="stop-color:#ffffff;stop-opacity:1;"
         offset="0"
         id="stop4486-8" />
      <stop
         style="stop-color:#f13810;stop-opacity:1"
         offset="1"
         id="stop4488-3" />
    </linearGradient>
    <radialGradient
       inkscape:collect="always"
       xlink:href="#linearGradient4430"
       id="radialGradient3036"
       gradientUnits="userSpaceOnUse"
       gradientTransform="matrix(-0.62665282,0.26827028,-0.18973749,-0.88841416,740.48357,572.196)"
       cx="395.83426"
       cy="464.26855"
       fx="395.83426"
       fy="464.26855"
       r="332.58725" />
    <radialGradient
       inkscape:collect="always"
       xlink:href="#linearGradient4484"
       id="radialGradient3038"
       gradientUnits="userSpaceOnUse"
       gradientTransform="matrix(0.85180069,0.01490856,-0.0202197,1.5211416,78.561185,-226.87207)"
       cx="472.55374"
       cy="421.81812"
       fx="472.55374"
       fy="421.81812"
       r="21.831842" />
    <radialGradient
       inkscape:collect="always"
       xlink:href="#linearGradient4534"
       id="radialGradient3040"
       gradientUnits="userSpaceOnUse"
       gradientTransform="matrix(1.1832014,-0.05468368,0.08225479,1.755947,-121.26904,-293.03112)"
       cx="472.55374"
       cy="421.81812"
       fx="472.55374"
       fy="421.81812"
       r="21.831842" />
    <marker
       inkscape:stockid="Arrow2Mstart"
       orient="auto"
       refY="0"
       refX="0"
       id="Arrow2Mstart-7"
       style="overflow:visible">
      <path
         inkscape:connector-curvature="0"
         id="path3870-6"
         style="fill-rule:evenodd;stroke-width:0.625;stroke-linejoin:round"
         d="M 8.7185878,4.0337352 -2.2072895,0.01601326 8.7185884,-4.0017078 c -1.7454984,2.3720609 -1.7354408,5.6174519 -6e-7,8.035443 z"
         transform="scale(0.6,0.6)" />
    </marker>
    <marker
       inkscape:stockid="Arrow2Mend"
       orient="auto"
       refY="0"
       refX="0"
       id="Arrow2Mend-2"
       style="overflow:visible">
      <path
         inkscape:connector-curvature="0"
         id="path3873-6"
         style="fill-rule:evenodd;stroke-width:0.625;stroke-linejoin:round"
         d="M 8.7185878,4.0337352 -2.2072895,0.01601326 8.7185884,-4.0017078 c -1.7454984,2.3720609 -1.7354408,5.6174519 -6e-7,8.035443 z"
         transform="scale(-0.6,-0.6)" />
    </marker>
    <marker
       inkscape:stockid="Arrow2Mstart"
       orient="auto"
       refY="0"
       refX="0"
       id="Arrow2Mstart-0"
       style="overflow:visible">
      <path
         inkscape:connector-curvature="0"
         id="path3870-8"
         style="fill-rule:evenodd;stroke-width:0.625;stroke-linejoin:round"
         d="M 8.7185878,4.0337352 -2.2072895,0.01601326 8.7185884,-4.0017078 c -1.7454984,2.3720609 -1.7354408,5.6174519 -6e-7,8.035443 z"
         transform="scale(0.6,0.6)" />
    </marker>
    <marker
       inkscape:stockid="Arrow2Mend"
       orient="auto"
       refY="0"
       refX="0"
       id="Arrow2Mend-7"
       style="overflow:visible">
      <path
         inkscape:connector-curvature="0"
         id="path3873-4"
         style="fill-rule:evenodd;stroke-width:0.625;stroke-linejoin:round"
         d="M 8.7185878,4.0337352 -2.2072895,0.01601326 8.7185884,-4.0017078 c -1.7454984,2.3720609 -1.7354408,5.6174519 -6e-7,8.035443 z"
         transform="scale(-0.6,-0.6)" />
    </marker>
  </defs>
  <sodipodi:namedview
     pagecolor="#ffffff"
     bordercolor="#666666"
     borderopacity="1"
     objecttolerance="10"
     gridtolerance="10"
     guidetolerance="10"
     inkscape:pageopacity="0"
     inkscape:pageshadow="2"
     inkscape:window-width="1280"
     inkscape:window-height="998"
     id="namedview3075"
     showgrid="false"
     inkscape:zoom="1.2115517"
     inkscape:cx="155.0747"
     inkscape:cy="525.10884"
     inkscape:window-x="0"
     inkscape:window-y="0"
     inkscape:window-maximized="1"
     inkscape:current-layer="svg3037"
     showguides="true"
     inkscape:guide-bbox="true" />
  <metadata
     id="metadata3039">
Created by potrace 1.11, written by Peter Selinger 2001-2013
<rdf:RDF>
  <cc:Work
     rdf:about="">
    <dc:format>image/svg+xml</dc:format>
    <dc:type
       rdf:resource="http://purl.org/dc/dcmitype/StillImage" />
  </cc:Work>
</rdf:RDF>
</metadata>
  <rect
     style="fill:#dedede;fill-opacity:1;stroke:none"
     id="rect4548"
     width="147.40158"
     height="318.2695"
     x="14.247446"
     y="5.0604835" />
  <g
     id="g3020"
     transform="matrix(0.21282879,0,0,0.21282879,-20.952895,17.277603)">
    <path
       inkscape:connector-curvature="0"
       id="path3047"
       d="m 359.80508,97.5 c -1.18376,-0.0098 -2.38649,0.372264 -3.49624,0.8 -19.58262,2.03666 -37.00028,21.47559 -57.44076,12.025 -23.12378,5.04596 -45.24138,21.64801 -61.57267,45.325 -28.52642,39.70412 -42.62442,98.1925 -39.57108,154.275 4.50445,42.81518 11.12508,88.97969 33.42618,120.85 24.08343,36.91122 45.62368,80.22909 79.35405,100.65 19.90679,14.41484 42.04747,19.38591 64.15071,20.725 7.4808,6.61375 18.8535,-9.34749 31.55445,-3 21.49353,-2.9333 40.29079,-19.90459 59.43609,-32.55 15.52458,-13.54737 28.91269,-31.2309 40.54226,-50.625 16.91341,-12.16917 18.6756,-40.95059 34.89177,-54.25 12.88236,-19.50798 23.42858,-43.25041 28.8175,-69.15 7.63778,-32.53689 0.0585,-66.16345 -4.02598,-98.375 -9.08808,-39.98927 -31.22184,-70.20513 -53.94452,-95.4 -10.44992,-7.19751 -19.14602,-4.81884 -22.23114,-22.375 -12.31258,-12.1272 -39.384,-10.81743 -44.56823,-24.25 -16.50691,1.41099 -33.30288,8.72839 -49.19458,-1.925 -14.22401,-9.723056 -25.92905,29.73842 -32.77283,-1.2 -1.00256,-1.136152 -2.17123,-1.540192 -3.35498,-1.55 z"
       style="fill:url(#radialGradient3036);fill-opacity:1;stroke:none" />
    <g
       style="fill:#088716;fill-opacity:1;stroke:none"
       id="g3023"
       transform="matrix(0.1,0,0,-0.1,0.88175478,564.17964)">
      <g
         style="fill:#088716;fill-opacity:1"
         id="g3025">
        <g
           style="fill:#088716;fill-opacity:1"
           id="g3027">
          <path
             style="fill:#088716;fill-opacity:1;stroke:none"
             id="path3029"
             d="m 4277,5893 c -2,-54 -17,-147 -31,-208 -15,-60 -31,-150 -35,-200 -7,-73 -18,-113 -59,-215 -27,-69 -53,-151 -57,-182 -10,-77 -34,-113 -82,-125 -22,-5 -38,-15 -38,-23 0,-8 -10,-35 -22,-60 -11,-25 -23,-53 -26,-62 -4,-10 -14,-18 -22,-18 -9,0 -13,-4 -10,-10 3,-5 -3,-20 -14,-32 -12,-12 -21,-36 -22,-52 0,-17 -3,-25 -6,-18 -4,10 -8,9 -17,-4 -7,-9 -27,-17 -44,-18 -18,0 -34,-7 -37,-15 -4,-9 -14,-11 -33,-7 -15,4 -22,3 -15,-1 14,-10 -10,-48 -25,-40 -4,3 -14,-10 -21,-29 -16,-43 -27,-43 -35,1 -4,19 -12,35 -18,35 -5,0 -8,7 -4,15 3,8 1,15 -5,15 -6,0 -7,5 -4,10 3,6 -1,17 -9,26 -9,8 -16,24 -16,34 0,10 -4,22 -10,25 -5,3 -10,14 -10,24 0,10 -7,24 -15,31 -8,7 -13,16 -10,20 3,4 -2,10 -10,14 -9,3 -15,18 -15,35 0,25 -3,29 -17,24 -17,-6 -17,-5 0,14 9,11 17,24 17,29 0,5 -5,2 -11,-6 -8,-12 -9,-8 -5,15 3,17 3,24 0,18 -11,-25 -22,-12 -14,16 6,22 4,32 -12,45 -17,15 -19,26 -15,79 6,79 23,145 46,177 10,14 23,41 29,60 37,114 51,173 57,240 4,41 13,86 20,100 7,14 16,48 20,75 4,28 13,72 22,98 8,27 12,51 9,55 -16,15 -65,-66 -81,-133 -10,-48 -25,-81 -45,-104 -61,-69 -85,-103 -100,-144 -9,-23 -24,-58 -33,-77 -32,-69 -67,-159 -78,-202 -15,-50 -18,-175 -5,-200 6,-13 4,-18 -6,-18 -10,0 -13,-9 -10,-30 2,-16 8,-30 13,-30 5,0 6,-7 2,-16 -6,-15 10,-83 28,-117 5,-10 7,-22 4,-26 -2,-5 2,-14 10,-21 8,-7 15,-23 15,-36 0,-16 6,-24 18,-25 10,0 12,-3 5,-6 -10,-4 -10,-9 1,-25 15,-20 11,-47 -8,-60 -6,-4 -6,-28 0,-71 9,-63 9,-65 -11,-63 -11,1 -43,23 -70,49 -27,26 -52,47 -57,47 -5,0 -20,12 -35,26 -32,32 -59,42 -160,60 -90,16 -244,23 -236,12 2,-5 -17,-8 -44,-9 -26,-1 -59,-4 -73,-8 -17,-5 -31,-3 -42,7 -16,14 -18,13 -18,-1 0,-10 6,-17 13,-17 6,-1 -8,-11 -33,-24 -24,-13 -50,-21 -58,-19 -7,3 -12,0 -10,-7 2,-7 -7,-13 -19,-15 -13,-1 -26,-5 -30,-10 -5,-4 3,-4 17,-1 25,7 25,7 0,-13 -14,-11 -27,-18 -29,-15 -5,5 -37,-39 -34,-48 2,-4 -5,-9 -15,-12 -19,-6 -20,-9 -71,-112 -18,-38 -43,-78 -55,-89 -11,-11 -23,-31 -25,-45 -1,-14 -7,-33 -12,-42 -19,-35 -4,-144 20,-149 30,-7 64,-2 74,10 10,12 9,14 -5,8 -10,-3 -18,-2 -18,2 0,5 8,12 18,16 16,7 15,8 -3,15 -15,7 -16,9 -4,9 9,1 19,10 22,22 3,12 10,18 16,14 6,-3 11,0 11,8 0,23 26,68 34,59 5,-4 7,0 5,8 -6,32 13,77 39,93 15,9 49,37 76,62 97,92 153,119 264,130 28,2 55,6 59,7 17,4 200,-13 241,-24 31,-8 42,-15 42,-29 0,-11 5,-19 11,-19 6,0 9,7 5,15 -3,8 -1,15 4,15 6,0 10,-5 10,-12 0,-6 3,-8 6,-5 9,8 44,-11 44,-23 0,-6 9,-19 21,-31 14,-14 19,-29 16,-45 -2,-13 0,-21 5,-18 5,3 8,-5 6,-18 -3,-32 52,-148 117,-243 41,-60 58,-95 67,-140 6,-33 17,-64 25,-68 7,-4 13,-15 13,-23 0,-8 4,-13 8,-10 5,3 22,-2 38,-10 22,-12 60,-15 152,-15 121,1 124,2 215,42 154,69 202,93 213,108 6,8 16,11 22,7 7,-4 12,-3 12,2 0,14 65,82 77,82 6,0 13,4 15,9 2,4 53,34 113,66 68,36 109,63 107,71 -2,8 3,12 11,8 13,-5 56,25 243,165 23,17 46,31 52,31 7,0 12,5 12,10 0,6 30,10 70,10 41,0 70,4 70,10 0,6 11,15 24,21 13,6 29,22 35,36 9,19 17,24 33,20 12,-4 49,3 82,14 34,12 88,23 120,26 33,2 68,9 78,14 16,9 101,9 92,0 -12,-12 68,-35 195,-57 80,-13 174,-33 209,-44 68,-21 152,-27 152,-10 0,6 -12,10 -27,10 -16,0 -55,11 -87,25 -33,13 -63,22 -68,19 -4,-3 -8,-1 -8,4 0,14 -151,71 -210,78 -30,4 -74,15 -98,26 -34,14 -69,18 -160,18 -82,0 -125,4 -144,14 -16,9 -30,11 -33,5 -9,-13 -79,-11 -93,3 -9,9 -12,8 -12,-7 0,-18 0,-18 -16,1 -15,19 -16,19 -10,-1 6,-19 5,-19 -8,-1 -14,18 -42,14 -31,-5 8,-13 -9,-11 -22,2 -17,17 -31,3 -26,-25 5,-24 3,-25 -31,-19 -30,5 -41,1 -61,-19 -24,-24 -80,-39 -160,-43 -16,-1 -48,-3 -70,-4 -22,-2 -58,-2 -80,-2 -35,1 -38,3 -23,15 10,7 15,16 11,19 -3,4 1,7 10,7 9,0 16,3 16,8 -3,18 2,32 12,32 5,0 7,-5 3,-12 -4,-7 -3,-8 5,-4 6,4 9,12 5,17 -3,6 4,13 16,16 16,4 18,8 8,14 -10,6 -10,11 0,21 9,9 12,9 12,0 0,-7 5,-12 10,-12 6,0 10,9 10,20 0,13 7,20 20,20 11,0 20,3 20,8 0,4 18,16 40,26 23,11 39,25 36,32 -3,7 2,10 15,7 11,-3 21,1 25,11 3,9 14,16 24,16 10,0 25,7 34,15 8,8 20,15 26,15 15,0 41,26 33,34 -9,8 44,26 79,26 31,0 31,0 10,23 -12,13 -20,26 -17,29 3,3 -33,22 -81,42 -92,39 -154,45 -244,25 -25,-5 -63,-12 -85,-16 -42,-6 -47,-11 -146,-106 -32,-32 -74,-64 -92,-72 -42,-17 -84,-57 -99,-92 -11,-27 -12,-27 -16,-5 -5,32 26,120 59,166 21,29 29,51 29,83 0,23 6,57 14,75 8,18 22,62 31,98 21,79 55,176 72,210 7,14 13,32 13,40 0,8 7,27 14,42 27,51 29,126 7,262 -12,72 -29,152 -39,180 -16,48 -69,116 -89,116 -6,0 -13,-43 -16,-97 z"
             inkscape:connector-curvature="0" />
          <path
             style="fill:#088716;fill-opacity:1;stroke:none"
             id="path3031"
             d="m 3776,4588 c -19,-11 -21,-29 -5,-45 15,-15 44,11 33,29 -6,10 -4,11 7,1 15,-15 33,-17 24,-4 -3,6 4,9 15,8 11,-1 20,-7 20,-13 0,-7 8,-10 20,-7 11,3 20,0 20,-6 0,-6 -7,-11 -15,-11 -8,0 -15,-5 -15,-11 0,-6 9,-9 20,-6 11,3 20,1 20,-5 0,-5 5,-6 10,-3 13,8 13,-1 -1,-27 -8,-15 -8,-19 0,-13 8,5 10,-1 5,-19 -4,-17 -2,-26 5,-26 7,0 11,14 9,35 -1,19 1,37 5,41 14,14 19,-5 12,-44 -4,-28 -13,-43 -30,-50 -15,-7 -26,-8 -30,-2 -11,18 -25,10 -25,-14 0,-26 29,-44 40,-25 5,7 10,8 14,1 14,-23 -72,-38 -119,-20 -29,10 -34,16 -29,32 6,19 5,19 -10,7 -22,-18 -33,-6 -15,16 13,17 13,17 -4,4 -16,-13 -20,-13 -28,0 -15,24 -10,31 21,24 24,-5 30,-3 30,10 0,9 -5,13 -11,9 -7,-4 -9,0 -5,13 5,15 -1,22 -28,32 -41,17 -39,35 12,87 23,24 37,33 40,24 3,-7 -3,-17 -12,-22 z"
             inkscape:connector-curvature="0" />
        </g>
      </g>
    </g>
    <path
       transform="matrix(1.2847766,-0.59356487,0.56900535,1.3402304,-484.87503,36.680379)"
       d="m 494.38558,421.81812 c 0,18.66951 -9.77444,33.80414 -21.83184,33.80414 -12.05739,0 -21.83184,-15.13463 -21.83184,-33.80414 0,-18.66952 9.77445,-33.80415 21.83184,-33.80415 12.0574,0 21.83184,15.13463 21.83184,33.80415 z"
       sodipodi:ry="33.804142"
       sodipodi:rx="21.831842"
       sodipodi:cy="421.81812"
       sodipodi:cx="472.55374"
       id="path4450"
       style="fill:url(#radialGradient3038);fill-opacity:1;stroke:none"
       sodipodi:type="arc" />
    <path
       transform="matrix(1.2349191,0.00828245,-0.04782742,1.338319,-121.1203,-279.03248)"
       d="m 494.38558,421.81812 c 0,18.66951 -9.77444,33.80414 -21.83184,33.80414 -12.05739,0 -21.83184,-15.13463 -21.83184,-33.80414 0,-18.66952 9.77445,-33.80415 21.83184,-33.80415 12.0574,0 21.83184,15.13463 21.83184,33.80415 z"
       sodipodi:ry="33.804142"
       sodipodi:rx="21.831842"
       sodipodi:cy="421.81812"
       sodipodi:cx="472.55374"
       id="path4450-9"
       style="fill:url(#radialGradient3040);fill-opacity:1;stroke:none"
       sodipodi:type="arc" />
  </g>
  <path
     sodipodi:type="arc"
     style="fill:none;stroke:#000000;stroke-width:10.45744705;stroke-miterlimit:4;stroke-opacity:1;stroke-dasharray:none"
     id="path4559"
     sodipodi:cx="1012.7332"
     sodipodi:cy="424.30096"
     sodipodi:rx="175.28075"
     sodipodi:ry="283.6102"
     d="m 1188.014,424.30096 a 175.28075,283.6102 0 1 1 -350.56153,0 175.28075,283.6102 0 1 1 350.56153,0 z"
     transform="matrix(0.21005877,0,0,0.17412767,-95.915423,86.901134)" />
  <path
     sodipodi:type="arc"
     style="fill:none;stroke:#000000;stroke-width:12.06816959;stroke-miterlimit:4;stroke-opacity:1;stroke-dasharray:none"
     id="path4559-5"
     sodipodi:cx="1012.7332"
     sodipodi:cy="424.30096"
     sodipodi:rx="175.28075"
     sodipodi:ry="283.6102"
     d="m 1188.014,424.30096 a 175.28075,283.6102 0 1 1 -350.56153,0 175.28075,283.6102 0 1 1 350.56153,0 z"
     transform="matrix(0.21082023,0,0,0.13027614,-153.64642,199.77301)" />
  <text
     xml:space="preserve"
     style="font-size:8px;font-style:normal;font-variant:normal;font-weight:normal;font-stretch:normal;text-indent:0;text-align:start;text-decoration:none;line-height:125%;letter-spacing:0px;word-spacing:0px;text-transform:none;direction:ltr;block-progression:tb;writing-mode:lr-tb;text-anchor:start;baseline-shift:baseline;color:#000000;fill:#000000;fill-opacity:1;fill-rule:nonzero;stroke:none;stroke-width:1.24999988px;marker:none;visibility:visible;display:inline;overflow:visible;enable-background:accumulate;font-family:Liberation Sans;-inkscape-font-specification:Liberation Sans"
     x="101.06158"
     y="221.98351"
     id="text3828"
     sodipodi:linespacing="125%"><tspan
       sodipodi:role="line"
       id="tspan3830"
       x="101.06158"
       y="221.98351">vertical</tspan><tspan
       sodipodi:role="line"
       x="101.06158"
       y="231.98351"
       id="tspan3838">cross-section</tspan></text>
  <text
     xml:space="preserve"
     style="font-size:8px;font-style:normal;font-variant:normal;font-weight:normal;font-stretch:normal;text-indent:0;text-align:start;text-decoration:none;line-height:125%;letter-spacing:0px;word-spacing:0px;text-transform:none;direction:ltr;block-progression:tb;writing-mode:lr-tb;text-anchor:start;baseline-shift:baseline;color:#000000;fill:#000000;fill-opacity:1;fill-rule:nonzero;stroke:none;stroke-width:1.24999988px;marker:none;visibility:visible;display:inline;overflow:visible;enable-background:accumulate;font-family:Liberation Sans;-inkscape-font-specification:Liberation Sans"
     x="38.735352"
     y="304.35226"
     id="text3832"
     sodipodi:linespacing="125%"><tspan
       sodipodi:role="line"
       id="tspan3834"
       x="38.735352"
       y="304.35226">horizontal</tspan><tspan
       sodipodi:role="line"
       x="38.735352"
       y="314.35226"
       id="tspan3836">cross-section</tspan></text>
  <path
     style="color:#000000;fill:none;stroke:#000000;stroke-width:0.80000001;stroke-linecap:butt;stroke-linejoin:miter;stroke-miterlimit:4;stroke-opacity:1;stroke-dasharray:none;stroke-dashoffset:0;marker:none;marker-start:url(#Arrow2Mstart);marker-end:url(#Arrow2Mend);visibility:visible;display:inline;overflow:visible;enable-background:accumulate"
     d="m 116.41728,161.54482 0,-48.62284"
     id="path3840"
     inkscape:connector-curvature="0" />
  <text
     xml:space="preserve"
     style="font-size:8px;font-style:normal;font-variant:normal;font-weight:normal;font-stretch:normal;text-indent:0;text-align:start;text-decoration:none;line-height:125%;letter-spacing:0px;word-spacing:0px;text-transform:none;direction:ltr;block-progression:tb;writing-mode:lr-tb;text-anchor:start;baseline-shift:baseline;color:#000000;fill:#000000;fill-opacity:1;fill-rule:nonzero;stroke:none;stroke-width:1.24999988px;marker:none;visibility:visible;display:inline;overflow:visible;enable-background:accumulate;font-family:Liberation Sans;-inkscape-font-specification:Liberation Sans"
     x="118.34613"
     y="139.26903"
     id="text4472"
     sodipodi:linespacing="125%"><tspan
       sodipodi:role="line"
       id="tspan4474"
       x="118.34613"
       y="139.26903"
       style="font-style:italic;-inkscape-font-specification:Liberation Sans Italic">a</tspan></text>
  <path
     style="color:#000000;fill:none;stroke:#000000;stroke-width:0.80000001;stroke-linecap:butt;stroke-linejoin:miter;stroke-miterlimit:4;stroke-opacity:1;stroke-dasharray:none;stroke-dashoffset:0;marker:none;marker-start:url(#Arrow2Mstart);marker-end:url(#Arrow2Mend);visibility:visible;display:inline;overflow:visible;enable-background:accumulate"
     d="m 115.84839,162.80983 -34.426176,0"
     id="path3840-4"
     inkscape:connector-curvature="0"
     sodipodi:nodetypes="cc" />
  <text
     xml:space="preserve"
     style="font-size:8px;font-style:normal;font-variant:normal;font-weight:normal;font-stretch:normal;text-indent:0;text-align:start;text-decoration:none;line-height:125%;letter-spacing:0px;word-spacing:0px;text-transform:none;direction:ltr;block-progression:tb;writing-mode:lr-tb;text-anchor:start;baseline-shift:baseline;color:#000000;fill:#000000;fill-opacity:1;fill-rule:nonzero;stroke:none;stroke-width:1.24999988px;marker:none;visibility:visible;display:inline;overflow:visible;enable-background:accumulate;font-family:Liberation Sans;-inkscape-font-specification:Liberation Sans"
     x="97.483284"
     y="171.49889"
     id="text4472-7"
     sodipodi:linespacing="125%"><tspan
       sodipodi:role="line"
       id="tspan4474-5"
       x="97.483284"
       y="171.49889"
       style="font-style:italic;-inkscape-font-specification:Liberation Sans Italic">b</tspan></text>
  <path
     style="color:#000000;fill:none;stroke:#000000;stroke-width:0.80000001;stroke-linecap:butt;stroke-linejoin:miter;stroke-miterlimit:4;stroke-opacity:1;stroke-dasharray:none;stroke-dashoffset:0;marker:none;marker-start:url(#Arrow2Mstart);marker-end:url(#Arrow2Mend);visibility:visible;display:inline;overflow:visible;enable-background:accumulate"
     d="m 57.66984,255.20411 -34.426175,0"
     id="path3840-4-8"
     inkscape:connector-curvature="0"
     sodipodi:nodetypes="cc" />
  <text
     xml:space="preserve"
     style="font-size:8px;font-style:normal;font-variant:normal;font-weight:normal;font-stretch:normal;text-indent:0;text-align:start;text-decoration:none;line-height:125%;letter-spacing:0px;word-spacing:0px;text-transform:none;direction:ltr;block-progression:tb;writing-mode:lr-tb;text-anchor:start;baseline-shift:baseline;color:#000000;fill:#000000;fill-opacity:1;fill-rule:nonzero;stroke:none;stroke-width:1.24999988px;marker:none;visibility:visible;display:inline;overflow:visible;enable-background:accumulate;font-family:Liberation Sans;-inkscape-font-specification:Liberation Sans"
     x="39.304722"
     y="263.89319"
     id="text4472-7-2"
     sodipodi:linespacing="125%"><tspan
       sodipodi:role="line"
       id="tspan4474-5-3"
       x="39.304722"
       y="263.89319"
       style="font-style:italic;-inkscape-font-specification:Liberation Sans Italic">b</tspan></text>
</svg>
