<?xml version="1.0" encoding="UTF-8"?>
<svg xmlns="http://www.w3.org/2000/svg" xmlns:xlink="http://www.w3.org/1999/xlink" width="61pt" height="41pt" viewBox="0 0 61 41" version="1.1">
<g id="surface1">
<path style="fill:none;stroke-width:10;stroke-linecap:butt;stroke-linejoin:miter;stroke:rgb(0%,0%,0%);stroke-opacity:1;stroke-miterlimit:4;" d="M 285 155 L 285 5 " transform="matrix(0.1,0,0,-0.1,0,41)"/>
<path style="fill:none;stroke-width:10;stroke-linecap:butt;stroke-linejoin:miter;stroke:rgb(0%,0%,0%);stroke-opacity:1;stroke-miterlimit:4;" d="M 325 155 L 325 5 " transform="matrix(0.1,0,0,-0.1,0,41)"/>
<path style="fill:none;stroke-width:10;stroke-linecap:butt;stroke-linejoin:miter;stroke:rgb(0%,0%,0%);stroke-opacity:1;stroke-miterlimit:4;" d="M 5 335 L 105 335 " transform="matrix(0.1,0,0,-0.1,0,41)"/>
<path style="fill:none;stroke-width:10;stroke-linecap:butt;stroke-linejoin:miter;stroke:rgb(0%,0%,0%);stroke-opacity:1;stroke-miterlimit:1;" d="M 136.914062 401.679688 C 259.765625 401.679688 229.570312 277.109375 164.765625 277.109375 C 99.960938 277.109375 78.59375 401.679688 198.085938 401.679688 " transform="matrix(0.1,0,0,-0.1,0,41)"/>
<path style="fill:none;stroke-width:10;stroke-linecap:butt;stroke-linejoin:miter;stroke:rgb(0%,0%,0%);stroke-opacity:1;stroke-miterlimit:1;" d="M 198.125 401.679688 C 320.976562 401.679688 290.78125 277.109375 225.976562 277.109375 C 161.171875 277.109375 139.804688 401.679688 259.296875 401.679688 " transform="matrix(0.1,0,0,-0.1,0,41)"/>
<path style="fill:none;stroke-width:10;stroke-linecap:butt;stroke-linejoin:miter;stroke:rgb(0%,0%,0%);stroke-opacity:1;stroke-miterlimit:1;" d="M 259.335938 401.679688 C 382.226562 401.679688 352.03125 277.109375 287.226562 277.109375 C 222.421875 277.109375 201.054688 401.679688 320.546875 401.679688 " transform="matrix(0.1,0,0,-0.1,0,41)"/>
<path style="fill:none;stroke-width:10;stroke-linecap:butt;stroke-linejoin:miter;stroke:rgb(0%,0%,0%);stroke-opacity:1;stroke-miterlimit:1;" d="M 320.585938 401.679688 C 443.4375 401.679688 413.242188 277.109375 348.4375 277.109375 C 283.632812 277.109375 262.265625 401.679688 381.757812 401.679688 " transform="matrix(0.1,0,0,-0.1,0,41)"/>
<path style="fill:none;stroke-width:10;stroke-linecap:butt;stroke-linejoin:miter;stroke:rgb(0%,0%,0%);stroke-opacity:1;stroke-miterlimit:1;" d="M 381.796875 401.679688 C 504.6875 401.679688 474.492188 277.109375 409.6875 277.109375 C 344.84375 277.109375 323.515625 401.679688 443.007812 401.679688 " transform="matrix(0.1,0,0,-0.1,0,41)"/>
<path style="fill:none;stroke-width:10;stroke-linecap:butt;stroke-linejoin:miter;stroke:rgb(0%,0%,0%);stroke-opacity:1;stroke-miterlimit:4;" d="M 335 65 L 595 65 L 595 335 L 475 335 " transform="matrix(0.1,0,0,-0.1,0,41)"/>
<path style="fill:none;stroke-width:10;stroke-linecap:butt;stroke-linejoin:miter;stroke:rgb(0%,0%,0%);stroke-opacity:1;stroke-miterlimit:4;" d="M 285 75 L 15 75 L 15 335 " transform="matrix(0.1,0,0,-0.1,0,41)"/>
</g>
</svg>
