<?xml version="1.0" encoding="UTF-8"?>
<svg xmlns="http://www.w3.org/2000/svg" xmlns:xlink="http://www.w3.org/1999/xlink" width="171pt" height="33pt" viewBox="0 0 171 33" version="1.1">
<g id="surface1">
<path style="fill:none;stroke-width:10;stroke-linecap:butt;stroke-linejoin:miter;stroke:rgb(0%,0%,0%);stroke-opacity:1;stroke-miterlimit:4;" d="M 920.15625 318.984375 L 895 245 L 895 215 L 615 215 L 685 215 " transform="matrix(0.1,0,0,-0.1,0,33)"/>
<path style="fill:none;stroke-width:10;stroke-linecap:butt;stroke-linejoin:miter;stroke:rgb(0%,0%,0%);stroke-opacity:1;stroke-miterlimit:4;" d="M 1455 235 L 1635 235 L 1635 115 " transform="matrix(0.1,0,0,-0.1,0,33)"/>
<path style="fill:none;stroke-width:10;stroke-linecap:butt;stroke-linejoin:miter;stroke:rgb(0%,0%,0%);stroke-opacity:1;stroke-miterlimit:4;" d="M 1635 225 L 1635 35 " transform="matrix(0.1,0,0,-0.1,0,33)"/>
<path style="fill:none;stroke-width:10;stroke-linecap:butt;stroke-linejoin:miter;stroke:rgb(0%,0%,0%);stroke-opacity:1;stroke-miterlimit:4;" d="M 95 35 L 55 35 L 1635 35 " transform="matrix(0.1,0,0,-0.1,0,33)"/>
<path style="fill:none;stroke-width:10;stroke-linecap:butt;stroke-linejoin:miter;stroke:rgb(0%,0%,0%);stroke-opacity:1;stroke-miterlimit:4;" d="M 965.15625 163.125 L 920.15625 318.984375 " transform="matrix(0.1,0,0,-0.1,0,33)"/>
<path style="fill:none;stroke-width:10;stroke-linecap:butt;stroke-linejoin:miter;stroke:rgb(0%,0%,0%);stroke-opacity:1;stroke-miterlimit:4;" d="M 1010.625 318.984375 L 965.625 163.125 " transform="matrix(0.1,0,0,-0.1,0,33)"/>
<path style="fill:none;stroke-width:10;stroke-linecap:butt;stroke-linejoin:miter;stroke:rgb(0%,0%,0%);stroke-opacity:1;stroke-miterlimit:4;" d="M 1056.328125 163.125 L 1011.328125 318.984375 " transform="matrix(0.1,0,0,-0.1,0,33)"/>
<path style="fill:none;stroke-width:10;stroke-linecap:butt;stroke-linejoin:miter;stroke:rgb(0%,0%,0%);stroke-opacity:1;stroke-miterlimit:4;" d="M 1101.796875 318.984375 L 1056.796875 163.125 " transform="matrix(0.1,0,0,-0.1,0,33)"/>
<path style="fill:none;stroke-width:10;stroke-linecap:butt;stroke-linejoin:miter;stroke:rgb(0%,0%,0%);stroke-opacity:1;stroke-miterlimit:4;" d="M 1147.5 163.125 L 1102.5 318.984375 " transform="matrix(0.1,0,0,-0.1,0,33)"/>
<path style="fill:none;stroke-width:10;stroke-linecap:butt;stroke-linejoin:miter;stroke:rgb(0%,0%,0%);stroke-opacity:1;stroke-miterlimit:4;" d="M 1148.4375 163.125 L 1175 245 L 1265 245 " transform="matrix(0.1,0,0,-0.1,0,33)"/>
<path style="fill:none;stroke-width:10;stroke-linecap:butt;stroke-linejoin:miter;stroke:rgb(0%,0%,0%);stroke-opacity:1;stroke-miterlimit:4;" d="M 1405 315 L 1405 165 " transform="matrix(0.1,0,0,-0.1,0,33)"/>
<path style="fill:none;stroke-width:10;stroke-linecap:butt;stroke-linejoin:miter;stroke:rgb(0%,0%,0%);stroke-opacity:1;stroke-miterlimit:4;" d="M 1455 315 L 1455 165 " transform="matrix(0.1,0,0,-0.1,0,33)"/>
<path style="fill:none;stroke-width:10;stroke-linecap:butt;stroke-linejoin:miter;stroke:rgb(0%,0%,0%);stroke-opacity:1;stroke-miterlimit:4;" d="M 165 215 L 255 215 " transform="matrix(0.1,0,0,-0.1,0,33)"/>
<path style="fill:none;stroke-width:10;stroke-linecap:butt;stroke-linejoin:miter;stroke:rgb(0%,0%,0%);stroke-opacity:1;stroke-miterlimit:1;" d="M 290.664062 281.679688 C 413.515625 281.679688 383.320312 157.109375 318.515625 157.109375 C 253.710938 157.109375 232.34375 281.679688 351.835938 281.679688 " transform="matrix(0.1,0,0,-0.1,0,33)"/>
<path style="fill:none;stroke-width:10;stroke-linecap:butt;stroke-linejoin:miter;stroke:rgb(0%,0%,0%);stroke-opacity:1;stroke-miterlimit:1;" d="M 351.875 281.679688 C 474.726562 281.679688 444.53125 157.109375 379.726562 157.109375 C 314.921875 157.109375 293.554688 281.679688 413.046875 281.679688 " transform="matrix(0.1,0,0,-0.1,0,33)"/>
<path style="fill:none;stroke-width:10;stroke-linecap:butt;stroke-linejoin:miter;stroke:rgb(0%,0%,0%);stroke-opacity:1;stroke-miterlimit:1;" d="M 413.085938 281.679688 C 535.976562 281.679688 505.78125 157.109375 440.976562 157.109375 C 376.171875 157.109375 354.804688 281.679688 474.296875 281.679688 " transform="matrix(0.1,0,0,-0.1,0,33)"/>
<path style="fill:none;stroke-width:10;stroke-linecap:butt;stroke-linejoin:miter;stroke:rgb(0%,0%,0%);stroke-opacity:1;stroke-miterlimit:1;" d="M 474.335938 281.679688 C 597.1875 281.679688 566.992188 157.109375 502.1875 157.109375 C 437.382812 157.109375 416.015625 281.679688 535.507812 281.679688 " transform="matrix(0.1,0,0,-0.1,0,33)"/>
<path style="fill:none;stroke-width:10;stroke-linecap:butt;stroke-linejoin:miter;stroke:rgb(0%,0%,0%);stroke-opacity:1;stroke-miterlimit:1;" d="M 535.546875 281.679688 C 549.84375 281.679688 562.03125 280 572.382812 277.03125 " transform="matrix(0.1,0,0,-0.1,0,33)"/>
<path style="fill:none;stroke-width:10;stroke-linecap:butt;stroke-linejoin:miter;stroke:rgb(0%,0%,0%);stroke-opacity:1;stroke-miterlimit:1;" d="M 572.382812 277.03125 C 573.671875 276.679688 574.921875 276.289062 576.132812 275.859375 " transform="matrix(0.1,0,0,-0.1,0,33)"/>
<path style="fill:none;stroke-width:10;stroke-linecap:butt;stroke-linejoin:miter;stroke:rgb(0%,0%,0%);stroke-opacity:1;stroke-miterlimit:1;" d="M 576.132812 275.859375 C 649.921875 251.25 619.765625 157.109375 563.4375 157.109375 C 498.59375 157.109375 477.265625 281.679688 596.757812 281.679688 " transform="matrix(0.1,0,0,-0.1,0,33)"/>
<path style="fill:none;stroke-width:10;stroke-linecap:butt;stroke-linejoin:miter;stroke:rgb(0%,0%,0%);stroke-opacity:1;stroke-miterlimit:4;" d="M 1265 235 L 1405 235 " transform="matrix(0.1,0,0,-0.1,0,33)"/>
<path style=" stroke:none;fill-rule:nonzero;fill:rgb(100%,100%,100%);fill-opacity:1;" d="M 12.019531 31.710938 C 18.269531 31.710938 23.335938 26.648438 23.335938 20.398438 C 23.335938 14.152344 18.269531 9.085938 12.019531 9.085938 C 5.773438 9.085938 0.707031 14.152344 0.707031 20.398438 C 0.707031 26.648438 5.773438 31.710938 12.019531 31.710938 "/>
<path style="fill:none;stroke-width:10;stroke-linecap:butt;stroke-linejoin:miter;stroke:rgb(0%,0%,0%);stroke-opacity:1;stroke-miterlimit:4;" d="M 120.195312 12.890625 C 182.695312 12.890625 233.359375 63.515625 233.359375 126.015625 C 233.359375 188.476562 182.695312 239.140625 120.195312 239.140625 C 57.734375 239.140625 7.070312 188.476562 7.070312 126.015625 C 7.070312 63.515625 57.734375 12.890625 120.195312 12.890625 Z " transform="matrix(0.1,0,0,-0.1,0,33)"/>
<path style="fill-rule:nonzero;fill:rgb(100%,100%,100%);fill-opacity:1;stroke-width:10;stroke-linecap:butt;stroke-linejoin:miter;stroke:rgb(0%,0%,0%);stroke-opacity:1;stroke-miterlimit:4;" d="M 70.820312 120.390625 C 125.820312 290.390625 125.820312 -9.609375 180.820312 110.390625 " transform="matrix(0.1,0,0,-0.1,0,33)"/>
</g>
</svg>
