<?xml version="1.0" encoding="UTF-8" standalone="no"?>
<!-- Generator: Adobe Illustrator 11 Build 196, SVG Export Plug-In . SVG Version: 6.0.0 Build 78)  -->

<svg
   xmlns:dc="http://purl.org/dc/elements/1.1/"
   xmlns:cc="http://creativecommons.org/ns#"
   xmlns:rdf="http://www.w3.org/1999/02/22-rdf-syntax-ns#"
   xmlns:svg="http://www.w3.org/2000/svg"
   xmlns="http://www.w3.org/2000/svg"
   xmlns:sodipodi="http://sodipodi.sourceforge.net/DTD/sodipodi-0.dtd"
   xmlns:inkscape="http://www.inkscape.org/namespaces/inkscape"
   width="109.416"
   height="199.176"
   viewBox="0 0 109.416 199.176"
   style="overflow:visible;enable-background:new 0 0 109.416 199.176"
   xml:space="preserve"
   id="svg2"
   sodipodi:version="0.32"
   sodipodi:docname="mass-on-spring.svg"
   version="1.1"><metadata
     id="metadata180"><rdf:RDF><cc:Work
         rdf:about=""><dc:format>image/svg+xml</dc:format><dc:type
           rdf:resource="http://purl.org/dc/dcmitype/StillImage" /></cc:Work></rdf:RDF></metadata><defs
     id="defs178" /><sodipodi:namedview
     inkscape:cy="94.281169"
     inkscape:cx="21.897126"
     inkscape:zoom="1.7594649"
     inkscape:window-height="997"
     inkscape:window-width="1280"
     inkscape:pageshadow="2"
     inkscape:pageopacity="0.0"
     borderopacity="1.0"
     bordercolor="#666666"
     pagecolor="#ffffff"
     id="base"
     inkscape:window-x="0"
     inkscape:window-y="0"
     inkscape:current-layer="svg2"
     showgrid="false"
     inkscape:window-maximized="1" /><style
     type="text/css"
     id="style4" /><rect
     style="overflow:visible;fill:#d1d1d1;fill-opacity:1;fill-rule:evenodd;stroke:none;stroke-width:1pt;stroke-linecap:butt;stroke-linejoin:miter;stroke-opacity:1"
     id="rect1478-3"
     width="184.25197"
     height="73.886101"
     x="-39.268997"
     y="82.09494" /><rect
     style="fill:#d1d1d1;fill-opacity:1.0000000;fill-rule:evenodd;stroke:none;stroke-width:1.0000000pt;stroke-linecap:butt;stroke-linejoin:miter;stroke-opacity:1.0000000"
     id="rect1478"
     width="184.25197"
     height="73.886101"
     x="-39.100651"
     y="0.25187033" /><path
     d=""
     style="fill:none;stroke:#000000;stroke-width:0.50000000"
     id="path29" /><rect
     x="61.779999"
     y="25.9"
     style="fill:#dcdcdc"
     width="46.900002"
     height="15.947"
     id="rect41" /><g
     id="g43"><path
       inkscape:connector-curvature="0"
       style="fill:none;stroke:#000000;stroke-width:0.5;stroke-miterlimit:1"
       d="m 17.219,30.811 c -6.602,0 -5.073,6.125 -1.492,6.125 3.581,0 5.744,-6.125 -1.044,-6.125 l -2.724,0"
       id="path45" /><path
       inkscape:connector-curvature="0"
       style="fill:none;stroke:#000000;stroke-width:0.5;stroke-miterlimit:1"
       d="m 17.22,30.811 c 6.789,0 4.625,6.125 1.044,6.125 -3.581,0 -5.11,-6.125 1.492,-6.125"
       id="path47" /><path
       inkscape:connector-curvature="0"
       style="fill:none;stroke:#000000;stroke-width:0.5;stroke-miterlimit:1"
       d="m 19.757,30.811 c 6.789,0 4.625,6.125 1.044,6.125 -3.581,0 -5.11,-6.125 1.492,-6.125"
       id="path49" /><path
       inkscape:connector-curvature="0"
       style="fill:none;stroke:#000000;stroke-width:0.5;stroke-miterlimit:1"
       d="m 22.295,30.811 c 6.789,0 4.625,6.125 1.044,6.125 -3.581,0 -5.11,-6.125 1.492,-6.125"
       id="path51" /><path
       inkscape:connector-curvature="0"
       style="fill:none;stroke:#000000;stroke-width:0.5;stroke-miterlimit:1"
       d="m 24.833,30.811 c 6.789,0 4.625,6.125 1.044,6.125 -3.581,0 -5.11,-6.125 1.492,-6.125"
       id="path53" /><path
       inkscape:connector-curvature="0"
       style="fill:none;stroke:#000000;stroke-width:0.5;stroke-miterlimit:1"
       d="m 27.37,30.811 c 6.789,0 4.625,6.125 1.045,6.125 -3.581,0 -5.11,-6.125 1.492,-6.125"
       id="path55" /><path
       inkscape:connector-curvature="0"
       style="fill:none;stroke:#000000;stroke-width:0.5;stroke-miterlimit:1"
       d="m 29.907,30.811 c 6.789,0 4.625,6.125 1.044,6.125 -3.581,0 -5.11,-6.125 1.492,-6.125"
       id="path57" /><path
       inkscape:connector-curvature="0"
       style="fill:none;stroke:#000000;stroke-width:0.5;stroke-miterlimit:1"
       d="m 32.445,30.811 c 6.789,0 4.625,6.125 1.044,6.125 -3.581,0 -5.11,-6.125 1.492,-6.125"
       id="path59" /><path
       inkscape:connector-curvature="0"
       style="fill:none;stroke:#000000;stroke-width:0.5;stroke-miterlimit:1"
       d="m 34.982,30.811 c 6.789,0 4.625,6.125 1.044,6.125 -3.581,0 -5.11,-6.125 1.493,-6.125"
       id="path61" /><path
       inkscape:connector-curvature="0"
       style="fill:none;stroke:#000000;stroke-width:0.5;stroke-miterlimit:1"
       d="m 37.52,30.811 c 6.789,0 4.625,6.125 1.044,6.125 -3.581,0 -5.11,-6.125 1.492,-6.125"
       id="path63" /><path
       inkscape:connector-curvature="0"
       style="fill:none;stroke:#000000;stroke-width:0.5;stroke-miterlimit:1"
       d="m 40.057,30.811 c 6.789,0 4.625,6.125 1.044,6.125 -3.581,0 -5.11,-6.125 1.492,-6.125"
       id="path65" /><path
       inkscape:connector-curvature="0"
       style="fill:none;stroke:#000000;stroke-width:0.5;stroke-miterlimit:1"
       d="m 42.595,30.811 c 6.789,0 4.625,6.125 1.044,6.125 -3.581,0 -5.11,-6.125 1.492,-6.125"
       id="path67" /><path
       inkscape:connector-curvature="0"
       style="fill:none;stroke:#000000;stroke-width:0.5;stroke-miterlimit:1"
       d="m 45.132,30.811 c 6.789,0 4.625,6.125 1.044,6.125 -3.581,0 -5.11,-6.125 1.492,-6.125"
       id="path69" /><path
       inkscape:connector-curvature="0"
       style="fill:none;stroke:#000000;stroke-width:0.5;stroke-miterlimit:1"
       d="m 47.669,30.811 c 6.789,0 4.625,6.125 1.044,6.125 -3.581,0 -5.11,-6.125 1.492,-6.125"
       id="path71" /><path
       inkscape:connector-curvature="0"
       style="fill:none;stroke:#000000;stroke-width:0.5;stroke-miterlimit:1"
       d="m 50.207,30.811 c 6.789,0 4.625,6.125 1.044,6.125 -3.581,0 -5.11,-6.125 1.492,-6.125"
       id="path73" /><path
       inkscape:connector-curvature="0"
       style="fill:none;stroke:#000000;stroke-width:0.5;stroke-miterlimit:1"
       d="m 52.745,30.811 c 6.789,0 4.625,6.125 1.044,6.125 -3.581,0 -5.11,-6.125 1.492,-6.125"
       id="path75" /><path
       inkscape:connector-curvature="0"
       style="fill:none;stroke:#000000;stroke-width:0.5;stroke-miterlimit:1"
       d="m 55.282,30.811 c 6.789,0 4.625,6.125 1.044,6.125 -3.581,0 -5.11,-6.125 1.492,-6.125"
       id="path77" /><path
       inkscape:connector-curvature="0"
       style="fill:none;stroke:#000000;stroke-width:0.5;stroke-miterlimit:1"
       d="m 57.82,30.811 c 6.789,0 4.625,6.125 1.044,6.125 -3.581,0 -5.11,-6.125 1.492,-6.125"
       id="path79" /></g><g
     id="g81"><path
       inkscape:connector-curvature="0"
       style="fill:none;stroke:#000000;stroke-width:0.5;stroke-miterlimit:1"
       d="m 18.472,30.811 c -6.821,0 -6.042,6.125 -2.342,6.125 3.7,0 4.986,-6.125 -2.027,-6.125 l -1.808,0"
       id="path83" /><path
       inkscape:connector-curvature="0"
       style="fill:none;stroke:#000000;stroke-width:0.5;stroke-miterlimit:1"
       d="m 18.471,30.811 c 7.013,0 5.727,6.125 2.027,6.125 -3.7,0 -4.479,-6.125 2.342,-6.125"
       id="path85" /><path
       inkscape:connector-curvature="0"
       style="fill:none;stroke:#000000;stroke-width:0.5;stroke-miterlimit:1"
       d="m 22.84,30.811 c 7.013,0 5.727,6.125 2.027,6.125 -3.7,0 -4.479,-6.125 2.342,-6.125"
       id="path87" /><path
       inkscape:connector-curvature="0"
       style="fill:none;stroke:#000000;stroke-width:0.5;stroke-miterlimit:1"
       d="m 27.209,30.811 c 7.013,0 5.726,6.125 2.027,6.125 -3.699,0 -4.478,-6.125 2.342,-6.125"
       id="path89" /><path
       inkscape:connector-curvature="0"
       style="fill:none;stroke:#000000;stroke-width:0.5;stroke-miterlimit:1"
       d="m 31.578,30.811 c 7.013,0 5.727,6.125 2.027,6.125 -3.7,0 -4.479,-6.125 2.342,-6.125"
       id="path91" /><path
       inkscape:connector-curvature="0"
       style="fill:none;stroke:#000000;stroke-width:0.5;stroke-miterlimit:1"
       d="m 35.947,30.811 c 7.013,0 5.726,6.125 2.027,6.125 -3.699,0 -4.478,-6.125 2.342,-6.125"
       id="path93" /><path
       inkscape:connector-curvature="0"
       style="fill:none;stroke:#000000;stroke-width:0.5;stroke-miterlimit:1"
       d="m 40.315,30.811 c 7.013,0 5.727,6.125 2.027,6.125 -3.7,0 -4.479,-6.125 2.342,-6.125"
       id="path95" /><path
       inkscape:connector-curvature="0"
       style="fill:none;stroke:#000000;stroke-width:0.5;stroke-miterlimit:1"
       d="m 44.685,30.811 c 7.013,0 5.726,6.125 2.027,6.125 -3.699,0 -4.479,-6.125 2.342,-6.125"
       id="path97" /><path
       inkscape:connector-curvature="0"
       style="fill:none;stroke:#000000;stroke-width:0.5;stroke-miterlimit:1"
       d="m 49.053,30.811 c 7.013,0 5.727,6.125 2.027,6.125 -3.7,0 -4.479,-6.125 2.342,-6.125"
       id="path99" /><path
       inkscape:connector-curvature="0"
       style="fill:none;stroke:#000000;stroke-width:0.5;stroke-miterlimit:1"
       d="m 53.422,30.811 c 7.013,0 5.727,6.125 2.027,6.125 -3.7,0 -4.479,-6.125 2.342,-6.125"
       id="path101" /><path
       inkscape:connector-curvature="0"
       style="fill:none;stroke:#000000;stroke-width:0.5;stroke-miterlimit:1"
       d="m 57.791,30.811 c 7.013,0 5.726,6.125 2.027,6.125 -3.699,0 -4.479,-6.125 2.342,-6.125"
       id="path103" /><path
       inkscape:connector-curvature="0"
       style="fill:none;stroke:#000000;stroke-width:0.5;stroke-miterlimit:1"
       d="m 62.16,30.811 c 7.013,0 5.727,6.125 2.027,6.125 -3.7,0 -4.479,-6.125 2.342,-6.125"
       id="path105" /><path
       inkscape:connector-curvature="0"
       style="fill:none;stroke:#000000;stroke-width:0.5;stroke-miterlimit:1"
       d="m 66.529,30.811 c 7.013,0 5.726,6.125 2.027,6.125 -3.699,0 -4.478,-6.125 2.342,-6.125"
       id="path107" /><path
       inkscape:connector-curvature="0"
       style="fill:none;stroke:#000000;stroke-width:0.5;stroke-miterlimit:1"
       d="m 70.897,30.811 c 7.013,0 5.727,6.125 2.027,6.125 -3.7,0 -4.479,-6.125 2.342,-6.125"
       id="path109" /><path
       inkscape:connector-curvature="0"
       style="fill:none;stroke:#000000;stroke-width:0.5;stroke-miterlimit:1"
       d="m 75.267,30.811 c 7.013,0 5.726,6.125 2.027,6.125 -3.699,0 -4.479,-6.125 2.342,-6.125"
       id="path111" /><path
       inkscape:connector-curvature="0"
       style="fill:none;stroke:#000000;stroke-width:0.5;stroke-miterlimit:1"
       d="m 79.635,30.811 c 7.013,0 5.727,6.125 2.027,6.125 -3.7,0 -4.479,-6.125 2.342,-6.125"
       id="path113" /><path
       inkscape:connector-curvature="0"
       style="fill:none;stroke:#000000;stroke-width:0.5;stroke-miterlimit:1"
       d="m 84.004,30.811 c 7.013,0 5.726,6.125 2.027,6.125 -3.699,0 -4.479,-6.125 2.342,-6.125"
       id="path115" /><path
       inkscape:connector-curvature="0"
       style="fill:none;stroke:#000000;stroke-width:0.5;stroke-miterlimit:1"
       d="m 88.373,30.811 c 7.013,0 5.726,6.125 2.027,6.125 -3.699,0 -4.479,-6.125 2.342,-6.125"
       id="path117" /></g><rect
     x="89.452003"
     y="25.9"
     style="fill:#7f7f7f;stroke:#000000"
     width="19.228001"
     height="15.947"
     id="rect119" /><g
     id="g121"><rect
       y="25.681"
       style="fill:#b4b4b4"
       width="14.151"
       height="16.385"
       id="rect123"
       x="0" /><line
       style="fill:none;stroke:#7f7f7f"
       x1="14.548"
       y1="25.761999"
       x2="14.548"
       y2="41.985001"
       id="line125" /></g><rect
     x="61.779999"
     y="25.9"
     style="fill:#7f7f7f;stroke:#000000"
     width="19.228001"
     height="15.947"
     id="rect127" /><g
     transform="translate(-24.813506,89.38672)"
     style="overflow:visible"
     id="Layer_1"><g
       id="g80"><polyline
         style="fill:none;stroke:#000000;stroke-miterlimit:1"
         points="77.671,29.083 81.182,29.083 82.994,25.229       85.161,31.75 88.057,25.229 90.494,31.729 93.057,25.167 95.744,31.667 97.807,25.354 99.494,29.083 101.796,29.083 "
         id="polyline82" /><polyline
         style="fill:none;stroke:#000000;stroke-miterlimit:1"
         points="116.171,29.083 118.713,29.083 118.713,50.083       28.671,50.083 28.671,28.833 "
         id="polyline84" /><g
         id="g86"><line
           style="fill:none;stroke:#000000"
           x1="106.537"
           y1="21.583"
           x2="106.537"
           y2="36.583"
           id="line88" /><line
           style="fill:none;stroke:#000000"
           x1="111.225"
           y1="21.583"
           x2="111.225"
           y2="36.583"
           id="line90" /><line
           style="fill:none;stroke:#000000"
           x1="102.135"
           y1="29.083"
           x2="106.492"
           y2="29.083"
           id="line92" /><line
           style="fill:none;stroke:#000000"
           x1="111.468"
           y1="29.083"
           x2="116.4"
           y2="29.083"
           id="line94" /></g><g
         id="g96"><line
           style="fill:none;stroke:#000000"
           x1="28.358999"
           y1="28.764"
           x2="35.186001"
           y2="28.764"
           id="line98" /><g
           id="g100"><path
             inkscape:connector-curvature="0"
             style="fill:none;stroke:#000000;stroke-miterlimit:1"
             d="m 38.751,22.534 c 12.286,0 9.266,12.459 2.786,12.459 -6.48,0 -8.616,-12.459 3.333,-12.459"
             id="path102" /><path
             inkscape:connector-curvature="0"
             style="fill:none;stroke:#000000;stroke-miterlimit:1"
             d="m 44.874,22.534 c 12.286,0 9.266,12.459 2.786,12.459 -6.48,0 -8.616,-12.459 3.333,-12.459"
             id="path104" /><path
             inkscape:connector-curvature="0"
             style="fill:none;stroke:#000000;stroke-miterlimit:1"
             d="m 50.997,22.534 c 12.286,0 9.266,12.459 2.786,12.459 -6.48,0 -8.616,-12.459 3.333,-12.459"
             id="path106" /><path
             inkscape:connector-curvature="0"
             style="fill:none;stroke:#000000;stroke-miterlimit:1"
             d="m 57.119,22.534 c 12.286,0 9.267,12.459 2.786,12.459 -6.481,0 -8.616,-12.459 3.333,-12.459"
             id="path108" /><path
             inkscape:connector-curvature="0"
             style="fill:none;stroke:#000000;stroke-miterlimit:1"
             d="m 63.242,22.534 c 12.286,0 9.266,12.459 2.786,12.459 -6.48,0 -8.616,-12.459 3.333,-12.459"
             id="path110" /></g><line
           style="fill:none;stroke:#000000"
           x1="72.987999"
           y1="29.082001"
           x2="77.859001"
           y2="29.082001"
           id="line112" /><path
           inkscape:connector-curvature="0"
           style="fill:none;stroke:#000000"
           d="m 34.613,28.402 c 0,-3.5 2.25,-5.938 4.125,-5.938"
           id="path114" /><path
           inkscape:connector-curvature="0"
           style="fill:none;stroke:#000000"
           d="m 73.508,28.621 c 0,-3.5 -2.25,-5.938 -4.125,-5.938"
           id="path116" /></g><g
         id="g118"><text
           transform="translate(50.9214,12)"
           id="text120"><tspan
             x="0"
             y="0"
             style="font-size:12px;font-family:Helvetica"
             id="tspan122">L</tspan></text>
</g><g
         id="g124"><text
           transform="translate(103.6714,12)"
           id="text126"><tspan
             x="0"
             y="0"
             style="font-size:12px;font-family:Helvetica"
             id="tspan128">C</tspan></text>
</g><g
         id="g130"><text
           transform="translate(86.6714,12)"
           id="text132"><tspan
             x="0"
             y="0"
             style="font-size:12px;font-family:Helvetica"
             id="tspan134">R</tspan></text>
</g></g><rect
       x="0"
       y="24.247999"
       style="fill:none"
       width="147.384"
       height="2.8080001"
       id="rect136" /></g><text
     xml:space="preserve"
     style="color:#000000;font-style:normal;font-variant:normal;font-weight:normal;font-stretch:normal;font-size:12.5px;line-height:125%;font-family:'Liberation Sans';-inkscape-font-specification:'Liberation Sans';text-indent:0;text-align:start;text-decoration:none;text-decoration-line:none;text-decoration-style:solid;text-decoration-color:#000000;letter-spacing:0px;word-spacing:0px;text-transform:none;direction:ltr;block-progression:tb;writing-mode:lr-tb;baseline-shift:baseline;text-anchor:start;white-space:normal;clip-rule:nonzero;display:inline;overflow:visible;visibility:visible;opacity:1;isolation:auto;mix-blend-mode:normal;color-interpolation:sRGB;color-interpolation-filters:linearRGB;solid-color:#000000;solid-opacity:1;fill:#000000;fill-opacity:1;fill-rule:nonzero;stroke:none;stroke-width:1.24999988px;stroke-linecap:butt;stroke-linejoin:miter;stroke-miterlimit:4;stroke-dasharray:none;stroke-dashoffset:0;stroke-opacity:1;marker:none;marker-start:none;marker-mid:none;marker-end:none;color-rendering:auto;image-rendering:auto;shape-rendering:auto;text-rendering:auto;enable-background:accumulate"
     x="-28.986084"
     y="103.12405"
     id="text4925"
     sodipodi:linespacing="125%"><tspan
       sodipodi:role="line"
       id="tspan4927"
       x="-28.986084"
       y="103.12405">2</tspan></text>
<text
     xml:space="preserve"
     style="color:#000000;font-style:normal;font-variant:normal;font-weight:normal;font-stretch:normal;font-size:12.5px;line-height:125%;font-family:'Liberation Sans';-inkscape-font-specification:'Liberation Sans';text-indent:0;text-align:start;text-decoration:none;text-decoration-line:none;text-decoration-style:solid;text-decoration-color:#000000;letter-spacing:0px;word-spacing:0px;text-transform:none;direction:ltr;block-progression:tb;writing-mode:lr-tb;baseline-shift:baseline;text-anchor:start;white-space:normal;clip-rule:nonzero;display:inline;overflow:visible;visibility:visible;opacity:1;isolation:auto;mix-blend-mode:normal;color-interpolation:sRGB;color-interpolation-filters:linearRGB;solid-color:#000000;solid-opacity:1;fill:#000000;fill-opacity:1;fill-rule:nonzero;stroke:none;stroke-width:1.24999988px;stroke-linecap:butt;stroke-linejoin:miter;stroke-miterlimit:4;stroke-dasharray:none;stroke-dashoffset:0;stroke-opacity:1;marker:none;marker-start:none;marker-mid:none;marker-end:none;color-rendering:auto;image-rendering:auto;shape-rendering:auto;text-rendering:auto;enable-background:accumulate"
     x="-29.55444"
     y="20.144295"
     id="text4929"
     sodipodi:linespacing="125%"><tspan
       sodipodi:role="line"
       id="tspan4931"
       x="-29.55444"
       y="20.144295">1</tspan></text>
</svg>