<?xml version="1.0" encoding="iso-8859-1"?>
<!-- Generator: Adobe Illustrator 11 Build 196, SVG Export Plug-In . SVG Version: 6.0.0 Build 78)  -->
<!DOCTYPE svg PUBLIC "-//W3C//DTD SVG 1.0//EN"    "http://www.w3.org/TR/2001/REC-SVG-20010904/DTD/svg10.dtd" [
	<!ENTITY ns_flows "http://ns.adobe.com/Flows/1.0/">
	<!ENTITY ns_svg "http://www.w3.org/2000/svg">
	<!ENTITY ns_xlink "http://www.w3.org/1999/xlink">
]>
<svg
	 width="147.402" height="172.59" viewBox="0 0 147.402 172.59" style="overflow:visible;enable-background:new 0 0 147.402 172.59"
	 xml:space="preserve">
	<metadata>
<?xpacket begin='﻿' id='W5M0MpCehiHzreSzNTczkc9d'?><x:xmpmeta xmlns:x='adobe:ns:meta/' x:xmptk='XMP toolkit 3.0-29, framework 1.6'>
<rdf:RDF xmlns:rdf='http://www.w3.org/1999/02/22-rdf-syntax-ns#' xmlns:iX='http://ns.adobe.com/iX/1.0/'>

 <rdf:Description rdf:about=''
  xmlns:pdf='http://ns.adobe.com/pdf/1.3/'>
 </rdf:Description>

 <rdf:Description rdf:about=''
  xmlns:tiff='http://ns.adobe.com/tiff/1.0/'>
 </rdf:Description>

 <rdf:Description rdf:about=''
  xmlns:xap='http://ns.adobe.com/xap/1.0/'
  xmlns:xapGImg='http://ns.adobe.com/xap/1.0/g/img/'>
  <xap:CreateDate>2006-07-16T20:56:03Z</xap:CreateDate>
  <xap:ModifyDate>2006-07-16T20:56:03Z</xap:ModifyDate>
  <xap:CreatorTool>Illustrator</xap:CreatorTool>
  <xap:Thumbnails>
   <rdf:Alt>
    <rdf:li rdf:parseType='Resource'>
     <xapGImg:format>JPEG</xapGImg:format>
     <xapGImg:width>220</xapGImg:width>
     <xapGImg:height>256</xapGImg:height>
     <xapGImg:image>/9j/4AAQSkZJRgABAgEASABIAAD/7QAsUGhvdG9zaG9wIDMuMAA4QklNA+0AAAAAABAASAAAAAEA&#xA;AQBIAAAAAQAB/+4ADkFkb2JlAGTAAAAAAf/bAIQABgQEBAUEBgUFBgkGBQYJCwgGBggLDAoKCwoK&#xA;DBAMDAwMDAwQDA4PEA8ODBMTFBQTExwbGxscHx8fHx8fHx8fHwEHBwcNDA0YEBAYGhURFRofHx8f&#xA;Hx8fHx8fHx8fHx8fHx8fHx8fHx8fHx8fHx8fHx8fHx8fHx8fHx8fHx8fHx8f/8AAEQgBAADcAwER&#xA;AAIRAQMRAf/EAaIAAAAHAQEBAQEAAAAAAAAAAAQFAwIGAQAHCAkKCwEAAgIDAQEBAQEAAAAAAAAA&#xA;AQACAwQFBgcICQoLEAACAQMDAgQCBgcDBAIGAnMBAgMRBAAFIRIxQVEGE2EicYEUMpGhBxWxQiPB&#xA;UtHhMxZi8CRygvElQzRTkqKyY3PCNUQnk6OzNhdUZHTD0uIIJoMJChgZhJRFRqS0VtNVKBry4/PE&#xA;1OT0ZXWFlaW1xdXl9WZ2hpamtsbW5vY3R1dnd4eXp7fH1+f3OEhYaHiImKi4yNjo+Ck5SVlpeYmZ&#xA;qbnJ2en5KjpKWmp6ipqqusra6voRAAICAQIDBQUEBQYECAMDbQEAAhEDBCESMUEFURNhIgZxgZEy&#xA;obHwFMHR4SNCFVJicvEzJDRDghaSUyWiY7LCB3PSNeJEgxdUkwgJChgZJjZFGidkdFU38qOzwygp&#xA;0+PzhJSktMTU5PRldYWVpbXF1eX1RlZmdoaWprbG1ub2R1dnd4eXp7fH1+f3OEhYaHiImKi4yNjo&#xA;+DlJWWl5iZmpucnZ6fkqOkpaanqKmqq6ytrq+v/aAAwDAQACEQMRAD8A9M2uvaTdazf6Nbz89S0y&#xA;O3lvoODj00u+fonkQEbl6L/ZJpTemKoSHX9I13y9qF5pU/1i2i+t2rycHSk1sXhlWkiqfhdCK9D2&#xA;xVV8p/8AKK6N/wAwNt/yZXFU2xV2KuxV2KuxV2KuxV2KuxV2KuxVRu7qC0tZru4bhb28bSzPQnii&#xA;AsxoASaAdsVYFF+fv5XTRJNDqF5JFIoeORNJ1VlZWFQykWtCCMVX/wDK9/yz/wCW2+/7hGrf9kuK&#xA;u/5Xv+Wf/Lbff9wjVv8AslxV3/K9/wAs/wDltvv+4Rq3/ZLiqtY/nb+W97qNnp0GoXK3eoTpa2iz&#xA;abqMCvNKaInqTW6ICfdsVZ1irsVdirsVdirsVdirsVeYN5h0Tyj+bXmi88zX0OkWOt6bpb6Ze3jr&#xA;DBMbE3SXEayuQnqp6yHhXkQagYqivyss7iD8sbq4mjeIalcatqNvHKpR/q93dzzQMytQjnEyvv44&#xA;qy/yn/yiujf8wNt/yZXFU2xV2KuxV2KuxV2KuxV2KuxV2KuxVKfNn/KK6z/zA3P/ACZbFUq/Kf8A&#xA;8lZ5N/7Yem/9QkeKsrxV2KuxV5/+b3/TFf8AgV6Z/wAzcVegYq7FXYq7FXYq7FXYq7FXYqhNW/45&#xA;V7/xgl/4gcVQnlP/AJRXRv8AmBtv+TK4qm2KuxV2KuxV2KuxV2KuxV2KuxV2KpT5s/5RXWf+YG5/&#xA;5MtiqVflP/5Kzyb/ANsPTf8AqEjxVleKuxV2KvP/AM3v+mK/8CvTP+ZuKvQMVdirsVdirsVdirsV&#xA;dirsVQmrf8cq9/4wS/8AEDiqE8p/8oro3/MDbf8AJlcVTbFXYq7FXYq7FXYq7FXYq7FXYq7FUp82&#xA;f8orrP8AzA3P/JlsVSr8p/8AyVnk3/th6b/1CR4qyvFXYq7FXn/5vf8ATFf+BXpn/M3FXoGKuxV2&#xA;KuxV2KuxV2KuxV2KoTVv+OVe/wDGCX/iBxVCeU/+UV0b/mBtv+TK4qm2KuxV2KuxV2KuxV2KuxV2&#xA;KuxV2KpT5s/5RXWf+YG5/wCTLYqlX5T/APkrPJv/AGw9N/6hI8VZXirsVdirz/8AN7/piv8AwK9M&#xA;/wCZuKvQMVdirsVdirsVdirsVdirsVQmrf8AHKvf+MEv/EDiqE8p/wDKK6N/zA23/JlcVTbFXYq7&#xA;FXYq7FXYq7FXYq7FXYq7FUp82f8AKK6z/wAwNz/yZbFUq/Kf/wAlZ5N/7Yem/wDUJHirK8VdirsV&#xA;ef8A5vf9MV/4Femf8zcVegYq7FXYq7FXYq7FXYq7FXYqhNW/45V7/wAYJf8AiBxV5x5b/PT8rLby&#xA;7pdvNrfGaGzgjkX6reGjLEoIqISOoxVMv+V9/lN/1ff+nS8/6o4q7/lff5Tf9X3/AKdLz/qjirv+&#xA;V9/lN/1ff+nS8/6o4q7/AJX3+U3/AFff+nS8/wCqOKu/5X3+U3/V9/6dLz/qjirv+V9/lN/1ff8A&#xA;p0vP+qOKu/5X3+U3/V9/6dLz/qjirv8Alff5Tf8AV9/6dLz/AKo4q7/lff5Tf9X3/p0vP+qOKu/5&#xA;X3+U3/V9/wCnS8/6o4q7/lff5Tf9X3/p0vP+qOKpd5j/ADy/K268vapbW+tepPPaTxRILW8BZ3iZ&#xA;VG8PcnFWUflSjp+V3k9HUq66JpoZSKEEWkdQRirKcVdirsVef/m9/wBMV/4Femf8zcVegYq7FXYq&#xA;7FXYq7FXYq7FXYqhNW/45V7/AMYJf+IHFUJ5T/5RXRv+YG2/5MriqbYq7FXYq7FXYq7FXYq7FXYq&#xA;7FXYq7FXYq7FXYq7FXn/AOb3/TFf+BXpn/M3FXoGKuxV2KuxV2KuxV2KuxV2KoTVv+OVe/8AGCX/&#xA;AIgcVQnlP/lFdG/5gbb/AJMriqbYq7FXYq7FXYq7FXYq7FXYq7FXYq7FXYq7FXYq7FWC/m3pPmK+&#xA;07QLjQdMbV7vSNcstSlsUmhgZobcSF6PcPGlfiA64qo/47/Mz/y2d9/3FNJ/7KMVd/jv8zP/AC2d&#xA;9/3FNJ/7KMVd/jv8zP8Ay2d9/wBxTSf+yjFXf47/ADM/8tnff9xTSf8AsoxV3+O/zM/8tnff9xTS&#xA;f+yjFXf47/Mz/wAtnff9xTSf+yjFU68reY/NuqXksOteUrjy/AkfOO5nvLK5V35AemFtpZGBoa1I&#xA;pirJsVdiqE1b/jlXv/GCX/iBxVCeU/8AlFdG/wCYG2/5MriqbYq7FXYq7FXYq7FXYq7FXYq7FXYq&#xA;7FXYq7FXYq7FXYq7FXYq7FXYq7FXYq7FXYq7FUJq3/HKvf8AjBL/AMQOKoTyn/yiujf8wNt/yZXF&#xA;U2xV2KuxV2KuxV2KuxV2KuxV2KuxV2KuxV2KuxV2KuxV2KuxV2KuxV2KuxV2KuxV2KoTVv8AjlXv&#xA;/GCX/iBxVCeU/wDlFdG/5gbb/kyuKptirsVdirsVdirsVdirsVdirsVdirsVdirsVdirsVdirsVd&#xA;irsVdirsVdirsVdirsVQmrf8cq9/4wS/8QOKoTyn/wAoro3/ADA23/JlcVTbFXYq7FXYq7FXYq7F&#xA;XYq7FXYq7FXYq7FXYq7FXYq7FXYq7FXYq7FXYq7FXYq7FXYqhNW/45V7/wAYJf8AiBxVCeU/+UV0&#xA;b/mBtv8AkyuKptirsVdirsVdirsVdirsVdirsVdirsVdirsVdirsVdirsVdirsVdirsVdirsVdir&#xA;sVQ2pRvJp11Gg5O8Miqo6klSAMVYx5f8zrZ6DptpcaTqqz21rBFKosZiA6RqrCoG+4xVMP8AGVt/&#xA;1atV/wCkCf8A5pxV3+Mrb/q1ar/0gT/804q7/GVt/wBWrVf+kCf/AJpxV3+Mrb/q1ar/ANIE/wDz&#xA;Tirv8ZW3/Vq1X/pAn/5pxV3+Mrb/AKtWq/8ASBP/AM04q7/GVt/1atV/6QJ/+acVd/jK2/6tWq/9&#xA;IE//ADTirv8AGVt/1atV/wCkCf8A5pxV3+Mrb/q1ar/0gT/804q7/GVt/wBWrVf+kCf/AJpxV3+M&#xA;rb/q1ar/ANIE/wDzTirv8ZW3/Vq1X/pAn/5pxV3+Mrb/AKtWq/8ASBP/AM04q7/GVt/1atV/6QJ/&#xA;+acVd/jK2/6tWq/9IE//ADTirv8AGVt/1atV/wCkCf8A5pxV3+Mrb/q1ar/0gT/804q7/GVt/wBW&#xA;rVf+kCf/AJpxV3+Mrb/q1ar/ANIE/wDzTirv8ZW3/Vq1X/pAn/5pxV3+Mrb/AKtWq/8ASBP/AM04&#xA;q7/GVt/1atV/6QJ/+acVd/jK2/6tWq/9IE//ADTiqbfpBP0d9e9Gfj6fq+h6TevSlePpfa5e2Kor&#xA;FXYq7FXYq7FXYq7FXYq7FXYq7FXYq7FXYq7FXYq7FXYq7FXYq7FXYq7FXYq8j/5yA8w655cttI1X&#xA;y7qNzDrb/W7f9GRCWeKazNuz3N01sjKvOyAWVX/2J2bFXpHleK0i8t6XHZ30uqWotYfR1KeVp5bh&#xA;SgImeVyzMZPtVriqaYq7FXYq7FXYq7FXYq7FXYq7FXYq7FXYq7FXYq7FXYq7FXYq7FXYq7FXYq7F&#xA;XYq7FULJpemSX6ahJaQvfxxNbx3jRoZlhchnjEhHIIxUErWhxVdYafYadZw2On20VnZW68ILW3RY&#xA;oo1H7KIgCqPkMVRGKuxV2KuxVJvJ19dX3ljTru7kMtzNCGlkIAJNTvtQYqnOKuxV2KuxV2KuxV2K&#xA;uxV2KuxV2KuxV2KuxV2KuxV2KuxV2KuxV2KuxV2KuxV2KvFfz9bz5o2meYtd0q7vE0GbRokBs7to&#xA;JbLUoLqouRWSJljkgk4MIiakfEp64qznyTp/mtdc17VNZ+sWumXJtbfQNIubkXEtvb20PGV5fTkn&#xA;iMk0zM3LmzUpU4qmPkD/AJQ3Sf8AjAP1nFWQYq7FXYq7FXYq7FXYq7FXYq7FXYq7FXYq7FXYq7FX&#xA;Yq7FXYq7FXYq7FXYq7FXYqlfmXyzovmbRbjRNaga50y7AW5t1llh5hSGALwtG9KjpXFUwghSCCOF&#xA;CxSNQqmR2kcgCnxO5ZmPuxriqR+QP+UN0n/jAP1nFWQYq7FXYq7FXYq7FXYq7FXYq7FXYq7FXYq7&#xA;FXYq7FXYq7FXYq7FXYq7FXYq7FXYq7FXYqwHRPPPljy15c8oWGs3gtrrX3Wy0yMqzc5ie9AeK8mV&#xA;anuwxVn2KpD5l88eWPLV7o9jrN4La6166FjpkRVmMkzUH7IPFasoLHYEjFU+xVIfM3njyx5Zu9Ht&#xA;NavBa3Gu3a2OmxlWYyTNQCvEHitWUFjsCRiqfYqkPmbzx5Y8s3WkWutXgtZ9cu1sdNQqzc5moBXi&#xA;DxWpALHYVGKp9iqQeZ/PPlnyxc6Rba1di2m1y7Sw05eLNzmegFeIPFakAsdhUYqn+KpB5p88+WfK&#xA;8+kwa3d/VZNbu0sNPXizc5n6V4g8VqQCx2FcVT/FUh80eePLHlaTS49bvFtX1i7Sx09SGYvNIaCv&#xA;EHioqOTHYYqn2KuxV2KuxV2KuxV2KuxV2KuxV2KuxV2KuxV2Kvl7z/FJfWazIOcvlTyhFrFnvQx3&#xA;B1iKUup7H09PK/I4q+noZY5okljPKORQ6NuKhhUHfFXgX/OQFvLf+ZdSlUBn8reVhrNnUCsdwdWh&#xA;lDqxIoTHp7Lt2P3qvfIJo54I5ojyjlUOh8VYVGKvA/8AnIK2fUvMeolRyk8reVH1qzP++7g6pBIr&#xA;g9iU09h8vxVe921xHc28VxEaxzIsiH/JYVH68VeC/wDOQVnLqvmLUFUcm8r+U59btTv+7uP0lBIr&#xA;7dPgsGxV7zaXMV1aw3UJrFPGssZ2NVcBh0qOhxV4N/zkLYvrGv38a/E/lnynda3a0rVLj9IW7q+1&#xA;f2LF/D9dFXvFldR3dnBdxf3dxGkqb1+F1DDf6cVeEf8AOQti2teYLy3H2/LPlK+121YdUuBfW7I4&#xA;3/ls27f2KvdrC8jvbG2vIv7u5iSZP9WRQw/Xirxr85vLNz5087r5ftj/AKZpfli/1TTOm1895bLb&#xA;9elWtqV7Yq9Q8jeabbzX5R0rzBbjguoW6ySxd4ph8M0R945FZD8sVT3FXYq7FXYq7FXYq7FXYq7F&#xA;XYq7FXYq7FXYq+ffLVl+l7D8zYW+Lj5XsdMi3AKmSzvJm7U6zqQTir2L8vb03/kHy1fHrdaVYznt&#xA;/eWyN7+OKvPtZshq/mn834XH2PLllpkZOw/fWl5M3Sp/3au+Ks//AC5vTffl95YvT1udJsZj06vb&#xA;Ix6fPFWB6vYjWPN/5sxOOQj8tWWlx9elxbXkzrt8X+7V6frxVnX5a3xv/wAuvK96TVrnSbGVzUH4&#xA;mtkLDbwOKsH1axGtedfzThYF/R8s2WlIKF9rmG9mdQP+eimg61xVm35Y331/8t/Kt4TyafSLF3Na&#xA;/GbdOQr7NXFWFapYDW/Pn5nQMvP0fLFlpKjrX61HezMorQD7a1HvXvirM/ytvvr35aeVLstyabSL&#xA;FpDv9v6ugfrv9quKsO1OxGt/mD+ZMBHL0PK9lpQBI/4+1vZiv8v7Q+1+rFWX/lVem+/LHyndMavL&#xA;pFiZD/li3QP1/wAoHFUo0Q/W/wA8fNU//Vt0TSbLsP7+a7uNqdfpxVL9XstW/LXW7/zJotpLqPkn&#xA;VZjdeYtGtxynsLl6epqFpGATJG4FZ4uo+2u1Rir0LRNd0fXdLg1XR7yK+066XnBcwtyRh/AjoQdx&#xA;3xVH4q7FXYq7FXYq7FXYq7FXYq7FXYq7FXYq8c/IW0S/tfO08lTHd6hDYsdulvplshFPb1PpxVk/&#xA;5E3Dz/lB5VL7PDYrbuBXZrdmhI38DHiqG/L+BL/zb+Zl2393c6vDYMy7f7y6ZbRtSu9Rz+XhiqI/&#xA;Ied5fyg8rep9uGzFs48Dbu0JH/JPFVDyBDHfec/zLvHHKK41W2sGp0pa6Zbow5f89Dt2xVW/IaaS&#xA;T8oPLAkNXgtPqzHbrbSPDtTt+72xVR8gRx33nn8y7twHil1O0sCK1HG202BWXkP8qRtuxJxVV/IW&#xA;V5Pyh8tK55Pb272pPX/eaZ4P+ZeKqfkKNLv8wfzLu3AaOTULGy4k1+G302GoI6ULSsfpxVf+QcjN&#xA;+UXlyN2LNawy2hJrWtrcSQbg9Ken07dMVW+Q1W5/MX8yrthyia+0+yAanS302IsCP9aY4qu/INm/&#xA;5VH5ehY1a0jns2rWtbW6lgoa9x6eKteQv335lfmTeDeP67ptmh6Ctvp0bNt1qGmO+KvQcVedaz+W&#xA;WpaXqs/mP8ub6PRNWuG9TUdGnVm0jUG7maJd4JT/AL9i38Qak4qifLn5s6dc6lH5f81WcnlXzU9F&#xA;TTb5lMFy3jZXY/dTrXoAQ3+TirPMVdirsVdirsVdirsVdirsVdirsVdiryj/AJxujP8AgrVbo9Lv&#xA;XdQkU0oCsbJbg1/a2h6/R2xVNvyJpH+Xsdl1On6lq1oaGopHqVxxA9gpAGKtfk6RJB5xuq1+s+a9&#xA;WNa1JEMi243/ANWEU9qYq78iuMXkE6eKA6bqur2jAbU4alcMBx/Zorj4fDFXfk98aedLnqbjzZqt&#xA;d6n9w0dsK+G0G3tirvyMIj8kT6f30zWdZtGBFGBXUp3ow7H95irvyfPqf42uj/x8ebNUFTT/AI9/&#xA;Steg6f3H8cVb/I8iLybd6dXfS9b1mzZT9oFdSnejHoT+87Yq78oD6jeeLmtfrHmvUt+37hYbbYf8&#xA;8Pv9sVd+SB9Lyjf6d0/Rmu61acNjx46jM/Gvf+864q1+UJ9Wfz1dVBM/mvUFqB2t44LalfYwn6cV&#xA;b/JL915W1TTh00zX9atAAaqAuozPRa70+PvirX5RkTXfny72LTear5OXU0toLe3C8vYxHbt0xV6F&#xA;irsVSzzD5Z8v+ZNNk0zXtPg1Kwk+1BcIHANKclJ3Vh2ZSCMVYMvk78xPJihvJWqDX9Ej6eWNckPq&#xA;og/Ys9RoXXwVZgyjxxVNfL35s+X9R1WPQdXt7ny15mk2j0fVkELTHpW1nUtBcKT09NyT4YqyzVNV&#xA;0zSbCbUdTuorKwtl5z3U7rHGi+LMxAxVKvKnn/yZ5sWY+XdXt9Ra3p68UZIlQHozRuFcK3ZqUPbF&#xA;V/mrzz5R8pwRT+YtVg05LhituspJkkI68I0DO3HuQNu+Kpho+taTrWnQ6lpF5Df2FwOUN1buskbD&#xA;vRlJ3HcdsVSLVfzS/LvSddXQtS8wWdrqpKq1tJIBwZt1WV/sRM3YOwJxVk8k0UUTTSOqRIpd5GIC&#xA;qoFSxJ2AAxVjfl38zvy/8yalLpmh69aX9/EC31eJ/idVJDPFWglUU3aOoxVk+KuxV2KsT8qaNo+r&#xA;eRdHttVsbfULdI1kSG6iSZA45KGCyBhyoxFffFWIflR5J8mzjzhb3eg6dcPY+Z9ShiMtnA5SJzHc&#xA;Rxgsh+FVnHEDYDbFXfkt5J8mah5H/SN1oGm3D3mp6tJG0tpBIyxjUZ4405Mh2VUAX2xV35U+SfJs&#xA;7ecre70DTp2sfM+oww+raW7lInEVwkakofgUT/CO3TFXfkx5I8mX/kyXUrvQNOuHvdW1aVGltIHZ&#xA;Y11GeJE+JDxCrHQKNgMVd+VXknybPJ50t7rQNOnNj5n1CGEy2kEnCJ0huERCyEhV9fZeg6DbFXfk&#xA;15J8mah5RudSutA064a91jV5YpJbSBj6a6hNEiqCh4KojoFGwxV35WeSfJk1z52trrQdNnay8zXs&#xA;UPqWkD8IZIYJ0RAyHii+qQANsVd+TfknyZqHlW+1O50HTrg32tavLC8tpAwES6hNEiRhkqqKI6Kv&#xA;bFXfld5J8mS3vne0u9B06aSy8y3aQiWzgYpBLBbzxqoZDxQeqQoG3fFXfk55K8mah5Z1LUbnQNOu&#xA;PrmuaxJA0lnAwWFb+WNEjLIf3ahKKO3TFXflf5J8my6h55s7zQdNney8yXKwCWzgYpbzW1vPGq8l&#xA;NFBkbiB2xV35PeSfJl/5f1bULnQNNnF1r+sPbmS0gk4QrfSxxxozJ9hAlFpsBirO/wDlXnkD/qWd&#xA;K/6Qbb/mjFXf8q88gf8AUs6V/wBINt/zRirv+VeeQP8AqWdK/wCkG2/5oxV3/KvPIH/Us6V/0g23&#xA;/NGKoHWfyl/LTV9Nn0+78tacsM68TJBbRQTIezRyxKrow8VOKsS0P/nG7yfaanaXWs3D6/a6aCNN&#xA;sLq2s4oh4NdG3hia7cDoZie+2Kpx5v8AyL/L/wAwR28trp1voeq2bepaajp9tbIQf5JoWjaGeM91&#xA;kU+1MVWeUfyI8i6FJc3uoWcGv6vekGe+vrW1CKorRLe2ijSCBPEIu/c4ql3mD/nHXyhe6rPqOhS/&#xA;4da9QR39ra2llPbOBtzhiuYZVt5aftxcfGld8VUNY8t/kd+Xml2Gha35cthpV3b3X+5q8trecSS2&#xA;8RmkjnuXPrfWJUDNHQb04rSgGKpb5f8A+cdfJmp2On3cz38Plmfhfw+Wb2CzS5T1BzWC4vIka7aN&#xA;a/3RmNNgTtirN/Mv5Kfllr+lfo+XQbSw4kNb3mnQQ2txCy9DHJGn/CsCp7jFWZ/Vo/qv1Xf0vT9L&#xA;3404/qxVWxV2Ksf8gf8AKG6T/wAYB+s4qxryBNHYedPzMtGNI7fVba/ZQe11plu7EL7mM796e2Kq&#xA;/wCQ0EkX5QeVzJ/eT2n1lunW5kebt/xkxVR8hSpY+evzMtZDxih1KzvyaEfDc6bCWbiK94iKjrTF&#xA;VX8hIZI/yg8sGQUee1a5YDYf6TK8+3Xb95iqn5Dkjs/zA/Mu1chYo7+xvuRG/G402HkSRtTlC3vi&#xA;qp+Qkbp+UXluRxxe6gku2FKb3U8k/wBP95179cVWeRHW1/MT8yrVm4xLfafe8mIoBcabEGJPhyhO&#xA;KrvyERx+Ufl2VwQ91FNeMDWtbq5luKmvWvqdcVW+RGW3/Mn8yrSvGMXmm3oBpQfWNOjViT1+1Afb&#xA;FW/yDBP5SeX5m+1drcXh8a3V3LPU+/7zft4Yq15EpB+Z35k2Y2RrrS7xUrt+/wBPSNjQ+L25xVv8&#xA;gqt+UuhTmpN39avKmlf9KvJp+3T+86Yq9BxV2KuxV2KuxV2KuxV2KuxVgP5qfl7q/nuOx0j6+mna&#xA;Db+rd3E0ZLXT30a0suKlOHpROxkf46sQFpSpxVl+hDWho1kuuegdYWFBftaMzQGYCjtGXWNuLHcV&#xA;XbFUfirsVdirsVY/5A/5Q3Sf+MA/WcVef61e/ofzd+bUr0Al8tWeqIN/+Pe2vIXNOv8Aupen6zir&#xA;Pfy3sjYfl55XsmFGttJsYmG32ktkU9NuoxVgusXw0Xzn+akznj63liz1VNyu1tDewuw/5FqKjwxV&#xA;nH5Z2P1D8ufK1kRRrfSbGN9qfEtugY036tXFWE6vfjQ/PP5nzsePreV7PVk/Zp9UjvYWYdR+wN/b&#xA;FWaflfYmw/LXyrZleLwaRYpIKEfH9XTnsdx8VcVYZq19+g/P/wCZM5IT1/K1nqqsaf8AHot7CWqf&#xA;h/ZH2vDwxVmP5WWJsPyz8qWjDi8OkWKyDf7f1dC/Xf7VcVYhql8NE/Mb8xJjt9Y8qWeqV2O1n9di&#xA;23H44qy38qLI2X5YeUrY7PHpFjzB3+M26M3/AAxOKsT1S/Gi/mX5+lJFLnynaaoQdwfqTXsR22O1&#xA;e2Ksq/KSx+o/lb5StiKMmkWRcbfbeBHbp/lMcVZbirsVdirsVdirsVdirsVdirsVdirsVdirsVdi&#xA;rH/IH/KG6T/xgH6zirx7/nIS5k03zHfqNn81eV20SzGw9S4GqQIFFT8REd+zbdvwVe+28EcEEcEY&#xA;pHEqog/yVFBirwL/AJyFu5NK8w3pU8ZPNXlWbQ7QVp6lwNSt0VOu9I75z0/jir3y1torW1htohSK&#xA;BFjjG32UAUdKDoMVeC/85DXj6Rr15IpVX80eVbrQrUEkF7j9IW6qu3X4L1z3/XVV7zZ2sVpZwWkQ&#xA;pFbxpFGP8lFCjp7DFXhH/OQ16+j67dTg0fzN5UvtBtR3e4N7bhE2/wAi7fFXu1jaR2dlb2kX91bR&#xA;pEn+qihR+AxV4V/zkNfS6Nrlxcr18y+VNR0C2Xb4rh7u2CKNialbptv6Yq9006zjsdPtrKPeO1iS&#xA;FDv0jUKOpPh44q8M/wCch79tE1qe6H2vMnlTVNAgWoHKd7m29Nd67kXLUFP7FXuWmWSWGm2ljH/d&#xA;2sMcCfKNQo/ViqJxV2KuxV2KuxV2KuxV2KuxV2KuxV2KuxV2KuxVj/kD/lDdJ/4wD9ZxVU8xeS/L&#xA;PmO70m71myW6uNDulvtMkYspinXofhI5CoB4naoHhiqeYqknmPyZ5Z8x3Gl3GtWKXc2i3S32muxZ&#xA;TFOm4b4SOQqASp2NBUbYqneKpJ5j8l+WfMk+l3GtWKXk2jXS32muxYGOdNwfhI5CoBKtsaCo2xVO&#xA;8VSTzJ5L8s+ZJtLn1qxW8l0a6S+05mLKY5491b4SOQqBVWqpoKjFU7xVI/M3kryz5nk0yTW7Jbt9&#xA;Hu0v9PYsymOeM1U/CV5L4q2x7jFU8xVI/M/kryz5nfTX1yyW8bSLtL+wLFlMc8f2T8JHJfFW+E9x&#xA;iqeYq7FXYq7FXYq7FXYq7FXYq7FXYq7FXYq7FXYq7FWP+QP+UN0n/jAP1nFWQYq7FXYq7FXYq7FX&#xA;Yq7FXYq7FXYq7FXYq7FXYq7FXYq7FXYq7FXYq7FXYq7FXYq7FXYqx/yB/wAobpP/ABgH6zirIMVd&#xA;irsVdirsVdirsVdirsVdirsVdirsVdirsVdirsVdirsVdirsVdirsVdirsVf/9k=</xapGImg:image>
    </rdf:li>
   </rdf:Alt>
  </xap:Thumbnails>
 </rdf:Description>

 <rdf:Description rdf:about=''
  xmlns:dc='http://purl.org/dc/elements/1.1/'>
  <dc:format>image/svg+xml</dc:format>
 </rdf:Description>

</rdf:RDF>
</x:xmpmeta>
                                                                                                                                                                                                                                                                                                                                                                                                                                                                                                                                                                                                                                                                                                                                                                                                                                                                                                                                                                                                                                                                                                                                                                                                                                                                                                                                                                                                                                                                                                                                                                                                                                                                                                                                                                                                                                                                                                                                                                                                                                                                                                                                <?xpacket end='w'?>
			</metadata>
		<g id="Layer_1">
			<g>
				<polyline style="fill:none;stroke:#000000;stroke-width:0.5;" points="10.871,0 10.871,79.6 146.33,79.6 "/>
				<g>
					<g>
						<g>
							<text transform="matrix(1 0 0 1 1.0718 11.0171)"><tspan x="0" y="0" style="font-family:'Helvetica'; font-size:9;">U</tspan></text>
						</g>
					</g>
				</g>
				<g>
					<g>
						<g>
							<text transform="matrix(1 0 0 1 131.686 87.2031)"><tspan x="0" y="0" style="font-family:'Helvetica'; font-size:9;">x</tspan></text>
						</g>
					</g>
				</g>
				<polyline style="fill:none;stroke:#000000;" points="10.871,37.085 81.005,37.085 81.005,4.5 106.453,4.5 106.453,46.705 
					143.382,46.705 "/>
				<line style="fill:none;stroke:#000000;stroke-width:0.5;" x1="11.343" y1="92.99" x2="11.343" y2="172.59"/>
				<g>
					<g>
						<g>
							<text transform="matrix(1 0 0 1 1.3955 104.0073)"><tspan x="0" y="0" style="font-family:'Symbol'; font-size:9;">&#x3A8;</tspan></text>
						</g>
					</g>
				</g>
				<g>
					<path style="fill:none;stroke:#000000;" d="M11.831,134.784c0.919-11.841,1.236-14.822,1.522-17.463
						c0.286-2.641,0.467-3.237,0.587-3.833c0.121-0.596,0.407-1.448,0.618-1.363c0.211,0.085,0.437,0.426,0.603,1.363
						c0.166,0.937,0.422,2.385,0.603,4.004c0.181,1.619,0.347,2.981,0.603,6.048c0.256,3.067,0.196,1.704,0.904,11.245"/>
					<path style="fill:none;stroke:#000000;" d="M17.283,134.778c0.919,11.841,1.235,14.822,1.522,17.463
						c0.286,2.641,0.467,3.237,0.588,3.833c0.121,0.596,0.407,1.448,0.618,1.363c0.211-0.085,0.437-0.426,0.603-1.363
						c0.166-0.937,0.422-2.385,0.603-4.004c0.181-1.618,0.347-2.981,0.603-6.048c0.256-3.067,0.196-1.704,0.904-11.245"/>
				</g>
				<g>
					<path style="fill:none;stroke:#000000;" d="M22.649,134.784c0.919-11.841,1.236-14.822,1.522-17.463
						c0.286-2.641,0.467-3.237,0.587-3.833c0.121-0.596,0.407-1.448,0.618-1.363c0.211,0.085,0.437,0.426,0.603,1.363
						c0.166,0.937,0.422,2.385,0.603,4.004s0.347,2.981,0.603,6.048c0.256,3.067,0.196,1.704,0.904,11.245"/>
					<path style="fill:none;stroke:#000000;" d="M28.1,134.778c0.919,11.841,1.236,14.822,1.522,17.463s0.467,3.237,0.588,3.833
						c0.12,0.596,0.407,1.448,0.618,1.363c0.211-0.085,0.437-0.426,0.603-1.363c0.166-0.937,0.422-2.385,0.603-4.004
						c0.181-1.618,0.346-2.981,0.603-6.048c0.256-3.067,0.196-1.704,0.904-11.245"/>
				</g>
				<g>
					<path style="fill:none;stroke:#000000;" d="M33.467,134.784c0.919-11.841,1.236-14.822,1.522-17.463
						c0.286-2.641,0.467-3.237,0.588-3.833c0.12-0.596,0.407-1.448,0.618-1.363c0.211,0.085,0.437,0.426,0.603,1.363
						c0.166,0.937,0.422,2.385,0.603,4.004c0.181,1.619,0.347,2.981,0.603,6.048c0.256,3.067,0.196,1.704,0.904,11.245"/>
					<path style="fill:none;stroke:#000000;" d="M38.918,134.778c0.919,11.841,1.235,14.822,1.522,17.463
						c0.286,2.641,0.467,3.237,0.588,3.833c0.121,0.596,0.407,1.448,0.618,1.363c0.211-0.085,0.437-0.426,0.603-1.363
						c0.166-0.937,0.422-2.385,0.603-4.004c0.181-1.618,0.346-2.981,0.603-6.048c0.256-3.067,0.196-1.704,0.904-11.245"/>
				</g>
				<g>
					<path style="fill:none;stroke:#000000;" d="M44.285,134.784c0.919-11.841,1.236-14.822,1.522-17.463
						c0.286-2.641,0.467-3.237,0.588-3.833c0.12-0.596,0.407-1.448,0.618-1.363c0.211,0.085,0.437,0.426,0.603,1.363
						c0.166,0.937,0.422,2.385,0.603,4.004c0.181,1.619,0.347,2.981,0.603,6.048c0.256,3.067,0.196,1.704,0.904,11.245"/>
					<path style="fill:none;stroke:#000000;" d="M49.736,134.778c0.919,11.841,1.236,14.822,1.522,17.463s0.467,3.237,0.588,3.833
						c0.121,0.596,0.407,1.448,0.618,1.363c0.211-0.085,0.438-0.426,0.603-1.363s0.422-2.385,0.603-4.004
						c0.181-1.618,0.347-2.981,0.603-6.048c0.256-3.067,0.196-1.704,0.904-11.245"/>
				</g>
				<g>
					<path style="fill:none;stroke:#000000;" d="M55.103,134.784c0.919-11.841,1.235-14.822,1.522-17.463
						c0.286-2.641,0.467-3.237,0.588-3.833c0.121-0.596,0.407-1.448,0.618-1.363c0.211,0.085,0.437,0.426,0.603,1.363
						c0.166,0.937,0.422,2.385,0.603,4.004c0.181,1.619,0.347,2.981,0.603,6.048c0.256,3.067,0.196,1.704,0.904,11.245"/>
					<path style="fill:none;stroke:#000000;" d="M60.554,134.778c0.919,11.841,1.236,14.822,1.522,17.463
						c0.287,2.641,0.467,3.237,0.588,3.833c0.121,0.596,0.407,1.448,0.618,1.363c0.211-0.085,0.437-0.426,0.603-1.363
						s0.422-2.385,0.603-4.004c0.181-1.618,0.347-2.981,0.603-6.048c0.256-3.067,0.196-1.704,0.904-11.245"/>
				</g>
				<g>
					<path style="fill:none;stroke:#000000;" d="M65.92,134.784c0.919-11.841,1.236-14.822,1.522-17.463
						c0.286-2.641,0.467-3.237,0.588-3.833c0.121-0.596,0.407-1.448,0.618-1.363c0.211,0.085,0.437,0.426,0.603,1.363
						c0.166,0.937,0.422,2.385,0.603,4.004c0.181,1.619,0.347,2.981,0.603,6.048c0.256,3.067,0.196,1.704,0.904,11.245"/>
					<path style="fill:none;stroke:#000000;" d="M71.372,134.778c0.919,11.841,1.236,14.822,1.522,17.463
						c0.287,2.641,0.467,3.237,0.588,3.833c0.121,0.596,0.407,1.448,0.618,1.363c0.211-0.085,0.437-0.426,0.603-1.363
						c0.166-0.937,0.422-2.385,0.603-4.004c0.181-1.618,0.347-2.981,0.603-6.048c0.256-3.067,0.196-1.704,0.904-11.245"/>
				</g>
				<path style="fill:none;stroke:#000000;" d="M76.739,134.784c0.919-11.841,1.235-14.822,1.522-17.463s0.467-3.237,0.588-3.833
					c0.121-0.596,0.407-1.448,0.618-1.363c0.211,0.085,0.437,0.426,0.603,1.363c0.081,0.455,0.182,1.031,0.287,1.688l1.038,2.596
					c2.948,7.215,22.843,15.865,24.007,16.486"/>
				<path style="fill:none;stroke:#000000;" d="M105.401,134.257c0.142,0.053,0.361,0.135,0.516,0.226s0.297,0.168,0.516,0.342
					c0.22,0.173,0.168,0.096,0.774,0.635"/>
				<path style="fill:none;stroke:#000000;" d="M107.217,135.459c0.787,0.669,1.058,0.837,1.303,0.986
					c0.246,0.149,0.4,0.183,0.504,0.217c0.103,0.034,0.348,0.082,0.529,0.077s0.375-0.024,0.516-0.077
					c0.142-0.053,0.361-0.135,0.517-0.227c0.155-0.091,0.297-0.168,0.516-0.341s0.167-0.096,0.774-0.635"/>
				<g>
					<path style="fill:none;stroke:#000000;" d="M111.812,135.459c0.787-0.668,1.059-0.837,1.303-0.986
						c0.246-0.149,0.4-0.183,0.504-0.216c0.103-0.034,0.348-0.082,0.529-0.077s0.375,0.024,0.517,0.077
						c0.142,0.053,0.361,0.135,0.516,0.226s0.297,0.168,0.516,0.342c0.219,0.173,0.168,0.096,0.774,0.635"/>
					<path style="fill:none;stroke:#000000;" d="M116.481,135.459c0.787,0.669,1.058,0.837,1.303,0.986
						c0.246,0.149,0.4,0.183,0.503,0.217c0.104,0.034,0.349,0.082,0.529,0.077s0.374-0.024,0.516-0.077
						c0.142-0.053,0.362-0.135,0.516-0.227c0.155-0.091,0.297-0.168,0.517-0.341s0.168-0.096,0.774-0.635"/>
				</g>
				<g>
					<path style="fill:none;stroke:#000000;" d="M121.077,135.459c0.787-0.668,1.058-0.837,1.304-0.986
						c0.245-0.149,0.4-0.183,0.503-0.216c0.104-0.034,0.349-0.082,0.529-0.077s0.374,0.024,0.516,0.077
						c0.142,0.053,0.362,0.135,0.517,0.226s0.297,0.168,0.516,0.342c0.219,0.173,0.168,0.096,0.774,0.635"/>
					<path style="fill:none;stroke:#000000;" d="M125.745,135.459c0.787,0.669,1.058,0.837,1.303,0.986s0.4,0.183,0.503,0.217
						c0.104,0.034,0.349,0.082,0.529,0.077s0.375-0.024,0.516-0.077c0.142-0.053,0.361-0.135,0.517-0.227
						c0.155-0.091,0.296-0.168,0.516-0.341c0.219-0.173,0.167-0.096,0.774-0.635"/>
				</g>
				<g>
					<path style="fill:none;stroke:#000000;" d="M130.341,135.459c0.787-0.668,1.058-0.837,1.303-0.986
						c0.246-0.149,0.4-0.183,0.503-0.216c0.104-0.034,0.349-0.082,0.529-0.077s0.375,0.024,0.516,0.077
						c0.142,0.053,0.362,0.135,0.517,0.226s0.297,0.168,0.516,0.342c0.219,0.173,0.167,0.096,0.774,0.635"/>
					<path style="fill:none;stroke:#000000;" d="M135.009,135.459c0.787,0.669,1.058,0.837,1.303,0.986s0.4,0.183,0.503,0.217
						c0.104,0.034,0.349,0.082,0.529,0.077s0.374-0.024,0.516-0.077c0.142-0.053,0.361-0.135,0.516-0.227
						c0.155-0.091,0.297-0.168,0.517-0.341c0.219-0.173,0.167-0.096,0.774-0.635"/>
				</g>
				<path style="fill:none;stroke:#000000;" d="M139.605,135.459c0.787-0.668,1.058-0.837,1.303-0.986
					c0.246-0.149,0.4-0.183,0.503-0.216c0.104-0.034,0.349-0.082,0.529-0.077s0.375,0.024,0.516,0.077
					c0.142,0.053,0.361,0.135,0.516,0.226c0.155,0.091,0.297,0.168,0.517,0.342c0.219,0.173,0.168,0.096,0.774,0.635"/>
				<path style="fill:none;stroke:#000000;" d="M144.273,135.459c0.788,0.669,1.059,0.837,1.304,0.986"/>
				<line style="fill:none;stroke:#000000;stroke-width:0.5;" x1="14.284" y1="135.149" x2="145.632" y2="135.149"/>
				<g>
					<g>
						<g>
							<text transform="matrix(1 0 0 1 131.686 143.8291)"><tspan x="0" y="0" style="font-family:'Helvetica'; font-size:9;">x</tspan></text>
						</g>
					</g>
				</g>
			</g>
			<rect y="84.878" style="fill:none;" width="147.402" height="2.835"/> 
		</g>
	</svg>
