<?xml version="1.0" encoding="iso-8859-1"?>
<!-- Generator: Adobe Illustrator 11 Build 196, SVG Export Plug-In . SVG Version: 6.0.0 Build 78)  -->
<!DOCTYPE svg PUBLIC "-//W3C//DTD SVG 1.0//EN"    "http://www.w3.org/TR/2001/REC-SVG-20010904/DTD/svg10.dtd" [
	<!ENTITY ns_flows "http://ns.adobe.com/Flows/1.0/">
	<!ENTITY ns_svg "http://www.w3.org/2000/svg">
	<!ENTITY ns_xlink "http://www.w3.org/1999/xlink">
]>
<svg
	 width="147.401" height="149.044" viewBox="0 0 147.401 149.044"
	 style="overflow:visible;enable-background:new 0 0 147.401 149.044" xml:space="preserve">
	<metadata>
<?xpacket begin='﻿' id='W5M0MpCehiHzreSzNTczkc9d'?><x:xmpmeta xmlns:x='adobe:ns:meta/' x:xmptk='XMP toolkit 3.0-29, framework 1.6'>
<rdf:RDF xmlns:rdf='http://www.w3.org/1999/02/22-rdf-syntax-ns#' xmlns:iX='http://ns.adobe.com/iX/1.0/'>

 <rdf:Description rdf:about=''
  xmlns:pdf='http://ns.adobe.com/pdf/1.3/'>
 </rdf:Description>

 <rdf:Description rdf:about=''
  xmlns:tiff='http://ns.adobe.com/tiff/1.0/'>
 </rdf:Description>

 <rdf:Description rdf:about=''
  xmlns:xap='http://ns.adobe.com/xap/1.0/'
  xmlns:xapGImg='http://ns.adobe.com/xap/1.0/g/img/'>
  <xap:CreateDate>2006-07-17T03:47:19Z</xap:CreateDate>
  <xap:ModifyDate>2006-07-17T03:47:19Z</xap:ModifyDate>
  <xap:CreatorTool>Illustrator</xap:CreatorTool>
  <xap:Thumbnails>
   <rdf:Alt>
    <rdf:li rdf:parseType='Resource'>
     <xapGImg:format>JPEG</xapGImg:format>
     <xapGImg:width>256</xapGImg:width>
     <xapGImg:height>256</xapGImg:height>
     <xapGImg:image>/9j/4AAQSkZJRgABAgEASABIAAD/7QAsUGhvdG9zaG9wIDMuMAA4QklNA+0AAAAAABAASAAAAAEA&#xA;AQBIAAAAAQAB/+4ADkFkb2JlAGTAAAAAAf/bAIQABgQEBAUEBgUFBgkGBQYJCwgGBggLDAoKCwoK&#xA;DBAMDAwMDAwQDA4PEA8ODBMTFBQTExwbGxscHx8fHx8fHx8fHwEHBwcNDA0YEBAYGhURFRofHx8f&#xA;Hx8fHx8fHx8fHx8fHx8fHx8fHx8fHx8fHx8fHx8fHx8fHx8fHx8fHx8fHx8f/8AAEQgBAAEAAwER&#xA;AAIRAQMRAf/EAaIAAAAHAQEBAQEAAAAAAAAAAAQFAwIGAQAHCAkKCwEAAgIDAQEBAQEAAAAAAAAA&#xA;AQACAwQFBgcICQoLEAACAQMDAgQCBgcDBAIGAnMBAgMRBAAFIRIxQVEGE2EicYEUMpGhBxWxQiPB&#xA;UtHhMxZi8CRygvElQzRTkqKyY3PCNUQnk6OzNhdUZHTD0uIIJoMJChgZhJRFRqS0VtNVKBry4/PE&#xA;1OT0ZXWFlaW1xdXl9WZ2hpamtsbW5vY3R1dnd4eXp7fH1+f3OEhYaHiImKi4yNjo+Ck5SVlpeYmZ&#xA;qbnJ2en5KjpKWmp6ipqqusra6voRAAICAQIDBQUEBQYECAMDbQEAAhEDBCESMUEFURNhIgZxgZEy&#xA;obHwFMHR4SNCFVJicvEzJDRDghaSUyWiY7LCB3PSNeJEgxdUkwgJChgZJjZFGidkdFU38qOzwygp&#xA;0+PzhJSktMTU5PRldYWVpbXF1eX1RlZmdoaWprbG1ub2R1dnd4eXp7fH1+f3OEhYaHiImKi4yNjo&#xA;+DlJWWl5iZmpucnZ6fkqOkpaanqKmqq6ytrq+v/aAAwDAQACEQMRAD8A9U4q7FXYq7FXYq7FXYq7&#xA;FXYq8r/Nr86LnyL5h0jTrbTV1C1MX6R8xzFmD2mmm5jtBMgXqfVl7+HvUKvUwQwBBqDuCOhGKt4q&#xA;+bdD1bVo/wA1IfzFa+mbS9e803flBrXmfQezjg9KwdV6ClzC7fT4k4q+ksVSrzVrcWg+WNW1uWnp&#xA;6ZZ3F4wPf0Imkp9PGmKvF/yAXXvL3mWPRNWv575fNnl6181Brly3p3skpS6jWp+0wmRm+WKvfcVe&#xA;c/n5qN9B+Xkuk6dK0Go+Zbyz0K0lWtQb+dUkAp4whxiqH/IuS40/T/Mfky4mkmHlHWJ7HT2mYu/6&#xA;OlCz2gZjueKSFR4ACm2KvTsVdirsVdirsVdirsVdirsVdirsVdirsVdirsVdirsVdirsVdirsVdi&#xA;rw7WtFHm3zj+cCsvqGz0G10KwYioDyWst4wH+pM6H54q9H/KvV21j8tfK+pO3KW40y1MzeMqxKsn&#xA;/DqcVZBqt/Hp2l3moS/3VnBJcSVNBxiQud/kMVfPM1g+lf8AOKvlzWpCWu9KurDzEZKfEXm1MTs+&#xA;1eiXJ+jFX0hirzf/AJyIupovyh1y3tz/AKTqP1bT4B0qbu6ihb/hHbFUL5wtodG/Nv8ALG4gHp2s&#xA;kWqaNIdvsG0SW3Xp/PD/AJ91XqWKvMvzQrffmJ+WOhn+7l1S71VxvSumWbMpP+ymA+nFXeV6af8A&#xA;n153sjt+mdM0nVYx/wAw4ls3I+fFcVem4q7FXYq7FXYq7FXYq7FXYq7FXYq7FXYq7FXYq7FXYq7F&#xA;XYq7FXYq7FXmP5JBbxvPWsMob9JeadQWNjT4oLUR28f/ACbbFW/+cdq2/wCWcOjsayaFqGpaY57/&#xA;ALi9lKg9eiuMVTr859S/Rv5T+bboGjfou6iQ+DTxmFT9DSDFUn84eXOH/OO1/oYWrWXlkRon+VZ2&#xA;YZR1/mixVmHkjUf0n5L0DUq1+u6baXFf+MsCP4D+bwxVhv531uP8DaUu/wCkPNem+qvjDb+pcSb/&#xA;APPMYq3+d4+rjyPqo2/R/mvTDKw7Q3Bkt5Nq/wDFo7Yq9MxV5lqn+nf85FaHbEVGjeWry/B8GvLt&#xA;LYdu4jbFXatSx/5yI8v3RNP0z5cvtPH+UbS5juh4dA58cVem4q8e/M+DXvOvn+28h6Pqt1pNppWl&#xA;Ta3qN1YymGRrt2MOnQtIu68JAZSvce9CFWY/lD5pu/NP5baBrd63O/uLb075yApa5t3aCZiBQAtJ&#xA;ExpirMMVdirsVdirsVdirsVdirsVdirsVdirsVdirsVdirsVdiqG1G+g0/T7q/uDxgtIZJ5W8EjU&#xA;ux+4YqwP/nHyymtfyh8vyXH+9N/HNqM7b/E17cSXAO/+TIMVQ/5PH6p5i/MjRifit/Ms1+B4LqME&#xA;Uw7nYkMcVb/5yKPrfldd6YPt6xe6dp6AVqfWvoeQoOtUUjtir0DWLBdR0i+09qcby3lt2r0pKhTf&#xA;Y+PhirCvyAvje/k35VlP2orP6sw7g2sjwEH5enTFUJ+YFLr84PyxsPtJFJq+oTKOo9CzEcZ9vjmx&#xA;Vd/zkZFJ/wAqh1m7iBM+nSWd9FTfe2vIZD2P7AOKvSI5EkjWRDyRwGVh0IIqDirzTy0Be/n750uu&#xA;p0nSNJ08Hao+sma6I8e1cVb/ADLra/mZ+WGq/spqGoae3v8AXrFgBtv9qIH6MVemYq8w/KIfpXzX&#xA;+Yfm1t/r2s/om0Y9DbaPEIFZP8lpHf6Riq38lnGk6p538lytxl0XW5ryzhJ3FhqgFzBQeAZnBpir&#xA;1HFXYq7FXYq7FXYq7FXYq7FXYq8u1b8iPyQsba41TVbA2dpHWW6u7jVdQhiQE7szNdKqipxVJPI3&#xA;5Wf84/8AnbSZ9W0LR7uTT4buazSeTUNSUStAQDJGBdsfTatV5UPiBirIf+hcfye/6ss//cS1P/sp&#xA;xV3/AELj+T3/AFZZ/wDuJan/ANlOKu/6Fx/J7/qyz/8AcS1P/spxV3/QuP5Pf9WWf/uJan/2U4q7&#xA;/oXH8nf+rLP/ANxLU/8AspxVjvmvyon5VT6H5t8v6tqg0KDUre08w6TeXs91Z/Ub1vQMwSVmo8Uj&#xA;qy/PFWW/nzrM+l/lPr5tfivdQhXTLSMfaeS/kW2ovvxkJ+jFWYeX9Ih0XQdN0eD+4021gs4v9SCN&#xA;Y1/BcVYJ5SJtPz08/wBq236SsdGv4+391FLbOff7Kj6MVW/nWfrF3+X+lDc3nmuwllQ0o0Nmss7g&#xA;g9d1Xtir03FXmf5AD6v5O1PR+n6E17V9PC/y+ndu9B1H+7O2KtXn+mf85G6dA26aT5Wnu08BJd3y&#xA;wePdIm/zpirIPzcsFv8A8rvNlqQCW0m8ZAaU5xwM6df8pRiqN/L7UP0l5C8t6gTU3el2U7H3kt0Y&#xA;9Se58cVYp+VLG985/mXq/X1NdTTg1KH/AHH2cUdCdiac/D78Vd+exNvpHlbVuiaR5o0i7lNAf3Zm&#xA;MD9QaVE1MVZ7rmpx6VouoapL/d2FtNcvXpxhjLn/AIjirDPyC0uTT/yh8tibe4vbY6jPIervfSNc&#xA;8m9yJRiqM83flN5c8y6yuutd6lo+trAtqdT0e8kspmhVi6q5T4WoWPUfwxVKB+T2vxkrb/mR5nWH&#xA;9lZZ7aZx41doBX7sVb/5VH5m/wDLk+Y/+DtP+qGKu/5VH5m/8uT5j/4O0/6oYq7/AJVH5m/8uT5j&#xA;/wCDtP8Aqhirv+VR+Zv/AC5PmP8A4O0/6oYq7/lUfmb/AMuT5j/4O0/6oYq7/lUfmb/y5PmP/g7T&#xA;/qhirv8AlUfmb/y5PmP/AIO0/wCqGKu/5VH5m/8ALk+Y/wDg7T/qhiqf+T/JGr6BfTXN75r1XX45&#xA;YvTW21FoDGh5Bua+lHGeW1OuKssxV5r+RX/HG80f+BTrX/UUcVelYq7FXYq7FXYqxD83tBOvflh5&#xA;n0tV5yzadO8CeM0KetEP+Rka4q8+v/MS+err8odISQTG/EXmnWADUounW4KCT2e7cr81xV7hirzK&#xA;cCy/5yOtJT8Mer+VZYFpQcprO/WSvap9OY+JxVvz3/pX5zflpYjdLYaxqEy9v3dosMR7ftzHFXpm&#xA;KvMvyj/0Pzb+ZejEcWh8w/pEjvTUrSKQHoOvDFW/Kdbz89vPt0eml6fo+nqf+M0ct0w+jmv34q9D&#xA;1OzW+027sm2W6hkhY+0ile3zxVgv/OPl695+TXld5BR4bZ7Vh4G0mktyOg6eliqG/ICtx5T1jWab&#xA;a75h1fUFYdCHu2iqNv8AiqmKq/8AzkLZS3f5N+ZhFtNbQR3kbbVVrSeO4qK/8YsVWfnXr4X8jPMO&#xA;qW9SuoaakUQWpJGoFIFA+yTX16YqzrQ9NTS9E0/TE+xY20Nsu9doYwg3/wBjiqOxV2KuxV2KuxV2&#xA;KuxV2KuxV2KuxV2KuxV2KuxV2KuxV2KtEAih3B6jFWHeSfyl8l+S9TvtS0K2kjuL1PRUTStKtvb8&#xA;zKbe2Df3cRkYuVHfFWZYq8y/MI/Uvzb/ACy1T7MUk2q6ZOw/a+tWYeFSagf3kPfFXV+u/wDORwH2&#xA;otH8q/dNe3//AFTh/HFXpuKvMvLY/R/5/ec7Qin6a0jStTX3+qmWzJ6D2HfFXfk+PrfmL8yNZIo1&#xA;x5kmsAfFdNgigHb+YsMVem4q8l/KDUk0TyN5zgbaPytrmuQgEbCOJzdKe2xWWuKp1+QWmtp/5OeV&#xA;IWrylshdkmtSbx2ua7gdfVrirJ/OWknWPKGuaSByOo6fdWoXc1M0LRjpv+12xV4rqOrjXvyH/LDT&#xA;q8zr2o6FpU42qVtZKzMRvUA2hJ/zGKvoPFXYq7FXYq7FXYq7FXYq7FXYq7FXYq7FXYq7FXYq7FXY&#xA;q7FXYq7FXYq8x/P8/UfLOh+Za8Y/LHmDTNTuHp0g9b6vKK+BW43xV35cMNS/NP8AMrXV+O3jurDR&#xA;bd96BrC25XC/8jZ98VenYq8t84XNvoH55eUdcuGWK11jSdT0i6uGrxQW3C/jDHtXg1MVRH/OPEMx&#xA;/K6x1S4Thc65dX2qzKdv967qR0P0x8Tir0rFXzn551c+WP8Ald2k0K/pW1sb3TYxu0p1aEafPxH/&#xA;ABm8N8Ve9+XNKXSPL2l6StOOnWkFotNhSCJY/wDjXFUxxV81/l9p2pD80tI/LyW1kSw8galrWrln&#xA;WkT2l7Q6Y6mn2uV27U/pir6UxV2KuxV2KuxV2KuxV2KuxV2KuxV2KuxV2KuxV2KuxV2KuxV2KuxV&#xA;2KpV5p8t6Z5m8u6hoGpqzWGpQPbz8DRwGGzITWjKaMu3XFUB+X3kTSvJHlyPRNOlmuQZZLm7vbpg&#xA;89xcTHlJLKwAqx6fIDrirJMVYh+Zn5aaL+YOhw6VqdxcWf1a4W4gu7RlSZTwaKRQWDDjJFIykU/V&#xA;irJNI0qx0jSrPSrCIQ2NhDHbWsQ34xRKEQVPgBiqLxVg3m/8ofLXmrzjovmnUZJ1utHCq1tGwEN0&#xA;kMvrwJOCCSsU3xgd++Ks5xV2KuxV2KuxV2KuxV2KuxV2KuxV2KuxV2KuxV2KuxV2KuxV2KuxV2Ku&#xA;xV2KuxV2KuxV2KuxV2KuxV2KuxV2KuxV2KuxV2KuxV2KuxV2KuxV2KuxV2KuxV2KuxV2KuxV2Kux&#xA;V2KuxV2KuxV2KuxV2KuxV2KuxVif5l+eV8neWWv4bf69rF5LHYaHpo+1c31weMMXUfD1Zt/sg98V&#xA;YQPNH5t+RNS0u/8AzBvLDV/K+sTR2d/c2EPoHSbqduMJJNPVtyxCs7bj7uSr2PFXYq7FXYqwbz1+&#xA;a+m+WNTt9DstMvfMfmS5jNwujaXGJZo7des0xJpGldl7k4qnXkjztoXnPy/DrmiyObeRmimgmXhN&#xA;BOn95BMm/F0ruPpFQcVT/FXYq7FXYq7FXYq7FXYq7FXYq7FXYq7FXYq7FXYq7FXYq7FWGebfzk/L&#xA;PylqX6M8wa7FaagArSWqRzXEkauAVMqwJL6YIIPx0xVk+kaxpWs6bBqek3cV9p9yvKC6gcSRuK0N&#xA;GXwIoR2OKozFXYq7FXlcS/4v/PeaRv3mj/l7ZrHEvVG1fUl5M3g3pWwA/wAlj1xVnfnHyxY+afK2&#xA;qeXr4f6Nqdu8DN14Mw+CQe6PRh7jFWO/kp5lvdd/L+yXUz/uc0Z5NG1pSasLuwb0XLH+Z1Cuf9bF&#xA;Wd4q7FUJq+qWOk6VearfyCGysIZLm5lP7McSl3P3DFXn35G6PdzaLfee9Yj46/52nOpSht2gsjtY&#xA;2ysd+CQ0Yf62KoXgPJH52xiIenoH5iROZU6JFrVkvLmOy/WYTuP2nFcVerYq7FXYq7FXYq7FXYq7&#xA;FXYq7FXYq7FXYq7FXYq7FXYq7FWKfmX58tfJfliXUTH9a1W4YWmiaYlWku76X4YYUUbn4t2p0GKo&#xA;b8rfIbeVvLZGqP8AXfMusMb7zJfyUdpruYVdOVKenH9hANqfPFWHazZp+UHm5PMemp6H5deYrhYf&#xA;MlggpDpt7KQsV/Eo2SJzRJQNh/wICr2QEMAQag7gjoRireKoTVtTtdK0q91S7bhaWEEtzcP4RwoX&#xA;c7/5K4qwP8hNMu4vIEeu6gvHVvNl1Pr9/Xfe+flCAT+yIBHQYq9HxV5d5ar5a/PHzJoR+HTvN1nF&#xA;r+njogu7ci2vUX/LkHCVsVeo4q7FXl/56TTapY6D5AtHK3XnLUY7a64Eh1021pcX0gpvsiqp9mxV&#xA;6ZBBDBBHBCgjhiUJFGooqqoooA8AMVYR+dPlnUNc8izzaQpPmDQpota0MgVb63Yt6iqB3LpyQD3x&#xA;VkXk3zRp/mrytpfmLTyDa6nbpOqg14MRSSMn+aNwUb3GKpzirsVdirsVdirsVdirzm68ifm3Jcyy&#xA;QfmfNBC7s0UA0bTX4KTVU5MtTxG1Tiql/gD84f8Ay6k//cE0z/mnFXf4A/OH/wAupP8A9wTTP+ac&#xA;Vd/gD84f/LqT/wDcE0z/AJpxV3+APzh/8upP/wBwTTP+acVd/gD84f8Ay6k//cE0z/mnFXf4A/OH&#xA;/wAupP8A9wTTP+acVd/gD84f/LqT/wDcE0z/AJpxV3/Ku/zZk+G4/NO7aLqRDpGmwv7fGqHFXf8A&#xA;KqvOsp/0v8zNcYL9j0IrKDr15cYTyxVHeWfyd0LSNfj8xalqep+Z9et0Mdlfa1cLcfVQ32/q0apG&#xA;kfKvgT4HFWe4qgta0fTta0m70nU4VuLC+ieC5hboyOKH5HwPbFWAfkvql/YprP5eaxO0+q+TZ1gt&#xA;bmX7dxpc4L2M1dqlY/3bU6UHfFXpmKvM/wA+72efyrY+ULJ+Oo+ctQt9Hj4n4lt3cSXctP5FhQq3&#xA;+tir0aztLeztILS2QR29tGsUMY6KiKFUD5AYqrYq8w/PJW0e18vfmBbqRceUdSie7cVJ/Rt8y216&#xA;nHevJWU1ptSuKvTlZWUMpDKwqrDcEHuMVbxV5d5cI8yfnl5j1k0ksfKFlBoentuV+tXX+k3jr4Og&#xA;4xNir1HFXYq8i8vyN+Wv5kz+V7k8fJ/nK4kvfLc52S11OQ8rmw8FWU/HCPH4RU1xV67irzj8wfOn&#xA;mWbzHaeQfIzRJ5mvYTd6nqsyerDpdjXj6zJ0eZ22jQ/TsQcVUl/J3XpgBffmR5nkoKt9Wntrar9y&#xA;OMD/AA9fhxVv/lR8Z3k8+ecpHPVv0y6f8LHGiD6Birv+VHW//U8ecv8AuNz/APNOKu/5Udb/APU8&#xA;ecv+43P/AM04qyHyd5Ai8sXNxOnmDXNZNwgjMWsX8l7GlDXlGrgcWPc4qnus6zpWiaXc6rqtylnp&#xA;1onqXFzKaKq9PmSSaADcnYYql3l3zz5a8w3VzZ6ZcS/XrNI5Liyu7a5srhY5d45PRu44JCjU2cLT&#xA;3xVPsVdirsVdirsVdirsVdirsVdirsVeV/mT/wA6t+Y/lDz4h9OyunPlrzC/b6veNztJG8FiuB8T&#xA;HxxV6piryzS2Pm389dQ1KvPSPIVodNs2/ZOqagA90ynxjgCxMPE4q9TxV2KpZ5n0G08w+XdT0K8H&#xA;+janay2sp6kCVCnIe61qMVYp+Ruv3erfl1YW+oUGs6E0miatH3W509vR+Kvdowjn54qyzzJrtl5f&#xA;8v6jrl6aWmm20t1NvQlYkLcR7tSgxViH5FaHeab+XVle6iP9zHmGSXXdVc9Wn1BvWFR2IiKKa+GK&#xA;vQcVdirH/PXkrSPOflu50LVAyxzUkt7qLaa3uIzWKeFv2XRvvFQdicVYJp3nn83/AC7ajQdf8l3X&#xA;mTVoB6VlrulSwizvQo+CS4MrIbZj+3yHXcCmKsh/KryTqmhWF9rXmSRbjzl5kmF7r0ykFIyBxhtI&#xA;iK/u7dPgG53rvSmKs6xV2KuxV2KuxViv5lz+UrbypLd+abeS80y1uLaaOzgLmWa6SdDaxxpG0Zkd&#xA;puNEJ4n9rbFUo8neW/NV/wCdZ/zA80QQ6VdTaaNJ03QYH9d7e1aYXDtdTgKrzM6j4UHFR3JxV6Di&#xA;rsVdirsVdirsVdirsVdirsVdiqReePKWn+b/ACnqfly/JW31GExeqN2jkBDRSr7xyKrD5Yq8n0/8&#xA;9dU0Xy4fKGraXd3f5tWAGnQaQkMjreyheMN8JqCP0HADuxYd+2+KvR/yt8lSeT/J1rpl3MLrWJ3k&#xA;vtbvh1nv7pvUnkJ25UJ4A03VRirLsVdirsVeTG4TyB+c0xuT6Plf8wxG0U7GkUGuW68DGey/WoqG&#xA;p3ZxQdMVb/OC6XzXreiflXYyeo+qzx6h5oEZ/uNItHEjLIRuhuJQiJ/Q4q9XVVVQqgKqiiqNgAOw&#xA;xVvFXYq7FXYq7FXYq7FXYq7FXYqgdY0PRdaszY6zp9tqdkWDm1vIY54iy/ZbhIGWo7bYqgtF8jeS&#xA;tCu2vNE8v6bpd2yGJrmys4LeQxsQSheJFbiSoNPbFU7xV2KuxV2KuxV2KuxV2KuxV2KuxV2KuxV2&#xA;KuxV2KuxVKPNXlPy95r0WfRdfskvtNuKF4XqCGXdXR1KsjDsykHFUu8jflr5Q8kQ3SaBZtFNfMHv&#xA;byaR57iYrsgeWQs3FQdl6fSTirKMVdirsVdirsVdirsVdirsVdirsVdirsVdirsVdirsVdirsVdi&#xA;rsVdirsVdirsVdirsVdirsVdirsVdirsVdirsVdirsVdirsVdirsVdirsVdirsVdirsVdirsVdir&#xA;sVdirsVdirsVdirsVdirsVdirsVdirsVdirsVdirsVdirsVdirsVdirsVdirsVdirsVdirsVdirs&#xA;VdirsVYF5o/Obyzoer3OjWtjqnmLVbFRJqVpodo141ojCoNw1UjTb9nly9sVZL5U826B5r0SDWtC&#xA;ulu7Ceq8gCro67PHIjUZHU9VOKpxirsVdiqB1zXNJ0LSbrV9Xuks9NsozLc3MleKKNu1SSTsABUn&#xA;Yb4qwTSvz78m32rWVjc2eq6Pa6qwTRtX1Sya1sb12+ysErGtW/Z5qtcVek4q7FXYq7FWIecvzR8u&#xA;eVr6DSpYbzVteuozNb6HpNu13etEDxMhRSqolf2nZa706HFUR5F/MTy551sZ7jSWmhubKT0dR0y8&#xA;jMF5ay/yTwkkr7EEg777HFWT4q7FXYq7FWOw/mH5En8wny7Dr9hJrikodPW4jMvMdU4g/bHdevti&#xA;rIsVdirsVdirsVdirsVdiqR+cPOnl3yhpP6U126+r27yLBBGitJNNNIaJFDEgLyOfBR79MVYxpH5&#xA;6eSb3VINL1CLUfLt5eMEsBrdlLYpcE7r6Ukg4fFXYMQTir0PFXYq7FWG/mx51uPKXk+e80+MXGvX&#xA;8kenaBabFpb+6PCEBT9rhu5HcLiqv+WnkS18l+V4dMV/rOpzsbrWtRfeS6vZvimmdjufi2Wv7IGK&#xA;sO1RF/Ln82rTVoAIfKfn+YWWrRjaO31lQTbTjsv1lao1OpHI4q9cxV2KuxV5Fr8afmR+ayeWJAJv&#xA;J/kn0r7XYzvHd6rKCba1cfZZIUrI43FfhYdMVehecvKGj+bfLN95e1WIPZ3sRQNQFopKfu5Y69Hj&#xA;ajLirGfyZ81arqmg3egeYGJ81eU7g6VrDMSTNwFbe733KzxfFU9SCcVeg4q7FUn84eaNN8q+WNS8&#xA;xak1LPTIGnda0LsNkjWv7UjkIvucVYl+TPlO/stIuPNvmJOfnHzYwv8AVZGHxQROK29mld1SGOg4&#xA;+PyGKpX+a9s/k3zJpf5radGfRtCum+cIIxUz6ZOwVJyB1e1l4sNqkdTxGKvV45I5Y1kjYPG4DI6k&#xA;FWUioII6g4quxV2KvNfzc1/Wrq60v8vfK9w1t5h8zFmur+OvKw0uL/em6qPsu393H0qSaEGmKq9/&#xA;+RH5czeTl8tWWlw6e0CA2Orwoov4blKFLoXA4yNIGAJ+Lfp0xVW/KHzhqut6Pe6L5jovm/yvcHTd&#xA;dUbCVlFYLtBt8FxH8QNBU1oKUxVnuKuxV2KuxV2KvNpfz78nCV47fT9cvDGSsjW+k3jKpBpQkovh&#xA;iqnJ+etlIrfo3yd5r1GSlE9LSJkjMh6K0khQJ7k7AYq15L8leZta80/4/wDzAhih1SJTF5b8vIwl&#xA;i0uB92dnHwvcyftMOnbsFVZ15l8saF5m0a40bXbOO+066XjJDIK0PZ0PVXXqrLuO2KvOvJ2ua55C&#xA;8y2v5eebLmS/0m+LL5N8zTtVpgPi/R92x/3eg2jb9sUA3oMVes4q7FXlUQ/xp+eEkp/eaB+XsHpx&#xA;jqkms3y1c+DfV4NvFXOKvVcVY1+Y3k6Dzh5L1TQJG9Oa6iLWVxuDDdRn1LeUEUI4SKp27bYqg/yl&#xA;843HmvyPY398pi1q1L6frlu1A8d/aH051ZR9ksw508DirMcVSHz35ts/KPlDVfMd2OUWnQNIkfT1&#xA;JT8MUf8As5GVfpxVJfyc8pXnlvyPbLqnxeYdXkk1bX5m+299en1JOdO6ArHt/LirOMVeVedQfJv5&#xA;raD50iHDR/MoTy75jpsqzMeWn3Le4esTMei4q9VxV2KvKfzGUecfzH8t/l8o9TS7CnmLzOuxVoYG&#xA;KWduw7iWfdl8ADir1bFUJq2l2WraXeaXfxiayvoZLa5iPRo5VKOPuOKvP/yO1O/t9H1HyLq8jPrX&#xA;km4/RzSP9qawar2E9OyvAOI/1cVel4qo3l3bWVpPeXUiw2ttG008zbKkcalmY+wArirzH8lbK812&#xA;41n8z9ViaO981SBNHgk+1baPbkrbRgdjLT1Hps2xxV6piryv8zNP1Lyl5otPzT0O3e5htoRY+cdO&#xA;hFZLjTeVVuY17y2p+L3XaoAOKvSNH1jS9Z0u21XSrmO8068jEttcxGqOh7j9RB3B2OKozFWDeZPz&#xA;m8j6FrMmiGW61XWIByu7DSbWa+lgH/F3oqwTr0Jr7Yqlg/PK3K8k8jecXqKqBoswr4UJYD8cVT3y&#xA;h+YcvmTUpbF/Kuv6GI4Wn+t6vaR28DcXVfTV0mlJc86gU6A4qjvPeua7o3l6S50HTW1XWJpoLWyt&#xA;gkjxq88qx+tP6QLLDErF3PgOo64qk3lLzd5km88635O11rG8uNLs7S+TUtNilt4wLosvoTQyzXRS&#xA;QcOS/vPiXegxVnWKuxVjP5jeSLLzp5TvNEuG9G4ak+m3q1D215F8UE6MNwUfrTqtR3xVL/yk863X&#xA;mjyrTVQIfM2jTPpfmK16FLy2PFmp/LKKOpG29O2Kov8AM3zvH5N8o3WrJH9Z1KQraaPYj7VzfTnh&#xA;BEoG5+Lc0/ZBxVZ+VnkyTyj5NtNNupPX1i4Z77XLskFp9Quj6lw5Yfaox4A/ygYqy7FXYq8ngc+R&#xA;fzsmtXHp+XPzEX17ZuiQ61apSVPAfWYqNU7s+wxV6xiryjzu3+NfzT0LyNFSTRvLpTzD5oIOxlWo&#xA;0+1b/Wf96yH7S0OKvV8VdirHvzB8oWvnDyZq3ly4IQahAyQTHf0p1+OCXbf4JVVvoxVKfyg85Xfm&#xA;fybC+qL6XmLSZH0vzBbsRzS+tD6chYDp6lA/04qyvWdWsNH0m81bUJRDY2EMlxcyn9mOJSzH7hir&#xA;z/8AI7S7660rU/PurxGLWfO1wNQ9J92h09AUsIK+Cw/F/ssVemYq7FXk/wCY8h8k/mLoH5iIOGja&#xA;gF8vea26KkUz8rO7bsPSm+F2P7JAxV6xirzD87Ly71eLSPy30qUx6j5vn9O/lT7UGk29HvZT4c1p&#xA;GtftVIxV6RZWVrY2cFlaRLDaWsaQ28K7KkcahUUewUUxVXxVogMCCKg7EHoRiryS58tebfyx1afU&#xA;/JGnNrnkm+kM2p+UYWC3NnM/259N5fCUbq0Hj9nY/Cq7VPzN83+b7RdC8ieXNY0jU74mG617W7J7&#xA;O206On7yT4i3qzqPsIvc1OKs58h+RNB8k+X4dG0iKir+8u7t95rmdv7yeZzuzsfu6DbFWR4q7FWO&#xA;ee4/OR0SOfyjIn6WtLq3uHs5PTVby2jkBuLX1JVcRmWOoDihB7jrirE/Ink2+sfzCv8AzDYeXv8A&#xA;Bvl2fTktJtFD2oN3eCUOLpoLGSe3j9NKoDy5NXfFXp+KuxV2KvMvOXk3zfpHm/8Ax7+X0UF1qV3G&#xA;lt5k8vXEggh1GKPaGVJSOMdxEPhDNsV+kMqs8ueTfOnmXzbZ+cvzDht7D9EB/wDDvle1k+sR20sg&#xA;o91czCiSz02Tj8K9RQ4q9QxV2KuxVi/5keR4POflebSjMbPUInS70fUl+3aX0B5QTpTf4W2NP2Sc&#xA;VYPD+dPmvTNLTRtb8l6vP59QfV4rW0ty+n3ky/CLiK7B9NIGNGeu6V70rirKvyq8jX3ljRrq61uZ&#xA;bzzZr1w2o+Yb1N1M7/ZhjJ39KBPgQdOpFK0xVm2KuxV2KvLPNWjeYfJnnl/PvljTptX0nV40t/OG&#xA;g2ahrlmiFIL+1iqvqSoPhdf2h7ksqqU6tqurfnFeWfl/TtJ1DSvIMMyXHmXU9RhNo94IW5pYW8T/&#xA;ABsrSKPVftSnhyVezxxxxRrHGoSNAFRFACqoFAAB0AxVdirsVSzzN5d0vzJoF/oOqxetp+owtBcJ&#xA;3o3RlPZlNGU9iMVeWaH+YvmT8vNM/wAMeeNF1bVrjTSLbRNd0y1a7j1OAbQBuJ/d3AX4WVzvStT3&#xA;VT/8sPK/mCfWNV/MHzfbfVPMeuKtvY6YW5nTtLjNYrao29SRv3kvvToajFXo+KuxV2KuxV2KuxV2&#xA;KuxV2KuxV2KuxV2KuxV2KuxV2KuxV2KuxV2KuxV2KuxV2KuxV2KuxV2KuxV2KuxV2KuxV2KuxV2K&#xA;uxV2KuxV2KuxV2KuxV2KuxV2KuxV2KuxV2KuxV2KuxV2KuxV2KuxV2KuxV2KuxV2KuxV2KuxV2Ku&#xA;xV2KuxV2KuxV2KuxV2KuxVif5reaZPKv5c+YNdhbjc2lo4s28LmYiGD/AJKyLirzr8n/AC9c/l15&#xA;/Pkp55ZbTXtBt9bczOXA1W3YW9/wJ3/e8w5+WKvccVeY/ntLPqGl6B5JtpXik84atBYXjRkrINPh&#xA;rcXjKRv9iMKfEHFXfkY82mWXmPyPNI8g8oatLZ6eZCWk/R1wouLPkT1okhUewGKvTsVeI/m95fn/&#xA;ADF/MGDyPHcSQ2miaHda2zROyA6lcMbaw5lTWsTKZB7fPFXoP5TeaJ/NP5b+X9cuW5Xl1aKt43St&#xA;zATDOadv3sbbYqy3FXzN51k1O+1/zb+bVrcTcvIOt2emaVbxuwU2lmUj1WMqDxKytckk+CkYq+l4&#xA;5I5I1kjYPG4DIw3BBFQRiqhqV/b6dp11qFyeNvZwyXEzeCRKXY/cMVfOv5awavoHmjyV56v7iUzf&#xA;me1+nmCORy0SyT1u9L9MHpSNAg8BsMVfSeKsG/O3zFe6D+Wes3GnMy6rdomnabwNH+sX0i26FD2Z&#xA;fULD5Yqxb8n9FHkHz1r35bxTyTaWdPstd0gSsWYFx9Uvmqez3EYeg2FcVexYq8r/ADshPmHUvJ/5&#xA;ec3S08zahJPrAjYqX07TI/XniLKQVEjlBXxxVF/kNe3q+UL3y3fztcXnlDU7vQmmkNXeG2cNbufb&#xA;0ZFA9hir0nFXgX5u6NqXn3zxrel2VzNAnkLQhqdiYXZCNcuWM1qzUNDSG3oK9ORxV6/5E8xjzL5L&#xA;0PX9g+p2UFzKq9FleMGRR/qvUYqn2KuxV2KuxV2KuxV2KuxV5Ppn56SXXmmGC40Q2/k2/wBVm0DS&#xA;vMwnV1lv4CQOUXEcYp3UpG3I7j7lXrGKvMfz0Av7Xyj5aFHGu+ZNPiuoa0LWlszXU5+j0lxVv8zq&#xA;6b+Yv5aeYAQqDUrrRZzT7Q1O1b01PykgBGKvTcVeY6zTVf8AnIby5ZndPLmg32qA9llv5ksh9JRG&#xA;+jFW9II0v/nIXzBZghY/MegWWpn/ACpbCZ7Mj5iN1+j5Yq9NxV5j+WVNS/Mj8y/MAJaP9I2miwEj&#xA;7P6MtV9VR85JyTirvyMpYwecfLdOC6H5kv47WKoJFrclbqAmnj6rYq9IvLqG0tJ7uc8YbeNpZW8F&#xA;RSzH7hiryD8tPLM+sf8AOOdzaXMZa/8ANNnqd5PtVmm1B5niYV6niyUxVmn5O6ydZ/KzytqDNykk&#xA;023jlatayQIIZD/wcZxVL/z+1Kaw/KDzKYByuLy3XT4YwaM7X0qWvEfMSnFUm/OnSofL/wCVuiXt&#xA;vtH5I1DRr6GgqeFnMlsadP8Adcpr7Yq9axV5j+boGo+a/wAt/LdOX1vXv0pInjHpFu87A/5PJ1ri&#xA;rvOfHTPzu8gaqPgTVrbU9Fun8QI0urdfpkjbFXp2KvMYeOqf85F3D/bh8t+W0iof2LrUbouSPnBE&#xA;BirvJdNM/O3z/pNAkWq2+ma1bRg9/Ta1uG/2UkanFXp2KvMfybA1HV/zC8xSDl+kvMVxZRMRUPba&#xA;ZElrGa9xUNTFW/8AnHutp5Fu/Lp+15Y1nU9HNTU0humlSv8AsJlp7Yq9NxV5Un55iTzbFZx6JIfJ&#xA;8urf4dTzOZlCtqlDRUgCkmHmvD1OVK4q9VxV2KuxV2KpT/izyr/1ebH/AKSYf+asVYj+Y35v+UtD&#xA;8q6nJpetWV95iaFoNJ0y0uIp7qW8lPpQqsMbNIaSMOW2KpXqP5USR/8AOPkfkqBf9y+naclxavHX&#xA;kNUhP1rkjDccrior4HFWb/l75qi82eSNE8xRkV1K0jlmVeizAcZkH+pKrL9GKsT83U1H89fIenij&#xA;Lo9jqurzoaH+9SO0iYj2Z2pirv8AnIett+XQ11P7zy7qmm6tH41gvI1JFPBZCcVemKysoZSGVhUE&#xA;bgg4q8y8isNR/Oj8xdTrzjsE0rSbZq1A4QPPOvtSSUYq357P6O/OT8utVHwRXy6po909QAfVgWe3&#xA;X3rJCdsVemEgCp2A6nFXmf8AzjzW5/L19db7fmLVdT1Z9zv695IoO/isYOKteU6ab+e/nrTiaDWt&#xA;P0rWII6AAeislnMw8eTKtT44qnH516sNK/KXzZeV4t+jbiBG8HuU9BD/AMFIMVT3ybpI0byhoekB&#xA;eH6PsLW1K71BhhVDWu/7OKsL/wCcfh9U8oar5f7eW9e1XS1FKUVLkzrT2KzgjFXfndS9k8jaCCGO&#xA;qeZ7Bp4jQ8razD3M23X/AHWuKsh/NnSP0v8Alj5p08DlJNpl0Ygf9+JEzx/8OoxVFfl1q/6Z8g+X&#xA;NVJDPe6ZaTSU7SNCpcfQ1RirFNRP6S/5yK0e2PxR6B5bur4HYhZr+6S2A8QTHET8sVd+e7Cy0ryt&#xA;5grxXQvMumXU71pSCWRraUE+BWfFXpuKvMfyqI1Dz7+Z2vA8ll1iDSVNagfoq0SMqB2o0x+nFW9e&#xA;ppn/ADkH5Vva0/xBoeo6V1G5spY71fpozU+n3xV6Nf3kNjY3F7OaQWsTzSnwSNSzfgMVYB/zj1Zy&#xA;wflDoE04/wBJ1BZ9QuG3+Jry4knrv/kuMVUPy3rp/wCaP5l6HXjE15YaxbqRTl9ftaTMPGkkFDir&#xA;IfzV82N5T/L3XNciJ+t29s0dgoFWN3ORDbgDv+9ddsVYlqv5U3EP/OPi+S7Baa1YWEd1bun2m1OB&#xA;xdsVPjJcBhX3xVkfkn82vJfmXy7p2o/pmxtr+4gVrzTpbiKOeC4ApNE8TsHUo9RuNxv0OKspi1vR&#xA;ZUEkV/bSRt9l1mjIPyIOKrv0tpX/AC2wf8jU/riqpBfWU7lILiOVwKlUdWNPGgOKsR/5Up+Uf/Uo&#xA;aV/0ixf0xVLfy7H5P6prGsweUfL2n29x5auktZtRgsraJXmKE8oJkHqOF3Xkae1Rvir0fFXmH5Hg&#xA;6T/i/wAmP8I8t65cfUov5bHUKXlt/wAnHxVvy4Rqn5/eb9Q2I8v6Rpujxt73bPfSAf8AC1+jFWSf&#xA;mtpA1f8ALTzRp3Hk8+l3fpD/AItSFnj/AOHUYqr/AJb6v+mPy+8taoW5Pd6ZaSympP7wwr6gqfB6&#xA;jFWK/kQPrek+aPMH2l1/zLqd3byHcm3jlFtEAfBRBtirvz5/0TRvLOv9BoHmTS7yZxQEQPKbaVSx&#xA;6BhPvirKvzG1caN5A8x6py4tZ6bdyxnfeRYW4DbxegxVDflPpA0j8svK2n8eLw6ZamUf8WyRK8n/&#xA;AA7HFWPeYKab/wA5A+Ur2lP09oupaSWoNzaPHeqCf+CI+nFWv+cgQLvyjpHl8ryTzJr+laW602KN&#xA;ci4atO3G3JxV6dirzH8uQNP/ADV/MzRgOMT3WnatAKU5fXbTjMwr/wAWQ4q35rH6S/PbyNp4+JNF&#xA;0/VdYnSlR++WOziY+HFnamKvSpoY5oXhlUPFIpR1PQqwoR92KvN/+cdpZF/Kyw0yZuVzolzfaXP1&#xA;PxWt3Kqjf/I44qt8iD9IfnH+Y2rn44rIaXo9rJsaelbme4UHt+8mFR/mFUw/PjS21L8n/NUCVDw2&#xA;LXiFdiGsmW6BHyMOKss0DVotT8vadq4YelfWkN3z6LxmiWSu9NqNirA/+ceAbj8uRrjAiXzHqWpa&#xA;tLy61uLuRVJrvukanfFWvzk42Ou/l3r4A5WXmSCxkk2HCHU4ZLdyWPReXGuKpv8Anbq/6J/KTzZe&#xA;A8WOmz26N4Ncr9XU/PlLtirIPJ+kfoXynouj8Qp06xtrUgeMMKof+I4qwiYDS/8AnIq3k+xB5k8t&#xA;yRUH7d1p10HqflBNTFVv5wINY80/l55RIDQ6jrLaneIdw9vpEJnZHB24s7pir1DFWMan+V/5bapN&#xA;Jcah5W0q5uZWLy3D2cBlZiSSWk4czUmpqcVSmX8hvydlkLv5TsOR60QqNttgCAMVWf8AKgfyb/6l&#xA;Ox/4Fv8AmrFU48r/AJYeQPKuoSah5d0O2029liNvJPAGDGJmVyhqTsWRT9GKt/mNpXmvV/K8+meW&#xA;ZoLe9vHSK6mnmktiLQn9+sM0cNyY5XT4Fb0zxrXqBirBvyetdWsPzF8/ac+k2GmWNs2lRG3sruWd&#xA;YDFpkKQRQh7W39RDEKszcSrbcW+1ir2DFXmOlkaT/wA5Da5a0Cx+ZtAs9QDfzzadO9qVHuI5Qfli&#xA;rf5GH9I2nmzzSfiXzD5hvprOU9Ws7VhaQD6PRbFXpbokiNG4DI4Ksp6EHYg4q8h/KLXf8Pfkhqa3&#xA;LlpvJL6xZXJb7VdPllkVaHwjKimKsn/I3SG0n8o/Kto4pI9hHdSA9ed4TctX35TGuKt/nho7av8A&#xA;lJ5qs0BMiWEl1EBufUs6XKcfflCKYqxb83NdPmD8jdMW3dvrHnZtHsrZkoGLahLFI4AHcxhxTFXr&#xA;8caRxrGg4ogCqo6AAUAxV5p+dI+oX3kPzIAB+ivMdrBcSn9i11BHtZj97pirX5gD9Jfm7+XGij4o&#xA;rR9R1q7UH7ItrcRW7Ef8ZZsVenYq8xux+i/+citPnICQeZPLk1qvbnc6ddLNX5iGbFW/LP8AuU/P&#xA;vzlqOxTQdK03Ron363Je+kUdtiy1xV6birzL8pydO85/mV5dbrb62urxgn9jV7dJtvbnG301xV35&#xA;Bf6Z5b13zJ1HmXzBqeowv3MIn+rxCvgqwbYq9C1bTodT0q902baG9glt5dq/DKhRtvk2KvH/ACh5&#xA;slsv+cW5dSncre6No97p7LX4kuLL1LSJD4bon0Yq9F/LPRf0J+XnlvSiOMlpptqkwpT976SmTb3c&#xA;nFWP/wDOQllNP+U2tXVstbzSvq+qWzdeL2VxHOzD/nmjDFUB+dV7DrflHytpVqfUt/NuuaTb0U7m&#xA;2MgvHfvsqQg4q9VxV5h+b1dM81fl15pBothrZ0y4bssOsQtbszf5IZE/DFW4idX/AOciZmU87byv&#xA;5dWNh/Jeanc8/orbw4q9OxV2KuxV2KuxV2KuxV2KvNPzh8mec9TudE8x+R2gXzNo/wBatQty/pxt&#xA;a6hCYZGJHVoXCSKPY9ehVZX5B8p2/lHyZo/luB/VXTLZIXlAoHl+1K4HbnIzNirIMVfNf5iLrGle&#xA;ZPOP5b2FvLy/Mq8sLvRJ0QtEguOMWrPIw2HBYOR9jXFX0fa20NrbRW0C8IIEWOJB0CIOKj6AMVbu&#xA;LeG5t5bedBJBMjRyxnoyMKMD8wcVfN35fpq+qeY/KP5Z3dtN/wAg11G+vdZupUKxvHbFk0l0PRjI&#xA;Lio9hXFX0rirDfzg8r3Hmf8ALXXtHtFLX8lv69gEFWNzasLiFV92kiC/TirCfye1y5/MHz3qP5hS&#xA;WsltZ2Oj2eg2glVkBumP1rUQob/fU3GOvemKvaMVeYfnesukDyt58iieRfKOqLLqRjUu6aZexm2v&#xA;HCqCx4qysadgcVVfyKtLyfy/q/my+heC584arc6vFFKKSR2bkRWkbD2ijDD/AFsVelYq8J/ODW9Q&#xA;/L/z5c+Z7S1nuIPNmgzaPCtvG0hGs27FrEtxB+2sxUD2NOmKvUfy18sN5W8g6BoEgCz6fZQx3IXp&#xA;65XlMRTxlZsVZLir5l8y2epxeYtf/JqK1lkh82eY7bWrWcIfSXSbhlu9QIboFhmt+FO/LFX01iqB&#xA;1zSbbWNF1DSLre21G2mtJx1/dzxmNtvk2KvAPyoutb8zea/Jnl/UbSaCT8rrO9h115UIia9NbGzj&#xA;Vj9o/V19UHFX0birFfzQ8nSecPIuq6FBIIL6eNZdOnaoEd3buJoGJG4HqIAT4VxVJ/yh8qeatMTX&#xA;vMPnFIYvNPma8We9htmDxxQW0SwW0QYEg8VVjse+KvQsVdirsVdirsVf/9k=</xapGImg:image>
    </rdf:li>
   </rdf:Alt>
  </xap:Thumbnails>
 </rdf:Description>

 <rdf:Description rdf:about=''
  xmlns:dc='http://purl.org/dc/elements/1.1/'>
  <dc:format>image/svg+xml</dc:format>
 </rdf:Description>

</rdf:RDF>
</x:xmpmeta>
                                                                                                                                                                                                                                                                                                                                                                                                                                                                                                                                                                                                                                                                                                                                                                                                                                                                                                                                                                                                                                                                                                                                                                                                                                                                                                                                                                                                                                                                                                                                                                                                                                                                                                                                                                                                                                                                                                                                                                                                                                                                                                                                <?xpacket end='w'?>
			</metadata>
		<g id="Layer_1">
			<g>
				<path style="fill:none;stroke:#000000;" d="M112.252,101.451c-2.19,4.99-2.944,6.247-3.626,7.359s-1.113,1.364-1.4,1.615
					c-0.288,0.251-0.969,0.61-1.472,0.575c-0.502-0.036-1.041-0.18-1.436-0.575c-0.395-0.395-1.005-1.005-1.436-1.687
					c-0.431-0.682-0.825-1.256-1.436-2.549s-0.467-0.718-2.154-4.739"/>
				<path style="fill:none;stroke:#000000;" d="M99.236,101.425c-2.19-4.99-2.944-6.246-3.626-7.359
					c-0.682-1.113-1.113-1.364-1.4-1.615c-0.287-0.251-0.969-0.61-1.472-0.575c-0.502,0.036-1.041,0.18-1.436,0.575
					c-0.395,0.395-1.005,1.005-1.436,1.687s-0.826,1.256-1.436,2.549s-0.467,0.718-2.154,4.739"/>
				<path style="fill:none;stroke:#000000;" d="M86.251,101.422c-2.19,4.99-2.944,6.247-3.626,7.359s-1.113,1.364-1.4,1.616
					c-0.287,0.251-0.969,0.61-1.472,0.574c-0.503-0.036-1.041-0.18-1.436-0.574c-0.395-0.395-1.005-1.005-1.436-1.688
					s-0.826-1.256-1.436-2.549s-0.467-0.718-2.154-4.739"/>
				<path style="fill:none;stroke:#000000;" d="M73.267,101.425c-2.19-4.99-2.944-6.246-3.626-7.359
					c-0.682-1.113-1.113-1.364-1.4-1.615c-0.287-0.251-0.969-0.61-1.472-0.575c-0.503,0.036-1.041,0.18-1.436,0.575
					c-0.395,0.395-1.005,1.005-1.436,1.687s-0.826,1.256-1.436,2.549s-0.467,0.718-2.154,4.739"/>
				<path style="fill:none;stroke:#000000;" d="M60.282,101.422c-2.19,4.99-2.944,6.247-3.626,7.359
					c-0.682,1.113-1.113,1.364-1.4,1.616c-0.287,0.251-0.969,0.61-1.472,0.574c-0.502-0.036-1.041-0.18-1.436-0.574
					c-0.395-0.395-1.005-1.005-1.436-1.688s-0.826-1.256-1.436-2.549s-0.467-0.718-2.154-4.739"/>
				<path style="fill:none;stroke:#000000;" d="M47.297,101.425c-2.19-4.99-2.944-6.246-3.625-7.359
					c-0.682-1.113-1.113-1.364-1.4-1.615c-0.287-0.251-0.969-0.61-1.472-0.575c-0.502,0.036-1.041,0.18-1.436,0.575
					c-0.395,0.395-1.005,1.005-1.436,1.687s-0.826,1.256-1.436,2.549s-0.466,0.718-2.154,4.739"/>
				<path style="fill:none;stroke:#000000;" d="M34.349,101.451c-2.19,4.491-2.944,5.622-3.626,6.623
					c-0.682,1.002-1.113,1.228-1.4,1.454s-0.969,0.549-1.472,0.517c-0.502-0.032-0.938-0.335-1.333-0.69
					c-0.395-0.355-0.943-1.104-1.374-1.718s-0.999-1.743-1.635-2.892c-0.888-1.603-0.974-1.603-2.119-3.293"/>
				<path style="fill:none;stroke:#000000;" d="M21.364,101.484c-2.19-2.495-2.944-3.124-3.626-3.68
					c-0.682-0.557-1.113-0.682-1.4-0.808c-0.287-0.125-0.969-0.305-1.472-0.287c-0.503,0.018-1.041,0.09-1.436,0.287
					c-0.395,0.198-1.042,0.933-1.342,1.307c-0.229,0.287-0.887,1.214-1.604,1.833c-0.629,0.544-0.267,0.398-2.004,1.231
					c0,0-5.904,0.258-8.309,0.258"/>
				<path style="fill:none;stroke:#000000;" d="M112.267,101.437c2.19-4.491,2.944-5.622,3.626-6.624
					c0.682-1.001,1.113-1.228,1.4-1.454s0.969-0.549,1.472-0.517c0.502,0.032,0.938,0.335,1.333,0.691
					c0.395,0.355,0.943,1.104,1.374,1.718c0.431,0.614,0.999,1.743,1.635,2.892c0.888,1.603,0.974,1.603,2.119,3.293"/>
				<path style="fill:none;stroke:#000000;" d="M125.252,101.404c2.19,2.495,2.944,3.124,3.626,3.68
					c0.682,0.557,1.113,0.682,1.4,0.808c0.287,0.126,0.969,0.305,1.472,0.288c0.502-0.018,1.041-0.09,1.436-0.288
					c0.395-0.197,1.042-0.933,1.342-1.307c0.229-0.286,0.887-1.213,1.604-1.832c0.63-0.544,0.267-0.398,2.004-1.231
					c0,0,5.783-0.258,8.188-0.258h0.929"/>
			</g>
			<g>
				<g>
					<path style="fill:none;stroke:#000000;" d="M87.283,19.598C86.188,9.621,85.811,7.108,85.47,4.883
						c-0.341-2.225-0.557-2.728-0.7-3.23s-0.485-1.22-0.736-1.148c-0.251,0.072-0.521,0.359-0.718,1.148
						c-0.198,0.79-0.503,2.01-0.718,3.374s-0.413,2.512-0.718,5.096s-0.233,1.436-1.077,9.475"/>
					<path style="fill:none;stroke:#000000;" d="M80.775,19.65c-1.095,9.977-1.472,12.489-1.813,14.714
						c-0.341,2.225-0.556,2.728-0.7,3.23s-0.485,1.22-0.736,1.148c-0.251-0.072-0.521-0.359-0.718-1.148s-0.502-2.01-0.718-3.374
						s-0.413-2.512-0.718-5.096c-0.305-2.584-0.233-1.436-1.077-9.475"/>
					<path style="fill:none;stroke:#000000;" d="M74.283,19.655C73.188,9.678,72.811,7.166,72.47,4.94
						c-0.341-2.225-0.557-2.727-0.7-3.229s-0.484-1.221-0.736-1.148c-0.251,0.072-0.521,0.359-0.718,1.148
						c-0.198,0.79-0.503,2.01-0.718,3.373c-0.215,1.364-0.413,2.512-0.718,5.096s-0.233,1.436-1.077,9.475"/>
					<path style="fill:none;stroke:#000000;" d="M67.79,19.65c-1.095,9.977-1.472,12.489-1.813,14.714
						c-0.341,2.225-0.556,2.728-0.7,3.23s-0.485,1.22-0.736,1.148c-0.251-0.072-0.521-0.359-0.718-1.148
						c-0.197-0.79-0.502-2.01-0.718-3.374s-0.413-2.512-0.718-5.096c-0.305-2.584-0.233-1.436-1.077-9.475"/>
					<path style="fill:none;stroke:#000000;" d="M61.298,19.655C60.203,9.678,59.826,7.166,59.485,4.94
						c-0.341-2.225-0.556-2.727-0.7-3.229C58.641,1.208,58.3,0.49,58.049,0.562c-0.251,0.072-0.521,0.359-0.718,1.148
						c-0.198,0.79-0.502,2.01-0.718,3.373c-0.215,1.364-0.413,2.512-0.718,5.096s-0.233,1.436-1.077,9.475"/>
					<path style="fill:none;stroke:#000000;" d="M54.805,19.65c-1.095,9.977-1.472,12.489-1.812,14.714
						c-0.341,2.225-0.557,2.728-0.7,3.23s-0.485,1.22-0.736,1.148c-0.251-0.072-0.521-0.359-0.718-1.148
						c-0.197-0.79-0.502-2.01-0.718-3.374s-0.413-2.512-0.718-5.096c-0.306-2.584-0.233-1.436-1.077-9.475"/>
					<path style="fill:none;stroke:#000000;" d="M48.331,19.598c-1.095-8.979-1.472-11.24-1.813-13.243
						c-0.341-2.002-0.556-2.455-0.7-2.907s-0.485-1.098-0.736-1.034c-0.251,0.065-0.47,0.67-0.667,1.381
						c-0.197,0.71-0.472,2.207-0.687,3.435c-0.215,1.227-0.5,3.484-0.818,5.782c-0.444,3.206-0.486,3.206-1.059,6.585"/>
					<path style="fill:none;stroke:#000000;" d="M41.839,19.533c-1.095,4.988-1.472,6.245-1.813,7.357
						c-0.341,1.113-0.557,1.364-0.7,1.615c-0.144,0.251-0.484,0.61-0.736,0.574c-0.251-0.036-0.521-0.18-0.718-0.574
						c-0.198-0.395-0.521-1.865-0.671-2.613c-0.114-0.573-0.443-2.427-0.802-3.664c-0.314-1.088-0.133-0.797-1.002-2.461
						c0,0-2.892-0.516-4.094-0.516"/>
					<path style="fill:none;stroke:#000000;" d="M87.291,19.626c1.095,8.979,1.472,11.24,1.813,13.243
						c0.341,2.002,0.556,2.455,0.7,2.907c0.144,0.452,0.484,1.098,0.736,1.034c0.251-0.064,0.469-0.67,0.667-1.381
						c0.198-0.71,0.472-2.207,0.687-3.435c0.216-1.227,0.5-3.484,0.818-5.782c0.444-3.206,0.487-3.206,1.06-6.585"/>
					<path style="fill:none;stroke:#000000;" d="M93.783,19.691c1.095-4.988,1.472-6.245,1.813-7.357
						c0.341-1.112,0.557-1.364,0.7-1.615c0.144-0.251,0.484-0.61,0.736-0.574c0.251,0.036,0.521,0.18,0.718,0.574
						c0.197,0.395,0.521,1.865,0.671,2.614c0.114,0.572,0.443,2.427,0.802,3.664c0.315,1.087,0.133,0.796,1.002,2.461
						c0,0,2.892,0.515,4.094,0.515"/>
				</g>
				<line style="fill:none;stroke:#000000;" x1="104.318" y1="20.008" x2="147.137" y2="20.008"/>
				<line style="fill:none;stroke:#000000;" x1="0.209" y1="19.235" x2="31.378" y2="19.235"/>
			</g>
			<g>
				<g>
					<path style="fill:none;stroke:#000000;" d="M118.426,135.041c-1.095-7.056-1.472-8.832-1.812-10.406
						c-0.341-1.574-0.557-1.929-0.7-2.284c-0.144-0.355-0.484-0.863-0.736-0.812s-0.521,0.254-0.718,0.812
						c-0.197,0.558-0.502,1.421-0.718,2.386c-0.215,0.964-0.413,1.776-0.718,3.604c-0.305,1.827-0.233,1.015-1.077,6.7"/>
					<path style="fill:none;stroke:#000000;" d="M111.934,135.038c-1.095,7.056-1.472,8.832-1.813,10.406
						c-0.341,1.574-0.556,1.929-0.7,2.285c-0.144,0.355-0.485,0.863-0.736,0.812c-0.251-0.051-0.521-0.254-0.718-0.812
						c-0.197-0.559-0.502-1.421-0.718-2.386c-0.215-0.964-0.413-1.776-0.718-3.604c-0.305-1.827-0.233-1.015-1.077-6.7"/>
					<path style="fill:none;stroke:#000000;" d="M105.439,135.041c-1.095-7.056-1.472-8.832-1.813-10.406
						c-0.341-1.574-0.557-1.929-0.7-2.284c-0.144-0.355-0.484-0.863-0.736-0.812s-0.521,0.254-0.718,0.812
						c-0.198,0.558-0.503,1.421-0.718,2.386c-0.215,0.964-0.413,1.776-0.718,3.604c-0.305,1.827-0.233,1.015-1.077,6.7"/>
					<path style="fill:none;stroke:#000000;" d="M98.947,135.038c-1.095,7.056-1.472,8.832-1.813,10.406
						c-0.341,1.574-0.556,1.929-0.7,2.285c-0.144,0.355-0.485,0.863-0.736,0.812c-0.251-0.051-0.521-0.254-0.718-0.812
						c-0.197-0.559-0.502-1.421-0.718-2.386c-0.215-0.964-0.413-1.776-0.718-3.604c-0.305-1.827-0.233-1.015-1.077-6.7"/>
					<path style="fill:none;stroke:#000000;" d="M92.455,135.041c-1.095-7.056-1.472-8.832-1.813-10.406
						c-0.341-1.574-0.557-1.929-0.7-2.284c-0.144-0.355-0.484-0.863-0.736-0.812c-0.251,0.051-0.521,0.254-0.718,0.812
						c-0.198,0.558-0.503,1.421-0.718,2.386c-0.215,0.964-0.413,1.776-0.718,3.604c-0.305,1.827-0.233,1.015-1.077,6.7"/>
					<path style="fill:none;stroke:#000000;" d="M85.962,135.038c-1.095,7.056-1.472,8.832-1.813,10.406
						c-0.341,1.574-0.556,1.929-0.7,2.285c-0.144,0.355-0.485,0.863-0.736,0.812c-0.251-0.051-0.521-0.254-0.718-0.812
						c-0.197-0.559-0.502-1.421-0.718-2.386c-0.215-0.964-0.413-1.776-0.718-3.604c-0.305-1.827-0.233-1.015-1.077-6.7"/>
					<path style="fill:none;stroke:#000000;" d="M79.47,135.041c-1.095-7.056-1.472-8.832-1.813-10.406
						c-0.341-1.574-0.556-1.929-0.7-2.284c-0.144-0.355-0.484-0.863-0.736-0.812c-0.251,0.051-0.521,0.254-0.718,0.812
						c-0.198,0.558-0.502,1.421-0.718,2.386c-0.215,0.964-0.413,1.776-0.718,3.604c-0.305,1.827-0.233,1.015-1.077,6.7"/>
					<path style="fill:none;stroke:#000000;" d="M72.978,135.038c-1.095,7.056-1.472,8.832-1.812,10.406
						c-0.341,1.574-0.557,1.929-0.7,2.285c-0.144,0.355-0.484,0.863-0.736,0.812s-0.521-0.254-0.718-0.812
						c-0.197-0.559-0.502-1.421-0.718-2.386c-0.215-0.964-0.413-1.776-0.718-3.604c-0.305-1.827-0.233-1.015-1.077-6.7"/>
					<path style="fill:none;stroke:#000000;" d="M66.486,135.041c-1.095-7.056-1.472-8.832-1.813-10.406
						c-0.341-1.574-0.556-1.929-0.7-2.284c-0.144-0.355-0.484-0.863-0.736-0.812c-0.251,0.051-0.521,0.254-0.718,0.812
						c-0.197,0.558-0.502,1.421-0.718,2.386c-0.215,0.964-0.413,1.776-0.718,3.604c-0.305,1.827-0.233,1.015-1.077,6.7"/>
					<path style="fill:none;stroke:#000000;" d="M59.993,135.038c-1.095,7.056-1.472,8.832-1.812,10.406
						c-0.341,1.574-0.557,1.929-0.7,2.285c-0.144,0.355-0.485,0.863-0.736,0.812c-0.251-0.051-0.521-0.254-0.718-0.812
						c-0.197-0.559-0.502-1.421-0.718-2.386c-0.215-0.964-0.413-1.776-0.718-3.604c-0.305-1.827-0.233-1.015-1.077-6.7"/>
					<path style="fill:none;stroke:#000000;" d="M53.501,135.041c-1.095-7.056-1.472-8.832-1.813-10.406
						c-0.341-1.574-0.556-1.929-0.7-2.284c-0.144-0.355-0.485-0.863-0.736-0.812c-0.251,0.051-0.521,0.254-0.718,0.812
						c-0.197,0.558-0.502,1.421-0.718,2.386c-0.216,0.964-0.413,1.776-0.718,3.604c-0.305,1.827-0.233,1.015-1.077,6.7"/>
					<path style="fill:none;stroke:#000000;" d="M47.009,135.038c-1.095,7.056-1.472,8.832-1.813,10.406
						c-0.341,1.574-0.557,1.929-0.7,2.285c-0.144,0.355-0.484,0.863-0.736,0.812s-0.521-0.254-0.718-0.812
						c-0.198-0.559-0.503-1.421-0.718-2.386c-0.215-0.964-0.413-1.776-0.718-3.604c-0.305-1.827-0.233-1.015-1.077-6.7"/>
					<path style="fill:none;stroke:#000000;" d="M40.516,135.041c-1.095-7.056-1.472-8.832-1.813-10.406
						c-0.341-1.574-0.556-1.929-0.7-2.284c-0.144-0.355-0.485-0.863-0.736-0.812c-0.251,0.051-0.521,0.254-0.718,0.812
						c-0.197,0.558-0.502,1.421-0.718,2.386c-0.215,0.964-0.413,1.776-0.718,3.604c-0.305,1.827-0.233,1.015-1.077,6.7"/>
					<path style="fill:none;stroke:#000000;" d="M34.024,135.038c-1.095,7.056-1.472,8.832-1.813,10.406
						c-0.341,1.574-0.557,1.929-0.7,2.285c-0.144,0.355-0.484,0.863-0.736,0.812s-0.521-0.254-0.718-0.812
						c-0.198-0.559-0.503-1.421-0.718-2.386c-0.215-0.964-0.413-1.776-0.718-3.604c-0.305-1.827-0.233-1.015-1.077-6.7"/>
					<path style="fill:none;stroke:#000000;" d="M27.531,135.041c-1.095-7.056-1.472-8.832-1.813-10.406
						c-0.341-1.574-0.556-1.929-0.7-2.284c-0.144-0.355-0.485-0.863-0.736-0.812c-0.251,0.051-0.521,0.254-0.718,0.812
						c-0.197,0.558-0.502,1.421-0.718,2.386c-0.215,0.964-0.413,1.776-0.718,3.604c-0.305,1.827-0.233,1.015-1.077,6.7"/>
					<path style="fill:none;stroke:#000000;" d="M21.039,135.038c-1.095,6.35-1.472,7.949-1.813,9.365
						c-0.341,1.416-0.557,1.736-0.7,2.056s-0.484,0.777-0.736,0.731s-0.469-0.474-0.667-0.977c-0.198-0.503-0.472-1.561-0.688-2.429
						c-0.215-0.868-0.439-2.403-0.744-4.048c-0.305-1.645,0,0-1.133-4.698"/>
					<path style="fill:none;stroke:#000000;" d="M14.575,135.083c-1.095-3.528-1.472-4.417-1.813-5.203
						c-0.341-0.787-0.557-0.964-0.7-1.142s-0.484-0.432-0.736-0.406c-0.251,0.025-0.521,0.127-0.718,0.406
						c-0.198,0.279-0.521,1.319-0.671,1.848c-0.114,0.405-0.443,1.716-0.801,2.591c-0.315,0.77-0.134,0.563-1.002,1.741
						c0,0-2.892,0.364-4.094,0.364H3.181H0.085"/>
					<g>
						<path style="fill:none;stroke:#000000;" d="M118.425,135.099c1.095,6.35,1.472,7.949,1.813,9.366
							c0.341,1.416,0.556,1.736,0.7,2.056s0.485,0.776,0.736,0.731c0.251-0.046,0.469-0.474,0.667-0.977
							c0.197-0.502,0.472-1.561,0.687-2.429s0.5-2.464,0.818-4.089c0.444-2.267,0.487-2.267,1.06-4.657"/>
						<path style="fill:none;stroke:#000000;" d="M124.917,135.146c1.095-3.528,1.472-4.417,1.813-5.203
							c0.341-0.787,0.557-0.965,0.7-1.142c0.144-0.178,0.485-0.432,0.736-0.406c0.251,0.025,0.521,0.127,0.718,0.406
							c0.198,0.279,0.521,1.318,0.671,1.848c0.114,0.405,0.443,1.716,0.801,2.591c0.315,0.769,0.134,0.563,1.002,1.741
							c0,0,2.892,0.364,4.094,0.364h0.613"/>
					</g>
				</g>
				<line style="fill:none;stroke:#000000;" x1="136.077" y1="135.44" x2="147.214" y2="135.44"/>
			</g>
			<g>
				<g>
					<text transform="matrix(1 0 0 1 2.98 28.0127)"><tspan x="0" y="0" style="font-family:'Helvetica'; font-size:9;">1</tspan></text>
				</g>
			</g>
			<g>
				<g>
					<text transform="matrix(1 0 0 1 2.98 74.9683)"><tspan x="0" y="0" style="font-family:'Helvetica'; font-size:9;">2</tspan></text>
				</g>
			</g>
			<g>
				<g>
					<text transform="matrix(1 0 0 1 2.98 110.4365)"><tspan x="0" y="0" style="font-family:'Helvetica'; font-size:9;">3</tspan></text>
				</g>
			</g>
			<g>
				<g>
					<text transform="matrix(1 0 0 1 2.98 144.4146)"><tspan x="0" y="0" style="font-family:'Helvetica'; font-size:9;">4</tspan></text>
				</g>
			</g>
			<rect y="85.664" style="fill:none;" width="147.401" height="2.834"/> 
			<g>
				<path style="fill:none;stroke:#000000;" d="M100.11,61.912c-2.19,7.056-2.944,8.833-3.626,10.406s-1.113,1.929-1.4,2.284
					s-0.969,0.863-1.472,0.812c-0.503-0.05-1.041-0.253-1.436-0.812c-0.395-0.558-1.005-1.421-1.436-2.386s-0.826-1.777-1.436-3.604
					s-0.467-1.015-2.154-6.701"/>
				<path style="fill:none;stroke:#000000;" d="M86.994,61.875c-2.19-7.056-2.944-8.833-3.626-10.406
					c-0.682-1.573-1.113-1.929-1.4-2.284c-0.287-0.355-0.969-0.863-1.472-0.812c-0.503,0.051-1.041,0.254-1.436,0.812
					c-0.395,0.559-1.005,1.421-1.436,2.386c-0.431,0.964-0.826,1.776-1.436,3.604c-0.61,1.828-0.467,1.016-2.154,6.701"/>
				<path style="fill:none;stroke:#000000;" d="M74.045,61.912c-2.19,6.35-2.944,7.949-3.626,9.365
					c-0.682,1.417-1.113,1.736-1.4,2.056c-0.288,0.32-0.969,0.776-1.472,0.731c-0.502-0.046-0.938-0.475-1.333-0.977
					s-0.943-1.561-1.374-2.429c-0.431-0.868-1-2.464-1.635-4.089c-0.888-2.267-0.974-2.267-2.119-4.657"/>
				<path style="fill:none;stroke:#000000;" d="M61.061,61.958c-2.19-3.528-2.944-4.416-3.626-5.203
					c-0.682-0.787-1.113-0.965-1.4-1.143c-0.288-0.177-0.969-0.431-1.472-0.406c-0.502,0.025-1.041,0.127-1.436,0.406
					c-0.395,0.279-1.043,1.319-1.342,1.849c-0.229,0.405-0.887,1.716-1.604,2.591c-0.63,0.769-0.267,0.563-2.004,1.741
					c0,0-5.904,0.364-8.309,0.364H0.325"/>
				<path style="fill:none;stroke:#000000;" d="M100.125,61.892c2.19-6.351,2.944-7.949,3.626-9.366
					c0.682-1.416,1.113-1.736,1.4-2.056s0.969-0.777,1.472-0.731c0.503,0.045,0.939,0.474,1.333,0.977
					c0.395,0.502,0.944,1.561,1.375,2.429c0.431,0.868,0.999,2.464,1.635,4.089c0.888,2.267,0.974,2.267,2.119,4.658"/>
				<path style="fill:none;stroke:#000000;" d="M113.11,61.846c2.19,3.528,2.944,4.416,3.625,5.203
					c0.682,0.787,1.113,0.964,1.4,1.142s0.969,0.432,1.472,0.406c0.503-0.026,1.041-0.127,1.436-0.406s1.042-1.319,1.342-1.848
					c0.229-0.405,0.887-1.716,1.603-2.591c0.63-0.77,0.267-0.563,2.004-1.741c0,0,5.783-0.364,8.188-0.364h0.928h11.799"/>
			</g>
		</g>
	</svg>
