<?xml version="1.0" encoding="UTF-8" standalone="no"?>
<!-- Generator: Adobe Illustrator 11 Build 196, SVG Export Plug-In . SVG Version: 6.0.0 Build 78)  -->

<svg
   xmlns:xapGImg="http://ns.adobe.com/xap/1.0/g/img/"
   xmlns:xap="http://ns.adobe.com/xap/1.0/"
   xmlns:x="adobe:ns:meta/"
   xmlns:dc="http://purl.org/dc/elements/1.1/"
   xmlns:cc="http://creativecommons.org/ns#"
   xmlns:rdf="http://www.w3.org/1999/02/22-rdf-syntax-ns#"
   xmlns:svg="http://www.w3.org/2000/svg"
   xmlns="http://www.w3.org/2000/svg"
   xmlns:sodipodi="http://sodipodi.sourceforge.net/DTD/sodipodi-0.dtd"
   xmlns:inkscape="http://www.inkscape.org/namespaces/inkscape"
   width="147.402"
   height="172.59"
   viewBox="0 0 147.402 172.59"
   style="overflow:visible;enable-background:new 0 0 147.402 172.59"
   xml:space="preserve"
   id="svg2"
   version="1.1"
   sodipodi:docname="step-potential.svg"><defs
   id="defs125">
			
			 
		
				
				
				
				
				
				
				
				
				
				
				
				
				
				
				
				
				
				
				
				
				
				
			</defs><sodipodi:namedview
   pagecolor="#ffffff"
   bordercolor="#666666"
   borderopacity="1"
   objecttolerance="10"
   gridtolerance="10"
   guidetolerance="10"
   inkscape:pageopacity="0"
   inkscape:pageshadow="2"
   inkscape:window-width="1280"
   inkscape:window-height="996"
   id="namedview123"
   showgrid="false"
   inkscape:zoom="2.2530587"
   inkscape:cx="78.320198"
   inkscape:cy="37.575586"
   inkscape:window-x="0"
   inkscape:window-y="0"
   inkscape:window-maximized="1"
   inkscape:current-layer="svg2" />
	<metadata
   id="metadata4">
<?xpacket begin='' id='W5M0MpCehiHzreSzNTczkc9d'?><x:xmpmeta
   x:xmptk="XMP toolkit 3.0-29, framework 1.6">

<metadata
   id="metadata127"><rdf:RDF>

 <rdf:Description
   rdf:about="">
 </rdf:Description>

 <rdf:Description
   rdf:about="">
 </rdf:Description>

 <rdf:Description
   rdf:about="">
  <xap:CreateDate>2006-07-16T20:56:03Z</xap:CreateDate>
  <xap:ModifyDate>2006-07-16T20:56:03Z</xap:ModifyDate>
  <xap:CreatorTool>Illustrator</xap:CreatorTool>
  <xap:Thumbnails>
   <rdf:Alt>
    <rdf:li
   rdf:parseType="Resource">
     <xapGImg:format>JPEG</xapGImg:format>
     <xapGImg:width>220</xapGImg:width>
     <xapGImg:height>256</xapGImg:height>
     <xapGImg:image>/9j/4AAQSkZJRgABAgEASABIAAD/7QAsUGhvdG9zaG9wIDMuMAA4QklNA+0AAAAAABAASAAAAAEA
AQBIAAAAAQAB/+4ADkFkb2JlAGTAAAAAAf/bAIQABgQEBAUEBgUFBgkGBQYJCwgGBggLDAoKCwoK
DBAMDAwMDAwQDA4PEA8ODBMTFBQTExwbGxscHx8fHx8fHx8fHwEHBwcNDA0YEBAYGhURFRofHx8f
Hx8fHx8fHx8fHx8fHx8fHx8fHx8fHx8fHx8fHx8fHx8fHx8fHx8fHx8fHx8f/8AAEQgBAADcAwER
AAIRAQMRAf/EAaIAAAAHAQEBAQEAAAAAAAAAAAQFAwIGAQAHCAkKCwEAAgIDAQEBAQEAAAAAAAAA
AQACAwQFBgcICQoLEAACAQMDAgQCBgcDBAIGAnMBAgMRBAAFIRIxQVEGE2EicYEUMpGhBxWxQiPB
UtHhMxZi8CRygvElQzRTkqKyY3PCNUQnk6OzNhdUZHTD0uIIJoMJChgZhJRFRqS0VtNVKBry4/PE
1OT0ZXWFlaW1xdXl9WZ2hpamtsbW5vY3R1dnd4eXp7fH1+f3OEhYaHiImKi4yNjo+Ck5SVlpeYmZ
qbnJ2en5KjpKWmp6ipqqusra6voRAAICAQIDBQUEBQYECAMDbQEAAhEDBCESMUEFURNhIgZxgZEy
obHwFMHR4SNCFVJicvEzJDRDghaSUyWiY7LCB3PSNeJEgxdUkwgJChgZJjZFGidkdFU38qOzwygp
0+PzhJSktMTU5PRldYWVpbXF1eX1RlZmdoaWprbG1ub2R1dnd4eXp7fH1+f3OEhYaHiImKi4yNjo
+DlJWWl5iZmpucnZ6fkqOkpaanqKmqq6ytrq+v/aAAwDAQACEQMRAD8A9M2uvaTdazf6Nbz89S0y
O3lvoODj00u+fonkQEbl6L/ZJpTemKoSHX9I13y9qF5pU/1i2i+t2rycHSk1sXhlWkiqfhdCK9D2
xVV8p/8AKK6N/wAwNt/yZXFU2xV2KuxV2KuxV2KuxV2KuxV2KuxVRu7qC0tZru4bhb28bSzPQnii
AsxoASaAdsVYFF+fv5XTRJNDqF5JFIoeORNJ1VlZWFQykWtCCMVX/wDK9/yz/wCW2+/7hGrf9kuK
u/5Xv+Wf/Lbff9wjVv8AslxV3/K9/wAs/wDltvv+4Rq3/ZLiqtY/nb+W97qNnp0GoXK3eoTpa2iz
abqMCvNKaInqTW6ICfdsVZ1irsVdirsVdirsVdirsVeYN5h0Tyj+bXmi88zX0OkWOt6bpb6Ze3jr
DBMbE3SXEayuQnqp6yHhXkQagYqivyss7iD8sbq4mjeIalcatqNvHKpR/q93dzzQMytQjnEyvv44
qy/yn/yiujf8wNt/yZXFU2xV2KuxV2KuxV2KuxV2KuxV2KuxVKfNn/KK6z/zA3P/ACZbFUq/Kf8A
8lZ5N/7Yem/9QkeKsrxV2KuxV5/+b3/TFf8AgV6Z/wAzcVegYq7FXYq7FXYq7FXYq7FXYqhNW/45
V7/xgl/4gcVQnlP/AJRXRv8AmBtv+TK4qm2KuxV2KuxV2KuxV2KuxV2KuxV2KpT5s/5RXWf+YG5/
5MtiqVflP/5Kzyb/ANsPTf8AqEjxVleKuxV2KvP/AM3v+mK/8CvTP+ZuKvQMVdirsVdirsVdirsV
dirsVQmrf8cq9/4wS/8AEDiqE8p/8oro3/MDbf8AJlcVTbFXYq7FXYq7FXYq7FXYq7FXYq7FUp82
f8orrP8AzA3P/JlsVSr8p/8AyVnk3/th6b/1CR4qyvFXYq7FXn/5vf8ATFf+BXpn/M3FXoGKuxV2
KuxV2KuxV2KuxV2KoTVv+OVe/wDGCX/iBxVCeU/+UV0b/mBtv+TK4qm2KuxV2KuxV2KuxV2KuxV2
KuxV2KpT5s/5RXWf+YG5/wCTLYqlX5T/APkrPJv/AGw9N/6hI8VZXirsVdirz/8AN7/piv8AwK9M
/wCZuKvQMVdirsVdirsVdirsVdirsVQmrf8AHKvf+MEv/EDiqE8p/wDKK6N/zA23/JlcVTbFXYq7
FXYq7FXYq7FXYq7FXYq7FUp82f8AKK6z/wAwNz/yZbFUq/Kf/wAlZ5N/7Yem/wDUJHirK8VdirsV
ef8A5vf9MV/4Femf8zcVegYq7FXYq7FXYq7FXYq7FXYqhNW/45V7/wAYJf8AiBxV5x5b/PT8rLby
7pdvNrfGaGzgjkX6reGjLEoIqISOoxVMv+V9/lN/1ff+nS8/6o4q7/lff5Tf9X3/AKdLz/qjirv+
V9/lN/1ff+nS8/6o4q7/AJX3+U3/AFff+nS8/wCqOKu/5X3+U3/V9/6dLz/qjirv+V9/lN/1ff8A
p0vP+qOKu/5X3+U3/V9/6dLz/qjirv8Alff5Tf8AV9/6dLz/AKo4q7/lff5Tf9X3/p0vP+qOKu/5
X3+U3/V9/wCnS8/6o4q7/lff5Tf9X3/p0vP+qOKpd5j/ADy/K268vapbW+tepPPaTxRILW8BZ3iZ
VG8PcnFWUflSjp+V3k9HUq66JpoZSKEEWkdQRirKcVdirsVef/m9/wBMV/4Femf8zcVegYq7FXYq
7FXYq7FXYq7FXYqhNW/45V7/AMYJf+IHFUJ5T/5RXRv+YG2/5MriqbYq7FXYq7FXYq7FXYq7FXYq
7FXYq7FXYq7FXYq7FXn/AOb3/TFf+BXpn/M3FXoGKuxV2KuxV2KuxV2KuxV2KoTVv+OVe/8AGCX/
AIgcVQnlP/lFdG/5gbb/AJMriqbYq7FXYq7FXYq7FXYq7FXYq7FXYq7FXYq7FXYq7FWC/m3pPmK+
07QLjQdMbV7vSNcstSlsUmhgZobcSF6PcPGlfiA64qo/47/Mz/y2d9/3FNJ/7KMVd/jv8zP/AC2d
9/3FNJ/7KMVd/jv8zP8Ay2d9/wBxTSf+yjFXf47/ADM/8tnff9xTSf8AsoxV3+O/zM/8tnff9xTS
f+yjFXf47/Mz/wAtnff9xTSf+yjFU68reY/NuqXksOteUrjy/AkfOO5nvLK5V35AemFtpZGBoa1I
pirJsVdiqE1b/jlXv/GCX/iBxVCeU/8AlFdG/wCYG2/5MriqbYq7FXYq7FXYq7FXYq7FXYq7FXYq
7FXYq7FXYq7FXYq7FXYq7FXYq7FXYq7FXYq7FUJq3/HKvf8AjBL/AMQOKoTyn/yiujf8wNt/yZXF
U2xV2KuxV2KuxV2KuxV2KuxV2KuxV2KuxV2KuxV2KuxV2KuxV2KuxV2KuxV2KuxV2KoTVv8AjlXv
/GCX/iBxVCeU/wDlFdG/5gbb/kyuKptirsVdirsVdirsVdirsVdirsVdirsVdirsVdirsVdirsVd
irsVdirsVdirsVdirsVQmrf8cq9/4wS/8QOKoTyn/wAoro3/ADA23/JlcVTbFXYq7FXYq7FXYq7F
XYq7FXYq7FXYq7FXYq7FXYq7FXYq7FXYq7FXYq7FXYq7FXYqhNW/45V7/wAYJf8AiBxVCeU/+UV0
b/mBtv8AkyuKptirsVdirsVdirsVdirsVdirsVdirsVdirsVdirsVdirsVdirsVdirsVdirsVdir
sVQ2pRvJp11Gg5O8Miqo6klSAMVYx5f8zrZ6DptpcaTqqz21rBFKosZiA6RqrCoG+4xVMP8AGVt/
1atV/wCkCf8A5pxV3+Mrb/q1ar/0gT/804q7/GVt/wBWrVf+kCf/AJpxV3+Mrb/q1ar/ANIE/wDz
Tirv8ZW3/Vq1X/pAn/5pxV3+Mrb/AKtWq/8ASBP/AM04q7/GVt/1atV/6QJ/+acVd/jK2/6tWq/9
IE//ADTirv8AGVt/1atV/wCkCf8A5pxV3+Mrb/q1ar/0gT/804q7/GVt/wBWrVf+kCf/AJpxV3+M
rb/q1ar/ANIE/wDzTirv8ZW3/Vq1X/pAn/5pxV3+Mrb/AKtWq/8ASBP/AM04q7/GVt/1atV/6QJ/
+acVd/jK2/6tWq/9IE//ADTirv8AGVt/1atV/wCkCf8A5pxV3+Mrb/q1ar/0gT/804q7/GVt/wBW
rVf+kCf/AJpxV3+Mrb/q1ar/ANIE/wDzTirv8ZW3/Vq1X/pAn/5pxV3+Mrb/AKtWq/8ASBP/AM04
q7/GVt/1atV/6QJ/+acVd/jK2/6tWq/9IE//ADTiqbfpBP0d9e9Gfj6fq+h6TevSlePpfa5e2Kor
FXYq7FXYq7FXYq7FXYq7FXYq7FXYq7FXYq7FXYq7FXYq7FXYq7FXYq7FXYq8j/5yA8w655cttI1X
y7qNzDrb/W7f9GRCWeKazNuz3N01sjKvOyAWVX/2J2bFXpHleK0i8t6XHZ30uqWotYfR1KeVp5bh
SgImeVyzMZPtVriqaYq7FXYq7FXYq7FXYq7FXYq7FXYq7FXYq7FXYq7FXYq7FXYq7FXYq7FXYq7F
XYq7FULJpemSX6ahJaQvfxxNbx3jRoZlhchnjEhHIIxUErWhxVdYafYadZw2On20VnZW68ILW3RY
oo1H7KIgCqPkMVRGKuxV2KuxVJvJ19dX3ljTru7kMtzNCGlkIAJNTvtQYqnOKuxV2KuxV2KuxV2K
uxV2KuxV2KuxV2KuxV2KuxV2KuxV2KuxV2KuxV2KuxV2KvFfz9bz5o2meYtd0q7vE0GbRokBs7to
JbLUoLqouRWSJljkgk4MIiakfEp64qznyTp/mtdc17VNZ+sWumXJtbfQNIubkXEtvb20PGV5fTkn
iMk0zM3LmzUpU4qmPkD/AJQ3Sf8AjAP1nFWQYq7FXYq7FXYq7FXYq7FXYq7FXYq7FXYq7FXYq7FX
Yq7FXYq7FXYq7FXYq7FXYqlfmXyzovmbRbjRNaga50y7AW5t1llh5hSGALwtG9KjpXFUwghSCCOF
CxSNQqmR2kcgCnxO5ZmPuxriqR+QP+UN0n/jAP1nFWQYq7FXYq7FXYq7FXYq7FXYq7FXYq7FXYq7
FXYq7FXYq7FXYq7FXYq7FXYq7FXYq7FXYqwHRPPPljy15c8oWGs3gtrrX3Wy0yMqzc5ie9AeK8mV
anuwxVn2KpD5l88eWPLV7o9jrN4La6166FjpkRVmMkzUH7IPFasoLHYEjFU+xVIfM3njyx5Zu9Ht
NavBa3Gu3a2OmxlWYyTNQCvEHitWUFjsCRiqfYqkPmbzx5Y8s3WkWutXgtZ9cu1sdNQqzc5moBXi
DxWpALHYVGKp9iqQeZ/PPlnyxc6Rba1di2m1y7Sw05eLNzmegFeIPFakAsdhUYqn+KpB5p88+WfK
8+kwa3d/VZNbu0sNPXizc5n6V4g8VqQCx2FcVT/FUh80eePLHlaTS49bvFtX1i7Sx09SGYvNIaCv
EHioqOTHYYqn2KuxV2KuxV2KuxV2KuxV2KuxV2KuxV2KuxV2Kvl7z/FJfWazIOcvlTyhFrFnvQx3
B1iKUup7H09PK/I4q+noZY5okljPKORQ6NuKhhUHfFXgX/OQFvLf+ZdSlUBn8reVhrNnUCsdwdWh
lDqxIoTHp7Lt2P3qvfIJo54I5ojyjlUOh8VYVGKvA/8AnIK2fUvMeolRyk8reVH1qzP++7g6pBIr
g9iU09h8vxVe921xHc28VxEaxzIsiH/JYVH68VeC/wDOQVnLqvmLUFUcm8r+U59btTv+7uP0lBIr
7dPgsGxV7zaXMV1aw3UJrFPGssZ2NVcBh0qOhxV4N/zkLYvrGv38a/E/lnynda3a0rVLj9IW7q+1
f2LF/D9dFXvFldR3dnBdxf3dxGkqb1+F1DDf6cVeEf8AOQti2teYLy3H2/LPlK+121YdUuBfW7I4
3/ls27f2KvdrC8jvbG2vIv7u5iSZP9WRQw/Xirxr85vLNz5087r5ftj/AKZpfli/1TTOm1895bLb
9elWtqV7Yq9Q8jeabbzX5R0rzBbjguoW6ySxd4ph8M0R945FZD8sVT3FXYq7FXYq7FXYq7FXYq7F
XYq7FXYq7FXYq+ffLVl+l7D8zYW+Lj5XsdMi3AKmSzvJm7U6zqQTir2L8vb03/kHy1fHrdaVYznt
/eWyN7+OKvPtZshq/mn834XH2PLllpkZOw/fWl5M3Sp/3au+Ks//AC5vTffl95YvT1udJsZj06vb
Ix6fPFWB6vYjWPN/5sxOOQj8tWWlx9elxbXkzrt8X+7V6frxVnX5a3xv/wAuvK96TVrnSbGVzUH4
mtkLDbwOKsH1axGtedfzThYF/R8s2WlIKF9rmG9mdQP+eimg61xVm35Y331/8t/Kt4TyafSLF3Na
/GbdOQr7NXFWFapYDW/Pn5nQMvP0fLFlpKjrX61HezMorQD7a1HvXvirM/ytvvr35aeVLstyabSL
FpDv9v6ugfrv9quKsO1OxGt/mD+ZMBHL0PK9lpQBI/4+1vZiv8v7Q+1+rFWX/lVem+/LHyndMavL
pFiZD/li3QP1/wAoHFUo0Q/W/wA8fNU//Vt0TSbLsP7+a7uNqdfpxVL9XstW/LXW7/zJotpLqPkn
VZjdeYtGtxynsLl6epqFpGATJG4FZ4uo+2u1Rir0LRNd0fXdLg1XR7yK+066XnBcwtyRh/AjoQdx
3xVH4q7FXYq7FXYq7FXYq7FXYq7FXYq7FXYq8c/IW0S/tfO08lTHd6hDYsdulvplshFPb1PpxVk/
5E3Dz/lB5VL7PDYrbuBXZrdmhI38DHiqG/L+BL/zb+Zl2393c6vDYMy7f7y6ZbRtSu9Rz+XhiqI/
Ied5fyg8rep9uGzFs48Dbu0JH/JPFVDyBDHfec/zLvHHKK41W2sGp0pa6Zbow5f89Dt2xVW/IaaS
T8oPLAkNXgtPqzHbrbSPDtTt+72xVR8gRx33nn8y7twHil1O0sCK1HG202BWXkP8qRtuxJxVV/IW
V5Pyh8tK55Pb272pPX/eaZ4P+ZeKqfkKNLv8wfzLu3AaOTULGy4k1+G302GoI6ULSsfpxVf+QcjN
+UXlyN2LNawy2hJrWtrcSQbg9Ken07dMVW+Q1W5/MX8yrthyia+0+yAanS302IsCP9aY4qu/INm/
5VH5ehY1a0jns2rWtbW6lgoa9x6eKteQv335lfmTeDeP67ptmh6Ctvp0bNt1qGmO+KvQcVedaz+W
WpaXqs/mP8ub6PRNWuG9TUdGnVm0jUG7maJd4JT/AL9i38Qak4qifLn5s6dc6lH5f81WcnlXzU9F
TTb5lMFy3jZXY/dTrXoAQ3+TirPMVdirsVdirsVdirsVdirsVdirsVdiryj/AJxujP8AgrVbo9Lv
XdQkU0oCsbJbg1/a2h6/R2xVNvyJpH+Xsdl1On6lq1oaGopHqVxxA9gpAGKtfk6RJB5xuq1+s+a9
WNa1JEMi243/ANWEU9qYq78iuMXkE6eKA6bqur2jAbU4alcMBx/Zorj4fDFXfk98aedLnqbjzZqt
d6n9w0dsK+G0G3tirvyMIj8kT6f30zWdZtGBFGBXUp3ow7H95irvyfPqf42uj/x8ebNUFTT/AI9/
Steg6f3H8cVb/I8iLybd6dXfS9b1mzZT9oFdSnejHoT+87Yq78oD6jeeLmtfrHmvUt+37hYbbYf8
8Pv9sVd+SB9Lyjf6d0/Rmu61acNjx46jM/Gvf+864q1+UJ9Wfz1dVBM/mvUFqB2t44LalfYwn6cV
b/JL915W1TTh00zX9atAAaqAuozPRa70+PvirX5RkTXfny72LTear5OXU0toLe3C8vYxHbt0xV6F
irsVSzzD5Z8v+ZNNk0zXtPg1Kwk+1BcIHANKclJ3Vh2ZSCMVYMvk78xPJihvJWqDX9Ej6eWNckPq
og/Ys9RoXXwVZgyjxxVNfL35s+X9R1WPQdXt7ny15mk2j0fVkELTHpW1nUtBcKT09NyT4YqyzVNV
0zSbCbUdTuorKwtl5z3U7rHGi+LMxAxVKvKnn/yZ5sWY+XdXt9Ra3p68UZIlQHozRuFcK3ZqUPbF
V/mrzz5R8pwRT+YtVg05LhituspJkkI68I0DO3HuQNu+Kpho+taTrWnQ6lpF5Df2FwOUN1buskbD
vRlJ3HcdsVSLVfzS/LvSddXQtS8wWdrqpKq1tJIBwZt1WV/sRM3YOwJxVk8k0UUTTSOqRIpd5GIC
qoFSxJ2AAxVjfl38zvy/8yalLpmh69aX9/EC31eJ/idVJDPFWglUU3aOoxVk+KuxV2KsT8qaNo+r
eRdHttVsbfULdI1kSG6iSZA45KGCyBhyoxFffFWIflR5J8mzjzhb3eg6dcPY+Z9ShiMtnA5SJzHc
Rxgsh+FVnHEDYDbFXfkt5J8mah5H/SN1oGm3D3mp6tJG0tpBIyxjUZ4405Mh2VUAX2xV35U+SfJs
7ecre70DTp2sfM+oww+raW7lInEVwkakofgUT/CO3TFXfkx5I8mX/kyXUrvQNOuHvdW1aVGltIHZ
Y11GeJE+JDxCrHQKNgMVd+VXknybPJ50t7rQNOnNj5n1CGEy2kEnCJ0huERCyEhV9fZeg6DbFXfk
15J8mah5RudSutA064a91jV5YpJbSBj6a6hNEiqCh4KojoFGwxV35WeSfJk1z52trrQdNnay8zXs
UPqWkD8IZIYJ0RAyHii+qQANsVd+TfknyZqHlW+1O50HTrg32tavLC8tpAwES6hNEiRhkqqKI6Kv
bFXfld5J8mS3vne0u9B06aSy8y3aQiWzgYpBLBbzxqoZDxQeqQoG3fFXfk55K8mah5Z1LUbnQNOu
PrmuaxJA0lnAwWFb+WNEjLIf3ahKKO3TFXflf5J8my6h55s7zQdNney8yXKwCWzgYpbzW1vPGq8l
NFBkbiB2xV35PeSfJl/5f1bULnQNNnF1r+sPbmS0gk4QrfSxxxozJ9hAlFpsBirO/wDlXnkD/qWd
K/6Qbb/mjFXf8q88gf8AUs6V/wBINt/zRirv+VeeQP8AqWdK/wCkG2/5oxV3/KvPIH/Us6V/0g23
/NGKoHWfyl/LTV9Nn0+78tacsM68TJBbRQTIezRyxKrow8VOKsS0P/nG7yfaanaXWs3D6/a6aCNN
sLq2s4oh4NdG3hia7cDoZie+2Kpx5v8AyL/L/wAwR28trp1voeq2bepaajp9tbIQf5JoWjaGeM91
kU+1MVWeUfyI8i6FJc3uoWcGv6vekGe+vrW1CKorRLe2ijSCBPEIu/c4ql3mD/nHXyhe6rPqOhS/
4da9QR39ra2llPbOBtzhiuYZVt5aftxcfGld8VUNY8t/kd+Xml2Gha35cthpV3b3X+5q8trecSS2
8RmkjnuXPrfWJUDNHQb04rSgGKpb5f8A+cdfJmp2On3cz38Plmfhfw+Wb2CzS5T1BzWC4vIka7aN
a/3RmNNgTtirN/Mv5Kfllr+lfo+XQbSw4kNb3mnQQ2txCy9DHJGn/CsCp7jFWZ/Vo/qv1Xf0vT9L
3404/qxVWxV2Ksf8gf8AKG6T/wAYB+s4qxryBNHYedPzMtGNI7fVba/ZQe11plu7EL7mM796e2Kq
/wCQ0EkX5QeVzJ/eT2n1lunW5kebt/xkxVR8hSpY+evzMtZDxih1KzvyaEfDc6bCWbiK94iKjrTF
VX8hIZI/yg8sGQUee1a5YDYf6TK8+3Xb95iqn5Dkjs/zA/Mu1chYo7+xvuRG/G402HkSRtTlC3vi
qp+Qkbp+UXluRxxe6gku2FKb3U8k/wBP95179cVWeRHW1/MT8yrVm4xLfafe8mIoBcabEGJPhyhO
KrvyERx+Ufl2VwQ91FNeMDWtbq5luKmvWvqdcVW+RGW3/Mn8yrSvGMXmm3oBpQfWNOjViT1+1Afb
FW/yDBP5SeX5m+1drcXh8a3V3LPU+/7zft4Yq15EpB+Z35k2Y2RrrS7xUrt+/wBPSNjQ+L25xVv8
gqt+UuhTmpN39avKmlf9KvJp+3T+86Yq9BxV2KuxV2KuxV2KuxV2KuxVgP5qfl7q/nuOx0j6+mna
Db+rd3E0ZLXT30a0suKlOHpROxkf46sQFpSpxVl+hDWho1kuuegdYWFBftaMzQGYCjtGXWNuLHcV
XbFUfirsVdirsVY/5A/5Q3Sf+MA/WcVef61e/ofzd+bUr0Al8tWeqIN/+Pe2vIXNOv8Aupen6zir
Pfy3sjYfl55XsmFGttJsYmG32ktkU9NuoxVgusXw0Xzn+akznj63liz1VNyu1tDewuw/5FqKjwxV
nH5Z2P1D8ufK1kRRrfSbGN9qfEtugY036tXFWE6vfjQ/PP5nzsePreV7PVk/Zp9UjvYWYdR+wN/b
FWaflfYmw/LXyrZleLwaRYpIKEfH9XTnsdx8VcVYZq19+g/P/wCZM5IT1/K1nqqsaf8AHot7CWqf
h/ZH2vDwxVmP5WWJsPyz8qWjDi8OkWKyDf7f1dC/Xf7VcVYhql8NE/Mb8xJjt9Y8qWeqV2O1n9di
23H44qy38qLI2X5YeUrY7PHpFjzB3+M26M3/AAxOKsT1S/Gi/mX5+lJFLnynaaoQdwfqTXsR22O1
e2Ksq/KSx+o/lb5StiKMmkWRcbfbeBHbp/lMcVZbirsVdirsVdirsVdirsVdirsVdirsVdirsVdi
rH/IH/KG6T/xgH6zirx7/nIS5k03zHfqNn81eV20SzGw9S4GqQIFFT8REd+zbdvwVe+28EcEEcEY
pHEqog/yVFBirwL/AJyFu5NK8w3pU8ZPNXlWbQ7QVp6lwNSt0VOu9I75z0/jir3y1torW1htohSK
BFjjG32UAUdKDoMVeC/85DXj6Rr15IpVX80eVbrQrUEkF7j9IW6qu3X4L1z3/XVV7zZ2sVpZwWkQ
pFbxpFGP8lFCjp7DFXhH/OQ16+j67dTg0fzN5UvtBtR3e4N7bhE2/wAi7fFXu1jaR2dlb2kX91bR
pEn+qihR+AxV4V/zkNfS6Nrlxcr18y+VNR0C2Xb4rh7u2CKNialbptv6Yq9006zjsdPtrKPeO1iS
FDv0jUKOpPh44q8M/wCch79tE1qe6H2vMnlTVNAgWoHKd7m29Nd67kXLUFP7FXuWmWSWGm2ljH/d
2sMcCfKNQo/ViqJxV2KuxV2KuxV2KuxV2KuxV2KuxV2KuxV2KuxVj/kD/lDdJ/4wD9ZxVU8xeS/L
PmO70m71myW6uNDulvtMkYspinXofhI5CoB4naoHhiqeYqknmPyZ5Z8x3Gl3GtWKXc2i3S32muxZ
TFOm4b4SOQqASp2NBUbYqneKpJ5j8l+WfMk+l3GtWKXk2jXS32muxYGOdNwfhI5CoBKtsaCo2xVO
8VSTzJ5L8s+ZJtLn1qxW8l0a6S+05mLKY5491b4SOQqBVWqpoKjFU7xVI/M3kryz5nk0yTW7Jbt9
Hu0v9PYsymOeM1U/CV5L4q2x7jFU8xVI/M/kryz5nfTX1yyW8bSLtL+wLFlMc8f2T8JHJfFW+E9x
iqeYq7FXYq7FXYq7FXYq7FXYq7FXYq7FXYq7FXYq7FWP+QP+UN0n/jAP1nFWQYq7FXYq7FXYq7FX
Yq7FXYq7FXYq7FXYq7FXYq7FXYq7FXYq7FXYq7FXYq7FXYq7FXYqx/yB/wAobpP/ABgH6zirIMVd
irsVdirsVdirsVdirsVdirsVdirsVdirsVdirsVdirsVdirsVdirsVdirsVf/9k=</xapGImg:image>
    </rdf:li>
   </rdf:Alt>
  </xap:Thumbnails>
 </rdf:Description>

 <rdf:Description
   rdf:about="">
  <dc:format>image/svg+xml</dc:format>
 </rdf:Description>

<cc:Work
   rdf:about=""><dc:format>image/svg+xml</dc:format><dc:type
     rdf:resource="http://purl.org/dc/dcmitype/StillImage" /></cc:Work></rdf:RDF></metadata></x:xmpmeta>
                                                                                                                                                                                                                                                                                                                                                                                                                                                                                                                                                                                                                                                                                                                                                                                                                                                                                                                                                                                                                                                                                                                                                                                                                                                                                                                                                                                                                                                                                                                                                                                                                                                                                                                                                                                                                                                                                                                                                                                                                                                                                                                                <?xpacket end='w'?>
			</metadata>
		<polyline
   style="fill:none;stroke:#000000;stroke-width:0.5"
   points="10.871,0 10.871,79.6 146.33,79.6 "
   id="polyline9" /><g
   id="g11">
					<g
   id="g13">
						<g
   id="g15">
							<text
   transform="translate(1.0718,11.0171)"
   id="text17"><tspan
     x="0"
     y="0"
     style="font-size:9px;font-family:Helvetica"
     id="tspan19">U</tspan></text>





						</g>
					</g>
				</g><g
   id="g21"
   transform="translate(7.5452987,0)">
					<g
   id="g23">
						<g
   id="g25">
							<text
   transform="translate(131.686,87.2031)"
   id="text27"><tspan
     x="0"
     y="0"
     style="font-size:9px;font-family:Helvetica"
     id="tspan29">x</tspan></text>





						</g>
					</g>
				</g><line
   style="fill:none;stroke:#000000;stroke-width:0.5"
   x1="11.343"
   y1="92.989998"
   x2="11.343"
   y2="172.59"
   id="line33" /><g
   id="g35">
					<g
   id="g37">
						<g
   id="g39">
							<text
   transform="translate(1.3955,104.0073)"
   id="text41"><tspan
     x="0"
     y="0"
     style="font-size:9px;font-family:Symbol"
     id="tspan43">Ψ</tspan></text>





						</g>
					</g>
				</g><g
   id="g45">
					<path
   style="fill:none;stroke:#000000"
   d="m 11.831,134.784 c 0.919,-11.841 1.236,-14.822 1.522,-17.463 0.286,-2.641 0.467,-3.237 0.587,-3.833 0.121,-0.596 0.407,-1.448 0.618,-1.363 0.211,0.085 0.437,0.426 0.603,1.363 0.166,0.937 0.422,2.385 0.603,4.004 0.181,1.619 0.347,2.981 0.603,6.048 0.256,3.067 0.196,1.704 0.904,11.245"
   id="path47"
   inkscape:connector-curvature="0" />
					<path
   style="fill:none;stroke:#000000"
   d="m 17.283,134.778 c 0.919,11.841 1.235,14.822 1.522,17.463 0.286,2.641 0.467,3.237 0.588,3.833 0.121,0.596 0.407,1.448 0.618,1.363 0.211,-0.085 0.437,-0.426 0.603,-1.363 0.166,-0.937 0.422,-2.385 0.603,-4.004 0.181,-1.618 0.347,-2.981 0.603,-6.048 0.256,-3.067 0.196,-1.704 0.904,-11.245"
   id="path49"
   inkscape:connector-curvature="0" />
				</g><g
   id="g51">
					<path
   style="fill:none;stroke:#000000"
   d="m 22.649,134.784 c 0.919,-11.841 1.236,-14.822 1.522,-17.463 0.286,-2.641 0.467,-3.237 0.587,-3.833 0.121,-0.596 0.407,-1.448 0.618,-1.363 0.211,0.085 0.437,0.426 0.603,1.363 0.166,0.937 0.422,2.385 0.603,4.004 0.181,1.619 0.347,2.981 0.603,6.048 0.256,3.067 0.196,1.704 0.904,11.245"
   id="path53"
   inkscape:connector-curvature="0" />
					<path
   style="fill:none;stroke:#000000"
   d="m 28.1,134.778 c 0.919,11.841 1.236,14.822 1.522,17.463 0.286,2.641 0.467,3.237 0.588,3.833 0.12,0.596 0.407,1.448 0.618,1.363 0.211,-0.085 0.437,-0.426 0.603,-1.363 0.166,-0.937 0.422,-2.385 0.603,-4.004 0.181,-1.618 0.346,-2.981 0.603,-6.048 0.256,-3.067 0.196,-1.704 0.904,-11.245"
   id="path55"
   inkscape:connector-curvature="0" />
				</g><g
   id="g57">
					<path
   style="fill:none;stroke:#000000"
   d="m 33.467,134.784 c 0.919,-11.841 1.236,-14.822 1.522,-17.463 0.286,-2.641 0.467,-3.237 0.588,-3.833 0.12,-0.596 0.407,-1.448 0.618,-1.363 0.211,0.085 0.437,0.426 0.603,1.363 0.166,0.937 0.422,2.385 0.603,4.004 0.181,1.619 0.347,2.981 0.603,6.048 0.256,3.067 0.196,1.704 0.904,11.245"
   id="path59"
   inkscape:connector-curvature="0" />
					<path
   style="fill:none;stroke:#000000"
   d="m 38.918,134.778 c 0.919,11.841 1.235,14.822 1.522,17.463 0.286,2.641 0.467,3.237 0.588,3.833 0.121,0.596 0.407,1.448 0.618,1.363 0.211,-0.085 0.437,-0.426 0.603,-1.363 0.166,-0.937 0.422,-2.385 0.603,-4.004 0.181,-1.618 0.346,-2.981 0.603,-6.048 0.256,-3.067 0.196,-1.704 0.904,-11.245"
   id="path61"
   inkscape:connector-curvature="0" />
				</g><g
   id="g63">
					<path
   style="fill:none;stroke:#000000"
   d="m 44.285,134.784 c 0.919,-11.841 1.236,-14.822 1.522,-17.463 0.286,-2.641 0.467,-3.237 0.588,-3.833 0.12,-0.596 0.407,-1.448 0.618,-1.363 0.211,0.085 0.437,0.426 0.603,1.363 0.166,0.937 0.422,2.385 0.603,4.004 0.181,1.619 0.347,2.981 0.603,6.048 0.256,3.067 0.196,1.704 0.904,11.245"
   id="path65"
   inkscape:connector-curvature="0" />
					<path
   style="fill:none;stroke:#000000"
   d="m 49.736,134.778 c 0.919,11.841 1.236,14.822 1.522,17.463 0.286,2.641 0.467,3.237 0.588,3.833 0.121,0.596 0.407,1.448 0.618,1.363 0.211,-0.085 0.438,-0.426 0.603,-1.363 0.165,-0.937 0.422,-2.385 0.603,-4.004 0.181,-1.618 0.347,-2.981 0.603,-6.048 0.256,-3.067 0.196,-1.704 0.904,-11.245"
   id="path67"
   inkscape:connector-curvature="0" />
				</g><g
   id="g69">
					<path
   style="fill:none;stroke:#000000"
   d="m 55.103,134.784 c 0.919,-11.841 1.235,-14.822 1.522,-17.463 0.286,-2.641 0.467,-3.237 0.588,-3.833 0.121,-0.596 0.407,-1.448 0.618,-1.363 0.211,0.085 0.437,0.426 0.603,1.363 0.166,0.937 0.422,2.385 0.603,4.004 0.181,1.619 0.347,2.981 0.603,6.048 0.256,3.067 0.196,1.704 0.904,11.245"
   id="path71"
   inkscape:connector-curvature="0" />
					<path
   style="fill:none;stroke:#000000"
   d="m 60.554,134.778 c 0.919,11.841 1.236,14.822 1.522,17.463 0.287,2.641 0.467,3.237 0.588,3.833 0.121,0.596 0.407,1.448 0.618,1.363 0.211,-0.085 0.437,-0.426 0.603,-1.363 0.166,-0.937 0.422,-2.385 0.603,-4.004 0.181,-1.618 0.347,-2.981 0.603,-6.048 0.256,-3.067 0.196,-1.704 0.904,-11.245"
   id="path73"
   inkscape:connector-curvature="0" />
				</g><g
   id="g75">
					<path
   style="fill:none;stroke:#000000"
   d="m 65.92,134.784 c 0.919,-11.841 1.236,-14.822 1.522,-17.463 0.286,-2.641 0.467,-3.237 0.588,-3.833 0.121,-0.596 0.407,-1.448 0.618,-1.363 0.211,0.085 0.437,0.426 0.603,1.363 0.166,0.937 0.422,2.385 0.603,4.004 0.181,1.619 0.347,2.981 0.603,6.048 0.256,3.067 0.196,1.704 0.904,11.245"
   id="path77"
   inkscape:connector-curvature="0" />
					<path
   style="fill:none;stroke:#000000"
   d="m 71.372,134.778 c 0.919,11.841 1.236,14.822 1.522,17.463 0.287,2.641 0.467,3.237 0.588,3.833 0.121,0.596 0.407,1.448 0.618,1.363 0.211,-0.085 0.437,-0.426 0.603,-1.363 0.166,-0.937 0.422,-2.385 0.603,-4.004 0.181,-1.618 0.347,-2.981 0.603,-6.048 0.256,-3.067 0.196,-1.704 0.904,-11.245"
   id="path79"
   inkscape:connector-curvature="0" />
				</g><line
   style="fill:none;stroke:#000000;stroke-width:0.5"
   x1="14.284"
   y1="135.149"
   x2="145.632"
   y2="135.149"
   id="line109" /><g
   id="g111"
   transform="translate(8.0000004,0)">
					<g
   id="g113">
						<g
   id="g115">
							<text
   transform="translate(131.686,143.8291)"
   id="text117"><tspan
     x="0"
     y="0"
     style="font-size:9px;font-family:Helvetica"
     id="tspan119">x</tspan></text>





						</g>
					</g>
				</g><rect
   x="0"
   id="rect121"
   height="2.835"
   width="147.40199"
   style="fill:none"
   y="84.877998" />
	<path
   style="color:#000000;fill:none;stroke:#000000;stroke-width:1.00000005;stroke-linecap:butt;stroke-linejoin:miter;stroke-miterlimit:4;stroke-opacity:1;stroke-dasharray:none;stroke-dashoffset:0;marker:none;visibility:visible;display:inline;overflow:visible;enable-background:accumulate"
   d="m 10.86523,50.58252 70.850352,0 0,-8.375281 61.116918,0"
   id="path3104"
   inkscape:connector-curvature="0"
   transform="translate(0,-2.3853699e-6)" /><path
   inkscape:connector-curvature="0"
   id="path47-4"
   d="m 76.789338,135.25254 c 1.271646,-8.97917 1.710288,-11.2397 2.106035,-13.24241 0.395746,-2.0027 0.646201,-2.45465 0.812248,-2.90661 0.167431,-0.45195 0.563178,-1.09804 0.855145,-1.03358 0.291966,0.0645 0.604689,0.32304 0.834388,1.03358 0.229699,0.71054 0.583933,1.80858 0.834388,3.03628 0.250455,1.22771 0.480154,2.26053 0.834388,4.58628 0.354235,2.32574 0.271211,1.29216 1.250891,8.52722"
   style="fill:none;stroke:#000000;stroke-width:1.00000005;stroke-miterlimit:4;stroke-dasharray:none" /><path
   inkscape:connector-curvature="0"
   id="path49-1"
   d="m 84.333426,135.24799 c 1.271646,8.97918 1.708904,11.23971 2.106034,13.24241 0.395747,2.00271 0.646202,2.45466 0.813633,2.90661 0.167431,0.45196 0.563177,1.09804 0.855144,1.03358 0.291967,-0.0644 0.604689,-0.32304 0.834388,-1.03358 0.229699,-0.71053 0.583934,-1.80857 0.834389,-3.03628 0.250454,-1.22695 0.480153,-2.26053 0.834388,-4.58627 0.354234,-2.32575 0.271211,-1.29217 1.25089,-8.52723"
   style="fill:none;stroke:#000000;stroke-width:1.00000005;stroke-miterlimit:4;stroke-dasharray:none" /><path
   inkscape:connector-curvature="0"
   id="path53-7"
   d="m 91.758513,135.25254 c 1.271646,-8.97917 1.710288,-11.2397 2.106035,-13.24241 0.395746,-2.0027 0.646201,-2.45465 0.812248,-2.90661 0.167431,-0.45195 0.563178,-1.09804 0.855144,-1.03358 0.291967,0.0645 0.60469,0.32304 0.834389,1.03358 0.229699,0.71054 0.583933,1.80858 0.834388,3.03628 0.250455,1.22771 0.480154,2.26053 0.834388,4.58628 0.354235,2.32574 0.271211,1.29216 1.250891,8.52722"
   style="fill:none;stroke:#000000;stroke-width:1.00000005;stroke-miterlimit:4;stroke-dasharray:none" /><path
   inkscape:connector-curvature="0"
   id="path55-1"
   d="m 99.301217,135.24799 c 1.271643,8.97918 1.710293,11.23971 2.106033,13.24241 0.39575,2.00271 0.6462,2.45466 0.81363,2.90661 0.16605,0.45196 0.56318,1.09804 0.85515,1.03358 0.29196,-0.0644 0.60469,-0.32304 0.83439,-1.03358 0.2297,-0.71053 0.58393,-1.80857 0.83438,-3.03628 0.25046,-1.22695 0.47877,-2.26053 0.83439,-4.58627 0.35424,-2.32575 0.27121,-1.29217 1.25089,-8.52723"
   style="fill:none;stroke:#000000;stroke-width:1.00000005;stroke-miterlimit:4;stroke-dasharray:none" /><path
   inkscape:connector-curvature="0"
   id="path59-5"
   d="m 106.72769,135.25254 c 1.27164,-8.97917 1.71029,-11.2397 2.10603,-13.24241 0.39575,-2.0027 0.6462,-2.45465 0.81363,-2.90661 0.16605,-0.45195 0.56318,-1.09804 0.85515,-1.03358 0.29197,0.0645 0.60469,0.32304 0.83439,1.03358 0.2297,0.71054 0.58393,1.80858 0.83439,3.03628 0.25045,1.22771 0.48015,2.26053 0.83438,4.58628 0.35424,2.32574 0.27121,1.29216 1.25089,8.52722"
   style="fill:none;stroke:#000000;stroke-width:1.00000005;stroke-miterlimit:4;stroke-dasharray:none" /><path
   inkscape:connector-curvature="0"
   id="path61-5"
   d="m 114.27039,135.24799 c 1.27165,8.97918 1.70891,11.23971 2.10604,13.24241 0.39574,2.00271 0.6462,2.45466 0.81363,2.90661 0.16743,0.45196 0.56318,1.09804 0.85514,1.03358 0.29197,-0.0644 0.60469,-0.32304 0.83439,-1.03358 0.2297,-0.71053 0.58393,-1.80857 0.83439,-3.03628 0.25045,-1.22695 0.47877,-2.26053 0.83439,-4.58627 0.35423,-2.32575 0.27121,-1.29217 1.25089,-8.52723"
   style="fill:none;stroke:#000000;stroke-width:1.00000005;stroke-miterlimit:4;stroke-dasharray:none" /><path
   inkscape:connector-curvature="0"
   id="path65-3"
   d="m 121.69686,135.25254 c 1.27165,-8.97917 1.71029,-11.2397 2.10604,-13.24241 0.39574,-2.0027 0.6462,-2.45465 0.81363,-2.90661 0.16605,-0.45195 0.56318,-1.09804 0.85514,-1.03358 0.29197,0.0645 0.60469,0.32304 0.83439,1.03358 0.2297,0.71054 0.58394,1.80858 0.83439,3.03628 0.25046,1.22771 0.48015,2.26053 0.83439,4.58628 0.35423,2.32574 0.27121,1.29216 1.25089,8.52722"
   style="fill:none;stroke:#000000;stroke-width:1.00000005;stroke-miterlimit:4;stroke-dasharray:none" /><path
   inkscape:connector-curvature="0"
   id="path67-8"
   d="m 129.23957,135.24799 c 1.27164,8.97918 1.71029,11.23971 2.10603,13.24241 0.39575,2.00271 0.6462,2.45466 0.81363,2.90661 0.16743,0.45196 0.56318,1.09804 0.85515,1.03358 0.29196,-0.0644 0.60607,-0.32304 0.83439,-1.03358 0.22831,-0.71053 0.58393,-1.80857 0.83438,-3.03628 0.25046,-1.22695 0.48016,-2.26053 0.83439,-4.58627 0.35424,-2.32575 0.27121,-1.29217 1.25089,-8.52723"
   style="fill:none;stroke:#000000;stroke-width:1.00000005;stroke-miterlimit:4;stroke-dasharray:none" /><path
   inkscape:connector-curvature="0"
   id="path71-5"
   d="m 136.66604,135.25254 c 1.27164,-8.97917 1.7089,-11.2397 2.10603,-13.24241 0.39575,-2.0027 0.6462,-2.45465 0.81363,-2.90661 0.16744,-0.45195 0.56318,-1.09804 0.85515,-1.03358 0.29197,0.0645 0.60469,0.32304 0.83439,1.03358 0.2297,0.71054 0.58393,1.80858 0.83439,3.03628 0.25045,1.22771 0.48015,2.26053 0.83438,4.58628 0.35424,2.32574 0.27121,1.29216 1.25089,8.52722"
   style="fill:none;stroke:#000000;stroke-width:1.00000005;stroke-miterlimit:4;stroke-dasharray:none" /></svg>