<?xml version="1.0" encoding="iso-8859-1"?>
<!-- Generator: Adobe Illustrator 11 Build 196, SVG Export Plug-In . SVG Version: 6.0.0 Build 78)  -->
<!DOCTYPE svg PUBLIC "-//W3C//DTD SVG 1.0//EN"    "http://www.w3.org/TR/2001/REC-SVG-20010904/DTD/svg10.dtd" [
	<!ENTITY ns_flows "http://ns.adobe.com/Flows/1.0/">
	<!ENTITY ns_svg "http://www.w3.org/2000/svg">
	<!ENTITY ns_xlink "http://www.w3.org/1999/xlink">
]>
<svg
	 width="147.401" height="139.051" viewBox="0 0 147.401 139.051"
	 style="overflow:visible;enable-background:new 0 0 147.401 139.051" xml:space="preserve">
	<metadata>
<?xpacket begin='﻿' id='W5M0MpCehiHzreSzNTczkc9d'?><x:xmpmeta xmlns:x='adobe:ns:meta/' x:xmptk='XMP toolkit 3.0-29, framework 1.6'>
<rdf:RDF xmlns:rdf='http://www.w3.org/1999/02/22-rdf-syntax-ns#' xmlns:iX='http://ns.adobe.com/iX/1.0/'>

 <rdf:Description rdf:about=''
  xmlns:pdf='http://ns.adobe.com/pdf/1.3/'>
 </rdf:Description>

 <rdf:Description rdf:about=''
  xmlns:tiff='http://ns.adobe.com/tiff/1.0/'>
 </rdf:Description>

 <rdf:Description rdf:about=''
  xmlns:xap='http://ns.adobe.com/xap/1.0/'
  xmlns:xapGImg='http://ns.adobe.com/xap/1.0/g/img/'>
  <xap:CreateDate>2006-07-17T03:52:29Z</xap:CreateDate>
  <xap:ModifyDate>2006-07-17T03:52:29Z</xap:ModifyDate>
  <xap:CreatorTool>Illustrator</xap:CreatorTool>
  <xap:Thumbnails>
   <rdf:Alt>
    <rdf:li rdf:parseType='Resource'>
     <xapGImg:format>JPEG</xapGImg:format>
     <xapGImg:width>256</xapGImg:width>
     <xapGImg:height>244</xapGImg:height>
     <xapGImg:image>/9j/4AAQSkZJRgABAgEASABIAAD/7QAsUGhvdG9zaG9wIDMuMAA4QklNA+0AAAAAABAASAAAAAEA&#xA;AQBIAAAAAQAB/+4ADkFkb2JlAGTAAAAAAf/bAIQABgQEBAUEBgUFBgkGBQYJCwgGBggLDAoKCwoK&#xA;DBAMDAwMDAwQDA4PEA8ODBMTFBQTExwbGxscHx8fHx8fHx8fHwEHBwcNDA0YEBAYGhURFRofHx8f&#xA;Hx8fHx8fHx8fHx8fHx8fHx8fHx8fHx8fHx8fHx8fHx8fHx8fHx8fHx8fHx8f/8AAEQgA9AEAAwER&#xA;AAIRAQMRAf/EAaIAAAAHAQEBAQEAAAAAAAAAAAQFAwIGAQAHCAkKCwEAAgIDAQEBAQEAAAAAAAAA&#xA;AQACAwQFBgcICQoLEAACAQMDAgQCBgcDBAIGAnMBAgMRBAAFIRIxQVEGE2EicYEUMpGhBxWxQiPB&#xA;UtHhMxZi8CRygvElQzRTkqKyY3PCNUQnk6OzNhdUZHTD0uIIJoMJChgZhJRFRqS0VtNVKBry4/PE&#xA;1OT0ZXWFlaW1xdXl9WZ2hpamtsbW5vY3R1dnd4eXp7fH1+f3OEhYaHiImKi4yNjo+Ck5SVlpeYmZ&#xA;qbnJ2en5KjpKWmp6ipqqusra6voRAAICAQIDBQUEBQYECAMDbQEAAhEDBCESMUEFURNhIgZxgZEy&#xA;obHwFMHR4SNCFVJicvEzJDRDghaSUyWiY7LCB3PSNeJEgxdUkwgJChgZJjZFGidkdFU38qOzwygp&#xA;0+PzhJSktMTU5PRldYWVpbXF1eX1RlZmdoaWprbG1ub2R1dnd4eXp7fH1+f3OEhYaHiImKi4yNjo&#xA;+DlJWWl5iZmpucnZ6fkqOkpaanqKmqq6ytrq+v/aAAwDAQACEQMRAD8A65+clnq2i/o/8ydDaVr3&#xA;yvX9L2EZPG80iRgbqIqTx5RAeqjHpQ+2KvRdOv7PUdPttQspRNZ3kSXFtMv2XilUOjD2KkHFURir&#xA;sVdirsVSDXvP3kny/fW9hreu2Om3t1T0Le5njjcg1oxVj8KmlOR2xVPgQRUbg9DireKuxV2KuxV2&#xA;KuxV2KuxV2KuxV2KuxV2KuxV2KuxV2KuxV2KuxV2KuxV2KuxVSubaC6tpba4jWW3nRo5omFVZHHF&#xA;lI8CDirzb8iLibT9F1nyPduWu/JmpTafEXNXewlPr2Up9mifiPZcVenYq7FXYqxP80fOp8neTLzV&#xA;4IfrWpuUtNHshuZ725b04IwO/wAR5Efyg4qkXk/8lPLdn5bvIPNNtHr/AJh8wIX8y6pdgSSzSyAF&#xA;o45PtRxxkARhKUoD1xVQ/KPUdU0LVdV/LDXbhrq88vol1oF9KayXWiytwhLeLW7j0nPyA6Yq9QxV&#xA;2KuxV2KvO/M35q3i+ZJfKXknRW8zeY7UK2pn1RbWNgHFV+s3LBhzI3Eaip+e2KovyZ+ZM2qa/e+U&#xA;/MmmnQPNlkpnjsmkEsN3aV4rc2koCh1/mXqv0GirOcVdirsVdirsVQVjrWj6hLNFYX9vdy2543Ec&#xA;EqSNGfBwhJX6cVRuKuxV2KuxV2KuxV2KuxV2KuxV2KuxV2KvLtYB8tfnzo2pp8Gn+dtPl0q9ANE+&#xA;vaePrFtI/izwlolxV6jirsVdiryvWAPOH54abpH95o/kK2Gq6gOqNql6CllGw/miiDSqfHFXqmKv&#xA;Lfzqt59BuNB/MyxRjP5WuPS1hIxVptIvCI7lSBu3pEiRfDc4q9Ot54biCO4gdZYJlWSKRTVWRhVW&#xA;BHUEHFVTFXYqxD81POsvlHyjNe2UYuNcvZI9P0Gy2Jnv7k8IVCnrx3dh4A4qv/LLyLB5M8qW+mM/&#xA;1jVJ2a71vUDu9zfT/FPKzHc/FsvsBiqX/m55Kv8AXdHt9Z8v0h85+W5Pr/l+5GxZ0H7y1bxjuE+A&#xA;qdq0rtXFU78g+c9O85eU7DzBYjgt0lLi2b7cFwh4zQODQho3BHTcb9DirIcVdirRIAqdgOpxV42F&#xA;vPzm1u+T63cWn5VaXI1qotZGgfW7pDSUtIvxfVIyOI4kczvX+VVNvMH5DeVlsobvyPEnlHzRpq10&#xA;rVrEcAWG/p3abieN+jcwT8+hVTn8sPzAm8z2N1p2s2403zjobi18waVX7EtPhni61hmHxId/Cp6l&#xA;Vm2KuxV2KsJ/MH8zLXyvNZ6Np1m+uecNWqNI0C3YK706zTOfhhhWhq7eB8CQqko0D/nIW6hfUJfN&#xA;WjadfU5Q6HBpzT2dQahJLqR/X3GzFV+WKph5H/M641HWH8peb7AeX/O0CeoLHnztr2EV/wBIsZT/&#xA;AHi/CSU+0vvQ0VegYq7FXYqh7+/sdPs5r6/uI7Wzt0Mk9xMwSNEXcszNQADFXm8f52XWtu3+A/J+&#xA;q+aLRSQuqn09OsJKGh9K4uynOm/7OKpveefNdh/NHR/KTaK1ppWoW99N+lLl4Xa4a0WM/wCjpDNI&#xA;yIPUHIzKCa7LtXFUB+f2m3Uv5eTa5YJz1TypdW+v2JG1GsZA8u/h6BkrirPtM1G11PTbTUrRudpe&#xA;wx3Fu/8ANHKgdDt4q2KorFUNqWoWmm6ddajeP6VpZQyXFxIeixxKXdvoUYq8+/IbTrp/KVz5t1FO&#xA;GredLyXW7gHcpBMeNpEGoKokCqV/1jir0rFULqem2WqabdabfRiayvYZLe5iPR4pVKOv0qcVeffk&#xA;RqV3F5bvvJmpyF9X8lXkmkSltmktF+Oynp2V4CFX/VxV6XirsVeT6eg89/nRc6qx9Xy3+XwawsR1&#xA;SXWrhQbmTwP1aLim/Rtxir1jFXYq8lhH/KvfzhMH915S/MJy8XaO315B8Sj+X63Hv/lP8sVetYq7&#xA;FXl35uavqWuajYfld5enaHU9fQza9fRU5WOjqeM0ns8/93H9PTbFXoeiaNpuiaRZ6RpkC22n2ESQ&#xA;W0K9FRBQfM9yT1O+Ko7FXmn5reVdXtb2z/MXyjDz81aCpW8sk2/SemE1ntHA6uo+OI70PatKKsz8&#xA;peatG81+XrLX9Gm9awvow8Z6MjdHjcb8XRqqw8cVTjFWI/mR+YNp5O0iN44G1HX9Sf6roOixH99d&#xA;3TbKoHURqSDI/wCyPcgYqgvyz/L260IXXmHzJOup+edbpJq+pdViU0K2dtX7EEXQU+1Sp7AKs7xV&#xA;i3n/APL3RfOmlx294XtNSs29fR9ZtzxurK4FCssTih6qOS1o3zoQqx/8vPzF1ZtVk8jefI0sPOtk&#xA;tYLgfDbarbrsLq1Ow5EfbjHQ9huqqvScVSbzb5v8veUtEn1rX7xLOwg25Nu7ufsxxoPid27KMVec&#xA;ad5S8xfmjewa/wCfraTTfKMLibRPJTkq0vE/Dc6oB9pj1WHoB178lXrsMMUMSQwoscUahI40AVVV&#xA;RQKoGwAGKsP8weXtYu/zQ8oa3b2/PS9LtNWivrjmg9N7pbcQjgWDty9Jvsg0pvirLb2ztr2zns7p&#xA;BLbXMbwzxnoySKVZT8wcVec/kJeXNv5TvPKN9IX1HyZqFxo0jOfie3jb1LSWn8rQOoX/AFcVemYq&#xA;8y/Pi7ub3QdL8j2DlNQ8638WmF0+3HZIRNfTAV3CQpRvZsVej2lpbWdrDaWsYitreNYoIl+yqIAq&#xA;qPYAUxVWxV2KvKPOjDyT+bGh+dAfT0TzOE8veYj+ylxu+n3LeG4MTMdguKvV8VYh+annZvJ/k651&#xA;C1T19Zu2Sw0KzA5NPqFz8FugU9aN8RHgDiqt+WXkqLyZ5L07Qg/rXkambUrqpJnvJjzuJSx3NXJp&#xA;X9mgxVlOKuxVjn5g+SrHzn5UvNCunMDzASWV4n27e6iPKCdCKGqOOx3FR3xVJvyn893fmDSp9H18&#xA;C286+X2+p+YLIkBmdBRLqMbVinWjqwFK1Hhiqcef/PWkeSvLk+s6gTJIP3VhYpvNd3T7RW8KipZn&#xA;bwGw37Yqkn5S+StU0eyvvMfmYrL508zyC81qQbiBQKQWUfgkCfD867kUxVn+KuxV2KvJdb8t+afy&#xA;98z3fmvyRp7av5b1ZzN5m8pwUE63He9sFOxdh9uL9r6RwVRMn5+6JcQ+jonl3X9V1xxSPSBp08Dr&#xA;J0pNLKoijVT9tuRp74qivy98g69+mpvPXn14rrzjdqY7K0iPO20m1av+jW25Bdgf3kg69ASKllXo&#xA;+KuxV2Ksb88+QPL3nTTI7LV45EltpBPp+o2z+jd2k60Ky28w3RhQex7jFWJ2/l//AJyC0mP6jY+Z&#xA;tD1uzHwxX+r2VxHeKvQVFrIInZR+03XviqL8vflLM2uweZvPWsP5r8w2u+nrJEtvYWR2Nba1UsvP&#xA;b+8ap77HFXouKuxV2KuxV5ZeH/Cf582t39jSfP8AY/VLhv2RqumDlAzGm3qWzFFHcjFXqeKvK/LJ&#xA;Hm786td8x/3mkeTYP8P6U25U381JdQlXwaMcYT4jFXqmKuxV2KpH538o6Z5v8q6l5c1IUtdQiMfq&#xA;AVaOQENHKv8AlRuoYfLFXnflj857PyvZt5Z/NS4/QvmXR0Mf1+ZJWttTgj+FLu2kVTzLrTmvXl26&#xA;qqqr5Yh1L8yPPNp54v7SWz8m6Arr5SsrpDHLd3Uo4yajJE26oF+GHlv+0Kd1XreKuxV2KuxVhvnX&#xA;8rdB8039rrH1m80XzFYqY7TXdKl+r3QjJr6Tkh0kjJ/ZdT3pSpxVBeXvyc0TTtdh8w61qeo+atct&#xA;aiwu9ZmWZbWve2hRY4o22+1xrXpTFWf4q7FXYq7FXYq7FXYq7FXYq7FXYq7FXYq7FXYq7FXYqxT8&#xA;y/JA84+V5NOhuPqWrW0sd9omojrbX1ueUEooDtX4W/yScVYRN+Y/5t3uijy5Z+Sb6z89Ov1W51eZ&#xA;UXRIWpxa9juuTCRf21iAJ7Gv7SrP/wAv/Jln5N8p2Og20jXDwK0l5eP9u4uZWLzzOetXdj16Cg7Y&#xA;qyPFXYq7FXYqpy28EwUTRrIFPJQ6hqHxFcVVMVdirsVdirsVdirsVdirsVdirsVdirsVdirsVdir&#xA;sVdirsVdirsVdirsVdirsVdirsVdirsVdirsVdirsVdirsVdirsVdirsVdirsVdirsVdirsVdirs&#xA;VdirsVdirsVdirsVQ9/qFhp9pJeX9zFaWkIBluJ3WONQSAOTMQBUmmKojFXYq7FXYq7FXYq7FXYq&#xA;7FXYq7FXYq7FXYq7FXYq7FXYq7FXYq7FXYq7FXYq7FWFecPzf8j+U9T/AEXqtzM99HB9bu4bSCW6&#xA;a2tuQX1rj0lbgvxfOm9KYqyjRta0nW9Lt9V0i7ivtOul5291CwdGHTqO4OxB3B2OKo3FXYq7FXYq&#xA;8m80wp+YP5rWvlCSsnljyekWq+YYv2LjUJt7G1kHdUQGVgdj0OKvWcVdirsVdirsVdirsVdirsVd&#xA;irsVdiqW+YPMeheXdLl1XXL6HTtPh+3c3DhFqeiiu7Meyjc9sVSvyp+ZfkPzbJJF5d1u21C4ir6l&#xA;sjFJwB1b0ZAknH340xVk2KuxV2KuxVj3nvzvpHkzy9LrOpc5KMsFnZQjlPdXMppFBCn7TufuFT0G&#xA;KsGOpf8AORFnpyeZbix0i+QqZrvybCJEu44a1CQXdWSScJ9oFeJNeNdhirPfJXnLRvOPly117SHY&#xA;21xVXhlHGaGVDxkhlWp4ujbEfwxVPcVdirsVY/5983Wfk/yfqvmO7HNNPgLxw1p6szEJDEPeSRlX&#xA;6cVSL8ofJN1oOgSarroE3nHzG36Q8xXTj4/Vl+JbYVrxjt1PBVGw3pirH9Ks4/y2/NmLR7Nfq/kv&#xA;z0JJbK1G0FnrMC8pEjHREuYhUL/MKLsMVeu4q7FXYqhtS1C003TrrUbx/StLKGS4uJD0WOJS7t9C&#xA;jFXn/wCQun3TeTZfNWopw1bzleT65dA78YrhqWsak78FgVOI7VxVPfOl1+aFtPbzeT7DSdRs0Qm8&#xA;ttQnnguXeuywMitEBTu5xVLvJ35tWOsay/lrX9On8reb4xyGi3zKwnQft2dwtI7hdv2d+u22Ks9x&#xA;V2KuxVjHn/8AMHQ/JOkJfaj6lxdXMgt9M0u2X1Lq7uG2WKGPqTvueg+4FVh1j5B/MrzcP0t51806&#xA;h5c9YcrPy55bnFqLVT9kXF1xdriSh+IU416bbYqo32p/mF+Vrpfa3qE3nLyDXjeXrxKNW01Tss0h&#xA;j4rcwj9tqch16DdV6vY31lf2UF9Yzpc2dyiy29xEwdHRxVWVhsQRiqvirsVS7zD5g0ny9ol5rer3&#xA;C2um2EZmuZ27KNgAOpZiQqgbk7DFXmfkryje+fdXj/MTz1akwE8vJ/lm4FYrG1P2bmeI1V7mYUbe&#xA;vHb2Cqsn/MT8rND832ouoQNK802hE2keYrYcLq3nTdCzrRnj7MjdulDviq38rPPd75k0670vXoVs&#xA;vOXl+X6n5gsR9n1APguYfGGdfiU/MdKEqs4xV2KuxV5H5X/5CR+ZM/nGX955Q8pvJp/lZDX07m/+&#xA;zd34HRlj/u4jv4ihGKvXMVeSSgfl3+b0cifuvKX5hymOVBtHba8gqr+31xARt1cV6DFXreKuxV2K&#xA;vKfOo/xl+bPl/wAmL8ej+WVXzH5hp9l5wSmnWxI78yZWU7MuKvVsVYL+dHle71/yDenTajXdGZNY&#xA;0OVRV1vLE+qgUdy6ho/9lirIPJfmez80+U9J8xWlBDqdtHccAa8HYfvIyfGN6qfliqdYq7FXmf59&#xA;3lzceU7PyjYyFNR856hb6NGyH4kt5G9S7lp/KsCMG/1sVejWVnbWVnBZ2qCK2to0hgjHRUjUKqj5&#xA;AYqwu9/N7QLWW9mOn6hLoOm3n6P1LzHHHCbCC4VxHIH5TLcskch4vIkLID3pU4qm3nr8v/LvnXSR&#xA;YavEyzQt6un6jAfTurSYbrLBKPiRgQPY98VYb5c/MDX/AChrEHk38zJVLzN6Xl/ziFEdpqA/ZjuN&#xA;+MFyBtQmjfcWVerYqxX8wPzF0PyXpsc14Hu9UvW9DR9Gthzury4bZY4kAJpX7TEUHzoCqkX5e+Qt&#xA;bbVpPPXn307jzndqUs7RDzttJtG6W1t1HMg/vJB16A9Syr0fFVskccsbRyKHjcFXRgCrKRQgg9Qc&#xA;VeNwtJ+THmJbaQsfyr1y4pbSN8Q0S+mavBj1FpM3QnZD18WVeyqysoZSGVhVWG4IPcYq4kAVOwHU&#xA;4q8d5r+b3ndeIMv5a+UrnkzdYtX1WM7Adntrb7mbxB2Vex4q7FXln5s6Tf8AlzVbL81NAgaW+0VP&#xA;q/mWxi2N7o7Gsu2wMlv/AHiV8N+gGKvSNJ1XT9X0u11TTZ1ubC9iSe1nT7LxyDkp39jiqLxV5z+d&#xA;HmPU4dJs/J3l2Tj5q84SnT7Bhube2pW8u2puFihruNwTUdMVZl5Y8uaZ5a8vafoOlx+lYadCsEC9&#xA;yFG7N4s7VZj3JxVNMVYt+ZvkqLzn5L1HQi/o3kiibTbqpBgvITzt5Qw3FHArT9moxVR/KnznJ5t8&#xA;k2Wo3a+lrFsWsNctiAGh1C1Pp3CMo+zVhzA/lYYqy/FUNqWo2em6ddajeyiGzs4nuLmZtgkcSl3Y&#xA;/JRirz38itPu7jQNR87anEYtW87Xj6q6P9qOzH7uwhr3VIAGX/WxV6XirsVeWflDTy55m84fl4/w&#xA;W+mXn6X0JNgv6O1Osnpxgfswz81PzxV6nirsVeXS/wDOx/8AOQcMYq9j5E0hpXPZNR1c8VB/6NEq&#xA;Pnir1HFXguoebPI/nB9T8tTa/oXlDyHb300OoWP1q1t9R1SWGfnMfTZoxa28swJLUaSXc/CDir3k&#xA;UoOPTtTpTFUv1/y9onmHSp9J1uyiv9OuRxmtpl5KfAjurDqGG47YqwCD8m/MWkILTyv+YOs6VpQ2&#xA;jsLlbfUViT+SGS4Tmij9nc0xVOvJv5TeXfLepy65PcXeveZp14Sa9q0v1i5CH/dcWypEnaiL02ri&#xA;rNsVdirsVQmraVp2r6ZdaXqVul1YXsbQ3VvIKq8bijA4q8s0uw/ND8sVOk6Xpr+ePJMZP6MRJ44d&#xA;V0+LqIGEtFuY16JQ8h7AAYq7V/8AlbH5kRton6Kl8h+Up/h1TULmaKXVbmE/agt4oSywcxszOenS&#xA;u6lV6hoeiaVoWkWmj6TbJaabZRiK2t4/sqo+e5JO5J3J3OKo7FXYqtdEdGR1DIwIZSKgg9QRirxz&#xA;Q7+L8oPNj+VtVcw/l9r87T+V9Sk2g0+7lYtNp0znZI2b44mNB16/EVVeoeZPNOgeWtFn1vW72Ky0&#xA;23Xk88jCjGlQqDq7t+yq7ntirBfys0PV9a1rUPzN8zWr2mqawgtdA0yavOw0lTyjVlP2ZZ2/eSfw&#xA;qRir0/FXYq7FXksgPkH86Vl/u/K/5i0jkPSODXYF+A+C/W49vFn+WKvWsVeV/nVdza9daH+V+nyM&#xA;tz5pmEusyRGjQaPasJLhif2fVKiNfHcYq9Qt7eC2t4ra3jWKCFFjhiQUVUQUVVA6AAYqqYq7FXln&#xA;5oU8s/mB5N8/L8Fo0zeXNfk7fVL88raRz0CQ3IqT/lYq9TxVSurm3tbaa6uJBFbwI0s0rbKqIOTM&#xA;fYAYq83/ACGt7i98var51vEZL3znqU+pqr/bSzVvRsov9VYY+S+zYq9NxV2KuxV2KuxV2KuxV2Ku&#xA;xV2KuxV2KuxV2KuxV2KoLWNF0nWtOm03V7OG/sLgcZrW4RZI2HaqsDuOx7YqwvRvyD/KjSNSg1C1&#xA;0QSTWjcrKO6nuLqGA9axQzySRrvv9nbtir0HFXYq7FXYqxz8wPJVh5z8rXehXcjW7y8ZbK9j/vLa&#xA;6iPOGdKEGqOOxFRUV3xVg+nfmv510Cw/Qvm/ybrGoeZ7UejDeaNam6sNRK7JKkykCEuPikDgcev+&#xA;SFU5/LLydr8Opan5484qi+b9eVYvqcbB4tOsIjWGyjcfaNfjlYbM3yqVXoWKuxV2Ksf8/wDlK283&#xA;eTNX8uXFFXUbd44pD/uuYfHDJ/sJVVvoxVK/yg823HmfyHp93f1XW7LnpuuQv/eR39mfSmDjszEC&#xA;Sng2KpT+e+qXZ8qW3lHS3K6150uo9GteO7Jbymt5MV68I7cMGPbkMVegaXptppemWmmWSenZ2MMd&#xA;tbR/yxQoERfoVRiqKxV2KuxV2KuxV2KuxV2KuxV2KuxV2KuxV2KuxV2KuxV2KuxV2KuxV2KuxV2K&#xA;uxV2KuxV2KuxV5hrnlDzp5Y853nm/wAg29vqVvrYX/EXli6n+qrLPGKJd205V0jlI2k5Cjddz0VV&#xA;/JXkzzZe+b5/PvnsQRawITZ6Dodq5mg021c1kJlIAkuJejuo6bA0PFVXpGKuxV2KuxV2KuxV2Kux&#xA;V2KuxV2KuxV2KuxV2KuxV2KuxV2KuxV2KuxV2KuxV2KuxV2KuxV2KuxV2KuxV2KuxV2KsJ/MD8yh&#xA;5bu7PQ9H0yXzD5v1NS+n6JbsI6RKaNcXEzArDCp25N1P0kKpNo/5p+atM16y0X8yPL8Xl79LMItJ&#xA;1i1uBc2MtywBFrI1AYZT0XkaMQaYq9PxV2KuxV2KrJpooYnmmdY4o1LySOQqqqipZidgAMVeSf8A&#xA;K3vzC1uOfW/I/kr9M+ULVmEV9cXS2tzfrGxWR7KBlJ4qVPHlu3YV2xV6F5L846L5w8uWmvaPIXtb&#xA;kEPE44ywyqaSQyr+y6NsR9I2IOKp5irsVdiqE1XVLDSdMutT1GZbawsonnup3+ykcalmY/QMVeSf&#xA;8rw87R6fH5wufJEsH5cyMpOotcKdRS0ZgBfPZgE+kQa8Qa0+KvHfFXsFneWl7aQXlnMlxaXMay28&#xA;8ZDI8bjkrKw2IINRiqtirsVdirzDzF+anmyfzFqOi/l/5aXzK3l+g167muVtYVmI5Czt2YH1Jqfa&#xA;7L0O+Ksw8jedNJ85eWrXXtM5JFPySe2lHGa3njPGWCVf2XRtvxGxxVP8Vdiq13REZ3YKiglmJoAB&#xA;1JOKvGn/AD81nk3maLyw7/lcl59RfzL6wE5X1PRN8ttSpthJ8Pj36/Dir2WOSOWNZI2DxuAyOpBV&#xA;lIqCCOoOKrsVdirzzz1+ZOv6f5jh8p+S9EXzD5m+rHUL6KWYW9vbWgJVfUlP+7JXHFE+k7Yqn/5f&#xA;ed7Dzp5Yg1u1he0lLPb3+ny/3trdQtxmgk2XdG9hUUNMVZJirsVQWtavYaLpF7q+oSejY6fBJc3M&#xA;n8scSl2oO5oNhirAPyX0S+vLe/8AzF16Mr5g84MLiKJ9zaaWv+8VqngPTo70+0SK7jFWY+dPKOke&#xA;b/LN/wCXtWj52l9GU5gAvHIN45Ur0eNqMMVYz+TPmvVdV0K80DzC/LzX5TuDpesk9Zggrb3e+/Ge&#xA;LevcgnFXoOKuxV2KvMPzpvbzWG0X8tdLmaG983TMuqTp9qDSLYc7x69mkFI1r9qpGKvR9PsLPTrC&#xA;2sLGFbeztIkgtoEFFSONQqKvsFFMVeX+mvkD85YxFSLyx+YhfnHsI4NdgXlyHYfW4+3VnxV6xirs&#xA;Vdiryv8ANx380eZvLf5Ywsfq2qyHVvMoU0ppVi4YRtTcC4nCpX2xV6dNZ2s9pJZzQpJaSxmGSBlB&#xA;Ro2XiUK9OJXamKvM/wAmppvL+p+Y/wAs7tyw8tXAudBdzVn0i+JkhUE7sYH5Rse2wxV6lirsVY7+&#xA;YXmyHyj5J1nzHKAf0dbPJCh6PO3wQJ/s5WVfpxVLvyh8nzeVfIen2N5VtZuw2oa5M325L+7Pqzl/&#xA;EqTwr4KMVY7oyHyd+eGoaOv7vRPPts2q2EfRE1WyAW8VAO8sJWVz4jFXquKuxV55+eus39n5Ck0j&#xA;S24a15puYNA0xulJL9uEjEjccYQ5qOmKsng8naFF5NXyh6AbRFsf0a0Gw5Qel6Rr/lEb18d8VYn+&#xA;Q+p3reTZ/LWpSepqvk6+n0G5kOxkjtSPq0gH8rQMgHjTFXpGKrXdERndgqKCWYmgAHUk4q8w/IuJ&#xA;tXtPMP5g3CH6x5w1KWazZvtLptmTbWUZ+Sox964qt0Jf8LfnprWjj93pfnWyXWrJaUQahZn0bxE/&#xA;ypIysrYq9TxV2KvK/wA3XfzR5j8uflhbsTDq0n6W8zFT9jSbFwfTam4FzOFjB9sVepIiIioihUUA&#xA;KoFAAOgAxVdirynzui+TfzW8vedohw0vzGV8ueZKfZEkh5afcsOnwupjZj0WmKvVsVdirsVeV/lW&#xA;v+KfOvmr8x5fjtZZToHlpzuP0fYP++ljP8k9zVv9jir1TFWF/nD5TuPM3kHULWxqutWPHUtDmT+8&#xA;jv7M+rCUPZmKmOvg2Kpp5B812/m3yZo/mOABV1K2SWSMbhJh8E0f+wlVl+jFWQYq7FXlf5P08yeZ&#xA;fN/5iyUeDVLz9E6C/Ufo3TSYuaH+Wefk59xir1TFXln5oqPLfn3yZ5/j+CAXB8ua8w2BstRNYHdu&#xA;yQXIDf7LFXqeKuxV5b+ao/xF538keRFHO2mvG17WkpVfqemCsSSD+Sa4ZV+jFXqWKvMvz9tJ7byn&#xA;ZecLJC+o+TNQttXiCj4nt0cR3UVeyvC5Lf6uKvSLW6t7u1hurZxLb3CLLDKvRkcBlYfMHFVXFXl2&#xA;tf8AOx/n3oembtY+TdMm1e5HVDe37fVrdGH8yRK0i/PFXqOKvL7b/nXP+cgbqAfBYeeNIW5Qdm1H&#xA;SW9Nwo97WQMe+2KvUMVYH+eWu3Gj/lfrbWdTqWoxrpenxrs7T6g4tl4f5SiQt9GKsn8raDbeXvLW&#xA;l6FbU9DTLWG1Qj9r0kCFj7sRU4qwT88x+iIvKvnpPhbyrrMD3kvhp+oH6ndj6fUTFXqGKuxVR+p2&#xA;n1v656Ef1sp6RuOK+p6deXDnTlxrvTFVbFXYqx/z95StfN3k7VvLlyQq6jbvHFKf91zD4opNv5JA&#xA;rYqlP5PebrvzN5Gs5tSquvaaz6Xr0L/bS+sz6cvP3egf/ZYqzbFWA/nb5kvdI8jTWGlGvmDzJNHo&#xA;eiRjYm4vj6Zev7Ppx835dAQMVZR5T8uWPlry1pmgWIpa6bbx26NShcoPikan7TtVm9ziqbYq7FXl&#xA;f5bV8r/mP5u8hyfBZXTjzL5eXt9Xuz6d3EvgsVwoCqOxxV6pirBPzs8y3eh/l9fR6bvrmtMmjaLE&#xA;po7Xd+fRTgf5kUs/+xxVkfk/y3aeWPK2l+X7Shg0y2jtw4FObIvxyEeLvVj7nFU4xVjX5keU182+&#xA;Rda8vdJb+2dbZq043CfvIGr/AJMqqcVQ35UebX82fl7outTn/TpYBDqKHZlu7cmG4DL1WsiE0PY4&#xA;qy7FXlv5Xn/Efn7zv54c87UXS+XdEY9BbacK3Dxnuk1wxb/Y4q9SxVDalp9rqWnXWnXaepaXsMlv&#xA;cJ/NHKpRx9KnFWAfkHqF23kP/D+oNy1TyjeXGgXh8fqT0hYD+UwMlMVejkhQSTQDck9AMVeYfkXX&#xA;WLXzN57kqzebNXnlsnNa/o+x/wBEtAa+AjY/Tir1DFXl/wCebNpEHlfzxGeA8razBJfSeGn33+iX&#xA;Q+6RcVeoYq8v/MVv05+aXkHyoh5Q2c8/mXUkH7KWKGK0LDwaeWn0Yq9QxVj/AOYHlseZvJGuaDQG&#xA;TULKaGAnosxQmFv9jIFbFUv/ACh8yHzH+WXlzVnYtcS2UcV2T1+sW/7ietf+LY2xVI/zjlk1DVvI&#xA;vlKCRkl1nXIru5VSQWstKQ3VwNt+vp4qwnzzo2m6V5e/xHbD9NaldaxHqN1+Z1t6Bj0+AX/GSEGG&#xA;ae7aK3hj9AxRoY/GhqMVfQIIYBlNQdwR0IxVvFXYq8nuHbyF+c63LUi8rfmHwglbpHBrsCkRk9l+&#xA;tRDjt9p+vTFXrGKvJ/L8i+fvzdu/MifvfLHkdZdL0aStY59VmA+uXCeIhjpED3JqDir1jFXYq7FX&#xA;mH512tzo50L8x9PjaS68oXJbU4kBLS6TdUivFoOpQUkWvShOKvSbO7tb20gvLSVZ7W5jWa3mQ1V4&#xA;5FDIynuCDUYq8vLL54/OxPTPq+Xvy7jb1G6xy63eLx4/yt9WhFa9Uc4q9WxV2KuxV5X5KY+Uvzc8&#xA;zeT5fg0zzKD5l0Guy+s5EeoQqT+16gEgUdF3xVkX5t+b5vK3kW/vbIF9avOOnaFbp9uXULs+lbqg&#xA;2qVY86eCnFUw/LzylB5R8k6P5diIY6fbqk8g6PO3xzyf7OVmbFWRYq7FXlcDDyn+fVxA37vSfzAs&#xA;VnhJ+z+ldMHGRB4epbEN/lHFU0/PLzFdaV5ButP00117zJImh6NEDRmuL4+kWBG44Rlmr2pirLPL&#xA;GgWfl7y5pmhWYpa6ZbRWsRpSoiQLyPuxFT74qmmKpL5z8t2/mfynq/l+4oI9TtJbYOf2HdCEf/YP&#xA;RvoxVIPyV8y3Gv8A5b6RNe1XVrBG0zVo2+2l3YsYJOf+U3AP/ssVSb8sHHmT8wvO3nnZ7JZ4/Lui&#xA;S062+n1a5dG/aSW4eoI8MVepYq7FXl35Q/7g/NHnryO9UTT9T/S+lofs/UtWX1gkfisUqup9zirt&#xA;Hp5k/PvWdSA5WHkzTItJt2O6m+vz9YndD4pCqxt88VTa5/KDQp4bjTjqWox+Wru6a+uvLMckC2Ly&#xA;ySerItfR+tLE8nxtGs4SvbfFWd4q7FXYqkXnXydo/nDy3d6Dqyt9WuQCk0R4ywyoeUc0TfsujCo/&#xA;pirzubyt/wA5E3VifK115i0hdHesM/mqGOdNXe1ICnjCP3KTkV+IN7g13xV6X5V8r6N5W8v2OgaN&#xA;D6GnWEYihTqx7s7naruxLMe5OKptirsVdiqldWttd2s1pdRrNbXCNFPC4qro4KsrA9QQaHFXj9t5&#xA;C/OvyrZz+VvJOs6XJ5VlZxpV7qgna/0uFySYowgZJwlf3Zf6aDFXofkHyRpfkvy1b6Jp7NMULTXt&#xA;7LvLc3Uu81xKSTVnb32FB2xVkWKuxV2KsN/MryFP5os7C80m8Gl+adBn+u6BqZHJUlI4vFMo3aGZ&#xA;fhkH6+hVSDy/5E8/635vsPNH5k3GnMdCVhoWi6T6zWy3Mg4veTGccmkp/dj9nr1rVV6jirsVdirE&#xA;vzL8iHzfoMUFpdfo3XdMuI9Q0LVAORt7yHdGI/aRgSrr4HpsMVY55W8jeftV832fmz8yZ9Oe50OF&#xA;oNB0vSvVa2jmmAWe8kMwDGVgOKjoo98VeoYq7FXYq8h8yfl1+Zuma/rtx+XOpafZaX5uPqatDfiU&#xA;SWV46+nLe2fpAgvIm5Dft0PyVeieTfKmm+U/K+m+XdNB+qadCIlc0DSN9qSVqftSOSze5xVOsVdi&#xA;rzv8wfJPm6TzNp3nXyJPZQ+ZrS2k029ttS9QWt3ZSnmqyGIc+UMvxrSmKpt+WHkeXyh5Z+pXtyL/&#xA;AFy+uJtQ13UgKfWL65blK+4Gw2RdhsOmKsuxV2KuxV2KuxV2KuxV2KuxV2KuxV2KuxV2KuxV2Kux&#xA;V2KuxV2KuxV2KuxV2KuxV2KuxV2KuxV2KuxV2KuxV2KuxV2KuxV2KuxV2KuxV2KuxV2KuxV2KuxV&#xA;2KuxV2KuxV2KuxV2KuxV2KuxV2KuxV2KuxV2KuxV2KoTVdTstK0u81S+kEVlYwyXNzKeixRKXdvo&#xA;VcVeBprP5m6X5es/zov9Zu3068ukudT8oPRrSDQrmURwtCgH9/HGySFxu3foeSr6EiljliSWJg8c&#xA;ihkdTUFSKgg++Kr8VaJAFTsB1OKvCol/Mn8xY9b88+WvMd3o9jp88sPkjSYSotL5bIlJJrxSKSpc&#xA;yqyLX7P0Yq9T/LvzhB5x8l6V5iiQRPfQ1ubcV/dXEZMc8W+/wSqw3xVkeKuxV53+bPmjXoZdG8l+&#xA;VZhb+aPNUrxRX1OQsrKBed1d06clTZAerHbcYqk2iyeZ/wAuPPOk+Xta1678x+VfNPODTtS1RxJd&#xA;2mqRrz9B5duUVwoPpjs23iWVeu4q7FXYq85/NPzR5hOo6T5D8oTC28zeYeck+oleX6P02Lae64nb&#xA;mT8Ef+V70xVI7ceavys8z6NBq3mK+8y+SvMU66fNd6q4lurDUZQTC/rUBME7ApxOyePiq9ixV2Ku&#xA;xVDajqFnpun3OoX0qwWdnE89zM32UjjUs7H5KMVeO6LoX5g/mfbS+cLjzRqnk/SrslvKmkacyxlb&#xA;ZTSO5vgR++M32/TrSlKNTFWX/lb5z1vVV1Xy35pWNPOHlmZbfU2iHCO5hkXlb3sS9lmQVIHQ9h0x&#xA;VnmKuxV2KrJZYoonlldY4o1LSSMQqqqipJJ2AAxV41p8fnD83ru61m28waj5V8gQyPb6ENJcW99q&#xA;BiYq95JMVYpEXWiLTcdadSqnHk7zH5p8secovy986X36W+vwvc+VfMboI5LtIRWa1uFX4fXhX4uQ&#xA;+0u53xV6hirsVdirsVeZ/n9cTXPlCx8qWzFbvzhqlnoysv2khkkElxJt+yIomDexxVnGs+XdO1Ty&#xA;ze+XZEEWn3lnJYGNQKJFJGYvhH+Sp2xVif5Ea1dal+WOkwX5/wBymi+po2ooTUrNpzm3ox7koit9&#xA;OKvQMVYJ+d/mG60T8tNXax5HVdSVNK0tENHNzfsLdOB/mUOX+jFWSeUfLtp5a8r6VoFoB6GmWsVs&#xA;rAU5GNQGc+7tVj88VYL+WQ/w9+YvnnyUfgtZLiPzJo6/8U6iONyqjskdxHQU8cVeo4q7FXln5dKP&#xA;Mv5oedPO0nx2unyL5X0N9qCKzIlvWXxD3L7N7UxVOPzt8t3Ouflzqf1AEaxpPDV9HlXd0u7BvWQp&#xA;/lMqsn+yxVkflDzHa+ZfK2k6/a0EOp2sVyEBrwMiAsh90aqn5YqnGKtEgCp2A6nFXlv5PL/iTXvN&#xA;P5kzDnHrN2dM8vudwNK05jEGTwE84d2HiMVZf+Y3lCHzh5I1fy7IQsl9bsLWU/7ruU/eQSV6/BKq&#xA;nbFUH+Ufm6bzX+X+k6rdVXU1jNpq0bbOl7asYZwy/s8nTkB4EYqzDFXYq8t/OeaXzBf+Xfy0tHYP&#xA;5lufrGuMhoU0iyIluASKFfWcLGp77jFXp8MMUEMcMKLHDEoSONQAqqooFAHQAYq8t/M8Hyn578sf&#xA;mLCfTsXkXy/5nI2X6leP/o07nwguKEn3pir1XFXYq7FXmX526he6ja6R+XmkymPVPOVwba7kQ/FB&#xA;pUI5381dwKx/uxX7XIgb4q9D0zTbHS9OtdNsIVt7GyiS3tYE+ykcahUUfIDFWHfnL5PvfMfk55tI&#xA;Pp+ZdClTV/L86j4hd2nxiMeIlWqU6VIr0xVPvI3myx83eUdK8x2W0OowLK0damOQfDLEfeORWU/L&#xA;FU9xV2KuxVgXmDy1rer/AJveVdSktiPLvl2xvrpbsuhV9QuuNusRj5c6pFVwxXj71xVnuKvL/wAv&#xA;Suh/mv5/8rGqQ6hLbeZtPQ7chep6N449hcRDpir1DFXl35gt+nPza8g+VQOdvpz3PmbUV/l+pp6N&#xA;k3/SRKeuKvUcVeX/AJhEaD+a/kHzSoKw6lJceWNRcftLeL61mtfa4iJxV6hirHvzC81ReU/JOteY&#xA;pKV061klhU7hpiOMKn/WkZRiqXfk/wCV5fLH5baDpNypW/W2FxqHP7f1q6Jnn5nqSskhWp8MVZiQ&#xA;CKHcHqMVeXfkiTok/mv8vpAU/wAL6m8umRnoNM1Kt1a8fHiWcHwxV6lirBPzt8yXOhflzqZsKtrG&#xA;rcNI0iNPttd359BOH+UoZnHyxVkflDy5a+WvK2k6Ba0MOmWsVsHApzMaAM593arH54qnGKvLPJJP&#xA;lj84fNvlNhxsPMKJ5p0kbBRLIRb36e7NKqvTwxV6nirsVeWflgR5o8/+b/zAYc7MSr5d8vOa/wC8&#xA;lgeVzIn+RNcsSP8AVxV6niqR+d/K9p5r8o6t5du6CHU7aSAORXg5FY5APGNwrD5Yqkf5M+arvzF5&#xA;Bsn1IMuuaUz6TrkT/bS9sj6UnP8AynAWT/ZYqzjFXYq8q/LMr5u/MDzR+Yj1k0+Fv8O+WHPQ2to3&#xA;K7nTxWa4+y3WikYq9VxV2KvKfy//AOdP/M7zJ5EkBj0rWC3mPyz/ACATELf26noPTmoyoP2STir1&#xA;bFXYqk/mjzXonljTU1HWJjDbSXENpHwRpHaa4kEcaqiBmY1Ndh0xVOMVdiry78xCNA/NXyH5trwt&#xA;b+Sfyxqj+K3o9WyBPYC4jP34q9RxV5f+XB/T/wCZ3nzzefjtrWeHy1pbnsmnrzu+J7q1xJt8sVeo&#xA;YqwH889BudX/ACx1g2NRqelKmraa6irLPp7i4HEeLKjL9OKsq8sa9aeYfLmma5aGttqdrDdRjwEq&#xA;BuJ91rQ4qwL85v8Ac5q/kzyElHXXdUW91SM7g6fpQ+szK3gHkCKK4q9RxV2KvLfNZ/wx+dfljzH9&#xA;jTfNVvJ5b1JuiC6Qm5sGI7vIQ8Y9sVepYq8t80/87N+dvljy8Pj0/wAqW0vmLUlpVDdSf6NYofB0&#xA;JeQe2KvUsVdiry787FfQrjyx+YsCsT5WvxHqxQVJ0rUKW90SAPi9MlGXw3OKvT0dJEWSNg6OAyOp&#xA;qCDuCCMVYd+b/my48sfl9qmoWQL6tcItjpES/be9u2EMIUdyrPz+QxVMvy/8qQeUvJWjeXIaH9HW&#xA;qRTOuweY/HNJ/s5WZvpxVkOKuxV5VYn/AAb+ed3Yt8Gi/mFb/XLM/spq+nrxuIx4etARJU9WFBir&#xA;1XFWDfnN5qvPL/kW6XS/i8wa1JHo+hRKaO15en0kKU7xqWk/2OKp75J8rWXlPylpXlyyp6GmW6Qc&#xA;wKc3ArJIR4ySFmPzxVPMVdirzX879L1CDSNM88aNE02t+SroaikSfbmsWHp39v8AJ4PiP+rtirPt&#xA;G1aw1jSbPVtPlE1jfwx3FtKP2o5VDKfuOKozFXlOpV87/nVZ6av7zy9+X6LqF8f2JNZulItY/A/V&#xA;4ayVHRjQ4qw3zt+Y3lrX/NXlzVn8zWFvpOj+ZLW3s9MN5Ckhji9UXWoXkRcMiB1CRcwOK1b9sUVf&#xA;Q4IIqNwehxVh/wCbnlO580/l9q2l2RK6osa3elOtAy3lowngoTWnJ04/I4qlLfnBpn/Kl2/MEFfW&#xA;FjX6oeo1KnpfVSuzV+s/D8t8VTf8o/Kdx5V/L3SNKvCW1MxG61V23Zry6Yzz8j34u5WvgMVZhirT&#xA;KrKVYBlYUZTuCD2OKvK/yWnby9qHmH8sbxisvly6e70MPWsuj3rmWAqT9v0Xdo3PY0GKu8gSr5v/&#xA;ADU80eeFIl0nSI18s6BKN1k9JvWvpk7EGZlRXXqBir1XFXYqw782/KFz5r8iahp1g3p6zBwvtFnB&#xA;AaO+tGEsBUnYcmXgT4E4q35K/MfRtf8Ay+h83XUqWUVvbu2txyfD9UuLZf8ASopAfiX02BpXcrQ9&#xA;8VSL8j7K8v7DWfP+pQtBqPnW8+uwRSCjxabADDp8Tf8APIc6jqGxV6birsVQGu6LYa5ot9o2oJ6l&#xA;jqMEltcp3KSqVangd9jirAvyS8wXqaXd+Qtek/52fya4sZuezXNiP947tAeqPFxXuajf7QxVB380&#xA;Xn785LHT7ZxP5c/L0/XtRkX4o5damBS2hr0JtU5OSD8LfCcVesYq7FXYqwj83vJt/wCZ/KddGf0f&#xA;Mui3EWreX59tr21JZENaCkq8kNdt6npiqZfl55407zp5XttZtB6NxvBqVi1RJa3kVBPbyKfiBRul&#xA;RuKHvirCtGuI/wAxPzZk1yI+v5S8i+pZ6XMN4rrWJhS4mQ9HW3j+BT/MeSnFXrWKuxV2KrZI45Y2&#xA;jkUPG4KujAFWUihBB6g4q8k/Lu7/AOVeebrj8r9Udk0e9eW+8iXklSr27kvPp5c/7st3JKg7sp7V&#xA;UYqzH8y/Ptp5L8sy6gU+tatckWuh6Wm8t3ey/DFEij4iORBanQe9MVUvyp8l3PlPylHbajL9Z8wa&#xA;jLJqXmC82Jmv7o85jUbEJsi+y4qnPmLyxYa82lNeSSxnSNQh1S29EqOU1uGVVfkr1Q+oagUPviqc&#xA;Yq7FXn4/I3yAPNx8y/V7gym6Oo/oozsdO+vkf71/Vfs+r3r0rvTFXoGKuxV2KsN8+/lT5X863Fpd&#xA;6k93ZajZJJDDqOnTta3HoSj95C7qDyjbwI8adTVVkHl3y9o/lzRbTRNGtltNNsYxHbwJ0A6kkndm&#xA;YklmO5O5xVMsVdirsVec63+Qn5faz5hudZuortFv5kutU0qG5ePT7yeM1WW4tx8Lt47ivfqaqvRI&#xA;444o1jjUJGgCoigBVUCgAA6AYquxV2KuxVhvnj8qfLHm++tdTvJLzTtZs42gh1bS7hrS69B68oWk&#xA;UHkhJJoRtvTqaqpv5Q8neXfKGhxaLoFqLWxjYyMKl5JJX+3LK7VZ3am5Py6ADFU7xV2KuxV2KvOv&#xA;M/5E+R/MGtXWsO9/pdzqKhdWj0u7e0hvQCD/AKTGmz8qfERSvXrvirNtC0LSNB0m10jR7WOy02zQ&#xA;R21tEKKqjfvUkk7liak7nfFUfirsVdirsVSHzl5I8tectGbSPMFoLq15rLEwYxyxSr9mSKRSGRh4&#xA;g+x2xVIfKX5L+TvLesrrgkvtZ1uJBDaalrF097NbxBePCHlRUHHatK02rTFWeYq7FXYq7FXYq7FX&#xA;Yq7FXYq7FXYq7FXYq7FXYq7FXYq7FXYq7FXYq7FXYq7FXYq7FXYq7FXYq7FXYq7FXYq//9k=</xapGImg:image>
    </rdf:li>
   </rdf:Alt>
  </xap:Thumbnails>
 </rdf:Description>

 <rdf:Description rdf:about=''
  xmlns:dc='http://purl.org/dc/elements/1.1/'>
  <dc:format>image/svg+xml</dc:format>
 </rdf:Description>

</rdf:RDF>
</x:xmpmeta>
                                                                                                                                                                                                                                                                                                                                                                                                                                                                                                                                                                                                                                                                                                                                                                                                                                                                                                                                                                                                                                                                                                                                                                                                                                                                                                                                                                                                                                                                                                                                                                                                                                                                                                                                                                                                                                                                                                                                                                                                                                                                                                                                <?xpacket end='w'?>
			</metadata>
		<g id="Layer_1">
			<g>
				<g>
					<path style="fill:none;stroke:#000000;" d="M2.111,87.739c2.64-6.015,3.548-7.529,4.371-8.871s1.341-1.645,1.688-1.947
						c0.346-0.303,1.168-0.736,1.774-0.692c0.605,0.043,1.255,0.216,1.73,0.692c0.476,0.476,1.212,1.211,1.731,2.034
						c0.519,0.822,0.995,1.515,1.73,3.072c0.736,1.558,0.562,0.866,2.597,5.712"/>
					<path style="fill:none;stroke:#000000;" d="M17.799,87.737c2.508,6.015,3.371,7.529,4.152,8.871
						c0.781,1.341,1.274,1.644,1.603,1.947c0.329,0.303,1.11,0.735,1.686,0.692c0.576-0.043,1.192-0.216,1.645-0.692
						c0.452-0.476,1.151-1.212,1.644-2.034c0.494-0.822,0.946-1.514,1.645-3.072c0.699-1.558,0.535-0.865,2.466-5.712"/>
					<path style="fill:none;stroke:#000000;" d="M32.716,87.739c2.382-6.015,3.202-7.529,3.944-8.871s1.21-1.645,1.523-1.947
						c0.312-0.303,1.055-0.736,1.601-0.692c0.547,0.043,1.133,0.216,1.562,0.692s1.093,1.211,1.562,2.034s0.898,1.515,1.562,3.072
						c0.664,1.558,0.508,0.866,2.343,5.712"/>
					<path style="fill:none;stroke:#000000;" d="M46.882,87.737c2.263,6.015,3.042,7.529,3.747,8.871
						c0.705,1.341,1.15,1.644,1.447,1.947c0.296,0.303,1.001,0.735,1.521,0.692c0.52-0.043,1.076-0.216,1.484-0.692
						s1.039-1.212,1.484-2.034c0.445-0.822,0.854-1.514,1.484-3.072c0.63-1.558,0.482-0.865,2.226-5.712"/>
					<path style="fill:none;stroke:#000000;" d="M60.341,87.739c2.15-6.015,2.89-7.529,3.56-8.871
						c0.669-1.341,1.093-1.645,1.375-1.947c0.282-0.303,0.952-0.736,1.445-0.692c0.494,0.043,1.022,0.216,1.41,0.692
						s0.987,1.211,1.41,2.034s0.811,1.515,1.41,3.072c0.6,1.558,0.458,0.866,2.115,5.712"/>
					<path style="fill:none;stroke:#000000;" d="M73.062,87.737c2.042,6.015,2.746,7.529,3.382,8.871
						c0.636,1.341,1.038,1.644,1.306,1.947c0.268,0.303,0.904,0.735,1.373,0.692c0.469-0.043,0.971-0.216,1.339-0.692
						s0.938-1.212,1.339-2.034c0.402-0.822,0.77-1.514,1.339-3.072c0.569-1.558,0.435-0.865,2.009-5.712"/>
					<path style="fill:none;stroke:#000000;" d="M85.215,87.739c1.94-6.015,2.608-7.529,3.213-8.871s0.986-1.645,1.24-1.947
						c0.255-0.303,0.859-0.736,1.304-0.692c0.445,0.043,0.923,0.216,1.272,0.692c0.35,0.476,0.891,1.211,1.272,2.034
						s0.732,1.515,1.272,3.072c0.541,1.558,0.414,0.866,1.909,5.712"/>
					<path style="fill:none;stroke:#000000;" d="M96.755,87.737c1.843,6.015,2.478,7.529,3.052,8.871
						c0.574,1.341,0.937,1.644,1.179,1.947c0.242,0.303,0.816,0.735,1.239,0.692c0.423-0.043,0.876-0.216,1.209-0.692
						s0.846-1.212,1.208-2.034c0.363-0.822,0.695-1.514,1.209-3.072c0.514-1.558,0.393-0.865,1.813-5.712"/>
					<path style="fill:none;stroke:#000000;" d="M107.733,87.739c1.751-6.015,2.354-7.529,2.899-8.871s0.89-1.645,1.12-1.947
						c0.229-0.303,0.775-0.736,1.177-0.692c0.402,0.043,0.833,0.216,1.148,0.692c0.316,0.476,0.804,1.211,1.148,2.034
						c0.345,0.822,0.66,1.515,1.148,3.072c0.488,1.558,0.373,0.866,1.722,5.712"/>
					<path style="fill:none;stroke:#000000;" d="M118.059,87.737c1.664,6.015,2.236,7.529,2.754,8.871
						c0.518,1.341,0.845,1.644,1.063,1.947c0.218,0.303,0.736,0.735,1.118,0.692c0.382-0.043,0.791-0.216,1.091-0.692
						c0.3-0.476,0.764-1.212,1.091-2.034c0.328-0.822,0.627-1.514,1.091-3.072c0.463-1.558,0.354-0.865,1.636-5.712"/>
					<path style="fill:none;stroke:#000000;" d="M127.909,87.739c1.663-6.015,2.236-7.529,2.754-8.871
						c0.519-1.341,0.846-1.645,1.064-1.947c0.218-0.303,0.736-0.736,1.118-0.692c0.382,0.043,0.791,0.216,1.091,0.692
						s0.764,1.211,1.091,2.034s0.627,1.515,1.091,3.072c0.464,1.558,0.354,0.866,1.636,5.712"/>
					<path style="fill:none;stroke:#000000;" d="M137.779,87.737c1.501,6.015,2.018,7.529,2.486,8.871
						c0.468,1.341,0.763,1.644,0.96,1.947c0.197,0.303,0.665,0.735,1.009,0.692c0.344-0.043,0.714-0.216,0.984-0.692
						c0.271-0.476,0.689-1.212,0.984-2.034c0.295-0.822,0.566-1.514,0.985-3.072c0.418-1.558,0.32-0.865,1.477-5.712"/>
				</g>
				<g>
					<path style="fill:none;stroke:#000000;" d="M146.835,123.192c-2.64,6.015-3.548,7.529-4.371,8.871
						c-0.822,1.341-1.341,1.644-1.688,1.947c-0.346,0.303-1.168,0.735-1.774,0.692c-0.606-0.043-1.255-0.216-1.731-0.692
						s-1.212-1.212-1.731-2.034c-0.52-0.822-0.996-1.514-1.731-3.072c-0.736-1.558-0.562-0.865-2.597-5.712"/>
					<path style="fill:none;stroke:#000000;" d="M131.148,123.194c-2.508-6.015-3.371-7.529-4.152-8.871
						c-0.781-1.341-1.274-1.644-1.603-1.947c-0.329-0.303-1.11-0.736-1.686-0.692c-0.575,0.043-1.192,0.216-1.644,0.692
						c-0.453,0.476-1.151,1.211-1.645,2.034s-0.946,1.515-1.645,3.072s-0.534,0.865-2.466,5.712"/>
					<path style="fill:none;stroke:#000000;" d="M116.23,123.192c-2.382,6.015-3.202,7.529-3.944,8.871
						c-0.742,1.341-1.21,1.644-1.523,1.947c-0.312,0.303-1.055,0.735-1.601,0.692c-0.547-0.043-1.133-0.216-1.562-0.692
						c-0.429-0.476-1.093-1.212-1.562-2.034c-0.469-0.822-0.898-1.514-1.562-3.072c-0.664-1.558-0.508-0.865-2.343-5.712"/>
					<path style="fill:none;stroke:#000000;" d="M102.065,123.194c-2.263-6.015-3.042-7.529-3.747-8.871
						c-0.705-1.341-1.15-1.644-1.447-1.947c-0.297-0.303-1.002-0.736-1.521-0.692c-0.52,0.043-1.076,0.216-1.484,0.692
						s-1.039,1.211-1.484,2.034s-0.854,1.515-1.484,3.072c-0.631,1.558-0.482,0.865-2.226,5.712"/>
					<path style="fill:none;stroke:#000000;" d="M88.606,123.192c-2.15,6.015-2.89,7.529-3.56,8.871
						c-0.669,1.341-1.092,1.644-1.375,1.947c-0.282,0.303-0.952,0.735-1.445,0.692c-0.494-0.043-1.022-0.216-1.41-0.692
						c-0.388-0.476-0.987-1.212-1.41-2.034c-0.423-0.822-0.811-1.514-1.41-3.072c-0.599-1.558-0.458-0.865-2.115-5.712"/>
					<path style="fill:none;stroke:#000000;" d="M75.884,123.194c-2.042-6.015-2.746-7.529-3.382-8.871
						c-0.636-1.341-1.038-1.644-1.306-1.947c-0.268-0.303-0.904-0.736-1.373-0.692c-0.469,0.043-0.971,0.216-1.339,0.692
						s-0.938,1.211-1.339,2.034s-0.77,1.515-1.339,3.072s-0.435,0.865-2.009,5.712"/>
					<path style="fill:none;stroke:#000000;" d="M63.731,123.192c-1.94,6.015-2.608,7.529-3.213,8.871
						c-0.604,1.341-0.986,1.644-1.24,1.947c-0.255,0.303-0.859,0.735-1.304,0.692c-0.445-0.043-0.922-0.216-1.272-0.692
						s-0.891-1.212-1.272-2.034c-0.382-0.822-0.731-1.514-1.272-3.072c-0.541-1.558-0.414-0.865-1.908-5.712"/>
					<path style="fill:none;stroke:#000000;" d="M52.192,123.194c-1.844-6.015-2.478-7.529-3.052-8.871
						c-0.574-1.341-0.937-1.644-1.179-1.947c-0.242-0.303-0.816-0.736-1.239-0.692c-0.423,0.043-0.876,0.216-1.209,0.692
						c-0.332,0.476-0.846,1.211-1.208,2.034s-0.695,1.515-1.209,3.072s-0.393,0.865-1.813,5.712"/>
					<path style="fill:none;stroke:#000000;" d="M41.214,123.192c-1.751,6.015-2.354,7.529-2.899,8.871
						c-0.545,1.341-0.89,1.644-1.12,1.947c-0.229,0.303-0.775,0.735-1.177,0.692c-0.402-0.043-0.833-0.216-1.148-0.692
						s-0.804-1.212-1.148-2.034c-0.344-0.822-0.66-1.514-1.148-3.072c-0.488-1.558-0.373-0.865-1.722-5.712"/>
					<path style="fill:none;stroke:#000000;" d="M30.888,123.194c-1.664-6.015-2.236-7.529-2.755-8.871
						c-0.518-1.341-0.845-1.644-1.063-1.947c-0.218-0.303-0.736-0.736-1.118-0.692c-0.382,0.043-0.791,0.216-1.091,0.692
						s-0.764,1.211-1.091,2.034s-0.627,1.515-1.091,3.072c-0.464,1.558-0.354,0.865-1.636,5.712"/>
					<path style="fill:none;stroke:#000000;" d="M21.039,123.192c-1.664,6.015-2.236,7.529-2.754,8.871
						c-0.519,1.341-0.846,1.644-1.064,1.947c-0.218,0.303-0.736,0.735-1.118,0.692c-0.382-0.043-0.791-0.216-1.091-0.692
						c-0.3-0.476-0.764-1.212-1.091-2.034c-0.327-0.822-0.627-1.514-1.091-3.072c-0.464-1.558-0.354-0.865-1.636-5.712"/>
					<path style="fill:none;stroke:#000000;" d="M11.167,123.194c-1.501-6.015-2.018-7.529-2.486-8.871
						c-0.468-1.341-0.763-1.644-0.96-1.947c-0.197-0.303-0.665-0.736-1.009-0.692c-0.345,0.043-0.714,0.216-0.985,0.692
						c-0.271,0.476-0.689,1.211-0.984,2.034s-0.566,1.515-0.984,3.072c-0.418,1.558-0.32,0.865-1.477,5.712"/>
				</g>
				<g>
					<path style="fill:none;stroke:#000000;" d="M2.125,0.5c0.511,0,2.046,2.356,3.261,5.89c1.215,3.534,2.494,7.215,3.389,10.381
						s3.197,9.792,3.836,11.044c0.64,1.252,1.791,3.313,3.261,3.313s2.813-1.546,4.028-4.565c1.215-3.019,2.302-5.964,3.389-9.056
						s3.581-9.719,4.668-11.118s2.174-2.135,3.133-2.135"/>
					<path style="fill:none;stroke:#000000;" d="M31.173,4.335c0.511,0,2.046,1.767,3.261,4.417c1.215,2.65,2.494,5.412,3.389,7.786
						c0.896,2.375,3.197,7.344,3.837,8.283c0.639,0.939,1.79,2.485,3.261,2.485s2.813-1.16,4.029-3.424
						c1.215-2.264,2.302-4.473,3.389-6.792c1.087-2.319,3.581-7.289,4.668-8.338s2.174-1.602,3.133-1.602"/>
					<path style="fill:none;stroke:#000000;" d="M60.222,7.208c0.512,0,2.046,1.325,3.261,3.313s2.494,4.059,3.389,5.839
						c0.896,1.781,3.197,5.509,3.837,6.212c0.639,0.704,1.79,1.864,3.261,1.864s2.814-0.87,4.029-2.567
						c1.215-1.698,2.302-3.355,3.389-5.094c1.087-1.74,3.581-5.467,4.668-6.254c1.087-0.787,2.174-1.201,3.133-1.201"/>
					<path style="fill:none;stroke:#000000;" d="M89.271,9.362c0.512,0,2.046,0.994,3.261,2.485
						c1.215,1.491,2.494,3.044,3.389,4.379c0.895,1.336,3.197,4.131,3.836,4.66c0.639,0.528,1.791,1.397,3.261,1.397
						c1.471,0,2.814-0.652,4.029-1.926s2.302-2.516,3.389-3.82c1.087-1.305,3.581-4.1,4.668-4.69s2.174-0.901,3.133-0.901"/>
					<path style="fill:none;stroke:#000000;" d="M118.32,10.977c0.512,0,2.046,0.746,3.261,1.864s2.494,2.283,3.389,3.285
						c0.896,1.001,3.197,3.098,3.837,3.495c0.639,0.396,1.791,1.048,3.261,1.048s2.813-0.489,4.028-1.444
						c1.215-0.955,2.302-1.887,3.389-2.865c1.087-0.979,3.581-3.075,4.668-3.518c1.087-0.443,2.174-0.676,3.133-0.676"/>
				</g>
				<g>
					<path style="fill:none;stroke:#000000;" d="M147.193,36.702c-0.512,0-2.046,2.356-3.261,5.89
						c-1.215,3.534-2.494,7.215-3.389,10.381c-0.896,3.166-3.197,9.792-3.837,11.044c-0.639,1.252-1.79,3.313-3.261,3.313
						s-2.813-1.546-4.028-4.565c-1.215-3.019-2.302-5.964-3.389-9.056c-1.087-3.092-3.581-9.719-4.668-11.118
						s-2.174-2.135-3.133-2.135"/>
					<path style="fill:none;stroke:#000000;" d="M118.145,40.537c-0.512,0-2.046,1.767-3.261,4.417s-2.494,5.412-3.389,7.786
						c-0.896,2.375-3.197,7.344-3.837,8.283c-0.639,0.939-1.79,2.485-3.261,2.485s-2.813-1.16-4.029-3.424
						c-1.215-2.264-2.302-4.473-3.389-6.792s-3.581-7.289-4.668-8.338s-2.174-1.602-3.133-1.602"/>
					<path style="fill:none;stroke:#000000;" d="M89.096,43.41c-0.512,0-2.046,1.325-3.261,3.313
						c-1.215,1.988-2.494,4.059-3.389,5.84c-0.896,1.781-3.197,5.508-3.837,6.212c-0.639,0.704-1.791,1.864-3.261,1.864
						c-1.47,0-2.813-0.87-4.028-2.567c-1.215-1.698-2.302-3.355-3.389-5.094c-1.087-1.739-3.581-5.467-4.668-6.254
						c-1.087-0.787-2.174-1.201-3.133-1.201"/>
					<path style="fill:none;stroke:#000000;" d="M60.047,45.563c-0.512,0-2.046,0.994-3.261,2.485s-2.494,3.044-3.389,4.379
						c-0.895,1.336-3.197,4.131-3.836,4.659c-0.64,0.528-1.791,1.398-3.261,1.398s-2.813-0.652-4.028-1.926s-2.302-2.516-3.389-3.82
						c-1.087-1.305-3.581-4.1-4.668-4.69s-2.174-0.901-3.133-0.901"/>
					<path style="fill:none;stroke:#000000;" d="M30.998,47.179c-0.512,0-2.046,0.746-3.261,1.864s-2.494,2.283-3.389,3.285
						c-0.895,1.002-3.197,3.098-3.836,3.494c-0.64,0.396-1.791,1.049-3.261,1.049s-2.813-0.489-4.028-1.445
						c-1.215-0.955-2.302-1.887-3.389-2.865c-1.087-0.979-3.581-3.075-4.667-3.518c-1.087-0.443-2.174-0.676-3.133-0.676"/>
				</g>
				<g>
					<g>
						<text transform="matrix(1 0 0 1 0.0518 21.7007)"><tspan x="0" y="0" style="font-family:'Helvetica'; font-size:9;">1</tspan></text>
					</g>
				</g>
				<g>
					<g>
						<text transform="matrix(1 0 0 1 0.0518 59.7007)"><tspan x="0" y="0" style="font-family:'Helvetica'; font-size:9;">2</tspan></text>
					</g>
				</g>
				<g>
					<g>
						<text transform="matrix(1 0 0 1 0.0518 98.3677)"><tspan x="0" y="0" style="font-family:'Helvetica'; font-size:9;">3</tspan></text>
					</g>
				</g>
				<g>
					<g>
						<text transform="matrix(1 0 0 1 0.0518 135.0342)"><tspan x="0" y="0" style="font-family:'Helvetica'; font-size:9;">4</tspan></text>
					</g>
				</g>
			</g>
			<rect y="71.576" style="fill:none;" width="147.401" height="2.835"/> 
		</g>
	</svg>
