<?xml version="1.0" encoding="UTF-8" standalone="no"?>
<!-- Created with Inkscape (http://www.inkscape.org/) -->
<svg
   xmlns:dc="http://purl.org/dc/elements/1.1/"
   xmlns:cc="http://creativecommons.org/ns#"
   xmlns:rdf="http://www.w3.org/1999/02/22-rdf-syntax-ns#"
   xmlns:svg="http://www.w3.org/2000/svg"
   xmlns="http://www.w3.org/2000/svg"
   xmlns:sodipodi="http://sodipodi.sourceforge.net/DTD/sodipodi-0.dtd"
   xmlns:inkscape="http://www.inkscape.org/namespaces/inkscape"
   width="744.09448819"
   height="1052.3622047"
   id="svg2"
   sodipodi:version="0.32"
   sodipodi:docname="bowtie.svg"
   inkscape:output_extension="org.inkscape.output.svg.inkscape">
  <defs
     id="defs4">
    <inkscape:perspective
       sodipodi:type="inkscape:persp3d"
       inkscape:vp_x="0 : 526.18109 : 1"
       inkscape:vp_y="0 : 1000 : 0"
       inkscape:vp_z="744.09448 : 526.18109 : 1"
       inkscape:persp3d-origin="372.04724 : 350.78739 : 1"
       id="perspective10" />
  </defs>
  <sodipodi:namedview
     id="base"
     pagecolor="#ffffff"
     bordercolor="#666666"
     borderopacity="1.0"
     gridtolerance="10000"
     guidetolerance="10"
     objecttolerance="10"
     inkscape:pageopacity="0.0"
     inkscape:pageshadow="2"
     inkscape:zoom="1.105191"
     inkscape:cx="151.61431"
     inkscape:cy="913.0101"
     inkscape:document-units="mm"
     inkscape:current-layer="layer1"
     showgrid="false"
     inkscape:window-width="1278"
     inkscape:window-height="996"
     inkscape:window-x="3"
     inkscape:window-y="8" />
  <metadata
     id="metadata7">
    <rdf:RDF>
      <cc:Work
         rdf:about="">
        <dc:format>image/svg+xml</dc:format>
        <dc:type
           rdf:resource="http://purl.org/dc/dcmitype/StillImage" />
      </cc:Work>
    </rdf:RDF>
  </metadata>
  <g
     inkscape:label="Layer 1"
     inkscape:groupmode="layer"
     id="layer1">
    <rect
       style="fill:none;fill-opacity:1;stroke:none;stroke-width:1;stroke-miterlimit:4;stroke-dasharray:none"
       id="rect2393"
       width="184.25197"
       height="33.262581"
       x="16.127317"
       y="126.87721" />
    <rect
       style="fill:#b4b4b4;fill-opacity:1;stroke:none;stroke-width:1;stroke-miterlimit:4;stroke-dasharray:none"
       id="rect2403"
       width="131.01947"
       height="71.187241"
       x="39.291073"
       y="134.79805" />
    <g
       id="g3352"
       transform="translate(-57.282941,-116.54116)">
      <path
         d="M 215.42529,212.25655 A 14.97113,14.97113 0 1 1 185.48303,212.25655 A 14.97113,14.97113 0 1 1 215.42529,212.25655 z"
         sodipodi:ry="14.97113"
         sodipodi:rx="14.97113"
         sodipodi:cy="212.25655"
         sodipodi:cx="200.45416"
         id="path3350"
         style="fill:#ffffff;fill-opacity:1;stroke:#000000;stroke-width:0.5;stroke-miterlimit:4;stroke-dasharray:none;stroke-opacity:1"
         sodipodi:type="arc" />
      <path
         transform="translate(1.4573669,1.1923981)"
         d="M 205.35621,211.06415 A 6.3594184,6.3594184 0 1 1 192.63738,211.06415 A 6.3594184,6.3594184 0 1 1 205.35621,211.06415 z"
         sodipodi:ry="6.3594184"
         sodipodi:rx="6.3594184"
         sodipodi:cy="211.06415"
         sodipodi:cx="198.9968"
         id="path3348"
         style="fill:#ffffff;fill-opacity:1;stroke:#000000;stroke-width:0.5;stroke-miterlimit:4;stroke-dasharray:none;stroke-opacity:1"
         sodipodi:type="arc" />
    </g>
    <g
       id="g3336"
       transform="matrix(-0.9898594,-0.1420501,-0.1420501,0.9898594,304.16561,-81.606808)">
      <path
         id="path3324"
         d="M 133.5075,196.80105 L 207.3718,166.86658 L 208.3437,164.7284 L 212.23129,161.61832 L 217.47954,159.09139 L 221.36714,158.11949 L 224.47721,160.84081 L 225.44911,159.48015 L 227.58729,158.70263 L 228.94795,159.86891 L 225.06035,161.61832 L 225.44911,162.39584 L 222.92218,162.97898 L 223.31094,164.14526 L 218.64582,166.86658 L 211.45377,169.00475 L 207.76056,169.00475 L 205.62238,169.58789 L 134.28502,198.74485 L 133.5075,196.80105 z"
         style="opacity:1;fill:#ffffff;fill-opacity:1;fill-rule:evenodd;stroke:none;stroke-width:1px;stroke-linecap:butt;stroke-linejoin:miter;marker:none;marker-start:none;marker-mid:none;marker-end:none;stroke-miterlimit:4;stroke-dasharray:none;stroke-dashoffset:0;stroke-opacity:1;visibility:visible;display:inline;overflow:visible;enable-background:accumulate" />
      <g
         transform="translate(-7.223424,-137.52242)"
         id="g3326">
        <path
           style="opacity:1;fill:none;fill-opacity:1;fill-rule:evenodd;stroke:#000000;stroke-width:0.5;stroke-linecap:butt;stroke-linejoin:miter;marker:none;marker-start:none;marker-mid:none;marker-end:none;stroke-miterlimit:4;stroke-dasharray:none;stroke-dashoffset:0;stroke-opacity:1;visibility:visible;display:inline;overflow:visible;enable-background:accumulate"
           d="M 213.27622,304.73957 C 213.39495,305.33323 214.13241,303.88338 214.5605,303.45529 C 214.82412,303.19166 215.02023,302.90993 215.24545,302.68472 C 215.49443,302.43574 215.74993,302.15477 215.9304,301.91415 C 216.15557,301.61391 216.41691,301.50646 216.78659,301.2292 C 217.2002,300.91899 217.58478,300.60224 217.89963,300.28739 C 218.22906,299.95796 218.81322,299.70922 219.18391,299.43121 C 219.65239,299.07984 220.14713,298.82117 220.63943,298.57502 C 221.32089,298.23429 221.94418,297.87983 222.60866,297.54759 C 223.168,297.26792 223.69109,297.13481 224.23541,296.86264 C 224.61108,296.67481 225.28754,296.5354 225.69093,296.43455 C 226.13683,296.32308 226.52855,296.11812 226.97521,296.00646 C 227.46153,295.88488 227.82394,295.7496 228.34511,295.7496 C 228.95964,295.7496 229.11281,295.71724 229.45816,296.17769 C 229.70105,296.50155 229.78589,296.87154 229.97187,297.1195 C 230.21633,297.44545 230.65579,297.63296 230.99929,297.71883 C 231.15592,297.75799 231.22761,297.94715 231.34177,298.06131"
           id="path3308" />
        <path
           style="opacity:1;fill:none;fill-opacity:1;fill-rule:evenodd;stroke:#000000;stroke-width:0.5;stroke-linecap:butt;stroke-linejoin:miter;marker:none;marker-start:none;marker-mid:none;marker-end:none;stroke-miterlimit:4;stroke-dasharray:none;stroke-dashoffset:0;stroke-opacity:1;visibility:visible;display:inline;overflow:visible;enable-background:accumulate"
           d="M 214.5605,306.88003 C 214.76112,306.93019 215.71764,306.79442 216.01602,306.79442 C 216.44957,306.79442 216.72524,306.88003 217.21468,306.88003 C 217.65186,306.88003 217.99391,306.72804 218.41334,306.62318 C 218.82686,306.5198 219.16344,306.39284 219.612,306.2807 C 220.0394,306.17386 220.46613,306.13139 220.89628,306.02385 C 221.45199,305.88492 221.97029,305.73394 222.52304,305.59575 C 223.03755,305.46713 223.5265,305.30807 223.97856,305.08204 C 224.40651,304.86806 224.92069,304.67527 225.34846,304.56833 C 225.81947,304.45057 226.21876,304.17599 226.63274,303.969 C 227.09561,303.73756 227.31485,303.58513 227.74578,303.36967 C 228.16695,303.15908 228.49649,302.89225 228.77321,302.68472 C 229.14972,302.40233 229.48928,302.36949 229.88625,302.171 C 230.00351,302.11237 230.04184,301.26049 230.1431,301.05796 C 230.17164,301.00088 230.25726,301.00088 230.31434,300.97234"
           id="path3310" />
        <path
           style="opacity:1;fill:none;fill-opacity:1;fill-rule:evenodd;stroke:#000000;stroke-width:0.5;stroke-linecap:butt;stroke-linejoin:miter;marker:none;marker-start:none;marker-mid:none;marker-end:none;stroke-miterlimit:4;stroke-dasharray:none;stroke-dashoffset:0;stroke-opacity:1;visibility:visible;display:inline;overflow:visible;enable-background:accumulate"
           d="M 216.35849,305.3389 C 216.53607,304.98373 217.44039,304.79795 217.72839,304.65395 C 218.12809,304.4541 218.48657,304.25036 218.92705,304.14024 C 219.44034,304.01191 219.93701,303.8493 220.38257,303.62652 C 220.8188,303.40841 221.39412,303.33479 221.83809,303.11281 C 222.1798,302.94195 222.74764,303.00051 223.03675,302.85595 C 223.36222,302.69322 224.04319,302.56905 224.32103,302.51348 C 224.81358,302.41497 225.21942,302.20327 225.69093,302.08539 C 226.15662,301.96896 226.5531,301.86835 226.97521,301.65729 C 227.32315,301.48332 227.79612,301.40926 228.17387,301.31482 C 228.51948,301.22842 228.95852,301.07585 229.37254,300.97234 C 229.81012,300.86295 230.21111,300.63427 230.5712,300.54425 C 230.97253,300.44392 231.29822,300.29828 231.68424,300.20177 C 232.07479,300.10414 232.31669,299.82618 232.54043,299.60244 C 232.78343,299.35944 231.92355,299.22487 231.76986,298.91749 C 231.68914,298.75605 231.67935,298.56523 231.59862,298.40378"
           id="path3312" />
        <path
           style="opacity:1;fill:none;fill-opacity:1;fill-rule:evenodd;stroke:#000000;stroke-width:0.5;stroke-linecap:butt;stroke-linejoin:miter;marker:none;marker-start:none;marker-mid:none;marker-end:none;stroke-miterlimit:4;stroke-dasharray:none;stroke-dashoffset:0;stroke-opacity:1;visibility:visible;display:inline;overflow:visible;enable-background:accumulate"
           d="M 211.05013,305.93823 L 234.93775,296.26331 L 234.93775,296.26331 L 234.93775,296.26331 L 234.93775,296.26331"
           id="path3314" />
        <path
           style="opacity:1;fill:none;fill-opacity:1;fill-rule:evenodd;stroke:#000000;stroke-width:0.5;stroke-linecap:butt;stroke-linejoin:miter;marker:none;marker-start:none;marker-mid:none;marker-end:none;stroke-miterlimit:4;stroke-dasharray:none;stroke-dashoffset:0;stroke-opacity:1;visibility:visible;display:inline;overflow:visible;enable-background:accumulate"
           d="M 210.96451,307.82184 L 216.61535,305.85261"
           id="path3316" />
        <path
           style="opacity:1;fill:none;fill-opacity:1;fill-rule:evenodd;stroke:#000000;stroke-width:0.5;stroke-linecap:butt;stroke-linejoin:miter;marker:none;marker-start:none;marker-mid:none;marker-end:none;stroke-miterlimit:4;stroke-dasharray:none;stroke-dashoffset:0;stroke-opacity:1;visibility:visible;display:inline;overflow:visible;enable-background:accumulate"
           d="M 235.10899,296.26331 L 235.87956,296.94826 L 236.0508,297.71883 L 233.13976,299.00311"
           id="path3318" />
        <path
           style="opacity:1;fill:none;fill-opacity:1;fill-rule:evenodd;stroke:#000000;stroke-width:0.5;stroke-linecap:butt;stroke-linejoin:miter;marker:none;marker-start:none;marker-mid:none;marker-end:none;stroke-miterlimit:4;stroke-dasharray:none;stroke-dashoffset:0;stroke-opacity:1;visibility:visible;display:inline;overflow:visible;enable-background:accumulate"
           d="M 211.72864,307.55537 L 140.67654,336.44272"
           id="path3320" />
        <path
           style="opacity:1;fill:none;fill-opacity:1;fill-rule:evenodd;stroke:#000000;stroke-width:0.5;stroke-linecap:butt;stroke-linejoin:miter;marker:none;marker-start:none;marker-mid:none;marker-end:none;stroke-miterlimit:4;stroke-dasharray:none;stroke-dashoffset:0;stroke-opacity:1;visibility:visible;display:inline;overflow:visible;enable-background:accumulate"
           d="M 211.32442,305.81014 L 140.27232,334.69749"
           id="path3322" />
      </g>
    </g>
    <path
       style="fill:none;fill-rule:evenodd;stroke:#000000;stroke-width:1;stroke-linecap:butt;stroke-linejoin:miter;stroke-opacity:1;stroke-miterlimit:4;stroke-dasharray:none"
       d="M 39.707398,204.76196 L 192.04636,115.03852 L 191.66455,115.80212 L 181.3559,144.43726 L 67.960738,126.11077 L 39.707398,204.76196 z"
       id="path2394" />
    <path
       style="fill:none;fill-rule:evenodd;stroke:#000000;stroke-width:1px;stroke-linecap:butt;stroke-linejoin:miter;stroke-opacity:1"
       d="M 45.434426,188.34448 L 189.30222,121.97979"
       id="path3166"
       sodipodi:nodetypes="cc" />
    <path
       style="fill:none;fill-rule:evenodd;stroke:#000000;stroke-width:1px;stroke-linecap:butt;stroke-linejoin:miter;stroke-opacity:1"
       d="M 51.795863,170.94357 L 187.15983,128.24241"
       id="path3168"
       sodipodi:nodetypes="cc" />
    <path
       style="fill:none;fill-rule:evenodd;stroke:#000000;stroke-width:1px;stroke-linecap:butt;stroke-linejoin:miter;stroke-opacity:1"
       d="M 58.163085,154.28698 L 184.79481,134.43351"
       id="path3170"
       sodipodi:nodetypes="cc" />
    <path
       style="fill:none;fill-rule:evenodd;stroke:#000000;stroke-width:1px;stroke-linecap:butt;stroke-linejoin:miter;stroke-opacity:1"
       d="M 63.035879,139.2868 L 182.9627,139.77605"
       id="path3172"
       sodipodi:nodetypes="cc" />
    <path
       style="fill:none;fill-rule:evenodd;stroke:#000000;stroke-width:1px;stroke-linecap:butt;stroke-linejoin:miter;stroke-opacity:1"
       d="M 72.72254,185.12592 L 85.66875,129.02567"
       id="path3174" />
    <path
       style="fill:none;fill-rule:evenodd;stroke:#000000;stroke-width:1px;stroke-linecap:butt;stroke-linejoin:miter;stroke-opacity:1"
       d="M 100.21326,169.30277 L 106.76628,132.22227"
       id="path3176" />
    <path
       style="fill:none;fill-rule:evenodd;stroke:#000000;stroke-width:1px;stroke-linecap:butt;stroke-linejoin:miter;stroke-opacity:1"
       d="M 125.30653,154.27877 L 124.98687,135.41886"
       id="path3178" />
    <path
       style="fill:none;fill-rule:evenodd;stroke:#000000;stroke-width:1px;stroke-linecap:butt;stroke-linejoin:miter;stroke-opacity:1"
       d="M 161.26823,141.17273 L 164.30499,131.26329"
       id="path3180" />
    <path
       style="opacity:1;fill:none;fill-opacity:1;fill-rule:evenodd;stroke:#7c7c7c;stroke-width:1;stroke-linecap:butt;stroke-linejoin:miter;marker:none;marker-start:none;marker-mid:none;marker-end:none;stroke-miterlimit:4;stroke-dasharray:none;stroke-dashoffset:0;stroke-opacity:1;visibility:visible;display:inline;overflow:visible;enable-background:accumulate"
       d="M 72.36247,92.86088 C 102.42517,115.98603 100.97985,108.85578 115.62578,112.70997 C 130.27172,116.56417 155.70939,123.50171 161.8761,113.48081 C 168.04281,103.45991 159.56359,77.251398 158.40733,74.746173 C 146.52103,48.992489 125.17939,37.685191 101.75069,28.688569 C 77.661985,19.438507 64.075956,17.51141 56.271215,25.605215 C 42.462767,39.925086 34.495026,47.766824 45.286766,65.496111 C 56.078506,83.225398 72.36247,92.86088 72.36247,92.86088 z"
       id="path3356"
       sodipodi:nodetypes="cssssssc" />
    <path
       style="opacity:1;fill:none;fill-opacity:1;fill-rule:evenodd;stroke:#7c7c7c;stroke-width:1px;stroke-linecap:butt;stroke-linejoin:miter;marker:none;marker-start:none;marker-mid:none;marker-end:none;stroke-miterlimit:4;stroke-dasharray:none;stroke-dashoffset:0;stroke-opacity:1;visibility:visible;display:inline;overflow:visible;enable-background:accumulate"
       d="M 145.11036,118.97304 C 144.8213,127.35591 150.31352,139.20755 150.31352,139.20755"
       id="path3360" />
    <path
       sodipodi:type="arc"
       style="fill:#000000;fill-opacity:1;stroke:none;stroke-width:0.625;stroke-miterlimit:4;stroke-dasharray:none;stroke-opacity:1"
       id="path3358"
       sodipodi:cx="138.75095"
       sodipodi:cy="171.87183"
       sodipodi:rx="2.0234513"
       sodipodi:ry="2.0234513"
       d="M 140.7744,171.87183 A 2.0234513,2.0234513 0 1 1 136.72749,171.87183 A 2.0234513,2.0234513 0 1 1 140.7744,171.87183 z"
       transform="translate(11.851643,-32.37522)" />
  </g>
</svg>
