<?xml version="1.0" encoding="iso-8859-1"?>
<!-- Generator: Adobe Illustrator 11 Build 196, SVG Export Plug-In . SVG Version: 6.0.0 Build 78)  -->
<!DOCTYPE svg PUBLIC "-//W3C//DTD SVG 1.0//EN"    "http://www.w3.org/TR/2001/REC-SVG-20010904/DTD/svg10.dtd" [
	<!ENTITY ns_flows "http://ns.adobe.com/Flows/1.0/">
	<!ENTITY ns_svg "http://www.w3.org/2000/svg">
	<!ENTITY ns_xlink "http://www.w3.org/1999/xlink">
]>
<svg  
	 width="147.401" height="156.383" viewBox="0 0 147.401 156.383"
	 style="overflow:visible;enable-background:new 0 0 147.401 156.383" xml:space="preserve">
	<g id="Layer_1">
		<g>
			
				<rect x="71.322" y="-23.069" transform="matrix(0.7072 0.707 -0.707 0.7072 76.4747 -28.2406)" width="2.026" height="202.568"/> 
			<rect x="2.523" y="137.653" width="18.829" height="2.026"/> 
			<rect x="13.982" y="126.194" width="18.829" height="2.026"/> 
			<rect x="25.441" y="114.735" width="18.829" height="2.026"/> 
			<rect x="36.9" y="103.276" width="18.829" height="2.026"/> 
			<rect x="48.359" y="91.817" width="18.829" height="2.026"/> 
			<rect x="59.818" y="80.358" width="18.829" height="2.026"/> 
			<rect x="71.277" y="68.899" width="18.829" height="2.026"/> 
			<rect x="82.736" y="57.44" width="18.829" height="2.026"/> 
			<rect x="94.195" y="45.981" width="18.829" height="2.025"/> 
			<rect x="105.654" y="34.522" width="18.829" height="2.025"/> 
			<rect x="117.113" y="23.063" width="18.829" height="2.025"/> 
			<rect x="128.572" y="11.604" width="18.829" height="2.026"/> 
			<rect x="8.398" y="103.131" width="2.026" height="18.829"/> 
			<rect x="19.857" y="91.672" width="2.026" height="18.829"/> 
			<rect x="31.316" y="80.213" width="2.026" height="18.829"/> 
			<rect x="42.775" y="68.754" width="2.026" height="18.829"/> 
			<rect x="54.234" y="57.295" width="2.026" height="18.829"/> 
			<rect x="65.693" y="45.836" width="2.026" height="18.829"/> 
			<rect x="77.152" y="34.377" width="2.026" height="18.829"/> 
			<rect x="88.611" y="22.918" width="2.026" height="18.829"/> 
			<rect x="100.07" y="11.459" width="2.026" height="18.829"/> 
			<rect x="111.529" width="2.026" height="18.829"/> 
			<rect x="2.523" y="80.358" width="18.829" height="2.026"/> 
			<rect x="13.982" y="68.899" width="18.829" height="2.026"/> 
			<rect x="25.441" y="57.44" width="18.829" height="2.026"/> 
			<rect x="36.9" y="45.981" width="18.829" height="2.025"/> 
			<rect x="48.359" y="34.522" width="18.829" height="2.026"/> 
			<rect x="59.818" y="23.063" width="18.829" height="2.026"/> 
			<rect x="71.277" y="11.604" width="18.829" height="2.026"/> 
			<rect x="8.398" y="45.836" width="2.026" height="18.829"/> 
			<rect x="19.857" y="34.377" width="2.026" height="18.829"/> 
			<rect x="31.316" y="22.918" width="2.025" height="18.829"/> 
			<rect x="42.775" y="11.459" width="2.025" height="18.829"/> 
			<rect x="54.234" width="2.026" height="18.829"/> 
			<rect x="2.523" y="23.063" width="18.829" height="2.026"/> 
			<rect x="13.982" y="11.604" width="18.829" height="2.026"/> 
			<polygon points="114.564,5.906 0,120.47 1.432,121.902 117.429,5.906 "/>
			<polygon points="28.622,5.906 0,34.528 1.432,35.96 31.486,5.906 "/>
			<polygon points="57.269,5.906 0,63.175 1.433,64.607 60.134,5.906 "/>
			<polygon points="85.917,5.906 0,91.823 1.433,93.255 88.781,5.906 "/>
		</g>
		<rect x="134.326" y="34.424" width="2.026" height="18.829"/> 
		<rect x="122.867" y="45.883" width="2.026" height="18.829"/> 
		<rect x="111.408" y="57.342" width="2.026" height="18.829"/> 
		<rect x="99.949" y="68.801" width="2.026" height="18.829"/> 
		<rect x="88.49" y="80.26" width="2.026" height="18.829"/> 
		<rect x="77.031" y="91.719" width="2.026" height="18.829"/> 
		<rect x="65.572" y="103.178" width="2.026" height="18.829"/> 
		<rect x="54.113" y="114.637" width="2.026" height="18.829"/> 
		<rect x="42.654" y="126.096" width="2.026" height="18.829"/> 
		<rect x="31.195" y="137.555" width="2.026" height="18.829"/> 
		<rect x="123.397" y="74" width="18.829" height="2.025"/> 
		<rect x="111.938" y="85.458" width="18.829" height="2.025"/> 
		<rect x="100.479" y="96.917" width="18.829" height="2.025"/> 
		<rect x="89.021" y="108.376" width="18.829" height="2.025"/> 
		<rect x="77.562" y="119.835" width="18.829" height="2.025"/> 
		<rect x="66.103" y="131.294" width="18.829" height="2.025"/> 
		<rect x="54.644" y="142.753" width="18.829" height="2.025"/> 
		<rect x="134.326" y="91.719" width="2.026" height="18.829"/> 
		<rect x="122.867" y="103.178" width="2.026" height="18.829"/> 
		<rect x="111.408" y="114.637" width="2.026" height="18.829"/> 
		<rect x="99.949" y="126.096" width="2.026" height="18.829"/> 
		<rect x="88.49" y="137.555" width="2.026" height="18.829"/> 
		<rect x="123.397" y="131.294" width="18.829" height="2.025"/> 
		<rect x="111.938" y="142.753" width="18.829" height="2.025"/> 
		<polygon points="30.186,150.477 144.75,35.914 143.317,34.481 27.321,150.477 "/>
		<polygon points="116.128,150.477 144.75,121.856 143.317,120.423 113.263,150.477 "/>
		<polygon points="87.48,150.477 144.75,93.208 143.317,91.776 84.616,150.477 "/>
		<polygon points="58.833,150.477 144.75,64.561 143.317,63.128 55.968,150.477 "/>
	</g>
</svg>
