<?xml version="1.0" encoding="iso-8859-1"?>
<!-- Generator: Adobe Illustrator 11 Build 196, SVG Export Plug-In . SVG Version: 6.0.0 Build 78)  -->
<!DOCTYPE svg PUBLIC "-//W3C//DTD SVG 1.0//EN"    "http://www.w3.org/TR/2001/REC-SVG-20010904/DTD/svg10.dtd" [
	<!ENTITY ns_flows "http://ns.adobe.com/Flows/1.0/">
	<!ENTITY ns_svg "http://www.w3.org/2000/svg">
	<!ENTITY ns_xlink "http://www.w3.org/1999/xlink">
]>
<svg  
	 width="147.945" height="134.58" viewBox="0 0 147.945 134.58" style="overflow:visible;enable-background:new 0 0 147.945 134.58"
	 xml:space="preserve">
	<style type="text/css">
	
	</style>
	<g id="Layer_1">
		<line style="fill:none;stroke:#000000;stroke-width:0.5;" x1="37.522" y1="97.94" x2="41.335" y2="97.94"/>
		<line style="fill:none;stroke:#000000;stroke-width:0.5;" x1="37.522" y1="79.427" x2="41.335" y2="79.427"/>
		<line style="fill:none;stroke:#000000;stroke-width:0.5;" x1="37.522" y1="42.401" x2="41.335" y2="42.401"/>
		<line style="fill:none;stroke:#000000;stroke-width:0.5;" x1="37.522" y1="5.375" x2="41.335" y2="5.375"/>
		<line style="fill:none;stroke:#000000;stroke-width:0.5;" x1="37.522" y1="60.914" x2="41.335" y2="60.914"/>
		<line style="fill:none;stroke:#000000;stroke-width:0.5;" x1="37.522" y1="23.888" x2="41.335" y2="23.888"/>
		<line style="fill:none;stroke:#000000;stroke-width:0.5;" x1="145.379" y1="102.095" x2="145.379" y2="98.282"/>
		<line style="fill:none;stroke:#000000;stroke-width:0.5;" x1="119.377" y1="102.095" x2="119.377" y2="98.282"/>
		<line style="fill:none;stroke:#000000;stroke-width:0.5;" x1="93.375" y1="102.095" x2="93.375" y2="98.282"/>
		<line style="fill:none;stroke:#000000;stroke-width:0.5;" x1="67.373" y1="102.095" x2="67.373" y2="98.282"/>
		<line style="fill:none;stroke:#000000;stroke-width:0.5;" x1="41.371" y1="102.095" x2="41.371" y2="98.282"/>
		<g>
			<g>
				<text transform="matrix(1 0 0 1 39.1699 109.291)"><tspan x="0" y="0" style="font-family:Liberation Sans; font-size:7.650000;">0</tspan></text>
			</g>
		</g>
		<g>
			<g>
				<text transform="matrix(1 0 0 1 91.0547 109.291)"><tspan x="0" y="0" style="font-family:Liberation Sans; font-size:7.650000;">4</tspan></text>
			</g>
		</g>
		<g>
			<g>
				<text transform="matrix(1 0 0 1 116.9971 109.291)"><tspan x="0" y="0" style="font-family:Liberation Sans; font-size:7.650000;">6</tspan></text>
			</g>
		</g>
		<g>
			<g>
				<text transform="matrix(1 0 0 1 142.9399 109.291)"><tspan x="0" y="0" style="font-family:Liberation Sans; font-size:7.650000;">8</tspan></text>
			</g>
		</g>
		<g>
			<g>
				<text transform="matrix(1 0 0 1 65.1123 109.291)"><tspan x="0" y="0" style="font-family:Liberation Sans; font-size:7.650000;">2</tspan></text>
			</g>
		</g>
		<g>
			<g>
				<text transform="matrix(1 0 0 1 26.9429 82.8672)"><tspan x="0" y="0" style="font-family:Liberation Sans; font-size:7.650000;">20</tspan></text>
			</g>
		</g>
		<g>
			<g>
				<text transform="matrix(1 0 0 1 26.9429 64.4004)"><tspan x="0" y="0" style="font-family:Liberation Sans; font-size:7.650000;">40</tspan></text>
			</g>
		</g>
		<g>
			<g>
				<text transform="matrix(1 0 0 1 26.9429 45.9336)"><tspan x="0" y="0" style="font-family:Liberation Sans; font-size:7.650000;">60</tspan></text>
			</g>
		</g>
		<g>
			<g>
				<text transform="matrix(1 0 0 1 26.9429 27.4668)"><tspan x="0" y="0" style="font-family:Liberation Sans; font-size:7.650000;">80</tspan></text>
			</g>
		</g>
		<g>
			<g>
				<text transform="matrix(1 0 0 1 21.9399 9)"><tspan x="0" y="0" style="font-family:Liberation Sans; font-size:7.650000;">100</tspan></text>
			</g>
		</g>
		<g>
			<g>
				<text transform="matrix(1 0 0 1 57.9702 119.5635)"><tspan x="0" y="0" style="font-family:Liberation Sans; font-size:7.650000;">time since creation</tspan></text>
			</g>
			<g>
				<text transform="matrix(1 0 0 1 57.9702 130.5635)"><tspan x="0" y="0" style="font-family:Liberation Sans; font-size:7.650000;">(microseconds)</tspan></text>
			</g>
		</g>
		<g>
			<g>
				<text transform="matrix(0 -1 1 0 9 72.4756)"><tspan x="0" y="0" style="font-family:Liberation Sans; font-size:7.650000;">percentage of</tspan></text>
			</g>
			<g>
				<text transform="matrix(0 -1 1 0 20 86.459)"><tspan x="0" y="0" style="font-family:Liberation Sans; font-size:7.650000;">muons remaining</tspan></text>
			</g>
		</g>
		<rect x="41.371" y="5.396" style="fill:none;stroke:#000000;stroke-width:0.5;" width="104.235" height="92.615"/> 
		<g>
			<g>
				<text transform="matrix(1 0 0 1 31.9463 101.334)"><tspan x="0" y="0" style="font-family:Liberation Sans; font-size:7.650000;">0</tspan></text>
			</g>
		</g>
		<path style="fill:none;stroke:#000000;stroke-width:0.5;" d="M41.465,5.31c24.172,8.907,61.75,18.739,102.381,27.86l1.878,0.426"
			/>
	</g>
</svg>
