<?xml version="1.0" encoding="UTF-8" standalone="no"?>
<!-- Generator: Adobe Illustrator 11 Build 196, SVG Export Plug-In . SVG Version: 6.0.0 Build 78)  -->
<svg
   xmlns:dc="http://purl.org/dc/elements/1.1/"
   xmlns:cc="http://creativecommons.org/ns#"
   xmlns:rdf="http://www.w3.org/1999/02/22-rdf-syntax-ns#"
   xmlns:svg="http://www.w3.org/2000/svg"
   xmlns="http://www.w3.org/2000/svg"
   xmlns:sodipodi="http://sodipodi.sourceforge.net/DTD/sodipodi-0.dtd"
   xmlns:inkscape="http://www.inkscape.org/namespaces/inkscape"
   width="320.315"
   height="158.56"
   viewBox="0 0 320.315 158.56"
   style="overflow:visible;enable-background:new 0 0 320.315 158.56"
   xml:space="preserve"
   id="svg2"
   sodipodi:version="0.32"
   sodipodi:docname="schoolbus-small.svg"
   inkscape:output_extension="org.inkscape.output.svg.inkscape"><metadata
   id="metadata348"><rdf:RDF><cc:Work
       rdf:about=""><dc:format>image/svg+xml</dc:format><dc:type
         rdf:resource="http://purl.org/dc/dcmitype/StillImage" /></cc:Work></rdf:RDF></metadata><defs
   id="defs346"><inkscape:perspective
   sodipodi:type="inkscape:persp3d"
   inkscape:vp_x="0 : 79.279999 : 1"
   inkscape:vp_y="0 : 1000 : 0"
   inkscape:vp_z="320.315 : 79.279999 : 1"
   inkscape:persp3d-origin="160.1575 : 52.853333 : 1"
   id="perspective350" />
		
		 
	
			
			
			 
			 
			
				 
			
			 
			 
			
			
			
			
			
			
			
			
			
			
			
			
			
		
				
				 
				 
				 
				 
				 
				 
				 
				 
				 
				 
				 
				 
				
				 
				 
				 
				 
				 
				 
				 
				 
				 
				 
				 
				 
				 
				 
				 
				
				 
				 
				 
				 
				 
				 
				 
				 
				 
				 
				 
				 
				 
				 
				 
				 
				
				
				 
				 
				 
				
				
				
				
				
				
				
				
				
				
				
				
				
			
				
				 
				 
				 
				 
				 
				 
				 
				 
				 
				 
				 
				 
				
				 
				 
				 
				 
				 
				 
				 
				 
				 
				 
				 
				 
				 
				 
				 
				
				 
				 
				
				
				 
				 
				
				
				 
				 
				
				
				 
				 
				
				
				
				
				 
				 
				 
				
				
				
				
				
				
				
				
				
				
				
				
				
			</defs><sodipodi:namedview
   inkscape:window-height="996"
   inkscape:window-width="1278"
   inkscape:pageshadow="2"
   inkscape:pageopacity="0.0"
   guidetolerance="10.0"
   gridtolerance="10.0"
   objecttolerance="10.0"
   borderopacity="1.0"
   bordercolor="#666666"
   pagecolor="#ffffff"
   id="base"
   showgrid="false"
   inkscape:zoom="1"
   inkscape:cx="62.0187"
   inkscape:cy="41.430007"
   inkscape:window-x="2"
   inkscape:window-y="2"
   inkscape:current-layer="svg2" />
	<style
   type="text/css"
   id="style4">
	
	</style>
	<path
   id="path11"
   d="M 94.515901,133.83705 C 96.815725,130.47577 93.985173,129.76813 90.446983,129.76813 C 86.908794,129.76813 84.78588,129.76813 84.78588,129.76813 L 8.360981,129.59122 L 7.8302525,140.02888 L 8.7147999,152.23563 L 33.482129,152.76636 C 33.482129,152.76636 34.012857,147.63599 40.02778,147.63599 C 46.042702,147.63599 46.219612,152.41254 46.219612,152.41254 L 95.400449,152.23563 C 95.400449,152.23563 95.931177,146.22071 99.823186,145.86689 C 103.71519,145.51307 104.42283,148.87435 104.42283,148.87435 L 104.59974,146.22071 L 102.65374,144.80543 L 102.83065,142.68252 L 99.646277,141.44415 L 94.86972,140.91343 L 94.515901,133.83705 z"
   style="fill:none;stroke:#000000;stroke-width:0.87500001;stroke-miterlimit:4;stroke-dasharray:none" /><rect
   id="rect13"
   height="4.6881013"
   width="5.6611037"
   style="fill:#ffffff"
   y="134.9278"
   x="80.142006" /><rect
   id="rect15"
   height="4.6881013"
   width="5.6611037"
   style="fill:#ffffff"
   y="134.9278"
   x="73.286766" /><rect
   id="rect17"
   height="4.6881013"
   width="5.6611037"
   style="fill:#ffffff"
   y="134.9278"
   x="66.431519" /><rect
   id="rect19"
   height="4.6881013"
   width="5.6611037"
   style="fill:#ffffff"
   y="134.9278"
   x="59.576279" /><rect
   id="rect21"
   height="4.6881013"
   width="5.6611037"
   style="fill:#ffffff"
   y="134.9278"
   x="52.721039" /><rect
   id="rect23"
   height="4.6881013"
   width="5.6611037"
   style="fill:#ffffff"
   y="134.9278"
   x="45.865791" /><rect
   id="rect25"
   height="4.6881013"
   width="5.6611037"
   style="fill:#ffffff"
   y="134.9278"
   x="39.010551" /><rect
   id="rect27"
   height="4.6881013"
   width="5.6611037"
   style="fill:#ffffff"
   y="134.9278"
   x="32.155308" /><rect
   id="rect29"
   height="4.6881013"
   width="5.6611037"
   style="fill:#ffffff"
   y="134.9278"
   x="25.300638" /><rect
   id="rect31"
   height="4.6881013"
   width="5.6611037"
   style="fill:#ffffff"
   y="134.9278"
   x="18.445396" /><rect
   id="rect33"
   height="4.6881013"
   width="5.6611037"
   style="fill:#ffffff"
   y="134.9278"
   x="11.58958" /><circle
   sodipodi:ry="7.8400002"
   sodipodi:rx="7.8400002"
   sodipodi:cy="150.21899"
   sodipodi:cx="56.087002"
   id="circle35"
   r="7.8400002"
   cy="150.21899"
   cx="56.087002"
   style="fill:none;stroke:#000000"
   transform="matrix(0.5743815,0,0,0.5743815,7.3408795,67.485649)" /><path
   id="path37"
   d="M 96.943812,148.7365 C 97.629049,148.3149 98.436055,148.07137 99.299925,148.07137 C 101.787,148.07137 103.80307,150.08745 103.80307,152.57452 C 103.80307,155.06159 101.787,157.07767 99.299925,157.07767 C 97.099469,157.07767 95.267767,155.49984 94.87489,153.41369"
   style="fill:none;stroke:#000000;stroke-width:0.57438147" /><rect
   id="rect39"
   height="1.4152759"
   width="85.623619"
   style="fill:none;stroke:#000000;stroke-width:0.21539304;stroke-miterlimit:4;stroke-dasharray:none;stroke-opacity:1"
   y="140.2058"
   x="8.360981" /><rect
   id="rect41"
   height="4.9534655"
   width="0.94370872"
   style="fill:none;stroke:#000000;stroke-width:0.28719074"
   y="134.78076"
   x="85.906502" /><rect
   id="rect43"
   height="4.9534655"
   width="0.94370872"
   style="fill:none;stroke:#000000;stroke-width:0.28719074"
   y="134.78076"
   x="79.06562" /><rect
   id="rect45"
   height="4.9534655"
   width="0.94370872"
   style="fill:none;stroke:#000000;stroke-width:0.28719074"
   y="134.78076"
   x="72.225304" /><rect
   id="rect47"
   height="4.9534655"
   width="0.94370872"
   style="fill:none;stroke:#000000;stroke-width:0.28719074"
   y="134.78076"
   x="65.384995" /><rect
   id="rect49"
   height="4.9534655"
   width="0.94370872"
   style="fill:none;stroke:#000000;stroke-width:0.28719074"
   y="134.78076"
   x="58.544693" /><rect
   id="rect51"
   height="4.9534655"
   width="0.94370872"
   style="fill:none;stroke:#000000;stroke-width:0.28719074"
   y="134.78076"
   x="51.703808" /><rect
   id="rect53"
   height="4.9534655"
   width="0.94370872"
   style="fill:none;stroke:#000000;stroke-width:0.28719074"
   y="134.78076"
   x="44.863499" /><rect
   id="rect55"
   height="4.9534655"
   width="0.94370872"
   style="fill:none;stroke:#000000;stroke-width:0.28719074"
   y="134.78076"
   x="38.022614" /><rect
   id="rect57"
   height="4.9534655"
   width="0.94370872"
   style="fill:none;stroke:#000000;stroke-width:0.28719074"
   y="134.78076"
   x="31.182304" /><rect
   id="rect59"
   height="4.9534655"
   width="0.94370872"
   style="fill:none;stroke:#000000;stroke-width:0.28719074"
   y="134.78076"
   x="24.341997" /><rect
   id="rect61"
   height="4.9534655"
   width="0.94370872"
   style="fill:none;stroke:#000000;stroke-width:0.28719074"
   y="134.78076"
   x="17.501112" /><rect
   id="rect63"
   height="4.9534655"
   width="0.94370872"
   style="fill:none;stroke:#000000;stroke-width:0.28719074"
   y="134.78076"
   x="10.660805" /><circle
   sodipodi:ry="4.3559999"
   sodipodi:rx="4.3559999"
   sodipodi:cy="150.21899"
   sodipodi:cx="56.087002"
   id="circle65"
   r="4.3559999"
   cy="150.21899"
   cx="56.087002"
   style="fill:none;stroke:#000000"
   transform="matrix(0.5743815,0,0,0.5743815,7.3408795,67.485649)" /><circle
   sodipodi:ry="4.3559999"
   sodipodi:rx="4.3559999"
   sodipodi:cy="148.14"
   sodipodi:cx="160.101"
   id="circle67"
   r="4.3559999"
   cy="148.14"
   cx="160.101"
   style="fill:none;stroke:#000000"
   transform="matrix(0.5743815,0,0,0.5743815,7.3408795,67.485649)" /><path
   id="path69"
   d="M 101.71003,144.80543 C 98.289588,144.33387 96.167248,144.56936 94.63365,148.22588"
   style="fill:none;stroke:#000000;stroke-width:0.28719074" /><circle
   sodipodi:ry="0.49000001"
   sodipodi:rx="0.49000001"
   sodipodi:cy="148.20399"
   sodipodi:cx="163.129"
   id="circle71"
   r="0.49000001"
   cy="148.20399"
   cx="163.129"
   style="fill:none;stroke:#000000;stroke-width:0.5"
   transform="matrix(0.5743815,0,0,0.5743815,7.3408795,67.485649)" /><circle
   sodipodi:ry="0.49000001"
   sodipodi:rx="0.49000001"
   sodipodi:cy="148.20399"
   sodipodi:cx="156.89301"
   id="circle73"
   r="0.49000001"
   cy="148.20399"
   cx="156.89301"
   style="fill:none;stroke:#000000;stroke-width:0.5"
   transform="matrix(0.5743815,0,0,0.5743815,7.3408795,67.485649)" /><circle
   sodipodi:ry="0.49000001"
   sodipodi:rx="0.49000001"
   sodipodi:cy="150.397"
   sodipodi:cx="162.186"
   id="circle75"
   r="0.49000001"
   cy="150.397"
   cx="162.186"
   style="fill:none;stroke:#000000;stroke-width:0.5"
   transform="matrix(0.5743815,0,0,0.5743815,7.3408795,67.485649)" /><circle
   sodipodi:ry="0.49000001"
   sodipodi:rx="0.49000001"
   sodipodi:cy="145.987"
   sodipodi:cx="157.776"
   id="circle77"
   r="0.49000001"
   cy="145.987"
   cx="157.776"
   style="fill:none;stroke:#000000;stroke-width:0.5"
   transform="matrix(0.5743815,0,0,0.5743815,7.3408795,67.485649)" /><circle
   sodipodi:ry="0.49000001"
   sodipodi:rx="0.49000001"
   sodipodi:cy="151.28101"
   sodipodi:cx="159.96899"
   id="circle79"
   r="0.49000001"
   cy="151.28101"
   cx="159.96899"
   style="fill:none;stroke:#000000;stroke-width:0.5"
   transform="matrix(0.5743815,0,0,0.5743815,7.3408795,67.485649)" /><circle
   sodipodi:ry="0.49000001"
   sodipodi:rx="0.49000001"
   sodipodi:cy="145.04401"
   sodipodi:cx="159.96899"
   id="circle81"
   r="0.49000001"
   cy="145.04401"
   cx="159.96899"
   style="fill:none;stroke:#000000;stroke-width:0.5"
   transform="matrix(0.5743815,0,0,0.5743815,7.3408795,67.485649)" /><circle
   sodipodi:ry="0.49000001"
   sodipodi:rx="0.49000001"
   sodipodi:cy="150.338"
   sodipodi:cx="157.776"
   id="circle83"
   r="0.49000001"
   cy="150.338"
   cx="157.776"
   style="fill:none;stroke:#000000;stroke-width:0.5"
   transform="matrix(0.5743815,0,0,0.5743815,7.3408795,67.485649)" /><circle
   sodipodi:ry="0.49000001"
   sodipodi:rx="0.49000001"
   sodipodi:cy="145.927"
   sodipodi:cx="162.186"
   id="circle85"
   r="0.49000001"
   cy="145.927"
   cx="162.186"
   style="fill:none;stroke:#000000;stroke-width:0.5"
   transform="matrix(0.5743815,0,0,0.5743815,7.3408795,67.485649)" /><circle
   sodipodi:ry="0.49000001"
   sodipodi:rx="0.49000001"
   sodipodi:cy="150.293"
   sodipodi:cx="59.233002"
   id="circle87"
   r="0.49000001"
   cy="150.293"
   cx="59.233002"
   style="fill:none;stroke:#000000;stroke-width:0.5"
   transform="matrix(0.5743815,0,0,0.5743815,7.3408795,67.485649)" /><circle
   sodipodi:ry="0.49000001"
   sodipodi:rx="0.49000001"
   sodipodi:cy="150.293"
   sodipodi:cx="52.995998"
   id="circle89"
   r="0.49000001"
   cy="150.293"
   cx="52.995998"
   style="fill:none;stroke:#000000;stroke-width:0.5"
   transform="matrix(0.5743815,0,0,0.5743815,7.3408795,67.485649)" /><circle
   sodipodi:ry="0.49000001"
   sodipodi:rx="0.49000001"
   sodipodi:cy="152.48599"
   sodipodi:cx="58.290001"
   id="circle91"
   r="0.49000001"
   cy="152.48599"
   cx="58.290001"
   style="fill:none;stroke:#000000;stroke-width:0.5"
   transform="matrix(0.5743815,0,0,0.5743815,7.3408795,67.485649)" /><circle
   sodipodi:ry="0.49000001"
   sodipodi:rx="0.49000001"
   sodipodi:cy="148.076"
   sodipodi:cx="53.880001"
   id="circle93"
   r="0.49000001"
   cy="148.076"
   cx="53.880001"
   style="fill:none;stroke:#000000;stroke-width:0.5"
   transform="matrix(0.5743815,0,0,0.5743815,7.3408795,67.485649)" /><circle
   sodipodi:ry="0.49000001"
   sodipodi:rx="0.49000001"
   sodipodi:cy="153.37"
   sodipodi:cx="56.073002"
   id="circle95"
   r="0.49000001"
   cy="153.37"
   cx="56.073002"
   style="fill:none;stroke:#000000;stroke-width:0.5"
   transform="matrix(0.5743815,0,0,0.5743815,7.3408795,67.485649)" /><circle
   sodipodi:ry="0.49000001"
   sodipodi:rx="0.49000001"
   sodipodi:cy="147.133"
   sodipodi:cx="56.073002"
   id="circle97"
   r="0.49000001"
   cy="147.133"
   cx="56.073002"
   style="fill:none;stroke:#000000;stroke-width:0.5"
   transform="matrix(0.5743815,0,0,0.5743815,7.3408795,67.485649)" /><circle
   sodipodi:ry="0.49000001"
   sodipodi:rx="0.49000001"
   sodipodi:cy="152.427"
   sodipodi:cx="53.880001"
   id="circle99"
   r="0.49000001"
   cy="152.427"
   cx="53.880001"
   style="fill:none;stroke:#000000;stroke-width:0.5"
   transform="matrix(0.5743815,0,0,0.5743815,7.3408795,67.485649)" /><circle
   sodipodi:ry="0.49000001"
   sodipodi:rx="0.49000001"
   sodipodi:cy="148.01601"
   sodipodi:cx="58.290001"
   id="circle101"
   r="0.49000001"
   cy="148.01601"
   cx="58.290001"
   style="fill:none;stroke:#000000;stroke-width:0.5"
   transform="matrix(0.5743815,0,0,0.5743815,7.3408795,67.485649)" /><path
   id="path103"
   d="M 95.621586,133.08518 C 96.196542,133.04095 97.877182,133.04095 97.877182,133.04095 L 97.877182,140.51538"
   style="fill:none;stroke:#000000;stroke-width:0.28719074" /><polyline
   id="polyline105"
   points="157.932,116.519 158.471,116.288 158.625,121.062       157.855,120.985 "
   style="fill:none;stroke:#000000;stroke-width:0.5"
   transform="matrix(0.5743815,0,0,0.5743815,7.3408795,67.485649)" /><rect
   id="rect107"
   height="1.4152759"
   width="85.092888"
   style="fill:none;stroke:#000000;stroke-width:0.21539304;stroke-miterlimit:4;stroke-dasharray:none;stroke-opacity:1"
   y="144.2747"
   x="8.715374" /><rect
   id="rect109"
   height="1.4152759"
   width="47.942471"
   style="fill:none;stroke:#000000;stroke-width:0.21539304;stroke-miterlimit:4;stroke-dasharray:none;stroke-opacity:1"
   y="147.8129"
   x="45.511974" /><rect
   id="rect111"
   height="1.2383664"
   width="24.590418"
   style="fill:none;stroke:#000000;stroke-width:0.21539304;stroke-miterlimit:4;stroke-dasharray:none;stroke-opacity:1"
   y="148.52054"
   x="9.5999222" /><polygon
   id="polygon113"
   points="144.595,135.073 146.931,132.737 146.931,129.433 144.595,127.097 141.291,127.097 138.955,129.433 138.955,132.737 141.291,135.073 144.595,135.073 "
   style="fill:#ffffff;fill-opacity:1;stroke:#000000;stroke-width:0.5"
   transform="matrix(0.5743815,0,0,0.5743815,7.3408795,67.485649)" /><polygon
   id="polygon115"
   points="21.998,135.664 24.334,133.327 24.334,130.023 21.998,127.687 18.694,127.687 16.358,130.023 16.358,133.327 18.694,135.664 21.998,135.664 "
   style="fill:#ffffff;fill-opacity:1;stroke:#000000;stroke-width:0.5"
   transform="matrix(0.5743815,0,0,0.5743815,7.3408795,67.485649)" /><line
   id="line117"
   y2="147.63599"
   x2="94.338997"
   y1="141.44415"
   x1="94.69281"
   style="fill:none;stroke:#000000;stroke-width:0.28719074" /><polygon
   id="polygon119"
   points="149.924,115.941 150.116,125.721 138.759,125.451 138.682,115.633 149.924,115.941 "
   style="fill:#ffffff"
   transform="matrix(0.5743815,0,0,0.5743815,7.3408795,67.485649)" /><path
   id="path121"
   d="M 90.579665,137.30861 C 92.06157,137.26438 92.437215,136.84393 90.602066,136.86633"
   style="fill:none;stroke:#000000;stroke-width:0.28719074" /><path
   id="path123"
   d="M 90.579665,137.22073 C 90.424582,136.46886 89.938081,135.80545 89.407353,136.33618 C 88.876624,136.86691 88.633087,137.1541 88.633087,137.1541"
   style="fill:none;stroke:#000000;stroke-width:0.28719074" /><path
   id="path125"
   d="M 88.854798,137.26438 C 89.495808,137.35283 90.358529,137.35283 90.358529,137.35283"
   style="fill:none;stroke:#000000;stroke-width:0.28719074" /><path
   id="path127"
   d="M 88.744517,137.46369 C 88.744517,137.59637 88.479152,138.19373 88.589434,138.52515 C 88.699715,138.85657 88.854798,139.05588 88.854798,139.05588 L 88.810571,139.38787"
   style="fill:none;stroke:#000000;stroke-width:0.28719074" /><polyline
   id="polyline129"
   points="144.803,121.986 144.996,122.602 145.266,123.372       145.381,123.603 144.727,123.757 144.572,124.065 144.496,124.334 143.687,124.334 143.417,124.72 144.265,125.027       144.149,125.413 "
   style="fill:none;stroke:#000000;stroke-width:0.5"
   transform="matrix(0.5743815,0,0,0.5743815,7.3408795,67.485649)" /><line
   id="line131"
   y2="134.78076"
   x2="86.849632"
   y1="134.78076"
   x1="10.660805"
   style="fill:none;stroke:#000000;stroke-width:0.28719074" /><line
   id="line133"
   y2="139.73422"
   x2="10.660805"
   y1="139.73422"
   x1="86.849632"
   style="fill:none;stroke:#000000;stroke-width:0.21539304;stroke-miterlimit:4;stroke-dasharray:none;stroke-opacity:1" /><polyline
   id="polyline135"
   points="138.528,117.25 138.451,115.402 150.116,115.595       150.463,125.952 138.566,125.759 "
   style="fill:none;stroke:#000000;stroke-width:0.5"
   transform="matrix(0.5743815,0,0,0.5743815,7.3408795,67.485649)" /><g
   id="g137"
   transform="matrix(0.5743815,0,0,0.5743815,7.3408795,67.485649)">
					<g
   id="g139">
						<text
   id="text141"
   transform="translate(39.4766,132.8428)"><tspan
     id="tspan143"
     style="font-size:3.4000001px;fill:#b3b3b3;font-family:Liberation Sans"
     y="0"
     x="0">GRAND UNIFIED SCHOOL</tspan></text>


					</g>
					<g
   id="g145">
						<text
   id="text147"
   transform="translate(93.9321,132.8428)"><tspan
     id="tspan149"
     style="font-size:3.4000001px;fill:#b3b3b3;font-family:Liberation Sans"
     y="0"
     x="0">DISTRICT</tspan></text>


					</g>
				</g><path
   id="path153"
   d="M 63.088341,83.5735 C 64.238253,80.21222 62.822977,79.504582 61.053882,79.504582 C 59.284787,79.504582 58.22333,79.504582 58.22333,79.504582 L 20.010877,79.327672 L 19.745513,89.765333 L 20.187787,101.97209 L 32.571452,102.50282 C 32.571452,102.50282 32.836816,97.372442 35.844278,97.372442 C 38.851739,97.372442 38.940194,102.149 38.940194,102.149 L 63.530615,101.97209 C 63.530615,101.97209 63.795979,95.957166 65.741983,95.603347 C 67.687988,95.249528 68.041807,98.610808 68.041807,98.610808 L 68.130262,95.957166 L 67.157259,94.54189 L 67.245714,92.418976 L 65.653529,91.180609 L 63.26525,90.649881 L 63.088341,83.5735 z"
   style="fill:none;stroke:#000000;stroke-width:0.87500001;stroke-miterlimit:4;stroke-dasharray:none" /><rect
   id="rect155"
   height="4.6881018"
   width="2.8305521"
   style="fill:#ffffff"
   y="84.664825"
   x="55.901676" /><rect
   id="rect157"
   height="4.6881018"
   width="2.8305521"
   style="fill:#ffffff"
   y="84.664825"
   x="52.47377" /><rect
   id="rect159"
   height="4.6881018"
   width="2.8305521"
   style="fill:#ffffff"
   y="84.664825"
   x="49.046436" /><rect
   id="rect161"
   height="4.6881018"
   width="2.8305521"
   style="fill:#ffffff"
   y="84.664825"
   x="45.618526" /><rect
   id="rect163"
   height="4.6881018"
   width="2.8305521"
   style="fill:#ffffff"
   y="84.664825"
   x="42.191193" /><rect
   id="rect165"
   height="4.6881018"
   width="2.8305521"
   style="fill:#ffffff"
   y="84.664825"
   x="38.763283" /><rect
   id="rect167"
   height="4.6881018"
   width="2.8305521"
   style="fill:#ffffff"
   y="84.664825"
   x="35.335949" /><rect
   id="rect169"
   height="4.6881018"
   width="2.8305521"
   style="fill:#ffffff"
   y="84.664825"
   x="31.908039" /><rect
   id="rect171"
   height="4.6881018"
   width="2.8305521"
   style="fill:#ffffff"
   y="84.664825"
   x="28.480705" /><rect
   id="rect173"
   height="4.6881018"
   width="2.8305521"
   style="fill:#ffffff"
   y="84.664825"
   x="25.053371" /><rect
   id="rect175"
   height="4.6881018"
   width="2.8305521"
   style="fill:#ffffff"
   y="84.664825"
   x="21.625463" /><ellipse
   sodipodi:ry="7.8400002"
   sodipodi:rx="3.9200001"
   sodipodi:cy="62.709999"
   sodipodi:cx="61.994999"
   id="ellipse177"
   ry="7.8400002"
   rx="3.9200001"
   cy="62.709999"
   cx="61.994999"
   style="fill:none;stroke:#000000"
   transform="matrix(0.5743815,0,0,0.5743815,0,67.485649)" /><path
   id="path179"
   d="M 64.302583,98.472382 C 64.645489,98.050786 65.048705,97.807823 65.48064,97.807823 C 66.724176,97.807823 67.732215,99.823902 67.732215,102.31097 C 67.732215,104.79805 66.724176,106.81412 65.48064,106.81412 C 64.380699,106.81412 63.464561,105.23572 63.268122,103.15015"
   style="fill:none;stroke:#000000;stroke-width:0.57438147" /><rect
   id="rect181"
   height="1.4152761"
   width="42.812099"
   style="fill:none;stroke:#000000;stroke-width:0.21539307;stroke-miterlimit:4;stroke-dasharray:none;stroke-opacity:1"
   y="89.942245"
   x="20.010878" /><rect
   id="rect183"
   height="4.9534659"
   width="0.47156721"
   style="fill:none;stroke:#000000;stroke-width:0.28719074"
   y="84.517212"
   x="58.783928" /><rect
   id="rect185"
   height="4.9534659"
   width="0.47214159"
   style="fill:none;stroke:#000000;stroke-width:0.28719074"
   y="84.517212"
   x="55.363483" /><rect
   id="rect187"
   height="4.9534659"
   width="0.47156721"
   style="fill:none;stroke:#000000;stroke-width:0.28719074"
   y="84.517212"
   x="51.943043" /><rect
   id="rect189"
   height="4.9534659"
   width="0.47156721"
   style="fill:none;stroke:#000000;stroke-width:0.28719074"
   y="84.517212"
   x="48.523174" /><rect
   id="rect191"
   height="4.9534659"
   width="0.47156721"
   style="fill:none;stroke:#000000;stroke-width:0.28719074"
   y="84.517212"
   x="45.102734" /><rect
   id="rect193"
   height="4.9534659"
   width="0.47156721"
   style="fill:none;stroke:#000000;stroke-width:0.28719074"
   y="84.517212"
   x="41.682293" /><rect
   id="rect195"
   height="4.9534659"
   width="0.47156721"
   style="fill:none;stroke:#000000;stroke-width:0.28719074"
   y="84.517212"
   x="38.262421" /><rect
   id="rect197"
   height="4.9534659"
   width="0.47156721"
   style="fill:none;stroke:#000000;stroke-width:0.28719074"
   y="84.517212"
   x="34.84198" /><rect
   id="rect199"
   height="4.9534659"
   width="0.47156721"
   style="fill:none;stroke:#000000;stroke-width:0.28719074"
   y="84.517212"
   x="31.422115" /><rect
   id="rect201"
   height="4.9534659"
   width="0.47156721"
   style="fill:none;stroke:#000000;stroke-width:0.28719074"
   y="84.517212"
   x="28.001673" /><rect
   id="rect203"
   height="4.9534659"
   width="0.47214159"
   style="fill:none;stroke:#000000;stroke-width:0.28719074"
   y="84.517212"
   x="24.581232" /><rect
   id="rect205"
   height="4.9534659"
   width="0.47156721"
   style="fill:none;stroke:#000000;stroke-width:0.28719074"
   y="84.517212"
   x="21.160789" /><ellipse
   sodipodi:ry="4.3559999"
   sodipodi:rx="2.178"
   sodipodi:cy="62.709999"
   sodipodi:cx="61.994999"
   id="ellipse207"
   ry="4.3559999"
   rx="2.178"
   cy="62.709999"
   cx="61.994999"
   style="fill:none;stroke:#000000"
   transform="matrix(0.5743815,0,0,0.5743815,0,67.485649)" /><ellipse
   sodipodi:ry="4.3559999"
   sodipodi:rx="2.178"
   sodipodi:cy="60.631001"
   sodipodi:cx="114.001"
   id="ellipse209"
   ry="4.3559999"
   rx="2.178"
   cy="60.631001"
   cx="114.001"
   style="fill:none;stroke:#000000"
   transform="matrix(0.5743815,0,0,0.5743815,0,67.485649)" /><path
   id="path211"
   d="M 66.685692,94.54189 C 64.975758,94.070322 63.914301,94.305819 63.147502,97.962331"
   style="fill:none;stroke:#000000;stroke-width:0.28719074" /><ellipse
   sodipodi:ry="0.49000001"
   sodipodi:rx="0.245"
   sodipodi:cy="60.695999"
   sodipodi:cx="115.516"
   id="ellipse213"
   ry="0.49000001"
   rx="0.245"
   cy="60.695999"
   cx="115.516"
   style="fill:none;stroke:#000000;stroke-width:0.5"
   transform="matrix(0.5743815,0,0,0.5743815,0,67.485649)" /><ellipse
   sodipodi:ry="0.49000001"
   sodipodi:rx="0.245"
   sodipodi:cy="60.695999"
   sodipodi:cx="112.397"
   id="ellipse215"
   ry="0.49000001"
   rx="0.245"
   cy="60.695999"
   cx="112.397"
   style="fill:none;stroke:#000000;stroke-width:0.5"
   transform="matrix(0.5743815,0,0,0.5743815,0,67.485649)" /><path
   id="path217"
   d="M 65.979777,103.80666 C 65.924637,103.69696 65.924637,103.51832 65.979777,103.40862 C 66.034918,103.29891 66.123947,103.29891 66.179088,103.40862 C 66.234228,103.51832 66.234228,103.69696 66.179088,103.80666 C 66.123947,103.91637 66.034918,103.91637 65.979777,103.80666 z"
   style="fill:none;stroke:#000000;stroke-width:0.28719074" /><path
   id="path219"
   d="M 64.713266,101.27364 C 64.658125,101.16393 64.658125,100.9853 64.713266,100.87559 C 64.768407,100.76589 64.857436,100.76589 64.912576,100.87559 C 64.967717,100.9853 64.967717,101.16393 64.912576,101.27364 C 64.857436,101.38335 64.768407,101.38335 64.713266,101.27364 z"
   style="fill:none;stroke:#000000;stroke-width:0.28719074" /><ellipse
   sodipodi:ry="0.49000001"
   sodipodi:rx="0.245"
   sodipodi:cy="63.771999"
   sodipodi:cx="113.936"
   id="ellipse221"
   ry="0.49000001"
   rx="0.245"
   cy="63.771999"
   cx="113.936"
   style="fill:none;stroke:#000000;stroke-width:0.5"
   transform="matrix(0.5743815,0,0,0.5743815,0,67.485649)" /><ellipse
   sodipodi:ry="0.49000001"
   sodipodi:rx="0.245"
   sodipodi:cy="57.535"
   sodipodi:cx="113.936"
   id="ellipse223"
   ry="0.49000001"
   rx="0.245"
   cy="57.535"
   cx="113.936"
   style="fill:none;stroke:#000000;stroke-width:0.5"
   transform="matrix(0.5743815,0,0,0.5743815,0,67.485649)" /><path
   id="path225"
   d="M 64.713266,103.37415 C 64.768407,103.26445 64.857436,103.26445 64.912576,103.37415 C 64.967717,103.48386 64.967717,103.66192 64.912576,103.7722 C 64.857436,103.88248 64.768407,103.88191 64.713266,103.7722 C 64.658125,103.66249 64.658125,103.48444 64.713266,103.37415 z"
   style="fill:none;stroke:#000000;stroke-width:0.28719074" /><path
   id="path227"
   d="M 65.979777,100.84113 C 66.034918,100.73142 66.123947,100.73142 66.179088,100.84113 C 66.234228,100.95084 66.234228,101.1289 66.179088,101.23918 C 66.123947,101.34946 66.034918,101.34888 65.979777,101.23918 C 65.924637,101.12947 65.924637,100.95141 65.979777,100.84113 z"
   style="fill:none;stroke:#000000;stroke-width:0.28719074" /><ellipse
   sodipodi:ry="0.49000001"
   sodipodi:rx="0.245"
   sodipodi:cy="62.784"
   sodipodi:cx="63.568001"
   id="ellipse229"
   ry="0.49000001"
   rx="0.245"
   cy="62.784"
   cx="63.568001"
   style="fill:none;stroke:#000000;stroke-width:0.5"
   transform="matrix(0.5743815,0,0,0.5743815,0,67.485649)" /><ellipse
   sodipodi:ry="0.49000001"
   sodipodi:rx="0.245"
   sodipodi:cy="62.784"
   sodipodi:cx="60.449001"
   id="ellipse231"
   ry="0.49000001"
   rx="0.245"
   cy="62.784"
   cx="60.449001"
   style="fill:none;stroke:#000000;stroke-width:0.5"
   transform="matrix(0.5743815,0,0,0.5743815,0,67.485649)" /><path
   id="path233"
   d="M 36.141807,105.00655 C 36.086667,104.89684 36.086667,104.71821 36.141807,104.6085 C 36.196948,104.49879 36.285977,104.49879 36.341118,104.6085 C 36.396258,104.71821 36.396258,104.89684 36.341118,105.00655 C 36.285977,105.11625 36.196948,105.11625 36.141807,105.00655 z"
   style="fill:none;stroke:#000000;stroke-width:0.28719074" /><path
   id="path235"
   d="M 34.875296,102.47352 C 34.820155,102.36382 34.820155,102.18518 34.875296,102.07548 C 34.930437,101.96577 35.019466,101.96577 35.074606,102.07548 C 35.129747,102.18518 35.129747,102.36382 35.074606,102.47352 C 35.019466,102.58323 34.929862,102.58323 34.875296,102.47352 z"
   style="fill:none;stroke:#000000;stroke-width:0.28719074" /><ellipse
   sodipodi:ry="0.49000001"
   sodipodi:rx="0.245"
   sodipodi:cy="65.861"
   sodipodi:cx="61.987999"
   id="ellipse237"
   ry="0.49000001"
   rx="0.245"
   cy="65.861"
   cx="61.987999"
   style="fill:none;stroke:#000000;stroke-width:0.5"
   transform="matrix(0.5743815,0,0,0.5743815,0,67.485649)" /><ellipse
   sodipodi:ry="0.49000001"
   sodipodi:rx="0.245"
   sodipodi:cy="59.624001"
   sodipodi:cx="61.987999"
   id="ellipse239"
   ry="0.49000001"
   rx="0.245"
   cy="59.624001"
   cx="61.987999"
   style="fill:none;stroke:#000000;stroke-width:0.5"
   transform="matrix(0.5743815,0,0,0.5743815,0,67.485649)" /><path
   id="path241"
   d="M 34.875296,104.57404 C 34.930437,104.46433 35.019466,104.46433 35.074606,104.57404 C 35.129747,104.68374 35.129747,104.8618 35.074606,104.97208 C 35.019466,105.08236 34.930437,105.08179 34.875296,104.97208 C 34.820155,104.86238 34.820155,104.68374 34.875296,104.57404 z"
   style="fill:none;stroke:#000000;stroke-width:0.28719074" /><path
   id="path243"
   d="M 36.141807,102.04101 C 36.196948,101.93131 36.285977,101.93131 36.341118,102.04101 C 36.396258,102.15072 36.396258,102.32935 36.341118,102.43906 C 36.285977,102.54877 36.196948,102.54877 36.141807,102.43906 C 36.086667,102.32935 36.086667,102.15072 36.141807,102.04101 z"
   style="fill:none;stroke:#000000;stroke-width:0.28719074" /><path
   id="path245"
   d="M 63.64147,82.821635 C 63.928661,82.777408 64.768981,82.777408 64.768981,82.777408 L 64.768981,90.251834"
   style="fill:none;stroke:#000000;stroke-width:0.28719074" /><polyline
   id="polyline247"
   points="112.917,29.01 113.187,28.779 113.264,33.553       112.879,33.476 "
   style="fill:none;stroke:#000000;stroke-width:0.5"
   transform="matrix(0.5743815,0,0,0.5743815,0,67.485649)" /><rect
   id="rect249"
   height="1.4152761"
   width="42.546734"
   style="fill:none;stroke:#000000;stroke-width:0.21539307;stroke-miterlimit:4;stroke-dasharray:none;stroke-opacity:1"
   y="94.011162"
   x="20.187786" /><rect
   id="rect251"
   height="1.4152761"
   width="23.971239"
   style="fill:none;stroke:#000000;stroke-width:0.21539307;stroke-miterlimit:4;stroke-dasharray:none;stroke-opacity:1"
   y="97.549355"
   x="38.586376" /><rect
   id="rect253"
   height="1.2383665"
   width="12.295211"
   style="fill:none;stroke:#000000;stroke-width:0.21539307;stroke-miterlimit:4;stroke-dasharray:none;stroke-opacity:1"
   y="98.256989"
   x="20.63006" /><polygon
   id="polygon255"
   points="106.249,47.564 107.417,45.228 107.417,41.924 106.249,39.587 104.597,39.587 103.428,41.924 103.428,45.228 104.597,47.564 106.249,47.564 "
   style="fill:#ffffff;fill-opacity:1;stroke:#000000;stroke-width:0.375;stroke-miterlimit:4;stroke-dasharray:none"
   transform="matrix(0.5743815,0,0,0.5743815,0,67.485649)" /><polygon
   id="polygon257"
   points="44.95,48.154 46.119,45.818 46.119,42.514 44.95,40.178 43.298,40.178 42.13,42.514 42.13,45.818 43.298,48.154 44.95,48.154 "
   style="fill:#ffffff;fill-opacity:1;stroke:#000000;stroke-width:0.375;stroke-miterlimit:4;stroke-dasharray:none"
   transform="matrix(0.5743815,0,0,0.5743815,0,67.485649)" /><line
   id="line259"
   y2="97.372444"
   x2="62.999886"
   y1="91.180611"
   x1="63.176792"
   style="fill:none;stroke:#000000;stroke-width:0.28719074" /><polygon
   id="polygon261"
   points="108.913,28.433 109.009,38.211 103.331,37.942 103.292,28.125 108.913,28.433 "
   style="fill:#ffffff"
   transform="matrix(0.5743815,0,0,0.5743815,0,67.485649)" /><path
   id="path263"
   d="M 61.12051,87.045637 C 61.861462,87.001409 62.049285,86.580962 61.131997,86.603363"
   style="fill:none;stroke:#000000;stroke-width:0.28719074" /><path
   id="path265"
   d="M 61.12051,86.956607 C 61.042968,86.204742 60.800005,85.541331 60.534641,86.07206 C 60.269276,86.602788 60.147508,86.890554 60.147508,86.890554"
   style="fill:none;stroke:#000000;stroke-width:0.28719074" /><path
   id="path267"
   d="M 60.257789,87.001409 C 60.578294,87.089864 61.009654,87.089864 61.009654,87.089864"
   style="fill:none;stroke:#000000;stroke-width:0.28719074" /><path
   id="path269"
   d="M 60.202648,87.200145 C 60.202648,87.332827 60.069966,87.930184 60.125107,88.261602 C 60.180247,88.593595 60.257789,88.792331 60.257789,88.792331 L 60.235388,89.123749"
   style="fill:none;stroke:#000000;stroke-width:0.28719074" /><polyline
   id="polyline271"
   points="106.353,34.477 106.449,35.093 106.584,35.863       106.642,36.094 106.314,36.248 106.237,36.556 106.199,36.826 105.795,36.826 105.66,37.21 106.083,37.519 106.026,37.904 "
   style="fill:none;stroke:#000000;stroke-width:0.5"
   transform="matrix(0.5743815,0,0,0.5743815,0,67.485649)" /><line
   id="line273"
   y2="84.517212"
   x2="59.255493"
   y1="84.517212"
   x1="21.160789"
   style="fill:none;stroke:#000000;stroke-width:0.28719074" /><line
   id="line275"
   y2="89.470673"
   x2="21.160789"
   y1="89.470673"
   x1="59.255493"
   style="fill:none;stroke:#000000;stroke-width:0.28719074" /><polyline
   id="polyline277"
   points="103.215,29.742 103.177,27.894 109.009,28.086       109.183,38.442 103.234,38.25 "
   style="fill:none;stroke:#000000;stroke-width:0.5"
   transform="matrix(0.5743815,0,0,0.5743815,0,67.485649)" /><g
   id="g279"
   transform="matrix(0.5743815,0,0,0.5743815,0,67.485649)">
					<g
   id="g281">
						<text
   id="text283"
   transform="matrix(0.5,0,0,1,53.6895,45.334)"><tspan
     id="tspan285"
     style="font-size:3.4000001px;fill:#b3b3b3;font-family:Liberation Sans"
     y="0"
     x="0">GRAND UNIFIED SCHOOL</tspan></text>


					</g>
					<g
   id="g287">
						<text
   id="text289"
   transform="matrix(0.5,0,0,1,80.9175,45.334)"><tspan
     id="tspan291"
     style="font-size:3.4000001px;fill:#b3b3b3;font-family:Liberation Sans"
     y="0"
     x="0">DISTRICT</tspan></text>


					</g>
				</g><rect
   x="121.24446"
   y="70.922173"
   style="fill:#eeeeee"
   width="60.148651"
   height="35.230835"
   id="rect295" /><rect
   x="81.649094"
   y="-130.35838"
   transform="matrix(7.5801743e-2,0.9971229,-0.9971229,7.5801743e-2,0,0)"
   style="fill:none;stroke:#000000;stroke-width:0.87500002;stroke-opacity:1;stroke-miterlimit:4;stroke-dasharray:none"
   width="2.3451457"
   height="27.995857"
   id="rect297" /><rect
   x="139.93398"
   y="121.51829"
   style="fill:#eeeeee"
   width="30.074614"
   height="35.230835"
   id="rect303" /><polygon
   style="fill:none;stroke:#000000;stroke-opacity:1;stroke-width:1.52337778;stroke-miterlimit:4;stroke-dasharray:none"
   points="243.997,99.208 243.842,95.137 219.541,98.834 219.696,102.906 243.997,99.208 "
   id="polygon305"
   transform="matrix(0.5743815,0,0,0.5743815,7.3408795,67.485649)" /><line
   style="fill:none;stroke:#767676;stroke-width:0.62500001000000005;stroke-miterlimit:4;stroke-dasharray:none;stroke-opacity:1"
   x1="173.16595"
   y1="121.61995"
   x2="178.82762"
   y2="121.61995"
   id="line309" /><line
   style="fill:none;stroke:#767676;stroke-width:0.62500001000000005;stroke-miterlimit:4;stroke-dasharray:none;stroke-opacity:1"
   x1="175.28888"
   y1="131.52689"
   x2="182.01201"
   y2="131.52689"
   id="line311" /><line
   style="fill:none;stroke:#767676;stroke-width:0.62500001000000005;stroke-miterlimit:4;stroke-dasharray:none;stroke-opacity:1"
   x1="174.5818"
   y1="141.07942"
   x2="180.24234"
   y2="141.07942"
   id="line313" /><line
   style="fill:none;stroke:#767676;stroke-width:0.62500001000000005;stroke-miterlimit:4;stroke-dasharray:none;stroke-opacity:1"
   x1="173.87416"
   y1="148.15581"
   x2="175.99651"
   y2="148.15581"
   id="line315" /><line
   style="fill:none;stroke:#767676;stroke-width:0.62500001000000005;stroke-miterlimit:4;stroke-dasharray:none;stroke-opacity:1"
   x1="17.929317"
   y1="80.57695"
   x2="15.806978"
   y2="80.57695"
   id="line317" /><line
   style="fill:none;stroke:#767676;stroke-width:0.62500001000000005;stroke-miterlimit:4;stroke-dasharray:none;stroke-opacity:1"
   x1="17.22168"
   y1="83.761322"
   x2="11.207331"
   y2="83.761322"
   id="line319" /><line
   style="fill:none;stroke:#767676;stroke-width:0.62500001000000005;stroke-miterlimit:4;stroke-dasharray:none;stroke-opacity:1"
   x1="16.868435"
   y1="87.653328"
   x2="14.037308"
   y2="87.653328"
   id="line321" /><line
   style="fill:none;stroke:#767676;stroke-width:0.62500001000000005;stroke-miterlimit:4;stroke-dasharray:none;stroke-opacity:1"
   x1="17.22168"
   y1="91.545341"
   x2="9.791481"
   y2="91.545341"
   id="line323" /><line
   style="fill:none;stroke:#767676;stroke-width:0.62500001000000005;stroke-miterlimit:4;stroke-dasharray:none;stroke-opacity:1"
   x1="17.576073"
   y1="94.729713"
   x2="14.037308"
   y2="94.729713"
   id="line325" /><g
   id="g327"
   transform="translate(-3.5428415,61.770613)">
				<g
   id="g329">
					<text
   transform="translate(6.5757,24.6401)"
   id="text331"><tspan
     x="0"
     y="0"
     style="font-size:7.6500001px;font-family:Liberation Sans"
     id="tspan333">1</tspan></text>


				</g>
			</g><g
   id="g335"
   transform="translate(-3.6721775,24.684464)">
				<g
   id="g337">
					<text
   transform="translate(6.5757,100.4077)"
   id="text339"><tspan
     x="0"
     y="0"
     style="font-size:7.6500001px;font-family:Liberation Sans"
     id="tspan341">2</tspan></text>


				</g>
			</g>
<path
   style="opacity:1;fill:none;fill-opacity:1;fill-rule:evenodd;stroke:#000000;stroke-width:0.87500001;stroke-linecap:butt;stroke-linejoin:miter;marker:none;marker-start:none;marker-mid:none;marker-end:none;stroke-miterlimit:4;stroke-dasharray:none;stroke-dashoffset:0;stroke-opacity:1;visibility:visible;display:inline;overflow:visible;enable-background:accumulate"
   d="M 121.14323,71.032923 L 121.14323,67.503623 L 183.96478,67.503623 L 183.96478,106.76709 L 119.46682,106.76709 L 119.63304,106.14672 L 181.40604,106.14672 L 181.40604,70.94469 L 120.85237,70.94469"
   id="path4041"
   sodipodi:nodetypes="ccccccccc" /><path
   style="opacity:1;fill:none;fill-opacity:1;fill-rule:evenodd;stroke:#000000;stroke-width:0.87500001;stroke-linecap:butt;stroke-linejoin:miter;marker:none;marker-start:none;marker-mid:none;marker-end:none;stroke-miterlimit:4;stroke-dasharray:none;stroke-dashoffset:0;stroke-opacity:1;visibility:visible;display:inline;overflow:visible;enable-background:accumulate"
   d="M 140.7873,121.79181 L 140.7873,118.24707 L 171.52344,118.24707 L 171.52344,157.68228 L 139.96709,157.68228 L 140.04842,157.0592 L 170.27154,157.0592 L 170.27154,121.70319 L 140.64499,121.70319"
   id="path4043"
   sodipodi:nodetypes="ccccccccc" /><path
   style="fill:none;fill-opacity:1;stroke:#000000;stroke-width:0.87500001;stroke-miterlimit:4;stroke-dasharray:none;stroke-dashoffset:0;stroke-opacity:1"
   d="M 81.051391,83.857629 L 81.051391,87.032039 L 70.563663,87.032039 L 70.563663,92.697286 L 81.051391,92.697286 L 81.051391,96.630185 L 91.080281,90.271999 L 91.033463,90.243906 L 91.080281,90.215815 L 81.051391,83.857629 z"
   id="rect4045" /><path
   style="fill:none;fill-opacity:1;stroke:#000000;stroke-width:0.87500001;stroke-miterlimit:4;stroke-dasharray:none;stroke-dashoffset:0;stroke-opacity:1;overflow:visible"
   d="M 136.06771,145.3445 L 136.06771,142.17009 L 146.55544,142.17009 L 146.55544,136.50485 L 136.06771,136.50485 L 136.06771,132.57195 L 126.03882,138.93013 L 126.08563,138.95822 L 126.03882,138.98632 L 136.06771,145.3445 z"
   id="path4052" /></svg>