<?xml version="1.0" encoding="iso-8859-1"?>
<!-- Generator: Adobe Illustrator 11 Build 196, SVG Export Plug-In . SVG Version: 6.0.0 Build 78)  -->
<!DOCTYPE svg PUBLIC "-//W3C//DTD SVG 1.0//EN"    "http://www.w3.org/TR/2001/REC-SVG-20010904/DTD/svg10.dtd" [
	<!ENTITY ns_flows "http://ns.adobe.com/Flows/1.0/">
	<!ENTITY ns_svg "http://www.w3.org/2000/svg">
	<!ENTITY ns_xlink "http://www.w3.org/1999/xlink">
]>
<svg  
	 width="320.315" height="46.645" viewBox="0 0 320.315 46.645" style="overflow:visible;enable-background:new 0 0 320.315 46.645"
	 xml:space="preserve">
	<g id="Layer_1">
		<g>
			<path style="fill:#FDE9E4;" d="M224.01,22.048h0.014c-0.035-0.05-0.076-0.1-0.112-0.151c-0.078-0.109-0.159-0.217-0.243-0.326
				c-0.196-0.252-0.404-0.502-0.633-0.751c-0.092-0.1-0.192-0.198-0.289-0.296c-0.19-0.194-0.39-0.387-0.6-0.579
				c-0.103-0.094-0.201-0.189-0.309-0.283c-0.279-0.242-0.579-0.482-0.89-0.72c-0.137-0.105-0.276-0.209-0.418-0.313
				c-0.322-0.235-0.656-0.469-1.009-0.701c-0.144-0.094-0.296-0.188-0.445-0.281c-0.288-0.181-0.585-0.361-0.892-0.54
				c-0.15-0.088-0.296-0.176-0.452-0.264c-0.4-0.225-0.82-0.447-1.249-0.667c-0.187-0.096-0.375-0.192-0.567-0.287
				c-0.442-0.219-0.895-0.436-1.365-0.65c-0.186-0.085-0.379-0.168-0.57-0.252c-0.388-0.171-0.785-0.341-1.19-0.508
				c-0.181-0.075-0.357-0.15-0.542-0.225c-0.521-0.209-1.061-0.416-1.608-0.619c-0.224-0.084-0.45-0.167-0.678-0.249
				c-0.557-0.201-1.125-0.4-1.708-0.595c-0.217-0.073-0.44-0.144-0.661-0.216c-0.488-0.159-0.985-0.316-1.491-0.471
				c-0.204-0.062-0.403-0.126-0.609-0.188c-0.633-0.189-1.283-0.375-1.94-0.557c-0.252-0.07-0.506-0.14-0.762-0.209
				c-0.665-0.18-1.339-0.356-2.028-0.529c-0.241-0.061-0.486-0.119-0.73-0.179c-0.585-0.143-1.179-0.284-1.781-0.422
				c-0.217-0.05-0.431-0.101-0.65-0.15c-0.734-0.165-1.484-0.325-2.241-0.482c-0.279-0.058-0.558-0.116-0.84-0.172
				c-0.76-0.154-1.529-0.304-2.311-0.45c-0.261-0.049-0.527-0.096-0.791-0.144c-0.674-0.123-1.355-0.242-2.044-0.359
				c-0.228-0.039-0.452-0.079-0.682-0.116c-0.822-0.136-1.659-0.267-2.501-0.394c-0.304-0.046-0.608-0.092-0.914-0.137
				c-0.786-0.115-1.577-0.228-2.379-0.335v0.002c-10.049-1.349-21.345-2.109-33.292-2.109c-17.979,0-34.484,1.719-47.473,4.585
				L93.252,1.25h-59.5L54.167,20.8H76.2c-1.513,1.635-2.322,3.346-2.322,5.109c0,11.452,33.907,20.736,75.731,20.736
				c41.825,0,75.732-9.284,75.732-20.736C225.341,24.589,224.872,23.299,224.01,22.048z"/>
			<path style="fill:#FCCEC5;" d="M255.01,21.735h0.014c-0.035-0.05-0.076-0.1-0.112-0.151c-0.078-0.109-0.159-0.217-0.243-0.326
				c-0.196-0.252-0.404-0.502-0.633-0.751c-0.092-0.1-0.192-0.198-0.289-0.296c-0.19-0.194-0.39-0.387-0.6-0.579
				c-0.103-0.094-0.201-0.189-0.309-0.283c-0.279-0.242-0.579-0.482-0.89-0.72c-0.137-0.105-0.276-0.209-0.418-0.313
				c-0.322-0.235-0.656-0.469-1.009-0.701c-0.144-0.094-0.296-0.188-0.445-0.281c-0.288-0.181-0.585-0.361-0.892-0.54
				c-0.15-0.088-0.296-0.176-0.452-0.264c-0.4-0.225-0.82-0.447-1.249-0.668c-0.187-0.096-0.375-0.191-0.567-0.286
				c-0.442-0.219-0.895-0.436-1.365-0.65c-0.186-0.085-0.379-0.168-0.57-0.252c-0.388-0.171-0.785-0.341-1.19-0.508
				c-0.181-0.075-0.357-0.15-0.542-0.225c-0.521-0.209-1.061-0.416-1.608-0.62c-0.224-0.083-0.45-0.167-0.678-0.249
				c-0.557-0.201-1.125-0.4-1.708-0.595c-0.217-0.073-0.44-0.144-0.661-0.216c-0.488-0.159-0.985-0.316-1.491-0.471
				c-0.204-0.062-0.403-0.126-0.609-0.188c-0.633-0.189-1.283-0.375-1.94-0.557c-0.252-0.07-0.506-0.14-0.762-0.209
				c-0.665-0.18-1.339-0.356-2.028-0.529c-0.241-0.061-0.486-0.12-0.73-0.179c-0.585-0.143-1.179-0.284-1.781-0.422
				c-0.217-0.05-0.431-0.101-0.65-0.151c-0.734-0.165-1.484-0.324-2.241-0.482c-0.279-0.058-0.558-0.116-0.84-0.172
				c-0.76-0.154-1.529-0.304-2.311-0.45c-0.261-0.049-0.527-0.096-0.791-0.144c-0.674-0.123-1.355-0.242-2.044-0.359
				c-0.228-0.039-0.452-0.079-0.682-0.116c-0.822-0.136-1.659-0.267-2.501-0.394c-0.304-0.046-0.608-0.092-0.914-0.137
				c-0.786-0.115-1.577-0.228-2.379-0.335v0.002C203.852,5.62,192.557,4.86,180.609,4.86c-17.979,0-34.484,1.719-47.473,4.585
				l-8.884-8.507h-59.5l20.415,19.55H107.2c-1.513,1.634-2.322,3.346-2.322,5.109c0,11.452,33.907,20.736,75.731,20.736
				c41.825,0,75.732-9.284,75.732-20.736C256.341,24.276,255.872,22.987,255.01,21.735z"/>
			<g>
				
					<linearGradient id="XMLID_5_" gradientUnits="userSpaceOnUse" x1="80.1582" y1="-25.686" x2="75.66" y2="49.3141" gradientTransform="matrix(0.85 0 0 0.85 144.5108 15.8721)">
					<stop  offset="0" style="stop-color:#D06B55"/>
					<stop  offset="0.0417" style="stop-color:#D26E5A"/>
					<stop  offset="0.0828" style="stop-color:#D57964"/>
					<stop  offset="0.1237" style="stop-color:#DA8C76"/>
					<stop  offset="0.1646" style="stop-color:#E2A38E"/>
					<stop  offset="0.2053" style="stop-color:#ECC0AE"/>
					<stop  offset="0.2455" style="stop-color:#F8E1D6"/>
					<stop  offset="0.25" style="stop-color:#FAE5DB"/>
					<stop  offset="0.2715" style="stop-color:#EEC8B7"/>
					<stop  offset="0.2964" style="stop-color:#E4A894"/>
					<stop  offset="0.3212" style="stop-color:#DB8E79"/>
					<stop  offset="0.3453" style="stop-color:#D57B66"/>
					<stop  offset="0.3686" style="stop-color:#D26F5A"/>
					<stop  offset="0.39" style="stop-color:#D06B55"/>
					<stop  offset="1" style="stop-color:#000000"/>
					<midPointStop  offset="0" style="stop-color:#D06B55"/>
					<midPointStop  offset="0.71" style="stop-color:#D06B55"/>
					<midPointStop  offset="0.25" style="stop-color:#FAE5DB"/>
					<midPointStop  offset="0.31" style="stop-color:#FAE5DB"/>
					<midPointStop  offset="0.39" style="stop-color:#D06B55"/>
					<midPointStop  offset="0.5" style="stop-color:#D06B55"/>
					<midPointStop  offset="1" style="stop-color:#000000"/>
				</linearGradient>
				<ellipse style="fill:url(#XMLID_5_);" cx="210.794" cy="24.908" rx="75.731" ry="20.736"/> 
				
					<linearGradient id="XMLID_6_" gradientUnits="userSpaceOnUse" x1="143.6069" y1="-15.1982" x2="135.9406" y2="38.4684" gradientTransform="matrix(0.85 0 0 0.85 144.0857 16.0491)">
					<stop  offset="0" style="stop-color:#D06B55"/>
					<stop  offset="0.0417" style="stop-color:#D26E5A"/>
					<stop  offset="0.0828" style="stop-color:#D57964"/>
					<stop  offset="0.1237" style="stop-color:#DA8C76"/>
					<stop  offset="0.1646" style="stop-color:#E2A38E"/>
					<stop  offset="0.2053" style="stop-color:#ECC0AE"/>
					<stop  offset="0.2455" style="stop-color:#F8E1D6"/>
					<stop  offset="0.25" style="stop-color:#FAE5DB"/>
					<stop  offset="0.2715" style="stop-color:#EEC8B7"/>
					<stop  offset="0.2964" style="stop-color:#E4A894"/>
					<stop  offset="0.3212" style="stop-color:#DB8E79"/>
					<stop  offset="0.3453" style="stop-color:#D57B66"/>
					<stop  offset="0.3686" style="stop-color:#D26F5A"/>
					<stop  offset="0.39" style="stop-color:#D06B55"/>
					<stop  offset="1" style="stop-color:#000000"/>
					<midPointStop  offset="0" style="stop-color:#D06B55"/>
					<midPointStop  offset="0.71" style="stop-color:#D06B55"/>
					<midPointStop  offset="0.25" style="stop-color:#FAE5DB"/>
					<midPointStop  offset="0.31" style="stop-color:#FAE5DB"/>
					<midPointStop  offset="0.39" style="stop-color:#D06B55"/>
					<midPointStop  offset="0.5" style="stop-color:#D06B55"/>
					<midPointStop  offset="1" style="stop-color:#000000"/>
				</linearGradient>
				<path style="fill:url(#XMLID_6_);" d="M285.208,21.048c-4.475-6.505-20.043-11.938-41.123-14.768v14.768H285.208z"/>
				
					<linearGradient id="XMLID_7_" gradientUnits="userSpaceOnUse" x1="28.5562" y1="-25.271" x2="25.556" y2="39.0623" gradientTransform="matrix(0.85 0 0 0.85 144.0857 16.0491)">
					<stop  offset="0" style="stop-color:#D06B55"/>
					<stop  offset="0.0417" style="stop-color:#D26E5A"/>
					<stop  offset="0.0828" style="stop-color:#D57964"/>
					<stop  offset="0.1237" style="stop-color:#DA8C76"/>
					<stop  offset="0.1646" style="stop-color:#E2A38E"/>
					<stop  offset="0.2053" style="stop-color:#ECC0AE"/>
					<stop  offset="0.2455" style="stop-color:#F8E1D6"/>
					<stop  offset="0.25" style="stop-color:#FAE5DB"/>
					<stop  offset="0.2715" style="stop-color:#EEC8B7"/>
					<stop  offset="0.2964" style="stop-color:#E4A894"/>
					<stop  offset="0.3212" style="stop-color:#DB8E79"/>
					<stop  offset="0.3453" style="stop-color:#D57B66"/>
					<stop  offset="0.3686" style="stop-color:#D26F5A"/>
					<stop  offset="0.39" style="stop-color:#D06B55"/>
					<stop  offset="1" style="stop-color:#000000"/>
					<midPointStop  offset="0" style="stop-color:#D06B55"/>
					<midPointStop  offset="0.71" style="stop-color:#D06B55"/>
					<midPointStop  offset="0.25" style="stop-color:#FAE5DB"/>
					<midPointStop  offset="0.31" style="stop-color:#FAE5DB"/>
					<midPointStop  offset="0.39" style="stop-color:#D06B55"/>
					<midPointStop  offset="0.5" style="stop-color:#D06B55"/>
					<midPointStop  offset="1" style="stop-color:#000000"/>
				</linearGradient>
				<path style="fill:url(#XMLID_7_);" d="M198.469,22.465V4.554c-32.947,1.477-58.728,8.775-62.822,17.911H198.469z"/>
				
					<linearGradient id="XMLID_8_" gradientUnits="userSpaceOnUse" x1="-13.5122" y1="-23.7397" x2="-14.9207" y2="6.4634" gradientTransform="matrix(0.85 0 0.8876 0.85 154.4073 17.3511)">
					<stop  offset="0" style="stop-color:#D06B55"/>
					<stop  offset="0.0417" style="stop-color:#D26E5A"/>
					<stop  offset="0.0828" style="stop-color:#D57964"/>
					<stop  offset="0.1237" style="stop-color:#DA8C76"/>
					<stop  offset="0.1646" style="stop-color:#E2A38E"/>
					<stop  offset="0.2053" style="stop-color:#ECC0AE"/>
					<stop  offset="0.2455" style="stop-color:#F8E1D6"/>
					<stop  offset="0.25" style="stop-color:#FAE5DB"/>
					<stop  offset="0.2715" style="stop-color:#EEC8B7"/>
					<stop  offset="0.2964" style="stop-color:#E4A894"/>
					<stop  offset="0.3212" style="stop-color:#DB8E79"/>
					<stop  offset="0.3453" style="stop-color:#D57B66"/>
					<stop  offset="0.3686" style="stop-color:#D26F5A"/>
					<stop  offset="0.39" style="stop-color:#D06B55"/>
					<stop  offset="1" style="stop-color:#000000"/>
					<midPointStop  offset="0" style="stop-color:#D06B55"/>
					<midPointStop  offset="0.71" style="stop-color:#D06B55"/>
					<midPointStop  offset="0.25" style="stop-color:#FAE5DB"/>
					<midPointStop  offset="0.31" style="stop-color:#FAE5DB"/>
					<midPointStop  offset="0.39" style="stop-color:#D06B55"/>
					<midPointStop  offset="0.5" style="stop-color:#D06B55"/>
					<midPointStop  offset="1" style="stop-color:#000000"/>
				</linearGradient>
				<path style="fill:url(#XMLID_8_);" d="M164.937,10.305l-10.5-10.055h-59.5l20.416,19.55h26.131
					C145.926,16.054,154.155,12.776,164.937,10.305z"/>
			</g>
			<path style="fill:none;stroke:#000000;stroke-width:0.5;" d="M263.442,10.062c-0.007-0.002-0.014-0.003-0.021-0.005
				c-2.076-0.554-4.266-1.075-6.562-1.561c-0.001,0-0.002-0.001-0.004-0.001c-0.561-0.119-1.127-0.235-1.7-0.35
				c-0.027-0.005-0.054-0.011-0.081-0.016c-2.336-0.465-4.772-0.895-7.299-1.286c-0.014-0.002-0.028-0.004-0.042-0.006
				c-0.606-0.094-1.217-0.185-1.833-0.274c-0.043-0.006-0.085-0.012-0.128-0.019c-0.627-0.09-1.259-0.178-1.896-0.264
				c0,0-0.001,0-0.001,0l0,0c-10.048-1.349-21.346-2.107-33.292-2.107c-17.978,0-34.488,1.716-47.477,4.582l-8.88-8.504h-59.5
				l20.415,19.55h22.029c-1.512,1.634-2.318,3.346-2.318,5.109c0,11.452,33.907,20.736,75.731,20.736
				c41.825,0,75.732-9.284,75.732-20.736C286.313,19.087,277.549,13.828,263.442,10.062z"/>
			<rect x="160.899" y="12.296" style="fill:#FFFFFF;" width="102" height="24"/> 
			<polygon style="fill:#FFFF00;stroke:#000000;stroke-width:0.5;" points="215.899,21.296 220.399,18.796 218.899,22.296 
				225.899,24.296 217.399,26.296 215.899,28.796 211.899,26.296 203.899,22.296 210.399,22.296 210.399,18.296 213.899,20.796 "/>
			<g>
				<path style="fill:none;stroke:#000000;stroke-width:0.5;" d="M224.551,27.977c0.262-1.645,0.398-3.332,0.398-5.051
					c0-0.752-0.026-1.499-0.077-2.238"/>
				<path style="fill:none;stroke:#000000;stroke-width:0.5;" d="M227.734,28.159c0.275-1.727,0.418-3.499,0.418-5.304
					c0-0.79-0.027-1.574-0.082-2.35"/>
				<path style="fill:none;stroke:#000000;stroke-width:0.5;" d="M230.916,28.351c0.289-1.813,0.438-3.674,0.438-5.569
					c0-0.83-0.029-1.652-0.085-2.468"/>
				<path style="fill:none;stroke:#000000;stroke-width:0.5;" d="M234.097,28.549c0.303-1.904,0.46-3.857,0.46-5.847
					c0-0.871-0.03-1.735-0.089-2.591"/>
				<path style="fill:none;stroke:#000000;stroke-width:0.5;" d="M237.278,28.76c0.318-2,0.483-4.05,0.483-6.14
					c0-0.915-0.032-1.822-0.094-2.721"/>
				<path style="fill:none;stroke:#000000;stroke-width:0.5;" d="M240.458,28.982c0.334-2.1,0.508-4.253,0.508-6.447
					c0-0.96-0.033-1.913-0.099-2.857"/>
				<path style="fill:none;stroke:#000000;stroke-width:0.5;" d="M243.638,29.217c0.351-2.205,0.533-4.466,0.533-6.769
					c0-1.008-0.035-2.009-0.104-3"/>
			</g>
			<g>
				<path style="fill:none;stroke:#000000;stroke-width:0.5;" d="M204.799,26.977c-0.262-1.645-0.397-3.332-0.397-5.051
					c0-0.752,0.026-1.499,0.077-2.238"/>
				<path style="fill:none;stroke:#000000;stroke-width:0.5;" d="M201.616,27.159c-0.275-1.727-0.417-3.499-0.417-5.304
					c0-0.79,0.027-1.574,0.081-2.35"/>
				<path style="fill:none;stroke:#000000;stroke-width:0.5;" d="M198.435,27.351c-0.289-1.813-0.439-3.674-0.439-5.569
					c0-0.83,0.029-1.652,0.085-2.468"/>
				<path style="fill:none;stroke:#000000;stroke-width:0.5;" d="M195.253,27.549c-0.303-1.904-0.461-3.857-0.461-5.847
					c0-0.871,0.03-1.735,0.09-2.591"/>
				<path style="fill:none;stroke:#000000;stroke-width:0.5;" d="M192.072,27.76c-0.318-2-0.484-4.05-0.484-6.14
					c0-0.915,0.032-1.822,0.094-2.721"/>
				<path style="fill:none;stroke:#000000;stroke-width:0.5;" d="M188.892,27.982c-0.334-2.1-0.508-4.253-0.508-6.447
					c0-0.96,0.034-1.913,0.099-2.857"/>
				<path style="fill:none;stroke:#000000;stroke-width:0.5;" d="M185.712,28.217c-0.351-2.205-0.533-4.466-0.533-6.769
					c0-1.008,0.035-2.009,0.104-3"/>
			</g>
		</g>
		<rect y="21.905" style="fill:none;" width="320.315" height="2.834"/> 
	</g>
</svg>
