<?xml version="1.0" encoding="iso-8859-1"?>
<!-- Generator: Adobe Illustrator 11 Build 196, SVG Export Plug-In . SVG Version: 6.0.0 Build 78)  -->
<!DOCTYPE svg PUBLIC "-//W3C//DTD SVG 1.0//EN"    "http://www.w3.org/TR/2001/REC-SVG-20010904/DTD/svg10.dtd" [
	<!ENTITY ns_flows "http://ns.adobe.com/Flows/1.0/">
	<!ENTITY ns_svg "http://www.w3.org/2000/svg">
	<!ENTITY ns_xlink "http://www.w3.org/1999/xlink">
]>
<svg  
	 width="346.845" height="124.742" viewBox="0 0 346.845 124.742"
	 style="overflow:visible;enable-background:new 0 0 346.845 124.742" xml:space="preserve">
	<style type="text/css">
	
	</style>
	<g id="Layer_1">
		<polygon style="fill:#DCF2F7;" points="345.625,20.267 345.625,10.4 26.958,10.4 26.958,20.267 27.225,20.267 27.225,107.067 
			26.958,107.067 26.958,116.933 345.625,116.933 345.625,107.067 345.434,107.067 345.434,20.267 "/>
		<rect x="56.358" y="20.267" style="fill:#FFFFFF;" width="264.542" height="86.8"/> 
		<path style="fill:#DCF2D8;" d="M212.643,78.479c17.22,0,31.18-6.482,31.18-14.479l0,0c0-7.996-13.96-14.479-31.18-14.479h-43.786
			c-17.22,0-31.18,6.482-31.18,14.479l0,0c0,7.996,13.96,14.479,31.18,14.479H212.643z"/>
		<g>
			<g>
				<g>
					<text transform="matrix(1 0 0 1 1.25 8.75)"><tspan x="0" y="0" style="font-family:'Courier'; font-size:8;">      -1.00 -0.80 -0.60 -0.40 -0.20 -0.00  0.20  0.40  0.60  0.80  1.00 </tspan></text>
				</g>
			</g>
			<g>
				<g>
					<text transform="matrix(1 0 0 1 1.25 18.25)"><tspan x="0" y="0" style="font-family:'Courier'; font-size:8;">-1.00 -1.00 -1.00 -1.00 -1.00 -1.00 -1.00 -1.00 -1.00 -1.00 -1.00       </tspan></text>
				</g>
			</g>
			<g>
				<g>
					<text transform="matrix(1 0 0 1 1.25 27.75)"><tspan x="0" y="0" style="font-family:'Courier'; font-size:8;">-0.80 -1.00 -0.98 -0.95 -0.91 -0.86 -0.80 -0.71 -0.59 -0.38  0.00  1.00 </tspan></text>
				</g>
			</g>
			<g>
				<g>
					<text transform="matrix(1 0 0 1 1.25 37.25)"><tspan x="0" y="0" style="font-family:'Courier'; font-size:8;">-0.60 -1.00 -0.95 -0.88 -0.81 -0.71 -0.60 -0.45 -0.26 -0.00  0.38  1.00 </tspan></text>
				</g>
			</g>
			<g>
				<g>
					<text transform="matrix(1 0 0 1 1.25 46.75)"><tspan x="0" y="0" style="font-family:'Courier'; font-size:8;">-0.40 -1.00 -0.91 -0.81 -0.69 -0.56 -0.40 -0.22 -0.00  0.26  0.59  1.00 </tspan></text>
				</g>
			</g>
			<g>
				<g>
					<text transform="matrix(1 0 0 1 1.25 56.25)"><tspan x="0" y="0" style="font-family:'Courier'; font-size:8;">-0.20 -1.00 -0.86 -0.71 -0.56 -0.38 -0.20 -0.00  0.22  0.45  0.71  1.00 </tspan></text>
				</g>
			</g>
			<g>
				<g>
					<text transform="matrix(1 0 0 1 1.25 65.75)"><tspan x="0" y="0" style="font-family:'Courier'; font-size:8;">-0.00 -1.00 -0.80 -0.60 -0.40 -0.20 -0.00  0.20  0.40  0.60  0.80  1.00 </tspan></text>
				</g>
			</g>
			<g>
				<g>
					<text transform="matrix(1 0 0 1 6.0488 75.25)"><tspan x="0" y="0" style="font-family:'Courier'; font-size:8;">0.20 -1.00 -0.71 -0.45 -0.22 -0.00  0.20  0.38  0.56  0.71  0.86  1.00 </tspan></text>
				</g>
			</g>
			<g>
				<g>
					<text transform="matrix(1 0 0 1 1.25 84.75)"><tspan x="0" y="0" style="font-family:'Courier'; font-size:8;"> 0.40 -1.00 -0.59 -0.26 -0.00  0.22  0.40  0.56  0.69  0.81  0.91  1.00 </tspan></text>
				</g>
			</g>
			<g>
				<g>
					<text transform="matrix(1 0 0 1 1.25 94.25)"><tspan x="0" y="0" style="font-family:'Courier'; font-size:8;"> 0.60 -1.00 -0.38 -0.00  0.26  0.45  0.60  0.71  0.81  0.88  0.95  1.00 </tspan></text>
				</g>
			</g>
			<g>
				<g>
					<text transform="matrix(1 0 0 1 1.25 103.75)"><tspan x="0" y="0" style="font-family:'Courier'; font-size:8;"> 0.80 -1.00  0.00  0.38  0.59  0.71  0.80  0.86  0.91  0.95  0.98  1.00 </tspan></text>
				</g>
			</g>
			<g>
				<g>
					<text transform="matrix(1 0 0 1 1.25 113.25)"><tspan x="0" y="0" style="font-family:'Courier'; font-size:8;"> 1.00        1.00  1.00  1.00  1.00  1.00  1.00  1.00  1.00  1.00  1.00 </tspan></text>
				</g>
			</g>
			<g>
				<g>
					<text transform="matrix(1 0 0 1 1.25 122.75)"><tspan x="0" y="0" style="font-family:'Courier'; font-size:8;"> </tspan></text>
				</g>
			</g>
		</g>
		<rect x="0.25" y="0.25" style="fill:none;stroke:#000000;stroke-width:0.5;" width="345.333" height="117.333"/> 
		<line style="fill:none;stroke:#000000;stroke-width:0.5;" x1="27.25" y1="0.5" x2="27.25" y2="117.5"/>
		<line style="fill:none;stroke:#000000;stroke-width:0.5;" x1="0.5" y1="10.75" x2="345.583" y2="10.75"/>
	</g>
</svg>
