<?xml version="1.0" encoding="iso-8859-1"?>
<!-- Generator: Adobe Illustrator 11 Build 196, SVG Export Plug-In . SVG Version: 6.0.0 Build 78)  -->
<!DOCTYPE svg PUBLIC "-//W3C//DTD SVG 1.0//EN"    "http://www.w3.org/TR/2001/REC-SVG-20010904/DTD/svg10.dtd" [
	<!ENTITY ns_flows "http://ns.adobe.com/Flows/1.0/">
	<!ENTITY ns_svg "http://www.w3.org/2000/svg">
	<!ENTITY ns_xlink "http://www.w3.org/1999/xlink">
]>
<svg  
	 width="147.402" height="169.012" viewBox="0 0 147.402 169.012"
	 style="overflow:visible;enable-background:new 0 0 147.402 169.012" xml:space="preserve">
	<style type="text/css">
	
	</style>
	<g id="Layer_1">
		<polyline style="fill:none;stroke:#000000;stroke-width:0.5;" points="15.963,1.545 15.963,78.782 147.401,78.782 "/>
		<g>
			<g>
				<text transform="matrix(1 0 0 1 0.823 10)"><tspan x="0" y="0" style="font-family:Liberation Sans; font-size:8.500000;">PE</tspan></text>
			</g>
		</g>
		<g>
			<g>
				<text transform="matrix(1 0 0 1 133.6946 86.1772)"><tspan x="0" y="0" style="font-family:Liberation Sans; font-size:8.500000;">x</tspan></text>
			</g>
		</g>
		<polyline style="fill:none;stroke:#000000;" points="15.963,37.529 84.015,37.529 84.015,5.911 108.707,5.911 108.707,46.863 
			144.54,46.863 "/>
		<line style="fill:none;stroke:#000000;stroke-width:0.5;" x1="16.421" y1="91.775" x2="16.421" y2="169.012"/>
		<g>
			<g>
				<text transform="matrix(1 0 0 1 6.686 102.9902)"><tspan x="0" y="0" style="font-family:'Symbol'; font-size:10;">&#x3A8;</tspan></text>
			</g>
		</g>
		<g>
			<path style="fill:none;stroke:#000000;" d="M16.895,132.327c0.892-11.489,1.199-14.382,1.477-16.944
				c0.278-2.562,0.453-3.141,0.57-3.719s0.395-1.405,0.6-1.323c0.205,0.083,0.424,0.414,0.585,1.323s0.409,2.314,0.585,3.885
				c0.176,1.57,0.336,2.893,0.585,5.869s0.19,1.653,0.877,10.91"/>
			<path style="fill:none;stroke:#000000;" d="M22.184,132.322c0.892,11.489,1.199,14.382,1.477,16.944
				c0.278,2.562,0.453,3.141,0.57,3.719c0.117,0.579,0.395,1.405,0.6,1.323c0.205-0.083,0.424-0.414,0.585-1.323
				c0.161-0.909,0.41-2.314,0.585-3.885c0.175-1.57,0.336-2.893,0.585-5.869c0.249-2.976,0.19-1.653,0.877-10.91"/>
		</g>
		<g>
			<path style="fill:none;stroke:#000000;" d="M27.391,132.327c0.892-11.489,1.199-14.382,1.477-16.944
				c0.278-2.562,0.453-3.141,0.57-3.719s0.395-1.405,0.6-1.323c0.205,0.083,0.424,0.414,0.585,1.323s0.409,2.314,0.585,3.885
				c0.175,1.57,0.336,2.893,0.585,5.869c0.249,2.976,0.19,1.653,0.877,10.91"/>
			<path style="fill:none;stroke:#000000;" d="M32.681,132.322c0.892,11.489,1.199,14.382,1.477,16.944
				c0.278,2.562,0.453,3.141,0.57,3.719c0.117,0.579,0.395,1.405,0.6,1.323c0.205-0.083,0.424-0.414,0.585-1.323
				c0.161-0.909,0.409-2.314,0.585-3.885c0.175-1.57,0.336-2.893,0.585-5.869c0.248-2.976,0.19-1.653,0.877-10.91"/>
		</g>
		<g>
			<path style="fill:none;stroke:#000000;" d="M37.888,132.327c0.892-11.489,1.199-14.382,1.477-16.944
				c0.278-2.562,0.454-3.141,0.571-3.719s0.395-1.405,0.6-1.323c0.205,0.083,0.424,0.414,0.585,1.323
				c0.161,0.909,0.409,2.314,0.585,3.885c0.175,1.57,0.336,2.893,0.585,5.869c0.249,2.976,0.19,1.653,0.877,10.91"/>
			<path style="fill:none;stroke:#000000;" d="M43.178,132.322c0.892,11.489,1.199,14.382,1.477,16.944
				c0.278,2.562,0.453,3.141,0.57,3.719c0.117,0.579,0.395,1.405,0.6,1.323c0.205-0.083,0.424-0.414,0.585-1.323
				c0.161-0.909,0.41-2.314,0.585-3.885c0.176-1.57,0.336-2.893,0.585-5.869c0.249-2.976,0.19-1.653,0.877-10.91"/>
		</g>
		<g>
			<path style="fill:none;stroke:#000000;" d="M48.385,132.327c0.892-11.489,1.199-14.382,1.477-16.944
				c0.278-2.562,0.453-3.141,0.57-3.719c0.117-0.579,0.395-1.405,0.6-1.323c0.205,0.083,0.424,0.414,0.585,1.323
				c0.161,0.909,0.409,2.314,0.585,3.885c0.175,1.57,0.336,2.893,0.584,5.869c0.249,2.976,0.19,1.653,0.878,10.91"/>
			<path style="fill:none;stroke:#000000;" d="M53.675,132.322c0.892,11.489,1.199,14.382,1.477,16.944
				c0.278,2.562,0.453,3.141,0.57,3.719c0.117,0.579,0.395,1.405,0.6,1.323c0.205-0.083,0.424-0.414,0.584-1.323
				c0.161-0.909,0.41-2.314,0.585-3.885c0.176-1.57,0.336-2.893,0.585-5.869c0.249-2.976,0.19-1.653,0.878-10.91"/>
		</g>
		<g>
			<path style="fill:none;stroke:#000000;" d="M58.882,132.327c0.892-11.489,1.199-14.382,1.477-16.944
				c0.278-2.562,0.453-3.141,0.57-3.719s0.395-1.405,0.6-1.323c0.205,0.083,0.424,0.414,0.585,1.323
				c0.161,0.909,0.41,2.314,0.585,3.885c0.175,1.57,0.336,2.893,0.585,5.869s0.19,1.653,0.877,10.91"/>
			<path style="fill:none;stroke:#000000;" d="M64.171,132.322c0.892,11.489,1.199,14.382,1.477,16.944
				c0.278,2.562,0.454,3.141,0.57,3.719s0.395,1.405,0.6,1.323c0.205-0.083,0.424-0.414,0.585-1.323
				c0.161-0.909,0.409-2.314,0.585-3.885c0.175-1.57,0.336-2.893,0.585-5.869s0.19-1.653,0.877-10.91"/>
		</g>
		<g>
			<path style="fill:none;stroke:#000000;" d="M69.378,132.327c0.892-11.489,1.2-14.382,1.478-16.944
				c0.278-2.562,0.453-3.141,0.57-3.719c0.117-0.579,0.395-1.405,0.599-1.323c0.205,0.083,0.424,0.414,0.585,1.323
				c0.161,0.909,0.409,2.314,0.584,3.885c0.176,1.57,0.336,2.893,0.585,5.869c0.249,2.976,0.19,1.653,0.877,10.91"/>
			<path style="fill:none;stroke:#000000;" d="M74.668,132.322c0.892,11.489,1.199,14.382,1.477,16.944
				c0.278,2.562,0.454,3.141,0.57,3.719c0.117,0.579,0.395,1.405,0.6,1.323c0.205-0.083,0.424-0.414,0.584-1.323
				c0.161-0.909,0.41-2.314,0.585-3.885c0.176-1.57,0.336-2.893,0.585-5.869s0.19-1.653,0.877-10.91"/>
		</g>
		<path style="fill:none;stroke:#000000;" d="M79.875,132.327c0.892-11.489,1.199-14.382,1.477-16.944
			c0.278-2.562,0.453-3.141,0.57-3.719s0.395-1.405,0.6-1.323c0.205,0.083,0.424,0.414,0.585,1.323c0.078,0.441,0.177,1,0.278,1.637
			l1.007,2.519c2.861,7.001,22.166,15.395,23.295,15.997"/>
		<path style="fill:none;stroke:#000000;" d="M107.687,131.816c0.138,0.052,0.351,0.131,0.501,0.22
			c0.15,0.088,0.288,0.163,0.5,0.332c0.213,0.168,0.163,0.093,0.751,0.616"/>
		<path style="fill:none;stroke:#000000;" d="M109.449,132.983c0.764,0.649,1.026,0.812,1.265,0.957
			c0.238,0.145,0.388,0.177,0.488,0.21s0.338,0.08,0.514,0.075s0.363-0.023,0.5-0.075c0.138-0.051,0.351-0.131,0.501-0.22
			c0.15-0.088,0.288-0.163,0.501-0.331c0.213-0.168,0.163-0.094,0.751-0.616"/>
		<g>
			<path style="fill:none;stroke:#000000;" d="M113.908,132.983c0.764-0.649,1.027-0.812,1.265-0.957
				c0.238-0.145,0.389-0.178,0.489-0.21c0.1-0.032,0.338-0.079,0.513-0.075c0.175,0.005,0.363,0.023,0.501,0.075
				c0.138,0.052,0.351,0.131,0.501,0.22c0.15,0.088,0.288,0.163,0.501,0.332c0.213,0.168,0.163,0.093,0.751,0.616"/>
			<path style="fill:none;stroke:#000000;" d="M118.438,132.983c0.764,0.649,1.027,0.812,1.265,0.957
				c0.238,0.145,0.388,0.177,0.488,0.21s0.338,0.08,0.513,0.075s0.363-0.023,0.501-0.075s0.351-0.131,0.501-0.22
				c0.15-0.088,0.288-0.163,0.501-0.331c0.213-0.168,0.163-0.094,0.751-0.616"/>
		</g>
		<g>
			<path style="fill:none;stroke:#000000;" d="M122.897,132.983c0.764-0.649,1.027-0.812,1.265-0.957
				c0.238-0.145,0.388-0.178,0.488-0.21c0.101-0.032,0.338-0.079,0.514-0.075c0.175,0.005,0.363,0.023,0.501,0.075
				c0.138,0.052,0.351,0.131,0.501,0.22c0.15,0.088,0.288,0.163,0.501,0.332c0.213,0.168,0.163,0.093,0.751,0.616"/>
			<path style="fill:none;stroke:#000000;" d="M127.427,132.983c0.764,0.649,1.027,0.812,1.265,0.957
				c0.238,0.145,0.388,0.177,0.488,0.21c0.101,0.033,0.338,0.08,0.514,0.075s0.363-0.023,0.501-0.075s0.351-0.131,0.501-0.22
				c0.15-0.088,0.288-0.163,0.501-0.331c0.213-0.168,0.163-0.094,0.751-0.616"/>
		</g>
		<g>
			<path style="fill:none;stroke:#000000;" d="M131.886,132.983c0.764-0.649,1.027-0.812,1.265-0.957
				c0.238-0.145,0.388-0.178,0.488-0.21c0.1-0.032,0.338-0.079,0.514-0.075c0.175,0.005,0.363,0.023,0.501,0.075
				c0.138,0.052,0.351,0.131,0.501,0.22c0.15,0.088,0.288,0.163,0.5,0.332c0.213,0.168,0.163,0.093,0.751,0.616"/>
			<path style="fill:none;stroke:#000000;" d="M136.416,132.983c0.764,0.649,1.026,0.812,1.265,0.957
				c0.238,0.145,0.388,0.177,0.488,0.21c0.101,0.033,0.338,0.08,0.514,0.075s0.363-0.023,0.501-0.075s0.351-0.131,0.501-0.22
				c0.15-0.088,0.288-0.163,0.5-0.331c0.213-0.168,0.163-0.094,0.751-0.616"/>
		</g>
		<path style="fill:none;stroke:#000000;" d="M140.875,132.983c0.764-0.649,1.027-0.812,1.265-0.957
			c0.238-0.145,0.388-0.178,0.488-0.21c0.1-0.032,0.338-0.079,0.513-0.075c0.176,0.005,0.363,0.023,0.501,0.075
			c0.138,0.052,0.351,0.131,0.501,0.22c0.15,0.088,0.288,0.163,0.501,0.332c0.213,0.168,0.163,0.093,0.751,0.616"/>
		<path style="fill:none;stroke:#000000;" d="M145.405,132.983c0.764,0.649,1.027,0.812,1.265,0.957"/>
		<line style="fill:none;stroke:#000000;stroke-width:0.5;" x1="19.275" y1="132.682" x2="146.723" y2="132.682"/>
		<g>
			<g>
				<text transform="matrix(1 0 0 1 133.6946 142.2373)"><tspan x="0" y="0" style="font-family:Liberation Sans; font-size:8.500000;">x</tspan></text>
			</g>
		</g>
		<rect y="55.774" style="fill:none;" width="147.402" height="2.834"/> 
	</g>
</svg>
