<?xml version="1.0" encoding="iso-8859-1"?>
<!-- Generator: Adobe Illustrator 11 Build 196, SVG Export Plug-In . SVG Version: 6.0.0 Build 78)  -->
<!DOCTYPE svg PUBLIC "-//W3C//DTD SVG 1.0//EN"    "http://www.w3.org/TR/2001/REC-SVG-20010904/DTD/svg10.dtd" [
	<!ENTITY ns_flows "http://ns.adobe.com/Flows/1.0/">
	<!ENTITY ns_svg "http://www.w3.org/2000/svg">
	<!ENTITY ns_xlink "http://www.w3.org/1999/xlink">
]>
<svg  
	 width="147.882" height="114.991" viewBox="0 0 147.882 114.991"
	 style="overflow:visible;enable-background:new 0 0 147.882 114.991" xml:space="preserve">
	<style type="text/css">
	
	</style>
	<g id="Layer_1">
		<rect x="34.91" y="91.549" style="fill:#EDEDED;" width="112.229" height="1.257"/> 
		<path style="fill:#EDEDED;stroke:#000000;stroke-width:2;stroke-linecap:square;stroke-miterlimit:1;" d="M146.839,91.549
			c-8.194-0.356-12.825-0.356-18.881-3.207c-6.056-2.85-7.481-7.481-9.975-11.4c-2.494-3.918-6.056-12.112-9.975-24.225
			c-3.919-12.112-5.344-16.387-8.194-22.087c-2.85-5.7-5.344-11.4-8.55-11.4l-0.077,0.01c-3.207,0-5.7,5.7-8.55,11.4
			c-2.85,5.7-4.275,9.975-8.194,22.087c-3.919,12.112-7.481,20.306-9.975,24.225c-2.494,3.918-3.919,8.55-9.975,11.4
			s-10.688,2.85-18.881,3.206"/>
		<g>
			<line style="fill:none;stroke:#000000;stroke-width:0.3;" x1="34.91" y1="80.248" x2="147.135" y2="80.248"/>
			<line style="fill:none;stroke:#000000;" x1="34.91" y1="67.958" x2="147.135" y2="67.958"/>
			<line style="fill:none;stroke:#000000;stroke-width:0.3;" x1="34.91" y1="55.667" x2="147.135" y2="55.667"/>
			<line style="fill:none;stroke:#000000;" x1="34.91" y1="43.376" x2="147.135" y2="43.376"/>
			<line style="fill:none;stroke:#000000;stroke-width:0.3;" x1="34.91" y1="31.086" x2="147.135" y2="31.086"/>
			<line style="fill:none;stroke:#000000;" x1="34.91" y1="18.795" x2="147.135" y2="18.795"/>
			<line style="fill:none;stroke:#000000;" x1="46.133" y1="92.806" x2="46.133" y2="10.513"/>
			<line style="fill:none;stroke:#000000;" x1="68.578" y1="92.806" x2="68.578" y2="10.513"/>
			<line style="fill:none;stroke:#000000;" x1="91.022" y1="92.806" x2="91.022" y2="10.513"/>
			<line style="fill:none;stroke:#000000;" x1="113.468" y1="92.806" x2="113.468" y2="10.513"/>
			<line style="fill:none;stroke:#000000;" x1="135.913" y1="92.806" x2="135.913" y2="10.513"/>
			<g>
				<rect x="34.91" y="10.513" style="fill:none;stroke:#000000;stroke-width:0.3;" width="112.225" height="82.293"/> 
				<line style="fill:none;stroke:#000000;stroke-width:0.3;" x1="40.521" y1="92.806" x2="40.521" y2="10.513"/>
				<line style="fill:none;stroke:#000000;stroke-width:0.3;" x1="51.744" y1="92.806" x2="51.744" y2="10.513"/>
				<line style="fill:none;stroke:#000000;stroke-width:0.3;" x1="57.355" y1="92.806" x2="57.355" y2="10.513"/>
				<line style="fill:none;stroke:#000000;stroke-width:0.3;" x1="62.966" y1="92.806" x2="62.966" y2="10.513"/>
				<line style="fill:none;stroke:#000000;stroke-width:0.3;" x1="74.189" y1="92.806" x2="74.189" y2="10.513"/>
				<line style="fill:none;stroke:#000000;stroke-width:0.3;" x1="79.8" y1="92.806" x2="79.8" y2="10.513"/>
				<line style="fill:none;stroke:#000000;stroke-width:0.3;" x1="85.412" y1="92.806" x2="85.412" y2="10.513"/>
				<line style="fill:none;stroke:#000000;stroke-width:0.3;" x1="96.634" y1="92.806" x2="96.634" y2="10.513"/>
				<line style="fill:none;stroke:#000000;stroke-width:0.3;" x1="102.245" y1="92.806" x2="102.245" y2="10.513"/>
				<line style="fill:none;stroke:#000000;stroke-width:0.3;" x1="107.856" y1="92.806" x2="107.856" y2="10.513"/>
				<line style="fill:none;stroke:#000000;stroke-width:0.3;" x1="119.079" y1="92.806" x2="119.079" y2="10.513"/>
				<line style="fill:none;stroke:#000000;stroke-width:0.3;" x1="124.69" y1="92.806" x2="124.69" y2="10.513"/>
				<line style="fill:none;stroke:#000000;stroke-width:0.3;" x1="130.301" y1="92.806" x2="130.301" y2="10.513"/>
				<line style="fill:none;stroke:#000000;stroke-width:0.3;" x1="141.524" y1="92.806" x2="141.524" y2="10.513"/>
			</g>
		</g>
		<g>
			<g>
				<text transform="matrix(1 0 0 1 37.8789 101.9204)"><tspan x="0" y="0" style="font-family:Liberation Sans; font-size:7.650000;">120</tspan></text>
			</g>
		</g>
		<g>
			<g>
				<text transform="matrix(1 0 0 1 60.3887 101.9204)"><tspan x="0" y="0" style="font-family:Liberation Sans; font-size:7.650000;">140</tspan></text>
			</g>
		</g>
		<g>
			<g>
				<text transform="matrix(1 0 0 1 82.8984 101.9204)"><tspan x="0" y="0" style="font-family:Liberation Sans; font-size:7.650000;">160</tspan></text>
			</g>
		</g>
		<g>
			<g>
				<text transform="matrix(1 0 0 1 105.4077 101.9204)"><tspan x="0" y="0" style="font-family:Liberation Sans; font-size:7.650000;">180</tspan></text>
			</g>
		</g>
		<g>
			<g>
				<text transform="matrix(1 0 0 1 127.9175 101.9204)"><tspan x="0" y="0" style="font-family:Liberation Sans; font-size:7.650000;">200</tspan></text>
			</g>
		</g>
		<g>
			<g>
				<text transform="matrix(1 0 0 1 14.8677 95.2036)"><tspan x="0" y="0" style="font-family:Liberation Sans; font-size:7.650000;">0.00</tspan></text>
			</g>
		</g>
		<g>
			<g>
				<text transform="matrix(1 0 0 1 14.8677 70.5332)"><tspan x="0" y="0" style="font-family:Liberation Sans; font-size:7.650000;">0.01</tspan></text>
			</g>
		</g>
		<g>
			<g>
				<text transform="matrix(1 0 0 1 14.8677 45.8628)"><tspan x="0" y="0" style="font-family:Liberation Sans; font-size:7.650000;">0.02</tspan></text>
			</g>
		</g>
		<g>
			<g>
				<text transform="matrix(1 0 0 1 14.8677 21.1929)"><tspan x="0" y="0" style="font-family:Liberation Sans; font-size:7.650000;">0.03</tspan></text>
			</g>
		</g>
		<line style="fill:none;stroke:#000000;" x1="34.91" y1="92.806" x2="147.135" y2="92.806"/>
		<g>
			<g>
				<text transform="matrix(1 0 0 1 73.8599 110.9746)"><tspan x="0" y="0" style="font-family:Liberation Sans; font-size:7.650000;">height (cm)</tspan></text>
			</g>
		</g>
		<g>
			<g>
				<text transform="matrix(0 -1 1 0 10.375 109.4038)"><tspan x="0" y="0" style="font-family:Liberation Sans; font-size:7.650000;">prob. per unit height (cm</tspan></text>
			</g>
			<g>
				<text transform="matrix(0 -1 1 0 8 11.8921)"><tspan x="0" y="0" style="font-family:Liberation Sans; font-size:6.800000;">&#x2013;1</tspan></text>
			</g>
			<g>
				<text transform="matrix(0 -1 1 0 10.375 2.9976)"><tspan x="0" y="0" style="font-family:Liberation Sans; font-size:7.650000;">)</tspan></text>
			</g>
		</g>
		<rect x="0.48" y="66.103" style="fill:none;" width="147.401" height="2.834"/> 
	</g>
</svg>
