<?xml version="1.0" encoding="iso-8859-1"?>
<!-- Generator: Adobe Illustrator 11 Build 196, SVG Export Plug-In . SVG Version: 6.0.0 Build 78)  -->
<!DOCTYPE svg PUBLIC "-//W3C//DTD SVG 1.0//EN"    "http://www.w3.org/TR/2001/REC-SVG-20010904/DTD/svg10.dtd" [
	<!ENTITY ns_flows "http://ns.adobe.com/Flows/1.0/">
	<!ENTITY ns_svg "http://www.w3.org/2000/svg">
	<!ENTITY ns_xlink "http://www.w3.org/1999/xlink">
]>
<svg  
	 width="147.402" height="121.786" viewBox="0 0 147.402 121.786"
	 style="overflow:visible;enable-background:new 0 0 147.402 121.786" xml:space="preserve">
	<style type="text/css">
	
	</style>
	<g id="Layer_1">
		<rect y="65.094" width="147.402" height="56.692"/> 
		<rect width="147.402" height="56.692"/> 
		<g>
			<g>
				<line style="fill:none;stroke:#7F7F7F;stroke-width:0.4;" x1="1.417" y1="65.133" x2="1.417" y2="121.748"/>
				<line style="fill:none;stroke:#7F7F7F;stroke-width:0.4;" x1="9.921" y1="65.133" x2="9.921" y2="121.748"/>
				<line style="fill:none;stroke:#7F7F7F;stroke-width:0.4;" x1="18.425" y1="65.133" x2="18.425" y2="121.748"/>
				<line style="fill:none;stroke:#7F7F7F;stroke-width:0.4;" x1="26.929" y1="65.133" x2="26.929" y2="121.748"/>
				<line style="fill:none;stroke:#7F7F7F;stroke-width:0.4;" x1="35.433" y1="65.133" x2="35.433" y2="121.748"/>
				<line style="fill:none;stroke:#7F7F7F;stroke-width:0.4;" x1="43.937" y1="65.133" x2="43.937" y2="121.748"/>
				<line style="fill:none;stroke:#7F7F7F;stroke-width:0.4;" x1="52.441" y1="65.133" x2="52.441" y2="121.748"/>
				<line style="fill:none;stroke:#7F7F7F;stroke-width:0.4;" x1="60.945" y1="65.133" x2="60.945" y2="121.748"/>
				<line style="fill:none;stroke:#7F7F7F;stroke-width:0.4;" x1="69.449" y1="65.133" x2="69.449" y2="121.748"/>
				<line style="fill:none;stroke:#7F7F7F;stroke-width:0.4;" x1="77.953" y1="65.133" x2="77.953" y2="121.748"/>
				<line style="fill:none;stroke:#7F7F7F;stroke-width:0.4;" x1="86.457" y1="65.133" x2="86.457" y2="121.748"/>
				<line style="fill:none;stroke:#7F7F7F;stroke-width:0.4;" x1="94.96" y1="65.133" x2="94.96" y2="121.748"/>
				<line style="fill:none;stroke:#7F7F7F;stroke-width:0.4;" x1="103.464" y1="65.133" x2="103.464" y2="121.748"/>
				<line style="fill:none;stroke:#7F7F7F;stroke-width:0.4;" x1="111.969" y1="65.133" x2="111.969" y2="121.748"/>
				<line style="fill:none;stroke:#7F7F7F;stroke-width:0.4;" x1="120.473" y1="65.133" x2="120.473" y2="121.748"/>
				<line style="fill:none;stroke:#7F7F7F;stroke-width:0.4;" x1="128.977" y1="65.133" x2="128.977" y2="121.748"/>
				<line style="fill:none;stroke:#7F7F7F;stroke-width:0.4;" x1="137.48" y1="65.133" x2="137.48" y2="121.748"/>
				<line style="fill:none;stroke:#7F7F7F;stroke-width:0.4;" x1="145.984" y1="65.133" x2="145.984" y2="121.748"/>
			</g>
			<g>
				<line style="fill:none;stroke:#7F7F7F;stroke-width:0.4;" x1="0.034" y1="67.929" x2="147.368" y2="67.929"/>
				<line style="fill:none;stroke:#7F7F7F;stroke-width:0.4;" x1="0.034" y1="76.432" x2="147.368" y2="76.432"/>
				<line style="fill:none;stroke:#7F7F7F;stroke-width:0.4;" x1="0.034" y1="84.937" x2="147.368" y2="84.937"/>
				<line style="fill:none;stroke:#7F7F7F;stroke-width:0.4;" x1="0.034" y1="93.441" x2="147.368" y2="93.441"/>
				<line style="fill:none;stroke:#7F7F7F;stroke-width:0.4;" x1="0.034" y1="101.945" x2="147.368" y2="101.945"/>
				<line style="fill:none;stroke:#7F7F7F;stroke-width:0.4;" x1="0.034" y1="110.448" x2="147.368" y2="110.448"/>
				<line style="fill:none;stroke:#7F7F7F;stroke-width:0.4;" x1="0.034" y1="118.952" x2="147.368" y2="118.952"/>
			</g>
		</g>
		<g>
			<g>
				<line style="fill:none;stroke:#7F7F7F;stroke-width:0.4;" x1="1.417" y1="0.038" x2="1.417" y2="56.654"/>
				<line style="fill:none;stroke:#7F7F7F;stroke-width:0.4;" x1="9.921" y1="0.038" x2="9.921" y2="56.654"/>
				<line style="fill:none;stroke:#7F7F7F;stroke-width:0.4;" x1="18.425" y1="0.038" x2="18.425" y2="56.654"/>
				<line style="fill:none;stroke:#7F7F7F;stroke-width:0.4;" x1="26.929" y1="0.038" x2="26.929" y2="56.654"/>
				<line style="fill:none;stroke:#7F7F7F;stroke-width:0.4;" x1="35.433" y1="0.038" x2="35.433" y2="56.654"/>
				<line style="fill:none;stroke:#7F7F7F;stroke-width:0.4;" x1="43.937" y1="0.038" x2="43.937" y2="56.654"/>
				<line style="fill:none;stroke:#7F7F7F;stroke-width:0.4;" x1="52.441" y1="0.038" x2="52.441" y2="56.654"/>
				<line style="fill:none;stroke:#7F7F7F;stroke-width:0.4;" x1="60.945" y1="0.038" x2="60.945" y2="56.654"/>
				<line style="fill:none;stroke:#7F7F7F;stroke-width:0.4;" x1="69.449" y1="0.038" x2="69.449" y2="56.654"/>
				<line style="fill:none;stroke:#7F7F7F;stroke-width:0.4;" x1="77.953" y1="0.038" x2="77.953" y2="56.654"/>
				<line style="fill:none;stroke:#7F7F7F;stroke-width:0.4;" x1="86.457" y1="0.038" x2="86.457" y2="56.654"/>
				<line style="fill:none;stroke:#7F7F7F;stroke-width:0.4;" x1="94.96" y1="0.038" x2="94.96" y2="56.654"/>
				<line style="fill:none;stroke:#7F7F7F;stroke-width:0.4;" x1="103.464" y1="0.038" x2="103.464" y2="56.654"/>
				<line style="fill:none;stroke:#7F7F7F;stroke-width:0.4;" x1="111.969" y1="0.038" x2="111.969" y2="56.654"/>
				<line style="fill:none;stroke:#7F7F7F;stroke-width:0.4;" x1="120.473" y1="0.038" x2="120.473" y2="56.654"/>
				<line style="fill:none;stroke:#7F7F7F;stroke-width:0.4;" x1="128.977" y1="0.038" x2="128.977" y2="56.654"/>
				<line style="fill:none;stroke:#7F7F7F;stroke-width:0.4;" x1="137.48" y1="0.038" x2="137.48" y2="56.654"/>
				<line style="fill:none;stroke:#7F7F7F;stroke-width:0.4;" x1="145.984" y1="0.038" x2="145.984" y2="56.654"/>
			</g>
			<g>
				<line style="fill:none;stroke:#7F7F7F;stroke-width:0.4;" x1="0.034" y1="2.834" x2="147.368" y2="2.834"/>
				<line style="fill:none;stroke:#7F7F7F;stroke-width:0.4;" x1="0.034" y1="11.338" x2="147.368" y2="11.338"/>
				<line style="fill:none;stroke:#7F7F7F;stroke-width:0.4;" x1="0.034" y1="19.842" x2="147.368" y2="19.842"/>
				<line style="fill:none;stroke:#7F7F7F;stroke-width:0.4;" x1="0.034" y1="28.346" x2="147.368" y2="28.346"/>
				<line style="fill:none;stroke:#7F7F7F;stroke-width:0.4;" x1="0.034" y1="36.85" x2="147.368" y2="36.85"/>
				<line style="fill:none;stroke:#7F7F7F;stroke-width:0.4;" x1="0.034" y1="45.354" x2="147.368" y2="45.354"/>
				<line style="fill:none;stroke:#7F7F7F;stroke-width:0.4;" x1="0.034" y1="53.858" x2="147.368" y2="53.858"/>
			</g>
		</g>
		<circle style="fill:#FFFFFF;" cx="79.304" cy="17.978" r="0.709"/> 
		<circle style="fill:#FFFFFF;" cx="74.554" cy="14.228" r="0.709"/> 
		<circle style="fill:#FFFFFF;" cx="72.304" cy="20.978" r="0.709"/> 
		<circle style="fill:#FFFFFF;" cx="77.054" cy="21.728" r="0.709"/> 
		<circle style="fill:#FFFFFF;" cx="76.304" cy="30.978" r="0.709"/> 
		<circle style="fill:#FFFFFF;" cx="71.304" cy="28.228" r="0.709"/> 
		<circle style="fill:#FFFFFF;" cx="71.554" cy="29.978" r="0.709"/> 
		<circle style="fill:#FFFFFF;" cx="78.013" cy="30.519" r="0.709"/> 
		<circle style="fill:#FFFFFF;" cx="73.304" cy="36.728" r="0.709"/> 
		<circle style="fill:#FFFFFF;" cx="79.804" cy="34.728" r="0.709"/> 
		<circle style="fill:#FFFFFF;" cx="81.304" cy="22.728" r="0.709"/> 
		<circle style="fill:#FFFFFF;" cx="74.554" cy="25.228" r="0.709"/> 
		<circle style="fill:#FFFFFF;" cx="77.304" cy="40.228" r="0.709"/> 
		<circle style="fill:#FFFFFF;" cx="73.804" cy="28.728" r="0.709"/> 
		<circle style="fill:#FFFFFF;" cx="70.096" cy="46.437" r="0.709"/> 
		<circle style="fill:#FFFFFF;" cx="83.304" cy="29.978" r="0.709"/> 
		<circle style="fill:#FFFFFF;" cx="84.304" cy="41.228" r="0.709"/> 
		<circle style="fill:#FFFFFF;" cx="78.804" cy="45.478" r="0.709"/> 
		<circle style="fill:#FFFFFF;" cx="69.304" cy="33.478" r="0.709"/> 
		<circle style="fill:#FFFFFF;" cx="82.304" cy="13.978" r="0.709"/> 
		<circle style="fill:#FFFFFF;" cx="67.804" cy="14.478" r="0.709"/> 
		<circle style="fill:#FFFFFF;" cx="62.304" cy="27.895" r="0.709"/> 
		<circle style="fill:#FFFFFF;" cx="77.554" cy="26.478" r="0.709"/> 
		<circle style="fill:#FFFFFF;" cx="73.804" cy="31.228" r="0.709"/> 
		<circle style="fill:#FFFFFF;" cx="82.554" cy="34.978" r="0.709"/> 
		<circle style="fill:#FFFFFF;" cx="93.554" cy="33.978" r="0.709"/> 
		<circle style="fill:#FFFFFF;" cx="87.804" cy="20.228" r="0.709"/> 
		<circle style="fill:#FFFFFF;" cx="66.804" cy="23.228" r="0.709"/> 
		<circle style="fill:#FFFFFF;" cx="61.554" cy="15.478" r="0.709"/> 
		<circle style="fill:#FFFFFF;" cx="60.304" cy="36.478" r="0.709"/> 
		<circle style="fill:#FFFFFF;" cx="65.054" cy="43.728" r="0.709"/> 
		<circle style="fill:#FFFFFF;" cx="74.596" cy="32.437" r="0.709"/> 
		<circle style="fill:#FFFFFF;" cx="79.554" cy="27.478" r="0.709"/> 
		<circle style="fill:#FFFFFF;" cx="72.804" cy="23.728" r="0.709"/> 
		<circle style="fill:#FFFFFF;" cx="75.554" cy="7.728" r="0.709"/> 
		<circle style="fill:#FFFFFF;" cx="86.554" cy="43.728" r="0.709"/> 
		<circle style="fill:#FFFFFF;" cx="69.054" cy="34.978" r="0.709"/> 
		<circle style="fill:#FFFFFF;" cx="70.804" cy="39.228" r="0.709"/> 
		<circle style="fill:#FFFFFF;" cx="71.054" cy="40.728" r="0.709"/> 
		<circle style="fill:#FFFFFF;" cx="68.054" cy="42.978" r="0.709"/> 
		<circle style="fill:#FFFFFF;" cx="70.054" cy="10.978" r="0.709"/> 
		<circle style="fill:#FFFFFF;" cx="81.554" cy="8.978" r="0.709"/> 
		<circle style="fill:#FFFFFF;" cx="77.804" cy="12.978" r="0.709"/> 
		<circle style="fill:#FFFFFF;" cx="77.304" cy="19.478" r="0.709"/> 
		<circle style="fill:#FFFFFF;" cx="76.846" cy="24.687" r="0.709"/> 
		<circle style="fill:#FFFFFF;" cx="79.054" cy="37.978" r="0.709"/> 
		<circle style="fill:#FFFFFF;" cx="62.304" cy="41.978" r="0.709"/> 
		<circle style="fill:#FFFFFF;" cx="124.054" cy="31.228" r="0.709"/> 
		<circle style="fill:#FFFFFF;" cx="77.554" cy="16.478" r="0.709"/> 
		<circle style="fill:#FFFFFF;" cx="128.054" cy="30.478" r="0.709"/> 
		<circle style="fill:#FFFFFF;" cx="128.304" cy="14.228" r="0.709"/> 
		<circle style="fill:#FFFFFF;" cx="125.804" cy="13.228" r="0.709"/> 
		<circle style="fill:#FFFFFF;" cx="123.596" cy="17.187" r="0.709"/> 
		<circle style="fill:#FFFFFF;" cx="133.304" cy="18.728" r="0.709"/> 
		<circle style="fill:#FFFFFF;" cx="137.804" cy="26.478" r="0.709"/> 
		<circle style="fill:#FFFFFF;" cx="120.304" cy="23.228" r="0.709"/> 
		<circle style="fill:#FFFFFF;" cx="123.804" cy="37.978" r="0.709"/> 
		<circle style="fill:#FFFFFF;" cx="128.054" cy="45.728" r="0.709"/> 
		<circle style="fill:#FFFFFF;" cx="131.554" cy="53.978" r="0.709"/> 
		<circle style="fill:#FFFFFF;" cx="119.554" cy="38.478" r="0.709"/> 
		<circle style="fill:#FFFFFF;" cx="125.054" cy="49.728" r="0.709"/> 
		<circle style="fill:#FFFFFF;" cx="135.804" cy="34.728" r="0.709"/> 
		<circle style="fill:#FFFFFF;" cx="132.804" cy="29.728" r="0.709"/> 
		<circle style="fill:#FFFFFF;" cx="122.804" cy="13.978" r="0.709"/> 
		<circle style="fill:#FFFFFF;" cx="136.054" cy="14.228" r="0.709"/> 
		<circle style="fill:#FFFFFF;" cx="124.846" cy="8.187" r="0.709"/> 
		<circle style="fill:#FFFFFF;" cx="135.804" cy="7.228" r="0.709"/> 
		<circle style="fill:#FFFFFF;" cx="119.554" cy="13.478" r="0.709"/> 
		<circle style="fill:#FFFFFF;" cx="130.554" cy="35.978" r="0.709"/> 
		<circle style="fill:#FFFFFF;" cx="92.304" cy="25.228" r="0.709"/> 
		<circle style="fill:#FFFFFF;" cx="129.804" cy="26.478" r="0.709"/> 
		<circle style="fill:#FFFFFF;" cx="106.054" cy="14.728" r="0.709"/> 
		<circle style="fill:#FFFFFF;" cx="116.013" cy="34.937" r="0.709"/> 
		<circle style="fill:#FFFFFF;" cx="96.054" cy="24.478" r="0.709"/> 
		<circle style="fill:#FFFFFF;" cx="112.304" cy="43.728" r="0.709"/> 
		<circle style="fill:#FFFFFF;" cx="21.554" cy="30.228" r="0.709"/> 
		<circle style="fill:#FFFFFF;" cx="21.304" cy="17.478" r="0.709"/> 
		<circle style="fill:#FFFFFF;" cx="25.554" cy="29.478" r="0.709"/> 
		<circle style="fill:#FFFFFF;" cx="25.804" cy="13.228" r="0.709"/> 
		<circle style="fill:#FFFFFF;" cx="24.304" cy="22.978" r="0.709"/> 
		<circle style="fill:#FFFFFF;" cx="23.304" cy="12.228" r="0.709"/> 
		<circle style="fill:#FFFFFF;" cx="21.054" cy="21.228" r="0.709"/> 
		<circle style="fill:#FFFFFF;" cx="29.096" cy="15.687" r="0.709"/> 
		<circle style="fill:#FFFFFF;" cx="35.304" cy="25.478" r="0.709"/> 
		<circle style="fill:#FFFFFF;" cx="17.804" cy="22.228" r="0.709"/> 
		<circle style="fill:#FFFFFF;" cx="21.304" cy="46.478" r="0.709"/> 
		<circle style="fill:#FFFFFF;" cx="23.554" cy="40.228" r="0.709"/> 
		<circle style="fill:#FFFFFF;" cx="65.304" cy="28.228" r="0.709"/> 
		<circle style="fill:#FFFFFF;" cx="31.304" cy="37.478" r="0.709"/> 
		<circle style="fill:#FFFFFF;" cx="17.054" cy="37.478" r="0.709"/> 
		<circle style="fill:#FFFFFF;" cx="22.554" cy="48.728" r="0.709"/> 
		<circle style="fill:#FFFFFF;" cx="33.304" cy="33.728" r="0.709"/> 
		<circle style="fill:#FFFFFF;" cx="30.304" cy="28.728" r="0.709"/> 
		<circle style="fill:#FFFFFF;" cx="20.304" cy="12.978" r="0.709"/> 
		<circle style="fill:#FFFFFF;" cx="33.054" cy="25.228" r="0.709"/> 
		<circle style="fill:#FFFFFF;" cx="25.596" cy="11.937" r="0.709"/> 
		<circle style="fill:#FFFFFF;" cx="25.304" cy="4.728" r="0.709"/> 
		<circle style="fill:#FFFFFF;" cx="30.596" cy="14.687" r="0.709"/> 
		<circle style="fill:#FFFFFF;" cx="33.804" cy="17.478" r="0.709"/> 
		<circle style="fill:#FFFFFF;" cx="15.304" cy="27.228" r="0.709"/> 
		<circle style="fill:#FFFFFF;" cx="27.304" cy="25.478" r="0.709"/> 
		<circle style="fill:#FFFFFF;" cx="13.054" cy="42.728" r="0.709"/> 
		<circle style="fill:#FFFFFF;" cx="44.304" cy="10.228" r="0.709"/> 
		<circle style="fill:#FFFFFF;" cx="52.054" cy="22.978" r="0.709"/> 
		<circle style="fill:#FFFFFF;" cx="23.054" cy="33.228" r="0.709"/> 
		<circle style="fill:#FFFFFF;" cx="51.054" cy="42.728" r="0.709"/> 
		<circle style="fill:#FFFFFF;" cx="79.304" cy="86.478" r="0.709"/> 
		<circle style="fill:#FFFFFF;" cx="74.554" cy="82.728" r="0.709"/> 
		<circle style="fill:#FFFFFF;" cx="72.304" cy="89.478" r="0.709"/> 
		<circle style="fill:#FFFFFF;" cx="77.054" cy="90.228" r="0.709"/> 
		<circle style="fill:#FFFFFF;" cx="76.304" cy="99.478" r="0.709"/> 
		<circle style="fill:#FFFFFF;" cx="71.304" cy="96.728" r="0.709"/> 
		<circle style="fill:#FFFFFF;" cx="71.554" cy="98.478" r="0.709"/> 
		<circle style="fill:#FFFFFF;" cx="78.013" cy="99.02" r="0.709"/> 
		<circle style="fill:#FFFFFF;" cx="73.304" cy="105.228" r="0.709"/> 
		<circle style="fill:#FFFFFF;" cx="75.263" cy="93.02" r="0.709"/> 
		<circle style="fill:#FFFFFF;" cx="81.304" cy="91.228" r="0.709"/> 
		<circle style="fill:#FFFFFF;" cx="74.554" cy="93.728" r="0.709"/> 
		<circle style="fill:#FFFFFF;" cx="77.304" cy="108.728" r="0.709"/> 
		<circle style="fill:#FFFFFF;" cx="76.054" cy="103.478" r="0.709"/> 
		<circle style="fill:#FFFFFF;" cx="73.304" cy="109.228" r="0.709"/> 
		<circle style="fill:#FFFFFF;" cx="83.304" cy="98.478" r="0.709"/> 
		<circle style="fill:#FFFFFF;" cx="86.304" cy="94.478" r="0.709"/> 
		<circle style="fill:#FFFFFF;" cx="76.804" cy="111.478" r="0.709"/> 
		<circle style="fill:#FFFFFF;" cx="69.304" cy="101.978" r="0.709"/> 
		<circle style="fill:#FFFFFF;" cx="82.304" cy="82.478" r="0.709"/> 
		<circle style="fill:#FFFFFF;" cx="68.804" cy="87.978" r="0.709"/> 
		<circle style="fill:#FFFFFF;" cx="68.304" cy="95.728" r="0.709"/> 
		<circle style="fill:#FFFFFF;" cx="77.554" cy="94.978" r="0.709"/> 
		<circle style="fill:#FFFFFF;" cx="73.804" cy="99.728" r="0.709"/> 
		<circle style="fill:#FFFFFF;" cx="82.554" cy="103.478" r="0.709"/> 
		<circle style="fill:#FFFFFF;" cx="93.554" cy="102.478" r="0.709"/> 
		<circle style="fill:#FFFFFF;" cx="80.054" cy="98.478" r="0.709"/> 
		<circle style="fill:#FFFFFF;" cx="62.304" cy="91.728" r="0.709"/> 
		<circle style="fill:#FFFFFF;" cx="71.304" cy="83.978" r="0.709"/> 
		<circle style="fill:#FFFFFF;" cx="65.554" cy="98.228" r="0.709"/> 
		<circle style="fill:#FFFFFF;" cx="72.054" cy="111.728" r="0.709"/> 
		<circle style="fill:#FFFFFF;" cx="82.054" cy="91.728" r="0.709"/> 
		<circle style="fill:#FFFFFF;" cx="79.554" cy="95.978" r="0.709"/> 
		<circle style="fill:#FFFFFF;" cx="72.804" cy="92.228" r="0.709"/> 
		<circle style="fill:#FFFFFF;" cx="75.554" cy="76.228" r="0.709"/> 
		<circle style="fill:#FFFFFF;" cx="75.054" cy="106.728" r="0.709"/> 
		<circle style="fill:#FFFFFF;" cx="69.054" cy="103.478" r="0.709"/> 
		<circle style="fill:#FFFFFF;" cx="70.804" cy="107.728" r="0.709"/> 
		<circle style="fill:#FFFFFF;" cx="78.304" cy="102.228" r="0.709"/> 
		<circle style="fill:#FFFFFF;" cx="72.554" cy="102.978" r="0.709"/> 
		<circle style="fill:#FFFFFF;" cx="71.054" cy="78.228" r="0.709"/> 
		<circle style="fill:#FFFFFF;" cx="75.096" cy="88.437" r="0.709"/> 
		<circle style="fill:#FFFFFF;" cx="77.804" cy="81.478" r="0.709"/> 
		<circle style="fill:#FFFFFF;" cx="77.304" cy="87.978" r="0.709"/> 
		<circle style="fill:#FFFFFF;" cx="76.846" cy="93.187" r="0.709"/> 
		<circle style="fill:#FFFFFF;" cx="79.054" cy="106.478" r="0.709"/> 
		<circle style="fill:#FFFFFF;" cx="63.804" cy="108.228" r="0.709"/> 
		<circle style="fill:#FFFFFF;" cx="106.304" cy="91.478" r="0.709"/> 
		<circle style="fill:#FFFFFF;" cx="108.554" cy="94.896" r="0.709"/> 
		<circle style="fill:#FFFFFF;" cx="108.304" cy="87.646" r="0.709"/> 
		<circle style="fill:#FFFFFF;" cx="108.054" cy="103.896" r="0.709"/> 
		<circle style="fill:#FFFFFF;" cx="135.304" cy="84.978" r="0.709"/> 
		<circle style="fill:#FFFFFF;" cx="110.554" cy="104.896" r="0.709"/> 
		<circle style="fill:#FFFFFF;" cx="106.304" cy="84.728" r="0.709"/> 
		<circle style="fill:#FFFFFF;" cx="103.054" cy="99.396" r="0.709"/> 
		<circle style="fill:#FFFFFF;" cx="98.554" cy="91.646" r="0.709"/> 
		<circle style="fill:#FFFFFF;" cx="108.054" cy="90.228" r="0.709"/> 
		<circle style="fill:#FFFFFF;" cx="103.304" cy="91.478" r="0.709"/> 
		<circle style="fill:#FFFFFF;" cx="104.054" cy="101.228" r="0.709"/> 
		<circle style="fill:#FFFFFF;" cx="105.304" cy="77.646" r="0.709"/> 
		<circle style="fill:#FFFFFF;" cx="103.554" cy="75.478" r="0.709"/> 
		<circle style="fill:#FFFFFF;" cx="105.054" cy="94.728" r="0.709"/> 
		<circle style="fill:#FFFFFF;" cx="105.554" cy="113.728" r="0.709"/> 
		<circle style="fill:#FFFFFF;" cx="96.804" cy="84.396" r="0.709"/> 
		<circle style="fill:#FFFFFF;" cx="103.554" cy="88.396" r="0.709"/> 
		<circle style="fill:#FFFFFF;" cx="110.346" cy="79.187" r="0.709"/> 
		<circle style="fill:#FFFFFF;" cx="100.304" cy="103.896" r="0.709"/> 
		<circle style="fill:#FFFFFF;" cx="108.263" cy="105.187" r="0.709"/> 
		<circle style="fill:#FFFFFF;" cx="111.513" cy="109.937" r="0.709"/> 
		<circle style="fill:#FFFFFF;" cx="100.554" cy="110.896" r="0.709"/> 
		<circle style="fill:#FFFFFF;" cx="117.554" cy="80.228" r="0.709"/> 
		<circle style="fill:#FFFFFF;" cx="104.054" cy="105.228" r="0.709"/> 
		<circle style="fill:#FFFFFF;" cx="109.054" cy="105.228" r="0.709"/> 
		<circle style="fill:#FFFFFF;" cx="106.554" cy="91.646" r="0.709"/> 
		<circle style="fill:#FFFFFF;" cx="106.054" cy="83.228" r="0.709"/> 
		<circle style="fill:#FFFFFF;" cx="110.804" cy="91.228" r="0.709"/> 
		<circle style="fill:#FFFFFF;" cx="90.846" cy="78.687" r="0.709"/> 
		<circle style="fill:#FFFFFF;" cx="109.304" cy="108.896" r="0.709"/> 
		<circle style="fill:#FFFFFF;" cx="42.804" cy="93.396" r="0.709"/> 
		<circle style="fill:#FFFFFF;" cx="43.054" cy="106.146" r="0.709"/> 
		<circle style="fill:#FFFFFF;" cx="47.054" cy="87.396" r="0.709"/> 
		<circle style="fill:#FFFFFF;" cx="46.804" cy="103.646" r="0.709"/> 
		<circle style="fill:#FFFFFF;" cx="40.054" cy="100.646" r="0.709"/> 
		<circle style="fill:#FFFFFF;" cx="41.054" cy="111.396" r="0.709"/> 
		<circle style="fill:#FFFFFF;" cx="43.304" cy="102.396" r="0.709"/> 
		<circle style="fill:#FFFFFF;" cx="43.513" cy="101.187" r="0.709"/> 
		<circle style="fill:#FFFFFF;" cx="37.304" cy="91.396" r="0.709"/> 
		<circle style="fill:#FFFFFF;" cx="46.554" cy="101.396" r="0.709"/> 
		<circle style="fill:#FFFFFF;" cx="43.054" cy="77.146" r="0.709"/> 
		<circle style="fill:#FFFFFF;" cx="40.804" cy="83.396" r="0.709"/> 
		<circle style="fill:#FFFFFF;" cx="44.554" cy="87.646" r="0.709"/> 
		<circle style="fill:#FFFFFF;" cx="23.304" cy="86.646" r="0.709"/> 
		<circle style="fill:#FFFFFF;" cx="47.304" cy="86.146" r="0.709"/> 
		<circle style="fill:#FFFFFF;" cx="41.804" cy="74.896" r="0.709"/> 
		<circle style="fill:#FFFFFF;" cx="39.304" cy="83.146" r="0.709"/> 
		<circle style="fill:#FFFFFF;" cx="42.304" cy="88.146" r="0.709"/> 
		<circle style="fill:#FFFFFF;" cx="44.054" cy="110.646" r="0.709"/> 
		<circle style="fill:#FFFFFF;" cx="39.554" cy="91.646" r="0.709"/> 
		<circle style="fill:#FFFFFF;" cx="47.013" cy="104.937" r="0.709"/> 
		<circle style="fill:#FFFFFF;" cx="47.304" cy="112.146" r="0.709"/> 
		<circle style="fill:#FFFFFF;" cx="42.013" cy="102.187" r="0.709"/> 
		<circle style="fill:#FFFFFF;" cx="43.304" cy="95.646" r="0.709"/> 
		<circle style="fill:#FFFFFF;" cx="38.804" cy="99.396" r="0.709"/> 
		<circle style="fill:#FFFFFF;" cx="49.054" cy="96.396" r="0.709"/> 
		<circle style="fill:#FFFFFF;" cx="45.304" cy="91.396" r="0.709"/> 
		<circle style="fill:#FFFFFF;" cx="35.304" cy="79.228" r="0.709"/> 
		<circle style="fill:#FFFFFF;" cx="47.304" cy="79.646" r="0.709"/> 
		<circle style="fill:#FFFFFF;" cx="44.304" cy="78.728" r="0.709"/> 
		<circle style="fill:#FFFFFF;" cx="59.554" cy="84.478" r="0.709"/> 
		<circle style="fill:#FFFFFF;" cx="41.304" cy="90.396" r="0.709"/> 
		<circle style="fill:#FFFFFF;" cx="53.804" cy="103.978" r="0.709"/> 
		<circle style="fill:#FFFFFF;" cx="136.304" cy="91.728" r="0.709"/> 
		<circle style="fill:#FFFFFF;" cx="73.054" cy="79.728" r="0.709"/> 
		<circle style="fill:#FFFFFF;" cx="44.054" cy="82.228" r="0.709"/> 
		<circle style="fill:#FFFFFF;" cx="80.721" cy="92.728" r="0.709"/> 
		<circle style="fill:#FFFFFF;" cx="87.221" cy="101.646" r="0.709"/> 
		<circle style="fill:#FFFFFF;" cx="75.388" cy="96.062" r="0.709"/> 
		<circle style="fill:#FFFFFF;" cx="78.221" cy="91.646" r="0.709"/> 
		<circle style="fill:#FFFFFF;" cx="74.888" cy="91.312" r="0.709"/> 
		<circle style="fill:#FFFFFF;" cx="77.804" cy="86.041" r="0.709"/> 
		<circle style="fill:#FFFFFF;" cx="77.804" cy="119.646" r="0.709"/> 
		<circle style="fill:#FFFFFF;" cx="73.93" cy="86.937" r="0.709"/> 
		<circle style="fill:#FFFFFF;" cx="82.388" cy="113.812" r="0.709"/> 
		<circle style="fill:#FFFFFF;" cx="69.721" cy="84.312" r="0.709"/> 
		<circle style="fill:#FFFFFF;" cx="50.054" cy="93.312" r="0.709"/> 
		<circle style="fill:#FFFFFF;" cx="114.763" cy="97.27" r="0.709"/> 
		<circle style="fill:#FFFFFF;" cx="50.721" cy="100.728" r="0.709"/> 
		<circle style="fill:#FFFFFF;" cx="52.221" cy="98.646" r="0.709"/> 
		<circle style="fill:#FFFFFF;" cx="47.054" cy="97.312" r="0.709"/> 
		<circle style="fill:#FFFFFF;" cx="39.054" cy="105.479" r="0.709"/> 
		<circle style="fill:#FFFFFF;" cx="35.888" cy="93.728" r="0.709"/> 
		<circle style="fill:#FFFFFF;" cx="112.388" cy="85.479" r="0.709"/> 
		<circle style="fill:#FFFFFF;" cx="131.054" cy="92.228" r="0.709"/> 
		<circle style="fill:#FFFFFF;" cx="107.554" cy="77.146" r="0.709"/> 
		<circle style="fill:#FFFFFF;" cx="82.554" cy="89.312" r="0.709"/> 
		<circle style="fill:#FFFFFF;" cx="83.43" cy="85.937" r="0.709"/> 
		<circle style="fill:#FFFFFF;" cx="60.221" cy="96.895" r="0.708"/> 
		<circle style="fill:#FFFFFF;" cx="81.554" cy="111.979" r="0.709"/> 
		<circle style="fill:#FFFFFF;" cx="71.054" cy="103.479" r="0.709"/> 
		<circle style="fill:#FFFFFF;" cx="71.846" cy="102.27" r="0.709"/> 
		<circle style="fill:#FFFFFF;" cx="81.888" cy="94.479" r="0.709"/> 
		<circle style="fill:#FFFFFF;" cx="77.388" cy="97.646" r="0.709"/> 
		<circle style="fill:#FFFFFF;" cx="75.388" cy="85.979" r="0.709"/> 
		<circle style="fill:#FFFFFF;" cx="72.221" cy="96.312" r="0.709"/> 
		<circle style="fill:#FFFFFF;" cx="3.554" cy="16.228" r="0.709"/> 
		<circle style="fill:#FFFFFF;" cx="22.554" cy="83.146" r="0.709"/> 
		<circle style="fill:#FFFFFF;" cx="12.054" cy="90.396" r="0.709"/> 
		<circle style="fill:#FFFFFF;" cx="16.304" cy="96.646" r="0.709"/> 
		<circle style="fill:#FFFFFF;" cx="135.304" cy="108.896" r="0.709"/> 
		<circle style="fill:#FFFFFF;" cx="138.054" cy="76.146" r="0.709"/> 
		<circle style="fill:#FFFFFF;" cx="129.554" cy="89.646" r="0.709"/> 
		<circle style="fill:#FFFFFF;" cx="136.054" cy="94.896" r="0.709"/> 
		<circle style="fill:#FFFFFF;" cx="129.554" cy="97.646" r="0.709"/> 
		<circle style="fill:#FFFFFF;" cx="143.054" cy="90.146" r="0.709"/> 
		<circle style="fill:#FFFFFF;" cx="19.804" cy="111.146" r="0.709"/> 
		<circle style="fill:#FFFFFF;" cx="137.304" cy="77.896" r="0.709"/> 
		<g>
			<g>
				<g>
					<text transform="matrix(1 0 0 1 2.8877 10.2698)"><tspan x="0" y="0" style="fill:#FFFFFF; font-family:Liberation Sans; font-size:7.650000;">A</tspan></text>
				</g>
			</g>
		</g>
		<g>
			<g>
				<g>
					<text transform="matrix(1 0 0 1 3.1377 75.7703)"><tspan x="0" y="0" style="fill:#FFFFFF; font-family:Liberation Sans; font-size:7.650000;">B</tspan></text>
				</g>
			</g>
		</g>
	</g>
</svg>
