<?xml version="1.0" encoding="UTF-8" standalone="no"?>
<!-- Generator: Adobe Illustrator 11 Build 196, SVG Export Plug-In . SVG Version: 6.0.0 Build 78)  -->

<svg
   xmlns:dc="http://purl.org/dc/elements/1.1/"
   xmlns:cc="http://creativecommons.org/ns#"
   xmlns:rdf="http://www.w3.org/1999/02/22-rdf-syntax-ns#"
   xmlns:svg="http://www.w3.org/2000/svg"
   xmlns="http://www.w3.org/2000/svg"
   xmlns:sodipodi="http://sodipodi.sourceforge.net/DTD/sodipodi-0.dtd"
   xmlns:inkscape="http://www.inkscape.org/namespaces/inkscape"
   width="147.402"
   height="176.116"
   viewBox="0 0 147.402 176.116"
   style="overflow:visible;enable-background:new 0 0 147.402 176.116"
   xml:space="preserve"
   id="svg2"
   version="1.1"
   sodipodi:docname="hw-photons-normalization.svg"><metadata
     id="metadata289"><rdf:RDF><cc:Work
         rdf:about=""><dc:format>image/svg+xml</dc:format><dc:type
           rdf:resource="http://purl.org/dc/dcmitype/StillImage" /></cc:Work></rdf:RDF></metadata><defs
     id="defs287" /><sodipodi:namedview
     pagecolor="#ffffff"
     bordercolor="#666666"
     borderopacity="1"
     objecttolerance="10"
     gridtolerance="10"
     guidetolerance="10"
     inkscape:pageopacity="0"
     inkscape:pageshadow="2"
     inkscape:window-width="1280"
     inkscape:window-height="996"
     id="namedview285"
     showgrid="false"
     inkscape:zoom="2.5616228"
     inkscape:cx="118.12649"
     inkscape:cy="71.250896"
     inkscape:window-x="0"
     inkscape:window-y="0"
     inkscape:window-maximized="1"
     inkscape:current-layer="svg2" /><g
     id="g5"><g
       id="g7"><line
         id="line9"
         y2="0.25"
         x2="147.325"
         y1="0.25"
         x1="0.045000002"
         style="fill:none;stroke:#b4b4b4;stroke-width:0.5" /><line
         id="line11"
         y2="3.0829999"
         x2="147.325"
         y1="3.0829999"
         x1="0.045000002"
         style="fill:none;stroke:#b4b4b4;stroke-width:0.5" /><line
         id="line13"
         y2="5.915"
         x2="147.325"
         y1="5.915"
         x1="0.045000002"
         style="fill:none;stroke:#b4b4b4;stroke-width:0.5" /><line
         id="line15"
         y2="8.7480001"
         x2="147.325"
         y1="8.7480001"
         x1="0.045000002"
         style="fill:none;stroke:#b4b4b4;stroke-width:0.5" /><line
         id="line17"
         y2="11.58"
         x2="147.325"
         y1="11.58"
         x1="0.045000002"
         style="fill:none;stroke:#b4b4b4;stroke-width:0.5" /><line
         id="line19"
         y2="14.413"
         x2="147.325"
         y1="14.413"
         x1="0.045000002"
         style="fill:none;stroke:#b4b4b4;stroke-width:0.5" /><line
         id="line21"
         y2="17.245001"
         x2="147.325"
         y1="17.245001"
         x1="0.045000002"
         style="fill:none;stroke:#b4b4b4;stroke-width:0.5" /><line
         id="line23"
         y2="20.077999"
         x2="147.325"
         y1="20.077999"
         x1="0.045000002"
         style="fill:none;stroke:#b4b4b4;stroke-width:0.5" /><line
         id="line25"
         y2="22.91"
         x2="147.325"
         y1="22.91"
         x1="0.045000002"
         style="fill:none;stroke:#b4b4b4;stroke-width:0.5" /><line
         id="line27"
         y2="25.743"
         x2="147.325"
         y1="25.743"
         x1="0.045000002"
         style="fill:none;stroke:#b4b4b4;stroke-width:0.5" /><line
         id="line29"
         y2="28.575001"
         x2="147.325"
         y1="28.575001"
         x1="0.045000002"
         style="fill:none;stroke:#b4b4b4;stroke-width:0.5" /><line
         id="line31"
         y2="31.408001"
         x2="147.325"
         y1="31.408001"
         x1="0.045000002"
         style="fill:none;stroke:#b4b4b4;stroke-width:0.5" /><line
         id="line33"
         y2="34.240002"
         x2="147.325"
         y1="34.240002"
         x1="0.045000002"
         style="fill:none;stroke:#b4b4b4;stroke-width:0.5" /><line
         id="line35"
         y2="37.073002"
         x2="147.325"
         y1="37.073002"
         x1="0.045000002"
         style="fill:none;stroke:#b4b4b4;stroke-width:0.5" /><line
         id="line37"
         y2="39.905998"
         x2="147.325"
         y1="39.905998"
         x1="0.045000002"
         style="fill:none;stroke:#b4b4b4;stroke-width:0.5" /><line
         id="line39"
         y2="42.737999"
         x2="147.325"
         y1="42.737999"
         x1="0.045000002"
         style="fill:none;stroke:#b4b4b4;stroke-width:0.5" /><line
         id="line41"
         y2="45.570999"
         x2="147.325"
         y1="45.570999"
         x1="0.045000002"
         style="fill:none;stroke:#b4b4b4;stroke-width:0.5" /><line
         id="line43"
         y2="48.403"
         x2="147.325"
         y1="48.403"
         x1="0.045000002"
         style="fill:none;stroke:#b4b4b4;stroke-width:0.5" /><line
         id="line45"
         y2="51.235001"
         x2="147.325"
         y1="51.235001"
         x1="0.045000002"
         style="fill:none;stroke:#b4b4b4;stroke-width:0.5" /><line
         id="line47"
         y2="54.068001"
         x2="147.325"
         y1="54.068001"
         x1="0.045000002"
         style="fill:none;stroke:#b4b4b4;stroke-width:0.5" /><line
         id="line49"
         y2="56.901001"
         x2="147.325"
         y1="56.901001"
         x1="0.045000002"
         style="fill:none;stroke:#b4b4b4;stroke-width:0.5" /><line
         id="line51"
         y2="59.733002"
         x2="147.325"
         y1="59.733002"
         x1="0.045000002"
         style="fill:none;stroke:#b4b4b4;stroke-width:0.5" /><line
         id="line53"
         y2="62.566002"
         x2="147.325"
         y1="62.566002"
         x1="0.045000002"
         style="fill:none;stroke:#b4b4b4;stroke-width:0.5" /><line
         id="line55"
         y2="65.398003"
         x2="147.325"
         y1="65.398003"
         x1="0.045000002"
         style="fill:none;stroke:#b4b4b4;stroke-width:0.5" /><line
         id="line57"
         y2="68.231003"
         x2="147.325"
         y1="68.231003"
         x1="0.045000002"
         style="fill:none;stroke:#b4b4b4;stroke-width:0.5" /><line
         id="line59"
         y2="71.063004"
         x2="147.325"
         y1="71.063004"
         x1="0.045000002"
         style="fill:none;stroke:#b4b4b4;stroke-width:0.5" /><line
         id="line61"
         y2="73.896004"
         x2="147.325"
         y1="73.896004"
         x1="0.045000002"
         style="fill:none;stroke:#b4b4b4;stroke-width:0.5" /><line
         id="line63"
         y2="76.727997"
         x2="147.325"
         y1="76.727997"
         x1="0.045000002"
         style="fill:none;stroke:#b4b4b4;stroke-width:0.5" /><line
         id="line65"
         y2="79.560997"
         x2="147.325"
         y1="79.560997"
         x1="0.045000002"
         style="fill:none;stroke:#b4b4b4;stroke-width:0.5" /><line
         id="line67"
         y2="82.392998"
         x2="147.325"
         y1="82.392998"
         x1="0.045000002"
         style="fill:none;stroke:#b4b4b4;stroke-width:0.5" /><line
         id="line69"
         y2="85.225998"
         x2="147.325"
         y1="85.225998"
         x1="0.045000002"
         style="fill:none;stroke:#b4b4b4;stroke-width:0.5" /><line
         id="line71"
         y2="88.057999"
         x2="147.325"
         y1="88.057999"
         x1="0.045000002"
         style="fill:none;stroke:#b4b4b4;stroke-width:0.5" /><line
         id="line73"
         y2="90.890999"
         x2="147.325"
         y1="90.890999"
         x1="0.045000002"
         style="fill:none;stroke:#b4b4b4;stroke-width:0.5" /><line
         id="line75"
         y2="93.723"
         x2="147.325"
         y1="93.723"
         x1="0.045000002"
         style="fill:none;stroke:#b4b4b4;stroke-width:0.5" /><line
         id="line77"
         y2="96.556"
         x2="147.325"
         y1="96.556"
         x1="0.045000002"
         style="fill:none;stroke:#b4b4b4;stroke-width:0.5" /><line
         id="line79"
         y2="99.388"
         x2="147.325"
         y1="99.388"
         x1="0.045000002"
         style="fill:none;stroke:#b4b4b4;stroke-width:0.5" /><line
         id="line81"
         y2="102.221"
         x2="147.325"
         y1="102.221"
         x1="0.045000002"
         style="fill:none;stroke:#b4b4b4;stroke-width:0.5" /><line
         id="line83"
         y2="105.053"
         x2="147.325"
         y1="105.053"
         x1="0.045000002"
         style="fill:none;stroke:#b4b4b4;stroke-width:0.5" /><line
         id="line85"
         y2="107.886"
         x2="147.325"
         y1="107.886"
         x1="0.045000002"
         style="fill:none;stroke:#b4b4b4;stroke-width:0.5" /><line
         id="line87"
         y2="110.719"
         x2="147.325"
         y1="110.719"
         x1="0.045000002"
         style="fill:none;stroke:#b4b4b4;stroke-width:0.5" /><line
         id="line89"
         y2="113.551"
         x2="147.325"
         y1="113.551"
         x1="0.045000002"
         style="fill:none;stroke:#b4b4b4;stroke-width:0.5" /><line
         id="line91"
         y2="116.384"
         x2="147.325"
         y1="116.384"
         x1="0.045000002"
         style="fill:none;stroke:#b4b4b4;stroke-width:0.5" /><line
         id="line93"
         y2="119.216"
         x2="147.325"
         y1="119.216"
         x1="0.045000002"
         style="fill:none;stroke:#b4b4b4;stroke-width:0.5" /><line
         id="line95"
         y2="122.049"
         x2="147.325"
         y1="122.049"
         x1="0.045000002"
         style="fill:none;stroke:#b4b4b4;stroke-width:0.5" /><line
         id="line97"
         y2="124.881"
         x2="147.325"
         y1="124.881"
         x1="0.045000002"
         style="fill:none;stroke:#b4b4b4;stroke-width:0.5" /><line
         id="line99"
         y2="127.714"
         x2="147.325"
         y1="127.714"
         x1="0.045000002"
         style="fill:none;stroke:#b4b4b4;stroke-width:0.5" /><line
         id="line101"
         y2="130.54601"
         x2="147.325"
         y1="130.54601"
         x1="0.045000002"
         style="fill:none;stroke:#b4b4b4;stroke-width:0.5" /><line
         id="line103"
         y2="133.379"
         x2="147.325"
         y1="133.379"
         x1="0.045000002"
         style="fill:none;stroke:#b4b4b4;stroke-width:0.5" /><line
         id="line105"
         y2="136.211"
         x2="147.325"
         y1="136.211"
         x1="0.045000002"
         style="fill:none;stroke:#b4b4b4;stroke-width:0.5" /><line
         id="line107"
         y2="139.04401"
         x2="147.325"
         y1="139.04401"
         x1="0.045000002"
         style="fill:none;stroke:#b4b4b4;stroke-width:0.5" /><line
         id="line109"
         y2="141.87601"
         x2="147.325"
         y1="141.87601"
         x1="0.045000002"
         style="fill:none;stroke:#b4b4b4;stroke-width:0.5" /><line
         id="line111"
         y2="144.709"
         x2="147.325"
         y1="144.709"
         x1="0.045000002"
         style="fill:none;stroke:#b4b4b4;stroke-width:0.5" /><line
         id="line113"
         y2="147.541"
         x2="147.325"
         y1="147.541"
         x1="0.045000002"
         style="fill:none;stroke:#b4b4b4;stroke-width:0.5" /><line
         id="line115"
         y2="150.37399"
         x2="147.325"
         y1="150.37399"
         x1="0.045000002"
         style="fill:none;stroke:#b4b4b4;stroke-width:0.5" /><line
         id="line117"
         y2="153.20599"
         x2="147.325"
         y1="153.20599"
         x1="0.045000002"
         style="fill:none;stroke:#b4b4b4;stroke-width:0.5" /><line
         id="line119"
         y2="156.039"
         x2="147.325"
         y1="156.039"
         x1="0.045000002"
         style="fill:none;stroke:#b4b4b4;stroke-width:0.5" /><line
         id="line121"
         y2="158.871"
         x2="147.325"
         y1="158.871"
         x1="0.045000002"
         style="fill:none;stroke:#b4b4b4;stroke-width:0.5" /><line
         id="line123"
         y2="161.70399"
         x2="147.325"
         y1="161.70399"
         x1="0.045000002"
         style="fill:none;stroke:#b4b4b4;stroke-width:0.5" /><line
         id="line125"
         y2="164.536"
         x2="147.325"
         y1="164.536"
         x1="0.045000002"
         style="fill:none;stroke:#b4b4b4;stroke-width:0.5" /><line
         id="line127"
         y2="167.369"
         x2="147.325"
         y1="167.369"
         x1="0.045000002"
         style="fill:none;stroke:#b4b4b4;stroke-width:0.5" /><line
         id="line129"
         y2="170.201"
         x2="147.325"
         y1="170.201"
         x1="0.045000002"
         style="fill:none;stroke:#b4b4b4;stroke-width:0.5" /><line
         id="line131"
         y2="173.034"
         x2="147.325"
         y1="173.034"
         x1="0.045000002"
         style="fill:none;stroke:#b4b4b4;stroke-width:0.5" /><line
         id="line133"
         y2="175.866"
         x2="147.325"
         y1="175.866"
         x1="0.045000002"
         style="fill:none;stroke:#b4b4b4;stroke-width:0.5" /></g><g
       id="g135"><line
         id="line137"
         y2="175.978"
         x2="147.151"
         y1="0.43200001"
         x1="147.151"
         style="fill:none;stroke:#b4b4b4;stroke-width:0.5" /><line
         id="line139"
         y2="175.978"
         x2="138.511"
         y1="0.43200001"
         x1="138.511"
         style="fill:none;stroke:#b4b4b4;stroke-width:0.5" /><line
         id="line141"
         y2="175.978"
         x2="129.87"
         y1="0.43200001"
         x1="129.87"
         style="fill:none;stroke:#b4b4b4;stroke-width:0.5" /><line
         id="line143"
         y2="175.978"
         x2="121.229"
         y1="0.43200001"
         x1="121.229"
         style="fill:none;stroke:#b4b4b4;stroke-width:0.5" /><line
         id="line145"
         y2="175.978"
         x2="112.589"
         y1="0.43200001"
         x1="112.589"
         style="fill:none;stroke:#b4b4b4;stroke-width:0.5" /><line
         id="line147"
         y2="175.978"
         x2="103.949"
         y1="0.43200001"
         x1="103.949"
         style="fill:none;stroke:#b4b4b4;stroke-width:0.5" /><line
         id="line149"
         y2="175.978"
         x2="95.307999"
         y1="0.43200001"
         x1="95.307999"
         style="fill:none;stroke:#b4b4b4;stroke-width:0.5" /><line
         id="line151"
         y2="175.978"
         x2="86.667"
         y1="0.43200001"
         x1="86.667"
         style="fill:none;stroke:#b4b4b4;stroke-width:0.5" /><line
         id="line153"
         y2="175.978"
         x2="78.027"
         y1="0.43200001"
         x1="78.027"
         style="fill:none;stroke:#b4b4b4;stroke-width:0.5" /><line
         id="line155"
         y2="175.978"
         x2="69.387001"
         y1="0.43200001"
         x1="69.387001"
         style="fill:none;stroke:#b4b4b4;stroke-width:0.5" /><line
         id="line157"
         y2="175.978"
         x2="60.745998"
         y1="0.43200001"
         x1="60.745998"
         style="fill:none;stroke:#b4b4b4;stroke-width:0.5" /><line
         id="line159"
         y2="175.978"
         x2="52.105"
         y1="0.43200001"
         x1="52.105"
         style="fill:none;stroke:#b4b4b4;stroke-width:0.5" /><line
         id="line161"
         y2="175.978"
         x2="43.465"
         y1="0.43200001"
         x1="43.465"
         style="fill:none;stroke:#b4b4b4;stroke-width:0.5" /><line
         id="line163"
         y2="175.978"
         x2="34.825001"
         y1="0.43200001"
         x1="34.825001"
         style="fill:none;stroke:#b4b4b4;stroke-width:0.5" /><line
         id="line165"
         y2="175.978"
         x2="26.184"
         y1="0.43200001"
         x1="26.184"
         style="fill:none;stroke:#b4b4b4;stroke-width:0.5" /><line
         id="line167"
         y2="175.978"
         x2="17.542999"
         y1="0.43200001"
         x1="17.542999"
         style="fill:none;stroke:#b4b4b4;stroke-width:0.5" /><line
         id="line169"
         y2="175.978"
         x2="8.9029999"
         y1="0.43200001"
         x1="8.9029999"
         style="fill:none;stroke:#b4b4b4;stroke-width:0.5" /><line
         id="line171"
         y2="175.978"
         x2="0.26300001"
         y1="0.43200001"
         x1="0.26300001"
         style="fill:none;stroke:#b4b4b4;stroke-width:0.5" /></g></g><g
     id="g173"><path
       inkscape:connector-curvature="0"
       id="path175"
       d="M 31.964,14.304 C 30.613,9.684 30.728,10.344 30.239,8.859 29.75,7.374 29.434,6.714 29.089,5.93 28.744,5.146 28.256,4.445 27.939,3.991 27.623,3.537 27.191,3.372 26.789,3.331 26.387,3.29 25.84,3.702 25.61,3.991 25.381,4.28 25.035,4.569 24.489,5.847 24.012,6.962 23.492,8.203 22.204,12.304"
       style="fill:none;stroke:#000000;stroke-width:1.5" /><path
       inkscape:connector-curvature="0"
       id="path177"
       d="m 22.206,12.305 c -0.007,0.023 -0.014,0.046 -0.021,0.07 0,0 -0.369,1.139 -1.323,1.566 -0.954,0.427 -1.546,0.329 -2.335,0.329 H 0.016"
       style="fill:none;stroke:#000000;stroke-width:1.5" /><path
       inkscape:connector-curvature="0"
       id="path179"
       d="m 125.11,15.976 c 0.007,-0.023 0.015,-0.046 0.022,-0.07 0,0 0.369,-1.138 1.322,-1.566 0.954,-0.428 1.546,-0.329 2.336,-0.329 h 18.51"
       style="fill:none;stroke:#000000;stroke-width:1.5" /><path
       inkscape:connector-curvature="0"
       id="path181"
       d="m 31.984,14.301 c 1.753,5.734 2.357,7.177 2.903,8.456 0.546,1.279 0.891,1.567 1.121,1.856 0.23,0.289 0.776,0.701 1.178,0.66 0.403,-0.041 0.834,-0.206 1.15,-0.66 0.316,-0.454 0.805,-1.155 1.15,-1.939 0.345,-0.784 0.661,-1.444 1.15,-2.929 0.489,-1.485 0.374,-0.825 1.725,-5.445"
       style="fill:none;stroke:#000000;stroke-width:1.5" /><path
       inkscape:connector-curvature="0"
       id="path183"
       d="m 42.381,14.304 c 1.754,-5.734 2.357,-7.177 2.903,-8.456 0.546,-1.279 0.891,-1.567 1.121,-1.856 0.23,-0.289 0.776,-0.701 1.179,-0.66 0.403,0.041 0.833,0.206 1.15,0.66 0.316,0.454 0.805,1.155 1.149,1.939 0.345,0.784 0.661,1.444 1.15,2.929 0.489,1.485 0.374,0.825 1.725,5.445"
       style="fill:none;stroke:#000000;stroke-width:1.5" /><path
       inkscape:connector-curvature="0"
       id="path185"
       d="m 52.778,14.301 c 1.753,5.734 2.357,7.177 2.903,8.456 0.546,1.279 0.891,1.567 1.121,1.856 0.23,0.289 0.776,0.701 1.179,0.66 0.403,-0.041 0.833,-0.206 1.15,-0.66 0.316,-0.454 0.805,-1.155 1.15,-1.939 0.345,-0.784 0.661,-1.444 1.149,-2.929 0.489,-1.485 0.374,-0.825 1.725,-5.445"
       style="fill:none;stroke:#000000;stroke-width:1.5" /><path
       inkscape:connector-curvature="0"
       id="path187"
       d="M 63.175,14.304 C 64.928,8.57 65.532,7.127 66.078,5.848 66.625,4.569 66.97,4.28 67.2,3.991 c 0.229,-0.289 0.776,-0.701 1.178,-0.66 0.402,0.041 0.833,0.206 1.15,0.66 0.316,0.454 0.805,1.155 1.15,1.939 0.345,0.784 0.661,1.444 1.15,2.929 0.488,1.485 0.374,0.825 1.725,5.445"
       style="fill:none;stroke:#000000;stroke-width:1.5" /><path
       inkscape:connector-curvature="0"
       id="path189"
       d="m 73.572,14.301 c 1.753,5.734 2.357,7.177 2.903,8.456 0.546,1.279 0.891,1.567 1.121,1.856 0.23,0.289 0.776,0.701 1.179,0.66 0.402,-0.041 0.833,-0.206 1.149,-0.66 0.316,-0.454 0.805,-1.155 1.15,-1.939 0.345,-0.784 0.661,-1.444 1.15,-2.929 0.489,-1.485 0.374,-0.825 1.725,-5.445"
       style="fill:none;stroke:#000000;stroke-width:1.5" /><path
       inkscape:connector-curvature="0"
       id="path191"
       d="m 83.97,14.304 c 1.753,-5.734 2.357,-7.177 2.903,-8.456 0.546,-1.279 0.891,-1.567 1.121,-1.856 0.23,-0.289 0.776,-0.701 1.179,-0.66 0.403,0.041 0.833,0.206 1.15,0.66 0.316,0.454 0.805,1.155 1.149,1.939 0.345,0.784 0.661,1.444 1.15,2.929 0.489,1.485 0.374,0.825 1.725,5.445"
       style="fill:none;stroke:#000000;stroke-width:1.5" /><path
       inkscape:connector-curvature="0"
       id="path193"
       d="m 94.367,14.301 c 1.753,5.734 2.357,7.177 2.903,8.456 0.546,1.279 0.891,1.567 1.121,1.856 0.229,0.289 0.776,0.701 1.178,0.66 0.403,-0.041 0.833,-0.206 1.15,-0.66 0.316,-0.454 0.805,-1.155 1.15,-1.939 0.345,-0.784 0.661,-1.444 1.149,-2.929 0.489,-1.485 0.374,-0.825 1.725,-5.445"
       style="fill:none;stroke:#000000;stroke-width:1.5" /><path
       inkscape:connector-curvature="0"
       id="path195"
       d="m 104.764,14.304 c 1.753,-5.734 2.357,-7.177 2.903,-8.456 0.546,-1.279 0.891,-1.567 1.121,-1.856 0.23,-0.289 0.776,-0.701 1.178,-0.66 0.403,0.041 0.834,0.206 1.15,0.66 0.316,0.454 0.805,1.155 1.15,1.939 0.345,0.784 0.661,1.444 1.15,2.929 0.489,1.485 0.374,0.825 1.725,5.445"
       style="fill:none;stroke:#000000;stroke-width:1.5" /><path
       inkscape:connector-curvature="0"
       id="path197"
       d="m 115.161,14.301 c 1.753,5.734 2.357,7.177 2.903,8.456 0.546,1.279 0.891,1.567 1.121,1.856 0.23,0.289 0.776,0.701 1.179,0.66 0.403,-0.041 0.833,-0.206 1.15,-0.66 0.316,-0.454 0.805,-1.155 1.149,-1.939 0.345,-0.784 0.661,-1.444 1.15,-2.929 0.432,-1.314 0.392,-0.949 1.312,-4.045"
       style="fill:none;stroke:#000000;stroke-width:1.5" /></g><path
     style="fill:none;stroke:#000000;stroke-width:1.5"
     d="m 11.098,103.201 c -0.003,0.023 -0.007,0.046 -0.011,0.07 0,0 -0.184,1.138 -0.66,1.566 -0.477,0.428 -0.772,0.329 -1.167,0.329 H 0.016"
     id="path203"
     inkscape:connector-curvature="0" /><path
     inkscape:connector-curvature="0"
     id="path227"
     d="m 113.66564,106.84801 c 0.003,-0.023 0.007,-0.046 0.011,-0.069 0,0 0.184,-1.139 0.661,-1.566 0.476,-0.428 0.772,-0.329 1.167,-0.329 h 31.014"
     style="fill:none;stroke:#000000;stroke-width:1.5" /><g
     id="g4212"
     transform="matrix(0.98996754,0,0,1,-0.20590931,0.2542405)"><path
       style="fill:none;stroke:#000000;stroke-width:1.50000012;stroke-miterlimit:4;stroke-dasharray:none"
       d="m 21.206188,105.10694 c -1.361804,-4.49345 -1.24479,-3.85152 -1.737057,-5.295848 -0.492266,-1.444323 -0.811029,-2.086244 -1.158037,-2.848769 -0.347008,-0.762525 -0.839275,-1.444323 -1.158038,-1.885887 -0.318763,-0.441564 -0.75454,-0.602045 -1.158038,-0.641922 -0.405514,-0.04085 -0.956288,0.360838 -1.1883,0.641922 -0.232011,0.281084 -0.579018,0.562167 -1.129792,1.80516 -0.480162,1.084459 -1.004709,2.290493 -2.301953,6.280134"
       id="path225"
       inkscape:connector-curvature="0" /><path
       style="fill:none;stroke:#000000;stroke-width:1.50000012;stroke-miterlimit:4;stroke-dasharray:none"
       d="m 21.226363,105.10403 c 1.765301,5.57596 2.374582,6.9804 2.925356,8.22437 0.550774,1.24397 0.897782,1.52408 1.129793,1.80516 0.232011,0.28108 0.782785,0.6818 1.1883,0.64192 0.405515,-0.0409 0.839275,-0.20036 1.158038,-0.64192 0.318763,-0.44156 0.81103,-1.12336 1.158038,-1.88491 0.347007,-0.76156 0.66577,-1.40445 1.158037,-2.84877 0.492267,-1.44433 0.37727,-0.8024 1.737057,-5.29585"
       id="path229"
       inkscape:connector-curvature="0" /><path
       style="fill:none;stroke:#000000;stroke-width:1.50000012;stroke-miterlimit:4;stroke-dasharray:none"
       d="m 31.701157,105.10694 c 1.765301,-5.576932 2.374582,-6.980405 2.925356,-8.224371 0.550774,-1.243966 0.897782,-1.524077 1.129793,-1.805161 0.232011,-0.281083 0.780767,-0.681798 1.186282,-0.641921 0.405515,0.03988 0.841293,0.200357 1.158038,0.641921 0.318763,0.441564 0.81103,1.123363 1.158038,1.885888 0.347008,0.762524 0.665771,1.404446 1.158037,2.848769 0.492267,1.444325 0.377271,0.802405 1.737057,5.295855"
       id="path231"
       inkscape:connector-curvature="0" /><path
       style="fill:none;stroke:#000000;stroke-width:1.50000012;stroke-miterlimit:4;stroke-dasharray:none"
       d="m 42.177968,105.10403 c 1.765301,5.57596 2.374582,6.9804 2.925356,8.22437 0.550774,1.24397 0.897782,1.52408 1.129793,1.80516 0.232011,0.28108 0.782785,0.6818 1.1883,0.64192 0.405515,-0.0409 0.83927,-0.20036 1.15804,-0.64192 0.31876,-0.44156 0.81103,-1.12336 1.15804,-1.88491 0.347,-0.76253 0.66577,-1.40445 1.15803,-2.84877 0.49227,-1.44433 0.37727,-0.8024 1.73706,-5.29585"
       id="path233"
       inkscape:connector-curvature="0" /><path
       style="fill:none;stroke:#000000;stroke-width:1.50000012;stroke-miterlimit:4;stroke-dasharray:none"
       d="m 52.652757,105.10694 c 1.76531,-5.576932 2.37459,-6.980405 2.92536,-8.224371 0.55077,-1.243966 0.89778,-1.524077 1.12979,-1.805161 0.23201,-0.281083 0.78279,-0.681798 1.18629,-0.641921 0.40551,0.03988 0.84129,0.200357 1.16005,0.641921 0.31876,0.441564 0.81103,1.123363 1.15804,1.885888 0.34701,0.762524 0.66577,1.404446 1.15804,2.848769 0.49226,1.444325 0.37727,0.802405 1.73705,5.295855"
       id="path235"
       inkscape:connector-curvature="0" /><path
       style="fill:none;stroke:#000000;stroke-width:1.50000012;stroke-miterlimit:4;stroke-dasharray:none"
       d="m 63.129577,105.10403 c 1.76731,5.57596 2.37458,6.9804 2.92535,8.22437 0.54876,1.24397 0.89778,1.52408 1.12979,1.80516 0.23202,0.28108 0.78279,0.6818 1.1883,0.64192 0.40552,-0.0409 0.83928,-0.20036 1.15804,-0.64192 0.31877,-0.44156 0.81103,-1.12336 1.15804,-1.88491 0.34701,-0.76253 0.66577,-1.40445 1.15804,-2.84877 0.49226,-1.44433 0.37727,-0.8024 1.73705,-5.29585"
       id="path237"
       inkscape:connector-curvature="0" /><path
       style="fill:none;stroke:#000000;stroke-width:1.50000012;stroke-miterlimit:4;stroke-dasharray:none"
       d="m 73.604367,105.10694 c 1.76732,-5.576932 2.37458,-6.980405 2.92536,-8.224371 0.54875,-1.243966 0.89778,-1.524077 1.12979,-1.805161 0.23201,-0.281083 0.78278,-0.681798 1.1883,-0.641921 0.40551,0.03988 0.83927,0.200357 1.15804,0.641921 0.31876,0.441564 0.81103,1.123363 1.15803,1.885888 0.34701,0.762524 0.66577,1.404446 1.15804,2.848769 0.49227,1.444325 0.37727,0.802405 1.73706,5.295855"
       id="path239"
       inkscape:connector-curvature="0" /><path
       style="fill:none;stroke:#000000;stroke-width:1.50000012;stroke-miterlimit:4;stroke-dasharray:none"
       d="m 84.079157,105.10403 c 1.76732,5.57596 2.37459,6.9804 2.92536,8.22437 0.54876,1.24397 0.89778,1.52408 1.12979,1.80516 0.23201,0.28108 0.78279,0.6818 1.1883,0.64192 0.40552,-0.0409 0.83928,-0.20036 1.15804,-0.64192 0.31876,-0.44156 0.81103,-1.12336 1.15804,-1.88491 0.34701,-0.76156 0.66577,-1.40445 1.15804,-2.84877 0.49226,-1.44433 0.37727,-0.8024 1.73705,-5.29585"
       id="path241"
       inkscape:connector-curvature="0" /><path
       style="fill:none;stroke:#000000;stroke-width:1.50000012;stroke-miterlimit:4;stroke-dasharray:none"
       d="m 94.555967,105.10694 c 1.76531,-5.576932 2.37459,-6.980405 2.92536,-8.224371 0.55077,-1.243966 0.89778,-1.524077 1.12979,-1.805161 0.23201,-0.281083 0.78077,-0.681798 1.18629,-0.641921 0.405513,0.03988 0.841293,0.200357 1.158033,0.641921 0.31675,0.441564 0.81103,1.123363 1.15804,1.885888 0.34701,0.762524 0.66577,1.404446 1.15804,2.848769 0.49227,1.444325 0.37727,0.802405 1.73706,5.295855"
       id="path243"
       inkscape:connector-curvature="0" /><path
       style="fill:none;stroke:#000000;stroke-width:1.50000012;stroke-miterlimit:4;stroke-dasharray:none"
       d="m 105.03279,105.10403 c 1.7653,5.57596 2.37458,6.9804 2.92535,8.22437 0.55078,1.24397 0.89778,1.52408 1.12979,1.80516 0.23202,0.28108 0.78077,0.6818 1.18629,0.64192 0.40551,-0.0409 0.84129,-0.20036 1.15803,-0.64192 0.31877,-0.44156 0.81103,-1.12336 1.15804,-1.88491 0.34701,-0.76156 0.66577,-1.40445 1.15804,-2.84877 0.43578,-1.27801 0.39543,-0.92301 1.32145,-3.9342"
       id="path245"
       inkscape:connector-curvature="0" /></g><g
     id="g247"><path
       inkscape:connector-curvature="0"
       id="path249"
       d="m 80.221,59.776 c -1.347,-6.514 -1.232,-5.583 -1.719,-7.677 -0.487,-2.094 -0.802,-3.025 -1.146,-4.13 -0.344,-1.105 -0.831,-2.094 -1.146,-2.734 -0.315,-0.64 -0.745,-0.873 -1.146,-0.931 -0.401,-0.058 -0.945,0.523 -1.174,0.931 -0.229,0.408 -0.573,0.814 -1.117,2.617 -0.475,1.573 -0.993,3.322 -2.277,9.105"
       style="fill:none;stroke:#000000;stroke-width:1.5" /><path
       inkscape:connector-curvature="0"
       id="path251"
       d="m 70.496,56.957 c -0.007,0.032 -0.014,0.065 -0.021,0.098 0,0 -0.367,1.605 -1.318,2.208 -0.951,0.603 -1.541,0.464 -2.328,0.464 H 0.016"
       style="fill:none;stroke:#000000;stroke-width:1.5" /><path
       inkscape:connector-curvature="0"
       id="path253"
       d="m 121.077,56.957 c 0.007,0.032 0.015,0.065 0.022,0.098 0,0 0.367,1.605 1.318,2.208 0.951,0.603 1.541,0.464 2.328,0.464 h 22.55"
       style="fill:none;stroke:#000000;stroke-width:1.5" /><path
       inkscape:connector-curvature="0"
       id="path255"
       d="m 80.241,59.772 c 1.748,8.084 2.349,10.12 2.893,11.923 0.544,1.803 0.888,2.21 1.117,2.617 0.229,0.407 0.773,0.989 1.175,0.931 0.401,-0.058 0.831,-0.291 1.146,-0.931 0.315,-0.64 0.802,-1.628 1.146,-2.733 0.344,-1.105 0.659,-2.036 1.146,-4.13 0.487,-2.094 0.373,-1.163 1.719,-7.677"
       style="fill:none;stroke:#000000;stroke-width:1.5" /><path
       inkscape:connector-curvature="0"
       id="path257"
       d="m 90.603,59.776 c 1.748,-8.084 2.349,-10.12 2.894,-11.923 0.544,-1.803 0.888,-2.21 1.117,-2.617 0.229,-0.407 0.773,-0.989 1.174,-0.931 0.401,0.058 0.831,0.291 1.146,0.931 0.315,0.64 0.802,1.628 1.146,2.734 0.344,1.105 0.659,2.036 1.146,4.13 0.487,2.094 0.373,1.163 1.719,7.677"
       style="fill:none;stroke:#000000;stroke-width:1.5" /><path
       inkscape:connector-curvature="0"
       id="path259"
       d="m 100.964,59.772 c 1.748,8.084 2.349,10.12 2.894,11.923 0.544,1.803 0.888,2.21 1.117,2.617 0.229,0.407 0.773,0.989 1.174,0.931 0.401,-0.058 0.831,-0.291 1.146,-0.931 0.315,-0.64 0.802,-1.628 1.146,-2.733 0.344,-1.105 0.659,-2.036 1.146,-4.13 0.487,-2.094 0.373,-1.163 1.719,-7.677"
       style="fill:none;stroke:#000000;stroke-width:1.5" /><path
       inkscape:connector-curvature="0"
       id="path261"
       d="m 111.326,59.776 c 1.748,-8.084 2.349,-10.12 2.893,-11.923 0.544,-1.803 0.888,-2.21 1.117,-2.617 0.229,-0.407 0.774,-0.989 1.175,-0.931 0.401,0.058 0.831,0.291 1.146,0.931 0.315,0.64 0.802,1.628 1.146,2.734 0.344,1.105 0.659,2.036 1.146,4.13 0.294,1.264 0.369,1.426 0.678,2.789"
       style="fill:none;stroke:#000000;stroke-width:1.5" /><path
       inkscape:connector-curvature="0"
       id="path263"
       d="m 120.627,54.888 c 0.119,0.524 0.272,1.225 0.486,2.235"
       style="fill:none;stroke:#000000;stroke-width:1.5" /></g><g
     id="g265"><path
       inkscape:connector-curvature="0"
       id="path267"
       d="m 54.277,150.432 c -1.349,-9.185 -1.234,-7.873 -1.722,-10.825 -0.488,-2.953 -0.803,-4.265 -1.147,-5.823 -0.344,-1.558 -0.832,-2.952 -1.148,-3.854 -0.315,-0.902 -0.746,-1.23 -1.147,-1.312 -0.402,-0.082 -0.947,0.738 -1.177,1.312 -0.229,0.574 -0.574,1.148 -1.119,3.69 -0.476,2.217 -0.995,4.683 -2.28,12.837"
       style="fill:none;stroke:#000000;stroke-width:1.5" /><path
       inkscape:connector-curvature="0"
       id="path269"
       d="m 44.537,146.458 c -0.007,0.046 -0.015,0.092 -0.022,0.139 0,0 -0.368,2.264 -1.32,3.114 -0.952,0.85 -1.543,0.654 -2.332,0.654 H 0.016"
       style="fill:none;stroke:#000000;stroke-width:1.5" /><path
       inkscape:connector-curvature="0"
       id="path271"
       d="m 95.198,146.458 c 0.007,0.046 0.015,0.092 0.022,0.139 0,0 0.368,2.264 1.32,3.114 0.952,0.85 1.543,0.654 2.332,0.654 h 48.433"
       style="fill:none;stroke:#000000;stroke-width:1.5" /><path
       inkscape:connector-curvature="0"
       id="path273"
       d="m 54.297,150.427 c 1.75,11.399 2.353,14.269 2.897,16.812 0.545,2.542 0.89,3.116 1.119,3.69 0.229,0.574 0.775,1.394 1.176,1.312 0.402,-0.082 0.832,-0.41 1.148,-1.312 0.315,-0.902 0.803,-2.296 1.147,-3.854 0.345,-1.558 0.66,-2.87 1.148,-5.823 0.488,-2.952 0.373,-1.64 1.722,-10.825"
       style="fill:none;stroke:#000000;stroke-width:1.5" /><path
       inkscape:connector-curvature="0"
       id="path275"
       d="m 64.675,150.432 c 1.75,-11.399 2.353,-14.269 2.898,-16.812 0.545,-2.543 0.89,-3.116 1.119,-3.69 0.229,-0.574 0.774,-1.394 1.176,-1.312 0.402,0.082 0.833,0.41 1.147,1.312 0.316,0.902 0.804,2.296 1.148,3.854 0.344,1.558 0.66,2.87 1.147,5.823 0.488,2.952 0.374,1.64 1.722,10.825"
       style="fill:none;stroke:#000000;stroke-width:1.5" /><path
       inkscape:connector-curvature="0"
       id="path277"
       d="m 75.054,150.427 c 1.75,11.399 2.353,14.269 2.898,16.812 0.545,2.543 0.889,3.116 1.119,3.69 0.23,0.574 0.775,1.394 1.177,1.312 0.401,-0.082 0.832,-0.41 1.147,-1.312 0.315,-0.902 0.804,-2.296 1.148,-3.854 0.344,-1.558 0.66,-2.87 1.147,-5.823 0.488,-2.952 0.373,-1.64 1.722,-10.825"
       style="fill:none;stroke:#000000;stroke-width:1.5" /><path
       inkscape:connector-curvature="0"
       id="path279"
       d="m 85.432,150.432 c 1.75,-11.399 2.353,-14.269 2.898,-16.812 0.545,-2.542 0.89,-3.116 1.119,-3.69 0.229,-0.574 0.775,-1.394 1.177,-1.312 0.401,0.082 0.832,0.41 1.147,1.312 0.316,0.902 0.803,2.296 1.147,3.854 0.344,1.558 0.66,2.87 1.148,5.823 0.294,1.782 0.369,2.01 0.679,3.933"
       style="fill:none;stroke:#000000;stroke-width:1.5" /><path
       inkscape:connector-curvature="0"
       id="path281"
       d="m 94.748,143.54 c 0.119,0.739 0.273,1.728 0.487,3.151"
       style="fill:none;stroke:#000000;stroke-width:1.5" /></g><rect
     x="0"
     id="rect283"
     height="2.8340001"
     width="147.40199"
     style="fill:none"
     y="34.872002" /></svg>