<?xml version="1.0" encoding="iso-8859-1"?>
<!-- Generator: Adobe Illustrator 11 Build 196, SVG Export Plug-In . SVG Version: 6.0.0 Build 78)  -->
<!DOCTYPE svg PUBLIC "-//W3C//DTD SVG 1.0//EN"    "http://www.w3.org/TR/2001/REC-SVG-20010904/DTD/svg10.dtd" [
	<!ENTITY ns_flows "http://ns.adobe.com/Flows/1.0/">
	<!ENTITY ns_svg "http://www.w3.org/2000/svg">
	<!ENTITY ns_xlink "http://www.w3.org/1999/xlink">
]>
<svg  
	 width="147.401" height="73.701" viewBox="0 0 147.401 73.701" style="overflow:visible;enable-background:new 0 0 147.401 73.701"
	 xml:space="preserve">
	<g id="Layer_1">
		
			<linearGradient id="XMLID_8_" gradientUnits="userSpaceOnUse" x1="70.3047" y1="-5.9497" x2="70.3047" y2="71.7511" gradientTransform="matrix(1 0 0 1 3.3958 3.9497)">
			<stop  offset="0" style="stop-color:#D5D5D5"/>
			<stop  offset="0.0741" style="stop-color:#D7D7D7"/>
			<stop  offset="0.1437" style="stop-color:#DEDEDE"/>
			<stop  offset="0.2112" style="stop-color:#E8E8E8"/>
			<stop  offset="0.25" style="stop-color:#F0F0F0"/>
			<stop  offset="0.2887" style="stop-color:#EAEAEA"/>
			<stop  offset="0.3692" style="stop-color:#E1E1E1"/>
			<stop  offset="0.4693" style="stop-color:#DADADA"/>
			<stop  offset="0.6099" style="stop-color:#D6D6D6"/>
			<stop  offset="1" style="stop-color:#D5D5D5"/>
			<midPointStop  offset="0" style="stop-color:#D5D5D5"/>
			<midPointStop  offset="0.72" style="stop-color:#D5D5D5"/>
			<midPointStop  offset="0.25" style="stop-color:#F0F0F0"/>
			<midPointStop  offset="0.13" style="stop-color:#F0F0F0"/>
			<midPointStop  offset="1" style="stop-color:#D5D5D5"/>
		</linearGradient>
		<rect style="fill:url(#XMLID_8_);" width="147.401" height="73.701"/> 
		<g>
			
				<linearGradient id="XMLID_9_" gradientUnits="userSpaceOnUse" x1="27.3354" y1="6.8003" x2="27.3354" y2="70.8003" gradientTransform="matrix(0.98 0 0 1 -1.8433 -2.9497)">
				<stop  offset="0" style="stop-color:#F3F3F3"/>
				<stop  offset="0.25" style="stop-color:#FFFFFF"/>
				<stop  offset="0.3996" style="stop-color:#FAFAFA"/>
				<stop  offset="0.6747" style="stop-color:#F4F4F4"/>
				<stop  offset="1" style="stop-color:#F3F3F3"/>
				<midPointStop  offset="0" style="stop-color:#F3F3F3"/>
				<midPointStop  offset="0.5" style="stop-color:#F3F3F3"/>
				<midPointStop  offset="0.25" style="stop-color:#FFFFFF"/>
				<midPointStop  offset="0.26" style="stop-color:#FFFFFF"/>
				<midPointStop  offset="1" style="stop-color:#F3F3F3"/>
			</linearGradient>
			<rect x="3.462" y="3.351" style="fill:url(#XMLID_9_);" width="42.967" height="67"/> 
			<g>
				<path style="fill:#B3571B;" d="M26.982,30.548c-0.475-9.723-5.314-15.074-7.856-17.201s-3.894-2.825-3.894-2.825l1.677-0.765
					l0.928-2.477c0,0,10.021,14.242,10.822,22.502c0.8,8.261,0.066,3.092,0.066,3.092l-1.434-0.332L26.982,30.548z"/>
				
					<radialGradient id="XMLID_10_" cx="50.604" cy="70.5503" r="79.8812" fx="50.604" fy="70.5503" gradientTransform="matrix(0.2389 0.0553 -0.0542 0.2438 21.4443 23.7421)" gradientUnits="userSpaceOnUse">
					<stop  offset="0" style="stop-color:#F9E0D3"/>
					<stop  offset="0.0458" style="stop-color:#F7D7C8"/>
					<stop  offset="0.2189" style="stop-color:#F4B7A2"/>
					<stop  offset="0.3903" style="stop-color:#F19880"/>
					<stop  offset="0.5568" style="stop-color:#EE7B63"/>
					<stop  offset="0.7168" style="stop-color:#ED634E"/>
					<stop  offset="0.8677" style="stop-color:#EC4E3B"/>
					<stop  offset="1" style="stop-color:#EC4937"/>
					<midPointStop  offset="0" style="stop-color:#F9E0D3"/>
					<midPointStop  offset="0.32" style="stop-color:#F9E0D3"/>
					<midPointStop  offset="1" style="stop-color:#EC4937"/>
				</radialGradient>
				<path style="fill:url(#XMLID_10_);" d="M31.24,31.11c-1.855,0.738-3.668,2.178-3.947,1.433
					c-0.275-0.736-2.777-2.377-5.536-3.407c-7.062,0.524-13.16,5.356-14.719,12.366C5.1,50.214,10.904,58.984,20,61.091
					c9.097,2.107,18.042-3.247,19.98-11.958C41.598,41.862,37.821,34.554,31.24,31.11z"/>
				<path style="fill:#00BA76;" d="M35.373,22.785c-3.091,1.928-4.924,5.157-5.237,8.575c2.928,0.186,5.939-0.507,8.632-2.187
					c2.871-1.791,4.931-4.418,6.067-7.387C41.804,20.687,38.331,20.94,35.373,22.785z"/>
			</g>
			
				<linearGradient id="XMLID_11_" gradientUnits="userSpaceOnUse" x1="27.3354" y1="6.8003" x2="27.3354" y2="70.8003" gradientTransform="matrix(0.98 0 0 1 46.9116 -2.9497)">
				<stop  offset="0" style="stop-color:#F3F3F3"/>
				<stop  offset="0.25" style="stop-color:#FFFFFF"/>
				<stop  offset="0.3996" style="stop-color:#FAFAFA"/>
				<stop  offset="0.6747" style="stop-color:#F4F4F4"/>
				<stop  offset="1" style="stop-color:#F3F3F3"/>
				<midPointStop  offset="0" style="stop-color:#F3F3F3"/>
				<midPointStop  offset="0.5" style="stop-color:#F3F3F3"/>
				<midPointStop  offset="0.25" style="stop-color:#FFFFFF"/>
				<midPointStop  offset="0.26" style="stop-color:#FFFFFF"/>
				<midPointStop  offset="1" style="stop-color:#F3F3F3"/>
			</linearGradient>
			<rect x="52.217" y="3.351" style="fill:url(#XMLID_11_);" width="42.967" height="67"/> 
			<g>
				<path style="fill:#B3571B;" d="M75.737,30.548c-0.475-9.723-5.314-15.074-7.856-17.201s-3.894-2.825-3.894-2.825l1.678-0.765
					l0.928-2.477c0,0,10.021,14.242,10.822,22.502c0.8,8.261,0.066,3.092,0.066,3.092l-1.434-0.332L75.737,30.548z"/>
				
					<radialGradient id="XMLID_12_" cx="50.604" cy="70.5503" r="79.8812" fx="50.604" fy="70.5503" gradientTransform="matrix(0.2389 0.0553 -0.0542 0.2438 70.1997 23.7421)" gradientUnits="userSpaceOnUse">
					<stop  offset="0" style="stop-color:#F9E0D3"/>
					<stop  offset="0.0458" style="stop-color:#F7D7C8"/>
					<stop  offset="0.2189" style="stop-color:#F4B7A2"/>
					<stop  offset="0.3903" style="stop-color:#F19880"/>
					<stop  offset="0.5568" style="stop-color:#EE7B63"/>
					<stop  offset="0.7168" style="stop-color:#ED634E"/>
					<stop  offset="0.8677" style="stop-color:#EC4E3B"/>
					<stop  offset="1" style="stop-color:#EC4937"/>
					<midPointStop  offset="0" style="stop-color:#F9E0D3"/>
					<midPointStop  offset="0.32" style="stop-color:#F9E0D3"/>
					<midPointStop  offset="1" style="stop-color:#EC4937"/>
				</radialGradient>
				<path style="fill:url(#XMLID_12_);" d="M79.995,31.11c-1.855,0.738-3.668,2.178-3.947,1.433
					c-0.275-0.736-2.777-2.377-5.536-3.407c-7.062,0.524-13.16,5.356-14.719,12.366c-1.938,8.711,3.866,17.481,12.963,19.588
					c9.097,2.107,18.042-3.247,19.98-11.958C90.353,41.862,86.575,34.554,79.995,31.11z"/>
				<path style="fill:#00BA76;" d="M84.127,22.785c-3.091,1.928-4.924,5.157-5.237,8.575c2.928,0.186,5.939-0.507,8.632-2.187
					c2.871-1.791,4.931-4.418,6.067-7.387C90.559,20.687,87.085,20.94,84.127,22.785z"/>
			</g>
			
				<linearGradient id="XMLID_13_" gradientUnits="userSpaceOnUse" x1="27.3354" y1="6.8003" x2="27.3354" y2="70.8003" gradientTransform="matrix(0.98 0 0 1 95.6665 -2.9497)">
				<stop  offset="0" style="stop-color:#F3F3F3"/>
				<stop  offset="0.25" style="stop-color:#FFFFFF"/>
				<stop  offset="0.3996" style="stop-color:#FAFAFA"/>
				<stop  offset="0.6747" style="stop-color:#F4F4F4"/>
				<stop  offset="1" style="stop-color:#F3F3F3"/>
				<midPointStop  offset="0" style="stop-color:#F3F3F3"/>
				<midPointStop  offset="0.5" style="stop-color:#F3F3F3"/>
				<midPointStop  offset="0.25" style="stop-color:#FFFFFF"/>
				<midPointStop  offset="0.26" style="stop-color:#FFFFFF"/>
				<midPointStop  offset="1" style="stop-color:#F3F3F3"/>
			</linearGradient>
			<rect x="100.972" y="3.351" style="fill:url(#XMLID_13_);" width="42.967" height="67"/> 
			<g>
				<path style="fill:#B3571B;" d="M124.492,30.548c-0.475-9.723-5.314-15.074-7.856-17.201c-2.542-2.127-3.894-2.825-3.894-2.825
					l1.678-0.765l0.928-2.477c0,0,10.021,14.242,10.822,22.502c0.8,8.261,0.066,3.092,0.066,3.092l-1.434-0.332L124.492,30.548z"/>
				
					<radialGradient id="XMLID_14_" cx="50.604" cy="70.5503" r="79.8812" fx="50.604" fy="70.5503" gradientTransform="matrix(0.2389 0.0553 -0.0542 0.2438 118.9546 23.7421)" gradientUnits="userSpaceOnUse">
					<stop  offset="0" style="stop-color:#F9E0D3"/>
					<stop  offset="0.0458" style="stop-color:#F7D7C8"/>
					<stop  offset="0.2189" style="stop-color:#F4B7A2"/>
					<stop  offset="0.3903" style="stop-color:#F19880"/>
					<stop  offset="0.5568" style="stop-color:#EE7B63"/>
					<stop  offset="0.7168" style="stop-color:#ED634E"/>
					<stop  offset="0.8677" style="stop-color:#EC4E3B"/>
					<stop  offset="1" style="stop-color:#EC4937"/>
					<midPointStop  offset="0" style="stop-color:#F9E0D3"/>
					<midPointStop  offset="0.32" style="stop-color:#F9E0D3"/>
					<midPointStop  offset="1" style="stop-color:#EC4937"/>
				</radialGradient>
				<path style="fill:url(#XMLID_14_);" d="M128.75,31.11c-1.855,0.738-3.668,2.178-3.947,1.433
					c-0.275-0.736-2.777-2.377-5.536-3.407c-7.062,0.524-13.16,5.356-14.719,12.366c-1.938,8.711,3.866,17.481,12.963,19.588
					s18.042-3.247,19.98-11.958C139.107,41.862,135.33,34.554,128.75,31.11z"/>
				<path style="fill:#00BA76;" d="M132.882,22.785c-3.091,1.928-4.925,5.157-5.238,8.575c2.928,0.186,5.939-0.507,8.633-2.187
					c2.871-1.791,4.931-4.418,6.067-7.387C139.313,20.687,135.84,20.94,132.882,22.785z"/>
			</g>
		</g>
	</g>
</svg>
