<?xml version="1.0" encoding="UTF-8" standalone="no"?>
<!-- Generator: Adobe Illustrator 11 Build 196, SVG Export Plug-In . SVG Version: 6.0.0 Build 78)  -->

<svg
   xmlns:dc="http://purl.org/dc/elements/1.1/"
   xmlns:cc="http://creativecommons.org/ns#"
   xmlns:rdf="http://www.w3.org/1999/02/22-rdf-syntax-ns#"
   xmlns:svg="http://www.w3.org/2000/svg"
   xmlns="http://www.w3.org/2000/svg"
   xmlns:sodipodi="http://sodipodi.sourceforge.net/DTD/sodipodi-0.dtd"
   xmlns:inkscape="http://www.inkscape.org/namespaces/inkscape"
   width="147.401"
   height="113.175"
   viewBox="0 0 147.401 113.175"
   style="overflow:visible;enable-background:new 0 0 147.401 113.175"
   xml:space="preserve"
   id="svg2"
   version="1.1"
   sodipodi:docname="tunneling.svg"><metadata
   id="metadata77"><rdf:RDF><cc:Work
       rdf:about=""><dc:format>image/svg+xml</dc:format><dc:type
         rdf:resource="http://purl.org/dc/dcmitype/StillImage" /></cc:Work></rdf:RDF></metadata><defs
   id="defs75" /><sodipodi:namedview
   pagecolor="#ffffff"
   bordercolor="#666666"
   borderopacity="1"
   objecttolerance="10"
   gridtolerance="10"
   guidetolerance="10"
   inkscape:pageopacity="0"
   inkscape:pageshadow="2"
   inkscape:window-width="1280"
   inkscape:window-height="996"
   id="namedview73"
   showgrid="false"
   inkscape:zoom="5.4341558"
   inkscape:cx="73.7005"
   inkscape:cy="56.587502"
   inkscape:window-x="0"
   inkscape:window-y="0"
   inkscape:window-maximized="1"
   inkscape:current-layer="svg2" />
	<style
   type="text/css"
   id="style4">
	
	</style>
	<g
   id="Layer_1">
		<g
   id="g7">
			<g
   id="g9">
				<g
   id="g11">
					<g
   id="g13">
						<path
   style="fill:none;stroke:#000000;"
   d="M14.214,29.084c6.701-12.718,9.008-15.92,11.096-18.757s3.406-3.477,4.284-4.118        c0.879-0.641,2.966-1.556,4.504-1.464s3.186,0.458,4.394,1.464c1.209,1.006,3.076,2.562,4.395,4.301        c1.318,1.738,2.527,3.202,4.395,6.496c1.867,3.294,1.428,1.83,6.591,12.078"
   id="path15" />
						<path
   style="fill:none;stroke:#000000;"
   d="M53.95,29.078c6.701,12.718,9.008,15.921,11.095,18.757        c2.087,2.836,3.405,3.477,4.284,4.117s2.966,1.556,4.504,1.464c1.538-0.091,3.186-0.457,4.394-1.464        c1.208-1.006,3.076-2.562,4.395-4.3c1.318-1.739,2.527-3.203,4.395-6.497c1.868-3.293,1.428-1.83,6.592-12.078"
   id="path17" />
					</g>
					<path
   style="fill:none;stroke:#000000;"
   d="M93.644,29.084c6.701-12.718,9.008-15.92,11.095-18.757       c2.087-2.836,3.405-3.477,4.284-4.118s2.966-1.556,4.504-1.464s3.186,0.458,4.395,1.464s3.076,2.562,4.395,4.301       c1.317,1.738,2.526,3.202,4.394,6.496s1.428,1.83,6.592,12.078"
   id="path19" />
				</g>
				<line
   style="fill:none;stroke:#000000;stroke-width:0.5;"
   x1="13.997"
   y1="29.084"
   x2="133.9"
   y2="29.084"
   id="line21" />
				<line
   style="fill:none;stroke:#000000;"
   x1="133.566"
   y1="29.084"
   x2="147.401"
   y2="29.084"
   id="line23" />
				<line
   style="fill:none;stroke:#000000;"
   x1="0.403"
   y1="29.084"
   x2="14.239"
   y2="29.084"
   id="line25" />
			</g>
			<path
   style="fill:none;stroke:#000000;"
   d="M53.95,88.331c6.701,12.718,9.008,15.92,11.095,18.757     c2.087,2.836,3.405,3.477,4.284,4.117s2.966,1.556,4.504,1.464c1.538-0.091,3.186-0.458,4.394-1.464     c1.208-1.006,3.076-2.562,4.395-4.3c1.318-1.739,2.527-3.203,4.395-6.497s1.428-1.83,6.592-12.078"
   id="path27" />
			<line
   style="fill:none;stroke:#000000;stroke-width:0.5;"
   x1="8.522"
   y1="88.336"
   x2="139.357"
   y2="88.336"
   id="line29" />
			<g
   id="g31">
				<path
   style="fill:none;stroke:#000000;"
   d="M93.644,88.336c6.701-12.718,9.008-15.92,11.095-18.757      c2.087-2.837,3.405-3.477,4.284-4.118s2.966-1.556,4.504-1.464c1.538,0.091,3.186,0.458,4.395,1.464s3.076,2.562,4.395,4.301      c1.317,1.738,2.526,3.202,4.394,6.496c1.398,2.465,1.503,2.265,3.633,6.306"
   id="path33" />
				<line
   style="fill:none;stroke:#000000;"
   x1="138.931"
   y1="88.336"
   x2="147.401"
   y2="88.336"
   id="line35" />
				<path
   style="fill:none;stroke:#000000;"
   d="M130.305,82.417c1.964,3.583,6.917,5.833,8.882,5.833"
   id="path37" />
			</g>
			<g
   id="g39">
				<path
   style="fill:none;stroke:#000000;"
   d="M53.87,88.271c-6.701-12.718-9.008-15.92-11.095-18.757      c-2.087-2.837-3.406-3.477-4.285-4.118c-0.879-0.64-2.966-1.556-4.504-1.464s-3.186,0.458-4.395,1.464s-3.076,2.562-4.395,4.301      c-1.317,1.738-2.526,3.202-4.394,6.496c-1.398,2.465-1.503,2.265-3.633,6.306"
   id="path41" />
				<line
   style="fill:none;stroke:#000000;"
   x1="8.583"
   y1="88.271"
   x2="0.113"
   y2="88.271"
   id="line43" />
				<path
   style="fill:none;stroke:#000000;"
   d="M17.209,82.352c-1.964,3.583-6.918,5.833-8.882,5.833"
   id="path45" />
			</g>
			
				<ellipse
   style="fill:none;stroke:#000000;stroke-width:0.5;stroke-dasharray:2;"
   cx="133.038"
   cy="29.555"
   rx="7.972"
   ry="7.778"
   id="ellipse47" /> 
			
				<ellipse
   style="fill:none;stroke:#000000;stroke-width:0.5;stroke-dasharray:2;"
   cx="135.216"
   cy="87.646"
   rx="7.971"
   ry="7.778"
   id="ellipse49" /> 
			
				<ellipse
   style="fill:none;stroke:#000000;stroke-width:0.5;stroke-dasharray:2;"
   cx="14.735"
   cy="29.851"
   rx="7.971"
   ry="7.778"
   id="ellipse51" /> 
			
				<ellipse
   style="fill:none;stroke:#000000;stroke-width:0.5;stroke-dasharray:2;"
   cx="12.109"
   cy="87.941"
   rx="7.971"
   ry="7.778"
   id="ellipse53" /> 
			<g
   id="g55">
				<g
   id="g57">
					<text
   transform="matrix(1 0 0 1 6.3452 9)"
   id="text59"><tspan
     x="0"
     y="0"
     style="font-family:Liberation Sans; font-size:7.650000;"
     id="tspan61">1</tspan></text>

				</g>
			</g>
			<g
   id="g63">
				<g
   id="g65">
					<text
   transform="matrix(1 0 0 1 6.5972 71.9067)"
   id="text67"><tspan
     x="0"
     y="0"
     style="font-family:Liberation Sans; font-size:7.650000;"
     id="tspan69">2</tspan></text>

				</g>
			</g>
		</g>
		<rect
   y="56.542"
   style="fill:none;"
   width="147.401"
   height="2.834"
   id="rect71" /> 
	</g>
<path
   style="fill:none;stroke:#000000;stroke-width:0.625;stroke-linecap:butt;stroke-linejoin:miter;stroke-opacity:1;stroke-miterlimit:4;stroke-dasharray:none"
   d="m 14.235214,3.8068924 0,107.8057076"
   id="path3054"
   inkscape:connector-curvature="0"
   transform="translate(0,-1.1509749e-6)"
   sodipodi:nodetypes="cc" /><path
   style="fill:none;stroke:#000000;stroke-width:0.625;stroke-linecap:butt;stroke-linejoin:miter;stroke-miterlimit:4;stroke-opacity:1;stroke-dasharray:none;overflow:visible"
   d="m 133.23137,3.6977361 0,107.8057139"
   id="path3054-4"
   inkscape:connector-curvature="0"
   sodipodi:nodetypes="cc" /></svg>