<?xml version="1.0" encoding="UTF-8" standalone="no"?>
<!-- Generator: Adobe Illustrator 11 Build 196, SVG Export Plug-In . SVG Version: 6.0.0 Build 78)  -->
<svg
   xmlns:dc="http://purl.org/dc/elements/1.1/"
   xmlns:cc="http://web.resource.org/cc/"
   xmlns:rdf="http://www.w3.org/1999/02/22-rdf-syntax-ns#"
   xmlns:svg="http://www.w3.org/2000/svg"
   xmlns="http://www.w3.org/2000/svg"
   xmlns:sodipodi="http://inkscape.sourceforge.net/DTD/sodipodi-0.dtd"
   xmlns:inkscape="http://www.inkscape.org/namespaces/inkscape"
   width="86.45"
   height="137.494"
   viewBox="0 0 86.45 137.494"
   style="overflow:visible;enable-background:new 0 0 86.45 137.494"
   xml:space="preserve"
   id="svg2"
   sodipodi:version="0.32"
   sodipodi:docname="barhang.svg"
   sodipodi:docbase="/home/bcrowell/Documents/writing/lm/trunk/9share/em-fields"><metadata
   id="metadata62"><rdf:RDF><cc:Work
       rdf:about=""><dc:format>image/svg+xml</dc:format><dc:type
         rdf:resource="http://purl.org/dc/dcmitype/StillImage" /></cc:Work></rdf:RDF></metadata><defs
   id="defs60" /><sodipodi:namedview
   inkscape:cy="57.448762"
   inkscape:cx="67.893992"
   inkscape:zoom="2.0163487"
   inkscape:window-height="510"
   inkscape:window-width="712"
   inkscape:pageshadow="2"
   inkscape:pageopacity="0.0"
   borderopacity="1.0"
   bordercolor="#666666"
   pagecolor="#ffffff"
   id="base"
   inkscape:window-x="221"
   inkscape:window-y="221"
   inkscape:current-layer="svg2" />
	<style
   type="text/css"
   id="style4">
	
	</style>
	<rect
   style="fill:none;fill-opacity:0.75000000;fill-rule:evenodd;stroke:none;stroke-width:1.0000000pt;stroke-linecap:butt;stroke-linejoin:miter;stroke-opacity:1.0000000"
   id="rect1360"
   width="169.11758"
   height="8.9270277"
   x="-40.667572"
   y="52.687241" /><g
   id="Layer_1">
		<g
   id="g7">
			<rect
   x="18.55"
   y="105.445"
   style="fill:#B4B4B4;stroke:#000000;stroke-width:0.5;"
   width="61.5"
   height="24"
   id="rect9" /> 
			<polygon
   style="fill:#B4B4B4;stroke:#000000;stroke-width:0.5;stroke-linejoin:round;"
   points="80.129,129.364 84.587,137.084      84.587,113.324 80.129,105.604 "
   id="polygon11" />
			<polygon
   style="fill:#B4B4B4;stroke:#000000;stroke-width:0.5;"
   points="23.109,137.244 84.609,137.244 80.05,129.346      18.55,129.346 "
   id="polygon13" />
			<g
   id="g15">
				<text
   transform="matrix(0 1 -1 0 66.2456 113.0312)"
   id="text17"><tspan
     x="0"
     y="0"
     style="font-family:Liberation Sans; font-size:10.200000;"
     id="tspan19">N</tspan></text>

			</g>
			<g
   id="g21">
				<text
   transform="matrix(0 1 -1 0 24.2593 113.3608)"
   id="text23"><tspan
     x="0"
     y="0"
     style="font-family:Liberation Sans; font-size:10.200000;"
     id="tspan25">S</tspan></text>

			</g>
		</g>
		<line
   style="fill:none;stroke:#000000;"
   x1="74.992"
   y1="104.646"
   x2="48.658"
   y2="67.646"
   id="line27" />
		<polyline
   style="fill:none;stroke:#000000;"
   points="22.45,104.646 48.783,67.646 48.783,46.216 "
   id="polyline29" />
		<g
   id="g31">
			<path
   style="fill:none;stroke:#000000;stroke-width:0.5;"
   d="M8.177,0.699c11.698,0.388,22.322,0.706,25.169,0.407     s7.155-1.284,8.416-0.644c1.261,0.64,4.78,4.33,5.595,5.537s7.791,8.396,8.482,9.223c0.69,0.827,3.775,3.186,4.19,7.678     c0.415,4.493,0.33,8.098-0.186,9.739c-0.516,1.642-3.449,5.545-4.28,6.868c-0.83,1.323-1.858,3.973-2.875,4.726     c-1.017,0.753-2.405,0.365-2.405,0.365"
   id="path33" />
			<path
   style="fill:none;stroke:#000000;stroke-width:0.5;"
   d="M0.146,21.205c3.841,2.743,6.666,6.239,9.316,7.267     c2.65,1.028,7.574,2.576,9.145,4.167s8.567,5.618,10.391,7.337s5.227,3.763,6.554,3.961c1.327,0.198,2.968,0.714,4.101,1.606     c1.133,0.893,4.598,3.127,5.61,3.007c1.013-0.12,3.736-0.799,4.121-1.556s0.904-3.03-0.159-4.998s-2.375-4.695-3.255-5.459     c-0.881-0.765-4.85-3.255-6.173-4.085c-1.323-0.831-4.656-3.95-4.905-4.71c-0.248-0.76-2.429-6.15-2.429-6.15"
   id="path35" />
			<path
   style="fill:none;stroke:#000000;stroke-width:0.5;"
   d="M34.844,25.022c0,0,3.678-11.931,3.43-12.692"
   id="path37" />
			<path
   style="fill:none;stroke:#000000;stroke-width:0.5;"
   d="M38.181,17.2c1.754,2.793,5.091,5.281,6.169,4.718"
   id="path39" />
			<path
   style="fill:none;stroke:#000000;stroke-width:0.5;"
   d="M45.398,21.261c1.228,0.861,4.921,3.582,5.3,3.774     c0.378,0.192,0.559,5.147,0.71,6.255c0.151,1.107,0.463,1.742,0.463,1.742s-3.907,2.854-4.103,3.865"
   id="path41" />
			<path
   style="fill:none;stroke:#000000;stroke-width:0.5;"
   d="M42.99,23.765c1.673,2.118,4.31,5.465,4.31,5.465l1.071,4.139"
   id="path43" />
			<line
   style="fill:none;stroke:#000000;stroke-width:0.5;"
   x1="46.233"
   y1="17.376"
   x2="45.584"
   y2="20.113"
   id="line45" />
			<line
   style="fill:none;stroke:#000000;stroke-width:0.5;"
   x1="51.968"
   y1="24.2"
   x2="53.108"
   y2="23.827"
   id="line47" />
			<line
   style="fill:none;stroke:#000000;stroke-width:0.5;"
   x1="53.727"
   y1="33.022"
   x2="52.716"
   y2="32.932"
   id="line49" />
			<polyline
   style="fill:none;stroke:#000000;stroke-width:0.5;"
   points="48.813,46.216 45.261,42.748 41.573,45.951 "
   id="polyline51" />
			<path
   style="fill:none;stroke:#000000;stroke-width:0.5;"
   d="M40.164,39.38c0,0-0.007,1.265-0.547,1.546"
   id="path53" />
			<polyline
   style="fill:none;stroke:#000000;stroke-width:0.5;"
   points="48.078,26.031 49.376,27.43 49.578,28.907 "
   id="polyline55" />
		</g>
		<line
   style="fill:none;"
   x1="86.45"
   y1="118.979"
   x2="86.45"
   y2="128.979"
   id="line57" />
	</g>
</svg>