<?xml version="1.0" encoding="iso-8859-1"?>
<!-- Generator: Adobe Illustrator 11 Build 196, SVG Export Plug-In . SVG Version: 6.0.0 Build 78)  -->
<!DOCTYPE svg PUBLIC "-//W3C//DTD SVG 1.0//EN"    "http://www.w3.org/TR/2001/REC-SVG-20010904/DTD/svg10.dtd" [
	<!ENTITY ns_flows "http://ns.adobe.com/Flows/1.0/">
	<!ENTITY ns_svg "http://www.w3.org/2000/svg">
	<!ENTITY ns_xlink "http://www.w3.org/1999/xlink">
]>
<svg
	 width="152.979" height="169.783" viewBox="0 0 152.979 169.783"
	 style="overflow:visible;enable-background:new 0 0 152.979 169.783" xml:space="preserve">
	<metadata>
<?xpacket begin='﻿' id='W5M0MpCehiHzreSzNTczkc9d'?><x:xmpmeta xmlns:x='adobe:ns:meta/' x:xmptk='XMP toolkit 3.0-29, framework 1.6'>
<rdf:RDF xmlns:rdf='http://www.w3.org/1999/02/22-rdf-syntax-ns#' xmlns:iX='http://ns.adobe.com/iX/1.0/'>

 <rdf:Description rdf:about=''
  xmlns:pdf='http://ns.adobe.com/pdf/1.3/'>
 </rdf:Description>

 <rdf:Description rdf:about=''
  xmlns:tiff='http://ns.adobe.com/tiff/1.0/'>
 </rdf:Description>

 <rdf:Description rdf:about=''
  xmlns:xap='http://ns.adobe.com/xap/1.0/'
  xmlns:xapGImg='http://ns.adobe.com/xap/1.0/g/img/'>
  <xap:CreateDate>2006-07-17T03:31:56Z</xap:CreateDate>
  <xap:ModifyDate>2006-07-17T03:31:56Z</xap:ModifyDate>
  <xap:CreatorTool>Illustrator</xap:CreatorTool>
  <xap:Thumbnails>
   <rdf:Alt>
    <rdf:li rdf:parseType='Resource'>
     <xapGImg:format>JPEG</xapGImg:format>
     <xapGImg:width>232</xapGImg:width>
     <xapGImg:height>256</xapGImg:height>
     <xapGImg:image>/9j/4AAQSkZJRgABAgEASABIAAD/7QAsUGhvdG9zaG9wIDMuMAA4QklNA+0AAAAAABAASAAAAAEA&#xA;AQBIAAAAAQAB/+4ADkFkb2JlAGTAAAAAAf/bAIQABgQEBAUEBgUFBgkGBQYJCwgGBggLDAoKCwoK&#xA;DBAMDAwMDAwQDA4PEA8ODBMTFBQTExwbGxscHx8fHx8fHx8fHwEHBwcNDA0YEBAYGhURFRofHx8f&#xA;Hx8fHx8fHx8fHx8fHx8fHx8fHx8fHx8fHx8fHx8fHx8fHx8fHx8fHx8fHx8f/8AAEQgBAADoAwER&#xA;AAIRAQMRAf/EAaIAAAAHAQEBAQEAAAAAAAAAAAQFAwIGAQAHCAkKCwEAAgIDAQEBAQEAAAAAAAAA&#xA;AQACAwQFBgcICQoLEAACAQMDAgQCBgcDBAIGAnMBAgMRBAAFIRIxQVEGE2EicYEUMpGhBxWxQiPB&#xA;UtHhMxZi8CRygvElQzRTkqKyY3PCNUQnk6OzNhdUZHTD0uIIJoMJChgZhJRFRqS0VtNVKBry4/PE&#xA;1OT0ZXWFlaW1xdXl9WZ2hpamtsbW5vY3R1dnd4eXp7fH1+f3OEhYaHiImKi4yNjo+Ck5SVlpeYmZ&#xA;qbnJ2en5KjpKWmp6ipqqusra6voRAAICAQIDBQUEBQYECAMDbQEAAhEDBCESMUEFURNhIgZxgZEy&#xA;obHwFMHR4SNCFVJicvEzJDRDghaSUyWiY7LCB3PSNeJEgxdUkwgJChgZJjZFGidkdFU38qOzwygp&#xA;0+PzhJSktMTU5PRldYWVpbXF1eX1RlZmdoaWprbG1ub2R1dnd4eXp7fH1+f3OEhYaHiImKi4yNjo&#xA;+DlJWWl5iZmpucnZ6fkqOkpaanqKmqq6ytrq+v/aAAwDAQACEQMRAD8A9U4q7FXYq7FXYq7FXYq7&#xA;FXYq7FXYq7FXYq7FUu8w6MutaLd6Y1xNafWoyi3NtI0csbH7LKyFTse3Q9DtiqXWXl/XdKs7e10v&#xA;Vlkt7eNYktr63SRAqKFVY3gNu6jbq/PFVc6xrtrX9IaM8iDrNp8qXKgeJSQW8v0IjYqmGnapZ6jE&#xA;0lsZKI3F0milgdT1oUmVHH3Yqi8VdirsVdirsVdirsVdirsVdirsVdirsVdirsVdiqW2fmPRL3Vr&#xA;nSbO8jub+yXleRRHn6PxceMjLVVev7JNdsVTLFXYq7FXYq7FXYqkfmG5nupodAsnaO5vlL3lwho1&#xA;vZg0kcHs8h/dx+9WH2DiqdRosaKiCioAqjrsNh1xVdirsVdirsVaVlZQykMrCqsNwQe4xVvFXYq7&#xA;FXYq7FXYq7FXYq7FXYq7FXYq7FXYqlWk6nc6le3s0YUaTA31e1koeU0sZInkBrT01b92u25Vj0pi&#xA;qnc+T/LN1qFxqNxp0Et7ciMSzsg51iDKjq32lbi1OSmtKeGKuFjb6FBdagb67awtoJJZbWeY3CAI&#xA;OZcPPzmBAU0HqcfbpRVE6Drmma7pFtq2mTCeyu0DxOKVFeqsOzKdmHY4qmGKuxV2KoTVNSttN0+a&#xA;+uSfShFeKirsxIVERf2ndiFUdyaYqhPL+m3NvDNe34H6W1BhNe0PJY6CkcCH+SFfh9zVv2sVTbFX&#xA;Yq7FXYqoX0ElxZXEEUpglmjeNJwORRmUgMBtXid8VSXyBaCy8pWFiJZJvqIktGaVuTBraVoWWvgG&#xA;jIGKshxV2KuxV2KuxV2KuxV2KuxV2KuxV2KuxVinm/Xb6LVdM8t2MU3qa0kwub+3VnazhjaMNIeI&#xA;PHmrsqMdg1DirJbS0trO0htLWMRW1uixQxL0VEHFVHyAxVWxVSuba3ureS2uY1mt5lKSxOAyurCh&#xA;VgdiCOoxVKvJ3weXbW2pQWJlsAKU2spnth+EWKp1irsVdirENH1e282a/dMgYWHlq6ktvSbpLfoz&#xA;IZajYpGn2B/M1SPhU4qy/FXYq7FXYq7FXYqkvlz93NrFnX4bXUJSvyuY47s/8NcNiqdYq7FXYq7F&#xA;XYq7FXYq7FXYq7FUnl81aRaabb6hrEn6FiuGMYXUSkBRwSOLtyaMV47HlQ9jiqcYq7FUHpWoR6ja&#xA;m7jjKIZZolLUqywSvEHFP2X4cl9jiqMxV2KuxVBaZpxsTeAPyjuLl7mNaU4eqAXXqa1k5N9OKo3F&#xA;XYq7FVkMMMMYjhjWOMEkIgCirGpNB4k1xVfirsVdirsVdirsVSW0rF5t1KLolzZ2k6Cv2pEeaKU0&#xA;9lEWKp1irsVdirsVdirsVdirsVdirsVdiqA/Qekfpb9Li1RNS48GukHF3WnECQrTnQdOVadsVQFx&#xA;BqWjaTeSrrDXMhdWt5dTjSRIuTgelS1S3dlavFSxZgd/i6YqrLdXum22m2q6O8qyBYrgac0Jt7Uj&#xA;ioJEz28jR/Ed0QkAbjFUTb69pFxqk+kx3SfpO3UySWbVSX0xxBkVWALoC6gstRU0rXFUfiqyWWOK&#xA;J5ZGCRxqWdj0CqKknFUo8oeaLPzPoiataI0UMk08SxyAh6QzNGrMCBQuqh6dq0xVOsVdiqCtdSW5&#xA;1G9s0T4bH0kklrsZZF9QpT/JRkb/AGWKo3FXYq7FXYq7FXYq7FUK+nwvqcOo8mE0MEtuFFOLLM8b&#xA;kttWqmL4d+5xVFYq7FXYq7FXYq7FXYq7FXYq7FXYq7FUg84eVE8yQ6bbyXEltFZX0V7JJA7RykQq&#xA;9ER0IK1crvXbqN6YqnygKAoFANgMVadEkRo5FDo4KujCoIOxBBxVKR5X0620ptM0cvocHP1Yzpwj&#xA;i9NtvsRukkQXb7JTj7YqoeYbjXdO0+W4trmGWJLYwxpLEfrEl7J+7gb1UZYqPKygr6XyPbFVaxlg&#xA;0a0lsBp9zBp2k20QivFRJVnSOIKRFHA0k7OgShDRgn9muKo/T9U0/UbSK7sp1mt5uQjcbVKEqwoa&#xA;EFSCCO2KorFUk8oj1dKbUj9rVp5b4N3MUrUt6/K2WMfRiqd4qpzidoJBA6xzlSIndS6K9PhLIGQs&#xA;AeoDCviMVfK3nvzv/wA5LaT+YMGg6hbvqenrW8hstBiNsuoWsJBcJOFmulIqBIityHyo2Ks20b/n&#xA;LzyObn6j5r0nUvLF+tPWSeIzxofA8As3/JHFXqflr8x/IfmcL+gdestQkfcW8UyicfOFisq/SuKs&#xA;kxV2KuxV2KuxV2KuxVitt58Q61qdjf6bd6faaa6wi+likkSRyOfKsKyRxx8CpDu4rWlARirIbHUt&#xA;O1CH17C6hu4enqwSLKtf9ZCRiqJxV2KuxV2KuxV2KpP5sYrockgJBimtpeQr8Pp3Mb8tuw41OKpx&#xA;irsVdiqC1PTVv/qivJxit7iO5kjpX1DDVo1Phxl4P/scVRuKoHVtE0bWLdbfVbGC+gRhJHHcRrIF&#xA;cdHXkDxYdmG4xVDX8EFnfpqst9dJFI0Vq9iGElvI87rDHWN1YoeTjdCv+VUYq1APMdjYXPrR2uoy&#xA;xU+o29nGbIGMbemRLLOoKr0PIA+AxVfL5itLVLD9Iw3FjNqB4xwyRNKI3qBwmmtvXgjYlhSslG7V&#xA;ocVY157/ADIutA1CHT9I0+LVbpDbHUBLcG3SFb24W1tl5LHMeckjM32dlU9yMVWx/mPo5mgm17RL&#xA;3Tri2qYrr0BfRozji3pvaetKqkGhLxp74qnH1j8vPO9s1q7aZ5hhj/vLWQQXRjJH7cT8mQ/MA4qw&#xA;DzN/zih+UOslpbOzuNCujVhLp0xVeXY+lMJowPZAuKpf5W/JX83fKPmPTX0j8w5r/wArxXETX+m6&#xA;grs/1VWrJFEsn1mMFl+Gq8KVr1xV7niqFstTsb2W7itZRK9jP9WuuO4SYRpKUr4hZVr92KorFXYq&#xA;h9Qv7XT7Ke9u39O2tkaSVzvRVFdgNyfADriqD0CLUjbSXmpF1ur1/W+qM1VtoyAI4RTaqqKuR1cn&#xA;tTFUzCgEkDc9T8sVY75z1Sz8s6Jf+ZYbCKfUIIwo4oBLKrOtU5gcqU+I9hSp6Yqn1rP9Ytop/TeH&#xA;1UV/SlXjInIV4uu9CO+KquKuxV2KuxV2Ksb/ADFvbmy8l6rdW9o968UJZoIzR+NRyYbGvEbn2xVP&#xA;rN7l7SB7qNYrlo1aeJDyVXIBZQe4B2riqtiqRed/Mlj5a8qalrV7diyitIWKTlPVPqt8MapFyT1H&#xA;dyFVaipxVhH5DWf5jPY63rP5g3E76/e3UcUVpMAiW9rHAksaxxJSOMlrhg4UdV3JOKvTrS8tLyAX&#xA;FpMlxAxZVljYOpKMUYAjbZlIxVWxVhPmnzjoFp5w0bRdSuo7RIQ+pS3E7xpD8CPCkbuzAKQ0of4v&#xA;Bab4qu1D86fylsCRcebtKLDqsN1HOQdxQiEv4Yqxq/8A+cpvyRtKhdee7cdUt7S6btXZmjRPxxV4&#xA;/rX/ADkH+Wt7+YD6taaNeXsEs0Vw9zFbwi7l+rQhIrc82DCISr9Yry6ou3WiqPvf+clry4vEsdL/&#xA;AC/1Ce7n2gimlaNydtxGsEhIBPjir0Pyrol75w8vpqfm3ysukamk0iRWd1HyljRacJEZ1DrWvUUx&#xA;VOE0PzLpf/HI16/tkFKW9xIL+E06Cl4JpFX2jkXFWT+RNf13VI9Ut9aW3N5pt2Lf17SOSKKRHgjm&#xA;WqSPKVcCX4hzPY98VZOzKqlmIVVFWY7AAdzirHPIOk2NloIvLa3Fu+sSPqU6AFd7pjIgKnYMsTKh&#xA;2qab4qyTFXYqxS/tfMeo+d4YJbdT5SsoYbh2dghe/R5GTioDGREqjUNAHUGtRQqsrxV2KofULOO9&#xA;sLmzl/urmJ4XqK/DIpU7fTiqF8tXkt75e0y7lr609rC8wPUSNGC4PuGqMVTLFXYq7FXYq7FWiK7H&#xA;piqVDzVoAuPq092LS45FFivFe1ZyDT9364j9T5pUYqj4Ly1uJbiKGVZJLVxFcIp3R2jWUKfmkit9&#xA;OKsEk8sa35q/MI6n5ktfq3ljyvMP8O6Y7K/1y+KAtqUoUsvGINwgU7g1Y8TtiqU/nt5Z/OjzBpD2&#xA;XkXU7S1094yLyzUtb309eqJcsWjCnw+DvViNsVeaeQfyZ/PDVvKtjDc+f7/yrbWgNp+hoopoprb0&#xA;G4hf3UluGBVVZWDHkprXfFWQ/wDQpj33/KQ+f9b1Wv2vi41NP+LpLnxOKpjYf84d/lBakeudTvqd&#xA;RcXSrXeu/oRw/LFWR2H/ADjV+SVlT0/LEUrAULXE91PU0pUiSVl+4Yqyaw/Kz8tNPIaz8q6TC4NR&#xA;Itlb861r9soW6++KshtbGys4/TtLeO3j2HCJFQUHTZQMVbu7Kzvbdra8gjubd9nhmRZEYe6sCDiq&#xA;QH8v9CgH+4d7nQmApGNNnaKBPlZv6ln98JxVRl0jzvaD/Rryx1qIGgivo3spyPFrm2E0VR7WoxVV&#xA;8v8AlFrLSr5bycx6xrEzXWpXlkzIQ5NIo4nIqVgiVYlJUcgtSN6Yq35it7+Dy8NO+uvc/XVGmvNM&#xA;i/WXe7kSITB4fRjX0omkZgI96A1FDyVTSK9vI9RksW0uaOwhjDQaijwtCwCr8Hph/XVqkgARkbde&#xA;2KrtK1zTNUtTdWcrGISei6zRyQSLJseDxzLHIrfENmXFVe/vYLGxub24bjb2sTzTN4JGpZj9wxVb&#xA;pct7LplpLfxrFfSQxtdRJXispQF1WpJoGrTFUVirsVdiqGsLC3sLVbW3BEKF2VSa05uXI+QLbYqi&#xA;cVdirsVdirsVdiqyWGKaJopkWSJxR43AZSPAg7HFUk8veSfL3l+9v73TIDDcak/O6oxWMgH4FWFO&#xA;MShBsKJXxJxVPsVdirsVdirsVdirsVdirsVdirsVdiqSagfrXmjSrQbx2Uc+oS07OV+rQg+zCaUj&#xA;3XFU7xVC6jpmm6naPZ6laQ3tpJ/eW9zGksbfNHDKcVSXWZdD07VNDtnv5tPnlf6tY2UMqpBNHGpY&#xA;o8UlYyigAVUcxUAHcYqmMaeYoZb6SWa1vICrNp1ssT28ituVjlmMkysO3IRr8jiqlJ5jSz0uK+1i&#xA;zudPMj+lJCImvDGd/jdrMTqsZC15tQDblQ7Yqmi3EDStCsimZVDNFUcwrdCV6itMVQPmPVZdI0G/&#xA;1SK3N29lA84gDKnIIKmrOVAUDdu9OgJ2xV3lq61K68v6dcapCbfU5LeM30LLxKz8QJRTw51p7Yqm&#xA;WKuxV2KuxV2KuxV2KuxV2KuxV2KobU5J49Nu5LcgXCQyNCT0DhSVrX3xV2m3P1rTrW56+vDHJUin&#xA;21DdPpxVE4q7FXYq7FXYq7FXYqh47G3jv575QfrFxHFDIxO3CEuyAD2MrffiqIxV2Kpbf+X9Lv8A&#xA;V9O1W7i9W60oTfUq04o04VWelPtAJQfP5UVTLFXYqhJtI0mbUINSmsoJNRtQwtrx4kaaIMpVhHIR&#xA;yWqsQaHocVSHV9JitoYdLhubmZdav4VaK5nkuAkcRa6uFRpS7hJI4WTjyoKgCmKpveXOt2ot/Rsk&#xA;1FXkK3RikEDxxlvgZI5OSvRftVkX260Cq9dbsm1WXTCs6XMSeoZHt51t2SiklLgp6DU5bgPUeGKo&#xA;m1u7W7t0uLSaO4t5BWOaJg6MPFWUkHFVbFXYq7FXYq7FXYq7FXYq7FVk0SyxPE32ZFKtTrQimKpZ&#xA;5SlabyposrEFpLG2YkdKtCpxVNsVdirsVdirsVdirsVdirsVdiqW2V3cya3qdrI/KGBbd4VoBx9R&#xA;WDCo67pXfFUyxV2KuxVDy2VvLeQXjrWe2WRITU0Al48jTpX4Ovz8cVRGKuxVLZvLukPZT2cMJsYr&#xA;mQTztYSSWUjSjj8ZktmifkeCg77gUNRirUlhq8c1j9S1FUtbdVju4bmE3DzItAWEokiZJCP2jyH+&#xA;TiqZ4q7FXYq7FXYq7FXYq7FXYqk/k7byno6HrFZwRN4VjjCEj6VxVOMVdirsVdirsVUbu7trO1lu&#xA;7qRYbaBDJNKxoqqoqScVY75V07XW1bUte1O7nNtqax/ozSpmI+pxAtVSgCqHkHBm2qPskmlSqyjF&#xA;XYq7FWLWGu6dJ+Yuq6VEXe8TT7NplCMFT05bgnkxAG4njpTrX2NFWU4q7FUl80X0q2q6XZE/pbUw&#xA;0VmFZkMYAHqXDFCGCQggmh3PFerDFV/lPQn0Ly/a6XJcPdzQhjPdyMXklkkcuzszbkkt3xVN8Vdi&#xA;rsVdirsVdirsVdirsVdirsVdirsVQWjaedO02KyL+oIeQVqU+EuWUb1+ypAxVG4q7FXYq7FXYqxw&#xA;V8xamG66BpsvweF3eRN194rdht/NIP8AIHJVkeKuxV2KuxVDfULVLybUIoE+vzRJC8x2LJEXaNC1&#xA;DQBpG7d8VS0eZJ4NtT0m8tKdZokF5ET7G2MkgHu8a4qqeW/NWi+Yra4uNLnEy2txLazr0ZXicruP&#xA;BwOS+xxVfpOky29zd6heyLPqN41GkUELHAhPpQR134qDyY/tMSfABVNMVdirsVdirsVdirsVdirs&#xA;VdirsVdirsVdirsVY95m85WekaNfX9nGdWnsT6c1pZskjxOdqzANVEVqczQlRvTFWQ4q7FXYqkuu&#xA;tf3s0ei2XqQJcoXv9QSq+lb14lIn/wB/S/ZWn2RVuoWqqa2trb2ltFa20aw28CLHDEgoqogoqgeA&#xA;AxVVxV2KuxV2KuxVo4qh7HTrDT7cW9jbR2sC9IoUVFr40UDFUTirsVdirsVdirsVdirsVdirsVdi&#xA;rsVdirsVdirsVQGo6Fo2pENfWUNxIv2JXQeonukn21PuDiqDHl27tjXTNXu7cDcQXLC9hJ/yjPyn&#xA;p7LMuKoN9Q892+v6dZPp9tf6ZLz/AEhqNuzQemuwRvRlL71/ZWRtq9NqqsnxV2KuxV2KuxV2KuxV&#xA;2KuxV2KuxV2KuxV2KuxV2KuxV2KuxV2KuxV2KuxV2KuxV2KuxV2KuxV2KuxV2KuxV2KuxV2KuxV2&#xA;KuxV2KsF1bzR5uv/ADte+V/Kp0+2bSLCG91G81KGadXlu2kFvbxpDLblBSFmeQlqVFFOKvnTWNJl&#xA;1nQvyY0+Xy8PM0twnmH1PL4vPqAnZZQ5Au6r6fplefXfjTvir0H/AJx8szoX5mebfL0ukTeUD9St&#xA;Lu28oNeNqUKpssl0t2XZWYs6gj/Kp2xV9CYq7FXYq7FXYq7FXYq7FXYq7FXYq7FUqj81+WJddk0C&#xA;PVrN9chUPLpizxm5VSK7xBuY236dMVTXFXYq7FXYq7FXYq7FXYq7FXYq7FXYq8q0L82vMWufnPe+&#xA;RIdMtrfStGiuJdQ1FJmujMYhGqpGwWJI2V7mP1EPIjptirLNd/L+y1PXP07aanf6Jqslr9RvLrTX&#xA;hQ3FsGLqkoniuFqhY8JECutdmxVi9/8A84+eV7nSvLOn2uta3pZ8prdppN9p91FBdAXzBpecwhJ7&#xA;cRx47E1riqdeQvyl8v8Ak3U7/V4L7UtZ1vUkSK61bWLn63dGKOnGMOFjHHYdq7DFWb4q7FXYq7FX&#xA;Yq7FXYq7FXYq7FXYq8O/M3zP5z8x+QPzEm0wadb+W9HN7pD288U73twbVOF3MsyypFCFdiI1MT8u&#xA;O5WoxV4H+X2nalqX/OQNhY28DprNp5lutQ1G+3/3kgkEjJToFKo4r35gDFX3birsVdirsVdirsVd&#xA;irsVdiqTa/r11YXFlp+nWY1DV9QLtb2zyehEsMJT155puEpRE9VB8KMxZlFOpCqA/Tvmiy1nSbHV&#xA;LKyeLVZpLdWsp5WliaOB5/UZZY0Uxj0uLHkDVl69MVQ35la95jsdOtNH8r20kvmPX5TZ2F36bNbW&#xA;aheU13cPTgoijqVUmrNQAHfFUf5N8i6H5U0mysbGMyT2kcqyX8vxTzSXLrJcyyv+000kas3yHYYq&#xA;yLFXYq7FXYq7FXYq7FXYq7FXYq7FXYqwbz7+dH5e+RLhbTzHfS297JH6sFsltcSGVelUcJ6R/wCD&#xA;xVGflx+ZWg+fdGbVdJIiiMjrFayTQvdCNCF9SaGJ5PR5NWisa0oe9MVSzzF+TOh6zDrlourappml&#xA;+Y5DcavpdjLbpby3DKFaf95BLKjNwUuEkCsR8SnfFWL/AJXfkDrHk78xNQ85X/mZtTlvo7iGWAQB&#xA;DKs0oZDI5LU4rGp4oBQ7A8eqr2CDUdPuJ5IILmKaeHaaKN1Z0P8AlKDUde+KpDHrnmfUrq8/Q9jZ&#xA;rYWdxJaC4vLiRZJZITxlKxRROFRXqoJepp0HdVe2red7X47rQLe8gWtf0bfc7g+4hu4bOMf8j/vx&#xA;Vr/lYPliEH9JTy6MR9s6rBNYxgjsJp1SBv8AYORiqe2V9ZX1sl1ZXEd1bSbxzwusiMPZlJBxVXxV&#xA;2KuxV2Ksa0cC986eYL9+umrbaRAhNafuVvpZB/xk+txqf+MeKrdYZbLzvoeoXIJs7m3utMil/Zhu&#xA;p3hmjB8BMtuy8j+0FUbvirJ8VdirsVdirsVdirsVdirsVdirsVdirsVdirF/zG/Lry55+8tzaHrc&#xA;NVar2l2oHrW81KLLET3HcdCNjiryy6/5w/8AIsllZy6bqF9oevW8MYlvbKUvE1wEAklEctZF5NU0&#xA;WRaYqgx5C/5ym8mH/nW/Nlt5u0+P7Nnqe0zgdBW4LFRTwucVSzzF/wA5C+fdO0xtI/MPyNf6JDNL&#xA;Cl/q2nmRY2t/VX6xHDz+GskYZAy3G3LbffFXsXlC3/LTzv5T07W9I0S2/RUquLAyWiW8sXpO0Tem&#xA;VAZOLKRVG+nFVPTNPX8v9Q1EBL658qalMLxJzJNfHT7hwRcCRZGluPRleknNeQVi3LivxFVmtle2&#xA;d9axXdlPHdWky8obiF1kjdT3V1JUj5Yqr4qkF75I0Ce5a+tY30rU3+1qGmubWViOnqhP3c4HZZkd&#xA;fbFUOJfOmimtyq+ZNNUbywIltqKU7vEWW3n8SU9I/wAqNiqaaH5j0XXIZJNMulmaBgl1AwaOeByK&#xA;hJ4JAksTf5LqDiqZ4q7FWORg2X5gyIo/d61pvrsB0WXTZljZj7yJfRj/AGGKpprmj2us6TdaZdFl&#xA;iuU4+pGeMkbgho5Y2/ZeNwHRuzAHFUL5O1W51Xyzp97eEG/MXpaiFHFRdwEw3KhewWeNxiqc4q7F&#xA;XYq7FXYq7FXYq7FXYq7FXYq7FXYq7FXYq7FWJ+f/AE5k0nTb+WS38v6ldNaazLGxRXjlhkSK2kkX&#xA;44knmZF5KVqaJy+OhVU7PRte8o2sdrocY1jy/BtHpTskV7bp1It524x3H+rOVbuZT0xVPND8y6Pr&#xA;SyiymIubegu7GZWhuYGbcLNBIFdK9iRQ9QSMVQd55I0eW8l1Cwe40bUpjymu9Nk9H1G/mmhIe3mb&#xA;/KliY4qosvnzSjzV7fzHZr1hKrY39K9Vk5G1mb/JKwj/ACsVRuj+bdG1O5axV3tNVjBaXS7xDb3S&#xA;gdWWN/7xBX+8jLJ4Niqc4qlOseWNI1WZLqeNodRhXjb6lbO0F1GK14rMlGKV6o1Ub9oHFUtEvnTQ&#xA;1AnQeZ9PU0M8QjttSRfF4vgt7ig3JQxH+VGOKptovmLRtajlfTblZnt24XVuwaOeBz+xPBIFlib/&#xA;ACXUHFUs8yTJY+Y/LupSHjCZpdMuJP5BfoDDy/yXuLeOMf5TL9CrJcVYxp/+4bzleacRxsdfVtRs&#xA;v5Vu4Qsd5F4D1E9OVR3Pqt2OKsnxV2KuxV2KuxV2KuxV2KuxV2KuxV2KuxV2KuxV2KqF9Y2d/ZT2&#xA;V7CtxaXKNFPBIKq6OKMpHuMVYlOuu+X9d0vTNJv5NVtdRd66VqBMkltbQ8fWuEvq+twj5qvGZZWZ&#xA;2VQyjcKrddvvKd/fxweY7a40HUoJGi0vVpj9VY8nov1bUIGaMetxB9BpAzdGjPTFUf6HnnSl5W9z&#xA;D5ktFFfSuQlnfUFKlZ4l+rSsd+KmKIeL4qmOieZtK1d5YIGeDULYA3mmXK+ldQ16F4z+yf2XWqN+&#xA;yxGKpV5t1Dy5fS/oGfSpPMWoJxmbT7VY2ktuVeE7zSvDHbN3RvUVz+wDTFVPTLrztZRxaamm6e5j&#xA;j5QR3msXUt0YgaVlkaylLsK0J5NT+Y9cVRc2r+d7aJ7i60TTzBEGeT0NTkZwqgkmk1nbp0Hdxiq7&#xA;/Fl/EK3vlvVbdB1lRbW6X34razzSkf8APP6MVSzUNS/LnXr6AXN+una8gpZyyPLpWpqP5UWYQTsl&#xA;ftRspQ/tKcVTK18k2X6P1S01W6m1eXVmX63eXHpxzcIlCwIpgWJU9LjyUoB8ZLihOKsjxVj/AJ3s&#xA;bmXRf0hYxmXVNGkXUtPRac3kgB9SFSen1iBpIf8AZ4qnNleW17ZwXtq4ktrqNJoJB0aORQysPmDi&#xA;qvirsVdirsVdirsVdirsVdirsVdirsVdirsVdirsVY7rWn65BrkGvaRFDeFLZ7S90+VjFJJHzEiP&#xA;bynkiup5Ao4CvUVZeOKq+n+ZNE1h5NLnRrfUGQ/WNGv4xHOU6MfTaqzR70Lxlk/ysVS+Xy1f6A4u&#xA;vKIVbUU+seW5XK2jqO9mTUWkgHRVHpN0KgnmFUh866x5c17y3qopNpPm/SbC6vNOhuK2ep28kMRf&#xA;nbyKfjjqoV3hd42GxJ6Yqy7yhaeXbPQooNCuI7qzjJ9a8V1lkmn29WW4kX7UztvIW3riqX6l5r0W&#xA;6voIdJim17ULCflJFpaxyiI8CrLLcyyQ20R4vXg0oYjopxVbqXm3UzbG0byrqq3F4HhhjY6cVLMj&#xA;H4nF76f7J251xVMtD8w6bdRfVKXNrc2cIaeG/glt3CKOJflIojkA7tGzL74q1eeprsLWkVuo0yTa&#xA;a7uYg3Mf8UwyAhv9dxx8A2KusPJPlLT54p7HSra1lgNYTDGsQU+KqnFR9AxVOwQRUGoxVvFWNeR2&#xA;Fpbah5eI4nQrt7a3WlB9TlAuLTgP5Y4ZRDXxQ4qyXFXYq7FXYq7FXYq7FXYq7FXYq7FXYqh7y/sr&#xA;MQm6nSH6xKlvAHIBeWQ0VFHdj4DtviqIxVZLLFEhkldY41+07EAD5k4qkl95+8i6eSL/AMx6XaEd&#xA;RPe28VN6ftuO+Ksevfz8/Juy/vvNlg3/ABgdp+pp/ulZMVYb5n/5yR/5x61O2W3v7uTVo0YPC0dl&#xA;cpJE9NpIpJEgeNx2ZGDDtirFdO/5y48t6bfmw0601nzDpJQtC11HEt7Cw6J6qySG4Qk05SKrr3aS&#xA;uyqG1P8A5yBufPHmLy9ZD8vL/UNGeaR4bOUuyzzIyKLgrHbyerHar6heIHiagsRxxV9B655L8nXx&#xA;nv7/AEOyvLkRH1DLDGfVVF+FZqikijsHqB2xVHadeaJa2MFvDLaWscaAC3haNI0J3IVQQAK4quvF&#xA;+vPYfVys1qs/qzyqwKgRKxUAg9fU44qu1tZJNPaCJS0lwyQrQfZDsAzH2VatiqPxV2KpdoW1jInT&#xA;07m6QDwAuJOP/C0xVMcVY3eg6f57067FBBrdrJp057m4tOV1aj5ek11X6MVZJirsVdirsVdirsVd&#xA;irsVdirsVdiqyUSmJxEypKVPpswLKGpsSoKkivaoxV8t/mN+VP8AzkJd/mBpuvXHmEXlmk/o2mp6&#xA;YjoNMjuB6TSCxryUcW+J0d2puzbYqyY/840ef7/fXPzY1m7U/agQThACfiC87pl3AH7GKrov+cNv&#xA;IsziXV9f1rUZQakmaBASd2ryilbf/WxVO7H/AJxL/JW2p62m3V7SlfXvJ1rQU39FoeuKsisf+cff&#xA;yZsaej5Usnp09f1LjtT/AHc8mKsgsfy6/L+wH+g+WdKtfeGyt0O4p1VB4Yqn0MEECcIY1iTrxQBR&#xA;U+wxV5/ZeT/Kd/8AmJ5km1Syj/SpEZs4D8AkspYbctdoop+8+tRPG8i0b4VDbcMVTt/JPkz9IwWt&#xA;xo0F6ZI5J1kva3fEwtGooLj1f9+1B7fTiqZ/4T8q/wDVmsf+kaH/AJpxVAP5K8iXl3OBodnHd25U&#xA;PdwQJbzKzKGHCeEJKpC06MMVTjSdKh0y2a3hnuZ4i5dTdzy3TrUAcRLMzyFdq/ExxVG4q7FUu0kh&#xA;bnU4K/3V1UD2lijkrT/WY4qmOKpN5r0i61LSwbBlj1awlS90uR9k+sQ1ojmhISVC0UhG/BjTfFVf&#xA;y9rtrrmlRX8CtCxLR3NrJQS288ZKTQSgVo8bgqe3cbYqmWKuxV2KuxV2KuxV2KuxV2KuxV2KuxV2&#xA;KuxVi/5pXl3Zflp5rvLOeS2u7bSL6W3uIWaOSORLd2V0dSGVlIqCMVSH8idL1SPyBpet6pr2o65f&#xA;67ZWl1MdQm9WOH918KQKRVaqRzJYl2HI4q9GxV2Kse85aDc6laW13pyj9MabMk9ofVe3Lx8l+sW/&#xA;rR/GizRAr4cuJI2xVjup6nok1tENRttb0y+9WHnLci+j9GIyqZlF5as1uoMYavCXf6MVb+s/lOBx&#xA;fzZJE3ThL5kv43HzV7xWGKomwtPKVzfSW2n+YbuOUMq25j1q4ujKWUNVUuJp1PE7UA+eKs4UcVAq&#xA;TQUqep+eKt4q7FUq1UfUrhNYT+7jX0tQA729aiT/AJ4sS3+qW9sVTQEEVG4PQ4q3irFtbs73RNTk&#xA;8y6TA9zBMFGv6XCvKSdEHFLqBARWeFRRlG8kY47sqDFWQadqNjqVjBf2E6XNncoJIJ4zyV1boQcV&#xA;ROKuxV2KuxV2KuxV2KuxV2KuxV2KuxV2KqN5Z2l7aTWd5BHc2lyjRXFvMqyRyRuOLI6MCrKwNCDi&#xA;rVlZWdjaQ2dlBHa2dugjt7aFFjijRRRVRFAVVA6AYqr4q7FXYq7FXYql155c0C9tpLW7022mt5RR&#xA;43iQg0NQenUEVB7HFUkez80+WwZNNeXzBoymrabcyV1CFK7/AFa5kP8ApAA6Rznn/wAW9FxVPtG1&#xA;vTNZsheadN60IZo5AVZJI5E2eKWNwrxyL+0jgMO4xVHYq0QGBBFQdiD0IxVB6VaT2cDWjkNbwuVs&#xA;2rVvRoCqN/qbqPYDFUbirsVY1JoeoaPqn1/y9Gr2d9cB9Z0lm4ITIaPd2xJ4xyg/FIn2ZNzs+7Ks&#xA;lxV2KuxV2KuxV2KuxV2KuxV2KuxV2KuxV2KuxV2KuxV2KuxV2KuxV2KsTuLq38vec5rm8k+r6V5h&#xA;igQTsCIU1G3JiAkk+yjXMLRonKgJj4j4iAVWWYq7FXYq7FXYq7FXYq7FXYq7FXYq7FXYq7FXYq7F&#xA;XYq7FXYq7FXYq7FXYq7FXYq7FXYq7FVK6tbW7tpbW7hS4tp1Mc0Eqh43RhRlZWBDAjqDirFvQ1ny&#xA;lvarPrHlhftWg5T39iv/ABTXk9zAP99msij7HPZAqyPS9W0zVbJL3TbqO7tJK8JoWDrUbEGnQg7E&#xA;Hcd8VReKuxV2KuxV2KuxV2KuxV2KuxV2KuxV2KuxV2KuxV2KuxV2KuxV2KuxV2KuxV2KuxV2KuxV&#xA;INV8nWF1eSapp80uj624AbUrLirSBeguInDQzrTb94pIH2Sp3xVC/wCJdZ0VuHmizBswQF13Tkkk&#xA;tqfzXNv8c1r7tWSMDdpFxVk0M0M8Mc8EiywyqHilQhlZWFVZWGxBHQ4qvxV2KuxV2KuxV//Z</xapGImg:image>
    </rdf:li>
   </rdf:Alt>
  </xap:Thumbnails>
 </rdf:Description>

 <rdf:Description rdf:about=''
  xmlns:dc='http://purl.org/dc/elements/1.1/'>
  <dc:format>image/svg+xml</dc:format>
 </rdf:Description>

</rdf:RDF>
</x:xmpmeta>
                                                                                                                                                                                                                                                                                                                                                                                                                                                                                                                                                                                                                                                                                                                                                                                                                                                                                                                                                                                                                                                                                                                                                                                                                                                                                                                                                                                                                                                                                                                                                                                                                                                                                                                                                                                                                                                                                                                                                                                                                                                                                                                                <?xpacket end='w'?>
			</metadata>
		<g id="Layer_1">
			<line style="fill:none;stroke:#404040;stroke-width:0.5;" x1="17.097" y1="24.368" x2="14.759" y2="32.966"/>
			<path style="fill:#404040;" d="M14.248,34.858c-0.006-0.959-0.128-2.18-0.389-2.988l0.971,0.847l1.264-0.232
				C15.46,33.047,14.737,34.036,14.248,34.858z"/>
			
				<rect x="14.27" y="27.526" transform="matrix(0.2595 -0.9658 0.9658 0.2595 -16.2258 36.8175)" style="fill:#FFFFFF;" width="3.25" height="2.925"/> 
			<line style="fill:none;stroke:#404040;stroke-width:0.5;" x1="55.351" y1="29.476" x2="50.674" y2="46.671"/>
			<path style="fill:#404040;" d="M50.21,48.373c-0.004-0.863-0.114-1.962-0.35-2.689l0.874,0.762l1.138-0.209
				C51.302,46.743,50.651,47.632,50.21,48.373z"/>
			
				<rect x="51.261" y="37.804" transform="matrix(0.2595 -0.9658 0.9658 0.2595 1.2419 80.1523)" style="fill:#FFFFFF;" width="3.25" height="2.925"/> 
			<line style="fill:none;stroke:#404040;stroke-width:0.5;" x1="111.916" y1="49.857" x2="109.577" y2="58.456"/>
			<path style="fill:#404040;" d="M109.065,60.348c-0.005-0.958-0.127-2.18-0.389-2.988l0.971,0.847l1.264-0.232
				C110.278,58.537,109.555,59.525,109.065,60.348z"/>
			
				<rect x="108.951" y="53.315" transform="matrix(0.2595 -0.9658 0.9658 0.2595 28.9829 147.3537)" style="fill:#FFFFFF;" width="3.25" height="2.925"/> 
			<rect x="1.181" y="75.028" style="fill:none;" width="147.402" height="2.834"/> 
			<line style="fill:none;stroke:#404040;stroke-width:0.5;" x1="108.066" y1="65.061" x2="108.483" y2="73.655"/>
			<path style="fill:#404040;" d="M108.574,75.545c-0.307-0.821-0.809-1.808-1.317-2.368l1.212,0.228l1.161-0.85
				C109.188,73.364,108.793,74.586,108.574,75.545z"/>
			<line style="fill:none;stroke:#404040;stroke-width:0.5;" x1="111.25" y1="77.367" x2="117.694" y2="79.139"/>
			<path style="fill:#404040;" d="M119.114,79.527c-0.757,0.146-1.739,0.483-2.414,0.938l0.81-1.38l0.001-1.602
				C117.861,78.222,118.536,79.013,119.114,79.527z"/>
			<line style="fill:none;stroke:#404040;stroke-width:0.5;" x1="118.784" y1="38.035" x2="114.118" y2="45.26"/>
			<path style="fill:#404040;" d="M113.089,46.849c0.291-0.94,0.561-2.196,0.584-3.117l0.578,1.318l1.164,0.412
				C114.694,45.69,113.765,46.292,113.089,46.849z"/>
			<line style="fill:none;stroke:#404040;stroke-width:0.5;" x1="122.539" y1="77.234" x2="127.675" y2="70.532"/>
			<path style="fill:#404040;" d="M128.805,69.049c-0.357,0.912-0.72,2.146-0.813,3.073l-0.465-1.404l-1.109-0.563
				C127.141,70.015,128.099,69.526,128.805,69.049z"/>
			<line style="fill:none;stroke:#404040;stroke-width:0.5;" x1="133.513" y1="49.372" x2="132.174" y2="41.1"/>
			<path style="fill:#404040;" d="M131.882,39.278c0.397,0.744,1.01,1.614,1.583,2.069l-1.25-0.009l-1.082,1.028
				C131.494,41.504,131.763,40.248,131.882,39.278z"/>
			<line style="fill:none;stroke:#404040;stroke-width:0.5;" x1="130.401" y1="37.491" x2="123.957" y2="35.719"/>
			<path style="fill:#404040;" d="M122.538,35.331c0.757-0.147,1.739-0.483,2.414-0.939l-0.81,1.38l-0.001,1.602
				C123.79,36.636,123.115,35.845,122.538,35.331z"/>
			<line style="fill:none;stroke:#404040;stroke-width:0.5;" x1="15.037" y1="37.316" x2="15.454" y2="45.91"/>
			<path style="fill:#404040;" d="M15.544,47.8c-0.306-0.821-0.809-1.808-1.317-2.368l1.213,0.228l1.161-0.85
				C16.159,45.619,15.764,46.841,15.544,47.8z"/>
			<line style="fill:none;stroke:#404040;stroke-width:0.5;" x1="16.433" y1="51.877" x2="22.876" y2="53.649"/>
			<path style="fill:#404040;" d="M24.296,54.038c-0.757,0.147-1.739,0.483-2.415,0.939l0.81-1.38l0.001-1.602
				C23.043,52.732,23.718,53.524,24.296,54.038z"/>
			<line style="fill:none;stroke:#404040;stroke-width:0.5;" x1="23.966" y1="12.545" x2="19.3" y2="19.771"/>
			<path style="fill:#404040;" d="M18.271,21.359c0.29-0.94,0.561-2.195,0.584-3.117l0.578,1.318l1.163,0.412
				C19.876,20.201,18.947,20.803,18.271,21.359z"/>
			<line style="fill:none;stroke:#000000;" x1="27.721" y1="51.745" x2="32.856" y2="45.042"/>
			<path d="M34.584,42.792c-0.536,1.368-1.08,3.218-1.221,4.609l-0.698-2.106l-1.665-0.844
				C32.088,44.24,33.525,43.506,34.584,42.792z"/>
			<line style="fill:none;stroke:#404040;stroke-width:0.5;" x1="38.695" y1="23.882" x2="37.356" y2="15.61"/>
			<path style="fill:#404040;" d="M37.064,13.789c0.397,0.744,1.01,1.614,1.583,2.069l-1.25-0.009l-1.082,1.029
				C36.676,16.014,36.945,14.758,37.064,13.789z"/>
			<line style="fill:none;stroke:#404040;stroke-width:0.5;" x1="35.147" y1="12.315" x2="28.704" y2="10.543"/>
			<path style="fill:#404040;" d="M27.284,10.155c0.757-0.147,1.739-0.483,2.414-0.938l-0.81,1.38l-0.001,1.602
				C28.537,11.461,27.862,10.669,27.284,10.155z"/>
			
				<line style="fill:none;stroke:#000000;stroke-width:0.5;stroke-dasharray:2;" x1="152.914" y1="66.055" x2="86.062" y2="48.083"/>
			<line style="fill:none;stroke:#404040;stroke-width:0.5;" x1="47.652" y1="59.882" x2="48.487" y2="77.07"/>
			<path style="fill:#404040;" d="M58.128,84.864c-0.458-0.643-1.124-1.384-1.696-1.752l1.107-0.084l0.811-1.01
				C58.154,82.825,58.096,83.979,58.128,84.864z"/>
			<line style="fill:none;stroke:#404040;stroke-width:0.5;" x1="54.021" y1="84.494" x2="66.908" y2="88.039"/>
			<path style="fill:#404040;" d="M68.183,88.391c-0.682,0.132-1.565,0.435-2.173,0.845l0.729-1.242l0.001-1.442
				C67.055,87.216,67.663,87.929,68.183,88.391z"/>
			<line style="fill:none;stroke:#404040;stroke-width:0.5;" x1="69.088" y1="5.83" x2="59.755" y2="20.28"/>
			<path style="fill:#404040;" d="M58.833,21.711c0.608-0.501,1.445-1.042,2.093-1.249l-1.047-0.37l-0.52-1.187
				C59.337,19.735,59.094,20.865,58.833,21.711z"/>
			<line style="fill:none;stroke:#404040;stroke-width:0.5;" x1="76.597" y1="84.229" x2="86.869" y2="70.824"/>
			<path style="fill:#404040;" d="M87.887,69.499c-0.322,0.821-0.648,1.931-0.732,2.765l-0.419-1.263l-0.998-0.507
				C86.389,70.368,87.251,69.928,87.887,69.499z"/>
			<line style="fill:none;stroke:#404040;stroke-width:0.5;" x1="98.546" y1="28.503" x2="95.868" y2="11.959"/>
			<path style="fill:#404040;" d="M95.604,10.322c0.357,0.669,0.909,1.453,1.425,1.862l-1.125-0.008l-0.974,0.925
				C95.255,12.325,95.497,11.194,95.604,10.322z"/>
			<line style="fill:none;stroke:#404040;stroke-width:0.5;" x1="92.321" y1="4.742" x2="79.435" y2="1.197"/>
			<path style="fill:#404040;" d="M78.16,0.845C78.841,0.713,79.725,0.41,80.333,0l-0.729,1.242l-0.001,1.442
				C79.287,2.02,78.679,1.308,78.16,0.845z"/>
			<g>
				
					<linearGradient id="XMLID_3_" gradientUnits="userSpaceOnUse" x1="127.9038" y1="90.8643" x2="127.9038" y2="99.5518" gradientTransform="matrix(-1.2554 -0.3375 0.3375 -1.2554 205.0614 208.3127)">
					<stop  offset="0" style="stop-color:#D1D1D1"/>
					<stop  offset="0.3" style="stop-color:#FFFFFF"/>
					<stop  offset="1" style="stop-color:#999999"/>
					<midPointStop  offset="0" style="stop-color:#D1D1D1"/>
					<midPointStop  offset="0.5" style="stop-color:#D1D1D1"/>
					<midPointStop  offset="0.3" style="stop-color:#FFFFFF"/>
					<midPointStop  offset="0.5" style="stop-color:#FFFFFF"/>
					<midPointStop  offset="1" style="stop-color:#999999"/>
				</linearGradient>
				<path style="fill:url(#XMLID_3_);stroke:#000000;stroke-width:0.5;" d="M83.865,50.576l-0.011,0.09l0.832,0.157
					c0.011,0.004,0.02,0.015,0.032,0.018c0.018,0.005,0.037-0.004,0.055-0.002l0.123,0.023l0.009-0.027
					c0.522-0.125,1.193-1.237,1.584-2.692c0.439-1.636,0.359-3.079-0.179-3.223c-0.096-0.026-0.201,0.005-0.309,0.059l0.028-0.103
					l-18.413-4.95l-1.575,5.858L83.865,50.576z"/>
				
					<linearGradient id="XMLID_4_" gradientUnits="userSpaceOnUse" x1="160.292" y1="26.0449" x2="160.292" y2="35.2124" gradientTransform="matrix(-1.146 -0.3081 0.3081 -1.146 241.0393 127.2341)">
					<stop  offset="0" style="stop-color:#D1D1D1"/>
					<stop  offset="0.3" style="stop-color:#FFFFFF"/>
					<stop  offset="1" style="stop-color:#999999"/>
					<midPointStop  offset="0" style="stop-color:#D1D1D1"/>
					<midPointStop  offset="0.5" style="stop-color:#D1D1D1"/>
					<midPointStop  offset="0.3" style="stop-color:#FFFFFF"/>
					<midPointStop  offset="0.5" style="stop-color:#FFFFFF"/>
					<midPointStop  offset="1" style="stop-color:#999999"/>
				</linearGradient>
				<path style="fill:url(#XMLID_4_);stroke:#000000;stroke-width:0.5;" d="M67.554,39.876c-0.539-0.145-1.331,1.063-1.771,2.699
					c-0.439,1.635-0.359,3.078,0.179,3.223c0.538,0.145,1.331-1.064,1.771-2.699C68.172,41.464,68.092,40.021,67.554,39.876z"/>
			</g>
			<line style="fill:none;stroke:#000000;stroke-width:0.5;stroke-dasharray:2;" x1="66.917" y1="42.937" x2="0.065" y2="24.965"/>
			
				<rect x="35.369" y="33.541" transform="matrix(0.2595 -0.9658 0.9658 0.2595 -6.4095 61.6485)" style="fill:#FFFFFF;" width="3.25" height="2.925"/> 
			<line style="fill:none;stroke:#404040;stroke-width:0.5;" x1="35.477" y1="39.606" x2="37.826" y2="31.012"/>
			<path style="fill:#404040;" d="M38.371,29.128c0.005,0.959,0.127,2.18,0.389,2.988l-0.971-0.847l-1.264,0.232
				C37.158,30.939,37.881,29.951,38.371,29.128z"/>
			
				<rect x="130.101" y="58.671" transform="matrix(0.2595 -0.9658 0.9658 0.2595 39.4734 171.7456)" style="fill:#FFFFFF;" width="3.25" height="2.925"/> 
			<line style="fill:none;stroke:#404040;stroke-width:0.5;" x1="130.339" y1="65.108" x2="132.677" y2="56.51"/>
			<path style="fill:#404040;" d="M133.188,54.618c0.006,0.958,0.128,2.18,0.389,2.988l-0.971-0.847l-1.264,0.232
				C131.976,56.429,132.699,55.44,133.188,54.618z"/>
			
				<rect x="93.393" y="49.143" transform="matrix(0.2593 -0.9658 0.9658 0.2593 21.503 129.2489)" style="fill:#FFFFFF;" width="3.25" height="2.925"/> 
			<line style="fill:none;stroke:#404040;stroke-width:0.5;" x1="92.197" y1="59.976" x2="96.874" y2="42.78"/>
			<path style="fill:#404040;" d="M97.337,41.079c0.005,0.863,0.115,1.962,0.35,2.689l-0.874-0.762l-1.138,0.209
				C96.246,42.709,96.896,41.819,97.337,41.079z"/>
			<path style="fill:none;stroke:#000000;stroke-width:0.5;" d="M137.325,152.249c0,0-5.377-5.113-6.507-6.478
				c-1.13-1.365-4.72-5.618-5.105-7.862c-0.385-2.244-3.02-9.271-3.565-11.181c-0.545-1.909-4.26-9.728-4.599-10.714
				c-0.339-0.986-0.36-1.957-0.963-3.069c-0.602-1.112-2.834-4.24-2.485-5.309c0.35-1.069,1.234-3.254,1.234-3.254l-0.895-0.84
				l-3.783,0.111l-1.383,1.535l-1.64,5.119l1.351,4.629c0,0,0.378,3.613,0.531,4.648c0.153,1.034,1.726,3.847,1.726,3.847"/>
			<path style="fill:none;stroke:#000000;stroke-width:0.5;" d="M108.358,122.049l-0.963,2.011l-2.508-1.063
				c0,0-4.569-2.462-5.737-3.021c-1.169-0.56-5.143-2.462-5.143-2.462l-7.14-3.693l-6.175-2.407l-4.976-1.009l-3.487-1.12
				c0,0-4.509-0.786-5.702-0.396c-1.192,0.39-1.47,0.669-1.62,1.284c-0.15,0.614-0.111,1.732-0.111,1.732l0.775,0.783l-3.073-0.785
				c0,0-3.677-1.623-4.907,0.946c-1.23,2.569,0.065,3.464,0.065,3.464l0.902,1.118l-1.864,0.893l-0.388,2.011l1.983,2.46
				l2.571,1.231l2.221,1.063"/>
			<path style="fill:none;stroke:#000000;stroke-width:0.5;" d="M62.589,125.132c-0.255,0.467-0.578,0.901-0.979,1.179
				c-1.289,0.893-0.316,3.413-0.316,3.413l8.776,4.476l7.423,5.202"/>
			<polyline style="fill:none;stroke:#000000;stroke-width:0.5;" points="122.31,169.563 111.446,163.743 103.759,157.802 
				102.463,153.816 99.651,151.794 "/>
			<polyline style="fill:none;stroke:#000000;stroke-width:0.5;" points="79.725,132.377 77.432,134.239 76.676,136.687 
				77.661,138.444 "/>
			<polyline style="fill:none;stroke:#000000;stroke-width:0.5;" points="78.082,137.564 76.2,139.33 75.856,141.681 
				77.966,144.121 "/>
			<path style="fill:none;stroke:#000000;stroke-width:0.5;" d="M80.311,132.335l2.551,1.011c0,0,2.438-0.476,3.118-0.825
				c0.681-0.349,3.576-1.689,3.576-1.689l3.5,0.411l1.646-0.386l3.803,1.286"/>
			<polyline style="fill:none;stroke:#000000;stroke-width:0.5;" points="78.25,138.43 80.056,138.764 83.017,138.449 
				84.869,138.016 89.082,137.976 93.025,138.188 97.445,139.33 "/>
			<polyline style="fill:none;stroke:#000000;stroke-width:0.5;" points="65.061,112.789 66.258,114.623 68.585,116.098 
				72.092,117.776 76.835,119.167 80.842,121.002 85.868,123.409 "/>
			<polyline style="fill:none;stroke:#000000;stroke-width:0.5;" points="58.443,117.619 62.05,119.718 68.648,123.381 
				73.507,125.213 80.006,129.103 "/>
			<polyline style="fill:none;stroke:#000000;stroke-width:0.5;" points="64.337,125.445 70.894,128.375 74.117,130.826 
				78.55,133.013 "/>
			<polyline style="fill:none;stroke:#808080;stroke-width:0.5;" points="93.571,131.197 94.35,133.002 93.989,134.79 
				93.421,136.626 "/>
			<polyline style="fill:none;stroke:#808080;stroke-width:0.5;" points="100.32,132.834 100.149,135.24 99.314,137.329 "/>
			<polyline style="fill:none;stroke:#000000;stroke-width:0.5;" points="110.283,127.849 107.417,127.857 100.319,126.112 
				93.001,125.082 86.777,124.835 83.184,125.96 79.024,128.922 79.584,132.67 "/>
			<polyline style="fill:none;stroke:#808080;stroke-width:0.5;" points="95.185,126.562 95.632,128.822 95.223,130.148 "/>
			<polyline style="fill:none;stroke:#808080;stroke-width:0.5;" points="87.172,126.545 88.806,128.055 88.856,129.747 "/>
			<path style="fill:none;stroke:#808080;stroke-width:0.5;" d="M106.194,128.621c-0.838,0.858-4.903,3.514-5.726,3.707"/>
			<line style="fill:none;stroke:#808080;stroke-width:0.5;" x1="84.759" y1="136.856" x2="84.978" y2="134.913"/>
			<line style="fill:none;stroke:#808080;stroke-width:0.5;" x1="92.29" y1="141.528" x2="91.96" y2="143.214"/>
			<polyline style="fill:none;stroke:#808080;stroke-width:0.5;" points="82.628,140.667 82.569,143.331 82.286,144.249 
				80.465,144.581 77.966,144.121 "/>
			<path style="fill:none;stroke:#000000;stroke-width:0.5;" d="M83.104,144.041c0.222,0.019,0.412,0.043,0.559,0.075
				c1.251,0.274,7.221,0.107,7.221,0.107l4.641,0.428"/>
			<polyline style="fill:none;stroke:#000000;stroke-width:0.5;" points="78.14,144.079 78.139,144.335 78.485,145.583 
				78.635,145.954 79.944,147.039 83.699,147.863 91.523,148.492 94.184,148.531 99.651,151.794 "/>
			<line style="fill:none;stroke:#808080;stroke-width:0.5;" x1="83.683" y1="147.299" x2="84.01" y2="144.384"/>
			<line style="fill:none;stroke:#808080;stroke-width:0.5;" x1="92.168" y1="145.786" x2="92.124" y2="147.783"/>
			<polyline style="fill:none;stroke:#808080;stroke-width:0.5;" points="112.113,132.529 113.125,142.585 118.713,151.987 "/>
			<line style="fill:none;stroke:#000000;stroke-width:2;" x1="89.301" y1="39.554" x2="71.899" y2="34.856"/>
			<path d="M68.399,33.911c1.48,1.054,3.24,2.647,4.208,4.091l-0.253-3.023l1.74-2.485C72.531,33.253,70.209,33.744,68.399,33.911z"
				/>
			<line style="fill:none;stroke:#000000;stroke-width:2;" x1="59.573" y1="116.246" x2="42.216" y2="111.386"/>
			<path d="M38.726,110.408c1.47,1.068,3.215,2.677,4.169,4.13l-0.225-3.026l1.763-2.469
				C42.863,109.79,40.537,110.259,38.726,110.408z"/>
			<g>
				<g>
					<text transform="matrix(1 0 0 1 48.3115 108.0449)"><tspan x="0" y="0" style="font-family:'Helvetica'; font-size:10;">d</tspan></text>
				</g>
				<path style="fill:none;stroke:#000000;stroke-width:1.75;" d="M53.655,108.635c3.206-3.769,4.168-7.727,1.924-7.727
					c-2.245,0-0.962,5.842,0.641,7.538"/>
			</g>
			<line style="fill:none;stroke:#000000;stroke-width:2;" x1="75.915" y1="45.771" x2="37.023" y2="49.953"/>
			<path d="M33.42,50.337c1.626-0.811,3.613-2.109,4.793-3.385l-0.721,2.947l1.331,2.726C37.399,51.63,35.182,50.784,33.42,50.337z"
				/>
			<line style="fill:none;stroke:#000000;" x1="119.863" y1="105.525" x2="124.313" y2="99.474"/>
			<path d="M125.86,97.383c-0.398,1.312-0.756,3.115-0.757,4.51l-0.905-2.25l-1.743-1.111
				C123.517,98.481,124.875,97.951,125.86,97.383z"/>
			<g>
				<text transform="matrix(1 0 0 1 128.8696 97.5635)"><tspan x="0" y="0" style="font-family:'Helvetica'; font-size:10;">d</tspan></text>
				<text transform="matrix(1 0 0 1 134.4312 97.5635)"><tspan x="0" y="0" style="font-family:'Helvetica-Bold'; font-size:10;">B</tspan></text>
			</g>
			<g>
				<text transform="matrix(1 0 0 1 57.1128 148.9189)"><tspan x="0" y="0" style="font-family:'Helvetica-Bold'; font-size:10;">r</tspan></text>
			</g>
			<line style="fill:none;stroke:#000000;stroke-width:2;" x1="79.201" y1="136.19" x2="40.272" y2="140.008"/>
			<path d="M36.667,140.359c1.634-0.796,3.632-2.076,4.825-3.34l-0.749,2.94l1.306,2.738
				C40.633,141.689,38.424,140.821,36.667,140.359z"/>
		</g>
	</svg>
