<?xml version="1.0" encoding="UTF-8" standalone="no"?>
<!-- Generator: Adobe Illustrator 11 Build 196, SVG Export Plug-In . SVG Version: 6.0.0 Build 78)  -->

<svg
   xmlns:xapGImg="http://ns.adobe.com/xap/1.0/g/img/"
   xmlns:xap="http://ns.adobe.com/xap/1.0/"
   xmlns:x="adobe:ns:meta/"
   xmlns:dc="http://purl.org/dc/elements/1.1/"
   xmlns:cc="http://creativecommons.org/ns#"
   xmlns:rdf="http://www.w3.org/1999/02/22-rdf-syntax-ns#"
   xmlns:svg="http://www.w3.org/2000/svg"
   xmlns="http://www.w3.org/2000/svg"
   xmlns:sodipodi="http://sodipodi.sourceforge.net/DTD/sodipodi-0.dtd"
   xmlns:inkscape="http://www.inkscape.org/namespaces/inkscape"
   width="147.384"
   height="120.322"
   viewBox="0 0 147.384 120.322"
   style="overflow:visible;enable-background:new 0 0 147.384 120.322"
   xml:space="preserve"
   id="svg2"
   version="1.1"
   sodipodi:docname="capvi.svg"><defs
     id="defs127" /><sodipodi:namedview
     pagecolor="#ffffff"
     bordercolor="#666666"
     borderopacity="1"
     objecttolerance="10"
     gridtolerance="10"
     guidetolerance="10"
     inkscape:pageopacity="0"
     inkscape:pageshadow="2"
     inkscape:window-width="1280"
     inkscape:window-height="997"
     id="namedview125"
     showgrid="false"
     inkscape:zoom="5.5632538"
     inkscape:cx="56.592126"
     inkscape:cy="58.376563"
     inkscape:window-x="0"
     inkscape:window-y="0"
     inkscape:window-maximized="1"
     inkscape:current-layer="svg2" /><metadata
     id="metadata4"><?xpacket begin='﻿' id='W5M0MpCehiHzreSzNTczkc9d'?><x:xmpmeta
       x:xmptk="XMP toolkit 3.0-29, framework 1.6"><metadata><rdf:RDF><rdf:Description
             rdf:about="" /><rdf:Description
             rdf:about="" /><rdf:Description
             rdf:about=""><xap:CreateDate>2006-07-17T15:00:55Z</xap:CreateDate><xap:ModifyDate>2006-07-17T15:00:55Z</xap:ModifyDate><xap:CreatorTool>Illustrator</xap:CreatorTool><xap:Thumbnails><rdf:Alt><rdf:li
                   rdf:parseType="Resource"><xapGImg:format>JPEG</xapGImg:format><xapGImg:width>256</xapGImg:width><xapGImg:height>212</xapGImg:height><xapGImg:image>/9j/4AAQSkZJRgABAgEASABIAAD/7QAsUGhvdG9zaG9wIDMuMAA4QklNA+0AAAAAABAASAAAAAEA
AQBIAAAAAQAB/+4ADkFkb2JlAGTAAAAAAf/bAIQABgQEBAUEBgUFBgkGBQYJCwgGBggLDAoKCwoK
DBAMDAwMDAwQDA4PEA8ODBMTFBQTExwbGxscHx8fHx8fHx8fHwEHBwcNDA0YEBAYGhURFRofHx8f
Hx8fHx8fHx8fHx8fHx8fHx8fHx8fHx8fHx8fHx8fHx8fHx8fHx8fHx8fHx8f/8AAEQgA1AEAAwER
AAIRAQMRAf/EAaIAAAAHAQEBAQEAAAAAAAAAAAQFAwIGAQAHCAkKCwEAAgIDAQEBAQEAAAAAAAAA
AQACAwQFBgcICQoLEAACAQMDAgQCBgcDBAIGAnMBAgMRBAAFIRIxQVEGE2EicYEUMpGhBxWxQiPB
UtHhMxZi8CRygvElQzRTkqKyY3PCNUQnk6OzNhdUZHTD0uIIJoMJChgZhJRFRqS0VtNVKBry4/PE
1OT0ZXWFlaW1xdXl9WZ2hpamtsbW5vY3R1dnd4eXp7fH1+f3OEhYaHiImKi4yNjo+Ck5SVlpeYmZ
qbnJ2en5KjpKWmp6ipqqusra6voRAAICAQIDBQUEBQYECAMDbQEAAhEDBCESMUEFURNhIgZxgZEy
obHwFMHR4SNCFVJicvEzJDRDghaSUyWiY7LCB3PSNeJEgxdUkwgJChgZJjZFGidkdFU38qOzwygp
0+PzhJSktMTU5PRldYWVpbXF1eX1RlZmdoaWprbG1ub2R1dnd4eXp7fH1+f3OEhYaHiImKi4yNjo
+DlJWWl5iZmpucnZ6fkqOkpaanqKmqq6ytrq+v/aAAwDAQACEQMRAD8A9U4q7FXYq7FXYq7FXYq7
FXYq7FXYq7FXYq7FXYq7FXYq7FXYq7FXYq7FXYq7FXYq7FXYq7FXYq7FXYq7FXYq7FXYq7FXYqxP
zt5r1Ly5qvlh1jhfQ9V1JdL1WR1czRPdRsLR42DBVX11CPyU/aHTFVDzT5x1Wy89+VfKmkRW8s2r
m5utWknV2MFhaICzJwZKPJIwRCaj2xVmeKuxV2KuxV2KuxVL9eudXttIuptHs1v9TVKWlq7rEjSM
QoLuxFEWvJu9BtvTFWNXWp/mpp9vNafomx1u9mQjT9WsnFnaxysAFN7aXM7zLEh3JgmkZh+yuKsz
QOEUOQz0HIgUBPegJNPvxVdirsVdirsVdirsVdirsVdirsVdirsVdirsVdirsVdirsVdirsVdirG
/wAx/LD+Z/JGr6NEeN3PAXsJAQCl3CRNbOCenGZFOKsF/JbVLjzv5i1r8xruB4A9rZ6Fp8Ug4lBb
xi4vwB4G7lK/7DFXr2KuxV2KuxV2KuxVBa1p76jpF9p8dxLZyXcEkCXdu7RzRNIhUSRuhVlZSagg
4q8ql/MfWLX8gJ9Umdx5vton0B1qfX/TCS/UA3xbl/UpLir07ytpV3pHlvTNMvLuW/vLO2iiur64
keaWaVUAkkZ3JY8mqd8VTTFXYq7FXYq7FXYq7FXYq7FXYq7FXYq7FXYq7FXYq7FXYq7FXYq7FVOa
4t4OHrSpF6riOPmwXk7dFWvUnwxVUxV2KuxV2KuxV2KuxV2KvIb38t/M0v5twukCDyC+oR+aZ5BI
gYavDbG2WL0y3qfFIqTkheNa71xV69irsVdirsVdirsVdirsVdirsVdirsVdirsVdirsVdirGPPH
kLT/ADXBbyNeXemavp4kbSdWsZ5IZbeSXjybirKkqkxryRwQR4Yqgfy284apq0N/oHmRI7fzj5dk
W21iKOnpzo68oL2AbfurhPipQcWqKDFWa4q7FXYq8/8Aze/6Yr/wK9M/5m4qivzK83atpq6b5c8t
em3m7zHK0GmNKOcdtDGOVzeyr3SBOgP2mIG/TFUlP5C6Klk9zBrerL5yP7xPNj3k7XInG4Jh5iBo
eWxi4U47e+Kp9+W/nHUdat7/AEfzBElr5u8vyi11q3jqI5OQ5QXcFf8AdVwnxL4Go7YqzLFXYq7F
XYqwj8yfNmsWB03yx5YMZ83eY5GisZJBzjs7eMcrm+lTusK/ZU/acgb7jFXzvrV55L0z87LXylHr
mpi6EZs9Q86tfTtdx61MytE7fGIfSiKiJ4+PH42DfZBCr6K/LbzjqmrR6hoHmRI4POPl2RLfV44v
7udHXlBewCg/dXC70p8LVG2Ks1xV2KuxV2KsJ/Mrzdq2mR6d5e8tem/m/wAxytb6X6g5R20SDlcX
0q0NY4E7d2IG+KpK35C6Ktk91DrerDzl/eR+bZLyd7kTjoTDzEBhrsYuFOO3viqfflv5y1HWoNQ0
bzBFHa+b/L0wtdat4qiOQMOUF3BXf0bhByXwNR2xVmWKuxV2KuxV2KuxV2KuxV2KuxV5t+aCP5Z1
3RvzKtlPo6YRpnmdVFS+k3Ug/ekDc/VZysg9i2KvR0dHRXRgyMAVYGoIPQg4quxV2KvPfzhdETyW
7sFRfNWmFmJoAB6tSTiqG/KyOXzNrut/mVd1aHVGOm+WFYU9PSLSQgSKDuPrUwaU17ce2KvS8Vea
fmYh8reZdF/MmAFbSzI0nzUF6Npl04Ec7eP1S4Kv0rxZsVelAhgCDUHcEdCMVbxV2KrZJI4o2kkY
JGgLO7EBVUCpJJ6AYq82/KmGXzFq2tfmXeBiNbb6j5bRwQYtGtXIjYA7r9al5TMP9XFWG6r+av5a
WXna28rXPlqdL+3hvtLuPK62ML+vd3txZPBwFfQkSZYWcSMw2oT1xVl35mQv5W1bQfzJtYjHDpAG
meZreLfnpN0wXkf5vqk5WQe3Ltir01HR0V0YMjAFWBqCD0IOKrsVdirTMqqWYhVUVZjsAB3OKvN/
yvR/M2u6z+ZVyp9HUydM8sKwoU0m1kP70A7j61OGkPsFxV6TirzL8z4z5V8y6J+ZdupFtYkaT5qV
Nuel3bgRzN4/VLgq/wDqlu2KvTAQwBBqDuCOhGKt4q7FXYq7FXYq7FXYqhdO1TTNStzc6ddw3tuH
eIzW8iSoJI2KunJCw5KwoR2OKpP5q8z6zoslsuneWr/X1nDGR7F7ZBEVIoH+sSw/artxr0xVi+qe
d/MOqaZd6Zf/AJaa3PZX0MltdQtLptHilUo6n/Su6nFWL/lf+ZnnKx0D/Cd75N1fVNa8r8bC+kjl
sQ4iI5WhkWS4Q8mt+FSKgkEg4qzL/lZPm/8A8tzrn/I3Tf8AsqxV3/KyfN//AJbnXP8Akbpv/ZVi
ryz/AJyA85+YvMOi6D5Yfypqui6hqurQixklksmkk4o8ciwiK4Y8x64oW4qD1YYq9J0rzt5h0rTL
TTLD8tNbgsbGFLe1hWXTaJFEoRFH+ldgMVRX/KyfN/8A5bnXP+Rum/8AZViqD1jzp5h1jSb3Sb/8
tdclsr+CS2uY/V034o5kKOP96vA4qxv8sPzP85Wvl5fLF75M1bU9a8scdO1GWKSxVgqrytmkWW4V
uT25Qkiqk1oTirMP+Vk+b/8Ay3Ouf8jdN/7KsVd/ysnzf/5bnXP+Rum/9lWKsL/NH8yfOOp6LH5O
s/JusaZqvmktaQO8li0htUAe+MSx3DfELeoBYqo5dcVZZp3nrzHp2n22n2X5aa3DZ2cSW9tCsum8
UiiUIij/AEroFAGKsYvYr67/ADMsPP8AJ+W2t/pSxspbIJz0yjO7D056/WvtxxtInTcMP5cVZNqf
nfzFqmm3Wm335aa3NZXsMlvcxGXTaPFKpR1/3q7qcVYt+V35l+cdP0H/AAje+TNX1PWfK3CxvZI5
LFXEJXlZmRZLhfia34VIqCQaHFWZf8rJ83/+W51z/kbpv/ZVirv+Vk+b/wDy3Ouf8jdN/wCyrFWG
/mh+ZnnK/wBCHlKy8m6vpes+aedjZyPJYtIYQvO8aJY7hviW35ULFQCQSRirKNK87eYdK0y00yw/
LTW4LGxhS3tYVl02iRRKERR/pXYDFUV/ysnzf/5bnXP+Rum/9lWKoTV/OnmHV9KvNKv/AMtdclsb
+CS2uojLpvxRSqUcf71eBxVjX5X/AJnecrTy6vle98matqeteV+OnajJFJYowVV5WxkWS4VuTW5Q
kiqk1oTirMP+Vk+b/wDy3Ouf8jdN/wCyrFXf8rJ83/8Aludc/wCRum/9lWKpfffnRq9hqenaXd+Q
tbj1DVmlXTrb1NPZ5TAnqSkcbk0CLuSaDFUw/wCVk+b/APy3Ouf8jdN/7KsVd/ysnzf/AOW51z/k
bpv/AGVYqmXl7zr5i1TVI7K98m6po9u4Ytf3clk0SFVJAIhnlf4iKCi4qyqeN5YJI0laB3VlWaMK
XQkUDKHV0qvUclI8Riryz/nG+zuIPI148t9Pdq+r6iqxzCEKhS7kVmX0o4mrIfibkSK/Z4jbFXq+
KuxV5r5zJ8pfmNonnRP3ej60E8v+ZT+yjOxbTrpuw4TM0TOeiuMVelYq7FXzv5plk81fmLo/nIMT
o2k+Z9O8uaAa/BKY5Xk1C5XsQ08aRKw6hDir6IxV2KuxV5r5tP8AhH8zdG83L8Gj+Y1Ty/5hYfZS
fkW025b/AGbPCzE0AZcVelYq7FXmvkY/4s/MHXfPTfHpOnK3l7yyx3V0gk5X90nYiS4X01YfsofH
FXpWKuxV2KvNfOh/wl+Y2h+dE+DSNaCeXvMrfsoXYtp103hwmYxMx/ZceGKvSsVdirzXyaT5u/Mf
WvOjfHo+iK/l/wAuE7q7o4bUbpO3xSqsKsOoQ4q9KxV2KuxV5r5tp5R/M3RfN6/u9H8xKnl/zEf2
EnJLabct/wA9C0LMdgGGKvSsVdirzXyN/wA7b+YOueem+PSdNVvL3llv2XSGTlf3S9iJJx6asP2U
xV6VirsVdirsVYr+X/kqfyhY6hpq3yXmnXF9cXtinoGKaEXUrTPHJJ6siy0Z/hYInyOKsqxV2KpV
5q8t6d5m8uajoGpLys9SgeCUjqvIfC6/5SNRl9xirGPyr81397ZXPlbzFIB5x8tMLTU1NQbmEbW9
/HX7UdwlCT2aoNNsVd+aPmvUbaC28o+Wm5ecfMdYLDiCRZ232bjUJqfZSFfs1+09AK74qk3nXy3p
vlny7+XOgaavGy03zJpMEVftNxEvJ2p1Z2qzHxOKvVcVdirsVSjzd5Y07zT5a1Hy/qIJtNRhaF2H
2kY7pIlf2o3AdfcYqx38rPN1/qen3Pl3zCwTzn5bcWeswk7zKB+4vYx1MdzHR6/zVGKqP5peab9I
7byV5amH+MPMgMNuy7mxsyeNxfygfZWNKhP5npStMVZZ5a8vab5c8v6foWmJ6djpsCW8C9yEFOTU
6sx+Jj3OKpnirsVdiqVeafLem+ZvLuo6BqS8rLUoHglp9peQ+F1r0ZGoynxGKsX/ACr82317aXPl
TzHIF85eWiLXUlbY3UK7QX8QO7RzpQk9mqD2xVv80vNeo2tva+UvLT8vOPmTlBYcan6nbdLjUJqf
ZSFa8a/aegFd8VZP5W8t6b5Z8u6doGmrxstNgSCKv2m4j4nanVnarMfE4qmuKuxV2KpR5u8sad5p
8taj5f1EE2mowtC7D7SMd0kSv7UbgOvuMVY7+Vnm2/1LT7ny55hcL5y8tOLPWYyd51UfuL6MbEx3
MdHrT7VRiqj+aXmq/jjt/JflqUHzh5kBhtmU1NjaH4bjUJabqsS14fzPQCtDirLPLXl7TfLnl/T9
C0xPTsdNgS3gXuQgpyanVmPxMe5xVM8VdirsVdirsVdirsVdirFPOX5a+WfNlxa316Liy1ix/wB4
tZ06ZrS9iUmpQTJuU/yWqMVVPKH5d+X/ACvcXd9atc3+sX9Be6zqU7XV5Ki/ZjMr/ZReyKAMVR/m
Pyvp/mD9F/XJJY/0TqEGqW3olV5TW3Lgr8leqHnuBQ++KpxirsVdirsVYp5w/LXy15pu7XUbv6zY
61ZDjaazps72l5GhPIp6qfaSv7LgjFVbyf8Al95f8qvd3Nkbi81TUCp1DV9Qme6vZ+AoivM+/FR9
lVoo8MVZLirsVdirsVdirFfOf5a+WvNk9pe3ouLLWLDay1nTpmtb2JSalFmTcpU/ZaoxVf5Q/Lvy
/wCV7i7vrVrm/wBYv6C91nUp2uryVF+zGZX+yi9kUAYqyfFXYq7FXYq7FWKecfy08s+a7q11C8+s
2OtWQ42etabO9pexoTUoJY/tJX9lgR4YqreUPy/0DytJeXNmbi81XUSp1DV9Qme6vJ+AoivK/RVH
2VUBR4YqyXFXYq7FXYq7FXYq7FXYq7FXYq7FXYq7FXYq7FXYq7FXYq7FXYq7FXYq7FXYq7FXYq7F
XYq7FXYq7FXYq7FXYq7FXYq7FXYq7FXYq7FXYq7FXYq7FXYq7FXYq7FXYq7FXYq7FXYq7FXYq7FX
Yq7FXYq7FXYq7FXYq7FXYq7FXYq7FXYq7FXYq7FXYq7FXYqw38z/ADlqflXTtFudPiglk1HWrDS5
xcK7AQ3chSRk4MlHA+yTUexxVmWKuxV2KuxV2KuxV2KuxV2KuxV2KuxV2KuxV2KuxV2KuxV2KuxV
2KuxV2KuxV2KuxV2KuxV2KuxV2KvL/z+/wCOH5W/8CrR/wDk+cVeoYq7FXYq7FXYqwbVx5202ebV
rjzNp9l6999W0zRb0RJp0kLnhbxfWPTjuxdS05GjuoY8VRgKlVkflyLzKlrcS+YJoGvLi4aWK1tC
XgtYeKqkCTNHA832S5d0B5MRQKBiqbYq7FXYq7FXYq7FXYq7FXYq7FXYq7FXYq7FXYq7FXYq7FXY
q7FXYq7FXYqw/wDNLX9W0Py5a3mlz/V7mTVdMtXfgj1hub2KGVaOrD4o3Ir1HbfFWYYq7FXYq7FX
Yq7FXl/5/f8AHD8rf+BVo/8AyfOKvUMVdirsVdirsVdirsVdirsVdirsVdirsVdirsVdirsVdirs
VdirsVdirsVdirzf8+dQsLPyfp5vLmK2Da3pBUzOsdRHfwyORyI+yilm8AK4q9FhmimiSaF1kikU
PHIhDKysKhlI2IIxVfirsVdirsVdirCPzX0nQdT0vR49Z1+18vw2Or2epRT3jRqszWTGT0F9SSEV
Yd6mngcVZpDNDPEk0MiywyKGjkQhlZSKgqRsQcVX4q7FXYq7FXYql+s+YdA0SBLjWtStdMt5G9OO
a8njt0Zz0VWkZQT7YqjYZopokmhdZIpFDxyIQysrCoZSNiCMVX4q7FXYq7FXYqhL3VtLsJLaO+vI
LWS8lEFmk8iRtNM32Y4wxHNz2Vd8VReKuxV2KuxV2KuxV2KuxV2KrXdI0aSRgiICzuxoABuSScVf
N3mjR7fzroY/MrXYTcx6hrmmWXlaxnFYrfSP0nFCX9Jvh9S8ozuSD8BAG2KvRvIKP5M866j+Xbk/
oO5ibWfKBZiwity4S7sQW/3xKweMb/A3tir03FXYq7FXYqslljiieWVgkcalndjQBQKkk+2Kvj38
zfOVxqUtl5wj09tZ8xazdJcaJpskTXEdh5cgn9OBZIAGVZNTlX4yQaoSnQ0Kr2D8mfMulWWsf4e0
x/8AnVfMVs+u+UY22NqwcLqOlnwNtM3NVHQMfDFXsuKuxV2KuxVa7oiM7sFRQSzE0AA6knFXlHkT
y1pn5gX91+Y3mezTUbe9eW28p6feIJILbS42MYlEDgp6t0QZGYg/DxANMVRvkFH8meddR/Lx2P6D
uoW1nygWJPpQFwl5YgsekErK8Y/kb2xV6ZirsVdirsVWSyxxRPLKwSONSzuxoAoFSSfbFXl/5a6J
b+cdUf8ANPXYfrFzdySJ5Rt591sdMjYpFIkZ+ETXNDIz7mhABArir1PFXYq7FXYq7FXYq7FXYq7F
WCfnTql3a+RLjTLBiuq+ZJ4dB04jqJdQf0nb24Q+o9fbFUv/ADX0uy0n8u9F0qxT0rKw1XQba2j/
AJYob+3RB9Criqr+dCNpmnaN54gH+keUNQiurgqPibT7oi1vo++3pScz/qYq9FVlZQykMrCqsNwQ
e4xVvFXYq7FWA/nbqF3H5HfRdPk9PVPNN1b6BZP/ACm/fhM/j8FuJG+jFUz8yaVYaX5X0+xsYVht
rbUNCgiVQAfTh1K0jjBPfiigYqkf50W36M0XTfOtnHxu/KOpQ6nOYxR5LKU/Vr9NuvK3kLH/AFcV
eixyRyRrJGweNwGRhuCCKgjFV2KuxV2KsE/OrVL218hXOmacxXVvMk0Og6aQOkuoP6Tt7cITI9fb
FWX6PpVnpGk2WlWScLPT4IrW2TwjhQIg+5cVYL+dMbabpujeebdf9K8n6hFdzFacm0+5Itr+MV7G
GTn/ALHFXoqsrKGUhlYVVhuCD3GKt4q7FXYqwL87NRu4vI76Np8vpap5ourfQbF96q1+/pyvtv8A
Bb+o1e1MVZppmnWmmabaabZRiKzsoY7e2iHRYolCIo+SqMVROKuxV2KuxV2KuxV2KuxV2KvOvMP+
5z86PLWj/atfLVhc69dqd1Nxcn6lZg/5SgzOMVVfzu/5RCx/7bmi/wDdSgxVmHmDRrXW9C1HRrv/
AHm1K2mtJtq/BPGY2P3NirGvya1m71T8udIF+f8AcppiPpWpqTVhdadI1rJy929Ln9OKs1xV2Kux
V51rVNc/OzQNN+1a+VdNudZuR1U3V8fqdqG/yljWZh/tYqyXzz/xxbb/ALauj/8AdVtsVTTWdKtd
X0i+0q7HK01C3ltbhfGOZDG43/yWxViX5K6rdX35daba35/3KaIZdE1Ja1IuNNka1avuyxq304qz
nFXYq7FXnXmIHXPzn8saQDytfLVjda9eKd1M9wfqVmCP5lBmcYq9FxVL/MGjWut6FqOjXf8AvNqV
tNaTbV+CeMxsfubFWM/kzrN1qf5c6St8f9ymlq+k6kp+0LnTpGtZOXu3pcvpxVm2KuxV2KvOtbpr
n52eX9M+1a+VtNudauAN1+tXrfU7VW7cljWZxXFXouKuxV2KuxV2KuxV2KuxV2KuxV53+V5/S3mb
z15sJql9qo0myPb6ro8f1fkp8HuHmbFVT87v+UQsf+25ov8A3UoMVegYq868h/7iPzL89+Wz8EF3
Na+Y7BD1YX8Xo3RHt9YtSf8AZfPFXouKuxV2KvOvyppqut+dvNx3XVdXbT7J+xs9IQWkbKfBpvVb
6cVYn/zkf5t/MXyfDpmpaJHBqmg313aRy2U8LNJBfWtwl1b+m8JjdknaHiwau/QjkKKvV/J0HmaL
y7ZnzPcpc67Kglv/AEUWOGKRxUwxBRukf2eTEk9fYKsU8lE6P+annjy8fgg1H6n5jsI/H6zGbW7Y
f89rYH6cVei4q7FXYq86/K//AHLeZ/PPmw/El7qg0mxbqPq2jxiCqn+V7hpTir0XFXYq868h/wC4
j8zPPnlw/BBeTWvmKwQ9WF9F6F0R7C4tfxxV6LirsVdirzr8qh+lNd87+bm+Iapq7adZON1az0dP
qqMp8Gm9ZsVei4q7FXYq7FVOeeC3gkuLiRYYIVaSWWRgqIiirMzGgAAFSTirE/yx/MnTPPuiXGpW
foRSWt1PazWsNylyyrFIyRSsVVOImVOa1HToT1xVJvzWvfOVr5g8nwaN5gl0HSdYvZdM1GaG1tbl
hPLA0tof9JjlpyeIoaU+1iqJ/wACfmZ/5cy+/wC4XpP/AGT4q7/An5mf+XMvv+4XpP8A2T4qlPm7
RPzF8ueVtW16f8yr1o9LtJrsodM0kczFGXCV+r/tEUxVC+QPyv8AzE0vyZpFrB5+vNN5W63E9imn
abKIp7n9/OvqTQvI372Rt2NcVSv82fJ/n618s2kl759u9QhbV9KjWB9P02ILI99EscvKKFWrGxDg
dDSh2xVmn+BPzM/8uZff9wvSf+yfFWD+avJ/n7Q/zD8q6s/ny7aXWzP5en1U6fpqvEroby2iEYh9
JhJLAwqy1HY7mqrOP8CfmZ/5cy+/7hek/wDZPirv8CfmZ/5cy+/7hek/9k+KpN5z0j8xvLPlLWPM
E35lXrppdnNdCI6ZpI5vGhZI6/V/22ov04qp+Rfyr/MPRvKGk6fb+frzTljt1kksU07TZFimm/fT
LzlheRv3rtuxqcVTW+/LTz9fwpDe/mLd3ESSxXCJJpWkkCW3kWaJx/o/VJEVh7jFUR/gT8zP/LmX
3/cL0n/snxVg/m/yh590Lz55T1qTz5dvLq8svl2fVDp+mq8K3CG5t4xGIfTcST2/H4lqOx7FVnH+
BPzM/wDLmX3/AHC9J/7J8Vd/gT8zP/LmX3/cL0n/ALJ8VSnzdon5i+XPK2ra9P8AmVetHpdpNdlD
pmkjmYoy4Sv1f9oimKoP8vPyw/MTTPJOj20Hn68031LdbqexTTtNlEU91/pE6+pNC8j/AL2Vt2OK
si/wJ+Zn/lzL7/uF6T/2T4q7/An5mf8AlzL7/uF6T/2T4qwfzX5P8+6H+YXlXV5PPt20utmby9Pq
p0/TleJXRru2iEYh9JhJLAwqy8h2O5xVnH+BPzM/8uZff9wvSf8AsnxV3+BPzM/8uZff9wvSf+yf
FUm856R+Y3lnylrHmCb8yr100uzmuhEdM0kc3jQskdfq/wC21F+nFVHyD+Vn5h6P5N0ixt/P15pq
rbJLJYpp2myrFNP++mX1JoXkb97I27GuKp//AIE/Mz/y5l9/3C9J/wCyfFXf4E/Mz/y5l9/3C9J/
7J8Vd/gT8zP/AC5l9/3C9J/7J8VTLy95V876fqkd1qvna61qyQMJNPlsdPt0cspCkyW8SSDid9ji
rLsVeZ/849gjyHcqdmXWdWDA9QfrsmxxVMvzs0y6vfy31S6sRXUtF9LWrA9xNpsq3Xw+7LGy/Tir
L9I1O11XSbLVLRuVrfwRXNu3WscyB0P3NiqLxV53+dROoaRoflJPibzTrFnZXEY+19Tgf65dsPYR
W5U/PFXomKvP/wA7v+UQsf8AtuaL/wB1KDFXoGKsD/O/T7mf8ur/AFGyTnqPl6SDXbHsRJpsq3Bp
840dfpxVmem6ha6lp1rqNo3O1vIY7i3f+aOVQ6H6VOKonFXnX5zN+kbTy35QT428z61aQXUQ+0bG
yb69dke3C3Cn54q9FxV2KuxVgv52aXdXv5b6rc2Q/wByWi+lrWnt3E+myLdCnuyxMv04qy7R9Utd
W0my1S0bla39vFdW7eMcyCRD/wAC2KozFXnX5101HR9E8oqObea9Ys7G4jH2vqcL/W7tqeAityp/
1sVei4q7FXYqwP8AO+wup/y51DUbJOepeX3g1ywPhLpsq3Jp840dfpxVmem6ha6lp1rqNo3O1vIY
7i3f+aOVQ6H6VOKonFXnX5z01Kx8u+Tl+M+aNZtbe6iH2jY2bfXrth7cLcKf9bFXouKuxV2KuxV2
KuxVBWGiaLp1xd3On2FtZ3GoSetfzW8McTzy7/vJmQAyNud2qcVRU0MU8MkMyCSKVSkiNuGVhQgj
3GKvP/yOmltvKFx5XuZDJeeUdQutFkZj8TQwSc7V6Gh4tbSR0+WKvQ8Vecjjr356H9u08laQB/qa
hrD1+mlpb/8AD4q9GxV5/wDnd/yiFj/23NF/7qUGKvQMVUrm2gureW2uEEkE6NHLG3RkccWU/MHF
WB/kfczR+ST5dunL33lO9utCnZupS0k/0Zh7NbPERir0HFXnMHLXfzzuZT8dl5M0hLdAf2b/AFdh
K5HuLWBAf9bFXo2KuxV2KrJoo5onhlUPFIpR0O4KsKEH5jFWAfkhNLbeUrnyvcuXu/KOoXWiuzH4
mghf1LR6deLW0sdPlir0LFXnHw69+e389p5K0j/gNQ1hv4WkH/DYq9HxV2KuxVTuLeG5t5bedBJB
MjRyxnoyMKMD8wcVYF+R1xPF5Kfy5dMXvfKV9daFOzbFktZK2zgfytbSREYq9BxV51DXXfzyuJPt
WXkzSUgUHYLqGrt6jkeNLWBP+CxV6LirsVdirsVdirsVdirsVecBx5b/ADuZGomn+etPBU+OqaSK
Ee3qWcg+fp4qz+/vrTT7G5v7yQQ2lpE89xM32UjjUu7H2CiuKsH/ACWsrqXyzdear9DHqPnG8l1q
VG3aO3mollFXwS1SP6ScVegYq8//ADu/5RCx/wC25ov/AHUoMVegYq7FXnFuR5b/ADuuYGPDT/PV
gtxBU7fpPSh6cqgdAZLV0b34HFWfanqNnpmnXWo30ohs7KF7i5mbokcSl3Y/JRirCvyWsLz/AAnL
5j1GMx6p5uu5tcuY2+1HHckC1i+UdskYxVn2KuxV2KuxV5wCPLf54NyPDT/PWnDj0odU0gUp7c7O
T6eH3KvQL++tLCxuL68kWG0tInnuJmNFSONSzsT4BRXFWC/krZ3cvlm681X8bR6j5xvZtakjf7Ud
vLRLKKvglrHHT5nFXoOKuxV2KuxV5xA3+G/ztuYXJXT/AD1YLPATXiNT0lRHIgHQepaMre/DFWfa
nqNnpmnXWo30ohs7KF7i5mbokcSl3Y/JRirCfyW0+7/wpL5l1GIxar5vu5dcuo23McVzQWkVfCO2
SMU7GuKs/wAVdirsVdirsVdirsVdirFfzH8mS+afL6w2NwLLXdNuI9R0HUCKiC9tzWMsO6OCUcUP
wsdsVYTfr+Zv5h2Vr5U1/wAtt5Z0v1kPm3UPrMckV1BCwf6tYemxlK3JA5s1OK1X4jir16OOOKNY
41CRoAqIoAVVAoAAOgGKrsVef/nd/wAohY/9tzRf+6lBir0DFXYqxP8AMjyZP5o0OJdOuBY+YdKu
I9R0DUG+zDeQV4eoADWORSUkWh2PTbFWGXi/mX+YltY+V/MXll/LWkLOknm28a5ilju4oDzFrZCJ
mdkuHC82anFarUnFXrqIiIqIoVFACqBQADoAMVXYq7FXYq7FWLfmN5Nl80+X1t7K5+o65p08eo6F
qFK+hfW5JiZhvVGqUcUPwscVYRfD8zvzCsrXypr/AJaby1pnrL/i3UPrUckV1BCwb6tYemxlK3NB
yZqcFqtWOKvXo444o1jjUJGgCoigBVUCgAA6AYquxV2KuxV2KsU/MfydceZ9CjTTrhbHzBpdxHqO
g37Cqw3kFeHPY1jkBKSCn2T0xVhV6n5l/mJbWXlfzD5afyzpCzI/my8NzFLHdxQnmLWyEbM7JO4X
mzU4rVdzir15EREVEUKigBVAoAB0AGKrsVdirsVdirsVdirsVdirsVdirsVdirz/APO7/lELH/tu
aL/3UoMVegYq7FXYq7FXYq7FXYq7FXYq7FXYq7FXYq7FXYq7FXYq7FXYq7FXYq7FXYq7FXYq7FXY
q7FXYq7FXYql+t/oD6mn6d+qfU/Xh9L696fpfWPUX6vx9X4fU9Xj6fflSm+KphirsVdirsVdirsV
dirsVdirsVdirsVdirsVdirsVdirsVdirsVdirsVdirsVdirsVf/2Q==</xapGImg:image></rdf:li></rdf:Alt></xap:Thumbnails></rdf:Description><rdf:Description
             rdf:about=""><dc:format>image/svg+xml</dc:format></rdf:Description><cc:Work
             rdf:about=""><dc:format>image/svg+xml</dc:format><dc:type
               rdf:resource="http://purl.org/dc/dcmitype/StillImage" /></cc:Work></rdf:RDF></metadata></x:xmpmeta><?xpacket end='w'?></metadata><g
     id="g7"><g
       id="g9"><path
         inkscape:connector-curvature="0"
         id="path11"
         d="m 2.336,18.987 c 0.623,0.044 1.29,0.223 1.779,0.711 0.489,0.489 1.245,1.246 1.779,2.09 0.534,0.844 1.023,1.557 1.779,3.157 0.756,1.601 0.578,0.89 2.668,5.87"
         style="fill:none;stroke:#000000;stroke-width:0.89999998" /><path
         inkscape:connector-curvature="0"
         id="path13"
         d="m 10.372,30.813 c 2.712,6.182 3.646,7.738 4.492,9.116 0.845,1.379 1.378,1.69 1.734,2.001 0.356,0.311 1.201,0.756 1.823,0.711 0.622,-0.045 1.29,-0.222 1.779,-0.711 0.489,-0.489 1.245,-1.245 1.779,-2.09 0.534,-0.845 1.023,-1.556 1.779,-3.157 0.756,-1.601 0.578,-0.889 2.668,-5.87"
         style="fill:none;stroke:#000000;stroke-width:0.89999998" /><path
         inkscape:connector-curvature="0"
         id="path15"
         d="m 26.457,30.816 c 2.712,-6.181 3.646,-7.738 4.491,-9.116 0.845,-1.379 1.379,-1.69 1.734,-2.001 0.356,-0.311 1.201,-0.756 1.823,-0.711 0.623,0.044 1.29,0.223 1.779,0.711 0.489,0.489 1.245,1.246 1.779,2.09 0.534,0.844 1.023,1.557 1.779,3.157 0.756,1.601 0.578,0.89 2.668,5.87"
         style="fill:none;stroke:#000000;stroke-width:0.89999998" /><path
         inkscape:connector-curvature="0"
         id="path17"
         d="m 42.542,30.813 c 2.712,6.182 3.646,7.738 4.491,9.116 0.845,1.379 1.379,1.69 1.734,2.001 0.356,0.311 1.201,0.756 1.823,0.711 0.622,-0.045 1.29,-0.222 1.779,-0.711 0.489,-0.489 1.245,-1.245 1.779,-2.09 0.534,-0.845 1.023,-1.556 1.779,-3.157 0.756,-1.601 0.578,-0.889 2.668,-5.87"
         style="fill:none;stroke:#000000;stroke-width:0.89999998" /><path
         inkscape:connector-curvature="0"
         id="path19"
         d="m 58.627,30.816 c 2.712,-6.181 3.646,-7.738 4.491,-9.116 0.845,-1.379 1.379,-1.69 1.734,-2.001 0.356,-0.311 1.201,-0.756 1.823,-0.711"
         style="fill:none;stroke:#000000;stroke-width:0.89999998" /><path
         inkscape:connector-curvature="0"
         id="path21"
         d="m 66.826,18.987 c 0.623,0.044 1.29,0.223 1.779,0.711 0.489,0.489 1.245,1.246 1.779,2.09 0.534,0.844 1.022,1.557 1.779,3.157 0.756,1.601 0.578,0.89 2.668,5.87"
         style="fill:none;stroke:#000000;stroke-width:0.89999998" /><path
         inkscape:connector-curvature="0"
         id="path23"
         d="m 74.862,30.813 c 2.712,6.182 3.646,7.738 4.491,9.116 0.845,1.379 1.378,1.69 1.734,2.001 0.355,0.311 1.201,0.756 1.823,0.711 0.622,-0.045 1.29,-0.222 1.779,-0.711 0.489,-0.489 1.245,-1.245 1.779,-2.09 0.534,-0.845 1.022,-1.556 1.779,-3.157 0.756,-1.601 0.578,-0.889 2.668,-5.87"
         style="fill:none;stroke:#000000;stroke-width:0.89999998" /><path
         inkscape:connector-curvature="0"
         id="path25"
         d="m 90.947,30.816 c 2.713,-6.181 3.646,-7.738 4.492,-9.116 0.845,-1.379 1.378,-1.69 1.734,-2.001 0.355,-0.311 1.201,-0.756 1.823,-0.711 0.622,0.045 1.29,0.223 1.779,0.711 0.489,0.489 1.245,1.246 1.779,2.09 0.534,0.844 1.022,1.557 1.779,3.157 0.756,1.601 0.578,0.89 2.668,5.87"
         style="fill:none;stroke:#000000;stroke-width:0.89999998" /><path
         inkscape:connector-curvature="0"
         id="path27"
         d="m 107.032,30.813 c 2.713,6.182 3.647,7.738 4.492,9.116 0.845,1.379 1.378,1.69 1.734,2.001 0.355,0.311 1.201,0.756 1.823,0.711 0.622,-0.045 1.29,-0.222 1.779,-0.711 0.489,-0.489 1.245,-1.245 1.779,-2.09 0.534,-0.845 1.022,-1.556 1.779,-3.157 0.756,-1.601 0.578,-0.889 2.668,-5.87"
         style="fill:none;stroke:#000000;stroke-width:0.89999998" /></g><path
       inkscape:connector-curvature="0"
       id="path29"
       d="m 2.716,93.672 c 2.712,10.512 3.646,13.158 4.491,15.502 0.845,2.344 1.378,2.874 1.734,3.403 0.356,0.529 1.201,1.285 1.823,1.209 0.622,-0.076 1.29,-0.378 1.779,-1.209 0.489,-0.832 1.245,-2.118 1.779,-3.554 0.534,-1.437 1.022,-2.647 1.779,-5.37 0.756,-2.722 0.578,-1.512 2.668,-9.982"
       style="fill:none;stroke:#000000;stroke-width:0.89999998" /><path
       inkscape:connector-curvature="0"
       id="path31"
       d="m 18.801,93.677 c 2.712,-10.511 3.646,-13.158 4.491,-15.502 0.845,-2.344 1.378,-2.873 1.734,-3.403 0.355,-0.529 1.201,-1.286 1.823,-1.21 0.622,0.076 1.29,0.378 1.779,1.21 0.489,0.832 1.245,2.118 1.779,3.554 0.534,1.437 1.023,2.647 1.779,5.369 0.756,2.723 0.578,1.513 2.668,9.982"
       style="fill:none;stroke:#000000;stroke-width:0.89999998" /><path
       inkscape:connector-curvature="0"
       id="path33"
       d="m 34.886,93.672 c 2.712,10.512 3.646,13.158 4.491,15.502 0.845,2.344 1.378,2.874 1.734,3.403 0.355,0.529 1.201,1.285 1.823,1.209 0.622,-0.076 1.29,-0.378 1.779,-1.209 0.489,-0.832 1.245,-2.118 1.779,-3.554 0.534,-1.437 1.023,-2.647 1.779,-5.37 0.756,-2.722 0.578,-1.512 2.668,-9.982"
       style="fill:none;stroke:#000000;stroke-width:0.89999998" /><path
       inkscape:connector-curvature="0"
       id="path35"
       d="m 50.971,93.677 c 2.712,-10.511 3.646,-13.158 4.491,-15.502 0.845,-2.344 1.378,-2.873 1.734,-3.403 0.356,-0.529 1.201,-1.286 1.823,-1.21"
       style="fill:none;stroke:#000000;stroke-width:0.89999998" /><path
       inkscape:connector-curvature="0"
       id="path37"
       d="m 59.169,73.562 c 0.623,0.076 1.29,0.378 1.779,1.21 0.489,0.832 1.245,2.118 1.779,3.554 0.534,1.437 1.023,2.647 1.779,5.369 0.756,2.723 0.578,1.513 2.668,9.982"
       style="fill:none;stroke:#000000;stroke-width:0.89999998" /><path
       inkscape:connector-curvature="0"
       id="path39"
       d="m 67.206,93.672 c 2.713,10.512 3.646,13.158 4.492,15.502 0.845,2.344 1.378,2.874 1.734,3.403 0.356,0.529 1.201,1.285 1.823,1.209 0.623,-0.076 1.29,-0.378 1.779,-1.209 0.489,-0.832 1.245,-2.118 1.779,-3.554 0.534,-1.437 1.023,-2.647 1.779,-5.37 0.756,-2.722 0.578,-1.512 2.668,-9.982"
       style="fill:none;stroke:#000000;stroke-width:0.89999998" /><path
       inkscape:connector-curvature="0"
       id="path41"
       d="m 83.291,93.677 c 2.712,-10.511 3.646,-13.158 4.491,-15.502 0.845,-2.344 1.379,-2.873 1.735,-3.403 0.355,-0.529 1.2,-1.286 1.823,-1.21 0.623,0.076 1.29,0.378 1.779,1.21 0.489,0.832 1.246,2.118 1.779,3.554 0.533,1.437 1.022,2.647 1.778,5.369 0.756,2.723 0.578,1.513 2.668,9.982"
       style="fill:none;stroke:#000000;stroke-width:0.89999998" /><path
       inkscape:connector-curvature="0"
       id="path43"
       d="m 99.375,93.672 c 2.712,10.512 3.646,13.158 4.492,15.502 0.845,2.344 1.378,2.874 1.734,3.403 0.356,0.529 1.201,1.285 1.823,1.209 0.623,-0.076 1.29,-0.378 1.779,-1.209 0.489,-0.832 1.245,-2.118 1.779,-3.554 0.534,-1.437 1.023,-2.647 1.779,-5.37 0.756,-2.722 0.578,-1.512 2.668,-9.982"
       style="fill:none;stroke:#000000;stroke-width:0.89999998" /><path
       inkscape:connector-curvature="0"
       id="path45"
       d="m 115.46,93.677 c 2.712,-10.511 3.646,-13.158 4.491,-15.502 0.845,-2.344 1.379,-2.873 1.735,-3.403 0.355,-0.529 1.2,-1.286 1.823,-1.21"
       style="fill:none;stroke:#000000;stroke-width:0.89999998" /><line
       id="line47"
       y2="30.816999"
       x2="136.73399"
       y1="30.816999"
       x1="2.293"
       style="fill:none;stroke:#000000;stroke-width:0.89999998" /><line
       id="line49"
       y2="93.668999"
       x2="136.73399"
       y1="93.668999"
       x1="2.293"
       style="fill:none;stroke:#000000;stroke-width:0.89999998" /><g
       id="g51"><text
         id="text53"
         transform="translate(142.4087,34.5264)"><tspan
           id="tspan55"
           style="font-size:10px;font-family:Helvetica"
           y="0"
           x="0">t</tspan></text>
</g><g
       id="g57"><text
         id="text59"
         transform="translate(142.4087,97.3818)"><tspan
           id="tspan61"
           style="font-size:10px;font-family:Helvetica"
           y="0"
           x="0">t</tspan></text>
</g><g
       id="g63"><text
         id="text65"
         transform="translate(24.9907,13.5747)"><tspan
           id="tspan67"
           style="font-size:10px;font-family:Helvetica"
           y="0"
           x="0">V</tspan></text>
</g><g
       id="g69"><text
         id="text71"
         transform="translate(29.7925,64.208)"><tspan
           id="tspan73"
           style="font-size:10px;font-family:Helvetica"
           y="0"
           x="0">I</tspan></text>
</g><line
       id="line75"
       y2="43.037998"
       x2="26.518999"
       y1="18.158001"
       x1="26.518999"
       style="fill:none;stroke:#000000;stroke-width:0.89999998" /><line
       id="line77"
       y2="120.322"
       x2="26.737"
       y1="65.711998"
       x1="26.737"
       style="fill:none;stroke:#000000;stroke-width:0.89999998" /></g><rect
     x="0"
     id="rect79"
     height="2.8080001"
     width="147.384"
     style="fill:none"
     y="60.985001" /></svg>