<?xml version="1.0" encoding="iso-8859-1"?>
<!-- Generator: Adobe Illustrator 11 Build 196, SVG Export Plug-In . SVG Version: 6.0.0 Build 78)  -->
<!DOCTYPE svg PUBLIC "-//W3C//DTD SVG 1.0//EN"    "http://www.w3.org/TR/2001/REC-SVG-20010904/DTD/svg10.dtd" [
	<!ENTITY ns_flows "http://ns.adobe.com/Flows/1.0/">
	<!ENTITY ns_svg "http://www.w3.org/2000/svg">
	<!ENTITY ns_xlink "http://www.w3.org/1999/xlink">
]>
<svg
	 width="147.401" height="70.651" viewBox="0 0 147.401 70.651" style="overflow:visible;enable-background:new 0 0 147.401 70.651"
	 xml:space="preserve">
	<metadata>
<?xpacket begin='﻿' id='W5M0MpCehiHzreSzNTczkc9d'?><x:xmpmeta xmlns:x='adobe:ns:meta/' x:xmptk='XMP toolkit 3.0-29, framework 1.6'>
<rdf:RDF xmlns:rdf='http://www.w3.org/1999/02/22-rdf-syntax-ns#' xmlns:iX='http://ns.adobe.com/iX/1.0/'>

 <rdf:Description rdf:about=''
  xmlns:pdf='http://ns.adobe.com/pdf/1.3/'>
 </rdf:Description>

 <rdf:Description rdf:about=''
  xmlns:tiff='http://ns.adobe.com/tiff/1.0/'>
 </rdf:Description>

 <rdf:Description rdf:about=''
  xmlns:xap='http://ns.adobe.com/xap/1.0/'
  xmlns:xapGImg='http://ns.adobe.com/xap/1.0/g/img/'>
  <xap:CreateDate>2006-07-17T15:01:17Z</xap:CreateDate>
  <xap:ModifyDate>2006-07-17T15:01:17Z</xap:ModifyDate>
  <xap:CreatorTool>Illustrator</xap:CreatorTool>
  <xap:Thumbnails>
   <rdf:Alt>
    <rdf:li rdf:parseType='Resource'>
     <xapGImg:format>JPEG</xapGImg:format>
     <xapGImg:width>256</xapGImg:width>
     <xapGImg:height>124</xapGImg:height>
     <xapGImg:image>/9j/4AAQSkZJRgABAgEASABIAAD/7QAsUGhvdG9zaG9wIDMuMAA4QklNA+0AAAAAABAASAAAAAEA&#xA;AQBIAAAAAQAB/+4ADkFkb2JlAGTAAAAAAf/bAIQABgQEBAUEBgUFBgkGBQYJCwgGBggLDAoKCwoK&#xA;DBAMDAwMDAwQDA4PEA8ODBMTFBQTExwbGxscHx8fHx8fHx8fHwEHBwcNDA0YEBAYGhURFRofHx8f&#xA;Hx8fHx8fHx8fHx8fHx8fHx8fHx8fHx8fHx8fHx8fHx8fHx8fHx8fHx8fHx8f/8AAEQgAfAEAAwER&#xA;AAIRAQMRAf/EAaIAAAAHAQEBAQEAAAAAAAAAAAQFAwIGAQAHCAkKCwEAAgIDAQEBAQEAAAAAAAAA&#xA;AQACAwQFBgcICQoLEAACAQMDAgQCBgcDBAIGAnMBAgMRBAAFIRIxQVEGE2EicYEUMpGhBxWxQiPB&#xA;UtHhMxZi8CRygvElQzRTkqKyY3PCNUQnk6OzNhdUZHTD0uIIJoMJChgZhJRFRqS0VtNVKBry4/PE&#xA;1OT0ZXWFlaW1xdXl9WZ2hpamtsbW5vY3R1dnd4eXp7fH1+f3OEhYaHiImKi4yNjo+Ck5SVlpeYmZ&#xA;qbnJ2en5KjpKWmp6ipqqusra6voRAAICAQIDBQUEBQYECAMDbQEAAhEDBCESMUEFURNhIgZxgZEy&#xA;obHwFMHR4SNCFVJicvEzJDRDghaSUyWiY7LCB3PSNeJEgxdUkwgJChgZJjZFGidkdFU38qOzwygp&#xA;0+PzhJSktMTU5PRldYWVpbXF1eX1RlZmdoaWprbG1ub2R1dnd4eXp7fH1+f3OEhYaHiImKi4yNjo&#xA;+DlJWWl5iZmpucnZ6fkqOkpaanqKmqq6ytrq+v/aAAwDAQACEQMRAD8A9U4qhNV1XT9J0+bUNQmE&#xA;FpbgGSQgsdyFVVVQWZmYhVVQSxIABOKpJHqHnfVFEljYW2iWrbxzapzubkr2LWdu8SoG7VuOQ/aU&#xA;HbFVX9BeapR/pPmaSJj9r6lZ20QH+oLhbsj/AGRO334qtbRvOMArZeY1uCK/DqVlFKCOwraNY0Pv&#xA;+GKqX+L73SpEi82WA02ORhHHq9tIbjTyzUCiWQrHJbkk0/eoErsHJxVlGKuxV2KuxV2KuxV2KuxV&#xA;2KuxV2KuxV2Koe/1Cw0+1e7v7mKztIhWS4ndYo1H+U7kKMVY/eecY7+aysPKdxZ6neX6zSi8Eomt&#xA;IILYosskhhartylRUQMKkk1AU4qkWv6/5hi1/SvKmt3MVla6o7PLrmmmaAyRJ8C2xDeo1nJPNIiL&#xA;J6zchyVWWQriqUfmJDc6FeWGk6PqepxaZqEct35mj+tS3D2+k2ckIubmCa4ke4hkPrqjem26F2A5&#xA;qDirX5g+W9K8m6Za6p+XmnRaX5nt45ZoorBFSO6sbWEyXf1yJaLcDhQRu9XEzR/EAzVVTfXIdP0L&#xA;ytD5r0XWb+81BlhnsHuLye5TVGlHJLY2zsYB9ZDfD6US+nXkvFQRiqZf4g87nQo/M6W9hNprQren&#xA;RofVe6NoU9Ssd3yWJpuG4j9HiT8PqftYqndt5z8oXN1DaQa3YyXlwFMNoLmL1m5gFaRFudSCNqYq&#xA;nOKuxV2KuxV2KuxVi35iSvbaNZ38Uf1q4sdRtJ7fTxTldSeqIxAldvUPPkhNFDKCxVQWCqV6Hres&#xA;eZ5Whn16LQb1fifQbKJP0jAPCdtQjYt80tlX+VmG+Kp4PJNg/wAVzqOrXD/z/pK8g/4W2lgT/hcV&#xA;WyeTYYFMlhrWrac6iplN7JeAU6krqP1yP/hcVYjeefNfghurS3trXzrpKRlL7WLaOWO3t0LenIt0&#xA;kaXUd1xUkuttVtqNGqnkFVb8v5POb6Zf2+lavpV/pGmXht9Kc29w8c1u0ENwEiuxdSfu4XnaBTwc&#xA;0T6Aqyqw82ot8NL162Gjaqys8KPKJLW4VKc2tbkrHz48t0dEkHXhx3xVNbDWNJ1AyCwvbe8MXEyi&#xA;CVJSgevHlwJpXiaV8MVRmKuxV2KuxV2KuxV2KuxV2KpR5i19tJjt4rayl1LU75zFY2ELIhdlQu7P&#xA;JIVSONFWrMfYAFiAVWGar5gkh86aXL5y0n6nZ2FlcXVvPBJ9fs4Znkij+sSkRxSRmJCV9QxcUDtV&#xA;gDXFUTq2hJe+fDqmh3SWGszaTHPY38Y5w3KxTnklyqkCeFlkjB35AEFCDirejXdh5t8x6/Yara+j&#xA;PHpVlZanpjt8UM7T3ZmCSDiWFPSeOQU+Eqw4k4qhPIbXd/5+8z22tqtzqOg6bp2izXLAMJ0eS7uT&#xA;MVpxBuIJIGkXpyBHQYqifywtp5L3WfrjeofLsv8AhmxLHkfq1ofXWUn+eWKeFZPEx4qgvye0zUbr&#xA;S7OfVhWDyr9Z0DRI9ijGxmktJrsUJBYpEsCHqAr/AO/DirXku6uvMnk7Q9PtLmSy8s6ZplpFq+ow&#xA;sUlupktkElpbyg8o0ipSeVfi5fApBDkKqthJ5T0/8qNB8vaja8pL3RrcppNnEGuWYW6GSdFHH0zH&#xA;IeRncqFahLA4qjtI87earXy1pOs+YNDVNMls4JtR1C3ullmtw8aF557Zo4gIxyLP6cjlV7HFWe4q&#xA;7FXYq7FXYqxb8w2uU0iyksFV9ZTULU6PFJ/dvcl+PGU/sx+k0nNhVlWrKCwAKrD7y28vatAg/NeS&#xA;6huIn5G1vFNno8Tmn9xc2zNE6GmwnuGfxVegVQ8vlf8A5xiuPiFzorsu1LfU/jPTakM/JunTFVo8&#xA;sf8AOMMUTRevo4kk3CHUmN1y6AIDOZw22wXevTFUdLJ+YqwSQ+TjeTeW0QK0mrwpFqCR1AZdKE3p&#xA;SO6py4/Xk48qUdhtiqe/lH+iv8PXh0L1P8Mm+kOhet6nqej6UX1nl637zl9f+scuW9a4qy++sNPv&#xA;YPSv7eG5gU8+E6LIgIB+KjgjYHriqUaV5q8jTXsVho2o2FzdXRIWHT3jmNI0Z6yehy4KAp+J6CtB&#xA;1IBVZBirsVdirsVdirsVdirsVSjzVrc2i6JNfW9v9aujJBbWlvUhXuLudLaEOQCVT1Jl5HsKnFWI&#xA;+ZbXzvpmraBrMuq2FyVuH0+YSWckMEf19QIzVbh3HO4iihUnlTnWhxV2u+a303zH5evddsW0m9jn&#xA;fTZZi/rWc1vqHBT9XuQEBK3MMDFZVjfgGbjxFcVUPMunReRPMGleatPWQeXPUl0/VdKjUulquosj&#xA;G5tUG6hriCISRIDyrVF5Fg6qr5qv49G896H5tsnR9LvtOmh1mZTVJLOKWF4ZlYHiTALiSbl/vpZP&#xA;bFUFo08un/np5hO4h1f6nazKO7rp/r2rn2VbO7X6R7VVUfLGqXOiaR5wvLQhru/rrVgr/Za71S7u&#xA;7e2Q17FreJflT5BVCabrLeUvydex0ed5Lz67r8FheVEjrBa6heyS3hbcEpBGWQmoaQov7WKpz5mk&#xA;Tyz+Xel+QtJUHXtTsodFsIk6ReqqW015KVGyRepzJpVm+khVV82WWieT/JdzbS3THU/MTw6VcatI&#xA;K3UzTgxuyLGp/ubf1GhhjWgpxVandVb5y1HzZqfle406w06HRbDV1XSbJb4Ga9lF7+4qtrE8aQLH&#xA;EzS1eRmCqeUYpTFU/e78z6Jq+lQ315Hq2l6pcGzeT0BBcW8xhkmjkqjem8TGHgV4BgWBqRXFWVYq&#xA;7FXYq7FWK/mNHcT6NZ2llL9V1W61C1j0y/I5C2uA/P1ip+2FjR/gOz/YJAauKsQa68v+Xb6C38+6&#xA;emsa/wDbi1UyxanJJTb1YbBytxbcu8dtblF6cj1Kqa6j52/LFXBvdHuGZRQtdaJdwca7gE3VvF17&#xA;UxVSHnj8rzp1yY9DnktCtZo49FnaB1rT45RD9WUVFKyOoxVKIvLus6zpUup+U7+Dy/5UkiJfQkvF&#xA;uILxEILRma3aSLTFKKVJtHb7XI7imKsm/KG+07UtBv8AVdLtRp+k39+0mn6ZRF+rRRW0FuU4Rkoo&#xA;eSFpV47EOG74qnH5gcn8pX1opodRMOm1HWl/OloadKGk3Wu2KsgRERFRFCooAVQKAAdABiq7FXYq&#xA;7FXYq7FXYq7FXYqwK70jzB500rUZf03LpMK3c8Wk2trDbkJLpt2yQz3LTxzSO31i2EnFDHRfhO9T&#xA;iqGs7TzN5i8t3FudSjvywez1rRdWjSK4gulA5xJeWKQCLgxDxyfVn5LxdeoOKrtH8z6drNjL5E/M&#xA;C3S28wyRC0vbO6C+hfxyArHPbSr+6b1gpIQEOrhhx+GuKpNYS6lp2nah5H81ajLc2iFLW21qT4rq&#xA;09VgNOu3bf1I3kUcZW3jnUo3JaPiqDtJpls5NInsxJc6TLLqMWkr8QWWEGDWNOijO5jmtbsz2anq&#xA;ko2CoBiqBsdQZNZ8l6gtz9dstV+r6LHqK/EJLnQr6aOCXmNv9Ms7u4k36hfliq651oaT5d8x6tcQ&#xA;s9v5d1Kw0x7ddmdtI1Oe9hRKg7yrcQhdv2h33xVV0+yj02XT/L+ouB/h7TLY+YLgHmsKQcdW1eQn&#xA;uLuf6pHT9peZH2cVTHTNQdtbbzTqtq8+opL6VtpycTNLq00TrDYQsSF46daSSJK9eHqSTO1ODYqj&#xA;fK/pS39x+Y3nHUIWhiQ2mhSMaWsKSN++kskYAkTMFiikp6kqry+zIqKqiNO1DzX5z1yHzFo9tDY+&#xA;XLWN49BvdTWRnlaUcZb5LFDExDr+7iMksZCFmowk+FVdHoes+YPNgjbzLqE1h5ecyS3MUdjHF+lJ&#xA;IzGsUCi3bksEMjGQSl/idRWqsMVZT5ZvdUF5qmj6nci9uNMkiMN9wWN5beePmhmWOkYlVg6twVQQ&#xA;A3EVpiqf4q7FXYqxb8xoRdaHbae0jW0WoahZ28l+hCyW1ZlZJYmP2JfURUif9l2U70oVWJ6Bq83l&#xA;eV9H8tWMHm2JZON3e2CSQ3bSrsxvLr05LKe4r9tnniNf2cVZDdedvOEbAReRdSAPQzXNh2Ar/vNP&#xA;dU36VxVT/wAc+dPq0kg8h6g0i/ZIurIR/wCy5SLPT/Uhb2xVh+oaV5f8xrqOua3rttoepW0SzXmj&#xA;29u8CALIpjGq290kVxqKGReCBo0Vq0QciGxVmX5WXV/f6drGqapa/o7WNQ1Ey6lpVG/0WRLO2giT&#xA;4gD+8t4Yptxtzp2xVNvO9P0LbVFR+ldH6bb/AKVtqYqyDFXYq7FXYq7FXYq7FXYqknmnU9StE06y&#xA;0sxJqGr3YsoLicF44QIJbmSQxqVLkRW78V5CrUqaVxVhlz5f1Lynfy3F35h1NvLeoSNNc38ZtI/q&#xA;N5M5aSWaNbcRi2lZql+PwPUvVWLKqj9Q8n+c7HUj5j8t68NQ1AxLHc2OpwwrFfQqaojS2a2qI6Bm&#xA;9KT02O9CeJxVItU8y6L5p08f4j039Aapp5MM13cKt7ZW7SUMlpqGyPHBLxHL1kSNqK8chIR8VS67&#xA;u1jurLQtflFjczB7bSbi9/0v0/rCqjWzTNQajpl1spYssqHgJOLcXVVLtR1afRpdPuNUlTS/Ovla&#xA;/tbU/XpWFjqenXLG2gMt9w4sYoLqQCRv3g4u7R70CqRIPM/mjT1tfKmiXs2lLq13rtmYjBAlneq0&#xA;31I2l7KxtpoS0iTsi/ZpxqwfgFVZvLP54tK8155amitluV1yeC31CzkS612KTnFdTIGMi2yhE/0Z&#xA;eVOCGrUxVy+amupNe0nVZjo+q+YtT0u41zUL1Es9Q+qcYIvqlnYkSu4ia3lQFuQCMG/eF64qn91P&#xA;pz2k+uXUbaX5GsuWjaDYSP6F5fxox+tR/vyjWyXM8TNcyysJGijq3BebMqjXhh1WS1vvM7OtrMCl&#xA;raQwyNcXcVKNZaTYqvrRWnEhZrhkEky1r6cNMVT5PMnnbzbJNo/la1h8vaTADBea7Ky3UsBUFTBb&#xA;wwEW/rqRQ8ZpFj35UccSqrXuix+VtKs9Lh1vVL68mrFpOh2rWtu88leUh5pCJglTzmnlkYrUsW5H&#xA;dV1ponmLyVp41qbWJNVlurqCTzFZzrG6SNO0VtytJQkcytAnAIrlg6rSis3LFXouKuxV2KsS/M+O&#xA;0l8sCHU9tAlurdNfepULY+oDKXYbrHyCiVu0fI1HXFWPaU/m+2igtfICSXXl6NFWz/xBGIrRYhsq&#xA;Ws6sl+Up0eWCUEfZYjFU3mn/ADsavo2XlqHag53V/LRvHa3i29vxxVTab88xbuotfLLT8RwlE9/x&#xA;B7n0jEOXsPUHzxVjOqny7JLG/nr9LHzgpB0KEokTC4JXiNG+qs9sz8+P95I0gX+9pHXFWW/ld+mR&#xA;puqr5hKN5nXUKa40RBhM/wBUtzD6fEKP94/Q50FOfKm2Kpn55r+hban/AFdtG/7qtrirIcVdirsV&#xA;dirsVdirsVdirDfNtvq3mPUX8vaTcJpkmmi3v5dbeMzSwTsz+gltHyjVmpG3qlzx4Hhxbk3FVKtN&#xA;Sf6zHo/nLWNUttZl/dxSGeOCxvWIpW1ltobZCzAbwuA432YfGVV8n5eeatAto18l+ZLuOziYs+iX&#xA;v1aSBhTZbeV7eVrcD+RRwPbhucVSHXdcuUmWfzHB9T1SBCkWoRqNG1CNC391FcTyXOl3oPUxtchD&#xA;3jrTFUle6srXQLllu9G8z+RrmRItQ0HUuWmPpzysqi49Mrc+iF5F3EcaJT95Eq/EWVV/yw/L2bzQ&#xA;6a55jeafQ7OOPTrWxe+vLy31N9PlnQX0ouCoMDeq3pxemEP2gApoyr3RVVVCqAqqKKo2AA7DFW8V&#xA;SHzh5M0bzVpy2uoK8VxAwl0/UbdjFdWk6kMk0Eq/ErKyK3gaCoOKvDNMXU/LHnBNG1HT9OvvMmnp&#xA;FY+X21bUrz0me7lnlbVYYLlLpVT04U9QRSgqysgYvJTFU5N1o1tfXUGo+YYfMmtXTEagYZ006ylI&#xA;JK21xdAz3Vwse6i2s14Do8PxElVlVqv5kaxBDa6Fcr5f0yJVWG7j05LOGOMUokVpeC4uJuI23jt1&#xA;8CemKphJ5L8teXIp9b1nzDqP1yfjHdavdXpilk3+CFBEI1A5E8Io16nYVOKoCLy15x1yeK+t9Su7&#xA;LQrSSO50/SNcQTPdzwvziluVUQ3MEaMAyI8rNyAZ0BXiyrO/L2rnVtJhvXh+rzlpIbq35c/TuLeR&#xA;oJ4w9ByCSxsoam43xVMsVdirFPzJeGHy/Bd3cYuNMtL+zm1G0pzM0InVQiR/7sYSsjrGKlyvEAkg&#xA;FViuiaPrmtW6aj5FvY/KGiSsWjVZV1JWo3xJ+jata2nuIpgwP2lBriqcTeUfzXkI4fmAkIHULo1s&#xA;SfnylbFVh8nfmyYJI/8AlYa82H7uX9DWoZf+SlPwxVjOral5e8vi/wBH8yaGms63eQKtxqP1z64h&#xA;ieRVje+ubjhLpsPqkODx9NKfuyWAGKsw/Kqzv9P03WNL1O6/SOq2GpGPUNVqxN1JJaW06OeRY/u4&#xA;Zkh3P7FcVTXz1toMcnVYdR0qZ/8AUi1K3dv+FU4qyHFXYq7FXYq7FXYq7FXYq898ynzdP5pvLnyK&#xA;tv8AXbS3js9fe/LehIdriCKBFp/pMUVwz82ZUo6q3L/daqj9X8payG0nzdq+qG8uh6cmkavOdMEh&#xA;O/CNLP6rb3KinWN5B4knFUFrXk/yFotwsNr5sXQplFF03UdSkmgPuUluYboHw4TqPbFUvOqTWoCa&#xA;d5u02KV6BZbjXpwk25P+82qQar8DdP3co9jirDPzMbXLeG3S8h0Cx8wXduy2+oaFEs5vYLpvQkin&#xA;9Yxm3UiXmkrRyDkKIwduLKvo3SNLs9J0u00yzThaWUKQQL1PCNQoqT1O25xVF4q7FXYq8d/5yBso&#xA;bSTQtfN0bKOd5tE1J4rcXUs1vcxm5SIRBopGrJalAY5EdPULBgK4qhrS/wDMNlp9kV1Dyp5X0W5h&#xA;RrS103UYLKaRKdHne1voiKD/AHR0PSRuuKqxg0S731LzjaaZC4o7m+v7iZTTcx3N/crbIT14/Vqe&#xA;22Kp1beT/wAorK2g1yXWDNJH+7j16TWrhZCX6qk0NxGi8v5IwAfDFVsjee7osnkO+u2s2R1a88xx&#xA;0tVqp4m1LxLfyPypR5OUVNxy+yVWW+RXs/8ADVtbW0Etq9iXtby1uHEkyXMbkTepIu0jO9X5/thu&#xA;XfFWQYq7FWK/mNK9totpfww/W7yx1C0ms9PrQ3Upk9MQKegdhISjN8KsAzEKCQqw6z0jTvOOrm61&#xA;HVk8seYXo0+laNy0/VwgOyXVzMEuLhNtmSJFP7JI3Kqfz/lLHIVK+b/NERHXhqj7/MMjD7sVUpfy&#xA;mtI7SX6x5y8z8KFnnk1ZwFUDuOIj47d1+eKsfg8w6pomn3OkeU9PsvMOghWF1rtlaNHDa82CySXE&#xA;UQaLUnCktILZgxpRlFa4qyf8oLXTbHy9eabpF0NQ0WxvWj0zUwUb6zFLbw3DuXjCo3CeaSIcRRQg&#xA;Xtiqc+fqjylfyDrB6U4Hj6MyScfp4UxVkOKuxV2KuxV2KuxV2KuxV595i1XzJ5f8zXsPljThr9xr&#xA;CJf39h6ixPYlEjtFuizFVeOVIAFh5K7MjcSfi4qoT6x5Lv4h/jjXZppXp6lhq6S6LY1PVFs5fRSZ&#xA;fD1Xm9mxVAXGs/khp8jx6AyBwKyR+XL1tOtaA/t3EFxZWII/laXl7Yqg31rT7wFdMsp9YVqr9Ug8&#xA;y61fOT/JMLJL61UGtD6kvHxxViH5h6brOlaTHcx+VU8sNMn1iHRNFuVuWuJLKVbhrnU0i9FfTt0T&#xA;mJI45HV+FX/YZV9H2V5a31nBe2kizWt1Gk0EyGqvHIoZWBHYg1xVXxV2KuxV5H+f96sieXNKje/h&#xA;liu5dXuLzSSFurW3tIGtzPzaiRRiW9T1HdgAgbeuKoGLS9U0aK3kuPItnE0sStP5k0LUb+Np2YV5&#xA;Tfo+3nvyzdSztIv/ABYcVVW80+T7TbWJLhVH96LPzTdzlARUiW3vLmwuTt+yIWPtiqZ6fd/848aj&#xA;Et3ZXOjpetuLpJRa6sGrSvqViv1b6a4qqy+YvNumgt5RtNR822CK7PaanC1k0SgEqYL+4SF7gduP&#xA;pys3+/BirLvJEEK6BHepdi/l1R3v7m8WMwq8k5qQsTVaNY1AjCN8QC/FVqnFU/xV2KsW/MQ3o0a0&#xA;Ollf04L+1/Qyy19FrnnQrNTf0jF6nqEfEFqVq1BirELqHQr6FE/NZr1blTV4btWg0NG7mGW0JgMZ&#xA;6qLuUyeIHQKqMuh/84x3B/dnQJCykUsrlDQA9T9Wk2O/XFVh0X/nGK3haNjoqyADijXFbslehiBc&#xA;3Bb/AFNycVRk3/Kx/RlXyc18fLaovP8ATKqmpcAVqulfWAJefp8qfpBftUoaVxVO/wAoG0lvL162&#xA;g+p/hk38g0JZQ4cQrFEtxUSfvKm+FwW571riqc/mHt5B8xv+1Hpl3KhHUPHAzqRTwZQcVZDirsVd&#xA;irsVdirsVdirsVYX5m1K68o6vd+ZntJdS0i/htbS5gtfTN5FcRyOkHpRu0frLMbgJwVuYalA3I8V&#xA;Ulg1fTPMK/WfOb3ccDbx+VzY38VvEp3Au+cCNdvT7XIej/KppzKqvffmNoLSLa+UNDn1u+gb6ubi&#xA;GwuUsrR4gv7uWdYGo6qRSNR7MUG+KpXrR82TwpNr+oTaWly3pxLcSm3DSdeFnpekyy3N0WSvwTXj&#xA;H/IIqMVY0PLGk6pBqGm6P5dQiH4vNHmrXblLSYQx8TLarJbR3PoNJEDyQcTEtWdVcqWVTL8nPzP0&#xA;2zEHlbVru2itbkLc+XLhLsXKRQXckrQadczSLE4uI1iIXkNx8LEP8JVe3Yq7FUr8y+ZtF8taRNq2&#xA;sXK21pFsKkc5JD9mKJeryPSiqNzirwOxudT8/edp9aWHSr7VPq8NzpGh3d+Qv6Lilnjms54YoZY/&#xA;UcSLIxflRmUq3FWTFUz0uHyzG8t3ptlP5Mm9Yw3umTzS2+nxXW3KMXunuktizVFBcL6bihSMhuRV&#xA;Zj/iD8xfLZVrnSb7W9OT+9j4wXNxTv8AVriz4tMB2We1jJ7yYqjLnzZ+W/mmOl2l3FqNgQPjsr61&#xA;1GxlkQNRXWJJoWKt1VqMPEYqhLb8w9Y0u7j0t7G/1+C6dINI1ma0l01TLIeKRX01zHBD8W3CWBTz&#xA;+yI+fEOqzbyvpFxpOiw2dzKs12zzXN28YKx+vdTPcSiMHcRiSUhAd+NK4qmuKuxVi35iRzz6PZ2d&#xA;pIbbUrvULWLTr8AH6rOH5+vxOz8URhwOz14HZjirDo7vRPLeqw23nHTI9f8AMgUMmrQSRalduOnq&#xA;LYSlbq25dfTtomjHjiqdat578kytS68valekkFfX0S6i5UFKj65DDXiNsVUo/PvkdNNuI08s6kls&#xA;R++tU0WYxPv0eRIzbL4/vJAMVSSPy/qGtaRc6t5Z1C18teWSjG50WG99a2uFjIaWOea2dodNHBWV&#xA;/qjMd+TE044qyb8obqyv9Bv9VsLP9GadqN8ZbPSaKhtY4raC2MZRPhUO8DTLTqrhu+Kp/wCeIPrH&#xA;kvX7flx9bTbuPlStOUDitNvHFU1s5zcWkE5HEzRrIV605KDTFVbFXYq7FXYq7FXYq7FWP+brS+dd&#xA;K1Gztmvn0e+F7JYIVWSaM281swj5lULp9Y9RQxFStKjFWK6p58sPMWovo9tLqGn6RakLrM6WV9He&#xA;TTE/7wQBIvUQ0oZZF3oQsZqSyKoq48+QWItvLXk3y5d3GpPDXT7SW3bTbSCFSFM04uRDNHCpPVYj&#xA;zb4V3xVKZ/LuqaVEdX836k15q9+RbLZ6RyW5uXI5NbR3chiaC2ATmVhWAKqlpHbdsVSC506x1i0s&#xA;G1aJbry1bzrHpuh6cnCxvJ4/3i2thE3pLNAhUvPezgKwB4cIy5xVEz+W7jzfpcOt+ZpWY+Z9S0+1&#xA;0zRbWWSGz/RtrMZeq8JpvUthcyhmIBVweCHYKsk8mvqfl66tbF724vtEutRvtJRLuVriS2kt3lks&#xA;2SWQtJ6bQRek6uzfHwK8atVVmfmjWJNH0G71CGIXF0irHZWxPES3MziG3iJ7c5pFWvviryzXPJsN&#xA;7f3msa/f3mo3+iavpNil0LmeBYPrDWs1xNbxROscK8rxNqbLEpJLVJVQuu6ObKS48p+ZmWWw0+4O&#xA;qeWvNUo/0i0W6kLM92IvS/crcO0MskJQxqY2PCqyKqi1uUt70W3mWaewvreL0ZNYV1N9ZRMxVTcS&#xA;Mhh1HTWZvgmkjb0yR6yh+Tqqnlrp/n/yNLJLaW0XmDyois0umWFYLuAKKhrK1mZ46AV5QrOFO3pI&#xA;n2WVV9R1/Qtbgtdc0yPU9N1tYg+nanBpl3eRvEw5LHM9nHPBcW78t09T/KUq1GxVx80XfnfRo9Js&#xA;dIu7XUPrMEetyXcMtvFp728kdw5DTrDJLIUCvBwSvxIzcN6KvRMVdirsVYn+ZUUdz5fg0+aZrS21&#xA;C/s7ae/Q8ZLYNOpSWJ/2JfUVEjf9l2DdsVYvoOrXnltG0jyjYQeb7RH/AHt1Zo1pMzgkO1xelGsL&#xA;q45fbPqxtXquKp9L5z8+Kax+Qb30wPiaS/04EfJYppifo39sVU387/mELeR0/L67ZwKxV1CwVGHf&#xA;l+89VfkIifbFWJ6jp/lzX5L7WvMOuwaLrdtHG8mlx2jW3ALKphF/bXSrcakhlARKhY2r+7UPRsVZ&#xA;j+Vl9qWo6Zqup6vanT9bvdQMmqaWQR9WlS0t4Yk+Lc+pbxxTe3OnbFWV6rAZ9LvIAnqGWCRPTIqG&#xA;5IRSh8cVQXk+dbjylolwrF1msLWQOa1YNCpqa771xVN8VdirsVdirsVdirsVdirAl8zp5K07VodZ&#xA;069b0ry+vbK4tLae6iu1vbqS5ijEkKSCKTlOIeM3H4h8NVxVD6Hrd/pulXmrNpNzd6rdr9c1zV79&#xA;W0yyh9NeXpVulF0sFtHVU4W7dCx+JiSqpaL5Pm14Dzn+YUgeZ4S9tohrDYWNkD6gWZHPKV3VQ8/q&#xA;nhyAHH92pCqB8uWtz+Yl9Nr1xDJbeWrgehbtIpR59PVqraQKd1inKiS6k29T4YlqqcsVZbYuuteb&#xA;Hv4yP0J5cWWztCNkk1B/huZF7Utoh6II/aeVf2cVSeAmXyXpV8ARNrGu22pWpNQfRu9UFzHyB7/U&#xA;m4kU/HFWQ+ef+OVZFv7oatpPqDua6jAI6fKUofliqDk060ufMXmXy9fK31LzBZRXlQSpcmM2N0Eb&#xA;sY0igNR05jFULFZT+Z9F+pXkyW3m/wAuymCS6ZA6+tw4+o8VR6lrfQmrR1+y1Kh0qqqReWI9O1We&#xA;6/L7zXYNBfadGbvR0d2Msds37qRbS7XizpCW4pIpBMTqjjmsgxVGaTP5x8m6rF5VWNfMOjfVzLoc&#xA;s0q2+oGKE0lteZAt5pIQylAxiqh6ni2KtWXmy18ueZfqsmmarY6RrZklFk2n3M4tdS/vJFia0S4h&#xA;ZLlA8jLG54urN+2SFWT+Vor6fUdY1q4s5NPi1GSFbS2n4rM0VvHw9aVFLcGkLGik8goXlQ/CFWR4&#xA;q7FXYqxT8y1tG8thNS/44D3VuuvmpUCxL/vOZG/pcuIl/wCK+Vdq4qxzTP8AGUcMEf5fepL5fCr9&#xA;UPmNStoIQBxW0dSuo8afZaZHB/ZPGmKplM/56sQIIvK8YHUvJqD1+gIlPvxVYW/PsQuBH5Vab9hu&#xA;eohabdV4/P8AaxVjurSeW1lRfPa6w/m9vh0INxVjcEqF/QzWZ+rJIX47yH1OP97+7rirK/ysTWU0&#xA;/WE8wFX8zLqR/TckRBiaY2dsYTHxCgAWhgVqD7YbFWbYqx78u6/8q/8ALNev6Jsa/wDSMmKshxV2&#xA;KuxV2KuxV2KuxV2KpL5v0m+1TQZbbT3RL+Ka2vLT1CRG01lcx3UaORUhXaEKxoaA9DirFfNfmHWt&#xA;Tl0jQ4/LV+sl5c+vf200lpHG0FmvremZlmkUo0/oh+INYywoemKqfmvQNe8wXekaT5gvEW31O6DX&#xA;Gh2BY2q2dqvrT/WJnCSXQdlSDdUQepX0ywDBVPtW1a71W9k8teXZDE0VI9Y1eGnCxjI/uYTRla7Z&#xA;fsr/ALrHxv8AsK6qh5gs7aPT7DyHoqfV11CMxXHp1/0fTI6C5kLV5c5QfRRq8ub89+LYqi9WCXHm&#xA;vy9o9uoWHThNqtwqUCokcTWdvEVHQO9yzp/xiOKo3zjp13qPlnULayAOoCL1tP5fZ+t25E1sT7Ca&#xA;NcVSvWrltQ0XSPOeiRPcz2SLfQ26giW4sbmMG5twvXmY6SIneVEBpviqtqljJqP1HzZ5Xnik1AQK&#xA;Yjy/0fULGT94IJGHT7XOGT9hj/KzqyqRedW0TzT5U/T1t60OpeVrj66wQtb6haNAP9NtzwPNHe2L&#xA;hV3Rjwb41pVVT85nzjpfl46k6w6/BohXVbPVIWS2vVFsC7rJEaQSiW39SN5I3T4WNI8VTq7bXfMO&#xA;q6RGNJuNK03TrsX17dXrW/OQxRuscECQSztUyOC7txXiCBy5bKsuxV2KuxV2KsU/MmWK20G3v7iM&#xA;3FjYX9nc3lmm7zosyhURP92OsrI6Rjd2UKNyMVYvomj6trtqNS8k30Xk7TJXJEcEi6iTv8SPp9fq&#xA;VpJWvIIzNX7W/RVNpvJ35pMwMP5hNGO4bSLJv4riq3/Bf5qGF1b8xX9U/YcaRZBR8xWvzow+jFWM&#xA;anq+i+XRqGi65odvrms3cSx3mqLcNeQiNnURtqs1zyn0+EOeYHxIoBKHlRcVZl+V1hd6Zpuq6TfX&#xA;P6Q1DT9QMV5qx5crt5LW3nR25tI37qKZIASxNIxU1xVmmKse/L6o8j6HH1EFlDAp8VhQRqT70XfF&#xA;WQ4q7FXYq7FXYq7FXYq7FXYqkvmXRdRvvql7pNzHaaxp0jSWsk6NLBIkiFJYZkVo24OKGqtVWVTv&#xA;QqVWJ6jpnmjUvPOlQazqUelwy6bfJEulFlllHrWrTxC5lo0fMKh/dqHAU8XG5xVkt9qOh+UdLtdO&#xA;0+z5Ty8o9J0W0A9a4k+03EHoKtyllc8VrydsVVfLOhXNitxqGpuk+vamVk1GaOpjQKCI7aAsAfRh&#xA;BIWoHIlnIDMcVQnko/pH9I+Z2+Ia1MPqDbf8c61rHacSOqS1e4X/AIy4qyfFWOeS0FtHrGmLsmna&#xA;pcoidlS643yqNvshbsUHYfcFUHIW8mXdxcNVvKF3IZpeIJOm3Er1kcgf8ekjMXY/7qapP7sn01Vb&#xA;zVoehXllN5iF+dKmhtGaXWbdkKSWaoXK3CNyiuIeJJAcfDUlCpNcVSPRfL/nzVPJGk6Fq1zZWmnT&#xA;6dBb6s8cUxvZIWhRZIArOI4XZeSO9X8QoPRV6LirsVdirsVdirFvzFklt9GtL22i+tX9nqFpNY6e&#xA;DQ3Uxk9MQA9FLK7EM3woRyaiqTirD7fS9N836qs+uaqnlvzIxFdJ0xRp2qKq7enLdzr9ZuVWuzwB&#xA;EP7NRuVWQz/lRZyA+l5m8y25IoCmr3LU36/vTIMVUZ/yr0uGxm+ueavMZTj8dzPrE6hRvUstVhIN&#xA;dw6Ee2KsaXzHqeg6PdWHlW1stc8qxIz3XmCGzW3t7ONiPWnljh9O31MhCzv9V4dKN1xVln5TaZaa&#xA;Po+qaLp8v1nSdL1KS30+8ITlMpghlnZmQKrcLqSaPYbBeP7OKs3xVj35enl5G0KXtPZQTqBvRZkE&#xA;gH0B8VZDirsVdirsVdirsVdirsVdirsVQGsaHpOs26W+pW6zxxOJoTVkeORQQJI5EKujUYjkpBoc&#xA;VU9I8taLpMks1lb0upwBPeTPJcXMij7KvcTtJMyr2Bag7YqgfPN1cpoR0+zkaLUNalTTLORPtobm&#xA;olmTpvBAJJv9hiqeWtrb2lrDa2yCK3t0WKGJeiogCqo+QGKquKsd0GkXmrzPbAj97NaXxA8ZbVLf&#xA;fv8A8eeKshIBFDuD1GKsfPkDyf6wk/RqCMSCYWYeQWnqq3MSfVA31fny+Ll6da4qyHFXYq7FXYq7&#xA;FXYqlHmbR7nU7CMWUywajZTx3lhLIpaMTQn7MijcpIpZGpuA1RuBiqT3fmTSZ7U2XnPRJLHekiXV&#xA;ub7T2p+0t1GkkQXw9YRt/kjFUFbWv5NSqTp93pMKJ8JGn3sduo/yaW0iAfLFXSL+TdpPG80ml3l6&#xA;Dzt0lkXULokf75jdp5if9QYqjrm88y+ZUay0y1l0PRpRwuNWvYwl3JGwoy2lm4LRkjb1LgLx7Rt1&#xA;xVS0PStZ8l2i6LpmmNq/luAt+jEtpYo7y2R2L+jKLl4Y5lVmPGX1edNmUkc2Vdrtp+YvmHTZrG0e&#xA;28rwXACSXXM3t96bECQIFVIIH4Vo3KT/AGJ+LFWXWtrb2lrDa2yCK3t0WKGJeiogCqo+QGKquKux&#xA;V2KuxV2KuxV2KuxV2KuxV2KuxVjk4N959toT/c6JYG7KHoZ9QkaCFx7xxWs6/wCzxVkeKuxVj1lX&#xA;/lYGs+H6J0r/AKidRxVkOKuxV2KuxV2KuxV2KuxV2KuxVB336I5r9f8Aq/OnwevwrT254qusf0bw&#xA;b6h6PCvx+hwpX34YqisVdirsVdirsVdirsVdirsVdirsVdirsVdirsVdiqkn1b6xJw4fWKL61Kc+&#xA;O/DlTenWlcVVcVdiqUW36M/xbqXp+p+lPqFh9arT0/Q9a89Dj35c/V5fRiqb4q7FXYq7FXYq7FXY&#xA;q//Z</xapGImg:image>
    </rdf:li>
   </rdf:Alt>
  </xap:Thumbnails>
 </rdf:Description>

 <rdf:Description rdf:about=''
  xmlns:dc='http://purl.org/dc/elements/1.1/'>
  <dc:format>image/svg+xml</dc:format>
 </rdf:Description>

</rdf:RDF>
</x:xmpmeta>
                                                                                                                                                                                                                                                                                                                                                                                                                                                                                                                                                                                                                                                                                                                                                                                                                                                                                                                                                                                                                                                                                                                                                                                                                                                                                                                                                                                                                                                                                                                                                                                                                                                                                                                                                                                                                                                                                                                                                                                                                                                                                                                                <?xpacket end='w'?>
			</metadata>
		<g id="Layer_1">
			<g>
				<g>
					<g>
						<path style="fill:none;stroke:#000000;stroke-width:0.5;" d="M106.289,21.463c2.636,0,5.167-4.749,5.167-10.607
							S109.868,0.25,107.231,0.25"/>
						<path style="fill:none;stroke:#000000;stroke-width:0.5;" d="M108.167,21.463c-2.636,0-5.167-4.749-5.167-10.607
							s1.588-10.606,4.224-10.606"/>
					</g>
					<g>
						<path style="fill:none;stroke:#000000;stroke-width:0.5;" d="M106.274,21.464c2.636-0.003,5.16-4.755,5.152-10.613
							c-0.008-5.857-1.602-10.604-4.238-10.601"/>
						<path style="fill:none;stroke:#000000;stroke-width:0.5;" d="M108.152,21.462c-2.636,0.004-5.173-4.742-5.181-10.599
							c-0.008-5.858,1.574-10.609,4.209-10.612"/>
					</g>
					<g>
						<path style="fill:none;stroke:#000000;stroke-width:0.5;" d="M104.375,21.798c2.595-0.461,4.256-5.58,3.231-11.347
							c-1.025-5.767-3.419-10.165-6.015-9.704"/>
						<path style="fill:none;stroke:#000000;stroke-width:0.5;" d="M106.225,21.469c-2.595,0.461-5.917-3.771-6.942-9.539
							c-1.025-5.767-0.292-10.721,2.303-11.182"/>
					</g>
					<g>
						<path style="fill:none;stroke:#000000;stroke-width:0.5;" d="M102.563,22.456c2.476-0.905,3.223-6.234,1.212-11.735
							c-2.011-5.502-5.132-9.417-7.608-8.512"/>
						<path style="fill:none;stroke:#000000;stroke-width:0.5;" d="M104.328,21.811c-2.476,0.905-6.482-2.687-8.493-8.188
							c-2.011-5.502-2.15-10.507,0.326-11.412"/>
					</g>
					<path style="fill:none;stroke:#000000;stroke-width:0.5;" d="M111.892,42.508c-2.476,0.905-3.222,6.233-1.211,11.735
						c0.262,0.717,0.543,1.407,0.838,2.062c0,0,1.573,10.634,0.906,14.301"/>
					<g>
						<path style="fill:none;stroke:#000000;stroke-width:0.5;" d="M100.894,23.417c2.281-1.321,2.091-6.698-0.845-11.767
							s-6.689-8.382-8.971-7.062"/>
						<path style="fill:none;stroke:#000000;stroke-width:0.5;" d="M102.519,22.477c-2.281,1.321-6.851-1.52-9.787-6.589
							c-2.936-5.068-3.941-9.974-1.66-11.295"/>
					</g>
					<g>
						<path style="fill:none;stroke:#000000;stroke-width:0.5;" d="M113.562,41.545c-2.281,1.321-2.091,6.698,0.844,11.768
							c2.936,5.069,6.689,8.382,8.971,7.061"/>
						<path style="fill:none;stroke:#000000;stroke-width:0.5;" d="M111.937,42.487c2.281-1.321,6.851,1.52,9.786,6.589
							s3.941,9.974,1.66,11.295"/>
					</g>
					<g>
						<path style="fill:none;stroke:#000000;stroke-width:0.5;" d="M99.416,24.656c2.017-1.697,0.896-6.96-2.875-11.442
							C92.77,8.731,88.497,6.12,86.48,7.817"/>
						<path style="fill:none;stroke:#000000;stroke-width:0.5;" d="M100.853,23.446c-2.017,1.697-7.011-0.308-10.782-4.79
							s-5.613-9.138-3.596-10.835"/>
					</g>
					<g>
						<path style="fill:none;stroke:#000000;stroke-width:0.5;" d="M115.04,40.308c-2.017,1.697-0.896,6.96,2.875,11.442
							c3.771,4.482,8.043,7.094,10.061,5.396"/>
						<path style="fill:none;stroke:#000000;stroke-width:0.5;" d="M113.603,41.517c2.017-1.697,7.011,0.307,10.782,4.79
							c3.771,4.482,5.613,9.138,3.596,10.835"/>
					</g>
					<g>
						<path style="fill:none;stroke:#000000;stroke-width:0.5;" d="M98.175,26.131c1.692-2.021-0.326-7.009-4.818-10.769
							s-9.153-5.589-10.845-3.567"/>
						<path style="fill:none;stroke:#000000;stroke-width:0.5;" d="M99.381,24.69c-1.691,2.021-6.958,0.915-11.449-2.844
							c-4.492-3.759-7.115-8.024-5.423-10.046"/>
					</g>
					<g>
						<path style="fill:none;stroke:#000000;stroke-width:0.5;" d="M116.28,38.833c-1.692,2.021,0.326,7.009,4.818,10.769
							c4.492,3.759,9.153,5.589,10.844,3.567"/>
						<path style="fill:none;stroke:#000000;stroke-width:0.5;" d="M115.075,40.273c1.691-2.021,6.958-0.915,11.45,2.844
							c4.492,3.759,7.115,8.024,5.423,10.046"/>
					</g>
					<g>
						<path style="fill:none;stroke:#000000;stroke-width:0.5;" d="M97.21,27.799c1.315-2.284-1.538-6.846-6.615-9.769
							c-5.077-2.922-9.984-3.915-11.299-1.63"/>
						<path style="fill:none;stroke:#000000;stroke-width:0.5;" d="M98.147,26.171c-1.315,2.285-6.692,2.109-11.769-0.813
							s-8.4-6.667-7.085-8.952"/>
					</g>
					<g>
						<path style="fill:none;stroke:#000000;stroke-width:0.5;" d="M117.245,37.164c-1.315,2.284,1.539,6.846,6.615,9.769
							c5.077,2.922,9.984,3.915,11.299,1.63"/>
						<path style="fill:none;stroke:#000000;stroke-width:0.5;" d="M116.308,38.792c1.315-2.285,6.693-2.109,11.77,0.813
							s8.4,6.667,7.085,8.952"/>
					</g>
					<g>
						<path style="fill:none;stroke:#000000;stroke-width:0.5;" d="M96.549,29.61c0.898-2.478-2.704-6.476-8.21-8.472
							c-5.507-1.996-10.512-2.121-11.411,0.357"/>
						<path style="fill:none;stroke:#000000;stroke-width:0.5;" d="M97.189,27.844c-0.898,2.478-6.225,3.239-11.731,1.243
							c-5.507-1.996-9.43-5.107-8.532-7.585"/>
					</g>
					<g>
						<path style="fill:none;stroke:#000000;stroke-width:0.5;" d="M117.906,35.354c-0.898,2.478,2.704,6.475,8.21,8.471
							s10.512,2.122,11.411-0.356"/>
						<path style="fill:none;stroke:#000000;stroke-width:0.5;" d="M117.266,37.119c0.898-2.478,6.225-3.239,11.731-1.243
							s9.43,5.107,8.532,7.585"/>
					</g>
					<g>
						<path style="fill:none;stroke:#000000;stroke-width:0.5;" d="M96.213,31.508c0.455-2.597-3.787-5.908-9.557-6.917
							c-5.77-1.01-10.721-0.264-11.175,2.333"/>
						<path style="fill:none;stroke:#000000;stroke-width:0.5;" d="M96.537,29.658c-0.454,2.597-5.568,4.271-11.337,3.261
							c-5.77-1.009-10.174-3.392-9.719-5.988"/>
					</g>
					<g>
						<path style="fill:none;stroke:#000000;stroke-width:0.5;" d="M118.243,33.456c-0.455,2.596,3.787,5.907,9.557,6.917
							c5.77,1.009,10.721,0.264,11.175-2.333"/>
						<path style="fill:none;stroke:#000000;stroke-width:0.5;" d="M117.918,35.306c0.455-2.596,5.568-4.271,11.338-3.261
							c5.77,1.01,10.173,3.392,9.719,5.988"/>
					</g>
					<g>
						<path style="fill:none;stroke:#000000;stroke-width:0.5;" d="M96.211,33.436c-0.003-2.636-4.755-5.16-10.613-5.152
							c-5.857,0.008-10.604,1.602-10.6,4.238"/>
						<path style="fill:none;stroke:#000000;stroke-width:0.5;" d="M96.209,31.557c0.003,2.636-4.742,5.173-10.599,5.181
							s-10.608-1.574-10.611-4.21"/>
					</g>
					<g>
						<path style="fill:none;stroke:#000000;stroke-width:0.5;" d="M118.244,31.528c0.003,2.636,4.755,5.16,10.613,5.152
							s10.604-1.602,10.6-4.237"/>
						<path style="fill:none;stroke:#000000;stroke-width:0.5;" d="M118.247,33.406c-0.003-2.636,4.742-5.172,10.599-5.18
							s10.608,1.574,10.611,4.209"/>
					</g>
					<g>
						<path style="fill:none;stroke:#000000;stroke-width:0.5;" d="M96.544,35.334c-0.461-2.595-5.579-4.256-11.346-3.231
							s-10.165,3.419-9.703,6.014"/>
						<path style="fill:none;stroke:#000000;stroke-width:0.5;" d="M96.216,33.485c0.461,2.595-3.771,5.917-9.539,6.942
							c-5.767,1.025-10.72,0.292-11.181-2.303"/>
					</g>
					<g>
						<path style="fill:none;stroke:#000000;stroke-width:0.5;" d="M117.911,29.63c0.461,2.595,5.579,4.256,11.346,3.231
							s10.164-3.419,9.703-6.014"/>
						<path style="fill:none;stroke:#000000;stroke-width:0.5;" d="M118.24,31.479c-0.461-2.595,3.771-5.917,9.538-6.942
							c5.767-1.025,10.72-0.292,11.181,2.303"/>
					</g>
					<g>
						<path style="fill:none;stroke:#000000;stroke-width:0.5;" d="M97.202,37.146c-0.905-2.476-6.233-3.223-11.735-1.212
							s-9.416,5.132-8.511,7.607"/>
						<path style="fill:none;stroke:#000000;stroke-width:0.5;" d="M96.557,35.382c0.905,2.476-2.687,6.482-8.188,8.493
							c-5.501,2.011-10.506,2.149-11.411-0.326"/>
					</g>
					<g>
						<path style="fill:none;stroke:#000000;stroke-width:0.5;" d="M117.253,27.818c0.905,2.476,6.233,3.223,11.735,1.212
							s9.416-5.132,8.511-7.607"/>
						<path style="fill:none;stroke:#000000;stroke-width:0.5;" d="M117.898,29.582c-0.904-2.476,2.687-6.482,8.188-8.493
							c5.501-2.011,10.506-2.149,11.411,0.327"/>
					</g>
					<g>
						<path style="fill:none;stroke:#000000;stroke-width:0.5;" d="M98.165,38.816c-1.321-2.281-6.698-2.091-11.767,0.844
							c-5.068,2.936-8.382,6.689-7.061,8.97"/>
						<path style="fill:none;stroke:#000000;stroke-width:0.5;" d="M97.223,37.19c1.321,2.281-1.52,6.851-6.589,9.786
							c-5.069,2.936-9.974,3.941-11.294,1.66"/>
					</g>
					<g>
						<path style="fill:none;stroke:#000000;stroke-width:0.5;" d="M116.291,26.148c1.321,2.281,6.698,2.091,11.767-0.844
							c5.069-2.935,8.382-6.689,7.061-8.97"/>
						<path style="fill:none;stroke:#000000;stroke-width:0.5;" d="M117.232,27.773c-1.321-2.281,1.52-6.85,6.589-9.786
							s9.974-3.941,11.294-1.66"/>
					</g>
					<g>
						<path style="fill:none;stroke:#000000;stroke-width:0.5;" d="M99.402,40.293c-1.697-2.017-6.959-0.896-11.441,2.875
							c-4.482,3.771-7.093,8.042-5.396,10.06"/>
						<path style="fill:none;stroke:#000000;stroke-width:0.5;" d="M98.193,38.856c1.697,2.017-0.308,7.01-4.79,10.781
							c-4.482,3.771-9.138,5.613-10.834,3.596"/>
					</g>
					<g>
						<path style="fill:none;stroke:#000000;stroke-width:0.5;" d="M115.054,24.67c1.697,2.017,6.959,0.896,11.441-2.875
							s7.093-8.043,5.396-10.06"/>
						<path style="fill:none;stroke:#000000;stroke-width:0.5;" d="M116.263,26.108c-1.697-2.017,0.308-7.01,4.79-10.781
							s9.138-5.613,10.834-3.596"/>
					</g>
					<g>
						<path style="fill:none;stroke:#000000;stroke-width:0.5;" d="M100.877,41.534c-2.021-1.691-7.009,0.326-10.769,4.818
							c-3.759,4.492-5.588,9.152-3.567,10.844"/>
						<path style="fill:none;stroke:#000000;stroke-width:0.5;" d="M99.437,40.329c2.021,1.691,0.915,6.957-2.845,11.449
							c-3.759,4.492-8.024,7.114-10.045,5.422"/>
					</g>
					<g>
						<path style="fill:none;stroke:#000000;stroke-width:0.5;" d="M113.578,23.43c2.021,1.692,7.009-0.326,10.769-4.817
							c3.759-4.492,5.589-9.152,3.567-10.844"/>
						<path style="fill:none;stroke:#000000;stroke-width:0.5;" d="M115.019,24.636c-2.021-1.691-0.914-6.957,2.845-11.449
							c3.759-4.492,8.024-7.114,10.045-5.423"/>
					</g>
					<g>
						<path style="fill:none;stroke:#000000;stroke-width:0.5;" d="M102.546,42.499c-2.285-1.315-6.846,1.538-9.768,6.614
							c-2.922,5.077-3.915,9.984-1.63,11.298"/>
						<path style="fill:none;stroke:#000000;stroke-width:0.5;" d="M100.918,41.562c2.284,1.315,2.108,6.692-0.813,11.769
							c-2.922,5.077-6.667,8.4-8.951,7.085"/>
					</g>
					<g>
						<path style="fill:none;stroke:#000000;stroke-width:0.5;" d="M111.91,22.465c2.284,1.315,6.846-1.538,9.768-6.614
							c2.922-5.077,3.915-9.984,1.63-11.299"/>
						<path style="fill:none;stroke:#000000;stroke-width:0.5;" d="M113.538,23.402c-2.285-1.315-2.109-6.693,0.813-11.769
							s6.667-8.399,8.951-7.084"/>
					</g>
					<path style="fill:none;stroke:#000000;stroke-width:0.5;" d="M102.59,42.52c2.478,0.898,3.239,6.225,1.243,11.731
						c-0.188,0.52-0.387,1.025-0.593,1.514c0,0-4.315,10.175-4.648,13.508"/>
					<g>
						<path style="fill:none;stroke:#000000;stroke-width:0.5;" d="M110.1,21.804c2.478,0.898,6.475-2.703,8.471-8.21
							c1.996-5.506,2.122-10.512-0.356-11.41"/>
						<path style="fill:none;stroke:#000000;stroke-width:0.5;" d="M111.865,22.444c-2.478-0.898-3.238-6.225-1.243-11.731
							c1.996-5.506,5.107-9.43,7.585-8.531"/>
					</g>
					<g>
						<path style="fill:none;stroke:#000000;stroke-width:0.5;" d="M108.202,21.468c2.597,0.454,5.907-3.787,6.917-9.557
							c1.009-5.769,0.264-10.72-2.333-11.174"/>
						<path style="fill:none;stroke:#000000;stroke-width:0.5;" d="M110.052,21.792c-2.596-0.455-4.27-5.568-3.261-11.337
							c1.01-5.77,3.392-10.173,5.988-9.719"/>
					</g>
				</g>
				<g>
					<path style="fill:none;stroke:#000000;stroke-width:0.5;" d="M7.946,64.842c0-2.636,4.749-4.224,10.606-4.224
						c3.533,0,6.662,1.255,8.59,2.83c0,0,1.66,4.609,4.91,4.109s4.25-1.75,4.25-1.75s-0.776,3.259,0.724-1.241s-3.25-51,0.25-51
						s2.75-0.75,2.75-0.75"/>
					<path style="fill:none;stroke:#000000;stroke-width:0.5;" d="M29.159,62.58c0,2.636-4.749,6.493-10.606,6.493
						S7.946,67.485,7.946,64.849"/>
					<path style="fill:none;stroke:#000000;stroke-width:0.5;" d="M29.159,62.768c0-2.636-4.749-6.087-10.606-6.087
						S7.946,58.269,7.946,60.905"/>
					<path style="fill:none;stroke:#000000;stroke-width:0.5;" d="M29.159,58.643c0,2.636-4.749,6.493-10.606,6.493
						S7.946,63.547,7.946,60.912"/>
					<path style="fill:none;stroke:#000000;stroke-width:0.5;" d="M29.159,58.831c0-2.636-4.749-6.087-10.606-6.087
						S7.946,54.332,7.946,56.967"/>
					<path style="fill:none;stroke:#000000;stroke-width:0.5;" d="M29.159,54.706c0,2.636-4.749,6.493-10.606,6.493
						S7.946,59.61,7.946,56.974"/>
					<path style="fill:none;stroke:#000000;stroke-width:0.5;" d="M29.159,54.893c0-2.636-4.749-6.087-10.606-6.087
						S7.946,50.394,7.946,53.03"/>
					<path style="fill:none;stroke:#000000;stroke-width:0.5;" d="M29.159,50.768c0,2.636-4.749,6.493-10.606,6.493
						S7.946,55.673,7.946,53.037"/>
					<path style="fill:none;stroke:#000000;stroke-width:0.5;" d="M29.159,50.956c0-2.636-4.749-6.087-10.606-6.087
						S7.946,46.457,7.946,49.093"/>
					<path style="fill:none;stroke:#000000;stroke-width:0.5;" d="M29.159,46.831c0,2.636-4.749,6.493-10.606,6.493
						S7.946,51.736,7.946,49.1"/>
					<path style="fill:none;stroke:#000000;stroke-width:0.5;" d="M29.159,47.019c0-2.636-4.749-6.087-10.606-6.087
						S7.946,42.52,7.946,45.155"/>
					<path style="fill:none;stroke:#000000;stroke-width:0.5;" d="M29.159,42.894c0,2.636-4.749,6.493-10.606,6.493
						S7.946,47.798,7.946,45.162"/>
					<path style="fill:none;stroke:#000000;stroke-width:0.5;" d="M29.159,43.082c0-2.636-4.749-6.087-10.606-6.087
						S7.946,38.582,7.946,41.218"/>
					<path style="fill:none;stroke:#000000;stroke-width:0.5;" d="M29.159,38.957c0,2.636-4.749,6.492-10.606,6.492
						S7.946,43.861,7.946,41.225"/>
					<path style="fill:none;stroke:#000000;stroke-width:0.5;" d="M29.159,39.144c0-2.636-4.749-6.087-10.606-6.087
						S7.946,34.645,7.946,37.281"/>
					<path style="fill:none;stroke:#000000;stroke-width:0.5;" d="M29.159,35.019c0,2.636-4.749,6.493-10.606,6.493
						S7.946,39.923,7.946,37.288"/>
					<path style="fill:none;stroke:#000000;stroke-width:0.5;" d="M29.159,35.207c0-2.636-4.749-6.087-10.606-6.087
						S7.946,30.707,7.946,33.343"/>
					<path style="fill:none;stroke:#000000;stroke-width:0.5;" d="M29.159,31.082c0,2.636-4.749,6.493-10.606,6.493
						S7.946,35.986,7.946,33.35"/>
					<path style="fill:none;stroke:#000000;stroke-width:0.5;" d="M29.159,31.269c0-2.636-4.749-6.087-10.606-6.087
						S7.946,26.77,7.946,29.406"/>
					<path style="fill:none;stroke:#000000;stroke-width:0.5;" d="M29.159,27.144c0,2.636-4.749,6.493-10.606,6.493
						S7.946,32.049,7.946,29.413"/>
					<path style="fill:none;stroke:#000000;stroke-width:0.5;" d="M29.159,27.332c0-2.636-4.749-6.087-10.606-6.087
						S7.946,22.833,7.946,25.468"/>
					<path style="fill:none;stroke:#000000;stroke-width:0.5;" d="M29.159,23.207c0,2.636-4.749,6.493-10.606,6.493
						S7.946,28.111,7.946,25.476"/>
					<path style="fill:none;stroke:#000000;stroke-width:0.5;" d="M29.159,23.395c0-2.636-4.749-6.087-10.606-6.087
						S7.946,18.895,7.946,21.531"/>
					<path style="fill:none;stroke:#000000;stroke-width:0.5;" d="M29.159,19.27c0,2.636-4.749,6.493-10.606,6.493
						S7.946,24.174,7.946,21.538"/>
					<path style="fill:none;stroke:#000000;stroke-width:0.5;" d="M29.159,19.457c0-2.636-4.749-6.087-10.606-6.087
						S7.946,14.958,7.946,17.594"/>
					<path style="fill:none;stroke:#000000;stroke-width:0.5;" d="M29.159,15.332c0,2.636-4.749,6.493-10.606,6.493
						S7.946,20.237,7.946,17.601"/>
					<path style="fill:none;stroke:#000000;stroke-width:0.5;" d="M29.159,15.52c0-2.636-4.749-6.087-10.606-6.087
						S7.946,11.021,7.946,13.657"/>
					<path style="fill:none;stroke:#000000;stroke-width:0.5;" d="M29.159,11.395c0,2.636-4.749,6.492-10.606,6.492
						S7.946,16.299,7.946,13.664"/>
					<path style="fill:none;stroke:#000000;stroke-width:0.5;" d="M29.159,11.583c0-2.636-4.749-6.087-10.606-6.087
						S7.946,7.083,7.946,9.719"/>
					<path style="fill:none;stroke:#000000;stroke-width:0.5;" d="M29.159,7.458c0,2.636-4.749,6.493-10.606,6.493
						S7.946,12.362,7.946,9.726"/>
					<path style="fill:none;stroke:#000000;stroke-width:0.5;" d="M29.159,7.645c0-2.636-4.749-6.087-10.606-6.087
						S7.946,3.146,7.946,5.782"/>
					<path style="fill:none;stroke:#000000;stroke-width:0.5;" d="M7.946,5.789c0,2.636,4.749,4.224,10.606,4.224
						c3.373,0,6.378-1.279,8.321-2.867c0,0,4.679-2.088,8.679,2.162l3.474-0.241"/>
				</g>
			</g>
			<rect y="33.897" style="fill:none;" width="147.401" height="2.834"/> 
		</g>
	</svg>
