<?xml version="1.0" encoding="iso-8859-1"?>
<!-- Generator: Adobe Illustrator 11 Build 196, SVG Export Plug-In . SVG Version: 6.0.0 Build 78)  -->
<!DOCTYPE svg PUBLIC "-//W3C//DTD SVG 1.0//EN"    "http://www.w3.org/TR/2001/REC-SVG-20010904/DTD/svg10.dtd" [
	<!ENTITY ns_flows "http://ns.adobe.com/Flows/1.0/">
	<!ENTITY ns_svg "http://www.w3.org/2000/svg">
	<!ENTITY ns_xlink "http://www.w3.org/1999/xlink">
]>
<svg  
	 width="142.555" height="98.095" viewBox="0 0 142.555 98.095" style="overflow:visible;enable-background:new 0 0 142.555 98.095"
	 xml:space="preserve">
	<style type="text/css">
	
	</style>
	<g id="Layer_1">
		<g>
			<line style="fill:none;" x1="142.555" y1="58.205" x2="142.555" y2="34.79"/>
			<g>
				<line style="fill:none;stroke:#000000;stroke-width:2;stroke-miterlimit:1;" x1="73.308" y1="49.388" x2="73.305" y2="60.563"/>
				<line style="fill:none;stroke:#000000;stroke-width:2;stroke-miterlimit:1;" x1="78.71" y1="43.802" x2="78.703" y2="66.153"/>
			</g>
			<polyline style="fill:none;stroke:#000000;stroke-width:2;stroke-miterlimit:1;" points="73.568,54.891 41.402,54.881 
				64.585,37.72 86.499,37.726 "/>
			<polyline style="fill:none;stroke:#000000;stroke-width:2;stroke-miterlimit:1;" points="87.949,37.728 134.397,37.741 
				111.213,54.902 78.818,54.893 "/>
			
				<line style="fill:none;stroke:#000000;stroke-width:0.5;stroke-miterlimit:1;stroke-dasharray:2;" x1="87.166" y1="17.444" x2="87.166" y2="51.044"/>
			
				<line style="fill:none;stroke:#000000;stroke-width:0.5;stroke-miterlimit:1;stroke-dasharray:2;" x1="87.166" y1="59.044" x2="87.166" y2="81.444"/>
			<g>
				<text transform="matrix(1 0 0 1 83.7012 14.5107)"><tspan x="0" y="0" style="font-family:Liberation Sans; font-size:7.650000;">N</tspan></text>
			</g>
			<g>
				<text transform="matrix(1 0 0 1 83.9648 88.9004)"><tspan x="0" y="0" style="font-family:Liberation Sans; font-size:7.650000;">S</tspan></text>
			</g>
		</g>
		<g>
			<rect x="0.25" y="25.168" style="fill:#B4B4B4;stroke:#000000;stroke-width:0.5;" width="19.2" height="49.2"/> 
			<polygon style="fill:#B4B4B4;stroke:#000000;stroke-width:0.5;stroke-linejoin:round;" points="19.385,25.104 25.562,21.539 
				6.553,21.539 0.377,25.104 "/>
			<polygon style="fill:#B4B4B4;stroke:#000000;stroke-width:0.5;" points="25.688,70.721 25.688,21.521 19.37,25.168 19.37,74.368 
				"/>
			<g>
				<text transform="matrix(1 0 0 1 9.0825 93.811)"><tspan x="0" y="0" style="font-family:Liberation Sans; font-size:7.650000;">S</tspan></text>
			</g>
			<g>
				<text transform="matrix(1 0 0 1 8.6187 9.6001)"><tspan x="0" y="0" style="font-family:Liberation Sans; font-size:7.650000;">N</tspan></text>
			</g>
			
				<line style="fill:none;stroke:#000000;stroke-width:0.5;stroke-miterlimit:1;stroke-dasharray:2;" x1="11.999" y1="10.918" x2="11.999" y2="23.519"/>
			
				<line style="fill:none;stroke:#000000;stroke-width:0.5;stroke-miterlimit:1;stroke-dasharray:2;" x1="11.999" y1="75.719" x2="11.999" y2="83.919"/>
		</g>
	</g>
</svg>
