<?xml version="1.0" encoding="iso-8859-1"?>
<!-- Generator: Adobe Illustrator 11 Build 196, SVG Export Plug-In . SVG Version: 6.0.0 Build 78)  -->
<!DOCTYPE svg PUBLIC "-//W3C//DTD SVG 1.0//EN"    "http://www.w3.org/TR/2001/REC-SVG-20010904/DTD/svg10.dtd" [
	<!ENTITY ns_flows "http://ns.adobe.com/Flows/1.0/">
	<!ENTITY ns_svg "http://www.w3.org/2000/svg">
	<!ENTITY ns_xlink "http://www.w3.org/1999/xlink">
]>
<svg  
	 width="109.338" height="208.349" viewBox="0 0 109.338 208.349"
	 style="overflow:visible;enable-background:new 0 0 109.338 208.349" xml:space="preserve">
	<style type="text/css">
	
	</style>
	<g id="Layer_1">
		<g>
			<line style="fill:none;stroke:#000000;stroke-width:0.5;" x1="76.198" y1="153.132" x2="64.848" y2="154.202"/>
			<path d="M78.118,152.949c-0.873,0.421-1.941,1.1-2.58,1.772l0.405-1.567l-0.691-1.463
				C76.005,152.232,77.182,152.699,78.118,152.949z"/>
		</g>
		<g>
			<line style="fill:none;stroke:#000000;stroke-width:0.5;" x1="73.371" y1="142.616" x2="63.426" y2="148.859"/>
			<path d="M75.004,141.591c-0.59,0.769-1.239,1.855-1.507,2.743l-0.343-1.582l-1.275-0.996
				C72.794,141.901,74.055,141.788,75.004,141.591z"/>
		</g>
		<g>
			<line style="fill:none;stroke:#000000;stroke-width:0.5;" x1="65.132" y1="134.387" x2="60.056" y2="145.479"/>
			<path d="M65.935,132.628c-0.072,0.967-0.018,2.231,0.246,3.121l-1.155-1.134l-1.613-0.133
				C64.258,134.1,65.25,133.315,65.935,132.628z"/>
		</g>
		<g>
			<line style="fill:none;stroke:#000000;stroke-width:0.5;" x1="54.666" y1="131.254" x2="54.665" y2="144.364"/>
			<path d="M54.665,129.323c0.337,0.909,0.913,2.036,1.521,2.735l-1.521-0.551l-1.521,0.55
				C53.752,131.36,54.328,130.232,54.665,129.323z"/>
		</g>
		<g>
			<line style="fill:none;stroke:#000000;stroke-width:0.5;" x1="93.342" y1="152.638" x2="84.237" y2="154.695"/>
			<path d="M95.224,152.209c-0.812,0.529-1.785,1.339-2.333,2.087l0.202-1.606l-0.872-1.363
				C93.037,151.768,94.263,152.08,95.224,152.209z"/>
		</g>
		<g>
			<line style="fill:none;stroke:#000000;stroke-width:0.5;" x1="90.455" y1="138.956" x2="83.008" y2="145.035"/>
			<path d="M91.952,137.732c-0.491,0.836-1,1.995-1.157,2.909l-0.536-1.527l-1.389-0.831
				C89.798,138.313,91.035,138.046,91.952,137.732z"/>
		</g>
		<g>
			<line style="fill:none;stroke:#000000;stroke-width:0.5;" x1="83.582" y1="127.581" x2="78.031" y2="135.883"/>
			<path d="M84.658,125.975c-0.225,0.943-0.374,2.2-0.255,3.12l-0.959-1.304l-1.571-0.388
				C82.768,127.16,83.873,126.543,84.658,125.975z"/>
		</g>
		<g>
			<line style="fill:none;stroke:#000000;stroke-width:0.5;" x1="73.453" y1="118.541" x2="70.003" y2="129.686"/>
			<path d="M74.026,116.696c0.053,0.968,0.27,2.215,0.645,3.062l-1.291-0.976l-1.616,0.076
				C72.553,118.371,73.436,117.465,74.026,116.696z"/>
		</g>
		<g>
			<line style="fill:none;stroke:#000000;stroke-width:0.5;" x1="60.984" y1="113.538" x2="60.199" y2="126.582"/>
			<path d="M61.1,111.608c0.282,0.928,0.789,2.088,1.354,2.822l-1.486-0.641l-1.552,0.458
				C60.067,113.586,60.709,112.495,61.1,111.608z"/>
		</g>
		<g>
			<line style="fill:none;stroke:#000000;stroke-width:0.5;" x1="107.487" y1="152.952" x2="102.625" y2="154.381"/>
			<path d="M109.338,152.406c-0.777,0.58-1.696,1.45-2.195,2.231l0.099-1.615l-0.957-1.305
				C107.127,152.104,108.371,152.338,109.338,152.406z"/>
		</g>
		<g>
			<line style="fill:none;stroke:#000000;stroke-width:0.5;" x1="105.598" y1="139.318" x2="101.081" y2="141.932"/>
			<path d="M107.271,138.351c-0.618,0.747-1.306,1.81-1.605,2.687l-0.286-1.593l-1.238-1.042
				C105.052,138.581,106.316,138.515,107.271,138.351z"/>
		</g>
		<g>
			<line style="fill:none;stroke:#000000;stroke-width:0.5;" x1="99.816" y1="126.221" x2="96.795" y2="130.723"/>
			<path d="M100.891,124.619c-0.227,0.943-0.377,2.2-0.26,3.119l-0.957-1.305l-1.57-0.391
				C98.998,125.802,100.104,125.186,100.891,124.619z"/>
		</g>
		<g>
			<line style="fill:none;stroke:#000000;stroke-width:0.5;" x1="91.435" y1="115.08" x2="89.161" y2="120.991"/>
			<path d="M92.128,113.275c-0.012,0.969,0.121,2.228,0.438,3.099l-1.223-1.06l-1.618-0.033
				C90.545,114.848,91.487,114.002,92.128,113.275z"/>
		</g>
		<g>
			<line style="fill:none;stroke:#000000;stroke-width:0.5;" x1="80.372" y1="106.262" x2="79.354" y2="113.794"/>
			<path d="M80.628,104.346c0.212,0.946,0.632,2.14,1.142,2.915l-1.434-0.75l-1.582,0.341
				C79.452,106.242,80.173,105.202,80.628,104.346z"/>
		</g>
		<g>
			<line style="fill:none;stroke:#000000;stroke-width:0.5;" x1="67.742" y1="98.76" x2="67.679" y2="107.626"/>
			<path d="M67.756,96.829c0.331,0.911,0.898,2.043,1.502,2.746l-1.518-0.562l-1.525,0.54C66.83,98.86,67.413,97.736,67.756,96.829z
				"/>
		</g>
		<g>
			<line style="fill:none;stroke:#000000;stroke-width:0.5;" x1="54.669" y1="98.209" x2="54.668" y2="108.342"/>
			<path d="M54.669,96.278c0.337,0.909,0.913,2.036,1.521,2.735l-1.521-0.551l-1.522,0.55
				C53.757,98.314,54.332,97.186,54.669,96.278z"/>
		</g>
		<g>
			<line style="fill:none;stroke:#000000;stroke-width:0.5;" x1="54.652" y1="174.479" x2="54.652" y2="164.732"/>
			<path d="M54.652,176.409c-0.337-0.909-0.912-2.036-1.521-2.735l1.522,0.551l1.521-0.55
				C55.565,174.373,54.99,175.5,54.652,176.409z"/>
		</g>
		<g>
			<line style="fill:none;stroke:#000000;stroke-width:0.5;" x1="65.764" y1="171.862" x2="59.398" y2="163.1"/>
			<path d="M66.898,173.425c-0.807-0.537-1.935-1.111-2.839-1.318l1.555-0.449l0.907-1.339
				C66.439,171.241,66.637,172.491,66.898,173.425z"/>
		</g>
		<g>
			<line style="fill:none;stroke:#000000;stroke-width:0.5;" x1="73.297" y1="164.216" x2="63.474" y2="159.138"/>
			<path d="M75.015,165.102c-0.962-0.118-2.228-0.125-3.128,0.096l1.188-1.099l0.209-1.604
				C73.625,163.356,74.362,164.385,75.015,165.102z"/>
		</g>
		<g>
			<line style="fill:none;stroke:#000000;stroke-width:0.5;" x1="61.363" y1="191.813" x2="59.791" y2="182.897"/>
			<path d="M61.698,193.714c-0.49-0.836-1.252-1.847-1.973-2.43l1.594,0.278l1.403-0.806
				C62.244,191.55,61.873,192.76,61.698,193.714z"/>
		</g>
		<g>
			<line style="fill:none;stroke:#000000;stroke-width:0.5;" x1="74.047" y1="187.344" x2="69.381" y2="179.26"/>
			<path d="M75.013,189.019c-0.746-0.619-1.808-1.308-2.685-1.608l1.593-0.284l1.043-1.237
				C74.786,186.799,74.851,188.063,75.013,189.019z"/>
		</g>
		<g>
			<line style="fill:none;stroke:#000000;stroke-width:0.5;" x1="84.588" y1="178.401" x2="76.998" y2="172.969"/>
			<path d="M86.16,179.526c-0.935-0.254-2.187-0.443-3.11-0.354l1.333-0.917l0.438-1.558
				C85.035,177.598,85.617,178.723,86.16,179.526z"/>
		</g>
		<g>
			<line style="fill:none;stroke:#000000;stroke-width:0.5;" x1="91.341" y1="166.07" x2="82.098" y2="164.774"/>
			<path d="M93.255,166.339c-0.947,0.208-2.143,0.621-2.92,1.127l0.756-1.43l-0.333-1.583
				C91.366,165.152,92.402,165.879,93.255,166.339z"/>
		</g>
		<g>
			<line style="fill:none;stroke:#000000;stroke-width:0.5;" x1="54.648" y1="206.418" x2="54.649" y2="201.859"/>
			<path d="M54.648,208.349c-0.337-0.909-0.912-2.036-1.521-2.735l1.521,0.55l1.521-0.55
				C55.561,206.313,54.985,207.441,54.648,208.349z"/>
		</g>
		<g>
			<line style="fill:none;stroke:#000000;stroke-width:0.5;" x1="68.313" y1="204.747" x2="67.067" y2="200.098"/>
			<path d="M68.816,206.611c-0.561-0.791-1.409-1.73-2.178-2.248l1.612,0.138l1.327-0.926
				C69.171,204.408,68.907,205.646,68.816,206.611z"/>
		</g>
		<g>
			<line style="fill:none;stroke:#000000;stroke-width:0.5;" x1="81.078" y1="199.529" x2="78.608" y2="195.251"/>
			<path d="M82.047,201.201c-0.747-0.619-1.809-1.307-2.686-1.608l1.593-0.284l1.042-1.237
				C81.819,198.982,81.885,200.246,82.047,201.201z"/>
		</g>
		<g>
			<line style="fill:none;stroke:#000000;stroke-width:0.5;" x1="92.118" y1="191.127" x2="88.442" y2="187.64"/>
			<path d="M93.521,192.459c-0.892-0.381-2.105-0.74-3.032-0.779l1.447-0.725l0.648-1.482
				C92.671,190.395,93.093,191.589,93.521,192.459z"/>
		</g>
		<g>
			<line style="fill:none;stroke:#000000;stroke-width:0.5;" x1="100.64" y1="179.891" x2="95.938" y2="178.007"/>
			<path d="M102.432,180.612c-0.969-0.025-2.229,0.089-3.104,0.395l1.077-1.208l0.055-1.617
				C100.881,179.008,101.714,179.961,102.432,180.612z"/>
		</g>
		<g>
			<line style="fill:none;stroke:#000000;stroke-width:0.5;" x1="105.832" y1="167.161" x2="100.817" y2="166.433"/>
			<path d="M107.744,167.441c-0.948,0.203-2.146,0.611-2.925,1.113l0.763-1.427l-0.326-1.585
				C105.859,166.246,106.893,166.977,107.744,167.441z"/>
		</g>
		<g>
			<line style="fill:none;stroke:#000000;stroke-width:0.5;" x1="33.146" y1="153.132" x2="44.495" y2="154.202"/>
			<path d="M31.221,152.949c0.937-0.25,2.113-0.717,2.866-1.258l-0.691,1.463l0.405,1.566
				C33.162,154.049,32.094,153.37,31.221,152.949z"/>
		</g>
		<g>
			<line style="fill:none;stroke:#000000;stroke-width:0.5;" x1="35.972" y1="142.616" x2="45.917" y2="148.859"/>
			<path d="M34.336,141.587c0.949,0.197,2.209,0.31,3.125,0.165l-1.275,0.997l-0.343,1.581
				C35.575,143.443,34.926,142.356,34.336,141.587z"/>
		</g>
		<g>
			<line style="fill:none;stroke:#000000;stroke-width:0.5;" x1="44.211" y1="134.387" x2="49.287" y2="145.479"/>
			<path d="M43.405,132.633c0.685,0.686,1.677,1.472,2.521,1.854l-1.612,0.133l-1.155,1.133
				C43.423,134.864,43.477,133.599,43.405,132.633z"/>
		</g>
		<g>
			<line style="fill:none;stroke:#000000;stroke-width:0.5;" x1="16.001" y1="152.638" x2="25.105" y2="154.695"/>
			<path d="M14.114,152.214c0.961-0.129,2.187-0.441,3.003-0.882l-0.872,1.363l0.202,1.605
				C15.899,153.552,14.926,152.743,14.114,152.214z"/>
		</g>
		<g>
			<line style="fill:none;stroke:#000000;stroke-width:0.5;" x1="18.888" y1="138.956" x2="26.335" y2="145.035"/>
			<path d="M17.391,137.737c0.917,0.313,2.155,0.581,3.081,0.551l-1.389,0.831l-0.536,1.527
				C18.391,139.731,17.881,138.572,17.391,137.737z"/>
		</g>
		<g>
			<line style="fill:none;stroke:#000000;stroke-width:0.5;" x1="25.761" y1="127.581" x2="31.312" y2="135.883"/>
			<path d="M24.688,125.978c0.785,0.568,1.891,1.185,2.785,1.428l-1.571,0.388l-0.958,1.303
				C25.062,128.178,24.914,126.921,24.688,125.978z"/>
		</g>
		<g>
			<line style="fill:none;stroke:#000000;stroke-width:0.5;" x1="35.891" y1="118.541" x2="39.339" y2="129.686"/>
			<path d="M35.321,116.698c0.591,0.769,1.474,1.676,2.262,2.163l-1.616-0.076l-1.291,0.976
				C35.052,118.913,35.268,117.666,35.321,116.698z"/>
		</g>
		<g>
			<line style="fill:none;stroke:#000000;stroke-width:0.5;" x1="48.359" y1="113.538" x2="49.144" y2="126.582"/>
			<path d="M48.241,111.612c0.391,0.887,1.033,1.978,1.683,2.639l-1.552-0.458l-1.486,0.641
				C47.452,113.699,47.958,112.54,48.241,111.612z"/>
		</g>
		<g>
			<line style="fill:none;stroke:#000000;stroke-width:0.5;" x1="1.856" y1="152.952" x2="6.717" y2="154.381"/>
			<path d="M0,152.408c0.967-0.067,2.211-0.301,3.053-0.689l-0.957,1.305l0.099,1.615C1.697,153.858,0.777,152.988,0,152.408z"/>
		</g>
		<g>
			<line style="fill:none;stroke:#000000;stroke-width:0.5;" x1="3.745" y1="139.318" x2="8.262" y2="141.932"/>
			<path d="M2.075,138.352c0.955,0.164,2.219,0.23,3.129,0.053l-1.239,1.042l-0.285,1.593
				C3.381,140.162,2.693,139.099,2.075,138.352z"/>
		</g>
		<g>
			<line style="fill:none;stroke:#000000;stroke-width:0.5;" x1="9.527" y1="126.221" x2="12.548" y2="130.723"/>
			<path d="M8.451,124.615c0.786,0.567,1.892,1.183,2.788,1.423l-1.57,0.391l-0.957,1.305
				C8.828,126.815,8.678,125.557,8.451,124.615z"/>
		</g>
		<g>
			<line style="fill:none;stroke:#000000;stroke-width:0.5;" x1="17.908" y1="115.08" x2="20.182" y2="120.991"/>
			<path d="M17.212,113.28c0.641,0.727,1.583,1.573,2.402,2.006l-1.618,0.033l-1.222,1.06
				C17.092,115.508,17.224,114.249,17.212,113.28z"/>
		</g>
		<g>
			<line style="fill:none;stroke:#000000;stroke-width:0.5;" x1="28.971" y1="106.262" x2="29.99" y2="113.794"/>
			<path d="M28.709,104.348c0.456,0.855,1.177,1.896,1.875,2.506l-1.582-0.341l-1.434,0.749
				C28.078,106.488,28.498,105.294,28.709,104.348z"/>
		</g>
		<g>
			<line style="fill:none;stroke:#000000;stroke-width:0.5;" x1="43.579" y1="171.862" x2="49.945" y2="163.1"/>
			<path d="M42.444,173.423c0.261-0.933,0.458-2.184,0.376-3.107l0.908,1.339l1.554,0.449
				C44.379,172.312,43.25,172.886,42.444,173.423z"/>
		</g>
		<g>
			<line style="fill:none;stroke:#000000;stroke-width:0.5;" x1="36.046" y1="164.216" x2="45.869" y2="159.138"/>
			<path d="M34.33,165.105c0.652-0.717,1.39-1.746,1.731-2.607l0.21,1.604l1.188,1.099C36.558,164.98,35.292,164.987,34.33,165.105z
				"/>
		</g>
		<g>
			<line style="fill:none;stroke:#000000;stroke-width:0.5;" x1="47.98" y1="191.813" x2="49.552" y2="182.897"/>
			<path d="M47.645,193.715c-0.174-0.954-0.545-2.164-1.024-2.958l1.403,0.806l1.594-0.278
				C48.897,191.868,48.135,192.879,47.645,193.715z"/>
		</g>
		<g>
			<line style="fill:none;stroke:#000000;stroke-width:0.5;" x1="35.296" y1="187.344" x2="39.962" y2="179.26"/>
			<path d="M34.333,189.015c0.163-0.956,0.228-2.22,0.05-3.129l1.042,1.237l1.593,0.284
				C36.142,187.708,35.079,188.397,34.333,189.015z"/>
		</g>
		<g>
			<line style="fill:none;stroke:#000000;stroke-width:0.5;" x1="24.755" y1="178.401" x2="32.345" y2="172.969"/>
			<path d="M23.187,179.525c0.543-0.803,1.125-1.927,1.338-2.829l0.438,1.558l1.333,0.917
				C25.374,179.082,24.122,179.27,23.187,179.525z"/>
		</g>
		<g>
			<line style="fill:none;stroke:#000000;stroke-width:0.5;" x1="18.002" y1="166.07" x2="27.245" y2="164.774"/>
			<path d="M16.092,166.339c0.853-0.46,1.89-1.187,2.497-1.887l-0.334,1.583l0.756,1.43
				C18.235,166.96,17.038,166.546,16.092,166.339z"/>
		</g>
		<g>
			<line style="fill:none;stroke:#000000;stroke-width:0.5;" x1="41.03" y1="204.747" x2="42.276" y2="200.098"/>
			<path d="M40.532,206.616c-0.09-0.965-0.354-2.203-0.762-3.036l1.328,0.925l1.612-0.138
				C41.94,204.885,41.093,205.826,40.532,206.616z"/>
		</g>
		<g>
			<line style="fill:none;stroke:#000000;stroke-width:0.5;" x1="28.265" y1="199.529" x2="30.734" y2="195.251"/>
			<path d="M27.302,201.205c0.162-0.956,0.228-2.22,0.049-3.13l1.042,1.237l1.593,0.284
				C29.11,199.898,28.048,200.587,27.302,201.205z"/>
		</g>
		<g>
			<line style="fill:none;stroke:#000000;stroke-width:0.5;" x1="17.225" y1="191.127" x2="20.901" y2="187.64"/>
			<path d="M15.827,192.456c0.427-0.87,0.849-2.063,0.937-2.986l0.648,1.482l1.447,0.725
				C17.933,191.717,16.719,192.075,15.827,192.456z"/>
		</g>
		<g>
			<line style="fill:none;stroke:#000000;stroke-width:0.5;" x1="8.703" y1="179.891" x2="13.406" y2="178.007"/>
			<path d="M6.911,180.608c0.718-0.651,1.551-1.604,1.972-2.43l0.055,1.617l1.077,1.208C9.141,180.697,7.88,180.582,6.911,180.608z"
				/>
		</g>
		<g>
			<line style="fill:none;stroke:#000000;stroke-width:0.5;" x1="3.512" y1="167.161" x2="8.526" y2="166.433"/>
			<path d="M1.604,167.437c0.851-0.464,1.884-1.196,2.488-1.898l-0.326,1.584l0.763,1.427C3.75,168.047,2.551,167.64,1.604,167.437z
				"/>
		</g>
		<g>
			<line style="fill:none;stroke:#000000;stroke-width:0.5;" x1="32.383" y1="53.287" x2="43.732" y2="52.217"/>
			<path d="M45.653,52.034c-0.873,0.421-1.941,1.1-2.58,1.772l0.405-1.566l-0.691-1.463C43.54,51.317,44.717,51.784,45.653,52.034z"
				/>
		</g>
		<g>
			<line style="fill:none;stroke:#000000;stroke-width:0.5;" x1="35.209" y1="63.802" x2="45.155" y2="57.56"/>
			<path d="M46.788,56.534c-0.591,0.769-1.24,1.855-1.508,2.743l-0.343-1.582l-1.275-0.996
				C44.578,56.844,45.839,56.732,46.788,56.534z"/>
		</g>
		<g>
			<line style="fill:none;stroke:#000000;stroke-width:0.5;" x1="43.449" y1="72.031" x2="48.524" y2="60.939"/>
			<path d="M49.328,59.18c-0.072,0.966-0.018,2.231,0.245,3.12l-1.154-1.134l-1.613-0.133C47.65,60.652,48.643,59.866,49.328,59.18z
				"/>
		</g>
		<g>
			<line style="fill:none;stroke:#000000;stroke-width:0.5;" x1="53.915" y1="75.165" x2="53.916" y2="62.055"/>
			<path d="M53.915,60.125c0.337,0.909,0.913,2.036,1.521,2.735l-1.521-0.551l-1.521,0.55
				C53.002,62.161,53.578,61.033,53.915,60.125z"/>
		</g>
		<g>
			<line style="fill:none;stroke:#000000;stroke-width:0.5;" x1="15.239" y1="53.78" x2="24.343" y2="51.723"/>
			<path d="M26.225,51.294c-0.812,0.529-1.785,1.339-2.333,2.087l0.202-1.605l-0.873-1.363
				C24.038,50.853,25.264,51.165,26.225,51.294z"/>
		</g>
		<g>
			<line style="fill:none;stroke:#000000;stroke-width:0.5;" x1="18.125" y1="67.463" x2="25.572" y2="61.383"/>
			<path d="M27.069,60.16c-0.491,0.836-1,1.995-1.156,2.908l-0.536-1.527l-1.388-0.831C24.915,60.74,26.152,60.473,27.069,60.16z"/>
		</g>
		<g>
			<line style="fill:none;stroke:#000000;stroke-width:0.5;" x1="24.999" y1="78.837" x2="30.55" y2="70.536"/>
			<path d="M31.626,68.929c-0.225,0.943-0.374,2.2-0.256,3.12l-0.958-1.304l-1.571-0.388C29.735,70.115,30.84,69.497,31.626,68.929z
				"/>
		</g>
		<g>
			<line style="fill:none;stroke:#000000;stroke-width:0.5;" x1="35.128" y1="87.877" x2="38.577" y2="76.732"/>
			<path d="M39.151,74.886c0.053,0.968,0.27,2.215,0.645,3.063l-1.291-0.976l-1.616,0.076C37.677,76.562,38.56,75.655,39.151,74.886
				z"/>
		</g>
		<g>
			<line style="fill:none;stroke:#000000;stroke-width:0.5;" x1="47.596" y1="92.88" x2="48.381" y2="79.837"/>
			<path d="M48.497,77.906c0.282,0.928,0.789,2.088,1.354,2.822l-1.486-0.641l-1.552,0.458
				C47.464,79.884,48.106,78.793,48.497,77.906z"/>
		</g>
		<g>
			<line style="fill:none;stroke:#000000;stroke-width:0.5;" x1="1.094" y1="53.466" x2="5.955" y2="52.037"/>
			<path d="M7.806,51.49c-0.777,0.58-1.697,1.45-2.195,2.231l0.099-1.615l-0.957-1.305C5.595,51.189,6.839,51.423,7.806,51.49z"/>
		</g>
		<g>
			<line style="fill:none;stroke:#000000;stroke-width:0.5;" x1="2.983" y1="67.1" x2="7.5" y2="64.487"/>
			<path d="M9.173,63.52c-0.618,0.747-1.306,1.81-1.605,2.687l-0.286-1.593l-1.238-1.041C6.954,63.75,8.218,63.683,9.173,63.52z"/>
		</g>
		<g>
			<line style="fill:none;stroke:#000000;stroke-width:0.5;" x1="8.764" y1="80.197" x2="11.785" y2="75.695"/>
			<path d="M12.86,74.093c-0.226,0.943-0.377,2.2-0.26,3.119l-0.957-1.305l-1.57-0.391C10.967,75.276,12.073,74.66,12.86,74.093z"/>
		</g>
		<g>
			<line style="fill:none;stroke:#000000;stroke-width:0.5;" x1="17.146" y1="91.338" x2="19.419" y2="85.427"/>
			<path d="M20.112,83.621c-0.011,0.969,0.121,2.228,0.438,3.099l-1.223-1.06l-1.618-0.033
				C18.529,85.194,19.471,84.348,20.112,83.621z"/>
		</g>
		<g>
			<line style="fill:none;stroke:#000000;stroke-width:0.5;" x1="28.428" y1="94.514" x2="27.409" y2="102.045"/>
			<path d="M28.685,92.598c0.212,0.946,0.631,2.14,1.142,2.915l-1.435-0.75l-1.582,0.342C27.507,94.493,28.229,93.453,28.685,92.598
				z"/>
		</g>
		<g>
			<line style="fill:none;stroke:#000000;stroke-width:0.5;" x1="53.928" y1="31.94" x2="53.928" y2="41.686"/>
			<path d="M53.928,43.616c-0.337-0.909-0.913-2.036-1.521-2.735l1.521,0.551l1.521-0.55C54.841,41.58,54.265,42.708,53.928,43.616z
				"/>
		</g>
		<g>
			<line style="fill:none;stroke:#000000;stroke-width:0.5;" x1="42.816" y1="34.556" x2="49.182" y2="43.318"/>
			<path d="M50.316,44.881c-0.807-0.537-1.936-1.111-2.839-1.318l1.555-0.449l0.907-1.34C49.857,42.697,50.055,43.948,50.316,44.881
				z"/>
		</g>
		<g>
			<line style="fill:none;stroke:#000000;stroke-width:0.5;" x1="35.283" y1="42.202" x2="45.106" y2="47.28"/>
			<path d="M46.823,48.166c-0.962-0.118-2.228-0.125-3.128,0.096l1.188-1.099l0.21-1.604C45.434,46.42,46.171,47.449,46.823,48.166z
				"/>
		</g>
		<g>
			<line style="fill:none;stroke:#000000;stroke-width:0.5;" x1="47.218" y1="14.606" x2="48.789" y2="23.522"/>
			<path d="M49.125,25.423c-0.49-0.836-1.252-1.847-1.974-2.429l1.594,0.278l1.403-0.806C49.67,23.26,49.299,24.47,49.125,25.423z"
				/>
		</g>
		<g>
			<line style="fill:none;stroke:#000000;stroke-width:0.5;" x1="34.533" y1="19.075" x2="39.2" y2="27.158"/>
			<path d="M40.166,28.833c-0.746-0.618-1.809-1.307-2.685-1.608l1.593-0.284l1.042-1.237
				C39.938,26.614,40.004,27.878,40.166,28.833z"/>
		</g>
		<g>
			<line style="fill:none;stroke:#000000;stroke-width:0.5;" x1="23.993" y1="28.018" x2="31.583" y2="33.449"/>
			<path d="M33.154,34.575c-0.936-0.255-2.187-0.443-3.11-0.354l1.333-0.917l0.438-1.558C32.029,32.648,32.611,33.772,33.154,34.575
				z"/>
		</g>
		<g>
			<line style="fill:none;stroke:#000000;stroke-width:0.5;" x1="17.24" y1="40.349" x2="26.482" y2="41.645"/>
			<path d="M28.397,41.914c-0.947,0.208-2.143,0.621-2.92,1.127l0.756-1.431l-0.334-1.583
				C26.507,40.727,27.544,41.454,28.397,41.914z"/>
		</g>
		<g>
			<line style="fill:none;stroke:#000000;stroke-width:0.5;" x1="53.932" y1="0" x2="53.932" y2="4.56"/>
			<path d="M53.932,6.491c-0.337-0.909-0.913-2.036-1.521-2.735l1.521,0.551l1.521-0.551C54.844,4.455,54.269,5.583,53.932,6.491z"
				/>
		</g>
		<g>
			<line style="fill:none;stroke:#000000;stroke-width:0.5;" x1="40.268" y1="1.671" x2="41.513" y2="6.321"/>
			<path d="M42.016,8.185c-0.561-0.791-1.408-1.731-2.177-2.249l1.612,0.138l1.327-0.925C42.371,5.982,42.107,7.22,42.016,8.185z"/>
		</g>
		<g>
			<line style="fill:none;stroke:#000000;stroke-width:0.5;" x1="27.502" y1="6.889" x2="29.972" y2="11.168"/>
			<path d="M30.941,12.84c-0.746-0.619-1.809-1.308-2.685-1.608l1.593-0.284l1.043-1.237C30.713,10.62,30.779,11.884,30.941,12.84z"
				/>
		</g>
		<g>
			<line style="fill:none;stroke:#000000;stroke-width:0.5;" x1="16.463" y1="15.291" x2="20.138" y2="18.779"/>
			<path d="M21.541,20.11c-0.892-0.381-2.105-0.739-3.031-0.779l1.447-0.725l0.648-1.483C20.692,18.047,21.114,19.24,21.541,20.11z"
				/>
		</g>
		<g>
			<line style="fill:none;stroke:#000000;stroke-width:0.5;" x1="7.94" y1="26.527" x2="12.643" y2="28.412"/>
			<path d="M14.435,29.133c-0.969-0.025-2.23,0.089-3.105,0.395l1.077-1.208l0.055-1.617C12.884,27.528,13.717,28.482,14.435,29.133
				z"/>
		</g>
		<g>
			<line style="fill:none;stroke:#000000;stroke-width:0.5;" x1="2.749" y1="39.258" x2="7.763" y2="39.985"/>
			<path d="M9.675,40.265c-0.948,0.203-2.146,0.611-2.925,1.113l0.763-1.427l-0.326-1.585C7.791,39.07,8.824,39.802,9.675,40.265z"
				/>
		</g>
		<g>
			<line style="fill:none;stroke:#000000;stroke-width:0.5;" x1="75.435" y1="53.287" x2="64.085" y2="52.217"/>
			<path d="M62.161,52.034c0.936-0.25,2.113-0.717,2.866-1.258l-0.691,1.463l0.405,1.566C64.102,53.134,63.033,52.455,62.161,52.034
				z"/>
		</g>
		<g>
			<line style="fill:none;stroke:#000000;stroke-width:0.5;" x1="72.608" y1="63.802" x2="62.663" y2="57.56"/>
			<path d="M61.026,56.53c0.949,0.198,2.21,0.31,3.125,0.166l-1.275,0.996l-0.343,1.581C62.266,58.385,61.617,57.299,61.026,56.53z"
				/>
		</g>
		<g>
			<line style="fill:none;stroke:#000000;stroke-width:0.5;" x1="64.369" y1="72.031" x2="59.293" y2="60.939"/>
			<path d="M58.487,59.184c0.685,0.686,1.677,1.472,2.521,1.854l-1.612,0.133l-1.155,1.133
				C58.505,61.416,58.559,60.151,58.487,59.184z"/>
		</g>
		<g>
			<line style="fill:none;stroke:#000000;stroke-width:0.5;" x1="92.579" y1="53.78" x2="83.475" y2="51.723"/>
			<path d="M81.587,51.299c0.961-0.129,2.188-0.441,3.003-0.882l-0.872,1.363l0.201,1.605
				C83.372,52.638,82.399,51.828,81.587,51.299z"/>
		</g>
		<g>
			<line style="fill:none;stroke:#000000;stroke-width:0.5;" x1="89.692" y1="67.463" x2="82.246" y2="61.383"/>
			<path d="M80.748,60.164c0.917,0.313,2.155,0.581,3.081,0.551l-1.389,0.831l-0.536,1.527C81.749,62.158,81.239,61,80.748,60.164z"
				/>
		</g>
		<g>
			<line style="fill:none;stroke:#000000;stroke-width:0.5;" x1="82.819" y1="78.837" x2="77.268" y2="70.536"/>
			<path d="M76.195,68.933c0.785,0.568,1.891,1.185,2.785,1.427l-1.571,0.389l-0.958,1.303
				C76.569,71.133,76.42,69.875,76.195,68.933z"/>
		</g>
		<g>
			<line style="fill:none;stroke:#000000;stroke-width:0.5;" x1="72.689" y1="87.877" x2="69.241" y2="76.732"/>
			<path d="M68.671,74.889c0.591,0.768,1.474,1.675,2.262,2.163l-1.616-0.076l-1.291,0.976
				C68.402,77.104,68.618,75.857,68.671,74.889z"/>
		</g>
		<g>
			<line style="fill:none;stroke:#000000;stroke-width:0.5;" x1="60.222" y1="92.88" x2="59.436" y2="79.837"/>
			<path d="M59.318,77.91c0.391,0.887,1.034,1.978,1.684,2.639l-1.552-0.458l-1.485,0.641C58.53,79.998,59.036,78.838,59.318,77.91z
				"/>
		</g>
		<g>
			<line style="fill:none;stroke:#000000;stroke-width:0.5;" x1="106.724" y1="53.466" x2="101.863" y2="52.037"/>
			<path d="M100.007,51.493c0.967-0.067,2.211-0.301,3.053-0.688l-0.957,1.305l0.099,1.615
				C101.703,52.943,100.784,52.073,100.007,51.493z"/>
		</g>
		<g>
			<line style="fill:none;stroke:#000000;stroke-width:0.5;" x1="104.835" y1="67.1" x2="100.318" y2="64.487"/>
			<path d="M98.648,63.521c0.955,0.163,2.22,0.229,3.129,0.053l-1.238,1.042l-0.286,1.592C99.954,65.33,99.266,64.267,98.648,63.521
				z"/>
		</g>
		<g>
			<line style="fill:none;stroke:#000000;stroke-width:0.5;" x1="99.053" y1="80.197" x2="96.033" y2="75.695"/>
			<path d="M94.957,74.089c0.786,0.567,1.892,1.183,2.787,1.423l-1.57,0.391l-0.957,1.305
				C95.333,76.288,95.183,75.031,94.957,74.089z"/>
		</g>
		<g>
			<line style="fill:none;stroke:#000000;stroke-width:0.5;" x1="90.672" y1="91.338" x2="88.398" y2="85.427"/>
			<path d="M87.703,83.626c0.641,0.727,1.583,1.573,2.402,2.006l-1.618,0.033l-1.222,1.06
				C87.582,85.854,87.714,84.595,87.703,83.626z"/>
		</g>
		<g>
			<line style="fill:none;stroke:#000000;stroke-width:0.5;" x1="79.399" y1="94.512" x2="80.417" y2="102.044"/>
			<path d="M79.138,92.598c0.456,0.855,1.177,1.896,1.875,2.507l-1.582-0.342l-1.434,0.75
				C78.506,94.738,78.925,93.544,79.138,92.598z"/>
		</g>
		<g>
			<line style="fill:none;stroke:#000000;stroke-width:0.5;" x1="65.001" y1="34.556" x2="58.636" y2="43.318"/>
			<path d="M57.5,44.879c0.261-0.934,0.458-2.184,0.376-3.107l0.908,1.34l1.554,0.449C59.436,43.768,58.307,44.342,57.5,44.879z"/>
		</g>
		<g>
			<line style="fill:none;stroke:#000000;stroke-width:0.5;" x1="72.535" y1="42.202" x2="62.711" y2="47.28"/>
			<path d="M60.996,48.169c0.652-0.717,1.39-1.746,1.73-2.607l0.21,1.604l1.188,1.099C63.224,48.044,61.958,48.051,60.996,48.169z"
				/>
		</g>
		<g>
			<line style="fill:none;stroke:#000000;stroke-width:0.5;" x1="60.6" y1="14.606" x2="59.028" y2="23.522"/>
			<path d="M58.693,25.425c-0.174-0.954-0.545-2.164-1.024-2.958l1.403,0.806l1.594-0.278
				C59.945,23.577,59.183,24.588,58.693,25.425z"/>
		</g>
		<g>
			<line style="fill:none;stroke:#000000;stroke-width:0.5;" x1="73.284" y1="19.075" x2="68.618" y2="27.158"/>
			<path d="M67.655,28.83c0.163-0.956,0.228-2.22,0.049-3.129l1.043,1.237l1.593,0.284C69.463,27.523,68.401,28.211,67.655,28.83z"
				/>
		</g>
		<g>
			<line style="fill:none;stroke:#000000;stroke-width:0.5;" x1="83.825" y1="28.018" x2="76.235" y2="33.449"/>
			<path d="M74.667,34.574c0.542-0.803,1.125-1.927,1.338-2.829l0.438,1.558l1.333,0.917C76.854,34.131,75.602,34.319,74.667,34.574
				z"/>
		</g>
		<g>
			<line style="fill:none;stroke:#000000;stroke-width:0.5;" x1="90.578" y1="40.349" x2="81.335" y2="41.645"/>
			<path d="M79.424,41.914c0.853-0.46,1.89-1.187,2.498-1.887l-0.334,1.583l0.756,1.43C81.568,42.535,80.371,42.121,79.424,41.914z"
				/>
		</g>
		<g>
			<line style="fill:none;stroke:#000000;stroke-width:0.5;" x1="67.55" y1="1.671" x2="66.305" y2="6.321"/>
			<path d="M65.806,8.19c-0.09-0.965-0.354-2.203-0.762-3.036l1.328,0.926l1.612-0.138C67.215,6.459,66.367,7.399,65.806,8.19z"/>
		</g>
		<g>
			<line style="fill:none;stroke:#000000;stroke-width:0.5;" x1="80.315" y1="6.889" x2="77.846" y2="11.168"/>
			<path d="M76.882,12.844c0.162-0.956,0.228-2.22,0.049-3.13l1.043,1.238l1.593,0.284C78.69,11.536,77.628,12.225,76.882,12.844z"
				/>
		</g>
		<g>
			<line style="fill:none;stroke:#000000;stroke-width:0.5;" x1="91.355" y1="15.291" x2="87.679" y2="18.779"/>
			<path d="M86.281,20.107c0.427-0.87,0.849-2.063,0.937-2.986l0.648,1.483l1.446,0.725C88.387,19.368,87.172,19.726,86.281,20.107z
				"/>
		</g>
		<g>
			<line style="fill:none;stroke:#000000;stroke-width:0.5;" x1="99.877" y1="26.527" x2="95.175" y2="28.412"/>
			<path d="M93.383,29.128c0.718-0.651,1.551-1.604,1.973-2.43l0.055,1.617l1.077,1.208C95.612,29.218,94.352,29.103,93.383,29.128z
				"/>
		</g>
		<g>
			<line style="fill:none;stroke:#000000;stroke-width:0.5;" x1="105.069" y1="39.258" x2="100.055" y2="39.985"/>
			<path d="M98.146,40.261c0.851-0.464,1.884-1.196,2.488-1.899l-0.326,1.585l0.763,1.427
				C100.292,40.871,99.094,40.464,98.146,40.261z"/>
		</g>
		<g>
			<line style="fill:none;stroke:#000000;stroke-width:0.5;" x1="41.49" y1="98.568" x2="41.427" y2="107.434"/>
			<path d="M41.505,96.637c0.331,0.911,0.898,2.043,1.502,2.746l-1.518-0.562l-1.525,0.54
				C40.578,98.667,41.162,97.543,41.505,96.637z"/>
		</g>
		<g>
			<line style="fill:none;stroke:#000000;stroke-width:0.5;" x1="91.109" y1="105.601" x2="91.109" y2="99.201"/>
			<path d="M91.109,97.269c0.337,0.909,0.913,2.037,1.521,2.735l-1.521-0.55l-1.521,0.55C90.196,99.306,90.772,98.178,91.109,97.269
				z"/>
		</g>
		<g>
			<line style="fill:none;stroke:#000000;stroke-width:0.5;" x1="101.909" y1="105.201" x2="101.909" y2="100.401"/>
			<path d="M101.909,98.469c0.337,0.909,0.913,2.036,1.521,2.735l-1.521-0.55l-1.521,0.55
				C100.997,100.506,101.572,99.378,101.909,98.469z"/>
		</g>
		<g>
			<line style="fill:none;stroke:#000000;stroke-width:0.5;" x1="16.309" y1="105.366" x2="16.309" y2="98.967"/>
			<path d="M16.309,97.035c-0.337,0.909-0.913,2.037-1.522,2.735l1.522-0.55l1.521,0.55C17.221,99.072,16.646,97.944,16.309,97.035z
				"/>
		</g>
		<g>
			<line style="fill:none;stroke:#000000;stroke-width:0.5;" x1="5.509" y1="104.967" x2="5.509" y2="100.166"/>
			<path d="M5.509,98.235c-0.337,0.909-0.913,2.036-1.521,2.735l1.521-0.55l1.522,0.55C6.421,100.271,5.846,99.144,5.509,98.235z"/>
		</g>
		<g>
			<line style="fill:none;stroke:#000000;stroke-width:0.5;" x1="101.569" y1="92.362" x2="100.842" y2="87.617"/>
			<path d="M100.549,85.708c0.471,0.847,1.21,1.875,1.918,2.473l-1.587-0.313l-1.42,0.774
				C99.956,87.86,100.353,86.657,100.549,85.708z"/>
		</g>
		<g>
			<line style="fill:none;stroke:#000000;stroke-width:0.5;" x1="6.415" y1="117.878" x2="5.687" y2="113.133"/>
			<path d="M5.394,111.224c0.471,0.847,1.211,1.875,1.919,2.473l-1.588-0.313l-1.42,0.775
				C4.801,113.375,5.198,112.174,5.394,111.224z"/>
		</g>
		<g>
			<line style="fill:none;stroke:#000000;stroke-width:0.5;" x1="100.488" y1="118.654" x2="101.216" y2="113.91"/>
			<path d="M101.509,112.001c-0.471,0.847-1.21,1.875-1.918,2.473l1.587-0.313l1.42,0.774
				C102.102,114.152,101.704,112.95,101.509,112.001z"/>
		</g>
		<g>
			<line style="fill:none;stroke:#000000;stroke-width:0.5;" x1="6.019" y1="92.095" x2="6.747" y2="87.35"/>
			<path d="M7.04,85.442c-0.471,0.847-1.211,1.874-1.919,2.473l1.588-0.313l1.42,0.774C7.633,87.593,7.235,86.39,7.04,85.442z"/>
		</g>
		<g>
			<text transform="matrix(1 0 0 1 51.4688 54.8113)"><tspan x="0" y="0" style="font-family:Liberation Sans; font-size:7.650000;">&#x2013;</tspan></text>
		</g>
		<circle style="fill:none;stroke:#000000;" cx="54.198" cy="52.145" r="4.007"/> 
		<circle style="fill:none;stroke:#000000;" cx="54.469" cy="153.804" r="4.007"/> 
		<g>
			<text transform="matrix(1 0 0 1 51.8022 156.1448)"><tspan x="0" y="0" style="font-family:Liberation Sans; font-size:7.650000;">+</tspan></text>
		</g>
	</g>
</svg>
