<?xml version="1.0" encoding="iso-8859-1"?>
<!-- Generator: Adobe Illustrator 11 Build 196, SVG Export Plug-In . SVG Version: 6.0.0 Build 78)  -->
<!DOCTYPE svg PUBLIC "-//W3C//DTD SVG 1.0//EN"    "http://www.w3.org/TR/2001/REC-SVG-20010904/DTD/svg10.dtd" [
	<!ENTITY ns_flows "http://ns.adobe.com/Flows/1.0/">
	<!ENTITY ns_svg "http://www.w3.org/2000/svg">
	<!ENTITY ns_xlink "http://www.w3.org/1999/xlink">
]>
<svg  
	 width="107.689" height="124.168" viewBox="0 0 107.689 124.168"
	 style="overflow:visible;enable-background:new 0 0 107.689 124.168" xml:space="preserve">
	<g id="Layer_1">
		<circle style="fill:none;stroke:#000000;stroke-width:0.5;" cx="48.52" cy="76.156" r="1.178"/> 
		<g>
			<line style="fill:none;stroke:#000000;stroke-width:0.5;" x1="75.459" y1="76.156" x2="61.209" y2="76.156"/>
			<path d="M58.795,76.156c1.136-0.421,2.545-1.141,3.419-1.902l-0.688,1.902l0.688,1.902C61.34,77.297,59.931,76.578,58.795,76.156
				z"/>
		</g>
		<g>
			<line style="fill:none;stroke:#000000;stroke-width:0.5;" x1="71.218" y1="63.047" x2="60.139" y2="69.443"/>
			<path d="M58.048,70.648c0.773-0.933,1.634-2.261,2.01-3.357l0.355,1.991l1.547,1.303C60.823,70.363,59.243,70.445,58.048,70.648z
				"/>
		</g>
		<g>
			<line style="fill:none;stroke:#000000;stroke-width:0.5;" x1="61.309" y1="53.992" x2="55.538" y2="63.988"/>
			<path d="M54.333,66.081c0.203-1.195,0.285-2.775,0.062-3.912l1.303,1.547l1.991,0.355C56.594,64.447,55.266,65.308,54.333,66.081
				z"/>
		</g>
		<g>
			<line style="fill:none;stroke:#000000;stroke-width:0.5;" x1="48.512" y1="49.904" x2="48.512" y2="62.764"/>
			<path d="M48.512,65.177c-0.421-1.136-1.141-2.545-1.902-3.419l1.902,0.688l1.902-0.688
				C49.653,62.631,48.934,64.041,48.512,65.177z"/>
		</g>
		<g>
			<line style="fill:none;stroke:#000000;stroke-width:0.5;" x1="35.039" y1="52.819" x2="42.163" y2="65.16"/>
			<path d="M43.371,67.254c-0.933-0.773-2.261-1.634-3.356-2.01l1.991-0.355l1.303-1.547C43.086,64.479,43.168,66.06,43.371,67.254z
				"/>
		</g>
		<g>
			<line style="fill:none;stroke:#000000;stroke-width:0.5;" x1="25.175" y1="62.681" x2="37.515" y2="69.807"/>
			<path d="M39.605,71.015c-1.195-0.203-2.775-0.285-3.912-0.062l1.547-1.303l0.355-1.991
				C37.971,68.754,38.832,70.082,39.605,71.015z"/>
		</g>
		<g>
			<line style="fill:none;stroke:#000000;stroke-width:0.5;" x1="96.967" y1="76.77" x2="85.345" y2="75.753"/>
			<path d="M82.94,75.543c1.168-0.321,2.635-0.915,3.572-1.597l-0.851,1.835l0.52,1.955C85.376,76.901,84.035,76.062,82.94,75.543z"
				/>
		</g>
		<g>
			<line style="fill:none;stroke:#000000;stroke-width:0.5;" x1="93.614" y1="60.979" x2="83.736" y2="62.368"/>
			<path d="M81.351,62.703c1.066-0.575,2.362-1.484,3.121-2.359l-0.417,1.979L85,64.11C84.03,63.478,82.534,62.962,81.351,62.703z"
				/>
		</g>
		<g>
			<line style="fill:none;stroke:#000000;stroke-width:0.5;" x1="84.481" y1="48.744" x2="78.08" y2="49.304"/>
			<path d="M75.677,49.512c1.095-0.519,2.436-1.358,3.24-2.193l-0.52,1.955l0.851,1.835C78.312,50.426,76.845,49.833,75.677,49.512z
				"/>
		</g>
		<g>
			<line style="fill:none;stroke:#000000;stroke-width:0.5;" x1="70.808" y1="37.541" x2="68.874" y2="40.89"/>
			<path d="M67.67,42.983c0.203-1.194,0.285-2.774,0.062-3.912l1.303,1.547l1.991,0.355C69.93,41.35,68.603,42.21,67.67,42.983z"/>
		</g>
		<g>
			<line style="fill:none;stroke:#000000;stroke-width:0.5;" x1="54.264" y1="31.359" x2="56.979" y2="37.184"/>
			<path d="M58,39.376c-0.862-0.852-2.109-1.825-3.168-2.295l2.015-0.18l1.433-1.427C57.958,36.587,57.902,38.168,58,39.376z"/>
		</g>
		<g>
			<line style="fill:none;stroke:#000000;stroke-width:0.5;" x1="39.142" y1="29.622" x2="42.877" y2="38.871"/>
			<path d="M43.784,41.108c-0.816-0.896-2.011-1.933-3.044-2.458l2.021-0.074l1.506-1.351C43.888,38.321,43.75,39.897,43.784,41.108
				z"/>
		</g>
		<g>
			<line style="fill:none;stroke:#000000;stroke-width:0.5;" x1="23.856" y1="34.415" x2="30.379" y2="44.087"/>
			<path d="M31.732,46.089c-0.985-0.707-2.369-1.473-3.489-1.771l1.962-0.493l1.192-1.634C31.254,43.34,31.446,44.912,31.732,46.089
				z"/>
		</g>
		<g>
			<line style="fill:none;stroke:#000000;stroke-width:0.5;" x1="11.217" y1="45.173" x2="20.41" y2="52.357"/>
			<path d="M22.312,53.842c-1.154-0.368-2.708-0.668-3.865-0.606l1.713-1.075l0.629-1.922
				C21.009,51.376,21.677,52.811,22.312,53.842z"/>
		</g>
		<g>
			<line style="fill:none;stroke:#000000;stroke-width:0.5;" x1="2.86" y1="59.799" x2="13.956" y2="63.405"/>
			<path d="M16.249,64.154c-1.21,0.049-2.773,0.298-3.839,0.752l1.242-1.596l-0.066-2.021
				C14.181,62.282,15.299,63.402,16.249,64.154z"/>
		</g>
		<g>
			<line style="fill:none;stroke:#000000;stroke-width:0.5;" x1="107.624" y1="45.995" x2="103.036" y2="44.766"/>
			<path d="M100.704,44.137c1.207-0.113,2.754-0.443,3.794-0.952l-1.157,1.659l0.172,2.015
				C102.867,45.897,101.692,44.838,100.704,44.137z"/>
		</g>
		<g>
			<line style="fill:none;stroke:#000000;stroke-width:0.5;" x1="94.714" y1="33.291" x2="93.37" y2="31.947"/>
			<path d="M91.667,30.237c1.101,0.505,2.606,0.993,3.762,1.073l-1.832,0.858L92.739,34C92.66,32.844,92.171,31.338,91.667,30.237z"
				/>
		</g>
		<g>
			<line style="fill:none;stroke:#000000;stroke-width:0.5;" x1="63.901" y1="15.069" x2="65.736" y2="15.561"/>
			<path d="M68.07,16.19c-1.207,0.113-2.754,0.443-3.795,0.952l1.157-1.659l-0.172-2.015C65.906,14.43,67.082,15.49,68.07,16.19z"/>
		</g>
		<g>
			<line style="fill:none;stroke:#000000;stroke-width:0.5;" x1="46.837" y1="11.488" x2="50.196" y2="14.847"/>
			<path d="M51.899,16.555c-1.101-0.505-2.606-0.993-3.762-1.073l1.832-0.858l0.858-1.831
				C50.906,13.948,51.394,15.454,51.899,16.555z"/>
		</g>
		<g>
			<line style="fill:none;stroke:#000000;stroke-width:0.5;" x1="31.396" y1="12.254" x2="33.034" y2="18.372"/>
			<path d="M33.664,20.702c-0.701-0.988-1.761-2.164-2.722-2.811l2.016,0.173l1.659-1.157
				C34.106,17.948,33.776,19.496,33.664,20.702z"/>
		</g>
		<g>
			<line style="fill:none;stroke:#000000;stroke-width:0.5;" x1="15.44" y1="18.861" x2="18.606" y2="24.346"/>
			<path d="M19.818,26.436c-0.933-0.773-2.26-1.634-3.356-2.01l1.991-0.355l1.303-1.546C19.533,23.662,19.615,25.242,19.818,26.436z
				"/>
		</g>
		<g>
			<line style="fill:none;stroke:#000000;stroke-width:0.5;" x1="21.549" y1="76.257" x2="35.799" y2="76.257"/>
			<path d="M38.213,76.257c-1.136,0.421-2.545,1.141-3.419,1.902l0.688-1.902l-0.688-1.902
				C35.668,75.117,37.077,75.836,38.213,76.257z"/>
		</g>
		<g>
			<line style="fill:none;stroke:#000000;stroke-width:0.5;" x1="25.159" y1="89.731" x2="37.5" y2="82.606"/>
			<path d="M39.59,81.402c-0.773,0.933-1.634,2.261-2.01,3.356l-0.355-1.991l-1.547-1.303C36.816,81.687,38.396,81.605,39.59,81.402
				z"/>
		</g>
		<g>
			<line style="fill:none;stroke:#000000;stroke-width:0.5;" x1="34.844" y1="99.903" x2="42.326" y2="86.945"/>
			<path d="M43.53,84.852c-0.203,1.194-0.285,2.775-0.062,3.912l-1.304-1.547l-1.991-0.355
				C41.269,86.486,42.597,85.625,43.53,84.852z"/>
		</g>
		<g>
			<line style="fill:none;stroke:#000000;stroke-width:0.5;" x1="48.496" y1="103.205" x2="48.497" y2="88.955"/>
			<path d="M48.496,86.542c0.421,1.136,1.141,2.545,1.902,3.419l-1.902-0.688l-1.902,0.688
				C47.355,89.088,48.074,87.678,48.496,86.542z"/>
		</g>
		<g>
			<line style="fill:none;stroke:#000000;stroke-width:0.5;" x1="61.969" y1="99.595" x2="54.845" y2="87.254"/>
			<path d="M53.637,85.16c0.933,0.773,2.26,1.634,3.356,2.01l-1.991,0.355l-1.303,1.546C53.922,87.935,53.84,86.354,53.637,85.16z"
				/>
		</g>
		<g>
			<line style="fill:none;stroke:#000000;stroke-width:0.5;" x1="71.833" y1="89.732" x2="59.493" y2="82.607"/>
			<path d="M57.403,81.399c1.194,0.203,2.775,0.285,3.912,0.062l-1.547,1.303l-0.355,1.991
				C59.037,83.66,58.176,82.332,57.403,81.399z"/>
		</g>
		<g>
			<line style="fill:none;stroke:#000000;stroke-width:0.5;" x1="2.931" y1="92.841" x2="13.895" y2="88.851"/>
			<path d="M16.161,88.026c-0.923,0.785-2.002,1.943-2.562,2.957l-0.004-2.023l-1.297-1.552
				C13.379,87.825,14.95,88.019,16.161,88.026z"/>
		</g>
		<g>
			<line style="fill:none;stroke:#000000;stroke-width:0.5;" x1="11.262" y1="107.5" x2="20.378" y2="99.851"/>
			<path d="M22.226,98.303c-0.6,1.053-1.217,2.51-1.396,3.655l-0.696-1.899l-1.75-1.015C19.542,99.065,21.084,98.71,22.226,98.303z"
				/>
		</g>
		<g>
			<line style="fill:none;stroke:#000000;stroke-width:0.5;" x1="24.105" y1="118.502" x2="30.23" y2="107.894"/>
			<path d="M31.433,105.804c-0.203,1.194-0.285,2.775-0.062,3.912l-1.303-1.547l-1.991-0.355
				C29.172,107.438,30.5,106.577,31.433,105.804z"/>
		</g>
		<g>
			<line style="fill:none;stroke:#000000;stroke-width:0.5;" x1="40.055" y1="124.125" x2="42.122" y2="112.406"/>
			<path d="M42.537,110.029c0.218,1.192,0.681,2.705,1.279,3.697l-1.753-1.008l-1.993,0.347
				C40.971,112.338,41.924,111.075,42.537,110.029z"/>
		</g>
		<g>
			<line style="fill:none;stroke:#000000;stroke-width:0.5;" x1="56.915" y1="124.011" x2="54.889" y2="112.521"/>
			<path d="M54.47,110.145c0.612,1.045,1.565,2.309,2.467,3.037l-1.993-0.347l-1.753,1.008
				C53.788,112.849,54.252,111.336,54.47,110.145z"/>
		</g>
		<g>
			<line style="fill:none;stroke:#000000;stroke-width:0.5;" x1="72.633" y1="118.311" x2="66.978" y2="108.106"/>
			<path d="M65.805,105.995c0.919,0.79,2.231,1.673,3.321,2.068l-1.997,0.32l-1.33,1.524
				C66.042,108.774,65.987,107.192,65.805,105.995z"/>
		</g>
		<g>
			<line style="fill:none;stroke:#000000;stroke-width:0.5;" x1="85.482" y1="107.611" x2="76.812" y2="99.804"/>
			<path d="M75.018,98.19c1.126,0.447,2.655,0.855,3.813,0.874l-1.784,0.953l-0.761,1.874C76.146,100.741,75.58,99.263,75.018,98.19
				z"/>
		</g>
		<g>
			<line style="fill:none;stroke:#000000;stroke-width:0.5;" x1="93.966" y1="93.073" x2="83.149" y2="88.702"/>
			<path d="M80.914,87.796c1.211,0.035,2.788-0.104,3.882-0.483l-1.351,1.506l-0.075,2.021
				C82.847,89.807,81.81,88.612,80.914,87.796z"/>
		</g>
		<g>
			<line style="fill:none;stroke:#000000;stroke-width:0.5;" x1="0.004" y1="76.275" x2="11.669" y2="76.073"/>
			<path d="M14.082,76.034c-1.128,0.441-2.525,1.185-3.385,1.961l0.655-1.914l-0.721-1.89
				C11.517,74.938,12.938,75.632,14.082,76.034z"/>
		</g>
		<circle style="fill:none;stroke:#000000;stroke-width:0.5;" cx="91.03" cy="1.919" r="0.884"/> 
		<g>
			<line style="fill:none;stroke:#000000;" x1="79.688" y1="23.527" x2="78.039" y2="21.877"/>
			<line style="fill:none;stroke:#000000;" x1="79.688" y1="21.877" x2="78.039" y2="23.527"/>
		</g>
		<g>
			<line style="fill:none;stroke:#000000;stroke-width:0.5;" x1="78.514" y1="1.901" x2="82.232" y2="1.901"/>
			<path d="M84.648,1.902c-1.136,0.422-2.545,1.141-3.419,1.902l0.688-1.902L81.229,0C82.103,0.761,83.512,1.48,84.648,1.902z"/>
		</g>
		<g>
			<line style="fill:none;stroke:#000000;stroke-width:0.5;" x1="85.088" y1="12.669" x2="86.947" y2="9.449"/>
			<path d="M88.156,7.356c-0.203,1.195-0.285,2.775-0.062,3.912l-1.304-1.547L84.8,9.366C85.896,8.99,87.224,8.129,88.156,7.356z"/>
		</g>
		<g>
			<line style="fill:none;stroke:#000000;stroke-width:0.5;" x1="97.08" y1="12.671" x2="95.221" y2="9.451"/>
			<path d="M94.017,7.356c0.933,0.773,2.26,1.634,3.356,2.01l-1.991,0.355l-1.303,1.546C94.301,10.131,94.219,8.551,94.017,7.356z"
				/>
		</g>
	</g>
</svg>
