<?xml version="1.0" encoding="UTF-8" standalone="no"?>
<!-- Created with Inkscape (http://www.inkscape.org/) -->

<svg
   xmlns:dc="http://purl.org/dc/elements/1.1/"
   xmlns:cc="http://creativecommons.org/ns#"
   xmlns:rdf="http://www.w3.org/1999/02/22-rdf-syntax-ns#"
   xmlns:svg="http://www.w3.org/2000/svg"
   xmlns="http://www.w3.org/2000/svg"
   xmlns:xlink="http://www.w3.org/1999/xlink"
   xmlns:sodipodi="http://sodipodi.sourceforge.net/DTD/sodipodi-0.dtd"
   xmlns:inkscape="http://www.inkscape.org/namespaces/inkscape"
   width="744.09448819"
   height="1052.3622047"
   id="svg3895"
   version="1.1"
   sodipodi:docname="eg-avalanche-transceiver.svg">
  <defs
     id="defs3897" />
  <sodipodi:namedview
     id="base"
     pagecolor="#ffffff"
     bordercolor="#666666"
     borderopacity="1.0"
     inkscape:pageopacity="0.0"
     inkscape:pageshadow="2"
     inkscape:zoom="1.8546819"
     inkscape:cx="105.64031"
     inkscape:cy="864.81813"
     inkscape:document-units="mm"
     inkscape:current-layer="layer1"
     showgrid="false"
     inkscape:window-width="1280"
     inkscape:window-height="996"
     inkscape:window-x="0"
     inkscape:window-y="0"
     inkscape:window-maximized="1" />
  <metadata
     id="metadata3900">
    <rdf:RDF>
      <cc:Work
         rdf:about="">
        <dc:format>image/svg+xml</dc:format>
        <dc:type
           rdf:resource="http://purl.org/dc/dcmitype/StillImage" />
        <dc:title></dc:title>
      </cc:Work>
    </rdf:RDF>
  </metadata>
  <g
     inkscape:label="Layer 1"
     inkscape:groupmode="layer"
     id="layer1">
    <g
       style="fill:none;stroke:#565656;stroke-width:0.021875;stroke-linecap:round;stroke-linejoin:round;stroke-miterlimit:4;stroke-opacity:1;stroke-dasharray:none"
       id="fieldline1"
       transform="matrix(-13.860378,-25.955387,-25.955387,13.860378,105.94285,180.49417)">
      <path
         inkscape:connector-curvature="0"
         d="M 0,0 0.0113,-0.0022 0.0257,-0.008 0.0411,-0.017 0.0565,-0.0289 0.071,-0.0434 0.0841,-0.0601 0.0953,-0.0785 0.1045,-0.0983 0.1113,-0.1189 0.1157,-0.1401 0.1176,-0.1613 0.117,-0.1822 0.1139,-0.2023 0.1085,-0.2214 0.1009,-0.239 0.0914,-0.255 0.0802,-0.2691 0.0675,-0.281 0.0537,-0.2907 0.0389,-0.2981 0.0234,-0.303 0.0076,-0.3054 l -0.0159,0 -0.0159,0.0026 -0.0154,0.005 -0.0147,0.0075 -0.0139,0.0098 -0.0126,0.0121 -0.0111,0.0141 -0.0094,0.0161 -0.0075,0.0177 -0.0053,0.0191 -0.0029,0.0202 -6e-4,0.0209 0.002,0.0212 0.0045,0.0212 0.007,0.0206 0.0093,0.0197 0.0113,0.0184 0.0132,0.0166 0.0145,0.0143 0.0154,0.0118 0.0155,0.0089 0.0142,0.0056 L 0,0 z"
         id="path4587"
         style="stroke:#565656;stroke-width:0.021875;stroke-miterlimit:4;stroke-opacity:1;stroke-dasharray:none" />
    </g>
    <g
       style="fill:none;stroke:#565656;stroke-width:0.021875;stroke-linecap:round;stroke-linejoin:round;stroke-miterlimit:4;stroke-opacity:1;stroke-dasharray:none"
       id="fieldline2"
       transform="matrix(-13.860378,-25.955387,-25.955387,13.860378,105.94285,180.49417)">
      <path
         inkscape:connector-curvature="0"
         d="M 0,0 0.0138,-0.0024 0.0311,-0.0085 0.05,-0.018 0.0694,-0.0306 0.0884,-0.0461 0.1065,-0.0643 0.1231,-0.0846 0.138,-0.1069 0.1509,-0.1307 0.1615,-0.1557 0.1697,-0.1816 0.1754,-0.2079 0.1786,-0.2344 0.1792,-0.2607 0.1772,-0.2864 0.1728,-0.3113 0.166,-0.335 0.157,-0.3574 0.146,-0.378 0.1331,-0.3969 0.1186,-0.4137 0.1026,-0.4283 0.0855,-0.4406 0.0673,-0.4506 0.0484,-0.458 0.0289,-0.463 0.0091,-0.4655 l -0.0199,1e-4 -0.0198,0.0027 -0.0194,0.0052 -0.0189,0.0077 -0.0181,0.0101 -0.0171,0.0126 -0.0158,0.0148 -0.0144,0.017 -0.0127,0.0189 -0.0109,0.0209 -0.0088,0.0224 -0.0066,0.0239 -0.0042,0.025 -0.0017,0.0258 8e-4,0.0263 0.0033,0.0264 0.006,0.0264 0.0084,0.0258 0.0108,0.0249 0.0131,0.0237 0.015,0.0221 0.0168,0.0202 0.0182,0.0179 0.019,0.0153 0.0194,0.0124 0.0189,0.0092 0.017,0.0057 L 0,0 z"
         id="path4590"
         style="stroke:#565656;stroke-width:0.021875;stroke-miterlimit:4;stroke-opacity:1;stroke-dasharray:none" />
      <g
         id="arrows2"
         style="stroke:#565656;stroke-width:0.021875;stroke-miterlimit:4;stroke-opacity:1;stroke-dasharray:none">
        <use
           height="1052.3622"
           width="744.09448"
           y="0"
           x="0"
           xlink:href="#arrow1"
           transform="matrix(-1.3604576,0.33038631,-0.33038631,-1.3604576,0.0018,-0.4582)"
           id="use4593"
           style="stroke:#565656;stroke-width:0.015625;stroke-miterlimit:4;stroke-opacity:1;stroke-dasharray:none" />
      </g>
    </g>
    <g
       style="fill:none;stroke:#565656;stroke-width:0.021875;stroke-linecap:round;stroke-linejoin:round;stroke-miterlimit:4;stroke-opacity:1;stroke-dasharray:none"
       id="fieldline3"
       transform="matrix(-13.860378,-25.955387,-25.955387,13.860378,105.94285,180.49417)">
      <path
         inkscape:connector-curvature="0"
         d="m 0,0 0.0158,-0.0024 0.0202,-0.0059 0.0228,-0.0096 0.0239,-0.0128 0.0241,-0.016 0.0238,-0.0188 0.023,-0.0215 0.0217,-0.0238 0.0203,-0.026 0.0185,-0.0278 0.0164,-0.0294 0.0143,-0.0306 0.0119,-0.0317 0.0096,-0.0324 0.007,-0.0328 0.0044,-0.033 0.002,-0.0328 L 0.279,-0.4198 0.2759,-0.4516 0.2704,-0.4826 0.2625,-0.5125 0.2523,-0.541 0.2401,-0.568 0.2258,-0.5933 0.2098,-0.6167 0.1921,-0.6382 0.1729,-0.6575 0.1523,-0.6745 0.1307,-0.6893 0.1081,-0.7017 0.0846,-0.7116 0.0606,-0.7191 0.0362,-0.7241 0.0115,-0.7265 l -0.0247,10e-5 -0.0247,0.0026 -0.0244,0.0051 -0.024,0.0077 -0.0233,0.0101 -0.0226,0.0125 -0.0216,0.015 -0.0204,0.0172 -0.0191,0.0195 -0.0177,0.0216 -0.0159,0.0235 -0.0141,0.0254 -0.0121,0.0272 -0.01,0.0286 -0.0077,0.0299 -0.0054,0.031 -0.003,0.0319 -4e-4,0.0326 0.0021,0.0328 0.0046,0.033 0.0072,0.0328 0.0097,0.0323 0.0121,0.0316 0.0145,0.0306 0.0166,0.0293 0.0186,0.0277 0.0203,0.0258 0.0219,0.0237 0.023,0.0213 0.0239,0.0186 0.0241,0.0158 0.0238,0.0126 0.0227,0.0093 0.0199,0.0057 L 0,0 z"
         id="path4596"
         style="stroke:#565656;stroke-width:0.021875;stroke-miterlimit:4;stroke-opacity:1;stroke-dasharray:none" />
      <g
         id="arrows3"
         style="stroke:#565656;stroke-width:0.021875;stroke-miterlimit:4;stroke-opacity:1;stroke-dasharray:none">
        <use
           height="1052.3622"
           width="744.09448"
           y="0"
           x="0"
           xlink:href="#arrow1"
           transform="matrix(-1.3833699,0.215146,-0.215146,-1.3833699,8e-4,-0.7216)"
           id="use4599"
           style="stroke:#565656;stroke-width:0.015625;stroke-miterlimit:4;stroke-opacity:1;stroke-dasharray:none" />
      </g>
    </g>
    <g
       style="fill:none;stroke:#565656;stroke-width:0.021875;stroke-linecap:round;stroke-linejoin:round;stroke-miterlimit:4;stroke-opacity:1;stroke-dasharray:none"
       id="fieldline4"
       transform="matrix(-13.860378,-25.955387,-25.955387,13.860378,105.94285,180.49417)">
      <path
         inkscape:connector-curvature="0"
         d="M 0,0 0.0186,-0.0023 0.043,-0.0084 0.0708,-0.0181 0.1006,-0.0313 0.1313,-0.0478 0.1624,-0.0675 0.1933,-0.0902 0.2237,-0.1157 0.2531,-0.1438 0.2813,-0.1743 0.308,-0.2069 0.333,-0.2416 0.3561,-0.278 0.3772,-0.3159 0.396,-0.3552 0.4125,-0.3956 0.4266,-0.4368 0.4383,-0.4786 0.4474,-0.5209 0.4539,-0.5633 0.4579,-0.6058 0.4592,-0.648 0.4581,-0.6897 0.4543,-0.7309 0.4482,-0.7711 0.4396,-0.8104 0.4286,-0.8484 0.4154,-0.8851 0.4001,-0.9202 0.3827,-0.9537 0.3635,-0.9854 0.3424,-1.0151 0.3196,-1.0428 0.2953,-1.0684 0.2697,-1.0917 0.2427,-1.1128 0.2147,-1.1315 0.1857,-1.1478 0.1558,-1.1616 0.1253,-1.173 0.0942,-1.1819 0.0627,-1.1882 0.031,-1.1919 -9e-4,-1.1931 l -0.0319,0.0013 -0.0318,0.0039 -0.0314,0.0065 -0.0311,0.009 -0.0305,0.0115 -0.0298,0.014 -0.0289,0.0164 -0.028,0.0189 -0.0269,0.0212 -0.0256,0.0235 -0.0242,0.0256 -0.0226,0.0279 -0.021,0.0298 -0.0192,0.0318 -0.0173,0.0336 -0.0152,0.0352 -0.013,0.0368 -0.0108,0.0381 -0.0085,0.0393 -0.006,0.0403 -0.0036,0.0412 -0.001,0.0417 0.0015,0.0423 0.0041,0.0424 0.0067,0.0425 0.0092,0.0422 0.0118,0.0418 0.0143,0.0412 0.0166,0.0403 0.019,0.0392 0.0212,0.0379 0.0232,0.0363 0.0251,0.0345 0.0268,0.0326 0.0283,0.0303 0.0295,0.028 0.0304,0.0253 0.0309,0.0225 0.0311,0.0195 0.0307,0.0164 0.0297,0.013 0.0276,0.0095 0.0241,0.0058 L 0,0 z"
         id="path4602"
         style="stroke:#565656;stroke-width:0.021875;stroke-miterlimit:4;stroke-opacity:1;stroke-dasharray:none" />
      <g
         id="arrows4"
         style="stroke:#565656;stroke-width:0.021875;stroke-miterlimit:4;stroke-opacity:1;stroke-dasharray:none">
        <use
           height="1052.3622"
           width="744.09448"
           y="0"
           x="0"
           xlink:href="#arrow1"
           transform="matrix(-0.35927747,-1.3531148,1.3531148,-0.35927747,0.4442,-0.78)"
           id="use4605"
           style="stroke:#565656;stroke-width:0.015625;stroke-miterlimit:4;stroke-opacity:1;stroke-dasharray:none" />
        <use
           height="1052.3622"
           width="744.09448"
           y="0"
           x="0"
           xlink:href="#arrow1"
           transform="matrix(-0.19653597,1.3861362,-1.3861362,-0.19653597,-0.4444,-0.7803)"
           id="use4607"
           style="stroke:#565656;stroke-width:0.015625;stroke-miterlimit:4;stroke-opacity:1;stroke-dasharray:none" />
      </g>
    </g>
    <g
       style="fill:none;stroke:#565656;stroke-width:0.021875;stroke-linecap:round;stroke-linejoin:round;stroke-miterlimit:4;stroke-opacity:1;stroke-dasharray:none"
       id="fieldline5"
       transform="matrix(-13.860378,-25.955387,-25.955387,13.860378,105.94285,180.49417)">
      <path
         inkscape:connector-curvature="0"
         d="m 0,0 0.0219,-0.0022 0.03,-0.006 L 0.0866,-0.0178 0.1243,-0.0311 0.164,-0.0479 0.2049,-0.068 0.2465,-0.0915 0.2885,-0.118 0.3303,-0.1476 0.3717,-0.18 0.4124,-0.2152 0.4521,-0.2529 0.4907,-0.2931 0.5279,-0.3355 0.5635,-0.3801 0.5974,-0.4266 0.6295,-0.4749 0.6596,-0.5249 0.6875,-0.5763 0.7133,-0.6291 0.7368,-0.683 0.7579,-0.7378 0.7766,-0.7935 0.7928,-0.8498 0.8066,-0.9066 0.8177,-0.9637 0.8263,-1.021 0.8324,-1.0782 0.8358,-1.1353 0.8367,-1.1921 0.835,-1.2484 0.8308,-1.3041 0.8241,-1.359 0.815,-1.4129 0.8035,-1.4659 0.7896,-1.5177 0.7734,-1.5681 0.7551,-1.6172 0.7346,-1.6647 0.712,-1.7106 0.6875,-1.7547 0.6611,-1.797 0.6329,-1.8373 0.603,-1.8757 0.5715,-1.912 0.5385,-1.9461 0.5041,-1.978 0.4685,-2.0077 0.4316,-2.035 0.3937,-2.06 0.3548,-2.0825 0.315,-2.1027 0.2745,-2.1203 0.2333,-2.1355 0.1915,-2.1482 0.1493,-2.1583 0.1067,-2.166 0.0639,-2.171 l -0.043,-0.0025 -0.043,0 -0.043,0.0026 -0.0428,0.0051 -0.0425,0.0077 -0.0422,0.0102 -0.0418,0.0128 -0.0412,0.0152 -0.0405,0.0178 -0.0398,0.0202 -0.0388,0.0226 -0.0379,0.025 -0.0369,0.0274 -0.0356,0.0297 -0.0343,0.032 -0.033,0.0342 -0.0314,0.0363 -0.0299,0.0384 -0.0281,0.0404 -0.0264,0.0424 -0.0244,0.0442 -0.0226,0.0459 -0.0204,0.0475 -0.0183,0.0491 -0.0161,0.0505 -0.0138,0.0518 -0.0115,0.053 -0.009,0.054 -0.0067,0.055 -0.0041,0.0556 -0.0016,0.0563 0.001,0.0568 0.0035,0.0571 0.0061,0.0573 0.0086,0.0572 0.0113,0.0571 0.0138,0.0568 0.0163,0.0563 0.0187,0.0557 0.0212,0.0548 0.0236,0.0539 0.0258,0.0527 0.028,0.0514 0.0302,0.0499 0.0321,0.0483 0.0339,0.0465 0.0357,0.0445 0.0372,0.0424 0.0386,0.0401 0.0398,0.0376 0.0407,0.0351 0.0414,0.0324 0.0419,0.0294 0.0419,0.0265 0.0416,0.0234 0.0409,0.02 0.0397,0.0167 0.0376,0.0132 0.0346,0.0095 0.0298,0.0059 L 0,0 z"
         id="path4610"
         style="stroke:#565656;stroke-width:0.021875;stroke-miterlimit:4;stroke-opacity:1;stroke-dasharray:none" />
      <g
         id="arrows5"
         style="stroke:#565656;stroke-width:0.021875;stroke-miterlimit:4;stroke-opacity:1;stroke-dasharray:none">
        <use
           height="1052.3622"
           width="744.09448"
           y="0"
           x="0"
           xlink:href="#arrow1"
           transform="matrix(-0.31969122,-1.3630105,1.3630105,-0.31969122,0.8119,-1.4219)"
           id="use4613"
           style="stroke:#565656;stroke-width:0.015625;stroke-miterlimit:4;stroke-opacity:1;stroke-dasharray:none" />
        <use
           height="1052.3622"
           width="744.09448"
           y="0"
           x="0"
           xlink:href="#arrow1"
           transform="matrix(-0.23251249,1.3805571,-1.3805571,-0.23251249,-0.8119,-1.4219)"
           id="use4615"
           style="stroke:#565656;stroke-width:0.015625;stroke-miterlimit:4;stroke-opacity:1;stroke-dasharray:none" />
      </g>
    </g>
    <g
       style="fill:none;stroke:#565656;stroke-width:0.021875;stroke-linecap:round;stroke-linejoin:round;stroke-miterlimit:4;stroke-opacity:1;stroke-dasharray:none"
       id="fieldline6"
       transform="matrix(-13.860378,-25.955387,-25.955387,13.860378,105.94285,180.49417)">
      <path
         inkscape:connector-curvature="0"
         d="m -1.8951,-2.525 0.006,0.0844 0.0084,0.0846 0.011,0.0847 0.0134,0.0846 0.0159,0.0844 0.0183,0.0842 0.0208,0.0839 0.0232,0.0834 0.0256,0.0828 0.028,0.0822 0.0303,0.0814 0.0325,0.0806 0.0349,0.0795 0.0371,0.0785 0.0392,0.0773 0.0413,0.0761 0.0434,0.0746 0.0453,0.0731 0.0472,0.0716 0.049,0.0698 0.0508,0.0681 0.0524,0.0661 0.054,0.0642 0.0554,0.0621 0.0567,0.0598 0.0579,0.0576 0.0589,0.0552 0.0599,0.0527 0.0607,0.0502 0.0613,0.0474 0.0617,0.0448 0.0619,0.0419 0.062,0.039 0.0617,0.0359 0.0613,0.0329 0.0605,0.0297 0.0593,0.0265 0.0578,0.0232 0.0559,0.0198 0.0532,0.0164 0.0499,0.0128 0.0453,0.0093 0.0385,0.0057 L 0,0 0.0275,-0.0021 0.0661,-0.0077 0.1115,-0.017 l 0.0498,-0.0129 0.0533,-0.0164 0.0558,-0.0198 0.0579,-0.0232 0.0593,-0.0265 0.0605,-0.0298 0.0612,-0.0329 0.0618,-0.0359 0.0619,-0.039 0.0619,-0.0419 0.0617,-0.0448 0.0613,-0.0475 0.0606,-0.0501 0.0599,-0.0527 0.059,-0.0552 0.0579,-0.0576 0.0567,-0.0599 0.0553,-0.062 0.054,-0.0642 0.0524,-0.0661 0.0507,-0.0681 0.049,-0.0698 0.0473,-0.0716 0.0453,-0.0731 0.0433,-0.0746 0.0413,-0.076 0.0392,-0.0773 0.0371,-0.0785 0.0348,-0.0796 0.0326,-0.0805 0.0303,-0.0814 0.028,-0.0822 0.0255,-0.0828 0.0232,-0.0834 0.0208,-0.0838 0.0183,-0.0842 0.0159,-0.0845 0.0134,-0.0846 0.011,-0.0846 0.0084,-0.0846 0.006,-0.0844"
         id="path4618"
         style="stroke:#565656;stroke-width:0.021875;stroke-miterlimit:4;stroke-opacity:1;stroke-dasharray:none" />
      <g
         id="arrows6"
         style="stroke:#565656;stroke-width:0.021875;stroke-miterlimit:4;stroke-opacity:1;stroke-dasharray:none">
        <use
           height="1052.3622"
           width="744.09448"
           y="0"
           x="0"
           xlink:href="#arrow1"
           transform="matrix(0.59830101,1.2657156,-1.2657156,0.59830101,-1.6235,-1.4385)"
           id="use4621"
           style="stroke:#565656;stroke-width:0.015625;stroke-miterlimit:4;stroke-opacity:1;stroke-dasharray:none" />
        <use
           height="1052.3622"
           width="744.09448"
           y="0"
           x="0"
           xlink:href="#arrow1"
           transform="matrix(0.56898482,-1.2791623,1.2791623,0.56898482,1.6235,-1.4385)"
           id="use4623"
           style="stroke:#565656;stroke-width:0.015625;stroke-miterlimit:4;stroke-opacity:1;stroke-dasharray:none" />
      </g>
    </g>
    <g
       style="fill:none;stroke:#565656;stroke-width:0.021875;stroke-linecap:round;stroke-linejoin:round;stroke-miterlimit:4;stroke-opacity:1;stroke-dasharray:none"
       id="fieldline7"
       transform="matrix(-13.860378,-25.955387,-25.955387,13.860378,105.94285,180.49417)">
      <path
         inkscape:connector-curvature="0"
         d="m -2.7625,-1.1678 0.1235,0.0845 0.1236,0.0816 0.1236,0.0788 0.1235,0.0758 0.1232,0.0728 0.1229,0.0697 0.1224,0.0668 0.1218,0.0636 0.121,0.0604 0.12,0.0573 0.1188,0.0541 0.1176,0.0508 0.116,0.0475 0.1143,0.0442 0.1122,0.0408 0.11,0.0375 0.1074,0.034 0.1044,0.0306 0.101,0.0271 0.0971,0.0236 0.0926,0.02 0.0873,0.0165 0.0808,0.0129 0.0729,0.0093 0.0615,0.0056 L 0,0 l 0.0431,-0.002 0.0615,-0.0056 0.0729,-0.0093 0.0808,-0.0129 0.0873,-0.0165 0.0926,-0.02 0.0971,-0.0236 0.101,-0.0271 0.1044,-0.0306 0.1074,-0.034 0.11,-0.0375 0.1122,-0.0408 0.1143,-0.0442 0.116,-0.0475 L 1.4182,-0.4024 1.537,-0.4565 1.6571,-0.5138 1.778,-0.5742 1.8998,-0.6378 2.0222,-0.7046 2.1451,-0.7743 2.2683,-0.8471 2.3918,-0.9229 2.5154,-1.0017 2.639,-1.0833 2.7625,-1.1678"
         id="path4626"
         style="stroke:#565656;stroke-width:0.021875;stroke-miterlimit:4;stroke-opacity:1;stroke-dasharray:none" />
      <g
         id="arrows7"
         style="stroke:#565656;stroke-width:0.021875;stroke-miterlimit:4;stroke-opacity:1;stroke-dasharray:none">
        <use
           height="1052.3622"
           width="744.09448"
           y="0"
           x="0"
           xlink:href="#arrow1"
           transform="matrix(1.2384134,0.6529413,-0.6529413,1.2384134,-1.9022,-0.6395)"
           id="use4629"
           style="stroke:#565656;stroke-width:0.015625;stroke-miterlimit:4;stroke-opacity:1;stroke-dasharray:none" />
        <use
           height="1052.3622"
           width="744.09448"
           y="0"
           x="0"
           xlink:href="#arrow1"
           transform="matrix(1.2312755,-0.66630373,0.66630373,1.2312755,1.9022,-0.6395)"
           id="use4631"
           style="stroke:#565656;stroke-width:0.015625;stroke-miterlimit:4;stroke-opacity:1;stroke-dasharray:none" />
      </g>
    </g>
    <g
       style="fill:none;stroke:#565656;stroke-width:0.01726502;stroke-linecap:round;stroke-linejoin:round;stroke-miterlimit:4;stroke-opacity:1;stroke-dasharray:none"
       id="fieldline8"
       transform="matrix(-17.563795,-32.890524,-32.890524,17.563795,106.95459,182.39746)">
      <path
         inkscape:connector-curvature="0"
         d="m -2.7625,0 5.525,0"
         id="path4634"
         style="stroke:#565656;stroke-width:0.01726502;stroke-miterlimit:4;stroke-opacity:1;stroke-dasharray:none" />
      <g
         id="arrows8"
         style="stroke:#565656;stroke-width:0.01726502;stroke-miterlimit:4;stroke-opacity:1;stroke-dasharray:none">
        <use
           height="1052.3622"
           width="744.09448"
           y="0"
           x="0"
           xlink:href="#arrow1"
           transform="matrix(1.4,0,0,1.4,-1.8417,0)"
           id="use4637"
           style="stroke:#565656;stroke-width:0.01233216;stroke-miterlimit:4;stroke-opacity:1;stroke-dasharray:none" />
        <use
           height="1052.3622"
           width="744.09448"
           y="0"
           x="0"
           xlink:href="#arrow1"
           transform="matrix(1.4,0,0,1.4,1.8417,0)"
           id="use4639"
           style="stroke:#565656;stroke-width:0.01233216;stroke-miterlimit:4;stroke-opacity:1;stroke-dasharray:none" />
      </g>
    </g>
    <g
       style="fill:none;stroke:#565656;stroke-width:0.021875;stroke-linecap:round;stroke-linejoin:round;stroke-miterlimit:4;stroke-opacity:1;stroke-dasharray:none"
       id="fieldline9"
       transform="matrix(-13.860378,-25.955387,-25.955387,13.860378,105.94285,180.49417)">
      <path
         inkscape:connector-curvature="0"
         d="m -2.7625,1.1678 0.1235,-0.0845 0.1236,-0.0816 0.1236,-0.0788 0.1235,-0.0758 0.1232,-0.0728 0.1229,-0.0697 0.1224,-0.0668 0.1218,-0.0636 0.121,-0.0604 0.12,-0.0573 0.1188,-0.0541 0.1176,-0.0508 0.116,-0.0475 0.1143,-0.0442 0.1122,-0.0408 0.11,-0.0375 0.1074,-0.034 0.1044,-0.0306 0.101,-0.0271 0.0971,-0.0236 0.0926,-0.02 L -0.2583,0.0298 -0.1775,0.0169 -0.1046,0.0076 -0.0431,0.002 0,0 l 0.0431,0.002 0.0615,0.0056 0.0729,0.0093 0.0808,0.0129 0.0873,0.0165 0.0926,0.02 0.0971,0.0236 0.101,0.0271 0.1044,0.0306 0.1074,0.034 0.11,0.0375 0.1122,0.0408 0.1143,0.0442 0.116,0.0475 L 1.4182,0.4024 1.537,0.4565 1.6571,0.5138 1.778,0.5742 1.8998,0.6378 2.0222,0.7046 2.1451,0.7743 2.2683,0.8471 2.3918,0.9229 2.5154,1.0017 2.639,1.0833 2.7625,1.1678"
         id="path4642"
         style="stroke:#565656;stroke-width:0.021875;stroke-miterlimit:4;stroke-opacity:1;stroke-dasharray:none" />
      <g
         id="arrows9"
         style="stroke:#565656;stroke-width:0.021875;stroke-miterlimit:4;stroke-opacity:1;stroke-dasharray:none">
        <use
           height="1052.3622"
           width="744.09448"
           y="0"
           x="0"
           xlink:href="#arrow1"
           transform="matrix(1.2384134,-0.6529413,0.6529413,1.2384134,-1.9022,0.6395)"
           id="use4645"
           style="stroke:#565656;stroke-width:0.015625;stroke-miterlimit:4;stroke-opacity:1;stroke-dasharray:none" />
        <use
           height="1052.3622"
           width="744.09448"
           y="0"
           x="0"
           xlink:href="#arrow1"
           transform="matrix(1.2312755,0.66630373,-0.66630373,1.2312755,1.9022,0.6395)"
           id="use4647"
           style="stroke:#565656;stroke-width:0.015625;stroke-miterlimit:4;stroke-opacity:1;stroke-dasharray:none" />
      </g>
    </g>
    <g
       style="fill:none;stroke:#565656;stroke-width:0.021875;stroke-linecap:round;stroke-linejoin:round;stroke-miterlimit:4;stroke-opacity:1;stroke-dasharray:none"
       id="fieldline10"
       transform="matrix(-13.860378,-25.955387,-25.955387,13.860378,105.94285,180.49417)">
      <path
         inkscape:connector-curvature="0"
         d="m -1.8951,2.525 0.006,-0.0844 0.0084,-0.0846 0.011,-0.0847 0.0134,-0.0846 0.0159,-0.0844 0.0183,-0.0842 0.0208,-0.0839 0.0232,-0.0834 0.0256,-0.0828 0.028,-0.0822 0.0303,-0.0814 0.0325,-0.0806 0.0349,-0.0795 0.0371,-0.0785 0.0392,-0.0773 0.0413,-0.0761 0.0434,-0.0746 0.0453,-0.0731 0.0472,-0.0716 0.049,-0.0698 0.0508,-0.0681 0.0524,-0.0661 0.054,-0.0642 L -1.1117,0.6628 -1.055,0.603 -0.9971,0.5454 -0.9382,0.4902 -0.8783,0.4375 -0.8176,0.3873 -0.7563,0.3399 -0.6946,0.2951 -0.6327,0.2532 -0.5707,0.2142 -0.509,0.1783 -0.4477,0.1454 -0.3872,0.1157 -0.3279,0.0892 -0.2701,0.066 -0.2142,0.0462 -0.161,0.0298 -0.1111,0.017 -0.0658,0.0077 -0.0273,0.002 0,0 0.0275,0.0021 0.0661,0.0077 0.1115,0.017 l 0.0498,0.0129 0.0533,0.0164 0.0558,0.0198 0.0579,0.0232 0.0593,0.0265 0.0605,0.0298 0.0612,0.0329 0.0618,0.0359 0.0619,0.039 0.0619,0.0419 0.0617,0.0448 0.0613,0.0475 0.0606,0.0501 0.0599,0.0527 0.059,0.0552 0.0579,0.0576 0.0567,0.0599 0.0553,0.062 0.054,0.0642 0.0524,0.0661 0.0507,0.0681 0.049,0.0698 0.0473,0.0716 0.0453,0.0731 0.0433,0.0746 0.0413,0.076 0.0392,0.0773 0.0371,0.0785 0.0348,0.0796 0.0326,0.0805 0.0303,0.0814 0.028,0.0822 0.0255,0.0828 0.0232,0.0834 0.0208,0.0838 0.0183,0.0842 0.0159,0.0845 0.0134,0.0846 0.011,0.0846 0.0084,0.0846 0.006,0.0844"
         id="path4650"
         style="stroke:#565656;stroke-width:0.021875;stroke-miterlimit:4;stroke-opacity:1;stroke-dasharray:none" />
      <g
         id="arrows10"
         style="stroke:#565656;stroke-width:0.021875;stroke-miterlimit:4;stroke-opacity:1;stroke-dasharray:none">
        <use
           height="1052.3622"
           width="744.09448"
           y="0"
           x="0"
           xlink:href="#arrow1"
           transform="matrix(0.59830101,-1.2657156,1.2657156,0.59830101,-1.6235,1.4385)"
           id="use4653"
           style="stroke:#565656;stroke-width:0.015625;stroke-miterlimit:4;stroke-opacity:1;stroke-dasharray:none" />
        <use
           height="1052.3622"
           width="744.09448"
           y="0"
           x="0"
           xlink:href="#arrow1"
           transform="matrix(0.56898482,1.2791623,-1.2791623,0.56898482,1.6235,1.4385)"
           id="use4655"
           style="stroke:#565656;stroke-width:0.015625;stroke-miterlimit:4;stroke-opacity:1;stroke-dasharray:none" />
      </g>
    </g>
    <g
       style="fill:none;stroke:#565656;stroke-width:0.021875;stroke-linecap:round;stroke-linejoin:round;stroke-miterlimit:4;stroke-opacity:1;stroke-dasharray:none"
       id="fieldline11"
       transform="matrix(-13.860378,-25.955387,-25.955387,13.860378,105.94285,180.49417)">
      <path
         inkscape:connector-curvature="0"
         d="m 0,0 0.0219,0.0022 0.03,0.006 L 0.0866,0.0178 0.1243,0.0311 0.164,0.0479 0.2049,0.068 0.2465,0.0915 0.2885,0.118 0.3303,0.1476 0.3717,0.18 0.4124,0.2152 0.4521,0.2529 0.4907,0.2931 0.5279,0.3355 0.5635,0.3801 0.5974,0.4266 0.6295,0.4749 0.6596,0.5249 0.6875,0.5763 0.7133,0.6291 0.7368,0.683 0.7579,0.7378 0.7766,0.7935 0.7928,0.8498 0.8066,0.9066 0.8177,0.9637 0.8263,1.021 0.8324,1.0782 0.8358,1.1353 0.8367,1.1921 0.835,1.2484 0.8308,1.3041 0.8241,1.359 0.815,1.4129 0.8035,1.4659 0.7896,1.5177 0.7734,1.5681 0.7551,1.6172 0.7346,1.6647 0.712,1.7106 0.6875,1.7547 0.6611,1.797 0.6329,1.8373 0.603,1.8757 0.5715,1.912 0.5385,1.9461 0.5041,1.978 0.4685,2.0077 0.4316,2.035 0.3937,2.06 0.3548,2.0825 0.315,2.1027 0.2745,2.1203 0.2333,2.1355 0.1915,2.1482 0.1493,2.1583 0.1067,2.166 0.0639,2.171 l -0.043,0.0025 -0.043,0 L -0.0651,2.1709 -0.1079,2.1658 -0.1504,2.1581 -0.1926,2.1479 -0.2344,2.1351 -0.2756,2.1199 -0.3161,2.1021 -0.3559,2.0819 -0.3947,2.0593 -0.4326,2.0343 -0.4695,2.0069 -0.5051,1.9772 -0.5394,1.9452 -0.5724,1.911 -0.6038,1.8747 -0.6337,1.8363 -0.6618,1.7959 -0.6882,1.7535 -0.7126,1.7093 -0.7352,1.6634 -0.7556,1.6159 -0.7739,1.5668 -0.79,1.5163 -0.8038,1.4645 -0.8153,1.4115 -0.8243,1.3575 -0.831,1.3025 -0.8351,1.2469 -0.8367,1.1906 -0.8357,1.1338 -0.8322,1.0767 -0.8261,1.0194 -0.8175,0.9622 -0.8062,0.9051 -0.7924,0.8483 -0.7761,0.792 -0.7574,0.7363 -0.7362,0.6815 -0.7126,0.6276 -0.6868,0.5749 -0.6588,0.5235 -0.6286,0.4736 -0.5965,0.4253 -0.5626,0.3788 -0.5269,0.3343 -0.4897,0.2919 -0.4511,0.2518 -0.4113,0.2142 -0.3706,0.1791 -0.3292,0.1467 -0.2873,0.1173 -0.2454,0.0908 -0.2038,0.0674 -0.1629,0.0474 -0.1232,0.0307 -0.0856,0.0175 -0.051,0.008 -0.0212,0.0021 0,0 z"
         id="path4658"
         style="stroke:#565656;stroke-width:0.021875;stroke-miterlimit:4;stroke-opacity:1;stroke-dasharray:none" />
      <g
         id="arrows11"
         style="stroke:#565656;stroke-width:0.021875;stroke-miterlimit:4;stroke-opacity:1;stroke-dasharray:none">
        <use
           height="1052.3622"
           width="744.09448"
           y="0"
           x="0"
           xlink:href="#arrow1"
           transform="matrix(-0.31969122,1.3630105,-1.3630105,-0.31969122,0.8119,1.4219)"
           id="use4661"
           style="stroke:#565656;stroke-width:0.015625;stroke-miterlimit:4;stroke-opacity:1;stroke-dasharray:none" />
        <use
           height="1052.3622"
           width="744.09448"
           y="0"
           x="0"
           xlink:href="#arrow1"
           transform="matrix(-0.23251249,-1.3805571,1.3805571,-0.23251249,-0.8119,1.4219)"
           id="use4663"
           style="stroke:#565656;stroke-width:0.015625;stroke-miterlimit:4;stroke-opacity:1;stroke-dasharray:none" />
      </g>
    </g>
    <g
       style="fill:none;stroke:#565656;stroke-width:0.021875;stroke-linecap:round;stroke-linejoin:round;stroke-miterlimit:4;stroke-opacity:1;stroke-dasharray:none"
       id="fieldline12"
       transform="matrix(-13.860378,-25.955387,-25.955387,13.860378,105.94285,180.49417)">
      <path
         inkscape:connector-curvature="0"
         d="M 0,0 0.0186,0.0023 0.043,0.0084 0.0708,0.0181 0.1006,0.0313 0.1313,0.0478 0.1624,0.0675 0.1933,0.0902 0.2237,0.1157 0.2531,0.1438 0.2813,0.1743 0.308,0.2069 0.333,0.2416 0.3561,0.278 0.3772,0.3159 0.396,0.3552 0.4125,0.3956 0.4266,0.4368 0.4383,0.4786 0.4474,0.5209 0.4539,0.5633 0.4579,0.6058 0.4592,0.648 0.4581,0.6897 0.4543,0.7309 0.4482,0.7711 0.4396,0.8104 0.4286,0.8484 0.4154,0.8851 0.4001,0.9202 0.3827,0.9537 0.3635,0.9854 0.3424,1.0151 0.3196,1.0428 0.2953,1.0684 0.2697,1.0917 0.2427,1.1128 0.2147,1.1315 0.1857,1.1478 0.1558,1.1616 0.1253,1.173 0.0942,1.1819 0.0627,1.1882 0.031,1.1919 -9e-4,1.1931 -0.0328,1.1918 -0.0646,1.1879 -0.096,1.1814 -0.1271,1.1724 -0.1576,1.1609 -0.1874,1.1469 -0.2163,1.1305 -0.2443,1.1116 -0.2712,1.0904 -0.2968,1.0669 -0.321,1.0413 -0.3436,1.0134 -0.3646,0.9836 -0.3838,0.9518 -0.4011,0.9182 -0.4163,0.883 -0.4293,0.8462 -0.4401,0.8081 -0.4486,0.7688 -0.4546,0.7285 -0.4582,0.6873 -0.4592,0.6456 -0.4577,0.6033 -0.4536,0.5609 -0.4469,0.5184 -0.4377,0.4762 -0.4259,0.4344 -0.4116,0.3932 -0.395,0.3529 -0.376,0.3137 -0.3548,0.2758 -0.3316,0.2395 -0.3065,0.205 -0.2797,0.1724 -0.2514,0.1421 -0.2219,0.1141 -0.1915,0.0888 -0.1606,0.0663 -0.1295,0.0468 -0.0988,0.0304 -0.0691,0.0174 -0.0415,0.0079 -0.0174,0.0021 0,0 z"
         id="path4666"
         style="stroke:#565656;stroke-width:0.021875;stroke-miterlimit:4;stroke-opacity:1;stroke-dasharray:none" />
      <g
         id="arrows12"
         style="stroke:#565656;stroke-width:0.021875;stroke-miterlimit:4;stroke-opacity:1;stroke-dasharray:none">
        <use
           height="1052.3622"
           width="744.09448"
           y="0"
           x="0"
           xlink:href="#arrow1"
           transform="matrix(-0.35927747,1.3531148,-1.3531148,-0.35927747,0.4442,0.78)"
           id="use4669"
           style="stroke:#565656;stroke-width:0.015625;stroke-miterlimit:4;stroke-opacity:1;stroke-dasharray:none" />
        <use
           height="1052.3622"
           width="744.09448"
           y="0"
           x="0"
           xlink:href="#arrow1"
           transform="matrix(-0.19653597,-1.3861362,1.3861362,-0.19653597,-0.4444,0.7803)"
           id="use4671"
           style="stroke:#565656;stroke-width:0.015625;stroke-miterlimit:4;stroke-opacity:1;stroke-dasharray:none" />
      </g>
    </g>
    <g
       style="fill:none;stroke:#565656;stroke-width:0.021875;stroke-linecap:round;stroke-linejoin:round;stroke-miterlimit:4;stroke-opacity:1;stroke-dasharray:none"
       id="fieldline13"
       transform="matrix(-13.860378,-25.955387,-25.955387,13.860378,105.94285,180.49417)">
      <path
         inkscape:connector-curvature="0"
         d="m 0,0 0.0158,0.0024 0.0202,0.0059 0.0228,0.0096 0.0239,0.0128 0.0241,0.016 0.0238,0.0188 0.023,0.0215 0.0217,0.0238 0.0203,0.026 0.0185,0.0278 0.0164,0.0294 0.0143,0.0306 0.0119,0.0317 0.0096,0.0324 0.007,0.0328 0.0044,0.033 0.002,0.0328 L 0.279,0.4198 0.2759,0.4516 0.2704,0.4826 0.2625,0.5125 0.2523,0.541 0.2401,0.568 0.2258,0.5933 0.2098,0.6167 0.1921,0.6382 0.1729,0.6575 0.1523,0.6745 0.1307,0.6893 0.1081,0.7017 0.0846,0.7116 0.0606,0.7191 0.0362,0.7241 0.0115,0.7265 -0.0132,0.7264 -0.0379,0.7238 -0.0623,0.7187 -0.0863,0.711 -0.1096,0.7009 -0.1322,0.6884 -0.1538,0.6734 -0.1742,0.6562 -0.1933,0.6367 -0.211,0.6151 -0.2269,0.5916 -0.241,0.5662 -0.2531,0.539 -0.2631,0.5104 -0.2708,0.4805 -0.2762,0.4495 -0.2792,0.4176 -0.2796,0.385 -0.2775,0.3522 -0.2729,0.3192 -0.2657,0.2864 -0.256,0.2541 -0.2439,0.2225 -0.2294,0.1919 -0.2128,0.1626 -0.1942,0.1349 -0.1739,0.1091 -0.152,0.0854 -0.129,0.0641 -0.1051,0.0455 -0.081,0.0297 -0.0572,0.0171 -0.0345,0.0078 -0.0146,0.0021 0,0 z"
         id="path4674"
         style="stroke:#565656;stroke-width:0.021875;stroke-miterlimit:4;stroke-opacity:1;stroke-dasharray:none" />
      <g
         id="arrows13"
         style="stroke:#565656;stroke-width:0.021875;stroke-miterlimit:4;stroke-opacity:1;stroke-dasharray:none">
        <use
           height="1052.3622"
           width="744.09448"
           y="0"
           x="0"
           xlink:href="#arrow1"
           transform="matrix(-1.3833699,-0.215146,0.215146,-1.3833699,8e-4,0.7216)"
           id="use4677"
           style="stroke:#565656;stroke-width:0.015625;stroke-miterlimit:4;stroke-opacity:1;stroke-dasharray:none" />
      </g>
    </g>
    <g
       style="fill:none;stroke:#565656;stroke-width:0.021875;stroke-linecap:round;stroke-linejoin:round;stroke-miterlimit:4;stroke-opacity:1;stroke-dasharray:none"
       id="fieldline14"
       transform="matrix(-13.860378,-25.955387,-25.955387,13.860378,105.94285,180.49417)">
      <path
         inkscape:connector-curvature="0"
         d="M 0,0 0.0138,0.0024 0.0311,0.0085 0.05,0.018 0.0694,0.0306 0.0884,0.0461 0.1065,0.0643 0.1231,0.0846 0.138,0.1069 0.1509,0.1307 0.1615,0.1557 0.1697,0.1816 0.1754,0.2079 0.1786,0.2344 0.1792,0.2607 0.1772,0.2864 0.1728,0.3113 0.166,0.335 0.157,0.3574 0.146,0.378 0.1331,0.3969 0.1186,0.4137 0.1026,0.4283 0.0855,0.4406 0.0673,0.4506 0.0484,0.458 0.0289,0.463 0.0091,0.4655 -0.0108,0.4654 -0.0306,0.4627 -0.05,0.4575 -0.0689,0.4498 -0.087,0.4397 -0.1041,0.4271 -0.1199,0.4123 -0.1343,0.3953 -0.147,0.3764 -0.1579,0.3555 -0.1667,0.3331 -0.1733,0.3092 -0.1775,0.2842 -0.1792,0.2584 -0.1784,0.2321 -0.1751,0.2057 -0.1691,0.1793 -0.1607,0.1535 -0.1499,0.1286 -0.1368,0.1049 -0.1218,0.0828 -0.105,0.0626 -0.0868,0.0447 -0.0678,0.0294 -0.0484,0.017 -0.0295,0.0078 -0.0125,0.0021 0,0 z"
         id="path4680"
         style="stroke:#565656;stroke-width:0.021875;stroke-miterlimit:4;stroke-opacity:1;stroke-dasharray:none" />
      <g
         id="arrows14"
         style="stroke:#565656;stroke-width:0.021875;stroke-miterlimit:4;stroke-opacity:1;stroke-dasharray:none">
        <use
           height="1052.3622"
           width="744.09448"
           y="0"
           x="0"
           xlink:href="#arrow1"
           transform="matrix(-1.3604576,-0.33038631,0.33038631,-1.3604576,0.0018,0.4582)"
           id="use4683"
           style="stroke:#565656;stroke-width:0.015625;stroke-miterlimit:4;stroke-opacity:1;stroke-dasharray:none" />
      </g>
    </g>
    <g
       style="fill:none;stroke:#565656;stroke-width:0.021875;stroke-linecap:round;stroke-linejoin:round;stroke-miterlimit:4;stroke-opacity:1;stroke-dasharray:none"
       id="fieldline15"
       transform="matrix(-13.860378,-25.955387,-25.955387,13.860378,105.94285,180.49417)">
      <path
         inkscape:connector-curvature="0"
         d="M 0,0 0.0113,0.0022 0.0257,0.008 0.0411,0.017 0.0565,0.0289 0.071,0.0434 0.0841,0.0601 0.0953,0.0785 0.1045,0.0983 0.1113,0.1189 0.1157,0.1401 0.1176,0.1613 0.117,0.1822 0.1139,0.2023 0.1085,0.2214 0.1009,0.239 0.0914,0.255 0.0802,0.2691 0.0675,0.281 0.0537,0.2907 0.0389,0.2981 0.0234,0.303 0.0076,0.3054 l -0.0159,0 L -0.0242,0.3028 -0.0396,0.2978 -0.0543,0.2903 -0.0682,0.2805 -0.0808,0.2684 -0.0919,0.2543 -0.1013,0.2382 -0.1088,0.2205 -0.1141,0.2014 -0.117,0.1812 -0.1176,0.1603 -0.1156,0.1391 -0.1111,0.1179 -0.1041,0.0973 -0.0948,0.0776 -0.0835,0.0592 -0.0703,0.0426 -0.0558,0.0283 -0.0404,0.0165 -0.0249,0.0076 -0.0107,0.002 0,0 z"
         id="path4686"
         style="stroke:#565656;stroke-width:0.021875;stroke-miterlimit:4;stroke-opacity:1;stroke-dasharray:none" />
    </g>
    <path
       inkscape:connector-curvature="0"
       style="color:#000000;fill:#d8d8d8;fill-opacity:1;fill-rule:nonzero;stroke:#000000;stroke-width:0.6520229;stroke-miterlimit:4;stroke-opacity:1;stroke-dasharray:none;marker:none;visibility:visible;display:inline;overflow:visible"
       d="m 112.85794,172.15761 c -0.17567,-0.10939 -0.54746,-0.11182 -0.69889,-0.0997 -0.16803,0.0134 -0.17358,-0.14662 -0.35816,-0.1487 -0.18456,-0.002 -0.3414,0.16286 -0.53218,0.21714 -0.19077,0.0542 -0.49968,0.16821 -0.61549,0.30831 -0.11581,0.14011 -0.0551,0.24533 -0.1146,0.39163 -0.0595,0.14631 -0.25017,0.19792 -0.2781,0.32716 -0.0279,0.12925 0.0529,0.12634 0.0364,0.35951 -0.0165,0.23317 -0.24252,0.7056 -0.52636,0.85913 -0.28384,0.15355 -1.25584,0.0961 -1.53191,-0.007 -0.27607,-0.1034 -0.67284,-0.42651 -1.17433,-0.30607 -0.50149,0.12045 -0.94672,0.71291 -1.10182,0.87834 -0.15511,0.16544 -0.31285,0.24898 -0.47054,0.33427 -0.15766,0.0853 -0.76319,0.77818 -1.12924,1.11886 -0.36605,0.34069 -0.66128,0.34349 -1.12505,0.88787 -0.46377,0.54439 -1.26768,2.24864 -1.53654,2.61829 -0.26885,0.36964 -0.4355,0.39704 -0.63042,0.82046 -0.19492,0.42342 -0.10902,0.8626 -0.24242,1.20381 -0.13339,0.34122 -0.54295,1.04386 -0.66446,1.25635 -0.12149,0.21249 -0.58641,0.7549 -0.772535,0.95343 -0.186131,0.19852 -0.52723,0.0677 -1.495092,1.14967 -0.967862,1.08206 -1.647073,2.73127 -1.990891,3.0151 -0.343812,0.28382 -1.544234,0.55695 -1.707611,0.71464 -0.163383,0.15768 -0.201359,0.47834 -0.06592,0.69858 0.135449,0.22025 0.288849,0.25524 0.756742,0.33642 0.467881,0.0812 0.436505,-0.19748 0.712593,-0.34275 0.276082,-0.14527 0.443718,0.10556 0.631395,-0.0449 0.187677,-0.15044 0.729953,-1.14978 1.004243,-1.43654 0.419063,-0.43812 0.910937,-0.65851 1.404713,-1.01626 0.34982,-0.25345 0.695743,-0.51081 1.067999,-0.90786 0.372254,-0.39705 0.454564,-0.68747 0.718804,-0.86624 0.79675,-0.53906 1.90978,-1.5933 2.2451,-1.96634 0.17505,-0.19473 0.54121,-0.38989 0.752,-0.49459 -0.0753,0.22306 -0.22127,0.61044 -0.39047,0.81013 -0.32426,0.38268 -1.21832,1.62806 -1.64468,2.49038 -0.14139,0.28599 -0.41406,0.40654 -0.75712,0.82908 -0.34306,0.42252 -0.55524,0.80034 -0.759062,1.18122 -0.287688,0.53761 -0.437695,1.05266 -0.81512,1.52712 -0.247036,0.31055 -1.165712,0.98509 -1.289386,1.19139 -0.123686,0.2063 0.149629,0.34032 0.04303,0.63352 -0.1066,0.29319 -0.389074,0.29794 -0.245359,0.75055 0.143709,0.4526 0.199122,0.59987 0.435666,0.70429 0.236539,0.10442 0.549118,0.0235 0.683257,-0.15978 0.134137,-0.18319 0.242431,-1.40953 0.477155,-1.78856 0.234719,-0.37904 1.779049,-1.27319 2.720279,-2.37848 0.94124,-1.1053 0.7633,-1.42741 0.93483,-1.63867 0.17153,-0.21127 0.6461,-0.74526 0.8402,-0.89439 0.19411,-0.14912 0.83491,-0.64992 1.15496,-0.82824 0.32004,-0.17831 0.76891,-0.15074 1.16208,-0.40113 0.39317,-0.2504 0.39778,-0.41921 0.72768,-0.73558 0.32989,-0.31638 1.90765,-1.34522 2.38433,-1.87834 0.47667,-0.53313 0.43952,-0.82602 0.72758,-1.23478 0.28806,-0.40876 0.89477,-1.10058 0.95799,-1.26833 0.0632,-0.16777 0.12647,-0.33747 0.26942,-0.51352 0.14294,-0.17606 0.66763,-0.69915 0.71915,-1.21233 0.0515,-0.51318 -0.32411,-0.86048 -0.46391,-1.12004 -0.13978,-0.25955 -0.32631,-1.21697 -0.21256,-1.51897 0.11375,-0.30199 0.54944,-0.58766 0.77823,-0.63559 0.22878,-0.0479 0.23683,0.0326 0.36111,-0.0126 0.12428,-0.0452 0.15359,-0.24135 0.29051,-0.32005 0.13692,-0.0787 0.24726,-0.0346 0.37042,-0.16836 0.12316,-0.13369 0.19427,-0.45517 0.22225,-0.65154 0.0279,-0.19635 0.16835,-0.37195 0.14133,-0.55454 -0.0271,-0.18259 -0.18425,-0.1646 -0.19366,-0.33291 -0.008,-0.15147 -0.0634,-0.51727 -0.19513,-0.67687 -7.5e-4,-0.001 -7.5e-4,-0.004 -0.002,-0.006 z m -7.46332,5.31202 c 0.0564,0.0554 -0.0375,0.2889 -0.2164,0.47412 -0.20688,0.21422 -0.5178,0.39089 -0.69146,0.56606 -0.54036,0.54504 -1.65159,1.60045 -1.7219,1.52905 -0.1015,-0.10306 0.8172,-1.04884 1.15054,-1.39079 0.3033,-0.31114 0.90586,-0.95255 0.90586,-0.95255 0.147,-0.14742 0.4248,-0.37175 0.57336,-0.22589 z m 3.21145,2.80293 c 0.1646,0.12746 -0.0201,0.43304 -0.14628,0.59863 0,0 -0.55404,0.68377 -0.82129,1.02635 -0.29374,0.37652 -1.1066,1.41467 -1.22244,1.32805 -0.0803,-0.06 0.81731,-1.3019 1.28427,-1.911 0.15008,-0.19577 0.28308,-0.52771 0.46735,-0.76166 0.15934,-0.20229 0.37589,-0.32878 0.43839,-0.28037 z"
       id="path3614-1" />
    <path
       sodipodi:type="arc"
       style="color:#000000;fill:#000000;fill-opacity:1;stroke:none;stroke-width:1;marker:none;visibility:visible;display:inline;overflow:visible;enable-background:accumulate"
       id="path5239"
       sodipodi:cx="71.533768"
       sodipodi:cy="261.69247"
       sodipodi:rx="1.356519"
       sodipodi:ry="1.356519"
       d="m 72.890287,261.69247 a 1.356519,1.356519 0 1 1 -2.713038,0 1.356519,1.356519 0 1 1 2.713038,0 z"
       transform="matrix(1.2666667,0,0,1.2666667,-20.157455,-70.054248)" />
    <path
       sodipodi:type="arc"
       style="color:#000000;fill:#000000;fill-opacity:1;stroke:none;stroke-width:1;marker:none;visibility:visible;display:inline;overflow:visible;enable-background:accumulate"
       id="path5239-5"
       sodipodi:cx="71.533768"
       sodipodi:cy="261.69247"
       sodipodi:rx="1.356519"
       sodipodi:ry="1.356519"
       d="m 72.890287,261.69247 a 1.356519,1.356519 0 1 1 -2.713038,0 1.356519,1.356519 0 1 1 2.713038,0 z"
       transform="matrix(1.2666667,0,0,1.2666667,7.5819444,-93.02979)" />
    <path
       sodipodi:type="arc"
       style="color:#000000;fill:#000000;fill-opacity:1;stroke:none;stroke-width:1;marker:none;visibility:visible;display:inline;overflow:visible;enable-background:accumulate"
       id="path5239-8"
       sodipodi:cx="71.533768"
       sodipodi:cy="261.69247"
       sodipodi:rx="1.356519"
       sodipodi:ry="1.356519"
       d="m 72.890287,261.69247 a 1.356519,1.356519 0 1 1 -2.713038,0 1.356519,1.356519 0 1 1 2.713038,0 z"
       transform="matrix(1.2666667,0,0,1.2666667,21.143703,-128.70906)" />
    <text
       xml:space="preserve"
       style="font-size:10px;font-style:normal;font-variant:normal;font-weight:normal;font-stretch:normal;text-indent:0;text-align:start;text-decoration:none;line-height:125%;letter-spacing:0px;word-spacing:0px;text-transform:none;direction:ltr;block-progression:tb;writing-mode:lr-tb;text-anchor:start;color:#000000;fill:#000000;fill-opacity:1;fill-rule:nonzero;stroke:none;stroke-width:1px;marker:none;visibility:visible;display:inline;overflow:visible;enable-background:accumulate;font-family:FreeSans;-inkscape-font-specification:FreeSans"
       x="64.431534"
       y="258.96466"
       id="text5308"
       sodipodi:linespacing="125%"><tspan
         sodipodi:role="line"
         id="tspan5310"
         x="64.431534"
         y="258.96466">A</tspan></text>
    <text
       xml:space="preserve"
       style="font-size:10px;font-style:normal;font-variant:normal;font-weight:normal;font-stretch:normal;text-indent:0;text-align:start;text-decoration:none;line-height:125%;letter-spacing:0px;word-spacing:0px;text-transform:none;direction:ltr;block-progression:tb;writing-mode:lr-tb;text-anchor:start;color:#000000;fill:#000000;fill-opacity:1;fill-rule:nonzero;stroke:none;stroke-width:1px;marker:none;visibility:visible;display:inline;overflow:visible;enable-background:accumulate;font-family:FreeSans;-inkscape-font-specification:FreeSans"
       x="100.55633"
       y="244.13731"
       id="text5312"
       sodipodi:linespacing="125%"><tspan
         sodipodi:role="line"
         id="tspan5314"
         x="100.55633"
         y="244.13731">B</tspan></text>
    <text
       xml:space="preserve"
       style="font-size:10px;font-style:normal;font-variant:normal;font-weight:normal;font-stretch:normal;text-indent:0;text-align:start;text-decoration:none;line-height:125%;letter-spacing:0px;word-spacing:0px;text-transform:none;direction:ltr;block-progression:tb;writing-mode:lr-tb;text-anchor:start;color:#000000;fill:#000000;fill-opacity:1;fill-rule:nonzero;stroke:none;stroke-width:1px;marker:none;visibility:visible;display:inline;overflow:visible;enable-background:accumulate;font-family:FreeSans;-inkscape-font-specification:FreeSans"
       x="114.03573"
       y="207.74294"
       id="text5316"
       sodipodi:linespacing="125%"><tspan
         sodipodi:role="line"
         id="tspan5318"
         x="114.03573"
         y="207.74294">C</tspan></text>
    <path
       sodipodi:type="arc"
       style="color:#000000;fill:#000000;fill-opacity:1;stroke:none;stroke-width:1;marker:none;visibility:visible;display:inline;overflow:visible;enable-background:accumulate"
       id="path5239-8-7"
       sodipodi:cx="71.533768"
       sodipodi:cy="261.69247"
       sodipodi:rx="1.356519"
       sodipodi:ry="1.356519"
       d="m 72.890287,261.69247 a 1.356519,1.356519 0 1 1 -2.713038,0 1.356519,1.356519 0 1 1 2.713038,0 z"
       transform="matrix(1.2666667,0,0,1.2666667,4.0159512,-171.72087)" />
    <text
       xml:space="preserve"
       style="font-size:10px;font-style:normal;font-variant:normal;font-weight:normal;font-stretch:normal;text-indent:0;text-align:start;text-decoration:none;line-height:125%;letter-spacing:0px;word-spacing:0px;text-transform:none;direction:ltr;block-progression:tb;writing-mode:lr-tb;text-anchor:start;color:#000000;fill:#000000;fill-opacity:1;fill-rule:nonzero;stroke:none;stroke-width:1px;marker:none;visibility:visible;display:inline;overflow:visible;enable-background:accumulate;font-family:FreeSans;-inkscape-font-specification:FreeSans"
       x="89.50322"
       y="156.25163"
       id="text5338"
       sodipodi:linespacing="125%"><tspan
         sodipodi:role="line"
         id="tspan5340"
         x="89.50322"
         y="156.25163">D</tspan></text>
  </g>
</svg>
