<?xml version="1.0" encoding="UTF-8" standalone="no"?>
<!-- Generator: Adobe Illustrator 11 Build 196, SVG Export Plug-In . SVG Version: 6.0.0 Build 78)  -->
<svg
   xmlns:dc="http://purl.org/dc/elements/1.1/"
   xmlns:cc="http://web.resource.org/cc/"
   xmlns:rdf="http://www.w3.org/1999/02/22-rdf-syntax-ns#"
   xmlns:svg="http://www.w3.org/2000/svg"
   xmlns="http://www.w3.org/2000/svg"
   xmlns:sodipodi="http://inkscape.sourceforge.net/DTD/sodipodi-0.dtd"
   xmlns:inkscape="http://www.inkscape.org/namespaces/inkscape"
   width="117.418"
   height="53.57"
   viewBox="0 0 117.418 53.57"
   style="overflow:visible;enable-background:new 0 0 117.418 53.57"
   xml:space="preserve"
   id="svg2"
   sodipodi:version="0.32"
   sodipodi:docname="eg-charged-rod.svg"
   sodipodi:docbase="/home/bcrowell/Documents/writing/lm/trunk/4em/ch05/figs"><metadata
   id="metadata54"><rdf:RDF><cc:Work
       rdf:about=""><dc:format>image/svg+xml</dc:format><dc:type
         rdf:resource="http://purl.org/dc/dcmitype/StillImage" /></cc:Work></rdf:RDF></metadata><defs
   id="defs52" /><sodipodi:namedview
   inkscape:cy="30.377742"
   inkscape:cx="59.636440"
   inkscape:zoom="4.8316077"
   inkscape:window-height="510"
   inkscape:window-width="712"
   inkscape:pageshadow="2"
   inkscape:pageopacity="0.0"
   borderopacity="1.0"
   bordercolor="#666666"
   pagecolor="#ffffff"
   id="base"
   inkscape:window-x="263"
   inkscape:window-y="263"
   inkscape:current-layer="svg2" />
	<style
   type="text/css"
   id="style4">
	
	</style>
	<g
   id="Layer_1">
		<circle
   cx="116.04"
   cy="25.288"
   r="1.379"
   id="circle7" /> 
		<g
   id="g9">
			<rect
   x="0.25"
   y="20.644"
   style="fill:none;stroke:#000000;stroke-width:0.5;"
   width="75"
   height="9"
   id="rect11" /> 
			<line
   x1="0"
   y1="14.312"
   x2="0"
   y2="7.646"
   id="line13" />
			<line
   x1="74.886"
   y1="14.312"
   x2="74.886"
   y2="7.646"
   id="line15" />
			<g
   id="g17">
				<line
   x1="3.102"
   y1="10.979"
   x2="71.456"
   y2="10.979"
   id="line19" />
				<path
   d="M74.558,10.979c-1.459,0.542-3.271,1.465-4.393,2.444l0.884-2.444l-0.884-2.444      C71.287,9.514,73.098,10.438,74.558,10.979z"
   id="path21" />
				<path
   d="M0,10.979c1.459-0.542,3.27-1.466,4.393-2.444l-0.884,2.444l0.884,2.443C3.27,12.445,1.459,11.521,0,10.979z"
   id="path23" />
			</g>
		</g>
		<g
   id="g25">
			<text
   transform="matrix(1 0 0 1 35.5264 8)"
   id="text27"><tspan
     x="0"
     y="0"
     style="font-family:Liberation Sans; font-size:6.800000;"
     id="tspan29">L</tspan></text>

		</g>
		<g
   id="g31">
			<line
   x1="38.451"
   y1="44"
   x2="38.451"
   y2="37.333"
   id="line33" />
			<line
   x1="116.04"
   y1="44"
   x2="116.04"
   y2="37.333"
   id="line35" />
			<g
   id="g37">
				<line
   x1="41.468"
   y1="40.667"
   x2="112.468"
   y2="40.667"
   id="line39" />
				<path
   d="M115.486,40.667c-1.42,0.527-3.182,1.426-4.273,2.377l0.86-2.377l-0.86-2.377      C112.304,39.241,114.066,40.14,115.486,40.667z"
   id="path41" />
				<path
   d="M38.451,40.667c1.42-0.527,3.182-1.426,4.273-2.377l-0.86,2.377l0.86,2.377C41.632,42.093,39.871,41.193,38.451,40.667z      "
   id="path43" />
			</g>
		</g>
		<g
   id="g45">
			<text
   transform="matrix(1 0 0 1 77.0396 50)"
   id="text47"><tspan
     x="0"
     y="0"
     style="font-family:Liberation Sans; font-size:6.800000;"
     id="tspan49">d</tspan></text>

		</g>
	</g>
<path
   style="fill:none;fill-opacity:0.75000000;fill-rule:evenodd;stroke:#000000;stroke-width:0.25000000pt;stroke-linecap:butt;stroke-linejoin:miter;stroke-opacity:1.0000000"
   d="M 2.2766749,10.727118 L 72.025715,10.727118"
   id="path1352" /><path
   style="fill:none;fill-opacity:0.75000000;fill-rule:evenodd;stroke:#000000;stroke-width:0.25000000pt;stroke-linecap:butt;stroke-linejoin:miter;stroke-opacity:1.0000000"
   d="M 40.773178,40.530862 L 113.21283,40.530862"
   id="path1354" /></svg>