<?xml version="1.0" encoding="UTF-8" standalone="no"?>
<!-- Created with Inkscape (http://www.inkscape.org/) -->
<svg
   xmlns:dc="http://purl.org/dc/elements/1.1/"
   xmlns:cc="http://web.resource.org/cc/"
   xmlns:rdf="http://www.w3.org/1999/02/22-rdf-syntax-ns#"
   xmlns:svg="http://www.w3.org/2000/svg"
   xmlns="http://www.w3.org/2000/svg"
   xmlns:sodipodi="http://sodipodi.sourceforge.net/DTD/sodipodi-0.dtd"
   xmlns:inkscape="http://www.inkscape.org/namespaces/inkscape"
   width="744.09448819"
   height="1052.3622047"
   id="svg2201"
   sodipodi:version="0.32"
   sodipodi:docbase="/home/bcrowell/Documents/writing/books/physics/0sn/ch11/figs"
   sodipodi:docname="eg-magnetic-shielding-sphere.svg"
   inkscape:output_extension="org.inkscape.output.svg.inkscape">
  <defs
     id="defs2203" />
  <sodipodi:namedview
     id="base"
     pagecolor="#ffffff"
     bordercolor="#666666"
     borderopacity="1.0"
     gridtolerance="10000"
     guidetolerance="10"
     objecttolerance="10"
     inkscape:pageopacity="0.0"
     inkscape:pageshadow="2"
     inkscape:zoom="0.87563177"
     inkscape:cx="386.93878"
     inkscape:cy="482.44898"
     inkscape:document-units="px"
     inkscape:current-layer="layer1"
     inkscape:window-width="1278"
     inkscape:window-height="996"
     inkscape:window-x="0"
     inkscape:window-y="0" />
  <metadata
     id="metadata2206">
    <rdf:RDF>
      <cc:Work
         rdf:about="">
        <dc:format>image/svg+xml</dc:format>
        <dc:type
           rdf:resource="http://purl.org/dc/dcmitype/StillImage" />
      </cc:Work>
    </rdf:RDF>
  </metadata>
  <g
     inkscape:label="Layer 1"
     inkscape:groupmode="layer"
     id="layer1">
    <rect
       style="fill:#dedede;fill-opacity:1;fill-rule:evenodd;stroke:none;stroke-width:1.4775712pt;stroke-linecap:butt;stroke-linejoin:miter;stroke-opacity:1"
       id="rect3139"
       width="605.90552"
       height="407.48032"
       x="73.7994"
       y="360.6954" />
    <path
       style="fill:#7f7f7f;fill-rule:evenodd;stroke:none;stroke-width:1.14809046pt;stroke-linecap:butt;stroke-linejoin:miter;stroke-opacity:1"
       d="M 376.75216,407.36588 C 290.05312,407.36588 219.68246,477.73656 219.68247,564.43557 C 219.68247,651.1346 290.05312,721.50522 376.75216,721.50525 C 463.45119,721.50525 533.82185,651.13463 533.82184,564.43557 C 533.82184,477.73653 463.45119,407.36587 376.75216,407.36588 z M 376.75216,455.19525 C 437.04645,455.19526 485.99247,504.14127 485.99247,564.43557 C 485.99247,624.72983 437.04645,673.64494 376.75216,673.64494 C 316.45786,673.64494 267.51184,624.72986 267.51184,564.43557 C 267.51184,504.14124 316.45786,455.19525 376.75216,455.19525 z "
       id="path2164" />
    <g
       id="g2195"
       transform="matrix(1.1703517,0,0,1.4610188,-68.918353,498.74056)">
      <path
         d="M 406.48615,124.12048 L 409.99536,122.00862 L 405.60884,122.3997 M 396.05599,126.54522 L 409.99536,122.00862 M 422.76498,121.9304 L 425.68933,119.03636 L 421.30281,120.36605 M 412.9197,126.54522 L 425.68933,119.03636 M 438.84887,121.30466 L 441.28582,118.17597 L 437.19174,119.81853 M 429.88088,126.54522 L 441.28582,118.17597 M 211.72496,112.62254 L 213.57705,111.21463 L 211.04262,111.68393 M 209.67792,112.93541 L 213.57705,111.21463 M 454.93275,121.61753 L 457.17474,118.80171 L 453.47058,120.36605 M 446.84207,126.54522 L 457.17474,118.80171 M 229.07606,112.23146 L 230.63571,110.58889 L 228.19876,111.29285 M 226.63911,112.93541 L 230.63571,110.58889 M 471.30906,122.47792 L 473.45358,120.05318 L 470.04185,121.30466 M 463.80325,126.54522 L 473.45358,120.05318 M 246.42716,111.5275 L 247.79185,109.7285 L 245.54985,110.66711 M 243.60029,112.93541 L 247.79185,109.7285 M 126.04174,113.3265 L 128.38121,112.46611 L 125.84678,112.30967 M 124.96948,112.93541 L 128.38121,112.46611 M 263.87573,110.35424 L 264.85051,108.47703 L 262.80347,109.7285 M 260.464,112.93541 L 264.85051,108.47703 M 143.1004,113.24828 L 145.3424,112.30967 L 142.80797,112.23146 M 141.93067,112.93541 L 145.3424,112.30967 M 282.98143,118.09775 L 286.10073,119.42745 L 284.24865,117.08093 M 277.42518,112.93541 L 286.10073,119.42745 M 160.15906,113.17006 L 162.40106,112.15324 L 159.86663,112.15324 M 158.89185,112.93541 L 162.40106,112.15324 M 299.84514,119.81853 L 303.25687,121.77396 L 301.59974,118.72349 M 294.38637,112.93541 L 303.25687,121.77396 M 177.3152,113.09185 L 179.45972,111.91859 L 176.92529,112.07502 M 175.85303,112.93541 L 179.45972,111.91859 M 317.09876,121.85218 L 320.9004,124.58979 L 319.34075,120.67892 M 311.34755,112.93541 L 320.9004,124.58979 M 194.47135,112.85719 L 196.51838,111.60572 L 193.98395,111.91859 M 192.71674,112.93541 L 196.51838,111.60572 M 194.56882,99.325603 L 196.61586,98.152343 L 194.08143,98.308778 M 192.71674,99.325603 L 196.61586,98.152343 M 454.83527,105.1919 L 456.39492,101.28103 L 452.59327,104.01864 M 446.84207,112.93541 L 456.39492,101.28103 M 125.94426,45.43389 L 128.47869,44.964586 L 125.94426,44.495282 M 124.96948,44.964586 L 128.47869,44.964586 M 211.82244,99.012733 L 213.772,97.683039 L 211.23757,98.074126 M 209.67792,99.325603 L 213.772,97.683039 M 470.91915,107.14733 L 472.57628,104.01864 L 469.26202,106.05229 M 463.80325,112.93541 L 472.57628,104.01864 M 143.00292,45.43389 L 145.53735,44.964586 L 143.00292,44.495282 M 141.93067,44.964586 L 145.53735,44.964586 M 229.36849,98.54343 L 231.02562,96.979084 L 228.58867,97.604822 M 226.63911,99.325603 L 231.02562,96.979084 M 126.04174,99.716689 L 128.38121,98.934516 L 125.84678,98.699864 M 124.96948,99.325603 L 128.38121,98.934516 M 160.15906,45.43389 L 162.69349,44.964586 L 160.15906,44.495282 M 158.89185,44.964586 L 162.69349,44.964586 M 246.91455,97.683039 L 248.27924,95.962259 L 245.93977,96.900867 M 243.60029,99.325603 L 248.27924,95.962259 M 143.1004,99.638472 L 145.43988,98.778082 L 142.90545,98.699864 M 141.93067,99.325603 L 145.43988,98.778082 M 177.3152,45.43389 L 179.84963,44.964586 L 177.3152,44.495282 M 175.85303,44.964586 L 179.84963,44.964586 M 295.5561,180.82802 L 297.11575,179.18546 L 294.77628,179.96763 M 294.38637,180.90624 L 297.11575,179.18546 M 264.55808,96.275128 L 265.63034,94.397913 L 263.48582,95.571173 M 260.464,99.325603 L 265.63034,94.397913 M 228.58867,-7.6756502 L 231.02562,-7.0499119 L 229.36849,-8.6142577 M 226.63911,-9.3964306 L 231.02562,-7.0499119 M 194.56882,45.43389 L 197.10325,44.964586 L 194.56882,44.495282 M 192.71674,44.964586 L 197.10325,44.964586 M 312.41981,180.90624 L 313.88198,179.18546 L 311.54251,180.04585 M 311.34755,180.90624 L 313.88198,179.18546 M 282.10413,105.34833 L 284.93099,107.06911 L 283.5663,104.40973 M 277.42518,99.325603 L 284.93099,107.06911 M 160.25654,99.560254 L 162.49854,98.621647 L 159.96411,98.621647 M 158.89185,99.325603 L 162.49854,98.621647 M 245.93977,-6.9716946 L 248.27924,-6.0330871 L 246.91455,-7.7538675 M 243.60029,-9.3964306 L 248.27924,-6.0330871 M 211.91992,45.43389 L 214.45435,44.964586 L 211.91992,44.495282 M 209.67792,44.964586 L 214.45435,44.964586 M 177.41268,85.950446 L 179.65468,85.011838 L 177.12025,85.011838 M 175.85303,85.715794 L 179.65468,85.011838 M 329.08856,181.06267 L 330.64821,179.42011 L 328.30874,180.20228 M 328.30874,180.90624 L 330.64821,179.42011 M 298.38297,108.08594 L 301.59974,110.97998 L 300.72244,107.22555 M 294.38637,99.325603 L 301.59974,110.97998 M 177.3152,99.482037 L 179.5572,98.465212 L 177.02277,98.465212 M 175.85303,99.325603 L 179.5572,98.465212 M 263.48582,-5.6420006 L 265.63034,-4.4687413 L 264.55808,-6.3459562 M 260.464,-9.3964306 L 265.63034,-4.4687413 M 229.56345,45.43389 L 232.09788,44.964586 L 229.56345,44.495282 M 226.63911,44.964586 L 232.09788,44.964586 M 194.6663,85.794011 L 196.81082,84.698969 L 194.27639,84.777187 M 192.71674,85.715794 L 196.81082,84.698969 M 464.09569,181.76663 L 466.43516,182.62702 L 464.97299,180.98445 M 463.80325,180.90624 L 466.43516,182.62702 M 345.65983,181.29732 L 347.41444,179.81119 L 344.97749,180.35871 M 345.17244,180.90624 L 347.41444,179.81119 M 283.5663,-14.480554 L 284.93099,-17.139942 L 282.10413,-15.419162 M 277.42518,-9.3964306 L 284.93099,-17.139942 M 125.94426,31.902299 L 128.47869,31.511212 L 126.04174,30.885474 M 124.96948,31.354778 L 128.47869,31.511212 M 247.49942,45.43389 L 250.03384,44.964586 L 247.49942,44.495282 M 243.60029,44.964586 L 250.03384,44.964586 M 212.0174,85.55936 L 214.06444,84.307883 L 211.53001,84.542535 M 209.67792,85.715794 L 214.06444,84.307883 M 125.84678,167.68751 L 128.18626,166.74891 L 125.65183,166.67069 M 124.96948,167.29643 L 128.18626,166.74891 M 362.13363,181.45376 L 364.27814,180.2805 L 361.74371,180.43693 M 362.13363,180.90624 L 364.27814,180.2805 M 300.72244,-17.296377 L 301.59974,-21.050807 L 298.38297,-18.156767 M 294.38637,-9.3964306 L 301.59974,-21.050807 M 143.00292,31.902299 L 145.53735,31.511212 L 143.1004,30.885474 M 141.93067,31.354778 L 145.53735,31.511212 M 262.60852,45.43389 L 265.14295,44.964586 L 262.60852,44.495282 M 260.464,44.964586 L 265.14295,44.964586 M 229.56345,85.011838 L 231.41553,83.603927 L 228.8811,84.073231 M 226.63911,85.715794 L 231.41553,83.603927 M 142.90545,167.6093 L 145.14744,166.67069 L 142.61301,166.67069 M 141.93067,167.29643 L 145.14744,166.67069 M 470.04185,91.425656 L 470.91915,87.671226 L 467.79985,90.565266 M 463.80325,99.325603 L 470.91915,87.671226 M 378.60742,181.37554 L 381.14185,180.90624 L 378.60742,180.43693 M 379.09481,180.90624 L 381.14185,180.90624 M 279.37474,28.851824 L 279.5697,26.818175 L 278.10753,28.460738 M 277.42518,31.354778 L 279.5697,26.818175 M 160.15906,31.902299 L 162.69349,31.589429 L 160.25654,30.963691 M 158.89185,31.354778 L 162.69349,31.589429 M 278.98483,166.82712 L 280.34952,165.10634 L 278.10753,166.04495 M 277.42518,167.29643 L 280.34952,165.10634 M 276.35292,45.43389 L 278.88735,44.964586 L 276.35292,44.495282 M 277.42518,44.964586 L 278.88735,44.964586 M 247.30446,84.229666 L 248.86411,82.587102 L 246.42716,83.291058 M 243.60029,85.715794 L 248.86411,82.587102 M 159.86663,167.6093 L 162.10863,166.59247 L 159.5742,166.59247 M 158.89185,167.29643 L 162.10863,166.59247 M 126.04174,86.106881 L 128.47869,85.402925 L 125.94426,85.090056 M 124.96948,85.715794 L 128.47869,85.402925 M 395.5686,181.37554 L 398.10303,181.45376 L 395.95852,180.35871 M 396.05599,180.90624 L 398.10303,181.45376 M 177.3152,31.980516 L 179.84963,31.667647 L 177.41268,30.963691 M 175.85303,31.354778 L 179.84963,31.667647 M 295.94602,166.74891 L 297.11575,164.94991 L 294.97124,166.04495 M 294.38637,167.29643 L 297.11575,164.94991 M 264.94799,89.86131 L 267.38494,90.878135 L 265.92277,89.00092 M 260.464,85.715794 L 267.38494,90.878135 M 176.92529,167.53108 L 179.06981,166.43604 L 176.53538,166.51425 M 175.85303,167.29643 L 179.06981,166.43604 M 143.1004,86.106881 L 145.43988,85.324708 L 142.90545,85.090056 M 141.93067,85.715794 L 145.43988,85.324708 M 412.62727,181.45376 L 415.1617,181.92306 L 413.30961,180.51515 M 412.9197,180.90624 L 415.1617,181.92306 M 211.04262,-21.754762 L 213.57705,-21.285459 L 211.72496,-22.69337 M 209.67792,-23.006239 L 213.57705,-21.285459 M 467.79985,-0.63609407 L 470.91915,2.2579457 L 470.04185,-1.4964843 M 463.80325,-9.3964306 L 470.91915,2.2579457 M 194.47135,31.980516 L 197.00577,31.745864 L 194.56882,31.041908 M 192.71674,31.354778 L 197.00577,31.745864 M 160.25654,72.497072 L 162.59602,71.714899 L 160.06159,71.558465 M 158.89185,72.184203 L 162.59602,71.714899 M 312.71224,166.82712 L 313.7845,164.94991 L 311.63999,166.12317 M 311.34755,167.29643 L 313.7845,164.94991 M 280.83692,91.973177 L 283.27387,94.006827 L 282.39656,91.269222 M 277.42518,85.715794 L 283.27387,94.006827 M 193.88648,167.53108 L 195.93352,166.2796 L 193.39909,166.51425 M 192.71674,167.29643 L 195.93352,166.2796 M 160.25654,86.028663 L 162.59602,85.168273 L 160.06159,85.011838 M 158.89185,85.715794 L 162.59602,85.168273 M 429.78341,181.53197 L 432.22036,182.31415 L 430.66071,180.67158 M 429.88088,180.90624 L 432.22036,182.31415 M 142.61301,-76.741517 L 145.14744,-76.741517 L 142.90545,-77.680125 M 141.93067,-77.367256 L 145.14744,-76.741517 M 228.19876,-21.363676 L 230.63571,-20.65972 L 229.07606,-22.302283 M 226.63911,-23.006239 L 230.63571,-20.65972 M 125.84678,-22.380501 L 128.38121,-22.536935 L 126.04174,-23.397325 M 124.96948,-23.006239 L 128.38121,-22.536935 M 211.91992,32.13695 L 214.45435,31.980516 L 212.11488,31.120126 M 209.67792,31.354778 L 214.45435,31.980516 M 177.41268,72.497072 L 179.75216,71.636682 L 177.21773,71.480247 M 175.85303,72.184203 L 179.75216,71.636682 M 447.1345,168.46969 L 449.27902,169.64295 L 448.20676,167.76573 M 446.84207,167.29643 L 449.27902,169.64295 M 329.38099,167.06178 L 330.45325,165.18456 L 328.40621,166.35782 M 328.30874,167.29643 L 330.45325,165.18456 M 210.94514,167.37464 L 212.8947,166.04495 L 210.36027,166.43604 M 209.67792,167.29643 L 212.8947,166.04495 M 447.03702,181.76663 L 449.3765,182.5488 L 447.91433,180.90624 M 446.84207,180.90624 L 449.3765,182.5488 M 159.5742,-76.6633 L 162.10863,-76.6633 L 159.86663,-77.680125 M 158.89185,-77.367256 L 162.10863,-76.6633 M 245.54985,-20.737938 L 247.79185,-19.79933 L 246.42716,-21.598328 M 243.60029,-23.006239 L 247.79185,-19.79933 M 142.80797,-22.302283 L 145.3424,-22.380501 L 143.1004,-23.319108 M 141.93067,-23.006239 L 145.3424,-22.380501 M 229.46597,32.371602 L 232.0004,32.293385 L 229.75841,31.354778 M 226.63911,31.354778 L 232.0004,32.293385 M 194.6663,72.340637 L 196.9083,71.40203 L 194.37387,71.40203 M 192.71674,72.184203 L 196.9083,71.40203 M 464.29064,168.5479 L 466.43516,169.64295 L 465.26542,167.76573 M 463.80325,167.29643 L 466.43516,169.64295 M 345.95227,167.45286 L 347.21948,165.65386 L 344.97749,166.67069 M 345.17244,167.29643 L 347.21948,165.65386 M 228.0038,167.29643 L 229.85588,165.8103 L 227.32145,166.2796 M 226.63911,167.29643 L 229.85588,165.8103 M 176.53538,-76.585083 L 179.06981,-76.506865 L 176.92529,-77.601907 M 175.85303,-77.367256 L 179.06981,-76.506865 M 262.80347,-19.79933 L 264.85051,-18.547853 L 263.87573,-20.425068 M 260.464,-23.006239 L 264.85051,-18.547853 M 159.86663,-22.224066 L 162.40106,-22.224066 L 160.15906,-23.240891 M 158.89185,-23.006239 L 162.40106,-22.224066 M 125.94426,18.29249 L 128.47869,17.979621 L 126.04174,17.275665 M 124.96948,17.744969 L 128.47869,17.979621 M 247.40194,32.762689 L 249.93637,32.762689 L 247.69437,31.745864 M 243.60029,31.354778 L 249.93637,32.762689 M 212.11488,72.184203 L 214.25939,71.089161 L 211.72496,71.089161 M 209.67792,72.184203 L 214.25939,71.089161 M 125.84678,154.07771 L 128.18626,153.21732 L 125.65183,153.06088 M 124.96948,153.68662 L 128.18626,153.21732 M 362.2311,167.92217 L 363.88823,166.35782 L 361.45128,166.98356 M 362.13363,167.29643 L 363.88823,166.35782 M 245.06246,167.13999 L 246.71959,165.57565 L 244.28264,166.2796 M 243.60029,167.29643 L 246.71959,165.57565 M 311.63999,-76.193996 L 313.7845,-75.020737 L 312.71224,-76.897952 M 311.34755,-77.367256 L 313.7845,-75.020737 M 193.39909,-76.585083 L 195.93352,-76.350431 L 193.88648,-77.601907 M 192.71674,-77.367256 L 195.93352,-76.350431 M 284.24865,-27.151755 L 286.10073,-29.498274 L 282.98143,-28.16858 M 277.42518,-23.006239 L 286.10073,-29.498274 M 176.92529,-22.145849 L 179.45972,-21.989414 L 177.3152,-23.162674 M 175.85303,-23.006239 L 179.45972,-21.989414 M 143.00292,18.370707 L 145.53735,18.057838 L 143.1004,17.353883 M 141.93067,17.744969 L 145.53735,18.057838 M 262.41356,152.98266 L 263.68077,151.18367 L 261.43878,152.20049 M 260.464,153.68662 L 263.68077,151.18367 M 263.77825,30.337953 L 265.53286,28.851824 L 263.09591,29.399345 M 260.464,31.354778 L 265.53286,28.851824 M 229.66093,71.793116 L 231.70797,70.54164 L 229.17354,70.776292 M 226.63911,72.184203 L 231.70797,70.54164 M 142.90545,153.99949 L 145.14744,153.06088 L 142.61301,153.06088 M 141.93067,153.68662 L 145.14744,153.06088 M 378.21751,167.76573 L 380.75194,167.29643 L 378.21751,166.82712 M 379.09481,167.29643 L 380.75194,167.29643 M 262.02365,166.98356 L 263.5833,165.341 L 261.24382,166.12317 M 260.464,167.29643 L 263.5833,165.341 M 328.40621,-76.428648 L 330.45325,-75.255389 L 329.38099,-77.132604 M 328.30874,-77.367256 L 330.45325,-75.255389 M 210.36027,-76.506865 L 212.8947,-76.115779 L 210.94514,-77.445473 M 209.67792,-77.367256 L 212.8947,-76.115779 M 301.59974,-28.794318 L 303.25687,-31.844793 L 299.84514,-29.889361 M 294.38637,-23.006239 L 303.25687,-31.844793 M 264.94799,15.242016 L 266.31268,13.521235 L 263.97321,14.459843 M 260.464,17.744969 L 266.31268,13.521235 M 193.98395,-21.989414 L 196.51838,-21.676545 L 194.47135,-22.928022 M 192.71674,-23.006239 L 196.51838,-21.676545 M 160.06159,18.370707 L 162.59602,18.214273 L 160.25654,17.4321 M 158.89185,17.744969 L 162.59602,18.214273 M 279.37474,152.66979 L 280.447,150.79258 L 278.30249,151.96584 M 277.42518,153.68662 L 280.447,150.79258 M 247.59689,71.010944 L 249.44898,69.603032 L 246.91455,70.072336 M 243.60029,72.184203 L 249.44898,69.603032 M 159.96411,153.99949 L 162.10863,152.90445 L 159.5742,152.90445 M 158.89185,153.68662 L 162.10863,152.90445 M 126.04174,72.653507 L 128.47869,71.949551 L 125.94426,71.636682 M 124.96948,72.184203 L 128.47869,71.949551 M 395.37365,167.6093 L 397.8106,168.15682 L 396.05599,166.67069 M 396.05599,167.29643 L 397.8106,168.15682 M 344.97749,-76.741517 L 347.21948,-75.724692 L 345.95227,-77.52369 M 345.17244,-77.367256 L 347.21948,-75.724692 M 227.32145,-76.350431 L 229.85588,-75.881127 L 228.0038,-77.367256 M 226.63911,-77.367256 L 229.85588,-75.881127 M 193.789,-35.599223 L 196.32343,-35.286354 L 194.37387,-36.616047 M 192.71674,-36.616047 L 196.32343,-35.286354 M 319.34075,-30.749751 L 320.9004,-34.660615 L 317.09876,-31.92301 M 311.34755,-23.006239 L 320.9004,-34.660615 M 280.93439,12.660845 L 281.32431,10.314327 L 279.5697,12.191541 M 277.42518,17.744969 L 281.32431,10.314327 M 177.21773,18.448925 L 179.75216,18.29249 L 177.41268,17.4321 M 175.85303,17.744969 L 179.75216,18.29249 M 143.1004,59.043698 L 145.53735,58.41796 L 143.00292,58.026873 M 141.93067,58.574394 L 145.53735,58.41796 M 296.33593,152.43514 L 297.21323,150.47971 L 295.26367,151.8094 M 294.38637,153.68662 L 297.21323,150.47971 M 263.97321,75.469329 L 266.31268,76.407937 L 264.94799,74.687156 M 260.464,72.184203 L 266.31268,76.407937 M 176.92529,153.92127 L 179.06981,152.74801 L 176.53538,152.90445 M 175.85303,153.68662 L 179.06981,152.74801 M 143.1004,72.575289 L 145.53735,71.871334 L 143.00292,71.558465 M 141.93067,72.184203 L 145.53735,71.871334 M 412.72474,167.92217 L 414.96674,168.93899 L 413.69952,167.13999 M 412.9197,167.29643 L 414.96674,168.93899 M 125.65183,-90.351326 L 128.18626,-90.429543 L 125.84678,-91.36815 M 124.96948,-90.977064 L 128.18626,-90.429543 M 361.45128,-77.054386 L 363.88823,-76.428648 L 362.2311,-77.992994 M 362.13363,-77.367256 L 363.88823,-76.428648 M 244.28264,-76.350431 L 246.71959,-75.646475 L 245.06246,-77.210821 M 243.60029,-77.367256 L 246.71959,-75.646475 M 210.84766,-35.442788 L 213.38209,-34.895267 L 211.53001,-36.381396 M 209.67792,-36.616047 L 213.38209,-34.895267 M 452.59327,-14.089468 L 456.39492,-11.351863 L 454.83527,-15.262727 M 446.84207,-23.006239 L 456.39492,-11.351863 M 160.25654,58.965481 L 162.69349,58.339743 L 160.15906,58.026873 M 158.89185,58.574394 L 162.69349,58.339743 M 430.17332,155.32918 L 431.92792,156.89353 L 431.44053,154.85988 M 429.88088,153.68662 L 431.92792,156.89353 M 313.10216,152.35693 L 313.7845,150.32328 L 311.93242,151.8094 M 311.34755,153.68662 L 313.7845,150.32328 M 279.5697,77.737631 L 281.32431,79.614845 L 280.93439,77.268327 M 277.42518,72.184203 L 281.32431,79.614845 M 193.98395,153.84305 L 196.03099,152.59158 L 193.49656,152.82623 M 192.71674,153.68662 L 196.03099,152.59158 M 429.97836,168.23504 L 432.12288,169.40829 L 431.05062,167.53108 M 429.88088,167.29643 L 432.12288,169.40829 M 142.51553,-90.351326 L 145.04996,-90.351326 L 142.80797,-91.36815 M 141.93067,-90.977064 L 145.04996,-90.351326 M 378.21751,-76.897952 L 380.75194,-77.367256 L 378.21751,-77.836559 M 379.09481,-77.367256 L 380.75194,-77.367256 M 261.24382,-76.193996 L 263.5833,-75.411823 L 262.02365,-77.054386 M 260.464,-77.367256 L 263.5833,-75.411823 M 228.0038,-35.129919 L 230.34327,-34.347746 L 228.78363,-35.990309 M 226.63911,-36.616047 L 230.34327,-34.347746 M 469.26202,-16.123117 L 472.57628,-14.089468 L 470.91915,-17.21816 M 463.80325,-23.006239 L 472.57628,-14.089468 M 194.37387,18.527142 L 196.9083,18.527142 L 194.6663,17.588534 M 192.71674,17.744969 L 196.9083,18.527142 M 447.42694,155.56383 L 449.27902,157.04996 L 448.59667,155.01631 M 446.84207,153.68662 L 449.27902,157.04996 M 329.86838,152.59158 L 330.35577,150.55793 L 328.60117,152.04406 M 328.30874,153.68662 L 330.35577,150.55793 M 211.1401,153.68662 L 212.99218,152.27871 L 210.45775,152.74801 M 209.67792,153.68662 L 212.99218,152.27871 M 159.47672,-90.273108 L 162.01115,-90.273108 L 159.76915,-91.289933 M 158.89185,-90.977064 L 162.01115,-90.273108 M 396.05599,-76.741517 L 397.8106,-78.227646 L 395.37365,-77.680125 M 396.05599,-77.367256 L 397.8106,-78.227646 M 372.56378,-38.962566 L 376.17047,-41.074433 L 371.68648,-40.683347 M 362.13363,-36.616047 L 376.17047,-41.074433 M 278.10753,-76.115779 L 280.34952,-75.177171 L 278.98483,-76.897952 M 277.42518,-77.367256 L 280.34952,-75.177171 M 245.15994,-34.660615 L 247.40194,-33.722008 L 246.03724,-35.521005 M 243.60029,-36.616047 L 247.40194,-33.722008 M 125.74931,-35.990309 L 128.28374,-36.068526 L 125.94426,-37.007134 M 124.96948,-36.616047 L 128.28374,-36.068526 M 211.72496,18.840011 L 214.25939,18.840011 L 212.11488,17.744969 M 209.67792,17.744969 L 214.25939,18.840011 M 177.41268,58.965481 L 179.84963,58.261525 L 177.3152,57.948656 M 175.85303,58.574394 L 179.84963,58.261525 M 464.58308,155.56383 L 466.53264,156.89353 L 465.75281,154.9381 M 463.80325,153.68662 L 466.53264,156.89353 M 346.2447,153.21732 L 346.82957,151.18367 L 345.07496,152.66979 M 345.17244,153.68662 L 346.82957,151.18367 M 228.19876,153.53018 L 229.95336,151.96584 L 227.51641,152.59158 M 226.63911,153.68662 L 229.95336,151.96584 M 294.77628,-90.038457 L 297.11575,-89.256284 L 295.5561,-90.898847 M 294.38637,-90.977064 L 297.11575,-89.256284 M 176.4379,-90.273108 L 178.97233,-90.194891 L 176.82781,-91.289933 M 175.85303,-90.977064 L 178.97233,-90.194891 M 413.69952,-77.210821 L 414.96674,-79.009819 L 412.72474,-77.992994 M 412.9197,-77.367256 L 414.96674,-79.009819 M 389.42749,-35.755657 L 393.61904,-36.616047 L 389.42749,-37.476438 M 379.09481,-36.616047 L 393.61904,-36.616047 M 294.97124,-76.115779 L 297.11575,-75.020737 L 295.94602,-76.819735 M 294.38637,-77.367256 L 297.11575,-75.020737 M 262.2186,-34.034877 L 264.26564,-32.7834 L 263.29086,-34.660615 M 260.464,-36.616047 L 264.26564,-32.7834 M 142.80797,-35.912092 L 145.3424,-35.990309 L 143.1004,-36.928917 M 141.93067,-36.616047 L 145.3424,-35.990309 M 229.17354,19.15288 L 231.70797,19.387532 L 229.66093,18.136056 M 226.63911,17.744969 L 231.70797,19.387532 M 194.56882,58.887264 L 197.00577,58.183308 L 194.47135,57.948656 M 192.71674,58.574394 L 197.00577,58.183308 M 125.94426,140.4679 L 128.28374,139.60751 L 125.74931,139.45107 M 124.96948,140.07681 L 128.28374,139.60751 M 362.52354,154.15592 L 363.49832,152.27871 L 361.45128,153.53018 M 362.13363,153.68662 L 363.49832,152.27871 M 245.3549,153.21732 L 246.81707,151.57475 L 244.47759,152.43514 M 243.60029,153.68662 L 246.81707,151.57475 M 311.54251,-90.116674 L 313.88198,-89.256284 L 312.41981,-90.977064 M 311.34755,-90.977064 L 313.88198,-89.256284 M 193.39909,-90.194891 L 195.93352,-90.038457 L 193.789,-91.211716 M 192.71674,-90.977064 L 195.93352,-90.038457 M 431.05062,-77.601907 L 432.12288,-79.479122 L 429.97836,-78.305863 M 429.88088,-77.367256 L 432.12288,-79.479122 M 405.60884,-32.470531 L 409.99536,-32.079445 L 406.48615,-34.191311 M 396.05599,-36.616047 L 409.99536,-32.079445 M 279.27727,-33.096269 L 281.12935,-31.688358 L 280.447,-33.64379 M 277.42518,-36.616047 L 281.12935,-31.688358 M 246.42716,6.6381139 L 248.86411,7.3420695 L 247.30446,5.6995064 M 243.60029,4.2133779 L 248.86411,7.3420695 M 159.76915,-35.833875 L 162.30358,-35.833875 L 160.06159,-36.850699 M 158.89185,-36.616047 L 162.30358,-35.833875 M 125.94426,4.8391162 L 128.47869,4.5262471 L 126.04174,3.8222915 M 124.96948,4.2133779 L 128.47869,4.5262471 M 245.64733,139.37286 L 247.1095,137.65207 L 244.77003,138.51246 M 243.60029,140.07681 L 247.1095,137.65207 M 246.91455,19.856836 L 249.44898,20.32614 L 247.59689,18.918228 M 243.60029,17.744969 L 249.44898,20.32614 M 212.11488,58.809046 L 214.45435,57.948656 L 211.91992,57.792222 M 209.67792,58.574394 L 214.45435,57.948656 M 377.73012,154.15592 L 380.26455,153.68662 L 377.73012,153.21732 M 379.09481,153.68662 L 380.26455,153.68662 M 328.30874,-90.273108 L 330.64821,-89.490936 L 329.08856,-91.133499 M 328.30874,-90.977064 L 330.64821,-89.490936 M 210.26279,-90.194891 L 212.79722,-89.882022 L 210.75018,-91.133499 M 209.67792,-90.977064 L 212.79722,-89.882022 M 176.63286,-49.365466 L 179.16729,-49.209031 L 177.02277,-50.382291 M 175.85303,-50.147639 L 179.16729,-49.209031 M 448.20676,-77.836559 L 449.27902,-79.713774 L 447.1345,-78.540515 M 446.84207,-77.367256 L 449.27902,-79.713774 M 421.30281,-30.436882 L 425.68933,-29.107188 L 422.76498,-32.001227 M 412.9197,-36.616047 L 425.68933,-29.107188 M 301.98966,-40.605129 L 304.13417,-43.029865 L 300.72244,-41.856606 M 294.38637,-36.616047 L 304.13417,-43.029865 M 265.92277,0.92825173 L 267.38494,-0.94896323 L 264.94799,0.06786154 M 260.464,4.2133779 L 267.38494,-0.94896323 M 176.73034,-35.755657 L 179.26477,-35.599223 L 177.12025,-36.772482 M 175.85303,-36.616047 L 179.26477,-35.599223 M 142.90545,4.8391162 L 145.43988,4.6044644 L 143.1004,3.8222915 M 141.93067,4.2133779 L 145.43988,4.6044644 M 262.80347,138.82533 L 263.97321,137.02634 L 261.82869,138.12138 M 260.464,140.07681 L 263.97321,137.02634 M 229.75841,58.574394 L 232.0004,57.635787 L 229.46597,57.55757 M 226.63911,58.574394 L 232.0004,57.635787 M 143.00292,140.38968 L 145.24492,139.45107 L 142.71049,139.45107 M 141.93067,140.07681 L 145.24492,139.45107 M 126.04174,59.043698 L 128.47869,58.41796 L 125.94426,58.026873 M 124.96948,58.574394 L 128.47869,58.41796 M 395.37365,153.76484 L 397.32321,155.09453 L 396.44591,153.1391 M 396.05599,153.68662 L 397.32321,155.09453 M 464.97299,-91.055281 L 466.43516,-92.697844 L 464.09569,-91.837454 M 463.80325,-90.977064 L 466.43516,-92.697844 M 344.97749,-90.429543 L 347.41444,-89.882022 L 345.65983,-91.36815 M 345.17244,-90.977064 L 347.41444,-89.882022 M 227.22398,-90.116674 L 229.75841,-89.725587 L 227.80884,-91.055281 M 226.63911,-90.977064 L 229.75841,-89.725587 M 193.69152,-49.209031 L 196.22595,-48.974379 L 194.17891,-50.225856 M 192.71674,-50.147639 L 196.22595,-48.974379 M 465.26542,-77.836559 L 466.43516,-79.713774 L 464.29064,-78.618732 M 463.80325,-77.367256 L 466.43516,-79.713774 M 437.19174,-29.889361 L 441.28582,-28.246797 L 438.84887,-31.375489 M 429.88088,-36.616047 L 441.28582,-28.246797 M 319.43823,-41.465519 L 321.68023,-44.281342 L 317.97606,-42.716996 M 311.34755,-36.616047 L 321.68023,-44.281342 M 282.39656,-1.3400497 L 283.27387,-4.0776548 L 280.83692,-2.0440053 M 277.42518,4.2133779 L 283.27387,-4.0776548 M 160.06159,4.9173335 L 162.59602,4.7608989 L 160.25654,3.9005087 M 158.89185,4.2133779 L 162.59602,4.7608989 M 279.86213,138.27781 L 280.73944,136.32238 L 278.78988,137.65207 M 277.42518,140.07681 L 280.73944,136.32238 M 247.69437,58.183308 L 249.93637,57.166483 L 247.40194,57.166483 M 243.60029,58.574394 L 249.93637,57.166483 M 159.96411,140.38968 L 162.2061,139.29464 L 159.67167,139.29464 M 158.89185,140.07681 L 162.2061,139.29464 M 412.82222,154.70344 L 414.57683,156.18957 L 413.99196,154.15592 M 412.9197,153.68662 L 414.57683,156.18957 M 361.74371,-90.50776 L 364.27814,-90.351326 L 362.13363,-91.524585 M 362.13363,-90.977064 L 364.27814,-90.351326 M 244.08768,-90.116674 L 246.62211,-89.569153 L 244.77003,-91.055281 M 243.60029,-90.977064 L 246.62211,-89.569153 M 210.6527,-49.052597 L 213.18713,-48.583293 L 211.33505,-49.991204 M 209.67792,-50.147639 L 213.18713,-48.583293 M 453.47058,-30.436882 L 457.17474,-28.872536 L 454.93275,-31.688358 M 446.84207,-36.616047 L 457.17474,-28.872536 M 337.27672,-41.856606 L 339.71367,-44.90708 L 335.61959,-43.264517 M 328.30874,-36.616047 L 339.71367,-44.90708 M 177.12025,4.9173335 L 179.65468,4.9173335 L 177.41268,3.978726 M 175.85303,4.2133779 L 179.65468,4.9173335 M 421.98516,137.73029 L 425.00698,135.77486 L 421.10786,136.24416 M 412.9197,140.07681 L 425.00698,135.77486 M 296.82332,137.65207 L 297.40819,135.61843 L 295.65358,137.10455 M 294.38637,140.07681 L 297.40819,135.61843 M 263.09591,60.451609 L 265.53286,60.99913 L 263.77825,59.513002 M 260.464,58.574394 L 265.53286,60.99913 M 177.02277,140.31146 L 179.16729,139.1382 L 176.63286,139.29464 M 175.85303,140.07681 L 179.16729,139.1382 M 378.60742,-90.50776 L 381.14185,-90.977064 L 378.60742,-91.446368 M 379.09481,-90.977064 L 381.14185,-90.977064 M 354.2379,-52.494157 L 357.25972,-54.44959 L 353.3606,-53.980286 M 345.17244,-50.147639 L 357.25972,-54.44959 M 261.04887,-90.038457 L 263.48582,-89.412718 L 261.73121,-90.977064 M 260.464,-90.977064 L 263.48582,-89.412718 M 227.71137,-48.896162 L 230.14832,-48.192206 L 228.49119,-49.756552 M 226.63911,-50.147639 L 230.14832,-48.192206 M 470.04185,-31.375489 L 473.45358,-30.124012 L 471.30906,-32.548748 M 463.80325,-36.616047 L 473.45358,-30.124012 M 355.01773,-41.15265 L 357.94207,-44.04669 L 353.55556,-42.716996 M 345.17244,-36.616047 L 357.94207,-44.04669 M 194.27639,5.1519854 L 196.81082,5.2302027 L 194.6663,4.1351606 M 192.71674,4.2133779 L 196.81082,5.2302027 M 438.45895,137.10455 L 441.18834,134.99269 L 437.48417,135.69664 M 429.88088,140.07681 L 441.18834,134.99269 M 313.58955,137.18277 L 313.88198,135.14912 L 312.32233,136.79168 M 311.34755,140.07681 L 313.88198,135.14912 M 278.10753,61.468434 L 279.5697,63.110997 L 279.37474,61.077348 M 277.42518,58.574394 L 279.5697,63.110997 M 194.17891,140.15503 L 196.22595,138.90355 L 193.69152,139.1382 M 192.71674,140.07681 L 196.22595,138.90355 M 395.95852,-90.429543 L 398.10303,-91.524585 L 395.5686,-91.446368 M 396.05599,-90.977064 L 398.10303,-91.524585 M 371.39404,-51.164463 L 374.80577,-52.650592 L 370.90665,-52.650592 M 362.13363,-50.147639 L 374.80577,-52.650592 M 277.81509,-90.038457 L 280.25205,-89.256284 L 278.6924,-90.898847 M 277.42518,-90.977064 L 280.25205,-89.256284 M 244.77003,-48.583293 L 247.1095,-47.722903 L 245.64733,-49.443683 M 243.60029,-50.147639 L 247.1095,-47.722903 M 125.74931,-49.5219 L 128.28374,-49.678335 L 125.94426,-50.538725 M 124.96948,-50.147639 L 128.28374,-49.678335 M 211.53001,5.3866373 L 214.06444,5.6212891 L 212.0174,4.3698125 M 209.67792,4.2133779 L 214.06444,5.6212891 M 447.81685,143.36194 L 449.3765,145.0045 L 449.08406,142.97085 M 446.84207,140.07681 L 449.3765,145.0045 M 335.81455,144.45698 L 339.51871,145.23915 L 336.78933,143.04907 M 328.30874,140.07681 L 339.51871,145.23915 M 211.33505,139.92038 L 213.18713,138.51246 L 210.6527,138.98177 M 209.67792,140.07681 L 213.18713,138.51246 M 413.30961,-90.585978 L 415.1617,-91.993889 L 412.62727,-91.524585 M 412.9197,-90.977064 L 415.1617,-91.993889 M 388.25775,-49.365466 L 391.96191,-50.147639 L 388.25775,-50.929812 M 379.09481,-50.147639 L 391.96191,-50.147639 M 261.82869,-48.192206 L 263.97321,-47.097164 L 262.80347,-48.896162 M 260.464,-50.147639 L 263.97321,-47.097164 M 142.71049,-49.5219 L 145.24492,-49.5219 L 143.00292,-50.460508 M 141.93067,-50.147639 L 145.24492,-49.5219 M 228.78363,125.91948 L 230.34327,124.27692 L 228.0038,125.05909 M 226.63911,126.54522 L 230.34327,124.27692 M 228.8811,5.855941 L 231.41553,6.3252447 L 229.56345,4.9173335 M 226.63911,4.2133779 L 231.41553,6.3252447 M 464.97299,143.04907 L 466.72759,144.5352 L 466.2402,142.50155 M 463.80325,140.07681 L 466.72759,144.5352 M 353.3606,143.90946 L 357.25972,144.37876 L 354.2379,142.42333 M 345.17244,140.07681 L 357.25972,144.37876 M 228.49119,139.68572 L 230.14832,138.12138 L 227.71137,138.82533 M 226.63911,140.07681 L 230.14832,138.12138 M 159.5742,-62.975274 L 162.10863,-62.975274 L 159.96411,-64.070316 M 158.89185,-63.757447 L 162.10863,-62.975274 M 430.66071,-90.742412 L 432.22036,-92.384975 L 429.78341,-91.602802 M 429.88088,-90.977064 L 432.22036,-92.384975 M 404.82902,-47.644685 L 408.63066,-47.722903 L 405.31641,-49.130814 M 396.05599,-50.147639 L 408.63066,-47.722903 M 278.78988,-47.722903 L 280.73944,-46.393209 L 279.86213,-48.348641 M 277.42518,-50.147639 L 280.73944,-46.393209 M 159.67167,-49.365466 L 162.2061,-49.365466 L 159.96411,-50.460508 M 158.89185,-50.147639 L 162.2061,-49.365466 M 125.84678,-8.7706922 L 128.38121,-9.0053441 L 126.04174,-9.787517 M 124.96948,-9.3964306 L 128.38121,-9.0053441 M 246.03724,125.45018 L 247.40194,123.65118 L 245.15994,124.58979 M 243.60029,126.54522 L 247.40194,123.65118 M 125.94426,126.93631 L 128.28374,125.9977 L 125.74931,125.91948 M 124.96948,126.54522 L 128.28374,125.9977 M 370.90665,142.57976 L 374.80577,142.57976 L 371.39404,141.09364 M 362.13363,140.07681 L 374.80577,142.57976 M 176.53538,-62.975274 L 179.06981,-62.81884 L 176.92529,-63.992099 M 175.85303,-63.757447 L 179.06981,-62.81884 M 447.91433,-90.977064 L 449.3765,-92.619627 L 447.03702,-91.837454 M 446.84207,-90.977064 L 449.3765,-92.619627 M 421.10786,-46.314991 L 425.00698,-45.845688 L 421.98516,-47.80112 M 412.9197,-50.147639 L 425.00698,-45.845688 M 295.65358,-47.175382 L 297.40819,-45.689253 L 296.82332,-47.722903 M 294.38637,-50.147639 L 297.40819,-45.689253 M 142.90545,-8.7706922 L 145.43988,-8.8489095 L 143.1004,-9.7092997 M 141.93067,-9.3964306 L 145.43988,-8.8489095 M 263.29086,124.58979 L 264.26564,122.71257 L 262.2186,123.96405 M 260.464,126.54522 L 264.26564,122.71257 M 143.1004,126.85809 L 145.3424,125.91948 L 142.80797,125.84126 M 141.93067,126.54522 L 145.3424,125.91948 M 388.25775,140.85898 L 391.96191,140.07681 L 388.25775,139.29464 M 379.09481,140.07681 L 391.96191,140.07681 M 193.49656,-62.897057 L 196.03099,-62.662405 L 193.98395,-63.913882 M 192.71674,-63.757447 L 196.03099,-62.662405 M 437.48417,-45.76747 L 441.18834,-45.063515 L 438.45895,-47.175382 M 429.88088,-50.147639 L 441.18834,-45.063515 M 312.32233,-46.862512 L 313.88198,-45.219949 L 313.58955,-47.253599 M 311.34755,-50.147639 L 313.88198,-45.219949 M 159.96411,-8.6924749 L 162.49854,-8.6924749 L 160.25654,-9.6310824 M 158.89185,-9.3964306 L 162.49854,-8.6924749 M 280.447,123.57296 L 281.12935,121.61753 L 279.27727,123.02544 M 277.42518,126.54522 L 281.12935,121.61753 M 160.06159,126.77987 L 162.30358,125.76305 L 159.76915,125.76305 M 158.89185,126.54522 L 162.30358,125.76305 M 405.31641,139.05999 L 408.63066,137.65207 L 404.82902,137.57386 M 396.05599,140.07681 L 408.63066,137.65207 M 210.45775,-62.81884 L 212.99218,-62.349536 L 211.1401,-63.757447 M 209.67792,-63.757447 L 212.99218,-62.349536 M 449.08406,-53.041678 L 449.3765,-55.075328 L 447.81685,-53.432765 M 446.84207,-50.147639 L 449.3765,-55.075328 M 336.78933,-53.119896 L 339.51871,-55.30998 L 335.81455,-54.527807 M 328.30874,-50.147639 L 339.51871,-55.30998 M 177.02277,-8.5360404 L 179.5572,-8.5360404 L 177.3152,-9.5528651 M 175.85303,-9.3964306 L 179.5572,-8.5360404 M 300.72244,131.78578 L 304.13417,132.95904 L 301.98966,130.5343 M 294.38637,126.54522 L 304.13417,132.95904 M 177.12025,126.70165 L 179.26477,125.52839 L 176.73034,125.68483 M 175.85303,126.54522 L 179.26477,125.52839 M 328.60117,-62.114884 L 330.35577,-60.628756 L 329.86838,-62.662405 M 328.30874,-63.757447 L 330.35577,-60.628756 M 466.2402,-52.572375 L 466.72759,-54.606024 L 464.97299,-53.119896 M 463.80325,-50.147639 L 466.72759,-54.606024 M 194.08143,-8.3796058 L 196.61586,-8.2231712 L 194.56882,-9.3964306 M 192.71674,-9.3964306 L 196.61586,-8.2231712 M 317.97606,132.64617 L 321.68023,134.21051 L 319.43823,131.39469 M 311.34755,126.54522 L 321.68023,134.21051 M 194.37387,126.54522 L 196.32343,125.21553 L 193.789,125.52839 M 192.71674,126.54522 L 196.32343,125.21553 M 345.07496,-62.740622 L 346.82957,-61.254494 L 346.2447,-63.288143 M 345.17244,-63.757447 L 346.82957,-61.254494 M 227.51641,-62.662405 L 229.95336,-62.036667 L 228.19876,-63.601013 M 226.63911,-63.757447 L 229.95336,-62.036667 M 125.65183,-63.131709 L 128.18626,-63.288143 L 125.84678,-64.148534 M 124.96948,-63.757447 L 128.18626,-63.288143 M 211.23757,-8.1449539 L 213.772,-7.7538675 L 211.82244,-9.0835614 M 209.67792,-9.3964306 L 213.772,-7.7538675 M 335.61959,133.19369 L 339.71367,134.83625 L 337.27672,131.78578 M 328.30874,126.54522 L 339.71367,134.83625 M 211.53001,126.31057 L 213.38209,124.82444 L 210.84766,125.37196 M 209.67792,126.54522 L 213.38209,124.82444 M 361.45128,-63.601013 L 363.49832,-62.349536 L 362.52354,-64.226751 M 362.13363,-63.757447 L 363.49832,-62.349536 M 244.47759,-62.50597 L 246.81707,-61.723798 L 245.25742,-63.366361 M 243.60029,-63.757447 L 246.81707,-61.723798 M 142.61301,-63.131709 L 145.14744,-63.131709 L 142.90545,-64.070316 M 141.93067,-63.757447 L 145.14744,-63.131709 M 353.55556,132.64617 L 357.94207,133.97586 L 355.01773,131.08182 M 345.17244,126.54522 L 357.94207,133.97586 M 377.73012,-63.288143 L 380.26455,-63.757447 L 377.73012,-64.226751 M 379.09481,-63.757447 L 380.26455,-63.757447 M 261.43878,-62.271319 L 263.68077,-61.254494 L 262.41356,-63.053491 M 260.464,-63.757447 L 263.68077,-61.254494 M 371.68648,130.61252 L 376.17047,131.0036 L 372.56378,128.89174 M 362.13363,126.54522 L 376.17047,131.0036 M 396.44591,-63.209926 L 397.32321,-65.165358 L 395.37365,-63.835664 M 396.05599,-63.757447 L 397.32321,-65.165358 M 278.30249,-62.036667 L 280.447,-60.863407 L 279.37474,-62.740622 M 277.42518,-63.757447 L 280.447,-60.863407 M 389.42749,127.40561 L 393.61904,126.54522 L 389.42749,125.68483 M 379.09481,126.54522 L 393.61904,126.54522 M 413.99196,-64.226751 L 414.57683,-66.2604 L 412.82222,-64.774272 M 412.9197,-63.757447 L 414.57683,-66.2604 M 295.26367,-61.880232 L 297.21323,-60.550538 L 296.33593,-62.50597 M 294.38637,-63.757447 L 297.21323,-60.550538 M 431.44053,-64.930706 L 431.92792,-66.964356 L 430.17332,-65.40001 M 429.88088,-63.757447 L 431.92792,-66.964356 M 311.93242,-61.880232 L 313.7845,-60.394104 L 313.10216,-62.427753 M 311.34755,-63.757447 L 313.7845,-60.394104 M 125.84678,181.29732 L 128.18626,180.35871 L 125.65183,180.2805 M 124.96948,180.90624 L 128.18626,180.35871 M 448.59667,-65.087141 L 449.27902,-67.120791 L 447.42694,-65.634662 M 446.84207,-63.757447 L 449.27902,-67.120791 M 142.80797,181.29732 L 145.04996,180.2805 L 142.51553,180.2805 M 141.93067,180.90624 L 145.04996,180.2805 M 465.75281,-65.008924 L 466.53264,-66.964356 L 464.58308,-65.634662 M 463.80325,-63.757447 L 466.53264,-66.964356 M 159.76915,181.21911 L 162.01115,180.20228 L 159.47672,180.20228 M 158.89185,180.90624 L 162.01115,180.20228 M 125.65183,-76.741517 L 128.18626,-76.819735 L 125.84678,-77.758342 M 124.96948,-77.367256 L 128.18626,-76.819735 M 176.82781,181.21911 L 178.97233,180.12406 L 176.4379,180.20228 M 175.85303,180.90624 L 178.97233,180.12406 M 193.789,181.14089 L 195.93352,179.96763 L 193.39909,180.12406 M 192.71674,180.90624 L 195.93352,179.96763 M 210.75018,181.06267 L 212.79722,179.81119 L 210.26279,180.12406 M 209.67792,180.90624 L 212.79722,179.81119 M 227.80884,180.98445 L 229.75841,179.65476 L 227.22398,180.04585 M 226.63911,180.90624 L 229.75841,179.65476 M 244.77003,180.98445 L 246.62211,179.49832 L 244.08768,180.04585 M 243.60029,180.90624 L 246.62211,179.49832 M 261.73121,180.90624 L 263.48582,179.34189 L 261.04887,179.96763 M 260.464,180.90624 L 263.48582,179.34189 M 278.6924,180.82802 L 280.25205,179.18546 L 277.81509,179.96763 M 277.42518,180.90624 L 280.25205,179.18546"
         id="path28"
         style="color:#000000;fill:none;stroke:currentColor;stroke-width:0.87318212;stroke-linecap:butt;stroke-linejoin:miter" />
      <path
         d=""
         id="path32"
         style="color:#ff0000;fill:none;stroke:currentColor;stroke-width:0.87318212;stroke-linecap:butt;stroke-linejoin:miter" />
      <path
         d="M 566.44731,127.48506 L 568.98174,127.79793 L 567.03218,126.54645 M 565.47253,126.54645 L 568.98174,127.79793 M 583.31101,127.40684 L 585.84544,127.48506 L 583.70093,126.39001 M 582.33623,126.54645 L 585.84544,127.48506 M 600.17472,127.25041 L 602.70915,127.25041 L 600.46715,126.23358 M 599.29742,126.54645 L 602.70915,127.25041 M 617.03843,127.17219 L 619.57286,127.09397 L 617.23338,126.15536 M 616.2586,126.54645 L 619.57286,127.09397 M 633.90213,127.17219 L 636.43656,127.01575 L 634.09709,126.15536 M 633.21979,126.54645 L 636.43656,127.01575 M 299.84479,119.81976 L 303.25652,121.77519 L 301.59939,118.72472 M 294.38601,112.93664 L 303.25652,121.77519 M 549.77856,114.18812 L 552.31299,114.65742 L 550.4609,113.24951 M 548.51134,112.93664 L 552.31299,114.65742 M 317.0984,121.85341 L 320.90005,124.59102 L 319.3404,120.68015 M 311.3472,112.93664 L 320.90005,124.59102 M 566.64226,113.95347 L 569.17669,114.18812 L 567.12965,112.93664 M 565.47253,112.93664 L 569.17669,114.18812 M 454.83492,105.19313 L 456.39457,101.28226 L 452.59292,104.01987 M 446.84172,112.93664 L 456.39457,101.28226 M 482.71365,56.072671 L 482.9086,54.039022 L 481.44643,55.681585 M 480.76408,58.575624 L 482.9086,54.039022 M 583.40849,113.79703 L 585.94292,113.87525 L 583.7984,112.78021 M 582.33623,112.93664 L 585.94292,113.87525 M 471.01628,107.14856 L 472.6734,104.01987 L 469.26167,105.9753 M 463.8029,112.93664 L 472.6734,104.01987 M 500.94204,57.5588 L 502.69665,56.072671 L 500.2597,56.620192 M 497.72527,58.575624 L 502.69665,56.072671 M 600.2722,113.6406 L 602.80663,113.6406 L 600.56463,112.62377 M 599.29742,112.93664 L 602.80663,113.6406 M 487.49007,108.79112 L 489.34215,106.44461 L 486.32033,107.7743 M 480.76408,112.93664 L 489.34215,106.44461 M 518.39062,59.983536 L 520.92505,59.983536 L 518.68305,58.966711 M 514.58897,58.575624 L 520.92505,59.983536 M 617.1359,113.56238 L 619.67033,113.48416 L 617.33086,112.62377 M 616.2586,112.93664 L 619.67033,113.48416 M 499.96726,116.14355 L 502.0143,117.39503 L 501.03952,115.51781 M 497.72527,112.93664 L 502.0143,117.39503 M 534.37702,59.514232 L 536.91145,59.436015 L 534.57198,58.575624 M 531.55016,58.575624 L 536.91145,59.436015 M 633.99961,113.56238 L 636.53404,113.40594 L 634.19457,112.54555 M 633.21979,112.93664 L 636.53404,113.40594 M 516.53854,115.20494 L 518.78053,116.14355 L 517.41584,114.34455 M 514.58897,112.93664 L 518.78053,116.14355 M 550.65586,59.357797 L 553.19029,59.123145 L 550.85082,58.340973 M 548.51134,58.575624 L 553.19029,59.123145 M 298.38262,108.08717 L 301.59939,110.98121 L 300.72209,107.22678 M 294.38601,99.326833 L 301.59939,110.98121 M 533.10981,114.5792 L 535.54676,115.28316 L 533.98711,113.6406 M 531.55016,112.93664 L 535.54676,115.28316 M 567.12965,59.201363 L 569.66408,58.966711 L 567.22713,58.262755 M 565.47253,58.575624 L 569.66408,58.966711 M 533.49972,101.04761 L 535.93667,101.67335 L 534.27954,100.10901 M 531.55016,99.326833 L 535.93667,101.67335 M 583.7984,59.201363 L 586.33283,58.810276 L 583.89588,58.184538 M 582.33623,58.575624 L 586.33283,58.810276 M 550.07099,100.57831 L 552.60542,100.9694 L 550.65586,99.639702 M 548.51134,99.326833 L 552.60542,100.9694 M 464.19281,181.84607 L 466.53229,182.62825 L 464.97264,180.98568 M 463.8029,180.90747 L 466.53229,182.62825 M 479.69183,45.43512 L 482.22626,44.965816 L 479.69183,44.496512 M 480.76408,44.965816 L 482.22626,44.965816 M 600.56463,59.123145 L 603.09906,58.732059 L 600.66211,58.106321 M 599.29742,58.575624 L 603.09906,58.732059 M 566.73974,100.34366 L 569.27417,100.50009 L 567.22713,99.326833 M 565.47253,99.326833 L 569.27417,100.50009 M 481.154,181.84607 L 483.59095,182.55003 L 481.93382,180.98568 M 480.76408,180.90747 L 483.59095,182.55003 M 499.77231,45.43512 L 502.30674,44.965816 L 499.77231,44.496512 M 497.72527,44.965816 L 502.30674,44.965816 M 617.33086,59.123145 L 619.86529,58.732059 L 617.42834,58.106321 M 616.2586,58.575624 L 619.86529,58.732059 M 583.50597,100.18722 L 586.0404,100.18722 L 583.7984,99.170398 M 582.33623,99.326833 L 586.0404,100.18722 M 498.21266,181.76786 L 500.64961,182.39359 L 498.89501,180.90747 M 497.72527,180.90747 L 500.64961,182.39359 M 470.13897,91.426886 L 471.01628,87.672456 L 467.7995,90.566496 M 463.8029,99.326833 L 471.01628,87.672456 M 634.09709,45.43512 L 636.63152,44.965816 L 634.09709,44.496512 M 633.21979,44.965816 L 636.63152,44.965816 M 518.58558,45.43512 L 521.12001,44.965816 L 518.58558,44.496512 M 514.58897,44.965816 L 521.12001,44.965816 M 633.80465,181.5332 L 636.33908,181.37677 L 633.99961,180.51638 M 633.21979,180.90747 L 636.33908,181.37677 M 634.09709,59.123145 L 636.63152,58.653842 L 634.19457,58.106321 M 633.21979,58.575624 L 636.63152,58.653842 M 600.36968,100.03079 L 602.90411,100.03079 L 600.66211,99.092181 M 599.29742,99.326833 L 602.90411,100.03079 M 515.07636,181.76786 L 517.61079,182.23716 L 515.75871,180.82925 M 514.58897,180.90747 L 517.61079,182.23716 M 486.80772,94.242709 L 488.17242,91.583321 L 485.34555,93.304101 M 480.76408,99.326833 L 488.17242,91.583321 M 567.22713,-9.3952006 L 569.27417,-10.56846 L 566.73974,-10.412025 M 565.47253,-9.3952006 L 569.27417,-10.56846 M 534.4745,45.43512 L 537.00893,44.965816 L 534.4745,44.496512 M 531.55016,44.965816 L 537.00893,44.965816 M 295.94566,166.75014 L 297.1154,164.95114 L 294.97088,166.04618 M 294.38601,167.29766 L 297.1154,164.95114 M 617.23338,99.952571 L 619.76781,99.874354 L 617.42834,99.013963 M 616.2586,99.326833 L 619.76781,99.874354 M 532.13503,181.76786 L 534.66946,182.08073 L 532.7199,180.75103 M 531.55016,180.90747 L 534.66946,182.08073 M 500.74709,103.08126 L 502.79413,104.25452 L 501.72187,102.37731 M 497.72527,99.326833 L 502.79413,104.25452 M 583.7984,-9.238766 L 586.0404,-10.255591 L 583.50597,-10.255591 M 582.33623,-9.3952006 L 586.0404,-10.255591 M 467.7995,-0.63486407 L 471.01628,2.2591757 L 470.13897,-1.4952543 M 463.8029,-9.3952006 L 471.01628,2.2591757 M 550.75334,45.43512 L 553.28777,44.965816 L 550.75334,44.496512 M 548.51134,44.965816 L 553.28777,44.965816 M 517.51332,88.219977 L 519.95027,88.923933 L 518.39062,87.28137 M 514.58897,85.717024 L 519.95027,88.923933 M 312.80937,166.82835 L 313.88163,164.95114 L 311.73711,166.1244 M 311.3472,167.29766 L 313.88163,164.95114 M 633.99961,99.952571 L 636.53404,99.717919 L 634.19457,98.935746 M 633.21979,99.326833 L 636.53404,99.717919 M 549.09621,181.68964 L 551.63064,181.92429 L 549.5836,180.67281 M 548.51134,180.90747 L 551.63064,181.92429 M 517.02593,101.82979 L 519.3654,102.69018 L 518.00071,100.9694 M 514.58897,99.326833 L 519.3654,102.69018 M 600.66211,-9.1605487 L 602.90411,-10.099156 L 600.36968,-10.099156 M 599.29742,-9.3952006 L 602.90411,-10.099156 M 485.34555,-3.3724692 L 488.17242,-1.6516888 L 486.80772,-4.3110767 M 480.76408,-9.3952006 L 488.17242,-1.6516888 M 567.22713,45.43512 L 569.76156,44.965816 L 567.22713,44.496512 M 565.47253,44.965816 L 569.76156,44.965816 M 533.79215,87.359587 L 536.32658,87.828891 L 534.4745,86.42098 M 531.55016,85.717024 L 536.32658,87.828891 M 447.23163,168.47092 L 449.37615,169.64418 L 448.30389,167.76696 M 446.84172,167.29766 L 449.37615,169.64418 M 329.47812,167.06301 L 330.55038,165.18579 L 328.40586,166.35905 M 328.30838,167.29766 L 330.55038,165.18579 M 566.0574,181.68964 L 568.59183,181.76786 L 566.44731,180.5946 M 565.47253,180.90747 L 568.59183,181.76786 M 617.42834,-9.0823314 L 619.76781,-9.9427216 L 617.23338,-10.020939 M 616.2586,-9.3952006 L 619.76781,-9.9427216 M 501.72187,-12.445675 L 502.79413,-14.32289 L 500.74709,-13.14963 M 497.72527,-9.3952006 L 502.79413,-14.32289 M 583.7984,45.43512 L 586.33283,44.965816 L 583.7984,44.496512 M 582.33623,44.965816 L 586.33283,44.965816 M 550.26595,86.968501 L 552.80038,87.203153 L 550.75334,85.951676 M 548.51134,85.717024 L 552.80038,87.203153 M 464.38777,168.54913 L 466.53229,169.64418 L 465.36255,167.84518 M 463.8029,167.29766 L 466.53229,169.64418 M 346.04939,167.45409 L 347.21913,165.65509 L 344.97713,166.75014 M 345.26957,167.29766 L 347.21913,165.65509 M 583.01858,181.61142 L 585.55301,181.61142 L 583.31101,180.5946 M 582.33623,180.90747 L 585.55301,181.61142 M 634.19457,-9.0041141 L 636.53404,-9.786287 L 633.99961,-10.020939 M 633.21979,-9.3952006 L 636.53404,-9.786287 M 518.00071,-11.037764 L 519.3654,-12.758544 L 517.02593,-11.898154 M 514.58897,-9.3952006 L 519.3654,-12.758544 M 481.44643,34.250047 L 482.9086,35.89261 L 482.71365,33.858961 M 480.76408,31.356008 L 482.9086,35.89261 M 600.56463,45.43512 L 603.09906,44.965816 L 600.56463,44.496512 M 599.29742,44.965816 L 603.09906,44.965816 M 566.9347,86.655632 L 569.46913,86.733849 L 567.32461,85.638807 M 565.47253,85.717024 L 569.46913,86.733849 M 481.44643,168.54913 L 483.68843,169.48774 L 482.32373,167.76696 M 480.76408,167.29766 L 483.68843,169.48774 M 362.23075,167.84518 L 363.98536,166.35905 L 361.5484,166.98479 M 362.13327,167.29766 L 363.98536,166.35905 M 599.88229,181.5332 L 602.41672,181.5332 L 600.17472,180.51638 M 599.29742,180.90747 L 602.41672,181.5332 M 311.73711,-76.192766 L 313.88163,-75.019507 L 312.80937,-76.896722 M 311.3472,-77.366026 L 313.88163,-75.019507 M 301.59939,-28.793088 L 303.25652,-31.843563 L 299.84479,-29.888131 M 294.38601,-23.005009 L 303.25652,-31.843563 M 617.42834,31.825311 L 619.86529,31.199573 L 617.33086,30.808487 M 616.2586,31.356008 L 619.86529,31.199573 M 534.27954,-10.177373 L 535.93667,-11.741719 L 533.49972,-11.115981 M 531.55016,-9.3952006 L 535.93667,-11.741719 M 500.2597,33.31144 L 502.69665,33.858961 L 500.94204,32.372832 M 497.72527,31.356008 L 502.69665,33.858961 M 616.84347,167.9234 L 619.3779,167.84518 L 617.1359,166.90657 M 616.2586,167.29766 L 619.3779,167.84518 M 617.33086,45.43512 L 619.86529,44.965816 L 617.33086,44.496512 M 616.2586,44.965816 L 619.86529,44.965816 M 583.70093,86.499197 L 586.23536,86.499197 L 583.99336,85.482372 M 582.33623,85.717024 L 586.23536,86.499197 M 498.40761,168.47092 L 500.74709,169.25309 L 499.28492,167.61053 M 497.72527,167.29766 L 500.74709,169.25309 M 378.31463,167.76696 L 380.84906,167.29766 L 378.31463,166.82835 M 379.09446,167.29766 L 380.84906,167.29766 M 616.84347,181.5332 L 619.3779,181.45499 L 617.1359,180.51638 M 616.2586,180.90747 L 619.3779,181.45499 M 328.40586,-76.427418 L 330.55038,-75.254159 L 329.47812,-77.131374 M 328.30838,-77.366026 L 330.55038,-75.254159 M 319.3404,-30.748521 L 320.90005,-34.659385 L 317.0984,-31.92178 M 311.3472,-23.005009 L 320.90005,-34.659385 M 634.19457,31.825311 L 636.63152,31.27779 L 634.09709,30.808487 M 633.21979,31.356008 L 636.63152,31.27779 M 550.65586,-9.7080697 L 552.60542,-11.037764 L 550.07099,-10.646677 M 548.51134,-9.3952006 L 552.60542,-11.037764 M 518.68305,30.964921 L 520.92505,29.948096 L 518.39062,29.948096 M 514.58897,31.356008 L 520.92505,29.948096 M 633.80465,167.9234 L 636.33908,167.76696 L 633.99961,166.90657 M 633.21979,167.29766 L 636.33908,167.76696 M 600.46715,86.42098 L 603.00158,86.264545 L 600.66211,85.404155 M 599.29742,85.717024 L 603.00158,86.264545 M 515.27132,168.31448 L 517.70827,169.01844 L 516.05115,167.45409 M 514.58897,167.29766 L 517.70827,169.01844 M 485.73547,80.163596 L 486.51529,77.425991 L 484.07834,79.459641 M 480.76408,85.717024 L 486.51529,77.425991 M 395.37329,167.61053 L 397.81025,168.15805 L 396.05564,166.67192 M 396.05564,167.29766 L 397.81025,168.15805 M 344.97713,-76.818505 L 347.21913,-75.723462 L 346.04939,-77.52246 M 345.26957,-77.366026 L 347.21913,-75.723462 M 550.4609,-23.317878 L 552.31299,-24.725789 L 549.77856,-24.256486 M 548.51134,-23.005009 L 552.31299,-24.725789 M 534.57198,31.356008 L 536.91145,30.495617 L 534.37702,30.4174 M 531.55016,31.356008 L 536.91145,30.495617 M 502.11178,69.604262 L 503.47647,67.883482 L 501.23448,68.822089 M 497.72527,72.185433 L 503.47647,67.883482 M 296.33558,152.43637 L 297.21288,150.48094 L 295.26332,151.81063 M 294.38601,153.68785 L 297.21288,150.48094 M 617.23338,86.342762 L 619.76781,86.186328 L 617.42834,85.325938 M 616.2586,85.717024 L 619.76781,86.186328 M 532.23251,168.23627 L 534.76693,168.70557 L 532.91485,167.29766 M 531.55016,167.29766 L 534.76693,168.70557 M 503.08656,82.510115 L 504.54873,80.6329 L 502.11178,81.649725 M 497.72527,85.717024 L 504.54873,80.6329 M 412.72439,167.84518 L 414.96639,168.94022 L 413.79665,167.14122 M 413.01683,167.29766 L 414.96639,168.94022 M 482.32373,-77.835329 L 483.68843,-79.55611 L 481.44643,-78.617502 M 480.76408,-77.366026 L 483.68843,-79.55611 M 361.5484,-77.053156 L 363.98536,-76.427418 L 362.23075,-77.913547 M 362.13327,-77.366026 L 363.98536,-76.427418 M 567.12965,-23.005009 L 569.17669,-24.256486 L 566.64226,-24.021834 M 565.47253,-23.005009 L 569.17669,-24.256486 M 452.59292,-14.088238 L 456.39457,-11.350633 L 454.83492,-15.261497 M 446.84172,-23.005009 L 456.39457,-11.350633 M 550.85082,31.590659 L 553.19029,30.808487 L 550.65586,30.573835 M 548.51134,31.356008 L 553.19029,30.808487 M 518.00071,74.2973 L 520.53514,74.688386 L 518.68305,73.280475 M 514.58897,72.185433 L 520.53514,74.688386 M 430.27044,155.40863 L 432.02505,156.89476 L 431.44018,154.86111 M 429.88053,153.68785 L 432.02505,156.89476 M 313.1018,152.35816 L 313.78415,150.32451 L 311.93207,151.81063 M 311.3472,153.68785 L 313.78415,150.32451 M 634.09709,86.264545 L 636.63152,86.029893 L 634.19457,85.325938 M 633.21979,85.717024 L 636.63152,86.029893 M 549.19369,168.15805 L 551.72812,168.47092 L 549.77856,167.14122 M 548.51134,167.29766 L 551.72812,168.47092 M 429.97801,168.23627 L 432.12253,169.40952 L 431.05027,167.53231 M 429.88053,167.29766 L 432.12253,169.40952 M 499.28492,-77.678895 L 500.74709,-79.321458 L 498.40761,-78.539285 M 497.72527,-77.366026 L 500.74709,-79.321458 M 378.31463,-76.896722 L 380.84906,-77.366026 L 378.31463,-77.835329 M 379.09446,-77.366026 L 380.84906,-77.366026 M 583.7984,-22.848574 L 585.94292,-23.943616 L 583.40849,-23.865399 M 582.33623,-23.005009 L 585.94292,-23.943616 M 469.26167,-16.04367 L 472.6734,-14.088238 L 471.01628,-17.21693 M 463.8029,-23.005009 L 472.6734,-14.088238 M 567.22713,31.668877 L 569.66408,30.964921 L 567.12965,30.730269 M 565.47253,31.356008 L 569.66408,30.964921 M 534.08459,73.593344 L 536.61902,73.749779 L 534.57198,72.576519 M 531.55016,72.185433 L 536.61902,73.749779 M 447.42658,155.56506 L 449.27867,157.05119 L 448.59632,155.01754 M 446.84172,153.68785 L 449.27867,157.05119 M 329.86803,152.59281 L 330.35542,150.55916 L 328.60082,152.04529 M 328.30838,153.68785 L 330.35542,150.55916 M 566.15487,168.07983 L 568.6893,168.31448 L 566.64226,167.06301 M 565.47253,167.29766 L 568.6893,168.31448 M 516.05115,-77.52246 L 517.70827,-79.086806 L 515.27132,-78.38285 M 514.58897,-77.366026 L 517.70827,-79.086806 M 396.05564,-76.740287 L 397.81025,-78.226416 L 395.37329,-77.678895 M 396.05564,-77.366026 L 397.81025,-78.226416 M 372.56343,-38.961336 L 376.17012,-41.073203 L 371.68612,-40.682117 M 362.13327,-36.614817 L 376.17012,-41.073203 M 600.56463,-22.69214 L 602.80663,-23.708965 L 600.2722,-23.708965 M 599.29742,-23.005009 L 602.80663,-23.708965 M 486.32033,-17.842668 L 489.34215,-16.512974 L 487.49007,-18.859493 M 480.76408,-23.005009 L 489.34215,-16.512974 M 583.89588,31.747094 L 586.33283,31.121356 L 583.7984,30.730269 M 582.33623,31.356008 L 586.33283,31.121356 M 550.55838,73.202258 L 553.09281,73.202258 L 550.85082,72.185433 M 548.51134,72.185433 L 553.09281,73.202258 M 464.6802,155.56506 L 466.62976,156.89476 L 465.75246,154.93933 M 463.8029,153.68785 L 466.62976,156.89476 M 346.34183,153.21855 L 346.92669,151.1849 L 345.17209,152.67102 M 345.26957,153.68785 L 346.92669,151.1849 M 583.01858,168.07983 L 585.55301,168.15805 L 583.40849,167.06301 M 582.33623,167.29766 L 585.55301,168.15805 M 294.77593,-90.037227 L 297.1154,-89.255054 L 295.55575,-90.897617 M 294.38601,-90.975834 L 297.1154,-89.255054 M 532.91485,-77.366026 L 534.76693,-78.773937 L 532.23251,-78.304633 M 531.55016,-77.366026 L 534.76693,-78.773937 M 413.79665,-77.209591 L 414.96639,-79.008589 L 412.72439,-77.913547 M 413.01683,-77.366026 L 414.96639,-79.008589 M 389.42713,-35.754427 L 393.61869,-36.614817 L 389.42713,-37.475208 M 379.09446,-36.614817 L 393.61869,-36.614817 M 617.33086,-22.69214 L 619.67033,-23.55253 L 617.1359,-23.630747 M 616.2586,-23.005009 L 619.67033,-23.55253 M 501.03952,-25.58618 L 502.0143,-27.463395 L 499.96726,-26.211918 M 497.72527,-23.005009 L 502.0143,-27.463395 M 599.97976,154.47002 L 602.51419,154.47002 L 600.36968,153.37498 M 599.29742,153.68785 L 602.51419,154.47002 M 600.66211,31.825311 L 603.09906,31.199573 L 600.56463,30.808487 M 599.29742,31.356008 L 603.09906,31.199573 M 567.12965,72.967606 L 569.66408,72.889389 L 567.32461,71.950781 M 565.47253,72.185433 L 569.66408,72.889389 M 481.64139,155.40863 L 483.7859,156.58189 L 482.71365,154.70467 M 480.76408,153.68785 L 483.7859,156.58189 M 362.52319,154.15715 L 363.49797,152.27994 L 361.45093,153.53141 M 362.13327,153.68785 L 363.49797,152.27994 M 599.97976,168.00161 L 602.51419,168.00161 L 600.2722,166.98479 M 599.29742,167.29766 L 602.51419,168.00161 M 311.54215,-90.115444 L 313.88163,-89.255054 L 312.41946,-90.975834 M 311.3472,-90.975834 L 313.88163,-89.255054 M 549.77856,-77.287808 L 551.72812,-78.617502 L 549.19369,-78.226416 M 548.51134,-77.366026 L 551.72812,-78.617502 M 431.05027,-77.600677 L 432.12253,-79.477892 L 429.97801,-78.304633 M 429.88053,-77.366026 L 432.12253,-79.477892 M 405.60849,-32.469301 L 410.09248,-32.078215 L 406.48579,-34.190081 M 396.05564,-36.614817 L 410.09248,-32.078215 M 634.19457,-22.613923 L 636.53404,-23.474313 L 633.99961,-23.630747 M 633.21979,-23.005009 L 636.53404,-23.474313 M 600.66211,18.137286 L 603.00158,17.355113 L 600.46715,17.120461 M 599.29742,17.746199 L 603.00158,17.355113 M 517.41584,-24.41292 L 518.78053,-26.211918 L 516.53854,-25.27331 M 514.58897,-23.005009 L 518.78053,-26.211918 M 482.81112,23.377844 L 484.56573,25.255059 L 484.27329,22.90854 M 480.76408,17.746199 L 484.56573,25.255059 M 616.94095,154.31359 L 619.47538,154.31359 L 617.23338,153.37498 M 616.2586,153.68785 L 619.47538,154.31359 M 583.7984,72.889389 L 586.33283,72.654737 L 583.99336,71.872564 M 582.33623,72.185433 L 586.33283,72.654737 M 498.60257,155.17398 L 500.84457,156.1908 L 499.57735,154.3918 M 497.72527,153.68785 L 500.84457,156.1908 M 377.82724,154.15715 L 380.36167,153.68785 L 377.82724,153.21855 M 379.09446,153.68785 L 380.36167,153.68785 M 328.30838,-90.271878 L 330.64786,-89.489706 L 329.08821,-91.132269 M 328.30838,-90.975834 L 330.64786,-89.489706 M 566.64226,-77.131374 L 568.6893,-78.38285 L 566.15487,-78.148198 M 565.47253,-77.366026 L 568.6893,-78.38285 M 533.69468,-37.162339 L 535.25433,-38.804902 L 532.81737,-38.100946 M 531.55016,-36.614817 L 535.25433,-38.804902 M 448.30389,-77.835329 L 449.37615,-79.712544 L 447.23163,-78.539285 M 446.84172,-77.366026 L 449.37615,-79.712544 M 421.39994,-30.435652 L 425.78645,-29.105958 L 422.86211,-31.999997 M 413.01683,-36.614817 L 425.78645,-29.105958 M 301.9893,-40.603899 L 304.13382,-43.028635 L 300.72209,-41.855376 M 294.38601,-36.614817 L 304.13382,-43.028635 M 617.42834,18.215503 L 619.86529,17.511547 L 617.33086,17.198678 M 616.2586,17.746199 L 619.86529,17.511547 M 533.98711,-23.708965 L 535.54676,-25.351528 L 533.10981,-24.647572 M 531.55016,-23.005009 L 535.54676,-25.351528 M 501.23448,21.109543 L 503.47647,22.04815 L 502.11178,20.32737 M 497.72527,17.746199 L 503.47647,22.04815 M 633.80465,154.31359 L 636.33908,154.23537 L 634.09709,153.29676 M 633.21979,153.68785 L 636.33908,154.23537 M 600.46715,72.811171 L 603.00158,72.576519 L 600.66211,71.794346 M 599.29742,72.185433 L 603.00158,72.576519 M 515.56376,155.01754 L 517.90323,155.79972 L 516.34358,154.15715 M 514.58897,153.68785 L 517.90323,155.79972 M 484.27329,67.023092 L 484.56573,64.676573 L 482.81112,66.553788 M 480.76408,72.185433 L 484.56573,64.676573 M 395.37329,153.84428 L 397.42033,155.09576 L 396.44555,153.21855 M 396.05564,153.68785 L 397.42033,155.09576 M 464.97264,-91.054051 L 466.53229,-92.696614 L 464.19281,-91.914442 M 463.8029,-90.975834 L 466.53229,-92.696614 M 344.97713,-90.50653 L 347.41408,-89.880792 L 345.65948,-91.36692 M 345.26957,-90.975834 L 347.41408,-89.880792 M 583.40849,-77.131374 L 585.55301,-78.226416 L 583.01858,-78.148198 M 582.33623,-77.366026 L 585.55301,-78.226416 M 550.26595,-36.849469 L 552.11803,-38.257381 L 549.5836,-37.788077 M 548.51134,-36.614817 L 552.11803,-38.257381 M 465.36255,-77.913547 L 466.53229,-79.712544 L 464.38777,-78.617502 M 463.8029,-77.366026 L 466.53229,-79.712544 M 437.28886,-29.888131 L 441.38294,-28.245567 L 438.94599,-31.374259 M 429.88053,-36.614817 L 441.38294,-28.245567 M 319.43788,-41.464289 L 321.67987,-44.280112 L 317.97571,-42.715766 M 311.3472,-36.614817 L 321.67987,-44.280112 M 634.19457,18.215503 L 636.63152,17.589764 L 634.09709,17.198678 M 633.21979,17.746199 L 636.63152,17.589764 M 518.68305,16.651157 L 520.53514,15.243246 L 518.00071,15.634332 M 514.58897,17.746199 L 520.53514,15.243246 M 296.82297,137.6533 L 297.40783,135.61966 L 295.65323,137.10578 M 294.38601,140.07804 L 297.40783,135.61966 M 617.33086,72.732954 L 619.86529,72.420085 L 617.42834,71.716129 M 616.2586,72.185433 L 619.86529,72.420085 M 532.42746,154.78289 L 534.86441,155.40863 L 533.10981,153.84428 M 531.55016,153.68785 L 534.86441,155.40863 M 412.91935,154.70467 L 414.67395,156.1908 L 414.08908,154.15715 M 413.01683,153.68785 L 414.67395,156.1908 M 481.93382,-91.054051 L 483.59095,-92.618397 L 481.154,-91.914442 M 480.76408,-90.975834 L 483.59095,-92.618397 M 361.74336,-90.50653 L 364.27779,-90.350096 L 362.13327,-91.523355 M 362.13327,-90.975834 L 364.27779,-90.350096 M 600.2722,-77.053156 L 602.51419,-78.069981 L 599.97976,-78.069981 M 599.29742,-77.366026 L 602.51419,-78.069981 M 567.03218,-36.614817 L 568.98174,-37.866294 L 566.44731,-37.553425 M 565.47253,-36.614817 L 568.98174,-37.866294 M 453.47022,-30.435652 L 457.17439,-28.871306 L 454.9324,-31.687128 M 446.84172,-36.614817 L 457.17439,-28.871306 M 337.27637,-41.855376 L 339.71332,-44.90585 L 335.61924,-43.263287 M 328.30838,-36.614817 L 339.71332,-44.90585 M 534.57198,17.355113 L 536.61902,16.181853 L 534.08459,16.338288 M 531.55016,17.746199 L 536.61902,16.181853 M 421.98481,137.73152 L 425.00663,135.77609 L 421.20498,136.24539 M 413.01683,140.07804 L 425.00663,135.77609 M 634.09709,72.732954 L 636.63152,72.341867 L 634.19457,71.716129 M 633.21979,72.185433 L 636.63152,72.341867 M 549.29117,154.62646 L 551.8256,155.09576 L 549.97351,153.68785 M 548.51134,153.68785 L 551.8256,155.09576 M 498.89501,-90.975834 L 500.64961,-92.461963 L 498.21266,-91.836224 M 497.72527,-90.975834 L 500.64961,-92.461963 M 378.60707,-90.50653 L 381.1415,-90.975834 L 378.60707,-91.445138 M 379.09446,-90.975834 L 381.1415,-90.975834 M 354.23755,-52.492927 L 357.25937,-54.44836 L 353.45772,-53.979056 M 345.26957,-50.146409 L 357.25937,-54.44836 M 617.1359,-76.974939 L 619.3779,-77.913547 L 616.84347,-77.991764 M 616.2586,-77.366026 L 619.3779,-77.913547 M 583.70093,-36.458383 L 585.84544,-37.553425 L 583.31101,-37.475208 M 582.33623,-36.614817 L 585.84544,-37.553425 M 470.13897,-31.374259 L 473.55071,-30.122782 L 471.40619,-32.547518 M 463.8029,-36.614817 L 473.55071,-30.122782 M 355.11485,-41.15142 L 358.03919,-44.04546 L 353.65268,-42.715766 M 345.26957,-36.614817 L 358.03919,-44.04546 M 550.85082,17.746199 L 553.09281,16.729374 L 550.55838,16.729374 M 548.51134,17.746199 L 553.09281,16.729374 M 438.4586,137.10578 L 441.18799,134.99392 L 437.48382,135.69787 M 429.88053,140.07804 L 441.18799,134.99392 M 313.58919,137.184 L 313.88163,135.15035 L 312.32198,136.79291 M 311.3472,140.07804 L 313.88163,135.15035 M 566.15487,154.54824 L 568.6893,154.86111 L 566.73974,153.53141 M 565.47253,153.68785 L 568.6893,154.86111 M 633.99961,-90.584748 L 636.33908,-91.445138 L 633.80465,-91.601572 M 633.21979,-90.975834 L 636.33908,-91.445138 M 515.75871,-90.897617 L 517.61079,-92.305528 L 515.07636,-91.836224 M 514.58897,-90.975834 L 517.61079,-92.305528 M 396.05564,-90.428313 L 398.20016,-91.523355 L 395.66573,-91.445138 M 396.05564,-90.975834 L 398.20016,-91.523355 M 371.39369,-51.163233 L 374.80542,-52.649362 L 370.9063,-52.649362 M 362.13327,-50.146409 L 374.80542,-52.649362 M 633.99961,-76.974939 L 636.33908,-77.835329 L 633.80465,-77.991764 M 633.21979,-77.366026 L 636.33908,-77.835329 M 600.46715,-36.380166 L 602.70915,-37.39699 L 600.17472,-37.39699 M 599.29742,-36.614817 L 602.70915,-37.39699 M 483.7859,-39.508857 L 484.46825,-41.464289 L 482.61617,-40.056378 M 480.76408,-36.614817 L 484.46825,-41.464289 M 567.32461,17.980851 L 569.66408,17.042243 L 567.12965,16.964026 M 565.47253,17.746199 L 569.66408,17.042243 M 447.8165,143.36317 L 449.37615,145.00573 L 449.08371,142.97208 M 446.84172,140.07804 L 449.37615,145.00573 M 335.91167,144.45821 L 339.61584,145.24038 L 336.88645,143.0503 M 328.30838,140.07804 L 339.61584,145.24038 M 583.11606,154.47002 L 585.65049,154.62646 L 583.50597,153.4532 M 582.33623,153.68785 L 585.65049,154.62646 M 532.7199,-90.819399 L 534.66946,-92.149093 L 532.13503,-91.836224 M 531.55016,-90.975834 L 534.66946,-92.149093 M 413.40674,-90.50653 L 415.16134,-91.992659 L 412.62691,-91.445138 M 413.01683,-90.975834 L 415.16134,-91.992659 M 388.35487,-49.364236 L 392.05904,-50.146409 L 388.35487,-50.928582 M 379.09446,-50.146409 L 392.05904,-50.146409 M 617.23338,-36.223731 L 619.57286,-37.162339 L 617.03843,-37.240556 M 616.2586,-36.614817 L 619.57286,-37.162339 M 583.99336,4.4492598 L 586.23536,3.432435 L 583.70093,3.432435 M 582.33623,4.2146079 L 586.23536,3.432435 M 500.45465,-38.492032 L 501.52691,-40.369247 L 499.47987,-39.195988 M 497.72527,-36.614817 L 501.52691,-40.369247 M 583.21354,140.93843 L 585.74797,141.09487 L 583.60345,139.92161 M 582.33623,140.07804 L 585.74797,141.09487 M 583.99336,18.059068 L 586.33283,17.276895 L 583.7984,17.042243 M 582.33623,17.746199 L 586.33283,17.276895 M 465.07011,143.0503 L 466.82472,144.53643 L 466.23985,142.50278 M 463.8029,140.07804 L 466.82472,144.53643 M 353.45772,143.91069 L 357.25937,144.37999 L 354.23755,142.42456 M 345.26957,140.07804 L 357.25937,144.37999 M 549.5836,-90.741182 L 551.63064,-91.992659 L 549.09621,-91.758007 M 548.51134,-90.975834 L 551.63064,-91.992659 M 516.73349,-50.928582 L 518.09818,-52.649362 L 515.75871,-51.710754 M 514.58897,-50.146409 L 518.09818,-52.649362 M 430.66036,-90.819399 L 432.31748,-92.383745 L 429.88053,-91.67979 M 429.88053,-90.975834 L 432.31748,-92.383745 M 404.82867,-47.643455 L 408.72779,-47.721673 L 405.31606,-49.207801 M 396.05564,-50.146409 L 408.72779,-47.721673 M 634.09709,-36.223731 L 636.43656,-37.084121 L 633.90213,-37.240556 M 633.21979,-36.614817 L 636.43656,-37.084121 M 600.66211,4.5274771 L 603.00158,3.6670869 L 600.46715,3.5106523 M 599.29742,4.2146079 L 603.00158,3.6670869 M 517.02593,-37.70986 L 518.39062,-39.43064 L 516.14862,-38.492032 M 514.58897,-36.614817 L 518.39062,-39.43064 M 484.07834,10.471991 L 486.51529,12.505641 L 485.73547,9.7680355 M 480.76408,4.2146079 L 486.51529,12.505641 M 600.07724,140.86021 L 602.61167,140.86021 L 600.36968,139.76517 M 599.29742,140.07804 L 602.61167,140.86021 M 482.0313,142.58099 L 483.98086,143.91069 L 483.20104,141.95526 M 480.76408,140.07804 L 483.98086,143.91069 M 370.9063,142.58099 L 374.80542,142.58099 L 371.39369,141.09487 M 362.13327,140.07804 L 374.80542,142.58099 M 566.44731,-90.662965 L 568.59183,-91.836224 L 566.0574,-91.758007 M 565.47253,-90.975834 L 568.59183,-91.836224 M 533.40224,-50.537495 L 535.05937,-52.101841 L 532.62242,-51.397885 M 531.55016,-50.146409 L 535.05937,-52.101841 M 447.91397,-90.975834 L 449.37615,-92.618397 L 447.03667,-91.836224 M 446.84172,-90.975834 L 449.37615,-92.618397 M 421.20498,-46.313761 L 425.00663,-45.844458 L 421.98481,-47.79989 M 413.01683,-50.146409 L 425.00663,-45.844458 M 295.65323,-47.174152 L 297.40783,-45.688023 L 296.82297,-47.721673 M 294.38601,-50.146409 L 297.40783,-45.688023 M 617.42834,4.6056944 L 619.76781,3.7453042 L 617.23338,3.5888696 M 616.2586,4.2146079 L 619.76781,3.7453042 M 502.11178,8.281907 L 504.54873,9.2987318 L 503.08656,7.4215168 M 497.72527,4.2146079 L 504.54873,9.2987318 M 617.03843,140.70378 L 619.57286,140.70378 L 617.33086,139.76517 M 616.2586,140.07804 L 619.57286,140.70378 M 498.99248,142.03347 L 501.137,143.20673 L 500.06474,141.32952 M 497.72527,140.07804 L 501.137,143.20673 M 388.35487,140.86021 L 392.05904,140.07804 L 388.35487,139.29587 M 379.09446,140.07804 L 392.05904,140.07804 M 583.31101,-90.662965 L 585.55301,-91.67979 L 583.01858,-91.67979 M 582.33623,-90.975834 L 585.55301,-91.67979 M 550.07099,-50.224626 L 551.92308,-51.710754 L 549.38865,-51.241451 M 548.51134,-50.146409 L 551.92308,-51.710754 M 437.48382,-45.76624 L 441.18799,-45.062285 L 438.4586,-47.174152 M 429.88053,-50.146409 L 441.18799,-45.062285 M 312.32198,-46.861282 L 313.88163,-45.218719 L 313.58919,-47.252369 M 311.3472,-50.146409 L 313.88163,-45.218719 M 634.19457,4.6056944 L 636.63152,3.9017387 L 634.09709,3.6670869 M 633.21979,4.2146079 L 636.63152,3.9017387 M 518.39062,2.6502621 L 519.95027,1.007699 L 517.51332,1.7116546 M 514.58897,4.2146079 L 519.95027,1.007699 M 406.48579,124.12171 L 410.09248,122.00985 L 405.60849,122.40093 M 396.05564,126.54645 L 410.09248,122.00985 M 633.90213,140.70378 L 636.43656,140.62556 L 634.09709,139.68695 M 633.21979,140.07804 L 636.43656,140.62556 M 515.75871,141.64239 L 518.09818,142.58099 L 516.73349,140.86021 M 514.58897,140.07804 L 518.09818,142.58099 M 405.31606,139.13943 L 408.72779,137.6533 L 404.82867,137.57509 M 396.05564,140.07804 L 408.72779,137.6533 M 328.60082,-62.113654 L 330.35542,-60.627526 L 329.86803,-62.661175 M 328.30838,-63.756217 L 330.35542,-60.627526 M 600.17472,-90.584748 L 602.41672,-91.601572 L 599.88229,-91.601572 M 599.29742,-90.975834 L 602.41672,-91.601572 M 566.9347,-50.068191 L 568.88426,-51.397885 L 566.34983,-51.085016 M 565.47253,-50.146409 L 568.88426,-51.397885 M 449.08371,-53.040448 L 449.37615,-55.074098 L 447.8165,-53.431535 M 446.84172,-50.146409 L 449.37615,-55.074098 M 336.88645,-53.118666 L 339.61584,-55.30875 L 335.91167,-54.526577 M 328.30838,-50.146409 L 339.61584,-55.30875 M 300.72209,-17.295147 L 301.59939,-21.049577 L 298.38262,-18.155537 M 294.38601,-9.3952006 L 301.59939,-21.049577 M 534.4745,3.5106523 L 536.32658,2.1027411 L 533.79215,2.5720448 M 531.55016,4.2146079 L 536.32658,2.1027411 M 422.86211,121.93163 L 425.78645,119.03759 L 421.39994,120.36728 M 413.01683,126.54645 L 425.78645,119.03759 M 300.72209,131.78701 L 304.13382,132.96027 L 301.9893,130.53553 M 294.38601,126.54645 L 304.13382,132.96027 M 532.62242,141.32952 L 535.05937,142.03347 L 533.40224,140.46913 M 531.55016,140.07804 L 535.05937,142.03347 M 345.17209,-62.739392 L 346.92669,-61.253264 L 346.34183,-63.286913 M 345.26957,-63.756217 L 346.92669,-61.253264 M 617.1359,-90.584748 L 619.3779,-91.523355 L 616.84347,-91.601572 M 616.2586,-90.975834 L 619.3779,-91.523355 M 583.60345,-49.989974 L 585.74797,-51.163233 L 583.21354,-51.006799 M 582.33623,-50.146409 L 585.74797,-51.163233 M 466.23985,-52.571145 L 466.82472,-54.604794 L 465.07011,-53.118666 M 463.8029,-50.146409 L 466.82472,-54.604794 M 550.75334,3.979956 L 552.80038,2.7284794 L 550.26595,2.9631313 M 548.51134,4.2146079 L 552.80038,2.7284794 M 438.94599,121.30589 L 441.38294,118.1772 L 437.28886,119.81976 M 429.88053,126.54645 L 441.38294,118.1772 M 317.97571,132.6474 L 321.67987,134.21174 L 319.43788,131.39592 M 311.3472,126.54645 L 321.67987,134.21174 M 549.38865,141.17308 L 551.92308,141.64239 L 550.07099,140.15626 M 548.51134,140.07804 L 551.92308,141.64239 M 361.45093,-63.599783 L 363.49797,-62.348306 L 362.52319,-64.225521 M 362.13327,-63.756217 L 363.49797,-62.348306 M 600.36968,-49.833539 L 602.61167,-50.928582 L 600.07724,-50.928582 M 599.29742,-50.146409 L 602.61167,-50.928582 M 483.20104,-52.023624 L 483.98086,-53.979056 L 482.0313,-52.649362 M 480.76408,-50.146409 L 483.98086,-53.979056 M 567.32461,4.2928252 L 569.46913,3.1977831 L 566.9347,3.2760004 M 565.47253,4.2146079 L 569.46913,3.1977831 M 454.9324,121.61876 L 457.17439,118.80294 L 453.47022,120.36728 M 446.84172,126.54645 L 457.17439,118.80294 M 335.61924,133.19492 L 339.71332,134.83748 L 337.27637,131.78701 M 328.30838,126.54645 L 339.71332,134.83748 M 566.34983,141.01665 L 568.88426,141.32952 L 566.9347,139.99982 M 565.47253,140.07804 L 568.88426,141.32952 M 377.82724,-63.286913 L 380.36167,-63.756217 L 377.82724,-64.225521 M 379.09446,-63.756217 L 380.36167,-63.756217 M 617.33086,-49.833539 L 619.57286,-50.772147 L 617.03843,-50.772147 M 616.2586,-50.146409 L 619.57286,-50.772147 M 500.06474,-51.397885 L 501.137,-53.2751 L 498.99248,-52.101841 M 497.72527,-50.146409 L 501.137,-53.2751 M 471.40619,122.47915 L 473.55071,120.05441 L 470.13897,121.30589 M 463.8029,126.54645 L 473.55071,120.05441 M 353.65268,132.6474 L 358.03919,133.97709 L 355.11485,131.08305 M 345.26957,126.54645 L 358.03919,133.97709 M 499.57735,-64.460173 L 500.84457,-66.25917 L 498.60257,-65.242346 M 497.72527,-63.756217 L 500.84457,-66.25917 M 634.09709,-49.755322 L 636.43656,-50.69393 L 633.90213,-50.772147 M 633.21979,-50.146409 L 636.43656,-50.69393 M 482.61617,129.98801 L 484.46825,131.39592 L 483.7859,129.44049 M 480.76408,126.54645 L 484.46825,131.39592 M 371.68612,130.61375 L 376.17012,131.00483 L 372.56343,128.89297 M 362.13327,126.54645 L 376.17012,131.00483 M 516.34358,-64.225521 L 517.90323,-65.868084 L 515.56376,-65.085911 M 514.58897,-63.756217 L 517.90323,-65.868084 M 396.44555,-63.286913 L 397.42033,-65.164128 L 395.37329,-63.912652 M 396.05564,-63.756217 L 397.42033,-65.164128 M 295.26332,-61.879002 L 297.21288,-60.549308 L 296.33558,-62.50474 M 294.38601,-63.756217 L 297.21288,-60.549308 M 499.47987,129.12762 L 501.52691,130.30088 L 500.45465,128.42366 M 497.72527,126.54645 L 501.52691,130.30088 M 389.42713,127.40684 L 393.61869,126.54645 L 389.42713,125.68606 M 379.09446,126.54645 L 393.61869,126.54645 M 533.10981,-63.912652 L 534.86441,-65.476997 L 532.42746,-64.851259 M 531.55016,-63.756217 L 534.86441,-65.476997 M 414.08908,-64.225521 L 414.67395,-66.25917 L 412.91935,-64.773042 M 413.01683,-63.756217 L 414.67395,-66.25917 M 311.93207,-61.879002 L 313.78415,-60.392874 L 313.1018,-62.426523 M 311.3472,-63.756217 L 313.78415,-60.392874 M 516.14862,128.42366 L 518.39062,129.36227 L 517.02593,127.64149 M 514.58897,126.54645 L 518.39062,129.36227 M 549.97351,-63.756217 L 551.8256,-65.164128 L 549.29117,-64.694825 M 548.51134,-63.756217 L 551.8256,-65.164128 M 431.44018,-64.929476 L 432.02505,-66.963126 L 430.27044,-65.476997 M 429.88053,-63.756217 L 432.02505,-66.963126 M 532.81737,128.03258 L 535.25433,128.73653 L 533.69468,127.09397 M 531.55016,126.54645 L 535.25433,128.73653 M 566.73974,-63.599783 L 568.6893,-64.929476 L 566.15487,-64.616607 M 565.47253,-63.756217 L 568.6893,-64.929476 M 448.59632,-65.085911 L 449.27867,-67.119561 L 447.42658,-65.633432 M 446.84172,-63.756217 L 449.27867,-67.119561 M 549.5836,127.71971 L 552.11803,128.18901 L 550.26595,126.7811 M 548.51134,126.54645 L 552.11803,128.18901 M 583.50597,-63.521565 L 585.65049,-64.694825 L 583.11606,-64.53839 M 582.33623,-63.756217 L 585.65049,-64.694825 M 465.75246,-65.007694 L 466.62976,-66.963126 L 464.6802,-65.633432 M 463.8029,-63.756217 L 466.62976,-66.963126 M 600.36968,-63.443348 L 602.51419,-64.53839 L 599.97976,-64.53839 M 599.29742,-63.756217 L 602.51419,-64.53839 M 482.71365,-64.773042 L 483.7859,-66.650257 L 481.64139,-65.476997 M 480.76408,-63.756217 L 483.7859,-66.650257 M 295.55575,180.82925 L 297.1154,179.18669 L 294.77593,179.96886 M 294.38601,180.90747 L 297.1154,179.18669 M 617.23338,-63.443348 L 619.47538,-64.381955 L 616.94095,-64.381955 M 616.2586,-63.756217 L 619.47538,-64.381955 M 312.41946,180.90747 L 313.88163,179.18669 L 311.54215,180.04708 M 311.3472,180.90747 L 313.88163,179.18669 M 634.09709,-63.365131 L 636.33908,-64.303738 L 633.80465,-64.381955 M 633.21979,-63.756217 L 636.33908,-64.303738 M 329.08821,181.0639 L 330.64786,179.42134 L 328.30838,180.20351 M 328.30838,180.90747 L 330.64786,179.42134 M 294.97088,-76.114549 L 297.1154,-75.019507 L 295.94566,-76.818505 M 294.38601,-77.366026 L 297.1154,-75.019507 M 345.65948,181.29855 L 347.41408,179.81242 L 344.97713,180.43816 M 345.26957,180.90747 L 347.41408,179.81242 M 362.13327,181.45499 L 364.27779,180.28173 L 361.74336,180.43816 M 362.13327,180.90747 L 364.27779,180.28173 M 378.60707,181.37677 L 381.1415,180.90747 L 378.60707,180.43816 M 379.09446,180.90747 L 381.1415,180.90747 M 395.66573,181.37677 L 398.20016,181.45499 L 396.05564,180.35994 M 396.05564,180.90747 L 398.20016,181.45499 M 412.62691,181.37677 L 415.16134,181.92429 L 413.40674,180.43816 M 413.01683,180.90747 L 415.16134,181.92429 M 429.88053,181.61142 L 432.31748,182.31538 L 430.66036,180.75103 M 429.88053,180.90747 L 432.31748,182.31538 M 447.03667,181.76786 L 449.37615,182.55003 L 447.91397,180.90747 M 446.84172,180.90747 L 449.37615,182.55003"
         id="path2313"
         style="color:#000000;fill:none;stroke:currentColor;stroke-width:0.87318212;stroke-linecap:butt;stroke-linejoin:miter" />
      <path
         id="path2317"
         d=""
         style="color:#ff0000;fill:none;stroke:currentColor;stroke-width:0.87318212;stroke-linecap:butt;stroke-linejoin:miter" />
    </g>
  </g>
</svg>
