<?xml version="1.0" encoding="UTF-8" standalone="no"?>
<!-- Generator: Adobe Illustrator 11 Build 196, SVG Export Plug-In . SVG Version: 6.0.0 Build 78)  -->
<svg
   xmlns:dc="http://purl.org/dc/elements/1.1/"
   xmlns:cc="http://web.resource.org/cc/"
   xmlns:rdf="http://www.w3.org/1999/02/22-rdf-syntax-ns#"
   xmlns:svg="http://www.w3.org/2000/svg"
   xmlns="http://www.w3.org/2000/svg"
   xmlns:sodipodi="http://inkscape.sourceforge.net/DTD/sodipodi-0.dtd"
   xmlns:inkscape="http://www.inkscape.org/namespaces/inkscape"
   width="111.219"
   height="220.25"
   viewBox="0 0 111.219 220.25"
   style="overflow:visible;enable-background:new 0 0 111.219 220.25"
   xml:space="preserve"
   id="svg2"
   sodipodi:version="0.32"
   sodipodi:docname="eg-two-charges-pe.svg"
   sodipodi:docbase="/home/bcrowell/Documents/writing/lm/trunk/4em/ch06/figs"><metadata
   id="metadata708"><rdf:RDF><cc:Work
       rdf:about=""><dc:format>image/svg+xml</dc:format><dc:type
         rdf:resource="http://purl.org/dc/dcmitype/StillImage" /></cc:Work></rdf:RDF></metadata><defs
   id="defs706">
		
		
		
		
		
		
		
		
		
		
		
		
		
		
		
		
		
		
		
		
		
		
		
		
		
		
		
		
		
		
		
		
		
		
		
		
		
		
		
		
		
		
		
		
		
		
		
		
		
		
		
		
		
		
		
		
		
		
		
		
		
		
		
		
		
		
		
		
		
		
		
		
		
		
		
		
		
		
		
		
		
		
		
		
		
		
		
		
		
		
		
		
		
		
		
		
		
		
		
		
		
		
		
		
		
		
		
		
		
		
		
		
		
		
		
		
		 
		 
		
	</defs><sodipodi:namedview
   inkscape:cy="103.50235"
   inkscape:cx="50.436407"
   inkscape:zoom="2.0115568"
   inkscape:window-height="510"
   inkscape:window-width="712"
   inkscape:pageshadow="2"
   inkscape:pageopacity="0.0"
   borderopacity="1.0"
   bordercolor="#666666"
   pagecolor="#ffffff"
   id="base"
   inkscape:window-x="326"
   inkscape:window-y="326"
   inkscape:current-layer="svg2" />
	<style
   type="text/css"
   id="style4">
	
	</style>
	<path
   id="path7"
   d="M 0.71900000,153.75000 C 6.2190000,156.25000 34.719000,162.25000 39.219000,162.75000 C 43.719000,163.25000 64.719000,160.75000 71.219000,159.75000 C 77.719000,158.75000 98.719000,154.25000 103.71900,151.25000 C 108.71900,148.25000 111.21900,146.75000 111.21900,146.75000 L 111.21900,220.25000 L 0.71900000,220.25000 L 0.71900000,153.75000 z "
   style="fill:#dedede;fill-opacity:1.0000000" /><path
   id="path9"
   d="M 0.21900000,66.500000 C 5.7190000,64.000000 34.219000,58.000000 38.719000,57.500000 C 43.219000,57.000000 64.219000,59.500000 70.719000,60.500000 C 77.219000,61.500000 98.219000,66.000000 103.21900,69.000000 C 108.21900,72.000000 110.71900,73.500000 110.71900,73.500000 L 110.71900,0.0000000 L 0.21900000,0.0000000 L 0.21900000,66.500000 z "
   style="fill:#dedede;fill-opacity:1.0000000" /><g
   id="g11">
			<line
   id="line13"
   y2="161.74500"
   x2="64.848000"
   y1="160.67400"
   x1="76.197998"
   style="fill:none;stroke:#000000;stroke-width:0.50000000" />
			<path
   id="path15"
   d="M 78.118000,160.49200 C 77.245000,160.91300 76.177000,161.59200 75.538000,162.26400 L 75.943000,160.69700 L 75.252000,159.23400 C 76.005000,159.77400 77.182000,160.24200 78.118000,160.49200 z " />
		</g><g
   id="g17">
			<line
   id="line19"
   y2="156.40100"
   x2="63.425999"
   y1="150.15900"
   x1="73.371002"
   style="fill:none;stroke:#000000;stroke-width:0.50000000" />
			<path
   id="path21"
   d="M 75.004000,149.13300 C 74.414000,149.90200 73.765000,150.98800 73.497000,151.87600 L 73.154000,150.29400 L 71.879000,149.29800 C 72.794000,149.44300 74.055000,149.33100 75.004000,149.13300 z " />
		</g><g
   id="g23">
			<line
   id="line25"
   y2="153.02200"
   x2="60.056000"
   y1="141.92999"
   x1="65.132004"
   style="fill:none;stroke:#000000;stroke-width:0.50000000" />
			<path
   id="path27"
   d="M 65.935000,140.17100 C 65.863000,141.13800 65.917000,142.40200 66.181000,143.29200 L 65.026000,142.15800 L 63.413000,142.02500 C 64.258000,141.64300 65.250000,140.85700 65.935000,140.17100 z " />
		</g><g
   id="g29">
			<line
   id="line31"
   y2="151.90601"
   x2="54.665001"
   y1="138.79601"
   x1="54.666000"
   style="fill:none;stroke:#000000;stroke-width:0.50000000" />
			<path
   id="path33"
   d="M 54.665000,136.86600 C 55.002000,137.77500 55.578000,138.90200 56.186000,139.60100 L 54.665000,139.05000 L 53.144000,139.60000 C 53.752000,138.90200 54.328000,137.77500 54.665000,136.86600 z " />
		</g><g
   id="g35">
			<line
   id="line37"
   y2="162.23801"
   x2="84.237000"
   y1="160.18100"
   x1="93.342003"
   style="fill:none;stroke:#000000;stroke-width:0.50000000" />
			<path
   id="path39"
   d="M 95.224000,159.75200 C 94.412000,160.28100 93.439000,161.09100 92.891000,161.83900 L 93.093000,160.23300 L 92.221000,158.87000 C 93.037000,159.31100 94.263000,159.62300 95.224000,159.75200 z " />
		</g><g
   id="g41">
			<line
   id="line43"
   y2="152.57800"
   x2="83.008003"
   y1="146.49899"
   x1="90.455002"
   style="fill:none;stroke:#000000;stroke-width:0.50000000" />
			<path
   id="path45"
   d="M 91.952000,145.27500 C 91.461000,146.11100 90.952000,147.27000 90.795000,148.18400 L 90.259000,146.65700 L 88.870000,145.82600 C 89.798000,145.85600 91.035000,145.58900 91.952000,145.27500 z " />
		</g><g
   id="g47">
			<line
   id="line49"
   y2="143.42500"
   x2="78.030998"
   y1="135.12399"
   x1="83.582001"
   style="fill:none;stroke:#000000;stroke-width:0.50000000" />
			<path
   id="path51"
   d="M 84.658000,133.51800 C 84.433000,134.46100 84.284000,135.71800 84.403000,136.63800 L 83.444000,135.33400 L 81.873000,134.94600 C 82.768000,134.70300 83.873000,134.08600 84.658000,133.51800 z " />
		</g><g
   id="g53">
			<line
   id="line55"
   y2="137.22900"
   x2="70.002998"
   y1="126.08400"
   x1="73.453003"
   style="fill:none;stroke:#000000;stroke-width:0.50000000" />
			<path
   id="path57"
   d="M 74.026000,124.23900 C 74.079000,125.20700 74.296000,126.45400 74.671000,127.30100 L 73.380000,126.32500 L 71.764000,126.40100 C 72.553000,125.91400 73.436000,125.00700 74.026000,124.23900 z " />
		</g><g
   id="g59">
			<line
   id="line61"
   y2="134.12500"
   x2="60.199001"
   y1="121.08100"
   x1="60.984001"
   style="fill:none;stroke:#000000;stroke-width:0.50000000" />
			<path
   id="path63"
   d="M 61.100000,119.15000 C 61.382000,120.07800 61.889000,121.23800 62.454000,121.97200 L 60.968000,121.33100 L 59.416000,121.78900 C 60.067000,121.12800 60.709000,120.03800 61.100000,119.15000 z " />
		</g><g
   id="g65">
			<line
   id="line67"
   y2="161.92400"
   x2="102.62500"
   y1="160.49500"
   x1="107.48700"
   style="fill:none;stroke:#000000;stroke-width:0.50000000" />
			<path
   id="path69"
   d="M 109.33800,159.94800 C 108.56100,160.52800 107.64200,161.39800 107.14300,162.17900 L 107.24200,160.56400 L 106.28500,159.25900 C 107.12700,159.64600 108.37100,159.88100 109.33800,159.94800 z " />
		</g><g
   id="g71">
			<line
   id="line73"
   y2="149.47501"
   x2="101.08100"
   y1="146.86099"
   x1="105.59800"
   style="fill:none;stroke:#000000;stroke-width:0.50000000" />
			<path
   id="path75"
   d="M 107.27100,145.89400 C 106.65300,146.64100 105.96500,147.70400 105.66600,148.58100 L 105.38000,146.98800 L 104.14200,145.94600 C 105.05200,146.12400 106.31600,146.05800 107.27100,145.89400 z " />
		</g><g
   id="g77">
			<line
   id="line79"
   y2="138.26601"
   x2="96.794998"
   y1="133.76401"
   x1="99.816002"
   style="fill:none;stroke:#000000;stroke-width:0.50000000" />
			<path
   id="path81"
   d="M 100.89100,132.16200 C 100.66400,133.10500 100.51400,134.36200 100.63100,135.28100 L 99.674000,133.97600 L 98.104000,133.58500 C 98.998000,133.34400 100.10400,132.72900 100.89100,132.16200 z " />
		</g><g
   id="g83">
			<line
   id="line85"
   y2="128.53400"
   x2="89.161003"
   y1="122.62300"
   x1="91.434998"
   style="fill:none;stroke:#000000;stroke-width:0.50000000" />
			<path
   id="path87"
   d="M 92.128000,120.81800 C 92.116000,121.78700 92.249000,123.04600 92.566000,123.91700 L 91.343000,122.85700 L 89.725000,122.82400 C 90.545000,122.39100 91.487000,121.54500 92.128000,120.81800 z " />
		</g><g
   id="g89">
			<line
   id="line91"
   y2="121.33600"
   x2="79.353996"
   y1="113.80500"
   x1="80.372002"
   style="fill:none;stroke:#000000;stroke-width:0.50000000" />
			<path
   id="path93"
   d="M 80.628000,111.88900 C 80.840000,112.83500 81.260000,114.02900 81.770000,114.80400 L 80.336000,114.05400 L 78.754000,114.39500 C 79.452000,113.78500 80.173000,112.74500 80.628000,111.88900 z " />
		</g><g
   id="g95">
			<line
   id="line97"
   y2="115.16900"
   x2="67.679001"
   y1="106.30300"
   x1="67.741997"
   style="fill:none;stroke:#000000;stroke-width:0.50000000" />
			<path
   id="path99"
   d="M 67.756000,104.37200 C 68.087000,105.28300 68.654000,106.41500 69.258000,107.11800 L 67.740000,106.55600 L 66.215000,107.09600 C 66.830000,106.40200 67.413000,105.27900 67.756000,104.37200 z " />
		</g><g
   id="g101">
			<line
   id="line103"
   y2="115.88500"
   x2="54.667999"
   y1="105.75100"
   x1="54.668999"
   style="fill:none;stroke:#000000;stroke-width:0.50000000" />
			<path
   id="path105"
   d="M 54.669000,103.82000 C 55.006000,104.72900 55.582000,105.85600 56.190000,106.55500 L 54.669000,106.00400 L 53.147000,106.55400 C 53.757000,105.85600 54.332000,104.72900 54.669000,103.82000 z " />
		</g><g
   id="g107">
			<line
   id="line109"
   y2="172.27499"
   x2="54.652000"
   y1="182.02100"
   x1="54.652000"
   style="fill:none;stroke:#000000;stroke-width:0.50000000" />
			<path
   id="path111"
   d="M 54.652000,183.95200 C 54.315000,183.04300 53.740000,181.91600 53.131000,181.21700 L 54.653000,181.76800 L 56.174000,181.21800 C 55.565000,181.91600 54.990000,183.04300 54.652000,183.95200 z " />
		</g><g
   id="g113">
			<line
   id="line115"
   y2="170.64301"
   x2="59.397999"
   y1="179.40401"
   x1="65.764000"
   style="fill:none;stroke:#000000;stroke-width:0.50000000" />
			<path
   id="path117"
   d="M 66.898000,180.96800 C 66.091000,180.43100 64.963000,179.85700 64.059000,179.65000 L 65.614000,179.20100 L 66.521000,177.86200 C 66.439000,178.78400 66.637000,180.03400 66.898000,180.96800 z " />
		</g><g
   id="g119">
			<line
   id="line121"
   y2="166.68100"
   x2="63.473999"
   y1="171.75900"
   x1="73.296997"
   style="fill:none;stroke:#000000;stroke-width:0.50000000" />
			<path
   id="path123"
   d="M 75.015000,172.64500 C 74.053000,172.52700 72.787000,172.52000 71.887000,172.74100 L 73.075000,171.64200 L 73.284000,170.03800 C 73.625000,170.89900 74.362000,171.92800 75.015000,172.64500 z " />
		</g><g
   id="g125">
			<line
   id="line127"
   y2="190.43900"
   x2="59.791000"
   y1="199.35500"
   x1="61.362999"
   style="fill:none;stroke:#000000;stroke-width:0.50000000" />
			<path
   id="path129"
   d="M 61.698000,201.25700 C 61.208000,200.42100 60.446000,199.41000 59.725000,198.82700 L 61.319000,199.10500 L 62.722000,198.29900 C 62.244000,199.09300 61.873000,200.30300 61.698000,201.25700 z " />
		</g><g
   id="g131">
			<line
   id="line133"
   y2="186.80299"
   x2="69.380997"
   y1="194.88600"
   x1="74.046997"
   style="fill:none;stroke:#000000;stroke-width:0.50000000" />
			<path
   id="path135"
   d="M 75.013000,196.56200 C 74.267000,195.94300 73.205000,195.25400 72.328000,194.95400 L 73.921000,194.67000 L 74.964000,193.43300 C 74.786000,194.34200 74.851000,195.60600 75.013000,196.56200 z " />
		</g><g
   id="g137">
			<line
   id="line139"
   y2="180.51100"
   x2="76.998001"
   y1="185.94299"
   x1="84.587997"
   style="fill:none;stroke:#000000;stroke-width:0.50000000" />
			<path
   id="path141"
   d="M 86.160000,187.06800 C 85.225000,186.81400 83.973000,186.62500 83.050000,186.71400 L 84.383000,185.79700 L 84.821000,184.23900 C 85.035000,185.14100 85.617000,186.26600 86.160000,187.06800 z " />
		</g><g
   id="g143">
			<line
   id="line145"
   y2="172.31599"
   x2="82.098000"
   y1="173.61200"
   x1="91.341003"
   style="fill:none;stroke:#000000;stroke-width:0.50000000" />
			<path
   id="path147"
   d="M 93.255000,173.88100 C 92.308000,174.08900 91.112000,174.50200 90.335000,175.00800 L 91.091000,173.57800 L 90.758000,171.99500 C 91.366000,172.69500 92.402000,173.42100 93.255000,173.88100 z " />
		</g><g
   id="g149">
			<line
   id="line151"
   y2="209.40100"
   x2="54.648998"
   y1="213.96100"
   x1="54.647999"
   style="fill:none;stroke:#000000;stroke-width:0.50000000" />
			<path
   id="path153"
   d="M 54.648000,215.89200 C 54.311000,214.98300 53.736000,213.85600 53.127000,213.15700 L 54.648000,213.70700 L 56.169000,213.15700 C 55.561000,213.85600 54.985000,214.98400 54.648000,215.89200 z " />
		</g><g
   id="g155">
			<line
   id="line157"
   y2="207.64101"
   x2="67.067001"
   y1="212.28999"
   x1="68.313004"
   style="fill:none;stroke:#000000;stroke-width:0.50000000" />
			<path
   id="path159"
   d="M 68.816000,214.15400 C 68.255000,213.36300 67.407000,212.42400 66.638000,211.90600 L 68.250000,212.04400 L 69.577000,211.11800 C 69.171000,211.95100 68.907000,213.18900 68.816000,214.15400 z " />
		</g><g
   id="g161">
			<line
   id="line163"
   y2="202.79300"
   x2="78.608002"
   y1="207.07201"
   x1="81.078003"
   style="fill:none;stroke:#000000;stroke-width:0.50000000" />
			<path
   id="path165"
   d="M 82.047000,208.74400 C 81.300000,208.12500 80.238000,207.43700 79.361000,207.13600 L 80.954000,206.85200 L 81.996000,205.61500 C 81.819000,206.52400 81.885000,207.78900 82.047000,208.74400 z " />
		</g><g
   id="g167">
			<line
   id="line169"
   y2="195.18300"
   x2="88.442001"
   y1="198.67000"
   x1="92.117996"
   style="fill:none;stroke:#000000;stroke-width:0.50000000" />
			<path
   id="path171"
   d="M 93.521000,200.00200 C 92.629000,199.62100 91.416000,199.26200 90.489000,199.22300 L 91.936000,198.49800 L 92.584000,197.01600 C 92.671000,197.93800 93.093000,199.13200 93.521000,200.00200 z " />
		</g><g
   id="g173">
			<line
   id="line175"
   y2="185.54900"
   x2="95.938004"
   y1="187.43401"
   x1="100.64000"
   style="fill:none;stroke:#000000;stroke-width:0.50000000" />
			<path
   id="path177"
   d="M 102.43200,188.15500 C 101.46300,188.13000 100.20300,188.24400 99.328000,188.55000 L 100.40500,187.34200 L 100.46000,185.72500 C 100.88100,186.55000 101.71400,187.50400 102.43200,188.15500 z " />
		</g><g
   id="g179">
			<line
   id="line181"
   y2="173.97600"
   x2="100.81700"
   y1="174.70399"
   x1="105.83200"
   style="fill:none;stroke:#000000;stroke-width:0.50000000" />
			<path
   id="path183"
   d="M 107.74400,174.98400 C 106.79600,175.18700 105.59800,175.59500 104.81900,176.09700 L 105.58200,174.67000 L 105.25600,173.08500 C 105.85900,173.78900 106.89300,174.52000 107.74400,174.98400 z " />
		</g><g
   id="g185">
			<line
   id="line187"
   y2="161.74500"
   x2="44.494999"
   y1="160.67400"
   x1="33.146000"
   style="fill:none;stroke:#000000;stroke-width:0.50000000" />
			<path
   id="path189"
   d="M 31.221000,160.49200 C 32.158000,160.24200 33.334000,159.77500 34.087000,159.23400 L 33.396000,160.69700 L 33.801000,162.26300 C 33.162000,161.59100 32.094000,160.91300 31.221000,160.49200 z " />
		</g><g
   id="g191">
			<line
   id="line193"
   y2="156.40100"
   x2="45.917000"
   y1="150.15900"
   x1="35.972000"
   style="fill:none;stroke:#000000;stroke-width:0.50000000" />
			<path
   id="path195"
   d="M 34.336000,149.13000 C 35.285000,149.32700 36.545000,149.44000 37.461000,149.29500 L 36.186000,150.29200 L 35.843000,151.87300 C 35.575000,150.98500 34.926000,149.89800 34.336000,149.13000 z " />
		</g><g
   id="g197">
			<line
   id="line199"
   y2="153.02200"
   x2="49.286999"
   y1="141.92999"
   x1="44.210999"
   style="fill:none;stroke:#000000;stroke-width:0.50000000" />
			<path
   id="path201"
   d="M 43.405000,140.17500 C 44.090000,140.86100 45.082000,141.64700 45.926000,142.02900 L 44.314000,142.16200 L 43.159000,143.29500 C 43.423000,142.40700 43.477000,141.14200 43.405000,140.17500 z " />
		</g><g
   id="g203">
			<line
   id="line205"
   y2="162.23801"
   x2="25.105000"
   y1="160.18100"
   x1="16.000999"
   style="fill:none;stroke:#000000;stroke-width:0.50000000" />
			<path
   id="path207"
   d="M 14.114000,159.75700 C 15.075000,159.62800 16.301000,159.31600 17.117000,158.87500 L 16.245000,160.23800 L 16.447000,161.84300 C 15.899000,161.09500 14.926000,160.28600 14.114000,159.75700 z " />
		</g><g
   id="g209">
			<line
   id="line211"
   y2="152.57800"
   x2="26.334999"
   y1="146.49899"
   x1="18.888000"
   style="fill:none;stroke:#000000;stroke-width:0.50000000" />
			<path
   id="path213"
   d="M 17.391000,145.27900 C 18.308000,145.59200 19.546000,145.86000 20.472000,145.83000 L 19.083000,146.66100 L 18.547000,148.18800 C 18.391000,147.27400 17.881000,146.11500 17.391000,145.27900 z " />
		</g><g
   id="g215">
			<line
   id="line217"
   y2="143.42500"
   x2="31.312000"
   y1="135.12399"
   x1="25.761000"
   style="fill:none;stroke:#000000;stroke-width:0.50000000" />
			<path
   id="path219"
   d="M 24.688000,133.52100 C 25.473000,134.08900 26.579000,134.70600 27.473000,134.94900 L 25.902000,135.33700 L 24.944000,136.64000 C 25.062000,135.72100 24.914000,134.46400 24.688000,133.52100 z " />
		</g><g
   id="g221">
			<line
   id="line223"
   y2="137.22900"
   x2="39.339001"
   y1="126.08400"
   x1="35.890999"
   style="fill:none;stroke:#000000;stroke-width:0.50000000" />
			<path
   id="path225"
   d="M 35.321000,124.24100 C 35.912000,125.01000 36.795000,125.91700 37.583000,126.40400 L 35.967000,126.32800 L 34.676000,127.30400 C 35.052000,126.45600 35.268000,125.20900 35.321000,124.24100 z " />
		</g><g
   id="g227">
			<line
   id="line229"
   y2="134.12500"
   x2="49.144001"
   y1="121.08100"
   x1="48.359001"
   style="fill:none;stroke:#000000;stroke-width:0.50000000" />
			<path
   id="path231"
   d="M 48.241000,119.15500 C 48.632000,120.04200 49.274000,121.13300 49.924000,121.79400 L 48.372000,121.33600 L 46.886000,121.97700 C 47.452000,121.24200 47.958000,120.08300 48.241000,119.15500 z " />
		</g><g
   id="g233">
			<line
   id="line235"
   y2="161.92400"
   x2="6.7170000"
   y1="160.49500"
   x1="1.8559999"
   style="fill:none;stroke:#000000;stroke-width:0.50000000" />
			<path
   id="path237"
   d="M 0.0000000,159.95100 C 0.96700000,159.88400 2.2110000,159.65000 3.0530000,159.26200 L 2.0960000,160.56700 L 2.1950000,162.18200 C 1.6970000,161.40000 0.77700000,160.53000 0.0000000,159.95100 z " />
		</g><g
   id="g239">
			<line
   id="line241"
   y2="149.47501"
   x2="8.2620001"
   y1="146.86099"
   x1="3.7449999"
   style="fill:none;stroke:#000000;stroke-width:0.50000000" />
			<path
   id="path243"
   d="M 2.0750000,145.89500 C 3.0300000,146.05900 4.2940000,146.12500 5.2040000,145.94800 L 3.9650000,146.99000 L 3.6800000,148.58300 C 3.3810000,147.70500 2.6930000,146.64200 2.0750000,145.89500 z " />
		</g><g
   id="g245">
			<line
   id="line247"
   y2="138.26601"
   x2="12.548000"
   y1="133.76401"
   x1="9.5270004"
   style="fill:none;stroke:#000000;stroke-width:0.50000000" />
			<path
   id="path249"
   d="M 8.4510000,132.15800 C 9.2370000,132.72500 10.343000,133.34100 11.239000,133.58100 L 9.6690000,133.97200 L 8.7120000,135.27700 C 8.8280000,134.35700 8.6780000,133.10000 8.4510000,132.15800 z " />
		</g><g
   id="g251">
			<line
   id="line253"
   y2="128.53400"
   x2="20.181999"
   y1="122.62300"
   x1="17.908001"
   style="fill:none;stroke:#000000;stroke-width:0.50000000" />
			<path
   id="path255"
   d="M 17.212000,120.82200 C 17.853000,121.54900 18.795000,122.39500 19.614000,122.82800 L 17.996000,122.86100 L 16.774000,123.92100 C 17.092000,123.05000 17.224000,121.79200 17.212000,120.82200 z " />
		</g><g
   id="g257">
			<line
   id="line259"
   y2="121.33600"
   x2="29.990000"
   y1="113.80500"
   x1="28.971001"
   style="fill:none;stroke:#000000;stroke-width:0.50000000" />
			<path
   id="path261"
   d="M 28.709000,111.89100 C 29.165000,112.74600 29.886000,113.78700 30.584000,114.39700 L 29.002000,114.05600 L 27.568000,114.80500 C 28.078000,114.03100 28.498000,112.83600 28.709000,111.89100 z " />
		</g><g
   id="g263">
			<line
   id="line265"
   y2="170.64301"
   x2="49.945000"
   y1="179.40401"
   x1="43.578999"
   style="fill:none;stroke:#000000;stroke-width:0.50000000" />
			<path
   id="path267"
   d="M 42.444000,180.96600 C 42.705000,180.03300 42.902000,178.78200 42.820000,177.85900 L 43.728000,179.19800 L 45.282000,179.64700 C 44.379000,179.85500 43.250000,180.42900 42.444000,180.96600 z " />
		</g><g
   id="g269">
			<line
   id="line271"
   y2="166.68100"
   x2="45.868999"
   y1="171.75900"
   x1="36.046001"
   style="fill:none;stroke:#000000;stroke-width:0.50000000" />
			<path
   id="path273"
   d="M 34.330000,172.64700 C 34.982000,171.93000 35.720000,170.90100 36.061000,170.04000 L 36.271000,171.64400 L 37.459000,172.74300 C 36.558000,172.52300 35.292000,172.53000 34.330000,172.64700 z " />
		</g><g
   id="g275">
			<line
   id="line277"
   y2="190.43900"
   x2="49.551998"
   y1="199.35500"
   x1="47.980000"
   style="fill:none;stroke:#000000;stroke-width:0.50000000" />
			<path
   id="path279"
   d="M 47.645000,201.25800 C 47.471000,200.30400 47.100000,199.09400 46.621000,198.30000 L 48.024000,199.10600 L 49.618000,198.82800 C 48.897000,199.41100 48.135000,200.42100 47.645000,201.25800 z " />
		</g><g
   id="g281">
			<line
   id="line283"
   y2="186.80299"
   x2="39.962002"
   y1="194.88600"
   x1="35.296001"
   style="fill:none;stroke:#000000;stroke-width:0.50000000" />
			<path
   id="path285"
   d="M 34.333000,196.55800 C 34.496000,195.60200 34.561000,194.33800 34.383000,193.42900 L 35.425000,194.66600 L 37.018000,194.95000 C 36.142000,195.25000 35.079000,195.93900 34.333000,196.55800 z " />
		</g><g
   id="g287">
			<line
   id="line289"
   y2="180.51100"
   x2="32.345001"
   y1="185.94299"
   x1="24.754999"
   style="fill:none;stroke:#000000;stroke-width:0.50000000" />
			<path
   id="path291"
   d="M 23.187000,187.06700 C 23.730000,186.26400 24.312000,185.14000 24.525000,184.23800 L 24.963000,185.79600 L 26.296000,186.71300 C 25.374000,186.62500 24.122000,186.81200 23.187000,187.06700 z " />
		</g><g
   id="g293">
			<line
   id="line295"
   y2="172.31599"
   x2="27.245001"
   y1="173.61200"
   x1="18.002001"
   style="fill:none;stroke:#000000;stroke-width:0.50000000" />
			<path
   id="path297"
   d="M 16.092000,173.88100 C 16.945000,173.42100 17.982000,172.69400 18.589000,171.99400 L 18.255000,173.57700 L 19.011000,175.00700 C 18.235000,174.50200 17.038000,174.08900 16.092000,173.88100 z " />
		</g><g
   id="g299">
			<line
   id="line301"
   y2="207.64101"
   x2="42.276001"
   y1="212.28999"
   x1="41.029999"
   style="fill:none;stroke:#000000;stroke-width:0.50000000" />
			<path
   id="path303"
   d="M 40.532000,214.15900 C 40.442000,213.19400 40.178000,211.95600 39.770000,211.12300 L 41.098000,212.04800 L 42.710000,211.91000 C 41.940000,212.42800 41.093000,213.36900 40.532000,214.15900 z " />
		</g><g
   id="g305">
			<line
   id="line307"
   y2="202.79300"
   x2="30.733999"
   y1="207.07201"
   x1="28.264999"
   style="fill:none;stroke:#000000;stroke-width:0.50000000" />
			<path
   id="path309"
   d="M 27.302000,208.74800 C 27.464000,207.79200 27.530000,206.52800 27.351000,205.61800 L 28.393000,206.85500 L 29.986000,207.13900 C 29.110000,207.44000 28.048000,208.12900 27.302000,208.74800 z " />
		</g><g
   id="g311">
			<line
   id="line313"
   y2="195.18300"
   x2="20.900999"
   y1="198.67000"
   x1="17.225000"
   style="fill:none;stroke:#000000;stroke-width:0.50000000" />
			<path
   id="path315"
   d="M 15.827000,199.99900 C 16.254000,199.12900 16.676000,197.93600 16.764000,197.01300 L 17.412000,198.49500 L 18.859000,199.22000 C 17.933000,199.25900 16.719000,199.61800 15.827000,199.99900 z " />
		</g><g
   id="g317">
			<line
   id="line319"
   y2="185.54900"
   x2="13.406000"
   y1="187.43401"
   x1="8.7030001"
   style="fill:none;stroke:#000000;stroke-width:0.50000000" />
			<path
   id="path321"
   d="M 6.9110000,188.15000 C 7.6290000,187.49900 8.4620000,186.54600 8.8830000,185.72000 L 8.9380000,187.33700 L 10.015000,188.54500 C 9.1410000,188.24000 7.8800000,188.12500 6.9110000,188.15000 z " />
		</g><g
   id="g323">
			<line
   id="line325"
   y2="173.97600"
   x2="8.5260000"
   y1="174.70399"
   x1="3.5120001"
   style="fill:none;stroke:#000000;stroke-width:0.50000000" />
			<path
   id="path327"
   d="M 1.6040000,174.97900 C 2.4550000,174.51500 3.4880000,173.78300 4.0920000,173.08100 L 3.7660000,174.66500 L 4.5290000,176.09200 C 3.7500000,175.59000 2.5510000,175.18300 1.6040000,174.97900 z " />
		</g><g
   id="g329">
			<line
   id="line331"
   y2="59.758999"
   x2="43.731998"
   y1="60.830002"
   x1="32.382999"
   style="fill:none;stroke:#000000;stroke-width:0.50000000" />
			<path
   id="path333"
   d="M 45.653000,59.577000 C 44.780000,59.998000 43.712000,60.677000 43.073000,61.349000 L 43.478000,59.783000 L 42.787000,58.320000 C 43.540000,58.859000 44.717000,59.327000 45.653000,59.577000 z " />
		</g><g
   id="g335">
			<line
   id="line337"
   y2="65.102997"
   x2="45.154999"
   y1="71.345001"
   x1="35.209000"
   style="fill:none;stroke:#000000;stroke-width:0.50000000" />
			<path
   id="path339"
   d="M 46.788000,64.077000 C 46.197000,64.846000 45.548000,65.932000 45.280000,66.820000 L 44.937000,65.238000 L 43.662000,64.242000 C 44.578000,64.386000 45.839000,64.274000 46.788000,64.077000 z " />
		</g><g
   id="g341">
			<line
   id="line343"
   y2="68.482002"
   x2="48.523998"
   y1="79.573997"
   x1="43.449001"
   style="fill:none;stroke:#000000;stroke-width:0.50000000" />
			<path
   id="path345"
   d="M 49.328000,66.723000 C 49.256000,67.689000 49.310000,68.954000 49.573000,69.843000 L 48.419000,68.709000 L 46.806000,68.576000 C 47.650000,68.195000 48.643000,67.409000 49.328000,66.723000 z " />
		</g><g
   id="g347">
			<line
   id="line349"
   y2="69.598000"
   x2="53.916000"
   y1="82.708000"
   x1="53.915001"
   style="fill:none;stroke:#000000;stroke-width:0.50000000" />
			<path
   id="path351"
   d="M 53.915000,67.667000 C 54.252000,68.576000 54.828000,69.703000 55.436000,70.402000 L 53.915000,69.851000 L 52.394000,70.401000 C 53.002000,69.704000 53.578000,68.576000 53.915000,67.667000 z " />
		</g><g
   id="g353">
			<line
   id="line355"
   y2="59.265999"
   x2="24.343000"
   y1="61.323002"
   x1="15.239000"
   style="fill:none;stroke:#000000;stroke-width:0.50000000" />
			<path
   id="path357"
   d="M 26.225000,58.837000 C 25.413000,59.366000 24.440000,60.176000 23.892000,60.924000 L 24.094000,59.319000 L 23.221000,57.956000 C 24.038000,58.396000 25.264000,58.708000 26.225000,58.837000 z " />
		</g><g
   id="g359">
			<line
   id="line361"
   y2="68.926003"
   x2="25.572001"
   y1="75.004997"
   x1="18.125000"
   style="fill:none;stroke:#000000;stroke-width:0.50000000" />
			<path
   id="path363"
   d="M 27.069000,67.703000 C 26.578000,68.539000 26.069000,69.698000 25.913000,70.611000 L 25.377000,69.084000 L 23.989000,68.253000 C 24.915000,68.283000 26.152000,68.016000 27.069000,67.703000 z " />
		</g><g
   id="g365">
			<line
   id="line367"
   y2="78.079002"
   x2="30.549999"
   y1="86.379997"
   x1="24.999001"
   style="fill:none;stroke:#000000;stroke-width:0.50000000" />
			<path
   id="path369"
   d="M 31.626000,76.472000 C 31.401000,77.415000 31.252000,78.672000 31.370000,79.592000 L 30.412000,78.288000 L 28.841000,77.900000 C 29.735000,77.658000 30.840000,77.040000 31.626000,76.472000 z " />
		</g><g
   id="g371">
			<line
   id="line373"
   y2="84.274002"
   x2="38.577000"
   y1="95.419998"
   x1="35.127998"
   style="fill:none;stroke:#000000;stroke-width:0.50000000" />
			<path
   id="path375"
   d="M 39.151000,82.429000 C 39.204000,83.397000 39.421000,84.644000 39.796000,85.492000 L 38.505000,84.516000 L 36.889000,84.592000 C 37.677000,84.105000 38.560000,83.198000 39.151000,82.429000 z " />
		</g><g
   id="g377">
			<line
   id="line379"
   y2="87.378998"
   x2="48.381001"
   y1="100.42300"
   x1="47.596001"
   style="fill:none;stroke:#000000;stroke-width:0.50000000" />
			<path
   id="path381"
   d="M 48.497000,85.449000 C 48.779000,86.377000 49.286000,87.537000 49.851000,88.271000 L 48.365000,87.630000 L 46.813000,88.088000 C 47.464000,87.427000 48.106000,86.336000 48.497000,85.449000 z " />
		</g><g
   id="g383">
			<line
   id="line385"
   y2="59.580002"
   x2="5.9549999"
   y1="61.008999"
   x1="1.0940000"
   style="fill:none;stroke:#000000;stroke-width:0.50000000" />
			<path
   id="path387"
   d="M 7.8060000,59.033000 C 7.0290000,59.613000 6.1090000,60.483000 5.6110000,61.264000 L 5.7100000,59.649000 L 4.7530000,58.344000 C 5.5950000,58.732000 6.8390000,58.966000 7.8060000,59.033000 z " />
		</g><g
   id="g389">
			<line
   id="line391"
   y2="72.028999"
   x2="7.5000000"
   y1="74.642998"
   x1="2.9830000"
   style="fill:none;stroke:#000000;stroke-width:0.50000000" />
			<path
   id="path393"
   d="M 9.1730000,71.062000 C 8.5550000,71.809000 7.8670000,72.872000 7.5680000,73.749000 L 7.2820000,72.156000 L 6.0440000,71.115000 C 6.9540000,71.292000 8.2180000,71.226000 9.1730000,71.062000 z " />
		</g><g
   id="g395">
			<line
   id="line397"
   y2="83.237999"
   x2="11.785000"
   y1="87.739998"
   x1="8.7639999"
   style="fill:none;stroke:#000000;stroke-width:0.50000000" />
			<path
   id="path399"
   d="M 12.860000,81.636000 C 12.634000,82.579000 12.483000,83.836000 12.600000,84.755000 L 11.643000,83.450000 L 10.073000,83.059000 C 10.967000,82.818000 12.073000,82.203000 12.860000,81.636000 z " />
		</g><g
   id="g401">
			<line
   id="line403"
   y2="92.969002"
   x2="19.419001"
   y1="98.879997"
   x1="17.146000"
   style="fill:none;stroke:#000000;stroke-width:0.50000000" />
			<path
   id="path405"
   d="M 20.112000,91.164000 C 20.101000,92.133000 20.233000,93.392000 20.550000,94.263000 L 19.327000,93.203000 L 17.710000,93.170000 C 18.529000,92.737000 19.471000,91.891000 20.112000,91.164000 z " />
		</g><g
   id="g407">
			<line
   id="line409"
   y2="109.58800"
   x2="27.409000"
   y1="102.05700"
   x1="28.427999"
   style="fill:none;stroke:#000000;stroke-width:0.50000000" />
			<path
   id="path411"
   d="M 28.685000,100.14100 C 28.897000,101.08700 29.316000,102.28100 29.827000,103.05600 L 28.392000,102.30600 L 26.810000,102.64800 C 27.507000,102.03600 28.229000,100.99600 28.685000,100.14100 z " />
		</g><g
   id="g413">
			<line
   id="line415"
   y2="49.229000"
   x2="53.928001"
   y1="39.481998"
   x1="53.928001"
   style="fill:none;stroke:#000000;stroke-width:0.50000000" />
			<path
   id="path417"
   d="M 53.928000,51.159000 C 53.591000,50.250000 53.015000,49.123000 52.407000,48.424000 L 53.928000,48.975000 L 55.449000,48.425000 C 54.841000,49.123000 54.265000,50.250000 53.928000,51.159000 z " />
		</g><g
   id="g419">
			<line
   id="line421"
   y2="50.860001"
   x2="49.181999"
   y1="42.098999"
   x1="42.816002"
   style="fill:none;stroke:#000000;stroke-width:0.50000000" />
			<path
   id="path423"
   d="M 50.316000,52.424000 C 49.509000,51.887000 48.380000,51.313000 47.477000,51.106000 L 49.032000,50.657000 L 49.939000,49.317000 C 49.857000,50.240000 50.055000,51.490000 50.316000,52.424000 z " />
		</g><g
   id="g425">
			<line
   id="line427"
   y2="54.823002"
   x2="45.105999"
   y1="49.744999"
   x1="35.283001"
   style="fill:none;stroke:#000000;stroke-width:0.50000000" />
			<path
   id="path429"
   d="M 46.823000,55.708000 C 45.861000,55.590000 44.595000,55.583000 43.695000,55.804000 L 44.883000,54.705000 L 45.093000,53.101000 C 45.434000,53.963000 46.171000,54.992000 46.823000,55.708000 z " />
		</g><g
   id="g431">
			<line
   id="line433"
   y2="31.063999"
   x2="48.789001"
   y1="22.148001"
   x1="47.217999"
   style="fill:none;stroke:#000000;stroke-width:0.50000000" />
			<path
   id="path435"
   d="M 49.125000,32.966000 C 48.635000,32.130000 47.873000,31.119000 47.151000,30.537000 L 48.745000,30.815000 L 50.148000,30.009000 C 49.670000,30.802000 49.299000,32.013000 49.125000,32.966000 z " />
		</g><g
   id="g437">
			<line
   id="line439"
   y2="34.701000"
   x2="39.200001"
   y1="26.618000"
   x1="34.533001"
   style="fill:none;stroke:#000000;stroke-width:0.50000000" />
			<path
   id="path441"
   d="M 40.166000,36.376000 C 39.420000,35.758000 38.357000,35.069000 37.481000,34.768000 L 39.074000,34.484000 L 40.116000,33.247000 C 39.938000,34.156000 40.004000,35.421000 40.166000,36.376000 z " />
		</g><g
   id="g443">
			<line
   id="line445"
   y2="40.992001"
   x2="31.583000"
   y1="35.561001"
   x1="23.993000"
   style="fill:none;stroke:#000000;stroke-width:0.50000000" />
			<path
   id="path447"
   d="M 33.154000,42.118000 C 32.218000,41.863000 30.967000,41.675000 30.044000,41.764000 L 31.377000,40.847000 L 31.815000,39.289000 C 32.029000,40.190000 32.611000,41.314000 33.154000,42.118000 z " />
		</g><g
   id="g449">
			<line
   id="line451"
   y2="49.188000"
   x2="26.482000"
   y1="47.891998"
   x1="17.240000"
   style="fill:none;stroke:#000000;stroke-width:0.50000000" />
			<path
   id="path453"
   d="M 28.397000,49.457000 C 27.450000,49.665000 26.254000,50.078000 25.477000,50.584000 L 26.233000,49.153000 L 25.899000,47.570000 C 26.507000,48.270000 27.544000,48.997000 28.397000,49.457000 z " />
		</g><g
   id="g455">
			<line
   id="line457"
   y2="12.103000"
   x2="53.931999"
   y1="7.5430002"
   x1="53.931999"
   style="fill:none;stroke:#000000;stroke-width:0.50000000" />
			<path
   id="path459"
   d="M 53.932000,14.034000 C 53.595000,13.125000 53.019000,11.998000 52.411000,11.299000 L 53.932000,11.850000 L 55.453000,11.299000 C 54.844000,11.998000 54.269000,13.125000 53.932000,14.034000 z " />
		</g><g
   id="g461">
			<line
   id="line463"
   y2="13.863000"
   x2="41.513000"
   y1="9.2139997"
   x1="40.268002"
   style="fill:none;stroke:#000000;stroke-width:0.50000000" />
			<path
   id="path465"
   d="M 42.016000,15.728000 C 41.455000,14.937000 40.608000,13.997000 39.839000,13.479000 L 41.451000,13.617000 L 42.778000,12.692000 C 42.371000,13.524000 42.107000,14.762000 42.016000,15.728000 z " />
		</g><g
   id="g467">
			<line
   id="line469"
   y2="18.709999"
   x2="29.972000"
   y1="14.432000"
   x1="27.502001"
   style="fill:none;stroke:#000000;stroke-width:0.50000000" />
			<path
   id="path471"
   d="M 30.941000,20.383000 C 30.195000,19.764000 29.132000,19.075000 28.256000,18.775000 L 29.849000,18.491000 L 30.892000,17.254000 C 30.713000,18.163000 30.779000,19.427000 30.941000,20.383000 z " />
		</g><g
   id="g473">
			<line
   id="line475"
   y2="26.320999"
   x2="20.138000"
   y1="22.834000"
   x1="16.462999"
   style="fill:none;stroke:#000000;stroke-width:0.50000000" />
			<path
   id="path477"
   d="M 21.541000,27.653000 C 20.649000,27.272000 19.436000,26.914000 18.510000,26.874000 L 19.957000,26.149000 L 20.605000,24.666000 C 20.692000,25.589000 21.114000,26.783000 21.541000,27.653000 z " />
		</g><g
   id="g479">
			<line
   id="line481"
   y2="35.955002"
   x2="12.643000"
   y1="34.070000"
   x1="7.9400001"
   style="fill:none;stroke:#000000;stroke-width:0.50000000" />
			<path
   id="path483"
   d="M 14.435000,36.675000 C 13.466000,36.650000 12.205000,36.764000 11.330000,37.070000 L 12.407000,35.862000 L 12.462000,34.245000 C 12.884000,35.071000 13.717000,36.024000 14.435000,36.675000 z " />
		</g><g
   id="g485">
			<line
   id="line487"
   y2="47.528000"
   x2="7.7630000"
   y1="46.799999"
   x1="2.7490001"
   style="fill:none;stroke:#000000;stroke-width:0.50000000" />
			<path
   id="path489"
   d="M 9.6750000,47.808000 C 8.7270000,48.011000 7.5290000,48.419000 6.7500000,48.921000 L 7.5130000,47.494000 L 7.1870000,45.910000 C 7.7910000,46.613000 8.8240000,47.344000 9.6750000,47.808000 z " />
		</g><g
   id="g491">
			<line
   id="line493"
   y2="59.758999"
   x2="64.084999"
   y1="60.830002"
   x1="75.434998"
   style="fill:none;stroke:#000000;stroke-width:0.50000000" />
			<path
   id="path495"
   d="M 62.161000,59.577000 C 63.097000,59.327000 64.274000,58.860000 65.027000,58.319000 L 64.336000,59.782000 L 64.741000,61.348000 C 64.102000,60.677000 63.033000,59.998000 62.161000,59.577000 z " />
		</g><g
   id="g497">
			<line
   id="line499"
   y2="65.102997"
   x2="62.662998"
   y1="71.345001"
   x1="72.608002"
   style="fill:none;stroke:#000000;stroke-width:0.50000000" />
			<path
   id="path501"
   d="M 61.026000,64.073000 C 61.975000,64.271000 63.236000,64.383000 64.151000,64.239000 L 62.876000,65.235000 L 62.533000,66.816000 C 62.266000,65.928000 61.617000,64.841000 61.026000,64.073000 z " />
		</g><g
   id="g503">
			<line
   id="line505"
   y2="68.482002"
   x2="59.292999"
   y1="79.573997"
   x1="64.369003"
   style="fill:none;stroke:#000000;stroke-width:0.50000000" />
			<path
   id="path507"
   d="M 58.487000,66.727000 C 59.172000,67.413000 60.164000,68.199000 61.008000,68.581000 L 59.396000,68.714000 L 58.241000,69.847000 C 58.505000,68.958000 58.559000,67.694000 58.487000,66.727000 z " />
		</g><g
   id="g509">
			<line
   id="line511"
   y2="59.265999"
   x2="83.474998"
   y1="61.323002"
   x1="92.579002"
   style="fill:none;stroke:#000000;stroke-width:0.50000000" />
			<path
   id="path513"
   d="M 81.587000,58.842000 C 82.548000,58.713000 83.775000,58.401000 84.590000,57.960000 L 83.718000,59.323000 L 83.919000,60.928000 C 83.372000,60.181000 82.399000,59.371000 81.587000,58.842000 z " />
		</g><g
   id="g515">
			<line
   id="line517"
   y2="68.926003"
   x2="82.246002"
   y1="75.004997"
   x1="89.692001"
   style="fill:none;stroke:#000000;stroke-width:0.50000000" />
			<path
   id="path519"
   d="M 80.748000,67.707000 C 81.665000,68.020000 82.903000,68.288000 83.829000,68.258000 L 82.440000,69.089000 L 81.904000,70.616000 C 81.749000,69.701000 81.239000,68.542000 80.748000,67.707000 z " />
		</g><g
   id="g521">
			<line
   id="line523"
   y2="78.079002"
   x2="77.267998"
   y1="86.379997"
   x1="82.819000"
   style="fill:none;stroke:#000000;stroke-width:0.50000000" />
			<path
   id="path525"
   d="M 76.195000,76.476000 C 76.980000,77.044000 78.086000,77.661000 78.980000,77.903000 L 77.409000,78.292000 L 76.451000,79.595000 C 76.569000,78.675000 76.420000,77.418000 76.195000,76.476000 z " />
		</g><g
   id="g527">
			<line
   id="line529"
   y2="84.274002"
   x2="69.240997"
   y1="95.419998"
   x1="72.689003"
   style="fill:none;stroke:#000000;stroke-width:0.50000000" />
			<path
   id="path531"
   d="M 68.671000,82.432000 C 69.262000,83.200000 70.145000,84.107000 70.933000,84.595000 L 69.317000,84.519000 L 68.026000,85.495000 C 68.402000,84.647000 68.618000,83.400000 68.671000,82.432000 z " />
		</g><g
   id="g533">
			<line
   id="line535"
   y2="87.378998"
   x2="59.436001"
   y1="100.42300"
   x1="60.222000"
   style="fill:none;stroke:#000000;stroke-width:0.50000000" />
			<path
   id="path537"
   d="M 59.318000,85.453000 C 59.709000,86.340000 60.352000,87.431000 61.002000,88.092000 L 59.450000,87.634000 L 57.965000,88.275000 C 58.530000,87.541000 59.036000,86.381000 59.318000,85.453000 z " />
		</g><g
   id="g539">
			<line
   id="line541"
   y2="59.580002"
   x2="101.86300"
   y1="61.008999"
   x1="106.72400"
   style="fill:none;stroke:#000000;stroke-width:0.50000000" />
			<path
   id="path543"
   d="M 100.00700,59.036000 C 100.97400,58.969000 102.21800,58.735000 103.06000,58.348000 L 102.10300,59.653000 L 102.20200,61.268000 C 101.70300,60.485000 100.78400,59.615000 100.00700,59.036000 z " />
		</g><g
   id="g545">
			<line
   id="line547"
   y2="72.028999"
   x2="100.31800"
   y1="74.642998"
   x1="104.83500"
   style="fill:none;stroke:#000000;stroke-width:0.50000000" />
			<path
   id="path549"
   d="M 98.648000,71.063000 C 99.603000,71.226000 100.86800,71.292000 101.77700,71.116000 L 100.53900,72.158000 L 100.25300,73.750000 C 99.954000,72.873000 99.266000,71.810000 98.648000,71.063000 z " />
		</g><g
   id="g551">
			<line
   id="line553"
   y2="83.237999"
   x2="96.032997"
   y1="87.739998"
   x1="99.053001"
   style="fill:none;stroke:#000000;stroke-width:0.50000000" />
			<path
   id="path555"
   d="M 94.957000,81.632000 C 95.743000,82.199000 96.849000,82.815000 97.744000,83.055000 L 96.174000,83.446000 L 95.217000,84.751000 C 95.333000,83.831000 95.183000,82.574000 94.957000,81.632000 z " />
		</g><g
   id="g557">
			<line
   id="line559"
   y2="92.969002"
   x2="88.398003"
   y1="98.879997"
   x1="90.671997"
   style="fill:none;stroke:#000000;stroke-width:0.50000000" />
			<path
   id="path561"
   d="M 87.703000,91.168000 C 88.344000,91.895000 89.286000,92.741000 90.105000,93.174000 L 88.487000,93.207000 L 87.265000,94.267000 C 87.582000,93.396000 87.714000,92.138000 87.703000,91.168000 z " />
		</g><g
   id="g563">
			<line
   id="line565"
   y2="109.58600"
   x2="80.417000"
   y1="102.05500"
   x1="79.399002"
   style="fill:none;stroke:#000000;stroke-width:0.50000000" />
			<path
   id="path567"
   d="M 79.138000,100.14100 C 79.594000,100.99600 80.315000,102.03700 81.013000,102.64800 L 79.431000,102.30600 L 77.997000,103.05600 C 78.506000,102.28100 78.925000,101.08600 79.138000,100.14100 z " />
		</g><g
   id="g569">
			<line
   id="line571"
   y2="50.860001"
   x2="58.636002"
   y1="42.098999"
   x1="65.000999"
   style="fill:none;stroke:#000000;stroke-width:0.50000000" />
			<path
   id="path573"
   d="M 57.500000,52.422000 C 57.761000,51.488000 57.958000,50.238000 57.876000,49.315000 L 58.784000,50.655000 L 60.338000,51.104000 C 59.436000,51.311000 58.307000,51.885000 57.500000,52.422000 z " />
		</g><g
   id="g575">
			<line
   id="line577"
   y2="54.823002"
   x2="62.710999"
   y1="49.744999"
   x1="72.535004"
   style="fill:none;stroke:#000000;stroke-width:0.50000000" />
			<path
   id="path579"
   d="M 60.996000,55.711000 C 61.648000,54.994000 62.386000,53.965000 62.726000,53.104000 L 62.936000,54.708000 L 64.124000,55.807000 C 63.224000,55.587000 61.958000,55.594000 60.996000,55.711000 z " />
		</g><g
   id="g581">
			<line
   id="line583"
   y2="31.063999"
   x2="59.028000"
   y1="22.148001"
   x1="60.599998"
   style="fill:none;stroke:#000000;stroke-width:0.50000000" />
			<path
   id="path585"
   d="M 58.693000,32.967000 C 58.519000,32.013000 58.148000,30.803000 57.669000,30.009000 L 59.072000,30.815000 L 60.666000,30.537000 C 59.945000,31.120000 59.183000,32.131000 58.693000,32.967000 z " />
		</g><g
   id="g587">
			<line
   id="line589"
   y2="34.701000"
   x2="68.617996"
   y1="26.618000"
   x1="73.283997"
   style="fill:none;stroke:#000000;stroke-width:0.50000000" />
			<path
   id="path591"
   d="M 67.655000,36.373000 C 67.818000,35.417000 67.883000,34.153000 67.704000,33.244000 L 68.747000,34.481000 L 70.340000,34.765000 C 69.463000,35.065000 68.401000,35.754000 67.655000,36.373000 z " />
		</g><g
   id="g593">
			<line
   id="line595"
   y2="40.992001"
   x2="76.235001"
   y1="35.561001"
   x1="83.824997"
   style="fill:none;stroke:#000000;stroke-width:0.50000000" />
			<path
   id="path597"
   d="M 74.667000,42.117000 C 75.209000,41.314000 75.792000,40.190000 76.005000,39.288000 L 76.443000,40.846000 L 77.776000,41.763000 C 76.854000,41.674000 75.602000,41.862000 74.667000,42.117000 z " />
		</g><g
   id="g599">
			<line
   id="line601"
   y2="49.188000"
   x2="81.334999"
   y1="47.891998"
   x1="90.578003"
   style="fill:none;stroke:#000000;stroke-width:0.50000000" />
			<path
   id="path603"
   d="M 79.424000,49.457000 C 80.277000,48.997000 81.314000,48.270000 81.922000,47.570000 L 81.588000,49.153000 L 82.344000,50.583000 C 81.568000,50.078000 80.371000,49.664000 79.424000,49.457000 z " />
		</g><g
   id="g605">
			<line
   id="line607"
   y2="13.863000"
   x2="66.305000"
   y1="9.2139997"
   x1="67.550003"
   style="fill:none;stroke:#000000;stroke-width:0.50000000" />
			<path
   id="path609"
   d="M 65.806000,15.733000 C 65.716000,14.768000 65.452000,13.530000 65.044000,12.697000 L 66.372000,13.623000 L 67.984000,13.485000 C 67.215000,14.002000 66.367000,14.942000 65.806000,15.733000 z " />
		</g><g
   id="g611">
			<line
   id="line613"
   y2="18.709999"
   x2="77.846001"
   y1="14.432000"
   x1="80.315002"
   style="fill:none;stroke:#000000;stroke-width:0.50000000" />
			<path
   id="path615"
   d="M 76.882000,20.386000 C 77.044000,19.430000 77.110000,18.166000 76.931000,17.256000 L 77.974000,18.494000 L 79.567000,18.778000 C 78.690000,19.079000 77.628000,19.768000 76.882000,20.386000 z " />
		</g><g
   id="g617">
			<line
   id="line619"
   y2="26.320999"
   x2="87.679001"
   y1="22.834000"
   x1="91.355003"
   style="fill:none;stroke:#000000;stroke-width:0.50000000" />
			<path
   id="path621"
   d="M 86.281000,27.650000 C 86.708000,26.780000 87.130000,25.587000 87.218000,24.664000 L 87.866000,26.147000 L 89.312000,26.872000 C 88.387000,26.911000 87.172000,27.269000 86.281000,27.650000 z " />
		</g><g
   id="g623">
			<line
   id="line625"
   y2="35.955002"
   x2="95.175003"
   y1="34.070000"
   x1="99.876999"
   style="fill:none;stroke:#000000;stroke-width:0.50000000" />
			<path
   id="path627"
   d="M 93.383000,36.671000 C 94.101000,36.020000 94.934000,35.067000 95.356000,34.241000 L 95.411000,35.858000 L 96.488000,37.066000 C 95.612000,36.760000 94.352000,36.646000 93.383000,36.671000 z " />
		</g><g
   id="g629">
			<line
   id="line631"
   y2="47.528000"
   x2="100.05500"
   y1="46.799999"
   x1="105.06900"
   style="fill:none;stroke:#000000;stroke-width:0.50000000" />
			<path
   id="path633"
   d="M 98.146000,47.804000 C 98.997000,47.340000 100.03000,46.608000 100.63400,45.905000 L 100.30800,47.490000 L 101.07100,48.917000 C 100.29200,48.414000 99.094000,48.007000 98.146000,47.804000 z " />
		</g><g
   id="g635">
			<line
   id="line637"
   y2="114.97700"
   x2="41.426998"
   y1="106.11000"
   x1="41.490002"
   style="fill:none;stroke:#000000;stroke-width:0.50000000" />
			<path
   id="path639"
   d="M 41.505000,104.18000 C 41.836000,105.09100 42.403000,106.22300 43.007000,106.92600 L 41.489000,106.36400 L 39.964000,106.90400 C 40.578000,106.20900 41.162000,105.08600 41.505000,104.18000 z " />
		</g><g
   id="g641">
			<line
   id="line643"
   y2="106.74400"
   x2="91.109001"
   y1="113.14400"
   x1="91.109001"
   style="fill:none;stroke:#000000;stroke-width:0.50000000" />
			<path
   id="path645"
   d="M 91.109000,104.81200 C 91.446000,105.72100 92.022000,106.84900 92.630000,107.54700 L 91.109000,106.99700 L 89.588000,107.54700 C 90.196000,106.84900 90.772000,105.72100 91.109000,104.81200 z " />
		</g><g
   id="g647">
			<line
   id="line649"
   y2="107.94300"
   x2="101.90900"
   y1="112.74400"
   x1="101.90900"
   style="fill:none;stroke:#000000;stroke-width:0.50000000" />
			<path
   id="path651"
   d="M 101.90900,106.01200 C 102.24600,106.92100 102.82200,108.04800 103.43000,108.74700 L 101.90900,108.19700 L 100.38800,108.74700 C 100.99700,108.04800 101.57200,106.92100 101.90900,106.01200 z " />
		</g><g
   id="g653">
			<line
   id="line655"
   y2="106.50900"
   x2="16.309000"
   y1="112.90900"
   x1="16.309000"
   style="fill:none;stroke:#000000;stroke-width:0.50000000" />
			<path
   id="path657"
   d="M 16.309000,104.57800 C 15.972000,105.48700 15.396000,106.61500 14.787000,107.31300 L 16.309000,106.76300 L 17.830000,107.31300 C 17.221000,106.61400 16.646000,105.48600 16.309000,104.57800 z " />
		</g><g
   id="g659">
			<line
   id="line661"
   y2="107.70900"
   x2="5.5089998"
   y1="112.50900"
   x1="5.5089998"
   style="fill:none;stroke:#000000;stroke-width:0.50000000" />
			<path
   id="path663"
   d="M 5.5090000,105.77800 C 5.1720000,106.68700 4.5960000,107.81400 3.9880000,108.51300 L 5.5090000,107.96300 L 7.0310000,108.51300 C 6.4210000,107.81400 5.8460000,106.68700 5.5090000,105.77800 z " />
		</g><g
   id="g665">
			<line
   id="line667"
   y2="95.160004"
   x2="100.84200"
   y1="99.904999"
   x1="101.56900"
   style="fill:none;stroke:#000000;stroke-width:0.50000000" />
			<path
   id="path669"
   d="M 100.54900,93.251000 C 101.02000,94.098000 101.75900,95.126000 102.46700,95.724000 L 100.88000,95.411000 L 99.460000,96.185000 C 99.956000,95.402000 100.35300,94.200000 100.54900,93.251000 z " />
		</g><g
   id="g671">
			<line
   id="line673"
   y2="120.67600"
   x2="5.6869998"
   y1="125.42000"
   x1="6.4150000"
   style="fill:none;stroke:#000000;stroke-width:0.50000000" />
			<path
   id="path675"
   d="M 5.3940000,118.76700 C 5.8650000,119.61400 6.6050000,120.64200 7.3130000,121.24000 L 5.7250000,120.92700 L 4.3050000,121.70200 C 4.8010000,120.91800 5.1980000,119.71600 5.3940000,118.76700 z " />
		</g><g
   id="g677">
			<line
   id="line679"
   y2="121.45300"
   x2="101.21600"
   y1="126.19700"
   x1="100.48800"
   style="fill:none;stroke:#000000;stroke-width:0.50000000" />
			<path
   id="path681"
   d="M 101.50900,119.54300 C 101.03800,120.39000 100.29900,121.41800 99.591000,122.01600 L 101.17800,121.70300 L 102.59800,122.47700 C 102.10200,121.69500 101.70400,120.49300 101.50900,119.54300 z " />
		</g><g
   id="g683">
			<line
   id="line685"
   y2="94.892998"
   x2="6.7470002"
   y1="99.638000"
   x1="6.0190001"
   style="fill:none;stroke:#000000;stroke-width:0.50000000" />
			<path
   id="path687"
   d="M 7.0400000,92.984000 C 6.5690000,93.831000 5.8290000,94.858000 5.1210000,95.457000 L 6.7090000,95.144000 L 8.1290000,95.918000 C 7.6330000,95.135000 7.2350000,93.933000 7.0400000,92.984000 z " />
		</g><g
   id="g689">
			<text
   id="text691"
   transform="translate(51.46880,62.35400)"><tspan
     id="tspan693"
     style="font-size:7.6500001px;font-family:Liberation Sans"
     y="0"
     x="0">–</tspan></text>

		</g><circle
   sodipodi:ry="4.0070000"
   sodipodi:rx="4.0070000"
   sodipodi:cy="59.688000"
   sodipodi:cx="54.198002"
   id="circle695"
   r="4.0070000"
   cy="59.688000"
   cx="54.198002"
   style="fill:none;stroke:#000000" /><circle
   sodipodi:ry="4.0070000"
   sodipodi:rx="4.0070000"
   sodipodi:cy="161.34700"
   sodipodi:cx="54.469002"
   id="circle697"
   r="4.0070000"
   cy="161.34700"
   cx="54.469002"
   style="fill:none;stroke:#000000" /><g
   id="g699">
			<text
   id="text701"
   transform="translate(51.80220,163.6875)"><tspan
     id="tspan703"
     style="font-size:7.6500001px;font-family:Liberation Sans"
     y="0"
     x="0">+</tspan></text>

		</g>
</svg>