<?xml version="1.0" encoding="UTF-8" standalone="no"?>
<!-- Created with Inkscape (http://www.inkscape.org/) -->
<svg
   xmlns:dc="http://purl.org/dc/elements/1.1/"
   xmlns:cc="http://web.resource.org/cc/"
   xmlns:rdf="http://www.w3.org/1999/02/22-rdf-syntax-ns#"
   xmlns:svg="http://www.w3.org/2000/svg"
   xmlns="http://www.w3.org/2000/svg"
   xmlns:sodipodi="http://sodipodi.sourceforge.net/DTD/sodipodi-0.dtd"
   xmlns:inkscape="http://www.inkscape.org/namespaces/inkscape"
   width="744.09448819"
   height="1052.3622047"
   id="svg2"
   sodipodi:version="0.32"
   sodipodi:docbase="/home/bcrowell/Documents/writing/books/physics/0sn/ch11/figs"
   sodipodi:docname="hw-biot-savart-spiral.svg"
   inkscape:output_extension="org.inkscape.output.svg.inkscape">
  <defs
     id="defs4" />
  <sodipodi:namedview
     id="base"
     pagecolor="#ffffff"
     bordercolor="#666666"
     borderopacity="1.0"
     gridtolerance="10000"
     guidetolerance="10"
     objecttolerance="10"
     inkscape:pageopacity="0.0"
     inkscape:pageshadow="2"
     inkscape:zoom="1.0924067"
     inkscape:cx="578.66015"
     inkscape:cy="234.53999"
     inkscape:document-units="px"
     inkscape:current-layer="layer1"
     inkscape:window-width="1278"
     inkscape:window-height="996"
     inkscape:window-x="0"
     inkscape:window-y="0" />
  <metadata
     id="metadata7">
    <rdf:RDF>
      <cc:Work
         rdf:about="">
        <dc:format>image/svg+xml</dc:format>
        <dc:type
           rdf:resource="http://purl.org/dc/dcmitype/StillImage" />
      </cc:Work>
    </rdf:RDF>
  </metadata>
  <g
     inkscape:label="Layer 1"
     inkscape:groupmode="layer"
     id="layer1">
    <rect
       style="fill:#dedede;fill-opacity:1;fill-rule:evenodd;stroke:none;stroke-width:1.03510046pt;stroke-linecap:butt;stroke-linejoin:miter;stroke-opacity:1"
       id="rect10383"
       width="229.36957"
       height="215.27153"
       x="388.99948"
       y="698.65161" />
    <g
       id="g10375"
       transform="translate(-42.294097,3.8449179)">
      <path
         transform="matrix(0.6951045,0,0,0.6951045,135.7235,219.77614)"
         d="M 586.22513,845.89872 C 588.37353,859.23904 577.72825,871.07864 564.80267,872.73984 C 548.50116,874.83493 534.23937,861.77437 532.54171,845.89724 C 530.48247,826.63844 545.97548,809.94008 564.80444,808.21645 C 587.01869,806.18294 606.16201,824.11831 607.90507,845.89932 C 609.91923,871.06799 589.53525,892.66164 564.80207,894.41978 C 536.67956,896.41885 512.63196,873.58209 510.86178,845.89665 C 508.87481,814.82067 534.16727,788.31653 564.80504,786.53652 C 598.83423,784.55947 627.79681,812.30978 629.585,845.89991 C 631.55377,882.88215 601.344,914.30462 564.80147,916.09971 C 524.86631,918.06146 490.98283,885.39099 489.18184,845.89605 C 487.22613,803.00805 522.35828,766.66268 564.80564,764.85659 C 610.6464,762.90611 649.45439,800.50072 651.26494,845.90051 C 653.21082,894.69399 613.15311,935.96518 564.80088,937.77965 C 513.05473,939.72147 469.31984,897.20013 467.50191,845.89546 C 465.56371,791.19666 510.54911,744.99768 564.80623,743.17665 C 622.45764,741.2417 671.12106,788.69154 672.94487,845.90111 C 674.87689,906.5051 624.9623,957.63326 564.80028,959.45958 C 501.24371,961.38894 447.65056,909.00933 445.82197,845.89486 C 443.89504,779.38573 498.7399,723.32737 564.80683,721.49672 C 633.8443,719.58376 692.18576,776.21084 694.59082,844.79845"
         sodipodi:t0="0.16504651"
         sodipodi:argument="-18.774696"
         sodipodi:radius="129.79207"
         sodipodi:revolution="5.9867373"
         sodipodi:expansion="1"
         sodipodi:cy="845.89813"
         sodipodi:cx="564.80341"
         id="path7460"
         style="fill:none;fill-opacity:0.75;fill-rule:evenodd;stroke:#000000;stroke-width:1.79829073;stroke-linecap:butt;stroke-linejoin:miter;stroke-miterlimit:4;stroke-dasharray:none;stroke-opacity:1"
         sodipodi:type="spiral" />
      <path
         transform="matrix(5.4713753e-2,0,0,5.4713753e-2,505.12623,766.37128)"
         sodipodi:open="true"
         sodipodi:end="10.995574"
         sodipodi:start="4.712389"
         d="M 420.49478,728.61361 A 31.34794,31.34794 0 1 1 420.49477,728.61361"
         sodipodi:ry="31.34794"
         sodipodi:rx="31.34794"
         sodipodi:cy="759.96155"
         sodipodi:cx="420.49478"
         id="path7462"
         style="fill:#000000;fill-opacity:1;fill-rule:evenodd;stroke:none;stroke-width:1pt;stroke-linecap:butt;stroke-linejoin:miter;stroke-opacity:1"
         sodipodi:type="arc" />
      <path
         id="path9402"
         d="M 542.72109,808.29523 L 642.71021,808.29523"
         style="fill:none;fill-opacity:0.75;fill-rule:evenodd;stroke:#000000;stroke-width:1.25;stroke-linecap:butt;stroke-linejoin:miter;stroke-miterlimit:4;stroke-dasharray:none;stroke-opacity:1" />
      <path
         sodipodi:nodetypes="cc"
         id="path9404"
         d="M 617.88665,806.43924 L 642.7157,806.43924"
         style="fill:none;fill-opacity:0.75;fill-rule:evenodd;stroke:#000000;stroke-width:1.25;stroke-linecap:butt;stroke-linejoin:miter;stroke-miterlimit:4;stroke-dasharray:none;stroke-opacity:1" />
    </g>
    <path
       style="fill:#000000;fill-opacity:1;fill-rule:evenodd;stroke:none;stroke-width:0.25pt;stroke-linecap:butt;stroke-linejoin:miter;stroke-opacity:1"
       d="M 576.09018,811.84947 L 575.37039,811.69808 L 563.44186,808.43472 L 565.2469,811.95387 L 563.89068,814.74433 L 563.52075,815.49685 L 575.65353,811.97741 L 576.0279,811.88114 L 576.09018,811.84947 z "
       id="path11385" />
    <path
       style="fill:#000000;fill-opacity:1;fill-rule:evenodd;stroke:none;stroke-width:0.25pt;stroke-linecap:butt;stroke-linejoin:miter;stroke-opacity:1"
       d="M 574.1041,793.48887 L 574.03774,794.22141 L 572.18872,806.44927 L 575.47319,804.24588 L 578.40286,805.26719 L 579.1934,805.54677 L 574.28212,793.90761 L 574.14282,793.54703 L 574.1041,793.48887 z "
       id="path11387" />
  </g>
</svg>
