<?xml version="1.0" encoding="iso-8859-1"?>
<!-- Generator: Adobe Illustrator 11 Build 196, SVG Export Plug-In . SVG Version: 6.0.0 Build 78)  -->
<!DOCTYPE svg PUBLIC "-//W3C//DTD SVG 1.0//EN"    "http://www.w3.org/TR/2001/REC-SVG-20010904/DTD/svg10.dtd" [
	<!ENTITY ns_flows "http://ns.adobe.com/Flows/1.0/">
	<!ENTITY ns_svg "http://www.w3.org/2000/svg">
	<!ENTITY ns_xlink "http://www.w3.org/1999/xlink">
]>
<svg  
	 width="112.033" height="125.295" viewBox="0 0 112.033 125.295"
	 style="overflow:visible;enable-background:new 0 0 112.033 125.295" xml:space="preserve">
	<style type="text/css">
	
	</style>
	<g id="Layer_1">
		<path style="fill:#DCDCDC;stroke:#000000;stroke-width:0.5;" d="M41.625,0.25c-9.393,0-17.008,22.845-17.008,51.024
			s7.615,51.024,17.008,51.024s17.008-22.845,17.008-51.024S51.019,0.25,41.625,0.25z M41.625,98.726
			c-7.42,0-13.436-21.245-13.436-47.452S34.205,3.822,41.625,3.822s13.436,21.245,13.436,47.452S49.046,98.726,41.625,98.726z"/>
		<path style="fill:#DCDCDC;stroke:#000000;stroke-width:0.5;" d="M88.774,0.25c-9.393,0-17.008,22.845-17.008,51.024
			s7.615,51.023,17.008,51.023s17.008-22.844,17.008-51.023S98.167,0.25,88.774,0.25z M88.774,98.726
			c-7.42,0-13.436-21.245-13.436-47.452S81.354,3.823,88.774,3.823s13.436,21.245,13.436,47.452S96.195,98.726,88.774,98.726z"/>
		<line style="fill:none;" x1="112.033" y1="45.606" x2="112.033" y2="61.606"/>
		<line style="fill:none;stroke:#000000;stroke-width:0.5;" x1="41.033" y1="111.773" x2="41.033" y2="120.773"/>
		<line style="fill:none;stroke:#000000;stroke-width:0.5;" x1="89.033" y1="111.773" x2="89.033" y2="120.773"/>
		<g>
			<line style="fill:none;stroke:#000000;stroke-width:0.5;" x1="44.763" y1="116.273" x2="85.303" y2="116.273"/>
			<path d="M88.32,116.273c-1.42,0.527-3.181,1.426-4.273,2.378l0.86-2.378l-0.86-2.377C85.139,114.847,86.9,115.747,88.32,116.273z
				"/>
			<path d="M41.745,116.273c1.419-0.526,3.181-1.426,4.273-2.377l-0.86,2.377l0.86,2.377
				C44.926,117.699,43.165,116.8,41.745,116.273z"/>
		</g>
		<rect x="60.866" y="108.606" style="fill:#FFFFFF;" width="8.167" height="13.333"/> 
		<g>
			<text transform="matrix(1 0 0 1 61.8662 119.9399)"><tspan x="0" y="0" style="font-family:Liberation Sans; font-size:10.200000;">h</tspan></text>
		</g>
		<line style="fill:none;stroke:#000000;stroke-width:0.5;" x1="0" y1="50.606" x2="9" y2="50.606"/>
		<line style="fill:none;stroke:#000000;stroke-width:0.5;" x1="0" y1="2.606" x2="9" y2="2.606"/>
		<g>
			<line style="fill:none;stroke:#000000;stroke-width:0.5;" x1="4.5" y1="46.876" x2="4.5" y2="6.336"/>
			<path d="M4.5,3.319C5.027,4.739,5.926,6.5,6.877,7.592L4.5,6.732l-2.377,0.86C3.074,6.5,3.973,4.739,4.5,3.319z"/>
			<path d="M4.5,49.894c-0.527-1.419-1.426-3.181-2.378-4.273l2.378,0.86l2.377-0.86C5.925,46.713,5.026,48.475,4.5,49.894z"/>
		</g>
		<rect x="0.417" y="20.023" style="fill:#FFFFFF;" width="8.167" height="13.333"/> 
		<g>
			<text transform="matrix(1 0 0 1 1.1646 29.6064)"><tspan x="0" y="0" style="font-family:Liberation Sans; font-size:10.200000;">b</tspan></text>
		</g>
	</g>
</svg>
