<?xml version="1.0" encoding="iso-8859-1"?>
<!-- Generator: Adobe Illustrator 11 Build 196, SVG Export Plug-In . SVG Version: 6.0.0 Build 78)  -->
<!DOCTYPE svg PUBLIC "-//W3C//DTD SVG 1.0//EN"    "http://www.w3.org/TR/2001/REC-SVG-20010904/DTD/svg10.dtd" [
	<!ENTITY ns_flows "http://ns.adobe.com/Flows/1.0/">
	<!ENTITY ns_svg "http://www.w3.org/2000/svg">
	<!ENTITY ns_xlink "http://www.w3.org/1999/xlink">
]>
<svg  
	 width="150.172" height="241.017" viewBox="0 0 150.172 241.017"
	 style="overflow:visible;enable-background:new 0 0 150.172 241.017" xml:space="preserve">
	<style type="text/css">
	
	</style>
	<g id="Layer_1">
		<g>
			<path style="fill:#DCDCDC;stroke:#000000;stroke-width:0.5;" d="M99.569,20.06c-3.959,2.427-8.923,3.563-12.421,6.58
				c-2.576,3.891,0.953,6.034,1.441,9.052l-0.345,0.241l1.142-1.006l-0.768,0.425c-4.026,2.083-8.449,3.165-12.575,4.975
				l-0.505,0.164c-0.442,0.148-0.817,0.334-1.162,0.575l-0.823,0.585c-2.146,1.478-2.7,3.222-2.117,4.391
				c0.874,1.664,3.781,2.259,3.329,4.456l-0.157,0.588l0.579-0.862l-0.616,0.574c-0.68,0.5-1.509,1.031-2.28,1.096
				c-12.092,0.856-22.997,1.229-35.365,2.363c-5.97,0.547-11.796,2.195-18.279,4.344c-5.713,1.903-11.042,4.826-13.261,8.278
				c-1.394,2.167-2.479,4.379-2.254,6.292l-0.006,0.341c0.008,0.234,0.116,0.435,0.354,0.568l0.306,0.171
				c5.319,3.747,13.168,5.452,20.984,7.534c3.253,0.84,7.565-0.317,11.169-0.058c0.241,0.007,0.23,0.295,0.453,0.356
				c2.968,0.795,6.277,0.99,9.245,1.786c0.75,0.204,1.721,0.199,2.653,0.21c1.463,0.028,3.215-0.419,4.692-0.408
				c6.333,0.04,12.194,0.478,19.266-0.358c6.262-0.753,12.342-1.71,18.908-4.144c6.527-2.417,13.414-5.488,17.198-9.735
				c2.04-2.29,2.454-4.47,1.061-5.952l-1.052-0.411l0.729,0.868l0.083-0.375l-0.184,0.408l0.379-1.013
				c0.266-0.387,0.272-0.729,0.047-0.969l-0.502-0.447c-2.054-1.521-5.363-2.112-8.255-3.031c-1.212-1.765-4.365-2.638-7.58-3.009
				c-2.798-0.305-6.212,0.054-8.953-0.321c-3.756-0.497-6.26-2.015-8.772-3.46c-1.2-0.686-1.94-1.662-2.926-2.61
				c-0.132-0.112,0.258-0.621,0.331-0.619c5.27-0.965,9.61-4.224,13.241-7.129c1.143-0.916,1.457-1.787,1.572-2.628l0.266-0.387
				c0.118-0.266,0.139-0.535,0.006-0.737l-0.266-0.404c-0.59-0.918-2.45-1.067-2.973-2.036l0.22-1.395l-0.887,1.787l0.724-0.462
				c3.066-1.97,6.699-3.418,9.562-5.502l0.994-0.885c0.33-0.313,0.528-0.648,0.563-0.935l-0.007-0.233
				c0.748-2.925-1.055-4.815-3.247-6.503c0.126,0.058,0.291,0.099,0.417,0.157c0.223-0.73-0.602-1.116-1.806-0.884
				c-1.219,0.249-2.358,1.04-2.558,1.77c-0.071,0.483-0.191,0.965,0.155,1.299c1.503,1.468,2.937,2.718,2.701,4.832l-0.121,0.787
				l0.549-0.917l-0.621,0.609c-2.515,1.628-5.436,2.901-8.029,4.473L81.63,34.14c-0.369,0.24-0.655,0.5-0.845,0.764l-0.62,1.095
				c-0.226,1.341,0.899,2.24,2.426,2.738l1.013,0.823l-0.008-0.719l-0.405,0.832c-0.566,1.546-3.146,3.1-5.168,4.365
				c-1.788,1.13-4.169,1.773-6.359,2.728c-2.949,1.309-4.55,3.577-3.167,4.645c1.14,0.881,1.53,2.044,2.836,2.75
				c2.569,1.376,5.416,2.473,8.478,3.487c3.097,1.033,7.893,0.071,11.501,0.689c2.385,0.417,4.002,1.35,5.856,2.146
				c0.311,0.136,0.238,0.529,0.534,0.682c2.15,1.039,5.358,1.267,7.035,2.614l0.578,0.324l-0.025-0.882l-0.138,0.625
				c-0.033,0.071-0.104,0.158-0.137,0.229l-0.333,0.834c-0.091,0.446,0.197,0.761,0.753,0.869l0.236,0.349
				c0.948,1.45-1.418,3.838-4.015,5.535c-8.471,5.5-18.208,7.6-27.389,8.836c-7.581,1.035-13.615,0.232-20.626,0.477
				c-0.777,0.011-1.749,0.322-2.434,0.282c-4.763-0.295-8.776-1.268-12.968-2.264c-2.168-0.5-5.53,0.615-7.758,0.311
				c-9.042-1.276-16.858-3.448-22.597-7.226l-0.676-0.417l0.354,0.569l0.101-0.914c0.01,0.019,0.005,0.054,0.015,0.073
				c0.257-1.987,0.656-4.24,3.225-6.207c6.799-5.212,16.258-6.638,24.344-8.322c11.983-0.662,23.595-1.263,36.172-2.319
				c1.972-0.171,4.266-1.375,5.96-2.633l1.051-0.955c0.315-0.295,0.52-0.577,0.579-0.862l0.169-0.786
				c0.875-2.776-2.835-3.452-3.492-5.594l1.33-1.45l-1.137,0.575l1.13-0.414c-0.015,0.018-0.039,0.017-0.053,0.034
				c4.212-1.825,8.65-2.925,12.772-5.004l1.511-0.851c0.466-0.237,0.843-0.548,1.052-0.865l0.687-1.146
				c0.04-0.322,0.142-0.661,0.081-0.95c-0.574-2.427-3.395-3.829-1.91-6.928c3.37-1.672,6.916-3.105,10.182-4.925
				c1.127-0.593,1.648-1.475,1.15-1.958C101.995,19.364,100.673,19.465,99.569,20.06L99.569,20.06z"/>
			<path style="fill:#DCDCDC;" d="M67.099,54.995c1.219-0.049,2.499-0.217,3.853-0.579c0.761-0.205,1.455-0.338,2.208-0.543
				c1.431-0.399,2.907-1.243,3.711-2.161c0.585-0.696,0.296-1.298-0.653-1.342c-0.949-0.044-2.195,0.483-2.781,1.179
				c0.086-0.071,0.163-0.143,0.249-0.214c-0.177,0.149-0.379,0.271-0.618,0.371c0.26-0.079,0.505-0.152,0.765-0.232
				c-1.85,0.447-3.727,0.994-5.449,1.067c0.034-0.02,0.054-0.032,0.088-0.051c-1.049,0.102-2.214,0.745-2.59,1.434
				C65.505,54.614,66.05,55.096,67.099,54.995L67.099,54.995z"/>
			<path style="fill:#DCDCDC;" d="M72.615,49.103c1.433-1.006,3.1-1.479,4.841-2.145c0.496-0.187,0.854-0.479,1.319-0.673
				c0.989-0.575,1.382-1.365,0.867-1.759c-0.515-0.394-1.737-0.25-2.726,0.325c-1.277,0.667-2.669,1.007-3.983,1.606
				c-0.771,0.353-1.432,0.777-2.115,1.193c0.005-0.006,0.002-0.013,0.007-0.02c-1.002,0.568-1.413,1.357-0.917,1.764
				S71.614,49.671,72.615,49.103L72.615,49.103z"/>
			<path style="fill:#DCDCDC;" d="M81.988,40.577c2.713-0.696,6.063-1.843,7.585-3.723c0.585-0.696,0.296-1.298-0.647-1.348
				c-0.949-0.044-2.196,0.483-2.781,1.179c-0.883,0.821-2.607,1.238-3.872,1.583c-1.118,0.288-2.077,1.033-2.161,1.67
				C80.039,40.576,80.876,40.859,81.988,40.577L81.988,40.577z"/>
			<path style="fill:#DCDCDC;" d="M86.692,33.905c1.597-0.717,3.042-1.669,4.354-2.618c0.33-0.246,0.812-0.473,1.219-0.709
				c0.943-0.611,1.206-1.377,0.603-1.72c-0.608-0.336-1.858-0.113-2.788,0.491c-0.883,0.457-1.626,0.993-2.326,1.543
				c0.125-0.097,0.255-0.187,0.38-0.284c-0.763,0.515-1.54,1.023-2.431,1.433c-1.084,0.464-1.738,1.266-1.46,1.78
				C84.506,34.341,85.611,34.376,86.692,33.905L86.692,33.905z"/>
			<path style="fill:#DCDCDC;" d="M91.01,26.964c0.836-0.513,1.613-1.068,2.415-1.595c0.634-0.425,1.527-0.518,2.285-0.877
				c1.097-0.458,1.791-1.251,1.556-1.784s-1.317-0.595-2.409-0.144c-2.261,0.609-4.075,1.899-5.864,3.069
				c-0.969,0.596-1.297,1.375-0.737,1.736C88.82,27.737,90.056,27.554,91.01,26.964L91.01,26.964z"/>
		</g>
		<path style="fill:#DCDCDC;stroke:#000000;stroke-width:0.5;" d="M11.218,89.625c-2.453-3.109-2.297-7.031-3.297-10.734
			c-0.656-2.469-2.75-4.016-4.375-5.844c0.188-0.656-0.328-1.203-0.266-1.844l-0.047-0.297l-0.078,0.781L3.218,71.5
			c0.312-1.125,1.031-2.047,1.891-2.797l-0.266,0.25c0.266-0.094,0.5-0.25,0.672-0.469l0.25-0.281
			c1.781-2.625,1.359-6.031,2.312-8.969c1.141-3.5,1.234-7.125,2.672-10.516c1.906-4.484,4.234-8.531,7.266-12.531
			c3.672-4.844,7.922-8.656,13.078-11.547c5.047-1.359,9.641-3.906,14.312-6.188c8.766-2.562,17.922,0,26.781,0.781
			c5.594,1.812,10.547,4.891,14.469,9.5c1.281,1.516,2.938,2.453,4.281,3.859c1.641,1.719,3.047,3.484,4.219,5.578
			c2.766,4.922,4.844,9.75,7.594,14.672c1.391,2.484,1.297,5.391,2.234,8.016c0.531,1.453,1.719,2.594,2.875,3.719
			c0.406,0.391,0.375,1.188,0.734,1.766c-0.531,0.047-1,0.25-1.438,0.562l-0.609,0.484c-0.297,0.203-0.5,0.484-0.594,0.828
			l-0.078,0.312c-0.5,2.031,0.281,4.109-0.281,6.109c-1.156,4.078-1.328,8.219-3.094,11.984c-0.828,1.781-2.375,3.266-2.5,5.422
			c-3.469,2.672-6.25,5.922-9.594,8.859c-1.453,1.266-2.891,2.328-4.391,3.562c-5.344,4.359-11.828,5.781-18.062,8.109
			c-1.047,0.391-1.891,1.141-3.047,1.328c-1.062,0.188-2.094,0.156-3.094,0.531l-0.844,0.5l1.141-0.234l-0.734-0.141
			c-1.125-0.062-2.234,0.375-3.344,0.172c-1.625-0.312-3.188-0.234-4.812-0.047c-0.312,0.047-0.688-0.266-1.078-0.281
			c-1.375-0.016-2.828,0.406-4.078-0.172c-0.953-0.438-1.594-1.359-2.531-1.953c-0.359-0.234-0.797-0.266-1.094-0.516
			c-1.188-0.984-2.406-1.656-3.703-2.391l-0.469-0.438c-0.156-0.078-0.312-0.141-0.484-0.172l-0.609-0.109
			c-1.266-0.328-2.547,0.25-3.812,0l0.094,2.938c0.672,0.172,1.375-0.141,1.703-0.75c0.391-0.719,0.109-1.641-0.625-2.031
			l-0.766-0.359c-0.734-0.219-1.453-0.531-2.141-0.875l-0.203-0.156c-0.328-0.219-0.719-0.312-1.094-0.25l-0.188,0.047
			c-0.125,0-0.266,0.016-0.391,0.016l-0.625,0.016l1.031,0.344l-1.297-1.047c-1.281-0.938-3.016-0.844-4.188-1.797
			c-1.297-1.062-2.359-2.312-3.641-3.453c-0.281-0.234-0.375-0.609-0.609-0.891c-0.375-0.469-0.859-0.781-1.188-1.203
			c-2.328-2.984-5.344-4.812-8.469-6.547l-0.656-0.391l0.422,0.438L12.374,92.5c0.031-0.062,0.047-0.109,0.078-0.172
			c0.172-0.812-0.359-1.609-1.156-1.781c-0.812-0.156-1.609,0.359-1.781,1.172c-0.188,0.531-0.281,1.078,0,1.703l0.484,0.891
			c0.141,0.219,0.359,0.406,0.609,0.531l0.625,0.391c3.922,1.828,6.891,4.875,9.781,8.156c1.266,1.438,2.516,2.719,4.031,3.938
			c0.969,0.781,2.25,0.844,3.375,1.281l1.812,1.297c0.281,0.219,0.625,0.344,0.984,0.344l0.781-0.016
			c0.031,0,0.062-0.016,0.094-0.016l0.719-0.078l-1.094-0.25l0.719,0.438c-0.031-0.016-0.078-0.031-0.109-0.047
			c0.656,0.406,1.438,0.516,2.094,0.906l0.703,0.281l0.219-2.75l0.578,0.062c-0.125,0.984-0.25,1.969-0.375,2.953
			c0.844,0.047,1.656-0.094,2.484-0.188l1.188,0.172l-0.953-0.625l0.672,0.703c0.703,0.328,1.391,0.719,2.047,1.078
			c0.781,0.406,1.375,1.266,2.234,1.625c1.641,0.703,2.547,2.391,4.375,2.75c1.359,0.266,2.672,0.281,4.031,0.141
			c0.484-0.047,0.984,0.328,1.484,0.297c1.656-0.109,3.328-0.344,5.062,0.094c0.672,0.172,1.438-0.141,2.188-0.172l1.172,0.031
			c0.391,0.078,0.797,0,1.141-0.234l0.484-0.266c1.188-0.266,2.453-0.047,3.562-0.656c2.969-1.625,6.078-2.281,9.172-3.438
			c3-1.125,5.859-2.281,8.688-3.891c1.891-1.078,3.328-2.453,5.062-3.781c2.797-2.156,5-4.469,7.531-6.844
			c1.844-1.719,3.656-3.297,5.344-5.109c0.484-2.219,2.047-3.828,2.875-5.875c1.688-4.219,2.266-8.578,3.266-13.141
			c0.328-1.422,0-2.844,0.047-4.266l0.141-1.125l-0.453,0.734l0.422-0.328c-0.031,0.016-0.047,0.031-0.078,0.047
			c1.219-0.672,2.766-1.531,2.688-3.094c-0.094-1.906-0.938-3.844-2.641-5.094c-0.438-0.328-0.766-0.906-0.938-1.422
			c-0.891-2.797-1.109-5.734-2.312-8.422c-0.438-0.969-1.156-1.797-1.641-2.703c-4.219-8.016-7.344-16.234-14.984-22
			c-0.859-0.641-1.422-1.516-2.172-2.266c-4.031-4.094-9.047-6.875-14.516-8.234c-9.266-0.938-18.922-3.469-28.047-0.5
			c-4.719,2.312-9.406,4.797-14.484,6.25c-5.562,3.125-10.062,7.312-14.141,12.406c-2.453,3.094-3.953,6.391-6,9.766
			C6.78,48.75,6.608,53.766,5.093,58.703c-0.703,2.281-0.516,4.688-1.328,6.922l-0.547,0.953l0.672-0.469l-0.672,0.281
			c-1.203,0.891-2.062,2.188-2.594,3.562l-0.281,0.656c-0.094,0.25-0.109,0.516-0.078,0.781l0.266,1.484
			c-0.016-0.031-0.016-0.078-0.031-0.109c0.234,0.75,0.328,1.531,0.812,2.188c1.359,1.875,3.547,3.031,3.906,5.328
			c0.609,3.938,1.219,7.875,3.562,11.094c0.484,0.672,1.422,0.828,2.094,0.344S11.702,90.297,11.218,89.625L11.218,89.625z"/>
		<path style="fill:#DCDCDC;stroke:#000000;stroke-width:0.5;" d="M105.405,85.188c3.078-2.406,6.469-4.266,10.016-6.016
			c0.625-0.312,1.391-0.781,1.875-0.375c3.547,3.078,4.297,8.078,8.344,10.688c4.203,2.703,6.562-3.312,9.75-5.469
			c2.109-1.422,4.531-1.156,6.516,0c2.203,1.281,3.531,3.594,6.031,4.391c0.781,0.25,1.641-0.172,1.906-0.953
			s-0.156-1.641-0.953-1.891c-0.875-0.438-1.797-0.812-2.406-1.594c-2.562-3.188-6.797-4.688-10.547-3.469
			c-3.438,1.141-5.25,4.312-8.094,6.484c-0.172,0.141-0.641,0-0.875-0.188c-2.844-2.422-3.766-5.938-6.188-8.688
			c-1.125-1.281-2.375-2.828-4.234-2.359c-4.922,1.234-8.984,4.203-12.953,7.062c-0.656,0.5-0.781,1.438-0.281,2.094
			S104.749,85.688,105.405,85.188L105.405,85.188z"/>
		<path style="fill:#DCDCDC;stroke:#000000;stroke-width:0.5;" d="M105.218,77.531c2.719,4.547,6.469,9.141,12.078,10.266
			c4.406-1.109,6.594-5.375,8.078-9.281c5.156,1.688,7.766,6.422,11.422,10.156c0.328,0.344,0.75,0.562,1.156,0.812l0.609,0.375
			c0.469,0.328,1.109,0.375,1.625,0.078l0.344-0.203c1.578-0.734,2.484-2.203,3.578-3.547c1.328-1.625,2.594-3.188,4.203-4.484
			c0.609-0.562,0.641-1.516,0.078-2.125c-0.562-0.594-1.516-0.641-2.125-0.078c-2.5,2.078-4.328,4.781-6.469,7.188l-1.109,0.641
			l1.453-0.016l-0.594-0.375c-3.109-2.141-4.375-5.828-7.609-8.062c-2.531-1.75-5.578-4.391-8.688-2.422
			c-1.906,2.797-2.438,6.984-6.109,8.188c-4.125-1.328-7.281-4.953-9.359-8.672c-0.422-0.703-1.344-0.938-2.062-0.5
			C105.015,75.891,104.78,76.812,105.218,77.531L105.218,77.531z"/>
		<path style="fill:#DCDCDC;" d="M105.749,74.5c-0.133,0.547-0.172,1.086,0.023,1.625c-0.016-0.031-0.023-0.07-0.039-0.102
			c-0.242,0.648,0.078,1.367,0.727,1.617c0.641,0.242,1.367-0.086,1.609-0.727c0.297-0.57,0.172-1.234,0.008-1.82
			c0.023,0.102,0.055,0.195,0.078,0.297c0.086-0.289,0.086-0.594,0.094-0.891c0-0.688-0.562-1.25-1.25-1.25
			S105.749,73.812,105.749,74.5L105.749,74.5z"/>
		<path style="fill:#DCDCDC;" d="M119.288,80.812c1.258,1.234,1.984,2.82,2.898,4.297c0.391,0.562,1.172,0.711,1.742,0.312
			c0.562-0.391,0.711-1.172,0.312-1.734c-0.953-1.625-1.844-3.289-3.18-4.648c-0.492-0.484-1.281-0.484-1.773,0
			C118.804,79.531,118.804,80.32,119.288,80.812L119.288,80.812z"/>
		<path style="fill:#DCDCDC;" d="M141.405,83.656c1.414,0.367,2.484,1.273,3.43,2.344c0.492,0.484,1.281,0.484,1.766-0.008
			c0.492-0.484,0.492-1.273,0-1.766c-1.195-1.25-2.531-2.438-4.258-2.883c-0.641-0.258-1.367,0.047-1.625,0.688
			S140.765,83.398,141.405,83.656L141.405,83.656z"/>
		<path style="fill:#DCDCDC;" d="M104.671,88.258c0.844-0.898,1.078-2.133,1.328-3.297c0.016,0.023,0.023,0.055,0.039,0.078
			c0.172-0.672-0.234-1.352-0.906-1.523c-0.664-0.164-1.344,0.242-1.516,0.906c-0.039,0.148-0.078,0.305-0.117,0.453
			c0.031-0.094,0.055-0.188,0.086-0.281c-0.297,0.789-0.375,1.68-1.008,2.297c-0.375,0.578-0.211,1.352,0.367,1.734
			C103.522,89,104.296,88.836,104.671,88.258L104.671,88.258z"/>
		<path style="fill:#FFFFFF;" d="M103.46,82.734c0.719-0.484,1.57-0.898,1.992-1.711l0.07,0.023c0.266-0.188,0.445-0.469,0.5-0.781
			l0.031-0.125c0.062-0.312,0-0.641-0.18-0.914l-0.023-0.023c-0.219-0.469-0.625-0.781-0.938-1.18
			c-0.469-0.5-1.258-0.531-1.766-0.055c-0.5,0.469-0.523,1.266-0.055,1.766c0.141,0.172,0.281,0.336,0.422,0.508l0.258,0.328
			l-0.172-0.914l-0.031,0.133l0.352-0.648l-0.117,0.117c-0.445,0.523-1.016,0.898-1.523,1.352c0-0.031,0.008-0.062,0.008-0.094
			c-0.609,0.328-0.844,1.078-0.523,1.695C102.093,82.82,102.843,83.055,103.46,82.734L103.46,82.734z"/>
		<line style="fill:none;stroke:#000000;stroke-width:0.5;" x1="119.749" y1="82.125" x2="121.874" y2="85.25"/>
		<line style="fill:none;stroke:#000000;stroke-width:0.5;" x1="121.062" y1="79.039" x2="123.999" y2="82.875"/>
		<line style="fill:none;stroke:#000000;stroke-width:0.5;" x1="141.905" y1="84.016" x2="144.374" y2="86.25"/>
		<line style="fill:none;stroke:#000000;stroke-width:0.5;" x1="143.874" y1="81.75" x2="146.601" y2="84.227"/>
		<g>
			<g>
				<g>
					<line style="fill:none;stroke:#000000;stroke-width:0.5;" x1="56.062" y1="196.555" x2="111.062" y2="196.555"/>
					<path d="M113.476,196.555c-1.136,0.421-2.545,1.141-3.419,1.902l0.688-1.902l-0.688-1.902
						C110.93,195.415,112.34,196.134,113.476,196.555z"/>
				</g>
				<g>
					<line style="fill:none;stroke:#000000;stroke-width:0.5;" x1="56.026" y1="196.707" x2="56.026" y2="141.707"/>
					<path d="M56.026,139.293c0.421,1.136,1.141,2.545,1.902,3.419l-1.902-0.688l-1.902,0.688
						C54.885,141.838,55.604,140.429,56.026,139.293z"/>
				</g>
				<g>
					<line style="fill:none;stroke:#000000;stroke-width:0.5;" x1="55.937" y1="196.5" x2="41.937" y2="224.5"/>
					<path d="M40.854,226.659c0.131-1.205,0.118-2.787-0.172-3.909l1.394,1.466l2.009,0.235
						C43.012,224.893,41.739,225.832,40.854,226.659z"/>
				</g>
			</g>
			<g>
				<text transform="matrix(1 0 0 1 35.124 237)"><tspan x="0" y="0" style="font-family:Liberation Sans; font-size:7.650000;">x</tspan></text>
			</g>
			<g>
				<text transform="matrix(1 0 0 1 117.124 200)"><tspan x="0" y="0" style="font-family:Liberation Sans; font-size:7.650000;">y</tspan></text>
			</g>
			<g>
				<text transform="matrix(1 0 0 1 53.124 136)"><tspan x="0" y="0" style="font-family:Liberation Sans; font-size:7.650000;">z</tspan></text>
			</g>
		</g>
		<g>
			<text transform="matrix(1 0 0 1 34.999 9)"><tspan x="0" y="0" style="font-family:Liberation Sans; font-size:7.650000;">I</tspan></text>
		</g>
		<g>
			<path style="fill:none;stroke:#000000;stroke-width:0.5;" d="M56.917,46.071c-9.116-0.218-17.652,0.382-25.203,1.683"/>
			<path d="M29.338,48.162c1.048-0.608,2.315-1.557,3.046-2.455l-0.355,1.991l1.001,1.758
				C32.041,48.854,30.529,48.384,29.338,48.162z"/>
		</g>
		<g>
			<path style="fill:none;stroke:#000000;stroke-width:0.5;" d="M27.247,18.865c5.858-3.666,12.37-6.384,19.321-7.938"/>
			<path d="M48.92,10.397c-1.017,0.659-2.235,1.669-2.921,2.603l0.256-2.006l-1.086-1.706C46.187,9.84,47.72,10.234,48.92,10.397z"
				/>
		</g>
		<g>
			<text transform="matrix(1 0 0 1 44.999 42)"><tspan x="0" y="0" style="font-family:Liberation Sans; font-size:7.650000;">I</tspan></text>
		</g>
	</g>
</svg>
