<?xml version="1.0" encoding="UTF-8" standalone="no"?>
<!-- Created with Inkscape (http://www.inkscape.org/) -->
<svg
   xmlns:dc="http://purl.org/dc/elements/1.1/"
   xmlns:cc="http://web.resource.org/cc/"
   xmlns:rdf="http://www.w3.org/1999/02/22-rdf-syntax-ns#"
   xmlns:svg="http://www.w3.org/2000/svg"
   xmlns="http://www.w3.org/2000/svg"
   xmlns:sodipodi="http://inkscape.sourceforge.net/DTD/sodipodi-0.dtd"
   xmlns:inkscape="http://www.inkscape.org/namespaces/inkscape"
   width="744.09448819"
   height="1052.3622047"
   id="svg2"
   sodipodi:version="0.32"
   sodipodi:docbase="/home/bcrowell/Documents/writing/lm/trunk/0sn/ch11/figs"
   sodipodi:docname="hw-solenoid-field-on-axis.svg">
  <defs
     id="defs4" />
  <sodipodi:namedview
     id="base"
     pagecolor="#ffffff"
     bordercolor="#666666"
     borderopacity="1.0"
     inkscape:pageopacity="0.0"
     inkscape:pageshadow="2"
     inkscape:zoom="5.7458607"
     inkscape:cx="243.95184"
     inkscape:cy="543.96715"
     inkscape:document-units="px"
     inkscape:current-layer="layer1"
     inkscape:window-width="1278"
     inkscape:window-height="996"
     inkscape:window-x="0"
     inkscape:window-y="0" />
  <metadata
     id="metadata7">
    <rdf:RDF>
      <cc:Work
         rdf:about="">
        <dc:format>image/svg+xml</dc:format>
        <dc:type
           rdf:resource="http://purl.org/dc/dcmitype/StillImage" />
      </cc:Work>
    </rdf:RDF>
  </metadata>
  <g
     inkscape:label="Layer 1"
     inkscape:groupmode="layer"
     id="layer1">
    <g
       id="g2196">
      <g
         style="fill:#ffffff;fill-opacity:1.0000000"
         transform="translate(-90.84801,-2.662998)"
         id="g2035">
        <rect
           style="fill:#ffffff;fill-opacity:1.0000000;fill-rule:evenodd;stroke:#000000;stroke-width:0.50000000;stroke-linecap:butt;stroke-linejoin:miter;stroke-miterlimit:4.0000000;stroke-dasharray:none;stroke-opacity:1.0000000"
           id="rect2031"
           width="5.9367414"
           height="70.361511"
           x="247.00764"
           y="455.17026" />
        <path
           sodipodi:type="arc"
           style="fill:#ffffff;fill-opacity:1.0000000;fill-rule:evenodd;stroke:#000000;stroke-width:10.776027;stroke-linecap:butt;stroke-linejoin:miter;stroke-miterlimit:4.0000000;stroke-dasharray:none;stroke-opacity:1.0000000"
           id="path2033"
           sodipodi:cx="315.71429"
           sodipodi:cy="393.79074"
           sodipodi:rx="64.285713"
           sodipodi:ry="64.285713"
           d="M 380.00001 393.79074 A 64.285713 64.285713 0 1 1  251.42858,393.79074 A 64.285713 64.285713 0 1 1  380.00001 393.79074 z"
           transform="matrix(4.639929e-2,0.000000,0.000000,4.639929e-2,235.3271,508.4948)" />
        <path
           sodipodi:type="arc"
           style="fill:#ffffff;fill-opacity:1.0000000;fill-rule:evenodd;stroke:#000000;stroke-width:10.776027;stroke-linecap:butt;stroke-linejoin:miter;stroke-miterlimit:4.0000000;stroke-dasharray:none;stroke-opacity:1.0000000"
           id="path1306"
           sodipodi:cx="315.71429"
           sodipodi:cy="393.79074"
           sodipodi:rx="64.285713"
           sodipodi:ry="64.285713"
           d="M 380.00001 393.79074 A 64.285713 64.285713 0 1 1  251.42858,393.79074 A 64.285713 64.285713 0 1 1  380.00001 393.79074 z"
           transform="matrix(4.639929e-2,0.000000,0.000000,4.639929e-2,235.3271,437.4180)" />
      </g>
      <g
         style="fill:#ffffff;fill-opacity:1.0000000"
         transform="translate(-85.12607,-2.662998)"
         id="g2040">
        <rect
           style="fill:#ffffff;fill-opacity:1.0000000;fill-rule:evenodd;stroke:#000000;stroke-width:0.50000000;stroke-linecap:butt;stroke-linejoin:miter;stroke-miterlimit:4.0000000;stroke-dasharray:none;stroke-opacity:1.0000000"
           id="rect2042"
           width="5.9367414"
           height="70.361511"
           x="247.00764"
           y="455.17026" />
        <path
           sodipodi:type="arc"
           style="fill:#ffffff;fill-opacity:1.0000000;fill-rule:evenodd;stroke:#000000;stroke-width:10.776027;stroke-linecap:butt;stroke-linejoin:miter;stroke-miterlimit:4.0000000;stroke-dasharray:none;stroke-opacity:1.0000000"
           id="path2044"
           sodipodi:cx="315.71429"
           sodipodi:cy="393.79074"
           sodipodi:rx="64.285713"
           sodipodi:ry="64.285713"
           d="M 380.00001 393.79074 A 64.285713 64.285713 0 1 1  251.42858,393.79074 A 64.285713 64.285713 0 1 1  380.00001 393.79074 z"
           transform="matrix(4.639929e-2,0.000000,0.000000,4.639929e-2,235.3271,508.4948)" />
        <path
           sodipodi:type="arc"
           style="fill:#ffffff;fill-opacity:1.0000000;fill-rule:evenodd;stroke:#000000;stroke-width:10.776027;stroke-linecap:butt;stroke-linejoin:miter;stroke-miterlimit:4.0000000;stroke-dasharray:none;stroke-opacity:1.0000000"
           id="path2046"
           sodipodi:cx="315.71429"
           sodipodi:cy="393.79074"
           sodipodi:rx="64.285713"
           sodipodi:ry="64.285713"
           d="M 380.00001 393.79074 A 64.285713 64.285713 0 1 1  251.42858,393.79074 A 64.285713 64.285713 0 1 1  380.00001 393.79074 z"
           transform="matrix(4.639929e-2,0.000000,0.000000,4.639929e-2,235.3271,437.4180)" />
      </g>
      <g
         style="fill:#ffffff;fill-opacity:1.0000000"
         transform="translate(-79.40412,-2.662998)"
         id="g2048">
        <rect
           style="fill:#ffffff;fill-opacity:1.0000000;fill-rule:evenodd;stroke:#000000;stroke-width:0.50000000;stroke-linecap:butt;stroke-linejoin:miter;stroke-miterlimit:4.0000000;stroke-dasharray:none;stroke-opacity:1.0000000"
           id="rect2050"
           width="5.9367414"
           height="70.361511"
           x="247.00764"
           y="455.17026" />
        <path
           sodipodi:type="arc"
           style="fill:#ffffff;fill-opacity:1.0000000;fill-rule:evenodd;stroke:#000000;stroke-width:10.776027;stroke-linecap:butt;stroke-linejoin:miter;stroke-miterlimit:4.0000000;stroke-dasharray:none;stroke-opacity:1.0000000"
           id="path2052"
           sodipodi:cx="315.71429"
           sodipodi:cy="393.79074"
           sodipodi:rx="64.285713"
           sodipodi:ry="64.285713"
           d="M 380.00001 393.79074 A 64.285713 64.285713 0 1 1  251.42858,393.79074 A 64.285713 64.285713 0 1 1  380.00001 393.79074 z"
           transform="matrix(4.639929e-2,0.000000,0.000000,4.639929e-2,235.3271,508.4948)" />
        <path
           sodipodi:type="arc"
           style="fill:#ffffff;fill-opacity:1.0000000;fill-rule:evenodd;stroke:#000000;stroke-width:10.776027;stroke-linecap:butt;stroke-linejoin:miter;stroke-miterlimit:4.0000000;stroke-dasharray:none;stroke-opacity:1.0000000"
           id="path2054"
           sodipodi:cx="315.71429"
           sodipodi:cy="393.79074"
           sodipodi:rx="64.285713"
           sodipodi:ry="64.285713"
           d="M 380.00001 393.79074 A 64.285713 64.285713 0 1 1  251.42858,393.79074 A 64.285713 64.285713 0 1 1  380.00001 393.79074 z"
           transform="matrix(4.639929e-2,0.000000,0.000000,4.639929e-2,235.3271,437.4180)" />
      </g>
      <g
         style="fill:#ffffff;fill-opacity:1.0000000"
         transform="translate(-73.68217,-2.662998)"
         id="g2056">
        <rect
           style="fill:#ffffff;fill-opacity:1.0000000;fill-rule:evenodd;stroke:#000000;stroke-width:0.50000000;stroke-linecap:butt;stroke-linejoin:miter;stroke-miterlimit:4.0000000;stroke-dasharray:none;stroke-opacity:1.0000000"
           id="rect2058"
           width="5.9367414"
           height="70.361511"
           x="247.00764"
           y="455.17026" />
        <path
           sodipodi:type="arc"
           style="fill:#ffffff;fill-opacity:1.0000000;fill-rule:evenodd;stroke:#000000;stroke-width:10.776027;stroke-linecap:butt;stroke-linejoin:miter;stroke-miterlimit:4.0000000;stroke-dasharray:none;stroke-opacity:1.0000000"
           id="path2060"
           sodipodi:cx="315.71429"
           sodipodi:cy="393.79074"
           sodipodi:rx="64.285713"
           sodipodi:ry="64.285713"
           d="M 380.00001 393.79074 A 64.285713 64.285713 0 1 1  251.42858,393.79074 A 64.285713 64.285713 0 1 1  380.00001 393.79074 z"
           transform="matrix(4.639929e-2,0.000000,0.000000,4.639929e-2,235.3271,508.4948)" />
        <path
           sodipodi:type="arc"
           style="fill:#ffffff;fill-opacity:1.0000000;fill-rule:evenodd;stroke:#000000;stroke-width:10.776027;stroke-linecap:butt;stroke-linejoin:miter;stroke-miterlimit:4.0000000;stroke-dasharray:none;stroke-opacity:1.0000000"
           id="path2062"
           sodipodi:cx="315.71429"
           sodipodi:cy="393.79074"
           sodipodi:rx="64.285713"
           sodipodi:ry="64.285713"
           d="M 380.00001 393.79074 A 64.285713 64.285713 0 1 1  251.42858,393.79074 A 64.285713 64.285713 0 1 1  380.00001 393.79074 z"
           transform="matrix(4.639929e-2,0.000000,0.000000,4.639929e-2,235.3271,437.4180)" />
      </g>
      <g
         style="fill:#ffffff;fill-opacity:1.0000000"
         transform="translate(-67.96023,-2.662998)"
         id="g2064">
        <rect
           style="fill:#ffffff;fill-opacity:1.0000000;fill-rule:evenodd;stroke:#000000;stroke-width:0.50000000;stroke-linecap:butt;stroke-linejoin:miter;stroke-miterlimit:4.0000000;stroke-dasharray:none;stroke-opacity:1.0000000"
           id="rect2066"
           width="5.9367414"
           height="70.361511"
           x="247.00764"
           y="455.17026" />
        <path
           sodipodi:type="arc"
           style="fill:#ffffff;fill-opacity:1.0000000;fill-rule:evenodd;stroke:#000000;stroke-width:10.776027;stroke-linecap:butt;stroke-linejoin:miter;stroke-miterlimit:4.0000000;stroke-dasharray:none;stroke-opacity:1.0000000"
           id="path2068"
           sodipodi:cx="315.71429"
           sodipodi:cy="393.79074"
           sodipodi:rx="64.285713"
           sodipodi:ry="64.285713"
           d="M 380.00001 393.79074 A 64.285713 64.285713 0 1 1  251.42858,393.79074 A 64.285713 64.285713 0 1 1  380.00001 393.79074 z"
           transform="matrix(4.639929e-2,0.000000,0.000000,4.639929e-2,235.3271,508.4948)" />
        <path
           sodipodi:type="arc"
           style="fill:#ffffff;fill-opacity:1.0000000;fill-rule:evenodd;stroke:#000000;stroke-width:10.776027;stroke-linecap:butt;stroke-linejoin:miter;stroke-miterlimit:4.0000000;stroke-dasharray:none;stroke-opacity:1.0000000"
           id="path2070"
           sodipodi:cx="315.71429"
           sodipodi:cy="393.79074"
           sodipodi:rx="64.285713"
           sodipodi:ry="64.285713"
           d="M 380.00001 393.79074 A 64.285713 64.285713 0 1 1  251.42858,393.79074 A 64.285713 64.285713 0 1 1  380.00001 393.79074 z"
           transform="matrix(4.639929e-2,0.000000,0.000000,4.639929e-2,235.3271,437.4180)" />
      </g>
      <g
         style="fill:#ffffff;fill-opacity:1.0000000"
         transform="translate(-62.23828,-2.662998)"
         id="g2072">
        <rect
           style="fill:#ffffff;fill-opacity:1.0000000;fill-rule:evenodd;stroke:#000000;stroke-width:0.50000000;stroke-linecap:butt;stroke-linejoin:miter;stroke-miterlimit:4.0000000;stroke-dasharray:none;stroke-opacity:1.0000000"
           id="rect2074"
           width="5.9367414"
           height="70.361511"
           x="247.00764"
           y="455.17026" />
        <path
           sodipodi:type="arc"
           style="fill:#ffffff;fill-opacity:1.0000000;fill-rule:evenodd;stroke:#000000;stroke-width:10.776027;stroke-linecap:butt;stroke-linejoin:miter;stroke-miterlimit:4.0000000;stroke-dasharray:none;stroke-opacity:1.0000000"
           id="path2076"
           sodipodi:cx="315.71429"
           sodipodi:cy="393.79074"
           sodipodi:rx="64.285713"
           sodipodi:ry="64.285713"
           d="M 380.00001 393.79074 A 64.285713 64.285713 0 1 1  251.42858,393.79074 A 64.285713 64.285713 0 1 1  380.00001 393.79074 z"
           transform="matrix(4.639929e-2,0.000000,0.000000,4.639929e-2,235.3271,508.4948)" />
        <path
           sodipodi:type="arc"
           style="fill:#ffffff;fill-opacity:1.0000000;fill-rule:evenodd;stroke:#000000;stroke-width:10.776027;stroke-linecap:butt;stroke-linejoin:miter;stroke-miterlimit:4.0000000;stroke-dasharray:none;stroke-opacity:1.0000000"
           id="path2078"
           sodipodi:cx="315.71429"
           sodipodi:cy="393.79074"
           sodipodi:rx="64.285713"
           sodipodi:ry="64.285713"
           d="M 380.00001 393.79074 A 64.285713 64.285713 0 1 1  251.42858,393.79074 A 64.285713 64.285713 0 1 1  380.00001 393.79074 z"
           transform="matrix(4.639929e-2,0.000000,0.000000,4.639929e-2,235.3271,437.4180)" />
      </g>
      <g
         style="fill:#ffffff;fill-opacity:1.0000000"
         transform="translate(-56.51632,-2.662998)"
         id="g2080">
        <rect
           style="fill:#ffffff;fill-opacity:1.0000000;fill-rule:evenodd;stroke:#000000;stroke-width:0.50000000;stroke-linecap:butt;stroke-linejoin:miter;stroke-miterlimit:4.0000000;stroke-dasharray:none;stroke-opacity:1.0000000"
           id="rect2082"
           width="5.9367414"
           height="70.361511"
           x="247.00764"
           y="455.17026" />
        <path
           sodipodi:type="arc"
           style="fill:#ffffff;fill-opacity:1.0000000;fill-rule:evenodd;stroke:#000000;stroke-width:10.776027;stroke-linecap:butt;stroke-linejoin:miter;stroke-miterlimit:4.0000000;stroke-dasharray:none;stroke-opacity:1.0000000"
           id="path2084"
           sodipodi:cx="315.71429"
           sodipodi:cy="393.79074"
           sodipodi:rx="64.285713"
           sodipodi:ry="64.285713"
           d="M 380.00001 393.79074 A 64.285713 64.285713 0 1 1  251.42858,393.79074 A 64.285713 64.285713 0 1 1  380.00001 393.79074 z"
           transform="matrix(4.639929e-2,0.000000,0.000000,4.639929e-2,235.3271,508.4948)" />
        <path
           sodipodi:type="arc"
           style="fill:#ffffff;fill-opacity:1.0000000;fill-rule:evenodd;stroke:#000000;stroke-width:10.776027;stroke-linecap:butt;stroke-linejoin:miter;stroke-miterlimit:4.0000000;stroke-dasharray:none;stroke-opacity:1.0000000"
           id="path2086"
           sodipodi:cx="315.71429"
           sodipodi:cy="393.79074"
           sodipodi:rx="64.285713"
           sodipodi:ry="64.285713"
           d="M 380.00001 393.79074 A 64.285713 64.285713 0 1 1  251.42858,393.79074 A 64.285713 64.285713 0 1 1  380.00001 393.79074 z"
           transform="matrix(4.639929e-2,0.000000,0.000000,4.639929e-2,235.3271,437.4180)" />
      </g>
      <g
         style="fill:#ffffff;fill-opacity:1.0000000"
         transform="translate(-50.79438,-2.662998)"
         id="g2088">
        <rect
           style="fill:#ffffff;fill-opacity:1.0000000;fill-rule:evenodd;stroke:#000000;stroke-width:0.50000000;stroke-linecap:butt;stroke-linejoin:miter;stroke-miterlimit:4.0000000;stroke-dasharray:none;stroke-opacity:1.0000000"
           id="rect2090"
           width="5.9367414"
           height="70.361511"
           x="247.00764"
           y="455.17026" />
        <path
           sodipodi:type="arc"
           style="fill:#ffffff;fill-opacity:1.0000000;fill-rule:evenodd;stroke:#000000;stroke-width:10.776027;stroke-linecap:butt;stroke-linejoin:miter;stroke-miterlimit:4.0000000;stroke-dasharray:none;stroke-opacity:1.0000000"
           id="path2092"
           sodipodi:cx="315.71429"
           sodipodi:cy="393.79074"
           sodipodi:rx="64.285713"
           sodipodi:ry="64.285713"
           d="M 380.00001 393.79074 A 64.285713 64.285713 0 1 1  251.42858,393.79074 A 64.285713 64.285713 0 1 1  380.00001 393.79074 z"
           transform="matrix(4.639929e-2,0.000000,0.000000,4.639929e-2,235.3271,508.4948)" />
        <path
           sodipodi:type="arc"
           style="fill:#ffffff;fill-opacity:1.0000000;fill-rule:evenodd;stroke:#000000;stroke-width:10.776027;stroke-linecap:butt;stroke-linejoin:miter;stroke-miterlimit:4.0000000;stroke-dasharray:none;stroke-opacity:1.0000000"
           id="path2094"
           sodipodi:cx="315.71429"
           sodipodi:cy="393.79074"
           sodipodi:rx="64.285713"
           sodipodi:ry="64.285713"
           d="M 380.00001 393.79074 A 64.285713 64.285713 0 1 1  251.42858,393.79074 A 64.285713 64.285713 0 1 1  380.00001 393.79074 z"
           transform="matrix(4.639929e-2,0.000000,0.000000,4.639929e-2,235.3271,437.4180)" />
      </g>
      <g
         style="fill:#ffffff;fill-opacity:1.0000000"
         transform="translate(-45.07243,-2.662998)"
         id="g2096">
        <rect
           style="fill:#ffffff;fill-opacity:1.0000000;fill-rule:evenodd;stroke:#000000;stroke-width:0.50000000;stroke-linecap:butt;stroke-linejoin:miter;stroke-miterlimit:4.0000000;stroke-dasharray:none;stroke-opacity:1.0000000"
           id="rect2098"
           width="5.9367414"
           height="70.361511"
           x="247.00764"
           y="455.17026" />
        <path
           sodipodi:type="arc"
           style="fill:#ffffff;fill-opacity:1.0000000;fill-rule:evenodd;stroke:#000000;stroke-width:10.776027;stroke-linecap:butt;stroke-linejoin:miter;stroke-miterlimit:4.0000000;stroke-dasharray:none;stroke-opacity:1.0000000"
           id="path2100"
           sodipodi:cx="315.71429"
           sodipodi:cy="393.79074"
           sodipodi:rx="64.285713"
           sodipodi:ry="64.285713"
           d="M 380.00001 393.79074 A 64.285713 64.285713 0 1 1  251.42858,393.79074 A 64.285713 64.285713 0 1 1  380.00001 393.79074 z"
           transform="matrix(4.639929e-2,0.000000,0.000000,4.639929e-2,235.3271,508.4948)" />
        <path
           sodipodi:type="arc"
           style="fill:#ffffff;fill-opacity:1.0000000;fill-rule:evenodd;stroke:#000000;stroke-width:10.776027;stroke-linecap:butt;stroke-linejoin:miter;stroke-miterlimit:4.0000000;stroke-dasharray:none;stroke-opacity:1.0000000"
           id="path2102"
           sodipodi:cx="315.71429"
           sodipodi:cy="393.79074"
           sodipodi:rx="64.285713"
           sodipodi:ry="64.285713"
           d="M 380.00001 393.79074 A 64.285713 64.285713 0 1 1  251.42858,393.79074 A 64.285713 64.285713 0 1 1  380.00001 393.79074 z"
           transform="matrix(4.639929e-2,0.000000,0.000000,4.639929e-2,235.3271,437.4180)" />
      </g>
      <g
         style="fill:#ffffff;fill-opacity:1.0000000"
         transform="translate(-39.35049,-2.662998)"
         id="g2104">
        <rect
           style="fill:#ffffff;fill-opacity:1.0000000;fill-rule:evenodd;stroke:#000000;stroke-width:0.50000000;stroke-linecap:butt;stroke-linejoin:miter;stroke-miterlimit:4.0000000;stroke-dasharray:none;stroke-opacity:1.0000000"
           id="rect2106"
           width="5.9367414"
           height="70.361511"
           x="247.00764"
           y="455.17026" />
        <path
           sodipodi:type="arc"
           style="fill:#ffffff;fill-opacity:1.0000000;fill-rule:evenodd;stroke:#000000;stroke-width:10.776027;stroke-linecap:butt;stroke-linejoin:miter;stroke-miterlimit:4.0000000;stroke-dasharray:none;stroke-opacity:1.0000000"
           id="path2108"
           sodipodi:cx="315.71429"
           sodipodi:cy="393.79074"
           sodipodi:rx="64.285713"
           sodipodi:ry="64.285713"
           d="M 380.00001 393.79074 A 64.285713 64.285713 0 1 1  251.42858,393.79074 A 64.285713 64.285713 0 1 1  380.00001 393.79074 z"
           transform="matrix(4.639929e-2,0.000000,0.000000,4.639929e-2,235.3271,508.4948)" />
        <path
           sodipodi:type="arc"
           style="fill:#ffffff;fill-opacity:1.0000000;fill-rule:evenodd;stroke:#000000;stroke-width:10.776027;stroke-linecap:butt;stroke-linejoin:miter;stroke-miterlimit:4.0000000;stroke-dasharray:none;stroke-opacity:1.0000000"
           id="path2110"
           sodipodi:cx="315.71429"
           sodipodi:cy="393.79074"
           sodipodi:rx="64.285713"
           sodipodi:ry="64.285713"
           d="M 380.00001 393.79074 A 64.285713 64.285713 0 1 1  251.42858,393.79074 A 64.285713 64.285713 0 1 1  380.00001 393.79074 z"
           transform="matrix(4.639929e-2,0.000000,0.000000,4.639929e-2,235.3271,437.4180)" />
      </g>
      <g
         style="fill:#ffffff;fill-opacity:1.0000000"
         transform="translate(-33.62854,-2.662998)"
         id="g2112">
        <rect
           style="fill:#ffffff;fill-opacity:1.0000000;fill-rule:evenodd;stroke:#000000;stroke-width:0.50000000;stroke-linecap:butt;stroke-linejoin:miter;stroke-miterlimit:4.0000000;stroke-dasharray:none;stroke-opacity:1.0000000"
           id="rect2114"
           width="5.9367414"
           height="70.361511"
           x="247.00764"
           y="455.17026" />
        <path
           sodipodi:type="arc"
           style="fill:#ffffff;fill-opacity:1.0000000;fill-rule:evenodd;stroke:#000000;stroke-width:10.776027;stroke-linecap:butt;stroke-linejoin:miter;stroke-miterlimit:4.0000000;stroke-dasharray:none;stroke-opacity:1.0000000"
           id="path2116"
           sodipodi:cx="315.71429"
           sodipodi:cy="393.79074"
           sodipodi:rx="64.285713"
           sodipodi:ry="64.285713"
           d="M 380.00001 393.79074 A 64.285713 64.285713 0 1 1  251.42858,393.79074 A 64.285713 64.285713 0 1 1  380.00001 393.79074 z"
           transform="matrix(4.639929e-2,0.000000,0.000000,4.639929e-2,235.3271,508.4948)" />
        <path
           sodipodi:type="arc"
           style="fill:#ffffff;fill-opacity:1.0000000;fill-rule:evenodd;stroke:#000000;stroke-width:10.776027;stroke-linecap:butt;stroke-linejoin:miter;stroke-miterlimit:4.0000000;stroke-dasharray:none;stroke-opacity:1.0000000"
           id="path2118"
           sodipodi:cx="315.71429"
           sodipodi:cy="393.79074"
           sodipodi:rx="64.285713"
           sodipodi:ry="64.285713"
           d="M 380.00001 393.79074 A 64.285713 64.285713 0 1 1  251.42858,393.79074 A 64.285713 64.285713 0 1 1  380.00001 393.79074 z"
           transform="matrix(4.639929e-2,0.000000,0.000000,4.639929e-2,235.3271,437.4180)" />
      </g>
      <g
         style="fill:#ffffff;fill-opacity:1.0000000"
         transform="translate(-27.90659,-2.662998)"
         id="g2120">
        <rect
           style="fill:#ffffff;fill-opacity:1.0000000;fill-rule:evenodd;stroke:#000000;stroke-width:0.50000000;stroke-linecap:butt;stroke-linejoin:miter;stroke-miterlimit:4.0000000;stroke-dasharray:none;stroke-opacity:1.0000000"
           id="rect2122"
           width="5.9367414"
           height="70.361511"
           x="247.00764"
           y="455.17026" />
        <path
           sodipodi:type="arc"
           style="fill:#ffffff;fill-opacity:1.0000000;fill-rule:evenodd;stroke:#000000;stroke-width:10.776027;stroke-linecap:butt;stroke-linejoin:miter;stroke-miterlimit:4.0000000;stroke-dasharray:none;stroke-opacity:1.0000000"
           id="path2124"
           sodipodi:cx="315.71429"
           sodipodi:cy="393.79074"
           sodipodi:rx="64.285713"
           sodipodi:ry="64.285713"
           d="M 380.00001 393.79074 A 64.285713 64.285713 0 1 1  251.42858,393.79074 A 64.285713 64.285713 0 1 1  380.00001 393.79074 z"
           transform="matrix(4.639929e-2,0.000000,0.000000,4.639929e-2,235.3271,508.4948)" />
        <path
           sodipodi:type="arc"
           style="fill:#ffffff;fill-opacity:1.0000000;fill-rule:evenodd;stroke:#000000;stroke-width:10.776027;stroke-linecap:butt;stroke-linejoin:miter;stroke-miterlimit:4.0000000;stroke-dasharray:none;stroke-opacity:1.0000000"
           id="path2126"
           sodipodi:cx="315.71429"
           sodipodi:cy="393.79074"
           sodipodi:rx="64.285713"
           sodipodi:ry="64.285713"
           d="M 380.00001 393.79074 A 64.285713 64.285713 0 1 1  251.42858,393.79074 A 64.285713 64.285713 0 1 1  380.00001 393.79074 z"
           transform="matrix(4.639929e-2,0.000000,0.000000,4.639929e-2,235.3271,437.4180)" />
      </g>
      <g
         style="fill:#ffffff;fill-opacity:1.0000000"
         transform="translate(-22.18465,-2.662998)"
         id="g2128">
        <rect
           style="fill:#ffffff;fill-opacity:1.0000000;fill-rule:evenodd;stroke:#000000;stroke-width:0.50000000;stroke-linecap:butt;stroke-linejoin:miter;stroke-miterlimit:4.0000000;stroke-dasharray:none;stroke-opacity:1.0000000"
           id="rect2130"
           width="5.9367414"
           height="70.361511"
           x="247.00764"
           y="455.17026" />
        <path
           sodipodi:type="arc"
           style="fill:#ffffff;fill-opacity:1.0000000;fill-rule:evenodd;stroke:#000000;stroke-width:10.776027;stroke-linecap:butt;stroke-linejoin:miter;stroke-miterlimit:4.0000000;stroke-dasharray:none;stroke-opacity:1.0000000"
           id="path2132"
           sodipodi:cx="315.71429"
           sodipodi:cy="393.79074"
           sodipodi:rx="64.285713"
           sodipodi:ry="64.285713"
           d="M 380.00001 393.79074 A 64.285713 64.285713 0 1 1  251.42858,393.79074 A 64.285713 64.285713 0 1 1  380.00001 393.79074 z"
           transform="matrix(4.639929e-2,0.000000,0.000000,4.639929e-2,235.3271,508.4948)" />
        <path
           sodipodi:type="arc"
           style="fill:#ffffff;fill-opacity:1.0000000;fill-rule:evenodd;stroke:#000000;stroke-width:10.776027;stroke-linecap:butt;stroke-linejoin:miter;stroke-miterlimit:4.0000000;stroke-dasharray:none;stroke-opacity:1.0000000"
           id="path2134"
           sodipodi:cx="315.71429"
           sodipodi:cy="393.79074"
           sodipodi:rx="64.285713"
           sodipodi:ry="64.285713"
           d="M 380.00001 393.79074 A 64.285713 64.285713 0 1 1  251.42858,393.79074 A 64.285713 64.285713 0 1 1  380.00001 393.79074 z"
           transform="matrix(4.639929e-2,0.000000,0.000000,4.639929e-2,235.3271,437.4180)" />
      </g>
      <g
         style="fill:#ffffff;fill-opacity:1.0000000"
         transform="translate(-16.46271,-2.662998)"
         id="g2136">
        <rect
           style="fill:#ffffff;fill-opacity:1.0000000;fill-rule:evenodd;stroke:#000000;stroke-width:0.50000000;stroke-linecap:butt;stroke-linejoin:miter;stroke-miterlimit:4.0000000;stroke-dasharray:none;stroke-opacity:1.0000000"
           id="rect2138"
           width="5.9367414"
           height="70.361511"
           x="247.00764"
           y="455.17026" />
        <path
           sodipodi:type="arc"
           style="fill:#ffffff;fill-opacity:1.0000000;fill-rule:evenodd;stroke:#000000;stroke-width:10.776027;stroke-linecap:butt;stroke-linejoin:miter;stroke-miterlimit:4.0000000;stroke-dasharray:none;stroke-opacity:1.0000000"
           id="path2140"
           sodipodi:cx="315.71429"
           sodipodi:cy="393.79074"
           sodipodi:rx="64.285713"
           sodipodi:ry="64.285713"
           d="M 380.00001 393.79074 A 64.285713 64.285713 0 1 1  251.42858,393.79074 A 64.285713 64.285713 0 1 1  380.00001 393.79074 z"
           transform="matrix(4.639929e-2,0.000000,0.000000,4.639929e-2,235.3271,508.4948)" />
        <path
           sodipodi:type="arc"
           style="fill:#ffffff;fill-opacity:1.0000000;fill-rule:evenodd;stroke:#000000;stroke-width:10.776027;stroke-linecap:butt;stroke-linejoin:miter;stroke-miterlimit:4.0000000;stroke-dasharray:none;stroke-opacity:1.0000000"
           id="path2142"
           sodipodi:cx="315.71429"
           sodipodi:cy="393.79074"
           sodipodi:rx="64.285713"
           sodipodi:ry="64.285713"
           d="M 380.00001 393.79074 A 64.285713 64.285713 0 1 1  251.42858,393.79074 A 64.285713 64.285713 0 1 1  380.00001 393.79074 z"
           transform="matrix(4.639929e-2,0.000000,0.000000,4.639929e-2,235.3271,437.4180)" />
      </g>
      <g
         style="fill:#ffffff;fill-opacity:1.0000000"
         transform="translate(-10.74076,-2.662998)"
         id="g2144">
        <rect
           style="fill:#ffffff;fill-opacity:1.0000000;fill-rule:evenodd;stroke:#000000;stroke-width:0.50000000;stroke-linecap:butt;stroke-linejoin:miter;stroke-miterlimit:4.0000000;stroke-dasharray:none;stroke-opacity:1.0000000"
           id="rect2146"
           width="5.9367414"
           height="70.361511"
           x="247.00764"
           y="455.17026" />
        <path
           sodipodi:type="arc"
           style="fill:#ffffff;fill-opacity:1.0000000;fill-rule:evenodd;stroke:#000000;stroke-width:10.776027;stroke-linecap:butt;stroke-linejoin:miter;stroke-miterlimit:4.0000000;stroke-dasharray:none;stroke-opacity:1.0000000"
           id="path2148"
           sodipodi:cx="315.71429"
           sodipodi:cy="393.79074"
           sodipodi:rx="64.285713"
           sodipodi:ry="64.285713"
           d="M 380.00001 393.79074 A 64.285713 64.285713 0 1 1  251.42858,393.79074 A 64.285713 64.285713 0 1 1  380.00001 393.79074 z"
           transform="matrix(4.639929e-2,0.000000,0.000000,4.639929e-2,235.3271,508.4948)" />
        <path
           sodipodi:type="arc"
           style="fill:#ffffff;fill-opacity:1.0000000;fill-rule:evenodd;stroke:#000000;stroke-width:10.776027;stroke-linecap:butt;stroke-linejoin:miter;stroke-miterlimit:4.0000000;stroke-dasharray:none;stroke-opacity:1.0000000"
           id="path2150"
           sodipodi:cx="315.71429"
           sodipodi:cy="393.79074"
           sodipodi:rx="64.285713"
           sodipodi:ry="64.285713"
           d="M 380.00001 393.79074 A 64.285713 64.285713 0 1 1  251.42858,393.79074 A 64.285713 64.285713 0 1 1  380.00001 393.79074 z"
           transform="matrix(4.639929e-2,0.000000,0.000000,4.639929e-2,235.3271,437.4180)" />
      </g>
      <g
         style="fill:#ffffff;fill-opacity:1.0000000"
         transform="translate(-5.018803,-2.662998)"
         id="g2152">
        <rect
           style="fill:#ffffff;fill-opacity:1.0000000;fill-rule:evenodd;stroke:#000000;stroke-width:0.50000000;stroke-linecap:butt;stroke-linejoin:miter;stroke-miterlimit:4.0000000;stroke-dasharray:none;stroke-opacity:1.0000000"
           id="rect2154"
           width="5.9367414"
           height="70.361511"
           x="247.00764"
           y="455.17026" />
        <path
           sodipodi:type="arc"
           style="fill:#ffffff;fill-opacity:1.0000000;fill-rule:evenodd;stroke:#000000;stroke-width:10.776027;stroke-linecap:butt;stroke-linejoin:miter;stroke-miterlimit:4.0000000;stroke-dasharray:none;stroke-opacity:1.0000000"
           id="path2156"
           sodipodi:cx="315.71429"
           sodipodi:cy="393.79074"
           sodipodi:rx="64.285713"
           sodipodi:ry="64.285713"
           d="M 380.00001 393.79074 A 64.285713 64.285713 0 1 1  251.42858,393.79074 A 64.285713 64.285713 0 1 1  380.00001 393.79074 z"
           transform="matrix(4.639929e-2,0.000000,0.000000,4.639929e-2,235.3271,508.4948)" />
        <path
           sodipodi:type="arc"
           style="fill:#ffffff;fill-opacity:1.0000000;fill-rule:evenodd;stroke:#000000;stroke-width:10.776027;stroke-linecap:butt;stroke-linejoin:miter;stroke-miterlimit:4.0000000;stroke-dasharray:none;stroke-opacity:1.0000000"
           id="path2158"
           sodipodi:cx="315.71429"
           sodipodi:cy="393.79074"
           sodipodi:rx="64.285713"
           sodipodi:ry="64.285713"
           d="M 380.00001 393.79074 A 64.285713 64.285713 0 1 1  251.42858,393.79074 A 64.285713 64.285713 0 1 1  380.00001 393.79074 z"
           transform="matrix(4.639929e-2,0.000000,0.000000,4.639929e-2,235.3271,437.4180)" />
      </g>
      <g
         style="fill:#ffffff;fill-opacity:1.0000000"
         transform="translate(0.703141,-2.662998)"
         id="g2160">
        <rect
           style="fill:#ffffff;fill-opacity:1.0000000;fill-rule:evenodd;stroke:#000000;stroke-width:0.50000000;stroke-linecap:butt;stroke-linejoin:miter;stroke-miterlimit:4.0000000;stroke-dasharray:none;stroke-opacity:1.0000000"
           id="rect2162"
           width="5.9367414"
           height="70.361511"
           x="247.00764"
           y="455.17026" />
        <path
           sodipodi:type="arc"
           style="fill:#ffffff;fill-opacity:1.0000000;fill-rule:evenodd;stroke:#000000;stroke-width:10.776027;stroke-linecap:butt;stroke-linejoin:miter;stroke-miterlimit:4.0000000;stroke-dasharray:none;stroke-opacity:1.0000000"
           id="path2164"
           sodipodi:cx="315.71429"
           sodipodi:cy="393.79074"
           sodipodi:rx="64.285713"
           sodipodi:ry="64.285713"
           d="M 380.00001 393.79074 A 64.285713 64.285713 0 1 1  251.42858,393.79074 A 64.285713 64.285713 0 1 1  380.00001 393.79074 z"
           transform="matrix(4.639929e-2,0.000000,0.000000,4.639929e-2,235.3271,508.4948)" />
        <path
           sodipodi:type="arc"
           style="fill:#ffffff;fill-opacity:1.0000000;fill-rule:evenodd;stroke:#000000;stroke-width:10.776027;stroke-linecap:butt;stroke-linejoin:miter;stroke-miterlimit:4.0000000;stroke-dasharray:none;stroke-opacity:1.0000000"
           id="path2166"
           sodipodi:cx="315.71429"
           sodipodi:cy="393.79074"
           sodipodi:rx="64.285713"
           sodipodi:ry="64.285713"
           d="M 380.00001 393.79074 A 64.285713 64.285713 0 1 1  251.42858,393.79074 A 64.285713 64.285713 0 1 1  380.00001 393.79074 z"
           transform="matrix(4.639929e-2,0.000000,0.000000,4.639929e-2,235.3271,437.4180)" />
      </g>
      <g
         style="fill:#ffffff;fill-opacity:1.0000000"
         transform="translate(6.425097,-2.662998)"
         id="g2168">
        <rect
           style="fill:#ffffff;fill-opacity:1.0000000;fill-rule:evenodd;stroke:#000000;stroke-width:0.50000000;stroke-linecap:butt;stroke-linejoin:miter;stroke-miterlimit:4.0000000;stroke-dasharray:none;stroke-opacity:1.0000000"
           id="rect2170"
           width="5.9367414"
           height="70.361511"
           x="247.00764"
           y="455.17026" />
        <path
           sodipodi:type="arc"
           style="fill:#ffffff;fill-opacity:1.0000000;fill-rule:evenodd;stroke:#000000;stroke-width:10.776027;stroke-linecap:butt;stroke-linejoin:miter;stroke-miterlimit:4.0000000;stroke-dasharray:none;stroke-opacity:1.0000000"
           id="path2172"
           sodipodi:cx="315.71429"
           sodipodi:cy="393.79074"
           sodipodi:rx="64.285713"
           sodipodi:ry="64.285713"
           d="M 380.00001 393.79074 A 64.285713 64.285713 0 1 1  251.42858,393.79074 A 64.285713 64.285713 0 1 1  380.00001 393.79074 z"
           transform="matrix(4.639929e-2,0.000000,0.000000,4.639929e-2,235.3271,508.4948)" />
        <path
           sodipodi:type="arc"
           style="fill:#ffffff;fill-opacity:1.0000000;fill-rule:evenodd;stroke:#000000;stroke-width:10.776027;stroke-linecap:butt;stroke-linejoin:miter;stroke-miterlimit:4.0000000;stroke-dasharray:none;stroke-opacity:1.0000000"
           id="path2174"
           sodipodi:cx="315.71429"
           sodipodi:cy="393.79074"
           sodipodi:rx="64.285713"
           sodipodi:ry="64.285713"
           d="M 380.00001 393.79074 A 64.285713 64.285713 0 1 1  251.42858,393.79074 A 64.285713 64.285713 0 1 1  380.00001 393.79074 z"
           transform="matrix(4.639929e-2,0.000000,0.000000,4.639929e-2,235.3271,437.4180)" />
      </g>
      <g
         style="fill:#ffffff;fill-opacity:1.0000000"
         transform="translate(12.14703,-2.662998)"
         id="g2176">
        <rect
           style="fill:#ffffff;fill-opacity:1.0000000;fill-rule:evenodd;stroke:#000000;stroke-width:0.50000000;stroke-linecap:butt;stroke-linejoin:miter;stroke-miterlimit:4.0000000;stroke-dasharray:none;stroke-opacity:1.0000000"
           id="rect2178"
           width="5.9367414"
           height="70.361511"
           x="247.00764"
           y="455.17026" />
        <path
           sodipodi:type="arc"
           style="fill:#ffffff;fill-opacity:1.0000000;fill-rule:evenodd;stroke:#000000;stroke-width:10.776027;stroke-linecap:butt;stroke-linejoin:miter;stroke-miterlimit:4.0000000;stroke-dasharray:none;stroke-opacity:1.0000000"
           id="path2180"
           sodipodi:cx="315.71429"
           sodipodi:cy="393.79074"
           sodipodi:rx="64.285713"
           sodipodi:ry="64.285713"
           d="M 380.00001 393.79074 A 64.285713 64.285713 0 1 1  251.42858,393.79074 A 64.285713 64.285713 0 1 1  380.00001 393.79074 z"
           transform="matrix(4.639929e-2,0.000000,0.000000,4.639929e-2,235.3271,508.4948)" />
        <path
           sodipodi:type="arc"
           style="fill:#ffffff;fill-opacity:1.0000000;fill-rule:evenodd;stroke:#000000;stroke-width:10.776027;stroke-linecap:butt;stroke-linejoin:miter;stroke-miterlimit:4.0000000;stroke-dasharray:none;stroke-opacity:1.0000000"
           id="path2182"
           sodipodi:cx="315.71429"
           sodipodi:cy="393.79074"
           sodipodi:rx="64.285713"
           sodipodi:ry="64.285713"
           d="M 380.00001 393.79074 A 64.285713 64.285713 0 1 1  251.42858,393.79074 A 64.285713 64.285713 0 1 1  380.00001 393.79074 z"
           transform="matrix(4.639929e-2,0.000000,0.000000,4.639929e-2,235.3271,437.4180)" />
      </g>
      <g
         style="fill:#ffffff;fill-opacity:1.0000000"
         transform="translate(17.86897,-2.662998)"
         id="g2184">
        <rect
           style="fill:#ffffff;fill-opacity:1.0000000;fill-rule:evenodd;stroke:#000000;stroke-width:0.50000000;stroke-linecap:butt;stroke-linejoin:miter;stroke-miterlimit:4.0000000;stroke-dasharray:none;stroke-opacity:1.0000000"
           id="rect2186"
           width="5.9367414"
           height="70.361511"
           x="247.00764"
           y="455.17026" />
        <path
           sodipodi:type="arc"
           style="fill:#ffffff;fill-opacity:1.0000000;fill-rule:evenodd;stroke:#000000;stroke-width:10.776027;stroke-linecap:butt;stroke-linejoin:miter;stroke-miterlimit:4.0000000;stroke-dasharray:none;stroke-opacity:1.0000000"
           id="path2188"
           sodipodi:cx="315.71429"
           sodipodi:cy="393.79074"
           sodipodi:rx="64.285713"
           sodipodi:ry="64.285713"
           d="M 380.00001 393.79074 A 64.285713 64.285713 0 1 1  251.42858,393.79074 A 64.285713 64.285713 0 1 1  380.00001 393.79074 z"
           transform="matrix(4.639929e-2,0.000000,0.000000,4.639929e-2,235.3271,508.4948)" />
        <path
           sodipodi:type="arc"
           style="fill:#ffffff;fill-opacity:1.0000000;fill-rule:evenodd;stroke:#000000;stroke-width:10.776027;stroke-linecap:butt;stroke-linejoin:miter;stroke-miterlimit:4.0000000;stroke-dasharray:none;stroke-opacity:1.0000000"
           id="path2190"
           sodipodi:cx="315.71429"
           sodipodi:cy="393.79074"
           sodipodi:rx="64.285713"
           sodipodi:ry="64.285713"
           d="M 380.00001 393.79074 A 64.285713 64.285713 0 1 1  251.42858,393.79074 A 64.285713 64.285713 0 1 1  380.00001 393.79074 z"
           transform="matrix(4.639929e-2,0.000000,0.000000,4.639929e-2,235.3271,437.4180)" />
      </g>
    </g>
    <path
       style="fill:none;fill-opacity:0.75000000;fill-rule:evenodd;stroke:#000000;stroke-width:0.69999999;stroke-linecap:butt;stroke-linejoin:miter;stroke-miterlimit:4.0000000;stroke-dasharray:2.8000000 2.8000000 ;stroke-dashoffset:0.0000000;stroke-opacity:1.0000000"
       d="M 150.54315,488.56501 L 281.24594,488.56501"
       id="path2192" />
    <path
       sodipodi:type="arc"
       style="fill:#000000;fill-opacity:1.0000000;fill-rule:evenodd;stroke:none;stroke-width:1.0000000pt;stroke-linecap:butt;stroke-linejoin:miter;stroke-opacity:1.0000000"
       id="path2278"
       sodipodi:cx="277.93921"
       sodipodi:cy="456.54196"
       sodipodi:rx="2.7846134"
       sodipodi:ry="2.8716323"
       d="M 280.72382 456.54196 A 2.7846134 2.8716323 0 1 1  275.15460,456.54196 A 2.7846134 2.8716323 0 1 1  280.72382 456.54196 z"
       transform="matrix(0.575758,0.000000,0.000000,0.575758,76.00733,225.7075)" />
    <path
       style="fill:none;fill-opacity:0.75000000;fill-rule:evenodd;stroke:#000000;stroke-width:0.70000000;stroke-linecap:butt;stroke-linejoin:miter;stroke-opacity:1.0000000;stroke-miterlimit:4.0000000;stroke-dasharray:2.8000000,2.8000000;stroke-dashoffset:0.0000000"
       d="M 235.99598,488.47799 L 268.19307,453.32225"
       id="path2280" />
    <path
       style="fill:none;fill-opacity:0.75000000;fill-rule:evenodd;stroke:#000000;stroke-width:0.70000000;stroke-linecap:butt;stroke-linejoin:miter;stroke-opacity:1.0000000;stroke-miterlimit:4.0000000;stroke-dasharray:2.8000000,2.8000000;stroke-dashoffset:0.0000000"
       d="M 159.07103,452.80014 L 235.64790,488.65203"
       id="path2282" />
    <path
       style="fill:none;fill-opacity:0.75000000;fill-rule:evenodd;stroke:#000000;stroke-width:0.87500000;stroke-linecap:butt;stroke-linejoin:miter;stroke-miterlimit:4.0000000;stroke-dasharray:none;stroke-opacity:1.0000000"
       d="M 249.90421,484.53820 C 253.94435,486.53748 255.38727,483.00030 254.04055,482.07755 C 252.77975,481.21368 250.76995,481.69307 250.76995,481.69307 C 250.76995,481.69307 255.59044,481.61169 254.23293,479.54001 C 253.17480,477.92521 250.86614,478.15589 250.57756,478.84795 C 250.28898,479.54001 250.23532,479.50671 249.61562,482.23134 C 249.42324,483.07719 249.51943,483.84614 249.51943,483.84614 L 249.32704,485.46095 L 249.32704,486.99885"
       id="path2284"
       sodipodi:nodetypes="cscsssccc" />
    <path
       style="fill:none;fill-opacity:0.75000000;fill-rule:evenodd;stroke:#000000;stroke-width:0.87500000;stroke-linecap:butt;stroke-linejoin:miter;stroke-miterlimit:4.0000000;stroke-dasharray:none;stroke-opacity:1.0000000"
       d="M 210.17171,477.65371 C 204.08873,483.27299 204.08873,486.00236 205.34111,486.80512 C 207.11224,487.94039 209.81389,486.64456 209.09824,483.11244 C 208.53931,480.35377 205.16220,477.81425 205.16220,477.81425"
       id="path2292"
       sodipodi:nodetypes="cssc" />
  </g>
</svg>
