<?xml version="1.0" encoding="iso-8859-1"?>
<!-- Generator: Adobe Illustrator 11 Build 196, SVG Export Plug-In . SVG Version: 6.0.0 Build 78)  -->
<!DOCTYPE svg PUBLIC "-//W3C//DTD SVG 1.0//EN"    "http://www.w3.org/TR/2001/REC-SVG-20010904/DTD/svg10.dtd" [
	<!ENTITY ns_flows "http://ns.adobe.com/Flows/1.0/">
	<!ENTITY ns_svg "http://www.w3.org/2000/svg">
	<!ENTITY ns_xlink "http://www.w3.org/1999/xlink">
]>
<svg  
	 width="310.495" height="46.932" viewBox="0 0 310.495 46.932" style="overflow:visible;enable-background:new 0 0 310.495 46.932"
	 xml:space="preserve">
	<style type="text/css">
	
	</style>
	<g id="Layer_1">
		<line style="fill:none;stroke:#B4B4B4;stroke-width:2;" x1="28.333" y1="30.024" x2="295.333" y2="25.524"/>
		<line style="fill:none;stroke:#B4B4B4;stroke-width:2;" x1="295.333" y1="2.847" x2="28.333" y2="7.347"/>
		<line style="fill:none;stroke:#B4B4B4;stroke-width:2;" x1="36.208" y1="38.571" x2="303.208" y2="34.071"/>
		<line style="fill:none;stroke:#B4B4B4;stroke-width:2;" x1="36.208" y1="15.894" x2="303.208" y2="11.394"/>
		<polygon style="fill:none;stroke:#000000;stroke-width:0.5;stroke-dasharray:2;" points="48.27,29.914 56.208,38.503 
			56.208,15.814 48.27,7.126 48.27,28.803 "/>
		<polygon style="fill:none;stroke:#000000;stroke-width:0.5;stroke-dasharray:2;" points="166.427,27.978 174.365,36.567 
			174.365,13.878 166.427,5.19 166.427,26.866 "/>
		<polygon style="fill:none;stroke:#000000;stroke-width:0.5;stroke-dasharray:2;" points="274.427,25.978 282.365,34.567 
			282.365,11.878 274.427,3.19 274.427,24.866 "/>
		<path style="fill:#B4B4B4;" d="M28.075,29.207c-1.516-0.047-3.5,0.211-4.32-1.281c-0.578-1.055-0.383-2.336,0.242-3.414
			c1.422-2.477,3.219-4.609,5.453-6.273c2.039-0.391,4.078-0.523,6.125-1.109c0.328-0.102,0.695-0.102,1.055-0.141
			c0.227-0.031,0.438-0.156,0.672-0.203c0.5-0.227,0.719-0.82,0.492-1.32c-0.234-0.508-0.828-0.727-1.328-0.492
			c-2.148,0.344-4.211,0.891-6.414,1.148c-0.68,0.078-1.359,0.203-1.938,0.648c-2.953,2.281-5.484,5.008-6.508,8.586
			c-0.375,1.305-0.227,2.688,0.57,3.875c0.703,1.039,1.773,1.625,2.953,1.742c1.234,0.117,2.508,0.555,3.711,0.078
			c0.508-0.211,0.75-0.797,0.539-1.305S28.583,28.996,28.075,29.207L28.075,29.207z"/>
		<g>
			<line style="fill:none;stroke:#000000;" x1="5.658" y1="6.212" x2="19.658" y2="6.212"/>
			<path d="M22.675,6.212c-1.42,0.527-3.182,1.426-4.273,2.377l0.86-2.377l-0.86-2.377C19.494,4.786,21.256,5.685,22.675,6.212z"/>
		</g>
		<g>
			<line style="fill:none;stroke:#000000;" x1="28.051" y1="39.545" x2="14.05" y2="39.545"/>
			<path d="M11.033,39.545c1.42-0.527,3.182-1.426,4.273-2.377l-0.86,2.377l0.86,2.377C14.214,40.971,12.453,40.072,11.033,39.545z"
				/>
		</g>
		<g>
			<text transform="matrix(1 0 0 1 0 10.2119)"><tspan x="0" y="0" style="font-family:'AGaramond-Regular'; font-size:12;">I</tspan></text>
		</g>
		<g>
			<text transform="matrix(1 0 0 1 4.3059 43.7041)"><tspan x="0" y="0" style="font-family:'AGaramond-Regular'; font-size:12;">I</tspan></text>
		</g>
		<path style="fill:#B4B4B4;" d="M294.458,3.878c2.422,0.148,4.812,0.18,7.266,0.508c0.75,0.102,1.414,0.359,2.078,0.773
			c1.477,0.938,3.016,2.172,2.781,4.062c-1.469,0.047-2.711,1.055-4.164,1.031c-0.555,0-1,0.453-0.992,1.008
			c0,0.547,0.453,0.992,1,0.992c1.781-0.047,3.422-0.898,5.109-1.391c1.883-1.242,1.016-3.977-0.242-5.391
			c-1.141-1.281-2.492-2.281-4.141-2.766c-2.867-0.836-5.789-0.594-8.695-0.828c-0.555,0-1,0.445-1,1S293.904,3.878,294.458,3.878
			L294.458,3.878z"/>
		<path style="fill:#B4B4B4;" d="M294.208,26.628c1.117-0.039,2.219,0.117,3.32,0.164c2.852,0.133,5.617,0.305,8.453,1.016
			c0.688,0.172,1.312,0.445,1.82,0.891c0.672,0.586,0.945,1.664,0.492,2.438c-0.344,0.586-0.617,1.211-1.086,1.711
			c-1.32-0.383-2.57,0.18-3.867,0.281c-0.555,0.008-0.992,0.461-0.992,1.008c0.008,0.555,0.461,1,1.016,0.992
			c0.547,0.031,1.047-0.117,1.578-0.258c0.898-0.234,1.766-0.008,2.688-0.195c1.555-0.312,2.156-1.906,2.633-3.18
			c0.922-2.477-1.031-4.938-3.555-5.602c-3.586-0.945-7.078-0.914-10.672-1.25c-0.609-0.055-1.219-0.016-1.828-0.016
			c-0.555,0-1,0.445-1,1S293.654,26.628,294.208,26.628L294.208,26.628z"/>
	</g>
</svg>
