<?xml version="1.0" encoding="UTF-8" standalone="no"?>
<!-- Generator: Adobe Illustrator 11 Build 196, SVG Export Plug-In . SVG Version: 6.0.0 Build 78)  -->
<svg
   xmlns:xap="http://ns.adobe.com/xap/1.0/"
   xmlns:x="adobe:ns:meta/"
   xmlns:dc="http://purl.org/dc/elements/1.1/"
   xmlns:cc="http://web.resource.org/cc/"
   xmlns:rdf="http://www.w3.org/1999/02/22-rdf-syntax-ns#"
   xmlns:svg="http://www.w3.org/2000/svg"
   xmlns="http://www.w3.org/2000/svg"
   xmlns:sodipodi="http://inkscape.sourceforge.net/DTD/sodipodi-0.dtd"
   xmlns:inkscape="http://www.inkscape.org/namespaces/inkscape"
   width="132.511"
   height="224.824"
   viewBox="0 0 132.511 224.824"
   style="overflow:visible;enable-background:new 0 0 132.511 224.824"
   xml:space="preserve"
   id="svg2"
   sodipodi:version="0.32"
   sodipodi:docname="induced-field-geometry.svg"
   sodipodi:docbase="/home/bcrowell/Documents/writing/lm/trunk/4em/ch06/figs"><defs
   id="defs134">
			
			
			
			
			
			
			
			
			
			
			
			
			
			
			
			
			
			
			
			
			
			
			
			
		</defs><sodipodi:namedview
   inkscape:cy="171.36913"
   inkscape:cx="103.60843"
   inkscape:zoom="1.6788246"
   inkscape:window-height="996"
   inkscape:window-width="1278"
   inkscape:pageshadow="2"
   inkscape:pageopacity="0.0"
   borderopacity="1.0"
   bordercolor="#666666"
   pagecolor="#ffffff"
   id="base"
   inkscape:window-x="0"
   inkscape:window-y="0"
   inkscape:current-layer="svg2" />
	<style
   type="text/css"
   id="style4">
	
	</style>
	<metadata
   id="metadata6">
<xpacket
   id="xpacket8" /><x:xmpmeta
   x:xmptk="XMP toolkit 3.0-29, framework 1.6">

<metadata
   id="metadata136"><rdf:RDF>

 <rdf:Description
   rdf:about="">
 </rdf:Description>

 <rdf:Description
   rdf:about="">
 </rdf:Description>

 <rdf:Description
   rdf:about="">
  <xap:CreateDate>2004-11-15T02:06:00Z</xap:CreateDate>
  <xap:ModifyDate>2004-11-15T02:06:00Z</xap:ModifyDate>
  <xap:CreatorTool>Illustrator</xap:CreatorTool>
  
 </rdf:Description>

 <rdf:Description
   rdf:about="">
  <dc:format>image/svg+xml</dc:format>
 </rdf:Description>

<cc:Work
   rdf:about=""><dc:format>image/svg+xml</dc:format><dc:type
     rdf:resource="http://purl.org/dc/dcmitype/StillImage" /></cc:Work></rdf:RDF></metadata></x:xmpmeta>
                                                                                                                                                                                                                                                                                                                                                                                                                                                                                                                                                                                                                                                                                                                                                                                                                                                                                                                                                                                                                                                                                                                                                                                                                                                                                                                                                                                                                                                                                                                                                                                                                                                                                                                                                                                                                                                                                                                                                                                                                                                                                                                                <xpacket
   id="xpacket10" />
			</metadata>
		<rect
   style="fill:#dedede;fill-opacity:1.0000000;fill-rule:evenodd;stroke:none;stroke-width:1.0000000pt;stroke-linecap:butt;stroke-linejoin:miter;stroke-opacity:1.0000000;overflow:visible"
   id="rect2224"
   width="90.697327"
   height="96.307304"
   x="102.44853"
   y="14.953526" /><rect
   style="fill:#dedede;fill-opacity:1.0000000;fill-rule:evenodd;stroke:none;stroke-width:1.0000000pt;stroke-linecap:butt;stroke-linejoin:miter;stroke-opacity:1.0000000"
   id="rect2222"
   width="90.932518"
   height="96.307304"
   x="8.8938932"
   y="14.969327" /><g
   id="g13"
   transform="matrix(0.832413,0.000000,0.000000,0.832413,1.490501,18.64851)">
				<line
   id="line15"
   y2="9.3970003"
   x2="74.087997"
   y1="27.038000"
   x1="81.647003"
   style="fill:none;stroke:#000000;stroke-width:0.50000000" />
				<path
   id="path17"
   d="M 73.342000,7.6500000 C 73.999000,8.3410000 74.957000,9.1390000 75.780000,9.5350000 L 74.189000,9.6270000 L 73.026000,10.715000 C 73.306000,9.8480000 73.389000,8.6040000 73.342000,7.6500000 z " />
			</g><g
   id="g19"
   transform="matrix(0.832413,0.000000,0.000000,0.832413,1.490501,18.64851)">
				<line
   id="line21"
   y2="3.1459999"
   x2="44.458000"
   y1="3.2260001"
   x1="63.646999"
   style="fill:none;stroke:#000000;stroke-width:0.50000000" />
				<path
   id="path23"
   d="M 42.559000,3.1360000 C 43.455000,2.8080000 44.567000,2.2460000 45.258000,1.6500000 L 44.709000,3.1450000 L 45.245000,4.6450000 C 44.560000,4.0420000 43.451000,3.4720000 42.559000,3.1360000 z " />
			</g><g
   id="g25"
   transform="matrix(0.832413,0.000000,0.000000,0.832413,1.490501,18.64851)">
				<line
   id="line27"
   y2="77.208000"
   x2="79.614998"
   y1="94.848000"
   x1="72.055000"
   style="fill:none;stroke:#000000;stroke-width:0.50000000" />
				<path
   id="path29"
   d="M 80.361000,75.460000 C 79.704000,76.151000 78.746000,76.948000 77.923000,77.345000 L 79.513000,77.437000 L 80.676000,78.525000 C 80.396000,77.658000 80.313000,76.415000 80.361000,75.460000 z " />
			</g><g
   id="g31"
   transform="matrix(0.832413,0.000000,0.000000,0.832413,1.490501,18.64851)">
				<line
   id="line33"
   y2="26.634001"
   x2="23.188000"
   y1="9.8199997"
   x1="32.438999"
   style="fill:none;stroke:#000000;stroke-width:0.50000000" />
				<path
   id="path35"
   d="M 22.271000,28.296000 C 22.412000,27.353000 22.451000,26.107000 22.256000,25.215000 L 23.307000,26.412000 L 24.880000,26.659000 C 24.023000,26.975000 22.993000,27.673000 22.271000,28.296000 z " />
			</g><g
   id="g37"
   transform="matrix(0.832413,0.000000,0.000000,0.832413,1.490501,18.64851)">
				<line
   id="line39"
   y2="95.966003"
   x2="32.636002"
   y1="79.511002"
   x1="22.760000"
   style="fill:none;stroke:#000000;stroke-width:0.50000000" />
				<path
   id="path41"
   d="M 33.610000,97.595000 C 32.866000,96.999000 31.808000,96.339000 30.940000,96.058000 L 32.503000,95.752000 L 33.508000,94.517000 C 33.350000,95.416000 33.436000,96.659000 33.610000,97.595000 z " />
			</g><g
   id="g43"
   transform="matrix(0.832413,0.000000,0.000000,0.832413,1.490501,18.64851)">
				<line
   id="line45"
   y2="102.56000"
   x2="59.433998"
   y1="102.47900"
   x1="40.242001"
   style="fill:none;stroke:#000000;stroke-width:0.50000000" />
				<path
   id="path47"
   d="M 61.332000,102.56900 C 60.436000,102.89700 59.324000,103.45900 58.634000,104.05500 L 59.182000,102.56000 L 58.647000,101.06000 C 59.332000,101.66300 60.438000,102.23300 61.332000,102.56900 z " />
			</g><g
   id="g49"
   transform="matrix(0.832413,0.000000,0.000000,0.832413,1.490501,16.98369)">
				<line
   id="line51"
   y2="47.328999"
   x2="81.884003"
   y1="66.519997"
   x1="81.805000"
   style="fill:none;stroke:#000000;stroke-width:0.50000000" />
				<path
   id="path53"
   d="M 81.895000,45.430000 C 82.222000,46.326000 82.786000,47.438000 83.380000,48.128000 L 81.885000,47.580000 L 80.385000,48.115000 C 80.986000,47.430000 81.559000,46.321000 81.895000,45.430000 z " />
			</g><polygon
   id="polygon55"
   points="114.26100,55.557000 92.729000,43.125000 92.729000,52.756000 0.59600000,52.756000 0.59600000,58.356000 92.729000,58.356000 92.729000,67.987000 114.26100,55.557000 "
   style="fill:#8f8f8f;fill-opacity:1.0000000;stroke:none"
   transform="matrix(0.615782,0.000000,0.000000,0.832413,13.76923,16.98369)" /><g
   id="g57"
   transform="matrix(0.832413,0.000000,0.000000,0.832413,1.490501,16.98369)">
				<line
   id="line59"
   y2="64.622002"
   x2="19.761000"
   y1="45.431000"
   x1="19.841000"
   style="fill:none;stroke:#000000;stroke-width:0.50000000" />
				<path
   id="path61"
   d="M 19.751000,66.521000 C 19.423000,65.625000 18.860000,64.512000 18.264000,63.823000 L 19.760000,64.371000 L 21.260000,63.835000 C 20.658000,64.520000 20.087000,65.627000 19.751000,66.521000 z " />
			</g><text
   id="text63"
   x="91.217537"
   y="67.396652"><tspan
     id="tspan65"
     style="font-size:8.4906130px;font-family:Liberation Sans-Bold'"
     y="67.396652"
     x="91.217537">E</tspan></text>
<text
   id="text67"
   x="68.751717"
   y="27.239265"><tspan
     id="tspan69"
     style="font-size:8.4906130px;font-family:Liberation Sans-Bold'"
     y="27.239265"
     x="68.751717">B</tspan></text>
<g
   id="g71"
   transform="matrix(0.832413,0.000000,0.000000,0.832413,93.63388,-81.99796)">
				<line
   id="line73"
   y2="217.07800"
   x2="73.991997"
   y1="199.43800"
   x1="81.553001"
   style="fill:none;stroke:#000000;stroke-width:0.50000000" />
				<path
   id="path75"
   d="M 73.246000,218.82400 C 73.902000,218.13300 74.860000,217.33600 75.684000,216.93900 L 74.093000,216.84700 L 72.930000,215.75700 C 73.210000,216.62700 73.293000,217.87100 73.246000,218.82400 z " />
			</g><g
   id="g77"
   transform="matrix(0.832413,0.000000,0.000000,0.832413,93.63388,-81.99796)">
				<line
   id="line79"
   y2="223.32800"
   x2="44.361000"
   y1="223.25000"
   x1="63.554001"
   style="fill:none;stroke:#000000;stroke-width:0.50000000" />
				<path
   id="path81"
   d="M 42.463000,223.33800 C 43.359000,223.66600 44.471000,224.22800 45.162000,224.82400 L 44.612000,223.32800 L 45.148000,221.83000 C 44.464000,222.43200 43.355000,223.00200 42.463000,223.33800 z " />
			</g><g
   id="g83"
   transform="matrix(0.832413,0.000000,0.000000,0.832413,93.63388,-81.99796)">
				<line
   id="line85"
   y2="149.26801"
   x2="79.519997"
   y1="131.62700"
   x1="71.959000"
   style="fill:none;stroke:#000000;stroke-width:0.50000000" />
				<path
   id="path87"
   d="M 80.267000,151.01400 C 79.609000,150.32300 78.651000,149.52600 77.829000,149.12900 L 79.419000,149.03700 L 80.582000,147.94900 C 80.303000,148.81700 80.219000,150.06100 80.267000,151.01400 z " />
			</g><g
   id="g89"
   transform="matrix(0.832413,0.000000,0.000000,0.832413,93.63388,-81.99796)">
				<line
   id="line91"
   y2="199.84000"
   x2="23.093000"
   y1="216.65401"
   x1="32.345001"
   style="fill:none;stroke:#000000;stroke-width:0.50000000" />
				<path
   id="path93"
   d="M 22.176000,198.17800 C 22.316000,199.12100 22.355000,200.36600 22.161000,201.25800 L 23.212000,200.06200 L 24.785000,199.81500 C 23.929000,199.50000 22.896000,198.80100 22.176000,198.17800 z " />
			</g><g
   id="g95"
   transform="matrix(0.832413,0.000000,0.000000,0.832413,93.63388,-81.99796)">
				<line
   id="line97"
   y2="130.50600"
   x2="32.540001"
   y1="146.96300"
   x1="22.664000"
   style="fill:none;stroke:#000000;stroke-width:0.50000000" />
				<path
   id="path99"
   d="M 33.516000,128.87700 C 32.771000,129.47400 31.714000,130.13500 30.846000,130.41600 L 32.409000,130.72300 L 33.414000,131.95700 C 33.254000,131.05900 33.340000,129.81500 33.516000,128.87700 z " />
			</g><g
   id="g101"
   transform="matrix(0.832413,0.000000,0.000000,0.832413,93.63388,-81.99796)">
				<line
   id="line103"
   y2="123.91600"
   x2="59.338001"
   y1="123.99600"
   x1="40.146000"
   style="fill:none;stroke:#000000;stroke-width:0.50000000" />
				<path
   id="path105"
   d="M 61.235000,123.90600 C 60.339000,123.57800 59.227000,123.01500 58.538000,122.42000 L 59.087000,123.91600 L 58.551000,125.41400 C 59.235000,124.81200 60.344000,124.24200 61.235000,123.90600 z " />
			</g><g
   id="g107"
   transform="matrix(0.832413,0.000000,0.000000,0.832413,93.63388,-80.33314)">
				<line
   id="line109"
   y2="179.14600"
   x2="81.789001"
   y1="159.95700"
   x1="81.709000"
   style="fill:none;stroke:#000000;stroke-width:0.50000000" />
				<path
   id="path111"
   d="M 81.799000,181.04500 C 82.127000,180.14900 82.689000,179.03700 83.284000,178.34800 L 81.789000,178.89500 L 80.289000,178.36100 C 80.892000,179.04500 81.463000,180.15200 81.799000,181.04500 z " />
			</g><polygon
   id="polygon113"
   points="114.16500,170.82600 92.634000,158.39500 92.634000,168.02500 0.50000000,168.02500 0.50000000,173.62500 92.634000,173.62500 92.634000,183.25600 114.16500,170.82600 "
   style="fill:#8f8f8f;fill-opacity:1.0000000;stroke:none"
   transform="matrix(0.615782,0.000000,0.000000,0.832413,107.0608,-80.33314)" /><g
   id="g115"
   transform="matrix(0.832413,0.000000,0.000000,0.832413,93.63388,-80.33314)">
				<line
   id="line117"
   y2="161.85400"
   x2="19.666000"
   y1="181.04300"
   x1="19.745001"
   style="fill:none;stroke:#000000;stroke-width:0.50000000" />
				<path
   id="path119"
   d="M 19.655000,159.95500 C 19.328000,160.85100 18.765000,161.96300 18.170000,162.65200 L 19.665000,162.10400 L 21.165000,162.64000 C 20.562000,161.95500 19.991000,160.84800 19.655000,159.95500 z " />
			</g><text
   id="text121"
   x="186.67293"
   y="65.753563"><tspan
     id="tspan123"
     style="font-size:8.4906130px;font-family:Liberation Sans-Bold'"
     y="65.753563"
     x="186.67293">B</tspan></text>
<text
   id="text125"
   x="157.48584"
   y="27.95528"><tspan
     id="tspan127"
     style="font-size:8.4906130px;font-family:Liberation Sans-Bold'"
     y="27.95528"
     x="157.48584">E</tspan></text>
<polygon
   id="polygon129"
   points="122.22300,60.024000 119.68000,53.362000 116.65300,60.024000 122.22300,60.024000 "
   style="fill:none;stroke:#000000"
   transform="matrix(0.832413,0.000000,0.000000,0.759611,-11.82811,21.38996)" /><polygon
   id="polygon131"
   points="122.72800,175.06400 120.18500,168.40300 117.15800,175.06400 122.72800,175.06400 "
   style="fill:none;stroke:#000000"
   transform="matrix(0.832413,0.000000,0.000000,0.755556,83.64492,-66.83989)" />
	</svg>