<?xml version="1.0" encoding="iso-8859-1"?>
<!-- Generator: Adobe Illustrator 11 Build 196, SVG Export Plug-In . SVG Version: 6.0.0 Build 78)  -->
<!DOCTYPE svg PUBLIC "-//W3C//DTD SVG 1.0//EN"    "http://www.w3.org/TR/2001/REC-SVG-20010904/DTD/svg10.dtd" [
	<!ENTITY ns_flows "http://ns.adobe.com/Flows/1.0/">
	<!ENTITY ns_svg "http://www.w3.org/2000/svg">
	<!ENTITY ns_xlink "http://www.w3.org/1999/xlink">
]>
<svg
	 width="147.384" height="116.748" viewBox="0 0 147.384 116.748"
	 style="overflow:visible;enable-background:new 0 0 147.384 116.748" xml:space="preserve">
	<metadata>
<?xpacket begin='﻿' id='W5M0MpCehiHzreSzNTczkc9d'?><x:xmpmeta xmlns:x='adobe:ns:meta/' x:xmptk='XMP toolkit 3.0-29, framework 1.6'>
<rdf:RDF xmlns:rdf='http://www.w3.org/1999/02/22-rdf-syntax-ns#' xmlns:iX='http://ns.adobe.com/iX/1.0/'>

 <rdf:Description rdf:about=''
  xmlns:pdf='http://ns.adobe.com/pdf/1.3/'>
 </rdf:Description>

 <rdf:Description rdf:about=''
  xmlns:tiff='http://ns.adobe.com/tiff/1.0/'>
 </rdf:Description>

 <rdf:Description rdf:about=''
  xmlns:xap='http://ns.adobe.com/xap/1.0/'
  xmlns:xapGImg='http://ns.adobe.com/xap/1.0/g/img/'>
  <xap:CreateDate>2006-07-17T15:02:40Z</xap:CreateDate>
  <xap:ModifyDate>2006-07-17T15:02:40Z</xap:ModifyDate>
  <xap:CreatorTool>Illustrator</xap:CreatorTool>
  <xap:Thumbnails>
   <rdf:Alt>
    <rdf:li rdf:parseType='Resource'>
     <xapGImg:format>JPEG</xapGImg:format>
     <xapGImg:width>256</xapGImg:width>
     <xapGImg:height>204</xapGImg:height>
     <xapGImg:image>/9j/4AAQSkZJRgABAgEASABIAAD/7QAsUGhvdG9zaG9wIDMuMAA4QklNA+0AAAAAABAASAAAAAEA&#xA;AQBIAAAAAQAB/+4ADkFkb2JlAGTAAAAAAf/bAIQABgQEBAUEBgUFBgkGBQYJCwgGBggLDAoKCwoK&#xA;DBAMDAwMDAwQDA4PEA8ODBMTFBQTExwbGxscHx8fHx8fHx8fHwEHBwcNDA0YEBAYGhURFRofHx8f&#xA;Hx8fHx8fHx8fHx8fHx8fHx8fHx8fHx8fHx8fHx8fHx8fHx8fHx8fHx8fHx8f/8AAEQgAzAEAAwER&#xA;AAIRAQMRAf/EAaIAAAAHAQEBAQEAAAAAAAAAAAQFAwIGAQAHCAkKCwEAAgIDAQEBAQEAAAAAAAAA&#xA;AQACAwQFBgcICQoLEAACAQMDAgQCBgcDBAIGAnMBAgMRBAAFIRIxQVEGE2EicYEUMpGhBxWxQiPB&#xA;UtHhMxZi8CRygvElQzRTkqKyY3PCNUQnk6OzNhdUZHTD0uIIJoMJChgZhJRFRqS0VtNVKBry4/PE&#xA;1OT0ZXWFlaW1xdXl9WZ2hpamtsbW5vY3R1dnd4eXp7fH1+f3OEhYaHiImKi4yNjo+Ck5SVlpeYmZ&#xA;qbnJ2en5KjpKWmp6ipqqusra6voRAAICAQIDBQUEBQYECAMDbQEAAhEDBCESMUEFURNhIgZxgZEy&#xA;obHwFMHR4SNCFVJicvEzJDRDghaSUyWiY7LCB3PSNeJEgxdUkwgJChgZJjZFGidkdFU38qOzwygp&#xA;0+PzhJSktMTU5PRldYWVpbXF1eX1RlZmdoaWprbG1ub2R1dnd4eXp7fH1+f3OEhYaHiImKi4yNjo&#xA;+DlJWWl5iZmpucnZ6fkqOkpaanqKmqq6ytrq+v/aAAwDAQACEQMRAD8A9U4q7FXYq7FXYqxzzF5v&#xA;Oh+Y/Lmlz2fKw8wTzWf6S9TiILpIjLBEY+B5euEcA8hQjvXFVHX/ADudM86eXPKtrY/XbvXRczTy&#xA;+r6YtLW0QM0zrwcvydgirtU98VZTirsVdirsVdirsVdirsVdirsVdirsVdirsVdirsVdirsVdirs&#xA;VdirsVdirsVdirsVdirsVdirsVYZ+buh3Wq+RL6TT1B1jSDHq+kNvUXenuLhAtO7hDH/ALLFWN/l&#xA;XqNt5287+YvzFt+T6YLe10PQmbb91Gi3V4aEd55lWv8Ak/cq9XxV2KuxV2KuxV2KuxV2KuxV2Kux&#xA;V2KuxV2KuxV2KuxV2KuxV2KuxV2KuxV2KuxV2KuxV2KuxV2KuxVB6Vo+k6RZrY6TZW+n2SFmS1tY&#xA;khiDOeTEJGFWrE1O2KozFXYq7FXYq7FXYq7FXYq7FXYq7FXYq7FXYq7FXYq7FXYq7FXYq7FXYq7F&#xA;XYq7FXYq7FXYq7FXYqwn80NU1HT/APCX1G5ktvrfmTT7W69NivqQS+pzjanVWoKjFU685ecNJ8pa&#xA;FJq+peo6h0gtbSBTJcXNzKeMNvBGN3kkbYD6TsMVYY3mH8+4bR9dn8uaO+npWU+WobidtW9ECtBc&#xA;UNs81P2AlD0BrirOPKvmnRvNGhW2taPMZbO5B2YcZI3U8XilQ7pIjAqynviqb4q7FXYq7FUh86ec&#xA;tJ8o6I2q6iJJS0iW9nZQAPcXVzKeMUECEjk7n8N+gxVh5138/YrI63P5f0VrVP3r+WYZ7h9T9HYl&#xA;Fuv95mmAr8PCh7HFWa+UPNmjebNAtdc0iQva3IIaNxxlhlU0khmSp4SRtsw/hiqc4q7FXYq7FUj8&#xA;5ecNJ8paFJq+peo6h0gtbSBTJcXNzKeMNvBGN3kkbYD6TsMVYW/mH8/IbV9dl8t6O2nJ+9PlqK4n&#xA;fVvRG5AuAPqzTU/YCb9K1xVnPlTzTo3mnQrbW9HlMtncg7OCkkciHjJFKh3R0YFWGKpvirsVdirs&#xA;VY95486af5R0T9I3MUl3czypa6bpsFDPd3cxpFBED3Y7k9gCcVYi15/zkHbWL65Pa6FclP3r+VLc&#xA;XH1gw9TEl8z+mbgDb+64E9MVZr5R826P5r0KDWdKdzBKWjlhlUxzQTRnjLBNGd0kjbZh/DFU6xV2&#xA;KuxV2KuxV2KuxV5/+b3/AExX/gV6Z/zNxVA6LH/jr8zLvX5qSeWvJcsmnaFGd0m1QqBe3f8AlegD&#xA;6MZ8eRG+KvTsVeYXKjyF+aEN1EDH5V8+TeheINorXXFX9zL4KL1FKNTq4BOKvT8VdirsVdirzLy8&#xA;h88fmTe+Z5v3nlzyjJLpXl1KnhNqFON/e06N6dfQjO4+0Rvir03FXmGoL/gL8z7bUoQY/K3nqYWm&#xA;qINorbWuP+jXFKfD9bUek/i4UnFXp+KuxV2KuxV5joyf46/M271+aknlryXLJp2hxndJ9VIAvbun&#xA;f0ARDGd9+RG+KvTsVeYXSf4C/NCC7iX0/KvnyYW96g2jttcVf3MwHQfXUHBqDd1BOKvT8VdirsVd&#xA;irzLyug87/mLf+cJ6SaD5YebR/K6EVSS6FF1C+Hj8Q9CNhtQNir03FXmOpRjyJ+Z9rq0I9Lyx54m&#xA;Wy1aMbRwazxP1W5C9F+tKvpPTq/EnFXp2KuxVjvmr8w/JXlKS2j8yavBpb3YZrZZyQXCEBiKA9OQ&#xA;xVIf+V/fk3/1Nlj/AME3/NOKu/5X9+Tf/U2WP/BN/wA04q7/AJX9+Tf/AFNlj/wTf804q7/lf35N&#xA;/wDU2WP/AATf804q8z/Pz85/JWpeVtJXyj5is7rXLXWLW5tuLGkRSOULM5YUCRuyknFWZeTfzV/I&#xA;zyr5X03y/Y+bLJoNPhEZlLNylkPxSyt8P2pJGZ29ziqdf8r+/Jv/AKmyx/4Jv+acVY/59/NL8lPN&#xA;nlHUtBk832MMl3EfqlzyesFzGQ9vMCFrWOVVbbFV/kf/AJyO/LfUPKemXOv+YLSw1z0RHqVtISCL&#xA;iP4JGXivHi7LzWnY4qnv/K/vyb/6myx/4Jv+acVd/wAr+/Jv/qbLH/gm/wCacVY1+Y3/ADkT5Bt/&#xA;J9+nlbzHaXPmC7VbTTirMBDJcMI/rDsVoqwqxkqfDFUd5R/Nf8ivK3lnTfL+nea7H6pp0Cwo5Zgz&#xA;sN3kb4ftSOS7e5xVN/8Alf35N/8AU2WP/BN/zTiqReefzT/JDzZ5T1Py/c+brGMX0JWGcM/KGdTz&#xA;gmWi15Ryqrj5Yqt8hf8AORv5d33lHTJvMfmG0steSIQ6nC5YVnhJjeRaLx4SlfUWnY4qn/8Ayv78&#xA;m/8AqbLH/gm/5pxV3/K/vyb/AOpssf8Agm/5pxVjn5hf85F/l9aeUNQPlnzFaXfmC4QW2mIjNRJp&#xA;yIxM5K0VIeXqMT4YqifJn5q/kb5V8rab5fsvNliYdPhWMyln5SSH4pZW+H7UkjM59ziqdf8AK/vy&#xA;b/6myx/4Jv8AmnFUg8+/ml+SfmzylqWgy+b7GJ7uL/RLkM4MNzGQ9vMpC1BjlVW2xVd5G/5yO/Lj&#xA;UPKWmXHmHzBaWGu+iI9TtpCRS4i/dyOvEFeEjLzWh+yRiqe/8r+/Jv8A6myx/wCCb/mnFXf8r+/J&#xA;v/qbLH/gm/5pxVjH5k/85C+Qo/J99B5W8y2k2v3/ABsrF1ZgsDXDCNrl2p8KwoWeviBiqZeVfza/&#xA;Inyz5c07QNN81WK2emwJBESzVbiPidvh+07VZvc4qmv/ACv78m/+pssf+Cb/AJpxVDar5s/K/wDN&#xA;HRtR8l6V5gtr2+1C2drdYGb1IpIqPFOuw3ikVX+jFWQ+QNa8xar5FsbvVrF7bzHFE9vfWt0Ht1e8&#xA;tmaF35cGIildOasqt8J74qxr/nH/AFjzNqvk27uNdf15E1S/jguHupbuUhLmRWjb1Y4+KRU4x0Y1&#xA;XsvTFXpuKuxV2KuxV2Kvnz8wtRufM/5r+XtQt3r5e8peYtO0aJhus2qXL+vdspH/ACzxxRxmv7RO&#xA;KvoPFXYq7FXmjf8AOmfm7zPweX/P6qleiQ63aRmg7Kv1u3X5s6e+KvS8VdirzTRj/jH82r3XAfU0&#xA;HyTHJpOlt+xJqtwAb6ZadfRi4w79y1MVel4q7FXYq80uf+dN/N2O7P7vQPPypbTnokWtWiH0WPYf&#xA;WrcFNuroK4q9LxV2KvNNNJ84fm9daoPj0HyIkmnWTfsyazdKPrbrTr9XgIiIPRmNMVel4q7FXYq8&#xA;0b/nTfze9Q/u/L/n9QhPRIdbtIzx/wAlfrdsvzZ098Vel4q7FXmujn/GH5tXut/b0LyQkmlaYf2J&#xA;NWuFBvpl/wCMEXGDfuWpir0rFXYq7FXYqwL8nvL2u+XNC1LRdXsnt3h1S+uLa75wvDcw3Vw8sbx+&#xA;nI8i/Cw5CRFPzxVnuKuxV2KuxVhv5m+c7ry/pMFhoyLdebddkNj5esSftTsPink60ht1PqSN07d8&#xA;VYj5j8oWflHyp+XWg2zmY23mjTGurpq857mQyvPO5NTWSRi2526dsVewYq7FXYqxv8wfKCebPKt1&#xA;pKzfVb4FLnSr4fatr23YSW0ymhI4yKK06rUd8VQ/5a+dG80+XhJexfVPMOmyNY+YNNOzW97D8Mgp&#xA;/I/24yNipxVDfmf5yu9D0uDStDC3HnHzA5svL1n1PqsP3lzIO0NulZHY7bAd8VTfyP5RsPKPlXT/&#xA;AC/ZMZI7KOktw/25pnJeaZ9z8UkjMx+eKp9irsVdirHvP3lGDzb5WvNGeU21xIFm0+9X7dvdwMJL&#xA;edT1+CRQTTqKjviqB/LPzpN5m0Fk1KMWvmbSJDYeYtP2DRXkWzMAP91zD442GxB9jiqn+Z/nS68v&#xA;aPDZaNGLvzZrkn1Hy9Y9eU7j4p3G9IrdT6kjdO3fFUz8h+ULTyj5VsNBt3M7WyFrq7epe4uZWMk8&#xA;7k1JMkjFt/lirIMVdirsVY3+YXk9PNvlW70hZja31UudLvl2a2vbdhJbTqQCRxkUVp+zUYqh/wAt&#xA;vOj+afL3qXsQtPMOmyNYeYNOP2oL2H4X2/kk+3GehU4qh/zP853WhaVBpeiBbjzhr7mx8vWdQT6r&#xA;D47mQb0ht0rI7UpsB3xVN/I/lOz8p+VrDQbV2mFoh9e5f7c88hLzTOf5pJGZjiqe4q7FXYq7FXYq&#xA;7FXYq7FVsis0bKjcGIIVwASpI2NDttirEfKf5cWmi6xceYdU1K58xeZ7mP0G1e/EYaKAGvo20MSp&#xA;FBGTuwQbnriqK88eVrzzB/h/6tNHF+iNZs9Vn9Tl8UVtz5IvEH4jz2rtirJsVdirsVdirCvNP5YW&#xA;mra4PMei6reeWfMpRYrjUtOKFbmJNkS7t5VeKYJ+yWWo8aADFVfyh+XVloWp3Wu3+oXOv+Z71BDc&#xA;a1f+n6iwqaiC3jiVI4Iq/EVQbnc9sVZdirsVdirsVdirC/Nn5ZWes6zH5i0nU7vy35mjQQvqunFP&#xA;38KmqxXUEivFOq/s8hUfLbFVTyn+XFpousXHmHVNSufMXme5j9BtXvxGGigBr6NtDEqRQRk7sEG5&#xA;64qzDFXYq7FXYq7FWFeafywtNV1seY9F1W88s+ZSqxXGp6eUIuYo9kS7t5VeGYJ+yWWo8aCmKq/l&#xA;H8urPQtUutev7+51/wAz3yCK41q+EYkWFTUQW8cSpHBFX4iqDc7ntRVl2KuxV2KuxV2KuxV2KuxV&#xA;2KuxV2KuxV2KuxV2KuxV2KuxV2KuxV2KuxV2KuxV2KuxV2KuxV2KuxV2KuxV2KuxV2KuxV2KuxV2&#xA;KuxV2KuxV2KuxV2KuxV2KuxV2KuxV2KuxV2KuxV2KuxV2KuxV2KuxV2KuxV2KuxV2KuxV2KuxV2K&#xA;uxV2KuxV2KuxV2KuxVi/n/zt/hGx0q6+pfXf0nqtnpXD1fS9P64/D1a8JOXDrx2r4jFWUYq7FXYq&#xA;7FXYq7FXYq7FXYq7FXYq7FXYq7FXYq7FXYq7FXYq7FXYq7FXYq7FXYq7FXYq7FXYq7FXYq8v/P7/&#xA;AI4flb/wKtH/AOT5xV6hirsVdirsVdirsVdirsVdirsVdirsVdirsVdirsVdirsVdirsVdirsVdi&#xA;rsVdirsVdirsVdirsVY75181SeW7bSZkthcnUtXsNKZWYpwW+nWEyCgapTlWnfFU41DStM1FIo9Q&#xA;s4LyOCVLiBLiNJQk0RrHKgcHi6H7LDcYqisVdirsVdirsVdirsVdirsVdirsVdirsVdirsVdirsV&#xA;dirsVdirsVdirsVdirsVdirsVdirsVdirz/85P8AjneVv/Aq0L/qOTFXoGKuxVjH5iecW8q+XDeW&#xA;tv8AXtYvJo7DRNOrT6xfXJ4wxk1HwjdnNfsg4qwyDUPzM8i3+iX3nPXodf0XW7lLDV+FrHbrpt3c&#xA;ki2eB4wha3Z+MT+ruDRu5GKvWsVdirsVdirsVYr+Y/nGbyt5d+sWNuL7XNQnj0/QtPJoJ764JESt&#xA;0+BaF3NR8KnfFWIfpD8yPIU+hal5v1+PX9E1SeOx8wEW0duunXN0aW88EkYQm39UrC/qdNm6k4q9&#xA;ZxV2KuxV2KuxVi/5i+cm8qeXGvba3+vaxeTR2GiadWhuL65PGGPqPhG7Pv8AZBxVhkGo/mb5FvtE&#xA;v/Omvw69omtXC2Gs+nbR26aZd3JItpIJI1Rmty/GJvV3Gzd6Yq9bxV2KuxV2KuxViv5j+cZvK3l3&#xA;6xY24vtc1CePT9C08mgnvrgkRK3T4FoXc1Hwqd8VR3kzTvM2n+X7eHzPqi6vrjFpby6jjWGIM5r6&#xA;USKF+CMfCpO56nFU8xV2KuxV2KuxV2KvP/zk/wCOd5W/8CrQv+o5MVegYq7FXnN+B5h/O/T7M1ex&#xA;8maY+oTAboNQ1RjBbhx/MlvFKy+HLFWV+dvLFr5p8pat5euaCPUrZ4Vc/sSUrFIPeOQK49xiqW/l&#xA;T5lufMf5f6Nqd6f9yfo/VtUU/aF5asYLjkOxMkbGnvirLcVdirsVdirzm4H+IPzxtoTR7HyTpbXL&#xA;UrtqOrkxxg9vgtYXI/18VZd5v8t2fmbyvqnl+8/3n1O2kty9KlGdfgkH+Uj0Ye4xVJ/yl8x3fmD8&#xA;v9JvNQqNWt0aw1ZW+2Lyyc28/L3Z4y304qzDFXYq7FXYq85v6eYPzv0+yP7yw8m6Y+ozKN1Goamx&#xA;gtw4PdLeKVl8OWKsr86+WLbzT5S1by/c0EepW0kKuf2JCKxSD3jkCsPliqW/lV5luvMfkDR9Svf+&#xA;OmITa6opPxC8tGNvccvCskZP04qy3FXYq7FXYq85ul/xB+eFrAfjsPJWltdOOw1HViYo+XYlLWFy&#xA;PDlir0bFXYq7FXYq7FXYq7FXn/5yf8c7yt/4FWhf9RyYq9AxV2KvOvydP6TPmvze3xHzDrdyLOb+&#xA;ax06ljbf8mHP04q9FxV53+XgGkeffPnlnpC17Br9kp7x6pF+/wCI8Fubd/8AgsVeiYq7FXYq7FXn&#xA;X5Mf7krTzJ5vb4z5m1u7mtZj1NlZMLG1HyCW5I+eKvRcVedeQgdH/Mfz35b+xbXU9t5jsFPUjUYz&#xA;FdEewuLUn/ZYq9FxV2KuxV2KvOvydP6TPmvze3xHzDrdyLOb+ax06ljbf8mHP04q9FxV51+Xn+4j&#xA;z/588sU427XkGv2APdNUipccfYXNu5/2WKvRcVdirsVdirzr8mP9yVr5k84P8beZtauprWU9TZWR&#xA;Fjaj5BLckfPFXouKuxV2KuxV2KuxV2KvP/zk/wCOd5W/8CrQv+o5MVegYqx78wfMI8ueRte1wNxk&#xA;0+xuJ4e1ZVjPpD6XoMVWflv5dPlzyD5f0Rk4TWNjBHcr/wAXlA0x+mQscVZJirzvzIp0n86PKerj&#xA;aHX7C+0G7Y7APDS/tfpPCYD5++KvRMVdirsVY1+ZXmE+Xfy/8w60rcZrKwne3PT9+UKwj6ZGUYqq&#xA;+QPLw8ueR9B0LjxfTrGCCYDvKsY9Vv8AZPU4qyDFXnXmsHR/zh8m62o4wa3bX3l69kPTlxF9aD5l&#xA;4JFHz+eKvRcVdirsVY/+YHmEeXPI+va6GCyadY3E8JPeVYz6S/7KTiMVUvy28vHy55A8v6Iy8ZrG&#xA;wgjuR4zlA0x+mRmOKslxV515kB0j86PKWrrtDr9hfaDdudlDw0v7X6SUmA+fvir0XFXYq7FWN/mT&#xA;5iPlvyD5g1xG4TWNhPJbHp+/KFYR9MpUYqqfl95eHlzyNoOh8eL6fYW8EwG1ZVjHqt/spORxVkGK&#xA;uxV2KuxV2KuxV2KvP/zk/wCOd5W/8CrQv+o5MVegYq87/Oqt9pGg+WB8Q8ya7YWdwg6m1hk+uXB+&#xA;Xp21D88VeiYq7FXnn541tPKVj5jX7XljV9O1Zv8AjFHcLDP9HoTvX2xV6HirsVdirzz85R+kLTyx&#xA;5XHxDzDr1lDdRd2tLNjf3HXtxtQPpxV6HirsVeefnoptvJEXmBFLS+WNT0/WUA/ltrlFm/5ISSYq&#xA;9CBDAEGoO4I6EYq3irsVed/nVW+0jQfLA+IeZNdsLO4QdTawyfXLg/L07ah+eKvRMVdirzz88v8A&#xA;Q/KNl5jWvPyvq+nasadfSjuFhuB8vQnevtir0PFXYq7FXnn5y0v7Py15XHxDzFr1jBcxDqbS0Y31&#xA;wflxtgPpxV6HirsVSzy95l0XzFYNqGjXP1q0SaW2aXhJH+9t3Mcq8ZFRvhdSK0p4YqgPNV958tpL&#xA;YeV9KsNSjYN9aa+vJLQoQRwCBIZ+Vd69MVSH9Nfnj/1K+h/9xaf/ALI8Vd+mvzx/6lfQ/wDuLT/9&#xA;keKuOtfniAT/AIX0M+w1af8A7I8VSjyl+YX5u+afLtnr+l+V9HFjfKzRLNqk6SKUdo3V1Fo1GV0I&#xA;O+KpF+aOq/m5JY+XRqXl/SLdF8x6Q1sYdSmlL3C3aGGNwbVOKM+zNvQdjirNP01+eP8A1K+h/wDc&#xA;Wn/7I8VYTq2q/m3qv5taFbP5f0kaj5b0661RLZdSmMBF+RZI7y/VuQdQkgVQm4J36Yqzb9Nfnj/1&#xA;K+h/9xaf/sjxV36a/PH/AKlfQ/8AuLT/APZHiqUeb4fzo8xeVdX0K58saIsOp2k1qzpqs7MvqoVD&#xA;qDaAFlJqN+uKob8v/Of5x615K0XUrHy9o9zbTWkarPNqc8UrNEPTcyRi1fg3NDVeRocVZB+mvzx/&#xA;6lfQ/wDuLT/9keKu/TX54/8AUr6H/wBxaf8A7I8VYRqOqfm1q35uaRE3l/SDqPljTLi/W1XUpjB/&#xA;uSb6qrvL9V5CQLA4CcehrXFWb/pr88f+pX0P/uLT/wDZHirv01+eP/Ur6H/3Fp/+yPFUs80J+dGv&#xA;+W9V0O58saGsGqWk9nIw1WclRPGU5KDaDdeVRiqXflv5y/OPV/ImiX1j5e0i4tzapAJ59Snhld7b&#xA;9xIZIxavwbnG1V5GnjirJP01+eP/AFK+h/8AcWn/AOyPFXfpr88f+pX0P/uLT/8AZHirCNX1X829&#xA;V/NrQbV/L+kjUPLen3WqparqMxgYXxFkjvKbWodQknFQu4JNcVZv+mvzx/6lfQ/+4tP/ANkeKu/T&#xA;X54/9Svof/cWn/7I8VSnzbF+dPmLyvq2g3HlnRFh1SzntGddVmLL60ZQMoNooqpNRU4qhfy+86fn&#xA;HrXknRdSsfL2j3NtNaRqs82pzxSu0Q9Jy8f1V+Dc0NV5GnjirIP01+eP/Ur6H/3Fp/8AsjxV36a/&#xA;PH/qV9D/AO4tP/2R4qwnUtT/ADZ1b829Hify/pH6S8sabcaglsupTGCmpN9VV3l+q1DhYJAqcehJ&#xA;rir0ry5qX5m3GprH5h0TTLDTeDFrizv5bmUOPsj03t4RQ9zyxVlE8KTwSQOWCSqyMY3aNwGFDxdC&#xA;rqfAqQR2xV5Z/wA436db2nka8kiedml1fUUYTXE0ygRXcirxWV3VSR9oqAWO7VOKvV8VdirsVdir&#xA;zz8oT+j5/OPldvh/QmvXUlrF2W01ILfw09qzuPoxVf8AnJ/xzvK3/gVaF/1HJir0DFXnf5fV1L8w&#xA;/wAwtf8AtQpe2mh2pPUDTbYPMB7Ga6b7sVeiYq7FXYq87/JsHT4vNXldvh/QGv3qWsPTjaXxF/b/&#xA;AIXLD6MVeiYq7FXnf5cU1Lzz+YXmLqjalBotuTvRNKt1ElP+e88mKvRMVdirsVed/lCRp915y8rs&#xA;OB0XXrmW2hHRLTUwt9BT2rM4+jFXomKuxV55+X5bUvzD/MHX68oI7yz0O0J6gadbCScD29e7b7sV&#xA;eh4q7FXYq88/J2unx+avK7fD+gdfvFtov5bS/K38H3/WW+7FXoeKuxV53+XPHUvPX5heYgDwbUrf&#xA;RLcnsmlWyiTj7Ge4k/zGKvRMVdirH/KHkvT/ACpDf22nXVzJY3t3Nex2c5iaO3e4kaSVYSkaScGZ&#xA;q0kZ6djirIMVdirsVdirzuCmkfnvdRbJb+a9CjnBP7d3pM5jYD3+r3S/8Diqp+cn/HO8rf8AgVaF&#xA;/wBRyYqzm/vbexsbi+uW4W1rE807+CRqWY/QBirCfyOs7iP8ttO1G7Tjfa/Jca3dk7kvqU73Kn/k&#xA;XIoxVnuKuxV2KvOrE/oj89tTt/s2/mnQ7e9UnvdaXM1u4X39G4Qn5Yq9FxVC6nqFtpum3eo3Tcba&#xA;yhkuJ28I4kLsfuXFWHfkfp9xa/lnpF1drxv9ZEus3p7tLqUrXVT7hZVX6MVZ3irsVdirzyEfoj89&#xA;rlPsW3mrQkmBP7d5pM5jYD3+r3a/dir0PFVC/vbexsbi+uW4W1rE807+CRqWY/QBirCPyNs7iP8A&#xA;LfT9SvE43/mCS41y8P8AM+pTvcqT/wA85EH0Yqz7FXYq7FXndkDpH57alB9m281aHBeAno13pUxg&#xA;cL7+hcxn6MVeiYqhdT1C203TbvUbpuNtZQyXE7eEcSF2P3LirDvyPsLm2/LPSLu8ULqGs+trN6e5&#xA;l1KZ7rf3CSqv0YqzvFXYq7FXYq7FXYq7FXnX5tU0zU/JXm0bDRtaitbuTslnqyGymZvYSSRN9GKq&#xA;v5yf8c7yt/4FWhf9RyYqv/PC9mi/LnUNMtW43/mGSDQrId2k1KZbdh9Ebu30Yqzawsrexsbextl4&#xA;W1rEkMCeCRqFUfQBiqvirsVdirzr81gdM13yN5sUbaXrK6feP+ytprEZtHZj4Cb0Tir0XFWAfnjd&#xA;Sj8vbrR7Z+N95muLXQbT3bUZlhk+6AyN9GKs6tbWC0tYbW3QRwQIsUSDoqIAqgfIDFVXFXYq7FXn&#xA;X5t/7i9S8l+bh8K6LrUVreyn7KWWrKbKZm9g8kR+jFXouKsC/PG9uYvy31LTbNgNR8wPBodiv80m&#xA;pSrbED5Ru7fRirNbCyt7CxtrG2Xhb2sSQQr4JGoVR9wxVEYq7FXYq86/NYfozXPI/m0bLpWsLYXj&#xA;nZVtNYjNpIzHwWb0Tir0XFWAfnnd3C/l5d6PaPx1DzLPbaDZjxbUZlhk+6AyH6MVZ1a2sFpaw2tu&#xA;gjggRYokHRUQBVA+QGKquKuxV2KuxV2KuxV2Ksc/MXyz/ijyLrmgqP31/ZypamtONwo5wNX/ACZV&#xA;U4q8/wBe8zjzR+Wv5d68aia98w+XzdKRQrcx3yR3CU/yZkZcVTzzMy+YPzg8saAp52nlq3n8xakn&#xA;VPrEgNpYK3g45zSAe2KvR8VdirsVdirGPzN8sv5n8ga7okX+9V3aObMjalzFSW3P0TIpxVX8geZ4&#xA;/NPkrRfMCEFtQtI5ZwvRZ6cZ0/2Eqsp+WKsZ8wN/iD85fLujJR7LyraT67qA6r9auQbSyQ02Dqpm&#xA;kFcVejYq7FXYq7FWOfmL5ZHmjyNrmgj+9v7SRLY1pxuFHOBv9jKqnFWvy48z/wCKPIuia61fXvbV&#xA;DdqRQrcx/u7hKf5MyMuKsd8zn9P/AJveV9AUl7Py3BP5i1Na/B67g2lgrU/aBeWQD2xV6NirsVdi&#xA;rsVYz+ZXll/M/kLXNDi/3pvLR/qZrSlzH+9t2r/kzIpxVW8geZk80eStF18Ec9QtI5bhV6JOBxnj&#xA;/wBhKrKflirGfMBHmD85PLuirR7Lyraza9qIIqv1q5BtLFD4OoM0g+QOKvRsVdirsVdirsVdirsV&#xA;dirsVfOP5nW2veQdZtLSDSrnU/JmreaNN17T3sl9Wa1vheJJdWKwjci4Yc4aUHI8R12Veq/lZ5d1&#xA;q0ttW8y+Y4fQ8y+abv67eW3IObW2jX07OzLDY+hF1/ymbFWc4q7FXYq7FXYq8iTUNa/K7zHqlkuh&#xA;ajrfkvXLiXUtJk0mA3U1lezkvcWbwrQrFLJV426KWp4kKsk/Kvy3rFjZap5h8xQiHzN5pu2v9Qg5&#xA;BzbQqPTs7LmNmFvCAP8AWLYqznFXYq7FXYq7FXkRvda/K7zTqkEeh6hrXkjzBPJqVg2lQNdT2OoS&#xA;is9s0KDaKeT4ozsFY08SFWSflb5d1m1h1bzN5ig+reZPNN19cu7XkHNraxr6dnZ8xs3pRCrf5TNi&#xA;rOcVdirsVdirsVeRrf63+V3mPU7NdC1DW/Jeu3Euo6U+kwm6msr2Ycri0eFacYpZavG2ygtTxIVZ&#xA;J+VnlzWLGz1TzF5ihEHmbzTdm/1C35BzbQqvp2lnzH2vQhAB/wAotirOMVdirsVdirsVdirsVdir&#xA;sVYf+Zf6A+paB+mvrfp/4g0n6l9T9Pl9c+tL9W9X1f8AdPqU9Tj8XHpvirMMVdirsVdirsVdirsV&#xA;dirsVdirsVdirsVdirsVdirsVdirsVdirsVdirsVdirsVdir/9k=</xapGImg:image>
    </rdf:li>
   </rdf:Alt>
  </xap:Thumbnails>
 </rdf:Description>

 <rdf:Description rdf:about=''
  xmlns:dc='http://purl.org/dc/elements/1.1/'>
  <dc:format>image/svg+xml</dc:format>
 </rdf:Description>

</rdf:RDF>
</x:xmpmeta>
                                                                                                                                                                                                                                                                                                                                                                                                                                                                                                                                                                                                                                                                                                                                                                                                                                                                                                                                                                                                                                                                                                                                                                                                                                                                                                                                                                                                                                                                                                                                                                                                                                                                                                                                                                                                                                                                                                                                                                                                                                                                                                                                <?xpacket end='w'?>
			</metadata>
		<g id="Layer_1">
			<g>
				<path style="fill:none;stroke:#000000;stroke-width:0.9;" d="M18.373,38.477c0.623-0.042,1.29-0.211,1.779-0.676
					s1.245-1.183,1.779-1.985c0.534-0.803,1.022-1.479,1.779-3c0.756-1.521,0.578-0.845,2.668-5.576"/>
				<path style="fill:none;stroke:#000000;stroke-width:0.9;" d="M26.409,27.242c2.712-5.872,3.646-7.351,4.491-8.66
					c0.845-1.31,1.378-1.605,1.734-1.901c0.355-0.295,1.201-0.718,1.823-0.676c0.623,0.042,1.29,0.211,1.779,0.676
					s1.245,1.183,1.779,1.986s1.023,1.479,1.779,3c0.756,1.521,0.578,0.845,2.668,5.576"/>
				<path style="fill:none;stroke:#000000;stroke-width:0.9;" d="M42.494,27.239c2.712,5.872,3.646,7.351,4.491,8.66
					c0.845,1.31,1.378,1.605,1.734,1.901c0.355,0.296,1.201,0.718,1.823,0.676s1.29-0.211,1.779-0.676s1.245-1.183,1.779-1.985
					c0.534-0.803,1.023-1.479,1.779-3c0.756-1.521,0.578-0.845,2.668-5.576"/>
				<path style="fill:none;stroke:#000000;stroke-width:0.9;" d="M58.579,27.242c2.712-5.872,3.646-7.351,4.491-8.66
					c0.845-1.31,1.378-1.605,1.734-1.901c0.356-0.295,1.201-0.718,1.823-0.676"/>
				<path style="fill:none;stroke:#000000;stroke-width:0.9;" d="M66.778,16.004c0.623,0.042,1.29,0.211,1.779,0.676
					s1.245,1.183,1.779,1.986s1.023,1.479,1.779,3c0.756,1.521,0.578,0.845,2.668,5.576"/>
				<path style="fill:none;stroke:#000000;stroke-width:0.9;" d="M74.814,27.239c2.712,5.872,3.646,7.351,4.492,8.66
					c0.845,1.31,1.378,1.605,1.734,1.901c0.356,0.296,1.201,0.718,1.824,0.676c0.623-0.042,1.29-0.211,1.778-0.676
					c0.489-0.465,1.245-1.183,1.779-1.985c0.534-0.803,1.023-1.479,1.779-3c0.756-1.521,0.578-0.845,2.668-5.576"/>
				<path style="fill:none;stroke:#000000;stroke-width:0.9;" d="M90.899,27.242c2.712-5.872,3.646-7.351,4.491-8.66
					c0.845-1.31,1.379-1.605,1.734-1.901c0.356-0.295,1.201-0.718,1.823-0.676c0.623,0.042,1.29,0.211,1.779,0.676
					c0.489,0.465,1.245,1.183,1.779,1.986c0.533,0.803,1.022,1.479,1.778,3c0.756,1.521,0.578,0.845,2.668,5.576"/>
				<path style="fill:none;stroke:#000000;stroke-width:0.9;" d="M106.984,27.239c2.712,5.872,3.646,7.351,4.492,8.66
					c0.845,1.31,1.378,1.605,1.734,1.901c0.355,0.296,1.2,0.718,1.823,0.676c0.623-0.042,1.29-0.211,1.779-0.676
					c0.489-0.465,1.245-1.183,1.779-1.985c0.534-0.803,1.023-1.479,1.779-3c0.756-1.521,0.578-0.845,2.668-5.576"/>
				<g>
					<path style="fill:none;stroke:#000000;stroke-width:0.9;" d="M18.673,90.098c2.712,12.613,3.646,15.79,4.491,18.603
						s1.378,3.448,1.734,4.083c0.355,0.635,1.201,1.543,1.823,1.452s1.29-0.454,1.779-1.452s1.245-2.541,1.779-4.265
						c0.534-1.725,1.023-3.177,1.779-6.443s0.578-1.814,2.668-11.978"/>
					<path style="fill:none;stroke:#000000;stroke-width:0.9;" d="M34.757,90.104c2.713-12.614,3.646-15.79,4.492-18.603
						c0.845-2.813,1.378-3.448,1.734-4.083c0.355-0.635,1.201-1.543,1.823-1.452s1.29,0.454,1.779,1.452
						c0.489,0.998,1.245,2.541,1.779,4.265s1.023,3.176,1.779,6.443c0.756,3.267,0.578,1.815,2.668,11.979"/>
					<path style="fill:none;stroke:#000000;stroke-width:0.9;" d="M50.843,90.098c2.712,12.613,3.646,15.79,4.491,18.603
						s1.378,3.448,1.734,4.083c0.355,0.635,1.201,1.543,1.823,1.452s1.29-0.454,1.779-1.452s1.245-2.541,1.779-4.265
						c0.534-1.725,1.022-3.177,1.779-6.443c0.756-3.267,0.578-1.814,2.668-11.978"/>
					<path style="fill:none;stroke:#000000;stroke-width:0.9;" d="M66.927,90.104c2.713-12.614,3.646-15.79,4.492-18.603
						c0.845-2.813,1.378-3.448,1.734-4.083c0.355-0.635,1.201-1.543,1.823-1.452"/>
					<path style="fill:none;stroke:#000000;stroke-width:0.9;" d="M75.126,65.965c0.623,0.091,1.29,0.454,1.779,1.452
						c0.489,0.998,1.245,2.541,1.779,4.265s1.023,3.176,1.779,6.443c0.756,3.267,0.578,1.815,2.668,11.979"/>
					<path style="fill:none;stroke:#000000;stroke-width:0.9;" d="M83.163,90.098c2.712,12.613,3.646,15.79,4.492,18.603
						c0.845,2.813,1.378,3.448,1.734,4.083c0.356,0.635,1.201,1.543,1.823,1.452s1.29-0.454,1.779-1.452s1.245-2.541,1.779-4.265
						c0.534-1.725,1.023-3.177,1.779-6.443c0.756-3.267,0.578-1.814,2.668-11.978"/>
					<path style="fill:none;stroke:#000000;stroke-width:0.9;" d="M99.248,90.104c2.712-12.614,3.646-15.79,4.491-18.603
						c0.845-2.813,1.379-3.448,1.734-4.083c0.356-0.635,1.201-1.543,1.823-1.452c0.623,0.091,1.29,0.454,1.779,1.452
						c0.489,0.998,1.245,2.541,1.779,4.265s1.023,3.176,1.779,6.443c0.756,3.267,0.578,1.815,2.668,11.979"/>
					<path style="fill:none;stroke:#000000;stroke-width:0.9;" d="M115.333,90.098c2.712,12.613,3.646,15.79,4.491,18.603
						c0.845,2.813,1.379,3.448,1.734,4.083c0.356,0.635,1.201,1.543,1.823,1.452s1.29-0.454,1.779-1.452
						c0.489-0.998,1.245-2.541,1.779-4.265c0.534-1.725,1.023-3.177,1.779-6.443c0.756-3.267,0.578-1.814,2.668-11.978"/>
					<path style="fill:none;stroke:#000000;stroke-width:0.9;" d="M131.417,90.104c2.712-12.614,3.646-15.79,4.491-18.603
						c0.845-2.813,1.379-3.448,1.734-4.083c0.356-0.635,1.201-1.543,1.824-1.452"/>
				</g>
				<line style="fill:none;stroke:#000000;stroke-width:0.9;" x1="2.245" y1="27.243" x2="136.687" y2="27.243"/>
				<line style="fill:none;stroke:#000000;stroke-width:0.9;" x1="2.245" y1="90.095" x2="136.687" y2="90.095"/>
				<g>
					<text transform="matrix(1 0 0 1 142.3608 30.9521)"><tspan x="0" y="0" style="font-family:'Helvetica'; font-size:10;">t</tspan></text>
				</g>
				<g>
					<text transform="matrix(1 0 0 1 142.3608 93.8076)"><tspan x="0" y="0" style="font-family:'Helvetica'; font-size:10;">t</tspan></text>
				</g>
				<g>
					<text transform="matrix(1 0 0 1 24.9429 10)"><tspan x="0" y="0" style="font-family:'Helvetica'; font-size:10;">V</tspan></text>
				</g>
				<g>
					<text transform="matrix(1 0 0 1 29.7441 60.6338)"><tspan x="0" y="0" style="font-family:'Helvetica'; font-size:10;">I</tspan></text>
				</g>
				<line style="fill:none;stroke:#000000;stroke-width:0.9;" x1="26.471" y1="14.583" x2="26.471" y2="39.464"/>
				<line style="fill:none;stroke:#000000;stroke-width:0.9;" x1="26.689" y1="62.137" x2="26.689" y2="116.748"/>
				<path style="fill:none;stroke:#000000;stroke-width:0.9;" d="M123.102,27.015c2.712-5.872,3.646-7.351,4.491-8.661
					c0.845-1.31,1.379-1.605,1.734-1.901c0.356-0.296,1.201-0.718,1.823-0.676c0.623,0.042,1.29,0.211,1.779,0.676
					c0.489,0.465,1.245,1.183,1.779,1.986c0.534,0.802,1.023,1.479,1.779,3c0.756,1.521,0.578,0.845,2.668,5.576"/>
			</g>
			<rect y="57.27" style="fill:none;" width="147.384" height="2.808"/> 
		</g>
	</svg>
