<?xml version="1.0" encoding="UTF-8" standalone="no"?>
<!-- Generator: Adobe Illustrator 11 Build 196, SVG Export Plug-In . SVG Version: 6.0.0 Build 78)  -->
<svg
   xmlns:dc="http://purl.org/dc/elements/1.1/"
   xmlns:cc="http://web.resource.org/cc/"
   xmlns:rdf="http://www.w3.org/1999/02/22-rdf-syntax-ns#"
   xmlns:svg="http://www.w3.org/2000/svg"
   xmlns="http://www.w3.org/2000/svg"
   xmlns:sodipodi="http://inkscape.sourceforge.net/DTD/sodipodi-0.dtd"
   xmlns:inkscape="http://www.inkscape.org/namespaces/inkscape"
   width="183.16"
   height="413.506"
   viewBox="0 0 183.16 413.506"
   style="overflow:visible;enable-background:new 0 0 183.16 413.506"
   xml:space="preserve"
   id="svg2"
   sodipodi:version="0.32"
   sodipodi:docname="magnetic-field-equations.svg"
   sodipodi:docbase="/home/bcrowell/Documents/writing/lm/trunk/4em/ch06/figs"><metadata
   id="metadata439"><rdf:RDF><cc:Work
       rdf:about=""><dc:format>image/svg+xml</dc:format><dc:type
         rdf:resource="http://purl.org/dc/dcmitype/StillImage" /></cc:Work></rdf:RDF></metadata><defs
   id="defs437">
		
		
		
		
		
		
		
		
		
		
		
		
		
		
		
		
		
		
		
		
		
		
		
		
	</defs><sodipodi:namedview
   inkscape:cy="239.64558"
   inkscape:cx="91.596628"
   inkscape:zoom="1.5608272"
   inkscape:window-height="996"
   inkscape:window-width="1278"
   inkscape:pageshadow="2"
   inkscape:pageopacity="0.0"
   borderopacity="1.0"
   bordercolor="#666666"
   pagecolor="#ffffff"
   id="base"
   inkscape:window-x="0"
   inkscape:window-y="0"
   inkscape:current-layer="svg2" />
	<style
   type="text/css"
   id="style4">
	
	</style>
	<g
   id="g7">
			<g
   id="g9">
				
					<linearGradient
   gradientTransform="matrix(0.225000,0.000000,0.000000,0.225000,103.5254,60.75750)"
   y2="-70.918999"
   x2="-57.074501"
   y1="-121.58570"
   x1="-57.074501"
   gradientUnits="userSpaceOnUse"
   id="XMLID_18_">
					<stop
   id="stop12"
   style="stop-color:#DCDCDC"
   offset="0" />
					<stop
   id="stop14"
   style="stop-color:#FFFFFF"
   offset="0.31" />
					<stop
   id="stop16"
   style="stop-color:#DCDCDC"
   offset="1" />
					<midPointStop
   id="midPointStop18"
   style="stop-color:#DCDCDC"
   offset="0" />
					<midPointStop
   id="midPointStop20"
   style="stop-color:#DCDCDC"
   offset="0.5" />
					<midPointStop
   id="midPointStop22"
   style="stop-color:#FFFFFF"
   offset="0.31" />
					<midPointStop
   id="midPointStop24"
   style="stop-color:#FFFFFF"
   offset="0.5" />
					<midPointStop
   id="midPointStop26"
   style="stop-color:#DCDCDC"
   offset="1" />
				</linearGradient>
				<path
   id="path28"
   d="M 92.806000,33.435000 L 90.777000,33.435000 L 90.729000,33.435000 C 90.726000,33.435000 90.724000,33.435000 90.721000,33.435000 C 90.719000,33.435000 90.716000,33.435000 90.713000,33.435000 L 21.425000,33.435000 L 21.425000,33.438000 C 21.406000,33.437000 21.388000,33.435000 21.369000,33.435000 C 20.177000,33.435000 19.210000,35.835000 19.210000,38.795000 C 19.210000,41.756000 20.177000,44.156000 21.369000,44.156000 C 21.388000,44.156000 21.407000,44.154000 21.425000,44.153000 L 21.425000,44.156000 L 90.713000,44.156000 C 90.716000,44.156000 90.718000,44.156000 90.721000,44.156000 C 90.724000,44.156000 90.726000,44.156000 90.729000,44.156000 L 90.777000,44.156000 L 92.806000,44.156000 L 162.15800,44.156000 L 162.15800,33.436000 L 92.806000,33.436000 L 92.806000,33.435000 z "
   style="fill:url(#XMLID_18_);stroke:#404040;stroke-width:0.50000000" />
				<ellipse
   sodipodi:ry="5.3610001"
   sodipodi:rx="2.1589999"
   sodipodi:cy="38.794998"
   sodipodi:cx="162.18900"
   id="ellipse30"
   ry="5.3610001"
   rx="2.1589999"
   cy="38.794998"
   cx="162.18900"
   style="fill:#dcdcdc;stroke:#404040;stroke-width:0.50000000" /> 
			</g>
			<g
   id="g32">
				<line
   id="line34"
   y2="39.733002"
   x2="64.954002"
   y1="39.733002"
   x1="37.054001"
   style="fill:none;stroke:#000000" />
				<path
   id="path36"
   d="M 68.213000,39.733000 C 66.679000,40.302000 64.776000,41.273000 63.598000,42.301000 L 64.527000,39.733000 L 63.598000,37.166000 C 64.776000,38.194000 66.679000,39.165000 68.213000,39.733000 z " />
			</g>
			<g
   id="g38">
				<text
   id="text40"
   transform="translate(71.58790,43.10840)"><tspan
     id="tspan42"
     style="font-size:9.3500004px;font-family:Liberation Sans"
     y="0"
     x="0">I</tspan></text>



			</g>
			<g
   id="g44">
				<line
   id="line46"
   y2="5.5339999"
   x2="135.82500"
   y1="18.134001"
   x1="141.22501"
   style="fill:none;stroke:#000000;stroke-width:0.50000000" />
				<path
   id="path48"
   d="M 135.29200,4.2870000 C 135.76200,4.7810000 136.44600,5.3500000 137.03300,5.6330000 L 135.89700,5.6980000 L 135.06600,6.4750000 C 135.26600,5.8550000 135.32500,4.9670000 135.29200,4.2870000 z " />
			</g>
			<g
   id="g50">
				<line
   id="line52"
   y2="1.0690000"
   x2="114.66000"
   y1="1.1250000"
   x1="128.36800"
   style="fill:none;stroke:#000000;stroke-width:0.50000000" />
				<path
   id="path54"
   d="M 113.30400,1.0620000 C 113.94400,0.82800000 114.73800,0.42600000 115.23100,0.0000000 L 114.84000,1.0680000 L 115.22200,2.1400000 C 114.73200,1.7090000 113.94100,1.3010000 113.30400,1.0620000 z " />
			</g>
			<g
   id="g56">
				<line
   id="line58"
   y2="53.970001"
   x2="139.77200"
   y1="66.570000"
   x1="134.37300"
   style="fill:none;stroke:#000000;stroke-width:0.50000000" />
				<path
   id="path60"
   d="M 140.30600,52.722000 C 139.83700,53.216000 139.15200,53.785000 138.56500,54.068000 L 139.70100,54.134000 L 140.53200,54.911000 C 140.33200,54.291000 140.27200,53.403000 140.30600,52.722000 z " />
			</g>
			<g
   id="g62">
				<line
   id="line64"
   y2="17.846001"
   x2="99.467003"
   y1="5.8360000"
   x1="106.07600"
   style="fill:none;stroke:#000000;stroke-width:0.50000000" />
				<path
   id="path66"
   d="M 98.812000,19.034000 C 98.912000,18.360000 98.940000,17.471000 98.802000,16.833000 L 99.553000,17.688000 L 100.67700,17.865000 C 100.06500,18.089000 99.328000,18.588000 98.812000,19.034000 z " />
			</g>
			<g
   id="g68">
				<line
   id="line70"
   y2="44.676998"
   x2="97.019997"
   y1="30.969000"
   x1="97.075996"
   style="fill:none;stroke:#000000;stroke-width:0.50000000" />
				<path
   id="path72"
   d="M 97.013000,46.034000 C 96.779000,45.394000 96.377000,44.599000 95.951000,44.106000 L 97.019000,44.498000 L 98.090000,44.116000 C 97.660000,44.604000 97.252000,45.396000 97.013000,46.034000 z " />
			</g>
			<g
   id="g74">
				<line
   id="line76"
   y2="67.370003"
   x2="106.21500"
   y1="55.616001"
   x1="99.161003"
   style="fill:none;stroke:#000000;stroke-width:0.50000000" />
				<path
   id="path78"
   d="M 106.91300,68.534000 C 106.38100,68.108000 105.62600,67.637000 105.00600,67.435000 L 106.12300,67.216000 L 106.84100,66.334000 C 106.72600,66.976000 106.78700,67.864000 106.91300,68.534000 z " />
			</g>
			<g
   id="g80">
				<line
   id="line82"
   y2="72.079002"
   x2="125.35700"
   y1="72.021004"
   x1="111.64900"
   style="fill:none;stroke:#000000;stroke-width:0.50000000" />
				<path
   id="path84"
   d="M 126.71300,72.085000 C 126.07300,72.319000 125.27800,72.721000 124.78600,73.147000 L 125.17700,72.079000 L 124.79500,71.008000 C 125.28400,71.438000 126.07500,71.846000 126.71300,72.085000 z " />
			</g>
			
				<line
   id="line86"
   y2="33.433998"
   x2="183.16000"
   y1="33.433998"
   x1="166.41400"
   style="fill:none;stroke:#000000;stroke-width:0.50000000;stroke-dasharray:2.0000000 " />
			
				<line
   id="line88"
   y2="44.028999"
   x2="183.16000"
   y1="44.028999"
   x1="166.41400"
   style="fill:none;stroke:#000000;stroke-width:0.50000000;stroke-dasharray:2.0000000 " />
			<line
   id="line90"
   y2="33.433998"
   x2="16.745001"
   y1="33.433998"
   x1="0.0000000"
   style="fill:none;stroke:#000000;stroke-width:0.50000000;stroke-dasharray:2.0000000 " />
			<line
   id="line92"
   y2="44.028999"
   x2="16.745001"
   y1="44.028999"
   x1="0.0000000"
   style="fill:none;stroke:#000000;stroke-width:0.50000000;stroke-dasharray:2.0000000 " />
			<g
   id="g94">
				<line
   id="line96"
   y2="5.5999999"
   x2="166.28000"
   y1="18.200001"
   x1="171.67999"
   style="fill:none;stroke:#000000;stroke-width:0.50000000" />
				<path
   id="path98"
   d="M 165.74700,4.3530000 C 166.21700,4.8470000 166.90100,5.4160000 167.48800,5.6990000 L 166.35200,5.7650000 L 165.52100,6.5420000 C 165.72200,5.9210000 165.78100,5.0330000 165.74700,4.3530000 z " />
			</g>
			<g
   id="g100">
				<line
   id="line102"
   y2="1.1350000"
   x2="145.11600"
   y1="1.1920000"
   x1="158.82401"
   style="fill:none;stroke:#000000;stroke-width:0.50000000" />
				<path
   id="path104"
   d="M 143.75900,1.1280000 C 144.39900,0.89400000 145.19400,0.49200000 145.68600,0.066000000 L 145.29500,1.1340000 L 145.67700,2.2050000 C 145.18800,1.7750000 144.39700,1.3680000 143.75900,1.1280000 z " />
			</g>
			<g
   id="g106">
				<line
   id="line108"
   y2="54.035999"
   x2="170.22900"
   y1="66.636002"
   x1="164.82800"
   style="fill:none;stroke:#000000;stroke-width:0.50000000" />
				<path
   id="path110"
   d="M 170.76200,52.789000 C 170.29200,53.283000 169.60800,53.852000 169.02100,54.135000 L 170.15700,54.201000 L 170.98800,54.978000 C 170.78700,54.357000 170.72800,53.469000 170.76200,52.789000 z " />
			</g>
			<g
   id="g112">
				<line
   id="line114"
   y2="17.912001"
   x2="129.92300"
   y1="5.9020000"
   x1="136.53200"
   style="fill:none;stroke:#000000;stroke-width:0.50000000" />
				<path
   id="path116"
   d="M 129.26800,19.100000 C 129.36900,18.426000 129.39600,17.537000 129.25800,16.899000 L 130.00900,17.754000 L 131.13300,17.931000 C 130.52100,18.155000 129.78400,18.655000 129.26800,19.100000 z " />
			</g>
			<g
   id="g118">
				<line
   id="line120"
   y2="44.743999"
   x2="127.47500"
   y1="31.035999"
   x1="127.53200"
   style="fill:none;stroke:#000000;stroke-width:0.50000000" />
				<path
   id="path122"
   d="M 127.46800,46.100000 C 127.23400,45.460000 126.83200,44.666000 126.40600,44.173000 L 127.47400,44.565000 L 128.54500,44.182000 C 128.11600,44.671000 127.70800,45.462000 127.46800,46.100000 z " />
			</g>
			<g
   id="g124">
				<line
   id="line126"
   y2="67.435997"
   x2="136.67101"
   y1="55.681999"
   x1="129.61700"
   style="fill:none;stroke:#000000;stroke-width:0.50000000" />
				<path
   id="path128"
   d="M 137.36800,68.600000 C 136.83600,68.174000 136.08100,67.703000 135.46100,67.502000 L 136.57700,67.283000 L 137.29500,66.401000 C 137.18200,67.042000 137.24300,67.930000 137.36800,68.600000 z " />
			</g>
			<g
   id="g130">
				<line
   id="line132"
   y2="72.144997"
   x2="155.81200"
   y1="72.087997"
   x1="142.10400"
   style="fill:none;stroke:#000000;stroke-width:0.50000000" />
				<path
   id="path134"
   d="M 157.16900,72.152000 C 156.52900,72.386000 155.73400,72.787000 155.24200,73.214000 L 155.63300,72.146000 L 155.25100,71.075000 C 155.74000,71.504000 156.53100,71.912000 157.16900,72.152000 z " />
			</g>
		</g><g
   id="g136"
   transform="translate(0.000000,6.000000)">
			<path
   id="path138"
   d="M 138.38500,337.14400 C 137.96800,337.86300 137.05200,338.11300 136.33300,337.69600 C 135.61400,337.29000 135.36400,336.37300 135.78100,335.65400 C 135.98900,334.66500 136.43700,333.69600 136.29100,332.67500 C 136.06200,331.01900 135.16600,329.52900 134.05100,328.27900 C 133.10300,327.21700 132.22800,326.19600 131.00900,325.38300 C 127.49900,323.05000 123.80100,321.80000 119.96700,320.61200 C 114.00900,319.71600 108.13400,318.09100 102.06100,318.47700 C 101.49200,318.30100 101.21300,318.38500 100.64400,318.38300 C 100.08200,318.57100 99.519000,318.57100 98.727000,318.56000 C 95.571000,319.01800 92.446000,318.61200 89.248000,318.98700 C 88.487000,319.07000 87.690000,319.04300 86.956000,319.13300 C 83.894000,319.50800 83.144000,319.75800 79.717000,320.44500 C 76.560000,321.07900 73.561000,321.82000 70.456000,322.44500 C 66.206000,324.13300 61.644000,325.95600 59.175000,330.06000 C 59.196000,330.07000 59.217000,330.08100 59.237000,330.09100 C 58.914000,330.85200 58.039000,331.21600 57.268000,330.89300 C 56.508000,330.57000 56.143000,329.69500 56.466000,328.92400 C 58.612000,324.86200 62.612000,322.28900 66.851000,320.74700 C 67.163000,320.63200 67.403000,320.39300 67.716000,320.27800 C 71.299000,318.97600 75.049000,318.39300 78.768000,317.70500 C 82.268000,316.88200 85.393000,316.38200 89.258000,316.00700 C 92.206000,315.81900 95.140000,315.88100 98.150000,315.61800 C 98.395000,315.44400 98.881000,315.56900 99.206000,315.56900 C 99.842000,315.51700 100.36200,315.36100 101.01800,315.44400 C 101.51800,315.51700 101.87200,315.45500 102.34100,315.47600 C 104.15300,315.58000 105.95500,315.42400 107.76800,315.55900 C 112.25800,315.91300 116.42400,316.94400 120.97600,317.81900 C 122.02800,318.01700 122.99700,318.30900 123.96600,318.75700 C 125.99700,319.68400 128.07000,320.34000 130.09100,321.30900 C 132.87200,322.63200 135.03900,324.61100 136.92400,327.06900 C 138.03900,328.52700 138.90300,330.04800 139.24700,331.87100 C 139.59100,333.69400 139.03100,335.49800 138.38500,337.14400 z "
   style="fill:#dcdcdc;stroke:#000000;stroke-width:0.50000000" />
			<path
   id="path140"
   d="M 138.38500,340.82900 C 137.96800,341.54800 137.05200,341.79800 136.33300,341.38100 C 135.61400,340.97500 135.36400,340.05800 135.78100,339.33900 C 135.98900,338.35000 136.43700,337.38100 136.29100,336.36000 C 136.06200,334.70400 135.16600,333.21400 134.05100,331.96400 C 133.10300,330.90200 132.22800,329.88100 131.00900,329.06800 C 127.49900,326.73500 123.80100,325.48500 119.96700,324.29700 C 114.00900,323.40100 108.13400,321.77600 102.06100,322.16200 C 101.49200,321.98600 101.21300,322.07000 100.64400,322.06800 C 100.08200,322.25600 99.519000,322.25600 98.727000,322.24500 C 95.571000,322.70300 92.446000,322.29700 89.248000,322.67200 C 88.487000,322.75500 87.690000,322.72800 86.956000,322.81800 C 83.894000,323.19300 83.144000,323.44300 79.717000,324.13000 C 76.560000,324.76300 73.561000,325.50500 70.456000,326.13000 C 66.206000,327.81800 61.644000,329.64000 59.175000,333.74400 C 59.196000,333.75500 59.217000,333.76500 59.237000,333.77500 C 58.914000,334.53600 58.039000,334.90000 57.268000,334.57700 C 56.508000,334.25400 56.143000,333.37900 56.466000,332.60800 C 58.612000,328.54600 62.612000,325.97300 66.851000,324.43100 C 67.163000,324.31700 67.403000,324.07700 67.716000,323.96200 C 71.299000,322.66000 75.049000,322.07700 78.768000,321.38900 C 82.268000,320.56600 85.393000,320.06600 89.258000,319.69100 C 92.206000,319.50300 95.140000,319.56400 98.150000,319.30200 C 98.395000,319.12800 98.881000,319.25400 99.206000,319.25400 C 99.842000,319.20200 100.36200,319.04600 101.01800,319.12900 C 101.51800,319.20200 101.87200,319.13900 102.34100,319.16000 C 104.15300,319.26400 105.95500,319.10800 107.76800,319.24300 C 112.25800,319.59700 116.42400,320.62900 120.97600,321.50400 C 122.02800,321.70200 122.99700,321.99300 123.96600,322.44200 C 125.99700,323.36900 128.07000,324.02500 130.09100,324.99400 C 132.87200,326.31700 135.03900,328.29600 136.92400,330.75500 C 138.03900,332.21300 138.90300,333.73400 139.24700,335.55700 C 139.59400,337.38100 139.03100,339.18300 138.38500,340.82900 z "
   style="fill:#dcdcdc;stroke:#000000;stroke-width:0.50000000" />
			<path
   id="path142"
   d="M 138.38500,344.51400 C 137.96800,345.23300 137.05200,345.48300 136.33300,345.06600 C 135.61400,344.66000 135.36400,343.74300 135.78100,343.02400 C 135.98900,342.03500 136.43700,341.06600 136.29100,340.04500 C 136.06200,338.38900 135.16600,336.89900 134.05100,335.64900 C 133.10300,334.58700 132.22800,333.56600 131.00900,332.75300 C 127.49900,330.42000 123.80100,329.17000 119.96700,327.98200 C 114.00900,327.08600 108.13400,325.46100 102.06100,325.84700 C 101.49200,325.67100 101.21300,325.75500 100.64400,325.75300 C 100.08200,325.94100 99.519000,325.94100 98.727000,325.93000 C 95.571000,326.38800 92.446000,325.98200 89.248000,326.35700 C 88.487000,326.44000 87.690000,326.41300 86.956000,326.50300 C 83.894000,326.87800 83.144000,327.12800 79.717000,327.81500 C 76.560000,328.44800 73.561000,329.19000 70.456000,329.81500 C 66.206000,331.50300 61.644000,333.32600 59.175000,337.43000 C 59.196000,337.44000 59.217000,337.45100 59.237000,337.46100 C 58.914000,338.22200 58.039000,338.58600 57.268000,338.26300 C 56.508000,337.94000 56.143000,337.06500 56.466000,336.29400 C 58.612000,332.23200 62.612000,329.65900 66.851000,328.11700 C 67.163000,328.00200 67.403000,327.76300 67.716000,327.64800 C 71.299000,326.34600 75.049000,325.76300 78.768000,325.07500 C 82.268000,324.25200 85.393000,323.75200 89.258000,323.37700 C 92.206000,323.18900 95.140000,323.25100 98.150000,322.98800 C 98.395000,322.81400 98.881000,322.93900 99.206000,322.93900 C 99.842000,322.88700 100.36200,322.73100 101.01800,322.81400 C 101.51800,322.88700 101.87200,322.82500 102.34100,322.84600 C 104.15300,322.95000 105.95500,322.79400 107.76800,322.92900 C 112.25800,323.28300 116.42400,324.31400 120.97600,325.18900 C 122.02800,325.38700 122.99700,325.67900 123.96600,326.12700 C 125.99700,327.05400 128.07000,327.71000 130.09100,328.67900 C 132.87200,330.00200 135.03900,331.98100 136.92400,334.43900 C 138.03900,335.89700 138.90300,337.41800 139.24700,339.24100 C 139.59100,341.06400 139.03100,342.86800 138.38500,344.51400 z "
   style="fill:#dcdcdc;stroke:#000000;stroke-width:0.50000000" />
			<path
   id="path144"
   d="M 138.38500,348.19900 C 137.96800,348.91800 137.05200,349.16800 136.33300,348.75100 C 135.61400,348.34400 135.36400,347.42800 135.78100,346.70900 C 135.98900,345.71900 136.43700,344.75100 136.29100,343.73000 C 136.06200,342.07400 135.16600,340.58400 134.05100,339.33400 C 133.10300,338.27200 132.22800,337.25100 131.00900,336.43800 C 127.49900,334.10500 123.80100,332.85500 119.96700,331.66700 C 114.00900,330.77100 108.13400,329.14600 102.06100,329.53100 C 101.49200,329.35500 101.21300,329.44000 100.64400,329.43800 C 100.08200,329.62600 99.519000,329.62600 98.727000,329.61500 C 95.571000,330.07300 92.446000,329.66700 89.248000,330.04200 C 88.487000,330.12500 87.690000,330.09800 86.956000,330.18800 C 83.894000,330.56300 83.144000,330.81300 79.717000,331.50000 C 76.560000,332.13300 73.561000,332.87500 70.456000,333.50000 C 66.206000,335.18800 61.644000,337.01000 59.175000,341.11400 C 59.196000,341.12500 59.217000,341.13500 59.237000,341.14500 C 58.914000,341.90500 58.039000,342.27000 57.268000,341.94700 C 56.508000,341.62400 56.143000,340.74900 56.466000,339.97800 C 58.612000,335.91600 62.612000,333.34200 66.851000,331.80100 C 67.163000,331.68700 67.403000,331.44700 67.716000,331.33200 C 71.299000,330.03000 75.049000,329.44700 78.768000,328.75900 C 82.268000,327.93600 85.393000,327.43600 89.258000,327.06100 C 92.206000,326.87300 95.140000,326.93400 98.150000,326.67200 C 98.395000,326.49800 98.881000,326.62400 99.206000,326.62400 C 99.842000,326.57200 100.36200,326.41600 101.01800,326.49900 C 101.51800,326.57200 101.87200,326.50900 102.34100,326.53000 C 104.15300,326.63400 105.95500,326.47800 107.76800,326.61300 C 112.25800,326.96700 116.42400,327.99900 120.97600,328.87400 C 122.02800,329.07200 122.99700,329.36300 123.96600,329.81200 C 125.99700,330.73900 128.07000,331.39500 130.09100,332.36400 C 132.87200,333.68700 135.03900,335.66600 136.92400,338.12500 C 138.03900,339.58300 138.90300,341.10400 139.24700,342.92700 C 139.59400,344.75100 139.03100,346.55300 138.38500,348.19900 z "
   style="fill:#dcdcdc;stroke:#000000;stroke-width:0.50000000" />
			<path
   id="path146"
   d="M 138.38500,351.88400 C 137.96800,352.60300 137.05200,352.85300 136.33300,352.43600 C 135.61400,352.03000 135.36400,351.11300 135.78100,350.39400 C 135.98900,349.40500 136.43700,348.43600 136.29100,347.41500 C 136.06200,345.75900 135.16600,344.26900 134.05100,343.01900 C 133.10300,341.95700 132.22800,340.93600 131.00900,340.12300 C 127.49900,337.79000 123.80100,336.54000 119.96700,335.35200 C 114.00900,334.45600 108.13400,332.83100 102.06100,333.21600 C 101.49200,333.04000 101.21300,333.12500 100.64400,333.12200 C 100.08200,333.31000 99.519000,333.31000 98.727000,333.29900 C 95.571000,333.75700 92.446000,333.35100 89.248000,333.72600 C 88.487000,333.80900 87.690000,333.78200 86.956000,333.87200 C 83.894000,334.24700 83.144000,334.49700 79.717000,335.18400 C 76.560000,335.81700 73.561000,336.55900 70.456000,337.18400 C 66.206000,338.87200 61.644000,340.69500 59.175000,344.79900 C 59.196000,344.80900 59.217000,344.82000 59.237000,344.83000 C 58.914000,345.59000 58.039000,345.95500 57.268000,345.63200 C 56.508000,345.30900 56.143000,344.43400 56.466000,343.66300 C 58.612000,339.60100 62.612000,337.02800 66.851000,335.48600 C 67.163000,335.37100 67.403000,335.13200 67.716000,335.01700 C 71.299000,333.71500 75.049000,333.13200 78.768000,332.44400 C 82.268000,331.62100 85.393000,331.12100 89.258000,330.74600 C 92.206000,330.55800 95.140000,330.62000 98.150000,330.35700 C 98.395000,330.18300 98.881000,330.30800 99.206000,330.30800 C 99.842000,330.25600 100.36200,330.10000 101.01800,330.18300 C 101.51800,330.25600 101.87200,330.19400 102.34100,330.21400 C 104.15300,330.31800 105.95500,330.16200 107.76800,330.29700 C 112.25800,330.65100 116.42400,331.68200 120.97600,332.55700 C 122.02800,332.75500 122.99700,333.04700 123.96600,333.49500 C 125.99700,334.42200 128.07000,335.07800 130.09100,336.04700 C 132.87200,337.37000 135.03900,339.34900 136.92400,341.80700 C 138.03900,343.26500 138.90300,344.78600 139.24700,346.60900 C 139.59100,348.43200 139.03100,350.23800 138.38500,351.88400 z "
   style="fill:#dcdcdc;stroke:#000000;stroke-width:0.50000000" />
			<path
   id="path148"
   d="M 138.38500,355.56900 C 137.96800,356.28800 137.05200,356.53800 136.33300,356.12100 C 135.61400,355.71400 135.36400,354.79800 135.78100,354.07900 C 135.98900,353.08900 136.43700,352.12100 136.29100,351.10000 C 136.06200,349.44400 135.16600,347.95400 134.05100,346.70400 C 133.10300,345.64200 132.22800,344.62100 131.00900,343.80800 C 127.49900,341.47500 123.80100,340.22500 119.96700,339.03700 C 114.00900,338.14100 108.13400,336.51600 102.06100,336.90100 C 101.49200,336.72500 101.21300,336.81000 100.64400,336.80800 C 100.08200,336.99600 99.519000,336.99600 98.727000,336.98500 C 95.571000,337.44300 92.446000,337.03700 89.248000,337.41200 C 88.487000,337.49500 87.690000,337.46800 86.956000,337.55800 C 83.894000,337.93300 83.144000,338.18300 79.717000,338.87000 C 76.560000,339.50300 73.561000,340.24500 70.456000,340.87000 C 66.206000,342.55800 61.644000,344.38000 59.175000,348.48400 C 59.196000,348.49500 59.217000,348.50500 59.237000,348.51500 C 58.914000,349.27500 58.039000,349.64000 57.268000,349.31700 C 56.508000,348.99400 56.143000,348.11900 56.466000,347.34800 C 58.612000,343.28600 62.612000,340.71200 66.851000,339.17100 C 67.163000,339.05700 67.403000,338.81700 67.716000,338.70200 C 71.299000,337.40000 75.049000,336.81700 78.768000,336.12900 C 82.268000,335.30600 85.393000,334.80600 89.258000,334.43100 C 92.206000,334.24300 95.140000,334.30400 98.150000,334.04200 C 98.395000,333.86800 98.881000,333.99400 99.206000,333.99400 C 99.842000,333.94200 100.36200,333.78600 101.01800,333.86900 C 101.51800,333.94200 101.87200,333.87900 102.34100,333.90000 C 104.15300,334.00400 105.95500,333.84800 107.76800,333.98300 C 112.25800,334.33700 116.42400,335.36900 120.97600,336.24400 C 122.02800,336.44200 122.99700,336.73300 123.96600,337.18200 C 125.99700,338.10900 128.07000,338.76500 130.09100,339.73400 C 132.87200,341.05700 135.03900,343.03600 136.92400,345.49500 C 138.03900,346.95300 138.90300,348.47400 139.24700,350.29700 C 139.59400,352.12100 139.03100,353.92300 138.38500,355.56900 z "
   style="fill:#dcdcdc;stroke:#000000;stroke-width:0.50000000" />
			<path
   id="path150"
   d="M 138.38500,359.25400 C 137.96800,359.97300 137.05200,360.22300 136.33300,359.80600 C 135.61400,359.40000 135.36400,358.48300 135.78100,357.76400 C 135.98900,356.77400 136.43700,355.80600 136.29100,354.78500 C 136.06200,353.12900 135.16600,351.63900 134.05100,350.38900 C 133.10300,349.32700 132.22800,348.30600 131.00900,347.49300 C 127.49900,345.16000 123.80100,343.91000 119.96700,342.72200 C 114.00900,341.82600 108.13400,340.20100 102.06100,340.58600 C 101.49200,340.41000 101.21300,340.49400 100.64400,340.49200 C 100.08200,340.68000 99.519000,340.68000 98.727000,340.66900 C 95.571000,341.12700 92.446000,340.72100 89.248000,341.09600 C 88.487000,341.17900 87.690000,341.15200 86.956000,341.24200 C 83.894000,341.61700 83.144000,341.86700 79.717000,342.55400 C 76.560000,343.18700 73.561000,343.92900 70.456000,344.55400 C 66.206000,346.24200 61.644000,348.06500 59.175000,352.16900 C 59.196000,352.17900 59.217000,352.19000 59.237000,352.20000 C 58.914000,352.96000 58.039000,353.32500 57.268000,353.00200 C 56.508000,352.67900 56.143000,351.80400 56.466000,351.03300 C 58.612000,346.97100 62.612000,344.39700 66.851000,342.85600 C 67.163000,342.74100 67.403000,342.50200 67.716000,342.38700 C 71.299000,341.08500 75.049000,340.50200 78.768000,339.81400 C 82.268000,338.99100 85.393000,338.49100 89.258000,338.11600 C 92.206000,337.92800 95.140000,337.99000 98.150000,337.72700 C 98.395000,337.55300 98.881000,337.67800 99.206000,337.67800 C 99.842000,337.62600 100.36200,337.47000 101.01800,337.55300 C 101.51800,337.62600 101.87200,337.56400 102.34100,337.58400 C 104.15300,337.68800 105.95500,337.53200 107.76800,337.66700 C 112.25800,338.02100 116.42400,339.05200 120.97600,339.92700 C 122.02800,340.12500 122.99700,340.41700 123.96600,340.86500 C 125.99700,341.79200 128.07000,342.44800 130.09100,343.41700 C 132.87200,344.74000 135.03900,346.71900 136.92400,349.17700 C 138.03900,350.63500 138.90300,352.15600 139.24700,353.97900 C 139.59100,355.80200 139.03100,357.60800 138.38500,359.25400 z "
   style="fill:#dcdcdc;stroke:#000000;stroke-width:0.50000000" />
			<path
   id="path152"
   d="M 138.38500,362.93900 C 137.96800,363.65800 137.05200,363.90800 136.33300,363.49100 C 135.61400,363.08500 135.36400,362.16800 135.78100,361.44900 C 135.98900,360.45900 136.43700,359.49100 136.29100,358.47000 C 136.06200,356.81400 135.16600,355.32400 134.05100,354.07400 C 133.10300,353.01200 132.22800,351.99100 131.00900,351.17800 C 127.49900,348.84500 123.80100,347.59500 119.96700,346.40700 C 114.00900,345.51100 108.13400,343.88600 102.06100,344.27100 C 101.49200,344.09500 101.21300,344.18000 100.64400,344.17700 C 100.08200,344.36500 99.519000,344.36500 98.727000,344.35400 C 95.571000,344.81200 92.446000,344.40600 89.248000,344.78100 C 88.487000,344.86400 87.690000,344.83700 86.956000,344.92700 C 83.894000,345.30200 83.144000,345.55200 79.717000,346.23900 C 76.560000,346.87200 73.561000,347.61400 70.456000,348.23900 C 66.206000,349.92700 61.644000,351.75000 59.175000,355.85400 C 59.196000,355.86400 59.217000,355.87500 59.237000,355.88500 C 58.914000,356.64500 58.039000,357.01000 57.268000,356.68700 C 56.508000,356.36400 56.143000,355.48900 56.466000,354.71800 C 58.612000,350.65600 62.612000,348.08200 66.851000,346.54100 C 67.163000,346.42600 67.403000,346.18700 67.716000,346.07200 C 71.299000,344.77000 75.049000,344.18700 78.768000,343.49900 C 82.268000,342.67600 85.393000,342.17600 89.258000,341.80100 C 92.206000,341.61300 95.140000,341.67500 98.150000,341.41200 C 98.395000,341.23800 98.881000,341.36300 99.206000,341.36300 C 99.842000,341.31100 100.36200,341.15500 101.01800,341.23800 C 101.51800,341.31100 101.87200,341.24900 102.34100,341.26900 C 104.15300,341.37300 105.95500,341.21700 107.76800,341.35200 C 112.25800,341.70600 116.42400,342.73700 120.97600,343.61200 C 122.02800,343.81000 122.99700,344.10200 123.96600,344.55000 C 125.99700,345.47700 128.07000,346.13300 130.09100,347.10200 C 132.87200,348.42500 135.03900,350.40400 136.92400,352.86200 C 138.03900,354.32000 138.90300,355.84100 139.24700,357.66400 C 139.59100,359.48700 139.03100,361.29300 138.38500,362.93900 z "
   style="fill:#dcdcdc;stroke:#000000;stroke-width:0.50000000" />
			<path
   id="path154"
   d="M 138.38500,366.62400 C 137.96800,367.34300 137.05200,367.59300 136.33300,367.17600 C 135.61400,366.77000 135.36400,365.85300 135.78100,365.13400 C 135.98900,364.14400 136.43700,363.17600 136.29100,362.15500 C 136.06200,360.49900 135.16600,359.00900 134.05100,357.75900 C 133.10300,356.69700 132.22800,355.67600 131.00900,354.86300 C 127.49900,352.53000 123.80100,351.28000 119.96700,350.09200 C 114.00900,349.19600 108.13400,347.57100 102.06100,347.95600 C 101.49200,347.78000 101.21300,347.86400 100.64400,347.86200 C 100.08200,348.05000 99.519000,348.05000 98.727000,348.03900 C 95.571000,348.49700 92.446000,348.09100 89.248000,348.46600 C 88.487000,348.54900 87.690000,348.52200 86.956000,348.61200 C 83.894000,348.98700 83.144000,349.23700 79.717000,349.92400 C 76.560000,350.55700 73.561000,351.29900 70.456000,351.92400 C 66.206000,353.61200 61.644000,355.43500 59.175000,359.53900 C 59.196000,359.54900 59.217000,359.56000 59.237000,359.57000 C 58.914000,360.33000 58.039000,360.69500 57.268000,360.37200 C 56.508000,360.04900 56.143000,359.17400 56.466000,358.40300 C 58.612000,354.34100 62.612000,351.76700 66.851000,350.22600 C 67.163000,350.11100 67.403000,349.87200 67.716000,349.75700 C 71.299000,348.45500 75.049000,347.87200 78.768000,347.18400 C 82.268000,346.36100 85.393000,345.86100 89.258000,345.48600 C 92.206000,345.29800 95.140000,345.36000 98.150000,345.09700 C 98.395000,344.92300 98.881000,345.04800 99.206000,345.04800 C 99.842000,344.99600 100.36200,344.84000 101.01800,344.92300 C 101.51800,344.99600 101.87200,344.93400 102.34100,344.95400 C 104.15300,345.05800 105.95500,344.90200 107.76800,345.03700 C 112.25800,345.39100 116.42400,346.42200 120.97600,347.29700 C 122.02800,347.49500 122.99700,347.78700 123.96600,348.23500 C 125.99700,349.16200 128.07000,349.81800 130.09100,350.78700 C 132.87200,352.11000 135.03900,354.08900 136.92400,356.54700 C 138.03900,358.00500 138.90300,359.52600 139.24700,361.34900 C 139.59100,363.17200 139.03100,364.97800 138.38500,366.62400 z "
   style="fill:#dcdcdc;stroke:#000000;stroke-width:0.50000000" />
			<path
   id="path156"
   d="M 138.35600,358.85600 C 137.93900,358.13700 137.02300,357.88700 136.30400,358.30400 C 135.58500,358.71000 135.33500,359.62700 135.75200,360.34600 C 135.96000,361.33600 136.40800,362.30400 136.26300,363.32500 C 136.03400,364.98100 135.13800,366.47100 134.02300,367.72100 C 133.07500,368.78300 132.20000,369.80400 130.98100,370.61700 C 127.47000,372.95000 123.77300,374.20000 119.93900,375.38800 C 113.98100,376.28400 108.10600,377.90900 102.03300,377.52400 C 101.46400,377.70000 101.18500,377.61600 100.61600,377.61800 C 100.05400,377.43000 99.491000,377.43000 98.699000,377.44100 C 95.543000,376.98300 92.418000,377.38900 89.220000,377.01400 C 88.460000,376.93100 87.662000,376.95800 86.928000,376.86800 C 83.866000,376.49300 83.116000,376.24300 79.688000,375.55600 C 76.532000,374.92300 73.532000,374.18100 70.428000,373.55600 C 66.178000,371.86800 61.616000,370.04500 59.147000,365.94100 C 59.168000,365.93100 59.189000,365.92000 59.209000,365.91000 C 58.886000,365.15000 58.011000,364.78500 57.240000,365.10800 C 56.480000,365.43100 56.115000,366.30600 56.438000,367.07700 C 58.584000,371.13900 62.584000,373.71300 66.824000,375.25400 C 67.136000,375.36900 67.376000,375.60800 67.688000,375.72300 C 71.271000,377.02500 75.021000,377.60800 78.740000,378.29600 C 82.240000,379.11900 85.365000,379.61900 89.230000,379.99400 C 92.178000,380.18200 95.112000,380.12000 98.122000,380.38300 C 98.367000,380.55700 98.852000,380.43200 99.178000,380.43200 C 99.813000,380.48400 100.33400,380.64000 100.99000,380.55700 C 101.49000,380.48400 101.84400,380.54600 102.31300,380.52600 C 104.12500,380.42200 105.92800,380.57800 107.74000,380.44300 C 112.23000,380.08900 116.39600,379.05800 120.94800,378.18300 C 122.00000,377.98500 122.96900,377.69300 123.93700,377.24500 C 125.96800,376.31800 128.04100,375.66200 130.06200,374.69300 C 132.84300,373.37000 135.01000,371.39100 136.89500,368.93300 C 138.01000,367.47500 138.87400,365.95400 139.21800,364.13100 C 139.56200,362.30800 139.00100,360.50200 138.35600,358.85600 z "
   style="fill:#dcdcdc;stroke:#000000;stroke-width:0.50000000" />
			<path
   id="path158"
   d="M 138.35600,355.17100 C 137.93900,354.45200 137.02300,354.20200 136.30400,354.61900 C 135.58500,355.02500 135.33500,355.94200 135.75200,356.66100 C 135.96000,357.65100 136.40800,358.61900 136.26300,359.64000 C 136.03400,361.29600 135.13800,362.78600 134.02300,364.03600 C 133.07500,365.09800 132.20000,366.11900 130.98100,366.93200 C 127.47000,369.26500 123.77300,370.51500 119.93900,371.70300 C 113.98100,372.59900 108.10600,374.22400 102.03300,373.83900 C 101.46400,374.01500 101.18500,373.93100 100.61600,373.93300 C 100.05400,373.74500 99.491000,373.74500 98.699000,373.75600 C 95.543000,373.29800 92.418000,373.70400 89.220000,373.32900 C 88.460000,373.24600 87.662000,373.27300 86.928000,373.18300 C 83.866000,372.80800 83.116000,372.55800 79.688000,371.87100 C 76.532000,371.23800 73.532000,370.49600 70.428000,369.87100 C 66.178000,368.18300 61.616000,366.36000 59.147000,362.25600 C 59.168000,362.24600 59.189000,362.23500 59.209000,362.22500 C 58.886000,361.46500 58.011000,361.10000 57.240000,361.42300 C 56.480000,361.74600 56.115000,362.62100 56.438000,363.39200 C 58.584000,367.45400 62.584000,370.02800 66.824000,371.56900 C 67.136000,371.68400 67.376000,371.92300 67.688000,372.03800 C 71.271000,373.34000 75.021000,373.92300 78.740000,374.61100 C 82.240000,375.43400 85.365000,375.93400 89.230000,376.30900 C 92.178000,376.49700 95.112000,376.43600 98.122000,376.69800 C 98.367000,376.87200 98.852000,376.74700 99.178000,376.74700 C 99.813000,376.79900 100.33400,376.95500 100.99000,376.87200 C 101.49000,376.79900 101.84400,376.86100 102.31300,376.84100 C 104.12500,376.73700 105.92800,376.89300 107.74000,376.75800 C 112.23000,376.40400 116.39600,375.37300 120.94800,374.49800 C 122.00000,374.30000 122.96900,374.00800 123.93700,373.56000 C 125.96800,372.63300 128.04100,371.97700 130.06200,371.00800 C 132.84300,369.68500 135.01000,367.70600 136.89500,365.24800 C 138.01000,363.79000 138.87400,362.26900 139.21800,360.44600 C 139.56200,358.62300 139.00100,356.81700 138.35600,355.17100 z "
   style="fill:#dcdcdc;stroke:#000000;stroke-width:0.50000000" />
			<path
   id="path160"
   d="M 138.35600,351.48600 C 137.93900,350.76700 137.02300,350.51700 136.30400,350.93400 C 135.58500,351.34000 135.33500,352.25700 135.75200,352.97600 C 135.96000,353.96600 136.40800,354.93400 136.26300,355.95500 C 136.03400,357.61100 135.13800,359.10100 134.02300,360.35100 C 133.07500,361.41300 132.20000,362.43400 130.98100,363.24700 C 127.47000,365.58000 123.77300,366.83000 119.93900,368.01800 C 113.98100,368.91400 108.10600,370.53900 102.03300,370.15400 C 101.46400,370.33000 101.18500,370.24600 100.61600,370.24800 C 100.05400,370.06000 99.491000,370.06000 98.699000,370.07100 C 95.543000,369.61300 92.418000,370.01900 89.220000,369.64400 C 88.460000,369.56100 87.662000,369.58800 86.928000,369.49800 C 83.866000,369.12300 83.116000,368.87300 79.688000,368.18600 C 76.532000,367.55300 73.532000,366.81100 70.428000,366.18600 C 66.178000,364.49800 61.616000,362.67500 59.147000,358.57100 C 59.168000,358.56100 59.189000,358.55000 59.209000,358.54000 C 58.886000,357.78000 58.011000,357.41500 57.240000,357.73800 C 56.480000,358.06100 56.115000,358.93600 56.438000,359.70700 C 58.584000,363.76900 62.584000,366.34300 66.824000,367.88400 C 67.136000,367.99900 67.376000,368.23800 67.688000,368.35300 C 71.271000,369.65500 75.021000,370.23800 78.740000,370.92600 C 82.240000,371.74900 85.365000,372.24900 89.230000,372.62400 C 92.178000,372.81200 95.112000,372.75000 98.122000,373.01300 C 98.367000,373.18700 98.852000,373.06200 99.178000,373.06200 C 99.813000,373.11400 100.33400,373.27000 100.99000,373.18700 C 101.49000,373.11400 101.84400,373.17600 102.31300,373.15600 C 104.12500,373.05200 105.92800,373.20800 107.74000,373.07300 C 112.23000,372.71900 116.39600,371.68800 120.94800,370.81300 C 122.00000,370.61500 122.96900,370.32300 123.93700,369.87500 C 125.96800,368.94800 128.04100,368.29200 130.06200,367.32300 C 132.84300,366.00000 135.01000,364.02100 136.89500,361.56300 C 138.01000,360.10500 138.87400,358.58400 139.21800,356.76100 C 139.56200,354.93800 139.00100,353.13200 138.35600,351.48600 z "
   style="fill:#dcdcdc;stroke:#000000;stroke-width:0.50000000" />
			<path
   id="path162"
   d="M 138.35600,347.80100 C 137.93900,347.08200 137.02300,346.83200 136.30400,347.24900 C 135.58500,347.65500 135.33500,348.57200 135.75200,349.29100 C 135.96000,350.28100 136.40800,351.24900 136.26300,352.27000 C 136.03400,353.92600 135.13800,355.41600 134.02300,356.66600 C 133.07500,357.72800 132.20000,358.74900 130.98100,359.56200 C 127.47000,361.89500 123.77300,363.14500 119.93900,364.33300 C 113.98100,365.22900 108.10600,366.85400 102.03300,366.46900 C 101.46400,366.64500 101.18500,366.56100 100.61600,366.56300 C 100.05400,366.37500 99.491000,366.37500 98.699000,366.38600 C 95.543000,365.92800 92.418000,366.33400 89.220000,365.95900 C 88.460000,365.87600 87.662000,365.90300 86.928000,365.81300 C 83.866000,365.43800 83.116000,365.18800 79.688000,364.50100 C 76.532000,363.86800 73.532000,363.12600 70.428000,362.50100 C 66.178000,360.81300 61.616000,358.99000 59.147000,354.88600 C 59.168000,354.87600 59.189000,354.86500 59.209000,354.85500 C 58.886000,354.09500 58.011000,353.73000 57.240000,354.05300 C 56.480000,354.37600 56.115000,355.25100 56.438000,356.02200 C 58.584000,360.08400 62.584000,362.65800 66.824000,364.19900 C 67.136000,364.31400 67.376000,364.55300 67.688000,364.66800 C 71.271000,365.97000 75.021000,366.55300 78.740000,367.24100 C 82.240000,368.06400 85.365000,368.56400 89.230000,368.93900 C 92.178000,369.12700 95.112000,369.06600 98.122000,369.32800 C 98.367000,369.50200 98.852000,369.37700 99.178000,369.37700 C 99.813000,369.42900 100.33400,369.58500 100.99000,369.50200 C 101.49000,369.42900 101.84400,369.49100 102.31300,369.47100 C 104.12500,369.36700 105.92800,369.52300 107.74000,369.38800 C 112.23000,369.03400 116.39600,368.00300 120.94800,367.12800 C 122.00000,366.93000 122.96900,366.63800 123.93700,366.19000 C 125.96800,365.26300 128.04100,364.60700 130.06200,363.63800 C 132.84300,362.31500 135.01000,360.33600 136.89500,357.87800 C 138.01000,356.42000 138.87400,354.89900 139.21800,353.07600 C 139.56200,351.25300 139.00100,349.44700 138.35600,347.80100 z "
   style="fill:#dcdcdc;stroke:#000000;stroke-width:0.50000000" />
			<path
   id="path164"
   d="M 138.35600,344.11600 C 137.93900,343.39700 137.02300,343.14700 136.30400,343.56400 C 135.58500,343.97000 135.33500,344.88700 135.75200,345.60600 C 135.96000,346.59600 136.40800,347.56400 136.26300,348.58500 C 136.03400,350.24200 135.13800,351.73100 134.02300,352.98100 C 133.07500,354.04300 132.20000,355.06400 130.98100,355.87700 C 127.47000,358.21000 123.77300,359.46000 119.93900,360.64800 C 113.98100,361.54400 108.10600,363.16900 102.03300,362.78400 C 101.46400,362.96000 101.18500,362.87600 100.61600,362.87800 C 100.05400,362.69000 99.491000,362.69000 98.699000,362.70100 C 95.543000,362.24300 92.418000,362.64900 89.220000,362.27400 C 88.460000,362.19100 87.662000,362.21800 86.928000,362.12800 C 83.866000,361.75300 83.116000,361.50300 79.688000,360.81600 C 76.532000,360.18300 73.532000,359.44100 70.428000,358.81600 C 66.178000,357.12800 61.616000,355.30500 59.147000,351.20100 C 59.168000,351.19100 59.189000,351.18000 59.209000,351.17000 C 58.886000,350.41000 58.011000,350.04500 57.240000,350.36800 C 56.480000,350.69100 56.115000,351.56600 56.438000,352.33600 C 58.584000,356.39800 62.584000,358.97200 66.824000,360.51300 C 67.136000,360.62800 67.376000,360.86700 67.688000,360.98200 C 71.271000,362.28400 75.021000,362.86700 78.740000,363.55500 C 82.240000,364.37800 85.365000,364.87800 89.230000,365.25300 C 92.178000,365.44100 95.112000,365.37900 98.122000,365.64200 C 98.367000,365.81600 98.852000,365.69100 99.178000,365.69100 C 99.813000,365.74300 100.33400,365.89900 100.99000,365.81600 C 101.49000,365.74300 101.84400,365.80500 102.31300,365.78500 C 104.12500,365.68100 105.92800,365.83700 107.74000,365.70200 C 112.23000,365.34800 116.39600,364.31700 120.94800,363.44200 C 122.00000,363.24400 122.96900,362.95200 123.93700,362.50400 C 125.96800,361.57700 128.04100,360.92100 130.06200,359.95200 C 132.84300,358.62900 135.01000,356.65000 136.89500,354.19200 C 138.01000,352.73400 138.87400,351.21300 139.21800,349.39000 C 139.56200,347.56700 139.00100,345.76200 138.35600,344.11600 z "
   style="fill:#dcdcdc;stroke:#000000;stroke-width:0.50000000" />
			<path
   id="path166"
   d="M 138.35600,340.43100 C 137.93900,339.71200 137.02300,339.46200 136.30400,339.87900 C 135.58500,340.28500 135.33500,341.20200 135.75200,341.92100 C 135.96000,342.91100 136.40800,343.87900 136.26300,344.90000 C 136.03400,346.55600 135.13800,348.04600 134.02300,349.29600 C 133.07500,350.35800 132.20000,351.37900 130.98100,352.19200 C 127.47000,354.52500 123.77300,355.77500 119.93900,356.96300 C 113.98100,357.85900 108.10600,359.48400 102.03300,359.09900 C 101.46400,359.27500 101.18500,359.19100 100.61600,359.19300 C 100.05400,359.00500 99.491000,359.00500 98.699000,359.01600 C 95.543000,358.55800 92.418000,358.96400 89.220000,358.58900 C 88.460000,358.50600 87.662000,358.53300 86.928000,358.44300 C 83.866000,358.06800 83.116000,357.81800 79.688000,357.13100 C 76.532000,356.49800 73.532000,355.75600 70.428000,355.13100 C 66.178000,353.44300 61.616000,351.62000 59.147000,347.51600 C 59.168000,347.50600 59.189000,347.49500 59.209000,347.48500 C 58.886000,346.72500 58.011000,346.36000 57.240000,346.68300 C 56.480000,347.00600 56.115000,347.88100 56.438000,348.65200 C 58.584000,352.71400 62.584000,355.28800 66.824000,356.82900 C 67.136000,356.94400 67.376000,357.18300 67.688000,357.29800 C 71.271000,358.60000 75.021000,359.18300 78.740000,359.87100 C 82.240000,360.69400 85.365000,361.19400 89.230000,361.56900 C 92.178000,361.75700 95.112000,361.69600 98.122000,361.95800 C 98.367000,362.13200 98.852000,362.00700 99.178000,362.00700 C 99.813000,362.05900 100.33400,362.21500 100.99000,362.13200 C 101.49000,362.05900 101.84400,362.12100 102.31300,362.10100 C 104.12500,361.99700 105.92800,362.15300 107.74000,362.01800 C 112.23000,361.66400 116.39600,360.63300 120.94800,359.75800 C 122.00000,359.56000 122.96900,359.26800 123.93700,358.82000 C 125.96800,357.89300 128.04100,357.23700 130.06200,356.26800 C 132.84300,354.94500 135.01000,352.96600 136.89500,350.50800 C 138.01000,349.05000 138.87400,347.52900 139.21800,345.70600 C 139.56200,343.88300 139.00100,342.07700 138.35600,340.43100 z "
   style="fill:#dcdcdc;stroke:#000000;stroke-width:0.50000000" />
			<path
   id="path168"
   d="M 138.35600,336.74600 C 137.93900,336.02700 137.02300,335.77700 136.30400,336.19400 C 135.58500,336.60000 135.33500,337.51700 135.75200,338.23600 C 135.96000,339.22600 136.40800,340.19400 136.26300,341.21500 C 136.03400,342.87200 135.13800,344.36100 134.02300,345.61100 C 133.07500,346.67300 132.20000,347.69400 130.98100,348.50700 C 127.47000,350.84000 123.77300,352.09000 119.93900,353.27800 C 113.98100,354.17400 108.10600,355.79900 102.03300,355.41400 C 101.46400,355.59000 101.18500,355.50600 100.61600,355.50800 C 100.05400,355.32000 99.491000,355.32000 98.699000,355.33100 C 95.543000,354.87300 92.418000,355.27900 89.220000,354.90400 C 88.460000,354.82100 87.662000,354.84800 86.928000,354.75800 C 83.866000,354.38300 83.116000,354.13300 79.688000,353.44600 C 76.532000,352.81300 73.532000,352.07100 70.428000,351.44600 C 66.178000,349.75800 61.616000,347.93600 59.147000,343.83100 C 59.168000,343.82100 59.189000,343.81000 59.209000,343.80000 C 58.886000,343.04000 58.011000,342.67500 57.240000,342.99800 C 56.480000,343.32100 56.115000,344.19600 56.438000,344.96600 C 58.584000,349.02800 62.584000,351.60200 66.824000,353.14300 C 67.136000,353.25800 67.376000,353.49700 67.688000,353.61200 C 71.271000,354.91400 75.021000,355.49800 78.740000,356.18500 C 82.240000,357.00800 85.365000,357.50800 89.230000,357.88300 C 92.178000,358.07100 95.112000,358.01000 98.122000,358.27200 C 98.367000,358.44600 98.852000,358.32100 99.178000,358.32100 C 99.813000,358.37300 100.33400,358.52900 100.99000,358.44600 C 101.49000,358.37300 101.84400,358.43600 102.31300,358.41500 C 104.12500,358.31100 105.92800,358.46700 107.74000,358.33200 C 112.23000,357.97800 116.39600,356.94700 120.94800,356.07200 C 122.00000,355.87400 122.96900,355.58200 123.93700,355.13400 C 125.96800,354.20700 128.04100,353.55100 130.06200,352.58200 C 132.84300,351.25900 135.01000,349.28000 136.89500,346.82200 C 138.01000,345.36400 138.87400,343.84300 139.21800,342.02000 C 139.56200,340.19700 139.00100,338.39200 138.35600,336.74600 z "
   style="fill:#dcdcdc;stroke:#000000;stroke-width:0.50000000" />
			<path
   id="path170"
   d="M 138.35600,333.06100 C 137.93900,332.34200 137.02300,332.09200 136.30400,332.50900 C 135.58500,332.91500 135.33500,333.83200 135.75200,334.55100 C 135.96000,335.54100 136.40800,336.50900 136.26300,337.53000 C 136.03400,339.18600 135.13800,340.67600 134.02300,341.92600 C 133.07500,342.98800 132.20000,344.00900 130.98100,344.82200 C 127.47000,347.15500 123.77300,348.40500 119.93900,349.59300 C 113.98100,350.48900 108.10600,352.11400 102.03300,351.72900 C 101.46400,351.90500 101.18500,351.82100 100.61600,351.82300 C 100.05400,351.63500 99.491000,351.63500 98.699000,351.64600 C 95.543000,351.18800 92.418000,351.59400 89.220000,351.21900 C 88.460000,351.13600 87.662000,351.16300 86.928000,351.07300 C 83.866000,350.69800 83.116000,350.44800 79.688000,349.76100 C 76.532000,349.12800 73.532000,348.38600 70.428000,347.76100 C 66.178000,346.07300 61.616000,344.25000 59.147000,340.14600 C 59.168000,340.13600 59.189000,340.12500 59.209000,340.11500 C 58.886000,339.35500 58.011000,338.99000 57.240000,339.31300 C 56.480000,339.63600 56.115000,340.51100 56.438000,341.28200 C 58.584000,345.34400 62.584000,347.91700 66.824000,349.45900 C 67.136000,349.57400 67.376000,349.81300 67.688000,349.92800 C 71.271000,351.23000 75.021000,351.81300 78.740000,352.50100 C 82.240000,353.32400 85.365000,353.82400 89.230000,354.19900 C 92.178000,354.38700 95.112000,354.32600 98.122000,354.58800 C 98.367000,354.76200 98.852000,354.63700 99.178000,354.63700 C 99.813000,354.68900 100.33400,354.84500 100.99000,354.76200 C 101.49000,354.68900 101.84400,354.75100 102.31300,354.73100 C 104.12500,354.62700 105.92800,354.78300 107.74000,354.64800 C 112.23000,354.29400 116.39600,353.26300 120.94800,352.38800 C 122.00000,352.19000 122.96900,351.89800 123.93700,351.45000 C 125.96800,350.52300 128.04100,349.86700 130.06200,348.89800 C 132.84300,347.57500 135.01000,345.59600 136.89500,343.13800 C 138.01000,341.68000 138.87400,340.15900 139.21800,338.33600 C 139.56400,336.50900 139.00100,334.70700 138.35600,333.06100 z "
   style="fill:#dcdcdc;stroke:#000000;stroke-width:0.50000000" />
			<path
   id="path172"
   d="M 138.35600,329.37600 C 137.93900,328.65700 137.02300,328.40700 136.30400,328.82400 C 135.58500,329.23000 135.33500,330.14700 135.75200,330.86600 C 135.96000,331.85600 136.40800,332.82400 136.26300,333.84500 C 136.03400,335.50100 135.13800,336.99100 134.02300,338.24100 C 133.07500,339.30300 132.20000,340.32400 130.98100,341.13700 C 127.47000,343.47000 123.77300,344.72000 119.93900,345.90800 C 113.98100,346.80400 108.10600,348.42900 102.03300,348.04300 C 101.46400,348.21900 101.18500,348.13500 100.61600,348.13700 C 100.05400,347.94900 99.491000,347.94900 98.699000,347.96000 C 95.543000,347.50200 92.418000,347.90800 89.220000,347.53300 C 88.460000,347.45000 87.662000,347.47700 86.928000,347.38700 C 83.866000,347.01200 83.116000,346.76200 79.688000,346.07500 C 76.532000,345.44200 73.532000,344.70000 70.428000,344.07500 C 66.178000,342.38700 61.616000,340.56500 59.147000,336.46000 C 59.168000,336.45000 59.189000,336.43900 59.209000,336.42900 C 58.886000,335.66900 58.011000,335.30400 57.240000,335.62700 C 56.480000,335.95000 56.115000,336.82500 56.438000,337.59600 C 58.584000,341.65800 62.584000,344.23100 66.824000,345.77300 C 67.136000,345.88800 67.376000,346.12700 67.688000,346.24200 C 71.271000,347.54400 75.021000,348.12800 78.740000,348.81500 C 82.240000,349.63800 85.365000,350.13800 89.230000,350.51300 C 92.178000,350.70100 95.112000,350.64000 98.122000,350.90200 C 98.367000,351.07600 98.852000,350.95100 99.178000,350.95100 C 99.813000,351.00300 100.33400,351.15900 100.99000,351.07600 C 101.49000,351.00300 101.84400,351.06600 102.31300,351.04500 C 104.12500,350.94100 105.92800,351.09700 107.74000,350.96200 C 112.23000,350.60800 116.39600,349.57700 120.94800,348.70200 C 122.00000,348.50400 122.96900,348.21200 123.93700,347.76400 C 125.96800,346.83700 128.04100,346.18100 130.06200,345.21200 C 132.84300,343.88900 135.01000,341.91000 136.89500,339.45200 C 138.01000,337.99400 138.87400,336.47300 139.21800,334.65000 C 139.56400,332.82400 139.00100,331.02100 138.35600,329.37600 z "
   style="fill:#dcdcdc;stroke:#000000;stroke-width:0.50000000" />
			<path
   id="path174"
   d="M 138.35600,325.69100 C 137.93900,324.97200 137.02300,324.72200 136.30400,325.13900 C 135.58500,325.54500 135.33500,326.46200 135.75200,327.18100 C 135.96000,328.17100 136.40800,329.13900 136.26300,330.16000 C 136.03400,331.81600 135.13800,333.30600 134.02300,334.55600 C 133.07500,335.61800 132.20000,336.63900 130.98100,337.45200 C 127.47000,339.78500 123.77300,341.03500 119.93900,342.22300 C 113.98100,343.11900 108.10600,344.74400 102.03300,344.35800 C 101.46400,344.53400 101.18500,344.45000 100.61600,344.45200 C 100.05400,344.26400 99.491000,344.26400 98.699000,344.27500 C 95.543000,343.81700 92.418000,344.22300 89.220000,343.84800 C 88.460000,343.76500 87.662000,343.79200 86.928000,343.70200 C 83.866000,343.32700 83.116000,343.07700 79.688000,342.39000 C 76.532000,341.75700 73.532000,341.01500 70.428000,340.39000 C 66.178000,338.70200 61.616000,336.88000 59.147000,332.77500 C 59.168000,332.76500 59.189000,332.75400 59.209000,332.74400 C 58.886000,331.98400 58.011000,331.61900 57.240000,331.94200 C 56.480000,332.26500 56.115000,333.14000 56.438000,333.91100 C 58.584000,337.97300 62.584000,340.54600 66.824000,342.08800 C 67.136000,342.20300 67.376000,342.44200 67.688000,342.55700 C 71.271000,343.85900 75.021000,344.44300 78.740000,345.13000 C 82.240000,345.95300 85.365000,346.45300 89.230000,346.82800 C 92.178000,347.01600 95.112000,346.95500 98.122000,347.21700 C 98.367000,347.39100 98.852000,347.26600 99.178000,347.26600 C 99.813000,347.31800 100.33400,347.47400 100.99000,347.39100 C 101.49000,347.31800 101.84400,347.38100 102.31300,347.36000 C 104.12500,347.25600 105.92800,347.41200 107.74000,347.27700 C 112.23000,346.92300 116.39600,345.89200 120.94800,345.01700 C 122.00000,344.81900 122.96900,344.52700 123.93700,344.07900 C 125.96800,343.15200 128.04100,342.49600 130.06200,341.52700 C 132.84300,340.20400 135.01000,338.22500 136.89500,335.76700 C 138.01000,334.30900 138.87400,332.78800 139.21800,330.96500 C 139.56400,329.13900 139.00100,327.33600 138.35600,325.69100 z "
   style="fill:#dcdcdc;stroke:#000000;stroke-width:0.50000000" />
			<path
   id="path176"
   d="M 138.35600,322.00600 C 137.93900,321.28700 137.02300,321.03700 136.30400,321.45400 C 135.58500,321.86000 135.33500,322.77700 135.75200,323.49600 C 135.96000,324.48600 136.40800,325.45400 136.26300,326.47500 C 136.03400,328.13100 135.13800,329.62100 134.02300,330.87100 C 133.07500,331.93300 132.20000,332.95400 130.98100,333.76700 C 127.47000,336.10000 123.77300,337.35000 119.93900,338.53800 C 113.98100,339.43400 108.10600,341.05900 102.03300,340.67300 C 101.46400,340.84900 101.18500,340.76500 100.61600,340.76700 C 100.05400,340.57900 99.491000,340.57900 98.699000,340.59000 C 95.543000,340.13200 92.418000,340.53800 89.220000,340.16300 C 88.460000,340.08000 87.662000,340.10700 86.928000,340.01700 C 83.866000,339.64200 83.116000,339.39200 79.688000,338.70500 C 76.532000,338.07200 73.532000,337.33000 70.428000,336.70500 C 66.178000,335.01700 61.616000,333.19500 59.147000,329.09000 C 59.168000,329.08000 59.189000,329.06900 59.209000,329.05900 C 58.886000,328.29900 58.011000,327.93400 57.240000,328.25700 C 56.480000,328.58000 56.115000,329.45500 56.438000,330.22600 C 58.584000,334.28800 62.584000,336.86100 66.824000,338.40300 C 67.136000,338.51800 67.376000,338.75700 67.688000,338.87200 C 71.271000,340.17400 75.021000,340.75800 78.740000,341.44500 C 82.240000,342.26800 85.365000,342.76800 89.230000,343.14300 C 92.178000,343.33100 95.112000,343.27000 98.122000,343.53200 C 98.367000,343.70600 98.852000,343.58100 99.178000,343.58100 C 99.813000,343.63300 100.33400,343.78900 100.99000,343.70600 C 101.49000,343.63300 101.84400,343.69600 102.31300,343.67500 C 104.12500,343.57100 105.92800,343.72700 107.74000,343.59200 C 112.23000,343.23800 116.39600,342.20700 120.94800,341.33200 C 122.00000,341.13400 122.96900,340.84200 123.93700,340.39400 C 125.96800,339.46700 128.04100,338.81100 130.06200,337.84200 C 132.84300,336.51900 135.01000,334.54000 136.89500,332.08200 C 138.01000,330.62400 138.87400,329.10300 139.21800,327.28000 C 139.56400,325.45400 139.00100,323.65100 138.35600,322.00600 z "
   style="fill:#dcdcdc;stroke:#000000;stroke-width:0.50000000" />
			<g
   id="g178">
				<line
   id="line180"
   y2="307.85400"
   x2="51.692001"
   y1="307.91699"
   x1="66.922997"
   style="fill:none;stroke:#000000;stroke-width:0.50000000" />
				<path
   id="path182"
   d="M 50.185000,307.84600 C 50.896000,307.58600 51.779000,307.13900 52.327000,306.66600 L 51.892000,307.85300 L 52.317000,309.04300 C 51.773000,308.56500 50.894000,308.11200 50.185000,307.84600 z " />
			</g>
			<g
   id="g184">
				<line
   id="line186"
   y2="326.49500"
   x2="34.812000"
   y1="313.15100"
   x1="42.154999"
   style="fill:none;stroke:#000000;stroke-width:0.50000000" />
				<path
   id="path188"
   d="M 34.084000,327.81500 C 34.195000,327.06600 34.226000,326.07700 34.072000,325.37000 L 34.906000,326.32000 L 36.155000,326.51600 C 35.475000,326.76500 34.657000,327.32000 34.084000,327.81500 z " />
			</g>
			<g
   id="g190">
				<line
   id="line192"
   y2="356.30801"
   x2="32.091000"
   y1="341.07700"
   x1="32.154999"
   style="fill:none;stroke:#000000;stroke-width:0.50000000" />
				<path
   id="path194"
   d="M 32.084000,357.81500 C 31.823000,357.10400 31.377000,356.22100 30.904000,355.67300 L 32.091000,356.10800 L 33.281000,355.68300 C 32.803000,356.22800 32.350000,357.10600 32.084000,357.81500 z " />
			</g>
			<g
   id="g196">
				<line
   id="line198"
   y2="381.52200"
   x2="42.310001"
   y1="368.46201"
   x1="34.471001"
   style="fill:none;stroke:#000000;stroke-width:0.50000000" />
				<path
   id="path200"
   d="M 43.084000,382.81500 C 42.493000,382.34100 41.654000,381.81800 40.965000,381.59400 L 42.205000,381.35100 L 43.003000,380.37100 C 42.876000,381.08400 42.944000,382.07100 43.084000,382.81500 z " />
			</g>
			<g
   id="g202">
				<line
   id="line204"
   y2="386.75400"
   x2="63.577999"
   y1="386.69101"
   x1="48.347000"
   style="fill:none;stroke:#000000;stroke-width:0.50000000" />
				<path
   id="path206"
   d="M 65.085000,386.76200 C 64.374000,387.02300 63.491000,387.46900 62.943000,387.94200 L 63.378000,386.75500 L 62.953000,385.56500 C 63.497000,386.04200 64.376000,386.49600 65.085000,386.76200 z " />
			</g>
			<g
   id="g208">
				<line
   id="line210"
   y2="307.85400"
   x2="137.62700"
   y1="307.91699"
   x1="122.39600"
   style="fill:none;stroke:#000000;stroke-width:0.50000000" />
				<path
   id="path212"
   d="M 139.13400,307.84600 C 138.42300,307.58600 137.54000,307.13900 136.99200,306.66600 L 137.42700,307.85300 L 137.00200,309.04300 C 137.54600,308.56500 138.42500,308.11200 139.13400,307.84600 z " />
			</g>
			<g
   id="g214">
				<line
   id="line216"
   y2="326.49500"
   x2="154.50700"
   y1="313.15100"
   x1="147.16499"
   style="fill:none;stroke:#000000;stroke-width:0.50000000" />
				<path
   id="path218"
   d="M 155.23500,327.81500 C 155.12400,327.06600 155.09200,326.07700 155.24600,325.37000 L 154.41200,326.32000 L 153.16300,326.51600 C 153.84400,326.76500 154.66200,327.32000 155.23500,327.81500 z " />
			</g>
			<g
   id="g220">
				<line
   id="line222"
   y2="356.30801"
   x2="157.22800"
   y1="341.07700"
   x1="157.16400"
   style="fill:none;stroke:#000000;stroke-width:0.50000000" />
				<path
   id="path224"
   d="M 157.23500,357.81500 C 157.49500,357.10400 157.94100,356.22100 158.41500,355.67300 L 157.22800,356.10800 L 156.03800,355.68300 C 156.51600,356.22800 156.96900,357.10600 157.23500,357.81500 z " />
			</g>
			<g
   id="g226">
				<line
   id="line228"
   y2="381.52200"
   x2="147.00999"
   y1="368.46201"
   x1="154.84801"
   style="fill:none;stroke:#000000;stroke-width:0.50000000" />
				<path
   id="path230"
   d="M 146.23500,382.81500 C 146.82600,382.34100 147.66500,381.81800 148.35400,381.59400 L 147.11300,381.35100 L 146.31500,380.37100 C 146.44300,381.08400 146.37500,382.07100 146.23500,382.81500 z " />
			</g>
			<g
   id="g232">
				<line
   id="line234"
   y2="386.75400"
   x2="125.74100"
   y1="386.69101"
   x1="140.97301"
   style="fill:none;stroke:#000000;stroke-width:0.50000000" />
				<path
   id="path236"
   d="M 124.23400,386.76200 C 124.94500,387.02300 125.82800,387.46900 126.37500,387.94200 L 125.94000,386.75500 L 126.36500,385.56500 C 125.82200,386.04200 124.94300,386.49600 124.23400,386.76200 z " />
			</g>
			<g
   id="g238">
				<line
   id="line240"
   y2="398.27399"
   x2="98.928001"
   y1="413.50500"
   x1="98.990997"
   style="fill:none;stroke:#000000;stroke-width:0.50000000" />
				<path
   id="path242"
   d="M 98.920000,396.76700 C 98.659000,397.47800 98.213000,398.36100 97.740000,398.90900 L 98.927000,398.47400 L 100.11700,398.89900 C 99.639000,398.35500 99.186000,397.47600 98.920000,396.76700 z " />
			</g>
			<g
   id="g244">
				<line
   id="line246"
   y2="277.35901"
   x2="96.614998"
   y1="292.59000"
   x1="96.678001"
   style="fill:none;stroke:#000000;stroke-width:0.50000000" />
				<path
   id="path248"
   d="M 96.607000,275.85200 C 96.346000,276.56300 95.900000,277.44600 95.427000,277.99400 L 96.614000,277.55900 L 97.804000,277.98400 C 97.327000,277.43900 96.874000,276.56100 96.607000,275.85200 z " />
			</g>
			<g
   id="g250">
				<line
   id="line252"
   y2="281.06799"
   x2="117.02500"
   y1="295.17099"
   x1="111.27100"
   style="fill:none;stroke:#000000;stroke-width:0.50000000" />
				<path
   id="path254"
   d="M 117.59300,279.67200 C 117.08100,280.23000 116.33200,280.87600 115.68500,281.20100 L 116.94800,281.25200 L 117.88600,282.09900 C 117.65200,281.41500 117.56800,280.42900 117.59300,279.67200 z " />
			</g>
			<g
   id="g256">
				<line
   id="line258"
   y2="281.06799"
   x2="75.508003"
   y1="295.17099"
   x1="81.262001"
   style="fill:none;stroke:#000000;stroke-width:0.50000000" />
				<path
   id="path260"
   d="M 74.940000,279.67200 C 75.452000,280.23000 76.201000,280.87600 76.848000,281.20100 L 75.585000,281.25200 L 74.647000,282.09900 C 74.881000,281.41500 74.964000,280.42900 74.940000,279.67200 z " />
			</g>
			<g
   id="g262">
				<line
   id="line264"
   y2="396.65900"
   x2="114.55200"
   y1="410.76199"
   x1="120.30600"
   style="fill:none;stroke:#000000;stroke-width:0.50000000" />
				<path
   id="path266"
   d="M 113.98300,395.26300 C 114.49500,395.82100 115.24400,396.46700 115.89100,396.79200 L 114.62800,396.84300 L 113.69000,397.69000 C 113.92400,397.00500 114.00800,396.02000 113.98300,395.26300 z " />
			</g>
			<g
   id="g268">
				<line
   id="line270"
   y2="396.09698"
   x2="79.160004"
   y1="410.19901"
   x1="73.405998"
   style="fill:none;stroke:#000000;stroke-width:0.50000000" />
				<path
   id="path272"
   d="M 79.728000,394.70100 C 79.216000,395.25900 78.467000,395.90400 77.820000,396.23000 L 79.083000,396.28100 L 80.021000,397.12800 C 79.787000,396.44300 79.704000,395.45700 79.728000,394.70100 z " />
			</g>
			<path
   id="path274"
   d="M 136.29400,329.14600 C 136.29400,329.15300 136.29300,329.16000 136.29400,329.16700 L 138.73200,325.20000 C 138.93600,324.68600 139.11400,324.15800 139.22100,323.59200 C 139.56500,321.76900 139.00200,319.96700 138.35600,318.32100 C 137.93900,317.60200 137.02300,317.35200 136.30400,317.76900 C 135.58500,318.17500 135.33500,319.09200 135.75200,319.81100 C 135.94500,320.72600 136.32200,321.62400 136.26600,322.56100 C 134.53600,320.48400 132.55600,318.79700 130.09400,317.62500 C 128.07300,316.65600 126.00000,316.00000 123.96900,315.07300 C 123.00000,314.62500 122.03100,314.33300 120.97900,314.13500 C 116.42700,313.26000 112.26000,312.22900 107.77100,311.87400 C 105.95900,311.73900 104.15700,311.89500 102.34400,311.79100 C 101.87500,311.77000 101.52100,311.83300 101.02100,311.76000 C 100.36500,311.67700 99.844000,311.83300 99.209000,311.88500 C 98.884000,311.88500 98.398000,311.76000 98.153000,311.93300 C 95.144000,312.19500 92.209000,312.13500 89.261000,312.32200 C 85.396000,312.69700 82.271000,313.19700 78.771000,314.02000 C 75.052000,314.70800 71.302000,315.29100 67.719000,316.59300 C 67.407000,316.70800 67.167000,316.94700 66.854000,317.06200 C 62.614000,318.60400 58.614000,321.17700 56.469000,325.23900 C 56.421000,325.35200 56.393000,325.46800 56.374000,325.58400 C 56.295000,325.89000 56.307000,326.22300 56.439000,326.53900 C 58.585000,330.60100 62.585000,333.17400 66.825000,334.71600 C 67.137000,334.83000 67.377000,335.07000 67.689000,335.18400 C 71.272000,336.48600 75.022000,337.07000 78.741000,337.75700 C 82.241000,338.58000 85.366000,339.08000 89.230000,339.45500 C 92.178000,339.64300 95.112000,339.58200 98.122000,339.84400 C 98.367000,340.01800 98.852000,339.89300 99.178000,339.89300 C 99.813000,339.94500 100.33400,340.10100 100.99000,340.01800 C 101.49000,339.94500 101.84400,340.00800 102.31300,339.98700 C 104.12500,339.88300 105.92800,340.03900 107.74000,339.90400 C 112.22900,339.55000 116.39600,338.51800 120.94800,337.64300 C 122.00000,337.44500 122.96900,337.15400 123.93700,336.70500 C 125.96800,335.77800 128.04100,335.12200 130.06200,334.15300 C 132.55400,332.97000 134.55000,331.25600 136.29400,329.14600 z M 130.98000,330.08100 C 127.47000,332.41400 123.77200,333.66400 119.93800,334.85200 C 113.98000,335.74800 108.10500,337.37300 102.03200,336.98700 C 101.46300,337.16300 101.18400,337.07900 100.61500,337.08100 C 100.05300,336.89300 99.490000,336.89300 98.698000,336.90400 C 95.542000,336.44600 92.417000,336.85200 89.219000,336.47700 C 88.459000,336.39400 87.661000,336.42100 86.927000,336.33100 C 83.865000,335.95600 83.115000,335.70600 79.687000,335.01900 C 76.531000,334.38600 73.531000,333.64400 70.427000,333.01900 C 66.364000,331.40600 62.037000,329.64600 59.505000,325.91100 C 62.032000,322.14700 66.378000,320.38100 70.456000,318.76200 C 73.560000,318.13700 76.560000,317.39500 79.717000,316.76200 C 83.144000,316.07400 83.894000,315.82400 86.956000,315.45000 C 87.690000,315.36000 88.487000,315.38800 89.248000,315.30400 C 92.446000,314.92900 95.571000,315.33500 98.727000,314.87700 C 99.519000,314.88800 100.08100,314.88800 100.64400,314.70000 C 101.21300,314.70200 101.49200,314.61700 102.06100,314.79400 C 108.13400,314.40800 114.00900,316.03300 119.96700,316.92900 C 123.80000,318.11700 127.49800,319.36700 131.00900,321.70000 C 132.22800,322.51200 133.10300,323.53300 134.05100,324.59600 C 134.40800,324.99600 134.73800,325.42300 135.03500,325.87000 C 134.73000,326.33300 134.38900,326.77400 134.02100,327.18700 C 133.07500,328.24800 132.20000,329.26900 130.98000,330.08100 z "
   style="fill:#dcdcdc;stroke:#000000;stroke-width:0.50000000" />
			<line
   id="line276"
   y2="322.56100"
   x2="136.26601"
   y1="325.80399"
   x1="134.90800"
   style="fill:#dcdcdc;stroke:#000000;stroke-width:0.50000000" />
			<g
   id="g278">
				<line
   id="line280"
   y2="312.81500"
   x2="75.209000"
   y1="326.81500"
   x1="81.209000"
   style="fill:none;stroke:#000000;stroke-width:0.50000000" />
				<path
   id="path282"
   d="M 74.616000,311.42900 C 75.138000,311.97800 75.898000,312.61100 76.551000,312.92500 L 75.289000,312.99800 L 74.366000,313.86100 C 74.588000,313.17200 74.654000,312.18600 74.616000,311.42900 z " />
			</g>
			<g
   id="g284">
				<line
   id="line286"
   y2="312.81500"
   x2="114.11000"
   y1="326.81500"
   x1="108.11000"
   style="fill:none;stroke:#000000;stroke-width:0.50000000" />
				<path
   id="path288"
   d="M 114.70300,311.42900 C 114.18200,311.97800 113.42100,312.61100 112.76900,312.92500 L 114.03100,312.99800 L 114.95400,313.86100 C 114.73100,313.17200 114.66500,312.18600 114.70300,311.42900 z " />
			</g>
			<g
   id="g290">
				<path
   id="path292"
   d="M 73.095000,381.55400 C 87.845000,385.30400 112.34500,388.05400 125.59500,382.05400"
   style="fill:none;stroke:#000000" />
				<path
   id="path294"
   d="M 128.89000,380.56200 C 127.59800,381.84100 126.11800,383.69600 125.39500,385.27600 L 125.15800,382.25100 L 123.04100,380.07800 C 124.70600,380.57800 127.07700,380.68800 128.89000,380.56200 z " />
			</g>
			<g
   id="g296">
				<text
   id="text298"
   transform="translate(69.59520,386.6792)"><tspan
     id="tspan300"
     style="font-size:9.3500004px;font-family:Liberation Sans"
     y="0"
     x="0">I</tspan></text>



			</g>
		</g><g
   id="g302">
			<line
   id="line304"
   y2="138.36900"
   x2="51.230000"
   y1="138.43201"
   x1="66.460999"
   style="fill:none;stroke:#000000;stroke-width:0.50000000" />
			<path
   id="path306"
   d="M 49.723000,138.36100 C 50.434000,138.10100 51.317000,137.65500 51.865000,137.18100 L 51.430000,138.36800 L 51.855000,139.55800 C 51.311000,139.08100 50.432000,138.62700 49.723000,138.36100 z " />
		</g><g
   id="g308">
			<line
   id="line310"
   y2="157.00999"
   x2="34.348999"
   y1="143.66600"
   x1="41.692001"
   style="fill:none;stroke:#000000;stroke-width:0.50000000" />
			<path
   id="path312"
   d="M 33.622000,158.33000 C 33.733000,157.58100 33.764000,156.59300 33.611000,155.88500 L 34.445000,156.83500 L 35.694000,157.03100 C 35.013000,157.28000 34.194000,157.83500 33.622000,158.33000 z " />
		</g><g
   id="g314">
			<line
   id="line316"
   y2="186.82300"
   x2="31.629000"
   y1="171.59200"
   x1="31.691999"
   style="fill:none;stroke:#000000;stroke-width:0.50000000" />
			<path
   id="path318"
   d="M 31.622000,188.33000 C 31.361000,187.61900 30.915000,186.73600 30.442000,186.18800 L 31.629000,186.62300 L 32.819000,186.19800 C 32.341000,186.74200 31.888000,187.62200 31.622000,188.33000 z " />
		</g><g
   id="g320">
			<line
   id="line322"
   y2="212.03700"
   x2="41.847000"
   y1="198.97701"
   x1="34.008999"
   style="fill:none;stroke:#000000;stroke-width:0.50000000" />
			<path
   id="path324"
   d="M 42.622000,213.33000 C 42.031000,212.85700 41.192000,212.33300 40.503000,212.11000 L 41.743000,211.86700 L 42.541000,210.88700 C 42.414000,211.60000 42.482000,212.58600 42.622000,213.33000 z " />
		</g><g
   id="g326">
			<line
   id="line328"
   y2="217.26900"
   x2="63.115002"
   y1="217.20599"
   x1="47.883999"
   style="fill:none;stroke:#000000;stroke-width:0.50000000" />
			<path
   id="path330"
   d="M 64.623000,217.27700 C 63.912000,217.53700 63.029000,217.98400 62.481000,218.45700 L 62.916000,217.27000 L 62.491000,216.08000 C 63.035000,216.55800 63.914000,217.01100 64.623000,217.27700 z " />
		</g><g
   id="g332">
			<line
   id="line334"
   y2="138.36900"
   x2="137.16400"
   y1="138.43201"
   x1="121.93300"
   style="fill:none;stroke:#000000;stroke-width:0.50000000" />
			<path
   id="path336"
   d="M 138.67100,138.36100 C 137.96000,138.10100 137.07700,137.65500 136.52900,137.18100 L 136.96400,138.36800 L 136.53900,139.55800 C 137.08300,139.08100 137.96300,138.62700 138.67100,138.36100 z " />
		</g><g
   id="g338">
			<line
   id="line340"
   y2="157.00999"
   x2="154.04500"
   y1="143.66600"
   x1="146.70200"
   style="fill:none;stroke:#000000;stroke-width:0.50000000" />
			<path
   id="path342"
   d="M 154.77300,158.33000 C 154.66200,157.58100 154.63100,156.59300 154.78400,155.88500 L 153.95000,156.83500 L 152.70100,157.03100 C 153.38100,157.28000 154.20000,157.83500 154.77300,158.33000 z " />
		</g><g
   id="g344">
			<line
   id="line346"
   y2="186.82300"
   x2="156.76500"
   y1="171.59200"
   x1="156.70200"
   style="fill:none;stroke:#000000;stroke-width:0.50000000" />
			<path
   id="path348"
   d="M 156.77300,188.33000 C 157.03300,187.61900 157.47900,186.73600 157.95300,186.18800 L 156.76600,186.62300 L 155.57600,186.19800 C 156.05300,186.74200 156.50700,187.62200 156.77300,188.33000 z " />
		</g><g
   id="g350">
			<line
   id="line352"
   y2="212.03700"
   x2="146.54700"
   y1="198.97701"
   x1="154.38499"
   style="fill:none;stroke:#000000;stroke-width:0.50000000" />
			<path
   id="path354"
   d="M 145.77300,213.33000 C 146.36400,212.85700 147.20300,212.33300 147.89200,212.11000 L 146.65100,211.86700 L 145.85300,210.88700 C 145.98000,211.60000 145.91300,212.58600 145.77300,213.33000 z " />
		</g><g
   id="g356">
			<line
   id="line358"
   y2="217.26900"
   x2="125.27900"
   y1="217.20599"
   x1="140.50999"
   style="fill:none;stroke:#000000;stroke-width:0.50000000" />
			<path
   id="path360"
   d="M 123.77200,217.27700 C 124.48300,217.53700 125.36600,217.98400 125.91300,218.45700 L 125.47800,217.27000 L 125.90300,216.08000 C 125.35900,216.55800 124.48000,217.01100 123.77200,217.27700 z " />
		</g><g
   id="g362">
			<line
   id="line364"
   y2="228.78999"
   x2="98.464996"
   y1="244.02100"
   x1="98.528000"
   style="fill:none;stroke:#000000;stroke-width:0.50000000" />
			<path
   id="path366"
   d="M 98.458000,227.28200 C 98.197000,227.99300 97.751000,228.87600 97.278000,229.42400 L 98.465000,228.98900 L 99.655000,229.41400 C 99.177000,228.87000 98.724000,227.99100 98.458000,227.28200 z " />
		</g><g
   id="g368">
			<line
   id="line370"
   y2="107.87400"
   x2="96.153000"
   y1="123.10500"
   x1="96.216003"
   style="fill:none;stroke:#000000;stroke-width:0.50000000" />
			<path
   id="path372"
   d="M 96.145000,106.36600 C 95.884000,107.07700 95.438000,107.96000 94.965000,108.50800 L 96.152000,108.07300 L 97.342000,108.49800 C 96.864000,107.95400 96.411000,107.07500 96.145000,106.36600 z " />
		</g><g
   id="g374">
			<line
   id="line376"
   y2="111.58300"
   x2="116.56200"
   y1="125.68700"
   x1="110.80900"
   style="fill:none;stroke:#000000;stroke-width:0.50000000" />
			<path
   id="path378"
   d="M 117.13000,110.18800 C 116.61800,110.74600 115.86900,111.39200 115.22200,111.71700 L 116.48500,111.76800 L 117.42300,112.61500 C 117.18900,111.93000 117.10600,110.94400 117.13000,110.18800 z " />
		</g><g
   id="g380">
			<line
   id="line382"
   y2="111.58300"
   x2="75.045998"
   y1="125.68700"
   x1="80.800003"
   style="fill:none;stroke:#000000;stroke-width:0.50000000" />
			<path
   id="path384"
   d="M 74.478000,110.18800 C 74.990000,110.74600 75.739000,111.39200 76.386000,111.71700 L 75.123000,111.76800 L 74.185000,112.61500 C 74.418000,111.93000 74.502000,110.94400 74.478000,110.18800 z " />
		</g><g
   id="g386">
			<line
   id="line388"
   y2="227.17400"
   x2="114.08900"
   y1="241.27699"
   x1="119.84300"
   style="fill:none;stroke:#000000;stroke-width:0.50000000" />
			<path
   id="path390"
   d="M 113.52100,225.77800 C 114.03300,226.33600 114.78200,226.98200 115.42900,227.30700 L 114.16600,227.35800 L 113.22800,228.20500 C 113.46200,227.52000 113.54500,226.53500 113.52100,225.77800 z " />
		</g><g
   id="g392">
			<line
   id="line394"
   y2="226.61099"
   x2="78.696999"
   y1="240.71400"
   x1="72.943001"
   style="fill:none;stroke:#000000;stroke-width:0.50000000" />
			<path
   id="path396"
   d="M 79.266000,225.21500 C 78.754000,225.77300 78.005000,226.41900 77.358000,226.74400 L 78.621000,226.79500 L 79.559000,227.64200 C 79.325000,226.95800 79.241000,225.97200 79.266000,225.21500 z " />
		</g><g
   id="g398">
			<path
   id="path400"
   d="M 139.14100,183.52100 C 138.53200,182.31700 137.72300,181.22400 136.86400,180.18100 C 136.96200,180.31000 137.05900,180.43900 137.15700,180.56800 C 137.03200,180.24000 136.78200,179.99800 136.59500,179.70900 C 136.09500,179.04800 135.15400,178.91600 134.49300,179.41200 C 133.82900,179.91200 133.69600,180.85000 134.19600,181.51400 C 134.27000,181.61500 134.34800,181.72100 134.42300,181.82300 C 134.40000,181.76800 134.37600,181.71400 134.35300,181.65900 C 135.04800,182.83500 135.99800,183.83500 136.58000,185.07700 C 137.01000,185.78400 137.93200,186.01100 138.63900,185.58100 C 139.34600,185.15100 139.57000,184.22900 139.14100,183.52100 L 139.14100,183.52100 z "
   style="fill:#dcdcdc;stroke:#000000;stroke-width:0.50000000" />
			<path
   id="path402"
   d="M 134.18100,184.35300 C 134.18100,184.36000 134.18000,184.36700 134.18100,184.37400 L 136.61900,180.40700 C 136.82300,179.89300 137.00100,179.36500 137.10800,178.79800 C 137.45200,176.97500 136.88900,175.17300 136.24300,173.52700 C 135.82600,172.80800 134.91000,172.55800 134.19100,172.97500 C 133.47200,173.38100 133.22200,174.29800 133.63900,175.01700 C 133.83200,175.93200 134.20900,176.83000 134.15300,177.76700 C 132.42300,175.69000 130.44300,174.00300 127.98100,172.83100 C 125.96000,171.86200 123.88700,171.20600 121.85600,170.27900 C 120.88700,169.83100 119.91800,169.53900 118.86600,169.34100 C 114.31400,168.46600 110.14700,167.43400 105.65800,167.08000 C 103.84600,166.94500 102.04400,167.10100 100.23100,166.99700 C 99.762000,166.97600 99.408000,167.03900 98.908000,166.96600 C 98.252000,166.88300 97.731000,167.03900 97.096000,167.09100 C 96.771000,167.09100 96.285000,166.96600 96.040000,167.13900 C 93.031000,167.40100 90.096000,167.34100 87.148000,167.52800 C 83.283000,167.90300 80.158000,168.40300 76.658000,169.22600 C 72.939000,169.91400 69.189000,170.49700 65.606000,171.79900 C 65.294000,171.91400 65.054000,172.15300 64.741000,172.26800 C 60.501000,173.81000 56.501000,176.38300 54.356000,180.44500 C 54.308000,180.55800 54.280000,180.67400 54.261000,180.79000 C 54.182000,181.09600 54.194000,181.42800 54.326000,181.74500 C 56.472000,185.80700 60.472000,188.38100 64.712000,189.92200 C 65.024000,190.03700 65.264000,190.27600 65.576000,190.39100 C 69.159000,191.69300 72.909000,192.27700 76.628000,192.96400 C 80.128000,193.78700 83.253000,194.28700 87.117000,194.66200 C 90.065000,194.85000 92.999000,194.78900 96.009000,195.05100 C 96.254000,195.22500 96.739000,195.10000 97.065000,195.10000 C 97.700000,195.15200 98.221000,195.30800 98.877000,195.22500 C 99.377000,195.15200 99.731000,195.21500 100.20000,195.19400 C 102.01200,195.09000 103.81500,195.24600 105.62700,195.11100 C 110.11600,194.75700 114.28300,193.72600 118.83500,192.85100 C 119.88700,192.65300 120.85600,192.36100 121.82400,191.91300 C 123.85500,190.98600 125.92800,190.33000 127.94900,189.36100 C 130.44100,188.17600 132.43700,186.46200 134.18100,184.35300 z M 128.86800,185.28700 C 125.35800,187.62000 121.66000,188.87000 117.82600,190.05800 C 111.86800,190.95400 105.99300,192.57900 99.920000,192.19400 C 99.351000,192.37000 99.072000,192.28600 98.503000,192.28800 C 97.941000,192.10000 97.378000,192.10000 96.586000,192.11100 C 93.429000,191.65300 90.304000,192.05900 87.107000,191.68400 C 86.347000,191.60100 85.549000,191.62800 84.815000,191.53800 C 81.753000,191.16300 81.003000,190.91300 77.575000,190.22600 C 74.419000,189.59300 71.419000,188.85100 68.315000,188.22600 C 64.252000,186.61300 59.925000,184.85300 57.393000,181.11800 C 59.920000,177.35400 64.266000,175.58800 68.344000,173.96900 C 71.448000,173.34400 74.448000,172.60200 77.605000,171.96900 C 81.032000,171.28100 81.782000,171.03100 84.844000,170.65700 C 85.578000,170.56700 86.375000,170.59500 87.136000,170.51100 C 90.334000,170.13600 93.459000,170.54200 96.615000,170.08400 C 97.407000,170.09500 97.969000,170.09500 98.532000,169.90700 C 99.101000,169.90900 99.380000,169.82400 99.949000,170.00000 C 106.02200,169.61500 111.89700,171.24000 117.85500,172.13600 C 121.68800,173.32400 125.38600,174.57400 128.89700,176.90700 C 130.11600,177.71900 130.99100,178.74000 131.93900,179.80300 C 132.29600,180.20300 132.62600,180.63000 132.92300,181.07700 C 132.61900,181.54000 132.27800,181.98100 131.91000,182.39400 C 130.96200,183.45400 130.08700,184.47500 128.86800,185.28700 z "
   style="fill:#dcdcdc;stroke:#000000;stroke-width:0.50000000" />
			<line
   id="line404"
   y2="177.76700"
   x2="134.15300"
   y1="181.00999"
   x1="132.79500"
   style="fill:#dcdcdc;stroke:#000000;stroke-width:0.50000000" />
		</g><g
   id="g406">
			<line
   id="line408"
   y2="143.33000"
   x2="74.747002"
   y1="157.33000"
   x1="80.747002"
   style="fill:none;stroke:#000000;stroke-width:0.50000000" />
			<path
   id="path410"
   d="M 74.154000,141.94400 C 74.676000,142.49300 75.436000,143.12500 76.089000,143.44000 L 74.827000,143.51300 L 73.904000,144.37600 C 74.125000,143.68700 74.191000,142.70100 74.154000,141.94400 z " />
		</g><g
   id="g412">
			<line
   id="line414"
   y2="143.33000"
   x2="113.64800"
   y1="157.33000"
   x1="107.64800"
   style="fill:none;stroke:#000000;stroke-width:0.50000000" />
			<path
   id="path416"
   d="M 114.24000,141.94400 C 113.71900,142.49300 112.95800,143.12500 112.30600,143.44000 L 113.56800,143.51300 L 114.49100,144.37600 C 114.26900,143.68700 114.20300,142.70100 114.24000,141.94400 z " />
		</g><g
   id="g418">
			<path
   id="path420"
   d="M 69.543000,198.50600 C 84.293000,202.25600 108.79300,205.00600 122.04300,199.00600"
   style="fill:none;stroke:#000000" />
			<path
   id="path422"
   d="M 125.33700,197.51400 C 124.04600,198.79300 122.56500,200.64800 121.84300,202.22900 L 121.60600,199.20400 L 119.48900,197.03100 C 121.15400,197.53000 123.52500,197.64100 125.33700,197.51400 z " />
		</g><g
   id="g424">
			<text
   id="text426"
   transform="translate(64.13280,202.6938)"><tspan
     id="tspan428"
     style="font-size:9.3500004px;font-family:Liberation Sans"
     y="0"
     x="0">I</tspan></text>



		</g><g
   id="g430">
			<line
   id="line432"
   y2="157.71899"
   x2="96.614998"
   y1="172.95000"
   x1="96.678001"
   style="fill:none;stroke:#000000;stroke-width:0.50000000" />
			<path
   id="path434"
   d="M 96.607000,156.21200 C 96.346000,156.92300 95.900000,157.80600 95.427000,158.35400 L 96.614000,157.91900 L 97.804000,158.34400 C 97.327000,157.80000 96.874000,156.92100 96.607000,156.21200 z " />
		</g>
</svg>