<?xml version="1.0" encoding="iso-8859-1"?>
<!-- Generator: Adobe Illustrator 11 Build 196, SVG Export Plug-In . SVG Version: 6.0.0 Build 78)  -->
<!DOCTYPE svg PUBLIC "-//W3C//DTD SVG 1.0//EN"    "http://www.w3.org/TR/2001/REC-SVG-20010904/DTD/svg10.dtd" [
	<!ENTITY ns_flows "http://ns.adobe.com/Flows/1.0/">
	<!ENTITY ns_svg "http://www.w3.org/2000/svg">
	<!ENTITY ns_xlink "http://www.w3.org/1999/xlink">
]>
<svg
	 width="147.401" height="105.546" viewBox="0 0 147.401 105.546"
	 style="overflow:visible;enable-background:new 0 0 147.401 105.546" xml:space="preserve">
	<metadata>
<?xpacket begin='﻿' id='W5M0MpCehiHzreSzNTczkc9d'?><x:xmpmeta xmlns:x='adobe:ns:meta/' x:xmptk='XMP toolkit 3.0-29, framework 1.6'>
<rdf:RDF xmlns:rdf='http://www.w3.org/1999/02/22-rdf-syntax-ns#' xmlns:iX='http://ns.adobe.com/iX/1.0/'>

 <rdf:Description rdf:about=''
  xmlns:pdf='http://ns.adobe.com/pdf/1.3/'>
 </rdf:Description>

 <rdf:Description rdf:about=''
  xmlns:tiff='http://ns.adobe.com/tiff/1.0/'>
 </rdf:Description>

 <rdf:Description rdf:about=''
  xmlns:xap='http://ns.adobe.com/xap/1.0/'
  xmlns:xapGImg='http://ns.adobe.com/xap/1.0/g/img/'>
  <xap:CreateDate>2006-10-15T19:40:00Z</xap:CreateDate>
  <xap:ModifyDate>2006-10-15T19:40:00Z</xap:ModifyDate>
  <xap:CreatorTool>Illustrator</xap:CreatorTool>
  <xap:Thumbnails>
   <rdf:Alt>
    <rdf:li rdf:parseType='Resource'>
     <xapGImg:format>JPEG</xapGImg:format>
     <xapGImg:width>256</xapGImg:width>
     <xapGImg:height>184</xapGImg:height>
     <xapGImg:image>/9j/4AAQSkZJRgABAgEASABIAAD/7QAsUGhvdG9zaG9wIDMuMAA4QklNA+0AAAAAABAASAAAAAEA&#xA;AQBIAAAAAQAB/+4ADkFkb2JlAGTAAAAAAf/bAIQABgQEBAUEBgUFBgkGBQYJCwgGBggLDAoKCwoK&#xA;DBAMDAwMDAwQDA4PEA8ODBMTFBQTExwbGxscHx8fHx8fHx8fHwEHBwcNDA0YEBAYGhURFRofHx8f&#xA;Hx8fHx8fHx8fHx8fHx8fHx8fHx8fHx8fHx8fHx8fHx8fHx8fHx8fHx8fHx8f/8AAEQgAuAEAAwER&#xA;AAIRAQMRAf/EAaIAAAAHAQEBAQEAAAAAAAAAAAQFAwIGAQAHCAkKCwEAAgIDAQEBAQEAAAAAAAAA&#xA;AQACAwQFBgcICQoLEAACAQMDAgQCBgcDBAIGAnMBAgMRBAAFIRIxQVEGE2EicYEUMpGhBxWxQiPB&#xA;UtHhMxZi8CRygvElQzRTkqKyY3PCNUQnk6OzNhdUZHTD0uIIJoMJChgZhJRFRqS0VtNVKBry4/PE&#xA;1OT0ZXWFlaW1xdXl9WZ2hpamtsbW5vY3R1dnd4eXp7fH1+f3OEhYaHiImKi4yNjo+Ck5SVlpeYmZ&#xA;qbnJ2en5KjpKWmp6ipqqusra6voRAAICAQIDBQUEBQYECAMDbQEAAhEDBCESMUEFURNhIgZxgZEy&#xA;obHwFMHR4SNCFVJicvEzJDRDghaSUyWiY7LCB3PSNeJEgxdUkwgJChgZJjZFGidkdFU38qOzwygp&#xA;0+PzhJSktMTU5PRldYWVpbXF1eX1RlZmdoaWprbG1ub2R1dnd4eXp7fH1+f3OEhYaHiImKi4yNjo&#xA;+DlJWWl5iZmpucnZ6fkqOkpaanqKmqq6ytrq+v/aAAwDAQACEQMRAD8A6fc3Nva28tzcypBbwqZJ&#xA;ppGCIiKKszM1AABuScVSnyv5v0TzPDe3Gjyme2sblrNrig4SOsaSFoyCar+8Aqab+2+Kp3irsVdi&#xA;rsVdirsVdirsVdirsVdirsVdirsVdirsVdirsVdirsVdirsVdirsVdirsVdirsVdirsVdirC/wAu&#xA;v+Oh5y/7b8//AFDW+Ks0xV2KuxV2KuxV2KuxV2KuxV2KuxV2KuxV2KuxV2KuxV2KuxV2KuxV2Kux&#xA;V2KuxV2KuxV2KuxV2KuxV2KoXUtTsdNtHu72X0oEoK0LMzMaKiIoLO7E0VVBJOwxVKxq3md0SZdI&#xA;t4opT+6huL1o7kjcgNGlvLGHoK8fVPzxVU/xJJFT69pGoWo6FlhW6H0Cze4an+x+dMVcvnDy5yKX&#xA;F59RcKXCahHLYsyg8Syi6WEsATSq4qr2fmby3ezi3stWs7m4b7MMNxFI5+SqxOKpnirsVdirsVdi&#xA;rsVdirFtd88paakdF0Wxk1vXVAMtnAwSOBW3DXEzVWPboD7dKjFVGKz/ADQul53Ooabp5rVYrWJ5&#xA;tj0DtLXcd+O2KqU2q/mTopaa/wBOtdc05N2bTS8d2qgEsxik+Fz2VUxVkOgeYtI1+wF7pk4mirwk&#xA;Q/DJG46pIh3Vh+PUVFDiqZ4q7FXYq7FXYq7FXYqgbzXdEsZRDe6hbWspoBHNNHGxJ6bMQd8VQ03m&#xA;rQY5BFHcm7lK8zHZRy3jBSSAzLbLKVBKmhOKrP8AEVxN/vBo99cg7LJIiWiD3YXLRSgfKMn2xVS/&#xA;SnmpY3nfTLWaOFis1raXbyT0HXh6sNujN/kkr/rYqmum6nY6naLd2UolhYlTsVZWXZkdGAZHU7Mr&#xA;AEd8VRWKuxV2KoPVdVs9Ls3u7tysakKiKCzyOxokcaDd3c7Ko64qldhYXMlwNe14BLpAfqFgCHSz&#xA;RxSgpUPcODR3H+om1SyqZqTH/pdyP37/AAQwjcqDuEX/ACj1Y/wGKoqIyGNTKAJCPiC7gHwqcVae&#xA;CB5EleNWljqI3IBZa9aHt0xVA65aXF3aiCKys75XP7yO+J9MDxCiOXmfbb54qlml6D5osLY20erW&#xA;qWwd3ghFm7ekHYsIldrjeNa/COIoNgaADFUfoep3lxLeWGoLEuo6e6LK0HIRyxyoHjmRXqyBviXi&#xA;WNCp3PXFU2xV2KuxV2Ksd89a7d6TogGnjlq2ozR2GmLSo9ec0DHZgAqgtUileuKojyp5XsPLulrZ&#xA;29ZZ5D6t7ePUyzztu8jsxZjU9KnbFU6xV2KvNPMOraFofmlfMei3cUgDJb+bLa3POMQu4RJ5Wjqi&#xA;TRu2yt8TdqDlVV6XirsVdirsVdiqV6zqtxaSWtnZQpcajfOywJI5jjRI15SSyMAzcUFNgKkkDbqF&#xA;Ut1bS/ON5bJbvd2U0BkR7iKJbiyaREPL0vVWS5YKzAciBuKjpiqYaFpotrSSOXSrLTSxIMNk3qxu&#xA;rAVJYw253OxquKphBZ2luztbwRwtIQZDGqqWI2HKgFcVXzGURsYgGkG6qxoD7VxVCEmT/S7UETr8&#xA;M0DUUsB+w3gwr8J/gcVS2/064E513QKfXmp9cs2PCK8RBx4SV2SZQKJJTanFvh6KpnpOrWeq2Yur&#xA;UsAGMc0Mg4yxSrs8UqHdXU9R/DFUbirTMqqWYhVUVZjsAB3OKsf0RDrF3/iG4q1ruNEgb7Kwkcfr&#xA;VP8Afk+5U9oyBsWeqqdNbtJciSQgxx/3KD+Yjdm9+wxVVKIWDFQWWvFqbivWmKrsVdiq2SRI0aSR&#xA;gkaAs7saAAbkknFUnuvOHl62v59Pa5MuoWwUy2lvHJPLV6kKEiVyWpuQPsggmgIxVip87ro+p6lq&#xA;us6LqsT3Rht1dLWsEUEBcwo03MIzl53LNWlTxBIAJVTf/lYI/wCpb17/AKQT/wA14q7/AJWCP+pb&#xA;17/pBP8AzXirv+Vgj/qW9e/6QT/zXirv+Vgj/qW9e/6QT/zXirGfMPnFbrzf5XnfRtWjjtHvJDZy&#xA;2hWWdzAAhhTkefpfabfbrirIbn8zLS1hM11oOtQQggGSSz4LVjQCrOBuTQYqgn/NF7uWW30zRdU5&#xA;RowklNk07xzUPBHgSSOgJ6sXqP5TirErYa/q8vq+dbbzFfQA7aVZ2jw2rAGq+oUMPL/gAR/McVZB&#xA;rfmLSIfJuo6TZ+VtU06y+qyrFWwEVvE3ElZHo1AFejMaYqmOg+fpI9D05JtA1u4mS2hWSeKyZkdh&#xA;GAXRiwJVjuDiqO/5WEP+pa17/pBP/NeKu/5WEP8AqWte/wCkH/m/FXf8rCH/AFLWvf8ASD/zfirv&#xA;+VhD/qWte/6Qf+b8VSj/ABzHqXmCzv8ATdG1SRtNFzZ6hG9r9iOf0pJKFGakqGBDwP2hUD4uOKsv&#xA;svNXl29vI7K11CGW8lVmW2DUlHChZWQ0ZGANeLAN122OKpoCCAQag7gjFW8Vdiq0KoYsAAzfaPc0&#xA;xVSFuUuTLGeKyf3ydiQNmHv2OKpNrts2mXX+I7KNi0YC6vbxgk3Fqu3PgPtSwfaU0qVqncUVT2Ga&#xA;GeGOaF1khlUPHIhDKysKhgR1BGKseupX8zObG3V10BWI1C7YFPrQU/7zwA0LRMf7yToR8K1qSqrI&#xA;1UKAqiijYAdAMVbxV2KuxV2KsYvY7vzHqMllHLJD5etS0OokKgF3MsiloUevMInApIQADVl3O6qp&#xA;vEum6TFHZWlusMIDMI4lCgbM7MelSxU1J3J64qxW/Oq+YTqUunC6n064T6vptxHMkNrX0yrSNE/H&#xA;14zI3WjKyjao6qsr0KxnsNFsbGdxJNbQRxO4JIqigbFtyB4nfFUfirsVdirEfzIsr4aXa65pylr/&#xA;AEC4W9VAKl4QOM8fUbFDU+wxVV0by9oGrRQa5PdTa41yvqQTXT/ukVhQolsgSJB2KlOVftEkYqya&#xA;GGKGJIoUWOKMBUjQBVUDoABsBiq/FWF/mLevepaeULBz+ktbdRMU3aCzjblLM3YV48Vr9rem4xVm&#xA;MUUcUSRRqEjjUKijoFUUAGKr8VdirsVQGu299c6Lf29hJ6V7LbypbSA8SsjIQpDfsmvft1xViGjX&#xA;mr6Gukx36XVjpqKsGpJLHYx2Fu7RHiImhHrcfWAAZmI33OKssurXR9XBt7qASlOLqWBV0YAOrI4o&#xA;6MvMUIIIxVKbBLny1dwafNK0vl+WlvpsnAH6tI8lIreV6lip5hImpTYK3xULKsoxV2KuxV2KuxVj&#xA;kcF55dnK20El35flYsIIV5zWTsakRxr8UkBJJ4qCyHoCuyKsjxV2KuxV2KuxV2KpVfappWiRpAkZ&#xA;a4uGkkttOtUDTzO7F5GSMU6u9XdqKK1YjFUD+gLzWpVufMSotuN4tGiblF3p9Zk29Y7n4BRPZvtY&#xA;qyJVCgKooo2AHQDFW8VdirsVdirsVYPL5X8weWb2e+8nCKfTrl/VuvLk7enHzI3a1l6RE/yn4foC&#xA;gKoiP8xQlY7/AMv6vZzpQPW25xFu4jlDUemKqUvnDzZqoMHlzy5c27sSpv8AWR9Uij2qH9KrSSL2&#xA;+Hf2xVM/KvlFNGe4v7y6fUtdvqfXtRl2JA6RxINo0FOg/UAAqyLFXYq7FXYq7FVksUU0TxSoskUi&#xA;lJI3AZWVhQgg7EEYqx4aHqGiTG40P/SrOh56RO5qqmlfqszE8NkAEb/B2BQYqj7LU9I1yGSDifVg&#xA;ZGubC4UxzwujB05xtuPiWqsPhNKqSMVTXFXYq7FXYq7FXYq7FXYq7FXYql+pa9pOmukV1OBcygmG&#xA;0jDS3EgHUpDGGkanchdsVQBl806oR6CDQ7E7maUJNfMP8mP44Ifm5c+KA4qj9M0Sw04ySQq0l1PT&#xA;6zeTMZZ5ePTnI1TxH7Kj4V7AYqmGKuxV2KuxV2KuxV2KuxV2KuxV2KuxV2KuxV2KuxV2KuxVL9U0&#xA;LTtSaOWdGju4K/Vr2FjFcRV6hJFo3E/tKfhbuDiqB5+adM/vEXXbMVq8fp296o7VQlLeX3IMfspx&#xA;VF6d5i0jUJjbQzGO9VeT2M6tBcKPEwyhX4/5QFPfFUzxV2KuxV2KuxV2KpLe+YHe6k0/RoBqGoxH&#xA;jcEtwtrc0r+/mAajU39NQX6VAB5YqtXy9fXVG1bVrq4J3a3tGNjAD/k+iRcU/wBeZsVR+m6NpWmK&#xA;62FrFb+pQysigO5HeR/tOfdjiqNxV2KuxV2KuxV2KuxV2KuxV2KuxV2KuxV2KuxV2KuxV2KuxV2K&#xA;uxV2KoXUNK0zUoRDqFrFdxA8lSZFcBv5l5A0PuMVS0+VxAtdL1G909h0X1jcxbdAYrr1gq+ycfmM&#xA;VWJr95psi2/mKJIEYhYtWhr9TkJ2AkDEtbsT2clewcnbFU+BruOmKt4q7FXYqoWdlaWVultZwpb2&#xA;8deEUahVFTU7DxJqcVV8VdirsVdirsVdirsVdirsVdirsVdirsVdirsVdirsVdirsVdirsVdirsV&#xA;dirsVdiq2SNJEaORQ8bgq6MKgg7EEHFXIiIioihUUBVVRQADYAAYquxVNf8AC2vf8sv/AA8f/NWK&#xA;u/wtr3/LL/w8f/NWKu/wtr3/ACy/8PH/AM1Yq7/C2vf8sv8Aw8f/ADVirv8AC2vf8sv/AA8f/NWK&#xA;u/wtr3/LL/w8f/NWKu/wtr3/ACy/8PH/AM1Yq7/C2vf8sv8Aw8f/ADVirv8AC2vf8sv/AA8f/NWK&#xA;u/wtr3/LL/w8f/NWKu/wtr3/ACy/8PH/AM1Yq7/C2vf8sv8Aw8f/ADVirv8AC2vf8sv/AA8f/NWK&#xA;u/wtr3/LL/w8f/NWKu/wtr3/ACy/8PH/AM1Yq7/C2vf8sv8Aw8f/ADVirv8AC2vf8sv/AA8f/NWK&#xA;u/wtr3/LL/w8f/NWKu/wtr3/ACy/8PH/AM1Yq7/C2vf8sv8Aw8f/ADVirv8AC2vf8sv/AA8f/NWK&#xA;u/wtr3/LL/w8f/NWKu/wtr3/ACy/8PH/AM1Yq7/C2vf8sv8Aw8f/ADVirv8AC2vf8sv/AA8f/NWK&#xA;u/wtr3/LL/w8f/NWKu/wtr3/ACy/8PH/AM1Yq7/C2vf8sv8Aw8f/ADVirv8AC2vf8sv/AA8f/NWK&#xA;u/wtr3/LL/w8f/NWKu/wtr3/ACy/8PH/AM1Yq7/C2vf8sv8Aw8f/ADVir0DFXYq7FXYq7FXYq7FX&#xA;Yq7FXYq7FXYq7FXYq7FXYq7FXYq7FXYq7FXYq7FXYq7FXYq7FXYq7FXYq7FXYq83/Ter/wDLZL/w&#xA;ZxV36b1f/lsl/wCDOKu/Ter/APLZL/wZxV36b1f/AJbJf+DOKu/Ter/8tkv/AAZxV36b1f8A5bJf&#xA;+DOKu/Ter/8ALZL/AMGcVd+m9X/5bJf+DOKu/Ter/wDLZL/wZxV36b1f/lsl/wCDOKu/Ter/APLZ&#xA;L/wZxV36b1f/AJbJf+DOKu/Ter/8tkv/AAZxV36b1f8A5bJf+DOKu/Ter/8ALZL/AMGcVd+m9X/5&#xA;bJf+DOKu/Ter/wDLZL/wZxV36b1f/lsl/wCDOKu/Ter/APLZL/wZxV36b1f/AJbJf+DOKu/Ter/8&#xA;tkv/AAZxV36b1f8A5bJf+DOKu/Ter/8ALZL/AMGcVd+m9X/5bJf+DOKu/Ter/wDLZL/wZxV36b1f&#xA;/lsl/wCDOKu/Ter/APLZL/wZxV36b1f/AJbJf+DOKu/Ter/8tkv/AAZxV36b1f8A5bJf+DOKu/Te&#xA;r/8ALZL/AMGcVd+m9X/5bJf+DOKsf8yaneaXod5f2VlJqN5ClbeyiDM0kjEKoooZqVNWIGwxVJbL&#xA;zB5gs/NVj5f1x7O6k1O0muoJbGOWEwvblA6SLLLNyRhJ8Enw1IPw4qy3FXYq7FXYq7FXYq7FXYq7&#xA;FXYq7FXYq7FXYq7FXYq7FXYq7FXYq7FXYq7FXYq7FXYq7FXYq7FXYqlXmmfXoPL97J5fthd6yEpZ&#xA;QMUUF2YLyPqNGnwAlqFhWlMVSHyZpb2N/JcXWi6n+lruMLfa/qcthI78NxGBb3MxjSv2UjQL4+OK&#xA;szxV2KuxV2KuxV2KuxV2KuxV2KuxV2KuxVL77zBoNhJ6V9qVraSfyTzxxt9zMMVRVre2d5F61pPH&#xA;cRHYSROrr96kjFVbFXYq7FXYq7FXYq7FXYq7FXYq7FXYq7FXYq7FXYq7FUk1TWLuS9Oj6MEk1LiG&#xA;uriQFoLONvsvKARydv2IwQT1JC74qh18s6e0qwme9ubpfiu75ry5jkJO/wDuiSJQW/kVQoHboMVR&#xA;A0PWIADaa9cnj9iK8it7iKng3BIJm+Zlriq2nnW2mAB0/U4nBJLetYNG1Rtt9e5ggnstKdTXFV5u&#xA;/NsVHk06znTq6QXTiQDwQSQqjn5smKqtp5l0eeD1ZbhLORZHhlt7p0jlSWNirIw5EdqggkEUIJBx&#xA;VNAQQCDUHcEYq3irsVdirsVUrm5t7W2lubiRYreBGkmlc0VUUVZifADFWC266/57Y3ZubjRfKNR9&#xA;UjgrFeXoB/vHciscTdl/aFfY4q7zP5R8n+W/KVzcWOkW1YWt1V5oxcOA88aNR5vUbcMe+KplqH5a&#xA;eXpJTeaR6mh6oopFeWDNEBTcK0QIjZK9VoKjauKu8teZdWi1ZvLPmZUXWFQy2N9EOMN9CvV0H7Mi&#xA;/tp8yBTFWW4q7FXYq7FXYq7FUHqmqW+m2yzTB3aSRIYIIwGkklkNFRASN+5qaAVJoATiqBGoeaZQ&#xA;Xg0e3ijP2UvL0xzf7JYILqMfRIcVWg+dLiZttP02JAKVE1+ZGJNSGDWPAAU6qa4qu/QWqT/73a3d&#xA;MG/vILVYbaI+ysEe4X6Jq++KoU+VtKWVolM9pesS9rqUVxM05p4vM0nMj9pH5K3Wh3xVEabrN3De&#xA;JpGthY9QcH6pdxgrBeKgqxjqTwkA3aImvdar0VTzFXYq7FUl1jU72S6Gj6OyjU5FD3Fy45JaQMSP&#xA;VZf2nahEadzufhBxVVsrC20m1TTtPBaeUtJLNKecju395cTN1ZmP39BQDZVF/V5IoUgtzxDE+rMT&#xA;VhXct7sx/wA+2Kq8USRRrGgoqigHX8Tiq/FUJqOlWGpRLFexetErchGWYKT/AJQUgN9OKqNr5d8v&#xA;2istrplpbq9eQigjQGvWvFRiqXeXYINP1rWNIs1VNOhFtdW8Kf3cDXCuskCL0QD0BJxH8/virIsV&#xA;dirsVdirDPzF5ahJonlhHKLrd5/pfElS1paD1p1DAggnbFWYxxxxRrHGoSNAFRFACqoFAAB0AxVg&#xA;n50XTReTlhBot1dxRv8AJA0/64RirPcVYl+ZenzSeXjq1mAuqaHIt/ZymooIyDKrEb8GQEsOhoK4&#xA;qyayu4byzgu4TWG5jSWM/wCS6hh+BxVXxV2KuxV2KpBryC+1vS9GmJFlcRXV3dRq5T1VtvSjWJuJ&#xA;DMpa5DMvQ8aHbYqqv+CvKAp6ejWcLL9mSCCOF12p8LxhWHXscVTDT9NttPiaK3MpRm5UmmmnI2Ao&#xA;pmeQqu32RtiqKxVZNDHNG0cgqrdex23BBHQjFVEW8kkTQXB5BSPTmBoxpuG26MD/AJ9sVQl5Y22q&#xA;WsmmaktZBR0kQlGqpqk8LD4kdG3qN1OKofSdSv7e8Gi6yed5xLWV+AFS7iTqaDZJkH206H7S7VCq&#xA;p5iqA1rVodKsGuXQzSsRFa2qU9Sed9o4kr3Y9+gFSdgcVU9A0qWwsmN04l1K7kNzqE614tM4AIWu&#xA;/CNQI0/yVFd8VTBY0V3cCjvTk3c0FBiq/FXYq7FUr1zX7PSYBzIlvpgRY2IYLJPJyVFRBv8AtyLU&#xA;0+EbnbFUEh8630ksim20izkAFvHMhubpAK8mcI6xB2rsOTBab8q0CrFdbsp9DF6NP1mU3MZa8vRJ&#xA;BfMjllLM9xc2z+jCxVK8ioUAfZC0oqnml6LqOo6dbX8OszrFdRrKqP8AWA68hXiw+smhHQ4qiR5a&#xA;8xjZfMUoXsPRDUHhVnZj9JxVv/DfmX/qZJf+RCf81Yq7/DfmX/qZJf8AkQn/ADVirGvM2k6zYeYv&#xA;LVxdawZFmuJrOG/eFQ8EtxHRFQcqH1ivE18MVZL/AIb8y/8AUyS/8iE/5qxVKvMOmeY7G1jc62bl&#xA;pjLCsctsjKS1tKablqc+PAnwY4qmv+G/Mv8A1Mkv/IhP+asVSXzpYazpflbUr28195rZYWjeB4VC&#xA;yer+7CMQ1aMXocVTDSvKvmWDTLOD9PPb+lBGn1dIFKx8UA4Cr9F6Yqiv8N+Zf+pkl/5EJ/zVirv8&#xA;N+Zf+pkl/wCRCf8ANWKu/wAN+Zf+pkl/5EJ/zViqGv8ARdbsbK4vrnzNMlvbRtNMwgBoqAsaAPvs&#xA;OgxVI9EtrzXJrdrzzNFHqUTm406zjeKW5iohAdqNxJ4kiRV5JSq8j1xVlL3nnOzlje5s7S/sUBW5&#xA;eyaRLlqkcZEgl+ABN+SeqxNfh3HFlUfomu2WrWqSxMI7ihFxZuR60LoxjkR16ji6la4qmWKuxV2K&#xA;rSiMysQCy14nuK7HFUBrmlfpKx9KOT0LuF1nsbmlTFcR7o9O6/ssv7Skr3xVboWsDUrVvVj+r6hb&#xA;N6OoWRNWhmA3Fe6sPiRv2lIOKqdjotx+kP0nqs4u75AyWiIpSC3R+ojQliXYbNI2/YcQSMVTfFXY&#xA;q7FXYq7FUm0zSrh9SuNX1IE3heSGyiJUpBbK5CcOP7UqgO5NTvx6DFVLXdda0v4LK1WS6vpFLJY2&#xA;3AykFXUO/I8Y4w1Pjei123O2KqNv5Te5W4uNYuZGu7/e9t7WWSK248AghCgguAg4lm3brQfZCqfW&#xA;lrb2lrFa20Yit4EWOKNeiqooAPoxVWxV2KuxVJ/Nnl5Nf0OfT/U9G4NJbO5H2op4zyjcEbjfY03p&#xA;XFUu8necG1Ivo+sILHzRYjjfWTUHqUH9/D2aNuu3T5UJVRHm9Wf9Cqqlq6rbcgN/hActX2piqfyS&#xA;JGjSSMEjQFndjQADckk4qwN7o+etfto7IlvKWjTCe5u9wt7dxk8Io+zRRn7R7+FOLFVn2KuxV2Ku&#xA;xVQvbO2vrOezuU9S3uEaKVKkVVxQ7ihHzGKscbypqOnwWD6VqEt0dIAFhp14IFgMaxGH0vUhijlU&#xA;8GorMWAO5U4qjtC18ahdzWsgeC7hUNNZzoI546Kg5FQWBVmLUZSyns2Ku1TSZ4dRi1nSlpel4ob6&#xA;BQgW5t2kVXLk0/eRJVkavbiduiqeYq7FXYq7FXYqlWp6Et1dx6haTtY6pEvprdxgMHjry9KaNvhk&#xA;SvTuu/EipxVNcVdirsVdirsVQ9/qFhp9q91fXEdrbJ9qaVgiivQVPc9sVSc32s60fT0tZNN04/b1&#xA;OeMrO48LaCUfD/xklX5Iw3xVMtK0bTtLheOzi4tK3O4mcl5ZX6c5ZGJd292OKo7FXYq7FXYq7FXY&#xA;qk3mHyloevpH+kID9YgNba8iYxzxGtQUkXfrvQ1Fe2KpDP5F82AwR2nnCcW1o3qWy3lpDdyhwpQM&#xA;0zFC54seo98VVD+XUupPG3mjXLvW0jIb6oONpasVNVZ4YerKRseWKsutbW2tLeO2tYkgt4VCRQxq&#xA;ERVGwCqKADFVXFXYq7FXYq7FXYqgNV0TT9TSP6yhE0JLW11ExjnhY/tRyLRl9x0PQgjFUuW/1rRz&#xA;6eqo2o6eNk1S2jJmQdvrNvGDX/jJEKeKIN8VTix1Cx1C2W6sbiO6tnrxmhYOpI6iqk9MVRGKuxV2&#xA;KuxV2KuxV2KuxVJ7jzXokcz28MzXtzGSslvYxyXTow/Zk9FXEZ/1yMVUzd+aL88bW0TSID1uL0rP&#xA;P/sIIHKD2Z5du6HFVWy8s6fBcx3t00mpalH9i+vCHdSdj6SALFDX/itF98VTfFXYq7FXYq7FXYq7&#xA;FXYq7FXYq7FXYq7FXYq7FXYq7FXYq7FXYqlN95a065umvoTJYakwo1/Zt6UrAdPUFGjlA7CVWAxV&#xA;QE3mzTyBNBFrVuP9225W1uh84pW9B/dhInsuKrx5u0iMhdQ9bS26E30TwRgnt65HoE/6shxVOVZW&#xA;UMpDKwqrDcEHuMVbxV2KuxV2KsfOm6trZLauWsdNqeOkwyfvJB43U8Z6H/fUZ4/zM4NAqndtbW9t&#xA;BHb20SQW8ShYoY1CIqjoFVaADFVXFXYq7FXYq7FXYq7FXYq7FXYq7FXYq7FXYq7FXYq7FXYq7FXY&#xA;q7FXYq7FXYq0yqylWAZWFGU7gg9jiqQNoF1pbGfy46Qx15SaPKSLR/H0iAxtm90BTxQncKp9GWZF&#xA;Z14MQCyVrQ9xUYquxVV+qXX++ZP+BP8ATFXfVLr/AHzJ/wACf6Yq76pdf75k/wCBP9MVd9Uuv98y&#xA;f8Cf6Yq76pdf75k/4E/0xV31S6/3zJ/wJ/pirvql1/vmT/gT/TFXfVLr/fMn/An+mKu+qXX++ZP+&#xA;BP8ATFXfVLr/AHzJ/wACf6Yq76pdf75k/wCBP9MVd9Uuv98yf8Cf6Yq76pdf75k/4E/0xV31S6/3&#xA;zJ/wJ/pirvql1/vmT/gT/TFXfVLr/fMn/An+mKu+qXX++ZP+BP8ATFXfVLr/AHzJ/wACf6Yq76pd&#xA;f75k/wCBP9MVd9Uuv98yf8Cf6Yq76pdf75k/4E/0xV31S6/3zJ/wJ/pirvql1/vmT/gT/TFXfVLr&#xA;/fMn/An+mKu+qXX++ZP+BP8ATFXfVLr/AHzJ/wACf6Yq76pdf75k/wCBP9MVd9Uuv98yf8Cf6Yq7&#xA;6pdf75k/4E/0xV31S6/3zJ/wJ/pirvql1/vmT/gT/TFXfVLr/fMn/An+mKv/2Q==</xapGImg:image>
    </rdf:li>
   </rdf:Alt>
  </xap:Thumbnails>
 </rdf:Description>

 <rdf:Description rdf:about=''
  xmlns:dc='http://purl.org/dc/elements/1.1/'>
  <dc:format>image/svg+xml</dc:format>
 </rdf:Description>

</rdf:RDF>
</x:xmpmeta>
                                                                                                                                                                                                                                                                                                                                                                                                                                                                                                                                                                                                                                                                                                                                                                                                                                                                                                                                                                                                                                                                                                                                                                                                                                                                                                                                                                                                                                                                                                                                                                                                                                                                                                                                                                                                                                                                                                                                                                                                                                                                                                                                <?xpacket end='w'?>
			</metadata>
		<g id="Layer_1">
			<rect style="fill:#BFBFBF;" width="147.401" height="49.447"/> 
			<g>
				<g>
					<g>
						<polygon style="fill:#404040;stroke:#000000;stroke-width:0.3215;" points="72.507,20.578 81.201,17.569 73.064,21.863 "/>
						<polygon style="fill:#BFBFBF;stroke:#000000;stroke-width:0.3215;" points="72.897,21.936 64.203,24.944 72.339,20.65 "/>
					</g>
					<circle style="fill:none;stroke:#000000;stroke-width:0.5;" cx="72.794" cy="21.23" r="10.34"/> 
					<circle style="fill:none;stroke:#000000;stroke-width:0.475;" cx="72.793" cy="21.23" r="9.823"/> 
					<circle style="fill:#FFFFFF;stroke:#000000;stroke-width:0.047;" cx="72.793" cy="21.23" r="0.971"/> 
				</g>
				<polygon style="fill:#FFFFFF;" points="109.141,21.464 37.853,21.405 37.577,22.031 109.417,22.09 "/>
				<g>
					<line style="fill:none;stroke:#808080;stroke-width:0.5;" x1="34.564" y1="26.249" x2="34.501" y2="28.5"/>
					<path style="fill:none;stroke:#808080;stroke-width:0.5;" d="M35.252,25.808c0.447,1.294,0.281,1.989,0.114,2.597"/>
					<path style="fill:none;stroke:#808080;stroke-width:0.5;" d="M36.555,26.141c0,0,0.262,0.257,0.267,0.69"/>
					<path style="fill:none;stroke:#808080;stroke-width:0.5;" d="M17.454,13.091c-0.687,0.614-6.417,7.428-6.844,8.039"/>
					<path style="fill:none;stroke:#808080;stroke-width:0.5;" d="M19.215,15.93c-1.284,1.399-2.229,2.188-2.74,2.973"/>
					<g>
						<path style="fill:none;stroke:#000000;stroke-width:0.5;" d="M0.282,27.299c3.36-1.594,5.389-6.377,6.331-7.427
							c0.942-1.049,7.536-8.132,8.921-8.146c1.385-0.015,2.688,0.318,2.688,0.318l1.304,0.419l1.994,0.239l1.129,0.334l1.384-0.101
							l1.128,0.248l0.61,0.427"/>
						<path style="fill:none;stroke:#000000;stroke-width:0.5;" d="M25.342,13.875l1.989-0.28c0,0,2.336-0.198,2.771-0.029
							c0.435,0.169,2.429,0.408,2.692,0.751c0.264,0.344,0.793,1.291,0.793,1.291"/>
						<path style="fill:none;stroke:#000000;stroke-width:0.5;" d="M30.391,16.42c0,0,4.841-0.83,5.62-0.838
							c0.779-0.008,2.174,0.843,2.263,1.102s0.715,2.157,0.633,2.591c-0.082,0.434-1.021,1.743-1.708,2.356s-2.327,1.063-3.02,1.071
							"/>
						<path style="fill:none;stroke:#000000;stroke-width:0.5;" d="M34.432,21.92c0,0-1.195,1.658-2.32,1.756"/>
						<path style="fill:none;stroke:#000000;stroke-width:0.5;" d="M32.017,22.811c0,0-0.5,1.911-1.536,2.181"/>
						<polyline style="fill:none;stroke:#000000;stroke-width:0.5;" points="30.126,24.216 30.052,25.43 29.97,25.863 
							28.853,26.654 28.35,28.218 "/>
						<path style="fill:none;stroke:#000000;stroke-width:0.5;" d="M39.63,22.125c2.52,0.84,2.628,2.917,2.114,3.442"/>
						<path style="fill:none;stroke:#000000;stroke-width:0.5;" d="M40.862,24.018c0,0,0.615,0.86,0.454,1.987"/>
						<polyline style="fill:none;stroke:#000000;stroke-width:0.5;" points="40.603,24.021 38.613,24.214 38.458,25.948 
							40.883,26.009 "/>
						<path style="fill:none;stroke:#000000;stroke-width:0.5;" d="M38.375,26.382l-0.602,0.439l-0.943,0.875l-0.774,0.528
							l-1.204,0.792l-6.021,3.959c0,0-3.963,1.947-4.911,2.39c-0.948,0.443-3.104,1.332-3.879,1.686
							c-0.775,0.354-4.232,1.083-5.438,1.615c-1.207,0.532-4.732,2.994-5.161,3.345"/>
					</g>
				</g>
				<line style="fill:none;stroke:#000000;stroke-width:0.5;" x1="37.891" y1="21.451" x2="109.18" y2="21.51"/>
				<line style="fill:none;stroke:#000000;stroke-width:0.5;" x1="37.615" y1="22.076" x2="109.456" y2="22.135"/>
				<g>
					<line style="fill:none;stroke:#808080;stroke-width:0.5;" x1="112.926" y1="26.512" x2="113.036" y2="28.762"/>
					<path style="fill:none;stroke:#808080;stroke-width:0.5;" d="M112.229,26.086c-0.419,1.303-0.239,1.994-0.06,2.599"/>
					<path style="fill:none;stroke:#808080;stroke-width:0.5;" d="M110.934,26.446c0,0-0.257,0.263-0.253,0.695"/>
					<path style="fill:none;stroke:#808080;stroke-width:0.5;" d="M129.758,13c0.699,0.599,6.571,7.292,7.01,7.894"/>
					<path style="fill:none;stroke:#808080;stroke-width:0.5;" d="M128.056,15.875c1.313,1.372,2.274,2.141,2.802,2.915"/>
					<g>
						<path style="fill:none;stroke:#000000;stroke-width:0.5;" d="M147.222,26.847c-3.393-1.523-5.521-6.264-6.484-7.293
							c-0.963-1.029-7.704-7.973-9.089-7.958c-1.385,0.014-2.681,0.374-2.681,0.374l-1.294,0.447l-1.989,0.281l-1.122,0.358
							l-1.387-0.072l-1.123,0.271l-0.602,0.439"/>
						<path style="fill:none;stroke:#000000;stroke-width:0.5;" d="M121.888,13.948l-1.995-0.239c0,0-2.339-0.149-2.771,0.029
							s-2.42,0.458-2.676,0.808c-0.256,0.349-0.766,1.307-0.766,1.307"/>
						<path style="fill:none;stroke:#000000;stroke-width:0.5;" d="M116.893,16.598c0,0-4.857-0.729-5.637-0.721
							c-0.779,0.008-2.155,0.889-2.239,1.149c-0.084,0.26-0.67,2.172-0.579,2.604c0.091,0.432,1.057,1.721,1.756,2.32
							c0.699,0.599,2.349,1.015,3.042,1.007"/>
						<path style="fill:none;stroke:#000000;stroke-width:0.5;" d="M112.967,22.181c0,0,1.229,1.633,2.356,1.708"/>
						<path style="fill:none;stroke:#000000;stroke-width:0.5;" d="M115.401,23.022c0,0,0.54,1.899,1.581,2.148"/>
						<polyline style="fill:none;stroke:#000000;stroke-width:0.5;" points="117.32,24.388 117.419,25.599 117.511,26.031 
							118.645,26.798 119.18,28.352 "/>
						<path style="fill:none;stroke:#000000;stroke-width:0.5;" d="M107.775,22.495c-2.502,0.893-2.567,2.971-2.042,3.485"/>
						<path style="fill:none;stroke:#000000;stroke-width:0.5;" d="M106.583,24.413c0,0-0.597,0.872-0.412,1.996"/>
						<polyline style="fill:none;stroke:#000000;stroke-width:0.5;" points="106.842,24.41 108.835,24.562 109.027,26.292 
							106.603,26.404 "/>
						<path style="fill:none;stroke:#000000;stroke-width:0.5;" d="M109.118,26.725l0.611,0.427l0.961,0.856l0.785,0.511
							l1.221,0.767l6.102,3.833c0,0,4.003,1.863,4.96,2.286s3.131,1.266,3.914,1.604c0.783,0.338,4.254,0.995,5.472,1.501
							c1.217,0.507,4.793,2.895,5.229,3.236"/>
					</g>
				</g>
			</g>
			<rect y="56.1" style="fill:#BFBFBF;" width="147.401" height="49.446"/> 
			<g>
				<g>
					<polygon style="fill:#404040;stroke:#000000;stroke-width:0.3215;" points="72.081,79.207 73.124,70.066 73.481,79.26 "/>
					<polygon style="fill:#BFBFBF;stroke:#000000;stroke-width:0.3215;" points="73.475,79.442 72.432,88.583 72.074,79.39 "/>
				</g>
				<circle style="fill:none;stroke:#000000;stroke-width:0.5;" cx="72.793" cy="79.23" r="10.34"/> 
				<circle style="fill:none;stroke:#000000;stroke-width:0.475;" cx="72.793" cy="79.23" r="9.823"/> 
				<circle style="fill:#FFFFFF;stroke:#000000;stroke-width:0.047;" cx="72.793" cy="79.23" r="0.971"/> 
			</g>
			<polygon style="fill:#FFFFFF;" points="109.141,79.464 37.853,79.405 37.577,80.031 109.417,80.09 "/>
			<g>
				<line style="fill:none;stroke:#808080;stroke-width:0.5;" x1="34.564" y1="84.249" x2="34.501" y2="86.5"/>
				<path style="fill:none;stroke:#808080;stroke-width:0.5;" d="M35.252,83.808c0.447,1.294,0.281,1.989,0.114,2.597"/>
				<path style="fill:none;stroke:#808080;stroke-width:0.5;" d="M36.555,84.141c0,0,0.262,0.257,0.267,0.69"/>
				<path style="fill:none;stroke:#808080;stroke-width:0.5;" d="M17.454,71.091c-0.687,0.614-6.417,7.428-6.844,8.039"/>
				<path style="fill:none;stroke:#808080;stroke-width:0.5;" d="M19.215,73.93c-1.284,1.399-2.229,2.188-2.74,2.973"/>
				<g>
					<path style="fill:none;stroke:#000000;stroke-width:0.5;" d="M0.282,85.299c3.36-1.594,5.389-6.377,6.331-7.427
						c0.942-1.049,7.536-8.132,8.921-8.146c1.385-0.015,2.688,0.318,2.688,0.318l1.304,0.419l1.994,0.239l1.129,0.334l1.384-0.101
						l1.128,0.248l0.61,0.427"/>
					<path style="fill:none;stroke:#000000;stroke-width:0.5;" d="M25.342,71.875l1.989-0.28c0,0,2.336-0.198,2.771-0.029
						c0.435,0.169,2.429,0.408,2.692,0.751c0.264,0.344,0.793,1.291,0.793,1.291"/>
					<path style="fill:none;stroke:#000000;stroke-width:0.5;" d="M30.391,74.42c0,0,4.841-0.83,5.62-0.838
						c0.779-0.008,2.174,0.843,2.263,1.102s0.715,2.157,0.633,2.591c-0.082,0.434-1.021,1.743-1.708,2.356s-2.327,1.063-3.02,1.071"
						/>
					<path style="fill:none;stroke:#000000;stroke-width:0.5;" d="M34.432,79.92c0,0-1.195,1.658-2.32,1.756"/>
					<path style="fill:none;stroke:#000000;stroke-width:0.5;" d="M32.017,80.811c0,0-0.5,1.911-1.536,2.181"/>
					<polyline style="fill:none;stroke:#000000;stroke-width:0.5;" points="30.126,82.216 30.052,83.43 29.97,83.863 28.853,84.654 
						28.35,86.218 "/>
					<path style="fill:none;stroke:#000000;stroke-width:0.5;" d="M39.63,80.125c2.52,0.84,2.628,2.917,2.114,3.442"/>
					<path style="fill:none;stroke:#000000;stroke-width:0.5;" d="M40.862,82.018c0,0,0.615,0.86,0.454,1.987"/>
					<polyline style="fill:none;stroke:#000000;stroke-width:0.5;" points="40.603,82.021 38.613,82.214 38.458,83.948 
						40.883,84.009 "/>
					<path style="fill:none;stroke:#000000;stroke-width:0.5;" d="M38.375,84.382l-0.602,0.439l-0.943,0.875l-0.774,0.528
						l-1.204,0.792l-6.021,3.959c0,0-3.963,1.947-4.911,2.39c-0.948,0.443-3.104,1.332-3.879,1.686
						c-0.775,0.354-4.232,1.083-5.438,1.615c-1.207,0.532-4.732,2.994-5.161,3.345"/>
				</g>
			</g>
			<line style="fill:none;stroke:#000000;stroke-width:0.5;" x1="37.891" y1="79.451" x2="109.18" y2="79.51"/>
			<line style="fill:none;stroke:#000000;stroke-width:0.5;" x1="37.615" y1="80.076" x2="109.456" y2="80.135"/>
			<g>
				<line style="fill:none;stroke:#808080;stroke-width:0.5;" x1="112.926" y1="84.512" x2="113.036" y2="86.762"/>
				<path style="fill:none;stroke:#808080;stroke-width:0.5;" d="M112.229,84.086c-0.419,1.303-0.239,1.994-0.06,2.599"/>
				<path style="fill:none;stroke:#808080;stroke-width:0.5;" d="M110.934,84.446c0,0-0.257,0.263-0.253,0.695"/>
				<path style="fill:none;stroke:#808080;stroke-width:0.5;" d="M129.758,71c0.699,0.599,6.571,7.292,7.01,7.894"/>
				<path style="fill:none;stroke:#808080;stroke-width:0.5;" d="M128.056,73.875c1.313,1.372,2.274,2.141,2.802,2.915"/>
				<g>
					<path style="fill:none;stroke:#000000;stroke-width:0.5;" d="M147.222,84.847c-3.393-1.523-5.521-6.264-6.484-7.293
						c-0.963-1.029-7.704-7.973-9.089-7.958c-1.385,0.014-2.681,0.374-2.681,0.374l-1.294,0.447l-1.989,0.281l-1.122,0.358
						l-1.387-0.072l-1.123,0.271l-0.602,0.439"/>
					<path style="fill:none;stroke:#000000;stroke-width:0.5;" d="M121.888,71.948l-1.995-0.239c0,0-2.339-0.149-2.771,0.029
						s-2.42,0.458-2.676,0.808c-0.256,0.349-0.766,1.307-0.766,1.307"/>
					<path style="fill:none;stroke:#000000;stroke-width:0.5;" d="M116.893,74.598c0,0-4.857-0.729-5.637-0.721
						c-0.779,0.008-2.155,0.889-2.239,1.149c-0.084,0.26-0.67,2.172-0.579,2.604c0.091,0.432,1.057,1.721,1.756,2.32
						c0.699,0.599,2.349,1.015,3.042,1.007"/>
					<path style="fill:none;stroke:#000000;stroke-width:0.5;" d="M112.967,80.181c0,0,1.229,1.633,2.356,1.708"/>
					<path style="fill:none;stroke:#000000;stroke-width:0.5;" d="M115.401,81.022c0,0,0.54,1.899,1.581,2.148"/>
					<polyline style="fill:none;stroke:#000000;stroke-width:0.5;" points="117.32,82.388 117.419,83.599 117.511,84.031 
						118.645,84.798 119.18,86.352 "/>
					<path style="fill:none;stroke:#000000;stroke-width:0.5;" d="M107.775,80.495c-2.502,0.893-2.567,2.971-2.042,3.485"/>
					<path style="fill:none;stroke:#000000;stroke-width:0.5;" d="M106.583,82.413c0,0-0.597,0.872-0.412,1.996"/>
					<polyline style="fill:none;stroke:#000000;stroke-width:0.5;" points="106.842,82.41 108.835,82.562 109.027,84.292 
						106.603,84.404 "/>
					<path style="fill:none;stroke:#000000;stroke-width:0.5;" d="M109.118,84.725l0.611,0.427l0.961,0.856l0.785,0.511l1.221,0.767
						l6.102,3.833c0,0,4.003,1.863,4.96,2.286s3.131,1.266,3.914,1.604c0.783,0.338,4.254,0.995,5.472,1.501
						c1.217,0.507,4.793,2.895,5.229,3.236"/>
				</g>
			</g>
			<g>
				<g>
					<text transform="matrix(1 0 0 1 3.2168 9.377)"><tspan x="0" y="0" style="font-family:'Helvetica'; font-size:9;">1</tspan></text>
				</g>
			</g>
			<g>
				<g>
					<text transform="matrix(1 0 0 1 3.2168 67.877)"><tspan x="0" y="0" style="font-family:'Helvetica'; font-size:9;">2</tspan></text>
				</g>
			</g>
		</g>
	</svg>
