<?xml version="1.0" encoding="iso-8859-1"?>
<!-- Generator: Adobe Illustrator 11 Build 196, SVG Export Plug-In . SVG Version: 6.0.0 Build 78)  -->
<!DOCTYPE svg PUBLIC "-//W3C//DTD SVG 1.0//EN"    "http://www.w3.org/TR/2001/REC-SVG-20010904/DTD/svg10.dtd" [
	<!ENTITY ns_flows "http://ns.adobe.com/Flows/1.0/">
	<!ENTITY ns_svg "http://www.w3.org/2000/svg">
	<!ENTITY ns_xlink "http://www.w3.org/1999/xlink">
]>
<svg
	 width="147.4" height="124.086" viewBox="0 0 147.4 124.086" style="overflow:visible;enable-background:new 0 0 147.4 124.086"
	 xml:space="preserve">
	<metadata>
<?xpacket begin='﻿' id='W5M0MpCehiHzreSzNTczkc9d'?><x:xmpmeta xmlns:x='adobe:ns:meta/' x:xmptk='XMP toolkit 3.0-29, framework 1.6'>
<rdf:RDF xmlns:rdf='http://www.w3.org/1999/02/22-rdf-syntax-ns#' xmlns:iX='http://ns.adobe.com/iX/1.0/'>

 <rdf:Description rdf:about=''
  xmlns:pdf='http://ns.adobe.com/pdf/1.3/'>
 </rdf:Description>

 <rdf:Description rdf:about=''
  xmlns:tiff='http://ns.adobe.com/tiff/1.0/'>
 </rdf:Description>

 <rdf:Description rdf:about=''
  xmlns:xap='http://ns.adobe.com/xap/1.0/'
  xmlns:xapGImg='http://ns.adobe.com/xap/1.0/g/img/'>
  <xap:CreateDate>2006-07-17T01:15:25Z</xap:CreateDate>
  <xap:ModifyDate>2006-07-17T01:15:25Z</xap:ModifyDate>
  <xap:CreatorTool>Illustrator</xap:CreatorTool>
  <xap:Thumbnails>
   <rdf:Alt>
    <rdf:li rdf:parseType='Resource'>
     <xapGImg:format>JPEG</xapGImg:format>
     <xapGImg:width>256</xapGImg:width>
     <xapGImg:height>216</xapGImg:height>
     <xapGImg:image>/9j/4AAQSkZJRgABAgEASABIAAD/7QAsUGhvdG9zaG9wIDMuMAA4QklNA+0AAAAAABAASAAAAAEA&#xA;AQBIAAAAAQAB/+4ADkFkb2JlAGTAAAAAAf/bAIQABgQEBAUEBgUFBgkGBQYJCwgGBggLDAoKCwoK&#xA;DBAMDAwMDAwQDA4PEA8ODBMTFBQTExwbGxscHx8fHx8fHx8fHwEHBwcNDA0YEBAYGhURFRofHx8f&#xA;Hx8fHx8fHx8fHx8fHx8fHx8fHx8fHx8fHx8fHx8fHx8fHx8fHx8fHx8fHx8f/8AAEQgA2AEAAwER&#xA;AAIRAQMRAf/EAaIAAAAHAQEBAQEAAAAAAAAAAAQFAwIGAQAHCAkKCwEAAgIDAQEBAQEAAAAAAAAA&#xA;AQACAwQFBgcICQoLEAACAQMDAgQCBgcDBAIGAnMBAgMRBAAFIRIxQVEGE2EicYEUMpGhBxWxQiPB&#xA;UtHhMxZi8CRygvElQzRTkqKyY3PCNUQnk6OzNhdUZHTD0uIIJoMJChgZhJRFRqS0VtNVKBry4/PE&#xA;1OT0ZXWFlaW1xdXl9WZ2hpamtsbW5vY3R1dnd4eXp7fH1+f3OEhYaHiImKi4yNjo+Ck5SVlpeYmZ&#xA;qbnJ2en5KjpKWmp6ipqqusra6voRAAICAQIDBQUEBQYECAMDbQEAAhEDBCESMUEFURNhIgZxgZEy&#xA;obHwFMHR4SNCFVJicvEzJDRDghaSUyWiY7LCB3PSNeJEgxdUkwgJChgZJjZFGidkdFU38qOzwygp&#xA;0+PzhJSktMTU5PRldYWVpbXF1eX1RlZmdoaWprbG1ub2R1dnd4eXp7fH1+f3OEhYaHiImKi4yNjo&#xA;+DlJWWl5iZmpucnZ6fkqOkpaanqKmqq6ytrq+v/aAAwDAQACEQMRAD8A9U4q7FXYq7FULN9V+v23&#xA;Mn6xxl9EDpT4edfwxVFYq7FXYq7FXYq7FXYq7FXYq7FXYq7FXYq7FXYq7FXYq7FXYq7FXYq7FXYq&#xA;7FXYq7FXYq7FWiaYqoyTgdMVUGuffFUO95bi/t0dOUzLIYn/AJQOPL79sVR63C4qqCVD3xVcGU98&#xA;VbxV2KuxV2KuxV2KuxV2KuxV2KuxV2KuxV2KuxV2KuxV2KuxV2KuxV2KuxV2KuxVSmegxVLp5sVQ&#xA;clxTviqGa/K3cMfDkHDkyfy8afrriqMW798VVVu/fFVZbv3xVVW798VVVu8VVBcKcVXiVD3xVcGB&#xA;74q3irsVdirsVdirsVdirsVdirsVdirsVdirsVdirsVdirsVdiqEhn1AQyvdWyK6CqR28nq8/lzW&#xA;GhxVC3Op2y2v1mctaxV4sbgGPifflt9PTFUDJPHJGJInDxuKq6kEEHuCMVS+eamKoF7uYXMQX+6I&#xA;b1D77cf44qiVu/fFVVbv3xVVW798VVlu/fFVVbv3xVVW798VVVu/fFVVbv3xVWW798VVVuhiqoLh&#xA;Tiq4SIe+Krqg98VbxV2KuxV2KuxV2KuxV2KuxV2KuxV2KuxV2KuxVQm6HFUi1SytLoATxLIUqUYj&#xA;4lJ/lbqPoxVJr+3LSrIs0kfHqikcWHgQwb8N8VSO/mvo72BYSjK3MlGquwC0qRy3rXtirhqN2n97&#xA;bMfFomVx+PBvwxVVXW7Qf3khh/4yq0f4uFxVGRXyuoZWDKehBqMVVlu/fFVZbv3xVVW798VVVu/f&#xA;FVVbv3xVVW798VVlu/fFVVbv3xVVW798VVVu/fFVZbv3xVUW6GKqgnQ4qvEinvirdRireKuxV2Ku&#xA;xV2KuxV2KuxV2KuxVRuPs4qk93iqTXeKsfvv977f/Vk/41xVdirWKqDWNmzcvSVXP7aDg3/BLQ4q&#xA;76rIn9zcyp7EiQf8OGb8cVXCTU06NFMPAhoj9/7z9WKrxqc6f3ttIB3ZOLj8Dy/4XFVVNas6gNKI&#xA;2PRZaxk/Q4U4qjEvAQCDUHocVVlu/fFVVbv3xVWW798VVVu/fFVVbv3xVVW798VVVu/fFVZbv3xV&#xA;VW798VVVu/fFVVbv3xVVW6B64qqCdDiq4Op74qh7+6WCBXMfq1mhj4+HqSqnLofs8uX0Yqiag4q3&#xA;irsVdirsVUbj7OKpPd4qk13irH77/e+3/wBWT/jXFV2KuxV2KuxV2KuxVogEUIqD1BxVQNhZ1qsY&#xA;jY9WiJjP3oVOKuEFwn91dSCnRX4uPxHL/hsVXCfU07RTDuQWiP3fvP14qqDVZE/vbeVB4gCQf8ky&#xA;zfhiqrFrNmzBfWVXPRGPFv8AgWocVRq3fviqqt374qqrd++Kqq3fviqst374qqrd++Kqq3fviqqt&#xA;374qqrd++Kqy3fviq27v7iOENAvNzJEpFCfgaRVc7fyoScVRMd174qio5g2KquKuxV2KqNx9nFUn&#xA;u8VSa7xVj99/vfb/AOrJ/wAa4quxV2KuxV2KuxV2KuxV2KuxV2KuxVa6I68XUMp6gioxVQ/R9qDW&#xA;NDCf+KmaP8EIGKtiK7T+6umP+TKquP8AheDfjiq8XOpJ1jjlHdlYofoUhh/w2Kr11Yr/AHsM0fvx&#xA;5j/kmXxVXh1e0kYKkyM/8nIcv+B64qjFu/fFVVbv3xVVW798VVVu/fFVVbv3xV1xdXBiX6uaP6kf&#xA;Lp9j1F9Tr/kVxVFxXXviqOguOm+KpjDLyFMVVsVdiqjcfZxVJ7vFUmu8VY/ff732/wDqyf8AGuKr&#xA;sVdirsVdirsVdirsVdirsVQWq61pGkWxutUvYLG3H+7biRY1JHYFiKn2GKsPm/OnyczFdKi1DXCt&#xA;QTptnLKtR25uI0+mtMVUj+dGiw/HqOha5ptqN5Ly5sgYUHi5iklYf8DirNtK1fTNXsItQ0y6jvLK&#xA;YVjniYMp8Rt0I7g7jFUZirsVdiqySGKVeMqK6+DAEfjiqj9QgXeLnD4CN2Uf8CDx/DFVwjvk/u7r&#xA;l7SoG/4h6eKrhd6ilOcKyDuY3of+BYAf8NiqousKv97HLEf8pCR/wScl/HFURBqltMaRTJIe4VgT&#xA;+GKq008kkarG/Bg8bE1I+FXDMNvFQRiqOhuKnriqZW03TFU2tpemKpipqAcVbxVRuPs4qk93iqTX&#xA;eKsfvv8Ae+3/ANWT/jXFV2KuxV2KuxV2KuxV2KqF5e2ljay3d5MlvawKXmnlYIiKOpZjsMVeaXv5&#xA;g+afNDPB5NiGm6RXifMd7HVpB0raW7faHgz7fI4qhbHyBokdyL/VTLruqn7V9qTm4b5IjfAoHag2&#xA;xVkiqqKFUBVUUCjYAYq3irErr6x5E1Q+ZdFiJ0OZx/iPSIh8HA7fW4U6LJH+0Bsw8OuKvXbO8tb2&#xA;0hvLSVZrW4RZYJV3VkcclYfMHFVfFXYq7FXYq7FXYq7FVKW3t5qetEklOnNQ368VQd7YxrEhikki&#xA;ImhoFdiu8qj7DEr+GKp1Cl2TH6UqgD+8EiFi3yKstPuxVN7eS6FwqCHlC3+7VcVB91NPwriqa2N2&#xA;rztBwlV03LNG6oQDTZyOB+/FU2sLy0uoi9tNHOg2LRsHAPzUnFUViqjcfZxVJ7vFUmu8VY/ff732&#xA;/wDqyf8AGuKrsVdirsVdirsVdirsVePapNJ+YHmK4a4cnydolwYbS0H2L67iNJJpf5o0b4UHQ/eM&#xA;VZSqqihEAVVACqBQADoAMVbxV2KuxVa6JIjI6h0cFWVhUEHYgg4qk35d6i/lfzDL5JvHP6KvOd35&#xA;Zmc1AFeU9nU90J5J7VxV6lirsVdirsVdirsVdirsVQ99/cr/AMZYf+Tq4qm9p2xVObTtiqc2nbFU&#xA;YtvAyyho1ImHGXb7Q3FD9+KojFVG4+ziqT3eKpNd4qx++/3vt/8AVk/41xVdirsVdirsVdirsVSL&#xA;z1rL6L5N1rVI24TWtnM8DeEpQiP/AIcjFWGeTdLj0vyrpdigoY7eMyEd5HHOQ/S7E4qnOKuxV2Ku&#xA;xV2KpP5q8vjWtL9GKQ22oW7rc6beL9qG5iNY3B+ex9sVZN+X3nL/ABJpDi7QW2u6c/1bWLLvHMv7&#xA;aj+SSnJT9HbFWU4q7FXYq7FXYq7FXYqh77+5X/jLD/ydXFU3tO2KpzadsVTm07YqmSCgxVdiqjcf&#xA;ZxVJ7vFUmu8VY/ff732/+rJ/xriq7FXYq7FXYq7FXYqwH89iw/KnXSq8jxthT2N3ECdvDFVDQ5vW&#xA;0TT5q19S2hep6nlGDiqOxV2KuxV2KuxV2Ksa17T9X0zVYvNvlxOerWqenfWFaLfWoNWib/ixeqN9&#xA;GKvRvLHmfSPMukRappcvqQSVWSNhxkikX7UUq/suvcfSNsVTbFXYq7FXYq7FXYqh73+5X/jLD/yd&#xA;XFU3tO2KpzadsVTm07YqmY6DFW8VUbj7OKpPd4qk13irH77/AHvt/wDVk/41xVdirsVdirsVdirs&#xA;VYh+benm/wDy18wwD9ize4/6RiJ/+ZeKsd8kyiXydobg1/0C2BJ8ViUH8RiqdYq7FXYq7FXYq7FX&#xA;YqxTU7DWfLWsS+bPKyerJJQ65otaR3ka9XT+WdRuD3+8Mq9Q8u+YNM8waNa6vpkvq2d2nJCdmUg0&#xA;ZGHZlYEEYqmWKuxV2KuxV2Koe9/uV/4yw/8AJ1cVTe07YqnNp2xVObTtiqZjoMVbxVRuPs4qk93i&#xA;qTXeKsfvv977f/Vk/wCNcVXYq7FXYq7FXYq7FUu8xW1pdeX9Ttbw0tJ7SeK5IrX03jZX6b/ZPbFX&#xA;iv5JeYY77yqulyN/pemEqFPVoJGLIw9geSfRir0TFXYq7FXYq7FXYq7FXYqk/wCV13DY+c/N/lyA&#xA;FbVJLfUreMAcEe5iHrgeFW4kD/MqvT8VdirsVdirsVQ97/cr/wAZYf8Ak6uKpvadsVTm07YqnNp2&#xA;xVMx0GKt4qo3H2cVSe7xVJrvFWP33+99v/qyf8a4quxV2KuxV2KuxV2Kqc8Mc0MkMqh45VKOh6FW&#xA;FCD88VfO/kjRZdZkv5fLcf6G1/TJ5L7R7S7BVJ9LupG52cgG/GKdHAamxPvUKsrX8wbCykFr5mtL&#xA;ny9fg8WS7jYwM3f0rhAY3X32xVNIvNvlWWMSR6zZMh3qLiL/AJqxVLrv8yfJ0EvoQX36Quj9i3sE&#xA;e6dvkYgy/jiqwefJacz5X14RDrJ9SFAPHiJOf/C1xVOdE8waRrdqbnTLlZ0U8ZV3V42/lkRqMp+Y&#xA;xVMcVdiq2WWOKJ5ZWCRxqWd2NAFUVJJ9sVYP+UfmW+k8+3fr2irb+aoZdQtrlw3rCG1cwwR1rTj6&#xA;acuncYq9xxV2KuxV2KuxVD3v9yv/ABlh/wCTq4qm9p2xVObTtiqc2nbFUzHQYq3iqhOag4qlF3iq&#xA;TXeKsfvv977f/Vk/41xVdirsVdirsVdirsVdiry7XdH8+3Gs3fmSzs411vy9eSJpYWiR6lpEyK5t&#xA;X3YmRGrRjQcugrirINC86+WPNdsY7eRRdgFbzSLoBLmJ1+0kkL7/AAnuNsVUbvyR5NkYySaDpzue&#xA;rNaQEn6SmKtwWOn2MZS0t4bSHqUhRY129lAGKqSecfKVtJ6VxrmnwyCh4SXUKtvt0LDFUN5n8jxa&#xA;wU80+T7mG28xKoIuIyDa30Y6xXHCqtXs/UfdRVAeWvNNvrAntZoWsNZsW9PUdLmoJYnHcfzIf2WH&#xA;XFU8xVh/na6n1a7t/JmnORc6iDLqsqdYLBN5CfBpacFxVFeV43uPzcihsbcnSfLul/VZXSgSCa5+&#xA;JE3Nd4owNsVeu4q7FXYq7FXYqh73+5X/AIyw/wDJ1cVTe07YqnNp2xVObTtiqZjoMVQsOm29vDLF&#xA;al4BIOqsW4HxRX5qv3Yqhp4r+G1McVz604aomuEU1HgRF6Q+mmKpXf3V1HEh+rGdyP3qxMoofb1C&#xA;lR9OKpXfXUMcqxNyDP8AZIRitTtQsBxB+ZxVI71gb+AA1IEgPsaKcVX4q7FXYq7FXYq7FXYqkGva&#xA;Prdxreialpl+1vFZTOmpWTEmGe2lWjVSoHqIyjge1T8iqlUmh/lh+YULagsFtqckTGJ7yEtDcxuh&#xA;oAzoY5VpTbl9G2KoKX8m9PJj+r+ZfMFtHC3KCFL4MiGhWq+pG7D4XI64qvT8l/KsrBtYu9T10A1W&#xA;PUb2R0B/1IvRX8MVTuHyR+X1ootE0PS4+Qp6bW8BZgdt+Slm+nFWP6p5Av8Ay5cvrn5fcbWevO+8&#xA;uuxFjeKOoRekMtPsstB8hWqqk1h5W/Mqyj1rT5Z9H8y6axge4QCO9tJVJ5QXEZ2dK1+FtjvSm+Kp&#xA;ZdaL+bVshtvr2jSR/ZGomO4Wen8/oAGLl7cqYqh4bXS/Imh6hrF1NJf6jOC93eS/311OwKRRqB9l&#xA;eTUVR0GKp3+XXkvzXot3Y3l9dKsV7b3F7rsINHk1K6dCiMtD8EMQ4ijdQdt8VekYq7FXYq7FXYqh&#xA;73+5X/jLD/ydXFU3tO2KpzadsVTm07YqmY6DFW8VQ9ylRiqU3UfXFUouYq1xVI7/AE0TzRlkBjXk&#xA;WPQ1NACCN8VQ50yRP7q4lT2LeoP+Sgc/jiqwxamnRopvYhoz94L/AKsVa+sXCf3tq48WjKuv6w3/&#xA;AAuKtDULStHk9I+EoMZ/4cLiqIVlYAqQQehG4xVvFXYq7FUjv/J2i3K6k1uj6ZeaqqLe6hp7fV7h&#xA;vTbkrc1/a/yqVpiqhJ5Z12Hy7DpWl+ZLuC8hkLHV7uOG9uHjLMeDiRQh+0Byp2xVrU/Jr6xY6bb6&#xA;trF+8tiP9IkspfqSXbkL8U8cXutQFIAqcVRt75T8uXutW+t3enxTataBVtrxgeaBCWWm/YscVQn6&#xA;En0nWNT8wQ31/dW1xA0k2hArMjTIF4tbhviRiqceINCT7YqxyfRrTzZDbeefJF4dK8wMhjaSVCsV&#xA;wIzR7a+i7lWHHkNx2rQYqhrrz7rlun1XXfKWrQ6kux/R9ub22lP/ABTLGe/Xi24xVBWWl3dzcx+c&#xA;/Pironl7Ris+m6TMeTiYkKlzdBa/GCR6aDcH/hlWe+VfLiaONSuTdvfXGsXkl/NcSDiQJAFjjVan&#xA;4Y0UAYqn2KuxV2KuxV2Koe9/uV/4yw/8nVxVN7Ttiqc2nbFU5tO2KpmOgxVvFVrryFMVS+5h64ql&#xA;k9v12xVLLixdrmJw1FQOGT+atKfdTFWmtPbFVJrT2xVRa09sVUntK9RiqDfRrQkkRBGPVo6o33rQ&#xA;4qpnTp0/uriRR2VqOP8AhgW/4bFVhTUk7RTf8FEf+ZmKrfrUq/3ttKniygOP+FJb8MVbW/syeJlV&#xA;G/kf4G/4FqHFVcGu46Yq3irsVdiqQ+YtL8xzSafP5e1GOwe1nL3dpNGHt7mKQj1A/Ec1Zd2Uqdz1&#xA;8Qq6Lzpor+Zn8tsLmLU1BaISW8yxSqE5s0cvHgQBtWvXpiqCtBP5slvrfX/L7Wuj2F3G2mG7f97P&#xA;LbuSZTEuwjDKOFWIYdqYqyvFXYq7FXYq7FXYqh73+5X/AIyw/wDJ1cVTe07YqnNp2xVObTtiqZjo&#xA;MVbxV2KqckYYYqgprb2xVLbixia9t3Z+MirII4/5gePL7sVXtae2KqTWntiqk1p7Yqotae2KqTWn&#xA;tiqk1p7YqpNae2KqTWntiqhJZKylWUFT1BFRiqEbRrUfYj9I+MRMf/ECuKqZsLpP7u5f2WQK4/AK&#xA;3/DYqsI1JBukc3upaM/8CQ//ABLFWvrbL/ewSx+/HmP+SZfFV0d7aSNxWZOf8hIDf8Cd8VV8Vdir&#xA;sVdirsVdirsVdiqHvv7lf+MsP/J1cVTe07YqnNp2xVObTtiqZjoMVbxV2KuxVoqD1xVAzw2n1+2D&#xA;g/WCsvonelPh51/DFVc2wOKrGs/bFVF7T2xVSa09sVUWtPbFVJrT2xVSa09sVUmtPbFVJrT2xVRa&#xA;09sVUmtPbFVJrT2xVSa09sVUJrCORSsiB1PUMAR+OKoRtGt1/ug0PgImZB/wKkD8MVWGyvU/u7kt&#xA;7SorD/hfTP44qsJ1FB8UKSAd0cgn/YsKf8NirX11V/vYpYj7oWH3x8x+OKr4rq2lNI5Udu6hgT92&#xA;Kq2KuxV2Koe+/uV/4yw/8nVxVN7Ttiqc2nbFU5tO2KpmOgxVvFXYq7FXYqsaKNpFkZQZEBCMeoDd&#xA;afOmKr8VdirsVWlFPUYqtMCHtiqm1qp6YqptZnwxVRa09sVUmtPbFVJrT2xVRa09sVUmtPbFVJrT&#xA;2xVSa09sVUmtPbFVFrT2xVSa09sVUmtPbFUPPp0MopLGsg8GUH9eKoVtIiX+6aSLw4OwA/2JJX8M&#xA;VWG0v0+xcBx/xagJ+9Cn6sVWl79Pt24cf8VOCT9DhB+OKoe8vE9JFeOVG9WIkGNiKCRSfiUMvQeO&#xA;Kp5aSxckUsAziqKTQkewOKp5adsVTm07Yqma9BireKuxV2KuxV2KuxV2KuxV2KuxV2KuxV2KrSin&#xA;qMVWmBDiqm1qD0xVSazPhiqi1p7YqpNae2KqTWntiqk1p7Yqotae2KqTWntiqk1p7YqpNae2KqTW&#xA;ntiqi1p7YqhbyxR4wHYIBJGQx8VdSB/siKYqi0s4ZOIljWQLQgMA1D9OKpjBYxG4W4q4kXagkcIf&#xA;mgPA/diqa2MFwlwztcGSFh8MLKo4mvZlCmnzr88VTC2k1EQyNcwxlkFYlgcsZOppSRYwp8Pi+kYq&#xA;i8VdirsVdirsVdirsVdirsVdirsVdirsVdirsVdirsVdiq0xoe2KrDbocVU2tB2xVSazPhiqk1p7&#xA;Yqotae2KqTWntiqk1p7YqpNae2KoO+tIPRX1yVT1YqEfz+ovAbA9XoMVRCW1D0xVGQQ0piqZW8fT&#xA;FUaBQYq3irsVdirsVdirsVdirsVdirsVdirsVdirsVdirsVdirsVdirsVdirsVaIBxVaY0PbFVrW&#xA;6HFVJrTwxVSe09sVQOowW6QK06F0M0KgD+dpVWM9R0cg4qrC29sVV47enbFUZFHxGKqmKuxV2Kux&#xA;V2KuxV2KuxV2KuxV2KuxV2KuxV2KuxV2KuxV2KuxV2KuxV2KuxV2KuxV2KuxVCai8cMCu0QlBmgT&#xA;gexkmRA3Q/YLcvoxVX9JcVXBVHTFV2KuxV//2Q==</xapGImg:image>
    </rdf:li>
   </rdf:Alt>
  </xap:Thumbnails>
 </rdf:Description>

 <rdf:Description rdf:about=''
  xmlns:dc='http://purl.org/dc/elements/1.1/'>
  <dc:format>image/svg+xml</dc:format>
 </rdf:Description>

</rdf:RDF>
</x:xmpmeta>
                                                                                                                                                                                                                                                                                                                                                                                                                                                                                                                                                                                                                                                                                                                                                                                                                                                                                                                                                                                                                                                                                                                                                                                                                                                                                                                                                                                                                                                                                                                                                                                                                                                                                                                                                                                                                                                                                                                                                                                                                                                                                                                                <?xpacket end='w'?>
			</metadata>
		<g id="Layer_1">
			
				<radialGradient id="XMLID_13_" cx="167.2002" cy="117.6604" r="29.6985" fx="167.2002" fy="117.6604" gradientTransform="matrix(0.5731 0.1182 0 0.5731 32.6764 -44.1803)" gradientUnits="userSpaceOnUse">
				<stop  offset="0" style="stop-color:#BFBFBF"/>
				<stop  offset="1" style="stop-color:#FFFFFF"/>
				<midPointStop  offset="0" style="stop-color:#BFBFBF"/>
				<midPointStop  offset="0.5" style="stop-color:#BFBFBF"/>
				<midPointStop  offset="1" style="stop-color:#FFFFFF"/>
			</radialGradient>
			<path style="fill:url(#XMLID_13_);" d="M128.723,60.392c9.401,1.939,17.022-4.11,17.022-13.511c0-9.4-7.621-18.594-17.022-20.533
				c-9.4-1.939-17.021,4.11-17.021,13.51C111.701,49.26,119.322,58.452,128.723,60.392z"/>
			
				<radialGradient id="XMLID_14_" cx="167.2002" cy="117.6604" r="29.6985" fx="167.2002" fy="117.6604" gradientTransform="matrix(0.5731 0.1182 0 0.5731 -74.5033 -66.2897)" gradientUnits="userSpaceOnUse">
				<stop  offset="0" style="stop-color:#BFBFBF"/>
				<stop  offset="1" style="stop-color:#FFFFFF"/>
				<midPointStop  offset="0" style="stop-color:#BFBFBF"/>
				<midPointStop  offset="0.5" style="stop-color:#BFBFBF"/>
				<midPointStop  offset="1" style="stop-color:#FFFFFF"/>
			</radialGradient>
			<path style="fill:url(#XMLID_14_);" d="M21.543,38.282c9.401,1.939,17.021-4.11,17.021-13.51c0-9.401-7.621-18.594-17.021-20.533
				C12.143,2.3,4.521,8.349,4.521,17.749C4.521,27.15,12.143,36.343,21.543,38.282z"/>
			
				<radialGradient id="XMLID_15_" cx="167.2002" cy="117.6604" r="29.6985" fx="167.2002" fy="117.6604" gradientTransform="matrix(0.5731 0.1182 0 0.5731 -74.5033 -4.3893)" gradientUnits="userSpaceOnUse">
				<stop  offset="0" style="stop-color:#BFBFBF"/>
				<stop  offset="1" style="stop-color:#FFFFFF"/>
				<midPointStop  offset="0" style="stop-color:#BFBFBF"/>
				<midPointStop  offset="0.5" style="stop-color:#BFBFBF"/>
				<midPointStop  offset="1" style="stop-color:#FFFFFF"/>
			</radialGradient>
			<path style="fill:url(#XMLID_15_);" d="M21.543,100.183c9.401,1.939,17.021-4.11,17.021-13.511c0-9.4-7.621-18.594-17.021-20.533
				C12.143,64.2,4.521,70.249,4.521,79.65C4.521,89.051,12.143,98.243,21.543,100.183z"/>
			
				<radialGradient id="XMLID_16_" cx="167.2002" cy="117.6604" r="29.6985" fx="167.2002" fy="117.6604" gradientTransform="matrix(0.5731 0.1182 0 0.5731 31.2433 17.4244)" gradientUnits="userSpaceOnUse">
				<stop  offset="0" style="stop-color:#BFBFBF"/>
				<stop  offset="1" style="stop-color:#FFFFFF"/>
				<midPointStop  offset="0" style="stop-color:#BFBFBF"/>
				<midPointStop  offset="0.5" style="stop-color:#BFBFBF"/>
				<midPointStop  offset="1" style="stop-color:#FFFFFF"/>
			</radialGradient>
			<path style="fill:url(#XMLID_16_);" d="M127.29,121.997c9.4,1.939,17.021-4.11,17.021-13.511c0-9.4-7.621-18.594-17.021-20.533
				c-9.401-1.939-17.022,4.109-17.022,13.51S117.889,120.057,127.29,121.997z"/>
			
				<linearGradient id="XMLID_17_" gradientUnits="userSpaceOnUse" x1="75.3838" y1="-18.3396" x2="75.3838" y2="8.6604" gradientTransform="matrix(0 0.3329 -0.5731 -0.1182 133.3261 50.1749)">
				<stop  offset="0" style="stop-color:#FFFFFF"/>
				<stop  offset="1" style="stop-color:#BFBFBF"/>
				<midPointStop  offset="0" style="stop-color:#FFFFFF"/>
				<midPointStop  offset="0.5" style="stop-color:#FFFFFF"/>
				<midPointStop  offset="1" style="stop-color:#BFBFBF"/>
			</linearGradient>
			<polygon style="fill:url(#XMLID_17_);" points="128.082,105.26 143.12,108.362 143.12,46.219 128.082,43.116 "/>
			
				<linearGradient id="XMLID_18_" gradientUnits="userSpaceOnUse" x1="75.3838" y1="-18.3396" x2="75.3838" y2="8.6604" gradientTransform="matrix(0 -0.3329 0.5731 0.1182 16.3668 76.2382)">
				<stop  offset="0" style="stop-color:#FFFFFF"/>
				<stop  offset="1" style="stop-color:#BFBFBF"/>
				<midPointStop  offset="0" style="stop-color:#FFFFFF"/>
				<midPointStop  offset="0.5" style="stop-color:#FFFFFF"/>
				<midPointStop  offset="1" style="stop-color:#BFBFBF"/>
			</linearGradient>
			<polygon style="fill:url(#XMLID_18_);" points="21.611,21.154 6.573,18.051 6.573,80.195 21.611,83.297 "/>
			
				<linearGradient id="XMLID_19_" gradientUnits="userSpaceOnUse" x1="75.8955" y1="-18.3396" x2="75.8955" y2="8.6604" gradientTransform="matrix(-0.5731 -0.1182 0 -0.5731 119.0585 108.8234)">
				<stop  offset="0" style="stop-color:#FFFFFF"/>
				<stop  offset="1" style="stop-color:#BFBFBF"/>
				<midPointStop  offset="0" style="stop-color:#FFFFFF"/>
				<midPointStop  offset="0.5" style="stop-color:#FFFFFF"/>
				<midPointStop  offset="1" style="stop-color:#BFBFBF"/>
			</linearGradient>
			<polygon style="fill:url(#XMLID_19_);" points="22.069,83.484 22.069,98.522 129.057,120.592 129.057,105.553 "/>
			
				<linearGradient id="XMLID_20_" gradientUnits="userSpaceOnUse" x1="75.8955" y1="-18.3396" x2="75.8955" y2="8.6604" gradientTransform="matrix(0.5731 0.1182 0 0.5731 31.2433 17.4244)">
				<stop  offset="0" style="stop-color:#FFFFFF"/>
				<stop  offset="1" style="stop-color:#BFBFBF"/>
				<midPointStop  offset="0" style="stop-color:#FFFFFF"/>
				<midPointStop  offset="0.5" style="stop-color:#FFFFFF"/>
				<midPointStop  offset="1" style="stop-color:#BFBFBF"/>
			</linearGradient>
			<polygon style="fill:url(#XMLID_20_);" points="128.233,42.764 128.233,27.726 21.245,5.656 21.245,20.694 "/>
			<polygon style="fill:#BFBFBF;stroke:#808080;stroke-width:0.5;" points="128.245,105.363 128.245,42.698 21.257,20.628 
				21.257,83.293 "/>
			
				<line style="fill:none;stroke:#808080;stroke-width:0.5;stroke-dasharray:2;" x1="128.245" y1="43.463" x2="128.245" y2="23.211"/>
			
				<line style="fill:none;stroke:#808080;stroke-width:0.5;stroke-dasharray:2;" x1="128.245" y1="124.086" x2="128.245" y2="105.769"/>
			<line style="fill:none;stroke:#808080;stroke-width:0.5;stroke-dasharray:2;" x1="21.281" y1="21.398" x2="21.281" y2="0"/>
			
				<line style="fill:none;stroke:#808080;stroke-width:0.5;stroke-dasharray:2;" x1="21.281" y1="102.021" x2="21.281" y2="83.704"/>
			<line style="fill:none;stroke:#808080;stroke-width:0.5;stroke-dasharray:2;" x1="127.29" y1="42.501" x2="147.35" y2="46.639"/>
			
				<line style="fill:none;stroke:#808080;stroke-width:0.5;stroke-dasharray:2;" x1="127.29" y1="104.975" x2="147.35" y2="109.113"/>
			<line style="fill:none;stroke:#808080;stroke-width:0.5;stroke-dasharray:2;" x1="0.05" y1="16.254" x2="20.11" y2="20.392"/>
			<line style="fill:none;stroke:#808080;stroke-width:0.5;stroke-dasharray:2;" x1="0.05" y1="78.727" x2="20.11" y2="82.865"/>
			<g>
				<g>
					<g>
						<defs>
							<path id="XMLID_9_" d="M98.775,67.347l0.67,10.74c0.129,2.065-0.737,4.727-3.069,8.81l-0.67-10.74
								C98.038,72.074,98.904,69.412,98.775,67.347z"/>
						</defs>
						<use xlink:href="#XMLID_9_"  style="fill:#BFBFBF;"/>
						<clipPath id="XMLID_21_">
							<use xlink:href="#XMLID_9_" />
						</clipPath>
						<g style="clip-path:url(#XMLID_21_);">
							<path style="fill:#969696;" d="M98.775,67.347l0.67,10.74c0.129,2.065-0.737,4.727-3.069,8.81l-0.67-10.74
								C98.038,72.074,98.904,69.412,98.775,67.347"/>
						</g>
					</g>
					<g>
						<defs>
							<path id="XMLID_11_" d="M55.639,70.581l-0.67-10.74c0.357,5.72,2.595,11.43,7.197,12.881
								c8.338,2.63,9.768-0.903,15.253-0.308c5.484,0.595,11.61,15.435,18.288,3.742l0.67,10.74
								c-6.678,11.692-12.803-3.148-18.288-3.743c-5.484-0.595-6.915,2.938-15.252,0.309C58.234,82.01,55.996,76.301,55.639,70.581z
								"/>
						</defs>
						<use xlink:href="#XMLID_11_"  style="fill:#BFBFBF;"/>
						<clipPath id="XMLID_22_">
							<use xlink:href="#XMLID_11_" />
						</clipPath>
						<g style="clip-path:url(#XMLID_22_);">
							<path style="fill:#969696;" d="M95.707,76.156l0.67,10.74c-1.282,2.245-2.544,3.511-3.785,4.089l-0.67-10.74
								C93.163,79.668,94.425,78.401,95.707,76.156"/>
							<path style="fill:#979797;" d="M91.922,80.245l0.67,10.74c-0.113,0.053-0.226,0.1-0.338,0.141l-0.67-10.74
								C91.697,80.345,91.809,80.298,91.922,80.245"/>
							<path style="fill:#999999;" d="M91.584,80.386l0.67,10.74c-0.076,0.028-0.151,0.053-0.227,0.076l-0.67-10.74
								C91.433,80.439,91.508,80.414,91.584,80.386"/>
							<path style="fill:#9B9B9B;" d="M91.357,80.462l0.67,10.74c-0.076,0.023-0.151,0.043-0.226,0.061l-0.67-10.739
								C91.207,80.506,91.282,80.485,91.357,80.462"/>
							<path style="fill:#9D9D9D;" d="M91.131,80.524l0.67,10.74c-0.075,0.018-0.151,0.034-0.226,0.047l-0.67-10.74
								C90.981,80.557,91.056,80.542,91.131,80.524"/>
							<path style="fill:#9E9E9E;" d="M90.906,80.571l0.67,10.74c-0.063,0.011-0.126,0.021-0.189,0.029l-0.67-10.74
								C90.78,80.592,90.843,80.582,90.906,80.571"/>
							<path style="fill:#A0A0A0;" d="M90.717,80.6l0.67,10.74c-0.053,0.007-0.106,0.013-0.159,0.017l-0.67-10.74
								C90.61,80.613,90.664,80.607,90.717,80.6"/>
							<path style="fill:#A2A2A2;" d="M90.558,80.617l0.67,10.74c-0.053,0.005-0.106,0.008-0.159,0.011l-0.67-10.74
								C90.451,80.626,90.504,80.622,90.558,80.617"/>
							<path style="fill:#A4A4A4;" d="M90.398,80.628l0.67,10.74c-0.053,0.002-0.106,0.004-0.159,0.004l-0.67-10.74
								C90.292,80.632,90.345,80.631,90.398,80.628"/>
							<path style="fill:#A5A5A5;" d="M90.239,80.633l0.67,10.74c-0.053,0-0.106,0-0.159-0.002l-0.67-10.74
								C90.133,80.633,90.187,80.633,90.239,80.633"/>
							<path style="fill:#A7A7A7;" d="M90.081,80.631l0.67,10.74c-0.053-0.001-0.106-0.004-0.159-0.008l-0.67-10.74
								C89.975,80.626,90.028,80.629,90.081,80.631"/>
							<path style="fill:#A9A9A9;" d="M89.922,80.623l0.67,10.74c-0.057-0.004-0.115-0.009-0.172-0.016l-0.67-10.74
								C89.808,80.614,89.865,80.618,89.922,80.623"/>
							<path style="fill:#AAAAAA;" d="M89.75,80.607l0.67,10.74c-0.061-0.007-0.122-0.015-0.183-0.024l-0.67-10.739
								C89.628,80.592,89.689,80.6,89.75,80.607"/>
							<path style="fill:#ACACAC;" d="M89.568,80.583l0.67,10.739c-0.061-0.009-0.122-0.02-0.183-0.032l-0.67-10.74
								C89.446,80.563,89.507,80.573,89.568,80.583"/>
							<path style="fill:#AEAEAE;" d="M89.385,80.551l0.67,10.74c-0.061-0.012-0.122-0.025-0.182-0.039l-0.67-10.74
								C89.263,80.526,89.324,80.539,89.385,80.551"/>
							<path style="fill:#B0B0B0;" d="M89.203,80.512l0.67,10.74c-0.061-0.015-0.121-0.03-0.182-0.047l-0.67-10.739
								C89.082,80.482,89.142,80.497,89.203,80.512"/>
							<path style="fill:#B1B1B1;" d="M89.021,80.466l0.67,10.74c-0.073-0.02-0.145-0.042-0.218-0.065l-0.67-10.74
								C88.876,80.424,88.948,80.446,89.021,80.466"/>
							<path style="fill:#B3B3B3;" d="M88.803,80.401l0.67,10.74c-0.095-0.03-0.189-0.063-0.283-0.099l-0.67-10.74
								C88.614,80.337,88.709,80.37,88.803,80.401"/>
							<path style="fill:#B5B5B5;" d="M88.52,80.302l0.67,10.74c-0.094-0.036-0.188-0.074-0.282-0.115l-0.67-10.74
								C88.332,80.228,88.426,80.266,88.52,80.302"/>
							<path style="fill:#B7B7B7;" d="M88.238,80.187l0.67,10.74c-0.097-0.042-0.193-0.086-0.29-0.133l-0.67-10.739
								C88.044,80.101,88.141,80.145,88.238,80.187"/>
							<path style="fill:#B8B8B8;" d="M87.948,80.054l0.67,10.739c-0.172-0.083-0.344-0.175-0.515-0.274l-0.67-10.74
								C87.604,79.878,87.776,79.97,87.948,80.054"/>
							<path style="fill:#BABABA;" d="M87.433,79.78l0.67,10.74c-0.21-0.121-0.42-0.253-0.629-0.393l-0.67-10.74
								C87.013,79.528,87.223,79.659,87.433,79.78"/>
							<path style="fill:#BCBCBC;" d="M86.804,79.387l0.67,10.74c-0.462-0.31-0.92-0.664-1.375-1.043l-0.67-10.74
								C85.883,78.723,86.342,79.077,86.804,79.387"/>
							<path style="fill:#BEBEBE;" d="M85.428,78.344l0.67,10.74c-1.526-1.272-3.014-2.836-4.462-4.041l-0.67-10.74
								C82.415,75.508,83.902,77.072,85.428,78.344"/>
							<path style="fill:#BCBCBC;" d="M80.967,74.303l0.67,10.74c-0.396-0.33-0.789-0.632-1.179-0.895l-0.67-10.74
								C80.178,73.671,80.571,73.973,80.967,74.303"/>
							<path style="fill:#BABABA;" d="M79.787,73.408l0.67,10.74c-0.188-0.126-0.374-0.243-0.561-0.349l-0.67-10.74
								C79.413,73.165,79.6,73.282,79.787,73.408"/>
							<path style="fill:#B8B8B8;" d="M79.227,73.059l0.67,10.74c-0.114-0.065-0.227-0.126-0.34-0.182l-0.67-10.74
								C79,72.933,79.113,72.994,79.227,73.059"/>
							<path style="fill:#B7B7B7;" d="M78.886,72.877l0.67,10.74c-0.089-0.045-0.178-0.086-0.267-0.125l-0.67-10.74
								C78.708,72.79,78.797,72.832,78.886,72.877"/>
							<path style="fill:#B5B5B5;" d="M78.619,72.751l0.67,10.74c-0.089-0.039-0.178-0.075-0.267-0.108l-0.67-10.74
								C78.441,72.677,78.53,72.712,78.619,72.751"/>
							<path style="fill:#B3B3B3;" d="M78.353,72.643l0.67,10.74c-0.064-0.024-0.129-0.047-0.194-0.068l-0.67-10.739
								C78.224,72.596,78.288,72.619,78.353,72.643"/>
							<path style="fill:#B1B1B1;" d="M78.159,72.576l0.67,10.739c-0.05-0.016-0.1-0.031-0.149-0.045l-0.67-10.74
								C78.06,72.545,78.109,72.56,78.159,72.576"/>
							<path style="fill:#B0B0B0;" d="M78.01,72.531l0.67,10.739c-0.05-0.014-0.099-0.027-0.149-0.039l-0.67-10.74
								C77.911,72.504,77.96,72.517,78.01,72.531"/>
							<path style="fill:#AEAEAE;" d="M77.861,72.492l0.67,10.74c-0.05-0.012-0.099-0.023-0.148-0.033l-0.67-10.74
								C77.762,72.469,77.812,72.48,77.861,72.492"/>
							<path style="fill:#ACACAC;" d="M77.713,72.459l0.67,10.74c-0.049-0.01-0.099-0.019-0.148-0.026l-0.67-10.74
								C77.614,72.441,77.664,72.449,77.713,72.459"/>
							<path style="fill:#AAAAAA;" d="M77.565,72.433l0.67,10.74c-0.049-0.008-0.098-0.014-0.146-0.02
								c-0.004,0-0.009-0.001-0.013-0.001l-0.67-10.74c0.004,0,0.009,0.001,0.014,0.001C77.467,72.419,77.516,72.426,77.565,72.433"
								/>
							<path style="fill:#A9A9A9;" d="M77.405,72.413l0.67,10.74c-0.151-0.017-0.3-0.03-0.446-0.04l-0.67-10.739
								C77.105,72.383,77.254,72.396,77.405,72.413"/>
							<path style="fill:#A7A7A7;" d="M76.959,72.373l0.67,10.739c-0.146-0.01-0.291-0.018-0.432-0.022l-0.67-10.74
								C76.669,72.356,76.813,72.363,76.959,72.373"/>
							<path style="fill:#A5A5A5;" d="M76.528,72.351l0.67,10.74c-0.144-0.004-0.286-0.006-0.425-0.005l-0.67-10.74
								C76.242,72.345,76.384,72.346,76.528,72.351"/>
							<path style="fill:#A4A4A4;" d="M76.104,72.345l0.67,10.74c-0.146,0.001-0.288,0.005-0.428,0.011l-0.67-10.74
								C75.816,72.35,75.958,72.346,76.104,72.345"/>
							<path style="fill:#A2A2A2;" d="M75.676,72.357l0.67,10.74c-0.146,0.007-0.29,0.016-0.431,0.028l-0.67-10.739
								C75.386,72.373,75.53,72.364,75.676,72.357"/>
							<path style="fill:#A0A0A0;" d="M75.245,72.385l0.67,10.739c-0.164,0.014-0.325,0.032-0.483,0.052l-0.67-10.74
								C74.919,72.417,75.081,72.399,75.245,72.385"/>
							<path style="fill:#9E9E9E;" d="M74.762,72.437l0.67,10.74c-0.186,0.024-0.369,0.053-0.549,0.084l-0.67-10.74
								C74.393,72.49,74.575,72.462,74.762,72.437"/>
							<path style="fill:#9D9D9D;" d="M74.213,72.521l0.67,10.74c-0.246,0.043-0.486,0.093-0.723,0.146l-0.67-10.74
								C73.727,72.614,73.967,72.565,74.213,72.521"/>
							<path style="fill:#9B9B9B;" d="M73.489,72.667l0.67,10.74c-0.917,0.207-1.787,0.476-2.732,0.688l-0.67-10.74
								C71.703,73.143,72.572,72.874,73.489,72.667"/>
							<path style="fill:#9D9D9D;" d="M70.757,73.355l0.67,10.74c-0.251,0.056-0.507,0.108-0.771,0.155l-0.67-10.739
								C70.25,73.464,70.506,73.411,70.757,73.355"/>
							<path style="fill:#9E9E9E;" d="M69.986,73.51l0.67,10.739c-0.198,0.035-0.401,0.066-0.609,0.093l-0.67-10.74
								C69.585,73.576,69.788,73.545,69.986,73.51"/>
							<path style="fill:#A0A0A0;" d="M69.376,73.603l0.67,10.74c-0.177,0.022-0.359,0.042-0.544,0.059l-0.67-10.74
								C69.018,73.646,69.199,73.626,69.376,73.603"/>
							<path style="fill:#A2A2A2;" d="M68.832,73.662l0.67,10.74c-0.163,0.014-0.329,0.025-0.498,0.033l-0.67-10.74
								C68.504,73.687,68.669,73.676,68.832,73.662"/>
							<path style="fill:#A4A4A4;" d="M68.334,73.695l0.67,10.74c-0.164,0.007-0.33,0.012-0.501,0.013l-0.67-10.739
								C68.004,73.706,68.171,73.702,68.334,73.695"/>
							<path style="fill:#A5A5A5;" d="M67.833,73.708l0.67,10.739c-0.166,0.001-0.334-0.001-0.507-0.006l-0.67-10.74
								C67.499,73.706,67.668,73.709,67.833,73.708"/>
							<path style="fill:#A7A7A7;" d="M67.326,73.701l0.67,10.74c-0.172-0.005-0.348-0.015-0.528-0.027l-0.67-10.739
								C66.978,73.687,67.154,73.696,67.326,73.701"/>
							<path style="fill:#A9A9A9;" d="M66.798,73.674l0.67,10.739c-0.183-0.013-0.37-0.029-0.562-0.05l-0.67-10.74
								C66.428,73.644,66.615,73.661,66.798,73.674"/>
							<path style="fill:#AAAAAA;" d="M66.236,73.623l0.67,10.74c-0.197-0.021-0.4-0.047-0.608-0.078l-0.67-10.74
								C65.836,73.576,66.039,73.602,66.236,73.623"/>
							<path style="fill:#ACACAC;" d="M65.628,73.546l0.67,10.74c-0.223-0.033-0.453-0.071-0.689-0.115l-0.67-10.74
								C65.175,73.474,65.405,73.513,65.628,73.546"/>
							<path style="fill:#AEAEAE;" d="M64.939,73.43l0.67,10.74c-0.251-0.047-0.511-0.101-0.779-0.162l-0.67-10.74
								C64.428,73.329,64.688,73.383,64.939,73.43"/>
							<path style="fill:#B0B0B0;" d="M64.161,73.268l0.67,10.74c-0.293-0.067-0.596-0.143-0.91-0.228l-0.67-10.74
								C63.564,73.126,63.867,73.201,64.161,73.268"/>
							<path style="fill:#B1B1B1;" d="M63.25,73.041l0.67,10.74c-0.348-0.094-0.709-0.2-1.084-0.318l-0.67-10.739
								C62.542,72.841,62.902,72.947,63.25,73.041"/>
							<path style="fill:#B3B3B3;" d="M62.167,72.723l0.67,10.739h0c-0.118-0.037-0.234-0.077-0.349-0.12l-0.67-10.739
								C61.932,72.645,62.048,72.685,62.167,72.723C62.166,72.722,62.167,72.722,62.167,72.723"/>
							<path style="fill:#B5B5B5;" d="M61.817,72.603l0.67,10.739c-0.115-0.042-0.229-0.088-0.341-0.136l-0.67-10.74
								C61.588,72.514,61.702,72.56,61.817,72.603"/>
							<path style="fill:#B7B7B7;" d="M61.476,72.466l0.67,10.74c-0.112-0.048-0.223-0.1-0.332-0.153l-0.67-10.74
								C61.253,72.367,61.364,72.418,61.476,72.466"/>
							<path style="fill:#B8B8B8;" d="M61.145,72.313l0.67,10.74c-0.144-0.071-0.285-0.146-0.424-0.226l-0.67-10.74
								C60.859,72.167,61,72.242,61.145,72.313"/>
							<path style="fill:#BABABA;" d="M60.721,72.088l0.67,10.74c-0.171-0.099-0.339-0.203-0.502-0.315l-0.67-10.739
								C60.382,71.885,60.549,71.99,60.721,72.088"/>
							<path style="fill:#BCBCBC;" d="M60.219,71.773l0.67,10.739c-0.252-0.172-0.496-0.359-0.729-0.561l-0.67-10.739
								C59.724,71.413,59.966,71.601,60.219,71.773"/>
							<path style="fill:#BEBEBE;" d="M59.49,71.212l0.67,10.739c-0.705-0.608-1.322-1.344-1.856-2.177l-0.67-10.74
								C58.168,69.867,58.786,70.604,59.49,71.212"/>
							<path style="fill:#BCBCBC;" d="M57.634,69.035l0.67,10.74c-0.286-0.446-0.549-0.919-0.788-1.416l-0.67-10.739
								C57.084,68.116,57.347,68.589,57.634,69.035"/>
							<path style="fill:#BABABA;" d="M56.845,67.62l0.67,10.74c-0.193-0.401-0.372-0.817-0.535-1.246l-0.67-10.739
								C56.474,66.803,56.652,67.219,56.845,67.62"/>
							<path style="fill:#B8B8B8;" d="M56.31,66.375l0.67,10.74c-0.154-0.403-0.294-0.817-0.421-1.239l-0.67-10.74
								C56.016,65.558,56.157,65.972,56.31,66.375"/>
							<path style="fill:#B7B7B7;" d="M55.889,65.135l0.67,10.74c-0.125-0.415-0.238-0.839-0.339-1.269l-0.67-10.739
								C55.65,64.297,55.763,64.72,55.889,65.135"/>
							<path style="fill:#B5B5B5;" d="M55.55,63.867l0.67,10.739c-0.1-0.429-0.188-0.865-0.265-1.305l-0.67-10.74
								C55.361,63.002,55.45,63.438,55.55,63.867"/>
							<path style="fill:#B3B3B3;" d="M55.285,62.562l0.67,10.74c-0.076-0.441-0.141-0.888-0.193-1.335l-0.67-10.74
								C55.145,61.674,55.209,62.12,55.285,62.562"/>
							<path style="fill:#B1B1B1;" d="M55.092,61.226l0.67,10.74c-0.052-0.449-0.093-0.899-0.122-1.35l-0.67-10.74
								C55,60.327,55.04,60.778,55.092,61.226"/>
							<path style="fill:#B0B0B0;" d="M54.971,59.877l0.67,10.74c0-0.012-0.001-0.024-0.002-0.036l-0.67-10.74
								C54.969,59.853,54.97,59.865,54.971,59.877"/>
						</g>
					</g>
					<path style="fill:#969696;" d="M95.707,76.156c-6.678,11.692-12.803-3.147-18.288-3.742c-5.485-0.595-6.915,2.938-15.253,0.308
						c-8.338-2.629-8.916-19.236-4.608-24.555s15.893-9.542,20.397-7.565s6.457,8.312,12.772,16.068
						C97.042,64.426,102.384,64.464,95.707,76.156z"/>
				</g>
				<path style="fill:none;stroke:#000000;" d="M95.466,76.249c-6.678,11.692-12.803-3.148-18.288-3.743
					c-5.485-0.595-6.915,2.938-15.253,0.309S53.01,53.578,57.317,48.26s15.893-9.543,20.397-7.565
					c4.505,1.977,6.457,8.312,12.772,16.068S102.144,64.556,95.466,76.249z"/>
				<path style="fill:#BFBFBF;" d="M99.016,76.131c-0.447,1.602-1.311,3.53-2.705,5.971c-6.678,11.692-12.803-3.147-18.288-3.742
					s-6.915,2.938-15.253,0.308c-4.229-1.334-6.459-6.265-7.07-11.495c-0.459,6.67,1.653,14.564,7.185,16.309
					c8.338,2.63,9.768-0.903,15.253-0.308s11.61,15.435,18.288,3.742C99.569,81.411,100.048,78.49,99.016,76.131z"/>
				<path style="fill:none;stroke:#000000;" d="M54.918,55.132c-0.003-0.047-0.009-0.093-0.012-0.14l0.531,8.498l0.142,2.277
					c-0.001-0.012-0.001-0.023-0.002-0.035c0,0.001,0,0.002,0,0.003l0.002,0.032c0.002,0.032,0.006,0.064,0.009,0.097
					c0.025,0.374,0.059,0.747,0.101,1.119c0.005,0.045,0.007,0.089,0.012,0.134l-0.005-0.076c0,0,0,0,0,0.001l0.005,0.075
					c0.01,0.085,0.026,0.169,0.037,0.254c0.036,0.285,0.077,0.569,0.123,0.852c0.012,0.077,0.02,0.154,0.033,0.23l-0.003-0.055v0
					l0.003,0.055c0.011,0.062,0.026,0.122,0.037,0.184c0.053,0.292,0.112,0.581,0.176,0.868c0.019,0.084,0.032,0.17,0.051,0.253
					l-0.002-0.025l0,0l0.002,0.026c0.006,0.027,0.015,0.054,0.021,0.081c0.093,0.392,0.195,0.779,0.309,1.158
					c0.003,0.009,0.005,0.02,0.008,0.029l0-0.006l0,0l0,0.006c0.014,0.047,0.033,0.091,0.047,0.138
					c0.102,0.326,0.21,0.647,0.328,0.962c0.017,0.045,0.03,0.094,0.047,0.139l0,0l0,0l0,0l0,0c0.025,0.066,0.057,0.127,0.083,0.193
					c0.114,0.289,0.236,0.571,0.364,0.848c0.031,0.067,0.056,0.139,0.088,0.205l-0.001-0.019l0,0l0.001,0.019
					c0.023,0.049,0.05,0.094,0.074,0.143c0.051,0.101,0.103,0.2,0.155,0.299c0.09,0.171,0.182,0.338,0.278,0.502
					c0.057,0.098,0.114,0.194,0.173,0.29c0.037,0.06,0.071,0.123,0.108,0.181l-0.001-0.018l0,0l0.001,0.018
					c0.073,0.113,0.151,0.221,0.228,0.331c0.046,0.067,0.091,0.136,0.139,0.202c0.166,0.228,0.336,0.449,0.516,0.659
					c0.029,0.034,0.06,0.064,0.089,0.097c0.153,0.175,0.312,0.343,0.475,0.503c0.063,0.062,0.128,0.121,0.193,0.181
					c0.073,0.067,0.143,0.139,0.218,0.204l-0.001-0.016l0,0l0.001,0.017c0.051,0.044,0.108,0.081,0.161,0.124
					c0.124,0.102,0.25,0.198,0.379,0.292c0.064,0.046,0.124,0.101,0.188,0.146l-0.001-0.016l0,0l0.001,0.016
					c0.077,0.052,0.157,0.098,0.235,0.147c0.053,0.034,0.105,0.068,0.16,0.101c0.036,0.021,0.07,0.046,0.107,0.067l0,0l0,0l0,0l0,0
					c0.139,0.08,0.28,0.155,0.424,0.226l0-0.011l0,0l0,0.011c0.05,0.024,0.101,0.046,0.151,0.069
					c0.023,0.011,0.045,0.021,0.068,0.031c0.038,0.017,0.075,0.036,0.113,0.052l-0.001-0.009c0,0,0,0,0,0l0,0.009
					c0.112,0.048,0.225,0.094,0.34,0.136c0.115,0.043,0.231,0.083,0.349,0.12c0,0,0,0,0.001,0c0.002,0,0.004,0.001,0.006,0.002
					c0.333,0.104,0.65,0.196,0.961,0.282c0.038,0.01,0.079,0.023,0.116,0.034l0-0.003l0,0l0,0.003
					c0.051,0.014,0.098,0.024,0.149,0.038c0.206,0.054,0.406,0.104,0.603,0.15c0.052,0.012,0.107,0.028,0.158,0.04v-0.002l0,0v0.002
					c0.026,0.006,0.051,0.01,0.077,0.016c0.193,0.043,0.38,0.082,0.564,0.117c0.045,0.009,0.093,0.021,0.137,0.029
					c0.008,0.001,0.016,0.002,0.024,0.004c0.225,0.042,0.444,0.079,0.657,0.11c0.002,0,0.005,0.001,0.008,0.001v0l0,0v0
					c0.051,0.007,0.098,0.012,0.148,0.019c0.15,0.021,0.299,0.041,0.443,0.057c0.005,0,0.012,0.001,0.017,0.002v0l0,0v0
					c0.083,0.009,0.163,0.015,0.245,0.022c0.1,0.009,0.202,0.02,0.299,0.027c0.006,0,0.012,0.001,0.018,0.001l0,0
					c0.089,0.006,0.173,0.009,0.259,0.014c0.085,0.004,0.171,0.01,0.254,0.013c0.005,0,0.01,0,0.014,0v0l0,0l0,0
					c0.081,0.002,0.159,0.002,0.238,0.003c0.086,0.001,0.173,0.003,0.256,0.003c0.004,0,0.009,0,0.013,0
					c0.062,0,0.12-0.003,0.18-0.005c0.101-0.002,0.203-0.003,0.301-0.008c0.006,0,0.013,0,0.02,0v0l0,0v0
					c0.049-0.002,0.095-0.007,0.144-0.009c0.108-0.006,0.217-0.013,0.322-0.021c0.011-0.001,0.022-0.001,0.032-0.002v-0.001l0,0
					l0,0.001c0.038-0.003,0.073-0.008,0.11-0.012c0.124-0.012,0.247-0.024,0.367-0.039c0.022-0.003,0.045-0.004,0.067-0.007v-0.002
					l0,0v0.002c0.03-0.004,0.058-0.009,0.087-0.014c0.153-0.021,0.303-0.043,0.45-0.068c0.023-0.004,0.049-0.007,0.072-0.011
					c0.009-0.002,0.017-0.004,0.026-0.005c0.239-0.042,0.471-0.09,0.7-0.141c0.015-0.003,0.031-0.006,0.046-0.009
					c0.013-0.003,0.025-0.006,0.039-0.009c0.209-0.047,0.415-0.098,0.619-0.149c0.036-0.009,0.071-0.018,0.106-0.027
					c0.211-0.054,0.42-0.109,0.629-0.165c0.211-0.056,0.421-0.112,0.632-0.166c0.02-0.005,0.04-0.01,0.06-0.015
					c0.207-0.052,0.414-0.104,0.624-0.151c0.01-0.002,0.02-0.005,0.03-0.007c0.217-0.049,0.438-0.094,0.662-0.134
					c0.028-0.005,0.056-0.011,0.084-0.016c0.16-0.028,0.323-0.053,0.489-0.075c0.048-0.006,0.098-0.011,0.146-0.017
					c0.1-0.012,0.2-0.023,0.303-0.033c0.069-0.006,0.139-0.011,0.208-0.017c0.071-0.005,0.142-0.01,0.213-0.014
					c0.077-0.004,0.156-0.006,0.234-0.009c0.066-0.002,0.132-0.004,0.199-0.005c0.087-0.001,0.175,0,0.264,0
					c0.06,0.001,0.119,0.001,0.18,0.002c0.104,0.003,0.211,0.008,0.319,0.014c0.046,0.003,0.092,0.004,0.139,0.007
					c0.158,0.011,0.318,0.024,0.483,0.042c0.079,0.008,0.157,0.021,0.236,0.035c0.011,0.002,0.023,0.004,0.034,0.006
					c0.075,0.015,0.149,0.032,0.225,0.051c0.015,0.003,0.029,0.007,0.044,0.011c0.074,0.02,0.148,0.042,0.223,0.066
					c0.018,0.006,0.037,0.013,0.055,0.019c0.056,0.02,0.113,0.04,0.169,0.062c0.045,0.017,0.09,0.036,0.135,0.055
					c0.043,0.018,0.085,0.036,0.128,0.055c0.046,0.021,0.091,0.042,0.137,0.064c0.04,0.019,0.08,0.038,0.12,0.058
					c0.089,0.046,0.18,0.094,0.27,0.145c0.013,0.007,0.025,0.014,0.038,0.021c0.183,0.104,0.366,0.219,0.549,0.342
					c0.006,0.004,0.012,0.008,0.018,0.013c0.185,0.125,0.371,0.259,0.557,0.4c0.017,0.012,0.033,0.025,0.049,0.038
					c0.178,0.136,0.355,0.278,0.534,0.426c0.021,0.018,0.042,0.035,0.063,0.053c0.16,0.133,0.319,0.271,0.479,0.412
					c0.022,0.019,0.044,0.039,0.065,0.058c0.161,0.142,0.322,0.287,0.484,0.435c0.022,0.021,0.044,0.041,0.066,0.061
					c0.164,0.151,0.329,0.304,0.494,0.458c0.019,0.018,0.038,0.036,0.057,0.053c0.178,0.167,0.356,0.334,0.535,0.503
					c0.162,0.152,0.323,0.305,0.486,0.457c0.028,0.026,0.056,0.052,0.083,0.079c0.163,0.152,0.327,0.304,0.491,0.454
					c0.025,0.023,0.051,0.047,0.076,0.07c0.164,0.15,0.329,0.297,0.493,0.443c0.024,0.021,0.049,0.043,0.074,0.065
					c0.166,0.146,0.332,0.289,0.499,0.428c0.014,0.011,0.027,0.023,0.041,0.035c0.008,0.007,0.017,0.013,0.025,0.02
					c0.438,0.364,0.879,0.704,1.323,1.004c0.009,0.006,0.019,0.014,0.028,0.02l0,0c0.011,0.008,0.022,0.014,0.034,0.021
					c0.186,0.124,0.372,0.241,0.559,0.349c0.012,0.007,0.024,0.016,0.037,0.022l0,0c0.012,0.007,0.023,0.012,0.035,0.019
					c0.148,0.084,0.298,0.164,0.447,0.238c0.011,0.005,0.022,0.012,0.033,0.018c0.032,0.015,0.064,0.029,0.096,0.044
					c0.048,0.022,0.096,0.044,0.144,0.066c0.017,0.007,0.034,0.016,0.05,0.023v-0.002v0v0.001c0.034,0.015,0.068,0.027,0.102,0.042
					c0.045,0.019,0.09,0.037,0.135,0.055c0.015,0.006,0.031,0.013,0.046,0.019V86.19l0,0l0,0.002
					c0.036,0.014,0.071,0.025,0.107,0.038c0.045,0.016,0.09,0.033,0.135,0.047c0.014,0.004,0.027,0.01,0.041,0.014v-0.002l0,0v0.002
					c0.069,0.022,0.138,0.042,0.207,0.062c0.004,0.001,0.007,0.002,0.011,0.003c0.061,0.017,0.121,0.032,0.182,0.046
					c0.026,0.006,0.053,0.011,0.079,0.017c0.019,0.004,0.038,0.008,0.056,0.012c0.016,0.003,0.031,0.007,0.047,0.01l0-0.002h0v0.002
					c0.061,0.012,0.122,0.022,0.183,0.032c0.009,0.001,0.018,0.002,0.026,0.003c0.016,0.002,0.032,0.004,0.048,0.007
					c0.036,0.005,0.072,0.01,0.108,0.014l0,0c0.047,0.005,0.094,0.009,0.141,0.013c0.007,0,0.015,0.001,0.022,0.002
					c0.003,0,0.006,0,0.009,0.001c0.053,0.003,0.105,0.006,0.158,0.008l0,0c0.035,0.001,0.069,0.001,0.104,0.001
					c0.011,0,0.021,0,0.032,0c0.008,0,0.016,0,0.023,0l0,0c0.053,0,0.105-0.001,0.159-0.004v-0.002l0,0v0.002
					c0.027-0.001,0.054-0.003,0.082-0.005c0.014-0.001,0.027-0.001,0.041-0.002c0.012-0.001,0.025-0.001,0.037-0.003
					c0.053-0.004,0.106-0.01,0.159-0.017v-0.002l0,0v0.002c0.019-0.002,0.038-0.006,0.057-0.009c0.021-0.003,0.042-0.006,0.062-0.01
					c0.023-0.004,0.047-0.006,0.07-0.011l0,0c0.051-0.009,0.102-0.021,0.153-0.032c0.019-0.004,0.038-0.007,0.057-0.012
					c0.005-0.001,0.011-0.002,0.016-0.003v-0.001l0,0l0,0.001c0.075-0.018,0.15-0.039,0.226-0.062l0,0
					c0.009-0.003,0.018-0.006,0.026-0.009c0.024-0.008,0.048-0.016,0.072-0.024c0.042-0.014,0.085-0.027,0.128-0.042v-0.003l0,0
					v0.003c0.018-0.006,0.036-0.016,0.054-0.022c0.065-0.025,0.13-0.053,0.196-0.082c0.029-0.013,0.059-0.023,0.088-0.037v-0.002
					l0,0v0.002c0.01-0.005,0.021-0.011,0.03-0.016c0.136-0.064,0.272-0.137,0.408-0.218c0.027-0.016,0.054-0.034,0.081-0.051
					c0.121-0.075,0.241-0.156,0.362-0.245c0.025-0.019,0.051-0.036,0.077-0.056c0.137-0.104,0.273-0.217,0.411-0.34
					c0.03-0.027,0.061-0.056,0.091-0.084c0.123-0.114,0.247-0.234,0.37-0.364c0.021-0.021,0.042-0.042,0.062-0.064
					c0.138-0.147,0.277-0.307,0.415-0.474c0.033-0.04,0.065-0.081,0.098-0.121c0.13-0.162,0.26-0.331,0.391-0.511
					c0.013-0.018,0.026-0.034,0.039-0.052c0.14-0.196,0.281-0.406,0.421-0.624c0.034-0.052,0.067-0.105,0.1-0.158
					c0.143-0.226,0.285-0.46,0.428-0.71c2.332-4.083,3.198-6.744,3.069-8.81l-0.138-2.211"/>
				<path style="fill:none;stroke:#000000;stroke-dasharray:2;" d="M54.958,60.103c-0.003-0.047-0.009-0.093-0.012-0.14l0.53,8.498
					l0.142,2.277c0-0.012-0.001-0.023-0.002-0.035c0,0.001,0,0.002,0,0.003l0.002,0.032c0.002,0.032,0.007,0.064,0.009,0.097
					c0.025,0.374,0.059,0.747,0.101,1.119c0.005,0.045,0.007,0.09,0.012,0.134l-0.005-0.076c0,0,0,0,0,0.001l0.005,0.075
					c0.01,0.085,0.026,0.169,0.037,0.254c0.036,0.286,0.077,0.569,0.123,0.852c0.013,0.076,0.02,0.154,0.033,0.23l-0.003-0.056v0
					l0.003,0.055c0.011,0.062,0.026,0.122,0.038,0.184c0.053,0.292,0.112,0.581,0.176,0.868c0.019,0.083,0.032,0.17,0.051,0.253
					l-0.001-0.025l0,0l0.001,0.025c0.006,0.027,0.015,0.054,0.022,0.082c0.093,0.392,0.195,0.778,0.309,1.158
					c0.002,0.01,0.005,0.02,0.008,0.029l0-0.006l0,0l0,0.006c0.014,0.047,0.032,0.091,0.047,0.138
					c0.101,0.327,0.21,0.647,0.328,0.962c0.017,0.045,0.03,0.094,0.047,0.139l0,0l0,0l0,0l0,0c0.025,0.066,0.057,0.127,0.083,0.193
					c0.114,0.289,0.236,0.571,0.364,0.848c0.031,0.067,0.056,0.139,0.088,0.205l-0.001-0.019l0,0l0.001,0.019
					c0.023,0.049,0.05,0.095,0.074,0.143c0.05,0.101,0.103,0.2,0.155,0.299c0.09,0.171,0.182,0.338,0.278,0.503
					c0.057,0.098,0.114,0.194,0.173,0.29c0.037,0.06,0.07,0.123,0.108,0.181l-0.001-0.018v0l0.001,0.018
					c0.073,0.114,0.151,0.221,0.228,0.331c0.046,0.067,0.091,0.136,0.138,0.201c0.166,0.228,0.336,0.449,0.516,0.659
					c0.029,0.034,0.06,0.064,0.089,0.098c0.153,0.174,0.312,0.342,0.475,0.503c0.063,0.062,0.128,0.121,0.193,0.181
					c0.073,0.067,0.143,0.139,0.218,0.204l-0.001-0.017l0,0l0.001,0.017c0.051,0.044,0.108,0.081,0.161,0.124
					c0.124,0.102,0.25,0.198,0.379,0.292c0.064,0.047,0.123,0.101,0.188,0.146l-0.001-0.016l0,0l0.001,0.016
					c0.076,0.052,0.157,0.098,0.235,0.147c0.053,0.034,0.106,0.068,0.16,0.101c0.036,0.021,0.071,0.046,0.107,0.067l0,0l0,0l0,0l0,0
					c0.139,0.08,0.28,0.155,0.424,0.226l-0.001-0.011l0,0l0.001,0.011c0.049,0.024,0.101,0.046,0.151,0.07
					c0.022,0.01,0.045,0.021,0.067,0.031c0.038,0.017,0.075,0.035,0.113,0.052l0-0.009l0,0l0,0.009
					c0.112,0.048,0.226,0.094,0.34,0.137c0.115,0.042,0.231,0.083,0.349,0.12c0,0,0.001,0,0.001,0c0.002,0,0.004,0.001,0.007,0.002
					c0.332,0.104,0.65,0.196,0.961,0.282c0.038,0.01,0.079,0.024,0.116,0.034v-0.003l0,0v0.003c0.051,0.014,0.098,0.023,0.149,0.037
					c0.205,0.054,0.406,0.104,0.602,0.15c0.052,0.012,0.107,0.028,0.159,0.04l0-0.002l0,0l0,0.002
					c0.026,0.006,0.05,0.01,0.077,0.016c0.193,0.043,0.38,0.082,0.565,0.117c0.045,0.009,0.093,0.021,0.137,0.029
					c0.008,0.001,0.016,0.002,0.024,0.004c0.225,0.042,0.443,0.079,0.656,0.11c0.003,0,0.005,0.001,0.008,0.001v0l0,0v0
					c0.05,0.007,0.098,0.012,0.148,0.019c0.149,0.021,0.299,0.041,0.443,0.057c0.006,0,0.012,0.001,0.017,0.002v-0.001l0,0v0.001
					c0.084,0.009,0.163,0.014,0.245,0.022c0.1,0.009,0.202,0.02,0.3,0.026c0.006,0,0.012,0.001,0.018,0.002l0,0
					c0.088,0.006,0.173,0.009,0.259,0.013c0.084,0.004,0.171,0.01,0.254,0.013c0.005,0,0.01,0,0.015,0v0l0,0v0
					c0.081,0.003,0.159,0.002,0.238,0.003c0.085,0.001,0.172,0.004,0.256,0.003c0.004,0,0.009,0,0.013,0
					c0.062,0,0.12-0.003,0.18-0.005c0.101-0.002,0.203-0.003,0.301-0.008c0.006,0,0.013,0,0.02,0v0l0,0v0
					c0.049-0.002,0.095-0.007,0.143-0.009c0.108-0.006,0.217-0.013,0.323-0.021c0.01-0.001,0.021-0.001,0.032-0.002v-0.001l0,0
					v0.001c0.038-0.003,0.073-0.008,0.11-0.012c0.124-0.012,0.247-0.025,0.367-0.04c0.022-0.003,0.045-0.004,0.067-0.007v-0.001l0,0
					v0.001c0.03-0.004,0.058-0.009,0.087-0.013c0.153-0.021,0.303-0.044,0.45-0.069c0.023-0.004,0.048-0.007,0.072-0.011
					c0.009-0.001,0.017-0.004,0.026-0.005c0.239-0.042,0.471-0.09,0.699-0.141c0.015-0.003,0.031-0.006,0.046-0.009
					c0.013-0.003,0.025-0.006,0.039-0.009c0.209-0.047,0.415-0.098,0.619-0.149c0.036-0.009,0.071-0.018,0.106-0.027
					c0.211-0.054,0.421-0.109,0.629-0.165c0.211-0.056,0.421-0.112,0.633-0.166c0.02-0.005,0.04-0.01,0.06-0.015
					c0.207-0.052,0.414-0.103,0.624-0.151c0.01-0.002,0.02-0.005,0.03-0.007c0.217-0.049,0.438-0.093,0.662-0.134
					c0.028-0.005,0.056-0.011,0.083-0.016c0.161-0.027,0.323-0.053,0.489-0.075c0.048-0.006,0.098-0.011,0.147-0.017
					c0.1-0.012,0.2-0.023,0.302-0.033c0.069-0.006,0.139-0.011,0.208-0.017c0.071-0.005,0.142-0.01,0.214-0.014
					c0.077-0.004,0.155-0.006,0.234-0.009c0.066-0.002,0.132-0.004,0.2-0.005c0.086-0.001,0.175,0,0.264,0.001
					c0.06,0,0.119,0,0.179,0.002c0.104,0.003,0.211,0.008,0.319,0.015c0.046,0.002,0.092,0.004,0.139,0.007
					c0.158,0.011,0.318,0.024,0.483,0.042c0.078,0.008,0.157,0.021,0.235,0.035c0.012,0.002,0.023,0.004,0.034,0.006
					c0.075,0.014,0.15,0.031,0.225,0.05c0.015,0.004,0.029,0.007,0.044,0.011c0.074,0.02,0.149,0.042,0.224,0.066
					c0.018,0.006,0.036,0.013,0.054,0.019c0.057,0.02,0.113,0.041,0.17,0.062c0.044,0.018,0.09,0.036,0.135,0.055
					c0.042,0.018,0.085,0.036,0.128,0.055c0.046,0.021,0.092,0.042,0.138,0.064c0.04,0.019,0.079,0.039,0.119,0.059
					c0.09,0.045,0.18,0.093,0.27,0.144c0.013,0.007,0.026,0.014,0.039,0.021c0.183,0.104,0.366,0.219,0.549,0.342
					c0.006,0.004,0.012,0.008,0.018,0.013c0.185,0.125,0.371,0.259,0.557,0.4c0.016,0.012,0.033,0.025,0.049,0.038
					c0.177,0.136,0.355,0.278,0.534,0.426c0.021,0.018,0.042,0.035,0.063,0.052c0.159,0.133,0.319,0.271,0.479,0.412
					c0.021,0.019,0.043,0.039,0.065,0.058c0.161,0.142,0.322,0.288,0.484,0.435c0.022,0.021,0.044,0.041,0.066,0.061
					c0.165,0.151,0.329,0.303,0.495,0.458c0.019,0.018,0.038,0.036,0.057,0.053c0.178,0.167,0.356,0.334,0.535,0.503
					c0.162,0.152,0.323,0.305,0.486,0.457c0.028,0.026,0.056,0.052,0.084,0.079c0.163,0.152,0.326,0.304,0.49,0.454
					c0.025,0.023,0.051,0.046,0.077,0.07c0.164,0.149,0.328,0.297,0.493,0.443c0.025,0.021,0.049,0.043,0.074,0.065
					c0.166,0.146,0.332,0.289,0.499,0.428c0.014,0.011,0.027,0.024,0.041,0.035c0.008,0.007,0.017,0.013,0.025,0.02
					c0.438,0.364,0.879,0.704,1.323,1.004c0.009,0.006,0.019,0.014,0.028,0.02l0,0c0.011,0.007,0.022,0.013,0.034,0.021
					c0.186,0.124,0.372,0.24,0.559,0.349c0.012,0.007,0.024,0.016,0.036,0.023l0,0c0.012,0.006,0.023,0.012,0.035,0.019
					c0.149,0.084,0.298,0.165,0.448,0.238c0.011,0.005,0.021,0.012,0.032,0.018c0.032,0.015,0.064,0.029,0.096,0.044
					c0.048,0.022,0.096,0.045,0.144,0.066c0.017,0.007,0.034,0.016,0.051,0.023l0-0.002l0,0l0,0.002
					c0.034,0.014,0.067,0.027,0.101,0.041c0.045,0.019,0.09,0.037,0.135,0.055c0.016,0.006,0.031,0.013,0.046,0.019v-0.001l0,0
					v0.001c0.036,0.014,0.072,0.025,0.107,0.038c0.045,0.016,0.09,0.033,0.135,0.047c0.014,0.004,0.027,0.01,0.041,0.014V91.26l0,0
					v0.002c0.069,0.022,0.138,0.042,0.207,0.062c0.004,0.001,0.008,0.002,0.012,0.003c0.06,0.017,0.121,0.032,0.181,0.046
					c0.026,0.006,0.053,0.011,0.079,0.017c0.019,0.004,0.038,0.008,0.057,0.012c0.015,0.003,0.031,0.007,0.046,0.01v-0.001l0,0
					v0.001c0.061,0.012,0.122,0.022,0.183,0.032c0.009,0.001,0.018,0.002,0.027,0.003c0.016,0.002,0.032,0.004,0.048,0.006
					c0.036,0.005,0.072,0.01,0.108,0.014l0,0c0.046,0.005,0.093,0.009,0.14,0.013c0.007,0,0.015,0.001,0.023,0.002
					c0.003,0,0.005,0,0.008,0.001c0.053,0.003,0.105,0.006,0.159,0.008l0,0c0.034,0.001,0.069,0.001,0.103,0.001
					c0.011,0,0.022,0,0.033,0c0.007,0,0.015,0,0.023,0l0,0c0.053,0,0.106-0.002,0.159-0.004v-0.003l0,0v0.003
					c0.027-0.001,0.055-0.004,0.082-0.006c0.013-0.001,0.027-0.001,0.04-0.002c0.013-0.001,0.025-0.001,0.037-0.003
					c0.053-0.004,0.106-0.01,0.159-0.017v-0.002l0,0v0.002c0.019-0.002,0.038-0.006,0.057-0.009c0.021-0.003,0.042-0.006,0.062-0.01
					c0.023-0.003,0.047-0.006,0.07-0.011l0,0c0.051-0.009,0.102-0.021,0.153-0.032c0.019-0.004,0.038-0.008,0.057-0.012
					c0.005-0.001,0.01-0.002,0.016-0.003v-0.001l0,0v0.001c0.075-0.018,0.15-0.039,0.226-0.062l0,0
					c0.009-0.002,0.018-0.006,0.026-0.009c0.024-0.007,0.048-0.016,0.072-0.024c0.043-0.014,0.085-0.027,0.128-0.043l0-0.003l0,0
					l0,0.003c0.018-0.007,0.036-0.016,0.054-0.022c0.065-0.025,0.131-0.053,0.196-0.082c0.029-0.013,0.059-0.023,0.088-0.037
					l0-0.002l0,0l0,0.002c0.01-0.004,0.02-0.011,0.03-0.016c0.136-0.064,0.271-0.137,0.408-0.218
					c0.027-0.016,0.054-0.034,0.081-0.051c0.12-0.075,0.241-0.157,0.361-0.245c0.026-0.019,0.051-0.037,0.077-0.056
					c0.137-0.104,0.274-0.217,0.411-0.34c0.03-0.027,0.061-0.056,0.091-0.084c0.124-0.113,0.247-0.234,0.371-0.364
					c0.021-0.021,0.042-0.042,0.062-0.064c0.138-0.147,0.276-0.307,0.415-0.474c0.032-0.04,0.065-0.081,0.098-0.121
					c0.13-0.162,0.26-0.331,0.391-0.511c0.013-0.018,0.025-0.034,0.039-0.052c0.14-0.196,0.28-0.406,0.421-0.624
					c0.034-0.052,0.067-0.105,0.101-0.158c0.142-0.226,0.285-0.459,0.428-0.71c2.332-4.083,3.198-6.744,3.069-8.81l-0.67-10.74"/>
			</g>
		</g>
	</svg>
