<?xml version="1.0" encoding="UTF-8" standalone="no"?>
<!-- Generator: Adobe Illustrator 11 Build 196, SVG Export Plug-In . SVG Version: 6.0.0 Build 78)  -->
<svg
   xmlns:dc="http://purl.org/dc/elements/1.1/"
   xmlns:cc="http://web.resource.org/cc/"
   xmlns:rdf="http://www.w3.org/1999/02/22-rdf-syntax-ns#"
   xmlns:svg="http://www.w3.org/2000/svg"
   xmlns="http://www.w3.org/2000/svg"
   xmlns:sodipodi="http://inkscape.sourceforge.net/DTD/sodipodi-0.dtd"
   xmlns:inkscape="http://www.inkscape.org/namespaces/inkscape"
   width="163.187"
   height="423.027"
   viewBox="0 0 163.187 423.027"
   style="overflow:visible;enable-background:new 0 0 163.187 423.027"
   xml:space="preserve"
   id="svg2"
   sodipodi:version="0.32"
   sodipodi:docname="relativity-particle-in-field.svg"
   sodipodi:docbase="/home/bcrowell/Documents/writing/lm/trunk/4em/ch06/figs"><metadata
   id="metadata84"><rdf:RDF><cc:Work
       rdf:about=""><dc:format>image/svg+xml</dc:format><dc:type
         rdf:resource="http://purl.org/dc/dcmitype/StillImage" /></cc:Work></rdf:RDF></metadata><defs
   id="defs82">
		
		
		
		
		
			
	
			 
			
			
			
			
		
			 
			
			
			
			
		</defs><sodipodi:namedview
   inkscape:cy="184.28064"
   inkscape:cx="104.84348"
   inkscape:zoom="1.9447806"
   inkscape:window-height="996"
   inkscape:window-width="1278"
   inkscape:pageshadow="2"
   inkscape:pageopacity="0.0"
   borderopacity="1.0"
   bordercolor="#666666"
   pagecolor="#ffffff"
   id="base"
   inkscape:window-x="0"
   inkscape:window-y="0"
   inkscape:current-layer="svg2" />
	<style
   type="text/css"
   id="style4">
	
	</style>
	<rect
   x="64.232002"
   y="100.11379"
   style="fill:#b4b4b4;stroke:#000000;stroke-width:0.34277138"
   width="60.000000"
   height="72.257721"
   id="rect9" /><path
   style="fill:#b4b4b4;stroke:#000000;stroke-width:0.50000000"
   d="M 123.96875,93.937491 L 123.96875,172.24999 L 143.71875,160.84374 L 143.71875,93.937491 L 123.96875,93.937491 z "
   id="polygon13" /><g
   id="g15">
				<text
   transform="translate(84.02120,157.9634)"
   id="text17"><tspan
     x="0"
     y="0"
     style="font-size:25.500000px;font-family:Liberation Sans"
     id="tspan19">S</tspan></text>

			</g><path
   style="fill:#ffffff"
   d="M 38.406250 85.718750 L 38.406250 113.03125 C 69.485249 106.00325 102.12250 104.38725 110.06250 106.65625 C 117.84150 108.87825 141.91350 112.59175 160.06250 112.34375 L 160.06250 85.718750 L 38.406250 85.718750 z "
   transform="translate(0.000000,-8.616713e-6)"
   id="path21" /><path
   style="fill:#b4b4b4;stroke:#000000;stroke-width:0.50000000"
   d="M 64.031250 258.50000 L 64.031250 321.71875 L 124.03125 321.71875 L 124.03125 258.50000 L 64.031250 258.50000 z "
   transform="translate(0.000000,-8.616713e-6)"
   id="rect25" /><polygon
   style="fill:#b4b4b4;stroke:#000000;stroke-width:0.50000000;stroke-linejoin:round"
   points="123.82100,258.29200 143.12200,247.14900 83.722000,247.14900 64.421000,258.29200 123.82100,258.29200 "
   id="polygon27" /><path
   style="fill:#b4b4b4;stroke:#000000;stroke-width:0.50000000"
   d="M 143.53125 247.09375 L 123.78125 258.50000 L 123.78125 317.62500 L 143.53125 317.62500 L 143.53125 247.09375 z "
   transform="translate(0.000000,-8.616713e-6)"
   id="polygon29" /><g
   id="g31">
				<text
   transform="translate(83.81270,296.2998)"
   id="text33"><tspan
     x="0"
     y="0"
     style="font-size:25.500000px;font-family:Liberation Sans"
     id="tspan35">N</tspan></text>

			</g><path
   style="fill:#ffffff"
   d="M 163.18750 310.00000 C 132.10749 317.02901 99.472250 318.64300 91.531250 316.37500 C 83.752252 314.15201 59.680250 310.43950 41.531250 310.68750 L 41.531250 332.53125 L 163.18750 332.53125 L 163.18750 310.00000 z "
   transform="translate(0.000000,-8.616713e-6)"
   id="path37" /><g
   id="g39">
			<line
   id="line41"
   y2="204.52000"
   x2="17.333000"
   y1="229.52000"
   x1="17.333000"
   style="fill:none;stroke:#000000;stroke-width:0.50000000" />
			<polyline
   id="polyline43"
   points="42.083,229.27 17.083,229.27 7.667,234.583 "
   style="fill:none;stroke:#000000;stroke-width:0.50000000" />
			<g
   id="g45">
				<text
   id="text47"
   transform="translate(44.66670,232.9155)"><tspan
     id="tspan49"
     style="font-size:10.200000px;font-family:Liberation Sans"
     y="0"
     x="0">x</tspan></text>

			</g>
			<g
   id="g51">
				<text
   id="text53"
   transform="translate(13.99980,200.5825)"><tspan
     id="tspan55"
     style="font-size:10.200000px;font-family:Liberation Sans"
     y="0"
     x="0">y</tspan></text>

			</g>
			<g
   id="g57">
				<text
   id="text59"
   transform="translate(0.000000,242.9155)"><tspan
     id="tspan61"
     style="font-size:10.200000px;font-family:Liberation Sans"
     y="0"
     x="0">z</tspan></text>

			</g>
		</g><g
   id="g63">
			<g
   id="g65">
				<path
   id="path67"
   d="M 69.473000,209.47000 C 96.809000,209.47000 120.91100,212.62300 135.14300,217.42000"
   style="fill:none;stroke:#000000;stroke-width:0.50000000" />
				<path
   id="path69"
   d="M 138.00400,218.38400 C 136.82700,217.43100 135.44400,216.01600 134.71300,214.76600 L 134.76900,217.29400 L 133.19500,219.27200 C 134.53300,218.71900 136.49000,218.42900 138.00400,218.38400 z " />
			</g>
			<circle
   sodipodi:ry="4.2399998"
   sodipodi:rx="4.2399998"
   sodipodi:cy="209.56300"
   sodipodi:cx="69.536003"
   id="circle71"
   r="4.2399998"
   cy="209.56300"
   cx="69.536003"
   style="fill:#ffffff;stroke:#000000;stroke-width:0.50000000" /> 
			<g
   id="g73">
				<text
   id="text75"
   transform="translate(66.83330,211.8042)"><tspan
     id="tspan77"
     style="font-size:7.6500001px;font-family:Liberation Sans"
     y="0"
     x="0">+</tspan></text>

			</g>
		</g><line
   id="line79"
   y2="209.24200"
   x2="143.58299"
   y1="209.24200"
   x1="82.583000"
   style="fill:none;stroke:#000000;stroke-width:0.50000000;stroke-dasharray:2.0000000 " />
</svg>