<?xml version="1.0" encoding="iso-8859-1"?>
<!-- Generator: Adobe Illustrator 11 Build 196, SVG Export Plug-In . SVG Version: 6.0.0 Build 78)  -->
<!DOCTYPE svg PUBLIC "-//W3C//DTD SVG 1.0//EN"    "http://www.w3.org/TR/2001/REC-SVG-20010904/DTD/svg10.dtd" [
	<!ENTITY ns_flows "http://ns.adobe.com/Flows/1.0/">
	<!ENTITY ns_svg "http://www.w3.org/2000/svg">
	<!ENTITY ns_xlink "http://www.w3.org/1999/xlink">
]>
<svg
	 width="320.315" height="201.259" viewBox="0 0 320.315 201.259"
	 style="overflow:visible;enable-background:new 0 0 320.315 201.259" xml:space="preserve">
	<metadata>
<?xpacket begin='﻿' id='W5M0MpCehiHzreSzNTczkc9d'?><x:xmpmeta xmlns:x='adobe:ns:meta/' x:xmptk='XMP toolkit 3.0-29, framework 1.6'>
<rdf:RDF xmlns:rdf='http://www.w3.org/1999/02/22-rdf-syntax-ns#' xmlns:iX='http://ns.adobe.com/iX/1.0/'>

 <rdf:Description rdf:about=''
  xmlns:pdf='http://ns.adobe.com/pdf/1.3/'>
 </rdf:Description>

 <rdf:Description rdf:about=''
  xmlns:tiff='http://ns.adobe.com/tiff/1.0/'>
 </rdf:Description>

 <rdf:Description rdf:about=''
  xmlns:xap='http://ns.adobe.com/xap/1.0/'
  xmlns:xapGImg='http://ns.adobe.com/xap/1.0/g/img/'>
  <xap:CreateDate>2006-10-15T19:41:33Z</xap:CreateDate>
  <xap:ModifyDate>2006-10-15T19:41:33Z</xap:ModifyDate>
  <xap:CreatorTool>Illustrator</xap:CreatorTool>
  <xap:Thumbnails>
   <rdf:Alt>
    <rdf:li rdf:parseType='Resource'>
     <xapGImg:format>JPEG</xapGImg:format>
     <xapGImg:width>256</xapGImg:width>
     <xapGImg:height>164</xapGImg:height>
     <xapGImg:image>/9j/4AAQSkZJRgABAgEASABIAAD/7QAsUGhvdG9zaG9wIDMuMAA4QklNA+0AAAAAABAASAAAAAEA&#xA;AQBIAAAAAQAB/+4ADkFkb2JlAGTAAAAAAf/bAIQABgQEBAUEBgUFBgkGBQYJCwgGBggLDAoKCwoK&#xA;DBAMDAwMDAwQDA4PEA8ODBMTFBQTExwbGxscHx8fHx8fHx8fHwEHBwcNDA0YEBAYGhURFRofHx8f&#xA;Hx8fHx8fHx8fHx8fHx8fHx8fHx8fHx8fHx8fHx8fHx8fHx8fHx8fHx8fHx8f/8AAEQgApAEAAwER&#xA;AAIRAQMRAf/EAaIAAAAHAQEBAQEAAAAAAAAAAAQFAwIGAQAHCAkKCwEAAgIDAQEBAQEAAAAAAAAA&#xA;AQACAwQFBgcICQoLEAACAQMDAgQCBgcDBAIGAnMBAgMRBAAFIRIxQVEGE2EicYEUMpGhBxWxQiPB&#xA;UtHhMxZi8CRygvElQzRTkqKyY3PCNUQnk6OzNhdUZHTD0uIIJoMJChgZhJRFRqS0VtNVKBry4/PE&#xA;1OT0ZXWFlaW1xdXl9WZ2hpamtsbW5vY3R1dnd4eXp7fH1+f3OEhYaHiImKi4yNjo+Ck5SVlpeYmZ&#xA;qbnJ2en5KjpKWmp6ipqqusra6voRAAICAQIDBQUEBQYECAMDbQEAAhEDBCESMUEFURNhIgZxgZEy&#xA;obHwFMHR4SNCFVJicvEzJDRDghaSUyWiY7LCB3PSNeJEgxdUkwgJChgZJjZFGidkdFU38qOzwygp&#xA;0+PzhJSktMTU5PRldYWVpbXF1eX1RlZmdoaWprbG1ub2R1dnd4eXp7fH1+f3OEhYaHiImKi4yNjo&#xA;+DlJWWl5iZmpucnZ6fkqOkpaanqKmqq6ytrq+v/aAAwDAQACEQMRAD8A6pirsVdirsVUJL2zjuor&#xA;SSeNLudWeC3Z1EjrHTmyITyYLyFadMVV8VdirsVdirsVdirsVdirsVdirsVei+X/APjjWn/GMfrx&#xA;V51irsVdirsVdirsVdiqgl9ZPdyWaXEbXkKrJNbK6mREevBmQHkA3E0J64qr4q7FXYq7FXYq7FXY&#xA;q7FXYq7FXYqwvzn5Gl1vWLXU4reyuTbW4hktruqrOFuYpvRkdY5SIyqP2bc/ZIJxVIz+VmpLbcng&#xA;069mLxF7G4eYWzQJFOgty4jd+EElwrR/DvwH2TQqqjvLf5d6xpmo6xc3F4olvre5t4L2GReR+sSB&#xA;42kjNskxaAALG0l1KQK0pXZVLh+U97NzkltdMtAtrcJZ2Vu0rww3bx26xXSs0UdHZoGZyFqNt2NT&#xA;ir1PFXYq7FXYq7FXYq7FXYq9F8v/APHGtP8AjGP14q86xV2KuxV2KuxV2KuxV595n/Lm41HW7/VL&#xA;ez066+uqEaG7LRgt6HpLOzJFIWkhbeMe5+JTQ4qgf+VWatHcCVGspp5JppW1CYzCeCRrhZUuoggB&#xA;aZo0CMDIAO5daqVUZov5eapY+UdR0lzAbm7mglMHrIbWZYGjLo4gs7P01uFjKSfu3NDUlsVa0b8t&#xA;bqz1WDU5YrGKaCSB7SOAuwtYluLuWa3gYxoQnp3KINl5UOyigxV6JirsVdirsVdirsVdirsVYJ55&#xA;8p6lrHmDTbi2hne2CQxXM0NyYPSVNRtZ2IAkjYN6UbkMg5bePHFUHoGh+f4PNFnJqFzdfoy3+FSZ&#xA;PXRoViZPSnLXq1cyfHz+qyP0/edQFUrmsPPGorqUmmDU/RkvdQguZ/0h9tE1QrD9RjNzD6JgiidG&#xA;q0YI/n2xVD3nknz1qGjNJqMN5dapR7dIZL5WjCfoRbb1AnrCL95eF+R+0a1IpiqJ1Dy1+Ys7evBH&#xA;dpfRSSGW4mvUljcsZRI9pEJY3gWSFlRQJY96bR05sqz7ybaataeX4IdVkmkvA0jH6zT1URpGZI2I&#xA;uL7lwUgAmdyR1NcVTzFXYq7FXYq7FXYq9F8v/wDHGtP+MY/XirzrFXYq7FXYq7FXYq7FXm/mXyZr&#xA;d95qv7+0ju445E9WC7gvDB++SxlhjVAsqulJePKihWqK8hyxVdo+n+ebO616+1m5uRF9UuzD8QMD&#xA;MX527xn65NwaKJeNEtogampYgEqpJNpH5kT2VnNpkepx2wCXKJJqKy3LXCRxklme7VPq03xkI3L4&#xA;gPgQMcVXaj5H88Ndvf2iXT6rKkzx3dxeiRIZFnuzAoR5XVQI5YeHBCB8XQk1VXX/AJY8/Ncvc6db&#xA;6ja2sscETRTXy3V8Eje8YKZVvLJiEaZGoboihH26FQq9V06O5j0+2juZDNcpEizysArO4UBmKqWU&#xA;EnegJ+eKojFXYq7FXYq7FXYq7FUi1wa+Nd0J7G7jg04zyR39q6FmnDQOy/HUcOHpkjxNK7DFU9xV&#xA;2KuxV2KuxVD3uoWFjF617cxWsO49SZ1jX4VLndiBsqlvkDiq+S5tozCskqIbhvTgDMAZH4l+KV+0&#xA;eKlqDsDira3EDTvbrIpuI1WSSEMOapIWCMV6gMY2APeh8MVVMVdir0Xy/wD8ca0/4xj9eKvOsVQN&#xA;/rmi6fNBBf6hbWc90wS2inmjieViaBY1cgsantiqEm85+UYrSW7fWrEW0LtFLKLiJgJEUu0ezH4w&#xA;orx64qpxeefKElstwurW4jcO0IZ+LyiONZmMSNR5KRuG+AHFVQ+cPKwLL+lbYvGU9aNZFZ4vUXkp&#xA;mUfFECorVwBiqP07VNM1O1F3pt3De2rEqtxbSJLGSuxAdCy7YqisVdirsVSGGLXT51upWv1/Q8dl&#xA;CE0309/UkeT996nL7X7sqRShFO4xVPsVdirsVdirsVdirsVdirsVdiqXan/vbpP/ADFt/wBQk+Kp&#xA;jirsVdirsVeUXf5eazqr6rLHZWVqLm8vRI8rOk97BJfJII5+dvMiRhIiY34ydQVC7kqqdz+UOsXH&#xA;l9rSVdPm1MLDDFLI8jIscFtcW6EOYWZSpnV1AXtSuwOKonUfyv1+5a4ML2FtO9xczfpJHn+szpPH&#xA;dLGswKFB6IuUiWvP4AdwPgKqtJ+WN4PLMNjHZ2cmordNPSeaB7eNeLBFVBpggdFLsRH9XXiWYq4J&#xA;rir0iBHSCNHKl1UBio4rUDeg7DFVTFXovl//AI41p/xjH68VedYqxHzZ5U1PXNXjWGeO10+bT7iy&#xA;vp2hWZyk8sZZIquhjkKpVXoyj+UmmKpXpH5UTWVwZZ9WW6JBLMbd/UeRrae2MrySTykuwn5Mdtwa&#xA;UBoqrSflTdr6/wDuXiIvYkivg1ir19FaxtB6kr+kedSx+I0pQqw5YqitF/LNNNbUOd3Hepd29zbQ&#xA;LcpdOI1vJBLMrRm79DgzqPhijjNAPirUlVknlzSr/S9O+rX18dQnMjv6xEoCqx2RfXluZaD/ACpW&#xA;+7YKprirsVdiqXQf8pBe/wDMJa/8nLjFUxxV2KuxV2KuxV2KuxV2KuxV2Kpdqf8AvbpP/MW3/UJP&#xA;iqY4q7FXYq7FXlmr+VvOF55ikuRaXUpind1vJLyNrcxHU7O4t1toDLWEx21u3qfAvJl/aJGKqLeW&#xA;fzPiMaQXl9yjsFEchufV5TGzKyxSyy3nEObpmZXFq9PhpIq7Kqo3/k3zlLqX16wtNQgdkT6u91qM&#xA;c88Kxrqa+m0jSP8AvKXcPpn4+FT8f2jiqbaX5d85/ph7121K2sIZrJtNsbnUTMyQfWn+trcgTypK&#xA;3onkOTP8JABLLsqs81+VPNOs3mp2jRXk1ldyN6r/AF0JZy2ZSP07eO3WVWSRZFLO3BajkOTBuOKv&#xA;SY40ijWNBREAVR1oAKDrir0jy/8A8ca0/wCMY/XirzrFWFeftH1/Ubm1Sygubqz9Ir6dtdLbJHP6&#xA;0TCS4RpIvWT0lYBfiof2d+QVYpD5Q/MW20OKCGS8hYNbQtbQXPMxxQ6bBGrQot7YxqFuvW5j1fiN&#xA;CVcUxVW1fyj50v0cXVvqF3cRXcrtK2oRrbzI4uEgeG2EoWMRxyxrKKrXf4X+1iqItPK/nd7m2t5j&#xA;qVvaiXjqcg1LjHLD9aRoRarFMGhWK2Vkk4rGSTtzPxYqmGsaN52k0PSIITeyXsNlLCzwXiwtHfn0&#xA;xb3F0/qJ68SBW5r8de6NXZVkXkfQW0TQjaSRNFPJdXdxKHkMzMZbh2V2dmcktHxJ3+e9cVZBirsV&#xA;S6D/AJSC9/5hLX/k5cYqmOKuxV2KuxV2KuxV2KuxV2KuxVLtT/3t0n/mLb/qEnxVMcVdirsVdirz&#xA;q987+bINWnVBYHTorqSIRGGb1jFDe29ow9QTceTfWuQbhQcaUPLZVIdT/MzzXJZevb6hYRKtvJLJ&#xA;JawFhHcPY3M4snaZ5B69u9upfYE8hVF6FVNo/wAwvNN5fW9lYyaaZ7ub05AYZ5DYsI7lzbXQWdeU&#xA;1LYd07/DShxVn+h38mo6Jp+oSKEkvLaG4dFrQGWMOQK9hXFUdirsVei+X/8AjjWn/GMfrxV51irE&#xA;fOcnmz9I2ceiXNxa24gkkna3t4pw0n1m2iVXMsctKRSytRaHavQYqw/UNR/M2fS9TtRNqY1BI72K&#xA;1SKyWNZbaO2m9O5+sJCvC5e4VVVI3BpQqm/IKqy6r+YMAult5dUklE9y2nQy2POOaBrm5LSzyyQ1&#xA;idIhGYo6oPsgIwOyrOPJz699VvItZmmuZYp4xb3FxFHC7RyWkErCkSRIQk0kiVC9qGpBxVkGKuxV&#xA;2KuxVLoP+Ugvf+YS1/5OXGKpjirsVdirsVdirsVdirsVdirsVSfzFfW9gdNvLrmttDdEzSpG8gRT&#xA;bTKGf01YqvIgVO2KrrXzRo93EJbVp54jsJIrW5dfvWMjFVX9OWX++7v/AKQ7v/qlirv05Zf77u/+&#xA;kO7/AOqWKrZfMFlHE8no3bcFLcRZ3IJoK0+KMD7ziqnofmO017Q7fWNJjkkt7oViEyNA1Oh2cCtD&#xA;3Gx7HFUDqXmS7sW0pblktYL24eK7vZYZFSIKtVXix6v2Ymm2KsjjdXQMp5KfssAQCOxofHFV2Kux&#xA;V2KvRfL/APxxrT/jGP14q86xV2KrJndIZHjT1JFUlIwaciBstT0rirA/y88665r2mXMuoAJqMQc3&#xA;Ft9VlQW0vIKsJAJZu/vtirL31Gez0ya+1CKqwR+oy2qyzOwAqeMQTnX23xVB6R5v03U9MttQhgvE&#xA;iuoxLGjWlwzBW3AYxo6V8aMcVRf6csv993f/AEh3f/VLFXfpyy/33d/9Id3/ANUsVUrnzPpFrEZr&#xA;pp4IRsZJbW5Ran3aMDFVLRdTtNT1a9u7P1XtTbWyJO8MsSOwecn02kVA9Awrxr1xVO8VdirsVdir&#xA;sVdirsVdirsVdirsVQVzouk3MpnmtImuCKC5ChZhT+WVaOv0HFVE6RcxD/QtRuIQN1ilIuY6/wCU&#xA;Zg0xHsJBirvU8wwfbitr1RuXiZ7d/ksb+spPzlGKobT/ADJ9d1u60ebS7y1aCJJDPNGGgYvWsZli&#xA;MkQcLRqcuh+jFU7ApsOmKt4q7FXYq7FXYq9F8v8A/HGtP+MY/XirzrFXYq7FXYq7FUm1zX5dKutP&#xA;toNLu9Q+vTGOSS2QGOAEEh5Hbig5PRRUj3PiqrGTzDP/AHcVtZKd1eVnuH+TRJ6Kj6JTirv0RcTf&#xA;726jcSg7tFCRbRg/5JiCzAexlOKq1touk20onhtIluAKG5KhpjX+aVqu30nFUbirsVdirsVdirsV&#xA;dirsVdirsVdiqU3V5q/6TmhsUgmhtoYpJIH5LJI0rSAqsvLihVYwaMhrXqvXFUwsrqK8s4LuGvpX&#xA;EaSx8hQ8XUMKj5HFVbFXYq7FXnnnu782fpWS2sJNRjhEcTWcVjbs0MtUm9ZpbmNGdHRggVOa/Jq7&#xA;KpZDqf5nx3NihkuRBLcOAZ7ZyoVJ1jWKX0bK5k4NEOQd5I6lq+ptiqGlvPzAuxp9w9zrXqlCLu2F&#xA;l9WiS5Y27SRAxIrPDH+84SNQGlA71OKoqLUvzKuU4RXepRgW5mnmk06GJ0vUtppJLWNZICGgEqxB&#xA;Xo3KpCyMdwqnXmzUPOAu4IdPlvbX1ba3MC2dmlwkk8krLdieSSORYfRh4tHVkqx/apxxVkflC2u7&#xA;byrpMN7LcTXgtITcyXjM05lZAziQtRuQYkb74q9d8v8A/HGtP+MY/Xir52/Me782i8a10uTUY4TF&#xA;bNapp9uzpLIZn+setcRozxcEWPiA61qftb0VS1tU/M+EWSrJchZp5wGntnKoIpUjhjlEFldymNo+&#xA;Tc2Mda/3m1MVQ13e/mBeRwzNcays4Ey3FpHZfV4UuWjJaJJIkEkkUfH93Idif23JoqqOh1H8x7v0&#xA;YlutRgaSjX8psIU+r3K211JJb2/q25WSASxwqshDVrs55bKpvrWo+cWvdOjtXvLUz21mypbWiyxS&#xA;TyzFbwXMskUgtxDDRkqy1JP2qccVTzyJb6hB5N0VNSluZtRazhlvWvSzXAmlUSSJJzAYcGYqAdwB&#xA;TFU+xV2KuxVIbTVtUuZNNvT6MWmai/GKCjPL6bwvLHI0lVVWPBRw4nr1PZVPsVdirsVdirsVdirs&#xA;VdirsVS/Ur+5jlisrBUkv56sPUJ9OKIbNNIBQkA7KoILHaoFWCq1I7bRtPuLqeVpXAM11cyU5yuA&#xA;ANlFOwVVUewxVW0a2ktdIsbaT+8gt4on+aIFP6sVRmKuxV2KsJ8x+cfM2n+al0jT7CzuoHW0KCaa&#xA;SKRjcR37tV1SRVp9RFPhP08vgVVPJ/5hy+Zb8RxaTPBYPE7x3xWcoJIiqtG7tBHB8RY8PTmcnieQ&#xA;XpiqVW/5sX31WG8v9GitLO4jDxSrePMeUllNewqUW25fEtsytxqQStA29FW4/wA2L1rT1m0RIpba&#xA;SKLU4Jbvg0TXF4bOMRVgrKQyMXBCccVc/wCa+pxrDE3l6Sa/lj+s/VLSS4uybf0YJhxMFq59X/SV&#xA;Xi6qlR/edMVUrP8ANDXfrE1tc6dZyXCRSTqi3JtoxFBNeJMWnmUry4WqcQQoqSWZR0VfR/l410Wz&#xA;PjGMVeCeaPOPmbTPNlppGm2Fnd29wkTfv5pIZCzpdOw5KkiqP9F68W8Kb1VVV8rfmFL5h1RbeHSZ&#xA;4rB4ywvis5VZAiOUdjAkFDzIXhMzbbqMVSz/AJWtqEcf1m60WKGyKCQTLdvK1JI7h4axpbctzZuH&#xA;pXiCpHLcBVfZ/mne3KRctFSCWKeC31OGW74tC1zemyj9IGGspDKzOCE49MVUR+bOpfVbUny+0t/e&#xA;QLewWdrLcXRa2aGOUbwWjsJT6oXiyBPGQYqssfzQ157u8tZ9MtGnSSdbSI3DWy+nbT36ymaaVWCs&#xA;I7AADjQmrEqv2FXpEMglhSUbB1DAVB6ivVSQfoxVfirsVSXSLW1vfLsGnz1JtFS2mCko8c1tReQI&#xA;4spBUOpHahG2Kq1leXdveDTdRcSO6lrK9oF9dV+0rqAFWVRuQuzD4lAoyqqmmKuxV2KuxV2KuxV2&#xA;KoDUNSMMqWdqFm1GdS0MJNAqAgNLJTcIpP0nYYqqafp6WiOS5muZjyublvtO38FHRVGwGKoMganq&#xA;5UgtZaWw2/ZkuyAw+YhUg+HJvFMVTfFXYq7FXYqw7XPNfk+w82xWepac7ajFCr/pdrVGjhR47h0T&#xA;12+PdYZqBAe468qKqFt5p/LjTtQee0sltb14ljaWHT3juWCVUW7RLGLqqLDy4slAgr0xVkGnad5c&#xA;1LSLO5i0y3Fnc28csEEkEXwxyQGNVKgMopDK0dB+ySOhxVL778uPK11d2Ey2kVrb6fIs0dlbW1pH&#xA;E0iMrKzN6JmX+6QEJIoYABqjbFU1ufLPly6WNbrSrOdYmV4hLbxOFZFCIy8lNCqqFFOgxVqTyv5Z&#xA;kJMmkWTlpBOxa3iNZVZ3Ehqv2g8rty61YnucVes+X/8AjjWn/GMfrxV8/eavN2laR5ytItQ0GOaK&#xA;C1ed/MDmEyQJ6VxLwiTi8pDJbSV+JR/FVLtH8/8AkuXVGn0Xy6JNQEYtRJZJYvcEpGZPR9aGRoDG&#xA;kEQbacj9mnIUxVmWlafoOq6HY3cmk2qQ3ttDL9WaKN1VZI2ITdQCFE7jp+0fE4qg7v8ALryxcXun&#xA;3EVrFZxadKlxDaWtvaRxmWNkZWL+iZl/ukBEcighQDUYqmlz5Y8tXUMcFzpNlPBFw9KKS3idF9Je&#xA;EfFWUgcF2XwGKtS+VfLEwmEuj2UguJBPOGtom9SVSzLI9V+JgZGIY77nxxVNMVdirsVSjUAunX0e&#xA;qJ8NvMVg1ID7ND8MU5942IVj/IatsgoqmF5Z295btBOtUNCCCVZWU1V0YbqyncEdMVQdlfzQ3a6Z&#xA;qDVuipa1uacVuEXr0+ESr+2o/wBZdqhVUzxV2KuxV2KuxVCalqC2UAYIZriVhHa26kBpZSCQoJ6b&#xA;Alj2AJ7Yqs0vT3tUkmuHE1/ckPdzjYEj7MaDtHGNkH0mrFiVVLzFc3Fto880Hq8wYwxt1DyhGkVZ&#xA;GQEMOSoSakUHU7Yql+m+ZNLWOOz0+0ZwuyRR3Fi7Ek1JP+klmLE1JO5JqcVTL9J3v/Vpu/8AgrT/&#xA;AKr4q79J3v8A1aLv/grT/qvirjql9/1aLs/7O0/6r4qt/T9lGeN6k1iR9priMrEPnOvKD/h8VSbV&#xA;/KXlbzZcT3T3jXHOOKCZbaWJ0Ahju40r8L70v5Ca7Gi7UqCqh4Pys0W2WE2l7dWdxBX07m0jsrYg&#xA;sJFY+nBbRwElJmSpj6e4rirK9NsIdP061sISzQ2cMcETOQWKxKEUsQAK0G+2KonFXYq7FXovl/8A&#xA;441p/wAYx+vFXkmqeVdA1W6F1qFoLiYJ6VWZwCnCWPiVDBT8NzIOnf2GKoObyB5YnVRPDczPGKR3&#xA;Et7eyTqBy2WZpjKopIwoG6EjocVTyztLeytILO2T07e2jSGFKk8UjUKoqxJNAO+Kq2Koe7v7GyQS&#xA;XlzFbIxorTOsYJ8AWIxVCHX7J9rNJr5v2TbRs0bfKduMH/D4qu/SOotsmlTqe5lkt1Wn+wkkP4Yq&#xA;76/qa7vpkjDwilhZvudoxT6cVd+k73/q03f/AAVp/wBV8VQF15s0+N5La6tyjbrLDLcWAO+xVla4&#xA;9++Kq/le4aaynKxzxWiTlLJLgDkIQiH4WBYOnMtwYMfhpviqP1GwivrYwyM0bAh4ZkoJI5F3V0JB&#xA;FR7ih6GoxVQ0rUJpjJZ3oVNStQPXVQQjqahZowSTweh2qeJqtTSuKpjirsVdiqhe3trZWz3Ny/pw&#xA;x/aNCxJJoFVVBZmY7BQKk7DFUHp1rcTXT6pex+nO6mO0tyQTBASDQ029SQir022C78alVM8VdiqT&#xA;26RNeXmkX8a3EbFru19YCQPFKx9RfirUxSMRSmysgxVCW1hDHa3l9FO2kwwSzCIRNSBIoD6bF4H5&#xA;Q0Zo2aqqDxPUYqirPVdRkBtngja/4CaAv6ltHNAaVdVZZZI2QsA8bCqkjxGKoj1/MH/LFaf9JUn/&#xA;AGT4q19f1eIfv9LMhPe0mjkA+fr/AFY/cDiqEu7ry3eMkt/A8MsYpHdXEE1u8XjwuGVOHzV8Vb8t&#xA;avaXcdxbxXy3i287x28jOrStEAD8YryPFuSBiPiC8t61KqeYq7FXYq7FXovl/wD441p/xjH68Ved&#xA;Yq7FXYqk3mXWbWx0+VfrsdtctxA+JfWEbOBI8UZqWdU5FRxNT2OKqVjc+XrQmWzt55ZnFGuhbXM8&#xA;snSgedkZm/2TbYqjPr+sS/7z6Z6YHe8nSKv+r6IuT99MVb9fzB/yxWn/AElSf9k+KqVxqOqRiO2+&#xA;rwjUbkn6siSNLGqLT1JpCUhPFOQ2HUkDatcVS64tYrvRZdSeeXUpIwZGt5laOIiFuUkH1T4VDfCy&#xA;j1AzA9ziqP1SOKO3t9FsUWD66ShWEBPStloZ5FC047MEBHRmXFU4xV2KoDVLCWb0rq0KpqFqSYGa&#xA;oV1anOJyKng4HgaGjUNKYqqafqMF9GzRho5Ym9O4t5BSSKQCpVxv41BGxG4JG+KovFUBf6slvMLS&#xA;3jN1qLryS1Q0opqA8rdI02PxHr0UMdsVU7TS5WuUvtTdbi9SpgRQfRt6gg+kp3LcTQyHc704qeOK&#xA;pnirsVdiqXXrerqVtYkUSeC4eSVSySBY2iXijoVZamQHY9sVSkWt59Vvbm1ea6so7lv9x00jztIl&#xA;s6pL6bs3qK5kibihco2wIHI4qjtTuIJYdN1O0kDsLiBYHX/dkVy6xSL4leD86eKg9sVRUl7qcUjB&#xA;tOaePkfTe3ljYla7FhMYOJ8QCcVW/pS+p/xyLv5c7T/qvirX6ZMf+9NheQD/AIxCf/qGafFUPf6h&#xA;5au4iupoFiXcNewSwgHxR5kT4vDia1xVGaJ9a/Q9j9a5/WPQj9USV9TlxH2678/5vfFUdirsVdir&#xA;0Xy//wAca0/4xj9eKvOsVdiq1w5RghAeh4kioB7VGKse0HUdIs9NhhSKYXgjQ6gkcE08wn4/H9Ya&#xA;JGPqE1NW69RsRiqY/peV94NNu5l/m4xxd/5Z5Im/DFWxql8RvpF2PYvafwnxVr67rMm8OmiMdxdT&#xA;pGfo9EXOKrLNkOr6rc3DBGt/ShjLEALbiJZS+/TlI7hj34j+XFUqvFuLjS7vVld4dO9UXQsoz6Rn&#xA;t4ipkklb+8BkRCyKrKCKB+rDFU4hAs9Tt7GIE28lvNKvNmdlMTxLQM5Y8SJdh0FMVTLFXYq7FUBq&#xA;GlLcSrd28htdRiHGK6QVqoJPpyrsJI9z8J6dVKtviqnbatIlwllqUYtbuTaBwawTkCv7pzT4qCpR&#xA;vi605AcsVdqF3pmg2Ut68XCKa5iE7RgcmlupkgDuWI2Bda1OyjboBirHdT/NvypYyQIsd/eGYMzf&#xA;V7KcmONQpWV1kWNvTfmAjqCGr4YqnVz5w0a2179CXHrpeNFFLGwgleJvX9UInNFYI/7htn416LU4&#xA;qg4PzK8mTpA8V7IwuHeNB9VugVMbRq5lBirEoM8fxScR8QNaYqjtC816Prs9zFprSyJbJFI07xPE&#xA;jrPz4NF6gVnUiOvIDiQRQnFUwu7eZys1sY0ukDIkkqM44MQWWish+LgN8VS22urvSY2jvrVjbNLL&#xA;Kby2JmVfVkaVvUj4rIg5PQcVYU3YjFUJ9Vs/qem67ZxNbyz3FtctbCVzDW+Kwyn06+ny4zs3JVBL&#xA;depqqmrTeYAxC2lo6g7MbmRSRXrx+rtT5VxVr1/MI/48bQjvS7kr9FbcYq59ZS3WP69bTWzyyelC&#xA;qobj1G4s54iD1GpxQn4gMVQmoTSaqYLa0s5qRzwzvezo1usPpyBm4CQLKzlAQOKcd6MabFVPcVdi&#xA;rsVdir0Xy/8A8ca0/wCMY/XirzrFXYq7FUmjF1p2oXsrWj3MF7KJUuISrOoESpwkRipoCp48a9d6&#xA;dSqrrrDStLDb2kzXUKo7QygRfDIWCtyY9P3bYq71fMTE/wCjWcYAqD9YlkqfCnox0+e/yxVv1fML&#xA;Gn1a0iH8/wBYlk/4X0Y/+JYqgo9LtdR1LUZdRX1fReG19NWdYmjjiSf95GG4uDJO2zVFKYqpjUrz&#xA;XtIEVpZlY72343F1MxjiT1Uo4iqpeUry2PEI382Kpva210JBNeyQzToGSKSKJouKOQWWjSS1qUH3&#xA;Yqpah5g0TT7mK1vL2KG6nMaxWxYGVvWlEKMIxV+JkcLypQdziqC/x15M9WCIa5YsblnSF1njaNnj&#xA;KBo/UBKB6yrRSamuw64q4+ePKK2FvqL6tbx2F1PJaw3cj8IfWiDl0Z2oq/3TULEA9uoqqiZfNPli&#xA;FrlZtXso2sgpvFe5iUwiQgJ6tW+DkWFOXXFVGfzB5SvZ7XSXv7S8m1RQ9pZrIkzSpwaZZAqlvg4x&#xA;Fg/So2NaYqi9b0a01jT2sLsuIGkhlb0zxYmCZJlFaHYtGAfbwxVi9n+Unlyztmgt554qxvEksUVj&#xA;C6q/pkEmG2j9RkMQo0oY9a1riqcaz5L0rV5LuS7lnBvYoIZhGyr8Nt63HieNQT9Zav0UpiqW6d+W&#xA;GiWKzBLu6k9dJI35fV0AEv1fkVWGGJV/3ij6CnXbFU18t+VLXQTMYby6uxJFBbxi6aNvSgtg4ijT&#xA;gkZookO7VJ7muKptdTSwwmSKB7lxT9zGUDEE70MjIu3ucVQGkaxb3MklnLPTUUaR2tZVMUwiMjem&#xA;QjBeSqtF5rVSR1OKpZexWkdlb6rbGdNPku4JpdPQckkLzqqSIih3X42SWkZAam4qTiqbfpPUHPGD&#xA;Sp968ZJnhjj+mjySD/kXirfr+Yaf7xWlfD63L/2TYqsa31a7urVruOC3t7aT1iIpHmd2ClVX4o4u&#xA;IHLkTvWlOlcVTTFXYq7FXYq7FXovl/8A441p/wAYx+vFXnWKuxV2KuxVLZrLUI9Qlu7KSLjcRok0&#xA;MwanKMtR1ZTXcNQg+Ap3qq363mD/AJY7Q+/1qQfh9XOKtfXtYi/v9M9Unp9Unjk+/wBf6r+GKpXb&#xA;2kepXWr3E8M6W6SosulsQqzSpbxsXkC15clZU48uBC7g1xVH6hrVmNOUQXHp3d9AX0+NFMkxLJVX&#xA;WJeTELUEmlB3xVH2VxcTxs81q9pvRI5GRnIoN2EZdRv/AJRxVj3mnySmuT3Fw1y0XrQ2kRREBelp&#xA;dG6PF2dQDJXjv0679MVY5ovkDW9QW/utadbKaeCextojbwqwjlt7WFZWSG4uUUp9VOwlPKtfh+zi&#xA;rIv8EM1jZ2kt6rrZXd9dRt6NKrex3CBCDId4/rVeXenQVxVJ7X8qZ4tWjv5dXFwI3ibjJbuXZIbq&#xA;3uVjLtOygL9VEacUACnoSKlVHaR+X1xpusWt5HqUb2cF019JbG1pK87WklmAs/q/DGI5AePA/EOu&#xA;+Ks0xV2KuxVBT6zo9vKYri+t4ZV+1HJKisPmCQcVWP5g0JVVv0hbnnX0wsqMzkdkVSSx9hiqXDW9&#xA;deC6MOmtMI0IhuFWSFmcg8Sbe4SNqLtXize1emKt395oOo2caSrHe3MMtuvpSqYbiF55UhEvAhZo&#xA;WHOoNAffFVOy026GpR6VJd+rpWlRQzQw+mFdmLuIElkB4uIRFyFFU/ZJr3VZJirsVdirsVdirsVd&#xA;irsVei+X/wDjjWn/ABjH68VedYq7FXYq7FXYq7FXYqkOrWt1BqUEtldmzTVJPq94eIejiJmjmjDn&#xA;gklI+FSCD8NQaDFVmmyaBohurVI4rV4pFhjCgvcXCpDG4IUBpZSvqcdq4q4ar5jW0Drp5ZC7g3cv&#xA;94IyzGOT6ogEjDhxBWqtXtiqMj8x6MqIt1fRW8/EFkuQbRzQbsIp+Lhf864qqjzDoBIA1O0JJoB6&#xA;8fU/7LFUeCCAQag7gjFW8VdirsVdiqFvNNsr0r9bj9ZEr+6dmMRr/NHXg3+yBxVVtrW2tYhDbQpB&#xA;EvSONQij6FoMVXrHGrs6qA705sAKmmwqe9MVXYqhrzTtPvVVby2iuRGax+qivxJ2qvIGh+WKt2dh&#xA;Z2SMlrEsSyMXkp1ZjtyYncmgA37bYqiMVdirsVdirsVdirsVdir0Xy//AMca0/4xj9eKvOsVdirs&#xA;VdirsVdirsVUbq0tru3e3uokngk2eKQBlNDUbHwIriqyz03TrLn9TtYbb1DV/RjWPkffiBXFUTir&#xA;sVaZQwKsKqdiD0IxVCWukaXaTGW0tY7Z2BD+iojDVNfiVaBj7nFUZirsVdirsVdirsVdirsVdirs&#xA;VdirsVdirsVdirsVdirsVei+X/8AjjWn/GMfrxV51irsVdirsVdirsVdirsVdirsVdirsVdirsVd&#xA;irP/APnVf+XH/kjirv8AnVf+XH/kjirv+dV/5cf+SOKu/wCdV/5cf+SOKu/51X/lx/5I4q7/AJ1X&#xA;/lx/5I4q7/nVf+XH/kjirv8AnVf+XH/kjirv+dV/5cf+SOKu/wCdV/5cf+SOKu/51X/lx/5I4q7/&#xA;AJ1X/lx/5I4q7/nVf+XH/kjirv8AnVf+XH/kjirv+dV/5cf+SOKu/wCdV/5cf+SOKplb/V/RT6vw&#xA;9Cn7v06cKe1NsVS3/nVf+XH/AJI4q7/nVf8Alx/5I4q7/nVf+XH/AJI4q7/nVf8Alx/5I4q7/nVf&#xA;+XH/AJI4q7/nVf8Alx/5I4q7/nVf+XH/AJI4q7/nVf8Alx/5I4q7/nVf+XH/AJI4q7/nVf8Alx/5&#xA;I4q7/nVf+XH/AJI4q7/nVf8Alx/5I4q7/nVf+XH/AJI4q7/nVf8Alx/5I4q7/nVf+XH/AJI4q//Z</xapGImg:image>
    </rdf:li>
   </rdf:Alt>
  </xap:Thumbnails>
 </rdf:Description>

 <rdf:Description rdf:about=''
  xmlns:dc='http://purl.org/dc/elements/1.1/'>
  <dc:format>image/svg+xml</dc:format>
 </rdf:Description>

</rdf:RDF>
</x:xmpmeta>
                                                                                                                                                                                                                                                                                                                                                                                                                                                                                                                                                                                                                                                                                                                                                                                                                                                                                                                                                                                                                                                                                                                                                                                                                                                                                                                                                                                                                                                                                                                                                                                                                                                                                                                                                                                                                                                                                                                                                                                                                                                                                                                                <?xpacket end='w'?>
			</metadata>
		<g id="Layer_1">
			<rect style="fill:#BFBFBF;" width="320.315" height="201.259"/> 
			<rect x="162.256" style="fill:#FFFFFF;" width="7.802" height="201.259"/> 
			<g>
				<path style="fill:none;stroke:#000000;stroke-width:0.5;" d="M320.005,151.531c0,0-7.019-5.312-9.106-6.45
					c-2.086-1.138-11.002-8.347-12.71-11.192c-1.707-2.846-8.726-10.813-10.433-13.089c-1.708-2.276-10.434-10.623-11.382-11.761
					c-0.948-1.138-1.518-2.466-2.845-3.604c-1.328-1.138-5.691-3.984-5.881-5.691c-0.19-1.708-0.379-5.312-0.379-5.312l-1.518-0.569
					l-4.363,2.656l-0.759,3.035l0.949,8.157l4.173,5.501c0,0,2.466,4.742,3.225,6.07c0.759,1.328,4.173,4.173,4.173,4.173v3.415
					l-3.984,0.19c0,0-7.588-0.379-9.485-0.379s-8.347,0-8.347,0l-11.762-0.379l-9.674,0.759l-7.209,1.897l-5.312,0.759
					c0,0-6.45,1.897-7.778,3.225c-1.328,1.328-1.518,1.897-1.328,2.846c0.19,0.948,0.948,2.466,0.948,2.466l1.518,0.569
					l-4.553,0.948c0,0-5.881,0.19-5.881,4.553c0,4.363,2.276,4.743,2.276,4.743l1.897,0.949l-1.897,2.466l0.759,3.035l4.173,2.087
					h4.173h3.604"/>
				<path style="fill:none;stroke:#000000;stroke-width:0.5;" d="M214.669,157.988c-0.042,0.814-0.194,1.628-0.548,2.277
					c-1.138,2.087,1.739,4.924,1.739,4.924l14.417,0.379l13.089,2.276"/>
				<polyline style="fill:none;stroke:#000000;stroke-width:0.5;" points="296.641,181.701 286.966,179.425 276.912,179.804 
					269.905,177.972 266.32,177.141 "/>
				<polyline style="fill:none;stroke:#000000;stroke-width:0.5;" points="273.75,127.589 270.904,129.107 263.316,129.866 
					255.729,131.953 249.468,134.798 246.244,138.592 243.019,145.801 244.726,151.871 243.019,156.234 243.019,160.787 
					244.536,163.253 243.208,167.237 243.588,171.41 246.434,174.445 247.002,177.67 247.729,179.606 247.992,180.159 
					249.626,181.314 253.61,180.745 261.578,177.709 264.233,176.382 271.062,174.485 "/>
				<path style="fill:none;stroke:#000000;stroke-width:0.5;" d="M245.295,151.492l2.846,0.379c0,0,2.276-2.087,2.845-3.035
					c0.569-0.949,3.036-4.743,3.036-4.743l3.604-1.138l1.518-1.518l4.173,0.189"/>
				<polyline style="fill:none;stroke:#000000;stroke-width:0.5;" points="245.105,163.063 247.002,162.684 249.848,160.597 
					251.555,158.89 255.729,156.613 259.712,154.906 264.455,154.527 "/>
				<polyline style="fill:none;stroke:#000000;stroke-width:0.5;" points="211.307,139.011 213.963,138.631 218.516,138.062 
					223.258,136.734 229.708,135.596 236.158,135.786 244.315,135.786 "/>
				<polyline style="fill:none;stroke:#000000;stroke-width:0.5;" points="204.478,148.686 210.548,147.927 221.551,146.789 
					229.139,147.168 240.142,145.65 "/>
				<polyline style="fill:none;stroke:#000000;stroke-width:0.5;" points="217.188,156.653 227.621,155.135 233.502,155.705 
					240.71,154.946 "/>
				<polyline style="fill:none;stroke:#000000;stroke-width:0.5;" points="258.353,133.32 259.491,136.924 259.491,139.391 "/>
				<polyline style="fill:none;stroke:#000000;stroke-width:0.5;" points="250.385,137.493 252.472,139.201 253.041,142.046 "/>
				<polyline style="fill:none;stroke:#000000;stroke-width:0.5;" points="257.973,144.322 259.301,146.979 259.491,150.203 
					259.491,153.618 "/>
				<polyline style="fill:none;stroke:#000000;stroke-width:0.5;" points="265.182,143.564 265.751,147.737 265.561,151.721 "/>
				<path style="fill:none;stroke:#000000;stroke-width:0.5;" d="M269.924,131.043c-0.569,1.897-3.794,8.537-4.553,9.295"/>
				<line style="fill:none;stroke:#000000;stroke-width:0.5;" x1="250.955" y1="158.55" x2="250.575" y2="155.135"/>
				<line style="fill:none;stroke:#000000;stroke-width:0.5;" x1="259.87" y1="162.534" x2="260.06" y2="165.569"/>
				<polyline style="fill:none;stroke:#000000;stroke-width:0.5;" points="250.006,166.138 250.765,170.691 250.765,172.398 
					249.058,173.916 246.434,174.445 "/>
				<path style="fill:none;stroke:#000000;stroke-width:0.5;" d="M251.514,171.615c0.226-0.085,0.423-0.144,0.579-0.166
					c1.328-0.19,7.208-3.604,7.208-3.604l4.743-1.707"/>
				<line style="fill:none;stroke:#000000;stroke-width:0.5;" x1="253.42" y1="179.796" x2="252.852" y2="174.674"/>
				<line style="fill:none;stroke:#000000;stroke-width:0.5;" x1="261.388" y1="172.777" x2="261.957" y2="176.192"/>
				<line style="fill:none;stroke:#000000;stroke-width:0.5;" x1="265.064" y1="78.479" x2="265.064" y2="34.213"/>
				<path d="M265.064,31.669c0.444,1.197,1.202,2.683,2.004,3.603l-2.004-0.725l-2.004,0.725
					C263.862,34.352,264.62,32.866,265.064,31.669z"/>
				<line style="fill:none;stroke:#000000;stroke-width:0.5;" x1="265.082" y1="78.145" x2="220.816" y2="78.145"/>
				<path d="M218.272,78.145c1.197-0.444,2.683-1.202,3.603-2.004l-0.725,2.004l0.725,2.004
					C220.955,79.347,219.469,78.588,218.272,78.145z"/>
				<line style="fill:none;stroke:#000000;stroke-width:0.5;" x1="265.186" y1="78.127" x2="227.244" y2="87.401"/>
				<path d="M224.773,88.006c1.057-0.716,2.32-1.805,3.024-2.803l-0.229,2.12l1.181,1.775
					C227.664,88.537,226.041,88.153,224.773,88.006z"/>
				<g>
					<text transform="matrix(1 0 0 1 242.7021 15.7344)"><tspan x="0" y="0" style="font-family:'Helvetica'; font-size:10;">force on</tspan></text>
					<text transform="matrix(1 0 0 1 242.7021 27.7344)"><tspan x="0" y="0" style="font-family:'Helvetica'; font-size:10;">the particle</tspan></text>
				</g>
				<g>
					<text transform="matrix(1 0 0 1 184.4268 45.0439)"><tspan x="0" y="0" style="font-family:'Helvetica'; font-size:10;">particle&apos;s</tspan></text>
					<text transform="matrix(1 0 0 1 184.4268 57.0439)"><tspan x="0" y="0" style="font-family:'Helvetica'; font-size:10;">direction of</tspan></text>
					<text transform="matrix(1 0 0 1 184.4268 69.0439)"><tspan x="0" y="0" style="font-family:'Helvetica'; font-size:10;">motion</tspan></text>
				</g>
				<g>
					<text transform="matrix(1 0 0 1 173.4658 99.0054)"><tspan x="0" y="0" style="font-family:'Helvetica'; font-size:10;">direction of</tspan></text>
					<text transform="matrix(1 0 0 1 173.4658 111.0054)"><tspan x="0" y="0" style="font-family:'Helvetica'; font-size:10;">the magnetic</tspan></text>
					<text transform="matrix(1 0 0 1 173.4658 123.0054)"><tspan x="0" y="0" style="font-family:'Helvetica'; font-size:10;">field</tspan></text>
				</g>
				<g>
					<text transform="matrix(1 0 0 1 273.8003 164.7705)"><tspan x="0" y="0" style="font-family:'Helvetica'; font-size:10;">right hand</tspan></text>
				</g>
				
					<radialGradient id="XMLID_3_" cx="82.4937" cy="-136.1025" r="3.2998" fx="82.4937" fy="-136.1025" gradientTransform="matrix(1.0961 0 0 1.0961 113.3092 224.6389)" gradientUnits="userSpaceOnUse">
					<stop  offset="0" style="stop-color:#D4D4D4"/>
					<stop  offset="0.0104" style="stop-color:#D1D1D1"/>
					<stop  offset="0.3759" style="stop-color:#787878"/>
					<stop  offset="0.6736" style="stop-color:#383838"/>
					<stop  offset="0.8888" style="stop-color:#0F0F0F"/>
					<stop  offset="1" style="stop-color:#000000"/>
					<midPointStop  offset="0" style="stop-color:#D4D4D4"/>
					<midPointStop  offset="0.44" style="stop-color:#D4D4D4"/>
					<midPointStop  offset="1" style="stop-color:#000000"/>
				</radialGradient>
				<circle style="fill:url(#XMLID_3_);" cx="202.976" cy="76.513" r="3.1"/> 
				
					<radialGradient id="XMLID_4_" cx="82.4937" cy="-136.1025" r="3.2998" fx="82.4937" fy="-136.1025" gradientTransform="matrix(1.0961 0 0 1.0961 28.9245 224.9905)" gradientUnits="userSpaceOnUse">
					<stop  offset="0" style="stop-color:#E0E0E0"/>
					<stop  offset="0.1397" style="stop-color:#DDDDDD"/>
					<stop  offset="0.2707" style="stop-color:#D1D1D1"/>
					<stop  offset="0.3984" style="stop-color:#BEBEBE"/>
					<stop  offset="0.5232" style="stop-color:#A4A4A4"/>
					<stop  offset="0.61" style="stop-color:#8D8D8D"/>
					<stop  offset="1" style="stop-color:#363636"/>
					<midPointStop  offset="0" style="stop-color:#E0E0E0"/>
					<midPointStop  offset="0.72" style="stop-color:#E0E0E0"/>
					<midPointStop  offset="0.61" style="stop-color:#8D8D8D"/>
					<midPointStop  offset="0.5" style="stop-color:#8D8D8D"/>
					<midPointStop  offset="1" style="stop-color:#363636"/>
				</radialGradient>
				<circle style="fill:url(#XMLID_4_);" cx="118.591" cy="76.864" r="3.1"/> 
				<g>
					<line style="fill:none;stroke:#404040;stroke-width:0.5;" x1="208.597" y1="74.273" x2="211.688" y2="74.273"/>
					<line style="fill:none;stroke:#404040;stroke-width:0.5;" x1="208.035" y1="77.927" x2="211.126" y2="77.927"/>
					<line style="fill:none;stroke:#404040;stroke-width:0.5;" x1="209.393" y1="75.959" x2="214.827" y2="75.959"/>
				</g>
				<path style="fill:none;stroke:#000000;stroke-width:0.5;" d="M1.543,151.82c0,0,7.019-5.312,9.106-6.45
					s11.002-8.347,12.71-11.192c1.707-2.845,8.726-10.813,10.433-13.089c1.708-2.276,10.434-10.623,11.382-11.761
					c0.948-1.138,1.518-2.466,2.845-3.604c1.328-1.138,5.691-3.983,5.881-5.691c0.189-1.707,0.379-5.312,0.379-5.312l1.518-0.569
					l4.363,2.656l0.758,3.035L59.971,108l-4.173,5.501c0,0-2.466,4.743-3.225,6.07c-0.759,1.328-4.173,4.173-4.173,4.173v3.415
					l3.984,0.19c0,0,7.588-0.379,9.485-0.379s8.347,0,8.347,0l11.762-0.379l9.675,0.759l7.208,1.897l5.312,0.759
					c0,0,6.45,1.897,7.777,3.225c1.328,1.328,1.518,1.897,1.328,2.845c-0.19,0.949-0.949,2.466-0.949,2.466l-1.518,0.569
					l4.553,0.949c0,0,5.88,0.189,5.88,4.553c0,4.363-2.276,4.742-2.276,4.742l-1.897,0.949l1.897,2.466l-0.759,3.035l-4.173,2.086
					h-4.173h-3.604"/>
				<path style="fill:none;stroke:#000000;stroke-width:0.5;" d="M106.879,158.277c0.042,0.814,0.194,1.628,0.548,2.277
					c1.138,2.087-1.739,4.924-1.739,4.924l-14.417,0.379l-13.089,2.276"/>
				<polyline style="fill:none;stroke:#000000;stroke-width:0.5;" points="24.908,181.99 34.583,179.714 44.637,180.093 
					51.643,178.261 55.228,177.43 "/>
				<polyline style="fill:none;stroke:#000000;stroke-width:0.5;" points="47.798,127.879 50.644,129.396 58.232,130.155 
					65.82,132.242 72.08,135.087 75.305,138.881 78.53,146.09 76.822,152.16 78.53,156.523 78.53,161.076 77.012,163.542 
					78.34,167.526 77.96,171.699 75.115,174.734 74.546,177.959 73.819,179.896 73.556,180.448 71.922,181.603 67.938,181.034 
					59.971,177.999 57.315,176.671 50.486,174.774 "/>
				<path style="fill:none;stroke:#000000;stroke-width:0.5;" d="M76.253,151.781l-2.846,0.379c0,0-2.276-2.087-2.846-3.035
					c-0.569-0.949-3.035-4.742-3.035-4.742l-3.604-1.139l-1.518-1.518l-4.173,0.19"/>
				<polyline style="fill:none;stroke:#000000;stroke-width:0.5;" points="76.443,163.353 74.546,162.973 71.701,160.886 
					69.993,159.179 65.82,156.903 61.836,155.195 57.094,154.816 "/>
				<polyline style="fill:none;stroke:#000000;stroke-width:0.5;" points="110.241,139.3 107.585,138.921 103.033,138.352 
					98.29,137.024 91.84,135.886 85.391,136.075 77.233,136.075 "/>
				<polyline style="fill:none;stroke:#000000;stroke-width:0.5;" points="117.07,148.975 111,148.216 99.998,147.078 
					92.409,147.457 81.407,145.939 "/>
				<polyline style="fill:none;stroke:#000000;stroke-width:0.5;" points="104.36,156.942 93.927,155.425 88.046,155.994 
					80.838,155.235 "/>
				<polyline style="fill:none;stroke:#000000;stroke-width:0.5;" points="63.195,133.609 62.058,137.213 62.058,139.68 "/>
				<polyline style="fill:none;stroke:#000000;stroke-width:0.5;" points="71.163,137.783 69.076,139.49 68.507,142.335 "/>
				<polyline style="fill:none;stroke:#000000;stroke-width:0.5;" points="63.575,144.612 62.247,147.268 62.058,150.492 
					62.058,153.907 "/>
				<polyline style="fill:none;stroke:#000000;stroke-width:0.5;" points="56.366,143.853 55.797,148.026 55.987,152.01 "/>
				<path style="fill:none;stroke:#000000;stroke-width:0.5;" d="M51.624,131.333c0.569,1.897,3.794,8.536,4.553,9.295"/>
				<line style="fill:none;stroke:#000000;stroke-width:0.5;" x1="70.594" y1="158.839" x2="70.973" y2="155.425"/>
				<line style="fill:none;stroke:#000000;stroke-width:0.5;" x1="61.678" y1="162.823" x2="61.488" y2="165.858"/>
				<polyline style="fill:none;stroke:#000000;stroke-width:0.5;" points="71.542,166.427 70.784,170.98 70.784,172.688 
					72.491,174.205 75.115,174.734 "/>
				<path style="fill:none;stroke:#000000;stroke-width:0.5;" d="M70.034,171.904c-0.226-0.085-0.423-0.144-0.579-0.166
					c-1.328-0.19-7.208-3.604-7.208-3.604l-4.742-1.707"/>
				<line style="fill:none;stroke:#000000;stroke-width:0.5;" x1="68.128" y1="180.085" x2="68.697" y2="174.964"/>
				<line style="fill:none;stroke:#000000;stroke-width:0.5;" x1="60.161" y1="173.067" x2="59.591" y2="176.481"/>
				<line style="fill:none;stroke:#000000;stroke-width:0.5;" x1="56.484" y1="78.768" x2="56.484" y2="34.502"/>
				<path d="M56.484,31.958c-0.444,1.197-1.202,2.683-2.004,3.604l2.004-0.725l2.004,0.725
					C57.687,34.641,56.928,33.155,56.484,31.958z"/>
				<line style="fill:none;stroke:#000000;stroke-width:0.5;" x1="56.467" y1="78.434" x2="100.732" y2="78.434"/>
				<path d="M103.276,78.434c-1.197-0.444-2.683-1.202-3.603-2.004l0.725,2.004l-0.725,2.004
					C100.594,79.636,102.079,78.878,103.276,78.434z"/>
				<line style="fill:none;stroke:#000000;stroke-width:0.5;" x1="56.362" y1="78.416" x2="94.304" y2="87.691"/>
				<path d="M96.775,88.295c-1.057-0.716-2.32-1.805-3.024-2.803l0.229,2.119l-1.181,1.775
					C93.884,88.826,95.507,88.442,96.775,88.295z"/>
				<g>
					<text transform="matrix(1 0 0 1 44.2427 16.0234)"><tspan x="0" y="0" style="font-family:'Helvetica'; font-size:10;">force on</tspan></text>
					<text transform="matrix(1 0 0 1 44.2427 28.0234)"><tspan x="0" y="0" style="font-family:'Helvetica'; font-size:10;">the particle</tspan></text>
				</g>
				<g>
					<text transform="matrix(1 0 0 1 101.478 46.1768)"><tspan x="0" y="0" style="font-family:'Helvetica'; font-size:10;">particle&apos;s</tspan></text>
					<text transform="matrix(1 0 0 1 101.478 58.1768)"><tspan x="0" y="0" style="font-family:'Helvetica'; font-size:10;">direction of</tspan></text>
					<text transform="matrix(1 0 0 1 101.478 70.1768)"><tspan x="0" y="0" style="font-family:'Helvetica'; font-size:10;">motion</tspan></text>
				</g>
				<g>
					<text transform="matrix(1 0 0 1 103.1646 99.2944)"><tspan x="0" y="0" style="font-family:'Helvetica'; font-size:10;">direction of</tspan></text>
					<text transform="matrix(1 0 0 1 103.1646 111.2944)"><tspan x="0" y="0" style="font-family:'Helvetica'; font-size:10;">the magnetic</tspan></text>
					<text transform="matrix(1 0 0 1 103.1646 123.2944)"><tspan x="0" y="0" style="font-family:'Helvetica'; font-size:10;">field</tspan></text>
				</g>
				<g>
					<text transform="matrix(1 0 0 1 7.0459 164.2168)"><tspan x="0" y="0" style="font-family:'Helvetica'; font-size:10;">left hand</tspan></text>
				</g>
				<g>
					<line style="fill:none;stroke:#404040;stroke-width:0.5;" x1="112.951" y1="74.562" x2="109.86" y2="74.562"/>
					<line style="fill:none;stroke:#404040;stroke-width:0.5;" x1="113.514" y1="78.216" x2="110.422" y2="78.216"/>
					<line style="fill:none;stroke:#404040;stroke-width:0.5;" x1="112.155" y1="76.249" x2="106.721" y2="76.249"/>
				</g>
			</g>
		</g>
	</svg>
