<?xml version="1.0" encoding="iso-8859-1"?>
<!-- Generator: Adobe Illustrator 11 Build 196, SVG Export Plug-In . SVG Version: 6.0.0 Build 78)  -->
<!DOCTYPE svg PUBLIC "-//W3C//DTD SVG 1.0//EN"    "http://www.w3.org/TR/2001/REC-SVG-20010904/DTD/svg10.dtd" [
	<!ENTITY ns_flows "http://ns.adobe.com/Flows/1.0/">
	<!ENTITY ns_svg "http://www.w3.org/2000/svg">
	<!ENTITY ns_xlink "http://www.w3.org/1999/xlink">
]>
<svg  
	 width="132.327" height="132.411" viewBox="0 0 132.327 132.411"
	 style="overflow:visible;enable-background:new 0 0 132.327 132.411" xml:space="preserve">
	<g id="Layer_1">
		<circle style="fill:none;stroke:#000000;stroke-width:0.5;" cx="66.18" cy="66.156" r="1.178"/> 
		<g>
			<line style="fill:none;stroke:#000000;stroke-width:0.5;" x1="93.119" y1="66.155" x2="78.869" y2="66.155"/>
			<path d="M76.455,66.155c1.136-0.421,2.545-1.141,3.418-1.902l-0.688,1.902l0.688,1.902C79,67.296,77.59,66.577,76.455,66.155z"/>
		</g>
		<g>
			<line style="fill:none;stroke:#000000;stroke-width:0.5;" x1="89.508" y1="52.682" x2="77.167" y2="59.807"/>
			<path d="M75.077,61.011c0.773-0.933,1.634-2.26,2.01-3.356l0.355,1.991l1.547,1.303C77.852,60.726,76.271,60.808,75.077,61.011z"
				/>
		</g>
		<g>
			<line style="fill:none;stroke:#000000;stroke-width:0.5;" x1="79.645" y1="42.818" x2="72.52" y2="55.159"/>
			<path d="M71.316,57.252c0.203-1.194,0.285-2.774,0.062-3.912l1.303,1.547l1.991,0.355C73.576,55.618,72.249,56.479,71.316,57.252
				z"/>
		</g>
		<g>
			<line style="fill:none;stroke:#000000;stroke-width:0.5;" x1="66.172" y1="39.208" x2="66.171" y2="53.458"/>
			<path d="M66.172,55.87c-0.421-1.136-1.141-2.545-1.902-3.418l1.902,0.688l1.902-0.688C67.312,53.325,66.593,54.734,66.172,55.87z
				"/>
		</g>
		<g>
			<line style="fill:none;stroke:#000000;stroke-width:0.5;" x1="52.698" y1="42.817" x2="59.822" y2="55.159"/>
			<path d="M61.03,57.252c-0.933-0.773-2.26-1.634-3.356-2.01l1.991-0.355l1.303-1.547C60.746,54.478,60.827,56.058,61.03,57.252z"
				/>
		</g>
		<g>
			<line style="fill:none;stroke:#000000;stroke-width:0.5;" x1="42.834" y1="52.68" x2="55.175" y2="59.806"/>
			<path d="M57.264,61.014c-1.194-0.203-2.775-0.285-3.912-0.062l1.547-1.303l0.355-1.991C55.63,58.753,56.491,60.081,57.264,61.014
				z"/>
		</g>
		<circle style="fill:none;stroke:#000000;stroke-width:0.5;" cx="66.179" cy="66.153" r="1.179"/> 
		<circle style="fill:none;stroke:#000000;stroke-width:0.5;" cx="66.178" cy="66.151" r="1.178"/> 
		<circle style="fill:none;stroke:#000000;stroke-width:0.5;" cx="66.177" cy="66.149" r="1.179"/> 
		<g>
			<line style="fill:none;stroke:#000000;stroke-width:0.5;" x1="114.66" y1="66.155" x2="102.994" y2="66.155"/>
			<path d="M100.579,66.155c1.136-0.421,2.545-1.141,3.419-1.902l-0.688,1.902l0.688,1.902
				C103.125,67.296,101.715,66.577,100.579,66.155z"/>
		</g>
		<g>
			<line style="fill:none;stroke:#000000;stroke-width:0.5;" x1="111.736" y1="49.571" x2="100.773" y2="53.562"/>
			<path d="M98.506,54.387c0.923-0.785,2.002-1.942,2.562-2.957l0.004,2.023l1.297,1.552
				C101.289,54.588,99.718,54.394,98.506,54.387z"/>
		</g>
		<g>
			<line style="fill:none;stroke:#000000;stroke-width:0.5;" x1="103.316" y1="34.988" x2="94.379" y2="42.486"/>
			<path d="M92.531,44.035c0.6-1.053,1.217-2.51,1.396-3.655l0.696,1.899l1.75,1.015C95.214,43.272,93.672,43.627,92.531,44.035z"/>
		</g>
		<g>
			<line style="fill:none;stroke:#000000;stroke-width:0.5;" x1="90.417" y1="24.163" x2="84.583" y2="34.266"/>
			<path d="M83.381,36.356c0.203-1.195,0.285-2.775,0.062-3.912l1.303,1.547l1.991,0.355C85.641,34.722,84.313,35.583,83.381,36.356
				z"/>
		</g>
		<g>
			<line style="fill:none;stroke:#000000;stroke-width:0.5;" x1="74.593" y1="18.403" x2="72.566" y2="29.892"/>
			<path d="M72.151,32.269c-0.218-1.192-0.682-2.705-1.28-3.697l1.754,1.008l1.993-0.347C73.717,29.96,72.763,31.223,72.151,32.269z
				"/>
		</g>
		<g>
			<line style="fill:none;stroke:#000000;stroke-width:0.5;" x1="57.753" y1="18.402" x2="59.778" y2="29.891"/>
			<path d="M60.198,32.268c-0.612-1.045-1.565-2.309-2.467-3.037l1.993,0.347l1.753-1.008
				C60.879,29.563,60.416,31.076,60.198,32.268z"/>
		</g>
		<g>
			<line style="fill:none;stroke:#000000;stroke-width:0.5;" x1="41.928" y1="24.16" x2="47.761" y2="34.264"/>
			<path d="M48.97,36.355c-0.933-0.773-2.26-1.634-3.356-2.01l1.991-0.355l1.303-1.547C48.686,33.581,48.768,35.161,48.97,36.355z"
				/>
		</g>
		<g>
			<line style="fill:none;stroke:#000000;stroke-width:0.5;" x1="29.027" y1="34.984" x2="37.964" y2="42.484"/>
			<path d="M39.814,44.035c-1.141-0.407-2.683-0.762-3.842-0.741l1.75-1.015l0.696-1.899C38.598,41.525,39.215,42.982,39.814,44.035
				z"/>
		</g>
		<g>
			<line style="fill:none;stroke:#000000;stroke-width:0.5;" x1="20.606" y1="49.567" x2="31.569" y2="53.558"/>
			<path d="M33.835,54.386c-1.212,0.008-2.782,0.202-3.863,0.618l1.297-1.552l0.004-2.022
				C31.833,52.443,32.912,53.602,33.835,54.386z"/>
		</g>
		<g>
			<line style="fill:none;stroke:#000000;stroke-width:0.5;" x1="132.327" y1="66.155" x2="125.994" y2="66.155"/>
			<path d="M123.579,66.155c1.136-0.421,2.545-1.141,3.419-1.902l-0.688,1.902l0.688,1.902
				C126.125,67.296,124.715,66.577,123.579,66.155z"/>
		</g>
		<g>
			<line style="fill:none;stroke:#000000;stroke-width:0.5;" x1="130.073" y1="49.034" x2="123.955" y2="50.673"/>
			<path d="M121.626,51.301c0.988-0.701,2.163-1.761,2.81-2.722l-0.172,2.016l1.157,1.659
				C124.38,51.744,122.832,51.414,121.626,51.301z"/>
		</g>
		<g>
			<line style="fill:none;stroke:#000000;stroke-width:0.5;" x1="123.464" y1="33.079" x2="117.979" y2="36.246"/>
			<path d="M115.889,37.45c0.773-0.933,1.634-2.26,2.01-3.356l0.355,1.991l1.547,1.303C118.664,37.165,117.083,37.247,115.889,37.45
				z"/>
		</g>
		<g>
			<line style="fill:none;stroke:#000000;stroke-width:0.5;" x1="112.952" y1="19.378" x2="108.473" y2="23.856"/>
			<path d="M106.765,25.566c0.505-1.101,0.993-2.607,1.073-3.762l0.858,1.832l1.831,0.858
				C109.371,24.573,107.866,25.061,106.765,25.566z"/>
		</g>
		<g>
			<line style="fill:none;stroke:#000000;stroke-width:0.5;" x1="99.251" y1="8.865" x2="96.085" y2="14.35"/>
			<path d="M94.875,16.442c0.203-1.194,0.285-2.775,0.062-3.912l1.303,1.547l1.991,0.355C97.136,14.808,95.809,15.669,94.875,16.442
				z"/>
		</g>
		<g>
			<line style="fill:none;stroke:#000000;stroke-width:0.5;" x1="83.297" y1="2.255" x2="81.658" y2="8.373"/>
			<path d="M81.028,10.707c-0.113-1.206-0.443-2.754-0.952-3.795l1.659,1.157l2.015-0.172C82.789,8.543,81.729,9.719,81.028,10.707z
				"/>
		</g>
		<g>
			<line style="fill:none;stroke:#000000;stroke-width:0.5;" x1="66.176" y1="0" x2="66.176" y2="6.333"/>
			<path d="M66.177,8.745c-0.421-1.136-1.141-2.545-1.902-3.419l1.902,0.688l1.902-0.688C67.318,6.199,66.599,7.609,66.177,8.745z"
				/>
		</g>
		<g>
			<line style="fill:none;stroke:#000000;stroke-width:0.5;" x1="49.055" y1="2.253" x2="50.693" y2="8.37"/>
			<path d="M51.323,10.7c-0.701-0.988-1.76-2.164-2.722-2.81l2.015,0.172l1.659-1.157C51.766,7.947,51.436,9.494,51.323,10.7z"/>
		</g>
		<g>
			<line style="fill:none;stroke:#000000;stroke-width:0.5;" x1="33.1" y1="8.86" x2="36.266" y2="14.345"/>
			<path d="M37.477,16.435c-0.933-0.773-2.26-1.634-3.356-2.01l1.992-0.355l1.303-1.546C37.193,13.66,37.274,15.241,37.477,16.435z"
				/>
		</g>
		<g>
			<line style="fill:none;stroke:#000000;stroke-width:0.5;" x1="19.398" y1="19.371" x2="23.876" y2="23.85"/>
			<path d="M25.58,25.559c-1.101-0.505-2.606-0.993-3.762-1.073l1.832-0.858l0.859-1.831C24.587,22.953,25.074,24.458,25.58,25.559z
				"/>
		</g>
		<g>
			<line style="fill:none;stroke:#000000;stroke-width:0.5;" x1="8.884" y1="33.07" x2="14.368" y2="36.237"/>
			<path d="M16.461,37.445c-1.194-0.203-2.775-0.285-3.912-0.062l1.547-1.303l0.355-1.991
				C14.827,35.184,15.688,36.512,16.461,37.445z"/>
		</g>
		<g>
			<line style="fill:none;stroke:#000000;stroke-width:0.5;" x1="2.273" y1="49.023" x2="8.39" y2="50.663"/>
			<path d="M10.724,51.286c-1.206,0.113-2.754,0.442-3.795,0.952l1.157-1.659l-0.172-2.015C8.561,49.524,9.736,50.584,10.724,51.286
				z"/>
		</g>
		<circle style="fill:none;stroke:#000000;stroke-width:0.5;" cx="66.147" cy="66.256" r="1.178"/> 
		<g>
			<line style="fill:none;stroke:#000000;stroke-width:0.5;" x1="39.208" y1="66.256" x2="53.458" y2="66.256"/>
			<path d="M55.873,66.256c-1.136,0.421-2.545,1.141-3.419,1.902l0.688-1.902l-0.688-1.902
				C53.327,65.115,54.737,65.835,55.873,66.256z"/>
		</g>
		<g>
			<line style="fill:none;stroke:#000000;stroke-width:0.5;" x1="42.819" y1="79.729" x2="55.16" y2="72.605"/>
			<path d="M57.25,71.401c-0.773,0.933-1.634,2.26-2.01,3.356l-0.355-1.991l-1.546-1.303C54.475,71.686,56.056,71.604,57.25,71.401z
				"/>
		</g>
		<g>
			<line style="fill:none;stroke:#000000;stroke-width:0.5;" x1="52.682" y1="89.593" x2="59.807" y2="77.252"/>
			<path d="M61.011,75.16c-0.203,1.194-0.285,2.774-0.062,3.912l-1.303-1.547l-1.991-0.355C58.75,76.793,60.078,75.933,61.011,75.16
				z"/>
		</g>
		<g>
			<line style="fill:none;stroke:#000000;stroke-width:0.5;" x1="66.155" y1="93.204" x2="66.156" y2="78.954"/>
			<path d="M66.155,76.541c0.421,1.136,1.141,2.545,1.902,3.419l-1.902-0.688l-1.902,0.688
				C65.014,79.086,65.734,77.677,66.155,76.541z"/>
		</g>
		<g>
			<line style="fill:none;stroke:#000000;stroke-width:0.5;" x1="79.628" y1="89.594" x2="72.504" y2="77.253"/>
			<path d="M71.296,75.159c0.933,0.773,2.261,1.634,3.356,2.01l-1.991,0.355l-1.303,1.547C71.581,77.934,71.5,76.354,71.296,75.159z
				"/>
		</g>
		<g>
			<line style="fill:none;stroke:#000000;stroke-width:0.5;" x1="89.492" y1="79.731" x2="77.152" y2="72.605"/>
			<path d="M75.063,71.398c1.194,0.203,2.774,0.285,3.912,0.062l-1.547,1.303l-0.355,1.991
				C76.697,73.659,75.835,72.331,75.063,71.398z"/>
		</g>
		<circle style="fill:none;stroke:#000000;stroke-width:0.5;" cx="66.148" cy="66.259" r="1.179"/> 
		<circle style="fill:none;stroke:#000000;stroke-width:0.5;" cx="66.149" cy="66.26" r="1.179"/> 
		<g>
			<line style="fill:none;stroke:#000000;stroke-width:0.5;" x1="17.667" y1="66.256" x2="29.333" y2="66.256"/>
			<path d="M31.748,66.256c-1.136,0.421-2.545,1.141-3.419,1.902l0.688-1.902l-0.688-1.902
				C29.202,65.115,30.612,65.835,31.748,66.256z"/>
		</g>
		<g>
			<line style="fill:none;stroke:#000000;stroke-width:0.5;" x1="20.591" y1="82.84" x2="31.554" y2="78.85"/>
			<path d="M33.82,78.025c-0.923,0.785-2.001,1.942-2.562,2.957l-0.004-2.022l-1.297-1.552
				C31.039,77.824,32.609,78.018,33.82,78.025z"/>
		</g>
		<g>
			<line style="fill:none;stroke:#000000;stroke-width:0.5;" x1="29.01" y1="97.424" x2="37.948" y2="89.925"/>
			<path d="M39.795,88.376c-0.599,1.053-1.217,2.51-1.396,3.655l-0.696-1.899l-1.749-1.015
				C37.112,89.139,38.654,88.784,39.795,88.376z"/>
		</g>
		<g>
			<line style="fill:none;stroke:#000000;stroke-width:0.5;" x1="41.91" y1="108.249" x2="47.744" y2="98.146"/>
			<path d="M48.946,96.055c-0.203,1.194-0.285,2.775-0.062,3.912l-1.303-1.547l-1.991-0.355
				C46.686,97.689,48.013,96.828,48.946,96.055z"/>
		</g>
		<g>
			<line style="fill:none;stroke:#000000;stroke-width:0.5;" x1="57.734" y1="114.009" x2="59.76" y2="102.52"/>
			<path d="M60.176,100.143c0.218,1.192,0.681,2.705,1.279,3.697l-1.754-1.008l-1.992,0.348
				C58.61,102.452,59.563,101.188,60.176,100.143z"/>
		</g>
		<g>
			<line style="fill:none;stroke:#000000;stroke-width:0.5;" x1="74.574" y1="114.01" x2="72.548" y2="102.52"/>
			<path d="M72.129,100.144c0.612,1.045,1.565,2.309,2.467,3.037l-1.993-0.347l-1.753,1.007
				C71.448,102.848,71.911,101.335,72.129,100.144z"/>
		</g>
		<g>
			<line style="fill:none;stroke:#000000;stroke-width:0.5;" x1="90.398" y1="108.251" x2="84.566" y2="98.147"/>
			<path d="M83.356,96.056c0.933,0.773,2.261,1.634,3.356,2.01l-1.991,0.355l-1.303,1.546C83.641,98.831,83.56,97.25,83.356,96.056z
				"/>
		</g>
		<g>
			<line style="fill:none;stroke:#000000;stroke-width:0.5;" x1="103.299" y1="97.428" x2="94.363" y2="89.928"/>
			<path d="M92.513,88.377c1.141,0.407,2.683,0.762,3.842,0.741l-1.75,1.015l-0.695,1.899C93.729,90.887,93.112,89.43,92.513,88.377
				z"/>
		</g>
		<g>
			<line style="fill:none;stroke:#000000;stroke-width:0.5;" x1="111.721" y1="82.845" x2="100.758" y2="78.854"/>
			<path d="M98.492,78.025c1.211-0.007,2.782-0.201,3.863-0.618l-1.297,1.552l-0.004,2.022
				C100.494,79.968,99.415,78.81,98.492,78.025z"/>
		</g>
		<g>
			<line style="fill:none;stroke:#000000;stroke-width:0.5;" x1="0" y1="66.256" x2="6.333" y2="66.256"/>
			<path d="M8.748,66.256c-1.136,0.421-2.545,1.141-3.419,1.902l0.688-1.902l-0.688-1.902C6.202,65.115,7.612,65.835,8.748,66.256z"
				/>
		</g>
		<g>
			<line style="fill:none;stroke:#000000;stroke-width:0.5;" x1="2.254" y1="83.378" x2="8.372" y2="81.739"/>
			<path d="M10.701,81.11c-0.988,0.701-2.164,1.761-2.81,2.722l0.172-2.015l-1.157-1.659C7.947,80.667,9.495,80.998,10.701,81.11z"
				/>
		</g>
		<g>
			<line style="fill:none;stroke:#000000;stroke-width:0.5;" x1="8.863" y1="99.333" x2="14.347" y2="96.166"/>
			<path d="M16.438,94.962c-0.773,0.933-1.634,2.26-2.01,3.356l-0.355-1.991l-1.547-1.303
				C13.663,95.247,15.243,95.165,16.438,94.962z"/>
		</g>
		<g>
			<line style="fill:none;stroke:#000000;stroke-width:0.5;" x1="19.375" y1="113.033" x2="23.854" y2="108.555"/>
			<path d="M25.562,106.846c-0.505,1.101-0.993,2.606-1.073,3.762l-0.858-1.832l-1.831-0.858
				C22.956,107.839,24.461,107.351,25.562,106.846z"/>
		</g>
		<g>
			<line style="fill:none;stroke:#000000;stroke-width:0.5;" x1="33.075" y1="123.547" x2="36.242" y2="118.062"/>
			<path d="M37.451,115.97c-0.203,1.194-0.285,2.774-0.062,3.912l-1.303-1.547l-1.991-0.355
				C35.19,117.604,36.519,116.743,37.451,115.97z"/>
		</g>
		<g>
			<line style="fill:none;stroke:#000000;stroke-width:0.5;" x1="49.029" y1="130.156" x2="50.669" y2="124.039"/>
			<path d="M51.298,121.705c0.113,1.206,0.443,2.754,0.952,3.794l-1.659-1.157l-2.015,0.172
				C49.538,123.868,50.597,122.693,51.298,121.705z"/>
		</g>
		<g>
			<line style="fill:none;stroke:#000000;stroke-width:0.5;" x1="66.15" y1="132.411" x2="66.151" y2="126.078"/>
			<path d="M66.15,123.667c0.421,1.136,1.141,2.545,1.902,3.419l-1.902-0.688l-1.902,0.688
				C65.009,126.212,65.729,124.803,66.15,123.667z"/>
		</g>
		<g>
			<line style="fill:none;stroke:#000000;stroke-width:0.5;" x1="83.272" y1="130.159" x2="81.633" y2="124.041"/>
			<path d="M81.004,121.711c0.701,0.988,1.761,2.164,2.722,2.811l-2.016-0.172l-1.659,1.157
				C80.561,124.465,80.891,122.917,81.004,121.711z"/>
		</g>
		<g>
			<line style="fill:none;stroke:#000000;stroke-width:0.5;" x1="99.227" y1="123.552" x2="96.061" y2="118.067"/>
			<path d="M94.85,115.977c0.933,0.773,2.26,1.634,3.356,2.01l-1.991,0.355l-1.304,1.546
				C95.134,118.751,95.052,117.171,94.85,115.977z"/>
		</g>
		<g>
			<line style="fill:none;stroke:#000000;stroke-width:0.5;" x1="112.929" y1="113.041" x2="108.451" y2="108.562"/>
			<path d="M106.747,106.853c1.101,0.505,2.606,0.993,3.762,1.073l-1.832,0.858l-0.858,1.831
				C107.74,109.459,107.252,107.954,106.747,106.853z"/>
		</g>
		<g>
			<line style="fill:none;stroke:#000000;stroke-width:0.5;" x1="123.443" y1="99.342" x2="117.958" y2="96.174"/>
			<path d="M115.866,94.967c1.194,0.203,2.774,0.285,3.912,0.062l-1.547,1.303l-0.355,1.991
				C117.5,97.228,116.639,95.899,115.866,94.967z"/>
		</g>
		<g>
			<line style="fill:none;stroke:#000000;stroke-width:0.5;" x1="130.054" y1="83.389" x2="123.937" y2="81.748"/>
			<path d="M121.603,81.126c1.206-0.113,2.754-0.442,3.795-0.952l-1.157,1.659l0.172,2.015
				C123.766,82.887,122.591,81.827,121.603,81.126z"/>
		</g>
	</g>
</svg>
