<?xml version="1.0" encoding="iso-8859-1"?>
<!-- Generator: Adobe Illustrator 11 Build 196, SVG Export Plug-In . SVG Version: 6.0.0 Build 78)  -->
<!DOCTYPE svg PUBLIC "-//W3C//DTD SVG 1.0//EN"    "http://www.w3.org/TR/2001/REC-SVG-20010904/DTD/svg10.dtd" [
	<!ENTITY ns_flows "http://ns.adobe.com/Flows/1.0/">
	<!ENTITY ns_svg "http://www.w3.org/2000/svg">
	<!ENTITY ns_xlink "http://www.w3.org/1999/xlink">
]>
<svg
	 width="147.401" height="173.832" viewBox="0 0 147.401 173.832"
	 style="overflow:visible;enable-background:new 0 0 147.401 173.832" xml:space="preserve">
	<metadata>
<?xpacket begin='﻿' id='W5M0MpCehiHzreSzNTczkc9d'?><x:xmpmeta xmlns:x='adobe:ns:meta/' x:xmptk='XMP toolkit 3.0-29, framework 1.6'>
<rdf:RDF xmlns:rdf='http://www.w3.org/1999/02/22-rdf-syntax-ns#' xmlns:iX='http://ns.adobe.com/iX/1.0/'>

 <rdf:Description rdf:about=''
  xmlns:pdf='http://ns.adobe.com/pdf/1.3/'>
 </rdf:Description>

 <rdf:Description rdf:about=''
  xmlns:tiff='http://ns.adobe.com/tiff/1.0/'>
 </rdf:Description>

 <rdf:Description rdf:about=''
  xmlns:xap='http://ns.adobe.com/xap/1.0/'
  xmlns:xapGImg='http://ns.adobe.com/xap/1.0/g/img/'>
  <xap:CreateDate>2006-10-15T19:42:34Z</xap:CreateDate>
  <xap:ModifyDate>2006-10-15T19:42:34Z</xap:ModifyDate>
  <xap:CreatorTool>Illustrator</xap:CreatorTool>
  <xap:Thumbnails>
   <rdf:Alt>
    <rdf:li rdf:parseType='Resource'>
     <xapGImg:format>JPEG</xapGImg:format>
     <xapGImg:width>220</xapGImg:width>
     <xapGImg:height>256</xapGImg:height>
     <xapGImg:image>/9j/4AAQSkZJRgABAgEASABIAAD/7QAsUGhvdG9zaG9wIDMuMAA4QklNA+0AAAAAABAASAAAAAEA&#xA;AQBIAAAAAQAB/+4ADkFkb2JlAGTAAAAAAf/bAIQABgQEBAUEBgUFBgkGBQYJCwgGBggLDAoKCwoK&#xA;DBAMDAwMDAwQDA4PEA8ODBMTFBQTExwbGxscHx8fHx8fHx8fHwEHBwcNDA0YEBAYGhURFRofHx8f&#xA;Hx8fHx8fHx8fHx8fHx8fHx8fHx8fHx8fHx8fHx8fHx8fHx8fHx8fHx8fHx8f/8AAEQgBAADcAwER&#xA;AAIRAQMRAf/EAaIAAAAHAQEBAQEAAAAAAAAAAAQFAwIGAQAHCAkKCwEAAgIDAQEBAQEAAAAAAAAA&#xA;AQACAwQFBgcICQoLEAACAQMDAgQCBgcDBAIGAnMBAgMRBAAFIRIxQVEGE2EicYEUMpGhBxWxQiPB&#xA;UtHhMxZi8CRygvElQzRTkqKyY3PCNUQnk6OzNhdUZHTD0uIIJoMJChgZhJRFRqS0VtNVKBry4/PE&#xA;1OT0ZXWFlaW1xdXl9WZ2hpamtsbW5vY3R1dnd4eXp7fH1+f3OEhYaHiImKi4yNjo+Ck5SVlpeYmZ&#xA;qbnJ2en5KjpKWmp6ipqqusra6voRAAICAQIDBQUEBQYECAMDbQEAAhEDBCESMUEFURNhIgZxgZEy&#xA;obHwFMHR4SNCFVJicvEzJDRDghaSUyWiY7LCB3PSNeJEgxdUkwgJChgZJjZFGidkdFU38qOzwygp&#xA;0+PzhJSktMTU5PRldYWVpbXF1eX1RlZmdoaWprbG1ub2R1dnd4eXp7fH1+f3OEhYaHiImKi4yNjo&#xA;+DlJWWl5iZmpucnZ6fkqOkpaanqKmqq6ytrq+v/aAAwDAQACEQMRAD8A9U4q7FXYq7FXYq7FXYq7&#xA;FXYq7FXYq7FXYq8c/LfTLK3/ADS1S/hQrd6j/iH67IXc+p9W1iKOH4SSo4IxAoMVex4q7FXYq7FX&#xA;Yq7FXYq7FXYq7FXYq7FXYq7FXYq7FXYq7FXYq7FXYq7FXYq7FXYq7FXYq8m8gf8Akw5v/Bn/AO63&#xA;Dir1nFXYq7FXYq7FXYq7FXYq7FXYq7FXYq7FXYq7FXYq7FXYq7FXYq7FXYq7FXYq7FXYq7FXk3kD&#xA;/wAmHN/4M/8A3W4cVes4q7FXYq7FXYq7FXYq7FXYq7FXYq7FXYq7FXYq7FXYq7FXYq7FXYq7FXYq&#xA;7FXYq7FXYq8m8gf+TDm/8Gf/ALrcOKvWcVdirsVdirsVdirsVdirsVdirsVdirsVdirsVdirsVdi&#xA;rsVdirsVdirsVdirsVdirsVeTeQP/Jhzf+DP/wB1uHFXrOKuxV2KuxV2KuxV2KuxV2KuxV2KuxV2&#xA;KuxV2KuxV2KuxV2KuxV2KuxV2KuxV2KuxV2KvJvIH/kw5v8AwZ/+63Dir1nFXYq7FXYq7FXYq7FX&#xA;Yq7FXYq7FXYq7FXYq7FXYq7FXYq7FXYq7FXYq7FXYq7FXYq7FXk3kD/yYc3/AIM//dbhxV6zirsV&#xA;dirsVdirsVdirsVdirsVdirsVdirsVdirsVdirsVdirsVdirsVdirsVdirsVdirybyB/5MOb/wAG&#xA;f/utw4q9ZxV2KuxV2KuxV2KuxV2KuxV2KuxV2KuxV2KuxV2KuxV2KuxV2KuxV2KuxV2KuxV2KuxV&#xA;5N5A/wDJhzf+DP8A91uHFXrOKuxV2KuxV2KuxV2KuxV2KuxV2KuxV2KuxV2KuxV2KuxV2KuxV2Ku&#xA;xV2KuxV2KuxV2KvFfLXmTy9ofneS91nU7XTbSRvM6Rz3UyQo7/pqJgiFyOTFVJCjfFWfwfmv+WM5&#xA;onmvSQa0CvewRk18A7qTirJra5t7qBLi2lSeCQco5Y2Dow8VZag4qq4q7FXYq7FXYq7FXYq7FXYq&#xA;7FXYq7FXYq7FXYq7FXYq7FUh81+ddC8sQ251BpZr29Zo9O0u0ja4vLp1FWWCBPiag6nZR3IxVJ11&#xA;v81tSQyaf5bsNGiJ/dtrN80lwVPc29lFMi/L18VakT85oohL9c8tyEAmSFre+hUAD/f3ry/f6eKs&#xA;ev8A8+LLy3fx2Xm+LTk5ukRudE1ODUWV5DT95ZutteADxSJ8Ven6dqNhqdhBqGnzpdWV0glt7iIh&#xA;kdGFQQRiqJxV5IqXPnvzZ5lstc+szaLoF39Qi8sQTi1WReCuLq9COk06TVrEppHxHRjXFUt8gEaX&#xA;5sji0/S/3dunmSKDT4OCCJE1iEKiDZQFA4jtiqa6j+aHnCX1bS4/K/UtStD9l42R4ZFI7pdRW7jr&#xA;QhkxVhPmLWo9Cil8x6B5L1ryBqVvSQ3apax6Vcuo+G2vbOO4WN1mrwDonqBiCDir6HsJ5rixt554&#xA;TbzSxI8sDbmNmUFkP+qdsVV8VYZdfmt5bN/Jp2hwXvma/hf07iLRoPrEcTDqJbp2itEI7qZa+2Kr&#xA;W82/mIzkw+Q5li/Z+sanYpIdu6xNOo/4PFXHz75ksk56z5I1aCOoDTWD2mpKor9r04JvrJH+rCTi&#xA;qf8AlzzX5e8yWb3eiXyXkUTmKdQGSWKRTQpNDIEkifb7LqDiqbYq7FXYq7FXYq7FXYq7FXYq7FXY&#xA;q7FXnHnbT/M2jefLPz3pOmnXLKPTH0nUdOhAN3CnrG4W5tkNPVqfgdFPKlKBuyq+1/M3yvqLPFP5&#xA;usNJuEbhLYXQNjcq38pivvQmH/A4qxfzJ+Xv5F63fJqPmrzYmoQoW/0a51iKO3JduZqVdJfl+82H&#xA;TFUbot/+Vmio1t+V3lSHXtWFY47jTbYfV1cLUfWNWmX0wvykdv8AJxVnH5beUp/Kfk6x0W4eJ7iI&#xA;ySzi2UpbpJPI0rRwKxJEaF+K169e+KsnxVjHmT8vdB12/j1bnc6Vr0KenFrWmSm2uxHUH03YBo5U&#xA;+H7MqMvtirzbyZY+ZV83x22l6rAt/B/iRbi+1G0N164XWIVZjFbzWKq7NRqqePUcfBV6DdaH+Z9y&#xA;oT/FenWadGks9GZZf9ibm+ukB+aHFXab+WejxapDrOtXl55k1i2PO1utVkWSO3c0q1taxLDawmqi&#xA;jLHyH82KsvxVi/5naRr2seQdb0zQXKardW5S3AYRlxyBkiDt8KmSMMgJ233piqU+TNZ/LPWbKHR9&#xA;Khi0nULFFil8vyr9Sv7VlUEo8DcXPHl9sclPicVRXmnyx57ezZfKHmJdOuOLCNb2ITrzP2TzYSAK&#xA;P5fT38cVYbc/mJ+c/kq1M/nrQNI1XTI9n1bSdQisyAB1MF+0fqMfBOPyxVM/JOpf4x8+xed9E0m6&#xA;0nQm0v6ve394noSajNIUeFFhBZZEtlqPXrufhUlRXFXqeKuxV2KuxV2KuxV2KrJZUiieWQ8Y41LO&#xA;3gAKk4q870Wfzx5+sk1galJ5U8sXfM6faWUcT6pPDUqk09xOsscHPjyCRRlgD9vFVnmjyf8AlxoO&#xA;lLdeZbzWL4NSKP19U1W4nncAuEWGKfiTtXZQo9sVed+UtA8z+e9ThvPKtrqvkHyVazfFqdxqeoS3&#xA;98sbbxwWz3L28cZ3DMVcfyk0IxV6Xcar5u8k6vpNtq+ojzD5a1m+i0yC8njjh1K0uLgcbcSGFY4b&#xA;iNnXiW4IwrX4sVeh4qoXlhY3sRhvLeK5hOxjmRZFNfZgRiqX2/lHynbSia20WwglWoEkdrCjCux3&#xA;VQcVTfFXYq7FXYq8m8gf+TDm/wDBn/7rcOKvWcVdirsVdiqVa55V8s6/GseuaTZ6msYIjF3BHMU5&#xA;bHgXVip+WKscP5K/lrX93pTwIf8AdUF5ewx9a09OKZE/DFUw0n8r/wAu9KuFurLy9YrdoQyXckKz&#xA;TqRXcTS85B1/mxVOdd1zSdB0i61fV7lLPTrNPUuLiTooqANhUksxAUDcnYYqxKLzJ+ZuvwfWtA0K&#xA;10TT3Ae3udfeR7qVCtQfqFsV9Pf/AH5Orf5OKoeztPzJ1KRkPnS1sruOoezj0ZFAYHf+9upmYfJh&#xA;iqYSW/5waeFeG90TX0Wpkt5ra50uVh4JMk1+lfnF9OKo3yh57s/MF1faVcWk2keY9K4fpPRrriZI&#xA;xIKrJFJGWjmibs6n5gVGKsnxV2KuxVogMCCKg7EHoRirALbyb508pq8Hkm+s7vQ2dpIfL+sCVBbc&#xA;yzstreQh3VOTbJJG9OzDFUNa3/nlZnn1ryNc6heA0D22oafLbU/yBPJat96Yqmi+YvzJuD6GneS4&#xA;bBFSiTarqcESKQNqR2KXxI+kYq1pvkTWb7W7PX/OmqJql7pzGXS9Ks4jb6baTMvEyhHaSSeVd+Ek&#xA;jfDX4VB3xVm2KuxV2KuxV2KuxV2KvJvIH/kw5v8AwZ/+63Dir1nFXYq7FXYq7FXYq7FWM/mL5Tuv&#xA;NPlW50uyuxYaiHjubC6ZeaJcW7iSP1E3DIStDsfGhpiqV2/5l3Omx+j5y0DUNGuoVrNe2tvNqWnP&#xA;Qkc47i0WZkU0rSZEIxVg/wCaF9+VvnWxF3pfny20DzFCFNpe+qBRoWLRrJFJR4iG/bj4uO/IDjiq&#xA;Yflt+dOtan5dW21fQdS1fzFZyC1a70i1aSyvhT4bpLmT0LeEMN2EjLv0H7IVZV5R8t+Y5/Nd7538&#xA;zQ29hqd1ZR6bY6TbP631a0SQzkXFxRVllaQ/sDio6E1xVnGKuxViGu/mNZWesSeX9E0+68x+YolD&#xA;XFhYBBHbB1LIbu6lZIYOdNgWL/5OKoa4vvzbeJ7uWHy/oVlFGZZjPLd6i6KqlmLcFsE2p2Y4qxr8&#xA;tvPX5s+dvKlr5nsI9AktLmWeNbSZL2zfjBK0Qb1Ve9HxBeVOG3T3xVktv+ZNxYanb6Z5y0Sby5Ne&#xA;S+jY6gJUvNMmkJokYu4whjd/2VmjSvbFWcYq7FXYq7FXYq7FXYq7FXYq8m8gf+TDm/8ABn/7rcOK&#xA;vWcVdirsVdirsVdirsVdirsVSLzJ558o+Wgg1zVbeymlFYLVm5XEu9P3UCcpZN/5VOKpNcfmtpaK&#xA;ZLfQvMF3bheZuE0q6hj49QQbpbcmvsMVbX82fL0UDT6pp2s6RAoq015pV76QBpQtNDHNEo36lsVZ&#xA;NouvaJrlit/o1/b6jZOaC4tZFlSo6qShNGHcHcYqj8VeY6Xeah+Xura+msaTPc+XtX1O51e31/TI&#xA;XujGbr43ivbeEPOpi4UWVVZStPs0xVH695//ACy8xeV9Q0+PzRpzJfWzxPCt5DHOVdaMhikIcchs&#xA;VZfbFUN5Q8zflP5K8rw6XF5k0q2ijLztard23NWncyFUhiIO3L7KriqF826lqP5k6RJ5Y8uaXcpo&#xA;moGIaj5l1KB7S3SBZFkP1SGdUnuJDw+FuAQGh5Yq9RAoKYq3irsVdirsVdirsVdirsVeTeQP/Jhz&#xA;f+DP/wB1uHFXrOKuxV2KuxV2KuxV2KuxVBa02ppo1+2lKr6mtvKbBHpxM4Q+kGrtQvTFWCfkrB5R&#xA;m0BdSs2F15smAXzTd3e+prfDaeG45gSxqjgqibLxAp4lVb+ffny78m+UbG8trc3TajqUWnmFUMjn&#xA;1IZpUCKHi3MkKjr07Yq9A0pL1NLs0v8AgL5YIxdCKvp+qEHPhWp48q0rirzbUDoTfm7pTeTeJ11W&#xA;kXzm1lT6qLL024C/KfB9Y9UD0f2+tfhxV6nirsVQeo6Ro9+hGo2VvdoBuLiJJAAKn9sHpXFWI/8A&#xA;Kwfyg0G5FjY6hpy3ZJH1PSYhdTVqAwMVikrg1G4IxVEP+bvkaNS8s1/DGPtSS6TqkaLU0qzvbBQP&#xA;cnFU58v+cvKfmJWbQtXtNSKDlJHbzI8iA7fHGDzT/ZAYqnOKuxV2KuxV2KuxV2KuxV5N5A/8mHN/&#xA;4M//AHW4cVes4q7FXYq7FXYq7FXYq7FXYqxzzB+Xvk7X72PUNS01TqkIAi1O2eW0vFA6AXNs0U1B&#xA;4cqYqx3V/wAlNL1T6otz5k194rC7iv7KKW8juhFcwEmKRWu4bh6pyNKtiqP/AOVT6LcxvFrOra3r&#xA;cMgo8F7qdwsLDwaG1a2iYezKRirJ9F0HRNDsVsNGsLfTrJN1t7aNYkr0LEIBUnuTviqPxV2KvL/M&#xA;KWfmL81l8peaJpU0OPT0vdI0fk0drqUoc/WGnZSvrehRaQE0pViKYqmP5gfk/oHmXQrW20kL5d1r&#xA;R6yeXdV09RbvaS0+yoi4fumpRlH0b4q1+W+s+f7a2i0fz+kJ1KONVTUk4xmd+hBSMyRn/jICtf5F&#xA;OKor8z/Lnka60C71jzDJFpNxYxFrXzJH+6vbSQA+m0MycZS3KlIwfjO1DiqYflrf+YtQ8h6JeeY4&#xA;zFrU9qjXYYcWJ34O6inF3TizCgoT0HTFWTYq7FXYq7FXYq7FXYq8m8gf+TDm/wDBn/7rcOKvWcVd&#xA;irsVdirsVdirsVea6NJ5m/MaKfVTq9x5f8omea306y00rFf3S28xiaa4umVpIAzxsBHEFanV8VUf&#xA;NvlX8j/Kdqmo+arWCaS7kWGCXVZ5r+5mlNBxRruSVu/xGoA70GKofSPy9/LrzVGuo6HodvpWmiRv&#xA;S1CwWWynkKGh9KSAwnht1X4fCuKo3XY/Mv5ei21ey1m51nyw11Db6lpOrSfWLmFLqURLLZ3ZHrOU&#xA;Z1/dzM9RX4hir0vFXYq7FXYqlXmLyv5f8x2IsdbsYr63VucXqAh43HSSKRSskTjsyMD74qkUf5fa&#xA;pZK6aR5y1yyhZqrbzvaagiD+VXvre4np85TiqhN5A81XsJg1LzzqM0JJqIbPSoWApQcXNrIVb3GK&#xA;orTPyt8r2t9BqWom68waranlbX+s3D3jxNUEGGJ6QREEVBjjU4qmXmzzx5U8pWiXXmDUY7JZiVt4&#xA;jyeaVgQCIoYw0klOQrxU074qkUX5geatTt47ry/5Jv7m0mFY7nULmz09WG9CIzJPOB/rRg+2Kq0n&#xA;mT8zoCpl8l29xGftCz1eN5B/sbi3tUP/AAeKrrf80dEi1CHTfMNlfeWL+5kENquqxKlvNJSvCK8g&#xA;ee1Y+C+qGPhirMsVdirsVdirybyB/wCTDm/8Gf8A7rcOKvWcVdirsVYrqX5n+SLDUH0waib/AFSO&#xA;vPTtMhn1G4Ur+y8dmkzRn/XpiqDP5oKT+78qeZHQ1o/6NZKjx4yOjivutcVXp+bfk+IxLq5vfL7T&#xA;NwRtZsbqxh5eH1maMW//ACUxVmEM8M8KTQSLLDIoeOVCGVlIqCrDYg4qwu48g6vpWo3mp+SdXXSX&#xA;v5GuL7RryH61pk07DeVY0eGW3dzu7RvRu61xV59pP5R+c4fMDeZfOGi6b558yM3KC/u9VljtrdFN&#xA;USCyNh6UfHr+1vuKHFXosmofm5cRFLXQtE06QEATXOpXN0oHtFFZw8qf8ZFxVbZ/l7e32q2msect&#xA;XbXrvT5frGm6fFCLPTbaYD4ZUtw0ryypvxeaRuNaqAcVZrirsVdirsVdirsVdirsVeRa/b+W9I/M&#xA;XX9Q/MDTY7ny9r9vZWuk6xeRfWrG3SJQJbOfkHW153FJVLAIx35VXFVN/wAg/wAvNRibV/IOt33l&#xA;mW4+JL3y9fsbV28TGGdCv+SjKMVZnoGh+cdBsjHda4NcCBayXi+mQFWjENV3q3U8pCPDFWN+cvzB&#xA;0LW9K1LyhaaaPMuu31vJbrpNi8V3EjuCivdTo3p2yo9G5SMpHbfFWe+VNNvtL8saTpuoT/Wr6ys4&#xA;Le6uKlucsUaq7cm+JqkdW3PffFUdf31pp9jcX17KsFnaxvNcTP8AZSONSzsfYAYq80tfzE8xeZwb&#xA;jSL7R/K2iPyFvearIt3qMy0HGVbJJoI4FPb1ZGbxTFUTALS5kWyuvzYnmv2baCzk0S3JanRYxbSS&#xA;/QWOKrLT8stV0nVhq3l7zlK16BdcotVtrS7if67OtzcVFqtg45yoDXlt22xVN9A8665Fr9v5Y832&#xA;EFlq97HJJpeoWEjS2F8IFDTLHzAlhlRTyMb126McVZrirz/87rnVLbybFJbm4XSPr9sPM72XL6yu&#xA;kEn600ZT4x+zyK78OXbFWO6P+aun2+kx2H5Y/l7quqaZHX6rNBbx6Zpsm9CyXE32ySPibga+OKp3&#xA;5a1b89NUuy+t6FpegWJYBYPrP1mdUPUmSIyxsw7DgB7+CrK7rTXFpNLrOqsLNUY3J+CCER0+LmTt&#xA;xp1rirCvyegsI9b80N5XMv8AgJpof0RyBFoboKwvDYV3MBenJh8JevDbFXqOKuxV2KuxV2KuxV2K&#xA;uxV2KuxV2KuxVogMCCKg7EHoRirFNQ/Kf8tb+UzXHlrT1uGPJp4IFt5S1a1MkPpvX3riqhD+Tf5Y&#xA;RyCR/LtrcsKUF2GulFPBbhpBirKdN0vTNLtVs9NtIbG0TdLe2jSGMV8EQKoxVFYqgdd0e01rRr7S&#xA;Lzl9Vv4JLeYoaMFkUqSp3owrUYq8fj/Lm00QfVvM35c6b5st4FPDzFo9tZreTAEANeWc5hZpm6u8&#xA;cklT2xVHaPoX5JWE4vrPyZqemXZVlYJoWtBuLqVdG9GB0ZWBIK1IOKo9fzC8pXl+dL8u+WNV1rUe&#xA;M7JELVrGOttIIpucuota8fTkYI2xIJ6YqmPlvyXr935mtfNPmVLbTm09JBo+gae7ypA08fpyzXVw&#xA;wj9eXgzIoVAig7VJrir0DFXYqxG7/KvyVLdzX1naS6Nf3H99daPc3Gmu5J5FpFtJIkkYk9XU4qhf&#xA;+VXyAgDzj5lEY/3X9fQj/gjCZP8AhsVVYvyk8lNJDNqsNzr88H92+t3lzqKA06iG5kkgB+SYqzGO&#xA;OOKNY41CRoAqIoAVVAoAAOgGKrsVdirsVdirsVdirsVdirsVdirsVdirsVdirsVdirsVdirsVdir&#xA;ybyB/wCTDm/8Gf8A7rcOKvWcVdirsVdirsVdirsVdirsVdirsVdirsVdirsVdirsVdirsVdirsVd&#xA;irsVdirsVdirsVeTeQP/ACYc3/gz/wDdbhxV6zirsVdirsVdirsVdirsVdirsVdirsVdirsVdirs&#xA;VdirsVdirsVdirsVdirsVdirsVdirybyB/5MOb/wZ/8Autw4q9I17VW0uxiuVjEpku7K04k8aC8u&#xA;4rYtWh+yJuXvTFUxxV2KuxV2KuxV2KuxV2KuxV2KuxV2KuxV2KuxV2KuxV2KuxV2KuxV2KuxV2Ku&#xA;xV2KvJvIH/kw5v8AwZ/+63DirOfPP/HFtv8Atq6P/wB1W2xVkGKuxV2KuxV2KuxV2KuxV2KuxV2K&#xA;uxV2KuxV2KuxV2KuxV2KuxV2KuxV2KuxV2KuxV5N5A/8mHN/4M//AHW4cVZz55/44tt/21dH/wC6&#xA;rbYqiPNPmjTvLeli/vUlm9WaK1tLS2UST3FxO4SKGJCVBZie5AAqSQBirHoPzc0NtXtdFu9O1DT9&#xA;ZuNQTS5NPuEtzJDLLbNdRSSPDNLE0UkcZ4tG777EDFVutfnB5f0qW7gew1C7uLTWbfy/6FtFE7yX&#xA;l1bi5i9MNKlUKkLU0PLtTfFW4Pzb0dtS1qyu9K1Gwh8twpN5g1C5W1FtZ+pai7CO8dxI0j8W4UhV&#xA;/i/yaMVWpvzd0qzhuJNY0XVdHeLS7rWrWG9itw91a2MYknEPpTyhZVVgfSlKMK7gYqgLr86bc6c0&#xA;lt5f1W3vL3SrnVtAF7FbRx3kdsqs5UC55JwWRXZZeDFPs1JAKrLPIev33mHybout39mbG81GzhuJ&#xA;rc8OPKRA3OPhJPSN68kDPyCkcqNUYqn2KuxV2KuxV2KuxV2KuxV2KuxV2KuxV2KuxV2KuxV2KuxV&#xA;2KvJvIH/AJMOb/wZ/wDutw4qznzz/wAcW2/7auj/APdVtsVQ/wCYHlfUde07Tn0qWGLVtG1G21Ww&#xA;FzyEEkluWVopWQMyq8cjLyCmh3ocVYzrfk78zNZuNN1y8uNMOp6PrMWo6boayyiyjtUt5LeSI3wt&#xA;hO0snq+pzaCgI4hab4qgNP8Ayu87Sak+qatcacLqfzZbeY5YraSdkS1gsjbGFWeJS0imgFQAw3+H&#xA;7OKptqP5WXerW35i2N9dxw2vnKSJ7KWHk8kIis4oKyoyoP72GtFY1XuDiqQ/8qe1y5sNWj/Q/lfy&#xA;9Pc6DfaVANGtUBuL29gMP1me5NnDNbxLX+6i5faPJmoBiqea3+WmtajL5SKXFsiaHomp6TelmkJa&#xA;a+tILeN4gE+JFaFi3IqaU2xVlfkPStX0jyZoukaulul/plnDZSm0leaFvq8YiV1eSOBvjVAxUp8N&#xA;aVPUqp9irsVdirsVdirsVdirsVdirsVdirsVdirsVdirsVdirsVdirybyB/5MOb/AMGf/utw4qzn&#xA;zz/xxbb/ALauj/8AdVtsVZBirsVdirsVdirsVdirsVdirsVdirsVdirsVdirsVdirsVdirsVdirs&#xA;VdirsVdirsVeTeQP/Jhzf+DP/wB1uHFUR+e35iL5K0jTbnUNKuLrRp7+xeS/tWRniltLyK79J4n9&#xA;P+8igbg3P7Wxp1xVnvljVr7V9BstUvdPbS57yMTCwkcSSRo+8YkICgOUoWX9k7VOKppirsVdirsV&#xA;dirsVdirsVdirsVdirsVdirsVdirsVdirsVdirsVdirsVdirsVdirybyB/5MOb/wZ/8Autw4q9H8&#xA;weXdH8w6adM1i2W7sWlhmaB91L28qzJX/ZIK+I2xVMsVdirsVdirsVdirsVdirsVdirsVdirsVdi&#xA;rsVdirsVdirsVdirsVdirsVdirsVdirybyB/5MOb/wAGf/utw4q9ZxV2KuxV2KuxV2KuxV2KuxV2&#xA;KuxV2KuxV2KuxV2KuxV2KuxV2KuxV2KuxV2KuxV2KuxV5L+X5B/Me9jBrJbHzELhB9qP19Yhki5j&#xA;9n1EHJK9RuMVetYq7FXYq7FXYq7FXYq7FXYq7FXYq7FXYq7FX//Z</xapGImg:image>
    </rdf:li>
   </rdf:Alt>
  </xap:Thumbnails>
 </rdf:Description>

 <rdf:Description rdf:about=''
  xmlns:dc='http://purl.org/dc/elements/1.1/'>
  <dc:format>image/svg+xml</dc:format>
 </rdf:Description>

</rdf:RDF>
</x:xmpmeta>
                                                                                                                                                                                                                                                                                                                                                                                                                                                                                                                                                                                                                                                                                                                                                                                                                                                                                                                                                                                                                                                                                                                                                                                                                                                                                                                                                                                                                                                                                                                                                                                                                                                                                                                                                                                                                                                                                                                                                                                                                                                                                                                                <?xpacket end='w'?>
			</metadata>
		<g id="Layer_1">
			<polygon style="fill:#BFBFBF;stroke:#BFBFBF;" points="76.439,58.306 67.324,57.854 76.539,57.73 "/>
			<path style="fill:none;stroke:#000000;stroke-width:0.5;" d="M66.343,57.842c-0.404,2.349,3.893,4.335,9.599,4.437
				c5.705,0.102,10.658-1.719,11.062-4.068c0.404-2.349-3.893-4.335-9.598-4.437C71.701,53.672,66.748,55.494,66.343,57.842z"/>
			<path style="fill:none;stroke:#000000;stroke-width:0.475;" d="M66.86,57.851c-0.384,2.231,3.698,4.119,9.119,4.215
				c5.42,0.097,10.125-1.633,10.509-3.865c0.384-2.231-3.698-4.118-9.118-4.215S67.244,55.62,66.86,57.851z"/>
			<polyline style="fill:#BFBFBF;stroke:#000000;stroke-width:0.5;" points="73.625,173.145 73.625,0.645 71.625,0.645 
				71.625,173.145 "/>
			<path style="fill:#FFFFFF;stroke:#000000;stroke-width:0.475;" d="M79.355,109.145c0.384-2.231-3.698-4.118-9.118-4.215
				c-5.42-0.097-10.125,1.633-10.509,3.864c-0.384,2.231,3.698,4.118,9.118,4.215C74.266,113.106,78.971,111.375,79.355,109.145z"/>
			<polygon style="fill:#BFBFBF;stroke:#BFBFBF;" points="11.881,82.82 10.532,86.58 10.481,82.794 "/>
			<path style="fill:none;stroke:#000000;stroke-width:0.5;" d="M10.475,86.983c5.706,0.102,10.658-1.72,11.062-4.068
				c0.404-2.348-3.894-4.335-9.599-4.437c-5.706-0.102-10.659,1.72-11.062,4.068C0.472,84.895,4.77,86.882,10.475,86.983z"/>
			<path style="fill:none;stroke:#000000;stroke-width:0.475;" d="M10.511,86.771c5.42,0.097,10.125-1.633,10.509-3.864
				c0.384-2.231-3.699-4.118-9.119-4.215c-5.42-0.097-10.125,1.634-10.51,3.865C1.008,84.787,5.091,86.674,10.511,86.771z"/>
			<polygon style="fill:#BFBFBF;stroke:#BFBFBF;" points="134.334,84.176 135.684,80.416 135.734,84.201 "/>
			<path style="fill:none;stroke:#000000;stroke-width:0.5;" d="M135.741,80.013c-5.706-0.102-10.658,1.719-11.062,4.068
				s3.894,4.335,9.599,4.437c5.706,0.102,10.658-1.72,11.062-4.068S141.446,80.114,135.741,80.013z"/>
			<path style="fill:none;stroke:#000000;stroke-width:0.475;" d="M135.705,80.225c-5.42-0.097-10.125,1.634-10.509,3.865
				s3.699,4.118,9.119,4.215c5.42,0.097,10.125-1.634,10.509-3.865C145.208,82.209,141.125,80.322,135.705,80.225z"/>
			<polygon style="fill:#BFBFBF;stroke:#BFBFBF;" points="18.419,95.506 21.809,98.988 17.157,95.772 "/>
			<path style="fill:none;stroke:#000000;stroke-width:0.5;" d="M22.249,99.344c5.143-1.086,7.284-3.657,4.781-5.742
				c-2.502-2.084-8.701-2.895-13.844-1.808c-5.143,1.086-7.284,3.657-4.781,5.741C10.908,99.621,17.106,100.43,22.249,99.344z"/>
			<path style="fill:none;stroke:#000000;stroke-width:0.475;" d="M22.022,99.155c4.886-1.032,6.919-3.474,4.542-5.454
				c-2.377-1.981-8.266-2.75-13.151-1.718c-4.886,1.032-6.919,3.474-4.542,5.455S17.137,100.187,22.022,99.155z"/>
			<polygon style="fill:#BFBFBF;stroke:#BFBFBF;" points="127.796,71.49 124.407,68.007 129.059,71.223 "/>
			<path style="fill:none;stroke:#000000;stroke-width:0.5;" d="M123.966,67.652c-5.143,1.086-7.283,3.657-4.781,5.741
				c2.502,2.085,8.701,2.895,13.844,1.809c5.143-1.086,7.284-3.657,4.781-5.742C135.308,67.375,129.109,66.565,123.966,67.652z"/>
			<path style="fill:none;stroke:#000000;stroke-width:0.475;" d="M124.193,67.84c-4.886,1.032-6.919,3.474-4.542,5.455
				c2.378,1.98,8.266,2.75,13.152,1.718c4.886-1.032,6.919-3.474,4.542-5.454C134.967,67.578,129.079,66.809,124.193,67.84z"/>
			<polygon style="fill:#BFBFBF;stroke:#BFBFBF;" points="39.61,104.975 46.83,107.246 38.824,105.461 "/>
			<path style="fill:none;stroke:#000000;stroke-width:0.5;" d="M47.65,107.459c3.203-1.983,1.958-4.614-2.781-5.876
				s-11.177-0.678-14.379,1.305c-3.203,1.983-1.958,4.614,2.781,5.876C38.009,110.026,44.448,109.442,47.65,107.459z"/>
			<path style="fill:none;stroke:#000000;stroke-width:0.475;" d="M47.221,107.345c3.042-1.884,1.86-4.383-2.642-5.583
				c-4.502-1.2-10.618-0.645-13.661,1.239c-3.042,1.884-1.859,4.383,2.642,5.583C38.062,109.783,44.179,109.229,47.221,107.345z"/>
			<polygon style="fill:#BFBFBF;stroke:#BFBFBF;" points="106.605,62.021 99.386,59.75 107.391,61.534 "/>
			<path style="fill:none;stroke:#000000;stroke-width:0.5;" d="M98.565,59.537c-3.203,1.983-1.958,4.614,2.781,5.876
				c4.739,1.263,11.177,0.679,14.379-1.304s1.958-4.614-2.781-5.876C108.206,56.97,101.768,57.554,98.565,59.537z"/>
			<path style="fill:none;stroke:#000000;stroke-width:0.475;" d="M98.995,59.651c-3.043,1.884-1.86,4.383,2.642,5.583
				c4.501,1.199,10.618,0.645,13.66-1.239c3.043-1.884,1.86-4.383-2.642-5.583C108.153,57.212,102.037,57.768,98.995,59.651z"/>
			<polygon style="fill:#BFBFBF;stroke:#BFBFBF;" points="100.834,105.654 109.403,104.166 101.448,106.166 "/>
			<path style="fill:none;stroke:#000000;stroke-width:0.5;" d="M110.281,103.975c-2.502-2.085-8.7-2.895-13.844-1.809
				c-5.143,1.086-7.284,3.656-4.781,5.741s8.7,2.895,13.843,1.809S112.784,106.06,110.281,103.975z"/>
			<path style="fill:none;stroke:#000000;stroke-width:0.475;" d="M109.815,104.073c-2.377-1.98-8.265-2.75-13.151-1.718
				c-4.886,1.032-6.919,3.474-4.542,5.454c2.377,1.981,8.266,2.75,13.151,1.718C110.159,108.496,112.193,106.053,109.815,104.073z"
				/>
			<polygon style="fill:#BFBFBF;stroke:#BFBFBF;" points="45.381,61.342 36.812,62.831 44.768,60.83 "/>
			<path style="fill:none;stroke:#000000;stroke-width:0.5;" d="M35.935,63.021c2.502,2.084,8.7,2.895,13.843,1.809
				s7.284-3.657,4.782-5.741c-2.502-2.085-8.701-2.895-13.844-1.809C35.573,58.366,33.432,60.937,35.935,63.021z"/>
			<path style="fill:none;stroke:#000000;stroke-width:0.475;" d="M36.4,62.923c2.377,1.98,8.266,2.75,13.151,1.718
				s6.919-3.474,4.542-5.454s-8.265-2.75-13.151-1.718C36.057,58.5,34.023,60.942,36.4,62.923z"/>
			<polygon style="fill:#BFBFBF;stroke:#BFBFBF;" points="124.463,96.683 130.189,93.652 125.626,96.992 "/>
			<path style="fill:none;stroke:#000000;stroke-width:0.5;" d="M130.73,93.309c-4.739-1.263-11.177-0.679-14.38,1.304
				c-3.203,1.983-1.958,4.614,2.781,5.876c4.738,1.262,11.177,0.679,14.379-1.304C136.713,97.203,135.468,94.571,130.73,93.309z"/>
			<path style="fill:none;stroke:#000000;stroke-width:0.475;" d="M130.44,93.488c-4.501-1.199-10.618-0.645-13.661,1.239
				c-3.042,1.884-1.86,4.383,2.642,5.583c4.501,1.2,10.618,0.645,13.661-1.239C136.124,97.188,134.941,94.688,130.44,93.488z"/>
			<polygon style="fill:#BFBFBF;stroke:#BFBFBF;" points="21.752,70.313 16.026,73.344 20.59,70.003 "/>
			<path style="fill:none;stroke:#000000;stroke-width:0.5;" d="M15.485,73.687c4.739,1.262,11.177,0.679,14.38-1.304
				c3.203-1.983,1.958-4.614-2.781-5.876c-4.738-1.263-11.176-0.679-14.379,1.304S10.747,72.424,15.485,73.687z"/>
			<path style="fill:none;stroke:#000000;stroke-width:0.475;" d="M15.775,73.507c4.502,1.199,10.618,0.645,13.661-1.239
				c3.043-1.884,1.86-4.383-2.641-5.583c-4.502-1.2-10.618-0.645-13.661,1.239C10.091,69.809,11.274,72.308,15.775,73.507z"/>
			<polygon style="stroke:#000000;" points="76.721,57.733 85.836,58.185 76.622,58.31 "/>
			<polygon style="stroke:#000000;" points="10.494,82.72 11.843,78.959 11.894,82.745 "/>
			<polygon style="stroke:#000000;" points="135.722,84.276 134.372,88.037 134.322,84.251 "/>
			<polygon style="stroke:#000000;" points="17.078,95.706 13.688,92.224 18.339,95.439 "/>
			<polygon style="stroke:#000000;" points="129.138,71.29 132.527,74.772 127.876,71.556 "/>
			<polygon style="stroke:#000000;" points="38.673,105.421 31.454,103.15 39.459,104.935 "/>
			<polygon style="stroke:#000000;" points="107.542,61.575 114.762,63.846 106.757,62.061 "/>
			<polygon style="stroke:#000000;" points="101.284,106.2 92.715,107.689 100.67,105.689 "/>
			<polygon style="stroke:#000000;" points="44.932,60.795 53.5,59.307 45.545,61.307 "/>
			<polygon style="stroke:#000000;" points="125.523,97.056 119.797,100.086 124.361,96.746 "/>
			<polygon style="stroke:#000000;" points="20.692,69.94 26.418,66.91 21.854,70.25 "/>
			<polygon style="stroke:#000000;" points="69.495,109.263 60.379,108.811 69.594,108.686 "/>
			<polygon style="fill:#BFBFBF;stroke:#BFBFBF;" points="69.776,108.689 78.891,109.141 69.677,109.266 "/>
			<path style="fill:none;stroke:#000000;stroke-width:0.5;" d="M79.872,109.154c0.404-2.349-3.893-4.335-9.598-4.437
				s-10.658,1.72-11.062,4.068c-0.404,2.349,3.893,4.335,9.598,4.437S79.468,111.502,79.872,109.154z"/>
			<path style="fill:#FFFFFF;stroke:#000000;stroke-width:0.047;" d="M70.512,108.987c0.038-0.221-0.366-0.408-0.902-0.417
				c-0.536-0.01-1.001,0.162-1.039,0.382s0.366,0.407,0.901,0.417C70.009,109.378,70.474,109.207,70.512,108.987z"/>
			<path style="fill:#BFBFBF;stroke:#000000;stroke-width:0.5;" d="M71.537,173.157c0,0.235,0.482,0.425,1.077,0.425
				s1.077-0.19,1.077-0.425"/>
			<ellipse style="fill:#BFBFBF;stroke:#000000;stroke-width:0.5;" cx="72.689" cy="0.633" rx="0.957" ry="0.383"/> 
			<rect y="84.999" style="fill:none;" width="147.401" height="2.835"/> 
			<g>
				<line style="fill:none;stroke:#000000;stroke-width:0.5;" x1="80.625" y1="127.645" x2="80.625" y2="156.145"/>
				<path d="M80.625,159.162c-0.527-1.42-1.426-3.182-2.377-4.273l2.377,0.86l2.377-0.86
					C82.051,155.98,81.151,157.742,80.625,159.162z"/>
			</g>
			<g>
				<g>
					<text transform="matrix(1 0 0 1 84.625 144.6445)"><tspan x="0" y="0" style="font-family:'Helvetica'; font-size:10;">current</tspan></text>
				</g>
			</g>
			<path style="fill:#FFFFFF;stroke:#000000;stroke-width:0.047;" d="M101.844,105.756c-0.235-0.196-0.818-0.272-1.301-0.17
				c-0.483,0.102-0.684,0.343-0.449,0.539c0.235,0.196,0.817,0.272,1.301,0.17C101.877,106.193,102.079,105.952,101.844,105.756z"/>
			<path style="fill:#FFFFFF;stroke:#000000;stroke-width:0.047;" d="M125.475,96.562c-0.445-0.119-1.05-0.064-1.351,0.123
				c-0.301,0.187-0.184,0.434,0.261,0.552c0.445,0.118,1.05,0.063,1.351-0.123C126.037,96.928,125.92,96.681,125.475,96.562z"/>
			<path style="fill:#FFFFFF;stroke:#000000;stroke-width:0.047;" d="M135.078,83.865c-0.536-0.009-1.001,0.162-1.04,0.382
				c-0.038,0.221,0.366,0.407,0.902,0.417c0.536,0.009,1.001-0.162,1.04-0.382C136.018,84.062,135.614,83.875,135.078,83.865z"/>
			<path style="fill:#FFFFFF;stroke:#000000;stroke-width:0.047;" d="M128.072,71.072c-0.483,0.102-0.685,0.343-0.449,0.539
				s0.817,0.272,1.301,0.17c0.483-0.102,0.684-0.344,0.449-0.539C129.138,71.046,128.555,70.97,128.072,71.072z"/>
			<path style="fill:#FFFFFF;stroke:#000000;stroke-width:0.047;" d="M106.34,61.608c-0.301,0.187-0.184,0.434,0.261,0.552
				c0.445,0.119,1.05,0.063,1.351-0.123c0.301-0.187,0.184-0.434-0.262-0.552C107.245,61.367,106.641,61.422,106.34,61.608z"/>
			<path style="fill:#FFFFFF;stroke:#000000;stroke-width:0.047;" d="M75.703,58.009c-0.038,0.221,0.366,0.407,0.902,0.417
				c0.536,0.009,1.001-0.162,1.04-0.382s-0.366-0.407-0.902-0.417C76.207,57.618,75.741,57.789,75.703,58.009z"/>
			<path style="fill:#FFFFFF;stroke:#000000;stroke-width:0.047;" d="M44.372,61.24c0.235,0.196,0.817,0.272,1.3,0.17
				c0.483-0.102,0.685-0.344,0.449-0.54c-0.235-0.196-0.817-0.272-1.3-0.17C44.338,60.802,44.137,61.044,44.372,61.24z"/>
			<path style="fill:#FFFFFF;stroke:#000000;stroke-width:0.047;" d="M20.74,70.434c0.445,0.119,1.05,0.064,1.351-0.122
				c0.301-0.187,0.184-0.434-0.261-0.552c-0.445-0.119-1.05-0.064-1.351,0.123S20.295,70.315,20.74,70.434z"/>
			<path style="fill:#FFFFFF;stroke:#000000;stroke-width:0.047;" d="M11.138,83.13c0.536,0.01,1.001-0.162,1.039-0.382
				c0.038-0.22-0.366-0.407-0.902-0.417c-0.536-0.01-1.001,0.162-1.039,0.382C10.198,82.934,10.602,83.121,11.138,83.13z"/>
			<path style="fill:#FFFFFF;stroke:#000000;stroke-width:0.047;" d="M18.144,95.924c0.483-0.102,0.684-0.343,0.449-0.54
				c-0.235-0.196-0.817-0.272-1.301-0.17c-0.483,0.102-0.684,0.344-0.449,0.54C17.078,95.95,17.66,96.026,18.144,95.924z"/>
			<path style="fill:#FFFFFF;stroke:#000000;stroke-width:0.047;" d="M39.876,105.388c0.301-0.186,0.184-0.434-0.261-0.552
				c-0.445-0.119-1.05-0.064-1.351,0.123c-0.301,0.186-0.184,0.433,0.261,0.552C38.97,105.629,39.575,105.574,39.876,105.388z"/>
		</g>
	</svg>
