<?xml version="1.0" encoding="iso-8859-1"?>
<!-- Generator: Adobe Illustrator 11 Build 196, SVG Export Plug-In . SVG Version: 6.0.0 Build 78)  -->
<!DOCTYPE svg PUBLIC "-//W3C//DTD SVG 1.0//EN"    "http://www.w3.org/TR/2001/REC-SVG-20010904/DTD/svg10.dtd" [
	<!ENTITY ns_flows "http://ns.adobe.com/Flows/1.0/">
	<!ENTITY ns_svg "http://www.w3.org/2000/svg">
	<!ENTITY ns_xlink "http://www.w3.org/1999/xlink">
]>
<svg  
	 width="146.49" height="99.652" viewBox="0 0 146.49 99.652" style="overflow:visible;enable-background:new 0 0 146.49 99.652"
	 xml:space="preserve">
	<style type="text/css">
	
	</style>
	<g id="Layer_1">
		<path style="fill:#DCDCDC;stroke:#000000;stroke-width:0.5;" d="M96.815,93.428c-0.252-0.633-0.967-0.943-1.605-0.691
			c-0.293,0.041-0.58,0.094-0.85,0.211c0.094-0.006,0.182-0.012,0.275-0.018c-3.211,0.205-6.398,0.527-9.545,1.219
			c-2.742,0.006-5.479-0.094-8.221,0.053c-2.145,0.111-4.26,0.27-6.41,0.193c-0.433-0.015-0.845,0.143-1.268,0.235
			c-1.816-0.075-3.63-0.274-5.464-0.722c-1.104-0.264-1.977-1.199-2.225-2.31c0.398-1.084,0.697-2.248,0.476-3.425
			c-0.25-1.323-0.877-2.428-1.687-3.486c-1.369-1.785-2.942-3.222-4.961-4.182c-1.467-0.704-2.972-1.18-4.447-1.853
			c-0.703-0.325-1.406-0.537-2.17-0.681c-3.305-0.635-6.33-1.384-9.589-1.641c-1.316-0.098-2.624,0.016-3.94-0.06
			c-0.34-0.015-0.598,0.03-0.96-0.023c-0.477-0.061-0.854,0.053-1.316,0.091c-0.236,0-0.589-0.091-0.767,0.035
			c-2.185,0.19-4.315,0.146-6.455,0.283c-2.806,0.272-5.075,0.635-7.616,1.232c-2.7,0.499-5.422,0.923-8.024,1.868
			c-0.227,0.083-0.401,0.257-0.628,0.34c-3.078,1.119-5.982,2.987-7.54,5.937c-0.234,0.56,0.03,1.195,0.582,1.429
			c0.56,0.234,1.195-0.03,1.429-0.582c-0.015-0.008-0.03-0.015-0.045-0.023c1.792-2.979,5.105-4.303,8.19-5.528
			c2.254-0.454,4.432-0.992,6.723-1.452c2.488-0.499,3.033-0.68,5.256-0.953c0.533-0.065,1.111-0.045,1.664-0.106
			c2.322-0.272,4.59,0.023,6.882-0.31c0.575,0.008,0.983,0.008,1.392-0.128c0.413,0.001,0.616-0.06,1.029,0.068
			c4.409-0.28,8.674,0.9,13,1.55c2.783,0.862,5.468,1.77,8.016,3.464c0.885,0.59,1.521,1.331,2.208,2.102
			c0.809,0.908,1.459,1.989,1.626,3.192c0.106,0.741-0.219,1.444-0.371,2.163c-0.104,0.18-0.147,0.376-0.143,0.569
			c-0.001,0.011,0,0.023,0,0.035c0,0.006-0.001,0.012,0,0.019c-0.008,0.125,0.002,0.252,0.041,0.378
			c0.416,1.845,1.724,3.509,3.577,4.016c1.87,0.51,3.739,0.749,5.614,0.85c0.31,0.271,0.744,0.382,1.168,0.253
			c0.387-0.07,0.768-0.229,1.16-0.199c2.062,0.17,4.072-0.088,6.111-0.176c2.707-0.111,5.396,0.053,8.104-0.088
			c2.062-0.105,4.037-0.814,6.1-0.891c1.67-0.07,3.322-0.234,4.934-0.65C96.763,94.782,97.073,94.061,96.815,93.428z"/>
		<path style="fill:#DCDCDC;stroke:#000000;stroke-width:0.5;" d="M84.931,42.166c-0.182-1.815-0.741-3.54-0.862-5.354
			c-0.099-1.535-0.076-3.063-0.068-4.598c0-0.605-0.484-1.089-1.089-1.089s-1.089,0.484-1.089,1.089
			c-0.022,1.604-0.008,3.207,0.076,4.81c0.098,2.004,0.885,3.917,0.847,5.929c-0.053,3.041-1.248,5.929-3.607,8.009
			c-1.898,1.664-4.243,2.42-6.686,2.519c-3.373,0.136-6.678,0.121-10.051-0.703c-1.104-0.264-1.977-1.199-2.225-2.31
			c0.398-1.084,0.697-2.248,0.475-3.425c-0.25-1.324-0.877-2.428-1.687-3.486c-1.369-1.785-2.942-3.222-4.961-4.182
			c-1.467-0.704-2.972-1.18-4.447-1.853c-0.703-0.325-1.407-0.537-2.17-0.681c-3.305-0.635-6.33-1.384-9.589-1.641
			c-1.316-0.098-2.625,0.015-3.94-0.061c-0.34-0.015-0.597,0.03-0.96-0.022c-0.476-0.061-0.854,0.053-1.316,0.091
			c-0.236,0-0.589-0.091-0.767,0.035c-2.185,0.19-4.315,0.146-6.456,0.282c-2.806,0.272-5.074,0.635-7.615,1.233
			c-2.7,0.499-5.423,0.923-8.024,1.868c-0.227,0.083-0.4,0.257-0.627,0.341c-3.078,1.119-5.982,2.987-7.54,5.937
			c-0.234,0.56,0.03,1.195,0.583,1.429c0.56,0.234,1.195-0.03,1.429-0.583c-0.015-0.007-0.03-0.015-0.045-0.022
			c1.792-2.979,5.105-4.303,8.19-5.528c2.253-0.454,4.431-0.992,6.723-1.452c2.488-0.499,3.033-0.681,5.256-0.953
			c0.533-0.065,1.112-0.045,1.664-0.106c2.321-0.272,4.59,0.023,6.882-0.31c0.575,0.007,0.983,0.007,1.392-0.128
			c0.413,0.001,0.615-0.06,1.028,0.068c4.409-0.28,8.674,0.9,13,1.55c2.783,0.862,5.468,1.77,8.017,3.464
			c0.885,0.59,1.52,1.331,2.208,2.102c0.81,0.908,1.46,1.989,1.626,3.192c0.106,0.741-0.219,1.444-0.37,2.163
			c-0.104,0.18-0.147,0.376-0.143,0.569c-0.001,0.011,0,0.023-0.001,0.035c0,0.006,0,0.012,0,0.019
			c-0.008,0.125,0.002,0.252,0.04,0.378c0.416,1.845,1.724,3.509,3.577,4.016c3.6,0.983,7.2,0.991,10.837,0.855
			c2.042-0.083,4.069-0.499,5.907-1.528c3.214-1.8,5.596-4.772,6.224-8.447C84.771,44.487,85.051,43.36,84.931,42.166z"/>
		<path style="fill:#DCDCDC;stroke:#000000;stroke-width:0.5;" d="M59.829,48.437c-0.302,0.521-0.968,0.703-1.49,0.4
			c-0.522-0.295-0.703-0.96-0.401-1.482c0.151-0.719,0.477-1.422,0.371-2.163c-0.167-1.203-0.816-2.284-1.626-3.191
			c-0.688-0.771-1.323-1.513-2.208-2.103c-2.548-1.694-5.233-2.602-8.016-3.463c-4.326-0.65-8.591-1.83-13-1.551
			c-0.413-0.127-0.616-0.066-1.029-0.068c-0.408,0.136-0.816,0.136-1.391,0.129c-2.292,0.333-4.561,0.038-6.882,0.31
			c-0.552,0.061-1.13,0.041-1.664,0.106c-2.224,0.272-2.768,0.454-5.256,0.953c-2.292,0.459-4.47,0.998-6.723,1.452
			c-3.086,1.225-6.398,2.548-8.19,5.528c0.015,0.008,0.03,0.016,0.045,0.023c-0.234,0.552-0.87,0.817-1.43,0.583
			c-0.552-0.235-0.816-0.87-0.582-1.43c1.558-2.949,4.462-4.817,7.54-5.937c0.227-0.083,0.401-0.257,0.627-0.34
			c2.602-0.945,5.324-1.369,8.024-1.868c2.541-0.598,4.81-0.961,7.616-1.233c2.14-0.136,4.271-0.092,6.456-0.282
			c0.178-0.126,0.53-0.036,0.767-0.036c0.461-0.038,0.839-0.151,1.316-0.091c0.363,0.053,0.62,0.008,0.96,0.023
			c1.316,0.076,2.625-0.038,3.94,0.061c3.26,0.257,6.285,1.006,9.589,1.641c0.764,0.144,1.467,0.355,2.17,0.681
			c1.475,0.673,2.98,1.149,4.447,1.853c2.019,0.96,3.592,2.397,4.961,4.182c0.809,1.059,1.437,2.163,1.687,3.486
			C60.707,45.934,60.298,47.242,59.829,48.437z"/>
		<path style="fill:#DCDCDC;stroke:#000000;stroke-width:0.5;" d="M59.808,40.148c-0.302-0.522-0.968-0.703-1.49-0.4
			c-0.522,0.294-0.703,0.96-0.401,1.482c0.151,0.718,0.477,1.422,0.371,2.163c-0.166,1.202-0.817,2.284-1.625,3.191
			c-0.688,0.771-1.324,1.512-2.208,2.102c-2.549,1.694-5.233,2.602-8.017,3.464c-4.326,0.65-8.591,1.83-13,1.55
			c-0.413,0.128-0.616,0.067-1.028,0.068c-0.409-0.136-0.817-0.136-1.392-0.128c-2.292-0.333-4.561-0.038-6.882-0.31
			c-0.552-0.061-1.131-0.041-1.664-0.106c-2.224-0.272-2.768-0.454-5.256-0.953c-2.292-0.46-4.47-0.998-6.723-1.452
			c-3.085-1.225-6.398-2.548-8.19-5.528c0.015-0.007,0.03-0.015,0.045-0.022c-0.234-0.552-0.87-0.817-1.429-0.583
			c-0.552,0.234-0.817,0.87-0.583,1.429c1.558,2.95,4.462,4.818,7.54,5.937c0.227,0.083,0.401,0.257,0.627,0.34
			c2.602,0.945,5.324,1.369,8.024,1.868c2.541,0.598,4.81,0.96,7.616,1.233c2.14,0.136,4.271,0.092,6.456,0.282
			c0.178,0.126,0.53,0.035,0.767,0.035c0.461,0.038,0.839,0.151,1.316,0.091c0.363-0.053,0.62-0.007,0.96-0.022
			c1.316-0.076,2.625,0.038,3.94-0.061c3.259-0.257,6.284-1.006,9.589-1.641c0.764-0.144,1.467-0.355,2.17-0.681
			c1.475-0.673,2.979-1.149,4.447-1.853c2.019-0.96,3.592-2.397,4.961-4.182c0.809-1.059,1.437-2.163,1.687-3.486
			C60.685,42.651,60.277,41.343,59.808,40.148z"/>
		<path style="fill:#DCDCDC;stroke:#000000;stroke-width:0.5;" d="M59.808,37.446c-0.302-0.521-0.968-0.703-1.49-0.4
			c-0.522,0.295-0.703,0.96-0.401,1.482c0.151,0.719,0.477,1.422,0.371,2.163c-0.166,1.202-0.817,2.284-1.625,3.191
			c-0.688,0.771-1.324,1.513-2.208,2.103c-2.549,1.694-5.233,2.602-8.017,3.463c-4.326,0.65-8.591,1.831-13,1.55
			c-0.413,0.128-0.616,0.067-1.028,0.068c-0.409-0.136-0.817-0.136-1.392-0.128c-2.292-0.333-4.561-0.038-6.882-0.31
			c-0.552-0.061-1.131-0.041-1.664-0.106c-2.224-0.272-2.768-0.454-5.256-0.953c-2.292-0.46-4.47-0.998-6.723-1.452
			c-3.085-1.225-6.398-2.548-8.19-5.528c0.015-0.008,0.03-0.015,0.045-0.023c-0.234-0.552-0.87-0.817-1.429-0.583
			c-0.552,0.235-0.817,0.87-0.583,1.43c1.558,2.949,4.462,4.817,7.54,5.937c0.227,0.083,0.401,0.257,0.627,0.34
			c2.602,0.945,5.324,1.369,8.024,1.868c2.541,0.597,4.81,0.96,7.616,1.232c2.14,0.136,4.271,0.092,6.456,0.282
			c0.178,0.126,0.53,0.036,0.767,0.036c0.461,0.038,0.839,0.151,1.316,0.091c0.363-0.053,0.62-0.008,0.96-0.023
			c1.316-0.076,2.625,0.038,3.94-0.061c3.259-0.257,6.284-1.006,9.589-1.641c0.764-0.144,1.467-0.355,2.17-0.681
			c1.475-0.673,2.979-1.149,4.447-1.853c2.019-0.96,3.592-2.397,4.961-4.182c0.809-1.059,1.437-2.163,1.687-3.486
			C60.685,39.95,60.277,38.642,59.808,37.446z"/>
		<path style="fill:#DCDCDC;stroke:#000000;stroke-width:0.5;" d="M76.47,39.167c-0.575-0.174-1.18,0.144-1.361,0.719
			c-0.178,0.63-0.257,1.289-0.538,1.891c-1.046-0.084-2.093-0.137-3.146-0.061c0.091,0.098,0.189,0.197,0.28,0.295
			c-0.333-0.28-0.733-0.446-1.051-0.733c-1.837-1.649-2.927-3.615-4.363-5.68c-0.726-1.043-1.482-1.838-2.534-2.571
			c-1.498-1.051-3.199-0.862-4.81-0.386c-0.575,0.174-1.051,0.567-1.338,1.089l-0.068,0.205c-0.091,0.181-0.121,0.386-0.106,0.582
			l0.045,0.257c0.038,0.363,0.136,0.718,0.242,1.066c0.059,0.194,0.171,0.356,0.312,0.482c0.136,0.504,0.288,1.007,0.256,1.526
			c-1.256-1.508-2.693-2.733-4.48-3.583c-1.467-0.703-2.972-1.18-4.447-1.853c-0.703-0.326-1.406-0.537-2.17-0.681
			c-3.305-0.635-6.33-1.384-9.59-1.641c-1.315-0.098-2.624,0.015-3.94-0.061c-0.34-0.015-0.598,0.03-0.96-0.023
			c-0.477-0.061-0.854,0.053-1.316,0.091c-0.236,0-0.589-0.091-0.767,0.035c-2.185,0.19-4.315,0.146-6.456,0.283
			c-2.806,0.272-5.075,0.635-7.616,1.232c-2.7,0.5-5.422,0.923-8.024,1.868c-0.227,0.083-0.401,0.257-0.627,0.34
			c-3.078,1.119-5.982,2.987-7.54,5.937c-0.035,0.083-0.055,0.167-0.069,0.25c-0.057,0.222-0.049,0.463,0.047,0.693
			c1.558,2.95,4.462,4.818,7.54,5.937c0.227,0.083,0.401,0.257,0.627,0.34c2.602,0.945,5.324,1.369,8.024,1.868
			c2.541,0.598,4.81,0.96,7.616,1.233c2.14,0.136,4.271,0.092,6.456,0.282c0.178,0.126,0.53,0.035,0.767,0.035
			c0.461,0.038,0.839,0.151,1.316,0.091c0.363-0.053,0.62-0.007,0.96-0.022c1.316-0.076,2.625,0.038,3.94-0.061
			c3.259-0.257,6.284-1.006,9.589-1.641c0.764-0.144,1.467-0.355,2.17-0.681c1.475-0.673,2.979-1.149,4.447-1.853
			c1.808-0.86,3.256-2.104,4.523-3.636c0,0.005-0.001,0.01,0,0.015l1.77-2.88c0.148-0.374,0.277-0.756,0.355-1.168
			c0.25-1.324-0.159-2.632-0.628-3.827c-0.044-0.077-0.099-0.144-0.158-0.206c0-0.01-0.004-0.021-0.004-0.031l0.004-0.009
			c0.068,0.045,0.144,0.121,0.204,0.105c0.915-0.189,1.785-0.272,2.647,0.031c-0.083,0.007-0.167,0.007-0.25,0.015
			c1.981,1.127,2.813,3.26,4.205,5.044c0.854,1.097,1.55,2.17,2.602,3.063c0.605,0.514,1.18,1.104,2.027,1.104
			c1.233,0,2.465-0.015,3.69,0.091l0.424,0.007c0.385,0.008,0.749-0.189,0.953-0.521l0.113-0.174c0.5-0.855,0.688-1.823,0.93-2.761
			C77.37,39.954,77.044,39.349,76.47,39.167z M56.662,41.207c-0.688,0.771-1.324,1.512-2.208,2.102
			c-2.549,1.694-5.233,2.602-8.017,3.464c-4.326,0.65-8.591,1.83-13,1.55c-0.413,0.128-0.616,0.067-1.028,0.068
			c-0.409-0.136-0.817-0.136-1.392-0.129c-2.292-0.333-4.561-0.038-6.882-0.31c-0.552-0.061-1.131-0.041-1.664-0.106
			c-2.224-0.272-2.768-0.454-5.256-0.953c-2.292-0.46-4.47-0.999-6.723-1.452c-2.95-1.171-6.091-2.449-7.93-5.161
			c1.835-2.733,4.99-4.015,7.951-5.191c2.253-0.454,4.431-0.992,6.723-1.452c2.488-0.5,3.032-0.681,5.256-0.953
			c0.533-0.065,1.112-0.045,1.664-0.106c2.322-0.272,4.591,0.023,6.882-0.31c0.575,0.008,0.983,0.008,1.391-0.128
			c0.413,0.001,0.616-0.06,1.029,0.068c4.409-0.28,8.674,0.9,13,1.55c2.783,0.862,5.468,1.77,8.016,3.464
			c0.885,0.59,1.521,1.331,2.208,2.103c0.259,0.291,0.499,0.6,0.714,0.925C57.177,40.586,56.929,40.907,56.662,41.207z"/>
		<line style="fill:#DCDCDC;stroke:#000000;stroke-width:0.5;" x1="57.305" y1="40.204" x2="58.29" y2="37.849"/>
		<path style="fill:#DCDCDC;stroke:#000000;stroke-width:0.5;" d="M61.351,89.324c-0.303,0.522-0.968,0.704-1.49,0.401
			c-0.522-0.295-0.704-0.96-0.401-1.482c0.151-0.718,0.477-1.422,0.371-2.163c-0.167-1.202-0.817-2.284-1.626-3.191
			c-0.688-0.771-1.324-1.512-2.208-2.102c-2.548-1.694-5.233-2.602-8.016-3.464c-4.326-0.65-8.591-1.83-13-1.55
			c-0.413-0.127-0.616-0.066-1.029-0.068c-0.408,0.136-0.816,0.136-1.392,0.128c-2.292,0.333-4.56,0.038-6.882,0.31
			c-0.552,0.061-1.131,0.041-1.664,0.106c-2.224,0.272-2.768,0.454-5.256,0.953c-2.292,0.46-4.469,0.999-6.723,1.452
			c-3.085,1.225-6.398,2.548-8.19,5.528c0.016,0.007,0.031,0.015,0.045,0.022c-0.234,0.552-0.87,0.817-1.429,0.583
			c-0.552-0.234-0.816-0.87-0.582-1.429c1.558-2.95,4.462-4.817,7.54-5.937c0.227-0.083,0.401-0.257,0.628-0.34
			c2.602-0.945,5.324-1.369,8.024-1.868c2.541-0.598,4.81-0.96,7.615-1.233c2.141-0.136,4.271-0.092,6.456-0.282
			c0.178-0.126,0.531-0.035,0.767-0.035c0.461-0.038,0.839-0.151,1.316-0.091c0.363,0.053,0.62,0.008,0.96,0.022
			c1.316,0.076,2.624-0.038,3.94,0.061c3.26,0.257,6.285,1.006,9.589,1.641c0.764,0.144,1.467,0.355,2.17,0.681
			c1.475,0.673,2.98,1.149,4.447,1.853c2.02,0.96,3.592,2.397,4.961,4.182c0.809,1.059,1.437,2.163,1.687,3.486
			C62.228,86.821,61.819,88.129,61.351,89.324z"/>
		<path style="fill:#DCDCDC;stroke:#000000;stroke-width:0.5;" d="M58.205,88.239c0.104,0.116,0.205,0.236,0.303,0.358l1.606-1.458
			c-1.328-1.68-2.85-3.04-4.783-3.959c-1.467-0.703-2.972-1.18-4.447-1.853c-0.703-0.325-1.406-0.537-2.17-0.68
			c-3.305-0.635-6.33-1.384-9.589-1.642c-1.316-0.098-2.624,0.016-3.94-0.06c-0.34-0.015-0.598,0.03-0.96-0.023
			c-0.477-0.061-0.854,0.053-1.316,0.091c-0.236,0-0.589-0.091-0.767,0.036c-2.185,0.19-4.315,0.146-6.456,0.282
			c-2.805,0.272-5.074,0.635-7.615,1.232c-2.7,0.5-5.422,0.923-8.024,1.868c-0.227,0.083-0.401,0.257-0.628,0.34
			c-1.767,0.643-3.468,1.542-4.898,2.742l1.437,1.654c1.763-1.428,3.968-2.326,6.078-3.164c2.254-0.454,4.432-0.992,6.723-1.452
			c2.488-0.5,3.033-0.681,5.256-0.953c0.533-0.065,1.111-0.045,1.664-0.106c2.322-0.272,4.59,0.023,6.882-0.31
			c0.575,0.008,0.983,0.008,1.392-0.128c0.413,0.001,0.616-0.06,1.029,0.068c4.409-0.28,8.674,0.9,13,1.55
			c2.783,0.862,5.468,1.77,8.016,3.464C56.881,86.727,57.517,87.468,58.205,88.239z"/>
		<path style="fill:#DCDCDC;stroke:#000000;stroke-width:0.5;" d="M61.351,81.298c-0.303,0.521-0.968,0.703-1.49,0.4
			c-0.522-0.295-0.704-0.96-0.401-1.482c0.151-0.719,0.477-1.422,0.371-2.163c-0.167-1.203-0.817-2.284-1.626-3.191
			c-0.688-0.771-1.324-1.513-2.208-2.103c-2.548-1.694-5.233-2.602-8.016-3.464c-4.326-0.65-8.591-1.83-13-1.55
			c-0.413-0.127-0.616-0.066-1.029-0.068c-0.408,0.136-0.816,0.136-1.392,0.128c-2.292,0.333-4.56,0.038-6.882,0.31
			c-0.552,0.061-1.131,0.041-1.664,0.106c-2.224,0.272-2.768,0.454-5.256,0.953c-2.292,0.459-4.469,0.998-6.723,1.452
			c-3.085,1.225-6.398,2.549-8.19,5.528c0.016,0.008,0.031,0.015,0.045,0.023C3.655,76.73,3.02,76.995,2.46,76.76
			c-0.552-0.234-0.816-0.87-0.582-1.429c1.558-2.949,4.462-4.817,7.54-5.937c0.227-0.083,0.401-0.257,0.628-0.34
			c2.602-0.945,5.324-1.369,8.024-1.868c2.541-0.597,4.81-0.96,7.615-1.232c2.141-0.136,4.271-0.092,6.456-0.282
			c0.178-0.126,0.531-0.036,0.767-0.036c0.461-0.038,0.839-0.151,1.316-0.091c0.363,0.053,0.62,0.008,0.96,0.023
			c1.316,0.076,2.624-0.038,3.94,0.061c3.26,0.257,6.285,1.006,9.589,1.641c0.764,0.144,1.467,0.355,2.17,0.68
			c1.475,0.673,2.98,1.15,4.447,1.853c2.02,0.96,3.592,2.397,4.961,4.182c0.809,1.059,1.437,2.163,1.687,3.486
			C62.228,78.795,61.819,80.103,61.351,81.298z"/>
		<path style="fill:#DCDCDC;stroke:#000000;stroke-width:0.5;" d="M61.351,83.974c-0.303,0.521-0.968,0.703-1.49,0.401
			c-0.522-0.295-0.704-0.961-0.401-1.482c0.151-0.719,0.477-1.422,0.371-2.163c-0.167-1.203-0.817-2.284-1.626-3.191
			c-0.688-0.771-1.324-1.513-2.208-2.103c-2.548-1.694-5.233-2.602-8.016-3.463c-4.326-0.65-8.591-1.83-13-1.55
			c-0.413-0.128-0.616-0.067-1.029-0.068c-0.408,0.136-0.816,0.136-1.392,0.128c-2.292,0.333-4.56,0.038-6.882,0.311
			c-0.552,0.06-1.131,0.041-1.664,0.106c-2.224,0.272-2.768,0.454-5.256,0.953c-2.292,0.459-4.469,0.998-6.723,1.452
			c-3.085,1.225-6.398,2.548-8.19,5.528c0.016,0.008,0.031,0.015,0.045,0.023c-0.234,0.552-0.87,0.817-1.429,0.582
			c-0.552-0.234-0.816-0.87-0.582-1.429c1.558-2.949,4.462-4.817,7.54-5.937c0.227-0.083,0.401-0.257,0.628-0.34
			c2.602-0.945,5.324-1.369,8.024-1.868c2.541-0.598,4.81-0.96,7.615-1.233c2.141-0.136,4.271-0.092,6.456-0.282
			c0.178-0.126,0.531-0.036,0.767-0.036c0.461-0.038,0.839-0.151,1.316-0.09c0.363,0.053,0.62,0.007,0.96,0.022
			c1.316,0.076,2.624-0.038,3.94,0.061c3.26,0.257,6.285,1.006,9.589,1.641c0.764,0.144,1.467,0.355,2.17,0.681
			c1.475,0.673,2.98,1.149,4.447,1.853c2.02,0.96,3.592,2.397,4.961,4.183c0.809,1.059,1.437,2.163,1.687,3.486
			C62.228,81.47,61.819,82.778,61.351,83.974z"/>
		<path style="fill:#DCDCDC;stroke:#000000;stroke-width:0.5;" d="M61.351,86.649c-0.303,0.522-0.968,0.703-1.49,0.401
			c-0.522-0.295-0.704-0.96-0.401-1.482c0.151-0.718,0.477-1.422,0.371-2.163c-0.167-1.202-0.817-2.284-1.626-3.191
			c-0.688-0.771-1.324-1.512-2.208-2.102c-2.548-1.694-5.233-2.602-8.016-3.464c-4.326-0.65-8.591-1.83-13-1.55
			c-0.413-0.128-0.616-0.067-1.029-0.068c-0.408,0.136-0.816,0.136-1.392,0.129c-2.292,0.333-4.56,0.038-6.882,0.31
			c-0.552,0.061-1.131,0.041-1.664,0.105c-2.224,0.272-2.768,0.454-5.256,0.953c-2.292,0.46-4.469,0.999-6.723,1.452
			c-3.085,1.225-6.398,2.548-8.19,5.528c0.016,0.007,0.031,0.015,0.045,0.022c-0.234,0.552-0.87,0.817-1.429,0.583
			c-0.552-0.234-0.816-0.87-0.582-1.429c1.558-2.95,4.462-4.817,7.54-5.937c0.227-0.083,0.401-0.257,0.628-0.34
			c2.602-0.945,5.324-1.369,8.024-1.868c2.541-0.598,4.81-0.96,7.615-1.233c2.141-0.136,4.271-0.092,6.456-0.282
			c0.178-0.126,0.531-0.035,0.767-0.035c0.461-0.038,0.839-0.151,1.316-0.091c0.363,0.053,0.62,0.007,0.96,0.022
			c1.316,0.076,2.624-0.038,3.94,0.061c3.26,0.257,6.285,1.006,9.589,1.641c0.764,0.144,1.467,0.355,2.17,0.681
			c1.475,0.673,2.98,1.149,4.447,1.853c2.02,0.96,3.592,2.397,4.961,4.182c0.809,1.059,1.437,2.163,1.687,3.487
			C62.228,84.146,61.819,85.454,61.351,86.649z"/>
		<path style="fill:#DCDCDC;stroke:#000000;stroke-width:0.5;" d="M61.329,81.009c-0.302-0.522-0.968-0.703-1.49-0.401
			c-0.522,0.295-0.703,0.96-0.401,1.482c0.151,0.718,0.477,1.422,0.371,2.163c-0.166,1.202-0.817,2.284-1.626,3.191
			c-0.688,0.771-1.323,1.512-2.208,2.102c-2.548,1.694-5.233,2.602-8.016,3.464c-4.326,0.65-8.591,1.83-13,1.55
			c-0.413,0.128-0.616,0.066-1.029,0.068c-0.408-0.136-0.816-0.136-1.391-0.128c-2.292-0.333-4.561-0.038-6.882-0.31
			c-0.552-0.061-1.131-0.041-1.664-0.106c-2.224-0.272-2.768-0.454-5.256-0.953c-2.292-0.46-4.469-0.999-6.723-1.452
			c-3.085-1.225-6.398-2.549-8.19-5.528c0.015-0.007,0.03-0.015,0.045-0.022c-0.234-0.552-0.87-0.817-1.43-0.583
			c-0.552,0.234-0.816,0.87-0.582,1.429c1.558,2.95,4.462,4.817,7.54,5.937c0.227,0.083,0.4,0.257,0.627,0.34
			c2.602,0.945,5.324,1.369,8.024,1.868c2.541,0.597,4.81,0.96,7.616,1.233c2.14,0.136,4.271,0.092,6.455,0.282
			c0.178,0.126,0.531,0.035,0.767,0.035c0.461,0.038,0.839,0.151,1.316,0.091c0.363-0.053,0.62-0.007,0.96-0.022
			c1.316-0.076,2.624,0.038,3.94-0.061c3.26-0.257,6.285-1.006,9.589-1.641c0.764-0.144,1.467-0.355,2.17-0.681
			c1.475-0.673,2.98-1.149,4.447-1.853c2.019-0.96,3.592-2.397,4.961-4.182c0.809-1.059,1.437-2.163,1.687-3.486
			S61.798,82.204,61.329,81.009z"/>
		<path style="fill:#DCDCDC;stroke:#000000;stroke-width:0.5;" d="M61.329,78.334c-0.302-0.522-0.968-0.704-1.49-0.401
			c-0.522,0.295-0.703,0.96-0.401,1.482c0.151,0.718,0.477,1.422,0.371,2.163c-0.166,1.203-0.817,2.284-1.626,3.192
			c-0.688,0.771-1.323,1.512-2.208,2.102c-2.548,1.694-5.233,2.602-8.016,3.464c-4.326,0.65-8.591,1.83-13,1.55
			c-0.413,0.127-0.616,0.066-1.029,0.068c-0.408-0.136-0.816-0.136-1.391-0.128c-2.292-0.333-4.561-0.038-6.882-0.31
			c-0.552-0.061-1.131-0.041-1.664-0.106c-2.224-0.272-2.768-0.454-5.256-0.953c-2.292-0.459-4.469-0.998-6.723-1.452
			c-3.085-1.225-6.398-2.549-8.19-5.528c0.015-0.008,0.03-0.015,0.045-0.022c-0.234-0.552-0.87-0.817-1.43-0.583
			c-0.552,0.234-0.816,0.87-0.582,1.429c1.558,2.949,4.462,4.817,7.54,5.937c0.227,0.083,0.4,0.257,0.627,0.34
			c2.602,0.945,5.324,1.369,8.024,1.868c2.541,0.597,4.81,0.96,7.616,1.233c2.14,0.136,4.271,0.092,6.455,0.282
			c0.178,0.126,0.531,0.035,0.767,0.035c0.461,0.038,0.839,0.151,1.316,0.091c0.363-0.053,0.62-0.008,0.96-0.023
			c1.316-0.076,2.624,0.038,3.94-0.06c3.26-0.257,6.285-1.006,9.589-1.641c0.764-0.144,1.467-0.355,2.17-0.681
			c1.475-0.673,2.98-1.149,4.447-1.853c2.019-0.96,3.592-2.397,4.961-4.182c0.809-1.059,1.437-2.163,1.687-3.486
			S61.798,79.529,61.329,78.334z"/>
		<path style="fill:#DCDCDC;stroke:#000000;stroke-width:0.5;" d="M61.329,75.659c-0.302-0.522-0.968-0.704-1.49-0.401
			c-0.522,0.295-0.703,0.96-0.401,1.482c0.151,0.718,0.477,1.421,0.371,2.163c-0.166,1.203-0.817,2.284-1.626,3.191
			c-0.688,0.771-1.323,1.513-2.208,2.103c-2.548,1.694-5.233,2.602-8.016,3.464c-4.326,0.65-8.591,1.83-13,1.55
			c-0.413,0.127-0.616,0.066-1.029,0.068c-0.408-0.136-0.816-0.136-1.391-0.128c-2.292-0.333-4.561-0.038-6.882-0.31
			c-0.552-0.061-1.131-0.041-1.664-0.106c-2.224-0.272-2.768-0.454-5.256-0.953c-2.292-0.459-4.469-0.998-6.723-1.452
			c-3.085-1.225-6.398-2.549-8.19-5.528c0.015-0.008,0.03-0.015,0.045-0.023c-0.234-0.552-0.87-0.816-1.43-0.582
			c-0.552,0.234-0.816,0.87-0.582,1.429c1.558,2.949,4.462,4.817,7.54,5.937c0.227,0.083,0.4,0.257,0.627,0.34
			c2.602,0.945,5.324,1.369,8.024,1.868c2.541,0.597,4.81,0.96,7.616,1.232c2.14,0.136,4.271,0.092,6.455,0.283
			c0.178,0.126,0.531,0.035,0.767,0.035c0.461,0.038,0.839,0.151,1.316,0.091c0.363-0.053,0.62-0.008,0.96-0.023
			c1.316-0.076,2.624,0.038,3.94-0.061c3.26-0.257,6.285-1.006,9.589-1.641c0.764-0.144,1.467-0.355,2.17-0.681
			c1.475-0.673,2.98-1.149,4.447-1.853c2.019-0.96,3.592-2.397,4.961-4.182c0.809-1.059,1.437-2.163,1.687-3.486
			C62.207,78.162,61.798,76.854,61.329,75.659z"/>
		<path style="fill:#DCDCDC;stroke:#000000;stroke-width:0.5;" d="M61.329,72.983c-0.302-0.522-0.968-0.704-1.49-0.401
			c-0.522,0.295-0.703,0.96-0.401,1.482c0.151,0.719,0.477,1.422,0.371,2.163c-0.166,1.203-0.817,2.284-1.626,3.191
			c-0.688,0.771-1.323,1.513-2.208,2.103c-2.548,1.694-5.233,2.602-8.016,3.463c-4.326,0.65-8.591,1.831-13,1.55
			c-0.413,0.128-0.616,0.067-1.029,0.068c-0.408-0.136-0.816-0.136-1.391-0.128c-2.292-0.333-4.561-0.038-6.882-0.311
			c-0.552-0.06-1.131-0.041-1.664-0.105c-2.224-0.272-2.768-0.454-5.256-0.953c-2.292-0.459-4.469-0.998-6.723-1.452
			c-3.085-1.225-6.398-2.548-8.19-5.528c0.015-0.007,0.03-0.015,0.045-0.022c-0.234-0.552-0.87-0.817-1.43-0.582
			c-0.552,0.234-0.816,0.87-0.582,1.429c1.558,2.949,4.462,4.817,7.54,5.937c0.227,0.083,0.4,0.257,0.627,0.34
			c2.602,0.945,5.324,1.369,8.024,1.868c2.541,0.597,4.81,0.96,7.616,1.232c2.14,0.136,4.271,0.092,6.455,0.282
			c0.178,0.126,0.531,0.036,0.767,0.036c0.461,0.038,0.839,0.151,1.316,0.091c0.363-0.053,0.62-0.008,0.96-0.023
			c1.316-0.076,2.624,0.038,3.94-0.061c3.26-0.257,6.285-1.006,9.589-1.641c0.764-0.144,1.467-0.355,2.17-0.681
			c1.475-0.673,2.98-1.149,4.447-1.853c2.019-0.96,3.592-2.397,4.961-4.182c0.809-1.059,1.437-2.163,1.687-3.486
			C62.207,75.486,61.798,74.178,61.329,72.983z"/>
		<path style="fill:#DCDCDC;stroke:#000000;stroke-width:0.5;" d="M61.329,70.308c-0.302-0.521-0.968-0.703-1.49-0.4
			c-0.522,0.294-0.703,0.96-0.401,1.482c0.151,0.719,0.477,1.422,0.371,2.163c-0.166,1.202-0.817,2.284-1.626,3.191
			c-0.688,0.771-1.323,1.513-2.208,2.103c-2.548,1.694-5.233,2.602-8.016,3.463c-4.326,0.65-8.591,1.83-13,1.55
			c-0.413,0.128-0.616,0.067-1.029,0.068c-0.408-0.136-0.816-0.136-1.391-0.129c-2.292-0.333-4.561-0.038-6.882-0.31
			c-0.552-0.06-1.131-0.041-1.664-0.105c-2.224-0.272-2.768-0.454-5.256-0.953c-2.292-0.46-4.469-0.998-6.723-1.452
			c-3.085-1.225-6.398-2.548-8.19-5.528c0.015-0.007,0.03-0.015,0.045-0.022c-0.234-0.552-0.87-0.817-1.43-0.583
			c-0.552,0.234-0.816,0.87-0.582,1.43c1.558,2.949,4.462,4.817,7.54,5.937c0.227,0.083,0.4,0.257,0.627,0.34
			c2.602,0.945,5.324,1.369,8.024,1.868c2.541,0.598,4.81,0.96,7.616,1.233c2.14,0.136,4.271,0.092,6.455,0.282
			c0.178,0.126,0.531,0.036,0.767,0.036c0.461,0.038,0.839,0.151,1.316,0.09c0.363-0.053,0.62-0.007,0.96-0.022
			c1.316-0.076,2.624,0.038,3.94-0.061c3.26-0.257,6.285-1.006,9.589-1.641c0.764-0.144,1.467-0.355,2.17-0.681
			c1.475-0.673,2.98-1.149,4.447-1.853c2.019-0.961,3.592-2.397,4.961-4.182c0.809-1.059,1.437-2.163,1.687-3.487
			C62.207,72.811,61.798,71.503,61.329,70.308z"/>
		<path style="fill:#DCDCDC;stroke:#000000;stroke-width:0.5;" d="M86.91,72.915c-1.02-0.258-2.039-0.299-3.1-0.521
			c-1.641-0.352-3.158-0.65-4.793-0.609c-1.477,0.035-2.865-0.533-4.195-1.172c-1.629-0.791-3.346-1.33-4.646-2.701
			c-0.756-0.791-1.922-0.727-2.859-1.277c-0.826-0.492-1.523-1.119-2.49-1.254c0.023-0.006,0.047-0.012,0.07-0.018
			c-0.255-0.102-0.524-0.109-0.772-0.044c-1.174-0.353-2.417-0.169-3.612,0.185c-0.575,0.174-1.051,0.567-1.338,1.089l-0.068,0.204
			c-0.091,0.182-0.121,0.386-0.106,0.583l0.045,0.257c0.038,0.363,0.136,0.718,0.242,1.066c0.059,0.195,0.171,0.357,0.312,0.483
			c0.136,0.504,0.288,1.007,0.256,1.526c-1.256-1.508-2.693-2.733-4.481-3.583c-1.467-0.703-2.972-1.18-4.447-1.853
			c-0.703-0.325-1.406-0.537-2.17-0.68c-3.305-0.635-6.33-1.384-9.589-1.641c-1.316-0.099-2.624,0.015-3.94-0.061
			c-0.34-0.015-0.598,0.03-0.96-0.022c-0.477-0.061-0.854,0.053-1.316,0.091c-0.236,0-0.589-0.091-0.767,0.035
			c-2.186,0.19-4.315,0.146-6.456,0.283c-2.806,0.272-5.075,0.635-7.616,1.232c-2.7,0.5-5.422,0.923-8.024,1.868
			c-0.227,0.083-0.401,0.257-0.627,0.34c-3.078,1.119-5.982,2.987-7.54,5.937c-0.035,0.083-0.055,0.167-0.069,0.25
			C1.796,73.128,1.804,73.37,1.9,73.599c1.558,2.95,4.462,4.817,7.54,5.937c0.227,0.083,0.4,0.257,0.627,0.34
			c2.602,0.945,5.324,1.369,8.024,1.868c2.541,0.598,4.81,0.96,7.616,1.233c2.14,0.136,4.271,0.092,6.456,0.282
			c0.178,0.126,0.53,0.035,0.767,0.035c0.461,0.038,0.839,0.151,1.316,0.091c0.363-0.053,0.62-0.007,0.96-0.022
			c1.316-0.076,2.624,0.038,3.94-0.061c3.259-0.257,6.284-1.006,9.589-1.641c0.764-0.144,1.467-0.355,2.171-0.681
			c1.475-0.673,2.979-1.149,4.447-1.853c1.808-0.86,3.256-2.104,4.522-3.635c0,0.005,0,0.01,0,0.015l1.77-2.88
			c0.148-0.373,0.277-0.756,0.355-1.168c0.25-1.323-0.159-2.631-0.628-3.827c-0.044-0.077-0.099-0.144-0.158-0.206
			c0-0.011-0.004-0.021-0.004-0.031l0.004-0.01c0.068,0.045,0.144,0.121,0.204,0.106c0.743-0.153,1.456-0.225,2.16-0.089
			c0.11,0.106,0.241,0.195,0.391,0.256c0.023,0.011,0.048,0.017,0.071,0.027c0.275,0.179,0.531,0.375,0.767,0.588v-0.338
			c0.123,0.028,0.245,0.062,0.369,0.081c0.715,1.096,2.232,1.254,3.387,1.688c1.295,1.617,3.287,2.227,5.104,3.105
			c1.5,0.727,3.029,1.254,4.699,1.441c0.955,0.111,1.881-0.105,2.836,0.117c1.664,0.387,3.24,0.615,4.869,0.879
			c0.645,0.229,1.354-0.105,1.582-0.75C87.888,73.858,87.554,73.149,86.91,72.915z M58.227,74.068
			c-0.688,0.771-1.323,1.512-2.208,2.102c-2.549,1.694-5.233,2.602-8.017,3.464c-4.326,0.65-8.591,1.83-13,1.55
			c-0.413,0.128-0.616,0.067-1.028,0.068c-0.409-0.136-0.817-0.136-1.392-0.128c-2.292-0.333-4.561-0.038-6.882-0.31
			c-0.552-0.061-1.131-0.041-1.664-0.106c-2.224-0.272-2.768-0.454-5.256-0.953c-2.292-0.46-4.47-0.999-6.723-1.452
			c-2.95-1.171-6.091-2.449-7.93-5.161c1.835-2.733,4.99-4.015,7.951-5.191c2.254-0.454,4.432-0.992,6.723-1.452
			c2.488-0.5,3.033-0.681,5.256-0.953c0.533-0.065,1.111-0.045,1.664-0.106c2.322-0.272,4.59,0.023,6.882-0.31
			c0.575,0.008,0.983,0.008,1.391-0.128c0.413,0.001,0.616-0.06,1.029,0.068c4.409-0.28,8.674,0.9,13,1.55
			c2.783,0.862,5.468,1.77,8.016,3.464c0.885,0.59,1.521,1.331,2.208,2.103c0.259,0.29,0.499,0.6,0.714,0.924
			C58.741,73.448,58.494,73.768,58.227,74.068z"/>
		<line style="fill:#DCDCDC;stroke:#000000;stroke-width:0.5;" x1="58.826" y1="73.065" x2="59.812" y2="70.71"/>
		<g>
			<text transform="matrix(1 0 0 1 97.9521 73.6353)"><tspan x="0" y="0" style="font-family:Liberation Sans; font-size:7.650000;">input &#x2014;</tspan></text>
			<text transform="matrix(1 0 0 1 97.9521 84.6353)"><tspan x="0" y="0" style="font-family:Liberation Sans; font-size:7.650000;">high voltage</tspan></text>
			<text transform="matrix(1 0 0 1 97.9521 95.6353)"><tspan x="0" y="0" style="font-family:Liberation Sans; font-size:7.650000;">low current</tspan></text>
		</g>
		<g>
			<text transform="matrix(1 0 0 1 79.2021 24.8853)"><tspan x="0" y="0" style="font-family:Liberation Sans; font-size:7.650000;"> </tspan></text>
		</g>
		<g>
			<text transform="matrix(1 0 0 1 71.5732 9)"><tspan x="0" y="0" style="font-family:Liberation Sans; font-size:7.650000;">output &#x2014;</tspan></text>
			<text transform="matrix(1 0 0 1 71.5732 20)"><tspan x="0" y="0" style="font-family:Liberation Sans; font-size:7.650000;">low voltage</tspan></text>
			<text transform="matrix(1 0 0 1 71.5732 31)"><tspan x="0" y="0" style="font-family:Liberation Sans; font-size:7.650000;">high current</tspan></text>
		</g>
	</g>
</svg>
