<?xml version="1.0" encoding="iso-8859-1"?>
<!-- Generator: Adobe Illustrator 11 Build 196, SVG Export Plug-In . SVG Version: 6.0.0 Build 78)  -->
<!DOCTYPE svg PUBLIC "-//W3C//DTD SVG 1.0//EN"    "http://www.w3.org/TR/2001/REC-SVG-20010904/DTD/svg10.dtd" [
	<!ENTITY ns_flows "http://ns.adobe.com/Flows/1.0/">
	<!ENTITY ns_svg "http://www.w3.org/2000/svg">
	<!ENTITY ns_xlink "http://www.w3.org/1999/xlink">
]>
<svg
	 width="129.395" height="72.103" viewBox="0 0 129.395 72.103" style="overflow:visible;enable-background:new 0 0 129.395 72.103"
	 xml:space="preserve">
	<metadata>
<?xpacket begin='﻿' id='W5M0MpCehiHzreSzNTczkc9d'?><x:xmpmeta xmlns:x='adobe:ns:meta/' x:xmptk='XMP toolkit 3.0-29, framework 1.6'>
<rdf:RDF xmlns:rdf='http://www.w3.org/1999/02/22-rdf-syntax-ns#' xmlns:iX='http://ns.adobe.com/iX/1.0/'>

 <rdf:Description rdf:about=''
  xmlns:pdf='http://ns.adobe.com/pdf/1.3/'>
 </rdf:Description>

 <rdf:Description rdf:about=''
  xmlns:tiff='http://ns.adobe.com/tiff/1.0/'>
 </rdf:Description>

 <rdf:Description rdf:about=''
  xmlns:xap='http://ns.adobe.com/xap/1.0/'
  xmlns:xapGImg='http://ns.adobe.com/xap/1.0/g/img/'>
  <xap:CreateDate>2006-07-17T15:04:39Z</xap:CreateDate>
  <xap:ModifyDate>2006-07-17T15:04:39Z</xap:ModifyDate>
  <xap:CreatorTool>Illustrator</xap:CreatorTool>
  <xap:Thumbnails>
   <rdf:Alt>
    <rdf:li rdf:parseType='Resource'>
     <xapGImg:format>JPEG</xapGImg:format>
     <xapGImg:width>256</xapGImg:width>
     <xapGImg:height>144</xapGImg:height>
     <xapGImg:image>/9j/4AAQSkZJRgABAgEASABIAAD/7QAsUGhvdG9zaG9wIDMuMAA4QklNA+0AAAAAABAASAAAAAEA&#xA;AQBIAAAAAQAB/+4ADkFkb2JlAGTAAAAAAf/bAIQABgQEBAUEBgUFBgkGBQYJCwgGBggLDAoKCwoK&#xA;DBAMDAwMDAwQDA4PEA8ODBMTFBQTExwbGxscHx8fHx8fHx8fHwEHBwcNDA0YEBAYGhURFRofHx8f&#xA;Hx8fHx8fHx8fHx8fHx8fHx8fHx8fHx8fHx8fHx8fHx8fHx8fHx8fHx8fHx8f/8AAEQgAkAEAAwER&#xA;AAIRAQMRAf/EAaIAAAAHAQEBAQEAAAAAAAAAAAQFAwIGAQAHCAkKCwEAAgIDAQEBAQEAAAAAAAAA&#xA;AQACAwQFBgcICQoLEAACAQMDAgQCBgcDBAIGAnMBAgMRBAAFIRIxQVEGE2EicYEUMpGhBxWxQiPB&#xA;UtHhMxZi8CRygvElQzRTkqKyY3PCNUQnk6OzNhdUZHTD0uIIJoMJChgZhJRFRqS0VtNVKBry4/PE&#xA;1OT0ZXWFlaW1xdXl9WZ2hpamtsbW5vY3R1dnd4eXp7fH1+f3OEhYaHiImKi4yNjo+Ck5SVlpeYmZ&#xA;qbnJ2en5KjpKWmp6ipqqusra6voRAAICAQIDBQUEBQYECAMDbQEAAhEDBCESMUEFURNhIgZxgZEy&#xA;obHwFMHR4SNCFVJicvEzJDRDghaSUyWiY7LCB3PSNeJEgxdUkwgJChgZJjZFGidkdFU38qOzwygp&#xA;0+PzhJSktMTU5PRldYWVpbXF1eX1RlZmdoaWprbG1ub2R1dnd4eXp7fH1+f3OEhYaHiImKi4yNjo&#xA;+DlJWWl5iZmpucnZ6fkqOkpaanqKmqq6ytrq+v/aAAwDAQACEQMRAD8A9U4q7FXYqxDV/OmrnzNc&#xA;eVtA0gXWrW9vHdzXWoTraWYhmYqrxlRNPPxZSG4RcQdiwrira+WPOuofFrXmqS2U7mz0O2itI6fy&#xA;tNc/XJ2/1kZPo6Yq2Pyu8oPvfRXmqN+02o6hfXgP+wnmdAPYKB7YquH5T/ld+15Q0aRu7y2FtI5+&#xA;bujMfpOKtH8p/wAtR/c+W7C0PUGzhW1INKEj0PTpUdcVab8ubSDfR9c1rSXG49K/lvEBrXaLUfrs&#xA;Q+QWmKrDF+aGk0aKfT/NFqtS0UyNpl6R/kyx+vbSN7GOMe+KorSfP+i3moJpN/HPoetybR6XqaCG&#xA;SU/8u8qs8Fx/zxkanemKsmxV2KuxV2KuxV2KuxV2KuxVjXm3zjLoV7pemWmmTalqmtPLFp6CSO3t&#xA;vUhT1GWa4lPwkoCVVFd2ANFoDRVC/ob8xtT+LUtft9Dhav8Aomi26zTAHsby+WRW+YtUxVcPyz0C&#xA;XfU7vVNWk/aN5qV4YzvX/eeKSK3H0R4q2v5TflhT955U0q4IAAa4s4Z2FP8AKlVzirm/Kb8safu/&#xA;Kul25IILW1pDbtv/AJUKodu3h2xVo/lpoUPxaZe6rpLj7P1TUrz0x/0bzSTW/wB8eKrH0n8ytM+L&#xA;TNctddgX/j01mAW87U6AXliqIv02rYq3D+YtrZzLbebNPn8s3DMES5uisunyMTQCO/irCvI/ZWb0&#xA;3P8ALirLgQwBBqDuCOhGKt4q7FXYq7FXYqw69893Wo3s2leSrJdZvIGMV5qkrmPS7SQbMkk6hjNK&#xA;veKEMR0cp1xVLtR/LnzJcPD5hk8xS3fnXTgz6VKUW202MOQZbX6rHyYwThAjmSSRxsytVRirKfKn&#xA;ma28w6ULyOJ7W6idrfUdPlp61rdR7SwSU7qejDZlow2IxVOcVdirsVdirsVQWsaLpGtafJp2r2cN&#xA;/Yy/3lvcIsiEjoaMDQjseoxViUlv5m8k1ns2ufMXlNBWawlZp9TsUHV7aRqvdxKOsUhMoH2GfZMV&#xA;ZfpWq6bq2nW+pabcJd2N0gkguIzVWU/xB2IO4OxxVF4q7FXYq7FXYq7FWMa956s7HUf0JpVrJrnm&#xA;QqH/AEVaFR6KN0ku52/d20f+ueTfsKx2xVKL/wDL/wAweabavnHWnh4sJrPS9F/0eC1njPKGb6w4&#xA;NxPLCwDKx4JX/deKpt5M8xajctc6B5g4J5n0gL9bKDhHdQOSIb6Bf5JeJ5KPsOGXwJVZRirsVdir&#xA;sVdiqyaGGeJ4Zo1lhkUrJG4DKykUIYHYg4qwqTyhrHlYm78jMrWA+KfylcyFbRhWp+oyNy+pyeCf&#xA;3J/lX7QVZD5Z8z6Z5hsGurP1IpYXMN7Y3CGK5tp1ALQzxHdHFQfAijKSpBxVN8VdirRIAqdgOpxV&#xA;gJnvPzEkdLK5ks/IcbNFNdwMY59WZCVdIZFIaK0VhxZ1+KXcLRN3VZvYWFjp9nDY2FvHa2dugjgt&#xA;4VCRoi7BVVaAAYqiMVYX5r0+90HVT520S3e4IRYvMulwir3lnHULPEo+1c2oJK93SqdeFFWWafqF&#xA;lqNhb39jMlzZXcazW1xGeSPG45KynwIOKojFXYq7FXYq7FXYqwTXLeTyTqk3mjT1P+GryTn5p05A&#xA;SsLN11SFR9kp/wAfKqPiT959pTyVZyjo6K6MGRgCrA1BB6EHFV2KuxV2KuxVhOu6/rWua3L5V8qS&#xA;/VvqpA8w+YeIdbJWHIW1sGqr3jqQdwViUhmBJVcVZD5c8s6N5d04WGlQelGWMk8rEvNPM325p5Wq&#xA;8sjd2Y1xVNcVY15z8tXmox22raLIlt5n0gtLpc71EcqtT1bS4puYLgKFb+U8XG6jFUd5X8yWfmHS&#xA;Vv4Ee3mR2gvrGWgmtbqI0lt5QOjofoIowqCDiqb4q7FXYq7FXYq7FWJebfL2oRXY81eWkA8xWiBb&#xA;m0qEj1K1Qkm1mrsHFSYJOqNt9lmBVT3QNc0/XdHtdW09ma0u05pzUo6kEq8cindXRwVdT0YEYqmG&#xA;KsK86vPr+rWvka0kaK3vITeeZLiMlXj00NwW3VhQq17IGjrWvprJTemKsxt7eC2t4ra3jWG3hRY4&#xA;YUAVERBRVVRsAAKAYqqYq7FXYqwOv+A9dofh8la3cbH9jTNRuH/4W2u5G+SSnwf4VWeYq7FXYq7F&#xA;XYq7FVskccsbRyKHjcFXRgCrKRQgg9QcVYh+Xpk0t9V8mzOzjy9LGdMZjUnS7sM9mKk/7pKS249o&#xA;sVZjirsVdirGvPWu6hp2n22n6NxbzDrc4sdJ5jkkbspeW5kHdLaFXlI7kBerDFUx8teXdP8AL2jW&#xA;+lWAYxQgtJNIeUs0znlLPM53eSVyWZvE4qmmKuxV2KsJ802N55d1d/OujxPNAUVPNGlwqWa5toxR&#xA;buFB1uLZew3kjqu5CYqy+yvbS+s4L2zmS4tLmNZre4jYMkkbgMrqw2IYGoOKq+KuxV2KuxV2KuxV&#xA;hmnKnl78wLnS0ATTPNEcup2i9k1G3KLeIPD143jlA/mWRu+KszxVh35cx/XE1vzNKKz67qVwYmII&#xA;Is7FzZWij/JKQmX5yHFWY4q7FXYq7FUNqOnWOpWFxp9/AlzZXcbQ3NvIOSPG44srDwIOKsU8p6jq&#xA;Gh6r/grXJ3uHSNpPLmqzGr3tnH9qGVj9q5thQP3dKP15UVZpirsVdirsVdirsVYXq08On/mz5fkJ&#xA;odc0vULFx/NJZyQXUH/Ao9x9+Ks0xV2KuxVh+nJ+lfzM1e+kHKDy5aQ6XaA7hbm9C3l23sTD9VHj&#xA;SvjirMMVdirsVdirsVYHbqPIWura/Z8l63cUtD+xpuozvUw/5NtdSNVOySnj0daKs8xV2KuxV2Ku&#xA;xV2KsP8AzIb6pD5e1kEK2l67YcpDsBHfyHTZKnw4Xp+mmKswxV555Nl/MDQPKej6LN5VWefTrOC3&#xA;uJ01C3CySxxgSOoK7BnqaYqnH+IvPf8A1KP/AHMbf/mnFXf4i89/9Sj/ANzG3/5pxV3+IvPf/Uo/&#xA;9zG3/wCacVd/iLz3/wBSj/3Mbf8A5pxV3+IvPf8A1KP/AHMbf/mnFUm81x+c/MOlG0bys1peQutz&#xA;puoxahbGW1uo6+lPHVd+NaMp2ZSVOxOKp95H803ms2UtlrNsNP8ANGl8Ita08EFVdhVJ4SCeUM4H&#xA;JDU91PxKcVZNirsVdirsVdirz/zba399+bvkFLShg0mLVtR1OrU4xPbLZw7ftFpbjYeAJxV6Birs&#xA;VdirzXy/rHmey8zecbKx0Aamy6sLie5W7igUetZ2/pJSQElhAiE/MYqn/wDiLz3/ANSj/wBzG3/5&#xA;pxV3+IvPf/Uo/wDcxt/+acVd/iLz3/1KP/cxt/8AmnFXf4i89/8AUo/9zG3/AOacVd/iLz3/ANSj&#xA;/wBzG3/5pxVI/Nfm7WFs4tK8w+TA+m64/wCjz6t9A0DSTAhIpXC/AZPsoTT4qAHkVqqify913XrG&#xA;ZfKHm2KS31WJHk0S6nljma+sYyBR5Y/ha5twQsvQsKSU3airPsVdirsVdirsVebfn/cOPIcOnQuk&#xA;d3q+raXZWTSEKvr/AFyOePkx2A5QbnwxV6TirsVdirsVdirsVdirsVYr5z8v6lJNbeZfLwUeZdKR&#xA;lihYhEvbViGlsZm7B6co2P2JKHpyqqnHl3zBp3mDR7fVbBmME/INHICksUsbFJYZUO6SROpR1PQj&#xA;FUyxV2KuxV2KsO8mOdZ8w6/5q62c0iaRo7dmtdOaQSyj/jJdyygH9pUU4qzHFXYq7FXmuga7r2n+&#xA;ZfONla+XLnVJTqwuZ7iC4s40AlsrdIVPrzRty9GJCRTYEYqn/wDirzf/ANSVff8ASZpv/ZTirv8A&#xA;FXm//qSr7/pM03/spxV3+KvN/wD1JV9/0mab/wBlOKu/xV5v/wCpKvv+kzTf+ynFXf4q83/9SVff&#xA;9Jmm/wDZTiqR+bPOFxNZxaH5i8kXrWWvudPjSW5sPSkldSyRmVbikbtx/dksDypxPKmKoDSY9V13&#xA;Tx5N82C40nzbpg+veWNZnaGS5ljhPCK6Dwu8bzRchHcx8vjVqmiyUCrNPJvmebWba5s9ShWz8xaT&#xA;ILbWbBTULIRVJoid2gnX44m8Nj8SsAqyLFXYq7FXYq8H/wCcgrmbW7yz0qyKN+h77TY4GYgKdav7&#xA;qNraLkWUK0drFIX/AMmZTir3jFXYq7FXYq7FXYq7FXYq7FWDa/BN5O1ufzbYqzaDfsv+K7FAW9Mq&#xA;oRNTiQftRqAtwAPijAbqm6rNoZopokmhdZIpFDxyIQysrCoZSNiCMVX4q7FWG+ctWvtSvR5L0Cdo&#xA;tVvIxJq+oRmh07T3JVpeVD+/mCskC9a1fou6rKNM02x0vTrXTbCFbexsokt7WBPspHGoVFHyAxVF&#xA;Yq7FXYq818v+Z7zTPMnnGz/w9qmoXD6v9ZlmtFtniCPZ28UI5S3ERqYoFNOOwIxVP/8AHOo/9Shr&#xA;v/AWP/ZXirv8c6j/ANShrv8AwFj/ANleKu/xzqP/AFKGu/8AAWP/AGV4q7/HOo/9Shrv/AWP/ZXi&#xA;rv8AHOo/9Shrv/AWP/ZXiqR+bPO+l3tlHoHmDyhrf1XXWNnArx2aq8wUyIqyi7pHL8HKPcNyX4dx&#xA;iqA0eXUvM2njyxr/ANa0fztoZN95e1a6SNZ5ooyY4rzjG7xuSreldxK1Dy7B1oqjPrWp65GvmTS7&#xA;VbT8wPLJNjrmiF6LcxbSSWhc05RTA+taTHoSK0rIuKs58v69puv6Pbatp0he1uVJAYcXR1JV4pEO&#xA;6SRuCrqdwwIxVMcVdirHvOPmltEtYLawgF95h1NjBo2mVp6stKtJJTdIIQeUr9l/yiAVXiH5saNL&#xA;a6dp3l60ma/1HTNQsb69vmYI155k1O7jMI3KgMLeOf4eXwRvGBsBir6QxV2KuxV2KqF5e2Vlbtc3&#xA;txHa2yUDzzOsaKWYKtWYgCrEAe+KtXmoWFkITeXMVsLiVLe39Z1j9SaTZIk5Ecnbso3OKrhe2ZvH&#xA;shPGbxI1me2Dr6qxOzKshSvIKzIwBpSoPhiqtirsVaZVZSrAMrCjKdwQexxVgujlvJGuQ+XZ2P8A&#xA;hTVZCvly4atLO5bc6a7H/db7tan5xdkqqzokAVOwHU4qwq985ahr88uk+ReFwys0V75mkX1NOs2G&#xA;zrFuPrdwvZEPBT9th9kqp/5a8s6d5esGtrQyTzTyGe+v7hg9zdTtQNNPJQcmNABQAKAFUBQBiqb4&#xA;q7FXYq7FXmvl/wA2LpnmXzlaSaPqd3evq4uJmtLb1kEbWVvDBV+S7tFAGp2GKp//AI//AO/c1z/p&#xA;C/5vxV3+P/8Av3Nc/wCkL/m/FXf4/wD+/c1z/pC/5vxV3+P/APv3Nc/6Qv8Am/FXf4//AO/c1z/p&#xA;C/5vxVI/Nnnfy3qNimga7oGtxx6wxgtAbQxuZ0HqoYZOfwzJw9SOh5VWo6YqgNJudQ826eNE1Qza&#xA;R5/8uN9c0TVLqAwSTxqfTju/Sr8UUw/dXcStSpPSqHFUY15qGrxr5w0SyNv500Gth5j8vFhyuIkp&#xA;JLZltgxo3rWcvQ8uwdqKtnV7DRpU8/6Exn8m64BJ5kgRWBtpR8H6RWOnJWjK+neJStBz+0jclXo6&#xA;OkiLJGwdHAZHU1BB3BBGKsY17zxFb376FoFt+m/M1AWsYm4w2wbpJfXFGWBO4Xd2/ZU4qk86t5Pt&#xA;31S9f/EP5ha/S0s0Uen6sgHJLa2Qk/V7KCvOVqmgq7lmpiry/wDNfSbq1sdO0G2uDf6xp2o2Or6p&#xA;doOJuvMGpXiLaoo/Z/0eKdVSvwJ6Y8KqvpHFXYq7FXYq87883X6R/MryP5Xkb/QS93rl5FTaR9OR&#xA;RaKT4LNN6lPFRiqTfnR5d0xPMnkLXv8ASG1F/NemW9Xurl4FjZJSwjtWkNvGW9JaskYJ8dziqdfm&#xA;XctonmvyN5itzxln1ZPL96oqBLa6ojAK1Ovpzwxuvhvir0PFXYq7FUv17Q9M13SLnSdTi9ayu04S&#xA;KCVYEGqujDdXRgGVhuCKjFWLwfl3qeoQx2/nHzDca9ZQD0006JBZWs6LsrXqxEyXLsAOas4iJ/3X&#xA;irM7W1trS3itrWFILaFQkMEShERFFAqqtAAB2GKquKuxV2KuxV2KvNdA832eleZPONtdafqU99Lq&#xA;4nk+qWNzdKIvqVtBAWeJGUckgqB4Yqn/APysXTv+rPrv/cIvv+qWKu/5WLp3/Vn13/uEX3/VLFXf&#xA;8rF07/qz67/3CL7/AKpYq7/lYunf9WfXf+4Rff8AVLFXf8rF07/qz67/ANwi+/6pYqknmzzt5N1a&#xA;wTQtY07WoW1J+Ngf0ZexT/WYR6qSWzGOvrRcPUXjuKV6VxVL9Jvr/wA46ctlcmTSvzG8rH6zpl9d&#xA;20tobmJqxi49CQI5trtUMVxGPst03EbYqizqF1qSL558v2MkXmXSq2Hmry3UGaeOH4pLU9A00PL1&#xA;bWTo6mn2ZNlV36T0rRJF85aTIl15B8zcZtdjQVjtZ5Rx/SHAj4Uf7F2pHwn4zQiSqqNsvy41KKJt&#xA;Kh8y3Vv5OR2ew0qyUQXCQyAH6sb8M0v1dDX0hEEdVovMgYqrz6x5e8pRr5W8paUt9rVPUj0Ox4pw&#xA;9T/j5vpjUQIx3aSSrv8Ash22xVAzRHylHJ5k1ojX/P8ArAFjp9tb1RWZjzjsbGNy3pW6Ec5ZDvQG&#xA;RzsAFXmH5r6Xf2ljp+jxzHUdfs9Rsdd1q6iBH1jXL67jis4IwN+It4p0jT9lBHir6SxV2KuxV2Kv&#xA;PvzCtG0zzh5Q86ha2emTz6Xq79PTtdUVY452J2CRXCR8j2ViemKp5518m/4nby+31z6p+gtZtdZ/&#xA;u/V9b6qsi+j9pOHL1Ptb0p0xVJPPlqfMPnbyh5chFV0q8XzLqklK+lFZq8Vop3ArNcSfD7Ix7Yq9&#xA;AxV2KuxV2KuxV2KuxV2KuxV2KuxV5r5f86aPpXmXzlbX9vqTajJq4mkS10nU7wCEWVtBATJa20sY&#xA;DrAWX4um/jiqf/8AKy/Lv/LHrn/hP65/2RYq7/lZfl3/AJY9c/8ACf1z/sixV3/Ky/Lv/LHrn/hP&#xA;65/2RYq7/lZfl3/lj1z/AMJ/XP8AsixV3/Ky/Lv/ACx65/4T+uf9kWKpH5t87+QNasE0PU11q1uL&#xA;5uWmOuh61FdJc249VJrWtny9SHjz2rt12riqB0rU7/zppqMnPTPzH8qs0lrLd2txYrdROSgkNvcJ&#xA;FN9Tvli4upWqONt0Viqi21SW7RfzA8uWco1SzrY+b/LmxuJY7c/vYSvRru05F4WH94h4g0dSFVxv&#xA;9L0CceY7CSO9/LrzSRLqdAGhtLm62F6Adhb3JbjcKR8L/GesmKoyx8g+ZraF9Et/M8tl5ShY/o63&#xA;tIgNRS3ahFs19K0lIo91jKRiThQc6ipVV59S8q+SI08v+XdN+t65d1mg0WzPO5mZjQ3N5PIWKJX7&#xA;U87b9Byai4qgpoZPLMbebPMzjWvOd7/oWk6dbf3cck262GnI9CA3ANNM27BS7cUUKqry/wDNjT9S&#xA;s7HT9O5tf+ZbfUbHzHrk9sGb1dWubqO3sLWMKrMVFvHOkS9QsaEjeuKvpLFXYq7FXYq7FXYq7FXY&#xA;q7FXYq7FXYq7FXYq7FXYq7FXYq818v8AnXy9pPmbzlDqT3S6hNq4kaNLK8nIgSytreE8oIZFCt6D&#xA;Fd9+uKp//wArP8of78vv+4XqX/ZPirv+Vn+UP9+X3/cL1L/snxV3/Kz/ACh/vy+/7hepf9k+Ku/5&#xA;Wf5Q/wB+X3/cL1L/ALJ8Vd/ys/yh/vy+/wC4XqX/AGT4qkXm3zt+XWu2CaPd317aX0zfWNJuI9O1&#xA;BbqG5t/iS4tw1vUtFWp2pQ0b4SRiqC0nVrzzppseoWJSy/MbyoxVlkjlt4bqJ6ghkmVJfqd8sdV5&#xA;LWNx3ZN1UW+qmQJ+Yvly1maRR9U85eX+P+kslueMlYx/x+WJrQf7sjqor+7IVXG40ry/ONQgMV7+&#xA;W3m087o7SW9nc3op61Dt9UvS9JAdlkPLo7UVRll5K8720DaDb+ZBZeV7ZyLCaCL1NW+qsKrbNcTl&#xA;4kEO6JJ6bOUpuGHIqq8lz5R8hRLpmkWT3mv6mTJFptu3r6lfSDYz3E0rFyor8c8z8V8egxVByxza&#xA;BG3nTzgV1HzNIPqui6RafHHbvcfYsbEMFMk0pFJJ2ALAdFRaYq8t/Nay1axsLC2kk+s+aY9SsvNG&#xA;vyW1WB1CW6jtdPsYvtOyJAsyRLTf0gxFWOKvpPFXYq7FXYq7FXYq7FXYq7FXYq7FXYq7FXYq7FXY&#xA;q7FXYq818v8AnjydpPmPziNY1i2stQuNYr6FxIEcQwWVtbx0U9FJhYjxqTiqf/8AK1vy3/6mOx/5&#xA;HLirv+Vrflv/ANTHY/8AI5cVd/ytb8t/+pjsf+Ry4q7/AJWt+W//AFMdj/yOXFXf8rW/Lf8A6mOx&#xA;/wCRy4qknm3zl+VvmDTBZP5psrS/hcXWlX8cyeta3cP93PGD141oy9GUlW2Y4ql+k663nfT01/QJ&#xA;LVfzA8qu1tdwwyg213G1GeD1N62t2q84WbeN6V+JWGKot9YiiVfzI8uQTPY3C+j5x0TgRcAW59Jp&#xA;jCKkXliVKSL1eMcdyseKr6aV5en9NhFe/lr5tPFekltZ3V9+yRuv1O+L7fspIadJPhVRmn+V/wAx&#xA;LW3Pl+LXYLby9bEx2WqhGuNYNqQPThJmH1dHiFUEzCQuoBKhqsVVZ28m/l9B6VtDLea9qzVjgVmu&#xA;9W1KZe7PITIwWu7OwjjH8q4qhJUm0hH88+duM+sxr6OiaJa1lS0af4UtbUH+/u5yeDy036LxQGqr&#xA;y382I9X0zTbBrt/+dpGo2XmzX3gPJI7gXUVrYWMbdSkcImEf8xhLdWxV9J4q7FXYq7FXYq7FXYq7&#xA;FXYq7FXYq7FXYq7FXYq7FXYq7FXmvl/z35G0rzJ5yOteYtM03UJ9Y4i3vL23glENtZW1un7uWRWC&#xA;8o3bpuSTiqf/APK2Pys/6nLQ/wDuJWn/AFUxV3/K2Pys/wCpy0P/ALiVp/1UxV3/ACtj8rP+py0P&#xA;/uJWn/VTFXf8rY/Kz/qctD/7iVp/1UxV3/K2Pys/6nLQ/wDuJWn/AFUxVJPN3nH8qPMGmpFH550S&#xA;y1SzlW70jUo9RszJbXUYISQD1fiUhikiHZ0LKeuKpfpXmAedtOi82+V5bSTzv5aL2epWVrcJLa3k&#xA;deUtp6yMVaGfj6ltKfsP1/3YuKoxtZtbPj+Y/l0SS6BqIA83aZwImjMA9Jrz0uqXNpw9O4TqyL/M&#xA;i1VbFtpegTnSLlIr38tfNtY7I7PBZ3N7Um2NNvql5zrCRskh4dHSiqMsNE/NK3t20CHVLO30q1bh&#xA;Z+Ypg93qUlrQGONoHCQCaMfAZnZ+VORjqTiqIeHyZ+X8T3svr3uu6ofTErlr3V9RlUVWKOvxMB2R&#xA;eMSDf4V3xVByrNYI/nvz2oW8sxx0XQbc/WFs2m/dpHFSguL6csIy42FeCfDyZ1Xl/wCbEmsaXpun&#xA;3V+/p+ZG1Oy8164I2DLbrDdxWthp6vsCqRvLxofieJ2/axV9I4q7FXYq7FXYq7FXYq7FXYq7FXYq&#xA;7FXYq7FWM+fPNVxoGm2kenpHNrmsXkOm6PBNUxmeY/FJIFKsY4YleR6EVC0qCcVSeXzV5y1zzbr+&#xA;heVn06zh8tJbx3d3qUE9z9YvLmL1lhjSGe29KNEK8pCXNTsppiqB8sfm7Nq9h5R1e6tI7XS/Mctx&#xA;pV2BydrbVoXZYk9SvFoZjBIq/BXlx33OKvTMVdirsVdirsVdirsVdirE/OOh6nHdwea/LsYk1/TY&#xA;zHPZV4LqNjXlJZu3QSA1eBz9l9j8LNiqRPq9npbL+YOglp/KWshW80WaqQ1u6/uzqAi6rJDx9O7S&#xA;leK8jvGaquFhpugzt5X1GOO8/LzzPWLSHJrFZ3FxubAsDQQT152zD7Lfux/uvFUZY2H5rwW58vxX&#xA;NklpaMYoPNV2Wubua1oDH/oahFNwg+B5JJeJI58G5EBVEGy8n+Q4n1nU7ia/12+Ig/SF1/pWp3sh&#xA;3W3to0AoCdxDAioOtAKnFUG6yxK3n3z4v1SPTVL6N5fUicWhkoiswSvr38xb0141C8uCVJLMqlOl&#xA;aTqd35x0U6tGE1y/mk8y6/CDyFrbW0L2el2HIfCRG9yX2+1JHI3fFXq+KuxV2KuxV2KuxV2KuxV2&#xA;KuxV2KuxV2KuxV5x+YPOP80fyxuJTSxW81SFyfs/WJdOcQD5ni9MVSLzp+ZkerebtS8mWvmvTfJu&#xA;l6V6cWta1dXNvHfzSTJza30+OdlVOKMA8zVKt9kbYqpefLDyraflP5Y0ryRcW9zpseu6Tb6NPaTp&#xA;cK04vgzsJkLBn5c2c161xV7TirsVdirsVdirsVdirsVdirA9ci/wVrFx5khSvlTVXr5otQKrazNR&#xA;BqaqB9gii3Q8KSfsvVVBDStP0WRvJGroLnyL5hrF5flY/Dayv8f6OLj7K1HqWbVqtOA+ylVUbpw/&#xA;NiCE6B6Vm4tCY4/N97J6vr2+3pP9Ri4O9wFPGTnJGnIcgSDxCquNK8q+SY5PMuv382o61MBbnV73&#xA;99dytIara2UESgIHb7MNvGOXfkd8VQEqTzSN5989V07SNHU3Gi+Xn4ubZvsrc3IQuJb2SoWKNKiP&#xA;lxXk5riqdeRdI1FEvvMWtRejr2vuk1xbE1NraxAraWdRtWJGLPTYyM5G2KsqxV2KuxV2KuxV2Kux&#xA;V2KuxV2KuxV2KuxV2KpF5y8qw+ZdHWzMxtL21nhvtMvwvM293bOHil48k5CvwsvIclJFRXFU8FaD&#xA;kanuRsK/jiqR6t5XXVfMmjard3HKz0T1p7bTuFQ15KvpJcO5Yg+lEzhF49W5V2GKp7irsVdirsVd&#xA;irsVdirsVdiq2SOOWNo5FDxuCrowBVlIoQQeoOKvOF0ez0l3/L3Xg03lHWQY/K90zEPbuo9T9HmX&#xA;qrw8fUtH68V49UFVUZY3v5sQwNoI062nvbNvSXzZeyqLSeClY5/qkB9d5+O0sf7tOdSr8cVRH6F8&#xA;t+VA/mvzXqbajq0YKDV76lYjLt6FhbRjjDz+yEiUyP8AtFzirWmaTq/mnVbXzB5ktWsdLsX9bQfL&#xA;0u8gk3C3t8v2fWA/uohURVqSX+wqzbFXYq7FXYq7FXYq7FXYq7FXYq7FXYq7FXYq7FXYq7FXYq7F&#xA;XYq7FXYq7FXYq7FXYq7FXYqlvmHQNN1/SLjStRRmtpwKPGxSWORCGjlicbpJG4DIw6EYqxSw1r80&#xA;I7c6F+hY7rWLNjBJ5lu5Eg02aIAGK6EUTPcPK6/bhVFUOCOYXicVTTRfI0cOoprev3j695gSvo3c&#xA;6CO3taihWytQWSAEbFqtIf2nOKspxV2KuxV//9k=</xapGImg:image>
    </rdf:li>
   </rdf:Alt>
  </xap:Thumbnails>
 </rdf:Description>

 <rdf:Description rdf:about=''
  xmlns:dc='http://purl.org/dc/elements/1.1/'>
  <dc:format>image/svg+xml</dc:format>
 </rdf:Description>

</rdf:RDF>
</x:xmpmeta>
                                                                                                                                                                                                                                                                                                                                                                                                                                                                                                                                                                                                                                                                                                                                                                                                                                                                                                                                                                                                                                                                                                                                                                                                                                                                                                                                                                                                                                                                                                                                                                                                                                                                                                                                                                                                                                                                                                                                                                                                                                                                                                                                <?xpacket end='w'?>
			</metadata>
		<g id="Layer_1">
			<g>
				<path style="fill:#FFFFFF;stroke:#000000;stroke-width:0.5;" d="M69.793,56.202c0,0.041,0.004,0.082,0.004,0.123h55.146
					c0-0.041,0.004-0.082,0.004-0.123c0-11.229-12.347-20.331-27.577-20.331C82.14,35.871,69.793,44.973,69.793,56.202z"/>
				<path style="fill:#FFFFFF;stroke:#000000;stroke-width:0.5;" d="M83.213,36.527c-0.048,0.021-0.094,0.043-0.142,0.064
					L110.644,71.8c0.049-0.02,0.098-0.038,0.146-0.059c13.189-5.614,17.709-18.048,10.094-27.772
					C113.269,34.245,96.403,30.914,83.213,36.527z"/>
				<path style="fill:#FFFFFF;stroke:#000000;stroke-width:0.5;" d="M69.793,52.008c0,0.042,0.004,0.082,0.004,0.123h55.146
					c0-0.042,0.004-0.082,0.004-0.123c0-11.229-12.347-20.331-27.577-20.331C82.14,31.677,69.793,40.78,69.793,52.008z"/>
				<path style="fill:#FFFFFF;stroke:#000000;stroke-width:0.5;" d="M83.213,32.334c-0.048,0.021-0.094,0.043-0.142,0.064
					l27.573,35.208c0.049-0.021,0.098-0.038,0.146-0.059c13.189-5.614,17.709-18.048,10.094-27.772
					C113.269,30.052,96.403,26.72,83.213,32.334z"/>
				<path style="fill:#FFFFFF;stroke:#000000;stroke-width:0.5;" d="M69.793,47.815c0,0.042,0.004,0.082,0.004,0.123h55.146
					c0-0.041,0.004-0.082,0.004-0.123c0-11.228-12.347-20.331-27.577-20.331C82.14,27.484,69.793,36.587,69.793,47.815z"/>
				<path style="fill:#FFFFFF;stroke:#000000;stroke-width:0.5;" d="M83.213,28.141c-0.048,0.021-0.094,0.043-0.142,0.064
					l27.573,35.208c0.049-0.021,0.098-0.038,0.146-0.059c13.189-5.614,17.709-18.048,10.094-27.772S96.403,22.527,83.213,28.141z"/>
				<path style="fill:#FFFFFF;stroke:#000000;stroke-width:0.5;" d="M69.793,43.622c0,0.041,0.004,0.082,0.004,0.123h55.146
					c0-0.042,0.004-0.082,0.004-0.123c0-11.229-12.347-20.331-27.577-20.331C82.14,23.291,69.793,32.394,69.793,43.622z"/>
				<path style="fill:#FFFFFF;stroke:#000000;stroke-width:0.5;" d="M83.213,23.948c-0.048,0.021-0.094,0.043-0.142,0.064
					l27.573,35.208c0.049-0.021,0.098-0.038,0.146-0.059c13.189-5.614,17.709-18.048,10.094-27.772
					C113.269,21.666,96.403,18.334,83.213,23.948z"/>
				<path style="fill:#FFFFFF;stroke:#000000;stroke-width:0.5;" d="M69.793,39.429c0,0.042,0.004,0.082,0.004,0.123h55.146
					c0-0.041,0.004-0.082,0.004-0.123c0-11.228-12.347-20.331-27.577-20.331C82.14,19.098,69.793,28.201,69.793,39.429z"/>
				<path style="fill:#FFFFFF;stroke:#000000;stroke-width:0.5;" d="M83.213,19.755c-0.048,0.021-0.094,0.043-0.142,0.064
					l27.573,35.208c0.049-0.021,0.098-0.038,0.146-0.059c13.189-5.614,17.709-18.049,10.094-27.772S96.403,14.141,83.213,19.755z"/>
				<path style="fill:#FFFFFF;stroke:#000000;stroke-width:0.5;" d="M69.793,35.236c0,0.041,0.004,0.082,0.004,0.123h55.146
					c0-0.041,0.004-0.082,0.004-0.123c0-11.229-12.347-20.331-27.577-20.331C82.14,14.905,69.793,24.007,69.793,35.236z"/>
				<path style="fill:#FFFFFF;stroke:#000000;stroke-width:0.5;" d="M83.213,15.562c-0.048,0.021-0.094,0.043-0.142,0.064
					l27.573,35.208c0.049-0.021,0.098-0.038,0.146-0.059c13.189-5.614,17.709-18.048,10.094-27.772
					C113.269,13.279,96.403,9.948,83.213,15.562z"/>
				<path style="fill:#FFFFFF;stroke:#000000;stroke-width:0.5;" d="M69.793,31.042c0,0.042,0.004,0.082,0.004,0.123h55.146
					c0-0.042,0.004-0.082,0.004-0.123c0-11.228-12.347-20.331-27.577-20.331C82.14,10.711,69.793,19.814,69.793,31.042z"/>
				<path style="fill:#FFFFFF;stroke:#000000;stroke-width:0.5;" d="M83.213,11.369c-0.048,0.021-0.094,0.043-0.142,0.064
					l27.573,35.208c0.049-0.021,0.098-0.038,0.146-0.059c13.189-5.614,17.709-18.049,10.094-27.772
					C113.269,9.086,96.403,5.754,83.213,11.369z"/>
				<path style="fill:#FFFFFF;stroke:#000000;stroke-width:0.5;" d="M69.793,26.85c0,0.041,0.004,0.082,0.004,0.123h55.146
					c0-0.041,0.004-0.082,0.004-0.123c0-11.229-12.347-20.331-27.577-20.331C82.14,6.519,69.793,15.621,69.793,26.85z"/>
				<path style="fill:#FFFFFF;stroke:#000000;stroke-width:0.5;" d="M83.213,7.175c-0.048,0.021-0.094,0.043-0.142,0.064
					l27.573,35.208c0.049-0.02,0.098-0.038,0.146-0.059c13.189-5.614,17.709-18.048,10.094-27.772
					C113.269,4.893,96.403,1.562,83.213,7.175z"/>
				<path style="fill:#FFFFFF;stroke:#000000;stroke-width:0.5;" d="M69.793,22.656c0,0.042,0.004,0.082,0.004,0.123h55.146
					c0-0.041,0.004-0.082,0.004-0.123c0-11.229-12.347-20.331-27.577-20.331C82.14,2.325,69.793,11.428,69.793,22.656z"/>
				<path style="fill:#FFFFFF;stroke:#000000;stroke-width:0.5;" d="M83.213,2.982c-0.048,0.021-0.094,0.043-0.142,0.064
					l27.573,35.208c0.049-0.021,0.098-0.038,0.146-0.059c13.189-5.614,17.709-18.049,10.094-27.772
					C113.269,0.7,96.403-2.632,83.213,2.982z"/>
			</g>
			<g>
				<path style="fill:#FFFFFF;stroke:#000000;stroke-width:0.5;" d="M0.25,22.651c0,0.041,0.004,0.082,0.004,0.123H55.4
					c0-0.041,0.004-0.082,0.004-0.123c0-11.229-12.347-20.331-27.577-20.331C12.597,2.32,0.25,11.423,0.25,22.651z"/>
				<path style="fill:#FFFFFF;stroke:#000000;stroke-width:0.5;" d="M13.67,2.977c-0.049,0.021-0.094,0.043-0.143,0.064
					L41.101,38.25c0.048-0.02,0.098-0.038,0.146-0.059c13.189-5.614,17.708-18.048,10.093-27.772
					C43.726,0.695,26.859-2.637,13.67,2.977z"/>
			</g>
			<line style="fill:none;" x1="129.395" y1="27.89" x2="129.395" y2="40.223"/>
			<g>
				<text transform="matrix(1 0 0 1 13.3945 42.2231)"><tspan x="0" y="0" style="font-family:'Helvetica'; font-size:9;">(1)</tspan></text>
			</g>
			<g>
				<text transform="matrix(1 0 0 1 54.0649 64.7964)"><tspan x="0" y="0" style="font-family:'Helvetica'; font-size:9;">(2)</tspan></text>
			</g>
		</g>
	</svg>
