<?xml version="1.0" encoding="UTF-8" standalone="no"?>
<!-- Generator: Adobe Illustrator 11 Build 196, SVG Export Plug-In . SVG Version: 6.0.0 Build 78)  -->
<svg
   xmlns:dc="http://purl.org/dc/elements/1.1/"
   xmlns:cc="http://web.resource.org/cc/"
   xmlns:rdf="http://www.w3.org/1999/02/22-rdf-syntax-ns#"
   xmlns:svg="http://www.w3.org/2000/svg"
   xmlns="http://www.w3.org/2000/svg"
   xmlns:xlink="http://www.w3.org/1999/xlink"
   xmlns:sodipodi="http://inkscape.sourceforge.net/DTD/sodipodi-0.dtd"
   xmlns:inkscape="http://www.inkscape.org/namespaces/inkscape"
   width="150.792"
   height="238.807"
   viewBox="0 0 150.792 238.807"
   style="overflow:visible;enable-background:new 0 0 150.792 238.807"
   xml:space="preserve"
   id="svg2"
   sodipodi:version="0.32"
   sodipodi:docname="fourier-spectra.svg"
   sodipodi:docbase="/home/bcrowell/Documents/writing/lm/trunk/3vw/ch04/figs"><metadata
   id="metadata283"><rdf:RDF><cc:Work
       rdf:about=""><dc:format>image/svg+xml</dc:format><dc:type
         rdf:resource="http://purl.org/dc/dcmitype/StillImage" /></cc:Work></rdf:RDF></metadata><defs
   id="defs281">
		
		
		
		
		
		
		
		
		
		
		
		
		
		
		
		
		
		
		
		
		
		
		
		
		
		
		
		
		
		
		
		
		
		
		
		
		
		
		
		
		
		
		
		
		
	</defs><sodipodi:namedview
   inkscape:cy="134.13950"
   inkscape:cx="84.121383"
   inkscape:zoom="2.2351084"
   inkscape:window-height="996"
   inkscape:window-width="1278"
   inkscape:pageshadow="2"
   inkscape:pageopacity="0.0"
   borderopacity="1.0"
   bordercolor="#666666"
   pagecolor="#ffffff"
   id="base"
   inkscape:window-x="0"
   inkscape:window-y="0"
   inkscape:current-layer="svg2" />
	<style
   type="text/css"
   id="style4">
	
	</style>
	<rect
   style="fill:#dedede;fill-opacity:1.0000000;fill-rule:evenodd;stroke:none;stroke-width:1.0000000pt;stroke-linecap:butt;stroke-linejoin:miter;stroke-opacity:1.0000000"
   id="rect2170"
   width="184.25197"
   height="297.07730"
   x="-6.0628181"
   y="-61.911613" />
<g
   id="g2898"
   transform="matrix(0.981675,0.000000,0.000000,0.981675,-0.317849,-3.065635)"><image
     y="-50.129421"
     x="-3.2623196"
     xlink:href="fourier-spectra-raw.png"
     sodipodi:absref="/home/bcrowell/Documents/writing/lm/trunk/3vw/ch04/figs/fourier-spectra-raw.png"
     width="182.77245"
     height="267.98105"
     id="image1614" /><g
     transform="matrix(1.243571,0.000000,0.000000,1.243571,-2.708442,-57.50970)"
     id="g1856"><g
       id="g8">
			<line
   id="line10"
   y2="213.88100"
   x2="35.027000"
   y1="212.68100"
   x1="35.027000"
   style="fill:none;stroke:#000000;stroke-width:0.30000001" />
			<line
   id="line12"
   y2="213.88100"
   x2="58.498001"
   y1="212.68100"
   x1="58.498001"
   style="fill:none;stroke:#000000;stroke-width:0.30000001" />
			<line
   id="line14"
   y2="213.88100"
   x2="81.969002"
   y1="212.68100"
   x1="81.969002"
   style="fill:none;stroke:#000000;stroke-width:0.30000001" />
			<line
   id="line16"
   y2="213.88100"
   x2="105.43900"
   y1="212.68100"
   x1="105.43900"
   style="fill:none;stroke:#000000;stroke-width:0.30000001" />
			<line
   id="line18"
   y2="213.88100"
   x2="128.91000"
   y1="212.68100"
   x1="128.91000"
   style="fill:none;stroke:#000000;stroke-width:0.30000001" />
		</g><g
       id="g20">
			<line
   id="line22"
   y2="13.496000"
   x2="35.027000"
   y1="12.295000"
   x1="35.027000"
   style="fill:none;stroke:#000000;stroke-width:0.30000001" />
			<line
   id="line24"
   y2="13.496000"
   x2="58.498001"
   y1="12.295000"
   x1="58.498001"
   style="fill:none;stroke:#000000;stroke-width:0.30000001" />
			<line
   id="line26"
   y2="13.496000"
   x2="81.969002"
   y1="12.295000"
   x1="81.969002"
   style="fill:none;stroke:#000000;stroke-width:0.30000001" />
			<line
   id="line28"
   y2="13.496000"
   x2="105.43900"
   y1="12.295000"
   x1="105.43900"
   style="fill:none;stroke:#000000;stroke-width:0.30000001" />
			<line
   id="line30"
   y2="13.496000"
   x2="128.91000"
   y1="12.295000"
   x1="128.91000"
   style="fill:none;stroke:#000000;stroke-width:0.30000001" />
		</g><g
       id="g32">
			<text
   id="text34"
   transform="translate(15.95800,223.4272)"><tspan
     id="tspan36"
     style="font-size:7.6500001px;font-family:Liberation Sans"
     y="0"
     x="0">200</tspan></text>




		</g><g
       id="g38">
			<text
   id="text40"
   transform="translate(39.42920,223.4272)"><tspan
     id="tspan42"
     style="font-size:7.6500001px;font-family:Liberation Sans"
     y="0"
     x="0">400</tspan></text>




		</g><g
       id="g44">
			<text
   id="text46"
   transform="translate(62.89990,223.4272)"><tspan
     id="tspan48"
     style="font-size:7.6500001px;font-family:Liberation Sans"
     y="0"
     x="0">600</tspan></text>




		</g><g
       id="g50">
			<text
   id="text52"
   transform="translate(86.37060,223.4272)"><tspan
     id="tspan54"
     style="font-size:7.6500001px;font-family:Liberation Sans"
     y="0"
     x="0">800</tspan></text>




		</g><g
       id="g56">
			<text
   id="text58"
   transform="translate(107.5083,223.4272)"><tspan
     id="tspan60"
     style="font-size:7.6500001px;font-family:Liberation Sans"
     y="0"
     x="0">1000</tspan></text>




		</g><g
       id="g62">
			<text
   id="text64"
   transform="translate(16.10790,9.000000)"><tspan
     id="tspan66"
     style="font-size:7.6500001px;font-family:Liberation Sans"
     y="0"
     x="0">200</tspan></text>




		</g><g
       id="g68">
			<text
   id="text70"
   transform="translate(39.57860,9.000000)"><tspan
     id="tspan72"
     style="font-size:7.6500001px;font-family:Liberation Sans"
     y="0"
     x="0">400</tspan></text>




		</g><g
       id="g74">
			<text
   id="text76"
   transform="translate(63.04980,9.000000)"><tspan
     id="tspan78"
     style="font-size:7.6500001px;font-family:Liberation Sans"
     y="0"
     x="0">600</tspan></text>




		</g><g
       id="g80">
			<text
   id="text82"
   transform="translate(86.52050,9.000000)"><tspan
     id="tspan84"
     style="font-size:7.6500001px;font-family:Liberation Sans"
     y="0"
     x="0">800</tspan></text>




		</g><g
       id="g86">
			<text
   id="text88"
   transform="translate(107.6582,9.000000)"><tspan
     id="tspan90"
     style="font-size:7.6500001px;font-family:Liberation Sans"
     y="0"
     x="0">1000</tspan></text>




		</g><g
       id="g92">
			<line
   id="line94"
   y2="92.825996"
   x2="35.103001"
   y1="90.160004"
   x1="35.103001"
   style="stroke:#000000;stroke-width:0.30000001" />
			<path
   id="path96"
   d="M 35.103000,94.094000 C 34.882000,93.498000 34.504000,92.758000 34.104000,92.299000 L 35.103000,92.660000 L 36.102000,92.299000 C 35.701000,92.757000 35.324000,93.498000 35.103000,94.094000 z " />
		</g><g
       id="g98">
			<line
   id="line100"
   y2="92.825996"
   x2="23.367001"
   y1="90.160004"
   x1="23.367001"
   style="stroke:#000000;stroke-width:0.30000001" />
			<path
   id="path102"
   d="M 23.367000,94.094000 C 23.146000,93.498000 22.768000,92.758000 22.368000,92.299000 L 23.367000,92.660000 L 24.366000,92.299000 C 23.966000,92.757000 23.588000,93.498000 23.367000,94.094000 z " />
		</g><g
       id="g104">
			<line
   id="line106"
   y2="92.825996"
   x2="11.632000"
   y1="90.160004"
   x1="11.632000"
   style="stroke:#000000;stroke-width:0.30000001" />
			<path
   id="path108"
   d="M 11.632000,94.094000 C 11.411000,93.498000 11.033000,92.758000 10.633000,92.299000 L 11.632000,92.660000 L 12.631000,92.299000 C 12.230000,92.757000 11.853000,93.498000 11.632000,94.094000 z " />
		</g><g
       id="g110">
			<line
   id="line112"
   y2="98.325996"
   x2="46.838001"
   y1="95.660004"
   x1="46.838001"
   style="stroke:#000000;stroke-width:0.30000001" />
			<path
   id="path114"
   d="M 46.838000,99.594000 C 46.617000,98.998000 46.239000,98.258000 45.839000,97.799000 L 46.838000,98.160000 L 47.837000,97.799000 C 47.437000,98.257000 47.059000,98.998000 46.838000,99.594000 z " />
		</g><g
       id="g116">
			<line
   id="line118"
   y2="104.37100"
   x2="58.573002"
   y1="101.70500"
   x1="58.573002"
   style="stroke:#000000;stroke-width:0.30000001" />
			<path
   id="path120"
   d="M 58.573000,105.63900 C 58.352000,105.04300 57.974000,104.30300 57.574000,103.84400 L 58.573000,104.20500 L 59.572000,103.84400 C 59.172000,104.30200 58.794000,105.04200 58.573000,105.63900 z " />
		</g><g
       id="g122">
			<line
   id="line124"
   y2="109.32600"
   x2="70.308998"
   y1="106.66000"
   x1="70.308998"
   style="stroke:#000000;stroke-width:0.30000001" />
			<path
   id="path126"
   d="M 70.309000,110.59400 C 70.087000,109.99800 69.710000,109.25800 69.310000,108.79900 L 70.309000,109.16000 L 71.308000,108.79900 C 70.908000,109.25700 70.530000,109.99800 70.309000,110.59400 z " />
		</g><g
       id="g128">
			<line
   id="line130"
   y2="114.70100"
   x2="82.043999"
   y1="112.03500"
   x1="82.043999"
   style="stroke:#000000;stroke-width:0.30000001" />
			<path
   id="path132"
   d="M 82.044000,115.96900 C 81.822000,115.37300 81.445000,114.63300 81.045000,114.17400 L 82.044000,114.53500 L 83.043000,114.17400 C 82.643000,114.63200 82.266000,115.37300 82.044000,115.96900 z " />
		</g><g
       id="g134">
			<line
   id="line136"
   y2="124.82600"
   x2="93.779999"
   y1="122.16000"
   x1="93.779999"
   style="stroke:#000000;stroke-width:0.30000001" />
			<path
   id="path138"
   d="M 93.780000,126.09400 C 93.559000,125.49800 93.181000,124.75800 92.781000,124.29900 L 93.780000,124.66000 L 94.779000,124.29900 C 94.378000,124.75700 94.001000,125.49800 93.780000,126.09400 z " />
		</g><g
       id="g140">
			<line
   id="line142"
   y2="136.87100"
   x2="105.51500"
   y1="134.20500"
   x1="105.51500"
   style="stroke:#000000;stroke-width:0.30000001" />
			<path
   id="path144"
   d="M 105.51500,138.13900 C 105.29400,137.54300 104.91600,136.80300 104.51600,136.34400 L 105.51500,136.70500 L 106.51400,136.34400 C 106.11400,136.80200 105.73600,137.54200 105.51500,138.13900 z " />
		</g><g
       id="g146">
			<line
   id="line148"
   y2="137.20100"
   x2="117.25000"
   y1="134.53500"
   x1="117.25000"
   style="stroke:#000000;stroke-width:0.30000001" />
			<path
   id="path150"
   d="M 117.25000,138.46900 C 117.02900,137.87300 116.65100,137.13300 116.25100,136.67400 L 117.25000,137.03500 L 118.24900,136.67400 C 117.85000,137.13200 117.47200,137.87300 117.25000,138.46900 z " />
		</g><g
       id="g152">
			<line
   id="line154"
   y2="137.45100"
   x2="128.98599"
   y1="134.78500"
   x1="128.98599"
   style="stroke:#000000;stroke-width:0.30000001" />
			<path
   id="path156"
   d="M 128.98600,138.71900 C 128.76500,138.12300 128.38700,137.38300 127.98700,136.92400 L 128.98600,137.28500 L 129.98500,136.92400 C 129.58500,137.38200 129.20700,138.12300 128.98600,138.71900 z " />
		</g><g
       id="g158">
			<line
   id="line160"
   y2="155.37100"
   x2="35.103001"
   y1="152.70500"
   x1="35.103001"
   style="stroke:#000000;stroke-width:0.30000001" />
			<path
   id="path162"
   d="M 35.103000,156.63900 C 34.882000,156.04300 34.504000,155.30300 34.104000,154.84400 L 35.103000,155.20500 L 36.102000,154.84400 C 35.701000,155.30200 35.324000,156.04200 35.103000,156.63900 z " />
		</g><g
       id="g164">
			<line
   id="line166"
   y2="155.37100"
   x2="23.367001"
   y1="152.70500"
   x1="23.367001"
   style="stroke:#000000;stroke-width:0.30000001" />
			<path
   id="path168"
   d="M 23.367000,156.63900 C 23.146000,156.04300 22.768000,155.30300 22.368000,154.84400 L 23.367000,155.20500 L 24.366000,154.84400 C 23.966000,155.30200 23.588000,156.04200 23.367000,156.63900 z " />
		</g><g
       id="g170">
			<line
   id="line172"
   y2="155.37100"
   x2="11.632000"
   y1="152.70500"
   x1="11.632000"
   style="stroke:#000000;stroke-width:0.30000001" />
			<path
   id="path174"
   d="M 11.632000,156.63900 C 11.411000,156.04300 11.033000,155.30300 10.633000,154.84400 L 11.632000,155.20500 L 12.631000,154.84400 C 12.230000,155.30200 11.853000,156.04200 11.632000,156.63900 z " />
		</g><g
       id="g176">
			<line
   id="line178"
   y2="155.37100"
   x2="46.838001"
   y1="152.70500"
   x1="46.838001"
   style="stroke:#000000;stroke-width:0.30000001" />
			<path
   id="path180"
   d="M 46.838000,156.63900 C 46.617000,156.04300 46.239000,155.30300 45.839000,154.84400 L 46.838000,155.20500 L 47.837000,154.84400 C 47.437000,155.30200 47.059000,156.04200 46.838000,156.63900 z " />
		</g><g
       id="g182">
			<line
   id="line184"
   y2="155.37100"
   x2="58.573002"
   y1="152.70500"
   x1="58.573002"
   style="stroke:#000000;stroke-width:0.30000001" />
			<path
   id="path186"
   d="M 58.573000,156.63900 C 58.352000,156.04300 57.974000,155.30300 57.574000,154.84400 L 58.573000,155.20500 L 59.572000,154.84400 C 59.172000,155.30200 58.794000,156.04200 58.573000,156.63900 z " />
		</g><g
       id="g188">
			<line
   id="line190"
   y2="155.37100"
   x2="70.308998"
   y1="152.70500"
   x1="70.308998"
   style="stroke:#000000;stroke-width:0.30000001" />
			<path
   id="path192"
   d="M 70.309000,156.63900 C 70.087000,156.04300 69.710000,155.30300 69.310000,154.84400 L 70.309000,155.20500 L 71.308000,154.84400 C 70.908000,155.30200 70.530000,156.04200 70.309000,156.63900 z " />
		</g><g
       id="g194">
			<line
   id="line196"
   y2="155.37100"
   x2="82.043999"
   y1="152.70500"
   x1="82.043999"
   style="stroke:#000000;stroke-width:0.30000001" />
			<path
   id="path198"
   d="M 82.044000,156.63900 C 81.822000,156.04300 81.445000,155.30300 81.045000,154.84400 L 82.044000,155.20500 L 83.043000,154.84400 C 82.643000,155.30200 82.266000,156.04200 82.044000,156.63900 z " />
		</g><g
       id="g200">
			<line
   id="line202"
   y2="163.68401"
   x2="93.779999"
   y1="161.01700"
   x1="93.779999"
   style="stroke:#000000;stroke-width:0.30000001" />
			<path
   id="path204"
   d="M 93.780000,164.95100 C 93.559000,164.35500 93.181000,163.61500 92.781000,163.15600 L 93.780000,163.51700 L 94.779000,163.15600 C 94.378000,163.61500 94.001000,164.35500 93.780000,164.95100 z " />
		</g><g
       id="g206">
			<line
   id="line208"
   y2="171.07600"
   x2="105.51500"
   y1="168.41000"
   x1="105.51500"
   style="stroke:#000000;stroke-width:0.30000001" />
			<path
   id="path210"
   d="M 105.51500,172.34400 C 105.29400,171.74800 104.91600,171.00800 104.51600,170.54900 L 105.51500,170.91000 L 106.51400,170.54900 C 106.11400,171.00700 105.73600,171.74800 105.51500,172.34400 z " />
		</g><g
       id="g212">
			<line
   id="line214"
   y2="174.82600"
   x2="117.25000"
   y1="172.16000"
   x1="117.25000"
   style="stroke:#000000;stroke-width:0.30000001" />
			<path
   id="path216"
   d="M 117.25000,176.09400 C 117.02900,175.49800 116.65100,174.75800 116.25100,174.29900 L 117.25000,174.66000 L 118.24900,174.29900 C 117.85000,174.75700 117.47200,175.49800 117.25000,176.09400 z " />
		</g><g
       id="g218">
			<line
   id="line220"
   y2="179.00999"
   x2="128.54201"
   y1="176.34300"
   x1="128.54201"
   style="stroke:#000000;stroke-width:0.30000001" />
			<path
   id="path222"
   d="M 128.54200,180.27700 C 128.32100,179.68100 127.94300,178.94100 127.54300,178.48200 L 128.54200,178.84300 L 129.54100,178.48200 C 129.14000,178.94100 128.76300,179.68100 128.54200,180.27700 z " />
		</g><g
       id="g224">
			<text
   id="text226"
   transform="translate(33.29150,92.84380)"><tspan
     id="tspan228"
     style="font-size:7.6500001px;font-family:Liberation Sans"
     y="0"
     x="0">*</tspan></text>




		</g><g
       id="g230">
			<text
   id="text232"
   transform="translate(68.18510,108.5386)"><tspan
     id="tspan234"
     style="font-size:7.6500001px;font-family:Liberation Sans"
     y="0"
     x="0">*</tspan></text>




		</g><g
       id="g236">
			<text
   id="text238"
   transform="translate(103.6665,135.8335)"><tspan
     id="tspan240"
     style="font-size:7.6500001px;font-family:Liberation Sans"
     y="0"
     x="0">*</tspan></text>




		</g><g
       id="g242">
			<text
   id="text244"
   transform="translate(44.91650,152.2285)"><tspan
     id="tspan246"
     style="font-size:5.9499998px;font-family:Liberation Sans"
     y="0"
     x="0">x</tspan></text>




		</g><g
       id="g248">
			<text
   id="text250"
   transform="translate(33.26460,152.2285)"><tspan
     id="tspan252"
     style="font-size:5.9499998px;font-family:Liberation Sans"
     y="0"
     x="0">x</tspan></text>




		</g><g
       id="g254">
			<text
   id="text256"
   transform="translate(49.04150,234.3438)"><tspan
     id="tspan258"
     style="font-size:8.5000000px;font-family:Liberation Sans"
     y="0"
     x="0">frequency (Hz)</tspan></text>




		</g><g
       id="g260">
			<text
   id="text262"
   transform="translate(128.6147,27.34380)"><tspan
     id="tspan264"
     style="font-size:8.5000000px;font-family:Liberation Sans"
     y="0"
     x="0">G</tspan></text>




		</g><g
       id="g266">
			<text
   id="text268"
   transform="translate(128.8945,92.21880)"><tspan
     id="tspan270"
     style="font-size:8.5000000px;font-family:Liberation Sans"
     y="0"
     x="0">D</tspan></text>




		</g><g
       id="g272">
			<text
   id="text274"
   transform="translate(126.1147,157.0938)"><tspan
     id="tspan276"
     style="font-size:8.5000000px;font-family:Liberation Sans"
     y="0"
     x="0">C#</tspan></text>




		</g><line
       id="line278"
       y2="162.09399"
       x2="150.79201"
       y1="186.84399"
       x1="150.79201"
       style="fill:none" /></g><rect
     y="-39.795609"
     x="-2.8925204"
     height="245.49437"
     width="181.77203"
     id="rect1441"
     style="fill:none;fill-opacity:0.75000000;fill-rule:evenodd;stroke:#dedede;stroke-width:2.4799252;stroke-linecap:butt;stroke-linejoin:miter;stroke-miterlimit:4.0000000;stroke-dasharray:none;stroke-opacity:1.0000000" /><rect
     y="-40.355167"
     x="-3.5569105"
     height="245.49437"
     width="181.77203"
     id="rect2169"
     style="fill:none;fill-opacity:0.75000000;fill-rule:evenodd;stroke:#000000;stroke-width:0.86797374;stroke-linecap:butt;stroke-linejoin:miter;stroke-miterlimit:4.0000000;stroke-dasharray:none;stroke-opacity:1.0000000;overflow:visible" /></g></svg>