<?xml version="1.0" encoding="UTF-8" standalone="no"?>
<!-- Generator: Adobe Illustrator 11 Build 196, SVG Export Plug-In . SVG Version: 6.0.0 Build 78)  -->
<svg
   xmlns:dc="http://purl.org/dc/elements/1.1/"
   xmlns:cc="http://web.resource.org/cc/"
   xmlns:rdf="http://www.w3.org/1999/02/22-rdf-syntax-ns#"
   xmlns:svg="http://www.w3.org/2000/svg"
   xmlns="http://www.w3.org/2000/svg"
   xmlns:sodipodi="http://inkscape.sourceforge.net/DTD/sodipodi-0.dtd"
   xmlns:inkscape="http://www.inkscape.org/namespaces/inkscape"
   width="130.156"
   height="29.887"
   viewBox="0 0 130.156 29.887"
   style="overflow:visible;enable-background:new 0 0 130.156 29.887"
   xml:space="preserve"
   id="svg2"
   sodipodi:version="0.32"
   sodipodi:docname="guitar-harmonic.svg"
   sodipodi:docbase="/home/bcrowell/Documents/writing/lm/trunk/3vw/ch04/figs"><metadata
   id="metadata82"><rdf:RDF><cc:Work
       rdf:about=""><dc:format>image/svg+xml</dc:format><dc:type
         rdf:resource="http://purl.org/dc/dcmitype/StillImage" /></cc:Work></rdf:RDF></metadata><defs
   id="defs80">
		
		
		
		
		
		
		
		
		
		
		
		
		
		
		
		
		
		
		
		
		
		
		
		
		
		
		
		
		
		
	</defs><sodipodi:namedview
   inkscape:cy="-27.639684"
   inkscape:cx="78.312439"
   inkscape:zoom="1.9147497"
   inkscape:window-height="510"
   inkscape:window-width="712"
   inkscape:pageshadow="2"
   inkscape:pageopacity="0.0"
   borderopacity="1.0"
   bordercolor="#666666"
   pagecolor="#ffffff"
   id="base"
   inkscape:window-x="74"
   inkscape:window-y="74"
   inkscape:current-layer="svg2" />
	<style
   type="text/css"
   id="style4">
	
	</style>
	<rect
   style="fill:#dedede;fill-opacity:1.0000000;fill-rule:evenodd;stroke:none;stroke-width:1.0000000pt;stroke-linecap:butt;stroke-linejoin:miter;stroke-opacity:1.0000000"
   id="rect1380"
   width="184.25197"
   height="69.983040"
   x="-24.546295"
   y="-20.772364" /><g
   id="g2144"
   transform="translate(-4.958826,-0.724344)"><path
     style="fill:none;stroke:#000000;stroke-width:0.50000000"
     d="M 19.323000,14.735000 C 32.153000,14.735000 44.907000,14.735000 48.223000,14.735000 C 55.448000,14.735000 51.113000,22.442000 58.820000,22.442000 C 66.527000,22.442000 61.951000,14.735000 69.899000,14.735000 C 70.285000,14.735000 70.784000,14.735000 71.384000,14.735000"
     id="path7" /><path
     style="fill:none;stroke:#000000;stroke-width:0.50000000"
     d="M 71.333000,14.754000 C 73.653000,14.754000 75.408000,14.754000 76.369000,14.754000 C 83.594000,14.754000 79.259000,7.0470000 86.966000,7.0470000 C 94.673000,7.0470000 90.097000,14.754000 98.045000,14.754000 C 99.798000,14.754000 103.87300,14.754000 109.15900,14.754000"
     id="path9" /><path
     style="fill:#bfa794;stroke:#000000;stroke-width:0.50000000"
     d="M 35.691000,17.266000 C 37.098000,18.302000 38.306000,19.562000 39.506000,20.823000 C 40.032000,21.375000 40.904000,21.392000 41.457000,20.866000 C 42.010000,20.339000 42.027000,19.468000 41.492000,18.915000 C 40.197000,17.525000 38.850000,16.169000 37.323000,15.039000 C 36.710000,14.590000 35.847000,14.728000 35.389000,15.341000 C 34.940000,15.954000 35.078000,16.817000 35.691000,17.266000 L 35.691000,17.266000 z "
     id="path11" /><path
     style="fill:#bfa794;stroke:#000000;stroke-width:0.50000000"
     d="M 18.046000,8.8920000 C 21.671000,14.063000 26.911000,17.809000 32.281000,20.995000 C 32.937000,21.384000 33.783000,21.177000 34.180000,20.520000 C 34.569000,19.864000 34.353000,19.009000 33.697000,18.621000 C 28.673000,15.625000 23.727000,12.173000 20.325000,7.3290000 C 19.893000,6.6990000 19.039000,6.5350000 18.408000,6.9670000 C 17.777000,7.3990000 17.614000,8.2620000 18.046000,8.8920000 L 18.046000,8.8920000 z "
     id="path13" /><path
     style="fill:#bfa794;stroke:#000000;stroke-width:0.50000000"
     d="M 21.067000,8.9960000 C 22.932000,11.439000 24.693000,13.908000 27.395000,15.677000 C 30.312000,17.594000 32.712000,19.743000 35.725000,21.219000 C 36.433000,21.487000 37.236000,21.124000 37.503000,20.407000 C 37.770000,19.690000 37.408000,18.896000 36.691000,18.629000 C 33.989000,17.187000 31.771000,15.236000 29.086000,13.510000 C 26.651000,11.930000 25.098000,9.6690000 23.380000,7.4930000 C 22.965000,6.8540000 22.111000,6.6730000 21.472000,7.0870000 C 20.834000,7.5020000 20.653000,8.3570000 21.067000,8.9960000 L 21.067000,8.9960000 z "
     id="path15" /><path
     style="fill:#bfa794;stroke:#000000;stroke-width:0.50000000"
     d="M 24.106000,9.1250000 C 26.661000,11.939000 29.259000,14.512000 32.401000,16.920000 C 33.221000,17.550000 34.042000,17.956000 34.879000,18.569000 C 36.416000,19.709000 37.391000,21.306000 39.117000,22.065000 C 39.842000,22.307000 40.628000,21.919000 40.869000,21.193000 C 41.110000,20.467000 40.722000,19.682000 39.997000,19.441000 C 40.083000,19.510000 40.179000,19.570000 40.265000,19.640000 C 38.348000,18.207000 36.864000,16.239000 34.671000,15.168000 C 31.538000,12.846000 28.749000,10.144000 26.142000,7.2600000 C 25.633000,6.6990000 24.752000,6.6560000 24.191000,7.1740000 C 23.631000,7.6840000 23.588000,8.5640000 24.106000,9.1250000 L 24.106000,9.1250000 z "
     id="path17" /><path
     style="fill:#bfa794;stroke:#000000;stroke-width:0.50000000"
     d="M 27.455000,8.5560000 C 31.046000,13.701000 37.495000,15.635000 41.466000,20.417000 C 41.984000,20.979000 42.856000,21.021000 43.417000,20.503000 C 43.978000,19.994000 44.021000,19.113000 43.503000,18.552000 C 41.716000,16.567000 39.774000,14.901000 37.442000,13.372000 C 34.516000,11.447000 31.693000,9.6860000 29.699000,6.9500000 C 29.259000,6.3280000 28.395000,6.1810000 27.774000,6.6310000 C 27.153000,7.0710000 27.006000,7.9340000 27.455000,8.5560000 L 27.455000,8.5560000 z "
     id="path19" /><path
     style="fill:#bfa794;stroke:#000000;stroke-width:0.50000000"
     d="M 30.856000,8.9700000 C 31.262000,9.4280000 31.642000,9.8930000 32.107000,10.308000 C 35.388000,13.226000 38.409000,16.100000 41.568000,18.984000 C 42.215000,19.381000 43.070000,19.182000 43.476000,18.535000 C 43.873000,17.887000 43.675000,17.041000 43.027000,16.636000 C 39.807000,13.312000 36.095000,10.507000 32.927000,7.1400000 C 32.418000,6.5710000 31.546000,6.5190000 30.976000,7.0190000 C 30.408000,7.5280000 30.355000,8.4000000 30.856000,8.9700000 L 30.856000,8.9700000 z "
     id="path21" /><path
     style="fill:#bfa794;stroke:#000000;stroke-width:0.50000000"
     d="M 33.792000,8.4260000 C 36.097000,11.499000 39.403000,13.528000 42.234000,16.049000 C 42.804000,16.549000 43.676000,16.489000 44.176000,15.911000 C 44.686000,15.341000 44.625000,14.469000 44.047000,13.969000 C 41.431000,11.552000 38.246000,9.7390000 36.070000,6.8560000 C 35.630000,6.2260000 34.775000,6.0700000 34.145000,6.5020000 C 33.515000,6.9410000 33.360000,7.7960000 33.792000,8.4260000 L 33.792000,8.4260000 z "
     id="path23" /><path
     style="fill:#bfa794;stroke:#000000;stroke-width:0.50000000"
     d="M 36.381000,8.0030000 C 38.202000,9.7550000 39.687000,12.009000 42.070000,13.053000 C 42.760000,13.390000 43.589000,13.105000 43.917000,12.423000 C 44.253000,11.733000 43.978000,10.913000 43.287000,10.576000 C 41.276000,9.6350000 40.041000,7.6490000 38.453000,6.1730000 C 37.953000,5.6030000 37.080000,5.5430000 36.502000,6.0520000 C 35.932000,6.5530000 35.872000,7.4250000 36.381000,8.0030000 L 36.381000,8.0030000 z "
     id="path25" /><path
     style="fill:#bfa794;stroke:#000000;stroke-width:0.50000000"
     d="M 39.722000,8.1590000 C 40.568000,8.7810000 41.336000,9.4710000 42.061000,10.231000 C 42.596000,10.766000 43.468000,10.766000 44.012000,10.231000 C 44.547000,9.6870000 44.547000,8.8150000 44.012000,8.2800000 C 43.226000,7.4600000 42.389000,6.6830000 41.465000,6.0180000 C 40.869000,5.5350000 39.998000,5.6300000 39.523000,6.2170000 C 39.040000,6.8120000 39.135000,7.6840000 39.722000,8.1590000 L 39.722000,8.1590000 z "
     id="path27" /><path
     style="fill:#bfa794;stroke:#000000;stroke-width:0.50000000"
     d="M 111.96300,16.990000 C 113.32700,18.337000 114.77700,19.580000 116.21900,20.832000 C 116.81500,21.307000 117.67800,21.221000 118.16100,20.625000 C 118.63600,20.029000 118.54900,19.157000 117.95400,18.683000 C 116.60700,17.475000 115.20000,16.327000 113.92200,15.031000 C 113.37800,14.496000 112.50600,14.496000 111.96300,15.031000 C 111.42800,15.574000 111.42800,16.446000 111.96300,16.990000 L 111.96300,16.990000 z "
     id="path29" /><path
     style="fill:#bfa794;stroke:#000000;stroke-width:0.50000000"
     d="M 101.43100,20.012000 C 101.69900,20.176000 101.87100,20.435000 102.09600,20.651000 C 102.61400,21.221000 103.48600,21.264000 104.04700,20.755000 C 104.61600,20.237000 104.66000,19.365000 104.14200,18.804000 C 103.68400,18.381000 103.33000,17.829000 102.72600,17.578000 C 102.05300,17.216000 101.21500,17.474000 100.86100,18.148000 C 100.49900,18.820000 100.75800,19.658000 101.43100,20.012000 L 101.43100,20.012000 z "
     id="path31" /><path
     style="fill:#bfa794;stroke:#000000;stroke-width:0.50000000"
     d="M 100.63700,16.835000 C 101.74200,18.182000 102.97600,19.468000 104.55600,20.271000 C 104.67700,20.332000 104.70200,20.547000 104.80600,20.668000 C 105.08200,20.953000 105.36800,21.221000 105.77300,21.298000 C 106.47200,21.600000 107.28300,21.281000 107.58600,20.581000 C 107.89700,19.882000 107.56800,19.070000 106.86900,18.769000 C 106.63600,18.579000 106.48000,18.320000 106.23000,18.147000 C 104.96100,17.301000 103.89100,16.481000 102.96700,15.341000 C 102.55200,14.702000 101.69800,14.512000 101.05900,14.926000 C 100.41300,15.333000 100.23100,16.188000 100.63700,16.835000 L 100.63700,16.835000 z "
     id="path33" /><path
     style="fill:#bfa794;stroke:#000000;stroke-width:0.50000000"
     d="M 100.94800,13.805000 C 101.90600,15.696000 103.45100,17.275000 105.21200,18.450000 C 105.42000,18.994000 105.96300,19.209000 106.35200,19.598000 C 106.83500,20.073000 107.46600,20.340000 108.01800,20.729000 C 108.64800,21.161000 109.51200,21.005000 109.94300,20.375000 C 110.37400,19.745000 110.21900,18.890000 109.58900,18.458000 C 107.30100,16.887000 105.00500,15.091000 103.48600,12.735000 C 103.19200,12.027000 102.38100,11.699000 101.68200,12.001000 C 100.97400,12.294000 100.64600,13.105000 100.94800,13.805000 L 100.94800,13.805000 z "
     id="path35" /><path
     style="fill:#bfa794;stroke:#000000;stroke-width:0.50000000"
     d="M 101.07700,11.370000 C 101.91400,12.363000 102.77800,13.304000 103.73600,14.210000 C 106.23900,16.584000 108.42400,19.130000 111.22900,21.047000 C 111.80800,21.539000 112.67900,21.479000 113.18000,20.901000 C 113.67200,20.322000 113.61200,19.451000 113.03300,18.950000 C 110.33100,17.120000 108.24200,14.685000 105.84200,12.407000 C 104.84900,11.474000 103.93400,10.516000 103.08000,9.4720000 C 102.56200,8.9190000 101.68200,8.8930000 101.12900,9.4200000 C 100.57600,9.9460000 100.55100,10.818000 101.07700,11.370000 L 101.07700,11.370000 z "
     id="path37" /><path
     style="fill:#bfa794;stroke:#000000;stroke-width:0.50000000"
     d="M 103.07100,9.7220000 C 104.88400,12.061000 106.93000,14.107000 109.16600,16.144000 C 110.96100,17.793000 112.44600,19.511000 114.38000,21.056000 C 114.83800,21.418000 115.34700,21.574000 116.02000,21.453000 C 116.77100,21.349000 117.30600,20.650000 117.20300,19.899000 C 117.09900,19.139000 116.40000,18.612000 115.64900,18.716000 C 115.80400,18.759000 115.96800,18.811000 116.12400,18.854000 C 114.14700,17.455000 112.71400,15.539000 110.85000,13.942000 C 108.60600,12.008000 106.77500,9.9190000 104.95400,7.7010000 C 104.39300,7.1830000 103.52100,7.2090000 103.00300,7.7700000 C 102.48400,8.3320000 102.51000,9.2040000 103.07100,9.7220000 L 103.07100,9.7220000 z "
     id="path39" /><path
     style="fill:#bfa794;stroke:#000000;stroke-width:0.50000000"
     d="M 106.06700,9.1000000 C 108.61300,12.570000 112.23900,14.910000 115.43300,17.879000 C 116.00300,18.405000 116.46000,18.984000 117.05600,19.484000 C 117.86800,20.174000 118.47200,21.055000 119.62800,21.280000 C 120.37100,21.469000 121.12200,21.021000 121.31200,20.287000 C 121.50200,19.545000 121.06200,18.794000 120.31900,18.604000 C 119.19600,17.914000 118.42800,16.869000 117.45300,15.971000 C 114.32800,13.105000 110.84900,10.818000 108.31100,7.4940000 C 107.87100,6.8720000 107.00800,6.7260000 106.38600,7.1750000 C 105.76500,7.6150000 105.61800,8.4790000 106.06700,9.1000000 L 106.06700,9.1000000 z "
     id="path41" /><path
     style="fill:#bfa794;stroke:#000000;stroke-width:0.50000000"
     d="M 108.27700,8.4440000 C 108.39800,8.9440000 108.69200,9.3330000 109.00200,9.7390000 C 110.53900,11.733000 112.24800,13.253000 114.08600,14.910000 C 116.74500,17.310000 119.98200,18.682000 122.42500,21.203000 C 122.96000,21.747000 123.83200,21.756000 124.37600,21.221000 C 124.92000,20.694000 124.92800,19.814000 124.40200,19.270000 C 122.13100,16.810000 119.07600,15.506000 116.47700,13.296000 C 114.63800,11.742000 112.98900,10.266000 111.45300,8.3930000 C 111.18500,8.0570000 110.87400,7.7630000 110.79700,7.3230000 C 110.49500,6.6240000 109.67500,6.3130000 108.97600,6.6240000 C 108.27700,6.9240000 107.96600,7.7450000 108.27700,8.4440000 L 108.27700,8.4440000 z "
     id="path43" /><path
     style="fill:#bfa794;stroke:#000000;stroke-width:0.50000000"
     d="M 111.43600,8.8580000 C 115.06200,14.028000 120.30200,17.775000 125.67100,20.961000 C 126.32700,21.350000 127.17300,21.143000 127.57000,20.486000 C 127.95900,19.830000 127.74300,18.975000 127.08700,18.587000 C 122.06300,15.592000 117.11700,12.139000 113.71500,7.2960000 C 113.28300,6.6660000 112.42900,6.5020000 111.79800,6.9330000 C 111.16700,7.3640000 111.00400,8.2280000 111.43600,8.8580000 L 111.43600,8.8580000 z "
     id="path45" /><g
     id="g47">
			<line
   style="fill:none;stroke:#000000"
   x1="51.497002"
   y1="27.826000"
   x2="67.970001"
   y2="27.826000"
   id="line49" />
			<path
   d="M 70.586000,27.826000 C 69.355000,28.283000 67.827000,29.062000 66.881000,29.887000 L 67.626000,27.825000 L 66.880000,25.764000 C 67.828000,26.590000 69.355000,27.369000 70.586000,27.826000 z "
   id="path51" />
		</g><g
     id="g59">
			<line
   style="fill:none;stroke:#000000"
   x1="96.066002"
   y1="2.0610001"
   x2="79.593002"
   y2="2.0610001"
   id="line61" />
			<path
   d="M 76.976000,2.0610000 C 78.207000,2.5180000 79.735000,3.2970000 80.682000,4.1230000 L 79.936000,2.0610000 L 80.682000,0.0000000 C 79.735000,0.82500000 78.208000,1.6040000 76.976000,2.0610000 z "
   id="path63" />
		</g><path
     style="fill:#bfa794;stroke:#000000;stroke-width:0.50000000"
     d="M 114.77100,9.2070000 C 118.39600,12.395000 122.58300,14.957000 125.79200,18.624000 C 126.35400,19.249000 127.29200,19.312000 127.91700,18.749000 C 128.52100,18.187000 128.58400,17.249000 128.02100,16.624000 C 124.72900,12.812000 120.39600,10.082000 116.56300,6.8320000 C 115.91700,6.3320000 114.98000,6.4570000 114.48000,7.1240000 C 113.97900,7.7700000 114.10400,8.7070000 114.77100,9.2070000 L 114.77100,9.2070000 z "
     id="path65" /><path
     style="fill:#bfa794;stroke:#000000;stroke-width:0.50000000"
     d="M 118.60400,9.1240000 C 121.18700,10.812000 124.25000,12.166000 126.18700,14.624000 C 126.72900,15.249000 127.66600,15.312000 128.31200,14.791000 C 128.93700,14.249000 129.00000,13.291000 128.47900,12.666000 C 126.04100,9.8950000 122.68700,7.9160000 119.39600,6.2490000 C 118.60400,6.0200000 117.77100,6.4780000 117.56300,7.2910000 C 117.33300,8.0820000 117.79200,8.9160000 118.60400,9.1240000 L 118.60400,9.1240000 z "
     id="path67" /><path
     style="fill:#bfa794;stroke:#000000;stroke-width:0.50000000"
     d="M 122.10400,8.5620000 C 123.89600,9.9580000 125.62500,11.437000 127.35400,12.895000 C 127.95800,13.478000 128.89600,13.457000 129.47900,12.874000 C 130.06200,12.270000 130.04100,11.332000 129.45800,10.749000 C 127.72900,9.0820000 125.68700,7.7490000 123.89600,6.1450000 C 123.20800,5.6450000 122.27100,5.7910000 121.79200,6.4570000 C 121.29200,7.1450000 121.43800,8.0820000 122.10400,8.5620000 L 122.10400,8.5620000 z "
     id="path69" /><path
     style="fill:#bfa794;stroke:#000000;stroke-width:0.50000000"
     d="M 125.12500,7.8950000 C 125.60400,8.2280000 126.06300,8.6030000 126.50000,8.9780000 C 127.12500,9.5200000 128.08300,9.4360000 128.62500,8.8110000 C 129.14600,8.1860000 129.08300,7.2280000 128.43700,6.7070000 C 127.95800,6.2490000 127.43700,5.8530000 126.87500,5.4780000 C 126.20800,4.9780000 125.27100,5.1450000 124.79200,5.8110000 C 124.29200,6.4780000 124.45800,7.4160000 125.12500,7.8950000 L 125.12500,7.8950000 z "
     id="path71" /><path
     style="fill:#bfa794;stroke:#000000;stroke-width:0.50000000"
     d="M 16.688000,11.624000 C 19.834000,14.895000 22.834000,18.270000 26.105000,21.416000 C 26.793000,21.854000 27.730000,21.666000 28.188000,20.958000 C 28.626000,20.270000 28.438000,19.333000 27.730000,18.896000 C 24.688000,15.729000 21.668000,12.521000 18.647000,9.3340000 C 18.000000,8.8120000 17.062000,8.8950000 16.521000,9.5200000 C 15.980000,10.145000 16.062000,11.103000 16.688000,11.624000 L 16.688000,11.624000 z "
     id="path73" /><path
     style="fill:#bfa794;stroke:#000000;stroke-width:0.50000000"
     d="M 15.917000,13.457000 C 17.042000,17.124000 19.605000,20.165000 22.625000,22.415000 C 23.250000,22.977000 24.208000,22.915000 24.750000,22.290000 C 25.292000,21.665000 25.229000,20.728000 24.604000,20.165000 C 22.000000,18.207000 19.666000,15.665000 18.750000,12.457000 C 18.479000,11.665000 17.604000,11.269000 16.833000,11.540000 C 16.042000,11.812000 15.646000,12.666000 15.917000,13.457000 L 15.917000,13.457000 z "
     id="path75" /><path
     style="fill:#bfa794;stroke:#000000;stroke-width:0.50000000"
     d="M 15.354000,19.082000 C 15.979000,20.332000 16.896000,21.353000 18.021000,22.165000 C 18.667000,22.686000 19.604000,22.603000 20.125000,21.957000 C 20.667000,21.311000 20.563000,20.374000 19.917000,19.832000 C 19.167000,19.186000 18.334000,18.603000 17.979000,17.624000 C 17.583000,16.916000 16.667000,16.645000 15.937000,17.041000 C 15.229000,17.437000 14.958000,18.353000 15.354000,19.082000 L 15.354000,19.082000 z "
     id="path77" /></g>
</svg>