<?xml version="1.0" encoding="UTF-8" standalone="no"?>
<!-- Created with Inkscape (http://www.inkscape.org/) -->
<svg
   xmlns:dc="http://purl.org/dc/elements/1.1/"
   xmlns:cc="http://web.resource.org/cc/"
   xmlns:rdf="http://www.w3.org/1999/02/22-rdf-syntax-ns#"
   xmlns:svg="http://www.w3.org/2000/svg"
   xmlns="http://www.w3.org/2000/svg"
   xmlns:sodipodi="http://inkscape.sourceforge.net/DTD/sodipodi-0.dtd"
   xmlns:inkscape="http://www.inkscape.org/namespaces/inkscape"
   width="744.09448819"
   height="1052.3622047"
   id="svg2"
   sodipodi:version="0.32"
   sodipodi:docbase="/home/bcrowell/Documents/writing/lm/trunk/3vw/ch03/figs"
   sodipodi:docname="hull-speed.svg">
  <defs
     id="defs4">
    <marker
       inkscape:stockid="Arrow2Mstart"
       orient="auto"
       refY="0.0"
       refX="0.0"
       id="Arrow2Mstart"
       style="overflow:visible">
      <path
         sodipodi:nodetypes="cccc"
         id="path3855"
         style="font-size:12.0;fill-rule:evenodd;stroke-width:0.62500000;stroke-linejoin:round"
         d="M 8.7185878,4.0337352 L -2.2072895,0.016013256 L 8.7185884,-4.0017078 C 6.9730900,-1.6296469 6.9831476,1.6157441 8.7185878,4.0337352 z "
         transform="scale(0.6) translate(-5,0)" />
    </marker>
    <marker
       inkscape:stockid="Arrow2Mend"
       orient="auto"
       refY="0.0"
       refX="0.0"
       id="Arrow2Mend"
       style="overflow:visible;">
      <path
         sodipodi:nodetypes="cccc"
         id="path3864"
         style="font-size:12.0;fill-rule:evenodd;stroke-width:0.62500000;stroke-linejoin:round;"
         d="M 8.7185878,4.0337352 L -2.2072895,0.016013256 L 8.7185884,-4.0017078 C 6.9730900,-1.6296469 6.9831476,1.6157441 8.7185878,4.0337352 z "
         transform="scale(0.6) rotate(180) translate(-5,0)" />
    </marker>
  </defs>
  <sodipodi:namedview
     id="base"
     pagecolor="#ffffff"
     bordercolor="#666666"
     borderopacity="1.0"
     inkscape:pageopacity="0.0"
     inkscape:pageshadow="2"
     inkscape:zoom="2.2400043"
     inkscape:cx="127.83342"
     inkscape:cy="217.72918"
     inkscape:document-units="mm"
     inkscape:current-layer="layer1"
     inkscape:window-width="952"
     inkscape:window-height="735"
     inkscape:window-x="200"
     inkscape:window-y="200" />
  <metadata
     id="metadata7">
    <rdf:RDF>
      <cc:Work
         rdf:about="">
        <dc:format>image/svg+xml</dc:format>
        <dc:type
           rdf:resource="http://purl.org/dc/dcmitype/StillImage" />
      </cc:Work>
    </rdf:RDF>
  </metadata>
  <g
     inkscape:label="Layer 1"
     inkscape:groupmode="layer"
     id="layer1">
    <rect
       style="fill:#dedede;fill-opacity:1.0000000;fill-rule:evenodd;stroke:none;stroke-width:1.0000000pt;stroke-linecap:butt;stroke-linejoin:miter;stroke-opacity:1.0000000"
       id="rect3732"
       width="184.22292"
       height="101.15453"
       x="27.612165"
       y="720.03784" />
    <path
       style="fill:#ffffff;fill-opacity:1.0000000;fill-rule:evenodd;stroke:#000000;stroke-width:0.42428920;stroke-linecap:butt;stroke-linejoin:miter;stroke-miterlimit:4.0000000;stroke-dasharray:none;stroke-opacity:1.0000000"
       d="M 159.34077,764.41027 C 127.19413,783.38612 75.499334,808.06117 67.144057,809.67978 C 58.788779,811.29839 71.106134,799.86095 71.106134,799.86095 L 71.106134,799.86095"
       id="path3734" />
    <path
       style="fill:#3a3a3a;fill-opacity:1.0000000;fill-rule:evenodd;stroke:none;stroke-width:0.25000000pt;stroke-linecap:butt;stroke-linejoin:miter;stroke-opacity:1.0000000"
       d="M 72.764151,797.77613 C 72.764151,797.77613 105.93942,782.71644 127.99632,772.84133 C 150.05323,762.96621 172.71586,755.26973 172.71586,755.26973 L 171.72599,761.06366 L 98.523547,798.47994 L 72.671522,807.25348 L 72.764151,797.77613 z "
       id="path3736" />
    <path
       style="fill:#2b2b2b;fill-opacity:1.0000000;fill-rule:evenodd;stroke:#000000;stroke-width:0.70000005;stroke-linecap:butt;stroke-linejoin:miter;stroke-miterlimit:4.0000000;stroke-dasharray:none;stroke-opacity:1.0000000"
       d="M 174.59607,755.59375 L 160.50232,764.43750 L 67.752318,806.59375 L 138.75232,806.59375 C 139.72334,801.48123 142.58576,796.35041 149.31482,793.00000 C 167.33640,784.02702 173.28357,769.87501 173.28357,769.87500 L 174.59607,755.59375 z "
       id="path3738" />
    <path
       style="fill:#ffffff;fill-opacity:1.0000000;fill-rule:evenodd;stroke:none;stroke-width:0.70000005;stroke-linecap:butt;stroke-linejoin:miter;stroke-miterlimit:4.0000000;stroke-dasharray:none;stroke-opacity:1.0000000"
       d="M 74.752318,719.90625 C 74.752318,719.90627 75.852226,731.57141 76.564818,743.06250 L 76.377318,743.15625 C 77.081663,767.15561 76.283568,800.68750 76.283568,800.68750 C 76.283571,800.68748 112.62873,782.06158 115.03357,775.90625 C 116.35909,772.51353 110.51303,750.92016 103.97107,730.28125 L 101.40857,731.46875 L 97.033568,719.90625 L 74.752318,719.90625 z "
       id="path3742" />
    <path
       style="fill:#7d7d7d;fill-opacity:1.0000000;fill-rule:evenodd;stroke:none;stroke-width:0.25000000pt;stroke-linecap:butt;stroke-linejoin:miter;stroke-opacity:1.0000000"
       d="M 27.985566,781.10127 C 27.985566,781.10127 34.688956,775.23581 40.135456,774.39788 C 45.581956,773.55996 52.704296,779.84439 56.474956,783.19608 C 60.836426,787.07295 71.714686,794.54994 75.328226,797.44077 C 81.612646,802.46831 95.438376,804.56312 118.06230,799.53558 C 140.68622,794.50804 153.67404,779.00646 163.72911,777.74958 C 173.78419,776.49269 189.70473,776.91165 197.24604,780.26335 C 204.78735,783.61504 211.49073,784.03400 211.49073,784.03400 L 211.49073,820.48366 L 27.566606,820.48366 L 27.985566,781.10127 z "
       id="path3750"
       sodipodi:nodetypes="csssssscccc" />
    <path
       style="fill:none;fill-opacity:0.75000000;fill-rule:evenodd;stroke:#000000;stroke-width:0.62500000;stroke-linecap:butt;stroke-linejoin:miter;stroke-miterlimit:4.0000000;stroke-dasharray:none;stroke-opacity:1.0000000"
       d="M 74.717073,720.16079 C 74.717073,720.16079 76.700251,734.42319 76.700251,750.16274 C 76.700251,765.90230 76.700251,798.34999 76.700251,798.34999 L 76.700251,798.34999 L 76.458104,798.59214 L 76.458104,798.59214"
       id="path2121"
       sodipodi:nodetypes="cscccc" />
    <path
       style="fill:none;fill-opacity:0.75000000;fill-rule:evenodd;stroke:#000000;stroke-width:0.62500000;stroke-linecap:butt;stroke-linejoin:miter;stroke-miterlimit:4.0000000;stroke-dasharray:none;stroke-opacity:1.0000000"
       d="M 79.121721,799.56073 C 79.121721,799.56073 90.744776,793.50705 99.462068,787.93767 C 108.17936,782.36829 113.26445,778.97823 114.23304,777.52535 C 115.20162,776.07247 115.44377,771.71383 114.47518,768.32377 C 113.50659,764.93371 112.78015,762.02795 112.78015,762.02795"
       id="path2123" />
    <path
       style="fill:#ffffff;fill-opacity:1.0000000;fill-rule:evenodd;stroke:#000000;stroke-width:0.62500000;stroke-linecap:butt;stroke-linejoin:miter;stroke-miterlimit:4.0000000;stroke-dasharray:none;stroke-opacity:1.0000000"
       d="M 96.660444,720.10265 L 120.04456,779.46253 L 122.95033,778.00965 L 99.035908,720.08092"
       id="path2125"
       sodipodi:nodetypes="cccc" />
    <path
       style="fill:#ffffff;fill-opacity:1.0000000;fill-rule:evenodd;stroke:#000000;stroke-width:0.62500000;stroke-linecap:butt;stroke-linejoin:miter;stroke-miterlimit:4.0000000;stroke-dasharray:none;stroke-opacity:1.0000000"
       d="M 121.54345,720.03238 C 121.54345,720.03238 126.09824,727.15878 128.76185,738.29754 C 131.42547,749.43630 132.87835,753.31065 132.63621,756.94286 C 132.39406,760.57506 131.66762,766.62874 130.69903,769.77665 C 129.73044,772.92456 126.34038,780.67326 126.34038,780.67326 C 126.34038,780.67326 133.84694,770.50309 138.20559,766.14444 C 142.56423,761.78580 149.10220,755.00568 154.42944,752.09992 C 159.75667,749.19416 162.17814,748.22557 163.14673,747.98342 C 164.11531,747.74127 165.32605,747.74127 165.32605,747.74127 L 140.75293,719.92823"
       id="path2127"
       sodipodi:nodetypes="cssscssscc" />
    <g
       id="g3048"
       transform="translate(1.037186,-18.00000)">
      <g
         id="g2195">
        <rect
           style="fill:#dedede;fill-opacity:1.0000000;fill-rule:evenodd;stroke:none;stroke-width:1.0000000pt;stroke-linecap:butt;stroke-linejoin:miter;stroke-opacity:1.0000000"
           id="rect2184"
           width="184.25197"
           height="90.194878"
           x="26.537674"
           y="842.74536" />
        <path
           style="fill:#7d7d7d;fill-opacity:1.0000000;fill-rule:evenodd;stroke:none;stroke-width:1.0000000pt;stroke-linecap:butt;stroke-linejoin:miter;stroke-opacity:1.0000000"
           d="M 210.78866,916.40904 C 203.41315,917.37984 195.55433,918.52154 193.56991,919.31524 C 189.79074,920.82704 174.66743,919.34084 170.13241,920.09654 C 165.59740,920.85244 152.00327,918.55944 144.44491,919.31524 C 136.88656,920.07104 116.47408,922.34654 112.69491,922.34654 C 108.91574,922.34654 81.702430,923.10244 72.632410,922.34654 C 63.562390,921.59074 45.437000,919.32114 42.413660,918.56524 C 40.166220,918.00334 34.130750,917.44574 26.538660,917.81524 L 26.538660,932.94024 L 210.78866,932.94024 L 210.78866,916.40904 z "
           id="rect2190" />
      </g>
      <g
         transform="translate(0.000000,2.000000)"
         id="g3007">
        <g
           id="g2939"
           transform="translate(-5.239270,-6.410580)"
           style="fill:#f4f4f4;fill-opacity:1.0000000">
          <path
             id="path2941"
             d="M 180.15729,865.40573 C 177.33199,862.58042 172.96561,861.80989 170.91084,861.80989 C 168.85608,861.80989 162.94862,861.03935 159.60962,861.29619 C 156.27063,861.55304 144.71256,865.40573 140.34618,867.46050 C 135.97980,869.51526 130.32920,872.34057 128.27443,873.62480 C 126.21966,874.90903 124.42174,876.19326 120.82590,875.42272 C 117.23006,874.65218 112.60683,873.36795 110.29522,874.13849 C 107.98360,874.90903 104.13091,875.67956 101.30561,879.01856 C 98.480305,882.35756 98.737151,884.15548 98.737151,884.15548 L 103.61722,882.10071 C 103.61722,882.10071 106.44253,881.33017 107.46991,883.12809 C 108.49729,884.92601 109.01099,885.69655 109.01099,885.69655 C 109.01099,885.69655 94.627617,898.53885 89.747546,900.59361 C 84.867474,902.64838 76.648406,905.73053 74.079948,906.75791 C 71.511489,907.78530 68.429338,909.84006 68.429338,909.84006 L 64.319805,908.81268 C 64.319805,908.81268 57.384966,906.50107 55.073353,905.73053 C 52.761740,904.95999 50.193282,904.18945 50.193282,904.18945 C 50.193282,904.18945 65.090342,912.66537 66.888263,913.43591 C 68.686184,914.20644 69.456722,914.72014 69.456722,914.72014"
             style="fill:#f4f4f4;fill-opacity:1.0000000;fill-rule:evenodd;stroke:none;stroke-width:0.25000000pt;stroke-linecap:butt;stroke-linejoin:miter;stroke-opacity:1.0000000" />
          <path
             id="path2943"
             d="M 67.658801,916.00436 L 65.090342,919.60021 L 72.538872,917.54544 C 72.538872,917.54544 77.418944,918.05913 79.987403,918.31598 C 82.555861,918.57282 94.627617,916.26121 100.27823,914.97698 C 105.92884,913.69275 115.94583,912.15168 118.77113,909.84006 C 121.59644,907.52845 137.77773,900.33677 141.63041,897.25462 C 145.48310,894.17247 150.62002,890.57662 150.62002,890.57662"
             style="fill:#f4f4f4;fill-opacity:1.0000000;fill-rule:evenodd;stroke:none;stroke-width:0.25000000pt;stroke-linecap:butt;stroke-linejoin:miter;stroke-opacity:1.0000000" />
          <path
             id="path2945"
             d="M 172.03125,866.15625 C 170.95972,866.21645 169.95975,866.36644 169.12500,866.68750 C 165.78601,867.97175 162.43750,869.50000 162.43750,869.50000 L 162.34375,869.65625 L 129.59375,878.93750 L 105.03125,894.68750 L 84.187500,904.84375 L 72.687500,909.93750 L 68.406250,912.87500 L 67.593750,917.40625 L 93.531250,912.06250 L 128.28125,900.84375 L 140.84375,894.68750 L 148.09375,892.75000 L 147.53125,893.65625 C 147.53125,893.65627 148.57917,895.44226 146.78125,898.78125 C 144.98333,902.12022 143.93750,903.68750 143.93750,903.68750 C 143.93750,903.68748 147.54970,905.48840 150.37500,902.40625 C 153.20031,899.32409 156.77440,892.12411 157.03125,889.81250 C 157.28809,887.50088 157.56250,885.18750 157.56250,885.18750 L 163.21875,878.25000 C 163.21875,878.24997 172.20208,872.35358 174.00000,870.81250 C 175.79791,869.27142 178.87500,866.68750 178.87500,866.68750 C 178.87500,866.68751 175.24584,865.97566 172.03125,866.15625 z "
             style="fill:#f4f4f4;fill-opacity:1.0000000;fill-rule:evenodd;stroke:none;stroke-width:0.25000000pt;stroke-linecap:butt;stroke-linejoin:miter;stroke-opacity:1.0000000" />
          <path
             id="path2947"
             d="M 141.11672,888.77870 C 139.06196,892.37455 137.00719,894.17247 137.00719,894.17247 L 134.95242,895.71354 C 134.95242,895.71354 137.26403,897.51146 139.31880,896.22723 C 141.37357,894.94300 151.13371,885.69655 152.93163,883.12809 C 154.72955,880.55964 153.44532,879.78910 153.44532,879.78910"
             style="fill:#f4f4f4;fill-opacity:1.0000000;fill-rule:evenodd;stroke:none;stroke-width:0.25000000pt;stroke-linecap:butt;stroke-linejoin:miter;stroke-opacity:1.0000000" />
          <g
             style="fill:#f4f4f4;fill-opacity:1.0000000;stroke:none"
             transform="translate(8.841096,-61.61567)"
             id="g2949">
            <path
               style="fill:#f4f4f4;fill-opacity:1.0000000;fill-rule:evenodd;stroke:none;stroke-width:0.25000000pt;stroke-linecap:butt;stroke-linejoin:miter;stroke-opacity:1.0000000"
               d="M 160.27182,924.70979 C 160.27182,924.70979 154.87806,927.27824 150.25483,927.79194 C 145.63161,928.30563 142.29261,928.30563 138.69677,929.84670 C 135.10093,931.38778 120.20387,943.97323 119.17648,945.00061 C 118.14910,946.02799 112.75534,951.16491 111.72795,952.70599 C 110.70057,954.24706 112.49849,958.35659 112.49849,958.35659 C 112.49849,958.35659 113.78272,959.12713 113.52587,960.15452 C 113.26903,961.18190 106.33419,964.52090 104.53627,966.57566 C 102.73835,968.63043 93.748742,973.76735 93.748742,973.76735 L 83.731753,976.33581 C 83.731753,976.33581 89.382362,972.73996 90.409746,970.17150 C 91.437129,967.60305 95.803509,964.00720 95.803509,964.00720 C 95.803509,964.00720 95.032971,963.49351 97.344584,957.84290 C 99.656197,952.19229 109.15949,944.48692 109.15949,944.48692 C 109.15949,944.48692 113.01218,940.37738 115.83749,938.32262 C 118.66279,936.26785 136.64200,927.02140 142.29261,925.73717 C 147.94322,924.45294 155.90544,923.93925 157.44652,924.19609 C 158.98759,924.45294 159.75813,924.70979 160.27182,924.70979 z "
               id="path2951" />
            <path
               style="fill:#f4f4f4;fill-opacity:1.0000000;fill-rule:evenodd;stroke:none;stroke-width:0.25000000pt;stroke-linecap:butt;stroke-linejoin:miter;stroke-opacity:1.0000000"
               d="M 66.779926,968.63043 C 70.632614,969.65781 80.649603,969.65781 82.190678,968.11674 C 83.731753,966.57566 91.180283,963.49351 93.748742,959.38398 C 96.317201,955.27444 100.94043,950.13753 100.94043,950.13753 L 104.79311,945.25746 L 114.03957,938.32262 C 114.03957,938.32262 104.02258,935.49731 101.45412,936.52470 C 98.885659,937.55208 104.02258,937.29523 105.30681,938.83631 C 106.59104,940.37738 103.25204,944.74376 103.25204,944.74376 L 95.546663,952.44914 C 95.546663,952.44914 80.906449,963.23667 75.769531,965.03459 C 70.632614,966.83251 66.779926,968.11674 66.779926,968.63043 z "
               id="path2953" />
            <path
               style="fill:#f4f4f4;fill-opacity:1.0000000;fill-rule:evenodd;stroke:none;stroke-width:0.25000000pt;stroke-linecap:butt;stroke-linejoin:miter;stroke-opacity:1.0000000"
               d="M 139.72415,955.53129 C 139.72415,955.53129 137.66939,962.97982 136.89885,964.00720 C 136.12831,965.03459 136.89885,967.85989 140.75154,962.97982 C 144.60422,958.09975 148.45691,950.90806 148.20007,948.33961 C 147.94322,945.77115 146.14530,950.90806 146.14530,950.90806 L 139.72415,955.53129 z "
               id="path2955" />
            <path
               style="fill:#f4f4f4;fill-opacity:1.0000000;fill-rule:evenodd;stroke:none;stroke-width:0.25000000pt;stroke-linecap:butt;stroke-linejoin:miter;stroke-opacity:1.0000000"
               d="M 150.58300,929.87153 C 151.41809,930.40599 151.35128,930.65651 152.06946,930.37258 C 152.78763,930.08865 153.40560,930.08865 153.28868,929.70451 C 153.17177,929.32037 152.68742,929.01974 152.25318,929.11995 C 151.81893,929.22016 150.93374,929.60430 150.93374,929.60430 L 150.58300,929.87153 z "
               id="path2957" />
          </g>
        </g>
        <g
           id="g2996"
           transform="translate(-15.67108,-80.13210)">
          <path
             id="path2959"
             d="M 190.58910,939.12725 C 187.76380,936.30194 183.39742,935.53141 181.34265,935.53141 C 179.28789,935.53141 173.38043,934.76087 170.04143,935.01771 C 166.70244,935.27456 155.14437,939.12725 150.77799,941.18202 C 146.41161,943.23678 140.76101,946.06209 138.70624,947.34632 C 136.65147,948.63055 134.85355,949.91478 131.25771,949.14424 C 127.66187,948.37370 123.03864,947.08947 120.72703,947.86001 C 118.41541,948.63055 114.56273,949.40108 111.73742,952.74008 C 108.91212,956.07908 109.16896,957.87700 109.16896,957.87700 L 114.04903,955.82223 C 114.04903,955.82223 116.87434,955.05169 117.90172,956.84961 C 118.92911,958.64753 119.44280,959.41807 119.44280,959.41807 C 119.44280,959.41807 105.05943,972.26037 100.17936,974.31513 C 95.299287,976.36990 87.080219,979.45205 84.511761,980.47943 C 81.943302,981.50682 78.861151,983.56158 78.861151,983.56158 L 74.751618,982.53420 C 74.751618,982.53420 67.816779,980.22259 65.505166,979.45205 C 63.193553,978.68151 60.625095,977.91097 60.625095,977.91097 C 60.625095,977.91097 75.522155,986.38689 77.320076,987.15743 C 79.117997,987.92796 79.888535,988.44166 79.888535,988.44166"
             style="fill:none;fill-opacity:0.75000000;fill-rule:evenodd;stroke:#000000;stroke-width:0.25000000pt;stroke-linecap:butt;stroke-linejoin:miter;stroke-opacity:1.0000000" />
          <path
             id="path2961"
             d="M 78.090614,989.72588 L 75.522155,993.32173 L 82.970685,991.26696 C 82.970685,991.26696 87.850757,991.78065 90.419216,992.03750 C 92.987674,992.29434 105.05943,989.98273 110.71004,988.69850 C 116.36065,987.41427 126.37764,985.87320 129.20294,983.56158 C 132.02825,981.24997 148.20954,974.05829 152.06222,970.97614 C 155.91491,967.89399 161.05183,964.29814 161.05183,964.29814"
             style="fill:none;fill-opacity:0.75000000;fill-rule:evenodd;stroke:#000000;stroke-width:0.25000000pt;stroke-linecap:butt;stroke-linejoin:miter;stroke-opacity:1.0000000" />
          <path
             id="path2963"
             d="M 157.96968,967.38029 C 157.96968,967.38029 158.99706,969.17822 157.19914,972.51721 C 155.40122,975.85621 154.37384,977.39728 154.37384,977.39728 C 154.37384,977.39728 157.96968,979.19520 160.79498,976.11305 C 163.62029,973.03090 167.21613,965.83922 167.47298,963.52761 C 167.72982,961.21599 167.98667,958.90438 167.98667,958.90438 L 173.63728,951.96954 C 173.63728,951.96954 182.62688,946.06209 184.42480,944.52101 C 186.22272,942.97994 189.30487,940.41148 189.30487,940.41148 C 189.30487,940.41148 182.88373,939.12725 179.54473,940.41148 C 176.20574,941.69571 172.86674,943.23678 172.86674,943.23678"
             style="fill:none;fill-opacity:0.75000000;fill-rule:evenodd;stroke:#000000;stroke-width:0.25000000pt;stroke-linecap:butt;stroke-linejoin:miter;stroke-opacity:1.0000000" />
          <path
             id="path2965"
             d="M 151.54853,962.50022 C 149.49377,966.09607 147.43900,967.89399 147.43900,967.89399 L 145.38423,969.43506 C 145.38423,969.43506 147.69584,971.23298 149.75061,969.94875 C 151.80538,968.66452 161.56552,959.41807 163.36344,956.84961 C 165.16136,954.28116 163.87713,953.51062 163.87713,953.51062"
             style="fill:none;fill-opacity:0.75000000;fill-rule:evenodd;stroke:#000000;stroke-width:0.25000000pt;stroke-linecap:butt;stroke-linejoin:miter;stroke-opacity:1.0000000" />
          <g
             transform="translate(19.27291,12.10585)"
             id="g2967">
            <path
               style="fill:#919191;fill-opacity:1.0000000;fill-rule:evenodd;stroke:none;stroke-width:0.25000000pt;stroke-linecap:butt;stroke-linejoin:miter;stroke-opacity:1.0000000"
               d="M 160.27182,924.70979 C 160.27182,924.70979 154.87806,927.27824 150.25483,927.79194 C 145.63161,928.30563 142.29261,928.30563 138.69677,929.84670 C 135.10093,931.38778 120.20387,943.97323 119.17648,945.00061 C 118.14910,946.02799 112.75534,951.16491 111.72795,952.70599 C 110.70057,954.24706 112.49849,958.35659 112.49849,958.35659 C 112.49849,958.35659 113.78272,959.12713 113.52587,960.15452 C 113.26903,961.18190 106.33419,964.52090 104.53627,966.57566 C 102.73835,968.63043 93.748742,973.76735 93.748742,973.76735 L 83.731753,976.33581 C 83.731753,976.33581 89.382362,972.73996 90.409746,970.17150 C 91.437129,967.60305 95.803509,964.00720 95.803509,964.00720 C 95.803509,964.00720 95.032971,963.49351 97.344584,957.84290 C 99.656197,952.19229 109.15949,944.48692 109.15949,944.48692 C 109.15949,944.48692 113.01218,940.37738 115.83749,938.32262 C 118.66279,936.26785 136.64200,927.02140 142.29261,925.73717 C 147.94322,924.45294 155.90544,923.93925 157.44652,924.19609 C 158.98759,924.45294 159.75813,924.70979 160.27182,924.70979 z "
               id="path2969" />
            <path
               style="fill:#919191;fill-opacity:1.0000000;fill-rule:evenodd;stroke:none;stroke-width:0.25000000pt;stroke-linecap:butt;stroke-linejoin:miter;stroke-opacity:1.0000000"
               d="M 66.779926,968.63043 C 70.632614,969.65781 80.649603,969.65781 82.190678,968.11674 C 83.731753,966.57566 91.180283,963.49351 93.748742,959.38398 C 96.317201,955.27444 100.94043,950.13753 100.94043,950.13753 L 104.79311,945.25746 L 114.03957,938.32262 C 114.03957,938.32262 104.02258,935.49731 101.45412,936.52470 C 98.885659,937.55208 104.02258,937.29523 105.30681,938.83631 C 106.59104,940.37738 103.25204,944.74376 103.25204,944.74376 L 95.546663,952.44914 C 95.546663,952.44914 80.906449,963.23667 75.769531,965.03459 C 70.632614,966.83251 66.779926,968.11674 66.779926,968.63043 z "
               id="path2971" />
            <path
               style="fill:#919191;fill-opacity:1.0000000;fill-rule:evenodd;stroke:none;stroke-width:0.25000000pt;stroke-linecap:butt;stroke-linejoin:miter;stroke-opacity:1.0000000"
               d="M 139.72415,955.53129 C 139.72415,955.53129 137.66939,962.97982 136.89885,964.00720 C 136.12831,965.03459 136.89885,967.85989 140.75154,962.97982 C 144.60422,958.09975 148.45691,950.90806 148.20007,948.33961 C 147.94322,945.77115 146.14530,950.90806 146.14530,950.90806 L 139.72415,955.53129 z "
               id="path2973" />
            <path
               style="fill:#919191;fill-opacity:1.0000000;fill-rule:evenodd;stroke:none;stroke-width:0.25000000pt;stroke-linecap:butt;stroke-linejoin:miter;stroke-opacity:1.0000000"
               d="M 150.58300,929.87153 C 151.41809,930.40599 151.35128,930.65651 152.06946,930.37258 C 152.78763,930.08865 153.40560,930.08865 153.28868,929.70451 C 153.17177,929.32037 152.68742,929.01974 152.25318,929.11995 C 151.81893,929.22016 150.93374,929.60430 150.93374,929.60430 L 150.58300,929.87153 z "
               id="path2975" />
          </g>
        </g>
      </g>
    </g>
    <g
       id="g2872"
       transform="translate(-1.028932,98.00000)">
      <path
         id="path2130"
         d="M 40.270601,737.29060 C 44.824595,735.10468 46.646192,737.10844 46.646192,737.10844"
         style="fill:none;fill-opacity:0.75000000;fill-rule:evenodd;stroke:#000000;stroke-width:0.34999999;stroke-linecap:butt;stroke-linejoin:miter;stroke-miterlimit:4.0000000;stroke-dasharray:none;stroke-opacity:1.0000000" />
      <path
         id="path2870"
         d="M 53.104839,737.45991 C 48.550845,735.27399 46.729248,737.27775 46.729248,737.27775"
         style="fill:none;fill-opacity:0.75000000;fill-rule:evenodd;stroke:#000000;stroke-width:0.34999999;stroke-linecap:butt;stroke-linejoin:miter;stroke-miterlimit:4.0000000;stroke-dasharray:none;stroke-opacity:1.0000000" />
    </g>
    <g
       id="g2876"
       transform="matrix(0.700000,0.000000,0.000000,0.700000,21.00107,336.3167)">
      <path
         id="path2878"
         d="M 40.270601,737.29060 C 44.824595,735.10468 46.646192,737.10844 46.646192,737.10844"
         style="fill:none;fill-opacity:0.75000000;fill-rule:evenodd;stroke:#000000;stroke-width:0.34999999;stroke-linecap:butt;stroke-linejoin:miter;stroke-miterlimit:4.0000000;stroke-dasharray:none;stroke-opacity:1.0000000" />
      <path
         id="path2880"
         d="M 53.104839,737.45991 C 48.550845,735.27399 46.729248,737.27775 46.729248,737.27775"
         style="fill:none;fill-opacity:0.75000000;fill-rule:evenodd;stroke:#000000;stroke-width:0.34999999;stroke-linecap:butt;stroke-linejoin:miter;stroke-miterlimit:4.0000000;stroke-dasharray:none;stroke-opacity:1.0000000" />
    </g>
    <g
       id="g2882"
       transform="matrix(0.650000,0.000000,0.000000,0.650000,33.93386,360.9045)">
      <path
         id="path2884"
         d="M 40.270601,737.29060 C 44.824595,735.10468 46.646192,737.10844 46.646192,737.10844"
         style="fill:none;fill-opacity:0.75000000;fill-rule:evenodd;stroke:#000000;stroke-width:0.34999999;stroke-linecap:butt;stroke-linejoin:miter;stroke-miterlimit:4.0000000;stroke-dasharray:none;stroke-opacity:1.0000000" />
      <path
         id="path2886"
         d="M 53.104839,737.45991 C 48.550845,735.27399 46.729248,737.27775 46.729248,737.27775"
         style="fill:none;fill-opacity:0.75000000;fill-rule:evenodd;stroke:#000000;stroke-width:0.34999999;stroke-linecap:butt;stroke-linejoin:miter;stroke-miterlimit:4.0000000;stroke-dasharray:none;stroke-opacity:1.0000000" />
    </g>
  </g>
</svg>
