<?xml version="1.0" encoding="UTF-8" standalone="no"?>
<!-- Generator: Adobe Illustrator 11 Build 196, SVG Export Plug-In . SVG Version: 6.0.0 Build 78)  -->
<svg
   xmlns:dc="http://purl.org/dc/elements/1.1/"
   xmlns:cc="http://web.resource.org/cc/"
   xmlns:rdf="http://www.w3.org/1999/02/22-rdf-syntax-ns#"
   xmlns:svg="http://www.w3.org/2000/svg"
   xmlns="http://www.w3.org/2000/svg"
   xmlns:sodipodi="http://inkscape.sourceforge.net/DTD/sodipodi-0.dtd"
   xmlns:inkscape="http://www.inkscape.org/namespaces/inkscape"
   width="142.833"
   height="529.331"
   viewBox="0 0 142.833 529.331"
   style="overflow:visible;enable-background:new 0 0 142.833 529.331"
   xml:space="preserve"
   id="svg2"
   sodipodi:version="0.32"
   sodipodi:docname="into-slower.svg"
   sodipodi:docbase="/home/bcrowell/Documents/writing/lm/trunk/3vw/ch04/figs"><metadata
   id="metadata196"><rdf:RDF><cc:Work
       rdf:about=""><dc:format>image/svg+xml</dc:format><dc:type
         rdf:resource="http://purl.org/dc/dcmitype/StillImage" /></cc:Work></rdf:RDF></metadata><defs
   id="defs194">
		
		
		
		
		
		
		
		
		
		
		
		
		
		
		
		
		
		
		
		
		
		
		
		
		
		
		
		
		
		
		
		
		
		
		
		
		
		
		
		
		
		
		
		
		
		
		
		
		
		
		
		
		
		
		
		
		
		
		
		
		
		
		
		
		
		
		
		
		
		
		
		
		
		
		
		
		
		
		
		
		
		
		
		
		
		
		
		
		
		
		
		
		
		
	</defs><sodipodi:namedview
   inkscape:cy="301.31475"
   inkscape:cx="109.23969"
   inkscape:zoom="1.4356631"
   inkscape:window-height="996"
   inkscape:window-width="1278"
   inkscape:pageshadow="2"
   inkscape:pageopacity="0.0"
   borderopacity="1.0"
   bordercolor="#666666"
   pagecolor="#ffffff"
   id="base"
   inkscape:window-x="0"
   inkscape:window-y="0"
   inkscape:current-layer="svg2" />
	<rect
   style="fill:#dedede;fill-opacity:1.0000000;fill-rule:evenodd;stroke:none;stroke-width:1.0970435pt;stroke-linecap:butt;stroke-linejoin:miter;stroke-opacity:1.0000000"
   id="rect1700"
   width="182.74760"
   height="468.77295"
   x="-18.569353"
   y="-4.9169188" /><line
   id="line21"
   y2="455.53235"
   x2="72.489166"
   y1="-0.034838222"
   x1="72.489166"
   style="fill:none;stroke:#000000;stroke-width:0.43032354;stroke-dasharray:1.7212942 " /><g
   id="g1615"
   transform="translate(0.000000,-6.312158)"><polyline
     style="fill:none;stroke:#ff0000;stroke-width:1.5000000"
     points="5.256,78.244 38.319,78.244 62.234,61.231 72.024,78.244     140.077,78.244 "
     id="polyline5" /><polyline
     style="fill:none;stroke:#000000;stroke-width:0.50000000"
     points="140.397,78.378 72.265,78.378 62.421,60.83 38.239,78.164     5.256,78.164 "
     id="polyline23" /></g><path
   id="path37"
   style="fill:none;stroke:#000000;stroke-width:0.50000000"
   d="" /><g
   id="g1619"
   transform="translate(0.000000,-15.33090)"><polyline
     style="fill:none;stroke:#ff0000;stroke-width:1.5000000"
     points="4.935,132.654 43.455,132.654 67.209,115.641     72.104,127.277 74.432,132.814 140.719,132.814 "
     id="polyline7" /><polyline
     style="fill:none;stroke:#000000;stroke-width:0.50000000"
     points="72.009,123.434 67.517,115.425 43.334,132.759     5.042,132.759 "
     id="polyline25" /><line
     style="fill:none;stroke:#000000;stroke-width:0.50000000"
     x1="66.982002"
     y1="132.95300"
     x2="71.961998"
     y2="135.91200"
     id="line41" /><polyline
     style="fill:none;stroke:#000000;stroke-width:0.50000000"
     points="140.719,132.92 74.625,132.92 71.988,126.65 "
     id="polyline57" /></g><g
   id="g1625"
   transform="translate(0.000000,-22.52362)"><polyline
     style="fill:none;stroke:#ff0000;stroke-width:1.5000000"
     points="4.935,187.224 48.752,187.224 62.395,177.273     72.185,175.507 77.16,187.224 140.719,187.224 "
     id="polyline9" /><polyline
     style="fill:none;stroke:#000000;stroke-width:0.50000000"
     points="71.966,170.483 48.43,187.355 5.042,187.355 "
     id="polyline27" /><polyline
     style="fill:none;stroke:#000000;stroke-width:0.50000000"
     points="61.887,187.549 71.731,193.398 72.12,193.305 "
     id="polyline43" /><polyline
     style="fill:none;stroke:#000000;stroke-width:0.50000000"
     points="140.719,187.515 77.173,187.515 72.251,175.816 "
     id="polyline59" /></g><g
   id="g1631"
   transform="translate(0.000000,-30.45534)"><polyline
     style="fill:none;stroke:#ff0000;stroke-width:1.5000000"
     points="5.256,241.955 53.727,241.955 57.579,238.745     66.888,237.621 74.753,230.238 79.568,242.115 140.719,242.115 "
     id="polyline11" /><polyline
     style="fill:none;stroke:#000000;stroke-width:0.50000000"
     points="71.999,228.708 53.525,241.95 5.096,241.95 "
     id="polyline29" /><polyline
     style="fill:none;stroke:#000000;stroke-width:0.50000000"
     points="56.791,242.144 66.635,247.994 71.934,246.728 "
     id="polyline45" /><polyline
     style="fill:none;stroke:#000000;stroke-width:0.50000000"
     points="140.558,242.111 79.721,242.111 74.799,230.412     72.154,232.94 "
     id="polyline61" /></g><g
   id="g1637"
   transform="translate(0.000000,-39.39108)"><polyline
     style="fill:none;stroke:#ff0000;stroke-width:1.5000000"
     points="5.256,296.579 52.336,296.579 58.703,301.019     61.752,299.789 77.16,284.808 82.296,296.899 140.077,296.899 "
     id="polyline13" /><polyline
     style="fill:none;stroke:#000000;stroke-width:0.50000000"
     points="72.007,286.951 58.621,296.546 4.774,296.546 "
     id="polyline31" /><polyline
     style="fill:none;stroke:#000000;stroke-width:0.50000000"
     points="51.641,296.74 51.696,296.74 61.54,302.589 71.954,300.101     "
     id="polyline47" /><polyline
     style="fill:none;stroke:#000000;stroke-width:0.50000000"
     points="140.558,296.706 82.269,296.706 77.347,285.007     71.937,290.178 "
     id="polyline63" /></g><g
   id="g1643"
   transform="translate(0.000000,-48.94481)"><polyline
     style="fill:none;stroke:#ff0000;stroke-width:1.5000000"
     points="4.935,351.416 46.986,351.416 56.295,357.355     64.32,354.787 79.568,340.021 84.945,351.336 141.04,351.336 "
     id="polyline15" /><polyline
     style="fill:none;stroke:#000000;stroke-width:0.50000000"
     points="72.005,345.2 63.717,351.141 44.457,351.141 "
     id="polyline33" /><polyline
     style="fill:none;stroke:#000000;stroke-width:0.50000000"
     points="4.614,351.335 46.6,351.335 56.444,357.185 72.009,353.465     "
     id="polyline49" /><polyline
     style="fill:none;stroke:#000000;stroke-width:0.50000000"
     points="140.558,351.302 84.816,351.302 79.895,339.603     72.03,347.12 "
     id="polyline65" /></g><g
   id="g1649"
   transform="translate(0.000000,-57.90954)"><polyline
     style="fill:none;stroke:#ff0000;stroke-width:1.5000000"
     points="4.935,405.986 41.369,405.986 51.32,411.925     68.975,407.271 82.136,394.751 87.272,405.986 140.077,405.986 "
     id="polyline17" /><polyline
     style="fill:none;stroke:#000000;stroke-width:0.50000000"
     points="72.039,403.424 68.812,405.737 41.85,405.737 "
     id="polyline35" /><polyline
     style="fill:none;stroke:#000000;stroke-width:0.50000000"
     points="4.935,405.931 41.504,405.931 51.349,411.78     72.053,406.833 "
     id="polyline51" /><polyline
     style="fill:none;stroke:#000000;stroke-width:0.50000000"
     points="140.558,405.897 87.364,405.897 82.442,394.198     71.948,404.229 "
     id="polyline67" /></g><g
   id="g1655"
   transform="translate(0.000000,-66.40026)"><polyline
     style="fill:none;stroke:#ff0000;stroke-width:1.5000000"
     points="5.256,460.557 36.393,460.557 46.344,466.495     71.864,460.236 84.99,448.794 90,460.717 140.077,460.717 "
     id="polyline19" /><polyline
     style="fill:none;stroke:#000000;stroke-width:0.50000000"
     points="5.096,460.526 36.409,460.526 46.253,466.375     70.435,460.598 71.864,460.598 "
     id="polyline53" /><polyline
     style="fill:none;stroke:#000000;stroke-width:0.50000000"
     points="140.719,460.493 89.912,460.493 84.99,448.794     72.899,460.35 36.554,460.35 "
     id="polyline69" /></g><g
   id="g1588"
   transform="translate(0.000000,1.235362e-5)"><polyline
     style="fill:none;stroke:#a9521b"
     points="72.024,23.782 67.169,23.782 57.326,6.234 33.144,23.568 4.614,23.568 "
     id="polyline39" /><path
     style="fill:#8e7c6d"
     d="M 71.984000,22.952000 C 72.686000,23.875000 73.408000,24.898000 74.592000,25.239000 C 75.234000,25.520000 75.996000,25.239000 76.278000,24.597000 C 76.579000,23.935000 76.278000,23.173000 75.636000,22.891000 C 74.813000,22.731000 74.392000,22.008000 73.990000,21.347000 C 73.549000,20.785000 72.746000,20.705000 72.185000,21.146000 C 71.623000,21.587000 71.543000,22.390000 71.984000,22.952000 L 71.984000,22.952000 z "
     id="path71" /><path
     style="fill:#8e7c6d"
     d="M 75.495000,23.533000 C 76.237000,24.014000 76.939000,24.536000 77.702000,24.978000 C 77.682000,24.938000 77.641000,24.917000 77.622000,24.877000 C 78.244000,25.218000 79.026000,24.998000 79.367000,24.376000 C 79.708000,23.754000 79.488000,22.972000 78.866000,22.630000 C 77.883000,22.771000 77.783000,21.587000 76.900000,21.406000 C 76.318000,21.005000 75.516000,21.165000 75.134000,21.767000 C 74.733000,22.350000 74.893000,23.152000 75.495000,23.533000 L 75.495000,23.533000 z "
     id="path73" /><path
     style="fill:#8e7c6d"
     d="M 77.742000,23.112000 C 78.504000,24.055000 79.146000,25.319000 80.410000,25.700000 C 81.052000,25.981000 81.814000,25.700000 82.115000,25.058000 C 82.396000,24.416000 82.115000,23.654000 81.473000,23.352000 C 80.450000,23.252000 80.430000,22.148000 79.788000,21.566000 C 79.367000,21.004000 78.564000,20.884000 77.982000,21.326000 C 77.421000,21.748000 77.321000,22.550000 77.742000,23.112000 L 77.742000,23.112000 z "
     id="path75" /><path
     style="fill:#8e7c6d"
     d="M 79.729000,23.219000 C 80.612000,23.968000 81.441000,24.770000 82.404000,25.426000 C 83.006000,25.801000 83.795000,25.627000 84.170000,25.025000 C 84.545000,24.423000 84.371000,23.634000 83.769000,23.259000 C 82.926000,22.670000 82.204000,21.975000 81.442000,21.293000 C 80.921000,20.825000 80.105000,20.865000 79.623000,21.400000 C 79.153000,21.921000 79.193000,22.737000 79.729000,23.219000 L 79.729000,23.219000 z "
     id="path77" /><path
     style="fill:#8e7c6d"
     d="M 82.363000,23.259000 C 83.433000,24.075000 84.356000,25.091000 85.452000,25.880000 C 86.000000,26.321000 86.803000,26.241000 87.258000,25.693000 C 87.699000,25.131000 87.606000,24.329000 87.058000,23.887000 C 86.001000,23.031000 85.025000,22.081000 83.941000,21.252000 C 83.393000,20.811000 82.590000,20.904000 82.149000,21.466000 C 81.708000,22.015000 81.802000,22.818000 82.363000,23.259000 L 82.363000,23.259000 z "
     id="path79" /><path
     style="fill:#8e7c6d"
     d="M 85.399000,22.657000 C 87.111000,23.740000 88.208000,25.639000 90.107000,26.429000 C 90.762000,26.696000 91.511000,26.388000 91.792000,25.733000 C 92.060000,25.078000 91.752000,24.329000 91.110000,24.061000 C 89.479000,23.178000 88.462000,21.547000 86.897000,20.570000 C 86.322000,20.155000 85.519000,20.289000 85.105000,20.864000 C 84.690000,21.440000 84.824000,22.243000 85.399000,22.657000 L 85.399000,22.657000 z "
     id="path81" /><path
     style="fill:#8e7c6d"
     d="M 88.917000,23.192000 C 90.027000,24.302000 91.231000,25.345000 92.635000,26.081000 C 93.250000,26.429000 94.026000,26.215000 94.374000,25.600000 C 94.722000,24.985000 94.508000,24.196000 93.893000,23.848000 C 92.676000,23.193000 91.646000,22.283000 90.656000,21.320000 C 90.135000,20.839000 89.332000,20.865000 88.850000,21.387000 C 88.368000,21.909000 88.396000,22.711000 88.917000,23.192000 L 88.917000,23.192000 z "
     id="path83" /><path
     style="fill:#8e7c6d"
     d="M 92.127000,24.008000 C 93.170000,24.676000 94.240000,25.279000 95.123000,26.175000 C 95.578000,26.710000 96.380000,26.790000 96.929000,26.336000 C 97.477000,25.881000 97.544000,25.065000 97.090000,24.517000 C 96.020000,23.407000 94.736000,22.591000 93.439000,21.788000 C 92.824000,21.427000 92.034000,21.641000 91.673000,22.243000 C 91.311000,22.858000 91.525000,23.647000 92.127000,24.008000 L 92.127000,24.008000 z "
     id="path85" /><path
     style="fill:#8e7c6d"
     d="M 94.749000,23.821000 C 96.314000,24.758000 97.611000,26.028000 99.136000,27.018000 C 99.698000,27.459000 100.50000,27.352000 100.94200,26.790000 C 101.38300,26.242000 101.27600,25.426000 100.71400,24.998000 C 99.082000,23.901000 97.651000,22.550000 95.952000,21.547000 C 95.324000,21.213000 94.548000,21.453000 94.213000,22.082000 C 93.879000,22.711000 94.120000,23.486000 94.749000,23.821000 L 94.749000,23.821000 z "
     id="path87" /><path
     style="fill:#8e7c6d"
     d="M 97.678000,23.888000 C 99.310000,24.423000 100.86100,25.132000 102.38600,25.908000 C 103.04100,26.189000 103.79000,25.908000 104.08500,25.266000 C 104.37900,24.611000 104.09800,23.849000 103.44300,23.568000 C 101.89100,22.712000 100.24600,22.083000 98.588000,21.481000 C 97.932000,21.227000 97.183000,21.562000 96.929000,22.230000 C 96.674000,22.885000 97.009000,23.634000 97.678000,23.888000 L 97.678000,23.888000 z "
     id="path89" /><path
     style="fill:#8e7c6d"
     d="M 100.43300,22.952000 C 101.79700,24.410000 103.44200,25.507000 105.24800,26.322000 C 105.87600,26.656000 106.65200,26.429000 107.00000,25.801000 C 107.33400,25.186000 107.10700,24.410000 106.47900,24.062000 C 104.91400,23.327000 103.44300,22.417000 102.25200,21.133000 C 101.74400,20.638000 100.94100,20.638000 100.43300,21.133000 C 99.938000,21.641000 99.938000,22.443000 100.43300,22.952000 L 100.43300,22.952000 z "
     id="path91" /><path
     style="fill:#8e7c6d"
     d="M 104.24500,23.955000 C 105.24800,24.784000 106.29100,25.574000 107.46900,26.135000 C 108.09700,26.469000 108.87300,26.215000 109.19500,25.587000 C 109.51600,24.945000 109.27500,24.183000 108.63300,23.848000 C 107.53600,23.367000 106.66700,22.551000 105.71700,21.842000 C 105.12800,21.441000 104.32600,21.588000 103.92500,22.163000 C 103.52200,22.751000 103.67000,23.553000 104.24500,23.955000 L 104.24500,23.955000 z "
     id="path93" /><path
     style="fill:#8e7c6d"
     d="M 106.19800,22.644000 C 107.20100,24.155000 108.71200,25.359000 110.31700,26.215000 C 110.97300,26.496000 111.72200,26.215000 112.01600,25.560000 C 112.31000,24.918000 112.01600,24.156000 111.36100,23.861000 C 110.18400,23.313000 109.35500,22.310000 108.37900,21.507000 C 108.40500,21.480000 108.44600,21.467000 108.47200,21.440000 C 108.13800,20.812000 107.34800,20.571000 106.73300,20.905000 C 106.10400,21.240000 105.86300,22.029000 106.19800,22.644000 L 106.19800,22.644000 z "
     id="path95" /><path
     style="fill:#8e7c6d"
     d="M 109.56800,24.062000 C 110.35700,24.597000 111.22600,24.999000 112.01500,25.547000 C 112.57700,25.975000 113.37900,25.841000 113.80700,25.266000 C 114.22200,24.704000 114.10100,23.902000 113.52600,23.474000 C 112.60300,22.832000 111.64000,22.284000 110.66400,21.735000 C 110.02200,21.441000 109.24600,21.708000 108.95200,22.350000 C 108.65900,22.992000 108.92600,23.767000 109.56800,24.062000 L 109.56800,24.062000 z "
     id="path97" /><path
     style="fill:#8e7c6d"
     d="M 111.20000,23.446000 C 112.53800,24.476000 113.64800,25.854000 115.22600,26.536000 C 115.86800,26.844000 116.63000,26.563000 116.92500,25.921000 C 117.23300,25.279000 116.95200,24.516000 116.31000,24.222000 C 115.02600,23.486000 113.99600,22.443000 112.88600,21.493000 C 112.35100,21.038000 111.53500,21.092000 111.06700,21.627000 C 110.61100,22.163000 110.66500,22.978000 111.20000,23.446000 L 111.20000,23.446000 z "
     id="path99" /><path
     style="fill:#8e7c6d"
     d="M 113.83500,23.486000 C 115.22600,24.476000 116.63000,25.452000 118.02100,26.442000 C 118.62300,26.817000 119.41200,26.629000 119.80000,26.041000 C 120.17500,25.439000 119.98800,24.637000 119.38500,24.262000 C 118.04800,23.339000 116.73700,22.376000 115.38600,21.453000 C 114.82400,21.025000 114.02200,21.132000 113.59400,21.694000 C 113.16600,22.256000 113.27300,23.059000 113.83500,23.486000 L 113.83500,23.486000 z "
     id="path101" /><path
     style="fill:#8e7c6d"
     d="M 116.85700,24.276000 C 118.04700,24.944000 119.13100,25.760000 120.28100,26.496000 C 120.88300,26.884000 121.67200,26.710000 122.06000,26.121000 C 122.44800,25.519000 122.27400,24.730000 121.68500,24.342000 C 120.41400,23.580000 119.26400,22.604000 117.92700,21.948000 C 117.28500,21.654000 116.52200,21.935000 116.22800,22.577000 C 115.93500,23.219000 116.21500,23.981000 116.85700,24.276000 L 116.85700,24.276000 z "
     id="path103" /><path
     style="fill:#8e7c6d"
     d="M 118.56900,23.299000 C 119.74600,24.235000 121.11100,24.944000 122.55500,25.372000 C 122.54200,25.412000 122.51500,25.452000 122.50200,25.492000 C 123.11700,25.840000 123.90600,25.639000 124.26700,25.024000 C 124.61500,24.409000 124.41400,23.619000 123.79900,23.272000 C 122.62200,22.470000 121.09700,22.282000 120.06700,21.212000 C 119.49200,20.797000 118.69000,20.931000 118.27500,21.506000 C 117.86000,22.081000 117.99500,22.885000 118.56900,23.299000 L 118.56900,23.299000 z "
     id="path105" /><path
     style="fill:#8e7c6d"
     d="M 120.60300,23.393000 C 122.06100,24.410000 123.62600,25.292000 125.37800,25.640000 C 126.07300,25.801000 126.76900,25.359000 126.92900,24.677000 C 127.07600,23.982000 126.64800,23.286000 125.96600,23.139000 C 124.53500,22.831000 123.26400,22.096000 122.06100,21.280000 C 121.47300,20.879000 120.67000,21.026000 120.26900,21.614000 C 119.86700,22.203000 120.01400,22.992000 120.60300,23.393000 L 120.60300,23.393000 z "
     id="path107" /><path
     style="fill:#8e7c6d"
     d="M 124.50800,23.901000 C 125.44500,24.677000 126.48700,25.279000 127.54500,25.880000 C 128.17300,26.201000 128.94900,25.961000 129.28300,25.332000 C 129.60400,24.690000 129.36400,23.928000 128.72100,23.593000 C 127.78500,23.125000 126.94200,22.536000 126.11300,21.895000 C 125.56500,21.454000 124.76200,21.534000 124.30800,22.096000 C 123.86600,22.644000 123.94600,23.446000 124.50800,23.901000 L 124.50800,23.901000 z "
     id="path109" /><path
     style="fill:#8e7c6d"
     d="M 126.47400,23.634000 C 127.90500,24.610000 129.63100,25.025000 131.06200,26.001000 C 131.63700,26.416000 132.43900,26.282000 132.85400,25.707000 C 133.26900,25.132000 133.13500,24.330000 132.56000,23.915000 C 131.03600,22.791000 129.13600,22.363000 127.57100,21.307000 C 126.92900,21.013000 126.15400,21.281000 125.85900,21.922000 C 125.56400,22.563000 125.83200,23.339000 126.47400,23.634000 L 126.47400,23.634000 z "
     id="path111" /><path
     style="fill:#8e7c6d"
     d="M 130.39300,23.794000 C 131.71700,24.383000 133.01500,24.984000 134.24500,25.760000 C 134.83300,26.161000 135.63600,26.014000 136.03700,25.426000 C 136.43800,24.851000 136.29100,24.049000 135.70300,23.647000 C 134.31200,22.778000 132.85400,22.069000 131.35600,21.414000 C 130.70100,21.146000 129.95200,21.454000 129.68400,22.109000 C 129.41600,22.764000 129.73800,23.527000 130.39300,23.794000 L 130.39300,23.794000 z "
     id="path113" /><path
     style="fill:#8e7c6d"
     d="M 134.33900,24.235000 C 135.15500,24.891000 135.86300,25.680000 136.82600,26.134000 C 137.44200,26.482000 138.23100,26.255000 138.56500,25.626000 C 138.91300,25.011000 138.68500,24.235000 138.07000,23.887000 C 137.22700,23.526000 136.66600,22.790000 135.97000,22.242000 C 135.42200,21.801000 134.60600,21.881000 134.16500,22.429000 C 133.71000,22.978000 133.79100,23.781000 134.33900,24.235000 L 134.33900,24.235000 z "
     id="path115" /><path
     style="fill:#8e7c6d"
     d="M 136.45200,23.861000 C 137.10700,24.503000 137.82900,25.038000 138.65900,25.440000 C 139.30100,25.774000 140.07700,25.520000 140.39800,24.892000 C 140.71900,24.263000 140.46500,23.487000 139.83600,23.166000 C 139.16700,22.898000 138.68600,22.377000 138.13700,21.936000 C 137.60200,21.468000 136.80000,21.521000 136.33100,22.056000 C 135.86300,22.590000 135.91700,23.393000 136.45200,23.861000 L 136.45200,23.861000 z "
     id="path117" /></g><g
   id="g1660"
   transform="translate(0.000000,-74.00000)"><polyline
     style="fill:none;stroke:#994a16"
     points="0,515.122 31.313,515.122 41.157,520.971 65.339,515.193 73.308,515.193 "
     id="polyline55" /><path
     style="fill:#8e7c6d"
     d="M 72.325000,514.10400 C 73.509000,514.38500 72.726000,515.85000 73.769000,516.39100 C 74.110000,517.01300 74.893000,517.23400 75.515000,516.89200 C 76.137000,516.55100 76.358000,515.76900 76.016000,515.14700 C 75.635000,514.88600 75.555000,514.48500 75.394000,513.86300 C 75.253000,513.30100 74.792000,512.84000 74.290000,512.45900 C 73.849000,511.91700 73.026000,511.83700 72.484000,512.29800 C 71.944000,512.73900 71.864000,513.56200 72.325000,514.10400 L 72.325000,514.10400 z "
     id="path119" /><path
     style="fill:#8e7c6d"
     d="M 74.733000,513.94300 C 75.234000,514.48500 75.857000,514.82500 76.559000,515.02600 C 77.221000,515.24700 77.943000,514.88600 78.184000,514.22400 C 78.405000,513.56200 78.063000,512.82000 77.381000,512.59900 C 76.980000,512.51800 76.599000,512.35800 76.378000,511.97700 C 75.836000,511.51600 75.034000,511.59600 74.572000,512.13800 C 74.111000,512.67900 74.191000,513.48200 74.733000,513.94300 L 74.733000,513.94300 z "
     id="path121" /><path
     style="fill:#8e7c6d"
     d="M 76.197000,513.28100 C 76.899000,513.28100 77.541000,513.46100 78.143000,513.80200 C 78.785000,514.10300 79.567000,513.82200 79.848000,513.18000 C 80.149000,512.53800 79.888000,511.77600 79.226000,511.47500 C 78.303000,510.93300 77.280000,510.63200 76.196000,510.71200 C 75.494000,510.71200 74.912000,511.29400 74.912000,511.99600 C 74.912000,512.69800 75.495000,513.28100 76.197000,513.28100 L 76.197000,513.28100 z "
     id="path123" /><path
     style="fill:#8e7c6d"
     d="M 77.662000,511.27500 C 78.464000,511.53600 79.227000,511.87700 79.909000,512.37900 C 80.491000,512.78000 81.293000,512.64000 81.694000,512.05800 C 82.095000,511.47600 81.955000,510.67400 81.373000,510.27300 C 80.530000,509.63100 79.567000,509.25000 78.584000,508.86800 C 77.922000,508.62700 77.180000,508.94900 76.918000,509.61100 C 76.679000,510.27200 77.000000,511.01400 77.662000,511.27500 L 77.662000,511.27500 z "
     id="path125" /><path
     style="fill:#8e7c6d"
     d="M 79.086000,509.89100 C 79.888000,510.47300 80.872000,510.75400 81.855000,510.71300 C 82.577000,510.73300 83.159000,510.17100 83.179000,509.44900 C 83.199000,508.74700 82.637000,508.16500 81.915000,508.14500 C 81.333000,508.18500 80.811000,508.10500 80.370000,507.68400 C 79.748000,507.32300 78.966000,507.52300 78.625000,508.14500 C 78.264000,508.76700 78.464000,509.54900 79.086000,509.89100 L 79.086000,509.89100 z "
     id="path127" /><path
     style="fill:#8e7c6d"
     d="M 81.012000,508.74700 C 81.594000,508.86700 82.176000,509.02800 82.718000,509.30900 C 83.360000,509.61000 84.122000,509.32900 84.423000,508.68700 C 84.724000,508.02500 84.443000,507.26300 83.801000,506.98200 C 83.139000,506.60100 82.377000,506.48100 81.655000,506.26000 C 80.973000,506.07900 80.271000,506.50100 80.090000,507.18300 C 79.909000,507.86400 80.330000,508.56600 81.012000,508.74700 L 81.012000,508.74700 z "
     id="path129" /><path
     style="fill:#8e7c6d"
     d="M 82.537000,507.12200 C 82.978000,507.36300 83.420000,507.62300 83.901000,507.76400 C 84.503000,508.12500 85.285000,507.94400 85.647000,507.32300 C 86.028000,506.72100 85.828000,505.93800 85.206000,505.55700 C 84.544000,505.33600 84.022000,504.85500 83.340000,504.67400 C 82.678000,504.45300 81.955000,504.81500 81.715000,505.49700 C 81.494000,506.15900 81.855000,506.88100 82.537000,507.12200 L 82.537000,507.12200 z "
     id="path131" /><path
     style="fill:#8e7c6d"
     d="M 83.360000,504.91500 C 83.982000,505.19600 84.182000,505.77800 84.363000,506.35900 C 84.684000,506.98100 85.467000,507.24200 86.089000,506.92100 C 86.711000,506.58000 86.971000,505.81700 86.651000,505.17500 C 86.270000,504.35200 85.748000,503.65000 85.086000,503.02900 C 84.565000,502.54800 83.742000,502.58800 83.280000,503.10900 C 82.798000,503.63100 82.838000,504.45400 83.360000,504.91500 L 83.360000,504.91500 z "
     id="path133" /><path
     style="fill:#8e7c6d"
     d="M 85.226000,503.33000 C 85.487000,503.89200 85.427000,504.49400 85.326000,505.07600 C 85.186000,505.75800 85.607000,506.44000 86.309000,506.60000 C 86.991000,506.76100 87.673000,506.31900 87.833000,505.63700 C 88.314000,504.63400 87.793000,503.67100 87.713000,502.68800 C 87.532000,502.00600 86.830000,501.58400 86.148000,501.76500 C 85.466000,501.94600 85.045000,502.64800 85.226000,503.33000 L 85.226000,503.33000 z "
     id="path135" /><path
     style="fill:#8e7c6d"
     d="M 87.272000,503.02900 C 86.449000,504.07200 86.088000,505.43600 86.148000,506.74000 C 86.148000,507.46200 86.710000,508.02400 87.432000,508.04400 C 88.134000,508.04400 88.716000,507.48200 88.716000,506.76000 C 88.576000,505.79700 89.077000,505.05500 89.519000,504.27200 C 89.860000,503.65000 89.639000,502.86800 89.017000,502.52600 C 88.396000,502.18700 87.613000,502.40700 87.272000,503.02900 L 87.272000,503.02900 z "
     id="path137" /><path
     style="fill:#8e7c6d"
     d="M 87.833000,505.59700 C 87.291000,506.58000 87.452000,507.66300 87.432000,508.72700 C 87.432000,509.44900 88.014000,510.01100 88.716000,510.01100 C 89.418000,510.01100 90.000000,509.44900 90.000000,508.72700 C 90.140000,507.98500 89.739000,507.16200 90.241000,506.46000 C 90.482000,505.77800 90.140000,505.05600 89.458000,504.81500 C 88.797000,504.57400 88.054000,504.93500 87.833000,505.59700 L 87.833000,505.59700 z "
     id="path139" /><path
     style="fill:#8e7c6d"
     d="M 88.396000,507.82400 C 88.396000,508.76700 88.075000,509.69000 88.075000,510.63300 C 88.035000,511.33500 88.577000,511.93700 89.279000,511.97700 C 90.001000,512.01700 90.603000,511.49600 90.643000,510.77300 C 90.623000,509.77000 91.064000,508.82700 90.964000,507.82400 C 90.964000,507.12200 90.382000,506.54000 89.680000,506.54000 C 88.977000,506.54000 88.396000,507.12200 88.396000,507.82400 L 88.396000,507.82400 z "
     id="path141" /><path
     style="fill:#8e7c6d"
     d="M 89.820000,509.50900 C 89.158000,510.47200 89.058000,511.55500 89.038000,512.67900 C 89.017000,513.40100 89.559000,513.98300 90.282000,514.02300 C 90.984000,514.04300 91.586000,513.48100 91.606000,512.77900 C 91.586000,512.01700 91.646000,511.27500 92.107000,510.63300 C 92.428000,509.99100 92.167000,509.22900 91.525000,508.92800 C 90.883000,508.60600 90.121000,508.86700 89.820000,509.50900 L 89.820000,509.50900 z "
     id="path143" /><path
     style="fill:#8e7c6d"
     d="M 90.643000,511.79600 C 90.643000,512.92000 90.643000,514.04300 90.643000,515.16700 C 90.643000,515.86900 91.225000,516.45100 91.927000,516.45100 C 92.629000,516.45100 93.211000,515.86900 93.211000,515.16700 C 93.211000,514.04300 93.211000,512.92000 93.211000,511.79600 C 93.211000,511.09400 92.629000,510.51200 91.927000,510.51200 C 91.225000,510.51200 90.643000,511.09400 90.643000,511.79600 L 90.643000,511.79600 z "
     id="path145" /><path
     style="fill:#8e7c6d"
     d="M 91.666000,514.00300 C 91.847000,515.00600 92.629000,515.68800 92.990000,516.59100 C 93.331000,517.21300 94.114000,517.45400 94.736000,517.11200 C 95.358000,516.79100 95.598000,516.00900 95.278000,515.38700 C 95.017000,514.58400 94.215000,514.08300 94.114000,513.20000 C 93.873000,512.51800 93.151000,512.15700 92.489000,512.37800 C 91.806000,512.61900 91.445000,513.34100 91.666000,514.00300 L 91.666000,514.00300 z "
     id="path147" /><path
     style="fill:#8e7c6d"
     d="M 93.511000,515.08700 C 94.033000,515.80900 94.715000,516.33100 95.357000,516.93300 C 95.879000,517.41400 96.681000,517.39400 97.183000,516.87300 C 97.665000,516.35100 97.624000,515.54900 97.123000,515.06700 C 96.521000,514.56600 96.040000,513.94400 95.478000,513.40200 C 95.017000,512.88100 94.194000,512.80000 93.652000,513.26200 C 93.130000,513.72300 93.050000,514.54500 93.511000,515.08700 L 93.511000,515.08700 z "
     id="path149" /><path
     style="fill:#8e7c6d"
     d="M 95.979000,515.28700 C 96.822000,515.66800 97.163000,516.67200 98.025000,517.01300 C 97.985000,516.99300 97.965000,516.95300 97.925000,516.93300 C 98.527000,517.29400 99.329000,517.13400 99.711000,516.53200 C 100.09200,515.93000 99.911000,515.12800 99.310000,514.74600 C 98.247000,514.82600 98.347000,513.54200 97.504000,513.20100 C 96.922000,512.78000 96.120000,512.92000 95.698000,513.48200 C 95.277000,514.06300 95.417000,514.86600 95.979000,515.28700 L 95.979000,515.28700 z "
     id="path151" /><path
     style="fill:#8e7c6d"
     d="M 97.805000,514.88600 C 98.407000,515.50800 99.229000,515.86900 99.711000,516.61100 C 100.17200,517.15300 100.97500,517.21300 101.51600,516.75200 C 102.05800,516.29100 102.11800,515.48800 101.65700,514.94600 C 100.87500,514.36400 100.29300,513.58200 99.531000,512.96000 C 98.989000,512.49900 98.187000,512.53900 97.705000,513.06100 C 97.243000,513.60200 97.283000,514.40500 97.805000,514.88600 L 97.805000,514.88600 z "
     id="path153" /><path
     style="fill:#8e7c6d"
     d="M 100.35300,514.16400 C 100.69400,515.08700 101.03500,516.01000 101.67700,516.77200 C 102.05800,517.37400 102.84100,517.55400 103.44300,517.15300 C 104.04500,516.77200 104.20500,515.98900 103.82400,515.38700 C 103.12100,514.84500 102.98100,514.04300 102.76100,513.28100 C 102.52000,512.61900 101.77800,512.27800 101.11600,512.51800 C 100.45300,512.77900 100.11200,513.50200 100.35300,514.16400 L 100.35300,514.16400 z "
     id="path155" /><path
     style="fill:#8e7c6d"
     d="M 102.76000,515.62800 C 103.30200,515.76900 103.60300,516.19000 103.82300,516.67100 C 104.10400,517.33300 104.84600,517.63400 105.50800,517.37300 C 106.15000,517.11200 106.47100,516.35000 106.21000,515.70700 C 105.86900,514.66400 105.12700,514.00200 104.20400,513.50000 C 103.62200,513.09900 102.82000,513.25900 102.41800,513.84100 C 102.01800,514.42500 102.17800,515.22700 102.76000,515.62800 L 102.76000,515.62800 z "
     id="path157" /><path
     style="fill:#8e7c6d"
     d="M 104.30500,513.92300 C 104.66600,515.26700 105.99000,515.84900 106.67200,516.95200 C 107.15300,517.47300 107.97600,517.49400 108.47800,517.01200 C 108.99900,516.53100 109.04000,515.70800 108.55800,515.20600 C 107.87600,514.34300 106.99400,513.66100 106.51200,512.63800 C 106.17100,512.01600 105.36800,511.81500 104.76700,512.17700 C 104.14500,512.51900 103.94400,513.32100 104.30500,513.92300 L 104.30500,513.92300 z "
     id="path159" /><path
     style="fill:#8e7c6d"
     d="M 107.35400,515.44800 C 107.87500,516.13000 108.59800,516.59200 109.22000,517.17400 C 109.78200,517.61500 110.58400,517.53500 111.02600,516.97300 C 111.46700,516.43100 111.38700,515.60900 110.84500,515.16700 C 110.38400,514.60500 109.56100,514.40500 109.24000,513.68200 C 108.75900,513.18100 107.93600,513.14000 107.41400,513.62200 C 106.91300,514.10400 106.87300,514.92600 107.35400,515.44800 L 107.35400,515.44800 z "
     id="path161" /><path
     style="fill:#8e7c6d"
     d="M 109.72200,516.07000 C 110.20300,516.27100 110.70500,516.49100 111.06600,516.89200 C 111.60800,517.35400 112.41000,517.27300 112.87200,516.73200 C 113.33300,516.19000 113.25300,515.38800 112.71200,514.92600 C 112.13000,514.38400 111.48800,513.94300 110.72600,513.70200 C 110.08400,513.42100 109.32200,513.72200 109.04100,514.38400 C 108.75900,515.02600 109.06000,515.78900 109.72200,516.07000 L 109.72200,516.07000 z "
     id="path163" /><path
     style="fill:#8e7c6d"
     d="M 111.12600,514.70600 C 111.56700,515.83000 112.83100,516.19000 113.39300,517.21400 C 113.89400,517.73500 114.69700,517.75600 115.21900,517.25400 C 115.74000,516.77300 115.76100,515.97000 115.25900,515.44800 C 114.63700,514.60600 113.63400,514.12400 113.17300,513.14100 C 112.75200,512.57900 111.94900,512.47900 111.36700,512.90000 C 110.80500,513.32100 110.70500,514.12400 111.12600,514.70600 L 111.12600,514.70600 z "
     id="path165" /><path
     style="fill:#8e7c6d"
     d="M 113.87500,515.84900 C 114.45700,516.41100 115.15900,516.83200 115.60000,517.53400 C 116.10200,518.03600 116.92400,518.01500 117.40600,517.51400 C 117.90700,517.01300 117.90700,516.21000 117.40600,515.70800 C 116.68400,515.22700 116.40300,514.28400 115.56000,513.92300 C 115.03900,513.46100 114.23600,513.50200 113.75400,514.04300 C 113.29300,514.56500 113.33300,515.36800 113.87500,515.84900 L 113.87500,515.84900 z "
     id="path167" /><path
     style="fill:#8e7c6d"
     d="M 115.70100,515.44800 C 116.38300,516.03000 116.80500,516.83200 117.36600,517.51400 C 117.32600,517.43400 117.28600,517.37400 117.24600,517.29300 C 117.68700,517.85500 118.49000,517.93500 119.05100,517.47400 C 119.59300,517.03300 119.67300,516.21000 119.23200,515.66800 C 118.08800,515.50700 118.49000,514.16400 117.58700,513.68200 C 117.10600,513.18100 116.28300,513.14000 115.76100,513.62200 C 115.25900,514.10400 115.21900,514.92600 115.70100,515.44800 L 115.70100,515.44800 z "
     id="path169" /><path
     style="fill:#8e7c6d"
     d="M 117.10500,514.82600 C 117.54600,515.78900 118.16800,516.59200 118.91100,517.33400 C 119.41200,517.85600 120.23500,517.85600 120.73700,517.35500 C 121.23800,516.85300 121.23800,516.05100 120.73700,515.54900 C 120.15500,515.02700 119.69400,514.38500 119.39300,513.66300 C 119.07200,513.02100 118.28900,512.78000 117.66700,513.10100 C 117.02500,513.42100 116.78400,514.20400 117.10500,514.82600 L 117.10500,514.82600 z "
     id="path171" /><path
     style="fill:#8e7c6d"
     d="M 119.75300,514.96600 C 120.21400,515.82900 120.93700,516.47100 121.55800,517.21300 C 122.06000,517.71400 122.88200,517.69400 123.36400,517.19300 C 123.86500,516.67200 123.84500,515.86900 123.34300,515.36700 C 122.70100,514.86600 122.23900,514.24300 121.87900,513.52100 C 121.47800,512.93900 120.67500,512.77800 120.09300,513.18000 C 119.51100,513.58200 119.35200,514.38500 119.75300,514.96600 L 119.75300,514.96600 z "
     id="path173" /><path
     style="fill:#8e7c6d"
     d="M 122.10100,515.08700 C 122.52200,515.50800 122.86300,515.99000 123.14400,516.51100 C 123.50500,517.13300 124.28700,517.33300 124.90900,516.97200 C 125.51100,516.63100 125.73200,515.84800 125.37000,515.22600 C 125.21000,514.40400 124.16600,514.24300 124.02600,513.40000 C 123.54500,512.85800 122.74200,512.81800 122.22000,513.28000 C 121.67900,513.76300 121.63900,514.56500 122.10100,515.08700 L 122.10100,515.08700 z "
     id="path175" /><path
     style="fill:#8e7c6d"
     d="M 123.62500,514.68600 C 124.28700,515.42800 124.64800,516.41200 125.39000,517.09400 C 125.83100,517.63600 126.65400,517.69600 127.19600,517.25400 C 127.73800,516.79300 127.79800,515.99000 127.35700,515.42800 C 126.67500,514.76600 126.27400,513.90300 125.71200,513.16100 C 125.29100,512.59900 124.48800,512.45900 123.90600,512.88000 C 123.34400,513.30100 123.20400,514.10400 123.62500,514.68600 L 123.62500,514.68600 z "
     id="path177" /><path
     style="fill:#8e7c6d"
     d="M 126.01300,515.46800 C 126.57500,516.07000 127.17700,516.63200 127.81900,517.15400 C 128.36100,517.61500 129.18300,517.53500 129.62500,516.99300 C 130.08600,516.45100 130.02600,515.64900 129.48400,515.18700 C 128.80200,514.80600 128.40100,514.14400 127.81900,513.66200 C 127.31800,513.16100 126.51500,513.16100 126.01300,513.66200 C 125.51100,514.16400 125.51100,514.96600 126.01300,515.46800 L 126.01300,515.46800 z "
     id="path179" /><path
     style="fill:#8e7c6d"
     d="M 128.07900,514.94600 C 128.62100,515.82900 129.26300,516.63100 129.96500,517.39400 C 130.36600,517.97600 131.16900,518.13600 131.75000,517.71500 C 132.33200,517.31400 132.47300,516.53100 132.07100,515.92900 C 131.57000,515.04600 130.64700,514.50500 130.24500,513.54200 C 129.86400,512.96000 129.06100,512.77900 128.45900,513.16100 C 127.87800,513.54200 127.69800,514.34400 128.07900,514.94600 L 128.07900,514.94600 z "
     id="path181" /><path
     style="fill:#8e7c6d"
     d="M 130.40600,515.64800 C 131.00800,515.94900 131.46900,516.41100 131.91100,516.89200 C 132.43200,517.37400 133.23500,517.35400 133.73700,516.85200 C 134.21800,516.35100 134.21800,515.52800 133.69700,515.02600 C 133.09500,514.44400 132.53300,513.84200 131.77100,513.48200 C 131.16900,513.10100 130.38700,513.28100 130.00600,513.88300 C 129.62400,514.48500 129.80500,515.26700 130.40600,515.64800 L 130.40600,515.64800 z "
     id="path183" /><path
     style="fill:#8e7c6d"
     d="M 132.87400,514.88600 C 133.31500,515.70800 133.83700,516.47100 134.43900,517.19300 C 134.88000,517.73500 135.68300,517.83500 136.24500,517.39400 C 136.80700,516.95300 136.88700,516.15000 136.44600,515.58800 C 135.92500,514.96600 135.48300,514.30400 135.08200,513.60200 C 134.74100,512.98000 133.95800,512.77900 133.33600,513.14100 C 132.71400,513.48200 132.51300,514.26400 132.87400,514.88600 L 132.87400,514.88600 z "
     id="path185" /><path
     style="fill:#8e7c6d"
     d="M 135.16100,515.28700 C 135.64200,515.80900 135.88300,516.51100 136.44500,516.97300 C 136.90600,517.51500 137.70900,517.59500 138.25100,517.13400 C 138.79300,516.67300 138.87300,515.87000 138.41200,515.32800 C 137.87000,514.96700 137.56900,514.40500 137.28800,513.84300 C 136.86700,513.26100 136.08400,513.10100 135.50200,513.50200 C 134.92000,513.92300 134.76000,514.70600 135.16100,515.28700 L 135.16100,515.28700 z "
     id="path187" /><path
     style="fill:#8e7c6d"
     d="M 137.14700,515.36800 C 137.72900,515.91000 137.97000,516.65200 138.49100,517.23400 C 138.83200,517.85600 139.61500,518.07700 140.23700,517.73500 C 140.85900,517.39400 141.07900,516.61100 140.73800,515.99000 C 140.35700,515.12700 139.65500,514.52500 139.15300,513.76300 C 138.71200,513.22100 137.90900,513.12100 137.34700,513.56200 C 136.80700,514.00300 136.70600,514.80600 137.14700,515.36800 L 137.14700,515.36800 z "
     id="path189" /><path
     style="fill:#8e7c6d"
     d="M 139.47500,514.56500 C 139.55600,515.40800 140.03700,516.11000 140.37800,516.85200 C 140.67900,517.49400 141.44100,517.77500 142.08400,517.49400 C 142.72600,517.19300 143.00700,516.43100 142.72600,515.78900 C 142.32500,515.22700 142.08400,514.60500 141.96300,513.92300 C 141.78200,513.24100 141.08000,512.81900 140.39800,513.00000 C 139.71500,513.18100 139.29400,513.88300 139.47500,514.56500 L 139.47500,514.56500 z "
     id="path191" /></g>
</svg>