<?xml version="1.0" encoding="UTF-8" standalone="no"?>
<!-- Generator: Adobe Illustrator 11 Build 196, SVG Export Plug-In . SVG Version: 6.0.0 Build 78)  -->
<svg
   xmlns:dc="http://purl.org/dc/elements/1.1/"
   xmlns:cc="http://web.resource.org/cc/"
   xmlns:rdf="http://www.w3.org/1999/02/22-rdf-syntax-ns#"
   xmlns:svg="http://www.w3.org/2000/svg"
   xmlns="http://www.w3.org/2000/svg"
   xmlns:sodipodi="http://inkscape.sourceforge.net/DTD/sodipodi-0.dtd"
   xmlns:inkscape="http://www.inkscape.org/namespaces/inkscape"
   width="145.488"
   height="112.71"
   viewBox="0 0 145.488 112.71"
   style="overflow:visible;enable-background:new 0 0 145.488 112.71"
   xml:space="preserve"
   id="svg2"
   sodipodi:version="0.32"
   sodipodi:docname="in-sin-wav-trai.svg"
   sodipodi:docbase="/home/bcrowell/Documents/writing/lm/trunk/3vw/ch04/figs"><metadata
   id="metadata158"><rdf:RDF><cc:Work
       rdf:about=""><dc:format>image/svg+xml</dc:format><dc:type
         rdf:resource="http://purl.org/dc/dcmitype/StillImage" /></cc:Work></rdf:RDF></metadata><defs
   id="defs156">
		
		
		
		
		
		
		
		
		
		
	</defs><sodipodi:namedview
   inkscape:cy="51.824408"
   inkscape:cx="77.160785"
   inkscape:zoom="1.9913397"
   inkscape:window-height="510"
   inkscape:window-width="712"
   inkscape:pageshadow="2"
   inkscape:pageopacity="0.0"
   borderopacity="1.0"
   bordercolor="#666666"
   pagecolor="#ffffff"
   id="base"
   inkscape:window-x="410"
   inkscape:window-y="410"
   inkscape:current-layer="svg2" />
	<style
   type="text/css"
   id="style4">
	
	</style>
	<rect
   style="fill:#dedede;fill-opacity:1.0000000;fill-rule:evenodd;stroke:none;stroke-width:1.0000000pt;stroke-linecap:butt;stroke-linejoin:miter;stroke-opacity:1.0000000;overflow:visible"
   id="rect2333"
   width="184.25197"
   height="53.732670"
   x="-31.751022"
   y="69.271904" /><rect
   style="fill:#dedede;fill-opacity:1.0000000;fill-rule:evenodd;stroke:none;stroke-width:1.0000000pt;stroke-linecap:butt;stroke-linejoin:miter;stroke-opacity:1.0000000"
   id="rect1530"
   width="184.25197"
   height="53.732670"
   x="-31.751022"
   y="4.7424817" /><g
   id="g2261"><g
     id="g7">
			<g
   id="g9">
				<path
   style="fill:none;stroke:#000000"
   d="M 19.964000,22.601000 C 21.386000,19.360000 21.876000,18.544000 22.318000,17.821000 C 22.761000,17.098000 23.041000,16.935000 23.228000,16.772000 C 23.415000,16.609000 23.857000,16.376000 24.184000,16.399000 C 24.511000,16.422000 24.860000,16.516000 25.117000,16.772000 C 25.374000,17.029000 25.770000,17.425000 26.050000,17.868000 C 26.330000,18.311000 26.587000,18.684000 26.983000,19.523000 C 27.379000,20.362000 27.286000,19.989000 28.382000,22.601000"
   id="path11" />
				<path
   style="fill:none;stroke:#000000"
   d="M 28.397000,22.599000 C 29.819000,25.840000 30.309000,26.656000 30.752000,27.379000 C 31.195000,28.102000 31.475000,28.265000 31.661000,28.428000 C 31.848000,28.592000 32.290000,28.824000 32.617000,28.801000 C 32.943000,28.778000 33.293000,28.685000 33.550000,28.428000 C 33.806000,28.172000 34.203000,27.775000 34.483000,27.332000 C 34.763000,26.889000 35.019000,26.516000 35.416000,25.677000 C 35.812000,24.838000 35.719000,25.211000 36.815000,22.599000"
   id="path13" />
				<path
   style="fill:none;stroke:#000000"
   d="M 36.831000,22.601000 C 38.253000,19.360000 38.743000,18.544000 39.186000,17.821000 C 39.629000,17.098000 39.909000,16.935000 40.095000,16.772000 C 40.282000,16.609000 40.724000,16.376000 41.051000,16.399000 C 41.378000,16.422000 41.727000,16.516000 41.984000,16.772000 C 42.240000,17.029000 42.637000,17.425000 42.917000,17.868000 C 43.197000,18.311000 43.453000,18.684000 43.850000,19.523000 C 44.247000,20.362000 44.153000,19.989000 45.249000,22.601000"
   id="path15" />
				<path
   style="fill:none;stroke:#000000"
   d="M 45.264000,22.599000 C 46.686000,25.840000 47.176000,26.656000 47.618000,27.379000 C 48.061000,28.102000 48.341000,28.265000 48.528000,28.428000 C 48.715000,28.592000 49.157000,28.824000 49.484000,28.801000 C 49.811000,28.778000 50.160000,28.685000 50.417000,28.428000 C 50.674000,28.172000 51.070000,27.775000 51.350000,27.332000 C 51.630000,26.889000 51.887000,26.516000 52.283000,25.677000 C 52.679000,24.838000 52.586000,25.211000 53.682000,22.599000"
   id="path17" />
				<path
   style="fill:none;stroke:#000000"
   d="M 53.697000,22.601000 C 55.119000,19.360000 55.609000,18.544000 56.052000,17.821000 C 56.495000,17.098000 56.775000,16.935000 56.961000,16.772000 C 57.148000,16.609000 57.590000,16.376000 57.917000,16.399000 C 58.243000,16.422000 58.593000,16.516000 58.850000,16.772000 C 59.106000,17.029000 59.503000,17.425000 59.783000,17.868000 C 60.063000,18.311000 60.319000,18.684000 60.716000,19.523000 C 61.112000,20.362000 61.019000,19.989000 62.115000,22.601000"
   id="path19" />
				<path
   style="fill:none;stroke:#000000"
   d="M 62.130000,22.599000 C 63.552000,25.840000 64.042000,26.656000 64.485000,27.379000 C 64.928000,28.102000 65.208000,28.265000 65.394000,28.428000 C 65.581000,28.592000 66.024000,28.824000 66.350000,28.801000 C 66.677000,28.778000 67.026000,28.685000 67.283000,28.428000 C 67.539000,28.172000 67.936000,27.775000 68.216000,27.332000 C 68.496000,26.889000 68.752000,26.516000 69.149000,25.677000 C 69.546000,24.838000 69.452000,25.211000 70.548000,22.599000"
   id="path21" />
				<path
   style="fill:none;stroke:#000000"
   d="M 70.564000,22.601000 C 71.986000,19.360000 72.476000,18.544000 72.918000,17.821000 C 73.361000,17.098000 73.641000,16.935000 73.828000,16.772000 C 74.015000,16.609000 74.457000,16.376000 74.784000,16.399000 C 75.111000,16.422000 75.460000,16.516000 75.717000,16.772000 C 75.974000,17.029000 76.370000,17.425000 76.650000,17.868000 C 76.930000,18.311000 77.187000,18.684000 77.583000,19.523000 C 77.979000,20.362000 77.886000,19.989000 78.982000,22.601000"
   id="path23" />
				<path
   style="fill:none;stroke:#000000"
   d="M 78.997000,22.599000 C 80.419000,25.840000 80.909000,26.656000 81.352000,27.379000 C 81.795000,28.102000 82.075000,28.265000 82.261000,28.428000 C 82.448000,28.592000 82.890000,28.824000 83.217000,28.801000 C 83.543000,28.778000 83.893000,28.685000 84.150000,28.428000 C 84.406000,28.172000 84.803000,27.775000 85.083000,27.332000 C 85.363000,26.889000 85.619000,26.516000 86.016000,25.677000 C 86.412000,24.838000 86.319000,25.211000 87.415000,22.599000"
   id="path25" />
				<path
   style="fill:none;stroke:#000000"
   d="M 87.430000,22.601000 C 88.852000,19.360000 89.342000,18.544000 89.785000,17.821000 C 90.228000,17.098000 90.508000,16.935000 90.694000,16.772000 C 90.881000,16.609000 91.324000,16.376000 91.650000,16.399000 C 91.977000,16.422000 92.326000,16.516000 92.583000,16.772000 C 92.839000,17.029000 93.236000,17.425000 93.516000,17.868000 C 93.796000,18.311000 94.052000,18.684000 94.449000,19.523000 C 94.846000,20.362000 94.752000,19.989000 95.848000,22.601000"
   id="path27" />
				<path
   style="fill:none;stroke:#000000"
   d="M 95.864000,22.599000 C 97.286000,25.840000 97.776000,26.656000 98.219000,27.379000 C 98.662000,28.102000 98.942000,28.265000 99.128000,28.428000 C 99.315000,28.592000 99.757000,28.824000 100.08400,28.801000 C 100.41100,28.778000 100.76000,28.685000 101.01700,28.428000 C 101.27400,28.172000 101.67000,27.775000 101.95000,27.332000 C 102.23000,26.889000 102.48700,26.516000 102.88300,25.677000 C 103.27900,24.838000 103.18600,25.211000 104.28200,22.599000"
   id="path29" />
			</g>
			<line
   style="fill:none;stroke:#000000"
   x1="20.046000"
   y1="22.441000"
   x2="0.0000000"
   y2="22.441000"
   id="line31" />
			<line
   style="fill:none;stroke:#000000"
   x1="124.26000"
   y1="22.705999"
   x2="104.21400"
   y2="22.705999"
   id="line33" />
		</g><g
     id="g35">
			<g
   id="g37">
				<path
   style="fill:none;stroke:#000000"
   d="M 29.389000,42.470000 C 30.811000,44.739000 31.301000,45.310000 31.744000,45.816000 C 32.187000,46.322000 32.467000,46.436000 32.653000,46.550000 C 32.839000,46.664000 33.282000,46.827000 33.609000,46.811000 C 33.935000,46.794000 34.285000,46.729000 34.542000,46.550000 C 34.799000,46.371000 35.195000,46.093000 35.475000,45.783000 C 35.755000,45.473000 36.011000,45.212000 36.408000,44.624000 C 36.805000,44.036000 36.711000,44.297000 37.807000,42.470000"
   id="path39" />
				<path
   style="fill:none;stroke:#000000"
   d="M 37.823000,42.471000 C 39.245000,40.202000 39.735000,39.631000 40.177000,39.125000 C 40.620000,38.619000 40.900000,38.505000 41.086000,38.391000 C 41.273000,38.277000 41.716000,38.113000 42.042000,38.130000 C 42.369000,38.146000 42.718000,38.212000 42.975000,38.391000 C 43.232000,38.570000 43.628000,38.848000 43.908000,39.158000 C 44.188000,39.468000 44.445000,39.729000 44.841000,40.317000 C 45.237000,40.904000 45.144000,40.643000 46.240000,42.471000"
   id="path41" />
				<path
   style="fill:none;stroke:#000000"
   d="M 46.256000,42.470000 C 47.678000,44.739000 48.168000,45.310000 48.611000,45.816000 C 49.054000,46.322000 49.334000,46.436000 49.520000,46.550000 C 49.706000,46.664000 50.149000,46.827000 50.476000,46.811000 C 50.802000,46.794000 51.152000,46.729000 51.409000,46.550000 C 51.665000,46.370000 52.062000,46.093000 52.342000,45.783000 C 52.622000,45.473000 52.878000,45.212000 53.275000,44.624000 C 53.671000,44.037000 53.578000,44.297000 54.674000,42.470000"
   id="path43" />
				<path
   style="fill:none;stroke:#000000"
   d="M 54.689000,42.471000 C 56.111000,40.202000 56.601000,39.631000 57.044000,39.125000 C 57.487000,38.619000 57.767000,38.505000 57.953000,38.391000 C 58.139000,38.277000 58.582000,38.113000 58.909000,38.130000 C 59.236000,38.146000 59.585000,38.212000 59.842000,38.391000 C 60.098000,38.570000 60.495000,38.848000 60.775000,39.158000 C 61.055000,39.468000 61.311000,39.729000 61.708000,40.317000 C 62.105000,40.905000 62.011000,40.643000 63.107000,42.471000"
   id="path45" />
				<path
   style="fill:none;stroke:#000000"
   d="M 63.123000,42.470000 C 64.545000,44.739000 65.035000,45.310000 65.477000,45.816000 C 65.920000,46.322000 66.200000,46.436000 66.387000,46.550000 C 66.574000,46.664000 67.016000,46.827000 67.343000,46.811000 C 67.670000,46.794000 68.019000,46.729000 68.276000,46.550000 C 68.533000,46.370000 68.929000,46.093000 69.209000,45.783000 C 69.489000,45.473000 69.746000,45.212000 70.142000,44.624000 C 70.538000,44.037000 70.445000,44.297000 71.541000,42.470000"
   id="path47" />
				<path
   style="fill:none;stroke:#000000"
   d="M 71.556000,42.471000 C 72.978000,40.202000 73.468000,39.631000 73.911000,39.125000 C 74.354000,38.619000 74.634000,38.505000 74.820000,38.391000 C 75.006000,38.277000 75.449000,38.113000 75.776000,38.130000 C 76.102000,38.146000 76.452000,38.212000 76.709000,38.391000 C 76.965000,38.570000 77.362000,38.848000 77.642000,39.158000 C 77.922000,39.468000 78.178000,39.729000 78.575000,40.317000 C 78.971000,40.904000 78.878000,40.643000 79.974000,42.471000"
   id="path49" />
				<path
   style="fill:none;stroke:#000000"
   d="M 79.989000,42.470000 C 81.411000,44.739000 81.901000,45.310000 82.344000,45.816000 C 82.787000,46.322000 83.067000,46.436000 83.253000,46.550000 C 83.439000,46.664000 83.883000,46.827000 84.209000,46.811000 C 84.536000,46.794000 84.885000,46.729000 85.142000,46.550000 C 85.399000,46.371000 85.795000,46.093000 86.075000,45.783000 C 86.355000,45.473000 86.611000,45.212000 87.008000,44.624000 C 87.405000,44.036000 87.311000,44.297000 88.407000,42.470000"
   id="path51" />
				<path
   style="fill:none;stroke:#000000"
   d="M 88.422000,42.471000 C 89.844000,40.202000 90.334000,39.631000 90.776000,39.125000 C 91.219000,38.619000 91.499000,38.505000 91.686000,38.391000 C 91.873000,38.277000 92.315000,38.113000 92.642000,38.130000 C 92.969000,38.146000 93.318000,38.212000 93.575000,38.391000 C 93.832000,38.570000 94.228000,38.848000 94.508000,39.158000 C 94.788000,39.468000 95.045000,39.729000 95.441000,40.317000 C 95.837000,40.904000 95.744000,40.643000 96.840000,42.471000"
   id="path53" />
				<path
   style="fill:none;stroke:#000000"
   d="M 96.855000,42.470000 C 98.277000,44.739000 98.767000,45.310000 99.210000,45.816000 C 99.653000,46.322000 99.933000,46.436000 100.11900,46.550000 C 100.30500,46.664000 100.74800,46.827000 101.07500,46.811000 C 101.40100,46.794000 101.75100,46.729000 102.00800,46.550000 C 102.26500,46.371000 102.66100,46.093000 102.94100,45.783000 C 103.22100,45.473000 103.47700,45.212000 103.87400,44.624000 C 104.27100,44.036000 104.17700,44.297000 105.27300,42.470000"
   id="path55" />
				<path
   style="fill:none;stroke:#000000"
   d="M 105.28900,42.471000 C 106.71100,40.202000 107.20100,39.631000 107.64400,39.125000 C 108.08700,38.619000 108.36700,38.505000 108.55300,38.391000 C 108.73900,38.277000 109.18300,38.113000 109.50900,38.130000 C 109.83600,38.146000 110.18500,38.212000 110.44200,38.391000 C 110.69800,38.570000 111.09500,38.848000 111.37500,39.158000 C 111.65500,39.468000 111.91100,39.729000 112.30800,40.317000 C 112.70500,40.905000 112.61100,40.643000 113.70700,42.471000"
   id="path57" />
			</g>
			<line
   style="fill:none;stroke:#000000"
   x1="29.471001"
   y1="42.582001"
   x2="9.4250002"
   y2="42.582001"
   id="line59" />
			<line
   style="fill:none;stroke:#000000"
   x1="133.68600"
   y1="42.396000"
   x2="113.64000"
   y2="42.396000"
   id="line61" />
		</g><g
     id="g63">
			<line
   style="fill:none;stroke:#000000"
   x1="21.964001"
   y1="15.853000"
   x2="11.764000"
   y2="15.853000"
   id="line65" />
			<path
   d="M 8.6860000,15.853000 C 10.134000,16.390000 11.932000,17.308000 13.045000,18.278000 L 12.168000,15.853000 L 13.045000,13.428000 C 11.932000,14.399000 10.134000,15.316000 8.6860000,15.853000 z "
   id="path67" />
		</g><g
     id="g69">
			<line
   style="fill:none;stroke:#000000"
   x1="31.549000"
   y1="35.403000"
   x2="21.349001"
   y2="35.403000"
   id="line71" />
			<path
   d="M 18.271000,35.403000 C 19.719000,35.941000 21.517000,36.858000 22.630000,37.828000 L 21.753000,35.403000 L 22.630000,32.978000 C 21.516000,33.949000 19.719000,34.866000 18.271000,35.403000 z "
   id="path73" />
		</g></g><g
   id="g2297"><g
     id="g75">
			<g
   id="g77">
				<path
   style="fill:none;stroke:#000000"
   d="M 24.162000,87.996000 C 25.584000,84.755000 26.074000,83.939000 26.517000,83.217000 C 26.960000,82.494000 27.240000,82.331000 27.426000,82.168000 C 27.612000,82.005000 28.055000,81.772000 28.382000,81.795000 C 28.708000,81.818000 29.058000,81.912000 29.315000,82.168000 C 29.572000,82.424000 29.968000,82.821000 30.248000,83.264000 C 30.528000,83.707000 30.784000,84.080000 31.181000,84.919000 C 31.577000,85.758000 31.484000,85.385000 32.580000,87.997000"
   id="path79" />
				<path
   style="fill:none;stroke:#000000"
   d="M 32.595000,87.994000 C 34.017000,91.235000 34.507000,92.051000 34.950000,92.774000 C 35.393000,93.497000 35.673000,93.660000 35.859000,93.823000 C 36.045000,93.986000 36.489000,94.219000 36.815000,94.196000 C 37.142000,94.173000 37.491000,94.079000 37.748000,93.823000 C 38.005000,93.567000 38.401000,93.170000 38.681000,92.727000 C 38.961000,92.284000 39.217000,91.911000 39.614000,91.071000 C 40.011000,90.231000 39.917000,90.605000 41.013000,87.993000"
   id="path81" />
				<path
   style="fill:none;stroke:#000000"
   d="M 41.028000,87.996000 C 42.450000,84.755000 42.940000,83.939000 43.383000,83.217000 C 43.826000,82.494000 44.106000,82.331000 44.292000,82.168000 C 44.478000,82.005000 44.921000,81.772000 45.248000,81.795000 C 45.574000,81.818000 45.924000,81.912000 46.181000,82.168000 C 46.437000,82.424000 46.833000,82.821000 47.114000,83.264000 C 47.394000,83.707000 47.650000,84.080000 48.047000,84.919000 C 48.443000,85.758000 48.350000,85.385000 49.446000,87.997000"
   id="path83" />
				<path
   style="fill:none;stroke:#000000"
   d="M 49.461000,87.994000 C 50.883000,91.235000 51.373000,92.051000 51.816000,92.774000 C 52.259000,93.497000 52.539000,93.660000 52.725000,93.823000 C 52.911000,93.986000 53.354000,94.219000 53.681000,94.196000 C 54.008000,94.173000 54.357000,94.079000 54.614000,93.823000 C 54.871000,93.567000 55.267000,93.170000 55.547000,92.727000 C 55.827000,92.284000 56.083000,91.911000 56.480000,91.071000 C 56.877000,90.231000 56.783000,90.605000 57.879000,87.993000"
   id="path85" />
				<path
   style="fill:none;stroke:#000000"
   d="M 57.895000,87.996000 C 59.317000,84.755000 59.807000,83.939000 60.250000,83.217000 C 60.693000,82.494000 60.973000,82.331000 61.159000,82.168000 C 61.346000,82.005000 61.789000,81.772000 62.115000,81.795000 C 62.442000,81.818000 62.791000,81.912000 63.048000,82.168000 C 63.305000,82.424000 63.701000,82.821000 63.981000,83.264000 C 64.261000,83.707000 64.517000,84.080000 64.914000,84.919000 C 65.311000,85.758000 65.217000,85.385000 66.313000,87.997000"
   id="path87" />
				<path
   style="fill:none;stroke:#000000"
   d="M 66.328000,87.994000 C 67.750000,91.235000 68.240000,92.051000 68.683000,92.774000 C 69.126000,93.497000 69.406000,93.660000 69.592000,93.823000 C 69.778000,93.986000 70.221000,94.219000 70.548000,94.196000 C 70.874000,94.173000 71.224000,94.079000 71.481000,93.823000 C 71.737000,93.567000 72.134000,93.170000 72.414000,92.727000 C 72.693000,92.284000 72.950000,91.911000 73.347000,91.071000 C 73.743000,90.232000 73.650000,90.605000 74.746000,87.993000"
   id="path89" />
				<path
   style="fill:none;stroke:#000000"
   d="M 74.761000,87.996000 C 76.183000,84.755000 76.673000,83.939000 77.116000,83.217000 C 77.559000,82.494000 77.839000,82.331000 78.025000,82.168000 C 78.211000,82.005000 78.655000,81.772000 78.981000,81.795000 C 79.307000,81.818000 79.657000,81.912000 79.914000,82.168000 C 80.171000,82.424000 80.567000,82.821000 80.847000,83.264000 C 81.127000,83.707000 81.383000,84.080000 81.780000,84.919000 C 82.177000,85.758000 82.083000,85.385000 83.179000,87.997000"
   id="path91" />
				<path
   style="fill:none;stroke:#000000"
   d="M 83.195000,87.994000 C 84.617000,91.235000 85.107000,92.051000 85.549000,92.774000 C 85.992000,93.497000 86.272000,93.660000 86.458000,93.823000 C 86.645000,93.986000 87.088000,94.219000 87.414000,94.196000 C 87.741000,94.173000 88.090000,94.079000 88.347000,93.823000 C 88.604000,93.567000 89.000000,93.170000 89.280000,92.727000 C 89.560000,92.284000 89.817000,91.911000 90.213000,91.071000 C 90.609000,90.232000 90.516000,90.605000 91.612000,87.993000"
   id="path93" />
				<path
   style="fill:none;stroke:#000000"
   d="M 91.628000,87.996000 C 93.050000,84.755000 93.540000,83.939000 93.983000,83.217000 C 94.426000,82.494000 94.706000,82.331000 94.892000,82.168000 C 95.078000,82.005000 95.521000,81.772000 95.848000,81.795000 C 96.174000,81.818000 96.524000,81.912000 96.781000,82.168000 C 97.037000,82.424000 97.434000,82.821000 97.714000,83.264000 C 97.994000,83.707000 98.250000,84.080000 98.647000,84.919000 C 99.044000,85.758000 98.950000,85.385000 100.04600,87.997000"
   id="path95" />
				<path
   style="fill:none;stroke:#000000"
   d="M 100.06100,87.994000 C 101.48300,91.235000 101.97300,92.051000 102.41600,92.774000 C 102.85900,93.497000 103.13900,93.660000 103.32500,93.823000 C 103.51100,93.986000 103.95400,94.219000 104.28100,94.196000 C 104.60700,94.173000 104.95700,94.079000 105.21400,93.823000 C 105.47100,93.567000 105.86700,93.170000 106.14700,92.727000 C 106.42700,92.284000 106.68300,91.911000 107.08000,91.071000 C 107.47700,90.231000 107.38300,90.605000 108.47900,87.993000"
   id="path97" />
			</g>
			<line
   style="fill:none;stroke:#000000"
   x1="24.243999"
   y1="87.835999"
   x2="4.1980000"
   y2="87.835999"
   id="line99" />
			<line
   style="fill:none;stroke:#000000"
   x1="128.45799"
   y1="88.101997"
   x2="108.41200"
   y2="88.101997"
   id="line101" />
		</g><g
     id="g103">
			<g
   id="g105">
				<path
   style="fill:none;stroke:#000000"
   d="M 41.192000,107.86800 C 42.614000,110.13700 43.104000,110.70800 43.546000,111.21400 C 43.989000,111.72000 44.269000,111.83400 44.456000,111.94800 C 44.643000,112.06200 45.085000,112.22500 45.412000,112.20900 C 45.739000,112.19300 46.088000,112.12700 46.345000,111.94800 C 46.602000,111.76800 46.998000,111.49100 47.278000,111.18100 C 47.558000,110.87100 47.815000,110.61000 48.211000,110.02200 C 48.607000,109.43500 48.514000,109.69600 49.610000,107.86800"
   id="path107" />
				<path
   style="fill:none;stroke:#000000"
   d="M 49.625000,107.86900 C 51.047000,105.60000 51.537000,105.02900 51.980000,104.52300 C 52.423000,104.01700 52.703000,103.90300 52.889000,103.78900 C 53.075000,103.67500 53.518000,103.51200 53.845000,103.52800 C 54.171000,103.54500 54.521000,103.61000 54.778000,103.78900 C 55.034000,103.96900 55.431000,104.24600 55.711000,104.55600 C 55.991000,104.86600 56.247000,105.12700 56.644000,105.71500 C 57.041000,106.30300 56.947000,106.04200 58.043000,107.86900"
   id="path109" />
				<path
   style="fill:none;stroke:#000000"
   d="M 58.058000,107.86800 C 59.480000,110.13700 59.970000,110.70800 60.413000,111.21400 C 60.856000,111.72000 61.136000,111.83400 61.322000,111.94800 C 61.508000,112.06200 61.952000,112.22500 62.278000,112.20900 C 62.605000,112.19300 62.954000,112.12700 63.211000,111.94800 C 63.468000,111.76900 63.864000,111.49100 64.144000,111.18100 C 64.424000,110.87100 64.680000,110.61000 65.077000,110.02200 C 65.474000,109.43400 65.380000,109.69600 66.476000,107.86800"
   id="path111" />
				<path
   style="fill:none;stroke:#000000"
   d="M 66.492000,107.86900 C 67.914000,105.60000 68.404000,105.02900 68.846000,104.52300 C 69.289000,104.01700 69.569000,103.90300 69.756000,103.78900 C 69.943000,103.67500 70.385000,103.51200 70.712000,103.52800 C 71.039000,103.54500 71.388000,103.61000 71.645000,103.78900 C 71.902000,103.96900 72.298000,104.24600 72.578000,104.55600 C 72.858000,104.86600 73.115000,105.12700 73.511000,105.71500 C 73.907000,106.30200 73.814000,106.04200 74.910000,107.86900"
   id="path113" />
				<path
   style="fill:none;stroke:#000000"
   d="M 74.925000,107.86800 C 76.347000,110.13700 76.837000,110.70800 77.280000,111.21400 C 77.723000,111.72000 78.003000,111.83400 78.189000,111.94800 C 78.375000,112.06200 78.818000,112.22500 79.145000,112.20900 C 79.471000,112.19300 79.821000,112.12700 80.078000,111.94800 C 80.335000,111.76900 80.731000,111.49100 81.011000,111.18100 C 81.291000,110.87100 81.547000,110.61000 81.944000,110.02200 C 82.341000,109.43400 82.247000,109.69600 83.343000,107.86800"
   id="path115" />
				<path
   style="fill:none;stroke:#000000"
   d="M 83.358000,107.86900 C 84.780000,105.60000 85.270000,105.02900 85.713000,104.52300 C 86.156000,104.01700 86.436000,103.90300 86.622000,103.78900 C 86.809000,103.67500 87.252000,103.51200 87.578000,103.52800 C 87.905000,103.54500 88.254000,103.61000 88.511000,103.78900 C 88.768000,103.96800 89.164000,104.24600 89.444000,104.55600 C 89.724000,104.86600 89.981000,105.12700 90.377000,105.71500 C 90.773000,106.30200 90.680000,106.04200 91.776000,107.86900"
   id="path117" />
				<path
   style="fill:none;stroke:#000000"
   d="M 91.792000,107.86800 C 93.214000,110.13700 93.704000,110.70800 94.146000,111.21400 C 94.589000,111.72000 94.869000,111.83400 95.056000,111.94800 C 95.243000,112.06200 95.685000,112.22500 96.012000,112.20900 C 96.338000,112.19300 96.688000,112.12700 96.945000,111.94800 C 97.201000,111.76800 97.598000,111.49100 97.878000,111.18100 C 98.158000,110.87100 98.414000,110.61000 98.810000,110.02200 C 99.206000,109.43500 99.113000,109.69600 100.20900,107.86800"
   id="path119" />
				<path
   style="fill:none;stroke:#000000"
   d="M 100.22500,107.86900 C 101.64700,105.60000 102.13700,105.02900 102.58000,104.52300 C 103.02300,104.01700 103.30300,103.90300 103.48900,103.78900 C 103.67500,103.67500 104.11800,103.51200 104.44500,103.52800 C 104.77100,103.54500 105.12100,103.61000 105.37800,103.78900 C 105.63500,103.96800 106.03100,104.24600 106.31100,104.55600 C 106.59100,104.86600 106.84700,105.12700 107.24400,105.71500 C 107.64100,106.30300 107.54700,106.04200 108.64300,107.86900"
   id="path121" />
				<path
   style="fill:none;stroke:#000000"
   d="M 108.65800,107.86800 C 110.08000,110.13700 110.57000,110.70800 111.01300,111.21400 C 111.45600,111.72000 111.73600,111.83400 111.92300,111.94800 C 112.10900,112.06200 112.55200,112.22500 112.87900,112.20900 C 113.20600,112.19300 113.55500,112.12700 113.81200,111.94800 C 114.06900,111.76900 114.46500,111.49100 114.74500,111.18100 C 115.02500,110.87100 115.28200,110.61000 115.67800,110.02200 C 116.07400,109.43500 115.98100,109.69600 117.07700,107.86800"
   id="path123" />
				<path
   style="fill:none;stroke:#000000"
   d="M 117.09100,107.86900 C 118.51300,105.60000 119.00300,105.02900 119.44600,104.52300 C 119.88900,104.01700 120.16900,103.90300 120.35500,103.78900 C 120.54100,103.67500 120.98400,103.51200 121.31100,103.52800 C 121.63700,103.54500 121.98700,103.61000 122.24400,103.78900 C 122.50000,103.96900 122.89700,104.24600 123.17600,104.55600 C 123.45600,104.86600 123.71300,105.12700 124.10900,105.71500 C 124.50500,106.30200 124.41200,106.04200 125.50800,107.86900"
   id="path125" />
			</g>
			<line
   style="fill:none;stroke:#000000"
   x1="41.273998"
   y1="107.98000"
   x2="21.228001"
   y2="107.98000"
   id="line127" />
			<line
   style="fill:none;stroke:#000000"
   x1="145.48801"
   y1="107.79400"
   x2="125.44200"
   y2="107.79400"
   id="line129" />
		</g><g
     id="g131">
			<line
   style="fill:none;stroke:#000000"
   x1="25.103001"
   y1="80.400002"
   x2="14.902000"
   y2="80.400002"
   id="line133" />
			<path
   d="M 11.825000,80.400000 C 13.273000,80.938000 15.070000,81.855000 16.184000,82.825000 L 15.306000,80.400000 L 16.183000,77.975000 C 15.070000,78.946000 13.273000,79.863000 11.825000,80.400000 z "
   id="path135" />
		</g><g
     id="g137">
			<line
   style="fill:none;stroke:#000000"
   x1="42.823002"
   y1="101.27900"
   x2="32.623001"
   y2="101.27900"
   id="line139" />
			<path
   d="M 29.545000,101.27900 C 30.993000,101.81600 32.790000,102.73300 33.904000,103.70400 L 33.027000,101.27900 L 33.904000,98.854000 C 32.790000,99.824000 30.993000,100.74100 29.545000,101.27900 z "
   id="path141" />
		</g></g>
<text
   xml:space="preserve"
   style="font-size:11.000000px;font-style:normal;font-variant:normal;font-weight:normal;font-stretch:normal;line-height:100.00000%;writing-mode:lr-tb;text-anchor:start;fill:#000000;fill-opacity:1.0000000;stroke:none;stroke-width:1.0000000pt;stroke-linecap:butt;stroke-linejoin:miter;stroke-opacity:1.0000000;font-family:Liberation Sans"
   x="-21.636477"
   y="22.31859"
   id="text2335"
   sodipodi:linespacing="100.00000%"><tspan
     sodipodi:role="line"
     id="tspan2337"
     x="-21.636477"
     y="22.318590">1</tspan></text>
<text
   xml:space="preserve"
   style="font-size:11.000000px;font-style:normal;font-variant:normal;font-weight:normal;font-stretch:normal;line-height:100.00000%;writing-mode:lr-tb;text-anchor:start;fill:#000000;fill-opacity:1.0000000;stroke:none;stroke-width:1.0000000pt;stroke-linecap:butt;stroke-linejoin:miter;stroke-opacity:1.0000000;font-family:Liberation Sans"
   x="-21.392092"
   y="88.605621"
   id="text2339"
   sodipodi:linespacing="100.00000%"><tspan
     sodipodi:role="line"
     id="tspan2341"
     x="-21.392092"
     y="88.605621">2</tspan></text>
</svg>