<?xml version="1.0" encoding="UTF-8" standalone="no"?>
<!-- Generator: Adobe Illustrator 11 Build 196, SVG Export Plug-In . SVG Version: 6.0.0 Build 78)  -->
<svg
   xmlns:dc="http://purl.org/dc/elements/1.1/"
   xmlns:cc="http://web.resource.org/cc/"
   xmlns:rdf="http://www.w3.org/1999/02/22-rdf-syntax-ns#"
   xmlns:svg="http://www.w3.org/2000/svg"
   xmlns="http://www.w3.org/2000/svg"
   xmlns:sodipodi="http://inkscape.sourceforge.net/DTD/sodipodi-0.dtd"
   xmlns:inkscape="http://www.inkscape.org/namespaces/inkscape"
   width="109.632"
   height="170.641"
   viewBox="0 0 109.632 170.641"
   style="overflow:visible;enable-background:new 0 0 109.632 170.641"
   xml:space="preserve"
   id="svg2"
   sodipodi:version="0.32"
   sodipodi:docname="lowest-modes-of-air-column.svg"
   sodipodi:docbase="/home/bcrowell/Documents/writing/books/physics/9share/waves"><metadata
   id="metadata74"><rdf:RDF><cc:Work
       rdf:about=""><dc:format>image/svg+xml</dc:format><dc:type
         rdf:resource="http://purl.org/dc/dcmitype/StillImage" /></cc:Work></rdf:RDF></metadata><defs
   id="defs72">
		
		
		
		
		
		
		
		
		
		
		
		
		
		
		
		
	</defs><sodipodi:namedview
   inkscape:cy="81.459399"
   inkscape:cx="121.97844"
   inkscape:zoom="2.8144786"
   inkscape:window-height="996"
   inkscape:window-width="1278"
   inkscape:pageshadow="2"
   inkscape:pageopacity="0.0"
   borderopacity="1.0"
   bordercolor="#666666"
   pagecolor="#ffffff"
   id="base"
   inkscape:window-x="0"
   inkscape:window-y="0"
   inkscape:current-layer="svg2" />
	<style
   type="text/css"
   id="style4">
	
	</style>
	<g
   id="g1510"
   transform="translate(12.61333,171.2573)"><rect
     y="-46.309578"
     x="-32.688110"
     height="74.969475"
     width="149.22835"
     id="rect1372"
     style="fill:#dedede;fill-opacity:1.0000000;fill-rule:evenodd;stroke:none;stroke-width:1.0000000pt;stroke-linecap:butt;stroke-linejoin:miter;stroke-opacity:1.0000000" /><g
     transform="translate(2.059034,-10.09979)"
     id="g1421"><path
       id="path7"
       d="M -10.666470,6.6855000 C 23.394530,-5.5695000 35.121530,-8.6555000 45.729530,-11.388500 C 56.338530,-14.121500 63.038530,-14.739500 67.506530,-15.356500 C 71.972530,-15.973500 82.582530,-16.855500 90.399530,-16.767500"
       style="fill:none;stroke:#000000;stroke-width:1.5000000" /><path
       id="path9"
       d="M -10.666470,7.1315000 C 23.394530,19.386500 35.121530,22.472500 45.730530,25.205500 C 56.339530,27.938500 63.040530,28.556500 67.507530,29.172500 C 71.973530,29.789500 82.583530,30.671500 90.400530,30.583500"
       style="fill:none;stroke:#000000;stroke-width:1.5000000" /><path
       id="path27"
       d="M -10.660470,7.0265000 C 23.400530,7.0255000 35.126530,7.0255000 45.735530,7.0245000 C 56.344530,7.0245000 63.045530,7.0245000 67.512530,7.0245000 C 71.979530,7.0245000 82.589530,7.0245000 90.406530,7.0245000"
       style="fill:none;stroke:#000000;stroke-width:0.50000000" /><g
       id="g33"
       transform="translate(-11.01447,-31.97750)">
			<text
   id="text35"
   transform="translate(0.413100,15.75000)"><tspan
     id="tspan37"
     style="font-size:7.6500001px;font-family:Liberation Sans"
     y="0"
     x="0">open</tspan></text>



		</g><g
       id="g39"
       transform="translate(-11.01447,-31.97750)">
			<text
   id="text41"
   transform="translate(75.41310,9.000000)"><tspan
     id="tspan43"
     style="font-size:7.6500001px;font-family:Liberation Sans"
     y="0"
     x="0">closed</tspan></text>



		</g></g></g><g
   id="g1497"
   transform="translate(2.309477,0.692363)"><rect
     y="54.278423"
     x="-22.384253"
     height="64.665611"
     width="149.22835"
     id="rect1337"
     style="fill:#dedede;fill-opacity:1.0000000;fill-rule:evenodd;stroke:none;stroke-width:1.0000000pt;stroke-linecap:butt;stroke-linejoin:miter;stroke-opacity:1.0000000;overflow:visible" /><g
     transform="translate(1.481421,-9.312689)"
     id="g1441"><path
       id="path11"
       d="M 0.35600000,97.674000 C 17.386000,106.86500 23.250000,109.17900 28.554000,111.22900 C 33.858000,113.27900 37.208000,113.74200 39.442000,114.20500 C 41.675000,114.66800 46.980000,115.32900 50.889000,115.26300 C 54.798000,115.19700 58.985000,114.93200 62.056000,114.20500 C 65.127000,113.47800 69.873000,112.35400 73.223000,111.09700 C 76.573000,109.84100 79.645000,108.78300 84.390000,106.40300 C 89.137000,104.02200 88.019000,105.08000 101.14100,97.674000"
       style="fill:none;stroke:#000000;stroke-width:1.5000000" /><path
       id="path13"
       d="M 0.35600000,97.240000 C 17.386000,88.049000 23.250000,85.734000 28.554000,83.684000 C 33.858000,81.634000 37.208000,81.171000 39.442000,80.708000 C 41.675000,80.245000 46.980000,79.584000 50.889000,79.650000 C 54.798000,79.716000 58.985000,79.981000 62.056000,80.708000 C 65.127000,81.435000 69.873000,82.560000 73.223000,83.816000 C 76.573000,85.072000 79.645000,86.130000 84.390000,88.511000 C 89.137000,90.891000 88.019000,89.833000 101.14100,97.240000"
       style="fill:none;stroke:#000000;stroke-width:1.5000000" /><path
       id="path29"
       d="M 0.35400000,97.548000 C 34.415000,97.547000 46.141000,97.547000 56.750000,97.547000 C 67.359000,97.547000 74.060000,97.547000 78.527000,97.547000 C 82.994000,97.547000 93.604000,97.547000 101.42100,97.547000"
       style="fill:none;stroke:#000000;stroke-width:0.50000000" /><g
       id="g45"
       transform="translate(0.000000,2.625000)">
			<text
   id="text47"
   transform="translate(0.413100,77.48970)"><tspan
     id="tspan49"
     style="font-size:7.6500001px;font-family:Liberation Sans"
     y="0"
     x="0">open</tspan></text>



		</g><g
       id="g51"
       transform="translate(0.000000,-2.625000)">
			<text
   id="text53"
   transform="translate(81.40720,82.73970)"><tspan
     id="tspan55"
     style="font-size:7.6500001px;font-family:Liberation Sans"
     y="0"
     x="0">open</tspan></text>



		</g></g></g><g
   id="g1480"
   transform="translate(4.441309,-159.1769)"><rect
     y="139.90707"
     x="-24.516085"
     height="68.929283"
     width="149.22835"
     id="rect1339"
     style="fill:#dedede;fill-opacity:1.0000000;fill-rule:evenodd;stroke:none;stroke-width:1.0000000pt;stroke-linecap:butt;stroke-linejoin:miter;stroke-opacity:1.0000000;overflow:visible" /><g
     transform="translate(-4.488967,-3.199413)"
     id="g1465"><g
       id="g15"
       transform="translate(3.553056,30.91159)">
			<path
   id="path17"
   d="M 0.65100000,134.67500 C 4.5600000,134.74100 8.7470000,135.00600 11.818000,135.73300 C 14.889000,136.46100 19.635000,137.58500 22.985000,138.84100 C 26.335000,140.09700 29.406000,141.15500 34.152000,143.53600 C 38.898000,145.91700 37.781000,144.85900 50.903000,152.26500"
   style="fill:none;stroke:#000000;stroke-width:1.5000000" />
			<path
   id="path19"
   d="M 50.884000,152.29700 C 67.914000,161.48800 73.778000,163.80300 79.082000,165.85300 C 84.387000,167.90300 87.737000,168.36600 89.971000,168.82900 C 92.204000,169.29200 97.509000,169.95300 101.41700,169.88700"
   style="fill:none;stroke:#000000;stroke-width:1.5000000" />
		</g><g
       id="g21"
       transform="translate(3.553056,30.91159)">
			<path
   id="path23"
   d="M 0.65100000,169.89100 C 4.5600000,169.82500 8.7480000,169.56000 11.819000,168.83300 C 14.890000,168.10600 19.636000,166.98200 22.986000,165.72600 C 26.336000,164.46900 29.407000,163.41200 34.153000,161.03100 C 38.899000,158.65100 37.782000,159.70900 50.904000,152.30300"
   style="fill:none;stroke:#000000;stroke-width:1.5000000" />
			<path
   id="path25"
   d="M 50.883000,152.26800 C 67.914000,143.07700 73.777000,140.76300 79.081000,138.71300 C 84.386000,136.66300 87.736000,136.20000 89.970000,135.73700 C 92.203000,135.27400 97.508000,134.61300 101.41600,134.67900"
   style="fill:none;stroke:#000000;stroke-width:1.5000000" />
		</g><path
       id="path31"
       d="M 3.9070560,183.19559 C 37.968056,183.19459 49.694056,183.19459 60.303056,183.19359 C 70.912056,183.19359 77.613056,183.19359 82.080056,183.19359 C 86.547056,183.19359 97.157056,183.19359 104.97406,183.19359"
       style="fill:none;stroke:#000000;stroke-width:0.50000000" /><g
       id="g57"
       transform="translate(3.553056,29.41159)">
			<text
   id="text59"
   transform="translate(0.413100,129.9897)"><tspan
     id="tspan61"
     style="font-size:7.6500001px;font-family:Liberation Sans"
     y="0"
     x="0">closed</tspan></text>



		</g><g
       id="g63"
       transform="translate(3.553056,32.41159)">
			<text
   id="text65"
   transform="translate(75.41310,126.9897)"><tspan
     id="tspan67"
     style="font-size:7.6500001px;font-family:Liberation Sans"
     y="0"
     x="0">closed</tspan></text>



		</g></g></g><line
   id="line69"
   y2="124.50100"
   x2="160.26305"
   y1="46.500999"
   x1="160.26305"
   style="fill:none" />
<text
   xml:space="preserve"
   style="font-size:11.000000px;font-style:normal;font-variant:normal;font-weight:normal;font-stretch:normal;line-height:100.00000%;writing-mode:lr-tb;text-anchor:start;fill:#000000;fill-opacity:1.0000000;stroke:none;stroke-width:1.0000000pt;stroke-linecap:butt;stroke-linejoin:miter;stroke-opacity:1.0000000;font-family:Liberation Sans"
   x="-14.813496"
   y="38.100769"
   id="text1523"
   sodipodi:linespacing="100.00000%"><tspan
     sodipodi:role="line"
     id="tspan1525"
     x="-14.813496"
     y="38.100769">1</tspan></text>

<text
   xml:space="preserve"
   style="font-size:11.000000px;font-style:normal;font-variant:normal;font-weight:normal;font-stretch:normal;line-height:100.00000%;writing-mode:lr-tb;text-anchor:start;fill:#000000;fill-opacity:1.0000000;stroke:none;stroke-width:1.0000000pt;stroke-linecap:butt;stroke-linejoin:miter;stroke-opacity:1.0000000;font-family:Liberation Sans"
   x="-14.569111"
   y="113.12169"
   id="text1527"
   sodipodi:linespacing="100.00000%"><tspan
     sodipodi:role="line"
     id="tspan1529"
     x="-14.569111"
     y="113.12169">2</tspan></text>

<text
   xml:space="preserve"
   style="font-size:11.000000px;font-style:normal;font-variant:normal;font-weight:normal;font-stretch:normal;line-height:100.00000%;writing-mode:lr-tb;text-anchor:start;fill:#000000;fill-opacity:1.0000000;stroke:none;stroke-width:1.0000000pt;stroke-linecap:butt;stroke-linejoin:miter;stroke-opacity:1.0000000;font-family:Liberation Sans"
   x="-14.695332"
   y="189.15709"
   id="text1531"
   sodipodi:linespacing="100.00000%"><tspan
     sodipodi:role="line"
     id="tspan1533"
     x="-14.695332"
     y="189.15709">3</tspan></text>

</svg>