<?xml version="1.0" encoding="UTF-8" standalone="no"?>
<!-- Created with Inkscape (http://www.inkscape.org/) -->
<svg
   xmlns:dc="http://purl.org/dc/elements/1.1/"
   xmlns:cc="http://web.resource.org/cc/"
   xmlns:rdf="http://www.w3.org/1999/02/22-rdf-syntax-ns#"
   xmlns:svg="http://www.w3.org/2000/svg"
   xmlns="http://www.w3.org/2000/svg"
   xmlns:sodipodi="http://inkscape.sourceforge.net/DTD/sodipodi-0.dtd"
   xmlns:inkscape="http://www.inkscape.org/namespaces/inkscape"
   width="744.09448819"
   height="1052.3622047"
   id="svg1386"
   sodipodi:version="0.32"
   sodipodi:docbase="/home/bcrowell/Documents/writing/lm/trunk/3vw/ch04/figs"
   sodipodi:docname="rope-reflections.svg">
  <defs
     id="defs1388">
		
		
		
		
		
		
		
		
		
		
		
		
	
		
		
		
		
		
		
		
		
		
		
		
		
	</defs>
  <sodipodi:namedview
     id="base"
     pagecolor="#ffffff"
     bordercolor="#666666"
     borderopacity="1.0"
     inkscape:pageopacity="0.0"
     inkscape:pageshadow="2"
     inkscape:zoom="3.3246390"
     inkscape:cx="365.09136"
     inkscape:cy="466.67964"
     inkscape:document-units="mm"
     inkscape:current-layer="layer1"
     inkscape:window-width="1278"
     inkscape:window-height="996"
     inkscape:window-x="0"
     inkscape:window-y="0" />
  <metadata
     id="metadata1391">
    <rdf:RDF>
      <cc:Work
         rdf:about="">
        <dc:format>image/svg+xml</dc:format>
        <dc:type
           rdf:resource="http://purl.org/dc/dcmitype/StillImage" />
      </cc:Work>
    </rdf:RDF>
  </metadata>
  <g
     inkscape:label="Layer 1"
     inkscape:groupmode="layer"
     id="layer1">
    <rect
       style="fill:#dedede;fill-opacity:1.0000000;fill-rule:evenodd;stroke:none;stroke-width:1.0000000pt;stroke-linecap:butt;stroke-linejoin:miter;stroke-opacity:1.0000000"
       id="rect2163"
       width="184.25197"
       height="101.06361"
       x="283.14569"
       y="482.37549" />
    <rect
       style="fill:#dedede;fill-opacity:1.0000000;fill-rule:evenodd;stroke:none;stroke-width:1.0000000pt;stroke-linecap:butt;stroke-linejoin:miter;stroke-opacity:1.0000000"
       id="rect1433"
       width="184.25197"
       height="101.06361"
       x="283.14569"
       y="588.55243" />
    <line
       id="line49"
       y2="576.19519"
       x2="356.42981"
       y1="488.52921"
       x1="356.42981"
       style="fill:none;stroke:#000000;stroke-width:0.50000000;stroke-dasharray:2.0000000 " />
    <line
       id="line51"
       y2="519.91522"
       x2="450.37479"
       y1="519.91522"
       x1="355.94379"
       style="fill:none;stroke:#a9521b;stroke-width:2.0000000" />
    <g
       id="g53"
       transform="translate(318.6248,488.5292)">
			<line
   id="line55"
   y2="44.512001"
   x2="96.429001"
   y1="44.512001"
   x1="77.429001"
   style="fill:none;stroke:#000000" />

			<path
   id="path57"
   d="M 99.446000,44.512000 C 98.026000,45.039000 96.264000,45.938000 95.173000,46.889000 L 96.033000,44.512000 L 95.173000,42.135000 C 96.265000,43.086000 98.026000,43.986000 99.446000,44.512000 z " />

		</g>
    <g
       id="g59"
       transform="translate(318.6248,488.5292)">
			<line
   id="line61"
   y2="8.5730000"
   x2="31.341999"
   y1="8.5730000"
   x1="21.341999"
   style="fill:none;stroke:#000000" />

			<path
   id="path63"
   d="M 34.360000,8.5730000 C 32.940000,9.1000000 31.178000,9.9990000 30.087000,10.950000 L 30.947000,8.5730000 L 30.087000,6.1960000 C 31.178000,7.1470000 32.940000,8.0460000 34.360000,8.5730000 z " />

		</g>
    <path
       id="path65"
       d="M 356.49980,519.85620 C 356.03080,519.48120 355.65580,519.05920 355.46880,518.48120 C 355.18780,518.01220 354.56280,517.87220 354.09380,518.16920 C 354.03580,518.20420 353.99880,518.25720 353.95080,518.30220 C 353.93580,518.29120 353.92480,518.27620 353.90880,518.26620 C 353.93780,517.82220 353.98980,517.38220 354.10980,516.95120 C 354.19680,516.51720 353.98180,516.11220 353.61780,515.90520 C 353.64880,515.86820 353.67880,515.83020 353.71880,515.79520 C 354.01580,515.32620 353.87480,514.70120 353.40680,514.42020 C 353.24680,514.31820 353.06980,514.28620 352.89280,514.28220 C 352.95380,514.01320 353.04980,513.75220 353.23480,513.51420 C 353.51580,513.03020 353.35980,512.42020 352.87580,512.15520 C 352.72380,512.06720 352.56080,512.03620 352.39780,512.03020 C 352.45680,511.85620 352.52180,511.68420 352.59380,511.51420 C 352.73480,510.96720 352.40580,510.43620 351.87480,510.29520 C 351.79780,510.27520 351.72480,510.28520 351.64880,510.28320 C 351.67180,510.06020 351.71280,509.84020 351.81180,509.62320 C 351.99980,509.10720 351.74980,508.52920 351.23380,508.32620 C 351.13480,508.29020 351.03380,508.28420 350.93380,508.27920 C 350.95380,507.99620 350.99580,507.71720 351.10880,507.45120 C 351.20880,506.95120 350.90780,506.49220 350.43880,506.33120 C 350.47080,506.08220 350.51580,505.83520 350.59380,505.59120 C 350.70680,505.11220 350.43980,504.63620 349.99780,504.45220 C 350.01280,504.40420 350.02480,504.35620 350.04680,504.30920 C 350.12480,504.13720 350.29680,504.01220 350.42180,503.87120 C 350.74980,503.43320 350.67180,502.80920 350.23380,502.46520 C 349.81480,502.15120 349.22880,502.21920 348.87780,502.61020 C 348.85980,502.46020 348.85480,502.30820 348.87480,502.15320 C 348.81280,501.60620 348.31280,501.20020 347.76580,501.26220 C 347.54380,501.28720 347.35780,501.39720 347.20380,501.54020 C 346.97180,501.58120 346.75280,501.69720 346.59980,501.89720 C 346.23980,501.69820 345.77480,501.73020 345.45280,502.02720 C 345.42080,502.05320 345.39980,502.08920 345.36880,502.11620 C 345.26180,501.99220 345.13380,501.88420 344.96880,501.82420 C 344.43780,501.63620 343.87480,501.90220 343.68780,502.41820 C 343.59580,502.68220 343.52580,502.95320 343.44680,503.22020 C 343.40980,503.19420 343.38480,503.15820 343.34380,503.13720 C 342.85980,502.87120 342.24980,503.05920 341.99980,503.54320 C 341.94480,503.62420 341.90280,503.71220 341.85380,503.79620 C 341.44980,503.70520 341.01480,503.85820 340.78180,504.21420 C 340.62080,504.47820 340.47680,504.76220 340.35480,505.05820 C 340.27880,505.03920 340.20680,505.01120 340.12580,505.01120 C 339.57880,505.01120 339.12580,505.46420 339.12580,506.01120 C 339.06380,506.34320 339.12280,506.66220 339.19680,506.98020 C 339.13080,506.97520 339.06880,506.95620 339.00080,506.96420 C 338.45380,507.02620 338.06280,507.52620 338.12580,508.07320 C 338.14380,508.22720 338.16580,508.38820 338.18880,508.54920 C 337.73180,508.64120 337.37580,509.03020 337.37580,509.51120 C 336.82880,509.51120 336.37580,509.96420 336.37580,510.51120 C 336.36680,510.89820 336.42380,511.27420 336.51880,511.64220 C 336.33880,511.61620 336.15280,511.62120 335.96980,511.69920 C 335.46980,511.91820 335.23580,512.51120 335.45380,513.01120 C 335.53180,513.13420 335.58980,513.26420 335.64080,513.39820 C 335.28180,513.59920 335.06780,514.00220 335.14180,514.43320 C 335.17280,514.64020 335.22080,514.84220 335.26980,515.04220 C 335.21080,515.04820 335.15380,515.04120 335.09480,515.05820 C 334.56380,515.19920 334.26680,515.76120 334.42280,516.29220 C 334.42480,516.30620 334.43180,516.31820 334.43380,516.33220 C 334.00480,516.18920 333.52080,516.33220 333.28180,516.73020 C 332.98480,517.19920 333.12580,517.82420 333.59380,518.10520 C 333.76980,518.24020 333.94980,518.36320 334.12880,518.48920 C 333.49480,518.23420 333.00080,517.73620 332.40580,517.41720 C 331.93680,517.12020 331.31180,517.26120 331.03080,517.72920 C 331.00880,517.76520 331.00480,517.80520 330.98780,517.84220 C 330.60680,517.69120 330.15980,517.78020 329.87780,518.10620 C 329.85980,518.09020 329.84580,518.07220 329.82780,518.05720 C 329.43680,517.66620 328.81180,517.66620 328.42180,518.05720 C 328.39580,518.08320 328.38580,518.11720 328.36380,518.14420 C 328.16680,517.96020 327.94780,517.79920 327.68780,517.68220 C 327.25780,517.38520 326.68080,517.49420 326.35480,517.89220 C 326.03180,517.71020 325.63480,517.71020 325.31280,517.93220 C 325.16380,518.03620 325.06580,518.17320 324.99080,518.32020 C 324.92880,518.20820 324.86180,518.10120 324.81280,517.97920 C 324.51580,517.51020 323.90680,517.37020 323.43780,517.66720 C 323.24980,517.78620 323.13080,517.96420 323.05580,518.15620 C 323.00380,518.11420 322.96280,518.06420 322.90680,518.02620 C 322.48480,517.65120 321.85980,517.68220 321.48480,518.08820 C 321.10980,518.49420 321.14080,519.11920 321.54680,519.49420 C 322.09380,519.88520 322.31280,520.52520 322.74980,520.99420 C 323.07780,521.44720 323.70280,521.55620 324.14080,521.22820 C 324.25880,521.14720 324.34980,521.04320 324.42080,520.92920 C 324.51280,521.03520 324.60180,521.14420 324.70380,521.24420 C 325.04780,521.66620 325.68780,521.72820 326.10980,521.36920 C 326.21080,521.28620 326.28880,521.18520 326.34780,521.07620 C 326.39980,521.12620 326.44280,521.18320 326.49980,521.22920 C 326.87480,521.62020 327.51580,521.63520 327.90580,521.26020 C 328.02580,521.14520 328.09980,521.00820 328.15180,520.86420 C 328.39380,521.09920 328.63980,521.33020 328.90580,521.54120 C 329.28080,521.82220 329.78380,521.78920 330.13880,521.51220 C 330.49380,521.86420 331.03780,521.91820 331.43680,521.61920 C 331.55480,521.53120 331.64280,521.41820 331.70880,521.29620 C 332.09980,521.69620 332.71980,521.71120 333.12380,521.32220 C 333.39380,521.06320 333.47180,520.68620 333.37780,520.34320 C 333.44480,520.37020 333.50580,520.41020 333.57680,520.43220 C 334.07680,520.65120 334.67080,520.41620 334.88880,519.90120 C 335.02580,519.58820 334.96980,519.24720 334.79680,518.97520 C 335.01180,519.12920 335.22880,519.27920 335.43580,519.44820 C 335.87380,519.79220 336.49780,519.71420 336.84180,519.27620 C 336.96980,519.10520 337.01880,518.90520 337.02580,518.70420 C 337.27080,518.42820 337.34380,518.03020 337.19780,517.67120 C 337.39380,517.66920 337.59180,517.62920 337.76380,517.51020 C 338.20180,517.18220 338.31080,516.55720 337.99780,516.10420 C 337.85680,515.99120 337.74980,515.86220 337.65380,515.72920 C 337.65380,515.72920 337.65380,515.72920 337.65380,515.72920 C 338.11480,515.52720 338.32080,515.00720 338.17980,514.53520 C 338.43880,514.63920 338.73480,514.64620 338.99780,514.51120 C 339.49780,514.26120 339.68580,513.65220 339.43580,513.16720 C 339.38180,513.03520 339.31580,512.90620 339.24780,512.77820 C 339.72680,512.55720 339.95980,512.00820 339.76380,511.51120 C 339.65280,511.22520 339.54280,510.93920 339.46080,510.64720 C 339.77280,510.73920 340.12080,510.69320 340.38880,510.46420 C 340.79180,510.13520 340.85580,509.53920 340.54680,509.11820 C 340.77880,509.07420 340.98480,508.96320 341.13180,508.79120 C 341.16080,508.78820 341.18780,508.79820 341.21680,508.79220 C 341.76380,508.69820 342.12280,508.18320 342.02880,507.63620 C 341.98080,507.49120 341.96080,507.35020 341.95180,507.21020 C 341.97280,507.21420 341.99080,507.22720 342.01280,507.23020 C 342.55980,507.29220 343.05980,506.90220 343.12180,506.33920 C 343.12280,506.30320 343.13080,506.26920 343.13280,506.23420 C 343.28480,506.41720 343.49380,506.55320 343.74680,506.58920 C 344.28180,506.68120 344.76680,506.32120 344.87480,505.79420 C 345.04280,505.92120 345.24080,506.01120 345.46480,506.01120 C 345.79280,506.01120 346.10580,506.01120 346.43380,506.01120 C 346.99580,506.01120 347.43380,505.55820 347.43380,505.01120 C 347.43380,504.92720 347.40580,504.85120 347.38680,504.77320 C 347.52580,504.91920 347.69880,505.02120 347.89980,505.06320 C 347.88980,505.20820 347.87380,505.35320 347.87180,505.49620 C 347.82480,505.43420 347.77780,505.37120 347.73080,505.30820 C 347.48080,505.80820 347.68380,506.40220 348.18380,506.65220 C 348.25180,506.68720 348.32580,506.69420 348.39780,506.71120 C 348.37480,507.17420 348.37880,507.63920 348.37180,508.10520 C 348.37180,508.48420 348.58980,508.80920 348.90180,508.98320 C 348.89180,509.21120 348.87180,509.43820 348.87180,509.66820 C 348.82480,509.63720 348.79380,509.62120 348.74680,509.59020 C 348.54380,510.10620 348.79380,510.68420 349.30880,510.88720 C 349.41280,510.92820 349.51880,510.93820 349.62480,510.94420 C 349.62480,511.09120 349.62480,511.23920 349.62180,511.38720 C 349.62180,511.81620 349.89480,512.17920 350.28180,512.31920 C 350.18980,512.63320 350.11780,512.95320 350.13680,513.29420 C 350.08180,513.77620 350.39980,514.19120 350.85980,514.31920 C 350.79780,514.70920 350.74780,515.10220 350.65280,515.48120 C 350.54580,516.01620 350.89080,516.53120 351.40280,516.65520 C 351.38880,516.83120 351.37780,517.00820 351.37080,517.18420 C 351.35980,517.59120 351.58080,517.93420 351.91480,518.10820 C 351.89380,518.38820 351.87080,518.66920 351.87080,518.94920 C 351.85780,519.38720 352.14180,519.75420 352.53380,519.90320 C 352.69380,520.54520 352.87580,521.17720 353.15180,521.77820 C 353.38580,522.27820 353.97980,522.49720 354.47980,522.26220 C 354.88280,522.07320 355.08880,521.65120 355.03680,521.23320 C 355.06180,521.25220 355.07880,521.27520 355.10480,521.29420 C 355.51080,521.66920 356.13580,521.65320 356.52680,521.26320 C 356.90580,520.87120 356.90580,520.23120 356.49980,519.85620 z "
       style="fill:#bfa794;stroke:#000000;stroke-width:0.50000000" />
    <path
       id="path69"
       d="M 354.54580,561.85220 C 367.32680,561.85220 374.56180,561.51220 379.12380,561.51220 C 387.31180,561.51220 389.25880,552.97920 391.25880,549.90320 C 393.25880,546.82720 398.25880,539.92820 410.82080,540.07320 C 414.26880,540.11320 413.25880,540.26020 413.25880,540.26020 L 422.07080,561.91420 L 448.37380,561.91420"
       style="fill:none;stroke:#a9521b;stroke-width:2.0000000" />
    <g
       id="g71"
       transform="translate(318.6248,488.5292)">
			<line
   id="line73"
   y2="59.733002"
   x2="10.604000"
   y1="59.733002"
   x1="20.604000"
   style="fill:none;stroke:#000000" />

			<path
   id="path75"
   d="M 7.5860000,59.733000 C 9.0060000,60.260000 10.768000,61.159000 11.859000,62.110000 L 11.000000,59.733000 L 11.860000,57.356000 C 10.768000,58.307000 9.0060000,59.207000 7.5860000,59.733000 z " />

		</g>
    <path
       id="path77"
       d="M 355.81180,561.35620 C 355.17080,561.09020 354.84280,560.48120 354.34280,560.05920 C 353.95180,559.66820 353.32680,559.66820 352.92080,560.04320 C 352.67080,560.29320 352.59780,560.63920 352.66480,560.96220 C 352.26380,560.69020 351.85780,560.42420 351.43580,560.18320 C 350.98280,559.87120 350.35780,559.99520 350.04480,560.44920 C 349.95680,560.57720 349.91180,560.72020 349.89080,560.86520 C 349.78180,560.76220 349.67380,560.65820 349.57680,560.54320 C 349.17080,560.15220 348.54580,560.16820 348.15480,560.55920 C 348.14080,560.57320 348.13680,560.59120 348.12480,560.60520 C 348.10880,560.58920 348.09180,560.57520 348.07680,560.55920 C 347.73080,560.21320 347.20780,560.19220 346.82080,560.45920 C 346.81280,560.42420 346.80180,560.39220 346.79580,560.35520 C 346.56180,559.85520 345.98380,559.62120 345.46780,559.83920 C 345.20480,559.96220 345.02280,560.18120 344.93380,560.43520 C 344.71780,560.13220 344.34580,559.95920 343.95280,560.02620 C 343.72680,560.06520 343.54580,560.18720 343.40280,560.34220 C 343.32180,560.06420 343.17380,559.77020 342.98480,559.46420 C 342.71880,558.98020 342.10980,558.82320 341.62580,559.08920 C 341.51980,559.15120 341.43680,559.23320 341.36280,559.32120 C 341.34680,559.26420 341.32580,559.20920 341.31280,559.15120 C 341.12880,558.68420 340.63680,558.45320 340.16280,558.55020 C 340.13880,558.48520 340.12080,558.41920 340.09380,558.35420 C 339.95280,557.82320 339.40580,557.49520 338.85980,557.65120 C 338.85780,557.65120 338.85580,557.65320 338.85380,557.65420 C 338.79780,557.15820 338.38480,556.76020 337.87580,556.76020 C 337.67280,556.76020 337.49380,556.83720 337.33480,556.94320 C 337.33280,556.94020 337.33180,556.93520 337.32880,556.93220 C 337.14080,556.41620 336.57880,556.13520 336.04780,556.30720 C 335.87880,556.36920 335.74680,556.48020 335.63580,556.60820 C 335.47280,556.35420 335.33080,556.09320 335.34380,555.77620 C 335.21880,555.24520 334.68780,554.91720 334.14080,555.04220 C 333.98080,555.08020 333.84780,555.16220 333.73180,555.26320 C 333.52480,554.91020 333.11780,554.70320 332.70380,554.77620 C 332.46480,554.81720 332.27180,554.95120 332.12680,555.12220 C 331.85880,554.79820 331.41480,554.66320 331.00080,554.83820 C 330.96180,554.85320 330.93680,554.88320 330.90080,554.90220 C 330.62880,554.55120 330.16680,554.40420 329.73480,554.58820 C 329.64180,554.62820 329.56980,554.69020 329.49580,554.75020 C 329.23080,554.53620 328.87180,554.44820 328.53180,554.57220 C 328.21480,554.68720 328.00980,554.95620 327.92880,555.26220 C 327.83880,555.16020 327.75180,555.05520 327.68780,554.93120 C 327.35980,554.47820 326.73480,554.36920 326.29680,554.69720 C 326.01780,554.90120 325.88780,555.21520 325.89080,555.52920 C 325.54080,555.52220 325.19480,555.68420 325.01480,556.01220 C 324.89080,556.21920 324.86480,556.45520 324.90180,556.67820 C 324.62380,556.77320 324.38980,556.97820 324.28680,557.28120 C 323.82380,557.25420 323.38780,557.53120 323.26480,557.99620 C 323.20580,558.19720 323.23380,558.39620 323.29780,558.58120 C 323.02980,558.67520 322.79880,558.86720 322.68680,559.15220 C 322.64280,559.27420 322.62680,559.39820 322.62880,559.52120 C 322.29380,559.52120 321.98680,559.69220 321.79680,559.98320 C 321.71480,559.91320 321.63780,559.83620 321.54580,559.77620 C 321.13980,559.40120 320.51480,559.43220 320.13980,559.83820 C 320.08780,559.89420 320.06280,559.96120 320.02680,560.02420 C 319.65080,559.96720 319.25080,560.13120 319.03080,560.47920 C 318.73380,560.93220 318.87480,561.55720 319.34280,561.85420 C 319.73380,562.08820 320.07680,562.38520 320.32680,562.77620 C 320.65480,563.21420 321.29580,563.29220 321.73280,562.96420 C 321.81380,562.89920 321.86880,562.81620 321.92380,562.73320 C 322.03080,562.80720 322.13380,562.88520 322.24780,562.94920 C 322.70280,563.24620 323.32780,563.12120 323.62480,562.65320 C 323.72880,562.48920 323.76080,562.30720 323.76380,562.12620 C 323.80680,562.13920 323.84680,562.15920 323.89080,562.16820 C 324.37480,562.40220 324.98480,562.18420 325.21880,561.69920 C 325.32680,561.46920 325.33280,561.21720 325.26780,560.98720 C 325.70380,560.99120 326.10380,560.71820 326.23380,560.27720 C 326.27780,560.10420 326.26380,559.93620 326.22480,559.77620 C 326.49480,559.67620 326.72180,559.47320 326.82780,559.18420 C 326.85080,559.11920 326.84680,559.05420 326.85580,558.98920 C 327.30180,558.95120 327.68680,558.63120 327.76580,558.16920 C 327.77380,558.11220 327.75880,558.06020 327.75780,558.00520 C 327.78480,557.98120 327.80780,557.95220 327.83280,557.92420 C 328.11680,558.00120 328.42880,557.96620 328.68780,557.77820 C 328.76680,557.71920 328.82080,557.64120 328.87680,557.56620 C 329.20180,557.88620 329.69380,557.96120 330.08280,557.71920 C 330.09180,557.73320 330.09980,557.74920 330.10880,557.76320 C 330.37480,558.24720 330.98380,558.43520 331.46780,558.16920 C 331.48580,558.15920 331.49580,558.14220 331.51280,558.13120 C 331.79180,558.54120 332.32580,558.68620 332.77480,558.46220 C 333.02080,558.83920 333.48080,559.03320 333.92080,558.87320 C 334.10080,558.81020 334.23580,558.69320 334.34880,558.56020 C 334.57680,558.84320 334.94380,558.99720 335.32780,558.92020 C 335.48280,558.88320 335.61480,558.80620 335.73080,558.71020 C 335.79580,558.93320 335.86080,559.15620 335.93780,559.37320 C 336.11180,559.77120 336.52380,559.98920 336.93780,559.95520 C 336.95680,560.07420 336.96780,560.19220 336.99980,560.31020 C 337.09380,560.84120 337.62480,561.20120 338.15580,561.10720 C 338.34180,561.07020 338.49280,560.97420 338.62480,560.85820 C 338.68780,561.40420 339.17180,561.81020 339.73380,561.74820 C 339.84080,561.73620 339.93580,561.69620 340.02880,561.65420 C 340.06380,561.75920 340.09480,561.86520 340.13980,561.96720 C 340.26480,562.49820 340.79580,562.84220 341.32780,562.73320 C 341.63580,562.67120 341.86680,562.47020 342.00080,562.21320 C 342.19980,562.58420 342.45480,562.91620 342.84280,563.15420 C 342.79580,563.10720 342.74880,563.07620 342.70180,563.02920 C 343.11680,563.35520 343.69380,563.30420 344.04580,562.93920 C 344.17080,563.06620 344.29680,563.19020 344.42080,563.31020 C 344.42080,563.29420 344.43680,563.27920 344.43680,563.26320 C 344.85880,563.62220 345.48380,563.59120 345.84280,563.16920 C 345.95780,563.03420 346.01580,562.87720 346.04980,562.71620 C 346.42980,563.06220 347.01880,563.05620 347.38980,562.70020 C 347.39580,562.69420 347.39680,562.68720 347.40280,562.68120 C 347.62280,562.89520 347.83980,563.11820 348.06180,563.32520 C 348.46780,563.70020 349.09280,563.68420 349.46780,563.29420 C 349.50480,563.25620 349.51980,563.20820 349.54980,563.16620 C 349.73080,563.30720 349.90880,563.45220 350.07680,563.60720 C 350.49880,563.95120 351.12380,563.88820 351.48280,563.46620 C 351.65180,563.25920 351.72380,563.00320 351.70380,562.75320 C 351.96180,562.91820 352.22280,563.08020 352.46680,563.26320 C 352.91980,563.59120 353.54480,563.48220 353.85780,563.04420 C 353.96680,562.89420 354.01080,562.72420 354.02780,562.55220 C 354.25680,562.75120 354.49680,562.93720 354.77980,563.07520 C 355.24880,563.35620 355.85780,563.20020 356.13880,562.73120 C 356.43680,562.26220 356.28080,561.63720 355.81180,561.35620 z "
       style="fill:#bfa794;stroke:#000000;stroke-width:0.50000000" />
    <path
       id="path5"
       d="M 312.00840,625.88720 C 324.79040,625.88720 332.02440,625.66020 336.58640,625.66020 C 344.77440,625.66020 346.72140,619.97120 348.72140,617.92120 C 350.72140,615.87120 355.72140,611.27120 368.28340,611.36820 C 371.73240,611.39420 370.72140,611.49320 370.72140,611.49320 L 379.53340,625.92920 L 388.22240,625.92920"
       style="fill:none;stroke:#a9521b;stroke-width:2.0000000" />
    <path
       id="path7"
       d="M 453.13840,667.93820 C 452.52940,667.21920 451.74040,666.66520 451.18540,665.88320 C 450.84140,665.46120 450.20840,665.39120 449.77940,665.74220 C 449.63840,665.85620 449.55340,666.00820 449.49340,666.16820 C 449.41940,666.09820 449.34740,666.02720 449.27140,665.96120 C 448.92540,665.61520 448.39940,665.59420 448.00940,665.86020 C 447.97540,665.80420 447.93740,665.75220 447.90440,665.69520 C 447.63140,665.21820 447.02140,665.04720 446.54540,665.32020 C 446.21740,665.50520 446.05240,665.84420 446.05340,666.19420 C 446.05140,666.19220 446.04740,666.19020 446.04540,666.18720 C 445.65440,665.79620 445.02240,665.78920 444.63140,666.17920 C 444.60840,666.20220 444.59940,666.23420 444.57840,666.25920 C 444.34340,666.10220 444.11540,665.93620 443.91240,665.73420 C 443.48240,665.39020 442.85740,665.46120 442.50640,665.89020 C 442.45940,665.94920 442.43840,666.01820 442.40640,666.08320 C 442.35340,666.03920 442.30240,665.99820 442.24840,665.95320 C 441.81640,665.64220 441.21940,665.73620 440.88440,666.14820 C 440.80740,666.09120 440.72940,666.03520 440.65440,665.97720 C 440.21640,665.64120 439.59240,665.71120 439.24840,666.14920 C 439.23340,666.16920 439.23040,666.19220 439.21640,666.21320 C 439.08140,666.09320 438.95540,665.96320 438.84940,665.80520 C 438.52940,665.36020 437.90440,665.25820 437.45140,665.57820 C 437.34640,665.65420 437.26340,665.74820 437.19840,665.85220 C 436.90040,665.45720 436.36040,665.31820 435.92040,665.57020 C 435.80140,665.63720 435.70240,665.72520 435.62440,665.82620 C 435.25440,665.43320 434.64040,665.41220 434.24140,665.78120 C 434.23040,665.79120 434.22740,665.80420 434.21740,665.81420 C 433.88640,665.59320 433.44040,665.58120 433.09340,665.82020 C 432.92840,665.93320 432.82640,666.09420 432.75740,666.26720 C 432.56840,666.14120 432.37840,666.01620 432.17940,665.90620 C 431.73740,665.64520 431.19040,665.77320 430.88140,666.16720 C 430.79440,666.09820 430.70540,666.03220 430.62540,665.95320 C 430.18740,665.60920 429.56340,665.69520 429.22740,666.12520 C 429.22740,666.12620 429.22740,666.12720 429.22640,666.12720 C 429.03240,665.98420 428.83440,665.84920 428.61040,665.75020 C 428.17240,665.52720 427.66040,665.67820 427.38040,666.05920 C 427.37940,666.05820 427.37840,666.05720 427.37640,666.05520 C 426.98540,665.67220 426.34540,665.67220 425.95440,666.05520 C 425.89940,666.11120 425.87040,666.18120 425.83040,666.24620 C 425.68740,666.11420 425.54640,665.97820 425.40740,665.84420 C 425.10440,665.51520 424.63740,665.44620 424.25340,665.62020 C 424.15640,665.12720 423.70840,664.76920 423.19640,664.82120 C 423.18740,664.82220 423.17940,664.82820 423.17140,664.82920 C 423.06140,664.60920 422.87940,664.44120 422.64240,664.35020 C 422.68740,664.17420 422.72840,663.99820 422.77540,663.82220 L 422.77540,663.81420 C 422.86940,663.27520 422.50940,662.75220 421.96340,662.65820 C 421.94740,662.65520 421.93240,662.66120 421.91640,662.65920 C 421.91640,662.52920 421.91640,662.39820 421.91640,662.26720 C 421.91640,661.85820 421.67240,661.51120 421.32240,661.35620 C 421.32440,661.33920 421.32840,661.32320 421.33040,661.30620 C 421.34640,661.31420 421.35340,661.31420 421.36940,661.32220 C 421.53340,660.79320 421.24640,660.23420 420.72640,660.06820 C 420.75240,659.92520 420.77440,659.78120 420.78340,659.63520 C 420.84240,659.11420 420.49440,658.66220 420.00040,658.55520 C 420.00740,658.51920 420.00940,658.48320 420.01840,658.44720 C 420.13540,657.90820 419.79140,657.37720 419.25240,657.26720 C 419.22240,657.26120 419.19440,657.26920 419.16540,657.26620 C 419.16640,657.21720 419.16340,657.16720 419.16640,657.11920 C 419.16640,656.56420 418.72140,656.11920 418.16640,656.11920 C 418.01240,656.11920 417.87140,656.15920 417.74240,656.22020 C 417.57740,656.10120 417.38640,656.01720 417.16640,656.01720 C 416.83340,656.01720 416.55340,656.18920 416.37140,656.43820 C 416.10140,656.16720 415.68840,656.06220 415.30740,656.21220 C 415.05140,656.30920 414.86040,656.50120 414.75640,656.73220 C 414.62440,656.60720 414.48940,656.48420 414.36240,656.35320 C 414.01040,655.93120 413.37840,655.86920 412.95640,656.22020 C 412.75240,656.38720 412.64040,656.61720 412.60840,656.85820 C 412.38140,656.74220 412.14540,656.64220 411.90140,656.56420 C 411.37840,656.39220 410.81540,656.68120 410.64340,657.20520 C 410.64140,657.21120 410.64340,657.21720 410.64140,657.22220 C 410.21340,656.90420 409.60940,656.96720 409.26840,657.37720 C 409.07940,657.60820 409.01940,657.89720 409.06140,658.17020 C 408.58440,658.10120 408.11740,658.36220 407.96340,658.83020 C 407.94140,658.90020 407.94640,658.97020 407.93940,659.03920 C 407.62140,659.06420 407.32040,659.22220 407.15140,659.51720 C 407.01440,659.75620 406.98740,660.03120 407.05540,660.28020 C 406.91440,660.30620 406.77440,660.33320 406.63640,660.36120 C 406.09740,660.47820 405.75340,661.00920 405.86340,661.54920 C 405.86340,661.55220 405.86640,661.55420 405.86740,661.55720 C 405.70140,661.57320 405.53640,661.59020 405.37140,661.60320 C 404.82440,661.68120 404.44940,662.18920 404.52740,662.73620 C 404.54440,662.85220 404.58940,662.95620 404.64140,663.05420 C 404.41440,663.30420 404.30840,663.65320 404.41040,664.00220 C 404.41440,664.01520 404.42440,664.02320 404.42840,664.03520 C 403.95940,664.03620 403.53140,664.34620 403.43440,664.82220 C 403.41740,664.91320 403.43040,665.00220 403.43740,665.09120 C 403.08540,665.07420 402.75640,665.22820 402.56640,665.51320 C 402.15240,665.15320 401.52540,665.19320 401.16940,665.61220 C 401.11140,665.67720 401.08140,665.75520 401.04340,665.83020 C 400.88840,665.71520 400.73040,665.60620 400.58440,665.47920 C 400.14640,665.14320 399.52240,665.22120 399.17840,665.65120 C 399.11640,665.73220 399.08240,665.82420 399.04940,665.91520 C 398.94040,665.80720 398.82640,665.70520 398.72540,665.58820 C 398.36640,665.17420 397.73340,665.12720 397.31940,665.48620 C 397.24240,665.55220 397.19140,665.63420 397.13940,665.71520 C 396.78040,665.34220 396.20340,665.28420 395.79540,665.61120 C 395.72340,665.67020 395.67740,665.74420 395.62640,665.81620 C 395.59840,665.77220 395.56440,665.73420 395.53840,665.68920 C 395.25740,665.21220 394.64040,665.04820 394.16340,665.33020 C 393.89640,665.48720 393.74340,665.74920 393.69640,666.03220 C 393.46040,665.80720 393.22840,665.57720 392.97540,665.36920 C 392.54540,665.01720 391.92040,665.08020 391.56940,665.51020 C 391.56440,665.51620 391.56440,665.52420 391.55940,665.53020 C 391.21940,665.25420 390.73140,665.21320 390.35840,665.48720 C 390.21340,665.59420 390.11940,665.73720 390.05040,665.89120 C 389.94740,665.76520 389.85140,665.63520 389.77540,665.49720 C 389.42140,665.08020 388.79640,665.01820 388.35840,665.37220 C 387.94140,665.72620 387.87940,666.35120 388.23340,666.78920 C 388.62940,667.22720 389.02540,667.66420 389.33740,668.16420 C 389.35840,668.70620 389.81640,669.14320 390.35840,669.14320 C 390.80740,669.12620 391.16540,668.82720 391.28540,668.43220 C 391.39140,668.56220 391.48740,668.69920 391.60040,668.82320 C 391.94440,669.25320 392.57740,669.31520 393.00640,668.97120 C 393.17240,668.83620 393.26540,668.65520 393.31940,668.46620 C 393.45140,668.60120 393.58540,668.73520 393.71740,668.87020 C 394.09240,669.26820 394.72540,669.29220 395.13140,668.90920 C 395.23540,668.81220 395.30940,668.69720 395.36140,668.57320 C 395.55840,668.77720 395.75540,668.98120 395.94440,669.19020 C 396.35840,669.54920 396.99140,669.51020 397.35840,669.09620 C 397.44140,668.99820 397.49840,668.88820 397.53940,668.77320 C 397.61740,668.84220 397.69840,668.90720 397.77240,668.97920 C 397.76440,668.98720 397.75640,668.98720 397.74940,668.99520 C 398.10140,669.43320 398.72640,669.50320 399.15540,669.15920 C 399.27540,669.06320 399.36140,668.94520 399.42440,668.81820 C 399.60640,668.95720 399.78840,669.09520 399.96740,669.23720 C 400.39740,669.58120 401.02940,669.51020 401.37340,669.08120 C 401.49240,668.93220 401.54440,668.75920 401.56640,668.58320 C 401.86440,668.77920 402.15740,668.98120 402.43640,669.20620 C 402.85840,669.55820 403.49140,669.50320 403.84240,669.08120 C 403.94840,668.95420 404.00540,668.80720 404.03840,668.65520 C 404.46640,668.79520 404.94740,668.65320 405.19340,668.25320 C 405.32340,668.04220 405.35540,667.80120 405.31940,667.57320 C 405.49340,667.62020 405.66740,667.66820 405.84140,667.71420 C 406.37240,667.85520 406.91940,667.53420 407.06040,667.00320 C 407.15740,666.63520 407.02440,666.26920 406.76240,666.02620 C 406.79940,666.02420 406.83640,666.02120 406.87240,666.01920 C 407.41940,665.99620 407.84940,665.52720 407.81740,664.98020 C 407.80940,664.78320 407.73040,664.61320 407.62640,664.46220 C 408.04340,664.33820 408.35540,663.96420 408.34940,663.50420 C 408.34740,663.44020 408.32140,663.38520 408.30840,663.32520 C 408.70840,663.18320 408.99540,662.81020 408.98240,662.36420 C 408.98040,662.31520 408.95740,662.27220 408.94840,662.22520 C 409.24340,662.15620 409.48440,661.95320 409.61340,661.67120 C 410.12540,661.86520 410.69540,661.61720 410.89740,661.10620 C 410.96740,660.92820 410.96540,660.74820 410.93440,660.57320 C 411.24040,660.47420 411.49940,660.24620 411.59240,659.91820 C 411.59240,659.91720 411.59240,659.91620 411.59240,659.91520 C 411.60040,659.91920 411.60840,659.92220 411.61540,659.92620 C 412.03640,660.10820 412.49940,659.96520 412.77440,659.62520 C 413.13040,659.92220 413.64140,659.96020 414.02240,659.66820 C 414.22340,659.51020 414.33840,659.29020 414.38240,659.05920 C 414.46640,659.12820 414.54640,659.20220 414.63140,659.26920 C 414.93840,659.49520 415.32540,659.50820 415.64640,659.35720 C 415.90540,659.58020 416.26040,659.67720 416.60740,659.55820 C 416.69040,659.53020 416.75440,659.47720 416.82340,659.43220 C 416.97940,659.51620 417.15340,659.56320 417.34040,659.55320 C 417.44840,659.66520 417.57440,659.76220 417.73240,659.81620 L 417.73240,659.81620 C 417.65640,660.25820 417.86440,660.71120 418.28740,660.90220 C 418.37540,660.94120 418.46640,660.95020 418.55740,660.96320 C 418.55740,660.97720 418.55340,660.99020 418.55340,661.00420 C 418.50940,661.44720 418.76940,661.84220 419.15840,662.00920 C 419.09940,662.32920 419.05640,662.65320 419.05340,662.98020 C 419.02340,663.50720 419.40740,663.94420 419.92040,664.01520 C 419.92040,664.10520 419.92040,664.19520 419.92040,664.28520 C 419.92040,664.64220 420.11640,664.94020 420.39640,665.11720 C 420.38040,665.17920 420.36640,665.24020 420.35040,665.30120 C 420.21740,665.83220 420.53840,666.37920 421.07740,666.51220 C 421.12040,666.52320 421.16140,666.51320 421.20440,666.51820 C 421.21540,666.72220 421.23840,666.92620 421.29640,667.12920 C 421.40540,667.67620 421.92940,668.02720 422.46840,667.92620 C 422.62740,667.89420 422.76340,667.82020 422.88340,667.72820 C 423.00040,667.92820 423.12440,668.12420 423.25040,668.31720 C 423.52340,668.79420 424.14140,668.95820 424.61740,668.67620 C 424.82140,668.55920 424.95340,668.37320 425.03140,668.16720 C 425.32040,668.38520 425.61640,668.59420 425.93840,668.77020 C 426.35340,668.99120 426.84640,668.87020 427.14540,668.52620 C 427.31640,668.66220 427.47940,668.80720 427.66540,668.92620 C 428.12640,669.22320 428.74340,669.09020 429.04840,668.62920 C 429.08040,668.57920 429.08840,668.52320 429.11040,668.47020 C 429.53140,668.70320 430.03940,668.58620 430.33940,668.22320 C 430.51340,668.34020 430.68540,668.46020 430.84540,668.59820 C 431.22040,669.00420 431.85340,669.02820 432.25940,668.64520 C 432.32840,668.58120 432.37140,668.50120 432.41840,668.42420 C 432.60440,668.53920 432.79340,668.64820 432.99440,668.73820 C 433.37640,668.92320 433.81140,668.84420 434.10740,668.57520 C 434.24940,668.71520 434.38840,668.85920 434.51840,669.01120 C 434.87740,669.43320 435.51040,669.48020 435.92440,669.12020 C 436.09740,668.97020 436.19040,668.77320 436.23540,668.56820 C 436.50140,668.56420 436.75440,668.45820 436.94340,668.25120 C 437.24640,668.45420 437.55640,668.64920 437.85540,668.84720 C 438.29640,669.08920 438.82840,668.95420 439.12240,668.56520 C 439.21540,668.62720 439.31140,668.68820 439.40240,668.75320 C 439.82640,668.99220 440.33240,668.88120 440.63940,668.53420 C 440.70940,668.60420 440.79140,668.66020 440.85540,668.73720 C 441.24640,669.13520 441.87840,669.13520 442.26940,668.75320 C 442.32440,668.70120 442.35340,668.63520 442.39340,668.57420 C 442.54240,668.66520 442.69540,668.75020 442.85540,668.82420 C 443.33940,669.09020 443.94140,668.91020 444.20740,668.42620 C 444.21240,668.41720 444.21140,668.40820 444.21540,668.39920 C 444.28540,668.44420 444.35540,668.49020 444.42540,668.53520 C 444.82040,668.78520 445.30940,668.71020 445.63440,668.40920 C 445.83840,668.55720 446.04140,668.70620 446.23040,668.87120 C 446.65240,669.20320 447.24540,669.13420 447.59540,668.74220 C 447.66440,668.82220 447.72640,668.90520 447.80140,668.98120 C 448.19940,669.37220 448.83240,669.36420 449.21540,668.97320 C 449.29240,668.89620 449.34140,668.80420 449.38840,668.71120 C 449.56240,668.82920 449.74440,668.93620 449.94240,669.02020 C 450.37540,669.22920 450.86440,669.09120 451.15440,668.73520 C 451.35240,668.91520 451.53840,669.10820 451.75540,669.27020 C 451.72440,669.27020 451.69340,669.27020 451.66140,669.27020 C 452.02040,669.67620 452.65340,669.71520 453.06740,669.35620 C 453.46640,668.98520 453.50540,668.35220 453.13840,667.93820 z M 402.55540,665.51920 C 402.55040,665.52820 402.54840,665.53920 402.54340,665.54720 C 402.53340,665.54220 402.52340,665.53720 402.51340,665.53120 C 402.52540,665.52620 402.54140,665.52320 402.55540,665.51920 z "
       style="fill:#bfa794;stroke:#000000;stroke-width:0.50000000" />
    <line
       id="line9"
       y2="681.30719"
       x2="388.91641"
       y1="593.64117"
       x1="388.91641"
       style="fill:none;stroke:#000000;stroke-width:0.50000000;stroke-dasharray:2.0000000 " />
    <path
       id="path11"
       d="M 455.36240,625.28920 C 454.69440,625.02120 454.21240,624.50020 453.66340,624.05920 C 453.12840,623.59120 452.32640,623.64420 451.85840,624.17920 C 451.76940,624.28120 451.71740,624.39720 451.66640,624.51320 C 451.60940,624.46520 451.55640,624.41220 451.49740,624.36620 C 450.94940,623.92520 450.13340,624.00520 449.69140,624.55320 C 449.62540,624.63320 449.59440,624.72620 449.55040,624.81520 C 448.67840,624.35520 447.78940,623.93320 446.88240,623.53720 C 446.22740,623.26920 445.47840,623.57720 445.21040,624.23220 C 445.17340,624.32320 445.17340,624.41720 445.15840,624.51020 C 444.44740,624.19520 443.74340,623.86620 443.09740,623.42920 C 442.50040,623.15620 441.80340,623.38320 441.47040,623.92920 C 440.93540,623.61820 440.24540,623.70920 439.83440,624.21820 C 439.74040,624.33520 439.68240,624.46720 439.63540,624.60120 C 438.92440,624.26020 438.24440,623.84720 437.58740,623.40220 C 437.04640,623.03320 436.33940,623.14620 435.91440,623.62020 C 435.80440,623.53120 435.69540,623.44020 435.59440,623.33520 C 435.01940,622.92020 434.21640,623.05420 433.80240,623.62920 C 433.68740,623.78920 433.62440,623.96520 433.59140,624.14720 C 433.54540,624.12420 433.50240,624.09420 433.45540,624.07120 C 432.95140,623.84020 432.38140,623.97220 432.01440,624.34720 C 431.64840,624.09020 431.28540,623.83020 430.91440,623.57620 C 430.35240,623.14820 429.55040,623.25520 429.12240,623.81720 C 429.05340,623.90820 429.02040,624.01220 428.97840,624.11320 C 428.79040,623.94720 428.60440,623.78020 428.41340,623.61620 C 427.87840,623.16120 427.06240,623.21520 426.59440,623.75020 C 426.52940,623.82720 426.49640,623.91920 426.45240,624.00620 C 426.36540,623.95720 426.28040,623.90620 426.19340,623.85720 C 425.63140,623.59920 424.98540,623.79120 424.63140,624.27020 C 424.39440,624.05120 424.15440,623.83320 423.90640,623.62920 C 423.93340,623.60320 423.97340,623.58920 424.00040,623.56320 C 423.66640,622.93420 422.87640,622.69320 422.26140,623.02820 C 421.80640,623.27020 421.56440,623.75020 421.58640,624.22920 C 421.47240,624.14020 421.36040,624.05020 421.24540,623.96420 C 420.65740,623.56320 419.85440,623.71020 419.45340,624.28520 C 419.38740,624.38320 419.35740,624.49220 419.32040,624.59920 C 418.77440,624.19720 418.25140,623.76220 417.78140,623.25520 C 417.27340,622.76020 416.47040,622.76020 415.96240,623.25520 C 415.71640,623.50720 415.59440,623.83220 415.59240,624.15620 C 415.10240,623.96720 414.61040,623.78220 414.11640,623.60320 C 413.47140,623.35320 412.74240,623.67620 412.47640,624.32320 C 412.15140,624.09720 411.82440,623.87320 411.48140,623.67020 C 410.85240,623.33620 410.07740,623.57620 409.74240,624.20520 C 409.71440,624.25720 409.71340,624.31420 409.69340,624.36920 C 409.45140,624.21520 409.21040,624.06220 408.96640,623.91120 C 408.35140,623.55020 407.56240,623.76420 407.20040,624.36620 C 407.19840,624.36920 407.19940,624.37320 407.19740,624.37620 C 406.85340,624.07420 406.51440,623.76420 406.18440,623.44320 C 405.66340,622.96220 404.86040,622.98820 404.37940,623.51020 C 404.22740,623.67420 404.14440,623.86820 404.09340,624.07020 C 403.57540,623.56720 403.04340,623.08020 402.42640,622.69520 C 401.85140,622.28020 401.04940,622.41420 400.63440,622.98920 C 400.35740,623.37320 400.34440,623.85220 400.52640,624.25620 C 400.17840,623.95820 399.83540,623.65520 399.47140,623.37720 C 398.92340,622.93620 398.12040,623.02920 397.67940,623.59120 C 397.60140,623.68820 397.56140,623.79920 397.51640,623.90720 C 397.33540,623.74320 397.15440,623.58120 396.97040,623.41720 C 396.44940,622.94920 395.63340,622.98920 395.15140,623.52420 C 395.14840,623.52820 395.14740,623.53220 395.14440,623.53620 C 394.70040,623.13020 394.02740,623.06020 393.51240,623.45120 C 393.32540,623.59120 393.21040,623.77920 393.12740,623.98120 C 392.94140,623.77620 392.73240,623.59320 392.42940,623.53120 C 391.84740,623.13020 391.04540,623.29020 390.66340,623.89220 C 390.49940,624.13020 390.45140,624.40420 390.46740,624.67120 C 390.07240,624.36020 389.78640,623.90920 389.52040,623.47020 C 389.07940,622.90820 388.27640,622.82820 387.71440,623.26920 C 387.15240,623.71020 387.07240,624.51320 387.51340,625.07520 C 388.21540,625.99820 388.93740,627.02120 390.12140,627.36220 C 390.76340,627.64320 391.52540,627.36220 391.80640,626.72020 C 391.87540,626.56820 391.90540,626.41120 391.91340,626.25520 C 392.34440,626.54920 392.77740,626.83920 393.23040,627.10120 C 393.21040,627.06120 393.17040,627.04020 393.15040,627.00020 C 393.61440,627.25420 394.16640,627.19520 394.55940,626.89120 C 394.94040,627.30420 395.37640,627.65320 395.93940,627.82320 C 396.54540,628.08820 397.24740,627.84020 397.57740,627.27220 C 397.69840,627.36120 397.80740,627.46420 397.93140,627.54920 C 398.53340,627.92420 399.32240,627.75020 399.69740,627.14820 C 399.72740,627.09920 399.73240,627.04520 399.75540,626.99420 C 400.15140,627.34820 400.55140,627.69420 400.98140,628.00420 C 401.52940,628.44520 402.33240,628.36520 402.78740,627.81620 C 403.09140,627.42920 403.12440,626.93420 402.94740,626.51620 C 403.75840,627.31720 404.57140,628.10920 405.63540,628.55220 C 406.29140,628.82020 407.03940,628.51120 407.32140,627.85620 C 407.34040,627.81120 407.33540,627.76420 407.34740,627.71820 C 407.61440,627.88820 407.88240,628.05620 408.16340,628.20320 C 408.77840,628.55120 409.55440,628.33720 409.90140,627.72220 C 409.91440,627.70020 409.91340,627.67420 409.92440,627.65120 C 410.17640,627.85120 410.42040,628.06420 410.65040,628.29720 C 411.10540,628.83220 411.90740,628.91220 412.45640,628.45820 C 412.66640,628.28420 412.78340,628.05020 412.84940,627.80620 C 413.43840,628.26920 414.03140,628.73020 414.66340,629.14020 C 415.22540,629.58120 416.02740,629.47420 416.46940,628.91220 C 416.86140,628.42520 416.79940,627.74120 416.39140,627.29120 C 416.90240,627.52820 417.41140,627.77320 417.91340,628.02920 C 418.43440,628.25220 419.00340,628.11020 419.36840,627.72520 C 419.82540,627.98420 420.29340,628.22620 420.77640,628.44420 C 421.38240,628.76620 422.11540,628.55720 422.48040,627.97920 C 422.65140,628.07320 422.81940,628.17220 422.99640,628.25620 C 423.62540,628.59020 424.40140,628.33620 424.72240,627.70820 C 424.72840,627.69620 424.72740,627.68320 424.73340,627.67020 C 425.09540,627.91020 425.46740,628.13520 425.84640,628.33720 C 426.50140,628.61820 427.25040,628.33720 427.54540,627.68220 C 427.54640,627.67820 427.54640,627.67420 427.54740,627.67020 C 428.01840,628.02720 428.64440,627.97120 429.09040,627.61220 C 429.60240,628.02520 430.14240,628.39420 430.75440,628.65920 C 431.39740,628.96720 432.15940,628.68620 432.45340,628.04420 C 432.48740,627.97420 432.48740,627.90120 432.50740,627.82920 C 432.85540,628.07420 433.20340,628.31920 433.55040,628.56520 C 434.11840,628.91920 434.84340,628.75820 435.25040,628.24420 C 435.43740,628.36920 435.62040,628.49720 435.81040,628.61920 C 436.41240,629.00720 437.20140,628.83320 437.58940,628.24420 C 437.76140,627.97720 437.80640,627.67520 437.77040,627.38520 C 437.87540,627.42020 437.97840,627.46320 438.08440,627.49520 C 438.07040,627.53520 438.04340,627.57520 438.03040,627.61520 C 438.54840,627.90820 439.17540,627.79320 439.58040,627.38820 C 440.01140,627.54320 440.45240,627.67220 440.90640,627.76220 C 441.34540,627.86420 441.76840,627.70720 442.07340,627.42020 C 442.40440,627.61720 442.73740,627.81120 443.07340,628.00320 C 443.70140,628.32420 444.47740,628.08320 444.81240,627.45420 C 444.85240,627.37420 444.85840,627.29020 444.88140,627.20720 C 445.47040,627.47520 446.05340,627.75620 446.59140,628.12320 C 447.16640,628.53820 447.96840,628.40420 448.38340,627.82920 C 448.52040,627.63820 448.57640,627.42220 448.59740,627.20420 C 448.99440,627.41720 449.38840,627.63920 449.77340,627.88220 C 450.30940,628.24820 451.00840,628.13920 451.43540,627.67520 C 451.72340,627.89420 452.02140,628.09920 452.35540,628.25720 C 452.97040,628.60520 453.75940,628.37820 454.09440,627.74920 C 454.13140,627.68420 454.13640,627.61320 454.16040,627.54520 C 454.17040,627.55020 454.17840,627.55720 454.18840,627.56220 C 454.83040,627.89620 455.60540,627.64220 455.92740,627.01420 C 456.24440,626.38620 455.99040,625.61020 455.36240,625.28920 z "
       style="fill:#bfa794;stroke:#000000;stroke-width:0.50000000" />
    <g
       id="g13"
       transform="translate(312.0084,593.6412)">
			<line
   id="line15"
   y2="6.0419998"
   x2="62.219002"
   y1="6.0419998"
   x1="43.219002"
   style="fill:none;stroke:#000000" />

			<path
   id="path17"
   d="M 65.237000,6.0420000 C 63.817000,6.5690000 62.055000,7.4680000 60.964000,8.4200000 L 61.824000,6.0420000 L 60.964000,3.6650000 C 62.055000,4.6160000 63.817000,5.5150000 65.237000,6.0420000 z " />

		</g>
    <g
       id="g19"
       transform="translate(312.0084,593.6412)">
			<line
   id="line21"
   y2="54.759998"
   x2="96.382004"
   y1="54.759998"
   x1="86.382004"
   style="fill:none;stroke:#000000" />

			<path
   id="path23"
   d="M 99.400000,54.760000 C 97.981000,55.287000 96.218000,56.186000 95.127000,57.137000 L 95.987000,54.760000 L 95.127000,52.383000 C 96.218000,53.334000 97.980000,54.234000 99.400000,54.760000 z " />

		</g>
    <g
       id="g25"
       transform="translate(312.0084,593.6412)">
			<line
   id="line27"
   y2="54.759998"
   x2="44.161999"
   y1="54.759998"
   x1="63.161999"
   style="fill:none;stroke:#000000" />

			<path
   id="path29"
   d="M 41.145000,54.760000 C 42.565000,55.287000 44.327000,56.186000 45.418000,57.137000 L 44.558000,54.760000 L 45.418000,52.383000 C 44.326000,53.334000 42.564000,54.234000 41.145000,54.760000 z " />

		</g>
    <path
       id="path33"
       d="M 388.64440,667.14220 C 375.86340,667.14220 368.62840,667.24820 364.06640,667.24820 C 355.87840,667.24820 353.93140,669.90220 351.93140,670.85920 C 349.93140,671.81620 344.93140,673.96220 332.36940,673.91720 C 328.92140,673.90420 329.93140,673.85920 329.93140,673.85920 L 321.11840,667.12320 L 313.93140,667.12320"
       style="fill:none;stroke:#a9521b;stroke-width:2.0000000" />
    <text
       xml:space="preserve"
       style="font-size:11.000000px;font-style:normal;font-variant:normal;font-weight:normal;font-stretch:normal;line-height:100.00000%;writing-mode:lr-tb;text-anchor:start;fill:#000000;fill-opacity:1.0000000;stroke:none;stroke-width:1.0000000pt;stroke-linecap:butt;stroke-linejoin:miter;stroke-opacity:1.0000000;font-family:Liberation Sans"
       x="291.56766"
       y="498.91864"
       id="text2201"
       sodipodi:linespacing="100.00000%"><tspan
         sodipodi:role="line"
         id="tspan2203"
         x="291.56766"
         y="498.91864">1</tspan></text>
    <text
       xml:space="preserve"
       style="font-size:11.000000px;font-style:normal;font-variant:normal;font-weight:normal;font-stretch:normal;line-height:100.00000%;writing-mode:lr-tb;text-anchor:start;fill:#000000;fill-opacity:1.0000000;stroke:none;stroke-width:1.0000000pt;stroke-linecap:butt;stroke-linejoin:miter;stroke-opacity:1.0000000;font-family:Liberation Sans"
       x="291.81204"
       y="606.5097"
       id="text2205"
       sodipodi:linespacing="100.00000%"><tspan
         sodipodi:role="line"
         id="tspan2207"
         x="291.81204"
         y="606.50970">2</tspan></text>
  </g>
</svg>
