<?xml version="1.0" encoding="UTF-8" standalone="no"?>
<!-- Generator: Adobe Illustrator 11 Build 196, SVG Export Plug-In . SVG Version: 6.0.0 Build 78)  -->
<svg
   xmlns:dc="http://purl.org/dc/elements/1.1/"
   xmlns:cc="http://web.resource.org/cc/"
   xmlns:rdf="http://www.w3.org/1999/02/22-rdf-syntax-ns#"
   xmlns:svg="http://www.w3.org/2000/svg"
   xmlns="http://www.w3.org/2000/svg"
   xmlns:sodipodi="http://inkscape.sourceforge.net/DTD/sodipodi-0.dtd"
   xmlns:inkscape="http://www.inkscape.org/namespaces/inkscape"
   width="149.688"
   height="142.989"
   viewBox="0 0 149.688 142.989"
   style="overflow:visible;enable-background:new 0 0 149.688 142.989"
   xml:space="preserve"
   id="svg2"
   sodipodi:version="0.32"
   sodipodi:docname="rope-with-three-parts.svg"
   sodipodi:docbase="/home/bcrowell/Documents/writing/lm/trunk/3vw/ch04/figs"><metadata
   id="metadata118"><rdf:RDF><cc:Work
       rdf:about=""><dc:format>image/svg+xml</dc:format><dc:type
         rdf:resource="http://purl.org/dc/dcmitype/StillImage" /></cc:Work></rdf:RDF></metadata><defs
   id="defs116">
		
		
		
		
		
		
		
			
		
		
		
		
		
		
		
		
		
		
		
		
		
		
		
		
		
		
		
		
		
	</defs><sodipodi:namedview
   inkscape:cy="65.949058"
   inkscape:cx="74.857478"
   inkscape:zoom="1.6059191"
   inkscape:window-height="601"
   inkscape:window-width="730"
   inkscape:pageshadow="2"
   inkscape:pageopacity="0.0"
   borderopacity="1.0"
   bordercolor="#666666"
   pagecolor="#ffffff"
   id="base"
   inkscape:window-x="227"
   inkscape:window-y="312"
   inkscape:current-layer="svg2" />
	<style
   type="text/css"
   id="style4">
	
	</style>
	<g
   id="g1356"
   transform="translate(-24.97854,5.430289e-6)"><rect
     y="-28.157452"
     x="-10.585841"
     height="44.834141"
     width="184.25197"
     id="rect1518"
     style="fill:#dedede;fill-opacity:1.0000000;fill-rule:evenodd;stroke:none;stroke-width:1.0000000pt;stroke-linecap:butt;stroke-linejoin:miter;stroke-opacity:1.0000000" /><g
     transform="translate(5.445967,-13.30832)"
     id="g1470"><g
       id="g15"
       transform="translate(1.715573e-21,-8.000000)">
			<line
   id="line17"
   y2="2.8529999"
   x2="58.932999"
   y1="2.8529999"
   x1="46.932999"
   style="fill:none;stroke:#000000" />
			<path
   id="path19"
   d="M 62.554000,2.8530000 C 60.850000,3.4850000 58.736000,4.5640000 57.426000,5.7060000 L 58.458000,2.8530000 L 57.426000,0.0000000 C 58.736000,1.1420000 60.851000,2.2210000 62.554000,2.8530000 z " />
		</g><line
       id="line27"
       y2="19.906000"
       x2="120.42600"
       y1="19.906000"
       x1="71.825996"
       style="fill:none;stroke:#a9521b;stroke-width:2.0000000" /><path
       id="path29"
       d="M 148.78500,20.112000 C 148.25100,19.672000 147.68800,19.334000 147.27600,18.762000 C 146.78900,18.312000 146.02900,18.340000 145.57900,18.828000 C 145.48200,18.932000 145.41900,19.054000 145.36800,19.178000 C 144.88800,18.821000 144.39900,18.478000 143.88300,18.172000 C 143.42300,17.888000 142.85600,17.970000 142.47000,18.312000 C 141.97700,18.041000 141.34900,18.129000 140.97600,18.585000 C 140.93800,18.630000 140.92600,18.685000 140.89600,18.733000 C 140.67700,18.547000 140.46900,18.352000 140.28200,18.134000 C 139.86900,17.628000 139.11000,17.544000 138.59400,17.966000 C 138.44300,18.089000 138.34300,18.247000 138.26900,18.415000 C 137.85600,18.162000 137.31300,18.169000 136.90700,18.481000 C 136.67400,18.664000 136.54100,18.917000 136.48400,19.183000 C 136.15000,18.885000 135.81500,18.586000 135.48200,18.284000 C 134.98500,17.853000 134.22600,17.909000 133.79400,18.415000 C 133.74200,18.476000 133.71900,18.549000 133.68100,18.617000 C 133.53400,18.467000 133.38600,18.317000 133.25100,18.153000 C 132.84800,17.637000 132.08800,17.544000 131.56300,17.947000 C 131.43800,18.045000 131.34100,18.164000 131.26600,18.295000 C 130.88700,17.830000 130.21300,17.700000 129.69700,18.041000 C 129.53600,18.145000 129.42000,18.286000 129.32900,18.441000 C 128.85700,18.046000 128.14600,18.054000 127.70000,18.491000 C 127.63800,18.554000 127.60600,18.633000 127.56100,18.705000 C 127.38700,18.517000 127.21300,18.328000 127.03500,18.143000 C 126.64100,17.681000 125.98900,17.614000 125.49200,17.932000 C 125.14300,17.423000 124.46600,17.241000 123.91400,17.544000 C 123.71200,17.659000 123.57600,17.834000 123.47200,18.025000 C 122.99400,17.733000 122.40100,17.831000 122.02100,18.214000 C 121.97300,18.152000 121.91500,18.098000 121.87000,18.031000 C 121.47600,17.497000 120.72600,17.384000 120.19200,17.778000 C 119.65800,18.172000 119.54600,18.922000 119.93900,19.456000 C 120.49200,20.347000 121.47700,20.862000 122.03900,21.744000 C 122.47000,22.250000 123.22900,22.316000 123.73600,21.885000 C 123.86200,21.780000 123.96100,21.653000 124.03200,21.515000 C 124.37400,21.686000 124.77600,21.665000 125.12100,21.479000 C 125.39800,21.766000 125.69400,22.035000 126.03300,22.260000 C 126.55400,22.604000 127.23100,22.477000 127.61500,22.001000 C 128.16200,22.326000 128.86600,22.188000 129.23000,21.651000 C 129.23900,21.637000 129.24000,21.621000 129.24800,21.607000 C 129.68700,21.983000 130.14400,22.338000 130.64500,22.636000 C 131.21200,22.947000 131.91600,22.752000 132.24600,22.203000 C 132.64500,22.293000 133.07800,22.194000 133.38300,21.877000 C 133.44000,21.816000 133.46700,21.742000 133.50900,21.674000 C 133.92400,21.989000 134.36300,22.277000 134.88300,22.477000 C 135.37100,22.614000 135.87100,22.428000 136.16000,22.049000 C 136.41100,22.252000 136.64900,22.470000 136.91700,22.655000 C 137.45100,23.040000 138.20100,22.918000 138.58600,22.374000 C 138.70700,22.206000 138.76000,22.015000 138.78400,21.822000 C 139.05800,22.006000 139.32400,22.200000 139.56100,22.430000 C 140.07700,22.842000 140.83600,22.767000 141.24900,22.242000 C 141.31300,22.162000 141.34400,22.070000 141.38400,21.982000 C 141.62400,22.130000 141.86600,22.279000 142.10200,22.430000 C 142.54900,22.668000 143.08100,22.590000 143.44500,22.279000 C 143.94200,22.694000 144.67900,22.655000 145.11200,22.167000 C 145.13800,22.138000 145.14700,22.100000 145.17000,22.069000 C 145.42700,22.277000 145.68400,22.483000 145.94700,22.683000 C 146.50000,23.049000 147.25000,22.908000 147.61500,22.355000 C 147.65300,22.298000 147.66300,22.233000 147.69000,22.173000 C 148.12300,22.287000 148.60000,22.168000 148.90900,21.812000 C 149.33800,21.303000 149.28200,20.553000 148.78500,20.112000 z "
       style="fill:#bfa794;stroke:#000000;stroke-width:0.50000000" /><path
       id="path47"
       d="M 73.162000,19.399000 C 72.548000,19.057000 72.046000,18.565000 71.507000,18.129000 C 70.977000,17.726000 70.227000,17.824000 69.824000,18.349000 C 69.677000,18.542000 69.619000,18.764000 69.601000,18.988000 C 69.194000,18.692000 68.790000,18.391000 68.398000,18.072000 C 67.868000,17.678000 67.114000,17.786000 66.720000,18.321000 C 66.660000,18.403000 66.633000,18.496000 66.596000,18.586000 C 66.297000,18.347000 66.016000,18.086000 65.773000,17.782000 C 65.304000,17.313000 64.545000,17.313000 64.076000,17.782000 C 64.054000,17.804000 64.046000,17.833000 64.027000,17.857000 C 63.718000,17.559000 63.268000,17.422000 62.829000,17.562000 C 62.795000,17.573000 62.772000,17.599000 62.739000,17.613000 C 62.655000,17.564000 62.576000,17.506000 62.477000,17.478000 C 62.449000,17.470000 62.422000,17.478000 62.394000,17.472000 C 62.498000,17.201000 62.614000,16.935000 62.759000,16.681000 C 63.111000,16.123000 62.947000,15.378000 62.389000,15.022000 C 62.269000,14.946000 62.139000,14.906000 62.008000,14.877000 C 62.047000,14.747000 62.093000,14.619000 62.127000,14.487000 C 62.132000,14.492000 62.141000,14.492000 62.146000,14.497000 C 62.334000,13.864000 61.968000,13.194000 61.330000,13.011000 C 61.253000,12.989000 61.178000,12.998000 61.101000,12.991000 C 61.241000,12.680000 61.393000,12.376000 61.569000,12.088000 C 61.916000,11.521000 61.733000,10.780000 61.171000,10.438000 C 61.043000,10.359000 60.904000,10.316000 60.764000,10.290000 C 61.109000,9.7400000 60.952000,9.0120000 60.407000,8.6570000 C 60.283000,8.5760000 60.148000,8.5310000 60.011000,8.5000000 C 60.148000,8.2150000 60.285000,7.9310000 60.421000,7.6440000 C 60.716000,7.0540000 60.473000,6.3320000 59.882000,6.0370000 C 59.863000,6.0270000 59.843000,6.0300000 59.824000,6.0210000 C 59.849000,5.9700000 59.870000,5.9180000 59.896000,5.8680000 C 59.882000,5.9060000 59.863000,5.9430000 59.849000,5.9800000 C 60.318000,5.5110000 60.318000,4.7520000 59.849000,4.2830000 C 59.664000,4.0980000 59.431000,4.0080000 59.191000,3.9690000 C 59.213000,3.8930000 59.230000,3.8150000 59.254000,3.7400000 C 59.465000,3.1120000 59.123000,2.4320000 58.494000,2.2260000 C 58.255000,2.1450000 58.015000,2.1660000 57.790000,2.2300000 C 57.761000,1.5940000 57.243000,1.0820000 56.601000,1.0820000 C 56.050000,1.0820000 55.604000,1.4640000 55.464000,1.9710000 C 55.109000,1.4740000 54.439000,1.3080000 53.896000,1.6210000 C 53.433000,1.8910000 53.236000,2.4200000 53.348000,2.9180000 C 53.106000,2.7900000 52.862000,2.6670000 52.630000,2.5210000 C 52.058000,2.1880000 51.322000,2.3800000 50.989000,2.9520000 C 50.728000,3.4000000 50.798000,3.9410000 51.112000,4.3180000 C 50.896000,4.2730000 50.680000,4.2260000 50.465000,4.1800000 C 49.813000,4.0490000 49.180000,4.4660000 49.049000,5.1180000 C 48.994000,5.3920000 49.053000,5.6550000 49.169000,5.8870000 C 48.966000,5.8840000 48.763000,5.8640000 48.562000,5.8210000 C 47.906000,5.7220000 47.296000,6.1730000 47.193000,6.8240000 C 47.111000,7.3670000 47.416000,7.8640000 47.892000,8.0800000 C 47.309000,8.0470000 46.769000,8.4290000 46.649000,9.0220000 C 46.572000,9.4040000 46.702000,9.7670000 46.944000,10.039000 C 46.936000,10.040000 46.928000,10.042000 46.921000,10.044000 C 46.279000,10.212000 45.895000,10.869000 46.063000,11.511000 C 46.101000,11.656000 46.170000,11.782000 46.252000,11.898000 C 46.137000,11.941000 46.019000,11.973000 45.908000,12.027000 C 45.323000,12.341000 45.107000,13.068000 45.421000,13.649000 C 45.442000,13.689000 45.479000,13.712000 45.504000,13.749000 C 45.434000,13.781000 45.358000,13.798000 45.290000,13.837000 C 44.798000,14.109000 44.599000,14.679000 44.746000,15.202000 C 44.365000,15.440000 44.156000,15.859000 44.194000,16.305000 C 43.747000,16.347000 43.340000,16.630000 43.177000,17.081000 C 43.157000,17.135000 43.163000,17.190000 43.151000,17.245000 C 42.747000,17.177000 42.348000,17.312000 42.074000,17.612000 C 42.008000,17.551000 41.939000,17.494000 41.873000,17.433000 C 41.376000,16.997000 40.617000,17.039000 40.176000,17.536000 C 40.088000,17.636000 40.033000,17.752000 39.985000,17.869000 C 39.845000,17.715000 39.702000,17.564000 39.562000,17.410000 C 39.126000,16.909000 38.372000,16.857000 37.870000,17.298000 C 37.814000,17.347000 37.785000,17.412000 37.740000,17.468000 C 37.284000,17.364000 36.800000,17.533000 36.511000,17.930000 C 36.444000,17.869000 36.383000,17.801000 36.313000,17.743000 C 35.784000,17.349000 35.029000,17.462000 34.635000,17.996000 C 34.558000,18.100000 34.516000,18.216000 34.477000,18.333000 C 34.027000,17.882000 33.303000,17.854000 32.826000,18.287000 C 32.787000,18.323000 32.770000,18.370000 32.737000,18.409000 C 32.420000,18.194000 32.017000,18.117000 31.635000,18.268000 C 31.332000,18.387000 31.109000,18.617000 30.985000,18.891000 C 30.753000,18.650000 30.529000,18.400000 30.299000,18.161000 C 29.830000,17.692000 29.070000,17.692000 28.602000,18.161000 C 28.495000,18.268000 28.419000,18.394000 28.361000,18.525000 C 27.959000,18.345000 27.479000,18.383000 27.116000,18.682000 C 27.021000,18.759000 26.958000,18.857000 26.893000,18.953000 C 26.572000,18.696000 26.254000,18.434000 25.935000,18.175000 C 25.391000,17.798000 24.655000,17.931000 24.277000,18.465000 C 24.264000,18.444000 24.246000,18.426000 24.234000,18.405000 C 23.850000,17.866000 23.100000,17.739000 22.561000,18.119000 C 22.427000,18.215000 22.319000,18.333000 22.237000,18.465000 C 21.842000,18.367000 21.411000,18.452000 21.103000,18.761000 C 21.063000,18.802000 21.046000,18.854000 21.012000,18.898000 C 20.729000,18.691000 20.451000,18.475000 20.184000,18.251000 C 19.678000,17.819000 18.923000,17.876000 18.492000,18.377000 C 18.425000,18.456000 18.391000,18.548000 18.347000,18.637000 C 18.171000,18.539000 17.990000,18.449000 17.817000,18.344000 C 17.235000,18.030000 16.505000,18.241000 16.186000,18.827000 C 16.181000,18.836000 16.182000,18.847000 16.177000,18.855000 C 16.060000,18.751000 15.950000,18.640000 15.853000,18.518000 C 15.388000,18.058000 14.638000,18.057000 14.168000,18.514000 C 14.100000,18.450000 14.019000,18.402000 13.959000,18.330000 C 13.542000,17.814000 12.787000,17.735000 12.271000,18.152000 C 12.089000,18.299000 11.982000,18.494000 11.912000,18.700000 C 11.749000,18.595000 11.589000,18.485000 11.437000,18.363000 C 10.912000,17.955000 10.162000,18.049000 9.7540000,18.574000 C 9.7300000,18.605000 9.7240000,18.642000 9.7040000,18.674000 C 9.5030000,18.519000 9.3000000,18.366000 9.1030000,18.203000 C 8.5730000,17.805000 7.8230000,17.908000 7.4200000,18.433000 C 7.3930000,18.469000 7.3870000,18.512000 7.3640000,18.550000 C 7.2450000,18.454000 7.1340000,18.349000 7.0350000,18.227000 C 6.6040000,17.726000 5.8490000,17.669000 5.3430000,18.101000 C 5.2380000,18.192000 5.1630000,18.302000 5.0980000,18.416000 C 5.0660000,18.384000 5.0330000,18.354000 5.0010000,18.322000 C 4.5140000,17.872000 3.7540000,17.905000 3.3040000,18.397000 C 2.8590000,18.885000 2.8920000,19.644000 3.3790000,20.089000 C 3.9320000,20.656000 4.5040000,21.200000 5.1460000,21.673000 C 5.6900000,22.052000 6.4400000,21.917000 6.8190000,21.373000 C 6.8760000,21.290000 6.8990000,21.198000 6.9330000,21.108000 C 7.2320000,21.270000 7.5370000,21.420000 7.8500000,21.551000 C 8.3160000,21.711000 8.8090000,21.567000 9.1230000,21.226000 C 9.4140000,21.406000 9.7160000,21.563000 10.062000,21.635000 C 10.558000,21.753000 11.048000,21.547000 11.323000,21.155000 C 11.739000,21.401000 12.164000,21.631000 12.603000,21.832000 C 13.148000,22.011000 13.713000,21.765000 13.993000,21.290000 C 14.106000,21.346000 14.217000,21.407000 14.332000,21.457000 C 14.731000,21.615000 15.155000,21.526000 15.479000,21.288000 C 15.860000,21.515000 16.263000,21.707000 16.685000,21.847000 C 17.248000,22.046000 17.846000,21.787000 18.126000,21.279000 C 18.644000,21.565000 19.188000,21.801000 19.839000,21.842000 C 20.129000,21.815000 20.374000,21.676000 20.566000,21.487000 C 20.797000,21.618000 21.036000,21.737000 21.283000,21.838000 C 21.699000,22.013000 22.144000,21.921000 22.475000,21.662000 C 22.654000,21.772000 22.841000,21.868000 23.041000,21.941000 C 23.517000,22.094000 24.020000,21.930000 24.325000,21.567000 C 24.473000,21.635000 24.617000,21.710000 24.771000,21.763000 C 25.224000,21.638000 25.677000,21.513000 26.130000,21.388000 C 26.477000,21.635000 26.824000,21.879000 27.190000,22.100000 C 27.574000,22.100000 27.954000,22.095000 28.338000,22.095000 C 28.480000,22.040000 28.600000,21.956000 28.707000,21.860000 C 29.086000,22.045000 29.493000,22.167000 29.927000,22.189000 C 30.276000,22.184000 30.582000,22.023000 30.798000,21.780000 C 30.919000,21.846000 31.031000,21.923000 31.160000,21.977000 C 31.647000,22.194000 32.186000,22.054000 32.523000,21.682000 C 32.791000,21.882000 33.065000,22.072000 33.339000,22.249000 C 33.834000,22.559000 34.453000,22.442000 34.837000,22.030000 C 35.266000,22.184000 35.764000,22.090000 36.105000,21.743000 C 36.154000,21.693000 36.175000,21.629000 36.214000,21.574000 C 36.502000,21.842000 36.901000,21.979000 37.310000,21.874000 C 37.674000,21.781000 37.942000,21.524000 38.090000,21.208000 C 38.472000,21.556000 39.039000,21.643000 39.504000,21.363000 C 39.636000,21.283000 39.742000,21.179000 39.831000,21.064000 C 39.949000,21.163000 40.052000,21.279000 40.175000,21.373000 C 40.709000,21.762000 41.459000,21.645000 41.853000,21.111000 C 41.923000,21.014000 41.959000,20.904000 41.997000,20.797000 C 42.068000,20.864000 42.143000,20.926000 42.214000,20.994000 C 42.209000,20.994000 42.204000,20.989000 42.200000,20.989000 C 42.617000,21.505000 43.372000,21.584000 43.888000,21.167000 C 44.164000,20.944000 44.304000,20.623000 44.321000,20.294000 C 44.698000,20.408000 45.082000,20.494000 45.487000,20.496000 C 45.430000,20.501000 45.379000,20.501000 45.323000,20.505000 C 45.955000,20.697000 46.626000,20.336000 46.818000,19.703000 C 46.904000,19.416000 46.867000,19.129000 46.756000,18.876000 C 46.840000,18.870000 46.926000,18.867000 47.010000,18.859000 C 47.671000,18.845000 48.196000,18.292000 48.182000,17.630000 C 48.176000,17.422000 48.105000,17.238000 48.008000,17.071000 C 48.525000,16.931000 48.911000,16.474000 48.904000,15.915000 C 48.900000,15.723000 48.841000,15.549000 48.758000,15.389000 C 49.308000,15.172000 49.636000,14.592000 49.490000,13.997000 C 49.456000,13.861000 49.390000,13.744000 49.317000,13.633000 C 49.387000,13.618000 49.457000,13.604000 49.527000,13.589000 C 50.173000,13.448000 50.586000,12.811000 50.445000,12.164000 C 50.413000,12.017000 50.349000,11.887000 50.273000,11.768000 C 50.336000,11.748000 50.401000,11.736000 50.464000,11.713000 C 50.441000,11.732000 50.422000,11.746000 50.398000,11.765000 C 51.034000,11.587000 51.408000,10.928000 51.228000,10.287000 C 51.664000,10.104000 51.971000,9.6730000 51.964000,9.1720000 C 51.960000,8.6620000 51.638000,8.2370000 51.191000,8.0660000 C 51.329000,8.0410000 51.467000,8.0180000 51.603000,7.9910000 C 52.053000,7.8720000 52.366000,7.5070000 52.460000,7.0800000 C 52.587000,7.1110000 52.714000,7.1380000 52.841000,7.1700000 C 53.478000,7.3530000 54.144000,6.9870000 54.327000,6.3500000 C 54.354000,6.2550000 54.347000,6.1610000 54.350000,6.0660000 C 54.671000,6.0940000 54.970000,5.9990000 55.207000,5.8030000 C 55.520000,5.9810000 55.891000,6.0020000 56.228000,5.8690000 C 56.254000,6.2500000 56.477000,6.5830000 56.808000,6.7870000 C 56.746000,6.9290000 56.685000,7.0720000 56.619000,7.2110000 C 56.408000,7.7980000 56.689000,8.4290000 57.241000,8.6900000 C 57.181000,8.8130000 57.117000,8.9340000 57.060000,9.0580000 C 57.065000,9.0300000 57.069000,9.0010000 57.074000,8.9730000 C 56.694000,9.5170000 56.835000,10.267000 57.379000,10.642000 C 57.507000,10.731000 57.649000,10.786000 57.792000,10.819000 C 57.677000,11.090000 57.571000,11.364000 57.486000,11.646000 C 57.298000,12.279000 57.660000,12.949000 58.297000,13.136000 C 58.361000,13.156000 58.425000,13.146000 58.490000,13.154000 C 58.349000,13.626000 58.235000,14.105000 58.179000,14.594000 C 58.120000,15.235000 58.581000,15.796000 59.211000,15.885000 C 59.149000,16.114000 59.075000,16.340000 59.028000,16.572000 C 58.928000,17.129000 59.243000,17.644000 59.739000,17.862000 C 59.666000,18.133000 59.603000,18.406000 59.552000,18.681000 C 59.547000,18.658000 59.547000,18.630000 59.543000,18.606000 C 59.294000,19.220000 59.590000,19.918000 60.204000,20.167000 C 60.452000,20.269000 60.707000,20.261000 60.947000,20.200000 C 61.064000,20.705000 61.257000,21.198000 61.512000,21.648000 C 61.845000,22.220000 62.576000,22.417000 63.153000,22.088000 C 63.353000,21.972000 63.488000,21.797000 63.590000,21.606000 C 63.684000,21.691000 63.767000,21.787000 63.870000,21.863000 C 63.851000,21.854000 63.837000,21.844000 63.818000,21.835000 C 64.258000,22.332000 65.018000,22.379000 65.515000,21.938000 C 65.784000,21.698000 65.907000,21.364000 65.904000,21.030000 C 66.207000,21.217000 66.517000,21.392000 66.837000,21.550000 C 67.403000,21.849000 68.093000,21.640000 68.419000,21.097000 C 68.817000,21.390000 69.221000,21.676000 69.650000,21.925000 C 69.627000,21.920000 69.608000,21.915000 69.585000,21.911000 C 70.091000,22.337000 70.846000,22.267000 71.273000,21.761000 C 71.420000,21.586000 71.488000,21.380000 71.520000,21.169000 C 71.718000,21.301000 71.908000,21.444000 72.117000,21.560000 C 72.717000,21.851000 73.434000,21.598000 73.720000,21.002000 C 74.006000,20.407000 73.757000,19.690000 73.162000,19.399000 z "
       style="fill:#bfa794;stroke:#000000;stroke-width:0.50000000" /></g></g><g
   id="g1366"
   transform="translate(24.97854,5.606184)"><rect
     y="17.058224"
     x="-60.542915"
     height="44.834141"
     width="184.25197"
     id="rect1350"
     style="fill:#dedede;fill-opacity:1.0000000;fill-rule:evenodd;stroke:none;stroke-width:1.0000000pt;stroke-linecap:butt;stroke-linejoin:miter;stroke-opacity:1.0000000;overflow:visible" /><g
     transform="translate(-45.20620,-11.60306)"
     id="g1478"><g
       id="g9">
			<line
   id="line11"
   y2="37.505001"
   x2="107.80500"
   y1="37.505001"
   x1="85.004997"
   style="fill:none;stroke:#000000" />
			<path
   id="path13"
   d="M 111.42600,37.505000 C 109.72200,38.138000 107.60800,39.216000 106.29800,40.359000 L 107.33000,37.505000 L 106.29800,34.652000 C 107.60800,35.795000 109.72200,36.874000 111.42600,37.505000 z " />
		</g><g
       id="g21">
			<line
   id="line23"
   y2="48.347000"
   x2="46.966999"
   y1="48.347000"
   x1="58.966999"
   style="fill:none;stroke:#000000" />
			<path
   id="path25"
   d="M 43.346000,48.347000 C 45.050000,48.979000 47.164000,50.058000 48.474000,51.200000 L 47.442000,48.347000 L 48.474000,45.494000 C 47.164000,46.636000 45.050000,47.715000 43.346000,48.347000 z " />
		</g><path
       id="path33"
       d="M 149.02600,64.211000 C 148.49200,63.770000 147.92900,63.433000 147.51700,62.861000 C 147.02900,62.411000 146.27000,62.439000 145.82000,62.926000 C 145.72300,63.030000 145.66000,63.152000 145.60800,63.276000 C 145.12900,62.920000 144.63900,62.576000 144.12300,62.270000 C 143.66400,61.987000 143.09600,62.069000 142.71000,62.410000 C 142.21800,62.138000 141.58900,62.227000 141.21600,62.682000 C 141.17800,62.727000 141.16600,62.782000 141.13600,62.831000 C 140.91700,62.645000 140.70900,62.450000 140.52200,62.232000 C 140.11000,61.726000 139.35100,61.642000 138.83400,62.064000 C 138.68400,62.187000 138.58300,62.345000 138.50900,62.514000 C 138.09600,62.261000 137.55300,62.268000 137.14700,62.580000 C 136.91400,62.763000 136.78100,63.016000 136.72400,63.282000 C 136.38900,62.984000 136.05500,62.685000 135.72200,62.383000 C 135.22500,61.952000 134.46600,62.008000 134.03400,62.514000 C 133.98100,62.575000 133.95900,62.648000 133.92100,62.715000 C 133.77400,62.565000 133.62600,62.415000 133.49100,62.251000 C 133.08800,61.735000 132.32800,61.642000 131.80300,62.045000 C 131.67800,62.142000 131.58100,62.262000 131.50600,62.393000 C 131.12700,61.928000 130.45300,61.798000 129.93700,62.139000 C 129.77600,62.242000 129.66000,62.384000 129.56900,62.539000 C 129.09600,62.144000 128.38600,62.152000 127.94000,62.589000 C 127.87800,62.652000 127.84600,62.731000 127.80100,62.804000 C 127.62700,62.616000 127.45300,62.427000 127.27500,62.242000 C 126.88100,61.780000 126.22900,61.713000 125.73200,62.030000 C 125.38300,61.522000 124.70600,61.339000 124.15300,61.642000 C 123.95200,61.757000 123.81500,61.932000 123.71200,62.123000 C 123.23400,61.831000 122.64100,61.929000 122.26100,62.312000 C 122.21200,62.250000 122.15400,62.196000 122.11000,62.129000 C 121.71600,61.595000 120.96600,61.483000 120.43200,61.876000 C 119.89800,62.269000 119.78500,63.020000 120.17900,63.554000 C 120.73200,64.445000 121.71600,64.960000 122.27900,65.842000 C 122.71100,66.348000 123.47000,66.414000 123.97600,65.982000 C 124.10200,65.877000 124.20100,65.751000 124.27200,65.612000 C 124.61400,65.783000 125.01600,65.761000 125.36100,65.576000 C 125.63800,65.863000 125.93400,66.132000 126.27300,66.357000 C 126.79400,66.702000 127.47100,66.575000 127.85500,66.098000 C 128.40200,66.423000 129.10600,66.285000 129.47000,65.748000 C 129.47900,65.734000 129.47900,65.718000 129.48800,65.703000 C 129.92700,66.079000 130.38400,66.434000 130.88500,66.732000 C 131.45200,67.043000 132.15600,66.848000 132.48600,66.299000 C 132.88400,66.388000 133.31800,66.289000 133.62200,65.972000 C 133.67900,65.912000 133.70600,65.837000 133.74800,65.769000 C 134.16200,66.084000 134.60200,66.372000 135.12200,66.572000 C 135.61000,66.708000 136.11000,66.523000 136.40000,66.144000 C 136.65100,66.347000 136.88800,66.565000 137.15700,66.750000 C 137.69100,67.134000 138.44100,67.013000 138.82500,66.469000 C 138.94600,66.301000 139.00000,66.111000 139.02300,65.917000 C 139.29700,66.101000 139.56300,66.295000 139.80000,66.525000 C 140.31600,66.938000 141.07500,66.862000 141.48800,66.337000 C 141.55200,66.257000 141.58300,66.166000 141.62300,66.077000 C 141.86400,66.226000 142.10500,66.374000 142.34100,66.525000 C 142.78800,66.763000 143.32000,66.685000 143.68400,66.374000 C 144.18100,66.789000 144.91800,66.750000 145.35100,66.263000 C 145.37700,66.234000 145.38600,66.196000 145.40900,66.165000 C 145.66600,66.373000 145.92300,66.579000 146.18500,66.779000 C 146.73800,67.144000 147.48800,67.004000 147.85400,66.451000 C 147.89200,66.394000 147.90100,66.329000 147.92900,66.269000 C 148.36200,66.383000 148.83900,66.264000 149.14800,65.907000 C 149.57900,65.401000 149.52200,64.651000 149.02600,64.211000 z "
       style="fill:#bfa794;stroke:#000000;stroke-width:0.50000000" /><path
       id="path35"
       d="M 71.634000,63.871000 C 73.689000,63.815000 75.346000,63.771000 76.717000,63.771000 C 83.594000,63.771000 85.230000,55.238000 86.910000,52.163000 C 88.590000,49.087000 92.790000,42.188000 103.34300,42.333000 C 106.23900,42.373000 105.39000,42.520000 105.39000,42.520000 L 112.79200,64.174000 L 121.22700,64.174000"
       style="fill:none;stroke:#a9521b;stroke-width:2.0000000" /><path
       id="path49"
       d="M 72.604000,63.230000 C 72.257000,62.944000 71.910000,62.653000 71.620000,62.307000 C 71.184000,61.806000 70.430000,61.754000 69.928000,62.190000 C 69.767000,62.330000 69.670000,62.508000 69.603000,62.695000 C 69.350000,62.145000 68.733000,61.852000 68.147000,62.049000 C 67.666000,62.211000 67.358000,62.648000 67.333000,63.126000 C 67.183000,62.947000 67.023000,62.776000 66.839000,62.626000 C 66.338000,62.190000 65.583000,62.242000 65.147000,62.743000 C 65.129000,62.763000 65.125000,62.789000 65.108000,62.810000 C 65.039000,62.687000 64.974000,62.562000 64.921000,62.429000 C 64.645000,61.829000 63.932000,61.562000 63.327000,61.838000 C 63.102000,61.943000 62.945000,62.119000 62.825000,62.317000 C 62.464000,61.988000 61.956000,61.913000 61.513000,62.128000 C 61.242000,61.780000 60.799000,61.586000 60.341000,61.679000 C 60.321000,61.683000 60.307000,61.697000 60.288000,61.701000 C 60.245000,61.347000 60.203000,60.993000 60.201000,60.634000 C 60.201000,59.973000 59.662000,59.434000 59.001000,59.434000 C 58.962000,59.434000 58.930000,59.453000 58.893000,59.456000 C 58.880000,59.239000 58.866000,59.023000 58.851000,58.806000 C 58.851000,58.145000 58.312000,57.606000 57.651000,57.606000 C 57.471000,57.606000 57.303000,57.653000 57.150000,57.725000 C 57.110000,57.448000 57.073000,57.171000 57.033000,56.894000 C 56.911000,56.243000 56.288000,55.811000 55.637000,55.933000 C 55.589000,55.942000 55.552000,55.971000 55.507000,55.985000 C 55.497000,55.892000 55.481000,55.801000 55.473000,55.708000 C 55.417000,55.047000 54.840000,54.555000 54.180000,54.611000 C 53.935000,54.632000 53.729000,54.740000 53.550000,54.882000 C 53.287000,54.612000 52.917000,54.455000 52.516000,54.518000 C 52.167000,54.571000 51.886000,54.776000 51.706000,55.051000 C 51.459000,54.447000 50.773000,54.151000 50.167000,54.391000 C 49.796000,54.534000 49.559000,54.848000 49.464000,55.205000 C 49.214000,54.991000 48.967000,54.773000 48.723000,54.555000 C 48.255000,54.086000 47.495000,54.086000 47.026000,54.555000 C 46.752000,54.829000 46.657000,55.201000 46.705000,55.558000 C 46.171000,55.579000 45.692000,55.935000 45.573000,56.481000 C 45.516000,56.754000 45.573000,57.019000 45.686000,57.253000 C 45.265000,57.464000 44.990000,57.913000 45.025000,58.412000 C 45.040000,58.624000 45.124000,58.808000 45.233000,58.973000 C 45.100000,58.996000 44.967000,59.022000 44.833000,59.040000 C 44.177000,59.120000 43.708000,59.720000 43.788000,60.376000 C 43.799000,60.464000 43.840000,60.538000 43.869000,60.619000 C 43.423000,60.794000 43.104000,61.224000 43.104000,61.731000 C 43.104000,61.800000 43.132000,61.859000 43.143000,61.924000 C 42.849000,61.980000 42.600000,62.132000 42.423000,62.361000 C 42.025000,62.312000 41.614000,62.442000 41.346000,62.776000 C 41.340000,62.784000 41.339000,62.794000 41.333000,62.801000 C 41.313000,62.774000 41.286000,62.753000 41.267000,62.724000 C 41.281000,62.724000 41.290000,62.724000 41.305000,62.724000 C 40.986000,62.148000 40.255000,61.937000 39.674000,62.255000 C 39.483000,62.361000 39.350000,62.520000 39.245000,62.696000 C 39.148000,62.601000 39.047000,62.512000 38.957000,62.410000 C 38.488000,61.941000 37.729000,61.941000 37.260000,62.410000 C 37.239000,62.431000 37.232000,62.460000 37.212000,62.482000 C 36.936000,62.356000 36.631000,62.343000 36.346000,62.437000 C 36.041000,62.000000 35.488000,61.791000 34.968000,61.984000 C 34.345000,62.213000 34.026000,62.902000 34.256000,63.526000 C 34.280000,63.593000 34.318000,63.654000 34.345000,63.720000 C 34.038000,63.294000 33.681000,62.904000 33.279000,62.574000 C 32.749000,62.180000 31.994000,62.293000 31.601000,62.827000 C 31.524000,62.931000 31.482000,63.047000 31.443000,63.164000 C 30.993000,62.713000 30.269000,62.685000 29.791000,63.118000 C 29.752000,63.153000 29.735000,63.201000 29.702000,63.240000 C 29.385000,63.026000 28.982000,62.948000 28.600000,63.099000 C 28.297000,63.218000 28.074000,63.448000 27.951000,63.722000 C 27.719000,63.481000 27.494000,63.231000 27.264000,62.992000 C 26.795000,62.523000 26.036000,62.523000 25.567000,62.992000 C 25.460000,63.099000 25.383000,63.224000 25.325000,63.355000 C 24.924000,63.175000 24.443000,63.213000 24.081000,63.512000 C 23.986000,63.590000 23.923000,63.687000 23.858000,63.784000 C 23.538000,63.526000 23.219000,63.265000 22.900000,63.006000 C 22.356000,62.630000 21.620000,62.763000 21.242000,63.296000 C 21.228000,63.275000 21.211000,63.257000 21.199000,63.236000 C 20.814000,62.697000 20.064000,62.570000 19.525000,62.950000 C 19.391000,63.046000 19.283000,63.164000 19.201000,63.296000 C 18.806000,63.198000 18.376000,63.284000 18.067000,63.592000 C 18.026000,63.633000 18.009000,63.685000 17.976000,63.729000 C 17.693000,63.522000 17.416000,63.306000 17.148000,63.081000 C 16.642000,62.650000 15.887000,62.706000 15.456000,63.207000 C 15.389000,63.286000 15.354000,63.378000 15.311000,63.467000 C 15.134000,63.369000 14.953000,63.279000 14.781000,63.174000 C 14.200000,62.860000 13.469000,63.071000 13.150000,63.657000 C 13.145000,63.666000 13.146000,63.676000 13.142000,63.685000 C 13.025000,63.581000 12.915000,63.470000 12.818000,63.347000 C 12.353000,62.887000 11.603000,62.886000 11.133000,63.344000 C 11.066000,63.280000 10.984000,63.232000 10.924000,63.160000 C 10.507000,62.644000 9.7520000,62.565000 9.2360000,62.982000 C 9.0540000,63.129000 8.9470000,63.324000 8.8760000,63.530000 C 8.7130000,63.425000 8.5530000,63.315000 8.4010000,63.193000 C 7.8760000,62.785000 7.1260000,62.879000 6.7180000,63.404000 C 6.6940000,63.435000 6.6890000,63.472000 6.6680000,63.505000 C 6.4660000,63.350000 6.2630000,63.197000 6.0660000,63.034000 C 5.5360000,62.636000 4.7860000,62.739000 4.3830000,63.263000 C 3.9850000,63.793000 4.0880000,64.543000 4.6130000,64.946000 C 5.3770000,65.504000 6.0610000,66.263000 7.0270000,66.465000 C 7.5220000,66.584000 8.0130000,66.377000 8.2870000,65.985000 C 8.7030000,66.231000 9.1280000,66.461000 9.5670000,66.662000 C 10.112000,66.841000 10.677000,66.596000 10.957000,66.120000 C 11.070000,66.176000 11.181000,66.237000 11.297000,66.287000 C 11.696000,66.446000 12.120000,66.356000 12.443000,66.118000 C 12.824000,66.345000 13.227000,66.537000 13.650000,66.676000 C 14.212000,66.875000 14.811000,66.616000 15.091000,66.108000 C 15.609000,66.394000 16.154000,66.630000 16.804000,66.671000 C 17.094000,66.644000 17.340000,66.505000 17.531000,66.316000 C 17.762000,66.447000 18.001000,66.565000 18.248000,66.667000 C 18.664000,66.841000 19.110000,66.749000 19.440000,66.491000 C 19.619000,66.601000 19.807000,66.697000 20.006000,66.770000 C 20.482000,66.923000 20.985000,66.759000 21.290000,66.396000 C 21.437000,66.464000 21.582000,66.539000 21.736000,66.592000 C 22.189000,66.467000 22.642000,66.342000 23.095000,66.217000 C 23.441000,66.464000 23.789000,66.708000 24.154000,66.929000 C 24.538000,66.929000 24.918000,66.924000 25.302000,66.924000 C 25.444000,66.869000 25.565000,66.785000 25.671000,66.689000 C 26.050000,66.874000 26.457000,66.996000 26.892000,67.018000 C 27.241000,67.013000 27.546000,66.852000 27.762000,66.609000 C 27.883000,66.675000 27.995000,66.753000 28.124000,66.807000 C 28.611000,67.024000 29.150000,66.884000 29.487000,66.512000 C 29.755000,66.712000 30.029000,66.902000 30.303000,67.079000 C 30.799000,67.389000 31.417000,67.272000 31.802000,66.860000 C 32.231000,67.014000 32.729000,66.920000 33.069000,66.572000 C 33.118000,66.522000 33.140000,66.459000 33.178000,66.403000 C 33.466000,66.671000 33.865000,66.808000 34.274000,66.703000 C 34.917000,66.539000 35.310000,65.887000 35.146000,65.245000 C 35.108000,65.136000 35.053000,65.032000 35.008000,64.925000 C 35.225000,65.267000 35.440000,65.611000 35.598000,65.986000 C 35.931000,66.558000 36.666000,66.755000 37.239000,66.422000 C 37.334000,66.367000 37.401000,66.288000 37.475000,66.214000 C 37.480000,66.221000 37.487000,66.228000 37.492000,66.235000 C 37.848000,66.793000 38.589000,66.957000 39.147000,66.596000 C 39.335000,66.475000 39.460000,66.304000 39.554000,66.117000 C 39.584000,66.143000 39.615000,66.167000 39.644000,66.193000 C 40.136000,66.643000 40.895000,66.606000 41.341000,66.118000 C 41.370000,66.086000 41.381000,66.045000 41.405000,66.010000 C 41.600000,66.146000 41.797000,66.281000 41.983000,66.423000 C 42.502000,66.235000 43.018000,66.043000 43.535000,65.853000 C 43.868000,66.040000 44.205000,66.220000 44.547000,66.390000 C 45.138000,66.685000 45.859000,66.441000 46.155000,65.846000 C 46.446000,65.255000 46.202000,64.534000 45.611000,64.238000 C 45.595000,64.231000 45.581000,64.221000 45.566000,64.214000 C 45.798000,64.182000 46.033000,64.169000 46.263000,64.121000 C 46.914000,64.009000 47.354000,63.386000 47.242000,62.735000 C 47.356000,62.716000 47.471000,62.714000 47.584000,62.692000 C 48.230000,62.547000 48.639000,61.909000 48.498000,61.258000 C 48.463000,61.104000 48.397000,60.967000 48.314000,60.844000 C 48.864000,60.685000 49.245000,60.170000 49.182000,59.584000 C 49.165000,59.431000 49.114000,59.291000 49.047000,59.162000 C 49.363000,58.979000 49.573000,58.659000 49.624000,58.282000 C 49.687000,58.319000 49.747000,58.363000 49.811000,58.398000 C 50.066000,58.540000 50.349000,58.563000 50.614000,58.512000 C 50.962000,58.883000 51.507000,59.017000 51.990000,58.786000 C 52.067000,58.750000 52.121000,58.690000 52.186000,58.641000 C 52.427000,59.136000 52.967000,59.427000 53.527000,59.292000 C 53.560000,59.284000 53.583000,59.262000 53.614000,59.251000 C 53.796000,59.752000 54.275000,60.098000 54.830000,60.051000 C 54.895000,60.045000 54.949000,60.013000 55.011000,59.998000 C 55.015000,60.041000 55.023000,60.083000 55.027000,60.126000 C 55.084000,60.787000 55.660000,61.279000 56.321000,61.223000 C 56.431000,61.215000 56.528000,61.172000 56.628000,61.136000 C 56.667000,61.515000 56.700000,61.896000 56.762000,62.274000 C 56.878000,62.898000 57.457000,63.307000 58.079000,63.238000 C 58.116000,63.453000 58.153000,63.668000 58.192000,63.882000 C 58.337000,64.528000 58.979000,64.932000 59.626000,64.791000 C 59.689000,64.777000 59.738000,64.738000 59.796000,64.715000 C 59.895000,65.055000 60.004000,65.392000 60.147000,65.719000 C 60.428000,66.319000 61.145000,66.572000 61.745000,66.286000 C 62.067000,66.132000 62.279000,65.848000 62.370000,65.528000 C 62.414000,65.584000 62.460000,65.640000 62.504000,65.696000 C 62.898000,66.230000 63.648000,66.343000 64.182000,65.949000 C 64.278000,65.878000 64.344000,65.784000 64.412000,65.693000 C 64.427000,65.706000 64.439000,65.721000 64.454000,65.734000 C 64.937000,66.189000 65.696000,66.165000 66.151000,65.682000 C 66.178000,65.654000 66.187000,65.618000 66.211000,65.588000 C 66.511000,65.967000 66.847000,66.316000 67.342000,66.526000 C 67.946000,66.793000 68.654000,66.512000 68.922000,65.907000 C 68.984000,65.762000 69.012000,65.611000 69.016000,65.462000 C 69.202000,65.587000 69.391000,65.709000 69.578000,65.823000 C 70.121000,66.203000 70.871000,66.072000 71.251000,65.528000 C 71.313000,65.439000 71.340000,65.340000 71.376000,65.242000 C 71.852000,65.446000 72.418000,65.339000 72.765000,64.919000 C 73.186000,64.407000 73.115000,63.652000 72.604000,63.230000 z "
       style="fill:#bfa794;stroke:#000000;stroke-width:0.50000000" /></g></g><g
   id="g1395"
   transform="translate(-6.330726,-9.672818e-15)"><rect
     y="124.30811"
     x="-29.233652"
     height="44.834141"
     width="184.25197"
     id="rect1354"
     style="fill:#dedede;fill-opacity:1.0000000;fill-rule:evenodd;stroke:none;stroke-width:1.0000000pt;stroke-linecap:butt;stroke-linejoin:miter;stroke-opacity:1.0000000;overflow:visible" /><g
     transform="translate(-12.87668,15.62618)"
     id="g1489"><path
       id="path39"
       d="M 122.02600,136.28200 C 123.05300,136.24500 139.30900,136.21600 139.99400,136.21600 C 143.43200,136.21600 144.25000,130.52700 145.09100,128.47700 C 145.61100,127.20600 146.61500,124.95700 148.55900,123.45300"
       style="fill:none;stroke:#a9521b;stroke-width:2.0000000" /><path
       id="path41"
       d="M 71.568000,136.22800 C 73.485000,136.21500 75.047000,136.20500 76.351000,136.20500 C 83.228000,136.20500 84.864000,134.07200 86.544000,133.30300 C 88.224000,132.53400 92.424000,130.80900 102.97700,130.84500 C 105.87300,130.85500 105.02400,130.89200 105.02400,130.89200 L 112.42600,136.30500 L 120.77200,136.30500"
       style="fill:none;stroke:#a9521b;stroke-width:2.0000000" /><path
       id="path45"
       d="M 148.36100,124.02100 C 148.65100,123.80200 148.85100,123.47000 148.85100,123.08000 C 148.85100,122.41900 148.31200,121.88000 147.65100,121.88000 C 146.99000,121.88000 146.45100,122.41900 146.45100,123.08000 C 146.45100,123.18500 146.48600,123.27900 146.51100,123.37600 C 146.34200,123.35500 146.17100,123.33900 146.00100,123.32900 C 145.35400,123.20200 144.72100,123.62900 144.59900,124.28000 C 144.53700,124.60100 144.61100,124.91800 144.78100,125.17200 C 144.67800,125.19100 144.57500,125.20500 144.47300,125.22800 C 143.83500,125.41100 143.46500,126.07200 143.64800,126.70900 C 143.69400,126.87100 143.77200,127.01400 143.87200,127.13600 C 143.77500,127.16900 143.67400,127.18700 143.57800,127.22900 C 142.96900,127.48700 142.68800,128.19400 142.95000,128.80400 C 142.99800,128.91900 143.07600,129.00900 143.15200,129.09800 C 143.10400,129.12100 143.05400,129.14100 143.00600,129.16500 C 142.43700,129.48900 142.24300,130.20400 142.55300,130.77700 C 142.45200,130.79800 142.35100,130.81700 142.25100,130.84200 C 141.60900,131.00600 141.22400,131.66200 141.38800,132.30400 C 141.40300,132.36100 141.43900,132.40300 141.46100,132.45400 C 140.96700,132.56900 140.57600,132.97600 140.53100,133.50900 C 140.52400,133.59200 140.54900,133.66700 140.55800,133.74700 C 140.18200,133.78700 139.85100,134.00600 139.65500,134.34300 C 139.60600,134.30000 139.55200,134.26200 139.50500,134.21700 C 138.98500,133.80400 138.23000,133.88900 137.81700,134.40900 C 137.79100,134.44200 137.78400,134.48200 137.76200,134.51700 C 137.61500,134.40000 137.46700,134.28500 137.32500,134.16100 C 136.81400,133.73400 136.05900,133.80000 135.63300,134.30700 C 135.60400,134.34200 135.59400,134.38500 135.57000,134.42200 C 135.29000,133.94700 134.72500,133.70100 134.17500,133.88000 C 133.88900,133.97600 133.67400,134.17700 133.53200,134.41900 C 133.42000,134.31100 133.31500,134.19600 133.19900,134.09100 C 132.77700,133.58000 132.02300,133.51000 131.51100,133.93200 C 131.35600,134.06000 131.25600,134.22300 131.18300,134.39700 C 131.05900,134.29100 130.95400,134.16500 130.82700,134.06300 C 130.29700,133.66500 129.54700,133.76800 129.14400,134.29300 C 129.12400,134.32000 129.12000,134.35300 129.10200,134.38000 C 128.97100,134.25200 128.82700,134.13700 128.69800,134.00600 C 128.22900,133.53700 127.47000,133.53700 127.00100,134.00600 C 126.97700,134.03000 126.96800,134.06300 126.94700,134.08800 C 126.81800,133.98600 126.70300,133.86900 126.57000,133.77200 C 126.03500,133.37800 125.28600,133.48600 124.89200,134.02100 C 124.85000,134.07900 124.83600,134.14600 124.80500,134.20700 C 124.33400,133.84700 123.66800,133.86200 123.23700,134.29300 C 123.23200,134.29800 123.23100,134.30500 123.22600,134.31000 C 123.16900,134.26800 123.12300,134.21500 123.06300,134.17600 C 122.58400,133.83400 121.95200,133.92000 121.54800,134.32000 C 121.49000,134.26500 121.44000,134.20200 121.38100,134.14800 C 120.88900,133.70300 120.12900,133.74000 119.68400,134.23200 C 119.23900,134.72000 119.27600,135.47900 119.76800,135.92400 C 120.28900,136.40700 120.77600,136.93200 121.10900,137.56000 C 121.47000,138.11800 122.21100,138.27700 122.76800,137.92100 C 122.86500,137.85900 122.93400,137.77400 123.00600,137.69200 C 123.08300,137.79200 123.15800,137.89300 123.24200,137.98700 C 123.63100,138.52100 124.38100,138.64300 124.92000,138.25400 C 125.01100,138.18800 125.07200,138.10000 125.13900,138.01500 C 125.17100,138.05300 125.20700,138.08800 125.23900,138.12700 C 125.67000,138.62800 126.42900,138.68900 126.93100,138.25800 C 127.09400,138.11600 127.19200,137.93700 127.26000,137.74700 C 127.69100,138.25300 128.44600,138.31400 128.95200,137.88300 C 129.02100,137.82500 129.06100,137.74800 129.11400,137.67900 C 129.32400,137.86400 129.52900,138.05400 129.74400,138.23500 C 130.23700,138.62100 130.93100,138.54400 131.35000,138.09500 C 131.38300,138.14000 131.42200,138.18000 131.45500,138.22600 C 131.81100,138.78400 132.55200,138.94800 133.11500,138.59700 C 133.38500,138.42500 133.55700,138.16000 133.62900,137.87200 C 133.76600,137.99100 133.90000,138.11500 134.04300,138.22600 C 134.59600,138.58700 135.33700,138.43300 135.70200,137.87900 C 135.72400,137.84600 135.72600,137.80700 135.74400,137.77300 C 135.93100,137.92000 136.11400,138.07100 136.28300,138.23100 C 136.78900,138.65800 137.54400,138.59200 137.97100,138.08500 C 138.02700,138.01800 138.05300,137.93800 138.09200,137.86300 C 138.57500,138.29500 139.31500,138.27400 139.76100,137.80400 C 139.86100,137.70000 139.92800,137.57800 139.98200,137.45300 C 140.35800,137.65200 140.74100,137.83800 141.13400,138.00000 C 141.76200,138.21100 142.44600,137.87800 142.66200,137.25000 C 142.72600,137.06100 142.72500,136.87000 142.69600,136.68500 C 143.16800,136.71500 143.64100,136.67400 144.11000,136.51500 C 144.04900,136.53800 143.98800,136.57100 143.91800,136.58100 C 144.57900,136.55800 145.10000,136.00400 145.07600,135.33900 C 145.06500,134.92700 144.83100,134.58800 144.50600,134.38300 C 144.73500,134.30000 144.96400,134.21600 145.18400,134.11500 C 145.80300,133.87600 146.10800,133.18200 145.87300,132.56300 C 145.81500,132.41300 145.72700,132.28300 145.62300,132.17300 C 146.21900,132.01000 146.60700,131.43000 146.49200,130.81500 C 146.47300,130.71200 146.42300,130.62700 146.38200,130.53800 C 146.41600,130.52900 146.44900,130.52000 146.48300,130.51100 C 146.46900,130.52000 146.45000,130.53000 146.43600,130.53900 C 147.07300,130.36600 147.44800,129.70500 147.27500,129.06700 C 147.27000,129.04800 147.25600,129.03600 147.25000,129.01800 C 147.80800,128.85600 148.19000,128.32500 148.11400,127.73100 C 148.08600,127.51900 147.99000,127.34000 147.87000,127.18000 C 148.29800,126.99400 148.59600,126.56900 148.59200,126.07200 C 148.59200,125.94500 148.55500,125.82900 148.51700,125.71400 C 148.57900,125.64200 148.65000,125.57900 148.69600,125.49000 C 148.96400,124.97500 148.79800,124.36900 148.36100,124.02100 z M 145.62400,132.17100 C 145.61900,132.16600 145.61400,132.16000 145.60800,132.15400 C 145.67500,132.10200 145.75000,132.06900 145.81400,132.00900 C 145.76300,132.08300 145.70000,132.13500 145.62400,132.17100 z "
       style="fill:#bfa794;stroke:#000000;stroke-width:0.50000000" /><path
       id="path53"
       d="M 72.164000,136.53700 C 72.683000,136.12400 72.770000,135.36800 72.358000,134.84900 C 72.337000,134.83100 72.316000,134.81300 72.296000,134.79500 C 72.027000,134.23300 71.376000,133.95400 70.783000,134.19300 C 70.598000,134.26600 70.454000,134.38900 70.332000,134.52900 C 69.918000,134.04600 69.198000,133.96200 68.689000,134.35500 C 68.662000,134.37600 68.649000,134.40700 68.624000,134.43000 C 68.288000,134.18600 67.845000,134.10600 67.439000,134.28600 C 67.272000,134.36000 67.137000,134.47300 67.025000,134.60300 C 67.024000,134.60200 67.022000,134.60000 67.021000,134.59800 C 66.621000,134.06700 65.865000,133.96700 65.339000,134.37300 C 65.098000,134.55700 64.957000,134.81800 64.901000,135.09400 C 64.601000,134.77400 64.289000,134.46800 63.932000,134.20300 C 63.403000,133.80000 62.653000,133.89800 62.249000,134.42300 C 62.121000,134.59100 62.061000,134.78300 62.032000,134.97800 C 61.941000,134.91300 61.846000,134.85200 61.757000,134.78400 C 61.185000,134.44200 60.449000,134.63400 60.111000,135.20100 C 59.975000,135.43100 59.945000,135.68600 59.971000,135.93200 C 59.873000,135.98800 59.799000,136.06000 59.733000,136.13800 C 59.171000,135.82700 58.463000,136.00200 58.124000,136.55600 C 57.945000,136.85300 57.916000,137.19400 58.003000,137.50300 C 57.819000,137.46200 57.636000,137.41600 57.459000,137.34300 C 57.468000,137.33800 57.482000,137.33300 57.492000,137.32900 C 56.868000,137.09900 56.180000,137.41800 55.954000,138.04100 C 55.905000,138.17300 55.894000,138.30800 55.892000,138.44100 C 55.795000,138.39700 55.697000,138.35900 55.602000,138.30800 C 54.978000,138.07400 54.290000,138.38300 54.055000,139.00200 C 54.045000,139.03000 54.050000,139.05900 54.041000,139.08700 C 53.723000,138.96000 53.412000,138.81200 53.131000,138.58500 C 53.140000,138.57600 53.145000,138.57100 53.154000,138.56200 C 52.671000,138.10300 51.912000,138.12200 51.457000,138.60000 C 51.454000,138.60400 51.453000,138.60900 51.449000,138.61200 C 51.158000,138.46000 50.822000,138.43300 50.499000,138.54800 C 50.386000,137.90900 49.787000,137.47200 49.145000,137.56900 C 49.040000,137.58500 48.951000,137.63300 48.858000,137.67300 C 48.794000,137.37900 48.717000,137.08700 48.620000,136.80000 C 48.497000,136.25600 48.020000,135.90300 47.487000,135.88400 C 47.471000,135.70500 47.454000,135.52500 47.443000,135.34700 C 47.382000,134.68600 46.801000,134.19900 46.140000,134.26000 C 45.832000,134.28800 45.570000,134.43700 45.375000,134.64700 C 45.341000,134.54900 45.304000,134.45300 45.273000,134.35400 C 45.048000,133.73000 44.359000,133.41200 43.736000,133.63700 C 43.476000,133.73300 43.285000,133.92000 43.149000,134.13700 C 42.940000,133.92900 42.723000,133.73000 42.499000,133.54300 C 41.983000,133.13000 41.224000,133.21500 40.811000,133.73100 C 40.665000,133.91400 40.603000,134.12900 40.578000,134.34800 C 40.174000,134.13500 39.667000,134.16000 39.286000,134.46300 C 39.202000,134.52800 39.148000,134.61300 39.086000,134.69400 C 38.667000,134.25500 37.989000,134.17600 37.492000,134.55000 C 37.254000,134.73400 37.117000,134.99200 37.060000,135.26400 C 36.766000,135.04600 36.477000,134.82000 36.192000,134.58700 C 35.686000,134.16200 34.930000,134.22400 34.504000,134.73700 C 34.418000,134.84000 34.366000,134.95700 34.319000,135.07500 C 33.883000,134.87700 33.452000,134.67000 33.054000,134.39900 C 32.560000,134.12000 31.962000,134.25000 31.593000,134.65200 C 31.218000,134.24100 30.608000,134.11600 30.111000,134.41100 C 29.985000,134.48600 29.885000,134.58600 29.799000,134.69400 C 29.725000,134.57400 29.645000,134.45800 29.574000,134.33600 C 29.299000,133.90700 28.796000,133.72000 28.324000,133.81600 C 28.315000,133.75400 28.299000,133.69300 28.293000,133.62900 C 28.173000,133.11300 27.732000,132.76900 27.229000,132.72400 C 27.256000,132.56400 27.285000,132.40500 27.337000,132.24700 C 27.587000,131.63500 27.287000,130.93500 26.669000,130.69100 C 26.515000,130.62800 26.355000,130.60100 26.198000,130.60400 C 26.134000,130.06700 25.726000,129.65300 25.194000,129.57500 C 25.288000,128.96800 24.926000,128.37500 24.326000,128.22200 C 24.018000,128.14100 23.710000,128.19500 23.451000,128.33500 C 23.294000,127.85600 22.857000,127.50300 22.326000,127.50300 C 22.066000,127.50300 21.838000,127.60400 21.642000,127.74400 C 21.633000,127.68800 21.615000,127.63500 21.607000,127.57800 C 21.482000,126.92800 20.851000,126.49600 20.201000,126.62100 C 20.092000,126.64200 20.000000,126.69600 19.905000,126.74300 C 19.670000,126.39500 19.272000,126.17100 18.826000,126.20900 C 18.491000,126.23700 18.202000,126.40100 18.004000,126.64100 C 17.714000,126.21300 17.182000,125.99500 16.664000,126.15900 C 16.137000,126.32600 15.827000,126.82600 15.849000,127.35400 C 15.693000,127.25900 15.542000,127.15700 15.402000,127.03400 C 14.877000,126.62800 14.121000,126.72800 13.714000,127.25300 C 13.314000,127.77800 13.407000,128.52800 13.933000,128.93400 C 13.977000,128.97200 14.028000,129.00000 14.074000,129.03700 C 13.927000,129.04500 13.780000,129.05000 13.633000,129.07900 C 12.977000,129.18500 12.533000,129.80400 12.646000,130.46000 C 12.665000,130.57600 12.717000,130.67500 12.765000,130.77600 C 12.673000,130.78200 12.582000,130.79900 12.490000,130.80300 C 11.827000,130.80300 11.290000,131.34100 11.290000,132.00300 C 11.290000,132.09000 11.322000,132.16800 11.340000,132.25000 C 10.926000,132.50700 10.689000,132.99300 10.790000,133.49700 C 10.806000,133.57500 10.849000,133.63600 10.878000,133.70600 C 10.768000,133.82700 10.688000,133.96600 10.633000,134.12600 C 10.566000,134.17300 10.517000,134.24500 10.460000,134.30600 C 10.014000,133.90900 9.3450000,133.87400 8.8840000,134.27800 C 8.7230000,134.41700 8.6260000,134.59400 8.5580000,134.78100 C 8.5510000,134.77100 8.5410000,134.76300 8.5340000,134.75300 C 8.1780000,134.19700 7.4340000,134.03400 6.8780000,134.39700 C 6.6700000,134.53000 6.5370000,134.72600 6.4460000,134.93800 C 6.3560000,134.84400 6.2610000,134.75400 6.1780000,134.65300 C 5.7090000,134.18400 4.9470000,134.18400 4.4780000,134.65300 C 4.4160000,134.71500 4.3850000,134.79200 4.3400000,134.86200 C 3.9780000,134.41600 3.3550000,134.26900 2.8410000,134.55900 C 2.2590000,134.88400 2.0600000,135.61500 2.3840000,136.19000 C 2.9340000,137.14000 3.8780000,137.75200 4.6400000,138.51500 C 5.1270000,138.96500 5.8840000,138.94000 6.3340000,138.45300 C 6.4070000,138.37300 6.4480000,138.27900 6.4960000,138.18700 C 6.5420000,138.22500 6.5880000,138.26400 6.6340000,138.30200 C 7.0910000,138.77700 7.8530000,138.79000 8.3280000,138.33400 C 8.4070000,138.25700 8.4540000,138.16300 8.5070000,138.07300 C 8.5870000,138.15000 8.6720000,138.22200 8.7470000,138.30200 C 9.1720000,138.80800 9.9350000,138.87700 10.440000,138.45200 C 10.634000,138.28900 10.742000,138.07400 10.804000,137.84700 C 10.942000,137.95800 11.080000,138.06900 11.215000,138.18300 C 11.677000,138.65800 12.434000,138.66400 12.909000,138.20200 C 13.169000,137.94800 13.275000,137.60600 13.254000,137.27000 C 13.368000,137.29900 13.480000,137.33600 13.596000,137.35800 C 14.246000,137.50200 14.884000,137.09500 15.034000,136.45200 C 15.093000,136.18500 15.040000,135.92800 14.936000,135.69900 C 15.362000,135.50800 15.654000,135.07400 15.640000,134.57700 C 15.635000,134.30200 15.521000,134.06300 15.361000,133.86400 C 15.693000,133.62600 15.908000,133.24100 15.871000,132.80800 C 15.867000,132.76500 15.844000,132.72900 15.835000,132.68700 C 15.841000,132.68600 15.846000,132.68500 15.852000,132.68300 C 16.457000,132.52500 16.812000,131.93400 16.715000,131.33400 C 17.055000,131.14400 17.294000,130.80500 17.329000,130.39600 C 17.423000,130.36400 17.503000,130.30700 17.587000,130.25200 C 17.698000,130.36500 17.804000,130.48300 17.921000,130.58900 C 18.287000,130.91300 18.798000,130.97000 19.218000,130.77700 C 19.454000,130.90500 19.723000,130.96300 19.989000,130.91700 C 20.248000,131.36600 20.760000,131.62400 21.289000,131.49600 C 21.411000,131.46800 21.514000,131.40700 21.616000,131.34700 C 21.806000,131.86300 22.318000,132.20100 22.885000,132.12000 C 23.007000,132.60300 23.407000,132.95300 23.908000,133.00600 C 23.913000,133.11900 23.924000,133.23300 23.927000,133.34600 C 23.937000,133.88600 24.310000,134.31700 24.804000,134.45800 C 24.812000,134.57500 24.816000,134.69300 24.826000,134.80900 C 24.864000,135.46500 25.432000,135.97200 26.089000,135.93400 C 26.189000,135.92900 26.276000,135.89000 26.366000,135.86100 C 26.424000,136.06500 26.480000,136.26800 26.538000,136.47100 C 26.663000,137.12100 27.294000,137.54000 27.944000,137.40900 C 28.176000,137.36500 28.363000,137.24000 28.523000,137.08700 C 28.889000,137.57400 29.314000,138.00400 29.881000,138.25900 C 30.394000,138.48100 30.963000,138.30200 31.289000,137.88000 C 31.487000,138.01700 31.694000,138.14200 31.918000,138.24000 C 32.505000,138.54700 33.230000,138.30900 33.537000,137.72100 C 33.591000,137.61600 33.608000,137.50300 33.629000,137.39200 C 33.963000,137.54500 34.296000,137.70100 34.618000,137.87700 C 35.153000,138.20000 35.825000,138.04600 36.191000,137.55500 C 36.464000,137.73800 36.734000,137.92600 37.024000,138.08300 C 37.599000,138.42100 38.331000,138.23300 38.674000,137.66500 C 38.690000,137.63700 38.690000,137.60600 38.704000,137.57800 C 38.897000,137.69800 39.100000,137.80400 39.311000,137.89000 C 39.730000,138.05500 40.174000,137.95500 40.499000,137.69300 C 40.612000,137.78700 40.709000,137.89800 40.830000,137.98400 C 41.248000,138.49000 42.005000,138.55900 42.518000,138.13400 C 42.623000,138.04700 42.697000,137.93900 42.765000,137.82800 C 43.140000,138.21000 43.727000,138.32100 44.210000,138.03600 C 44.212000,138.03500 44.213000,138.03300 44.214000,138.03200 C 44.466000,138.20700 44.785000,138.28700 45.110000,138.22800 C 45.136000,138.22300 45.155000,138.20600 45.180000,138.20000 C 45.142000,138.44900 45.181000,138.69000 45.287000,138.90400 C 45.292000,138.91400 45.293000,138.92500 45.298000,138.93500 C 45.452000,139.22700 45.715000,139.45900 46.060000,139.54500 C 46.216000,139.58400 46.373000,139.58700 46.523000,139.56600 C 46.523000,139.57100 46.523000,139.57800 46.523000,139.58400 C 46.522000,139.69600 46.560000,139.80100 46.624000,139.89800 C 46.624000,139.90200 46.624000,139.90700 46.624000,139.91200 C 46.624000,140.57300 47.163000,141.11200 47.824000,141.11200 C 47.844000,141.11200 47.860000,141.10200 47.880000,141.10100 C 48.060000,141.25200 48.313000,141.35500 48.607000,141.39000 C 48.689000,141.97200 49.170000,142.42900 49.779000,142.42500 C 50.162000,142.42500 50.487000,142.23300 50.706000,141.95200 C 50.892000,142.05900 51.115000,142.11000 51.344000,142.12900 C 51.769000,142.50900 52.405000,142.56400 52.869000,142.20000 C 53.097000,142.02100 53.227000,141.77100 53.285000,141.50700 C 53.455000,141.52800 53.624000,141.55800 53.794000,141.57500 C 53.818000,141.57700 53.841000,141.57100 53.865000,141.57200 C 54.265000,141.70300 54.667000,141.82900 55.048000,141.98400 C 55.676000,142.19500 56.356000,141.85300 56.567000,141.22500 C 56.569000,141.21800 56.567000,141.21100 56.569000,141.20400 C 56.860000,141.26400 57.154000,141.30700 57.457000,141.30400 C 57.363000,141.30400 57.274000,141.30400 57.180000,141.30400 C 57.808000,141.52000 58.488000,141.18200 58.703000,140.55400 C 58.753000,140.41000 58.766000,140.26300 58.761000,140.12000 C 58.847000,140.12700 58.931000,140.14000 59.018000,140.14400 C 59.140000,140.15200 59.253000,140.13600 59.368000,140.12100 C 59.424000,140.13100 59.482000,140.13500 59.538000,140.14600 C 60.190000,140.26800 60.818000,139.84100 60.944000,139.19000 C 60.945000,139.18400 60.943000,139.17800 60.944000,139.17200 C 61.155000,139.22700 61.366000,139.28100 61.577000,139.33000 C 62.181000,139.44700 62.748000,139.07900 62.931000,138.50700 C 63.498000,138.76300 64.152000,138.53100 64.454000,137.99900 C 64.892000,138.19300 65.423000,138.11700 65.787000,137.76000 C 65.851000,137.69600 65.885000,137.61600 65.932000,137.54300 C 66.078000,137.50700 66.206000,137.45500 66.321000,137.38500 C 66.334000,137.40100 66.350000,137.41300 66.363000,137.42800 C 66.754000,137.87600 67.393000,137.94100 67.883000,137.64000 C 67.957000,137.71400 68.024000,137.79400 68.107000,137.85900 C 68.101000,137.85300 68.088000,137.85300 68.082000,137.84600 C 68.525000,138.34000 69.282000,138.38400 69.775000,137.94000 C 69.834000,137.88700 69.866000,137.81800 69.912000,137.75700 C 70.019000,137.86800 70.112000,137.99100 70.225000,138.09600 C 70.700000,138.55800 71.456000,138.54600 71.919000,138.07100 C 72.317000,137.66200 72.342000,137.05100 72.044000,136.59400 C 72.083000,136.57400 72.127000,136.56500 72.164000,136.53700 z M 72.293000,134.79300 C 72.200000,134.71100 72.105000,134.63000 72.014000,134.54900 C 72.142000,134.59500 72.229000,134.68300 72.293000,134.79300 z M 45.195000,138.19800 C 45.196000,138.19800 45.197000,138.19700 45.199000,138.19600 C 45.199000,138.22300 45.202000,138.25000 45.201000,138.27800 C 45.199000,138.25000 45.197000,138.22400 45.195000,138.19800 z "
       style="fill:#bfa794;stroke:#000000;stroke-width:0.50000000" /><g
       id="g61"
       transform="translate(1.292056e-21,6.000000)">
			<line
   id="line63"
   y2="115.19300"
   x2="17.646999"
   y1="115.19300"
   x1="29.646999"
   style="fill:none;stroke:#000000" />
			<path
   id="path65"
   d="M 14.026000,115.19300 C 15.730000,115.82500 17.844000,116.90400 19.154000,118.04600 L 18.122000,115.19300 L 19.154000,112.34000 C 17.844000,113.48200 15.730000,114.56100 14.026000,115.19300 z " />
		</g><g
       id="g67"
       transform="translate(1.292056e-21,6.000000)">
			<line
   id="line69"
   y2="123.97800"
   x2="48.118999"
   y1="123.97800"
   x1="60.118999"
   style="fill:none;stroke:#000000" />
			<path
   id="path71"
   d="M 44.498000,123.97800 C 46.202000,124.61000 48.316000,125.68900 49.626000,126.83100 L 48.594000,123.97800 L 49.626000,121.12500 C 48.316000,122.26700 46.202000,123.34500 44.498000,123.97800 z " />
		</g><g
       id="g79"
       transform="translate(1.292056e-21,6.000000)">
			<line
   id="line81"
   y2="135.00500"
   x2="106.39100"
   y1="135.00500"
   x1="83.589996"
   style="fill:none;stroke:#000000" />
			<path
   id="path83"
   d="M 110.01200,135.00500 C 108.30800,135.63700 106.19400,136.71600 104.88400,137.85800 L 105.91600,135.00500 L 104.88400,132.15200 C 106.19300,133.29400 108.30800,134.37300 110.01200,135.00500 z " />
		</g></g></g><g
   id="g1379"
   transform="translate(6.799536,0.239259)"><rect
     y="73.247002"
     x="-42.363914"
     height="44.834141"
     width="184.25197"
     id="rect1352"
     style="fill:#dedede;fill-opacity:1.0000000;fill-rule:evenodd;stroke:none;stroke-width:1.0000000pt;stroke-linecap:butt;stroke-linejoin:miter;stroke-opacity:1.0000000;overflow:visible" /><g
     transform="translate(-26.17494,-2.824983)"
     id="g1504"><path
       id="path37"
       d="M 120.83000,103.46000 C 118.91300,103.48600 117.35100,103.50500 116.04700,103.50500 C 109.17000,103.50500 107.53400,107.77200 105.85400,109.31000 C 104.17400,110.84800 99.974000,114.29700 89.421000,114.22500 C 86.525000,114.20500 87.374000,114.13100 87.374000,114.13100 L 79.972000,103.30400 L 71.626000,103.30400"
       style="fill:none;stroke:#a9521b;stroke-width:2.0000000" /><path
       id="path43"
       d="M 148.95800,104.41000 C 148.66700,103.68300 148.31200,102.95700 147.67900,102.47000 C 147.17300,102.04400 146.41400,102.10400 145.98800,102.61000 C 145.71800,102.28600 145.42800,101.97400 145.17200,101.65400 C 144.74600,101.18300 144.04100,101.13700 143.54600,101.51900 C 143.46300,101.49000 143.38200,101.47300 143.29500,101.46200 C 143.25400,101.42900 143.22200,101.38700 143.17600,101.35800 C 143.22900,101.27300 143.26800,101.17900 143.32500,101.09600 C 143.69100,100.54300 143.54500,99.798000 142.99200,99.432000 C 142.86000,99.345000 142.71600,99.291000 142.57100,99.260000 C 142.68400,98.934000 142.79900,98.609000 142.93600,98.293000 C 143.24600,97.712000 143.02500,96.981000 142.43900,96.671000 C 142.34900,96.624000 142.25300,96.611000 142.15800,96.588000 C 142.18600,96.517000 142.21200,96.445000 142.24200,96.376000 C 142.48600,95.762000 142.18500,95.064000 141.57200,94.815000 C 141.51500,94.793000 141.45600,94.797000 141.39800,94.784000 C 141.45800,94.571000 141.51500,94.357000 141.56700,94.145000 C 141.64900,93.544000 141.26100,93.006000 140.69300,92.844000 C 140.81900,92.417000 140.91500,91.980000 140.96200,91.539000 C 141.03800,91.009000 140.74700,90.524000 140.29000,90.305000 C 140.33000,90.128000 140.36600,89.950000 140.41400,89.777000 C 140.57800,89.135000 140.18900,88.479000 139.54700,88.319000 C 139.44700,88.294000 139.35000,88.304000 139.25100,88.304000 C 139.25100,88.297000 139.25100,88.289000 139.25100,88.282000 C 139.25100,87.621000 138.71200,87.082000 138.05100,87.082000 C 137.57300,87.082000 137.16700,87.368000 136.97400,87.773000 C 136.81100,87.601000 136.62500,87.446000 136.40600,87.321000 C 135.83400,86.988000 135.09800,87.180000 134.76500,87.752000 C 134.68000,87.899000 134.63100,88.056000 134.61300,88.215000 C 134.08400,88.106000 133.54300,88.041000 133.01200,87.986000 C 132.35100,87.930000 131.77000,88.417000 131.70900,89.078000 C 131.69300,89.262000 131.72900,89.435000 131.79000,89.598000 C 131.28500,89.641000 130.78200,89.705000 130.28900,89.809000 C 129.64200,89.955000 129.23400,90.597000 129.37900,91.244000 C 129.40400,91.357000 129.46200,91.451000 129.51500,91.548000 C 129.49000,91.552000 129.46500,91.558000 129.44000,91.563000 C 128.78900,91.694000 128.37100,92.332000 128.50700,92.979000 C 128.53100,93.100000 128.58900,93.202000 128.64400,93.305000 C 128.45400,93.343000 128.26400,93.385000 128.07100,93.410000 C 127.42400,93.551000 127.01600,94.193000 127.15700,94.840000 C 127.19900,95.029000 127.29300,95.189000 127.40700,95.329000 C 127.24100,95.391000 127.07200,95.442000 126.90800,95.505000 C 126.29900,95.768000 126.02200,96.475000 126.28400,97.085000 C 126.33600,97.206000 126.41700,97.302000 126.50000,97.396000 C 126.00800,97.688000 125.76600,98.281000 125.97900,98.834000 C 125.98900,98.861000 126.01100,98.878000 126.02300,98.904000 C 126.01400,98.906000 126.00600,98.906000 125.99800,98.909000 C 125.41300,99.091000 125.08400,99.679000 125.18700,100.26700 C 125.00100,100.38800 124.84600,100.54500 124.74900,100.74600 C 124.17600,100.57700 123.58600,100.86000 123.33900,101.39400 C 123.25700,101.34200 123.18000,101.28300 123.09600,101.23400 C 122.65200,101.01400 122.13900,101.09200 121.78400,101.39000 C 121.42900,101.03800 120.88600,100.92400 120.41500,101.15900 C 119.82000,101.45400 119.58100,102.17600 119.87600,102.76700 C 120.38200,103.61500 121.10000,104.31300 121.70400,105.09700 C 122.10700,105.62200 122.86200,105.72100 123.38700,105.31700 C 123.57600,105.17200 123.68900,104.97600 123.76500,104.76800 C 123.87500,104.86100 123.98500,104.95200 124.09500,105.04500 C 124.61100,105.46200 125.36600,105.38200 125.78300,104.86700 C 126.04200,104.54700 126.08800,104.14000 125.97900,103.77400 C 126.34200,103.87500 126.71000,103.95300 127.09100,103.95800 C 127.75200,103.96700 128.30000,103.44200 128.31000,102.77700 C 128.31200,102.69000 128.28200,102.61300 128.26600,102.53100 C 128.38100,102.52900 128.49600,102.54000 128.61100,102.53300 C 129.27200,102.51400 129.79700,101.96600 129.77800,101.30400 C 129.77200,101.09800 129.70300,100.91500 129.60800,100.74800 C 129.67000,100.73900 129.73100,100.73200 129.79300,100.72300 C 130.44900,100.62400 130.89500,100.01100 130.79200,99.354000 C 130.73900,99.001000 130.53200,98.720000 130.25500,98.541000 C 130.72000,98.363000 131.04900,97.918000 131.03100,97.390000 C 131.02300,97.160000 130.93300,96.959000 130.81400,96.781000 C 131.38700,96.646000 131.79500,96.125000 131.74400,95.525000 C 131.72700,95.349000 131.67000,95.189000 131.58800,95.045000 C 131.63800,95.026000 131.69000,95.015000 131.73900,94.995000 C 131.73500,95.009000 131.73000,95.018000 131.72500,95.033000 C 132.39100,95.023000 132.91600,94.475000 132.90600,93.814000 C 132.90400,93.689000 132.86600,93.576000 132.82900,93.464000 C 132.86900,93.464000 132.90900,93.457000 132.94900,93.457000 C 133.61000,93.452000 134.14400,92.913000 134.13900,92.252000 C 134.13900,92.192000 134.11400,92.141000 134.10500,92.084000 C 134.24300,92.110000 134.38200,92.124000 134.51900,92.159000 C 135.17000,92.276000 135.79400,91.845000 135.91100,91.193000 C 135.91700,91.162000 135.90600,91.134000 135.91000,91.104000 C 136.01500,91.094000 136.11400,91.070000 136.21400,91.033000 C 136.42700,91.219000 136.69300,91.311000 136.97200,91.316000 C 137.08200,91.461000 137.21600,91.589000 137.38900,91.674000 C 136.98300,92.190000 137.06700,92.944000 137.58500,93.354000 C 137.63900,93.397000 137.70400,93.413000 137.76200,93.445000 C 137.54200,93.926000 137.64000,94.507000 138.06800,94.863000 C 138.26300,95.024000 138.49400,95.090000 138.72800,95.110000 C 138.62500,95.318000 138.50800,95.520000 138.35000,95.697000 C 137.99400,96.255000 138.15800,96.995000 138.72000,97.352000 C 138.87600,97.451000 139.04600,97.501000 139.21800,97.522000 C 139.18800,97.584000 139.16900,97.651000 139.13700,97.713000 C 139.14600,97.661000 139.15600,97.614000 139.16500,97.563000 C 138.65900,97.990000 138.59300,98.745000 139.02400,99.251000 C 139.22900,99.496000 139.51000,99.631000 139.80100,99.665000 C 139.73300,99.784000 139.67800,99.909000 139.59100,100.02000 C 139.23000,100.57300 139.38900,101.31800 139.94300,101.67900 C 140.03500,101.73900 140.13600,101.76300 140.23500,101.79500 C 140.14500,101.98300 140.05200,102.17000 139.96100,102.35900 C 139.69400,102.96800 139.97100,103.67600 140.58000,103.94300 C 140.66600,103.98000 140.75600,103.98400 140.84400,104.00000 C 140.80900,104.09100 140.79000,104.18700 140.74900,104.27600 C 140.52900,104.90400 140.86200,105.58800 141.48500,105.80900 C 142.02100,105.99300 142.58000,105.76600 142.87200,105.30900 C 143.09900,105.62300 143.45700,105.83600 143.87500,105.81800 C 144.27500,105.80400 144.60400,105.58200 144.81000,105.27300 C 145.16100,105.67600 145.73700,105.82400 146.23800,105.57500 C 146.42700,105.47900 146.56400,105.33200 146.67500,105.16800 C 146.70300,105.23400 146.73000,105.30000 146.75800,105.36400 C 147.02100,105.97300 147.72900,106.25500 148.33800,105.99200 C 148.94000,105.72800 149.22100,105.02000 148.95800,104.41000 z "
       style="fill:#bfa794;stroke:#000000;stroke-width:0.50000000" /><path
       id="path51"
       d="M 72.188000,102.57400 C 71.807000,102.26800 71.613000,101.79900 71.270000,101.46200 C 71.282000,101.46200 71.295000,101.46200 71.307000,101.46200 C 70.932000,100.91800 70.182000,100.78100 69.639000,101.16200 C 69.569000,101.21100 69.525000,101.28100 69.469000,101.34100 C 69.170000,100.79300 68.506000,100.55000 67.933000,100.81200 C 67.811000,100.86800 67.713000,100.95100 67.620000,101.03800 C 67.267000,100.63200 66.687000,100.48300 66.189000,100.73100 C 66.057000,100.79800 65.950000,100.89200 65.855000,100.99400 C 65.505000,100.81900 65.085000,100.79800 64.720000,101.01300 C 64.548000,101.11300 64.424000,101.25700 64.325000,101.41500 C 64.192000,101.27700 64.047000,101.15100 63.920000,101.00700 C 63.462000,100.60100 62.781000,100.62700 62.334000,101.03100 C 62.058000,100.58300 61.526000,100.34300 60.995000,100.49500 C 60.691000,100.58100 60.453000,100.78400 60.302000,101.03600 C 59.887000,100.74900 59.328000,100.73000 58.901000,101.05200 C 58.786000,101.14000 58.699000,101.25000 58.625000,101.36600 C 58.599000,101.33600 58.572000,101.30600 58.545000,101.27700 C 58.114000,100.77100 57.357000,100.70200 56.851000,101.13300 C 56.795000,101.18000 56.765000,101.24300 56.720000,101.29800 C 56.714000,101.28900 56.707000,101.28000 56.701000,101.27100 C 56.401000,100.67700 55.682000,100.43900 55.088000,100.73300 C 54.900000,100.82800 54.763000,100.97300 54.652000,101.13500 C 54.652000,101.13500 54.651000,101.13400 54.650000,101.13300 C 54.244000,100.60800 53.494000,100.51400 52.969000,100.92100 C 52.888000,100.98300 52.838000,101.06600 52.778000,101.14200 C 52.704000,101.07200 52.621000,101.01300 52.550000,100.93900 C 52.069000,100.48300 51.312000,100.50200 50.856000,100.98300 C 50.770000,101.07400 50.717000,101.18100 50.665000,101.28700 C 50.665000,101.28600 50.663000,101.28500 50.662000,101.28400 C 50.300000,100.73400 49.550000,100.58400 48.999000,100.95200 C 48.914000,101.00900 48.855000,101.08800 48.790000,101.16100 C 48.771000,101.11700 48.741000,101.07900 48.725000,101.03400 C 48.469000,100.42800 47.763000,100.14600 47.150000,100.40900 C 46.897000,100.51600 46.716000,100.71200 46.592000,100.93700 C 46.274000,100.47900 45.681000,100.27800 45.144000,100.50800 C 45.078000,100.53600 45.033000,100.58800 44.975000,100.62600 C 44.936000,100.49200 44.895000,100.35700 44.863000,100.22100 C 44.670000,99.654000 44.087000,99.346000 43.513000,99.449000 C 43.517000,99.381000 43.522000,99.314000 43.525000,99.246000 C 43.525000,98.712000 43.171000,98.275000 42.688000,98.119000 C 42.769000,97.583000 42.493000,97.042000 41.969000,96.833000 C 41.848000,96.785000 41.723000,96.774000 41.600000,96.767000 C 41.628000,96.231000 41.314000,95.728000 40.781000,95.564000 C 40.690000,95.536000 40.600000,95.543000 40.509000,95.536000 C 40.482000,95.101000 40.231000,94.693000 39.800000,94.508000 C 39.433000,94.349000 39.041000,94.406000 38.721000,94.596000 C 38.702000,94.124000 38.405000,93.690000 37.937000,93.520000 C 37.790000,93.467000 37.639000,93.449000 37.492000,93.454000 C 37.388000,92.985000 37.016000,92.602000 36.519000,92.520000 C 36.019000,92.444000 35.544000,92.686000 35.298000,93.092000 C 35.104000,92.690000 34.701000,92.408000 34.225000,92.408000 C 33.859000,92.408000 33.542000,92.581000 33.322000,92.841000 C 33.049000,92.591000 32.679000,92.454000 32.287000,92.533000 C 31.637000,92.664000 31.218000,93.295000 31.349000,93.945000 C 31.349000,93.945000 31.349000,93.946000 31.349000,93.946000 C 31.301000,93.896000 31.254000,93.844000 31.205000,93.795000 C 30.699000,93.364000 29.942000,93.426000 29.511000,93.926000 C 29.162000,94.335000 29.151000,94.900000 29.418000,95.332000 C 28.784000,95.228000 28.177000,95.634000 28.048000,96.270000 C 27.968000,96.666000 28.108000,97.040000 28.364000,97.313000 C 28.277000,97.307000 28.192000,97.316000 28.104000,97.308000 C 27.441000,97.308000 26.904000,97.846000 26.904000,98.508000 C 26.904000,98.729000 26.980000,98.924000 27.084000,99.102000 C 26.727000,99.331000 26.511000,99.735000 26.535000,100.17800 C 26.120000,100.26400 25.788000,100.58000 25.657000,101.00000 C 25.642000,101.01300 25.622000,101.01700 25.608000,101.03100 C 25.528000,101.10500 25.480000,101.19700 25.425000,101.28500 C 25.318000,101.16900 25.206000,101.05600 25.108000,100.93100 C 24.670000,100.43700 23.908000,100.38700 23.414000,100.82500 C 23.319000,100.90800 23.255000,101.01200 23.193000,101.11500 C 23.137000,101.04200 23.067000,100.98200 23.014000,100.90700 C 22.601000,100.38800 21.851000,100.29400 21.326000,100.70000 C 21.217000,100.78700 21.138000,100.89500 21.066000,101.00700 C 20.736000,100.84500 20.345000,100.81800 19.995000,101.00000 C 19.790000,101.10700 19.648000,101.27400 19.537000,101.45800 C 19.130000,101.08300 18.517000,101.01300 18.051000,101.35000 C 17.762000,101.55600 17.601000,101.86300 17.563000,102.18600 C 17.406000,102.02500 17.247000,101.86600 17.074000,101.72500 C 16.545000,101.33100 15.790000,101.44400 15.396000,101.97800 C 15.319000,102.08200 15.277000,102.19800 15.238000,102.31400 C 14.788000,101.86300 14.064000,101.83600 13.587000,102.26800 C 13.548000,102.30300 13.531000,102.35100 13.498000,102.39000 C 13.181000,102.17600 12.778000,102.09800 12.396000,102.24900 C 12.094000,102.36800 11.871000,102.59800 11.747000,102.87200 C 11.515000,102.63200 11.291000,102.38100 11.060000,102.14200 C 10.592000,101.67300 9.8320000,101.67300 9.3630000,102.14200 C 9.2560000,102.24900 9.1800000,102.37500 9.1210000,102.50600 C 8.7200000,102.32600 8.2390000,102.36300 7.8770000,102.66200 C 7.7820000,102.74000 7.7190000,102.83700 7.6540000,102.93400 C 7.3330000,102.67700 7.0150000,102.41500 6.6960000,102.15600 C 6.1520000,101.77900 5.4160000,101.91200 5.0380000,102.44600 C 5.0250000,102.42500 5.0070000,102.40700 4.9950000,102.38600 C 4.6100000,101.84600 3.8600000,101.72000 3.3210000,102.09900 C 2.7820000,102.48300 2.6550000,103.23300 3.0400000,103.77300 C 3.6170000,104.69600 4.5070000,105.39000 5.5340000,105.74100 C 5.9870000,105.61600 6.4400000,105.49100 6.8930000,105.36600 C 7.2390000,105.61300 7.5870000,105.85700 7.9530000,106.07800 C 8.3370000,106.07800 8.7170000,106.07300 9.1010000,106.07300 C 9.2430000,106.01800 9.3630000,105.93400 9.4700000,105.83800 C 9.8490000,106.02300 10.256000,106.14500 10.690000,106.16700 C 11.039000,106.16200 11.345000,106.00100 11.561000,105.75800 C 11.682000,105.82400 11.794000,105.90200 11.923000,105.95600 C 12.410000,106.17300 12.949000,106.03300 13.286000,105.66100 C 13.554000,105.86100 13.828000,106.05100 14.102000,106.22800 C 14.597000,106.53800 15.216000,106.42100 15.600000,106.00900 C 16.029000,106.16300 16.527000,106.06900 16.868000,105.72100 C 16.916000,105.67100 16.938000,105.60800 16.976000,105.55200 C 17.265000,105.82000 17.663000,105.95700 18.072000,105.85200 C 18.613000,105.71400 18.955000,105.22700 18.959000,104.69400 C 18.982000,104.73200 19.010000,104.76600 19.032000,104.80400 C 19.344000,105.39100 20.070000,105.61000 20.657000,105.30400 C 20.945000,105.15100 21.141000,104.89700 21.233000,104.61100 C 21.243000,104.62100 21.254000,104.63100 21.264000,104.64100 C 21.758000,105.07900 22.514000,105.03500 22.958000,104.53500 C 22.996000,104.49300 23.009000,104.43900 23.040000,104.39300 C 23.224000,104.54900 23.388000,104.71400 23.583000,104.86600 C 23.727000,104.97800 23.945000,104.99100 24.133000,105.04100 C 24.666000,105.17000 25.186000,104.91200 25.447000,104.45800 C 25.612000,104.57900 25.777000,104.70000 25.945000,104.81600 C 26.476000,105.21600 27.226000,105.10400 27.626000,104.57200 C 27.677000,104.50300 27.697000,104.42400 27.731000,104.34900 C 27.969000,104.46700 28.212000,104.57500 28.463000,104.66500 C 29.057000,104.95900 29.775000,104.71500 30.069000,104.12100 C 30.312000,103.63000 30.172000,103.06600 29.784000,102.71500 C 29.835000,102.70900 29.887000,102.70900 29.937000,102.70200 C 30.600000,102.64600 31.087000,102.05800 31.031000,101.40200 C 31.011000,101.19400 30.928000,101.01400 30.820000,100.85200 C 31.421000,100.66100 31.781000,100.04000 31.631000,99.427000 C 31.616000,99.369000 31.579000,99.326000 31.557000,99.273000 C 31.910000,99.015000 32.119000,98.580000 32.043000,98.121000 C 32.036000,98.080000 32.012000,98.049000 32.001000,98.010000 C 32.117000,97.964000 32.223000,97.901000 32.318000,97.823000 C 32.728000,97.898000 33.144000,97.740000 33.427000,97.417000 C 33.630000,97.429000 33.835000,97.408000 34.030000,97.310000 C 34.114000,97.268000 34.174000,97.202000 34.243000,97.144000 C 34.429000,97.205000 34.625000,97.237000 34.830000,97.197000 C 34.921000,97.180000 34.996000,97.133000 35.077000,97.098000 C 35.250000,97.706000 35.860000,98.079000 36.480000,97.941000 C 36.598000,97.915000 36.696000,97.857000 36.796000,97.801000 C 36.949000,97.878000 37.116000,97.930000 37.299000,97.935000 C 37.449000,97.938000 37.591000,97.906000 37.725000,97.858000 C 37.725000,97.867000 37.724000,97.877000 37.724000,97.885000 C 37.706000,98.527000 38.201000,99.052000 38.834000,99.103000 C 38.833000,99.130000 38.831000,99.158000 38.830000,99.186000 C 38.805000,99.848000 39.317000,100.40500 39.980000,100.43000 C 39.996000,100.43000 40.009000,100.42300 40.025000,100.42200 C 40.022000,101.04400 40.496000,101.53800 41.102000,101.60000 C 41.112000,101.73700 41.109000,101.87400 41.123000,102.01100 C 41.161000,102.67400 41.729000,103.18000 42.392000,103.13600 C 42.676000,103.12000 42.918000,102.99100 43.113000,102.81300 C 43.159000,102.99000 43.201000,103.16700 43.254000,103.34200 C 43.473000,103.96700 44.160000,104.29200 44.785000,104.06700 C 45.086000,103.96200 45.312000,103.74400 45.447000,103.48100 C 45.721000,103.83200 46.007000,104.17200 46.304000,104.50500 C 46.779000,104.96200 47.541000,104.94900 47.997000,104.47400 C 48.057000,104.41200 48.087000,104.33600 48.131000,104.26600 C 48.214000,104.36200 48.299000,104.45700 48.379000,104.55600 C 48.835000,105.03100 49.598000,105.05000 50.073000,104.59400 C 50.144000,104.52600 50.184000,104.44100 50.234000,104.36200 C 50.403000,104.49600 50.576000,104.62500 50.760000,104.73800 C 51.304000,105.11900 52.054000,104.98800 52.435000,104.44400 C 52.532000,104.30700 52.594000,104.15600 52.626000,104.00300 C 52.781000,104.09300 52.926000,104.20100 53.084000,104.28200 C 53.473000,104.45800 53.895000,104.39400 54.227000,104.18100 C 54.430000,104.37900 54.629000,104.57900 54.834000,104.77500 C 55.315000,105.23100 56.072000,105.20600 56.528000,104.72500 C 56.570000,104.68000 56.589000,104.62400 56.623000,104.57500 C 56.834000,104.70300 57.045000,104.83100 57.291000,104.91900 C 57.711000,105.03900 58.133000,104.90300 58.432000,104.62400 C 58.494000,104.67800 58.546000,104.74200 58.610000,104.79400 C 59.135000,105.20000 59.885000,105.10600 60.291000,104.58200 C 60.324000,104.53900 60.334000,104.48700 60.360000,104.44100 C 60.487000,104.53000 60.611000,104.62400 60.747000,104.70000 C 61.181000,104.95800 61.710000,104.90600 62.088000,104.61600 C 62.129000,104.64300 62.161000,104.68100 62.203000,104.70700 C 62.759000,105.06900 63.503000,104.90700 63.859000,104.35100 C 63.864000,104.34300 63.864000,104.33300 63.869000,104.32500 C 64.119000,104.54700 64.369000,104.76700 64.615000,104.99500 C 65.083000,105.46400 65.840000,105.46400 66.308000,104.99500 C 66.393000,104.91000 66.445000,104.80800 66.498000,104.70800 C 66.747000,104.73800 66.994000,104.70100 67.218000,104.57800 C 67.657000,105.02000 68.357000,105.06700 68.837000,104.66500 C 69.231000,104.97900 69.788000,105.03400 70.233000,104.73800 C 70.388000,104.63700 70.503000,104.50400 70.592000,104.35600 C 71.074000,104.76200 71.787000,104.73200 72.227000,104.26900 C 72.688000,103.79300 72.670000,103.03100 72.188000,102.57400 z "
       style="fill:#bfa794;stroke:#000000;stroke-width:0.50000000" /><g
       id="g55"
       transform="translate(1.292056e-21,6.000000)">
			<line
   id="line57"
   y2="81.904999"
   x2="30.737000"
   y1="81.904999"
   x1="42.737000"
   style="fill:none;stroke:#000000" />
			<path
   id="path59"
   d="M 27.116000,81.905000 C 28.820000,82.537000 30.934000,83.616000 32.244000,84.758000 L 31.212000,81.905000 L 32.244000,79.052000 C 30.934000,80.194000 28.819000,81.273000 27.116000,81.905000 z " />
		</g><g
       id="g73"
       transform="translate(1.292056e-21,6.000000)">
			<line
   id="line75"
   y2="78.605003"
   x2="142.99001"
   y1="78.605003"
   x1="130.99001"
   style="fill:none;stroke:#000000" />
			<path
   id="path77"
   d="M 146.61100,78.605000 C 144.90700,79.237000 142.79300,80.316000 141.48300,81.458000 L 142.51500,78.605000 L 141.48300,75.752000 C 142.79300,76.895000 144.90800,77.973000 146.61100,78.605000 z " />
		</g><g
       id="g85"
       transform="translate(1.292056e-21,6.000000)">
			<line
   id="line87"
   y2="93.754997"
   x2="87.436996"
   y1="93.754997"
   x1="110.23600"
   style="fill:none;stroke:#000000" />
			<path
   id="path89"
   d="M 83.815000,93.755000 C 85.519000,94.387000 87.633000,95.466000 88.943000,96.608000 L 87.911000,93.755000 L 88.943000,90.902000 C 87.633000,92.044000 85.519000,93.124000 83.815000,93.755000 z " />
		</g></g></g><line
   id="line7"
   y2="155.44026"
   x2="51.808998"
   y1="-10.381262"
   x1="51.808998"
   style="fill:none;stroke:#000000;stroke-width:0.55056995;stroke-dasharray:2.2022798 " /><line
   id="line31"
   y2="156.01378"
   x2="100.65100"
   y1="-9.8065329"
   x1="100.65100"
   style="fill:none;stroke:#000000;stroke-width:0.55056995;stroke-dasharray:2.2022798 " />
<text
   xml:space="preserve"
   style="font-size:11.000000px;font-style:normal;font-variant:normal;font-weight:normal;font-stretch:normal;line-height:100.00000%;writing-mode:lr-tb;text-anchor:start;fill:#000000;fill-opacity:1.0000000;stroke:none;stroke-width:1.0000000pt;stroke-linecap:butt;stroke-linejoin:miter;stroke-opacity:1.0000000;font-family:Liberation Sans"
   x="-29.291079"
   y="-14.553193"
   id="text1412"
   sodipodi:linespacing="100.00000%"><tspan
     sodipodi:role="line"
     id="tspan1414"
     x="-29.291079"
     y="-14.553193">1</tspan></text>
<text
   xml:space="preserve"
   style="font-size:11.000000px;font-style:normal;font-variant:normal;font-weight:normal;font-stretch:normal;line-height:100.00000%;writing-mode:lr-tb;text-anchor:start;fill:#000000;fill-opacity:1.0000000;stroke:none;stroke-width:1.0000000pt;stroke-linecap:butt;stroke-linejoin:miter;stroke-opacity:1.0000000;font-family:Liberation Sans"
   x="-29.046694"
   y="36.636238"
   id="text1416"
   sodipodi:linespacing="100.00000%"><tspan
     sodipodi:role="line"
     id="tspan1418"
     x="-29.046694"
     y="36.636238">2</tspan></text>
<text
   xml:space="preserve"
   style="font-size:11.000000px;font-style:normal;font-variant:normal;font-weight:normal;font-stretch:normal;line-height:100.00000%;writing-mode:lr-tb;text-anchor:start;fill:#000000;fill-opacity:1.0000000;stroke:none;stroke-width:1.0000000pt;stroke-linecap:butt;stroke-linejoin:miter;stroke-opacity:1.0000000;font-family:Liberation Sans"
   x="-29.172915"
   y="87.825668"
   id="text1420"
   sodipodi:linespacing="100.00000%"><tspan
     sodipodi:role="line"
     id="tspan1422"
     x="-29.172915"
     y="87.825668">3</tspan></text>
<text
   xml:space="preserve"
   style="font-size:11.000000px;font-style:normal;font-variant:normal;font-weight:normal;font-stretch:normal;line-height:100.00000%;writing-mode:lr-tb;text-anchor:start;fill:#000000;fill-opacity:1.0000000;stroke:none;stroke-width:1.0000000pt;stroke-linecap:butt;stroke-linejoin:miter;stroke-opacity:1.0000000;font-family:Liberation Sans"
   x="-29.154116"
   y="139.02585"
   id="text1424"
   sodipodi:linespacing="100.00000%"><tspan
     sodipodi:role="line"
     id="tspan1426"
     x="-29.154116"
     y="139.02585">4</tspan></text>
</svg>