<?xml version="1.0" encoding="UTF-8" standalone="no"?>
<!-- Generator: Adobe Illustrator 11 Build 196, SVG Export Plug-In . SVG Version: 6.0.0 Build 78)  -->
<svg
   xmlns:a="http://ns.adobe.com/AdobeSVGViewerExtensions/3.0/"
   xmlns:dc="http://purl.org/dc/elements/1.1/"
   xmlns:cc="http://web.resource.org/cc/"
   xmlns:rdf="http://www.w3.org/1999/02/22-rdf-syntax-ns#"
   xmlns:svg="http://www.w3.org/2000/svg"
   xmlns="http://www.w3.org/2000/svg"
   xmlns:xlink="http://www.w3.org/1999/xlink"
   xmlns:sodipodi="http://inkscape.sourceforge.net/DTD/sodipodi-0.dtd"
   xmlns:inkscape="http://www.inkscape.org/namespaces/inkscape"
   width="158.042"
   height="226.915"
   viewBox="0 0 158.042 226.915"
   style="overflow:visible;enable-background:new 0 0 158.042 226.915"
   xml:space="preserve"
   id="svg2"
   sodipodi:version="0.32"
   sodipodi:docname="shakuhachi.svg"
   sodipodi:docbase="/home/bcrowell/Documents/writing/books/physics/9share/waves"><metadata
   id="metadata90"><rdf:RDF><cc:Work
       rdf:about=""><dc:format>image/svg+xml</dc:format><dc:type
         rdf:resource="http://purl.org/dc/dcmitype/StillImage" /></cc:Work></rdf:RDF></metadata><defs
   id="defs88">
		
			<radialGradient
   gradientUnits="userSpaceOnUse"
   fy="94.7769"
   fx="79.0273"
   r="105.7503"
   cy="94.7769"
   cx="79.0273"
   id="XMLID_31_">
			<stop
   id="stop6"
   style="stop-color:#FFFFFF"
   offset="0" />
			<stop
   id="stop8"
   style="stop-color:#000000"
   offset="0.09" />
			<stop
   id="stop10"
   style="stop-color:#FFFFFF"
   offset="0.18" />
			<stop
   id="stop12"
   style="stop-color:#393939"
   offset="0.27" />
			<stop
   id="stop14"
   style="stop-color:#F2F2F2"
   offset="0.36" />
			<stop
   id="stop16"
   style="stop-color:#626262;stop-opacity:0.75257730;"
   offset="0.44999999" />
			<stop
   id="stop18"
   style="stop-color:#e4e4e4;stop-opacity:0.74226803;"
   offset="0.54000002" />
			<stop
   id="stop20"
   style="stop-color:#7f7f7f;stop-opacity:0.74117649;"
   offset="0.63999999" />
			<stop
   id="stop22"
   style="stop-color:#d5d5d5;stop-opacity:0.74117649;"
   offset="0.74000001" />
			<stop
   id="stop24"
   style="stop-color:#000000"
   offset="0.83" />
			<stop
   id="stop26"
   style="stop-color:#FFFFFF"
   offset="0.91" />
			<stop
   id="stop28"
   style="stop-color:#000000"
   offset="1" />
			<midPointStop
   style="stop-color:#FFFFFF"
   offset="0" />
			<midPointStop
   style="stop-color:#FFFFFF"
   offset="0.5" />
			<midPointStop
   style="stop-color:#000000"
   offset="0.09" />
			<midPointStop
   style="stop-color:#000000"
   offset="0.5" />
			<midPointStop
   style="stop-color:#FFFFFF"
   offset="0.18" />
			<midPointStop
   style="stop-color:#FFFFFF"
   offset="0.5" />
			<midPointStop
   style="stop-color:#393939"
   offset="0.27" />
			<midPointStop
   style="stop-color:#393939"
   offset="0.5" />
			<midPointStop
   style="stop-color:#F2F2F2"
   offset="0.36" />
			<midPointStop
   style="stop-color:#F2F2F2"
   offset="0.5" />
			<midPointStop
   style="stop-color:#626262"
   offset="0.45" />
			<midPointStop
   style="stop-color:#626262"
   offset="0.5" />
			<midPointStop
   style="stop-color:#E4E4E4"
   offset="0.54" />
			<midPointStop
   style="stop-color:#E4E4E4"
   offset="0.5" />
			<midPointStop
   style="stop-color:#7F7F7F"
   offset="0.64" />
			<midPointStop
   style="stop-color:#7F7F7F"
   offset="0.5" />
			<midPointStop
   style="stop-color:#D5D5D5"
   offset="0.74" />
			<midPointStop
   style="stop-color:#D5D5D5"
   offset="0.5" />
			<midPointStop
   style="stop-color:#000000"
   offset="0.83" />
			<midPointStop
   style="stop-color:#000000"
   offset="0.5" />
			<midPointStop
   style="stop-color:#FFFFFF"
   offset="0.91" />
			<midPointStop
   style="stop-color:#FFFFFF"
   offset="0.5" />
			<midPointStop
   style="stop-color:#000000"
   offset="1" />
		</radialGradient>
		
		
			<linearGradient
   gradientTransform="matrix(0.627000,0.000000,0.000000,0.627000,38.85030,88.09330)"
   y2="8.0596"
   x2="62.5371"
   y1="219.0142"
   x1="62.5371"
   gradientUnits="userSpaceOnUse"
   id="XMLID_32_">
			<stop
   id="stop33"
   style="stop-color:#FFFFFF"
   offset="0" />
			<stop
   id="stop35"
   style="stop-color:#000000"
   offset="0.09" />
			<stop
   id="stop37"
   style="stop-color:#FFFFFF"
   offset="0.18" />
			<stop
   id="stop39"
   style="stop-color:#000000"
   offset="0.27" />
			<stop
   id="stop41"
   style="stop-color:#FFFFFF"
   offset="0.36" />
			<stop
   id="stop43"
   style="stop-color:#000000"
   offset="0.45" />
			<stop
   id="stop45"
   style="stop-color:#FFFFFF"
   offset="0.54" />
			<stop
   id="stop47"
   style="stop-color:#000000"
   offset="0.64" />
			<stop
   id="stop49"
   style="stop-color:#FFFFFF"
   offset="0.74" />
			<stop
   id="stop51"
   style="stop-color:#000000"
   offset="0.83" />
			<stop
   id="stop53"
   style="stop-color:#FFFFFF"
   offset="0.91" />
			<stop
   id="stop55"
   style="stop-color:#000000"
   offset="1" />
			<midPointStop
   style="stop-color:#FFFFFF"
   offset="0" />
			<midPointStop
   style="stop-color:#FFFFFF"
   offset="0.5" />
			<midPointStop
   style="stop-color:#000000"
   offset="0.09" />
			<midPointStop
   style="stop-color:#000000"
   offset="0.5" />
			<midPointStop
   style="stop-color:#FFFFFF"
   offset="0.18" />
			<midPointStop
   style="stop-color:#FFFFFF"
   offset="0.5" />
			<midPointStop
   style="stop-color:#000000"
   offset="0.27" />
			<midPointStop
   style="stop-color:#000000"
   offset="0.5" />
			<midPointStop
   style="stop-color:#FFFFFF"
   offset="0.36" />
			<midPointStop
   style="stop-color:#FFFFFF"
   offset="0.5" />
			<midPointStop
   style="stop-color:#000000"
   offset="0.45" />
			<midPointStop
   style="stop-color:#000000"
   offset="0.5" />
			<midPointStop
   style="stop-color:#FFFFFF"
   offset="0.54" />
			<midPointStop
   style="stop-color:#FFFFFF"
   offset="0.5" />
			<midPointStop
   style="stop-color:#000000"
   offset="0.64" />
			<midPointStop
   style="stop-color:#000000"
   offset="0.5" />
			<midPointStop
   style="stop-color:#FFFFFF"
   offset="0.74" />
			<midPointStop
   style="stop-color:#FFFFFF"
   offset="0.5" />
			<midPointStop
   style="stop-color:#000000"
   offset="0.83" />
			<midPointStop
   style="stop-color:#000000"
   offset="0.5" />
			<midPointStop
   style="stop-color:#FFFFFF"
   offset="0.91" />
			<midPointStop
   style="stop-color:#FFFFFF"
   offset="0.5" />
			<midPointStop
   style="stop-color:#000000"
   offset="1" />
		</linearGradient>
		
		
	
			
			 
		
				
				
			
					
					
					
					
					
						 
					
					
				<linearGradient
   inkscape:collect="always"
   xlink:href="#XMLID_32_"
   id="linearGradient2257"
   gradientUnits="userSpaceOnUse"
   gradientTransform="matrix(0.817277,-0.576244,0.576244,0.817277,41.37385,-62.19520)"
   x1="-75.460686"
   y1="-42.871120"
   x2="-75.460686"
   y2="-151.79782" /><radialGradient
   inkscape:collect="always"
   xlink:href="#XMLID_31_"
   id="radialGradient2266"
   gradientUnits="userSpaceOnUse"
   gradientTransform="matrix(-0.820968,0.570974,-0.570974,-0.820968,51.93921,24.20680)"
   cx="79.027298"
   cy="94.776901"
   fx="79.027298"
   fy="94.776901"
   r="105.75030" /></defs><sodipodi:namedview
   inkscape:cy="178.36072"
   inkscape:cx="-58.310235"
   inkscape:zoom="1.0847392"
   inkscape:window-height="996"
   inkscape:window-width="1278"
   inkscape:pageshadow="2"
   inkscape:pageopacity="0.0"
   borderopacity="1.0"
   bordercolor="#666666"
   pagecolor="#ffffff"
   id="base"
   inkscape:window-x="0"
   inkscape:window-y="0"
   inkscape:current-layer="svg2" />
	
<rect
   style="fill:#dedede;fill-opacity:1.0000000;fill-rule:evenodd;stroke:none;stroke-width:1.0000000pt;stroke-linecap:butt;stroke-linejoin:miter;stroke-opacity:1.0000000"
   id="rect4447"
   width="211.34756"
   height="204.08069"
   x="-196.44878"
   y="-150.14641" /><g
   id="g2162"
   style="fill:none;fill-opacity:1.0000000;stroke-width:2.1116308;stroke-miterlimit:4.0000000;stroke-dasharray:none"
   transform="matrix(-0.392313,0.000000,0.000000,0.392313,-93.39390,-131.6559)">
					<rect
   id="rect2164"
   height="74.750000"
   width="57.028000"
   style="fill:none;fill-opacity:1.0000000;stroke-width:2.1116308;stroke-miterlimit:4.0000000;stroke-dasharray:none"
   y="23.027000"
   x="101.01300" /> 
					<path
   id="path2166"
   d="M 100.04200,87.290000 L 91.225000,82.572000 C 91.225000,82.572000 89.097000,81.887000 88.565000,80.620000 C 87.398000,77.836000 89.127000,71.091000 90.851000,69.141000 L 92.677000,69.093000 C 92.677000,69.093000 86.012000,67.418000 84.822000,66.251000 L 86.124000,65.946000 C 86.124000,65.946000 83.589000,67.009000 82.069000,65.894000 C 77.889000,62.826000 83.747000,54.845000 85.750000,52.515000 C 87.753000,50.185000 93.128000,45.650000 94.270000,42.103000 C 95.412000,38.556000 95.944000,39.823000 94.325000,33.664000 C 92.706000,27.505000 96.922000,6.6240000 98.267000,0.010000000 L 116.70400,10.102000 L 106.54500,114.28400 C 106.54500,114.28400 101.95900,112.96500 100.08500,109.54200 C 98.211000,106.12000 99.860000,101.48300 99.963000,97.758000 C 100.06600,94.032000 93.579000,91.318000 92.947000,89.392000 C 92.314000,87.466000 94.546000,84.425000 94.546000,84.425000"
   style="fill:none;fill-opacity:1.0000000;stroke-width:2.1116308;stroke-miterlimit:4.0000000;stroke-dasharray:none" />
				</g><path
   style="fill:none;fill-opacity:1.0000000;stroke:#000000;stroke-width:0.32500002;stroke-miterlimit:4.0000000;stroke-dasharray:none"
   d="M -132.02575,-131.64414 C -131.49770,-129.04938 -129.84370,-120.85749 -130.47886,-118.44163 C -131.11401,-116.02537 -130.90530,-116.52243 -130.45767,-115.13090 C -130.00965,-113.73936 -127.90097,-111.96022 -127.11517,-111.04613 C -126.32936,-110.13205 -123.98031,-106.92840 -125.67106,-105.79738 C -125.74599,-105.74726 -126.88756,-105.61655 -126.88756,-105.61655"
   id="path2170"
   sodipodi:nodetypes="cssssc" /><path
   style="fill:none;fill-opacity:1.0000000;stroke:#000000;stroke-width:0.32500002;stroke-miterlimit:4.0000000;stroke-dasharray:none"
   d="M -126.75110,-105.65693 C -127.21795,-105.19910 -129.83272,-104.54198 -129.83272,-104.54198"
   id="path2172" /><path
   style="fill:none;fill-opacity:1.0000000;stroke:#000000;stroke-width:0.32500002;stroke-miterlimit:4.0000000;stroke-dasharray:none"
   d="M -129.11636,-104.52275 C -128.44001,-103.75735 -127.76131,-101.11120 -128.21953,-100.01939 C -128.42824,-99.522333 -129.26308,-99.253598 -129.26308,-99.253598 L -132.72210,-97.402665"
   id="path2174" /><path
   style="fill:none;fill-opacity:1.0000000;stroke:#000000;stroke-width:0.32500002;stroke-miterlimit:4.0000000;stroke-dasharray:none"
   d="M -130.56517,-98.527034 C -130.56517,-98.527034 -129.68992,-97.334011 -129.93786,-96.578416 C -130.18580,-95.822821 -132.73074,-94.757691 -132.69033,-93.296325 C -132.64992,-91.834961 -132.00299,-90.015806 -132.73819,-88.673310 C -133.47338,-87.330815 -135.27253,-86.812962 -135.27253,-86.812962"
   id="path2176" /><ellipse
   transform="matrix(-5.947465e-2,0.387762,0.387762,5.947465e-2,-146.3253,-154.9744)"
   style="fill:none;fill-opacity:1.0000000;stroke:#000000;stroke-width:0.80275169;stroke-miterlimit:4.0000000;stroke-dasharray:none"
   cx="102.08700"
   cy="48.880001"
   rx="13.906000"
   ry="3.0639999"
   id="ellipse2178"
   sodipodi:cx="102.08700"
   sodipodi:cy="48.880001"
   sodipodi:rx="13.906000"
   sodipodi:ry="3.0639999" /><path
   style="fill:none;fill-opacity:1.0000000;stroke:#000000;stroke-width:0.32500002;stroke-miterlimit:4.0000000;stroke-dasharray:none"
   d="M -129.77466,-114.23054 C -129.28858,-116.35884 -128.60360,-117.84413 -128.07712,-117.76332 C -127.42078,-117.66289 -127.25915,-115.16660 -127.71619,-112.18855 C -127.73581,-112.06066 -127.75621,-111.93433 -127.77739,-111.80918"
   id="path2180" /><line
   style="fill:none;fill-opacity:1.0000000;stroke:#000000;stroke-width:0.32500002;stroke-miterlimit:4.0000000;stroke-dasharray:none"
   x1="-134.26546"
   y1="-115.31803"
   x2="-151.50526"
   y2="-115.05204"
   id="line2182" /><rect
   x="134.98967"
   y="-95.062126"
   style="fill:none;fill-opacity:1.0000000;stroke-width:0.32500002;stroke-miterlimit:4.0000000;stroke-dasharray:none"
   width="18.585829"
   height="6.6693211"
   id="rect2184"
   transform="scale(-1.000000,1.000000)" /><path
   style="fill:none;fill-opacity:0.75000000;fill-rule:evenodd;stroke:#000000;stroke-width:0.25000000pt;stroke-linecap:butt;stroke-linejoin:miter;stroke-opacity:1.0000000"
   d="M -176.61589,7.5975786 C -180.97319,-10.122107 -183.87806,-21.741573 -185.04000,-39.461259 C -186.20195,-57.180944 -187.65438,-66.476517 -183.58757,-72.867224 C -179.52076,-79.257930 -176.61589,-82.162796 -174.00151,-84.486690 C -171.38713,-86.810583 -169.64421,-90.296423 -169.64421,-90.296423 C -169.64421,-90.296423 -163.83448,-87.682043 -160.34864,-85.648636 C -156.86280,-83.615230 -149.31014,-79.548417 -147.56722,-78.676957 C -145.82430,-77.805497 -141.46701,-77.224523 -141.46701,-77.224523 C -141.46701,-77.224523 -133.62387,-66.186031 -131.59046,-63.571651 C -129.55705,-60.957271 -125.19975,-44.690019 -124.32829,-42.366125 C -123.45683,-40.042232 -122.58537,-31.618119 -122.58537,-31.618119"
   id="path2134" /><path
   style="fill:none;fill-opacity:0.75000000;fill-rule:evenodd;stroke:#000000;stroke-width:0.25000000pt;stroke-linecap:butt;stroke-linejoin:miter;stroke-opacity:1.0000000"
   d="M -121.71391,-7.5077272 L -120.55197,7.5975786 C -120.55197,7.5975786 -142.91944,16.021692 -146.98625,16.893151 C -151.05306,17.764611 -171.09664,15.731205 -174.00151,15.731205 C -176.90638,15.731205 -176.90638,11.664392 -176.90638,11.664392"
   id="path2136" /><path
   style="fill:none;fill-opacity:0.75000000;fill-rule:evenodd;stroke:#000000;stroke-width:0.25000000pt;stroke-linecap:butt;stroke-linejoin:miter;stroke-opacity:1.0000000"
   d="M -121.13294,9.0500119 C -111.83737,12.535852 -88.307948,25.898238 -84.822108,28.512617 C -81.336268,31.126997 -77.850428,32.579431 -76.978969,36.646244 C -76.107509,40.713057 -76.978969,44.198897 -76.978969,44.198897"
   id="path2138" /><path
   style="fill:none;fill-opacity:0.75000000;fill-rule:evenodd;stroke:#000000;stroke-width:0.25000000pt;stroke-linecap:butt;stroke-linejoin:miter;stroke-opacity:1.0000000"
   d="M -128.39511,17.764611 C -117.93759,22.121911 -98.765467,33.741377 -94.408168,35.484297 C -90.050868,37.227217 -80.755295,43.036950 -79.593348,44.489383 C -78.431402,45.941817 -75.817022,49.137170 -75.817022,51.170576 C -75.817022,53.203983 -75.817022,53.203983 -75.817022,53.203983"
   id="path2140" /><path
   style="fill:none;fill-opacity:0.75000000;fill-rule:evenodd;stroke:#000000;stroke-width:0.25000000pt;stroke-linecap:butt;stroke-linejoin:miter;stroke-opacity:1.0000000"
   d="M -178.35881,19.798018 C -177.19686,28.512617 -174.87297,32.869917 -174.29200,34.612837 C -173.71102,36.355757 -172.25859,38.679650 -168.77275,41.584517 C -165.28691,44.489383 -158.60572,46.232303 -158.60572,46.232303"
   id="path2142" /><path
   style="fill:none;fill-opacity:0.75000000;fill-rule:evenodd;stroke:#000000;stroke-width:0.25000000pt;stroke-linecap:butt;stroke-linejoin:miter;stroke-opacity:1.0000000"
   d="M -147.56722,-66.186031 C -146.40528,-54.276078 -146.69576,-39.461259 -143.79090,-36.846879 C -140.88603,-34.232499 -138.27165,-28.713253 -138.27165,-28.713253 C -138.27165,-28.713253 -129.26657,-27.841793 -127.23316,-27.551306 C -125.19975,-27.260819 -100.79887,-30.165686 -100.79887,-30.165686 C -100.79887,-30.165686 -99.055954,-30.456173 -97.894007,-27.551306 C -96.732061,-24.646440 -97.022547,-17.965247 -97.022547,-17.965247 L -106.60861,-14.479407 L -122.87586,-8.9601605 C -122.87586,-8.9601605 -140.30506,-8.0887005 -142.33846,-7.7982139 C -144.37187,-7.5077272 -152.50550,-9.5411338 -154.53890,-11.865027 C -156.57231,-14.188920 -165.28691,-25.517900 -165.28691,-25.517900 L -174.00151,-47.594885"
   id="path2144" /><path
   style="fill:none;fill-opacity:0.75000000;fill-rule:evenodd;stroke:#000000;stroke-width:0.25000000pt;stroke-linecap:butt;stroke-linejoin:miter;stroke-opacity:1.0000000"
   d="M -82.394970,-38.128520 C -81.321919,-37.362055 -80.938687,-35.829126 -81.781798,-35.292600 C -82.624909,-34.756075 -85.920708,-31.690216 -85.920708,-31.690216"
   id="path2148" /><path
   style="fill:none;fill-opacity:0.75000000;fill-rule:evenodd;stroke:#000000;stroke-width:0.25000000pt;stroke-linecap:butt;stroke-linejoin:miter;stroke-opacity:1.0000000"
   d="M -80.862040,-35.369247 C -79.635696,-34.066257 -80.095575,-33.453085 -80.862040,-32.609974 C -81.628505,-31.766862 -84.081192,-30.233933 -84.081192,-30.233933"
   id="path2150" /><path
   style="fill:none;fill-opacity:0.75000000;fill-rule:evenodd;stroke:#000000;stroke-width:0.25000000pt;stroke-linecap:butt;stroke-linejoin:miter;stroke-opacity:1.0000000"
   d="M -123.93736,-43.417127 L -112.21045,-48.475795 C -112.21045,-48.475795 -113.05356,-46.329693 -110.90746,-43.493773 C -108.76136,-40.657854 -106.46196,-37.745288 -106.46196,-37.745288 L -105.46556,-36.595590 L -110.60087,-29.620761"
   id="path2154" /><path
   style="fill:none;fill-opacity:0.75000000;fill-rule:evenodd;stroke:#000000;stroke-width:0.25000000pt;stroke-linecap:butt;stroke-linejoin:miter;stroke-opacity:1.0000000"
   d="M -111.67392,-49.165613 C -109.60447,-52.078179 -108.68471,-54.147634 -108.14819,-54.300927 C -107.61166,-54.454220 -106.61526,-56.140442 -106.61526,-56.140442"
   id="path2156" /><path
   style="fill:none;fill-opacity:0.75000000;fill-rule:evenodd;stroke:#000000;stroke-width:0.25000000pt;stroke-linecap:butt;stroke-linejoin:miter;stroke-opacity:1.0000000"
   d="M -104.31586,-37.898581 C -99.027255,-41.347672 -95.961396,-44.106945 -94.811699,-44.796764 C -93.662002,-45.486582 -92.359012,-47.019511 -93.815295,-47.019511 C -95.271578,-47.019511 -98.184144,-46.176400 -98.184144,-46.176400"
   id="path2158" /><path
   style="fill:none;fill-opacity:0.75000000;fill-rule:evenodd;stroke:#000000;stroke-width:0.33474232;stroke-linecap:butt;stroke-linejoin:miter;stroke-opacity:1.0000000;stroke-miterlimit:4.0000000;stroke-dasharray:none"
   d="M -132.58698,-133.80230 C -139.51602,-139.51544 -146.44506,-142.46415 -151.25689,-141.35838 C -156.06872,-140.25261 -163.28646,-137.85678 -165.11496,-135.55310 C -166.94346,-133.24941 -171.56281,-127.07554 -170.69669,-121.45455 C -169.83056,-115.83356 -168.38701,-112.33196 -167.52088,-109.19896 C -166.65475,-106.06594 -166.26980,-101.18213 -166.46228,-99.615629 C -166.65475,-98.049124 -168.19453,-93.533904 -168.19453,-93.533904"
   id="path2162" /><g
   id="g2251"
   transform="translate(-22.65837,45.78012)"><path
     id="path2225"
     d="M -106.83514,-143.24110 L -102.19472,-141.10008 L -43.177842,-59.231844 L -40.083780,-57.701603 L -50.239790,-50.247644 L -49.638439,-53.955148 L -110.83257,-139.51881 L -106.83514,-143.24110 z "
     style="fill:url(#linearGradient2257);fill-opacity:1.0000000;fill-rule:evenodd;stroke:#000000;stroke-width:0.0000000;stroke-linecap:butt;stroke-linejoin:miter;stroke-miterlimit:4.0000000;stroke-dasharray:none;stroke-opacity:1.0000000" /><g
     transform="translate(149.7378,-73.47957)"
     id="g2247"><path
       style="fill:none;fill-opacity:0.75000000;fill-rule:evenodd;stroke:#000000;stroke-width:0.87500006;stroke-linecap:butt;stroke-linejoin:miter;stroke-miterlimit:4.0000000;stroke-dasharray:none;stroke-opacity:1.0000000"
       d="M -256.25227,-69.473164 L -251.62121,-67.620738 L -192.65231,14.503483 L -189.56494,15.738433"
       id="path2243" /><path
       style="fill:none;fill-opacity:0.75000000;fill-rule:evenodd;stroke:#000000;stroke-width:0.87500006;stroke-linecap:butt;stroke-linejoin:miter;stroke-miterlimit:4.0000000;stroke-dasharray:none;stroke-opacity:1.0000000"
       d="M -260.57460,-65.459574 L -199.44454,19.752023 L -200.37075,23.148137"
       id="path2245" /></g></g><path
   style="fill:url(#radialGradient2266);overflow:visible;fill-opacity:1.0"
   d="M -2.4661879,-53.982496 L -129.34119,34.236254 C -123.74172,42.287381 -116.84904,48.895991 -109.18494,54.080004 L -22.591188,54.080004 C -22.325828,53.900216 -22.042575,53.763535 -21.778688,53.580004 C 13.258585,29.211970 21.901845,-18.945216 -2.4661879,-53.982496 z "
   id="path2259" /><path
   style="fill:none;fill-opacity:0.75000000;fill-rule:evenodd;stroke:#000000;stroke-width:0.25000000pt;stroke-linecap:butt;stroke-linejoin:miter;stroke-opacity:1.0000000"
   d="M -99.563781,-31.536923 C -92.435658,-35.215954 -88.526688,-38.665045 -88.526688,-38.665045 C -88.526688,-38.665045 -85.077596,-41.041086 -84.234485,-40.887793 C -83.391374,-40.734500 -82.701556,-39.124924 -82.931495,-38.665045 C -83.161434,-38.205167 -85.230889,-36.902176 -85.537475,-36.365651 C -85.844061,-35.829126 -88.143455,-34.296196 -88.143455,-34.296196"
   id="path2146" /><path
   style="fill:none;fill-opacity:0.75000000;fill-rule:evenodd;stroke:#000000;stroke-width:0.25000000pt;stroke-linecap:butt;stroke-linejoin:miter;stroke-opacity:1.0000000"
   d="M -80.018929,-32.609974 C -78.562646,-31.613569 -76.799777,-31.153691 -78.332706,-30.003993 C -79.865636,-28.854296 -83.468020,-26.784841 -83.468020,-26.784841 L -87.990163,-22.875871 C -87.990163,-22.875871 -92.359012,-19.273487 -93.125477,-19.273487 C -93.891941,-19.273487 -96.191336,-19.426779 -96.191336,-19.426779"
   id="path2152" /></svg>