<?xml version="1.0" encoding="iso-8859-1"?>
<!-- Generator: Adobe Illustrator 11 Build 196, SVG Export Plug-In . SVG Version: 6.0.0 Build 78)  -->
<!DOCTYPE svg PUBLIC "-//W3C//DTD SVG 1.0//EN"    "http://www.w3.org/TR/2001/REC-SVG-20010904/DTD/svg10.dtd" [
	<!ENTITY ns_flows "http://ns.adobe.com/Flows/1.0/">
	<!ENTITY ns_svg "http://www.w3.org/2000/svg">
	<!ENTITY ns_xlink "http://www.w3.org/1999/xlink">
]>
<svg
	 width="144.345" height="81.943" viewBox="0 0 144.345 81.943" style="overflow:visible;enable-background:new 0 0 144.345 81.943"
	 xml:space="preserve">
	<g id="Layer_1">
		<path style="fill:#FFFFFF;stroke:#000000;" d="M22.237,9.162c-0.023,0.06-0.037,0.12-0.059,0.179L1.444,63.508
			c-0.023,0.059-0.054,0.113-0.076,0.173c-2.583,6.747,0.793,14.311,7.541,16.894c6.747,2.583,14.311-0.793,16.894-7.541
			c0.022-0.059,0.037-0.12,0.058-0.179l20.735-54.167c0.024-0.059,0.054-0.113,0.077-0.173c2.583-6.747-0.793-14.311-7.541-16.894
			C32.384-0.961,24.82,2.415,22.237,9.162z"/>
		<circle style="fill:#7F7F7F;stroke:#000000;" cx="13.589" cy="68.354" r="13.082"/> 
		<polyline style="fill:#FFFFFF;stroke:#000000;" points="33.75,0.54 143.635,0.5 124.094,55.057 14.209,55.096 "/>
		<g>
			<line style="fill:#FFFFFF;stroke:#000000;" x1="51.922" y1="64.658" x2="80.589" y2="64.658"/>
			<path d="M84.21,64.658c-1.704,0.632-3.818,1.711-5.128,2.853l1.032-2.853l-1.032-2.853C80.392,62.947,82.506,64.026,84.21,64.658
				z"/>
		</g>
		<polygon style="fill:#7F7F7F;stroke:#000000;stroke-width:0.3;" points="54.472,23.616 54.838,23.573 54.642,21.917 2.673,28.077 
			2.869,29.732 52.011,23.908 53.839,27.512 "/>
		<path style="fill:none;stroke:#000000;stroke-width:0.6;" d="M53.839,28.075v4.25l2.5-0.75l4.5-7.25c0,0,3.75-4.5,4-3.75
			s4.75-0.75,4.75-0.75s1.75,9.5,1.75,10.25s3.5,5,3.5,5l5-4.25l3.25-5.25c0,0,6.5-7.5,7.25-7s7.5-0.5,9.5-6s4.75,12,4.25,13.75
			s6.75,12.5,6.75,12.5l6-9.25l7-3.75c0,0,4.75,3.5,5,6.25s2,4.5,2,4.5"/>
	</g>
</svg>
