<?xml version="1.0" encoding="UTF-8" standalone="no"?>
<!-- Created with Inkscape (http://www.inkscape.org/) -->
<svg
   xmlns:dc="http://purl.org/dc/elements/1.1/"
   xmlns:cc="http://creativecommons.org/ns#"
   xmlns:rdf="http://www.w3.org/1999/02/22-rdf-syntax-ns#"
   xmlns:svg="http://www.w3.org/2000/svg"
   xmlns="http://www.w3.org/2000/svg"
   xmlns:xlink="http://www.w3.org/1999/xlink"
   xmlns:sodipodi="http://sodipodi.sourceforge.net/DTD/sodipodi-0.dtd"
   xmlns:inkscape="http://www.inkscape.org/namespaces/inkscape"
   width="215.35646"
   height="160.45697"
   id="svg3361"
   sodipodi:version="0.32"
   version="1.0"
   sodipodi:docname="tympanogram.svg"
   inkscape:output_extension="org.inkscape.output.svg.inkscape">
  <defs
     id="defs3363">
    <inkscape:perspective
       sodipodi:type="inkscape:persp3d"
       inkscape:vp_x="0 : 526.18109 : 1"
       inkscape:vp_y="0 : 1000 : 0"
       inkscape:vp_z="744.09448 : 526.18109 : 1"
       inkscape:persp3d-origin="372.04724 : 350.78739 : 1"
       id="perspective3369" />
    <inkscape:perspective
       id="perspective2390"
       inkscape:vp_z="744.09448 : 526.18109 : 1"
       inkscape:vp_x="0 : 526.18109 : 1"
       sodipodi:type="inkscape:persp3d"
       inkscape:vp_y="0 : 1000 : 0"
       inkscape:persp3d-origin="372.04724 : 350.78739 : 1" />
    <inkscape:perspective
       id="perspective10"
       inkscape:vp_z="744.09448 : 526.18109 : 1"
       inkscape:vp_x="0 : 526.18109 : 1"
       sodipodi:type="inkscape:persp3d"
       inkscape:vp_y="0 : 1000 : 0"
       inkscape:persp3d-origin="372.04724 : 350.78739 : 1" />
    <linearGradient
       id="linearGradient3329"
       inkscape:collect="always">
      <stop
         id="stop3331"
         offset="0"
         style="stop-color: rgb(159, 232, 89); stop-opacity: 1;" />
      <stop
         id="stop3333"
         offset="1"
         style="stop-color: rgb(159, 232, 89); stop-opacity: 0;" />
    </linearGradient>
    <linearGradient
       id="linearGradient3353">
      <stop
         id="stop3355"
         offset="0"
         style="stop-color:#666666;stop-opacity:1;" />
      <stop
         id="stop3357"
         offset="1"
         style="stop-color:#666666;stop-opacity:0;" />
    </linearGradient>
    <linearGradient
       inkscape:collect="always"
       xlink:href="#linearGradient3329"
       id="linearGradient4037"
       gradientUnits="userSpaceOnUse"
       x1="321.73358"
       y1="313.69278"
       x2="188.89853"
       y2="316.35541"
       gradientTransform="translate(10.2503,3.72691)" />
    <linearGradient
       inkscape:collect="always"
       xlink:href="#linearGradient3353"
       id="linearGradient4045"
       gradientUnits="userSpaceOnUse"
       x1="509.62198"
       y1="324.29938"
       x2="637.40625"
       y2="450.56845"
       gradientTransform="matrix(0.293419,0,0,0.293419,29.470096,23.707026)" />
  </defs>
  <sodipodi:namedview
     id="base"
     pagecolor="#ffffff"
     bordercolor="#666666"
     borderopacity="1.0"
     gridtolerance="10000"
     guidetolerance="10"
     objecttolerance="10"
     inkscape:pageopacity="0.0"
     inkscape:pageshadow="2"
     inkscape:zoom="2.6597763"
     inkscape:cx="111.93243"
     inkscape:cy="45.378013"
     inkscape:document-units="mm"
     inkscape:current-layer="layer1"
     showgrid="false"
     inkscape:window-width="1278"
     inkscape:window-height="996"
     inkscape:window-x="3"
     inkscape:window-y="4" />
  <metadata
     id="metadata3366">
    <rdf:RDF>
      <cc:Work
         rdf:about="">
        <dc:format>image/svg+xml</dc:format>
        <dc:type
           rdf:resource="http://purl.org/dc/dcmitype/StillImage" />
      </cc:Work>
    </rdf:RDF>
  </metadata>
  <g
     inkscape:label="Ear"
     inkscape:groupmode="layer"
     id="layer1"
     transform="translate(-37.451421,-32.004085)">
    <path
       style="fill:url(#linearGradient4045);fill-opacity:1;stroke:none;stroke-width:2;stroke-linecap:butt;stroke-linejoin:round;stroke-miterlimit:4;stroke-dasharray:none;stroke-dashoffset:0;stroke-opacity:1"
       d="M 211.12497,157.83893 C 211.12497,157.83893 207.45705,149.46569 198.86151,140.94425 C 190.26597,132.42281 184.70851,129.45883 184.70851,129.45883 C 184.70851,129.45883 174.63098,130.86672 170.33321,127.01355 C 171.5188,124.71647 173.37129,118.56621 164.03476,108.11818 C 159.73698,104.93191 156.03201,103.44992 156.03201,103.44992 C 157.9586,102.93122 158.0327,101.52333 156.84711,99.819044 C 155.66152,98.114755 152.69753,92.631394 154.25362,91.371703 C 155.80971,90.112011 161.36717,87.889028 165.44264,89.371017 C 169.51812,90.853008 168.11023,93.372389 169.14762,94.55798 C 170.18501,95.743572 173.88999,98.337055 173.88999,98.337055 L 175.59427,101.81973 L 178.03956,102.04203 L 181.00354,100.18954 L 186.7092,101.81973 L 189.22858,103.82042 L 189.45088,105.5247 C 189.45088,105.5247 187.22789,106.0434 186.7092,105.8211 C 185.7459,107.30309 182.26323,109.08148 182.26323,109.08148 C 182.26323,109.08148 179.74384,113.45335 179.96614,115.08354 C 180.18844,116.71373 180.48484,123.60498 188.11708,125.16106 C 195.74933,126.71715 187.15379,122.49348 192.85945,128.71784 C 198.56511,134.9422 211.60662,145.98302 211.60662,145.98302 L 222.35104,159.09863 L 211.12497,157.83893 z"
       id="path2501"
       sodipodi:nodetypes="csccccsssscccccccccsssccc" />
    <path
       style="fill:#ffffff;fill-opacity:1"
       d="M 158.55338,90.500228 C 157.4687,91.235603 159.35898,92.970669 157.84734,93.269369 C 156.05579,94.388563 156.63418,96.82438 157.829,98.193306 C 158.16257,98.752023 159.28063,100.0269 157.97994,100.15837 C 156.57225,100.55759 157.68259,102.42697 158.86514,101.95274 C 159.9673,101.69531 159.94072,103.06906 159.43364,103.67657 C 158.91663,105.37048 161.33149,105.85854 162.20278,106.82166 C 163.39143,107.42795 163.45128,105.84216 163.68821,105.10699 C 164.35376,103.68996 166.22751,105.95411 166.73243,104.34593 C 167.02686,102.8456 165.45206,102.00997 164.17419,102.06277 C 163.22024,101.52005 164.69143,100.50439 164.88023,99.843788 C 166.00736,97.515068 163.62076,95.534229 162.02856,94.241319 C 160.72683,93.203749 160.33904,91.287691 158.98434,90.399365 C 158.83465,90.412542 158.65984,90.340678 158.55338,90.500228 z"
       id="path54" />
    <path
       d="M 224.447,159.82995 C 224.5585,159.82995 224.62012,159.87983 224.58198,159.93851 C 224.46167,160.13804 223.93352,160.05588 223.25866,159.73312 C 222.0527,159.16095 221.014,158.24255 218.91606,155.904 C 218.593,155.5431 217.57777,154.25499 216.65966,153.04023 C 213.06235,148.27804 212.1146,147.19826 209.57066,144.94158 C 208.84328,144.29635 208.0977,143.61532 207.91578,143.43076 C 207.73092,143.24591 206.24329,141.95487 204.60865,140.56113 C 200.63576,137.17801 196.59832,133.62764 195.45105,132.50678 C 194.63828,131.71748 189.99597,125.86251 189.99333,125.66299 C 189.99333,125.61311 190.30435,125.60724 190.68286,125.65125 C 191.18168,125.707 190.99724,125.10801 191.52498,125.94467 C 192.78374,127.72279 195.60392,131.23921 196.77759,132.31018 C 198.89021,134.24382 203.87511,138.6363 206.70073,141.05994 C 207.36709,141.6321 208.03901,142.23361 208.1913,142.39499 C 208.34124,142.55931 209.19479,143.31926 210.08679,144.08802 C 212.71905,146.35351 215.48863,149.56029 219.00966,154.4196 C 219.51463,155.11793 219.9574,155.71328 219.99554,155.74585 C 220.03369,155.77519 220.4034,156.23879 220.81712,156.77575 C 222.21115,158.57412 223.70172,159.82995 224.447,159.82995 z"
       id="path16"
       sodipodi:nodetypes="cscccssccsscccsccscc" />
    <path
       d="M 218.34095,149.88305 C 219.63787,151.59368 221.3485,154.4372 221.18389,154.60122 C 221.15455,154.62792 220.93742,154.41343 220.69681,154.12002 C 220.4565,153.82953 219.79308,152.96981 219.22385,152.21279 C 215.78205,147.62959 211.20471,142.97303 206.67139,139.44027 C 204.07463,137.41861 201.6862,135.27372 199.08357,132.62708 C 197.28814,130.80495 195.82956,129.02976 196.1262,129.02976 C 196.18166,129.02976 197.04461,129.78972 198.04194,130.71692 C 199.03956,131.64412 200.20737,132.6975 200.64163,133.06134 C 201.07296,133.42518 202.06471,134.29663 202.84814,135.00084 C 204.14828,136.17158 205.06375,136.9462 208.40285,139.71901 C 212.56647,143.17842 215.67084,146.35028 218.34095,149.88305 z"
       id="path20" />
    <path
       d="M 193.68496,66.320261 C 195.7565,65.979895 198.53224,65.985763 198.18601,66.331998 C 198.13026,66.387747 197.23533,66.607812 196.19369,66.822007 C 191.56941,67.775619 188.00143,69.175227 184.95281,71.235028 C 183.02211,72.540743 182.24719,73.174528 180.42829,74.935042 C 177.56423,77.704916 175.42227,79.233629 171.9925,80.95013 C 170.39894,81.74823 166.94862,83.191851 165.13823,83.819768 C 164.31959,84.104384 163.5479,84.383132 163.4276,84.438882 C 162.49159,84.881944 155.90727,86.6718 153.76824,87.062047 C 148.38694,88.050869 144.49327,88.532076 140.24456,88.737469 C 137.7326,88.857771 137.13139,88.857771 134.59918,88.731601 C 131.43877,88.576089 128.66919,88.188776 126.63873,87.622477 C 126.01668,87.446426 125.4093,87.302651 125.29193,87.302651 C 124.54342,87.302651 119.69643,85.025719 118.7839,84.245225 C 118.68707,84.163068 118.1061,83.728808 117.49286,83.276942 C 112.35509,79.497706 108.40274,73.89047 104.99908,65.557372 C 103.76085,62.529288 101.09661,54.689133 98.617217,46.790294 C 98.036247,44.938821 97.317371,42.658955 97.018083,41.725883 C 96.72173,40.792811 96.475258,39.921356 96.475258,39.789318 C 96.475258,39.657279 96.354957,39.132059 96.208247,38.618576 C 95.483502,36.089305 94.770494,33.005472 94.881993,32.893972 C 95.011098,32.764868 95.304517,33.260746 95.870815,34.569395 C 96.202379,35.341086 96.475258,36.048226 96.475258,36.14212 C 96.475258,36.297632 98.118405,40.828021 98.356074,41.326833 C 98.584941,41.80804 101.302,49.633524 103.8166,57.057024 C 105.73556,62.722945 106.81828,65.387189 108.67855,69.03732 C 111.22543,74.028377 114.38555,78.086361 118.03862,81.049893 C 120.08668,82.710644 121.63593,83.649585 123.88646,84.591459 C 127.73025,86.202329 130.91678,86.745155 136.87876,86.806773 C 140.47314,86.844917 141.68525,86.792102 144.77173,86.475209 C 147.51813,86.190593 152.74979,85.322073 153.87945,84.964101 C 154.09071,84.893681 154.41347,84.82326 154.59246,84.802721 C 155.12941,84.738169 159.02338,83.708268 160.78653,83.159575 C 162.76711,82.543395 165.87735,81.416666 166.6021,81.052827 C 166.88935,80.906117 167.12409,80.809289 167.12409,80.835697 C 167.12409,80.988275 170.87398,79.274708 172.47898,78.388583 C 174.45369,77.297064 175.80665,76.290637 178.44126,73.949154 C 183.49745,69.453975 187.83125,67.285609 193.68496,66.320261 z"
       id="path28" />
    <path
       style="fill:#ffffff;fill-opacity:1"
       d="M 180.23243,100.29854 C 179.50292,100.72502 178.8769,101.3524 178.67365,102.13241 C 177.62783,103.35871 175.99084,104.72854 176.96553,106.57037 C 176.8598,107.3964 176.97347,108.10818 177.71086,108.4776 C 178.4022,109.82386 179.67337,108.60471 180.80093,108.92689 C 183.00626,109.13199 184.94951,107.61617 186.58679,106.35031 C 187.32825,105.79188 188.90833,106.69236 189.44762,105.45171 C 190.10358,103.80831 188.10944,102.58356 186.91688,101.89401 C 184.8778,100.83755 182.44715,100.2357 180.23243,100.29854 z M 180.99349,103.07685 C 181.38967,104.29262 183.27612,103.888 184.15691,104.78235 C 184.1843,105.33829 182.66235,105.90739 181.97461,106.13941 C 181.02654,106.34556 179.46282,106.70641 178.82952,105.846 C 178.93194,104.67062 180.3253,103.85066 180.99349,103.07685 z M 185.3581,103.68203 C 185.40694,103.71413 185.24154,103.73678 185.3581,103.68203 z"
       id="path38"
       sodipodi:nodetypes="cccccccccccccccc" />
    <path
       d="M 186.48152,103.62261 C 186.7544,103.92483 186.61327,104.11262 186.15583,104.05981 C 185.82133,104.02166 185.75091,104.06568 185.43989,104.52048 C 184.77383,105.48582 183.29793,106.42183 181.86604,106.78567 C 180.94471,107.0204 179.55097,107.0028 178.99347,106.74752 C 178.4037,106.48051 178.22178,106.23698 178.23645,105.7323 C 178.25112,105.09264 178.68274,104.48233 180.09379,103.1062 C 181.29974,101.92665 181.39951,101.85623 181.73107,101.92078 C 182.20054,102.00881 182.80205,102.38439 182.80205,102.58684 C 182.80205,102.70128 182.62893,102.77463 182.24719,102.82451 C 181.74251,102.892 181.48431,103.02404 181.61341,103.15314 C 181.64011,103.17955 182.00982,103.29105 182.43528,103.40548 C 182.86367,103.51698 183.48572,103.75759 183.82021,103.93657 L 184.43053,104.26813 L 184.60951,103.96591 C 184.70605,103.79866 184.7882,103.53459 184.7882,103.37614 C 184.7882,103.115 184.82635,103.08859 185.23449,103.08859 C 185.72744,103.08859 186.1705,103.27931 186.48152,103.62261 z M 181.42592,106.23111 C 182.5057,105.95529 183.90531,105.1748 183.90531,104.84617 C 183.90531,104.59676 181.66652,103.98058 180.74225,103.97472 C 180.34349,103.97178 180.21996,104.03633 179.7857,104.47646 C 178.9876,105.2863 178.83796,105.99344 179.40426,106.26632 C 179.7681,106.43944 180.66889,106.42476 181.42592,106.23111 z"
       id="path42" />
    <path
       style="fill:#ffffff;fill-opacity:1"
       d="M 164.90129,94.787768 C 163.92252,94.66663 162.8482,95.995765 163.96602,96.557451 C 165.36935,97.920494 164.75207,99.996677 163.71845,101.33468 C 163.48483,103.03654 166.19983,102.2324 166.45091,103.81957 C 166.6589,104.63049 165.90773,105.57664 166.93951,106.13287 C 168.3921,106.78472 168.90456,108.17649 169.75188,109.39453 C 171.38989,111.61757 174.35874,110.80496 176.55291,109.87396 C 177.63337,109.97108 178.89334,109.01454 177.88508,108.15667 C 176.74633,106.79299 175.23064,107.94148 174.01824,108.60073 C 172.16229,108.75301 171.42146,106.41493 170.84303,105.05743 C 170.21025,103.61309 168.16232,103.11961 168.459,101.27966 C 168.30906,100.33635 168.1922,99.083366 169.42178,98.886464 C 170.66246,98.634162 170.48785,96.99535 169.28424,96.897741 C 168.23652,96.984264 167.43764,96.331184 166.82685,95.530485 C 166.29436,95.090019 165.61816,94.707814 164.90129,94.787768 z"
       id="path48"
       sodipodi:nodetypes="ccccccccccccccc" />
    <path
       sodipodi:nodetypes="ccccccccccccccccccccccccccccccccccccccccccccccccccscssccccccccccccccccccccccccccccccccccccccccsscssccccccccccccccccccccccccccccccccscccccccccccccccccccccccccccccccccccccccccccccccccccccccsscccccccccsccccccccccccccccccccccccccccccccscccccccccccccccccccccccccccccccccccccccccccccccccccccccccccccccccccccccccccccccccccccccccccccccccccccccscccccccccccccccsccccccccccccccccccccccccccccccccccccccccccccccsccccccccccccccccccccccccccccccccccccccccccccc"
       id="path32"
       d="M 194.33341,71.645815 C 194.24024,71.995036 194.31759,72.35451 193.73822,72.139155 C 192.00965,71.837999 190.17436,71.874873 188.5465,72.589022 C 185.67283,73.713494 183.51909,76.269344 182.56664,79.167654 C 182.0021,80.791035 181.78292,82.582892 182.1803,84.268699 C 182.58564,85.837671 183.66574,87.097988 184.82339,88.180126 C 186.2294,89.608874 187.48794,91.382066 187.58394,93.45493 C 187.54596,93.76741 187.98704,93.668615 188.18076,93.782189 C 189.58391,94.144295 191.15796,94.594165 191.95895,95.910859 C 192.14162,96.035529 192.32107,97.228879 192.05259,96.784566 C 191.29935,95.550719 189.93735,94.780494 188.50927,94.662698 C 184.94305,94.343969 181.33279,94.616998 177.78617,94.055884 C 175.89483,93.753478 173.83759,92.958976 172.8844,91.181502 C 172.40042,90.44701 172.69465,89.409924 173.51941,89.076846 C 174.94479,88.393039 176.57589,88.340171 178.13015,88.319799 C 180.05832,88.378002 182.0621,88.712403 183.72124,89.749372 C 184.55303,90.366655 185.44017,90.976329 186.06276,91.813911 C 185.97711,92.523733 185.42742,91.558622 185.00155,91.360136 C 183.52513,90.073286 181.65721,89.268431 179.70897,89.073962 C 178.03396,88.921472 176.30594,88.819659 174.66116,89.240645 C 173.97845,89.371847 173.18138,90.087144 173.74214,90.791745 C 174.28209,91.600071 175.10033,92.218119 175.96199,92.65397 C 177.74754,93.381493 179.71982,93.325421 181.61246,93.425973 C 183.02537,93.450294 184.44021,93.518479 185.85264,93.462169 C 186.48252,93.19127 185.77251,92.114047 185.74531,91.56783 C 185.36571,90.115464 184.05523,89.22316 183.11696,88.142645 C 181.60335,86.630542 181.04816,84.422579 181.08332,82.336491 C 181.13591,79.65007 182.19893,77.005497 184.04467,75.048738 C 185.72001,73.165807 187.95241,71.615288 190.51795,71.359118 C 191.79191,71.214301 193.09813,71.293791 194.33341,71.645815 z M 195.36625,75.524817 C 196.69088,76.758611 196.82299,78.767345 196.41476,80.431635 C 196.09757,81.579162 195.49848,82.627468 195.23045,83.793011 C 195.05623,84.426669 194.90623,85.066666 194.74421,85.703514 C 193.75252,83.859658 193.95589,81.657161 193.16305,79.747418 C 192.57542,78.225867 191.01453,77.373532 189.47387,77.129284 C 188.7376,76.972317 187.97125,76.985761 187.23327,76.884089 C 187.0384,76.726 186.60308,76.697838 186.85461,76.387395 C 188.83387,74.823727 191.52514,74.156402 193.99558,74.696691 C 194.52219,74.834877 194.98314,75.144992 195.36625,75.524817 z M 195.27823,81.146718 C 195.7849,79.678376 196.07805,77.911017 195.17141,76.533902 C 194.5413,75.524902 193.30801,75.096219 192.16085,75.173512 C 191.06075,75.219197 189.92375,75.4464 188.9683,76.00485 C 189.56328,76.301265 190.35513,76.270459 190.97313,76.617864 C 192.31944,77.176886 193.38756,78.261676 194.02983,79.559691 C 194.41135,80.229552 194.65591,80.962108 194.8557,81.702016 C 195.00089,82.122186 195.20209,81.223969 195.27823,81.146718 z M 208.17398,115.25961 C 208.68275,116.18688 208.94222,117.24441 208.82802,118.30236 C 208.8082,118.64928 208.7149,119.66295 208.61168,119.95214 C 208.54387,120.14212 208.55516,119.72234 208.28697,119.64004 C 208.01496,119.66997 207.93234,119.83453 207.93359,119.65282 C 207.93555,119.3694 208.02883,118.69421 208.02392,118.39787 C 208.00934,117.5179 208.09346,116.54697 207.56386,115.77128 C 206.48139,113.88354 204.09409,112.91889 201.99101,113.34712 C 200.66436,113.77859 199.53679,114.99573 199.55979,116.44557 C 199.44493,117.56045 200.1776,118.63455 201.18347,119.06599 C 201.7972,119.38153 202.67633,118.95581 203.17729,119.28683 C 202.26988,120.05684 200.82764,120.04104 199.84134,119.4285 C 198.82082,118.72201 198.21207,117.44004 198.46436,116.20292 C 198.67786,114.58912 199.81593,113.17549 201.33012,112.58881 C 203.01217,111.82222 205.00791,112.25445 206.4743,113.29111 C 207.20733,113.77822 207.79723,114.46459 208.17398,115.25961 z M 191.29066,98.631559 C 190.98499,99.223987 190.18554,99.473977 189.5625,99.673478 C 188.48884,100.00397 187.3465,100.06633 186.24888,99.812946 C 184.57058,99.513501 183.15614,98.49612 181.57028,97.941975 C 180.13252,97.581275 178.63013,97.634689 177.17425,97.370198 C 174.46566,96.939521 171.72304,95.57169 170.27991,93.154452 C 169.76857,92.292671 169.46094,91.292289 169.57766,90.283787 C 169.86521,90.29259 170.15276,90.301392 170.44031,90.310198 C 170.3687,92.218078 171.76699,93.829606 173.32569,94.74997 C 175.17933,95.869243 177.3465,96.305959 179.48526,96.424474 C 180.76953,96.515184 182.11762,96.67633 183.18176,97.470325 C 184.59001,98.484518 186.28814,99.217863 188.05574,99.089079 C 189.12468,99.085611 190.17013,98.857715 191.2085,98.632933 L 191.29066,98.631557 L 191.29066,98.631559 z M 182.87249,76.86173 C 182.51512,77.492047 181.69953,77.733947 181.20496,78.270646 C 180.0307,79.304464 179.69589,80.959241 179.71097,82.458544 C 179.74355,83.922391 180.35355,85.318431 181.24664,86.460538 C 181.38354,86.875967 180.40376,86.335058 180.11704,86.435166 C 177.61808,86.206396 175.01235,86.400425 172.69041,87.409972 C 171.52321,87.914775 170.4498,88.960609 170.44031,90.310195 C 170.15276,90.301392 169.86521,90.29259 169.57766,90.283784 C 169.50656,88.892556 170.37266,87.595266 171.56562,86.935792 C 173.3624,85.876705 175.45301,85.44564 177.50585,85.231066 C 178.30379,85.319364 179.43423,85.202545 178.83719,84.141466 C 178.55331,82.752186 178.45306,81.214973 179.18109,79.937477 C 179.87287,78.517036 181.2046,77.534258 182.61025,76.891066 C 182.69032,76.875676 182.78996,76.810669 182.87249,76.86173 z M 189.99375,104.43832 C 190.24894,105.22935 189.72449,106.23973 188.96271,106.45797 C 188.72838,106.5251 188.03435,106.5085 187.67888,106.46063 C 187.5685,106.44576 187.79593,106.31629 187.85919,106.12771 C 187.81577,105.88012 187.4795,105.5474 187.60921,105.56452 C 187.74999,105.58311 188.30492,105.6126 188.54939,105.52433 C 189.45863,105.19609 188.86508,104.04569 188.31948,103.60688 C 186.50824,101.92215 184.02,101.2517 181.62603,100.91935 C 181.2619,100.8399 180.74218,100.97344 180.40189,100.83388 C 180.25667,100.65987 179.52037,100.55489 179.74207,100.37799 C 180.46073,99.920842 181.38796,99.130096 181.58972,98.266009 C 181.67118,97.909922 181.90895,97.500805 181.89115,98.155112 C 181.94643,98.80436 181.63858,99.384197 181.39306,99.960744 C 183.44075,100.2531 185.54902,100.53138 187.36577,101.5941 C 188.5004,102.22814 189.64136,103.12669 189.99375,104.43832 z M 252.53893,101.6127 C 253.42539,101.65052 251.86565,102.40809 251.52242,102.51094 C 248.50749,103.6545 245.34667,104.34554 242.22065,105.10928 C 238.1295,106.08235 234.00487,107.07731 230.16488,108.82954 C 228.54316,109.62287 226.8112,110.37407 225.63605,111.8038 C 224.68679,112.90673 223.8054,114.11915 223.2952,115.49123 C 223.14586,116.51843 223.27077,117.57228 223.0665,118.59773 C 222.44332,122.78576 219.69983,126.59334 215.89701,128.46936 C 212.35659,130.29002 208.2209,130.77326 204.31801,130.09464 C 200.35489,129.45392 196.54128,128.06279 192.9758,126.23715 C 192.05796,125.73566 190.98331,126.04455 189.99657,125.85353 C 188.06806,125.65369 186.16313,125.08815 184.53161,124.02166 C 183.51419,123.37424 182.50432,122.67481 181.77436,121.69691 C 180.74191,120.43529 179.98644,118.92845 179.60281,117.34417 C 179.25881,115.3108 179.39567,113.1255 180.3984,111.28648 C 180.72532,110.59649 181.20677,110.00267 181.70965,109.43525 C 181.08471,109.38232 180.45945,109.29972 179.86758,109.09074 C 179.04285,108.86479 178.75211,109.75703 178.11036,109.96515 C 177.21157,110.11879 176.29667,110.21176 175.42784,110.51209 C 175.30134,110.2719 175.26748,110.08336 175.35884,109.95502 C 176.06722,109.43401 177.51141,109.78738 177.61176,108.74367 C 177.11108,108.04706 176.09261,107.74583 175.34692,108.24362 C 174.71569,108.64926 173.75631,109.05446 172.97556,108.81089 C 172.9511,108.51935 173.16084,108.40654 173.30895,108.35298 C 173.50802,108.28098 173.91515,108.36978 174.19298,108.30008 C 174.90357,107.97087 175.47267,107.29206 176.30947,107.26521 C 176.77245,107.21155 176.80434,106.72821 177.31593,106.85877 C 177.18146,107.49889 177.91494,107.84439 178.34474,108.29385 C 178.86546,108.9042 179.75897,108.07282 180.50248,108.3325 C 181.29122,108.3743 182.12537,108.46083 182.81444,107.9952 C 184.0674,107.48698 185.26049,106.77368 186.2502,105.84906 C 186.44984,105.72576 186.57173,105.34517 186.82902,105.41264 C 187.16066,105.5332 187.70193,105.48866 187.88655,105.68552 C 187.86988,105.94661 187.85321,106.20769 187.83654,106.46878 C 187.53835,106.47101 187.2104,106.38692 186.93025,106.44145 C 185.91359,107.39352 184.79699,108.25649 183.51057,108.81309 C 182.72202,109.30942 182.32012,110.20595 181.82705,110.96414 C 180.72366,112.81247 180.5725,115.06193 180.83389,117.15385 C 181.27775,120.02151 183.33632,122.44602 185.85457,123.78399 C 187.20297,124.49496 188.73212,124.81464 190.24022,124.94537 C 190.71027,125.01984 190.46372,124.83 190.21734,124.64022 C 189.50818,124.20138 190.34486,123.99778 190.74659,124.28591 C 193.654,125.3775 196.48853,126.67333 199.47066,127.56047 C 203.34902,128.74781 207.5196,129.35806 211.52387,128.45003 C 214.8365,127.73868 218.13702,126.15101 220.14731,123.33011 C 222.21326,120.5212 222.68144,116.79422 221.93362,113.44458 C 220.91522,108.8916 217.8849,104.9015 213.98189,102.40279 C 211.91358,101.05489 209.48944,100.34436 207.05619,100.04449 C 204.78719,99.879875 202.44092,100.12155 200.37958,101.14112 C 197.76637,102.3873 195.44621,104.64681 194.78178,107.53926 C 194.53139,108.70137 194.61051,109.93115 194.96133,111.06372 C 195.80205,109.78741 196.92474,108.67768 198.23402,107.88671 C 199.7382,107.03191 201.46242,106.59166 203.19252,106.61319 C 204.24217,106.59287 205.32296,106.54902 206.31709,106.9451 C 208.62747,107.51894 210.67744,108.96344 212.14403,110.81838 C 212.98045,112.1308 213.55515,113.64142 213.55714,115.21445 C 213.70334,117.47343 213.26585,119.95839 211.56359,121.58202 C 210.18866,122.9114 208.25751,123.50749 206.37393,123.52654 C 205.49105,123.55064 204.63473,123.75719 203.77487,123.9261 C 201.80822,124.13568 199.76252,123.87663 198.00687,122.92525 C 196.23612,122.10898 195.06446,120.40819 194.47534,118.59694 C 193.9124,116.94876 193.80185,115.15934 194.12873,113.4505 C 194.15862,112.63199 193.70773,111.89035 193.63841,111.07858 C 193.07458,107.67959 194.57223,104.15321 197.12604,101.91025 C 197.57432,101.40268 198.45852,101.11893 198.48882,100.35495 C 198.16647,98.577447 197.29947,96.936329 196.15005,95.553727 C 195.51297,94.722928 194.77029,93.978507 194.12798,93.153791 C 193.80316,92.325543 193.90239,91.342622 193.32409,90.593573 C 192.60988,89.430522 191.17299,89.132273 190.00578,88.623579 C 188.8419,88.165555 187.70085,87.642887 186.60404,87.043961 C 185.04874,85.805222 183.85898,83.938661 183.92622,81.892345 C 183.95436,79.822392 185.30989,77.685225 186.87258,76.374875 C 187.034,76.515067 187.38014,76.67075 187.32804,76.853893 C 186.72547,77.568506 185.98483,78.39671 185.67697,79.29898 C 184.88805,80.91347 184.97891,82.916034 185.97709,84.420282 C 186.87333,85.873853 188.34794,86.828844 189.86658,87.533128 C 190.38238,87.745217 191.01368,88.196546 191.48208,88.212754 C 191.15769,86.560773 191.36338,84.864597 191.18559,83.200439 C 190.85384,81.918005 189.92637,80.720189 188.59995,80.379084 C 187.60726,80.081358 186.5569,79.985982 185.53172,80.100468 C 184.41994,80.224625 184.38964,79.384499 186.38744,79.314645 C 187.57491,79.273123 188.8257,79.356126 189.83266,80.050772 C 191.4466,81.095235 192.40118,83.036172 192.32036,84.949225 C 192.28836,86.481943 192.33165,88.249076 193.53731,89.36805 C 194.46506,90.061044 195.10959,91.062782 195.4451,92.164098 C 195.50702,92.659753 196.10038,92.890586 195.94282,92.184461 C 196.05813,90.880836 196.2003,89.559327 196.59497,88.307165 C 197.09758,87.131021 198.09003,86.242 198.5914,85.059838 C 199.59556,82.736415 199.84807,80.065956 199.2396,77.604864 C 198.56597,75.131453 196.39474,72.985185 193.94446,72.199775 C 194.04715,71.913219 193.78026,71.402524 194.68023,71.753271 C 196.75878,72.563345 198.63227,74.098381 199.41674,76.217215 C 200.53701,79.076726 200.66286,82.348861 199.62365,85.250566 C 199.21756,86.113115 198.68579,86.912456 198.10105,87.660487 C 197.42764,88.881978 196.99842,90.247705 196.99394,91.651557 C 196.95948,92.429548 196.94804,93.20835 196.9249,93.986734 C 197.94067,95.310553 198.99967,96.648664 199.4797,98.27652 C 199.75895,98.747128 199.68402,99.652936 200.1432,99.866736 C 201.38009,99.548329 202.57393,99.024723 203.86473,98.938828 C 206.48822,98.703198 209.20503,98.914439 211.63955,99.985462 C 213.00279,100.5629 214.30585,101.34247 215.79911,101.54177 C 219.58347,102.25195 223.45782,102.66888 227.30396,102.27027 C 233.62797,101.65466 239.80761,100.02348 245.80727,97.975284 C 246.11161,97.851561 247.32139,97.496366 246.4003,97.938879 C 243.46282,99.24261 240.44903,100.37367 237.40932,101.4151 C 231.54664,103.28718 225.30464,103.99772 219.17556,103.38805 C 218.41892,103.33235 217.66727,103.22931 216.91552,103.12967 C 218.31147,104.56848 219.76247,105.98965 220.75256,107.75305 C 221.64865,109.22012 222.33185,110.80874 222.80594,112.46016 C 223.16024,112.92096 223.62298,111.72284 223.99735,111.47355 C 224.8487,110.463 225.99905,109.79511 227.08589,109.07327 C 230.04042,107.35516 233.35379,106.39663 236.60665,105.41794 C 241.85629,103.91547 247.1653,102.59137 252.53893,101.6127 z M 212.76306,115.94914 C 212.83271,114.77235 212.60314,113.59312 212.06536,112.54094 C 211.4063,111.07105 210.17734,109.9685 208.83291,109.13059 C 207.10423,107.92741 204.94276,107.52754 202.86982,107.58061 C 200.14762,107.68805 197.54886,109.29531 196.17278,111.63377 C 195.62805,112.64877 195.16028,113.76278 195.23077,114.93855 C 195.15725,116.42856 195.40482,117.94251 196.11096,119.2688 C 196.91183,121.08242 198.60289,122.43651 200.53488,122.86107 C 201.95236,123.14959 203.47482,123.16035 204.85146,122.67541 C 206.28325,122.19335 207.60763,120.91328 207.95796,119.42836 C 208.21307,119.5224 208.81976,119.53166 208.58844,120.03647 C 208.25319,120.76809 208.04521,121.47053 207.41667,122.12561 C 208.20001,122.31176 209.08429,121.99981 209.80439,121.65499 C 211.49648,120.75557 212.50667,118.88557 212.7323,117.02815 C 212.75891,116.66916 212.76058,116.30892 212.76306,115.94914 z M 208.97209,153.04023 C 209.96351,154.71442 210.86996,156.45413 211.54126,158.28258 C 211.62469,158.97295 210.98922,157.7653 210.87415,157.56938 C 209.81957,155.7335 208.74317,153.9086 207.63786,152.10338 C 205.4148,148.93806 202.93926,145.95447 200.35692,143.07708 C 197.7081,140.06228 194.54159,137.57684 191.45095,135.03973 C 189.74096,133.61098 187.90232,132.35174 186.12844,131.0062 C 185.57197,130.62002 185.01309,130.17907 184.40901,129.88915 C 181.16205,130.06915 177.85128,130.41913 174.65432,129.64113 C 173.06061,129.27233 171.66679,128.39007 170.37605,127.41889 C 169.77582,127.90987 169.05474,128.20502 168.34889,128.49977 C 168.82138,129.08736 169.69334,129.42749 170.3864,129.80276 C 173.44795,131.27342 176.89307,131.69432 180.25626,131.67239 C 182.09211,131.69662 184.03966,131.60793 185.69987,132.53339 C 186.43799,132.9357 187.25651,133.183 187.90275,133.73963 C 190.39407,135.50785 192.45795,137.77672 194.63918,139.89546 C 197.05723,142.33918 199.52398,144.73955 201.83389,147.28689 C 203.93909,149.76294 205.91806,152.37331 207.48539,155.22735 C 207.79828,155.85829 208.22781,156.62789 208.11824,157.30068 C 206.80597,155.35286 205.40378,153.46358 203.99381,151.58454 C 202.18588,149.21542 200.33201,146.86222 198.13193,144.83979 C 195.33592,142.20199 192.59559,139.50626 189.82901,136.83794 C 188.2137,135.32164 186.46213,133.84414 184.35797,133.07116 C 182.47583,132.45527 180.47509,132.76453 178.53539,132.59986 C 175.27564,132.46792 171.92753,132.06081 169.00508,130.51184 C 168.20095,130.10591 167.50133,129.53488 166.82697,128.94715 C 166.089,128.81132 165.30333,129.16938 164.53688,129.1396 C 163.42462,129.24441 162.30606,129.2449 161.19467,129.13539 C 161.24202,129.86081 161.15507,130.62722 160.66144,131.20042 C 159.55014,132.6136 157.80884,133.26432 156.23565,134.01527 C 155.22426,134.47637 154.15224,134.78786 153.09129,135.10472 C 151.36634,135.36681 149.65124,135.71284 147.90388,135.80073 C 142.66693,136.22257 137.38824,135.70234 132.26825,134.5698 C 129.80126,134.02087 127.23044,133.99204 124.74135,134.41199 C 122.03231,134.77166 119.28696,135.44646 116.54742,134.98938 C 114.7363,134.68063 113.12818,133.33117 112.52976,131.59431 C 112.27419,131.00321 112.50032,130.3088 112.34748,129.73855 C 109.01317,130.71683 105.74606,131.96786 102.3363,132.68063 C 99.92404,133.14025 97.442373,133.02688 95.011341,132.79309 C 91.94592,132.41199 88.98868,131.43475 86.114298,130.33543 C 84.315334,129.59573 82.490339,128.8643 80.856567,127.79446 C 82.168485,128.05637 83.40433,128.60535 84.676756,129.00806 C 88.859848,130.4435 93.212114,131.5219 97.64887,131.67064 C 102.0731,131.75422 106.26218,130.15616 110.43835,128.91527 C 113.94402,127.85853 117.42036,126.70217 120.94624,125.71394 C 125.80872,124.4389 130.78365,123.45713 135.82388,123.34833 C 139.48429,123.25146 143.19072,123.39736 146.74619,124.34673 C 150.79577,125.34302 154.76683,126.66736 158.86944,127.44045 C 161.88199,127.8964 165.02625,128.08949 167.98413,127.21093 C 169.25177,126.9872 170.08252,125.86025 170.50411,124.7239 C 170.89572,123.57629 170.77828,122.32251 170.62598,121.14068 C 169.98723,117.99182 168.4871,115.07012 166.66432,112.44772 C 165.31661,110.60215 163.6767,108.98569 161.97603,107.46724 C 158.81685,104.87671 154.75878,103.18571 150.62356,103.4557 C 147.19369,103.71052 143.8048,104.3325 140.39639,104.77301 C 133.36172,105.73735 126.26909,106.5686 119.15596,106.27776 C 113.10951,106.07656 107.08437,105.22177 101.23142,103.68568 C 97.14683,102.65866 93.121885,101.40176 89.177756,99.924836 C 86.834421,99.07655 84.446085,98.363724 82.039275,97.720632 C 81.641765,97.609555 81.249954,97.479743 80.856567,97.355184 C 83.901476,97.472214 86.907685,98.077177 89.811535,98.985434 C 91.546938,99.503507 93.240505,100.15819 94.98469,100.64441 C 94.690631,99.822169 94.214944,99.045949 94.143751,98.152779 C 93.898923,95.823804 94.479132,93.515234 94.872542,91.234136 C 95.698505,86.756827 96.467985,82.224566 96.302294,77.653788 C 96.254915,74.890266 95.565208,72.193696 95.053277,69.49212 C 93.973257,64.364142 92.6968,59.280304 91.525328,54.172866 C 90.181909,48.344028 88.732469,42.540626 87.327171,36.72666 C 87.002943,35.242545 86.583146,33.770611 86.404624,32.260003 C 86.534658,31.474124 87.100702,32.720576 87.244483,33.027781 C 88.430303,35.809819 89.190367,38.749076 90.022034,41.650185 C 91.660435,47.568004 92.993006,53.565691 94.664444,59.474709 C 95.599291,62.977057 96.449361,66.50785 96.976562,70.097264 C 97.504147,73.078768 97.994224,76.089334 97.907882,79.128142 C 97.901113,84.645399 96.708852,90.058568 95.906357,95.492185 C 95.733516,96.914105 95.496533,98.536621 96.433596,99.760084 C 97.12568,100.69065 98.333096,100.95824 99.349969,101.38421 C 103.47243,102.78493 107.79563,103.47873 112.10307,104.02272 C 116.66038,104.6304 121.26854,104.609 125.85582,104.52577 C 129.02304,104.38366 132.17085,103.97322 135.32302,103.65056 C 139.41347,103.21889 143.48309,102.61944 147.56291,102.10293 C 149.62975,101.88492 151.7428,101.85506 153.79157,102.24265 C 154.65831,102.36278 155.44838,102.84796 156.32999,102.85312 C 157.169,102.72913 157.06865,101.6167 156.79349,101.04021 C 156.34182,99.929686 155.58451,98.975995 155.12177,97.867995 C 154.39973,96.281321 153.65773,94.676871 153.27616,92.968383 C 153.06814,91.911755 153.74683,90.920665 154.61358,90.38355 C 156.26919,89.364133 158.21923,88.971351 160.11502,88.657832 C 162.38375,88.327337 164.78812,88.261203 166.94718,89.13634 C 167.98741,89.589344 168.80645,90.563624 168.89103,91.720807 C 169.00342,92.822381 169.10274,94.058654 170.0072,94.831599 C 171.30174,96.069358 173.05841,96.694616 174.32915,97.95625 C 175.12299,98.821184 175.09121,100.17083 176.00681,100.95696 C 176.84579,101.75433 178.10143,101.36755 178.97833,100.85435 C 179.43175,100.66907 179.85025,100.01974 180.27442,100.54563 C 180.64351,100.69686 180.56362,100.85729 180.24933,101.02254 C 179.7325,101.34977 179.32607,101.78769 179.21202,102.39534 C 178.60579,103.28533 177.65558,103.91542 177.14596,104.87008 C 176.88726,105.54581 177.23561,106.20285 177.31265,106.86072 C 177.02386,106.92981 176.82219,107.40623 176.70548,107.25709 C 176.63542,107.16757 176.65748,106.52806 176.6375,106.34114 C 176.18744,105.56011 176.1122,104.45797 176.82591,103.80277 C 177.13466,103.34319 177.90483,102.90798 177.96864,102.46654 C 177.27439,102.57809 176.558,102.73547 175.86199,102.51972 C 175.14681,102.39041 174.56213,101.8673 174.41769,101.14389 C 174.06233,99.992319 173.55901,98.852871 172.65722,98.020579 C 171.83254,97.126408 170.77905,96.511076 169.78525,95.833513 C 168.50422,94.90584 168.00356,93.338446 167.68467,91.860181 C 167.60768,91.119726 167.16821,90.432219 166.45212,90.167015 C 165.28097,89.777097 164.02264,89.757041 162.80143,89.655301 C 161.67504,89.646525 160.52172,89.594646 159.41656,89.831922 C 159.53287,90.58262 160.01172,91.256688 160.35357,91.934709 C 161.07522,93.262374 162.20829,94.305206 163.37478,95.23963 C 164.14621,94.833679 165.04477,94.517356 165.91122,94.815044 C 166.99576,95.082675 167.2488,96.535641 168.40032,96.672504 C 170.04653,96.7298 169.52253,97.391055 168.36126,97.281137 C 167.45549,97.195403 166.98524,96.405545 166.35419,95.903658 C 165.75468,95.362655 164.75562,95.125593 164.10582,95.711304 C 164.28103,96.264604 165.10696,96.83703 165.25237,97.572314 C 165.49675,98.659531 165.39072,99.879764 164.70252,100.79351 C 164.2823,101.17359 164.04734,101.94571 164.85185,101.97885 C 165.70079,102.16736 166.611,102.57037 166.93671,103.44349 C 167.53409,104.19252 166.3993,105.15468 167.16536,105.71322 C 167.93915,106.32694 168.92652,106.76447 169.34586,107.72461 C 169.97957,108.95558 171.00237,110.18903 172.47623,110.33249 C 173.41682,110.44297 174.70624,110.09431 175.60176,109.81501 C 175.7663,110.18449 175.99593,110.08539 175.52206,110.47136 C 174.53485,110.82748 172.89457,111.02997 171.8641,110.91798 C 171.10902,110.63968 170.29773,110.32033 169.77142,109.68143 C 169.20143,109.07794 168.85478,108.31465 168.37611,107.64979 C 167.75159,107.09501 167.06069,106.61006 166.47632,106.00532 C 165.93156,105.45736 165.19173,105.15909 164.44516,105.01883 C 163.46686,105.05655 163.40328,106.34233 164.00277,106.89343 C 164.62227,107.74218 165.80554,108.15222 166.10092,109.2251 C 166.00458,110.05556 166.80456,110.45921 167.20448,111.07561 C 169.24022,113.82958 170.99183,116.89036 171.75143,120.25795 C 172.10088,122.11416 172.33769,124.14571 171.51706,125.91489 C 171.37725,126.20149 171.22762,126.4832 171.08319,126.7675 C 172.12131,127.80867 173.41404,128.62515 174.8662,128.92877 C 177.52762,129.45977 180.25718,129.16707 182.93383,128.9349 C 183.8629,128.91267 184.92519,128.8132 185.67115,129.48497 C 187.44117,130.74401 189.08452,132.1721 190.84398,133.44237 C 193.51485,135.68029 196.16839,137.94436 198.7048,140.33456 C 202.00549,143.59372 205.02168,147.14666 207.69398,150.93844 C 208.16062,151.61364 208.52228,152.35373 208.97209,153.04023 z M 165.24973,104.29454 C 165.65913,104.54057 166.50011,104.67974 166.21285,103.91483 C 166.02835,102.9317 164.93431,102.86286 164.14018,102.7856 C 163.46159,102.65093 163.11916,101.85236 163.42951,101.2499 C 163.83081,100.4533 164.61807,99.831925 164.64822,98.867116 C 164.75247,97.934179 164.07257,97.149559 163.54823,96.453299 C 162.67377,95.59428 161.63021,94.905244 160.90225,93.89961 C 160.178,93.062303 159.71373,92.043741 159.03783,91.174496 C 158.53654,91.365952 159.20493,92.383226 159.1786,92.883479 C 159.09291,93.704322 158.18905,93.774634 157.77061,94.32943 C 157.16807,95.022465 157.22958,96.048774 157.68048,96.804281 C 158.15787,97.843788 159.06951,98.696423 159.27399,99.850712 C 159.50313,100.84342 157.64051,100.5197 158.07641,101.38351 C 158.71074,101.71875 159.70743,101.15538 160.14616,101.94034 C 160.76687,102.57704 160.28866,103.43099 160.0254,104.10419 C 159.86075,104.8779 160.89763,105.15685 161.35798,105.58641 C 161.84796,105.75916 162.79541,107.08293 162.94393,106.05279 C 162.97133,105.16096 163.54313,104.13786 164.53529,104.12408 C 164.78369,104.11997 165.01915,104.21384 165.24973,104.29454 z M 159.95058,129.33199 C 159.77642,128.74576 158.84103,129.03316 158.35735,128.81492 C 153.61129,127.92704 149.06765,126.20715 144.33175,125.27734 C 141.2726,124.71544 138.14396,124.78218 135.04894,124.89369 C 129.45478,125.15834 123.96432,126.40975 118.57612,127.86868 C 116.83308,128.43281 115.03786,128.85059 113.33218,129.51977 C 113.11981,130.32503 113.48568,131.19143 113.88669,131.8877 C 114.43921,132.98588 115.75244,133.24417 116.86529,133.32402 C 119.09728,133.38839 121.30185,132.93196 123.50372,132.62862 C 126.05122,132.22578 128.66017,131.94545 131.22139,132.40219 C 134.55849,133.00904 137.9035,133.63449 141.29606,133.83134 C 144.97778,134.05837 148.70056,133.91706 152.3163,133.14753 C 153.80814,132.96137 155.21819,132.41881 156.61894,131.89862 C 157.71922,131.41526 158.91267,130.943 159.70362,129.99886 C 159.84557,129.80613 159.95161,129.57548 159.95058,129.33199 z M 159.69824,102.85092 C 160.09655,101.96317 158.63277,102.1588 158.17994,102.43193 C 157.94371,102.75422 157.69423,103.09726 157.40957,103.39668 C 157.94347,103.65104 158.4774,103.90534 159.01135,104.15957 C 159.22897,103.71756 159.43989,103.27116 159.69824,102.85092 z M 158.25756,100.04584 C 158.31949,99.278184 157.7618,98.629687 157.40637,97.9907 C 156.74279,96.94614 156.25941,95.540573 156.9159,94.382116 C 157.26656,93.748202 157.98873,93.453313 158.39209,92.878805 C 158.57166,92.106855 157.94049,91.444799 157.78012,90.720565 C 157.41625,89.800224 156.29947,90.876675 155.68593,91.040835 C 154.91056,91.415689 154.15483,92.230898 154.41465,93.155608 C 154.8054,95.544557 156.12939,97.622662 157.34638,99.665075 C 157.52915,99.9781 157.90707,100.50321 158.25756,100.04584 z M 173.30408,108.34959 C 173.33639,108.95433 172.93662,108.88758 172.49957,108.58684 C 171.41569,108.12418 171.02092,106.95112 170.62662,105.9431 C 170.26959,104.97464 169.54087,104.22256 168.73685,103.60537 C 167.86744,102.96572 167.92862,101.7876 167.83181,100.82633 C 167.7933,100.07295 167.69474,99.054086 168.52919,98.680132 C 168.96454,98.421049 170.23842,98.06676 169.4515,97.467622 C 169.04432,97.258259 168.14946,97.477431 168.38203,96.827502 C 168.64736,96.47042 169.76818,96.872419 170.14764,97.14605 C 170.92974,97.698343 170.41546,98.809721 169.63132,99.03678 C 169.26581,99.216032 168.89526,99.384778 168.52722,99.558763 C 168.63053,100.5508 168.66407,101.57567 169.02305,102.51376 C 169.58926,103.33307 170.76325,103.62226 171.04734,104.66259 C 171.4458,105.86238 171.66788,107.26631 172.74698,108.07575 C 172.91484,108.19727 173.09388,108.31891 173.30408,108.34959 z" />
    <path
       sodipodi:nodetypes="cccccccccccsccssccccssccscccscsccccsccccccccccccccsscscsccccsscscscccsssccscscccccssscccccscccccccccccccccccssscscccssccccccsssscscccscscscccccsccsscccccccccscccccsscccscccccccccccccccccsccscccsccccsccccccccccccccscccccccsccscccccccsssccccsscscc"
       d="M 167.84062,122.13148 C 167.84355,123.47827 167.82595,123.60444 167.5384,124.18835 C 166.54957,126.2012 164.21102,126.87313 160.55796,126.19827 C 158.95883,125.90485 157.5067,125.49406 154.53994,124.50231 C 150.66681,123.20539 148.14927,122.66257 143.72158,122.16963 C 141.34195,121.90555 136.36557,121.76177 133.45808,121.87621 C 127.22879,122.12268 121.17556,123.23474 114.73472,125.31801 C 109.05413,127.15481 104.02786,128.35783 100.3748,128.75101 C 98.502783,128.95347 94.92894,128.98575 93.567477,128.81263 C 91.23773,128.51921 89.826385,128.17004 86.320028,127.01984 C 83.16284,125.98114 82.326596,125.62023 77.89597,123.36677 C 75.821498,122.31047 73.879064,121.36566 73.579777,121.26589 C 72.893177,121.03703 71.531713,121.02823 70.786429,121.24829 C 69.586345,121.60626 68.615128,122.59215 68.260091,123.81277 C 67.767148,125.50286 68.324644,127.21056 70.396181,130.37069 C 71.440753,131.96395 71.88675,132.97038 72.089209,134.191 C 72.156695,134.60179 72.253523,136.32709 72.303405,138.02599 C 72.403167,141.45019 72.458917,141.79642 73.177793,143.50705 C 74.063918,145.61967 74.175418,147.04275 73.691276,150.0591 C 72.643771,156.60234 73.039886,160.29648 74.847347,160.83608 C 75.765748,161.1119 76.648939,160.57494 77.890102,158.98754 C 78.292086,158.47406 78.63832,158.06914 78.658859,158.09261 C 78.682333,158.11315 78.843713,158.77628 79.022699,159.55971 C 80.169967,164.65346 80.93579,170.56879 81.311367,177.27048 C 81.499155,180.59491 81.346577,186.22562 81.038487,187.37553 C 80.929922,187.78045 80.630635,187.86261 80.545543,187.51344 C 80.434044,187.0384 80.357755,186.26964 80.19344,183.89265 C 79.97631,180.80001 79.967508,180.70025 79.518577,176.49879 C 79.075514,172.32608 78.072021,164.37178 77.972259,164.25705 C 77.95172,164.23065 77.743392,164.41257 77.505723,164.6561 C 75.624907,166.59267 72.711257,167.67538 69.369215,167.67538 C 66.534788,167.67538 64.354685,166.94184 62.20099,165.26055 C 58.30732,162.22659 55.607866,157.29716 53.815076,149.95581 C 53.105002,147.0539 52.257021,142.52938 51.887313,139.68322 C 51.825695,139.19614 51.599763,137.4591 51.385567,135.81889 C 51.174305,134.17868 50.892623,132.49152 50.763519,132.06606 C 50.634414,131.6406 49.736552,129.40475 48.765336,127.09848 C 45.367544,119.01478 44.287762,115.83412 43.615833,111.91991 C 43.190375,109.45813 43.105284,108.37248 43.111152,105.51751 C 43.117021,102.0317 43.310677,100.14795 44.120513,95.673307 C 44.185066,95.321204 43.868173,90.397634 43.659846,88.478674 C 43.580623,87.739258 43.26373,85.397775 42.95564,83.273421 C 41.283152,71.67457 41.060154,69.544348 41.118838,65.501035 C 41.180456,61.064541 41.726215,57.963102 43.031929,54.626929 C 44.305367,51.381714 46.866915,48.022067 48.568745,47.361874 C 48.721323,47.303191 49.187859,47.05085 49.610382,46.804378 C 52.145522,45.31381 54.756951,44.650683 58.060848,44.653617 C 60.904078,44.659486 62.937472,45.090812 65.182127,46.170593 C 68.040027,47.549662 70.055815,49.685752 71.798724,53.189176 C 72.1743,53.949131 72.646705,54.979031 72.84623,55.477844 C 73.24528,56.487205 73.515225,56.836373 73.515225,56.352232 C 73.515225,55.692039 71.39674,42.165425 71.255899,41.939492 C 71.185478,41.827993 70.551693,37.63797 70.314024,35.727813 C 70.055815,33.629867 70.026474,32.62344 70.231867,32.682124 C 70.448997,32.746676 71.044637,34.023049 71.534647,35.475472 C 72.406101,38.048757 74.289851,46.132449 74.289851,47.303191 C 74.289851,47.502715 74.413087,48.37417 74.562731,49.24269 C 75.798024,56.361035 76.393665,62.807449 76.035694,65.169472 C 75.962339,65.656547 75.909524,66.284464 75.915392,66.566146 C 75.938866,67.508021 76.464085,68.391212 77.33554,68.945774 C 77.540933,69.077812 77.540933,69.083681 77.329671,69.250929 C 77.212304,69.344824 76.90128,69.421112 76.6284,69.421112 C 75.454724,69.421112 74.803334,68.690499 73.917209,66.384226 C 73.342108,64.881921 73.001742,63.761061 72.684849,62.323308 C 72.186037,60.061048 71.496503,58.670242 70.328695,57.599263 C 68.961363,56.340495 67.420913,56.10576 65.689741,56.895057 C 63.289574,57.98951 62.781959,60.55986 63.914557,65.888348 C 64.087674,66.706987 64.351751,67.898268 64.501395,68.537921 C 66.024239,75.095835 66.443828,77.346359 67.338756,83.825049 C 68.004817,88.645923 68.339315,90.790815 68.506563,91.339509 C 68.967231,92.850616 69.906172,93.851175 72.743533,95.852292 C 73.500554,96.386315 74.172483,96.885127 74.234101,96.955547 C 74.292785,97.028902 74.691835,97.381005 75.117292,97.738976 C 75.54275,98.094013 76.44648,98.895047 77.127212,99.517095 C 77.928246,100.24184 78.614846,100.76413 79.060843,100.98126 C 79.985113,101.43312 81.507957,101.8175 83.450391,102.09038 C 86.393383,102.50703 86.93034,102.65374 90.903232,104.13844 C 94.295156,105.40601 97.047425,106.25106 99.699933,106.83496 C 106.05832,108.24044 114.10974,109.06201 121.53588,109.05908 C 127.38665,109.05908 130.85516,108.71871 138.47789,107.39246 C 143.62739,106.49753 145.81952,106.22759 149.18768,106.07501 C 154.6394,105.8256 158.25433,106.77041 161.32642,109.2498 C 162.25363,110.00095 163.29233,111.02499 163.49772,111.39176 C 163.57959,111.5414 163.96426,112.13118 164.34834,112.70041 C 165.5807,114.52841 166.90989,117.41272 167.53487,119.6251 C 167.79367,120.54115 167.83768,120.90792 167.84062,122.13148 z M 165.3847,123.94774 C 165.99208,123.77756 166.07717,123.54283 166.07424,122.01998 C 166.06837,120.07168 165.61944,118.6574 163.89413,115.15691 C 162.72662,112.78902 161.56468,111.2427 160.10023,110.11011 C 159.20823,109.41764 158.7681,109.17997 158.01988,108.98044 C 155.16198,108.21755 153.68579,110.60305 154.70102,114.34121 C 155.43164,117.03479 157.78192,120.57049 159.95909,122.24591 C 161.78445,123.65433 163.97336,124.34093 165.3847,123.94774 z M 162.15122,125.00699 L 162.98747,125.07447 L 162.15709,124.70183 C 159.47231,123.49294 157.30981,121.30991 155.49648,117.9708 C 154.84509,116.77072 154.07076,114.86349 153.75944,113.68688 C 153.41057,112.37237 153.40147,110.54143 153.7389,109.80495 C 154.02939,109.1653 154.66611,108.44642 155.29109,108.04737 L 155.76643,107.74515 L 155.01527,107.57497 C 152.53002,107.0116 150.54064,107.05855 144.44046,107.83318 C 128.05007,109.91645 125.88757,110.11891 118.93941,110.21867 C 112.07634,110.32137 109.21258,110.14825 103.15641,109.26506 C 97.868998,108.4963 94.330366,107.61018 89.852793,105.93475 C 86.545961,104.69653 85.926847,104.52048 83.670455,104.19185 C 82.790198,104.06568 81.449274,103.81627 80.692253,103.64315 C 79.932298,103.47004 78.776227,103.27051 78.124837,103.20302 C 76.587321,103.04458 73.703013,103.07392 72.576284,103.26171 C 69.809344,103.72238 68.060567,103.96885 67.280072,104.00993 C 66.247237,104.06568 65.129311,103.9307 64.706788,103.70184 C 64.422171,103.54632 64.448579,103.54046 65.252547,103.53459 C 66.531854,103.52872 68.550576,103.14141 70.14971,102.59565 C 71.813395,102.02641 73.163122,101.69192 74.178352,101.60096 C 75.680657,101.46305 75.818564,101.43077 75.891919,101.20484 C 75.932997,101.07574 75.868445,100.841 75.733472,100.62094 C 75.492869,100.23069 74.198891,99.013001 73.459475,98.478979 C 73.218872,98.302927 72.620297,97.82172 72.136156,97.407999 C 70.792297,96.2666 70.636785,96.237258 70.140907,97.041226 C 69.738923,97.689682 69.122743,98.320532 68.659141,98.561136 C 67.714332,99.048211 67.142165,99.136237 64.354685,99.218394 C 61.432232,99.30642 61.044919,99.379775 60.035558,100.04877 C 59.545548,100.37447 59.495667,100.3862 59.495667,100.17201 C 59.495667,100.08691 59.718666,99.819903 59.991545,99.5793 C 60.713356,98.945515 61.590679,98.704911 63.911622,98.505386 C 67.083481,98.232507 68.095777,97.783576 68.535905,96.451454 C 68.714891,95.908629 68.541774,95.436224 67.673254,94.095299 C 66.863417,92.848269 66.622814,92.331852 66.402749,91.37824 C 66.206159,90.524391 65.636926,86.360776 65.452072,84.406605 L 65.317099,82.998194 L 64.568881,82.998194 C 62.682197,82.998194 60.695751,83.670124 58.897092,84.920089 C 57.790903,85.688846 55.845535,87.569662 54.774556,88.910586 C 54.284546,89.520898 53.806273,90.087196 53.706511,90.169354 C 53.187159,90.60068 53.492315,89.655871 54.316822,88.279736 C 54.619044,87.777989 54.90366,87.340795 54.947673,87.308519 C 54.991686,87.276243 55.305644,86.900667 55.64601,86.475209 C 58.075519,83.441257 61.100669,81.539902 64.193305,81.108576 L 65.143982,80.976538 L 65.073562,80.193109 C 65.035417,79.761783 64.929786,78.840448 64.844695,78.145045 C 64.756669,77.449642 64.683314,76.809989 64.683314,76.724897 C 64.683314,76.507767 63.647545,76.631003 62.38291,76.994843 C 60.367121,77.575812 58.498043,78.682002 56.895975,80.237122 C 56.49986,80.618567 56.150691,80.903183 56.112547,80.867973 C 55.983442,80.738869 57.057356,79.39501 58.075519,78.412056 C 59.187577,77.338143 60.370056,76.481359 61.564271,75.888653 C 62.394646,75.477867 62.790762,75.342894 63.709163,75.160974 L 64.334146,75.037738 L 63.964438,73.63813 C 63.50377,71.898155 62.156977,67.752145 61.573073,66.273314 C 60.965696,64.741667 59.703995,62.256408 58.982184,61.167824 L 58.377741,60.258225 L 57.58551,60.261159 C 55.851404,60.264094 54.516347,60.80105 53.366145,61.960055 C 52.597387,62.737615 52.174864,63.403676 51.99001,64.128421 C 51.937195,64.336749 51.816893,64.782746 51.725933,65.114309 C 51.447185,66.111933 51.329817,67.576094 51.326883,70.029077 C 51.323949,74.811806 50.637349,79.890888 49.278819,85.175363 C 47.873416,89.676445 46.352739,94.105103 45.203229,98.704911 C 43.345887,107.72168 45.156282,116.18975 51.177239,126.63253 C 51.623236,127.41009 51.99001,128.08202 51.99001,128.12603 C 51.99001,128.17298 52.160193,128.53095 52.36852,128.92413 C 52.612058,129.3848 52.849727,130.10661 53.04045,130.96339 C 53.592077,133.44865 54.739346,136.59704 55.871943,138.73606 C 57.341972,141.50916 59.390036,143.98239 61.561337,145.60529 C 61.936913,145.88697 62.221529,146.13902 62.192187,146.16866 C 62.083622,146.27722 61.077195,145.99524 60.323109,145.64901 C 58.169413,144.65432 55.942364,142.33924 54.017535,139.09403 C 53.049252,137.46849 53.078594,137.5037 53.154883,138.08174 C 53.272251,139.01481 54.211191,144.31395 54.542755,145.91896 C 56.147757,153.71246 58.286781,158.61813 61.479179,161.8252 C 62.773157,163.12211 63.673953,163.7823 64.774274,164.23739 C 66.596406,164.98561 68.993639,165.28754 70.921401,165.01202 C 73.22474,164.68339 74.976451,163.79727 76.026891,162.42671 C 76.599058,161.68172 76.601992,161.56435 76.035694,161.83693 C 75.75988,161.97191 75.243463,162.09221 74.815071,162.12448 C 74.172483,162.1682 73.996432,162.13916 73.471212,161.88095 C 72.341549,161.32932 71.875013,160.48721 71.634409,158.56209 C 71.458358,157.17157 71.549318,154.13733 71.863276,150.83343 C 72.127353,148.06385 72.168432,145.96003 71.980644,144.94745 C 71.907289,144.566 71.693093,143.77084 71.505305,143.18077 C 71.170807,142.14207 71.159071,142.04847 71.135597,139.84753 C 71.12386,138.60343 71.056374,137.24784 70.985954,136.83705 C 70.874454,136.16219 70.378576,134.42221 70.228933,134.17281 C 70.208393,134.1376 70.146775,134.20802 70.079289,134.34299 L 69.29586,134.19628 C 69.507122,133.87645 69.645029,133.53315 69.650897,133.23974 C 69.650897,133.09596 69.257716,132.37708 68.773575,131.6406 C 67.708464,130.00919 66.96318,128.46874 66.65509,127.25105 C 66.467302,126.51164 66.435026,126.10966 66.47317,125.1179 C 66.531854,123.71829 66.807668,122.89965 67.661517,121.63208 C 68.309973,120.66967 70.026474,118.97077 71.308714,118.02303 C 72.855032,116.88163 73.755829,116.00431 74.433626,114.97147 C 75.258134,113.71857 75.586763,113.04664 75.783354,112.19279 C 76.003418,111.24798 76.003418,109.20579 75.783354,108.15828 C 75.689459,107.70642 75.613171,107.29563 75.613171,107.24282 C 75.613171,107.03742 75.974076,107.45995 76.22935,107.96463 C 76.704689,108.90063 76.854333,109.8249 76.798583,111.42404 C 76.698821,114.12936 76.029825,115.43801 73.318634,118.21082 L 72.297536,119.26126 L 73.034018,119.34635 C 74.33093,119.49306 75.968207,120.13271 79.157672,121.74065 C 83.054275,123.70362 83.884651,124.05279 87.370468,125.19712 C 92.144395,126.76398 93.573345,127.0486 97.02982,127.10141 C 99.652986,127.14249 101.31374,127.00752 103.87235,126.54978 C 106.96792,125.99229 110.21313,125.15604 114.08333,123.91195 C 122.12008,121.32986 128.46966,120.3117 136.51198,120.30876 C 143.42229,120.30876 148.86521,121.1098 154.15556,122.90259 C 157.79102,124.13847 160.64305,124.88668 162.15122,125.00699 z M 70.173183,55.243695 C 70.434326,55.396273 70.645588,55.466694 70.645588,55.402142 C 70.645588,55.193814 69.862159,53.717917 69.272387,52.808318 C 67.039469,49.375315 63.823597,47.294975 59.607166,46.549691 C 59.114223,46.464599 57.996296,46.40885 56.846094,46.411784 C 54.146639,46.423521 52.934819,46.690532 50.610941,47.784984 C 50.247101,47.955167 49.648527,48.228047 49.284687,48.386493 C 47.356925,49.237408 44.886337,53.509589 43.768411,57.931413 C 43.017258,60.909615 42.665155,64.195908 42.753181,67.432319 C 42.811865,69.571343 43.005521,71.704499 43.269599,73.063029 C 43.334151,73.397526 43.557149,74.68857 43.765477,75.932666 C 44.243749,78.805238 44.616392,81.437206 45.590542,88.904718 C 45.710844,89.814317 45.810607,90.586009 45.816475,90.615351 C 45.831146,90.697508 46.312353,89.638265 46.996019,88.021527 C 47.330517,87.23223 47.841066,85.897174 48.128616,85.052127 C 48.938423,83.358745 49.317966,81.573167 49.672,79.711902 C 50.156141,76.915619 50.302851,74.582939 50.385008,68.427009 C 50.420219,65.818515 50.464231,65.111375 50.646151,64.286868 C 51.10095,62.19479 51.881445,60.484158 52.785175,59.595098 C 53.392553,58.996524 54.442992,58.415554 55.109053,58.309923 C 55.795654,58.198424 55.417143,58.016504 54.393111,57.963689 C 53.668366,57.925545 53.339737,57.963689 52.80278,58.145609 C 51.564552,58.565198 50.001523,60.045197 49.061689,61.070996 C 48.0474,62.178057 47.625778,63.924921 47.46549,65.61899 C 47.406806,66.352537 47.330517,67.036203 47.289438,67.1389 C 47.098716,67.640646 46.866915,67.091953 46.679127,65.686476 C 46.24732,62.592564 47.146408,59.688024 49.308161,57.993031 C 50.593336,56.945525 52.098575,56.36749 53.521657,56.373358 C 56.411834,56.385095 58.744515,58.295252 61.429298,62.849115 C 61.505587,62.978219 61.540797,62.561564 61.546666,61.45244 C 61.552534,60.1702 61.602415,59.703663 61.80194,58.987721 C 62.29195,57.230142 63.131128,56.211978 64.750801,55.416812 C 66.672695,54.472003 68.744233,54.407451 70.173183,55.243695 z"
       id="path52" />
    <path
       d="M 69.29586,134.19687 L 70.079289,134.34358 C 70.044079,134.41106 70.005934,134.49322 69.96779,134.58712 C 69.639161,135.42629 69.231308,135.97792 68.682615,136.32709 C 67.919725,136.8083 67.497202,136.89926 66.214961,136.85231 C 64.818287,136.79949 64.143423,136.51781 63.201549,135.59061 C 62.374107,134.77784 61.576008,133.13763 61.203366,131.48861 C 60.927552,130.26212 60.598922,127.325 60.598922,126.0809 C 60.598922,124.91309 60.425805,124.44656 59.727468,123.74235 C 59.387102,123.39905 58.492174,122.69778 57.735153,122.1843 C 56.071468,121.0517 54.583834,119.61688 53.721182,118.31117 C 53.069792,117.32234 52.168996,115.52955 52.039891,114.95739 C 52.010549,114.81948 51.904918,114.42336 51.781682,113.97443 L 52.562177,113.76024 C 52.659005,114.08593 52.764636,114.41456 52.879069,114.73439 C 53.891365,117.60109 55.070909,118.98896 57.99923,120.75241 C 58.955776,121.32751 60.035558,121.99064 60.393529,122.22537 C 61.995597,123.26701 62.250871,123.88026 62.415186,127.09906 C 62.60004,130.65237 62.955077,132.30138 63.805992,133.55722 C 64.351751,134.35825 64.612894,134.59005 65.390454,134.94509 C 65.942082,135.19743 66.182685,135.24144 66.989587,135.23557 C 67.514807,135.23264 68.069369,135.17982 68.221947,135.12114 C 68.620997,134.96856 69.020047,134.60472 69.29586,134.19687 z"
       id="path60" />
    <path
       d="M 69.184361,143.48945 C 69.62449,143.5628 69.982461,143.64467 69.982461,143.67107 C 69.982461,143.91461 68.045896,144.07306 66.951443,143.91784 C 64.780143,143.60946 62.611776,142.36859 60.760303,140.37011 C 59.319616,138.81499 57.881863,136.64692 58.292649,136.64692 C 58.357202,136.64692 59.114223,137.35406 59.97394,138.21964 C 62.001465,140.2589 63.19568,141.1509 65.337639,142.22188 C 66.352868,142.72949 68.125119,143.3134 69.184361,143.48945 z"
       id="path62" />
    <path
       d="M 52.562177,113.76024 L 51.781682,113.97443 C 51.740604,113.82479 51.696591,113.66928 51.652578,113.51963 C 51.274068,112.17578 50.866215,110.33897 50.537586,108.49924 C 50.335127,107.3549 50.291114,106.69178 50.285246,104.63491 C 50.279377,101.94426 50.420219,100.78819 50.963044,99.115698 C 51.329817,97.988969 52.069233,96.489598 52.327442,96.351691 C 52.594453,96.21085 52.594453,96.21085 52.306902,97.050028 C 52.180732,97.425605 52.036957,98.009508 51.99001,98.344006 C 51.943063,98.675569 51.813959,99.497142 51.705394,100.1632 C 51.432514,101.82982 51.435448,106.34261 51.708328,108.55499 C 51.813959,109.40297 51.940129,110.49742 51.99001,110.98156 C 52.072167,111.81194 52.274626,112.78315 52.562177,113.76024 z"
       id="path64" />
    <path
       d="M 44.792443,192.42293 C 45.200295,192.44347 44.836456,192.46107 43.985541,192.46107 C 43.13756,192.46107 42.803062,192.44347 43.246125,192.42293 C 43.689188,192.40239 44.384591,192.40239 44.792443,192.42293 z"
       id="path66" />
    <g
       id="g3195">
      <path
         id="path2421"
         d="M 66.96457,93.435083 C 76.049156,98.734423 81.727021,97.977376 81.727021,106.30491 C 81.727021,114.63245 82.105543,115.3895 77.941776,117.66064 C 73.778008,119.93179 72.642436,119.93179 68.478668,120.68884 C 64.3149,121.44589 55.987365,121.44589 53.337693,119.55326 C 50.688023,117.66064 46.524255,111.98278 46.524255,111.98278 L 37.818195,110.46868 L 40.467865,93.056558 C 40.467865,93.056558 43.117536,93.435083 46.145731,93.813608 C 49.173926,94.192131 51.066547,96.841804 55.230315,96.084753 C 59.394083,95.327706 65.828998,93.813608 66.96457,93.435083 z"
         style="fill:#6c6c6c;fill-opacity:1;fill-rule:evenodd;stroke:#000000;stroke-width:0.73354739;stroke-linecap:butt;stroke-linejoin:miter;stroke-miterlimit:4;stroke-dasharray:none;stroke-opacity:1" />
      <path
         transform="translate(37.451421,32.004085)"
         id="path3193"
         d="M 2.6140122,61.27247 L 4.2909257,61.617717 L 1.8248764,78.337531 L 0.098641969,77.992284 L 2.6140122,61.27247 z"
         style="fill:#6c6c6c;fill-opacity:1;fill-rule:evenodd;stroke:none;stroke-width:0.25000000000000000pt;stroke-linecap:butt;stroke-linejoin:miter;stroke-opacity:1" />
    </g>
    <path
       sodipodi:type="arc"
       style="fill:#ffffff;fill-opacity:1;fill-rule:evenodd;stroke:#000000;stroke-width:0.625;stroke-linecap:butt;stroke-linejoin:miter;stroke-miterlimit:4;stroke-dasharray:none;stroke-opacity:1"
       id="path3199"
       sodipodi:cx="-14.508084"
       sodipodi:cy="84.98703"
       sodipodi:rx="1.1160065"
       sodipodi:ry="2.3715138"
       d="M -13.392078,84.98703 A 1.1160065,2.3715138 0 1 1 -15.624091,84.98703 A 1.1160065,2.3715138 0 1 1 -13.392078,84.98703 z"
       transform="matrix(0.9757969,0.2186789,-0.2186789,0.9757969,109.35277,34.620414)" />
    <path
       sodipodi:type="arc"
       style="fill:#ffffff;fill-opacity:1;fill-rule:evenodd;stroke:#000000;stroke-width:0.625;stroke-linecap:butt;stroke-linejoin:miter;stroke-miterlimit:4;stroke-dasharray:none;stroke-opacity:1"
       id="path3201"
       sodipodi:cx="-14.508084"
       sodipodi:cy="84.98703"
       sodipodi:rx="1.1160065"
       sodipodi:ry="2.3715138"
       d="M -13.392078,84.98703 A 1.1160065,2.3715138 0 1 1 -15.624091,84.98703 A 1.1160065,2.3715138 0 1 1 -13.392078,84.98703 z"
       transform="matrix(0.9757969,0.2186789,-0.2186789,0.9757969,111.50674,29.348714)" />
    <path
       sodipodi:type="arc"
       style="fill:#ffffff;fill-opacity:1;fill-rule:evenodd;stroke:#000000;stroke-width:0.625;stroke-linecap:butt;stroke-linejoin:miter;stroke-miterlimit:4;stroke-dasharray:none;stroke-opacity:1"
       id="path3203"
       sodipodi:cx="-14.508084"
       sodipodi:cy="84.98703"
       sodipodi:rx="1.1160065"
       sodipodi:ry="2.3715138"
       d="M -13.392078,84.98703 A 1.1160065,2.3715138 0 1 1 -15.624091,84.98703 A 1.1160065,2.3715138 0 1 1 -13.392078,84.98703 z"
       transform="matrix(0.9757969,0.2186789,-0.2186789,0.9757969,110.11814,23.904978)" />
    <text
       xml:space="preserve"
       style="font-size:10px;font-style:normal;font-variant:normal;font-weight:normal;font-stretch:normal;text-align:start;line-height:100%;writing-mode:lr-tb;text-anchor:start;fill:#000000;fill-opacity:1;stroke:none;stroke-width:1pt;stroke-linecap:butt;stroke-linejoin:miter;stroke-opacity:1;font-family:Liberation Sans;-inkscape-font-specification:Liberation Sans"
       x="94.673416"
       y="118.47263"
       id="text2409"
       sodipodi:linespacing="100%"><tspan
         sodipodi:role="line"
         id="tspan2411"
         x="94.673416"
         y="118.47263">ear canal</tspan></text>
    <text
       xml:space="preserve"
       style="font-size:10px;font-style:normal;font-variant:normal;font-weight:normal;font-stretch:normal;text-align:end;line-height:100%;writing-mode:lr-tb;text-anchor:end;fill:#000000;fill-opacity:1;stroke:none;stroke-width:1pt;stroke-linecap:butt;stroke-linejoin:miter;stroke-opacity:1;font-family:Liberation Sans;-inkscape-font-specification:Liberation Sans"
       x="191.4695"
       y="143.26085"
       id="text2413"
       sodipodi:linespacing="100%"><tspan
         sodipodi:role="line"
         id="tspan2415"
         x="191.4695"
         y="143.26085">middle</tspan><tspan
         sodipodi:role="line"
         x="191.4695"
         y="153.26085"
         id="tspan2417">ear</tspan></text>
    <text
       xml:space="preserve"
       style="font-size:10px;font-style:normal;font-variant:normal;font-weight:normal;font-stretch:normal;text-align:start;line-height:100%;writing-mode:lr-tb;text-anchor:start;fill:#000000;fill-opacity:1;stroke:none;stroke-width:1pt;stroke-linecap:butt;stroke-linejoin:miter;stroke-opacity:1;font-family:Liberation Sans;-inkscape-font-specification:Liberation Sans"
       x="221.95224"
       y="132.03035"
       id="text2419"
       sodipodi:linespacing="100%"><tspan
         sodipodi:role="line"
         id="tspan2421"
         x="221.95224"
         y="132.03035">inner</tspan><tspan
         sodipodi:role="line"
         x="221.95224"
         y="142.03035"
         id="tspan2423">ear</tspan></text>
    <text
       xml:space="preserve"
       style="font-size:10px;font-style:normal;font-variant:normal;font-weight:normal;font-stretch:normal;text-align:start;line-height:100%;writing-mode:lr-tb;text-anchor:start;fill:#000000;fill-opacity:1;stroke:none;stroke-width:1pt;stroke-linecap:butt;stroke-linejoin:miter;stroke-opacity:1;font-family:Liberation Sans;-inkscape-font-specification:Liberation Sans"
       x="258.68549"
       y="-15.884706"
       id="text2425"
       sodipodi:linespacing="100%"
       transform="matrix(0.7346426,0.6784543,-0.6784543,0.7346426,0,0)"><tspan
         sodipodi:role="line"
         id="tspan2427"
         x="258.68549"
         y="-15.884706">Eustachian</tspan><tspan
         sodipodi:role="line"
         x="258.68549"
         y="-5.8847055"
         id="tspan2429">tube</tspan></text>
    <text
       xml:space="preserve"
       style="font-size:10px;font-style:normal;font-variant:normal;font-weight:normal;font-stretch:normal;text-align:start;line-height:100%;writing-mode:lr-tb;text-anchor:start;fill:#000000;fill-opacity:1;stroke:none;stroke-width:1pt;stroke-linecap:butt;stroke-linejoin:miter;stroke-opacity:1;font-family:Liberation Sans;-inkscape-font-specification:Liberation Sans"
       x="13.386096"
       y="120.79987"
       id="text2431"
       sodipodi:linespacing="100%"><tspan
         sodipodi:role="line"
         id="tspan2433"
         x="13.386096"
         y="120.79987">probe</tspan></text>
  </g>
</svg>
