<?xml version="1.0" encoding="UTF-8" standalone="no"?>
<!-- Created with Inkscape (http://www.inkscape.org/) -->
<svg
   xmlns:dc="http://purl.org/dc/elements/1.1/"
   xmlns:cc="http://web.resource.org/cc/"
   xmlns:rdf="http://www.w3.org/1999/02/22-rdf-syntax-ns#"
   xmlns:svg="http://www.w3.org/2000/svg"
   xmlns="http://www.w3.org/2000/svg"
   xmlns:sodipodi="http://inkscape.sourceforge.net/DTD/sodipodi-0.dtd"
   xmlns:inkscape="http://www.inkscape.org/namespaces/inkscape"
   width="744.09448819"
   height="1052.3622047"
   id="svg2"
   sodipodi:version="0.32"
   sodipodi:docbase="/home/bcrowell/Documents/writing/lm/trunk/3vw/ch03/figs"
   sodipodi:docname="wave-patterns-three-d.svg">
  <defs
     id="defs4">
    <marker
       inkscape:stockid="Arrow2Mend"
       orient="auto"
       refY="0.0"
       refX="0.0"
       id="Arrow2Mend"
       style="overflow:visible;">
      <path
         sodipodi:nodetypes="cccc"
         id="path2385"
         style="font-size:12.0;fill-rule:evenodd;stroke-width:0.62500000;stroke-linejoin:round;"
         d="M 8.7185878,4.0337352 L -2.2072895,0.016013256 L 8.7185884,-4.0017078 C 6.9730900,-1.6296469 6.9831476,1.6157441 8.7185878,4.0337352 z "
         transform="scale(0.6) rotate(180) translate(-5,0)" />
    </marker>
  </defs>
  <sodipodi:namedview
     id="base"
     pagecolor="#ffffff"
     bordercolor="#666666"
     borderopacity="1.0"
     inkscape:pageopacity="0.0"
     inkscape:pageshadow="2"
     inkscape:zoom="1.3192061"
     inkscape:cx="182.97579"
     inkscape:cy="698.71222"
     inkscape:document-units="mm"
     inkscape:current-layer="layer1"
     inkscape:window-width="712"
     inkscape:window-height="779"
     inkscape:window-x="179"
     inkscape:window-y="179" />
  <metadata
     id="metadata7">
    <rdf:RDF>
      <cc:Work
         rdf:about="">
        <dc:format>image/svg+xml</dc:format>
        <dc:type
           rdf:resource="http://purl.org/dc/dcmitype/StillImage" />
      </cc:Work>
    </rdf:RDF>
  </metadata>
  <g
     inkscape:label="Layer 1"
     inkscape:groupmode="layer"
     id="layer1">
    <rect
       style="fill:#dedede;fill-opacity:1.0000000;fill-rule:evenodd;stroke:none;stroke-width:0.85692644pt;stroke-linecap:butt;stroke-linejoin:miter;stroke-opacity:1.0000000"
       id="rect2119"
       width="184.25197"
       height="170.11536"
       x="112.32091"
       y="188.73727" />
    <rect
       style="fill:#ffffff;fill-opacity:1.0000000;fill-rule:evenodd;stroke:#000000;stroke-width:0.87500000;stroke-linecap:butt;stroke-linejoin:miter;stroke-miterlimit:4.0000000;stroke-dasharray:none;stroke-opacity:1.0000000"
       id="rect2041"
       width="88.264671"
       height="88.264664"
       x="125.09234"
       y="260.05685" />
    <rect
       style="fill:#ffffff;fill-opacity:1.0000000;fill-rule:evenodd;stroke:#000000;stroke-width:0.87500000;stroke-linecap:butt;stroke-linejoin:miter;stroke-miterlimit:4.0000000;stroke-dasharray:none;stroke-opacity:1.0000000"
       id="rect2039"
       width="88.264671"
       height="88.264664"
       x="139.82736"
       y="248.96471" />
    <rect
       style="fill:#ffffff;fill-opacity:1.0000000;fill-rule:evenodd;stroke:#000000;stroke-width:0.87500000;stroke-linecap:butt;stroke-linejoin:miter;stroke-miterlimit:4.0000000;stroke-dasharray:none;stroke-opacity:1.0000000"
       id="rect2037"
       width="88.264671"
       height="88.264664"
       x="154.56236"
       y="237.87257" />
    <rect
       style="fill:#dedede;fill-opacity:1.0000000;fill-rule:evenodd;stroke:none;stroke-width:0.85692644pt;stroke-linecap:butt;stroke-linejoin:miter;stroke-opacity:1.0000000"
       id="rect2121"
       width="184.25197"
       height="170.11536"
       x="112.32091"
       y="365.42737" />
    <path
       style="fill:#ffffff;fill-opacity:1.0000000;fill-rule:evenodd;stroke:#000000;stroke-width:0.87500000;stroke-linecap:butt;stroke-linejoin:miter;stroke-miterlimit:4.0000000;stroke-dasharray:none;stroke-opacity:1.0000000"
       d="M 149.52183,469.00164 C 145.66242,469.09499 141.79076,469.50276 137.96744,470.25132 L 137.38358,470.25132 L 137.26066,470.37424 C 137.22323,470.38202 137.18539,470.38687 137.14798,470.39472 L 137.21968,470.41521 L 136.83044,470.79421 L 136.86117,470.68154 C 136.84474,470.72038 136.82642,470.77559 136.80995,470.81470 L 136.53339,471.09127 L 135.84709,473.34478 C 132.89481,480.96714 129.69851,491.78259 128.13392,500.90937 C 126.39028,511.08060 125.52189,516.88884 125.52189,516.88884 L 125.75749,515.92597 L 125.57311,517.07321 L 126.25941,517.18589 C 126.01426,517.23240 125.76641,517.25746 125.52189,517.30881 L 125.89065,517.40100 C 154.81849,511.58781 186.99963,526.79999 190.17729,530.26652 C 193.12924,533.48683 193.11004,533.47427 193.12734,533.49314 L 193.17856,533.50339 L 193.19905,533.52387 L 193.21953,533.51363 L 193.52683,533.58533 C 193.52683,533.58533 193.39353,533.44272 193.38342,533.43169 L 193.99802,533.12439 L 193.95705,533.30877 C 193.98097,533.25222 194.00476,533.17124 194.02875,533.11414 L 194.04924,533.10390 L 194.11069,532.90928 C 197.27533,525.32183 200.96758,513.10532 202.68430,503.09118 C 204.35634,493.33752 205.11526,488.21280 205.18365,487.75703 L 205.29632,487.26536 L 205.27584,487.20390 C 205.27585,487.20381 205.27461,487.18956 205.27584,487.18341 L 205.15292,486.70198 L 205.07097,486.65076 L 205.15292,486.67125 C 205.15292,486.67125 205.15369,486.66558 201.95702,483.17830 C 199.35973,480.34489 177.38616,469.65106 153.64986,469.01189 C 152.28045,468.97501 150.89995,468.96831 149.52183,469.00164 z "
       id="path2109" />
    <path
       style="fill:none;fill-opacity:1.0000000;fill-rule:evenodd;stroke:#000000;stroke-width:0.87500000;stroke-linecap:butt;stroke-linejoin:miter;stroke-miterlimit:4.0000000;stroke-dasharray:none;stroke-opacity:1.0000000"
       d="M 136.95447,470.64408 C 166.01513,464.54134 198.56307,479.94349 201.75974,483.43077 C 204.95642,486.91805 204.95642,486.91805 204.95642,486.91805"
       id="path2111" />
    <path
       style="fill:#ffffff;fill-opacity:1.0000000;fill-rule:evenodd;stroke:#000000;stroke-width:0.87500000;stroke-linecap:butt;stroke-linejoin:miter;stroke-miterlimit:4.0000000;stroke-dasharray:none;stroke-opacity:1.0000000"
       d="M 153.32967,448.09225 C 148.50542,448.20893 143.66584,448.71865 138.88669,449.65435 L 138.15686,449.65435 L 138.00321,449.80800 C 137.95643,449.81773 137.90913,449.82378 137.86236,449.83361 L 137.95199,449.85921 L 137.46544,450.33296 L 137.50385,450.19212 C 137.48331,450.24067 137.46041,450.30969 137.43983,450.35857 L 137.09412,450.70428 L 136.23625,453.52118 C 132.54590,463.04913 128.55053,476.56844 126.59479,487.97691 C 124.41523,500.69094 123.32976,507.95125 123.32976,507.95125 L 123.62425,506.74766 L 123.39378,508.18172 L 124.25165,508.32256 C 123.94521,508.38070 123.63541,508.41202 123.32976,508.47621 L 123.79070,508.59145 C 159.95049,501.32496 200.17693,520.34019 204.14900,524.67335 C 207.83894,528.69874 207.81494,528.68304 207.83657,528.70663 L 207.90059,528.71943 L 207.92619,528.74504 L 207.95180,528.73224 L 208.33592,528.82187 C 208.33592,528.82187 208.16930,528.64360 208.15667,528.62981 L 208.92491,528.24568 L 208.87370,528.47616 C 208.90360,528.40548 208.93334,528.30425 208.96332,528.23288 L 208.98893,528.22008 L 209.06576,527.97680 C 213.02156,518.49249 217.63687,503.22186 219.78276,490.70417 C 221.87282,478.51210 222.82146,472.10620 222.90695,471.53649 L 223.04779,470.92190 L 223.02218,470.84507 C 223.02220,470.84496 223.02065,470.82715 223.02218,470.81946 L 222.86854,470.21767 L 222.76610,470.15365 L 222.86854,470.17926 C 222.86854,470.17926 222.86949,470.17217 218.87367,465.81308 C 215.62705,462.27131 188.16009,448.90403 158.48971,448.10506 C 156.77796,448.05896 155.05232,448.05059 153.32967,448.09225 z "
       id="path2097" />
    <path
       style="fill:none;fill-opacity:1.0000000;fill-rule:evenodd;stroke:#000000;stroke-width:0.87500000;stroke-linecap:butt;stroke-linejoin:miter;stroke-miterlimit:4.0000000;stroke-dasharray:none;stroke-opacity:1.0000000"
       d="M 137.62047,450.14530 C 173.94630,442.51688 214.63123,461.76957 218.62707,466.12867 C 222.62291,470.48776 222.62291,470.48776 222.62291,470.48776"
       id="path2099" />
    <path
       style="fill:#ffffff;fill-opacity:1.0000000;fill-rule:evenodd;stroke:#000000;stroke-width:0.87500000;stroke-linecap:butt;stroke-linejoin:miter;stroke-miterlimit:4.0000000;stroke-dasharray:none;stroke-opacity:1.0000000"
       d="M 156.15785,426.91706 C 150.36874,427.05708 144.56124,427.66874 138.82627,428.79158 L 137.95047,428.79158 L 137.76609,428.97596 C 137.70995,428.98763 137.65320,428.99490 137.59708,429.00669 L 137.70463,429.03742 L 137.12077,429.60592 L 137.16686,429.43690 C 137.14221,429.49517 137.11473,429.57799 137.09004,429.63665 L 136.67518,430.05150 L 135.64574,433.43177 C 131.21733,444.86531 126.42287,461.08849 124.07599,474.77865 C 121.46052,490.03549 120.15795,498.74785 120.15795,498.74785 L 120.51134,497.30356 L 120.23477,499.02442 L 121.26422,499.19344 C 120.89649,499.26320 120.52473,499.30079 120.15795,499.37781 L 120.71108,499.51610 C 164.10283,490.79632 212.37456,513.61459 217.14104,518.81438 C 221.56897,523.64484 221.54017,523.62601 221.56612,523.65432 L 221.64294,523.66968 L 221.67367,523.70041 L 221.70440,523.68505 L 222.16535,523.79260 C 222.16535,523.79260 221.96540,523.57868 221.95024,523.56213 L 222.87213,523.10118 L 222.81067,523.37775 C 222.84656,523.29294 222.88225,523.17146 222.91823,523.08582 L 222.94896,523.07045 L 223.04115,522.77852 C 227.78811,511.39735 233.32648,493.07259 235.90155,478.05137 C 238.40962,463.42088 239.54799,455.73381 239.65058,455.05015 L 239.81959,454.31264 L 239.78886,454.22045 C 239.78888,454.22031 239.78702,454.19895 239.78886,454.18972 L 239.60448,453.46757 L 239.48156,453.39074 L 239.60448,453.42147 C 239.60448,453.42147 239.60563,453.41297 234.81064,448.18205 C 230.91469,443.93193 197.95434,427.89120 162.34989,426.93243 C 160.29579,426.87712 158.22503,426.86707 156.15785,426.91706 z "
       id="path2085" />
    <path
       style="fill:none;fill-opacity:1.0000000;fill-rule:evenodd;stroke:#000000;stroke-width:0.87500000;stroke-linecap:butt;stroke-linejoin:miter;stroke-miterlimit:4.0000000;stroke-dasharray:none;stroke-opacity:1.0000000"
       d="M 137.30681,429.38072 C 180.89780,420.22661 229.71971,443.32984 234.51472,448.56076 C 239.30973,453.79168 239.30973,453.79168 239.30973,453.79168"
       id="path2087" />
    <rect
       style="fill:#ffffff;fill-opacity:1.0000000;fill-rule:evenodd;stroke:#000000;stroke-width:0.87500000;stroke-linecap:butt;stroke-linejoin:miter;stroke-miterlimit:4.0000000;stroke-dasharray:none;stroke-opacity:1.0000000"
       id="rect1306"
       width="88.264671"
       height="88.264664"
       x="169.29741"
       y="226.78046" />
    <path
       style="fill:#ffffff;fill-opacity:1.0000000;fill-rule:evenodd;stroke:#000000;stroke-width:0.87500000;stroke-linecap:butt;stroke-linejoin:miter;stroke-miterlimit:4.0000000;stroke-dasharray:none;stroke-opacity:1.0000000"
       d="M 159.95208,402.18637 C 153.29708,402.34733 146.62095,403.05048 140.02818,404.34126 L 139.02139,404.34126 L 138.80943,404.55322 C 138.74489,404.56665 138.67965,404.57500 138.61514,404.58855 L 138.73878,404.62387 L 138.06758,405.27741 L 138.12057,405.08311 C 138.09223,405.15009 138.06065,405.24530 138.03226,405.31273 L 137.55535,405.78963 L 136.37193,409.67550 C 131.28115,422.81918 125.76959,441.46889 123.07167,457.20672 C 120.06500,474.74556 118.56760,484.76105 118.56760,484.76105 L 118.97385,483.10072 L 118.65591,485.07898 L 119.83934,485.27327 C 119.41661,485.35348 118.98924,485.39668 118.56760,485.48523 L 119.20347,485.64420 C 169.08541,475.62018 224.57724,501.85143 230.05665,507.82896 C 235.14688,513.38193 235.11377,513.36027 235.14360,513.39282 L 235.23192,513.41048 L 235.26724,513.44581 L 235.30257,513.42815 L 235.83246,513.55179 C 235.83246,513.55179 235.60261,513.30587 235.58518,513.28684 L 236.64496,512.75695 L 236.57431,513.07489 C 236.61556,512.97739 236.65659,512.83774 236.69795,512.73929 L 236.73327,512.72162 L 236.83925,512.38603 C 242.29623,499.30255 248.66298,478.23692 251.62321,460.96894 C 254.50642,444.15015 255.81506,435.31330 255.93299,434.52739 L 256.12728,433.67956 L 256.09196,433.57358 C 256.09198,433.57342 256.08984,433.54886 256.09196,433.53826 L 255.88000,432.70809 L 255.73870,432.61978 L 255.88000,432.65510 C 255.88000,432.65510 255.88132,432.64533 250.36913,426.63201 C 245.89046,421.74619 208.00016,403.30621 167.07028,402.20404 C 164.70894,402.14045 162.32845,402.12890 159.95208,402.18637 z "
       id="path2059" />
    <path
       style="fill:none;fill-opacity:0.75000000;fill-rule:evenodd;stroke:#000000;stroke-width:3.7500000;stroke-linecap:butt;stroke-linejoin:miter;marker-end:url(#Arrow2Mend);stroke-miterlimit:4.0000000;stroke-dasharray:none;stroke-opacity:1.0000000"
       d="M 190.51804,296.28464 L 233.04397,260.92500"
       id="path1545" />
    <path
       style="fill:none;fill-opacity:0.75000000;fill-rule:evenodd;stroke:#000000;stroke-width:3.7500000;stroke-linecap:butt;stroke-linejoin:miter;marker-end:url(#Arrow2Mend);stroke-miterlimit:4.0000000;stroke-dasharray:none;stroke-opacity:1.0000000"
       d="M 189.46984,246.06159 L 231.99577,210.70195"
       id="path2206" />
    <path
       style="fill:none;fill-opacity:0.75000000;fill-rule:evenodd;stroke:#000000;stroke-width:3.7500000;stroke-linecap:butt;stroke-linejoin:miter;marker-end:url(#Arrow2Mend);stroke-miterlimit:4.0000000;stroke-dasharray:none;stroke-opacity:1.0000000"
       d="M 237.22583,296.09167 L 279.75176,260.73203"
       id="path2208" />
    <path
       style="fill:none;fill-opacity:0.75000000;fill-rule:evenodd;stroke:#000000;stroke-width:3.7500000;stroke-linecap:butt;stroke-linejoin:miter;marker-end:url(#Arrow2Mend);stroke-miterlimit:4.0000000;stroke-dasharray:none;stroke-opacity:1.0000000"
       d="M 235.70977,245.30354 L 278.23570,209.94390"
       id="path2210" />
    <path
       style="fill:none;fill-opacity:0.75000000;fill-rule:evenodd;stroke:#000000;stroke-width:3.7500000;stroke-linecap:butt;stroke-linejoin:miter;marker-end:url(#Arrow2Mend);stroke-miterlimit:4.0000000;stroke-dasharray:none;stroke-opacity:1.0000000"
       d="M 215.34866,485.86944 L 254.63099,446.93796"
       id="path2233" />
    <path
       style="fill:none;fill-opacity:0.75000000;fill-rule:evenodd;stroke:#000000;stroke-width:3.7500000;stroke-linecap:butt;stroke-linejoin:miter;marker-end:url(#Arrow2Mend);stroke-miterlimit:4.0000000;stroke-dasharray:none;stroke-opacity:1.0000000"
       d="M 152.79140,472.05235 L 154.96945,416.78921"
       id="path2235" />
    <path
       style="fill:none;fill-opacity:0.75000000;fill-rule:evenodd;stroke:#000000;stroke-width:3.7500000;stroke-linecap:butt;stroke-linejoin:miter;marker-end:url(#Arrow2Mend);stroke-miterlimit:4.0000000;stroke-dasharray:none;stroke-opacity:1.0000000"
       d="M 227.81988,436.93721 L 266.41677,397.32609"
       id="path2237" />
    <path
       style="fill:none;fill-opacity:0.75000000;fill-rule:evenodd;stroke:#000000;stroke-width:3.7500000;stroke-linecap:butt;stroke-linejoin:miter;marker-end:url(#Arrow2Mend);stroke-miterlimit:4.0000000;stroke-dasharray:none;stroke-opacity:1.0000000"
       d="M 167.82540,424.17473 L 170.96759,368.95801"
       id="path2241" />
  </g>
</svg>
