<?xml version="1.0" encoding="iso-8859-1"?>
<!-- Generator: Adobe Illustrator 11 Build 196, SVG Export Plug-In . SVG Version: 6.0.0 Build 78)  -->
<!DOCTYPE svg PUBLIC "-//W3C//DTD SVG 1.0//EN"    "http://www.w3.org/TR/2001/REC-SVG-20010904/DTD/svg10.dtd" [
	<!ENTITY ns_flows "http://ns.adobe.com/Flows/1.0/">
	<!ENTITY ns_svg "http://www.w3.org/2000/svg">
	<!ENTITY ns_xlink "http://www.w3.org/1999/xlink">
]>
<svg
	 width="146.064" height="66.732" viewBox="0 0 146.064 66.732" style="overflow:visible;enable-background:new 0 0 146.064 66.732"
	 xml:space="preserve">
	<style type="text/css">
	
	</style>
	<g id="Layer_1">
		<path style="fill:none;stroke:#000000;" d="M59.613,31.042h1.328c0,0,1.434,3.281,1.75,5.168c0.279,1.667,1.555,5.034,1.9,4.794
			s0.821-20.376,1.252-20.136c0.432,0.24,2.333,9.589,2.678,11.267c0.345,1.678,2.03,8.15,2.375,9.109s1.188-10.188,1.835-10.188
			c0.648,0,5.334,0,5.334,0h5.566h4.794"/>
		<path style="fill:none;stroke:#000000;" d="M87.528,31.042h1.328c0,0,1.434,3.281,1.75,5.168c0.279,1.667,1.555,5.034,1.9,4.794
			s0.821-20.376,1.252-20.136c0.432,0.24,2.333,9.589,2.678,11.267c0.345,1.678,2.03,8.15,2.375,9.109
			c0.345,0.959,1.188-10.188,1.835-10.188s5.334,0,5.334,0h5.566h4.794"/>
		<path style="fill:none;stroke:#000000;" d="M115.443,31.042h1.328c0,0,1.434,3.281,1.75,5.168c0.279,1.667,1.555,5.034,1.9,4.794
			s0.821-20.376,1.252-20.136c0.432,0.24,2.333,9.589,2.678,11.267c0.345,1.678,2.03,8.15,2.375,9.109s1.188-10.188,1.835-10.188
			s5.334,0,5.334,0h5.566h4.794"/>
		<path style="fill:none;stroke:#000000;" d="M31.698,31.042h1.328c0,0,1.433,3.281,1.749,5.168c0.279,1.667,1.555,5.034,1.9,4.794
			s0.821-20.376,1.253-20.136c0.432,0.24,2.332,9.589,2.678,11.267c0.345,1.678,2.03,8.15,2.375,9.109
			c0.345,0.959,1.188-10.188,1.836-10.188c0.648,0,5.334,0,5.334,0h5.566h4.794"/>
		<line style="fill:none;stroke:#000000;stroke-width:0.5;" x1="37.72" y1="18.733" x2="37.72" y2="5.71"/>
		<line style="fill:none;stroke:#000000;stroke-width:0.5;" x1="65.893" y1="18.733" x2="65.893" y2="5.71"/>
		<g>
			<line style="fill:none;stroke:#000000;stroke-width:0.5;" x1="39.58" y1="12.412" x2="64.032" y2="12.412"/>
			<path d="M65.476,12.412c-0.679,0.252-1.522,0.683-2.044,1.138l0.411-1.138l-0.411-1.137C63.954,11.73,64.797,12.16,65.476,12.412
				z"/>
			<path d="M38.137,12.412c0.679-0.252,1.522-0.682,2.044-1.137l-0.411,1.137l0.411,1.138
				C39.659,13.094,38.816,12.664,38.137,12.412z"/>
		</g>
		<g>
			<text transform="matrix(1 0 0 1 47.2812 9)"><tspan x="0" y="0" style="font-family:'Symbol'; font-size:9;">&#x3BB;</tspan></text>
		</g>
		<polyline style="fill:none;stroke:#000000;stroke-width:0.5;" points="25.228,4.173 25.228,54.406 142.969,54.406 "/>
		<g>
			<text transform="matrix(1 0 0 1 141.564 62.7158)"><tspan x="0" y="0" style="font-family:Liberation Sans; font-size:7.650000;">x</tspan></text>
		</g>
		<g>
			<text transform="matrix(1 0 0 1 0 23.5479)"><tspan x="0" y="0" style="font-family:Liberation Sans; font-size:7.650000;">height</tspan></text>
		</g>
	</g>
</svg>
