<?xml version="1.0" encoding="iso-8859-1"?>
<!-- Generator: Adobe Illustrator 11 Build 196, SVG Export Plug-In . SVG Version: 6.0.0 Build 78)  -->
<!DOCTYPE svg PUBLIC "-//W3C//DTD SVG 1.0//EN"    "http://www.w3.org/TR/2001/REC-SVG-20010904/DTD/svg10.dtd" [
	<!ENTITY ns_flows "http://ns.adobe.com/Flows/1.0/">
	<!ENTITY ns_svg "http://www.w3.org/2000/svg">
	<!ENTITY ns_xlink "http://www.w3.org/1999/xlink">
]>
<svg
	 width="147.401" height="150.133" viewBox="0 0 147.401 150.133"
	 style="overflow:visible;enable-background:new 0 0 147.401 150.133" xml:space="preserve">
	<metadata>
<?xpacket begin='﻿' id='W5M0MpCehiHzreSzNTczkc9d'?><x:xmpmeta xmlns:x='adobe:ns:meta/' x:xmptk='XMP toolkit 3.0-29, framework 1.6'>
<rdf:RDF xmlns:rdf='http://www.w3.org/1999/02/22-rdf-syntax-ns#' xmlns:iX='http://ns.adobe.com/iX/1.0/'>

 <rdf:Description rdf:about=''
  xmlns:pdf='http://ns.adobe.com/pdf/1.3/'>
 </rdf:Description>

 <rdf:Description rdf:about=''
  xmlns:tiff='http://ns.adobe.com/tiff/1.0/'>
 </rdf:Description>

 <rdf:Description rdf:about=''
  xmlns:xap='http://ns.adobe.com/xap/1.0/'
  xmlns:xapGImg='http://ns.adobe.com/xap/1.0/g/img/'>
  <xap:CreateDate>2006-07-16T22:46:11Z</xap:CreateDate>
  <xap:ModifyDate>2006-07-16T22:46:11Z</xap:ModifyDate>
  <xap:CreatorTool>Illustrator</xap:CreatorTool>
  <xap:Thumbnails>
   <rdf:Alt>
    <rdf:li rdf:parseType='Resource'>
     <xapGImg:format>JPEG</xapGImg:format>
     <xapGImg:width>252</xapGImg:width>
     <xapGImg:height>256</xapGImg:height>
     <xapGImg:image>/9j/4AAQSkZJRgABAgEASABIAAD/7QAsUGhvdG9zaG9wIDMuMAA4QklNA+0AAAAAABAASAAAAAEA&#xA;AQBIAAAAAQAB/+4ADkFkb2JlAGTAAAAAAf/bAIQABgQEBAUEBgUFBgkGBQYJCwgGBggLDAoKCwoK&#xA;DBAMDAwMDAwQDA4PEA8ODBMTFBQTExwbGxscHx8fHx8fHx8fHwEHBwcNDA0YEBAYGhURFRofHx8f&#xA;Hx8fHx8fHx8fHx8fHx8fHx8fHx8fHx8fHx8fHx8fHx8fHx8fHx8fHx8fHx8f/8AAEQgBAAD8AwER&#xA;AAIRAQMRAf/EAaIAAAAHAQEBAQEAAAAAAAAAAAQFAwIGAQAHCAkKCwEAAgIDAQEBAQEAAAAAAAAA&#xA;AQACAwQFBgcICQoLEAACAQMDAgQCBgcDBAIGAnMBAgMRBAAFIRIxQVEGE2EicYEUMpGhBxWxQiPB&#xA;UtHhMxZi8CRygvElQzRTkqKyY3PCNUQnk6OzNhdUZHTD0uIIJoMJChgZhJRFRqS0VtNVKBry4/PE&#xA;1OT0ZXWFlaW1xdXl9WZ2hpamtsbW5vY3R1dnd4eXp7fH1+f3OEhYaHiImKi4yNjo+Ck5SVlpeYmZ&#xA;qbnJ2en5KjpKWmp6ipqqusra6voRAAICAQIDBQUEBQYECAMDbQEAAhEDBCESMUEFURNhIgZxgZEy&#xA;obHwFMHR4SNCFVJicvEzJDRDghaSUyWiY7LCB3PSNeJEgxdUkwgJChgZJjZFGidkdFU38qOzwygp&#xA;0+PzhJSktMTU5PRldYWVpbXF1eX1RlZmdoaWprbG1ub2R1dnd4eXp7fH1+f3OEhYaHiImKi4yNjo&#xA;+DlJWWl5iZmpucnZ6fkqOkpaanqKmqq6ytrq+v/aAAwDAQACEQMRAD8A7ZD+dPk6bzyfJQFzDrMb&#xA;MLk3cYtIYqLVfiuGjMnqbcBErFq1+zUhVnuKuxV2KuxV5npX5sa7J+Zt/wCSNV0COxgtJxHBrrXT&#xA;LbzrMhltkjQwkevJHv6fqdmp9nFXpmKuxV2KuxV5hPqX5k2H5xyRCSNPIupmG2hW9DNW8jtllkFo&#xA;yHlHzjVvtDgzqwoGNcVen4q7FXYq7FXmP5saV+YN/wCZfJp8uahaafaWupGZUmMpa4uUtLiX05uC&#xA;/BAYInjJBYkvWnwiqr0xC5RTIArkDmqnkAe4BIWv3YquxV2KuxVhf5r6n52svLiReTHtU17UJ0s7&#xA;I3Sl2Mku9Yl+xVI1eVmfZVQni3TFU48irrC+SfL6a16v6ZTTrRNTM5Jl+tLAgn5k9W9QNU98VTzF&#xA;XYq7FWLfmJ50n8o6AdTtrFdVui4jh0sTmG4nJBJW3URzGR1HxEUFFBau2Kqv5deZNY8zeTtO8war&#xA;p6aXNqkf1mCxSQymO3k3hLOVTkzpR/sjrirJMVdirsVYx5//ADD8v+RtGGra0zG29RUaKFovW4ts&#xA;XSKR42kC/tBKtTelAcVQ/wDytHyz/gf/ABt6d9+gePqep9Tn9X0v9++jx5+n/l0403rTfFU9uvLu&#xA;iXeoPqF1ZxTXMtsbKZpFDCS3LiQRyKfhcK4qtRtU06nFUVYafYadaR2Vhbx2tnDUQ28KhI0BJaiq&#xA;tAoqegxVEYq7FXYqg7/R9K1C2ubW9tIriC8UJdI6AiQL9nl48f2fDtiqpp9kljZQ2iSSzJAoRJJ5&#xA;GllIHTnI5LMfdjXxxVEYq7FXYqlvmLRI9a0e405pWtpJOL213HQvBPEwkhmQHblHIqsAdjTfFUwQ&#xA;OEUSEM4A5so4gnuQCWp9+KrsVdirsVS3VdKkvb/RrlZAi6ZePdSKQSXVrO4tuI963AP0YqmWKuxV&#xA;2KuxVK5NDWbzJDrU83qC0tmt7G140WKSZ6zzFq/EzokaLt8IDbnmaKppirsVdirsVS6DQNMh1mfW&#xA;fTaXUp1EX1iVmkMUQA/dQhiREjFeTBKcm3NdsVR0MMUMSQwoscUahI40AVVVRQKoGwAGKr8Vdirs&#xA;VSa88neVrxdQFxpVq7aqpj1KT0lElwhFCksgAdlI2oT0xVNfQg9D0PTX0OPD0qDhwpTjx6UptTFV&#xA;TFXYq7FXYq7FXYq7FXYq7FXYq7FXYq7FXYq7FXYq7FXYq7FXYq7FXYq7FXYq7FXYq7FXYq7FXYq7&#xA;FXYq7FXYq7FXYq7FXYq7FXYq7FXYq7FXYq7FXYq7FXYq7FXYq7FXYq7FXYq7FXYq7FXYq7FXYq7F&#xA;XYq7FXYq7FXYq7FXYq7FXYq7FXYq7FXYq7FXYq7FXYq7FUo1zzVoWh3ek2up3S282t3YsNPVv252&#xA;RnVfp4ca/wAxA74qm+KuxV2KuxV2KuxV2KuxV2KuxV2KuxV2KuxV2KuxVhcf5xflvL5jn0GPXrM3&#xA;NpCZrq4M8SW8bcwgh9ZmVWkNSeK1pxPKm1VWVadqem6naJeabdw31pJUJc20iSxsVNDR0LKaHFUV&#xA;irsVUbuaSC1lmjgkupI0Zlt4igkkIFQieo0acj0HJgPfFXnfkb87tI8y3N+uoafL5Zt7O4+pRPrD&#xA;/V5JbpTSSEAr6IZKj4fVLVP2e+KvSQQwBBqDuCOhGKt4q7FWmVWUqwDKwoyncEHscVeT/lhpXnDy&#xA;XfnTPOGt3l9YanLLFoAuZI5oISkziK1klZWnErwIrx/veB+JKclHJV6zirsVdirsVeefmV+X/lfz&#xA;L5i8qXGtW0l1J9eltYv380QiT6hd3FYhE6BH9WCNuY+L4RvQYq9BReCKvItxAHJtyadziq7FXYq7&#xA;FUh856qbHRXht5p4tVvz9V0qOzERuZLlgWVY/WjniFApZ3dCqKCx6YqkH5ReUfN3lzS9VXzdqkms&#xA;63eX7SnUHkaRWtxEgiSMMF4Kp5fDxG9dqYqz3FXYq7FUl8yebNH0K3YXN3brqMiMbHT5JeMtxIAe&#xA;KIiLLK1T/JGx9sVSL8rfzNPn7S59QTQNQ0eCCRoTLeiIRSSxnjIkRV/Ub02BDExgV2rWoCrN8Vdi&#xA;rsVYt5g/M7yLoVnfXF5rVk8um8/rdlDcwPcqYzSRRDzDl13+CnLtSuKrv+Vm/l9/hn/FH+ILL9A0&#xA;/wB7vVXjypX0+P2/V/4r48+1K4qitP8AI/lXTfMU3mHTdOisdVuoTb3ktsoiWdCyuDKi0RnUrs9O&#xA;XatMVT3FXYq7FXYqh1sLFRcAW8fG8bndDiKSsUWMlx+0eCKu/YYqpaVo2kaRbvbaXZQ2Nu7mVoLa&#xA;NYo+bABm4oAKmmKo3FXYq7FUJqul2Gq6fPp9/F61pcLxkSpU7GqsrKQysrAMrKQVIqN8VU9Ds9Ss&#xA;9MhtdRvP0hcw8k+uFAjyRhj6bSAfD6nCnMrQFqkAA0CqPxV2KuxVJdfs7qfVfLcsMZeO01GSa5Yd&#xA;EjOnXcQY+3qSqv04qnWKpH5g86+WPL00cOr3wt5pI3n9NUklZYIyA88giVzHChPxSPRB3OKpzDND&#xA;PCk0LrLDKoeORCGVlYVDKRsQRiq/FWM6RoMFx5lvfMd7Ob3Ubd5bGw+HjBa21VJjhU1JdiP3slal&#xA;qr9lVAVZNirsVdirsVQOm6Ho2mNM2nWMFo9yxkuXhjVGkc9WkZQCx9ziqItLS1s7aO2tYlgt4hxj&#xA;iQBVA9gMVVsVdirsVS/XtD0/XdHutI1FWksL1PSu4kdozJESC8ZZCG4uPhah6E4qhP8ABHk79Bfo&#xA;D9CWP6EpT9HfV4vQ+fp8ePL364qneKuxV2KuxV2KuxV2KuxV2KuxV2KuxV2KuxV2KuxV2KvEbefz&#xA;Wfzt/MhbOw02/gWw0iJRq15PZhLFraRpBD6Vtd80aYvzrxoadamirJP+cb5b+T8kvKzXxYziCZUL&#xA;1r6KXMqwde3ohKe2KvQdQuLiCzkkt4TPcbLDEK0LuwVeRHRQTVj2G+Kq6RxxrxRQi1LUUUFWNSdv&#xA;EmuKrsVdirsVdirsVdirsVdirsVdirsVdirsVdirsVdirsVdirsVdirsVdirsVdirsVdiqA1bVrW&#xA;w+qRSTww3WoTi1sEnYqss5RpfTBAO/pxOR8sVW+vr69bK2cDqVuXDH5K0FP+GxVINf8AL3lrWroX&#xA;WvaJdx3Aha1e6geVTJbuatBK1hLzkhJ3KSjj7YqyPSZdIayih0pofqdsqxRQ2/EJGqDiqBV+xxAp&#xA;x7YqqcLttQEnqAWaRFRGNy0rNuW224Ku1D3NegxVE4q7FXYq7FXYq7FXYq7FXYq7FXYq7FXYq7FX&#xA;Yq7FXYq7FXYq7FXYq7FXYq7FXYq7FXYq80/NT8vNP80eZfJ9ze6jf2zQX7xWaWcqRLBIlnc3QuE5&#xA;I9ZfUtoxVqqFFOO5qq9JQMqKrNzYABmpSp8aDFV2KpdqllpThbm6X0pqpFHdRckmDSMEVVeP492Y&#xA;bdPHFURp9lHZWiW6MXoWZ5Gpyd3Ys7tSgqzEk4q8m/5xm8l6Np/kDS/My+rNreq2zRXFzLLIyrbx&#xA;3D+lBFEW9NESldlqWJJO+KvYsVdirsVdirsVdirsVdirsVdirsVSvVfM+gaULn6/exwvaRwyzQ1L&#xA;S0uWdIAsa1d2leJ1jVQSxFAK4qitMvZb2wiupbSaxeUFvqtzwEqCpC8xGzqCRQ0rUdDviqKxV2Ku&#xA;xVIB5+8mGxjvhrFqbaeSaK2IkBaZ7eV4JBCg+OWkkTAcAa02riqP0jWF1RJZYrO7toEIEUt5C1sZ&#xA;aipKxS8ZlA/y0X2riqYYq7FXm35jat+b9h5l0W28sQWU3lzUZhFeXAiY30DIhkKc5HaACYIVjdo6&#xA;BqBvdVkq+e9Igomtw3Hl+U0r+k4xHAC2wH1yNpbMsT+yJq+2KshhmhniSaGRZYpBySRCGVgehBGx&#xA;xVfirsVdirH/ADN/x2vKX/bVl/7pV9irIMVdiqDEkdzfPC0PJbMo6zN09Z1b4VFOqowNf8rFUZir&#xA;FrS98i+SNNtfLdnMlrFaIRZ6RAZry74Mxc8IE9e5cVbrQ4qxfzz5p/Nt5tHn8iaN6SXVyLSeHXI0&#xA;ETrIrOJ+EMouYViWNuXqFa7AKTSqr0y1F0LaIXbI90EX13iUpGXp8RRWZyFr0BY4qq4q0xIUkAsQ&#xA;KhRSp9hWgxVj0Pn3y2J47XUZn0a9kPFLbVI2tC7/AMsUkgEMx/4xO2KpnpOuaVqy3TafcLcfUrmW&#xA;yugvWOeBuLow7EdfcUPQ4qj8VdirsVSNvN+l2+p3WnakH0y4gSSeFrnisdzbxLykmgkUsrhB9tdn&#xA;XqVoQSqm31u2+q/W/UX6t6fq+tX4fTpy5V8Kb4qwW1/KK0T8yrj8wbrWr2fVZSEhswtuLSO3VDGk&#xA;QSSKVwQhPxo6tu3TkRir0DFXYq7FUDrej2etaRd6VemUWl7GYZ/QlkgkKN1AkiKutehoem2Ksf8A&#xA;y9/K7yr5Btrq18vxulvdSerSbhI6VABRZuAlZDStHZqHpirLsVdirsVdirRAYEEVB2IPQjFUkt/J&#xA;Xlq0vlvtPtP0bOJPVkFg8lrFK/czwwskU1f+LFOKp5irsVdirH/M3/Ha8pf9tWX/ALpV9irIMVWS&#xA;s6xO0aeo6qSsYIHIgbCp2FcVWWi3K2sQuWD3IQesyiil6fFQeFemKoXWdDstYhjgvHuFhRuZS3uZ&#xA;7bntTjIYHjZ1/wAkmhxVfpWi6PpFubfS7KCxgY8mjt40iDMerMFAqT4nFUbirsVdirsVUrm3juLe&#xA;WCRVZJVKsrqHXcU3Vqg/I4qw3yD+UHlDyNe3l9on1v63qFTePLcN6chryBNvF6VuCtTxpGOI2FBi&#xA;rN8VdirsVYx+YnkHTvPXlyTQNRvLmzs5XV5Hs/QEhK9Bymim4j/Voe1aVxVB/wDKvbn/AJVn/gX9&#xA;OXPp/Vf0f+l+CfWvqlePD+Xl6P7rnT3pXFWZ4q7FXYq7FXYq7FXYq7FXYq7FXYq7FXYq7FXYqles&#xA;aXcXuoaHcxMippl691OGJBKNZXNsAlAatzuFO9Nq/LFU0xVBzRpc3kXGfazfnNAvd2T4ORr0AblT&#xA;5HFUZirsVdirsVdirsVdirsVdirsVdirsVdirsVdirsVdirsVdirsVdirsVdirsVdirsVdirsVdi&#xA;q15I0Kh3ClzxQEgcmoTQV6mgxVSvbuGztJrqavpwoXYAVJoOgHcnoBirrS2hhV3jjMb3D+tMCSzF&#xA;2ABqST0AA+Q2xVXxV2KuxV2KuxV2KuxV2KuxV2KuxV2KuxV2KuxV2KuxV2KuxV2KuxV2KuxV2Kpf&#xA;rOrfo2O1f0vV+s3cFpTlx4+u4Tn0avGtaYqmGKuxV2KoLVtWs9Ks2urpiFrxjjXd5HPREHcn+07Y&#xA;q861S8u9XuRdXx4sv+80CMeMArWqMKHnUCr9fCgxVkPl7zVe3F9baZqBj+IPxu2FDMVA4R0FFWTq&#xA;T2NNh4KsxxV2KuxVL9T1b6je6Tbel6n6Uu2tOfLj6fG1nuudKHl/vNxpt1r2piqYYq7FXYq7FXYq&#xA;7FXYq7FXYq7FXYqlfmXVLjS9HkvbdUaVJIECyAlaSzpE3Qqfsuab4qmmKuxV2KuxVJPOF1c2ukwS&#xA;W8jRSNqWlxMyGhKTalbxyL8mRyp9jiqd4q7FXYq7FWP+cv8AebSv+2rYf8n1xVkGKuxVL9b1zT9H&#xA;tPrN49OR4wxAjnI9KhVrT7zsO+KvO7nU7jVbtry6lWSUbRwxtyjhQ/sp86fE3VvlQBV47D5k8/N5&#xA;L0vzGNerd3+qDT1tGtrY2/oyXclqGekay+opAaquF2px6nFWYaFfapF5u1byzqd/JqltDZW19b3N&#xA;wkMcq+q8kciN9XjhQjlGGU8ajxOKvVPK3nKJpItL1K5WSZzws7ssD6nhHJ/xZ4H9r59VWZYq7FWP&#xA;+Zv+O15S/wC2rL/3Sr7FWQYq7FXYq7FUk1K6uY/NeiW6SMsE8N600QPwsYxFwJHfjyNMVTvFXYq7&#xA;FXYqldxqlxH5n0/SlVDb3dle3UjkHmHtpbWNAprTiRctXbw+lVNMVYH+cfk/zT5m8rpB5W1SXTNa&#xA;t7iF4mWTjDJEZU9UTITwbgB6i1FarQfaOKsw0jThpul2tgLie7+rRrGbq6kaaeUqN3kkYkszHc/h&#xA;tiqMxV2KuxV5x+d1957sdE0yfyrZW2pB9T0+O6s5w4YSC9hktpFkRlonrIqSAg7NUEUNVXoFit6t&#xA;lAt9JHLeiNRcyQqY42kp8ZRGZ2VeXQFiad8VV8VdirsVY/5y/wB5tK/7ath/yfXFWQYq7FUn8zau&#xA;umWkDJZ/pC+u50tLC0LKgeaQFvikcEIiojMzUJoNgzUBVYdrkWox6qv6RFst21rE0iWissSgyzcV&#xA;Bf4mIHVqCvgMVefxflx6flHTPL36Rr+jdQTUfrXo/b4XbXXp8PU+GvPjy5Hxp2xVNJPLfpeZtR8x&#xA;/WOX1rTo7H6rwpx9F5JOfPlvX1KU4/Tiqd/mX+b1r5F1zyxpVvo76y+oI0uqWtnEZLqG3CUjkjVe&#xA;pLK5oeoRtxir0nQfMGja/pkWp6RdJd2U32ZEqCGH2kdTRkdf2lYAjuMVTHFWP+Zv+O15S/7asv8A&#xA;3Sr7FWQYq7FXYq7FXl/nO9/MmH82PLNlpFraTaHexXP+5KWOUtZqqxm6EoVwrllVfR6fExBqBir1&#xA;DFXYq7FXYq831v8ALzzPe/m5pPmK21y9g8sxWszajp6XDqPrCtDwij35pFP6aPIq/CfTNft4q9Ix&#xA;V2KuxV2KuxV2KuxV2KuxV2KuxV5/+av5VReeZNFmjvZdPm0+8jN9JBI8TXGnluU1uTGRuSAyE/ZN&#xA;fHFWeW9vBbwR29vGsUEKrHFEgCqqKKKqgbAADbFVTFUJqml6fqtjJY6hAtxay8S0bV+0jB0ZSKMr&#xA;IyhlZTVSARvirzLzZ5b12x1pRpurXk1v9WiES30J1BFCvL8HqqIp2pWtZJWbfriqUi087Drc2zE7&#xA;V/Rd4tPf/elq/Lb54qp3Om+cpoJY5L5VVkYD6tpc6SbjoGmmuF/4TFXqWheUrGymh1K6nuNT1ZY+&#xA;Md7fOrvEGUBlhjjWKCGoFGMcalv2icVT+g+/rireKvO/P/5R2fmzzj5c117mSC206Zv01ZI7Kl7C&#xA;sbmBZFB4txkbg1RvG7Lir0MAAUGwHQYq3irsVdirsVdirsVdirsVdirsVdirsVdirsVdirsVdirs&#xA;VdirsVdirsVdirsVdirsVdirsVdirsVdirsVdirsVdirsVdirsVdirsVdirsVdirsVdirsVdirsV&#xA;dirsVdirsVdirsVdirsVdirz/wDMn839E8jaz5d029AkbV7rjfEVP1Wy4spunp9lVl49eqh6dMVZ&#xA;+rKyhlIZWFVYbgg9xireKuxV2KuxV2KuxV2KuxV2KuxV2KuxV2KuxV2Ksdn876Xp93e2uug6Q9pH&#xA;NcwzTmsNzaQKZHmgkUUYpGKyRfbXwK0YqsgR0dFdGDIwBVgagg9CDiq7FXYqhtRu5rSzkuIbSa+k&#xA;SlLW3MQlarAHj6zwx/CDyNW6Dap2xVJF/MLywEdbmaSwvEV2Gn30MlpcyFFLMsEc4j9c0G3pFgfH&#xA;FU30bWdL1rSrXVtKuUu9OvYxLbXEZqrI36iOhB3B2OKo3FXYq7FXYqxe3/MzyTN5pl8p/pIQ+ZIZ&#xA;DE2lzRyxTMQvMMnJQrq0fxhlJHHFWUYq7FXYqx3zMifpvyoeIq2qyBjTqBpV91xVkIAUAAUA2AHQ&#xA;DFW8VdiqT+aPN/lryrpw1HzDqEWm2LOI1nmrxLkEhRQGpIB2xVW8veYNN8w6RBrGls8mnXY52k8k&#xA;bw+rH2kVJAr8W/ZJUV6jahxVMsVdirsVdirHrr8wfJlpqV/p13q9tbXWm+gt2ksipxkuQzRxLyI5&#xA;SFVrxXfceOKonSvMaapdFLXTr5bMKT+kbiD6rCWFPhWO4MVw1a7MIuP+ViqcYq7FXYqlGrebfLuk&#xA;STw6hfJDcW8UU729GaVkuHeOERxqC8jSPEyqiAsTtTcYq1+mdW/QP6U/Q031qvP9E+pF9Z9HnTx9&#xA;P1fT+L0+dK/Dy74qgPzB/L/R/PehHQ9YuLqHT3cSSJaSLGzMu68mZH6eH34qmflfQv0B5esNFF3N&#xA;fR6dCtvDdXPEzNFH8MfqFAqsypRa03pXFU0xV2KuxVK/M3l6x8xaHd6LftItlfJ6dx6JCuUJBZQx&#xA;DceQ2qN/Ag74qg/JfkTyv5L0o6V5btGsrBnMrQGaeccz9ph6zyUJ70xVkGKuxVI9TvPNz3jWukad&#xA;bJAvENqd9OQm4BJit4Vd5KVoQ7xb+1KqoZvKN7fg/p/W7u9VvtWdkzabaivgLdvrLDsVkuHHtiq7&#xA;RPy88naHrlxrel6XBaajcQR2plijVeMMZLcVoOrs3J26ttXoMVZHirsVdirH/M3/AB2vKX/bVl/7&#xA;pV9irIMVdirsVQOt6LpeuaTd6Rqtsl3p19G0NzbyfZZGHtuCOoI3B3G+KpFYflr5e0ywtrbR3udI&#xA;ntoUiF3YS+g0jIoX1Z4QPqs0jUqWkibfFVZYfPum19O4s9ftx9lLhTYXYXuTLEJoJW8B6UQ98VT+&#xA;0mlmtopZoHtpXUM9vIUZ0JG6sY2dCR/ksRiqtirRAIIPQ7bGh+8Yqw7yv+Uvknyt5hu9e0G1ltL+&#xA;/Vlvi9xNcLMztzMjfWGlYPWu6sOprirMsVdirsVdirBP+VRaNJ+Yr+f59S1CTXPhjgjWSNbaKBF4&#xA;CFYvTJKla8qt1YkUxVneKuxV2KuxV2KuxV2KuxV2KuxV2KuxV2KuxV2KuxVj/mb/AI7XlL/tqy/9&#xA;0q+xVkGKuxV2KuxV2KuxV2KuxV2KuxV2KuxV2KuxV2KuxV2KuxV2KuxV2KuxV2KuxV2KuxV2KuxV&#xA;2KuxV2Koe5sLS6ntJ54+ctjKbi1arDhI0UkBagIB/dzOKHbfxpiqIxV2KuxV2KuxV2KuxV2KuxV2&#xA;KuxV2KuxV2KuxV2KuxV2KuxV2KuxV2KuxV2KuxV2KuxV2KuxV2KuxV2KuxV2KuxV2KuxV2KuxV2K&#xA;uxV2KuxV2KuxV2KuxV2KpJrfnPyzolml9qeoQwWLTR28l1yDRRNMeMbTMtRGhei8m2BIriqcQzRT&#xA;RJNC6yRSKHjkQhlZWFQykbEEYqvxV2KuxVA6vrmj6NbLdatew2Fq8ixC5uXWKIO9eKs7UVeRFBU9&#xA;dupxVWsr+xvoPXsrmK6gJoJYXWRKjtyUkYqiMVdirsVSLzr5ri8qeXrnW5rC61GG2p6kFmIjL8R4&#xA;rtLJFWrELRatU7A4qo/l55ruPNvk7TvMk1l+jhqavNBZl/VZYfUZYiz0UEvGA/TatPfFWR4q7FXY&#xA;q82/NHzf590fzB5Ws/KujTajazX3PWnX0kEkAhlc20JlZOUhijkl+HoUUftUKr0dGDorCoDAEVBU&#xA;7+INCMVXYq7FXYq890H82W1H8x9X8h3Gh3UN/pcjFb+N4mtnt+EcqSN6jRSK3CeOqor9R44q9CxV&#xA;2KuxV2KpUvmryw2qR6SmrWcmqzFhHYJPG9weAJf90pL0XieRptiqa4q7FXYq7FUmvvN/lyy16z0C&#xA;e+jGsXyySQ2SnlIsUUbSPLKB/dxgL9pqAnYb4qj/ANJ6bw5/W4eFacvUSlfCtcVY15p/KfyF5ms4&#xA;LLUtIt1tYZ1ndLeOOBpeANI3kjVZAhYhiFYVoO1RirItH0bSdF06HTNJs4bDT7deMFrboI41HU0V&#xA;adTuT3OKo3FXYqo3a3TW0q2kkcN0VIhllQyxq9Ni0avEWHsHHzxVhnmf8rx5p0K+0vX9e1C8N9CY&#xA;qIy29tEW/aS2txEsnE7qJ2koflirJvLflvRPLei2ui6JaJZabZoEhgjH3sxO7Mx3ZjuT1xVM8Vdi&#xA;rRIUEk0A3JPQDFWJ6Xbz+aNRg1/UImi0W0f1PL+nyrxaRxUC/nRhUMQf3CH7C/G3xkBFWT2lpa2d&#xA;tHa2kSwW0Q4xQxgKijwUDYDFVbFXYq7FWP8Amb/jteUv+2rL/wB0q+xVkGKuxV2KuxVJNd8q2Opw&#xA;O8BFhqizLeWupwqPViu0jESynpzBjURurbMnwnbFV/lvWbzULaaDUbU2er2L+jqEADGIvSqywOwH&#xA;OGRfiQ9R9lqMrAKpxirsVdirBD+TnlFPO175vshPpuqahB6V01jNJbcpeYb1/wB0yglqfGrBlc0Y&#xA;itSVWT6Pp2tWUkiXurHU7TiPQM8EcdyGruXlg9KJ1p0AhU+5xVNMVdirsVYZqn5P/l9qPmm280y6&#xA;RAmtQSM806xoUuQ6lWFxEwaOQ71D8eYIB5YqyD/DHlr0vR/RNn6XLn6f1eLjypTlTjStMVTPFXYq&#xA;7FXYq7FXYq7FXYq7FXYq7FXYq7FXYq7FUJe6ZbXlzYXEpb1NNna5t+JoObQS255bbjhO300xVF4q&#xA;7FXYq7FXYq7FXYq7FXYq7FXYq7FXYq7FXYq7FXYq7FXYq7FXYq7FXYq7FXYq7FXYq7FXYq7FXYq7&#xA;FXYq7FXYq7FXYq7FXYq7FXYq7FXYq7FXYq7FXYq7FXYq7FXYq7FXYq7FXYq7FXYq7FXYq7FXYq7F&#xA;XYq7FXYq7FXYq7FXYq7FXYq7FXYq7FXYq7FXYq7FXYq7FUi81+d/LHlKC2ufMV5+j7O6kMMV3JHI&#xA;0IkpyCPIisqFhXjypWhxVM9L1TT9V0+DUdOuEurG5Xnb3MR5I6HoynuD44qisVdirsVY7508/wDl&#xA;TyVp6ah5ku3srKQlEnFvcTpz7KWhjkCsa7BqV+g4qmui6rbavpNnqtqsiW19ClxAJkMcnpyKGQsh&#xA;3UlTWh3xVG4q7FXYqw38zvzS8ufl5oT6nq4mnlYH6rZW6MzyvsAC9OEa1O7OflU7Yqyy0n+sWsNx&#xA;x4+tGsnGtacgDSuKq2KuxV2KsE/Mb83fLvkbV/Lum6m6+prl36MxrT6vbcSpuX8EWVkG/bkf2cVZ&#xA;0CCKjcHocVbxV2KuxVhOvfmv5f0D8wLLydq0csEup2aXdjfIrSxM5lkiaKRUUtHTgpDn4d9+NN1W&#xA;bYq7FXYq7FWI3n5qeTLLzj/g69uZ4PMLhGt7P6rcSeskgqrxPEkiFeoJJFKGvQ4qy7FXYq7FXYqx&#xA;m9/MryRZ+Y4fLUuqxt5gnkWGPS4VkluOTDkOSRq3FePxFmoANyaYqybFWH6/+U/kfzBEI9YsTqB+&#xA;sJctLdyyXMn7uQS+krztI0cTMKNHHxUrt0xVl0cccUaxxqEjQBURQAqqBQAAdAMVXYq7FXYqxDV/&#xA;y7sfMy3y+b5BqkNwJYbKyQGO2tIXqoeNCW5XBX7Ur1puECqSGVZcAFAAFANgB0AxVvFXYq7FWK6t&#xA;ow8y+YzZ6rZCby5pUJJhuErFd3l1GyH4W2eOC3cjupeT+aPFWTQQxwQRwRCkcShEBJJCqKDc1J+n&#xA;FVTFXYq7FWM+aLS1bXfK7tDGzzanJHKxUEug0q/+FjTcbnY4qyREREVEUKigBVAoAB0AGKrsVdir&#xA;sVY35r8qQX/LWdPt4l80WYil069aiszWpkeO3d+0Uonljf8AyZG9sVTvTbz69p1re+jLbfWYkm+r&#xA;3CGOaPmobhIh3V1rRh44qicVdirsVY7rvkHyzrerJrN7bkavDbG0ttRhYx3EKep6qtFKvxIyvWhB&#xA;6Eg1BIxVM9Gt9Xt7IQardJfXMbFUu0j9FpIx9hpUB4CSn2+FFJ3CqDxCqPxV2KuxVjmv/l75R1/W&#xA;rHWtW02G61CwjkhilkRW5RSj7D1Brwb40PVW3BFTVVFf4U0z9G/o31r76n6vrcfr956nSnp+t6vr&#xA;en34c+PtTbFX/9k=</xapGImg:image>
    </rdf:li>
   </rdf:Alt>
  </xap:Thumbnails>
 </rdf:Description>

 <rdf:Description rdf:about=''
  xmlns:dc='http://purl.org/dc/elements/1.1/'>
  <dc:format>image/svg+xml</dc:format>
 </rdf:Description>

</rdf:RDF>
</x:xmpmeta>
                                                                                                                                                                                                                                                                                                                                                                                                                                                                                                                                                                                                                                                                                                                                                                                                                                                                                                                                                                                                                                                                                                                                                                                                                                                                                                                                                                                                                                                                                                                                                                                                                                                                                                                                                                                                                                                                                                                                                                                                                                                                                                                                <?xpacket end='w'?>
			</metadata>
		<g id="Layer_1">
			<g>
				
					<line style="fill:none;stroke:#808080;stroke-width:0.5;stroke-dasharray:2;" x1="97.129" y1="27.799" x2="74.567" y2="75.049"/>
				<g>
					<g>
						<line style="fill:none;stroke:#000000;stroke-width:0.5;" x1="73.707" y1="59.096" x2="73.707" y2="43.195"/>
						<path d="M73.707,41.135c0.36,0.97,0.974,2.173,1.624,2.918l-1.624-0.587l-1.624,0.587
							C72.733,43.308,73.347,42.104,73.707,41.135z"/>
					</g>
					<g>
						<line style="fill:none;stroke:#000000;stroke-width:0.5;" x1="96.935" y1="68.049" x2="96.935" y2="80.7"/>
						<path d="M96.935,82.761c-0.359-0.97-0.974-2.173-1.624-2.918l1.624,0.587l1.624-0.587
							C97.909,80.588,97.295,81.791,96.935,82.761z"/>
					</g>
					<g>
						<line style="fill:none;stroke:#000000;stroke-width:0.5;" x1="120.164" y1="71.164" x2="120.164" y2="77.586"/>
						<path d="M120.164,79.646c-0.36-0.969-0.974-2.172-1.624-2.918l1.624,0.587l1.624-0.587
							C121.138,77.474,120.524,78.677,120.164,79.646z"/>
					</g>
					<g>
						<line style="fill:none;stroke:#000000;stroke-width:0.5;" x1="143.393" y1="72.234" x2="143.393" y2="76.516"/>
						<path d="M143.393,78.576c-0.36-0.969-0.974-2.172-1.624-2.918l1.624,0.587l1.624-0.587
							C144.367,76.404,143.753,77.607,143.393,78.576z"/>
					</g>
					<g>
						<line style="fill:none;stroke:#000000;stroke-width:0.5;" x1="73.707" y1="31.907" x2="73.707" y2="23.927"/>
						<path d="M73.707,21.867c0.36,0.969,0.974,2.172,1.624,2.918l-1.624-0.587l-1.624,0.587
							C72.733,24.039,73.347,22.836,73.707,21.867z"/>
					</g>
					<g>
						<line style="fill:none;stroke:#000000;stroke-width:0.5;" x1="91.938" y1="52.77" x2="101.933" y2="49.522"/>
						<path d="M103.893,48.885c-0.811,0.642-1.766,1.598-2.273,2.446l0.057-1.726l-1.061-1.362
							C101.525,48.63,102.859,48.843,103.893,48.885z"/>
					</g>
					<g>
						<line style="fill:none;stroke:#000000;stroke-width:0.5;" x1="117.203" y1="50.184" x2="123.126" y2="52.108"/>
						<path d="M125.085,52.745c-1.033,0.042-2.367,0.254-3.277,0.642l1.06-1.363l-0.057-1.725
							C123.32,51.147,124.274,52.104,125.085,52.745z"/>
					</g>
					<g>
						<line style="fill:none;stroke:#000000;stroke-width:0.5;" x1="141.706" y1="49.828" x2="145.08" y2="52.464"/>
						<path d="M146.705,53.73c-0.985-0.313-2.312-0.57-3.299-0.517l1.462-0.918l0.537-1.641
							C145.592,51.625,146.163,52.85,146.705,53.73z"/>
					</g>
					<g>
						<line style="fill:none;stroke:#000000;stroke-width:0.5;" x1="73.707" y1="7.315" x2="73.707" y2="2.061"/>
						<path d="M73.707,0c0.36,0.97,0.974,2.173,1.624,2.918l-1.624-0.587l-1.624,0.587C72.733,2.173,73.347,0.97,73.707,0z"/>
					</g>
					<g>
						<line style="fill:none;stroke:#000000;stroke-width:0.5;" x1="94.637" y1="30.561" x2="99.233" y2="25.273"/>
						<path d="M100.585,23.718c-0.364,0.968-0.69,2.279-0.689,3.268l-0.84-1.508l-1.61-0.622
							C98.425,24.719,99.678,24.214,100.585,23.718z"/>
					</g>
					<g>
						<line style="fill:none;stroke:#000000;stroke-width:0.5;" x1="117.665" y1="28.729" x2="122.663" y2="27.105"/>
						<path d="M124.623,26.468c-0.811,0.642-1.766,1.598-2.274,2.446l0.057-1.726l-1.06-1.362
							C122.255,26.213,123.589,26.426,124.623,26.468z"/>
					</g>
					<g>
						<line style="fill:none;stroke:#000000;stroke-width:0.5;" x1="141.45" y1="27.815" x2="145.336" y2="28.019"/>
						<path d="M147.397,28.128c-0.987,0.309-2.221,0.858-3,1.469l0.672-1.591l-0.501-1.652
							C145.278,27.042,146.447,27.718,147.397,28.128z"/>
					</g>
					<g>
						<line style="fill:none;stroke:#000000;stroke-width:0.5;" x1="95.748" y1="6.922" x2="98.123" y2="2.454"/>
						<path d="M99.089,0.631c-0.137,1.025-0.16,2.375,0.064,3.339l-1.158-1.281l-1.709-0.244
							C97.209,2.092,98.316,1.318,99.089,0.631z"/>
					</g>
					<g>
						<line style="fill:none;stroke:#000000;stroke-width:0.5;" x1="118.477" y1="6.006" x2="121.851" y2="3.37"/>
						<path d="M123.476,2.099c-0.542,0.881-1.112,2.105-1.3,3.076l-0.537-1.641l-1.462-0.918
							C121.165,2.669,122.491,2.412,123.476,2.099z"/>
					</g>
					<g>
						<line style="fill:none;stroke:#000000;stroke-width:0.5;" x1="141.728" y1="5.229" x2="145.059" y2="4.147"/>
						<path d="M147.019,3.51c-0.811,0.642-1.766,1.598-2.273,2.446l0.057-1.726l-1.06-1.362
							C144.651,3.255,145.985,3.468,147.019,3.51z"/>
					</g>
					<g>
						<line style="fill:none;stroke:#000000;stroke-width:0.5;" x1="73.707" y1="108.998" x2="73.707" y2="93.097"/>
						<path d="M73.707,91.037c-0.36,0.969-0.974,2.172-1.624,2.918l1.624-0.587l1.624,0.587
							C74.68,93.209,74.066,92.006,73.707,91.037z"/>
					</g>
					<g>
						<line style="fill:none;stroke:#000000;stroke-width:0.5;" x1="73.707" y1="128.266" x2="73.707" y2="120.287"/>
						<path d="M73.707,118.226c-0.36,0.97-0.974,2.173-1.624,2.918l1.624-0.587l1.624,0.587
							C74.68,120.398,74.066,119.195,73.707,118.226z"/>
					</g>
					<g>
						<line style="fill:none;stroke:#000000;stroke-width:0.5;" x1="103.84" y1="101.727" x2="93.845" y2="98.479"/>
						<path d="M91.885,97.843c0.811,0.642,1.766,1.597,2.274,2.446l-0.057-1.726l1.06-1.362
							C94.252,97.588,92.918,97.8,91.885,97.843z"/>
					</g>
					<g>
						<line style="fill:none;stroke:#000000;stroke-width:0.5;" x1="125.033" y1="96.908" x2="119.109" y2="98.832"/>
						<path d="M117.15,99.469c1.033,0.042,2.367,0.254,3.277,0.642l-1.06-1.363l0.057-1.725
							C118.915,97.872,117.961,98.828,117.15,99.469z"/>
					</g>
					<g>
						<line style="fill:none;stroke:#000000;stroke-width:0.5;" x1="146.6" y1="96.537" x2="143.226" y2="99.173"/>
						<path d="M141.601,100.439c0.985-0.313,2.312-0.57,3.299-0.518l-1.462-0.917l-0.537-1.641
							C142.713,98.334,142.144,99.559,141.601,100.439z"/>
					</g>
					<g>
						<line style="fill:none;stroke:#000000;stroke-width:0.5;" x1="73.707" y1="150.133" x2="73.707" y2="144.878"/>
						<path d="M73.707,142.817c-0.36,0.97-0.974,2.173-1.624,2.918l1.624-0.587l1.624,0.587
							C74.68,144.99,74.066,143.787,73.707,142.817z"/>
					</g>
					<g>
						<line style="fill:none;stroke:#000000;stroke-width:0.5;" x1="100.457" y1="126.303" x2="95.86" y2="121.015"/>
						<path d="M94.508,119.46c0.364,0.968,0.69,2.278,0.689,3.268l0.84-1.509l1.61-0.622
							C96.668,120.461,95.416,119.956,94.508,119.46z"/>
					</g>
					<g>
						<line style="fill:none;stroke:#000000;stroke-width:0.5;" x1="124.57" y1="124.121" x2="119.572" y2="122.497"/>
						<path d="M117.613,121.86c0.811,0.642,1.765,1.598,2.273,2.446l-0.057-1.726l1.06-1.363
							C119.98,121.606,118.646,121.818,117.613,121.86z"/>
					</g>
					<g>
						<line style="fill:none;stroke:#000000;stroke-width:0.5;" x1="147.388" y1="121.997" x2="143.501" y2="122.201"/>
						<path d="M141.44,122.31c0.987,0.309,2.221,0.859,3,1.469l-0.671-1.591l0.501-1.652
							C143.559,121.224,142.39,121.9,141.44,122.31z"/>
					</g>
					<g>
						<line style="fill:none;stroke:#000000;stroke-width:0.5;" x1="99.002" y1="149.421" x2="96.626" y2="144.954"/>
						<path d="M95.66,143.13c0.138,1.025,0.161,2.375-0.063,3.339l1.158-1.281l1.709-0.244
							C97.54,144.592,96.433,143.818,95.66,143.13z"/>
					</g>
					<g>
						<line style="fill:none;stroke:#000000;stroke-width:0.5;" x1="123.371" y1="147.899" x2="119.997" y2="145.263"/>
						<path d="M118.372,143.992c0.542,0.88,1.113,2.105,1.3,3.076l0.537-1.641l1.462-0.918
							C120.684,144.562,119.357,144.306,118.372,143.992z"/>
					</g>
					<g>
						<line style="fill:none;stroke:#000000;stroke-width:0.5;" x1="146.966" y1="146.538" x2="143.634" y2="145.456"/>
						<path d="M141.674,144.819c0.811,0.642,1.766,1.597,2.274,2.446l-0.057-1.726l1.06-1.362
							C144.042,144.564,142.708,144.776,141.674,144.819z"/>
					</g>
					<g>
						<line style="fill:none;stroke:#000000;stroke-width:0.5;" x1="50.466" y1="68.049" x2="50.466" y2="80.7"/>
						<path d="M50.466,82.761c0.36-0.97,0.974-2.173,1.624-2.918l-1.624,0.587l-1.624-0.587
							C49.492,80.588,50.106,81.791,50.466,82.761z"/>
					</g>
					<g>
						<line style="fill:none;stroke:#000000;stroke-width:0.5;" x1="27.237" y1="71.164" x2="27.237" y2="77.586"/>
						<path d="M27.237,79.646c0.36-0.969,0.974-2.172,1.624-2.918l-1.624,0.587l-1.624-0.587
							C26.263,77.474,26.877,78.677,27.237,79.646z"/>
					</g>
					<g>
						<line style="fill:none;stroke:#000000;stroke-width:0.5;" x1="4.008" y1="72.234" x2="4.008" y2="76.516"/>
						<path d="M4.008,78.576c0.359-0.969,0.974-2.172,1.623-2.918l-1.623,0.587l-1.624-0.587
							C3.034,76.404,3.648,77.607,4.008,78.576z"/>
					</g>
					<g>
						<line style="fill:none;stroke:#000000;stroke-width:0.5;" x1="55.463" y1="52.77" x2="45.468" y2="49.522"/>
						<path d="M43.508,48.885c0.811,0.642,1.766,1.598,2.274,2.446l-0.057-1.726l1.06-1.362
							C45.875,48.63,44.542,48.843,43.508,48.885z"/>
					</g>
					<g>
						<line style="fill:none;stroke:#000000;stroke-width:0.5;" x1="30.199" y1="50.184" x2="24.275" y2="52.108"/>
						<path d="M22.315,52.745c1.033,0.042,2.367,0.254,3.277,0.642l-1.061-1.363l0.057-1.725
							C24.081,51.147,23.126,52.104,22.315,52.745z"/>
					</g>
					<g>
						<line style="fill:none;stroke:#000000;stroke-width:0.5;" x1="5.695" y1="49.828" x2="2.321" y2="52.464"/>
						<path d="M0.696,53.73c0.986-0.313,2.312-0.57,3.299-0.517l-1.462-0.918l-0.537-1.641C1.809,51.625,1.239,52.85,0.696,53.73z"
							/>
					</g>
					<g>
						<line style="fill:none;stroke:#000000;stroke-width:0.5;" x1="52.764" y1="30.561" x2="48.167" y2="25.273"/>
						<path d="M46.815,23.718c0.365,0.968,0.69,2.279,0.689,3.268l0.84-1.508l1.61-0.622C48.976,24.719,47.723,24.214,46.815,23.718
							z"/>
					</g>
					<g>
						<line style="fill:none;stroke:#000000;stroke-width:0.5;" x1="29.736" y1="28.729" x2="24.738" y2="27.105"/>
						<path d="M22.778,26.468c0.811,0.642,1.765,1.598,2.273,2.446l-0.057-1.726l1.06-1.362
							C25.146,26.213,23.812,26.426,22.778,26.468z"/>
					</g>
					<g>
						<line style="fill:none;stroke:#000000;stroke-width:0.5;" x1="5.952" y1="27.815" x2="2.064" y2="28.019"/>
						<path d="M0.004,28.128c0.987,0.309,2.22,0.858,2.999,1.469l-0.671-1.591l0.501-1.652C2.123,27.042,0.954,27.718,0.004,28.128z
							"/>
					</g>
					<g>
						<line style="fill:none;stroke:#000000;stroke-width:0.5;" x1="51.654" y1="6.922" x2="49.278" y2="2.454"/>
						<path d="M48.312,0.631c0.138,1.025,0.16,2.375-0.063,3.339l1.158-1.281l1.709-0.244C50.192,2.092,49.084,1.318,48.312,0.631z"
							/>
					</g>
					<g>
						<line style="fill:none;stroke:#000000;stroke-width:0.5;" x1="28.924" y1="6.006" x2="25.55" y2="3.37"/>
						<path d="M23.925,2.099c0.542,0.881,1.113,2.105,1.3,3.076l0.537-1.641l1.462-0.918C26.236,2.669,24.91,2.412,23.925,2.099z"/>
					</g>
					<g>
						<line style="fill:none;stroke:#000000;stroke-width:0.5;" x1="5.674" y1="5.229" x2="2.342" y2="4.147"/>
						<path d="M0.382,3.51c0.811,0.642,1.766,1.598,2.274,2.446L2.6,4.23l1.06-1.362C2.75,3.255,1.416,3.468,0.382,3.51z"/>
					</g>
					<g>
						<line style="fill:none;stroke:#000000;stroke-width:0.5;" x1="43.562" y1="101.727" x2="53.556" y2="98.479"/>
						<path d="M55.516,97.843c-0.811,0.642-1.766,1.597-2.273,2.446l0.057-1.726l-1.06-1.362
							C53.149,97.588,54.483,97.8,55.516,97.843z"/>
					</g>
					<g>
						<line style="fill:none;stroke:#000000;stroke-width:0.5;" x1="22.368" y1="96.908" x2="28.292" y2="98.832"/>
						<path d="M30.251,99.469c-1.034,0.042-2.367,0.254-3.277,0.642l1.06-1.363l-0.057-1.725
							C28.486,97.872,29.44,98.828,30.251,99.469z"/>
					</g>
					<g>
						<line style="fill:none;stroke:#000000;stroke-width:0.5;" x1="0.801" y1="96.537" x2="4.175" y2="99.173"/>
						<path d="M5.8,100.439c-0.986-0.313-2.312-0.57-3.299-0.518l1.462-0.917L4.5,97.363C4.688,98.334,5.258,99.559,5.8,100.439z"/>
					</g>
					<g>
						<line style="fill:none;stroke:#000000;stroke-width:0.5;" x1="46.944" y1="126.303" x2="51.541" y2="121.015"/>
						<path d="M52.893,119.46c-0.365,0.968-0.69,2.278-0.689,3.268l-0.84-1.509l-1.61-0.622
							C50.733,120.461,51.985,119.956,52.893,119.46z"/>
					</g>
					<g>
						<line style="fill:none;stroke:#000000;stroke-width:0.5;" x1="22.831" y1="124.121" x2="27.829" y2="122.497"/>
						<path d="M29.789,121.86c-0.811,0.642-1.766,1.598-2.274,2.446l0.057-1.726l-1.06-1.363
							C27.421,121.606,28.755,121.818,29.789,121.86z"/>
					</g>
					<g>
						<line style="fill:none;stroke:#000000;stroke-width:0.5;" x1="0.013" y1="121.997" x2="3.9" y2="122.201"/>
						<path d="M5.96,122.31c-0.987,0.309-2.221,0.859-2.999,1.469l0.671-1.591l-0.501-1.652C3.842,121.224,5.011,121.9,5.96,122.31z
							"/>
					</g>
					<g>
						<line style="fill:none;stroke:#000000;stroke-width:0.5;" x1="48.399" y1="149.421" x2="50.775" y2="144.954"/>
						<path d="M51.741,143.13c-0.137,1.025-0.16,2.375,0.063,3.339l-1.158-1.281l-1.709-0.244
							C49.861,144.592,50.968,143.818,51.741,143.13z"/>
					</g>
					<g>
						<line style="fill:none;stroke:#000000;stroke-width:0.5;" x1="24.03" y1="147.899" x2="27.404" y2="145.263"/>
						<path d="M29.029,143.992c-0.543,0.88-1.113,2.105-1.3,3.076l-0.537-1.641l-1.462-0.918
							C26.717,144.562,28.043,144.306,29.029,143.992z"/>
					</g>
					<g>
						<line style="fill:none;stroke:#000000;stroke-width:0.5;" x1="0.435" y1="146.538" x2="3.767" y2="145.456"/>
						<path d="M5.727,144.819c-0.811,0.642-1.766,1.597-2.273,2.446l0.057-1.726l-1.06-1.362
							C3.359,144.564,4.693,144.776,5.727,144.819z"/>
					</g>
				</g>
				<polygon style="fill:#BFBFBF;stroke:#808080;stroke-width:0.5;" points="83.661,75.012 73.757,65.552 63.854,75.012 
					67.82,75.012 67.82,83.812 79.694,83.812 79.694,75.012 "/>
				<path style="fill:none;stroke:#000000;stroke-width:0.5;" d="M66.962,77.173c-1.627,0.508-2.628,1.199-2.628,1.959
					c0,1.562,4.221,2.829,9.428,2.829c5.207,0,9.428-1.267,9.428-2.829"/>
				<path d="M82.604,76.729c0.916,1.012,2.298,2.268,3.549,3.046l-2.613-0.613l-2.142,0.613
					C82.051,78.996,82.467,77.74,82.604,76.729z"/>
				<g>
					<text transform="matrix(1 0 0 1 69.9419 77.4863)"><tspan x="0" y="0" style="font-family:'Helvetica'; font-size:10;">m</tspan></text>
				</g>
				<path style="fill:none;stroke:#808080;stroke-width:0.5;" d="M73.984,39.984c5.544,0,10.785,1.302,15.432,3.618"/>
				<g>
					<text transform="matrix(1 0 0 1 80.6504 38.6323)"><tspan x="0" y="0" style="font-family:'Symbol'; font-size:10;">&#x3B8;</tspan></text>
				</g>
				<g>
					<text transform="matrix(1 0 0 1 93.3169 47.7988)"><tspan x="0" y="0" style="font-family:'Helvetica'; font-size:10;">r</tspan></text>
				</g>
			</g>
			<rect y="73.649" style="fill:none;" width="147.401" height="2.834"/> 
		</g>
	</svg>
