<?xml version="1.0" encoding="iso-8859-1"?>
<!-- Generator: Adobe Illustrator 11 Build 196, SVG Export Plug-In . SVG Version: 6.0.0 Build 78)  -->
<!DOCTYPE svg PUBLIC "-//W3C//DTD SVG 1.0//EN"    "http://www.w3.org/TR/2001/REC-SVG-20010904/DTD/svg10.dtd" [
	<!ENTITY ns_flows "http://ns.adobe.com/Flows/1.0/">
	<!ENTITY ns_svg "http://www.w3.org/2000/svg">
	<!ENTITY ns_xlink "http://www.w3.org/1999/xlink">
]>
<svg
	 width="147.402" height="252.211" viewBox="0 0 147.402 252.211"
	 style="overflow:visible;enable-background:new 0 0 147.402 252.211" xml:space="preserve">
	<metadata>
<?xpacket begin='﻿' id='W5M0MpCehiHzreSzNTczkc9d'?><x:xmpmeta xmlns:x='adobe:ns:meta/' x:xmptk='XMP toolkit 3.0-29, framework 1.6'>
<rdf:RDF xmlns:rdf='http://www.w3.org/1999/02/22-rdf-syntax-ns#' xmlns:iX='http://ns.adobe.com/iX/1.0/'>

 <rdf:Description rdf:about=''
  xmlns:pdf='http://ns.adobe.com/pdf/1.3/'>
 </rdf:Description>

 <rdf:Description rdf:about=''
  xmlns:tiff='http://ns.adobe.com/tiff/1.0/'>
 </rdf:Description>

 <rdf:Description rdf:about=''
  xmlns:xap='http://ns.adobe.com/xap/1.0/'
  xmlns:xapGImg='http://ns.adobe.com/xap/1.0/g/img/'>
  <xap:CreateDate>2006-07-16T23:57:48Z</xap:CreateDate>
  <xap:ModifyDate>2006-07-16T23:57:48Z</xap:ModifyDate>
  <xap:CreatorTool>Illustrator</xap:CreatorTool>
  <xap:Thumbnails>
   <rdf:Alt>
    <rdf:li rdf:parseType='Resource'>
     <xapGImg:format>JPEG</xapGImg:format>
     <xapGImg:width>152</xapGImg:width>
     <xapGImg:height>256</xapGImg:height>
     <xapGImg:image>/9j/4AAQSkZJRgABAgEASABIAAD/7QAsUGhvdG9zaG9wIDMuMAA4QklNA+0AAAAAABAASAAAAAEA&#xA;AQBIAAAAAQAB/+4ADkFkb2JlAGTAAAAAAf/bAIQABgQEBAUEBgUFBgkGBQYJCwgGBggLDAoKCwoK&#xA;DBAMDAwMDAwQDA4PEA8ODBMTFBQTExwbGxscHx8fHx8fHx8fHwEHBwcNDA0YEBAYGhURFRofHx8f&#xA;Hx8fHx8fHx8fHx8fHx8fHx8fHx8fHx8fHx8fHx8fHx8fHx8fHx8fHx8fHx8f/8AAEQgBAACYAwER&#xA;AAIRAQMRAf/EAaIAAAAHAQEBAQEAAAAAAAAAAAQFAwIGAQAHCAkKCwEAAgIDAQEBAQEAAAAAAAAA&#xA;AQACAwQFBgcICQoLEAACAQMDAgQCBgcDBAIGAnMBAgMRBAAFIRIxQVEGE2EicYEUMpGhBxWxQiPB&#xA;UtHhMxZi8CRygvElQzRTkqKyY3PCNUQnk6OzNhdUZHTD0uIIJoMJChgZhJRFRqS0VtNVKBry4/PE&#xA;1OT0ZXWFlaW1xdXl9WZ2hpamtsbW5vY3R1dnd4eXp7fH1+f3OEhYaHiImKi4yNjo+Ck5SVlpeYmZ&#xA;qbnJ2en5KjpKWmp6ipqqusra6voRAAICAQIDBQUEBQYECAMDbQEAAhEDBCESMUEFURNhIgZxgZEy&#xA;obHwFMHR4SNCFVJicvEzJDRDghaSUyWiY7LCB3PSNeJEgxdUkwgJChgZJjZFGidkdFU38qOzwygp&#xA;0+PzhJSktMTU5PRldYWVpbXF1eX1RlZmdoaWprbG1ub2R1dnd4eXp7fH1+f3OEhYaHiImKi4yNjo&#xA;+DlJWWl5iZmpucnZ6fkqOkpaanqKmqq6ytrq+v/aAAwDAQACEQMRAD8A9U4q7FUl1S4t08waQjyo&#xA;r/vvhLAH404psf5iKDxxVOsVdiqR655ps9OvYNIhIuNfv0Ladp9eJkCni8jN+zFFXlI3WnQM1AVU&#xA;0sYbqG0iju5/rVyB++n4iMMx3PFF+yo6KKk06knfFURirHPN/nOPy2+mI2mXuovqd0tqrWkRaOEN&#xA;1knmbjFEtSAObCp9gSFU30651C4jeS8s/qQ5fuYmlWSQr4yBAUU+yu3zxVGYqlHmrzPpvljQbvW9&#xA;SWd7KzXnKLWGS4kp/qRhiB4s1FHcgYqraJrlrq9olzBFcQho45ClxBLDT1F5AK0iqr07lCRiqY4q&#xA;p3EywQSTMrMsSs5WNWdyFFaKigsx8ANziqReTPOum+bNNOoWFteW0HqSxqt7byQMfRlaFj8Q4/bQ&#xA;/Dy5D9oA7YqyHFXYqxvyx50XXdU1fTjpV/pkukT/AFeQ30QUSMFVy0bxmWIoVkQp8dWFTSgxVkmK&#xA;uxVJ9Q8paBqHmHS/MN3aJLq2jLMmn3JHxRi4UK/z26eFTiqcYq7FUBNoWizatFq81jBLqkEfowX0&#xA;katNHHUtxjcgsgJY149cVR+KuxV2KuxV2KuxVoAKAAKAbADoBireKuxVoAAUAoNzt4nc4q3irsVd&#xA;irsVdiqFnvkhvbW1KktdepxYdB6a8jX54qisVdirsVdirsVdirsVdirsVdirsVdirsVdirsVdirs&#xA;VdiqU6j/AMd7SP8Ao4/5NjFUJrPmx7DWv0TaadLqVymnzalNHA8SOEjkSKKNfWaOMtKzNTk6gBDv&#xA;0GKoHyn+YUevHQBLZGyPmHRU1qy/e+qPhMYuICeCbxC4iIb9rkdhTdVMIvPflSe5vbS1v1vLzTp2&#xA;tbu0tEkuZklRFd19KFXchRIAzAUB+EmoIxVHWF/qd1cH1NNezswppJcSx+szbU4xRGVeNOpZ1Yfy&#xA;4qmOKpNrHnDy1o2pafpmp36W1/qz+lp1swYvM1QDxCg7LX4idgNztiqc4q7FUq8zeZtH8s6PNrOs&#xA;yvBptuUFxOkUk3ASOEVikSu9OTCpA2xVH2l1Bd2kN3AS0FwiyxMyshKuOSkq4VhsehGKq2KqdxOl&#xA;vbyzuGKRIzsEUsxCip4qtST7DFUu8s+aNC8z6RFrGhXX1zTZ6iG5CSRq3HY0Eio2x26ddsVTXFXY&#xA;qx/yz5z0/wAwX2r2NvbXNtc6LctaXa3KBFZlZlEkTKzB434EqfvoajFWQYq7FWLa9rNzbed/Lmmp&#xA;plzcx3i3T/X4ght4RGg5+sSwZeq8aKeRNOxxVZcW2nSfmLHcw6lafXJNLlsNQ0wzKLvj6qTwSpGK&#xA;tRQ0nKtPtA9sVU9C8gR6Pq2gGCYvpXljRn0jSxK3K4dp3hErzcURNo7OMLx6lm2FBVVkGleXtB0i&#xA;S4k0rTrbT2vGD3X1WJIRK61AdwgUM1DSp3xVMMVdiqDv9I0vUHt3vrSK6a0dpLYyor8GkjaFytR+&#xA;1HIyn2OKtabo2m6Z6gsIfq0UnGsCMwhXjWnpw19OPrvwUV79MVRuKqc9vBcRGKeNZYmpyjcBlNDU&#xA;VB9xiqhp2l2OnRyRWUfowySGX0VLemrMBy9NCeMakipVQBUk9ScVReKuxVBaZoulaWjR6dbJaQuE&#xA;BhhHCP8AdrwUiMfADxAFQKkAV6DFUbirsVWLDErF1RQ5qCwABoTyO/zNcVX4q7FWF+efPOl2No2m&#xA;afrFrFrlxcR2fppLE88Bk+J2MXIsH4CiVX7RXY4qwLyRpNpqfnC6WFwptraQaXdxF29OZXQTTCYE&#xA;sZHaSVJGLfFSjd6qvccVdirsVdirsVdirsVdirsVdirsVdiq13RFLOwVV3LE0AGKrsVdiqV6hriQ&#xA;3J0+xhN/qvEMbVG4pErfZe4lowiQ9tizb8VahxViF3+ZLWWp2unfpOw1LULqaOKGwtreWFZvUQyU&#xA;ivZLh7cHipC86cnHHauyr52k03SD5YlljtIOf1N3LrGnIP6ZJNQPtcvxxV9C/kjpNlF5bOoop+sv&#xA;JNbDf4UijmZgqD9mpbf5DFXo+KsX85WOuXeqeWP0bqzaZFHqRe6jWL1PrCpazOIpDzT92QjBh4kG&#xA;o47qsoxV2Ksf87eb4PKmirqktlc6gGuILcW1nG8stJpAjPxQNsikt7mijdhiqX6/+bXkDQeI1LVV&#xA;jkk3jiRHkkav8qKpbFUn/wCV9eTO0F4R2NLcfrnBxVDah/zkR5E0+ymvbmG9WCBS7kLbE7dgPX3J&#xA;6DFVaL8/vJMsaSxw3jRyKGRgLahBFQf7/FV//K+vJv8Ayz3n3W3/AFXxVpvz78lqpZoLxVAqSRbA&#xA;Af8AI/FUr1L83fL/AJh8p3/mKxtbq88t6TDHJeWh9KM3c1zIqW8TlZG/coamdDuaqKMOSlVHeVNR&#xA;tdSfSRqPk2y0yfWS72ccsEEUgitVrPM6GsnxEr6ahTsQS1MVZUvq+VnfkQfKlKqeh02nag62n/Jn&#xA;/jF/dqovy15w8veZf0j+hrtLr9F3cljecSPhmipyp4qa7N0PbFVLSraS9sNUkhuJLKe9v7mt1AIz&#xA;KptpPqoP7xJI91tgN16e+KsbufKdvY6TINc+rCJybeG006JjLfzvyS3a4aUs80o5cgpPEPykYmlV&#xA;VeC6k0Uuh6hcRo0aXNvLKsTO8pRDFRI+blmbggVanwxV9Bfkv/yhCf8AMXdf8nTirO8VSnWf+Ojo&#xA;P/Mc/wD1A3OKptirFvOH5jeWfK1sJL+5Bmc8YbeOryO1K0VVqT7+HemKvDfMX5n6352unsJtSj8p&#xA;6HFPCXmkinuruQJIrloUt45YV48f2n37HFWZeTNV/IDynIbuxvZLvV3/AL7Wb62vLi8ckEE+o0Hw&#xA;VBoQgUHvirMP+V2fll/1d2/6RLz/AKo4qg9Z/Nr8r9T0q7sH1kp9ahkhWQ2V4/AyIVDhfSFeNa9c&#xA;VRafnR+V8ahE1Uog6KtneAD6BDiqG1H8+Py3tbdpY9Redh0UW10gr23eJRirHrn/AJWf+Y8TwQWa&#xA;+W/LNwpSS61OMSTzRsKERWZNCD4yniynbFUz0D8i9M8s2sCaHfyySqAb2O+LSw3Mio6q/pKViiZT&#xA;JVG9N+NBsd6qsssYZNIdpI/K0MEkgpJLpLW7DiDX4zKLJz8gpxVNLHXdNvpPRi9ZJiCfRuLee3eg&#xA;6njMiGnviqIstNsLFXW0gWBZDyYIKD5DwA7AbDFVCygg0XRVSWRpEtIi9xMEZnkYVeR/TTkxZ2q3&#xA;Famp2xVCaRa3V5evrWpQtDIax6ZZyU5W8HQuwBIEs3VvBeK9Q1VWBT/kBp0mnSWK6xMsbwmBXMKl&#xA;gpXjX7QBOKvQfK3lqw8t6NFpVk8ssUbO7TTsGkd5GLMzcQq7k9FUDFU3xVayIxUsoJQ1UkdDQio+&#xA;g4quxVQuLKzueP1iCObgap6iK9D7VBxVT/ROlf8ALFB/yKT+mKu/ROlf8sUH/IpP6Yq79E6V/wAs&#xA;UH/IpP6Yq79E6V/yxQf8ik/pirv0TpX/ACxQf8ik/piraaXpkcqzJZwJKn2JFjQMPkQKjFUVirsV&#xA;dirsVdirsVdiqX3t1PHq2nW6NSKf1vVWgNeCAruRUUPhiqYYq7FXYq7FXYq7FXYq7FXYqtDoSyhg&#xA;WXZgDuCRXfFV2KuxVqoqRXcbkd6HFW8VdiqkLq1Ny1qJkNyqiRoAw9QITQMVrWle+KquKuxVKdR/&#xA;472kf9HH/JsYqm2KuxVJn8uGEl9L1C608k8jCHFxAadF9K4EnBPaIpiqD0SXz/8A4l1CHWYbFvLy&#xA;RRjT72AvFcPON5KwEzARkNQVkrVSejDiqyXFUBqFlqV1Iqwag1jbcfj9CKNpy1dqSTerGFp29Ov+&#xA;ViqWeTfI+leVIr+PT5Z5f0hcvdS+vK0ipyPwxxKTxRF8F719gFWRYqhNUtr26s2t7S4W0klIV5zG&#xA;spWM/b4I/wAHMjZSwKg7lW6FVLfJvkrQPJ+kPpWhwGC0kuJruQMSzNLO5ZiWPWgoo/yQMVT3FVO4&#xA;WdoJFt3WOcqwikdS6q5HwsyBkLAHqOQr44qkXk7yRo/lS3votOLu+pXP1y8lk48mlMaRniFChU/d&#xA;8gg+FanjQbYqyHFXYqkGg+SPL+h63rOt2EJTUtfdJdTmNP3jRNIU+FQoHES8dutATVqsVU/xV2Ks&#xA;c1nQ/Md35u0PUrLVBbaLZLP+k7AxRs8rMoEXpOysVBJPqVPQDjQ1OKsjxV2KuxV2KuxV2KuxV2Ku&#xA;xV2KuxV2KuxV2KuxV2KuxV2KrGmiWRI2dVkkr6aEgFuIqaDvTFV+KuxV2KuxV2KuxV2KuxV2KuxV&#xA;2KuxV2KuxV2KuxV2KuxVjmta5o9r5t0LTrm9hhv7gTm3tXdVlkDJxHpoTVt1NadO+KsjxV2KpB5o&#xA;a50yJvMVmss0tjGfrlhCkkzXVstWMaRxhj6yk8oyF8VNAxIVRXlfzDa+YvL1hrdrHJDDfRCUQTDj&#xA;LG3R45F7MjAqw8Riqa4qgdSttWk4SadepbSICGjmhE8L1puVV4JOQptSQDxBxVLfJU3nSXSpG822&#xA;1tbah9YlNutrJ6lbZmLQiWihVkVTwbizA0rXfFWQYqh71L54aWU0UE1R8c0TTLx7jiskJr78sVSX&#xA;yXp3nOxs7tPNOqW+qTvcyvYtbwGExWxcmKN2LH1GCU34inQlvtYqyLFVkwmMMggZUmKkRO6l1Vqf&#xA;CWUMhYA9RyHzxVIPKmmecrO51WTzFrEOpQXFyz6Xbw24h+rwE14s9WZqk7Ka8RtybsqyLFXYqxvS&#xA;tB8z2/mzUtVvdee40e6RFs9EWJBFFIAA0vNw8oPFQOCvxrVqb0VVkmKuxVB3Oj6XdajZalcW0ct/&#xA;pwlFjcsKvEJ1Cy8D25qoBxVGYq7FXYq7FXYq7FXYq7FXYq7FXYq7FXYq7FXYq7FXYq7FXYq7FXYq&#xA;7FXYq7FXYq7FXYq7FXYq7FXYq7FXYq7FXYq7FXYq7FXYq7FXYq7FXYq7FXYq7FXYq7FXYq7FXYq7&#xA;FXYq7FXYq7FVGS6gjnht3aks/L0loTXgKtuBQUHjiqtirsVdirsVdirsVdirsVdirsVdirsVdirs&#xA;VdirsVdirsVYtr3mTTLLzt5c0e4MovtQFy1miwyOkgWP95+8VSi+mPibkRQEeOKspxV2KsU8xeZ7&#xA;9fMlp5T062uUudQtzPLrUcLSw2UfJlq54PGJH4MIufw13NaUZVken2Fpp9nFZ2ienBECFWpYkk1Z&#xA;mZiWZmYksxNSdziqIxVjnm+588xPpq+V7O1uInuF/S0tzJxeO3BFfRj+FXY1qauuwoNyCFU30621&#xA;GFXa/vBdzOQaRxCGJKDoiVkffvykbFUZiqUea73zHZaDd3PlzTotV1iNK21hPP8AVkkP/GQqwr7H&#xA;iD/MMVVtDn1yeyjfV7aC3nMcbEQSu9XK1fkjxx8KHtVvn4qpjiqncNcLbytbIklwEYwxyOY0ZwPh&#xA;VnVZCqk9SFNPA4qkPkrUPOl7phm816Zb6ZfNJMBBbTGVVVJWRAajfkihwwO4PRemKsixV2Ksb8sy&#xA;+fm1bV18yQWCaZHPw0aWyaQPJAFVlkljfn8TcyrfEKFdlIPLFWSYq7FVNoIHlSZ41aWKojkIBZQ3&#xA;2uJ6itN8VVMVdirsVdirsVdirsVdirsVdirsVdirsVdirsVdirsVdiqBu72aLU7C2Wnp3PrepUb/&#xA;ALtAwpiqOxV2KuxV2KuxV2KuxV2KuxV2KuxV2KuxV2KuxV2KuxV2KpTqP/He0j/o4/5NjFU2xV2K&#xA;sR0jzxqms6hq9lY+XbyA6ZdfV4rrUq2MM8YRT6yh1afiz81QrEykLXkK0Cqe2Fvrfr+vqF5Ey8SF&#xA;tLaLhGKkGrvI0juy9AV4DxXwVTHFWNeZ/N19omr6PYx6HeahbapK0UuoWw5xW3po0r+qiB5SfTRi&#xA;gVPiPw1BxVONN1nTNS9QWdwskkBAuICCk0RNaCWJwskZPE05KMVRuKpN5t1fWNH0G41HSNKOtXsB&#xA;j4aasogeRWcI3BysgqobluN6dRiqK0PV4dV06O6SiS7JdW/xcoZgAXicOsbqy1/aUHvTFUfiqncN&#xA;MsEjQIss6qxijZuCs4HwqWAbiCe9DiqQ+R/NsnmbRkvLnT5NHv6K1xpNwwaeFZF5Rs4AXZxuu34g&#xA;gKsixV2Ksc8sap5tudT1i017TYrS2trh/wBEXkBcrcWpkdULq3LhIqoOXxb1BAAOyrI8VdirGtas&#xA;vNsvnDQbjT2tBoEK3B1UyoxuFYqAghIdVPqVoar8NK71xVkuKuxV2KuxV2KuxV2KsJ8w/mDf2N5r&#xA;Fvpml291DobW6alqF9fpp9pAZ4HuXM0jRzMFSP0acVYlpNwoUtiqL8h+e/8AFMc6z6bNpN7Bb2V4&#xA;1nOayCG/g9RGaqpxIlSWOlP2a96BVlQVQSQAC32j4/PFW8VdirsVdirsVdirsVdiry6+/wCciPI9&#xA;s8xjstWu7WEE/XYrPjCygVLL6zxPx9yo9tsVTjyr+cHlXzISlrDeWs6uUa3u4lRweorweQbg+OKs&#xA;5xVSmuraBoUmlWNrh/SgDEAvJxL8Vr1PFCae2KquKuxVSubhLe2luHBKQo0jBRViFFTQdztirzuH&#xA;81NSh8yXllqWnxx2EPCWNYi7XK2sgqsxB2lYAq0kSqpQMOJkNKqq2oflrDr2uXmsRazNbaZqFxY6&#xA;zZy2BtpC93DaG05SJdW91BJF6KwvEafb+KgKqcVT7yz5WvdM17WdWvr1r+fUI7K0huJBGJnt7KNy&#xA;HnEUcEQkaa5l2ROPHj7gKslxV2KuxVAatrFvpscfOOS4uZ24W1nAFaaVhueIYooCjdmZgq9yMVQ3&#xA;6W1qSvo6M46ELPcQK1D3IjaYU+nFUTpOr22pRSFAYrm2f0b20cj1YJQAxRwCR0IZSNmUgioOKo/F&#xA;Umv9ZvJLyXTNGgFxexUW6upqi1tS6h19QijSScGDCJN6U5MgZWxVg13+Y6WmpLZ2uq3d3PHNHFcX&#xA;V5b28GloZFYkzskaXMKco2jD/EFanLlvirxC85DyrcK6skiWLh42BVlPo9CDuMVZP+Vn/KTXv/MS&#xA;f+Irir6ZHQYqxjzl5c0jWdU8sNqMTymz1IzW3GaaIJKlpPIr0idKsrRihPuOjGqrKMVdirFPzL1/&#xA;WtC8tC/0k2SSi7tY7ifU5fRtUgknRZObAOfjB4bDavLtQqvMo5db82edZdV8p6VLcaPKIwmp3Smy&#xA;svR9JI2SNnRncpJCu6KwFD8O/IKsw0fS/wA7dK06Kwt28ttBCX9L1Wv3ZVdy4SqqgonLiKKNhiqH&#xA;8z63+e+h6De6qln5e1BrSMyC0thfGR6dac2jQBR8TEsNhiqOsbr89rqyguWh8uWzTRrI1vOL9ZYy&#xA;wqUcAsOS9DQkYqr/APIdP+/Y/wC5hiqC1nV/zl0bSrrVdQl8rw2VnG008h/SBoqiuw7k9AO5xVge&#xA;g/mf5l8+aDc8Y1sPMt/bJDotxBBdQW0UNWmvg07F3JKQcW9KvReO+4VeheUPJmr6dPpaTxyxRWq8&#xA;9WkadIo7i4jjCQejbW5lQwoeTUkKt9n7VMVZXq2iyS3I1bTGW31qGP0kkeohnjB5CC4C7lKk8W+0&#xA;hJK7FlZVB+S/Mura7HqbalpEukPZ3j29skjK/rQKBxlqp+Ek1qrAMNqjfFVTSbOLU9K1ETtIgvb6&#xA;7EjwSyQSUguGt0KyxMjj4IF6Hpt0xVKLjy/DpenR2d7N+mJiJIdF0tYobZWcoVVnVFZGaOM8WlZe&#xA;KqK8a9VXztqLI/ly+nSKOD6xazTGKFeEal4yeKKOir0HtirJfys/5Sa9/wCYk/8AEVxV9MjoMVS7&#xA;VYJpL/RnjQssN47ysBUKps7hKn25OB9OKplirGfOmp+d7WKGHyro8eoTzBjNdzSxLHBQjiPSeSFp&#xA;S1T+0APfpiryU+R/zQvr1dR8y6B/iTUYp0mtpL68thbwrHKH4RWiSiBQ6oFeoNeu2Ks7HmT85gKD&#xA;yhagDoPrkP8A1VxVv/Ev5z/9Sha/9JkP/VXFVG81r84Lyzns7jyfbNBcxvDKovYQSjqVYVE3gcVV&#xA;v8S/nP8A9Sha/wDSZD/1VxVw1387bhhDD5a06yd+l1dXIkhT/XWCVpD/ALEYqibL8rIL66j1Lzvq&#xA;EnmnUYzzit51EWnQN0/c2S/uztsWk5V69cVZZJoOiy6fb6dLZQy2VqqJbQSIHWMRgKnDlWhUDY9c&#xA;VQx8tRRj/QdQv7J+7LctcCngEvPrMYHyXFURY2+uxSD67fW9zAARSO2eGQ/ykv68i18aIK+2Ko8A&#xA;CtBSu5+eKoOCCLStJWGFJZ47OGiotHmk4D/Y8nc/ecVQejaZc/W59Z1NFXU7pRHHECHFrbDdYFYb&#xA;Es3xyMOrbVKquKpLL+Tv5dSwvA+lMYXUo0YursLxIoVoJQAKdsVTjSfJXlLSCp0zSLWzKbqYolU1&#xA;8a064qneKuxV2KuxV2KuxV2KuxV2KuxV2KuxV2KuxV2KuxV2KpTqP/He0j/o4/5NjFU2xV2KoWx1&#xA;TTdQEhsbqK59I8ZhE6uUb+VwDVT7HFUVirsVdiqU6D5r8ua+btdHv4r17CT0L2OMnnDKCRwkQgMj&#xA;fCdiMVTbFWmYKpY1oBU0BJ28AN8VSjyv5t0DzTYSahodw11ZRTPbNOYpYQZYqc1USrGzcSaEgUrU&#xA;dQcVTjFXYqlGgea/L/mBr4aPdi8/RtwbO9ZEkVY7hQGaLkyqrMoYcgpNO+KpvirsVSTSvOGiar5g&#xA;1bQbF5X1DRBF+kw8MkSRtPyMShpFTnyVCwKVWnfFU7xV2KpTqP8Ax3tI/wCjj/k2MVTbFXYqgNR0&#xA;LR9RkSW9tI5biIFYbnjxnjB/31MtJIz7qwxVKdE8qanpnmTUNUfXru7027ijht9Gm+OKD0+jiWQy&#xA;TPISWqxbcUBrxWirJcVQGoaHpeoyK9/D9ZRRx+ryu7W5oagtAW9FiD0LLXFVTTdJ03TIpIdPtkto&#xA;5pXnlWMUDSSGrMf1ewAA2AxVF4qhdR0211G1NrdBmt3IMkasyBwP2H4kckP7S9CNjtiqpa2dpaQ+&#xA;hawpbwhmYRxKEXk7FmNFoN2JJxVWxVZNEssTxMWCyKVYozI1CKfCykMp9wa4qhtL0fS9Kga3021i&#xA;tIGYO0cKhAWCLHyIHU8UUV9sVRmKuxVDWunafaPI9rbRQSTEtM8aKrOWkeU8iBU/vJXb5sT3xVE4&#xA;q7FUh1XyZo+p+ZtI8xXPqfXdHEot0VyIpPVFFMqdH9I1aOv2Sa4qn2KuxV2KuxV2KuxV2KuxV2Ku&#xA;xV2KuxV2KuxV2KuxV2KuxVDzXsMV1b2zV9S55+nQbfuxyNcVRGKuxVRF3bG6Np6i/WRGJTDX4vTJ&#xA;K8qeFRTFVbFXYq7FXYq7FXYq0CGAINQdwR0IxVvFXYq0CCKg1G428RscVbxV2KrEmidnVHVmjPGR&#xA;VIJVqA0anQ0IOKr8VdirFNf117Tzx5b0oaddXBvlumS8iVDbxhEHqeqxdSnEEEbfFWgqa4qyvFXY&#xA;qk3mjTLy6sDd6Uqfp6xDSaVJI3BfUIFYpGCsfSl4hZF79RRgrBVV8sXGu3Hl+wm1+1Wz1pogNQt4&#xA;2V41mX4XKMpYFWI5Lv0OKppiqA1PRrLUCjzeok8QIhnhllgkWtKjnC0bFagVUmhxVLvJflvVPL+m&#xA;S2mo63Prk0s8tx9YuESP0zMxdo4lSpEYYnirMeI2BpQBVkGKoe9sobyH0ZmlVAwasE0sDVH+XCyN&#xA;T2rTFUn8neStL8qWt5b6fPdzre3Ut5Kbu4kmCvM5crErHhGo5U+EVP7RJ3xVkGKrJollieJiwWRS&#xA;rFGZGoRT4WUhlPuDXFUh8reRtF8tXWqXWnvcvNq9w1zdG4uJZlDNvRFckDfct9pj9onFWQ4q7FWO&#xA;6Z5C8tad5q1DzVBbs+t6lGkM91NI0rLHHWiR8ySoP6qAfCAMVf/Z</xapGImg:image>
    </rdf:li>
   </rdf:Alt>
  </xap:Thumbnails>
 </rdf:Description>

 <rdf:Description rdf:about=''
  xmlns:dc='http://purl.org/dc/elements/1.1/'>
  <dc:format>image/svg+xml</dc:format>
 </rdf:Description>

</rdf:RDF>
</x:xmpmeta>
                                                                                                                                                                                                                                                                                                                                                                                                                                                                                                                                                                                                                                                                                                                                                                                                                                                                                                                                                                                                                                                                                                                                                                                                                                                                                                                                                                                                                                                                                                                                                                                                                                                                                                                                                                                                                                                                                                                                                                                                                                                                                                                                <?xpacket end='w'?>
			</metadata>
		<g id="Layer_1">
			<rect y="124.688" style="fill:none;" width="147.402" height="2.834"/> 
			<g>
				<path style="fill:none;stroke:#000000;stroke-width:0.5;" d="M0.584,207.527c0.72-3.839,1.363-7.328,1.409-8.282
					c0.046-0.955-0.061-2.425,0.214-2.809c0.275-0.384,1.67-1.358,2.11-1.565s3.164-2.145,3.472-2.331s1.242-1.084,2.746-0.993
					c1.503,0.09,2.688,0.301,3.203,0.554c0.515,0.253,1.654,1.419,2.049,1.76c0.394,0.341,1.216,0.814,1.413,1.188
					c0.197,0.374-0.001,0.812-0.001,0.812"/>
				<path style="fill:none;stroke:#000000;stroke-width:0.5;" d="M0.584,66.518c0.72-3.84,1.363-7.328,1.409-8.282
					c0.046-0.955-0.061-2.425,0.214-2.809c0.275-0.384,1.67-1.358,2.11-1.565s3.164-2.145,3.472-2.331
					c0.308-0.186,1.242-1.084,2.746-0.993c1.503,0.09,2.688,0.301,3.203,0.554c0.515,0.253,1.654,1.419,2.049,1.76
					c0.394,0.341,1.216,0.814,1.413,1.188c0.197,0.374-0.001,0.812-0.001,0.812"/>
				<g>
					<polyline style="fill:none;stroke:#808080;stroke-width:0.2;" points="74.24,189.98 74.746,190.619 74.905,190.939 
						75.034,191.284 "/>
					<polyline style="fill:none;stroke:#808080;stroke-width:0.2;" points="75.034,191.284 75.068,191.375 74.893,191.394 
						74.805,191.404 "/>
					<polyline style="fill:none;stroke:#808080;stroke-width:0.2;" points="74.188,190.155 74.498,190.708 74.629,191.094 
						74.63,191.352 "/>
					<polyline style="fill:none;stroke:#808080;stroke-width:0.2;" points="74.979,191.456 74.689,192.137 74.575,192.399 
						74.48,192.507 74.421,192.78 74.24,193.156 "/>
					<polyline style="fill:none;stroke:#808080;stroke-width:0.2;" points="73.862,193.117 74.083,192.621 74.566,191.91 
						74.592,191.658 "/>
					<line style="fill:none;stroke:#808080;stroke-width:0.2;" x1="74.193" y1="193.303" x2="74.324" y2="193.689"/>
					<line style="fill:none;stroke:#808080;stroke-width:0.2;" x1="74.339" y1="193.821" x2="74.457" y2="194.004"/>
					<line style="fill:none;stroke:#808080;stroke-width:0.2;" x1="74.515" y1="194.131" x2="74.66" y2="194.32"/>
					<line style="fill:none;stroke:#808080;stroke-width:0.2;" x1="74.669" y1="194.407" x2="74.814" y2="194.596"/>
					<line style="fill:none;stroke:#808080;stroke-width:0.2;" x1="74.88" y1="194.625" x2="75.096" y2="194.86"/>
					<line style="fill:none;stroke:#808080;stroke-width:0.2;" x1="73.949" y1="193.837" x2="73.854" y2="193.287"/>
					<line style="fill:none;stroke:#808080;stroke-width:0.2;" x1="73.986" y1="193.931" x2="74.112" y2="194.273"/>
					<line style="fill:none;stroke:#808080;stroke-width:0.2;" x1="74.126" y1="194.405" x2="74.238" y2="194.615"/>
					<line style="fill:none;stroke:#808080;stroke-width:0.2;" x1="74.215" y1="194.724" x2="74.43" y2="194.986"/>
					<polyline style="fill:none;stroke:#808080;stroke-width:0.2;" points="74.764,195.358 74.618,195.57 74.372,195.187 "/>
				</g>
				<polygon style="fill:#BFBFBF;" points="73.731,187.233 73.375,188.222 73.494,188.697 73.494,189.132 73.375,189.606 
					73.968,189.764 73.494,190.397 73.296,190.951 73.296,191.544 72.979,192.019 72.979,192.375 73.335,191.821 73.454,192.177 
					73.652,192.414 73.573,191.94 73.652,191.465 73.81,191.03 74.443,191.663 73.929,192.612 73.691,193.601 74.087,194.946 
					74.482,195.42 74.68,195.42 74.364,194.906 74.087,194.273 73.929,193.561 74.562,194.51 74.997,195.064 75.194,195.064 
					74.799,194.59 74.482,194.036 74.285,193.284 74.562,192.573 74.957,191.663 74.957,191.149 74.759,190.555 74.917,190.199 
					75.155,189.844 76.302,188.894 74.997,186.956 74.601,186.482 "/>
				<polyline style="fill:none;stroke:#404040;stroke-width:0.3;" points="74.324,193.689 74.169,193.813 73.955,193.48 "/>
				<polyline style="fill:none;stroke:#404040;stroke-width:0.3;" points="74.457,194.004 74.278,194.166 74.167,193.955 "/>
				<polyline style="fill:none;stroke:#404040;stroke-width:0.3;" points="74.66,194.32 74.46,194.448 74.311,194.216 "/>
				<polyline style="fill:none;stroke:#404040;stroke-width:0.3;" points="74.814,194.596 74.714,194.732 74.547,194.51 "/>
				<polyline style="fill:none;stroke:#404040;stroke-width:0.3;" points="75.096,194.86 75.193,194.965 75.048,195.105 
					74.823,194.756 "/>
				<polyline style="fill:none;stroke:#404040;stroke-width:0.3;" points="75.193,194.965 75.316,195.12 75.188,195.25 
					75.107,195.16 "/>
				<polyline style="fill:none;stroke:#404040;stroke-width:0.3;" points="75.149,195.298 75.141,195.469 74.975,195.575 "/>
				<polyline style="fill:none;stroke:#404040;stroke-width:0.3;" points="73.688,193.323 73.719,193.844 73.949,193.837 "/>
				<polyline style="fill:none;stroke:#404040;stroke-width:0.3;" points="74.112,194.273 73.929,194.391 73.738,194.02 "/>
				<polyline style="fill:none;stroke:#404040;stroke-width:0.3;" points="74.238,194.615 74,194.792 73.895,194.483 "/>
				<polyline style="fill:none;stroke:#404040;stroke-width:0.3;" points="74.43,194.986 74.318,195.104 74.053,194.875 "/>
				<line style="fill:none;stroke:#404040;stroke-width:0.3;" x1="74.499" y1="195.129" x2="74.764" y2="195.358"/>
				<polyline style="fill:none;stroke:#404040;stroke-width:0.3;" points="74.767,195.545 74.698,195.73 74.486,195.985 
					74.397,195.994 "/>
				<g>
					<line style="fill:none;stroke:#808080;stroke-width:0.2;" x1="73.247" y1="188.291" x2="73.217" y2="188.428"/>
					<line style="fill:none;stroke:#808080;stroke-width:0.2;" x1="73.468" y1="187.467" x2="73.395" y2="187.608"/>
					<line style="fill:none;stroke:#808080;stroke-width:0.2;" x1="73.331" y1="187.837" x2="73.224" y2="188"/>
					<line style="fill:none;stroke:#808080;stroke-width:0.2;" x1="73.604" y1="187.239" x2="73.432" y2="187.373"/>
					<line style="fill:none;stroke:#808080;stroke-width:0.2;" x1="73.535" y1="193.304" x2="73.485" y2="193.665"/>
					<line style="fill:none;stroke:#808080;stroke-width:0.2;" x1="73.476" y1="193.248" x2="73.256" y2="193.601"/>
				</g>
				<polyline style="fill:none;stroke:#000000;stroke-width:0.5;" points="121.938,195.397 123.595,195.401 123.725,197.026 "/>
				<path style="fill:none;stroke:#000000;stroke-width:0.5;" d="M139.378,200.813c-1.556-0.245-3.046-0.072-3.918-0.446
					s-2.406-1.156-3.152-1.145c-0.747,0.012-3.354-0.664-4.19-0.68c-0.836-0.017-2.125-0.325-2.487-0.588
					c-0.362-0.263-0.874-0.523-1.353-0.576s-1.826-0.33-2.04-0.595c-0.213-0.265-0.703-1.063-0.618-1.333
					c0.085-0.27,0.493-0.933,1.206-1.153c0.713-0.22,1.663-0.563,2.051-0.54c0.389,0.023,1.917,0.358,2.426,0.469
					s2.032,0.147,2.269,0.024c0.237-0.123,2.016-0.897,2.016-0.897"/>
				<path style="fill:none;stroke:#000000;stroke-width:0.5;" d="M139.378,62.14c-1.556-0.244-3.046-0.072-3.918-0.446
					c-0.872-0.374-2.406-1.156-3.152-1.145c-0.747,0.012-3.354-0.664-4.19-0.681c-0.836-0.017-2.125-0.325-2.487-0.588
					c-0.362-0.263-0.874-0.524-1.353-0.576c-0.479-0.052-1.826-0.33-2.04-0.595c-0.213-0.265-0.703-1.064-0.618-1.334
					c0.085-0.27,0.493-0.933,1.206-1.153c0.713-0.22,1.663-0.563,2.051-0.54c0.389,0.024,1.917,0.358,2.426,0.47
					c0.509,0.111,2.032,0.147,2.269,0.024s2.016-0.897,2.016-0.897"/>
				<polyline style="fill:none;stroke:#000000;stroke-width:0.5;" points="121.938,56.724 123.595,56.728 123.725,58.353 "/>
				<path style="fill:none;stroke:#000000;stroke-width:0.5;" d="M125.597,57.116c0,0-0.294,0.303-0.231,0.497"/>
				
					<linearGradient id="XMLID_4_" gradientUnits="userSpaceOnUse" x1="136.5337" y1="31.4258" x2="155.7837" y2="31.4258" gradientTransform="matrix(0.6961 0 -1.2056 0.6961 51.4459 36.1996)">
					<stop  offset="0" style="stop-color:#FFFFFF"/>
					<stop  offset="1" style="stop-color:#000000"/>
					<midPointStop  offset="0" style="stop-color:#FFFFFF"/>
					<midPointStop  offset="0.5" style="stop-color:#FFFFFF"/>
					<midPointStop  offset="1" style="stop-color:#000000"/>
				</linearGradient>
				<polygon style="fill:url(#XMLID_4_);" points="117.625,53.116 99.092,62.991 108.967,63.078 126.238,53.072 "/>
				
					<linearGradient id="XMLID_5_" gradientUnits="userSpaceOnUse" x1="136.5337" y1="31.4258" x2="155.7837" y2="31.4258" gradientTransform="matrix(0.6961 0 -1.2056 0.6961 3.943 36.1996)">
					<stop  offset="0" style="stop-color:#FFFFFF"/>
					<stop  offset="1" style="stop-color:#000000"/>
					<midPointStop  offset="0" style="stop-color:#FFFFFF"/>
					<midPointStop  offset="0.5" style="stop-color:#FFFFFF"/>
					<midPointStop  offset="1" style="stop-color:#000000"/>
				</linearGradient>
				<polygon style="fill:url(#XMLID_5_);" points="70.122,53.116 51.589,62.991 61.465,63.078 78.735,53.072 "/>
				<path style="fill:#808080;stroke:#000000;stroke-width:0.5;" d="M126.938,192.393H79.105c-0.55,0-1.888,0.446-2.987,0.996
					l-15.928,7.972c-1.1,0.551-1.545,0.997-0.995,0.997h47.833c0.55,0,1.887-0.446,2.987-0.997l15.928-7.972
					C127.043,192.839,127.488,192.393,126.938,192.393z M110.308,200.218c-0.784,0.392-1.83,0.71-2.336,0.71H63.965
					c-0.506,0-0.281-0.318,0.503-0.71l11.357-5.685c0.784-0.393,1.83-0.71,2.336-0.71h44.006c0.506,0,0.281,0.318-0.502,0.71
					L110.308,200.218z"/>
				<path style="fill:#808080;stroke:#000000;stroke-width:0.5;" d="M127.77,53.007H79.937c-0.551,0-1.888,0.446-2.988,0.997
					l-15.928,7.972c-1.1,0.55-1.545,0.997-0.995,0.997h47.833c0.55,0,1.888-0.446,2.987-0.997l15.928-7.972
					C127.875,53.453,128.32,53.007,127.77,53.007z M111.139,60.832c-0.784,0.393-1.83,0.711-2.336,0.711H64.797
					c-0.506,0-0.281-0.318,0.503-0.711l11.357-5.684c0.784-0.392,1.83-0.71,2.336-0.71H123c0.506,0,0.281,0.318-0.503,0.71
					L111.139,60.832z"/>
				
					<linearGradient id="XMLID_6_" gradientUnits="userSpaceOnUse" x1="-11.4248" y1="327.9685" x2="-24.7998" y2="327.9685" gradientTransform="matrix(0.7031 0 0 0.6907 39.8698 -30.1479)">
					<stop  offset="0" style="stop-color:#FFFFFF"/>
					<stop  offset="1" style="stop-color:#000000"/>
					<midPointStop  offset="0" style="stop-color:#FFFFFF"/>
					<midPointStop  offset="0.5" style="stop-color:#FFFFFF"/>
					<midPointStop  offset="1" style="stop-color:#000000"/>
				</linearGradient>
				<polygon style="fill:url(#XMLID_6_);" points="31.89,186.797 31.389,187.082 31.366,187.074 31.843,186.804 24.827,186.804 
					22.547,188.097 22.904,188.097 22.894,188.12 22.5,188.12 22.5,188.957 22.5,188.958 22.5,188.988 22.5,205.962 29.587,205.962 
					29.587,205.946 31.89,204.639 "/>
				<g>
					<line style="fill:none;stroke:#000000;stroke-width:0.5;" x1="20.599" y1="212.999" x2="20.599" y2="229.768"/>
					<path d="M20.599,231.89c-0.37-0.999-1.002-2.237-1.671-3.005l1.671,0.605l1.672-0.605
						C21.601,229.653,20.969,230.891,20.599,231.89z"/>
				</g>
				<g>
					<line style="fill:none;stroke:#000000;stroke-width:0.5;" x1="45.097" y1="203.556" x2="45.097" y2="190.215"/>
					<path d="M45.097,188.093c0.37,0.998,1.002,2.237,1.671,3.004l-1.671-0.604l-1.672,0.604
						C44.095,190.33,44.727,189.091,45.097,188.093z"/>
				</g>
				<g>
					<line style="fill:none;stroke:#000000;stroke-width:0.5;" x1="69.595" y1="200.272" x2="69.595" y2="193.499"/>
					<path d="M69.595,191.377c0.37,0.999,1.002,2.237,1.671,3.004l-1.671-0.604l-1.671,0.604
						C68.593,193.614,69.225,192.375,69.595,191.377z"/>
				</g>
				<g>
					<line style="fill:none;stroke:#000000;stroke-width:0.5;" x1="94.093" y1="199.143" x2="94.093" y2="194.627"/>
					<path d="M94.093,192.506c0.37,0.999,1.002,2.237,1.671,3.005l-1.671-0.604l-1.671,0.604
						C93.091,194.742,93.723,193.504,94.093,192.506z"/>
				</g>
				<g>
					<line style="fill:none;stroke:#000000;stroke-width:0.5;" x1="20.599" y1="241.674" x2="20.599" y2="250.089"/>
					<path d="M20.599,252.211c-0.37-0.998-1.002-2.237-1.671-3.004l1.671,0.604l1.672-0.604
						C21.601,249.974,20.969,251.213,20.599,252.211z"/>
				</g>
				<g>
					<line style="fill:none;stroke:#000000;stroke-width:0.5;" x1="39.827" y1="219.671" x2="50.368" y2="223.096"/>
					<path d="M52.388,223.753c-1.064,0.044-2.438,0.262-3.375,0.662l1.092-1.403l-0.059-1.776
						C50.57,222.108,51.553,223.092,52.388,223.753z"/>
				</g>
				<g>
					<line style="fill:none;stroke:#000000;stroke-width:0.5;" x1="66.472" y1="222.398" x2="72.718" y2="220.368"/>
					<path d="M74.736,219.713c-0.835,0.661-1.818,1.645-2.341,2.518l0.058-1.777l-1.091-1.402
						C72.299,219.451,73.672,219.669,74.736,219.713z"/>
				</g>
				<g>
					<line style="fill:none;stroke:#000000;stroke-width:0.5;" x1="92.314" y1="222.773" x2="95.873" y2="219.993"/>
					<path d="M97.545,218.684c-0.559,0.907-1.146,2.167-1.338,3.167l-0.553-1.689l-1.505-0.945
						C95.166,219.272,96.531,219.007,97.545,218.684z"/>
				</g>
				<g>
					<line style="fill:none;stroke:#000000;stroke-width:0.5;" x1="42.673" y1="243.093" x2="47.521" y2="248.67"/>
					<path d="M48.914,250.268c-0.935-0.51-2.224-1.03-3.233-1.171l1.658-0.64l0.865-1.553
						C48.203,247.923,48.539,249.272,48.914,250.268z"/>
				</g>
				<g>
					<line style="fill:none;stroke:#000000;stroke-width:0.5;" x1="66.959" y1="245.025" x2="72.23" y2="246.738"/>
					<path d="M74.248,247.393c-1.063,0.044-2.437,0.262-3.374,0.662l1.092-1.403l-0.059-1.776
						C72.431,245.749,73.414,246.733,74.248,247.393z"/>
				</g>
				<g>
					<line style="fill:none;stroke:#000000;stroke-width:0.5;" x1="92.043" y1="245.989" x2="96.143" y2="245.774"/>
					<path d="M98.259,245.662c-0.978,0.422-2.182,1.118-2.913,1.827l0.516-1.701l-0.691-1.637
						C95.973,244.778,97.243,245.344,98.259,245.662z"/>
				</g>
				<g>
					<line style="fill:none;stroke:#000000;stroke-width:0.5;" x1="20.599" y1="160.37" x2="20.599" y2="177.14"/>
					<path d="M20.599,179.262c-0.371-0.999-1.002-2.237-1.672-3.005l1.672,0.604l1.671-0.604
						C21.602,177.025,20.969,178.263,20.599,179.262z"/>
				</g>
				<g>
					<line style="fill:none;stroke:#000000;stroke-width:0.5;" x1="20.599" y1="140.049" x2="20.599" y2="148.465"/>
					<path d="M20.599,150.587c-0.371-0.999-1.002-2.237-1.672-3.005l1.672,0.605l1.671-0.605
						C21.602,148.349,20.969,149.588,20.599,150.587z"/>
				</g>
				<g>
					<line style="fill:none;stroke:#000000;stroke-width:0.5;" x1="52.379" y1="168.038" x2="41.837" y2="171.463"/>
					<path d="M39.82,172.119c0.835-0.661,1.818-1.645,2.341-2.518l-0.058,1.776l1.091,1.403
						C42.257,172.381,40.884,172.163,39.82,172.119z"/>
				</g>
				<g>
					<line style="fill:none;stroke:#000000;stroke-width:0.5;" x1="74.73" y1="173.121" x2="68.483" y2="171.092"/>
					<path d="M66.461,170.437c1.063-0.044,2.437-0.262,3.374-0.662l-1.092,1.403l0.059,1.776
						C68.279,172.082,67.296,171.098,66.461,170.437z"/>
				</g>
				<g>
					<line style="fill:none;stroke:#000000;stroke-width:0.5;" x1="97.476" y1="173.512" x2="93.917" y2="170.732"/>
					<path d="M92.243,169.425c1.015,0.323,2.38,0.587,3.396,0.532l-1.505,0.945l-0.553,1.689
						C93.388,171.592,92.801,170.331,92.243,169.425z"/>
				</g>
				<g>
					<line style="fill:none;stroke:#000000;stroke-width:0.5;" x1="48.811" y1="142.12" x2="43.963" y2="147.697"/>
					<path d="M42.572,149.302c0.375-0.997,0.711-2.346,0.71-3.365l0.865,1.553l1.658,0.64
						C44.797,148.271,43.507,148.791,42.572,149.302z"/>
				</g>
				<g>
					<line style="fill:none;stroke:#000000;stroke-width:0.5;" x1="74.242" y1="144.421" x2="68.971" y2="146.133"/>
					<path d="M66.956,146.79c0.835-0.661,1.818-1.645,2.341-2.519l-0.059,1.777l1.092,1.403
						C69.393,147.052,68.02,146.834,66.956,146.79z"/>
				</g>
				<g>
					<line style="fill:none;stroke:#000000;stroke-width:0.5;" x1="98.307" y1="146.66" x2="94.207" y2="146.446"/>
					<path d="M92.086,146.333c1.016-0.317,2.286-0.884,3.088-1.512l-0.691,1.638l0.516,1.701
						C94.267,147.451,93.063,146.756,92.086,146.333z"/>
				</g>
				<g>
					<line style="fill:none;stroke:#000000;stroke-width:0.5;" x1="118.847" y1="198.578" x2="118.847" y2="195.192"/>
					<path d="M118.847,193.07c0.37,0.999,1.002,2.237,1.671,3.005l-1.671-0.605l-1.671,0.605
						C117.844,195.307,118.476,194.069,118.847,193.07z"/>
				</g>
				<g>
					<line style="fill:none;stroke:#000000;stroke-width:0.5;" x1="117.608" y1="222.538" x2="120.085" y2="220.229"/>
					<path d="M121.635,218.778c-0.478,0.952-0.952,2.259-1.057,3.272l-0.698-1.635l-1.582-0.81
						C119.315,219.57,120.653,219.188,121.635,218.778z"/>
				</g>
				<g>
					<line style="fill:none;stroke:#000000;stroke-width:0.5;" x1="117.322" y1="246.096" x2="120.371" y2="245.667"/>
					<path d="M122.469,245.371c-0.937,0.506-2.076,1.304-2.743,2.073l0.366-1.739l-0.832-1.571
						C120.115,244.69,121.429,245.143,122.469,245.371z"/>
				</g>
				<g>
					<line style="fill:none;stroke:#000000;stroke-width:0.5;" x1="121.688" y1="173.277" x2="119.211" y2="170.967"/>
					<path d="M117.655,169.522c0.983,0.41,2.32,0.792,3.338,0.826l-1.583,0.811l-0.698,1.635
						C118.608,171.781,118.133,170.473,117.655,169.522z"/>
				</g>
				<g>
					<line style="fill:none;stroke:#000000;stroke-width:0.5;" x1="122.535" y1="146.767" x2="119.486" y2="146.339"/>
					<path d="M117.385,146.044c1.04-0.228,2.354-0.682,3.208-1.237l-0.832,1.571l0.366,1.739
						C119.46,147.347,118.322,146.549,117.385,146.044z"/>
				</g>
				<g>
					<line style="fill:none;stroke:#000000;stroke-width:0.5;" x1="143.87" y1="197.135" x2="143.87" y2="194.595"/>
					<path d="M143.87,192.473c0.371,0.998,1.002,2.237,1.672,3.005l-1.672-0.605l-1.671,0.605
						C142.868,194.71,143.5,193.471,143.87,192.473z"/>
				</g>
				<g>
					<line style="fill:none;stroke:#000000;stroke-width:0.5;" x1="143.021" y1="221.647" x2="144.72" y2="219.76"/>
					<path d="M146.141,218.18c-0.393,0.99-0.752,2.333-0.769,3.352l-0.837-1.568l-1.646-0.669
						C143.899,219.172,145.198,218.674,146.141,218.18z"/>
				</g>
				<g>
					<line style="fill:none;stroke:#000000;stroke-width:0.5;" x1="142.746" y1="245.801" x2="144.995" y2="245.281"/>
					<path d="M147.064,244.802c-0.89,0.585-1.955,1.48-2.552,2.305l0.213-1.765l-0.965-1.493
						C144.659,244.328,146.008,244.666,147.064,244.802z"/>
				</g>
				<g>
					<line style="fill:none;stroke:#000000;stroke-width:0.5;" x1="145.922" y1="171.97" x2="144.223" y2="170.083"/>
					<path d="M142.8,168.505c0.943,0.494,2.242,0.992,3.253,1.114l-1.647,0.669l-0.837,1.568
						C143.552,170.838,143.193,169.494,142.8,168.505z"/>
				</g>
				<g>
					<line style="fill:none;stroke:#000000;stroke-width:0.5;" x1="146.618" y1="146.448" x2="144.368" y2="145.928"/>
					<path d="M142.297,145.452c1.056-0.136,2.405-0.474,3.304-0.953l-0.965,1.493l0.213,1.765
						C144.251,146.933,143.187,146.038,142.297,145.452z"/>
				</g>
				<g>
					<rect x="16.197" y="188.019" style="fill:#808080;stroke:#000000;stroke-width:0.5;" width="7.087" height="18.161"/> 
					<polygon style="fill:#808080;stroke:#000000;stroke-width:0.5;stroke-linejoin:round;" points="23.26,187.995 25.54,186.679 
						18.523,186.679 16.244,187.995 "/>
					<polygon style="fill:#808080;stroke:#000000;stroke-width:0.5;" points="25.587,204.833 25.587,186.672 23.254,188.019 
						23.254,206.179 "/>
				</g>
				<path style="fill:#BFBFBF;" d="M72.325,185.692c0,0,0.759,0.665,0.759,0.997s-0.475,0.949-0.475,0.949l-0.576-0.304l-0.99-0.313
					L72.325,185.692z"/>
				<path style="fill:#BFBFBF;" d="M72.116,185.664c0.473-0.799,1.082-1.168,1.912-0.902c0.829,0.265,2.446,1.059,3.827,2.545
					c1.38,1.486,1.544,1.522,2.025,3.4s-0.876,2.729-0.971,2.766c-0.094,0.037-1.306,0.748-2.569-0.556
					c-1.263-1.304-1.11-2.601-1.233-3.157c-0.123-0.556,0.016-0.998,0.016-0.998l-0.231-0.25l-0.2-0.53l-0.226,0.051l-0.137-0.03
					l-0.248-0.311l0.1-0.394l-0.051-0.226l-0.135-0.172l-0.167-0.222l-0.068-0.215l-0.102-0.123l-0.07-0.072l-0.001,0.071
					l-0.262-0.114l-0.278-0.103l-0.165,0.036l-0.135-0.172l-0.054-0.083l-0.142-0.002l-0.088,0.009l-0.107-0.166L72.116,185.664z"/>
				<polyline style="fill:#BFBFBF;" points="72.271,186.469 72.033,187.695 71.756,187.774 71.321,187.497 70.965,187.457 
					71.005,187.892 71.084,188.486 71.361,188.96 71.282,189.316 71.005,189.395 70.886,188.723 70.807,188.327 70.609,187.971 
					70.53,187.655 70.53,187.22 70.847,186.864 71.242,187.22 71.638,187.339 71.915,187.022 "/>
				<path style="fill:none;stroke:#000000;stroke-width:0.4;" d="M72.257,185.659c0.473-0.799,1.083-1.168,1.912-0.902
					s2.446,1.059,3.827,2.545s1.545,1.522,2.025,3.4c0.48,1.878-0.877,2.729-0.971,2.766c-0.094,0.037-1.307,0.747-2.569-0.557
					c-1.263-1.303-1.111-2.601-1.234-3.157c-0.123-0.556,0.016-0.998,0.016-0.998l-0.232-0.25l-0.2-0.53l-0.226,0.051l-0.137-0.03
					l-0.248-0.311l0.1-0.393l-0.051-0.226l-0.134-0.172l-0.167-0.222l-0.068-0.215l-0.102-0.123l-0.07-0.072l-0.001,0.071
					l-0.262-0.114l-0.278-0.103l-0.165,0.036l-0.135-0.172l-0.053-0.083l-0.143-0.002l-0.088,0.009l-0.107-0.166L72.257,185.659z"/>
				<polyline style="fill:none;stroke:#000000;stroke-width:0.3;" points="71.907,187.014 71.855,187.117 71.711,187.258 "/>
				
					<ellipse transform="matrix(-0.6753 0.7375 -0.7375 -0.6753 258.8971 256.4586)" style="fill:none;stroke:#000000;stroke-width:0.3;" cx="72.996" cy="185.218" rx="0.078" ry="0.101"/> 
				<polyline style="fill:none;stroke:#404040;stroke-width:0.3;" points="70.611,188.109 70.58,188.317 70.501,188.085 "/>
				<path style="fill:none;stroke:#404040;stroke-width:0.3;" d="M70.736,187.254c-0.03-0.009-0.051-0.016-0.051-0.016l0.019-0.153
					l-0.081-0.089l0.286-0.067l0.435,0.237l0.283,0.147l0.084-0.125"/>
				<path style="fill:none;stroke:#404040;stroke-width:0.3;" d="M70.81,187.981l-0.065,0.042c0,0-0.094,0.037-0.153-0.019
					c-0.06-0.056-0.141-0.145-0.133-0.244c0.007-0.099,0.004-0.285-0.011-0.346s0.088-0.339,0.088-0.339"/>
				<line style="fill:none;stroke:#404040;stroke-width:0.3;" x1="70.858" y1="188.42" x2="70.955" y2="188.57"/>
				<path style="fill:none;stroke:#404040;stroke-width:0.3;" d="M70.967,188.853c-0.064,0.047-0.133,0.077-0.133,0.077l0.009-0.241
					"/>
				<polyline style="fill:none;stroke:#404040;stroke-width:0.3;" points="71.119,189.227 71.059,189.279 70.946,189.14 "/>
				<line style="fill:none;stroke:#404040;stroke-width:0.3;" x1="71.085" y1="189.356" x2="71.002" y2="189.409"/>
				<polyline style="fill:none;stroke:#404040;stroke-width:0.3;" points="71.002,189.409 70.904,189.331 70.822,189.314 
					70.854,189.435 71.045,189.476 71.178,189.39 71.19,189.264 "/>
				<polyline style="fill:none;stroke:#404040;stroke-width:0.3;" points="74.509,186.161 74.615,186.399 74.639,186.618 
					74.575,186.848 74.375,186.976 "/>
				<polyline style="fill:none;stroke:#404040;stroke-width:0.3;" points="73.797,185.749 73.801,185.865 73.787,186.062 
					73.752,186.155 "/>
				<polyline style="fill:none;stroke:#404040;stroke-width:0.3;" points="73.355,188.386 73.361,188.688 73.576,188.62 
					73.769,188.59 73.782,188.464 "/>
				<line style="fill:none;stroke:#404040;stroke-width:0.3;" x1="74.227" y1="188.06" x2="74.469" y2="187.998"/>
				<polyline style="fill:none;stroke:#404040;stroke-width:0.3;" points="73.85,186.562 73.709,186.818 73.817,186.912 
					74.09,186.972 "/>
				<path style="fill:none;stroke:#404040;stroke-width:0.3;" d="M73.75,186.955l-0.147,0.283l-0.115,0.333l-0.171,0.392
					l-0.015,0.269l0.052,0.154c0,0,0.175,0.052,0.246,0.054c0.071,0.001,0.271-0.127,0.271-0.127l0.21-0.112l0.078-0.427"/>
				<polyline style="fill:none;stroke:#404040;stroke-width:0.3;" points="74.182,189.192 74.094,189.204 73.736,189.27 
					73.47,189.112 73.392,188.809 "/>
				<polyline style="fill:none;stroke:#404040;stroke-width:0.3;" points="74.492,189.347 74.065,189.599 73.505,190.007 
					73.667,190.185 73.702,190.322 "/>
				<polyline style="fill:none;stroke:#404040;stroke-width:0.3;" points="73.473,190.565 73.288,190.546 73.512,190.237 "/>
				<polyline style="fill:none;stroke:#404040;stroke-width:0.3;" points="73.462,190.999 73.275,191.001 73.324,190.711 "/>
				<polyline style="fill:none;stroke:#404040;stroke-width:0.3;" points="73.438,191.289 73.445,191.339 73.357,191.348 
					73.268,191.1 "/>
				<polyline style="fill:none;stroke:#404040;stroke-width:0.3;" points="73.478,191.625 73.49,191.663 73.33,191.743 
					73.188,191.34 "/>
				<polyline style="fill:none;stroke:#404040;stroke-width:0.3;" points="73.643,192.143 73.652,192.17 73.498,192.222 
					73.35,191.847 "/>
				<polyline style="fill:none;stroke:#404040;stroke-width:0.3;" points="73.795,189.726 73.478,189.672 73.337,189.527 
					73.373,189.363 73.463,189.211 "/>
				<line style="fill:none;stroke:#404040;stroke-width:0.3;" x1="75.185" y1="188.854" x2="75.133" y2="189.029"/>
				<g>
					<polyline style="fill:none;stroke:#808080;stroke-width:0.2;" points="73.769,188.59 74.194,188.74 74.656,188.983 
						74.917,189.168 74.767,189.264 74.608,189.273 74.483,189.189 74.374,189.165 74.182,189.192 "/>
					<polyline style="fill:none;stroke:#808080;stroke-width:0.2;" points="73.702,190.322 73.713,190.366 74.053,190.054 
						74.676,189.488 74.866,189.271 "/>
					<polyline style="fill:none;stroke:#808080;stroke-width:0.2;" points="74.985,189.383 75.038,189.466 74.882,189.661 
						74.669,189.915 74.437,190.065 "/>
					<polyline style="fill:none;stroke:#808080;stroke-width:0.2;" points="75.138,189.731 75.008,190.003 74.724,190.256 
						74.608,190.331 "/>
				</g>
				<polyline style="fill:none;stroke:#404040;stroke-width:0.3;" points="74.63,191.352 74.475,191.476 74.392,191.529 
					74.128,191.157 73.858,190.885 73.593,190.656 "/>
				<line style="fill:none;stroke:#808080;stroke-width:0.2;" x1="73.792" y1="190.927" x2="73.693" y2="191.213"/>
				<polyline style="fill:none;stroke:#404040;stroke-width:0.3;" points="73.693,191.213 73.677,191.26 73.553,191.105 
					73.656,190.826 "/>
				<line style="fill:none;stroke:#808080;stroke-width:0.2;" x1="73.627" y1="191.292" x2="73.569" y2="191.494"/>
				<polyline style="fill:none;stroke:#404040;stroke-width:0.3;" points="73.262,191.857 73.137,191.773 73.182,191.697 "/>
				<polyline style="fill:none;stroke:#404040;stroke-width:0.3;" points="73.131,192.129 73,192.072 73.098,191.822 "/>
				<polyline style="fill:none;stroke:#404040;stroke-width:0.3;" points="73.018,192.39 72.844,192.267 72.94,192.088 "/>
				<polyline style="fill:none;stroke:#404040;stroke-width:0.3;" points="72.805,192.316 72.607,192.302 72.524,192.026 "/>
				<polyline style="fill:none;stroke:#404040;stroke-width:0.3;" points="73.088,192.463 73.141,192.546 73.306,192.51 "/>
				<g>
					<polyline style="fill:none;stroke:#808080;stroke-width:0.2;" points="73.626,190.305 73.54,190.573 73.473,190.565 "/>
					<line style="fill:none;stroke:#808080;stroke-width:0.2;" x1="73.478" y1="190.659" x2="73.462" y2="190.999"/>
					<line style="fill:none;stroke:#808080;stroke-width:0.2;" x1="73.416" y1="191.146" x2="73.438" y2="191.289"/>
					<line style="fill:none;stroke:#808080;stroke-width:0.2;" x1="73.422" y1="191.448" x2="73.478" y2="191.625"/>
					<line style="fill:none;stroke:#808080;stroke-width:0.2;" x1="73.531" y1="191.801" x2="73.643" y2="192.143"/>
					<line style="fill:none;stroke:#808080;stroke-width:0.2;" x1="73.217" y1="191.933" x2="73.131" y2="192.129"/>
					<line style="fill:none;stroke:#808080;stroke-width:0.2;" x1="73.103" y1="192.195" x2="73.018" y2="192.39"/>
					<polyline style="fill:none;stroke:#808080;stroke-width:0.2;" points="73.595,192.301 73.604,192.46 73.532,192.459 "/>
				</g>
				<polyline style="fill:none;stroke:#404040;stroke-width:0.3;" points="73.441,192.282 73.375,192.325 73.4,192.473 "/>
				<polyline style="fill:none;stroke:#404040;stroke-width:0.3;" points="74.24,193.156 74.07,193.148 74.361,192.395 
					74.737,191.518 "/>
				<polyline style="fill:none;stroke:#404040;stroke-width:0.3;" points="74.373,191.682 74.062,192.259 73.667,192.96 
					73.603,193.19 73.862,193.117 "/>
				<path style="fill:none;stroke:#808080;stroke-width:0.2;" d="M78.267,187.878c0,0-0.04,0.593-0.237,0.712
					s-0.949,0.514-0.949,0.514l-0.87-0.119"/>
				<polyline style="fill:none;stroke:#808080;stroke-width:0.2;" points="77.357,189.222 77.396,189.895 76.407,190.409 
					75.735,190.369 "/>
				<polyline style="fill:none;stroke:#808080;stroke-width:0.2;" points="79.849,191.358 78.979,191.635 78.148,191.675 
					77.792,191.358 "/>
				<g>
					<line style="fill:none;stroke:#000000;stroke-width:0.5;" x1="20.599" y1="72.949" x2="20.599" y2="89.719"/>
					<path d="M20.599,91.841c-0.37-0.998-1.002-2.237-1.671-3.005l1.671,0.605l1.672-0.605
						C21.601,89.604,20.969,90.842,20.599,91.841z"/>
				</g>
				<g>
					<line style="fill:none;stroke:#000000;stroke-width:0.5;" x1="45.097" y1="63.507" x2="45.097" y2="50.165"/>
					<path d="M45.097,48.044c0.37,0.998,1.002,2.237,1.671,3.004l-1.671-0.604l-1.672,0.604
						C44.095,50.281,44.727,49.042,45.097,48.044z"/>
				</g>
				<g>
					<line style="fill:none;stroke:#000000;stroke-width:0.5;" x1="69.595" y1="60.223" x2="69.595" y2="53.449"/>
					<path d="M69.595,51.328c0.37,0.998,1.002,2.237,1.671,3.005l-1.671-0.605l-1.671,0.605
						C68.593,53.565,69.225,52.326,69.595,51.328z"/>
				</g>
				<g>
					<line style="fill:none;stroke:#000000;stroke-width:0.5;" x1="94.093" y1="59.094" x2="94.093" y2="54.578"/>
					<path d="M94.093,52.457c0.37,0.998,1.002,2.237,1.671,3.005l-1.671-0.605l-1.671,0.605
						C93.091,54.694,93.723,53.455,94.093,52.457z"/>
				</g>
				<g>
					<line style="fill:none;stroke:#000000;stroke-width:0.5;" x1="20.599" y1="101.624" x2="20.599" y2="110.04"/>
					<path d="M20.599,112.162c-0.37-0.999-1.002-2.237-1.671-3.005l1.671,0.604l1.672-0.604
						C21.601,109.925,20.969,111.163,20.599,112.162z"/>
				</g>
				<g>
					<line style="fill:none;stroke:#000000;stroke-width:0.5;" x1="39.827" y1="79.622" x2="50.368" y2="83.047"/>
					<path d="M52.388,83.704c-1.064,0.044-2.438,0.262-3.375,0.661l1.092-1.403l-0.059-1.777
						C50.57,82.059,51.553,83.043,52.388,83.704z"/>
				</g>
				<g>
					<line style="fill:none;stroke:#000000;stroke-width:0.5;" x1="66.472" y1="82.349" x2="72.718" y2="80.319"/>
					<path d="M74.736,79.664c-0.835,0.661-1.818,1.645-2.341,2.518l0.058-1.777l-1.091-1.403
						C72.299,79.402,73.672,79.62,74.736,79.664z"/>
				</g>
				<g>
					<line style="fill:none;stroke:#000000;stroke-width:0.5;" x1="92.314" y1="82.724" x2="95.873" y2="79.944"/>
					<path d="M97.545,78.635c-0.559,0.906-1.146,2.167-1.338,3.167l-0.553-1.689l-1.505-0.945
						C95.166,79.222,96.531,78.958,97.545,78.635z"/>
				</g>
				<g>
					<line style="fill:none;stroke:#000000;stroke-width:0.5;" x1="42.673" y1="103.044" x2="47.521" y2="108.621"/>
					<path d="M48.914,110.219c-0.935-0.51-2.224-1.03-3.233-1.171l1.658-0.64l0.865-1.553
						C48.203,107.873,48.539,109.223,48.914,110.219z"/>
				</g>
				<g>
					<line style="fill:none;stroke:#000000;stroke-width:0.5;" x1="66.959" y1="104.976" x2="72.23" y2="106.689"/>
					<path d="M74.248,107.344c-1.063,0.044-2.437,0.262-3.374,0.661l1.092-1.403l-0.059-1.776
						C72.431,105.699,73.414,106.684,74.248,107.344z"/>
				</g>
				<g>
					<line style="fill:none;stroke:#000000;stroke-width:0.5;" x1="92.043" y1="105.94" x2="96.143" y2="105.725"/>
					<path d="M98.259,105.613c-0.978,0.422-2.182,1.118-2.913,1.827l0.516-1.701l-0.691-1.637
						C95.973,104.729,97.243,105.295,98.259,105.613z"/>
				</g>
				<g>
					<line style="fill:none;stroke:#000000;stroke-width:0.5;" x1="20.599" y1="20.321" x2="20.599" y2="37.091"/>
					<path d="M20.599,39.212c-0.371-0.998-1.002-2.237-1.672-3.005l1.672,0.604l1.671-0.604
						C21.602,36.976,20.969,38.214,20.599,39.212z"/>
				</g>
				<g>
					<line style="fill:none;stroke:#000000;stroke-width:0.5;" x1="20.599" y1="0" x2="20.599" y2="8.416"/>
					<path d="M20.599,10.537c-0.371-0.998-1.002-2.237-1.672-3.005l1.672,0.604l1.671-0.604C21.602,8.3,20.969,9.539,20.599,10.537z
						"/>
				</g>
				<g>
					<line style="fill:none;stroke:#000000;stroke-width:0.5;" x1="52.379" y1="27.989" x2="41.837" y2="31.414"/>
					<path d="M39.82,32.07c0.835-0.661,1.818-1.645,2.341-2.519l-0.058,1.777l1.091,1.403C42.257,32.332,40.884,32.114,39.82,32.07z
						"/>
				</g>
				<g>
					<line style="fill:none;stroke:#000000;stroke-width:0.5;" x1="74.73" y1="33.072" x2="68.483" y2="31.042"/>
					<path d="M66.461,30.388c1.063-0.044,2.437-0.262,3.374-0.661l-1.092,1.403l0.059,1.776
						C68.279,32.032,67.296,31.049,66.461,30.388z"/>
				</g>
				<g>
					<line style="fill:none;stroke:#000000;stroke-width:0.5;" x1="97.476" y1="33.463" x2="93.917" y2="30.683"/>
					<path d="M92.243,29.375c1.015,0.323,2.38,0.587,3.396,0.532l-1.505,0.945l-0.553,1.689
						C93.388,31.542,92.801,30.281,92.243,29.375z"/>
				</g>
				<g>
					<line style="fill:none;stroke:#000000;stroke-width:0.5;" x1="48.811" y1="2.071" x2="43.963" y2="7.647"/>
					<path d="M42.572,9.252c0.375-0.996,0.711-2.346,0.71-3.364l0.865,1.553l1.658,0.64C44.797,8.222,43.507,8.742,42.572,9.252z"/>
				</g>
				<g>
					<line style="fill:none;stroke:#000000;stroke-width:0.5;" x1="74.242" y1="4.371" x2="68.971" y2="6.084"/>
					<path d="M66.956,6.741c0.835-0.661,1.818-1.645,2.341-2.518l-0.059,1.777l1.092,1.403C69.393,7.003,68.02,6.784,66.956,6.741z"
						/>
				</g>
				<g>
					<line style="fill:none;stroke:#000000;stroke-width:0.5;" x1="98.307" y1="6.611" x2="94.207" y2="6.396"/>
					<path d="M92.086,6.284c1.016-0.318,2.286-0.884,3.088-1.512L94.482,6.41l0.516,1.701C94.267,7.402,93.063,6.706,92.086,6.284z"
						/>
				</g>
				<g>
					<line style="fill:none;stroke:#000000;stroke-width:0.5;" x1="118.847" y1="58.53" x2="118.847" y2="55.143"/>
					<path d="M118.847,53.021c0.37,0.998,1.002,2.237,1.671,3.005l-1.671-0.605l-1.671,0.605
						C117.844,55.258,118.476,54.019,118.847,53.021z"/>
				</g>
				<g>
					<line style="fill:none;stroke:#000000;stroke-width:0.5;" x1="117.608" y1="82.489" x2="120.085" y2="80.179"/>
					<path d="M121.635,78.728c-0.478,0.952-0.952,2.259-1.057,3.272l-0.698-1.635l-1.582-0.81
						C119.315,79.521,120.653,79.138,121.635,78.728z"/>
				</g>
				<g>
					<line style="fill:none;stroke:#000000;stroke-width:0.5;" x1="117.322" y1="106.046" x2="120.371" y2="105.618"/>
					<path d="M122.469,105.322c-0.937,0.506-2.076,1.304-2.743,2.073l0.366-1.74l-0.832-1.571
						C120.115,104.64,121.429,105.094,122.469,105.322z"/>
				</g>
				<g>
					<line style="fill:none;stroke:#000000;stroke-width:0.5;" x1="121.688" y1="33.228" x2="119.211" y2="30.918"/>
					<path d="M117.655,29.472c0.983,0.41,2.32,0.792,3.338,0.827l-1.583,0.81l-0.698,1.635
						C118.608,31.731,118.133,30.424,117.655,29.472z"/>
				</g>
				<g>
					<line style="fill:none;stroke:#000000;stroke-width:0.5;" x1="122.535" y1="6.718" x2="119.486" y2="6.29"/>
					<path d="M117.385,5.994c1.04-0.228,2.354-0.681,3.208-1.237l-0.832,1.571l0.366,1.739C119.46,7.298,118.322,6.5,117.385,5.994z
						"/>
				</g>
				<g>
					<line style="fill:none;stroke:#000000;stroke-width:0.5;" x1="143.87" y1="57.085" x2="143.87" y2="54.546"/>
					<path d="M143.87,52.424c0.371,0.998,1.002,2.237,1.672,3.004l-1.672-0.604l-1.671,0.604
						C142.868,54.661,143.5,53.422,143.87,52.424z"/>
				</g>
				<g>
					<line style="fill:none;stroke:#000000;stroke-width:0.5;" x1="143.021" y1="81.597" x2="144.72" y2="79.71"/>
					<path d="M146.141,78.131c-0.393,0.99-0.752,2.333-0.769,3.352l-0.837-1.568l-1.646-0.669
						C143.899,79.122,145.198,78.625,146.141,78.131z"/>
				</g>
				<g>
					<line style="fill:none;stroke:#000000;stroke-width:0.5;" x1="142.746" y1="105.752" x2="144.995" y2="105.232"/>
					<path d="M147.064,104.753c-0.89,0.585-1.955,1.48-2.552,2.304l0.213-1.765l-0.965-1.493
						C144.659,104.279,146.008,104.616,147.064,104.753z"/>
				</g>
				<g>
					<line style="fill:none;stroke:#000000;stroke-width:0.5;" x1="145.922" y1="31.921" x2="144.223" y2="30.033"/>
					<path d="M142.8,28.456c0.943,0.494,2.242,0.991,3.253,1.114l-1.647,0.669l-0.837,1.568
						C143.552,30.789,143.193,29.445,142.8,28.456z"/>
				</g>
				<g>
					<line style="fill:none;stroke:#000000;stroke-width:0.5;" x1="146.618" y1="6.398" x2="144.368" y2="5.879"/>
					<path d="M142.297,5.403c1.056-0.136,2.405-0.473,3.304-0.953l-0.965,1.493l0.213,1.765
						C144.251,6.883,143.187,5.989,142.297,5.403z"/>
				</g>
				<g>
					<rect x="16.197" y="47.969" style="fill:#808080;stroke:#000000;stroke-width:0.5;" width="7.087" height="18.161"/> 
					<polygon style="fill:#808080;stroke:#000000;stroke-width:0.5;stroke-linejoin:round;" points="23.26,47.946 25.54,46.63 
						18.523,46.63 16.244,47.946 "/>
					<polygon style="fill:#808080;stroke:#000000;stroke-width:0.5;" points="25.587,64.784 25.587,46.623 23.254,47.969 
						23.254,66.13 "/>
				</g>
				<g>
					<path style="fill:#BFBFBF;" d="M29.226,39.666c0,0-0.759,0.665-0.759,0.997c0,0.332,0.474,0.949,0.474,0.949l0.577-0.304
						l0.99-0.313L29.226,39.666z"/>
					<path style="fill:#BFBFBF;" d="M29.435,39.637c-0.473-0.799-1.083-1.167-1.912-0.902s-2.446,1.059-3.827,2.545
						s-1.545,1.522-2.025,3.4c-0.48,1.878,0.876,2.729,0.97,2.766c0.094,0.037,1.307,0.747,2.569-0.556
						c1.263-1.303,1.111-2.601,1.234-3.157c0.123-0.556-0.016-0.998-0.016-0.998l0.232-0.25l0.2-0.53l0.226,0.051l0.137-0.03
						l0.248-0.311l-0.1-0.393l0.051-0.226l0.135-0.172l0.166-0.222l0.068-0.215l0.102-0.122l0.07-0.072l0.001,0.071l0.262-0.114
						l0.278-0.103l0.165,0.036l0.135-0.172l0.053-0.083L29,39.875l0.088,0.01l0.107-0.166L29.435,39.637z"/>
					<polygon style="fill:#BFBFBF;" points="27.82,41.207 28.176,42.196 28.057,42.67 28.057,43.105 28.176,43.58 27.583,43.738 
						28.057,44.371 28.255,44.925 28.255,45.518 28.571,45.992 28.571,46.348 28.215,45.795 28.097,46.151 27.899,46.388 
						27.978,45.913 27.899,45.439 27.741,45.004 27.108,45.636 27.622,46.586 27.859,47.574 27.464,48.919 27.068,49.394 
						26.871,49.394 27.187,48.879 27.464,48.247 27.622,47.535 26.989,48.484 26.554,49.038 26.356,49.038 26.752,48.563 
						27.068,48.01 27.266,47.258 26.989,46.546 26.594,45.636 26.594,45.122 26.792,44.529 26.633,44.173 26.396,43.817 
						25.249,42.868 26.554,40.93 26.95,40.455 "/>
					<polyline style="fill:#BFBFBF;" points="29.28,40.442 29.518,41.668 29.794,41.747 30.229,41.47 30.585,41.431 30.546,41.866 
						30.467,42.459 30.19,42.934 30.269,43.29 30.546,43.369 30.665,42.696 30.744,42.301 30.941,41.945 31.021,41.628 
						31.021,41.194 30.704,40.838 30.309,41.194 29.913,41.312 29.636,40.996 "/>
					<path style="fill:none;stroke:#000000;stroke-width:0.4;" d="M29.293,39.633c-0.473-0.799-1.083-1.168-1.912-0.902
						c-0.83,0.265-2.446,1.059-3.827,2.545c-1.381,1.486-1.545,1.522-2.025,3.4c-0.48,1.878,0.877,2.729,0.971,2.766
						c0.094,0.037,1.307,0.748,2.569-0.556c1.263-1.303,1.111-2.601,1.233-3.157c0.123-0.556-0.016-0.998-0.016-0.998l0.232-0.25
						l0.2-0.53l0.226,0.051l0.137-0.03l0.248-0.311l-0.1-0.393l0.051-0.226l0.134-0.172l0.167-0.222l0.068-0.215l0.103-0.122
						l0.07-0.072l0.001,0.071l0.261-0.114l0.278-0.103l0.165,0.036l0.134-0.172l0.054-0.083l0.143-0.002l0.088,0.01l0.107-0.166
						L29.293,39.633z"/>
					<polyline style="fill:none;stroke:#000000;stroke-width:0.3;" points="29.644,40.988 29.695,41.091 29.84,41.231 "/>
					
						<ellipse transform="matrix(0.6736 0.7391 -0.7391 0.6736 38.2864 -8.3121)" style="fill:none;stroke:#000000;stroke-width:0.3;" cx="28.554" cy="39.192" rx="0.078" ry="0.101"/> 
					<polyline style="fill:none;stroke:#404040;stroke-width:0.3;" points="30.939,42.083 30.97,42.291 31.049,42.059 "/>
					<path style="fill:none;stroke:#404040;stroke-width:0.3;" d="M30.814,41.227c0.03-0.009,0.051-0.016,0.051-0.016l-0.019-0.153
						l0.081-0.089l-0.287-0.067l-0.435,0.237l-0.283,0.147l-0.084-0.125"/>
					<path style="fill:none;stroke:#404040;stroke-width:0.3;" d="M30.741,41.955l0.065,0.042c0,0,0.094,0.037,0.153-0.019
						s0.14-0.145,0.133-0.243s-0.004-0.285,0.011-0.346c0.015-0.061-0.088-0.339-0.088-0.339"/>
					<line style="fill:none;stroke:#404040;stroke-width:0.3;" x1="30.692" y1="42.394" x2="30.596" y2="42.543"/>
					<path style="fill:none;stroke:#404040;stroke-width:0.3;" d="M30.583,42.827c0.065,0.047,0.134,0.077,0.134,0.077l-0.009-0.241
						"/>
					<polyline style="fill:none;stroke:#404040;stroke-width:0.3;" points="30.432,43.2 30.492,43.252 30.605,43.114 "/>
					<line style="fill:none;stroke:#404040;stroke-width:0.3;" x1="30.466" y1="43.33" x2="30.549" y2="43.383"/>
					<polyline style="fill:none;stroke:#404040;stroke-width:0.3;" points="30.549,43.383 30.646,43.305 30.729,43.287 
						30.697,43.408 30.506,43.45 30.373,43.364 30.36,43.238 "/>
					<polyline style="fill:none;stroke:#404040;stroke-width:0.3;" points="27.042,40.135 26.936,40.372 26.912,40.592 
						26.976,40.821 27.175,40.95 "/>
					<polyline style="fill:none;stroke:#404040;stroke-width:0.3;" points="27.753,39.723 27.75,39.838 27.764,40.035 
						27.798,40.128 "/>
					<polyline style="fill:none;stroke:#404040;stroke-width:0.3;" points="28.196,42.36 28.189,42.662 27.975,42.594 
						27.782,42.564 27.769,42.438 "/>
					<line style="fill:none;stroke:#404040;stroke-width:0.3;" x1="27.324" y1="42.033" x2="27.082" y2="41.971"/>
					<polyline style="fill:none;stroke:#404040;stroke-width:0.3;" points="27.701,40.535 27.842,40.791 27.733,40.886 
						27.46,40.945 "/>
					<path style="fill:none;stroke:#404040;stroke-width:0.3;" d="M27.8,40.929l0.147,0.283l0.115,0.333l0.171,0.392l0.015,0.269
						l-0.052,0.155c0,0-0.175,0.052-0.246,0.053c-0.071,0.001-0.271-0.127-0.271-0.127l-0.21-0.112l-0.078-0.427"/>
					<polyline style="fill:none;stroke:#404040;stroke-width:0.3;" points="27.369,43.165 27.457,43.178 27.814,43.243 
						28.081,43.086 28.159,42.783 "/>
					<polyline style="fill:none;stroke:#404040;stroke-width:0.3;" points="27.059,43.321 27.485,43.572 28.046,43.98 
						27.884,44.158 27.849,44.295 "/>
					<polyline style="fill:none;stroke:#404040;stroke-width:0.3;" points="28.078,44.539 28.263,44.52 28.039,44.211 "/>
					<polyline style="fill:none;stroke:#404040;stroke-width:0.3;" points="28.089,44.972 28.275,44.975 28.227,44.685 "/>
					<polyline style="fill:none;stroke:#404040;stroke-width:0.3;" points="28.113,45.263 28.105,45.312 28.193,45.322 
						28.282,45.073 "/>
					<polyline style="fill:none;stroke:#404040;stroke-width:0.3;" points="28.073,45.598 28.061,45.636 28.221,45.716 
						28.363,45.314 "/>
					<polyline style="fill:none;stroke:#404040;stroke-width:0.3;" points="27.908,46.117 27.899,46.144 28.053,46.196 
						28.201,45.821 "/>
					<polyline style="fill:none;stroke:#404040;stroke-width:0.3;" points="27.756,43.7 28.073,43.645 28.214,43.5 28.178,43.336 
						28.088,43.184 "/>
					<line style="fill:none;stroke:#404040;stroke-width:0.3;" x1="26.365" y1="42.827" x2="26.417" y2="43.002"/>
					<g>
						<polyline style="fill:none;stroke:#808080;stroke-width:0.2;" points="27.782,42.564 27.356,42.713 26.894,42.956 
							26.634,43.141 26.783,43.238 26.942,43.246 27.067,43.162 27.177,43.138 27.369,43.165 "/>
						<polyline style="fill:none;stroke:#808080;stroke-width:0.2;" points="27.849,44.295 27.837,44.34 27.498,44.027 
							26.875,43.461 26.685,43.245 "/>
						<polyline style="fill:none;stroke:#808080;stroke-width:0.2;" points="26.566,43.356 26.512,43.44 26.669,43.635 
							26.881,43.889 27.114,44.039 "/>
						<polyline style="fill:none;stroke:#808080;stroke-width:0.2;" points="26.412,43.704 26.542,43.977 26.827,44.23 
							26.943,44.305 "/>
					</g>
					<polyline style="fill:none;stroke:#404040;stroke-width:0.3;" points="26.92,45.325 27.076,45.449 27.159,45.503 
						27.422,45.131 27.692,44.858 27.957,44.629 "/>
					<line style="fill:none;stroke:#808080;stroke-width:0.2;" x1="27.759" y1="44.901" x2="27.857" y2="45.186"/>
					<polyline style="fill:none;stroke:#404040;stroke-width:0.3;" points="27.857,45.186 27.874,45.234 27.997,45.078 27.894,44.8 
						"/>
					<line style="fill:none;stroke:#808080;stroke-width:0.2;" x1="27.923" y1="45.266" x2="27.981" y2="45.468"/>
					<polyline style="fill:none;stroke:#404040;stroke-width:0.3;" points="28.289,45.83 28.414,45.746 28.369,45.67 "/>
					<polyline style="fill:none;stroke:#404040;stroke-width:0.3;" points="28.419,46.103 28.55,46.046 28.453,45.795 "/>
					<polyline style="fill:none;stroke:#404040;stroke-width:0.3;" points="28.533,46.364 28.707,46.241 28.611,46.061 "/>
					<polyline style="fill:none;stroke:#404040;stroke-width:0.3;" points="28.746,46.29 28.943,46.275 29.026,46 "/>
					<polyline style="fill:none;stroke:#404040;stroke-width:0.3;" points="28.463,46.437 28.41,46.52 28.244,46.484 "/>
					<g>
						<polyline style="fill:none;stroke:#808080;stroke-width:0.2;" points="27.924,44.278 28.011,44.546 28.078,44.539 "/>
						<line style="fill:none;stroke:#808080;stroke-width:0.2;" x1="28.072" y1="44.633" x2="28.089" y2="44.972"/>
						<line style="fill:none;stroke:#808080;stroke-width:0.2;" x1="28.135" y1="45.12" x2="28.113" y2="45.263"/>
						<line style="fill:none;stroke:#808080;stroke-width:0.2;" x1="28.129" y1="45.422" x2="28.073" y2="45.598"/>
						<line style="fill:none;stroke:#808080;stroke-width:0.2;" x1="28.019" y1="45.774" x2="27.908" y2="46.117"/>
						<line style="fill:none;stroke:#808080;stroke-width:0.2;" x1="28.334" y1="45.906" x2="28.419" y2="46.103"/>
						<line style="fill:none;stroke:#808080;stroke-width:0.2;" x1="28.448" y1="46.168" x2="28.533" y2="46.364"/>
						<polyline style="fill:none;stroke:#808080;stroke-width:0.2;" points="27.956,46.274 27.947,46.434 28.019,46.433 "/>
					</g>
					<polyline style="fill:none;stroke:#404040;stroke-width:0.3;" points="28.109,46.256 28.176,46.299 28.15,46.447 "/>
					<polyline style="fill:none;stroke:#404040;stroke-width:0.3;" points="27.311,47.129 27.481,47.121 27.189,46.369 
						26.813,45.492 "/>
					<polyline style="fill:none;stroke:#404040;stroke-width:0.3;" points="27.178,45.656 27.489,46.232 27.884,46.934 
						27.948,47.163 27.689,47.091 "/>
					<polyline style="fill:none;stroke:#404040;stroke-width:0.3;" points="27.226,47.663 27.382,47.786 27.596,47.454 "/>
					<polyline style="fill:none;stroke:#404040;stroke-width:0.3;" points="27.094,47.978 27.272,48.139 27.384,47.929 "/>
					<polyline style="fill:none;stroke:#404040;stroke-width:0.3;" points="26.891,48.293 27.09,48.422 27.24,48.189 "/>
					<polyline style="fill:none;stroke:#404040;stroke-width:0.3;" points="26.736,48.57 26.837,48.706 27.003,48.484 "/>
					<polyline style="fill:none;stroke:#404040;stroke-width:0.3;" points="26.454,48.833 26.358,48.938 26.502,49.078 
						26.728,48.729 "/>
					<polyline style="fill:none;stroke:#404040;stroke-width:0.3;" points="26.358,48.938 26.234,49.094 26.362,49.223 
						26.443,49.134 "/>
					<polyline style="fill:none;stroke:#404040;stroke-width:0.3;" points="26.401,49.272 26.41,49.442 26.576,49.549 "/>
					<polyline style="fill:none;stroke:#404040;stroke-width:0.3;" points="27.862,47.296 27.832,47.818 27.602,47.811 "/>
					<polyline style="fill:none;stroke:#404040;stroke-width:0.3;" points="27.438,48.246 27.621,48.364 27.813,47.994 "/>
					<polyline style="fill:none;stroke:#404040;stroke-width:0.3;" points="27.312,48.588 27.551,48.766 27.656,48.457 "/>
					<polyline style="fill:none;stroke:#404040;stroke-width:0.3;" points="27.121,48.959 27.232,49.078 27.497,48.849 "/>
					<line style="fill:none;stroke:#404040;stroke-width:0.3;" x1="27.052" y1="49.103" x2="26.787" y2="49.332"/>
					<g>
						<polyline style="fill:none;stroke:#808080;stroke-width:0.2;" points="27.31,43.953 26.805,44.592 26.646,44.913 
							26.516,45.258 "/>
						<polyline style="fill:none;stroke:#808080;stroke-width:0.2;" points="26.516,45.258 26.482,45.349 26.658,45.368 
							26.746,45.378 "/>
						<polyline style="fill:none;stroke:#808080;stroke-width:0.2;" points="27.362,44.128 27.053,44.682 26.922,45.068 
							26.92,45.325 "/>
						<polyline style="fill:none;stroke:#808080;stroke-width:0.2;" points="26.571,45.43 26.862,46.111 26.976,46.372 27.07,46.48 
							27.13,46.754 27.311,47.129 "/>
						<polyline style="fill:none;stroke:#808080;stroke-width:0.2;" points="27.689,47.091 27.467,46.595 26.984,45.884 
							26.958,45.632 "/>
						<line style="fill:none;stroke:#808080;stroke-width:0.2;" x1="27.357" y1="47.277" x2="27.226" y2="47.663"/>
						<line style="fill:none;stroke:#808080;stroke-width:0.2;" x1="27.212" y1="47.795" x2="27.094" y2="47.978"/>
						<line style="fill:none;stroke:#808080;stroke-width:0.2;" x1="27.036" y1="48.105" x2="26.891" y2="48.293"/>
						<line style="fill:none;stroke:#808080;stroke-width:0.2;" x1="26.881" y1="48.381" x2="26.736" y2="48.57"/>
						<line style="fill:none;stroke:#808080;stroke-width:0.2;" x1="26.67" y1="48.599" x2="26.454" y2="48.833"/>
						<line style="fill:none;stroke:#808080;stroke-width:0.2;" x1="27.602" y1="47.811" x2="27.697" y2="47.26"/>
						<line style="fill:none;stroke:#808080;stroke-width:0.2;" x1="27.564" y1="47.904" x2="27.438" y2="48.246"/>
						<line style="fill:none;stroke:#808080;stroke-width:0.2;" x1="27.424" y1="48.378" x2="27.312" y2="48.588"/>
						<line style="fill:none;stroke:#808080;stroke-width:0.2;" x1="27.336" y1="48.698" x2="27.121" y2="48.959"/>
						<polyline style="fill:none;stroke:#808080;stroke-width:0.2;" points="26.787,49.332 26.933,49.543 27.179,49.161 "/>
					</g>
					<polyline style="fill:none;stroke:#404040;stroke-width:0.3;" points="26.784,49.518 26.853,49.704 27.065,49.958 
						27.153,49.968 "/>
					<g>
						<line style="fill:none;stroke:#808080;stroke-width:0.2;" x1="28.304" y1="42.265" x2="28.333" y2="42.402"/>
						<line style="fill:none;stroke:#808080;stroke-width:0.2;" x1="28.083" y1="41.44" x2="28.156" y2="41.582"/>
						<line style="fill:none;stroke:#808080;stroke-width:0.2;" x1="28.22" y1="41.811" x2="28.327" y2="41.974"/>
						<line style="fill:none;stroke:#808080;stroke-width:0.2;" x1="27.947" y1="41.212" x2="28.119" y2="41.346"/>
						<line style="fill:none;stroke:#808080;stroke-width:0.2;" x1="28.016" y1="47.277" x2="28.065" y2="47.638"/>
						<line style="fill:none;stroke:#808080;stroke-width:0.2;" x1="28.075" y1="47.222" x2="28.294" y2="47.574"/>
					</g>
					<path style="fill:none;stroke:#808080;stroke-width:0.2;" d="M23.284,41.851c0,0,0.04,0.593,0.237,0.712
						s0.949,0.514,0.949,0.514l0.87-0.119"/>
					<polyline style="fill:none;stroke:#808080;stroke-width:0.2;" points="24.194,43.196 24.154,43.868 25.143,44.383 
						25.815,44.343 "/>
					<polyline style="fill:none;stroke:#808080;stroke-width:0.2;" points="21.702,45.332 22.572,45.609 23.403,45.648 
						23.759,45.332 "/>
				</g>
				<g>
					<text transform="matrix(1 0 0 1 26.2383 34.2463)"><tspan x="0" y="0" style="font-family:'Helvetica'; font-size:9;">(1)</tspan></text>
				</g>
				<g>
					<text transform="matrix(1 0 0 1 80.2803 183.7454)"><tspan x="0" y="0" style="font-family:'Helvetica'; font-size:9;">(2)</tspan></text>
				</g>
				<path style="fill:none;stroke:#000000;stroke-width:0.5;" d="M142.258,55.378c-2.877-2.642-5.483-5.049-6.091-5.786
					c-0.609-0.737-1.404-1.978-1.854-2.12c-0.45-0.142-2.151-0.086-2.627,0.011s-3.818,0.179-4.176,0.215
					c-0.358,0.036-1.644-0.123-2.793,0.85s-1.971,1.852-2.232,2.364s-0.474,2.127-0.585,2.636s-0.486,1.381-0.42,1.798
					c0.066,0.417,0.488,0.649,0.488,0.649"/>
				<path style="fill:none;stroke:#000000;stroke-width:0.5;" d="M130.22,54.939c0,0,1.912-3.702,2.149-3.825"/>
				<path style="fill:none;stroke:#000000;stroke-width:0.5;" d="M131.253,52.296c-1.071,0.255-2.447,0.068-2.572-0.318"/>
				<path style="fill:none;stroke:#000000;stroke-width:0.5;" d="M128.584,51.576c-0.494-0.082-2.01-0.297-2.145-0.339
					c-0.135-0.043-1.336,1.096-1.631,1.324s-0.518,0.307-0.518,0.307s0.264,1.593,0.074,1.88"/>
				<path style="fill:none;stroke:#000000;stroke-width:0.5;" d="M128.573,52.736c-0.894,0.114-2.304,0.295-2.304,0.295
					l-1.223,0.736"/>
				<line style="fill:none;stroke:#000000;stroke-width:0.5;" x1="129.293" y1="50.456" x2="128.809" y2="51.26"/>
				<line style="fill:none;stroke:#000000;stroke-width:0.5;" x1="126.333" y1="50.741" x2="126.148" y2="50.386"/>
				<line style="fill:none;stroke:#000000;stroke-width:0.5;" x1="123.851" y1="52.432" x2="124.113" y2="52.647"/>
				<polyline style="fill:none;stroke:#000000;stroke-width:0.5;" points="126.831,52.087 126.195,52.116 125.801,52.421 "/>
				<path style="fill:#FFFFFF;stroke:#000000;stroke-width:0.5;" d="M124.168,54.64v0.723l-0.5,0.779c0,0-0.445,0.111-0.723,0.111
					c-0.278,0-1.112-0.223-1.112-0.223l-0.111-0.834"/>
				<polygon style="fill:#FFFFFF;" points="124.057,52.804 124.168,54.195 123.779,55.363 123.278,55.864 122.388,55.864 
					121.776,55.363 121.888,54.417 122.333,52.804 122.444,52.192 "/>
				<path style="fill:none;stroke:#000000;stroke-width:0.5;" d="M125.597,195.79c0,0-0.294,0.303-0.231,0.496"/>
				<path style="fill:none;stroke:#000000;stroke-width:0.5;" d="M142.258,194.051c-2.877-2.642-5.483-5.049-6.091-5.786
					c-0.609-0.737-1.404-1.979-1.854-2.121s-2.151-0.085-2.627,0.011c-0.476,0.097-3.818,0.179-4.176,0.215s-1.644-0.124-2.793,0.85
					c-1.149,0.973-1.971,1.852-2.232,2.363c-0.261,0.512-0.474,2.127-0.585,2.637s-0.486,1.381-0.42,1.798
					c0.066,0.417,0.488,0.649,0.488,0.649"/>
				<path style="fill:none;stroke:#000000;stroke-width:0.5;" d="M130.22,193.613c0,0,1.912-3.702,2.149-3.825"/>
				<path style="fill:none;stroke:#000000;stroke-width:0.5;" d="M131.253,190.969c-1.071,0.256-2.447,0.068-2.572-0.318"/>
				<path style="fill:none;stroke:#000000;stroke-width:0.5;" d="M128.584,190.25c-0.494-0.082-2.01-0.297-2.145-0.34
					c-0.135-0.042-1.336,1.096-1.631,1.324s-0.518,0.307-0.518,0.307s0.264,1.593,0.074,1.88"/>
				<path style="fill:none;stroke:#000000;stroke-width:0.5;" d="M128.573,191.409c-0.894,0.114-2.304,0.295-2.304,0.295
					l-1.223,0.736"/>
				<line style="fill:none;stroke:#000000;stroke-width:0.5;" x1="129.293" y1="189.129" x2="128.809" y2="189.933"/>
				<line style="fill:none;stroke:#000000;stroke-width:0.5;" x1="126.333" y1="189.414" x2="126.148" y2="189.059"/>
				<line style="fill:none;stroke:#000000;stroke-width:0.5;" x1="123.851" y1="191.105" x2="124.113" y2="191.32"/>
				<polyline style="fill:none;stroke:#000000;stroke-width:0.5;" points="126.831,190.76 126.195,190.79 125.801,191.094 "/>
				<path style="fill:#FFFFFF;stroke:#000000;stroke-width:0.5;" d="M124.168,193.313v0.723l-0.5,0.779c0,0-0.445,0.111-0.723,0.111
					c-0.278,0-1.112-0.223-1.112-0.223l-0.111-0.834"/>
				<polygon style="fill:#FFFFFF;" points="124.057,191.477 124.168,192.868 123.779,194.036 123.278,194.536 122.388,194.536 
					121.776,194.036 121.888,193.09 122.333,191.477 122.444,190.865 "/>
				<polyline style="fill:none;stroke:#000000;stroke-width:0.5;" points="14.153,52.748 12.829,53.744 13.698,55.123 "/>
				<path style="fill:none;stroke:#000000;stroke-width:0.5;" d="M9.958,58.953c0,0-3.75-1.818-4.013-1.774"/>
				<path style="fill:none;stroke:#000000;stroke-width:0.5;" d="M7.547,57.456c1.01-0.437,2-1.412,1.869-1.796"/>
				<path style="fill:none;stroke:#000000;stroke-width:0.5;" d="M9.251,55.281c0.347-0.362,1.431-1.442,1.514-1.557
					c0.082-0.115,1.726,0.076,2.099,0.083s0.598-0.065,0.598-0.065s0.744,1.434,1.067,1.549"/>
				<path style="fill:none;stroke:#000000;stroke-width:0.5;" d="M9.956,56.202c0.784-0.445,2.021-1.145,2.021-1.145l1.419-0.144"/>
				<line style="fill:none;stroke:#000000;stroke-width:0.5;" x1="8.013" y1="54.808" x2="8.882" y2="55.161"/>
				<line style="fill:none;stroke:#000000;stroke-width:0.5;" x1="10.554" y1="53.262" x2="10.489" y2="52.867"/>
				<line style="fill:none;stroke:#000000;stroke-width:0.5;" x1="13.554" y1="53.129" x2="13.473" y2="53.458"/>
				<polyline style="fill:none;stroke:#000000;stroke-width:0.5;" points="10.961,54.638 11.489,54.281 11.986,54.289 "/>
				<path style="fill:#FFFFFF;stroke:#000000;stroke-width:0.5;" d="M6.941,70.206c1.1-1.128,2.396-1.883,2.869-2.705
					c0.474-0.822,1.233-2.368,1.838-2.806c0.604-0.438,2.287-2.542,2.947-3.056c0.659-0.514,1.506-1.534,1.638-1.961
					c0.133-0.428,0.386-0.943,0.738-1.271c0.352-0.329,1.265-1.358,1.276-1.698c0.012-0.34-0.074-1.273-0.304-1.438
					c-0.23-0.165-0.954-0.452-1.657-0.2c-0.703,0.251-1.669,0.545-1.966,0.797c-0.297,0.252-1.319,1.435-1.66,1.829
					s-1.539,1.336-1.802,1.379c-0.264,0.043-2.152,0.49-2.152,0.49"/>
				<path style="fill:none;stroke:#000000;stroke-width:0.5;" d="M14.964,57.925c0,0,0.417,0.067,0.482,0.259"/>
				<polyline style="fill:#FFFFFF;stroke:#000000;stroke-width:0.5;" points="16.534,55.919 15.421,56.253 16.089,56.809 
					16.756,57.143 17.201,56.587 16.868,56.03 "/>
				<polyline style="fill:none;stroke:#000000;stroke-width:0.5;" points="14.153,193.758 12.829,194.754 13.698,196.132 "/>
				<path style="fill:none;stroke:#000000;stroke-width:0.5;" d="M9.958,199.962c0,0-3.75-1.818-4.013-1.774"/>
				<path style="fill:none;stroke:#000000;stroke-width:0.5;" d="M7.547,198.465c1.01-0.437,2-1.412,1.869-1.796"/>
				<path style="fill:none;stroke:#000000;stroke-width:0.5;" d="M9.251,196.29c0.347-0.362,1.431-1.442,1.514-1.558
					c0.082-0.115,1.726,0.077,2.099,0.083c0.373,0.006,0.598-0.064,0.598-0.064s0.744,1.434,1.067,1.549"/>
				<path style="fill:none;stroke:#000000;stroke-width:0.5;" d="M9.956,197.211c0.784-0.444,2.021-1.145,2.021-1.145l1.419-0.144"
					/>
				<line style="fill:none;stroke:#000000;stroke-width:0.5;" x1="8.013" y1="195.818" x2="8.882" y2="196.171"/>
				<line style="fill:none;stroke:#000000;stroke-width:0.5;" x1="10.554" y1="194.272" x2="10.489" y2="193.877"/>
				<line style="fill:none;stroke:#000000;stroke-width:0.5;" x1="13.554" y1="194.138" x2="13.473" y2="194.467"/>
				<polyline style="fill:none;stroke:#000000;stroke-width:0.5;" points="10.961,195.648 11.489,195.29 11.986,195.298 "/>
				<path style="fill:#FFFFFF;stroke:#000000;stroke-width:0.5;" d="M6.941,211.215c1.1-1.128,2.396-1.883,2.869-2.705
					c0.474-0.822,1.233-2.368,1.838-2.806c0.604-0.438,2.287-2.542,2.947-3.056c0.659-0.515,1.506-1.534,1.638-1.961
					c0.133-0.428,0.386-0.943,0.738-1.271c0.352-0.328,1.265-1.358,1.276-1.698c0.012-0.34-0.074-1.273-0.304-1.438
					c-0.23-0.165-0.954-0.452-1.657-0.201s-1.669,0.545-1.966,0.797s-1.319,1.435-1.66,1.83c-0.341,0.394-1.539,1.336-1.802,1.379
					c-0.264,0.043-2.152,0.49-2.152,0.49"/>
				<path style="fill:none;stroke:#000000;stroke-width:0.5;" d="M14.964,198.934c0,0,0.417,0.067,0.482,0.259"/>
				<polyline style="fill:#FFFFFF;stroke:#000000;stroke-width:0.5;" points="16.534,196.928 15.421,197.262 16.089,197.819 
					16.756,198.152 17.201,197.596 16.868,197.04 "/>
			</g>
		</g>
	</svg>
