<?xml version="1.0" encoding="UTF-8" standalone="no"?>
<!-- Generator: Adobe Illustrator 11 Build 196, SVG Export Plug-In . SVG Version: 6.0.0 Build 78)  -->

<svg
   xmlns:xapGImg="http://ns.adobe.com/xap/1.0/g/img/"
   xmlns:xap="http://ns.adobe.com/xap/1.0/"
   xmlns:x="adobe:ns:meta/"
   xmlns:dc="http://purl.org/dc/elements/1.1/"
   xmlns:cc="http://creativecommons.org/ns#"
   xmlns:rdf="http://www.w3.org/1999/02/22-rdf-syntax-ns#"
   xmlns:svg="http://www.w3.org/2000/svg"
   xmlns="http://www.w3.org/2000/svg"
   xmlns:sodipodi="http://sodipodi.sourceforge.net/DTD/sodipodi-0.dtd"
   xmlns:inkscape="http://www.inkscape.org/namespaces/inkscape"
   width="147.401"
   height="79.575"
   viewBox="0 0 147.401 79.575"
   style="overflow:visible;enable-background:new 0 0 147.401 79.575"
   xml:space="preserve"
   id="svg2"
   version="1.1"
   sodipodi:docname="maxwellwave-gray.svg"><defs
   id="defs309" /><sodipodi:namedview
   pagecolor="#ffffff"
   bordercolor="#666666"
   borderopacity="1"
   objecttolerance="10"
   gridtolerance="10"
   guidetolerance="10"
   inkscape:pageopacity="0"
   inkscape:pageshadow="2"
   inkscape:window-width="1440"
   inkscape:window-height="872"
   id="namedview307"
   showgrid="false"
   inkscape:zoom="2.2252223"
   inkscape:cx="73.7005"
   inkscape:cy="39.787498"
   inkscape:window-x="0"
   inkscape:window-y="0"
   inkscape:window-maximized="1"
   inkscape:current-layer="svg2" />
	<metadata
   id="metadata4">
<?xpacket begin='﻿' id='W5M0MpCehiHzreSzNTczkc9d'?><x:xmpmeta
   x:xmptk="XMP toolkit 3.0-29, framework 1.6">

<metadata
   id="metadata311"><rdf:RDF>

 <rdf:Description
   rdf:about="">
 </rdf:Description>

 <rdf:Description
   rdf:about="">
 </rdf:Description>

 <rdf:Description
   rdf:about="">
  <xap:CreateDate>2006-07-17T00:18:58Z</xap:CreateDate>
  <xap:ModifyDate>2006-07-17T00:18:58Z</xap:ModifyDate>
  <xap:CreatorTool>Illustrator</xap:CreatorTool>
  <xap:Thumbnails>
   <rdf:Alt>
    <rdf:li
   rdf:parseType="Resource">
     <xapGImg:format>JPEG</xapGImg:format>
     <xapGImg:width>256</xapGImg:width>
     <xapGImg:height>140</xapGImg:height>
     <xapGImg:image>/9j/4AAQSkZJRgABAgEASABIAAD/7QAsUGhvdG9zaG9wIDMuMAA4QklNA+0AAAAAABAASAAAAAEA
AQBIAAAAAQAB/+4ADkFkb2JlAGTAAAAAAf/bAIQABgQEBAUEBgUFBgkGBQYJCwgGBggLDAoKCwoK
DBAMDAwMDAwQDA4PEA8ODBMTFBQTExwbGxscHx8fHx8fHx8fHwEHBwcNDA0YEBAYGhURFRofHx8f
Hx8fHx8fHx8fHx8fHx8fHx8fHx8fHx8fHx8fHx8fHx8fHx8fHx8fHx8fHx8f/8AAEQgAjAEAAwER
AAIRAQMRAf/EAaIAAAAHAQEBAQEAAAAAAAAAAAQFAwIGAQAHCAkKCwEAAgIDAQEBAQEAAAAAAAAA
AQACAwQFBgcICQoLEAACAQMDAgQCBgcDBAIGAnMBAgMRBAAFIRIxQVEGE2EicYEUMpGhBxWxQiPB
UtHhMxZi8CRygvElQzRTkqKyY3PCNUQnk6OzNhdUZHTD0uIIJoMJChgZhJRFRqS0VtNVKBry4/PE
1OT0ZXWFlaW1xdXl9WZ2hpamtsbW5vY3R1dnd4eXp7fH1+f3OEhYaHiImKi4yNjo+Ck5SVlpeYmZ
qbnJ2en5KjpKWmp6ipqqusra6voRAAICAQIDBQUEBQYECAMDbQEAAhEDBCESMUEFURNhIgZxgZEy
obHwFMHR4SNCFVJicvEzJDRDghaSUyWiY7LCB3PSNeJEgxdUkwgJChgZJjZFGidkdFU38qOzwygp
0+PzhJSktMTU5PRldYWVpbXF1eX1RlZmdoaWprbG1ub2R1dnd4eXp7fH1+f3OEhYaHiImKi4yNjo
+DlJWWl5iZmpucnZ6fkqOkpaanqKmqq6ytrq+v/aAAwDAQACEQMRAD8A9U4q7FXYq7FXYq7FXYq7
FXYq7FXYq7FXYq7FXYq7FXYq7FXYq7FVG8uPq1rNcelJN6SM/owrzkfiK8UXux6DFWK/lZ57vPOv
lj9MXmly6TMLm5g9ByHRlgneLkkgJDUMZVv8oHtQlVmGKvL/AM6NNv7rVvIT22sXumq/mKC29Oza
NBye2uZPVbmknNl9IKFb4OLMGVq7KvT1DBQGNWA3PSpxVxrQ0ND2J3FcVeY/lNb+YYvN3n9NS1uf
VIINWSJYZ0UBZGs7eXlFx/u1Cvw4biir3qWVen4qxL8z/Po8jeVJtcGnXGpyRvHGltAjEfG6qWkk
AKxqA2xbqaAdcVZLp96l9YwXiRywpOgkEVxG8My8hXi8bhWVh3BGKojFXYq7FXYq7FXYq7FXYq7F
XYq7FXYq7FXYq7FXYq7FXYq7FXYqwbWfPuuWP5oaL5St9De50vULO4ubvUhJGHQxNEoaNC4LJGZQ
JNqnl8NeBBVZzirsVef/AJEf+Szsv+Y7V/8AurXWKvQMVef/AJsf8dH8vv8AwKrX/qBvMVegYq7F
Xn/5bf8AKX/mN/23Iv8Aum2uKvQMVef/AJ9/+Sm13/o0/wCoyHFXoGKuxVhGnfmNdXn5nan5NOi3
UdnY2kM6asV+FpJWlU8kryWJvSIR6blT2ZSVU5vPNUdt510zyubYtJqVldXy3XIAILR4UKFKb8vX
617Yqn2KuxVIfIvmuPzZ5VsfMEdsbRL31aW7MHK+lM8X2gFrX069MVT7FUh8xeao9F1by9pzWxnO
v3rWKSBgoiKW8txzIoeX9zxpt1xVPsVdirH/ACn5r/xBc+YIfqv1b9BarLpPL1PU9b0oIZvVpxTh
X6xTjv0674qyDFWP+fPNf+FPLM+ufVfrvoz2kH1f1PSr9bu4rXlz4yfY9bl03pTbrirIMVdirH7L
zX9Z88ap5W+q8P0bY2l99c9SvP63JMnD0+I48PQrXka16DFWQYqo3ZuhazGzWNrsRt9XWYlYzJQ8
A7KGYLy6kA4q3am6NrCbsIt0UX6wsRLRiSg5hCwVivLpUYqq4qx2+8qyXPnzSvNAuQsem2F5Yta8
SS5u5IXDh67cfQ6U74qyLFXYqx3yB5Vk8q+V4NEkuRdtDPeTmdVKAi7vJboDiS32RNx69sVZFirH
fN/lWTX7ny7MlyLcaFq8WqupUt6qxQTw+mNxxJ9etfbFWRYq7FWM+VPK15o2ueatQnljki17UUvr
ZE5ckRbSG3KvUAcuUJO3bFWTYqxn8yfK155q8lajoNnNHBc3no+nLNy4D0p45TXiGPSOnTFWTYq7
FWM2Hla8tvzD1jzM8sZtNR06ysYoRy9RXtZJ3Zm248SJxTfFUm1Xyh5xufze0fzJBfwL5dsrC5t5
Y2jBuFaZ4WaFTWhWQwhuZFVHId1IVZ/irsVef/kJ/wCSm0L/AKO/+oybFXoGKvP/AMyf+Uv/AC5/
7bkv/dNusVegYq7FXn/5T/8AHR/MH/wKrr/qBs8VegYq8/8Az3/8lne/8x2kf91a1xV6BirsVYDo
nkbzVZ/mrrPmq71sT6Ne2dvbW1kIYllb0mmYRyuEHwQmUlSlGao5H4TyVZ9irsVdirsVdirsVdir
sVdirsVdirsVdirsVdirsVdirsVdirsVQ9/Bcz2U8NtctZ3EiMsN0io5jcjZwjhlah7EYqxL8oPJ
+v8AlHyRaaJrl9He3kDzMBAoWGJJJWcIh4q7V5ciW7mg2GKs1xV5Z+b2v22mecfy7Wa3uZT+mJJI
zBC8octZTwiNStRz5yrs1NjXoGoq9SHTw9sVcxIUkAsQKhRSp9hWgxV5d+Susvfat5/jOnXlnXzH
cXDPdRrGqlrW2j9LZ25ODESeNVpQ8txir1LFWGfmv5I1jzl5V/Q+lasdJuPrNtO0jRpLFIkFxHNx
dWVj8LRh14kfEKE8S2Ksssrd7a0hgknkupIkVXuZuPqSMBu78Ai1bqeKgeAGKq+KuxV2KuxV2Kux
V2KuxVRvLlLW1muXSSRIUaRkhRpZGCitEjQMzMewArirGfy08/xeePLn6ZTTrrTCLie3a3ukZf7m
Z46pJQI/2KNx+y1V7YqyzFXmX5xx+ZP0t5FOla3LpUM+vwWskUMYPqM9vcS8pSSOcYEXEx7A8jXf
jRV6YvLiORBanxECgJ9hU4q41oade1elcVea/lXN5xfzX56g1zW11W1s9USGCH6uYRE7WkEv7iss
npxcZOPpnluOXKpaqr0vFWLfmN5/07yL5al1y9tp70I6Rx2dqheRy7hSdgQqqDUs1B26kDFWQ2F9
bX9lBe2xZoLhBJGXVo2ow6MjhWVh3VgCD1xVEYq7FXYq7FXYq7FXYqpyQQStG0kau0Lc4WYAlH4l
eS16HixFR2OKqmKuxVoKoJIABY1YjuaUqfoGKt4q7FXYq7FXYq7FXYq7FXYqwrWPzFl0/wDMrSPJ
yaRdXEGo2s9xPqaIeETRtGqcR1dB6lJGUUXkvg/FVmuKuxV5/wDkR/5LOy/5jtX/AO6tdYq9AxV5
/wDmx/x0fy+/8Cq1/wCoG8xV6BirsVef/lt/yl/5jf8Abci/7ptrir0DFXn/AOff/kptd/6NP+oy
HFXoGKuxVhmn/mZaXn5kah5KXS76M2NtFP8ApRoJRbvJI0gKElPgT938ErHi7BgP2eSqc3Xmmztv
N2n+WHikN3qNpc30Uw4+mqWrxIytvyqTOKbYqnWKuxVJfJvmmz81eW7PXrOKSC2vPU9OKbjzHpSt
Ea8Sw6x164qnWKpLr3mmz0bU9C0+eKSSXXrtrG2dOPFHWCS45PUjbjCRt3xVOsVdiqR+WfNVvr9x
rkMMDwnQ9Tk0qUuQfUeKGKYyLToCJwN/DFU8xVI/Onmq38q+XptbuIHuYoZrWAwxkKxN3dRWqmp2
+FpgxxVPMVdiqR2nmq3ufOOo+WFgdZ9Os7W+e4JHBlu3lRVA61X0DX54qnmKqN29ylrM9rEs90sb
GCF3MaPIASqtIFfgGOxbiaeBxVu1e5e1he6iWG5ZFM8KP6io5ALKrlU5AHYHiK+AxVVxVjN/5WvL
n8w9H8zJLGLTTtOvbGWE8vUZ7qSB1ZduPECA13xVk2KuxVjP5ceVrzyt5St9FvJY554bi+naSHlw
K3d7NcoByCmoWYA++KsmxVjPnTytea9deWZraWOJdD1mHVLgScqvFFbzwlEoD8VZwd9sVZNirsVY
r5P8s6jpGv8Am6/uzGYNc1NL2yCMSwiWzggPMECh5xN47YqyrFWK/mj5Z1HzP5F1PQ9NMYvbv0PS
MzFU/dXEcrVIDH7KHtirKsVdirFdO8s6jb/mVrXmSQx/o/UNMsbKABiZPVtZbh5OS0oBSZab4qk2
r+XfPk/5zaJrlt9R/wAM2enXcEtw6SeunryQM8PESDk7mIFJNlUcuSkgclXoeKuxV5/+Qn/kptC/
6O/+oybFXoGKvP8A8yf+Uv8Ay5/7bkv/AHTbrFXoGKuxV5/+U/8Ax0fzB/8AAquv+oGzxV6Birz/
APPf/wAlne/8x2kf91a1xV6BirsVefaH5S87W35ua55jvb21fy9d2NrbWoSIi4l9J5mWOT4uK+kZ
SSwX4xwpSjYq9BxV2KuxV2KuxV2KuxV2KuxV2KuxV2KuxV2KuxV2KuxV2KuxV2Koe/jvJLKdLKZb
e8ZGFvNInqIslPhLJVeS16jkNu4xVh35M+WPNHlnyHZaR5kkgN9A8xWC1HwRRvM8gBclubMXLV2p
UCm1SqznFXlf5veZdI0rzn+XUd9JJG41eSYBIJ5eStZTwAJ6aPzf1JUXgtW+Ibb4q9TBqK4q5iQp
IBYgVCilT7CtBiry38lPMNlqer+f4raK4B/xHcXDNNBJCqhrW2i9NjIF/eB4XqnUAVOxWqr1PFWE
fm/5Q8yebPKB0nQL+Kyu2urSaQXCB4pEt7mOfcj41KNGHFOtCp61CrMLKGeG0hiuLhrqeNFWW5ZV
QyMBuxVAFWp7AYqr4q7FXYq7FXYq7FXYq7FVG8vLaytJru5f07eBDJK5BNFUVOwqT8hirHfy7/MD
SfPOgnWNOgntUWea3ktrpDHKphkaMMQezca7dDVeqnFWUYq81/N668522q+ShoOsx6Xb3muQ2dxG
YDMZme3uJaSn1I6w8YeLRjclq8l4iqr0leXEcqcqfFTpX2xVxrQ0FT2B2FcVec/lfq/nm980edrX
zDe213aafqSQWscCOhgLWsMoijrXlHwkG5oeQLftUVV6PirGvP8A5/0DyN5ffWtadvRDpHFbxDlN
KzsBSNO/EHkfbFU9sL+y1CygvrGZbi0uUEkE8ZqrKwqCDiqIxV2KuxV2KuxV2KuxVD3NhY3UlvLc
28c0lnJ69q8ihjFLwaPmhP2W4Oy1HYnFURirsVU4re3haRoYkjaZ/UmKKFLvQLyanU0UCp8MVVMV
dirsVdirsVdirsVdirsVYdq35lWGm/mHpXkx7C8ml1K3mnfUY4ZGt4WjMYRWYKQVb1PjYGiEpy+1
UKsxxV2KvP8A8iP/ACWdl/zHav8A91a6xV6Birz/APNj/jo/l9/4FVr/ANQN5ir0DFXYq8//AC2/
5S/8xv8AtuRf9021xV6Birz/APPv/wAlNrv/AEaf9RkOKvQMVdirELH8z/Lt5+YF95JiWYahZQRz
G6MbC3eRmcPCslOPNBH9J5AbocVTm58zadb+Z7Hy3IJP0hqFrcXsBCgx+lavGknJq1DVmWm2Kpti
rsVSnyr5m07zPoFrrmmiQWV36npCZQr/ALqRomqAW/aQ98VTbFUp1nzNp2kaho9hdiQz65dNZWRR
QVEqwvOeZJFF4RN474qm2KuxVJ/L3mjT9dm1iG0jljbRNQk0u7MoUBpo4opi0fFmqnGddzQ1rtiq
cYqk/m3zRp/lfQpda1COWW1hltoGSAK0nK7uI7ZCA7IKB5gW36V69MVTjFXYqk9r5o0+581X/llI
5Rf6daW97NKwX0THdPIiBWDFuQMDcqqO2+KpxiqjdyzQ2s0sEJuZ442eK3VlVpGUEqgZyFBY7VJp
irdrLNLawyzwm3mkRWlt2ZWMbEAshZSVPE7VBpiqrirFdR8s6jcfmVovmSMx/o/T9MvrKcFiJPVu
pbd4+K0oRSFq74qyrFXYqxX8sfLOo+WfJtto+omM3cVzfzMYWLJxur6e5joSF34SrXbrirKsVYr5
58s6jrl35VlsjGF0bXIdTvPUYqTBHbXETcKA1blOu2KsqxV2KsR8leXtU0vzF5yvb2MJb6xqkd3Y
MGVi8S2UEJJAJK/HEwocVZdirEfzZ8var5i/L/VdG0qMTX919X9GNmVAfTuY5G+JiAPhQ4qy7FXY
qxHTfL2qQfmjruvyRgaZfaXp9pbS8lJaW3luXkBSvIUEq7kYqk2saX53l/OzQtSt7G3by7a6ZeQy
6kXaqCeSBniaP/fpMQ4b0IJP7FCq9HxV2KvP/wAhP/JTaF/0d/8AUZNir0DFXn/5k/8AKX/lz/23
Jf8Aum3WKvQMVdirz/8AKf8A46P5g/8AgVXX/UDZ4q9AxV5/+e//AJLO9/5jtI/7q1rir0DFXYq8
60LQPPkP5ya9rd8lkvl250+ztoLmNZPVmELzsiKhciN0aU+oxqCOPEfEeKr0XFXYq7FXYq7FXYq7
FXYq7FXYq7FXYq7FXYq7FXYq7FXYq7FXYqh78Xxspxp7RJe8G+rNOrNEJKfDzCFW4160OKsK/JLQ
vNehfl7YaX5lhgtr23ef07WElmSN5nkHqScirMS5PwgUFO+Ks9xV5d+bfmHRdM85fl5Hf3aWzpq8
k5D1FYzY3EIK7fEfUdVou9WXxGKvUAaiuKuZgqljWgFTQEnbwA3xV5b+SnmPR9U1fz/DYyvLIfMd
xdEGKVAsb2ttEORdFCtziccG+L4Ttir1PFWC/nN5a82+Y/Jb6X5Za1N493Zyyw3YYI8dvdxT1V1Z
eBRogx61XkAORBCrM7JLuO0hS8lWe7VFE80aemjPT4iqFnKrXoCxp4nFVfFXYq7FXYq7FXYq7FXY
qoXt7aWNpNeXkyW9pbo0k88jBURFFWZmOwAGKpD5C/MHy5550VtX0KZngSaSCWKUcJo2jcqOaduY
HJfY+NcVZLirzr82Na886bqnk6Py5dWtrbahrUNldidWdp+cE8vpNQUSIrCasKtyIIpx+JV6IvLi
OQAanxAGoB9jQYq41pt17Yq8+/LTzH571XzL5ysvMa2P1TStRW3sltHkZoeVtDL6ILRR+qnGTl6j
Ubly+HiRxVehYqkPnXzv5c8l6DJrnmC6FtYxukYIHJ3eRuKrGg3c9yB2BPbFU5tbq2u7aK6tZUnt
p0WSCeNg6OjiqsrCoIINQRiqrirsVdirsVdirsVdiqB1DRNI1K4sbi/tIrmfTJvrNhJIoYwzcGTm
ngeLn/bAxVHYq7FUNZ6bp9k9y9pbR273kpuLtokCGWYqqmR6faYqgBJ8MVROKuxV2KuxV2KuxV2K
uxV2KsR1T8zfLem+fdN8lXBk/SWpQSTidUJgiZSojjlforSctvD4a/bWqrLsVdirz/8AIj/yWdl/
zHav/wB1a6xV6Birz/8ANj/jo/l9/wCBVa/9QN5ir0DFXYq8/wDy2/5S/wDMb/tuRf8AdNtcVegY
q88/P6GJvyq1qRkVpI/q3puQCV5XkIND2rir0CKGKGMRxIsca/ZRAFAqa7AYqvxVill+Z3k6889X
fkmC9Vtcs4VldNvTZyW5wI9filjVOTr2H+q3FVOZ/MOlweYLTQJJCNTvrea7touLEGK3ZEkJanEU
Mq7HFUyxV2Kpb5c8w6V5i0a31nSpDNYXXP0ZGVkJ9N2jb4WAI+JDiqZYqluq+YdL0u90uyvZClxr
FwbSwUKzB5VieYgkCi/BExqcVTLFXYqleieY9M1qXVIrFnL6Pevpt7zXjS4jjjlYL4jjMu+Kppiq
V+ZfMemeXNHk1fU2dbOKSCFzGvNuVzOlvHsP+LJVriqaYq7FUrt/MemXHmO88vRs/wCkrC2gvLhS
tEEVy0iR0buawtUYqmmKqV1M0FrNOkL3DxIzrbxcfUkKgkInMovJugqwHvirrWZ57aGZ4Xt3lRXa
3l4+pGWFSj8GdeS9DxYjwOKquKsR1Ly9qk/5o6Fr8cYOmWOl6haXMvJQVluJbZ4wEryNRE24GKsu
xV2KsR/Kny9qnl7yRa6VqkYhvYrrUZXjVlccLnUJ7iI8lJG8cqnFWXYqxHz/AOXtU1i88oS2EYkT
Sdfg1C+JZV428drcxMw5EcjzmXYb4qy7FXYqw3yNomqad5k873d7bmG31TVo7mwkJUiWJbG3iLih
JHxxsN/DFWZYqw384NE1XXPy51fS9KtzdX9x9X9GBSqluF1E7bsVGyqT1xVmWKuxVhul6JqkP5sa
/rUluV0y70nTra2uarR5YJrlpEAry+ESL1HfFUm1qPze/wCenl+4g0MS6Lb6Vewvq3rkRKk8tuz8
x6R4yq0VFj35g15ABuKr0vFXYq8//IT/AMlNoX/R3/1GTYq9AxV5/wDmT/yl/wCXP/bcl/7pt1ir
0DFXYq8//Kf/AI6P5g/+BVdf9QNnir0DFXn/AOe//ks73/mO0j/urWuKvQMVdirzfQNO87p+dXmH
UbzTYYdBm02yt4tTEjH1hDJcOgjj47PWUiQFvh4jrzFFXpGKuxV2KuxV2KuxV2KuxV2KuxV2KuxV
2KuxV2KuxV2KuxV2KuxVD37Xy2U7WCRyXqoxt45mKRs4FVV2UMVBO1QDTwOKsH/IvTPM+l/lxp+n
+YdPXTLu3ecR2nP1JQjzvJyloAqkl9gK/DQ13oFXoGKvMvzW1vRbDzj+XqX1/bWrQ6vLcTLPNHGU
hNhdIJGDEUTn8PI7V2xV6YCCKjcHocVczBVLGtAKmgJO3gBvirzD8mPMGiajq/n6GwvYrqR/Mdxd
hYmD/uHtLWNXNOgZ43UV7q3gcVeoYqwD87tE83a35GfT/LNtBeXcl5YyTW07GNmjgvIp+UcleI4t
EOXIfZrTcAFVnFkLwWkIvWja84L9YaFWWIvT4uAYs3GvSpxVXxV2KuxV2KuxV2KuxV2KuxV2KuxV
2KuxV2KuxV2KuxV2KuxV2KuxV2KuxV2KuxVifnT/AJV7+mPK/wDir6t+k/0h/wA619Y+39c9NvsU
7dPtfDz4ftccVZZirsVSDyt/gz6zrf8Ahv6r6/6Qk/Tv1Wlfr/BPU9Wn7fHjX3964qn+KuxV2Kux
V2KuxV2KuxV2KuxV2KuxV2KuxV2KuxV2KuxV2KuxV2KuxV2Kv//Z</xapGImg:image>
    </rdf:li>
   </rdf:Alt>
  </xap:Thumbnails>
 </rdf:Description>

 <rdf:Description
   rdf:about="">
  <dc:format>image/svg+xml</dc:format>
 </rdf:Description>

<cc:Work
   rdf:about=""><dc:format>image/svg+xml</dc:format><dc:type
     rdf:resource="http://purl.org/dc/dcmitype/StillImage" /></cc:Work></rdf:RDF></metadata></x:xmpmeta>
                                                                                                                                                                                                                                                                                                                                                                                                                                                                                                                                                                                                                                                                                                                                                                                                                                                                                                                                                                                                                                                                                                                                                                                                                                                                                                                                                                                                                                                                                                                                                                                                                                                                                                                                                                                                                                                                                                                                                                                                                                                                                                                                <?xpacket end='w'?>
			</metadata>
		<rect
   style="fill:#dedede;fill-opacity:1;stroke:none"
   id="rect3288"
   width="157.28766"
   height="92.125618"
   x="-5.3927231"
   y="-5.8097296" /><g
   id="Layer_1">
			<g
   id="g7">
				<g
   id="g9">
					<line
   style="fill:none;stroke:#000000;stroke-width:0.88;"
   x1="14.394"
   y1="67.917"
   x2="14.394"
   y2="76.364"
   id="line11" />
					<path
   d="M14.394,77.639c0.317-0.6,0.858-1.344,1.431-1.805l-1.431,0.363l-1.431-0.363       C13.536,76.295,14.077,77.039,14.394,77.639z"
   id="path13" />
				</g>
				<g
   id="g15">
					<line
   style="fill:none;stroke:#000000;stroke-width:0.88;"
   x1="2.535"
   y1="67.917"
   x2="2.535"
   y2="71.964"
   id="line17" />
					<path
   d="M2.535,73.239c0.317-0.6,0.858-1.344,1.431-1.805l-1.431,0.363l-1.431-0.363C1.677,71.895,2.218,72.639,2.535,73.239z"
   id="path19" />
				</g>
				<g
   id="g21">
					<line
   style="fill:none;stroke:#000000;stroke-width:0.88;"
   x1="26.253"
   y1="67.917"
   x2="26.253"
   y2="78.3"
   id="line23" />
					<path
   d="M26.253,79.575c0.317-0.6,0.858-1.344,1.431-1.805l-1.431,0.363l-1.431-0.363       C25.395,78.23,25.936,78.975,26.253,79.575z"
   id="path25" />
				</g>
				<g
   id="g27">
					<line
   style="fill:none;stroke:#000000;stroke-width:0.88;"
   x1="49.971"
   y1="67.696"
   x2="49.971"
   y2="76.145"
   id="line29" />
					<path
   d="M49.971,77.419c-0.317-0.6-0.858-1.344-1.431-1.805l1.431,0.363l1.431-0.363C50.83,76.075,50.289,76.819,49.971,77.419       z"
   id="path31" />
				</g>
				<g
   id="g33">
					<line
   style="fill:none;stroke:#000000;stroke-width:0.88;"
   x1="61.831"
   y1="67.696"
   x2="61.831"
   y2="71.744"
   id="line35" />
					<path
   d="M61.831,73.019c-0.317-0.6-0.858-1.344-1.431-1.805l1.431,0.363l1.431-0.363       C62.688,71.675,62.147,72.419,61.831,73.019z"
   id="path37" />
				</g>
				<g
   id="g39">
					<line
   style="fill:none;stroke:#000000;stroke-width:0.88;"
   x1="38.112"
   y1="67.696"
   x2="38.112"
   y2="78.08"
   id="line41" />
					<path
   d="M38.112,79.354c-0.317-0.6-0.858-1.344-1.431-1.805l1.431,0.363l1.431-0.363       C38.971,78.011,38.429,78.755,38.112,79.354z"
   id="path43" />
				</g>
				<ellipse
   cx="73.689"
   cy="67.74"
   rx="0.502"
   ry="0.352"
   id="ellipse45" /> 
				<g
   id="g47">
					<line
   style="fill:none;stroke:#000000;stroke-width:0.88;"
   x1="97.43"
   y1="67.783"
   x2="97.43"
   y2="59.335"
   id="line49" />
					<path
   d="M97.43,58.061c0.317,0.6,0.858,1.344,1.431,1.805l-1.431-0.363l-1.431,0.363C96.572,59.405,97.113,58.661,97.43,58.061       z"
   id="path51" />
				</g>
				<g
   id="g53">
					<line
   style="fill:none;stroke:#000000;stroke-width:0.88;"
   x1="85.571"
   y1="67.783"
   x2="85.571"
   y2="63.735"
   id="line55" />
					<path
   d="M85.571,62.461c0.317,0.6,0.858,1.344,1.431,1.805l-1.431-0.363l-1.431,0.363       C84.713,63.805,85.254,63.061,85.571,62.461z"
   id="path57" />
				</g>
				<g
   id="g59">
					<line
   style="fill:none;stroke:#000000;stroke-width:0.88;"
   x1="109.289"
   y1="67.783"
   x2="109.289"
   y2="57.4"
   id="line61" />
					<path
   d="M109.289,56.125c0.317,0.6,0.858,1.344,1.431,1.805l-1.431-0.363l-1.431,0.363       C108.431,57.469,108.972,56.725,109.289,56.125z"
   id="path63" />
				</g>
				<g
   id="g65">
					<line
   style="fill:none;stroke:#000000;stroke-width:0.88;"
   x1="133.007"
   y1="68.003"
   x2="133.007"
   y2="59.556"
   id="line67" />
					<path
   d="M133.007,58.281c-0.317,0.6-0.858,1.344-1.431,1.805l1.431-0.363l1.431,0.363       C133.866,59.625,133.324,58.88,133.007,58.281z"
   id="path69" />
				</g>
				<g
   id="g71">
					<line
   style="fill:none;stroke:#000000;stroke-width:0.88;"
   x1="144.866"
   y1="68.003"
   x2="144.866"
   y2="63.956"
   id="line73" />
					<path
   d="M144.866,62.681c-0.317,0.6-0.858,1.344-1.431,1.805l1.431-0.363l1.431,0.363       C145.725,64.025,145.184,63.281,144.866,62.681z"
   id="path75" />
				</g>
				<g
   id="g77">
					<line
   style="fill:none;stroke:#000000;stroke-width:0.88;"
   x1="121.148"
   y1="68.003"
   x2="121.148"
   y2="57.62"
   id="line79" />
					<path
   d="M121.148,56.345c-0.317,0.6-0.858,1.344-1.431,1.805l1.431-0.363l1.431,0.363       C122.006,57.689,121.465,56.945,121.148,56.345z"
   id="path81" />
				</g>
				<g
   id="g83">
					<line
   style="fill:none;stroke:#000000;stroke-width:0.88;"
   x1="14.394"
   y1="49.208"
   x2="14.394"
   y2="57.656"
   id="line85" />
					<path
   d="M14.394,58.931c0.317-0.6,0.858-1.344,1.431-1.805l-1.431,0.363l-1.431-0.363       C13.536,57.586,14.077,58.331,14.394,58.931z"
   id="path87" />
				</g>
				<g
   id="g89">
					<line
   style="fill:none;stroke:#000000;stroke-width:0.88;"
   x1="2.535"
   y1="49.208"
   x2="2.535"
   y2="53.256"
   id="line91" />
					<path
   d="M2.535,54.531c0.317-0.6,0.858-1.344,1.431-1.805l-1.431,0.363l-1.431-0.363C1.677,53.187,2.218,53.931,2.535,54.531z"
   id="path93" />
				</g>
				<g
   id="g95">
					<line
   style="fill:none;stroke:#000000;stroke-width:0.88;"
   x1="26.253"
   y1="49.208"
   x2="26.253"
   y2="59.591"
   id="line97" />
					<path
   d="M26.253,60.866c0.317-0.6,0.858-1.344,1.431-1.805l-1.431,0.363l-1.431-0.363       C25.395,59.522,25.936,60.267,26.253,60.866z"
   id="path99" />
				</g>
				<g
   id="g101">
					<line
   style="fill:none;stroke:#000000;stroke-width:0.88;"
   x1="49.971"
   y1="48.988"
   x2="49.971"
   y2="57.436"
   id="line103" />
					<path
   d="M49.971,58.71c-0.317-0.6-0.858-1.344-1.431-1.805l1.431,0.363l1.431-0.363C50.83,57.367,50.289,58.111,49.971,58.71z"
   id="path105" />
				</g>
				<g
   id="g107">
					<line
   style="fill:none;stroke:#000000;stroke-width:0.88;"
   x1="61.831"
   y1="48.988"
   x2="61.831"
   y2="53.036"
   id="line109" />
					<path
   d="M61.831,54.311c-0.317-0.6-0.858-1.344-1.431-1.805l1.431,0.363l1.431-0.363       C62.688,52.967,62.147,53.711,61.831,54.311z"
   id="path111" />
				</g>
				<g
   id="g113">
					<line
   style="fill:none;stroke:#000000;stroke-width:0.88;"
   x1="38.112"
   y1="48.988"
   x2="38.112"
   y2="59.372"
   id="line115" />
					<path
   d="M38.112,60.646c-0.317-0.6-0.858-1.344-1.431-1.805l1.431,0.363l1.431-0.363       C38.971,59.302,38.429,60.046,38.112,60.646z"
   id="path117" />
				</g>
				<ellipse
   cx="73.689"
   cy="49.032"
   rx="0.502"
   ry="0.352"
   id="ellipse119" /> 
				<g
   id="g121">
					<line
   style="fill:none;stroke:#000000;stroke-width:0.88;"
   x1="97.43"
   y1="49.075"
   x2="97.43"
   y2="40.627"
   id="line123" />
					<path
   d="M97.43,39.353c0.317,0.6,0.858,1.344,1.431,1.805l-1.431-0.363l-1.431,0.363C96.572,40.696,97.113,39.952,97.43,39.353       z"
   id="path125" />
				</g>
				<g
   id="g127">
					<line
   style="fill:none;stroke:#000000;stroke-width:0.88;"
   x1="85.571"
   y1="49.075"
   x2="85.571"
   y2="45.027"
   id="line129" />
					<path
   d="M85.571,43.752c0.317,0.6,0.858,1.344,1.431,1.805l-1.431-0.363l-1.431,0.363       C84.713,45.096,85.254,44.352,85.571,43.752z"
   id="path131" />
				</g>
				<g
   id="g133">
					<line
   style="fill:none;stroke:#000000;stroke-width:0.88;"
   x1="109.289"
   y1="49.075"
   x2="109.289"
   y2="38.691"
   id="line135" />
					<path
   d="M109.289,37.417c0.317,0.6,0.858,1.344,1.431,1.805l-1.431-0.364l-1.431,0.364       C108.431,38.761,108.972,38.017,109.289,37.417z"
   id="path137" />
				</g>
				<g
   id="g139">
					<line
   style="fill:none;stroke:#000000;stroke-width:0.88;"
   x1="133.007"
   y1="49.295"
   x2="133.007"
   y2="40.847"
   id="line141" />
					<path
   d="M133.007,39.572c-0.317,0.6-0.858,1.344-1.431,1.805l1.431-0.363l1.431,0.363       C133.866,40.917,133.324,40.172,133.007,39.572z"
   id="path143" />
				</g>
				<g
   id="g145">
					<line
   style="fill:none;stroke:#000000;stroke-width:0.88;"
   x1="144.866"
   y1="49.295"
   x2="144.866"
   y2="45.247"
   id="line147" />
					<path
   d="M144.866,43.972c-0.317,0.6-0.858,1.344-1.431,1.805l1.431-0.363l1.431,0.363       C145.725,45.316,145.184,44.572,144.866,43.972z"
   id="path149" />
				</g>
				<g
   id="g151">
					<line
   style="fill:none;stroke:#000000;stroke-width:0.88;"
   x1="121.148"
   y1="49.295"
   x2="121.148"
   y2="38.912"
   id="line153" />
					<path
   d="M121.148,37.637c-0.317,0.6-0.858,1.344-1.431,1.805l1.431-0.363l1.431,0.363       C122.006,38.98,121.465,38.236,121.148,37.637z"
   id="path155" />
				</g>
				<g
   id="g157">
					<line
   style="fill:none;stroke:#000000;stroke-width:0.88;"
   x1="14.394"
   y1="30.5"
   x2="14.394"
   y2="38.947"
   id="line159" />
					<path
   d="M14.394,40.222c0.317-0.6,0.858-1.344,1.431-1.805l-1.431,0.363l-1.431-0.363       C13.536,38.878,14.077,39.623,14.394,40.222z"
   id="path161" />
				</g>
				<g
   id="g163">
					<line
   style="fill:none;stroke:#000000;stroke-width:0.88;"
   x1="2.535"
   y1="30.5"
   x2="2.535"
   y2="34.547"
   id="line165" />
					<path
   d="M2.535,35.822c0.317-0.6,0.858-1.344,1.431-1.805L2.535,34.38l-1.431-0.363C1.677,34.478,2.218,35.222,2.535,35.822z"
   id="path167" />
				</g>
				<g
   id="g169">
					<line
   style="fill:none;stroke:#000000;stroke-width:0.88;"
   x1="26.253"
   y1="30.5"
   x2="26.253"
   y2="40.883"
   id="line171" />
					<path
   d="M26.253,42.158c0.317-0.6,0.858-1.344,1.431-1.805l-1.431,0.363l-1.431-0.363       C25.395,40.813,25.936,41.558,26.253,42.158z"
   id="path173" />
				</g>
				<g
   id="g175">
					<line
   style="fill:none;stroke:#000000;stroke-width:0.88;"
   x1="49.971"
   y1="30.279"
   x2="49.971"
   y2="38.728"
   id="line177" />
					<path
   d="M49.971,40.002c-0.317-0.6-0.858-1.344-1.431-1.805l1.431,0.363l1.431-0.363C50.83,38.658,50.289,39.402,49.971,40.002       z"
   id="path179" />
				</g>
				<g
   id="g181">
					<line
   style="fill:none;stroke:#000000;stroke-width:0.88;"
   x1="61.831"
   y1="30.279"
   x2="61.831"
   y2="34.327"
   id="line183" />
					<path
   d="M61.831,35.602c-0.317-0.6-0.858-1.344-1.431-1.805l1.431,0.363l1.431-0.363       C62.688,34.258,62.147,35.002,61.831,35.602z"
   id="path185" />
				</g>
				<g
   id="g187">
					<line
   style="fill:none;stroke:#000000;stroke-width:0.88;"
   x1="38.112"
   y1="30.279"
   x2="38.112"
   y2="40.663"
   id="line189" />
					<path
   d="M38.112,41.938c-0.317-0.6-0.858-1.344-1.431-1.805l1.431,0.363l1.431-0.363       C38.971,40.594,38.429,41.338,38.112,41.938z"
   id="path191" />
				</g>
				<ellipse
   cx="73.689"
   cy="30.324"
   rx="0.502"
   ry="0.352"
   id="ellipse193" /> 
				<g
   id="g195">
					<line
   style="fill:none;stroke:#000000;stroke-width:0.88;"
   x1="97.43"
   y1="30.367"
   x2="97.43"
   y2="21.918"
   id="line197" />
					<path
   d="M97.43,20.644c0.317,0.6,0.858,1.344,1.431,1.805l-1.431-0.363l-1.431,0.363C96.572,21.988,97.113,21.244,97.43,20.644       z"
   id="path199" />
				</g>
				<g
   id="g201">
					<line
   style="fill:none;stroke:#000000;stroke-width:0.88;"
   x1="85.571"
   y1="30.367"
   x2="85.571"
   y2="26.318"
   id="line203" />
					<path
   d="M85.571,25.044c0.317,0.6,0.858,1.344,1.431,1.805l-1.431-0.363l-1.431,0.363       C84.713,26.388,85.254,25.644,85.571,25.044z"
   id="path205" />
				</g>
				<g
   id="g207">
					<line
   style="fill:none;stroke:#000000;stroke-width:0.88;"
   x1="109.289"
   y1="30.367"
   x2="109.289"
   y2="19.983"
   id="line209" />
					<path
   d="M109.289,18.708c0.317,0.6,0.858,1.344,1.431,1.805l-1.431-0.363l-1.431,0.363       C108.431,20.052,108.972,19.308,109.289,18.708z"
   id="path211" />
				</g>
				<g
   id="g213">
					<line
   style="fill:none;stroke:#000000;stroke-width:0.88;"
   x1="133.007"
   y1="30.586"
   x2="133.007"
   y2="22.139"
   id="line215" />
					<path
   d="M133.007,20.864c-0.317,0.6-0.858,1.344-1.431,1.805l1.431-0.363l1.431,0.363       C133.866,22.208,133.324,21.464,133.007,20.864z"
   id="path217" />
				</g>
				<g
   id="g219">
					<line
   style="fill:none;stroke:#000000;stroke-width:0.88;"
   x1="144.866"
   y1="30.586"
   x2="144.866"
   y2="26.539"
   id="line221" />
					<path
   d="M144.866,25.264c-0.317,0.6-0.858,1.344-1.431,1.805l1.431-0.363l1.431,0.363       C145.725,26.608,145.184,25.864,144.866,25.264z"
   id="path223" />
				</g>
				<g
   id="g225">
					<line
   style="fill:none;stroke:#000000;stroke-width:0.88;"
   x1="121.148"
   y1="30.586"
   x2="121.148"
   y2="20.203"
   id="line227" />
					<path
   d="M121.148,18.928c-0.317,0.6-0.858,1.344-1.431,1.805l1.431-0.363l1.431,0.363       C122.006,20.272,121.465,19.528,121.148,18.928z"
   id="path229" />
				</g>
				<g
   id="g231">
					<line
   style="fill:none;stroke:#000000;stroke-width:0.88;"
   x1="14.394"
   y1="11.791"
   x2="14.394"
   y2="20.239"
   id="line233" />
					<path
   d="M14.394,21.514c0.317-0.6,0.858-1.344,1.431-1.805l-1.431,0.363l-1.431-0.363       C13.536,20.17,14.077,20.914,14.394,21.514z"
   id="path235" />
				</g>
				<g
   id="g237">
					<line
   style="fill:none;stroke:#000000;stroke-width:0.88;"
   x1="2.535"
   y1="11.791"
   x2="2.535"
   y2="15.839"
   id="line239" />
					<path
   d="M2.535,17.114c0.317-0.6,0.858-1.344,1.431-1.805l-1.431,0.363l-1.431-0.363C1.677,15.77,2.218,16.514,2.535,17.114z"
   id="path241" />
				</g>
				<g
   id="g243">
					<line
   style="fill:none;stroke:#000000;stroke-width:0.88;"
   x1="26.253"
   y1="11.791"
   x2="26.253"
   y2="22.174"
   id="line245" />
					<path
   d="M26.253,23.449c0.317-0.6,0.858-1.344,1.431-1.805l-1.431,0.363l-1.431-0.363       C25.395,22.105,25.936,22.85,26.253,23.449z"
   id="path247" />
				</g>
				<g
   id="g249">
					<line
   style="fill:none;stroke:#000000;stroke-width:0.88;"
   x1="49.971"
   y1="11.571"
   x2="49.971"
   y2="20.019"
   id="line251" />
					<path
   d="M49.971,21.293c-0.317-0.6-0.858-1.344-1.431-1.805l1.431,0.363l1.431-0.363C50.83,19.95,50.289,20.694,49.971,21.293z       "
   id="path253" />
				</g>
				<g
   id="g255">
					<line
   style="fill:none;stroke:#000000;stroke-width:0.88;"
   x1="61.831"
   y1="11.571"
   x2="61.831"
   y2="15.619"
   id="line257" />
					<path
   d="M61.831,16.894c-0.317-0.6-0.858-1.344-1.431-1.805l1.431,0.363l1.431-0.363C62.688,15.55,62.147,16.294,61.831,16.894       z"
   id="path259" />
				</g>
				<g
   id="g261">
					<line
   style="fill:none;stroke:#000000;stroke-width:0.88;"
   x1="38.112"
   y1="11.571"
   x2="38.112"
   y2="21.955"
   id="line263" />
					<path
   d="M38.112,23.229c-0.317-0.6-0.858-1.344-1.431-1.805l1.431,0.363l1.431-0.363       C38.971,21.885,38.429,22.629,38.112,23.229z"
   id="path265" />
				</g>
				<ellipse
   cx="73.689"
   cy="11.615"
   rx="0.502"
   ry="0.352"
   id="ellipse267" /> 
				<g
   id="g269">
					<line
   style="fill:none;stroke:#000000;stroke-width:0.88;"
   x1="97.43"
   y1="11.658"
   x2="97.43"
   y2="3.21"
   id="line271" />
					<path
   d="M97.43,1.936c0.317,0.6,0.858,1.344,1.431,1.805L97.43,3.377l-1.431,0.363C96.572,3.279,97.113,2.535,97.43,1.936z"
   id="path273" />
				</g>
				<g
   id="g275">
					<line
   style="fill:none;stroke:#000000;stroke-width:0.88;"
   x1="85.571"
   y1="11.658"
   x2="85.571"
   y2="7.61"
   id="line277" />
					<path
   d="M85.571,6.335c0.317,0.6,0.858,1.344,1.431,1.805l-1.431-0.363L84.14,8.141C84.713,7.679,85.254,6.935,85.571,6.335z"
   id="path279" />
				</g>
				<g
   id="g281">
					<line
   style="fill:none;stroke:#000000;stroke-width:0.88;"
   x1="109.289"
   y1="11.658"
   x2="109.289"
   y2="1.274"
   id="line283" />
					<path
   d="M109.289,0c0.317,0.6,0.858,1.344,1.431,1.805l-1.431-0.364l-1.431,0.364C108.431,1.344,108.972,0.6,109.289,0z"
   id="path285" />
				</g>
				<g
   id="g287">
					<line
   style="fill:none;stroke:#000000;stroke-width:0.88;"
   x1="133.007"
   y1="11.878"
   x2="133.007"
   y2="3.43"
   id="line289" />
					<path
   d="M133.007,2.155c-0.317,0.6-0.858,1.344-1.431,1.805l1.431-0.363l1.431,0.363C133.866,3.5,133.324,2.755,133.007,2.155z       "
   id="path291" />
				</g>
				<g
   id="g293">
					<line
   style="fill:none;stroke:#000000;stroke-width:0.88;"
   x1="144.866"
   y1="11.878"
   x2="144.866"
   y2="7.83"
   id="line295" />
					<path
   d="M144.866,6.556c-0.317,0.6-0.858,1.344-1.431,1.805l1.431-0.363l1.431,0.363       C145.725,7.899,145.184,7.155,144.866,6.556z"
   id="path297" />
				</g>
				<g
   id="g299">
					<line
   style="fill:none;stroke:#000000;stroke-width:0.88;"
   x1="121.148"
   y1="11.878"
   x2="121.148"
   y2="1.495"
   id="line301" />
					<path
   d="M121.148,0.22c-0.317,0.6-0.858,1.344-1.431,1.805l1.431-0.363l1.431,0.363C122.006,1.564,121.465,0.819,121.148,0.22z       "
   id="path303" />
				</g>
			</g>
			<rect
   y="38.37"
   style="fill:none;"
   width="147.401"
   height="2.834"
   id="rect305" /> 
		</g>
	</svg>