<?xml version="1.0" encoding="UTF-8" standalone="no"?>
<!-- Created with Inkscape (http://www.inkscape.org/) -->

<svg
   xmlns:dc="http://purl.org/dc/elements/1.1/"
   xmlns:cc="http://creativecommons.org/ns#"
   xmlns:rdf="http://www.w3.org/1999/02/22-rdf-syntax-ns#"
   xmlns:svg="http://www.w3.org/2000/svg"
   xmlns="http://www.w3.org/2000/svg"
   xmlns:sodipodi="http://sodipodi.sourceforge.net/DTD/sodipodi-0.dtd"
   xmlns:inkscape="http://www.inkscape.org/namespaces/inkscape"
   width="210mm"
   height="297mm"
   viewBox="0 0 744.09448819 1052.3622047"
   id="svg2"
   version="1.1"
   sodipodi:docname="current-loop.svg">
  <defs
     id="defs4">
    <marker
       inkscape:stockid="Arrow2Mend"
       orient="auto"
       refY="0.0"
       refX="0.0"
       id="Arrow2Mend"
       style="overflow:visible;"
       inkscape:isstock="true">
      <path
         id="path4405"
         style="fill-rule:evenodd;stroke-width:0.625;stroke-linejoin:round;stroke:#000000;stroke-opacity:1;fill:#000000;fill-opacity:1"
         d="M 8.7185878,4.0337352 L -2.2072895,0.016013256 L 8.7185884,-4.0017078 C 6.9730900,-1.6296469 6.9831476,1.6157441 8.7185878,4.0337352 z "
         transform="scale(0.6) rotate(180) translate(0,0)" />
    </marker>
  </defs>
  <sodipodi:namedview
     id="base"
     pagecolor="#ffffff"
     bordercolor="#666666"
     borderopacity="1.0"
     inkscape:pageopacity="0.0"
     inkscape:pageshadow="2"
     inkscape:zoom="0.85520064"
     inkscape:cx="139.60643"
     inkscape:cy="1041.3478"
     inkscape:document-units="px"
     inkscape:current-layer="layer1"
     showgrid="false"
     inkscape:window-width="1280"
     inkscape:window-height="997"
     inkscape:window-x="0"
     inkscape:window-y="0"
     inkscape:window-maximized="1" />
  <metadata
     id="metadata7">
    <rdf:RDF>
      <cc:Work
         rdf:about="">
        <dc:format>image/svg+xml</dc:format>
        <dc:type
           rdf:resource="http://purl.org/dc/dcmitype/StillImage" />
        <dc:title />
      </cc:Work>
    </rdf:RDF>
  </metadata>
  <g
     inkscape:label="Layer 1"
     inkscape:groupmode="layer"
     id="layer1">
    <rect
       style="color:#000000;clip-rule:nonzero;display:inline;overflow:visible;visibility:visible;opacity:1;isolation:auto;mix-blend-mode:normal;color-interpolation:sRGB;color-interpolation-filters:linearRGB;solid-color:#000000;solid-opacity:1;fill:#dedede;fill-opacity:1;fill-rule:nonzero;stroke:none;stroke-width:0.875;stroke-linecap:butt;stroke-linejoin:miter;stroke-miterlimit:1;stroke-dasharray:none;stroke-dashoffset:0;stroke-opacity:1;color-rendering:auto;image-rendering:auto;shape-rendering:auto;text-rendering:auto;enable-background:accumulate"
       id="rect4182"
       width="184.25197"
       height="196.36896"
       x="65.917603"
       y="-44.880661" />
    <path
       style="color:#000000;clip-rule:nonzero;display:inline;overflow:visible;visibility:visible;opacity:1;isolation:auto;mix-blend-mode:normal;color-interpolation:sRGB;color-interpolation-filters:linearRGB;solid-color:#000000;solid-opacity:1;fill:#ffffff;fill-opacity:1;fill-rule:evenodd;stroke:none;stroke-width:1.875;stroke-linecap:butt;stroke-linejoin:miter;stroke-miterlimit:4;stroke-dasharray:none;stroke-dashoffset:0;stroke-opacity:1;marker:none;marker-start:none;marker-mid:none;marker-end:none;color-rendering:auto;image-rendering:auto;shape-rendering:auto;text-rendering:auto;enable-background:accumulate"
       d="m 196.41627,0.55043723 c -3.46538,-0.07903 -7.61507,0.61464197 -12.76367,1.91992197 -21.82387,5.53281 -40.99609,9.2812498 -40.99609,9.2812498 0,0 -24.28989,5.935662 -40.22072,9.539062 -21.657967,4.89883 -26.041277,11.088561 -22.689448,27.332032 4.210595,20.40518 7.992188,41.767575 7.992188,41.767575 0,0 2.571709,13.152102 6.1875,31.457042 4.125328,20.88447 11.8615,24.75049 34.29298,18.5625 29.05899,-8.01627 49.24609,-12.63282 49.24609,-12.63282 0,0 28.44776,-7.68073 45.89453,-12.63476 20.88448,-5.93016 23.46145,-14.43814 17.01563,-30.939462 -9.23424,-23.639647 -17.78907,-44.605466 -17.78907,-44.605466 0,0 -1.49374,-5.020513 -7.73633,-20.626953 C 209.66098,5.9981392 205.27224,0.75239723 196.41627,0.55043723 Z M 180.31666,27.216453 c 0.29043,-0.0126 0.56254,-0.01338 0.82031,0 2.65137,0.13764 3.68524,1.688381 5.35157,5.419921 5.73669,12.84664 17.96599,47.145404 20.75586,55.009764 l -0.0293,0.041 c 0.15892,0.3708 -0.20928,2.71687 -0.51367,4.18946 -8.67285,2.30891 -52.18296,13.896392 -67.39649,18.109372 -16.75914,4.64099 -19.33773,2.83701 -21.40039,-10.570312 -2.06267,-13.40731 -10.19551,-47.6862 -9.53907,-52.3418 0.64855,-4.5997 5.60563,-5.483115 6.1797,-5.572265 l -0.0527,-0.02734 c 0,0 44.86237,-9.540793 56.46485,-12.376953 4.44158,-1.08572 7.32633,-1.792609 9.35937,-1.880859 z"
       id="path4229-5"
       inkscape:connector-curvature="0" />
    <path
       style="color:#000000;clip-rule:nonzero;display:inline;overflow:visible;visibility:visible;opacity:1;isolation:auto;mix-blend-mode:normal;color-interpolation:sRGB;color-interpolation-filters:linearRGB;solid-color:#000000;solid-opacity:1;fill:#e1e1e1;fill-opacity:1;fill-rule:evenodd;stroke:none;stroke-width:1.875;stroke-linecap:butt;stroke-linejoin:miter;stroke-miterlimit:4;stroke-dasharray:none;stroke-dashoffset:0;stroke-opacity:1;marker:none;marker-start:none;marker-mid:none;marker-end:none;color-rendering:auto;image-rendering:auto;shape-rendering:auto;text-rendering:auto;enable-background:accumulate"
       d="m 85.919778,26.72686 c -7.38599,4.48565 -8.57891,10.83648 -6.35352,21.6211 4.2106,20.40518 7.99219,41.76758 7.99219,41.76758 0,0 2.57171,13.15209 6.1875,31.45703 4.12533,20.88447 11.861492,24.75049 34.292972,18.5625 29.05899,-8.01627 49.24609,-12.63282 49.24609,-12.63282 0,0 28.44776,-7.68073 45.89453,-12.63476 19.03012,-5.40361 22.83114,-12.9684 18.48438,-26.75 -3.43918,5.04733 -9.66039,12.9568 -15.80469,14.27344 -9.09962,1.94992 -59.14821,15.92313 -72.47266,17.87304 -13.32444,1.94992 -41.27147,9.10072 -50.37109,7.80078 -9.099622,-1.29995 -15.600862,-66.62219 -17.550782,-74.42187 -1.54179,-6.16713 -1.65091,-17.80981 0.45508,-26.91602 z"
       id="path4229-5-7"
       inkscape:connector-curvature="0" />
    <path
       style="color:#000000;clip-rule:nonzero;display:inline;overflow:visible;visibility:visible;opacity:1;isolation:auto;mix-blend-mode:normal;color-interpolation:sRGB;color-interpolation-filters:linearRGB;solid-color:#000000;solid-opacity:1;fill:#bfbfbf;fill-opacity:1;fill-rule:evenodd;stroke:none;stroke-width:1.875;stroke-linecap:butt;stroke-linejoin:miter;stroke-miterlimit:4;stroke-dasharray:none;stroke-dashoffset:0;stroke-opacity:1;marker:none;marker-start:none;marker-mid:none;marker-end:none;color-rendering:auto;image-rendering:auto;shape-rendering:auto;text-rendering:auto;enable-background:accumulate"
       d="m 83.003452,29.556262 c -4.62732,4.32698 -5.19182,10.25685 -3.31836,19.33593 4.2106,20.40518 7.99219,41.76758 7.99219,41.76758 0,0 2.57171,13.152088 6.1875,31.457028 4.12533,20.88447 11.861498,24.75049 34.292978,18.5625 29.05899,-8.01627 49.24609,-12.63281 49.24609,-12.63281 0,0 28.44776,-7.68074 45.89453,-12.63477 15.73696,-4.46851 21.04036,-10.42669 19.95313,-20.144528 -3.05691,4.169788 -7.18463,9.809788 -8.49219,11.677738 -1.92113,2.74447 -56.26095,15.37063 -70.80664,19.21289 -14.54569,3.84226 -45.5595,12.07422 -54.3418,12.07422 -8.78232,0 -10.977238,-7.1358 -13.447268,-14.82032 -2.47003,-7.68451 -10.15403,-46.928838 -12.34961,-62.023428 -1.87731,-12.90643 -2.14358,-22.20297 -0.81055,-31.83203 z"
       id="path4229-5-7-0"
       inkscape:connector-curvature="0" />
    <g
       id="g4289"
       transform="translate(174.29051,-156.31696)">
      <path
         sodipodi:nodetypes="csscsscsscssc"
         inkscape:connector-curvature="0"
         id="path4229"
         d="m -86.55652,246.70416 c 0,0 -3.782228,-21.36377 -7.992823,-41.76895 -3.351829,-16.24347 1.031332,-22.43146 22.689304,-27.33029 15.930824,-3.6034 40.221944,-9.53982 40.221944,-9.53982 0,0 19.17158,-3.74918 40.9954497,-9.28199 18.3061403,-4.64099 23.9784703,-1.547 31.1977903,16.50131 6.24258,15.60644 7.73499,20.62664 7.73499,20.62664 0,0 8.55624,20.96546 17.79048,44.60511 6.44582,16.50131 3.8675,25.0098 -17.01698,30.93996 -17.44677,4.95403 -45.8942703,12.63382 -45.8942703,12.63382 0,0 -20.1871097,4.61754 -49.2461047,12.63381 -22.43147,6.18799 -30.16646,2.3205 -34.291788,-18.56397 -3.615791,-18.30494 -6.187992,-31.45563 -6.187992,-31.45563 z"
         style="color:#000000;clip-rule:nonzero;display:inline;overflow:visible;visibility:visible;opacity:1;isolation:auto;mix-blend-mode:normal;color-interpolation:sRGB;color-interpolation-filters:linearRGB;solid-color:#000000;solid-opacity:1;fill:none;fill-opacity:1;fill-rule:evenodd;stroke:#000000;stroke-width:1.875;stroke-linecap:butt;stroke-linejoin:miter;stroke-miterlimit:4;stroke-dasharray:none;stroke-dashoffset:0;stroke-opacity:1;marker:none;marker-start:none;marker-mid:none;marker-end:none;color-rendering:auto;image-rendering:auto;shape-rendering:auto;text-rendering:auto;enable-background:accumulate" />
      <path
         sodipodi:nodetypes="cssc"
         inkscape:connector-curvature="0"
         id="path4231"
         d="m -59.80271,197.78729 c 0,0 44.862945,-9.53982 56.4654247,-12.37598 11.60249,-2.83616 12.56844,-3.09559 15.5308003,3.53826 6.45848,14.46297 21.91581,58.27026 21.91581,58.27026"
         style="color:#000000;clip-rule:nonzero;display:inline;overflow:visible;visibility:visible;opacity:1;isolation:auto;mix-blend-mode:normal;color-interpolation:sRGB;color-interpolation-filters:linearRGB;solid-color:#000000;solid-opacity:1;fill:none;fill-opacity:1;fill-rule:evenodd;stroke:#000000;stroke-width:1.875;stroke-linecap:butt;stroke-linejoin:miter;stroke-miterlimit:4;stroke-dasharray:none;stroke-dashoffset:0;stroke-opacity:1;marker:none;marker-start:none;marker-mid:none;marker-end:none;color-rendering:auto;image-rendering:auto;shape-rendering:auto;text-rendering:auto;enable-background:accumulate" />
      <path
         sodipodi:nodetypes="csssc"
         inkscape:connector-curvature="0"
         id="path4233"
         d="m 37.976815,246.70416 c 0,0 -56.20759,14.95431 -72.96674,19.59531 -16.759141,4.64099 -19.33747,2.83616 -21.400134,-10.57116 -2.062664,-13.40731 -10.196256,-47.68449 -9.539821,-52.34009 0.68731,-4.87457 6.383681,-5.61679 6.383681,-5.61679"
         style="color:#000000;clip-rule:nonzero;display:inline;overflow:visible;visibility:visible;opacity:1;isolation:auto;mix-blend-mode:normal;color-interpolation:sRGB;color-interpolation-filters:linearRGB;solid-color:#000000;solid-opacity:1;fill:none;fill-opacity:1;fill-rule:evenodd;stroke:#000000;stroke-width:1.875;stroke-linecap:butt;stroke-linejoin:miter;stroke-miterlimit:4;stroke-dasharray:none;stroke-dashoffset:0;stroke-opacity:1;marker:none;marker-start:none;marker-mid:none;marker-end:none;color-rendering:auto;image-rendering:auto;shape-rendering:auto;text-rendering:auto;enable-background:accumulate" />
    </g>
    <path
       style="color:#000000;clip-rule:nonzero;display:inline;overflow:visible;visibility:visible;opacity:1;isolation:auto;mix-blend-mode:normal;color-interpolation:sRGB;color-interpolation-filters:linearRGB;solid-color:#000000;solid-opacity:1;fill:none;fill-opacity:1;fill-rule:evenodd;stroke:#000000;stroke-width:1.875;stroke-linecap:butt;stroke-linejoin:miter;stroke-miterlimit:4;stroke-dasharray:none;stroke-dashoffset:0;stroke-opacity:1;marker:none;marker-start:none;marker-mid:none;marker-end:url(#Arrow2Mend);color-rendering:auto;image-rendering:auto;shape-rendering:auto;text-rendering:auto;enable-background:accumulate"
       d="M 209.39207,46.30135 197.41127,15.586609"
       id="path4372"
       inkscape:connector-curvature="0"
       inkscape:transform-center-x="8.0454069"
       inkscape:transform-center-y="-19.140244" />
    <text
       xml:space="preserve"
       style="color:#000000;font-style:normal;font-variant:normal;font-weight:normal;font-stretch:normal;font-size:12.5px;line-height:125%;font-family:'Liberation Sans';-inkscape-font-specification:'Liberation Sans';text-indent:0;text-align:start;text-decoration:none;text-decoration-line:none;text-decoration-style:solid;text-decoration-color:#000000;letter-spacing:0px;word-spacing:0px;text-transform:none;direction:ltr;block-progression:tb;writing-mode:lr-tb;baseline-shift:baseline;text-anchor:start;white-space:normal;clip-rule:nonzero;display:inline;overflow:visible;visibility:visible;opacity:1;isolation:auto;mix-blend-mode:normal;color-interpolation:sRGB;color-interpolation-filters:linearRGB;solid-color:#000000;solid-opacity:1;fill:#000000;fill-opacity:1;fill-rule:nonzero;stroke:none;stroke-width:1.24999988px;stroke-linecap:butt;stroke-linejoin:miter;stroke-miterlimit:4;stroke-dasharray:none;stroke-dashoffset:0;stroke-opacity:1;marker:none;marker-start:none;marker-mid:none;marker-end:none;color-rendering:auto;image-rendering:auto;shape-rendering:auto;text-rendering:auto;enable-background:accumulate"
       x="117.96215"
       y="-179.18378"
       id="text4654"
       sodipodi:linespacing="125%"
       transform="matrix(0.33655964,0.94166215,-0.94166215,0.33655964,0,0)"
       inkscape:transform-center-x="-7.3600064"
       inkscape:transform-center-y="18.118958"><tspan
         sodipodi:role="line"
         id="tspan4656"
         x="117.96215"
         y="-179.18378">current</tspan></text>
    <path
       style="color:#000000;clip-rule:nonzero;display:inline;overflow:visible;visibility:visible;opacity:1;isolation:auto;mix-blend-mode:normal;color-interpolation:sRGB;color-interpolation-filters:linearRGB;solid-color:#000000;solid-opacity:1;fill:#000000;fill-opacity:1;fill-rule:evenodd;stroke:none;stroke-width:1.875;stroke-linecap:butt;stroke-linejoin:miter;stroke-miterlimit:4;stroke-dasharray:none;stroke-dashoffset:0;stroke-opacity:1;marker:none;marker-start:none;marker-mid:none;marker-end:none;color-rendering:auto;image-rendering:auto;shape-rendering:auto;text-rendering:auto;enable-background:accumulate"
       d="m 152.11501,59.726094 -16.94362,-57.9899533 -19.5954,8.5707013 20.79982,-47.78761 35.52229,31.3952895 -17.67653,3.4420754 11.2737,58.8552271 z"
       id="path4170"
       inkscape:connector-curvature="0"
       sodipodi:nodetypes="cccccccc" />
    <text
       xml:space="preserve"
       style="color:#000000;font-style:normal;font-variant:normal;font-weight:bold;font-stretch:normal;font-size:12.5px;line-height:125%;font-family:'Liberation Sans';-inkscape-font-specification:'Liberation Sans Bold';text-indent:0;text-align:start;text-decoration:none;text-decoration-line:none;text-decoration-style:solid;text-decoration-color:#000000;letter-spacing:0px;word-spacing:0px;text-transform:none;direction:ltr;block-progression:tb;writing-mode:lr-tb;baseline-shift:baseline;text-anchor:start;white-space:normal;clip-rule:nonzero;display:inline;overflow:visible;visibility:visible;opacity:1;isolation:auto;mix-blend-mode:normal;color-interpolation:sRGB;color-interpolation-filters:linearRGB;solid-color:#000000;solid-opacity:1;fill:#ffffff;fill-opacity:1;fill-rule:nonzero;stroke:none;stroke-width:1.24999988px;stroke-linecap:butt;stroke-linejoin:miter;stroke-miterlimit:4;stroke-dasharray:none;stroke-dashoffset:0;stroke-opacity:1;marker:none;marker-start:none;marker-mid:none;marker-end:none;color-rendering:auto;image-rendering:auto;shape-rendering:auto;text-rendering:auto;enable-background:accumulate;"
       x="138.37978"
       y="-5.572175"
       id="text4568"
       sodipodi:linespacing="125%"><tspan
         sodipodi:role="line"
         id="tspan4570"
         x="138.37978"
         y="-5.572175">m</tspan></text>
  </g>
</svg>
