<?xml version="1.0" encoding="iso-8859-1"?>
<!-- Generator: Adobe Illustrator 11 Build 196, SVG Export Plug-In . SVG Version: 6.0.0 Build 78)  -->
<!DOCTYPE svg PUBLIC "-//W3C//DTD SVG 1.0//EN"    "http://www.w3.org/TR/2001/REC-SVG-20010904/DTD/svg10.dtd" [
	<!ENTITY ns_flows "http://ns.adobe.com/Flows/1.0/">
	<!ENTITY ns_svg "http://www.w3.org/2000/svg">
	<!ENTITY ns_xlink "http://www.w3.org/1999/xlink">
]>
<svg
	 width="147.569" height="121.139" viewBox="0 0 147.569 121.139"
	 style="overflow:visible;enable-background:new 0 0 147.569 121.139" xml:space="preserve">
	<metadata>
<?xpacket begin='﻿' id='W5M0MpCehiHzreSzNTczkc9d'?><x:xmpmeta xmlns:x='adobe:ns:meta/' x:xmptk='XMP toolkit 3.0-29, framework 1.6'>
<rdf:RDF xmlns:rdf='http://www.w3.org/1999/02/22-rdf-syntax-ns#' xmlns:iX='http://ns.adobe.com/iX/1.0/'>

 <rdf:Description rdf:about=''
  xmlns:pdf='http://ns.adobe.com/pdf/1.3/'>
 </rdf:Description>

 <rdf:Description rdf:about=''
  xmlns:tiff='http://ns.adobe.com/tiff/1.0/'>
 </rdf:Description>

 <rdf:Description rdf:about=''
  xmlns:xap='http://ns.adobe.com/xap/1.0/'
  xmlns:xapGImg='http://ns.adobe.com/xap/1.0/g/img/'>
  <xap:CreateDate>2006-07-17T00:05:40Z</xap:CreateDate>
  <xap:ModifyDate>2006-07-17T00:05:40Z</xap:ModifyDate>
  <xap:CreatorTool>Illustrator</xap:CreatorTool>
  <xap:Thumbnails>
   <rdf:Alt>
    <rdf:li rdf:parseType='Resource'>
     <xapGImg:format>JPEG</xapGImg:format>
     <xapGImg:width>256</xapGImg:width>
     <xapGImg:height>212</xapGImg:height>
     <xapGImg:image>/9j/4AAQSkZJRgABAgEASABIAAD/7QAsUGhvdG9zaG9wIDMuMAA4QklNA+0AAAAAABAASAAAAAEA&#xA;AQBIAAAAAQAB/+4ADkFkb2JlAGTAAAAAAf/bAIQABgQEBAUEBgUFBgkGBQYJCwgGBggLDAoKCwoK&#xA;DBAMDAwMDAwQDA4PEA8ODBMTFBQTExwbGxscHx8fHx8fHx8fHwEHBwcNDA0YEBAYGhURFRofHx8f&#xA;Hx8fHx8fHx8fHx8fHx8fHx8fHx8fHx8fHx8fHx8fHx8fHx8fHx8fHx8fHx8f/8AAEQgA1AEAAwER&#xA;AAIRAQMRAf/EAaIAAAAHAQEBAQEAAAAAAAAAAAQFAwIGAQAHCAkKCwEAAgIDAQEBAQEAAAAAAAAA&#xA;AQACAwQFBgcICQoLEAACAQMDAgQCBgcDBAIGAnMBAgMRBAAFIRIxQVEGE2EicYEUMpGhBxWxQiPB&#xA;UtHhMxZi8CRygvElQzRTkqKyY3PCNUQnk6OzNhdUZHTD0uIIJoMJChgZhJRFRqS0VtNVKBry4/PE&#xA;1OT0ZXWFlaW1xdXl9WZ2hpamtsbW5vY3R1dnd4eXp7fH1+f3OEhYaHiImKi4yNjo+Ck5SVlpeYmZ&#xA;qbnJ2en5KjpKWmp6ipqqusra6voRAAICAQIDBQUEBQYECAMDbQEAAhEDBCESMUEFURNhIgZxgZEy&#xA;obHwFMHR4SNCFVJicvEzJDRDghaSUyWiY7LCB3PSNeJEgxdUkwgJChgZJjZFGidkdFU38qOzwygp&#xA;0+PzhJSktMTU5PRldYWVpbXF1eX1RlZmdoaWprbG1ub2R1dnd4eXp7fH1+f3OEhYaHiImKi4yNjo&#xA;+DlJWWl5iZmpucnZ6fkqOkpaanqKmqq6ytrq+v/aAAwDAQACEQMRAD8A9U4q7FXYq7FXYq7FXYq7&#xA;FXYq7FXYq7FXYq7FUBret6dommT6lqEnp20AGwHJ3djRI40G7u7EKijck0xV5jDd6tf6pNr+pFoL&#xA;64X07W0VtrO1BqkIKmhkY/FK4+021eKrRVMLrzjrunRWrJcCRJL2xt5PXAYCK4vIoJDyO9Qkhoa4&#xA;q9Hku7SOeO3kmjSeXeKJmAdqfyqTU4qrYq7FXYq7FXYq7FXYq7FXYq7FXYq7FXYq7FXYq7FXYq7F&#xA;XYq7FXYq7FXYq7FXYq7FXYqh9Qv7TT7C5v7yQQ2lpE89xK3RY41LMx+QGKvJp7vUNfvl1zWgYkjJ&#xA;k0rS3oEs4yCA7jcG5ZD8b/s14LtyLKrF17RXtEvI76CW2kcxRSxOsgeQEj004Fub1FOK74qkfnXX&#xA;7eEQaRA6vqMs0NxJEd/Tt4JBMZGG3wu0YiBHdvbFUz8o+WfMnmvXI9e1GaRLaOVZWvH2ZzGQQkI2&#xA;2FKVGw/DFXtuKuxV2KuxV2KuxV2KuxV2KuxV2KuxV2KuxV2KuxV2KuxV2KuxV2KuxV2KsX82/mP5&#xA;a8r3dvY35ubnUblDPHp+n2015cC3Q8XuHjgV2SJT+030VocVTrRNc0jXdKt9V0i6jvdOul5wXERq&#xA;rD9YIOxB3B2OKo7FXYq80/OHX7O2m0LS7m5Asrm8RtQtVryP/LI0poQIvrAXkNiW4n7IYFVj1rdz&#xA;W2u3OnXcxkF4Dd6byFKRoqJNCCBQ8Ho/jR/8nFUJNf3t3a6jaaWi2usaNMpS0JBjljH7yEVKikdx&#xA;F8NQPgao344qqeSo/KfnTzrper28S36QWFyl9G4b9x+8iaOO5XosiyBgI36gsaEDFXuKIiIqIoVF&#xA;ACqBQADoAMVXYq7FXYq7FXYq7FXYq7FXYq7FXYq7FXYq7FXYq7FXYq7FXYq7FXYq7FXnXmn824tI&#xA;0rzfF9Taz8yeXLSe8tLC9I4XlsoIhu4WQ/vImOzgHkp+FqHFWN/mXoXmWPXn17SfrNx5V8z29nbe&#xA;Z7jRojc6rFb2izMq2gU8vRuPWVZGTky0qBvirJ/yps9TWfV72PT7nQ/KLraWnlfQbtTDJDDao4mu&#xA;DbmrQ+u7j4W+I8eTCpxV6FiqU+ZPM2l+X7A3d/JQmohgXeSRv5VH6z0GKvE9E0lvPvm+WPV0M9pd&#xA;+pNqKAmggAoI61BCn4Y9twMVTvWvIvnNb200e1t2u/q91HLpPmV3ThFCv2/ricvVMgiLxMFWkta8&#xA;kLHgqya1/J3THmkv9W1G4uNZuE+r3N5ZE2SG1BJW3SMNKyKCS3P1DJyJo6iihVndpaW1naw2lrEs&#xA;FtbosUEKAKqIg4qqgdAAMVVsVdirsVdirsVdirsVdirsVdirsVdirsVdirsVdirsVdirsVdirsVd&#xA;irF/zC82XnlvRbeXTrVLzV9TvbfS9KglYpB9au24o0zruI0oWam5pQbnFXmn5geWtd1oWHlb8yHt&#xA;J4daZ7Xy75v0iGS2lsdRliP+i3ELyScorhQy7NR6UYA0ZVWUflv+V9hpNvZ6hdaU/l3XLKR4ru30&#xA;q+nTTr30/gW4NtHII/Tk/vAjoGB2Ne6r0vFWHecfzK0nQVe2tit7qg29BT8EZ8ZWH/ERv8sVea6T&#xA;oXmjz7q7Xl1I31etJrxx+7jX/fcS9Cf8kfTir2Ty75V0Xy/bmLToODuFE07HlJIV7s38Btiqb4q7&#xA;FXYq7FXYq7FXYq7FXYq7FXYq7FXYq7FXYq7FXYq7FXYq7FXYq7FXYq7FWO+f/NF55Y8p6jrVjps2&#xA;rXVlEZFs7cKWp/vxlLKxjTq/GrU6DFXkHmvQNauPyri86Xfmq58x2EtvFqmtWDtDHAELCb1dLeFO&#xA;drcWrbxVdgePFhQkYqznR/IXmzVNR0e/82+Z49c0jR5Ev9ItYbIWjzXAQiC4u35vyaNWJCoFHI1P&#xA;SmKs61nWdP0bT5b+/k9O3ip7szHoqjuTiryLzH+Z+v69N+jtDhktIJTwVYqtcy191+z8l+/FU08o&#xA;/lA7Ml75jNF+0uno25/4yuOnyX78VepW1tb2sCW9tEsMEQ4xxIAqqPAAYqq4q7FXYq7FXYq7FXYq&#xA;7FXYq7FXYq7FXYq7FXYq7FXYq7FXYq7FXYq7FXYq7FXYq8BtfK3nyw8w6hq8+mWGneZ45ruW5/ML&#xA;WrsXEAtGLCOOxs42jIRLcqKSBVQ16nFUH5f8kaprGkaD5nXTp7vytrtx6nmLyVZ3ElvZeqbgpHqV&#xA;rbu6o1vKVWaSBzSh5e2KvftW1ax0nT5r++kEdvCtWPcnsqjux6AYq8Tv9Q8wfmH5jS2t19O2Qkww&#xA;kn04Iu8jkdW8T9AxV675Z8oaN5etVis4Q1wVpPeMB6sh779h/kjbFU7xV2KuxV2KuxV2KuxV2Kux&#xA;V2KuxV2KuxV2KuxV2KuxV2KuxV2KuxV2KuxV2KuxV2KuxVJfMnkvyn5nFoPMOk2uqCxkMtoLqNZP&#xA;TY05Ur2biOS9DQVxVH319p2k6c9zcultZWyCppRVUbBVA+4AYq8S1vWdc8/+Yo7KxRltQx+q2xNF&#xA;RBs0spHfx8Og91XrvlTyrp/lzTFtLYB5mo11ckUaR/H2A/ZHbFU7xV2KuxV2KuxV2KuxV2KuxV2K&#xA;uxV2KuxV2KuxV2KuxV2KuxV2KuxV2KuxV2KuxV2KuxV2KqN5eWtlay3V1KsNvCpeWVzQADFXiHmj&#xA;zNq/nfXItM0xG+pc+NnbfZ5EdZZfo/4EfTir1TyZ5OsfLWmiGOkt9KAbu6puzfyrXoq9vvxVkOKu&#xA;xV2KuxV2KuxV2KuxV2KuxV2KuxV2KuxV2KuxV2KuxV2KuxV2KuxV2KuxV2KuxV2KuxVZNNFBC80z&#xA;iOKNS8kjGgVVFSSfbFXiPnbzlqHm3VI9I0hXbT/UCQQqCGnk/nYfyjsD06n2VekeRfJFr5asKvxm&#xA;1Scf6TcAdB19NK/sj8fuoqygkAVOwHU4qpfW7X/f0f8AwQ/riqx9T01G4vdwq3gZFB/E4qt/S2lf&#xA;8tsH/I1P64q79LaV/wAtsH/I1P64q79LaV/y2wf8jU/rirv0tpX/AC2wf8jU/riq+PULCSvp3MT0&#xA;68XU/qOKqiTwOeKSKzdaKQT+GKqmKuxV2KuxV2KuxV2KuxV2KuxV2KuxV2KuxV2KuxV2KuxV2KtM&#xA;yqpZiFVRVmOwAHc4q8T/ADI/MFtZmbStMcrpUTUlkBp9YYHr/qDt49fDFUl8qecF8tGWa1sIri+l&#xA;HH6zOxPFf5UVaUr333xVOZ/zh84XTenaxW8LNsgiiZ3/AOHZwfuxVDvo35n+aCPrSXUkLGtLg/V4&#xA;R/lCNuC/8CuKo+P8k/MRQF720Rj1UGQ0+nhiq7/lSWv/APLfaf8AJT/mjFXf8qS1/wD5b7T/AJKf&#xA;80Yq7/lSWv8A/Lfaf8lP+aMVd/ypLX/+W+0/5Kf80Yq7/lSWv/8ALfaf8lP+aMVU3/JPzKD+7vLJ&#xA;h3LNKv6o2xVSf8mPNqtQS2bjxEj0/GMYq6P8rvP8O0UiIAKDhcFdh8qYqub8uPzICkicsR2F0an7&#xA;yMVU/wDlXv5meMn/AElr/wA14qqj8t/zIp/vRT2+tH+uKrX/AC7/ADLjIKSs56/Bd0Ip/rMuKqGg&#xA;/mV5m8uvLY6hG18sbkNDdMwljYdQHPI/QQfbFWWWn53aK9Pren3EJPX0mSUD7zHirJ9E8/eVtZcR&#xA;Wl6qXDdLeYGJyfActmP+qTirIcVdirsVdirsVdirsVdirsVQWsaxp+kafLf38oit4huepYnoqjux&#xA;8MVeW6p+dupvKw0uwhih6K1xykcjxojIB+OKse138y/M+s6e9hcPFDby/wB76ClGZf5SSzbeOKpd&#xA;5f8AKGv67Okdlav6JPx3TgrCo8S56/Ib4q9q8t/l/wCX9GsBA9tHe3L0M9zPGrlm/wAkMDxX2H04&#xA;qyKC0tbcEQQpCD1Eahf1DFVXFXYq7FXYq7FXYq7FXYq7FXYq7FXYq7FXYqgr7RtIv976xgujSlZo&#xA;0c/QWBOKpDfflh5Kuwf9A+ruf24HdKfJalP+FxViOufkpIiNLot76hG4trkAMflIoAr81HzxVJ18&#xA;t/mzpopD9dVF2Cw3Idaf6iyH9WKuPnL80tI3vBcCNdz9athx/wCDKKf+GxVONI/O6cMqavp6sv7U&#xA;1qSpH/PNya/8EMVekaH5g0nXLMXWmziaPo6dHQ+DqdwcVTHFXYq7FXYq7FXin5q69PrHmSPRLMmS&#xA;GzYRLGu/O5fZvpWvD51xVBeYrzR9Dsh5e0SOOe+KhdV1UKHdpDs0ULGvFex4/LxxVmf5afl4NNRN&#xA;Z1eL/ci29rbt/ulSPtMP5z+Hz6KvRcVdirsVdirsVdirsVdirsVdirsVdirsVdirsVdirsVdirsV&#xA;dirsVdirH9e8i+WdbRvrVosdwwNLqACOUHxJAo3+yBxV5brXk3zX5LuzqelzvJaR/wDH5BsVXwmj&#xA;32+9cVZL5Z/OWzmVbfX4vq8vT65CC0Z92QVZfor9GKvRbK/sb63W4sp47iBukkTBh8qjviqIxVZN&#xA;NDDG0szrHEgqzuQqge5O2KvMfzG/MmaGY6PoE49Sn+lXsRDEE/7riYd/Ej5dcVeaM19pd47SHhqF&#xA;DyJNZImfqT4SUPzX2boq9M/LP8uvQEeuazD+/wBnsbVx9juJXB/a/lHbr16KvUMVdirsVdirsVdi&#xA;rsVdirsVdirsVdirsVdirsVdirsVdirsVdirsVdirsVdirRAIIIqDsQcVYT5j/Kfy9qrtPZk6bdN&#xA;uTEA0RPiY9qf7EjFWCXvkPz35Xla9013ljTcz2LNyoP549mI8diMVZR+XX5lXmqXq6PrJVrqQH6t&#xA;dABObKKlHUfDWnQimKsW8z3+s+cfOj6NbTf6Os7wWcLErEBFXlKwFa1Clq0rirG9Y0u78vay1qbm&#xA;KS7tWB9W3YsEYbjcgUYfhirI/wAqdL0LUfMJ/Sb87qEerZ2zj4JGXdmJ7lOvH6e2KvdMVdirsVdi&#xA;rsVdirsVdirsVdirsVdirsVdirsVdirsVdirsVdirsVdirsVdirsVdirsVdirwrz3BHof5h/WrUe&#xA;kvqQ3qgbAMSC5+llJxVjWka7f6VfSX9qwF46SIkxFShl2ZwPGlaYqzr8ufy8k1GVNe1xC9qx9S3t&#xA;5dzOx39SSv7FdxX7Xy6qpP510n/CHnKG4008ISUvLVK/YoxDRn2qp+jFXukEyTwRzJ9iVQ618GFR&#xA;iqpirsVdirsVdirsVdirsVdirsVdirsVdirsVdirsVdirsVdirsVdirsVdirsVdirsVdirxH86PT&#xA;/wAWQ8ftfU4+fz9ST+FMVSnzd5L1jStauo4rOaWxZ2ktp442ZPTY1AJUEArWhxVV0z8zfNum2MNj&#xA;DPG0NuoSL1IwzBRsFrt0xVVs9H83ee9aS7vFf0W4rJesnCKOIHpH0DHfYDv18cVe7wxJFEkSCiRq&#xA;FUeAUUGKr8VdirsVdirsVdirsVdirsVdirsVdirsVdirsVdirsVdirsVdirsVdirsVdirsVdirTM&#xA;qqWYhVUVZjsAB3OKvCNRuB5v/MhBbjnay3CRRn/iiH7b/Sqs2KveMVea/mV+XK3iS61o8dLxQXu7&#xA;VB/eju6Aft+I/a+fVVL/ACB+aMFpappWvuwjiAW2vaF6KOiSAVbbsR9OKvU7K+sr63W5s50uIH+z&#xA;LGwZT9IxVXxV2KuxV2KuxV2KuxV2KuxV2KuxV2KuxV2KuxV2KuxV2KuxV2KuxV2KuxV2KuxVLtd1&#xA;7S9DsHvdQlEcS7Io3d27Ki9ycVeOar5m83eeNSew0yORLRgeNjE3FeA/anf4Qfp28MVZ9+Xv5ff4&#xA;cEl7fOk2pzLwHCpSJDuVBNKk9zirNsVdirDPM/5W6BrUz3UJbT716l5IgDG7H9p4zTf3BHvirzq9&#xA;0Pzt5Eu/rltIwtSRW6gq8DiuyyoRt/sh8jirLdA/OjT5UWLW7ZrabYG4gHOI+5Unmv0csVZ9pes6&#xA;XqtuLjTrqO5iPUoakezL9pT7EYqjcVdirsVdirsVdirsVdirsVdirsVdirsVdirsVdirsVdirsVd&#xA;irsVaJCgkmgG5J6AYqxrzT5+0PQbQv6yXd41RDaQuGYnxcivFfn9GKvKbez82fmDrRmkNYkNHmII&#xA;t7dDvxUePt1PfxxV7L5a8saX5e08WlinxHee4anqSN4sf1Dtiqb4q7FXYq7FWmVWUqwDKwoyncEH&#xA;scVYfr/5WeV9VDPBF+jro9JbcAJX/Ki+z91MVedah5C87+Wbr65p/qTKn2buxLFqf5SD4/nsRiqP&#xA;0385fMVmPR1K1ivSmzMawS+9aAr/AMJiqf2n53aK9Pren3ENevplJQPvMeKp1b/mr5ImA5XzQsaf&#xA;DJDL+tVYfjiqb2fm7yveUFvqts7HohlVW/4FiDiqbKysAykFTuCNxireKuxV2KuxV2KuxV2KuxV2&#xA;KuxV2KuxV2KpbeeZPL1k5ju9StoJQaGN5UDj/Y1riqVal+ZPk6xgeT9IJcuo+GG3rIzHwBHwj6Ti&#xA;rzrVvzW816tcfVtHi+po5IjjgX1p2/2RB3/1VGKoaPyF+YuuES3yygNuHvpzX/gCXcf8Diqe6T+S&#xA;UwnR9W1BDCtC8NsGJb25uFp/wOKvULDT7LT7SO0soVt7aIUSJBQD+pPcnFURirsVdirsVdirsVdi&#xA;rsVQl9pGlagvG+s4bof8Wxq/3cgcVY7eflZ5KuSSLI27Hq0Mjr/wpLL+GKpXN+SnlhgfSu7yNj0q&#xA;8TKPo9MH8cVSS/8AyPvVJOn6nHIOyXCNHT/ZJ6n6sVSZvIX5j6MS9isoUft2U9P+FDK5+7FVw85/&#xA;mfpFFu/rIRe13b1r/s2QMf8AgsVRdv8AnX5jSgns7SUDuokQ/wDE2H4Yqrn879WoaabAD2Jd8VRF&#xA;t+eM4AF1pCue7RTFf+FZG/XiqYxfndoh/vdPuU8eBjb9ZXFUSn50+VGaht71B/MY4qfhKcVVP+Vy&#xA;+Uf5Lv8A5FL/AM14qpf8rr8rf8st9/yLh/6q4qgb/wDO+xEB/R+nStcHobhlVB70QsW+W2KsfH5h&#xA;/mXqCGexRxBy4lra0EiA7njyZZP14qov54/NNDxeS4VutGs4gfxixVcPzN/MKJislC38r2wBH3Bc&#xA;VUb7z75+1e3OnjmvrkKVtoSkjf5IK/Fv7Yqmmkfktq11arNqN8lhI4qIBH6ziv8AMeaAH5E4qmlt&#xA;+Rtqsqm51d5YgfiSOARsR/rF5P1Yqz7RfLujaLbiDTbVIBSjyAVkf3dz8RxVMsVdirsVdirsVdir&#xA;sVdirsVdirsVdirsVdirsVdirsVUJrCxnNZreKU+LordfmMVQw8v6CpBGm2oI3BEEdQf+BxVD3Pk&#xA;7yrcms2k2pY9WWJEJ+lQDiqXS/lh5GkNTpgU0pVZZl/APTFVD/lU/kj/AJY5P+R0v/NWKu/5VP5I&#xA;/wCWOT/kdL/zVirv+VT+SP8Aljk/5HS/81Yqibb8tfJFvKsqaWjOvT1JJZVPzV3ZT92KskihihjW&#xA;KFFjiQUREAVQB2AGwxVfirsVdirsVdirsVdirsVdirsVdirsVdirsVdirsVdirsVdirsVdirsVdi&#xA;rsVdirsVdirsVdirsVdirsVdirsVdirsVdirsVdirsVdirsVdirsVdirsVdirsVdirsVdirsVdir&#xA;sVSK684aZbecrHyk8Ux1HULOa/hlVU9ARW7qjBmLB+RLilFI98VT3FXYq7FXYq7FXYq7FXYq7FXY&#xA;q7FXYq7FXYq7FXYq7FXYq7FXYq7FXYq7FXYq7FXYq7FXYq7FXYq7FXh/5xatqekfmKuq6XtqNj5N&#xA;1u4tWAqVkjaNleh68acsVVtZ8vaN5Z0DyJrvlqJY/MF7quk28+qRn/SNSjvv96heS15XAkjLSfGT&#xA;xpVaUxVCWOi6Hrf5aebvO2vIjeaop9ZlTV2JF3pr6dNNHaxWstfUtxEsKHihHKvxVriqn5R0PTPO&#xA;P5oSXPnCyi1C7k8o6Lc3GnXSB4DcTiQyyNA1UZo2JCkj4eW2Ks4/JW5un8u6vYvO9xp+k65qWnaN&#xA;NI5kY2NtOVhX1Du4j3RTU7DFXoOKuxV2KuxV2KuxV2KuxV2KuxV2KuxV2KuxV2KuxV2KuxV2KuxV&#xA;2KuxV2KuxV2KuxV2KpVdeV9Bu9eg165tBLqttbS2UM7M9BbzkNJGY+XpsGKjqtcVS7R/y28m6PfW&#xA;15YWLrJY8xp8UtzdT29p6g4v9Ut5pZILeqmn7pF226Yqtv8A8s/JV/qNxf3Ng7SXkiT31slzcx2d&#xA;zLHTi9zZxyrbTt8I3kjatN8VY3d/lkusfm1rOv6vaTLpkulWdrp2oWt5LZzeqjzG4jD2k0NwFKsv&#xA;IH4W96Yq9A0fR9L0bTLbS9Ltks9PtEEdvbxCiqvX5kkmpJ3J3O+KozFXYq7FXYq7FXYq7FXYq7FX&#xA;Yq7FXYq7FXYq7FXYq7FXYq7FXYq7FXYq7FXYq7FXYq7FXYq7FXYq7FXYq7FXYq7FXYq7FXYq7FXY&#xA;q7FXYq7FXYq7FXYq7FXYq//Z</xapGImg:image>
    </rdf:li>
   </rdf:Alt>
  </xap:Thumbnails>
 </rdf:Description>

 <rdf:Description rdf:about=''
  xmlns:dc='http://purl.org/dc/elements/1.1/'>
  <dc:format>image/svg+xml</dc:format>
 </rdf:Description>

</rdf:RDF>
</x:xmpmeta>
                                                                                                                                                                                                                                                                                                                                                                                                                                                                                                                                                                                                                                                                                                                                                                                                                                                                                                                                                                                                                                                                                                                                                                                                                                                                                                                                                                                                                                                                                                                                                                                                                                                                                                                                                                                                                                                                                                                                                                                                                                                                                                                                <?xpacket end='w'?>
			</metadata>
		<g id="Layer_1">
			<g>
				<path style="fill:#808080;" d="M62.605,18.162c0.54-1.98,1.71-3.96,3.42-4.32c6.21-1.215,11.385-2.79,15.885-6.93
					c0.675-0.405,0.945-1.26,0.54-1.935c-0.405-0.72-1.26-0.945-1.935-0.585c-4.41,4.185-9.585,5.265-15.345,6.93
					c-2.61,0.72-4.725,2.88-5.355,6.3c-0.18,0.81,0.36,1.53,1.125,1.665C61.75,19.466,62.471,18.927,62.605,18.162L62.605,18.162z"
					/>
				<path style="fill:#BFBFBF;" d="M69.021,16.035l-1.179,1.285l-1.257-0.626l-1.853-2.212l-1.664-2.971l-0.119-0.164
					c0.392-0.57,0.808-1.155,1.075-1.542c0.645-0.935,0.838-1.635,1.644-2.594c0.806-0.959,1.547-1.47,2.934-2.915
					c1.386-1.446,1.676-1.786,3.481-4.146l5.737,1.522c0,0,0,1.355,0.064,1.811s0.257,1.691,0.128,2.459s-1.322,2.869-1.386,3.317
					c-0.064,0.449-0.097,1.06-0.097,1.06"/>
				<path style="fill:#808080;" d="M60.806,15.552c-4.455,4.365-9.675,7.83-15.12,10.8c-14.76,15.12-28.665,30.87-43.425,45.99
					c-0.54,0.585-0.495,1.485,0.09,2.025s1.485,0.54,2.025-0.045c14.445-14.985,28.35-30.33,42.66-45.405
					c5.67-3.285,11.475-6.705,16.02-11.565c0.495-0.63,0.405-1.53-0.225-2.025C62.201,14.832,61.301,14.921,60.806,15.552
					L60.806,15.552z"/>
				<path style="fill:#808080;" d="M1.795,72.852c-0.165,1.44,0.63,2.67,1.53,3.675c1.8,2.025,3.765,3.585,5.52,5.745
					c0.825,1.02,1.905,1.68,3.06,2.34c0.495,0.27,1.08,0.33,1.59,0.555c1.995,0.885,3.705,2.265,5.715,3.015
					c3.27,1.215,6.075,3.105,9.54,3.945c3.975,0.96,7.83,1.77,11.82,1.845c7.92,1.545,15.81,3.66,23.97,3.12
					c8.295,1.365,16.695,1.08,25.065,0.855c1.74-0.045,3.285-1.02,4.89-1.71c4.89,0.225,9.765,0.435,14.655,0.375h0.255
					c0.405,0,0.795-0.165,1.065-0.465v-0.06c0.75-0.495,1.425-1.155,2.265-1.395c2.385-0.69,4.95,0.42,7.185-1.02
					c3.735-2.4,7.62-2.955,11.835-3.66c0.465-0.075,0.885-0.24,1.215-0.57c1.035-1.02,2.13-1.74,3.3-2.61
					c1.905-1.425,3.405-2.94,5.16-4.485c1.005-0.87,2.415-0.915,3.3-1.92c3.18-3.6,3.03-8.52,2.625-12.93
					c-0.225-2.535-1.32-5.34-3.87-6.255c-4.935-1.8-9.585-4.05-13.785-7.14c-4.125-1.965-8.64-2.31-13.2-2.91
					c-1.68-0.21-2.97-1.35-4.68-1.725c-2.865-0.66-5.64-0.72-8.34-1.62c0.165,0.06,0.315,0.105,0.48,0.165
					c-0.135-0.165-0.255-0.33-0.39-0.495l0.15,0.195c-0.165-0.54-0.645-0.915-1.2-0.975l0.24,0.15
					c-0.195-0.105-0.375-0.255-0.57-0.27c-7.035-0.42-14.025,0.03-21.045-0.21c-1.575-0.06-3.15-0.255-4.725-0.3
					c-11.28-0.375-22.545-0.18-33.825-0.09c-0.735,0.015-1.485,0.045-2.205,0.315c-3.33,1.23-6.825,1.83-10.35,1.83
					c-0.495,0-0.96,0.195-1.395,0.495c-1.845,1.245-3.165,2.895-5.13,3.72c-3.645,0.195-7.71-0.705-10.575,2.145
					c-1.65,1.665-2.235,3.96-3.42,5.925c-2.235,0.915-3.57,3-4.635,5.055c-0.39,0.69-0.165,1.575,0.525,1.965
					c0.69,0.405,1.575,0.165,1.98-0.525c0.585-0.81,0.87-1.77,1.53-2.58c0.885-1.05,2.31-1.26,3.045-2.46
					c0.78-1.245,1.38-2.46,1.98-3.78c1.845-4.125,6.765-2.16,10.365-3.06c2.46-0.615,4.035-2.64,6-4.05
					c4.23,0.255,8.25-1.155,12.285-2.16c11.16,0.03,22.305-0.345,33.48,0.18c8.4,0.42,16.785,0.18,25.17,0.27l0.96,0.3l-1.215-0.975
					l0.255,0.585c0.555,0.9,1.29,1.575,2.34,1.77c4.035,0.705,7.965,1.02,11.49,2.94c3.075,0.345,6.03,0.645,9.165,1.29
					c4.575,0.96,7.695,4.125,11.7,6.135c2.175,1.095,4.53,1.515,6.675,2.7c1.335,0.75,1.755,2.34,1.875,3.72
					c0.33,3.555,0.645,7.395-1.71,10.44c-0.6,0.78-1.74,0.855-2.55,1.515c-3.15,2.595-6.045,5.115-9.18,7.56
					c-4.275,0.525-8.4,1.185-12.225,3.78c-0.39,0.255-0.825,0.375-1.26,0.405c-2.94,0.18-6.12-0.135-8.43,2.055l-0.78,0.675
					l1.05-0.465h-0.54c-5.22,0.27-10.32-0.87-15.645,0.06c-1.275,0.21-2.4,1.17-3.615,1.23c-8.37,0.405-16.755,0.495-25.065-0.81
					c-9.06,0.885-17.625-2.715-26.535-3.21c-3.09-0.84-6.39-0.69-9.39-1.89c-1.905-0.75-3.675-1.77-5.565-2.58
					c-0.735-0.3-1.56-0.42-2.265-0.735c-2.685-1.185-5.04-2.895-7.815-3.93c-0.765-0.27-1.38-0.855-1.95-1.44
					c-1.83-1.89-3.165-4.17-5.505-5.415c-0.105-0.795-1.02-1.26-0.84-2.16c0-0.795-0.645-1.44-1.44-1.44
					C2.44,71.412,1.795,72.057,1.795,72.852L1.795,72.852z"/>
				<path style="fill:#808080;" d="M3.806,64.437c-1.335,0.525-2.64,1.38-3,2.79c-0.81,3.105-1.38,6.585,0.24,9.495
					c0.345,0.6,0.915,1.08,1.62,1.14c3.33,0.27,7.335,1.395,10.08-1.02c1.305-1.155,1.515-2.985,1.125-4.665
					c-0.435-1.89-1.305-3.525-2.655-4.845c-0.81-0.78-1.995-1.035-2.835-1.83c-0.33-0.33-0.51-0.78-0.855-1.125
					c-0.51-0.6-1.425-0.675-2.025-0.15s-0.675,1.425-0.15,2.025c1.02,1.68,2.925,2.205,4.14,3.66c1.095,1.29,2.97,3.705,0.6,5.295
					c-2.22,0.225-4.455-0.015-6.675,0.03c-0.66-2.34-0.51-4.815,0.135-7.155c0.21-0.765,0.99-0.87,1.635-1.125
					c0.705-0.375,0.96-1.26,0.57-1.95C5.38,64.302,4.496,64.046,3.806,64.437L3.806,64.437z"/>
				<path style="fill:none;stroke:#000000;stroke-width:0.5;" d="M71.754,0.152c-1.805,2.36-2.095,2.7-3.481,4.146
					s-2.127,1.956-2.934,2.916c-0.806,0.959-1,1.659-1.644,2.594c-0.267,0.387-0.684,0.972-1.075,1.542"/>
				<path style="fill:none;stroke:#000000;stroke-width:0.5;" d="M73.526,8.473c-0.29,0.598-1.29,0.902-1.483,0.698"/>
				<path style="fill:none;stroke:#000000;stroke-width:0.5;" d="M70.368,8.698c-0.645,0.806-1.032,0.592-1.225,0.131"/>
				<line style="fill:none;stroke:#000000;stroke-width:0.5;" x1="65.662" y1="10.263" x2="66.692" y2="12.446"/>
				<path style="fill:#BFBFBF;" d="M66.482,12.084c0.258,0.207,0.645,0.937,0.806,1.364c0.161,0.428,0.58,1.386,0.999,1.762
					s0.999,0.471,1.354,0.328c0.354-0.143,1.128-0.684,1.193-1.003c0.064-0.32,0.193-0.894-0.129-1.491
					c-0.322-0.598,0.999,1.503,1.096,1.605c0.097,0.102,0.838,0.301,1.257-0.032c0.419-0.333,1.193-0.939,1.096-1.299
					c-0.097-0.36-0.516-0.995-0.709-1.521s0.806,1.688,1.611,1.438c0.806-0.249,1.193-0.552,1.322-0.997s0.129-1.478-0.129-1.878
					c-0.258-0.401-0.966-2.245-0.966-2.245"/>
				<polyline style="fill:none;stroke:#000000;stroke-width:0.5;" points="62.739,11.513 64.402,14.484 66.255,16.696 
					67.512,17.323 68.691,16.038 "/>
				<line style="fill:none;stroke:#000000;stroke-width:0.5;" x1="69.948" y1="11.613" x2="70.851" y2="13.273"/>
				<line style="fill:none;stroke:#000000;stroke-width:0.5;" x1="73.59" y1="12.026" x2="72.495" y2="10.292"/>
				<path style="fill:none;stroke:#000000;stroke-width:0.5;" d="M66.692,12.446c0.258,0.207,0.645,0.937,0.806,1.365
					c0.161,0.428,0.58,1.386,0.999,1.762s1,0.471,1.354,0.328s1.128-0.684,1.193-1.003c0.064-0.32,0.193-0.894-0.129-1.491
					c-0.322-0.598,0.999,1.503,1.096,1.605c0.097,0.102,0.838,0.301,1.257-0.032c0.419-0.333,1.193-0.939,1.096-1.299
					s-0.516-0.995-0.709-1.521s0.806,1.688,1.612,1.438c0.806-0.249,1.192-0.552,1.321-0.997c0.129-0.445,0.129-1.478-0.128-1.879
					c-0.258-0.4-0.967-2.244-0.967-2.244"/>
				<path style="fill:none;stroke:#000000;stroke-width:0.5;" d="M77.492,1.673c0,0,0,1.355,0.064,1.811
					c0.064,0.456,0.258,1.692,0.128,2.459c-0.129,0.768-1.322,2.869-1.386,3.318s-0.097,1.06-0.097,1.06"/>
			</g>
			<rect y="47.556" style="fill:none;" width="147.402" height="2.834"/> 
			<g>
				<text transform="matrix(1 0 0 1 52.1768 116.6758)"><tspan x="0" y="0" style="font-family:'Helvetica'; font-size:10;">loop</tspan></text>
			</g>
			<g>
				<text transform="matrix(0.7071 -0.7071 0.7071 0.7071 30.6289 34.0532)"><tspan x="0" y="0" style="font-family:'Helvetica'; font-size:10;">spoke</tspan></text>
			</g>
		</g>
	</svg>
