<?xml version="1.0" encoding="UTF-8" standalone="no"?>
<!-- Created with Inkscape (http://www.inkscape.org/) -->

<svg
   xmlns:dc="http://purl.org/dc/elements/1.1/"
   xmlns:cc="http://creativecommons.org/ns#"
   xmlns:rdf="http://www.w3.org/1999/02/22-rdf-syntax-ns#"
   xmlns:svg="http://www.w3.org/2000/svg"
   xmlns="http://www.w3.org/2000/svg"
   xmlns:sodipodi="http://sodipodi.sourceforge.net/DTD/sodipodi-0.dtd"
   xmlns:inkscape="http://www.inkscape.org/namespaces/inkscape"
   width="744.09448819"
   height="1052.3622047"
   id="svg1396"
   sodipodi:version="0.32"
   sodipodi:docname="angular-size.svg"
   version="1.1">
  <defs
     id="defs1398" />
  <sodipodi:namedview
     id="base"
     pagecolor="#ffffff"
     bordercolor="#666666"
     borderopacity="1.0"
     inkscape:pageopacity="0.0"
     inkscape:pageshadow="2"
     inkscape:zoom="8.6841558"
     inkscape:cx="78.550278"
     inkscape:cy="311.82953"
     inkscape:document-units="mm"
     inkscape:current-layer="layer1"
     inkscape:window-width="1057"
     inkscape:window-height="838"
     inkscape:window-x="69"
     inkscape:window-y="92"
     showgrid="false"
     inkscape:window-maximized="0" />
  <metadata
     id="metadata1401">
    <rdf:RDF>
      <cc:Work
         rdf:about="">
        <dc:format>image/svg+xml</dc:format>
        <dc:type
           rdf:resource="http://purl.org/dc/dcmitype/StillImage" />
      </cc:Work>
    </rdf:RDF>
  </metadata>
  <g
     inkscape:label="Layer 1"
     inkscape:groupmode="layer"
     id="layer1">
    <rect
       style="fill:#dedede;fill-opacity:1.0000000;fill-rule:evenodd;stroke:none;stroke-width:1.0000000pt;stroke-linecap:butt;stroke-linejoin:miter;stroke-opacity:1.0000000"
       id="rect1495"
       width="724.72729"
       height="175.68079"
       x="30.690418"
       y="638.46234" />
    <path
       style="fill:#18a900;fill-opacity:1.0000000;fill-rule:evenodd;stroke:none;stroke-width:0.25000000pt;stroke-linecap:butt;stroke-linejoin:miter;stroke-opacity:1.0000000"
       d="M 669.31030,740.79338 C 685.92765,795.26139 687.77403,812.80194 687.77403,812.80194 L 698.85227,812.80194 C 698.85227,812.80194 692.38996,763.87305 684.08128,742.63976 C 675.77260,721.40646 670.23348,739.87020 669.31030,740.79338 z "
       id="path2083" />
    <path
       style="fill:#18a900;fill-opacity:1.0000000;fill-rule:evenodd;stroke:none;stroke-width:0.25000000pt;stroke-linecap:butt;stroke-linejoin:miter;stroke-opacity:1.0000000"
       d="M 337.88631,740.32510 C 354.50366,794.79311 356.35004,812.33366 356.35004,812.33366 L 367.42828,812.33366 C 367.42828,812.33366 360.96597,763.40477 352.65729,742.17148 C 344.34861,720.93818 338.80949,739.40192 337.88631,740.32510 z "
       id="path1354" />
    <g
       id="g2244"
       transform="matrix(-1.032359,0.000000,0.000000,1.000000,1210.894,0.000000)">
      <path
         id="path2242"
         d="M 481.52376,692.57328 C 481.52376,692.57328 480.58191,715.41328 480.58191,716.35514 C 480.58191,717.29699 487.17490,740.60792 487.17490,740.60792 L 494.00335,740.60792 L 511.66315,739.19514 L 545.80542,729.30565 L 556.16583,708.11390 L 556.87223,697.98895 L 550.98563,689.04132 L 543.92171,688.80585 L 538.27057,687.39307 L 524.61367,680.32915 L 499.65449,683.62565 L 483.17201,688.09946 L 481.52376,692.57328 z "
         style="fill:#f4f4f4;fill-opacity:1.0000000;fill-rule:evenodd;stroke:none;stroke-width:0.25000000pt;stroke-linecap:butt;stroke-linejoin:miter;stroke-opacity:1.0000000" />
      <path
         id="path20"
         d="M 493.67934,679.37032 L 490.30753,676.41999 L 491.15048,683.37434 C 488.79127,681.26886 487.16164,678.60239 486.25525,675.57704 C 485.58300,673.33373 485.93493,670.82380 483.75253,669.24775 C 479.62628,666.26796 477.58507,670.42350 474.64359,672.46199 C 473.91001,672.97040 472.97033,672.46309 472.21209,672.99402 C 471.56829,673.44477 471.34701,674.61576 470.48889,674.72953 C 468.66748,674.97100 466.40415,671.42542 464.47813,673.35032 C 463.44139,674.38649 464.40402,675.66365 464.25977,676.84147 C 464.09379,678.19651 463.07862,679.46389 462.89777,680.84549 C 462.55625,683.45421 465.72003,687.47362 467.13394,689.48575 C 467.61695,690.17296 469.41518,691.92188 468.91594,692.88010 C 468.48414,693.70936 466.70171,693.37112 466.09152,693.00950 C 464.54513,692.09258 462.87025,688.36968 460.62468,690.22628 C 459.08002,691.50335 460.79226,693.26154 460.77625,694.75420 C 460.68340,703.40120 471.03660,707.18690 475.34513,713.29914 C 471.27536,713.12170 464.76811,709.78382 461.05398,712.80138 C 458.32079,715.02213 460.34927,718.29342 460.29233,721.09645 C 460.26951,722.21926 459.39853,722.88877 459.97492,724.04678 C 460.61189,725.32638 462.71514,726.63949 462.87452,728.04237 C 462.96402,728.83011 461.92605,729.33167 461.43952,729.77548 C 460.50231,730.63065 459.68838,731.81521 459.56189,733.10851 C 459.34331,735.34339 460.81547,735.95516 461.71188,737.74475 C 462.20992,738.73901 461.42140,739.72505 462.16084,740.67548 C 464.52880,743.71896 470.96052,744.27362 474.50218,744.68835 C 480.43804,745.38337 486.16274,745.34270 491.78270,743.01067 C 493.04249,742.48804 496.41641,741.21876 496.64632,739.65045 C 496.74221,738.99611 495.60591,738.64144 495.21478,738.29393 C 493.97922,737.19620 493.32951,735.59691 492.22314,734.37294 C 491.65857,733.74852 490.92036,732.92896 490.80972,732.05482 C 490.71510,731.30523 491.21223,730.70884 490.91720,729.94744 C 489.97119,727.50583 487.00780,725.61425 486.93572,722.99309 C 486.87819,720.90636 484.53415,719.86616 484.48632,718.14401 C 484.45871,717.15965 485.60428,716.90402 485.81186,716.02735 C 486.02576,715.12329 485.34550,714.38065 485.32274,713.50988 C 485.29260,712.36325 486.19709,711.33485 486.20341,710.13807 C 486.20868,709.15224 485.57562,708.29538 485.24982,707.39848 C 486.26242,707.44484 487.84295,708.21698 488.76535,707.60331 C 489.74971,706.94855 489.06797,704.97752 489.04627,704.02667 C 488.99042,701.59391 489.73791,700.09957 490.48708,697.91527 C 490.67927,697.35491 490.49867,696.58825 490.87484,696.11008 C 491.56796,695.22920 494.22979,695.53646 495.36524,694.80541 C 496.10683,694.32787 497.06126,693.82168 497.15104,692.85439 C 497.20646,692.25526 496.46466,690.72257 497.13692,690.36579 C 497.87387,689.97466 498.92250,691.89617 499.58106,692.21375 C 500.67458,692.74123 502.18114,693.58334 503.37329,693.77174 C 504.13068,693.89143 504.74688,693.38798 505.48067,693.33614 C 506.21404,693.28430 506.89367,693.73886 507.58805,693.91124 C 508.34017,692.50035 509.37742,692.95028 510.53838,692.17792 C 511.52885,691.51874 512.72668,690.87809 513.63644,690.12534 C 514.22946,689.63474 514.41701,688.86807 515.17862,688.55618 C 516.88370,687.85758 518.37467,688.78757 520.02159,688.58695 C 521.13745,688.45123 521.72878,687.35097 522.76118,687.11115 C 523.93900,686.83761 524.99121,687.67909 526.34289,687.25298 C 527.23283,686.97248 527.93670,686.00204 528.87343,685.99782 C 530.46387,685.99066 530.60001,687.55644 531.83514,687.95178 C 532.75459,688.24619 534.46831,688.69990 535.40546,688.70011 C 535.98310,688.70033 536.48318,688.11890 537.06418,688.29318 C 537.70651,688.48600 537.93495,689.31484 538.57791,689.56941 C 539.36228,689.87962 540.27836,689.70260 541.09539,690.00500 C 542.41292,690.49307 543.43374,691.45657 544.67773,691.96466 C 545.86060,692.44788 546.33413,690.54744 547.38381,690.99800 C 548.47649,691.46689 547.20658,693.01793 547.66915,693.84275 C 548.09358,694.59909 549.63133,696.04412 550.40369,696.42514 C 551.79266,697.11025 552.65985,696.12989 552.68598,698.33674 C 554.79884,699.06147 554.98197,701.98799 557.74053,701.85143 C 558.79780,701.79917 559.19336,700.59880 559.64033,699.81191 C 560.81815,697.73846 561.93970,694.57802 560.78401,692.22850 C 560.16086,690.96133 558.82689,690.88484 557.74369,690.21026 C 555.66687,688.91654 553.66486,686.94846 551.42155,685.98054 C 549.14874,684.99998 546.46268,686.15356 544.46720,687.23275 C 543.48073,687.76633 542.16931,688.89146 541.18685,687.76781 C 540.25075,686.69726 540.67391,684.48535 540.67391,683.16361 C 540.67391,679.88789 540.67581,676.17174 539.60358,673.04818 C 538.16929,668.86954 535.33782,670.92506 532.24439,669.17766 C 531.05562,668.50612 528.81295,667.50388 527.95566,666.47027 C 526.79618,665.07238 526.67375,663.09351 524.86835,662.18607 C 523.31269,661.40409 521.30140,662.26693 519.60011,661.80428 C 518.30344,661.45167 517.26767,660.02322 515.80999,660.38163 C 514.15570,660.78841 514.16940,662.87148 513.80693,664.19719 C 512.94501,667.35021 512.52480,670.02114 512.21038,673.26722 C 512.09573,674.45309 511.87172,675.64468 510.74912,676.20925 C 508.60971,670.33032 505.72786,663.58286 501.72785,658.72107 C 498.71914,655.06412 494.63040,657.01264 492.94471,660.82618 C 491.37513,664.37669 492.41934,670.21355 493.06483,673.89113 C 493.38136,675.69463 494.11262,677.54554 493.67934,679.37032 z "
         style="fill:#ffffff;stroke:none" />
      <path
         id="path582"
         d="M 525.50078,688.64279 L 525.71152,689.48575 C 527.66000,688.84110 527.76431,689.83262 529.50480,690.11796 L 529.50480,690.75017 L 531.40144,690.11796 L 531.61218,690.75017 C 533.85970,690.70297 533.06775,692.18973 533.26732,693.67332 C 533.33391,694.16750 533.82914,694.49604 533.82978,694.99212 C 533.83041,695.52213 533.33307,695.90398 533.33897,696.43188 C 533.34908,697.34248 534.10289,699.59358 534.77325,700.23338 C 532.07517,700.44644 534.18108,702.01370 533.71956,703.60519 L 533.50882,703.60519 C 532.55882,701.60971 531.00715,704.06270 533.29808,704.23741 C 533.30546,707.05034 532.30256,709.36550 531.53568,712.03471 C 530.86596,714.36547 530.75405,716.92594 530.01394,719.19980 C 529.75010,720.01030 529.44980,721.66607 528.95625,722.31283 C 528.55437,722.83946 527.40480,723.00152 527.51986,723.82108 C 527.64356,724.70154 529.42641,725.86397 530.13111,724.97339 C 530.64405,724.32516 530.16631,723.22996 529.92628,722.57161 L 531.40144,722.36087 C 530.99156,724.24635 530.61771,730.21761 533.71956,729.73670 L 533.93030,731.21187 C 533.05447,731.01251 532.20983,731.71005 533.03319,732.55996 C 534.21079,733.77550 536.82500,732.52245 536.24842,735.21589 L 535.82694,735.21589 C 534.55893,733.04698 533.00242,736.59665 533.71956,737.95549 C 535.18124,737.89037 537.06081,739.88564 534.77325,740.06287 L 533.93030,741.11656 C 533.90733,740.52396 534.21711,739.62095 533.99436,739.07998 C 533.69743,738.35884 532.78304,738.98157 532.61698,739.47048 C 532.21405,740.65757 531.98392,741.96414 532.03366,743.22394 C 532.85469,742.85367 533.35646,742.44716 533.50882,741.53803 L 533.93030,741.53803 C 533.93030,742.19722 534.15094,743.41971 533.59248,743.90420 C 533.19756,744.24686 532.44586,743.95878 532.25324,744.55622 C 531.78203,746.01874 533.33012,750.27649 534.77325,750.38903 C 534.94879,749.26938 535.46574,749.07276 536.45915,749.54608 L 536.45915,749.75681 L 536.03768,750.59977 L 536.88063,750.38903 L 536.66989,749.75681 L 538.14506,749.75681 L 538.35580,749.75681 C 539.12056,748.16448 540.09607,749.47611 541.30529,749.51657 C 542.24033,749.54797 542.65148,749.29867 543.62425,749.54608 C 544.14393,748.57752 544.92745,748.37817 545.94236,748.70312 C 546.66793,746.94135 548.24594,747.01574 549.94639,746.59574 L 549.94639,746.17427 C 549.32450,746.05562 548.65119,746.41261 548.07440,746.24297 C 546.68100,745.83372 548.68680,744.85399 549.10343,744.69910 C 548.96224,743.10339 551.05529,743.49347 552.03185,742.61511 C 553.26108,741.50958 555.13644,739.79270 555.06879,737.95549 C 555.04182,737.22254 554.39380,736.53954 554.16115,735.84811 C 555.02580,735.82071 555.51788,736.63753 556.25609,736.61835 C 557.33760,736.59033 556.58421,735.42768 556.05779,735.21589 L 557.71103,733.21493 L 557.95443,730.79039 L 559.21886,731.00113 C 558.93942,729.27139 558.02882,728.87963 560.27255,729.52597 C 560.50015,728.52686 560.10880,727.54229 561.11550,726.99711 L 560.06181,724.88973 C 563.13795,724.85327 561.54246,722.26014 560.90476,720.46423 C 561.70009,720.22273 563.13205,717.35121 562.58076,716.58729 C 562.14264,715.98015 560.84681,716.44209 560.85145,715.39409 C 560.85714,714.10121 562.41027,711.86570 562.01388,710.62656 C 561.80820,709.98339 560.77200,710.17769 560.27360,709.98170 C 558.85702,709.42409 559.17776,708.19633 559.85107,707.18774 L 559.85107,706.97700 C 558.41300,705.40974 558.70761,703.30531 556.26853,703.60519 C 555.49680,701.07254 551.99118,698.70511 549.96535,697.16525 C 548.46068,696.02200 547.30015,694.32851 545.67157,693.30748 C 541.47978,690.67979 536.38624,689.79869 531.61218,688.99557 C 529.16446,688.58400 528.00751,687.95895 525.50078,688.64279 z "
         style="fill:#ffff00;stroke:none" />
      <path
         id="path594"
         d="M 520.86454,690.53944 L 520.65380,690.32870 L 521.28602,689.90722 L 521.07528,689.06427 L 517.51254,690.81445 L 515.80978,692.72458 L 514.75314,691.59313 L 513.48871,691.59313 C 513.60673,691.96592 513.71589,692.30226 513.92262,692.63965 C 515.53097,695.26313 516.88665,691.74992 518.16899,691.26311 C 519.16473,690.88526 521.20488,691.05048 522.33971,690.96091 L 521.07528,691.59313 L 521.07528,694.33272 C 522.02887,694.59087 524.08841,697.15998 523.81487,695.38641 L 524.65783,695.17567 L 523.40773,699.65217 L 523.66082,700.46730 L 525.92225,699.60117 L 524.86856,700.86560 C 525.31975,701.98377 526.01961,701.44133 526.76521,700.86560 C 526.50558,701.62468 524.48270,703.87852 526.55447,703.39445 C 527.27561,705.56189 525.05085,708.40327 523.84585,709.99034 C 523.48380,710.46724 523.56325,711.47984 523.09141,711.81217 C 522.16901,712.46167 520.94336,710.29823 520.86454,712.66693 L 522.55045,712.66693 C 522.58480,714.28497 521.63837,717.34784 523.81487,717.51390 L 523.39340,719.19980 C 521.97155,719.20086 517.59852,721.76470 519.28717,723.53384 C 520.20535,724.49607 521.46367,723.70770 522.54433,723.90474 C 523.46336,724.07207 525.85693,725.90064 526.13299,726.78637 L 524.23635,726.36490 L 523.60414,728.68301 L 525.07930,728.05080 C 525.49867,728.87984 525.91551,729.07393 526.76521,728.68301 L 527.18668,730.15818 C 525.48434,730.19464 522.84105,731.07447 522.55045,732.89777 L 521.70749,732.89777 C 522.07102,734.09456 522.98583,733.78519 524.02561,733.95146 C 524.32381,733.26277 524.48755,732.26661 525.15159,731.82343 C 525.71931,731.44452 526.64129,731.70605 526.61537,732.48578 C 526.57765,733.61829 524.84117,735.42768 525.31891,736.43227 C 526.03036,737.92872 527.43177,736.15599 528.28294,736.68410 C 530.36714,737.97698 526.57386,740.65335 525.29004,740.69508 L 526.34858,745.40592 L 529.50480,746.59574 L 528.87259,747.86017 C 529.90099,748.45319 530.23859,749.58822 531.09482,750.16017 C 531.53421,750.45394 531.99762,749.99769 532.45513,750.01876 C 533.63716,750.07334 535.03499,751.38498 535.19473,749.33534 L 535.82694,749.33534 L 536.03768,750.81050 L 536.24842,750.81050 L 536.45915,749.75681 L 536.45915,749.54608 C 535.43665,748.84137 534.86619,749.17181 534.77325,750.38903 C 533.54064,750.19072 533.84347,749.44998 533.41294,748.49239 C 532.95816,747.48084 531.93819,745.80484 532.28802,744.61207 C 532.47557,743.97248 533.34571,744.37035 533.71366,743.93159 C 534.15684,743.40327 533.93030,742.18373 533.93030,741.53803 L 533.50882,741.53803 L 532.03366,743.22394 C 532.02354,742.08806 532.25999,740.49952 532.73162,739.47154 C 532.90211,739.10000 533.56846,738.58770 533.88562,739.10422 C 534.16464,739.55857 533.84706,740.56590 533.93030,741.11656 L 534.77325,740.06287 C 537.21760,739.98152 535.38018,737.64507 533.71956,737.95549 C 533.22053,736.65249 534.20573,733.40397 535.82694,735.21589 L 536.24842,735.21589 C 537.00202,732.58778 534.41542,733.66128 533.17965,732.55996 C 532.32426,731.79730 533.08735,731.13874 533.93030,731.21187 L 533.71956,729.73670 C 530.62572,729.89644 531.11990,724.33380 531.40144,722.36087 L 529.92628,722.57161 C 530.10203,723.23607 530.55701,724.17111 530.13027,724.82250 C 529.50375,725.77968 527.75020,724.69922 527.61996,723.82108 C 527.50848,723.06895 528.57776,722.92923 528.95625,722.48121 C 529.44411,721.90336 529.76633,720.17131 530.01394,719.41054 C 530.75405,717.13668 530.86575,714.57621 531.53568,712.24545 C 532.33311,709.47045 533.32211,707.14622 533.29808,704.23741 C 531.41851,703.94364 532.36009,701.95490 533.50882,703.60519 L 533.71956,703.60519 C 534.44302,701.99768 532.14893,700.72145 534.77325,700.23338 C 533.46625,698.55380 534.02365,696.77728 533.95453,694.99212 C 533.93346,694.44842 533.37479,694.13652 533.29977,693.59977 C 533.10694,692.21565 534.00279,690.34324 531.61218,690.75017 L 531.40144,690.11796 L 529.50480,690.75017 L 529.50480,690.11796 C 527.80983,689.61640 527.61069,688.57283 525.71152,689.48575 C 525.00660,687.89446 521.98904,689.72978 520.86454,690.53944 z "
         style="fill:#ffd700;fill-opacity:1.0000000;stroke:none" />
      <path
         id="path674"
         d="M 513.48871,691.59313 C 511.72294,692.12756 512.91234,694.25180 511.54402,694.94681 C 510.50445,695.47471 510.06949,693.70346 509.16437,694.01598 C 508.68810,694.18036 508.39265,694.93269 507.98676,695.23931 C 506.37040,696.46096 504.32077,698.02316 503.23905,699.82013 C 502.60599,700.87171 502.60051,702.13782 501.97968,703.18372 C 501.17719,704.53539 499.85354,704.89954 498.92250,705.98400 C 497.73520,707.36729 498.21337,708.72655 497.46672,710.12880 C 496.94304,711.11252 495.73741,711.11884 495.06347,711.90700 C 493.68419,713.51999 496.12580,716.69350 494.10082,717.72464 L 494.10082,717.93538 C 497.51561,717.42349 497.52910,714.54903 496.41893,711.82397 C 497.07391,711.66445 497.93519,711.37447 498.36426,712.08487 C 499.16127,713.40430 498.17017,715.08704 498.13076,716.46021 C 498.07786,718.31239 499.52015,723.47905 495.78672,721.04418 C 495.34417,720.75547 494.93766,720.41260 494.52229,720.08701 C 493.80937,719.52834 492.90066,719.03922 492.62565,718.14611 C 492.37993,718.38509 494.40196,721.86058 494.71638,722.78235 C 495.88872,726.21780 496.50660,729.71394 497.78114,733.10851 C 498.40282,734.76428 499.77241,736.63943 499.15853,738.37696 L 499.36927,738.37696 C 500.05058,737.34392 500.88005,736.10331 500.63917,734.79442 C 500.36058,733.28068 499.19941,732.16736 499.79074,730.57966 C 497.46946,729.28615 498.31115,728.32708 498.13160,726.15416 C 498.02982,724.92366 496.82734,723.88577 498.73705,723.62530 L 498.73705,726.15416 L 501.05517,726.36490 C 499.99136,727.36906 499.21732,728.22951 500.84443,729.10449 C 500.44213,730.88754 502.22961,730.39905 503.37329,730.36892 L 501.89812,732.26556 L 501.89812,732.47630 C 502.96214,733.07416 504.94961,736.92350 502.74107,735.63737 L 502.53034,735.63737 L 501.68738,736.90180 L 506.74510,738.37696 L 507.37731,740.27360 L 505.48067,739.43065 C 504.51781,740.90076 503.15391,741.08199 501.47665,741.11656 L 501.47665,741.32729 C 502.27408,741.32118 503.24600,741.10054 503.99728,741.42676 C 505.60079,742.12304 506.68609,743.76237 508.43100,744.38658 C 509.71397,744.84556 510.76471,743.91958 512.01355,744.13917 C 512.85924,744.28795 513.56921,744.98908 514.33166,745.35450 C 518.12895,747.17485 519.65512,748.73600 520.44307,752.91788 C 521.74206,751.96177 522.90680,749.57453 524.65783,749.43312 C 525.86978,749.33513 526.97025,750.35847 528.24037,750.38903 L 528.24037,749.54608 C 529.30881,750.61599 529.85399,751.12240 531.40144,751.44272 L 531.19070,752.91788 L 532.89937,751.23788 L 536.24842,751.02124 L 535.82694,749.33534 L 535.19473,749.33534 C 534.87335,751.34999 533.63042,749.96439 532.45513,749.90770 C 531.99256,749.88536 531.52536,750.35868 531.09482,750.02087 C 530.18127,749.30415 530.12964,748.35372 528.87259,747.86017 L 529.50480,746.59574 L 526.47081,745.37178 L 525.29004,740.69508 C 526.61874,740.67949 530.27484,738.41489 528.58746,736.79179 C 527.65157,735.89152 526.25648,737.85707 525.46537,736.43206 C 524.92989,735.46772 526.70283,733.54516 526.76141,732.48557 C 526.81368,731.54336 525.59624,731.32778 524.98847,731.81500 C 524.39440,732.29106 524.24625,733.26277 524.02561,733.95146 C 523.01133,733.69162 522.24698,733.95779 521.70749,732.89777 L 522.55045,732.89777 C 522.99637,731.19564 525.51384,730.23594 527.18668,730.15818 L 526.76521,728.68301 C 525.93110,728.90914 525.60594,728.72116 525.07930,728.05080 L 523.60414,728.68301 L 524.23635,726.36490 L 526.13299,726.78637 C 525.97768,725.87999 523.45767,723.90369 522.54138,723.78820 C 521.46283,723.65249 520.40113,724.42337 519.44901,723.53384 C 517.74267,721.93961 522.00695,719.20465 523.39340,719.19980 L 523.81487,717.51390 C 521.73426,717.18894 522.62442,714.29045 522.55045,712.66693 L 520.86454,712.66693 C 521.03756,710.43437 522.32432,712.62457 523.17760,711.84716 C 523.57084,711.48911 523.52511,710.62825 523.84585,710.16821 C 524.97478,708.55037 527.55484,705.52502 526.55447,703.39445 C 524.64581,703.58222 526.58250,701.76376 526.76521,700.86560 C 525.95787,701.29255 525.46285,701.79854 524.86856,700.86560 L 525.92225,699.60117 L 523.67220,700.34044 L 523.65535,699.47662 L 524.65783,695.17567 L 523.81487,695.38641 C 523.75587,696.73197 522.18671,694.55231 521.07528,694.33272 C 521.42131,693.20464 521.66514,692.68770 521.07528,691.59313 C 521.79664,691.71514 522.10052,691.67679 522.33971,690.96091 C 521.19308,691.01022 519.19508,690.82204 518.16899,691.14425 C 516.79835,691.57458 515.75225,695.16387 514.04359,692.63965 C 513.81915,692.30795 513.65751,691.95370 513.48871,691.59313 z "
         style="fill:#ffbb28;fill-opacity:1.0000000;stroke:none" />
      <path
         id="path1034"
         d="M 560.06181,706.97700 L 560.06181,707.18774 C 566.89035,708.95899 574.46554,708.25239 580.71413,712.13334 C 582.96692,713.53243 582.79918,715.26280 583.95254,717.30316 C 584.51332,718.29532 585.59757,719.08137 585.79418,720.25349 C 586.12125,722.20092 585.43024,723.57093 586.49173,725.52194 C 587.44405,727.27233 590.28227,729.88570 588.93102,732.04639 C 587.14206,734.90674 582.92330,734.10425 580.29266,735.42663 C 581.66330,738.36558 586.08479,740.09953 588.26172,742.59172 C 590.19081,744.80026 588.48152,746.65897 588.99171,749.12460 C 589.54237,751.78749 593.65619,753.31744 593.02692,756.50043 C 592.76540,757.82429 591.46177,758.47252 590.94188,759.66234 C 589.99925,761.81988 593.01365,764.71605 589.14365,765.28799 C 587.23900,765.56954 585.22603,764.75356 583.45373,764.15717 C 579.29418,762.75682 575.38141,761.05047 571.65240,758.72898 C 569.90538,757.64137 567.98872,755.63914 565.96247,755.23600 C 566.44654,757.35181 568.21821,759.19514 569.45503,760.92593 C 572.20285,764.77148 575.11546,768.55127 577.69110,772.51652 C 578.80105,774.22518 581.35393,777.70973 580.82519,779.88308 C 580.56704,780.94414 579.38733,780.89441 578.60760,781.36920 C 577.44137,782.07939 577.04645,784.03735 575.44568,783.72673 C 573.60067,783.36889 572.12551,782.00921 570.59871,781.01874 C 570.13382,780.71718 569.20847,779.96737 568.61841,780.34185 C 567.89705,780.79958 568.41167,782.26652 568.65676,782.84268 C 569.53216,784.90159 570.49882,787.95792 570.03520,790.21851 C 569.35051,793.55744 566.54748,791.59273 564.33537,793.19497 C 563.42308,793.85564 563.72022,795.93794 562.16835,795.70866 C 558.72447,795.19972 555.48416,789.78397 553.91880,787.05744 C 553.30745,785.99237 552.37915,783.15605 550.79840,783.35920 C 549.41217,783.53748 549.94596,785.69987 549.94639,786.63596 C 549.94723,788.89803 550.29579,794.45750 547.83500,795.65681 C 546.37943,796.36616 543.18612,793.24113 541.90336,792.51893 C 540.21071,791.56597 540.33884,795.70613 538.16719,794.08408 C 536.54851,792.87528 535.45225,789.44110 534.36568,787.68965 C 533.99331,787.08947 533.61208,785.87056 532.85764,785.65519 C 532.01912,785.41537 531.48911,786.73332 531.13971,787.26818 C 530.12542,788.82068 528.68608,790.63198 526.76521,791.01636 C 524.84349,791.40096 524.07956,789.83918 522.54728,789.12267 C 521.07380,788.43377 519.67366,789.20781 518.33653,788.06603 C 516.63334,786.61194 516.57307,784.71656 516.42029,782.63194 C 516.18279,779.38995 516.71638,775.17224 515.80683,772.09504 C 513.34984,773.34282 512.33935,776.84213 509.06321,776.86952 C 506.73414,776.88891 505.86126,774.99143 504.00234,774.17144 C 501.77674,773.18983 499.45693,773.55988 497.83151,771.40277 C 496.79911,770.03255 496.96959,768.00883 496.78035,766.40512 C 495.86933,758.68873 499.92835,751.66568 506.11288,747.09119 C 507.37815,746.15530 509.96728,744.54484 511.58891,744.56381 C 512.42554,744.57350 512.67021,745.35365 513.30326,745.73045 C 515.22772,746.87560 517.78840,747.05958 518.96811,749.33850 C 519.68378,750.72094 519.73730,752.46227 520.02159,753.97157 L 524.44709,749.89316 L 528.24037,750.59977 L 528.24037,750.38903 C 527.00966,750.32243 526.07356,749.44745 524.86856,749.38592 C 522.99911,749.29066 521.57599,751.73417 520.44307,752.91788 C 519.91201,748.73811 518.23664,747.12554 514.54240,745.35450 C 513.76942,744.98402 513.07356,744.31177 512.22428,744.13158 C 511.06902,743.88650 510.00163,744.69173 508.85248,744.42957 C 506.78809,743.95899 505.38057,741.34984 503.37308,741.21666 C 500.19262,741.00529 497.03871,742.86652 494.52229,744.61186 C 489.28335,748.24582 483.95989,752.77100 480.49452,758.18633 C 478.38672,761.48038 476.61167,765.80430 477.15242,769.77692 C 477.30921,770.92734 477.33534,772.19535 478.16776,773.10363 C 479.42924,774.47996 481.64746,774.07577 483.08364,775.54588 C 484.65259,777.15170 483.94093,779.96737 486.93572,780.47715 C 489.93495,780.98797 493.62834,779.03991 495.78672,777.11609 C 496.85537,776.16376 498.24097,773.93183 499.79074,773.90170 C 503.90435,773.82183 505.78244,778.04987 509.90617,777.53524 C 512.30668,777.23557 513.38250,775.13641 515.38535,774.20242 C 515.38535,777.18479 515.59904,780.08623 515.80156,783.05342 C 515.94065,785.08851 516.08564,787.25596 517.71190,788.69825 C 519.11457,789.94223 520.65591,789.06704 522.12813,789.87754 C 524.05659,790.93902 524.83864,792.75917 527.39742,791.88165 C 529.80468,791.05619 530.79093,788.71511 532.66587,787.26818 C 533.92187,789.95509 536.29710,795.63616 539.62022,796.05195 C 541.11920,796.23929 541.55480,794.62588 542.99287,794.91333 C 545.11269,795.33691 547.51384,798.27797 549.31523,795.48296 C 550.73434,793.28138 550.57881,789.57639 550.57860,787.05744 C 550.57860,786.56452 550.22519,784.36379 550.86141,784.24008 C 551.79667,784.05843 552.71569,786.42670 553.05878,787.05744 C 554.74068,790.14791 556.91381,792.95937 559.64033,795.20689 C 560.64956,796.03888 562.75272,797.24199 563.91031,795.98156 C 564.58994,795.24124 564.37520,794.23623 565.34185,793.63563 C 566.66908,792.81059 568.09662,793.81876 569.32501,793.01247 C 572.87342,790.68319 569.64006,784.15642 569.12354,781.15678 C 571.08025,781.89836 572.58007,783.49723 574.60273,784.16000 C 577.11768,784.98399 577.03612,783.73073 578.65185,782.36304 C 579.31420,781.80206 580.20415,781.88867 580.87682,781.39744 C 581.92440,780.63246 581.59839,778.83992 581.27301,777.78497 C 579.53737,772.15911 575.14496,767.56923 571.85787,762.82257 C 570.78943,761.27976 569.37011,759.73758 568.70207,757.97560 C 571.12197,759.10684 573.28204,760.79127 575.65642,762.02514 C 577.95705,763.22044 580.58516,764.00797 583.03225,764.85746 C 585.29537,765.64309 587.78334,766.64494 590.19734,765.94760 C 593.83574,764.89707 591.10078,762.48202 591.71339,760.29371 C 592.08893,758.95279 593.63027,758.33701 593.91813,756.92191 C 594.67953,753.17920 590.62240,751.74745 589.87028,748.70312 C 589.42035,746.88150 590.86644,745.35049 590.00663,743.43467 C 589.00499,741.20275 586.65779,739.43571 584.71816,738.04568 C 583.68638,737.30620 582.36189,736.79917 581.76782,735.63737 C 584.77421,735.50819 591.06179,734.41825 590.17985,730.15818 C 589.65996,727.64724 587.30328,725.99484 586.62491,723.62530 C 586.25802,722.34380 586.99834,721.13712 586.77812,719.83202 C 586.54209,718.43209 585.23910,717.64456 584.59530,716.46021 C 584.00670,715.37702 584.12704,714.09763 583.36543,713.08861 C 581.77625,710.98271 578.94457,709.96948 576.49937,709.26540 C 572.57290,708.13458 568.79859,707.28510 564.69805,707.18458 C 563.08780,707.14517 561.68028,706.67670 560.06181,706.97700 z "
         style="fill:#f4f4f4;fill-opacity:1.0000000;stroke:none" />
      <path
         id="path1054"
         d="M 560.90476,720.46423 C 561.29737,722.20177 563.11014,724.79068 560.06181,724.88973 L 561.11550,726.99711 C 559.88605,727.37475 560.43692,728.47733 560.27255,729.52597 C 557.94242,728.43034 558.73838,729.34515 559.21886,731.00113 L 557.95443,730.79039 L 557.56267,733.21493 L 556.05779,735.21589 C 556.44070,735.45382 557.20315,736.67905 556.15346,736.52984 C 555.31304,736.41014 555.17627,735.68162 554.16115,735.84811 C 554.53689,737.71820 555.43843,738.85576 553.86548,740.61605 C 553.13211,741.43688 552.16820,742.54473 551.21060,743.09180 C 550.26144,743.63403 548.72980,743.09012 549.10343,744.69910 C 548.52559,744.85547 546.33750,745.99872 548.06302,746.38184 C 548.64571,746.51103 549.33335,746.14434 549.94639,746.17427 L 549.94639,746.59574 C 548.97952,746.77803 547.30500,746.83493 546.51620,747.44354 C 545.08192,748.55034 545.85723,750.78121 545.73163,752.28567 L 545.94236,752.28567 C 546.41105,750.83685 548.05269,749.12460 549.73565,749.15979 C 550.66121,749.17897 552.19875,751.25095 552.47524,749.96755 C 548.85729,749.14167 551.67633,744.58594 552.26450,748.49239 L 552.47524,748.49239 C 552.47524,746.55444 553.23622,744.85568 555.01253,743.78176 C 555.63631,743.40454 556.84806,744.08733 557.19198,743.36450 C 557.69438,742.30870 557.23666,740.31723 557.67942,739.00918 C 558.01618,738.01470 558.80623,737.24024 559.17144,736.26958 C 559.74233,734.75185 559.93263,732.99682 560.53808,731.42345 C 560.86156,730.58303 561.68597,730.12509 562.01282,729.30701 C 562.72111,727.53365 563.31118,725.09857 563.70252,723.20383 C 564.00619,721.73435 562.98770,720.40038 563.10655,718.98907 C 563.17610,718.16361 563.84435,717.53518 563.72064,716.67095 C 563.55395,715.50746 562.65831,714.74586 562.57381,713.50988 C 562.41744,711.22590 564.33579,708.88734 560.48329,708.87364 L 561.32624,707.39848 C 560.05422,707.30259 557.85981,708.42519 559.67237,709.77096 C 560.24178,710.19370 561.60610,709.90731 561.89397,710.62656 C 562.35506,711.77824 560.79960,714.17286 560.77326,715.39409 C 560.74839,716.54071 562.18268,715.94243 562.55379,716.73796 C 562.90783,717.49746 561.59345,720.11588 560.90476,720.46423 z "
         style="fill:#ffff80;stroke:none" />
      <path
         id="path1074"
         d="M 560.48329,708.87364 C 561.55025,708.88629 562.75799,709.17163 563.13711,710.34902 C 563.40306,711.17511 562.49773,711.84442 562.47118,712.66693 C 562.41891,714.28476 563.41571,715.22697 563.64056,716.67095 C 563.78007,717.56574 563.02858,718.29721 563.06019,719.19980 C 563.10592,720.49816 563.87195,721.64921 563.66122,722.99309 C 562.77843,728.62759 559.47996,733.48110 557.67942,738.79844 C 557.43285,739.52654 557.04931,740.56948 556.99726,741.32729 C 556.95574,741.93485 557.39260,742.58961 557.17533,743.18369 C 556.88283,743.98386 555.29976,743.35122 554.62140,743.92338 C 552.27631,745.90115 552.47524,747.75923 552.47524,750.59977 C 550.24648,749.49297 549.27771,748.51388 547.00006,750.42738 C 546.48881,750.85687 545.94510,752.44878 545.26505,752.45300 C 544.52873,752.45763 543.89842,751.49877 543.20277,751.26654 C 539.85794,750.15047 537.87215,751.42691 536.66989,754.60379 L 536.24842,754.60379 C 535.90871,753.79329 535.53212,752.83127 534.59497,752.58787 C 533.25488,752.23952 532.41846,753.72670 531.39828,753.47803 C 529.31724,752.97078 526.41327,749.63690 524.02561,750.41073 C 522.14351,751.02061 521.70349,753.36043 520.02159,754.18231 C 519.59358,750.81388 518.94472,748.68353 515.80683,746.99636 C 515.06503,746.59743 514.24589,746.62356 513.51063,746.28533 C 512.48054,745.81159 512.31933,744.57392 510.95986,744.86348 C 504.89482,746.15488 498.72483,753.20364 497.03007,759.02929 C 496.45645,761.00158 496.61197,763.54498 496.80458,765.56216 C 496.97233,767.31719 496.71397,770.10863 497.83678,771.58105 C 499.29171,773.48907 501.60688,773.14431 503.58403,774.01444 C 505.54473,774.87742 506.48821,776.67838 508.85248,776.72812 C 512.50414,776.80461 513.26133,773.40752 516.01757,772.09504 C 516.01799,775.54946 516.34590,778.97037 516.43588,782.42120 C 516.48372,784.25146 516.46728,786.52764 517.92580,787.85529 C 519.27431,789.08305 520.82155,788.37645 522.33971,789.03142 C 523.80139,789.66216 524.58365,791.21088 526.34373,791.02184 C 528.44142,790.79656 530.01858,789.18463 531.09271,787.47892 C 531.44085,786.92636 531.98540,785.39135 532.87345,785.77636 C 533.58174,786.08341 533.90311,787.07746 534.27359,787.68965 C 535.05459,788.98021 536.04632,790.11356 536.70782,791.48294 C 537.10949,792.31472 537.20706,793.43311 538.00597,794.00905 C 539.97279,795.42669 540.26740,791.82560 541.73077,792.51345 C 543.34544,793.27210 545.75165,796.12107 547.62511,795.60624 C 548.89291,795.25768 549.15654,793.86217 549.34452,792.74737 C 549.72869,790.47013 549.96746,788.32419 549.91140,786.00375 C 549.89159,785.17850 549.61658,782.82097 551.20829,783.34993 C 552.61623,783.81776 553.56413,786.48655 554.22690,787.68965 C 555.67741,790.32325 558.68991,794.69775 561.74771,795.52574 C 563.68271,796.04984 563.22625,793.97344 564.32462,793.18675 C 565.83856,792.10272 568.57858,793.05926 569.46768,791.67071 C 570.71988,789.71506 569.84827,785.94706 569.17644,783.89637 C 568.88941,783.02075 567.81318,781.52894 568.49744,780.61139 C 569.06770,779.84641 570.28787,780.88197 570.80945,781.22716 C 572.13373,782.10362 574.91863,784.51826 576.65469,783.46899 C 577.31472,783.07007 577.60427,782.18792 578.20509,781.69058 C 578.94309,781.07965 580.34471,781.05056 580.69896,780.08012 C 581.49576,777.89813 578.94773,774.22876 577.81754,772.51652 C 575.21008,768.56687 572.32213,764.79782 569.60382,760.92593 C 568.35077,759.14098 566.62862,757.34064 565.96247,755.23600 C 568.06501,755.90741 569.95554,757.79900 571.86314,758.93382 C 575.45980,761.07344 579.05773,762.68707 583.03225,764.01682 C 585.13921,764.72153 587.52476,765.75583 589.77566,765.12825 C 592.86992,764.26570 590.15773,761.73453 590.86159,759.87224 C 591.29192,758.73383 592.52284,758.10351 592.84548,756.92191 C 593.79801,753.43461 589.82118,751.89623 588.99993,749.12460 C 588.30450,746.77761 590.24687,744.81733 588.41050,742.59994 C 586.05592,739.75687 582.18825,738.35505 580.08192,735.42663 C 582.69929,734.49749 587.66048,734.70464 589.10593,731.84324 C 590.27911,729.52091 587.05756,726.81545 586.27488,724.88973 C 585.53118,723.06031 586.24643,721.29559 585.61548,719.62128 C 585.25596,718.66706 584.36601,717.97647 583.86804,717.09242 C 583.23140,715.96181 583.34267,714.55704 582.52248,713.51831 C 580.54660,711.01558 576.65132,710.29591 573.75978,709.47635 C 570.55235,708.56723 567.35103,708.49115 564.06583,708.22183 C 562.55042,708.09749 561.34984,707.07605 560.48329,708.87364 z "
         style="fill:#ffffff;stroke:none" />
      <path
         id="path2280"
         d="M 550.43804,747.79000 L 550.50842,747.93035 L 550.43804,747.79000 M 491.15048,747.86017 L 491.36122,748.07091 L 491.15048,747.86017 z "
         style="fill:#ff8080;stroke:none" />
      <path
         id="path2344"
         d="M 531.82292,753.76084 C 533.80533,752.18915 534.92351,752.36828 536.24842,754.60379 L 536.66989,754.60379 C 537.27429,753.51385 537.94212,751.88190 539.00761,751.17845 C 540.85852,749.95638 543.65923,751.70551 545.09941,752.70715 L 542.70859,749.19119 L 541.09539,749.33239 L 538.67464,749.07676 L 537.00918,752.09242 L 532.96723,751.45705 L 531.82292,753.76084 z "
         style="fill:#ffff80;stroke:none" />
      <path
         id="path2400"
         d="M 502.95181,749.75681 L 503.16255,749.96755 L 502.95181,749.75681 M 523.39340,750.38903 L 523.39340,750.59977 C 525.83922,750.06449 528.97374,752.03026 530.97997,753.33936 C 529.85441,751.20458 525.64598,749.15136 523.39340,750.38903 z "
         style="fill:#ffff80;stroke:none" />
      <path
         id="path2446"
         d="M 528.66185,750.59977 L 531.82292,753.76084 L 532.66587,751.23198 L 532.45513,751.23198 L 531.19070,752.91788 L 531.40144,751.44272 L 528.66185,750.59977 z "
         style="fill:#808080;stroke:none" />
      <path
         id="path2468"
         d="M 545.73163,751.02124 L 545.73163,751.65346 L 545.94236,751.65346 L 545.73163,751.02124 M 487.98941,751.23198 L 488.20015,751.44272 L 487.98941,751.23198 z "
         style="fill:#ff8080;stroke:none" />
      <path
         id="path2518"
         d="M 532.24439,752.49641 L 532.45513,752.70715 L 532.24439,752.49641 z "
         style="fill:#ff8080;stroke:none" />
      <path
         id="path2524"
         d="M 530.55849,752.70715 L 530.76923,752.91788 L 530.55849,752.70715 z "
         style="fill:#ff8080;stroke:none" />
      <path
         id="path2538"
         d="M 532.03366,753.12862 L 532.24439,753.33936 L 532.03366,753.12862 z "
         style="fill:#ff8080;stroke:none" />
      <path
         id="path2542"
         d="M 519.81085,753.33936 L 520.02159,753.55010 L 519.81085,753.33936 M 530.97997,753.33936 L 531.19070,753.55010 L 530.97997,753.33936 z "
         style="fill:#ff8080;stroke:none" />
      <path
         id="path2548"
         d="M 531.19070,753.55010 L 531.40144,753.76084 L 531.19070,753.55010 z "
         style="fill:#ff8080;stroke:none" />
    </g>
    <g
       id="g13893"
       transform="matrix(1.341904,0.137324,-0.168367,1.54374,-109.18235,-525.50028)">
      <path
         inkscape:connector-curvature="0"
         id="path2046"
         d="m 235.49115,796.65416 c 6.81951,3.00521 12.13641,3.00521 15.14162,2.65845 3.0052,-0.34675 9.24678,-4.16105 9.24678,-4.16105 0,0 1.27144,-4.6234 1.27144,-5.20132 0,-0.57792 -1.61819,-3.69871 -1.61819,-3.69871 l -3.8143,-0.34676 -17.68448,5.43249 -2.65845,3.35196 -0.92468,1.27143 1.04026,0.69351 z"
         style="fill:#ffffff;fill-opacity:1;fill-rule:evenodd;stroke:none" />
      <path
         inkscape:connector-curvature="0"
         id="path1309"
         d="m 240.80805,793.64895 c 6.93509,8.09094 12.94551,3.69872 13.52343,1.84936 0.57792,-1.84936 0.80909,-3.8143 0.69351,-5.66365 -0.11559,-1.84936 -0.34676,-3.1208 -0.34676,-3.1208 0,0 -6.35716,1.04027 -8.78444,2.3117 -2.42728,1.27143 -4.85457,4.39223 -5.08574,4.62339 z"
         style="fill:#30805a;fill-opacity:1;fill-rule:evenodd;stroke:none" />
      <path
         inkscape:connector-curvature="0"
         id="path2040"
         d="m 224.74176,791.91518 c 6.93509,-5.08573 12.48316,-9.01562 18.95591,-10.6338 6.47276,-1.61819 16.64422,-1.50261 21.15203,-1.15585 4.50781,0.34675 10.17147,1.61819 10.17147,1.61819 0,0 -3.12079,10.51822 -5.31691,12.25199 -2.19611,1.73377 -10.6338,2.42728 -10.6338,2.42728 0,0 1.61819,-8.20652 1.38702,-9.59354 -0.23117,-1.38702 -0.69351,-2.42728 -0.69351,-2.42728 0,0 -12.82992,-1.50261 -15.02603,-0.57793 -2.19611,0.92468 -12.36758,6.126 -15.14162,7.6286 -2.77403,1.50261 -3.46754,1.61819 -3.92988,1.38702 -0.46234,-0.23117 -0.80909,-0.69351 -0.92468,-0.92468 z"
         style="fill:#c3c3c3;fill-opacity:1;fill-rule:evenodd;stroke:none" />
      <path
         inkscape:connector-curvature="0"
         sodipodi:nodetypes="cssssc"
         id="path2042"
         d="m 240.57688,777.69825 c 8.55328,-1.73378 20.11177,-4.39223 24.61957,-3.58313 4.50781,0.80909 11.67407,3.46754 11.09615,1.84935 -0.57793,-1.61818 -4.73898,-5.3169 -6.58834,-6.12599 -1.84935,-0.8091 -11.40706,-1.67398 -14.79486,-0.57793 -3.92988,1.27144 -14.33252,8.55328 -14.33252,8.4377 z"
         style="fill:#353535;fill-opacity:1;fill-rule:evenodd;stroke:none" />
      <path
         inkscape:connector-curvature="0"
         sodipodi:nodetypes="cscccsccc"
         id="path2044"
         d="m 228.32489,795.15156 c 8.32211,-4.50781 14.33252,-6.81951 18.37799,-8.55328 4.04547,-1.73377 9.70913,-2.3117 9.70913,-2.3117 l 2.42728,1.04027 0.34675,1.04026 c 0,0 -9.74672,1.09875 -12.05842,2.13902 -2.3117,1.04026 -14.29492,6.76101 -14.29492,6.76101 l -2.77404,0.69351 -1.73377,-0.80909 z"
         style="fill:#9d9d9d;fill-opacity:1;fill-rule:evenodd;stroke:none" />
      <path
         inkscape:connector-curvature="0"
         id="path2048"
         d="m 232.91793,796.78562 c 3.74996,1.53408 16.7896,3.15338 19.60207,2.64202 2.81247,-0.51136 8.18174,-4.34655 8.18174,-4.34655 l -0.25568,2.47157 c 0,0 -3.57951,2.38634 -6.1363,3.15338 -2.5568,0.76703 -17.47142,-0.0852 -19.00549,-0.85227 -1.53408,-0.76703 -3.74997,-1.78975 -3.74997,-1.78975 l -0.59658,-1.02272 1.96021,-0.25568 z"
         style="fill:#9d9d9d;fill-opacity:1;fill-rule:evenodd;stroke:none" />
    </g>
    <path
       sodipodi:type="arc"
       style="fill:#000000;fill-opacity:1;fill-rule:evenodd;stroke:none"
       id="path13901"
       sodipodi:cx="95.175934"
       sodipodi:cy="737.2691"
       sodipodi:rx="0.67500663"
       sodipodi:ry="1.215012"
       d="m 95.85094,737.2691 a 0.67500663,1.215012 0 1 1 -1.350013,0 0.67500663,1.215012 0 1 1 1.350013,0 z"
       transform="matrix(2.9945178,0.30644455,-0.33206552,3.0446752,55.33889,-1542.3623)" />
    <g
       id="g13931"
       transform="matrix(-1.032359,0.000000,0.000000,1.000000,878.3398,-4.863000)">
      <path
         id="path13933"
         d="M 481.52376,692.57328 C 481.52376,692.57328 480.58191,715.41328 480.58191,716.35514 C 480.58191,717.29699 487.17490,740.60792 487.17490,740.60792 L 494.00335,740.60792 L 511.66315,739.19514 L 545.80542,729.30565 L 556.16583,708.11390 L 556.87223,697.98895 L 550.98563,689.04132 L 543.92171,688.80585 L 538.27057,687.39307 L 524.61367,680.32915 L 499.65449,683.62565 L 483.17201,688.09946 L 481.52376,692.57328 z "
         style="fill:#f4f4f4;fill-opacity:1.0000000;fill-rule:evenodd;stroke:none;stroke-width:0.25000000pt;stroke-linecap:butt;stroke-linejoin:miter;stroke-opacity:1.0000000" />
      <path
         id="path13935"
         d="M 493.67934,679.37032 L 490.30753,676.41999 L 491.15048,683.37434 C 488.79127,681.26886 487.16164,678.60239 486.25525,675.57704 C 485.58300,673.33373 485.93493,670.82380 483.75253,669.24775 C 479.62628,666.26796 477.58507,670.42350 474.64359,672.46199 C 473.91001,672.97040 472.97033,672.46309 472.21209,672.99402 C 471.56829,673.44477 471.34701,674.61576 470.48889,674.72953 C 468.66748,674.97100 466.40415,671.42542 464.47813,673.35032 C 463.44139,674.38649 464.40402,675.66365 464.25977,676.84147 C 464.09379,678.19651 463.07862,679.46389 462.89777,680.84549 C 462.55625,683.45421 465.72003,687.47362 467.13394,689.48575 C 467.61695,690.17296 469.41518,691.92188 468.91594,692.88010 C 468.48414,693.70936 466.70171,693.37112 466.09152,693.00950 C 464.54513,692.09258 462.87025,688.36968 460.62468,690.22628 C 459.08002,691.50335 460.79226,693.26154 460.77625,694.75420 C 460.68340,703.40120 471.03660,707.18690 475.34513,713.29914 C 471.27536,713.12170 464.76811,709.78382 461.05398,712.80138 C 458.32079,715.02213 460.34927,718.29342 460.29233,721.09645 C 460.26951,722.21926 459.39853,722.88877 459.97492,724.04678 C 460.61189,725.32638 462.71514,726.63949 462.87452,728.04237 C 462.96402,728.83011 461.92605,729.33167 461.43952,729.77548 C 460.50231,730.63065 459.68838,731.81521 459.56189,733.10851 C 459.34331,735.34339 460.81547,735.95516 461.71188,737.74475 C 462.20992,738.73901 461.42140,739.72505 462.16084,740.67548 C 464.52880,743.71896 470.96052,744.27362 474.50218,744.68835 C 480.43804,745.38337 486.16274,745.34270 491.78270,743.01067 C 493.04249,742.48804 496.41641,741.21876 496.64632,739.65045 C 496.74221,738.99611 495.60591,738.64144 495.21478,738.29393 C 493.97922,737.19620 493.32951,735.59691 492.22314,734.37294 C 491.65857,733.74852 490.92036,732.92896 490.80972,732.05482 C 490.71510,731.30523 491.21223,730.70884 490.91720,729.94744 C 489.97119,727.50583 487.00780,725.61425 486.93572,722.99309 C 486.87819,720.90636 484.53415,719.86616 484.48632,718.14401 C 484.45871,717.15965 485.60428,716.90402 485.81186,716.02735 C 486.02576,715.12329 485.34550,714.38065 485.32274,713.50988 C 485.29260,712.36325 486.19709,711.33485 486.20341,710.13807 C 486.20868,709.15224 485.57562,708.29538 485.24982,707.39848 C 486.26242,707.44484 487.84295,708.21698 488.76535,707.60331 C 489.74971,706.94855 489.06797,704.97752 489.04627,704.02667 C 488.99042,701.59391 489.73791,700.09957 490.48708,697.91527 C 490.67927,697.35491 490.49867,696.58825 490.87484,696.11008 C 491.56796,695.22920 494.22979,695.53646 495.36524,694.80541 C 496.10683,694.32787 497.06126,693.82168 497.15104,692.85439 C 497.20646,692.25526 496.46466,690.72257 497.13692,690.36579 C 497.87387,689.97466 498.92250,691.89617 499.58106,692.21375 C 500.67458,692.74123 502.18114,693.58334 503.37329,693.77174 C 504.13068,693.89143 504.74688,693.38798 505.48067,693.33614 C 506.21404,693.28430 506.89367,693.73886 507.58805,693.91124 C 508.34017,692.50035 509.37742,692.95028 510.53838,692.17792 C 511.52885,691.51874 512.72668,690.87809 513.63644,690.12534 C 514.22946,689.63474 514.41701,688.86807 515.17862,688.55618 C 516.88370,687.85758 518.37467,688.78757 520.02159,688.58695 C 521.13745,688.45123 521.72878,687.35097 522.76118,687.11115 C 523.93900,686.83761 524.99121,687.67909 526.34289,687.25298 C 527.23283,686.97248 527.93670,686.00204 528.87343,685.99782 C 530.46387,685.99066 530.60001,687.55644 531.83514,687.95178 C 532.75459,688.24619 534.46831,688.69990 535.40546,688.70011 C 535.98310,688.70033 536.48318,688.11890 537.06418,688.29318 C 537.70651,688.48600 537.93495,689.31484 538.57791,689.56941 C 539.36228,689.87962 540.27836,689.70260 541.09539,690.00500 C 542.41292,690.49307 543.43374,691.45657 544.67773,691.96466 C 545.86060,692.44788 546.33413,690.54744 547.38381,690.99800 C 548.47649,691.46689 547.20658,693.01793 547.66915,693.84275 C 548.09358,694.59909 549.63133,696.04412 550.40369,696.42514 C 551.79266,697.11025 552.65985,696.12989 552.68598,698.33674 C 554.79884,699.06147 554.98197,701.98799 557.74053,701.85143 C 558.79780,701.79917 559.19336,700.59880 559.64033,699.81191 C 560.81815,697.73846 561.93970,694.57802 560.78401,692.22850 C 560.16086,690.96133 558.82689,690.88484 557.74369,690.21026 C 555.66687,688.91654 553.66486,686.94846 551.42155,685.98054 C 549.14874,684.99998 546.46268,686.15356 544.46720,687.23275 C 543.48073,687.76633 542.16931,688.89146 541.18685,687.76781 C 540.25075,686.69726 540.67391,684.48535 540.67391,683.16361 C 540.67391,679.88789 540.67581,676.17174 539.60358,673.04818 C 538.16929,668.86954 535.33782,670.92506 532.24439,669.17766 C 531.05562,668.50612 528.81295,667.50388 527.95566,666.47027 C 526.79618,665.07238 526.67375,663.09351 524.86835,662.18607 C 523.31269,661.40409 521.30140,662.26693 519.60011,661.80428 C 518.30344,661.45167 517.26767,660.02322 515.80999,660.38163 C 514.15570,660.78841 514.16940,662.87148 513.80693,664.19719 C 512.94501,667.35021 512.52480,670.02114 512.21038,673.26722 C 512.09573,674.45309 511.87172,675.64468 510.74912,676.20925 C 508.60971,670.33032 505.72786,663.58286 501.72785,658.72107 C 498.71914,655.06412 494.63040,657.01264 492.94471,660.82618 C 491.37513,664.37669 492.41934,670.21355 493.06483,673.89113 C 493.38136,675.69463 494.11262,677.54554 493.67934,679.37032 z "
         style="fill:#ffffff;stroke:none" />
      <path
         id="path13937"
         d="M 525.50078,688.64279 L 525.71152,689.48575 C 527.66000,688.84110 527.76431,689.83262 529.50480,690.11796 L 529.50480,690.75017 L 531.40144,690.11796 L 531.61218,690.75017 C 533.85970,690.70297 533.06775,692.18973 533.26732,693.67332 C 533.33391,694.16750 533.82914,694.49604 533.82978,694.99212 C 533.83041,695.52213 533.33307,695.90398 533.33897,696.43188 C 533.34908,697.34248 534.10289,699.59358 534.77325,700.23338 C 532.07517,700.44644 534.18108,702.01370 533.71956,703.60519 L 533.50882,703.60519 C 532.55882,701.60971 531.00715,704.06270 533.29808,704.23741 C 533.30546,707.05034 532.30256,709.36550 531.53568,712.03471 C 530.86596,714.36547 530.75405,716.92594 530.01394,719.19980 C 529.75010,720.01030 529.44980,721.66607 528.95625,722.31283 C 528.55437,722.83946 527.40480,723.00152 527.51986,723.82108 C 527.64356,724.70154 529.42641,725.86397 530.13111,724.97339 C 530.64405,724.32516 530.16631,723.22996 529.92628,722.57161 L 531.40144,722.36087 C 530.99156,724.24635 530.61771,730.21761 533.71956,729.73670 L 533.93030,731.21187 C 533.05447,731.01251 532.20983,731.71005 533.03319,732.55996 C 534.21079,733.77550 536.82500,732.52245 536.24842,735.21589 L 535.82694,735.21589 C 534.55893,733.04698 533.00242,736.59665 533.71956,737.95549 C 535.18124,737.89037 537.06081,739.88564 534.77325,740.06287 L 533.93030,741.11656 C 533.90733,740.52396 534.21711,739.62095 533.99436,739.07998 C 533.69743,738.35884 532.78304,738.98157 532.61698,739.47048 C 532.21405,740.65757 531.98392,741.96414 532.03366,743.22394 C 532.85469,742.85367 533.35646,742.44716 533.50882,741.53803 L 533.93030,741.53803 C 533.93030,742.19722 534.15094,743.41971 533.59248,743.90420 C 533.19756,744.24686 532.44586,743.95878 532.25324,744.55622 C 531.78203,746.01874 533.33012,750.27649 534.77325,750.38903 C 534.94879,749.26938 535.46574,749.07276 536.45915,749.54608 L 536.45915,749.75681 L 536.03768,750.59977 L 536.88063,750.38903 L 536.66989,749.75681 L 538.14506,749.75681 L 538.35580,749.75681 C 539.12056,748.16448 540.09607,749.47611 541.30529,749.51657 C 542.24033,749.54797 542.65148,749.29867 543.62425,749.54608 C 544.14393,748.57752 544.92745,748.37817 545.94236,748.70312 C 546.66793,746.94135 548.24594,747.01574 549.94639,746.59574 L 549.94639,746.17427 C 549.32450,746.05562 548.65119,746.41261 548.07440,746.24297 C 546.68100,745.83372 548.68680,744.85399 549.10343,744.69910 C 548.96224,743.10339 551.05529,743.49347 552.03185,742.61511 C 553.26108,741.50958 555.13644,739.79270 555.06879,737.95549 C 555.04182,737.22254 554.39380,736.53954 554.16115,735.84811 C 555.02580,735.82071 555.51788,736.63753 556.25609,736.61835 C 557.33760,736.59033 556.58421,735.42768 556.05779,735.21589 L 557.71103,733.21493 L 557.95443,730.79039 L 559.21886,731.00113 C 558.93942,729.27139 558.02882,728.87963 560.27255,729.52597 C 560.50015,728.52686 560.10880,727.54229 561.11550,726.99711 L 560.06181,724.88973 C 563.13795,724.85327 561.54246,722.26014 560.90476,720.46423 C 561.70009,720.22273 563.13205,717.35121 562.58076,716.58729 C 562.14264,715.98015 560.84681,716.44209 560.85145,715.39409 C 560.85714,714.10121 562.41027,711.86570 562.01388,710.62656 C 561.80820,709.98339 560.77200,710.17769 560.27360,709.98170 C 558.85702,709.42409 559.17776,708.19633 559.85107,707.18774 L 559.85107,706.97700 C 558.41300,705.40974 558.70761,703.30531 556.26853,703.60519 C 555.49680,701.07254 551.99118,698.70511 549.96535,697.16525 C 548.46068,696.02200 547.30015,694.32851 545.67157,693.30748 C 541.47978,690.67979 536.38624,689.79869 531.61218,688.99557 C 529.16446,688.58400 528.00751,687.95895 525.50078,688.64279 z "
         style="fill:#ffff00;stroke:none" />
      <path
         id="path13939"
         d="M 520.86454,690.53944 L 520.65380,690.32870 L 521.28602,689.90722 L 521.07528,689.06427 L 517.51254,690.81445 L 515.80978,692.72458 L 514.75314,691.59313 L 513.48871,691.59313 C 513.60673,691.96592 513.71589,692.30226 513.92262,692.63965 C 515.53097,695.26313 516.88665,691.74992 518.16899,691.26311 C 519.16473,690.88526 521.20488,691.05048 522.33971,690.96091 L 521.07528,691.59313 L 521.07528,694.33272 C 522.02887,694.59087 524.08841,697.15998 523.81487,695.38641 L 524.65783,695.17567 L 523.40773,699.65217 L 523.66082,700.46730 L 525.92225,699.60117 L 524.86856,700.86560 C 525.31975,701.98377 526.01961,701.44133 526.76521,700.86560 C 526.50558,701.62468 524.48270,703.87852 526.55447,703.39445 C 527.27561,705.56189 525.05085,708.40327 523.84585,709.99034 C 523.48380,710.46724 523.56325,711.47984 523.09141,711.81217 C 522.16901,712.46167 520.94336,710.29823 520.86454,712.66693 L 522.55045,712.66693 C 522.58480,714.28497 521.63837,717.34784 523.81487,717.51390 L 523.39340,719.19980 C 521.97155,719.20086 517.59852,721.76470 519.28717,723.53384 C 520.20535,724.49607 521.46367,723.70770 522.54433,723.90474 C 523.46336,724.07207 525.85693,725.90064 526.13299,726.78637 L 524.23635,726.36490 L 523.60414,728.68301 L 525.07930,728.05080 C 525.49867,728.87984 525.91551,729.07393 526.76521,728.68301 L 527.18668,730.15818 C 525.48434,730.19464 522.84105,731.07447 522.55045,732.89777 L 521.70749,732.89777 C 522.07102,734.09456 522.98583,733.78519 524.02561,733.95146 C 524.32381,733.26277 524.48755,732.26661 525.15159,731.82343 C 525.71931,731.44452 526.64129,731.70605 526.61537,732.48578 C 526.57765,733.61829 524.84117,735.42768 525.31891,736.43227 C 526.03036,737.92872 527.43177,736.15599 528.28294,736.68410 C 530.36714,737.97698 526.57386,740.65335 525.29004,740.69508 L 526.34858,745.40592 L 529.50480,746.59574 L 528.87259,747.86017 C 529.90099,748.45319 530.23859,749.58822 531.09482,750.16017 C 531.53421,750.45394 531.99762,749.99769 532.45513,750.01876 C 533.63716,750.07334 535.03499,751.38498 535.19473,749.33534 L 535.82694,749.33534 L 536.03768,750.81050 L 536.24842,750.81050 L 536.45915,749.75681 L 536.45915,749.54608 C 535.43665,748.84137 534.86619,749.17181 534.77325,750.38903 C 533.54064,750.19072 533.84347,749.44998 533.41294,748.49239 C 532.95816,747.48084 531.93819,745.80484 532.28802,744.61207 C 532.47557,743.97248 533.34571,744.37035 533.71366,743.93159 C 534.15684,743.40327 533.93030,742.18373 533.93030,741.53803 L 533.50882,741.53803 L 532.03366,743.22394 C 532.02354,742.08806 532.25999,740.49952 532.73162,739.47154 C 532.90211,739.10000 533.56846,738.58770 533.88562,739.10422 C 534.16464,739.55857 533.84706,740.56590 533.93030,741.11656 L 534.77325,740.06287 C 537.21760,739.98152 535.38018,737.64507 533.71956,737.95549 C 533.22053,736.65249 534.20573,733.40397 535.82694,735.21589 L 536.24842,735.21589 C 537.00202,732.58778 534.41542,733.66128 533.17965,732.55996 C 532.32426,731.79730 533.08735,731.13874 533.93030,731.21187 L 533.71956,729.73670 C 530.62572,729.89644 531.11990,724.33380 531.40144,722.36087 L 529.92628,722.57161 C 530.10203,723.23607 530.55701,724.17111 530.13027,724.82250 C 529.50375,725.77968 527.75020,724.69922 527.61996,723.82108 C 527.50848,723.06895 528.57776,722.92923 528.95625,722.48121 C 529.44411,721.90336 529.76633,720.17131 530.01394,719.41054 C 530.75405,717.13668 530.86575,714.57621 531.53568,712.24545 C 532.33311,709.47045 533.32211,707.14622 533.29808,704.23741 C 531.41851,703.94364 532.36009,701.95490 533.50882,703.60519 L 533.71956,703.60519 C 534.44302,701.99768 532.14893,700.72145 534.77325,700.23338 C 533.46625,698.55380 534.02365,696.77728 533.95453,694.99212 C 533.93346,694.44842 533.37479,694.13652 533.29977,693.59977 C 533.10694,692.21565 534.00279,690.34324 531.61218,690.75017 L 531.40144,690.11796 L 529.50480,690.75017 L 529.50480,690.11796 C 527.80983,689.61640 527.61069,688.57283 525.71152,689.48575 C 525.00660,687.89446 521.98904,689.72978 520.86454,690.53944 z "
         style="fill:#ffd700;fill-opacity:1.0000000;stroke:none" />
      <path
         id="path13941"
         d="M 513.48871,691.59313 C 511.72294,692.12756 512.91234,694.25180 511.54402,694.94681 C 510.50445,695.47471 510.06949,693.70346 509.16437,694.01598 C 508.68810,694.18036 508.39265,694.93269 507.98676,695.23931 C 506.37040,696.46096 504.32077,698.02316 503.23905,699.82013 C 502.60599,700.87171 502.60051,702.13782 501.97968,703.18372 C 501.17719,704.53539 499.85354,704.89954 498.92250,705.98400 C 497.73520,707.36729 498.21337,708.72655 497.46672,710.12880 C 496.94304,711.11252 495.73741,711.11884 495.06347,711.90700 C 493.68419,713.51999 496.12580,716.69350 494.10082,717.72464 L 494.10082,717.93538 C 497.51561,717.42349 497.52910,714.54903 496.41893,711.82397 C 497.07391,711.66445 497.93519,711.37447 498.36426,712.08487 C 499.16127,713.40430 498.17017,715.08704 498.13076,716.46021 C 498.07786,718.31239 499.52015,723.47905 495.78672,721.04418 C 495.34417,720.75547 494.93766,720.41260 494.52229,720.08701 C 493.80937,719.52834 492.90066,719.03922 492.62565,718.14611 C 492.37993,718.38509 494.40196,721.86058 494.71638,722.78235 C 495.88872,726.21780 496.50660,729.71394 497.78114,733.10851 C 498.40282,734.76428 499.77241,736.63943 499.15853,738.37696 L 499.36927,738.37696 C 500.05058,737.34392 500.88005,736.10331 500.63917,734.79442 C 500.36058,733.28068 499.19941,732.16736 499.79074,730.57966 C 497.46946,729.28615 498.31115,728.32708 498.13160,726.15416 C 498.02982,724.92366 496.82734,723.88577 498.73705,723.62530 L 498.73705,726.15416 L 501.05517,726.36490 C 499.99136,727.36906 499.21732,728.22951 500.84443,729.10449 C 500.44213,730.88754 502.22961,730.39905 503.37329,730.36892 L 501.89812,732.26556 L 501.89812,732.47630 C 502.96214,733.07416 504.94961,736.92350 502.74107,735.63737 L 502.53034,735.63737 L 501.68738,736.90180 L 506.74510,738.37696 L 507.37731,740.27360 L 505.48067,739.43065 C 504.51781,740.90076 503.15391,741.08199 501.47665,741.11656 L 501.47665,741.32729 C 502.27408,741.32118 503.24600,741.10054 503.99728,741.42676 C 505.60079,742.12304 506.68609,743.76237 508.43100,744.38658 C 509.71397,744.84556 510.76471,743.91958 512.01355,744.13917 C 512.85924,744.28795 513.56921,744.98908 514.33166,745.35450 C 518.12895,747.17485 519.65512,748.73600 520.44307,752.91788 C 521.74206,751.96177 522.90680,749.57453 524.65783,749.43312 C 525.86978,749.33513 526.97025,750.35847 528.24037,750.38903 L 528.24037,749.54608 C 529.30881,750.61599 529.85399,751.12240 531.40144,751.44272 L 531.19070,752.91788 L 532.89937,751.23788 L 536.24842,751.02124 L 535.82694,749.33534 L 535.19473,749.33534 C 534.87335,751.34999 533.63042,749.96439 532.45513,749.90770 C 531.99256,749.88536 531.52536,750.35868 531.09482,750.02087 C 530.18127,749.30415 530.12964,748.35372 528.87259,747.86017 L 529.50480,746.59574 L 526.47081,745.37178 L 525.29004,740.69508 C 526.61874,740.67949 530.27484,738.41489 528.58746,736.79179 C 527.65157,735.89152 526.25648,737.85707 525.46537,736.43206 C 524.92989,735.46772 526.70283,733.54516 526.76141,732.48557 C 526.81368,731.54336 525.59624,731.32778 524.98847,731.81500 C 524.39440,732.29106 524.24625,733.26277 524.02561,733.95146 C 523.01133,733.69162 522.24698,733.95779 521.70749,732.89777 L 522.55045,732.89777 C 522.99637,731.19564 525.51384,730.23594 527.18668,730.15818 L 526.76521,728.68301 C 525.93110,728.90914 525.60594,728.72116 525.07930,728.05080 L 523.60414,728.68301 L 524.23635,726.36490 L 526.13299,726.78637 C 525.97768,725.87999 523.45767,723.90369 522.54138,723.78820 C 521.46283,723.65249 520.40113,724.42337 519.44901,723.53384 C 517.74267,721.93961 522.00695,719.20465 523.39340,719.19980 L 523.81487,717.51390 C 521.73426,717.18894 522.62442,714.29045 522.55045,712.66693 L 520.86454,712.66693 C 521.03756,710.43437 522.32432,712.62457 523.17760,711.84716 C 523.57084,711.48911 523.52511,710.62825 523.84585,710.16821 C 524.97478,708.55037 527.55484,705.52502 526.55447,703.39445 C 524.64581,703.58222 526.58250,701.76376 526.76521,700.86560 C 525.95787,701.29255 525.46285,701.79854 524.86856,700.86560 L 525.92225,699.60117 L 523.67220,700.34044 L 523.65535,699.47662 L 524.65783,695.17567 L 523.81487,695.38641 C 523.75587,696.73197 522.18671,694.55231 521.07528,694.33272 C 521.42131,693.20464 521.66514,692.68770 521.07528,691.59313 C 521.79664,691.71514 522.10052,691.67679 522.33971,690.96091 C 521.19308,691.01022 519.19508,690.82204 518.16899,691.14425 C 516.79835,691.57458 515.75225,695.16387 514.04359,692.63965 C 513.81915,692.30795 513.65751,691.95370 513.48871,691.59313 z "
         style="fill:#ffbb28;fill-opacity:1.0000000;stroke:none" />
      <path
         id="path13943"
         d="M 560.06181,706.97700 L 560.06181,707.18774 C 566.89035,708.95899 574.46554,708.25239 580.71413,712.13334 C 582.96692,713.53243 582.79918,715.26280 583.95254,717.30316 C 584.51332,718.29532 585.59757,719.08137 585.79418,720.25349 C 586.12125,722.20092 585.43024,723.57093 586.49173,725.52194 C 587.44405,727.27233 590.28227,729.88570 588.93102,732.04639 C 587.14206,734.90674 582.92330,734.10425 580.29266,735.42663 C 581.66330,738.36558 586.08479,740.09953 588.26172,742.59172 C 590.19081,744.80026 588.48152,746.65897 588.99171,749.12460 C 589.54237,751.78749 593.65619,753.31744 593.02692,756.50043 C 592.76540,757.82429 591.46177,758.47252 590.94188,759.66234 C 589.99925,761.81988 593.01365,764.71605 589.14365,765.28799 C 587.23900,765.56954 585.22603,764.75356 583.45373,764.15717 C 579.29418,762.75682 575.38141,761.05047 571.65240,758.72898 C 569.90538,757.64137 567.98872,755.63914 565.96247,755.23600 C 566.44654,757.35181 568.21821,759.19514 569.45503,760.92593 C 572.20285,764.77148 575.11546,768.55127 577.69110,772.51652 C 578.80105,774.22518 581.35393,777.70973 580.82519,779.88308 C 580.56704,780.94414 579.38733,780.89441 578.60760,781.36920 C 577.44137,782.07939 577.04645,784.03735 575.44568,783.72673 C 573.60067,783.36889 572.12551,782.00921 570.59871,781.01874 C 570.13382,780.71718 569.20847,779.96737 568.61841,780.34185 C 567.89705,780.79958 568.41167,782.26652 568.65676,782.84268 C 569.53216,784.90159 570.49882,787.95792 570.03520,790.21851 C 569.35051,793.55744 566.54748,791.59273 564.33537,793.19497 C 563.42308,793.85564 563.72022,795.93794 562.16835,795.70866 C 558.72447,795.19972 555.48416,789.78397 553.91880,787.05744 C 553.30745,785.99237 552.37915,783.15605 550.79840,783.35920 C 549.41217,783.53748 549.94596,785.69987 549.94639,786.63596 C 549.94723,788.89803 550.29579,794.45750 547.83500,795.65681 C 546.37943,796.36616 543.18612,793.24113 541.90336,792.51893 C 540.21071,791.56597 540.33884,795.70613 538.16719,794.08408 C 536.54851,792.87528 535.45225,789.44110 534.36568,787.68965 C 533.99331,787.08947 533.61208,785.87056 532.85764,785.65519 C 532.01912,785.41537 531.48911,786.73332 531.13971,787.26818 C 530.12542,788.82068 528.68608,790.63198 526.76521,791.01636 C 524.84349,791.40096 524.07956,789.83918 522.54728,789.12267 C 521.07380,788.43377 519.67366,789.20781 518.33653,788.06603 C 516.63334,786.61194 516.57307,784.71656 516.42029,782.63194 C 516.18279,779.38995 516.71638,775.17224 515.80683,772.09504 C 513.34984,773.34282 512.33935,776.84213 509.06321,776.86952 C 506.73414,776.88891 505.86126,774.99143 504.00234,774.17144 C 501.77674,773.18983 499.45693,773.55988 497.83151,771.40277 C 496.79911,770.03255 496.96959,768.00883 496.78035,766.40512 C 495.86933,758.68873 499.92835,751.66568 506.11288,747.09119 C 507.37815,746.15530 509.96728,744.54484 511.58891,744.56381 C 512.42554,744.57350 512.67021,745.35365 513.30326,745.73045 C 515.22772,746.87560 517.78840,747.05958 518.96811,749.33850 C 519.68378,750.72094 519.73730,752.46227 520.02159,753.97157 L 524.44709,749.89316 L 528.24037,750.59977 L 528.24037,750.38903 C 527.00966,750.32243 526.07356,749.44745 524.86856,749.38592 C 522.99911,749.29066 521.57599,751.73417 520.44307,752.91788 C 519.91201,748.73811 518.23664,747.12554 514.54240,745.35450 C 513.76942,744.98402 513.07356,744.31177 512.22428,744.13158 C 511.06902,743.88650 510.00163,744.69173 508.85248,744.42957 C 506.78809,743.95899 505.38057,741.34984 503.37308,741.21666 C 500.19262,741.00529 497.03871,742.86652 494.52229,744.61186 C 489.28335,748.24582 483.95989,752.77100 480.49452,758.18633 C 478.38672,761.48038 476.61167,765.80430 477.15242,769.77692 C 477.30921,770.92734 477.33534,772.19535 478.16776,773.10363 C 479.42924,774.47996 481.64746,774.07577 483.08364,775.54588 C 484.65259,777.15170 483.94093,779.96737 486.93572,780.47715 C 489.93495,780.98797 493.62834,779.03991 495.78672,777.11609 C 496.85537,776.16376 498.24097,773.93183 499.79074,773.90170 C 503.90435,773.82183 505.78244,778.04987 509.90617,777.53524 C 512.30668,777.23557 513.38250,775.13641 515.38535,774.20242 C 515.38535,777.18479 515.59904,780.08623 515.80156,783.05342 C 515.94065,785.08851 516.08564,787.25596 517.71190,788.69825 C 519.11457,789.94223 520.65591,789.06704 522.12813,789.87754 C 524.05659,790.93902 524.83864,792.75917 527.39742,791.88165 C 529.80468,791.05619 530.79093,788.71511 532.66587,787.26818 C 533.92187,789.95509 536.29710,795.63616 539.62022,796.05195 C 541.11920,796.23929 541.55480,794.62588 542.99287,794.91333 C 545.11269,795.33691 547.51384,798.27797 549.31523,795.48296 C 550.73434,793.28138 550.57881,789.57639 550.57860,787.05744 C 550.57860,786.56452 550.22519,784.36379 550.86141,784.24008 C 551.79667,784.05843 552.71569,786.42670 553.05878,787.05744 C 554.74068,790.14791 556.91381,792.95937 559.64033,795.20689 C 560.64956,796.03888 562.75272,797.24199 563.91031,795.98156 C 564.58994,795.24124 564.37520,794.23623 565.34185,793.63563 C 566.66908,792.81059 568.09662,793.81876 569.32501,793.01247 C 572.87342,790.68319 569.64006,784.15642 569.12354,781.15678 C 571.08025,781.89836 572.58007,783.49723 574.60273,784.16000 C 577.11768,784.98399 577.03612,783.73073 578.65185,782.36304 C 579.31420,781.80206 580.20415,781.88867 580.87682,781.39744 C 581.92440,780.63246 581.59839,778.83992 581.27301,777.78497 C 579.53737,772.15911 575.14496,767.56923 571.85787,762.82257 C 570.78943,761.27976 569.37011,759.73758 568.70207,757.97560 C 571.12197,759.10684 573.28204,760.79127 575.65642,762.02514 C 577.95705,763.22044 580.58516,764.00797 583.03225,764.85746 C 585.29537,765.64309 587.78334,766.64494 590.19734,765.94760 C 593.83574,764.89707 591.10078,762.48202 591.71339,760.29371 C 592.08893,758.95279 593.63027,758.33701 593.91813,756.92191 C 594.67953,753.17920 590.62240,751.74745 589.87028,748.70312 C 589.42035,746.88150 590.86644,745.35049 590.00663,743.43467 C 589.00499,741.20275 586.65779,739.43571 584.71816,738.04568 C 583.68638,737.30620 582.36189,736.79917 581.76782,735.63737 C 584.77421,735.50819 591.06179,734.41825 590.17985,730.15818 C 589.65996,727.64724 587.30328,725.99484 586.62491,723.62530 C 586.25802,722.34380 586.99834,721.13712 586.77812,719.83202 C 586.54209,718.43209 585.23910,717.64456 584.59530,716.46021 C 584.00670,715.37702 584.12704,714.09763 583.36543,713.08861 C 581.77625,710.98271 578.94457,709.96948 576.49937,709.26540 C 572.57290,708.13458 568.79859,707.28510 564.69805,707.18458 C 563.08780,707.14517 561.68028,706.67670 560.06181,706.97700 z "
         style="fill:#f4f4f4;fill-opacity:1.0000000;stroke:none" />
      <path
         id="path13945"
         d="M 560.90476,720.46423 C 561.29737,722.20177 563.11014,724.79068 560.06181,724.88973 L 561.11550,726.99711 C 559.88605,727.37475 560.43692,728.47733 560.27255,729.52597 C 557.94242,728.43034 558.73838,729.34515 559.21886,731.00113 L 557.95443,730.79039 L 557.56267,733.21493 L 556.05779,735.21589 C 556.44070,735.45382 557.20315,736.67905 556.15346,736.52984 C 555.31304,736.41014 555.17627,735.68162 554.16115,735.84811 C 554.53689,737.71820 555.43843,738.85576 553.86548,740.61605 C 553.13211,741.43688 552.16820,742.54473 551.21060,743.09180 C 550.26144,743.63403 548.72980,743.09012 549.10343,744.69910 C 548.52559,744.85547 546.33750,745.99872 548.06302,746.38184 C 548.64571,746.51103 549.33335,746.14434 549.94639,746.17427 L 549.94639,746.59574 C 548.97952,746.77803 547.30500,746.83493 546.51620,747.44354 C 545.08192,748.55034 545.85723,750.78121 545.73163,752.28567 L 545.94236,752.28567 C 546.41105,750.83685 548.05269,749.12460 549.73565,749.15979 C 550.66121,749.17897 552.19875,751.25095 552.47524,749.96755 C 548.85729,749.14167 551.67633,744.58594 552.26450,748.49239 L 552.47524,748.49239 C 552.47524,746.55444 553.23622,744.85568 555.01253,743.78176 C 555.63631,743.40454 556.84806,744.08733 557.19198,743.36450 C 557.69438,742.30870 557.23666,740.31723 557.67942,739.00918 C 558.01618,738.01470 558.80623,737.24024 559.17144,736.26958 C 559.74233,734.75185 559.93263,732.99682 560.53808,731.42345 C 560.86156,730.58303 561.68597,730.12509 562.01282,729.30701 C 562.72111,727.53365 563.31118,725.09857 563.70252,723.20383 C 564.00619,721.73435 562.98770,720.40038 563.10655,718.98907 C 563.17610,718.16361 563.84435,717.53518 563.72064,716.67095 C 563.55395,715.50746 562.65831,714.74586 562.57381,713.50988 C 562.41744,711.22590 564.33579,708.88734 560.48329,708.87364 L 561.32624,707.39848 C 560.05422,707.30259 557.85981,708.42519 559.67237,709.77096 C 560.24178,710.19370 561.60610,709.90731 561.89397,710.62656 C 562.35506,711.77824 560.79960,714.17286 560.77326,715.39409 C 560.74839,716.54071 562.18268,715.94243 562.55379,716.73796 C 562.90783,717.49746 561.59345,720.11588 560.90476,720.46423 z "
         style="fill:#ffff80;stroke:none" />
      <path
         id="path13947"
         d="M 560.48329,708.87364 C 561.55025,708.88629 562.75799,709.17163 563.13711,710.34902 C 563.40306,711.17511 562.49773,711.84442 562.47118,712.66693 C 562.41891,714.28476 563.41571,715.22697 563.64056,716.67095 C 563.78007,717.56574 563.02858,718.29721 563.06019,719.19980 C 563.10592,720.49816 563.87195,721.64921 563.66122,722.99309 C 562.77843,728.62759 559.47996,733.48110 557.67942,738.79844 C 557.43285,739.52654 557.04931,740.56948 556.99726,741.32729 C 556.95574,741.93485 557.39260,742.58961 557.17533,743.18369 C 556.88283,743.98386 555.29976,743.35122 554.62140,743.92338 C 552.27631,745.90115 552.47524,747.75923 552.47524,750.59977 C 550.24648,749.49297 549.27771,748.51388 547.00006,750.42738 C 546.48881,750.85687 545.94510,752.44878 545.26505,752.45300 C 544.52873,752.45763 543.89842,751.49877 543.20277,751.26654 C 539.85794,750.15047 537.87215,751.42691 536.66989,754.60379 L 536.24842,754.60379 C 535.90871,753.79329 535.53212,752.83127 534.59497,752.58787 C 533.25488,752.23952 532.41846,753.72670 531.39828,753.47803 C 529.31724,752.97078 526.41327,749.63690 524.02561,750.41073 C 522.14351,751.02061 521.70349,753.36043 520.02159,754.18231 C 519.59358,750.81388 518.94472,748.68353 515.80683,746.99636 C 515.06503,746.59743 514.24589,746.62356 513.51063,746.28533 C 512.48054,745.81159 512.31933,744.57392 510.95986,744.86348 C 504.89482,746.15488 498.72483,753.20364 497.03007,759.02929 C 496.45645,761.00158 496.61197,763.54498 496.80458,765.56216 C 496.97233,767.31719 496.71397,770.10863 497.83678,771.58105 C 499.29171,773.48907 501.60688,773.14431 503.58403,774.01444 C 505.54473,774.87742 506.48821,776.67838 508.85248,776.72812 C 512.50414,776.80461 513.26133,773.40752 516.01757,772.09504 C 516.01799,775.54946 516.34590,778.97037 516.43588,782.42120 C 516.48372,784.25146 516.46728,786.52764 517.92580,787.85529 C 519.27431,789.08305 520.82155,788.37645 522.33971,789.03142 C 523.80139,789.66216 524.58365,791.21088 526.34373,791.02184 C 528.44142,790.79656 530.01858,789.18463 531.09271,787.47892 C 531.44085,786.92636 531.98540,785.39135 532.87345,785.77636 C 533.58174,786.08341 533.90311,787.07746 534.27359,787.68965 C 535.05459,788.98021 536.04632,790.11356 536.70782,791.48294 C 537.10949,792.31472 537.20706,793.43311 538.00597,794.00905 C 539.97279,795.42669 540.26740,791.82560 541.73077,792.51345 C 543.34544,793.27210 545.75165,796.12107 547.62511,795.60624 C 548.89291,795.25768 549.15654,793.86217 549.34452,792.74737 C 549.72869,790.47013 549.96746,788.32419 549.91140,786.00375 C 549.89159,785.17850 549.61658,782.82097 551.20829,783.34993 C 552.61623,783.81776 553.56413,786.48655 554.22690,787.68965 C 555.67741,790.32325 558.68991,794.69775 561.74771,795.52574 C 563.68271,796.04984 563.22625,793.97344 564.32462,793.18675 C 565.83856,792.10272 568.57858,793.05926 569.46768,791.67071 C 570.71988,789.71506 569.84827,785.94706 569.17644,783.89637 C 568.88941,783.02075 567.81318,781.52894 568.49744,780.61139 C 569.06770,779.84641 570.28787,780.88197 570.80945,781.22716 C 572.13373,782.10362 574.91863,784.51826 576.65469,783.46899 C 577.31472,783.07007 577.60427,782.18792 578.20509,781.69058 C 578.94309,781.07965 580.34471,781.05056 580.69896,780.08012 C 581.49576,777.89813 578.94773,774.22876 577.81754,772.51652 C 575.21008,768.56687 572.32213,764.79782 569.60382,760.92593 C 568.35077,759.14098 566.62862,757.34064 565.96247,755.23600 C 568.06501,755.90741 569.95554,757.79900 571.86314,758.93382 C 575.45980,761.07344 579.05773,762.68707 583.03225,764.01682 C 585.13921,764.72153 587.52476,765.75583 589.77566,765.12825 C 592.86992,764.26570 590.15773,761.73453 590.86159,759.87224 C 591.29192,758.73383 592.52284,758.10351 592.84548,756.92191 C 593.79801,753.43461 589.82118,751.89623 588.99993,749.12460 C 588.30450,746.77761 590.24687,744.81733 588.41050,742.59994 C 586.05592,739.75687 582.18825,738.35505 580.08192,735.42663 C 582.69929,734.49749 587.66048,734.70464 589.10593,731.84324 C 590.27911,729.52091 587.05756,726.81545 586.27488,724.88973 C 585.53118,723.06031 586.24643,721.29559 585.61548,719.62128 C 585.25596,718.66706 584.36601,717.97647 583.86804,717.09242 C 583.23140,715.96181 583.34267,714.55704 582.52248,713.51831 C 580.54660,711.01558 576.65132,710.29591 573.75978,709.47635 C 570.55235,708.56723 567.35103,708.49115 564.06583,708.22183 C 562.55042,708.09749 561.34984,707.07605 560.48329,708.87364 z "
         style="fill:#ffffff;stroke:none" />
      <path
         id="path13949"
         d="M 550.43804,747.79000 L 550.50842,747.93035 L 550.43804,747.79000 M 491.15048,747.86017 L 491.36122,748.07091 L 491.15048,747.86017 z "
         style="fill:#ff8080;stroke:none" />
      <path
         id="path13951"
         d="M 531.82292,753.76084 C 533.80533,752.18915 534.92351,752.36828 536.24842,754.60379 L 536.66989,754.60379 C 537.27429,753.51385 537.94212,751.88190 539.00761,751.17845 C 540.85852,749.95638 543.65923,751.70551 545.09941,752.70715 L 542.70859,749.19119 L 541.09539,749.33239 L 538.67464,749.07676 L 537.00918,752.09242 L 532.96723,751.45705 L 531.82292,753.76084 z "
         style="fill:#ffff80;stroke:none" />
      <path
         id="path13953"
         d="M 502.95181,749.75681 L 503.16255,749.96755 L 502.95181,749.75681 M 523.39340,750.38903 L 523.39340,750.59977 C 525.83922,750.06449 528.97374,752.03026 530.97997,753.33936 C 529.85441,751.20458 525.64598,749.15136 523.39340,750.38903 z "
         style="fill:#ffff80;stroke:none" />
      <path
         id="path13955"
         d="M 528.66185,750.59977 L 531.82292,753.76084 L 532.66587,751.23198 L 532.45513,751.23198 L 531.19070,752.91788 L 531.40144,751.44272 L 528.66185,750.59977 z "
         style="fill:#808080;stroke:none" />
      <path
         id="path13957"
         d="M 545.73163,751.02124 L 545.73163,751.65346 L 545.94236,751.65346 L 545.73163,751.02124 M 487.98941,751.23198 L 488.20015,751.44272 L 487.98941,751.23198 z "
         style="fill:#ff8080;stroke:none" />
      <path
         id="path13959"
         d="M 532.24439,752.49641 L 532.45513,752.70715 L 532.24439,752.49641 z "
         style="fill:#ff8080;stroke:none" />
      <path
         id="path13961"
         d="M 530.55849,752.70715 L 530.76923,752.91788 L 530.55849,752.70715 z "
         style="fill:#ff8080;stroke:none" />
      <path
         id="path13963"
         d="M 532.03366,753.12862 L 532.24439,753.33936 L 532.03366,753.12862 z "
         style="fill:#ff8080;stroke:none" />
      <path
         id="path13965"
         d="M 519.81085,753.33936 L 520.02159,753.55010 L 519.81085,753.33936 M 530.97997,753.33936 L 531.19070,753.55010 L 530.97997,753.33936 z "
         style="fill:#ff8080;stroke:none" />
      <path
         id="path13967"
         d="M 531.19070,753.55010 L 531.40144,753.76084 L 531.19070,753.55010 z "
         style="fill:#ff8080;stroke:none" />
    </g>
    <path
       style="fill:none;fill-opacity:1.0000000;fill-rule:evenodd;stroke:#737373;stroke-width:0.62500000;stroke-linecap:butt;stroke-linejoin:miter;stroke-miterlimit:4.0000000;stroke-dasharray:none;stroke-opacity:1.0000000"
       d="M 697.16097,656.53829 C 696.52388,656.43964 695.86825,656.49054 695.22347,656.69454 C 694.36376,656.96654 693.49999,657.53031 692.72347,658.44454 C 688.59402,663.30633 685.61960,670.06561 683.41097,675.94454 C 682.25204,675.37997 682.02932,674.19290 681.91097,673.00704 C 681.58638,669.76096 681.14453,667.06631 680.25472,663.91329 C 679.88052,662.58758 679.90004,660.50756 678.19222,660.10079 C 676.68738,659.74238 675.62461,661.18568 674.28597,661.53829 C 672.52963,662.00094 670.45445,661.13130 668.84847,661.91329 C 666.98464,662.82073 666.85797,664.79666 665.66097,666.19454 C 664.77594,667.22815 662.45072,668.24175 661.22347,668.91329 C 658.02994,670.66069 655.11043,668.60966 653.62972,672.78829 C 652.52279,675.91185 652.53596,679.60631 652.53597,682.88204 C 652.53597,684.20378 652.97111,686.43649 652.00472,687.50704 C 650.99047,688.63069 649.64811,687.47813 648.62972,686.94454 C 646.56966,685.86535 643.78858,684.71397 641.44222,685.69454 C 639.12632,686.66246 637.05501,688.65083 634.91097,689.94454 C 633.79272,690.61912 632.42929,690.67737 631.78597,691.94454 C 630.59288,694.29406 631.72630,697.46484 632.94222,699.53829 C 633.40365,700.32518 633.81949,701.51728 634.91097,701.56954 C 635.38973,701.59250 635.71665,701.44471 636.06722,701.31954 L 636.22347,703.35079 C 634.00184,703.23447 634.15151,705.18699 632.72347,706.69454 L 632.72347,706.91329 C 632.77286,706.98495 632.78924,707.05814 632.81722,707.13204 L 631.37972,707.16329 C 631.33874,707.16289 631.29483,707.12966 631.25472,707.13204 L 631.25472,707.16329 L 630.87972,707.19454 C 630.99322,707.17131 631.11015,707.15589 631.22347,707.13204 L 631.25472,707.13204 C 631.66898,707.04449 632.09524,707.01618 632.50472,706.91329 L 632.50472,706.69454 C 630.83388,706.39424 629.38582,706.87387 627.72347,706.91329 C 623.49024,707.01381 619.58949,707.87622 615.53597,709.00704 C 613.01164,709.71112 610.11406,710.71364 608.47347,712.81954 C 607.68721,713.82856 607.79987,715.11134 607.19222,716.19454 C 606.52759,717.37889 605.18588,718.16961 604.94222,719.56954 C 604.71487,720.87464 605.47723,722.06930 605.09847,723.35079 C 604.39815,725.72033 601.94768,727.37109 601.41097,729.88204 C 600.50049,734.14211 606.99479,735.22160 610.09847,735.35079 C 609.48517,736.51259 608.13238,737.04879 607.06722,737.78829 C 605.06482,739.17832 602.63252,740.93136 601.59847,743.16329 C 600.71083,745.07911 602.21922,746.62293 601.75472,748.44454 C 600.97826,751.48887 596.78119,752.92057 597.56722,756.66329 C 597.86440,758.07839 599.46077,758.66614 599.84847,760.00704 C 600.48090,762.19535 597.65484,764.61274 601.41097,765.66329 C 603.90309,766.36063 606.48088,765.35516 608.81722,764.56954 C 611.34349,763.72005 614.03591,762.95235 616.41097,761.75704 C 618.86219,760.52317 621.10025,758.82581 623.59847,757.69454 C 622.90881,759.45652 621.45148,760.99549 620.34847,762.53829 C 616.95501,767.28495 612.42151,771.88119 610.62972,777.50704 C 610.29381,778.56199 609.95449,780.36705 611.03597,781.13204 C 611.73040,781.62327 612.63344,781.53983 613.31722,782.10079 C 614.98524,783.46848 614.90839,784.70601 617.50472,783.88204 C 619.59283,783.21927 621.14094,781.62361 623.16097,780.88204 C 622.62774,783.88168 619.27901,790.39648 622.94222,792.72579 C 624.21036,793.53208 625.69705,792.52577 627.06722,793.35079 C 628.06515,793.95139 627.83434,794.95423 628.53597,795.69454 C 629.73101,796.95497 631.90034,795.77652 632.94222,794.94454 C 635.75697,792.69702 638.01840,789.87878 639.75472,786.78829 C 640.10891,786.15755 641.03918,783.79412 642.00472,783.97579 C 642.66152,784.09950 642.31721,786.29539 642.31722,786.78829 C 642.31700,789.30724 642.13345,793.02421 643.59847,795.22579 C 645.45815,798.02080 647.94131,795.05563 650.12972,794.63204 C 651.61433,794.34459 652.08224,795.97565 653.62972,795.78829 C 657.06037,795.37250 659.48931,789.69395 660.78597,787.00704 C 662.72158,788.45397 663.73832,790.77534 666.22347,791.60079 C 668.86505,792.47831 669.70134,790.66226 671.69222,789.60079 C 673.21208,788.79029 674.77542,789.65729 676.22347,788.41329 C 677.90235,786.97100 678.07988,784.82341 678.22347,782.78829 C 678.43254,779.82110 678.62972,776.92689 678.62972,773.94454 C 680.69738,774.87853 681.80779,776.95734 684.28597,777.25704 C 688.54314,777.77167 690.47676,773.55215 694.72347,773.63204 C 696.32339,773.66217 697.77649,775.89847 698.87972,776.85079 C 701.10794,778.77461 704.90842,780.70535 708.00472,780.19454 C 711.09642,779.68476 710.35375,776.89410 711.97347,775.28829 C 713.45612,773.81818 715.76492,774.19588 717.06722,772.81954 C 717.92658,771.91126 717.93661,770.65748 718.09847,769.50704 C 718.65672,765.53442 716.83696,761.20734 714.66097,757.91329 C 711.08346,752.49796 705.60070,747.98475 700.19222,744.35079 C 698.06045,742.91858 695.45554,741.44856 692.78597,741.06954 C 692.85762,741.07265 692.93538,741.06902 693.00472,741.06954 L 693.00472,740.85079 C 691.45351,740.81982 690.22158,740.53214 689.25472,739.44454 L 698.50472,740.16329 C 699.51438,741.34822 701.93885,742.29747 703.00472,742.72579 C 708.80654,745.05782 714.72055,745.10832 720.84847,744.41329 C 724.50474,743.99856 731.15387,743.45679 733.59847,740.41329 C 734.36183,739.46286 733.52182,738.47006 734.03597,737.47579 C 734.96138,735.68620 736.48036,735.08567 736.25472,732.85079 C 736.12413,731.55749 735.28475,730.36219 734.31722,729.50704 C 733.81494,729.06323 732.75607,728.54480 732.84847,727.75704 C 733.01301,726.35416 735.19091,725.06787 735.84847,723.78829 C 736.44351,722.63028 735.52828,721.94238 735.50472,720.81954 C 735.44594,718.01651 737.54510,714.75904 734.72347,712.53829 C 730.88916,709.52073 724.17493,712.86084 719.97347,713.03829 C 724.42142,706.92605 735.10058,703.12279 735.00472,694.47579 C 734.98819,692.98313 736.75562,691.22162 735.16097,689.94454 C 732.84273,688.08794 731.13240,691.80886 729.53597,692.72579 C 728.90604,693.08741 727.04423,693.43004 726.59847,692.60079 C 726.08307,691.64257 727.94357,689.91301 728.44222,689.22579 C 729.90189,687.21366 733.16980,683.17827 732.81722,680.56954 C 732.63052,679.18794 731.58233,677.92457 731.41097,676.56954 C 731.26205,675.39172 732.26252,674.10570 731.19222,673.06954 C 729.20388,671.14464 726.85383,674.68600 724.97347,674.44454 C 724.08758,674.33077 723.88811,673.17655 723.22347,672.72579 C 722.44069,672.19486 721.44954,672.70295 720.69222,672.19454 C 717.65555,670.15605 715.54575,665.99599 711.28597,668.97579 C 709.03295,670.55184 709.41746,673.07623 708.72347,675.31954 C 707.78775,678.34489 706.09652,680.99530 703.66097,683.10079 L 704.53597,676.13204 L 701.03597,679.10079 C 700.58867,677.27601 701.36544,675.43554 701.69222,673.63204 C 702.35859,669.95446 703.43760,664.08879 701.81722,660.53829 C 700.83834,658.39317 699.07225,656.83425 697.16097,656.53829 z "
       id="path2164" />
    <path
       style="fill:none;fill-opacity:1.0000000;fill-rule:evenodd;stroke:#737373;stroke-width:0.25000000pt;stroke-linecap:butt;stroke-linejoin:miter;stroke-opacity:1.0000000"
       d="M 364.80074,651.61430 C 364.16365,651.51565 363.50802,651.56655 362.86324,651.77055 C 362.00353,652.04255 361.13976,652.60632 360.36324,653.52055 C 356.23379,658.38234 353.25937,665.14162 351.05074,671.02055 C 349.89181,670.45598 349.66909,669.26891 349.55074,668.08305 C 349.22615,664.83697 348.78430,662.14232 347.89449,658.98930 C 347.52029,657.66359 347.53981,655.58357 345.83199,655.17680 C 344.32715,654.81839 343.26438,656.26169 341.92574,656.61430 C 340.16940,657.07695 338.09422,656.20731 336.48824,656.98930 C 334.62441,657.89674 334.49774,659.87267 333.30074,661.27055 C 332.41571,662.30416 330.09049,663.31776 328.86324,663.98930 C 325.66971,665.73670 322.75020,663.68567 321.26949,667.86430 C 320.16256,670.98786 320.17573,674.68232 320.17574,677.95805 C 320.17574,679.27979 320.61088,681.51250 319.64449,682.58305 C 318.63024,683.70670 317.28788,682.55414 316.26949,682.02055 C 314.20943,680.94136 311.42835,679.78998 309.08199,680.77055 C 306.76609,681.73847 304.69478,683.72684 302.55074,685.02055 C 301.43249,685.69513 300.06906,685.75338 299.42574,687.02055 C 298.23265,689.37007 299.36607,692.54085 300.58199,694.61430 C 301.04342,695.40119 301.45926,696.59329 302.55074,696.64555 C 303.02950,696.66851 303.35642,696.52072 303.70699,696.39555 L 303.86324,698.42680 C 301.64161,698.31048 301.79128,700.26300 300.36324,701.77055 L 300.36324,701.98930 C 300.41263,702.06096 300.42901,702.13415 300.45699,702.20805 L 299.01949,702.23930 C 298.97851,702.23890 298.93460,702.20567 298.89449,702.20805 L 298.89449,702.23930 L 298.51949,702.27055 C 298.63299,702.24732 298.74992,702.23190 298.86324,702.20805 L 298.89449,702.20805 C 299.30875,702.12050 299.73501,702.09219 300.14449,701.98930 L 300.14449,701.77055 C 298.47365,701.47025 297.02559,701.94988 295.36324,701.98930 C 291.13001,702.08982 287.22926,702.95223 283.17574,704.08305 C 280.65141,704.78713 277.75383,705.78965 276.11324,707.89555 C 275.32698,708.90457 275.43964,710.18735 274.83199,711.27055 C 274.16736,712.45490 272.82565,713.24562 272.58199,714.64555 C 272.35464,715.95065 273.11700,717.14531 272.73824,718.42680 C 272.03792,720.79634 269.58745,722.44710 269.05074,724.95805 C 268.14026,729.21812 274.63456,730.29761 277.73824,730.42680 C 277.12494,731.58860 275.77215,732.12480 274.70699,732.86430 C 272.70459,734.25433 270.27229,736.00737 269.23824,738.23930 C 268.35060,740.15512 269.85899,741.69894 269.39449,743.52055 C 268.61803,746.56488 264.42096,747.99658 265.20699,751.73930 C 265.50417,753.15440 267.10054,753.74215 267.48824,755.08305 C 268.12067,757.27136 265.29461,759.68875 269.05074,760.73930 C 271.54286,761.43664 274.12065,760.43117 276.45699,759.64555 C 278.98326,758.79606 281.67568,758.02836 284.05074,756.83305 C 286.50196,755.59918 288.74002,753.90182 291.23824,752.77055 C 290.54858,754.53253 289.09125,756.07150 287.98824,757.61430 C 284.59478,762.36096 280.06128,766.95720 278.26949,772.58305 C 277.93358,773.63800 277.59426,775.44306 278.67574,776.20805 C 279.37017,776.69928 280.27321,776.61584 280.95699,777.17680 C 282.62501,778.54449 282.54816,779.78202 285.14449,778.95805 C 287.23260,778.29528 288.78071,776.69962 290.80074,775.95805 C 290.26751,778.95769 286.91878,785.47249 290.58199,787.80180 C 291.85013,788.60809 293.33682,787.60178 294.70699,788.42680 C 295.70492,789.02740 295.47411,790.03024 296.17574,790.77055 C 297.37078,792.03098 299.54011,790.85253 300.58199,790.02055 C 303.39674,787.77303 305.65817,784.95479 307.39449,781.86430 C 307.74868,781.23356 308.67895,778.87013 309.64449,779.05180 C 310.30129,779.17551 309.95698,781.37140 309.95699,781.86430 C 309.95677,784.38325 309.77322,788.10022 311.23824,790.30180 C 313.09792,793.09681 315.58108,790.13164 317.76949,789.70805 C 319.25410,789.42060 319.72201,791.05166 321.26949,790.86430 C 324.70014,790.44851 327.12908,784.76996 328.42574,782.08305 C 330.36135,783.52998 331.37809,785.85135 333.86324,786.67680 C 336.50482,787.55432 337.34111,785.73827 339.33199,784.67680 C 340.85185,783.86630 342.41519,784.73330 343.86324,783.48930 C 345.54212,782.04701 345.71965,779.89942 345.86324,777.86430 C 346.07231,774.89711 346.26949,772.00290 346.26949,769.02055 C 348.33715,769.95454 349.44756,772.03335 351.92574,772.33305 C 356.18291,772.84768 358.11653,768.62816 362.36324,768.70805 C 363.96316,768.73818 365.41626,770.97448 366.51949,771.92680 C 368.74771,773.85062 372.54819,775.78136 375.64449,775.27055 C 378.73619,774.76077 377.99352,771.97011 379.61324,770.36430 C 381.09589,768.89419 383.40469,769.27189 384.70699,767.89555 C 385.56635,766.98727 385.57638,765.73349 385.73824,764.58305 C 386.29649,760.61043 384.47673,756.28335 382.30074,752.98930 C 378.72323,747.57397 373.24047,743.06076 367.83199,739.42680 C 365.70022,737.99459 363.09531,736.52457 360.42574,736.14555 C 360.49739,736.14866 360.57515,736.14503 360.64449,736.14555 L 360.64449,735.92680 C 359.09328,735.89583 357.86135,735.60815 356.89449,734.52055 L 366.14449,735.23930 C 367.15415,736.42423 369.57862,737.37348 370.64449,737.80180 C 376.44631,740.13383 382.36032,740.18433 388.48824,739.48930 C 392.14451,739.07457 398.79364,738.53280 401.23824,735.48930 C 402.00160,734.53887 401.16159,733.54607 401.67574,732.55180 C 402.60115,730.76221 404.12013,730.16168 403.89449,727.92680 C 403.76390,726.63350 402.92452,725.43820 401.95699,724.58305 C 401.45471,724.13924 400.39584,723.62081 400.48824,722.83305 C 400.65278,721.43017 402.83068,720.14388 403.48824,718.86430 C 404.08328,717.70629 403.16805,717.01839 403.14449,715.89555 C 403.08571,713.09252 405.18487,709.83505 402.36324,707.61430 C 398.52893,704.59674 391.81470,707.93685 387.61324,708.11430 C 392.06119,702.00206 402.74035,698.19880 402.64449,689.55180 C 402.62796,688.05914 404.39539,686.29763 402.80074,685.02055 C 400.48250,683.16395 398.77217,686.88487 397.17574,687.80180 C 396.54581,688.16342 394.68400,688.50605 394.23824,687.67680 C 393.72284,686.71858 395.58334,684.98902 396.08199,684.30180 C 397.54166,682.28967 400.80957,678.25428 400.45699,675.64555 C 400.27029,674.26395 399.22210,673.00058 399.05074,671.64555 C 398.90182,670.46773 399.90229,669.18171 398.83199,668.14555 C 396.84365,666.22065 394.49360,669.76201 392.61324,669.52055 C 391.72735,669.40678 391.52788,668.25256 390.86324,667.80180 C 390.08046,667.27087 389.08931,667.77896 388.33199,667.27055 C 385.29532,665.23206 383.18552,661.07200 378.92574,664.05180 C 376.67272,665.62785 377.05723,668.15224 376.36324,670.39555 C 375.42752,673.42090 373.73629,676.07131 371.30074,678.17680 L 372.17574,671.20805 L 368.67574,674.17680 C 368.22844,672.35202 369.00521,670.51155 369.33199,668.70805 C 369.99836,665.03047 371.07737,659.16480 369.45699,655.61430 C 368.47811,653.46918 366.71202,651.91026 364.80074,651.61430 z "
       id="path2166" />
    <path
       style="fill:none;fill-opacity:0.75000000;fill-rule:evenodd;stroke:#000000;stroke-width:0.88904423;stroke-linecap:butt;stroke-linejoin:miter;stroke-miterlimit:4.0000000;stroke-dasharray:none;stroke-opacity:1.0000000"
       d="M 631.54914,801.25542 L 98.158474,732.01642 L 695.60173,654.46874"
       id="path13971"
       sodipodi:nodetypes="ccc" />
    <path
       style="fill:none;fill-opacity:0.75000000;fill-rule:evenodd;stroke:#000000;stroke-width:0.88904423;stroke-linecap:butt;stroke-linejoin:miter;stroke-miterlimit:4.0000000;stroke-dasharray:none;stroke-opacity:1.0000000"
       d="M 360.18443,650.77599 L 95.299294,731.09323 L 297.91846,793.86993"
       id="path13975"
       sodipodi:nodetypes="ccc" />
  </g>
</svg>
