<?xml version="1.0" encoding="iso-8859-1"?>
<!-- Generator: Adobe Illustrator 11 Build 196, SVG Export Plug-In . SVG Version: 6.0.0 Build 78)  -->
<!DOCTYPE svg PUBLIC "-//W3C//DTD SVG 1.0//EN"    "http://www.w3.org/TR/2001/REC-SVG-20010904/DTD/svg10.dtd" [
	<!ENTITY ns_flows "http://ns.adobe.com/Flows/1.0/">
	<!ENTITY ns_svg "http://www.w3.org/2000/svg">
	<!ENTITY ns_xlink "http://www.w3.org/1999/xlink">
]>
<svg
	 width="145.199" height="119.04" viewBox="0 0 145.199 119.04" style="overflow:visible;enable-background:new 0 0 145.199 119.04"
	 xml:space="preserve">
	<style type="text/css">
	
	</style>
	<g id="Layer_1">
		<path style="fill:none;stroke:#000000;stroke-width:0.3;" d="M122.577,64.477c0.646,0.632,4.256,1.54,4.256,1.54"/>
		<path style="fill:none;stroke:#000000;stroke-width:0.3;" d="M126.375,66.223c-0.934,1.057-0.832,4.676-1.238,6.22
			c-0.19,0.72,2.507,1.911,2.507,1.911l3.872,0.181l0.948-0.26l0.474-0.169"/>
		<path style="fill:none;stroke:#000000;stroke-width:0.3;" d="M127.846,74.324c0,0-1.209,1.647-0.867,2.691
			c0.343,1.044,3.858,2.515,3.802,4.534c-0.056,2.019-0.95,4.531,0.066,6.386c1.015,1.854,3.5,2.569,3.5,2.569"/>
		<g>
			<path style="fill:#DDC2AE;" d="M128.063,74.186c0,0-1.209,1.647-0.867,2.691c0.343,1.044,3.858,2.515,3.802,4.533
				c-0.056,2.019-0.95,4.532,0.066,6.386c1.016,1.854,3.5,2.569,3.5,2.569l10.536-0.211v-61.75l-15.021,0.038
				c-0.729,3.584-3.014,14.899-2.137,18.236s0.589,2.651-0.029,4.573s-3.531,4.379-4.617,5.642c-1.085,1.263-4.26,5.587-1.995,7.25
				c0.824,0.604,1.658,0.306,1.658,0.306l3.631,1.634c-0.934,1.057-0.832,4.677-1.238,6.221c-0.19,0.72,2.506,1.91,2.506,1.91
				l0.553,0.026"/>
			<path style="fill:none;" d="M130.714,75.866l-4.778-2.556c0,0-1.153-0.372-1.441-1.058c-0.633-1.508,0.304-5.163,1.239-6.22
				l0.99-0.026c0,0-3.611-0.908-4.257-1.54l0.706-0.165c0,0-1.374,0.576-2.197-0.029c-2.266-1.663,0.909-5.987,1.994-7.25
				c1.085-1.263,3.998-3.719,4.617-5.642c0.619-1.922,0.907-1.236,0.029-4.573s1.407-14.652,2.136-18.236l9.99,5.469l-5.505,56.453
				c0,0-2.485-0.715-3.5-2.569c-1.016-1.854-0.122-4.367-0.066-6.386c0.056-2.019-3.459-3.489-3.802-4.533
				c-0.343-1.044,0.867-2.691,0.867-2.691"/>
			<path style="fill:none;stroke:#000000;stroke-width:0.3;" d="M129.863,28.582c-0.729,3.583-3.014,14.898-2.137,18.236
				s0.589,2.65-0.029,4.573s-3.531,4.379-4.617,5.642s-4.26,5.587-1.994,7.25c0.824,0.604,1.658,0.306,1.658,0.306"/>
			
				<ellipse transform="matrix(0.1516 0.9884 -0.9884 0.1516 166.2495 -83.5928)" style="fill:none;stroke:#000000;stroke-width:0.3;" cx="131.822" cy="55.052" rx="7.535" ry="1.66"/> 
			<path style="fill:none;stroke:#000000;stroke-width:0.3;" d="M126.754,52.634c-0.671-2.939-1.618-4.991-2.345-4.879
				c-0.906,0.139-1.129,3.586-0.499,7.7c0.027,0.177,0.055,0.352,0.084,0.524"/>
			<line style="fill:none;stroke:#000000;stroke-width:0.3;" x1="132.957" y1="51.132" x2="145.197" y2="50.963"/>
		</g>
		<g>
			<path style="fill:#FFFFFF;" d="M27.665,90.342l9.125-4.883c0,0,2.203-0.709,2.753-2.021c1.208-2.88-0.582-9.862-2.366-11.88
				l-1.89-0.05c0,0,6.897-1.734,8.129-2.941l-1.348-0.316c0,0,2.624,1.101,4.197-0.054c4.327-3.176-1.736-11.436-3.809-13.848
				s-7.636-7.104-8.818-10.776c-1.182-3.671-1.732-2.36-0.056-8.734S30.896,6.853,29.502,0.008L10.421,10.453l10.515,107.826
				c0,0,4.747-1.366,6.687-4.908c1.939-3.542,0.232-8.341,0.126-12.197c-0.107-3.856,6.606-6.665,7.262-8.659
				c0.655-1.994-1.655-5.14-1.655-5.14"/>
			<path style="fill:none;stroke:#000000;stroke-width:0.3;" d="M29.291,0.03c1.393,6.845,5.756,28.456,4.081,34.831
				s-1.125,5.062,0.056,8.734c1.182,3.671,6.745,8.364,8.818,10.776s8.136,10.671,3.81,13.847c-1.574,1.155-4.197,0.054-4.197,0.054
				"/>
			<path style="fill:none;stroke:#000000;stroke-width:0.3;" d="M43.206,68.588c-1.232,1.207-8.13,2.941-8.13,2.941"/>
			<path style="fill:none;stroke:#000000;stroke-width:0.3;" d="M35.953,71.924c1.785,2.019,1.589,8.932,2.366,11.881
				c0.363,1.375-4.788,3.649-4.788,3.649L26.135,87.8l-1.811-0.496l-0.906-0.323"/>
			<path style="fill:none;stroke:#000000;stroke-width:0.3;" d="M33.144,87.397c0,0,2.31,3.146,1.655,5.14s-7.368,4.803-7.262,8.659
				c0.106,3.856,1.813,8.655-0.126,12.197c-1.939,3.542-6.686,4.908-6.686,4.908"/>
			
				<ellipse transform="matrix(-0.1516 0.9884 -0.9884 -0.1516 79.4263 33.0052)" style="fill:none;stroke:#000000;stroke-width:0.3;" cx="25.549" cy="50.588" rx="14.393" ry="3.171"/> 
			<path style="fill:none;stroke:#000000;stroke-width:0.3;" d="M35.229,45.97c1.283-5.615,3.089-9.533,4.479-9.32
				c1.731,0.266,2.157,6.851,0.952,14.707c-0.052,0.337-0.105,0.671-0.162,1.001"/>
			<line style="fill:none;stroke:#000000;stroke-width:0.3;" x1="23.382" y1="43.101" x2="0.002" y2="42.778"/>
		</g>
		<path style="fill:none;stroke:#000000;" d="M111.389,5.792c-9.638,16.465-15.162,35.632-15.162,56.088
			c0,20.794,5.709,40.256,15.645,56.903"/>
		<line style="fill:none;stroke:#000000;stroke-width:0.5;" x1="130.278" y1="87.281" x2="96.403" y2="61.968"/>
		<g>
			<line style="fill:none;stroke:#000000;stroke-width:0.5;" x1="121.278" y1="43.593" x2="96.528" y2="62.031"/>
			<path d="M123.092,42.236c-0.618,0.953-1.275,2.283-1.505,3.345l-0.548-1.815l-1.583-1.044
				C120.54,42.804,122.002,42.556,123.092,42.236z"/>
		</g>
		<g>
			<line style="fill:none;stroke:#000000;stroke-width:0.5;" x1="130.153" y1="87.218" x2="122.028" y2="87.968"/>
			<path d="M119.777,88.177c1.024-0.491,2.278-1.284,3.028-2.07l-0.479,1.835l0.806,1.716
				C122.252,89.022,120.874,88.472,119.777,88.177z"/>
		</g>
		<g>
			<line style="fill:none;stroke:#000000;stroke-width:0.5;" x1="130.028" y1="87.218" x2="127.403" y2="92.843"/>
			<path d="M126.449,94.898c0.092-1.132,0.04-2.615-0.261-3.659l1.343,1.338l1.889,0.17C128.427,93.188,127.257,94.1,126.449,94.898
				z"/>
		</g>
		<g>
			<line style="fill:none;stroke:#000000;stroke-width:0.5;" x1="130.278" y1="87.343" x2="131.403" y2="93.468"/>
			<path d="M131.815,95.692c-0.581-0.976-1.483-2.154-2.333-2.83l1.871,0.312l1.637-0.957
				C132.436,93.152,132.011,94.574,131.815,95.692z"/>
		</g>
		<line style="fill:none;stroke:#000000;stroke-width:0.5;stroke-dasharray:2;" x1="95.758" y1="62.319" x2="28.153" y2="112.218"/>
		<polyline style="fill:none;stroke:#000000;stroke-width:0.3;" points="28.153,112.218 28.153,61.968 130.153,61.968 
			130.153,87.468 "/>
		<g>
			<text transform="matrix(1 0 0 1 21.5693 113.0518)"><tspan x="0" y="0" style="font-family:Liberation Sans; font-size:7.650000;">A</tspan></text>
		</g>
		<g>
			<text transform="matrix(1 0 0 1 22.5693 61.3848)"><tspan x="0" y="0" style="font-family:Liberation Sans; font-size:7.650000;">B</tspan></text>
		</g>
		<g>
			<text transform="matrix(1 0 0 1 88.2363 60.0518)"><tspan x="0" y="0" style="font-family:Liberation Sans; font-size:7.650000;">C</tspan></text>
		</g>
		<g>
			<text transform="matrix(1 0 0 1 134.2363 65.0518)"><tspan x="0" y="0" style="font-family:Liberation Sans; font-size:7.650000;">D</tspan></text>
		</g>
		<g>
			<text transform="matrix(1 0 0 1 135.2363 90.0518)"><tspan x="0" y="0" style="font-family:Liberation Sans; font-size:7.650000;">E</tspan></text>
		</g>
	</g>
</svg>
