<?xml version="1.0" encoding="iso-8859-1"?>
<!-- Generator: Adobe Illustrator 11 Build 196, SVG Export Plug-In . SVG Version: 6.0.0 Build 78)  -->
<!DOCTYPE svg PUBLIC "-//W3C//DTD SVG 1.0//EN"    "http://www.w3.org/TR/2001/REC-SVG-20010904/DTD/svg10.dtd" [
	<!ENTITY ns_flows "http://ns.adobe.com/Flows/1.0/">
	<!ENTITY ns_svg "http://www.w3.org/2000/svg">
	<!ENTITY ns_xlink "http://www.w3.org/1999/xlink">
]>
<svg
	 width="145.202" height="118.447" viewBox="0 0 145.202 118.447"
	 style="overflow:visible;enable-background:new 0 0 145.202 118.447" xml:space="preserve">
	<style type="text/css">
	
	</style>
	<g id="Layer_1">
		<path style="fill:none;stroke:#000000;stroke-width:0.3;" d="M122.58,61.831c0.646,0.632,4.257,1.54,4.257,1.54"/>
		<g>
			<path style="fill:#DDC2AE;" d="M127.876,71.448c0,0-1.209,1.647-0.866,2.691c0.343,1.043,3.858,2.515,3.802,4.533
				c-0.056,2.019-0.949,4.531,0.066,6.386c1.016,1.854,3.501,2.57,3.501,2.57l10.536-0.212v-61.75l-15.021,0.039
				c-0.729,3.584-3.014,14.899-2.136,18.236s0.589,2.65-0.03,4.573c-0.619,1.922-3.531,4.379-4.617,5.643
				c-1.085,1.263-4.259,5.587-1.994,7.25c0.824,0.604,1.658,0.306,1.658,0.306l3.631,1.634c-0.934,1.057-0.832,4.676-1.239,6.22
				c-0.19,0.72,2.507,1.911,2.507,1.911l0.552,0.026"/>
			<path style="fill:none;" d="M130.717,73.22l-4.778-2.557c0,0-1.154-0.371-1.442-1.058c-0.632-1.508,0.305-5.163,1.239-6.22
				l0.99-0.026c0,0-3.611-0.908-4.256-1.54l0.706-0.165c0,0-1.374,0.576-2.197-0.029c-2.265-1.663,0.909-5.987,1.994-7.25
				c1.085-1.263,3.998-3.72,4.617-5.642c0.619-1.922,0.907-1.235,0.029-4.573s1.407-14.652,2.137-18.236l9.99,5.469l-5.505,56.454
				c0,0-2.485-0.715-3.501-2.569c-1.015-1.854-0.122-4.367-0.066-6.386c0.056-2.019-3.459-3.49-3.802-4.534
				c-0.343-1.043,0.866-2.691,0.866-2.691"/>
			<path style="fill:none;stroke:#000000;stroke-width:0.3;" d="M129.865,25.935c-0.729,3.584-3.014,14.899-2.137,18.236
				c0.878,3.337,0.59,2.651-0.029,4.573c-0.619,1.922-3.531,4.379-4.617,5.642c-1.085,1.263-4.259,5.587-1.994,7.25
				c0.824,0.604,1.658,0.306,1.658,0.306"/>
			<path style="fill:none;stroke:#000000;stroke-width:0.3;" d="M126.377,63.577c-0.935,1.057-0.832,4.677-1.239,6.221
				c-0.19,0.72,2.507,1.91,2.507,1.91l3.872,0.181l0.948-0.259l0.474-0.169"/>
			<path style="fill:none;stroke:#000000;stroke-width:0.3;" d="M127.848,71.678c0,0-1.209,1.647-0.866,2.691
				c0.343,1.043,3.857,2.515,3.802,4.533c-0.056,2.019-0.949,4.532,0.066,6.386c1.016,1.854,3.5,2.569,3.5,2.569"/>
			
				<ellipse transform="matrix(0.1517 0.9884 -0.9884 0.1517 163.6324 -85.8414)" style="fill:none;stroke:#000000;stroke-width:0.3;" cx="131.824" cy="52.406" rx="7.536" ry="1.661"/> 
			<path style="fill:none;stroke:#000000;stroke-width:0.3;" d="M126.756,49.988c-0.671-2.94-1.617-4.991-2.345-4.88
				c-0.906,0.139-1.129,3.587-0.499,7.7c0.027,0.176,0.056,0.351,0.084,0.524"/>
			<line style="fill:none;stroke:#000000;stroke-width:0.3;" x1="132.959" y1="48.486" x2="145.2" y2="48.317"/>
		</g>
		<line style="fill:none;stroke:#000000;stroke-width:0.5;" x1="119.833" y1="60.148" x2="96.457" y2="53.946"/>
		<g>
			<line style="fill:none;stroke:#000000;stroke-width:0.5;" x1="96.526" y1="53.862" x2="121.945" y2="47.843"/>
			<path d="M124.144,47.319c-0.945,0.63-2.076,1.59-2.708,2.474l0.217-1.884l-1.039-1.586
				C121.576,46.829,123.017,47.18,124.144,47.319z"/>
		</g>
		<line style="fill:none;stroke:#000000;stroke-width:0.5;" x1="120.138" y1="60.758" x2="97.909" y2="77.869"/>
		<line style="fill:none;stroke:#000000;stroke-width:0.5;stroke-dasharray:2;" x1="95.709" y1="53.942" x2="48.522" y2="64.971"/>
		<line style="fill:none;stroke:#000000;stroke-width:0.5;stroke-dasharray:2;" x1="48.522" y1="64.971" x2="97.917" y2="77.994"/>
		<g>
			<line style="fill:none;stroke:#000000;stroke-width:0.5;" x1="97.857" y1="78.207" x2="122.185" y2="85.182"/>
			<path d="M124.362,85.802c-1.132,0.086-2.588,0.37-3.572,0.831l1.111-1.536l-0.128-1.892
				C122.363,84.117,123.447,85.129,124.362,85.802z"/>
		</g>
		<line style="fill:none;stroke:#000000;stroke-width:0.5;" x1="120.093" y1="59.155" x2="99.775" y2="31.502"/>
		<g>
			<line style="fill:none;stroke:#000000;stroke-width:0.5;" x1="129.309" y1="11.904" x2="100.258" y2="31.695"/>
			<path d="M131.181,10.634c-0.658,0.926-1.37,2.227-1.645,3.278l-0.471-1.837l-1.537-1.11
				C128.607,11.094,130.079,10.907,131.181,10.634z"/>
		</g>
		<line style="fill:none;stroke:#000000;stroke-width:0.5;stroke-dasharray:2;" x1="99.84" y1="31.655" x2="48.522" y2="64.971"/>
		<g>
			<path style="fill:#FFFFFF;" d="M27.666,90.344l9.126-4.883c0,0,2.203-0.709,2.753-2.021c1.208-2.881-0.582-9.862-2.366-11.881
				l-1.89-0.05c0,0,6.898-1.734,8.13-2.941l-1.348-0.316c0,0,2.624,1.101,4.197-0.054c4.327-3.175-1.736-11.436-3.809-13.848
				s-7.636-7.105-8.818-10.776c-1.182-3.672-1.732-2.36-0.056-8.734c1.676-6.375-2.688-27.986-4.081-34.832L10.422,10.453
				l10.515,107.828c0,0,4.747-1.366,6.686-4.908c1.939-3.542,0.232-8.341,0.126-12.197c-0.106-3.856,6.607-6.666,7.262-8.659
				c0.655-1.994-1.654-5.14-1.654-5.14"/>
			<path style="fill:none;stroke:#000000;stroke-width:0.3;" d="M29.292,0.03c1.394,6.845,5.757,28.457,4.081,34.831
				s-1.125,5.063,0.056,8.734c1.182,3.672,6.745,8.365,8.818,10.777s8.136,10.672,3.81,13.848c-1.574,1.155-4.197,0.054-4.197,0.054
				"/>
			<path style="fill:none;stroke:#000000;stroke-width:0.3;" d="M43.207,68.59c-1.232,1.207-8.13,2.941-8.13,2.941"/>
			<path style="fill:none;stroke:#000000;stroke-width:0.3;" d="M35.954,71.926c1.785,2.019,1.589,8.933,2.366,11.881
				c0.362,1.375-4.788,3.649-4.788,3.649l-7.396,0.345l-1.812-0.496l-0.905-0.324"/>
			<path style="fill:none;stroke:#000000;stroke-width:0.3;" d="M33.145,87.399c0,0,2.31,3.147,1.655,5.141
				s-7.369,4.803-7.262,8.659c0.106,3.856,1.813,8.655-0.126,12.197c-1.939,3.542-6.687,4.908-6.687,4.908"/>
			
				<ellipse transform="matrix(-0.1516 0.9884 -0.9884 -0.1516 79.4281 33.0061)" style="fill:none;stroke:#000000;stroke-width:0.3;" cx="25.55" cy="50.589" rx="14.393" ry="3.171"/> 
			<path style="fill:none;stroke:#000000;stroke-width:0.3;" d="M35.229,45.971c1.283-5.615,3.089-9.533,4.479-9.32
				c1.731,0.266,2.157,6.851,0.952,14.708c-0.052,0.337-0.105,0.671-0.162,1.001"/>
			<line style="fill:none;stroke:#000000;stroke-width:0.3;" x1="23.383" y1="43.102" x2="0.002" y2="42.779"/>
		</g>
		<g>
			<text transform="matrix(1 0 0 1 112.3262 70.7148)"><tspan x="0" y="0" style="font-family:Liberation Sans; font-size:7.650000;">a</tspan></text>
		</g>
		<g>
			<text transform="matrix(1 0 0 1 111.813 93.4375)"><tspan x="0" y="0" style="font-family:Liberation Sans; font-size:7.650000;">b</tspan></text>
		</g>
		<g>
			<text transform="matrix(1 0 0 1 85.2319 73.4243)"><tspan x="0" y="0" style="font-family:Liberation Sans; font-size:7.650000;">c</tspan></text>
		</g>
		<path style="fill:none;stroke:#000000;" d="M111.392,3.145c-9.638,16.466-15.163,35.632-15.163,56.089
			c0,20.795,5.709,40.257,15.645,56.904"/>
	</g>
</svg>
