<?xml version="1.0" encoding="iso-8859-1"?>
<!-- Generator: Adobe Illustrator 11 Build 196, SVG Export Plug-In . SVG Version: 6.0.0 Build 78)  -->
<!DOCTYPE svg PUBLIC "-//W3C//DTD SVG 1.0//EN"    "http://www.w3.org/TR/2001/REC-SVG-20010904/DTD/svg10.dtd" [
	<!ENTITY ns_flows "http://ns.adobe.com/Flows/1.0/">
	<!ENTITY ns_svg "http://www.w3.org/2000/svg">
	<!ENTITY ns_xlink "http://www.w3.org/1999/xlink">
]>
<svg
	 width="82.935" height="107.323" viewBox="0 0 82.935 107.323" style="overflow:visible;enable-background:new 0 0 82.935 107.323"
	 xml:space="preserve">
	<style type="text/css">
	
	</style>
	<g id="Layer_1">
		<rect x="33.762" y="49.823" style="fill:none;stroke:#000000;" width="9" height="57"/> 
		<g>
			<ellipse style="fill:none;stroke:#000000;" cx="5.804" cy="85.846" rx="5.303" ry="1.909"/> 
			<line style="fill:none;stroke:#000000;" x1="0.5" y1="85.846" x2="0.5" y2="104.296"/>
			<line style="fill:none;stroke:#000000;" x1="11.107" y1="85.846" x2="11.107" y2="102.496"/>
			<path style="fill:#DCDCDC;stroke:#000000;" d="M7.791,71.596c1.314-6.043-5.4,7.8-2.4,10.2
				C8.391,84.196,6.291,78.496,7.791,71.596z"/>
			<line style="fill:#DCDCDC;stroke:#000000;" x1="5.798" y1="85.846" x2="5.391" y2="81.796"/>
		</g>
		<polyline style="fill:none;stroke:#000000;" points="9.908,80.781 33.658,54.115 42.741,51.115 "/>
		<line style="fill:none;stroke:#000000;" x1="42.741" y1="51.115" x2="66.074" y2="26.448"/>
		<g>
			<text transform="matrix(1 0 0 1 47.4077 96.1145)"><tspan x="0" y="0" style="font-family:Liberation Sans; font-size:7.650000;">glass</tspan></text>
		</g>
		<line style="fill:none;stroke:#000000;" x1="9.908" y1="71.281" x2="53.741" y2="23.781"/>
		<g>
			<path style="fill:none;stroke:#000000;stroke-width:1.7;" d="M82.56,0.763c-14.781,7.27-21.793,13.684-20.332,15.507"/>
			<path style="fill:none;stroke:#000000;stroke-width:1.19;" d="M76.91,7.856c-2.59,6.216-5.045,8.977-6.047,10.529
				c-1.001,1.552-4.371-3.146-4.371-3.146c3.56-2.81,13.75-9.485,13.75-9.485s-2.871,10.798-7.096,14.704"/>
			<path style="fill:none;stroke:#000000;stroke-width:1.19;" d="M67.705,15.984c1.845-0.555,2.72-0.067,1.885,1.967"/>
		</g>
	</g>
</svg>
