<?xml version="1.0" encoding="UTF-8" standalone="no"?>
<!-- Generator: Adobe Illustrator 11 Build 196, SVG Export Plug-In . SVG Version: 6.0.0 Build 78)  -->
<svg
   xmlns:dc="http://purl.org/dc/elements/1.1/"
   xmlns:cc="http://web.resource.org/cc/"
   xmlns:rdf="http://www.w3.org/1999/02/22-rdf-syntax-ns#"
   xmlns:svg="http://www.w3.org/2000/svg"
   xmlns="http://www.w3.org/2000/svg"
   xmlns:sodipodi="http://inkscape.sourceforge.net/DTD/sodipodi-0.dtd"
   xmlns:inkscape="http://www.inkscape.org/namespaces/inkscape"
   width="129.836"
   height="126.928"
   viewBox="0 0 129.836 126.928"
   style="overflow:visible;enable-background:new 0 0 129.836 126.928"
   xml:space="preserve"
   id="svg2"
   sodipodi:version="0.32"
   sodipodi:docname="di-and-do.svg"
   sodipodi:docbase="/home/bcrowell/Documents/writing/lm/trunk/5op/ch03/figs"><metadata
   id="metadata76"><rdf:RDF><cc:Work
       rdf:about=""><dc:format>image/svg+xml</dc:format><dc:type
         rdf:resource="http://purl.org/dc/dcmitype/StillImage" /></cc:Work></rdf:RDF></metadata><defs
   id="defs74">
		
		
		
		
		
		
		
		
		
		
		
	
			
			
			
			
			
			
				 
			
			
		</defs><sodipodi:namedview
   inkscape:cy="86.507927"
   inkscape:cx="125.69093"
   inkscape:zoom="3.6739534"
   inkscape:window-height="996"
   inkscape:window-width="1278"
   inkscape:pageshadow="2"
   inkscape:pageopacity="0.0"
   borderopacity="1.0"
   bordercolor="#666666"
   pagecolor="#ffffff"
   id="base"
   inkscape:window-x="0"
   inkscape:window-y="0"
   inkscape:current-layer="svg2" />
	<style
   type="text/css"
   id="style4">
	
	</style>
	<rect
   style="fill:#dedede;fill-opacity:1.0000000;fill-rule:evenodd;stroke:none;stroke-width:1.0000000pt;stroke-linecap:butt;stroke-linejoin:miter;stroke-opacity:1.0000000"
   id="rect1374"
   width="159.27637"
   height="94.957542"
   x="-16.283846"
   y="-2.8338900" /><path
   style="fill:#aaaaaa;fill-opacity:1.0000000"
   d="M 123.74400,44.891000 C 123.74400,44.891000 123.31900,45.471000 123.43900,45.837000 C 123.55900,46.204000 124.79400,46.721000 124.77500,47.431000 C 124.75500,48.140000 124.44100,49.024000 124.79800,49.676000 C 125.15500,50.328000 126.02800,50.579000 126.02800,50.579000 L 129.73200,50.505000 L 129.73200,28.797000 L 124.45200,28.811000 C 124.19500,30.071000 123.39200,34.049000 123.70100,35.222000 C 124.01000,36.395000 123.90800,36.154000 123.69000,36.829000 C 123.47200,37.505000 122.44900,38.369000 122.06700,38.812000 C 121.68500,39.256000 120.57000,40.776000 121.36600,41.361000 C 121.65600,41.573000 121.94900,41.468000 121.94900,41.468000 L 123.22500,42.043000 C 122.89700,42.415000 122.93200,43.687000 122.78900,44.230000 C 122.72300,44.483000 123.67100,44.902000 123.67100,44.902000 L 123.86500,44.911000"
   id="path9" /><path
   style="fill:none"
   d="M 124.74200,45.514000 L 123.06200,44.615000 C 123.06200,44.615000 122.65700,44.485000 122.55600,44.243000 C 122.33300,43.713000 122.66200,42.428000 122.99100,42.056000 L 123.34000,42.047000 C 123.34000,42.047000 122.07000,41.728000 121.84300,41.506000 L 122.09100,41.448000 C 122.09100,41.448000 121.60900,41.651000 121.31900,41.438000 C 120.52300,40.854000 121.63900,39.334000 122.02000,38.890000 C 122.40200,38.446000 123.42600,37.582000 123.64300,36.907000 C 123.86100,36.231000 123.96100,36.472000 123.65300,35.300000 C 123.34500,34.127000 124.14800,30.149000 124.40500,28.889000 L 127.91700,30.811000 L 125.98100,50.656000 C 125.98100,50.656000 125.10700,50.405000 124.75100,49.753000 C 124.39500,49.101000 124.70800,48.218000 124.72900,47.508000 C 124.74800,46.799000 123.51200,46.281000 123.39200,45.914000 C 123.27100,45.547000 123.69700,44.968000 123.69700,44.968000"
   id="path11" /><path
   style="fill:none;stroke:#000000;stroke-width:0.30000001"
   d="M 124.44300,28.892000 C 124.18600,30.152000 123.38200,34.129000 123.69100,35.303000 C 124.00000,36.476000 123.89900,36.235000 123.68100,36.910000 C 123.46300,37.585000 122.44000,38.450000 122.05800,38.893000 C 121.67600,39.336000 120.56100,40.857000 121.35700,41.442000 C 121.64600,41.654000 121.94000,41.549000 121.94000,41.549000"
   id="path13" /><path
   style="fill:none;stroke:#000000;stroke-width:0.30000001"
   d="M 123.21700,42.124000 C 122.88900,42.496000 122.92500,43.768000 122.78100,44.311000 C 122.71500,44.564000 123.66200,44.983000 123.66200,44.983000 L 125.02300,45.046000 L 125.35700,44.955000 L 125.52300,44.895000"
   id="path15" /><path
   style="fill:none;stroke:#000000;stroke-width:0.30000001"
   d="M 123.73400,44.972000 C 123.73400,44.972000 123.30800,45.551000 123.42900,45.918000 C 123.54900,46.285000 124.78400,46.802000 124.76500,47.512000 C 124.74500,48.221000 124.43100,49.105000 124.78800,49.757000 C 125.14500,50.409000 126.01800,50.660000 126.01800,50.660000"
   id="path17" /><ellipse
   transform="matrix(0.151500,0.988500,-0.988500,0.151500,143.9283,-91.27760)"
   style="fill:none;stroke:#000000;stroke-width:0.30000001"
   cx="125.13200"
   cy="38.196999"
   rx="2.6489999"
   ry="0.58399999"
   id="ellipse19"
   sodipodi:cx="125.13200"
   sodipodi:cy="38.196999"
   sodipodi:rx="2.6489999"
   sodipodi:ry="0.58399999" /><path
   style="fill:none;stroke:#000000;stroke-width:0.30000001"
   d="M 123.35000,37.347000 C 123.11500,36.314000 122.78200,35.593000 122.52600,35.632000 C 122.20800,35.681000 122.13000,36.893000 122.35100,38.339000 C 122.36100,38.401000 122.37100,38.463000 122.38100,38.524000"
   id="path21" /><line
   style="fill:none;stroke:#000000;stroke-width:0.30000001"
   x1="125.53100"
   y1="36.819000"
   x2="129.83400"
   y2="36.758999"
   id="line23" /><g
   id="g25">
			<path
   id="path27"
   d="M 48.229000,37.833000 L 49.507000,38.517000 C 49.507000,38.517000 49.816000,38.616000 49.892000,38.800000 C 50.061000,39.204000 49.811000,40.181000 49.561000,40.464000 L 49.296000,40.471000 C 49.296000,40.471000 50.262000,40.714000 50.435000,40.883000 L 50.246000,40.927000 C 50.246000,40.927000 50.613000,40.773000 50.834000,40.935000 C 51.440000,41.379000 50.591000,42.537000 50.300000,42.874000 C 50.009000,43.211000 49.231000,43.869000 49.065000,44.383000 C 48.899000,44.897000 48.822000,44.714000 49.057000,45.606000 C 49.291000,46.499000 48.681000,49.526000 48.485000,50.484000 L 45.813000,49.021000 L 47.286000,33.918000 C 47.286000,33.918000 47.951000,34.109000 48.223000,34.606000 C 48.494000,35.102000 48.255000,35.774000 48.241000,36.314000 C 48.226000,36.854000 49.166000,37.248000 49.258000,37.527000 C 49.350000,37.806000 49.026000,38.247000 49.026000,38.247000"
   style="fill:none" />
			<path
   id="path29"
   d="M 48.457000,50.482000 C 48.652000,49.524000 49.264000,46.496000 49.029000,45.604000 C 48.794000,44.711000 48.871000,44.895000 49.037000,44.381000 C 49.203000,43.866000 49.982000,43.209000 50.272000,42.872000 C 50.563000,42.534000 51.412000,41.377000 50.806000,40.932000 C 50.586000,40.770000 50.363000,40.850000 50.363000,40.850000 L 49.391000,40.412000 C 49.641000,40.129000 49.614000,39.161000 49.723000,38.748000 C 49.774000,38.556000 49.053000,38.237000 49.053000,38.237000 L 48.017000,38.189000 L 47.763000,38.259000 L 47.637000,38.304000"
   style="fill:none;stroke:#000000;stroke-width:0.30000001" />
			<path
   id="path31"
   d="M 48.996000,38.245000 C 48.996000,38.245000 49.320000,37.804000 49.228000,37.525000 C 49.136000,37.246000 48.196000,36.852000 48.211000,36.312000 C 48.226000,35.772000 48.465000,35.100000 48.193000,34.604000 C 47.921000,34.108000 47.256000,33.916000 47.256000,33.916000"
   style="fill:none;stroke:#000000;stroke-width:0.30000001" />
			
				<ellipse
   sodipodi:ry="0.44400001"
   sodipodi:rx="2.0160000"
   sodipodi:cy="43.401001"
   sodipodi:cx="47.932999"
   id="ellipse33"
   ry="0.44400001"
   rx="2.0160000"
   cy="43.401001"
   cx="47.932999"
   style="fill:none;stroke:#000000;stroke-width:0.30000001"
   transform="matrix(-0.151600,-0.988400,0.988400,-0.151600,12.30230,97.36020)" /> 
			<path
   id="path35"
   d="M 49.289000,44.047000 C 49.468000,44.834000 49.722000,45.382000 49.916000,45.353000 C 50.159000,45.316000 50.218000,44.394000 50.049000,43.293000 C 50.042000,43.246000 50.034000,43.199000 50.027000,43.153000"
   style="fill:none;stroke:#000000;stroke-width:0.30000001" />
			<line
   id="line37"
   y2="44.494999"
   x2="44.354000"
   y1="44.449001"
   x1="47.629002"
   style="fill:none;stroke:#000000;stroke-width:0.30000001" />
		</g><path
   id="path39"
   d="M 11.467000,0.25200000 C 4.4960000,12.163000 0.50000000,26.026000 0.50000000,40.823000 C 0.50000000,55.865000 4.6290000,69.942000 11.816000,81.983000"
   style="fill:none;stroke:#000000" /><line
   id="line41"
   y2="2.9570000"
   x2="9.9910002"
   y1="41.090000"
   x1="50.722000"
   style="fill:none;stroke:#000000;stroke-width:0.50000000" /><line
   id="line43"
   y2="41.019001"
   x2="121.12000"
   y1="2.9570000"
   x1="9.9910002"
   style="fill:none;stroke:#000000;stroke-width:0.50000000" /><line
   id="line45"
   y2="41.118999"
   x2="121.35700"
   y1="41.118999"
   x1="0.58800000"
   style="fill:none;stroke:#000000;stroke-width:0.50000000" /><line
   id="line47"
   y2="40.967999"
   x2="9.9910002"
   y1="2.9570000"
   x1="9.9910002"
   style="fill:none;stroke:#000000;stroke-width:0.50000000" /><g
   id="g49"
   transform="matrix(0.883932,0.000000,0.000000,1.000000,1.316099,-34.00000)">
			<path
   id="path51"
   d="M 11.839000,87.279000 C 13.889000,96.274000 32.336000,88.664000 33.617000,93.507000"
   style="fill:none;stroke:#000000" />
			<path
   id="path53"
   d="M 55.395000,87.279000 C 53.345000,96.274000 34.898000,88.664000 33.617000,93.507000"
   style="fill:none;stroke:#000000" />
		</g><g
   id="g55"
   transform="translate(0.000000,-34.00000)">
			<path
   id="path57"
   d="M 11.856000,106.62700 C 16.717000,115.62000 60.467000,108.01100 63.505000,112.85300"
   style="fill:none;stroke:#000000" />
			<path
   id="path59"
   d="M 115.15400,106.62700 C 110.29300,115.62000 66.543000,108.01100 63.505000,112.85300"
   style="fill:none;stroke:#000000" />
		</g><text
   id="text61"
   x="59.506302"
   y="86.451698"><tspan
     id="tspan63"
     style="font-size:7.6500001px;font-family:Liberation Sans"
     y="86.451698"
     x="59.506302">d</tspan><tspan
     id="tspan65"
     style="font-size:6.8000002px;font-family:Liberation Sans"
     y="88.911697"
     x="64.511299">o</tspan></text>

<text
   id="text67"
   x="30.6401"
   y="68.638199"><tspan
     id="tspan69"
     style="font-size:7.6500001px;font-family:Liberation Sans"
     y="68.638199"
     x="30.6401">d</tspan><tspan
     id="tspan71"
     style="font-size:6.8000002px;font-family:Liberation Sans"
     y="71.098198"
     x="35.6451">i</tspan></text>


</svg>