<?xml version="1.0" encoding="UTF-8" standalone="no"?>
<!-- Generator: Adobe Illustrator 11 Build 196, SVG Export Plug-In . SVG Version: 6.0.0 Build 78)  -->
<svg
   xmlns:dc="http://purl.org/dc/elements/1.1/"
   xmlns:cc="http://web.resource.org/cc/"
   xmlns:rdf="http://www.w3.org/1999/02/22-rdf-syntax-ns#"
   xmlns:svg="http://www.w3.org/2000/svg"
   xmlns="http://www.w3.org/2000/svg"
   xmlns:sodipodi="http://inkscape.sourceforge.net/DTD/sodipodi-0.dtd"
   xmlns:inkscape="http://www.inkscape.org/namespaces/inkscape"
   width="147.276"
   height="113.687"
   viewBox="0 0 147.276 113.687"
   style="overflow:visible;enable-background:new 0 0 147.276 113.687"
   xml:space="preserve"
   id="svg2"
   sodipodi:version="0.32"
   sodipodi:docname="double-slit-overlapping.svg"
   sodipodi:docbase="/home/bcrowell/Documents/writing/lm/trunk/5op/ch05/figs"><metadata
   id="metadata160"><rdf:RDF><cc:Work
       rdf:about=""><dc:format>image/svg+xml</dc:format><dc:type
         rdf:resource="http://purl.org/dc/dcmitype/StillImage" /></cc:Work></rdf:RDF></metadata><defs
   id="defs158">
		
		
		
		 
		 
		 
		
		
		
		
		
		
		
		
		
		
		
		
	
			
			
			
			
			
			
			
			
			
			
			
			
			
			
			
			
			
			
			
			
		</defs><sodipodi:namedview
   inkscape:cy="92.927322"
   inkscape:cx="86.824389"
   inkscape:zoom="1.6820194"
   inkscape:window-height="996"
   inkscape:window-width="1278"
   inkscape:pageshadow="2"
   inkscape:pageopacity="0.0"
   borderopacity="1.0"
   bordercolor="#666666"
   pagecolor="#ffffff"
   id="base"
   inkscape:window-x="0"
   inkscape:window-y="0"
   inkscape:current-layer="svg2" />
	<style
   type="text/css"
   id="style4">
	
	</style>
	<polygon
   id="polygon7"
   points="147.27600,30.222000 146.95800,97.367000 0.0000000,97.367000 0.31700000,30.222000 147.27600,30.222000 "
   style="fill:#b4b4b4"
   transform="matrix(1.000000,0.000000,0.000000,1.406593,-1.220091e-22,-25.32020)" /><rect
   id="rect93"
   height="5.8979998"
   width="57.785000"
   y="91.542999"
   x="0.15300000" /><rect
   id="rect95"
   height="5.8979998"
   width="57.806000"
   y="91.542999"
   x="89.306000" /><rect
   id="rect97"
   height="5.8979998"
   width="20.708000"
   y="91.542999"
   x="63.278999" /><g
   id="g135">
			<line
   id="line137"
   y2="100.50400"
   x2="84.716003"
   y1="100.50400"
   x1="62.966000"
   style="fill:none;stroke:#000000;stroke-width:0.50000000" />
			<path
   id="path139"
   d="M 86.225000,100.50400 C 85.515000,100.76700 84.634000,101.21700 84.088000,101.69200 L 84.518000,100.50400 L 84.088000,99.315000 C 84.634000,99.791000 85.515000,100.24000 86.225000,100.50400 z " />
			<path
   id="path141"
   d="M 61.457000,100.50400 C 62.167000,100.24000 63.048000,99.791000 63.594000,99.315000 L 63.164000,100.50400 L 63.594000,101.69200 C 63.048000,101.21700 62.167000,100.76700 61.457000,100.50400 z " />
		</g><line
   id="line143"
   y2="103.75400"
   x2="60.716000"
   y1="97.253998"
   x1="60.716000"
   style="fill:none;stroke:#000000;stroke-width:0.50000000" /><line
   id="line145"
   y2="103.75400"
   x2="86.966003"
   y1="97.253998"
   x1="86.966003"
   style="fill:none;stroke:#000000;stroke-width:0.50000000" /><g
   id="g147">
			<text
   id="text149"
   transform="translate(71.21580,109.6704)"><tspan
     id="tspan151"
     style="font-size:7.6500001px;font-family:Liberation Sans"
     y="0"
     x="0">d</tspan></text>

		</g><g
   id="g2281"
   transform="translate(4.000000,4.378442e-15)"><g
     style="opacity:0.72159094"
     transform="translate(-4.000000,4.378442e-15)"
     id="g9">
			<path
   style="fill:none;stroke:#ffffff"
   d="M 26.880000,91.742000 C 26.880000,58.728000 53.644000,31.964000 86.657000,31.964000 C 119.67000,31.964000 146.43500,58.728000 146.43500,91.742000"
   id="path11" />
			<path
   style="fill:none;stroke:#000000"
   d="M 83.668000,91.651000 C 83.668000,90.000000 85.006000,88.662000 86.657000,88.662000 C 88.308000,88.662000 89.646000,90.000000 89.646000,91.651000"
   id="path13" />
			<path
   style="fill:none;stroke:#ffffff"
   d="M 80.679000,91.723000 C 80.679000,88.422000 83.356000,85.745000 86.657000,85.745000 C 89.959000,85.745000 92.636000,88.422000 92.636000,91.723000"
   id="path15" />
			<path
   style="fill:none;stroke:#000000"
   d="M 77.691000,91.723000 C 77.691000,86.771000 81.706000,82.757000 86.657000,82.757000 C 91.609000,82.757000 95.623000,86.771000 95.623000,91.723000"
   id="path17" />
			<path
   style="fill:none;stroke:#ffffff"
   d="M 74.702000,91.745000 C 74.702000,85.142000 80.055000,79.789000 86.657000,79.789000 C 93.259000,79.789000 98.613000,85.142000 98.613000,91.745000"
   id="path19" />
			<path
   style="fill:none;stroke:#000000"
   d="M 71.713000,91.723000 C 71.713000,83.470000 78.404000,76.779000 86.657000,76.779000 C 94.910000,76.779000 101.60100,83.470000 101.60100,91.723000"
   id="path21" />
			<path
   style="fill:none;stroke:#ffffff"
   d="M 68.724000,91.745000 C 68.724000,81.841000 76.753000,73.811000 86.657000,73.811000 C 96.561000,73.811000 104.59100,81.840000 104.59100,91.745000"
   id="path23" />
			<path
   style="fill:none;stroke:#000000"
   d="M 65.735000,91.736000 C 65.735000,80.181000 75.103000,70.814000 86.657000,70.814000 C 98.212000,70.814000 107.58000,80.181000 107.58000,91.736000"
   id="path25" />
			<path
   style="fill:none;stroke:#ffffff"
   d="M 62.747000,91.745000 C 62.747000,78.539000 73.453000,67.834000 86.658000,67.834000 C 99.864000,67.834000 110.56900,78.539000 110.56900,91.745000"
   id="path27" />
			<path
   style="fill:none;stroke:#000000"
   d="M 59.758000,91.736000 C 59.758000,76.880000 71.801000,64.836000 86.657000,64.836000 C 101.51300,64.836000 113.55700,76.880000 113.55700,91.736000"
   id="path29" />
			<path
   style="fill:none;stroke:#ffffff"
   d="M 116.54600,91.745000 C 116.54600,75.238000 103.16400,61.856000 86.657000,61.856000 C 70.150000,61.856000 56.769000,75.238000 56.769000,91.745000"
   id="path31" />
			<path
   style="fill:none;stroke:#000000"
   d="M 53.779000,91.736000 C 53.779000,73.578000 68.499000,58.858000 86.657000,58.858000 C 104.81500,58.858000 119.53500,73.578000 119.53500,91.736000"
   id="path33" />
			<path
   style="fill:none;stroke:#ffffff"
   d="M 50.791000,91.742000 C 50.791000,71.933000 66.850000,55.875000 86.658000,55.875000 C 106.46700,55.875000 122.52500,71.934000 122.52500,91.742000"
   id="path35" />
			<path
   style="fill:none;stroke:#000000"
   d="M 47.802000,91.745000 C 47.802000,70.286000 65.198000,52.890000 86.657000,52.890000 C 108.11600,52.890000 125.51200,70.286000 125.51200,91.745000"
   id="path37" />
			<path
   style="fill:none;stroke:#ffffff"
   d="M 44.813000,91.742000 C 44.813000,68.632000 63.547000,49.898000 86.657000,49.898000 C 109.76700,49.898000 128.50100,68.632000 128.50100,91.742000"
   id="path39" />
			<path
   style="fill:none;stroke:#000000"
   d="M 41.824000,91.745000 C 41.824000,66.985000 61.897000,46.912000 86.657000,46.912000 C 111.41700,46.912000 131.49000,66.985000 131.49000,91.745000"
   id="path41" />
			<path
   style="fill:none;stroke:#ffffff"
   d="M 38.835000,91.742000 C 38.835000,65.331000 60.246000,43.920000 86.657000,43.920000 C 113.06800,43.920000 134.47900,65.331000 134.47900,91.742000"
   id="path43" />
			<path
   style="fill:none;stroke:#000000"
   d="M 35.846000,91.745000 C 35.846000,63.683000 58.596000,40.933000 86.657000,40.933000 C 114.71900,40.933000 137.46900,63.683000 137.46900,91.745000"
   id="path45" />
			<path
   style="fill:none;stroke:#ffffff"
   d="M 32.858000,91.742000 C 32.858000,62.030000 56.945000,37.943000 86.657000,37.943000 C 116.36900,37.943000 140.45600,62.030000 140.45600,91.742000"
   id="path47" />
			<path
   style="fill:none;stroke:#000000"
   d="M 29.869000,91.747000 C 29.869000,60.384000 55.294000,34.958000 86.657000,34.958000 C 118.02000,34.958000 143.44600,60.384000 143.44600,91.747000"
   id="path49" />
		</g><path
     id="path53"
     d="M -2.7600001,91.742000 C -2.7600001,58.728000 24.004000,31.965000 57.018000,31.965000 C 90.032000,31.965000 116.79500,58.729000 116.79500,91.742000"
     style="opacity:0.72159094;fill:none;stroke:#ffffff" /><path
     id="path55"
     d="M 54.028000,91.651000 C 54.028000,90.000000 55.366000,88.662000 57.017000,88.662000 C 58.667000,88.662000 60.006000,90.000000 60.006000,91.651000"
     style="opacity:0.72159094;fill:none;stroke:#000000" /><path
     id="path57"
     d="M 51.039000,91.723000 C 51.039000,88.422000 53.716000,85.745000 57.018000,85.745000 C 60.319000,85.745000 62.996000,88.422000 62.996000,91.723000"
     style="opacity:0.72159094;fill:none;stroke:#ffffff" /><path
     id="path59"
     d="M 48.051000,91.723000 C 48.051000,86.771000 52.065000,82.757000 57.017000,82.757000 C 61.969000,82.757000 65.983000,86.771000 65.983000,91.723000"
     style="opacity:0.72159094;fill:none;stroke:#000000" /><path
     id="path61"
     d="M 45.062000,91.745000 C 45.062000,85.142000 50.415000,79.789000 57.018000,79.789000 C 63.621000,79.789000 68.973000,85.142000 68.973000,91.745000"
     style="opacity:0.72159094;fill:none;stroke:#ffffff" /><path
     id="path63"
     d="M 42.073000,91.723000 C 42.073000,83.470000 48.763000,76.779000 57.017000,76.779000 C 65.270000,76.779000 71.961000,83.470000 71.961000,91.723000"
     style="opacity:0.72159094;fill:none;stroke:#000000" /><path
     id="path65"
     d="M 39.084000,91.745000 C 39.084000,81.841000 47.113000,73.811000 57.018000,73.811000 C 66.922000,73.811000 74.951000,81.840000 74.951000,91.745000"
     style="opacity:0.72159094;fill:none;stroke:#ffffff" /><path
     id="path67"
     d="M 36.095000,91.736000 C 36.095000,80.181000 45.463000,70.814000 57.018000,70.814000 C 68.573000,70.814000 77.940000,80.181000 77.940000,91.736000"
     style="opacity:0.72159094;fill:none;stroke:#000000" /><path
     id="path69"
     d="M 33.107000,91.745000 C 33.107000,78.539000 43.812000,67.834000 57.018000,67.834000 C 70.223000,67.834000 80.929000,78.539000 80.929000,91.745000"
     style="opacity:0.72159094;fill:none;stroke:#ffffff" /><path
     id="path71"
     d="M 30.118000,91.736000 C 30.118000,76.880000 42.161000,64.836000 57.018000,64.836000 C 71.874000,64.836000 83.917000,76.880000 83.917000,91.736000"
     style="opacity:0.72159094;fill:none;stroke:#000000" /><path
     id="path73"
     d="M 27.128000,91.745000 C 27.128000,75.238000 40.510000,61.856000 57.017000,61.856000 C 73.524000,61.856000 86.906000,75.238000 86.906000,91.745000"
     style="opacity:0.72159094;fill:none;stroke:#ffffff" /><path
     id="path75"
     d="M 24.140000,91.736000 C 24.140000,73.578000 38.860000,58.858000 57.018000,58.858000 C 75.175000,58.858000 89.895000,73.578000 89.895000,91.736000"
     style="opacity:0.72159094;fill:none;stroke:#000000" /><path
     id="path77"
     d="M 21.150000,91.742000 C 21.150000,71.934000 37.209000,55.875000 57.017000,55.875000 C 76.825000,55.875000 92.884000,71.934000 92.884000,91.742000"
     style="opacity:0.72159094;fill:none;stroke:#ffffff" /><path
     id="path79"
     d="M 18.163000,91.745000 C 18.163000,70.286000 35.559000,52.890000 57.018000,52.890000 C 78.476000,52.890000 95.873000,70.286000 95.873000,91.745000"
     style="opacity:0.72159094;fill:none;stroke:#000000" /><path
     id="path81"
     d="M 15.173000,91.742000 C 15.173000,68.633000 33.907000,49.898000 57.017000,49.898000 C 80.126000,49.898000 98.861000,68.632000 98.861000,91.742000"
     style="opacity:0.72159094;fill:none;stroke:#ffffff" /><path
     id="path83"
     d="M 12.184000,91.745000 C 12.184000,66.985000 32.257000,46.912000 57.017000,46.912000 C 81.777000,46.912000 101.85000,66.985000 101.85000,91.745000"
     style="opacity:0.72159094;fill:none;stroke:#000000" /><path
     id="path85"
     d="M 9.1949999,91.742000 C 9.1949999,65.331000 30.606000,43.920000 57.017000,43.920000 C 83.428000,43.920000 104.83900,65.331000 104.83900,91.742000"
     style="opacity:0.72159094;fill:none;stroke:#ffffff" /><path
     id="path87"
     d="M 6.2059998,91.745000 C 6.2059998,63.683000 28.956000,40.933000 57.018000,40.933000 C 85.080000,40.933000 107.82900,63.683000 107.82900,91.745000"
     style="opacity:0.72159094;fill:none;stroke:#000000" /><path
     id="path89"
     d="M 3.2179998,91.742000 C 3.2179998,62.030000 27.305000,37.943000 57.018000,37.943000 C 86.730000,37.943000 110.81700,62.030000 110.81700,91.742000"
     style="opacity:0.72159094;fill:none;stroke:#ffffff" /><path
     id="path91"
     d="M 0.22899984,91.747000 C 0.22899984,60.384000 25.654000,34.958000 57.018000,34.958000 C 88.381000,34.958000 113.80600,60.384000 113.80600,91.747000"
     style="opacity:0.72159094;fill:none;stroke:#000000" /><path
     style="opacity:0.72159094;fill:none;stroke:#ffffff"
     d="M 55.877000,91.854000 C 56.490000,91.299000 57.245000,91.481000 57.631000,91.947000"
     id="path153" /><path
     style="opacity:0.72159094;fill:none;stroke:#ffffff"
     d="M 81.904000,92.147000 C 82.513000,91.577000 83.269000,91.741000 83.658000,92.197000"
     id="path155" /></g>
<g
   id="g99"
   transform="translate(-0.315294,16.50037)">
			<line
   id="line101"
   y2="14.079000"
   x2="74.362000"
   y1="30.298000"
   x1="74.362000"
   style="fill:none;stroke:#000000" />
			<path
   id="path103"
   d="M 74.362000,11.112000 C 74.880000,12.508000 75.764000,14.240000 76.699000,15.313000 L 74.362000,14.468000 L 72.025000,15.313000 C 72.960000,14.240000 73.844000,12.508000 74.362000,11.112000 z " />
		</g><g
   id="g105"
   transform="translate(-2.732546,16.39527)">
			<line
   id="line107"
   y2="14.476000"
   x2="83.809998"
   y1="30.608999"
   x1="82.137001"
   style="fill:none;stroke:#000000" />
			<path
   id="path109"
   d="M 84.116000,11.525000 C 84.487000,12.967000 85.188000,14.780000 86.008000,15.944000 L 83.771000,14.862000 L 81.359000,15.462000 C 82.399000,14.492000 83.457000,12.860000 84.116000,11.525000 z " />
		</g><g
   id="g111"
   transform="translate(-4.203916,16.39527)">
			<line
   id="line113"
   y2="15.439000"
   x2="92.893997"
   y1="31.313000"
   x1="89.565002"
   style="fill:none;stroke:#000000" />
			<path
   id="path115"
   d="M 93.502000,12.536000 C 93.723000,14.008000 94.232000,15.885000 94.927000,17.127000 L 92.813000,15.820000 L 90.353000,16.168000 C 91.489000,15.309000 92.709000,13.795000 93.502000,12.536000 z " />
		</g><g
   id="g117"
   transform="translate(-0.315294,16.50037)">
			<text
   id="text119"
   transform="translate(71.24900,9.000000)"><tspan
     id="tspan121"
     style="font-size:7.6500001px;font-family:Liberation Sans"
     y="0"
     x="0">X</tspan></text>

		</g><g
   id="g123"
   transform="translate(-1.576468,17.02586)">
			<text
   id="text125"
   transform="translate(81.32470,9.082000)"><tspan
     id="tspan127"
     style="font-size:7.6500001px;font-family:Liberation Sans"
     y="0"
     x="0">Y</tspan></text>

		</g><g
   id="g129"
   transform="translate(-3.363133,16.50037)">
			<text
   id="text131"
   transform="translate(91.42090,10.51560)"><tspan
     id="tspan133"
     style="font-size:7.6500001px;font-family:Liberation Sans"
     y="0"
     x="0">Z</tspan></text>

		</g></svg>