<?xml version="1.0" encoding="iso-8859-1"?>
<!-- Generator: Adobe Illustrator 11 Build 196, SVG Export Plug-In . SVG Version: 6.0.0 Build 78)  -->
<!DOCTYPE svg PUBLIC "-//W3C//DTD SVG 1.0//EN"    "http://www.w3.org/TR/2001/REC-SVG-20010904/DTD/svg10.dtd" [
	<!ENTITY ns_flows "http://ns.adobe.com/Flows/1.0/">
	<!ENTITY ns_svg "http://www.w3.org/2000/svg">
	<!ENTITY ns_xlink "http://www.w3.org/1999/xlink">
]>
<svg
	 width="147.859" height="208.887" viewBox="0 0 147.859 208.887"
	 style="overflow:visible;enable-background:new 0 0 147.859 208.887" xml:space="preserve">
	<style type="text/css">
	
	</style>
	<g id="Layer_1">
		<polygon style="fill:#B4B4B4;" points="147.276,21.293 146.958,88.438 0,88.438 0.317,21.293 "/>
		<g>
			<path style="fill:none;stroke:#FFFFFF;" d="M26.88,82.813c0-33.014,26.764-59.777,59.777-59.777s59.777,26.764,59.777,59.777"/>
			<path style="fill:none;stroke:#000000;" d="M83.668,82.722c0-1.651,1.338-2.989,2.989-2.989s2.989,1.338,2.989,2.989"/>
			<path style="fill:none;stroke:#FFFFFF;" d="M80.679,82.794c0-3.301,2.677-5.978,5.978-5.978c3.302,0,5.978,2.677,5.978,5.978"/>
			<path style="fill:none;stroke:#000000;" d="M77.691,82.794c0-4.952,4.015-8.966,8.966-8.966c4.952,0,8.966,4.015,8.966,8.966"/>
			<path style="fill:none;stroke:#FFFFFF;" d="M74.702,82.816c0-6.603,5.353-11.956,11.955-11.956s11.956,5.353,11.956,11.956"/>
			<path style="fill:none;stroke:#000000;" d="M71.713,82.794c0-8.253,6.691-14.944,14.944-14.944s14.944,6.691,14.944,14.944"/>
			<path style="fill:none;stroke:#FFFFFF;" d="M68.724,82.816c0-9.904,8.029-17.934,17.933-17.934s17.934,8.029,17.934,17.934"/>
			<path style="fill:none;stroke:#000000;" d="M65.735,82.807c0-11.555,9.367-20.923,20.922-20.923s20.922,9.368,20.922,20.923"/>
			<path style="fill:none;stroke:#FFFFFF;" d="M62.747,82.816c0-13.206,10.706-23.911,23.911-23.911
				c13.206,0,23.911,10.705,23.911,23.911"/>
			<path style="fill:none;stroke:#000000;" d="M59.758,82.807c0-14.856,12.043-26.9,26.899-26.9c14.856,0,26.9,12.043,26.9,26.9"/>
			<path style="fill:none;stroke:#FFFFFF;" d="M116.546,82.816c0-16.507-13.382-29.889-29.889-29.889S56.769,66.31,56.769,82.816"/>
			<path style="fill:none;stroke:#000000;" d="M53.779,82.807c0-18.158,14.72-32.878,32.878-32.878s32.878,14.72,32.878,32.878"/>
			<path style="fill:none;stroke:#FFFFFF;" d="M50.791,82.813c0-19.808,16.059-35.867,35.867-35.867
				c19.809,0,35.867,16.059,35.867,35.867"/>
			<path style="fill:none;stroke:#000000;" d="M47.802,82.816c0-21.459,17.396-38.855,38.855-38.855
				c21.459,0,38.855,17.396,38.855,38.855"/>
			<path style="fill:none;stroke:#FFFFFF;" d="M44.813,82.813c0-23.109,18.734-41.844,41.844-41.844s41.844,18.734,41.844,41.844"/>
			<path style="fill:none;stroke:#000000;" d="M41.824,82.816c0-24.76,20.073-44.833,44.833-44.833s44.833,20.073,44.833,44.833"/>
			<path style="fill:none;stroke:#FFFFFF;" d="M38.835,82.813c0-26.411,21.411-47.822,47.822-47.822s47.822,21.411,47.822,47.822"/>
			<path style="fill:none;stroke:#000000;" d="M35.846,82.816c0-28.062,22.75-50.812,50.811-50.812
				c28.062,0,50.812,22.75,50.812,50.812"/>
			<path style="fill:none;stroke:#FFFFFF;" d="M32.858,82.813c0-29.712,24.087-53.799,53.799-53.799
				c29.712,0,53.799,24.087,53.799,53.799"/>
			<path style="fill:none;stroke:#000000;" d="M29.869,82.818c0-31.363,25.425-56.789,56.788-56.789
				c31.363,0,56.789,25.426,56.789,56.789"/>
		</g>
		<g>
			<path style="fill:none;stroke:#FFFFFF;" d="M1.24,82.813c0-33.014,26.764-59.777,59.778-59.777
				c33.014,0,59.777,26.764,59.777,59.777"/>
			<path style="fill:none;stroke:#000000;" d="M58.028,82.722c0-1.651,1.338-2.989,2.989-2.989c1.65,0,2.989,1.338,2.989,2.989"/>
			<path style="fill:none;stroke:#FFFFFF;" d="M55.04,82.794c0-3.301,2.676-5.978,5.978-5.978c3.301,0,5.978,2.677,5.978,5.978"/>
			<path style="fill:none;stroke:#000000;" d="M52.051,82.794c0-4.952,4.014-8.966,8.966-8.966c4.952,0,8.966,4.015,8.966,8.966"/>
			<path style="fill:none;stroke:#FFFFFF;" d="M49.062,82.816c0-6.603,5.353-11.956,11.956-11.956
				c6.603,0,11.955,5.353,11.955,11.956"/>
			<path style="fill:none;stroke:#000000;" d="M46.073,82.794c0-8.253,6.691-14.944,14.945-14.944
				c8.253,0,14.944,6.691,14.944,14.944"/>
			<path style="fill:none;stroke:#FFFFFF;" d="M43.084,82.816c0-9.904,8.029-17.934,17.934-17.934
				c9.904,0,17.933,8.029,17.933,17.934"/>
			<path style="fill:none;stroke:#000000;" d="M40.095,82.807c0-11.555,9.368-20.923,20.923-20.923
				c11.555,0,20.922,9.368,20.922,20.923"/>
			<path style="fill:none;stroke:#FFFFFF;" d="M37.107,82.816c0-13.206,10.705-23.911,23.911-23.911
				c13.205,0,23.911,10.705,23.911,23.911"/>
			<path style="fill:none;stroke:#000000;" d="M34.118,82.807c0-14.856,12.043-26.9,26.9-26.9c14.856,0,26.899,12.043,26.899,26.9"
				/>
			<path style="fill:none;stroke:#FFFFFF;" d="M31.128,82.816c0-16.507,13.382-29.889,29.889-29.889
				c16.507,0,29.889,13.382,29.889,29.889"/>
			<path style="fill:none;stroke:#000000;" d="M28.14,82.807c0-18.158,14.72-32.878,32.878-32.878
				c18.157,0,32.877,14.72,32.877,32.878"/>
			<path style="fill:none;stroke:#FFFFFF;" d="M25.15,82.813c0-19.808,16.059-35.867,35.867-35.867
				c19.808,0,35.867,16.059,35.867,35.867"/>
			<path style="fill:none;stroke:#000000;" d="M22.163,82.816c0-21.459,17.396-38.855,38.855-38.855
				c21.458,0,38.855,17.396,38.855,38.855"/>
			<path style="fill:none;stroke:#FFFFFF;" d="M19.173,82.813c0-23.109,18.734-41.844,41.844-41.844
				c23.109,0,41.844,18.734,41.844,41.844"/>
			<path style="fill:none;stroke:#000000;" d="M16.185,82.816c0-24.76,20.073-44.833,44.833-44.833s44.833,20.073,44.833,44.833"/>
			<path style="fill:none;stroke:#FFFFFF;" d="M13.195,82.813c0-26.411,21.411-47.822,47.822-47.822
				c26.411,0,47.822,21.411,47.822,47.822"/>
			<path style="fill:none;stroke:#000000;" d="M10.206,82.816c0-28.062,22.75-50.812,50.812-50.812
				c28.062,0,50.811,22.75,50.811,50.812"/>
			<path style="fill:none;stroke:#FFFFFF;" d="M7.218,82.813c0-29.712,24.087-53.799,53.8-53.799
				c29.712,0,53.799,24.087,53.799,53.799"/>
			<path style="fill:none;stroke:#000000;" d="M4.229,82.818c0-31.363,25.425-56.789,56.789-56.789
				c31.363,0,56.788,25.426,56.788,56.789"/>
		</g>
		<rect x="0.153" y="82.614" width="57.785" height="5.898"/> 
		<rect x="89.306" y="82.614" width="57.806" height="5.898"/> 
		<rect x="63.279" y="82.614" width="20.708" height="5.898"/> 
		<g>
			<line style="fill:none;stroke:#000000;stroke-width:0.5;" x1="62.966" y1="91.575" x2="84.716" y2="91.575"/>
			<path d="M86.225,91.575c-0.71,0.264-1.591,0.713-2.137,1.189l0.43-1.189l-0.43-1.188C84.634,90.862,85.515,91.312,86.225,91.575z
				"/>
			<path d="M61.457,91.575c0.71-0.263,1.591-0.713,2.137-1.188l-0.43,1.188l0.43,1.189C63.048,92.288,62.167,91.838,61.457,91.575z"
				/>
		</g>
		<line style="fill:none;stroke:#000000;stroke-width:0.5;" x1="60.716" y1="88.325" x2="60.716" y2="94.825"/>
		<line style="fill:none;stroke:#000000;stroke-width:0.5;" x1="86.966" y1="88.325" x2="86.966" y2="94.825"/>
		<g>
			<text transform="matrix(1 0 0 1 71.2158 100.7417)"><tspan x="0" y="0" style="font-family:Liberation Sans; font-size:7.650000;">d</tspan></text>
		</g>
		<path style="fill:none;stroke:#FFFFFF;" d="M59.877,82.926c0.613-0.555,1.368-0.373,1.754,0.093"/>
		<path style="fill:none;stroke:#FFFFFF;" d="M85.904,83.219c0.609-0.57,1.365-0.406,1.754,0.05"/>
		<polygon style="fill:#B4B4B4;" points="147.859,125.422 147.542,192.566 0.583,192.566 0.9,125.422 "/>
		<line style="fill:none;stroke:#000000;stroke-width:0.5;" x1="67.254" y1="192.454" x2="67.254" y2="198.954"/>
		<line style="fill:none;stroke:#000000;stroke-width:0.5;" x1="81.587" y1="192.454" x2="81.587" y2="198.954"/>
		<g>
			<text transform="matrix(1 0 0 1 71.7993 204.8701)"><tspan x="0" y="0" style="font-family:Liberation Sans; font-size:7.650000;">d</tspan></text>
		</g>
		<g>
			<g>
				<path style="fill:none;stroke:#FFFFFF;" d="M8.014,187.054c0-33.014,26.764-59.777,59.777-59.777s59.777,26.764,59.777,59.777"
					/>
				<path style="fill:none;stroke:#000000;" d="M64.802,186.963c0-1.65,1.338-2.989,2.989-2.989s2.989,1.338,2.989,2.989"/>
				<path style="fill:none;stroke:#FFFFFF;" d="M61.813,187.036c0-3.302,2.676-5.978,5.978-5.978c3.301,0,5.978,2.676,5.978,5.978"
					/>
				<path style="fill:none;stroke:#000000;" d="M58.825,187.036c0-4.952,4.014-8.966,8.966-8.966c4.952,0,8.966,4.014,8.966,8.966"
					/>
				<path style="fill:none;stroke:#FFFFFF;" d="M55.836,187.057c0-6.603,5.353-11.955,11.956-11.955s11.955,5.353,11.955,11.955"/>
				<path style="fill:none;stroke:#000000;" d="M52.847,187.036c0-8.253,6.691-14.944,14.944-14.944s14.944,6.691,14.944,14.944"/>
				<path style="fill:none;stroke:#FFFFFF;" d="M49.858,187.057c0-9.904,8.029-17.933,17.934-17.933s17.934,8.029,17.934,17.933"/>
				<path style="fill:none;stroke:#000000;" d="M46.869,187.048c0-11.555,9.367-20.922,20.922-20.922s20.922,9.367,20.922,20.922"/>
				<path style="fill:none;stroke:#FFFFFF;" d="M43.881,187.057c0-13.205,10.706-23.911,23.911-23.911s23.911,10.706,23.911,23.911"
					/>
				<path style="fill:none;stroke:#000000;" d="M40.892,187.048c0-14.856,12.044-26.899,26.9-26.899s26.899,12.043,26.899,26.899"/>
				<path style="fill:none;stroke:#FFFFFF;" d="M37.903,187.057c0-16.507,13.382-29.889,29.889-29.889S97.68,170.55,97.68,187.057"
					/>
				<path style="fill:none;stroke:#000000;" d="M34.914,187.048c0-18.158,14.72-32.878,32.878-32.878s32.878,14.72,32.878,32.878"/>
				<path style="fill:none;stroke:#FFFFFF;" d="M31.925,187.054c0-19.809,16.058-35.867,35.867-35.867s35.867,16.058,35.867,35.867"
					/>
				<path style="fill:none;stroke:#000000;" d="M28.937,187.057c0-21.458,17.396-38.855,38.855-38.855
					c21.458,0,38.855,17.396,38.855,38.855"/>
				<path style="fill:none;stroke:#FFFFFF;" d="M25.947,187.054c0-23.109,18.735-41.844,41.844-41.844s41.844,18.735,41.844,41.844"
					/>
				<path style="fill:none;stroke:#000000;" d="M22.958,187.057c0-24.76,20.073-44.833,44.833-44.833s44.833,20.073,44.833,44.833"
					/>
				<path style="fill:none;stroke:#FFFFFF;" d="M19.969,187.054c0-26.411,21.411-47.822,47.822-47.822s47.822,21.411,47.822,47.822"
					/>
				<path style="fill:none;stroke:#000000;" d="M16.98,187.057c0-28.062,22.75-50.811,50.812-50.811s50.811,22.75,50.811,50.811"/>
				<path style="fill:none;stroke:#FFFFFF;" d="M13.992,187.054c0-29.712,24.087-53.799,53.799-53.799
					c29.712,0,53.799,24.087,53.799,53.799"/>
				<path style="fill:none;stroke:#000000;" d="M11.003,187.059c0-31.363,25.426-56.788,56.789-56.788s56.789,25.425,56.789,56.788"
					/>
			</g>
			<path style="fill:none;stroke:#FFFFFF;" d="M66.652,187.167c0.613-0.555,1.368-0.373,1.753,0.094"/>
		</g>
		<g>
			<g>
				<path style="fill:none;stroke:#FFFFFF;" d="M21.733,186.942c0-33.014,26.764-59.778,59.777-59.778s59.778,26.764,59.778,59.778"
					/>
				<path style="fill:none;stroke:#000000;" d="M78.522,186.851c0-1.651,1.338-2.989,2.989-2.989s2.989,1.338,2.989,2.989"/>
				<path style="fill:none;stroke:#FFFFFF;" d="M75.533,186.923c0-3.302,2.677-5.979,5.978-5.979c3.302,0,5.979,2.677,5.979,5.979"
					/>
				<path style="fill:none;stroke:#000000;" d="M72.545,186.923c0-4.952,4.014-8.966,8.966-8.966c4.952,0,8.966,4.014,8.966,8.966"
					/>
				<path style="fill:none;stroke:#FFFFFF;" d="M69.556,186.945c0-6.603,5.353-11.956,11.955-11.956
					c6.603,0,11.956,5.353,11.956,11.956"/>
				<path style="fill:none;stroke:#000000;" d="M66.566,186.923c0-8.253,6.691-14.945,14.944-14.945s14.944,6.691,14.944,14.945"/>
				<path style="fill:none;stroke:#FFFFFF;" d="M63.578,186.945c0-9.904,8.029-17.934,17.933-17.934
					c9.904,0,17.934,8.029,17.934,17.934"/>
				<path style="fill:none;stroke:#000000;" d="M60.588,186.936c0-11.555,9.368-20.922,20.922-20.922
					c11.555,0,20.923,9.367,20.923,20.922"/>
				<path style="fill:none;stroke:#FFFFFF;" d="M57.6,186.945c0-13.206,10.706-23.911,23.911-23.911
					c13.206,0,23.911,10.705,23.911,23.911"/>
				<path style="fill:none;stroke:#000000;" d="M54.611,186.936c0-14.856,12.043-26.9,26.899-26.9c14.856,0,26.9,12.044,26.9,26.9"
					/>
				<path style="fill:none;stroke:#FFFFFF;" d="M111.4,186.945c0-16.507-13.382-29.889-29.889-29.889s-29.889,13.382-29.889,29.889"
					/>
				<path style="fill:none;stroke:#000000;" d="M48.633,186.936c0-18.158,14.72-32.878,32.877-32.878
					c18.158,0,32.878,14.72,32.878,32.878"/>
				<path style="fill:none;stroke:#FFFFFF;" d="M45.644,186.942c0-19.809,16.059-35.867,35.867-35.867
					c19.809,0,35.867,16.059,35.867,35.867"/>
				<path style="fill:none;stroke:#000000;" d="M42.656,186.945c0-21.459,17.396-38.855,38.855-38.855
					c21.459,0,38.855,17.396,38.855,38.855"/>
				<path style="fill:none;stroke:#FFFFFF;" d="M39.667,186.942c0-23.11,18.734-41.844,41.844-41.844
					c23.11,0,41.844,18.734,41.844,41.844"/>
				<path style="fill:none;stroke:#000000;" d="M36.678,186.945c0-24.76,20.073-44.833,44.833-44.833s44.833,20.073,44.833,44.833"
					/>
				<path style="fill:none;stroke:#FFFFFF;" d="M33.689,186.942c0-26.411,21.411-47.822,47.822-47.822
					c26.411,0,47.822,21.411,47.822,47.822"/>
				<path style="fill:none;stroke:#000000;" d="M30.7,186.945c0-28.062,22.75-50.812,50.811-50.812
					c28.062,0,50.812,22.75,50.812,50.812"/>
				<path style="fill:none;stroke:#FFFFFF;" d="M27.711,186.941c0-29.712,24.087-53.799,53.799-53.799
					c29.712,0,53.799,24.087,53.799,53.799"/>
				<path style="fill:none;stroke:#000000;" d="M24.723,186.946c0-31.363,25.425-56.789,56.788-56.789
					c31.363,0,56.789,25.426,56.789,56.789"/>
			</g>
			<path style="fill:none;stroke:#FFFFFF;" d="M80.758,187.347c0.609-0.57,1.366-0.406,1.754,0.05"/>
		</g>
		<rect x="0.737" y="186.743" width="63.889" height="5.898"/> 
		<rect x="83.952" y="186.743" width="63.743" height="5.898"/> 
		<rect x="70.074" y="186.743" width="8.283" height="5.898"/> 
		<line style="stroke:#000000;stroke-width:0.5;" x1="73.587" y1="63" x2="73.587" y2="18.333"/>
		<line style="stroke:#000000;stroke-width:0.5;" x1="81.033" y1="18.004" x2="76.267" y2="63.288"/>
		<line style="stroke:#000000;stroke-width:0.5;" x1="89.254" y1="18.333" x2="79.188" y2="65.994"/>
		<g>
			<text transform="matrix(1 0 0 1 57.9209 13.6665)"><tspan x="0" y="0" style="font-family:Liberation Sans; font-size:7.650000;">m=0</tspan></text>
		</g>
		<g>
			<text transform="matrix(1 0 0 1 88.2539 13.6665)"><tspan x="0" y="0" style="font-family:Liberation Sans; font-size:7.650000;">1</tspan></text>
		</g>
		<g>
			<text transform="matrix(1 0 0 1 80.4756 8)"><tspan x="0" y="0" style="font-family:Liberation Sans; font-size:6.800000;">1</tspan></text>
		</g>
		<g>
			<text transform="matrix(1 0 0 1 80.5874 16)"><tspan x="0" y="0" style="font-family:Liberation Sans; font-size:6.800000;">2</tspan></text>
		</g>
		<line style="fill:none;stroke:#000000;stroke-width:0.5;" x1="78.699" y1="9.333" x2="86.699" y2="9.333"/>
		<line style="stroke:#000000;stroke-width:0.5;" x1="74.629" y1="167.354" x2="74.629" y2="122.688"/>
		<line style="stroke:#000000;stroke-width:0.5;" x1="89.245" y1="122.357" x2="79.18" y2="170.018"/>
		<line style="stroke:#000000;stroke-width:0.5;" x1="103.624" y1="128.547" x2="81.926" y2="172.161"/>
		<g>
			<text transform="matrix(1 0 0 1 58.7524 118.2129)"><tspan x="0" y="0" style="font-family:Liberation Sans; font-size:7.650000;">m=0</tspan></text>
		</g>
		<g>
			<text transform="matrix(1 0 0 1 103.4194 122.5464)"><tspan x="0" y="0" style="font-family:Liberation Sans; font-size:7.650000;">1</tspan></text>
		</g>
		<g>
			<text transform="matrix(1 0 0 1 87.6406 110.8799)"><tspan x="0" y="0" style="font-family:Liberation Sans; font-size:6.800000;">1</tspan></text>
		</g>
		<g>
			<text transform="matrix(1 0 0 1 87.7524 118.8799)"><tspan x="0" y="0" style="font-family:Liberation Sans; font-size:6.800000;">2</tspan></text>
		</g>
		<line style="fill:none;stroke:#000000;stroke-width:0.5;" x1="85.864" y1="112.213" x2="93.864" y2="112.213"/>
		<g>
			<line style="fill:none;stroke:#000000;stroke-width:0.5;" x1="69.587" y1="196" x2="79.921" y2="196"/>
			<path d="M81.43,196c-0.71,0.263-1.591,0.713-2.137,1.188l0.43-1.188l-0.43-1.189C79.839,195.287,80.72,195.736,81.43,196z"/>
			<path d="M68.079,196c0.71-0.264,1.591-0.713,2.137-1.189L69.785,196l0.43,1.188C69.669,196.713,68.789,196.263,68.079,196z"/>
		</g>
	</g>
</svg>
