<?xml version="1.0" encoding="UTF-8" standalone="no"?>
<!-- Created with Inkscape (http://www.inkscape.org/) -->
<svg
   xmlns:dc="http://purl.org/dc/elements/1.1/"
   xmlns:cc="http://web.resource.org/cc/"
   xmlns:rdf="http://www.w3.org/1999/02/22-rdf-syntax-ns#"
   xmlns:svg="http://www.w3.org/2000/svg"
   xmlns="http://www.w3.org/2000/svg"
   xmlns:sodipodi="http://sodipodi.sourceforge.net/DTD/sodipodi-0.dtd"
   xmlns:inkscape="http://www.inkscape.org/namespaces/inkscape"
   width="744.09448819"
   height="1052.3622047"
   id="svg2"
   sodipodi:version="0.32"
   sodipodi:docbase="/home/bcrowell/Documents/writing/books/physics/9share/optics/figs"
   sodipodi:docname="eg-eye-chart.svg"
   inkscape:output_extension="org.inkscape.output.svg.inkscape">
  <defs
     id="defs4">
    <marker
       inkscape:stockid="Arrow2Mend"
       orient="auto"
       refY="0.0"
       refX="0.0"
       id="Arrow2Mend"
       style="overflow:visible;">
      <path
         id="path4237"
         style="font-size:12.0;fill-rule:evenodd;stroke-width:0.62500000;stroke-linejoin:round;"
         d="M 8.7185878,4.0337352 L -2.2072895,0.016013256 L 8.7185884,-4.0017078 C 6.9730900,-1.6296469 6.9831476,1.6157441 8.7185878,4.0337352 z "
         transform="scale(0.6) rotate(180) translate(0,0)" />
    </marker>
    <marker
       inkscape:stockid="Arrow2Mstart"
       orient="auto"
       refY="0.0"
       refX="0.0"
       id="Arrow2Mstart"
       style="overflow:visible">
      <path
         id="path4234"
         style="font-size:12.0;fill-rule:evenodd;stroke-width:0.62500000;stroke-linejoin:round"
         d="M 8.7185878,4.0337352 L -2.2072895,0.016013256 L 8.7185884,-4.0017078 C 6.9730900,-1.6296469 6.9831476,1.6157441 8.7185878,4.0337352 z "
         transform="scale(0.6) translate(0,0)" />
    </marker>
  </defs>
  <sodipodi:namedview
     id="base"
     pagecolor="#ffffff"
     bordercolor="#666666"
     borderopacity="1.0"
     gridtolerance="10000"
     guidetolerance="10"
     objecttolerance="10"
     inkscape:pageopacity="0.0"
     inkscape:pageshadow="2"
     inkscape:zoom="1.1571668"
     inkscape:cx="249.40518"
     inkscape:cy="787.86222"
     inkscape:document-units="mm"
     inkscape:current-layer="layer1"
     inkscape:window-width="1278"
     inkscape:window-height="996"
     inkscape:window-x="0"
     inkscape:window-y="0" />
  <metadata
     id="metadata7">
    <rdf:RDF>
      <cc:Work
         rdf:about="">
        <dc:format>image/svg+xml</dc:format>
        <dc:type
           rdf:resource="http://purl.org/dc/dcmitype/StillImage" />
      </cc:Work>
    </rdf:RDF>
  </metadata>
  <g
     inkscape:label="Layer 1"
     inkscape:groupmode="layer"
     id="layer1">
    <rect
       style="fill:#dedede;fill-opacity:1;stroke:none;stroke-width:0.875;stroke-miterlimit:4;stroke-dasharray:none;stroke-dashoffset:0;stroke-opacity:1"
       id="rect2219"
       width="425.04913"
       height="180.71503"
       x="0.92201543"
       y="216.09416" />
    <g
       id="g4407"
       transform="matrix(0.8635081,0,0,0.8635081,1.2505165,53.186682)">
      <path
         id="path2221"
         d="M 399.48648,310.61005 C 399.48648,310.61005 398.66386,319.52244 398.47163,320.97506 C 398.27939,322.42769 398.26587,327.34427 398.39994,327.87168 C 398.53402,328.3991 398.53402,328.3991 398.53402,328.3991 L 394.57839,329.40467 C 394.57839,329.40467 391.18368,330.40801 388.44604,330.68283 C 385.70838,330.95764 380.42977,331.17652 378.25305,331.44912 C 376.07635,331.72171 373.37221,332.12838 371.78996,332.5306 C 370.20771,332.93283 367.73599,333.70154 367.73599,333.70154 L 366.29447,336.314 L 367.35375,337.16772 L 368.50248,335.61232 C 368.50248,335.61232 370.9742,334.84361 372.62349,334.70509 C 374.27278,334.56658 378.69324,334.2851 378.69324,334.2851 L 385.09818,335.18365 L 391.23719,335.5883 C 391.23719,335.5883 397.04323,335.23535 397.83436,335.03423 C 398.62549,334.83312 403.60466,333.98848 403.60466,333.98848 L 405.58712,326.32537 C 405.58712,326.32537 406.21974,319.42653 406.47235,316.55481 C 406.72495,313.68308 406.91496,311.66952 406.91496,311.66952"
         style="fill:none;fill-opacity:0.75;fill-rule:evenodd;stroke:#000000;stroke-width:0.625;stroke-linecap:butt;stroke-linejoin:miter;stroke-miterlimit:4;stroke-dasharray:none;stroke-opacity:1" />
      <path
         sodipodi:nodetypes="ccccccccccccccccsccc"
         id="path2223"
         d="M 400.2869,288.40874 C 400.15085,289.36108 397.97408,292.08204 397.97408,292.08204 L 394.43682,292.76228 L 393.34844,292.76228 L 393.1327,291.89789 L 393.34844,290.17736 L 393.21239,289.22502 L 393.34844,288.95293 L 393.21239,288.54478 L 393.48448,287.72849 L 393.48448,287.4564 L 392.0601,287.04 L 392.1563,286.23197 L 392.66065,285.14358 L 393.21239,284.19124 L 393.48448,282.55866 C 393.48448,282.55866 393.21239,281.33422 393.34844,279.97374 C 393.48448,278.61326 394.30078,277.25278 394.30078,277.25278 L 394.84497,276.57254 L 394.84497,276.57254"
         style="fill:none;fill-opacity:0.75;fill-rule:evenodd;stroke:#000000;stroke-width:0.625;stroke-linecap:butt;stroke-linejoin:miter;stroke-miterlimit:4;stroke-dasharray:none;stroke-opacity:1" />
      <path
         id="path2225"
         d="M 396.06941,276.70858 C 397.15779,277.66092 397.56593,279.2935 397.97408,279.83769 C 398.38222,280.38189 398.79037,281.47027 398.79037,281.47027 L 400.0148,283.10285 L 400.83109,283.64704 L 400.83109,283.64704"
         style="fill:none;fill-opacity:0.75;fill-rule:evenodd;stroke:#000000;stroke-width:0.625;stroke-linecap:butt;stroke-linejoin:miter;stroke-miterlimit:4;stroke-dasharray:none;stroke-opacity:1" />
      <path
         id="path2227"
         d="M 395.38916,274.93995 C 398.79037,272.35504 400.559,271.94689 402.73577,272.21899 C 404.91254,272.49109 406.54512,272.89923 407.9056,274.25971 C 409.26608,275.6202 410.76262,277.79697 411.17076,279.42955 C 411.5789,281.06213 411.98705,283.511 411.98705,283.511 L 413.89173,285.14358 C 413.89173,285.14358 417.42898,287.59245 417.70108,289.49712 C 417.97318,291.4018 418.10922,294.53091 418.10922,294.53091 L 417.97318,294.93905"
         style="fill:none;fill-opacity:0.75;fill-rule:evenodd;stroke:#000000;stroke-width:0.625;stroke-linecap:butt;stroke-linejoin:miter;stroke-miterlimit:4;stroke-dasharray:none;stroke-opacity:1" />
      <path
         id="path2229"
         d="M 407.9056,288.13664 C 409.26608,288.13664 408.99399,286.91221 409.94633,286.91221 C 410.89866,286.91221 410.89866,287.72849 410.89866,288.68083 C 410.89866,289.63317 410.49052,290.8576 410.21842,291.4018 C 409.94633,291.94599 409.26608,293.98671 409.26608,293.98671 C 409.26608,293.98671 409.53818,296.43558 409.81028,296.97978 C 410.08237,297.52397 412.25914,300.92518 412.25914,300.92518"
         style="fill:none;fill-opacity:0.75;fill-rule:evenodd;stroke:#000000;stroke-width:0.625;stroke-linecap:butt;stroke-linejoin:miter;stroke-miterlimit:4;stroke-dasharray:none;stroke-opacity:1" />
      <path
         id="path2231"
         d="M 406.68116,294.25881 L 401.10319,297.66002 L 397.70198,299.83679 L 400.15085,301.74147"
         style="fill:none;fill-opacity:0.75;fill-rule:evenodd;stroke:#000000;stroke-width:0.625;stroke-linecap:butt;stroke-linejoin:miter;stroke-miterlimit:4;stroke-dasharray:none;stroke-opacity:1" />
      <path
         id="path2233"
         d="M 397.56593,302.82986 C 397.56593,302.82986 395.52521,306.77525 395.25311,307.59154 C 394.98102,308.40784 392.6682,310.17646 391.98795,311.67299 C 391.30771,313.16952 390.62747,314.39396 390.62747,315.48234 C 390.62747,316.57073 391.30771,317.65912 391.30771,317.65912 L 390.89957,323.78129 L 391.03561,327.1825"
         style="fill:none;fill-opacity:0.75;fill-rule:evenodd;stroke:#000000;stroke-width:0.625;stroke-linecap:butt;stroke-linejoin:miter;stroke-miterlimit:4;stroke-dasharray:none;stroke-opacity:1" />
      <path
         id="path2237"
         d="M 381.78433,335.48144 C 370.35628,336.84192 364.23411,337.79427 361.64918,338.61055 C 359.06427,339.42684 350.62927,343.10015 350.62927,343.10015 L 346.95597,346.09321 L 344.91525,355.48054 L 340.69775,370.71795 C 340.69775,370.71795 337.29655,374.2552 340.28961,375.47964 C 343.28267,376.70407 352.26185,379.83318 352.26185,379.83318 L 355.52701,379.83318 C 355.52701,379.83318 356.47935,373.43892 356.6154,372.35053 C 356.75145,371.26214 357.97589,361.19457 357.97589,359.97013 C 357.97589,358.7457 359.74451,356.56893 358.11193,355.0724 C 356.47935,353.57586 354.71072,351.94329 354.71072,351.94329 L 355.25492,351.94329"
         style="fill:none;fill-opacity:0.75;fill-rule:evenodd;stroke:#000000;stroke-width:0.625;stroke-linecap:butt;stroke-linejoin:miter;stroke-miterlimit:4;stroke-dasharray:none;stroke-opacity:1" />
      <path
         id="path2239"
         d="M 347.09202,351.80723 C 347.09202,352.62353 346.95597,358.33755 347.50016,359.69804 C 348.04436,361.05852 347.90831,364.86787 347.90831,365.68416 C 347.90831,366.50045 347.50016,369.90166 347.50016,369.90166"
         style="fill:none;fill-opacity:0.75;fill-rule:evenodd;stroke:#000000;stroke-width:0.625;stroke-linecap:butt;stroke-linejoin:miter;stroke-miterlimit:4;stroke-dasharray:none;stroke-opacity:1" />
      <path
         id="path2241"
         d="M 358.65613,352.21538 C 358.65613,352.21538 361.37709,352.75957 362.73757,352.75957 C 364.09805,352.75957 367.49926,351.80723 367.49926,351.80723"
         style="fill:none;fill-opacity:0.75;fill-rule:evenodd;stroke:#000000;stroke-width:0.625;stroke-linecap:butt;stroke-linejoin:miter;stroke-miterlimit:4;stroke-dasharray:none;stroke-opacity:1" />
      <path
         id="path2243"
         d="M 349.13274,379.96923 C 349.13274,379.96923 348.31646,383.77859 347.63622,384.05068 C 346.95597,384.32277 342.60243,385.00302 342.19428,385.54721 C 341.78614,386.0914 340.42566,386.6356 340.42566,386.6356 L 338.65703,388.13213 L 339.74541,389.35656 C 339.74541,389.35656 345.05129,389.08447 345.59549,389.08447 C 346.13968,389.08447 354.57468,388.67632 354.57468,388.67632 C 354.57468,388.67632 356.07121,388.54027 355.79911,387.86003 C 355.52701,387.17979 354.98282,382.4181 354.98282,382.4181 L 354.98282,380.64948"
         style="fill:none;fill-opacity:0.75;fill-rule:evenodd;stroke:#000000;stroke-width:0.625;stroke-linecap:butt;stroke-linejoin:miter;stroke-miterlimit:4;stroke-dasharray:none;stroke-opacity:1" />
      <path
         id="path2245"
         d="M 368.99579,355.61659 C 369.26789,350.8549 367.63531,349.49442 371.17257,348.67812 C 374.70982,347.86184 375.79821,347.1816 378.38313,347.1816 C 380.96804,347.1816 388.1786,347.1816 388.1786,347.1816 L 400.2869,348.13394 L 405.04858,348.26998 C 405.04858,348.26998 406.54512,346.22926 406.54512,345.54901 C 406.54512,344.86877 406.54512,343.50829 406.54512,343.50829 L 406.54512,343.37224"
         style="fill:none;fill-opacity:0.75;fill-rule:evenodd;stroke:#000000;stroke-width:0.625;stroke-linecap:butt;stroke-linejoin:miter;stroke-miterlimit:4;stroke-dasharray:none;stroke-opacity:1" />
      <path
         id="path2247"
         d="M 407.9056,347.72579 C 407.9056,347.72579 411.98705,349.76651 411.851,351.53514 C 411.71496,353.30377 413.89173,354.93634 409.40213,357.24917 C 404.91254,359.56199 391.71586,362.1469 389.40304,361.46666 C 387.09022,360.78642 371.58071,358.20151 371.58071,358.20151 L 369.40394,355.61659"
         style="fill:none;fill-opacity:0.75;fill-rule:evenodd;stroke:#343434;stroke-width:0.625;stroke-linecap:butt;stroke-linejoin:miter;stroke-miterlimit:4;stroke-dasharray:none;stroke-opacity:1" />
      <path
         sodipodi:nodetypes="csssssscsssscc"
         id="path2249"
         d="M 416.20455,295.48324 C 416.20455,295.48324 413.07544,299.15655 412.80334,300.51703 C 412.53124,301.87752 411.5789,307.31945 411.44286,308.27178 C 411.30681,309.22412 410.76061,315.0742 410.21641,316.02654 C 409.67222,316.97888 408.51568,323.78129 408.10754,325.82201 C 407.6994,327.86274 406.01821,337.94183 406.15426,338.89417 C 406.29031,339.8465 406.81721,344.86877 407.63351,345.00482 C 408.44979,345.14087 416.0685,345.82111 416.0685,345.82111 C 416.0685,345.82111 417.42898,345.27692 417.56503,344.59668 C 417.70108,343.91643 419.33366,332.08023 419.7418,327.86274 C 420.14995,323.64524 420.83019,314.93815 421.37438,313.44162 C 421.91857,311.94509 422.32672,302.9659 422.32672,302.14962 C 422.32672,301.33332 421.91857,296.02744 421.91857,296.02744 L 416.20455,295.48324 z "
         style="fill:none;fill-opacity:0.75;fill-rule:evenodd;stroke:#343434;stroke-width:0.625;stroke-linecap:butt;stroke-linejoin:miter;stroke-miterlimit:4;stroke-dasharray:none;stroke-opacity:1" />
      <path
         id="path2251"
         d="M 394.0797,282.81375 C 394.40281,282.84776 395.67827,283.27291 395.67827,283.27291 L 394.23275,283.8001"
         style="fill:none;fill-opacity:0.75;fill-rule:evenodd;stroke:#000000;stroke-width:0.625;stroke-linecap:butt;stroke-linejoin:miter;stroke-miterlimit:4;stroke-dasharray:none;stroke-opacity:1" />
      <path
         id="path2253"
         d="M 398.9399,293.37604 C 398.9399,294.96335 399.2285,297.03166 399.2285,297.03166 L 399.469,297.84937"
         style="fill:none;fill-opacity:0.75;fill-rule:evenodd;stroke:#000000;stroke-width:0.625;stroke-linecap:butt;stroke-linejoin:miter;stroke-miterlimit:4;stroke-dasharray:none;stroke-opacity:1" />
      <path
         id="path2255"
         d="M 407.26125,289.62421 C 407.16505,291.45202 406.92455,293.71274 406.92455,293.71274"
         style="fill:none;fill-opacity:0.75;fill-rule:evenodd;stroke:#000000;stroke-width:0.625;stroke-linecap:butt;stroke-linejoin:miter;stroke-miterlimit:4;stroke-dasharray:none;stroke-opacity:1" />
    </g>
    <path
       style="fill:none;fill-opacity:0.75;fill-rule:evenodd;stroke:#000000;stroke-width:0.75556958;stroke-linecap:butt;stroke-linejoin:miter;stroke-miterlimit:4;stroke-dasharray:none;stroke-opacity:1"
       d="M 393.26406,257.04726 L 393.26406,274.92998"
       id="path2257" />
    <path
       style="fill:none;fill-opacity:0.75;fill-rule:evenodd;stroke:#000000;stroke-width:0.75556958;stroke-linecap:butt;stroke-linejoin:miter;stroke-miterlimit:4;stroke-dasharray:none;stroke-opacity:1"
       d="M 210.96053,245.60795 L 210.96053,306.73572"
       id="path2259"
       sodipodi:nodetypes="cc" />
    <path
       style="fill:none;fill-opacity:0.75;fill-rule:evenodd;stroke:#000000;stroke-width:0.75556958;stroke-linecap:butt;stroke-linejoin:miter;stroke-miterlimit:4;stroke-dasharray:none;stroke-opacity:1"
       d="M 29.425737,257.04726 L 29.425737,274.92998"
       id="path2261" />
    <path
       style="fill:none;fill-opacity:0.75;fill-rule:evenodd;stroke:#000000;stroke-width:0.77626121;stroke-linecap:butt;stroke-linejoin:miter;marker-start:url(#Arrow2Mstart);marker-end:url(#Arrow2Mend);stroke-miterlimit:4;stroke-dasharray:none;stroke-opacity:1"
       d="M 211.83729,296.39928 L 340.95474,296.39928"
       id="path3234" />
    <path
       style="fill:none;fill-opacity:0.75;fill-rule:evenodd;stroke:#000000;stroke-width:0.76619554;stroke-linecap:butt;stroke-linejoin:miter;marker-start:url(#Arrow2Mstart);marker-end:url(#Arrow2Mend);stroke-miterlimit:4;stroke-dasharray:none;stroke-opacity:1"
       d="M 211.8352,265.65447 L 391.78924,265.65447"
       id="path3236" />
    <path
       style="fill:none;fill-opacity:0.75;fill-rule:evenodd;stroke:#000000;stroke-width:0.76619554;stroke-linecap:butt;stroke-linejoin:miter;marker-start:url(#Arrow2Mstart);marker-end:url(#Arrow2Mend);stroke-miterlimit:4;stroke-dasharray:none;stroke-opacity:1"
       d="M 29.885496,265.65447 L 209.83954,265.65447"
       id="path4426" />
    <rect
       style="fill:#dedede;fill-opacity:1;stroke:none;stroke-width:0.875;stroke-miterlimit:4;stroke-dasharray:none;stroke-dashoffset:0;stroke-opacity:1"
       id="rect4432"
       width="32.087917"
       height="13.138359"
       x="259.21716"
       y="290.09094" />
    <text
       xml:space="preserve"
       style="font-size:8.63508034px;font-style:normal;font-variant:normal;font-weight:normal;font-stretch:normal;text-align:start;line-height:125%;writing-mode:lr-tb;text-anchor:start;fill:#000000;fill-opacity:1;stroke:none;stroke-width:1px;stroke-linecap:butt;stroke-linejoin:miter;stroke-opacity:1;font-family:Liberation Sans"
       x="263.35754"
       y="299.45572"
       id="text4428"
       sodipodi:linespacing="125%"><tspan
         sodipodi:role="line"
         id="tspan4430"
         x="263.35754"
         y="299.45572">2.5 m</tspan></text>
    <rect
       style="fill:#dedede;fill-opacity:1;stroke:none;stroke-width:0.875;stroke-miterlimit:4;stroke-dasharray:none;stroke-dashoffset:0;stroke-opacity:1"
       id="rect5403"
       width="32.087917"
       height="13.138359"
       x="292.44205"
       y="258.755" />
    <text
       xml:space="preserve"
       style="font-size:8.63508034px;font-style:normal;font-variant:normal;font-weight:normal;font-stretch:normal;text-align:start;line-height:125%;writing-mode:lr-tb;text-anchor:start;fill:#000000;fill-opacity:1;stroke:none;stroke-width:1px;stroke-linecap:butt;stroke-linejoin:miter;stroke-opacity:1;font-family:Liberation Sans"
       x="296.58243"
       y="268.11978"
       id="text5405"
       sodipodi:linespacing="125%"><tspan
         sodipodi:role="line"
         id="tspan5407"
         x="296.58243"
         y="268.11978">3.5 m</tspan></text>
    <rect
       style="fill:#dedede;fill-opacity:1;stroke:none;stroke-width:0.875;stroke-miterlimit:4;stroke-dasharray:none;stroke-dashoffset:0;stroke-opacity:1"
       id="rect5409"
       width="32.087917"
       height="13.138359"
       x="101.30869"
       y="258.755" />
    <text
       xml:space="preserve"
       style="font-size:8.63508034px;font-style:normal;font-variant:normal;font-weight:normal;font-stretch:normal;text-align:start;line-height:125%;writing-mode:lr-tb;text-anchor:start;fill:#000000;fill-opacity:1;stroke:none;stroke-width:1px;stroke-linecap:butt;stroke-linejoin:miter;stroke-opacity:1;font-family:Liberation Sans"
       x="105.44907"
       y="268.11978"
       id="text5411"
       sodipodi:linespacing="125%"><tspan
         sodipodi:role="line"
         id="tspan5413"
         x="105.44907"
         y="268.11978">3.5 m</tspan></text>
    <text
       xml:space="preserve"
       style="font-size:8.63508034px;font-style:normal;font-variant:normal;font-weight:normal;font-stretch:normal;text-align:start;line-height:125%;writing-mode:lr-tb;text-anchor:start;fill:#000000;fill-opacity:1;stroke:none;stroke-width:1px;stroke-linecap:butt;stroke-linejoin:miter;stroke-opacity:1;font-family:Liberation Sans"
       x="379.43024"
       y="243.41405"
       id="text5415"
       sodipodi:linespacing="125%"><tspan
         sodipodi:role="line"
         id="tspan5417"
         x="379.43024"
         y="243.41405">eye chart</tspan></text>
    <text
       xml:space="preserve"
       style="font-size:8.63508034px;font-style:normal;font-variant:normal;font-weight:normal;font-stretch:normal;text-align:start;line-height:125%;writing-mode:lr-tb;text-anchor:start;fill:#000000;fill-opacity:1;stroke:none;stroke-width:1px;stroke-linecap:butt;stroke-linejoin:miter;stroke-opacity:1;font-family:Liberation Sans"
       x="8.6853876"
       y="232.62019"
       id="text5419"
       sodipodi:linespacing="125%"><tspan
         sodipodi:role="line"
         id="tspan5421"
         x="8.6853876"
         y="232.62019">image of</tspan><tspan
         sodipodi:role="line"
         x="8.6853876"
         y="243.41404"
         id="tspan5423">eye chart</tspan></text>
    <text
       xml:space="preserve"
       style="font-size:8.63508034px;font-style:normal;font-variant:normal;font-weight:normal;font-stretch:normal;text-align:start;line-height:125%;writing-mode:lr-tb;text-anchor:start;fill:#000000;fill-opacity:1;stroke:none;stroke-width:1px;stroke-linecap:butt;stroke-linejoin:miter;stroke-opacity:1;font-family:Liberation Sans"
       x="193.66568"
       y="238.17987"
       id="text5425"
       sodipodi:linespacing="125%"><tspan
         sodipodi:role="line"
         id="tspan5427"
         x="193.66568"
         y="238.17987">mirror</tspan></text>
  </g>
</svg>
