<?xml version="1.0" encoding="iso-8859-1"?>
<!-- Generator: Adobe Illustrator 11 Build 196, SVG Export Plug-In . SVG Version: 6.0.0 Build 78)  -->
<!DOCTYPE svg PUBLIC "-//W3C//DTD SVG 1.0//EN"    "http://www.w3.org/TR/2001/REC-SVG-20010904/DTD/svg10.dtd" [
	<!ENTITY ns_flows "http://ns.adobe.com/Flows/1.0/">
	<!ENTITY ns_svg "http://www.w3.org/2000/svg">
	<!ENTITY ns_xlink "http://www.w3.org/1999/xlink">
]>
<svg
	 width="147.681" height="108.167" viewBox="0 0 147.681 108.167"
	 style="overflow:visible;enable-background:new 0 0 147.681 108.167" xml:space="preserve">
	<style type="text/css">
	
	</style>
	<g id="Layer_1">
		<rect x="0.005" y="0.447" style="fill:#DCDCDC;" width="147.016" height="60.39"/> 
		<rect x="0.5" y="47.219" style="fill:#DCF2F7;stroke:#00738F;" width="145.547" height="6.04"/> 
		
			<linearGradient id="XMLID_15_" gradientUnits="userSpaceOnUse" x1="73.5325" y1="94.0718" x2="73.5325" y2="47.7385" gradientTransform="matrix(0.99 0 0 0.99 0.7155 0.5171)">
			<stop  offset="0" style="stop-color:#328ECA"/>
			<stop  offset="1" style="stop-color:#D2ECF4"/>
			<midPointStop  offset="0" style="stop-color:#328ECA"/>
			<midPointStop  offset="0.5" style="stop-color:#328ECA"/>
			<midPointStop  offset="1" style="stop-color:#D2ECF4"/>
		</linearGradient>
		<rect x="0.005" y="47.776" style="fill:url(#XMLID_15_);" width="147.016" height="60.39"/> 
		<polygon style="fill:#FFFFFF;" points="92.807,47.431 78.598,72.04 80.885,73.36 95.855,47.431 "/>
		<g>
			<path style="fill:#FFFF00;stroke:#000000;stroke-width:0.5;" d="M79.885,64.545c-0.098-0.057-0.199-0.1-0.302-0.136l-1.258-0.726
				l-0.875,1.515l-3.526,6.108c-0.492,0.852-0.2,1.942,0.652,2.434l7.33,4.232c0.853,0.492,1.942,0.2,2.434-0.652l3.527-6.108
				c0.077-0.133,0.128-0.272,0.167-0.414l0.653-1.131l-1.204-0.695c-0.083-0.071-0.171-0.137-0.269-0.194L79.885,64.545z"/>
			<path style="fill:#FFFF00;stroke:#000000;stroke-width:0.5;" d="M80.492,84.991v-10.95c0-0.656-0.532-1.188-1.188-1.188h-0.446
				c-0.656,0-1.188,0.532-1.188,1.188v10.86c-9.073-0.27-18.497-0.413-28.166-0.413c-6.568,0-13.021,0.066-19.33,0.193v-7.25h5.124
				c0.656,0,1.188-0.532,1.188-1.188v-2.475c0-0.656-0.532-1.188-1.188-1.188h-6.732c-0.656,0-1.188,0.532-1.188,1.188v2.475
				c0,0.184,0.05,0.353,0.124,0.508v7.992c-9.461,0.218-18.591,0.568-27.25,1.045v22.104h147.016V90.43
				C129.842,87.786,106.703,85.854,80.492,84.991z"/>
		</g>
		<polygon style="fill:#FFFFFF;" points="135.398,0 132.413,0 93.002,46.967 93.008,46.971 95.926,46.971 95.797,47.194 "/>
		<g>
			<text transform="matrix(1 0 0 1 67.408 59.022)"><tspan x="0" y="0" style="font-family:Liberation Sans; font-size:8.500000;">60</tspan></text>
			<text transform="matrix(1 0 0 1 78.531 59.022)"><tspan x="0" y="0" style="font-family:Liberation Sans; font-size:8.500000;">&#xB0;</tspan></text>
		</g>
		<path style="fill:none;stroke:#000000;stroke-width:0.5;" d="M88.866,57.357c-3.528-1.886-5.929-5.605-5.929-9.885"/>
		<path style="fill:none;stroke:#000000;stroke-width:0.5;" d="M102.696,37.268c2.678,2.311,4.373,5.729,4.373,9.544"/>
		<g>
			<text transform="matrix(1 0 0 1 108.988 43.1821)"><tspan x="0" y="0" style="font-family:'Symbol'; font-size:10;">&#x3B1;</tspan></text>
		</g>
		<polygon style="fill:#FFFF00;" points="147.681,91.241 26.51,89.527 0.013,86.063 0.013,108.167 147.681,108.167 "/>
	</g>
</svg>
