<?xml version="1.0" encoding="UTF-8" standalone="no"?>
<!-- Generator: Adobe Illustrator 11 Build 196, SVG Export Plug-In . SVG Version: 6.0.0 Build 78)  -->
<svg
   xmlns:dc="http://purl.org/dc/elements/1.1/"
   xmlns:cc="http://web.resource.org/cc/"
   xmlns:rdf="http://www.w3.org/1999/02/22-rdf-syntax-ns#"
   xmlns:svg="http://www.w3.org/2000/svg"
   xmlns="http://www.w3.org/2000/svg"
   xmlns:sodipodi="http://sodipodi.sourceforge.net/DTD/sodipodi-0.dtd"
   xmlns:inkscape="http://www.inkscape.org/namespaces/inkscape"
   width="151.803"
   height="166.664"
   viewBox="0 0 151.803 166.664"
   style="overflow:visible;enable-background:new 0 0 151.803 166.664"
   xml:space="preserve"
   id="svg2"
   sodipodi:version="0.32"
   sodipodi:docname="eye-anatomy.svg"
   sodipodi:docbase="/home/bcrowell/Documents/writing/books/physics/9share/optics/figs"
   inkscape:output_extension="org.inkscape.output.svg.inkscape"><metadata
   id="metadata126"><rdf:RDF><cc:Work
       rdf:about=""><dc:format>image/svg+xml</dc:format><dc:type
         rdf:resource="http://purl.org/dc/dcmitype/StillImage" /></cc:Work></rdf:RDF></metadata><defs
   id="defs124">
		
		
		
		
		
		
		
		
		
		
		
		
		
		
		
		
		
		
		
		
		
		
		
		
		
		
		
		
		
		
		
		
		
		
		
		
	</defs><sodipodi:namedview
   inkscape:cy="82.318822"
   inkscape:cx="124.41102"
   inkscape:zoom="1.8416545"
   inkscape:window-height="996"
   inkscape:window-width="1278"
   inkscape:pageshadow="2"
   inkscape:pageopacity="0.0"
   borderopacity="1.0"
   bordercolor="#666666"
   pagecolor="#ffffff"
   id="base"
   inkscape:window-x="0"
   inkscape:window-y="0"
   inkscape:current-layer="svg2" />
	<style
   type="text/css"
   id="style4">
	
	</style>
	<rect
   style="fill:#dedede;fill-opacity:1.0000000;fill-rule:evenodd;stroke:none;stroke-width:1.0000000pt;stroke-linecap:butt;stroke-linejoin:miter;stroke-opacity:1.0000000"
   id="rect1424"
   width="157.12956"
   height="169.05591"
   x="-2.9815855"
   y="-1.7955804" /><g
   id="g7">
			<path
   id="path9"
   d="M 1.241,48.8 C 10.841,50 18.041,50.4 28.842,60 L 31.991,61.641 L 34.616,59.641"
   style="fill:none;stroke:#000000;stroke-width:0.40000001" />
			<path
   id="path11"
   d="M 28.041,61.6 C 28.041,61.6 21.641,54 0.841,51.2"
   style="fill:none;stroke:#000000;stroke-width:0.40000001" />
			<path
   id="path13"
   d="M 0.041,56 C 10.841,57.2 27.641,63.2 27.641,63.2 L 30.428,63.64 L 32.24,63.328 L 32.99,62.89"
   style="fill:none;stroke:#000000;stroke-width:0.40000001" />
			<path
   id="path15"
   d="M 0.841,59.2 C 4.041,60.8 19.641,63.6 19.641,63.6 L 24.865,63.828 L 28.99,64.266 L 32.365,64.516"
   style="fill:none;stroke:#000000;stroke-width:0.40000001" />
			<path
   id="path17"
   d="M 1.241,63.6 C 1.241,63.6 19.241,66.4 26.441,65.6 L 29.053,65.641 L 32.053,65.703 L 32.678,66.641"
   style="fill:none;stroke:#000000;stroke-width:0.40000001" />
			<path
   id="path19"
   d="M 0.841,68 C 10.441,68.8 19.641,69.6 26.841,67.2"
   style="fill:none;stroke:#000000;stroke-width:0.40000001" />
		</g><line
   id="line21"
   y2="24.200001"
   x2="15.991"
   y1="50"
   x1="15.991"
   style="fill:none;stroke:#000000;stroke-width:0.60000002" /><polyline
   id="polyline23"
   points="138.841,97.4 138.841,159.801 132.841,159.801 "
   style="fill:none;stroke:#000000;stroke-width:0.60000002" /><line
   id="line25"
   y2="130.39999"
   x2="57.640999"
   y1="130.39999"
   x1="27.841"
   style="fill:none;stroke:#000000;stroke-width:0.60000002" /><polyline
   id="polyline27"
   points="124.741,78.2 132.841,78.2 132.841,38 "
   style="fill:none;stroke:#000000;stroke-width:0.60000002" /><line
   id="line29"
   y2="78.5"
   x2="106.741"
   y1="78.5"
   x1="99.841003"
   style="fill:none;stroke:#000000;stroke-width:0.60000002" /><path
   id="path31"
   d="M 93.641,18 C 72.041,13.2 61.641,18 51.241,24.4 C 40.841,30.8 31.241,46 30.041,47.6 C 28.841,49.2 28.041,49.6 25.641,47.6 C 23.241,45.6 16.841,41.6 0.841,41.2"
   style="fill:none;stroke:#000000;stroke-width:0.80000001" /><path
   id="path33"
   d="M 66.841,9.6 C 84.041,11.2 91.641,15.2 94.841,18.8"
   style="fill:none;stroke:#000000;stroke-width:0.80000001" /><path
   id="path35"
   d="M 0.041,75.6 C 11.641,76.8 18.041,76 20.441,75.2 C 22.841,74.4 22.841,74 22.841,76.4 C 22.841,78.8 21.241,92 25.641,102.001 C 30.041,112.001 28.841,112.401 37.641,122.801 C 46.441,133.201 52.441,135.201 59.241,138.801 C 66.041,142.401 86.441,143.601 94.441,140.001"
   style="fill:none;stroke:#000000;stroke-width:0.80000001" /><path
   id="path37"
   d="M 69.241,149.601 C 85.641,146.401 92.041,142.801 94.441,140.001"
   style="fill:none;stroke:#000000;stroke-width:0.80000001" /><polyline
   id="polyline41"
   points="103.241,9.2 106.042,12.8 106.441,14.8 108.441,15.6     108.841,18.8 112.441,21.2 115.241,24.8 114.841,27.2 117.642,28.8 118.841,31.2 120.042,33.6 122.042,38.4 126.042,43.2     129.642,48 129.241,50.4 "
   style="fill:none;stroke:#000000;stroke-width:0.80000001" /><polyline
   id="polyline43"
   points="107.641,148.8 111.241,144.8 113.241,142.4 115.642,140.8     115.642,138 118.042,135.2 119.241,133.2 120.841,130.4 122.042,128.4 124.441,126.8 125.642,125.2 128.042,120 128.441,116.8     132.441,113.2 134.441,109.601 135.241,106.8 "
   style="fill:none;stroke:#000000;stroke-width:0.80000001" /><path
   id="path45"
   d="M 0.441,70.8 C 0.441,70.8 13.241,74.4 22.841,70.4 C 32.441,66.4 25.241,70 25.241,70 C 25.241,70 26.841,67.2 27.241,73.2 C 27.641,79.2 27.641,96.8 32.841,105.6 C 38.041,114.4 49.641,134.4 70.441,137.6 C 91.241,140.8 102.041,132.8 107.641,128 C 113.241,123.2 117.241,116 120.441,112 C 123.641,108 127.241,106.4 130.041,103.6 C 132.841,100.8 136.041,94.4 138.841,87.2 C 141.641,80 140.041,72.4 138.041,66 C 136.041,59.6 131.241,58 127.641,54.8 C 124.041,51.6 123.241,49.2 120.441,45.2 C 117.641,41.2 111.241,32 105.641,28.4 C 100.041,24.8 94.841,18.8 76.841,20 C 58.841,21.2 50.041,32 45.641,36.4 C 41.241,40.8 34.441,51.2 32.441,54.8 C 30.441,58.4 30.441,58.4 28.041,55.6 C 25.641,52.8 23.241,48.8 0.441,45.6"
   style="fill:none;stroke:#000000;stroke-width:0.80000001" /><path
   id="path47"
   d="M 122.841,50 L 124.041,55.6 L 125.641,64 L 126.441,67.6 L 125.641,69.2 L 126.441,72.4 L 125.241,74.8 L 123.241,73.6 L 123.241,69.6 L 122.441,65.6 L 121.241,61.2 L 120.441,56 L 120.841,54.4 L 119.641,51.6 L 120.441,49.6 L 118.441,50 L 118.041,48 L 116.041,52 L 113.641,48.8 L 114.841,46.8 C 114.841,46.8 116.441,45.2 113.641,40.8 C 110.841,36.4 106.841,27.6 90.841,24 C 74.841,20.4 64.841,25.6 54.841,31.2 C 44.841,36.8 40.841,46 37.641,52.8 C 34.441,59.6 34.841,61.2 32.441,64 L 32.841,67.6 L 32.041,79.2 C 32.041,79.2 32.041,91.6 35.641,102.4 C 39.241,113.2 46.841,122.4 57.641,128.8 C 68.441,135.2 75.641,136.4 90.441,133.6 C 105.241,130.8 106.841,123.6 111.641,119.6 C 116.441,115.6 116.041,111.2 116.041,111.2 L 114.441,107.6 L 116.441,105.2 L 118.441,108.8 L 120.841,107.2 L 120.441,103.2 L 121.241,101.6 L 120.441,99.6 L 120.841,97.6 L 121.641,94 L 122.041,91.6 L 122.841,86.8 L 123.241,84 L 124.441,82.8 L 126.441,83.6 L 126.041,87.2 L 127.241,89.6 L 125.641,93.2 L 124.841,98.8 L 124.041,103.2 L 122.841,105.6 L 122.041,109.6"
   style="fill:none;stroke:#000000;stroke-width:0.80000001" /><path
   id="path49"
   d="M 116.042,56 C 118.042,57.4 120.042,60.4 120.442,63.2 C 120.842,66 122.842,72.8 122.242,82.6 C 121.642,92.4 119.842,97.8 118.042,99.4 C 116.242,101 116.042,101.8 112.642,99.6 C 109.242,97.4 106.842,91.2 105.842,89.8 C 104.842,88.4 103.642,82.8 104.242,76 C 104.842,69.2 107.642,65.2 109.242,62 C 110.842,58.8 112.842,56.2 114.242,55.6 C 115.642,55 116.042,56 116.042,56 z "
   style="fill:none;stroke:#000000;stroke-width:0.80000001" /><path
   id="path51"
   d="M 113.441,49.8 C 113.441,49.8 110.441,56.8 110.041,59"
   style="fill:none;stroke:#000000;stroke-width:0.80000001" /><path
   id="path53"
   d="M 114.042,51.2 C 114.042,51.2 112.842,54.2 112.642,56"
   style="fill:none;stroke:#000000;stroke-width:0.80000001" /><path
   id="path55"
   d="M 114.642,51.8 C 114.642,51.8 114.242,55 114.242,55.6"
   style="fill:none;stroke:#000000;stroke-width:0.80000001" /><line
   id="line57"
   y2="55"
   x2="115.642"
   y1="52.599998"
   x1="115.841"
   style="fill:none;stroke:#000000;stroke-width:0.80000001" /><path
   id="path59"
   d="M 110.441,98 C 111.241,104.2 113.441,106.8 114.441,107.601"
   style="fill:none;stroke:#000000;stroke-width:0.80000001" /><path
   id="path61"
   d="M 112.642,99.6 C 112.642,99.6 113.042,104 114.842,106.4"
   style="fill:none;stroke:#000000;stroke-width:0.80000001" /><path
   id="path63"
   d="M 114.441,100.8 C 114.841,103.8 114.641,104.2 115.241,105.6"
   style="fill:none;stroke:#000000;stroke-width:0.80000001" /><path
   id="path65"
   d="M 116.042,101.4 C 116.042,101.4 115.642,104 116.042,104.6"
   style="fill:none;stroke:#000000;stroke-width:0.80000001" /><line
   id="line67"
   y2="116"
   x2="121.142"
   y1="116"
   x1="99.841003"
   style="fill:none;stroke:#000000;stroke-width:0.60000002" /><g
   id="g69">
			<text
   id="text71"
   transform="translate(127.2915,34.4751)"><tspan
     id="tspan73"
     style="font-size:8.5px;font-family:Liberation Sans"
     y="0"
     x="0">pupil</tspan></text>


		</g><g
   id="g75">
			<text
   id="text77"
   transform="translate(79.7163,80.6753)"><tspan
     id="tspan79"
     style="font-size:8.5px;font-family:Liberation Sans"
     y="0"
     x="0">lens</tspan></text>


		</g><g
   id="g81">
			<text
   id="text83"
   transform="translate(72.0664,118.1006)"><tspan
     id="tspan85"
     style="font-size:8.5px;font-family:Liberation Sans"
     y="0"
     x="0">sclera</tspan></text>


		</g><g
   id="g87">
			<text
   id="text89"
   transform="translate(81.2666,98.2251)"><tspan
     id="tspan91"
     style="font-size:8.5px;font-family:Liberation Sans"
     y="0"
     x="0">iris</tspan></text>


		</g><g
   id="g93">
			<text
   id="text95"
   transform="translate(102.5664,162.2007)"><tspan
     id="tspan97"
     style="font-size:8.5px;font-family:Liberation Sans"
     y="0"
     x="0">cornea</tspan></text>


		</g><g
   id="g99">
			<text
   id="text101"
   transform="translate(2.5659,133.5752)"><tspan
     id="tspan103"
     style="font-size:8.5px;font-family:Liberation Sans"
     y="0"
     x="0">retina</tspan></text>


		</g><g
   id="g105">
			<text
   id="text107"
   transform="translate(6.1411,10)"><tspan
     id="tspan109"
     style="font-size:8.5px;font-family:Liberation Sans"
     y="0"
     x="0">optic</tspan></text>


			<text
   id="text111"
   transform="translate(6.1411,22)"><tspan
     id="tspan113"
     style="font-size:8.5px;font-family:Liberation Sans"
     y="0"
     x="0">nerve</tspan></text>


		</g><line
   id="line115"
   y2="95.498001"
   x2="96.455002"
   y1="95.498001"
   x1="123.08"
   style="fill:none;stroke:#000000;stroke-width:0.60000002" /><polyline
   id="polyline117"
   points="28.053,61.453 30.74,62.766 32.615,62.453 33.928,61.828     "
   style="fill:none;stroke:#000000;stroke-width:0.40000001" /><polyline
   id="polyline119"
   points="26.678,67.266 29.928,66.891 31.865,67.016 32.865,68.391     "
   style="fill:none;stroke:#000000;stroke-width:0.40000001" /><line
   id="line121"
   y2="68.328003"
   x2="151.80299"
   y1="25.327999"
   x1="151.80299"
   style="fill:none" />
<path
   id="path39"
   d="M 87.641,8.8 C 109.641,22.4 114.041,28 121.641,40.8 C 129.241,53.6 128.041,48.8 130.441,50.8 C 132.841,52.8 131.14032,49.695578 136.841,55.6 C 141.50821,60.434011 144.97481,67.101645 145.241,77.6 C 145.6615,94.184091 138.7005,100.62857 133.241,108.4 C 126.05758,118.62538 120.841,120.4 116.041,127.2 C 111.241,134 103.641,146.8 92.841,149.2"
   style="fill:none;stroke:#000000;stroke-width:0.80000001"
   sodipodi:nodetypes="cssssssc" /></svg>