<?xml version="1.0" encoding="UTF-8" standalone="no"?>
<!-- Generator: Adobe Illustrator 11 Build 196, SVG Export Plug-In . SVG Version: 6.0.0 Build 78)  -->
<svg
   xmlns:dc="http://purl.org/dc/elements/1.1/"
   xmlns:cc="http://web.resource.org/cc/"
   xmlns:rdf="http://www.w3.org/1999/02/22-rdf-syntax-ns#"
   xmlns:svg="http://www.w3.org/2000/svg"
   xmlns="http://www.w3.org/2000/svg"
   xmlns:sodipodi="http://inkscape.sourceforge.net/DTD/sodipodi-0.dtd"
   xmlns:inkscape="http://www.inkscape.org/namespaces/inkscape"
   width="145.686"
   height="119.29"
   viewBox="0 0 145.686 119.29"
   style="overflow:visible;enable-background:new 0 0 145.686 119.29"
   xml:space="preserve"
   id="svg2"
   sodipodi:version="0.32"
   sodipodi:docname="eye-simplified.svg"
   sodipodi:docbase="/home/bcrowell/Documents/writing/lm/trunk/5op/ch04/figs"><metadata
   id="metadata106"><rdf:RDF><cc:Work
       rdf:about=""><dc:format>image/svg+xml</dc:format><dc:type
         rdf:resource="http://purl.org/dc/dcmitype/StillImage" /></cc:Work></rdf:RDF></metadata><defs
   id="defs104">
		
		
		
		
		
		
		
		
		
		
		
		
		
		
		
		
		
		
		
	</defs><sodipodi:namedview
   inkscape:cy="21.881417"
   inkscape:cx="73.705825"
   inkscape:zoom="1.4787176"
   inkscape:window-height="510"
   inkscape:window-width="712"
   inkscape:pageshadow="2"
   inkscape:pageopacity="0.0"
   borderopacity="1.0"
   bordercolor="#666666"
   pagecolor="#ffffff"
   id="base"
   inkscape:window-x="137"
   inkscape:window-y="137"
   inkscape:current-layer="svg2" />
	<rect
   style="fill:#dedede;fill-opacity:1.0000000;fill-rule:evenodd;stroke:none;stroke-width:1.0000000pt;stroke-linecap:butt;stroke-linejoin:miter;stroke-opacity:1.0000000"
   id="rect2179"
   width="158.24522"
   height="127.13719"
   x="-6.0863566"
   y="-1.7608354" /><g
   id="g2181"
   transform="translate(-0.206617,2.162378)"><path
     style="fill:#bebebe;fill-opacity:1.0000000;stroke:#000000;stroke-width:0.80000001"
     d="M 117.84400,58.156000 C 116.24400,43.756000 115.04400,42.156000 109.44400,36.156000 C 103.84400,30.156000 105.44400,33.356000 103.04400,31.356000 C 101.84400,30.356000 101.54400,31.056000 100.59400,30.406000 L 92.674000,25.228000 C 89.713000,21.001000 83.615000,12.409000 78.244000,8.9560000 C 72.644000,5.3560000 67.444000,-0.64400000 49.444000,0.55600000 C 31.444000,1.7560000 22.644000,12.556000 18.244000,16.956000 C 14.955000,20.245000 10.112000,26.756000 7.3620000,31.533000 C 2.2670000,40.383000 0.45700000,47.558000 0.40000000,64.053000 C 0.37500000,71.519000 2.1540000,80.589000 5.4440000,86.156000 C 10.644000,94.956000 22.244000,114.95600 43.044000,118.15600 C 63.844000,121.35600 74.644000,113.35600 80.244000,108.55600 C 82.943000,106.24300 85.267000,103.37200 87.313000,100.57100 L 104.70700,89.246000 L 105.70700,88.558000 C 113.70700,78.958000 119.44400,72.556000 117.84400,58.156000 z "
     id="path5" /><g
     id="g7">
			<line
   style="fill:none;stroke:#000000;stroke-width:1.6000000"
   x1="145.33200"
   y1="33.391998"
   x2="111.41500"
   y2="33.391998"
   id="line9" />
			<path
   d="M 107.55200,33.392000 C 109.36900,32.718000 111.62400,31.567000 113.02200,30.349000 L 111.92100,33.392000 L 113.02200,36.435000 C 111.62500,35.216000 109.37000,34.065000 107.55200,33.392000 z "
   id="path11" />
		</g><g
     id="g13">
			<line
   style="fill:none;stroke:#000000;stroke-width:0.40000001"
   x1="107.04100"
   y1="33.286999"
   x2="99.458000"
   y2="10.454000"
   id="line15" />
			<path
   d="M 98.849000,8.6200000 C 99.455000,9.3760000 100.35700,10.265000 101.15500,10.736000 L 99.537000,10.694000 L 98.266000,11.696000 C 98.625000,10.840000 98.815000,9.5890000 98.849000,8.6200000 z "
   id="path17" />
		</g><polyline
     style="fill:none;stroke:#000000;stroke-width:0.80000001"
     points="107.415,33.392 0.415,57.392 106.748,87.392 "
     id="polyline19" /><g
     id="g21">
			<line
   style="fill:none;stroke:#000000;stroke-width:0.40000001"
   x1="106.74800"
   y1="87.391998"
   x2="105.58200"
   y2="102.30800"
   id="line23" />
			<path
   d="M 105.43200,104.23200 C 105.16600,103.30000 104.68100,102.13000 104.12800,101.38700 L 105.60200,102.05400 L 107.16200,101.62400 C 106.50000,102.27300 105.83800,103.35300 105.43200,104.23200 z "
   id="path25" />
		</g><g
     id="g27">
			<line
   style="fill:none;stroke:#000000;stroke-width:1.6000000"
   x1="145.68600"
   y1="87.391998"
   x2="111.10300"
   y2="87.391998"
   id="line29" />
			<path
   d="M 107.24000,87.392000 C 109.05700,86.718000 111.31300,85.567000 112.71000,84.349000 L 111.60900,87.392000 L 112.71000,90.435000 C 111.31200,89.216000 109.05700,88.065000 107.24000,87.392000 z "
   id="path31" />
		</g><g
     id="g33">
			<line
   style="fill:none;stroke:#000000;stroke-width:1.6000000"
   x1="145.08200"
   y1="71.391998"
   x2="120.74800"
   y2="71.391998"
   id="line35" />
			<path
   d="M 116.88600,71.392000 C 118.70300,70.718000 120.95800,69.567000 122.35600,68.349000 L 121.25500,71.392000 L 122.35600,74.435000 C 120.95800,73.216000 118.70300,72.065000 116.88600,71.392000 z "
   id="path37" />
		</g><polyline
     style="fill:none;stroke:#000000;stroke-width:0.80000001"
     points="115.082,45.725 0.415,57.392 116.748,71.392 "
     id="polyline39" /><g
     id="g41">
			<line
   style="fill:none;stroke:#000000;stroke-width:0.40000001"
   x1="116.74800"
   y1="71.391998"
   x2="124.58200"
   y2="81.307999"
   id="line43" />
			<path
   d="M 125.77700,82.823000 C 124.94900,82.319000 123.79800,81.791000 122.88800,81.620000 L 124.42300,81.109000 L 125.27600,79.734000 C 125.23000,80.660000 125.47800,81.901000 125.77700,82.823000 z "
   id="path45" />
		</g><g
     id="g47">
			<polyline
   style="fill:none;stroke:#000000;stroke-width:0.40000001"
   points="115.582,45.725 115.082,45.725 126.332,38.308 "
   id="polyline49" />
			<path
   d="M 127.94300,37.242000 C 127.37000,38.024000 126.74500,39.125000 126.49700,40.018000 L 126.11900,38.445000 L 124.82200,37.478000 C 125.74100,37.601000 126.99900,37.461000 127.94300,37.242000 z "
   id="path51" />
		</g><g
     id="g53">
			<line
   style="fill:none;stroke:#000000;stroke-width:1.6000000"
   x1="145.33200"
   y1="45.724998"
   x2="119.58200"
   y2="45.724998"
   id="line55" />
			<path
   d="M 115.71900,45.725000 C 117.53600,45.051000 119.79100,43.900000 121.18900,42.682000 L 120.08800,45.725000 L 121.18900,48.768000 C 119.79200,47.550000 117.53600,46.399000 115.71900,45.725000 z "
   id="path57" />
		</g><g
     id="g59">
			<line
   style="fill:none;stroke:#000000;stroke-width:1.6000000"
   x1="145.33200"
   y1="58.391998"
   x2="121.84400"
   y2="58.391998"
   id="line61" />
			<path
   d="M 117.98100,58.392000 C 119.79800,57.718000 122.05400,56.567000 123.45100,55.349000 L 122.35000,58.392000 L 123.45100,61.435000 C 122.05400,60.216000 119.79900,59.065000 117.98100,58.392000 z "
   id="path63" />
		</g><line
     style="fill:none;stroke:#000000;stroke-width:0.80000001"
     x1="117.84400"
     y1="58.391998"
     x2="0.41499999"
     y2="57.391998"
     id="line65" /><g
     id="g67">
			<line
   style="fill:none;stroke:#000000;stroke-width:0.80000001"
   x1="51.488998"
   y1="45.984001"
   x2="36.000000"
   y2="49.370998"
   id="line69" />
			<path
   d="M 32.700000,50.097000 C 34.128000,49.181000 35.840000,47.776000 36.807000,46.473000 L 36.435000,49.280000 L 37.945000,51.675000 C 36.522000,50.896000 34.380000,50.334000 32.700000,50.097000 z "
   id="path71" />
		</g><g
     id="g73">
			<line
   style="fill:none;stroke:#000000;stroke-width:0.80000001"
   x1="51.186001"
   y1="52.016998"
   x2="35.686001"
   y2="53.682999"
   id="line75" />
			<path
   d="M 32.328000,54.042000 C 33.846000,53.285000 35.700000,52.073000 36.802000,50.883000 L 36.129000,53.633000 L 37.371000,56.177000 C 36.042000,55.248000 33.972000,54.458000 32.328000,54.042000 z "
   id="path77" />
		</g><g
     id="g79">
			<line
   style="fill:none;stroke:#000000;stroke-width:0.80000001"
   x1="53.248001"
   y1="57.953999"
   x2="35.748001"
   y2="57.786999"
   id="line81" />
			<path
   d="M 32.373000,57.754000 C 33.969000,57.179000 35.952000,56.191000 37.184000,55.137000 L 36.196000,57.790000 L 37.134000,60.462000 C 35.921000,59.385000 33.958000,58.359000 32.373000,57.754000 z "
   id="path83" />
		</g><g
     id="g85">
			<line
   style="fill:none;stroke:#000000;stroke-width:0.80000001"
   x1="53.772999"
   y1="63.749001"
   x2="36.112999"
   y2="61.854000"
   id="line87" />
			<path
   d="M 32.756000,61.495000 C 34.400000,61.078000 36.469000,60.287000 37.799000,59.358000 L 36.557000,61.903000 L 37.230000,64.653000 C 36.128000,63.462000 34.274000,62.250000 32.756000,61.495000 z "
   id="path89" />
		</g><g
     id="g91">
			<line
   style="fill:none;stroke:#000000;stroke-width:0.80000001"
   x1="52.915001"
   y1="72.266998"
   x2="35.915001"
   y2="67.432999"
   id="line93" />
			<path
   d="M 32.663000,66.507000 C 34.354000,66.374000 36.527000,65.945000 37.995000,65.255000 L 36.340000,67.553000 L 36.538000,70.378000 C 35.654000,69.018000 34.031000,67.509000 32.663000,66.507000 z "
   id="path95" />
		</g><g
     id="g97">
			<polyline
   style="fill:none;stroke:#000000;stroke-width:0.40000001"
   points="119.669,58.979 119.28,58.665 132.693,59.957 "
   id="polyline99" />
			<path
   d="M 134.61700,60.139000 C 133.68000,60.388000 132.50200,60.852000 131.74800,61.391000 L 132.44200,59.929000 L 132.04000,58.362000 C 132.67700,59.036000 133.74400,59.716000 134.61700,60.139000 z "
   id="path101" />
		</g></g>
</svg>