<?xml version="1.0" encoding="iso-8859-1"?>
<!-- Generator: Adobe Illustrator 11 Build 196, SVG Export Plug-In . SVG Version: 6.0.0 Build 78)  -->
<!DOCTYPE svg PUBLIC "-//W3C//DTD SVG 1.0//EN"    "http://www.w3.org/TR/2001/REC-SVG-20010904/DTD/svg10.dtd" [
	<!ENTITY ns_flows "http://ns.adobe.com/Flows/1.0/">
	<!ENTITY ns_svg "http://www.w3.org/2000/svg">
	<!ENTITY ns_xlink "http://www.w3.org/1999/xlink">
]>
<svg
	 width="120.444" height="109.129" viewBox="0 0 120.444 109.129"
	 style="overflow:visible;enable-background:new 0 0 120.444 109.129" xml:space="preserve">
	<g id="Layer_1">
		<g>
			<g>
				<path style="fill:#B4B4B4;stroke:#000000;" d="M77.366,99.457l5.025-20.854l-12.458,5.578
					c-2.287-2.677-8.387-4.592-15.557-4.592c-9.125,0-16.522,3.102-16.522,6.929c0,3.239,5.302,5.959,12.465,6.717
					c2.032,2.886,4.63,3.256,5.439,3.458c0.554,0.139-0.115-1.635-0.827-3.252c4.509-0.063,8.559-0.882,11.452-2.167L77.366,99.457z
					"/>
				<ellipse style="fill:#FFFFFF;stroke:#000000;" cx="43.95" cy="84.256" rx="1.066" ry="0.888"/> 
			</g>
			<g>
				<rect x="14.085" y="46.319" style="fill:none;stroke:#000000;" width="90.45" height="62.31"/> 
				<line style="fill:none;stroke:#000000;" x1="14.085" y1="35.934" x2="14.085" y2="46.319"/>
				<line style="fill:none;stroke:#000000;" x1="104.535" y1="35.599" x2="104.535" y2="46.319"/>
			</g>
			<g>
				<g>
					<line style="stroke:#000000;" x1="55.737" y1="79.931" x2="55.737" y2="2.881"/>
					<path d="M55.737,0.859c0.353,0.951,0.955,2.132,1.593,2.863l-1.593-0.576l-1.593,0.576C54.782,2.991,55.384,1.81,55.737,0.859z
						"/>
				</g>
				<g>
					<polyline style="fill:none;stroke:#000000;" points="55.96,79.484 63.666,46.319 82.425,4.779 "/>
					<path d="M83.257,2.937c-0.07,1.012-0.006,2.336,0.273,3.265l-1.214-1.181l-1.689-0.13C81.51,4.486,82.544,3.658,83.257,2.937z"
						/>
				</g>
				<g>
					<polyline style="fill:none;stroke:#000000;" points="56.421,79.149 74.846,46.989 100.641,23.204 "/>
					<path d="M102.125,21.833c-0.46,0.904-0.919,2.147-1.025,3.112l-0.656-1.562l-1.503-0.781
						C99.91,22.575,101.186,22.218,102.125,21.833z"/>
				</g>
				<g>
					<polyline style="fill:none;stroke:#000000;" points="55.778,79.484 48.073,46.319 29.313,4.779 "/>
					<path d="M28.481,2.937c0.07,1.012,0.007,2.336-0.273,3.265l1.215-1.181l1.688-0.13C30.229,4.486,29.194,3.658,28.481,2.937z"/>
				</g>
				<g>
					<polyline style="fill:none;stroke:#000000;" points="55.694,79.149 37.27,46.989 11.474,23.204 "/>
					<path d="M9.991,21.833c0.46,0.904,0.919,2.147,1.025,3.112l0.656-1.562l1.503-0.781C12.205,22.575,10.929,22.218,9.991,21.833z
						"/>
				</g>
			</g>
			<g>
				<g>
					<line style="stroke:#000000;" x1="65.247" y1="80.571" x2="65.247" y2="3.521"/>
					<path d="M65.247,1.5c0.353,0.951,0.955,2.131,1.593,2.863l-1.593-0.576l-1.593,0.576C64.292,3.631,64.894,2.451,65.247,1.5z"/>
				</g>
				<g>
					<polyline style="fill:none;stroke:#000000;" points="65.47,80.125 73.175,46.96 91.935,5.42 "/>
					<path d="M92.767,3.577c-0.07,1.012-0.006,2.336,0.273,3.265l-1.215-1.181l-1.688-0.13C91.02,5.127,92.054,4.299,92.767,3.577z"
						/>
				</g>
				<g>
					<polyline style="fill:none;stroke:#000000;" points="65.931,79.79 84.355,47.63 110.151,23.845 "/>
					<path d="M111.634,22.473c-0.46,0.904-0.919,2.147-1.025,3.112l-0.656-1.562l-1.503-0.78
						C109.42,23.216,110.696,22.858,111.634,22.473z"/>
				</g>
				<g>
					<polyline style="fill:none;stroke:#000000;" points="65.288,80.125 57.583,46.96 38.823,5.42 "/>
					<path d="M37.991,3.577c0.07,1.012,0.006,2.336-0.273,3.265l1.215-1.181l1.688-0.13C39.739,5.127,38.704,4.299,37.991,3.577z"/>
				</g>
				<g>
					<polyline style="fill:none;stroke:#000000;" points="65.204,79.79 46.779,47.63 20.984,23.845 "/>
					<path d="M19.5,22.473c0.46,0.904,0.92,2.147,1.025,3.112l0.656-1.562l1.503-0.78C21.715,23.216,20.439,22.858,19.5,22.473z"/>
				</g>
			</g>
			<g>
				<g>
					<line style="stroke:#000000;" x1="45.747" y1="79.071" x2="45.747" y2="2.021"/>
					<path d="M45.747,0c0.353,0.951,0.955,2.131,1.593,2.863l-1.593-0.576l-1.593,0.576C44.792,2.131,45.394,0.951,45.747,0z"/>
				</g>
				<g>
					<polyline style="fill:none;stroke:#000000;" points="45.97,78.625 53.675,45.46 72.435,3.92 "/>
					<path d="M73.267,2.077c-0.07,1.012-0.006,2.336,0.273,3.265l-1.215-1.181l-1.688-0.13C71.52,3.627,72.554,2.799,73.267,2.077z"
						/>
				</g>
				<g>
					<polyline style="fill:none;stroke:#000000;" points="46.431,78.29 64.855,46.13 90.651,22.345 "/>
					<path d="M92.134,20.973c-0.46,0.904-0.919,2.147-1.025,3.112l-0.656-1.562l-1.503-0.78
						C89.92,21.716,91.196,21.358,92.134,20.973z"/>
				</g>
				<g>
					<polyline style="fill:none;stroke:#000000;" points="45.788,78.625 38.083,45.46 19.323,3.92 "/>
					<path d="M18.491,2.077c0.07,1.012,0.006,2.336-0.273,3.265l1.215-1.181l1.688-0.13C20.239,3.627,19.204,2.799,18.491,2.077z"/>
				</g>
				<g>
					<polyline style="fill:none;stroke:#000000;" points="45.704,78.29 27.279,46.13 1.484,22.345 "/>
					<path d="M0,20.973c0.46,0.904,0.92,2.147,1.025,3.112l0.656-1.562l1.503-0.78C2.215,21.716,0.939,21.358,0,20.973z"/>
				</g>
			</g>
		</g>
		<line style="fill:none;" x1="120.444" y1="41.572" x2="120.444" y2="65.572"/>
	</g>
</svg>
