<?xml version="1.0" encoding="iso-8859-1"?>
<!-- Generator: Adobe Illustrator 11 Build 196, SVG Export Plug-In . SVG Version: 6.0.0 Build 78)  -->
<!DOCTYPE svg PUBLIC "-//W3C//DTD SVG 1.0//EN"    "http://www.w3.org/TR/2001/REC-SVG-20010904/DTD/svg10.dtd" [
	<!ENTITY ns_flows "http://ns.adobe.com/Flows/1.0/">
	<!ENTITY ns_svg "http://www.w3.org/2000/svg">
	<!ENTITY ns_xlink "http://www.w3.org/1999/xlink">
]>
<svg
	 width="101.886" height="108.27" viewBox="0 0 101.886 108.27" style="overflow:visible;enable-background:new 0 0 101.886 108.27"
	 xml:space="preserve">
	<g id="Layer_1">
		<g>
			<g>
				<path style="fill:#B4B4B4;stroke:#000000;" d="M67.376,98.598l5.025-20.854l-12.458,5.578
					c-2.287-2.677-8.387-4.592-15.557-4.592c-9.125,0-16.522,3.102-16.522,6.929c0,3.239,5.302,5.959,12.465,6.717
					c2.032,2.886,4.63,3.256,5.439,3.458c0.554,0.139-0.115-1.635-0.827-3.252c4.509-0.063,8.559-0.882,11.452-2.167L67.376,98.598z
					"/>
				<ellipse style="fill:#FFFFFF;stroke:#000000;" cx="33.96" cy="83.397" rx="1.066" ry="0.888"/> 
			</g>
			<g>
				<rect x="4.095" y="45.46" style="fill:none;stroke:#000000;" width="90.45" height="62.31"/> 
				<line style="fill:none;stroke:#000000;" x1="4.095" y1="35.075" x2="4.095" y2="45.46"/>
				<line style="fill:none;stroke:#000000;" x1="94.545" y1="34.74" x2="94.545" y2="45.46"/>
			</g>
			<g>
				<line style="stroke:#000000;" x1="45.747" y1="79.072" x2="45.747" y2="2.022"/>
				<path d="M45.747,0c0.353,0.951,0.955,2.132,1.593,2.863l-1.593-0.576l-1.593,0.576C44.791,2.132,45.394,0.951,45.747,0z"/>
			</g>
			<g>
				<polyline style="fill:none;stroke:#000000;" points="45.97,78.625 53.675,45.46 72.435,3.92 "/>
				<path d="M73.267,2.078c-0.07,1.012-0.006,2.336,0.273,3.265l-1.214-1.181l-1.689-0.13C71.519,3.627,72.554,2.799,73.267,2.078z"
					/>
			</g>
			<g>
				<polyline style="fill:none;stroke:#000000;" points="46.43,78.29 64.856,46.13 90.651,22.345 "/>
				<path d="M92.135,20.974c-0.46,0.904-0.919,2.147-1.025,3.112l-0.656-1.562l-1.503-0.781
					C89.92,21.716,91.196,21.359,92.135,20.974z"/>
			</g>
			<g>
				<polyline style="fill:none;stroke:#000000;" points="45.787,78.625 38.083,45.46 19.323,3.92 "/>
				<path d="M18.49,2.078c0.07,1.012,0.007,2.336-0.273,3.265l1.215-1.181l1.688-0.13C20.239,3.627,19.203,2.799,18.49,2.078z"/>
			</g>
			<g>
				<polyline style="fill:none;stroke:#000000;" points="45.704,78.29 27.279,46.13 1.484,22.345 "/>
				<path d="M0,20.974c0.46,0.904,0.92,2.147,1.025,3.112l0.656-1.562l1.503-0.781C2.215,21.716,0.938,21.359,0,20.974z"/>
			</g>
		</g>
		<line style="fill:none;" x1="101.886" y1="34.213" x2="101.886" y2="64.213"/>
	</g>
</svg>
