<?xml version="1.0" encoding="iso-8859-1"?>
<!-- Generator: Adobe Illustrator 11 Build 196, SVG Export Plug-In . SVG Version: 6.0.0 Build 78)  -->
<!DOCTYPE svg PUBLIC "-//W3C//DTD SVG 1.0//EN"    "http://www.w3.org/TR/2001/REC-SVG-20010904/DTD/svg10.dtd" [
	<!ENTITY ns_flows "http://ns.adobe.com/Flows/1.0/">
	<!ENTITY ns_svg "http://www.w3.org/2000/svg">
	<!ENTITY ns_xlink "http://www.w3.org/1999/xlink">
]>
<svg
	 width="100.766" height="108.629" viewBox="0 0 100.766 108.629"
	 style="overflow:visible;enable-background:new 0 0 100.766 108.629" xml:space="preserve">
	<g id="Layer_1">
		<g>
			<path style="fill:#B4B4B4;stroke:#000000;" d="M66.991,98.957l5.025-20.854l-12.458,5.578c-2.286-2.677-8.387-4.592-15.557-4.592
				c-9.125,0-16.522,3.102-16.522,6.929c0,3.239,5.302,5.959,12.465,6.717c2.032,2.886,4.63,3.256,5.439,3.458
				c0.555,0.139-0.115-1.635-0.826-3.252c4.509-0.063,8.558-0.882,11.452-2.167L66.991,98.957z"/>
			<ellipse style="fill:#FFFFFF;stroke:#000000;" cx="33.575" cy="83.756" rx="1.066" ry="0.888"/> 
		</g>
		<g>
			<rect x="3.71" y="45.819" style="fill:none;stroke:#000000;" width="90.45" height="62.31"/> 
			<line style="fill:none;stroke:#000000;" x1="3.71" y1="35.434" x2="3.71" y2="45.819"/>
			<line style="fill:none;stroke:#000000;" x1="94.16" y1="35.099" x2="94.16" y2="45.819"/>
		</g>
		<g>
			<line style="stroke:#000000;" x1="48.684" y1="79.071" x2="48.684" y2="2.021"/>
			<path d="M48.684,0c0.353,0.951,0.956,2.131,1.593,2.863l-1.593-0.576l-1.593,0.576C47.729,2.131,48.331,0.951,48.684,0z"/>
		</g>
		<g>
			<polyline style="fill:none;stroke:#000000;" points="34.72,79.562 42.425,46.397 61.185,4.857 "/>
			<path d="M62.017,3.015c-0.07,1.012-0.007,2.336,0.273,3.265l-1.215-1.181l-1.689-0.13C60.269,4.564,61.304,3.736,62.017,3.015z"
				/>
		</g>
		<g>
			<polyline style="fill:none;stroke:#000000;" points="37.306,78.977 55.73,46.817 81.525,23.032 "/>
			<path d="M83.009,21.661c-0.46,0.904-0.919,2.147-1.025,3.112l-0.656-1.562l-1.503-0.78
				C80.794,22.403,82.071,22.046,83.009,21.661z"/>
		</g>
		<g>
			<polyline style="fill:none;stroke:#000000;" points="52.975,79.562 45.27,46.397 26.51,4.857 "/>
			<path d="M25.678,3.015c0.07,1.012,0.007,2.336-0.273,3.265l1.215-1.181l1.689-0.13C27.426,4.564,26.391,3.736,25.678,3.015z"/>
		</g>
		<g>
			<polyline style="fill:none;stroke:#000000;" points="45.704,78.29 27.279,46.13 1.484,22.345 "/>
			<path d="M0,20.973c0.46,0.904,0.919,2.147,1.025,3.112l0.656-1.562l1.503-0.78C2.215,21.716,0.938,21.358,0,20.973z"/>
		</g>
		<line style="fill:none;" x1="100.766" y1="72.072" x2="100.766" y2="42.072"/>
	</g>
</svg>
