<?xml version="1.0" encoding="UTF-8" standalone="no"?>
<!-- Created with Inkscape (http://www.inkscape.org/) -->
<svg
   xmlns:dc="http://purl.org/dc/elements/1.1/"
   xmlns:cc="http://web.resource.org/cc/"
   xmlns:rdf="http://www.w3.org/1999/02/22-rdf-syntax-ns#"
   xmlns:svg="http://www.w3.org/2000/svg"
   xmlns="http://www.w3.org/2000/svg"
   xmlns:sodipodi="http://inkscape.sourceforge.net/DTD/sodipodi-0.dtd"
   xmlns:inkscape="http://www.inkscape.org/namespaces/inkscape"
   width="744.09448819"
   height="1052.3622047"
   id="svg1530"
   sodipodi:version="0.32"
   sodipodi:docbase="/home/bcrowell/Documents/writing/lm/trunk/5op/ch01/figs"
   sodipodi:docname="fish.svg">
  <defs
     id="defs1532" />
  <sodipodi:namedview
     id="base"
     pagecolor="#ffffff"
     bordercolor="#666666"
     borderopacity="1.0"
     inkscape:pageopacity="0.0"
     inkscape:pageshadow="2"
     inkscape:zoom="0.82557252"
     inkscape:cx="668.57143"
     inkscape:cy="518.57143"
     inkscape:document-units="mm"
     inkscape:current-layer="layer1"
     inkscape:window-width="1278"
     inkscape:window-height="996"
     inkscape:window-x="0"
     inkscape:window-y="0" />
  <metadata
     id="metadata1535">
    <rdf:RDF>
      <cc:Work
         rdf:about="">
        <dc:format>image/svg+xml</dc:format>
        <dc:type
           rdf:resource="http://purl.org/dc/dcmitype/StillImage" />
      </cc:Work>
    </rdf:RDF>
  </metadata>
  <g
     inkscape:label="Layer 1"
     inkscape:groupmode="layer"
     id="layer1">
    <rect
       style="fill:#dedede;fill-opacity:1.0000000;fill-rule:evenodd;stroke:none;stroke-width:1.0000000pt;stroke-linecap:butt;stroke-linejoin:miter;stroke-opacity:1.0000000"
       id="rect1647"
       width="129.60703"
       height="145.35367"
       x="256.79147"
       y="494.56747" />
    <g
       transform="translate(274.1811,512.2305)"
       style="overflow:visible"
       id="Layer_1">
		<g
   id="g5">
			<g
   id="g7">
				<path
   style="fill:#b4b4b4;stroke:#000000"
   d="M 67.376000,98.598000 L 72.401000,77.744000 L 59.943000,83.322000 C 57.656000,80.645000 51.556000,78.730000 44.386000,78.730000 C 35.261000,78.730000 27.864000,81.832000 27.864000,85.659000 C 27.864000,88.898000 33.166000,91.618000 40.329000,92.376000 C 42.361000,95.262000 44.959000,95.632000 45.768000,95.834000 C 46.322000,95.973000 45.653000,94.199000 44.941000,92.582000 C 49.450000,92.519000 53.500000,91.700000 56.393000,90.415000 L 67.376000,98.598000 z "
   id="path9" />

				<ellipse
   style="fill:#ffffff;stroke:#000000"
   cx="33.959999"
   cy="83.397003"
   rx="1.0660000"
   ry="0.88800001"
   id="ellipse11"
   sodipodi:cx="33.959999"
   sodipodi:cy="83.397003"
   sodipodi:rx="1.0660000"
   sodipodi:ry="0.88800001" />
 
			</g>

			<g
   id="g13">
				<rect
   x="4.0949998"
   y="45.459999"
   style="fill:none;stroke:#000000"
   width="90.449997"
   height="62.310001"
   id="rect15" />
 
				<line
   style="fill:none;stroke:#000000"
   x1="4.0949998"
   y1="35.075001"
   x2="4.0949998"
   y2="45.459999"
   id="line17" />

				<line
   style="fill:none;stroke:#000000"
   x1="94.544998"
   y1="34.740002"
   x2="94.544998"
   y2="45.459999"
   id="line19" />

			</g>

			<g
   id="g21">
				<line
   style="stroke:#000000"
   x1="45.747002"
   y1="79.071999"
   x2="45.747002"
   y2="2.0220001"
   id="line23" />

				<path
   d="M 45.747000,0.0000000 C 46.100000,0.95100000 46.702000,2.1320000 47.340000,2.8630000 L 45.747000,2.2870000 L 44.154000,2.8630000 C 44.791000,2.1320000 45.394000,0.95100000 45.747000,0.0000000 z "
   id="path25" />

			</g>

			<g
   id="g27">
				<polyline
   style="fill:none;stroke:#000000"
   points="45.97,78.625 53.675,45.46 72.435,3.92 "
   id="polyline29" />

				<path
   d="M 73.267000,2.0780000 C 73.197000,3.0900000 73.261000,4.4140000 73.540000,5.3430000 L 72.326000,4.1620000 L 70.637000,4.0320000 C 71.519000,3.6270000 72.554000,2.7990000 73.267000,2.0780000 z "
   id="path31" />

			</g>

			<g
   id="g33">
				<polyline
   style="fill:none;stroke:#000000"
   points="46.43,78.29 64.856,46.13 90.651,22.345 "
   id="polyline35" />

				<path
   d="M 92.135000,20.974000 C 91.675000,21.878000 91.216000,23.121000 91.110000,24.086000 L 90.454000,22.524000 L 88.951000,21.743000 C 89.920000,21.716000 91.196000,21.359000 92.135000,20.974000 z "
   id="path37" />

			</g>

			<g
   id="g39">
				<polyline
   style="fill:none;stroke:#000000"
   points="45.787,78.625 38.083,45.46 19.323,3.92 "
   id="polyline41" />

				<path
   d="M 18.490000,2.0780000 C 18.560000,3.0900000 18.497000,4.4140000 18.217000,5.3430000 L 19.432000,4.1620000 L 21.120000,4.0320000 C 20.239000,3.6270000 19.203000,2.7990000 18.490000,2.0780000 z "
   id="path43" />

			</g>

			<g
   id="g45">
				<polyline
   style="fill:none;stroke:#000000"
   points="45.704,78.29 27.279,46.13 1.484,22.345 "
   id="polyline47" />

				<path
   d="M 0.0000000,20.974000 C 0.46000000,21.878000 0.92000000,23.121000 1.0250000,24.086000 L 1.6810000,22.524000 L 3.1840000,21.743000 C 2.2150000,21.716000 0.93800000,21.359000 0.0000000,20.974000 z "
   id="path49" />

			</g>

		</g>

		<line
   style="fill:none"
   x1="101.88600"
   y1="34.213001"
   x2="101.88600"
   y2="64.212997"
   id="line51" />

	</g>
    <rect
       style="fill:#dedede;fill-opacity:1.0000000;fill-rule:evenodd;stroke:none;stroke-width:1.0000000pt;stroke-linecap:butt;stroke-linejoin:miter;stroke-opacity:1.0000000"
       id="rect2377"
       width="129.60703"
       height="145.35367"
       x="397.90567"
       y="494.56747" />
    <rect
       style="fill:#dedede;fill-opacity:1.0000000;fill-rule:evenodd;stroke:none;stroke-width:1.0000000pt;stroke-linecap:butt;stroke-linejoin:miter;stroke-opacity:1.0000000"
       id="rect2379"
       width="129.60703"
       height="145.35367"
       x="539.31580"
       y="494.56747" />
    <g
       style="overflow:visible"
       id="g1563"
       transform="translate(415.8251,511.8715)">
		<g
   id="g61">
			<path
   style="fill:#b4b4b4;stroke:#000000"
   d="M 66.991000,98.957000 L 72.016000,78.103000 L 59.558000,83.681000 C 57.272000,81.004000 51.171000,79.089000 44.001000,79.089000 C 34.876000,79.089000 27.479000,82.191000 27.479000,86.018000 C 27.479000,89.257000 32.781000,91.977000 39.944000,92.735000 C 41.976000,95.621000 44.574000,95.991000 45.383000,96.193000 C 45.938000,96.332000 45.268000,94.558000 44.557000,92.941000 C 49.066000,92.878000 53.115000,92.059000 56.009000,90.774000 L 66.991000,98.957000 z "
   id="path63" />

			<ellipse
   style="fill:#ffffff;stroke:#000000"
   cx="33.575001"
   cy="83.755997"
   rx="1.0660000"
   ry="0.88800001"
   id="ellipse65"
   sodipodi:cx="33.575001"
   sodipodi:cy="83.755997"
   sodipodi:rx="1.0660000"
   sodipodi:ry="0.88800001" />
 
		</g>

		<g
   id="g67">
			<rect
   x="3.7100000"
   y="45.819000"
   style="fill:none;stroke:#000000"
   width="90.449997"
   height="62.310001"
   id="rect69" />
 
			<line
   style="fill:none;stroke:#000000"
   x1="3.7100000"
   y1="35.433998"
   x2="3.7100000"
   y2="45.819000"
   id="line71" />

			<line
   style="fill:none;stroke:#000000"
   x1="94.160004"
   y1="35.098999"
   x2="94.160004"
   y2="45.819000"
   id="line73" />

		</g>

		<g
   id="g75">
			<line
   style="stroke:#000000"
   x1="48.683998"
   y1="79.070999"
   x2="48.683998"
   y2="2.0209999"
   id="line77" />

			<path
   d="M 48.684000,0.0000000 C 49.037000,0.95100000 49.640000,2.1310000 50.277000,2.8630000 L 48.684000,2.2870000 L 47.091000,2.8630000 C 47.729000,2.1310000 48.331000,0.95100000 48.684000,0.0000000 z "
   id="path79" />

		</g>

		<g
   id="g81">
			<polyline
   style="fill:none;stroke:#000000"
   points="34.72,79.562 42.425,46.397 61.185,4.857 "
   id="polyline83" />

			<path
   d="M 62.017000,3.0150000 C 61.947000,4.0270000 62.010000,5.3510000 62.290000,6.2800000 L 61.075000,5.0990000 L 59.386000,4.9690000 C 60.269000,4.5640000 61.304000,3.7360000 62.017000,3.0150000 z "
   id="path85" />

		</g>

		<g
   id="g87">
			<polyline
   style="fill:none;stroke:#000000"
   points="37.306,78.977 55.73,46.817 81.525,23.032 "
   id="polyline89" />

			<path
   d="M 83.009000,21.661000 C 82.549000,22.565000 82.090000,23.808000 81.984000,24.773000 L 81.328000,23.211000 L 79.825000,22.431000 C 80.794000,22.403000 82.071000,22.046000 83.009000,21.661000 z "
   id="path91" />

		</g>

		<g
   id="g93">
			<polyline
   style="fill:none;stroke:#000000"
   points="52.975,79.562 45.27,46.397 26.51,4.857 "
   id="polyline95" />

			<path
   d="M 25.678000,3.0150000 C 25.748000,4.0270000 25.685000,5.3510000 25.405000,6.2800000 L 26.620000,5.0990000 L 28.309000,4.9690000 C 27.426000,4.5640000 26.391000,3.7360000 25.678000,3.0150000 z "
   id="path97" />

		</g>

		<g
   id="g99">
			<polyline
   style="fill:none;stroke:#000000"
   points="45.704,78.29 27.279,46.13 1.484,22.345 "
   id="polyline101" />

			<path
   d="M 0.0000000,20.973000 C 0.46000000,21.877000 0.91900000,23.120000 1.0250000,24.085000 L 1.6810000,22.523000 L 3.1840000,21.743000 C 2.2150000,21.716000 0.93800000,21.358000 0.0000000,20.973000 z "
   id="path103" />

		</g>

		<line
   style="fill:none"
   x1="100.76600"
   y1="72.071999"
   x2="100.76600"
   y2="42.071999"
   id="line105" />

	</g>
    <g
       transform="translate(547.0841,511.3715)"
       style="overflow:visible"
       id="g1588">
		<g
   id="g115">
			<g
   id="g117">
				<path
   style="fill:#b4b4b4;stroke:#000000"
   d="M 77.366000,99.457000 L 82.391000,78.603000 L 69.933000,84.181000 C 67.646000,81.504000 61.546000,79.589000 54.376000,79.589000 C 45.251000,79.589000 37.854000,82.691000 37.854000,86.518000 C 37.854000,89.757000 43.156000,92.477000 50.319000,93.235000 C 52.351000,96.121000 54.949000,96.491000 55.758000,96.693000 C 56.312000,96.832000 55.643000,95.058000 54.931000,93.441000 C 59.440000,93.378000 63.490000,92.559000 66.383000,91.274000 L 77.366000,99.457000 z "
   id="path119" />

				<ellipse
   style="fill:#ffffff;stroke:#000000"
   cx="43.950001"
   cy="84.255997"
   rx="1.0660000"
   ry="0.88800001"
   id="ellipse121"
   sodipodi:cx="43.950001"
   sodipodi:cy="84.255997"
   sodipodi:rx="1.0660000"
   sodipodi:ry="0.88800001" />
 
			</g>

			<g
   id="g123">
				<rect
   x="14.085000"
   y="46.319000"
   style="fill:none;stroke:#000000"
   width="90.449997"
   height="62.310001"
   id="rect125" />
 
				<line
   style="fill:none;stroke:#000000"
   x1="14.085000"
   y1="35.933998"
   x2="14.085000"
   y2="46.319000"
   id="line127" />

				<line
   style="fill:none;stroke:#000000"
   x1="104.53500"
   y1="35.598999"
   x2="104.53500"
   y2="46.319000"
   id="line129" />

			</g>

			<g
   id="g131">
				<g
   id="g133">
					<line
   style="stroke:#000000"
   x1="55.737000"
   y1="79.931000"
   x2="55.737000"
   y2="2.8810000"
   id="line135" />

					<path
   d="M 55.737000,0.85900000 C 56.090000,1.8100000 56.692000,2.9910000 57.330000,3.7220000 L 55.737000,3.1460000 L 54.144000,3.7220000 C 54.782000,2.9910000 55.384000,1.8100000 55.737000,0.85900000 z "
   id="path137" />

				</g>

				<g
   id="g139">
					<polyline
   style="fill:none;stroke:#000000"
   points="55.96,79.484 63.666,46.319 82.425,4.779 "
   id="polyline141" />

					<path
   d="M 83.257000,2.9370000 C 83.187000,3.9490000 83.251000,5.2730000 83.530000,6.2020000 L 82.316000,5.0210000 L 80.627000,4.8910000 C 81.510000,4.4860000 82.544000,3.6580000 83.257000,2.9370000 z "
   id="path143" />

				</g>

				<g
   id="g145">
					<polyline
   style="fill:none;stroke:#000000"
   points="56.421,79.149 74.846,46.989 100.641,23.204 "
   id="polyline147" />

					<path
   d="M 102.12500,21.833000 C 101.66500,22.737000 101.20600,23.980000 101.10000,24.945000 L 100.44400,23.383000 L 98.941000,22.602000 C 99.910000,22.575000 101.18600,22.218000 102.12500,21.833000 z "
   id="path149" />

				</g>

				<g
   id="g151">
					<polyline
   style="fill:none;stroke:#000000"
   points="55.778,79.484 48.073,46.319 29.313,4.779 "
   id="polyline153" />

					<path
   d="M 28.481000,2.9370000 C 28.551000,3.9490000 28.488000,5.2730000 28.208000,6.2020000 L 29.423000,5.0210000 L 31.111000,4.8910000 C 30.229000,4.4860000 29.194000,3.6580000 28.481000,2.9370000 z "
   id="path155" />

				</g>

				<g
   id="g157">
					<polyline
   style="fill:none;stroke:#000000"
   points="55.694,79.149 37.27,46.989 11.474,23.204 "
   id="polyline159" />

					<path
   d="M 9.9910000,21.833000 C 10.451000,22.737000 10.910000,23.980000 11.016000,24.945000 L 11.672000,23.383000 L 13.175000,22.602000 C 12.205000,22.575000 10.929000,22.218000 9.9910000,21.833000 z "
   id="path161" />

				</g>

			</g>

			<g
   id="g163">
				<g
   id="g165">
					<line
   style="stroke:#000000"
   x1="65.247002"
   y1="80.570999"
   x2="65.247002"
   y2="3.5209999"
   id="line167" />

					<path
   d="M 65.247000,1.5000000 C 65.600000,2.4510000 66.202000,3.6310000 66.840000,4.3630000 L 65.247000,3.7870000 L 63.654000,4.3630000 C 64.292000,3.6310000 64.894000,2.4510000 65.247000,1.5000000 z "
   id="path169" />

				</g>

				<g
   id="g171">
					<polyline
   style="fill:none;stroke:#000000"
   points="65.47,80.125 73.175,46.96 91.935,5.42 "
   id="polyline173" />

					<path
   d="M 92.767000,3.5770000 C 92.697000,4.5890000 92.761000,5.9130000 93.040000,6.8420000 L 91.825000,5.6610000 L 90.137000,5.5310000 C 91.020000,5.1270000 92.054000,4.2990000 92.767000,3.5770000 z "
   id="path175" />

				</g>

				<g
   id="g177">
					<polyline
   style="fill:none;stroke:#000000"
   points="65.931,79.79 84.355,47.63 110.151,23.845 "
   id="polyline179" />

					<path
   d="M 111.63400,22.473000 C 111.17400,23.377000 110.71500,24.620000 110.60900,25.585000 L 109.95300,24.023000 L 108.45000,23.243000 C 109.42000,23.216000 110.69600,22.858000 111.63400,22.473000 z "
   id="path181" />

				</g>

				<g
   id="g183">
					<polyline
   style="fill:none;stroke:#000000"
   points="65.288,80.125 57.583,46.96 38.823,5.42 "
   id="polyline185" />

					<path
   d="M 37.991000,3.5770000 C 38.061000,4.5890000 37.997000,5.9130000 37.718000,6.8420000 L 38.933000,5.6610000 L 40.621000,5.5310000 C 39.739000,5.1270000 38.704000,4.2990000 37.991000,3.5770000 z "
   id="path187" />

				</g>

				<g
   id="g189">
					<polyline
   style="fill:none;stroke:#000000"
   points="65.204,79.79 46.779,47.63 20.984,23.845 "
   id="polyline191" />

					<path
   d="M 19.500000,22.473000 C 19.960000,23.377000 20.420000,24.620000 20.525000,25.585000 L 21.181000,24.023000 L 22.684000,23.243000 C 21.715000,23.216000 20.439000,22.858000 19.500000,22.473000 z "
   id="path193" />

				</g>

			</g>

			<g
   id="g195">
				<g
   id="g197">
					<line
   style="stroke:#000000"
   x1="45.747002"
   y1="79.070999"
   x2="45.747002"
   y2="2.0209999"
   id="line199" />

					<path
   d="M 45.747000,0.0000000 C 46.100000,0.95100000 46.702000,2.1310000 47.340000,2.8630000 L 45.747000,2.2870000 L 44.154000,2.8630000 C 44.792000,2.1310000 45.394000,0.95100000 45.747000,0.0000000 z "
   id="path201" />

				</g>

				<g
   id="g203">
					<polyline
   style="fill:none;stroke:#000000"
   points="45.97,78.625 53.675,45.46 72.435,3.92 "
   id="polyline205" />

					<path
   d="M 73.267000,2.0770000 C 73.197000,3.0890000 73.261000,4.4130000 73.540000,5.3420000 L 72.325000,4.1610000 L 70.637000,4.0310000 C 71.520000,3.6270000 72.554000,2.7990000 73.267000,2.0770000 z "
   id="path207" />

				</g>

				<g
   id="g209">
					<polyline
   style="fill:none;stroke:#000000"
   points="46.431,78.29 64.855,46.13 90.651,22.345 "
   id="polyline211" />

					<path
   d="M 92.134000,20.973000 C 91.674000,21.877000 91.215000,23.120000 91.109000,24.085000 L 90.453000,22.523000 L 88.950000,21.743000 C 89.920000,21.716000 91.196000,21.358000 92.134000,20.973000 z "
   id="path213" />

				</g>

				<g
   id="g215">
					<polyline
   style="fill:none;stroke:#000000"
   points="45.788,78.625 38.083,45.46 19.323,3.92 "
   id="polyline217" />

					<path
   d="M 18.491000,2.0770000 C 18.561000,3.0890000 18.497000,4.4130000 18.218000,5.3420000 L 19.433000,4.1610000 L 21.121000,4.0310000 C 20.239000,3.6270000 19.204000,2.7990000 18.491000,2.0770000 z "
   id="path219" />

				</g>

				<g
   id="g221">
					<polyline
   style="fill:none;stroke:#000000"
   points="45.704,78.29 27.279,46.13 1.484,22.345 "
   id="polyline223" />

					<path
   d="M 0.0000000,20.973000 C 0.46000000,21.877000 0.92000000,23.120000 1.0250000,24.085000 L 1.6810000,22.523000 L 3.1840000,21.743000 C 2.2150000,21.716000 0.93900000,21.358000 0.0000000,20.973000 z "
   id="path225" />

				</g>

			</g>

		</g>

		<line
   style="fill:none"
   x1="120.44400"
   y1="41.571999"
   x2="120.44400"
   y2="65.571999"
   id="line227" />

	</g>
    <text
       xml:space="preserve"
       style="font-size:10.000000px;font-style:normal;font-variant:normal;font-weight:normal;font-stretch:normal;text-align:start;line-height:125.00000%;writing-mode:lr-tb;text-anchor:start;fill:#000000;fill-opacity:1.0000000;stroke:none;stroke-width:1.0000000pt;stroke-linecap:butt;stroke-linejoin:miter;stroke-opacity:1.0000000;font-family:Liberation Sans"
       x="262.8479"
       y="507.42749"
       id="text2381"
       sodipodi:linespacing="125.00000%"><tspan
         sodipodi:role="line"
         id="tspan2383"
         x="262.84790"
         y="507.42749">1</tspan></text>
    <text
       xml:space="preserve"
       style="font-size:10.000000px;font-style:normal;font-variant:normal;font-weight:normal;font-stretch:normal;text-align:start;line-height:125.00000%;writing-mode:lr-tb;text-anchor:start;fill:#000000;fill-opacity:1.0000000;stroke:none;stroke-width:1.0000000pt;stroke-linecap:butt;stroke-linejoin:miter;stroke-opacity:1.0000000;font-family:Liberation Sans"
       x="403.41019"
       y="507.42749"
       id="text2385"
       sodipodi:linespacing="125.00000%"><tspan
         sodipodi:role="line"
         id="tspan2387"
         x="403.41019"
         y="507.42749">2</tspan></text>
    <text
       xml:space="preserve"
       style="font-size:10.000000px;font-style:normal;font-variant:normal;font-weight:normal;font-stretch:normal;text-align:start;line-height:125.00000%;writing-mode:lr-tb;text-anchor:start;fill:#000000;fill-opacity:1.0000000;stroke:none;stroke-width:1.0000000pt;stroke-linecap:butt;stroke-linejoin:miter;stroke-opacity:1.0000000;font-family:Liberation Sans"
       x="543.86505"
       y="507.28589"
       id="text2389"
       sodipodi:linespacing="125.00000%"><tspan
         sodipodi:role="line"
         id="tspan2391"
         x="543.86505"
         y="507.28589">3</tspan></text>
  </g>
</svg>
