<?xml version="1.0" encoding="UTF-8" standalone="no"?>
<!-- Generator: Adobe Illustrator 11 Build 196, SVG Export Plug-In . SVG Version: 6.0.0 Build 78)  -->
<svg
   xmlns:dc="http://purl.org/dc/elements/1.1/"
   xmlns:cc="http://web.resource.org/cc/"
   xmlns:rdf="http://www.w3.org/1999/02/22-rdf-syntax-ns#"
   xmlns:svg="http://www.w3.org/2000/svg"
   xmlns="http://www.w3.org/2000/svg"
   xmlns:sodipodi="http://inkscape.sourceforge.net/DTD/sodipodi-0.dtd"
   xmlns:inkscape="http://www.inkscape.org/namespaces/inkscape"
   width="145.012"
   height="148.973"
   viewBox="0 0 145.012 148.973"
   style="overflow:visible;enable-background:new 0 0 145.012 148.973"
   xml:space="preserve"
   id="svg2"
   sodipodi:version="0.32"
   sodipodi:docname="flat-mirror.svg"
   sodipodi:docbase="/home/bcrowell/Documents/writing/lm/trunk/5op/ch02/figs"><metadata
   id="metadata96"><rdf:RDF><cc:Work
       rdf:about=""><dc:format>image/svg+xml</dc:format><dc:type
         rdf:resource="http://purl.org/dc/dcmitype/StillImage" /></cc:Work></rdf:RDF></metadata><defs
   id="defs94" /><sodipodi:namedview
   inkscape:cy="41.057787"
   inkscape:cx="86.374013"
   inkscape:zoom="2.2976996"
   inkscape:window-height="510"
   inkscape:window-width="712"
   inkscape:pageshadow="2"
   inkscape:pageopacity="0.0"
   borderopacity="1.0"
   bordercolor="#666666"
   pagecolor="#ffffff"
   id="base"
   inkscape:window-x="368"
   inkscape:window-y="368"
   inkscape:current-layer="svg2" />
	<style
   type="text/css"
   id="style4">
	
	</style>
	<g
   id="Layer_1">
		<line
   style="fill:none;stroke:#000000;"
   x1="72.035"
   y1="33.216"
   x2="72.035"
   y2="142.017"
   id="line7" />
		<line
   style="fill:none;stroke:#000000;stroke-width:0.5;"
   x1="105.345"
   y1="92.292"
   x2="72.194"
   y2="83.367"
   id="line9" />
		<g
   id="g11">
			<line
   style="fill:none;stroke:#000000;stroke-width:0.5;"
   x1="72.17"
   y1="83.329"
   x2="111.643"
   y2="72.332"
   id="line13" />
			<path
   d="M113.497,71.812c-0.782,0.566-1.71,1.42-2.218,2.191l0.122-1.607l-0.935-1.312     C111.299,71.48,112.535,71.731,113.497,71.812z"
   id="path15" />
		</g>
		<line
   style="fill:none;stroke:#000000;stroke-width:0.5;"
   x1="105.823"
   y1="93.248"
   x2="72.141"
   y2="119.28"
   id="line17" />
		<g
   id="g19">
			<line
   style="fill:none;stroke:#000000;stroke-width:0.5;"
   x1="103.645"
   y1="143.398"
   x2="72.194"
   y2="119.173"
   id="line21" />
			<path
   d="M105.17,144.57c-0.922-0.286-2.162-0.517-3.083-0.461l1.359-0.866l0.491-1.535     C104.118,142.612,104.658,143.751,105.17,144.57z"
   id="path23" />
		</g>
		<line
   style="fill:none;stroke:#000000;stroke-width:0.5;"
   x1="105.752"
   y1="90.733"
   x2="73.168"
   y2="46.25"
   id="line25" />
		<g
   id="g27">
			<line
   style="fill:none;stroke:#000000;stroke-width:0.5;"
   x1="105.876"
   y1="1.554"
   x2="73.292"
   y2="46.038"
   id="line29" />
			<path
   d="M107.016,0c-0.264,0.929-0.465,2.173-0.387,3.094l-0.899-1.338l-1.546-0.454C105.083,1.099,106.209,0.532,107.016,0z"
   id="path31" />
		</g>
		<line
   style="fill:none;stroke:#000000;stroke-width:0.5;stroke-dasharray:2;"
   x1="71.733"
   y1="118.8"
   x2="38.602"
   y2="92.717"
   id="line33" />
		<line
   style="fill:none;stroke:#000000;stroke-width:0.5;stroke-dasharray:2;"
   x1="72.297"
   y1="46.938"
   x2="38.602"
   y2="92.717"
   id="line35" />
		<line
   style="fill:none;stroke:#000000;stroke-width:0.5;stroke-dasharray:2;"
   x1="38.602"
   y1="92.717"
   x2="72.17"
   y2="83.329"
   id="line37" />
		<g
   id="g39">
			<path
   style="fill:#FFFFFF;"
   d="M22.721,113.699l7.495-4.01c0,0,1.809-0.583,2.261-1.66c0.993-2.366-0.478-8.1-1.943-9.757     l-1.552-0.041c0,0,5.665-1.424,6.677-2.416l-1.107-0.26c0,0,2.155,0.904,3.447-0.044c3.553-2.608-1.426-9.392-3.128-11.373     s-6.271-5.835-7.242-8.851c-0.971-3.015-1.423-1.938-0.046-7.173c1.376-5.235-2.207-22.984-3.351-28.606L8.56,48.088     l8.636,88.556c0,0,3.898-1.122,5.491-4.031s0.191-6.85,0.104-10.017c-0.088-3.167,5.426-5.474,5.964-7.111     c0.538-1.638-1.359-4.222-1.359-4.222"
   id="path41" />
			<path
   style="fill:none;stroke:#000000;stroke-width:0.3;stroke-dasharray:2;"
   d="M24.057,39.528     c1.144,5.622,4.728,23.37,3.352,28.605s-0.924,4.158,0.046,7.173c0.971,3.016,5.54,6.869,7.242,8.851     c1.703,1.981,6.682,8.764,3.128,11.373c-1.292,0.948-3.447,0.044-3.447,0.044"
   id="path43" />
			<path
   style="fill:none;stroke:#000000;stroke-width:0.3;stroke-dasharray:2;"
   d="M35.485,95.833     c-1.012,0.991-6.677,2.416-6.677,2.416"
   id="path45" />
			<path
   style="fill:none;stroke:#000000;stroke-width:0.3;stroke-dasharray:2;"
   d="M29.528,98.574     c1.466,1.658,1.305,7.335,1.943,9.757c0.298,1.129-3.933,2.997-3.933,2.997l-6.074,0.283l-1.487-0.407l-0.744-0.266"
   id="path47" />
			<path
   style="fill:none;stroke:#000000;stroke-width:0.3;stroke-dasharray:2;"
   d="M27.221,111.281c0,0,1.897,2.584,1.359,4.221     c-0.538,1.638-6.052,3.945-5.964,7.111c0.087,3.167,1.489,7.108-0.104,10.017c-1.593,2.909-5.491,4.031-5.491,4.031"
   id="path49" />
			
				<ellipse
   transform="matrix(-0.1516 0.9884 -0.9884 -0.1516 104.2785 72.5984)"
   style="fill:none;stroke:#000000;stroke-width:0.3;stroke-dasharray:2;"
   cx="20.984"
   cy="81.05"
   rx="11.82"
   ry="2.605"
   id="ellipse51" /> 
			<path
   style="fill:none;stroke:#000000;stroke-width:0.3;stroke-dasharray:2;"
   d="M28.933,77.257     c1.054-4.611,2.538-7.829,3.678-7.654c1.421,0.218,1.772,5.626,0.782,12.079c-0.042,0.276-0.086,0.551-0.132,0.822"
   id="path53" />
			<line
   style="fill:none;stroke:#000000;stroke-width:0.3;stroke-dasharray:2;"
   x1="19.204"
   y1="74.901"
   x2="0.002"
   y2="74.636"
   id="line55" />
		</g>
		<g
   id="g57">
			<text
   transform="translate(93.56880,108.8672)"
   id="text59"><tspan
     x="0"
     y="0"
     style="font-size:8.5000000px;font-family:Liberation Sans"
     id="tspan61">1</tspan></text>

		</g>
		<g
   id="g63">
			<text
   transform="translate(92.76420,144.5103)"
   id="text65"><tspan
     x="0"
     y="0"
     style="font-size:8.5000000px;font-family:Liberation Sans"
     id="tspan67">2</tspan></text>

		</g>
		<g
   id="g69">
			<text
   transform="translate(51.06840,113.1172)"
   id="text71"><tspan
     x="0"
     y="0"
     style="font-size:8.5000000px;font-family:Liberation Sans"
     id="tspan73">3</tspan></text>

		</g>
		<g
   id="g75">
			<path
   style="fill:#DDC2AE;"
   d="M117.912,110.085c0,0-1.892,2.577-1.355,4.209c0.537,1.633,6.035,3.934,5.947,7.091     s-1.485,7.088,0.103,9.989c1.588,2.901,5.476,4.02,5.476,4.02l16.481-0.331v-96.59l-23.497,0.06     c-1.141,5.606-4.715,23.305-3.342,28.525c1.373,5.221,0.922,4.146-0.046,7.153s-5.523,6.85-7.222,8.826     c-1.698,1.975-6.663,8.74-3.12,11.34c1.289,0.946,2.593,0.479,2.593,0.479l5.68,2.556c-1.461,1.653-1.301,7.315-1.938,9.73     c-0.297,1.126,3.921,2.989,3.921,2.989l0.864,0.04"
   id="path77" />
			<path
   style="fill:none;"
   d="M122.355,112.857l-7.474-3.999c0,0-1.804-0.581-2.255-1.655c-0.99-2.359,0.476-8.077,1.938-9.73     l1.548-0.041c0,0-5.649-1.42-6.658-2.409l1.104-0.258c0,0-2.148,0.901-3.437-0.044c-3.543-2.601,1.422-9.365,3.12-11.341     c1.698-1.975,6.253-5.818,7.221-8.826c0.968-3.007,1.419-1.933,0.046-7.153c-1.373-5.221,2.201-22.919,3.342-28.525l15.627,8.554     l-8.611,88.307c0,0-3.887-1.119-5.476-4.019c-1.588-2.901-0.19-6.831-0.103-9.989s-5.411-5.458-5.947-7.091     c-0.537-1.633,1.355-4.209,1.355-4.209"
   id="path79" />
			<path
   style="fill:none;stroke:#000000;stroke-width:0.3;"
   d="M121.023,38.893c-1.141,5.606-4.715,23.305-3.342,28.525     c1.373,5.221,0.922,4.146-0.046,7.153c-0.968,3.007-5.524,6.85-7.222,8.826c-1.698,1.975-6.663,8.74-3.12,11.34     c1.289,0.946,2.593,0.479,2.593,0.479"
   id="path81" />
			<path
   style="fill:none;stroke:#000000;stroke-width:0.3;"
   d="M115.567,97.773c-1.461,1.653-1.301,7.315-1.938,9.73     c-0.297,1.126,3.921,2.989,3.921,2.989l6.057,0.282l1.483-0.406l0.742-0.265"
   id="path83" />
			<path
   style="fill:none;stroke:#000000;stroke-width:0.3;"
   d="M117.868,110.445c0,0-1.891,2.577-1.355,4.209     s6.034,3.934,5.947,7.091c-0.087,3.158-1.485,7.088,0.104,9.989c1.588,2.901,5.476,4.02,5.476,4.02"
   id="path85" />
			
				<ellipse
   transform="matrix(0.1516 0.9884 -0.9884 0.1516 184.6425 -54.5297)"
   style="fill:none;stroke:#000000;stroke-width:0.3;"
   cx="124.088"
   cy="80.299"
   rx="11.787"
   ry="2.597"
   id="ellipse87" /> 
			<path
   style="fill:none;stroke:#000000;stroke-width:0.3;"
   d="M116.16,76.517c-1.05-4.598-2.53-7.807-3.667-7.633     c-1.418,0.217-1.767,5.61-0.78,12.045c0.042,0.276,0.086,0.549,0.132,0.82"
   id="path89" />
			<line
   style="fill:none;stroke:#000000;stroke-width:0.3;"
   x1="125.862"
   y1="74.167"
   x2="145.01"
   y2="73.903"
   id="line91" />
		</g>
	</g>
</svg>