<?xml version="1.0" standalone="no"?>
<!DOCTYPE svg PUBLIC "-//W3C//DTD SVG 20010904//EN"
 "http://www.w3.org/TR/2001/REC-SVG-20010904/DTD/svg10.dtd">
<svg version="1.0" xmlns="http://www.w3.org/2000/svg"
 width="468pt" height="425pt" viewBox="0 0 468 425"
 preserveAspectRatio="xMidYMid meet">
<metadata>
Created by potrace 1.7, written by Peter Selinger 2001-2005
</metadata>
<g transform="translate(0,425) scale(0.056386,-0.056386)"
fill="#000000" stroke="none">
<path d="M0 4049 c0 -3290 1 -3473 18 -3486 16 -14 16 -14 0 -9 -16 5 -17 -15
-18 -274 l0 -280 4150 0 4150 0 0 3760 0 3760 -4150 0 -4150 0 0 -3471z m2605
3356 c54 -31 91 -73 162 -180 99 -150 158 -267 273 -540 20 -49 48 -108 61
-130 l24 -40 6 165 c8 200 31 330 76 430 77 169 145 203 253 125 61 -45 114
-57 204 -49 47 4 86 2 109 -5 48 -16 107 -84 143 -166 27 -60 33 -67 84 -92
30 -14 74 -41 98 -59 51 -39 115 -55 222 -57 80 -2 82 -3 114 -38 30 -32 74
-132 91 -204 17 -72 28 -225 31 -419 2 -130 7 -213 13 -219 8 -8 51 9 146 58
125 64 140 69 213 73 88 5 135 -12 204 -73 20 -18 57 -42 83 -54 25 -11 67
-38 92 -60 27 -24 66 -46 97 -55 98 -29 132 -94 123 -237 -6 -93 -24 -147 -75
-223 -37 -54 -48 -108 -27 -126 32 -26 12 -80 -35 -95 -26 -8 -25 -21 5 -51
14 -14 25 -29 25 -34 0 -15 36 -30 72 -30 18 0 51 -7 73 -15 22 -8 69 -14 105
-14 120 -1 312 -31 460 -72 200 -56 309 -106 381 -174 44 -41 59 -70 59 -113
0 -37 33 -97 86 -156 48 -53 55 -90 32 -168 -16 -53 10 -136 61 -192 42 -46
111 -179 113 -217 2 -52 -3 -70 -32 -102 -50 -58 -218 -117 -331 -117 -21 0
-39 -4 -39 -10 0 -5 -7 -10 -16 -10 -10 0 -1 -14 26 -40 23 -22 46 -40 51 -40
22 0 139 -89 221 -168 124 -120 145 -171 113 -276 -29 -95 -23 -116 55 -203
39 -43 85 -106 102 -140 26 -54 30 -70 26 -120 -5 -52 -8 -60 -51 -97 -25 -23
-51 -57 -57 -76 -11 -32 -10 -41 9 -78 29 -57 28 -122 -2 -150 -46 -43 -146
-54 -249 -27 -62 16 -269 88 -388 136 -121 48 -420 226 -504 300 -82 72 -38 5
378 -571 229 -316 322 -519 272 -595 -13 -19 -25 -25 -52 -25 -47 0 -94 -39
-114 -93 -19 -52 -45 -57 -130 -29 -52 18 -181 96 -235 142 -35 30 -55 32 -53
7 0 -12 -1 -26 -3 -32 -1 -5 7 -30 20 -54 46 -89 77 -346 50 -418 -26 -69 -93
-95 -147 -57 -22 15 -25 15 -47 -6 -13 -12 -39 -25 -57 -29 -31 -6 -33 -9 -38
-60 -7 -65 -28 -85 -80 -76 -56 11 -110 49 -206 147 -98 99 -175 204 -243 333
-48 89 -77 125 -101 125 -32 0 -36 -17 -26 -112 10 -104 -2 -262 -30 -372 -20
-82 -57 -126 -104 -126 -46 0 -99 28 -106 56 -5 19 -13 24 -40 24 -45 0 -106
32 -123 64 -19 35 -32 22 -30 -30 2 -30 -3 -49 -16 -64 -21 -23 -26 -24 -78
-9 -59 16 -108 68 -157 166 -24 48 -58 108 -76 133 -17 25 -42 69 -54 98 -12
28 -25 52 -29 52 -3 0 -18 -24 -34 -53 -35 -67 -119 -157 -180 -192 -86 -49
-169 -35 -211 37 -9 15 -26 30 -39 34 -12 3 -30 13 -40 22 -15 13 -23 13 -56
2 -22 -7 -51 -10 -67 -6 -26 7 -79 56 -111 103 -26 39 -43 189 -49 453 l-7
254 -21 -29 c-48 -68 -142 -156 -193 -181 -45 -22 -63 -26 -120 -22 -85 5
-158 38 -185 84 -16 28 -31 37 -87 54 -38 11 -79 20 -91 20 -13 0 -38 5 -56
12 -31 11 -32 10 -110 -68 -76 -77 -133 -124 -183 -152 -13 -8 -38 -22 -56
-32 -44 -25 -189 -70 -224 -70 -50 0 -85 19 -129 70 -37 43 -44 59 -49 107 -5
49 -10 58 -37 72 -16 9 -43 29 -60 44 -26 25 -34 28 -71 23 -55 -9 -97 13
-118 61 -24 56 -38 187 -28 260 9 63 93 315 111 333 3 3 31 43 63 90 95 141
183 236 364 395 182 160 317 257 448 322 97 49 132 60 210 69 33 3 63 8 68 11
4 2 7 -1 7 -6 0 -6 -4 -11 -10 -11 -20 0 -9 -30 18 -47 15 -10 33 -26 40 -35
7 -10 21 -18 31 -18 10 0 32 -14 48 -31 17 -16 40 -31 51 -32 11 0 19 -4 16
-8 -9 -15 13 -17 40 -4 15 8 54 24 87 36 l60 22 29 -31 c16 -18 38 -32 49 -32
11 0 23 -4 26 -10 3 -5 13 -10 21 -10 9 0 35 -13 59 -30 24 -16 47 -30 52 -30
5 0 24 -11 44 -24 30 -20 40 -37 57 -93 12 -37 27 -103 33 -146 l12 -79 31 49
c51 81 78 112 131 153 l51 39 42 -20 c23 -12 42 -25 42 -30 0 -4 17 -13 38
-18 43 -13 62 -14 46 -3 -13 8 -29 72 -19 72 4 0 20 -7 35 -17 23 -13 27 -20
20 -39 -10 -26 8 -34 78 -34 38 0 42 -2 42 -25 0 -27 -18 -33 -38 -13 -6 6
-14 10 -16 7 -7 -7 43 -89 54 -89 9 0 40 91 40 118 0 11 8 13 38 6 20 -4 63
-8 94 -9 52 -1 56 1 43 15 -8 9 -15 27 -15 39 0 18 3 20 19 11 11 -5 26 -10
33 -10 7 0 -1 8 -19 16 -18 9 -33 23 -35 31 -2 13 -7 12 -28 -6 -14 -11 -20
-20 -14 -21 16 0 25 -38 11 -47 -12 -7 -69 -6 -99 3 -10 3 -15 11 -11 20 3 9
-2 14 -16 14 -14 0 -21 -6 -21 -19 0 -25 -20 -38 -31 -20 -4 7 -11 10 -15 6
-4 -4 -13 -2 -20 4 -11 9 -11 14 1 25 18 18 10 40 -16 47 -10 3 -19 12 -19 21
0 19 -1 19 -32 7 -16 -6 -27 -4 -36 5 -11 12 -9 14 8 14 12 0 18 4 15 10 -4 6
-1 18 6 26 10 12 14 12 20 2 11 -17 21 -5 13 16 -5 12 -14 16 -29 12 -18 -5
-30 2 -54 29 -35 40 -41 43 -41 15 0 -14 -7 -20 -21 -20 -16 0 -20 5 -16 20 3
10 -1 24 -8 30 -7 6 -15 22 -18 36 -2 13 -2 22 1 20 9 -9 30 27 24 42 -3 10
-7 11 -12 2 -5 -8 -9 -4 -13 9 -4 17 -1 20 16 17 12 -2 17 -1 10 1 -13 5 -26
33 -18 41 3 3 12 -3 20 -14 14 -19 14 -18 15 3 0 12 -6 24 -12 26 -7 3 1 6 17
6 18 1 25 4 18 9 -7 4 -10 17 -6 30 3 12 9 19 14 17 4 -3 6 -12 2 -20 -10 -27
6 -15 22 16 13 25 19 28 31 18 11 -9 14 -8 14 4 0 8 -6 18 -12 21 -7 3 1 3 18
0 l31 -5 -11 43 c-11 44 -24 61 -38 52 -4 -3 -8 1 -8 9 0 14 -20 27 -41 27 -5
0 -9 -10 -9 -21 0 -20 -4 -21 -42 -15 -40 7 -67 28 -68 54 0 10 5 10 20 2 20
-11 24 -8 21 22 -3 22 17 32 33 18 8 -6 25 -8 39 -5 15 4 28 2 32 -5 5 -9 1
-10 -15 -5 -15 5 -20 4 -16 -4 4 -6 14 -11 22 -11 8 0 14 -4 14 -10 0 -10 20
-33 52 -58 14 -11 16 -10 11 8 -3 12 2 29 12 40 15 16 16 24 7 42 -8 18 -11
19 -11 6 -1 -13 -8 -17 -25 -16 -14 1 -22 6 -20 10 3 4 -2 8 -10 8 -11 0 -9 7
9 26 28 30 32 49 11 57 -7 3 -17 18 -20 33 -8 32 8 53 56 69 31 10 35 8 65
-24 18 -19 30 -38 27 -43 -3 -4 -2 -13 2 -20 4 -7 13 2 24 23 19 40 12 80 -22
117 -18 20 -19 24 -5 19 14 -5 17 -1 17 23 0 19 -5 30 -13 30 -20 0 -49 36
-52 62 -4 38 -5 39 -16 32 -6 -3 -9 -15 -6 -25 3 -11 1 -19 -4 -19 -5 0 -9 7
-9 16 0 9 -10 24 -22 35 l-23 18 35 2 c34 1 33 2 -13 13 -27 6 -55 19 -62 29
-16 22 -25 22 -25 -1 0 -11 11 -24 25 -30 14 -6 25 -16 25 -22 0 -6 -4 -9 -8
-6 -11 7 -65 -50 -85 -90 -9 -17 -23 -36 -31 -43 -13 -11 -18 -8 -33 23 -11
25 -23 36 -38 36 -29 0 -32 5 -27 40 5 33 17 38 42 15 18 -17 60 -9 60 11 0 8
5 14 10 14 6 0 10 5 10 11 0 6 -7 8 -16 5 -37 -14 -76 44 -54 83 5 10 6 21 3
25 -9 9 -37 -55 -35 -81 0 -13 -2 -23 -6 -23 -4 0 -8 9 -9 21 -3 32 -52 91
-70 84 -13 -4 -14 -3 -4 9 7 8 10 23 7 33 -7 24 4 40 38 53 38 14 63 5 74 -28
9 -27 9 -27 20 -5 8 14 9 24 2 28 -18 11 -11 31 20 54 28 20 34 21 60 9 17 -7
30 -15 31 -18 1 -3 2 -22 3 -44 3 -33 -1 -41 -25 -55 -16 -9 -29 -19 -29 -22
0 -3 -11 -4 -25 -1 -15 2 -25 0 -25 -7 0 -6 9 -11 20 -11 13 0 24 -10 30 -25
13 -35 31 -32 20 4 -10 36 -4 45 44 65 28 12 37 20 32 32 -16 43 -17 62 -1 78
22 22 15 29 -16 18 -30 -12 -64 0 -78 27 -16 30 -13 47 13 76 19 20 32 26 58
23 32 -3 33 -5 36 -50 2 -37 7 -48 23 -53 29 -9 32 -2 14 31 -18 34 -19 66 -4
81 8 8 1 10 -29 6 -35 -5 -42 -2 -57 21 -11 16 -16 39 -13 61 4 34 3 35 -32
35 -38 1 -62 15 -73 43 -5 13 -3 16 6 11 9 -5 9 -4 0 7 -18 18 -16 32 7 57 12
12 21 37 22 56 1 24 7 36 20 39 10 3 18 11 17 19 0 10 -2 10 -6 1 -2 -7 -9
-13 -15 -13 -6 0 -5 7 3 16 7 8 21 13 32 10 17 -4 19 -1 14 29 -3 19 -3 34 1
34 20 -3 23 3 11 18 -8 10 -9 14 -2 10 6 -4 14 -3 18 3 3 5 0 10 -7 10 -11 0
-11 2 0 9 7 4 23 6 35 4 19 -4 22 -11 23 -59 1 -49 -1 -54 -22 -54 -12 0 -24
-7 -28 -15 -3 -8 -1 -15 4 -15 5 0 7 -7 3 -16 -3 -9 -6 -28 -7 -43 -1 -19 -7
-27 -23 -29 -19 -3 -21 -7 -13 -22 6 -10 11 -37 12 -59 1 -42 5 -45 31 -35 13
5 13 9 1 32 -20 38 -18 50 16 83 25 25 28 34 20 55 -10 27 5 64 26 64 6 0 17
6 23 14 9 11 8 17 -4 30 -14 14 -14 18 0 46 17 33 23 30 -60 34 -16 1 -21 9
-23 40 -2 21 2 42 8 46 6 4 -7 13 -30 20 -31 10 -40 18 -40 36 0 12 7 29 15
37 16 17 10 27 -17 27 -10 0 -18 5 -18 10 0 6 5 10 11 10 6 0 9 7 5 15 -7 18
40 32 62 18 18 -11 25 -43 9 -43 -6 0 -3 -6 8 -13 13 -10 18 -28 19 -60 1 -44
2 -45 14 -21 7 13 10 29 7 35 -4 5 -1 17 7 26 11 14 11 16 0 9 -11 -7 -12 -4
-3 13 12 22 31 29 31 10 0 -5 4 -8 9 -4 15 9 34 -34 27 -60 -7 -28 18 -55 28
-29 3 9 4 20 0 25 -3 5 -7 19 -9 31 -3 13 -12 28 -20 34 -8 6 -15 26 -15 44 0
31 2 32 30 27 45 -10 36 7 -11 20 -40 10 -41 10 -37 -12 4 -17 1 -22 -9 -18
-9 4 -11 0 -6 -13 5 -12 3 -15 -6 -9 -8 4 -17 2 -21 -5 -6 -9 -11 -7 -20 10
-9 17 -9 28 0 51 7 16 17 26 23 22 6 -3 7 -1 3 6 -4 7 -13 10 -19 8 -12 -4
-47 23 -47 36 0 4 3 6 8 4 4 -3 20 5 37 18 l29 24 -27 10 c-15 6 -27 18 -27
27 0 10 6 14 14 11 18 -7 27 24 14 47 -8 14 -5 19 11 23 11 3 18 10 14 16 -3
5 -1 7 5 4 12 -8 42 2 42 13 0 5 -10 10 -22 12 -30 4 -34 26 -6 37 12 6 19 10
14 10 -5 1 -3 7 4 15 6 8 18 12 26 9 9 -3 14 2 15 13 0 11 3 14 6 6 7 -19 23
-4 23 24 0 15 6 24 15 24 16 0 20 16 7 24 -5 3 -15 -5 -22 -19 -7 -13 -22 -26
-34 -29 -25 -7 -78 -51 -70 -59 3 -3 -2 -16 -11 -30 -8 -14 -14 -31 -13 -38 2
-10 -6 -13 -29 -11 -18 1 -33 -2 -33 -8 0 -5 -7 -7 -15 -4 -18 7 -20 34 -2 34
25 0 -18 20 -45 20 -16 0 -28 5 -28 10 0 6 4 10 9 10 5 0 8 8 7 18 -1 12 5 16
22 14 26 -4 29 6 6 22 -20 15 -8 47 14 39 14 -4 15 -3 2 6 -16 11 -50 -12 -50
-36 0 -19 -13 -16 -30 7 -10 14 -16 16 -22 8 -4 -7 -10 -9 -14 -5 -12 12 16
35 37 30 17 -5 20 -2 17 13 -2 10 -9 20 -16 20 -6 1 -16 2 -22 3 -17 2 -11 21
10 29 18 7 17 9 -11 19 -27 10 -30 10 -25 -4 5 -13 0 -14 -28 -9 -20 4 -37 2
-41 -4 -3 -6 -10 -8 -15 -5 -5 3 -11 1 -15 -5 -3 -5 -13 -10 -21 -10 -9 0 -23
-7 -31 -16 -11 -10 -26 -14 -44 -10 -15 3 -29 1 -31 -3 -2 -5 -13 -12 -25 -15
-18 -6 -23 -3 -23 10 0 10 7 25 15 34 13 15 13 17 0 17 -9 0 -25 -13 -36 -29
-11 -15 -29 -28 -39 -28 -10 0 -22 -5 -26 -12 -5 -7 -3 -8 6 -3 7 4 16 2 21
-6 14 -22 11 -26 -20 -24 -25 1 -29 -2 -28 -23 2 -22 -4 -27 -45 -38 -29 -7
-48 -8 -48 -2 0 5 -4 6 -10 3 -5 -3 -10 3 -10 14 0 11 -4 23 -10 26 -5 3 -10
15 -10 26 0 34 -37 23 -51 -15 -7 -19 -15 -33 -18 -31 -3 2 -4 -19 -3 -46 4
-45 2 -50 -23 -59 -39 -15 -42 -14 -75 32 -16 22 -30 38 -30 34 0 -4 -10 -2
-21 5 -21 11 -22 10 -16 -20 4 -17 3 -31 -2 -31 -5 0 -7 -9 -4 -20 4 -16 0
-20 -18 -21 -43 -1 -92 -23 -100 -46 -6 -17 -5 -23 6 -23 8 0 15 7 15 15 0 20
24 19 41 -1 10 -13 10 -17 -1 -24 -9 -5 -17 -5 -20 0 -3 5 -25 3 -52 -5 -27
-8 -49 -10 -55 -4 -14 14 -103 24 -103 10 0 -6 5 -11 12 -11 6 0 8 -3 4 -7 -4
-4 -22 -6 -40 -5 -20 2 -37 -3 -45 -12 -9 -11 -10 -16 -2 -16 12 0 15 -49 3
-65 -4 -5 -14 -11 -22 -13 -8 -2 -22 -9 -30 -16 -28 -24 -40 -28 -40 -13 0 8
10 19 23 25 17 8 18 11 5 11 -25 1 -33 -3 -30 -12 1 -5 -7 -11 -18 -14 -11 -3
-20 -9 -20 -14 0 -20 -30 -7 -31 14 -1 18 -2 19 -6 3 -4 -14 -11 -17 -31 -13
-16 3 -35 -1 -47 -9 -20 -15 -20 -15 -1 -30 11 -8 24 -14 29 -14 4 0 5 -5 2
-11 -8 -11 27 -49 45 -49 5 0 10 -9 10 -20 0 -11 7 -23 15 -26 8 -4 15 -13 15
-21 0 -13 -3 -13 -15 -3 -12 10 -15 9 -15 -4 0 -12 -6 -16 -17 -13 -55 15 -74
17 -68 7 6 -9 -21 -15 -53 -11 -15 2 -6 -46 13 -69 7 -8 12 -30 12 -48 0 -28
-3 -32 -25 -30 -15 2 -29 -4 -36 -15 -9 -16 -5 -23 27 -50 20 -18 37 -35 37
-39 0 -7 -97 -2 -142 8 -17 3 -28 1 -28 -5 0 -6 -7 -11 -15 -11 -18 0 -20 16
-2 23 9 4 9 6 -1 6 -8 1 -16 -8 -19 -20 -4 -16 -8 -17 -14 -7 -14 21 -10 -6 5
-43 8 -19 24 -40 35 -47 25 -15 28 -52 5 -52 -14 0 -15 -2 -3 -17 12 -14 12
-16 -1 -11 -10 4 -20 -3 -27 -18 -6 -13 -7 -22 -3 -19 5 3 11 1 15 -5 3 -5 -1
-10 -9 -10 -9 0 -16 -5 -16 -11 0 -5 5 -7 10 -4 6 3 10 0 10 -8 0 -8 8 -18 18
-22 16 -6 16 -7 -2 -21 -17 -12 -18 -14 -3 -14 22 0 21 -9 -2 -37 -14 -16 -31
-22 -69 -24 -50 -2 -50 -3 -35 -26 8 -13 19 -23 24 -23 5 0 9 -9 9 -20 0 -11
5 -20 11 -20 6 0 8 -9 4 -21 -5 -14 1 -28 19 -46 14 -14 26 -34 26 -44 0 -21
-16 -26 -23 -6 -4 8 -6 9 -6 0 -1 -6 5 -18 13 -26 9 -9 12 -24 9 -37 -4 -14
-1 -27 8 -34 8 -6 15 -22 17 -36 4 -37 28 -67 59 -75 38 -9 53 -23 46 -42 -5
-11 -3 -14 6 -9 9 6 12 2 11 -10 -4 -36 0 -55 10 -49 18 11 11 -11 -16 -50
-24 -36 -24 -37 -5 -32 25 6 28 -8 4 -17 -14 -6 -15 -9 -4 -15 7 -5 25 -33 40
-63 16 -34 31 -53 39 -50 9 3 12 -3 10 -14 -2 -10 2 -19 8 -19 13 0 49 -35 36
-35 -5 0 -12 -12 -15 -27 -5 -26 11 -53 32 -53 6 0 11 -7 11 -15 0 -9 12 -20
26 -25 17 -7 24 -15 20 -25 -3 -9 1 -15 10 -15 14 0 14 -2 0 -16 -9 -8 -16
-20 -16 -25 0 -5 -5 -9 -11 -9 -6 0 -30 -17 -54 -37 -23 -21 -67 -53 -97 -71
-55 -32 -222 -104 -268 -115 -14 -3 -61 -15 -105 -26 -145 -39 -475 -39 -625
-1 -19 5 -82 16 -139 25 -194 29 -430 124 -452 182 -6 17 -4 35 6 60 8 19 15
41 15 48 0 7 -27 43 -60 80 -57 65 -60 70 -60 121 0 105 41 175 147 250 l42
30 -28 25 c-47 42 -142 159 -157 194 -13 31 -12 36 9 62 21 24 23 37 21 100
-2 46 -9 81 -18 95 -27 39 -21 125 15 196 42 84 70 100 205 113 117 11 186 3
494 -56 34 -7 34 -6 -20 31 -248 170 -526 467 -632 676 -30 59 -31 65 -21 122
9 54 8 63 -14 100 -45 80 -19 164 56 181 35 7 132 -17 154 -40 8 -8 18 -11 21
-7 4 3 4 -1 1 -10 -5 -12 4 -27 26 -48 38 -34 45 -36 57 -14 8 14 15 13 62
-11 l53 -27 -47 63 c-48 66 -156 226 -156 233 0 2 -17 34 -38 72 -47 87 -82
170 -82 198 0 12 9 29 20 39 13 11 20 29 20 51 0 22 9 45 24 62 l23 28 -20 57
c-21 55 -21 57 -3 97 19 42 49 62 94 62 37 -1 127 -39 184 -78 26 -18 49 -32
52 -32 3 0 13 17 21 37 26 62 52 83 102 83 35 0 49 6 68 26 14 15 25 30 25 35
0 4 22 20 50 35 27 15 58 42 69 59 20 35 88 65 147 65 51 0 156 -52 192 -96
17 -21 40 -43 51 -49 41 -22 265 -243 309 -304 25 -36 47 -60 50 -53 2 6 -6
60 -18 119 -12 59 -28 151 -36 203 -16 115 -18 379 -3 467 10 55 16 68 46 91
18 15 42 45 52 67 22 49 36 61 98 85 59 23 120 18 178 -15z m1156 -1595 c23
-13 24 -24 3 -49 -17 -19 -42 -18 -56 3 -9 14 10 36 31 36 14 0 14 2 1 10 -20
13 -4 13 21 0z m-71 -10 c0 -5 -5 -10 -11 -10 -5 0 -7 5 -4 10 3 6 8 10 11 10
2 0 4 -4 4 -10z m22 -64 c9 -14 -10 -36 -33 -36 -24 0 -32 16 -19 39 10 21 37
19 52 -3z m-87 4 c3 -5 2 -10 -4 -10 -5 0 -13 5 -16 10 -3 6 -2 10 4 10 5 0
13 -4 16 -10z m185 -41 c0 -19 -2 -20 -42 -22 -25 -2 -38 30 -18 43 21 13 60
-1 60 -21z m-80 -9 c0 -5 -4 -10 -10 -10 -5 0 -10 5 -10 10 0 6 5 10 10 10 6
0 10 -4 10 -10z m-50 -35 c0 -23 -4 -25 -42 -25 l-43 1 30 24 c38 32 55 32 55
0z m127 -17 c-3 -7 -5 -2 -5 12 0 14 2 19 5 13 2 -7 2 -19 0 -25z m-37 -14 c0
-24 -2 -25 -17 -13 -15 12 -16 12 -10 -3 8 -22 -1 -23 -25 -1 -25 23 -22 36 7
31 14 -3 25 -1 25 3 0 5 5 9 10 9 6 0 10 -12 10 -26z m-508 -16 c-9 -9 -12 -7
-12 12 0 19 3 21 12 12 9 -9 9 -15 0 -24z m602 -4 c11 -29 6 -42 -18 -46 -32
-6 -64 11 -45 23 12 7 11 9 -1 9 -11 1 -10 4 4 15 26 20 52 19 60 -1z m-319
-4 c3 -5 2 -10 -4 -10 -5 0 -13 5 -16 10 -3 6 -2 10 4 10 5 0 13 -4 16 -10z
m125 -32 c0 -5 -8 -8 -17 -6 -10 2 -26 -5 -35 -16 -18 -19 -18 -19 -18 2 0 13
6 22 15 22 8 0 15 4 15 9 0 5 9 7 20 4 11 -3 20 -10 20 -15z m278 -21 c-18
-35 -41 -54 -46 -39 -2 7 -9 9 -15 6 -8 -5 -8 -2 1 7 6 7 12 17 12 23 0 5 -9
-1 -20 -14 -16 -18 -20 -20 -20 -7 0 10 4 17 9 17 5 0 11 10 15 22 4 18 8 20
18 10 17 -17 28 -15 28 4 0 13 3 14 15 4 11 -10 12 -17 3 -33z m-358 8 c0 -8
-4 -15 -10 -15 -5 0 -7 7 -4 15 4 8 8 15 10 15 2 0 4 -7 4 -15z m130 -12 c0
-14 -3 -23 -7 -19 -10 10 -11 46 -1 46 4 0 8 -12 8 -27z m118 -32 c2 -24 -2
-29 -25 -34 -15 -3 -33 -3 -40 0 -21 8 -9 28 15 27 16 0 19 3 11 12 -9 12 -5
15 31 23 3 0 7 -12 8 -28z m-783 9 c3 -5 16 -10 28 -11 15 0 17 -2 7 -6 -8 -3
-19 -11 -23 -17 -6 -8 -10 -7 -14 2 -2 6 -9 10 -14 6 -17 -10 -31 7 -18 22 14
16 25 18 34 4z m132 2 c16 -10 4 -55 -13 -48 -7 3 -15 0 -17 -7 -4 -9 -7 -9
-17 0 -10 9 -6 15 21 27 29 13 30 14 7 10 -28 -6 -40 10 -15 19 18 8 21 8 34
-1z m423 -33 c0 -5 -4 -9 -10 -9 -5 0 -10 7 -10 16 0 8 5 12 10 9 6 -3 10 -10
10 -16z m-90 -9 c0 -5 -4 -10 -10 -10 -5 0 -10 5 -10 10 0 6 5 10 10 10 6 0
10 -4 10 -10z m403 4 c17 -6 11 -44 -7 -44 -20 0 -27 12 -15 27 9 9 8 13 0 13
-6 0 -11 -5 -11 -11 0 -5 -5 -7 -11 -3 -8 4 -7 9 2 15 17 10 23 11 42 3z
m-998 -35 c11 -17 -1 -21 -15 -4 -8 9 -8 15 -2 15 6 0 14 -5 17 -11z m911 -24
c10 -32 9 -36 -10 -40 -30 -6 -56 -3 -50 6 2 4 -1 9 -8 11 -14 5 -3 38 12 38
6 0 8 -5 4 -12 -4 -7 -3 -8 4 -4 7 4 12 14 12 22 0 28 25 13 36 -21z m49 4
c-10 -15 -22 -10 -28 11 -4 17 -2 18 14 9 11 -5 17 -14 14 -20z m-375 5 c0 -8
-4 -12 -10 -9 -5 3 -10 10 -10 16 0 5 5 9 10 9 6 0 10 -7 10 -16z m-514 -19
c34 -8 38 -62 7 -93 l-24 -24 -30 31 c-16 17 -29 39 -29 49 0 10 -4 22 -9 28
-11 10 50 17 85 9z m424 -15 c0 -11 -2 -20 -4 -20 -2 0 -6 9 -9 20 -3 11 -1
20 4 20 5 0 9 -9 9 -20z m110 -9 c0 -6 -4 -13 -10 -16 -5 -3 -10 1 -10 9 0 9
5 16 10 16 6 0 10 -4 10 -9z m120 -6 c0 -8 -4 -15 -10 -15 -5 0 -10 7 -10 15
0 8 5 15 10 15 6 0 10 -7 10 -15z m250 0 c9 -11 16 -12 25 -5 9 8 15 8 20 0 3
-5 -1 -10 -10 -10 -11 0 -15 -5 -12 -14 7 -17 -26 -32 -58 -27 -26 4 -27 5
-19 25 5 13 9 14 20 5 9 -8 14 -8 14 -1 0 6 -5 14 -10 17 -11 7 -4 25 9 25 5
0 14 -7 21 -15z m-407 -8 c3 -8 -3 -14 -15 -14 -16 -2 -17 1 -8 13 15 17 17
17 23 1z m267 -14 c-1 -20 -28 -55 -34 -45 -4 6 -1 20 6 32 13 20 28 27 28 13z
m-79 -55 c0 -7 2 -23 3 -35 3 -24 -3 -26 -44 -13 -24 8 -25 8 -2 9 13 1 22 7
21 14 -3 23 1 37 11 37 6 0 10 -6 11 -12z m152 -2 c6 -14 0 -26 -14 -26 -3 0
-9 9 -12 20 -6 23 18 28 26 6z m-203 -60 c0 -3 -4 -8 -10 -11 -5 -3 -10 -1
-10 4 0 6 5 11 10 11 6 0 10 -2 10 -4z m112 -2 c3 -3 4 -14 1 -25 -5 -18 -6
-19 -19 -2 -7 10 -14 21 -14 26 0 8 24 10 32 1z m-932 -27 c0 -8 -9 -22 -20
-32 -22 -20 -27 -7 -10 26 12 22 30 25 30 6z m55 -23 c0 -22 -5 -30 -22 -32
-18 -3 -23 1 -23 20 0 26 18 50 35 45 5 -2 10 -17 10 -33z m990 26 c3 -5 1
-10 -4 -10 -6 0 -11 5 -11 10 0 6 2 10 4 10 3 0 8 -4 11 -10z m-471 -19 c3 -5
-1 -11 -9 -15 -9 -3 -15 0 -15 9 0 16 16 20 24 6z m241 -1 c-3 -5 -10 -10 -16
-10 -5 0 -9 5 -9 10 0 6 7 10 16 10 8 0 12 -4 9 -10z m85 0 c0 -5 -5 -10 -11
-10 -5 0 -7 5 -4 10 3 6 8 10 11 10 2 0 4 -4 4 -10z m-214 -27 c-10 -10 -19 5
-10 18 6 11 8 11 12 0 2 -7 1 -15 -2 -18z m344 12 c0 -8 -4 -15 -10 -15 -5 0
-10 7 -10 15 0 8 5 15 10 15 6 0 10 -7 10 -15z m-160 -34 c0 -5 -7 -11 -15
-15 -15 -5 -20 5 -8 17 9 10 23 9 23 -2z m103 -18 c-7 -2 -19 -2 -25 0 -7 3
-2 5 12 5 14 0 19 -2 13 -5z m-83 -13 c0 -5 -6 -10 -14 -10 -8 0 -16 -6 -19
-12 -2 -7 -8 -10 -12 -5 -5 4 0 14 11 22 23 17 34 19 34 5z m174 -5 c-4 -8 -8
-15 -10 -15 -2 0 -4 7 -4 15 0 8 4 15 10 15 5 0 7 -7 4 -15z m41 3 c-2 -7 -6
-28 -9 -47 -6 -43 -21 -60 -38 -42 -11 10 -10 12 2 9 11 -2 14 5 13 26 -2 31
12 66 27 66 5 0 7 -6 5 -12z m-355 -35 c-11 -17 -11 -17 -6 0 3 10 6 24 7 30
0 9 2 9 5 0 3 -7 0 -20 -6 -30z m227 15 c-3 -8 -6 -5 -6 6 -1 11 2 17 5 13 3
-3 4 -12 1 -19z m-7 -39 c0 -19 -1 -19 -16 -5 -8 9 -12 20 -9 26 9 15 25 2 25
-21z m-330 11 c0 -5 -4 -10 -10 -10 -5 0 -10 5 -10 10 0 6 5 10 10 10 6 0 10
-4 10 -10z m-30 -35 c0 -14 -4 -25 -10 -25 -5 0 -10 11 -10 25 0 14 5 25 10
25 6 0 10 -11 10 -25z m236 12 c1 -1 5 -13 9 -26 6 -19 4 -23 -9 -18 -9 4 -21
-2 -31 -16 -16 -22 -16 -21 -14 13 2 23 -1 34 -8 33 -7 -2 -10 4 -6 13 4 11
13 14 32 9 14 -4 27 -7 27 -8z m194 3 c0 -5 -5 -10 -11 -10 -5 0 -7 5 -4 10 3
6 8 10 11 10 2 0 4 -4 4 -10z m-752 -23 c2 -10 0 -26 -4 -35 -4 -9 -6 -23 -5
-29 4 -24 -20 -53 -42 -53 -33 0 -54 20 -61 60 -5 33 -5 34 9 16 9 -12 15 -15
15 -7 0 9 9 12 24 9 22 -4 23 -3 14 18 -6 13 -15 21 -19 18 -5 -3 -9 0 -9 6 0
7 8 9 20 5 12 -4 20 -2 20 5 0 18 34 7 38 -13z m-229 -13 c2 -1 -9 -15 -23
-29 -20 -20 -30 -24 -40 -16 -7 6 -16 8 -19 4 -4 -3 -7 3 -7 15 0 31 37 54 64
40 12 -6 23 -12 25 -14z m711 6 c0 -5 -4 -10 -10 -10 -5 0 -10 5 -10 10 0 6 5
10 10 10 6 0 10 -4 10 -10z m-63 -16 c-3 -3 -12 -4 -19 -1 -8 3 -5 6 6 6 11 1
17 -2 13 -5z m233 -13 c0 -11 -5 -23 -10 -26 -6 -4 -8 -10 -6 -14 3 -4 1 -13
-4 -20 -12 -21 -32 -2 -26 25 5 17 2 24 -9 24 -8 0 -15 5 -15 10 0 15 16 12
34 -6 15 -14 16 -14 16 5 0 12 5 21 10 21 6 0 10 -9 10 -19z m85 -3 c6 -4 2
-8 -7 -8 -10 0 -18 7 -18 17 0 9 3 12 8 7 4 -5 12 -12 17 -16z m31 -15 c-1
-30 -7 -42 -30 -56 -33 -21 -55 -10 -37 20 6 10 11 13 11 5 0 -7 5 -10 10 -7
6 4 8 10 5 15 -3 4 2 13 10 20 7 6 11 18 8 26 -3 8 1 14 10 14 11 0 14 -10 13
-37z m-336 -3 c0 -5 -4 -10 -10 -10 -5 0 -10 5 -10 10 0 6 5 10 10 10 6 0 10
-4 10 -10z m142 -64 c12 -17 9 -26 -7 -26 -8 0 -15 -7 -15 -15 0 -8 -9 -15
-20 -15 -28 0 -26 38 3 49 19 8 20 10 5 16 -10 4 -18 11 -18 16 0 11 42 -9 52
-25z m-262 -5 c0 -6 -5 -13 -10 -16 -15 -9 -43 3 -35 15 8 13 45 13 45 1z
m184 -12 c-3 -5 -10 -7 -15 -3 -5 3 -7 10 -3 15 3 5 10 7 15 3 5 -3 7 -10 3
-15z m-424 -14 c0 -8 -4 -17 -10 -20 -6 -4 -10 5 -10 20 0 15 4 24 10 20 6 -3
10 -12 10 -20z m322 3 c-7 -7 -12 -8 -12 -2 0 6 3 14 7 17 3 4 9 5 12 2 2 -3
-1 -11 -7 -17z m271 0 c-4 -20 -3 -21 7 -5 10 15 13 15 26 3 18 -19 18 -35 -2
-43 -8 -3 -13 -11 -11 -17 3 -7 -6 -13 -20 -14 -22 -2 -24 1 -18 28 5 25 3 30
-12 30 -15 0 -16 2 -3 10 8 5 11 10 7 10 -14 0 3 20 18 20 8 0 11 -8 8 -22z
m-237 -22 c-4 -15 -1 -26 7 -29 8 -3 9 -8 2 -15 -14 -14 -55 3 -55 23 0 8 7
15 15 15 8 0 15 7 15 15 0 8 5 15 11 15 7 0 9 -9 5 -24z m-631 -16 c27 -29 28
-30 7 -30 -18 0 -21 -4 -16 -29 6 -26 4 -29 -15 -24 -13 3 -21 1 -21 -7 0 -10
-3 -10 -15 0 -19 16 -19 30 1 30 8 0 12 5 9 11 -4 6 -14 8 -22 5 -9 -4 -13 -1
-10 6 2 7 10 12 16 10 7 -1 11 3 10 10 -3 16 11 48 20 48 4 0 20 -13 36 -30z
m245 10 c0 -5 -4 -10 -10 -10 -5 0 -10 5 -10 10 0 6 5 10 10 10 6 0 10 -4 10
-10z m-19 -16 c29 -26 14 -44 -27 -31 -32 10 -33 11 -17 29 20 22 22 22 44 2z
m-114 -19 c50 -25 67 -95 22 -95 -12 0 -16 -5 -13 -15 7 -18 3 -19 -30 -4 -14
7 -23 16 -20 20 3 5 -1 9 -9 9 -23 0 -27 37 -7 55 10 9 16 23 13 31 -7 18 6
18 44 -1z m638 -7 c14 -6 25 -17 25 -24 0 -17 -20 -29 -20 -12 -1 9 -5 7 -14
-4 -21 -28 -36 -21 -36 17 0 38 6 41 45 23z m128 -85 c4 -20 2 -33 -4 -33 -6
0 -8 -4 -5 -9 12 -19 -20 -31 -52 -20 -35 12 -45 37 -29 78 23 62 77 52 90
-16z m-506 34 c-6 -20 -27 -19 -27 2 0 14 5 19 15 14 9 -3 14 -10 12 -16z
m133 3 c0 -5 -5 -10 -11 -10 -5 0 -7 5 -4 10 3 6 8 10 11 10 2 0 4 -4 4 -10z
m-257 -6 c9 -10 -4 -34 -19 -34 -8 0 -14 6 -14 13 0 22 19 35 33 21z m73 -52
c32 -26 35 -46 12 -83 -13 -21 -16 -35 -9 -37 20 -7 12 -24 -9 -19 -13 3 -20
0 -20 -9 0 -8 -4 -14 -10 -14 -5 0 -10 9 -10 20 0 11 5 20 10 20 19 0 10 15
-16 27 -24 11 -26 10 -21 -7 6 -24 -9 -17 -24 12 -8 15 -8 19 0 14 7 -5 11 2
11 15 0 22 0 22 15 3 14 -18 14 -18 8 4 -3 12 -12 22 -19 22 -8 0 -14 5 -14
11 0 5 5 7 11 4 6 -4 13 2 16 14 7 26 40 27 69 3z m294 9 c0 -12 -20 -25 -27
-18 -7 7 6 27 18 27 5 0 9 -4 9 -9z m100 -21 c0 -5 7 -10 15 -10 8 0 15 -4 15
-9 0 -5 3 -17 7 -27 5 -13 3 -16 -10 -11 -8 3 -17 2 -19 -3 -7 -19 -30 -14
-34 8 -3 14 1 22 11 22 18 0 19 12 3 28 -9 9 -9 12 0 12 7 0 12 -4 12 -10z
m-30 -4 c0 -2 -7 -7 -16 -10 -8 -3 -12 -2 -9 4 6 10 25 14 25 6z m-660 -36 c0
-5 -7 -10 -16 -10 -8 0 -12 5 -9 10 3 6 10 10 16 10 5 0 9 -4 9 -10z m430 -40
c-11 -20 -60 -29 -60 -10 0 5 7 7 15 4 9 -4 15 0 15 10 0 9 5 16 10 16 6 0 10
8 10 18 1 16 1 16 11 0 7 -12 6 -24 -1 -38z m526 36 c1 0 6 -20 11 -43 8 -33
8 -46 -4 -62 -18 -27 -53 -27 -81 -1 -26 25 -28 61 -6 96 14 21 22 24 48 18
17 -3 31 -7 32 -8z m-138 -51 c-1 -34 -4 -42 -16 -37 -12 4 -14 0 -9 -17 4
-18 2 -22 -16 -19 -32 4 -46 65 -23 100 12 19 23 24 41 20 22 -4 25 -9 23 -47z
m-671 9 c-2 -2 -12 -1 -22 3 -18 6 -18 7 1 13 17 7 33 -5 21 -16z m426 -16
c-4 -7 -6 -21 -5 -30 2 -11 -3 -18 -12 -18 -9 0 -16 2 -16 4 0 2 -3 11 -6 20
-4 11 -1 16 10 16 9 0 16 5 16 10 0 6 5 10 11 10 6 0 7 -5 2 -12z m97 -28 c0
-5 -2 -10 -4 -10 -3 0 -8 5 -11 10 -3 6 -1 10 4 10 6 0 11 -4 11 -10z m-536
-15 c-4 -8 -1 -15 6 -15 7 0 10 -7 6 -17 -6 -16 -5 -16 12 0 15 14 25 15 46 8
14 -6 27 -15 27 -21 1 -5 2 -14 3 -19 0 -5 4 -13 9 -17 13 -14 7 -43 -12 -53
-10 -6 -24 -25 -30 -42 -7 -22 -15 -29 -26 -25 -9 3 -15 0 -15 -9 0 -8 -4 -15
-10 -15 -11 0 -12 6 -4 37 5 19 10 21 25 12 15 -7 19 -6 19 5 0 16 -22 42 -41
48 -9 3 -10 12 -2 35 10 28 9 30 -8 26 -14 -4 -18 -1 -13 10 3 8 1 24 -5 35
-10 19 -6 32 10 32 5 0 6 -7 3 -15z m236 -7 c0 -7 -5 -20 -10 -28 -8 -12 -10
-9 -10 13 0 15 5 27 10 27 6 0 10 -6 10 -12z m351 -38 c5 0 9 -4 9 -10 0 -16
-49 -23 -65 -10 -22 19 -18 37 10 44 14 4 26 12 26 19 1 6 4 0 6 -15 2 -16 9
-28 14 -28z m-1411 20 c0 -5 -7 -10 -16 -10 -8 0 -12 5 -9 10 3 6 10 10 16 10
5 0 9 -4 9 -10z m736 -16 c-5 -14 -9 -15 -19 -5 -9 9 -9 14 3 21 18 11 24 6
16 -16z m425 0 c22 -23 23 -26 6 -35 -9 -6 -17 -19 -17 -29 0 -23 -32 -27 -47
-7 -14 17 -24 47 -15 46 17 -3 32 2 32 10 0 5 -10 7 -22 3 -21 -5 -21 -5 -2
16 25 27 36 27 65 -4z m-371 6 c0 -5 -4 -10 -10 -10 -5 0 -10 -6 -10 -14 0 -8
-5 -18 -10 -21 -9 -5 -9 28 -1 53 3 7 31 0 31 -8z m803 -9 c18 -18 10 -70 -14
-90 -31 -26 -41 -26 -68 3 -22 23 -22 25 -4 36 16 10 16 11 -4 7 -17 -4 -23
-1 -23 13 0 11 5 22 12 26 7 5 9 2 6 -8 -4 -9 0 -15 8 -15 8 0 13 6 10 12 -11
31 50 43 77 16z m-260 -16 c4 -8 2 -17 -3 -20 -6 -4 -10 3 -10 14 0 25 6 27
13 6z m-24 -38 c11 -16 9 -23 -10 -43 -19 -21 -25 -22 -38 -10 -9 7 -23 11
-31 8 -8 -3 0 9 19 25 22 20 30 33 22 37 -6 4 -11 11 -11 17 0 13 35 -10 49
-34z m-226 -7 c3 -11 3 -20 0 -20 -10 0 -32 28 -26 34 11 11 21 6 26 -14z
m333 -6 c-5 -14 -1 -16 25 -10 25 5 30 3 26 -9 -4 -10 -1 -12 10 -8 11 4 14 2
9 -5 -4 -7 -2 -12 3 -12 17 0 13 -19 -8 -42 -15 -15 -29 -19 -55 -16 l-36 4 7
-38 c6 -43 -12 -73 -55 -89 -37 -14 -82 17 -82 56 0 24 2 27 11 15 8 -12 10
-10 5 10 -10 46 38 74 85 50 21 -12 26 -1 8 17 -9 9 -8 16 5 28 21 21 20 35
-1 35 -15 0 -15 2 -4 9 8 5 20 7 28 4 7 -3 13 0 13 6 0 6 3 11 6 11 3 0 3 -7
0 -16z m-396 -79 c-16 -19 -31 -19 -56 1 -10 8 -13 13 -6 9 6 -3 12 -2 12 2 0
5 12 14 28 19 31 11 43 -6 22 -31z m157 29 c-3 -3 -12 -4 -19 -1 -8 3 -5 6 6
6 11 1 17 -2 13 -5z m73 -4 c0 -5 -4 -10 -10 -10 -5 0 -10 5 -10 10 0 6 5 10
10 10 6 0 10 -4 10 -10z m-150 -33 c0 -20 -30 -57 -45 -57 -14 0 -35 29 -35
49 0 9 24 17 63 20 9 0 17 -5 17 -12z m140 -33 c0 -8 -4 -12 -10 -9 -5 3 -10
13 -10 21 0 8 5 12 10 9 6 -3 10 -13 10 -21z m-76 -36 c7 -44 -2 -58 -39 -58
-27 0 -45 18 -45 46 0 29 25 54 54 54 20 0 25 -7 30 -42z m-227 -50 c-3 -7 -5
-2 -5 12 0 14 2 19 5 13 2 -7 2 -19 0 -25z m-209 8 c-7 -8 -17 -12 -22 -9 -4
3 -2 9 5 14 22 13 31 11 17 -5z m687 -24 c-22 -5 -29 3 -21 25 7 17 8 17 22
-2 13 -18 13 -20 -1 -23z m-175 -49 c0 -16 -6 -23 -20 -23 -23 0 -23 -2 -9 39
9 24 14 29 20 19 5 -7 9 -23 9 -35z m-171 26 c35 -12 41 -28 11 -30 -11 -1
-28 -2 -37 -3 -17 -1 -25 18 -16 37 5 9 4 9 42 -4z m243 -31 c-7 -7 -12 -23
-13 -37 0 -16 -3 -20 -6 -11 -4 8 -12 21 -20 28 -21 22 -15 32 19 32 25 0 29
-3 20 -12z m-302 -18 c0 -5 -7 -10 -16 -10 -8 0 -12 5 -9 10 3 6 10 10 16 10
5 0 9 -4 9 -10z m390 -36 c0 -8 5 -14 10 -14 16 0 11 -23 -10 -49 -15 -18 -26
-22 -45 -17 -30 8 -40 26 -31 61 10 39 76 56 76 19z m-382 -21 c21 -40 -7 -55
-47 -26 -23 15 -23 17 -6 30 25 18 43 16 53 -4z m112 -3 c0 -5 -4 -10 -10 -10
-5 0 -10 5 -10 10 0 6 5 10 10 10 6 0 10 -4 10 -10z m607 -71 c18 -30 11 -74
-13 -83 -25 -10 -63 4 -70 26 -9 30 3 64 28 76 30 14 36 12 55 -19z m69 -4
c-3 -8 0 -15 7 -15 11 0 42 -39 35 -45 -2 -1 -17 -10 -35 -19 -38 -19 -63 -21
-63 -4 0 20 41 98 52 98 6 0 8 -7 4 -15z m-486 -6 c0 -8 14 -10 45 -6 26 4 45
3 45 -3 0 -15 -41 -37 -82 -44 -33 -6 -38 -4 -38 13 0 26 10 51 21 51 5 0 9
-5 9 -11z m220 -9 c0 -4 -12 -5 -26 -2 -17 3 -22 7 -13 12 13 9 39 2 39 -10z
m-595 -10 c14 -16 15 -20 4 -20 -16 0 -39 19 -39 32 0 14 16 9 35 -12z m239
-6 c21 -8 21 -24 0 -24 -8 0 -13 -4 -9 -9 3 -5 0 -13 -6 -17 -12 -7 -49 29
-49 47 0 10 40 12 64 3z m219 -44 c-3 -11 -7 -20 -8 -20 -1 0 -5 9 -8 20 -3
12 0 20 8 20 8 0 11 -8 8 -20z m-85 -59 c2 -12 -2 -28 -8 -36 -10 -12 -17 -9
-41 17 -27 30 -27 33 -12 50 14 16 19 17 37 4 12 -7 22 -23 24 -35z m328 38
c4 -7 20 -9 40 -6 30 5 32 3 30 -19 -4 -35 -41 -78 -60 -71 -21 8 -50 71 -43
91 7 19 23 21 33 5z m-430 -19 c0 -24 -20 -21 -24 3 -2 9 3 17 10 17 8 0 14
-9 14 -20z m385 -6 c5 -15 7 -30 3 -33 -4 -3 -9 0 -12 8 -4 11 -6 11 -13 0
-12 -20 -22 -3 -15 26 8 32 24 32 37 -1z m-57 -19 c7 -19 -2 -42 -19 -48 -8
-3 -11 -15 -8 -31 3 -16 1 -26 -6 -26 -7 0 -9 -5 -4 -12 4 -7 -5 -5 -20 5 -22
14 -27 15 -27 3 0 -23 -19 -29 -36 -12 -8 9 -22 16 -30 16 -29 0 -5 16 27 18
40 3 46 9 31 24 -15 15 -16 42 -2 33 6 -3 10 4 10 16 0 18 5 21 30 17 17 -3
30 -1 30 4 0 14 18 9 24 -7z m-147 -57 c-2 -13 -4 -5 -4 17 -1 22 1 32 4 23 2
-10 2 -28 0 -40z m-109 -21 c7 -18 12 -36 12 -40 0 -14 -36 -7 -65 13 -24 16
-26 20 -12 26 9 3 17 12 17 20 0 29 36 14 48 -19z m394 -33 c-2 -16 -10 -35
-18 -43 -12 -13 -16 -12 -32 2 -10 9 -22 14 -25 10 -15 -14 -6 41 9 58 11 12
23 15 42 10 23 -6 26 -12 24 -37z m-312 -14 c0 -5 -5 -10 -11 -10 -5 0 -7 5
-4 10 3 6 8 10 11 10 2 0 4 -4 4 -10z m35 -31 c4 -12 12 -18 21 -15 7 3 13 2
13 -2 -3 -21 3 -31 15 -26 22 9 29 -14 7 -25 -28 -15 -58 -14 -86 5 -31 20
-32 34 -4 34 17 0 20 5 17 25 -6 30 8 34 17 4z m118 -9 c-5 -18 -33 -30 -33
-14 0 5 29 32 37 34 0 0 -1 -9 -4 -20z m247 -60 c0 -5 -4 -10 -10 -10 -5 0
-10 5 -10 10 0 6 5 10 10 10 6 0 10 -4 10 -10z m-415 -30 c-3 -5 -10 -10 -16
-10 -5 0 -9 5 -9 10 0 6 7 10 16 10 8 0 12 -4 9 -10z m196 -4 c5 3 9 -2 9 -10
0 -13 -3 -14 -19 -4 -11 7 -17 17 -14 22 4 6 8 5 11 -2 2 -7 8 -10 13 -6z
m199 -61 c0 -8 -4 -17 -10 -20 -6 -4 -10 5 -10 20 0 15 4 24 10 20 6 -3 10
-12 10 -20z m-310 -11 c0 -8 -7 -14 -15 -14 -8 0 -15 2 -15 4 0 2 -3 11 -6 19
-4 12 0 14 15 10 12 -3 21 -12 21 -19z m160 11 c8 5 11 4 7 -2 -4 -6 3 -13 14
-16 18 -5 19 -9 9 -27 -6 -12 -18 -19 -25 -16 -8 3 -15 0 -17 -5 -2 -6 -17 -3
-36 7 l-34 16 28 29 c18 19 30 25 35 18 4 -7 12 -8 19 -4z m-130 -25 c0 -5 -2
-10 -4 -10 -3 0 -8 5 -11 10 -3 6 -1 10 4 10 6 0 11 -4 11 -10z m215 -20 c-3
-5 -11 -10 -16 -10 -6 0 -7 5 -4 10 3 6 11 10 16 10 6 0 7 -4 4 -10z m-348
-19 c7 -10 9 -21 6 -25 -9 -9 -43 14 -43 29 0 21 23 19 37 -4z m183 -61 c0
-13 -6 -20 -17 -19 -11 0 -13 3 -5 6 6 2 12 11 12 19 0 8 2 14 5 14 3 0 5 -9
5 -20z m-105 -26 c0 -29 -28 -23 -36 8 -6 24 -5 26 15 19 11 -5 21 -17 21 -27z
m163 1 c-3 -28 -13 -33 -22 -9 -10 25 -7 34 9 34 10 0 14 -9 13 -25z m-328
-15 c0 -5 -6 -10 -14 -10 -8 0 -18 5 -21 10 -3 6 3 10 14 10 12 0 21 -4 21
-10z m224 -26 c4 -10 1 -14 -6 -12 -15 5 -23 28 -10 28 5 0 13 -7 16 -16z
m104 -62 c7 -21 -28 -26 -43 -6 -8 11 -15 22 -15 26 0 11 53 -7 58 -20z m-111
5 c0 -8 -6 -14 -14 -14 -14 0 -17 10 -6 20 10 11 20 8 20 -6z m92 -133 c9 -8
-30 -34 -51 -34 -13 0 -18 8 -18 26 0 24 3 26 32 20 17 -3 34 -9 37 -12z m111
-91 c0 -7 7 -13 17 -13 13 0 11 -4 -7 -20 -31 -27 -43 -21 -54 26 -4 21 -14
51 -22 66 -24 44 -16 43 26 -3 22 -24 40 -50 40 -56z m-315 55 c6 -4 2 -8 -7
-8 -10 0 -18 7 -18 17 0 9 3 12 8 7 4 -5 12 -12 17 -16z m250 -48 c3 -5 -1
-10 -9 -10 -9 0 -16 5 -16 10 0 6 4 10 9 10 6 0 13 -4 16 -10z m-3765 -2154
c0 -3 -4 -8 -10 -11 -5 -3 -10 -1 -10 4 0 6 5 11 10 11 6 0 10 -2 10 -4z m-30
-150 c0 -3 -4 -8 -10 -11 -5 -3 -10 -1 -10 4 0 6 5 11 10 11 6 0 10 -2 10 -4z
m170 -66 c0 -5 -2 -10 -4 -10 -3 0 -8 5 -11 10 -3 6 -1 10 4 10 6 0 11 -4 11
-10z m-170 -250 c0 -5 -5 -10 -11 -10 -5 0 -7 5 -4 10 3 6 8 10 11 10 2 0 4
-4 4 -10z m-10 -380 c0 -5 -2 -10 -4 -10 -3 0 -8 5 -11 10 -3 6 -1 10 4 10 6
0 11 -4 11 -10z"/>
<path d="M3885 5870 c-3 -5 -1 -10 4 -10 6 0 11 5 11 10 0 6 -2 10 -4 10 -3 0
-8 -4 -11 -10z"/>
<path d="M3595 5840 c3 -5 8 -10 11 -10 2 0 4 5 4 10 0 6 -5 10 -11 10 -5 0
-7 -4 -4 -10z"/>
<path d="M3850 5831 c0 -5 5 -13 10 -16 6 -3 10 -2 10 4 0 5 -4 13 -10 16 -5
3 -10 2 -10 -4z"/>
<path d="M3925 5818 c4 -9 1 -26 -5 -38 -9 -18 -9 -21 1 -18 27 9 35 37 16 55
-16 16 -17 16 -12 1z"/>
<path d="M3840 5806 c0 -2 7 -9 15 -16 9 -7 15 -8 15 -2 0 5 -7 12 -15 16 -8
3 -15 4 -15 2z"/>
<path d="M4045 5790 c-20 -9 -20 -9 0 -9 11 0 27 4 35 9 13 9 13 10 0 9 -8 0
-24 -4 -35 -9z"/>
<path d="M3953 5732 c-48 -44 -65 -87 -36 -94 10 -3 27 -1 38 3 19 7 19 8 1 8
-15 1 -16 4 -7 15 9 11 9 15 0 18 -7 2 -9 10 -5 16 5 8 16 10 29 6 19 -6 20
-5 9 9 -15 17 -4 28 32 32 11 1 25 3 31 4 5 0 3 7 -4 14 -11 10 -14 9 -18 -1
-3 -9 -9 -10 -17 -3 -8 7 -24 -2 -53 -27z"/>
<path d="M3270 5756 c0 -2 7 -7 16 -10 8 -3 12 -2 9 4 -6 10 -25 14 -25 6z"/>
<path d="M3288 5693 c7 -3 16 -2 19 1 4 3 -2 6 -13 5 -11 0 -14 -3 -6 -6z"/>
<path d="M4129 5698 c-1 -2 -3 -15 -4 -30 -4 -25 -3 -26 14 -10 17 17 17 42 0
42 -5 0 -10 -1 -10 -2z"/>
<path d="M4098 5639 c-3 -9 -2 -22 2 -30 13 -19 18 -8 10 21 -4 19 -7 21 -12
9z"/>
<path d="M4062 5587 c-14 -16 -1 -25 48 -33 23 -4 24 -3 5 8 -11 6 -25 18 -31
26 -9 12 -12 12 -22 -1z"/>
<path d="M4173 5575 c0 -8 4 -15 9 -15 4 0 8 7 8 15 0 8 -4 15 -8 15 -5 0 -9
-7 -9 -15z"/>
<path d="M4020 5547 c0 -19 24 -66 31 -61 16 10 9 43 -11 54 -11 6 -20 9 -20
7z"/>
<path d="M4146 5532 c-2 -4 -1 -14 4 -22 7 -11 9 -9 7 8 -1 24 -3 26 -11 14z"/>
<path d="M4150 5482 c0 -7 -10 -13 -22 -13 -19 -1 -20 -2 -4 -6 20 -5 44 12
33 24 -4 3 -7 1 -7 -5z"/>
<path d="M3993 5438 c-12 -6 -24 -17 -27 -24 -4 -12 -1 -12 14 -4 11 6 25 8
30 5 5 -3 8 4 7 15 -1 11 -1 20 -2 19 0 0 -10 -5 -22 -11z"/>
<path d="M4112 5433 c2 -9 8 -18 15 -20 7 -3 9 3 6 16 -6 25 -26 28 -21 4z"/>
<path d="M4023 5395 c-17 -19 -16 -35 2 -35 8 0 15 8 15 18 0 14 2 15 10 2 11
-17 13 -10 4 14 -7 19 -15 20 -31 1z"/>
<path d="M4139 5400 c-7 -5 -12 -27 -12 -56 1 -33 -4 -52 -16 -62 -14 -12 -14
-12 7 -7 13 4 22 2 22 -4 0 -6 4 -11 9 -11 5 0 5 16 1 37 -5 22 -5 44 1 55 6
10 7 23 4 28 -3 6 -2 10 4 10 5 0 11 -8 13 -17 3 -15 5 -14 10 4 6 23 -19 37
-43 23z"/>
<path d="M2380 5366 c0 -2 8 -10 18 -17 15 -13 16 -12 3 4 -13 16 -21 21 -21
13z"/>
<path d="M4233 5335 c-3 -9 -3 -18 -1 -21 3 -3 8 4 11 16 6 23 -1 27 -10 5z"/>
<path d="M2365 5330 c3 -5 13 -10 21 -10 8 0 12 5 9 10 -3 6 -13 10 -21 10 -8
0 -12 -4 -9 -10z"/>
<path d="M3896 5282 c-2 -4 4 -8 14 -8 10 0 16 4 14 8 -3 4 -9 8 -14 8 -5 0
-11 -4 -14 -8z"/>
<path d="M4183 5225 c-8 -22 6 -33 17 -15 13 20 12 30 0 30 -6 0 -13 -7 -17
-15z"/>
<path d="M4025 5199 c6 -33 15 -36 15 -6 0 15 -4 27 -9 27 -6 0 -8 -10 -6 -21z"/>
<path d="M4025 5117 c4 -23 8 -50 8 -59 1 -13 10 -18 34 -18 37 0 53 -21 53
-70 0 -21 4 -30 13 -27 7 2 11 16 9 36 -2 19 3 39 12 50 10 11 14 33 13 69 -2
49 -4 52 -27 51 -17 -1 -19 -3 -7 -6 13 -3 17 -15 17 -54 0 -52 -6 -57 -58
-43 -29 8 -59 61 -43 77 16 16 13 24 -10 30 -20 5 -21 3 -14 -36z"/>
<path d="M4241 5041 c-8 -5 -9 -11 -3 -15 5 -3 12 1 16 9 6 17 6 18 -13 6z"/>
<path d="M4210 4925 c0 -8 5 -15 10 -15 6 0 10 7 10 15 0 8 -4 15 -10 15 -5 0
-10 -7 -10 -15z"/>
<path d="M4060 4920 c0 -5 5 -10 10 -10 6 0 10 -22 10 -50 0 -47 -5 -55 -32
-51 -7 1 -2 -54 7 -68 3 -5 1 -21 -5 -35 -8 -21 -16 -26 -47 -27 -21 0 -31 -3
-23 -6 26 -9 40 -36 40 -75 0 -28 4 -38 16 -38 12 0 15 6 9 23 -11 37 -6 70
16 100 13 18 18 35 13 45 -11 26 -4 63 17 85 22 24 23 31 7 57 -10 15 -10 22
0 32 19 19 14 28 -13 28 -14 0 -25 -4 -25 -10z"/>
<path d="M4210 4866 c0 -14 -9 -31 -19 -38 -16 -11 -18 -20 -12 -48 l8 -35 7
32 c4 17 14 37 22 44 16 13 19 55 4 64 -6 3 -10 -5 -10 -19z"/>
<path d="M2110 4860 c0 -5 5 -10 10 -10 6 0 10 5 10 10 0 6 -4 10 -10 10 -5 0
-10 -4 -10 -10z"/>
<path d="M4310 4829 c0 -5 5 -7 10 -4 6 3 10 8 10 11 0 2 -4 4 -10 4 -5 0 -10
-5 -10 -11z"/>
<path d="M4321 4754 c0 -11 3 -14 6 -6 3 7 2 16 -1 19 -3 4 -6 -2 -5 -13z"/>
<path d="M4185 4729 c-9 -14 -2 -20 14 -10 8 6 9 11 3 15 -6 3 -14 1 -17 -5z"/>
<path d="M4285 4709 c-11 -17 1 -21 15 -4 8 9 8 15 2 15 -6 0 -14 -5 -17 -11z"/>
<path d="M4150 4685 c0 -8 5 -15 10 -15 6 0 10 7 10 15 0 8 -4 15 -10 15 -5 0
-10 -7 -10 -15z"/>
<path d="M4290 4630 c0 -5 5 -10 10 -10 6 0 10 5 10 10 0 6 -4 10 -10 10 -5 0
-10 -4 -10 -10z"/>
<path d="M4255 4580 c3 -5 8 -10 11 -10 2 0 4 5 4 10 0 6 -5 10 -11 10 -5 0
-7 -4 -4 -10z"/>
<path d="M4123 4562 c-10 -6 -10 -12 2 -28 14 -18 14 -18 15 9 0 30 0 30 -17
19z"/>
<path d="M4271 4494 c0 -11 3 -14 6 -6 3 7 2 16 -1 19 -3 4 -6 -2 -5 -13z"/>
<path d="M4130 4477 c0 -17 5 -27 15 -27 19 0 19 9 0 34 -14 19 -15 19 -15 -7z"/>
<path d="M4367 4470 c3 -11 7 -20 9 -20 2 0 4 9 4 20 0 11 -4 20 -9 20 -5 0
-7 -9 -4 -20z"/>
<path d="M4065 4420 c-3 -6 1 -17 9 -26 9 -8 16 -31 16 -50 0 -27 4 -34 20
-34 24 0 26 13 5 30 -18 15 -20 61 -3 78 9 9 6 12 -14 12 -15 0 -30 -5 -33
-10z"/>
<path d="M4381 4404 c0 -11 3 -14 6 -6 3 7 2 16 -1 19 -3 4 -6 -2 -5 -13z"/>
<path d="M4240 4360 c0 -5 5 -10 10 -10 6 0 10 5 10 10 0 6 -4 10 -10 10 -5 0
-10 -4 -10 -10z"/>
<path d="M4187 4314 c-4 -4 0 -12 9 -19 9 -6 16 -27 17 -48 1 -25 6 -37 15
-37 10 0 12 6 7 18 -4 9 -10 32 -14 51 -6 34 -20 48 -34 35z"/>
<path d="M4040 4281 c-16 -4 -21 -9 -13 -14 18 -11 28 -94 13 -112 -10 -12
-10 -15 0 -15 6 0 20 10 30 22 15 20 16 25 4 44 -15 21 -15 49 -1 72 9 13 5
14 -33 3z"/>
<path d="M4370 4270 c0 -5 5 -10 10 -10 6 0 10 5 10 10 0 6 -4 10 -10 10 -5 0
-10 -4 -10 -10z"/>
<path d="M3730 4239 c0 -5 5 -7 10 -4 6 3 10 8 10 11 0 2 -4 4 -10 4 -5 0 -10
-5 -10 -11z"/>
<path d="M4325 4210 c-3 -5 -1 -10 4 -10 6 0 11 5 11 10 0 6 -2 10 -4 10 -3 0
-8 -4 -11 -10z"/>
<path d="M4175 4170 c-15 -17 -16 -20 -3 -20 9 0 19 7 22 16 10 25 1 27 -19 4z"/>
<path d="M4352 4140 c0 -14 2 -19 5 -12 2 6 2 18 0 25 -3 6 -5 1 -5 -13z"/>
<path d="M3853 4077 c-13 -5 -23 -14 -23 -19 0 -5 10 -6 23 -2 27 8 30 10 26
22 -3 6 -13 5 -26 -1z"/>
<path d="M4255 4032 c-40 -16 -55 -28 -55 -47 0 -6 4 -5 8 1 4 6 27 11 52 10
36 -1 45 3 48 18 6 30 -10 35 -53 18z"/>
<path d="M4340 3985 c0 -9 44 -23 54 -17 5 3 1 9 -10 13 -23 9 -44 11 -44 4z"/>
<path d="M4374 3931 c4 -5 -9 -22 -29 -37 -35 -26 -49 -59 -20 -48 8 4 15 12
15 19 0 23 18 26 56 10 48 -20 61 -19 42 3 -9 9 -18 26 -20 37 -2 12 -13 21
-27 23 -14 2 -21 0 -17 -7z"/>
<path d="M4170 3905 c0 -9 12 -20 26 -25 42 -16 47 -11 16 15 -35 29 -42 31
-42 10z"/>
<path d="M4320 3818 c0 -18 18 -34 28 -24 3 4 -2 14 -11 23 -16 16 -17 16 -17
1z"/>
<path d="M3997 3806 c-3 -8 -3 -17 1 -21 4 -4 7 -12 7 -17 0 -18 22 -20 28 -3
4 8 1 15 -4 15 -6 0 -9 9 -6 20 6 23 -18 28 -26 6z"/>
<path d="M4050 3813 c0 -5 5 -15 10 -23 8 -12 10 -11 10 8 0 12 -4 22 -10 22
-5 0 -10 -3 -10 -7z"/>
<path d="M4220 3791 c0 -5 -17 -11 -39 -15 -49 -8 -76 -43 -61 -81 6 -14 15
-23 20 -20 6 3 14 -3 18 -15 12 -33 25 -25 37 21 9 39 13 42 47 45 32 3 40 -1
53 -24 l14 -27 1 30 c0 17 6 37 13 45 10 12 9 12 -5 2 -9 -7 -18 -9 -20 -5 -5
13 -78 54 -78 44z m20 -41 c0 -5 -5 -10 -11 -10 -5 0 -7 5 -4 10 3 6 8 10 11
10 2 0 4 -4 4 -10z"/>
<path d="M4532 3775 c-13 -16 -5 -19 22 -9 9 3 16 10 16 15 0 14 -24 10 -38
-6z"/>
<path d="M4365 3613 c10 -14 21 -38 25 -52 6 -24 8 -22 15 18 8 46 -1 61 -39
61 -18 0 -18 -1 -1 -27z"/>
<path d="M4086 3614 c-3 -8 1 -23 10 -31 11 -12 14 -28 10 -57 -3 -23 -5 -45
-5 -49 -1 -5 -6 -5 -12 -1 -8 4 -8 0 0 -15 7 -11 8 -21 4 -21 -4 0 -1 -5 7
-10 13 -8 12 -10 -2 -10 -10 0 -18 -4 -18 -8 0 -14 58 -1 64 15 3 8 -1 21 -9
29 -22 22 -18 43 8 54 12 5 18 9 13 9 -5 1 -2 9 8 20 23 25 11 48 -24 48 -37
0 -46 8 -30 28 10 12 10 15 -3 15 -8 0 -18 -7 -21 -16z"/>
<path d="M4300 3610 c0 -5 6 -10 14 -10 8 0 23 -3 33 -6 10 -3 7 2 -7 10 -30
18 -40 20 -40 6z"/>
<path d="M4460 3575 c0 -8 5 -15 10 -15 6 0 10 7 10 15 0 8 -4 15 -10 15 -5 0
-10 -7 -10 -15z"/>
<path d="M4550 3580 c0 -5 5 -10 11 -10 5 0 7 5 4 10 -3 6 -8 10 -11 10 -2 0
-4 -4 -4 -10z"/>
<path d="M4224 3544 c3 -9 6 -17 6 -20 0 -2 7 -1 15 2 12 5 13 10 4 20 -16 19
-33 18 -25 -2z"/>
<path d="M4080 3536 c0 -9 5 -16 10 -16 6 0 10 4 10 9 0 6 -4 13 -10 16 -5 3
-10 -1 -10 -9z"/>
<path d="M4386 3515 c-3 -10 -3 -22 3 -28 12 -12 20 4 11 27 -6 19 -7 19 -14
1z"/>
<path d="M4220 3484 c-13 -33 -13 -71 0 -79 6 -3 10 -3 11 2 3 61 4 103 2 103
-2 0 -8 -12 -13 -26z"/>
<path d="M4300 3500 c0 -5 -7 -10 -15 -10 -8 0 -15 -4 -15 -9 0 -9 44 -41 57
-41 4 0 1 5 -7 10 -12 8 -13 13 -3 29 12 18 8 31 -9 31 -4 0 -8 -4 -8 -10z"/>
<path d="M4000 3480 c0 -5 5 -10 10 -10 20 0 9 -21 -16 -30 -14 -6 -22 -14
-19 -20 3 -5 0 -10 -9 -10 -8 0 -17 -13 -21 -30 -4 -16 -13 -30 -21 -30 -8 0
-14 -10 -14 -21 0 -17 3 -19 14 -10 8 6 31 13 52 15 32 2 43 -2 62 -23 l23
-26 -7 30 c-4 17 -11 32 -16 33 -4 2 1 16 12 32 25 36 25 50 0 50 -11 0 -20 5
-20 11 0 7 10 9 24 7 17 -4 23 -1 19 9 -3 7 -14 13 -24 13 -10 0 -19 5 -19 10
0 6 -7 10 -15 10 -8 0 -15 -4 -15 -10z"/>
<path d="M4369 3433 c-13 -17 -13 -17 6 -3 11 8 22 16 24 17 2 2 0 3 -6 3 -6
0 -17 -8 -24 -17z"/>
<path d="M4523 3427 c-9 -19 -20 -27 -38 -27 -14 0 -25 -4 -25 -10 0 -16 36
-11 60 8 13 10 21 26 19 37 -4 16 -6 15 -16 -8z"/>
<path d="M4280 3388 c0 -10 -7 -18 -15 -18 -16 0 -19 -18 -7 -37 4 -7 24 -13
45 -15 42 -2 80 26 82 62 2 22 0 22 -62 24 -35 1 -43 -2 -43 -16z"/>
<path d="M4151 3384 c13 -16 39 -19 39 -5 0 5 -11 11 -25 13 -20 4 -23 3 -14
-8z"/>
<path d="M4093 3380 c4 -8 10 -23 13 -32 4 -10 10 -18 14 -18 13 0 0 38 -18
52 -13 11 -14 11 -9 -2z"/>
<path d="M4593 3375 c-9 -26 4 -28 26 -6 21 21 21 21 1 21 -11 0 -23 -7 -27
-15z"/>
<path d="M4736 3375 c4 -8 8 -15 10 -15 2 0 4 7 4 15 0 8 -4 15 -10 15 -5 0
-7 -7 -4 -15z"/>
<path d="M5248 3356 c-24 -18 -23 -23 12 -41 43 -22 51 -19 36 17 -16 38 -25
42 -48 24z"/>
<path d="M4194 3345 c-4 -8 -12 -15 -20 -15 -8 0 -14 -10 -14 -25 0 -14 5 -25
10 -25 6 0 15 -10 20 -22 9 -24 9 -24 13 55 3 49 0 57 -9 32z"/>
<path d="M4060 3331 c0 -5 6 -14 14 -20 11 -9 15 -8 20 5 9 23 8 24 -14 24
-11 0 -20 -4 -20 -9z"/>
<path d="M4435 3330 c-3 -5 -1 -10 4 -10 6 0 11 5 11 10 0 6 -2 10 -4 10 -3 0
-8 -4 -11 -10z"/>
<path d="M4365 3291 c3 -12 0 -21 -10 -24 -17 -7 -10 -33 11 -41 9 -4 12 -2 8
5 -3 6 3 24 15 40 27 36 26 39 -5 39 -20 0 -24 -4 -19 -19z"/>
<path d="M4130 3291 c0 -6 4 -12 8 -15 5 -3 9 1 9 9 0 8 -4 15 -9 15 -4 0 -8
-4 -8 -9z"/>
<path d="M3880 3277 c0 -24 46 -57 84 -62 20 -3 35 -1 32 3 -2 4 -1 14 5 22 6
10 9 11 9 3 0 -7 7 -13 15 -13 8 0 15 7 15 15 0 8 5 15 11 15 5 0 8 4 5 9 -9
14 -54 19 -65 8 -7 -7 -15 -6 -24 2 -12 9 -16 8 -21 -5 -6 -15 -8 -16 -24 0
-22 19 -42 21 -42 3z"/>
<path d="M4100 3278 c0 -9 5 -20 10 -23 13 -8 13 5 0 25 -8 13 -10 13 -10 -2z"/>
<path d="M4270 3260 c0 -5 5 -10 11 -10 5 0 7 5 4 10 -3 6 -8 10 -11 10 -2 0
-4 -4 -4 -10z"/>
<path d="M4620 3259 c0 -5 5 -7 10 -4 6 3 10 8 10 11 0 2 -4 4 -10 4 -5 0 -10
-5 -10 -11z"/>
<path d="M4250 3252 c0 -19 19 -52 30 -52 16 0 12 16 -10 41 -11 14 -19 18
-20 11z"/>
<path d="M4300 3240 c0 -5 7 -10 16 -10 8 0 12 5 9 10 -3 6 -10 10 -16 10 -5
0 -9 -4 -9 -10z"/>
<path d="M4456 3233 c-3 -3 -1 -12 5 -20 6 -7 10 -13 8 -14 -39 -7 -49 -7 -49
1 0 6 5 10 10 10 6 0 10 4 10 9 0 5 -9 7 -20 4 -21 -6 -25 -20 -12 -40 10 -15
60 -11 67 6 3 7 12 10 20 7 8 -3 15 -2 15 2 -1 11 -47 42 -54 35z"/>
<path d="M4207 3217 c-3 -8 -1 -20 4 -28 6 -10 9 -7 9 14 0 29 -5 35 -13 14z"/>
<path d="M4010 3191 c0 -26 4 -29 42 -34 26 -3 45 -1 49 5 4 6 12 7 19 3 10
-6 11 -1 6 21 -9 36 -12 39 -28 27 -23 -18 -56 -22 -62 -7 -9 24 -26 15 -26
-15z"/>
<path d="M4265 3160 c-3 -5 -20 -10 -36 -10 -43 0 -36 -32 8 -35 24 -2 30 1
26 12 -4 11 1 13 23 7 l29 -7 -19 22 c-22 24 -23 24 -31 11z"/>
<path d="M4105 3130 c4 -12 2 -20 -5 -20 -6 0 -18 -6 -26 -14 -42 -43 23 -68
96 -38 l25 10 -33 8 c-31 6 -33 10 -28 35 3 19 1 29 -10 33 -24 9 -26 8 -19
-14z"/>
<path d="M5010 3141 c0 -5 7 -14 15 -21 14 -12 13 -15 -5 -32 -28 -26 -24 -38
22 -78 l41 -35 -8 55 c-8 65 -32 120 -51 120 -8 0 -14 -4 -14 -9z"/>
<path d="M4494 3068 c-19 -21 -19 -21 6 -8 33 17 33 17 22 24 -5 3 -18 -4 -28
-16z"/>
<path d="M4652 3064 c7 -15 14 -21 16 -15 5 16 -5 41 -17 41 -7 0 -6 -10 1
-26z"/>
<path d="M4145 3035 c-18 -15 -18 -16 -2 -11 10 3 25 -1 33 -9 17 -17 59 -21
49 -5 -4 6 -13 9 -20 8 -8 -2 -20 5 -27 15 -12 16 -15 16 -33 2z"/>
<path d="M4708 3039 c-10 -5 -18 -20 -18 -31 0 -12 -7 -29 -15 -38 -13 -15
-10 -22 35 -70 l50 -54 0 51 c0 53 -19 153 -29 153 -3 0 -14 -5 -23 -11z"/>
<path d="M4374 2986 c-8 -33 5 -74 17 -55 12 19 11 79 -1 79 -5 0 -12 -11 -16
-24z"/>
<path d="M3691 4704 c0 -11 3 -14 6 -6 3 7 2 16 -1 19 -3 4 -6 -2 -5 -13z"/>
<path d="M3710 4622 c0 -7 -7 -12 -16 -12 -8 0 -12 -5 -8 -11 4 -7 11 -6 22 5
9 8 13 19 9 22 -4 4 -7 2 -7 -4z"/>
<path d="M3120 4420 c0 -5 7 -7 15 -4 8 4 15 8 15 10 0 2 -7 4 -15 4 -8 0 -15
-4 -15 -10z"/>
<path d="M3215 4070 c-3 -5 1 -10 10 -10 9 0 13 5 10 10 -3 6 -8 10 -10 10 -2
0 -7 -4 -10 -10z"/>
</g>
</svg>
