<?xml version="1.0" encoding="UTF-8" standalone="no"?>
<!-- Generator: Adobe Illustrator 11 Build 196, SVG Export Plug-In . SVG Version: 6.0.0 Build 78)  -->
<svg
   xmlns:dc="http://purl.org/dc/elements/1.1/"
   xmlns:cc="http://web.resource.org/cc/"
   xmlns:rdf="http://www.w3.org/1999/02/22-rdf-syntax-ns#"
   xmlns:svg="http://www.w3.org/2000/svg"
   xmlns="http://www.w3.org/2000/svg"
   xmlns:sodipodi="http://inkscape.sourceforge.net/DTD/sodipodi-0.dtd"
   xmlns:inkscape="http://www.inkscape.org/namespaces/inkscape"
   width="114.877"
   height="160.936"
   viewBox="0 0 114.877 160.936"
   style="overflow:visible;enable-background:new 0 0 114.877 160.936"
   xml:space="preserve"
   id="svg2"
   sodipodi:version="0.32"
   sodipodi:docname="focal-length-concept.svg"
   sodipodi:docbase="/home/bcrowell/Documents/writing/lm/trunk/5op/ch03/figs"><metadata
   id="metadata36"><rdf:RDF><cc:Work
       rdf:about=""><dc:format>image/svg+xml</dc:format><dc:type
         rdf:resource="http://purl.org/dc/dcmitype/StillImage" /></cc:Work></rdf:RDF></metadata><defs
   id="defs34">
		
		
		
		
		
		
	</defs><sodipodi:namedview
   inkscape:cy="70.705975"
   inkscape:cx="71.417781"
   inkscape:zoom="3.7373381"
   inkscape:window-height="996"
   inkscape:window-width="1278"
   inkscape:pageshadow="2"
   inkscape:pageopacity="0.0"
   borderopacity="1.0"
   bordercolor="#666666"
   pagecolor="#ffffff"
   id="base"
   inkscape:window-x="0"
   inkscape:window-y="0"
   inkscape:current-layer="svg2" />
	<rect
   style="fill:#dedede;fill-opacity:1.0000000;fill-rule:evenodd;stroke:none;stroke-width:1.0000000pt;stroke-linecap:butt;stroke-linejoin:miter;stroke-opacity:1.0000000;overflow:visible"
   id="rect2062"
   width="161.87993"
   height="80.538612"
   x="-21.873859"
   y="81.333893" /><rect
   style="fill:#dedede;fill-opacity:1.0000000;fill-rule:evenodd;stroke:none;stroke-width:1.0000000pt;stroke-linecap:butt;stroke-linejoin:miter;stroke-opacity:1.0000000"
   id="rect1334"
   width="161.87993"
   height="80.538612"
   x="-21.873859"
   y="-3.0844812" /><g
   id="g2078"
   transform="translate(0.000000,-1.855301)"><path
     style="fill:none;stroke:#000000"
     d="M 25.367000,86.396000 C 9.5600000,97.198000 0.50000000,109.77100 0.50000000,123.19100 C 0.50000000,136.83300 9.8630000,149.60000 26.158000,160.52100"
     id="path7" /><g
     id="g9">
			<polyline
   style="fill:none;stroke:#000000;stroke-width:0.50000000"
   points="114.347,96.508 13.146,96.508 13.946,112.108 "
   id="polyline11" />
			<path
   d="M 14.057000,114.27500 C 13.626000,113.27400 12.914000,112.04000 12.190000,111.29000 L 13.931000,111.82100 L 15.609000,111.11500 C 14.964000,111.93500 14.383000,113.23500 14.057000,114.27500 z "
   id="path13" />
		</g><g
     id="g15">
			<polyline
   style="fill:none;stroke:#000000;stroke-width:0.50000000"
   points="114.347,148.925 13.146,148.925 13.946,133.325 "
   id="polyline17" />
			<path
   d="M 14.057000,131.15900 C 13.626000,132.16000 12.914000,133.39400 12.190000,134.14400 L 13.931000,133.61300 L 15.609000,134.31900 C 14.964000,133.49900 14.383000,132.19900 14.057000,131.15900 z "
   id="path19" />
		</g></g><g
   id="g2087"
   transform="translate(0.000000,7.032494e-2)"><path
     style="fill:none;stroke:#000000"
     d="M 16.239000,0.052000000 C 15.101000,10.854000 14.449000,23.427000 14.449000,36.847000 C 14.449000,50.489000 15.123000,63.256000 16.296000,74.177000"
     id="path5" /><g
     id="g21">
			<polyline
   style="fill:none;stroke:#000000;stroke-width:0.50000000"
   points="114.877,13.031 15.377,13.031 97.877,18.531 "
   id="polyline23" />
			<path
   d="M 100.58800,18.709000 C 99.281000,19.097000 97.645000,19.799000 96.608000,20.588000 L 97.523000,18.505000 L 96.893000,16.318000 C 97.816000,17.239000 99.344000,18.152000 100.58800,18.709000 z "
   id="path25" />
		</g><g
     id="g27">
			<polyline
   style="fill:none;stroke:#000000;stroke-width:0.50000000"
   points="114.877,60.589 15.377,60.589 97.877,55.089 "
   id="polyline29" />
			<path
   d="M 100.58800,54.910000 C 99.281000,54.522000 97.645000,53.820000 96.608000,53.031000 L 97.523000,55.114000 L 96.893000,57.301000 C 97.816000,56.381000 99.344000,55.468000 100.58800,54.910000 z "
   id="path31" />
		</g></g>
<text
   xml:space="preserve"
   style="font-size:10.000000px;font-style:normal;font-variant:normal;font-weight:normal;font-stretch:normal;text-align:start;line-height:125.00000%;writing-mode:lr-tb;text-anchor:start;fill:#000000;fill-opacity:1.0000000;stroke:none;stroke-width:1.0000000pt;stroke-linecap:butt;stroke-linejoin:miter;stroke-opacity:1.0000000;font-family:Liberation Sans"
   x="-16.762196"
   y="8.9561749"
   id="text2096"
   sodipodi:linespacing="125.00000%"><tspan
     sodipodi:role="line"
     id="tspan2098"
     x="-16.762196"
     y="8.9561749">1</tspan></text>
<text
   xml:space="preserve"
   style="font-size:10.000000px;font-style:normal;font-variant:normal;font-weight:normal;font-stretch:normal;text-align:start;line-height:125.00000%;writing-mode:lr-tb;text-anchor:start;fill:#000000;fill-opacity:1.0000000;stroke:none;stroke-width:1.0000000pt;stroke-linecap:butt;stroke-linejoin:miter;stroke-opacity:1.0000000;font-family:Liberation Sans"
   x="-16.540028"
   y="92.973198"
   id="text2100"
   sodipodi:linespacing="125.00000%"><tspan
     sodipodi:role="line"
     id="tspan2102"
     x="-16.540028"
     y="92.973198">2</tspan></text>
</svg>