<?xml version="1.0" encoding="UTF-8" standalone="no"?>
<!-- Generator: Adobe Illustrator 11 Build 196, SVG Export Plug-In . SVG Version: 6.0.0 Build 78)  -->
<svg
   xmlns:dc="http://purl.org/dc/elements/1.1/"
   xmlns:cc="http://web.resource.org/cc/"
   xmlns:rdf="http://www.w3.org/1999/02/22-rdf-syntax-ns#"
   xmlns:svg="http://www.w3.org/2000/svg"
   xmlns="http://www.w3.org/2000/svg"
   xmlns:sodipodi="http://inkscape.sourceforge.net/DTD/sodipodi-0.dtd"
   xmlns:inkscape="http://www.inkscape.org/namespaces/inkscape"
   width="347.295"
   height="318.132"
   viewBox="0 0 347.295 318.132"
   style="overflow:visible;enable-background:new 0 0 347.295 318.132"
   xml:space="preserve"
   id="svg2"
   sodipodi:version="0.32"
   sodipodi:docname="graph-of-di-vs-do.svg"
   sodipodi:docbase="/home/bcrowell/Documents/writing/lm/trunk/5op/ch03/figs"><metadata
   id="metadata248"><rdf:RDF><cc:Work
       rdf:about=""><dc:format>image/svg+xml</dc:format><dc:type
         rdf:resource="http://purl.org/dc/dcmitype/StillImage" /></cc:Work></rdf:RDF></metadata><defs
   id="defs246">
		
		
		
			
		
		
		
		
		
		
		
		
		
		
		
		
		
		
		
		
		
		
		
		
	</defs><sodipodi:namedview
   inkscape:cy="111.23883"
   inkscape:cx="339.53442"
   inkscape:zoom="55.727506"
   inkscape:window-height="996"
   inkscape:window-width="1278"
   inkscape:pageshadow="2"
   inkscape:pageopacity="0.0"
   borderopacity="1.0"
   bordercolor="#666666"
   pagecolor="#ffffff"
   id="base"
   inkscape:window-x="0"
   inkscape:window-y="0"
   inkscape:current-layer="svg2" />
	<style
   type="text/css"
   id="style4">
	
	</style>
	<rect
   style="fill:#dedede;fill-opacity:1.0000000;fill-rule:evenodd;stroke:none;stroke-width:1.0000000pt;stroke-linecap:butt;stroke-linejoin:miter;stroke-opacity:1.0000000"
   id="rect1723"
   width="355.59949"
   height="324.86865"
   x="-2.4389668"
   y="-1.8587486" /><path
   id="path7"
   d="M 173.06200,8.2120000 C 175.72900,56.879000 178.22900,71.546000 181.39500,89.213000 C 184.56200,106.88000 191.56200,122.71300 199.56200,131.21300 C 207.56200,139.71300 220.06200,148.04600 246.72900,152.54600 C 273.39600,157.04600 299.39600,160.04600 325.22900,160.37900"
   style="fill:none;stroke:#000000;stroke-opacity:1.0000000;stroke-width:1.5000001;stroke-miterlimit:4.0000000;stroke-dasharray:none" /><path
   id="path9"
   d="M 167.84100,316.43700 C 165.17400,267.77000 162.67400,253.10300 159.50800,235.43700 C 156.34100,217.77000 149.34100,201.93700 141.34100,193.43600 C 133.34100,184.93600 120.84100,176.60300 94.174000,172.10300 C 67.507000,167.60300 41.507000,164.60300 15.674000,164.27000"
   style="fill:none;stroke:#000000;stroke-opacity:1.0000000;stroke-width:1.5000001;stroke-miterlimit:4.0000000;stroke-dasharray:none" /><line
   id="line11"
   y2="314.06900"
   x2="170.50101"
   y1="4.3179998"
   x1="170.50101"
   style="fill:none;stroke:#616161;stroke-width:0.50000000;stroke-dasharray:2.0000000;stroke-opacity:1.0000000" /><line
   id="line13"
   y2="162.06900"
   x2="0.0000000"
   y1="162.06900"
   x1="328.76199"
   style="fill:none;stroke:#616161;stroke-width:0.50000000;stroke-dasharray:2.0000000;stroke-opacity:1.0000000" /><g
   id="g15">
			<line
   id="line17"
   y2="6.6570001"
   x2="140.04201"
   y1="316.33301"
   x1="140.04201"
   style="fill:none;stroke:#000000;stroke-width:0.50000000" />
			<path
   id="path19"
   d="M 140.04200,4.3940000 C 140.43700,5.4590000 141.11100,6.7800000 141.82500,7.5990000 L 140.04200,6.9540000 L 138.25900,7.5990000 C 138.97300,6.7800000 139.64700,5.4590000 140.04200,4.3940000 z " />
		</g><g
   id="g21">
			<line
   id="line23"
   y2="192.07700"
   x2="329.03101"
   y1="192.07700"
   x1="0.0000000"
   style="fill:none;stroke:#000000;stroke-width:0.50000000" />
			<path
   id="path25"
   d="M 331.29300,192.07700 C 330.22900,192.47200 328.90700,193.14600 328.08800,193.86000 L 328.73300,192.07700 L 328.08800,190.29400 C 328.90800,191.00800 330.22900,191.68300 331.29300,192.07700 z " />
		</g><g
   id="g27">
			<path
   id="path29"
   d="M 135.83900,156.62200 C 130.16100,142.11000 79.058000,154.38900 75.509000,146.57500"
   style="fill:none;stroke:#000000;stroke-width:0.50000000" />
			<path
   id="path31"
   d="M 15.179000,156.62200 C 20.857000,142.11000 71.960000,154.38900 75.509000,146.57500"
   style="fill:none;stroke:#000000;stroke-width:0.50000000" />
		</g><g
   id="g33">
			<path
   id="path35"
   d="M 332.66600,158.76900 C 341.98600,134.78500 261.91000,82.890000 266.29500,69.341000"
   style="fill:none;stroke:#000000;stroke-width:0.50000000" />
			<path
   id="path37"
   d="M 176.86700,2.9700000 C 200.85000,-6.3500000 252.74600,73.725000 266.29500,69.341000"
   style="fill:none;stroke:#000000;stroke-width:0.50000000" />
		</g><g
   id="g39">
			<path
   id="path41"
   d="M 176.57600,315.86800 C 191.08800,310.19000 178.80800,259.08700 186.62200,255.53800"
   style="fill:none;stroke:#000000;stroke-width:0.50000000" />
			<path
   id="path43"
   d="M 176.57600,195.20800 C 191.08800,200.88600 178.80800,251.98900 186.62200,255.53800"
   style="fill:none;stroke:#000000;stroke-width:0.50000000" />
		</g><g
   id="g45">
			<line
   id="line47"
   y2="286.77899"
   x2="245.27000"
   y1="289.88101"
   x1="256.95801"
   style="fill:none;stroke:#000000;stroke-width:0.50000000" />
			<g
   id="g49">
				<line
   id="line51"
   y2="283.72800"
   x2="258.01501"
   y1="286.73700"
   x1="245.30499"
   style="fill:none;stroke:#000000;stroke-width:0.50000000" />
				<path
   id="path53"
   d="M 259.48200,283.38200 C 258.85100,283.80200 258.09800,284.44300 257.67700,285.03100 L 257.82200,283.77500 L 257.12900,282.71700 C 257.77000,283.05600 258.73000,283.28900 259.48200,283.38200 z " />
			</g>
			<line
   id="line55"
   y2="298.74100"
   x2="245.99699"
   y1="290.18600"
   x1="257.11200"
   style="fill:none;stroke:#000000;stroke-width:0.50000000" />
			
				<line
   id="line57"
   y2="292.29199"
   x2="221.30299"
   y1="286.77802"
   x1="244.89700"
   style="fill:none;stroke:#000000;stroke-width:0.50000000;stroke-dasharray:2.0000000 " />
			
				<line
   id="line59"
   y2="298.80399"
   x2="246.00101"
   y1="292.29199"
   x1="221.30299"
   style="fill:none;stroke:#000000;stroke-width:0.50000000;stroke-dasharray:2.0000000 " />
			<g
   id="g61">
				<line
   id="line63"
   y2="302.39700"
   x2="258.13400"
   y1="298.91000"
   x1="245.97000"
   style="fill:none;stroke:#000000;stroke-width:0.50000000" />
				<path
   id="path65"
   d="M 259.58800,302.81100 C 258.83300,302.86900 257.86200,303.05800 257.20600,303.36500 L 257.94700,302.34100 L 257.86100,301.08000 C 258.25500,301.68800 258.97800,302.36200 259.58800,302.81100 z " />
			</g>
			<line
   id="line67"
   y2="275.55801"
   x2="246.92900"
   y1="289.38400"
   x1="257.08801"
   style="fill:none;stroke:#000000;stroke-width:0.50000000" />
			<g
   id="g69">
				<line
   id="line71"
   y2="275.65399"
   x2="247.17000"
   y1="265.75900"
   x1="261.69699"
   style="fill:none;stroke:#000000;stroke-width:0.50000000" />
				<path
   id="path73"
   d="M 262.94800,264.90600 C 262.50900,265.52400 262.03400,266.39100 261.85000,267.09200 L 261.53700,265.86700 L 260.51300,265.12700 C 261.23100,265.21300 262.21200,265.08900 262.94800,264.90600 z " />
			</g>
			
				<line
   id="line75"
   y2="292.29199"
   x2="221.30299"
   y1="275.63400"
   x1="246.96201"
   style="fill:none;stroke:#000000;stroke-width:0.50000000;stroke-dasharray:2.0000000 " />
			<path
   id="path77"
   d="M 252.73800,261.37900 C 247.92000,269.61200 245.15700,279.19400 245.15700,289.42300 C 245.15700,299.82100 248.01100,309.55200 252.97900,317.87600"
   style="fill:none;stroke:#000000" />
		</g><g
   id="g79">
			<path
   id="path81"
   d="M 269.32000,0.25200000 C 264.50200,8.4850000 261.73900,18.068000 261.73900,28.296000 C 261.73900,38.693000 264.59300,48.424000 269.56100,56.748000"
   style="fill:none;stroke:#000000" />
			<line
   id="line83"
   y2="41.513000"
   x2="263.29901"
   y1="19.958000"
   x1="347.23300"
   style="fill:none;stroke:#000000;stroke-width:0.50000000" />
			<g
   id="g85">
				<line
   id="line87"
   y2="31.138000"
   x2="313.17401"
   y1="41.513000"
   x1="263.29901"
   style="fill:none;stroke:#000000;stroke-width:0.50000000" />
				<path
   id="path89"
   d="M 314.65200,30.826000 C 314.01000,31.228000 313.24000,31.848000 312.80200,32.425000 L 312.98100,31.174000 L 312.31800,30.098000 C 312.94900,30.452000 313.90300,30.713000 314.65200,30.826000 z " />
			</g>
			<g
   id="g91">
				<line
   id="line93"
   y2="47.639000"
   x2="305.25900"
   y1="2.2639999"
   x1="268.75900"
   style="fill:none;stroke:#000000;stroke-width:0.50000000" />
				<path
   id="path95"
   d="M 306.20300,48.815000 C 305.55400,48.427000 304.65000,48.023000 303.93700,47.895000 L 305.13300,47.485000 L 305.78900,46.405000 C 305.76100,47.129000 305.96200,48.097000 306.20300,48.815000 z " />
			</g>
			<line
   id="line97"
   y2="19.958000"
   x2="347.23300"
   y1="2.0130000"
   x1="268.29901"
   style="fill:none;stroke:#000000;stroke-width:0.50000000" />
			<g
   id="g99">
				<polyline
   id="polyline101"
   points="347.233,19.958 262.667,18.377 309.667,42.71 "
   style="fill:none;stroke:#000000;stroke-width:0.50000000" />
				<path
   id="path103"
   d="M 311.00900,43.403000 C 310.25700,43.311000 309.26900,43.305000 308.56500,43.476000 L 309.49400,42.618000 L 309.65800,41.365000 C 309.92400,42.039000 310.50000,42.843000 311.00900,43.403000 z " />
			</g>
		</g><text
   id="text183"
   x="132.7095"
   y="90.92836"
   style="font-family:Liberation Sans;font-weight:normal;font-style:normal;font-stretch:normal;font-variant:normal;font-size:9.0000003;text-anchor:start;text-align:start;writing-mode:lr;line-height:125.00000%"
   sodipodi:linespacing="125%"><tspan
     id="tspan185"
     style="font-size:9.0000003;font-family:Liberation Sans;font-weight:normal;font-style:normal;font-stretch:normal;font-variant:normal;text-anchor:start;text-align:start;writing-mode:lr;line-height:125.00000%"
     y="90.92836"
     x="132.7095">o</tspan></text>

<text
   id="text207"
   x="339.40121"
   y="228.34283"><tspan
     id="tspan209"
     style="font-size:8.5000000px;font-family:Liberation Sans"
     y="228.34283"
     x="339.40121">i</tspan></text>

<text
   id="text211"
   x="128.4521"
   y="11.9092"><tspan
     id="tspan213"
     style="font-size:8.5000000px;font-family:Liberation Sans"
     y="11.9092"
     x="128.4521">d</tspan></text>

<text
   id="text215"
   x="134.81641"
   y="16.314501"><tspan
     id="tspan217"
     style="font-size:8.5000000px;font-family:Liberation Sans"
     y="16.314501"
     x="134.81641">i</tspan></text>

<text
   id="text219"
   x="325.01611"
   y="203.6416"><tspan
     id="tspan221"
     style="font-size:8.5000000px;font-family:Liberation Sans"
     y="203.6416"
     x="325.01611">d</tspan></text>

<text
   id="text223"
   x="330.33963"
   y="207.52652"
   inkscape:export-xdpi="300.00000"
   inkscape:export-ydpi="300.00000"><tspan
     id="tspan225"
     style="font-size:8.5000000px;font-family:Liberation Sans"
     y="207.52652"
     x="330.33963">o</tspan></text>

<text
   id="text227"
   x="197.46831"
   y="172.4561"><tspan
     id="tspan229"
     style="font-size:8.5000000px;font-family:Liberation Sans"
     y="172.4561"
     x="197.46831">d   = f</tspan></text>

<text
   id="text231"
   x="203.3423"
   y="176.3735"><tspan
     id="tspan233"
     style="font-size:8.5000000px;font-family:Liberation Sans"
     y="176.3735"
     x="203.3423">i</tspan></text>

<g
   id="g235">
			<text
   id="text237"
   transform="matrix(0.000000,-1.000000,1.000000,0.000000,166.0405,136.9336)"><tspan
     id="tspan239"
     style="font-size:8.5000000px;font-family:Liberation Sans"
     y="0"
     x="0">d   = f</tspan></text>


			<text
   id="text241"
   transform="matrix(0.000000,-1.000000,1.000000,0.000000,168.8716,131.7285)"><tspan
     id="tspan243"
     style="font-size:8.5000000px;font-family:Liberation Sans"
     y="0"
     x="0">o</tspan></text>


		</g>
<text
   xml:space="preserve"
   style="font-size:10.000000px;font-style:normal;font-variant:normal;font-weight:normal;font-stretch:normal;text-align:start;line-height:125.00000%;writing-mode:lr-tb;text-anchor:start;fill:#000000;fill-opacity:1.0000000;stroke:none;stroke-width:1.0000000pt;stroke-linecap:butt;stroke-linejoin:miter;stroke-opacity:1.0000000;font-family:Liberation Sans"
   x="3.4846966"
   y="87.178223"
   id="text1665"
   sodipodi:linespacing="125.00000%"><tspan
     sodipodi:role="line"
     id="tspan1667"
     x="3.4846966"
     y="87.178223"><tspan
   style="font-size:10.000000px;font-style:normal;font-variant:normal;font-weight:bold;font-stretch:normal;text-align:start;line-height:125.00000%;writing-mode:lr-tb;text-anchor:start;font-family:Liberation Sans"
   id="tspan1687">unphysical</tspan> — negative d</tspan><tspan
     sodipodi:role="line"
     x="3.4846966"
     y="99.678223"
     id="tspan1677">can be interpreted as</tspan><tspan
     sodipodi:role="line"
     x="3.4846966"
     y="112.17822"
     id="tspan1681">placing the object on the</tspan><tspan
     sodipodi:role="line"
     x="3.4846966"
     y="124.67822"
     id="tspan1683">other side of the mirror, but</tspan><tspan
     sodipodi:role="line"
     x="3.4846966"
     y="137.17822"
     id="tspan1685">then no image is produced</tspan></text>

<text
   xml:space="preserve"
   style="font-size:10.000000px;font-style:normal;font-variant:normal;font-weight:normal;font-stretch:normal;text-align:start;line-height:125.00000%;writing-mode:lr-tb;text-anchor:start;fill:#000000;fill-opacity:1.0000000;stroke:none;stroke-width:1.0000000pt;stroke-linecap:butt;stroke-linejoin:miter;stroke-opacity:1.0000000;overflow:visible;font-family:Liberation Sans"
   x="194.60475"
   y="224.67334"
   id="text1689"
   sodipodi:linespacing="125.00000%"><tspan
     sodipodi:role="line"
     id="tspan1691"
     x="194.60475"
     y="224.67334"><tspan
   style="font-size:10.000000px;font-style:normal;font-variant:normal;font-weight:bold;font-stretch:normal;text-align:start;line-height:125.00000%;writing-mode:lr-tb;text-anchor:start;font-family:Liberation Sans"
   id="tspan1707">virtual image</tspan> — negative d</tspan><tspan
     sodipodi:role="line"
     x="194.60475"
     y="237.17334"
     id="tspan1701">can be interpreted as an</tspan><tspan
     sodipodi:role="line"
     x="194.60475"
     y="249.67334"
     id="tspan1705">image on the far side of</tspan><tspan
     sodipodi:role="line"
     x="194.60475"
     y="262.17334"
     id="tspan1703">the mirror</tspan></text>

<text
   xml:space="preserve"
   style="font-size:10.000000px;font-style:normal;font-variant:normal;font-weight:normal;font-stretch:normal;text-align:start;line-height:125.00000%;writing-mode:lr-tb;text-anchor:start;fill:#000000;fill-opacity:1.0000000;stroke:none;stroke-width:1.0000000pt;stroke-linecap:butt;stroke-linejoin:miter;stroke-opacity:1.0000000;overflow:visible;font-family:Liberation Sans"
   x="269.72455"
   y="66.629128"
   id="text1709"
   sodipodi:linespacing="125.00000%"><tspan
     sodipodi:role="line"
     x="269.72455"
     y="66.629128"
     id="tspan1721"
     style="font-size:10.000000px;font-style:normal;font-variant:normal;font-weight:bold;font-stretch:normal;text-align:start;line-height:125.00000%;writing-mode:lr-tb;text-anchor:start;font-family:Liberation Sans">real image</tspan></text>

</svg>