<?xml version="1.0" encoding="UTF-8" standalone="no"?>
<!-- Generator: Adobe Illustrator 11 Build 196, SVG Export Plug-In . SVG Version: 6.0.0 Build 78)  -->

<svg
   xmlns:dc="http://purl.org/dc/elements/1.1/"
   xmlns:cc="http://creativecommons.org/ns#"
   xmlns:rdf="http://www.w3.org/1999/02/22-rdf-syntax-ns#"
   xmlns:svg="http://www.w3.org/2000/svg"
   xmlns="http://www.w3.org/2000/svg"
   xmlns:sodipodi="http://sodipodi.sourceforge.net/DTD/sodipodi-0.dtd"
   xmlns:inkscape="http://www.inkscape.org/namespaces/inkscape"
   width="63.092"
   height="157.362"
   viewBox="0 0 63.092 157.362"
   style="overflow:visible;enable-background:new 0 0 63.092 157.362"
   xml:space="preserve"
   id="svg2"
   sodipodi:version="0.32"
   sodipodi:docname="hw-funkylenses.svg"
   version="1.1"><metadata
   id="metadata42"><rdf:RDF><cc:Work
       rdf:about=""><dc:format>image/svg+xml</dc:format><dc:type
         rdf:resource="http://purl.org/dc/dcmitype/StillImage" /></cc:Work></rdf:RDF></metadata><defs
   id="defs40"><marker
   inkscape:stockid="Arrow2Mend"
   orient="auto"
   refY="0.0"
   refX="0.0"
   id="Arrow2Mend"
   style="overflow:visible;"><path
     id="path3853"
     style="font-size:12.0;fill-rule:evenodd;stroke-width:0.62500000;stroke-linejoin:round;"
     d="M 8.7185878,4.0337352 L -2.2072895,0.016013256 L 8.7185884,-4.0017078 C 6.9730900,-1.6296469 6.9831476,1.6157441 8.7185878,4.0337352 z "
     transform="scale(0.6) rotate(180) translate(0,0)" /></marker>
		
		
		
		
		
		
		
		
	<marker
   inkscape:stockid="Arrow2Mend"
   orient="auto"
   refY="0"
   refX="0"
   id="Arrow2Mend-0"
   style="overflow:visible"><path
     inkscape:connector-curvature="0"
     id="path3853-6"
     style="font-size:12px;fill-rule:evenodd;stroke-width:0.625;stroke-linejoin:round"
     d="M 8.7185878,4.0337352 -2.2072895,0.01601326 8.7185884,-4.0017078 c -1.7454984,2.3720609 -1.7354408,5.6174519 -6e-7,8.035443 z"
     transform="scale(-0.6,-0.6)" /></marker><marker
   inkscape:stockid="Arrow2Mend"
   orient="auto"
   refY="0"
   refX="0"
   id="Arrow2Mend-9"
   style="overflow:visible"><path
     inkscape:connector-curvature="0"
     id="path3853-2"
     style="font-size:12px;fill-rule:evenodd;stroke-width:0.625;stroke-linejoin:round"
     d="M 8.7185878,4.0337352 -2.2072895,0.01601326 8.7185884,-4.0017078 c -1.7454984,2.3720609 -1.7354408,5.6174519 -6e-7,8.035443 z"
     transform="scale(-0.6,-0.6)" /></marker><marker
   inkscape:stockid="Arrow2Mend"
   orient="auto"
   refY="0"
   refX="0"
   id="Arrow2Mend-6"
   style="overflow:visible"><path
     inkscape:connector-curvature="0"
     id="path3853-4"
     style="font-size:12px;fill-rule:evenodd;stroke-width:0.625;stroke-linejoin:round"
     d="M 8.7185878,4.0337352 -2.2072895,0.01601326 8.7185884,-4.0017078 c -1.7454984,2.3720609 -1.7354408,5.6174519 -6e-7,8.035443 z"
     transform="scale(-0.6,-0.6)" /></marker><marker
   inkscape:stockid="Arrow2Mend"
   orient="auto"
   refY="0"
   refX="0"
   id="Arrow2Mend-5"
   style="overflow:visible"><path
     inkscape:connector-curvature="0"
     id="path3853-0"
     style="font-size:12px;fill-rule:evenodd;stroke-width:0.625;stroke-linejoin:round"
     d="M 8.7185878,4.0337352 -2.2072895,0.01601326 8.7185884,-4.0017078 c -1.7454984,2.3720609 -1.7354408,5.6174519 -6e-7,8.035443 z"
     transform="scale(-0.6,-0.6)" /></marker><marker
   inkscape:stockid="Arrow2Mend"
   orient="auto"
   refY="0"
   refX="0"
   id="Arrow2Mend-8"
   style="overflow:visible"><path
     inkscape:connector-curvature="0"
     id="path3853-7"
     style="font-size:12px;fill-rule:evenodd;stroke-width:0.625;stroke-linejoin:round"
     d="M 8.7185878,4.0337352 -2.2072895,0.01601326 8.7185884,-4.0017078 c -1.7454984,2.3720609 -1.7354408,5.6174519 -6e-7,8.035443 z"
     transform="scale(-0.6,-0.6)" /></marker><marker
   inkscape:stockid="Arrow2Mend"
   orient="auto"
   refY="0"
   refX="0"
   id="Arrow2Mend-7"
   style="overflow:visible"><path
     inkscape:connector-curvature="0"
     id="path3853-27"
     style="font-size:12px;fill-rule:evenodd;stroke-width:0.625;stroke-linejoin:round"
     d="M 8.7185878,4.0337352 -2.2072895,0.01601326 8.7185884,-4.0017078 c -1.7454984,2.3720609 -1.7354408,5.6174519 -6e-7,8.035443 z"
     transform="scale(-0.6,-0.6)" /></marker></defs><sodipodi:namedview
   inkscape:cy="128.11094"
   inkscape:cx="51.724585"
   inkscape:zoom="1.8883735"
   inkscape:window-height="996"
   inkscape:window-width="1280"
   inkscape:pageshadow="2"
   inkscape:pageopacity="0.0"
   borderopacity="1.0"
   bordercolor="#666666"
   pagecolor="#ffffff"
   id="base"
   inkscape:window-x="0"
   inkscape:window-y="0"
   inkscape:current-layer="svg2"
   showgrid="false"
   inkscape:window-maximized="1" />
	<style
   type="text/css"
   id="style4">
	
	</style>
	<g
   id="g4401"
   transform="translate(-0.42096601,0)"><rect
     y="-27.071535"
     x="73.561539"
     height="109.74571"
     width="28.479589"
     id="rect1356-4"
     style="fill:#dedede;fill-opacity:1;fill-rule:evenodd;stroke:none;overflow:visible" /><path
     inkscape:connector-curvature="0"
     style="fill:none;stroke:#000000"
     d="m 85.361346,72.291165 5.130149,0 c 3.936052,-14.345773 6.048392,-29.446318 6.048392,-45.042382 0,-0.08046 -0.0026,-0.160915 -0.0026,-0.241373 0,-0.08046 0.0026,-0.160916 0.0026,-0.241374 0,-15.596063 -2.11234,-30.6966083 -6.048392,-45.042381 l -5.130149,0 c 6.252729,13.813218 9.74307,29.142365 9.771166,45.283755 -0.0281,16.141389 -3.518437,31.470537 -9.771166,45.283755 z"
     id="path11" /><g
     transform="matrix(1.27711,0,0,1.27711,16.655399,-22.85223)"
     id="g19">
			<text
   transform="translate(46.7505,9)"
   id="text21"><tspan
     x="0"
     y="0"
     style="font-size:7.6500001px;font-family:Liberation Sans"
     id="tspan23">2</tspan></text>


		</g></g><g
   id="g4408"
   transform="translate(-0.35965564,0)"><rect
     y="-27.633215"
     x="110.22379"
     height="109.74571"
     width="28.479589"
     id="rect1356-4-9"
     style="fill:#dedede;fill-opacity:1;fill-rule:evenodd;stroke:none;overflow:visible" /><path
     inkscape:connector-curvature="0"
     style="fill:none;stroke:#000000"
     d="m 135.36082,-18.131378 -5.13015,0 c -3.93605,14.345773 -6.04839,29.446318 -6.04839,45.042381 0,0.07407 10e-4,0.146868 0.003,0.219663 l -0.0345,0 c -0.0256,16.149052 -3.51589,31.485862 -9.77117,45.305466 l 5.13015,0 c 3.93605,-14.34705 6.04839,-29.446318 6.04839,-45.042381 0,-0.07407 -0.001,-0.146868 -0.003,-0.219663 l 0.0345,0 c 0.0255,-16.149052 3.51588,-31.4858622 9.77116,-45.305466 z"
     id="path9" /><g
     transform="matrix(1.27711,0,0,1.27711,107.71396,-127.8938)"
     id="g25">
			<text
   transform="translate(7.1504,91.3628)"
   id="text27"><tspan
     x="0"
     y="0"
     style="font-size:7.6500001px;font-family:Liberation Sans"
     id="tspan29">3</tspan></text>


		</g></g><g
   id="g4415"
   transform="translate(2.1980369e-6,0)"><rect
     y="-27.445986"
     x="146.58769"
     height="109.74571"
     width="28.479589"
     id="rect1356-4-2"
     style="fill:#dedede;fill-opacity:1;fill-rule:evenodd;stroke:none;overflow:visible" /><g
     transform="matrix(1.27711,0,0,1.27711,88.67975,-127.8938)"
     id="g31">
			<text
   transform="translate(47.8506,91.3628)"
   id="text33"><tspan
     x="0"
     y="0"
     style="font-size:7.6500001px;font-family:Liberation Sans"
     id="tspan35">4</tspan></text>


		</g><path
     style="fill:none;stroke:#000000"
     d="m 163.47496,55.54508 c -2.46227,-9.054708 -3.80451,-18.571729 -3.86198,-28.392703 0.0575,-9.820973 1.39971,-19.3379948 3.86198,-28.3914253 l -1.09832,0 c 1.53892,-5.6524875 3.51205,-11.1274567 5.88875,-16.3802087 l -5.13015,0 c -1.47378,5.374077 -2.69214,10.852878 -3.63976,16.4249075 l 1.1047,0 C 159.037,8.0136113 158.21454,17.47444 158.20049,27.125558 l 0,0 c 0,0.0089 0,0.01916 0,0.02682 0,0.0089 0,0.01916 0,0.0281 l 0,0 c 0.014,9.651118 0.83651,19.11067 2.39969,28.319908 l -1.1047,0 c 0.94762,5.570752 2.1647,11.05083 3.63976,16.42363 l 5.13015,0 c -2.37797,-5.252752 -4.34983,-10.726444 -5.88875,-16.378931 l 1.09832,0 0,0 z"
     id="path37"
     inkscape:connector-curvature="0" /></g>
<g
   id="g4387"><rect
     y="-27.279341"
     x="2.9255247"
     height="109.74571"
     width="61.971073"
     id="rect1356"
     style="fill:#dedede;fill-opacity:1;fill-rule:evenodd;stroke:none" /><path
     inkscape:connector-curvature="0"
     style="fill:none;stroke:#000000"
     d="m 59.736143,-18.276345 -5.13015,0 c -3.936052,14.3457727 -6.048391,29.446318 -6.048391,45.042381 0,0.08046 0.0026,0.160916 0.0026,0.241374 0,0.08046 -0.0026,0.160916 -0.0026,0.241373 0,15.594787 2.112339,30.695332 6.048391,45.042382 l 5.13015,0 C 53.483414,58.477947 49.993073,43.148799 49.964977,27.00741 c 0.0281,-16.14139 3.518437,-31.470537 9.771166,-45.283755 z"
     id="path7" /><g
     transform="matrix(1.27711,0,0,1.27711,7.641334,-22.469022)"
     id="g13">
			<text
   transform="translate(0,9)"
   id="text15"><tspan
     x="0"
     y="0"
     style="font-size:7.6500001px;font-family:Liberation Sans"
     id="tspan17">1</tspan></text>


		</g><path
     inkscape:connector-curvature="0"
     id="path3053"
     d="m 21.486912,27.526482 22.279944,0"
     style="color:#000000;fill:none;stroke:#000000;stroke-width:0.625;stroke-linecap:butt;stroke-linejoin:miter;stroke-miterlimit:4;stroke-opacity:1;stroke-dasharray:none;stroke-dashoffset:0;marker:none;marker-end:url(#Arrow2Mend);visibility:visible;display:inline;overflow:visible;enable-background:accumulate" /><path
     sodipodi:nodetypes="cc"
     inkscape:connector-curvature="0"
     id="path3053-8"
     d="m 21.486912,13.890155 23.216075,0"
     style="color:#000000;fill:none;stroke:#000000;stroke-width:0.625;stroke-linecap:butt;stroke-linejoin:miter;stroke-miterlimit:4;stroke-opacity:1;stroke-dasharray:none;stroke-dashoffset:0;marker:none;marker-end:url(#Arrow2Mend);visibility:visible;display:inline;overflow:visible;enable-background:accumulate" /><path
     sodipodi:nodetypes="cc"
     inkscape:connector-curvature="0"
     id="path3053-6"
     d="m 21.486912,0.25383857 23.777755,0"
     style="color:#000000;fill:none;stroke:#000000;stroke-width:0.625;stroke-linecap:butt;stroke-linejoin:miter;stroke-miterlimit:4;stroke-opacity:1;stroke-dasharray:none;stroke-dashoffset:0;marker:none;marker-end:url(#Arrow2Mend);visibility:visible;display:inline;overflow:visible;enable-background:accumulate" /><path
     sodipodi:nodetypes="cc"
     inkscape:connector-curvature="0"
     id="path3053-9"
     d="m 21.486912,-13.382484 27.709509,0"
     style="color:#000000;fill:none;stroke:#000000;stroke-width:0.625;stroke-linecap:butt;stroke-linejoin:miter;stroke-miterlimit:4;stroke-opacity:1;stroke-dasharray:none;stroke-dashoffset:0;marker:none;marker-end:url(#Arrow2Mend);visibility:visible;display:inline;overflow:visible;enable-background:accumulate" /><path
     sodipodi:nodetypes="cc"
     inkscape:connector-curvature="0"
     id="path3053-9-4"
     d="m 21.486912,68.435459 27.709508,0"
     style="color:#000000;fill:none;stroke:#000000;stroke-width:0.625;stroke-linecap:butt;stroke-linejoin:miter;stroke-miterlimit:4;stroke-opacity:1;stroke-dasharray:none;stroke-dashoffset:0;marker:none;marker-end:url(#Arrow2Mend);visibility:visible;display:inline;overflow:visible;enable-background:accumulate" /><path
     sodipodi:nodetypes="cc"
     inkscape:connector-curvature="0"
     id="path3053-6-1"
     d="m 21.486912,54.799136 23.777755,0"
     style="color:#000000;fill:none;stroke:#000000;stroke-width:0.625;stroke-linecap:butt;stroke-linejoin:miter;stroke-miterlimit:4;stroke-opacity:1;stroke-dasharray:none;stroke-dashoffset:0;marker:none;marker-end:url(#Arrow2Mend);visibility:visible;display:inline;overflow:visible;enable-background:accumulate" /><path
     sodipodi:nodetypes="cc"
     inkscape:connector-curvature="0"
     id="path3053-8-2"
     d="m 21.486912,41.162813 23.216075,0"
     style="color:#000000;fill:none;stroke:#000000;stroke-width:0.625;stroke-linecap:butt;stroke-linejoin:miter;stroke-miterlimit:4;stroke-opacity:1;stroke-dasharray:none;stroke-dashoffset:0;marker:none;marker-end:url(#Arrow2Mend);visibility:visible;display:inline;overflow:visible;enable-background:accumulate" /></g></svg>