<?xml version="1.0" encoding="iso-8859-1"?>
<!-- Generator: Adobe Illustrator 11 Build 196, SVG Export Plug-In . SVG Version: 6.0.0 Build 78)  -->
<!DOCTYPE svg PUBLIC "-//W3C//DTD SVG 1.0//EN"    "http://www.w3.org/TR/2001/REC-SVG-20010904/DTD/svg10.dtd" [
	<!ENTITY ns_flows "http://ns.adobe.com/Flows/1.0/">
	<!ENTITY ns_svg "http://www.w3.org/2000/svg">
	<!ENTITY ns_xlink "http://www.w3.org/1999/xlink">
]>
<svg
	 width="92.306" height="91.418" viewBox="0 0 92.306 91.418" style="overflow:visible;enable-background:new 0 0 92.306 91.418"
	 xml:space="preserve">
	<g id="Layer_1">
		<g>
			<path style="fill:#DCDCDC;stroke:#000000;" d="M44.867,11.215v13.897H33.614v36.96h11.253V75.97
				c0,5.918,3.206,10.715,7.16,10.715h29.125c3.954,0,7.16-4.797,7.16-10.715V11.215c0-5.918-3.206-10.715-7.16-10.715H52.027
				C48.073,0.5,44.867,5.297,44.867,11.215z"/>
			<circle style="stroke:#000000;" cx="71.343" cy="70.612" r="8.514"/> 
			<circle style="stroke:#000000;" cx="71.343" cy="16.013" r="8.514"/> 
			<line style="stroke:#000000;" x1="80.513" y1="71.033" x2="80.513" y2="15.873"/>
		</g>
		<line style="fill:none;" x1="92.306" y1="91.418" x2="92.306" y2="3.219"/>
		<path style="fill:#FFFFFF;stroke:#000000;" d="M34.893,60.518c2.648-5.061,4.147-10.818,4.147-16.926
			c0-6.107-1.5-11.864-4.147-16.925c-2.648,5.061-4.147,10.818-4.147,16.925C30.746,49.7,32.245,55.457,34.893,60.518z"/>
		<line style="stroke:#000000;" x1="80.134" y1="55.533" x2="0.134" y2="33.283"/>
		<line style="stroke:#000000;" x1="80.134" y1="30.47" x2="0.134" y2="52.72"/>
	</g>
</svg>
