<?xml version="1.0" encoding="UTF-8" standalone="no"?>
<!-- Generator: Adobe Illustrator 11 Build 196, SVG Export Plug-In . SVG Version: 6.0.0 Build 78)  -->
<svg
   xmlns:dc="http://purl.org/dc/elements/1.1/"
   xmlns:cc="http://web.resource.org/cc/"
   xmlns:rdf="http://www.w3.org/1999/02/22-rdf-syntax-ns#"
   xmlns:svg="http://www.w3.org/2000/svg"
   xmlns="http://www.w3.org/2000/svg"
   xmlns:sodipodi="http://inkscape.sourceforge.net/DTD/sodipodi-0.dtd"
   xmlns:inkscape="http://www.inkscape.org/namespaces/inkscape"
   width="336.952"
   height="270.163"
   viewBox="0 0 336.952 270.163"
   style="overflow:visible;enable-background:new 0 0 336.952 270.163"
   xml:space="preserve"
   id="svg2"
   sodipodi:version="0.32"
   sodipodi:docname="hw-parabolic-mirror.svg"
   sodipodi:docbase="/home/bcrowell/Documents/writing/lm/trunk/5op/ch01/figs"><metadata
   id="metadata34"><rdf:RDF><cc:Work
       rdf:about=""><dc:format>image/svg+xml</dc:format><dc:type
         rdf:resource="http://purl.org/dc/dcmitype/StillImage" /></cc:Work></rdf:RDF></metadata><defs
   id="defs32" /><sodipodi:namedview
   inkscape:cy="141.65338"
   inkscape:cx="194.62944"
   inkscape:zoom="1.1062998"
   inkscape:window-height="510"
   inkscape:window-width="712"
   inkscape:pageshadow="2"
   inkscape:pageopacity="0.0"
   borderopacity="1.0"
   bordercolor="#666666"
   pagecolor="#ffffff"
   id="base"
   inkscape:window-x="137"
   inkscape:window-y="137"
   inkscape:current-layer="svg2" />
	<rect
   style="fill:#dedede;fill-opacity:1.0000000;fill-rule:evenodd;stroke:none;stroke-width:1.0000000pt;stroke-linecap:butt;stroke-linejoin:miter;stroke-opacity:1.0000000"
   id="rect1332"
   width="357.04608"
   height="272.07816"
   x="-9.0391426"
   y="-0.10731961" /><g
   id="Layer_1">
		<g
   id="g5">
			<path
   style="fill:none;stroke:#000000;"
   d="M0.5,135.082c0,16.875,5.25,27,10.5,36s20.25,27,37.875,40.125s33,24,57.375,36.75     s29.625,15.375,43.875,21.75"
   id="path7" />
			<path
   style="fill:none;stroke:#000000;"
   d="M0.5,135.082c0-16.875,5.25-27,10.5-36s20.25-27,37.875-40.125s33-24,57.375-36.75     s29.625-15.375,43.875-21.75"
   id="path9" />
		</g>
		<g
   id="g11">
			<line
   style="fill:none;stroke:#000000;"
   x1="316.702"
   y1="135.082"
   x2="211.702"
   y2="135.082"
   id="line13" />
			<path
   d="M209.438,135.082c1.065-0.395,2.386-1.069,3.205-1.783l-0.645,1.783l0.645,1.783     C211.825,136.151,210.503,135.477,209.438,135.082z"
   id="path15" />
		</g>
		<g
   id="g17">
			<line
   style="fill:none;stroke:#000000;"
   x1="316.702"
   y1="219.213"
   x2="211.702"
   y2="219.213"
   id="line19" />
			<path
   d="M209.438,219.213c1.065-0.395,2.386-1.069,3.205-1.783l-0.645,1.783l0.645,1.783     C211.825,220.283,210.503,219.608,209.438,219.213z"
   id="path21" />
		</g>
		<g
   id="g23">
			<line
   style="fill:none;stroke:#000000;"
   x1="316.702"
   y1="97.213"
   x2="211.702"
   y2="97.213"
   id="line25" />
			<path
   d="M209.438,97.213c1.065-0.395,2.386-1.069,3.205-1.783l-0.645,1.783l0.645,1.783     C211.825,98.283,210.503,97.609,209.438,97.213z"
   id="path27" />
		</g>
		<line
   style="fill:none;stroke:#000000;stroke-dasharray:2;"
   x1="0.125"
   y1="135.082"
   x2="336.952"
   y2="135.082"
   id="line29" />
	</g>
</svg>