<?xml version="1.0" encoding="iso-8859-1"?>
<!-- Generator: Adobe Illustrator 11 Build 196, SVG Export Plug-In . SVG Version: 6.0.0 Build 78)  -->
<!DOCTYPE svg PUBLIC "-//W3C//DTD SVG 1.0//EN"    "http://www.w3.org/TR/2001/REC-SVG-20010904/DTD/svg10.dtd" [
	<!ENTITY ns_flows "http://ns.adobe.com/Flows/1.0/">
	<!ENTITY ns_svg "http://www.w3.org/2000/svg">
	<!ENTITY ns_xlink "http://www.w3.org/1999/xlink">
]>
<svg
	 width="146.664" height="95.423" viewBox="0 0 146.664 95.423" style="overflow:visible;enable-background:new 0 0 146.664 95.423"
	 xml:space="preserve">
	<style type="text/css">
	
	</style>
	<g id="Layer_1">
		<path style="fill:none;stroke:#000000;" d="M131,95.171c8.096-13.831,12.736-29.931,12.736-47.115
			c0-17.468-4.795-33.816-13.141-47.8"/>
		<line style="fill:none;stroke:#000000;stroke-width:0.5;" x1="0.105" y1="62.065" x2="131.034" y2="1.493"/>
		<g>
			<line style="fill:none;stroke:#000000;stroke-width:0.5;" x1="130.896" y1="1.617" x2="64.77" y2="55.944"/>
			<path d="M63.3,57.152c0.48-0.824,0.979-1.966,1.129-2.866l0.532,1.501l1.369,0.813C65.419,56.574,64.202,56.841,63.3,57.152z"/>
		</g>
		<g>
			<line style="fill:none;stroke:#000000;stroke-width:0.5;" x1="71.393" y1="15.983" x2="132.713" y2="92.213"/>
			<path d="M70.204,14.503c0.819,0.489,1.956,0.999,2.854,1.159l-1.507,0.517l-0.827,1.361
				C70.76,16.628,70.506,15.408,70.204,14.503z"/>
		</g>
		<line style="fill:none;stroke:#000000;stroke-width:0.5;" x1="132.713" y1="92.213" x2="0.105" y2="62.065"/>
		<g>
			<polyline style="fill:none;stroke:#000000;stroke-width:0.5;" points="0.833,61.973 141.481,67.398 68.121,25.397 "/>
			<path d="M66.581,24.514c0.878,0.146,2.04,0.202,2.875,0.035l-1.133,0.962l-0.256,1.465
				C67.788,26.171,67.151,25.198,66.581,24.514z"/>
		</g>
		<circle cx="111.888" cy="66.323" r="1.386"/> 
		<circle cx="88.123" cy="36.853" r="1.386"/> 
		<circle cx="73.196" cy="28.347" r="1.386"/> 
		<circle cx="79.198" cy="25.478" r="1.386"/> 
		<g>
			<text transform="matrix(1 0 0 1 78.5195 22.3916)"><tspan x="0" y="0" style="font-family:Liberation Sans; font-size:7.650000;">1</tspan></text>
		</g>
		<g>
			<text transform="matrix(1 0 0 1 69.8394 37.2319)"><tspan x="0" y="0" style="font-family:Liberation Sans; font-size:7.650000;">2</tspan></text>
		</g>
		<g>
			<text transform="matrix(1 0 0 1 93.7798 38.772)"><tspan x="0" y="0" style="font-family:Liberation Sans; font-size:7.650000;">3</tspan></text>
		</g>
		<g>
			<text transform="matrix(1 0 0 1 107.0796 74.8921)"><tspan x="0" y="0" style="font-family:Liberation Sans; font-size:7.650000;">4</tspan></text>
		</g>
		<line style="fill:none;" x1="146.664" y1="36.736" x2="146.664" y2="55.986"/>
	</g>
</svg>
