<?xml version="1.0" encoding="UTF-8" standalone="no"?>
<!-- Generator: Adobe Illustrator 11 Build 196, SVG Export Plug-In . SVG Version: 6.0.0 Build 78)  -->
<svg
   xmlns:dc="http://purl.org/dc/elements/1.1/"
   xmlns:cc="http://web.resource.org/cc/"
   xmlns:rdf="http://www.w3.org/1999/02/22-rdf-syntax-ns#"
   xmlns:svg="http://www.w3.org/2000/svg"
   xmlns="http://www.w3.org/2000/svg"
   xmlns:sodipodi="http://inkscape.sourceforge.net/DTD/sodipodi-0.dtd"
   xmlns:inkscape="http://www.inkscape.org/namespaces/inkscape"
   width="136.663"
   height="82"
   viewBox="0 0 136.663 82"
   style="overflow:visible;enable-background:new 0 0 136.663 82"
   xml:space="preserve"
   id="svg2"
   sodipodi:version="0.32"
   sodipodi:docname="hw-soldier.svg"
   sodipodi:docbase="/home/bcrowell/Documents/writing/lm/trunk/5op/ch03/figs"><metadata
   id="metadata72"><rdf:RDF><cc:Work
       rdf:about=""><dc:format>image/svg+xml</dc:format><dc:type
         rdf:resource="http://purl.org/dc/dcmitype/StillImage" /></cc:Work></rdf:RDF></metadata><defs
   id="defs70">
		
		
		
		
		
		
		
		
	
			
			
			
			
			
		
			
			
			
			
			
		</defs><sodipodi:namedview
   inkscape:cy="40.883700"
   inkscape:cx="105.37630"
   inkscape:zoom="4.3379198"
   inkscape:window-height="996"
   inkscape:window-width="1278"
   inkscape:pageshadow="2"
   inkscape:pageopacity="0.0"
   borderopacity="1.0"
   bordercolor="#666666"
   pagecolor="#ffffff"
   id="base"
   inkscape:window-x="0"
   inkscape:window-y="0"
   inkscape:current-layer="svg2" />
	<style
   type="text/css"
   id="style4">
	
	</style>
	<rect
   style="fill:#dedede;fill-opacity:1.0000000;fill-rule:evenodd;stroke:none;stroke-width:1.0000000pt;stroke-linecap:butt;stroke-linejoin:miter;stroke-opacity:1.0000000"
   id="rect1370"
   width="184.25198"
   height="116.30437"
   x="3.2370801"
   y="-13.357691" /><path
   id="path7"
   d="M 26.375000,52.280000 C 41.768000,69.740000 64.302000,80.755000 89.408000,80.755000 C 114.51400,80.755000 137.04800,69.740000 152.44100,52.280000"
   style="fill:none;stroke:#000000" /><g
   id="g9"
   transform="translate(26.00000,6.154799e-15)">
			<path
   id="path11"
   d="M 126.44200,52.424000 C 114.19800,38.536000 97.436000,28.726000 78.455000,25.294000"
   style="fill:none;stroke:#000000" />
			<path
   id="path13"
   d="M 48.363000,25.294000 C 29.383000,28.727000 12.620000,38.537000 0.37600000,52.424000"
   style="fill:none;stroke:#000000" />
		</g><g
   id="g17"
   transform="translate(26.00000,6.154799e-15)"
   style="fill:#a9a9a9;fill-opacity:1.0000000">
				<path
   style="fill:#a9a9a9;stroke:#000000;stroke-width:0.30000001;fill-opacity:1.0000000"
   d="M 64.536000,64.905000 L 62.417000,64.905000 C 61.674000,64.905000 61.072000,65.507000 61.072000,66.250000 L 61.072000,71.312000 C 61.072000,71.979000 61.557000,72.530000 62.194000,72.637000 C 62.011000,72.776000 61.891000,72.993000 61.891000,73.241000 L 61.891000,78.240000 C 61.891000,78.659000 62.231000,78.999000 62.650000,78.999000 C 63.069000,78.999000 63.410000,78.659000 63.410000,78.240000 L 63.410000,73.240000 C 63.410000,73.004000 63.300000,72.796000 63.131000,72.657000 L 63.823000,72.657000 C 63.654000,72.796000 63.544000,73.004000 63.544000,73.240000 L 63.544000,78.239000 C 63.544000,78.658000 63.884000,78.998000 64.303000,78.998000 C 64.722000,78.998000 65.062000,78.658000 65.062000,78.239000 L 65.062000,73.240000 C 65.062000,72.992000 64.942000,72.775000 64.759000,72.636000 C 65.395000,72.529000 65.881000,71.977000 65.881000,71.311000 L 65.881000,66.250000 C 65.881000,65.507000 65.279000,64.905000 64.536000,64.905000 z "
   id="path19" />
				<path
   style="fill:#a9a9a9;stroke:#000000;stroke-width:0.30000001;fill-opacity:1.0000000"
   d="M 60.322000,65.502000 C 59.920000,65.502000 59.594000,65.828000 59.594000,66.230000 L 59.594000,68.888000 C 59.594000,69.290000 59.920000,69.616000 60.322000,69.616000 C 60.724000,69.616000 61.050000,69.290000 61.050000,68.888000 L 61.050000,66.230000 C 61.050000,65.828000 60.724000,65.502000 60.322000,65.502000 z "
   id="path21" />
				<path
   style="fill:#a9a9a9;stroke:#000000;stroke-width:0.30000001;fill-opacity:1.0000000"
   d="M 66.559000,65.755000 C 66.192000,65.755000 65.895000,66.053000 65.895000,66.420000 L 65.895000,71.609000 C 65.895000,71.976000 66.192000,72.274000 66.559000,72.274000 C 66.926000,72.274000 67.224000,71.977000 67.224000,71.609000 L 67.224000,66.420000 C 67.224000,66.053000 66.926000,65.755000 66.559000,65.755000 z "
   id="path23" />
			</g><path
   style="fill:#a9a9a9;stroke:#000000;stroke-width:0.30000001;fill-opacity:1.0000000"
   d="M 91.664000,80.187000 C 92.097000,80.187000 92.447000,79.836000 92.447000,79.404000 L 92.447000,79.404000 C 92.447000,78.972000 92.096000,78.621000 91.664000,78.621000 L 87.155000,78.621000 C 86.722000,78.621000 86.372000,78.972000 86.372000,79.404000 L 86.372000,79.404000 C 86.372000,79.837000 86.723000,80.187000 87.155000,80.187000 L 91.664000,80.187000 z "
   id="path25" /><path
   style="fill:none;stroke:#000000;stroke-width:0.30000001"
   d="M 89.409000,64.806000 C 90.160000,64.806000 90.769000,64.197000 90.769000,63.446000 L 90.769000,62.750000 C 90.769000,61.999000 90.160000,61.390000 89.409000,61.390000 L 89.409000,61.390000 C 88.658000,61.390000 88.048000,61.999000 88.048000,62.750000 L 88.048000,63.446000 C 88.048000,64.197000 88.658000,64.806000 89.409000,64.806000 L 89.409000,64.806000 z "
   id="path27" /><path
   style="fill:#b4b4b4;stroke:#000000;stroke-width:0.30000001"
   d="M 90.528000,58.296000 L 90.528000,56.500000 C 90.528000,56.273000 90.344000,56.089000 90.117000,56.089000 C 89.889000,56.089000 89.705000,56.273000 89.705000,56.500000 L 89.705000,57.781000 C 89.609000,57.761000 89.510000,57.750000 89.409000,57.750000 C 88.622000,57.750000 87.985000,58.388000 87.985000,59.174000 L 87.985000,60.376000 C 87.985000,61.163000 88.622000,61.800000 89.409000,61.800000 C 90.195000,61.800000 90.833000,61.163000 90.833000,60.376000 L 90.833000,59.174000 C 90.833000,58.842000 90.719000,58.538000 90.528000,58.296000 z "
   id="path29" /><path
   style="fill:#ffffff;stroke:#000000;stroke-width:0.30000001"
   d="M 86.694000,70.086000 C 86.833000,70.106000 86.961000,70.009000 86.980000,69.870000 L 88.027000,62.349000 C 88.047000,62.211000 87.950000,62.083000 87.811000,62.063000 L 87.811000,62.063000 C 87.673000,62.044000 87.545000,62.141000 87.525000,62.279000 L 86.478000,69.800000 C 86.459000,69.939000 86.556000,70.067000 86.694000,70.086000 L 86.694000,70.086000 z "
   id="path31" /><g
   id="g35"
   transform="translate(26.00000,6.154799e-15)"
   style="fill:#a9a9a9;fill-opacity:1.0000000">
				<path
   style="fill:#a9a9a9;stroke:#000000;stroke-width:0.30000001;fill-opacity:1.0000000"
   d="M 64.536000,8.9650000 L 62.417000,8.9650000 C 61.674000,8.9650000 61.072000,9.5680000 61.072000,10.311000 L 61.072000,15.372000 C 61.072000,16.039000 61.557000,16.591000 62.194000,16.697000 C 62.011000,16.836000 61.891000,17.053000 61.891000,17.301000 L 61.891000,22.300000 C 61.891000,22.719000 62.231000,23.060000 62.650000,23.060000 C 63.069000,23.060000 63.410000,22.720000 63.410000,22.300000 L 63.410000,17.301000 C 63.410000,17.065000 63.300000,16.857000 63.131000,16.718000 L 63.823000,16.718000 C 63.654000,16.857000 63.544000,17.065000 63.544000,17.301000 L 63.544000,22.300000 C 63.544000,22.719000 63.884000,23.060000 64.303000,23.060000 C 64.722000,23.060000 65.062000,22.720000 65.062000,22.300000 L 65.062000,17.301000 C 65.062000,17.054000 64.942000,16.836000 64.759000,16.697000 C 65.395000,16.591000 65.881000,16.039000 65.881000,15.372000 L 65.881000,10.311000 C 65.881000,9.5680000 65.279000,8.9650000 64.536000,8.9650000 z "
   id="path37" />
				<path
   style="fill:#a9a9a9;stroke:#000000;stroke-width:0.30000001;fill-opacity:1.0000000"
   d="M 60.322000,9.5630000 C 59.920000,9.5630000 59.594000,9.8890000 59.594000,10.291000 L 59.594000,12.949000 C 59.594000,13.351000 59.920000,13.677000 60.322000,13.677000 C 60.724000,13.677000 61.050000,13.351000 61.050000,12.949000 L 61.050000,10.291000 C 61.050000,9.8890000 60.724000,9.5630000 60.322000,9.5630000 z "
   id="path39" />
				<path
   style="fill:#a9a9a9;stroke:#000000;stroke-width:0.30000001;fill-opacity:1.0000000"
   d="M 66.559000,9.8160000 C 66.192000,9.8160000 65.895000,10.113000 65.895000,10.481000 L 65.895000,15.670000 C 65.895000,16.037000 66.192000,16.335000 66.559000,16.335000 C 66.926000,16.335000 67.224000,16.037000 67.224000,15.670000 L 67.224000,10.480000 C 67.224000,10.113000 66.926000,9.8160000 66.559000,9.8160000 z "
   id="path41" />
			</g><path
   style="fill:#a9a9a9;stroke:#000000;stroke-width:0.30000001;fill-opacity:1.0000000"
   d="M 91.664000,24.248000 C 92.097000,24.248000 92.447000,23.897000 92.447000,23.465000 L 92.447000,23.465000 C 92.447000,23.032000 92.096000,22.682000 91.664000,22.682000 L 87.155000,22.682000 C 86.722000,22.682000 86.372000,23.033000 86.372000,23.465000 L 86.372000,23.465000 C 86.372000,23.898000 86.723000,24.248000 87.155000,24.248000 L 91.664000,24.248000 z "
   id="path43" /><path
   style="fill:none;stroke:#000000;stroke-width:0.30000001"
   d="M 89.409000,8.8670000 C 90.160000,8.8670000 90.769000,8.2580000 90.769000,7.5060000 L 90.769000,6.8100000 C 90.769000,6.0590000 90.160000,5.4500000 89.409000,5.4500000 L 89.409000,5.4500000 C 88.658000,5.4500000 88.048000,6.0590000 88.048000,6.8100000 L 88.048000,7.5060000 C 88.048000,8.2570000 88.658000,8.8670000 89.409000,8.8670000 L 89.409000,8.8670000 z "
   id="path45" /><path
   style="fill:#b4b4b4;stroke:#000000;stroke-width:0.30000001"
   d="M 90.528000,2.3560000 L 90.528000,0.56100000 C 90.528000,0.33400000 90.344000,0.15000000 90.117000,0.15000000 C 89.889000,0.15000000 89.705000,0.33400000 89.705000,0.56100000 L 89.705000,1.8420000 C 89.609000,1.8210000 89.510000,1.8110000 89.409000,1.8110000 C 88.622000,1.8110000 87.985000,2.4480000 87.985000,3.2350000 L 87.985000,4.4370000 C 87.985000,5.2240000 88.622000,5.8610000 89.409000,5.8610000 C 90.195000,5.8610000 90.833000,5.2240000 90.833000,4.4370000 L 90.833000,3.2350000 C 90.833000,2.9030000 90.719000,2.5990000 90.528000,2.3560000 z "
   id="path47" /><path
   style="fill:#ffffff;stroke:#000000;stroke-width:0.30000001"
   d="M 86.694000,14.147000 C 86.833000,14.167000 86.961000,14.070000 86.980000,13.931000 L 88.027000,6.4100000 C 88.047000,6.2710000 87.950000,6.1430000 87.811000,6.1240000 L 87.811000,6.1240000 C 87.673000,6.1040000 87.545000,6.2010000 87.525000,6.3400000 L 86.478000,13.861000 C 86.459000,14.000000 86.556000,14.128000 86.694000,14.147000 L 86.694000,14.147000 z "
   id="path49" /><line
   id="line51"
   y2="23.250000"
   x2="161.06000"
   y1="23.250000"
   x1="150.81000"
   style="fill:none;stroke:#000000;stroke-width:0.50000000" /><line
   id="line53"
   y2="81.750000"
   x2="161.06000"
   y1="81.750000"
   x1="150.81000"
   style="fill:none;stroke:#000000;stroke-width:0.50000000" /><g
   id="g55"
   transform="translate(26.00000,6.154799e-15)">
			<line
   id="line57"
   y2="78.348000"
   x2="129.93500"
   y1="26.652000"
   x1="129.93500"
   style="fill:none;stroke:#000000;stroke-width:0.50000000" />
			<path
   id="path59"
   d="M 129.93500,81.305000 C 129.41800,79.913000 128.53800,78.187000 127.60500,77.117000 L 129.93500,77.960000 L 132.26500,77.117000 C 131.33200,78.187000 130.45100,79.913000 129.93500,81.305000 z " />
			<path
   id="path61"
   d="M 129.93500,23.695000 C 130.45100,25.087000 131.33200,26.813000 132.26500,27.883000 L 129.93500,27.040000 L 127.60500,27.883000 C 128.53700,26.813000 129.41800,25.087000 129.93500,23.695000 z " />
		</g><g
   id="g63"
   transform="translate(26.00000,6.154799e-15)">
			<text
   id="text65"
   transform="translate(131.1011,56.75000)"><tspan
     id="tspan67"
     style="font-size:8.5000000px;font-family:Liberation Sans"
     y="0"
     x="0">h</tspan></text>

		</g>
</svg>