<?xml version="1.0" encoding="UTF-8" standalone="no"?>
<!-- Created with Inkscape (http://www.inkscape.org/) -->

<svg
   xmlns:dc="http://purl.org/dc/elements/1.1/"
   xmlns:cc="http://creativecommons.org/ns#"
   xmlns:rdf="http://www.w3.org/1999/02/22-rdf-syntax-ns#"
   xmlns:svg="http://www.w3.org/2000/svg"
   xmlns="http://www.w3.org/2000/svg"
   xmlns:xlink="http://www.w3.org/1999/xlink"
   xmlns:sodipodi="http://sodipodi.sourceforge.net/DTD/sodipodi-0.dtd"
   xmlns:inkscape="http://www.inkscape.org/namespaces/inkscape"
   width="744.09448819"
   height="1052.3622047"
   id="svg2"
   version="1.1"
   sodipodi:docname="jumping-spider.svg">
  <defs
     id="defs4" />
  <sodipodi:namedview
     id="base"
     pagecolor="#ffffff"
     bordercolor="#666666"
     borderopacity="1.0"
     inkscape:pageopacity="0.0"
     inkscape:pageshadow="2"
     inkscape:zoom="1.9308897"
     inkscape:cx="245.17508"
     inkscape:cy="780.91365"
     inkscape:document-units="mm"
     inkscape:current-layer="layer1"
     showgrid="false"
     inkscape:window-width="1280"
     inkscape:window-height="996"
     inkscape:window-x="0"
     inkscape:window-y="0"
     inkscape:window-maximized="1" />
  <metadata
     id="metadata7">
    <rdf:RDF>
      <cc:Work
         rdf:about="">
        <dc:format>image/svg+xml</dc:format>
        <dc:type
           rdf:resource="http://purl.org/dc/dcmitype/StillImage" />
        <dc:title />
      </cc:Work>
    </rdf:RDF>
  </metadata>
  <g
     inkscape:label="Layer 1"
     inkscape:groupmode="layer"
     id="layer1">
    <rect
       style="fill:#dedede;fill-opacity:1;stroke:none"
       id="rect4126"
       width="157.5847"
       height="157.07664"
       x="295.94574"
       y="-13.96597" />
    <path
       style="fill:#dedede;fill-opacity:1;stroke:none"
       d="m 42.614517,154.37221 0,223.07036 411.023623,0 0,-223.07036 -411.023623,0 z"
       id="rect4099-8"
       inkscape:connector-curvature="0" />
    <path
       inkscape:connector-curvature="0"
       style="fill:#9f9f9f;fill-opacity:1;stroke:none"
       d="m 42.614517,154.37221 0,223.09554 300.896133,0 6.81227,-27.77701 16.38966,-173.47402 c -0.28966,-7.23997 -1.14414,-18.14122 -1.43284,-21.84451 l -322.665223,0 z"
       id="rect4099-9-7-0" />
    <path
       style="color:#000000;fill:#cdcdcd;fill-opacity:1;stroke:none;stroke-width:0.625;marker:none;visibility:visible;display:inline;overflow:visible;enable-background:accumulate"
       d="m 203.59949,309.69864 c 0,0 -27.1584,-3.44868 -32.61881,-4.45456 -5.46042,-1.00586 -14.80061,-2.15542 -19.39885,-2.44281 -4.59824,-0.28739 -18.53667,-3.44869 -35.34901,-7.32846 -16.812345,-3.87977 -24.85928,-5.8915 -27.876879,-7.32845 -3.017596,-1.43695 -3.017596,-2.15542 -7.184754,-3.87977 -4.167165,-1.72434 -7.903236,-5.60411 -10.777143,-7.75954 -2.873898,-2.15543 -2.58651,-1.58065 -6.466279,-2.73021 -3.87977,-1.14956 -4.167166,-1.58064 -5.316727,-4.45455 -1.149561,-2.8739 -1.293251,-4.59824 -3.017596,-8.9091 -1.724338,-4.31086 -1.005863,-6.89737 0,-16.81234 2.873906,-12.50148 4.741942,-14.6569 7.903236,-17.6745 3.161295,-3.0176 9.052798,-7.61585 12.070395,-9.19649 3.017596,-1.58065 5.891503,-7.32845 11.064531,-10.77714 5.173023,-3.44868 7.041066,-6.89737 16.812336,-8.9091 9.77127,-2.01173 16.95604,-1.14957 22.41645,-2.15543 5.46042,-1.00586 11.78301,-1.00586 17.38712,-0.71847 5.60411,0.28738 21.69797,0.71847 28.73904,0.28738 7.04106,-0.43108 16.66863,-0.71847 22.56014,-0.71847 5.8915,0 12.78887,0.57478 12.78887,0.57478"
       id="path3874-4-3"
       inkscape:connector-curvature="0" />
    <path
       inkscape:connector-curvature="0"
       style="color:#000000;fill:#ffffff;fill-opacity:1;stroke:none;stroke-width:0.625;marker:none;visibility:visible;display:inline;overflow:visible;enable-background:accumulate"
       d="m 361.97002,172.75845 c -0.28597,0.007 -0.54291,0.0351 -0.8044,0.10055 -2.09192,0.52298 -4.70072,3.13549 -4.70072,10.45721 0,7.32172 -8.37079,15.68581 -8.37079,15.68581 0,0 -10.46524,1.58307 -19.35589,4.19797 -8.89067,2.61489 -25.09527,3.66517 -33.98593,3.14219 -8.89066,-0.52299 -20.91754,-5.76081 -29.28521,-8.89869 -8.36769,-3.13788 -23.53629,-1.05027 -56.48401,-3.14219 l -10.63318,-0.42733 c -23.18786,28.30523 -40.8933,47.58397 -45.48629,55.14532 -4.7597,7.83581 37.19781,54.48961 40.58448,58.17462 0.92474,0.46949 2.13591,1.08723 3.0165,1.53339 l 8.87355,1.15633 c 28.76388,0.52298 48.09981,-1.05578 62.74325,-1.05578 8.64847,0 15.66075,-0.89078 22.74946,-0.45247 l 32.85474,9.30088 7.54125,3.44384 c 3.8481,2.73282 6.33031,4.99244 7.99373,7.59153 8.36769,13.0745 10.4474,18.30874 9.40144,24.5845 -0.16637,0.99819 -0.34719,2.02408 -0.55303,3.04164 l -0.42734,1.08091 1.73449,0.27651 2.18697,-1.96072 26.87201,-13.42344 c 15.6894,-7.8447 31.90323,-31.37189 37.656,-74.25624 5.75279,-42.88435 -28.2553,-97.79596 -47.08257,-93.61213 l -0.0754,0.65358 -1.18146,-0.82954 -0.50275,-0.10055 -0.47761,-0.10055 -0.37707,-0.15083 c 0,0 -2.4224,-1.2045 -4.4242,-1.15632 z m -170.65863,20.81387 c -0.52266,0.22083 -0.92448,0.38822 -1.43284,0.6033 l 5.0275,-0.45248 -3.56952,-0.15082 -0.0251,0 z m 100.77632,115.07957 2.03614,0.42734 4.52475,0.8044 c -0.49118,0.16601 -4.46555,-0.75297 -6.56089,-1.23174 z"
       id="path3940-6-8"
       sodipodi:nodetypes="ccscsssccscccscccsscccccscccccccccccccccccc" />
    <path
       inkscape:connector-curvature="0"
       style="color:#000000;fill:#e7e7e7;fill-opacity:1;stroke:none;stroke-width:0.625;marker:none;visibility:visible;display:inline;overflow:visible;enable-background:accumulate"
       d="m 361.95157,172.74226 c -0.28597,0.007 -0.54289,0.0352 -0.8044,0.10055 -2.09193,0.52298 -4.70076,3.13549 -4.70076,10.45721 0,7.32172 -8.37075,15.68582 -8.37075,15.68582 0,0 -0.22572,0.0463 -0.25138,0.0503 l 0.4022,1.6088 c -10.6752,25.28336 -13.48256,83.15301 -12.92068,96.07561 0.47153,10.84519 4.86348,31.74201 5.4297,34.41326 7.03175,11.25228 8.84382,16.29167 7.868,22.14616 -0.16643,0.9982 -0.34726,2.02408 -0.55294,3.04164 l -0.42738,1.08091 1.73453,0.27652 2.18692,-1.96073 26.87205,-13.42344 c 15.68928,-7.8447 33.79486,-32.18264 37.65594,-74.25623 3.95412,-43.08744 -23.93129,-95.63395 -47.08255,-93.61213 l -0.0756,0.65357 -1.18142,-0.82954 -0.50275,-0.10055 -0.47758,-0.10055 -0.3771,-0.15082 c 0,0 -2.42245,-1.2045 -4.4242,-1.15633 z"
       id="path3940-6-8-4"
       sodipodi:nodetypes="ccscccscccccccscccccccc" />
    <path
       style="color:#000000;fill:none;stroke:#000000;stroke-width:0.625;stroke-linecap:butt;stroke-linejoin:miter;stroke-miterlimit:4;stroke-opacity:1;stroke-dasharray:none;stroke-dashoffset:0;marker:none;visibility:visible;display:inline;overflow:visible;enable-background:accumulate"
       d="m 57.257443,250.13067 c 4.408246,-0.48981 4.212324,-0.68573 5.975623,-1.37146 1.763298,-0.68572 2.253104,-2.15514 4.604168,-2.44903 2.351064,-0.29388 3.526596,-1.86125 7.445037,-0.29388 3.918441,1.56738 8.228726,2.64495 11.559401,3.03679 3.330673,0.39185 10.873675,0.48981 12.049202,0.58777 1.175536,0.098 9.600186,0.39185 12.147166,0.68573 2.54699,0.29388 9.11038,0.29388 10.48183,0.39185 1.37146,0.098 3.5266,-0.19593 5.09397,0.19592 1.56738,0.39184 1.66534,1.27349 0.39185,1.37145 -1.27349,0.098 -8.03281,-0.39185 -9.20834,-0.29389 -1.17553,0.098 -10.28591,-0.58776 -13.42066,-0.88164 -3.13475,-0.29388 -11.853283,-0.098 -16.163564,0.098 -4.310286,0.19592 -12.636972,2.54699 -16.947256,2.44903 -4.310286,-0.098 -4.212324,-1.95923 -7.053194,-2.74291 -2.84087,-0.78369 -5.289895,0 -6.073583,0.098 -0.783688,0.098 -0.88165,-0.88165 -0.88165,-0.88165 z"
       id="path3082-8"
       inkscape:connector-curvature="0" />
    <path
       sodipodi:type="arc"
       style="color:#000000;fill:none;stroke:#000000;stroke-width:0.625;stroke-linecap:butt;stroke-linejoin:miter;stroke-miterlimit:4;stroke-opacity:1;stroke-dasharray:none;stroke-dashoffset:0;marker:none;visibility:visible;display:inline;overflow:visible;enable-background:accumulate"
       id="path3852-3"
       sodipodi:cx="58.881294"
       sodipodi:cy="365.8197"
       sodipodi:rx="3.9578946"
       sodipodi:ry="2.9836435"
       d="m 62.839189,365.8197 a 3.9578946,2.9836435 0 1 1 -7.915789,0 3.9578946,2.9836435 0 1 1 7.915789,0 z"
       transform="matrix(0.80440068,0,0,0.80440068,21.501672,-44.477816)" />
    <path
       style="color:#000000;fill:none;stroke:#000000;stroke-width:0.625;stroke-linecap:butt;stroke-linejoin:miter;stroke-miterlimit:4;stroke-opacity:1;stroke-dasharray:none;stroke-dashoffset:0;marker:none;visibility:visible;display:inline;overflow:visible;enable-background:accumulate"
       d="m 112.41528,241.37102 c 6.85853,0 9.88136,-0.10161 10.59262,0.17781 0.71125,0.27942 1.01608,0.88907 0.43183,1.06688 -0.58425,0.17782 -4.14052,0.30483 -4.97878,0.15242 -0.83827,-0.15242 -4.80097,-0.0254 -5.1566,-0.0254 -0.35563,0 -0.43183,0.30482 -1.16849,0 -0.73666,-0.30483 -0.99067,-0.76206 -0.99067,-0.76206"
       id="path3854-1"
       inkscape:connector-curvature="0" />
    <path
       style="color:#000000;fill:none;stroke:#000000;stroke-width:0.625;stroke-linecap:butt;stroke-linejoin:miter;stroke-miterlimit:4;stroke-opacity:1;stroke-dasharray:none;stroke-dashoffset:0;marker:none;visibility:visible;display:inline;overflow:visible;enable-background:accumulate"
       d="m 110.23071,242.79353 c 1.49872,0.50803 9.50034,0.48263 10.44021,0.38103 0.93987,-0.10161 3.02283,-0.0762 3.45466,0.22861 0.43184,0.30483 0.96528,0.63505 0.58425,1.04148 -0.38103,0.40643 -3.63248,0.60965 -4.39454,0.58424 -0.76206,-0.0254 -7.16335,0.17782 -7.773,0.15242 -0.60964,-0.0254 -2.28618,-0.0762 -2.36238,-0.33023 -0.0762,-0.25401 -0.83826,-0.76206 -0.83826,-0.76206"
       id="path3856-8"
       inkscape:connector-curvature="0" />
    <path
       style="color:#000000;fill:none;stroke:#000000;stroke-width:0.625;stroke-linecap:butt;stroke-linejoin:miter;stroke-miterlimit:4;stroke-opacity:1;stroke-dasharray:none;stroke-dashoffset:0;marker:none;visibility:visible;display:inline;overflow:visible;enable-background:accumulate"
       d="m 109.21463,245.20671 c 3.32766,0 14.73314,-0.17782 15.59681,0.15241 0.86366,0.33023 1.09228,1.01608 0.40643,1.11769 -0.68586,0.10161 -6.4775,-0.20322 -7.06174,-0.20322 -0.58425,0 -7.49358,0.45724 -8.12863,0.35563 -0.63505,-0.10161 -2.03216,-0.71125 -2.03216,-0.71125"
       id="path3858-9"
       inkscape:connector-curvature="0" />
    <path
       style="color:#000000;fill:none;stroke:#000000;stroke-width:0.625;stroke-linecap:butt;stroke-linejoin:miter;stroke-miterlimit:4;stroke-opacity:1;stroke-dasharray:none;stroke-dashoffset:0;marker:none;visibility:visible;display:inline;overflow:visible;enable-background:accumulate"
       d="m 108.42717,247.7215 c 7.7222,0.0508 8.91609,-0.0508 9.62734,0.0508 0.71126,0.10161 2.87043,0.20322 4.39455,0.20322 1.52411,0 2.33698,0.35562 2.87041,0 0.53345,-0.35563 0.78746,-0.66045 0.55885,-0.86367 -0.22862,-0.20322 -1.04148,-0.45724 -1.04148,-0.45724"
       id="path3860-6"
       inkscape:connector-curvature="0" />
    <path
       style="color:#000000;fill:none;stroke:#000000;stroke-width:0.625;stroke-linecap:butt;stroke-linejoin:miter;stroke-miterlimit:4;stroke-opacity:1;stroke-dasharray:none;stroke-dashoffset:0;marker:none;visibility:visible;display:inline;overflow:visible;enable-background:accumulate"
       d="m 125.54809,247.82312 c 0.76206,0.1016 1.19389,0.22861 1.06689,0.68584 -0.12702,0.45724 -0.76206,0.83827 -1.42251,0.76206 -0.66046,-0.0762 -8.9415,-0.35562 -10.00837,-0.35562 -1.06689,0 -5.94406,0.0508 -5.94406,0.0508"
       id="path3862-4"
       inkscape:connector-curvature="0" />
    <path
       style="color:#000000;fill:none;stroke:#000000;stroke-width:0.625;stroke-linecap:butt;stroke-linejoin:miter;stroke-miterlimit:4;stroke-opacity:1;stroke-dasharray:none;stroke-dashoffset:0;marker:none;visibility:visible;display:inline;overflow:visible;enable-background:accumulate"
       d="m 126.10693,249.11861 c 1.1431,-0.0254 1.37172,0.15241 1.34631,0.60965 -0.0254,0.45724 -1.14309,0.99067 -1.14309,0.99067"
       id="path3864-3"
       inkscape:connector-curvature="0" />
    <path
       style="color:#000000;fill:none;stroke:#000000;stroke-width:0.625;stroke-linecap:butt;stroke-linejoin:miter;stroke-miterlimit:4;stroke-opacity:1;stroke-dasharray:none;stroke-dashoffset:0;marker:none;visibility:visible;display:inline;overflow:visible;enable-background:accumulate"
       d="m 127.75806,252.31926 c 0.73666,0.48264 1.2701,1.14309 0.38103,1.2447 -0.88906,0.1016 -5.61383,-0.17782 -6.29968,-0.20322 -0.68585,-0.0254 -5.51223,0.0254 -6.29969,0.0508 -0.78746,0.0254 -4.19132,0.15241 -4.19132,0.15241"
       id="path3866-3"
       inkscape:connector-curvature="0" />
    <path
       style="color:#000000;fill:none;stroke:#000000;stroke-width:0.625;stroke-linecap:butt;stroke-linejoin:miter;stroke-miterlimit:4;stroke-opacity:1;stroke-dasharray:none;stroke-dashoffset:0;marker:none;visibility:visible;display:inline;overflow:visible;enable-background:accumulate"
       d="m 128.16449,253.58936 c 0.78746,0.45724 1.14309,0.86367 0.35563,1.11768 -0.78746,0.25402 -4.54695,0.20322 -5.309,0.20322 -0.76206,0 -5.2074,-0.30482 -5.89326,-0.30482 -0.68586,0 -4.16592,0.20321 -4.16592,0.20321"
       id="path3868-3"
       inkscape:connector-curvature="0" />
    <path
       style="color:#000000;fill:none;stroke:#000000;stroke-width:0.625;stroke-linecap:butt;stroke-linejoin:miter;stroke-miterlimit:4;stroke-opacity:1;stroke-dasharray:none;stroke-dashoffset:0;marker:none;visibility:visible;display:inline;overflow:visible;enable-background:accumulate"
       d="m 128.39311,254.91026 c 0.96528,0.63505 1.2193,1.06688 0.20322,1.19389 -1.01608,0.12701 -5.30901,0.0254 -5.99486,0.0254 -0.68586,0 -5.2074,-0.30482 -5.79165,-0.22862 -0.58425,0.0762 -1.62572,-0.0762 -1.93055,-0.12701 -0.30482,-0.0508 -1.42251,-0.15241 -1.42251,-0.15241"
       id="path3870-8"
       inkscape:connector-curvature="0" />
    <path
       style="color:#000000;fill:none;stroke:#000000;stroke-width:0.625;stroke-linecap:butt;stroke-linejoin:miter;stroke-miterlimit:4;stroke-opacity:1;stroke-dasharray:none;stroke-dashoffset:0;marker:none;visibility:visible;display:inline;overflow:visible;enable-background:accumulate"
       d="m 203.85085,309.59967 c 0,0 -27.15839,-3.44868 -32.61881,-4.45455 -5.46041,-1.00586 -14.8006,-2.15542 -19.39884,-2.44281 -4.59825,-0.2874 -18.53668,-3.44869 -35.34901,-7.32846 -16.81234,-3.87977 -24.859274,-5.89151 -27.87687,-7.32846 -3.017599,-1.43694 -3.017599,-2.15542 -7.184759,-3.87976 -4.16716,-1.72434 -7.903235,-5.60412 -10.777138,-7.75954 -2.873904,-2.15544 -2.586514,-1.58065 -6.466283,-2.73021 -3.87977,-1.14956 -4.167161,-1.58065 -5.316722,-4.45456 -1.149562,-2.87389 -1.293257,-4.59824 -3.017599,-8.90909 -1.724342,-4.31086 -1.005866,-6.89737 0,-16.81234 2.873903,-12.50148 4.741941,-14.65691 7.903235,-17.6745 3.161294,-3.01761 9.052796,-7.61585 12.070395,-9.1965 3.017599,-1.58065 5.891502,-7.32845 11.064529,-10.77713 5.173024,-3.44869 7.041068,-6.89738 16.812332,-8.9091 9.77127,-2.01174 16.95603,-1.14957 22.41645,-2.15543 5.46042,-1.00587 11.78301,-1.00587 17.38711,-0.71848 5.60412,0.28739 21.69798,0.71848 28.73904,0.28739 7.04107,-0.43109 16.66864,-0.71848 22.56015,-0.71848 5.8915,0 12.78886,0.57479 12.78886,0.57479"
       id="path3874-6"
       inkscape:connector-curvature="0" />
    <path
       style="color:#000000;fill:none;stroke:#000000;stroke-width:0.70765901;stroke-linecap:butt;stroke-linejoin:miter;stroke-miterlimit:4;stroke-opacity:1;stroke-dasharray:none;stroke-dashoffset:0;marker:none;visibility:visible;display:inline;overflow:visible;enable-background:accumulate"
       d="m 201.58099,352.50026 97.63513,0"
       id="path3876-0"
       inkscape:connector-curvature="0" />
    <path
       style="color:#000000;fill:none;stroke:#000000;stroke-width:0.625;stroke-linecap:butt;stroke-linejoin:miter;stroke-miterlimit:4;stroke-opacity:1;stroke-dasharray:none;stroke-dashoffset:0;marker:none;visibility:visible;display:inline;overflow:visible;enable-background:accumulate"
       d="m 343.62473,377.39533 0.62491,-2.62461 1.3748,-5.62418 0.9766,-4.59745 c 0,0 1.09208,-5.44699 2.13803,-11.72275 1.04596,-6.27576 -1.51317,-10.94704 -9.78858,-24.08013 -7.27132,-11.53959 -19.0048,-11.46614 -32.9865,-16.23145 -19.71523,-6.71943 -23.34029,-3.48673 -37.98372,-3.48673 -14.64344,0 -34.14875,1.41388 -62.91264,0.8909 l -1.27821,-0.30555 0,0 0,0"
       id="path3940-4"
       inkscape:connector-curvature="0"
       sodipodi:nodetypes="csssscccc" />
    <path
       style="color:#000000;fill:none;stroke:#000000;stroke-width:0.625;stroke-linecap:butt;stroke-linejoin:miter;stroke-miterlimit:4;stroke-opacity:1;stroke-dasharray:none;stroke-dashoffset:0;marker:none;visibility:visible;display:inline;overflow:visible;enable-background:accumulate"
       d="m 365.2584,154.40473 0.88704,15.35559 0.29098,3.50487 c 0,0 -2.94389,-1.4477 -5.0358,-0.92472 -2.09193,0.52298 -5.1918,3.6956 -5.1918,11.01732 0,7.32172 -8.36768,15.6894 -8.36768,15.6894 0,0 -10.4596,1.56894 -19.35025,4.18384 -8.89066,2.6149 -25.10304,3.66086 -33.9937,3.13788 -8.89066,-0.52298 -20.9192,-5.75278 -29.28687,-8.89066 -8.36768,-3.13788 -23.5341,-1.04596 -56.48183,-3.13788 l -1.40808,-0.12064"
       id="path3942-8"
       inkscape:connector-curvature="0"
       sodipodi:nodetypes="cssscssccc" />
    <path
       style="color:#000000;fill:none;stroke:#000000;stroke-width:0.625;stroke-linecap:butt;stroke-linejoin:miter;stroke-miterlimit:4;stroke-opacity:1;stroke-dasharray:none;stroke-dashoffset:0;marker:none;visibility:visible;display:inline;overflow:visible;enable-background:accumulate"
       d="m 366.35972,173.64267 c 19.79722,-3.60187 53.08771,41.07805 49.46881,94.43787 -2.92777,43.16932 -21.96515,66.41845 -37.65455,74.26315 -15.6894,7.8447 -30.09926,15.14336 -30.09926,15.14336"
       id="path3944-8"
       inkscape:connector-curvature="0"
       sodipodi:nodetypes="cssc" />
    <text
       xml:space="preserve"
       style="font-size:10px;font-style:normal;font-variant:normal;font-weight:normal;font-stretch:normal;text-indent:0;text-align:start;text-decoration:none;line-height:125%;letter-spacing:0px;word-spacing:0px;text-transform:none;direction:ltr;block-progression:tb;writing-mode:lr-tb;text-anchor:start;color:#000000;fill:#000000;fill-opacity:1;fill-rule:nonzero;stroke:none;stroke-width:1px;marker:none;visibility:visible;display:inline;overflow:visible;enable-background:accumulate;font-family:FreeSans;-inkscape-font-specification:FreeSans"
       x="111.43968"
       y="311.80533"
       id="text3946-8"
       sodipodi:linespacing="125%"><tspan
         sodipodi:role="line"
         x="111.43968"
         y="311.80533"
         id="tspan4788">tips of one</tspan><tspan
         sodipodi:role="line"
         x="111.43968"
         y="324.30533"
         id="tspan4376">layer of</tspan><tspan
         sodipodi:role="line"
         x="111.43968"
         y="336.80533"
         id="tspan3950-7">retinal cells</tspan></text>
    <text
       xml:space="preserve"
       style="font-size:10px;font-style:normal;font-variant:normal;font-weight:normal;font-stretch:normal;text-indent:0;text-align:start;text-decoration:none;line-height:125%;letter-spacing:0px;word-spacing:0px;text-transform:none;direction:ltr;block-progression:tb;writing-mode:lr-tb;text-anchor:start;color:#000000;fill:#000000;fill-opacity:1;fill-rule:nonzero;stroke:none;stroke-width:1px;marker:none;visibility:visible;display:inline;overflow:visible;enable-background:accumulate;font-family:FreeSans;-inkscape-font-specification:FreeSans"
       x="49.647293"
       y="307.10651"
       id="text4790"
       sodipodi:linespacing="125%"><tspan
         sodipodi:role="line"
         id="tspan4792"
         x="49.647293"
         y="307.10651">body of one</tspan><tspan
         sodipodi:role="line"
         x="49.647293"
         y="319.60651"
         id="tspan4794">retinal cell</tspan></text>
    <text
       xml:space="preserve"
       style="font-size:10px;font-style:normal;font-variant:normal;font-weight:normal;font-stretch:normal;text-indent:0;text-align:start;text-decoration:none;line-height:125%;letter-spacing:0px;word-spacing:0px;text-transform:none;direction:ltr;block-progression:tb;writing-mode:lr-tb;text-anchor:start;color:#000000;fill:#000000;fill-opacity:1;fill-rule:nonzero;stroke:none;stroke-width:1px;marker:none;visibility:visible;display:inline;overflow:visible;enable-background:accumulate;font-family:FreeSans;-inkscape-font-specification:FreeSans"
       x="231.5284"
       y="363.13416"
       id="text4796"
       sodipodi:linespacing="125%"><tspan
         sodipodi:role="line"
         id="tspan4798"
         x="231.5284"
         y="363.13416">200 μm</tspan></text>
    <image
       y="-13.847469"
       x="42.614517"
       id="image3089"
       xlink:href="jumping-spider-bitmaps/cute-spider.jpg"
       height="157.07719"
       width="240.91597" />
    <path
       style="color:#000000;fill:#9f9f9f;fill-opacity:1;stroke:#9f9f9f;stroke-width:0.41757792;stroke-opacity:1;marker:none;visibility:visible;display:inline;overflow:visible;enable-background:accumulate"
       d="m 360.05957,11.752623 c -2.36469,0.234177 -3.79185,2.217443 -4.52475,5.002367 -0.14594,0.554546 -0.19712,0.782802 -0.25138,1.030638 l -4.29852,-0.879813 -6.56089,1.256876 c 0,0 -9.67849,1.396656 -11.08565,1.709352 -1.40706,0.312694 -10.18069,1.106051 -10.18069,1.106051 l 0,61.788027 0.0251,0 0,26.193299 c 0,0 8.77363,0.79335 10.18069,1.10605 1.40716,0.3127 11.08565,1.70935 11.08565,1.70935 l 6.56089,1.25688 4.29852,-0.87982 c 0.0542,0.24784 0.10544,0.4761 0.25137,1.03064 0.73291,2.78493 2.16007,4.76819 4.52476,5.00237 0.15764,0.0156 0.31149,0 0.47761,0 2.65788,0 5.61974,-1.70688 5.93245,-2.48862 0.31268,-0.78173 0.77927,-2.96622 0.77927,-2.96622 0.13523,-0.0918 0.24629,-0.16433 0.37706,-0.25138 l 1.98586,0.0754 3.69522,0.42734 c -0.70638,0.0374 -1.34806,0.0592 -1.91045,0.0754 l 8.47134,0.70385 5.83191,0.67872 1.4077,-0.10055 c 0.14044,0.064 0.34009,0.10055 0.62844,0.10055 0.7971,0 2.15084,-0.91202 2.84054,-1.4077 l 1.10605,0 0.0251,0 3.84604,-0.0754 c -0.65877,-0.11713 -1.36988,-0.22141 -1.98587,-0.22623 l 1.6088,-0.25138 -0.22623,0.2011 c 0.0146,0.0109 0.54729,0.15024 1.08091,0.27651 l -0.47761,0 c 1.01277,0.18009 1.88531,0.4022 1.88531,0.4022 0,0 0.32528,-0.12016 0.87981,-0.27651 l 0.85468,-0.17596 0.0754,-0.0251 7.08878,-0.15082 c -0.0504,-0.0175 -0.0997,-0.034 -0.15082,-0.0503 l 0.57816,-0.55302 c 0.19158,0.0827 0.67871,0.27651 0.67871,0.27651 0,0 6.08387,0.78855 7.49099,-3.74549 1.01781,-3.27958 0.23401,-6.69141 -0.27652,-8.34566 l 0.32679,0.15083 0.10055,-0.42734 0.22624,-0.904953 0.15082,-0.728988 c 0,0 0.16281,-0.79042 0.30165,-1.583664 l -0.0503,0.452476 c 0,0 0.0738,-0.04962 0.0754,-0.05027 l 0,0.07541 4.82641,-2.413202 c 2.51199,-1.255991 5.5391,-4.978363 6.00786,-11.890047 0.43816,-6.460641 -2.49899,-12.121595 -5.32915,-14.252975 -0.47208,-0.355521 -0.93278,-0.633449 -1.38257,-0.779263 -0.18794,-0.06093 -0.37298,-0.104532 -0.55302,-0.125688 -0.10762,-0.01577 -0.22251,-0.02353 -0.32679,-0.02514 -0.10171,-0.0014 -0.20357,0.01243 -0.30165,0.02514 l 0,-0.02514 c 0,0 -0.0608,-0.0187 -0.0754,-0.02514 l -0.0503,-0.578163 -0.15082,-2.438339 0,-0.02514 0.12569,-2.011001 0.0503,-0.578163 c 0.0146,-0.0064 0.0754,-0.02514 0.0754,-0.02514 l 0,-0.02514 c 0.0981,0.01271 0.19994,0.02651 0.30165,0.02514 0.10429,-0.0016 0.21917,-0.0094 0.32679,-0.02514 0.18004,-0.02115 0.36509,-0.06475 0.55303,-0.125687 0.44979,-0.145814 0.91048,-0.423742 1.38256,-0.779263 2.83016,-2.131381 5.76731,-7.792334 5.32916,-14.252975 -0.46877,-6.911684 -3.49588,-10.634056 -6.00787,-11.890047 l -4.82641,-2.413203 0,0.07541 c -0.002,-6.52e-4 -0.0754,-0.05027 -0.0754,-0.05027 l 0.0503,0.452475 c -0.13884,-0.793243 -0.30165,-1.583663 -0.30165,-1.583663 l -0.15083,-0.728989 -0.22624,-0.90495 -0.10055,-0.427338 -0.32678,0.150825 c 0.51052,-1.65425 1.29432,-5.066075 0.27651,-8.345657 -1.40712,-4.534046 -7.49098,-3.745491 -7.49098,-3.745491 0,0 -0.48714,0.193829 -0.67872,0.276513 l -0.57816,-0.553026 c 0.0511,-0.01633 0.10038,-0.03274 0.15083,-0.05027 l -7.08879,-0.150825 -0.0754,-0.02514 -0.85467,-0.175963 c -0.55454,-0.156343 -0.87982,-0.276513 -0.87982,-0.276513 0,0 -0.87254,0.222111 -1.88531,0.402201 l 0.47761,0 c -0.53361,0.126274 -1.06633,0.265573 -1.08091,0.276512 l 0.22624,0.201101 -1.6088,-0.251376 c 0.61598,-0.0048 1.3271,-0.109101 1.98586,-0.226237 l -3.84604,-0.07541 -0.0251,0 -1.10605,0 c -0.68969,-0.49568 -2.04344,-1.407701 -2.84054,-1.407701 -0.28835,0 -0.488,0.0366 -0.62844,0.10055 l -1.4077,-0.10055 -5.8319,0.678713 -8.47135,0.703851 c 0.56239,0.01625 1.20407,0.03801 1.91045,0.07541 l -3.69521,0.427338 -1.98587,0.07541 c -0.13077,-0.08705 -0.24182,-0.15961 -0.37706,-0.251376 0,0 -0.46659,-2.184494 -0.77926,-2.966227 -0.31272,-0.781733 -3.27458,-2.488615 -5.93246,-2.488615 -0.16611,0 -0.31996,-0.0156 -0.47761,0 z m 7.18933,5.454842 4.14769,-0.326787 c -0.54677,-0.01577 -1.05675,-0.02498 -1.48311,0.02514 l -2.66458,0.30165 z m 4.17283,95.849365 -4.14769,-0.32678 2.66458,0.30165 c 0.42636,0.0501 0.93634,0.0409 1.48311,0.0251 z m 28.0032,-95.924777 c 0.71367,0.163655 1.55798,0.333786 2.46347,0.427338 l -1.78476,0.125687 -0.0503,-0.30165 -0.62844,-0.251375 z m 16.4148,16.741589 0.0251,0.326788 c -0.1065,0.581799 -0.44274,1.26796 -1.08092,2.312652 l 0,-0.10055 c 0.70955,-1.166132 1.03969,-1.881743 1.05578,-2.53889 z m 2.2121,28.405399 c 0.0491,0.0024 0.10079,0.03077 0.15083,0.02514 -0.0505,0.0097 -0.0991,0.02224 -0.15083,0.02514 l 0,-0.05027 z m 0.0251,5.329155 c 0.0517,0.0029 0.10031,0.01548 0.15082,0.02514 -0.05,-0.0056 -0.10175,0.02272 -0.15082,0.02514 l 0,-0.05027 z m -3.26788,25.816234 c 0.63818,1.044691 0.97442,1.730853 1.08091,2.312652 l -0.0251,0.326788 c -0.0161,-0.657147 -0.34623,-1.372758 -1.05578,-2.53889 l 0,-0.10055 z m -14.68031,18.828 1.78476,0.12569 c -0.9055,0.0936 -1.7498,0.26368 -2.46347,0.42734 l 0.62843,-0.25138 0.0503,-0.30165 z"
       id="path3874-6-0-6-1-8"
       inkscape:connector-curvature="0" />
    <path
       style="color:#000000;fill:#ffffff;fill-opacity:1;stroke:none;stroke-width:0.51911682;marker:none;visibility:visible;display:inline;overflow:visible;enable-background:accumulate"
       d="m 417.69081,67.805353 c -0.33491,0.08373 -0.82954,0.587375 -0.82954,1.759626 0,1.172258 -1.35743,2.513752 -1.35743,2.513752 0,0 -1.66844,0.260053 -3.09191,0.678713 -1.42344,0.41866 -4.00626,0.586487 -5.42971,0.502751 -1.42346,-0.08373 -3.36099,-0.930443 -4.70071,-1.432839 -1.33972,-0.502396 -3.77436,-0.167819 -9.04951,-0.50275 l -0.17596,0.10055 0,-0.125688 c 0,0 -1.09285,-0.07541 -2.03614,-0.07541 -0.94325,0 -2.49249,0.03153 -3.61981,0.10055 -1.12729,0.069 -3.70294,-0.0042 -4.60016,-0.05027 -0.89727,-0.04601 -1.91603,-0.03536 -2.79027,0.125687 -0.87424,0.161045 -2.03022,0.02984 -3.59466,0.351926 -1.56442,0.322089 -1.86147,0.88068 -2.68972,1.432838 -0.82825,0.552159 -1.27648,1.456286 -1.75962,1.709352 -0.48313,0.253072 -1.42946,0.999979 -1.93559,1.483114 -0.50613,0.48314 -0.79674,0.813834 -1.25688,2.815402 -0.16102,1.587444 -0.27606,1.999522 0,2.689715 0.2761,0.690192 0.29356,0.972707 0.47761,1.432838 0.18405,0.460131 0.23351,0.544934 0.85468,0.728988 0.62117,0.184049 0.57053,0.08224 1.03064,0.427338 0.46014,0.345093 1.06725,0.955663 1.73449,1.231739 0.66718,0.276076 0.64809,0.398375 1.13119,0.628438 0.48314,0.230062 1.78268,0.560288 4.47447,1.181463 2.69176,0.621176 4.91974,1.110291 5.65595,1.156326 0.7362,0.04601 2.24282,0.241156 3.11705,0.402201 0.87428,0.161051 5.20347,0.70385 5.20347,0.70385 l 0.2011,0.05027 c 4.60525,0.08374 7.73562,-0.125687 10.08014,-0.125687 2.34452,0 2.92673,-0.522796 6.08328,0.553025 2.23857,0.762958 4.11471,0.7416 5.27888,2.589165 1.04079,1.651736 1.50853,2.481767 1.58367,3.24274 l -0.12569,1.357426 4.8264,-2.413202 c 2.51199,-1.255987 5.53911,-4.978358 6.00787,-11.890047 0.5779,-8.521161 -4.72062,-15.668144 -7.89318,-15.132788 l 0,-0.05027 c 0,0 -0.46946,-0.234561 -0.8044,-0.150825 z"
       id="path3874-6-0-6"
       inkscape:connector-curvature="0" />
    <path
       style="color:#000000;fill:none;stroke:#000000;stroke-width:0.41757792;stroke-linecap:butt;stroke-linejoin:miter;stroke-miterlimit:4;stroke-opacity:1;stroke-dasharray:none;stroke-dashoffset:0;marker:none;visibility:visible;display:inline;overflow:visible;enable-background:accumulate"
       d="m 392.37025,89.760163 c 0,0 -4.34822,-0.552152 -5.2225,-0.713203 -0.87423,-0.161045 -2.36967,-0.345093 -3.10588,-0.391107 -0.73621,-0.04604 -2.96782,-0.552158 -5.65957,-1.173334 -2.6918,-0.621175 -3.98016,-0.943271 -4.46331,-1.173333 -0.4831,-0.230063 -0.4831,-0.3451 -1.15028,-0.621176 -0.66724,-0.276076 -1.26538,-0.897258 -1.72552,-1.242351 -0.46011,-0.3451 -0.41413,-0.253079 -1.0353,-0.437127 -0.62117,-0.184055 -0.66719,-0.253072 -0.85124,-0.713203 -0.18406,-0.460131 -0.20705,-0.736213 -0.48314,-1.426406 -0.27606,-0.690193 -0.16102,-1.104317 0,-2.691761 0.46014,-2.001568 0.75923,-2.346667 1.26536,-2.829808 0.50614,-0.483135 1.44943,-1.219348 1.93256,-1.47242 0.48315,-0.253066 0.94326,-1.173327 1.77151,-1.725486 0.82825,-0.552158 1.12734,-1.104316 2.69176,-1.426406 1.56445,-0.322089 2.71478,-0.184055 3.58902,-0.345099 0.87424,-0.161045 1.88654,-0.161045 2.78381,-0.115031 0.89722,0.04603 3.47399,0.115031 4.60128,0.04603 1.12731,-0.06902 2.66878,-0.115031 3.61203,-0.115031 0.94328,0 2.04759,0.09202 2.04759,0.09202"
       id="path3874-6-0"
       inkscape:connector-curvature="0" />
    <path
       style="color:#000000;fill:none;stroke:#000000;stroke-width:0.41757792;stroke-linecap:butt;stroke-linejoin:miter;stroke-miterlimit:4;stroke-opacity:1;stroke-dasharray:none;stroke-dashoffset:0;marker:none;visibility:visible;display:inline;overflow:visible;enable-background:accumulate"
       d="m 414.74894,100.6147 0.10008,-0.42023 0.22009,-0.900462 0.15638,-0.736087 c 0,0 0.17486,-0.872096 0.3423,-1.876882 0.16747,-1.004793 -0.24226,-1.752692 -1.5672,-3.855386 -1.16417,-1.847565 -3.04278,-1.835807 -5.28135,-2.598765 -3.15655,-1.075821 -3.73693,-0.558245 -6.08145,-0.558245 -2.34452,0 -5.46746,0.226375 -10.07271,0.142638 l -0.20466,-0.04891 0,0 0,0"
       id="path3940-4-1"
       inkscape:connector-curvature="0"
       sodipodi:nodetypes="csssscccc" />
    <path
       style="color:#000000;fill:none;stroke:#000000;stroke-width:0.41757792;stroke-linecap:butt;stroke-linejoin:miter;stroke-miterlimit:4;stroke-opacity:1;stroke-dasharray:none;stroke-dashoffset:0;marker:none;visibility:visible;display:inline;overflow:visible;enable-background:accumulate"
       d="m 418.21265,64.912447 0.14204,2.458525 0.0466,0.561151 c 0,0 -0.47135,-0.231786 -0.8063,-0.14805 -0.33491,0.08373 -0.83123,0.591692 -0.83123,1.763943 0,1.172258 -1.33972,2.511975 -1.33972,2.511975 0,0 -1.67463,0.251202 -3.0981,0.669862 -1.42344,0.41866 -4.01915,0.586126 -5.4426,0.502389 -1.42346,-0.08373 -3.34932,-0.921049 -4.68904,-1.423446 -1.33971,-0.502396 -3.76796,-0.167465 -9.0431,-0.502396 l -0.22543,-0.01931"
       id="path3942-8-5"
       inkscape:connector-curvature="0"
       sodipodi:nodetypes="cssscssccc" />
    <path
       style="color:#000000;fill:none;stroke:#000000;stroke-width:0.41757792;stroke-linecap:butt;stroke-linejoin:miter;stroke-miterlimit:4;stroke-opacity:1;stroke-dasharray:none;stroke-dashoffset:0;marker:none;visibility:visible;display:inline;overflow:visible;enable-background:accumulate"
       d="m 418.389,67.992562 c 3.16966,-0.576685 8.49967,6.576865 7.92028,15.120121 -0.46877,6.91169 -3.51678,10.634026 -6.02877,11.890013 -2.51196,1.255988 -4.81907,2.424552 -4.81907,2.424552"
       id="path3944-8-9"
       inkscape:connector-curvature="0"
       sodipodi:nodetypes="cssc" />
    <path
       style="color:#000000;fill:#ffffff;fill-opacity:1;stroke:#000000;stroke-width:0.41757792;stroke-linecap:butt;stroke-linejoin:miter;stroke-miterlimit:4;stroke-opacity:1;stroke-dasharray:none;stroke-dashoffset:0;marker:none;visibility:visible;display:inline;overflow:visible;enable-background:accumulate"
       d="m 413.29018,99.593802 c -6.4102,-1.094422 -10.16252,-4.221352 -12.35139,-4.534048 -2.18883,-0.312695 -11.56959,-2.18885 -13.2894,-1.094422 -1.71983,1.094422 -6.09753,6.410198 -6.72292,7.817318 -0.62538,1.40713 -0.78172,4.06501 1.09444,5.62848 1.87616,1.56346 7.03558,2.50154 9.69347,2.81423 2.65788,0.3127 8.59906,0.3127 10.47522,0.62539 1.87616,0.31269 5.0031,1.71981 5.0031,1.71981 0,0 6.09748,0.78173 7.5046,-3.75231 1.40714,-4.53405 -0.62539,-9.380796 -0.62539,-9.380796 z"
       id="path4069"
       inkscape:connector-curvature="0" />
    <path
       style="color:#000000;fill:#ffffff;fill-opacity:1;stroke:#000000;stroke-width:0.41757792;stroke-linecap:butt;stroke-linejoin:miter;stroke-miterlimit:4;stroke-opacity:1;stroke-dasharray:none;stroke-dashoffset:0;marker:none;visibility:visible;display:inline;overflow:visible;enable-background:accumulate"
       d="m 390.77632,112.88325 c -0.15638,-1.40712 0.78172,-2.50154 0.15633,-4.3777 -0.62538,-1.87615 -2.81425,-1.87615 -3.75232,-1.25077 -0.93809,0.62538 -0.46904,1.71981 -0.46904,3.28328 0,1.56346 -0.15634,3.43962 -0.15634,3.43962 0,0 -0.15633,0.62538 0.9381,0.62538 1.0944,0 3.28327,-1.71981 3.28327,-1.71981 z"
       id="path4071"
       inkscape:connector-curvature="0" />
    <path
       style="color:#000000;fill:none;stroke:#000000;stroke-width:0.41757792;stroke-linecap:butt;stroke-linejoin:miter;stroke-miterlimit:4;stroke-opacity:1;stroke-dasharray:none;stroke-dashoffset:0;marker:none;visibility:visible;display:inline;overflow:visible;enable-background:accumulate"
       d="m 406.09826,112.88325 c -3.59598,-1.25077 -8.91175,0.62538 -8.91175,0.62538 0,0 -2.3452,-0.62538 -3.90865,-0.62538 -1.56348,0 -2.03253,0.31269 -2.03253,0.31269"
       id="path4073"
       inkscape:connector-curvature="0" />
    <path
       style="color:#000000;fill:#ffffff;fill-opacity:1;stroke:#000000;stroke-width:0.41757792;stroke-linecap:butt;stroke-linejoin:miter;stroke-miterlimit:4;stroke-opacity:1;stroke-dasharray:none;stroke-dashoffset:0;marker:none;visibility:visible;display:inline;overflow:visible;enable-background:accumulate"
       d="m 386.0859,114.44671 c -8.91174,-2.34519 -13.7585,-0.93808 -16.41638,-1.25077 -2.65789,-0.31269 -2.65789,-0.31269 -2.65789,-0.31269 4.37771,-2.97058 6.41021,-3.43962 6.41021,-3.43962 0,0 -0.46906,-4.53405 -1.87616,-6.25385 -1.40711,-1.71982 -4.22137,-6.097523 -6.25382,-6.879256 -2.03254,-0.781726 -4.37774,-1.563465 -7.03563,-0.625385 -2.65788,0.93808 -5.78481,2.345198 -7.03558,3.908663 -1.25078,1.563468 -2.65789,5.003088 -2.81423,6.410208 -0.15634,1.40712 -0.31271,2.97058 1.40711,3.12692 1.71982,0.15635 4.84676,1.87616 5.15943,2.6579 0.31268,0.78173 -0.46905,-1.40712 0.31268,1.56346 0.78176,2.97058 2.3452,5.00309 5.00313,5.00309 2.65787,0 5.62843,-1.71982 5.94115,-2.50155 0.31267,-0.78173 0.78171,-2.97058 0.78171,-2.97058"
       id="path4075"
       inkscape:connector-curvature="0" />
    <path
       style="color:#000000;fill:none;stroke:#000000;stroke-width:0.41757792;stroke-linecap:butt;stroke-linejoin:miter;stroke-miterlimit:4;stroke-opacity:1;stroke-dasharray:none;stroke-dashoffset:0;marker:none;visibility:visible;display:inline;overflow:visible;enable-background:accumulate"
       d="m 355.28564,112.25786 -4.53405,0.93808 -6.56653,-1.25076 c 0,0 -9.69347,-1.40712 -11.10063,-1.71982 -1.40706,-0.31269 -10.16247,-1.09443 -10.16247,-1.09443"
       id="path4077"
       inkscape:connector-curvature="0" />
    <path
       style="color:#000000;fill:#ffffff;fill-opacity:1;stroke:none;stroke-width:0.51911682;marker:none;visibility:visible;display:inline;overflow:visible;enable-background:accumulate"
       d="m 417.694,62.06767 c -0.33491,-0.08373 -0.82954,-0.587375 -0.82954,-1.759627 0,-1.172258 -1.35742,-2.513752 -1.35742,-2.513752 0,0 -1.66844,-0.260053 -3.09192,-0.678713 -1.42343,-0.41866 -4.00626,-0.586487 -5.4297,-0.502751 -1.42347,0.08373 -3.361,0.930443 -4.70072,1.432839 -1.33971,0.502397 -3.77436,0.16782 -9.04951,0.502751 l -0.17596,-0.100551 0,0.125688 c 0,0 -1.09285,0.07541 -2.03614,0.07541 -0.94325,0 -2.49249,-0.03153 -3.6198,-0.10055 -1.1273,-0.069 -3.70295,0.0043 -4.60017,0.05027 -0.89727,0.04601 -1.91602,0.03536 -2.79026,-0.125688 -0.87424,-0.161045 -2.03022,-0.02984 -3.59467,-0.351925 -1.56442,-0.32209 -1.86146,-0.880681 -2.68971,-1.432839 -0.82825,-0.552158 -1.27648,-1.456285 -1.75963,-1.709351 -0.48313,-0.253073 -1.42945,-0.99998 -1.93559,-1.483114 -0.50613,-0.483141 -0.79673,-0.813835 -1.25688,-2.815403 -0.16102,-1.587443 -0.27606,-1.999522 0,-2.689714 0.2761,-0.690193 0.29356,-0.972708 0.47762,-1.432839 0.18404,-0.460131 0.23351,-0.544933 0.85467,-0.728988 0.62118,-0.184049 0.57053,-0.08224 1.03064,-0.427338 0.46014,-0.345093 1.06726,-0.955663 1.73449,-1.231739 0.66719,-0.276076 0.64809,-0.398375 1.13119,-0.628438 0.48315,-0.230061 1.78268,-0.560288 4.47448,-1.181463 2.69176,-0.621176 4.91973,-1.11029 5.65594,-1.156326 0.7362,-0.04601 2.24282,-0.241156 3.11705,-0.4022 0.87428,-0.161052 5.20347,-0.703851 5.20347,-0.703851 l 0.2011,-0.05027 c 4.60525,-0.08374 7.73562,0.125687 10.08015,0.125687 2.34452,0 2.92673,0.522797 6.08328,-0.553025 2.23856,-0.762958 4.11471,-0.7416 5.27888,-2.589165 1.04079,-1.651736 1.50852,-2.481767 1.58366,-3.24274 l -0.12569,-1.357426 4.82641,2.413202 c 2.51199,1.255987 5.5391,4.978358 6.00786,11.890048 0.5779,8.521161 -4.72061,15.668143 -7.89318,15.132787 l 0,0.05027 c 0,0 -0.46945,0.234561 -0.8044,0.150826 z"
       id="path3874-6-0-6-1"
       inkscape:connector-curvature="0" />
    <path
       style="color:#000000;fill:none;stroke:#000000;stroke-width:0.41757792;stroke-linecap:butt;stroke-linejoin:miter;stroke-miterlimit:4;stroke-opacity:1;stroke-dasharray:none;stroke-dashoffset:0;marker:none;visibility:visible;display:inline;overflow:visible;enable-background:accumulate"
       d="m 392.37345,40.112859 c 0,0 -4.34822,0.552152 -5.2225,0.713204 -0.87423,0.161044 -2.36968,0.345092 -3.10588,0.391106 -0.73621,0.04604 -2.96782,0.552158 -5.65958,1.173334 -2.6918,0.621175 -3.98016,0.943272 -4.46331,1.173333 -0.48309,0.230063 -0.48309,0.3451 -1.15028,0.621176 -0.66724,0.276076 -1.26538,0.897259 -1.72552,1.242351 -0.46011,0.3451 -0.41412,0.253079 -1.0353,0.437128 -0.62116,0.184055 -0.66719,0.253071 -0.85124,0.713202 -0.18405,0.460131 -0.20704,0.736213 -0.48314,1.426406 -0.27606,0.690194 -0.16102,1.104317 0,2.691761 0.46014,2.001568 0.75924,2.346668 1.26537,2.829809 0.50613,0.483134 1.44942,1.219347 1.93255,1.47242 0.48315,0.253065 0.94326,1.173327 1.77151,1.725485 0.82825,0.552158 1.12734,1.104316 2.69177,1.426406 1.56444,0.322089 2.71478,0.184055 3.58901,0.345099 0.87424,0.161045 1.88654,0.161045 2.78381,0.115032 0.89722,-0.04604 3.47399,-0.115032 4.60128,-0.04604 1.12732,0.06903 2.66878,0.115031 3.61203,0.115031 0.94329,0 2.04759,-0.09202 2.04759,-0.09202"
       id="path3874-6-0-2"
       inkscape:connector-curvature="0" />
    <path
       style="color:#000000;fill:none;stroke:#000000;stroke-width:0.41757792;stroke-linecap:butt;stroke-linejoin:miter;stroke-miterlimit:4;stroke-opacity:1;stroke-dasharray:none;stroke-dashoffset:0;marker:none;visibility:visible;display:inline;overflow:visible;enable-background:accumulate"
       d="m 414.75213,29.258326 0.10008,0.420223 0.2201,0.900466 0.15637,0.736086 c 0,0 0.17486,0.872096 0.3423,1.876882 0.16747,1.004793 -0.24225,1.752692 -1.5672,3.855387 -1.16417,1.847565 -3.04278,1.835806 -5.28135,2.598764 -3.15655,1.075821 -3.73692,0.558245 -6.08144,0.558245 -2.34453,0 -5.46747,-0.226374 -10.07272,-0.142638 l -0.20466,0.04891 0,0 0,0"
       id="path3940-4-1-9"
       inkscape:connector-curvature="0"
       sodipodi:nodetypes="csssscccc" />
    <path
       style="color:#000000;fill:none;stroke:#000000;stroke-width:0.41757792;stroke-linecap:butt;stroke-linejoin:miter;stroke-miterlimit:4;stroke-opacity:1;stroke-dasharray:none;stroke-dashoffset:0;marker:none;visibility:visible;display:inline;overflow:visible;enable-background:accumulate"
       d="m 418.21585,64.960575 0.14203,-2.458525 0.0466,-0.561151 c 0,0 -0.47136,0.231786 -0.8063,0.148049 -0.33492,-0.08373 -0.83124,-0.59169 -0.83124,-1.763942 0,-1.172258 -1.33972,-2.511975 -1.33972,-2.511975 0,0 -1.67463,-0.251201 -3.0981,-0.669861 -1.42344,-0.418661 -4.01915,-0.586126 -5.44259,-0.50239 -1.42347,0.08373 -3.34933,0.92105 -4.68905,1.423446 -1.33971,0.502397 -3.76795,0.167465 -9.0431,0.502397 l -0.22543,0.01931"
       id="path3942-8-5-3"
       inkscape:connector-curvature="0"
       sodipodi:nodetypes="cssscssccc" />
    <path
       style="color:#000000;fill:none;stroke:#000000;stroke-width:0.41757792;stroke-linecap:butt;stroke-linejoin:miter;stroke-miterlimit:4;stroke-opacity:1;stroke-dasharray:none;stroke-dashoffset:0;marker:none;visibility:visible;display:inline;overflow:visible;enable-background:accumulate"
       d="m 418.39219,61.880461 c 3.16967,0.576685 8.49967,-6.576866 7.92028,-15.120122 -0.46876,-6.91169 -3.51677,-10.634026 -6.02877,-11.890013 -2.51195,-1.255987 -4.81907,-2.424552 -4.81907,-2.424552"
       id="path3944-8-9-9"
       inkscape:connector-curvature="0"
       sodipodi:nodetypes="cssc" />
    <path
       style="color:#000000;fill:#ffffff;fill-opacity:1;stroke:#000000;stroke-width:0.41757792;stroke-linecap:butt;stroke-linejoin:miter;stroke-miterlimit:4;stroke-opacity:1;stroke-dasharray:none;stroke-dashoffset:0;marker:none;visibility:visible;display:inline;overflow:visible;enable-background:accumulate"
       d="m 413.29337,30.27922 c -6.41019,1.094422 -10.16251,4.221352 -12.35138,4.534048 -2.18883,0.312696 -11.56959,2.18885 -13.28941,1.094422 -1.71982,-1.094422 -6.09753,-6.410202 -6.72292,-7.81732 -0.62538,-1.407123 -0.78172,-4.065003 1.09444,-5.628475 1.87616,-1.563465 7.03559,-2.501539 9.69347,-2.814235 2.65789,-0.312696 8.59907,-0.312696 10.47523,-0.625385 1.87616,-0.312689 5.00309,-1.719812 5.00309,-1.719812 0,0 6.09748,-0.781733 7.5046,3.752314 1.40714,4.534048 -0.62539,9.380791 -0.62539,9.380791 z"
       id="path4069-0"
       inkscape:connector-curvature="0" />
    <path
       style="color:#000000;fill:#ffffff;fill-opacity:1;stroke:#000000;stroke-width:0.41757792;stroke-linecap:butt;stroke-linejoin:miter;stroke-miterlimit:4;stroke-opacity:1;stroke-dasharray:none;stroke-dashoffset:0;marker:none;visibility:visible;display:inline;overflow:visible;enable-background:accumulate"
       d="m 390.77951,16.989774 c -0.15637,1.407117 0.78173,2.501539 0.15634,4.377699 -0.62539,1.876154 -2.81426,1.876154 -3.75232,1.250769 -0.9381,-0.625384 -0.46905,-1.719812 -0.46905,-3.283278 0,-1.563458 -0.15634,-3.439619 -0.15634,-3.439619 0,0 -0.15633,-0.625384 0.9381,-0.625384 1.0944,0 3.28327,1.719813 3.28327,1.719813 z"
       id="path4071-8"
       inkscape:connector-curvature="0" />
    <path
       style="color:#000000;fill:none;stroke:#000000;stroke-width:0.41757792;stroke-linecap:butt;stroke-linejoin:miter;stroke-miterlimit:4;stroke-opacity:1;stroke-dasharray:none;stroke-dashoffset:0;marker:none;visibility:visible;display:inline;overflow:visible;enable-background:accumulate"
       d="m 406.10145,16.989774 c -3.59597,1.250769 -8.91174,-0.625385 -8.91174,-0.625385 0,0 -2.34521,0.625385 -3.90866,0.625385 -1.56348,0 -2.03253,-0.312696 -2.03253,-0.312696"
       id="path4073-8"
       inkscape:connector-curvature="0" />
    <path
       style="color:#000000;fill:#ffffff;fill-opacity:1;stroke:#000000;stroke-width:0.41757792;stroke-linecap:butt;stroke-linejoin:miter;stroke-miterlimit:4;stroke-opacity:1;stroke-dasharray:none;stroke-dashoffset:0;marker:none;visibility:visible;display:inline;overflow:visible;enable-background:accumulate"
       d="m 386.08909,15.426308 c -8.91174,2.345198 -13.75849,0.938081 -16.41638,1.25077 -2.65788,0.312696 -2.65788,0.312696 -2.65788,0.312696 4.37771,2.970582 6.4102,3.439619 6.4102,3.439619 0,0 -0.46905,4.534047 -1.87616,6.253854 -1.4071,1.71982 -4.22136,6.097519 -6.25382,6.879251 -2.03253,0.781726 -4.37774,1.563466 -7.03563,0.625386 -2.65788,-0.938081 -5.78481,-2.345198 -7.03558,-3.908664 -1.25077,-1.563465 -2.65789,-5.003091 -2.81423,-6.410208 -0.15633,-1.407117 -0.3127,-2.970582 1.40711,-3.126923 1.71982,-0.156348 4.84676,-1.876161 5.15943,-2.657894 0.31268,-0.781732 -0.46905,1.407118 0.31268,-1.563465 0.78176,-2.970583 2.34521,-5.003084 5.00313,-5.003084 2.65788,0 5.62843,1.719812 5.94115,2.501545 0.31267,0.781733 0.78172,2.970583 0.78172,2.970583"
       id="path4075-5"
       inkscape:connector-curvature="0" />
    <path
       style="color:#000000;fill:none;stroke:#000000;stroke-width:0.41757792;stroke-linecap:butt;stroke-linejoin:miter;stroke-miterlimit:4;stroke-opacity:1;stroke-dasharray:none;stroke-dashoffset:0;marker:none;visibility:visible;display:inline;overflow:visible;enable-background:accumulate"
       d="m 355.28883,17.615158 -4.53405,-0.93808 -6.56653,1.250769 c 0,0 -9.69347,1.407117 -11.10062,1.719813 -1.40707,0.312696 -10.16248,1.094429 -10.16248,1.094429"
       id="path4077-0"
       inkscape:connector-curvature="0" />
    <text
       xml:space="preserve"
       style="font-size:10px;font-style:normal;font-variant:normal;font-weight:normal;font-stretch:normal;text-indent:0;text-align:start;text-decoration:none;line-height:125%;letter-spacing:0px;word-spacing:0px;text-transform:none;direction:ltr;block-progression:tb;writing-mode:lr;text-anchor:start;color:#000000;fill:#000000;fill-opacity:1;fill-rule:nonzero;stroke:none;stroke-width:1px;marker:none;visibility:visible;display:inline;overflow:visible;enable-background:accumulate;font-family:FreeSans;-inkscape-font-specification:FreeSans"
       x="401.75836"
       y="351.89212"
       id="text3035"
       sodipodi:linespacing="125%"><tspan
         sodipodi:role="line"
         id="tspan3037"
         x="401.75836"
         y="351.89212">air</tspan></text>
    <text
       xml:space="preserve"
       style="font-size:10px;font-style:normal;font-variant:normal;font-weight:normal;font-stretch:normal;text-indent:0;text-align:start;text-decoration:none;line-height:125%;letter-spacing:0px;word-spacing:0px;text-transform:none;direction:ltr;block-progression:tb;writing-mode:lr-tb;text-anchor:start;color:#000000;fill:#000000;fill-opacity:1;fill-rule:nonzero;stroke:none;stroke-width:1px;marker:none;visibility:visible;display:inline;overflow:visible;enable-background:accumulate;font-family:FreeSans;-inkscape-font-specification:FreeSans"
       x="362.95419"
       y="260.1424"
       id="text3039"
       sodipodi:linespacing="125%"><tspan
         sodipodi:role="line"
         id="tspan3041"
         x="362.95419"
         y="260.1424">lens</tspan><tspan
         sodipodi:role="line"
         x="362.95419"
         y="272.6424"
         id="tspan3043">n=1.41</tspan></text>
    <path
       style="color:#000000;fill:none;stroke:#000000;stroke-width:0.625;stroke-linecap:butt;stroke-linejoin:miter;stroke-miterlimit:4;stroke-opacity:1;stroke-dasharray:none;stroke-dashoffset:0;marker:none;visibility:visible;display:inline;overflow:visible;enable-background:accumulate"
       d="m 348.04101,199.08809 c -9.8737,38.93073 -10.58801,52.64173 -11.89104,71.8868 -0.91936,13.57841 0.81075,40.80791 1.89175,46.21294 1.081,5.40501 2.43226,13.51255 2.43226,13.51255"
       id="path3884"
       inkscape:connector-curvature="0"
       sodipodi:nodetypes="cssc" />
    <text
       xml:space="preserve"
       style="font-size:10px;font-style:normal;font-variant:normal;font-weight:normal;font-stretch:normal;text-indent:0;text-align:start;text-decoration:none;line-height:125%;letter-spacing:0px;word-spacing:0px;text-transform:none;direction:ltr;block-progression:tb;writing-mode:lr;text-anchor:start;color:#000000;fill:#000000;fill-opacity:1;fill-rule:nonzero;stroke:none;stroke-width:1px;marker:none;visibility:visible;display:inline;overflow:visible;enable-background:accumulate;font-family:FreeSans;-inkscape-font-specification:FreeSans"
       x="242.53761"
       y="256.51501"
       id="text3886"
       sodipodi:linespacing="125%"><tspan
         sodipodi:role="line"
         id="tspan3888"
         x="242.53761"
         y="256.51501">n≈1.33</tspan></text>
    <path
       style="color:#000000;fill:none;stroke:#000000;stroke-width:0.625;stroke-linecap:butt;stroke-linejoin:miter;stroke-miterlimit:4;stroke-opacity:1;stroke-dasharray:1.00550085, 0.50275043;stroke-dashoffset:0;marker:none;visibility:visible;display:inline;overflow:visible;enable-background:accumulate"
       d="m 134.6278,239.75334 -9.80746,3.20803 6.23277,10.99902 6.87439,0.91658 -2.74976,5.22453 5.22454,3.02473 1.83316,-1.64985 2.10815,0.0917 0,-8.06594 -4.8579,-0.0917 0.82493,-6.69107 -1.64985,-4.12462 z"
       id="path3952"
       inkscape:connector-curvature="0" />
    <path
       style="color:#000000;fill:none;stroke:#000000;stroke-width:0.625;stroke-linecap:butt;stroke-linejoin:miter;stroke-miterlimit:4;stroke-opacity:1;stroke-dasharray:1.00550085, 0.50275043;stroke-dashoffset:0;marker:none;visibility:visible;display:inline;overflow:visible;enable-background:accumulate"
       d="m 139.57735,233.70388 -3.48302,5.77448 3.66634,3.75799 1.83317,4.21629 3.02473,0.82493 -0.4583,-5.86614 -1.00824,-7.69931 z"
       id="path3954"
       inkscape:connector-curvature="0" />
    <path
       style="color:#000000;fill:none;stroke:#000000;stroke-width:0.625;stroke-linecap:butt;stroke-linejoin:miter;stroke-miterlimit:4;stroke-opacity:1;stroke-dasharray:1.00550085, 0.50275043;stroke-dashoffset:0;marker:none;visibility:visible;display:inline;overflow:visible;enable-background:accumulate"
       d="m 159.10059,232.60398 -12.74052,12.28222 -0.91658,12.28223 2.65809,0.4583 1.46654,-2.74976 1.00824,-8.34091 11.82393,-10.63238 0.0917,-2.93307 z"
       id="path3956"
       inkscape:connector-curvature="0" />
    <g
       id="g4160"
       transform="matrix(0.45437901,0,0,0.80440068,114.13287,208.19598)"
       style="stroke-width:0.83158588;stroke-miterlimit:4;stroke-dasharray:none">
      <path
         id="path4162"
         d="M 110.878,31.444 C 106.586,20.475 67.96,29.756 65.277,23.85"
         style="fill:none;stroke:#000000;stroke-width:0.83158588;stroke-miterlimit:4;stroke-dasharray:none"
         inkscape:connector-curvature="0" />
      <path
         id="path4164"
         d="M 19.676,31.444 C 23.968,20.475 62.594,29.756 65.277,23.85"
         style="fill:none;stroke:#000000;stroke-width:0.83158588;stroke-miterlimit:4;stroke-dasharray:none"
         inkscape:connector-curvature="0" />
    </g>
    <text
       xml:space="preserve"
       style="font-size:10px;font-style:normal;font-variant:normal;font-weight:normal;font-stretch:normal;text-indent:0;text-align:start;text-decoration:none;line-height:125%;letter-spacing:0px;word-spacing:0px;text-transform:none;direction:ltr;block-progression:tb;writing-mode:lr-tb;text-anchor:start;color:#000000;fill:#000000;fill-opacity:1;fill-rule:nonzero;stroke:none;stroke-width:1px;marker:none;visibility:visible;display:inline;overflow:visible;enable-background:accumulate;font-family:FreeSans;-inkscape-font-specification:FreeSans"
       x="106.38972"
       y="209.09439"
       id="text4364"
       sodipodi:linespacing="125%"><tspan
         sodipodi:role="line"
         id="tspan4366"
         x="106.38972"
         y="209.09439">three other layers</tspan><tspan
         sodipodi:role="line"
         x="106.38972"
         y="221.59439"
         id="tspan4370">of retinal cells</tspan></text>
    <path
       style="color:#000000;fill:none;stroke:#000000;stroke-width:0.62500000000000000;stroke-linecap:butt;stroke-linejoin:miter;stroke-miterlimit:4;stroke-opacity:1;stroke-dasharray:none;stroke-dashoffset:0;marker:none;visibility:visible;display:inline;overflow:visible;enable-background:accumulate"
       d="M 77.166502,298.30563 70.433854,256.87395"
       id="path4382"
       inkscape:connector-curvature="0" />
    <path
       style="color:#000000;fill:none;stroke:#000000;stroke-width:0.62500000000000000;stroke-linecap:butt;stroke-linejoin:miter;stroke-miterlimit:4;stroke-opacity:1;stroke-dasharray:none;stroke-dashoffset:0;marker:none;visibility:visible;display:inline;overflow:visible;enable-background:accumulate"
       d="m 126.36662,302.96669 1.03579,-43.50326"
       id="path4384"
       inkscape:connector-curvature="0" />
  </g>
</svg>
