<?xml version="1.0" encoding="iso-8859-1"?>
<!-- Generator: Adobe Illustrator 11 Build 196, SVG Export Plug-In . SVG Version: 6.0.0 Build 78)  -->
<!DOCTYPE svg PUBLIC "-//W3C//DTD SVG 1.0//EN"    "http://www.w3.org/TR/2001/REC-SVG-20010904/DTD/svg10.dtd" [
	<!ENTITY ns_flows "http://ns.adobe.com/Flows/1.0/">
	<!ENTITY ns_svg "http://www.w3.org/2000/svg">
	<!ENTITY ns_xlink "http://www.w3.org/1999/xlink">
]>
<svg
	 width="143.924" height="79.8" viewBox="0 0 143.924 79.8" style="overflow:visible;enable-background:new 0 0 143.924 79.8"
	 xml:space="preserve">
	<g id="Layer_1">
		<g>
			<g>
				<rect style="fill:#B4E5F0;" width="143.924" height="79.8"/> 
				<polygon style="fill:#DCF2F7;" points="106.365,0 0,61.46 0,79.8 2.439,79.8 140.543,0 "/>
				<polygon style="fill:#DCF2F7;" points="53.708,79.8 143.924,27.67 143.924,17.795 36.618,79.8 "/>
			</g>
			<ellipse style="fill:#FFFFFF;stroke:#000000;stroke-width:0.5;" cx="71.962" cy="39.9" rx="63.48" ry="26.198"/> 
		</g>
		<line style="fill:#FFFFFF;stroke:#000000;stroke-width:0.5;" x1="71.962" y1="13.876" x2="71.962" y2="65.923"/>
		<line style="fill:#FFFFFF;stroke:#000000;stroke-width:0.5;" x1="8.541" y1="39.9" x2="135.384" y2="39.9"/>
		<circle cx="71.962" cy="39.9" r="1.679"/> 
		<g>
			<g>
				<path d="M103.367,39.899c-1.349,0.5-3.022,1.355-4.06,2.259l0.817-2.259l-0.817-2.258
					C100.344,38.545,102.018,39.399,103.367,39.899z"/>
				<path d="M89.287,39.9c1.349-0.5,3.022-1.354,4.06-2.259L92.53,39.9l0.817,2.258C92.31,41.254,90.636,40.4,89.287,39.9z"/>
			</g>
			<g>
				<path d="M54.637,39.899c-1.349,0.5-3.022,1.355-4.06,2.259l0.817-2.259l-0.817-2.258C51.615,38.545,53.289,39.399,54.637,39.899
					z"/>
				<path d="M40.557,39.9c1.349-0.5,3.023-1.354,4.06-2.259L43.8,39.9l0.817,2.258C43.58,41.254,41.906,40.4,40.557,39.9z"/>
			</g>
		</g>
		<g>
			<g>
				<path d="M71.962,19.984c0.5,1.349,1.355,3.022,2.259,4.06l-2.259-0.817l-2.258,0.817C70.607,23.006,71.462,21.333,71.962,19.984
					z"/>
				<path d="M71.962,34.064c-0.5-1.349-1.354-3.022-2.259-4.06l2.259,0.817l2.258-0.817C73.317,31.042,72.462,32.715,71.962,34.064z
					"/>
			</g>
			<g>
				<path d="M71.962,45.735c0.5,1.349,1.355,3.023,2.259,4.06l-2.259-0.817l-2.258,0.817C70.607,48.758,71.462,47.084,71.962,45.735
					z"/>
				<path d="M71.962,59.815c-0.5-1.349-1.354-3.022-2.259-4.06l2.259,0.817l2.258-0.817C73.317,56.793,72.462,58.467,71.962,59.815z
					"/>
			</g>
		</g>
	</g>
</svg>
