<?xml version="1.0" encoding="iso-8859-1"?>
<!-- Generator: Adobe Illustrator 11 Build 196, SVG Export Plug-In . SVG Version: 6.0.0 Build 78)  -->
<!DOCTYPE svg PUBLIC "-//W3C//DTD SVG 1.0//EN"    "http://www.w3.org/TR/2001/REC-SVG-20010904/DTD/svg10.dtd" [
	<!ENTITY ns_flows "http://ns.adobe.com/Flows/1.0/">
	<!ENTITY ns_svg "http://www.w3.org/2000/svg">
	<!ENTITY ns_xlink "http://www.w3.org/1999/xlink">
]>
<svg
	 width="147.32" height="77.174" viewBox="0 0 147.32 77.174" style="overflow:visible;enable-background:new 0 0 147.32 77.174"
	 xml:space="preserve">
	<style type="text/css">
	
	</style>
	<g id="Layer_1">
		<g>
			<line style="fill:none;stroke:#000000;" x1="51.613" y1="66.48" x2="27.8" y2="12.899"/>
			<g>
				<line style="fill:none;stroke:#000000;" x1="51.806" y1="66.48" x2="73.405" y2="17.88"/>
				<path d="M74.794,14.751c-0.108,1.714,0.012,3.954,0.496,5.523l-2.068-1.986l-2.859-0.204
					C71.851,17.392,73.594,15.98,74.794,14.751z"/>
			</g>
		</g>
		<g>
			<line style="fill:none;stroke:#000000;" x1="86.388" y1="66.346" x2="27.449" y2="12.17"/>
			<g>
				<line style="fill:none;stroke:#000000;" x1="86.382" y1="66.346" x2="139.841" y2="17.207"/>
				<path d="M142.359,14.892c-0.781,1.529-1.562,3.632-1.743,5.264l-1.106-2.645l-2.542-1.325
					C138.609,16.143,140.77,15.542,142.359,14.892z"/>
			</g>
		</g>
		<g>
			<text transform="matrix(1 0 0 1 25.5317 9)"><tspan x="0" y="0" style="font-family:Liberation Sans; font-size:7.650000;">A</tspan></text>
		</g>
		<g>
			<text transform="matrix(1 0 0 1 73.5908 10.0801)"><tspan x="0" y="0" style="font-family:Liberation Sans; font-size:7.650000;">B</tspan></text>
		</g>
		<g>
			<text transform="matrix(1 0 0 1 140.8203 12.7803)"><tspan x="0" y="0" style="font-family:Liberation Sans; font-size:7.650000;">C</tspan></text>
		</g>
		<g>
			<polyline style="fill:none;stroke:#000000;stroke-dasharray:2;" points="27.8,12.899 68.731,66.509 74.73,17.869 "/>
			<path d="M75.146,14.474c0.395,1.671,1.162,3.779,2.081,5.14l-2.556-1.298l-2.795,0.637
				C73.099,17.855,74.355,15.998,75.146,14.474z"/>
		</g>
		<g>
			<polyline style="fill:none;stroke:#000000;stroke-dasharray:2;" points="26.882,11.97 2.582,66.239 138.66,16.56 "/>
			<path d="M141.876,15.389c-1.308,1.113-2.834,2.756-3.627,4.194l-0.009-2.867l-1.84-2.198
				C137.933,15.107,140.159,15.38,141.876,15.389z"/>
		</g>
		
			<linearGradient id="XMLID_24_" gradientUnits="userSpaceOnUse" x1="188.377" y1="-143.2153" x2="188.377" y2="-157.2153" gradientTransform="matrix(0.81 0 0 0.81 -89.3299 193.7639)">
			<stop  offset="0" style="stop-color:#FFFFFF"/>
			<stop  offset="1" style="stop-color:#000000"/>
			<midPointStop  offset="0" style="stop-color:#FFFFFF"/>
			<midPointStop  offset="0.5" style="stop-color:#FFFFFF"/>
			<midPointStop  offset="1" style="stop-color:#000000"/>
		</linearGradient>
		<rect y="66.914" style="fill:url(#XMLID_24_);" width="126.51" height="10.26"/> 
	</g>
</svg>
