<?xml version="1.0" encoding="iso-8859-1"?>
<!-- Generator: Adobe Illustrator 11 Build 196, SVG Export Plug-In . SVG Version: 6.0.0 Build 78)  -->
<!DOCTYPE svg PUBLIC "-//W3C//DTD SVG 1.0//EN"    "http://www.w3.org/TR/2001/REC-SVG-20010904/DTD/svg10.dtd" [
	<!ENTITY ns_flows "http://ns.adobe.com/Flows/1.0/">
	<!ENTITY ns_svg "http://www.w3.org/2000/svg">
	<!ENTITY ns_xlink "http://www.w3.org/1999/xlink">
]>
<svg
	 width="147.5" height="150.285" viewBox="0 0 147.5 150.285" style="overflow:visible;enable-background:new 0 0 147.5 150.285"
	 xml:space="preserve">
	<style type="text/css">
	
	</style>
	<g id="Layer_1">
		<line style="fill:none;stroke:#000000;" x1="52.445" y1="73.905" x2="37.745" y2="40.83"/>
		<g>
			<line style="fill:none;stroke:#000000;" x1="52.595" y1="74.13" x2="79.262" y2="14.13"/>
			<path d="M80.976,10.267c-0.133,2.116,0.015,4.881,0.612,6.819l-2.553-2.452l-3.53-0.251
				C77.343,13.527,79.495,11.784,80.976,10.267z"/>
		</g>
		<g>
			<line style="fill:none;stroke:#000000;" x1="52.533" y1="74.283" x2="79.199" y2="134.283"/>
			<path d="M80.914,138.146c-0.133-2.116,0.015-4.881,0.612-6.819l-2.553,2.452l-3.53,0.251
				C77.281,134.886,79.433,136.629,80.914,138.146z"/>
		</g>
		<g>
			<text transform="matrix(1 0 0 1 34.5 38.7681)"><tspan x="0" y="0" style="font-family:Liberation Sans; font-size:7.650000;">A</tspan></text>
		</g>
		<g>
			<text transform="matrix(1 0 0 1 78.9912 9)"><tspan x="0" y="0" style="font-family:Liberation Sans; font-size:7.650000;">B</tspan></text>
		</g>
		<line style="fill:none;stroke:#000000;" x1="0" y1="74.268" x2="147.5" y2="74.268"/>
		<g>
			<text transform="matrix(1 0 0 1 80 146.2681)"><tspan x="0" y="0" style="font-family:Liberation Sans; font-size:7.650000;">C</tspan></text>
		</g>
		<g>
			<polyline style="fill:none;stroke:#000000;stroke-dasharray:2;" points="38,40.768 18.5,73.768 78,12.268 "/>
			<path d="M80.936,9.232c-0.852,1.941-1.662,4.589-1.768,6.614l-1.555-3.18l-3.229-1.449C76.404,11.046,79.024,10.148,80.936,9.232
				z"/>
		</g>
		<g>
			<line style="fill:none;stroke:#000000;stroke-dasharray:2;" x1="18.5" y1="73.768" x2="75.442" y2="134.03"/>
			<path d="M78.347,137.101c-1.901-0.938-4.51-1.866-6.528-2.062l3.246-1.411l1.592-3.161
				C76.739,132.493,77.518,135.15,78.347,137.101z"/>
		</g>
		<g>
			<text transform="matrix(1 0 0 1 13 82.7681)"><tspan x="0" y="0" style="font-family:Liberation Sans; font-size:7.650000;">P</tspan></text>
		</g>
		<g>
			<text transform="matrix(1 0 0 1 46 81.7681)"><tspan x="0" y="0" style="font-family:Liberation Sans; font-size:7.650000;">Q</tspan></text>
		</g>
	</g>
</svg>
