<?xml version="1.0" encoding="UTF-8" standalone="no"?>
<!-- Created with Inkscape (http://www.inkscape.org/) -->
<svg
   xmlns:dc="http://purl.org/dc/elements/1.1/"
   xmlns:cc="http://creativecommons.org/ns#"
   xmlns:rdf="http://www.w3.org/1999/02/22-rdf-syntax-ns#"
   xmlns:svg="http://www.w3.org/2000/svg"
   xmlns="http://www.w3.org/2000/svg"
   xmlns:xlink="http://www.w3.org/1999/xlink"
   xmlns:sodipodi="http://sodipodi.sourceforge.net/DTD/sodipodi-0.dtd"
   xmlns:inkscape="http://www.inkscape.org/namespaces/inkscape"
   width="744.09448819"
   height="1052.3622047"
   id="svg2"
   sodipodi:version="0.32"
   sodipodi:docname="peaucellier.svg"
   inkscape:output_extension="org.inkscape.output.svg.inkscape">
  <defs
     id="defs4">
    <inkscape:perspective
       sodipodi:type="inkscape:persp3d"
       inkscape:vp_x="0 : 526.18109 : 1"
       inkscape:vp_y="0 : 1000 : 0"
       inkscape:vp_z="744.09448 : 526.18109 : 1"
       inkscape:persp3d-origin="372.04724 : 350.78739 : 1"
       id="perspective10" />
    <inkscape:perspective
       id="perspective2455"
       inkscape:persp3d-origin="372.04724 : 350.78739 : 1"
       inkscape:vp_z="744.09448 : 526.18109 : 1"
       inkscape:vp_y="0 : 1000 : 0"
       inkscape:vp_x="0 : 526.18109 : 1"
       sodipodi:type="inkscape:persp3d" />
  </defs>
  <sodipodi:namedview
     id="base"
     pagecolor="#ffffff"
     bordercolor="#666666"
     borderopacity="1.0"
     gridtolerance="10000"
     guidetolerance="10"
     objecttolerance="10"
     inkscape:pageopacity="0.0"
     inkscape:pageshadow="2"
     inkscape:zoom="1.4701023"
     inkscape:cx="166.39607"
     inkscape:cy="814.64743"
     inkscape:document-units="mm"
     inkscape:current-layer="layer1"
     showgrid="false"
     inkscape:window-width="1278"
     inkscape:window-height="996"
     inkscape:window-x="3"
     inkscape:window-y="3" />
  <metadata
     id="metadata7">
    <rdf:RDF>
      <cc:Work
         rdf:about="">
        <dc:format>image/svg+xml</dc:format>
        <dc:type
           rdf:resource="http://purl.org/dc/dcmitype/StillImage" />
      </cc:Work>
    </rdf:RDF>
  </metadata>
  <g
     inkscape:label="Layer 1"
     inkscape:groupmode="layer"
     id="layer1">
    <g
       id="g3233"
       transform="translate(-0.2248516,0)">
      <rect
         y="106.12684"
         x="35.477001"
         height="148.92084"
         width="262"
         id="rect2461"
         style="fill:#dedede;fill-opacity:1;fill-rule:evenodd;stroke:none;stroke-width:1pt;stroke-linecap:butt;stroke-linejoin:miter;stroke-opacity:1" />
      <path
         id="rect3157"
         d="M 58.886716,177.57798 C 56.34882,178.63272 55.148317,181.54068 56.203059,184.07858 C 57.2578,186.61648 60.169982,187.82711 62.707877,186.77238 C 62.734767,186.7612 62.762386,186.75026 62.788975,186.73867 L 210.84212,125.20829 L 210.9739,125.15352 L 210.96969,125.14339 C 213.41803,124.04427 214.5682,121.18732 213.5317,118.69334 C 212.49522,116.19937 209.66311,115.00936 207.15695,115.96926 L 207.15274,115.95912 L 207.02096,116.01389 L 58.967813,177.54427 C 58.94078,177.55496 58.913666,177.56678 58.886716,177.57798 z"
         style="fill:#ffffff;fill-opacity:1;fill-rule:evenodd;stroke:#000000;stroke-width:1.25;stroke-linecap:butt;stroke-linejoin:miter;stroke-miterlimit:4;stroke-dasharray:none;stroke-opacity:1" />
      <path
         id="path3178"
         d="M 58.886716,187.21033 C 56.34882,186.15559 55.148317,183.24763 56.203059,180.70973 C 57.2578,178.17183 60.169982,176.9612 62.707877,178.01593 C 62.734767,178.02711 62.762386,178.03805 62.788975,178.04964 L 210.84212,239.58002 L 210.9739,239.63479 L 210.96969,239.64492 C 213.41803,240.74404 214.5682,243.60099 213.5317,246.09497 C 212.49522,248.58894 209.66311,249.77895 207.15695,248.81905 L 207.15274,248.82919 L 207.02096,248.77442 L 58.967813,187.24404 C 58.94078,187.23335 58.913666,187.22153 58.886716,187.21033 z"
         style="fill:#ffffff;fill-opacity:1;fill-rule:evenodd;stroke:#000000;stroke-width:1.25;stroke-linecap:butt;stroke-linejoin:miter;stroke-miterlimit:4;stroke-dasharray:none;stroke-opacity:1" />
      <path
         id="path3176"
         d="M 147.57894,186.12526 C 145.74697,184.12462 145.86148,181.01283 147.84062,179.14369 C 149.81975,177.27455 152.92502,177.3455 154.81775,179.28875 C 154.83589,179.30737 154.8526,179.32565 154.87052,179.34462 L 212.87154,240.75879 C 212.88434,240.77234 212.89662,240.78504 212.90923,240.7987 C 214.75687,242.79871 214.65517,245.91443 212.67062,247.78869 C 210.68607,249.66296 207.56162,249.59406 205.67042,247.63521 L 205.63273,247.5953 L 147.6317,186.18112 L 147.57894,186.12526 z"
         style="fill:#ffffff;fill-opacity:1;fill-rule:evenodd;stroke:#000000;stroke-width:1.25;stroke-linecap:butt;stroke-linejoin:miter;stroke-miterlimit:4;stroke-dasharray:none;stroke-opacity:1" />
      <path
         id="path3180"
         d="M 271.39954,186.12526 C 273.23151,184.12461 273.117,181.01283 271.13787,179.14369 C 269.15874,177.27454 266.05347,177.3455 264.16073,179.28875 C 264.14259,179.30737 264.12588,179.32565 264.10796,179.34461 L 206.10694,240.75879 C 206.09415,240.77234 206.08186,240.78504 206.06925,240.7987 C 204.22162,242.79871 204.32332,245.91443 206.30787,247.78869 C 208.29242,249.66296 211.41686,249.59406 213.30806,247.63521 L 213.34575,247.5953 L 271.34678,186.18112 L 271.39954,186.12526 z"
         style="fill:#ffffff;fill-opacity:1;fill-rule:evenodd;stroke:#000000;stroke-width:1.25;stroke-linecap:butt;stroke-linejoin:miter;stroke-miterlimit:4;stroke-dasharray:none;stroke-opacity:1" />
      <text
         sodipodi:linespacing="100%"
         id="text3188"
         y="185.43832"
         x="42.079716"
         style="font-size:10px;font-style:normal;font-variant:normal;font-weight:normal;font-stretch:normal;text-align:start;line-height:100%;writing-mode:lr-tb;text-anchor:start;fill:#000000;fill-opacity:1;stroke:none;stroke-width:1pt;stroke-linecap:butt;stroke-linejoin:miter;stroke-opacity:1;font-family:Liberation Sans;-inkscape-font-specification:Liberation Sans"
         xml:space="preserve"><tspan
           y="185.43832"
           x="42.079716"
           id="tspan3190"
           sodipodi:role="line">O</tspan></text>
      <text
         sodipodi:linespacing="100%"
         id="text3192"
         y="185.43832"
         x="134.40997"
         style="font-size:10px;font-style:normal;font-variant:normal;font-weight:normal;font-stretch:normal;text-align:start;line-height:100%;writing-mode:lr-tb;text-anchor:start;fill:#000000;fill-opacity:1;stroke:none;stroke-width:1pt;stroke-linecap:butt;stroke-linejoin:miter;stroke-opacity:1;font-family:Liberation Sans;-inkscape-font-specification:Liberation Sans"
         xml:space="preserve"><tspan
           y="185.43832"
           x="134.40997"
           id="tspan3194"
           sodipodi:role="line">P</tspan></text>
      <text
         sodipodi:linespacing="100%"
         id="text3196"
         y="185.43832"
         x="279.85052"
         style="font-size:10px;font-style:normal;font-variant:normal;font-weight:normal;font-stretch:normal;text-align:start;line-height:100%;writing-mode:lr-tb;text-anchor:start;fill:#000000;fill-opacity:1;stroke:none;stroke-width:1pt;stroke-linecap:butt;stroke-linejoin:miter;stroke-opacity:1;font-family:Liberation Sans;-inkscape-font-specification:Liberation Sans"
         xml:space="preserve"><tspan
           y="185.43832"
           x="279.85052"
           id="tspan3198"
           sodipodi:role="line">P'</tspan></text>
      <path
         id="rect2383"
         d="M 147.57894,178.66305 C 145.74697,180.66369 145.86148,183.77548 147.84062,185.64462 C 149.81975,187.51376 152.92502,187.44281 154.81775,185.49956 C 154.83589,185.48094 154.8526,185.46266 154.87052,185.44369 L 212.87154,124.02952 C 212.88434,124.01597 212.89662,124.00327 212.90923,123.98961 C 214.75687,121.9896 214.65517,118.87388 212.67062,116.99962 C 210.68607,115.12535 207.56162,115.19425 205.67042,117.1531 L 205.63273,117.19301 L 147.6317,178.60719 L 147.57894,178.66305 z"
         style="fill:#ffffff;fill-opacity:1;fill-rule:evenodd;stroke:#000000;stroke-width:1.25;stroke-linecap:butt;stroke-linejoin:miter;stroke-miterlimit:4;stroke-dasharray:none;stroke-opacity:1" />
      <path
         id="path3167"
         d="M 271.39954,178.66305 C 273.23151,180.6637 273.117,183.77548 271.13787,185.64462 C 269.15874,187.51377 266.05347,187.44281 264.16073,185.49956 C 264.14259,185.48094 264.12588,185.46266 264.10796,185.4437 L 206.10694,124.02952 C 206.09415,124.01597 206.08186,124.00327 206.06925,123.98961 C 204.22162,121.9896 204.32332,118.87388 206.30787,116.99962 C 208.29242,115.12535 211.41686,115.19425 213.30806,117.1531 L 213.34575,117.19301 L 271.34678,178.60719 L 271.39954,178.66305 z"
         style="fill:#ffffff;fill-opacity:1;fill-rule:evenodd;stroke:#000000;stroke-width:1.25;stroke-linecap:butt;stroke-linejoin:miter;stroke-miterlimit:4;stroke-dasharray:none;stroke-opacity:1" />
    </g>
    <image
       y="267.61462"
       x="35.252151"
       id="image2457"
       height="207.4028"
       width="262"
       sodipodi:absref="/home/bcrowell/Documents/writing/books/physics/9share/optics/figs/peaucellier-photo.jpg"
       xlink:href="peaucellier-photo.jpg" />
  </g>
</svg>
