<?xml version="1.0" encoding="UTF-8" standalone="no"?>
<!-- Generator: Adobe Illustrator 11 Build 196, SVG Export Plug-In . SVG Version: 6.0.0 Build 78)  -->
<svg
   xmlns:dc="http://purl.org/dc/elements/1.1/"
   xmlns:cc="http://web.resource.org/cc/"
   xmlns:rdf="http://www.w3.org/1999/02/22-rdf-syntax-ns#"
   xmlns:svg="http://www.w3.org/2000/svg"
   xmlns="http://www.w3.org/2000/svg"
   xmlns:sodipodi="http://inkscape.sourceforge.net/DTD/sodipodi-0.dtd"
   xmlns:inkscape="http://www.inkscape.org/namespaces/inkscape"
   width="152.66"
   height="139.512"
   viewBox="0 0 152.66 139.512"
   style="overflow:visible;enable-background:new 0 0 152.66 139.512"
   xml:space="preserve"
   id="svg2"
   sodipodi:version="0.32"
   sodipodi:docname="radii-of-curvature.svg"
   sodipodi:docbase="/home/bcrowell/Documents/writing/lm/trunk/5op/ch04/figs"><metadata
   id="metadata70"><rdf:RDF><cc:Work
       rdf:about=""><dc:format>image/svg+xml</dc:format><dc:type
         rdf:resource="http://purl.org/dc/dcmitype/StillImage" /></cc:Work></rdf:RDF></metadata><defs
   id="defs68">
		
		
		
		
		
		
		
		
		
		
		
		
		
		
		
		
	</defs><sodipodi:namedview
   inkscape:cy="73.100789"
   inkscape:cx="29.990067"
   inkscape:zoom="1.6878055"
   inkscape:window-height="510"
   inkscape:window-width="712"
   inkscape:pageshadow="2"
   inkscape:pageopacity="0.0"
   borderopacity="1.0"
   bordercolor="#666666"
   pagecolor="#ffffff"
   id="base"
   inkscape:window-x="179"
   inkscape:window-y="179"
   inkscape:current-layer="svg2" />
	<style
   type="text/css"
   id="style4">
	
	</style>
	<rect
   style="fill:#dedede;fill-opacity:1.0000000;fill-rule:evenodd;stroke:none;stroke-width:1.0000000pt;stroke-linecap:butt;stroke-linejoin:miter;stroke-opacity:1.0000000"
   id="rect1368"
   width="170.98038"
   height="149.98279"
   x="-11.248714"
   y="-7.4711342" /><path
   id="path7"
   d="M 36.703000,70.078000 C 40.095000,66.405000 42.170000,61.498000 42.170000,56.104000 C 42.170000,50.729000 40.110000,45.837000 36.740000,42.168000 C 35.581000,46.650000 34.964000,51.350000 34.964000,56.193000 C 34.963000,60.987000 35.568000,65.639000 36.703000,70.078000 z "
   style="fill:#dcdcdc" /><path
   id="path9"
   d="M 36.708000,42.020000 C 35.538000,46.522000 34.916000,51.245000 34.916000,56.113000 C 34.916000,60.878000 35.512000,65.503000 36.635000,69.919000"
   style="fill:#a8a8a8;stroke:#000000;stroke-width:0.50000000;fill-opacity:1.0000000" /><path
   id="path11"
   d="M 36.634000,69.919000 C 42.780000,94.094000 64.691000,111.97600 90.778000,111.97600 C 121.63000,111.97600 146.64100,86.965000 146.64100,56.113000 C 146.64100,25.261000 121.63000,0.25000000 90.778000,0.25000000 C 64.794000,0.25000000 42.953000,17.991000 36.708000,42.020000"
   style="fill:none;stroke:#000000;stroke-width:0.50000000;stroke-dasharray:2.0000000 " /><path
   id="path13"
   d="M 36.648000,42.037000 C 32.884000,37.967000 27.498000,35.418000 21.516000,35.418000 C 10.136000,35.418000 0.91100000,44.643000 0.91100000,56.023000 C 0.91100000,67.403000 10.137000,76.628000 21.516000,76.628000 C 27.488000,76.628000 32.866000,74.087000 36.629000,70.028000"
   style="fill:none;stroke:#000000;stroke-width:0.50000000;stroke-dasharray:2.0000000 " /><path
   id="path15"
   d="M 36.629000,70.029000 C 40.037000,66.353000 42.121000,61.431000 42.121000,56.023000 C 42.121000,50.625000 40.045000,45.711000 36.648000,42.037000"
   style="fill:#a8a8a8;stroke:#000000;stroke-width:0.50000000;fill-opacity:1.0000000" /><line
   id="line17"
   y2="92.321999"
   x2="0.25000000"
   y1="63.056999"
   x1="0.25000000"
   style="fill:none;stroke:#000000;stroke-width:0.50000000" /><line
   id="line19"
   y2="92.321999"
   x2="20.586000"
   y1="78.433998"
   x1="20.586000"
   style="fill:none;stroke:#000000;stroke-width:0.50000000" /><line
   id="line21"
   y2="124.06700"
   x2="92.013000"
   y1="114.14600"
   x1="92.013000"
   style="fill:none;stroke:#000000;stroke-width:0.50000000" /><line
   id="line23"
   y2="123.57100"
   x2="147.07001"
   y1="67.521004"
   x1="147.07001"
   style="fill:none;stroke:#000000;stroke-width:0.50000000" /><g
   id="g25">
			<line
   id="line27"
   y2="119.60300"
   x2="143.10201"
   y1="119.60300"
   x1="96.476997"
   style="fill:none;stroke:#000000;stroke-width:0.50000000" />
			<path
   id="path29"
   d="M 146.09600,119.60300 C 144.68700,120.12500 142.94000,121.01800 141.85700,121.96100 L 142.71000,119.60300 L 141.85700,117.24500 C 142.93900,118.18800 144.68700,119.08000 146.09600,119.60300 z " />
			<path
   id="path31"
   d="M 93.483000,119.60300 C 94.891000,119.08000 96.639000,118.18800 97.722000,117.24400 L 96.869000,119.60300 L 97.722000,121.96100 C 96.640000,121.01700 94.892000,120.12500 93.483000,119.60300 z " />
		</g><g
   id="g33">
			<line
   id="line35"
   y2="90.834000"
   x2="16.122999"
   y1="90.834000"
   x1="5.7059999"
   style="fill:none;stroke:#000000;stroke-width:0.50000000" />
			<path
   id="path37"
   d="M 19.116000,90.834000 C 17.707000,91.356000 15.960000,92.249000 14.876000,93.192000 L 15.730000,90.834000 L 14.876000,88.476000 C 15.960000,89.419000 17.708000,90.312000 19.116000,90.834000 z " />
			<path
   id="path39"
   d="M 2.7130000,90.834000 C 4.1210000,90.312000 5.8690000,89.419000 6.9520000,88.476000 L 6.0980000,90.834000 L 6.9520000,93.192000 C 5.8690000,92.249000 4.1210000,91.356000 2.7130000,90.834000 z " />
		</g><line
   id="line41"
   y2="75.065002"
   x2="152.66000"
   y1="52.064999"
   x1="152.66000"
   style="fill:none" /><g
   id="g43">
			<text
   id="text45"
   transform="translate(10.66020,108.0654)"><tspan
     id="tspan47"
     style="font-size:9.3500004px;font-family:Liberation Sans"
     y="0"
     x="0">r</tspan></text>

		</g><g
   id="g49">
			<text
   id="text51"
   transform="translate(14.16020,111.5654)"><tspan
     id="tspan53"
     style="font-size:7.6500001px;font-family:Liberation Sans"
     y="0"
     x="0">1</tspan></text>

		</g><g
   id="g55">
			<text
   id="text57"
   transform="translate(115.6597,131.9956)"><tspan
     id="tspan59"
     style="font-size:9.3500004px;font-family:Liberation Sans"
     y="0"
     x="0">r</tspan></text>

		</g><g
   id="g61">
			<text
   id="text63"
   transform="translate(120.1597,135.4956)"><tspan
     id="tspan65"
     style="font-size:7.6500001px;font-family:Liberation Sans"
     y="0"
     x="0">2</tspan></text>

		</g>
</svg>