<?xml version="1.0" encoding="iso-8859-1"?>
<!-- Generator: Adobe Illustrator 11 Build 196, SVG Export Plug-In . SVG Version: 6.0.0 Build 78)  -->
<!DOCTYPE svg PUBLIC "-//W3C//DTD SVG 1.0//EN"    "http://www.w3.org/TR/2001/REC-SVG-20010904/DTD/svg10.dtd" [
	<!ENTITY ns_flows "http://ns.adobe.com/Flows/1.0/">
	<!ENTITY ns_svg "http://www.w3.org/2000/svg">
	<!ENTITY ns_xlink "http://www.w3.org/1999/xlink">
]>
<svg
	 width="60.889" height="90.099" viewBox="0 0 60.889 90.099" style="overflow:visible;enable-background:new 0 0 60.889 90.099"
	 xml:space="preserve">
	<g id="Layer_1">
		<g>
			<path d="M37.57,8.983c8.7,9.6,13.8,9.3,22.2-0.3"/>
			<rect x="47.77" y="13.502" width="1.8" height="74.4"/> 
			<rect x="38.32" y="87.883" width="20.7" height="1.2"/> 
		</g>
		<polyline style="fill:none;stroke:#000000;" points="2.49,0.5 60.389,0.5 60.389,89.599 1.889,89.599 "/>
		<g>
			<rect x="13.385" y="84.206" style="fill:none;stroke:#000000;" width="3" height="5.333"/> 
			<rect x="26.76" y="84.206" style="fill:none;stroke:#000000;" width="3" height="5.333"/> 
			<rect x="9.385" y="70.196" style="fill:#B4B4B4;stroke:#000000;" width="24" height="13.667"/> 
		</g>
		<polyline style="fill:#B4B4B4;stroke:#000000;" points="33.385,70.196 38.385,52.196 31.719,52.196 26.052,69.529 "/>
		<g>
			<path style="fill:#DCDCDC;stroke:#000000;" d="M31.158,45.362c0-3.163-1.615-5.727-3.606-5.727c-1.992,0-3.606,2.564-3.606,5.727
				c0,2.191,0.775,4.092,1.913,5.056c-1.287,1.624-2.65,4.615-3.603,8.172c-0.728,2.715-1.08,5.258-1.073,7.225
				c-1.547-0.633-4.011-1.045-6.797-1.045c-3.818,0-7.046,0.771-8.111,1.83c-0.178-0.178-0.364-0.284-0.555-0.284
				c-1.289,0-2.333,4.274-2.333,9.546c0,5.272,1.045,9.546,2.333,9.546s2.333-4.274,2.333-9.546c0-2.816-0.3-5.339-0.774-7.086
				c1.514,0.709,4.129,1.179,7.107,1.179c3.065,0,5.742-0.498,7.234-1.242c0.21,0.493,0.491,0.819,0.851,0.915
				c1.635,0.438,4.189-3.794,5.705-9.452c1.07-3.992,1.333-7.62,0.823-9.568C30.269,49.722,31.158,47.708,31.158,45.362z"/>
			
				<ellipse transform="matrix(-0.342 -0.9397 0.9397 -0.342 -77.3226 119.5726)" style="fill:#BFBFBF;stroke:#000000;" cx="3.202" cy="86.858" rx="1.414" ry="2.829"/> 
		</g>
		
			<rect x="9.685" y="54.029" transform="matrix(-0.2588 0.9659 -0.9659 -0.2588 71.076 62.5195)" style="fill:#FFFFFF;stroke:#000000;" width="3.733" height="9"/> 
		<path style="fill:#DCDCDC;stroke:#000000;" d="M27.003,52.263c-0.923-0.163-2.117,2.231-2.666,5.346
			c-0.3,1.701-0.344,3.261-0.174,4.358c-0.927-0.605-2.767-1.122-4.916-1.31c-2.561-0.224-4.771,0.086-5.553,0.711
			c-0.202-0.325-0.614-0.614-1.131-0.752c-0.83-0.222-1.617,0.025-1.759,0.553c-0.142,0.528,0.417,1.137,1.246,1.359
			c0.612,0.164,1.198,0.071,1.522-0.2c0.615,0.769,2.767,1.482,5.378,1.71c2.673,0.234,4.958-0.116,5.642-0.797
			c0.121,0.167,0.261,0.274,0.42,0.302c0.923,0.163,2.117-2.231,2.666-5.346C28.229,55.083,27.926,52.426,27.003,52.263z"/>
	</g>
</svg>
