<?xml version="1.0" encoding="UTF-8" standalone="no"?>
<!-- Created with Inkscape (http://www.inkscape.org/) -->
<svg
   xmlns:dc="http://purl.org/dc/elements/1.1/"
   xmlns:cc="http://web.resource.org/cc/"
   xmlns:rdf="http://www.w3.org/1999/02/22-rdf-syntax-ns#"
   xmlns:svg="http://www.w3.org/2000/svg"
   xmlns="http://www.w3.org/2000/svg"
   xmlns:sodipodi="http://sodipodi.sourceforge.net/DTD/sodipodi-0.dtd"
   xmlns:inkscape="http://www.inkscape.org/namespaces/inkscape"
   width="744.09448819"
   height="1052.3622047"
   id="svg1432"
   sodipodi:version="0.32"
   sodipodi:docbase="/home/bcrowell/Documents/writing/books/physics/9share/optics/figs"
   sodipodi:docname="real-and-virtual.svg"
   inkscape:output_extension="org.inkscape.output.svg.inkscape">
  <defs
     id="defs1434" />
  <sodipodi:namedview
     id="base"
     pagecolor="#ffffff"
     bordercolor="#666666"
     borderopacity="1.0"
     inkscape:pageopacity="0.0"
     inkscape:pageshadow="2"
     inkscape:zoom="3.9624512"
     inkscape:cx="342.78052"
     inkscape:cy="516.23573"
     inkscape:document-units="mm"
     inkscape:current-layer="layer1"
     inkscape:window-width="1278"
     inkscape:window-height="996"
     inkscape:window-x="0"
     inkscape:window-y="0" />
  <metadata
     id="metadata1437">
    <rdf:RDF>
      <cc:Work
         rdf:about="">
        <dc:format>image/svg+xml</dc:format>
        <dc:type
           rdf:resource="http://purl.org/dc/dcmitype/StillImage" />
      </cc:Work>
    </rdf:RDF>
  </metadata>
  <g
     inkscape:label="Layer 1"
     inkscape:groupmode="layer"
     id="layer1">
    <rect
       style="fill:#dedede;fill-opacity:1.0000000;fill-rule:evenodd;stroke:none;stroke-width:1.0000000pt;stroke-linecap:butt;stroke-linejoin:miter;stroke-opacity:1.0000000"
       id="rect2231"
       width="272.25873"
       height="124.02898"
       x="203.43779"
       y="467.76218" />
    <rect
       style="fill:#dedede;fill-opacity:1.0000000;fill-rule:evenodd;stroke:none;stroke-width:1.0000000pt;stroke-linecap:butt;stroke-linejoin:miter;stroke-opacity:1.0000000"
       id="rect1502"
       width="272.25873"
       height="124.02898"
       x="203.43779"
       y="337.68301" />
    <path
       id="path5"
       d="M 300.93550,475.86570 C 291.29650,492.33170 285.77250,511.49870 285.77250,531.95470 C 285.77250,552.74970 291.48150,572.21170 301.41750,588.85870"
       style="fill:none;stroke:#000000" />
    <line
       id="line7"
       y2="587.38770"
       x2="300.89450"
       y1="515.27869"
       x1="456.76151"
       style="fill:none;stroke:#000000;stroke-width:0.50000000" />
    <g
       id="g9"
       transform="translate(285.2725,475.6137)">
      <line
         id="line11"
         y2="46.951000"
         x2="94.507004"
         y1="111.62500"
         x1="15.785000"
         style="fill:none;stroke:#000000;stroke-width:0.50000000" />
      <path
         id="path13"
         d="M 96.257000,45.513000 C 95.685000,46.494000 95.092000,47.854000 94.912000,48.926000 L 94.279000,47.138000 L 92.649000,46.170000 C 93.734000,46.201000 95.184000,45.883000 96.257000,45.513000 z " />
    </g>
    <g
       id="g15"
       transform="translate(285.2725,475.6137)">
      <line
         id="line17"
         y2="3.7739999"
         x2="13.622000"
         y1="94.524002"
         x1="86.622002"
         style="fill:none;stroke:#000000;stroke-width:0.50000000" />
      <path
         id="path19"
         d="M 88.038000,96.285000 C 87.063000,95.703000 85.709000,95.096000 84.640000,94.906000 L 86.433000,94.291000 L 87.418000,92.671000 C 87.376000,93.756000 87.679000,95.208000 88.038000,96.285000 z " />
    </g>
    <line
       id="line21"
       y2="515.27869"
       x2="456.76151"
       y1="479.38770"
       x1="298.89450"
       style="fill:none;stroke:#000000;stroke-width:0.50000000" />
    <path
       style="fill:#aaaaaa;fill-opacity:1.0000000"
       d="M 456.15850,537.27570 C 456.15850,537.27570 455.57050,538.07670 455.73750,538.58370 C 455.90450,539.09070 457.61250,539.80570 457.58550,540.78670 C 457.55850,541.76770 457.12450,542.98870 457.61750,543.89070 C 458.11150,544.79170 459.31950,545.13970 459.31950,545.13970 L 464.43950,545.03670 L 464.43950,515.02570 L 457.13950,515.04470 C 456.78450,516.78670 455.67450,522.28570 456.10050,523.90770 C 456.52650,525.52970 456.38750,525.19570 456.08650,526.12970 C 455.78550,527.06470 454.37050,528.25770 453.84250,528.87170 C 453.31450,529.48570 451.77250,531.58670 452.87350,532.39470 C 453.27350,532.68870 453.67850,532.54370 453.67850,532.54370 L 455.44350,533.33770 C 454.98950,533.85170 455.03950,535.60970 454.84150,536.36070 C 454.74950,536.71070 456.05950,537.28970 456.05950,537.28970 L 456.32850,537.30270"
       id="path25" />
    <path
       style="fill:none"
       d="M 457.53850,538.13670 L 455.21650,536.89370 C 455.21650,536.89370 454.65550,536.71270 454.51550,536.37970 C 454.20750,535.64670 454.66350,533.87070 455.11750,533.35670 L 455.59850,533.34370 C 455.59850,533.34370 453.84350,532.90270 453.52950,532.59470 L 453.87250,532.51370 C 453.87250,532.51370 453.20550,532.79370 452.80450,532.49970 C 451.70350,531.69170 453.24650,529.58970 453.77350,528.97670 C 454.30150,528.36270 455.71650,527.16870 456.01750,526.23470 C 456.31850,525.30070 456.45750,525.63370 456.03150,524.01170 C 455.60550,522.38970 456.71550,516.89070 457.06950,515.14870 L 461.92450,517.80670 L 459.24950,545.24370 C 459.24950,545.24370 458.04150,544.89570 457.54750,543.99470 C 457.05350,543.09370 457.48850,541.87170 457.51550,540.89070 C 457.54250,539.90970 455.83450,539.19470 455.66750,538.68670 C 455.50050,538.17970 456.08850,537.37870 456.08850,537.37870"
       id="path27" />
    <path
       style="fill:none;stroke:#000000;stroke-width:0.30000001"
       d="M 457.12550,515.15670 C 456.77150,516.89870 455.66050,522.39770 456.08650,524.01970 C 456.51250,525.64170 456.37350,525.30770 456.07250,526.24170 C 455.77150,527.17670 454.35650,528.36970 453.82850,528.98370 C 453.30050,529.59770 451.75850,531.69870 452.85950,532.50670 C 453.25950,532.80070 453.66550,532.65570 453.66550,532.65570"
       id="path29" />
    <path
       style="fill:none;stroke:#000000;stroke-width:0.30000001"
       d="M 455.42950,533.45070 C 454.97550,533.96470 455.02550,535.72370 454.82750,536.47370 C 454.73550,536.82370 456.04550,537.40270 456.04550,537.40270 L 457.92750,537.49070 L 458.38850,537.36470 L 458.61850,537.28270"
       id="path31" />
    <path
       style="fill:none;stroke:#000000;stroke-width:0.30000001"
       d="M 456.14450,537.38770 C 456.14450,537.38770 455.55650,538.18870 455.72350,538.69570 C 455.89050,539.20270 457.59850,539.91770 457.57150,540.89870 C 457.54450,541.87970 457.11050,543.10070 457.60350,544.00270 C 458.09750,544.90370 459.30550,545.25170 459.30550,545.25170"
       id="path33" />
    <ellipse
       transform="matrix(0.151700,0.988400,-0.988400,0.151700,483.6725,349.2679)"
       style="fill:none;stroke:#000000;stroke-width:0.30000001"
       cx="172.80400"
       cy="52.408001"
       rx="3.6619999"
       ry="0.80699998"
       id="ellipse35"
       sodipodi:cx="172.80400"
       sodipodi:cy="52.408001"
       sodipodi:rx="3.6619999"
       sodipodi:ry="0.80699998" />
    <path
       style="fill:none;stroke:#000000;stroke-width:0.30000001"
       d="M 455.61350,526.84570 C 455.28750,525.41670 454.82750,524.41970 454.47450,524.47370 C 454.03450,524.54170 453.92550,526.21670 454.23150,528.21670 C 454.24450,528.30170 454.25850,528.38670 454.27350,528.47070"
       id="path37" />
    <line
       style="fill:none;stroke:#000000;stroke-width:0.30000001"
       x1="458.62851"
       y1="526.11572"
       x2="464.57748"
       y2="526.03369"
       id="line39" />
    <g
       id="g41"
       transform="matrix(1.3838729,0,0,1.3838729,260.79942,448.23577)">
      <path
         id="path43"
         d="M 66.049,62.398 L 66.736,62.765 C 66.736,62.765 66.902,62.819 66.943,62.917 C 67.034,63.134 66.9,63.66 66.765,63.812 L 66.622,63.816 C 66.622,63.816 67.142,63.946 67.234,64.037 L 67.132,64.061 C 67.132,64.061 67.329,63.978 67.448,64.065 C 67.774,64.304 67.317,64.926 67.161,65.107 C 67.005,65.289 66.586,65.642 66.497,65.919 C 66.408,66.196 66.367,66.097 66.493,66.576 C 66.619,67.056 66.291,68.683 66.186,69.199 L 64.749,68.412 L 65.541,60.294 C 65.541,60.294 65.898,60.397 66.044,60.664 C 66.19,60.931 66.062,61.292 66.054,61.582 C 66.046,61.873 66.551,62.084 66.6,62.234 C 66.649,62.384 66.475,62.621 66.475,62.621"
         style="fill:none" />
      <path
         id="path45"
         d="M 66.171,69.198 C 66.275,68.682 66.604,67.055 66.478,66.575 C 66.352,66.095 66.393,66.194 66.482,65.917 C 66.571,65.641 66.99,65.288 67.146,65.106 C 67.302,64.924 67.759,64.303 67.433,64.064 C 67.315,63.977 67.195,64.02 67.195,64.02 L 66.673,63.785 C 66.807,63.633 66.793,63.113 66.851,62.891 C 66.878,62.787 66.49,62.616 66.49,62.616 L 65.933,62.59 L 65.797,62.627 L 65.729,62.651"
         style="fill:none;stroke:#000000;stroke-width:0.30000001" />
      <path
         id="path47"
         d="M 66.461,62.62 C 66.461,62.62 66.635,62.383 66.586,62.233 C 66.537,62.083 66.031,61.872 66.039,61.581 C 66.047,61.291 66.176,60.93 66.03,60.663 C 65.884,60.396 65.527,60.294 65.527,60.294"
         style="fill:none;stroke:#000000;stroke-width:0.30000001" />
      <ellipse
         sodipodi:ry="0.23899999"
         sodipodi:rx="1.084"
         sodipodi:cy="65.390999"
         sodipodi:cx="65.889"
         id="ellipse49"
         ry="0.23899999"
         rx="1.084"
         cy="65.390999"
         cx="65.889"
         style="fill:none;stroke:#000000;stroke-width:0.30000001"
         transform="matrix(-0.1516,-0.9884,0.9884,-0.1516,11.2453,140.4344)" />
      <path
         id="path51"
         d="M 66.618,65.739 C 66.715,66.162 66.85,66.457 66.955,66.441 C 67.085,66.421 67.117,65.925 67.027,65.334 C 67.023,65.309 67.019,65.283 67.014,65.258"
         style="fill:none;stroke:#000000;stroke-width:0.30000001" />
      <line
         id="line53"
         y2="65.978996"
         x2="63.966"
         y1="65.955002"
         x1="65.726997"
         style="fill:none;stroke:#000000;stroke-width:0.30000001" />
    </g>
    <line
       id="line63"
       y2="394.03030"
       x2="285.71420"
       y1="400.23230"
       x1="309.09119"
       style="fill:none;stroke:#000000;stroke-width:0.50000000" />
    <g
       id="g65"
       transform="translate(213.2542,342.9773)">
      <line
         id="line67"
         y2="44.951000"
         x2="97.948997"
         y1="50.970001"
         x1="72.529999"
         style="fill:none;stroke:#000000;stroke-width:0.50000000" />
      <path
         id="path69"
         d="M 100.14700,44.427000 C 99.202000,45.057000 98.072000,46.017000 97.439000,46.901000 L 97.655000,45.017000 L 96.617000,43.431000 C 97.579000,43.936000 99.021000,44.288000 100.14700,44.427000 z " />
    </g>
    <line
       id="line71"
       y2="417.95428"
       x2="287.16620"
       y1="400.84232"
       x1="309.39621"
       style="fill:none;stroke:#000000;stroke-width:0.50000000" />
    <line
       id="line73"
       y2="405.05630"
       x2="237.78020"
       y1="394.02731"
       x1="284.96719"
       style="fill:none;stroke:#000000;stroke-width:0.50000000;stroke-dasharray:2.0000000 " />
    <line
       id="line75"
       y2="418.07831"
       x2="287.17520"
       y1="405.05630"
       x1="237.78020"
       style="fill:none;stroke:#000000;stroke-width:0.50000000;stroke-dasharray:2.0000000 " />
    <g
       id="g77"
       transform="translate(213.2542,342.9773)">
      <line
         id="line79"
         y2="82.290001"
         x2="98.188004"
         y1="75.314003"
         x1="73.861000"
         style="fill:none;stroke:#000000;stroke-width:0.50000000" />
      <path
         id="path81"
         d="M 100.36600,82.910000 C 99.233000,82.996000 97.777000,83.280000 96.793000,83.741000 L 97.905000,82.205000 L 97.776000,80.313000 C 98.366000,81.224000 99.451000,82.236000 100.36600,82.910000 z " />
    </g>
    <line
       id="line83"
       y2="371.58731"
       x2="289.03320"
       y1="399.23929"
       x1="309.35120"
       style="fill:none;stroke:#000000;stroke-width:0.50000000" />
    <g
       id="g85"
       transform="translate(213.2542,342.9773)">
      <line
         id="line87"
         y2="28.802999"
         x2="76.261002"
         y1="9.0120001"
         x1="105.31200"
         style="fill:none;stroke:#000000;stroke-width:0.50000000" />
      <path
         id="path89"
         d="M 107.18500,7.7420000 C 106.52700,8.6680000 105.81500,9.9690000 105.54000,11.020000 L 105.06900,9.1830000 L 103.53200,8.0730000 C 104.61000,8.2020000 106.08200,8.0150000 107.18500,7.7420000 z " />
    </g>
    <line
       id="line91"
       y2="405.05630"
       x2="237.78020"
       y1="371.74030"
       x1="289.09821"
       style="fill:none;stroke:#000000;stroke-width:0.50000000;stroke-dasharray:2.0000000 " />
    <path
       id="path93"
       d="M 300.64920,343.22930 C 291.01120,359.69530 285.48720,378.86130 285.48720,399.31830 C 285.48720,420.11330 291.19520,439.57530 301.13220,456.22230"
       style="fill:none;stroke:#000000" />
    <path
       style="fill:none"
       d="M 227.08820,418.62830 L 231.65120,416.18730 C 231.65120,416.18730 232.75320,415.83330 233.02720,415.17730 C 233.63120,413.73730 232.73620,410.24630 231.84420,409.23730 L 230.89920,409.21230 C 230.89920,409.21230 234.34820,408.34530 234.96420,407.74130 L 234.29020,407.58330 C 234.29020,407.58330 235.60220,408.13330 236.38920,407.55630 C 238.55220,405.96930 235.52120,401.83930 234.48420,400.63330 C 233.44720,399.42730 230.66620,397.08030 230.07520,395.24430 C 229.48420,393.40830 229.20920,394.06430 230.04720,390.87730 C 230.88520,387.69030 228.70320,376.88430 228.00620,373.46130 L 218.46520,378.68430 L 223.72420,432.59730 C 223.72420,432.59730 226.09820,431.91430 227.06720,430.14330 C 228.03720,428.37230 227.18320,425.97330 227.13020,424.04530 C 227.07620,422.11730 230.43320,420.71230 230.76120,419.71530 C 231.08820,418.71830 229.93320,417.14530 229.93320,417.14530"
       id="path97" />
    <path
       style="fill:none;stroke:#000000;stroke-width:0.30000001"
       d="M 234.70020,407.85830 C 234.70020,407.85830 235.49620,408.14330 236.28320,407.56630 C 238.44620,405.97830 235.41520,401.84830 234.37820,400.64230 C 233.34120,399.43630 230.56020,397.08930 229.96920,395.25430 C 229.37820,393.41830 229.10320,394.07430 229.94120,390.88630 C 230.77920,387.69930 228.59720,376.89330 227.90020,373.47030"
       id="path99" />
    <path
       style="fill:none;stroke:#000000;stroke-width:0.30000001"
       d="M 234.85820,407.75130 C 234.24220,408.35530 230.79320,409.22230 230.79320,409.22230"
       id="path101" />
    <path
       style="fill:none;stroke:#000000;stroke-width:0.30000001"
       d="M 231.23220,409.41930 C 232.12420,410.42930 232.02620,413.88530 232.41520,415.35930 C 232.59620,416.04730 230.02120,417.18430 230.02120,417.18430 L 226.32320,417.35730 L 225.41820,417.10930 L 224.96420,416.94730"
       id="path103" />
    <path
       style="fill:none;stroke:#000000;stroke-width:0.30000001"
       d="M 229.82720,417.15630 C 229.82720,417.15630 230.98220,418.72930 230.65520,419.72630 C 230.32720,420.72330 226.97120,422.12830 227.02420,424.05630 C 227.07720,425.98430 227.93120,428.38430 226.96120,430.15530 C 225.99120,431.92630 223.61820,432.60930 223.61820,432.60930"
       id="path105" />
    <ellipse
       transform="matrix(-0.151600,0.988400,-0.988400,-0.151600,283.0960,394.5782)"
       style="fill:none;stroke:#000000;stroke-width:0.30000001"
       cx="12.776000"
       cy="55.772999"
       rx="7.1960001"
       ry="1.5850000"
       id="ellipse107"
       sodipodi:cx="12.776000"
       sodipodi:cy="55.772999"
       sodipodi:rx="7.1960001"
       sodipodi:ry="1.5850000" />
    <path
       style="fill:none;stroke:#000000;stroke-width:0.30000001"
       d="M 230.87020,396.44130 C 231.51220,393.63330 232.41520,391.67430 233.10920,391.78130 C 233.97520,391.91430 234.18820,395.20630 233.58520,399.13530 C 233.55920,399.30430 233.53220,399.47130 233.50420,399.63630"
       id="path109" />
    <line
       style="fill:none;stroke:#000000;stroke-width:0.30000001"
       x1="224.94620"
       y1="395.00729"
       x2="213.25620"
       y2="394.84631"
       id="line111" />
    <path
       style="fill:#aaaaaa;fill-opacity:1.0000000"
       d="M 313.11920,406.04630 C 313.11920,406.04630 312.53220,406.84730 312.69820,407.35430 C 312.86420,407.86130 314.57320,408.57630 314.54620,409.55730 C 314.51920,410.53830 314.08520,411.75930 314.57820,412.66130 C 315.07120,413.56330 316.27920,413.91030 316.27920,413.91030 L 321.40020,413.80730 L 321.40020,383.79730 L 314.10020,383.81630 C 313.74620,385.55830 312.63520,391.05730 313.06120,392.67930 C 313.48820,394.30130 313.34820,393.96730 313.04720,394.90130 C 312.74620,395.83630 311.33120,397.02930 310.80320,397.64330 C 310.27620,398.25730 308.73320,400.35930 309.83420,401.16630 C 310.23420,401.46030 310.64020,401.31530 310.64020,401.31530 L 312.40520,402.10930 C 311.95120,402.62330 312.00120,404.38130 311.80320,405.13230 C 311.71020,405.48230 313.02120,406.06130 313.02120,406.06130 L 313.29020,406.07330"
       id="path115" />
    <path
       style="fill:none"
       d="M 314.50020,406.90730 L 312.17820,405.66430 C 312.17820,405.66430 311.61720,405.48430 311.47720,405.15030 C 311.17020,404.41730 311.62520,402.64130 312.07920,402.12730 L 312.56020,402.11430 C 312.56020,402.11430 310.80520,401.67330 310.49220,401.36530 L 310.83520,401.28430 C 310.83520,401.28430 310.16820,401.56430 309.76720,401.27030 C 308.66620,400.46230 310.20920,398.36030 310.73620,397.74730 C 311.26320,397.13430 312.67920,395.93930 312.98020,395.00530 C 313.28120,394.07130 313.42120,394.40430 312.99420,392.78330 C 312.56820,391.16130 313.67820,385.66230 314.03320,383.92030 L 318.88820,386.57830 L 316.21220,414.01530 C 316.21220,414.01530 315.00420,413.66730 314.51120,412.76630 C 314.01720,411.86530 314.45220,410.64330 314.47920,409.66230 C 314.50620,408.68130 312.79820,407.96630 312.63120,407.45830 C 312.46420,406.95030 313.05220,406.15030 313.05220,406.15030"
       id="path117" />
    <path
       style="fill:none;stroke:#000000;stroke-width:0.30000001"
       d="M 314.08620,383.92730 C 313.73220,385.66930 312.62120,391.16830 313.04820,392.79030 C 313.47420,394.41230 313.33420,394.07830 313.03420,395.01330 C 312.73320,395.94730 311.31820,397.14130 310.79020,397.75530 C 310.26320,398.36930 308.72020,400.47030 309.82120,401.27830 C 310.22120,401.57230 310.62720,401.42730 310.62720,401.42730"
       id="path119" />
    <path
       style="fill:none;stroke:#000000;stroke-width:0.30000001"
       d="M 312.39120,402.22130 C 311.93720,402.73530 311.98720,404.49330 311.78920,405.24430 C 311.69720,405.59430 313.00720,406.17330 313.00720,406.17330 L 314.88920,406.26130 L 315.35020,406.13530 L 315.58020,406.05330"
       id="path121" />
    <path
       style="fill:none;stroke:#000000;stroke-width:0.30000001"
       d="M 313.10620,406.15830 C 313.10620,406.15830 312.51820,406.95930 312.68520,407.46630 C 312.85220,407.97330 314.56020,408.68830 314.53320,409.66930 C 314.50620,410.65030 314.07220,411.87130 314.56520,412.77330 C 315.05820,413.67530 316.26620,414.02230 316.26620,414.02230"
       id="path123" />
    <ellipse
       transform="matrix(0.151700,0.988400,-0.988400,0.151700,352.7949,288.0235)"
       style="fill:none;stroke:#000000;stroke-width:0.30000001"
       cx="101.78400"
       cy="53.813999"
       rx="3.6619999"
       ry="0.80699998"
       id="ellipse125"
       sodipodi:cx="101.78400"
       sodipodi:cy="53.813999"
       sodipodi:rx="3.6619999"
       sodipodi:ry="0.80699998" />
    <path
       style="fill:none;stroke:#000000;stroke-width:0.30000001"
       d="M 312.57520,395.61630 C 312.24920,394.18730 311.78920,393.19130 311.43520,393.24430 C 310.99520,393.31230 310.88620,394.98730 311.19320,396.98730 C 311.20620,397.07230 311.22020,397.15730 311.23420,397.24130"
       id="path127" />
    <line
       style="fill:none;stroke:#000000;stroke-width:0.30000001"
       x1="315.59021"
       y1="394.88629"
       x2="321.53922"
       y2="394.80429"
       id="line129" />
    <text
       xml:space="preserve"
       style="font-size:10.000000px;font-style:normal;font-variant:normal;font-weight:normal;font-stretch:normal;text-align:start;line-height:125.00000%;writing-mode:lr-tb;text-anchor:start;fill:#000000;fill-opacity:1.0000000;stroke:none;stroke-width:1.0000000pt;stroke-linecap:butt;stroke-linejoin:miter;stroke-opacity:1.0000000;font-family:Liberation Sans"
       x="210.12624"
       y="354.44608"
       id="text2316"
       sodipodi:linespacing="125.00000%"><tspan
         sodipodi:role="line"
         id="tspan2318"
         x="210.12624"
         y="354.44608">1</tspan></text>
    <text
       xml:space="preserve"
       style="font-size:10.000000px;font-style:normal;font-variant:normal;font-weight:normal;font-stretch:normal;text-align:start;line-height:125.00000%;writing-mode:lr-tb;text-anchor:start;fill:#000000;fill-opacity:1.0000000;stroke:none;stroke-width:1.0000000pt;stroke-linecap:butt;stroke-linejoin:miter;stroke-opacity:1.0000000;font-family:Liberation Sans"
       x="210.3484"
       y="484.43793"
       id="text2320"
       sodipodi:linespacing="125.00000%"><tspan
         sodipodi:role="line"
         id="tspan2322"
         x="210.3484"
         y="484.43793">2</tspan></text>
  </g>
</svg>
