<?xml version="1.0" encoding="iso-8859-1"?>
<!-- Generator: Adobe Illustrator 11 Build 196, SVG Export Plug-In . SVG Version: 6.0.0 Build 78)  -->
<!DOCTYPE svg PUBLIC "-//W3C//DTD SVG 1.0//EN"    "http://www.w3.org/TR/2001/REC-SVG-20010904/DTD/svg10.dtd" [
	<!ENTITY ns_flows "http://ns.adobe.com/Flows/1.0/">
	<!ENTITY ns_svg "http://www.w3.org/2000/svg">
	<!ENTITY ns_xlink "http://www.w3.org/1999/xlink">
]>
<svg
	 width="154.199" height="145.287" viewBox="0 0 154.199 145.287"
	 style="overflow:visible;enable-background:new 0 0 154.199 145.287" xml:space="preserve">
	<style type="text/css">
	
	</style>
	<g id="Layer_1">
		<g>
			<line style="fill:#FFFFFF;stroke:#000000;stroke-width:0.5;" x1="32.647" y1="115.234" x2="35.378" y2="115.234"/>
			<line style="fill:#FFFFFF;stroke:#000000;stroke-width:0.5;" x1="32.647" y1="102.973" x2="35.378" y2="102.973"/>
			<line style="fill:#FFFFFF;stroke:#000000;stroke-width:0.5;" x1="32.647" y1="90.711" x2="35.378" y2="90.711"/>
			<line style="fill:#FFFFFF;stroke:#000000;stroke-width:0.5;" x1="32.647" y1="78.45" x2="35.378" y2="78.45"/>
			<line style="fill:#FFFFFF;stroke:#000000;stroke-width:0.5;" x1="32.647" y1="66.188" x2="35.378" y2="66.188"/>
			<line style="fill:#FFFFFF;stroke:#000000;stroke-width:0.5;" x1="32.647" y1="53.927" x2="35.378" y2="53.927"/>
			<line style="fill:#FFFFFF;stroke:#000000;stroke-width:0.5;" x1="32.647" y1="41.665" x2="35.378" y2="41.665"/>
			<line style="fill:#FFFFFF;stroke:#000000;stroke-width:0.5;" x1="32.647" y1="29.403" x2="35.378" y2="29.403"/>
			<line style="fill:#FFFFFF;stroke:#000000;stroke-width:0.5;" x1="32.647" y1="17.142" x2="35.378" y2="17.142"/>
			<line style="fill:#FFFFFF;stroke:#000000;stroke-width:0.5;" x1="32.647" y1="4.88" x2="35.378" y2="4.88"/>
		</g>
		<g>
			<line style="fill:#FFFFFF;stroke:#000000;stroke-width:0.5;" x1="35.378" y1="115.006" x2="35.378" y2="117.736"/>
			<line style="fill:#FFFFFF;stroke:#000000;stroke-width:0.5;" x1="47.639" y1="115.006" x2="47.639" y2="117.736"/>
			<line style="fill:#FFFFFF;stroke:#000000;stroke-width:0.5;" x1="59.901" y1="115.006" x2="59.901" y2="117.736"/>
			<line style="fill:#FFFFFF;stroke:#000000;stroke-width:0.5;" x1="72.163" y1="115.006" x2="72.163" y2="117.736"/>
			<line style="fill:#FFFFFF;stroke:#000000;stroke-width:0.5;" x1="84.424" y1="115.006" x2="84.424" y2="117.736"/>
			<line style="fill:#FFFFFF;stroke:#000000;stroke-width:0.5;" x1="96.686" y1="115.006" x2="96.686" y2="117.736"/>
			<line style="fill:#FFFFFF;stroke:#000000;stroke-width:0.5;" x1="108.947" y1="115.006" x2="108.947" y2="117.736"/>
			<line style="fill:#FFFFFF;stroke:#000000;stroke-width:0.5;" x1="121.208" y1="115.006" x2="121.208" y2="117.736"/>
			<line style="fill:#FFFFFF;stroke:#000000;stroke-width:0.5;" x1="133.47" y1="115.006" x2="133.47" y2="117.736"/>
			<line style="fill:#FFFFFF;stroke:#000000;stroke-width:0.5;" x1="145.732" y1="115.006" x2="145.732" y2="117.736"/>
		</g>
		<rect x="35.752" y="4.88" style="fill:#FFFFFF;stroke:#000000;stroke-width:0.5;" width="109.98" height="109.98"/> 
		<circle style="fill:#FFFFFF;stroke:#000000;stroke-width:0.5;" cx="35.378" cy="115.464" r="2.272"/> 
		<circle style="fill:#FFFFFF;stroke:#000000;stroke-width:0.5;" cx="41.231" cy="111.609" r="2.272"/> 
		<circle style="fill:#FFFFFF;stroke:#000000;stroke-width:0.5;" cx="47.562" cy="107.028" r="2.272"/> 
		<circle style="fill:#FFFFFF;stroke:#000000;stroke-width:0.5;" cx="53.654" cy="102.208" r="2.272"/> 
		<circle style="fill:#FFFFFF;stroke:#000000;stroke-width:0.5;" cx="59.746" cy="98.191" r="2.272"/> 
		<circle style="fill:#FFFFFF;stroke:#000000;stroke-width:0.5;" cx="65.838" cy="93.634" r="2.272"/> 
		<circle style="fill:#FFFFFF;stroke:#000000;stroke-width:0.5;" cx="71.93" cy="89.216" r="2.272"/> 
		<circle style="fill:#FFFFFF;stroke:#000000;stroke-width:0.5;" cx="78.022" cy="85.148" r="2.272"/> 
		<circle style="fill:#FFFFFF;stroke:#000000;stroke-width:0.5;" cx="84.114" cy="81.181" r="2.272"/> 
		<circle style="fill:#FFFFFF;stroke:#000000;stroke-width:0.5;" cx="90.206" cy="77.165" r="2.272"/> 
		<circle style="fill:#FFFFFF;stroke:#000000;stroke-width:0.5;" cx="96.298" cy="73.487" r="2.272"/> 
		<circle style="fill:#FFFFFF;stroke:#000000;stroke-width:0.5;" cx="102.391" cy="69.934" r="2.272"/> 
		<circle style="fill:#FFFFFF;stroke:#000000;stroke-width:0.5;" cx="108.482" cy="66.858" r="2.272"/> 
		<circle style="fill:#FFFFFF;stroke:#000000;stroke-width:0.5;" cx="114.575" cy="63.799" r="2.272"/> 
		<circle style="fill:#FFFFFF;stroke:#000000;stroke-width:0.5;" cx="120.667" cy="61.234" r="2.272"/> 
		<circle style="fill:#FFFFFF;stroke:#000000;stroke-width:0.5;" cx="126.759" cy="59.627" r="2.272"/> 
		<circle style="fill:#FFFFFF;stroke:#000000;stroke-width:0.5;" cx="132.851" cy="58.021" r="2.272"/> 
		<circle style="fill:#FFFFFF;stroke:#000000;stroke-width:0.5;" cx="138.943" cy="56.816" r="2.272"/> 
		<circle style="fill:#FFFFFF;stroke:#000000;stroke-width:0.5;" cx="145.035" cy="56.414" r="2.272"/> 
		<g>
			<text transform="matrix(1 0 0 1 32.2578 126.1699)"><tspan x="0" y="0" style="font-family:Liberation Sans; font-size:6.800000;">0</tspan></text>
		</g>
		<g>
			<text transform="matrix(1 0 0 1 42.7432 126.1699)"><tspan x="0" y="0" style="font-family:Liberation Sans; font-size:6.800000;">10</tspan></text>
		</g>
		<g>
			<text transform="matrix(1 0 0 1 55.1802 126.1699)"><tspan x="0" y="0" style="font-family:Liberation Sans; font-size:6.800000;">20</tspan></text>
		</g>
		<g>
			<text transform="matrix(1 0 0 1 67.6167 126.1699)"><tspan x="0" y="0" style="font-family:Liberation Sans; font-size:6.800000;">30</tspan></text>
		</g>
		<g>
			<text transform="matrix(1 0 0 1 80.0537 126.1699)"><tspan x="0" y="0" style="font-family:Liberation Sans; font-size:6.800000;">40</tspan></text>
		</g>
		<g>
			<text transform="matrix(1 0 0 1 92.4902 126.1699)"><tspan x="0" y="0" style="font-family:Liberation Sans; font-size:6.800000;">50</tspan></text>
		</g>
		<g>
			<text transform="matrix(1 0 0 1 104.9268 126.1699)"><tspan x="0" y="0" style="font-family:Liberation Sans; font-size:6.800000;">60</tspan></text>
		</g>
		<g>
			<text transform="matrix(1 0 0 1 117.3638 126.1699)"><tspan x="0" y="0" style="font-family:Liberation Sans; font-size:6.800000;">70</tspan></text>
		</g>
		<g>
			<text transform="matrix(1 0 0 1 129.8003 126.1699)"><tspan x="0" y="0" style="font-family:Liberation Sans; font-size:6.800000;">80</tspan></text>
		</g>
		<g>
			<text transform="matrix(1 0 0 1 142.2373 126.1699)"><tspan x="0" y="0" style="font-family:Liberation Sans; font-size:6.800000;">90</tspan></text>
		</g>
		<g>
			<text transform="matrix(1 0 0 1 25.2388 117.5898)"><tspan x="0" y="0" style="font-family:Liberation Sans; font-size:6.800000;">0</tspan></text>
		</g>
		<g>
			<text transform="matrix(1 0 0 1 21.3364 105.4131)"><tspan x="0" y="0" style="font-family:Liberation Sans; font-size:6.800000;">10</tspan></text>
		</g>
		<g>
			<text transform="matrix(1 0 0 1 21.3364 93.2368)"><tspan x="0" y="0" style="font-family:Liberation Sans; font-size:6.800000;">20</tspan></text>
		</g>
		<g>
			<text transform="matrix(1 0 0 1 21.3364 81.0601)"><tspan x="0" y="0" style="font-family:Liberation Sans; font-size:6.800000;">30</tspan></text>
		</g>
		<g>
			<text transform="matrix(1 0 0 1 21.3364 68.8833)"><tspan x="0" y="0" style="font-family:Liberation Sans; font-size:6.800000;">40</tspan></text>
		</g>
		<g>
			<text transform="matrix(1 0 0 1 21.3364 56.7065)"><tspan x="0" y="0" style="font-family:Liberation Sans; font-size:6.800000;">50</tspan></text>
		</g>
		<g>
			<text transform="matrix(1 0 0 1 21.3364 44.5303)"><tspan x="0" y="0" style="font-family:Liberation Sans; font-size:6.800000;">60</tspan></text>
		</g>
		<g>
			<text transform="matrix(1 0 0 1 21.3364 32.3535)"><tspan x="0" y="0" style="font-family:Liberation Sans; font-size:6.800000;">70</tspan></text>
		</g>
		<g>
			<text transform="matrix(1 0 0 1 21.3364 20.1768)"><tspan x="0" y="0" style="font-family:Liberation Sans; font-size:6.800000;">80</tspan></text>
		</g>
		<g>
			<text transform="matrix(1 0 0 1 21.3364 8)"><tspan x="0" y="0" style="font-family:Liberation Sans; font-size:6.800000;">90</tspan></text>
		</g>
		<g>
			<text transform="matrix(1 0 0 1 64.5376 139.27)"><tspan x="0" y="0" style="font-family:'Symbol'; font-size:10;">&#x3B8;</tspan></text>
			<text transform="matrix(1 0 0 1 69.7476 141.27)"><tspan x="0" y="0" style="font-family:Liberation Sans; font-size:7.650000;">air</tspan></text>
			<text transform="matrix(1 0 0 1 79.7495 139.27)"><tspan x="0" y="0" style="font-family:Liberation Sans; font-size:8.500000;"> (degrees)</tspan></text>
		</g>
		<g>
			<text transform="matrix(0 -1 1 0 10 93.1934)"><tspan x="0" y="0" style="font-family:'Symbol'; font-size:10;">&#x3B8;</tspan></text>
			<text transform="matrix(0 -1 1 0 12 87.9834)"><tspan x="0" y="0" style="font-family:Liberation Sans; font-size:7.650000;">water</tspan></text>
			<text transform="matrix(0 -1 1 0 10 65.9756)"><tspan x="0" y="0" style="font-family:Liberation Sans; font-size:8.500000;"> (degrees)</tspan></text>
		</g>
		<line style="fill:none;" x1="154.199" y1="118.542" x2="154.199" y2="91.542"/>
	</g>
</svg>
