<?xml version="1.0" encoding="UTF-8" standalone="no"?>
<!-- Generator: Adobe Illustrator 11 Build 196, SVG Export Plug-In . SVG Version: 6.0.0 Build 78)  -->
<svg
   xmlns:dc="http://purl.org/dc/elements/1.1/"
   xmlns:cc="http://web.resource.org/cc/"
   xmlns:rdf="http://www.w3.org/1999/02/22-rdf-syntax-ns#"
   xmlns:svg="http://www.w3.org/2000/svg"
   xmlns="http://www.w3.org/2000/svg"
   xmlns:sodipodi="http://inkscape.sourceforge.net/DTD/sodipodi-0.dtd"
   xmlns:inkscape="http://www.inkscape.org/namespaces/inkscape"
   width="82.584"
   height="133.146"
   viewBox="0 0 82.584 133.146"
   style="overflow:visible;enable-background:new 0 0 82.584 133.146"
   xml:space="preserve"
   id="svg2"
   sodipodi:version="0.32"
   sodipodi:docname="specular-and-diffuse-reflection.svg"
   sodipodi:docbase="/home/bcrowell/Documents/writing/lm/trunk/5op/ch01/figs"><metadata
   id="metadata80"><rdf:RDF><cc:Work
       rdf:about=""><dc:format>image/svg+xml</dc:format><dc:type
         rdf:resource="http://purl.org/dc/dcmitype/StillImage" /></cc:Work></rdf:RDF></metadata><defs
   id="defs78">
		
		
		
		
		
		
		
		
		
		
		
		
		 
		
	</defs><sodipodi:namedview
   inkscape:cy="69.607645"
   inkscape:cx="74.579620"
   inkscape:zoom="2.5821547"
   inkscape:window-height="996"
   inkscape:window-width="1278"
   inkscape:pageshadow="2"
   inkscape:pageopacity="0.0"
   borderopacity="1.0"
   bordercolor="#666666"
   pagecolor="#ffffff"
   id="base"
   inkscape:window-x="0"
   inkscape:window-y="0"
   inkscape:current-layer="svg2" />
	<style
   type="text/css"
   id="style4">
	
	</style>
	<rect
   style="fill:#dedede;fill-opacity:1.0000000;fill-rule:evenodd;stroke:none;stroke-width:1.0000000pt;stroke-linecap:butt;stroke-linejoin:miter;stroke-opacity:1.0000000;overflow:visible"
   id="rect2146"
   width="86.749260"
   height="85.974716"
   x="89.136528"
   y="-4.9169960" /><rect
   style="fill:#dedede;fill-opacity:1.0000000;fill-rule:evenodd;stroke:none;stroke-width:1.0000000pt;stroke-linecap:butt;stroke-linejoin:miter;stroke-opacity:1.0000000"
   id="rect1415"
   width="86.749260"
   height="85.974716"
   x="-6.5836501"
   y="-4.9169960" /><g
   id="g7">
			<line
   id="line9"
   y2="3.1800001"
   x2="51.542000"
   y1="37.180000"
   x1="29.542000"
   style="fill:none;stroke:#000000;stroke-width:0.50000000" />
			<path
   id="path11"
   d="M 53.183000,0.65000000 C 51.969000,1.5560000 50.257000,2.5460000 48.865000,2.9460000 L 51.328000,3.5150000 L 52.857000,5.5290000 C 52.652000,4.0960000 52.854000,2.1280000 53.183000,0.65000000 z " />
		</g><g
   id="g13">
			<line
   id="line15"
   y2="2.5300000"
   x2="56.875000"
   y1="36.529999"
   x1="34.875000"
   style="fill:none;stroke:#000000;stroke-width:0.50000000" />
			<path
   id="path17"
   d="M 58.517000,0.0000000 C 57.303000,0.90600000 55.591000,1.8960000 54.199000,2.2960000 L 56.662000,2.8650000 L 58.190000,4.8790000 C 57.985000,3.4460000 58.187000,1.4780000 58.517000,0.0000000 z " />
		</g><g
   id="g19">
			<line
   id="line21"
   y2="36.796001"
   x2="29.125000"
   y1="2.7960000"
   x1="7.1250000"
   style="fill:none;stroke:#000000;stroke-width:0.50000000" />
			<line
   id="line23"
   y2="36.796001"
   x2="34.458000"
   y1="2.7960000"
   x1="12.458000"
   style="fill:none;stroke:#000000;stroke-width:0.50000000" />
			<line
   id="line25"
   y2="36.796001"
   x2="40.438000"
   y1="2.7960000"
   x1="18.438000"
   style="fill:none;stroke:#000000;stroke-width:0.50000000" />
		</g><g
   id="g27">
			<line
   id="line29"
   y2="3.0720000"
   x2="63.354000"
   y1="37.071999"
   x1="41.354000"
   style="fill:none;stroke:#000000;stroke-width:0.50000000" />
			<path
   id="path31"
   d="M 64.996000,0.54200000 C 63.782000,1.4480000 62.070000,2.4380000 60.678000,2.8380000 L 63.141000,3.4080000 L 64.670000,5.4210000 C 64.464000,3.9870000 64.667000,2.0200000 64.996000,0.54200000 z " />
		</g><g
   id="g39"
   transform="translate(91.07500,-78.41560)">
			<line
   id="line41"
   y2="93.955002"
   x2="79.897003"
   y1="112.40000"
   x1="43.846001"
   style="fill:none;stroke:#000000;stroke-width:0.50000000" />
			<path
   id="path43"
   d="M 82.584000,92.584000 C 81.080000,92.762000 79.102000,92.764000 77.696000,92.414000 L 79.545000,94.139000 L 79.862000,96.647000 C 80.401000,95.303000 81.560000,93.700000 82.584000,92.584000 z " />
		</g><g
   id="g45"
   transform="translate(91.07500,-78.41560)">
			<line
   id="line47"
   y2="76.328003"
   x2="48.301998"
   y1="113.63100"
   x1="32.542000"
   style="fill:none;stroke:#000000;stroke-width:0.50000000" />
			<path
   id="path49"
   d="M 49.479000,73.551000 C 48.441000,74.654000 46.927000,75.927000 45.625000,76.562000 L 48.150000,76.695000 L 50.005000,78.413000 C 49.554000,77.037000 49.412000,75.064000 49.479000,73.551000 z " />
		</g><g
   id="g51"
   transform="translate(91.07500,-78.41560)">
			<line
   id="line53"
   y2="91.025002"
   x2="3.6470001"
   y1="113.02400"
   x1="37.646000"
   style="fill:none;stroke:#000000;stroke-width:0.50000000" />
			<path
   id="path55"
   d="M 1.1180000,89.384000 C 2.0240000,90.598000 3.0140000,92.310000 3.4140000,93.702000 L 3.9840000,91.239000 L 5.9970000,89.710000 C 4.5630000,89.916000 2.5960000,89.713000 1.1180000,89.384000 z " />
		</g><line
   id="line57"
   y2="34.672398"
   x2="123.62698"
   y1="0.67239648"
   x1="101.62699"
   style="fill:none;stroke:#000000;stroke-width:0.50000000" /><line
   id="line59"
   y2="34.547398"
   x2="128.89799"
   y1="0.54739648"
   x1="106.89799"
   style="fill:none;stroke:#000000;stroke-width:0.50000000" /><line
   id="line61"
   y2="33.797398"
   x2="134.37698"
   y1="-0.20260355"
   x1="112.37699"
   style="fill:none;stroke:#000000;stroke-width:0.50000000" /><rect
   id="rect73"
   height="6.3330002"
   width="72.333000"
   y="37.130001"
   x="0.33300000" /><polygon
   id="polygon75"
   points="8.4170000,113.63000 15.042000,112.00500 18.417000,113.50500 20.917000,114.88000 23.417000,113.75500 24.167000,115.88000 25.167000,113.38000 28.042000,114.50500 29.417000,113.25500 35.042000,114.13000 36.292000,115.63000 39.792000,112.00500 41.292000,111.75500 46.292000,113.75500 48.917000,116.88000 50.542000,113.50500 54.292000,114.13000 59.792000,116.63000 61.292000,113.50500 65.292000,111.75500 66.667000,113.75500 69.542000,115.38000 70.417000,121.38000 7.2920000,121.38000 8.4170000,113.63000 "
   style="stroke:#000000"
   transform="translate(91.07500,-78.41560)" />
<text
   xml:space="preserve"
   style="font-size:10.000000px;font-style:normal;font-variant:normal;font-weight:normal;font-stretch:normal;text-align:start;line-height:125.00000%;writing-mode:lr-tb;text-anchor:start;fill:#000000;fill-opacity:1.0000000;stroke:none;stroke-width:1.0000000pt;stroke-linecap:butt;stroke-linejoin:miter;stroke-opacity:1.0000000;font-family:Liberation Sans"
   x="14.329117"
   y="59.176762"
   id="text1340"
   sodipodi:linespacing="125.00000%"><tspan
     sodipodi:role="line"
     id="tspan1342"
     x="14.329117"
     y="59.176762">specular</tspan><tspan
     sodipodi:role="line"
     x="14.329117"
     y="71.676762"
     id="tspan1344">reflection</tspan></text>
<text
   xml:space="preserve"
   style="font-size:10.000000px;font-style:normal;font-variant:normal;font-weight:normal;font-stretch:normal;text-align:start;line-height:125.00000%;writing-mode:lr-tb;text-anchor:start;fill:#000000;fill-opacity:1.0000000;stroke:none;stroke-width:1.0000000pt;stroke-linecap:butt;stroke-linejoin:miter;stroke-opacity:1.0000000;font-family:Liberation Sans"
   x="105.72565"
   y="59.176762"
   id="text1346"
   sodipodi:linespacing="125.00000%"><tspan
     sodipodi:role="line"
     id="tspan1348"
     x="105.72565"
     y="59.176762">diffuse</tspan><tspan
     sodipodi:role="line"
     x="105.72565"
     y="71.676762"
     id="tspan1350">reflection</tspan></text>
</svg>