<?xml version="1.0" encoding="iso-8859-1"?>
<!-- Generator: Adobe Illustrator 11 Build 196, SVG Export Plug-In . SVG Version: 6.0.0 Build 78)  -->
<!DOCTYPE svg PUBLIC "-//W3C//DTD SVG 1.0//EN"    "http://www.w3.org/TR/2001/REC-SVG-20010904/DTD/svg10.dtd" [
	<!ENTITY ns_flows "http://ns.adobe.com/Flows/1.0/">
	<!ENTITY ns_svg "http://www.w3.org/2000/svg">
	<!ENTITY ns_xlink "http://www.w3.org/1999/xlink">
]>
<svg
	 width="144.667" height="108.839" viewBox="0 0 144.667 108.839"
	 style="overflow:visible;enable-background:new 0 0 144.667 108.839" xml:space="preserve">
	<style type="text/css">
	
	</style>
	<g id="Layer_1">
		<g>
			<line style="fill:none;stroke:#000000;stroke-width:0.5;" x1="69.083" y1="78.521" x2="113.083" y2="10.521"/>
			<path d="M116.366,5.461c-2.428,1.812-5.852,3.793-8.636,4.592l4.927,1.14l3.057,4.027
				C115.302,12.353,115.707,8.418,116.366,5.461z"/>
			<line style="fill:none;stroke:#000000;stroke-width:0.5;" x1="24.25" y1="11.055" x2="68.25" y2="79.055"/>
		</g>
		<g>
			<text transform="matrix(1 0 0 1 9.333 104.8228)"><tspan x="0" y="0" style="font-family:Liberation Sans; font-size:7.650000;">specular reflection: </tspan></text>
			<text transform="matrix(1 0 0 1 86.876 104.8228)"><tspan x="0" y="0" style="font-family:Liberation Sans; font-size:7.650000;">A=D and B=C</tspan></text>
		</g>
		<rect y="79.721" width="144.667" height="12.667"/> 
		<path style="fill:none;stroke:#000000;stroke-width:0.5;" d="M30.175,79.242c0-15.167,8.333-23.667,17.333-30.833"/>
		<path style="fill:none;stroke:#000000;stroke-width:0.5;" d="M125.483,79.089c0-22.75-12.5-35.5-26-46.25"/>
		<line style="fill:none;stroke:#000000;stroke-width:0.5;stroke-dasharray:2;" x1="68.342" y1="77.075" x2="68.342" y2="10.075"/>
		<path style="fill:none;stroke:#000000;stroke-width:0.5;" d="M44.092,39.325c9.25-6,15.25-7,23.25-7.25"/>
		<path style="fill:none;stroke:#000000;stroke-width:0.5;" d="M85.801,48.866c-6.197-4.02-10.217-4.69-15.577-4.857"/>
		<g>
			<text transform="matrix(1 0 0 1 26.0874 61)"><tspan x="0" y="0" style="font-family:Liberation Sans; font-size:7.650000;">A</tspan></text>
		</g>
		<g>
			<text transform="matrix(1 0 0 1 53.5874 29.5)"><tspan x="0" y="0" style="font-family:Liberation Sans; font-size:7.650000;">B</tspan></text>
		</g>
		<g>
			<text transform="matrix(1 0 0 1 78.5874 40)"><tspan x="0" y="0" style="font-family:Liberation Sans; font-size:7.650000;">C</tspan></text>
		</g>
		<g>
			<text transform="matrix(1 0 0 1 122.5874 52)"><tspan x="0" y="0" style="font-family:Liberation Sans; font-size:7.650000;">D</tspan></text>
		</g>
		<g>
			<text transform="matrix(1 0 0 1 56.0874 9)"><tspan x="0" y="0" style="font-family:Liberation Sans; font-size:7.650000;">normal</tspan></text>
		</g>
	</g>
</svg>
