<?xml version="1.0" encoding="UTF-8" standalone="no"?>
<!-- Generator: Adobe Illustrator 11 Build 196, SVG Export Plug-In . SVG Version: 6.0.0 Build 78)  -->
<svg
   xmlns:dc="http://purl.org/dc/elements/1.1/"
   xmlns:cc="http://web.resource.org/cc/"
   xmlns:rdf="http://www.w3.org/1999/02/22-rdf-syntax-ns#"
   xmlns:svg="http://www.w3.org/2000/svg"
   xmlns="http://www.w3.org/2000/svg"
   xmlns:sodipodi="http://inkscape.sourceforge.net/DTD/sodipodi-0.dtd"
   xmlns:inkscape="http://www.inkscape.org/namespaces/inkscape"
   width="70.042"
   height="170.175"
   viewBox="0 0 70.042 170.175"
   style="overflow:visible;enable-background:new 0 0 70.042 170.175"
   xml:space="preserve"
   id="svg2"
   sodipodi:version="0.32"
   sodipodi:docname="spherical-vs-parabolic.svg"
   sodipodi:docbase="/home/bcrowell/Documents/writing/lm/trunk/5op/ch03/figs"><metadata
   id="metadata42"><rdf:RDF><cc:Work
       rdf:about=""><dc:format>image/svg+xml</dc:format><dc:type
         rdf:resource="http://purl.org/dc/dcmitype/StillImage" /></cc:Work></rdf:RDF></metadata><defs
   id="defs40">
		
		
		
		
		
		
	</defs><sodipodi:namedview
   inkscape:cy="-30.912394"
   inkscape:cx="74.788049"
   inkscape:zoom="1.7709622"
   inkscape:window-height="996"
   inkscape:window-width="1278"
   inkscape:pageshadow="2"
   inkscape:pageopacity="0.0"
   borderopacity="1.0"
   bordercolor="#666666"
   pagecolor="#ffffff"
   id="base"
   inkscape:window-x="0"
   inkscape:window-y="0"
   inkscape:current-layer="svg2" />
	<style
   type="text/css"
   id="style4">
	
	</style>
	<rect
   style="fill:#dedede;fill-opacity:1.0000000;fill-rule:evenodd;stroke:none;stroke-width:1.0000000pt;stroke-linecap:butt;stroke-linejoin:miter;stroke-opacity:1.0000000"
   id="rect1356"
   width="114.79821"
   height="392.88657"
   x="-252.78578"
   y="-142.17386"
   transform="matrix(0.000000,-1.000000,1.000000,0.000000,0.000000,0.000000)" /><g
   id="g1320"
   transform="matrix(0.000000,-1.000000,1.000000,0.000000,-142.0533,248.6089)"><g
     transform="matrix(2.340185,0.000000,0.000000,2.340185,-5.441193e-10,-30.35519)"
     id="g7">
			<path
   style="fill:none;stroke:#000000;stroke-width:0.50000000"
   d="M 0.25000000,96.455000 C 0.25000000,113.33000 5.5000000,123.45500 10.750000,132.45500 C 15.661000,140.87400 29.103000,157.16700 45.244000,169.97900"
   id="path9" />
			<path
   style="fill:none;stroke:#000000;stroke-width:0.50000000"
   d="M 0.25000000,96.455000 C 0.25000000,79.580000 5.5000000,69.455000 10.750000,60.455000 C 15.665000,52.030000 29.125000,35.717000 45.283000,22.900000"
   id="path11" />
		</g><path
     style="fill:none;stroke:#000000;stroke-width:1.1700925"
     d="M 102.48840,32.925752 C 42.184171,62.063394 0.58504621,123.81151 0.58504621,195.27373 C 0.58504621,266.83425 42.298841,328.65491 102.73645,357.74340"
     id="path13" /></g><g
   id="g21"
   transform="translate(-66.69972,115.7124)">
			<text
   id="text23"
   transform="translate(29.46040,73.22710)"><tspan
     id="tspan25"
     style="font-size:8.5000000px;font-family:Liberation Sans"
     y="0"
     x="0">parabolic</tspan></text>


		</g><g
   id="g15"
   transform="matrix(0.000000,-1.000000,1.000000,0.000000,-105.3238,224.2121)">
			<path
   id="path17"
   d="M 21.523000,51.435000 C 23.856000,59.102000 32.190000,50.768000 35.523000,65.435000"
   style="fill:none;stroke:#000000;stroke-width:0.50000000" />
			<path
   id="path19"
   d="M 20.640000,48.546000 C 21.557000,49.751000 22.931000,51.175000 24.159000,51.942000 L 21.634000,51.811000 L 19.610000,53.326000 C 20.203000,52.005000 20.550000,50.058000 20.640000,48.546000 z " />
		</g><g
   id="g27"
   transform="matrix(0.676517,0.736427,0.736427,-0.676517,-113.5167,220.0333)">
			<path
   id="path29"
   d="M 17.834000,41.542000 C 15.167000,36.042000 17.834000,18.042000 19.334000,15.375000"
   style="fill:none;stroke:#000000;stroke-width:0.50000000" />
			<path
   id="path31"
   d="M 19.152000,44.253000 C 18.059000,43.206000 16.481000,42.012000 15.149000,41.445000 L 17.664000,41.181000 L 19.428000,39.370000 C 19.047000,40.768000 19.007000,42.746000 19.152000,44.253000 z " />
		</g><g
   id="g33"
   transform="translate(-122.2819,222.1173)">
			<text
   id="text35"
   transform="translate(11.18850,10.00000)"><tspan
     id="tspan37"
     style="font-size:8.5000000px;font-family:Liberation Sans"
     y="0"
     x="0">spherical</tspan></text>


		</g>
</svg>