<?xml version="1.0" encoding="UTF-8" standalone="no"?>
<!-- Generator: Adobe Illustrator 11 Build 196, SVG Export Plug-In . SVG Version: 6.0.0 Build 78)  -->
<svg
   xmlns:dc="http://purl.org/dc/elements/1.1/"
   xmlns:cc="http://web.resource.org/cc/"
   xmlns:rdf="http://www.w3.org/1999/02/22-rdf-syntax-ns#"
   xmlns:svg="http://www.w3.org/2000/svg"
   xmlns="http://www.w3.org/2000/svg"
   xmlns:sodipodi="http://inkscape.sourceforge.net/DTD/sodipodi-0.dtd"
   xmlns:inkscape="http://www.inkscape.org/namespaces/inkscape"
   width="88.688"
   height="147.471"
   viewBox="0 0 88.688 147.471"
   style="overflow:visible;enable-background:new 0 0 88.688 147.471"
   xml:space="preserve"
   id="svg1479"
   sodipodi:version="0.32"
   sodipodi:docname="spherical-and-parabolic-stopped.svg"
   sodipodi:docbase="/home/bcrowell/Documents/writing/lm/trunk/5op/ch03/figs"><metadata
   id="metadata1523"><rdf:RDF><cc:Work
       rdf:about=""><dc:format>image/svg+xml</dc:format><dc:type
         rdf:resource="http://purl.org/dc/dcmitype/StillImage" /></cc:Work></rdf:RDF></metadata><defs
   id="defs1521">
		
		
		
		
		
		
		
	
			
			
		
			
			
		
			
			
		
			
			
		
			
			
		
			
			
		</defs><sodipodi:namedview
   inkscape:cy="694.78971"
   inkscape:cx="2.1917656"
   inkscape:zoom="1.7862742"
   inkscape:window-height="996"
   inkscape:window-width="1278"
   inkscape:pageshadow="2"
   inkscape:pageopacity="0.0"
   borderopacity="1.0"
   bordercolor="#666666"
   pagecolor="#ffffff"
   id="base"
   inkscape:window-x="0"
   inkscape:window-y="0"
   inkscape:current-layer="svg1479" />
	<rect
   style="fill:#dedede;fill-opacity:1.0000000;fill-rule:evenodd;stroke:none;stroke-width:1.0000000pt;stroke-linecap:butt;stroke-linejoin:miter;stroke-opacity:1.0000000;overflow:visible"
   id="rect1356"
   width="227.32294"
   height="392.88657"
   x="382.33438"
   y="-200.47075"
   transform="matrix(0.000000,-1.000000,1.000000,0.000000,0.000000,0.000000)" /><path
   style="fill:none;stroke:#000000;stroke-width:1.1827985;stroke-dasharray:4.7311940 "
   d="M -7.7771557,-390.21620 C 32.142294,-390.21620 56.093963,-402.63558 77.384336,-415.05497 C 97.300297,-426.67241 135.84297,-458.47077 166.15100,-496.65387"
   id="path1484" /><path
   style="fill:none;stroke:#000000;stroke-width:1.1827985;stroke-dasharray:4.7311940 "
   d="M -7.7771557,-390.21620 C -47.696605,-390.21620 -71.648275,-402.63558 -92.938648,-415.05497 C -112.86880,-426.68188 -151.45879,-458.52281 -181.77864,-496.74613"
   id="path1486" /><path
   id="path1488"
   d="M -171.98507,-493.22612 C -142.52866,-432.26705 -80.110015,-390.21620 -7.8717795,-390.21620 C 64.465811,-390.21620 126.95779,-432.38297 156.36216,-493.47687"
   style="fill:none;stroke:#000000;stroke-width:1.1827985" /><line
   style="fill:none;stroke:#000000"
   x1="-39.033794"
   y1="-569.85492"
   x2="-171.03410"
   y2="-569.85492"
   id="line1492" /><line
   style="fill:none;stroke:#000000"
   x1="161.80302"
   y1="-569.85492"
   x2="29.802721"
   y2="-569.85492"
   id="line1494" /><line
   style="fill:none;stroke:#000000"
   x1="-26.202795"
   y1="-599.42487"
   x2="-26.202795"
   y2="-437.38147"
   id="line1498" /><path
   d="M -26.202791,-430.24447 C -27.449460,-433.60361 -29.576132,-437.77180 -31.825815,-440.35266 L -26.202791,-438.31825 L -20.579767,-440.35266 C -22.829449,-437.77180 -24.956121,-433.60361 -26.202791,-430.24447 z "
   id="path1500" /><line
   style="fill:none;stroke:#000000"
   x1="3.0265276"
   y1="-599.42487"
   x2="3.0265276"
   y2="-437.38147"
   id="line1504" /><path
   d="M 3.0265258,-430.24447 C 1.7798562,-433.60361 -0.34681548,-437.77180 -2.5964982,-440.35266 L 3.0265258,-438.31825 L 8.6495499,-440.35266 C 6.3998672,-437.77180 4.2731955,-433.60361 3.0265258,-430.24447 z "
   id="path1506" /><line
   style="fill:none;stroke:#000000"
   x1="17.643553"
   y1="-599.42487"
   x2="17.643553"
   y2="-437.38147"
   id="line1510" /><path
   d="M 17.643550,-430.24447 C 16.396880,-433.60361 14.270208,-437.77180 12.018160,-440.35266 L 17.643550,-438.31825 L 23.266574,-440.35266 C 21.014525,-437.77180 18.887854,-433.60361 17.643550,-430.24447 z "
   id="path1512" /><line
   style="fill:none;stroke:#000000"
   x1="-11.588134"
   y1="-599.42487"
   x2="-11.588134"
   y2="-437.38147"
   id="line1516" /><path
   d="M -11.588132,-430.24447 C -12.832436,-433.60361 -14.961474,-437.77180 -17.211156,-440.35266 L -11.588132,-438.31825 L -5.9651084,-440.35266 C -8.2147911,-437.77180 -10.341463,-433.60361 -11.588132,-430.24447 z "
   id="path1518" />
</svg>