<?xml version="1.0" encoding="UTF-8" standalone="no"?>
<!-- Generator: Adobe Illustrator 11 Build 196, SVG Export Plug-In . SVG Version: 6.0.0 Build 78)  -->
<svg
   xmlns:a="http://ns.adobe.com/AdobeSVGViewerExtensions/3.0/"
   xmlns:dc="http://purl.org/dc/elements/1.1/"
   xmlns:cc="http://web.resource.org/cc/"
   xmlns:rdf="http://www.w3.org/1999/02/22-rdf-syntax-ns#"
   xmlns:svg="http://www.w3.org/2000/svg"
   xmlns="http://www.w3.org/2000/svg"
   xmlns:xlink="http://www.w3.org/1999/xlink"
   xmlns:sodipodi="http://inkscape.sourceforge.net/DTD/sodipodi-0.dtd"
   xmlns:inkscape="http://www.inkscape.org/namespaces/inkscape"
   width="147.401"
   height="408.244"
   viewBox="0 0 147.401 408.244"
   style="overflow:visible;enable-background:new 0 0 147.401 408.244"
   xml:space="preserve"
   id="svg2"
   sodipodi:version="0.32"
   sodipodi:docname="thetai-and-thetao.svg"
   sodipodi:docbase="/home/bcrowell/Documents/writing/lm/trunk/5op/ch03/figs"><metadata
   id="metadata290"><rdf:RDF><cc:Work
       rdf:about=""><dc:format>image/svg+xml</dc:format><dc:type
         rdf:resource="http://purl.org/dc/dcmitype/StillImage" /></cc:Work></rdf:RDF></metadata><defs
   id="defs288">
		
			<linearGradient
   gradientTransform="matrix(0.750500,0.660800,-6.610000e-2,7.510000e-2,34.57770,285.3899)"
   y2="361.31601"
   x2="40.932999"
   y1="323.31589"
   x1="55.266102"
   gradientUnits="userSpaceOnUse"
   id="XMLID_3_">
			<stop
   id="stop8"
   style="stop-color:#dedede;stop-opacity:1.0000000;"
   offset="0.0000000" />
			<stop
   id="stop10"
   style="stop-color:#000000"
   offset="1" />
			<midPointStop
   style="stop-color:#FFFFFF"
   offset="0" />
			<midPointStop
   style="stop-color:#FFFFFF"
   offset="0.5" />
			<midPointStop
   style="stop-color:#000000"
   offset="1" />
		</linearGradient>
		
		
			<linearGradient
   gradientTransform="matrix(0.930900,0.365100,-3.650000e-2,9.310000e-2,18.39470,279.1507)"
   y2="320.48041"
   x2="84.861298"
   y1="352.73050"
   x1="83.361298"
   gradientUnits="userSpaceOnUse"
   id="XMLID_4_">
			<stop
   id="stop15"
   style="stop-color:#dedede;stop-opacity:1.0000000;"
   offset="0.0000000" />
			<stop
   id="stop17"
   style="stop-color:#000000"
   offset="1" />
			<midPointStop
   style="stop-color:#FFFFFF"
   offset="0" />
			<midPointStop
   style="stop-color:#FFFFFF"
   offset="0.5" />
			<midPointStop
   style="stop-color:#000000"
   offset="1" />
		</linearGradient>
		
		 
		
		
		
		
		
		
		
		
		
		 
		
		
		
		
		
		
		
		
		
		
		
		
			
		
		
		
		
		
		
		
		
			
		
		
		
		
		
		
		
		
		
		
		
		
		
		
			
		
		
		
		
		
		
		
		
		
		
		
		
		
		
		
		
		
		
	
			
			
			
		
			
		
			
			
		
			
			
		
			
			
			
		
			
			
			
			
			
			
				 
			
			
		<linearGradient
   inkscape:collect="always"
   xlink:href="#XMLID_3_"
   id="linearGradient2634"
   gradientUnits="userSpaceOnUse"
   gradientTransform="matrix(0.750500,0.660800,-6.610000e-2,7.510000e-2,34.57770,285.3899)"
   x1="55.266102"
   y1="323.31589"
   x2="40.932999"
   y2="361.31601" /><linearGradient
   inkscape:collect="always"
   xlink:href="#XMLID_4_"
   id="linearGradient2636"
   gradientUnits="userSpaceOnUse"
   gradientTransform="matrix(0.930900,0.365100,-3.650000e-2,9.310000e-2,18.39470,279.1507)"
   x1="83.361298"
   y1="352.73050"
   x2="84.861298"
   y2="320.48041" /></defs><sodipodi:namedview
   inkscape:cy="46.428224"
   inkscape:cx="78.228378"
   inkscape:zoom="5.7814479"
   inkscape:window-height="996"
   inkscape:window-width="1278"
   inkscape:pageshadow="2"
   inkscape:pageopacity="0.0"
   borderopacity="1.0"
   bordercolor="#666666"
   pagecolor="#ffffff"
   id="base"
   inkscape:window-x="0"
   inkscape:window-y="0"
   inkscape:current-layer="svg2" />
	<style
   type="text/css"
   id="style4">
	
	</style>
	<g
   id="g2493"
   transform="translate(-1.447566e-23,15.99999)"><rect
     y="-37.216293"
     x="-13.742186"
     height="96.927605"
     width="184.25197"
     id="rect1588"
     style="fill:#dedede;fill-opacity:1.0000000;fill-rule:evenodd;stroke:none;stroke-width:1.0000000pt;stroke-linecap:butt;stroke-linejoin:miter;stroke-opacity:1.0000000" /><rect
     y="9.9444103"
     style="fill:none"
     width="159.39046"
     height="3.0645149"
     id="rect21"
     x="-1.4475661e-23" /><path
     style="fill:none;stroke:#000000"
     d="M 31.291788,-32.714413 C 23.753774,-19.835665 19.432743,-4.8450625 19.432743,11.155511 C 19.432743,27.421012 23.897592,42.643021 31.669175,55.663424"
     id="path23" /><g
     transform="matrix(1.081339,0.000000,0.000000,1.081339,-1.447566e-23,-32.98691)"
     id="g25">
			<line
   style="fill:none;stroke:#000000;stroke-width:0.50000000"
   x1="89.848999"
   y1="61.365002"
   x2="27.462000"
   y2="2.9570000"
   id="line27" />
			<path
   d="M 91.042000,62.485000 C 90.284000,62.167000 89.253000,61.870000 88.468000,61.842000 L 89.690000,61.219000 L 90.231000,59.959000 C 90.310000,60.741000 90.674000,61.750000 91.042000,62.485000 z "
   id="path29" />
		</g><line
     style="fill:none;stroke:#000000;stroke-width:0.54066950"
     x1="29.695732"
     y1="-29.789391"
     x2="149.86386"
     y2="11.368536"
     id="line31" /><path
     id="path35"
     d="M 152.70021,15.488436 C 152.70021,15.488436 152.24064,16.114531 152.37148,16.511383 C 152.50124,16.908234 153.83777,17.467286 153.81615,18.235037 C 153.79452,19.002788 153.45498,19.957610 153.84102,20.662643 C 154.22706,21.367676 155.17107,21.639092 155.17107,21.639092 L 159.17634,21.557992 L 159.17634,-1.9146338 L 153.46687,-1.9005764 C 153.18897,-0.53808929 152.32066,3.7634773 152.65479,5.0318879 C 152.98892,6.3002985 152.87971,6.0396958 152.64398,6.7706810 C 152.40933,7.5016662 151.30203,8.4348617 150.88896,8.9149763 C 150.47589,9.3950908 149.26912,11.038726 150.13094,11.670228 C 150.44453,11.900553 150.76136,11.787013 150.76136,11.787013 L 152.14115,12.407701 C 151.78647,12.809959 151.82540,14.185423 151.67077,14.772590 C 151.59832,15.046168 152.62343,15.498168 152.62343,15.498168 L 152.83321,15.507900"
     style="fill:#aaaaaa;fill-opacity:1.0000000" /><path
     id="path37"
     d="M 153.78046,16.161029 L 151.96381,15.189986 C 151.96381,15.189986 151.52587,15.049412 151.41666,14.787728 C 151.17552,14.214619 151.53236,12.825098 151.88704,12.422840 L 152.26334,12.413108 C 152.26334,12.413108 150.89004,12.068161 150.64566,11.827022 L 150.91383,11.764305 C 150.91383,11.764305 150.39155,11.983816 150.07904,11.753491 C 149.21829,11.121989 150.42399,9.4772725 150.83706,8.9971580 C 151.25013,8.5170435 152.35742,7.5827666 152.59207,6.8528628 C 152.82780,6.1218776 152.93702,6.3835617 152.60289,5.1151510 C 152.26983,3.8467404 153.13815,-0.45482618 153.41497,-1.8173133 L 157.21263,0.26102023 L 155.12024,21.721274 C 155.12024,21.721274 154.17515,21.449858 153.78911,20.744825 C 153.40308,20.039792 153.74370,19.084970 153.76424,18.317219 C 153.78587,17.549468 152.44933,16.990416 152.31957,16.593564 C 152.18873,16.196713 152.64830,15.570618 152.64830,15.570618"
     style="fill:none" /><path
     id="path39"
     d="M 153.45714,-1.8129880 C 153.17924,-0.45050083 152.31092,3.8499844 152.64506,5.1194764 C 152.97919,6.3878870 152.86998,6.1272843 152.63424,6.8582695 C 152.39851,7.5881733 151.29230,8.5224502 150.87923,9.0025647 C 150.46724,9.4826792 149.26047,11.126315 150.12121,11.757816 C 150.43480,11.987060 150.75163,11.874601 150.75163,11.874601"
     style="fill:none;stroke:#000000;stroke-width:0.32440171" /><path
     id="path41"
     d="M 152.13142,12.496371 C 151.77674,12.898629 151.81567,14.274092 151.66104,14.861259 C 151.58859,15.134838 152.61370,15.587919 152.61370,15.587919 L 154.08540,15.656044 L 154.44549,15.557642 L 154.62607,15.492761"
     style="fill:none;stroke:#000000;stroke-width:0.32440171" /><path
     id="path43"
     d="M 152.69047,15.576024 C 152.69047,15.576024 152.23090,16.202120 152.36175,16.598971 C 152.49151,16.995823 153.82804,17.554875 153.80642,18.322626 C 153.78479,19.089295 153.44525,20.045199 153.83129,20.750232 C 154.21732,21.455265 155.16133,21.726681 155.16133,21.726681"
     style="fill:none;stroke:#000000;stroke-width:0.32440171" /><ellipse
     sodipodi:ry="0.58399999"
     sodipodi:rx="2.6489999"
     sodipodi:cy="38.134998"
     sodipodi:cx="142.60201"
     id="ellipse45"
     ry="0.58399999"
     rx="2.6489999"
     cy="38.134998"
     cx="142.60201"
     style="fill:none;stroke:#000000;stroke-width:0.30000001"
     transform="matrix(0.163931,1.068795,-1.068795,0.163931,171.5831,-150.4213)" /><path
     id="path47"
     d="M 152.27524,7.3308146 C 152.02004,6.2127101 151.66104,5.4330647 151.38422,5.4763182 C 151.04035,5.5293038 150.95492,6.8398867 151.19498,8.4035029 C 151.20580,8.4705459 151.21661,8.5375889 151.22742,8.6035506"
     style="fill:none;stroke:#000000;stroke-width:0.32440171" /><line
     id="line49"
     y2="6.6949859"
     x2="159.28664"
     y1="6.7587867"
     x1="154.63257"
     style="fill:none;stroke:#000000;stroke-width:0.32440171" /><g
     transform="matrix(1.081339,0.000000,0.000000,1.081339,-1.447566e-23,-32.98691)"
     id="g51">
			<path
   style="fill:none"
   d="M 65.700000,37.770000 L 66.978000,38.454000 C 66.978000,38.454000 67.287000,38.553000 67.363000,38.737000 C 67.532000,39.140000 67.282000,40.118000 67.032000,40.401000 L 66.767000,40.408000 C 66.767000,40.408000 67.733000,40.651000 67.906000,40.820000 L 67.717000,40.864000 C 67.717000,40.864000 68.085000,40.710000 68.305000,40.872000 C 68.911000,41.317000 68.062000,42.474000 67.771000,42.811000 C 67.480000,43.148000 66.702000,43.806000 66.536000,44.320000 C 66.370000,44.834000 66.293000,44.651000 66.528000,45.544000 C 66.762000,46.437000 66.152000,49.463000 65.956000,50.422000 L 63.284000,48.959000 L 64.757000,33.856000 C 64.757000,33.856000 65.422000,34.047000 65.694000,34.543000 C 65.965000,35.039000 65.727000,35.711000 65.712000,36.251000 C 65.697000,36.791000 66.637000,37.185000 66.729000,37.464000 C 66.821000,37.743000 66.497000,38.184000 66.497000,38.184000"
   id="path53" />
			<path
   style="fill:none;stroke:#000000;stroke-width:0.30000001"
   d="M 65.927000,50.420000 C 66.122000,49.461000 66.734000,46.434000 66.499000,45.542000 C 66.264000,44.649000 66.341000,44.833000 66.507000,44.318000 C 66.673000,43.803000 67.452000,43.147000 67.742000,42.809000 C 68.032000,42.471000 68.881000,41.314000 68.275000,40.870000 C 68.055000,40.708000 67.832000,40.788000 67.832000,40.788000 L 66.861000,40.351000 C 67.111000,40.068000 67.083000,39.100000 67.192000,38.686000 C 67.243000,38.494000 66.522000,38.175000 66.522000,38.175000 L 65.486000,38.127000 L 65.233000,38.196000 L 65.106000,38.241000"
   id="path55" />
			<path
   style="fill:none;stroke:#000000;stroke-width:0.30000001"
   d="M 66.467000,38.183000 C 66.467000,38.183000 66.791000,37.743000 66.699000,37.463000 C 66.607000,37.183000 65.667000,36.790000 65.682000,36.250000 C 65.697000,35.710000 65.936000,35.038000 65.664000,34.542000 C 65.392000,34.046000 64.727000,33.854000 64.727000,33.854000"
   id="path57" />
			
				<ellipse
   transform="matrix(-0.151600,-0.988400,0.988400,-0.151600,32.48250,114.5565)"
   style="fill:none;stroke:#000000;stroke-width:0.30000001"
   cx="65.403000"
   cy="43.338001"
   rx="2.0160000"
   ry="0.44400001"
   id="ellipse59"
   sodipodi:cx="65.403000"
   sodipodi:cy="43.338001"
   sodipodi:rx="2.0160000"
   sodipodi:ry="0.44400001" /> 
			<path
   style="fill:none;stroke:#000000;stroke-width:0.30000001"
   d="M 66.759000,43.985000 C 66.939000,44.771000 67.192000,45.320000 67.386000,45.290000 C 67.629000,45.253000 67.688000,44.331000 67.519000,43.230000 C 67.512000,43.183000 67.504000,43.136000 67.497000,43.090000"
   id="path61" />
			<line
   style="fill:none;stroke:#000000;stroke-width:0.30000001"
   x1="65.099998"
   y1="44.387001"
   x2="61.825001"
   y2="44.431999"
   id="line63" />
		</g><line
     style="fill:none;stroke:#000000;stroke-width:0.54066950"
     x1="19.527901"
     y1="11.476667"
     x2="150.12013"
     y2="11.476667"
     id="line65" /><g
     transform="matrix(1.081339,0.000000,0.000000,1.081339,-1.447566e-23,-32.98691)"
     id="g67">
			<line
   style="fill:none;stroke:#000000;stroke-width:0.50000000"
   x1="133.61900"
   y1="41.118999"
   x2="127.57400"
   y2="41.118999"
   id="line69" />
			<path
   d="M 125.93700,41.119000 C 126.70800,40.833000 127.66300,40.346000 128.25500,39.829000 L 127.78900,41.119000 L 128.25500,42.409000 C 127.66300,41.893000 126.70800,41.405000 125.93700,41.119000 z "
   id="path71" />
		</g><g
     transform="matrix(1.081339,0.000000,0.000000,1.081339,-1.447566e-23,-32.98691)"
     id="g73">
			<line
   style="fill:none;stroke:#000000;stroke-width:0.50000000"
   x1="44.236000"
   y1="41.118999"
   x2="50.280998"
   y2="41.118999"
   id="line75" />
			<path
   d="M 51.918000,41.119000 C 51.147000,41.405000 50.192000,41.892000 49.600000,42.409000 L 50.066000,41.119000 L 49.600000,39.830000 C 50.192000,40.346000 51.147000,40.833000 51.918000,41.119000 z "
   id="path77" />
		</g><line
     style="fill:none;stroke:#000000;stroke-width:0.54066950;stroke-dasharray:2.1626780 "
     x1="107.71650"
     y1="11.469098"
     x2="29.695732"
     y2="-29.789391"
     id="line79" /><circle
     transform="matrix(1.081339,0.000000,0.000000,1.081339,-1.447566e-23,-32.98691)"
     cx="99.613998"
     cy="41.112000"
     r="1.0230000"
     id="circle81"
     sodipodi:cx="99.613998"
     sodipodi:cy="41.112000"
     sodipodi:rx="1.0230000"
     sodipodi:ry="1.0230000" /><g
     transform="matrix(1.081339,0.000000,0.000000,1.081339,-1.447566e-23,-32.98691)"
     id="g83">
			<text
   transform="translate(100.2769,39.60500)"
   id="text85"><tspan
     x="0"
     y="0"
     style="font-size:8.5000000px;font-family:Liberation Sans"
     id="tspan87">C</tspan></text>

		</g><g
     transform="matrix(1.081339,0.000000,0.000000,1.081339,-1.447566e-23,-32.98691)"
     id="g89">
			<line
   style="fill:none;stroke:#000000;stroke-width:0.50000000"
   x1="132.97701"
   y1="39.106998"
   x2="127.26100"
   y2="37.139999"
   id="line91" />
			<path
   d="M 125.71300,36.607000 C 126.53400,36.587000 127.59700,36.438000 128.32500,36.142000 L 127.46400,37.209000 L 127.48500,38.581000 C 127.09400,37.900000 126.34900,37.128000 125.71300,36.607000 z "
   id="path93" />
		</g><g
     transform="matrix(1.081339,0.000000,0.000000,1.081339,-1.447566e-23,-32.98691)"
     id="g95">
			<text
   transform="translate(69.41500,39.12260)"
   id="text97"><tspan
     x="0"
     y="0"
     style="font-size:8.5000000px;font-family:Liberation Sans"
     id="tspan99">I</tspan></text>

		</g><g
     transform="matrix(1.081339,0.000000,0.000000,1.081339,-1.270380,-31.44036)"
     id="g101">
			<text
   transform="translate(134.5142,47.07960)"
   id="text103"><tspan
     x="0"
     y="0"
     style="font-size:8.5000000px;font-family:Liberation Sans"
     id="tspan105">O</tspan></text>

		</g><g
     transform="matrix(1.081339,0.000000,0.000000,1.081339,-1.447566e-23,-32.98691)"
     id="g107">
			<path
   style="fill:none;stroke:#000000"
   d="M 14.805000,2.2410000 C 5.6840000,4.0780000 13.401000,20.607000 8.4900000,21.755000"
   id="path109" />
			<path
   style="fill:none;stroke:#000000"
   d="M 14.805000,41.270000 C 5.6840000,39.434000 13.402000,22.903000 8.4910000,21.756000"
   id="path111" />
		</g><g
     transform="matrix(1.081339,0.000000,0.000000,1.081339,-1.447566e-23,-32.98691)"
     id="g113">
			<text
   transform="translate(9.420000e-2,26.04540)"
   id="text115"><tspan
     x="0"
     y="0"
     style="font-size:8.5000000px;font-family:Liberation Sans"
     id="tspan117">1</tspan></text>

		</g><g
     transform="matrix(1.081339,0.000000,0.000000,1.081339,24.00000,-36.98691)"
     id="g133">
			<text
   transform="translate(126.0645,12.78080)"
   id="text135"><tspan
     x="0"
     y="0"
     style="font-size:8.5000000px;font-family:Liberation Sans"
     id="tspan137">1</tspan></text>

		</g></g><g
   id="g2562"
   transform="translate(-1.447566e-23,-2.494697)"><rect
     y="196.05574"
     x="-11.362580"
     height="96.927605"
     width="184.25197"
     id="rect2459"
     style="fill:#dedede;fill-opacity:1.0000000;fill-rule:evenodd;stroke:none;stroke-width:1.0000000pt;stroke-linecap:butt;stroke-linejoin:miter;stroke-opacity:1.0000000;overflow:visible" /><path
     style="fill:none;stroke:#000000"
     d="M 31.291788,200.51743 C 23.753774,213.39618 19.432743,228.38678 19.432743,244.38736 C 19.432743,260.65286 23.897592,275.87487 31.669175,288.89527"
     id="path145" /><line
     style="fill:none;stroke:#000000;stroke-width:0.54066950"
     x1="73.739754"
     y1="244.67609"
     x2="29.695732"
     y2="203.44138"
     id="line147" /><line
     style="fill:none;stroke:#000000;stroke-width:0.54066950"
     x1="29.695732"
     y1="203.44138"
     x2="149.86386"
     y2="244.60039"
     id="line149" /><line
     style="fill:none;stroke:#000000;stroke-width:0.54066950"
     x1="19.527901"
     y1="244.70853"
     x2="150.12013"
     y2="244.70853"
     id="line151" /><line
     style="fill:none;stroke:#000000;stroke-width:0.54066950;stroke-dasharray:2.1626780 "
     x1="107.71650"
     y1="244.69987"
     x2="29.695732"
     y2="203.44138"
     id="line153" /><line
     style="fill:none;stroke:#000000;stroke-width:0.54066950"
     x1="29.695732"
     y1="203.44138"
     x2="29.695732"
     y2="244.54524"
     id="line155" /><g
     transform="matrix(1.081339,0.000000,0.000000,1.081339,-1.447566e-23,-32.98691)"
     id="g157">
			<text
   transform="translate(45.39790,251.6973)"
   id="text159"><tspan
     x="0"
     y="0"
     style="font-size:10.000000px;font-family:Symbol"
     id="tspan161">θ</tspan></text>

		</g><g
     transform="matrix(1.081339,0.000000,0.000000,1.081339,-1.447566e-23,-32.98691)"
     id="g163">
			<text
   transform="translate(50.06450,255.5308)"
   id="text165"><tspan
     x="0"
     y="0"
     style="font-size:6.8000002px;font-family:Liberation Sans"
     id="tspan167">i</tspan></text>

		</g><g
     transform="matrix(1.081339,0.000000,0.000000,1.081339,-1.447566e-23,-32.98691)"
     id="g169">
			<text
   transform="translate(99.06450,251.6973)"
   id="text171"><tspan
     x="0"
     y="0"
     style="font-size:10.000000px;font-family:Symbol"
     id="tspan173">θ</tspan></text>

		</g><g
     transform="matrix(1.081339,0.000000,0.000000,1.081339,-1.447566e-23,-32.98691)"
     id="g175">
			<text
   transform="translate(103.7310,255.5308)"
   id="text177"><tspan
     x="0"
     y="0"
     style="font-size:6.8000002px;font-family:Liberation Sans"
     id="tspan179">o</tspan></text>

		</g><path
     style="fill:none;stroke:#000000;stroke-width:0.54066950"
     d="M 123.02610,235.23382 C 121.98910,238.19994 121.42572,241.38772 121.42572,244.70743"
     id="path181" /><path
     style="fill:none;stroke:#000000;stroke-width:0.54066950"
     d="M 62.485174,234.03570 C 59.860764,236.81041 58.250651,240.55617 58.250651,244.67716"
     id="path183" /><g
     transform="matrix(1.081339,0.000000,0.000000,1.081339,24.00000,-36.98691)"
     id="g187">
			<text
   transform="translate(126.0645,228.0308)"
   id="text189"><tspan
     x="0"
     y="0"
     style="font-size:8.5000000px;font-family:Liberation Sans"
     id="tspan191">3</tspan></text>

		</g></g><g
   id="g2547"
   transform="translate(-1.447566e-23,3.844694)"><rect
     y="82.327682"
     x="-12.461403"
     height="96.927605"
     width="184.25197"
     id="rect2457"
     style="fill:#dedede;fill-opacity:1.0000000;fill-rule:evenodd;stroke:none;stroke-width:1.0000000pt;stroke-linecap:butt;stroke-linejoin:miter;stroke-opacity:1.0000000;overflow:visible" /><path
     style="fill:none;stroke:#000000"
     d="M 31.291788,86.706504 C 23.753774,99.585251 19.432743,114.57585 19.432743,130.57643 C 19.432743,146.84193 23.897592,162.06394 31.669175,175.08434"
     id="path119" /><line
     style="fill:none;stroke:#000000;stroke-width:0.54066950"
     x1="73.739754"
     y1="130.86514"
     x2="29.695732"
     y2="89.630440"
     id="line121" /><line
     style="fill:none;stroke:#000000;stroke-width:0.54066950"
     x1="29.695732"
     y1="89.630440"
     x2="51.486874"
     y2="97.093842"
     id="line123" /><line
     style="fill:none;stroke:#000000;stroke-width:0.54066950"
     x1="51.486874"
     y1="97.093842"
     x2="149.86386"
     y2="130.78946"
     id="line125" /><line
     style="fill:none;stroke:#000000;stroke-width:0.54066950"
     x1="19.527901"
     y1="130.89760"
     x2="150.12013"
     y2="130.89760"
     id="line127" /><line
     style="fill:none;stroke:#000000;stroke-width:0.54066950;stroke-dasharray:2.1626780 "
     x1="103.33708"
     y1="130.88893"
     x2="29.695732"
     y2="89.630440"
     id="line129" /><line
     style="fill:none;stroke:#000000;stroke-width:0.54066950"
     x1="29.695732"
     y1="89.630440"
     x2="29.695732"
     y2="130.73431"
     id="line131" /><g
     transform="matrix(1.081339,0.000000,0.000000,1.081339,24.00000,-36.98691)"
     id="g139">
			<text
   transform="translate(126.0645,122.7808)"
   id="text141"><tspan
     x="0"
     y="0"
     style="font-size:8.5000000px;font-family:Liberation Sans"
     id="tspan143">2</tspan></text>

		</g><path
     style="fill:none;stroke:#000000;stroke-width:0.54066950"
     d="M 47.121510,106.00516 C 48.524006,104.51399 49.736187,102.84224 50.722368,101.02776"
     id="path213" /><path
     style="fill:none;stroke:#000000;stroke-width:0.54066950"
     d="M 52.146492,101.84633 C 52.833142,100.59306 53.411659,99.272744 53.873390,97.898363"
     id="path215" /></g><rect
   style="fill:#dedede;fill-opacity:1.0000000;fill-rule:evenodd;stroke:none;stroke-width:1.0000000pt;stroke-linecap:butt;stroke-linejoin:miter;stroke-opacity:1.0000000;overflow:visible"
   id="rect2461"
   width="184.25197"
   height="120.00287"
   x="-11.362579"
   y="300.94971" /><polygon
   id="polygon12"
   points="27.564000,323.84300 73.252000,361.65600 68.002000,361.65600 27.564000,323.84300 "
   style="font-size:9.2477942px;font-style:normal;font-variant:normal;font-weight:normal;font-stretch:normal;text-align:start;line-height:115.59741%;writing-mode:lr-tb;text-anchor:start;fill:url(#linearGradient2634);font-family:Liberation Sans"
   transform="matrix(1.081339,0.000000,0.000000,1.081339,-1.447566e-23,-24.98691)" /><polygon
   id="polygon19"
   points="27.377000,323.40600 138.59100,361.70700 130.43900,361.78100 27.377000,323.40600 "
   style="font-size:9.2477942px;font-style:normal;font-variant:normal;font-weight:normal;font-stretch:normal;text-align:start;line-height:115.59741%;writing-mode:lr-tb;text-anchor:start;fill:url(#linearGradient2636);font-family:Liberation Sans"
   transform="matrix(1.081339,0.000000,0.000000,1.081339,-1.447566e-23,-24.98691)" /><path
   id="path185"
   d="M 62.485174,355.84663 C 59.860764,358.62134 58.250651,362.36710 58.250651,366.48809"
   style="font-size:10.000000px;font-style:normal;font-variant:normal;font-weight:normal;font-stretch:normal;text-align:start;line-height:125.00000%;writing-mode:lr-tb;text-anchor:start;fill:none;stroke:#000000;stroke-width:0.54066950;font-family:Liberation Sans" /><path
   id="path193"
   d="M 31.291788,322.05803 C 23.753774,334.93678 19.432743,349.92738 19.432743,365.92795 C 19.432743,382.19345 23.897592,397.41546 31.669175,410.43587"
   style="font-size:10.000000px;font-style:normal;font-variant:normal;font-weight:normal;font-stretch:normal;text-align:start;line-height:125.00000%;writing-mode:lr-tb;text-anchor:start;fill:none;stroke:#000000;font-family:Liberation Sans" /><line
   id="line195"
   y2="324.98199"
   x2="29.695732"
   y1="366.21667"
   x1="73.739754"
   style="font-size:10.000000px;font-style:normal;font-variant:normal;font-weight:normal;font-stretch:normal;text-align:start;line-height:125.00000%;writing-mode:lr-tb;text-anchor:start;fill:none;stroke:#000000;stroke-width:0.54066950;font-family:Liberation Sans" /><line
   id="line197"
   y2="324.98199"
   x2="29.695732"
   y1="366.14099"
   x1="149.86386"
   style="font-size:10.000000px;font-style:normal;font-variant:normal;font-weight:normal;font-stretch:normal;text-align:start;line-height:125.00000%;writing-mode:lr-tb;text-anchor:start;fill:none;stroke:#000000;stroke-width:0.54066950;font-family:Liberation Sans" /><line
   id="line199"
   y2="366.24911"
   x2="150.12013"
   y1="366.24911"
   x1="19.527901"
   style="font-size:10.000000px;font-style:normal;font-variant:normal;font-weight:normal;font-stretch:normal;text-align:start;line-height:125.00000%;writing-mode:lr-tb;text-anchor:start;fill:none;stroke:#000000;stroke-width:0.54066950;font-family:Liberation Sans" /><line
   id="line201"
   y2="324.98199"
   x2="29.695732"
   y1="366.24048"
   x1="104.95909"
   style="font-size:10.000000px;font-style:normal;font-variant:normal;font-weight:normal;font-stretch:normal;text-align:start;line-height:125.00000%;writing-mode:lr-tb;text-anchor:start;fill:none;stroke:#000000;stroke-width:0.54066950;stroke-dasharray:2.1626780 ;font-family:Liberation Sans" /><line
   id="line203"
   y2="324.98199"
   x2="29.695732"
   y1="366.08585"
   x1="29.695732"
   style="font-size:10.000000px;font-style:normal;font-variant:normal;font-weight:normal;font-stretch:normal;text-align:start;line-height:125.00000%;writing-mode:lr-tb;text-anchor:start;fill:none;stroke:#000000;stroke-width:0.54066950;font-family:Liberation Sans" /><path
   id="path205"
   d="M 123.02610,356.77442 C 121.98910,359.74053 121.42572,362.92832 121.42572,366.24803"
   style="font-size:10.000000px;font-style:normal;font-variant:normal;font-weight:normal;font-stretch:normal;text-align:start;line-height:125.00000%;writing-mode:lr-tb;text-anchor:start;fill:none;stroke:#000000;stroke-width:0.54066950;font-family:Liberation Sans" /><g
   id="g207"
   transform="matrix(1.081339,0.000000,0.000000,1.081339,24.00000,-24.98691)">
			<text
   id="text209"
   transform="translate(126.0645,312.0308)"><tspan
     id="tspan211"
     style="font-size:8.5000000px;font-family:Liberation Sans"
     y="0"
     x="0">4</tspan></text>

		</g><path
   id="path217"
   d="M 46.664103,340.72627 C 48.065519,339.23510 49.278781,337.56335 50.263881,335.74886"
   style="font-size:10.000000px;font-style:normal;font-variant:normal;font-weight:normal;font-stretch:normal;text-align:start;line-height:125.00000%;writing-mode:lr-tb;text-anchor:start;fill:none;stroke:#000000;stroke-width:0.54066950;font-family:Liberation Sans" /><path
   id="path219"
   d="M 51.689086,336.56635 C 52.374654,335.31308 52.954252,333.99277 53.415984,332.61839"
   style="font-size:10.000000px;font-style:normal;font-variant:normal;font-weight:normal;font-stretch:normal;text-align:start;line-height:125.00000%;writing-mode:lr-tb;text-anchor:start;fill:none;stroke:#000000;stroke-width:0.54066950;font-family:Liberation Sans" /><text
   id="text223"
   x="142.23511"
   y="385.68491"
   style="font-size:10.000000px;font-style:normal;font-variant:normal;font-weight:normal;font-stretch:normal;text-align:start;line-height:125.00000%;writing-mode:lr-tb;text-anchor:start;font-family:Liberation Sans"
   sodipodi:linespacing="125.00000%"><tspan
     x="142.23511"
     y="385.68491"
     style="font-size:10.000000px;font-style:normal;font-variant:normal;font-weight:normal;font-stretch:normal;text-align:start;line-height:125.00000%;writing-mode:lr-tb;text-anchor:start;font-family:Liberation Sans"
     id="tspan225">O</tspan></text>
<text
   id="text227"
   x="118.8053"
   y="394.66089"
   style="font-size:10.000000px;font-style:normal;font-variant:normal;font-weight:normal;font-stretch:normal;text-align:start;line-height:125.00000%;writing-mode:lr-tb;text-anchor:start;font-family:Liberation Sans"
   sodipodi:linespacing="125.00000%"><tspan
     x="118.8053"
     y="394.66089"
     style="font-size:10.000000px;font-style:normal;font-variant:normal;font-weight:normal;font-stretch:normal;text-align:start;line-height:125.00000%;writing-mode:lr-tb;text-anchor:start;font-family:Liberation Sans"
     id="tspan229">moves</tspan></text>
<text
   id="text231"
   x="125.4106"
   y="403.63699"
   style="font-size:10.000000px;font-style:normal;font-variant:normal;font-weight:normal;font-stretch:normal;text-align:start;line-height:125.00000%;writing-mode:lr-tb;text-anchor:start;font-family:Liberation Sans"
   sodipodi:linespacing="125.00000%"><tspan
     x="125.4106"
     y="403.63699"
     style="font-size:10.000000px;font-style:normal;font-variant:normal;font-weight:normal;font-stretch:normal;text-align:start;line-height:125.00000%;writing-mode:lr-tb;text-anchor:start;font-family:Liberation Sans"
     id="tspan233">away</tspan></text>
<polygon
   id="polygon235"
   points="138.99100,365.37700 133.01300,362.78900 133.01300,364.25200 128.50200,364.25200 128.50200,366.50200 133.01300,366.50200 133.01300,367.96600 138.99100,365.37700 "
   style="font-size:9.2477942px;font-style:normal;font-variant:normal;font-weight:normal;font-stretch:normal;text-align:start;line-height:115.59741%;writing-mode:lr-tb;text-anchor:start;fill:#b4b4b4;font-family:Liberation Sans"
   transform="matrix(1.081339,0.000000,0.000000,1.081339,-1.447566e-23,-24.98691)" /><polygon
   id="polygon237"
   points="57.445000,367.06200 63.422000,369.65000 63.422000,368.18700 67.934000,368.18700 67.934000,365.93700 63.422000,365.93700 63.422000,364.47300 57.445000,367.06200 "
   style="font-size:9.2477942px;font-style:normal;font-variant:normal;font-weight:normal;font-stretch:normal;text-align:start;line-height:115.59741%;writing-mode:lr-tb;text-anchor:start;fill:#b4b4b4;font-family:Liberation Sans"
   transform="matrix(1.081339,0.000000,0.000000,1.081339,-1.447566e-23,-24.98691)" /><text
   id="text241"
   x="64.950089"
   y="385.68491"
   style="font-size:10.000000px;font-style:normal;font-variant:normal;font-weight:normal;font-stretch:normal;text-align:start;line-height:125.00000%;writing-mode:lr-tb;text-anchor:start;font-family:Liberation Sans"
   sodipodi:linespacing="125.00000%"><tspan
     x="64.950089"
     y="385.68491"
     style="font-size:10.000000px;font-style:normal;font-variant:normal;font-weight:normal;font-stretch:normal;text-align:start;line-height:125.00000%;writing-mode:lr-tb;text-anchor:start;font-family:Liberation Sans"
     id="tspan243">I</tspan></text>
<text
   id="text245"
   x="64.950089"
   y="394.66089"
   style="font-size:10.000000px;font-style:normal;font-variant:normal;font-weight:normal;font-stretch:normal;text-align:start;line-height:125.00000%;writing-mode:lr-tb;text-anchor:start;font-family:Liberation Sans"
   sodipodi:linespacing="125.00000%"><tspan
     x="64.950089"
     y="394.66089"
     style="font-size:10.000000px;font-style:normal;font-variant:normal;font-weight:normal;font-stretch:normal;text-align:start;line-height:125.00000%;writing-mode:lr-tb;text-anchor:start;font-family:Liberation Sans"
     id="tspan247">moves</tspan></text>
<text
   id="text249"
   x="64.950089"
   y="403.63699"
   style="font-size:10.000000px;font-style:normal;font-variant:normal;font-weight:normal;font-stretch:normal;text-align:start;line-height:125.00000%;writing-mode:lr-tb;text-anchor:start;font-family:Liberation Sans"
   sodipodi:linespacing="125.00000%"><tspan
     x="64.950089"
     y="403.63699"
     style="font-size:10.000000px;font-style:normal;font-variant:normal;font-weight:normal;font-stretch:normal;text-align:start;line-height:125.00000%;writing-mode:lr-tb;text-anchor:start;font-family:Liberation Sans"
     id="tspan251">closer</tspan></text>
<path
   id="path253"
   d="M 120.09783,360.81430 C 100.36340,354.86694 113.88014,347.56790 109.55478,340.53919"
   style="font-size:10.000000px;font-style:normal;font-variant:normal;font-weight:normal;font-stretch:normal;text-align:start;line-height:125.00000%;writing-mode:lr-tb;text-anchor:start;fill:none;stroke:#000000;stroke-width:0.32440171;font-family:Liberation Sans" /><text
   id="text257"
   x="96.308922"
   y="329.12991"
   style="font-size:10.000000px;font-style:normal;font-variant:normal;font-weight:normal;font-stretch:normal;text-align:start;line-height:125.00000%;writing-mode:lr-tb;text-anchor:start;font-family:Liberation Sans"
   sodipodi:linespacing="125.00000%"><tspan
     x="96.308922"
     y="329.12991"
     style="font-size:10.000000px;font-style:normal;font-variant:normal;font-weight:normal;font-stretch:normal;text-align:start;line-height:125.00000%;writing-mode:lr-tb;text-anchor:start;font-family:Liberation Sans"
     id="tspan259">gets</tspan></text>
<text
   id="text261"
   x="96.308922"
   y="338.10599"
   style="font-size:10.000000px;font-style:normal;font-variant:normal;font-weight:normal;font-stretch:normal;text-align:start;line-height:125.00000%;writing-mode:lr-tb;text-anchor:start;font-family:Liberation Sans"
   sodipodi:linespacing="125.00000%"><tspan
     x="96.308922"
     y="338.10599"
     style="font-size:10.000000px;font-style:normal;font-variant:normal;font-weight:normal;font-stretch:normal;text-align:start;line-height:125.00000%;writing-mode:lr-tb;text-anchor:start;font-family:Liberation Sans"
     id="tspan263">smaller</tspan></text>
<path
   id="path265"
   d="M 57.380173,360.27363 C 49.540465,358.92196 50.081134,371.62769 49.270130,378.65639"
   style="font-size:10.000000px;font-style:normal;font-variant:normal;font-weight:normal;font-stretch:normal;text-align:start;line-height:125.00000%;writing-mode:lr-tb;text-anchor:start;fill:none;stroke:#000000;stroke-width:0.32440171;font-family:Liberation Sans" /><text
   id="text269"
   x="35.758202"
   y="387.8476"
   style="font-size:10.000000px;font-style:normal;font-variant:normal;font-weight:normal;font-stretch:normal;text-align:start;line-height:125.00000%;writing-mode:lr-tb;text-anchor:start;font-family:Liberation Sans"
   sodipodi:linespacing="125.00000%"><tspan
     x="35.758202"
     y="387.8476"
     style="font-size:10.000000px;font-style:normal;font-variant:normal;font-weight:normal;font-stretch:normal;text-align:start;line-height:125.00000%;writing-mode:lr-tb;text-anchor:start;font-family:Liberation Sans"
     id="tspan271">gets</tspan></text>
<text
   id="text273"
   x="26.14855"
   y="396.82361"
   style="font-size:10.000000px;font-style:normal;font-variant:normal;font-weight:normal;font-stretch:normal;text-align:start;line-height:125.00000%;writing-mode:lr-tb;text-anchor:start;font-family:Liberation Sans"
   sodipodi:linespacing="125.00000%"><tspan
     x="26.14855"
     y="396.82361"
     style="font-size:10.000000px;font-style:normal;font-variant:normal;font-weight:normal;font-stretch:normal;text-align:start;line-height:125.00000%;writing-mode:lr-tb;text-anchor:start;font-family:Liberation Sans"
     id="tspan275">bigger</tspan></text>
<path
   id="path277"
   d="M 53.865821,335.13250 C 71.707914,341.62053 60.353855,330.53681 59.272516,326.75212"
   style="font-size:10.000000px;font-style:normal;font-variant:normal;font-weight:normal;font-stretch:normal;text-align:start;line-height:125.00000%;writing-mode:lr-tb;text-anchor:start;fill:none;stroke:#000000;stroke-width:0.32440171;font-family:Liberation Sans" /><path
   id="path279"
   d="M 50.351469,338.64685 C 70.626575,348.64924 68.734232,341.89087 63.597872,327.83346"
   style="font-size:10.000000px;font-style:normal;font-variant:normal;font-weight:normal;font-stretch:normal;text-align:start;line-height:125.00000%;writing-mode:lr-tb;text-anchor:start;fill:none;stroke:#000000;stroke-width:0.32440171;font-family:Liberation Sans" /><text
   id="text283"
   x="36.06958"
   y="324.5892"
   style="font-size:10.000000px;font-style:normal;font-variant:normal;font-weight:normal;font-stretch:normal;text-align:start;line-height:125.00000%;writing-mode:lr-tb;text-anchor:start;font-family:Liberation Sans"
   sodipodi:linespacing="125.00000%"><tspan
     x="36.06958"
     y="324.5892"
     style="font-size:10.000000px;font-style:normal;font-variant:normal;font-weight:normal;font-stretch:normal;text-align:start;line-height:125.00000%;writing-mode:lr-tb;text-anchor:start;font-family:Liberation Sans"
     id="tspan285">get bigger</tspan></text>

</svg>