<?xml version="1.0" encoding="UTF-8" standalone="no"?>
<!-- Generator: Adobe Illustrator 11 Build 196, SVG Export Plug-In . SVG Version: 6.0.0 Build 78)  -->
<svg
   xmlns:dc="http://purl.org/dc/elements/1.1/"
   xmlns:cc="http://web.resource.org/cc/"
   xmlns:rdf="http://www.w3.org/1999/02/22-rdf-syntax-ns#"
   xmlns:svg="http://www.w3.org/2000/svg"
   xmlns="http://www.w3.org/2000/svg"
   xmlns:sodipodi="http://inkscape.sourceforge.net/DTD/sodipodi-0.dtd"
   xmlns:inkscape="http://www.inkscape.org/namespaces/inkscape"
   width="147.401"
   height="89.152"
   viewBox="0 0 147.401 89.152"
   style="overflow:visible;enable-background:new 0 0 147.401 89.152"
   xml:space="preserve"
   id="svg2"
   sodipodi:version="0.32"
   sodipodi:docname="total-internal-endoscope.svg"
   sodipodi:docbase="/home/bcrowell/Documents/writing/lm/trunk/5op/ch04/figs"><metadata
   id="metadata78"><rdf:RDF><cc:Work
       rdf:about=""><dc:format>image/svg+xml</dc:format><dc:type
         rdf:resource="http://purl.org/dc/dcmitype/StillImage" /></cc:Work></rdf:RDF></metadata><defs
   id="defs76" /><sodipodi:namedview
   inkscape:cy="64.492597"
   inkscape:cx="49.521101"
   inkscape:zoom="2.1963305"
   inkscape:window-height="510"
   inkscape:window-width="712"
   inkscape:pageshadow="2"
   inkscape:pageopacity="0.0"
   borderopacity="1.0"
   bordercolor="#666666"
   pagecolor="#ffffff"
   id="base"
   inkscape:window-x="126"
   inkscape:window-y="342"
   inkscape:current-layer="svg2" />
	<rect
   style="fill:#dedede;fill-opacity:1.0000000;fill-rule:evenodd;stroke:none;stroke-width:1.0000000pt;stroke-linecap:butt;stroke-linejoin:miter;stroke-opacity:1.0000000"
   id="rect1376"
   width="184.25197"
   height="113.77307"
   x="-11.382622"
   y="-18.246803" /><g
   id="Layer_1"
   transform="matrix(1.105678,0.000000,0.000000,1.105678,1.010432,-10.09504)">
		<path
   style="fill:#dcdcdc;stroke:#000000;stroke-width:0.50000000"
   d="M 35.305000,25.039000 C 38.840000,21.350000 40.842000,17.153000 40.842000,12.701000 C 40.842000,8.2480000 38.840000,4.0520000 35.305000,0.36200000 C 31.770000,4.0520000 29.768000,8.2480000 29.768000,12.701000 C 29.769000,17.152000 31.771000,21.349000 35.305000,25.039000 z "
   id="path5" />
		<path
   style="fill:#dcdcdc;stroke:#808080;stroke-width:0.50000000"
   d="M 52.623000,9.8550000 C 62.255000,9.3610000 71.935000,10.477000 81.566000,10.876000 C 86.781000,11.865000 92.824000,13.093000 95.535000,18.228000 C 98.326000,23.538000 96.444000,29.901000 92.155000,33.744000 C 83.639000,39.469000 73.067000,36.120000 63.180000,37.906000 C 55.877000,39.230000 48.637000,42.419000 45.416000,49.387000 C 43.279000,54.043000 43.295000,59.641000 47.186000,63.612000 C 50.678000,67.184000 54.936000,69.352000 59.449000,71.171000 C 67.470000,74.408000 75.810000,76.146000 84.118000,78.203000 C 84.245000,78.235000 84.389000,78.155000 84.421000,78.028000 C 84.453000,77.884000 84.373000,77.741000 84.246000,77.709000 C 75.970000,75.667000 67.614000,73.961000 59.672000,70.676000 C 53.517000,68.140000 46.070000,65.015000 44.746000,57.584000 C 43.008000,47.825000 51.635000,41.047000 60.454000,38.974000 C 69.846000,36.758000 78.999000,39.182000 88.137000,36.439000 C 95.711000,34.174000 99.746000,25.037000 95.967000,17.957000 C 93.160000,12.663000 87.005000,11.372000 81.631000,10.367000 C 71.967000,9.9690000 62.272000,8.8520000 52.624000,9.3460000 C 52.481000,9.3460000 52.369000,9.4580000 52.369000,9.6010000 C 52.369000,9.7440000 52.480000,9.8550000 52.623000,9.8550000 L 52.623000,9.8550000 z "
   id="path7" />
		<path
   style="fill:#dcdcdc;stroke:#808080;stroke-width:0.50000000"
   d="M 53.133000,10.366000 C 55.780000,10.318000 58.396000,10.510000 61.059000,10.717000 C 67.979000,11.259000 74.869000,10.446000 81.726000,11.371000 C 84.277000,12.567000 86.829000,13.763000 89.540000,14.544000 L 90.162000,14.671000 L 90.018000,14.575000 L 90.369000,14.990000 C 91.406000,16.266000 92.362000,17.605000 93.160000,19.040000 L 93.447000,19.359000 L 93.383000,19.232000 L 93.431000,19.455000 C 93.622000,20.412000 93.878000,21.321000 93.654000,22.294000 C 93.048000,24.925000 91.565000,27.030000 90.768000,29.502000 C 87.643000,32.245000 84.023000,34.206000 80.132000,35.609000 C 74.072000,35.800000 68.028000,36.375000 61.969000,36.630000 C 56.643000,38.432000 50.328000,39.229000 46.358000,43.535000 C 44.125000,49.578000 42.531000,56.978000 46.964000,62.719000 C 47.458000,63.357000 47.873000,63.931000 48.558000,64.314000 C 52.130000,66.355000 55.304000,68.540000 59.290000,69.608000 C 60.247000,69.863000 61.299000,69.768000 62.160000,70.166000 C 62.957000,70.533000 63.499000,71.426000 64.409000,71.633000 C 71.250000,73.180000 77.820000,74.120000 83.944000,77.166000 C 84.071000,77.230000 84.215000,77.166000 84.278000,77.039000 C 84.342000,76.912000 84.278000,76.752000 84.151000,76.704000 C 80.451000,74.807000 76.576000,73.866000 72.510000,72.766000 C 69.719000,72.000000 66.897000,72.000000 64.218000,70.980000 C 63.389000,70.661000 62.863000,69.800000 61.969000,69.625000 C 56.611000,68.572000 51.811000,66.340000 47.793000,62.800000 C 45.943000,61.174000 45.273000,58.829000 44.843000,56.453000 C 44.125000,52.530000 45.337000,49.038000 46.167000,45.163000 C 46.342000,44.382000 46.709000,43.680000 47.331000,43.185000 C 52.115000,39.374000 58.063000,38.098000 63.804000,36.902000 C 69.465000,37.046000 75.062000,36.200000 80.707000,36.009000 C 84.518000,34.462000 88.266000,32.596000 91.231000,29.694000 C 92.140000,26.377000 95.122000,23.316000 93.958000,19.680000 L 93.878000,19.122000 C 93.878000,19.074000 93.846000,19.042000 93.814000,18.994000 L 93.399000,18.564000 C 92.809000,17.224000 91.804000,16.172000 91.039000,14.960000 L 90.417000,14.258000 C 90.369000,14.210000 90.321000,14.178000 90.257000,14.162000 L 89.651000,14.050000 C 86.366000,13.285000 83.608000,10.956000 80.275000,10.733000 C 71.186000,10.127000 62.192000,10.302000 53.134000,9.8560000 C 52.991000,9.8560000 52.879000,9.9680000 52.879000,10.111000 C 52.879000,10.254000 52.990000,10.366000 53.133000,10.366000 L 53.133000,10.366000 z "
   id="path9" />
		<path
   style="fill:#dcdcdc;stroke:#808080;stroke-width:0.50000000"
   d="M 52.113000,10.111000 C 62.717000,10.270000 73.386000,9.6640000 83.943000,10.780000 C 87.036000,11.769000 90.848000,12.040000 92.889000,14.894000 C 93.479000,19.981000 94.451000,25.164000 92.985000,30.267000 C 92.602000,31.591000 91.326000,32.196000 90.162000,32.675000 C 87.499000,33.776000 85.043000,35.466000 82.077000,35.546000 C 75.651000,35.753000 69.448000,34.892000 62.862000,36.104000 C 58.525000,36.885000 54.123000,37.284000 50.487000,39.740000 C 49.100000,41.861000 47.936000,44.094000 46.947000,46.437000 C 45.719000,49.355000 45.575000,52.544000 45.783000,55.670000 C 45.958000,58.668000 46.564000,62.001000 49.323000,63.899000 C 53.453000,65.318000 57.472000,66.642000 61.873000,67.694000 C 69.559000,69.512000 76.257000,72.637000 84.071000,73.865000 C 84.390000,73.913000 84.884000,73.801000 84.900000,74.375000 C 85.027000,74.439000 85.187000,74.391000 85.251000,74.263000 C 85.315000,74.152000 85.267000,73.992000 85.155000,73.929000 C 83.018000,72.701000 80.403000,73.004000 78.075000,72.175000 C 72.733000,70.261000 67.311000,68.970000 62.033000,67.040000 C 57.727000,66.418000 53.661000,64.887000 49.579000,63.452000 C 45.337000,60.071000 45.895000,53.900000 46.756000,48.989000 C 47.330000,45.688000 49.084000,42.929000 50.806000,40.138000 C 54.362000,37.762000 58.652000,37.395000 62.893000,36.614000 C 69.495000,35.402000 75.714000,36.279000 82.157000,36.056000 C 85.187000,35.944000 87.738000,34.254000 90.465000,33.106000 C 91.629000,32.612000 92.904000,32.006000 93.303000,30.778000 C 95.041000,25.500000 94.116000,19.919000 93.271000,14.560000 C 90.432000,11.004000 85.377000,10.749000 81.247000,9.8560000 C 71.536000,9.5210000 61.824000,9.6010000 52.113000,9.6010000 C 51.969000,9.6010000 51.858000,9.7120000 51.858000,9.8560000 C 51.858000,10.000000 51.969000,10.111000 52.113000,10.111000 L 52.113000,10.111000 z "
   id="path11" />
		<path
   style="fill:#dcdcdc;stroke:#808080;stroke-width:0.50000000"
   d="M 52.368000,10.876000 C 62.845000,10.780000 73.306000,10.813000 83.798000,11.211000 C 85.744000,11.291000 87.562000,12.184000 89.411000,12.790000 C 92.058000,15.150000 92.441000,18.786000 94.195000,21.720000 C 94.258000,25.037000 94.291000,29.119000 91.165000,31.256000 C 90.495000,31.718000 89.746000,31.910000 89.092000,32.404000 C 86.493000,34.365000 83.909000,35.864000 80.736000,36.423000 C 75.107000,37.412000 69.717000,36.902000 64.184000,37.284000 C 58.443000,37.699000 51.793000,37.906000 47.504000,42.275000 C 44.873000,47.107000 45.638000,52.640000 45.878000,57.886000 C 46.038000,61.330000 48.174000,64.568000 51.507000,65.844000 C 54.840000,67.104000 58.380000,67.263000 61.857000,67.821000 C 63.978000,69.081000 66.338000,69.799000 68.634000,70.675000 C 72.477000,72.158000 76.464000,73.035000 80.371000,74.406000 C 81.774000,74.901000 83.018000,75.761000 84.485000,76.096000 C 84.612000,76.128000 84.756000,76.048000 84.788000,75.905000 C 84.820000,75.761000 84.740000,75.634000 84.597000,75.602000 C 79.478000,73.433000 74.152000,72.094000 68.858000,70.244000 C 66.338000,69.367000 64.074000,68.011000 61.475000,67.342000 C 58.317000,66.545000 55.128000,66.576000 52.099000,65.492000 C 50.775000,65.030000 49.579000,64.248000 48.591000,63.164000 C 47.140000,61.601000 46.406000,59.608000 46.359000,57.599000 C 46.215000,52.560000 45.434000,47.250000 47.905000,42.594000 C 52.291000,38.240000 59.084000,38.145000 64.888000,37.778000 C 70.389000,37.427000 75.763000,38.033000 81.329000,36.789000 C 85.762000,35.785000 89.430000,33.137000 92.890000,30.506000 C 94.405000,27.763000 95.011000,24.589000 94.644000,21.480000 C 92.858000,18.450000 92.730000,14.543000 89.525000,12.422000 C 87.914000,11.370000 86.081000,10.907000 84.215000,10.796000 C 73.579000,10.174000 62.990000,10.334000 52.370000,10.365000 C 52.226000,10.365000 52.115000,10.477000 52.115000,10.620000 C 52.115000,10.763000 52.225000,10.876000 52.368000,10.876000 L 52.368000,10.876000 z "
   id="path13" />
		<path
   style="fill:#dcdcdc;stroke:#808080;stroke-width:0.50000000"
   d="M 52.368000,12.662000 C 58.316000,12.726000 64.216000,13.124000 70.196000,12.598000 C 74.454000,12.216000 78.632000,11.865000 82.873000,12.279000 C 86.222000,12.598000 88.295000,15.373000 91.102000,17.255000 C 91.692000,17.653000 92.410000,17.860000 92.920000,18.307000 C 96.269000,21.289000 95.966000,25.834000 94.945000,29.805000 C 94.020000,33.472000 90.033000,34.413000 86.812000,35.259000 C 79.413000,35.530000 72.014000,35.147000 64.599000,35.450000 C 60.820000,35.594000 57.216000,36.295000 53.389000,36.965000 C 51.348000,37.332000 49.976000,39.166000 49.418000,41.143000 C 48.381000,44.747000 47.999000,48.335000 47.951000,52.018000 C 47.919000,54.920000 47.169000,57.838000 47.696000,60.772000 C 51.969000,67.518000 60.708000,69.064000 67.773000,71.504000 C 73.179000,72.142000 78.361000,73.800000 83.544000,75.379000 C 83.384000,75.427000 83.241000,75.475000 83.082000,75.523000 C 83.194000,75.619000 83.353000,75.619000 83.449000,75.507000 C 83.545000,75.411000 83.545000,75.252000 83.433000,75.156000 C 83.322000,74.997000 83.242000,74.758000 83.099000,74.694000 C 77.374000,72.621000 71.474000,71.680000 65.574000,70.404000 C 59.483000,67.884000 51.589000,66.656000 48.129000,60.389000 C 47.954000,58.651000 47.905000,56.929000 48.192000,55.175000 C 48.607000,52.672000 48.383000,50.296000 48.654000,47.824000 C 49.117000,43.773000 49.451000,37.857000 54.523000,37.188000 C 55.400000,37.060000 56.245000,37.140000 57.138000,36.964000 C 67.232000,34.891000 76.704000,36.645000 86.575000,35.656000 C 90.195000,35.289000 94.437000,33.870000 95.457000,29.900000 C 96.509000,25.786000 96.509000,21.161000 93.432000,17.940000 C 91.056000,17.127000 89.461000,15.277000 87.500000,13.698000 C 83.800000,10.764000 79.288000,11.481000 75.078000,11.800000 C 67.456000,12.374000 59.945000,12.247000 52.370000,12.151000 C 52.226000,12.151000 52.115000,12.262000 52.115000,12.406000 C 52.113000,12.550000 52.225000,12.662000 52.368000,12.662000 L 52.368000,12.662000 z "
   id="path15" />
		<path
   style="fill:#dcdcdc;stroke:#808080;stroke-width:0.50000000"
   d="M 52.847000,11.896000 C 58.412000,12.741000 64.185000,13.363000 69.750000,12.199000 C 75.092000,12.072000 80.435000,12.024000 85.792000,12.231000 C 87.036000,12.279000 88.312000,12.677000 89.332000,13.491000 C 90.911000,14.783000 92.378000,15.931000 93.590000,17.574000 C 96.237000,21.130000 95.423000,26.153000 93.670000,29.868000 C 92.681000,31.973000 90.241000,32.722000 88.360000,33.919000 C 83.018000,34.971000 77.500000,34.844000 72.047000,35.242000 C 65.414000,35.721000 58.971000,35.641000 52.257000,36.630000 C 48.255000,37.220000 45.719000,40.537000 45.528000,44.284000 C 45.417000,46.373000 45.273000,48.430000 45.592000,50.519000 C 46.150000,54.314000 45.800000,57.854000 46.613000,61.665000 C 46.884000,62.989000 47.809000,64.089000 49.037000,64.503000 C 54.427000,66.353000 59.897000,67.581000 65.287000,69.287000 C 70.390000,72.030000 76.179000,73.210000 81.537000,75.394000 C 81.473000,75.394000 81.410000,75.378000 81.346000,75.378000 C 81.235000,75.458000 81.202000,75.617000 81.298000,75.729000 C 81.378000,75.856000 81.537000,75.873000 81.649000,75.792000 C 81.760000,75.537000 81.888000,75.282000 82.000000,75.027000 C 77.073000,73.273000 72.177000,71.614000 67.218000,69.844000 C 66.979000,69.764000 66.851000,69.461000 66.612000,69.365000 C 60.887000,66.957000 54.796000,66.176000 49.055000,63.896000 C 47.652000,63.337000 46.806000,61.807000 46.790000,60.276000 C 46.742000,57.661000 46.583000,55.093000 46.312000,52.462000 C 45.817000,47.646000 44.861000,41.523000 49.246000,38.174000 C 55.018000,36.308000 61.190000,36.372000 67.218000,36.021000 C 73.740000,35.639000 80.087000,35.782000 86.689000,34.761000 C 89.687000,34.315000 92.414000,32.513000 94.263000,30.121000 C 95.986000,25.369000 97.054000,18.448000 91.855000,15.163000 C 91.201000,14.748000 90.882000,14.015000 90.276000,13.505000 C 88.984000,12.389000 87.390000,11.783000 85.795000,11.751000 C 78.842000,11.623000 71.794000,11.033000 64.921000,12.405000 C 60.902000,12.197000 56.852000,12.150000 52.913000,11.384000 C 52.769000,11.368000 52.642000,11.464000 52.626000,11.607000 C 52.607000,11.753000 52.703000,11.881000 52.847000,11.896000 L 52.847000,11.896000 z "
   id="path17" />
		<path
   style="fill:#dcdcdc;stroke:#808080;stroke-width:0.50000000"
   d="M 52.432000,11.881000 C 54.139000,11.434000 55.861000,11.530000 57.567000,11.737000 C 63.196000,12.407000 68.681000,11.833000 74.263000,12.231000 C 78.425000,12.534000 82.459000,12.614000 86.653000,13.299000 C 91.294000,14.049000 94.419000,18.099000 95.982000,22.277000 C 96.587000,27.524000 93.845000,33.169000 88.806000,35.082000 C 87.275000,35.672000 85.761000,36.342000 84.118000,36.517000 C 80.466000,36.948000 76.942000,36.437000 73.258000,35.975000 C 66.481000,35.114000 60.150000,37.043000 53.867000,39.276000 C 49.944000,40.679000 46.643000,43.757000 45.607000,47.967000 C 44.730000,51.539000 45.192000,55.031000 45.304000,58.571000 C 45.368000,60.214000 45.623000,61.952000 46.659000,63.355000 L 46.739000,63.642000 C 46.755000,63.690000 46.787000,63.722000 46.835000,63.753000 L 47.266000,64.072000 C 47.904000,64.519000 48.526000,64.981000 49.291000,65.141000 C 52.289000,65.779000 54.840000,66.927000 57.663000,67.836000 C 62.463000,69.383000 66.912000,71.217000 71.887000,72.461000 C 74.965000,73.226000 77.676000,74.646000 80.674000,75.603000 C 81.535000,75.874000 82.380000,76.257000 83.321000,76.193000 C 83.465000,76.193000 83.592000,76.081000 83.592000,75.938000 C 83.592000,75.811000 83.480000,75.683000 83.337000,75.683000 C 77.788000,74.742000 73.004000,71.409000 67.375000,70.899000 C 64.425000,69.464000 61.252000,68.651000 58.174000,67.471000 C 54.921000,66.211000 51.588000,65.302000 48.319000,64.122000 L 47.123000,63.340000 L 47.219000,63.468000 L 46.836000,62.718000 C 46.836000,62.734000 46.852000,62.734000 46.852000,62.750000 C 45.018000,58.173000 45.576000,53.007000 46.086000,48.127000 C 46.198000,47.123000 46.676000,46.230000 47.250000,45.353000 C 48.733000,43.057000 50.520000,41.207000 52.991000,40.234000 C 57.759000,38.353000 62.591000,36.774000 67.725000,36.423000 C 73.306000,36.024000 78.616000,37.922000 84.277000,36.949000 C 87.355000,36.407000 90.321000,35.577000 92.569000,33.249000 C 95.471000,30.251000 97.002000,26.185000 96.460000,22.103000 C 94.834000,17.749000 91.517000,13.508000 86.669000,12.790000 C 82.363000,12.136000 78.186000,11.977000 73.912000,11.706000 C 68.458000,11.355000 63.084000,11.882000 57.567000,11.228000 C 55.829000,11.037000 54.043000,10.893000 52.304000,11.403000 C 52.160000,11.435000 52.081000,11.578000 52.129000,11.706000 C 52.161000,11.849000 52.304000,11.929000 52.432000,11.881000 L 52.432000,11.881000 z "
   id="path19" />
		<path
   style="fill:#dcdcdc;stroke:#808080;stroke-width:0.50000000"
   d="M 52.368000,10.621000 C 55.031000,10.541000 57.630000,10.860000 60.325000,11.195000 C 69.176000,12.296000 77.834000,11.020000 86.541000,13.507000 C 88.471000,14.065000 90.448000,14.799000 91.516000,16.585000 C 94.131000,20.939000 92.377000,26.217000 90.320000,30.459000 C 89.363000,32.436000 87.258000,33.250000 85.313000,33.760000 C 79.046000,35.418000 72.827000,35.004000 66.512000,35.482000 C 59.687000,36.008000 51.953000,36.136000 46.738000,41.239000 C 43.102000,46.740000 43.740000,53.645000 44.218000,59.944000 C 44.346000,61.570000 44.856000,63.261000 45.972000,64.377000 C 49.097000,67.502000 53.355000,69.815000 57.852000,69.799000 C 60.754000,70.899000 63.625000,72.015000 66.591000,73.036000 C 69.414000,74.024000 72.029000,75.284000 75.043000,75.763000 C 77.914000,76.242000 80.656000,76.560000 83.495000,76.800000 C 83.639000,76.832000 83.766000,76.736000 83.798000,76.592000 C 83.814000,76.465000 83.735000,76.321000 83.591000,76.305000 C 80.784000,76.081000 78.058000,75.843000 75.235000,75.221000 C 69.016000,73.881000 63.658000,71.314000 57.869000,69.289000 C 53.611000,69.401000 49.975000,66.801000 46.563000,64.537000 C 45.096000,62.528000 44.570000,60.056000 44.506000,57.632000 C 44.362000,52.338000 43.693000,46.868000 46.898000,42.052000 C 48.078000,40.298000 49.816000,39.261000 51.714000,38.528000 C 56.641000,36.631000 61.792000,36.311000 66.975000,35.961000 C 73.082000,35.546000 79.079000,35.897000 85.138000,34.335000 C 87.466000,33.729000 89.842000,32.724000 90.943000,30.412000 C 92.952000,26.170000 94.387000,21.019000 92.187000,16.666000 C 91.134000,14.593000 88.854000,13.652000 86.669000,13.030000 C 76.591000,10.112000 66.688000,12.009000 56.307000,10.192000 C 54.984000,9.9530000 53.692000,10.112000 52.369000,10.112000 C 52.225000,10.112000 52.114000,10.223000 52.114000,10.367000 C 52.114000,10.511000 52.225000,10.621000 52.368000,10.621000 L 52.368000,10.621000 z "
   id="path21" />
		<path
   style="fill:#dcdcdc;stroke:#808080;stroke-width:0.50000000"
   d="M 52.368000,13.428000 C 60.772000,13.093000 69.080000,14.480000 77.659000,13.077000 C 82.523000,12.296000 87.817000,13.380000 91.245000,17.079000 C 92.871000,20.556000 92.106000,24.494000 92.074000,28.178000 C 92.058000,29.326000 91.691000,30.507000 91.038000,31.543000 L 90.926000,31.910000 L 91.038000,31.750000 L 90.703000,31.973000 C 90.272000,32.260000 89.842000,32.579000 89.331000,32.675000 C 83.288000,33.839000 77.610000,33.999000 71.678000,34.094000 C 63.450000,35.641000 54.153000,34.636000 47.296000,40.504000 C 45.542000,42.035000 45.159000,44.523000 44.856000,46.771000 C 44.186000,51.714000 43.676000,56.913000 45.749000,61.490000 C 48.412000,64.711000 52.383000,66.178000 56.002000,68.060000 C 65.187000,70.771000 74.133000,74.423000 83.589000,76.177000 C 83.716000,76.225000 83.860000,76.145000 83.908000,76.002000 C 83.940000,75.875000 83.860000,75.731000 83.733000,75.699000 C 74.324000,73.929000 65.395000,70.325000 56.241000,67.598000 C 52.143000,65.366000 46.753000,63.819000 45.206000,58.907000 C 44.823000,52.847000 44.170000,46.134000 47.550000,40.776000 C 51.058000,37.858000 55.555000,36.805000 60.020000,36.183000 C 67.419000,35.131000 74.547000,34.078000 81.915000,34.317000 C 84.690000,33.679000 87.592000,33.791000 90.303000,32.818000 L 91.308000,32.180000 C 91.356000,32.148000 91.404000,32.100000 91.419000,32.036000 L 91.706000,31.478000 C 93.317000,27.906000 92.695000,23.919000 92.551000,20.140000 C 92.519000,19.151000 92.439000,18.083000 91.770000,17.190000 C 88.134000,12.278000 81.229000,11.545000 75.808000,12.932000 C 67.994000,13.650000 60.180000,12.772000 52.367000,12.916000 C 52.223000,12.916000 52.112000,13.028000 52.112000,13.171000 C 52.112000,13.314000 52.225000,13.428000 52.368000,13.428000 L 52.368000,13.428000 z "
   id="path23" />
		<path
   style="fill:#dcdcdc;stroke:#808080;stroke-width:0.50000000"
   d="M 52.543000,11.881000 C 63.737000,14.640000 74.932000,12.423000 86.668000,14.831000 C 89.985000,15.517000 92.058000,17.989000 92.584000,21.130000 C 92.999000,23.569000 92.680000,25.834000 92.281000,28.210000 C 91.420000,33.249000 85.663000,34.828000 81.389000,36.104000 C 74.532000,36.407000 67.739000,35.450000 60.850000,37.268000 C 59.813000,37.539000 58.745000,37.236000 57.708000,37.491000 C 53.371000,38.575000 49.304000,41.239000 47.407000,45.337000 C 46.355000,47.617000 46.131000,50.137000 46.243000,52.625000 L 45.812000,52.832000 C 45.796000,52.864000 45.780000,52.896000 45.764000,52.944000 L 45.732000,53.327000 C 45.684000,55.384000 45.684000,57.409000 46.593000,59.355000 C 46.832000,59.865000 46.577000,60.583000 46.848000,61.045000 C 48.140000,63.325000 50.276000,64.888000 52.573000,66.004000 C 55.874000,67.615000 59.127000,69.225000 62.141000,71.282000 C 65.283000,72.191000 68.233000,73.594000 71.327000,74.599000 C 75.904000,74.312000 80.002000,76.608000 84.387000,77.470000 C 84.531000,77.470000 84.642000,77.374000 84.658000,77.231000 C 84.658000,77.087000 84.562000,76.960000 84.419000,76.960000 C 80.082000,76.083000 76.031000,74.058000 71.502000,73.978000 C 69.445000,73.946000 67.691000,72.543000 65.713000,71.857000 C 65.139000,71.666000 64.501000,71.682000 63.959000,71.474000 C 61.344000,70.422000 59.207000,68.588000 56.640000,67.440000 C 53.116000,65.861000 49.687000,64.362000 47.359000,61.013000 C 47.040000,60.534000 47.343000,59.738000 47.088000,59.147000 C 46.370000,57.473000 46.131000,55.719000 46.243000,53.933000 L 46.275000,52.992000 L 46.068000,53.215000 L 46.754000,52.625000 C 46.643000,49.675000 46.850000,46.661000 48.684000,44.094000 C 50.996000,40.857000 54.361000,38.864000 58.013000,37.923000 C 61.107000,38.162000 63.993000,36.822000 67.055000,36.695000 C 71.855000,36.504000 76.655000,36.711000 81.455000,36.599000 C 85.968000,35.324000 91.932000,33.553000 92.825000,28.227000 C 93.575000,23.714000 93.846000,18.468000 89.779000,15.454000 C 79.892000,11.994000 69.336000,13.636000 58.987000,12.472000 C 56.866000,12.233000 54.745000,12.089000 52.704000,11.404000 C 52.560000,11.356000 52.417000,11.436000 52.385000,11.563000 C 52.336000,11.705000 52.416000,11.849000 52.543000,11.881000 L 52.543000,11.881000 z "
   id="path25" />
		<path
   style="fill:#dcdcdc;stroke:#808080;stroke-width:0.50000000"
   d="M 53.133000,13.938000 C 57.805000,13.141000 62.653000,14.464000 67.214000,12.965000 C 71.328000,12.965000 75.426000,12.631000 79.541000,12.758000 C 80.099000,12.774000 80.753000,12.981000 81.311000,13.013000 C 85.011000,13.204000 88.471000,14.688000 91.389000,16.872000 C 92.872000,19.423000 93.909000,22.310000 93.621000,25.291000 C 92.935000,32.212000 84.388000,34.253000 78.472000,33.504000 C 76.813000,33.296000 75.219000,32.834000 73.560000,33.169000 C 70.897000,33.695000 68.409000,33.950000 65.778000,34.158000 C 62.398000,34.413000 59.272000,35.513000 55.876000,36.039000 C 52.942000,36.486000 50.534000,38.224000 48.078000,40.041000 C 44.091000,43.007000 43.533000,47.951000 44.362000,52.479000 C 44.920000,55.493000 45.016000,58.332000 45.925000,61.218000 C 46.356000,62.621000 47.057000,64.152000 48.428000,64.694000 C 49.305000,65.045000 49.927000,65.826000 50.900000,65.890000 C 54.408000,69.079000 59.129000,70.068000 63.562000,71.264000 C 68.139000,73.863000 73.273000,74.007000 78.488000,74.948000 C 80.322000,75.299000 81.805000,76.271000 83.511000,76.845000 C 83.655000,76.893000 83.798000,76.829000 83.846000,76.685000 C 83.878000,76.558000 83.814000,76.414000 83.670000,76.366000 C 79.221000,74.006000 74.325000,74.038000 69.350000,72.922000 C 67.309000,72.476000 65.602000,71.567000 63.705000,70.881000 C 60.213000,69.589000 56.641000,69.191000 53.356000,67.069000 C 51.777000,66.048000 50.422000,65.108000 48.763000,64.295000 C 47.105000,63.498000 46.307000,61.600000 46.068000,59.798000 C 45.701000,57.183000 45.143000,54.743000 44.808000,52.144000 C 44.569000,50.310000 44.457000,48.524000 44.856000,46.659000 C 45.366000,44.235000 46.211000,41.907000 48.364000,40.440000 C 50.899000,38.702000 53.227000,36.884000 56.177000,36.485000 C 58.378000,36.198000 60.371000,35.592000 62.588000,35.161000 C 65.283000,34.651000 67.818000,34.475000 70.482000,34.268000 C 71.534000,34.204000 72.507000,33.806000 73.560000,33.646000 C 75.218000,33.391000 76.813000,33.806000 78.472000,34.013000 C 83.097000,34.619000 87.641000,33.582000 91.452000,30.616000 C 95.757000,27.267000 94.514000,21.415000 92.169000,17.397000 C 90.447000,14.462000 87.002000,13.426000 83.781000,12.804000 C 82.266000,12.501000 80.767000,12.294000 79.268000,12.246000 C 75.313000,12.119000 71.374000,12.469000 67.419000,12.437000 C 62.763000,13.856000 57.883000,12.676000 53.131000,13.426000 C 52.988000,13.426000 52.876000,13.537000 52.876000,13.681000 C 52.876000,13.825000 52.990000,13.938000 53.133000,13.938000 L 53.133000,13.938000 z "
   id="path27" />
		<path
   style="fill:#dcdcdc;stroke:#808080;stroke-width:0.50000000"
   d="M 84.612000,74.423000 C 76.799000,73.275000 69.798000,69.288000 61.968000,68.204000 C 57.838000,66.275000 53.229000,65.445000 49.593000,62.543000 C 49.003000,61.283000 47.823000,60.263000 47.648000,58.907000 C 47.202000,55.463000 47.186000,52.114000 47.935000,48.654000 C 48.605000,45.545000 50.136000,42.594000 52.543000,40.553000 C 57.104000,39.963000 61.314000,38.719000 65.970000,37.842000 C 72.907000,36.534000 79.556000,37.730000 86.286000,36.550000 C 90.017000,34.828000 91.995000,31.049000 94.403000,27.939000 C 94.945000,25.260000 94.642000,22.565000 94.722000,19.870000 C 93.845000,17.494000 92.761000,14.830000 90.464000,13.475000 C 86.206000,13.427000 82.156000,12.391000 77.882000,11.768000 C 73.816000,11.178000 69.877000,11.513000 65.859000,11.226000 C 62.606000,10.987000 59.385000,10.987000 56.148000,11.226000 C 54.761000,11.322000 53.597000,12.294000 52.353000,12.916000 C 52.226000,12.980000 52.178000,13.140000 52.242000,13.267000 C 52.305000,13.394000 52.465000,13.442000 52.593000,13.379000 C 53.853000,12.757000 55.001000,11.753000 56.420000,11.704000 C 63.644000,11.449000 70.788000,11.577000 78.044000,12.406000 C 82.317000,12.884000 86.448000,13.761000 90.706000,14.112000 C 92.349000,15.563000 93.178000,17.620000 94.214000,19.502000 C 94.167000,22.197000 94.358000,24.908000 94.023000,27.603000 C 91.313000,30.840000 89.335000,35.751000 84.695000,36.278000 C 78.189000,37.011000 71.762000,36.453000 65.336000,37.315000 C 61.063000,38.750000 56.613000,39.229000 52.212000,40.169000 C 49.677000,42.274000 48.401000,45.591000 47.269000,48.621000 C 47.110000,52.145000 46.838000,55.653000 47.078000,59.177000 C 48.338000,62.606000 51.224000,64.823000 54.605000,65.923000 C 57.108000,66.736000 59.325000,67.980000 61.893000,68.650000 C 64.269000,69.256000 66.597000,69.543000 68.877000,70.260000 C 74.092000,71.871000 79.067000,74.103000 84.425000,74.901000 C 84.569000,74.949000 84.712000,74.885000 84.760000,74.757000 C 84.803000,74.614000 84.739000,74.471000 84.612000,74.423000 L 84.612000,74.423000 z "
   id="path29" />
		<path
   style="fill:#dcdcdc;stroke:#808080;stroke-width:0.50000000"
   d="M 52.368000,11.131000 C 60.181000,11.721000 67.931000,11.019000 75.793000,11.817000 C 78.042000,12.040000 80.258000,11.785000 82.490000,11.944000 C 83.192000,12.008000 83.926000,11.992000 84.563000,12.375000 C 87.928000,14.400000 91.915000,14.831000 94.402000,18.100000 C 95.869000,20.030000 95.614000,22.374000 95.423000,24.606000 C 95.264000,26.727000 93.797000,28.337000 92.920000,30.219000 C 91.947000,32.276000 89.970000,33.663000 87.722000,34.110000 C 84.580000,34.748000 81.598000,34.397000 78.457000,33.903000 C 77.500000,33.759000 76.560000,33.695000 75.650000,33.919000 C 72.541000,34.716000 69.734000,35.242000 66.561000,35.928000 C 64.089000,36.454000 61.968000,37.539000 59.544000,38.177000 C 58.077000,38.576000 56.610000,38.719000 55.175000,39.246000 C 50.869000,40.872000 48.972000,44.986000 47.345000,48.910000 C 46.564000,54.060000 45.208000,59.482000 47.122000,64.457000 C 48.477000,67.950000 52.863000,68.412000 55.494000,70.820000 C 58.109000,71.904000 60.820000,72.734000 63.690000,72.973000 C 65.397000,73.100000 66.975000,73.818000 68.633000,74.408000 C 70.308000,74.998000 72.126000,74.903000 73.784000,75.588000 C 74.023000,75.699000 74.215000,75.939000 74.486000,76.019000 C 77.404000,76.896000 80.370000,76.880000 83.304000,77.470000 C 83.448000,77.470000 83.559000,77.358000 83.575000,77.215000 C 83.575000,77.088000 83.464000,76.960000 83.320000,76.960000 C 79.668000,76.258000 75.937000,76.194000 72.445000,74.679000 C 71.823000,74.424000 71.090000,74.424000 70.356000,74.281000 C 68.012000,73.866000 66.002000,72.655000 63.690000,72.463000 C 60.916000,72.224000 58.284000,71.586000 55.829000,70.326000 C 53.501000,69.130000 51.523000,67.440000 49.100000,66.435000 C 45.002000,62.098000 46.995000,55.639000 47.681000,50.281000 C 48.016000,47.761000 49.212000,45.561000 50.711000,43.360000 C 52.274000,41.048000 54.682000,39.820000 57.281000,39.087000 C 58.254000,38.816000 59.274000,39.071000 60.183000,38.640000 C 61.969000,37.795000 63.803000,37.269000 65.653000,36.679000 C 68.954000,35.626000 72.255000,35.387000 75.683000,34.510000 C 77.756000,33.984000 79.909000,34.685000 82.046000,34.813000 C 85.076000,34.973000 88.186000,35.339000 90.864000,33.266000 C 93.559000,31.177000 94.915000,28.179000 95.807000,25.086000 C 96.254000,23.571000 96.126000,22.040000 95.871000,20.493000 C 95.249000,16.650000 91.565000,14.928000 88.248000,13.604000 C 87.020000,13.125000 85.872000,12.456000 84.660000,11.882000 C 84.006000,11.579000 83.225000,11.451000 82.491000,11.420000 C 78.903000,11.308000 75.331000,11.244000 71.743000,11.021000 C 65.285000,10.623000 58.826000,10.957000 52.368000,10.623000 C 52.224000,10.623000 52.113000,10.734000 52.113000,10.878000 C 52.113000,11.022000 52.225000,11.131000 52.368000,11.131000 L 52.368000,11.131000 z "
   id="path31" />
		<polyline
   style="fill:none;stroke:#000000;stroke-width:0.50000000"
   points="0.064,11.386 32.977,2.711 36.804,2.457 52.113,11.354 "
   id="polyline33" />
		<polyline
   style="fill:none;stroke:#000000;stroke-width:0.50000000"
   points="0.064,11.412 32.977,20.087 36.804,20.342 52.081,11.354     "
   id="polyline35" />
		<line
   style="fill:none;stroke:#000000;stroke-width:0.50000000"
   x1="51.900002"
   y1="11.482000"
   x2="0.064000003"
   y2="11.482000"
   id="line37" />
		<polyline
   style="fill:none;stroke:#000000;stroke-width:0.50000000"
   points="0.064,11.482 31.276,6.369 38.931,6.369 51.9,11.482 "
   id="polyline39" />
		<polyline
   style="fill:none;stroke:#000000;stroke-width:0.50000000"
   points="0.064,11.47 31.276,16.583 38.931,16.583 51.9,11.47 "
   id="polyline41" />
		<g
   id="g43">
			<path
   style="fill:#dcdcdc;stroke:#000000;stroke-width:0.50000000"
   d="M 98.464000,88.701000 C 100.92200,85.012000 102.31400,80.815000 102.31400,76.363000 C 102.31400,71.911000 100.92200,67.714000 98.464000,64.025000 C 96.006000,67.714000 94.615000,71.911000 94.615000,76.363000 C 94.615000,80.815000 96.006000,85.012000 98.464000,88.701000 z "
   id="path45" />
			<line
   style="fill:#dcdcdc;stroke:#000000;stroke-width:0.50000000"
   x1="84.685997"
   y1="76.108002"
   x2="123.12800"
   y2="76.108002"
   id="line47" />
			<polyline
   style="fill:none;stroke:#000000;stroke-width:0.50000000"
   points="84.686,76.108 95.062,71.855 101.611,70.92      122.873,70.239 "
   id="polyline49" />
			<polyline
   style="fill:none;stroke:#000000;stroke-width:0.50000000"
   points="84.962,76.269 95.338,80.521 101.887,81.457      123.149,82.137 "
   id="polyline51" />
			<polyline
   style="fill:none;stroke:#000000;stroke-width:0.50000000"
   points="84.962,76.269 97.104,66.072 99.485,65.817      122.618,64.031 "
   id="polyline53" />
			<polyline
   style="fill:none;stroke:#000000;stroke-width:0.50000000"
   points="84.962,76.249 97.104,86.445 99.485,86.7 122.618,88.486      "
   id="polyline55" />
		</g>
		<g
   id="g57">
			<path
   style="fill:#7f7f7f;stroke:#000000;stroke-width:0.50000000"
   d="M 133.32500,79.961000 C 133.37100,80.257000 133.40700,80.566000 133.43000,80.885000 C 133.63700,83.685000 132.84000,86.193000 131.65100,86.488000 C 130.46200,86.783000 129.33100,84.751000 129.12500,81.951000 C 129.05100,80.948000 129.10500,79.983000 129.26100,79.143000 L 129.31000,78.851000 C 129.31000,78.851000 129.99900,78.439000 130.77400,78.628000 C 131.54900,78.817000 132.27300,79.157000 132.43300,79.257000 C 132.59300,79.357000 133.29100,79.729000 133.29100,79.729000 L 133.32000,79.937000"
   id="path59" />
			<path
   style="stroke:#000000;stroke-width:0.50000000"
   d="M 131.39000,83.431000 C 131.82000,83.325000 132.11600,82.519000 132.05100,81.633000 C 131.98600,80.747000 131.58400,80.114000 131.15300,80.220000 C 130.72300,80.327000 130.42700,81.132000 130.49200,82.018000 C 130.55700,82.905000 130.95900,83.538000 131.39000,83.431000 z "
   id="path61" />
			<path
   style="fill:none;stroke:#000000;stroke-width:0.50000000"
   d="M 127.19300,81.077000 C 129.70800,78.156000 129.58100,76.430000 139.44900,84.127000"
   id="path63" />
			<path
   style="fill:none;stroke:#000000;stroke-width:0.50000000"
   d="M 128.45100,82.118000 C 128.45100,82.118000 128.24700,81.357000 128.86400,79.718000"
   id="path65" />
			<path
   style="fill:none;stroke:#000000;stroke-width:0.50000000"
   d="M 128.92300,85.516000 C 132.03400,88.666000 135.92600,85.405000 137.69900,84.425000"
   id="path67" />
			<path
   style="fill:none;stroke:#000000;stroke-width:0.50000000"
   d="M 126.84200,78.325000 C 131.42300,71.377000 136.71200,78.045000 139.08900,81.242000"
   id="path69" />
			<path
   style="fill:#b4b4b4"
   d="M 126.96000,69.914000 C 126.96000,69.914000 131.20700,68.457000 131.42500,68.403000 C 131.64200,68.349000 136.03700,68.883000 136.64600,69.138000 C 137.25500,69.393000 141.32800,72.576000 141.32800,72.576000 L 142.51300,73.634000 C 142.51300,73.634000 141.23400,70.301000 141.05900,69.938000 C 140.88400,69.575000 135.78100,65.431000 135.78100,65.431000 L 131.64700,64.426000 L 128.40500,65.499000 L 126.77300,67.390000 L 126.38300,69.109000 L 126.96000,69.914000 z "
   id="path71" />
		</g>
		<line
   style="fill:none"
   x1="147.40100"
   y1="44.050999"
   x2="147.40100"
   y2="78.051003"
   id="line73" />
	</g>
</svg>