<?xml version="1.0" encoding="iso-8859-1"?>
<!DOCTYPE svg PUBLIC "-//W3C//DTD SVG 1.0//EN"    "http://www.w3.org/TR/2001/REC-SVG-20010904/DTD/svg10.dtd" [
	<!ENTITY ns_svg "http://www.w3.org/2000/svg">
	<!ENTITY ns_xlink "http://www.w3.org/1999/xlink">
]>
<svg 
	 width="146.822" height="21.405" viewBox="0 0 146.822 21.405" style="overflow:visible;enable-background:new 0 0 146.822 21.405"
	 xml:space="preserve">
	<style type="text/css">
	
	</style>
	<g id="Layer_1">
		<rect x="51.006" width="19.672" height="5.603"/> 
		<g>
			<line style="fill:none;stroke:#000000;stroke-width:0.5;" x1="50.709" y1="9.318" x2="71.372" y2="9.318"/>
			<path d="M72.805,9.318c-0.674,0.25-1.511,0.677-2.03,1.129l0.409-1.129l-0.409-1.129C71.293,8.641,72.13,9.068,72.805,9.318z"/>
			<path d="M49.275,9.318c0.675-0.25,1.512-0.677,2.03-1.129l-0.409,1.129l0.409,1.129C50.787,9.995,49.95,9.568,49.275,9.318z"/>
		</g>
		<line style="fill:none;stroke:#000000;stroke-width:0.5;" x1="48.571" y1="6.23" x2="48.571" y2="12.405"/>
		<line style="fill:none;stroke:#000000;stroke-width:0.5;" x1="73.509" y1="6.23" x2="73.509" y2="12.405"/>
		<g>
			<text transform="matrix(1 0 0 1 58.5464 17.2314)"><tspan x="0" y="0" style="font-family:Liberation Sans; font-size:7.650000;">d</tspan></text>
		</g>
		<rect x="76.257" width="19.672" height="5.603"/> 
		<g>
			<line style="fill:none;stroke:#000000;stroke-width:0.5;" x1="75.524" y1="9.318" x2="96.187" y2="9.318"/>
			<path d="M97.62,9.318c-0.674,0.25-1.511,0.677-2.03,1.129l0.409-1.129L95.59,8.188C96.109,8.641,96.946,9.068,97.62,9.318z"/>
			<path d="M74.091,9.318c0.674-0.25,1.511-0.677,2.03-1.129l-0.409,1.129l0.409,1.129C75.603,9.995,74.766,9.568,74.091,9.318z"/>
		</g>
		<line style="fill:none;stroke:#000000;stroke-width:0.5;" x1="98.324" y1="6.23" x2="98.324" y2="12.405"/>
		<g>
			<text transform="matrix(1 0 0 1 83.4795 17.3882)"><tspan x="0" y="0" style="font-family:Liberation Sans; font-size:7.650000;">d</tspan></text>
		</g>
		<rect width="45.933" height="5.603"/> 
		<rect x="100.889" width="45.933" height="5.603"/> 
	</g>
</svg>
