<?xml version="1.0" encoding="UTF-8" standalone="no"?>
<!-- Generator: Adobe Illustrator 11 Build 196, SVG Export Plug-In . SVG Version: 6.0.0 Build 78)  -->
<svg
   xmlns:dc="http://purl.org/dc/elements/1.1/"
   xmlns:cc="http://web.resource.org/cc/"
   xmlns:rdf="http://www.w3.org/1999/02/22-rdf-syntax-ns#"
   xmlns:svg="http://www.w3.org/2000/svg"
   xmlns="http://www.w3.org/2000/svg"
   xmlns:sodipodi="http://inkscape.sourceforge.net/DTD/sodipodi-0.dtd"
   xmlns:inkscape="http://www.inkscape.org/namespaces/inkscape"
   width="108.287"
   height="113.502"
   viewBox="0 0 108.287 113.502"
   style="overflow:visible;enable-background:new 0 0 108.287 113.502"
   xml:space="preserve"
   id="svg2"
   sodipodi:version="0.32"
   sodipodi:docname="virtual.svg"
   sodipodi:docbase="/home/bcrowell/Documents/writing/lm/trunk/5op/ch02/figs"><metadata
   id="metadata76"><rdf:RDF><cc:Work
       rdf:about=""><dc:format>image/svg+xml</dc:format><dc:type
         rdf:resource="http://purl.org/dc/dcmitype/StillImage" /></cc:Work></rdf:RDF></metadata><defs
   id="defs74" /><sodipodi:namedview
   inkscape:cy="58.228315"
   inkscape:cx="165.95070"
   inkscape:zoom="2.1613824"
   inkscape:window-height="510"
   inkscape:window-width="712"
   inkscape:pageshadow="2"
   inkscape:pageopacity="0.0"
   borderopacity="1.0"
   bordercolor="#666666"
   pagecolor="#ffffff"
   id="base"
   inkscape:window-x="148"
   inkscape:window-y="255"
   inkscape:current-layer="svg2" />
	<g
   id="Layer_1"
   transform="matrix(1.696877,0.000000,0.000000,1.696877,0.103138,-79.26624)">
		<line
   style="fill:none;stroke:#000000;stroke-width:0.50000000"
   x1="95.836998"
   y1="57.255001"
   x2="72.459999"
   y2="51.053001"
   id="line5" />
		<g
   id="g7">
			<line
   style="fill:none;stroke:#000000;stroke-width:0.50000000"
   x1="72.529999"
   y1="50.970001"
   x2="97.948997"
   y2="44.951000"
   id="line9" />
			<path
   d="M 100.14700,44.427000 C 99.202000,45.057000 98.072000,46.017000 97.439000,46.901000 L 97.655000,45.017000 L 96.617000,43.431000 C 97.579000,43.936000 99.021000,44.288000 100.14700,44.427000 z "
   id="path11" />
		</g>
		<line
   style="fill:none;stroke:#000000;stroke-width:0.50000000"
   x1="96.141998"
   y1="57.865002"
   x2="73.912003"
   y2="74.976997"
   id="line13" />
		<line
   style="fill:none;stroke:#000000;stroke-width:0.50000000;stroke-dasharray:2.0000000 "
   x1="71.712997"
   y1="51.049999"
   x2="24.525999"
   y2="62.078999"
   id="line15" />
		<line
   style="fill:none;stroke:#000000;stroke-width:0.50000000;stroke-dasharray:2.0000000 "
   x1="24.525999"
   y1="62.078999"
   x2="73.920998"
   y2="75.100998"
   id="line17" />
		<g
   id="g19">
			<line
   style="fill:none;stroke:#000000;stroke-width:0.50000000"
   x1="73.861000"
   y1="75.314003"
   x2="98.188004"
   y2="82.290001"
   id="line21" />
			<path
   d="M 100.36600,82.910000 C 99.233000,82.996000 97.777000,83.280000 96.793000,83.741000 L 97.905000,82.205000 L 97.776000,80.313000 C 98.366000,81.224000 99.451000,82.236000 100.36600,82.910000 z "
   id="path23" />
		</g>
		<line
   style="fill:none;stroke:#000000;stroke-width:0.50000000"
   x1="96.097000"
   y1="56.262001"
   x2="75.778999"
   y2="28.610001"
   id="line25" />
		<g
   id="g27">
			<line
   style="fill:none;stroke:#000000;stroke-width:0.50000000"
   x1="105.31200"
   y1="9.0120001"
   x2="76.261002"
   y2="28.802999"
   id="line29" />
			<path
   d="M 107.18500,7.7420000 C 106.52700,8.6680000 105.81500,9.9690000 105.54000,11.020000 L 105.06900,9.1830000 L 103.53200,8.0730000 C 104.61000,8.2020000 106.08200,8.0150000 107.18500,7.7420000 z "
   id="path31" />
		</g>
		<line
   style="fill:none;stroke:#000000;stroke-width:0.50000000;stroke-dasharray:2.0000000 "
   x1="75.844002"
   y1="28.763000"
   x2="24.525999"
   y2="62.078999"
   id="line33" />
		<path
   style="fill:none;stroke:#000000"
   d="M 87.395000,0.25200000 C 77.757000,16.718000 72.233000,35.884000 72.233000,56.341000 C 72.233000,77.136000 77.941000,96.598000 87.878000,113.24500"
   id="path35" />
		<g
   id="g37">
			<path
   style="fill:#ffffff"
   d="M 13.834000,75.651000 L 18.397000,73.210000 C 18.397000,73.210000 19.499000,72.856000 19.773000,72.200000 C 20.377000,70.760000 19.482000,67.269000 18.590000,66.260000 L 17.645000,66.235000 C 17.645000,66.235000 21.094000,65.368000 21.710000,64.764000 L 21.036000,64.606000 C 21.036000,64.606000 22.348000,65.156000 23.135000,64.579000 C 25.298000,62.992000 22.267000,58.862000 21.230000,57.656000 C 20.193000,56.450000 17.412000,54.103000 16.821000,52.267000 C 16.230000,50.431000 15.955000,51.087000 16.793000,47.900000 C 17.631000,44.713000 15.449000,33.907000 14.752000,30.484000 L 5.2110000,35.707000 L 10.470000,89.620000 C 10.470000,89.620000 12.844000,88.937000 13.813000,87.166000 C 14.783000,85.395000 13.929000,82.996000 13.876000,81.068000 C 13.822000,79.140000 17.179000,77.735000 17.507000,76.738000 C 17.834000,75.741000 16.679000,74.168000 16.679000,74.168000"
   id="path39" />
			<path
   style="fill:none;stroke:#000000;stroke-width:0.30000001"
   d="M 21.446000,64.881000 C 21.446000,64.881000 22.242000,65.166000 23.029000,64.589000 C 25.192000,63.001000 22.161000,58.871000 21.124000,57.665000 C 20.087000,56.459000 17.306000,54.112000 16.715000,52.277000 C 16.124000,50.441000 15.849000,51.097000 16.687000,47.909000 C 17.525000,44.722000 15.343000,33.916000 14.646000,30.493000"
   id="path41" />
			<path
   style="fill:none;stroke:#000000;stroke-width:0.30000001"
   d="M 21.604000,64.774000 C 20.988000,65.378000 17.539000,66.245000 17.539000,66.245000"
   id="path43" />
			<path
   style="fill:none;stroke:#000000;stroke-width:0.30000001"
   d="M 17.978000,66.442000 C 18.870000,67.452000 18.772000,70.908000 19.161000,72.382000 C 19.342000,73.070000 16.767000,74.207000 16.767000,74.207000 L 13.069000,74.380000 L 12.164000,74.132000 L 11.710000,73.970000"
   id="path45" />
			<path
   style="fill:none;stroke:#000000;stroke-width:0.30000001"
   d="M 16.573000,74.179000 C 16.573000,74.179000 17.728000,75.752000 17.401000,76.749000 C 17.073000,77.746000 13.717000,79.151000 13.770000,81.079000 C 13.823000,83.007000 14.677000,85.407000 13.707000,87.178000 C 12.737000,88.949000 10.364000,89.632000 10.364000,89.632000"
   id="path47" />
			
				<ellipse
   transform="matrix(-0.151600,0.988400,-0.988400,-0.151600,69.84180,51.60090)"
   style="fill:none;stroke:#000000;stroke-width:0.30000001"
   cx="12.776000"
   cy="55.772999"
   rx="7.1960001"
   ry="1.5850000"
   id="ellipse49"
   sodipodi:cx="12.776000"
   sodipodi:cy="55.772999"
   sodipodi:rx="7.1960001"
   sodipodi:ry="1.5850000" /> 
			<path
   style="fill:none;stroke:#000000;stroke-width:0.30000001"
   d="M 17.616000,53.464000 C 18.258000,50.656000 19.161000,48.697000 19.855000,48.804000 C 20.721000,48.937000 20.934000,52.229000 20.331000,56.158000 C 20.305000,56.327000 20.278000,56.494000 20.250000,56.659000"
   id="path51" />
			<line
   style="fill:none;stroke:#000000;stroke-width:0.30000001"
   x1="11.692000"
   y1="52.029999"
   x2="0.0020000001"
   y2="51.868999"
   id="line53" />
		</g>
		<g
   id="g55">
			<path
   style="fill:#ddc2ae"
   d="M 99.865000,63.069000 C 99.865000,63.069000 99.278000,63.870000 99.444000,64.377000 C 99.610000,64.884000 101.31900,65.599000 101.29200,66.580000 C 101.26500,67.561000 100.83100,68.782000 101.32400,69.684000 C 101.81700,70.586000 103.02500,70.933000 103.02500,70.933000 L 108.14600,70.830000 L 108.14600,40.820000 L 100.84600,40.839000 C 100.49200,42.581000 99.381000,48.080000 99.807000,49.702000 C 100.23400,51.324000 100.09400,50.990000 99.793000,51.924000 C 99.492000,52.859000 98.077000,54.052000 97.549000,54.666000 C 97.022000,55.280000 95.479000,57.382000 96.580000,58.189000 C 96.980000,58.483000 97.386000,58.338000 97.386000,58.338000 L 99.151000,59.132000 C 98.697000,59.646000 98.747000,61.404000 98.549000,62.155000 C 98.456000,62.505000 99.767000,63.084000 99.767000,63.084000 L 100.03600,63.096000"
   id="path57" />
			<path
   style="fill:none"
   d="M 101.24600,63.930000 L 98.924000,62.687000 C 98.924000,62.687000 98.363000,62.507000 98.223000,62.173000 C 97.916000,61.440000 98.371000,59.664000 98.825000,59.150000 L 99.306000,59.137000 C 99.306000,59.137000 97.551000,58.696000 97.238000,58.388000 L 97.581000,58.307000 C 97.581000,58.307000 96.914000,58.587000 96.513000,58.293000 C 95.412000,57.485000 96.955000,55.383000 97.482000,54.770000 C 98.009000,54.157000 99.425000,52.962000 99.726000,52.028000 C 100.02700,51.094000 100.16700,51.427000 99.740000,49.806000 C 99.314000,48.184000 100.42400,42.685000 100.77900,40.943000 L 105.63400,43.601000 L 102.95800,71.038000 C 102.95800,71.038000 101.75000,70.690000 101.25700,69.789000 C 100.76300,68.888000 101.19800,67.666000 101.22500,66.685000 C 101.25200,65.704000 99.544000,64.989000 99.377000,64.481000 C 99.210000,63.973000 99.798000,63.173000 99.798000,63.173000"
   id="path59" />
			<path
   style="fill:none;stroke:#000000;stroke-width:0.30000001"
   d="M 100.83200,40.950000 C 100.47800,42.692000 99.367000,48.191000 99.794000,49.813000 C 100.22000,51.435000 100.08000,51.101000 99.780000,52.036000 C 99.479000,52.970000 98.064000,54.164000 97.536000,54.778000 C 97.009000,55.392000 95.466000,57.493000 96.567000,58.301000 C 96.967000,58.595000 97.373000,58.450000 97.373000,58.450000"
   id="path61" />
			<path
   style="fill:none;stroke:#000000;stroke-width:0.30000001"
   d="M 99.137000,59.244000 C 98.683000,59.758000 98.733000,61.516000 98.535000,62.267000 C 98.443000,62.617000 99.753000,63.196000 99.753000,63.196000 L 101.63500,63.284000 L 102.09600,63.158000 L 102.32600,63.076000"
   id="path63" />
			<path
   style="fill:none;stroke:#000000;stroke-width:0.30000001"
   d="M 99.852000,63.181000 C 99.852000,63.181000 99.264000,63.982000 99.431000,64.489000 C 99.598000,64.996000 101.30600,65.711000 101.27900,66.692000 C 101.25200,67.673000 100.81800,68.894000 101.31100,69.796000 C 101.80400,70.698000 103.01200,71.045000 103.01200,71.045000"
   id="path65" />
			
				<ellipse
   transform="matrix(0.151700,0.988400,-0.988400,0.151700,139.5407,-54.95380)"
   style="fill:none;stroke:#000000;stroke-width:0.30000001"
   cx="101.78400"
   cy="53.813999"
   rx="3.6619999"
   ry="0.80699998"
   id="ellipse67"
   sodipodi:cx="101.78400"
   sodipodi:cy="53.813999"
   sodipodi:rx="3.6619999"
   sodipodi:ry="0.80699998" /> 
			<path
   style="fill:none;stroke:#000000;stroke-width:0.30000001"
   d="M 99.321000,52.639000 C 98.995000,51.210000 98.535000,50.214000 98.181000,50.267000 C 97.741000,50.335000 97.632000,52.010000 97.939000,54.010000 C 97.952000,54.095000 97.966000,54.180000 97.980000,54.264000"
   id="path69" />
			<line
   style="fill:none;stroke:#000000;stroke-width:0.30000001"
   x1="102.33600"
   y1="51.909000"
   x2="108.28500"
   y2="51.827000"
   id="line71" />
		</g>
	</g>
<text
   xml:space="preserve"
   style="font-size:10.000000px;font-style:normal;font-variant:normal;font-weight:normal;font-stretch:normal;text-align:start;line-height:125.00000%;writing-mode:lr-tb;text-anchor:start;fill:#000000;fill-opacity:1.0000000;stroke:none;stroke-width:1.0000000pt;stroke-linecap:butt;stroke-linejoin:miter;stroke-opacity:1.0000000;font-family:Liberation Sans"
   x="147.95877"
   y="38.679935"
   id="text1374"
   sodipodi:linespacing="125.00000%"><tspan
     sodipodi:role="line"
     id="tspan1376"
     x="147.95877"
     y="38.679935">1</tspan></text>

<text
   xml:space="preserve"
   style="font-size:10.000000px;font-style:normal;font-variant:normal;font-weight:normal;font-stretch:normal;text-align:start;line-height:125.00000%;writing-mode:lr-tb;text-anchor:start;fill:#000000;fill-opacity:1.0000000;stroke:none;stroke-width:1.0000000pt;stroke-linecap:butt;stroke-linejoin:miter;stroke-opacity:1.0000000;font-family:Liberation Sans"
   x="144.49654"
   y="65.432076"
   id="text1378"
   sodipodi:linespacing="125.00000%"><tspan
     sodipodi:role="line"
     id="tspan1380"
     x="144.49654"
     y="65.432076">2</tspan></text>

<text
   xml:space="preserve"
   style="font-size:10.000000px;font-style:normal;font-variant:normal;font-weight:normal;font-stretch:normal;text-align:start;line-height:125.00000%;writing-mode:lr-tb;text-anchor:start;fill:#000000;fill-opacity:1.0000000;stroke:none;stroke-width:1.0000000pt;stroke-linecap:butt;stroke-linejoin:miter;stroke-opacity:1.0000000;font-family:Liberation Sans"
   x="92.619385"
   y="49.004444"
   id="text1382"
   sodipodi:linespacing="125.00000%"><tspan
     sodipodi:role="line"
     id="tspan1384"
     x="92.619385"
     y="49.004444">3</tspan></text>

</svg>