<?xml version="1.0" encoding="iso-8859-1"?>
<!-- Generator: Adobe Illustrator 11 Build 196, SVG Export Plug-In . SVG Version: 6.0.0 Build 78)  -->
<!DOCTYPE svg PUBLIC "-//W3C//DTD SVG 1.0//EN"    "http://www.w3.org/TR/2001/REC-SVG-20010904/DTD/svg10.dtd" [
	<!ENTITY ns_flows "http://ns.adobe.com/Flows/1.0/">
	<!ENTITY ns_svg "http://www.w3.org/2000/svg">
	<!ENTITY ns_xlink "http://www.w3.org/1999/xlink">
]>
<svg
	 width="21.75" height="16.655" viewBox="0 0 21.75 16.655" style="overflow:visible;enable-background:new 0 0 21.75 16.655"
	 xml:space="preserve">
	<g id="Layer_1">
		<g>
			<path style="fill:none;stroke:#000000;" d="M14.603,8.338c-1.842-3.292-1.685-2.821-2.351-3.879
				c-0.667-1.058-1.097-1.528-1.567-2.086S9.548,1.314,9.117,0.991C8.686,0.667,8.098,0.55,7.55,0.521
				c-0.549-0.029-1.293,0.265-1.607,0.47S5.159,1.402,4.415,2.313C3.67,3.224,2.848,4.253,0.457,8.338"/>
			<path style="fill:none;stroke:#000000;" d="M14.63,8.336c2.39,4.085,3.213,5.114,3.958,6.025
				c0.745,0.911,1.215,1.117,1.528,1.322s1.058,0.5,1.606,0.47"/>
		</g>
		<g>
			<path style="fill:none;stroke:#000000;" d="M14.603,8.318c-1.842,3.292-1.685,2.821-2.351,3.879
				c-0.667,1.058-1.097,1.528-1.567,2.087c-0.47,0.558-1.137,1.058-1.567,1.381c-0.431,0.323-1.019,0.44-1.567,0.47
				c-0.549,0.029-1.293-0.265-1.607-0.47c-0.313-0.206-0.784-0.412-1.528-1.323c-0.745-0.911-1.567-1.939-3.958-6.024"/>
			<path style="fill:none;stroke:#000000;" d="M14.63,8.319c2.39-4.085,3.213-5.113,3.958-6.024
				c0.745-0.911,1.215-1.117,1.528-1.322c0.313-0.206,1.058-0.5,1.606-0.47"/>
		</g>
		<g>
			<path style="fill:none;stroke:#000000;stroke-width:0.5;" d="M14.146,8.328c-1.842,0-1.685,0-2.351,0s-1.097,0-1.567,0
				s-1.136,0-1.567,0s-1.019,0-1.567,0c-0.549,0-1.293,0-1.606,0c-0.313,0-0.784,0-1.528,0s-1.567,0-3.958,0"/>
			<path style="fill:none;stroke:#000000;stroke-width:0.5;" d="M14.173,8.328c2.391,0,3.213,0,3.958,0c0.744,0,1.214,0,1.528,0
				s1.058,0,1.607,0"/>
		</g>
	</g>
</svg>
