<?xml version="1.0" encoding="iso-8859-1"?>
<!-- Generator: Adobe Illustrator 11 Build 196, SVG Export Plug-In . SVG Version: 6.0.0 Build 78)  -->
<!DOCTYPE svg PUBLIC "-//W3C//DTD SVG 1.0//EN"    "http://www.w3.org/TR/2001/REC-SVG-20010904/DTD/svg10.dtd" [
	<!ENTITY ns_flows "http://ns.adobe.com/Flows/1.0/">
	<!ENTITY ns_svg "http://www.w3.org/2000/svg">
	<!ENTITY ns_xlink "http://www.w3.org/1999/xlink">
]>
<svg  
	 width="326.413" height="139.676" viewBox="0 0 326.413 139.676"
	 style="overflow:visible;enable-background:new 0 0 326.413 139.676" xml:space="preserve">
	<style type="text/css">
	
	</style>
	<g id="Layer_1">
		<circle cx="234.432" cy="95.636" r="6.682"/> 
		<g>
			<path style="fill:none;stroke:#000000;" d="M0,53.941h168.667c19.333,0,47.333-3.333,64-10C249.333,37.275,312,11.275,312,11.275
				"/>
			<path d="M314.785,10.113c-1.109,1.031-2.392,2.537-3.036,3.834l-0.117-2.526l-1.705-1.866
				C311.3,10.016,313.272,10.17,314.785,10.113z"/>
		</g>
		<line style="fill:none;stroke:#000000;stroke-dasharray:2;" x1="140.517" y1="138.333" x2="86.184" y2="138.333"/>
		
			<linearGradient id="XMLID_3_" gradientUnits="userSpaceOnUse" x1="91.7881" y1="-22.25" x2="91.7881" y2="-109.25" gradientTransform="matrix(-1 0 0 1 219.2842 162)">
			<stop  offset="0" style="stop-color:#FFFFFF"/>
			<stop  offset="1" style="stop-color:#000000"/>
			<midPointStop  offset="0" style="stop-color:#FFFFFF"/>
			<midPointStop  offset="0.5" style="stop-color:#FFFFFF"/>
			<midPointStop  offset="1" style="stop-color:#000000"/>
		</linearGradient>
		<path style="fill:url(#XMLID_3_);" d="M87.622,139.022c13.668,0,24.749-18.995,24.749-42.426S101.29,54.169,87.622,54.169
			c-0.335,0-0.668,0.021-1,0.043v-0.455h57v0.412c13.668,0,24.749,18.995,24.749,42.426s-11.081,42.426-24.749,42.426v0.412h-57
			v-0.455C86.954,139.001,87.286,139.022,87.622,139.022z"/>
		
			<linearGradient id="XMLID_4_" gradientUnits="userSpaceOnUse" x1="133.7881" y1="-102.5" x2="133.7881" y2="-27.75" gradientTransform="matrix(-1 0 0 1 220.9512 162)">
			<stop  offset="0" style="stop-color:#FFFFFF"/>
			<stop  offset="1" style="stop-color:#000000"/>
			<midPointStop  offset="0" style="stop-color:#FFFFFF"/>
			<midPointStop  offset="0.5" style="stop-color:#FFFFFF"/>
			<midPointStop  offset="1" style="stop-color:#000000"/>
		</linearGradient>
		<ellipse style="fill:url(#XMLID_4_);" cx="87.163" cy="97" rx="22.097" ry="38.184"/> 
		<path style="fill:#B4B4B4;stroke:#FFFFFF;stroke-dasharray:2;" d="M62.415,96.75c0,23.431,11.081,42.426,24.749,42.426
			s24.749-18.995,24.749-42.426s-11.081-42.426-24.749-42.426S62.415,73.319,62.415,96.75z M65.553,96.75
			c0-20.459,9.676-37.046,21.61-37.046s21.61,16.586,21.61,37.046c0,20.46-9.676,37.046-21.61,37.046S65.553,117.21,65.553,96.75z"
			/>
		<line style="fill:none;stroke:#000000;stroke-dasharray:2;" x1="168.413" y1="95.636" x2="273.143" y2="95.636"/>
		<g>
			<path d="M313.24,3.47c-1.038,1.103-2.217,2.691-2.773,4.028l-0.286-2.512l-1.826-1.748C309.756,3.605,311.734,3.628,313.24,3.47z
				"/>
			<path style="fill:none;stroke:#000000;" d="M157.413,60h13.167c19.29-1.292,46.803-9.522,62.987-17.288
				c16.184-7.766,76.972-37.896,76.972-37.896"/>
		</g>
		<line style="fill:none;stroke:#000000;" x1="1.413" y1="59.542" x2="85.58" y2="59.542"/>
		<g>
			<text transform="matrix(1 0 0 1 290.4131 32)"><tspan x="0" y="0" style="font-family:Liberation Sans; font-size:8.500000;">19</tspan></text>
			<text transform="matrix(1 0 0 1 301.5361 32)"><tspan x="0" y="0" style="font-family:Liberation Sans; font-size:8.500000;">&#xB0;</tspan></text>
		</g>
		<g>
			<text transform="matrix(1 0 0 1 281.4131 10)"><tspan x="0" y="0" style="font-family:Liberation Sans; font-size:8.500000;">20</tspan></text>
			<text transform="matrix(1 0 0 1 292.5361 10)"><tspan x="0" y="0" style="font-family:Liberation Sans; font-size:8.500000;">&#xB0;</tspan></text>
		</g>
		<line style="fill:none;stroke:#000000;stroke-dasharray:2;" x1="107.913" y1="95" x2="2.08" y2="95"/>
		<g>
			<text transform="matrix(1 0 0 1 219.4131 114)"><tspan x="0" y="0" style="font-family:Liberation Sans; font-size:8.500000;">nucleus</tspan></text>
		</g>
		<line style="fill:none;" x1="326.413" y1="35" x2="326.413" y2="81"/>
	</g>
</svg>
