<?xml version="1.0" encoding="iso-8859-1"?>
<!-- Generator: Adobe Illustrator 11 Build 196, SVG Export Plug-In . SVG Version: 6.0.0 Build 78)  -->
<!DOCTYPE svg PUBLIC "-//W3C//DTD SVG 1.0//EN"    "http://www.w3.org/TR/2001/REC-SVG-20010904/DTD/svg10.dtd" [
	<!ENTITY ns_flows "http://ns.adobe.com/Flows/1.0/">
	<!ENTITY ns_svg "http://www.w3.org/2000/svg">
	<!ENTITY ns_xlink "http://www.w3.org/1999/xlink">
]>
<svg  
	 width="147.401" height="111.12" viewBox="0 0 147.401 111.12" style="overflow:visible;enable-background:new 0 0 147.401 111.12"
	 xml:space="preserve">
	<style type="text/css">
	
	</style>
	<g id="Layer_1">
		<rect y="55.682" style="fill:none;" width="147.401" height="2.834"/> 
		
			<linearGradient id="XMLID_10_" gradientUnits="userSpaceOnUse" x1="114.5151" y1="14.5317" x2="78.3403" y2="14.5317" gradientTransform="matrix(0.8 0 0 0.8 34.9775 43.4736)">
			<stop  offset="0" style="stop-color:#FFFFFF"/>
			<stop  offset="1" style="stop-color:#868686"/>
			<midPointStop  offset="0" style="stop-color:#FFFFFF"/>
			<midPointStop  offset="0.5" style="stop-color:#FFFFFF"/>
			<midPointStop  offset="1" style="stop-color:#868686"/>
		</linearGradient>
		<polygon style="fill:url(#XMLID_10_);" points="126.591,51.382 110.531,51.382 110.531,47.663 97.651,55.099 110.531,62.535 
			110.531,58.582 126.591,58.582 "/>
		<g>
			<g>
				<line style="fill:#FFFFFF;stroke:#000000;stroke-width:0.5;" x1="11.5" y1="6.37" x2="11.5" y2="51.37"/>
				<path d="M11.5,54.387c-0.527-1.42-1.426-3.182-2.377-4.273l2.377,0.86l2.377-0.86C12.926,51.206,12.026,52.967,11.5,54.387z"/>
				<path d="M11.5,3.352c0.527,1.42,1.426,3.182,2.377,4.273L11.5,6.766l-2.377,0.86C10.074,6.534,10.974,4.772,11.5,3.352z"/>
			</g>
			<rect x="7.5" y="22.37" style="fill:#FFFFFF;" width="7.5" height="11"/> 
			<line style="fill:none;stroke:#000000;stroke-width:0.5;" x1="0.5" y1="54.87" x2="145.5" y2="54.87"/>
			<line style="fill:none;stroke:#000000;stroke-width:0.5;" x1="27" y1="1.37" x2="27" y2="109.37"/>
			<circle style="fill:#FFFFFF;stroke:#000000;stroke-width:0.5;" cx="27.062" cy="3.432" r="3.182"/> 
			<circle style="fill:#FFFFFF;stroke:#000000;stroke-width:0.5;" cx="27" cy="107.688" r="3.182"/> 
			<g>
				<text transform="matrix(1 0 0 1 9 31.8696)"><tspan x="0" y="0" style="font-family:Liberation Sans; font-size:8.500000;">b</tspan></text>
			</g>
			<g>
				<line style="fill:#FFFFFF;stroke:#000000;stroke-width:0.5;" x1="11.5" y1="58.62" x2="11.5" y2="103.62"/>
				<path d="M11.5,106.637c-0.527-1.42-1.426-3.182-2.377-4.273l2.377,0.86l2.377-0.86C12.926,103.456,12.026,105.217,11.5,106.637z
					"/>
				<path d="M11.5,55.602c0.527,1.42,1.426,3.182,2.377,4.273l-2.377-0.86l-2.377,0.86C10.074,58.784,10.974,57.022,11.5,55.602z"/>
			</g>
			<rect x="7.5" y="74.62" style="fill:#FFFFFF;" width="7.5" height="11"/> 
			<g>
				<text transform="matrix(1 0 0 1 9 84.1196)"><tspan x="0" y="0" style="font-family:Liberation Sans; font-size:8.500000;">b</tspan></text>
			</g>
			<circle style="fill:#FFFFFF;stroke:#000000;stroke-width:0.5;" cx="126.625" cy="54.932" r="3.182"/> 
		</g>
	</g>
</svg>
