<?xml version="1.0" encoding="iso-8859-1"?>
<!-- Generator: Adobe Illustrator 11 Build 196, SVG Export Plug-In . SVG Version: 6.0.0 Build 78)  -->
<!DOCTYPE svg PUBLIC "-//W3C//DTD SVG 1.0//EN"    "http://www.w3.org/TR/2001/REC-SVG-20010904/DTD/svg10.dtd" [
	<!ENTITY ns_flows "http://ns.adobe.com/Flows/1.0/">
	<!ENTITY ns_svg "http://www.w3.org/2000/svg">
	<!ENTITY ns_xlink "http://www.w3.org/1999/xlink">
]>
<svg  
	 width="129.654" height="99.618" viewBox="0 0 129.654 99.618" style="overflow:visible;enable-background:new 0 0 129.654 99.618"
	 xml:space="preserve">
	<style type="text/css">
	
	</style>
	<g id="Layer_1">
		<line style="fill:none;stroke:#000000;" x1="17.351" y1="5.336" x2="17.351" y2="22.542"/>
		<line style="fill:none;stroke:#000000;" x1="68.152" y1="5.336" x2="68.152" y2="22.542"/>
		<g>
			<line style="fill:none;stroke:#000000;" x1="21.539" y1="13.939" x2="64.634" y2="13.939"/>
			<path d="M67.831,13.939c-1.504,0.558-3.372,1.511-4.528,2.52l0.911-2.52l-0.911-2.52C64.46,12.428,66.327,13.381,67.831,13.939z"
				/>
			<path d="M18.341,13.939c1.504-0.559,3.372-1.511,4.528-2.52l-0.911,2.52l0.911,2.519C21.712,15.45,19.845,14.497,18.341,13.939z"
				/>
		</g>
		<g>
			<text transform="matrix(1 0 0 1 28.1733 9)"><tspan x="0" y="0" style="font-family:Liberation Sans; font-size:7.650000;">0.1 nm</tspan></text>
		</g>
		<g>
			<text transform="matrix(1 0 0 1 96.0173 61.021)"><tspan x="0" y="0" style="font-family:Liberation Sans; font-size:7.650000;">0.1 nm</tspan></text>
		</g>
		<circle style="fill:none;stroke:#000000;" cx="16.805" cy="30.258" r="3.09"/> 
		<circle style="fill:none;stroke:#000000;" cx="67.811" cy="30.258" r="3.09"/> 
		<circle style="fill:none;stroke:#000000;" cx="68.151" cy="81.592" r="3.09"/> 
		<g>
			<text transform="matrix(1 0 0 1 0.2417 43.9346)"><tspan x="0" y="0" style="font-family:Liberation Sans; font-size:7.650000;">electron</tspan></text>
		</g>
		<g>
			<text transform="matrix(1 0 0 1 52.2153 44.2681)"><tspan x="0" y="0" style="font-family:Liberation Sans; font-size:7.650000;">nucleus</tspan></text>
		</g>
		<g>
			<text transform="matrix(1 0 0 1 51.3081 95.6016)"><tspan x="0" y="0" style="font-family:Liberation Sans; font-size:7.650000;">electron</tspan></text>
		</g>
		<line style="fill:none;" x1="129.654" y1="68.583" x2="129.654" y2="47.367"/>
		<line style="fill:none;" x1="0" y1="32.254" x2="0" y2="15.92"/>
		<line style="fill:none;stroke:#000000;" x1="82.084" y1="81.696" x2="99.291" y2="81.696"/>
		<line style="fill:none;stroke:#000000;" x1="82.084" y1="30.895" x2="99.291" y2="30.895"/>
		<g>
			<line style="fill:none;stroke:#000000;" x1="90.687" y1="77.245" x2="90.687" y2="34.149"/>
			<path d="M90.687,30.951c0.559,1.505,1.511,3.372,2.52,4.529l-2.52-0.911l-2.519,0.911C89.177,34.323,90.129,32.456,90.687,30.951
				z"/>
			<path d="M90.687,80.442c-0.558-1.505-1.511-3.372-2.52-4.529l2.52,0.911l2.52-0.911C92.198,77.071,91.245,78.938,90.687,80.442z"
				/>
		</g>
	</g>
</svg>
