<?xml version="1.0" encoding="iso-8859-1"?>
<!-- Generator: Adobe Illustrator 11 Build 196, SVG Export Plug-In . SVG Version: 6.0.0 Build 78)  -->
<!DOCTYPE svg PUBLIC "-//W3C//DTD SVG 1.0//EN"    "http://www.w3.org/TR/2001/REC-SVG-20010904/DTD/svg10.dtd" [
	<!ENTITY ns_flows "http://ns.adobe.com/Flows/1.0/">
	<!ENTITY ns_svg "http://www.w3.org/2000/svg">
	<!ENTITY ns_xlink "http://www.w3.org/1999/xlink">
]>
<svg  
	 width="127.383" height="48.285" viewBox="0 0 127.383 48.285" style="overflow:visible;enable-background:new 0 0 127.383 48.285"
	 xml:space="preserve">
	<style type="text/css">
	
	</style>
	<g id="Layer_1">
		<line style="fill:none;stroke:#000000;" x1="11.393" y1="5.336" x2="11.393" y2="22.542"/>
		<line style="fill:none;stroke:#000000;" x1="62.194" y1="5.336" x2="62.194" y2="22.542"/>
		<line style="fill:none;stroke:#000000;" x1="112.995" y1="5.336" x2="112.995" y2="22.542"/>
		<g>
			<line style="fill:none;stroke:#000000;" x1="15.58" y1="13.939" x2="58.675" y2="13.939"/>
			<path d="M61.873,13.939c-1.504,0.558-3.372,1.511-4.528,2.52l0.911-2.52l-0.911-2.52C58.501,12.428,60.369,13.381,61.873,13.939z
				"/>
			<path d="M12.383,13.939c1.504-0.559,3.372-1.511,4.528-2.52L16,13.939l0.911,2.519C15.754,15.45,13.887,14.497,12.383,13.939z"/>
		</g>
		<g>
			<line style="fill:none;stroke:#000000;" x1="66.646" y1="13.939" x2="109.741" y2="13.939"/>
			<path d="M112.938,13.939c-1.505,0.558-3.372,1.511-4.529,2.52l0.912-2.52l-0.912-2.52
				C109.567,12.428,111.434,13.381,112.938,13.939z"/>
			<path d="M63.448,13.939c1.504-0.559,3.372-1.511,4.528-2.52l-0.911,2.52l0.911,2.519C66.819,15.45,64.952,14.497,63.448,13.939z"
				/>
		</g>
		<g>
			<text transform="matrix(1 0 0 1 22.2151 9)"><tspan x="0" y="0" style="font-family:Liberation Sans; font-size:7.650000;">0.1 nm</tspan></text>
		</g>
		<g>
			<text transform="matrix(1 0 0 1 73.1841 9)"><tspan x="0" y="0" style="font-family:Liberation Sans; font-size:7.650000;">0.1 nm</tspan></text>
		</g>
		<circle style="fill:none;stroke:#000000;" cx="10.847" cy="30.258" r="3.09"/> 
		<circle style="fill:none;stroke:#000000;" cx="61.853" cy="30.258" r="3.09"/> 
		<circle style="fill:none;stroke:#000000;" cx="112.859" cy="30.259" r="3.09"/> 
		<g>
			<text transform="matrix(1 0 0 1 2.6169 44.2681)"><tspan x="0" y="0" style="font-family:Liberation Sans; font-size:7.650000;">electron</tspan></text>
		</g>
		<g>
			<text transform="matrix(1 0 0 1 47.5903 44.2681)"><tspan x="0" y="0" style="font-family:Liberation Sans; font-size:7.650000;">nucleus</tspan></text>
		</g>
		<g>
			<text transform="matrix(1 0 0 1 90.0166 44.2681)"><tspan x="0" y="0" style="font-family:Liberation Sans; font-size:7.650000;">electron</tspan></text>
		</g>
		<line style="fill:none;" x1="127.383" y1="36.562" x2="127.383" y2="15.346"/>
		<line style="fill:none;" x1="0" y1="32.254" x2="0" y2="15.92"/>
	</g>
</svg>
