<?xml version="1.0" encoding="iso-8859-1"?>
<!-- Generator: Adobe Illustrator 11 Build 196, SVG Export Plug-In . SVG Version: 6.0.0 Build 78)  -->
<!DOCTYPE svg PUBLIC "-//W3C//DTD SVG 1.0//EN"    "http://www.w3.org/TR/2001/REC-SVG-20010904/DTD/svg10.dtd" [
	<!ENTITY ns_flows "http://ns.adobe.com/Flows/1.0/">
	<!ENTITY ns_svg "http://www.w3.org/2000/svg">
	<!ENTITY ns_xlink "http://www.w3.org/1999/xlink">
]>
<svg  
	 width="144.458" height="98.02" viewBox="0 0 144.458 98.02" style="overflow:visible;enable-background:new 0 0 144.458 98.02"
	 xml:space="preserve">
	<style type="text/css">
	
	</style>
	<g id="Layer_1">
		<rect x="0.5" y="0.5" style="fill:#FFFFFF;stroke:#000000;" width="139.666" height="97.02"/> 
		<rect x="2.856" y="49.011" style="fill:#FFFFFF;stroke:#000000;" width="134.703" height="45.101"/> 
		<rect x="2.856" y="3.908" style="fill:#FFFFFF;stroke:#000000;" width="134.703" height="45.101"/> 
		<circle cx="85.291" cy="67.626" r="0.884"/> 
		<circle cx="55.041" cy="67.126" r="0.884"/> 
		<circle cx="35.407" cy="65.76" r="0.884"/> 
		<circle cx="135.425" cy="92.959" r="0.884"/> 
		<circle cx="18.541" cy="64.376" r="0.884"/> 
		<circle cx="56.791" cy="59.105" r="0.884"/> 
		<circle cx="135.791" cy="82.876" r="0.884"/> 
		<circle cx="81.157" cy="92.76" r="0.884"/> 
		<circle cx="64.291" cy="52.626" r="0.884"/> 
		<circle cx="9.291" cy="56.376" r="0.884"/> 
		<circle cx="35.907" cy="71.01" r="0.884"/> 
		<circle cx="123.041" cy="51.626" r="0.884"/> 
		<circle cx="47.208" cy="93.361" r="0.884"/> 
		<circle cx="64.074" cy="53.227" r="0.884"/> 
		<circle cx="74.657" cy="54.51" r="0.884"/> 
		<circle cx="51.791" cy="90.539" r="0.884"/> 
		<circle cx="98.009" cy="65.278" r="0.884"/> 
		<circle cx="99.125" cy="85.144" r="0.884"/> 
		<circle cx="13.759" cy="81.278" r="0.884"/> 
		<circle cx="131.009" cy="62.778" r="0.884"/> 
		<circle cx="76.375" cy="52.894" r="0.884"/> 
		<circle cx="59.509" cy="93.028" r="0.884"/> 
		<circle cx="40.375" cy="72.394" r="0.884"/> 
		<circle cx="31.125" cy="74.644" r="0.884"/> 
		<circle cx="95.125" cy="63.76" r="0.884"/> 
		<circle cx="108.425" cy="92.01" r="0.884"/> 
		<circle cx="6.175" cy="77.543" r="0.884"/> 
		<circle cx="42.425" cy="52.293" r="0.884"/> 
		<circle cx="78.541" cy="52.876" r="0.884"/> 
		<circle cx="127.892" cy="45.358" r="0.884"/> 
		<circle cx="21.392" cy="40.909" r="0.884"/> 
		<circle cx="87.041" cy="23.894" r="0.884"/> 
		<circle cx="42.458" cy="30.873" r="0.884"/> 
		<g>
			<text transform="matrix(1 0 0 1 50.7913 79.9268)"><tspan x="0" y="0" style="font-family:Liberation Sans; font-size:7.650000;">radon gas</tspan></text>
		</g>
		<circle cx="22.337" cy="71.656" r="2.121"/> 
		<circle cx="105.458" cy="70.322" r="2.121"/> 
		<circle cx="45.083" cy="84.947" r="2.121"/> 
		<circle cx="116.062" cy="61.76" r="2.121"/> 
		<circle cx="47.232" cy="60.635" r="2.121"/> 
		<circle cx="121.395" cy="83.427" r="2.121"/> 
		<circle cx="17.791" cy="87.531" r="2.121"/> 
		<circle cx="65.003" cy="62.656" r="2.121"/> 
		<circle cx="25.021" cy="58.739" r="2.121"/> 
		<circle cx="107.458" cy="58.777" r="2.121"/> 
		<circle cx="126.562" cy="72.427" r="2.121"/> 
		<circle cx="31.125" cy="82.593" r="2.121"/> 
		<circle cx="106.791" cy="86.26" r="2.121"/> 
		<circle cx="65.913" cy="90.322" r="2.121"/> 
		<circle cx="10.666" cy="58.864" r="2.121"/> 
		<circle cx="124.562" cy="56.593" r="2.121"/> 
		<circle cx="75.791" cy="59.534" r="2.121"/> 
		<circle cx="16.791" cy="72.11" r="2.121"/> 
		<circle cx="112.791" cy="79.989" r="2.121"/> 
		<circle cx="120.337" cy="91.989" r="2.121"/> 
		<circle cx="112.67" cy="68.989" r="2.121"/> 
		<circle cx="25.791" cy="79.868" r="2.121"/> 
		<circle cx="36.791" cy="87.444" r="2.121"/> 
		<circle cx="29.337" cy="60.989" r="2.121"/> 
		<g>
			<text transform="matrix(1 0 0 1 22.458 20.3223)"><tspan x="0" y="0" style="font-family:Liberation Sans; font-size:7.650000;">alpha particles</tspan></text>
		</g>
		<g>
			<text transform="matrix(1 0 0 1 32.1245 48.3223)"><tspan x="0" y="0" style="font-family:Liberation Sans; font-size:7.650000;">thin glass wall</tspan></text>
		</g>
		<line style="fill:none;" x1="144.458" y1="27.989" x2="144.458" y2="72.656"/>
	</g>
</svg>
