<?xml version="1.0" encoding="iso-8859-1"?>
<!-- Generator: Adobe Illustrator 11 Build 196, SVG Export Plug-In . SVG Version: 6.0.0 Build 78)  -->
<!DOCTYPE svg PUBLIC "-//W3C//DTD SVG 1.0//EN"    "http://www.w3.org/TR/2001/REC-SVG-20010904/DTD/svg10.dtd" [
	<!ENTITY ns_flows "http://ns.adobe.com/Flows/1.0/">
	<!ENTITY ns_svg "http://www.w3.org/2000/svg">
	<!ENTITY ns_xlink "http://www.w3.org/1999/xlink">
]>
<svg  
	 width="107.066" height="107.066" viewBox="0 0 107.066 107.066"
	 style="overflow:visible;enable-background:new 0 0 107.066 107.066" xml:space="preserve">
	<style type="text/css">
	
	</style>
	<g id="Layer_1">
		<radialGradient id="XMLID_32_" cx="39.533" cy="30.783" r="82.8349" fx="39.533" fy="30.783" gradientUnits="userSpaceOnUse">
			<stop  offset="0" style="stop-color:#FFFFFF"/>
			<stop  offset="1" style="stop-color:#000000"/>
			<midPointStop  offset="0" style="stop-color:#FFFFFF"/>
			<midPointStop  offset="0.5" style="stop-color:#FFFFFF"/>
			<midPointStop  offset="1" style="stop-color:#000000"/>
		</radialGradient>
		<circle style="fill:url(#XMLID_32_);stroke:#000000;" cx="53.533" cy="53.533" r="53.033"/> 
		<g>
			<circle style="fill:#FFFFFF;stroke:#000000;" cx="77.221" cy="33.167" r="6.364"/> 
			<g>
				<text transform="matrix(1 0 0 1 72.2209 35.5085)"><tspan x="0" y="0" style="font-family:Liberation Sans; font-size:7.650000;">&#x2013;e</tspan></text>
			</g>
		</g>
		<g>
			<circle style="fill:#FFFFFF;stroke:#000000;" cx="35.009" cy="19.246" r="6.364"/> 
			<g>
				<text transform="matrix(1 0 0 1 30.009 21.5867)"><tspan x="0" y="0" style="font-family:Liberation Sans; font-size:7.650000;">&#x2013;e</tspan></text>
			</g>
		</g>
		<g>
			<circle style="fill:#FFFFFF;stroke:#000000;" cx="25.405" cy="49.058" r="6.364"/> 
			<g>
				<text transform="matrix(1 0 0 1 20.4048 51.3992)"><tspan x="0" y="0" style="font-family:Liberation Sans; font-size:7.650000;">&#x2013;e</tspan></text>
			</g>
		</g>
		<g>
			<circle style="fill:#FFFFFF;stroke:#000000;" cx="52.405" cy="81.954" r="6.364"/> 
			<g>
				<text transform="matrix(1 0 0 1 47.4048 84.2952)"><tspan x="0" y="0" style="font-family:Liberation Sans; font-size:7.650000;">&#x2013;e</tspan></text>
			</g>
		</g>
		<g>
			<text transform="matrix(1 0 0 1 75.6995 70.2)"><tspan x="0" y="0" style="fill:#FFFFFF; font-family:Liberation Sans; font-size:8.500000;">+4e</tspan></text>
		</g>
	</g>
</svg>
