<?xml version="1.0" encoding="iso-8859-1"?>
<!-- Generator: Adobe Illustrator 11 Build 196, SVG Export Plug-In . SVG Version: 6.0.0 Build 78)  -->
<!DOCTYPE svg PUBLIC "-//W3C//DTD SVG 1.0//EN"    "http://www.w3.org/TR/2001/REC-SVG-20010904/DTD/svg10.dtd" [
	<!ENTITY ns_flows "http://ns.adobe.com/Flows/1.0/">
	<!ENTITY ns_svg "http://www.w3.org/2000/svg">
	<!ENTITY ns_xlink "http://www.w3.org/1999/xlink">
]>
<svg  
	 width="321.25" height="178.45" viewBox="0 0 321.25 178.45" style="overflow:visible;enable-background:new 0 0 321.25 178.45"
	 xml:space="preserve">
	<style type="text/css">
	
	</style>
	<g id="Layer_1">
		<circle cx="205.312" cy="48.746" r="2.673"/> 
		<g>
			<path style="fill:none;stroke:#000000;" d="M1.583,44.387H187.25c8.5,0,15.326,0.055,22.5-2.5
				C226.833,35.803,313.583,1.72,313.583,1.72"/>
			<path d="M316.369,0.558c-1.109,1.031-2.392,2.536-3.036,3.834l-0.117-2.526L311.51,0C312.883,0.46,314.855,0.616,316.369,0.558z"
				/>
		</g>
		<g>
			<text transform="matrix(1 0 0 1 132.9468 57.6831)"><tspan x="0" y="0" style="font-family:Liberation Sans; font-size:8.500000;">copper nucleus</tspan></text>
		</g>
		<g>
			<text transform="matrix(1 0 0 1 3.6577 119.3496)"><tspan x="0" y="0" style="font-family:Liberation Sans; font-size:8.500000;">alpha particle</tspan></text>
		</g>
		<circle cx="218.04" cy="163.312" r="6.682"/> 
		<g>
			<text transform="matrix(1 0 0 1 153.623 173.9868)"><tspan x="0" y="0" style="font-family:Liberation Sans; font-size:8.500000;">gold nucleus</tspan></text>
		</g>
		<g>
			<path style="fill:none;stroke:#000000;" d="M0.107,122.407h168.667c19.333,0,47.333-3.333,64-10s79.333-32.667,79.333-32.667"/>
			<path d="M314.893,78.579c-1.109,1.031-2.392,2.536-3.036,3.834l-0.117-2.526l-1.706-1.866
				C311.407,78.481,313.379,78.637,314.893,78.579z"/>
		</g>
		<line style="fill:none;stroke:#000000;stroke-dasharray:2;" x1="2.25" y1="48.746" x2="260.25" y2="48.746"/>
		<line style="fill:none;stroke:#000000;stroke-dasharray:2;" x1="0" y1="163.312" x2="273.25" y2="163.312"/>
		<g>
			<text transform="matrix(1 0 0 1 4.2725 40.9863)"><tspan x="0" y="0" style="font-family:Liberation Sans; font-size:8.500000;">alpha particle</tspan></text>
		</g>
		<line style="fill:none;" x1="321.25" y1="44.887" x2="321.25" y2="98.887"/>
	</g>
</svg>
