<?xml version="1.0" encoding="iso-8859-1"?>
<!-- Generator: Adobe Illustrator 11 Build 196, SVG Export Plug-In . SVG Version: 6.0.0 Build 78)  -->
<!DOCTYPE svg PUBLIC "-//W3C//DTD SVG 1.0//EN"    "http://www.w3.org/TR/2001/REC-SVG-20010904/DTD/svg10.dtd" [
	<!ENTITY ns_flows "http://ns.adobe.com/Flows/1.0/">
	<!ENTITY ns_svg "http://www.w3.org/2000/svg">
	<!ENTITY ns_xlink "http://www.w3.org/1999/xlink">
]>
<svg  
	 width="135.144" height="222.006" viewBox="0 0 135.144 222.006"
	 style="overflow:visible;enable-background:new 0 0 135.144 222.006" xml:space="preserve">
	<style type="text/css">
	
	</style>
	<g id="Layer_1">
		<circle style="fill:none;stroke:#000000;stroke-width:5;" cx="74.189" cy="115.688" r="58.454"/> 
		<rect x="72.429" y="53.5" style="fill:#FFFFFF;" width="3.083" height="8.917"/> 
		<line style="fill:#B4B4B4;stroke:#000000;stroke-width:0.5;" x1="91.853" y1="114.875" x2="57.853" y2="114.875"/>
		<g>
			<text transform="matrix(1 0 0 1 84.5024 122.9897)"><tspan x="0" y="0" style="font-family:Liberation Sans; font-size:7.650000;">gold foil</tspan></text>
		</g>
		<g>
			<text transform="matrix(1 0 0 1 32.1689 15.6562)"><tspan x="0" y="0" style="font-family:Liberation Sans; font-size:7.650000;">radium</tspan></text>
		</g>
		<g>
			<text transform="matrix(1 0 0 1 78.1689 85.6562)"><tspan x="0" y="0" style="font-family:Liberation Sans; font-size:7.650000;">alpha</tspan></text>
			<text transform="matrix(1 0 0 1 78.1689 96.6562)"><tspan x="0" y="0" style="font-family:Liberation Sans; font-size:7.650000;">particles</tspan></text>
		</g>
		<line style="fill:none;stroke:#000000;stroke-width:0.5;" x1="75.992" y1="175.229" x2="73.992" y2="115.375"/>
		<line style="fill:none;stroke:#000000;stroke-width:0.5;" x1="73.721" y1="115.562" x2="71.325" y2="174.562"/>
		<line style="fill:none;stroke:#000000;stroke-width:0.5;" x1="73.793" y1="115.371" x2="74.502" y2="174.204"/>
		<line style="fill:none;stroke:#000000;stroke-width:0.5;" x1="73.908" y1="115.021" x2="51.658" y2="159.896"/>
		<g>
			<g>
				<path style="fill:none;stroke:#000000;" d="M17.246,213.092c1.805-16.373,5.45-25.149,7.662-24.396"/>
				<path style="fill:none;stroke:#000000;" d="M21.994,205.365c4.963-4.552,6.724-7.799,7.842-9.27
					c1.118-1.47-4.445-3.04-4.445-3.04c-1.431,4.304-4.239,16.159-4.239,16.159s9.176-6.375,11.411-11.677"/>
			</g>
			<path style="stroke:#000000;" d="M26.426,193.891c0.04,1.016,0.213,1.49,1.288,1.09S26.426,193.891,26.426,193.891z"/>
		</g>
		<line style="fill:none;stroke:#000000;stroke-width:0.5;" x1="49.667" y1="157.261" x2="48.899" y2="154.417"/>
		<line style="fill:none;stroke:#000000;stroke-width:0.5;" x1="53.554" y1="159.675" x2="56.576" y2="157.415"/>
		<line style="fill:none;stroke:#000000;stroke-width:0.5;" x1="51.347" y1="157.432" x2="51.851" y2="154.702"/>
		<g>
			<text transform="matrix(1 0 0 1 86.5024 192.9897)"><tspan x="0" y="0" style="font-family:Liberation Sans; font-size:7.650000;">scintillating</tspan></text>
			<text transform="matrix(1 0 0 1 86.5024 203.9897)"><tspan x="0" y="0" style="font-family:Liberation Sans; font-size:7.650000;">screen</tspan></text>
		</g>
		<rect x="69.28" y="5.875" style="fill:#FFFFFF;" width="9.333" height="16"/> 
		<rect x="69.28" y="25.875" style="fill:#FFFFFF;" width="9.333" height="12"/> 
		<rect x="73.113" y="20.542" style="fill:#FFFFFF;" width="1.667" height="8"/> 
		<rect x="73.113" y="37.542" style="fill:#FFFFFF;" width="1.667" height="8"/> 
		<path style="fill:#B4B4B4;stroke:#000000;stroke-width:0.5;" d="M78.549,14.061c-0.287-0.498-0.662-0.904-1.081-1.226
			c0.132-1.219-0.148-2.599-0.885-3.875c-1.523-2.638-4.403-3.827-6.432-2.655c-2.029,1.172-2.439,4.26-0.917,6.898
			c0.737,1.276,1.792,2.208,2.914,2.703c0.069,0.524,0.234,1.052,0.521,1.549c1.054,1.826,3.225,2.547,4.849,1.61
			C79.142,18.127,79.603,15.887,78.549,14.061z"/>
		<line style="fill:#B4B4B4;stroke:#000000;stroke-width:0.5;" x1="73.946" y1="19.333" x2="73.946" y2="114.708"/>
		<polyline style="fill:none;stroke:#000000;stroke-width:5;" points="75.439,2.5 83.439,2.5 83.439,23.167 78.106,23.167 
			78.106,59.167 "/>
		<polyline style="fill:none;stroke:#000000;stroke-width:5;" points="72.939,2.5 64.939,2.5 64.939,23.167 70.273,23.167 
			70.273,59.167 "/>
		<line style="fill:none;stroke:#000000;stroke-width:5;" x1="79.627" y1="2.604" x2="68.96" y2="2.604"/>
		<g>
			<text transform="matrix(1 0 0 1 3.498 55.4897)"><tspan x="0" y="0" style="font-family:Liberation Sans; font-size:7.650000;">vacuum</tspan></text>
			<text transform="matrix(1 0 0 1 0 66.4897)"><tspan x="0" y="0" style="font-family:Liberation Sans; font-size:7.650000;">chamber</tspan></text>
		</g>
		<g>
			
				<linearGradient id="XMLID_3_" gradientUnits="userSpaceOnUse" x1="69.0532" y1="77.9297" x2="69.0532" y2="99.9297" gradientTransform="matrix(-0.5038 0.8638 -0.8638 -0.5038 150.3138 159.8286)">
				<stop  offset="0" style="stop-color:#6C6C6C"/>
				<stop  offset="0.5" style="stop-color:#E9E9E9"/>
				<stop  offset="1" style="stop-color:#6C6C6C"/>
				<midPointStop  offset="0" style="stop-color:#6C6C6C"/>
				<midPointStop  offset="0.5" style="stop-color:#6C6C6C"/>
				<midPointStop  offset="0.5" style="stop-color:#E9E9E9"/>
				<midPointStop  offset="0.5" style="stop-color:#E9E9E9"/>
				<midPointStop  offset="1" style="stop-color:#6C6C6C"/>
			</linearGradient>
			<polygon style="fill:url(#XMLID_3_);stroke:#000000;" points="41.26,190.922 38.453,189.285 52.811,164.666 41.149,157.865 
				26.791,182.484 23.983,180.846 22.472,183.438 39.749,193.514 "/>
			
				<linearGradient id="XMLID_4_" gradientUnits="userSpaceOnUse" x1="50.3027" y1="79.9297" x2="50.3027" y2="96.9297" gradientTransform="matrix(-0.5038 0.8638 -0.8638 -0.5038 150.3138 159.8286)">
				<stop  offset="0" style="stop-color:#6C6C6C"/>
				<stop  offset="0.5" style="stop-color:#E9E9E9"/>
				<stop  offset="1" style="stop-color:#6C6C6C"/>
				<midPointStop  offset="0" style="stop-color:#6C6C6C"/>
				<midPointStop  offset="0.5" style="stop-color:#6C6C6C"/>
				<midPointStop  offset="0.5" style="stop-color:#E9E9E9"/>
				<midPointStop  offset="0.5" style="stop-color:#E9E9E9"/>
				<midPointStop  offset="1" style="stop-color:#6C6C6C"/>
			</linearGradient>
			<line style="fill:url(#XMLID_4_);stroke:#000000;" x1="54.214" y1="162.012" x2="42.984" y2="155.462"/>
		</g>
		<g>
			<text transform="matrix(1 0 0 1 76.5024 217.9897)"><tspan x="0" y="0" style="font-family:Liberation Sans; font-size:7.650000;">microscope</tspan></text>
		</g>
		<g>
			<path style="fill:none;stroke:#000000;stroke-width:0.5;" d="M57.734,163.846c13.333,6,3.333,26.667,24.667,32"/>
			<path d="M54.982,162.608c1.511,0.103,3.486,0.005,4.873-0.415l-1.76,1.815l-0.191,2.521
				C57.299,165.214,56.061,163.671,54.982,162.608z"/>
		</g>
		<g>
			<path style="fill:none;stroke:#000000;stroke-width:0.5;" d="M46.567,189.534c18,7.333,9.333,23.333,26.667,24"/>
			<path d="M43.773,188.396c1.514,0.048,3.484-0.12,4.854-0.59l-1.693,1.877l-0.101,2.526
				C46.182,190.916,44.889,189.418,43.773,188.396z"/>
		</g>
	</g>
</svg>
