<?xml version="1.0" encoding="iso-8859-1"?>
<!-- Generator: Adobe Illustrator 11 Build 196, SVG Export Plug-In . SVG Version: 6.0.0 Build 78)  -->
<!DOCTYPE svg PUBLIC "-//W3C//DTD SVG 1.0//EN"    "http://www.w3.org/TR/2001/REC-SVG-20010904/DTD/svg10.dtd" [
	<!ENTITY ns_flows "http://ns.adobe.com/Flows/1.0/">
	<!ENTITY ns_svg "http://www.w3.org/2000/svg">
	<!ENTITY ns_xlink "http://www.w3.org/1999/xlink">
]>
<svg  
	 width="116.156" height="87.517" viewBox="0 0 116.156 87.517" style="overflow:visible;enable-background:new 0 0 116.156 87.517"
	 xml:space="preserve">
	<style type="text/css">
	
	</style>
	<g id="Layer_1">
		<g>
			<line style="stroke:#000000;stroke-width:0.5;" x1="24.349" y1="7.5" x2="24.349" y2="67.5"/>
			<line style="stroke:#000000;stroke-width:0.5;" x1="24.38" y1="67.5" x2="114.38" y2="67.5"/>
		</g>
		<g>
			<text transform="matrix(1 0 0 1 0 37.667)"><tspan x="0" y="0" style="font-family:Liberation Sans; font-size:7.650000;">force</tspan></text>
		</g>
		<g>
			<text transform="matrix(1 0 0 1 53.25 83.5)"><tspan x="0" y="0" style="font-family:Liberation Sans; font-size:7.650000;">distance</tspan></text>
		</g>
		<path style="fill:none;stroke:#000000;stroke-dasharray:2;" d="M26.146,38.5c0.25,6.75,2.5,17,13,20s43.5,5.125,71.25,5.5"/>
		<path style="fill:none;stroke:#000000;" d="M27.083,8.188c4.25,1.25,6.75,13.5,8.75,33.75s2.5,22.5,9.75,23.5s62,1,62,1"/>
		<g>
			<text transform="matrix(1 0 0 1 70.3335 32.5)"><tspan x="0" y="0" style="font-family:Liberation Sans; font-size:7.650000;">electrical</tspan></text>
			<text transform="matrix(1 0 0 1 70.3335 43.5)"><tspan x="0" y="0" style="font-family:Liberation Sans; font-size:7.650000;">force </tspan></text>
			<text transform="matrix(1 0 0 1 92.8423 43.5)"><tspan x="0" y="0" style="font-family:'Symbol'; font-size:9;">&#x221D;</tspan></text>
			<text transform="matrix(1 0 0 1 99.2593 43.5)"><tspan x="0" y="0" style="font-family:Liberation Sans; font-size:7.650000;"> 1/r</tspan></text>
			<text transform="matrix(1 0 0 1 112.2627 40.5)"><tspan x="0" y="0" style="font-family:Liberation Sans; font-size:5.950000;">2</tspan></text>
		</g>
		<g>
			<line style="stroke:#000000;stroke-width:0.5;" x1="82.521" y1="44.312" x2="78.771" y2="60.062"/>
			<path style="stroke:#000000;stroke-width:0.5;" d="M78.28,62.116c-0.128-1.052-0.455-2.398-0.926-3.296l1.48,0.971l1.758-0.2
				C79.767,60.18,78.869,61.234,78.28,62.116z"/>
		</g>
		<g>
			<text transform="matrix(1 0 0 1 38.3335 9)"><tspan x="0" y="0" style="font-family:Liberation Sans; font-size:7.650000;">strong nuclear</tspan></text>
			<text transform="matrix(1 0 0 1 38.3335 20)"><tspan x="0" y="0" style="font-family:Liberation Sans; font-size:7.650000;">force </tspan></text>
		</g>
		<g>
			<line style="stroke:#000000;stroke-width:0.5;" x1="47.806" y1="17.9" x2="37.641" y2="30.501"/>
			<path style="stroke:#000000;stroke-width:0.5;" d="M36.313,32.143c0.337-1.005,0.622-2.36,0.583-3.373l0.917,1.513l1.673,0.576
				C38.489,31.036,37.225,31.6,36.313,32.143z"/>
		</g>
		<g>
			<text transform="matrix(1 0 0 1 29.5835 81)"><tspan x="0" y="0" style="font-family:Liberation Sans; font-size:7.650000;">1 fm</tspan></text>
		</g>
		<line style="stroke:#000000;stroke-width:0.5;" x1="36.583" y1="66.25" x2="36.583" y2="69.25"/>
	</g>
</svg>
