<?xml version="1.0" encoding="UTF-8" standalone="no"?>
<!-- Created with Inkscape (http://www.inkscape.org/) -->

<svg
   xmlns:dc="http://purl.org/dc/elements/1.1/"
   xmlns:cc="http://creativecommons.org/ns#"
   xmlns:rdf="http://www.w3.org/1999/02/22-rdf-syntax-ns#"
   xmlns:svg="http://www.w3.org/2000/svg"
   xmlns="http://www.w3.org/2000/svg"
   xmlns:sodipodi="http://sodipodi.sourceforge.net/DTD/sodipodi-0.dtd"
   xmlns:inkscape="http://www.inkscape.org/namespaces/inkscape"
   width="210mm"
   height="297mm"
   viewBox="0 0 744.09448819 1052.3622047"
   id="svg2"
   version="1.1"
   sodipodi:docname="salamander.svg">
  <defs
     id="defs4" />
  <sodipodi:namedview
     id="base"
     pagecolor="#ffffff"
     bordercolor="#666666"
     borderopacity="1.0"
     inkscape:pageopacity="0.0"
     inkscape:pageshadow="2"
     inkscape:zoom="1.4774014"
     inkscape:cx="136.30961"
     inkscape:cy="821.68659"
     inkscape:document-units="px"
     inkscape:current-layer="layer1"
     showgrid="false"
     inkscape:window-width="1280"
     inkscape:window-height="998"
     inkscape:window-x="0"
     inkscape:window-y="0"
     inkscape:window-maximized="1" />
  <metadata
     id="metadata7">
    <rdf:RDF>
      <cc:Work
         rdf:about="">
        <dc:format>image/svg+xml</dc:format>
        <dc:type
           rdf:resource="http://purl.org/dc/dcmitype/StillImage" />
        <dc:title />
      </cc:Work>
    </rdf:RDF>
  </metadata>
  <g
     inkscape:label="Layer 1"
     inkscape:groupmode="layer"
     id="layer1">
    <path
       inkscape:connector-curvature="0"
       style="opacity:1;fill:#bd9a8c;fill-opacity:1;stroke:none;stroke-width:2;stroke-linejoin:miter;stroke-miterlimit:4;stroke-dasharray:none;stroke-dashoffset:0;stroke-opacity:1"
       d="m 216.12698,55.608081 -141.868507,0 c -0.439533,0.135045 -0.935588,0.286707 -1.335165,0.40966 -7.535297,2.318534 -17.968818,4.637308 -38.835791,4.637308 l -0.579429,96.219871 c 0,0 16.8093,-1.393 27.822427,-3.13191 11.013122,-1.73892 25.365378,-4.52463 39.415685,-2.08482 3.42655,0.59501 14.97006,16.64989 16.80953,17.96885 1.03775,0.74411 3.06106,2.71344 5.56467,5.3865 l 79.28173,0 c 3.95605,-1.12806 9.02062,-2.45114 13.72485,-3.61969 l 0,-115.785769 z"
       id="rect4373-64" />
    <path
       style="color:#000000;clip-rule:nonzero;display:inline;overflow:visible;visibility:visible;opacity:1;isolation:auto;mix-blend-mode:normal;color-interpolation:sRGB;color-interpolation-filters:linearRGB;solid-color:#000000;solid-opacity:1;fill:#be9788;fill-opacity:1;fill-rule:evenodd;stroke:none;stroke-width:2;stroke-linecap:butt;stroke-linejoin:miter;stroke-miterlimit:4;stroke-dasharray:none;stroke-dashoffset:0;stroke-opacity:1;marker:none;marker-start:none;marker-mid:none;marker-end:none;color-rendering:auto;image-rendering:auto;shape-rendering:auto;text-rendering:auto;enable-background:accumulate"
       d="m 99.99573,55.765178 c 3.11418,16.193728 11.83388,26.463557 11.83388,30.200565 0,3.737033 -11.83388,2.491363 -15.570898,0.622859 -3.737016,-1.868528 -21.597846,-30.9311 -21.597846,-30.9311 z"
       id="path4426-8"
       inkscape:connector-curvature="0"
       sodipodi:nodetypes="csscc" />
    <path
       style="color:#000000;clip-rule:nonzero;display:inline;overflow:visible;visibility:visible;opacity:1;isolation:auto;mix-blend-mode:normal;color-interpolation:sRGB;color-interpolation-filters:linearRGB;solid-color:#000000;solid-opacity:1;fill:#b79182;fill-opacity:1;fill-rule:evenodd;stroke:none;stroke-width:2;stroke-linecap:butt;stroke-linejoin:miter;stroke-miterlimit:4;stroke-dasharray:none;stroke-dashoffset:0;stroke-opacity:1;marker:none;marker-start:none;marker-mid:none;marker-end:none;color-rendering:auto;image-rendering:auto;shape-rendering:auto;text-rendering:auto;enable-background:accumulate"
       d="m 35.736796,126.35051 c 12.737358,-0.36392 35.300679,1.09178 35.300679,1.09178 0,0 -1.819622,4.00318 -6.186718,4.00318 -4.367093,0 -31.231424,0.72785 -31.231424,0.72785 l 0.08962,-5.82281 z"
       id="path4424-5"
       inkscape:connector-curvature="0"
       sodipodi:nodetypes="ccsccc" />
    <path
       style="color:#000000;clip-rule:nonzero;display:inline;overflow:visible;visibility:visible;opacity:1;isolation:auto;mix-blend-mode:normal;color-interpolation:sRGB;color-interpolation-filters:linearRGB;solid-color:#000000;solid-opacity:1;fill:#b89080;fill-opacity:1;fill-rule:evenodd;stroke:none;stroke-width:2;stroke-linecap:butt;stroke-linejoin:miter;stroke-miterlimit:4;stroke-dasharray:none;stroke-dashoffset:0;stroke-opacity:1;marker:none;marker-start:none;marker-mid:none;marker-end:none;color-rendering:auto;image-rendering:auto;shape-rendering:auto;text-rendering:auto;enable-background:accumulate"
       d="m 88.067844,56.123407 c 3.84854,10.207 12.382266,26.772459 12.382266,28.11108 0,1.33862 -4.852512,1.840609 -5.85648,-0.836632 C 93.589664,80.720614 76.354892,55.454096 76.354892,55.454096 Z"
       id="path4456-9"
       inkscape:connector-curvature="0" />
    <path
       style="color:#000000;clip-rule:nonzero;display:inline;overflow:visible;visibility:visible;opacity:1;isolation:auto;mix-blend-mode:normal;color-interpolation:sRGB;color-interpolation-filters:linearRGB;solid-color:#000000;solid-opacity:1;fill:#b48c7c;fill-opacity:1;fill-rule:evenodd;stroke:none;stroke-width:2;stroke-linecap:butt;stroke-linejoin:miter;stroke-miterlimit:4;stroke-dasharray:none;stroke-dashoffset:0;stroke-opacity:1;marker:none;marker-start:none;marker-mid:none;marker-end:none;color-rendering:auto;image-rendering:auto;shape-rendering:auto;text-rendering:auto;enable-background:accumulate"
       d="m 33.853612,127.40508 c 0,0 25.433836,-0.16732 28.44574,0.83664 3.011901,1.00397 2.175262,1.00397 2.175262,1.00397 0,0 -1.171297,0 -1.840607,0.16733 -0.669313,0.16732 -28.947724,0.83663 -28.947724,0.83663 z"
       id="path4458-1"
       inkscape:connector-curvature="0" />
    <path
       inkscape:connector-curvature="0"
       style="opacity:1;fill:#bd9a8c;fill-opacity:1;stroke:none;stroke-width:2;stroke-linejoin:miter;stroke-miterlimit:4;stroke-dasharray:none;stroke-dashoffset:0;stroke-opacity:1"
       d="m 216.97943,180.99157 -180.813732,0 c -0.439543,0.13505 -0.935593,0.28671 -1.335173,0.40966 -0.67271,0.207 -1.378775,0.41385 -2.103061,0.61917 l 0,95.60772 c 9.185041,-1.35529 19.633781,-2.37368 29.925974,-0.58646 3.426549,0.59501 14.970062,16.64991 16.809522,17.96887 1.037763,0.74411 3.061042,2.71344 5.564664,5.3865 l 79.281736,0 c 9.42632,-2.68788 25.29654,-6.54583 27.02366,-6.54583 2.25088,0 20.84773,-1.08946 25.64641,-1.15324 l 0,-101.95945 c -0.0466,-0.0211 -0.0997,-0.0417 -0.14264,-0.0631 -3.47782,-1.73892 -1.15932,-5.21673 -1.15932,-5.21673 0,0 0.99832,-0.34427 1.30196,-0.44989 l 0,-4.01718 z"
       id="rect4373-9-55-5" />
    <path
       style="color:#000000;clip-rule:nonzero;display:inline;overflow:visible;visibility:visible;opacity:1;isolation:auto;mix-blend-mode:normal;color-interpolation:sRGB;color-interpolation-filters:linearRGB;solid-color:#000000;solid-opacity:1;fill:#be9788;fill-opacity:1;fill-rule:evenodd;stroke:none;stroke-width:2;stroke-linecap:butt;stroke-linejoin:miter;stroke-miterlimit:4;stroke-dasharray:none;stroke-dashoffset:0;stroke-opacity:1;marker:none;marker-start:none;marker-mid:none;marker-end:none;color-rendering:auto;image-rendering:auto;shape-rendering:auto;text-rendering:auto;enable-background:accumulate"
       d="m 61.903077,181.14872 c 3.114173,16.19372 11.833883,26.46355 11.833883,30.20056 0,3.73703 -11.833883,2.49136 -15.570892,0.62286 -3.737032,-1.86853 -21.597845,-30.9311 -21.597845,-30.9311 z"
       id="path4426-5-5-4"
       inkscape:connector-curvature="0"
       sodipodi:nodetypes="csscc" />
    <path
       style="color:#000000;clip-rule:nonzero;display:inline;overflow:visible;visibility:visible;opacity:1;isolation:auto;mix-blend-mode:normal;color-interpolation:sRGB;color-interpolation-filters:linearRGB;solid-color:#000000;solid-opacity:1;fill:#b89080;fill-opacity:1;fill-rule:evenodd;stroke:none;stroke-width:2;stroke-linecap:butt;stroke-linejoin:miter;stroke-miterlimit:4;stroke-dasharray:none;stroke-dashoffset:0;stroke-opacity:1;marker:none;marker-start:none;marker-mid:none;marker-end:none;color-rendering:auto;image-rendering:auto;shape-rendering:auto;text-rendering:auto;enable-background:accumulate"
       d="m 49.975188,181.50694 c 3.84854,10.207 12.382276,26.77246 12.382276,28.11108 0,1.33863 -4.852517,1.84061 -5.856495,-0.83663 -1.003953,-2.67724 -18.238723,-27.94376 -18.238723,-27.94376 z"
       id="path4456-5-5-0"
       inkscape:connector-curvature="0" />
    <path
       style="color:#000000;clip-rule:nonzero;display:inline;overflow:visible;visibility:visible;opacity:1;isolation:auto;mix-blend-mode:normal;color-interpolation:sRGB;color-interpolation-filters:linearRGB;solid-color:#000000;solid-opacity:1;fill:none;fill-opacity:1;fill-rule:evenodd;stroke:#ad8271;stroke-width:0.47888261;stroke-linecap:butt;stroke-linejoin:miter;stroke-miterlimit:4;stroke-dasharray:none;stroke-dashoffset:0;stroke-opacity:1;marker:none;marker-start:none;marker-mid:none;marker-end:none;color-rendering:auto;image-rendering:auto;shape-rendering:auto;text-rendering:auto;enable-background:accumulate"
       d="m 187.97668,234.99354 c -19.65193,0 -59.3197,-4.00318 -63.32287,-4.73103 -4.00317,-0.72785 -24.746872,-0.36393 -24.746872,-0.36393"
       id="path4412-1-5-3"
       inkscape:connector-curvature="0" />
    <path
       style="color:#000000;clip-rule:nonzero;display:inline;overflow:visible;visibility:visible;opacity:1;isolation:auto;mix-blend-mode:normal;color-interpolation:sRGB;color-interpolation-filters:linearRGB;solid-color:#000000;solid-opacity:1;fill:none;fill-opacity:1;fill-rule:evenodd;stroke:#ad8271;stroke-width:0.47888261;stroke-linecap:butt;stroke-linejoin:miter;stroke-miterlimit:4;stroke-dasharray:none;stroke-dashoffset:0;stroke-opacity:1;marker:none;marker-start:none;marker-mid:none;marker-end:none;color-rendering:auto;image-rendering:auto;shape-rendering:auto;text-rendering:auto;enable-background:accumulate"
       d="m 176.33109,225.53149 c -0.36392,2.18353 -4.36709,15.28483 -4.36709,15.28483"
       id="path4416-9-4-0"
       inkscape:connector-curvature="0" />
    <path
       inkscape:connector-curvature="0"
       style="opacity:1;fill:#bd9a8c;fill-opacity:1;stroke:none;stroke-width:2;stroke-linejoin:miter;stroke-miterlimit:4;stroke-dasharray:none;stroke-dashoffset:0;stroke-opacity:1"
       d="m 216.97942,313.90551 c -5.28131,0.89539 -14.92984,3.2935 -17.54047,3.81562 -2.89817,0.57964 -18.54844,0 -22.02628,-1.7392 -3.47781,-1.73892 -1.15932,-5.21676 -1.15932,-5.21676 0,0 6.60977,-2.30912 13.12907,-4.46707 l -156.654961,0 0,105.36634 c 3.353544,4.05157 6.435225,8.02438 7.311389,8.65262 1.037762,0.74411 3.061041,2.71345 5.564664,5.3865 l 79.281728,0 c 9.42632,-2.68787 25.29656,-6.54582 27.02368,-6.54582 2.31855,0 22.02618,-1.15933 26.08366,-1.15933 4.05745,0 20.99002,1.74986 25.65201,2.07313 2.85948,0.19828 8.69433,1.01633 13.33483,1.60268 l 0,-34.97996 c -5.72593,-0.0125 -18.47819,-0.12149 -23.18887,-1.01949 -2.77694,-0.52936 -3.37712,-3.59031 -1.63821,-5.90886 0.99723,-1.3296 13.70881,-0.94901 24.82708,-0.38443 l 0,-31.10352 c -6.46727,0.71277 -13.82992,1.54468 -17.15607,1.54468 -5.79637,0 -6.89328,-5.21673 -6.89328,-5.21673 l 24.04935,-0.92082 0,-29.77958 z"
       id="rect4373-9-5-7-6" />
    <g
       id="g5299">
      <path
         inkscape:connector-curvature="0"
         id="path4408-1"
         d="m 204.23386,60.844088 c 1.81962,22.563321 11.60292,38.441296 11.60292,38.441296"
         style="color:#000000;clip-rule:nonzero;display:inline;overflow:visible;visibility:visible;opacity:1;isolation:auto;mix-blend-mode:normal;color-interpolation:sRGB;color-interpolation-filters:linearRGB;solid-color:#000000;solid-opacity:1;fill:none;fill-opacity:1;fill-rule:evenodd;stroke:#ad8271;stroke-width:1.25;stroke-linecap:butt;stroke-linejoin:miter;stroke-miterlimit:4;stroke-dasharray:none;stroke-dashoffset:0;stroke-opacity:1;marker:none;marker-start:none;marker-mid:none;marker-end:none;color-rendering:auto;image-rendering:auto;shape-rendering:auto;text-rendering:auto;enable-background:accumulate"
         sodipodi:nodetypes="cc" />
      <path
         sodipodi:nodetypes="csc"
         inkscape:connector-curvature="0"
         id="path4410-4"
         d="m 178.03129,67.394747 c 10.91774,29.477859 32.02536,47.674103 35.6646,61.139323 3.63925,13.4652 1.79662,7.17494 1.79662,7.17494"
         style="color:#000000;clip-rule:nonzero;display:inline;overflow:visible;visibility:visible;opacity:1;isolation:auto;mix-blend-mode:normal;color-interpolation:sRGB;color-interpolation-filters:linearRGB;solid-color:#000000;solid-opacity:1;fill:none;fill-opacity:1;fill-rule:evenodd;stroke:#ad8271;stroke-width:1.25;stroke-linecap:butt;stroke-linejoin:miter;stroke-miterlimit:4;stroke-dasharray:none;stroke-dashoffset:0;stroke-opacity:1;marker:none;marker-start:none;marker-mid:none;marker-end:none;color-rendering:auto;image-rendering:auto;shape-rendering:auto;text-rendering:auto;enable-background:accumulate" />
      <path
         inkscape:connector-curvature="0"
         id="path4412-5"
         d="m 215.96193,109.12094 c -19.65193,0 -49.2123,-3.51411 -53.21547,-4.24197 -4.00317,-0.72785 -24.74687,-0.36392 -24.74687,-0.36392"
         style="color:#000000;clip-rule:nonzero;display:inline;overflow:visible;visibility:visible;opacity:1;isolation:auto;mix-blend-mode:normal;color-interpolation:sRGB;color-interpolation-filters:linearRGB;solid-color:#000000;solid-opacity:1;fill:none;fill-opacity:1;fill-rule:evenodd;stroke:#ad8271;stroke-width:1.25;stroke-linecap:butt;stroke-linejoin:miter;stroke-miterlimit:4;stroke-dasharray:none;stroke-dashoffset:0;stroke-opacity:1;marker:none;marker-start:none;marker-mid:none;marker-end:none;color-rendering:auto;image-rendering:auto;shape-rendering:auto;text-rendering:auto;enable-background:accumulate"
         sodipodi:nodetypes="csc" />
      <path
         inkscape:connector-curvature="0"
         id="path4414-1"
         d="m 213.69589,152.91701 c -17.10445,-8.7342 -51.31336,-17.46837 -54.22475,-17.46837 -2.9114,0 -29.47789,1.45568 -29.47789,1.45568"
         style="color:#000000;clip-rule:nonzero;display:inline;overflow:visible;visibility:visible;opacity:1;isolation:auto;mix-blend-mode:normal;color-interpolation:sRGB;color-interpolation-filters:linearRGB;solid-color:#000000;solid-opacity:1;fill:none;fill-opacity:1;fill-rule:evenodd;stroke:#ad8271;stroke-width:1.25;stroke-linecap:butt;stroke-linejoin:miter;stroke-miterlimit:4;stroke-dasharray:none;stroke-dashoffset:0;stroke-opacity:1;marker:none;marker-start:none;marker-mid:none;marker-end:none;color-rendering:auto;image-rendering:auto;shape-rendering:auto;text-rendering:auto;enable-background:accumulate" />
      <path
         inkscape:connector-curvature="0"
         id="path4416-7"
         d="m 214.42374,100.14795 c -0.36392,2.18353 -4.36709,15.28483 -4.36709,15.28483"
         style="color:#000000;clip-rule:nonzero;display:inline;overflow:visible;visibility:visible;opacity:1;isolation:auto;mix-blend-mode:normal;color-interpolation:sRGB;color-interpolation-filters:linearRGB;solid-color:#000000;solid-opacity:1;fill:none;fill-opacity:1;fill-rule:evenodd;stroke:#ad8271;stroke-width:1.25;stroke-linecap:butt;stroke-linejoin:miter;stroke-miterlimit:4;stroke-dasharray:none;stroke-dashoffset:0;stroke-opacity:1;marker:none;marker-start:none;marker-mid:none;marker-end:none;color-rendering:auto;image-rendering:auto;shape-rendering:auto;text-rendering:auto;enable-background:accumulate" />
      <path
         inkscape:connector-curvature="0"
         id="path4418-9"
         d="m 97.603967,65.211186 c 2.911393,17.104466 1.091774,38.576004 -0.363924,44.034884 -1.4557,5.45886 -5.094945,31.29749 -5.094945,31.29749"
         style="color:#000000;clip-rule:nonzero;display:inline;overflow:visible;visibility:visible;opacity:1;isolation:auto;mix-blend-mode:normal;color-interpolation:sRGB;color-interpolation-filters:linearRGB;solid-color:#000000;solid-opacity:1;fill:none;fill-opacity:1;fill-rule:evenodd;stroke:#ad8271;stroke-width:1.25;stroke-linecap:butt;stroke-linejoin:miter;stroke-miterlimit:4;stroke-dasharray:none;stroke-dashoffset:0;stroke-opacity:1;marker:none;marker-start:none;marker-mid:none;marker-end:none;color-rendering:auto;image-rendering:auto;shape-rendering:auto;text-rendering:auto;enable-background:accumulate" />
      <path
         inkscape:connector-curvature="0"
         id="path4420-4"
         d="m 81.591287,63.391576 c 0.727849,12.737344 5.094942,27.658249 5.094942,31.66142 0,4.003171 -6.914565,41.123474 -6.914565,41.123474"
         style="color:#000000;clip-rule:nonzero;display:inline;overflow:visible;visibility:visible;opacity:1;isolation:auto;mix-blend-mode:normal;color-interpolation:sRGB;color-interpolation-filters:linearRGB;solid-color:#000000;solid-opacity:1;fill:none;fill-opacity:1;fill-rule:evenodd;stroke:#ad8271;stroke-width:1.25;stroke-linecap:butt;stroke-linejoin:miter;stroke-miterlimit:4;stroke-dasharray:none;stroke-dashoffset:0;stroke-opacity:1;marker:none;marker-start:none;marker-mid:none;marker-end:none;color-rendering:auto;image-rendering:auto;shape-rendering:auto;text-rendering:auto;enable-background:accumulate" />
      <path
         inkscape:connector-curvature="0"
         id="path4422-9"
         d="m 65.214682,68.486504 c -0.727849,22.563321 2.183549,35.300686 2.183549,37.848156 0,2.54748 3.27532,19.65193 3.27532,19.65193"
         style="color:#000000;clip-rule:nonzero;display:inline;overflow:visible;visibility:visible;opacity:1;isolation:auto;mix-blend-mode:normal;color-interpolation:sRGB;color-interpolation-filters:linearRGB;solid-color:#000000;solid-opacity:1;fill:none;fill-opacity:1;fill-rule:evenodd;stroke:#ad8271;stroke-width:1.25;stroke-linecap:butt;stroke-linejoin:miter;stroke-miterlimit:4;stroke-dasharray:none;stroke-dashoffset:0;stroke-opacity:1;marker:none;marker-start:none;marker-mid:none;marker-end:none;color-rendering:auto;image-rendering:auto;shape-rendering:auto;text-rendering:auto;enable-background:accumulate" />
      <path
         inkscape:connector-curvature="0"
         id="path4408-0-3-5"
         d="m 166.14121,186.22763 c 1.81962,22.56332 22.19939,60.7754 22.19939,60.7754"
         style="color:#000000;clip-rule:nonzero;display:inline;overflow:visible;visibility:visible;opacity:1;isolation:auto;mix-blend-mode:normal;color-interpolation:sRGB;color-interpolation-filters:linearRGB;solid-color:#000000;solid-opacity:1;fill:none;fill-opacity:1;fill-rule:evenodd;stroke:#ad8271;stroke-width:1.25;stroke-linecap:butt;stroke-linejoin:miter;stroke-miterlimit:4;stroke-dasharray:none;stroke-dashoffset:0;stroke-opacity:1;marker:none;marker-start:none;marker-mid:none;marker-end:none;color-rendering:auto;image-rendering:auto;shape-rendering:auto;text-rendering:auto;enable-background:accumulate" />
      <path
         sodipodi:nodetypes="csc"
         inkscape:connector-curvature="0"
         id="path4410-2-67-4"
         d="m 139.93864,192.77828 c 10.91774,29.47786 32.02536,47.67411 35.66461,61.13933 3.63924,13.4652 4.73101,20.37976 4.73101,20.37976"
         style="color:#000000;clip-rule:nonzero;display:inline;overflow:visible;visibility:visible;opacity:1;isolation:auto;mix-blend-mode:normal;color-interpolation:sRGB;color-interpolation-filters:linearRGB;solid-color:#000000;solid-opacity:1;fill:none;fill-opacity:1;fill-rule:evenodd;stroke:#ad8271;stroke-width:1.25;stroke-linecap:butt;stroke-linejoin:miter;stroke-miterlimit:4;stroke-dasharray:none;stroke-dashoffset:0;stroke-opacity:1;marker:none;marker-start:none;marker-mid:none;marker-end:none;color-rendering:auto;image-rendering:auto;shape-rendering:auto;text-rendering:auto;enable-background:accumulate" />
      <path
         inkscape:connector-curvature="0"
         id="path4414-7-5-2"
         d="m 175.60325,278.30054 c -17.10446,-8.73419 -51.31336,-17.46837 -54.22476,-17.46837 -2.9114,0 -29.477895,1.45569 -29.477895,1.45569"
         style="color:#000000;clip-rule:nonzero;display:inline;overflow:visible;visibility:visible;opacity:1;isolation:auto;mix-blend-mode:normal;color-interpolation:sRGB;color-interpolation-filters:linearRGB;solid-color:#000000;solid-opacity:1;fill:none;fill-opacity:1;fill-rule:evenodd;stroke:#ad8271;stroke-width:1.25;stroke-linecap:butt;stroke-linejoin:miter;stroke-miterlimit:4;stroke-dasharray:none;stroke-dashoffset:0;stroke-opacity:1;marker:none;marker-start:none;marker-mid:none;marker-end:none;color-rendering:auto;image-rendering:auto;shape-rendering:auto;text-rendering:auto;enable-background:accumulate" />
      <path
         inkscape:connector-curvature="0"
         id="path4418-1-0-1"
         d="m 59.511321,190.59472 c 2.911391,17.10447 1.091781,38.57601 -0.363927,44.03489 -1.455707,5.45885 -5.094951,31.29749 -5.094951,31.29749"
         style="color:#000000;clip-rule:nonzero;display:inline;overflow:visible;visibility:visible;opacity:1;isolation:auto;mix-blend-mode:normal;color-interpolation:sRGB;color-interpolation-filters:linearRGB;solid-color:#000000;solid-opacity:1;fill:none;fill-opacity:1;fill-rule:evenodd;stroke:#ad8271;stroke-width:1.25;stroke-linecap:butt;stroke-linejoin:miter;stroke-miterlimit:4;stroke-dasharray:none;stroke-dashoffset:0;stroke-opacity:1;marker:none;marker-start:none;marker-mid:none;marker-end:none;color-rendering:auto;image-rendering:auto;shape-rendering:auto;text-rendering:auto;enable-background:accumulate" />
      <path
         inkscape:connector-curvature="0"
         id="path4420-1-8-5"
         d="m 43.498636,188.77511 c 0.727853,12.73735 5.094952,27.65825 5.094952,31.66142 0,4.00318 -6.914563,41.12347 -6.914563,41.12347"
         style="color:#000000;clip-rule:nonzero;display:inline;overflow:visible;visibility:visible;opacity:1;isolation:auto;mix-blend-mode:normal;color-interpolation:sRGB;color-interpolation-filters:linearRGB;solid-color:#000000;solid-opacity:1;fill:none;fill-opacity:1;fill-rule:evenodd;stroke:#ad8271;stroke-width:1.25;stroke-linecap:butt;stroke-linejoin:miter;stroke-miterlimit:4;stroke-dasharray:none;stroke-dashoffset:0;stroke-opacity:1;marker:none;marker-start:none;marker-mid:none;marker-end:none;color-rendering:auto;image-rendering:auto;shape-rendering:auto;text-rendering:auto;enable-background:accumulate" />
      <path
         inkscape:connector-curvature="0"
         id="path4408-0-0-9-8"
         d="m 126.71701,311.5339 c 1.81961,22.56332 22.19939,60.7754 22.19939,60.7754"
         style="color:#000000;clip-rule:nonzero;display:inline;overflow:visible;visibility:visible;opacity:1;isolation:auto;mix-blend-mode:normal;color-interpolation:sRGB;color-interpolation-filters:linearRGB;solid-color:#000000;solid-opacity:1;fill:none;fill-opacity:1;fill-rule:evenodd;stroke:#ad8271;stroke-width:1.25;stroke-linecap:butt;stroke-linejoin:miter;stroke-miterlimit:4;stroke-dasharray:none;stroke-dashoffset:0;stroke-opacity:1;marker:none;marker-start:none;marker-mid:none;marker-end:none;color-rendering:auto;image-rendering:auto;shape-rendering:auto;text-rendering:auto;enable-background:accumulate" />
      <path
         sodipodi:nodetypes="csc"
         inkscape:connector-curvature="0"
         id="path4410-2-6-3-9"
         d="m 100.51444,318.08455 c 10.91774,29.47786 32.02535,47.67411 35.6646,61.13933 3.63924,13.4652 4.73102,20.37976 4.73102,20.37976"
         style="color:#000000;clip-rule:nonzero;display:inline;overflow:visible;visibility:visible;opacity:1;isolation:auto;mix-blend-mode:normal;color-interpolation:sRGB;color-interpolation-filters:linearRGB;solid-color:#000000;solid-opacity:1;fill:none;fill-opacity:1;fill-rule:evenodd;stroke:#ad8271;stroke-width:1.25;stroke-linecap:butt;stroke-linejoin:miter;stroke-miterlimit:4;stroke-dasharray:none;stroke-dashoffset:0;stroke-opacity:1;marker:none;marker-start:none;marker-mid:none;marker-end:none;color-rendering:auto;image-rendering:auto;shape-rendering:auto;text-rendering:auto;enable-background:accumulate" />
      <path
         inkscape:connector-curvature="0"
         id="path4412-1-6-1-5"
         d="m 148.55248,360.29981 c -19.65193,0 -59.319697,-4.00318 -63.322868,-4.73103 -4.003172,-0.72785 -24.746882,-0.36393 -24.746882,-0.36393"
         style="color:#000000;clip-rule:nonzero;display:inline;overflow:visible;visibility:visible;opacity:1;isolation:auto;mix-blend-mode:normal;color-interpolation:sRGB;color-interpolation-filters:linearRGB;solid-color:#000000;solid-opacity:1;fill:none;fill-opacity:1;fill-rule:evenodd;stroke:#ad8271;stroke-width:1.25;stroke-linecap:butt;stroke-linejoin:miter;stroke-miterlimit:4;stroke-dasharray:none;stroke-dashoffset:0;stroke-opacity:1;marker:none;marker-start:none;marker-mid:none;marker-end:none;color-rendering:auto;image-rendering:auto;shape-rendering:auto;text-rendering:auto;enable-background:accumulate" />
      <path
         inkscape:connector-curvature="0"
         id="path4414-7-9-6-1"
         d="m 136.17904,403.60681 c -17.10445,-8.73419 -51.313355,-17.46837 -54.224746,-17.46837 -2.911415,0 -29.477883,1.45569 -29.477883,1.45569"
         style="color:#000000;clip-rule:nonzero;display:inline;overflow:visible;visibility:visible;opacity:1;isolation:auto;mix-blend-mode:normal;color-interpolation:sRGB;color-interpolation-filters:linearRGB;solid-color:#000000;solid-opacity:1;fill:none;fill-opacity:1;fill-rule:evenodd;stroke:#ad8271;stroke-width:1.25;stroke-linecap:butt;stroke-linejoin:miter;stroke-miterlimit:4;stroke-dasharray:none;stroke-dashoffset:0;stroke-opacity:1;marker:none;marker-start:none;marker-mid:none;marker-end:none;color-rendering:auto;image-rendering:auto;shape-rendering:auto;text-rendering:auto;enable-background:accumulate" />
    </g>
    <path
       style="color:#000000;clip-rule:nonzero;display:inline;overflow:visible;visibility:visible;opacity:1;isolation:auto;mix-blend-mode:normal;color-interpolation:sRGB;color-interpolation-filters:linearRGB;solid-color:#000000;solid-opacity:1;fill:none;fill-opacity:1;fill-rule:evenodd;stroke:#ad8271;stroke-width:0.47888261;stroke-linecap:butt;stroke-linejoin:miter;stroke-miterlimit:4;stroke-dasharray:none;stroke-dashoffset:0;stroke-opacity:1;marker:none;marker-start:none;marker-mid:none;marker-end:none;color-rendering:auto;image-rendering:auto;shape-rendering:auto;text-rendering:auto;enable-background:accumulate"
       d="m 136.90689,350.83776 c -0.36393,2.18353 -4.3671,15.28483 -4.3671,15.28483"
       id="path4416-9-1-4-9"
       inkscape:connector-curvature="0" />
    <path
       style="color:#000000;clip-rule:nonzero;display:inline;overflow:visible;visibility:visible;opacity:1;isolation:auto;mix-blend-mode:normal;color-interpolation:sRGB;color-interpolation-filters:linearRGB;solid-color:#000000;solid-opacity:1;fill:#000000;fill-opacity:1;fill-rule:evenodd;stroke:none;stroke-width:2;stroke-linecap:butt;stroke-linejoin:miter;stroke-miterlimit:4;stroke-dasharray:none;stroke-dashoffset:0;stroke-opacity:1;marker:none;marker-start:none;marker-mid:none;marker-end:none;color-rendering:auto;image-rendering:auto;shape-rendering:auto;text-rendering:auto;enable-background:accumulate"
       d="m 214.75531,236.96674 c -0.0717,-1.22169 -0.63672,-2.95051 -1.1722,-3.87198 -0.7789,-1.3403 -2.07408,-1.80603 -4.14798,-3.61179 -2.07392,-1.80576 -11.38001,-1.63168 -12.8388,-1.57761 -1.41571,0.0522 -5.81992,0.84909 -6.08258,0.89675 l -1.13829,-0.0837 -0.34361,-3.65079 0.002,-9e-5 -2.6532,-3.49571 0.91046,0.45118 1.42652,1.65625 0.70397,-0.22468 -0.85525,-1.62245 4.1117,1.48963 0.59289,-0.52931 -1.07528,-2.727 4.16819,-0.54201 0.30389,-0.95307 -4.58963,-2.03299 1.79176,-2.49846 -0.45522,-0.2256 -5.22161,0.97701 c 0,0 -3.29293,-1.00492 -5.61563,-0.75474 -1.08941,0.11736 -3.13534,0.78009 -4.5524,3.66866 -1.40869,2.87157 0.26679,7.03707 0.26679,7.03707 0,0 0.0848,0.96493 0.10269,0.45617 l -0.0179,0.50865 0.21145,1.77243 c -1.24538,-0.2559 -2.97036,-0.5968 -4.74722,-0.89575 -3.3135,-0.55744 -15.91017,-1.4141 -21.27674,-1.04197 -1.68928,0.11717 -15.69144,2.11432 -19.4212,2.64832 0.0448,-0.16374 1.10965,-4.06239 1.13084,-5.00977 0.0216,-0.96749 -1.76786,-1.71967 -1.76786,-1.71967 l 2.05839,0.27239 1.81653,-0.45814 -0.49412,-0.97521 -2.30563,-0.75883 2.6499,-3.10708 -0.49963,-0.73297 -4.69223,2.10939 1.13493,-4.58022 -0.76854,-0.25325 -2.90828,3.10376 0.0598,-2.6609 -1.27926,-0.50269 -0.52122,0.23505 0.0766,1.88687 -1.20647,2.45162 -2.81586,-1.00827 -0.27946,0.96371 1.50448,1.95762 c 0,0 -0.2119,2.84651 0.0481,3.78153 0.28911,1.03959 2.13731,1.82071 2.13731,1.82071 0,0 -2.86949,1.88825 -2.89656,3.09764 l -0.0377,1.69285 c 0,0 -0.0702,-0.0147 -0.0756,-0.0159 l 0.0561,0.0842 -0.0144,0.31331 c -11.45601,1.334 -50.74194,5.59299 -52.344006,5.55358 -1.682775,-0.0414 -32.972196,3.02302 -32.972196,3.02302 l 0.04926,1.13956 c 0,0 32.236079,0.88908 34.444985,1.136 2.208882,0.24692 25.434884,2.09582 26.606333,2.27345 1.000274,0.15166 18.376894,0.95722 24.140214,1.22292 l 0.25591,2.3383 c 0.17229,1.57273 2.23556,1.98933 2.47305,4.26136 0.12578,1.20308 -0.20673,2.27045 -0.15072,3.5486 0.0563,1.3013 1.83526,3.2329 1.83526,3.2329 l 1.99821,1.09837 3.03836,3.10506 1.02878,1.23577 1.00847,-0.008 0.0432,-1.92341 3.21965,2.29725 1.59667,-0.0339 -1.17265,-3.6627 4.23978,-0.65326 -0.0738,-0.98074 -2.03345,-0.60769 -3.60212,-0.20424 3.41632,-3.81662 -0.24683,-0.48785 -2.06387,-0.0297 -2.61227,1.41376 0.31715,-2.65657 -0.5102,-0.24943 -1.84419,1.66702 0.85549,-3.6165 -0.45589,-2.66669 c 0.002,-9e-5 0.004,-1.7e-4 0.006,-2.6e-4 0.008,0.005 0.0736,0.0364 0.0837,0.0413 l -0.001,-0.0243 c 3.89947,0.79617 12.35823,2.26458 22.61866,2.47345 10.46289,0.21303 20.3225,-0.78286 25.1233,-1.37115 l 0.94445,7.33683 c 0,0 0.28697,2.06172 3.57906,3.9678 3.29206,1.90605 8.84739,1.36865 8.84739,1.36865 l 5.55577,-0.5374 0.2432,-0.42761 c 0,0 -3.56069,-1.75376 -3.13816,-2.65276 0.33605,-0.71504 3.84009,-1.66205 3.84009,-1.66205 l 0.60797,-1.07015 c 0,0 -1.03227,-0.23707 -2.64095,-0.48592 -1.60868,-0.24885 -3.24844,0.58372 -3.24844,0.58372 l 1.94554,-3.42396 -2.2013,0.28052 -2.38469,2.65749 0.16783,-1.83611 -0.90996,-0.45121 -1.0788,1.38492 -1.4868,-0.46282 c 0,0 0.38024,-1.18269 0.54869,-3.01905 0.081,-0.88326 0.0841,-1.86361 0.0663,-2.64807 l 0.0759,-0.0346 c 0,0 3.13094,0.7397 4.20027,0.0155 1.06933,-0.72422 6.02344,-0.0523 7.30606,0.0713 1.28264,0.1236 3.04436,-1.6529 5.20777,-2.41769 0.67607,-0.239 1.18756,-0.58888 1.60907,-0.99497 0.92728,-0.89342 1.41846,-2.05898 2.26622,-2.91404 1.23311,-1.24375 2.30292,-1.9681 3.00756,-2.6788 0.22018,-0.22211 0.28964,-0.67285 0.25702,-1.22816 z m -19.78459,-9.26961 -0.74656,0.16334 0.18423,0.12592 0.56233,-0.28926 z"
       id="path4184-7-2-6"
       inkscape:connector-curvature="0" />
    <path
       style="color:#000000;clip-rule:nonzero;display:inline;overflow:visible;visibility:visible;opacity:1;isolation:auto;mix-blend-mode:normal;color-interpolation:sRGB;color-interpolation-filters:linearRGB;solid-color:#000000;solid-opacity:1;fill:#000000;fill-opacity:1;fill-rule:evenodd;stroke:none;stroke-width:2;stroke-linecap:butt;stroke-linejoin:miter;stroke-miterlimit:4;stroke-dasharray:none;stroke-dashoffset:0;stroke-opacity:1;marker:none;marker-start:none;marker-mid:none;marker-end:none;color-rendering:auto;image-rendering:auto;shape-rendering:auto;text-rendering:auto;enable-background:accumulate"
       d="m 137.9503,91.68403 -0.87696,0.48242 -0.32812,2.45703 c 0,0 -2.16032,1.86233 -2.63867,2.70899 -0.53185,0.94129 0.21289,2.81055 0.21289,2.81055 0,0 -1.9061,1.72281 -3.02344,2.18554 l -1.95312,0.8086 -0.0156,0.0469 -0.0527,-0.0117 c -0.38289,0.33503 -5.59951,4.35632 -6.07813,4.97852 -0.43856,0.57013 -1.21006,2.23717 -1.34765,2.53711 -0.33449,-0.0676 -16.74717,-3.37838 -27.500004,-3.60742 -11.35449,-0.24188 -28.38648,2.90386 -34.8379,5.56445 -4.5862,1.89137 -17.03124,8.46485 -17.03124,8.46485 -10e-6,0 0.25904,0.72493 1.0332,0.96679 0.77419,0.24189 6.82756,-3.4655 13.16015,-5.32031 8.2578,-2.41874 29.16114,-2.66147 34.32227,-2.17773 5.16114,0.48374 30.966804,9.1914 30.966804,9.1914 l 0.52734,4 c 0.2075,1.56973 2.28003,1.95674 2.56836,4.22461 0.15269,1.20087 -0.15492,2.27192 -0.0703,3.54883 0.0861,1.30003 1.9082,3.20508 1.9082,3.20508 l 2.02149,1.07031 3.10937,3.06055 1.05469,1.21875 1.00976,-0.0215 0,-1.92382 3.26953,2.25 1.59766,-0.0566 -1.25586,-3.64454 4.22656,-0.71484 -0.0976,-0.97852 -2.04688,-0.57812 -3.60547,-0.15234 3.33008,-3.86524 -0.25781,-0.48437 -2.06445,0 -2.58008,1.45312 0.25781,-2.66211 -0.51562,-0.24219 -1.80664,1.69336 0.77343,-3.62695 -0.51562,-2.66016 c 0,0 3.37786,1.61897 5.16015,2.17579 0,0 7.22634,3.86941 21.93555,5.5625 4.67399,0.538 9.03249,-0.72405 28.38672,-6.28711 l 5.41797,7.25586 c 0,0 1.29126,1.69171 5.16211,1.93359 3.87084,0.24186 8.51562,-2.66016 8.51562,-2.66016 l 4.64453,-2.90234 0,-0.48438 c 0,0 -4.03127,0.0108 -4.10937,-0.96679 -0.0622,-0.77747 2.5625,-3.14453 2.5625,-3.14453 l 0,-1.20899 c 0,0 -1.03371,0.24279 -2.58203,0.72656 -1.54835,0.48374 -2.58008,1.9336 -2.58008,1.9336 l 0,-3.86914 -1.80664,1.20898 -0.77344,3.38672 -0.77539,-1.69336 -1.03125,0 -0.25781,1.69336 -1.54883,0.24219 c 0,0 -0.25707,-1.20926 -1.03125,-2.90235 -0.77416,-1.69312 -2.06445,-3.6289 -2.06445,-3.6289 l 1.80468,-4.35352 c 0,0 2.83962,-1.45078 3.09766,-2.66015 0.25805,-1.20935 4.38769,-3.87008 5.41992,-4.59571 1.03223,-0.7256 1.03223,-3.14508 2.06446,-5.08008 1.03221,-1.93497 0,-3.62722 0,-5.32031 0,-1.69311 0.25781,-2.90361 0.25781,-3.8711 0,-0.96748 -2.83839,-2.66078 -4.38672,-3.14453 -0.38709,-0.12094 -0.75753,-0.18044 -1.14063,-0.20312 -1.14929,-0.068 -2.40813,0.20312 -4.5371,0.20312 -2.83862,0 -9.54785,6.04815 -10.58008,7.01563 -0.12543,0.11756 -0.33543,0.36204 -0.50586,0.54687 l -0.57422,1.37696 -1.46289,1.01367 c -0.67697,0.83757 -1.32813,1.6582 -1.32813,1.6582 l -0.63672,-0.29883 -0.15625,0.10742 c -3.01049,-1.31816 -6.92276,-3.07679 -8.3164,-4.06054 -1.86481,-1.31633 -6.53121,-2.29388 -7.59766,-2.50586 l -0.33984,-0.89063 c -0.35668,-0.59448 -0.7832,-0.79687 -0.78321,-0.79687 l -4.13085,-1.72266 -0.49805,0.14258 1.13086,2.78516 -4.94922,1.17968 0.0644,0.99414 3.91211,1.28125 -1.70703,2.49415 0.44727,0.6289 4.35351,-0.73047 -1.22461,1.44336 0.62696,0.34766 1.78906,-1.375 0.25781,-0.27735 0.21484,-0.19726 3.98829,2.50781 3.97656,3.05664 c 0.0698,0.055 0.28711,0.24024 0.28711,0.24024 0,0 -8.51614,-3.1e-4 -10.06446,-0.24219 -1.54835,-0.24186 -10.83791,-2.90264 -17.03125,-3.14453 -5.36803,-0.20963 -13.00917,0.79723 -15.05273,1.08203 0.0316,-0.0332 0.19727,-0.21289 0.19727,-0.21289 l 2.48632,-2.04297 0.0996,0.0371 c 0.89682,-0.517 3.27329,-1.67309 3.84961,-2.22461 0.699,-0.66891 1.88867,-2.33203 1.88867,-2.33203 l 1.25391,1.6582 1.59766,0.97266 0.34179,-1.04297 -1.08203,-2.17969 4.05664,-0.30859 0.16602,-0.875 -4.7832,-1.85156 4.03515,-2.43165 -0.36133,-0.72656 -4.23437,0.12305 1.92187,-1.83984 -0.54296,-1.26758 -0.53126,-0.20508 -1.27929,1.38867 -2.58008,0.87695 -1.26367,-2.7207 z"
       id="path4184-3-7"
       inkscape:connector-curvature="0" />
    <path
       style="color:#000000;clip-rule:nonzero;display:inline;overflow:visible;visibility:visible;opacity:1;isolation:auto;mix-blend-mode:normal;color-interpolation:sRGB;color-interpolation-filters:linearRGB;solid-color:#000000;solid-opacity:1;fill:none;fill-opacity:1;fill-rule:evenodd;stroke:#ffffff;stroke-width:0.875;stroke-linecap:butt;stroke-linejoin:miter;stroke-miterlimit:4;stroke-dasharray:3.5,0.875;stroke-dashoffset:0;stroke-opacity:1;marker:none;marker-start:none;marker-mid:none;marker-end:none;color-rendering:auto;image-rendering:auto;shape-rendering:auto;text-rendering:auto;enable-background:accumulate"
       d="m 41.842193,121.50926 c 19.002958,-10.84377 42.953335,-13.11472 58.144347,-10.3247 15.05069,2.76425 41.77167,10.81944 59.04461,10.27604 9.24928,-0.29098 17.47936,-1.4349 26.49013,-4.51674 9.01078,-3.08183 10.32172,-6.08654 10.32172,-6.08654"
       id="path5318"
       inkscape:connector-curvature="0"
       sodipodi:nodetypes="csszc" />
    <path
       style="color:#000000;clip-rule:nonzero;display:inline;overflow:visible;visibility:visible;opacity:1;isolation:auto;mix-blend-mode:normal;color-interpolation:sRGB;color-interpolation-filters:linearRGB;solid-color:#000000;solid-opacity:1;fill:#000000;fill-opacity:1;fill-rule:evenodd;stroke:none;stroke-width:2;stroke-linecap:butt;stroke-linejoin:miter;stroke-miterlimit:4;stroke-dasharray:none;stroke-dashoffset:0;stroke-opacity:1;marker:none;marker-start:none;marker-mid:none;marker-end:none;color-rendering:auto;image-rendering:auto;shape-rendering:auto;text-rendering:auto;enable-background:accumulate"
       d="m 130.0454,386.64401 -0.87696,-0.48242 -0.32812,-2.45703 c 0,0 -2.16032,-1.86233 -2.63867,-2.70899 -0.53185,-0.94129 0.21289,-2.81055 0.21289,-2.81055 0,0 -1.9061,-1.72281 -3.02344,-2.18554 l -1.95312,-0.8086 -0.0156,-0.0469 -0.0527,0.0117 c -0.38289,-0.33503 -5.59951,-4.35632 -6.07813,-4.97852 -0.43856,-0.57013 -1.21006,-2.23717 -1.34765,-2.53711 -0.33449,0.0676 -16.747171,3.37838 -27.500001,3.60742 -11.35449,0.24188 -28.38648,-2.90386 -34.8379,-5.56445 -4.5862,-1.89137 -17.03124,-8.46485 -17.03124,-8.46485 -1e-5,0 0.25904,-0.72493 1.0332,-0.96679 0.77419,-0.24189 6.82756,3.4655 13.16015,5.32031 8.2578,2.41874 29.16114,2.66147 34.32227,2.17773 5.16114,-0.48374 30.966801,-9.1914 30.966801,-9.1914 l 0.52734,-4 c 0.2075,-1.56973 2.28003,-1.95674 2.56836,-4.22461 0.15269,-1.20087 -0.15492,-2.27192 -0.0703,-3.54883 0.0861,-1.30003 1.9082,-3.20508 1.9082,-3.20508 l 2.02149,-1.07031 3.10937,-3.06055 1.05469,-1.21875 1.00976,0.0215 0,1.92382 3.26953,-2.25 1.59766,0.0566 -1.25586,3.64454 4.22656,0.71484 -0.0976,0.97852 -2.04688,0.57812 -3.60547,0.15234 3.33008,3.86524 -0.25781,0.48437 -2.06445,0 -2.58008,-1.45312 0.25781,2.66211 -0.51562,0.24219 -1.80664,-1.69336 0.77343,3.62695 -0.51562,2.66016 c 0,0 3.37786,-1.61897 5.16015,-2.17579 0,0 7.22634,-3.86941 21.93555,-5.5625 4.67399,-0.538 9.03249,0.72405 28.38672,6.28711 l 5.41797,-7.25586 c 0,0 1.29126,-1.69171 5.16211,-1.93359 3.87084,-0.24186 8.51562,2.66016 8.51562,2.66016 l 4.64453,2.90234 0,0.48438 c 0,0 -4.03127,-0.0108 -4.10937,0.96679 -0.0622,0.77747 2.5625,3.14453 2.5625,3.14453 l 0,1.20899 c 0,0 -1.03371,-0.24279 -2.58203,-0.72656 -1.54835,-0.48374 -2.58008,-1.9336 -2.58008,-1.9336 l 0,3.86914 -1.80664,-1.20898 -0.77344,-3.38672 -0.77539,1.69336 -1.03125,0 -0.25781,-1.69336 -1.54883,-0.24219 c 0,0 -0.25707,1.20926 -1.03125,2.90235 -0.77416,1.69312 -2.06445,3.6289 -2.06445,3.6289 l 1.80468,4.35352 c 0,0 2.83962,1.45078 3.09766,2.66015 0.25805,1.20935 4.38769,3.87008 5.41992,4.59571 1.03223,0.7256 1.03223,3.14508 2.06446,5.08008 1.03221,1.93497 0,3.62722 0,5.32031 0,1.69311 0.25781,2.90361 0.25781,3.8711 0,0.96748 -2.83839,2.66078 -4.38672,3.14453 -0.38709,0.12094 -0.75753,0.18044 -1.14063,0.20312 -1.14929,0.068 -2.40813,-0.20312 -4.5371,-0.20312 -2.83862,0 -9.54785,-6.04815 -10.58008,-7.01563 -0.12543,-0.11756 -0.33543,-0.36204 -0.50586,-0.54687 l -0.57422,-1.37696 -1.46289,-1.01367 c -0.67697,-0.83757 -1.32813,-1.6582 -1.32813,-1.6582 l -0.63672,0.29883 -0.15625,-0.10742 c -3.01049,1.31816 -6.92276,3.07679 -8.3164,4.06054 -1.86481,1.31633 -6.53121,2.29388 -7.59766,2.50586 l -0.33984,0.89063 c -0.35668,0.59448 -0.7832,0.79687 -0.78321,0.79687 l -4.13085,1.72266 -0.49805,-0.14258 1.13086,-2.78516 -4.94922,-1.17968 0.0644,-0.99414 3.91211,-1.28125 -1.70703,-2.49415 0.44727,-0.6289 4.35351,0.73047 -1.22461,-1.44336 0.62696,-0.34766 1.78906,1.375 0.25781,0.27735 0.21484,0.19726 3.98829,-2.50781 3.97656,-3.05664 c 0.0698,-0.055 0.28711,-0.24024 0.28711,-0.24024 0,0 -8.51614,3.1e-4 -10.06446,0.24219 -1.54835,0.24186 -10.83791,2.90264 -17.03125,3.14453 -5.36803,0.20963 -13.00917,-0.79723 -15.05273,-1.08203 0.0316,0.0332 0.19727,0.21289 0.19727,0.21289 l 2.48632,2.04297 0.0996,-0.0371 c 0.89682,0.517 3.27329,1.67309 3.84961,2.22461 0.699,0.66891 1.88867,2.33203 1.88867,2.33203 l 1.25391,-1.6582 1.59766,-0.97266 0.34179,1.04297 -1.08203,2.17969 4.05664,0.30859 0.16602,0.875 -4.7832,1.85156 4.03515,2.43165 -0.36133,0.72656 -4.23437,-0.12305 1.92187,1.83984 -0.54296,1.26758 -0.53126,0.20508 -1.27929,-1.38867 -2.58008,-0.87695 -1.26367,2.7207 z"
       id="path4184-3-7-7"
       inkscape:connector-curvature="0" />
    <path
       style="color:#000000;clip-rule:nonzero;display:inline;overflow:visible;visibility:visible;opacity:1;isolation:auto;mix-blend-mode:normal;color-interpolation:sRGB;color-interpolation-filters:linearRGB;solid-color:#000000;solid-opacity:1;fill:none;fill-opacity:1;fill-rule:evenodd;stroke:#ffffff;stroke-width:0.875;stroke-linecap:butt;stroke-linejoin:miter;stroke-miterlimit:4;stroke-dasharray:3.5, 0.875;stroke-dashoffset:0;stroke-opacity:1;marker:none;marker-start:none;marker-mid:none;marker-end:none;color-rendering:auto;image-rendering:auto;shape-rendering:auto;text-rendering:auto;enable-background:accumulate"
       d="m 43.124528,359.2959 c 11.362506,6.55256 32.59163,8.40485 50.503897,6.66147 15.230465,-1.48237 41.771675,-10.81944 59.044615,-10.27604 9.24928,0.29098 17.47936,1.4349 26.49013,4.51674 9.01078,3.08183 10.32172,6.08654 10.32172,6.08654"
       id="path5318-7"
       inkscape:connector-curvature="0"
       sodipodi:nodetypes="csszc" />
    <path
       style="color:#000000;clip-rule:nonzero;display:inline;overflow:visible;visibility:visible;opacity:1;isolation:auto;mix-blend-mode:normal;color-interpolation:sRGB;color-interpolation-filters:linearRGB;solid-color:#000000;solid-opacity:1;fill:none;fill-opacity:1;fill-rule:evenodd;stroke:#ffffff;stroke-width:0.875;stroke-linecap:butt;stroke-linejoin:miter;stroke-miterlimit:4;stroke-dasharray:3.5, 0.875;stroke-dashoffset:0;stroke-opacity:1;marker:none;marker-start:none;marker-mid:none;marker-end:none;color-rendering:auto;image-rendering:auto;shape-rendering:auto;text-rendering:auto;enable-background:accumulate"
       d="m 37.298191,239.01573 161.461589,-1.5274"
       id="path5335"
       inkscape:connector-curvature="0"
       sodipodi:nodetypes="cc" />
  </g>
</svg>
