<?xml version="1.0" encoding="UTF-8" standalone="no"?>
<!-- Generator: Adobe Illustrator 11 Build 196, SVG Export Plug-In . SVG Version: 6.0.0 Build 78)  -->

<svg
   xmlns:xapGImg="http://ns.adobe.com/xap/1.0/g/img/"
   xmlns:xap="http://ns.adobe.com/xap/1.0/"
   xmlns:x="adobe:ns:meta/"
   xmlns:dc="http://purl.org/dc/elements/1.1/"
   xmlns:cc="http://creativecommons.org/ns#"
   xmlns:rdf="http://www.w3.org/1999/02/22-rdf-syntax-ns#"
   xmlns:svg="http://www.w3.org/2000/svg"
   xmlns="http://www.w3.org/2000/svg"
   xmlns:xlink="http://www.w3.org/1999/xlink"
   xmlns:sodipodi="http://sodipodi.sourceforge.net/DTD/sodipodi-0.dtd"
   xmlns:inkscape="http://www.inkscape.org/namespaces/inkscape"
   width="147.403"
   height="183.339"
   viewBox="0 0 147.403 183.339"
   style="overflow:visible;enable-background:new 0 0 147.403 183.339"
   xml:space="preserve"
   id="svg2"
   version="1.1"
   sodipodi:docname="e-line-of-charge.svg"><defs
     id="defs231" /><sodipodi:namedview
     pagecolor="#ffffff"
     bordercolor="#666666"
     borderopacity="1"
     objecttolerance="10"
     gridtolerance="10"
     guidetolerance="10"
     inkscape:pageopacity="0"
     inkscape:pageshadow="2"
     inkscape:window-width="1280"
     inkscape:window-height="997"
     id="namedview229"
     showgrid="false"
     inkscape:zoom="3.2836738"
     inkscape:cx="29.830074"
     inkscape:cy="92.834793"
     inkscape:window-x="0"
     inkscape:window-y="0"
     inkscape:window-maximized="1"
     inkscape:current-layer="svg2" /><rect
     style="color:#000000;clip-rule:nonzero;display:inline;overflow:visible;visibility:visible;opacity:1;isolation:auto;mix-blend-mode:normal;color-interpolation:sRGB;color-interpolation-filters:linearRGB;solid-color:#000000;solid-opacity:1;fill:#dedede;fill-opacity:1;fill-rule:nonzero;stroke:none;stroke-width:0.875;stroke-linecap:butt;stroke-linejoin:miter;stroke-miterlimit:1;stroke-dasharray:none;stroke-dashoffset:0;stroke-opacity:1;color-rendering:auto;image-rendering:auto;shape-rendering:auto;text-rendering:auto;enable-background:accumulate"
     id="rect4359"
     width="184.25197"
     height="202.76051"
     x="-19.421505"
     y="-15.537204" /><g
     id="g7"><line
       id="line9"
       y2="150.892"
       x2="41.415001"
       y1="137.714"
       x1="45.089001"
       style="fill:none;stroke:#000000;stroke-width:0.5" /><path
       inkscape:connector-curvature="0"
       id="path11"
       d="M 40.797,153.116 C 40.7,151.963 40.4,150.481 39.924,149.482 l 1.573,1.121 1.926,-0.145 c -0.924,0.609 -1.947,1.721 -2.626,2.658 z" /></g><g
     id="g13"><line
       id="line15"
       y2="134.099"
       x2="17.436001"
       y1="126.141"
       x1="28.563"
       style="fill:none;stroke:#000000;stroke-width:0.5" /><path
       inkscape:connector-curvature="0"
       id="path17"
       d="m 15.562,135.443 c 0.648,-0.958 1.344,-2.301 1.599,-3.377 l 0.522,1.86 1.591,1.096 c -1.101,-0.107 -2.596,0.118 -3.712,0.421 z" /></g><line
     id="line19"
     y2="86.393997"
     x2="68.568001"
     y1="0.287"
     x1="129.002"
     style="fill:none;stroke:#000000" /><g
     id="g21"><g
       id="g23"><defs
         id="defs25"><polygon
           points="127.327,46.625 66.151,133.816 68.879,124.773 130.055,37.583 "
           id="XMLID_5_" /></defs><clipPath
         id="XMLID_19_"><use
           height="100%"
           width="100%"
           y="0"
           x="0"
           id="use29"
           xlink:href="#XMLID_5_" /></clipPath><polygon
         clip-path="url(#XMLID_19_)"
         id="polygon31"
         points="127.327,46.625 66.151,133.816 68.879,124.773 130.055,37.583 "
         style="fill:#c7c7c7;stroke:#000000;stroke-width:0.5;stroke-linecap:round;stroke-linejoin:round" /></g><g
       id="g33"><defs
         id="defs35"><polygon
           points="97.984,10.499 36.81,97.69 27.467,101.147 88.642,13.957 "
           id="XMLID_7_" /></defs><clipPath
         id="XMLID_20_"><use
           height="100%"
           width="100%"
           y="0"
           x="0"
           id="use39"
           xlink:href="#XMLID_7_" /></clipPath><polygon
         clip-path="url(#XMLID_20_)"
         id="polygon41"
         points="97.984,10.499 36.81,97.69 27.467,101.147 88.642,13.957 "
         style="fill:#a6a6a6;stroke:#000000;stroke-width:0.5;stroke-linecap:round;stroke-linejoin:round" /></g><g
       id="g43"><defs
         id="defs45"><polygon
           points="130.055,37.583 68.879,124.773 66.18,114.446 127.354,27.255 "
           id="XMLID_9_" /></defs><clipPath
         id="XMLID_21_"><use
           height="100%"
           width="100%"
           y="0"
           x="0"
           id="use49"
           xlink:href="#XMLID_9_" /></clipPath><polygon
         clip-path="url(#XMLID_21_)"
         id="polygon51"
         points="130.055,37.583 68.879,124.773 66.18,114.446 127.354,27.255 "
         style="fill:#c7c7c7;stroke:#000000;stroke-width:0.5;stroke-linecap:round;stroke-linejoin:round" /></g><g
       id="g53"><defs
         id="defs55"><polygon
           points="109.245,11.961 48.07,99.152 36.81,97.69 97.984,10.499 "
           id="XMLID_11_" /></defs><clipPath
         id="XMLID_22_"><use
           height="100%"
           width="100%"
           y="0"
           x="0"
           id="use59"
           xlink:href="#XMLID_11_" /></clipPath><polygon
         clip-path="url(#XMLID_22_)"
         id="polygon61"
         points="109.245,11.961 48.07,99.152 36.81,97.69 97.984,10.499 "
         style="fill:#a0a0a0;stroke:#000000;stroke-width:0.5;stroke-linecap:round;stroke-linejoin:round" /></g><g
       id="g63"><defs
         id="defs65"><polygon
           points="119.845,18.009 58.669,105.199 48.07,99.152 109.245,11.961 "
           id="XMLID_13_" /></defs><clipPath
         id="XMLID_23_"><use
           height="100%"
           width="100%"
           y="0"
           x="0"
           id="use69"
           xlink:href="#XMLID_13_" /></clipPath><polygon
         clip-path="url(#XMLID_23_)"
         id="polygon71"
         points="119.845,18.009 58.669,105.199 48.07,99.152 109.245,11.961 "
         style="fill:#ababab;stroke:#000000;stroke-width:0.5;stroke-linecap:round;stroke-linejoin:round" /></g><g
       id="g73"><defs
         id="defs75"><polygon
           points="58.669,105.199 66.18,114.446 68.879,124.773 66.151,133.816 58.62,139.502 48.01,140.529 36.753,136.663 27.427,128.787 22.169,118.707 22.184,108.732 27.467,101.147 36.81,97.69 48.07,99.152 "
           id="XMLID_15_" /></defs><clipPath
         id="XMLID_24_"><use
           height="100%"
           width="100%"
           y="0"
           x="0"
           id="use79"
           xlink:href="#XMLID_15_" /></clipPath><polygon
         clip-path="url(#XMLID_24_)"
         id="polygon81"
         points="58.669,105.199 66.18,114.446 68.879,124.773 66.151,133.816 58.62,139.502 48.01,140.529 36.753,136.663 27.427,128.787 22.169,118.707 22.184,108.732 27.467,101.147 36.81,97.69 48.07,99.152 "
         style="fill:#b6b6b6;stroke:#000000;stroke-width:0.5;stroke-linecap:round;stroke-linejoin:round" /></g><g
       id="g83"><defs
         id="defs85"><polygon
           points="127.354,27.255 66.18,114.446 58.669,105.199 119.845,18.009 "
           id="XMLID_17_" /></defs><clipPath
         id="XMLID_25_"><use
           height="100%"
           width="100%"
           y="0"
           x="0"
           id="use89"
           xlink:href="#XMLID_17_" /></clipPath><polygon
         clip-path="url(#XMLID_25_)"
         id="polygon91"
         points="127.354,27.255 66.18,114.446 58.669,105.199 119.845,18.009 "
         style="fill:#bdbdbd;stroke:#000000;stroke-width:0.5;stroke-linecap:round;stroke-linejoin:round" /></g></g><line
     id="line93"
     y2="167.12199"
     x2="12.042"
     y1="119.86"
     x1="45.276001"
     style="fill:none;stroke:#000000" /><line
     id="line95"
     y2="16.804001"
     x2="117.417"
     y1="119.761"
     x1="45.383999"
     style="fill:none;stroke:#404040;stroke-dasharray:2" /><g
     id="g97"><line
       id="line99"
       y2="66.096001"
       x2="65.057999"
       y1="79.274002"
       x1="61.383999"
       style="fill:none;stroke:#000000;stroke-width:0.5" /><path
       inkscape:connector-curvature="0"
       id="path101"
       d="m 65.676,63.873 c 0.096,1.153 0.396,2.635 0.873,3.633 l -1.574,-1.121 -1.926,0.145 c 0.924,-0.608 1.948,-1.72 2.627,-2.657 z" /></g><g
     id="g103"><line
       id="line105"
       y2="60.667999"
       x2="37.914001"
       y1="75.532997"
       x1="42.675999"
       style="fill:none;stroke:#000000;stroke-width:0.5" /><path
       inkscape:connector-curvature="0"
       id="path107"
       d="m 37.211,58.472 c 0.714,0.911 1.779,1.983 2.727,2.556 l -1.931,-0.071 -1.529,1.18 c 0.437,-1.017 0.681,-2.509 0.733,-3.665 z" /></g><g
     id="g109"><line
       id="line111"
       y2="156.321"
       x2="68.557999"
       y1="141.45599"
       x1="63.796001"
       style="fill:none;stroke:#000000;stroke-width:0.5" /><path
       inkscape:connector-curvature="0"
       id="path113"
       d="m 69.262,158.517 c -0.714,-0.911 -1.779,-1.983 -2.727,-2.556 l 1.931,0.072 1.53,-1.18 c -0.438,1.016 -0.682,2.508 -0.734,3.664 z" /></g><g
     id="g115"><line
       id="line117"
       y2="68.054001"
       x2="14.876"
       y1="80.623001"
       x1="26.799"
       style="fill:none;stroke:#000000;stroke-width:0.5" /><path
       inkscape:connector-curvature="0"
       id="path119"
       d="m 13.289,66.38 c 1.039,0.51 2.464,1.014 3.565,1.119 L 15.084,68.272 14.218,70 c -0.046,-1.106 -0.474,-2.555 -0.929,-3.62 z" /></g><g
     id="g121"><line
       id="line123"
       y2="148.935"
       x2="91.597"
       y1="136.366"
       x1="79.674004"
       style="fill:none;stroke:#000000;stroke-width:0.5" /><path
       inkscape:connector-curvature="0"
       id="path125"
       d="m 93.184,150.608 c -1.039,-0.51 -2.464,-1.014 -3.566,-1.119 l 1.771,-0.773 0.866,-1.727 c 0.046,1.105 0.474,2.554 0.929,3.619 z" /></g><g
     id="g127"><line
       id="line129"
       y2="86.275002"
       x2="2.1159999"
       y1="93.181"
       x1="18.004999"
       style="fill:none;stroke:#000000;stroke-width:0.5" /><path
       inkscape:connector-curvature="0"
       id="path131"
       d="m 0,85.36 c 1.156,0.063 2.664,-0.03 3.719,-0.365 L 2.392,86.399 2.271,88.327 C 1.795,87.328 0.834,86.162 0,85.36 Z" /></g><g
     id="g133"><line
       id="line135"
       y2="130.714"
       x2="104.356"
       y1="123.808"
       x1="88.468002"
       style="fill:none;stroke:#000000;stroke-width:0.5" /><path
       inkscape:connector-curvature="0"
       id="path137"
       d="m 106.473,131.629 c -1.156,-0.063 -2.664,0.03 -3.719,0.364 l 1.327,-1.404 0.122,-1.928 c 0.474,0.999 1.435,2.166 2.27,2.968 z" /></g><g
     id="g139"><line
       id="line141"
       y2="110.449"
       x2="3.053"
       y1="109.841"
       x1="18.65"
       style="fill:none;stroke:#000000;stroke-width:0.5" /><path
       inkscape:connector-curvature="0"
       id="path143"
       d="m 0.75,110.542 c 1.068,-0.444 2.387,-1.184 3.192,-1.942 l -0.586,1.841 0.727,1.79 C 3.222,111.536 1.85,110.901 0.75,110.542 Z" /></g><g
     id="g145"><line
       id="line147"
       y2="106.54"
       x2="103.419"
       y1="107.147"
       x1="87.821999"
       style="fill:none;stroke:#000000;stroke-width:0.5" /><path
       inkscape:connector-curvature="0"
       id="path149"
       d="m 105.722,106.447 c -1.068,0.445 -2.387,1.184 -3.192,1.943 l 0.586,-1.841 -0.728,-1.79 c 0.862,0.694 2.235,1.328 3.334,1.688 z" /></g><g
     id="g151"><line
       id="line153"
       y2="82.889"
       x2="89.037003"
       y1="90.848"
       x1="77.910004"
       style="fill:none;stroke:#000000;stroke-width:0.5" /><path
       inkscape:connector-curvature="0"
       id="path155"
       d="m 90.911,81.545 c -0.648,0.959 -1.343,2.301 -1.599,3.377 l -0.522,-1.86 -1.591,-1.095 c 1.1,0.106 2.595,-0.118 3.712,-0.422 z" /></g><g
     id="g157"><line
       id="line159"
       y2="7.6420002"
       x2="105.989"
       y1="20.819"
       x1="102.314"
       style="fill:none;stroke:#000000;stroke-width:0.5" /><path
       inkscape:connector-curvature="0"
       id="path161"
       d="m 106.606,5.417 c 0.096,1.153 0.396,2.635 0.873,3.633 l -1.574,-1.121 -1.926,0.145 c 0.925,-0.607 1.948,-1.72 2.627,-2.657 z" /></g><g
     id="g163"><line
       id="line165"
       y2="2.2130001"
       x2="78.845001"
       y1="17.077999"
       x1="83.607002"
       style="fill:none;stroke:#000000;stroke-width:0.5" /><path
       inkscape:connector-curvature="0"
       id="path167"
       d="m 78.142,0.017 c 0.714,0.91 1.779,1.983 2.727,2.555 l -1.931,-0.071 -1.53,1.18 c 0.438,-1.016 0.681,-2.508 0.734,-3.664 z" /></g><g
     id="g169"><line
       id="line171"
       y2="97.865997"
       x2="109.489"
       y1="83"
       x1="104.727"
       style="fill:none;stroke:#000000;stroke-width:0.5" /><path
       inkscape:connector-curvature="0"
       id="path173"
       d="m 110.192,100.062 c -0.714,-0.91 -1.779,-1.983 -2.727,-2.555 l 1.931,0.071 1.53,-1.18 c -0.438,1.016 -0.681,2.508 -0.734,3.664 z" /></g><g
     id="g175"><line
       id="line177"
       y2="9.599"
       x2="55.806999"
       y1="22.167999"
       x1="67.728996"
       style="fill:none;stroke:#000000;stroke-width:0.5" /><path
       inkscape:connector-curvature="0"
       id="path179"
       d="m 54.22,7.926 c 1.039,0.51 2.464,1.014 3.565,1.119 l -1.77,0.773 -0.866,1.727 C 55.103,10.439 54.674,8.99 54.22,7.926 Z" /></g><g
     id="g181"><line
       id="line183"
       y2="90.480003"
       x2="132.52699"
       y1="77.911003"
       x1="120.604"
       style="fill:none;stroke:#000000;stroke-width:0.5" /><path
       inkscape:connector-curvature="0"
       id="path185"
       d="m 134.114,92.153 c -1.039,-0.51 -2.464,-1.014 -3.566,-1.119 l 1.771,-0.773 0.866,-1.727 c 0.046,1.105 0.474,2.555 0.929,3.619 z" /></g><g
     id="g187"><line
       id="line189"
       y2="27.82"
       x2="43.047001"
       y1="34.726002"
       x1="58.936001"
       style="fill:none;stroke:#000000;stroke-width:0.5" /><path
       inkscape:connector-curvature="0"
       id="path191"
       d="m 40.931,26.905 c 1.156,0.063 2.664,-0.03 3.719,-0.365 l -1.327,1.405 -0.121,1.928 c -0.476,-1 -1.437,-2.166 -2.271,-2.968 z" /></g><g
     id="g193"><line
       id="line195"
       y2="72.259003"
       x2="145.287"
       y1="65.352997"
       x1="129.39799"
       style="fill:none;stroke:#000000;stroke-width:0.5" /><path
       inkscape:connector-curvature="0"
       id="path197"
       d="m 147.403,73.174 c -1.156,-0.063 -2.664,0.03 -3.719,0.364 l 1.327,-1.404 0.122,-1.928 c 0.475,0.999 1.435,2.166 2.27,2.968 z" /></g><g
     id="g199"><line
       id="line201"
       y2="51.993999"
       x2="43.984001"
       y1="51.386002"
       x1="59.581001"
       style="fill:none;stroke:#000000;stroke-width:0.5" /><path
       inkscape:connector-curvature="0"
       id="path203"
       d="m 41.681,52.086 c 1.068,-0.444 2.387,-1.184 3.192,-1.942 l -0.586,1.841 0.728,1.79 c -0.862,-0.694 -2.234,-1.329 -3.334,-1.689 z" /></g><g
     id="g205"><line
       id="line207"
       y2="48.084"
       x2="144.35001"
       y1="48.692001"
       x1="128.752"
       style="fill:none;stroke:#000000;stroke-width:0.5" /><path
       inkscape:connector-curvature="0"
       id="path209"
       d="m 146.653,47.992 c -1.068,0.444 -2.387,1.183 -3.192,1.942 l 0.586,-1.841 -0.728,-1.79 c 0.862,0.695 2.234,1.329 3.334,1.689 z" /></g><g
     id="g211"><line
       id="line213"
       y2="24.434"
       x2="129.967"
       y1="32.393002"
       x1="118.84"
       style="fill:none;stroke:#000000;stroke-width:0.5" /><path
       inkscape:connector-curvature="0"
       id="path215"
       d="m 131.842,23.09 c -0.648,0.958 -1.344,2.3 -1.6,3.377 l -0.522,-1.86 -1.591,-1.095 c 1.101,0.106 2.596,-0.118 3.713,-0.422 z" /></g><g
     id="g223"><path
       inkscape:connector-curvature="0"
       id="path225"
       d="m 41.539,168.008 c -7.237,8.323 -10.424,-5.238 -14.402,-0.814"
       style="fill:none;stroke:#000000" /><path
       inkscape:connector-curvature="0"
       id="path227"
       d="m 21.445,153.939 c -5.346,9.647 8.488,8.003 5.691,13.255"
       style="fill:none;stroke:#000000" /></g><text
     xml:space="preserve"
     style="color:#000000;font-style:normal;font-variant:normal;font-weight:normal;font-stretch:normal;font-size:12.5px;line-height:125%;font-family:'Liberation Sans';-inkscape-font-specification:'Liberation Sans';text-indent:0;text-align:start;text-decoration:none;text-decoration-line:none;text-decoration-style:solid;text-decoration-color:#000000;letter-spacing:0px;word-spacing:0px;text-transform:none;direction:ltr;block-progression:tb;writing-mode:lr-tb;baseline-shift:baseline;text-anchor:start;white-space:normal;clip-rule:nonzero;display:inline;overflow:visible;visibility:visible;opacity:1;isolation:auto;mix-blend-mode:normal;color-interpolation:sRGB;color-interpolation-filters:linearRGB;solid-color:#000000;solid-opacity:1;fill:#000000;fill-opacity:1;fill-rule:nonzero;stroke:none;stroke-width:1.24999988px;stroke-linecap:butt;stroke-linejoin:miter;stroke-miterlimit:4;stroke-dasharray:none;stroke-dashoffset:0;stroke-opacity:1;marker:none;marker-start:none;marker-mid:none;marker-end:none;color-rendering:auto;image-rendering:auto;shape-rendering:auto;text-rendering:auto;enable-background:accumulate"
     x="20.099434"
     y="177.24826"
     id="text4479"
     sodipodi:linespacing="125%"><tspan
       sodipodi:role="line"
       id="tspan4481"
       x="20.099434"
       y="177.24826"
       style="font-style:italic;font-variant:normal;font-weight:normal;font-stretch:normal;font-family:'Liberation Sans';-inkscape-font-specification:'Liberation Sans Italic'">r</tspan></text>
</svg>
