<?xml version="1.0" encoding="UTF-8" standalone="no"?>
<!-- Generator: Adobe Illustrator 11 Build 196, SVG Export Plug-In . SVG Version: 6.0.0 Build 78)  -->

<svg
   xmlns:dc="http://purl.org/dc/elements/1.1/"
   xmlns:cc="http://creativecommons.org/ns#"
   xmlns:rdf="http://www.w3.org/1999/02/22-rdf-syntax-ns#"
   xmlns:svg="http://www.w3.org/2000/svg"
   xmlns="http://www.w3.org/2000/svg"
   xmlns:sodipodi="http://sodipodi.sourceforge.net/DTD/sodipodi-0.dtd"
   xmlns:inkscape="http://www.inkscape.org/namespaces/inkscape"
   width="147.619"
   height="248.764"
   viewBox="0 0 147.619 248.764"
   style="overflow:visible;enable-background:new 0 0 147.619 248.764"
   xml:space="preserve"
   id="svg2"
   version="1.1"
   sodipodi:docname="a.svg"><metadata
     id="metadata263"><rdf:RDF><cc:Work
         rdf:about=""><dc:format>image/svg+xml</dc:format><dc:type
           rdf:resource="http://purl.org/dc/dcmitype/StillImage" /></cc:Work></rdf:RDF></metadata><defs
     id="defs261" /><sodipodi:namedview
     pagecolor="#ffffff"
     bordercolor="#666666"
     borderopacity="1"
     objecttolerance="10"
     gridtolerance="10"
     guidetolerance="10"
     inkscape:pageopacity="0"
     inkscape:pageshadow="2"
     inkscape:window-width="1280"
     inkscape:window-height="997"
     id="namedview259"
     showgrid="false"
     inkscape:zoom="1.4043416"
     inkscape:cx="103.11603"
     inkscape:cy="404.2617"
     inkscape:window-x="0"
     inkscape:window-y="0"
     inkscape:window-maximized="1"
     inkscape:current-layer="svg2" /><style
     type="text/css"
     id="style4" /><rect
     style="color:#000000;clip-rule:nonzero;display:inline;overflow:visible;visibility:visible;opacity:1;isolation:auto;mix-blend-mode:normal;color-interpolation:sRGB;color-interpolation-filters:linearRGB;solid-color:#000000;solid-opacity:1;fill:#dedede;fill-opacity:1;fill-rule:nonzero;stroke:none;stroke-width:0.875;stroke-linecap:butt;stroke-linejoin:miter;stroke-miterlimit:1;stroke-dasharray:none;stroke-dashoffset:0;stroke-opacity:1;color-rendering:auto;image-rendering:auto;shape-rendering:auto;text-rendering:auto;enable-background:accumulate"
     id="rect4272"
     width="184.25197"
     height="486.37308"
     x="-4.2319036"
     y="-392.70227" /><path
     style="overflow:visible;fill:#585858;fill-opacity:1;stroke:none;stroke-width:0.94999999"
     d="m 143.14011,-242.71765 -0.11303,1.64316 -0.46659,2.81975 c 0,0 -0.69712,1.99742 -0.81434,2.585 -0.11575,0.5876 -0.46277,1.87761 -0.81144,2.81684 -0.34871,0.93923 -1.86296,3.0542 -2.56182,3.99343 -0.69885,0.93922 -1.62542,2.3482 -6.27704,6.57843 -4.65162,4.22875 -5.69933,6.93113 -6.97834,8.57514 -0.29762,0.3821 -0.73893,0.88969 -1.23165,1.43161 l -2.80525,2.69802 c -0.3573,0.29919 -0.71204,0.60182 -1.08384,0.8723 l -1.0114,-1.51565 c -0.004,-0.20139 -0.0145,-0.35059 -0.0145,-0.51006 l -0.0899,0.35355 -0.43181,-0.64915 0.17388,-0.17388 c -2.32506,-2.58472 -3.72086,-3.8778 -5.58151,-4.11224 -0.2326,-0.029 -0.46786,-0.0423 -0.69843,-0.0405 -1.61376,0.0115 -3.12706,0.72974 -3.83983,1.44899 -0.81459,0.82201 -2.55935,2.58383 -1.8605,6.3437 0.69886,3.75839 -0.11593,2.81974 -0.11593,2.81974 l -1.39393,1.52724 -0.23187,3.52396 0.49555,0.24922 -1.20265,1.35336 -0.023,0.0608 0.032,-0.13619 c -0.69737,1.17515 -1.1621,2.58282 -1.1621,3.1704 0,0.0199 -0.0109,0.11067 -0.0115,0.13619 l -1.7417,4.82515 -0.22316,-0.0321 -1.51275,1.76488 -0.93025,1.8779 -0.231871,1.76487 -1.049071,1.40842 -0.463682,2.58501 -0.115936,2.93566 2.442997,2.23145 3.254443,-0.11594 2.67485,-2.35026 0.49846,-1.13602 0.74188,1.26933 0.47814,0.20284 0.25794,0.48975 1.97642,2.34737 2.79076,3.87461 2.55893,4.4658 c 0,0 0.34859,1.99613 0.93025,2.70092 0.58161,0.70627 2.2116,3.64206 8.37518,3.05448 6.16358,-0.5876 6.39586,-3.63987 6.39586,-3.63987 l 0.34775,-1.99961 0.69841,-0.23187 1.39393,-1.2925 1.62576,-2.37635 2.60529,-1.3041 0.12174,0.0608 0.60568,-0.27239 -0.1391,-0.0812 1.28672,-0.64335 7.87091,5.35838 0.66076,-0.16517 c 0.005,0.002 0.009,0.007 0.0145,0.008 2.20934,0.82349 4.76694,1.05633 5.58153,-0.11884 0.40665,-0.58663 1.10294,-1.25985 1.69822,-1.78806 l 0.4144,-0.11303 4.18179,-3.90069 c 1.63838,-1.3517 4.40784,-3.94706 4.40784,-3.94706 l 0.63756,-0.76217 0.82013,-0.76508 0,-0.81723 0.284,-1.2954 -0.284,0.34194 0,-6.94937 0.63176,0.73319 0,-1.17369 c 0,1e-5 -1.8e-4,-3.05431 -0.11594,-4.11224 -0.11575,-1.05793 -1.04499,-1.99672 -2.20826,-1.99672 -1.16328,0 -1.62867,2.70093 -1.62867,2.70093 l 0.11593,0.13329 -4.12383,5.0396 c -1.00433,0.93848 -1.69563,1.56396 -2.72991,2.51255 l -2.38214,-0.89258 2.95884,0.25504 c -3.3726,-0.35168 -5.11771,-2.23159 -6.97835,-3.52395 -1.86065,-1.29237 -4.07049,-3.40467 -5.23377,-4.22817 -1.16179,-0.82201 -4.18469,-2.11553 -4.18469,-2.11553 0,0 -3.25813,-1.64388 -4.77009,-2.23145 -1.51048,-0.5876 -3.13844,7.2e-4 -4.06876,0.58827 -0.93033,0.5876 -2.90654,5.17031 -4.76721,8.9287 l 0.5622,0.049 -0.39994,0.45207 c -0.8138,-0.66407 -1.6317,-1.34201 -2.25752,-1.79385 -0.0847,-0.0611 -0.12331,-0.0796 -0.2,-0.13329 l 0.42601,-1.52145 -0.88969,-13.35102 1.34177,-1.73589 -0.64045,0.93315 2.7357,-3.0255 2.4401,-2.58501 3.25734,-4.22816 3.37035,-3.99343 2.32709,-2.81974 2.55892,-3.28921 2.32419,-3.05449 2.21116,-2.70092 1.62867,-1.88079 0.93025,-3.63987 0.81434,-2.46619 -0.58252,-1.05777 -0.59407,0.59988 -0.39704,-1.21425 0.29271,-1.38235 -0.46368,-0.70421 -1.25773,1.26932 -0.89548,-0.25213 0.0581,-0.90128 -0.11593,-1.40841 -0.93026,-0.11594 z m -23.14043,34.02237 0.0985,0.0608 -0.0345,0.032 -0.0638,-0.0927 z m 48.06022,18.33267 a 1.7270511,0.99706039 5.883344 0 0 -1.52723,0.83173 1.7270511,0.99706039 5.883344 0 0 1.61707,1.16788 1.7270511,0.99706039 5.883344 0 0 1.81994,-0.81433 1.7270511,0.99706039 5.883344 0 0 -1.61708,-1.16789 1.7270511,0.99706039 5.883344 0 0 -0.29271,-0.0175 z m -67.03045,3.37906 0.26084,0.44627 -0.57671,0 0.31587,-0.44627 z m 1.38234,2.36765 0.42601,0.7303 -1.4258,-0.65495 0.99979,-0.0754 z m 2.02279,3.46599 0.006,0.0115 -0.006,0.008 0,-0.0206 z m 62.02563,2.99942 c -0.4837,0.12761 -0.82219,0.39904 -0.8578,0.74479 -0.0562,0.5475 0.66605,1.07427 1.61418,1.17368 0.94813,0.0994 1.76207,-0.26393 1.81994,-0.81143 0.0399,-0.39619 -0.32446,-0.77732 -0.88679,-0.99692 l -1.68953,-0.11013 z m -9.346,9.37789 c -0.75673,0.0296 -1.34936,0.35863 -1.39684,0.82303 -0.0562,0.5475 0.66606,1.07427 1.61418,1.17368 0.94814,0.0994 1.76208,-0.26392 1.81994,-0.81143 0.0387,-0.37986 -0.29767,-0.74968 -0.82593,-0.97373 l -1.21135,-0.21155 z m -12.58016,1.02879 0.55349,0.39123 1.09544,0.55349 -1.64894,-0.94474 z"
     id="path7-3"
     inkscape:connector-curvature="0" /><path
     inkscape:connector-curvature="0"
     id="path7"
     d="m 125.75177,-186.5866 c 1.86064,-3.75839 3.83702,-8.34027 4.76734,-8.92784 0.93033,-0.58761 2.5595,-1.17515 4.06998,-0.58761 1.51196,0.58761 4.76884,2.2316 4.76884,2.2316 0,0 3.02392,1.29236 4.18571,2.11437 1.16328,0.82349 3.37261,2.93638 5.23326,4.22874 1.86064,1.29236 3.60556,3.1723 6.97816,3.52396"
     style="fill:none;stroke:#000000;stroke-width:1.40958107" /><path
     inkscape:connector-curvature="0"
     id="path9"
     d="m 136.44974,-179.06834 0.23296,-7.04791 c 0,0 2.67524,1.76272 4.65162,2.58473 1.97786,0.822 4.1872,0.46888 5.0003,1.17514 0.81459,0.70479 4.65162,2.11437 5.23325,2.58473"
     style="fill:none;stroke:#000000;stroke-width:1.40958107" /><path
     inkscape:connector-curvature="0"
     id="path11"
     d="m 147.03198,-173.90038 c -4.18571,0.47034 -3.83702,0.11721 -5.93062,-1.05644 -2.0936,-1.17514 -8.7216,-6.46033 -11.04667,-7.98862 -2.32654,-1.52679 -4.76883,-3.75838 -6.39652,-4.93353 -1.6277,-1.17514 -1.74344,-0.93923 -1.74344,-0.93923 l -3.25687,-0.35167 -1.97638,3.28803 -0.69885,8.22305 -0.23296,3.64266"
     style="fill:none;stroke:#000000;stroke-width:1.40958107" /><polyline
     id="polyline13"
     points="36.34,51.701 29.757,48.376 26.387,46.951 23.173,45.447     21.135,43.389 19.881,42.28 "
     style="fill:none;stroke:#000000;stroke-width:0.94999999"
     transform="matrix(1.4837695,0,0,1.4837695,92.530165,-243.3304)" /><path
     inkscape:connector-curvature="0"
     id="path15"
     d="m 134.93778,-170.72956 -2.0936,3.05508 -1.39474,1.29236 -0.69737,0.23441 -0.34872,1.99716 c 0,0 -0.23296,3.0536 -6.39653,3.64117 -6.16358,0.5876 -7.79127,-2.34881 -8.37291,-3.05508 -0.58161,-0.70479 -0.93033,-2.70046 -0.93033,-2.70046 l -2.5595,-4.46467 -2.79096,-3.8756 -1.97787,-2.34881 -0.93033,-1.76271"
     style="fill:none;stroke:#000000;stroke-width:1.40958107" /><polyline
     id="polyline17"
     points="21.057,36.501 20.43,33.414 20.117,31.672 20.273,28.743     20.352,27.001 20.352,25.576 "
     style="fill:none;stroke:#000000;stroke-width:0.94999999"
     transform="matrix(1.4837695,0,0,1.4837695,92.530165,-243.3304)" /><polyline
     style="fill:none;stroke:#000000;stroke-width:0.94999999"
     points="21.003,26.719 22.847,24.679 24.493,22.938      26.687,20.087 28.96,17.396 30.528,15.496 32.252,13.279 33.819,11.221 35.309,9.4 36.406,8.133 37.033,5.679 37.582,4.017      37.189,3.304 36.014,4.492 35.779,5.205 "
     id="polyline21"
     transform="matrix(1.4837695,0,0,1.4837695,92.530165,-243.3304)" /><polyline
     style="fill:none;stroke:#000000;stroke-width:0.94999999"
     points="36.484,3.067 36.719,1.958 36.406,1.483 35.544,2.354      35.152,4.017 "
     id="polyline23"
     transform="matrix(1.4837695,0,0,1.4837695,92.530165,-243.3304)" /><path
     style="fill:none;stroke:#000000;stroke-width:1.40958107"
     d="m 144.45468,-241.01276 -0.11721,-1.40958 -0.92884,-0.11575 -0.11575,1.64402 -0.46441,2.81916 c 0,0 -0.69738,1.99715 -0.8146,2.58473 -0.11575,0.5876 -0.4644,1.87993 -0.8131,2.81916 -0.34871,0.93923 -1.86064,3.0536 -2.5595,3.99282 -0.69886,0.93923 -1.6277,2.34881 -6.27932,6.57903 -4.65161,4.22875 -5.69915,6.93069 -6.97816,8.57471 -0.92439,1.18702 -2.93786,3.41564 -5.12346,5.00476"
     id="path25"
     inkscape:connector-curvature="0" /><path
     inkscape:connector-curvature="0"
     id="path27"
     d="m 118.88933,-211.01984 c -2.32507,-2.58472 -3.7213,-3.87709 -5.58194,-4.11153 -1.86065,-0.23441 -3.7213,0.5876 -4.53588,1.40959 -0.8146,0.822 -2.55951,2.58324 -1.86065,6.34311 0.69885,3.75839 -0.11576,2.81916 -0.11576,2.81916 l -1.39474,1.5268 -0.23296,3.52396 1.16328,0.5876 2.32506,-1.87994"
     style="fill:none;stroke:#000000;stroke-width:1.40958107" /><polyline
     id="polyline29"
     points="16.59,22.251 14.708,23.28 13.847,24.785 13.219,26.685     12.044,25.734 11.26,24.943 10.555,25.497 10.947,27.001 12.357,27.555 "
     style="fill:none;stroke:#000000;stroke-width:0.47499999"
     transform="matrix(1.4837695,0,0,1.4837695,92.530165,-243.3304)" /><path
     inkscape:connector-curvature="0"
     id="path31"
     d="m 119.23801,-210.54949 c 0,1.17515 0.11576,3.75988 0.11576,3.75988 l -0.11576,1.17366 1.39475,2.34881 -1.04754,0.70479 -0.23296,1.29236 0.34871,1.87994 -0.93032,1.17514 -2.20934,0.11721 -1.04754,0.47033 0.11721,1.40959"
     style="fill:none;stroke:#000000;stroke-width:1.40958107" /><path
     inkscape:connector-curvature="0"
     id="path33"
     d="m 104.47005,-197.98047 c -0.69736,1.17514 -1.16327,2.58324 -1.16327,3.17081 0,0.58761 -0.34872,3.52396 -0.34872,3.52396"
     style="fill:none;stroke:#000000;stroke-width:1.40958107" /><path
     inkscape:connector-curvature="0"
     id="path35"
     d="m 108.19135,-196.45367 c 2.32507,1.05644 3.7213,3.1723 4.65162,4.81631"
     style="fill:none;stroke:#000000;stroke-width:0.70479053" /><path
     inkscape:connector-curvature="0"
     id="path37"
     d="m 110.16773,-190.58091 c -0.69737,1.17514 -1.51196,2.93638 -1.51196,2.93638 l -1.27901,2.93638 -0.58162,3.75987 -1.39474,3.17082 -2.67524,2.3488 -3.255384,0.11721 -2.442283,-2.23159 0.115754,-2.93638 0.464409,-2.58473 1.04754,-1.40958 0.23296,-1.76272 0.930323,-1.87993 1.511961,-1.76272 0.8131,0.1172 0.58162,1.17515 -1.16327,1.40958 -0.58162,0.82201 0.93033,0 0.81458,0.1172 1.27901,0.35168 0.34872,1.40959 -1.1618,0 -1.51196,0.1172 2.5595,1.17514 0.93033,0.35313 -0.23441,0.82647 -0.23296,0.46888 0,0.5876"
     style="fill:none;stroke:#000000;stroke-width:1.40958107" /><path
     inkscape:connector-curvature="0"
     id="path39"
     d="m 164.70813,-191.63736 -4.53589,3.64117 c 0,0 -5.11603,4.81632 -6.86094,6.34312 -1.74492,1.5268 -4.53588,3.64117 -5.69768,6.46033 -1.16179,2.81916 -2.32506,7.28383 -0.11721,8.10435 2.20934,0.82349 4.76736,1.05793 5.58195,-0.1172 0.81459,-1.17515 2.79097,-2.70195 2.79097,-2.70195"
     style="fill:none;stroke:#000000;stroke-width:1.40958107" /><path
     inkscape:connector-curvature="0"
     id="path41"
     d="m 161.91716,-191.05127 c 0,0 0.46441,-2.70194 1.6277,-2.70194 1.16327,0 2.0936,0.93922 2.20933,1.99715 0.11575,1.05793 0.11575,4.11153 0.11575,4.11153 l 0,1.17514"
     style="fill:none;stroke:#000000;stroke-width:1.40958107" /><path
     inkscape:connector-curvature="0"
     id="path43"
     d="m 165.52272,-180.59663 -0.46441,2.11438 -1.27901,1.52679 c 0,0 -3.37261,3.17082 -4.88457,4.34597"
     style="fill:none;stroke:#000000;stroke-width:1.40958107" /><ellipse
     id="ellipse45"
     ry="1.7270511"
     rx="0.99706042"
     cy="-139.73706"
     cx="-195.83159"
     style="fill:none;stroke:#000000;stroke-width:1.40953481"
     transform="matrix(-0.10250337,0.99473266,-0.99473266,-0.10250337,0,0)" /><ellipse
     id="ellipse47"
     ry="1.7270511"
     rx="0.99706042"
     cy="-148.23959"
     cx="-205.45122"
     style="fill:none;stroke:#000000;stroke-width:1.40953481"
     transform="matrix(-0.10250337,0.99473266,-0.99473266,-0.10250337,0,0)" /><path
     inkscape:connector-curvature="0"
     id="path49"
     d="m 166.72606,-177.97036 c -0.4837,0.12761 -0.82201,0.40061 -0.85762,0.74634 -0.0562,0.5475 0.66769,1.07276 1.61583,1.17218 0.94812,0.0994 1.76271,-0.2626 1.82058,-0.81014 0.0399,-0.39619 -0.32495,-0.77898 -0.8873,-0.99857"
     style="fill:none;stroke:#000000;stroke-width:1.40958107" /><path
     inkscape:connector-curvature="0"
     id="path51"
     d="m 157.38276,-168.59293 c -0.75672,0.0296 -1.35023,0.36056 -1.39771,0.82497 -0.0563,0.54751 0.66621,1.07277 1.61434,1.17218 0.94813,0.0994 1.76272,-0.26259 1.82058,-0.81014 0.0387,-0.37986 -0.29821,-0.7493 -0.82645,-0.97335"
     style="fill:none;stroke:#000000;stroke-width:1.40958107" /><path
     style="fill:#585858;fill-opacity:1;fill-rule:evenodd;stroke:#000000;stroke-width:1.40958059;stroke-linecap:butt;stroke-linejoin:miter;stroke-miterlimit:4;stroke-dasharray:none;stroke-opacity:1"
     d="m 140.84013,-367.57916 c 0,0 5.02826,4.05403 5.22092,4.978 0.19268,0.92396 2.02298,4.65102 2.62541,14.93815 0.60243,10.28712 1.50201,12.68047 1.50201,12.68047 l -0.39617,3.79086 -1.07455,2.6715 c 0,0 -0.13038,7.05797 -0.73535,8.28179 -0.60513,1.22383 -1.14917,6.08381 -1.14917,6.08381 0,0 1.77604,1.61729 1.77333,3.02696 -0.002,1.40972 -1.25637,6.21002 -1.25637,6.21002 l 1.2469,3.77455 -0.82899,1.3595 c 0,0 1.93071,2.07451 1.77333,3.02698 -0.15739,0.95246 -0.64851,3.57647 -0.64851,3.57647 l 0.99045,0.62412 c 0,0 4.34849,-1.41107 4.54114,-0.48714 0.19268,0.92398 0.82357,1.45991 -1.31742,2.57384 -2.141,1.11392 -5.00109,2.05145 -5.00109,2.05145 l -0.002,1.40971 c 0,0 0.85478,0.40029 0.22119,1.27402 -0.6336,0.87377 -1.17903,1.38799 -2.27666,0.89006 -1.09764,-0.49794 -0.86158,-1.92664 -0.86158,-1.92664 l 0.13841,-1.18582 -1.10713,-0.6146 c 0,0 -3.40281,0.042 -6.56275,0.18165 -3.15995,0.13963 -10.24912,1.06917 -10.24912,1.06917 l -1.12885,0.56168 -0.26458,1.07864 0.13298,1.63357 -1.58605,0.7164 c 0,0 -0.65262,0.64037 -1.34052,-0.59561 -0.68789,-1.23604 0.14111,-2.59553 0.14111,-2.59553 l -2.40963,-0.74333 -3.87633,-1.44631 c 0,0 -2.89536,-0.93888 -0.97825,-1.91714 1.91715,-0.97823 6.21271,-0.15361 7.03899,-0.10318 0.82627,0.0504 3.02427,-0.3636 3.88175,-1.37307 0.85747,-1.00945 2.25359,-4.05951 2.25359,-4.05951 l -0.27817,-1.9741 1.32422,-1.04745 -0.29716,-2.20747 1.32422,-1.04745 -0.35278,-8.66304 c 0,0 -1.18314,-1.54809 -1.11123,-3.5507 0.072,-2.0026 0.18726,-6.35787 0.18726,-6.35787 0,0 -0.0609,-3.63618 -0.11813,-4.33626 -0.0572,-0.7001 0.1818,-3.53851 0.1818,-3.53851 l 0.11939,-1.41918 c 0,0 -1.08135,1.14513 -1.88593,-0.0816 -0.80458,-1.22653 -1.74483,-2.67694 -1.39207,-4.11512 0.35277,-1.43818 3.0975,-8.12169 3.65512,-9.92894 0.55763,-1.80724 1.81129,-6.60754 1.81129,-6.60754 0,0 -0.80595,-5.57229 -0.72453,-7.45822 0.0816,-1.88593 0.61324,-5.45289 0.61324,-5.45289 l 0.30521,-2.0216 -2.14779,-0.41246 -0.94976,-1.56708 -0.21167,-1.15733 -0.75709,-0.64312 -0.6404,-0.6526 0.5481,-1.92392 c 0,0 -0.43551,-1.02165 -0.37584,-1.73126 0.06,-0.70958 0.57661,-1.57386 0.57661,-1.57386 l -0.10444,-1.28351 c 0,0 1.71497,-2.0189 3.11515,-2.13288 1.4002,-0.11396 3.21015,-0.96603 3.21015,-0.96603 0,0 1.46938,-0.70689 2.20748,-0.29716 0.73809,0.40974 2.99036,2.10569 3.02835,2.57244 0.0378,0.46672 -0.0816,1.88593 -0.0816,1.88593 0,0 -0.31479,1.90491 -0.50064,2.50733 -0.18585,0.60238 -0.9769,2.42863 -0.9769,2.42863 0,0 -0.16962,2.24549 0.55905,2.53854 0.72859,0.2931 1.46669,0.70282 1.70956,0.8005 z"
     id="path1364"
     inkscape:connector-curvature="0" /><path
     style="fill:none;fill-opacity:0.75;fill-rule:evenodd;stroke:#000000;stroke-width:1.40958059;stroke-linecap:butt;stroke-linejoin:miter;stroke-miterlimit:4;stroke-dasharray:none;stroke-opacity:1"
     d="m 133.19786,-341.93444 -1.68033,6.86926 -0.64455,1.82749 c 0,0 -0.38125,-1.49184 -0.21663,-2.21372 0.16462,-0.72188 0.84586,-3.37637 0.84586,-3.37637 l 1.69566,-3.10666 z"
     id="path1368"
     inkscape:connector-curvature="0" /><path
     style="fill:#dedede;fill-opacity:1;fill-rule:evenodd;stroke:#000000;stroke-width:1.40958059;stroke-linecap:butt;stroke-linejoin:miter;stroke-miterlimit:4;stroke-dasharray:none;stroke-opacity:1"
     d="m 139.01078,-308.97923 1.27417,3.40415 c 0,0 -0.86368,0.7903 -0.55083,1.58309 0.31279,0.79276 2.24048,3.66246 2.24048,3.66246 l 1.11453,1.77298 -0.55579,3.93614 0.59153,1.23602 -3.21676,0.78531 -1.43877,-2.68227 c 0,0 1.00798,-2.92173 0.51914,-3.10914 -0.4889,-0.18742 -1.78582,-3.82461 -1.78582,-3.82461 l 0.34309,-2.50376 1.46511,-4.26037 z"
     id="path1366"
     inkscape:connector-curvature="0" /><path
     style="color:#000000;clip-rule:nonzero;display:inline;overflow:visible;visibility:visible;opacity:1;isolation:auto;mix-blend-mode:normal;color-interpolation:sRGB;color-interpolation-filters:linearRGB;solid-color:#000000;solid-opacity:1;fill:none;fill-opacity:1;fill-rule:evenodd;stroke:#000000;stroke-width:5.29179907;stroke-linecap:butt;stroke-linejoin:miter;stroke-miterlimit:4;stroke-dasharray:none;stroke-dashoffset:0;stroke-opacity:1;marker:none;marker-start:none;marker-mid:none;marker-end:none;color-rendering:auto;image-rendering:auto;shape-rendering:auto;text-rendering:auto;enable-background:accumulate"
     d="M 159.84972,-285.48196 3.6373892,-271.74564"
     id="path4268"
     inkscape:connector-curvature="0" /><path
     style="color:#000000;clip-rule:nonzero;display:inline;overflow:visible;visibility:visible;opacity:1;isolation:auto;mix-blend-mode:normal;color-interpolation:sRGB;color-interpolation-filters:linearRGB;solid-color:#000000;solid-opacity:1;fill:none;fill-opacity:1;fill-rule:evenodd;stroke:#000000;stroke-width:5.29179907;stroke-linecap:butt;stroke-linejoin:miter;stroke-miterlimit:4;stroke-dasharray:none;stroke-dashoffset:0;stroke-opacity:1;marker:none;marker-start:none;marker-mid:none;marker-end:none;color-rendering:auto;image-rendering:auto;shape-rendering:auto;text-rendering:auto;enable-background:accumulate"
     d="M 162.35384,-172.0885 14.529543,75.955651"
     id="path4270"
     inkscape:connector-curvature="0" /></svg>