<?xml version="1.0" encoding="UTF-8" standalone="no"?>
<!-- Generator: Adobe Illustrator 11 Build 196, SVG Export Plug-In . SVG Version: 6.0.0 Build 78)  -->

<svg
   xmlns:dc="http://purl.org/dc/elements/1.1/"
   xmlns:cc="http://creativecommons.org/ns#"
   xmlns:rdf="http://www.w3.org/1999/02/22-rdf-syntax-ns#"
   xmlns:svg="http://www.w3.org/2000/svg"
   xmlns="http://www.w3.org/2000/svg"
   xmlns:sodipodi="http://sodipodi.sourceforge.net/DTD/sodipodi-0.dtd"
   xmlns:inkscape="http://www.inkscape.org/namespaces/inkscape"
   width="183.16"
   height="413.506"
   viewBox="0 0 183.16 413.506"
   style="overflow:visible;enable-background:new 0 0 183.16 413.506"
   xml:space="preserve"
   id="svg2"
   sodipodi:version="0.32"
   sodipodi:docname="solenoid.svg"
   version="1.1"><metadata
     id="metadata439"><rdf:RDF><cc:Work
         rdf:about=""><dc:format>image/svg+xml</dc:format><dc:type
           rdf:resource="http://purl.org/dc/dcmitype/StillImage" /></cc:Work></rdf:RDF></metadata><defs
     id="defs437"><marker
       inkscape:stockid="Arrow2Mend"
       orient="auto"
       refY="0.0"
       refX="0.0"
       id="marker4865"
       style="overflow:visible;"
       inkscape:isstock="true"><path
         id="path4867"
         style="fill-rule:evenodd;stroke-width:0.625;stroke-linejoin:round;stroke:#000000;stroke-opacity:1;fill:#000000;fill-opacity:1"
         d="M 8.7185878,4.0337352 L -2.2072895,0.016013256 L 8.7185884,-4.0017078 C 6.9730900,-1.6296469 6.9831476,1.6157441 8.7185878,4.0337352 z "
         transform="scale(0.6) rotate(180) translate(0,0)" /></marker><marker
       inkscape:isstock="true"
       style="overflow:visible;"
       id="marker4831"
       refX="0.0"
       refY="0.0"
       orient="auto"
       inkscape:stockid="Arrow2Mend"
       inkscape:collect="always"><path
         transform="scale(0.6) rotate(180) translate(0,0)"
         d="M 8.7185878,4.0337352 L -2.2072895,0.016013256 L 8.7185884,-4.0017078 C 6.9730900,-1.6296469 6.9831476,1.6157441 8.7185878,4.0337352 z "
         style="fill-rule:evenodd;stroke-width:0.625;stroke-linejoin:round;stroke:#000000;stroke-opacity:1;fill:#000000;fill-opacity:1"
         id="path4833" /></marker><marker
       inkscape:stockid="Arrow2Mend"
       orient="auto"
       refY="0.0"
       refX="0.0"
       id="Arrow2Mend"
       style="overflow:visible;"
       inkscape:isstock="true"
       inkscape:collect="always"><path
         id="path4576"
         style="fill-rule:evenodd;stroke-width:0.625;stroke-linejoin:round;stroke:#000000;stroke-opacity:1;fill:#000000;fill-opacity:1"
         d="M 8.7185878,4.0337352 L -2.2072895,0.016013256 L 8.7185884,-4.0017078 C 6.9730900,-1.6296469 6.9831476,1.6157441 8.7185878,4.0337352 z "
         transform="scale(0.6) rotate(180) translate(0,0)" /></marker></defs><sodipodi:namedview
     inkscape:cy="76.96204"
     inkscape:cx="157.15326"
     inkscape:zoom="1.5997727"
     inkscape:window-height="996"
     inkscape:window-width="1278"
     inkscape:pageshadow="2"
     inkscape:pageopacity="0.0"
     borderopacity="1.0"
     bordercolor="#666666"
     pagecolor="#ffffff"
     id="base"
     inkscape:window-x="0"
     inkscape:window-y="0"
     inkscape:current-layer="svg2"
     showgrid="false"
     inkscape:window-maximized="0" /><style
     type="text/css"
     id="style4" /><rect
     style="color:#000000;clip-rule:nonzero;display:inline;overflow:visible;visibility:visible;opacity:1;isolation:auto;mix-blend-mode:normal;color-interpolation:sRGB;color-interpolation-filters:linearRGB;solid-color:#000000;solid-opacity:1;fill:#dedede;fill-opacity:1;fill-rule:nonzero;stroke:none;stroke-width:0.875;stroke-linecap:butt;stroke-linejoin:miter;stroke-miterlimit:1;stroke-dasharray:none;stroke-dashoffset:0;stroke-opacity:1;color-rendering:auto;image-rendering:auto;shape-rendering:auto;text-rendering:auto;enable-background:accumulate"
     id="rect5031"
     width="184.25197"
     height="140.64499"
     x="-2.5003552"
     y="184.0984" /><g
     id="g4979"><path
       sodipodi:nodetypes="csc"
       inkscape:connector-curvature="0"
       id="path4463-3-3-2"
       d="m 90.435312,268.68687 c 0.278771,25.13868 0.431159,45.6323 3.745419,46.32031 8.426119,1.74914 8.213289,-59.05668 8.213289,-59.05668"
       style="color:#000000;clip-rule:nonzero;display:inline;overflow:visible;visibility:visible;opacity:1;isolation:auto;mix-blend-mode:normal;color-interpolation:sRGB;color-interpolation-filters:linearRGB;solid-color:#000000;solid-opacity:1;fill:none;fill-opacity:1;fill-rule:evenodd;stroke:#000000;stroke-width:0.875;stroke-linecap:butt;stroke-linejoin:miter;stroke-miterlimit:4;stroke-dasharray:none;stroke-dashoffset:0;stroke-opacity:1;marker:none;marker-start:none;marker-mid:none;marker-end:none;color-rendering:auto;image-rendering:auto;shape-rendering:auto;text-rendering:auto;enable-background:accumulate" /><path
       sodipodi:nodetypes="csc"
       inkscape:connector-curvature="0"
       id="path4463-56-9"
       d="m 90.417696,241.56096 c 0.278771,-25.13868 0.431159,-45.6323 3.745419,-46.3203 8.426115,-1.74914 8.231125,60.79573 8.231125,60.79573"
       style="color:#000000;clip-rule:nonzero;display:inline;overflow:visible;visibility:visible;opacity:1;isolation:auto;mix-blend-mode:normal;color-interpolation:sRGB;color-interpolation-filters:linearRGB;solid-color:#000000;solid-opacity:1;fill:none;fill-opacity:1;fill-rule:evenodd;stroke:#000000;stroke-width:0.875;stroke-linecap:butt;stroke-linejoin:miter;stroke-miterlimit:4;stroke-dasharray:none;stroke-dashoffset:0;stroke-opacity:1;marker:none;marker-start:none;marker-mid:none;marker-end:none;color-rendering:auto;image-rendering:auto;shape-rendering:auto;text-rendering:auto;enable-background:accumulate" /><path
       sodipodi:nodetypes="csc"
       inkscape:connector-curvature="0"
       id="path4463-3"
       d="m 73.079546,269.25549 c -1.112763,25.04722 -1.721044,45.46627 -14.950478,46.15177 -33.634291,1.74278 -32.784763,-58.8418 -32.784763,-58.8418"
       style="color:#000000;clip-rule:nonzero;display:inline;overflow:visible;visibility:visible;opacity:1;isolation:auto;mix-blend-mode:normal;color-interpolation:sRGB;color-interpolation-filters:linearRGB;solid-color:#000000;solid-opacity:1;fill:none;fill-opacity:1;fill-rule:evenodd;stroke:#000000;stroke-width:0.875;stroke-linecap:butt;stroke-linejoin:miter;stroke-miterlimit:4;stroke-dasharray:none;stroke-dashoffset:0;stroke-opacity:1;marker:none;marker-start:none;marker-mid:none;marker-end:none;color-rendering:auto;image-rendering:auto;shape-rendering:auto;text-rendering:auto;enable-background:accumulate" /><path
       sodipodi:nodetypes="csc"
       inkscape:connector-curvature="0"
       id="path4463-3-7"
       d="m 103.78952,269.09663 c 1.11277,25.04722 1.72105,45.46627 14.95048,46.15177 33.63429,1.74278 32.78476,-58.8418 32.78476,-58.8418"
       style="color:#000000;clip-rule:nonzero;display:inline;overflow:visible;visibility:visible;opacity:1;isolation:auto;mix-blend-mode:normal;color-interpolation:sRGB;color-interpolation-filters:linearRGB;solid-color:#000000;solid-opacity:1;fill:none;fill-opacity:1;fill-rule:evenodd;stroke:#000000;stroke-width:0.875;stroke-linecap:butt;stroke-linejoin:miter;stroke-miterlimit:4;stroke-dasharray:none;stroke-dashoffset:0;stroke-opacity:1;marker:none;marker-start:none;marker-mid:none;marker-end:none;color-rendering:auto;image-rendering:auto;shape-rendering:auto;text-rendering:auto;enable-background:accumulate" /><g
       id="g4459"><path
         style="opacity:1;fill:#dedede;fill-opacity:1;stroke:#000000;stroke-width:0.5;stroke-linejoin:miter;stroke-miterlimit:4;stroke-dasharray:none;stroke-dashoffset:0;stroke-opacity:1"
         id="path4449"
         d="m 129.62836,261.22863 c 0.014,-0.41634 0.01,-0.83308 0.009,-1.24959 0.003,-0.44259 5.3e-4,-0.8852 -8.3e-4,-1.32779 0.002,-0.38421 -0.0487,-0.76171 0.1074,-1.12063 0.27099,-0.36214 0.48634,-0.74794 0.6425,-1.17306 0.19632,-0.48329 0.46891,-0.93222 0.73386,-1.38034 0.28584,-0.39763 0.61188,-0.75961 0.93572,-1.12566 0.21028,-0.3175 0.44293,-0.61642 0.6629,-0.92658 0.25702,-0.3338 0.5437,-0.62159 0.88436,-0.86851 0.34395,-0.21668 0.59279,-0.53153 0.86452,-0.8248 0.25747,-0.3852 0.60586,-0.67967 0.94478,-0.98713 0.3643,-0.30248 0.79658,-0.50282 1.16932,-0.79279 0.35138,-0.29914 0.7731,-0.50913 1.10961,-0.82419 0.23893,-0.28573 0.54338,-0.44936 0.86247,-0.62903 0.45152,-0.24715 0.94036,-0.41193 1.40544,-0.63003 0.50928,-0.28093 1.02495,-0.54505 1.58183,-0.71605 0.43565,-0.15317 0.88029,-0.26607 1.3395,-0.31401 0.53452,-0.0277 1.06794,-0.0259 1.60118,-0.0754 0.57498,-0.0969 1.14587,-0.20719 1.72563,-0.27331 0.45004,-0.0243 0.89557,-0.0759 1.34267,-0.13018 0.64288,-0.10249 1.2863,-0.19927 1.92422,-0.3299 0.62177,-0.18779 1.25204,-0.34158 1.88458,-0.48771 0.57482,-0.17517 1.16305,-0.26973 1.75539,-0.35837 0.58455,-0.10795 1.17775,-0.14174 1.76303,-0.24408 0.53742,-0.0993 1.08318,-0.12438 1.62791,-0.14779 0.52367,-0.013 1.04752,-0.013 1.57132,-0.0172 0.41329,-0.002 0.82661,-0.007 1.23989,-0.002 0.548,0.0119 1.09613,0.009 1.6442,0.0106 0.48614,0.0222 0.96784,0.0945 1.45254,0.13515 0.0652,0.004 0.13033,0.009 0.19549,0.0128 0,0 1.21406,2.42076 1.21406,2.42076 l 0,0 c -0.0671,-0.004 -0.1343,-0.008 -0.20145,-0.0126 -0.48301,-0.0406 -0.96126,-0.11692 -1.44323,-0.16684 -0.54463,0.002 -1.08931,-0.001 -1.63387,0.0101 -0.41454,0.005 -0.82909,-0.002 -1.24363,-0.005 -0.52227,-0.005 -1.04463,-0.007 -1.5668,0.006 -0.53424,0.0127 -1.06887,0.0408 -1.59648,0.13137 -0.5886,0.0936 -1.18288,0.12969 -1.77017,0.23353 -0.58319,0.10118 -1.17304,0.16826 -1.73924,0.35213 -0.63583,0.14339 -1.27306,0.2814 -1.89657,0.47353 -0.63903,0.14147 -1.28554,0.23956 -1.92661,0.37041 -0.45031,0.0643 -0.89547,0.13339 -1.35224,0.13036 -0.58222,0.0495 -1.157,0.14603 -1.7293,0.26361 -0.53008,0.0614 -1.05858,0.0735 -1.59145,0.0959 -0.44439,0.0433 -0.8804,0.12873 -1.30243,0.27862 -0.54882,0.15116 -1.05256,0.41089 -1.54924,0.68598 -0.45531,0.21999 -0.92836,0.40097 -1.37199,0.64451 -0.29687,0.17708 -0.57887,0.34654 -0.81607,0.60367 -0.35924,0.2985 -0.77673,0.51868 -1.13428,0.82088 -0.37403,0.27681 -0.78763,0.49663 -1.14536,0.79502 -0.34069,0.28974 -0.66218,0.59122 -0.92004,0.96096 -0.27049,0.32432 -0.55569,0.62582 -0.91092,0.86136 -0.31764,0.23518 -0.57551,0.51234 -0.80985,0.8313 -0.23346,0.30902 -0.44909,0.62972 -0.68917,0.93349 -0.31436,0.34986 -0.64331,0.68717 -0.89823,1.0857 -0.25701,0.43977 -0.51773,0.88038 -0.69812,1.35863 -0.17462,0.41402 -0.39977,0.7967 -0.61705,1.18702 -0.0773,0.34723 -0.0263,0.70667 -0.0418,1.05975 -0.001,0.44183 -0.004,0.88369 -8.2e-4,1.32552 -0.001,0.42474 -0.005,0.84969 0.009,1.27427 0,0 -1.60706,-2.21193 -1.60706,-2.21193 z"
         inkscape:connector-curvature="0" /><path
         style="color:#000000;clip-rule:nonzero;display:inline;overflow:visible;visibility:visible;opacity:1;isolation:auto;mix-blend-mode:normal;color-interpolation:sRGB;color-interpolation-filters:linearRGB;solid-color:#000000;solid-opacity:1;fill:#dcdcdc;fill-opacity:1;fill-rule:evenodd;stroke:none;stroke-width:0.875;stroke-linecap:butt;stroke-linejoin:miter;stroke-miterlimit:4;stroke-dasharray:none;stroke-dashoffset:0;stroke-opacity:1;marker:none;marker-start:none;marker-mid:none;marker-end:none;color-rendering:auto;image-rendering:auto;shape-rendering:auto;text-rendering:auto;enable-background:accumulate"
         d="m 161.87381,244.60714 0.74339,1.78414 2.11867,0.22302 -0.8549,-2.00716 z"
         id="path4453"
         inkscape:connector-curvature="0" /></g><path
       id="path138"
       d="m 130.05608,243.83768 c -0.417,0.719 -1.333,0.969 -2.052,0.552 -0.719,-0.406 -0.969,-1.323 -0.552,-2.042 0.208,-0.989 0.656,-1.958 0.51,-2.979 -0.229,-1.656 -1.125,-3.146 -2.24,-4.396 -0.948,-1.062 -1.823,-2.083 -3.042,-2.896 -3.51,-2.333 -7.208,-3.583 -11.042,-4.771 -5.958,-0.896 -11.832997,-2.521 -17.905997,-2.135 -0.569,-0.176 -0.848,-0.092 -1.417,-0.094 -0.562,0.188 -1.125,0.188 -1.917,0.177 -3.156,0.458 -6.281,0.052 -9.479,0.427 -0.761,0.083 -1.558,0.056 -2.292,0.146 -3.062,0.375 -3.812,0.625 -7.239,1.312 -3.157,0.634 -6.156,1.375 -9.261,2 -4.25,1.688 -8.812,3.511 -11.281,7.615 0.021,0.01 0.042,0.021 0.062,0.031 -0.323,0.761 -1.198,1.125 -1.969,0.802 -0.76,-0.323 -1.125,-1.198 -0.802,-1.969 2.146,-4.062 6.146,-6.635 10.385,-8.177 0.312,-0.115 0.552,-0.354 0.865,-0.469 3.583,-1.302 7.333,-1.885 11.052,-2.573 3.5,-0.823 6.625,-1.323 10.49,-1.698 2.948,-0.188 5.882,-0.126 8.892,-0.389 0.245,-0.174 0.731,-0.049 1.056,-0.049 0.636,-0.052 1.156,-0.208 1.812,-0.125 0.5,0.073 0.854,0.011 1.323,0.032 1.812,0.104 3.614,-0.052 5.427,0.083 4.489997,0.354 8.655997,1.385 13.207997,2.26 1.052,0.198 2.021,0.49 2.99,0.938 2.031,0.927 4.104,1.583 6.125,2.552 2.781,1.323 4.948,3.302 6.833,5.76 1.115,1.458 1.979,2.979 2.323,4.802 0.344,1.823 -0.216,3.627 -0.862,5.273 z"
       style="fill:#dcdcdc;stroke:#000000;stroke-width:0.5"
       inkscape:connector-curvature="0" /><path
       id="path140"
       d="m 130.05608,247.52268 c -0.417,0.719 -1.333,0.969 -2.052,0.552 -0.719,-0.406 -0.969,-1.323 -0.552,-2.042 0.208,-0.989 0.656,-1.958 0.51,-2.979 -0.229,-1.656 -1.125,-3.146 -2.24,-4.396 -0.948,-1.062 -1.823,-2.083 -3.042,-2.896 -3.51,-2.333 -7.208,-3.583 -11.042,-4.771 -5.958,-0.896 -11.832997,-2.521 -17.905997,-2.135 -0.569,-0.176 -0.848,-0.092 -1.417,-0.094 -0.562,0.188 -1.125,0.188 -1.917,0.177 -3.156,0.458 -6.281,0.052 -9.479,0.427 -0.761,0.083 -1.558,0.056 -2.292,0.146 -3.062,0.375 -3.812,0.625 -7.239,1.312 -3.157,0.633 -6.156,1.375 -9.261,2 -4.25,1.688 -8.812,3.51 -11.281,7.614 0.021,0.011 0.042,0.021 0.062,0.031 -0.323,0.761 -1.198,1.125 -1.969,0.802 -0.76,-0.323 -1.125,-1.198 -0.802,-1.969 2.146,-4.062 6.146,-6.635 10.385,-8.177 0.312,-0.114 0.552,-0.354 0.865,-0.469 3.583,-1.302 7.333,-1.885 11.052,-2.573 3.5,-0.823 6.625,-1.323 10.49,-1.698 2.948,-0.188 5.882,-0.127 8.892,-0.389 0.245,-0.174 0.731,-0.048 1.056,-0.048 0.636,-0.052 1.156,-0.208 1.812,-0.125 0.5,0.073 0.854,0.01 1.323,0.031 1.812,0.104 3.614,-0.052 5.427,0.083 4.489997,0.354 8.655997,1.386 13.207997,2.261 1.052,0.198 2.021,0.489 2.99,0.938 2.031,0.927 4.104,1.583 6.125,2.552 2.781,1.323 4.948,3.302 6.833,5.761 1.115,1.458 1.979,2.979 2.323,4.802 0.347,1.824 -0.216,3.626 -0.862,5.272 z"
       style="fill:#dcdcdc;stroke:#000000;stroke-width:0.5"
       inkscape:connector-curvature="0" /><path
       id="path142"
       d="m 130.05608,251.20768 c -0.417,0.719 -1.333,0.969 -2.052,0.552 -0.719,-0.406 -0.969,-1.323 -0.552,-2.042 0.208,-0.989 0.656,-1.958 0.51,-2.979 -0.229,-1.656 -1.125,-3.146 -2.24,-4.396 -0.948,-1.062 -1.823,-2.083 -3.042,-2.896 -3.51,-2.333 -7.208,-3.583 -11.042,-4.771 -5.958,-0.896 -11.832997,-2.521 -17.905997,-2.135 -0.569,-0.176 -0.848,-0.092 -1.417,-0.094 -0.562,0.188 -1.125,0.188 -1.917,0.177 -3.156,0.458 -6.281,0.052 -9.479,0.427 -0.761,0.083 -1.558,0.056 -2.292,0.146 -3.062,0.375 -3.812,0.625 -7.239,1.312 -3.157,0.633 -6.156,1.375 -9.261,2 -4.25,1.688 -8.812,3.511 -11.281,7.615 0.021,0.01 0.042,0.021 0.062,0.031 -0.323,0.761 -1.198,1.125 -1.969,0.802 -0.76,-0.323 -1.125,-1.198 -0.802,-1.969 2.146,-4.062 6.146,-6.635 10.385,-8.177 0.312,-0.115 0.552,-0.354 0.865,-0.469 3.583,-1.302 7.333,-1.885 11.052,-2.573 3.5,-0.823 6.625,-1.323 10.49,-1.698 2.948,-0.188 5.882,-0.126 8.892,-0.389 0.245,-0.174 0.731,-0.049 1.056,-0.049 0.636,-0.052 1.156,-0.208 1.812,-0.125 0.5,0.073 0.854,0.011 1.323,0.032 1.812,0.104 3.614,-0.052 5.427,0.083 4.489997,0.354 8.655997,1.385 13.207997,2.26 1.052,0.198 2.021,0.49 2.99,0.938 2.031,0.927 4.104,1.583 6.125,2.552 2.781,1.323 4.948,3.302 6.833,5.76 1.115,1.458 1.979,2.979 2.323,4.802 0.344,1.823 -0.216,3.627 -0.862,5.273 z"
       style="fill:#dcdcdc;stroke:#000000;stroke-width:0.5"
       inkscape:connector-curvature="0" /><path
       id="path144"
       d="m 130.05608,254.89268 c -0.417,0.719 -1.333,0.969 -2.052,0.552 -0.719,-0.407 -0.969,-1.323 -0.552,-2.042 0.208,-0.99 0.656,-1.958 0.51,-2.979 -0.229,-1.656 -1.125,-3.146 -2.24,-4.396 -0.948,-1.062 -1.823,-2.083 -3.042,-2.896 -3.51,-2.333 -7.208,-3.583 -11.042,-4.771 -5.958,-0.896 -11.832997,-2.521 -17.905997,-2.136 -0.569,-0.176 -0.848,-0.091 -1.417,-0.093 -0.562,0.188 -1.125,0.188 -1.917,0.177 -3.156,0.458 -6.281,0.052 -9.479,0.427 -0.761,0.083 -1.558,0.056 -2.292,0.146 -3.062,0.375 -3.812,0.625 -7.239,1.312 -3.157,0.633 -6.156,1.375 -9.261,2 -4.25,1.688 -8.812,3.51 -11.281,7.614 0.021,0.011 0.042,0.021 0.062,0.031 -0.323,0.76 -1.198,1.125 -1.969,0.802 -0.76,-0.323 -1.125,-1.198 -0.802,-1.969 2.146,-4.062 6.146,-6.636 10.385,-8.177 0.312,-0.114 0.552,-0.354 0.865,-0.469 3.583,-1.302 7.333,-1.885 11.052,-2.573 3.5,-0.823 6.625,-1.323 10.49,-1.698 2.948,-0.188 5.882,-0.127 8.892,-0.389 0.245,-0.174 0.731,-0.048 1.056,-0.048 0.636,-0.052 1.156,-0.208 1.812,-0.125 0.5,0.073 0.854,0.01 1.323,0.031 1.812,0.104 3.614,-0.052 5.427,0.083 4.489997,0.354 8.655997,1.386 13.207997,2.261 1.052,0.198 2.021,0.489 2.99,0.938 2.031,0.927 4.104,1.583 6.125,2.552 2.781,1.323 4.948,3.302 6.833,5.761 1.115,1.458 1.979,2.979 2.323,4.802 0.347,1.824 -0.216,3.626 -0.862,5.272 z"
       style="fill:#dcdcdc;stroke:#000000;stroke-width:0.5"
       inkscape:connector-curvature="0" /><path
       id="path146"
       d="m 130.05608,258.57768 c -0.417,0.719 -1.333,0.969 -2.052,0.552 -0.719,-0.406 -0.969,-1.323 -0.552,-2.042 0.208,-0.989 0.656,-1.958 0.51,-2.979 -0.229,-1.656 -1.125,-3.146 -2.24,-4.396 -0.948,-1.062 -1.823,-2.083 -3.042,-2.896 -3.51,-2.333 -7.208,-3.583 -11.042,-4.771 -5.958,-0.896 -11.832997,-2.521 -17.905997,-2.136 -0.569,-0.176 -0.848,-0.091 -1.417,-0.094 -0.562,0.188 -1.125,0.188 -1.917,0.177 -3.156,0.458 -6.281,0.052 -9.479,0.427 -0.761,0.083 -1.558,0.056 -2.292,0.146 -3.062,0.375 -3.812,0.625 -7.239,1.312 -3.157,0.633 -6.156,1.375 -9.261,2 -4.25,1.688 -8.812,3.511 -11.281,7.615 0.021,0.01 0.042,0.021 0.062,0.031 -0.323,0.76 -1.198,1.125 -1.969,0.802 -0.76,-0.323 -1.125,-1.198 -0.802,-1.969 2.146,-4.062 6.146,-6.635 10.385,-8.177 0.312,-0.115 0.552,-0.354 0.865,-0.469 3.583,-1.302 7.333,-1.885 11.052,-2.573 3.5,-0.823 6.625,-1.323 10.49,-1.698 2.948,-0.188 5.882,-0.126 8.892,-0.389 0.245,-0.174 0.731,-0.049 1.056,-0.049 0.636,-0.052 1.156,-0.208 1.812,-0.125 0.5,0.073 0.854,0.011 1.323,0.031 1.812,0.104 3.614,-0.052 5.427,0.083 4.489997,0.354 8.655997,1.385 13.207997,2.26 1.052,0.198 2.021,0.49 2.99,0.938 2.031,0.927 4.104,1.583 6.125,2.552 2.781,1.323 4.948,3.302 6.833,5.76 1.115,1.458 1.979,2.979 2.323,4.802 0.344,1.823 -0.216,3.629 -0.862,5.275 z"
       style="fill:#dcdcdc;stroke:#000000;stroke-width:0.5"
       inkscape:connector-curvature="0" /><path
       id="path148"
       d="m 130.05608,262.26268 c -0.417,0.719 -1.333,0.969 -2.052,0.552 -0.719,-0.407 -0.969,-1.323 -0.552,-2.042 0.208,-0.99 0.656,-1.958 0.51,-2.979 -0.229,-1.656 -1.125,-3.146 -2.24,-4.396 -0.948,-1.062 -1.823,-2.083 -3.042,-2.896 -3.51,-2.333 -7.208,-3.583 -11.042,-4.771 -5.958,-0.896 -11.832997,-2.521 -17.905997,-2.136 -0.569,-0.176 -0.848,-0.091 -1.417,-0.093 -0.562,0.188 -1.125,0.188 -1.917,0.177 -3.156,0.458 -6.281,0.052 -9.479,0.427 -0.761,0.083 -1.558,0.056 -2.292,0.146 -3.062,0.375 -3.812,0.625 -7.239,1.312 -3.157,0.633 -6.156,1.375 -9.261,2 -4.25,1.688 -8.812,3.51 -11.281,7.614 0.021,0.011 0.042,0.021 0.062,0.031 -0.323,0.76 -1.198,1.125 -1.969,0.802 -0.76,-0.323 -1.125,-1.198 -0.802,-1.969 2.146,-4.062 6.146,-6.636 10.385,-8.177 0.312,-0.114 0.552,-0.354 0.865,-0.469 3.583,-1.302 7.333,-1.885 11.052,-2.573 3.5,-0.823 6.625,-1.323 10.49,-1.698 2.948,-0.188 5.882,-0.127 8.892,-0.389 0.245,-0.174 0.731,-0.048 1.056,-0.048 0.636,-0.052 1.156,-0.208 1.812,-0.125 0.5,0.073 0.854,0.01 1.323,0.031 1.812,0.104 3.614,-0.052 5.427,0.083 4.489997,0.354 8.655997,1.386 13.207997,2.261 1.052,0.198 2.021,0.489 2.99,0.938 2.031,0.927 4.104,1.583 6.125,2.552 2.781,1.323 4.948,3.302 6.833,5.761 1.115,1.458 1.979,2.979 2.323,4.802 0.347,1.824 -0.216,3.626 -0.862,5.272 z"
       style="fill:#dcdcdc;stroke:#000000;stroke-width:0.5"
       inkscape:connector-curvature="0" /><path
       id="path150"
       d="m 130.05608,265.94768 c -0.417,0.719 -1.333,0.969 -2.052,0.552 -0.719,-0.406 -0.969,-1.323 -0.552,-2.042 0.208,-0.99 0.656,-1.958 0.51,-2.979 -0.229,-1.656 -1.125,-3.146 -2.24,-4.396 -0.948,-1.062 -1.823,-2.083 -3.042,-2.896 -3.51,-2.333 -7.208,-3.583 -11.042,-4.771 -5.958,-0.896 -11.832997,-2.521 -17.905997,-2.136 -0.569,-0.176 -0.848,-0.092 -1.417,-0.094 -0.562,0.188 -1.125,0.188 -1.917,0.177 -3.156,0.458 -6.281,0.052 -9.479,0.427 -0.761,0.083 -1.558,0.056 -2.292,0.146 -3.062,0.375 -3.812,0.625 -7.239,1.312 -3.157,0.633 -6.156,1.375 -9.261,2 -4.25,1.688 -8.812,3.511 -11.281,7.615 0.021,0.01 0.042,0.021 0.062,0.031 -0.323,0.76 -1.198,1.125 -1.969,0.802 -0.76,-0.323 -1.125,-1.198 -0.802,-1.969 2.146,-4.062 6.146,-6.636 10.385,-8.177 0.312,-0.115 0.552,-0.354 0.865,-0.469 3.583,-1.302 7.333,-1.885 11.052,-2.573 3.5,-0.823 6.625,-1.323 10.49,-1.698 2.948,-0.188 5.882,-0.126 8.892,-0.389 0.245,-0.174 0.731,-0.049 1.056,-0.049 0.636,-0.052 1.156,-0.208 1.812,-0.125 0.5,0.073 0.854,0.011 1.323,0.031 1.812,0.104 3.614,-0.052 5.427,0.083 4.489997,0.354 8.655997,1.385 13.207997,2.26 1.052,0.198 2.021,0.49 2.99,0.938 2.031,0.927 4.104,1.583 6.125,2.552 2.781,1.323 4.948,3.302 6.833,5.76 1.115,1.458 1.979,2.979 2.323,4.802 0.344,1.823 -0.216,3.629 -0.862,5.275 z"
       style="fill:#dcdcdc;stroke:#000000;stroke-width:0.5"
       inkscape:connector-curvature="0" /><path
       id="path152"
       d="m 130.05608,269.63268 c -0.417,0.719 -1.333,0.969 -2.052,0.552 -0.719,-0.406 -0.969,-1.323 -0.552,-2.042 0.208,-0.99 0.656,-1.958 0.51,-2.979 -0.229,-1.656 -1.125,-3.146 -2.24,-4.396 -0.948,-1.062 -1.823,-2.083 -3.042,-2.896 -3.51,-2.333 -7.208,-3.583 -11.042,-4.771 -5.958,-0.896 -11.832997,-2.521 -17.905997,-2.136 -0.569,-0.176 -0.848,-0.091 -1.417,-0.094 -0.562,0.188 -1.125,0.188 -1.917,0.177 -3.156,0.458 -6.281,0.052 -9.479,0.427 -0.761,0.083 -1.558,0.056 -2.292,0.146 -3.062,0.375 -3.812,0.625 -7.239,1.312 -3.157,0.633 -6.156,1.375 -9.261,2 -4.25,1.688 -8.812,3.511 -11.281,7.615 0.021,0.01 0.042,0.021 0.062,0.031 -0.323,0.76 -1.198,1.125 -1.969,0.802 -0.76,-0.323 -1.125,-1.198 -0.802,-1.969 2.146,-4.062 6.146,-6.636 10.385,-8.177 0.312,-0.115 0.552,-0.354 0.865,-0.469 3.583,-1.302 7.333,-1.885 11.052,-2.573 3.5,-0.823 6.625,-1.323 10.49,-1.698 2.948,-0.188 5.882,-0.126 8.892,-0.389 0.245,-0.174 0.731,-0.049 1.056,-0.049 0.636,-0.052 1.156,-0.208 1.812,-0.125 0.5,0.073 0.854,0.011 1.323,0.031 1.812,0.104 3.614,-0.052 5.427,0.083 4.489997,0.354 8.655997,1.385 13.207997,2.26 1.052,0.198 2.021,0.49 2.99,0.938 2.031,0.927 4.104,1.583 6.125,2.552 2.781,1.323 4.948,3.302 6.833,5.76 1.115,1.458 1.979,2.979 2.323,4.802 0.344,1.823 -0.216,3.629 -0.862,5.275 z"
       style="fill:#dcdcdc;stroke:#000000;stroke-width:0.5"
       inkscape:connector-curvature="0" /><path
       id="path154"
       d="m 130.05608,273.31768 c -0.417,0.719 -1.333,0.969 -2.052,0.552 -0.719,-0.406 -0.969,-1.323 -0.552,-2.042 0.208,-0.99 0.656,-1.958 0.51,-2.979 -0.229,-1.656 -1.125,-3.146 -2.24,-4.396 -0.948,-1.062 -1.823,-2.083 -3.042,-2.896 -3.51,-2.333 -7.208,-3.583 -11.042,-4.771 -5.958,-0.896 -11.832997,-2.521 -17.905997,-2.136 -0.569,-0.176 -0.848,-0.092 -1.417,-0.094 -0.562,0.188 -1.125,0.188 -1.917,0.177 -3.156,0.458 -6.281,0.052 -9.479,0.427 -0.761,0.083 -1.558,0.056 -2.292,0.146 -3.062,0.375 -3.812,0.625 -7.239,1.312 -3.157,0.633 -6.156,1.375 -9.261,2 -4.25,1.688 -8.812,3.511 -11.281,7.615 0.021,0.01 0.042,0.021 0.062,0.031 -0.323,0.76 -1.198,1.125 -1.969,0.802 -0.76,-0.323 -1.125,-1.198 -0.802,-1.969 2.146,-4.062 6.146,-6.636 10.385,-8.177 0.312,-0.115 0.552,-0.354 0.865,-0.469 3.583,-1.302 7.333,-1.885 11.052,-2.573 3.5,-0.823 6.625,-1.323 10.49,-1.698 2.948,-0.188 5.882,-0.126 8.892,-0.389 0.245,-0.174 0.731,-0.049 1.056,-0.049 0.636,-0.052 1.156,-0.208 1.812,-0.125 0.5,0.073 0.854,0.011 1.323,0.031 1.812,0.104 3.614,-0.052 5.427,0.083 4.489997,0.354 8.655997,1.385 13.207997,2.26 1.052,0.198 2.021,0.49 2.99,0.938 2.031,0.927 4.104,1.583 6.125,2.552 2.781,1.323 4.948,3.302 6.833,5.76 1.115,1.458 1.979,2.979 2.323,4.802 0.344,1.823 -0.216,3.629 -0.862,5.275 z"
       style="fill:#dcdcdc;stroke:#000000;stroke-width:0.5"
       inkscape:connector-curvature="0" /><path
       id="path156"
       d="m 130.02708,265.54968 c -0.417,-0.719 -1.333,-0.969 -2.052,-0.552 -0.719,0.406 -0.969,1.323 -0.552,2.042 0.208,0.99 0.656,1.958 0.511,2.979 -0.229,1.656 -1.125,3.146 -2.24,4.396 -0.948,1.062 -1.823,2.083 -3.042,2.896 -3.511,2.333 -7.208,3.583 -11.042,4.771 -5.958,0.896 -11.832997,2.521 -17.905997,2.136 -0.569,0.176 -0.848,0.092 -1.417,0.094 -0.562,-0.188 -1.125,-0.188 -1.917,-0.177 -3.156,-0.458 -6.281,-0.052 -9.479,-0.427 -0.76,-0.083 -1.558,-0.056 -2.292,-0.146 -3.062,-0.375 -3.812,-0.625 -7.24,-1.312 -3.156,-0.633 -6.156,-1.375 -9.26,-2 -4.25,-1.688 -8.812,-3.511 -11.281,-7.615 0.021,-0.01 0.042,-0.021 0.062,-0.031 -0.323,-0.76 -1.198,-1.125 -1.969,-0.802 -0.76,0.323 -1.125,1.198 -0.802,1.969 2.146,4.062 6.146,6.636 10.386,8.177 0.312,0.115 0.552,0.354 0.864,0.469 3.583,1.302 7.333,1.885 11.052,2.573 3.5,0.823 6.625,1.323 10.49,1.698 2.948,0.188 5.882,0.126 8.892,0.389 0.245,0.174 0.73,0.049 1.056,0.049 0.635,0.052 1.156,0.208 1.812,0.125 0.5,-0.073 0.854,-0.011 1.323,-0.031 1.812,-0.104 3.615,0.052 5.427,-0.083 4.489997,-0.354 8.655997,-1.385 13.207997,-2.26 1.052,-0.198 2.021,-0.49 2.989,-0.938 2.031,-0.927 4.104,-1.583 6.125,-2.552 2.781,-1.323 4.948,-3.302 6.833,-5.76 1.115,-1.458 1.979,-2.979 2.323,-4.802 0.344,-1.823 -0.217,-3.629 -0.862,-5.275 z"
       style="fill:#dcdcdc;stroke:#000000;stroke-width:0.5"
       inkscape:connector-curvature="0" /><path
       id="path158"
       d="m 130.02708,261.86468 c -0.417,-0.719 -1.333,-0.969 -2.052,-0.552 -0.719,0.406 -0.969,1.323 -0.552,2.042 0.208,0.99 0.656,1.958 0.511,2.979 -0.229,1.656 -1.125,3.146 -2.24,4.396 -0.948,1.062 -1.823,2.083 -3.042,2.896 -3.511,2.333 -7.208,3.583 -11.042,4.771 -5.958,0.896 -11.832997,2.521 -17.905997,2.136 -0.569,0.176 -0.848,0.092 -1.417,0.094 -0.562,-0.188 -1.125,-0.188 -1.917,-0.177 -3.156,-0.458 -6.281,-0.052 -9.479,-0.427 -0.76,-0.083 -1.558,-0.056 -2.292,-0.146 -3.062,-0.375 -3.812,-0.625 -7.24,-1.312 -3.156,-0.633 -6.156,-1.375 -9.26,-2 -4.25,-1.688 -8.812,-3.511 -11.281,-7.615 0.021,-0.01 0.042,-0.021 0.062,-0.031 -0.323,-0.76 -1.198,-1.125 -1.969,-0.802 -0.76,0.323 -1.125,1.198 -0.802,1.969 2.146,4.062 6.146,6.636 10.386,8.177 0.312,0.115 0.552,0.354 0.864,0.469 3.583,1.302 7.333,1.885 11.052,2.573 3.5,0.823 6.625,1.323 10.49,1.698 2.948,0.188 5.882,0.127 8.892,0.389 0.245,0.174 0.73,0.049 1.056,0.049 0.635,0.052 1.156,0.208 1.812,0.125 0.5,-0.073 0.854,-0.011 1.323,-0.031 1.812,-0.104 3.615,0.052 5.427,-0.083 4.489997,-0.354 8.655997,-1.385 13.207997,-2.26 1.052,-0.198 2.021,-0.49 2.989,-0.938 2.031,-0.927 4.104,-1.583 6.125,-2.552 2.781,-1.323 4.948,-3.302 6.833,-5.76 1.115,-1.458 1.979,-2.979 2.323,-4.802 0.344,-1.823 -0.217,-3.629 -0.862,-5.275 z"
       style="fill:#dcdcdc;stroke:#000000;stroke-width:0.5"
       inkscape:connector-curvature="0" /><path
       id="path160"
       d="m 130.02708,258.17968 c -0.417,-0.719 -1.333,-0.969 -2.052,-0.552 -0.719,0.406 -0.969,1.323 -0.552,2.042 0.208,0.99 0.656,1.958 0.511,2.979 -0.229,1.656 -1.125,3.146 -2.24,4.396 -0.948,1.062 -1.823,2.083 -3.042,2.896 -3.511,2.333 -7.208,3.583 -11.042,4.771 -5.958,0.896 -11.832997,2.521 -17.905997,2.136 -0.569,0.176 -0.848,0.092 -1.417,0.094 -0.562,-0.188 -1.125,-0.188 -1.917,-0.177 -3.156,-0.458 -6.281,-0.052 -9.479,-0.427 -0.76,-0.083 -1.558,-0.056 -2.292,-0.146 -3.062,-0.375 -3.812,-0.625 -7.24,-1.312 -3.156,-0.633 -6.156,-1.375 -9.26,-2 -4.25,-1.688 -8.812,-3.511 -11.281,-7.615 0.021,-0.01 0.042,-0.021 0.062,-0.031 -0.323,-0.76 -1.198,-1.125 -1.969,-0.802 -0.76,0.323 -1.125,1.198 -0.802,1.969 2.146,4.062 6.146,6.636 10.386,8.177 0.312,0.115 0.552,0.354 0.864,0.469 3.583,1.302 7.333,1.885 11.052,2.573 3.5,0.823 6.625,1.323 10.49,1.698 2.948,0.188 5.882,0.126 8.892,0.389 0.245,0.174 0.73,0.049 1.056,0.049 0.635,0.052 1.156,0.208 1.812,0.125 0.5,-0.073 0.854,-0.011 1.323,-0.031 1.812,-0.104 3.615,0.052 5.427,-0.083 4.489997,-0.354 8.655997,-1.385 13.207997,-2.26 1.052,-0.198 2.021,-0.49 2.989,-0.938 2.031,-0.927 4.104,-1.583 6.125,-2.552 2.781,-1.323 4.948,-3.302 6.833,-5.76 1.115,-1.458 1.979,-2.979 2.323,-4.802 0.344,-1.823 -0.217,-3.629 -0.862,-5.275 z"
       style="fill:#dcdcdc;stroke:#000000;stroke-width:0.5"
       inkscape:connector-curvature="0" /><path
       id="path162"
       d="m 130.02708,254.49468 c -0.417,-0.719 -1.333,-0.969 -2.052,-0.552 -0.719,0.406 -0.969,1.323 -0.552,2.042 0.208,0.99 0.656,1.958 0.511,2.979 -0.229,1.656 -1.125,3.146 -2.24,4.396 -0.948,1.062 -1.823,2.083 -3.042,2.896 -3.511,2.333 -7.208,3.583 -11.042,4.771 -5.958,0.896 -11.832997,2.521 -17.905997,2.136 -0.569,0.176 -0.848,0.092 -1.417,0.094 -0.562,-0.188 -1.125,-0.188 -1.917,-0.177 -3.156,-0.458 -6.281,-0.052 -9.479,-0.427 -0.76,-0.083 -1.558,-0.056 -2.292,-0.146 -3.062,-0.375 -3.812,-0.625 -7.24,-1.312 -3.156,-0.633 -6.156,-1.375 -9.26,-2 -4.25,-1.688 -8.812,-3.511 -11.281,-7.615 0.021,-0.01 0.042,-0.021 0.062,-0.031 -0.323,-0.76 -1.198,-1.125 -1.969,-0.802 -0.76,0.323 -1.125,1.198 -0.802,1.969 2.146,4.062 6.146,6.636 10.386,8.177 0.312,0.115 0.552,0.354 0.864,0.469 3.583,1.302 7.333,1.885 11.052,2.573 3.5,0.823 6.625,1.323 10.49,1.698 2.948,0.188 5.882,0.127 8.892,0.389 0.245,0.174 0.73,0.049 1.056,0.049 0.635,0.052 1.156,0.208 1.812,0.125 0.5,-0.073 0.854,-0.011 1.323,-0.031 1.812,-0.104 3.615,0.052 5.427,-0.083 4.489997,-0.354 8.655997,-1.385 13.207997,-2.26 1.052,-0.198 2.021,-0.49 2.989,-0.938 2.031,-0.927 4.104,-1.583 6.125,-2.552 2.781,-1.323 4.948,-3.302 6.833,-5.76 1.115,-1.458 1.979,-2.979 2.323,-4.802 0.344,-1.823 -0.217,-3.629 -0.862,-5.275 z"
       style="fill:#dcdcdc;stroke:#000000;stroke-width:0.5"
       inkscape:connector-curvature="0" /><path
       id="path164"
       d="m 130.02708,250.80968 c -0.417,-0.719 -1.333,-0.969 -2.052,-0.552 -0.719,0.406 -0.969,1.323 -0.552,2.042 0.208,0.99 0.656,1.958 0.511,2.979 -0.229,1.657 -1.125,3.146 -2.24,4.396 -0.948,1.062 -1.823,2.083 -3.042,2.896 -3.511,2.333 -7.208,3.583 -11.042,4.771 -5.958,0.896 -11.832997,2.521 -17.905997,2.136 -0.569,0.176 -0.848,0.092 -1.417,0.094 -0.562,-0.188 -1.125,-0.188 -1.917,-0.177 -3.156,-0.458 -6.281,-0.052 -9.479,-0.427 -0.76,-0.083 -1.558,-0.056 -2.292,-0.146 -3.062,-0.375 -3.812,-0.625 -7.24,-1.312 -3.156,-0.633 -6.156,-1.375 -9.26,-2 -4.25,-1.688 -8.812,-3.511 -11.281,-7.615 0.021,-0.01 0.042,-0.021 0.062,-0.031 -0.323,-0.76 -1.198,-1.125 -1.969,-0.802 -0.76,0.323 -1.125,1.198 -0.802,1.968 2.146,4.062 6.146,6.636 10.386,8.177 0.312,0.115 0.552,0.354 0.864,0.469 3.583,1.302 7.333,1.885 11.052,2.573 3.5,0.823 6.625,1.323 10.49,1.698 2.948,0.188 5.882,0.126 8.892,0.389 0.245,0.174 0.73,0.049 1.056,0.049 0.635,0.052 1.156,0.208 1.812,0.125 0.5,-0.073 0.854,-0.011 1.323,-0.031 1.812,-0.104 3.615,0.052 5.427,-0.083 4.489997,-0.354 8.655997,-1.385 13.207997,-2.26 1.052,-0.198 2.021,-0.49 2.989,-0.938 2.031,-0.927 4.104,-1.583 6.125,-2.552 2.781,-1.323 4.948,-3.302 6.833,-5.76 1.115,-1.458 1.979,-2.979 2.323,-4.802 0.344,-1.823 -0.217,-3.628 -0.862,-5.274 z"
       style="fill:#dcdcdc;stroke:#000000;stroke-width:0.5"
       inkscape:connector-curvature="0" /><path
       id="path166"
       d="m 130.02708,247.12468 c -0.417,-0.719 -1.333,-0.969 -2.052,-0.552 -0.719,0.406 -0.969,1.323 -0.552,2.042 0.208,0.99 0.656,1.958 0.511,2.979 -0.229,1.656 -1.125,3.146 -2.24,4.396 -0.948,1.062 -1.823,2.083 -3.042,2.896 -3.511,2.333 -7.208,3.583 -11.042,4.771 -5.958,0.896 -11.832997,2.521 -17.905997,2.136 -0.569,0.176 -0.848,0.092 -1.417,0.094 -0.562,-0.188 -1.125,-0.188 -1.917,-0.177 -3.156,-0.458 -6.281,-0.052 -9.479,-0.427 -0.76,-0.083 -1.558,-0.056 -2.292,-0.146 -3.062,-0.375 -3.812,-0.625 -7.24,-1.312 -3.156,-0.633 -6.156,-1.375 -9.26,-2 -4.25,-1.688 -8.812,-3.511 -11.281,-7.615 0.021,-0.01 0.042,-0.021 0.062,-0.031 -0.323,-0.76 -1.198,-1.125 -1.969,-0.802 -0.76,0.323 -1.125,1.198 -0.802,1.969 2.146,4.062 6.146,6.636 10.386,8.177 0.312,0.115 0.552,0.354 0.864,0.469 3.583,1.302 7.333,1.885 11.052,2.573 3.5,0.823 6.625,1.323 10.49,1.698 2.948,0.188 5.882,0.127 8.892,0.389 0.245,0.174 0.73,0.049 1.056,0.049 0.635,0.052 1.156,0.208 1.812,0.125 0.5,-0.073 0.854,-0.011 1.323,-0.031 1.812,-0.104 3.615,0.052 5.427,-0.083 4.489997,-0.354 8.655997,-1.385 13.207997,-2.26 1.052,-0.198 2.021,-0.49 2.989,-0.938 2.031,-0.927 4.104,-1.583 6.125,-2.552 2.781,-1.323 4.948,-3.302 6.833,-5.76 1.115,-1.458 1.979,-2.979 2.323,-4.802 0.344,-1.823 -0.217,-3.629 -0.862,-5.275 z"
       style="fill:#dcdcdc;stroke:#000000;stroke-width:0.5"
       inkscape:connector-curvature="0" /><path
       id="path168"
       d="m 130.02708,243.43968 c -0.417,-0.719 -1.333,-0.969 -2.052,-0.552 -0.719,0.406 -0.969,1.323 -0.552,2.042 0.208,0.99 0.656,1.958 0.511,2.979 -0.229,1.657 -1.125,3.146 -2.24,4.396 -0.948,1.062 -1.823,2.083 -3.042,2.896 -3.511,2.333 -7.208,3.583 -11.042,4.771 -5.958,0.896 -11.832997,2.521 -17.905997,2.136 -0.569,0.176 -0.848,0.092 -1.417,0.094 -0.562,-0.188 -1.125,-0.188 -1.917,-0.177 -3.156,-0.458 -6.281,-0.052 -9.479,-0.427 -0.76,-0.083 -1.558,-0.056 -2.292,-0.146 -3.062,-0.375 -3.812,-0.625 -7.24,-1.312 -3.156,-0.633 -6.156,-1.375 -9.26,-2 -4.25,-1.688 -8.812,-3.51 -11.281,-7.615 0.021,-0.01 0.042,-0.021 0.062,-0.031 -0.323,-0.76 -1.198,-1.125 -1.969,-0.802 -0.76,0.323 -1.125,1.198 -0.802,1.968 2.146,4.062 6.146,6.636 10.386,8.177 0.312,0.115 0.552,0.354 0.864,0.469 3.583,1.302 7.333,1.886 11.052,2.573 3.5,0.823 6.625,1.323 10.49,1.698 2.948,0.188 5.882,0.127 8.892,0.389 0.245,0.174 0.73,0.049 1.056,0.049 0.635,0.052 1.156,0.208 1.812,0.125 0.5,-0.073 0.854,-0.01 1.323,-0.031 1.812,-0.104 3.615,0.052 5.427,-0.083 4.489997,-0.354 8.655997,-1.385 13.207997,-2.26 1.052,-0.198 2.021,-0.49 2.989,-0.938 2.031,-0.927 4.104,-1.583 6.125,-2.552 2.781,-1.323 4.948,-3.302 6.833,-5.76 1.115,-1.458 1.979,-2.979 2.323,-4.802 0.344,-1.823 -0.217,-3.628 -0.862,-5.274 z"
       style="fill:#dcdcdc;stroke:#000000;stroke-width:0.5"
       inkscape:connector-curvature="0" /><path
       id="path170"
       d="m 130.02708,239.75468 c -0.417,-0.719 -1.333,-0.969 -2.052,-0.552 -0.719,0.406 -0.969,1.323 -0.552,2.042 0.208,0.99 0.656,1.958 0.511,2.979 -0.229,1.656 -1.125,3.146 -2.24,4.396 -0.948,1.062 -1.823,2.083 -3.042,2.896 -3.511,2.333 -7.208,3.583 -11.042,4.771 -5.958,0.896 -11.832997,2.521 -17.905997,2.136 -0.569,0.176 -0.848,0.092 -1.417,0.094 -0.562,-0.188 -1.125,-0.188 -1.917,-0.177 -3.156,-0.458 -6.281,-0.052 -9.479,-0.427 -0.76,-0.083 -1.558,-0.056 -2.292,-0.146 -3.062,-0.375 -3.812,-0.625 -7.24,-1.312 -3.156,-0.633 -6.156,-1.375 -9.26,-2 -4.25,-1.688 -8.812,-3.511 -11.281,-7.615 0.021,-0.01 0.042,-0.021 0.062,-0.031 -0.323,-0.76 -1.198,-1.125 -1.969,-0.802 -0.76,0.323 -1.125,1.198 -0.802,1.969 2.146,4.062 6.146,6.635 10.386,8.177 0.312,0.115 0.552,0.354 0.864,0.469 3.583,1.302 7.333,1.885 11.052,2.573 3.5,0.823 6.625,1.323 10.49,1.698 2.948,0.188 5.882,0.127 8.892,0.389 0.245,0.174 0.73,0.049 1.056,0.049 0.635,0.052 1.156,0.208 1.812,0.125 0.5,-0.073 0.854,-0.011 1.323,-0.031 1.812,-0.104 3.615,0.052 5.427,-0.083 4.489997,-0.354 8.655997,-1.385 13.207997,-2.26 1.052,-0.198 2.021,-0.49 2.989,-0.938 2.031,-0.927 4.104,-1.583 6.125,-2.552 2.781,-1.323 4.948,-3.302 6.833,-5.76 1.115,-1.458 1.979,-2.979 2.323,-4.802 0.346,-1.827 -0.217,-3.629 -0.862,-5.275 z"
       style="fill:#dcdcdc;stroke:#000000;stroke-width:0.5"
       inkscape:connector-curvature="0" /><path
       id="path172"
       d="m 130.02708,236.06968 c -0.417,-0.719 -1.333,-0.969 -2.052,-0.552 -0.719,0.406 -0.969,1.323 -0.552,2.042 0.208,0.99 0.656,1.958 0.511,2.979 -0.229,1.656 -1.125,3.146 -2.24,4.396 -0.948,1.062 -1.823,2.083 -3.042,2.896 -3.511,2.333 -7.208,3.583 -11.042,4.771 -5.958,0.896 -11.832997,2.521 -17.905997,2.135 -0.569,0.176 -0.848,0.092 -1.417,0.094 -0.562,-0.188 -1.125,-0.188 -1.917,-0.177 -3.156,-0.458 -6.281,-0.052 -9.479,-0.427 -0.76,-0.083 -1.558,-0.056 -2.292,-0.146 -3.062,-0.375 -3.812,-0.625 -7.24,-1.312 -3.156,-0.633 -6.156,-1.375 -9.26,-2 -4.25,-1.688 -8.812,-3.51 -11.281,-7.615 0.021,-0.01 0.042,-0.021 0.062,-0.031 -0.323,-0.76 -1.198,-1.125 -1.969,-0.802 -0.76,0.323 -1.125,1.198 -0.802,1.969 2.146,4.062 6.146,6.635 10.386,8.177 0.312,0.115 0.552,0.354 0.864,0.469 3.583,1.302 7.333,1.886 11.052,2.573 3.5,0.823 6.625,1.323 10.49,1.698 2.948,0.188 5.882,0.127 8.892,0.389 0.245,0.174 0.73,0.049 1.056,0.049 0.635,0.052 1.156,0.208 1.812,0.125 0.5,-0.073 0.854,-0.01 1.323,-0.031 1.812,-0.104 3.615,0.052 5.427,-0.083 4.489997,-0.354 8.655997,-1.385 13.207997,-2.26 1.052,-0.198 2.021,-0.49 2.989,-0.938 2.031,-0.927 4.104,-1.583 6.125,-2.552 2.781,-1.323 4.948,-3.302 6.833,-5.76 1.115,-1.458 1.979,-2.979 2.323,-4.802 0.346,-1.826 -0.217,-3.629 -0.862,-5.274 z"
       style="fill:#dcdcdc;stroke:#000000;stroke-width:0.5"
       inkscape:connector-curvature="0" /><path
       id="path174"
       d="m 130.02708,232.38468 c -0.417,-0.719 -1.333,-0.969 -2.052,-0.552 -0.719,0.406 -0.969,1.323 -0.552,2.042 0.208,0.99 0.656,1.958 0.511,2.979 -0.229,1.656 -1.125,3.146 -2.24,4.396 -0.948,1.062 -1.823,2.083 -3.042,2.896 -3.511,2.333 -7.208,3.583 -11.042,4.771 -5.958,0.896 -11.832997,2.521 -17.905997,2.135 -0.569,0.176 -0.848,0.092 -1.417,0.094 -0.562,-0.188 -1.125,-0.188 -1.917,-0.177 -3.156,-0.458 -6.281,-0.052 -9.479,-0.427 -0.76,-0.083 -1.558,-0.056 -2.292,-0.146 -3.062,-0.375 -3.812,-0.625 -7.24,-1.312 -3.156,-0.633 -6.156,-1.375 -9.26,-2 -4.25,-1.688 -8.812,-3.51 -11.281,-7.615 0.021,-0.01 0.042,-0.021 0.062,-0.031 -0.323,-0.76 -1.198,-1.125 -1.969,-0.802 -0.76,0.323 -1.125,1.198 -0.802,1.969 2.146,4.062 6.146,6.635 10.386,8.177 0.312,0.115 0.552,0.354 0.864,0.469 3.583,1.302 7.333,1.886 11.052,2.573 3.5,0.823 6.625,1.323 10.49,1.698 2.948,0.188 5.882,0.127 8.892,0.389 0.245,0.174 0.73,0.049 1.056,0.049 0.635,0.052 1.156,0.208 1.812,0.125 0.5,-0.073 0.854,-0.01 1.323,-0.031 1.812,-0.104 3.615,0.052 5.427,-0.083 4.489997,-0.354 8.655997,-1.385 13.207997,-2.26 1.052,-0.198 2.021,-0.49 2.989,-0.938 2.031,-0.927 4.104,-1.583 6.125,-2.552 2.781,-1.323 4.948,-3.302 6.833,-5.76 1.115,-1.458 1.979,-2.979 2.323,-4.802 0.346,-1.826 -0.217,-3.629 -0.862,-5.274 z"
       style="fill:#dcdcdc;stroke:#000000;stroke-width:0.5"
       inkscape:connector-curvature="0" /><path
       id="path176"
       d="m 130.02708,228.69968 c -0.417,-0.719 -1.333,-0.969 -2.052,-0.552 -0.719,0.406 -0.969,1.323 -0.552,2.042 0.208,0.99 0.656,1.958 0.511,2.979 -0.229,1.656 -1.125,3.146 -2.24,4.396 -0.948,1.062 -1.823,2.083 -3.042,2.896 -3.511,2.333 -7.208,3.583 -11.042,4.771 -5.958,0.896 -11.832997,2.521 -17.905997,2.135 -0.569,0.176 -0.848,0.092 -1.417,0.094 -0.562,-0.188 -1.125,-0.188 -1.917,-0.177 -3.156,-0.458 -6.281,-0.052 -9.479,-0.427 -0.76,-0.083 -1.558,-0.056 -2.292,-0.146 -3.062,-0.375 -3.812,-0.625 -7.24,-1.312 -3.156,-0.633 -6.156,-1.375 -9.26,-2 -4.25,-1.688 -8.812,-3.51 -11.281,-7.615 0.021,-0.01 0.042,-0.021 0.062,-0.031 -0.323,-0.76 -1.198,-1.125 -1.969,-0.802 -0.76,0.323 -1.125,1.198 -0.802,1.969 2.146,4.062 6.146,6.635 10.386,8.177 0.312,0.115 0.552,0.354 0.864,0.469 3.583,1.302 7.333,1.886 11.052,2.573 3.5,0.823 6.625,1.323 10.49,1.698 2.948,0.188 5.882,0.127 8.892,0.389 0.245,0.174 0.73,0.049 1.056,0.049 0.635,0.052 1.156,0.208 1.812,0.125 0.5,-0.073 0.854,-0.01 1.323,-0.031 1.812,-0.104 3.615,0.052 5.427,-0.083 4.489997,-0.354 8.655997,-1.385 13.207997,-2.26 1.052,-0.198 2.021,-0.49 2.989,-0.938 2.031,-0.927 4.104,-1.583 6.125,-2.552 2.781,-1.323 4.948,-3.302 6.833,-5.76 1.115,-1.458 1.979,-2.979 2.323,-4.802 0.346,-1.826 -0.217,-3.629 -0.862,-5.274 z"
       style="fill:#dcdcdc;stroke:#000000;stroke-width:0.5"
       inkscape:connector-curvature="0" /><g
       id="g4455"><path
         style="fill:#dcdcdc;stroke:#000000;stroke-width:0.5;stroke-miterlimit:4;stroke-dasharray:none"
         d="M 139.22461 208.92969 C 138.85377 208.92879 138.48393 208.92545 138.11328 208.93945 C 137.72656 208.96015 137.33891 208.99606 136.9707 209.125 C 136.61545 209.25439 136.2692 209.42516 135.89062 209.47656 C 135.553 209.52056 135.20534 209.51827 134.88281 209.64258 C 134.59625 209.75998 134.32284 209.9023 134.0293 210.00391 C 133.68217 210.10533 133.33844 210.21964 132.99414 210.33008 C 132.67207 210.43254 132.37474 210.59463 132.08008 210.75781 C 131.78461 210.96158 131.54015 211.22883 131.20703 211.37305 C 130.81729 211.57921 130.4119 211.75223 130.07227 212.04102 C 129.74647 212.2893 129.35183 212.5037 129.30273 212.94922 C 129.30273 213.34217 129.30364 213.73596 129.30469 214.12891 C 129.30569 214.54542 129.30892 214.96257 129.29492 215.37891 L 129.29688 215.37891 L 129.49219 215.64648 C 129.25926 216.09343 129.05136 216.55323 128.87695 217.02734 C 128.68131 217.70714 128.63404 218.39739 128.65234 219.10352 C 128.62484 220.17861 128.55365 221.25447 128.36133 222.31445 C 128.21056 223.08014 128.0159 223.83135 127.80859 224.58008 C 127.2234 225.02584 127.0418 225.8452 127.42383 226.50391 C 127.61683 227.41891 127.9935 228.31691 127.9375 229.25391 C 126.2075 227.17691 124.22763 225.49036 121.76562 224.31836 C 119.74462 223.34936 117.67163 222.69458 115.64062 221.76758 C 114.67163 221.31958 113.70239 221.02614 112.65039 220.82812 C 108.09839 219.95312 103.9304 218.92336 99.441406 218.56836 C 97.629406 218.43336 95.828625 218.58836 94.015625 218.48438 C 93.546625 218.46338 93.191406 218.52612 92.691406 218.45312 C 92.527406 218.43238 92.371719 218.42788 92.220703 218.43164 C 91.767656 218.44294 91.357109 218.53912 90.880859 218.57812 C 90.555859 218.57812 90.069219 218.45395 89.824219 218.62695 C 86.815219 218.88895 83.879641 218.82863 80.931641 219.01562 C 77.066641 219.39062 73.941406 219.88989 70.441406 220.71289 C 66.722406 221.40089 62.973625 221.98511 59.390625 223.28711 C 59.078625 223.40211 58.838391 223.64086 58.525391 223.75586 C 54.285391 225.29786 50.285625 227.87159 48.140625 231.93359 C 48.092625 232.04659 48.063922 232.16134 48.044922 232.27734 C 47.965922 232.58334 47.977375 232.91642 48.109375 233.23242 C 50.255375 237.29442 54.256094 239.86816 58.496094 241.41016 C 58.808094 241.52416 59.047375 241.76295 59.359375 241.87695 C 62.942375 243.17895 66.693109 243.76417 70.412109 244.45117 C 73.912109 245.27417 77.036391 245.77344 80.900391 246.14844 C 83.848391 246.33644 86.782969 246.27511 89.792969 246.53711 C 90.037969 246.71111 90.523609 246.58594 90.849609 246.58594 C 91.484609 246.63794 92.004156 246.79394 92.660156 246.71094 C 93.160156 246.63794 93.515375 246.70264 93.984375 246.68164 C 95.796375 246.57764 97.598156 246.73266 99.410156 246.59766 C 103.89915 246.24366 108.06714 245.21094 112.61914 244.33594 C 113.67114 244.13794 114.63942 243.84744 115.60742 243.39844 C 117.63842 242.47144 119.71142 241.81666 121.73242 240.84766 C 124.22442 239.66466 126.22084 237.94984 127.96484 235.83984 C 127.96484 235.84684 127.96384 235.85433 127.96484 235.86133 L 130.40234 231.89453 C 130.60634 231.38053 130.78558 230.85116 130.89258 230.28516 C 131.23658 228.46216 130.67334 226.66162 130.02734 225.01562 C 129.97255 224.92114 129.90836 224.83567 129.83789 224.75781 C 130.08653 223.56845 130.41828 222.40126 130.64453 221.20508 C 130.83896 220.11486 130.96858 219.0142 131.02148 217.9082 C 131.00158 217.21891 131.06219 216.54077 131.29102 215.88867 C 131.54762 215.26638 131.80625 214.64254 132.19141 214.08789 C 132.27341 213.98204 132.3586 213.87872 132.44141 213.77344 C 132.47791 213.75444 132.5146 213.7363 132.55078 213.7168 C 132.89425 213.57298 133.15954 213.31286 133.45898 213.09961 C 133.72894 212.95157 134.00143 212.8021 134.29883 212.7168 C 134.63917 212.60153 134.97971 212.48107 135.32617 212.38477 C 135.63044 212.28392 135.91364 212.13629 136.21094 212.01953 C 136.51785 211.91354 136.84691 211.93234 137.16211 211.87305 C 137.55449 211.80925 137.90905 211.62354 138.28125 211.49414 C 138.49608 211.42524 138.71814 211.39604 138.94141 211.37695 C 139.07861 211.41115 139.21745 211.44725 139.36523 211.49414 C 140.17482 211.76633 140.96662 212.07827 141.70898 212.50195 C 142.31822 212.86566 142.87703 213.28062 143.37305 213.77148 C 143.65743 214.24725 143.97438 214.70249 144.32422 215.11328 C 144.4283 215.24729 144.51769 215.39107 144.61719 215.52734 C 144.85413 215.98465 145.06564 216.45699 145.27734 216.92773 C 145.60302 217.64077 145.99152 218.32013 146.30859 219.03711 C 146.5974 219.76908 146.75625 220.53936 146.9082 221.30859 C 146.9862 221.91091 147.11892 222.50357 147.19922 223.10547 C 147.25242 223.67563 147.26652 224.24538 147.33203 224.81445 C 147.36703 225.38379 147.48909 225.93789 147.62305 226.49023 C 147.76146 226.98687 147.94037 227.46853 148.11914 227.95117 C 148.30043 228.42668 148.60987 228.82759 148.96289 229.1875 C 149.35658 229.54523 149.79948 229.84592 150.25586 230.11719 C 150.80847 230.3694 151.35189 230.64026 151.9082 230.88477 C 152.68686 231.17734 153.52149 231.25795 154.33008 231.4375 C 155.15333 231.62869 155.98546 231.781 156.81836 231.92383 C 157.49216 232.00333 158.16423 232.09643 158.83789 232.17773 C 159.41625 232.24023 159.99853 232.23813 160.57617 232.30664 C 161.07397 232.39314 161.55327 232.55614 162.04883 232.65234 C 162.71437 232.75979 163.39017 232.77122 164.0625 232.79492 L 166.20508 231.24609 C 165.54942 231.23349 164.89185 231.21679 164.24219 231.11914 C 163.74325 231.02734 163.2666 230.85739 162.76953 230.75391 C 162.18757 230.67791 161.60498 230.66801 161.01953 230.62891 C 160.34262 230.56321 159.67162 230.45433 158.99414 230.39453 C 158.15573 230.27061 157.31951 230.12491 156.49219 229.94141 C 155.7085 229.74882 154.90217 229.65435 154.13477 229.4043 C 153.58895 229.16191 153.05952 228.89025 152.50977 228.65625 C 152.06942 228.39827 151.64347 228.11661 151.26172 227.77539 C 150.92227 227.4579 150.64472 227.07889 150.46875 226.64648 C 150.29819 226.17193 150.12889 225.69843 149.98438 225.21484 C 149.85029 224.67339 149.75033 224.12533 149.70703 223.56836 C 149.63753 222.99745 149.64713 222.42407 149.57422 221.85352 C 149.48792 221.25088 149.34765 220.65713 149.24805 220.05664 C 149.08593 219.27002 148.9138 218.48372 148.62305 217.73242 C 148.30468 217.01447 147.91103 216.33893 147.56836 215.63281 C 147.13356 214.72007 146.72758 213.79241 146.12109 212.97461 C 145.4713 212.15698 144.79503 211.62964 143.91797 211.07031 C 143.40176 210.75775 142.85439 210.51574 142.29688 210.29297 C 142.19948 210.09554 142.10973 209.89639 142.04688 209.68555 C 141.86566 209.43259 141.61882 209.24773 141.3418 209.10742 C 141.01985 208.98119 140.67898 208.91734 140.33203 208.93164 C 139.96325 208.93164 139.59338 208.93073 139.22461 208.92969 z M 93.023438 221.375 C 93.235438 221.37613 93.447922 221.39978 93.732422 221.48828 C 99.805422 221.10228 105.68067 222.72705 111.63867 223.62305 C 115.47167 224.81105 119.16869 226.06153 122.67969 228.39453 C 123.89869 229.20653 124.77466 230.22606 125.72266 231.28906 C 126.07966 231.68906 126.41003 232.11745 126.70703 232.56445 C 126.40203 233.02745 126.05941 233.46786 125.69141 233.88086 C 124.74541 234.94186 123.87039 235.96339 122.65039 236.77539 C 119.14039 239.10839 115.44337 240.35692 111.60938 241.54492 C 105.65138 242.44092 99.776125 244.06764 93.703125 243.68164 C 93.134125 243.85764 92.854156 243.77339 92.285156 243.77539 C 91.723156 243.58739 91.161141 243.58666 90.369141 243.59766 C 87.213141 243.13966 84.088625 243.54492 80.890625 243.16992 C 80.130625 243.08692 79.331656 243.11539 78.597656 243.02539 C 75.535656 242.65039 74.785422 242.39989 71.357422 241.71289 C 68.201422 241.07989 65.201656 240.33789 62.097656 239.71289 C 58.034656 238.09989 53.707781 236.34047 51.175781 232.60547 C 53.702781 228.84147 58.048953 227.07408 62.126953 225.45508 C 65.230953 224.83008 68.231672 224.08808 71.388672 223.45508 C 74.815672 222.76708 75.564953 222.51853 78.626953 222.14453 C 79.360953 222.05453 80.158922 222.08205 80.919922 221.99805 C 84.117922 221.62305 87.242438 222.02831 90.398438 221.57031 C 91.190438 221.58131 91.751453 221.58253 92.314453 221.39453 C 92.598953 221.39553 92.811436 221.37387 93.023438 221.375 z "
         id="path274" /><path
         style="color:#000000;clip-rule:nonzero;display:inline;overflow:visible;visibility:visible;opacity:1;isolation:auto;mix-blend-mode:normal;color-interpolation:sRGB;color-interpolation-filters:linearRGB;solid-color:#000000;solid-opacity:1;fill:#dcdcdc;fill-opacity:1;fill-rule:evenodd;stroke:none;stroke-width:0.875;stroke-linecap:butt;stroke-linejoin:miter;stroke-miterlimit:4;stroke-dasharray:none;stroke-dashoffset:0;stroke-opacity:1;marker:none;marker-start:none;marker-mid:none;marker-end:none;color-rendering:auto;image-rendering:auto;shape-rendering:auto;text-rendering:auto;enable-background:accumulate"
         d="m 164.88455,231.37475 -1.11509,1.04075 1.7098,0.59471 1.63547,-1.04075 z"
         id="path4451"
         inkscape:connector-curvature="0" /></g><path
       sodipodi:nodetypes="csc"
       inkscape:connector-curvature="0"
       id="path4463"
       d="M 73.149863,242.22828 C 72.0371,217.18106 71.428819,196.76201 58.199385,196.07651 24.565094,194.33373 25.343464,256.65104 25.343464,256.65104"
       style="color:#000000;clip-rule:nonzero;display:inline;overflow:visible;visibility:visible;opacity:1;isolation:auto;mix-blend-mode:normal;color-interpolation:sRGB;color-interpolation-filters:linearRGB;solid-color:#000000;solid-opacity:1;fill:none;fill-opacity:1;fill-rule:evenodd;stroke:#000000;stroke-width:0.875;stroke-linecap:butt;stroke-linejoin:miter;stroke-miterlimit:4;stroke-dasharray:none;stroke-dashoffset:0;stroke-opacity:1;marker:none;marker-start:none;marker-mid:none;marker-end:url(#Arrow2Mend);color-rendering:auto;image-rendering:auto;shape-rendering:auto;text-rendering:auto;enable-background:accumulate" /><path
       sodipodi:nodetypes="csc"
       inkscape:connector-curvature="0"
       id="path4463-5"
       d="m 103.71921,242.06942 c 1.11276,-25.04722 1.72104,-45.46627 14.95047,-46.15177 33.6343,-1.74278 32.85593,60.57453 32.85593,60.57453"
       style="color:#000000;clip-rule:nonzero;display:inline;overflow:visible;visibility:visible;opacity:1;isolation:auto;mix-blend-mode:normal;color-interpolation:sRGB;color-interpolation-filters:linearRGB;solid-color:#000000;solid-opacity:1;fill:none;fill-opacity:1;fill-rule:evenodd;stroke:#000000;stroke-width:0.875;stroke-linecap:butt;stroke-linejoin:miter;stroke-miterlimit:4;stroke-dasharray:none;stroke-dashoffset:0;stroke-opacity:1;marker:none;marker-start:none;marker-mid:none;marker-end:url(#marker4831);color-rendering:auto;image-rendering:auto;shape-rendering:auto;text-rendering:auto;enable-background:accumulate" /><path
       sodipodi:nodetypes="csc"
       inkscape:connector-curvature="0"
       id="path4463-56"
       d="m 86.097461,243.39729 c -0.278771,-25.13868 -0.431159,-45.6323 -3.745419,-46.3203 -8.426119,-1.74914 -8.231121,60.79573 -8.231121,60.79573"
       style="color:#000000;clip-rule:nonzero;display:inline;overflow:visible;visibility:visible;opacity:1;isolation:auto;mix-blend-mode:normal;color-interpolation:sRGB;color-interpolation-filters:linearRGB;solid-color:#000000;solid-opacity:1;fill:none;fill-opacity:1;fill-rule:evenodd;stroke:#000000;stroke-width:0.875;stroke-linecap:butt;stroke-linejoin:miter;stroke-miterlimit:4;stroke-dasharray:none;stroke-dashoffset:0;stroke-opacity:1;marker:none;marker-start:none;marker-mid:none;marker-end:url(#marker4865);color-rendering:auto;image-rendering:auto;shape-rendering:auto;text-rendering:auto;enable-background:accumulate" /><g
       transform="matrix(0.99944498,0.03331252,-0.03331252,0.99944498,-48.241495,-72.01751)"
       id="g4962"><path
         inkscape:connector-curvature="0"
         style="color:#000000;clip-rule:nonzero;display:inline;overflow:visible;visibility:visible;opacity:1;isolation:auto;mix-blend-mode:normal;color-interpolation:sRGB;color-interpolation-filters:linearRGB;solid-color:#000000;solid-opacity:1;fill:#ffffff;fill-opacity:1;fill-rule:evenodd;stroke:#000000;stroke-width:0.875;stroke-linecap:butt;stroke-linejoin:miter;stroke-miterlimit:4;stroke-dasharray:none;stroke-dashoffset:0;stroke-opacity:1;marker:none;marker-start:none;marker-mid:none;marker-end:none;color-rendering:auto;image-rendering:auto;shape-rendering:auto;text-rendering:auto;enable-background:accumulate"
         d="m 173.20211,320.15574 0.0554,4.24698 0.0184,2.50762 c -1.31293,0.39214 -2.83835,0.8436 -4.97838,1.41976 -5.04643,1.35866 -30.08448,3.10415 -36.48958,1.7455 l 0.0768,11.08763 -0.0184,0.19359 c 6.4051,1.35866 31.44315,-0.3899 36.48958,-1.74856 2.14975,-0.57878 3.68812,-1.03304 5.00296,-1.4259 l 0.0368,4.81548 c 0,0 6.03034,-4.7786 8.80433,-7.51364 2.38077,-2.34736 5.04597,-6.53334 5.04597,-6.53334 0,0 -3.5886,-2.03158 -6.51798,-3.743 -2.1705,-1.26807 -7.52593,-5.05212 -7.52593,-5.05212 z"
         id="path4899-2" /><text
         xml:space="preserve"
         style="color:#000000;font-style:normal;font-variant:normal;font-weight:normal;font-stretch:normal;font-size:12.5px;line-height:125%;font-family:'Liberation Sans';-inkscape-font-specification:'Liberation Sans';text-indent:0;text-align:start;text-decoration:none;text-decoration-line:none;text-decoration-style:solid;text-decoration-color:#000000;letter-spacing:0px;word-spacing:0px;text-transform:none;direction:ltr;block-progression:tb;writing-mode:lr-tb;baseline-shift:baseline;text-anchor:start;white-space:normal;clip-rule:nonzero;display:inline;overflow:visible;visibility:visible;opacity:1;isolation:auto;mix-blend-mode:normal;color-interpolation:sRGB;color-interpolation-filters:linearRGB;solid-color:#000000;solid-opacity:1;fill:#000000;fill-opacity:1;fill-rule:nonzero;stroke:none;stroke-width:1.24999988px;stroke-linecap:butt;stroke-linejoin:miter;stroke-miterlimit:4;stroke-dasharray:none;stroke-dashoffset:0;stroke-opacity:1;marker:none;marker-start:none;marker-mid:none;marker-end:none;color-rendering:auto;image-rendering:auto;shape-rendering:auto;text-rendering:auto;enable-background:accumulate"
         x="136.01373"
         y="339.40936"
         id="text4919"
         sodipodi:linespacing="125%"><tspan
           sodipodi:role="line"
           id="tspan4921"
           x="136.01373"
           y="339.40936">c</tspan></text>
<text
         xml:space="preserve"
         style="color:#000000;font-style:normal;font-variant:normal;font-weight:normal;font-stretch:normal;font-size:12.5px;line-height:125%;font-family:'Liberation Sans';-inkscape-font-specification:'Liberation Sans';text-indent:0;text-align:start;text-decoration:none;text-decoration-line:none;text-decoration-style:solid;text-decoration-color:#000000;letter-spacing:0px;word-spacing:0px;text-transform:none;direction:ltr;block-progression:tb;writing-mode:lr-tb;baseline-shift:baseline;text-anchor:start;white-space:normal;clip-rule:nonzero;display:inline;overflow:visible;visibility:visible;opacity:1;isolation:auto;mix-blend-mode:normal;color-interpolation:sRGB;color-interpolation-filters:linearRGB;solid-color:#000000;solid-opacity:1;fill:#000000;fill-opacity:1;fill-rule:nonzero;stroke:none;stroke-width:1.24999988px;stroke-linecap:butt;stroke-linejoin:miter;stroke-miterlimit:4;stroke-dasharray:none;stroke-dashoffset:0;stroke-opacity:1;marker:none;marker-start:none;marker-mid:none;marker-end:none;color-rendering:auto;image-rendering:auto;shape-rendering:auto;text-rendering:auto;enable-background:accumulate"
         x="142.01979"
         y="339.17496"
         id="text4923"
         sodipodi:linespacing="125%"><tspan
           sodipodi:role="line"
           id="tspan4925"
           x="142.01979"
           y="339.17496">u</tspan></text>
<text
         xml:space="preserve"
         style="color:#000000;font-style:normal;font-variant:normal;font-weight:normal;font-stretch:normal;font-size:12.5px;line-height:125%;font-family:'Liberation Sans';-inkscape-font-specification:'Liberation Sans';text-indent:0;text-align:start;text-decoration:none;text-decoration-line:none;text-decoration-style:solid;text-decoration-color:#000000;letter-spacing:0px;word-spacing:0px;text-transform:none;direction:ltr;block-progression:tb;writing-mode:lr-tb;baseline-shift:baseline;text-anchor:start;white-space:normal;clip-rule:nonzero;display:inline;overflow:visible;visibility:visible;opacity:1;isolation:auto;mix-blend-mode:normal;color-interpolation:sRGB;color-interpolation-filters:linearRGB;solid-color:#000000;solid-opacity:1;fill:#000000;fill-opacity:1;fill-rule:nonzero;stroke:none;stroke-width:1.24999988px;stroke-linecap:butt;stroke-linejoin:miter;stroke-miterlimit:4;stroke-dasharray:none;stroke-dashoffset:0;stroke-opacity:1;marker:none;marker-start:none;marker-mid:none;marker-end:none;color-rendering:auto;image-rendering:auto;shape-rendering:auto;text-rendering:auto;enable-background:accumulate"
         x="148.38976"
         y="338.78427"
         id="text4927"
         sodipodi:linespacing="125%"><tspan
           sodipodi:role="line"
           id="tspan4929"
           x="148.38976"
           y="338.78427">r</tspan></text>
<text
         xml:space="preserve"
         style="color:#000000;font-style:normal;font-variant:normal;font-weight:normal;font-stretch:normal;font-size:12.5px;line-height:125%;font-family:'Liberation Sans';-inkscape-font-specification:'Liberation Sans';text-indent:0;text-align:start;text-decoration:none;text-decoration-line:none;text-decoration-style:solid;text-decoration-color:#000000;letter-spacing:0px;word-spacing:0px;text-transform:none;direction:ltr;block-progression:tb;writing-mode:lr-tb;baseline-shift:baseline;text-anchor:start;white-space:normal;clip-rule:nonzero;display:inline;overflow:visible;visibility:visible;opacity:1;isolation:auto;mix-blend-mode:normal;color-interpolation:sRGB;color-interpolation-filters:linearRGB;solid-color:#000000;solid-opacity:1;fill:#000000;fill-opacity:1;fill-rule:nonzero;stroke:none;stroke-width:1.24999988px;stroke-linecap:butt;stroke-linejoin:miter;stroke-miterlimit:4;stroke-dasharray:none;stroke-dashoffset:0;stroke-opacity:1;marker:none;marker-start:none;marker-mid:none;marker-end:none;color-rendering:auto;image-rendering:auto;shape-rendering:auto;text-rendering:auto;enable-background:accumulate"
         x="152.22668"
         y="338.70615"
         id="text4931"
         sodipodi:linespacing="125%"><tspan
           sodipodi:role="line"
           id="tspan4933"
           x="152.22668"
           y="338.70615">r</tspan></text>
<text
         xml:space="preserve"
         style="color:#000000;font-style:normal;font-variant:normal;font-weight:normal;font-stretch:normal;font-size:12.5px;line-height:125%;font-family:'Liberation Sans';-inkscape-font-specification:'Liberation Sans';text-indent:0;text-align:start;text-decoration:none;text-decoration-line:none;text-decoration-style:solid;text-decoration-color:#000000;letter-spacing:0px;word-spacing:0px;text-transform:none;direction:ltr;block-progression:tb;writing-mode:lr-tb;baseline-shift:baseline;text-anchor:start;white-space:normal;clip-rule:nonzero;display:inline;overflow:visible;visibility:visible;opacity:1;isolation:auto;mix-blend-mode:normal;color-interpolation:sRGB;color-interpolation-filters:linearRGB;solid-color:#000000;solid-opacity:1;fill:#000000;fill-opacity:1;fill-rule:nonzero;stroke:none;stroke-width:1.24999988px;stroke-linecap:butt;stroke-linejoin:miter;stroke-miterlimit:4;stroke-dasharray:none;stroke-dashoffset:0;stroke-opacity:1;marker:none;marker-start:none;marker-mid:none;marker-end:none;color-rendering:auto;image-rendering:auto;shape-rendering:auto;text-rendering:auto;enable-background:accumulate"
         x="155.94386"
         y="338.23734"
         id="text4935"
         sodipodi:linespacing="125%"><tspan
           sodipodi:role="line"
           id="tspan4937"
           x="155.94386"
           y="338.23734">e</tspan></text>
<text
         xml:space="preserve"
         style="color:#000000;font-style:normal;font-variant:normal;font-weight:normal;font-stretch:normal;font-size:12.5px;line-height:125%;font-family:'Liberation Sans';-inkscape-font-specification:'Liberation Sans';text-indent:0;text-align:start;text-decoration:none;text-decoration-line:none;text-decoration-style:solid;text-decoration-color:#000000;letter-spacing:0px;word-spacing:0px;text-transform:none;direction:ltr;block-progression:tb;writing-mode:lr-tb;baseline-shift:baseline;text-anchor:start;white-space:normal;clip-rule:nonzero;display:inline;overflow:visible;visibility:visible;opacity:1;isolation:auto;mix-blend-mode:normal;color-interpolation:sRGB;color-interpolation-filters:linearRGB;solid-color:#000000;solid-opacity:1;fill:#000000;fill-opacity:1;fill-rule:nonzero;stroke:none;stroke-width:1.24999988px;stroke-linecap:butt;stroke-linejoin:miter;stroke-miterlimit:4;stroke-dasharray:none;stroke-dashoffset:0;stroke-opacity:1;marker:none;marker-start:none;marker-mid:none;marker-end:none;color-rendering:auto;image-rendering:auto;shape-rendering:auto;text-rendering:auto;enable-background:accumulate"
         x="161.91594"
         y="337.69037"
         id="text4939"
         sodipodi:linespacing="125%"><tspan
           sodipodi:role="line"
           id="tspan4941"
           x="161.91594"
           y="337.69037">n</tspan></text>
<text
         xml:space="preserve"
         style="color:#000000;font-style:normal;font-variant:normal;font-weight:normal;font-stretch:normal;font-size:12.5px;line-height:125%;font-family:'Liberation Sans';-inkscape-font-specification:'Liberation Sans';text-indent:0;text-align:start;text-decoration:none;text-decoration-line:none;text-decoration-style:solid;text-decoration-color:#000000;letter-spacing:0px;word-spacing:0px;text-transform:none;direction:ltr;block-progression:tb;writing-mode:lr-tb;baseline-shift:baseline;text-anchor:start;white-space:normal;clip-rule:nonzero;display:inline;overflow:visible;visibility:visible;opacity:1;isolation:auto;mix-blend-mode:normal;color-interpolation:sRGB;color-interpolation-filters:linearRGB;solid-color:#000000;solid-opacity:1;fill:#000000;fill-opacity:1;fill-rule:nonzero;stroke:none;stroke-width:1.24999988px;stroke-linecap:butt;stroke-linejoin:miter;stroke-miterlimit:4;stroke-dasharray:none;stroke-dashoffset:0;stroke-opacity:1;marker:none;marker-start:none;marker-mid:none;marker-end:none;color-rendering:auto;image-rendering:auto;shape-rendering:auto;text-rendering:auto;enable-background:accumulate"
         x="168.4041"
         y="337.1434"
         id="text4943"
         sodipodi:linespacing="125%"><tspan
           sodipodi:role="line"
           id="tspan4945"
           x="168.4041"
           y="337.1434">t</tspan></text>
</g><path
       sodipodi:nodetypes="csssc"
       inkscape:connector-curvature="0"
       id="path4463-3-3"
       d="m 85.724809,287.09156 c -0.06969,6.28467 0.223549,-4.28934 0.118276,1.17782 -0.105274,5.46715 -0.254028,10.4071 -0.497641,14.58297 -0.487226,8.35174 -1.353888,13.64714 -3.011018,13.99115 -8.426111,1.74918 -8.213294,-59.05667 -8.213294,-59.05667"
       style="color:#000000;clip-rule:nonzero;display:inline;overflow:visible;visibility:visible;opacity:1;isolation:auto;mix-blend-mode:normal;color-interpolation:sRGB;color-interpolation-filters:linearRGB;solid-color:#000000;solid-opacity:1;fill:none;fill-opacity:1;fill-rule:evenodd;stroke:#000000;stroke-width:0.875;stroke-linecap:butt;stroke-linejoin:miter;stroke-miterlimit:4;stroke-dasharray:none;stroke-dashoffset:0;stroke-opacity:1;marker:none;marker-start:none;marker-mid:none;marker-end:none;color-rendering:auto;image-rendering:auto;shape-rendering:auto;text-rendering:auto;enable-background:accumulate" /></g></svg>