<?xml version="1.0" encoding="UTF-8" standalone="no"?>
<!-- Created with Inkscape (http://www.inkscape.org/) -->

<svg
   xmlns:dc="http://purl.org/dc/elements/1.1/"
   xmlns:cc="http://creativecommons.org/ns#"
   xmlns:rdf="http://www.w3.org/1999/02/22-rdf-syntax-ns#"
   xmlns:svg="http://www.w3.org/2000/svg"
   xmlns="http://www.w3.org/2000/svg"
   xmlns:sodipodi="http://sodipodi.sourceforge.net/DTD/sodipodi-0.dtd"
   xmlns:inkscape="http://www.inkscape.org/namespaces/inkscape"
   width="744.09448819"
   height="1052.3622047"
   id="svg3183"
   version="1.1"
   sodipodi:docname="two-charges-pressure-and-tension.svg">
  <defs
     id="defs3185">
    <marker
       inkscape:stockid="Arrow2Mend"
       orient="auto"
       refY="0.0"
       refX="0.0"
       id="Arrow2Mend"
       style="overflow:visible;">
      <path
         id="path5558"
         style="fill-rule:evenodd;stroke-width:0.62500000;stroke-linejoin:round;"
         d="M 8.7185878,4.0337352 L -2.2072895,0.016013256 L 8.7185884,-4.0017078 C 6.9730900,-1.6296469 6.9831476,1.6157441 8.7185878,4.0337352 z "
         transform="scale(0.6) rotate(180) translate(0,0)" />
    </marker>
    <marker
       inkscape:stockid="Arrow2Mstart"
       orient="auto"
       refY="0.0"
       refX="0.0"
       id="Arrow2Mstart"
       style="overflow:visible">
      <path
         id="path5555"
         style="fill-rule:evenodd;stroke-width:0.62500000;stroke-linejoin:round"
         d="M 8.7185878,4.0337352 L -2.2072895,0.016013256 L 8.7185884,-4.0017078 C 6.9730900,-1.6296469 6.9831476,1.6157441 8.7185878,4.0337352 z "
         transform="scale(0.6) translate(0,0)" />
    </marker>
    <radialGradient
       id="white_spot"
       cx="0.64999998"
       cy="0.69999999"
       r="0.75">
      <stop
         stop-color="#ffffff"
         offset="0"
         stop-opacity="0.7"
         id="stop3065" />
      <stop
         stop-color="#ffffff"
         offset="0.1"
         stop-opacity="0.5"
         id="stop3067" />
      <stop
         stop-color="#ffffff"
         offset="0.6"
         stop-opacity="0"
         id="stop3069" />
      <stop
         stop-color="#000000"
         offset="0.6"
         stop-opacity="0"
         id="stop3071" />
      <stop
         stop-color="#000000"
         offset="0.75"
         stop-opacity="0.05"
         id="stop3073" />
      <stop
         stop-color="#000000"
         offset="0.85"
         stop-opacity="0.15"
         id="stop3075" />
      <stop
         stop-color="#000000"
         offset="1"
         stop-opacity="0.5"
         id="stop3077" />
    </radialGradient>
    <radialGradient
       id="radialGradient3135"
       cx="0.64999998"
       cy="0.69999999"
       r="0.75">
      <stop
         stop-color="#ffffff"
         offset="0"
         stop-opacity="0.7"
         id="stop3137" />
      <stop
         stop-color="#ffffff"
         offset="0.1"
         stop-opacity="0.5"
         id="stop3139" />
      <stop
         stop-color="#ffffff"
         offset="0.6"
         stop-opacity="0"
         id="stop3141" />
      <stop
         stop-color="#000000"
         offset="0.6"
         stop-opacity="0"
         id="stop3143" />
      <stop
         stop-color="#000000"
         offset="0.75"
         stop-opacity="0.05"
         id="stop3145" />
      <stop
         stop-color="#000000"
         offset="0.85"
         stop-opacity="0.15"
         id="stop3147" />
      <stop
         stop-color="#000000"
         offset="1"
         stop-opacity="0.5"
         id="stop3149" />
    </radialGradient>
    <radialGradient
       id="white_spot-1"
       cx="0.64999998"
       cy="0.69999999"
       r="0.75">
      <stop
         stop-color="#ffffff"
         offset="0"
         stop-opacity="0.7"
         id="stop11" />
      <stop
         stop-color="#ffffff"
         offset="0.1"
         stop-opacity="0.5"
         id="stop13" />
      <stop
         stop-color="#ffffff"
         offset="0.6"
         stop-opacity="0"
         id="stop15" />
      <stop
         stop-color="#000000"
         offset="0.6"
         stop-opacity="0"
         id="stop17" />
      <stop
         stop-color="#000000"
         offset="0.75"
         stop-opacity="0.05"
         id="stop19" />
      <stop
         stop-color="#000000"
         offset="0.85"
         stop-opacity="0.15"
         id="stop21" />
      <stop
         stop-color="#000000"
         offset="1"
         stop-opacity="0.5"
         id="stop23" />
    </radialGradient>
    <radialGradient
       id="radialGradient3306"
       cx="0.64999998"
       cy="0.69999999"
       r="0.75">
      <stop
         stop-color="#ffffff"
         offset="0"
         stop-opacity="0.7"
         id="stop3308" />
      <stop
         stop-color="#ffffff"
         offset="0.1"
         stop-opacity="0.5"
         id="stop3310" />
      <stop
         stop-color="#ffffff"
         offset="0.6"
         stop-opacity="0"
         id="stop3312" />
      <stop
         stop-color="#000000"
         offset="0.6"
         stop-opacity="0"
         id="stop3314" />
      <stop
         stop-color="#000000"
         offset="0.75"
         stop-opacity="0.05"
         id="stop3316" />
      <stop
         stop-color="#000000"
         offset="0.85"
         stop-opacity="0.15"
         id="stop3318" />
      <stop
         stop-color="#000000"
         offset="1"
         stop-opacity="0.5"
         id="stop3320" />
    </radialGradient>
    <marker
       inkscape:stockid="Arrow2Mstart"
       orient="auto"
       refY="0"
       refX="0"
       id="Arrow2Mstart-2"
       style="overflow:visible">
      <path
         inkscape:connector-curvature="0"
         id="path5555-5"
         style="fill-rule:evenodd;stroke-width:0.625;stroke-linejoin:round"
         d="M 8.7185878,4.0337352 -2.2072895,0.01601326 8.7185884,-4.0017078 c -1.7454984,2.3720609 -1.7354408,5.6174519 -6e-7,8.035443 z"
         transform="scale(0.6,0.6)" />
    </marker>
    <marker
       inkscape:stockid="Arrow2Mend"
       orient="auto"
       refY="0"
       refX="0"
       id="Arrow2Mend-1"
       style="overflow:visible">
      <path
         inkscape:connector-curvature="0"
         id="path5558-2"
         style="fill-rule:evenodd;stroke-width:0.625;stroke-linejoin:round"
         d="M 8.7185878,4.0337352 -2.2072895,0.01601326 8.7185884,-4.0017078 c -1.7454984,2.3720609 -1.7354408,5.6174519 -6e-7,8.035443 z"
         transform="scale(-0.6,-0.6)" />
    </marker>
  </defs>
  <sodipodi:namedview
     id="base"
     pagecolor="#ffffff"
     bordercolor="#666666"
     borderopacity="1.0"
     inkscape:pageopacity="0.0"
     inkscape:pageshadow="2"
     inkscape:zoom="0.96778048"
     inkscape:cx="1428.6728"
     inkscape:cy="89.482092"
     inkscape:document-units="px"
     inkscape:current-layer="layer1"
     showgrid="false"
     inkscape:window-width="1280"
     inkscape:window-height="997"
     inkscape:window-x="0"
     inkscape:window-y="0"
     inkscape:window-maximized="1" />
  <metadata
     id="metadata3188">
    <rdf:RDF>
      <cc:Work
         rdf:about="">
        <dc:format>image/svg+xml</dc:format>
        <dc:type
           rdf:resource="http://purl.org/dc/dcmitype/StillImage" />
        <dc:title />
      </cc:Work>
    </rdf:RDF>
  </metadata>
  <g
     inkscape:label="Layer 1"
     inkscape:groupmode="layer"
     id="layer1">
    <text
       xml:space="preserve"
       style="font-size:10px;font-style:normal;font-variant:normal;font-weight:normal;font-stretch:normal;text-indent:0;text-align:start;text-decoration:none;line-height:125%;letter-spacing:0px;word-spacing:0px;text-transform:none;direction:ltr;block-progression:tb;writing-mode:lr-tb;text-anchor:start;baseline-shift:baseline;color:#000000;fill:#000000;fill-opacity:1;fill-rule:nonzero;stroke:none;stroke-width:0.99999994px;marker:none;visibility:visible;display:inline;overflow:visible;enable-background:accumulate;font-family:Sans;-inkscape-font-specification:Sans"
       x="1194.6364"
       y="797.97388"
       id="text5245"
       sodipodi:linespacing="125%"><tspan
         sodipodi:role="line"
         id="tspan5247" /></text>
    <rect
       style="fill:#dedede;fill-opacity:1;stroke:none"
       id="rect3979"
       width="184.25197"
       height="184.25197"
       x="1143.2103"
       y="857.52759" />
    <rect
       style="fill:#ffffff;fill-opacity:1;stroke:#000000;stroke-width:1;stroke-miterlimit:4;stroke-dasharray:none;stroke-dashoffset:0;stroke-opacity:1"
       id="rect4965-8"
       width="23.335938"
       height="133.79439"
       x="1223.4506"
       y="886.31952" />
    <g
       id="g4905"
       transform="translate(99.332349,25.98543)">
      <g
         transform="matrix(22.916878,0,0,-22.916878,1136.004,923.66814)"
         style="fill:none;stroke:#000000;stroke-width:0.05454495;stroke-linecap:round;stroke-linejoin:round;stroke-miterlimit:4;stroke-dasharray:none"
         id="fieldlines">
        <path
           style="stroke-width:0.05454495;stroke-miterlimit:4;stroke-dasharray:none"
           inkscape:connector-curvature="0"
           d="m -1,0 0.2745,0.0539 0.1487,0.0273 0.1153,0.019 0.0989,0.0141 0.0886,0.0105 0.0822,0.0074 0.0781,0.0048 0.0761,0.0023 0.0752,0 L 0.1136,0.137 0.1918,0.1322 0.274,0.1248 0.3626,0.1143 0.4615,0.1002 0.5768,0.0812 0.7255,0.0539 1,0"
           id="fieldline1" />
        <path
           style="stroke-width:0.05454495;stroke-miterlimit:4;stroke-dasharray:none"
           inkscape:connector-curvature="0"
           d="m -1,0 0.1748,0.1159 0.1004,0.0641 0.0805,0.0488 0.0704,0.04 0.0637,0.0336 0.0592,0.0285 0.0559,0.0242 0.0534,0.0206 0.0516,0.0173 0.0502,0.0143 0.0491,0.0115 0.0484,0.0088 0.0477,0.0062 0.0475,0.0037 L 0,0.4388 0.0472,0.4375 0.0946,0.4338 0.1424,0.4276 0.1908,0.4188 0.2399,0.4073 0.2901,0.393 0.3417,0.3757 0.3951,0.3551 0.451,0.3309 0.5101,0.3024 0.5739,0.2688 0.6443,0.2288 0.7248,0.18 0.8252,0.1159 1,0"
           id="fieldline2" />
        <path
           style="stroke-width:0.05454495;stroke-miterlimit:4;stroke-dasharray:none"
           inkscape:connector-curvature="0"
           d="m -1,0 0.1055,0.1566 0.0643,0.0916 0.0538,0.0729 0.049,0.0624 0.046,0.0548 0.044,0.0489 0.0428,0.0439 0.042,0.0396 0.0415,0.0359 0.0411,0.0324 0.041,0.0291 0.0408,0.0261 0.0408,0.0232 0.0408,0.0204 0.0407,0.0177 0.0409,0.0151 0.0408,0.0125 0.0409,0.0099 0.0409,0.0074 0.041,0.0049 0.0409,0.0025 0.041,0 L 0.0615,0.8053 0.1024,0.8004 0.1433,0.793 0.1842,0.7831 0.2251,0.7706 0.2659,0.7555 0.3067,0.7378 0.3474,0.7174 0.3882,0.6942 0.429,0.6681 0.47,0.6389 0.5111,0.6066 0.5526,0.5707 0.5946,0.531 0.6374,0.4871 0.6814,0.4383 0.7274,0.3835 0.7764,0.3211 0.8302,0.2482 0.8945,0.1566 1,0"
           id="fieldline3" />
        <path
           style="stroke-width:0.05454495;stroke-miterlimit:4;stroke-dasharray:none"
           inkscape:connector-curvature="0"
           d="m -1,0 0.0371,0.1824 0.0251,0.1124 0.0233,0.0934 0.023,0.0823 0.0234,0.0748 0.0243,0.0691 0.0252,0.0643 0.0263,0.0603 0.0275,0.0567 0.0286,0.0533 0.0299,0.0503 0.031,0.0472 0.0321,0.0444 0.0332,0.0417 0.0343,0.0389 0.0353,0.0362 0.0362,0.0336 0.0371,0.0309 0.0379,0.0283 0.0386,0.0257 0.0393,0.0231 0.0399,0.0206 0.0405,0.0179 0.0409,0.0154 0.0413,0.0128 0.0416,0.0102 0.0418,0.0077 0.0421,0.0051 0.0421,0.0026 0.0422,0 L 0.0632,1.339 0.1052,1.3339 0.1471,1.3262 0.1887,1.316 0.23,1.3032 0.2709,1.2878 0.3114,1.2699 0.3513,1.2493 0.3906,1.2262 0.4292,1.2005 0.4671,1.1722 0.5042,1.1413 0.5404,1.1077 0.5757,1.0715 0.61,1.0326 0.6432,0.9909 0.6753,0.9465 0.7063,0.8993 0.7362,0.849 0.7648,0.7957 0.7923,0.739 0.8186,0.6787 0.8438,0.6144 0.8681,0.5453 0.8915,0.4705 0.9145,0.3882 0.9378,0.2948 0.9629,0.1824 1,0"
           id="fieldline4" />
        <path
           style="stroke-width:0.05454495;stroke-miterlimit:4;stroke-dasharray:none"
           inkscape:connector-curvature="0"
           d="m -1,0 -0.0364,0.1871 -0.0213,0.1209 -0.016,0.1044 -0.0121,0.0951 -0.009,0.0892 -0.006,0.0849 -0.0033,0.0815 -7e-4,0.0787 0.0017,0.0763 0.0042,0.0741 0.0066,0.0721 0.0089,0.0702 0.0112,0.0683 0.0133,0.0665 0.0156,0.0647 0.0177,0.0628 0.0197,0.0609 0.0218,0.0591 0.0237,0.0572 0.0255,0.0551 0.0274,0.0532 0.0292,0.0512 0.0308,0.049 0.0325,0.0469 0.0339,0.0447 0.0354,0.0425 0.0368,0.0403 0.0381,0.038 0.0393,0.0357 0.0404,0.0333 0.0415,0.0309 0.0424,0.0286 0.0434,0.0261 0.0441,0.0237 0.0448,0.0212 0.0455,0.0188 0.046,0.0163 0.0465,0.0137 0.0469,0.0113 0.0472,0.0088 0.0475,0.0063 0.0476,0.0038 L 0,2.2746 0.0477,2.2734 0.0953,2.2696 0.1428,2.2633 0.1899,2.2545 0.2369,2.2432 0.2833,2.2295 0.3294,2.2132 0.3749,2.1944 0.4197,2.1732 0.4638,2.1495 0.5071,2.1234 0.5496,2.0948 0.5911,2.0639 0.6315,2.0306 0.6708,1.9949 0.7089,1.9569 0.7457,1.9166 0.7811,1.8741 0.815,1.8294 0.8475,1.7825 0.8783,1.7334 0.9075,1.6823 0.9349,1.6291 0.9604,1.574 0.9841,1.5168 1.0059,1.4577 1.0256,1.3968 1.0433,1.334 1.0589,1.2693 1.0722,1.2028 1.0834,1.1345 1.0923,1.0643 1.0989,0.9922 1.1031,0.9181 1.1048,0.8418 1.1041,0.7631 1.1008,0.6816 1.0948,0.5967 1.0858,0.5075 1.0737,0.4124 1.0577,0.308 1.0364,0.1871 1,0"
           id="fieldline5" />
        <path
           style="stroke-width:0.05454495;stroke-miterlimit:4;stroke-dasharray:none"
           inkscape:connector-curvature="0"
           d="m -1,0 -0.1142,0.1724 -0.0749,0.117 -0.064,0.1045 -0.0575,0.0983 -0.0525,0.0948 -0.0486,0.0927 -0.0451,0.0914 -0.0419,0.0904 -0.0389,0.0899 -0.036,0.0896 -0.0333,0.0892 -0.0305,0.0891 -0.0278,0.089 -0.0252,0.0887 -0.0226,0.0887 -0.0199,0.0884 -0.0174,0.0882 -0.0148,0.088 -0.0121,0.0876 -0.0097,0.0872 -0.007,0.0868 -0.0045,0.0862 -0.002,0.0857 5e-4,0.085 0.0029,0.0842 0.0055,0.0835 0.0079,0.0825 0.0103,0.0816 0.0126,0.0805 0.015,0.0794 0.0174,0.0782 0.0195,0.0769 0.0218,0.0756 0.024,0.0741 0.0261,0.0727 0.0282,0.0712 0.0303,0.0695 0.0322,0.0678 0.0342,0.0661 0.036,0.0643 0.0378,0.0625 0.0396,0.0605 0.0412,0.0586 0.0429,0.0566 0.0445,0.0545 0.046,0.0524 0.0474,0.0503 0.0487,0.0481 0.0501,0.0459 0.0513,0.0437 m 2.053,0 L 1.0778,3.9664 1.1279,3.9204 1.1766,3.8723 1.224,3.8221 1.27,3.7696 1.3144,3.7151 1.3573,3.6585 1.3986,3.5999 1.4382,3.5394 1.476,3.477 1.512,3.4126 1.5462,3.3465 1.5784,3.2787 1.6087,3.2092 1.6369,3.138 1.663,3.0654 1.687,2.9912 1.7088,2.9156 1.7283,2.8387 1.7457,2.7605 1.7607,2.6811 1.7733,2.6006 1.7836,2.519 1.7915,2.4365 1.797,2.353 1.7999,2.2688 1.8004,2.1838 1.7984,2.0981 1.7939,2.0119 1.7869,1.9251 1.7772,1.8379 1.7651,1.7503 1.7503,1.6623 1.7329,1.5741 1.713,1.4857 1.6904,1.397 1.6652,1.3082 1.6374,1.2193 1.6069,1.1302 1.5736,1.041 1.5376,0.9514 1.4987,0.8615 1.4568,0.7711 1.4117,0.6797 1.3631,0.587 1.3106,0.4922 1.2531,0.3939 1.1891,0.2894 1.1142,0.1724 1,0"
           id="fieldline6" />
        <path
           style="stroke-width:0.05454495;stroke-miterlimit:4;stroke-dasharray:none"
           inkscape:connector-curvature="0"
           d="M -1,0 -1.2025,0.1363 -1.3439,0.2342 -1.47,0.3245 -1.5883,0.4121 -1.7016,0.4991 -1.8112,0.5865 -1.918,0.6747 -2.0223,0.7642 -2.1245,0.8551 -2.2248,0.9476 -2.3232,1.0419 -2.4197,1.1378 -2.5145,1.2355 -2.6076,1.335 -2.6989,1.4363 -2.7885,1.5394 -2.8762,1.6442 -2.9621,1.7508 -3.0462,1.859 -3.1284,1.969 -3.2087,2.0805 -3.2871,2.1936 -3.3634,2.3082 -3.4377,2.4243 -3.51,2.5419 -3.5802,2.6608 -3.6482,2.781 -3.7141,2.9025 -3.7778,3.0251 -3.8393,3.149 -3.8985,3.2739 -3.9554,3.3998 -4.01,3.5267 m 8.02,0 L 3.9554,3.3998 3.8985,3.2739 3.8393,3.149 3.7778,3.0251 3.7141,2.9025 3.6482,2.781 3.5802,2.6608 3.51,2.5419 3.4377,2.4243 3.3634,2.3082 3.2871,2.1936 3.2087,2.0805 3.1284,1.9689 3.0462,1.859 2.9621,1.7508 2.8762,1.6442 2.7885,1.5394 2.6989,1.4363 2.6076,1.335 2.5145,1.2355 2.4197,1.1378 2.3231,1.0418 2.2248,0.9476 2.1245,0.8551 2.0223,0.7642 1.918,0.6747 1.8112,0.5865 1.7016,0.4991 1.5883,0.4121 1.47,0.3245 1.3439,0.2342 1.2025,0.1363 1,0"
           id="fieldline7" />
        <path
           style="stroke-width:0.05454495;stroke-miterlimit:4;stroke-dasharray:none"
           inkscape:connector-curvature="0"
           d="M -1,0 -1.3483,0.0701 -1.6091,0.1248 -1.853,0.1783 -2.091,0.2329 -2.3271,0.2895 -2.5631,0.3485 -2.8,0.4101 -3.0383,0.4746 -3.2783,0.5419 -3.5203,0.6123 -3.7641,0.6856 -4.01,0.7621 m 8.02,0 L 3.7641,0.6856 3.5203,0.6123 3.2783,0.5419 3.0383,0.4746 2.8,0.4101 2.5631,0.3485 2.3271,0.2895 2.091,0.2329 1.853,0.1783 1.6091,0.1248 1.3483,0.0701 1,0"
           id="fieldline8" />
        <path
           style="stroke-width:0.05454495;stroke-miterlimit:4;stroke-dasharray:none"
           inkscape:connector-curvature="0"
           d="M -1,0 -1.3483,-0.0701 -1.6091,-0.1248 -1.853,-0.1783 -2.091,-0.2329 -2.3271,-0.2895 -2.5631,-0.3485 -2.8,-0.4101 -3.0383,-0.4746 -3.2783,-0.5419 -3.5203,-0.6123 -3.7641,-0.6856 -4.01,-0.7621 m 8.02,0 -0.2459,0.0765 -0.2438,0.0733 -0.242,0.0704 -0.24,0.0673 L 2.8,-0.4101 2.5631,-0.3485 2.3271,-0.2895 2.091,-0.2329 1.853,-0.1783 1.6091,-0.1248 1.3483,-0.0701 1,0"
           id="fieldline9" />
        <path
           style="stroke-width:0.05454495;stroke-miterlimit:4;stroke-dasharray:none"
           inkscape:connector-curvature="0"
           d="M -1,0 -1.2025,-0.1363 -1.3439,-0.2342 -1.47,-0.3245 -1.5883,-0.4121 -1.7016,-0.4991 -1.8112,-0.5865 -1.918,-0.6747 -2.0223,-0.7642 -2.1245,-0.8551 -2.2248,-0.9476 -2.3232,-1.0419 -2.4197,-1.1378 -2.5145,-1.2355 -2.6076,-1.335 -2.6989,-1.4363 -2.7885,-1.5394 -2.8762,-1.6442 -2.9621,-1.7508 -3.0462,-1.859 -3.1284,-1.969 -3.2087,-2.0805 -3.2871,-2.1936 -3.3634,-2.3082 -3.4377,-2.4243 -3.51,-2.5419 -3.5802,-2.6608 -3.6482,-2.781 -3.7141,-2.9025 -3.7778,-3.0251 -3.8393,-3.149 -3.8985,-3.2739 -3.9554,-3.3998 -4.01,-3.5267 m 8.02,0 L 3.9554,-3.3998 3.8985,-3.2739 3.8393,-3.149 3.7778,-3.0251 3.7141,-2.9025 3.6482,-2.781 3.5802,-2.6608 3.51,-2.5419 3.4377,-2.4243 3.3634,-2.3082 3.2871,-2.1936 3.2087,-2.0805 3.1284,-1.9689 3.0462,-1.859 2.9621,-1.7508 2.8762,-1.6442 2.7885,-1.5394 2.6989,-1.4363 2.6076,-1.335 2.5145,-1.2355 2.4197,-1.1378 2.3231,-1.0418 2.2248,-0.9476 2.1245,-0.8551 2.0223,-0.7642 1.918,-0.6747 1.8112,-0.5865 1.7016,-0.4991 1.5883,-0.4121 1.47,-0.3245 1.3439,-0.2342 1.2025,-0.1363 1,0"
           id="fieldline10" />
        <path
           style="stroke-width:0.05454495;stroke-miterlimit:4;stroke-dasharray:none"
           inkscape:connector-curvature="0"
           d="m -1,0 -0.1142,-0.1724 -0.0749,-0.117 -0.064,-0.1045 -0.0575,-0.0983 -0.0525,-0.0948 -0.0486,-0.0927 -0.0451,-0.0914 -0.0419,-0.0904 -0.0389,-0.0899 -0.036,-0.0896 -0.0333,-0.0892 -0.0305,-0.0891 -0.0278,-0.089 -0.0252,-0.0887 -0.0226,-0.0887 -0.0199,-0.0884 -0.0174,-0.0882 -0.0148,-0.088 -0.0121,-0.0876 -0.0097,-0.0872 -0.007,-0.0868 -0.0045,-0.0862 -0.002,-0.0857 5e-4,-0.085 0.0029,-0.0842 0.0055,-0.0835 0.0079,-0.0825 0.0103,-0.0816 0.0126,-0.0805 0.015,-0.0794 0.0174,-0.0782 0.0195,-0.0769 0.0218,-0.0756 0.024,-0.0741 0.0261,-0.0727 0.0282,-0.0712 0.0303,-0.0695 0.0322,-0.0678 0.0342,-0.0661 0.036,-0.0643 0.0378,-0.0625 0.0396,-0.0605 0.0412,-0.0586 0.0429,-0.0566 0.0445,-0.0545 0.046,-0.0524 0.0474,-0.0503 0.0487,-0.0481 0.0501,-0.0459 0.0513,-0.0437 m 2.053,0 0.0513,0.0436 0.0501,0.046 0.0487,0.0481 0.0474,0.0502 0.046,0.0525 0.0444,0.0545 0.0429,0.0566 0.0413,0.0586 0.0396,0.0605 0.0378,0.0624 0.036,0.0644 0.0342,0.0661 0.0322,0.0678 0.0303,0.0695 0.0282,0.0712 0.0261,0.0726 0.024,0.0742 0.0218,0.0756 0.0195,0.0769 0.0174,0.0782 0.015,0.0794 0.0126,0.0805 0.0103,0.0816 0.0079,0.0825 0.0055,0.0835 0.0029,0.0842 5e-4,0.085 -0.002,0.0857 -0.0045,0.0862 -0.007,0.0868 -0.0097,0.0872 -0.0121,0.0876 -0.0148,0.088 L 1.7329,-1.5741 1.713,-1.4857 1.6904,-1.397 1.6652,-1.3082 1.6374,-1.2193 1.6069,-1.1302 1.5736,-1.041 1.5376,-0.9514 1.4987,-0.8615 1.4568,-0.7711 1.4117,-0.6797 1.3631,-0.587 1.3106,-0.4922 1.2531,-0.3939 1.1891,-0.2894 1.1142,-0.1724 1,0"
           id="fieldline11" />
        <path
           style="stroke-width:0.05454495;stroke-miterlimit:4;stroke-dasharray:none"
           inkscape:connector-curvature="0"
           d="m -1,0 -0.0364,-0.1871 -0.0213,-0.1209 -0.016,-0.1044 -0.0121,-0.0951 -0.009,-0.0892 -0.006,-0.0849 -0.0033,-0.0815 -7e-4,-0.0787 0.0017,-0.0763 0.0042,-0.0741 0.0066,-0.0721 0.0089,-0.0702 0.0112,-0.0683 0.0133,-0.0665 0.0156,-0.0647 0.0177,-0.0628 0.0197,-0.0609 0.0218,-0.0591 0.0237,-0.0572 0.0255,-0.0551 0.0274,-0.0532 0.0292,-0.0512 0.0308,-0.049 0.0325,-0.0469 0.0339,-0.0447 0.0354,-0.0425 0.0368,-0.0403 0.0381,-0.038 0.0393,-0.0357 0.0404,-0.0333 0.0415,-0.0309 0.0424,-0.0286 0.0434,-0.0261 0.0441,-0.0237 0.0448,-0.0212 0.0455,-0.0188 0.046,-0.0163 0.0465,-0.0137 0.0469,-0.0113 0.0472,-0.0088 0.0475,-0.0063 0.0476,-0.0038 L 0,-2.2746 l 0.0477,0.0012 0.0476,0.0038 0.0475,0.0063 0.0471,0.0088 0.047,0.0113 0.0464,0.0137 0.0461,0.0163 0.0455,0.0188 0.0448,0.0212 0.0441,0.0237 0.0433,0.0261 0.0425,0.0286 0.0415,0.0309 0.0404,0.0333 0.0393,0.0357 0.0381,0.038 0.0368,0.0403 0.0354,0.0425 0.0339,0.0447 0.0325,0.0469 0.0308,0.0491 0.0292,0.0511 0.0274,0.0532 0.0255,0.0551 0.0237,0.0572 0.0218,0.0591 0.0197,0.0609 0.0177,0.0628 0.0156,0.0647 0.0133,0.0665 0.0112,0.0683 0.0089,0.0702 0.0066,0.0721 0.0042,0.0741 0.0017,0.0763 -7e-4,0.0787 -0.0033,0.0815 -0.006,0.0849 -0.009,0.0892 L 1.0737,-0.4124 1.0577,-0.308 1.0364,-0.1871 1,0"
           id="fieldline12" />
        <path
           style="stroke-width:0.05454495;stroke-miterlimit:4;stroke-dasharray:none"
           inkscape:connector-curvature="0"
           d="m -1,0 0.0371,-0.1824 0.0251,-0.1124 0.0233,-0.0934 0.023,-0.0823 0.0234,-0.0748 0.0243,-0.0691 0.0252,-0.0643 0.0263,-0.0603 0.0275,-0.0567 0.0286,-0.0533 0.0299,-0.0503 0.031,-0.0472 0.0321,-0.0444 0.0332,-0.0417 0.0343,-0.0389 0.0353,-0.0362 0.0362,-0.0336 0.0371,-0.0309 0.0379,-0.0283 0.0386,-0.0257 0.0393,-0.0231 0.0399,-0.0206 0.0405,-0.0179 0.0409,-0.0154 0.0413,-0.0128 0.0416,-0.0102 0.0418,-0.0077 0.0421,-0.0051 0.0421,-0.0026 0.0422,0 0.0421,0.0026 0.042,0.0051 0.0419,0.0077 0.0416,0.0102 0.0413,0.0128 0.0409,0.0154 0.0405,0.0179 0.0399,0.0206 0.0393,0.0231 0.0386,0.0257 0.0379,0.0283 0.0371,0.0309 0.0362,0.0336 0.0353,0.0362 0.0343,0.0389 0.0332,0.0417 0.0321,0.0444 0.031,0.0472 0.0299,0.0503 0.0286,0.0533 0.0275,0.0567 0.0263,0.0603 0.0252,0.0643 0.0243,0.0691 0.0234,0.0748 0.023,0.0823 0.0233,0.0934 0.0251,0.1124 L 1,0"
           id="fieldline13" />
        <path
           style="stroke-width:0.05454495;stroke-miterlimit:4;stroke-dasharray:none"
           inkscape:connector-curvature="0"
           d="m -1,0 0.1055,-0.1566 0.0643,-0.0916 0.0538,-0.0729 0.049,-0.0624 0.046,-0.0548 0.044,-0.0489 0.0428,-0.0439 0.042,-0.0396 0.0415,-0.0359 0.0411,-0.0324 0.041,-0.0291 0.0408,-0.0261 0.0408,-0.0232 0.0408,-0.0204 0.0407,-0.0177 0.0409,-0.0151 0.0408,-0.0125 0.0409,-0.0099 0.0409,-0.0074 0.041,-0.0049 0.0409,-0.0025 0.041,0 0.041,0.0025 0.0409,0.0049 0.0409,0.0074 0.0409,0.0099 0.0409,0.0125 0.0408,0.0151 0.0408,0.0177 0.0407,0.0204 0.0408,0.0232 0.0408,0.0261 0.041,0.0292 0.0411,0.0323 0.0415,0.0359 0.042,0.0397 0.0428,0.0439 0.044,0.0488 0.046,0.0548 0.049,0.0624 0.0538,0.0729 0.0643,0.0916 L 1,0"
           id="fieldline14" />
        <path
           style="stroke-width:0.05454495;stroke-miterlimit:4;stroke-dasharray:none"
           inkscape:connector-curvature="0"
           d="m -1,0 0.1748,-0.1159 0.1004,-0.0641 0.0805,-0.0488 0.0704,-0.04 0.0637,-0.0336 0.0592,-0.0285 0.0559,-0.0242 0.0534,-0.0206 0.0516,-0.0173 0.0502,-0.0143 0.0491,-0.0115 0.0484,-0.0088 0.0477,-0.0062 0.0475,-0.0037 L 0,-0.4388 l 0.0472,0.0013 0.0474,0.0037 0.0478,0.0062 0.0484,0.0088 0.0491,0.0115 0.0502,0.0143 0.0516,0.0173 0.0534,0.0206 0.0559,0.0242 0.0591,0.0285 0.0638,0.0336 0.0704,0.04 L 0.7248,-0.18 0.8252,-0.1159 1,0"
           id="fieldline15" />
        <path
           style="stroke-width:0.05454495;stroke-miterlimit:4;stroke-dasharray:none"
           inkscape:connector-curvature="0"
           d="m -1,0 0.2745,-0.0539 0.1487,-0.0273 0.1153,-0.019 0.0989,-0.0141 0.0886,-0.0105 0.0822,-0.0074 0.0781,-0.0048 0.0761,-0.0023 0.0752,0 0.076,0.0023 0.0782,0.0048 0.0822,0.0074 0.0886,0.0105 0.0989,0.0141 0.1153,0.019 0.1487,0.0273 L 1,0"
           id="fieldline16" />
      </g>
      <path
         transform="matrix(0.72727272,0,0,0.72727272,304.9106,251.54261)"
         sodipodi:open="true"
         sodipodi:end="1.5699146"
         sodipodi:start="1.5707963"
         d="m 1111.1504,931.46302 a 6.8551059,6.8551059 0 0 1 -6.8551,-6.8536 6.8551059,6.8551059 0 0 1 6.8521,-6.85662 6.8551059,6.8551059 0 0 1 6.8581,6.85058 6.8551059,6.8551059 0 0 1 -6.8491,6.85963"
         sodipodi:ry="6.8551059"
         sodipodi:rx="6.8551059"
         sodipodi:cy="924.60791"
         sodipodi:cx="1111.1504"
         id="path4871"
         style="fill:#dedede;fill-opacity:1;stroke:none"
         sodipodi:type="arc" />
      <path
         transform="matrix(0.72727272,0,0,0.72727272,351.09009,251.33933)"
         sodipodi:open="true"
         sodipodi:end="1.5699146"
         sodipodi:start="1.5707963"
         d="m 1111.1504,931.46302 a 6.8551059,6.8551059 0 0 1 -6.8551,-6.8536 6.8551059,6.8551059 0 0 1 6.8521,-6.85662 6.8551059,6.8551059 0 0 1 6.8581,6.85058 6.8551059,6.8551059 0 0 1 -6.8491,6.85963"
         sodipodi:ry="6.8551059"
         sodipodi:rx="6.8551059"
         sodipodi:cy="924.60791"
         sodipodi:cx="1111.1504"
         id="path4871-8"
         style="fill:#dedede;fill-opacity:1;stroke:none"
         sodipodi:type="arc" />
    </g>
    <text
       xml:space="preserve"
       style="color:#000000;font-style:normal;font-variant:normal;font-weight:normal;font-stretch:normal;font-size:10px;line-height:125%;font-family:Sans;-inkscape-font-specification:Sans;text-indent:0;text-align:start;text-decoration:none;text-decoration-line:none;letter-spacing:0px;word-spacing:0px;text-transform:none;direction:ltr;block-progression:tb;writing-mode:lr-tb;baseline-shift:baseline;text-anchor:start;display:inline;overflow:visible;visibility:visible;fill:#000000;fill-opacity:1;fill-rule:nonzero;stroke:none;stroke-width:0.99999994px;marker:none;enable-background:accumulate"
       x="1208.0547"
       y="952.91089"
       id="text5175-80"
       sodipodi:linespacing="125%"><tspan
         sodipodi:role="line"
         id="tspan5177-6"
         x="1208.0547"
         y="952.91089">+</tspan></text>
    <path
       style="color:#000000;display:inline;overflow:visible;visibility:visible;fill:none;stroke:#000000;stroke-width:0.875;stroke-linecap:butt;stroke-linejoin:miter;stroke-miterlimit:4;stroke-dasharray:none;stroke-dashoffset:0;stroke-opacity:1;marker:none;enable-background:accumulate"
       d="m 1255.9054,949.86464 5.753,0"
       id="path5253-8-8"
       inkscape:connector-curvature="0"
       sodipodi:nodetypes="cc" />
    <text
       xml:space="preserve"
       style="color:#000000;font-style:normal;font-variant:normal;font-weight:normal;font-stretch:normal;font-size:10px;line-height:125%;font-family:Sans;-inkscape-font-specification:Sans;text-indent:0;text-align:start;text-decoration:none;text-decoration-line:none;letter-spacing:0px;word-spacing:0px;text-transform:none;direction:ltr;block-progression:tb;writing-mode:lr-tb;baseline-shift:baseline;text-anchor:start;display:inline;overflow:visible;visibility:visible;fill:#000000;fill-opacity:1;fill-rule:nonzero;stroke:none;stroke-width:0.99999994px;marker:none;enable-background:accumulate"
       x="1152.2485"
       y="873.37219"
       id="text5510"
       sodipodi:linespacing="125%"><tspan
         sodipodi:role="line"
         id="tspan5512"
         x="1152.2485"
         y="873.37219">1</tspan></text>
    <rect
       style="color:#000000;clip-rule:nonzero;display:inline;overflow:visible;visibility:visible;opacity:1;isolation:auto;mix-blend-mode:normal;color-interpolation:sRGB;color-interpolation-filters:linearRGB;solid-color:#000000;solid-opacity:1;fill:#dedede;fill-opacity:1;fill-rule:nonzero;stroke:none;stroke-width:0.875;stroke-linecap:butt;stroke-linejoin:miter;stroke-miterlimit:1;stroke-dasharray:none;stroke-dashoffset:0;stroke-opacity:1;color-rendering:auto;image-rendering:auto;shape-rendering:auto;text-rendering:auto;enable-background:accumulate"
       id="rect4319"
       width="3.1818583"
       height="36.883583"
       x="1427.0511"
       y="932.08398" />
    <rect
       style="fill:#dedede;fill-opacity:1;stroke:none"
       id="rect3979-6"
       width="184.25197"
       height="184.25197"
       x="1336.4797"
       y="858.25793" />
    <rect
       style="fill:#ffffff;fill-opacity:1;stroke:#000000;stroke-width:1;stroke-miterlimit:4;stroke-dasharray:none;stroke-dashoffset:0;stroke-opacity:1"
       id="rect4965"
       width="171.56772"
       height="26.769829"
       x="1343.6791"
       y="937.0177" />
    <g
       id="fieldlines-1"
       style="fill:none;stroke:#000000;stroke-width:0.05454495;stroke-linecap:round;stroke-linejoin:round;stroke-miterlimit:4;stroke-dasharray:none"
       transform="matrix(0,-22.916878,-22.916878,0,1428.6057,950.3839)">
      <path
         id="fieldline1-6"
         d="M 0,0 -1,0"
         inkscape:connector-curvature="0"
         style="stroke-width:0.05454495;stroke-miterlimit:4;stroke-dasharray:none" />
      <path
         id="fieldline2-3"
         d="M 0,0 1,0"
         inkscape:connector-curvature="0"
         style="stroke-width:0.05454495;stroke-miterlimit:4;stroke-dasharray:none" />
      <path
         id="fieldline3-3"
         d="M 4.01,0.3651 3.3651,0.2944 2.8383,0.2348 2.4001,0.1834 2.0254,0.1376 1.6932,0.0952 1.3793,0.0531 1,0"
         inkscape:connector-curvature="0"
         style="stroke-width:0.05454495;stroke-miterlimit:4;stroke-dasharray:none" />
      <path
         id="fieldline4-6"
         d="M 4.01,1.1319 3.5955,0.993 3.2355,0.8702 2.9199,0.7604 2.6408,0.6612 2.3915,0.5704 2.1667,0.4863 1.9615,0.4074 1.7717,0.3321 1.5926,0.2589 1.4187,0.1854 1.2393,0.1072 1,0"
         inkscape:connector-curvature="0"
         style="stroke-width:0.05454495;stroke-miterlimit:4;stroke-dasharray:none" />
      <path
         id="fieldline5-4"
         d="M 4.01,2.0195 3.6553,1.812 3.3439,1.6272 3.0688,1.4614 2.8243,1.3114 2.6058,1.1747 2.4092,1.0491 2.2313,0.9327 2.0692,0.8239 1.9203,0.7213 1.7825,0.6235 1.6537,0.5292 1.5316,0.437 1.4137,0.345 1.2963,0.2504 1.1719,0.1469 1,0"
         inkscape:connector-curvature="0"
         style="stroke-width:0.05454495;stroke-miterlimit:4;stroke-dasharray:none" />
      <path
         id="fieldline6-6"
         d="M 4.01,3.1541 3.675,2.8575 3.3818,2.5949 3.1237,2.3607 2.8953,2.1505 2.6922,1.9604 2.5109,1.7876 2.3482,1.6295 2.2017,1.4839 2.0692,1.3489 1.9488,1.2231 1.8389,1.1049 1.7382,0.9931 1.6453,0.8866 1.5592,0.7843 1.4786,0.6849 1.4025,0.5873 1.3296,0.4901 1.2585,0.3912 1.1868,0.2873 1.1097,0.1709 1,0"
         inkscape:connector-curvature="0"
         style="stroke-width:0.05454495;stroke-miterlimit:4;stroke-dasharray:none" />
      <path
         id="fieldline7-8"
         d="M 3.4205,4.01 3.1402,3.6423 2.8963,3.3186 2.6831,3.0318 2.4957,2.7761 2.3305,2.5467 2.1842,2.3398 2.0543,2.152 1.9385,1.9807 1.8351,1.8234 1.7423,1.6784 1.659,1.5438 1.584,1.4183 1.5163,1.3004 1.4551,1.1891 1.3994,1.0832 1.3488,0.9818 1.3025,0.8838 1.26,0.7884 1.2208,0.6945 1.1843,0.6009 1.1499,0.5061 1.1169,0.408 1.0842,0.3029 1.0496,0.1831 1,0"
         inkscape:connector-curvature="0"
         style="stroke-width:0.05454495;stroke-miterlimit:4;stroke-dasharray:none" />
      <path
         id="fieldline8-1"
         d="M 2.2639,4.01 2.0861,3.6443 1.933,3.3241 1.8006,3.0418 1.6857,2.7915 1.5857,2.5681 1.4984,2.3675 1.4221,2.1864 1.3553,2.0219 1.2969,1.8718 1.2458,1.734 1.2011,1.6068 1.1621,1.4889 1.1282,1.3787 1.0988,1.2753 1.0735,1.1774 1.0518,1.0843 1.0335,0.995 1.0182,0.9086 1.0057,0.8244 0.9959,0.7414 0.9885,0.6587 0.9836,0.5751 0.9809,0.4891 0.9807,0.3985 0.9829,0.2994 0.9882,0.1836 1,0"
         inkscape:connector-curvature="0"
         style="stroke-width:0.05454495;stroke-miterlimit:4;stroke-dasharray:none" />
      <path
         id="fieldline9-0"
         d="M 1.3013,4.01 1.1919,3.6052 1.1008,3.2592 1.0244,2.9608 0.9604,2.7016 0.9068,2.4748 0.8618,2.2751 0.8243,2.0981 0.7931,1.9403 0.7675,1.7986 0.7466,1.6706 0.7299,1.5542 0.717,1.448 0.7075,1.3503 0.701,1.2599 0.6973,1.1756 0.6961,1.0966 0.6973,1.0219 0.7008,0.9508 0.7065,0.8826 0.7144,0.8166 0.7245,0.7521 0.7369,0.6884 0.7518,0.6249 0.7693,0.5606 0.7898,0.4944 0.8139,0.4251 0.8426,0.3506 0.8774,0.267 0.9222,0.1664 1,0"
         inkscape:connector-curvature="0"
         style="stroke-width:0.05454495;stroke-miterlimit:4;stroke-dasharray:none" />
      <path
         id="fieldline10-3"
         d="M 0.4256,4.01 0.372,3.3867 0.3328,2.9047 0.304,2.5248 0.2832,2.2205 0.2685,1.9727 0.2585,1.7681 0.2524,1.5962 0.2496,1.4511 0.2494,1.3274 0.2515,1.2204 0.2557,1.1268 0.2618,1.0448 0.2695,0.9719 0.2787,0.9063 0.2895,0.847 0.3018,0.7929 0.3155,0.7429 0.3308,0.6964 0.3478,0.6527 0.3665,0.6111 0.3871,0.5712 0.41,0.5325 0.4353,0.4946 0.4635,0.4567 0.4952,0.4186 0.5309,0.3794 0.5718,0.3386 0.6192,0.2948 0.6754,0.2466 0.7441,0.1914 0.8349,0.1218 1,0"
         inkscape:connector-curvature="0"
         style="stroke-width:0.05454495;stroke-miterlimit:4;stroke-dasharray:none" />
      <path
         id="fieldline11-0"
         d="m -0.4256,4.01 0.0536,-0.6233 0.0392,-0.482 0.0288,-0.3799 0.0208,-0.3043 0.0147,-0.2478 0.01,-0.2046 0.0061,-0.1719 0.0028,-0.1451 2e-4,-0.1237 L -0.2515,1.2204 -0.2557,1.1268 -0.2618,1.0448 -0.2695,0.9719 -0.2787,0.9063 -0.2895,0.847 -0.3018,0.7929 -0.3155,0.7429 -0.3308,0.6964 -0.3478,0.6527 -0.3665,0.6111 -0.3871,0.5712 -0.41,0.5325 -0.4353,0.4946 -0.4635,0.4567 -0.4952,0.4186 -0.5309,0.3794 -0.5718,0.3386 -0.6192,0.2948 -0.6754,0.2466 -0.7441,0.1914 -0.8349,0.1218 -1,0"
         inkscape:connector-curvature="0"
         style="stroke-width:0.05454495;stroke-miterlimit:4;stroke-dasharray:none" />
      <path
         id="fieldline12-0"
         d="m -1.3013,4.01 0.1094,-0.4048 0.0911,-0.346 0.0764,-0.2984 0.064,-0.2592 0.0536,-0.2268 0.045,-0.1997 0.0375,-0.177 0.0312,-0.1578 0.0256,-0.1417 0.0209,-0.128 L -0.7299,1.5542 -0.717,1.448 -0.7075,1.3503 -0.701,1.2599 -0.6973,1.1756 -0.6961,1.0966 -0.6973,1.0219 -0.7008,0.9508 -0.7065,0.8826 -0.7144,0.8166 -0.7245,0.7521 -0.7369,0.6884 -0.7518,0.6249 -0.7693,0.5606 -0.7898,0.4944 -0.8139,0.4251 -0.8426,0.3506 -0.8774,0.267 -0.9222,0.1664 -1,0"
         inkscape:connector-curvature="0"
         style="stroke-width:0.05454495;stroke-miterlimit:4;stroke-dasharray:none" />
      <path
         id="fieldline13-1"
         d="m -2.2639,4.01 0.1778,-0.3657 0.1531,-0.3202 0.1324,-0.2823 0.1149,-0.2503 0.1,-0.2234 0.0873,-0.2006 0.0763,-0.1811 0.0668,-0.1645 0.0584,-0.1501 0.0511,-0.1378 0.0447,-0.1272 0.039,-0.1179 0.0339,-0.1102 0.0294,-0.1034 0.0253,-0.0979 0.0217,-0.0931 0.0183,-0.0893 0.0153,-0.0864 0.0125,-0.0842 0.0098,-0.083 0.0074,-0.0827 0.0049,-0.0836 0.0027,-0.086 2e-4,-0.0906 L -0.9829,0.2994 -0.9882,0.1836 -1,0"
         inkscape:connector-curvature="0"
         style="stroke-width:0.05454495;stroke-miterlimit:4;stroke-dasharray:none" />
      <path
         id="fieldline14-5"
         d="M -3.4205,4.01 -3.1402,3.6423 -2.8963,3.3186 -2.6831,3.0318 -2.4957,2.7761 -2.3305,2.5467 -2.1842,2.3398 -2.0543,2.152 -1.9385,1.9807 -1.8351,1.8234 -1.7423,1.6784 -1.659,1.5438 -1.584,1.4183 -1.5163,1.3004 -1.4551,1.1891 -1.3994,1.0832 -1.3488,0.9818 -1.3025,0.8838 -1.26,0.7884 -1.2208,0.6945 -1.1843,0.6009 -1.1499,0.5061 -1.1169,0.408 -1.0842,0.3029 -1.0496,0.1831 -1,0"
         inkscape:connector-curvature="0"
         style="stroke-width:0.05454495;stroke-miterlimit:4;stroke-dasharray:none" />
      <path
         id="fieldline15-7"
         d="M -4.01,3.1541 -3.675,2.8575 -3.3818,2.5949 -3.1237,2.3607 -2.8953,2.1505 -2.6922,1.9604 -2.5109,1.7876 -2.3482,1.6295 -2.2017,1.4839 -2.0692,1.3489 -1.9488,1.2231 -1.8389,1.1049 -1.7382,0.9931 -1.6453,0.8866 -1.5592,0.7843 -1.4786,0.6849 -1.4025,0.5873 -1.3296,0.4901 -1.2585,0.3912 -1.1868,0.2873 -1.1097,0.1709 -1,0"
         inkscape:connector-curvature="0"
         style="stroke-width:0.05454495;stroke-miterlimit:4;stroke-dasharray:none" />
      <path
         id="fieldline16-5"
         d="M -4.01,2.0195 -3.6553,1.812 -3.3439,1.6272 -3.0688,1.4614 -2.8243,1.3114 -2.6058,1.1747 -2.4092,1.0491 -2.2313,0.9327 -2.0692,0.8239 -1.9203,0.7213 -1.7825,0.6235 -1.6537,0.5292 -1.5316,0.437 -1.4137,0.345 -1.2963,0.2504 -1.1719,0.1469 -1,0"
         inkscape:connector-curvature="0"
         style="stroke-width:0.05454495;stroke-miterlimit:4;stroke-dasharray:none" />
      <path
         id="fieldline17"
         d="M -4.01,1.1319 -3.5955,0.993 -3.2355,0.8702 -2.9199,0.7604 -2.6408,0.6612 -2.3915,0.5704 -2.1667,0.4863 -1.9615,0.4074 -1.7717,0.3321 -1.5926,0.2589 -1.4187,0.1854 -1.2393,0.1072 -1,0"
         inkscape:connector-curvature="0"
         style="stroke-width:0.05454495;stroke-miterlimit:4;stroke-dasharray:none" />
      <path
         id="fieldline18"
         d="M -4.01,0.3651 -3.3651,0.2944 -2.8383,0.2348 -2.4001,0.1834 -2.0254,0.1376 -1.6932,0.0952 -1.3793,0.0531 -1,0"
         inkscape:connector-curvature="0"
         style="stroke-width:0.05454495;stroke-miterlimit:4;stroke-dasharray:none" />
      <path
         id="fieldline19"
         d="m -4.01,-0.3651 0.6449,0.0707 0.5268,0.0596 0.4382,0.0514 0.3747,0.0458 0.3322,0.0424 0.3139,0.0421 L -1,0"
         inkscape:connector-curvature="0"
         style="stroke-width:0.05454495;stroke-miterlimit:4;stroke-dasharray:none" />
      <path
         id="fieldline20"
         d="m -4.01,-1.1319 0.4145,0.1389 0.36,0.1228 0.3156,0.1098 0.2791,0.0992 0.2493,0.0908 0.2248,0.0841 0.2052,0.0789 0.1898,0.0753 0.1791,0.0732 0.1739,0.0735 0.1794,0.0782 L -1,0"
         inkscape:connector-curvature="0"
         style="stroke-width:0.05454495;stroke-miterlimit:4;stroke-dasharray:none" />
      <path
         id="fieldline21"
         d="m -4.01,-2.0195 0.3547,0.2075 0.3114,0.1848 0.2751,0.1658 0.2445,0.15 0.2185,0.1367 0.1966,0.1256 0.1779,0.1164 0.1621,0.1088 0.1489,0.1026 0.1378,0.0978 0.1288,0.0943 0.1221,0.0922 0.1179,0.092 0.1174,0.0946 0.1244,0.1035 L -1,0"
         inkscape:connector-curvature="0"
         style="stroke-width:0.05454495;stroke-miterlimit:4;stroke-dasharray:none" />
      <path
         id="fieldline22"
         d="m -4.01,-3.1541 0.335,0.2966 0.2932,0.2626 0.2581,0.2342 0.2284,0.2102 0.2031,0.1901 0.1813,0.1728 0.1627,0.1581 0.1465,0.1456 0.1325,0.135 0.1204,0.1258 0.1099,0.1182 0.1007,0.1118 0.0929,0.1065 0.0861,0.1023 0.0806,0.0994 0.0761,0.0976 0.0729,0.0972 0.0711,0.0989 0.0717,0.1039 0.0771,0.1164 L -1,0"
         inkscape:connector-curvature="0"
         style="stroke-width:0.05454495;stroke-miterlimit:4;stroke-dasharray:none" />
      <path
         id="fieldline23"
         d="m -3.4205,-4.01 0.2803,0.3677 0.2439,0.3237 0.2132,0.2868 0.1874,0.2557 0.1652,0.2294 0.1463,0.2069 0.1299,0.1878 0.1158,0.1713 0.1034,0.1573 0.0928,0.145 0.0833,0.1346 0.075,0.1255 0.0677,0.1179 0.0612,0.1113 0.0557,0.1059 0.0506,0.1014 0.0463,0.098 0.0425,0.0954 0.0392,0.0939 0.0365,0.0936 0.0344,0.0948 0.033,0.0981 0.0327,0.1051 0.0346,0.1198 L -1,0"
         inkscape:connector-curvature="0"
         style="stroke-width:0.05454495;stroke-miterlimit:4;stroke-dasharray:none" />
      <path
         id="fieldline24"
         d="m -2.2639,-4.01 0.1778,0.3657 0.1531,0.3202 0.1324,0.2823 0.1149,0.2503 0.1,0.2234 0.0873,0.2006 0.0763,0.1811 0.0668,0.1645 0.0584,0.1501 0.0511,0.1378 0.0447,0.1272 0.039,0.1179 0.0339,0.1102 0.0294,0.1034 0.0253,0.0979 0.0217,0.0931 0.0183,0.0893 0.0153,0.0864 0.0125,0.0842 0.0098,0.083 0.0074,0.0827 0.0049,0.0836 0.0027,0.086 2e-4,0.0906 -0.0022,0.0991 -0.0053,0.1158 L -1,0"
         inkscape:connector-curvature="0"
         style="stroke-width:0.05454495;stroke-miterlimit:4;stroke-dasharray:none" />
      <path
         id="fieldline25"
         d="m -1.3013,-4.01 0.1094,0.4048 0.0911,0.346 0.0764,0.2984 0.064,0.2592 0.0536,0.2268 0.045,0.1997 0.0375,0.177 0.0312,0.1578 0.0256,0.1417 0.0209,0.128 0.0167,0.1164 0.0129,0.1062 0.0095,0.0977 0.0065,0.0904 0.0037,0.0843 0.0012,0.079 -0.0012,0.0747 -0.0035,0.0711 -0.0057,0.0682 -0.0079,0.066 -0.0101,0.0645 -0.0124,0.0637 -0.0149,0.0635 -0.0175,0.0643 -0.0205,0.0662 -0.0241,0.0693 -0.0287,0.0745 -0.0348,0.0836 -0.0448,0.1006 L -1,0"
         inkscape:connector-curvature="0"
         style="stroke-width:0.05454495;stroke-miterlimit:4;stroke-dasharray:none" />
      <path
         id="fieldline26"
         d="m -0.4256,-4.01 0.0536,0.6233 0.0392,0.482 0.0288,0.3799 0.0208,0.3043 0.0147,0.2478 0.01,0.2046 0.0061,0.1719 0.0028,0.1451 2e-4,0.1237 -0.0021,0.107 -0.0042,0.0936 -0.0061,0.082 -0.0077,0.0729 -0.0092,0.0656 -0.0108,0.0593 -0.0123,0.0541 -0.0137,0.05 -0.0153,0.0465 -0.017,0.0437 -0.0187,0.0416 -0.0206,0.0399 -0.0229,0.0387 -0.0253,0.0379 -0.0282,0.0379 -0.0317,0.0381 -0.0357,0.0392 -0.0409,0.0408 -0.0474,0.0438 -0.0562,0.0482 -0.0687,0.0552 -0.0908,0.0696 L -1,0"
         inkscape:connector-curvature="0"
         style="stroke-width:0.05454495;stroke-miterlimit:4;stroke-dasharray:none" />
      <path
         id="fieldline27"
         d="m 0.4256,-4.01 -0.0536,0.6233 -0.0392,0.482 -0.0288,0.3799 -0.0208,0.3043 -0.0147,0.2478 -0.01,0.2046 -0.0061,0.1719 -0.0028,0.1451 -2e-4,0.1237 0.0021,0.107 0.0042,0.0936 0.0061,0.082 0.0077,0.0729 0.0092,0.0656 0.0108,0.0593 0.0123,0.0541 0.0137,0.05 0.0153,0.0465 0.017,0.0437 0.0187,0.0416 0.0206,0.0399 0.0229,0.0387 0.0253,0.0379 0.0282,0.0379 0.0317,0.0381 0.0357,0.0392 0.0409,0.0408 0.0474,0.0438 0.0562,0.0482 0.0687,0.0552 0.0908,0.0696 L 1,0"
         inkscape:connector-curvature="0"
         style="stroke-width:0.05454495;stroke-miterlimit:4;stroke-dasharray:none" />
      <path
         id="fieldline28"
         d="m 1.3013,-4.01 -0.1094,0.4048 -0.0911,0.346 -0.0764,0.2984 -0.064,0.2592 -0.0536,0.2268 -0.045,0.1997 -0.0375,0.177 -0.0312,0.1578 -0.0256,0.1417 -0.0209,0.128 -0.0167,0.1164 -0.0129,0.1062 -0.0095,0.0977 -0.0065,0.0904 -0.0037,0.0843 -0.0012,0.079 0.0012,0.0747 0.0035,0.0711 0.0057,0.0682 0.0079,0.066 0.0101,0.0645 0.0124,0.0637 0.0149,0.0635 0.0175,0.0643 0.0205,0.0662 0.0241,0.0693 0.0287,0.0745 0.0348,0.0836 0.0448,0.1006 L 1,0"
         inkscape:connector-curvature="0"
         style="stroke-width:0.05454495;stroke-miterlimit:4;stroke-dasharray:none" />
      <path
         id="fieldline29"
         d="m 2.2639,-4.01 -0.1778,0.3657 -0.1531,0.3202 -0.1324,0.2823 -0.1149,0.2503 -0.1,0.2234 -0.0873,0.2006 -0.0763,0.1811 -0.0668,0.1645 -0.0584,0.1501 -0.0511,0.1378 -0.0447,0.1272 -0.039,0.1179 -0.0339,0.1102 -0.0294,0.1034 -0.0253,0.0979 -0.0217,0.0931 -0.0183,0.0893 -0.0153,0.0864 -0.0125,0.0842 -0.0098,0.083 -0.0074,0.0827 -0.0049,0.0836 -0.0027,0.086 -2e-4,0.0906 0.0022,0.0991 0.0053,0.1158 L 1,0"
         inkscape:connector-curvature="0"
         style="stroke-width:0.05454495;stroke-miterlimit:4;stroke-dasharray:none" />
      <path
         id="fieldline30"
         d="M 3.4205,-4.01 3.1402,-3.6423 2.8963,-3.3186 2.6831,-3.0318 2.4957,-2.7761 2.3305,-2.5467 2.1842,-2.3398 2.0543,-2.152 1.9385,-1.9807 1.8351,-1.8234 1.7423,-1.6784 1.659,-1.5438 1.584,-1.4183 1.5163,-1.3004 1.4551,-1.1891 1.3994,-1.0832 1.3488,-0.9818 1.3025,-0.8838 1.26,-0.7884 1.2208,-0.6945 1.1843,-0.6009 1.1499,-0.5061 1.1169,-0.408 1.0842,-0.3029 1.0496,-0.1831 1,0"
         inkscape:connector-curvature="0"
         style="stroke-width:0.05454495;stroke-miterlimit:4;stroke-dasharray:none" />
      <path
         id="fieldline31"
         d="M 4.01,-3.1541 3.675,-2.8575 3.3818,-2.5949 3.1237,-2.3607 2.8953,-2.1505 2.6922,-1.9604 2.5109,-1.7876 2.3482,-1.6295 2.2017,-1.4839 2.0692,-1.3489 1.9488,-1.2231 1.8389,-1.1049 1.7382,-0.9931 1.6453,-0.8866 1.5592,-0.7843 1.4786,-0.6849 1.4025,-0.5873 1.3296,-0.4901 1.2585,-0.3912 1.1868,-0.2873 1.1097,-0.1709 1,0"
         inkscape:connector-curvature="0"
         style="stroke-width:0.05454495;stroke-miterlimit:4;stroke-dasharray:none" />
      <path
         id="fieldline32"
         d="M 4.01,-2.0195 3.6553,-1.812 3.3439,-1.6272 3.0688,-1.4614 2.8243,-1.3114 2.6058,-1.1747 2.4092,-1.0491 2.2313,-0.9327 2.0692,-0.8239 1.9203,-0.7213 1.7825,-0.6235 1.6537,-0.5292 1.5316,-0.437 1.4137,-0.345 1.2963,-0.2504 1.1719,-0.1469 1,0"
         inkscape:connector-curvature="0"
         style="stroke-width:0.05454495;stroke-miterlimit:4;stroke-dasharray:none" />
      <path
         id="fieldline33"
         d="M 4.01,-1.1319 3.5955,-0.993 3.2355,-0.8702 2.9199,-0.7604 2.6408,-0.6612 2.3915,-0.5704 2.1667,-0.4863 1.9615,-0.4074 1.7717,-0.3321 1.5926,-0.2589 1.4187,-0.1854 1.2393,-0.1072 1,0"
         inkscape:connector-curvature="0"
         style="stroke-width:0.05454495;stroke-miterlimit:4;stroke-dasharray:none" />
      <path
         id="fieldline34"
         d="M 4.01,-0.3651 3.3651,-0.2944 2.8383,-0.2348 2.4001,-0.1834 2.0254,-0.1376 1.6932,-0.0952 1.3793,-0.0531 1,0"
         inkscape:connector-curvature="0"
         style="stroke-width:0.05454495;stroke-miterlimit:4;stroke-dasharray:none" />
    </g>
    <path
       sodipodi:type="arc"
       style="fill:#dedede;fill-opacity:1;stroke:none"
       id="path4871-2"
       sodipodi:cx="1428.4131"
       sodipodi:cy="927.40735"
       sodipodi:rx="4.9855313"
       sodipodi:ry="4.9855313"
       d="m 1428.4131,932.39288 a 4.9855313,4.9855313 0 0 1 -4.9855,-4.98443 4.9855313,4.9855313 0 0 1 4.9833,-4.98663 4.9855313,4.9855313 0 0 1 4.9877,4.98223 4.9855313,4.9855313 0 0 1 -4.9811,4.98883"
       sodipodi:start="1.5707963"
       sodipodi:end="1.5699146"
       sodipodi:open="true" />
    <path
       sodipodi:type="arc"
       style="fill:#dedede;fill-opacity:1;stroke:none"
       id="path4871-7"
       sodipodi:cx="1428.6797"
       sodipodi:cy="973.23029"
       sodipodi:rx="4.9855313"
       sodipodi:ry="4.9855313"
       d="m 1428.6797,978.21582 a 4.9855313,4.9855313 0 0 1 -4.9855,-4.98444 4.9855313,4.9855313 0 0 1 4.9833,-4.98663 4.9855313,4.9855313 0 0 1 4.9877,4.98224 4.9855313,4.9855313 0 0 1 -4.9811,4.98883"
       sodipodi:start="1.5707963"
       sodipodi:end="1.5699146"
       sodipodi:open="true" />
    <text
       xml:space="preserve"
       style="color:#000000;font-style:normal;font-variant:normal;font-weight:normal;font-stretch:normal;font-size:10px;line-height:125%;font-family:Sans;-inkscape-font-specification:Sans;text-indent:0;text-align:start;text-decoration:none;text-decoration-line:none;letter-spacing:0px;word-spacing:0px;text-transform:none;direction:ltr;block-progression:tb;writing-mode:lr-tb;baseline-shift:baseline;text-anchor:start;display:inline;overflow:visible;visibility:visible;fill:#000000;fill-opacity:1;fill-rule:nonzero;stroke:none;stroke-width:0.99999994px;marker:none;enable-background:accumulate"
       x="1424.3406"
       y="930.57239"
       id="text5175-80-4"
       sodipodi:linespacing="125%"><tspan
         sodipodi:role="line"
         id="tspan5177-6-5"
         x="1424.3406"
         y="930.57239">+</tspan></text>
    <text
       xml:space="preserve"
       style="color:#000000;font-style:normal;font-variant:normal;font-weight:normal;font-stretch:normal;font-size:10px;line-height:125%;font-family:Sans;-inkscape-font-specification:Sans;text-indent:0;text-align:start;text-decoration:none;text-decoration-line:none;letter-spacing:0px;word-spacing:0px;text-transform:none;direction:ltr;block-progression:tb;writing-mode:lr-tb;baseline-shift:baseline;text-anchor:start;display:inline;overflow:visible;visibility:visible;fill:#000000;fill-opacity:1;fill-rule:nonzero;stroke:none;stroke-width:0.99999994px;marker:none;enable-background:accumulate"
       x="1424.4601"
       y="976.58008"
       id="text5175-80-3"
       sodipodi:linespacing="125%"><tspan
         sodipodi:role="line"
         id="tspan5177-6-8"
         x="1424.4601"
         y="976.58008">+</tspan></text>
    <rect
       style="fill:#dedede;fill-opacity:1;stroke:none"
       id="rect5518"
       width="10.558419"
       height="7.5125027"
       x="1343.2856"
       y="867.02814" />
    <text
       xml:space="preserve"
       style="color:#000000;font-style:normal;font-variant:normal;font-weight:normal;font-stretch:normal;font-size:10px;line-height:125%;font-family:Sans;-inkscape-font-specification:Sans;text-indent:0;text-align:start;text-decoration:none;text-decoration-line:none;letter-spacing:0px;word-spacing:0px;text-transform:none;direction:ltr;block-progression:tb;writing-mode:lr-tb;baseline-shift:baseline;text-anchor:start;display:inline;overflow:visible;visibility:visible;fill:#000000;fill-opacity:1;fill-rule:nonzero;stroke:none;stroke-width:0.99999994px;marker:none;enable-background:accumulate"
       x="1345.562"
       y="871.65521"
       id="text5514"
       sodipodi:linespacing="125%"><tspan
         sodipodi:role="line"
         id="tspan5516"
         x="1345.562"
         y="871.65521">2</tspan></text>
    <rect
       style="color:#000000;clip-rule:nonzero;display:inline;overflow:visible;visibility:visible;opacity:1;isolation:auto;mix-blend-mode:normal;color-interpolation:sRGB;color-interpolation-filters:linearRGB;solid-color:#000000;solid-opacity:1;fill:#dedede;fill-opacity:1;fill-rule:nonzero;stroke:none;stroke-width:0.875;stroke-linecap:butt;stroke-linejoin:miter;stroke-miterlimit:1;stroke-dasharray:none;stroke-dashoffset:0;stroke-opacity:1;color-rendering:auto;image-rendering:auto;shape-rendering:auto;text-rendering:auto;enable-background:accumulate"
       id="rect4587"
       width="2.4659367"
       height="5.3885283"
       x="1427.412"
       y="931.07458" />
    <rect
       style="color:#000000;clip-rule:nonzero;display:inline;overflow:visible;visibility:visible;opacity:1;isolation:auto;mix-blend-mode:normal;color-interpolation:sRGB;color-interpolation-filters:linearRGB;solid-color:#000000;solid-opacity:1;fill:#dedede;fill-opacity:1;fill-rule:nonzero;stroke:none;stroke-width:0.875;stroke-linecap:butt;stroke-linejoin:miter;stroke-miterlimit:1;stroke-dasharray:none;stroke-dashoffset:0;stroke-opacity:1;color-rendering:auto;image-rendering:auto;shape-rendering:auto;text-rendering:auto;enable-background:accumulate"
       id="rect4587-3"
       width="2.4659367"
       height="5.3885283"
       x="1427.4576"
       y="964.27344" />
    <rect
       style="color:#000000;clip-rule:nonzero;display:inline;overflow:visible;visibility:visible;opacity:1;isolation:auto;mix-blend-mode:normal;color-interpolation:sRGB;color-interpolation-filters:linearRGB;solid-color:#000000;solid-opacity:1;fill:#ffffff;fill-opacity:1;fill-rule:nonzero;stroke:none;stroke-width:0.875;stroke-linecap:butt;stroke-linejoin:miter;stroke-miterlimit:1;stroke-dasharray:none;stroke-dashoffset:0;stroke-opacity:1;color-rendering:auto;image-rendering:auto;shape-rendering:auto;text-rendering:auto;enable-background:accumulate"
       id="rect4587-3-6"
       width="2.4659367"
       height="25.664007"
       x="1427.3663"
       y="937.51349" />
  </g>
</svg>
