<?xml version="1.0" encoding="UTF-8" standalone="no"?>
<!-- Created with Inkscape (http://www.inkscape.org/) -->

<svg
   xmlns:dc="http://purl.org/dc/elements/1.1/"
   xmlns:cc="http://creativecommons.org/ns#"
   xmlns:rdf="http://www.w3.org/1999/02/22-rdf-syntax-ns#"
   xmlns:svg="http://www.w3.org/2000/svg"
   xmlns="http://www.w3.org/2000/svg"
   xmlns:sodipodi="http://sodipodi.sourceforge.net/DTD/sodipodi-0.dtd"
   xmlns:inkscape="http://www.inkscape.org/namespaces/inkscape"
   width="210mm"
   height="297mm"
   viewBox="0 0 744.09448819 1052.3622047"
   id="svg2"
   version="1.1"
   sodipodi:docname="drawing.svg">
  <defs
     id="defs4" />
  <sodipodi:namedview
     id="base"
     pagecolor="#ffffff"
     bordercolor="#666666"
     borderopacity="1.0"
     inkscape:pageopacity="0.0"
     inkscape:pageshadow="2"
     inkscape:zoom="0.55685123"
     inkscape:cx="680.73757"
     inkscape:cy="460.93567"
     inkscape:document-units="px"
     inkscape:current-layer="layer1"
     showgrid="false"
     inkscape:window-width="1280"
     inkscape:window-height="997"
     inkscape:window-x="0"
     inkscape:window-y="0"
     inkscape:window-maximized="1" />
  <metadata
     id="metadata7">
    <rdf:RDF>
      <cc:Work
         rdf:about="">
        <dc:format>image/svg+xml</dc:format>
        <dc:type
           rdf:resource="http://purl.org/dc/dcmitype/StillImage" />
        <dc:title></dc:title>
      </cc:Work>
    </rdf:RDF>
  </metadata>
  <g
     inkscape:label="Layer 1"
     inkscape:groupmode="layer"
     id="layer1">
    <rect
       style="color:#000000;clip-rule:nonzero;display:inline;overflow:visible;visibility:visible;opacity:1;isolation:auto;mix-blend-mode:normal;color-interpolation:sRGB;color-interpolation-filters:linearRGB;solid-color:#000000;solid-opacity:1;fill:#dedede;fill-opacity:1;fill-rule:nonzero;stroke:none;stroke-width:0.875;stroke-linecap:butt;stroke-linejoin:miter;stroke-miterlimit:1;stroke-dasharray:none;stroke-dashoffset:0;stroke-opacity:1;color-rendering:auto;image-rendering:auto;shape-rendering:auto;text-rendering:auto;enable-background:accumulate"
       id="rect4138"
       width="115.19967"
       height="112.15533"
       x="86.912788"
       y="383.68958" />
    <rect
       style="color:#000000;clip-rule:nonzero;display:inline;overflow:visible;visibility:visible;opacity:1;isolation:auto;mix-blend-mode:normal;color-interpolation:sRGB;color-interpolation-filters:linearRGB;solid-color:#000000;solid-opacity:1;fill:#dedede;fill-opacity:1;fill-rule:nonzero;stroke:none;stroke-width:0.875;stroke-linecap:butt;stroke-linejoin:miter;stroke-miterlimit:1;stroke-dasharray:none;stroke-dashoffset:0;stroke-opacity:1;color-rendering:auto;image-rendering:auto;shape-rendering:auto;text-rendering:auto;enable-background:accumulate"
       id="rect4138-3"
       width="115.19967"
       height="112.15533"
       x="209.58926"
       y="383.68958" />
    <rect
       style="color:#000000;clip-rule:nonzero;display:inline;overflow:visible;visibility:visible;opacity:1;isolation:auto;mix-blend-mode:normal;color-interpolation:sRGB;color-interpolation-filters:linearRGB;solid-color:#000000;solid-opacity:1;fill:#dedede;fill-opacity:1;fill-rule:nonzero;stroke:none;stroke-width:0.875;stroke-linecap:butt;stroke-linejoin:miter;stroke-miterlimit:1;stroke-dasharray:none;stroke-dashoffset:0;stroke-opacity:1;color-rendering:auto;image-rendering:auto;shape-rendering:auto;text-rendering:auto;enable-background:accumulate"
       id="rect4138-6"
       width="115.19967"
       height="112.15533"
       x="332.26572"
       y="383.68958" />
    <rect
       style="color:#000000;clip-rule:nonzero;display:inline;overflow:visible;visibility:visible;opacity:1;isolation:auto;mix-blend-mode:normal;color-interpolation:sRGB;color-interpolation-filters:linearRGB;solid-color:#000000;solid-opacity:1;fill:#dedede;fill-opacity:1;fill-rule:nonzero;stroke:none;stroke-width:0.875;stroke-linecap:butt;stroke-linejoin:miter;stroke-miterlimit:1;stroke-dasharray:none;stroke-dashoffset:0;stroke-opacity:1;color-rendering:auto;image-rendering:auto;shape-rendering:auto;text-rendering:auto;enable-background:accumulate"
       id="rect4138-7"
       width="115.19967"
       height="112.15533"
       x="454.94217"
       y="383.68958" />
    <path
       style="color:#000000;clip-rule:nonzero;display:inline;overflow:visible;visibility:visible;opacity:1;isolation:auto;mix-blend-mode:normal;color-interpolation:sRGB;color-interpolation-filters:linearRGB;solid-color:#000000;solid-opacity:1;fill:#ffffff;fill-opacity:1;fill-rule:evenodd;stroke:none;stroke-width:1.25;stroke-linecap:butt;stroke-linejoin:miter;stroke-miterlimit:3.5;stroke-dasharray:none;stroke-dashoffset:0;stroke-opacity:1;marker:none;marker-start:none;marker-mid:none;marker-end:none;color-rendering:auto;image-rendering:auto;shape-rendering:auto;text-rendering:auto;enable-background:accumulate"
       d="m 525.44502,396.45859 c -21.87907,0 -32.02189,7.93342 -38.75391,13.88867 -6.73203,5.95525 -8.28935,28.4447 -8.67773,40.87305 -0.38839,12.42835 13.4584,24.4855 22.25,29.21289 9.96096,5.35618 22.80426,5.11676 33.23047,1.20899 10.40139,-3.89845 20.27286,-11.1446 19.49609,-30.69336 -0.5635,-14.18143 -1.80946,-25.14358 -6.29688,-34.30078 l -0.41211,0.52148 0.23633,-0.88867 c 0.0609,0.12118 0.11609,0.24536 0.17578,0.36719 l 1.33399,-1.69141 c 0,0 5.58769,-5.44478 3.31445,-9.21094 -3.06356,-5.07555 -4.0174,-9.28711 -25.89648,-9.28711 z m -10.11328,59.96485 -0.56641,0.71875 c 2.3021,0.76963 4.67648,1.09002 6.79687,2.75195 4.79009,3.7544 1.03564,9.71016 -3.625,13.07617 -4.66063,3.36601 -7.78146,-8.52102 -4.54492,-14.08789 l 1.37305,-1.74023 c -0.26163,-0.0875 -0.52196,-0.18142 -0.78125,-0.28321 0.67741,-0.2221 0.73643,-0.23703 1.34766,-0.43554 z"
       id="path4256-2-1"
       inkscape:connector-curvature="0" />
    <rect
       style="color:#000000;clip-rule:nonzero;display:inline;overflow:visible;visibility:visible;opacity:1;isolation:auto;mix-blend-mode:normal;color-interpolation:sRGB;color-interpolation-filters:linearRGB;solid-color:#000000;solid-opacity:1;fill:#dedede;fill-opacity:1;fill-rule:nonzero;stroke:none;stroke-width:0.875;stroke-linecap:butt;stroke-linejoin:miter;stroke-miterlimit:1;stroke-dasharray:none;stroke-dashoffset:0;stroke-opacity:1;color-rendering:auto;image-rendering:auto;shape-rendering:auto;text-rendering:auto;enable-background:accumulate"
       id="rect4138-5"
       width="115.19967"
       height="112.15533"
       x="577.61865"
       y="383.68958" />
    <rect
       style="color:#000000;clip-rule:nonzero;display:inline;overflow:visible;visibility:visible;opacity:1;isolation:auto;mix-blend-mode:normal;color-interpolation:sRGB;color-interpolation-filters:linearRGB;solid-color:#000000;solid-opacity:1;fill:#efefef;fill-opacity:1;fill-rule:nonzero;stroke:#000000;stroke-width:1.25;stroke-linecap:butt;stroke-linejoin:miter;stroke-miterlimit:3.5;stroke-dasharray:none;stroke-dashoffset:0;stroke-opacity:1;color-rendering:auto;image-rendering:auto;shape-rendering:auto;text-rendering:auto;enable-background:accumulate"
       id="rect4173"
       width="94.04277"
       height="62.536057"
       x="98.339142"
       y="407.66797"
       ry="28.403782" />
    <path
       style="color:#000000;clip-rule:nonzero;display:inline;overflow:visible;visibility:visible;opacity:1;isolation:auto;mix-blend-mode:normal;color-interpolation:sRGB;color-interpolation-filters:linearRGB;solid-color:#000000;solid-opacity:1;fill:#efefef;fill-opacity:1;fill-rule:nonzero;stroke:#000000;stroke-width:1.25;stroke-linecap:butt;stroke-linejoin:miter;stroke-miterlimit:3.5;stroke-dasharray:none;stroke-dashoffset:0;stroke-opacity:1;marker:none;color-rendering:auto;image-rendering:auto;shape-rendering:auto;text-rendering:auto;enable-background:accumulate"
       d="M 247.99609 409.93555 A 30.790653 30.790653 0 0 0 217.20508 440.72656 A 30.790653 30.790653 0 0 0 247.99609 471.51758 A 30.790653 30.790653 0 0 0 260.37695 468.87695 C 264.35403 467.60987 266.24259 467.29073 268.30664 467.26953 C 269.56057 467.25668 272.54264 468.0756 275.2832 468.91992 A 30.790653 30.790653 0 0 0 280.69531 470.69727 C 280.70376 470.70023 280.82812 470.74219 280.82812 470.74219 L 280.83203 470.73047 A 30.790653 30.790653 0 0 0 287.61719 471.51758 A 30.790653 30.790653 0 0 0 318.4082 440.72656 A 30.790653 30.790653 0 0 0 287.61719 409.93555 A 30.790653 30.790653 0 0 0 280.61914 410.7793 L 280.57812 410.63086 C 280.57812 410.63086 270.64143 414.12806 268.05664 414.10156 C 266.05571 414.08101 264.26005 413.80029 260.5293 412.62891 A 30.790653 30.790653 0 0 0 247.99609 409.93555 z "
       id="path4175" />
    <path
       style="color:#000000;clip-rule:nonzero;display:inline;overflow:visible;visibility:visible;opacity:1;isolation:auto;mix-blend-mode:normal;color-interpolation:sRGB;color-interpolation-filters:linearRGB;solid-color:#000000;solid-opacity:1;fill:#efefef;fill-opacity:1;fill-rule:evenodd;stroke:#000000;stroke-width:1.25;stroke-linecap:butt;stroke-linejoin:miter;stroke-miterlimit:3.5;stroke-dasharray:none;stroke-dashoffset:0;stroke-opacity:1;marker:none;marker-start:none;marker-mid:none;marker-end:none;color-rendering:auto;image-rendering:auto;shape-rendering:auto;text-rendering:auto;enable-background:accumulate"
       d="m 364.86385,398.44975 c -12.89683,-0.35023 -24.81542,14.35927 -26.77443,22.76481 -1.95901,8.40555 -3.91782,33.09769 16.97833,49.55855 20.43784,16.09984 32.65307,14.62902 35.02186,14.75344 2.39307,-0.0386 14.4202,1.33972 34.84956,-14.75344 20.89615,-16.46086 18.93735,-41.153 16.97833,-49.55855 -1.95901,-8.40554 -13.87759,-23.11504 -26.77442,-22.76481 -12.89683,0.35023 -17.30441,3.50268 -21.22245,10.33218 -3.91803,6.82951 -0.97969,20.66273 3.42809,25.39085 4.40778,4.72812 19.59129,2.97852 20.24429,7.35641 0.65301,4.37788 -5.7308,17.69303 -14.53021,21.01413 -7.96791,3.00727 -12.26663,3.14156 -13.05842,3.14185 -0.78789,-1.2e-4 -5.08763,-0.13281 -13.06026,-3.14185 -8.79941,-3.3211 -15.18322,-16.63625 -14.53021,-21.01413 0.65301,-4.37789 15.83653,-2.62829 20.24431,-7.35641 4.40778,-4.72812 7.34611,-18.56134 3.42808,-25.39085 -3.91803,-6.8295 -8.32562,-9.98195 -21.22245,-10.33218 z"
       id="path4210"
       inkscape:connector-curvature="0"
       sodipodi:nodetypes="ssscssssssscsssss" />
    <path
       style="color:#000000;clip-rule:nonzero;display:inline;overflow:visible;visibility:visible;opacity:1;isolation:auto;mix-blend-mode:normal;color-interpolation:sRGB;color-interpolation-filters:linearRGB;solid-color:#000000;solid-opacity:1;fill:#efefef;fill-opacity:1;fill-rule:evenodd;stroke:none;stroke-width:1.25;stroke-linecap:butt;stroke-linejoin:miter;stroke-miterlimit:3.5;stroke-dasharray:none;stroke-dashoffset:0;stroke-opacity:1;marker:none;marker-start:none;marker-mid:none;marker-end:none;color-rendering:auto;image-rendering:auto;shape-rendering:auto;text-rendering:auto;enable-background:accumulate"
       d="m 525.54712,395.84435 c -21.87907,0 -32.02384,7.93342 -38.75586,13.88867 -6.73203,5.95525 -8.2874,28.44469 -8.67578,40.87304 -0.38839,12.42835 13.4584,24.4855 22.25,29.21289 9.96096,5.35618 22.80426,5.11676 33.23047,1.20899 10.4014,-3.89845 20.27288,-11.1446 19.49609,-30.69336 -0.56347,-14.18093 -1.81179,-25.14377 -6.29882,-34.30078 l -0.91992,1.16797 -0.1504,-1.10157 -5.21679,5.03907 c -7.11094,6.4751 -11.42966,10.37669 -13.82422,14.10156 -0.54716,0.85113 -1.32828,2.14846 -2.17774,3.58398 l -9.09179,14.96485 -0.11524,2.18945 -0.43164,0.54883 c 0.1318,0.0441 0.26428,0.0855 0.39649,0.12695 l -0.006,0.11914 0.75,0.10742 c 1.93604,0.55944 3.88445,1.00974 5.65625,2.39844 4.79009,3.7544 1.03564,9.71016 -3.625,13.07617 -4.66063,3.36601 -7.78146,-8.52102 -4.54492,-14.08789 l 1.37304,-1.74023 c -2.89848,-0.96901 -5.68281,-2.65183 -7.70312,-8.64063 -3.62494,-10.74534 -9.83776,-30.55282 -2.58789,-35.99023 7.24987,-5.4374 25.50352,-16.57068 35.60156,-5.56641 2.77278,3.02163 4.91874,6.23698 6.61719,9.70313 l 1.33398,-1.69141 c 0,0 5.58769,-5.44478 3.31445,-9.21094 -3.06356,-5.07555 -4.01545,-9.2871 -25.89453,-9.2871 z"
       id="path4256-2"
       inkscape:connector-curvature="0" />
    <path
       style="color:#000000;clip-rule:nonzero;display:inline;overflow:visible;visibility:visible;opacity:1;isolation:auto;mix-blend-mode:normal;color-interpolation:sRGB;color-interpolation-filters:linearRGB;solid-color:#000000;solid-opacity:1;fill:none;fill-opacity:1;fill-rule:evenodd;stroke:#000000;stroke-width:1.25;stroke-linecap:butt;stroke-linejoin:miter;stroke-miterlimit:3.5;stroke-dasharray:none;stroke-dashoffset:0;stroke-opacity:1;marker:none;marker-start:none;marker-mid:none;marker-end:none;color-rendering:auto;image-rendering:auto;shape-rendering:auto;text-rendering:auto;enable-background:accumulate"
       d="m 513.49927,458.20243 c -3.23654,5.56687 -0.11616,17.45397 4.54447,14.08796 4.66064,-3.36601 8.41503,-9.32126 3.62494,-13.07566 -4.7901,-3.7544 -10.87481,-0.64731 -14.49974,-11.39266 -3.62494,-10.74534 -9.83911,-30.55302 -2.58924,-35.99043 7.24987,-5.4374 25.504,-16.57114 35.60204,-5.56687 10.09803,11.00428 12.13902,24.45509 12.91579,44.00384 0.77677,19.54876 -9.09499,26.79573 -19.49639,30.69418 -10.42621,3.90777 -23.26873,4.14708 -33.22969,-1.2091 -8.7916,-4.72739 -22.63892,-16.78456 -22.25053,-29.21291 0.38838,-12.42835 1.945,-34.91721 8.67703,-40.87246 6.73202,-5.95525 16.87551,-13.88997 38.75458,-13.88997 21.87908,0 22.83265,4.21208 25.89621,9.28763 2.27324,3.76616 -3.3148,9.21129 -3.3148,9.21129"
       id="path4256"
       inkscape:connector-curvature="0"
       sodipodi:nodetypes="cssssssssssssc" />
    <path
       style="color:#000000;clip-rule:nonzero;display:inline;overflow:visible;visibility:visible;opacity:1;isolation:auto;mix-blend-mode:normal;color-interpolation:sRGB;color-interpolation-filters:linearRGB;solid-color:#000000;solid-opacity:1;fill:none;fill-opacity:1;fill-rule:evenodd;stroke:#000000;stroke-width:1.25;stroke-linecap:butt;stroke-linejoin:miter;stroke-miterlimit:3.5;stroke-dasharray:none;stroke-dashoffset:0;stroke-opacity:1;marker:none;marker-start:none;marker-mid:none;marker-end:none;color-rendering:auto;image-rendering:auto;shape-rendering:auto;text-rendering:auto;enable-background:accumulate"
       d="m 545.0985,416.88543 c -10.10094,9.29929 -15.52537,13.8003 -18.41136,18.28961 -2.88598,4.48932 -11.29836,19.53455 -11.29836,19.53455"
       id="path4260"
       inkscape:connector-curvature="0"
       sodipodi:nodetypes="csc" />
    <path
       style="color:#000000;clip-rule:nonzero;display:inline;overflow:visible;visibility:visible;opacity:1;isolation:auto;mix-blend-mode:normal;color-interpolation:sRGB;color-interpolation-filters:linearRGB;solid-color:#000000;solid-opacity:1;fill:#efefef;fill-opacity:1;fill-rule:nonzero;stroke:none;stroke-width:1.25;stroke-linecap:butt;stroke-linejoin:miter;stroke-miterlimit:3.5;stroke-dasharray:none;stroke-dashoffset:0;stroke-opacity:1;marker:none;color-rendering:auto;image-rendering:auto;shape-rendering:auto;text-rendering:auto;enable-background:accumulate"
       d="m 664.96919,439.93256 c -0.59038,15.22977 -13.36079,30.39126 -29.94657,31.47835 -16.58578,1.08709 -31.16968,-10.88162 -33.33921,-27.36078 -2.16953,-16.47917 8.81972,-31.81465 25.12171,-35.05732 16.302,-3.24267 32.98376,6.25721 40.11069,30.47335 l 0.0696,0.26196 c 5.0435,17.68434 -9.95828,41.84639 -32.45299,43.32077 -22.49471,1.47438 -42.27436,-14.75836 -45.21681,-37.10848 -2.94245,-22.35012 11.96188,-43.14909 34.0717,-47.54701 22.10982,-4.39792 41.73312,9.36721 42.07461,30.98511 z"
       id="path4265-0"
       inkscape:connector-curvature="0"
       sodipodi:nodetypes="csssccsssc" />
    <path
       style="color:#000000;clip-rule:nonzero;display:inline;overflow:visible;visibility:visible;opacity:1;isolation:auto;mix-blend-mode:normal;color-interpolation:sRGB;color-interpolation-filters:linearRGB;solid-color:#000000;solid-opacity:1;fill:#ffffff;fill-opacity:1;fill-rule:nonzero;stroke:none;stroke-width:1.25;stroke-linecap:butt;stroke-linejoin:miter;stroke-miterlimit:3.5;stroke-dasharray:none;stroke-dashoffset:0;stroke-opacity:1;marker:none;color-rendering:auto;image-rendering:auto;shape-rendering:auto;text-rendering:auto;enable-background:accumulate"
       d="m 667.10727,440.14737 c -7.12693,-24.21614 -23.80869,-33.71602 -40.11069,-30.47335 -16.30199,3.24267 -27.29124,18.57815 -25.12171,35.05732 2.16953,16.47916 16.75343,28.44787 33.33921,27.36078 16.58578,-1.08709 29.35619,-16.24858 29.94657,-31.47835 l 0.0719,-6.2226"
       id="path4358"
       inkscape:connector-curvature="0" />
    <path
       style="color:#000000;clip-rule:nonzero;display:inline;overflow:visible;visibility:visible;opacity:1;isolation:auto;mix-blend-mode:normal;color-interpolation:sRGB;color-interpolation-filters:linearRGB;solid-color:#000000;solid-opacity:1;fill:none;fill-opacity:1;fill-rule:nonzero;stroke:#000000;stroke-width:1.25;stroke-linecap:butt;stroke-linejoin:miter;stroke-miterlimit:3.5;stroke-dasharray:none;stroke-dashoffset:0;stroke-opacity:1;marker:none;color-rendering:auto;image-rendering:auto;shape-rendering:auto;text-rendering:auto;enable-background:accumulate"
       d="m 664.96796,440.27768 c -0.59038,15.22977 -13.36079,30.39126 -29.94657,31.47835 -16.58578,1.08709 -31.16968,-10.88162 -33.33921,-27.36078 -2.16953,-16.47917 8.81972,-31.81465 25.12171,-35.05732 16.302,-3.24267 32.98376,6.25721 40.11069,30.47335 l 0.0696,0.26196 c 5.0435,17.68434 -9.95828,41.84639 -32.45299,43.32077 -22.49471,1.47438 -42.27436,-14.75836 -45.21681,-37.10848 -2.94245,-22.35012 11.96188,-43.14909 34.0717,-47.54701 22.10982,-4.39792 41.73312,9.36721 42.07461,30.98511"
       id="path4265"
       inkscape:connector-curvature="0"
       sodipodi:nodetypes="csssccsssc" />
    <path
       style="color:#000000;clip-rule:nonzero;display:inline;overflow:visible;visibility:visible;opacity:1;isolation:auto;mix-blend-mode:normal;color-interpolation:sRGB;color-interpolation-filters:linearRGB;solid-color:#000000;solid-opacity:1;fill:#000000;fill-opacity:1;fill-rule:evenodd;stroke:none;stroke-width:1.25;stroke-linecap:butt;stroke-linejoin:miter;stroke-miterlimit:3.5;stroke-dasharray:none;stroke-dashoffset:0;stroke-opacity:1;marker:none;marker-start:none;marker-mid:none;marker-end:none;color-rendering:auto;image-rendering:auto;shape-rendering:auto;text-rendering:auto;enable-background:accumulate"
       d="m 664.48797,440.24162 0.15813,-2.80996 0.80285,2.63966 0.0122,0.37709 -0.86366,0.0365 z"
       id="path4270"
       inkscape:connector-curvature="0" />
    <path
       style="color:#000000;clip-rule:nonzero;display:inline;overflow:visible;visibility:visible;opacity:1;isolation:auto;mix-blend-mode:normal;color-interpolation:sRGB;color-interpolation-filters:linearRGB;solid-color:#000000;solid-opacity:1;fill:#000000;fill-opacity:1;fill-rule:evenodd;stroke:none;stroke-width:1.25;stroke-linecap:butt;stroke-linejoin:miter;stroke-miterlimit:3.5;stroke-dasharray:none;stroke-dashoffset:0;stroke-opacity:1;marker:none;marker-start:none;marker-mid:none;marker-end:none;color-rendering:auto;image-rendering:auto;shape-rendering:auto;text-rendering:auto;enable-background:accumulate"
       d="m 665.86254,431.93339 -0.91233,-2.01927 0.0365,-0.46225 0.97315,-0.0243 z"
       id="path4272"
       inkscape:connector-curvature="0" />
  </g>
</svg>
