<?xml version="1.0" encoding="iso-8859-1"?>
<!-- Generator: Adobe Illustrator 11 Build 196, SVG Export Plug-In . SVG Version: 6.0.0 Build 78)  -->
<!DOCTYPE svg PUBLIC "-//W3C//DTD SVG 1.0//EN"    "http://www.w3.org/TR/2001/REC-SVG-20010904/DTD/svg10.dtd" [
	<!ENTITY ns_flows "http://ns.adobe.com/Flows/1.0/">
	<!ENTITY ns_svg "http://www.w3.org/2000/svg">
	<!ENTITY ns_xlink "http://www.w3.org/1999/xlink">
]>
<svg  
	 width="140.103" height="94.601" viewBox="0 0 140.103 94.601" style="overflow:visible;enable-background:new 0 0 140.103 94.601"
	 xml:space="preserve">
	<style type="text/css">
	
	</style>
	<g id="Layer_1">
		<polyline style="fill:none;stroke:#000000;stroke-width:0.5;" points="135.297,66.824 36.883,66.824 36.883,0 "/>
		<line style="fill:none;stroke:#000000;stroke-width:0.5;stroke-dasharray:2;" x1="36.795" y1="66.86" x2="68.395" y2="45.17"/>
		<line style="fill:none;stroke:#000000;stroke-width:0.5;" x1="69.36" y1="44.527" x2="132.462" y2="1.215"/>
		<g>
			<text transform="matrix(1 0 0 1 64.1526 90.584)"><tspan x="0" y="0" style="font-family:Liberation Sans; font-size:7.650000;">temperature (C)</tspan></text>
		</g>
		<g>
			<text transform="matrix(0 -1 1 0 10.9998 51.3096)"><tspan x="0" y="0" style="font-family:Liberation Sans; font-size:7.650000;">volume (m</tspan></text>
			<text transform="matrix(0 -1 1 0 8.9998 9.3018)"><tspan x="0" y="0" style="font-family:Liberation Sans; font-size:7.650000;">3</tspan></text>
			<text transform="matrix(0 -1 1 0 10.9998 4.2959)"><tspan x="0" y="0" style="font-family:Liberation Sans; font-size:7.650000;">)</tspan></text>
		</g>
		<line style="fill:none;stroke:#000000;stroke-width:0.5;" x1="36.883" y1="66.824" x2="36.883" y2="68.714"/>
		<line style="fill:none;stroke:#000000;stroke-width:0.5;" x1="131.48" y1="66.824" x2="131.48" y2="68.714"/>
		<line style="fill:none;stroke:#000000;stroke-width:0.5;" x1="76.834" y1="68.714" x2="76.834" y2="66.824"/>
		<line style="fill:none;stroke:#000000;stroke-width:0.5;" x1="34.959" y1="66.824" x2="36.849" y2="66.824"/>
		<line style="fill:none;stroke:#000000;stroke-width:0.5;" x1="34.959" y1="48.065" x2="36.849" y2="48.065"/>
		<line style="fill:none;stroke:#000000;stroke-width:0.5;" x1="34.959" y1="29.307" x2="36.849" y2="29.307"/>
		<line style="fill:none;stroke:#000000;stroke-width:0.5;" x1="34.959" y1="10.548" x2="36.849" y2="10.548"/>
		<g>
			<text transform="matrix(1 0 0 1 26.3533 78.4341)"><tspan x="0" y="0" style="font-family:Liberation Sans; font-size:7.650000;">&#x2013;273</tspan></text>
		</g>
		<g>
			<text transform="matrix(1 0 0 1 67.3928 79.5142)"><tspan x="0" y="0" style="font-family:Liberation Sans; font-size:7.650000;">&#x2013;200</tspan></text>
		</g>
		<g>
			<text transform="matrix(1 0 0 1 120.0813 79.73)"><tspan x="0" y="0" style="font-family:Liberation Sans; font-size:7.650000;">&#x2013;100</tspan></text>
		</g>
		<g>
			<text transform="matrix(1 0 0 1 24.4666 69.2539)"><tspan x="0" y="0" style="font-family:Liberation Sans; font-size:7.650000;">0</tspan></text>
		</g>
		<g>
			<text transform="matrix(1 0 0 1 17.7134 50.5342)"><tspan x="0" y="0" style="font-family:Liberation Sans; font-size:7.650000;">0.2</tspan></text>
		</g>
		<g>
			<text transform="matrix(1 0 0 1 17.7134 31.8145)"><tspan x="0" y="0" style="font-family:Liberation Sans; font-size:7.650000;">0.4</tspan></text>
		</g>
		<g>
			<text transform="matrix(1 0 0 1 17.7134 13.0947)"><tspan x="0" y="0" style="font-family:Liberation Sans; font-size:7.650000;">0.6</tspan></text>
		</g>
	</g>
</svg>
