<?xml version="1.0" encoding="UTF-8" standalone="no"?>
<!-- Created with Inkscape (http://www.inkscape.org/) -->

<svg
   xmlns:dc="http://purl.org/dc/elements/1.1/"
   xmlns:cc="http://creativecommons.org/ns#"
   xmlns:rdf="http://www.w3.org/1999/02/22-rdf-syntax-ns#"
   xmlns:svg="http://www.w3.org/2000/svg"
   xmlns="http://www.w3.org/2000/svg"
   xmlns:xlink="http://www.w3.org/1999/xlink"
   xmlns:sodipodi="http://sodipodi.sourceforge.net/DTD/sodipodi-0.dtd"
   xmlns:inkscape="http://www.inkscape.org/namespaces/inkscape"
   width="210mm"
   height="297mm"
   viewBox="0 0 744.09448819 1052.3622047"
   id="svg2"
   version="1.1"
   sodipodi:docname="accelerometer.svg">
  <defs
     id="defs4">
    <marker
       inkscape:stockid="Arrow1Lend"
       orient="auto"
       refY="0.0"
       refX="0.0"
       id="Arrow1Lend"
       style="overflow:visible;"
       inkscape:isstock="true">
      <path
         id="path4925"
         d="M 0.0,0.0 L 5.0,-5.0 L -12.5,0.0 L 5.0,5.0 L 0.0,0.0 z "
         style="fill-rule:evenodd;stroke:#000000;stroke-width:1pt;stroke-opacity:1;fill:#000000;fill-opacity:1"
         transform="scale(0.8) rotate(180) translate(12.5,0)" />
    </marker>
  </defs>
  <sodipodi:namedview
     id="base"
     pagecolor="#ffffff"
     bordercolor="#666666"
     borderopacity="1.0"
     inkscape:pageopacity="0.0"
     inkscape:pageshadow="2"
     inkscape:zoom="5.457659"
     inkscape:cx="132.63807"
     inkscape:cy="821.56593"
     inkscape:document-units="mm"
     inkscape:current-layer="layer1"
     showgrid="false"
     inkscape:window-width="1280"
     inkscape:window-height="998"
     inkscape:window-x="0"
     inkscape:window-y="0"
     inkscape:window-maximized="1" />
  <metadata
     id="metadata7">
    <rdf:RDF>
      <cc:Work
         rdf:about="">
        <dc:format>image/svg+xml</dc:format>
        <dc:type
           rdf:resource="http://purl.org/dc/dcmitype/StillImage" />
        <dc:title></dc:title>
      </cc:Work>
    </rdf:RDF>
  </metadata>
  <g
     inkscape:label="Layer 1"
     inkscape:groupmode="layer"
     id="layer1">
    <image
       sodipodi:absref="accelerometer-bitmaps/background.jpg"
       xlink:href="accelerometer-bitmaps/background.jpg"
       width="184.25197"
       height="82.630707"
       preserveAspectRatio="none"
       id="image4214"
       x="40.140957"
       y="149.80315" />
    <g
       id="g5238"
       transform="translate(2.5652024,-4.0310324)">
      <path
         inkscape:connector-curvature="0"
         id="path4340"
         d="m 124.50163,199.97767 c -0.0731,-0.0419 -0.14894,-0.047 -0.16576,-0.0177 -0.0168,0.0292 -0.40534,0.16693 -0.8623,0.30315 -0.45695,0.13623 -0.92017,0.31687 -1.01958,0.40555 -0.11097,0.0918 -0.21191,0.13055 -0.22858,0.0919 -0.0511,-0.0973 -0.41318,0.36501 -0.54538,0.69719 -0.084,0.21413 -0.17908,0.2962 -0.4679,0.39285 -0.19973,0.0603 -0.48764,0.20635 -0.65609,0.31374 -0.2312,0.14912 -0.39055,0.17445 -0.72282,0.11019 -1.20687,-0.21611 -2.13391,0.41752 -1.73268,1.19157 0.1834,0.35774 0.23023,0.78335 0.0901,0.85839 -0.047,0.0314 -0.29268,0.0358 -0.54142,0.0292 -0.48912,-0.0279 -1.05707,0.13241 -1.17024,0.32977 -0.0419,0.0731 -0.0747,0.33481 -0.0856,0.59086 l -0.0126,0.47953 -0.243,0.035 c -0.12966,0.0228 -0.27286,0.0179 -0.32404,-0.0114 -0.18275,-0.1048 -0.79571,0.11685 -1.05218,0.37776 -0.37266,0.37884 -0.457,0.38962 -0.95838,0.17983 -0.50868,-0.21401 -0.89155,-0.25857 -1.1405,-0.12935 -0.09,0.0553 -0.21517,0.0707 -0.26635,0.0414 -0.0512,-0.0293 -0.0942,-0.006 -0.0932,0.0436 0.004,0.0607 -0.044,0.12966 -0.1099,0.15989 -0.17361,0.0656 -0.42074,0.47852 -0.5918,0.96325 -0.11339,0.33323 -0.20057,0.46737 -0.39417,0.61861 -0.541,0.41831 -0.57395,0.74839 -0.13286,1.41902 0.11471,0.17264 0.23647,0.41785 0.25927,0.54749 0.0716,0.33248 -0.19794,0.47945 -0.81454,0.4367 -0.57167,-0.0364 -1.05076,0.17356 -1.10244,0.48391 -0.057,0.33646 0.16629,0.64 0.80946,1.07683 0.53039,0.36247 0.60158,0.44157 0.63677,0.68512 0.0922,0.56768 0.3063,0.92475 0.70834,1.1553 0.29972,0.17187 0.40275,0.27845 0.46932,0.50115 0.1144,0.37645 0.0506,0.82614 -0.17898,1.27731 -0.34494,0.68615 -0.40012,0.73151 -0.72408,0.72059 l -0.31212,-0.0137 0.27657,0.11006 c 0.2476,0.0933 0.26203,0.10185 0.0801,0.11418 -0.21219,0.0143 -1.31321,-0.588 -1.59918,-0.86851 -0.22545,-0.21667 -0.74924,-0.099 -1.11353,0.26525 -0.15597,0.15339 -0.54402,0.72765 -0.86573,1.2717 l -0.58171,0.99633 0.12261,0.38117 0.11348,0.37595 2.08355,1.12657 c 1.1425,0.61632 2.30081,1.2221 2.57237,1.35834 0.2757,0.12905 0.81445,0.40941 1.19457,0.62739 0.38012,0.21798 1.13002,0.58922 1.66794,0.82 0.53792,0.23078 0.99329,0.43464 1.02253,0.45141 0.10234,0.0587 1.23826,-1.39781 1.83234,-2.34909 l 0.2957,-0.46279 -0.768,-0.44041 c -1.11113,-0.63717 -1.22397,-0.91461 -0.69998,-1.82836 0.20959,-0.3655 0.33821,-0.48707 0.78386,-0.75606 0.50424,-0.30338 0.53807,-0.31318 0.80122,-0.16228 0.15351,0.088 0.44412,0.22632 0.64681,0.31328 0.3322,0.13216 0.40416,0.12467 0.73157,-0.0567 0.33161,-0.18867 0.38442,-0.19656 0.66951,-0.0331 0.94299,0.54075 1.59225,0.61086 1.827,0.20151 0.12995,-0.22662 0.11679,-0.25253 -0.27405,-1.01091 -0.20427,-0.38912 -0.21487,-0.47415 -0.0849,-0.70076 0.15511,-0.27047 0.15466,-0.27028 1.16104,-0.17886 0.50685,0.0478 0.62181,-0.0322 0.8401,-0.61614 0.15222,-0.41782 0.22188,-0.52301 0.48553,-0.7118 0.34633,-0.24824 0.52874,-0.53246 0.48937,-0.76875 -0.059,-0.3544 -0.34399,-0.85796 -0.67789,-1.22428 -0.43097,-0.45115 -0.47428,-0.61151 -0.25629,-0.99163 0.12995,-0.22662 0.14163,-0.3662 0.0575,-0.67672 -0.0593,-0.21855 -0.15784,-0.41959 -0.21632,-0.45313 -0.1462,-0.0838 -0.18379,-0.47546 -0.0706,-0.67283 0.0461,-0.0804 0.26148,-0.21927 0.46647,-0.30571 0.21649,-0.0896 0.40842,-0.20187 0.43357,-0.24573 0.0629,-0.10965 -0.0975,-0.61033 -0.35389,-1.07792 -0.24909,-0.46341 -0.26611,-0.5514 -0.11101,-0.82188 0.10061,-0.17544 0.18116,-0.1971 0.61276,-0.15358 0.29261,0.0318 0.55006,0.004 0.6296,-0.0666 0.27109,-0.25252 0.13044,-1.09098 -0.28668,-1.71873 -0.19082,-0.29399 -0.2204,-0.44569 -0.18635,-0.84385 0.0392,-0.35636 6.3e-4,-0.59299 -0.13903,-0.85765 -0.16362,-0.30754 -0.17403,-0.3905 -0.0547,-0.49693 0.0795,-0.0709 0.26654,-0.31364 0.41953,-0.54645 l 0.19863,-0.30918 0.0207,-0.02 -0.004,-0.008 0.0528,-0.082 -0.0996,-0.0404 -0.0743,-0.19574 c 0.0423,-0.0398 0.0315,-0.1598 -0.0418,-0.4031 -0.0572,-0.18821 -0.12799,-0.6063 -0.16616,-0.92931 -0.034,-0.33034 -0.12214,-0.63415 -0.18793,-0.67188 z m -1.09809,1.70862 c 0.0485,0.0417 0.0974,0.0992 0.14512,0.17268 0.12718,0.21864 0.0161,0.37971 -0.26194,0.35627 -0.25918,-0.0223 -0.39025,-0.25295 -0.26869,-0.46494 0.0975,-0.16995 0.24014,-0.18928 0.38551,-0.064 z"
         style="fill:#000000;stroke:none" />
      <path
         sodipodi:nodetypes="cc"
         inkscape:connector-curvature="0"
         id="path4906"
         d="m 123.40148,201.72526 8.29507,-14.58798"
         style="color:#000000;clip-rule:nonzero;display:inline;overflow:visible;visibility:visible;opacity:1;isolation:auto;mix-blend-mode:normal;color-interpolation:sRGB;color-interpolation-filters:linearRGB;solid-color:#000000;solid-opacity:1;fill:none;fill-opacity:1;fill-rule:nonzero;stroke:#000000;stroke-width:0.875;stroke-linecap:butt;stroke-linejoin:miter;stroke-miterlimit:1;stroke-dasharray:none;stroke-dashoffset:0;stroke-opacity:1;color-rendering:auto;image-rendering:auto;shape-rendering:auto;text-rendering:auto;enable-background:accumulate" />
    </g>
    <g
       id="g5232"
       transform="translate(-7.145921,-6.9626923)">
      <path
         inkscape:connector-curvature="0"
         id="path5228"
         d="m 119.94887,227.80354 11.01326,0"
         style="color:#000000;clip-rule:nonzero;display:inline;overflow:visible;visibility:visible;opacity:1;isolation:auto;mix-blend-mode:normal;color-interpolation:sRGB;color-interpolation-filters:linearRGB;solid-color:#000000;solid-opacity:1;fill:none;fill-opacity:1;fill-rule:nonzero;stroke:#000000;stroke-width:0.875;stroke-linecap:butt;stroke-linejoin:miter;stroke-miterlimit:1;stroke-dasharray:none;stroke-dashoffset:0;stroke-opacity:1;color-rendering:auto;image-rendering:auto;shape-rendering:auto;text-rendering:auto;enable-background:accumulate" />
      <path
         inkscape:connector-curvature="0"
         id="path5230"
         d="m 128.83271,225.74863 1.99261,1.9468 -1.69486,2.40488 7.87883,-2.40488 z"
         style="color:#000000;clip-rule:nonzero;display:inline;overflow:visible;visibility:visible;opacity:1;isolation:auto;mix-blend-mode:normal;color-interpolation:sRGB;color-interpolation-filters:linearRGB;solid-color:#000000;solid-opacity:1;fill:#000000;fill-opacity:1;fill-rule:nonzero;stroke:none;stroke-width:1.75479233;stroke-linecap:butt;stroke-linejoin:miter;stroke-miterlimit:1;stroke-dasharray:none;stroke-dashoffset:0;stroke-opacity:1;color-rendering:auto;image-rendering:auto;shape-rendering:auto;text-rendering:auto;enable-background:accumulate" />
    </g>
    <text
       xml:space="preserve"
       style="color:#000000;font-style:normal;font-variant:normal;font-weight:normal;font-stretch:normal;font-size:12.5px;line-height:125%;font-family:'Liberation Sans';-inkscape-font-specification:'Liberation Sans';text-indent:0;text-align:start;text-decoration:none;text-decoration-line:none;text-decoration-style:solid;text-decoration-color:#000000;letter-spacing:0px;word-spacing:0px;text-transform:none;direction:ltr;block-progression:tb;writing-mode:lr-tb;baseline-shift:baseline;text-anchor:start;white-space:normal;clip-rule:nonzero;display:inline;overflow:visible;visibility:visible;opacity:1;isolation:auto;mix-blend-mode:normal;color-interpolation:sRGB;color-interpolation-filters:linearRGB;solid-color:#000000;solid-opacity:1;fill:#000000;fill-opacity:1;fill-rule:nonzero;stroke:none;stroke-width:1.24999988px;stroke-linecap:butt;stroke-linejoin:miter;stroke-miterlimit:4;stroke-dasharray:none;stroke-dashoffset:0;stroke-opacity:1;marker:none;marker-start:none;marker-mid:none;marker-end:none;color-rendering:auto;image-rendering:auto;shape-rendering:auto;text-rendering:auto;enable-background:accumulate"
       x="130.64209"
       y="224.71796"
       id="text5242"
       sodipodi:linespacing="125%"><tspan
         sodipodi:role="line"
         id="tspan5244"
         x="130.64209"
         y="224.71796">acceleration</tspan></text>
  </g>
</svg>
