<?xml version="1.0" encoding="iso-8859-1"?>
<!-- Generator: Adobe Illustrator 11 Build 196, SVG Export Plug-In . SVG Version: 6.0.0 Build 78)  -->
<!DOCTYPE svg PUBLIC "-//W3C//DTD SVG 1.0//EN"    "http://www.w3.org/TR/2001/REC-SVG-20010904/DTD/svg10.dtd" [
	<!ENTITY ns_flows "http://ns.adobe.com/Flows/1.0/">
	<!ENTITY ns_svg "http://www.w3.org/2000/svg">
	<!ENTITY ns_xlink "http://www.w3.org/1999/xlink">
]>
<svg  
	 width="151.891" height="146.325" viewBox="0 0 151.891 146.325"
	 style="overflow:visible;enable-background:new 0 0 151.891 146.325" xml:space="preserve">
	<style type="text/css">
	
	</style>
	<g id="Layer_1">
		<g>
			<text transform="matrix(1 0 0 1 138.543 24.0002)"><tspan x="0" y="0" style="font-family:Liberation Sans-Bold'; font-size:20.400000;">v</tspan></text>
		</g>
		<g>
			<text transform="matrix(1 0 0 1 24.8716 49.0784)"><tspan x="0" y="0" style="font-family:Liberation Sans-Bold'; font-size:20.400000;">x</tspan></text>
		</g>
		<g>
			<text transform="matrix(1 0 0 1 101.8721 135.5789)"><tspan x="0" y="0" style="font-family:Liberation Sans-Bold'; font-size:20.400000;">t</tspan></text>
		</g>
		<g>
			<g>
				<text transform="matrix(1 0 0 1 120 72.8948)"><tspan x="0" y="0" style="font-family:Liberation Sans; font-size:8.500000;">a=</tspan></text>
			</g>
			<g>
				<text transform="matrix(1 0 0 1 133.8403 66.8948)"><tspan x="0" y="0" style="font-family:'Symbol'; font-size:10;">&#x2206;</tspan></text>
				<text transform="matrix(1 0 0 1 139.9604 66.8948)"><tspan x="0" y="0" style="font-family:Liberation Sans; font-size:8.500000;">v</tspan></text>
			</g>
			<g>
				<text transform="matrix(1 0 0 1 134.9512 81.4788)"><tspan x="0" y="0" style="font-family:'Symbol'; font-size:10;">&#x2206;</tspan></text>
				<text transform="matrix(1 0 0 1 141.0713 81.4788)"><tspan x="0" y="0" style="font-family:Liberation Sans; font-size:8.500000;">t</tspan></text>
			</g>
			<line style="fill:none;stroke:#000000;" x1="133.399" y1="70.895" x2="145.399" y2="70.895"/>
		</g>
		<g>
			<g>
				<text transform="matrix(1 0 0 1 0 87.3948)"><tspan x="0" y="0" style="font-family:'Symbol'; font-size:10;">&#x2206;</tspan></text>
				<text transform="matrix(1 0 0 1 6.1201 87.3948)"><tspan x="0" y="0" style="font-family:Liberation Sans; font-size:8.500000;">x = v</tspan></text>
				<text transform="matrix(1 0 0 1 27.5166 90.3948)"><tspan x="0" y="0" style="font-family:Liberation Sans; font-size:5.950000;">o</tspan></text>
				<text transform="matrix(1 0 0 1 31.4097 87.3948)"><tspan x="0" y="0" style="font-family:'Symbol'; font-size:10;">&#x2206;</tspan></text>
				<text transform="matrix(1 0 0 1 37.5293 87.3948)"><tspan x="0" y="0" style="font-family:Liberation Sans; font-size:8.500000;">t +   a</tspan></text>
				<text transform="matrix(1 0 0 1 62.8223 87.3948)"><tspan x="0" y="0" style="font-family:'Symbol'; font-size:10;">&#x2206;</tspan></text>
				<text transform="matrix(1 0 0 1 68.9424 87.3948)"><tspan x="0" y="0" style="font-family:Liberation Sans; font-size:8.500000;">t</tspan></text>
				<text transform="matrix(1 0 0 1 71.7207 84.3948)"><tspan x="0" y="0" style="font-family:Liberation Sans; font-size:6.800000;">2</tspan></text>
			</g>
			<g>
				<g>
					<text transform="matrix(1 0 0 1 51 82.8948)"><tspan x="0" y="0" style="font-family:Liberation Sans; font-size:5.950000;">1</tspan></text>
				</g>
				<g>
					<text transform="matrix(1 0 0 1 51 91.8948)"><tspan x="0" y="0" style="font-family:Liberation Sans; font-size:5.950000;">2</tspan></text>
				</g>
				<line style="fill:none;stroke:#000000;stroke-width:0.5;" x1="49.758" y1="85" x2="55.758" y2="85"/>
			</g>
		</g>
		<g>
			<text transform="matrix(1 0 0 1 51 27.3948)"><tspan x="0" y="0" style="font-family:Liberation Sans; font-size:8.500000;">v</tspan></text>
			<text transform="matrix(1 0 0 1 56 30.3948)"><tspan x="0" y="0" style="font-family:Liberation Sans; font-size:6.800000;">f</tspan></text>
			<text transform="matrix(1 0 0 1 58.2227 24.3948)"><tspan x="0" y="0" style="font-family:Liberation Sans; font-size:5.950000;">2</tspan></text>
			<text transform="matrix(1 0 0 1 62.1157 27.3948)"><tspan x="0" y="0" style="font-family:Liberation Sans; font-size:8.500000;"> = v</tspan></text>
			<text transform="matrix(1 0 0 1 78.5122 30.3948)"><tspan x="0" y="0" style="font-family:Liberation Sans; font-size:6.800000;">o</tspan></text>
			<text transform="matrix(1 0 0 1 82.9614 24.3948)"><tspan x="0" y="0" style="font-family:Liberation Sans; font-size:5.950000;">2</tspan></text>
			<text transform="matrix(1 0 0 1 86.8545 27.3948)"><tspan x="0" y="0" style="font-family:Liberation Sans; font-size:8.500000;"> + 2a</tspan></text>
			<text transform="matrix(1 0 0 1 109.374 27.3948)"><tspan x="0" y="0" style="font-family:'Symbol'; font-size:10;">&#x2206;</tspan></text>
			<text transform="matrix(1 0 0 1 115.4941 27.3948)"><tspan x="0" y="0" style="font-family:Liberation Sans; font-size:8.500000;">x</tspan></text>
		</g>
		<path style="fill:none;stroke:#7F7F7F;stroke-width:6;" d="M47.656,48.551c13.75,7.375,22.688,20,33.875,30.875
			c9.719,9.406,15.312,21.156,21.188,32.875c0.219,0.344,0.656,0.5,1.031,0.281c0.375-0.188,0.5-0.656,0.281-1
			c-5.969-11.844-11.594-23.75-21.469-33.312C71.25,67.364,62.25,54.582,48.344,47.239c-0.375-0.188-0.812-0.062-1,0.312
			S47.281,48.364,47.656,48.551L47.656,48.551z"/>
		<path style="fill:none;stroke:#7F7F7F;stroke-width:6;" d="M135.031,26.801c-11.406,12.156-20,26.656-26.219,42.156
			c-5.219,12.969-4.938,26.938-4.562,40.625c0,0.406,0.344,0.75,0.75,0.75s0.75-0.344,0.75-0.75
			c-0.375-13.469-0.688-27.219,4.438-40c6.094-15.281,14.594-29.562,25.781-41.594c0.312-0.25,0.375-0.719,0.125-1.062
			C135.844,26.614,135.375,26.551,135.031,26.801L135.031,26.801z"/>
		<path style="fill:none;stroke:#7F7F7F;stroke-width:6;" d="M43,45.645c18.625-0.188,36.969-0.469,55.75-3.031
			c4.281-0.562,8.406-1.344,12.188-3.438c8-4.344,16.094-7.781,23.375-13.031c0.312-0.25,0.375-0.719,0.125-1.031
			c-0.25-0.344-0.719-0.406-1.031-0.156c-7.188,5.031-15.125,8.531-22.969,12.844c-3.719,2.031-7.719,2.75-11.875,3.312
			c-18.75,2.594-37,2.812-55.562,3.031c-0.406,0-0.75,0.344-0.75,0.75S42.594,45.645,43,45.645L43,45.645z"/>
	</g>
</svg>
