<?xml version="1.0" encoding="UTF-8" standalone="no"?>
<!-- Generator: Adobe Illustrator 11 Build 196, SVG Export Plug-In . SVG Version: 6.0.0 Build 78)  -->
<svg
   xmlns:dc="http://purl.org/dc/elements/1.1/"
   xmlns:cc="http://web.resource.org/cc/"
   xmlns:rdf="http://www.w3.org/1999/02/22-rdf-syntax-ns#"
   xmlns:svg="http://www.w3.org/2000/svg"
   xmlns="http://www.w3.org/2000/svg"
   xmlns:sodipodi="http://inkscape.sourceforge.net/DTD/sodipodi-0.dtd"
   xmlns:inkscape="http://www.inkscape.org/namespaces/inkscape"
   width="147.401"
   height="103.384"
   viewBox="0 0 147.401 103.384"
   style="overflow:visible;enable-background:new 0 0 147.401 103.384"
   xml:space="preserve"
   id="svg2"
   sodipodi:version="0.32"
   sodipodi:docname="airplane.svg"
   sodipodi:docbase="/home/bcrowell/Documents/writing/lm/trunk/2cl/ch05/figs"><metadata
   id="metadata12"><rdf:RDF><cc:Work
       rdf:about=""><dc:format>image/svg+xml</dc:format><dc:type
         rdf:resource="http://purl.org/dc/dcmitype/StillImage" /></cc:Work></rdf:RDF></metadata><defs
   id="defs10" /><sodipodi:namedview
   inkscape:cy="76.772499"
   inkscape:cx="47.110397"
   inkscape:zoom="2.8993225"
   inkscape:window-height="510"
   inkscape:window-width="712"
   inkscape:pageshadow="2"
   inkscape:pageopacity="0.0"
   borderopacity="1.0"
   bordercolor="#666666"
   pagecolor="#ffffff"
   id="base"
   inkscape:window-x="137"
   inkscape:window-y="137"
   inkscape:current-layer="svg2" />
	<g
   id="Layer_1">
		<path
   style="fill:#B4B4B4;stroke:#000000;stroke-width:0.5;"
   d="M139.135,23.804h-1.458c-0.009-3.398-1.995-6.15-4.444-6.15    h-5.556c-2.449,0-4.435,2.751-4.444,6.15h-7.741c-0.009-3.398-1.995-6.15-4.444-6.15h-5.556c-2.449,0-4.435,2.751-4.444,6.15    H83.222V10.538c0-5.682-3.978-10.288-8.885-10.288h-2.222c-4.907,0-8.885,4.606-8.885,10.288v13.266H45.402    c-0.009-3.398-1.995-6.15-4.444-6.15h-5.556c-2.449,0-4.435,2.751-4.444,6.15h-7.741c-0.009-3.398-1.995-6.15-4.444-6.15h-5.556    c-2.449,0-4.435,2.751-4.444,6.15H7.316c-2.842,0-5.145,1.48-5.145,3.306v17.355c0,1.826,2.303,3.306,5.145,3.306h1.459    c0.009,3.398,1.995,6.149,4.444,6.149h5.556c2.449,0,4.435-2.751,4.444-6.149h7.741c0.009,3.398,1.995,6.149,4.444,6.149h5.556    c2.449,0,4.435-2.751,4.444-6.149h17.827v34.014h-4.761c-3.835,0-6.944,2.026-6.944,4.527v7.922c0,2.5,3.109,4.527,6.944,4.527    h6.384c1.608,2.642,4.259,4.373,7.262,4.373h2.222c3.003,0,5.654-1.73,7.262-4.373h6.384c3.835,0,6.945-2.026,6.945-4.527v-7.922    c0-2.5-3.109-4.527-6.945-4.527h-4.761V47.771h17.827c0.009,3.398,1.995,6.149,4.444,6.149h5.556c2.449,0,4.435-2.751,4.444-6.149    h7.741c0.009,3.398,1.995,6.149,4.444,6.149h5.556c2.449,0,4.435-2.751,4.444-6.149h1.458c2.842,0,5.145-1.48,5.145-3.306V27.11    C144.28,25.284,141.977,23.804,139.135,23.804z"
   id="path5" />
		<rect
   y="36.899"
   style="fill:none;"
   width="147.401"
   height="2.835"
   id="rect7" /> 
	</g>
<g
   id="g2080"><g
     transform="matrix(0.804142,0.000000,0.000000,0.804142,-155.7149,-26.68554)"
     id="g2056"><path
       style="fill:none;fill-opacity:0.75000000;fill-rule:evenodd;stroke:#000000;stroke-width:1.2500000;stroke-linecap:butt;stroke-linejoin:miter;stroke-miterlimit:4.0000000;stroke-dasharray:none;stroke-opacity:1.0000000"
       d="M 215.78400,40.720117 C 219.19250,30.756821 222.33880,23.677638 226.79607,17.647222 C 231.25333,11.616807 237.80813,5.5863910 243.83855,1.6535112 C 249.86896,-2.2793686 256.68595,-5.4256724 256.68595,-5.4256724"
       id="path1314" /><path
       sodipodi:type="star"
       style="opacity:1.0000000;fill:#000000;fill-opacity:1.0000000;stroke:none;stroke-width:1.2500000;stroke-linecap:round;stroke-linejoin:miter;stroke-miterlimit:4.0000000;stroke-dasharray:none;stroke-dashoffset:0.0000000;stroke-opacity:1.0000000"
       id="path2046"
       sodipodi:sides="3"
       sodipodi:cx="176.64117"
       sodipodi:cy="-11.663402"
       sodipodi:r1="48.840878"
       sodipodi:r2="24.420439"
       sodipodi:arg1="0.52359878"
       sodipodi:arg2="1.5707963"
       inkscape:flatsided="true"
       inkscape:rounded="0.0000000"
       inkscape:randomized="0.0000000"
       d="M 218.93861,12.757037 L 134.34373,12.757037 L 176.64117,-60.504279 L 218.93861,12.757037 z "
       transform="matrix(3.587147e-2,8.169478e-2,-0.127638,5.604457e-2,251.8853,-20.39278)" /></g><g
     transform="matrix(0.804142,0.000000,0.000000,0.804142,-187.1659,-22.97974)"
     id="g2052"><path
       style="fill:none;fill-opacity:0.75000000;fill-rule:evenodd;stroke:#000000;stroke-width:1.2500000;stroke-linecap:butt;stroke-linejoin:miter;stroke-miterlimit:4.0000000;stroke-dasharray:none;stroke-opacity:1.0000000;overflow:visible"
       d="M 281.02473,35.927961 C 283.33210,29.183356 285.46197,24.391138 288.47930,20.308877 C 291.49662,16.226617 295.93386,12.144356 300.01612,9.4820122 C 304.09838,6.8196687 308.71311,4.6897936 308.71311,4.6897936"
       id="path2048" /><path
       sodipodi:type="star"
       style="opacity:1.0000000;fill:#000000;fill-opacity:1.0000000;stroke:none;stroke-width:1.2500000;stroke-linecap:round;stroke-linejoin:miter;stroke-miterlimit:4.0000000;stroke-dasharray:none;stroke-dashoffset:0.0000000;stroke-opacity:1.0000000;overflow:visible"
       id="path2050"
       sodipodi:sides="3"
       sodipodi:cx="176.64117"
       sodipodi:cy="-11.663402"
       sodipodi:r1="48.840878"
       sodipodi:r2="24.420439"
       sodipodi:arg1="0.52359878"
       sodipodi:arg2="1.5707963"
       inkscape:flatsided="true"
       inkscape:rounded="0.0000000"
       inkscape:randomized="0.0000000"
       d="M 218.93861,12.757037 L 134.34373,12.757037 L 176.64117,-60.504279 L 218.93861,12.757037 z "
       transform="matrix(3.587147e-2,8.169478e-2,-0.127638,5.604457e-2,303.9459,-10.39214)" /></g></g><g
   id="g2072"
   transform="matrix(-1.000000,0.000000,0.000000,1.000000,217.2921,-20.63218)"><g
     transform="matrix(0.804142,0.000000,0.000000,0.804142,-85.85928,-6.053365)"
     id="g2060"
     style="overflow:visible"><path
       style="fill:none;fill-opacity:0.75000000;fill-rule:evenodd;stroke:#000000;stroke-width:1.2500000;stroke-linecap:butt;stroke-linejoin:miter;stroke-miterlimit:4.0000000;stroke-dasharray:none;stroke-opacity:1.0000000"
       d="M 215.78400,40.720117 C 219.19250,30.756821 222.33880,23.677638 226.79607,17.647222 C 231.25333,11.616807 237.80813,5.5863910 243.83855,1.6535112 C 249.86896,-2.2793686 256.68595,-5.4256724 256.68595,-5.4256724"
       id="path2062" /><path
       sodipodi:type="star"
       style="opacity:1.0000000;fill:#000000;fill-opacity:1.0000000;stroke:none;stroke-width:1.2500000;stroke-linecap:round;stroke-linejoin:miter;stroke-miterlimit:4.0000000;stroke-dasharray:none;stroke-dashoffset:0.0000000;stroke-opacity:1.0000000"
       id="path2064"
       sodipodi:sides="3"
       sodipodi:cx="176.64117"
       sodipodi:cy="-11.663402"
       sodipodi:r1="48.840878"
       sodipodi:r2="24.420439"
       sodipodi:arg1="0.52359878"
       sodipodi:arg2="1.5707963"
       inkscape:flatsided="true"
       inkscape:rounded="0.0000000"
       inkscape:randomized="0.0000000"
       d="M 218.93861,12.757037 L 134.34373,12.757037 L 176.64117,-60.504279 L 218.93861,12.757037 z "
       transform="matrix(3.587147e-2,8.169478e-2,-0.127638,5.604457e-2,251.8853,-20.39278)" /></g><g
     transform="matrix(0.804142,0.000000,0.000000,0.804142,-117.3103,-2.347565)"
     id="g2066"
     style="overflow:visible"><path
       style="fill:none;fill-opacity:0.75000000;fill-rule:evenodd;stroke:#000000;stroke-width:1.2500000;stroke-linecap:butt;stroke-linejoin:miter;stroke-miterlimit:4.0000000;stroke-dasharray:none;stroke-opacity:1.0000000;overflow:visible"
       d="M 281.02473,35.927961 C 283.33210,29.183356 285.46197,24.391138 288.47930,20.308877 C 291.49662,16.226617 295.93386,12.144356 300.01612,9.4820122 C 304.09838,6.8196687 308.71311,4.6897936 308.71311,4.6897936"
       id="path2068" /><path
       sodipodi:type="star"
       style="opacity:1.0000000;fill:#000000;fill-opacity:1.0000000;stroke:none;stroke-width:1.2500000;stroke-linecap:round;stroke-linejoin:miter;stroke-miterlimit:4.0000000;stroke-dasharray:none;stroke-dashoffset:0.0000000;stroke-opacity:1.0000000;overflow:visible"
       id="path2070"
       sodipodi:sides="3"
       sodipodi:cx="176.64117"
       sodipodi:cy="-11.663402"
       sodipodi:r1="48.840878"
       sodipodi:r2="24.420439"
       sodipodi:arg1="0.52359878"
       sodipodi:arg2="1.5707963"
       inkscape:flatsided="true"
       inkscape:rounded="0.0000000"
       inkscape:randomized="0.0000000"
       d="M 218.93861,12.757037 L 134.34373,12.757037 L 176.64117,-60.504279 L 218.93861,12.757037 z "
       transform="matrix(3.587147e-2,8.169478e-2,-0.127638,5.604457e-2,303.9459,-10.39214)" /></g></g></svg>