<?xml version="1.0" encoding="UTF-8" standalone="no"?>
<!-- Generator: Adobe Illustrator 11 Build 196, SVG Export Plug-In . SVG Version: 6.0.0 Build 78)  -->
<svg
   xmlns:dc="http://purl.org/dc/elements/1.1/"
   xmlns:cc="http://web.resource.org/cc/"
   xmlns:rdf="http://www.w3.org/1999/02/22-rdf-syntax-ns#"
   xmlns:svg="http://www.w3.org/2000/svg"
   xmlns="http://www.w3.org/2000/svg"
   xmlns:sodipodi="http://inkscape.sourceforge.net/DTD/sodipodi-0.dtd"
   xmlns:inkscape="http://www.inkscape.org/namespaces/inkscape"
   width="109.416"
   height="199.176"
   viewBox="0 0 109.416 199.176"
   style="overflow:visible;enable-background:new 0 0 109.416 199.176"
   xml:space="preserve"
   id="svg2"
   sodipodi:version="0.32"
   sodipodi:docname="amplitude-examples.svg"
   sodipodi:docbase="/home/bcrowell/Documents/writing/lm/trunk/3vw/ch01/figs"><metadata
   id="metadata180"><rdf:RDF><cc:Work
       rdf:about=""><dc:format>image/svg+xml</dc:format><dc:type
         rdf:resource="http://purl.org/dc/dcmitype/StillImage" /></cc:Work></rdf:RDF></metadata><defs
   id="defs178">
		
		
		
		
	
			
			
			
				 
			
				 
			
				 
			
			
			
			
			
			
			
			
		</defs><sodipodi:namedview
   inkscape:cy="94.281169"
   inkscape:cx="53.874954"
   inkscape:zoom="3.5189297"
   inkscape:window-height="996"
   inkscape:window-width="1278"
   inkscape:pageshadow="2"
   inkscape:pageopacity="0.0"
   borderopacity="1.0"
   bordercolor="#666666"
   pagecolor="#ffffff"
   id="base"
   inkscape:window-x="0"
   inkscape:window-y="0"
   inkscape:current-layer="svg2" />
	<style
   type="text/css"
   id="style4">
	
	</style>
	<rect
   style="fill:#d1d1d1;fill-opacity:1.0000000;fill-rule:evenodd;stroke:none;stroke-width:1.0000000pt;stroke-linecap:butt;stroke-linejoin:miter;stroke-opacity:1.0000000;overflow:visible"
   id="rect2207"
   width="184.25197"
   height="118.50195"
   x="-39.100651"
   y="80.531960" /><rect
   style="fill:#d1d1d1;fill-opacity:1.0000000;fill-rule:evenodd;stroke:none;stroke-width:1.0000000pt;stroke-linecap:butt;stroke-linejoin:miter;stroke-opacity:1.0000000"
   id="rect1478"
   width="184.25197"
   height="73.886101"
   x="-39.100651"
   y="0.25187033" /><path
   style="fill:#c3c3c3;fill-opacity:1.0000000"
   d="M 107.54300,179.82800 C 107.54300,179.82700 107.54200,179.82600 107.54200,179.82600 L 101.05800,166.53200 C 99.835000,164.02500 95.506000,163.59800 91.198000,165.47400 L 91.076000,165.18700 C 80.160000,170.64400 67.847000,173.72000 54.812000,173.72000 C 43.345000,173.72000 32.438000,171.33400 22.548000,167.04600 C 21.739000,166.40000 20.815000,165.80500 19.784000,165.30300 C 15.280000,163.10600 10.589000,163.45500 9.3070000,166.08200 L 2.8230000,179.37500 C 2.8230000,179.37600 2.8220000,179.37600 2.8220000,179.37700 C 1.5760000,181.93100 4.0150000,185.69200 8.2870000,187.91900 L 8.0550000,188.40200 C 22.175000,195.29900 38.039000,199.17500 54.811000,199.17500 C 70.640000,199.17500 85.659000,195.72000 99.167000,189.53400 C 100.00400,189.29900 100.85800,188.97600 101.70600,188.56200 C 106.21200,186.36700 108.82500,182.45600 107.54300,179.82800 z "
   id="path9" /><line
   style="fill:none;stroke:#000000;stroke-width:0.50000000;stroke-dasharray:2.0000000 "
   x1="17.733999"
   y1="168.71899"
   x2="55.462002"
   y2="91.370003"
   id="line11" /><ellipse
   transform="matrix(0.438400,0.898800,-0.898800,0.438400,221.3665,12.80810)"
   style="fill:#242424;stroke:#ffffff"
   cx="100.43400"
   cy="183.53900"
   rx="5.2930002"
   ry="9.0740004"
   id="ellipse13"
   sodipodi:cx="100.43400"
   sodipodi:cy="183.53900"
   sodipodi:rx="5.2930002"
   sodipodi:ry="9.0740004" /><rect
   x="194.19798"
   y="-18.877901"
   transform="matrix(0.438392,0.898784,-0.898784,0.438392,0.000000,0.000000)"
   style="fill:#242424"
   width="14.793266"
   height="18.148327"
   id="rect15" /><ellipse
   transform="matrix(0.438400,0.898800,-0.898800,0.438400,205.7707,11.16760)"
   style="fill:#242424;stroke:#ffffff"
   cx="93.948997"
   cy="170.24300"
   rx="5.2930002"
   ry="9.0740004"
   id="ellipse17"
   sodipodi:cx="93.948997"
   sodipodi:cy="170.24300"
   sodipodi:rx="5.2930002"
   sodipodi:ry="9.0740004" /><line
   style="fill:#5f5f5f;stroke:#ffffff"
   x1="102.10500"
   y1="166.26500"
   x2="108.59000"
   y2="179.56100"
   id="line19" /><line
   style="fill:#5f5f5f;stroke:#ffffff"
   x1="86.128998"
   y1="175.14700"
   x2="92.613998"
   y2="188.44400"
   id="line21" /><line
   style="fill:#5f5f5f;stroke:#000000;stroke-width:2.0000000"
   x1="93.352997"
   y1="169.14101"
   x2="55.625000"
   y2="91.792000"
   id="line23" /><path
   style="fill:#b4b4b4;stroke:#000000;stroke-width:0.50000000;stroke-dasharray:2.0000000 "
   d="M 19.459000,165.06300 C 14.955000,162.86600 10.264000,163.21500 8.9820000,165.84200 L 2.4980000,179.13500 C 2.4980000,179.13600 2.4970000,179.13600 2.4960000,179.13700 C 1.2150000,181.76400 3.8280000,185.67600 8.3310000,187.87300 C 12.835000,190.07000 17.526000,189.72100 18.807000,187.09300 L 25.293000,173.79700 C 26.576000,171.17100 23.963000,167.26000 19.459000,165.06300 z "
   id="path25" /><line
   style="fill:none;stroke:#000000;stroke-width:0.50000000"
   x1="55.263000"
   y1="92.281998"
   x2="55.263000"
   y2="156.96899"
   id="line27" /><path
   d=""
   style="fill:none;stroke:#000000;stroke-width:0.50000000"
   id="path29" /><path
   style="fill:none;stroke:#000000;stroke-width:0.50000000"
   d="M 55.263000,131.46900 C 62.013000,131.46900 67.638000,130.34400 72.513000,126.96900"
   id="path31" /><g
   id="g33">
				<text
   transform="translate(61.26220,140.0938)"
   id="text35"><tspan
     x="0"
     y="0"
     style="font-size:8.5000000px;font-family:Liberation Sans"
     id="tspan37">A</tspan></text>

			</g><g
   id="g39">
			<rect
   id="rect41"
   height="15.947000"
   width="46.900002"
   style="fill:#dcdcdc"
   y="25.900000"
   x="61.779999" /> 
			<g
   id="g43">
				<path
   id="path45"
   d="M 17.219000,30.811000 C 10.617000,30.811000 12.146000,36.936000 15.727000,36.936000 C 19.308000,36.936000 21.471000,30.811000 14.683000,30.811000 L 11.959000,30.811000"
   style="fill:none;stroke:#000000;stroke-width:0.50000000;stroke-miterlimit:1.0000000" />
				<path
   id="path47"
   d="M 17.220000,30.811000 C 24.009000,30.811000 21.845000,36.936000 18.264000,36.936000 C 14.683000,36.936000 13.154000,30.811000 19.756000,30.811000"
   style="fill:none;stroke:#000000;stroke-width:0.50000000;stroke-miterlimit:1.0000000" />
				<path
   id="path49"
   d="M 19.757000,30.811000 C 26.546000,30.811000 24.382000,36.936000 20.801000,36.936000 C 17.220000,36.936000 15.691000,30.811000 22.293000,30.811000"
   style="fill:none;stroke:#000000;stroke-width:0.50000000;stroke-miterlimit:1.0000000" />
				<path
   id="path51"
   d="M 22.295000,30.811000 C 29.084000,30.811000 26.920000,36.936000 23.339000,36.936000 C 19.758000,36.936000 18.229000,30.811000 24.831000,30.811000"
   style="fill:none;stroke:#000000;stroke-width:0.50000000;stroke-miterlimit:1.0000000" />
				<path
   id="path53"
   d="M 24.833000,30.811000 C 31.622000,30.811000 29.458000,36.936000 25.877000,36.936000 C 22.296000,36.936000 20.767000,30.811000 27.369000,30.811000"
   style="fill:none;stroke:#000000;stroke-width:0.50000000;stroke-miterlimit:1.0000000" />
				<path
   id="path55"
   d="M 27.370000,30.811000 C 34.159000,30.811000 31.995000,36.936000 28.415000,36.936000 C 24.834000,36.936000 23.305000,30.811000 29.907000,30.811000"
   style="fill:none;stroke:#000000;stroke-width:0.50000000;stroke-miterlimit:1.0000000" />
				<path
   id="path57"
   d="M 29.907000,30.811000 C 36.696000,30.811000 34.532000,36.936000 30.951000,36.936000 C 27.370000,36.936000 25.841000,30.811000 32.443000,30.811000"
   style="fill:none;stroke:#000000;stroke-width:0.50000000;stroke-miterlimit:1.0000000" />
				<path
   id="path59"
   d="M 32.445000,30.811000 C 39.234000,30.811000 37.070000,36.936000 33.489000,36.936000 C 29.908000,36.936000 28.379000,30.811000 34.981000,30.811000"
   style="fill:none;stroke:#000000;stroke-width:0.50000000;stroke-miterlimit:1.0000000" />
				<path
   id="path61"
   d="M 34.982000,30.811000 C 41.771000,30.811000 39.607000,36.936000 36.026000,36.936000 C 32.445000,36.936000 30.916000,30.811000 37.519000,30.811000"
   style="fill:none;stroke:#000000;stroke-width:0.50000000;stroke-miterlimit:1.0000000" />
				<path
   id="path63"
   d="M 37.520000,30.811000 C 44.309000,30.811000 42.145000,36.936000 38.564000,36.936000 C 34.983000,36.936000 33.454000,30.811000 40.056000,30.811000"
   style="fill:none;stroke:#000000;stroke-width:0.50000000;stroke-miterlimit:1.0000000" />
				<path
   id="path65"
   d="M 40.057000,30.811000 C 46.846000,30.811000 44.682000,36.936000 41.101000,36.936000 C 37.520000,36.936000 35.991000,30.811000 42.593000,30.811000"
   style="fill:none;stroke:#000000;stroke-width:0.50000000;stroke-miterlimit:1.0000000" />
				<path
   id="path67"
   d="M 42.595000,30.811000 C 49.384000,30.811000 47.220000,36.936000 43.639000,36.936000 C 40.058000,36.936000 38.529000,30.811000 45.131000,30.811000"
   style="fill:none;stroke:#000000;stroke-width:0.50000000;stroke-miterlimit:1.0000000" />
				<path
   id="path69"
   d="M 45.132000,30.811000 C 51.921000,30.811000 49.757000,36.936000 46.176000,36.936000 C 42.595000,36.936000 41.066000,30.811000 47.668000,30.811000"
   style="fill:none;stroke:#000000;stroke-width:0.50000000;stroke-miterlimit:1.0000000" />
				<path
   id="path71"
   d="M 47.669000,30.811000 C 54.458000,30.811000 52.294000,36.936000 48.713000,36.936000 C 45.132000,36.936000 43.603000,30.811000 50.205000,30.811000"
   style="fill:none;stroke:#000000;stroke-width:0.50000000;stroke-miterlimit:1.0000000" />
				<path
   id="path73"
   d="M 50.207000,30.811000 C 56.996000,30.811000 54.832000,36.936000 51.251000,36.936000 C 47.670000,36.936000 46.141000,30.811000 52.743000,30.811000"
   style="fill:none;stroke:#000000;stroke-width:0.50000000;stroke-miterlimit:1.0000000" />
				<path
   id="path75"
   d="M 52.745000,30.811000 C 59.534000,30.811000 57.370000,36.936000 53.789000,36.936000 C 50.208000,36.936000 48.679000,30.811000 55.281000,30.811000"
   style="fill:none;stroke:#000000;stroke-width:0.50000000;stroke-miterlimit:1.0000000" />
				<path
   id="path77"
   d="M 55.282000,30.811000 C 62.071000,30.811000 59.907000,36.936000 56.326000,36.936000 C 52.745000,36.936000 51.216000,30.811000 57.818000,30.811000"
   style="fill:none;stroke:#000000;stroke-width:0.50000000;stroke-miterlimit:1.0000000" />
				<path
   id="path79"
   d="M 57.820000,30.811000 C 64.609000,30.811000 62.445000,36.936000 58.864000,36.936000 C 55.283000,36.936000 53.754000,30.811000 60.356000,30.811000"
   style="fill:none;stroke:#000000;stroke-width:0.50000000;stroke-miterlimit:1.0000000" />
			</g>
			<g
   id="g81">
				<path
   id="path83"
   d="M 18.472000,30.811000 C 11.651000,30.811000 12.430000,36.936000 16.130000,36.936000 C 19.830000,36.936000 21.116000,30.811000 14.103000,30.811000 L 12.295000,30.811000"
   style="fill:none;stroke:#000000;stroke-width:0.50000000;stroke-miterlimit:1.0000000" />
				<path
   id="path85"
   d="M 18.471000,30.811000 C 25.484000,30.811000 24.198000,36.936000 20.498000,36.936000 C 16.798000,36.936000 16.019000,30.811000 22.840000,30.811000"
   style="fill:none;stroke:#000000;stroke-width:0.50000000;stroke-miterlimit:1.0000000" />
				<path
   id="path87"
   d="M 22.840000,30.811000 C 29.853000,30.811000 28.567000,36.936000 24.867000,36.936000 C 21.167000,36.936000 20.388000,30.811000 27.209000,30.811000"
   style="fill:none;stroke:#000000;stroke-width:0.50000000;stroke-miterlimit:1.0000000" />
				<path
   id="path89"
   d="M 27.209000,30.811000 C 34.222000,30.811000 32.935000,36.936000 29.236000,36.936000 C 25.537000,36.936000 24.758000,30.811000 31.578000,30.811000"
   style="fill:none;stroke:#000000;stroke-width:0.50000000;stroke-miterlimit:1.0000000" />
				<path
   id="path91"
   d="M 31.578000,30.811000 C 38.591000,30.811000 37.305000,36.936000 33.605000,36.936000 C 29.905000,36.936000 29.126000,30.811000 35.947000,30.811000"
   style="fill:none;stroke:#000000;stroke-width:0.50000000;stroke-miterlimit:1.0000000" />
				<path
   id="path93"
   d="M 35.947000,30.811000 C 42.960000,30.811000 41.673000,36.936000 37.974000,36.936000 C 34.275000,36.936000 33.496000,30.811000 40.316000,30.811000"
   style="fill:none;stroke:#000000;stroke-width:0.50000000;stroke-miterlimit:1.0000000" />
				<path
   id="path95"
   d="M 40.315000,30.811000 C 47.328000,30.811000 46.042000,36.936000 42.342000,36.936000 C 38.642000,36.936000 37.863000,30.811000 44.684000,30.811000"
   style="fill:none;stroke:#000000;stroke-width:0.50000000;stroke-miterlimit:1.0000000" />
				<path
   id="path97"
   d="M 44.685000,30.811000 C 51.698000,30.811000 50.411000,36.936000 46.712000,36.936000 C 43.013000,36.936000 42.233000,30.811000 49.054000,30.811000"
   style="fill:none;stroke:#000000;stroke-width:0.50000000;stroke-miterlimit:1.0000000" />
				<path
   id="path99"
   d="M 49.053000,30.811000 C 56.066000,30.811000 54.780000,36.936000 51.080000,36.936000 C 47.380000,36.936000 46.601000,30.811000 53.422000,30.811000"
   style="fill:none;stroke:#000000;stroke-width:0.50000000;stroke-miterlimit:1.0000000" />
				<path
   id="path101"
   d="M 53.422000,30.811000 C 60.435000,30.811000 59.149000,36.936000 55.449000,36.936000 C 51.749000,36.936000 50.970000,30.811000 57.791000,30.811000"
   style="fill:none;stroke:#000000;stroke-width:0.50000000;stroke-miterlimit:1.0000000" />
				<path
   id="path103"
   d="M 57.791000,30.811000 C 64.804000,30.811000 63.517000,36.936000 59.818000,36.936000 C 56.119000,36.936000 55.339000,30.811000 62.160000,30.811000"
   style="fill:none;stroke:#000000;stroke-width:0.50000000;stroke-miterlimit:1.0000000" />
				<path
   id="path105"
   d="M 62.160000,30.811000 C 69.173000,30.811000 67.887000,36.936000 64.187000,36.936000 C 60.487000,36.936000 59.708000,30.811000 66.529000,30.811000"
   style="fill:none;stroke:#000000;stroke-width:0.50000000;stroke-miterlimit:1.0000000" />
				<path
   id="path107"
   d="M 66.529000,30.811000 C 73.542000,30.811000 72.255000,36.936000 68.556000,36.936000 C 64.857000,36.936000 64.078000,30.811000 70.898000,30.811000"
   style="fill:none;stroke:#000000;stroke-width:0.50000000;stroke-miterlimit:1.0000000" />
				<path
   id="path109"
   d="M 70.897000,30.811000 C 77.910000,30.811000 76.624000,36.936000 72.924000,36.936000 C 69.224000,36.936000 68.445000,30.811000 75.266000,30.811000"
   style="fill:none;stroke:#000000;stroke-width:0.50000000;stroke-miterlimit:1.0000000" />
				<path
   id="path111"
   d="M 75.267000,30.811000 C 82.280000,30.811000 80.993000,36.936000 77.294000,36.936000 C 73.595000,36.936000 72.815000,30.811000 79.636000,30.811000"
   style="fill:none;stroke:#000000;stroke-width:0.50000000;stroke-miterlimit:1.0000000" />
				<path
   id="path113"
   d="M 79.635000,30.811000 C 86.648000,30.811000 85.362000,36.936000 81.662000,36.936000 C 77.962000,36.936000 77.183000,30.811000 84.004000,30.811000"
   style="fill:none;stroke:#000000;stroke-width:0.50000000;stroke-miterlimit:1.0000000" />
				<path
   id="path115"
   d="M 84.004000,30.811000 C 91.017000,30.811000 89.730000,36.936000 86.031000,36.936000 C 82.332000,36.936000 81.552000,30.811000 88.373000,30.811000"
   style="fill:none;stroke:#000000;stroke-width:0.50000000;stroke-miterlimit:1.0000000" />
				<path
   id="path117"
   d="M 88.373000,30.811000 C 95.386000,30.811000 94.099000,36.936000 90.400000,36.936000 C 86.701000,36.936000 85.921000,30.811000 92.742000,30.811000"
   style="fill:none;stroke:#000000;stroke-width:0.50000000;stroke-miterlimit:1.0000000" />
			</g>
			<rect
   id="rect119"
   height="15.947000"
   width="19.228001"
   style="fill:#7f7f7f;stroke:#000000"
   y="25.900000"
   x="89.452003" /> 
			<g
   id="g121">
				<rect
   x="0.0000000"
   id="rect123"
   height="16.385000"
   width="14.151000"
   style="fill:#b4b4b4"
   y="25.681000" /> 
				<line
   id="line125"
   y2="41.985001"
   x2="14.548000"
   y1="25.761999"
   x1="14.548000"
   style="fill:none;stroke:#7f7f7f" />
			</g>
			<rect
   id="rect127"
   height="15.947000"
   width="19.228001"
   style="fill:#7f7f7f;stroke:#000000"
   y="25.900000"
   x="61.779999" /> 
			<line
   id="line129"
   y2="23.934999"
   x2="71.585999"
   y1="16.316000"
   x1="71.585999"
   style="fill:none;stroke:#000000;stroke-width:0.50000000" />
			<line
   id="line131"
   y2="23.934999"
   x2="99.903999"
   y1="16.316000"
   x1="99.903999"
   style="fill:none;stroke:#000000;stroke-width:0.50000000" />
			<g
   id="g133">
				<text
   id="text135"
   transform="translate(82.51070,18.08890)"><tspan
     id="tspan137"
     style="font-size:8.5000000px;font-family:Liberation Sans"
     y="0"
     x="0">A</tspan></text>

			</g>
			<line
   id="line139"
   y2="52.516998"
   x2="85.386002"
   y1="44.897999"
   x1="85.386002"
   style="fill:none;stroke:#000000;stroke-width:0.50000000" />
			<line
   id="line141"
   y2="52.516998"
   x2="99.903999"
   y1="44.897999"
   x1="99.903999"
   style="fill:none;stroke:#000000;stroke-width:0.50000000" />
			<g
   id="g143">
				<line
   id="line145"
   y2="19.958000"
   x2="97.891998"
   y1="19.958000"
   x1="73.598000"
   style="fill:none;stroke:#000000;stroke-width:0.50000000" />
				<path
   id="path147"
   d="M 99.974000,19.958000 C 98.994000,20.322000 97.779000,20.942000 97.025000,21.599000 L 97.618000,19.958000 L 97.025000,18.318000 C 97.779000,18.974000 98.994000,19.594000 99.974000,19.958000 z " />
				<path
   id="path149"
   d="M 71.516000,19.958000 C 72.495000,19.595000 73.711000,18.974000 74.465000,18.318000 L 73.871000,19.958000 L 74.465000,21.599000 C 73.711000,20.941000 72.496000,20.321000 71.516000,19.958000 z " />
			</g>
			<g
   id="g151">
				<line
   id="line153"
   y2="48.708000"
   x2="97.410004"
   y1="48.708000"
   x1="87.878998"
   style="fill:none;stroke:#000000;stroke-width:0.50000000" />
				<path
   id="path155"
   d="M 99.534000,48.708000 C 98.534000,49.079000 97.295000,49.711000 96.526000,50.381000 L 97.131000,48.708000 L 96.526000,47.035000 C 97.295000,47.704000 98.535000,48.337000 99.534000,48.708000 z " />
				<path
   id="path157"
   d="M 85.756000,48.708000 C 86.755000,48.337000 87.995000,47.705000 88.764000,47.035000 L 88.159000,48.708000 L 88.764000,50.381000 C 87.995000,49.711000 86.755000,49.078000 85.756000,48.708000 z " />
			</g>
			<g
   id="g159">
				<text
   id="text161"
   transform="translate(89.33690,59.04590)"><tspan
     id="tspan163"
     style="font-size:8.5000000px;font-family:Liberation Sans"
     y="0"
     x="0">A</tspan></text>

			</g>
		</g><g
   id="g165"
   transform="translate(-24.00000,5.884182e-15)">
			<text
   id="text167"
   transform="translate(0.269500,10.00000)"><tspan
     id="tspan169"
     style="font-size:8.5000000px;font-family:Liberation Sans"
     y="0"
     x="0">1</tspan></text>

		</g><g
   id="g171"
   transform="translate(-24.00000,5.884182e-15)">
			<text
   id="text173"
   transform="translate(0.269500,102.0000)"><tspan
     id="tspan175"
     style="font-size:8.5000000px;font-family:Liberation Sans"
     y="0"
     x="0">2</tspan></text>

		</g>
</svg>