<?xml version="1.0" encoding="UTF-8" standalone="no"?>
<!-- Generator: Adobe Illustrator 11 Build 196, SVG Export Plug-In . SVG Version: 6.0.0 Build 78)  -->
<svg
   xmlns:dc="http://purl.org/dc/elements/1.1/"
   xmlns:cc="http://web.resource.org/cc/"
   xmlns:rdf="http://www.w3.org/1999/02/22-rdf-syntax-ns#"
   xmlns:svg="http://www.w3.org/2000/svg"
   xmlns="http://www.w3.org/2000/svg"
   xmlns:sodipodi="http://inkscape.sourceforge.net/DTD/sodipodi-0.dtd"
   xmlns:inkscape="http://www.inkscape.org/namespaces/inkscape"
   width="133.642"
   height="53.829"
   viewBox="0 0 133.642 53.829"
   style="overflow:visible;enable-background:new 0 0 133.642 53.829"
   xml:space="preserve"
   id="svg2"
   sodipodi:version="0.32"
   sodipodi:docname="amplitude-maxing-out.svg"
   sodipodi:docbase="/home/bcrowell/Documents/writing/lm/trunk/3vw/ch02/figs"><metadata
   id="metadata38"><rdf:RDF><cc:Work
       rdf:about=""><dc:format>image/svg+xml</dc:format><dc:type
         rdf:resource="http://purl.org/dc/dcmitype/StillImage" /></cc:Work></rdf:RDF></metadata><defs
   id="defs36">
		
		
		
		
		
		
		
		
	</defs><sodipodi:namedview
   inkscape:cy="33.397952"
   inkscape:cx="71.402518"
   inkscape:zoom="2.5313640"
   inkscape:window-height="510"
   inkscape:window-width="712"
   inkscape:pageshadow="2"
   inkscape:pageopacity="0.0"
   borderopacity="1.0"
   bordercolor="#666666"
   pagecolor="#ffffff"
   id="base"
   inkscape:window-x="221"
   inkscape:window-y="221"
   inkscape:current-layer="svg2" />
	<style
   type="text/css"
   id="style4">
	
	</style>
	<rect
   style="fill:#dedede;fill-opacity:1.0000000;fill-rule:evenodd;stroke:none;stroke-width:1.0000000pt;stroke-linecap:butt;stroke-linejoin:miter;stroke-opacity:1.0000000"
   id="rect1336"
   width="157.22749"
   height="65.577293"
   x="-5.1355724"
   y="-1.8721967" /><path
   id="path7"
   d="M 22.762044,30.250912 C 30.470044,30.051912 29.455044,28.538912 31.632044,27.605912 C 33.965044,26.605912 33.299044,31.938912 36.632044,33.272912 C 39.965044,34.605912 42.299044,24.272912 44.632044,23.605912 C 46.709044,23.012912 47.280044,37.527912 50.184044,38.401912 C 53.424044,39.376912 55.299044,19.272912 57.632044,18.605912 C 59.965044,17.938912 62.632044,42.938912 64.965044,43.605912 C 67.298044,44.272912 69.298044,14.272912 71.965044,13.605912 C 74.632044,12.938912 75.548044,47.563912 78.965044,48.938912 C 82.119044,50.208912 83.965044,10.372912 86.298044,10.038912 C 88.379044,9.7419121 89.965044,49.538912 92.518044,49.667912 C 95.601044,49.822912 97.381044,7.7889122 99.715044,7.7889122 C 102.04904,7.7889122 104.21504,53.288912 107.21504,53.288912 C 109.30304,53.288912 111.73504,7.2599122 113.96504,7.5389122 C 115.96504,7.7889122 118.96504,54.239912 120.90004,54.239912 C 121.96504,54.239912 124.21504,30.788912 124.46504,28.788912"
   style="fill:none;stroke:#000000" /><line
   id="line9"
   y2="30.376911"
   x2="127.50804"
   y1="30.376911"
   x1="22.508045"
   style="fill:none;stroke:#000000;stroke-width:0.50000000" /><line
   id="line11"
   y2="11.542912"
   x2="22.758045"
   y1="49.042912"
   x1="22.758045"
   style="fill:none;stroke:#000000;stroke-width:0.50000000" /><g
   id="g13"
   transform="translate(0.395044,1.209912)">
			<text
   id="text15"
   transform="translate(16.36330,10.00000)"><tspan
     id="tspan17"
     style="font-size:8.5000000px;font-family:Liberation Sans"
     y="0"
     x="0">x</tspan></text>

		</g><g
   id="g19"
   transform="translate(0.395044,1.209912)">
			<text
   id="text21"
   transform="translate(130.8633,31.50000)"><tspan
     id="tspan23"
     style="font-size:8.5000000px;font-family:Liberation Sans"
     y="0"
     x="0">t</tspan></text>

		</g><line
   id="line31"
   y2="6.6699123"
   x2="126.52805"
   y1="6.6699123"
   x1="54.028042"
   style="fill:none;stroke:#000000;stroke-width:0.50000000;stroke-dasharray:2.0000000 " /><line
   id="line33"
   y2="54.788910"
   x2="126.52805"
   y1="54.788910"
   x1="54.028042"
   style="fill:none;stroke:#000000;stroke-width:0.50000000;stroke-dasharray:2.0000000 " />
</svg>