<?xml version="1.0" encoding="UTF-8" standalone="no"?>
<!-- Generator: Adobe Illustrator 11 Build 196, SVG Export Plug-In . SVG Version: 6.0.0 Build 78)  -->
<svg
   xmlns:dc="http://purl.org/dc/elements/1.1/"
   xmlns:cc="http://web.resource.org/cc/"
   xmlns:rdf="http://www.w3.org/1999/02/22-rdf-syntax-ns#"
   xmlns:svg="http://www.w3.org/2000/svg"
   xmlns="http://www.w3.org/2000/svg"
   xmlns:sodipodi="http://inkscape.sourceforge.net/DTD/sodipodi-0.dtd"
   xmlns:inkscape="http://www.inkscape.org/namespaces/inkscape"
   width="147.402"
   height="237.001"
   viewBox="0 0 147.402 237.001"
   style="overflow:visible;enable-background:new 0 0 147.402 237.001"
   xml:space="preserve"
   id="svg2"
   sodipodi:version="0.32"
   sodipodi:docname="area-swept-out.svg"
   sodipodi:docbase="/home/bcrowell/Documents/writing/lm/trunk/2cl/ch05/figs"><metadata
   id="metadata104"><rdf:RDF><cc:Work
       rdf:about=""><dc:format>image/svg+xml</dc:format><dc:type
         rdf:resource="http://purl.org/dc/dcmitype/StillImage" /></cc:Work></rdf:RDF></metadata><defs
   id="defs102">
		
		 
	
			
			
			
			 
			
			
			
			
			 
			
			 
			
			
			
			
			
			
			
			
		</defs><sodipodi:namedview
   inkscape:cy="69.099211"
   inkscape:cx="89.828974"
   inkscape:zoom="2.5312252"
   inkscape:window-height="510"
   inkscape:window-width="712"
   inkscape:pageshadow="2"
   inkscape:pageopacity="0.0"
   borderopacity="1.0"
   bordercolor="#666666"
   pagecolor="#ffffff"
   id="base"
   inkscape:window-x="95"
   inkscape:window-y="95"
   inkscape:current-layer="svg2" />
	<style
   type="text/css"
   id="style4">
	
	</style>
	<polygon
   style="fill:#d6d6d6"
   points="6.7330000,61.848000 131.58100,56.952000 126.07300,50.526000 6.7330000,61.848000 "
   id="polygon9" /><g
   id="g11">
				<path
   style="fill:none;stroke:#000000;stroke-width:0.50000000;stroke-dasharray:3.0000000 "
   d="M 135.23400,60.911000 C 119.93400,43.469000 83.214000,3.6890000 57.510000,1.2410000"
   id="path13" />
				<path
   d="M 55.859000,1.0810000 C 56.665000,0.86600000 57.678000,0.46500000 58.326000,0.0000000 L 57.730000,1.2590000 L 58.077000,2.6080000 C 57.529000,2.0290000 56.610000,1.4440000 55.859000,1.0810000 z "
   id="path15" />
			</g><g
   id="g17">
				<g
   id="g19">
					<text
   transform="translate(4.438500,58.48190)"
   id="text21"><tspan
     x="0"
     y="0"
     style="font-size:7.6500001px;font-family:Liberation Sans"
     id="tspan23">sun</tspan></text>

				</g>
			</g><circle
   cx="6.7329998"
   cy="61.936001"
   r="1.1360000"
   id="circle25"
   sodipodi:cx="6.7329998"
   sodipodi:cy="61.936001"
   sodipodi:rx="1.1360000"
   sodipodi:ry="1.1360000" /><g
   id="g27">
				<path
   style="fill:none;stroke:#000000;stroke-width:0.50000000"
   d="M 7.8360000,63.999000 C 13.887000,70.242000 65.939000,62.797000 69.700000,66.140000"
   id="path29" />
				<path
   style="fill:none;stroke:#000000;stroke-width:0.50000000"
   d="M 131.22500,59.332000 C 125.66300,66.014000 73.197000,62.522000 69.700000,66.140000"
   id="path31" />
			</g><g
   id="g33">
				<g
   id="g35">
					<text
   transform="translate(68.29200,75.05860)"
   id="text37"><tspan
     x="0"
     y="0"
     style="font-size:7.6500001px;font-family:Liberation Sans"
     id="tspan39">b</tspan></text>

				</g>
			</g><g
   id="g41">
				<path
   style="fill:none;stroke:#000000;stroke-width:0.50000000"
   d="M 132.28300,50.119000 C 133.79300,50.732000 132.75900,53.359000 134.07600,53.359000"
   id="path43" />
				<path
   style="fill:none;stroke:#000000;stroke-width:0.50000000"
   d="M 132.36000,56.633000 C 133.87100,56.020000 132.83700,53.393000 134.15300,53.393000"
   id="path45" />
			</g><g
   id="g47">
				<g
   id="g49">
					<text
   transform="translate(135.2891,56.55760)"
   id="text51"><tspan
     x="0"
     y="0"
     style="font-size:7.6500001px;font-family:Liberation Sans"
     id="tspan53">h</tspan></text>

				</g>
			</g><circle
   style="fill:none;stroke:#000000;stroke-width:0.50000000"
   cx="127.79400"
   cy="54.292999"
   r="15.822000"
   id="circle55"
   sodipodi:cx="127.79400"
   sodipodi:cy="54.292999"
   sodipodi:rx="15.822000"
   sodipodi:ry="15.822000" /><path
   style="fill:#d6d6d6"
   d="M 63.827000,158.64200 L 8.1790000,163.92200 C 7.6830000,167.11300 7.4230000,170.38200 7.4230000,173.71300 C 7.4230000,178.40100 7.9480000,182.96600 8.9160000,187.36400 L 85.860000,184.34600 L 63.827000,158.64200 z "
   id="path57" /><circle
   style="fill:none;stroke:#000000;stroke-width:0.50000000"
   cx="70.649002"
   cy="173.46100"
   r="63.290001"
   id="circle59"
   sodipodi:cx="70.649002"
   sodipodi:cy="173.46100"
   sodipodi:rx="63.290001"
   sodipodi:ry="63.290001" /><line
   style="fill:none;stroke:#000000;stroke-width:0.50000000"
   x1="143.63000"
   y1="54.924999"
   x2="133.70399"
   y2="178.85400"
   id="line61" /><line
   style="fill:none;stroke:#000000;stroke-width:0.50000000"
   x1="117.63900"
   y1="42.015999"
   x2="26.872000"
   y2="127.61900"
   id="line63" /><path
   style="fill:none;stroke:#000000;stroke-width:0.50000000;stroke-dasharray:3.0000000 "
   d="M 100.47000,200.18200 C 83.108000,180.39000 58.850000,153.40600 30.659000,124.68100"
   id="path65" /><g
   id="g67">
				<line
   style="fill:none;stroke:#000000"
   x1="117.58800"
   y1="188.72701"
   x2="78.600998"
   y2="144.60201"
   id="line69" />
				<path
   d="M 75.951000,141.60600 C 77.721000,142.55500 80.161000,143.51600 82.066000,143.76500 L 78.948000,144.99800 L 77.341000,147.94000 C 77.328000,146.02000 76.674000,143.47900 75.951000,141.60600 z "
   id="path71" />
			</g><polyline
   style="fill:none;stroke:#000000"
   points="118.041,189.122 116.696,139.778 76.161,141.983 "
   id="polyline73" /><g
   id="g75">
				<g
   id="g77">
					<text
   transform="translate(89.56100,171.7676)"
   id="text79"><tspan
     x="0"
     y="0"
     style="font-size:7.6500001px;font-family:Liberation Sans-Bold'"
     id="tspan81">v</tspan></text>

				</g>
			</g><g
   id="g83">
				<g
   id="g85">
					<text
   transform="translate(118.2329,165.4321)"
   id="text87"><tspan
     x="0"
     y="0"
     style="font-size:7.6500001px;font-family:Liberation Sans"
     id="tspan89">v</tspan></text>

				</g>
				<g
   id="g91">
					<text
   transform="translate(122.7329,168.4922)"
   id="text93"><tspan
     x="0"
     y="0"
     style="font-size:9.0000000px;font-family:Symbol"
     id="tspan95">⊥</tspan></text>

				</g>
			</g><polygon
   style="fill:none;stroke:#000000"
   points="63.827000,158.64200 64.654000,185.12200 85.858000,184.34600 63.827000,158.64200 "
   id="polygon97" /><rect
   x="0.0000000"
   id="rect99"
   height="2.8340001"
   width="147.40199"
   style="fill:none"
   y="113.52200" />
<g
   style="overflow:visible"
   id="g1494"
   transform="translate(-80.00683,118.0897)">
				<g
   id="g1496">
					<text
   transform="translate(135.2891,56.55760)"
   id="text1498"><tspan
     x="0"
     y="0"
     style="font-size:7.6500001px;font-family:Liberation Sans"
     id="tspan1500">h</tspan></text>

				</g>
			</g></svg>