<?xml version="1.0" encoding="iso-8859-1"?>
<!-- Generator: Adobe Illustrator 11 Build 196, SVG Export Plug-In . SVG Version: 6.0.0 Build 78)  -->
<!DOCTYPE svg PUBLIC "-//W3C//DTD SVG 1.0//EN"    "http://www.w3.org/TR/2001/REC-SVG-20010904/DTD/svg10.dtd" [
	<!ENTITY ns_flows "http://ns.adobe.com/Flows/1.0/">
	<!ENTITY ns_svg "http://www.w3.org/2000/svg">
	<!ENTITY ns_xlink "http://www.w3.org/1999/xlink">
]>
<svg  
	 width="241.439" height="238.381" viewBox="0 0 241.439 238.381"
	 style="overflow:visible;enable-background:new 0 0 241.439 238.381" xml:space="preserve">
	<style type="text/css">
	
	</style>
	<g id="Layer_1">
		<path style="fill:#B4B4B4;stroke:#000000;stroke-width:3;stroke-linecap:square;stroke-miterlimit:1.5;" d="M36.639,203.474
			h50.556c0,0-3.6-20.592,43.068-64.666c20.13-19.012-0.684-119.136,42.778-127.039c21.389-3.889,3.311,191.556,17.211,191.705
			h49.081"/>
		
			<line style="fill:none;stroke:#000000;stroke-width:0.0078;stroke-linecap:square;stroke-miterlimit:1;" x1="86.23" y1="202.51" x2="86.23" y2="0.285"/>
		
			<line style="fill:none;stroke:#000000;stroke-width:0.0078;stroke-linecap:square;stroke-miterlimit:1;" x1="136.787" y1="202.51" x2="136.787" y2="0.285"/>
		
			<line style="fill:none;stroke:#000000;stroke-width:0.0078;stroke-linecap:square;stroke-miterlimit:1;" x1="189.288" y1="202.51" x2="189.288" y2="0.285"/>
		
			<line style="fill:none;stroke:#000000;stroke-width:0.0078;stroke-linecap:square;stroke-miterlimit:1;" x1="60.953" y1="202.51" x2="60.953" y2="0.285"/>
		
			<line style="fill:none;stroke:#000000;stroke-width:0.0078;stroke-linecap:square;stroke-miterlimit:1;" x1="111.509" y1="202.51" x2="111.509" y2="0.285"/>
		
			<line style="fill:none;stroke:#000000;stroke-width:0.0078;stroke-linecap:square;stroke-miterlimit:1;" x1="164.009" y1="202.51" x2="164.009" y2="0.285"/>
		
			<line style="fill:none;stroke:#000000;stroke-width:0.0078;stroke-linecap:square;stroke-miterlimit:1;" x1="214.565" y1="202.51" x2="214.565" y2="0.285"/>
		
			<line style="fill:none;stroke:#000000;stroke-width:0.0078;stroke-linecap:square;stroke-miterlimit:1;" x1="35.674" y1="202.51" x2="239.843" y2="202.51"/>
		
			<line style="fill:none;stroke:#000000;stroke-width:0.0078;stroke-linecap:square;stroke-miterlimit:1;" x1="35.674" y1="111.12" x2="239.843" y2="111.12"/>
		
			<line style="fill:none;stroke:#000000;stroke-width:0.0078;stroke-linecap:square;stroke-miterlimit:1;" x1="35.674" y1="19.73" x2="239.843" y2="19.73"/>
		
			<line style="fill:none;stroke:#000000;stroke-width:0.0078;stroke-linecap:square;stroke-miterlimit:1;" x1="35.674" y1="185.009" x2="239.843" y2="185.009"/>
		
			<line style="fill:none;stroke:#000000;stroke-width:0.0078;stroke-linecap:square;stroke-miterlimit:1;" x1="35.674" y1="165.565" x2="239.843" y2="165.565"/>
		
			<line style="fill:none;stroke:#000000;stroke-width:0.0078;stroke-linecap:square;stroke-miterlimit:1;" x1="35.674" y1="148.064" x2="239.843" y2="148.064"/>
		
			<line style="fill:none;stroke:#000000;stroke-width:0.0078;stroke-linecap:square;stroke-miterlimit:1;" x1="35.674" y1="128.62" x2="239.843" y2="128.62"/>
		
			<line style="fill:none;stroke:#000000;stroke-width:0.0078;stroke-linecap:square;stroke-miterlimit:1;" x1="35.674" y1="91.675" x2="239.843" y2="91.675"/>
		
			<line style="fill:none;stroke:#000000;stroke-width:0.0078;stroke-linecap:square;stroke-miterlimit:1;" x1="35.674" y1="74.175" x2="239.843" y2="74.175"/>
		
			<line style="fill:none;stroke:#000000;stroke-width:0.0078;stroke-linecap:square;stroke-miterlimit:1;" x1="35.674" y1="54.73" x2="239.843" y2="54.73"/>
		
			<line style="fill:none;stroke:#000000;stroke-width:0.0078;stroke-linecap:square;stroke-miterlimit:1;" x1="35.674" y1="37.23" x2="239.843" y2="37.23"/>
		
			<line style="fill:none;stroke:#000000;stroke-linecap:square;stroke-miterlimit:1;" x1="26.917" y1="203.474" x2="34.695" y2="203.474"/>
		
			<line style="fill:none;stroke:#000000;stroke-linecap:square;stroke-miterlimit:1;" x1="26.917" y1="111.307" x2="34.695" y2="111.307"/>
		
			<line style="fill:none;stroke:#000000;stroke-linecap:square;stroke-miterlimit:1;" x1="26.917" y1="19.917" x2="34.695" y2="19.917"/>
		
			<line style="fill:none;stroke:#000000;stroke-linecap:square;stroke-miterlimit:1;" x1="35.861" y1="204.641" x2="35.861" y2="212.419"/>
		
			<line style="fill:none;stroke:#000000;stroke-linecap:square;stroke-miterlimit:1;" x1="86.417" y1="204.641" x2="86.417" y2="212.419"/>
		
			<line style="fill:none;stroke:#000000;stroke-linecap:square;stroke-miterlimit:1;" x1="136.974" y1="204.641" x2="136.974" y2="212.419"/>
		
			<line style="fill:none;stroke:#000000;stroke-linecap:square;stroke-miterlimit:1;" x1="189.474" y1="204.641" x2="189.474" y2="212.419"/>
		
			<line style="fill:none;stroke:#000000;stroke-linecap:square;stroke-miterlimit:1;" x1="240.03" y1="204.641" x2="240.03" y2="212.419"/>
		
			<line style="fill:none;stroke:#000000;stroke-width:3;stroke-linecap:square;stroke-miterlimit:1.5;" x1="36.639" y1="203.474" x2="36.639" y2="203.474"/>
		
			<line style="fill:none;stroke:#000000;stroke-width:3;stroke-linecap:square;stroke-miterlimit:1.5;" x1="36.639" y1="203.474" x2="36.639" y2="203.474"/>
		
			<line style="fill:none;stroke:#000000;stroke-width:3;stroke-linecap:square;stroke-miterlimit:1.5;" x1="137.751" y1="20.694" x2="137.751" y2="20.694"/>
		<g>
			<text transform="matrix(1 0 0 1 18.5557 205.6133)"><tspan x="0" y="0" style="font-family:Liberation Sans; font-size:5.950000;">0</tspan></text>
		</g>
		<g>
			<text transform="matrix(1 0 0 1 13.8892 113.4453)"><tspan x="0" y="0" style="font-family:Liberation Sans; font-size:5.950000;">10</tspan></text>
		</g>
		<g>
			<text transform="matrix(1 0 0 1 13.8892 22.0557)"><tspan x="0" y="0" style="font-family:Liberation Sans; font-size:5.950000;">20</tspan></text>
		</g>
		<g>
			<text transform="matrix(1 0 0 1 32.9448 223.5024)"><tspan x="0" y="0" style="font-family:Liberation Sans; font-size:5.950000;">0</tspan></text>
		</g>
		<g>
			<text transform="matrix(1 0 0 1 83.501 223.5024)"><tspan x="0" y="0" style="font-family:Liberation Sans; font-size:5.950000;">2</tspan></text>
		</g>
		<g>
			<text transform="matrix(1 0 0 1 134.0571 223.5024)"><tspan x="0" y="0" style="font-family:Liberation Sans; font-size:5.950000;">4</tspan></text>
		</g>
		<g>
			<text transform="matrix(1 0 0 1 186.5576 223.5024)"><tspan x="0" y="0" style="font-family:Liberation Sans; font-size:5.950000;">6</tspan></text>
		</g>
		<g>
			<text transform="matrix(1 0 0 1 237.1138 223.5024)"><tspan x="0" y="0" style="font-family:Liberation Sans; font-size:5.950000;">8</tspan></text>
		</g>
		<g>
			<text transform="matrix(1 0 0 1 129.9087 234.9097)"><tspan x="0" y="0" style="font-family:Liberation Sans; font-size:5.950000;">t (s)</tspan></text>
		</g>
		<g>
			<text transform="matrix(0 -1 1 0 7.7778 141.8706)"><tspan x="0" y="0" style="font-family:Liberation Sans; font-size:5.950000;">v (m/s)</tspan></text>
		</g>
		<g>
			<ellipse style="fill:#FFFFFF;" cx="150.499" cy="194.11" rx="10.449" ry="6.967"/> 
			<ellipse style="fill:#FFFFFF;" cx="150.499" cy="175.602" rx="10.449" ry="6.966"/> 
			<ellipse style="fill:#FFFFFF;" cx="150.499" cy="157.093" rx="10.449" ry="6.966"/> 
			<ellipse style="fill:#FFFFFF;" cx="150.499" cy="138.585" rx="10.449" ry="6.967"/> 
			<ellipse style="fill:#FFFFFF;" cx="150.499" cy="120.076" rx="10.449" ry="6.966"/> 
			<ellipse style="fill:#FFFFFF;" cx="150.499" cy="101.568" rx="10.449" ry="6.966"/> 
			<ellipse style="fill:#FFFFFF;" cx="150.499" cy="83.06" rx="10.449" ry="6.966"/> 
			<ellipse style="fill:#FFFFFF;" cx="150.499" cy="64.551" rx="10.449" ry="6.967"/> 
			<ellipse style="fill:#FFFFFF;" cx="150.499" cy="46.043" rx="10.449" ry="6.967"/> 
			<ellipse style="fill:#FFFFFF;" cx="150.499" cy="27.534" rx="10.449" ry="6.966"/> 
		</g>
		<ellipse style="fill:#FFFFFF;" cx="176.533" cy="194.11" rx="10.449" ry="6.967"/> 
		<ellipse style="fill:#FFFFFF;" cx="176.533" cy="175.602" rx="10.449" ry="6.966"/> 
		<ellipse style="fill:#FFFFFF;" cx="176.533" cy="157.093" rx="10.449" ry="6.966"/> 
		<ellipse style="fill:#FFFFFF;" cx="176.533" cy="138.585" rx="10.449" ry="6.967"/> 
		<ellipse style="fill:#FFFFFF;" cx="176.533" cy="120.076" rx="10.449" ry="6.966"/> 
		<ellipse style="fill:#FFFFFF;" cx="176.533" cy="101.568" rx="10.449" ry="6.966"/> 
		<ellipse style="fill:#FFFFFF;" cx="176.533" cy="83.06" rx="10.449" ry="6.966"/> 
		<ellipse style="fill:#FFFFFF;" cx="176.533" cy="64.551" rx="10.449" ry="6.967"/> 
		<ellipse style="fill:#FFFFFF;" cx="176.533" cy="46.043" rx="10.449" ry="6.967"/> 
		<ellipse style="fill:#FFFFFF;" cx="176.533" cy="27.534" rx="10.449" ry="6.966"/> 
		<ellipse style="fill:#FFFFFF;" cx="176.533" cy="8.576" rx="10.449" ry="6.966"/> 
		<ellipse style="fill:#FFFFFF;" cx="124.464" cy="194.11" rx="10.449" ry="6.967"/> 
		<ellipse style="fill:#FFFFFF;" cx="124.464" cy="175.602" rx="10.449" ry="6.966"/> 
		<ellipse style="fill:#FFFFFF;" cx="124.464" cy="157.093" rx="10.449" ry="6.966"/> 
		<ellipse style="fill:#FFFFFF;" cx="124.464" cy="138.523" rx="10.449" ry="6.966"/> 
		<ellipse style="fill:#FFFFFF;" cx="98.43" cy="194.11" rx="10.45" ry="6.967"/> 
		<ellipse style="fill:#FFFFFF;" cx="98.43" cy="175.602" rx="10.45" ry="6.966"/> 
		<g>
			<text transform="matrix(1 0 0 1 90.814 196.8647)"><tspan x="0" y="0" style="font-family:Liberation Sans; font-size:5.950000;">2 m</tspan></text>
		</g>
		<g>
			<text transform="matrix(1 0 0 1 89.2583 178.2949)"><tspan x="0" y="0" style="font-family:Liberation Sans; font-size:5.950000;">1 m</tspan></text>
		</g>
		<g>
			<text transform="matrix(1 0 0 1 116.5781 196.8647)"><tspan x="0" y="0" style="font-family:Liberation Sans; font-size:5.950000;">2 m</tspan></text>
		</g>
		<g>
			<text transform="matrix(1 0 0 1 116.5781 178.2949)"><tspan x="0" y="0" style="font-family:Liberation Sans; font-size:5.950000;">2 m</tspan></text>
		</g>
		<g>
			<text transform="matrix(1 0 0 1 116.5781 159.7256)"><tspan x="0" y="0" style="font-family:Liberation Sans; font-size:5.950000;">2 m</tspan></text>
		</g>
		<g>
			<text transform="matrix(1 0 0 1 115.2173 141.1558)"><tspan x="0" y="0" style="font-family:Liberation Sans; font-size:5.950000;">0.5 m</tspan></text>
		</g>
		<g>
			<text transform="matrix(1 0 0 1 143.3145 196.8647)"><tspan x="0" y="0" style="font-family:Liberation Sans; font-size:5.950000;">2 m</tspan></text>
		</g>
		<g>
			<text transform="matrix(1 0 0 1 143.3145 178.2949)"><tspan x="0" y="0" style="font-family:Liberation Sans; font-size:5.950000;">2 m</tspan></text>
		</g>
		<g>
			<text transform="matrix(1 0 0 1 143.3145 159.7256)"><tspan x="0" y="0" style="font-family:Liberation Sans; font-size:5.950000;">2 m</tspan></text>
		</g>
		<g>
			<text transform="matrix(1 0 0 1 143.3145 141.1558)"><tspan x="0" y="0" style="font-family:Liberation Sans; font-size:5.950000;">2 m</tspan></text>
		</g>
		<g>
			<text transform="matrix(1 0 0 1 143.3145 122.5859)"><tspan x="0" y="0" style="font-family:Liberation Sans; font-size:5.950000;">2 m</tspan></text>
		</g>
		<g>
			<text transform="matrix(1 0 0 1 143.3145 104.0166)"><tspan x="0" y="0" style="font-family:Liberation Sans; font-size:5.950000;">2 m</tspan></text>
		</g>
		<g>
			<text transform="matrix(1 0 0 1 143.3145 85.4468)"><tspan x="0" y="0" style="font-family:Liberation Sans; font-size:5.950000;">2 m</tspan></text>
		</g>
		<g>
			<text transform="matrix(1 0 0 1 140.3979 66.877)"><tspan x="0" y="0" style="font-family:Liberation Sans; font-size:5.950000;">1.5 m</tspan></text>
		</g>
		<g>
			<text transform="matrix(1 0 0 1 140.3979 48.3076)"><tspan x="0" y="0" style="font-family:Liberation Sans; font-size:5.950000;">1 m</tspan></text>
		</g>
		<g>
			<text transform="matrix(1 0 0 1 141.1758 29.7378)"><tspan x="0" y="0" style="font-family:Liberation Sans; font-size:5.950000;">1 m</tspan></text>
		</g>
		<g>
			<text transform="matrix(1 0 0 1 167.1343 48.3076)"><tspan x="0" y="0" style="font-family:Liberation Sans; font-size:5.950000;">1.5 m</tspan></text>
		</g>
		<g>
			<text transform="matrix(1 0 0 1 167.1343 66.877)"><tspan x="0" y="0" style="font-family:Liberation Sans; font-size:5.950000;">1.5 m</tspan></text>
		</g>
		<g>
			<text transform="matrix(1 0 0 1 167.1343 85.4468)"><tspan x="0" y="0" style="font-family:Liberation Sans; font-size:5.950000;">1.5 m</tspan></text>
		</g>
		<g>
			<text transform="matrix(1 0 0 1 167.1343 104.0166)"><tspan x="0" y="0" style="font-family:Liberation Sans; font-size:5.950000;">1.5 m</tspan></text>
		</g>
		<g>
			<text transform="matrix(1 0 0 1 167.1343 122.5859)"><tspan x="0" y="0" style="font-family:Liberation Sans; font-size:5.950000;">1.5 m</tspan></text>
		</g>
		<g>
			<text transform="matrix(1 0 0 1 167.1343 141.1558)"><tspan x="0" y="0" style="font-family:Liberation Sans; font-size:5.950000;">1.5 m</tspan></text>
		</g>
		<g>
			<text transform="matrix(1 0 0 1 167.1343 159.7256)"><tspan x="0" y="0" style="font-family:Liberation Sans; font-size:5.950000;">1.5 m</tspan></text>
		</g>
		<g>
			<text transform="matrix(1 0 0 1 167.1343 178.2949)"><tspan x="0" y="0" style="font-family:Liberation Sans; font-size:5.950000;">1.5 m</tspan></text>
		</g>
		<g>
			<text transform="matrix(1 0 0 1 167.1343 196.8647)"><tspan x="0" y="0" style="font-family:Liberation Sans; font-size:5.950000;">1.5 m</tspan></text>
		</g>
		<g>
			<text transform="matrix(1 0 0 1 167.1343 29.7378)"><tspan x="0" y="0" style="font-family:Liberation Sans; font-size:5.950000;">1.5 m</tspan></text>
		</g>
		<g>
			<text transform="matrix(1 0 0 1 167.1343 11.1685)"><tspan x="0" y="0" style="font-family:Liberation Sans; font-size:5.950000;">0.5 m</tspan></text>
		</g>
		
			<rect x="35.327" y="0.25" style="fill:none;stroke:#000000;stroke-width:0.5;stroke-miterlimit:1;" width="204.704" height="203.224"/> 
		<rect x="88.764" y="202.58" style="fill:#FFFFFF;" width="98.167" height="1.333"/> 
	</g>
</svg>
