<?xml version="1.0" encoding="iso-8859-1"?>
<!-- Generator: Adobe Illustrator 11 Build 196, SVG Export Plug-In . SVG Version: 6.0.0 Build 78)  -->
<!DOCTYPE svg PUBLIC "-//W3C//DTD SVG 1.0//EN"    "http://www.w3.org/TR/2001/REC-SVG-20010904/DTD/svg10.dtd" [
	<!ENTITY ns_flows "http://ns.adobe.com/Flows/1.0/">
	<!ENTITY ns_svg "http://www.w3.org/2000/svg">
	<!ENTITY ns_xlink "http://www.w3.org/1999/xlink">
]>
<svg  
	 width="137.154" height="87.736" viewBox="0 0 137.154 87.736" style="overflow:visible;enable-background:new 0 0 137.154 87.736"
	 xml:space="preserve">
	<g id="Layer_1">
		
			<rect x="65.918" y="18.557" transform="matrix(-0.0781 0.9969 -0.9969 -0.0781 126.9341 -7.4633)" style="fill:#404040;stroke:#000000;stroke-width:0.5;" width="2" height="72.799"/> 
		
			<rect x="66.769" y="18.158" transform="matrix(-0.0773 0.997 -0.997 -0.0773 126.5199 -7.9729)" style="fill:#808080;" width="0.36" height="72.799"/> 
		<path style="fill:#B4B4B4;stroke:#000000;stroke-width:0.5;" d="M15.523,50.327c4.081-0.884,14.688-5.67,15.478-0.392
			s1.259-0.704-0.312,3.988C29.117,58.614,15.523,50.327,15.523,50.327z"/>
		<path style="fill:#7F7F7F;" d="M19.761,51.6c0.547,0.218,0.885,0.708,1.361,1.034c0.26,0.208,0.638,0.175,0.847-0.084
			c0.208-0.247,0.174-0.626-0.084-0.847c-0.497-0.377-0.924-0.85-1.491-1.132c-0.288-0.173-0.658-0.089-0.831,0.198
			S19.474,51.427,19.761,51.6L19.761,51.6z"/>
		<path style="fill:#7F7F7F;" d="M22.362,52.017c0.762,0.348,1.311,1.03,2.088,1.354c0.288,0.161,0.647,0.063,0.808-0.225
			c0.16-0.288,0.064-0.659-0.224-0.82c-0.776-0.337-1.326-1.007-2.087-1.367c-0.288-0.161-0.66-0.052-0.821,0.237
			C21.964,51.484,22.073,51.856,22.362,52.017L22.362,52.017z"/>
		<path style="fill:#7F7F7F;" d="M25.318,52.85c0.737,0.358,1.375,0.86,2.055,1.302c0.274,0.185,0.644,0.101,0.829-0.173
			s0.101-0.644-0.173-0.828c-0.731-0.433-1.334-1.058-2.15-1.36c-0.289-0.161-0.648-0.051-0.81,0.25
			C24.907,52.329,25.017,52.688,25.318,52.85L25.318,52.85z"/>
		<path style="fill:#7F7F7F;" d="M23.192,50.853c0.767-0.341,1.444-0.827,2.143-1.261c0.254-0.206,0.31-0.59,0.104-0.844
			c-0.205-0.267-0.578-0.309-0.844-0.116c-0.576,0.469-1.251,0.767-1.894,1.13c-0.298,0.127-0.438,0.48-0.3,0.792
			C22.528,50.851,22.881,50.991,23.192,50.853L23.192,50.853z"/>
		<path style="fill:#7F7F7F;" d="M26.067,51.128c0.833-0.223,1.777-0.275,2.453-0.899c0.276-0.166,0.368-0.535,0.203-0.824
			c-0.179-0.277-0.548-0.369-0.824-0.202c-0.625,0.453-1.362,0.583-2.09,0.751c-0.319,0.075-0.533,0.397-0.458,0.717
			C25.426,50.99,25.748,51.204,26.067,51.128L26.067,51.128z"/>
		<path style="fill:#B4B4B4;" d="M99.925,57.106c1.955-1.182,3.967-2.266,5.873-3.536c0.2-0.154,0.24-0.432,0.087-0.633
			c-0.144-0.199-0.423-0.24-0.623-0.096c-1.884,1.244-3.869,2.33-5.803,3.495c-0.207,0.125-0.276,0.402-0.152,0.618
			C99.441,57.163,99.718,57.231,99.925,57.106L99.925,57.106z"/>
		<path style="fill:#C8C8C8;" d="M102.688,56.646c1.293-1.018,2.829-1.894,4.45-2.19c0.247-0.028,0.424-0.249,0.406-0.495
			c-0.019-0.246-0.24-0.423-0.486-0.405c-1.812,0.328-3.615,1.25-4.998,2.458c-0.183,0.174-0.187,0.456-0.002,0.63
			C102.232,56.826,102.514,56.83,102.688,56.646L102.688,56.646z"/>
		<path style="fill:#C8C8C8;" d="M98.803,58.711c1.31,1.165,2.869,2.03,4.4,2.884c0.228,0.103,0.49-0.009,0.592-0.236
			c0.093-0.228-0.009-0.49-0.236-0.592c-1.431-0.817-2.884-1.599-4.133-2.703c-0.184-0.174-0.466-0.168-0.64,0.016
			C98.613,58.254,98.618,58.546,98.803,58.711L98.803,58.711z"/>
		<path style="fill:#C8C8C8;" d="M101.443,58.382c1.361,1.705,3.466,2.444,5.151,3.742c0.195,0.147,0.48,0.113,0.628-0.092
			c0.147-0.195,0.113-0.48-0.092-0.628c-1.61-1.292-3.683-1.962-5.002-3.608c-0.164-0.191-0.444-0.213-0.635-0.05
			C101.301,57.91,101.279,58.19,101.443,58.382L101.443,58.382z"/>
		<path style="fill:#929292;" d="M97.911,58.811c0.106,0.196,0.214,0.384,0.391,0.529c1.381,1.218,3.144,1.525,4.461,2.71
			c0.195,0.147,0.48,0.113,0.627-0.083c0.156-0.195,0.122-0.479-0.073-0.626c-0.95-0.836-2.139-1.268-3.227-1.898
			c-0.522-0.304-1.129-0.474-1.426-1.118c-0.134-0.208-0.412-0.268-0.62-0.133S97.777,58.603,97.911,58.811L97.911,58.811z"/>
		<path style="fill:#929292;" d="M100.618,58.703c1.281,1.897,3.41,2.928,5.283,4.11c0.215,0.13,0.494,0.058,0.613-0.149
			c0.13-0.215,0.067-0.493-0.148-0.623c-1.756-1.106-3.732-2.06-4.979-3.785c-0.124-0.217-0.4-0.295-0.608-0.161
			C100.562,58.219,100.484,58.495,100.618,58.703L100.618,58.703z"/>
		<path style="fill:#929292;" d="M101.5,56.205c1.78-0.989,3.648-1.792,5.558-2.517c0.224-0.095,0.338-0.359,0.252-0.582
			c-0.095-0.233-0.358-0.348-0.582-0.262c-1.92,0.743-3.808,1.554-5.616,2.541c-0.225,0.114-0.321,0.379-0.216,0.604
			C101.001,56.213,101.276,56.31,101.5,56.205L101.5,56.205z"/>
		<path style="fill:#A3A3A3;" d="M98.812,56.436c1.698-0.911,3.456-1.732,5.121-2.702c0.217-0.124,0.285-0.401,0.161-0.617
			c-0.125-0.207-0.401-0.285-0.608-0.16c-1.656,0.97-3.394,1.784-5.09,2.676c-0.216,0.115-0.303,0.39-0.188,0.606
			C98.321,56.464,98.596,56.551,98.812,56.436L98.812,56.436z"/>
		<path style="fill:#A3A3A3;" d="M103.526,58.921c1.491,0.888,2.974,1.766,4.553,2.491c0.238,0.084,0.492-0.037,0.586-0.274
			c0.083-0.229-0.037-0.492-0.274-0.576c-1.516-0.702-2.944-1.557-4.383-2.394c-0.206-0.138-0.483-0.075-0.622,0.13
			C103.257,58.505,103.31,58.792,103.526,58.921L103.526,58.921z"/>
		<path style="fill:#A3A3A3;" d="M97.262,59.296c1.532,1.333,3.309,2.413,5.196,3.172c0.228,0.093,0.49-0.018,0.583-0.246
			c0.093-0.228-0.009-0.49-0.246-0.583c-1.786-0.732-3.475-1.739-4.936-3.01c-0.185-0.165-0.468-0.149-0.633,0.035
			C97.062,58.847,97.077,59.131,97.262,59.296L97.262,59.296z"/>
		<path style="fill:#A3A3A3;" d="M103.572,62.292c0.912,0.128,1.878,0.759,2.772,0.264c0.234-0.104,0.33-0.369,0.234-0.593
			c-0.104-0.224-0.369-0.33-0.594-0.225c-0.757,0.298-1.493-0.268-2.24-0.335c-0.241-0.047-0.479,0.113-0.527,0.363
			C103.171,62.006,103.331,62.244,103.572,62.292L103.572,62.292z"/>
		<path style="fill:#D0D0D0;" d="M97.479,56.05c2.141-1.036,4.363-1.802,6.615-2.575c0.216-0.115,0.303-0.39,0.179-0.606
			c-0.115-0.216-0.39-0.303-0.607-0.179c-2.228,0.709-4.407,1.517-6.517,2.527c-0.232,0.085-0.347,0.349-0.252,0.582
			C96.982,56.03,97.246,56.144,97.479,56.05L97.479,56.05z"/>
		<path style="fill:#D0D0D0;" d="M96.729,56.856c1.097-0.685,2.227-1.302,3.438-1.752c0.232-0.085,0.346-0.34,0.262-0.581
			c-0.085-0.232-0.34-0.346-0.572-0.261c-1.26,0.475-2.439,1.125-3.594,1.825c-0.217,0.133-0.277,0.411-0.152,0.618
			C96.244,56.921,96.521,56.981,96.729,56.856L96.729,56.856z"/>
		<path style="fill:#D0D0D0;" d="M98.252,57.098c0.784-0.757,1.899-0.951,2.725-1.648c0.2-0.144,0.241-0.433,0.087-0.633
			c-0.145-0.199-0.424-0.231-0.624-0.087c-0.825,0.688-1.967,0.862-2.734,1.648c-0.2,0.154-0.232,0.443-0.087,0.633
			C97.773,57.21,98.062,57.243,98.252,57.098L98.252,57.098z"/>
		<path style="fill:#D0D0D0;stroke:#A6A6A6;" d="M101.781,56.951c0.284-0.391,0.732-0.582,1.085-0.893
			c0.208-0.144,0.25-0.423,0.105-0.622c-0.153-0.2-0.432-0.25-0.632-0.097c-0.42,0.324-0.9,0.569-1.226,1.004
			c-0.165,0.185-0.159,0.467,0.026,0.632C101.323,57.15,101.606,57.135,101.781,56.951L101.781,56.951z"/>
		<path style="fill:#D0D0D0;" d="M96.335,58.16c0.896,0.682,1.976,1.067,2.884,1.721c0.206,0.138,0.483,0.075,0.622-0.13
			c0.138-0.206,0.075-0.483-0.13-0.622c-0.888-0.662-1.96-1.019-2.839-1.689c-0.195-0.147-0.481-0.104-0.628,0.092
			C96.096,57.737,96.13,58.013,96.335,58.16L96.335,58.16z"/>
		<path style="fill:#D0D0D0;" d="M100.426,58.876c0.625,0.19,1.271,0.335,1.848,0.662c0.216,0.12,0.486,0.038,0.606-0.178
			c0.121-0.216,0.039-0.495-0.177-0.616c-0.629-0.369-1.342-0.51-2.021-0.732c-0.239-0.066-0.494,0.064-0.56,0.304
			C100.056,58.555,100.187,58.81,100.426,58.876L100.426,58.876z"/>
		<path style="fill:#DCDCDC;" d="M100.126,56.196c0.797-0.47,1.583-0.952,2.383-1.42c0.001,0.004,0.001,0.006,0.003,0.01
			c0.103-0.038,0.158-0.15,0.12-0.256c-0.036-0.103-0.15-0.158-0.254-0.12c-0.847,0.437-1.635,0.975-2.462,1.445
			c-0.095,0.057-0.123,0.181-0.065,0.275C99.909,56.225,100.032,56.254,100.126,56.196L100.126,56.196z"/>
		<path style="fill:#DCDCDC;" d="M103.033,58.978c0.443,0.081,0.833,0.306,1.216,0.539c0.68,0.411,1.314,0.853,1.973,1.279
			c0.099,0.047,0.219,0.004,0.264-0.094c0.048-0.101,0.005-0.219-0.094-0.267c-0.485-0.341-0.98-0.645-1.487-0.978
			c-0.575-0.373-1.151-0.755-1.825-0.876c-0.109-0.015-0.209,0.063-0.222,0.173S102.923,58.963,103.033,58.978L103.033,58.978z"/>
		<path style="fill:#DCDCDC;" d="M100.44,59.343c1.301,0.729,2.727,1.228,4.167,1.604c0.109,0.025,0.216-0.042,0.24-0.15
			c0.025-0.107-0.042-0.215-0.149-0.24c-1.402-0.367-2.792-0.85-4.061-1.562c-0.098-0.054-0.22-0.019-0.273,0.077
			C100.31,59.167,100.344,59.289,100.44,59.343L100.44,59.343z"/>
		<path style="fill:#DCDCDC;" d="M101.771,60.143c0.196,0.277,0.503,0.432,0.802,0.569c0.739,0.332,1.51,0.538,2.264,0.811
			c0.104,0.039,0.219-0.014,0.256-0.118c0.038-0.104-0.014-0.218-0.118-0.256c-0.754-0.276-1.525-0.479-2.26-0.814
			c-0.23-0.104-0.483-0.213-0.628-0.436c-0.068-0.087-0.192-0.103-0.281-0.037C101.719,59.93,101.703,60.056,101.771,60.143
			L101.771,60.143z"/>
		<path style="fill:#DCDCDC;" d="M102.841,59.763c1.403,0.603,2.937,0.819,4.423,1.128c0.109,0.017,0.213-0.058,0.23-0.166
			c0.017-0.109-0.057-0.213-0.166-0.23c-1.446-0.297-2.939-0.513-4.305-1.09c-0.099-0.049-0.218-0.011-0.27,0.088
			C102.705,59.592,102.743,59.711,102.841,59.763L102.841,59.763z"/>
		<path style="fill:#DCDCDC;" d="M105.738,60.954c0.791,0.102,1.592,0.17,2.349,0.435c0.106,0.027,0.216-0.035,0.245-0.142
			c0.027-0.109-0.036-0.218-0.142-0.245c-0.775-0.266-1.592-0.346-2.402-0.443c-0.109-0.015-0.209,0.063-0.222,0.173
			C105.551,60.838,105.629,60.941,105.738,60.954L105.738,60.954z"/>
		<path style="fill:#DCDCDC;" d="M102.225,61.069c0.477,0.211,0.99,0.303,1.502,0.398c0.674,0.126,1.342,0.258,2.019,0.24
			c0.11-0.016,0.183-0.119,0.167-0.229c-0.019-0.108-0.122-0.183-0.229-0.164c-1.119-0.069-2.245-0.235-3.302-0.612
			c-0.104-0.042-0.22,0.006-0.263,0.107S102.124,61.028,102.225,61.069L102.225,61.069z"/>
		<path style="fill:#DCDCDC;" d="M103.27,60.302c1.053,0.536,1.958,1.299,2.931,1.958c0.096,0.053,0.218,0.019,0.271-0.079
			c0.054-0.096,0.02-0.218-0.077-0.271c-0.97-0.665-1.88-1.42-2.933-1.958c-0.096-0.053-0.218-0.019-0.271,0.079
			C103.137,60.127,103.171,60.249,103.27,60.302L103.27,60.302z"/>
		<path style="fill:#DCDCDC;" d="M100.387,59c0.251,0.101,0.483,0.239,0.714,0.376c0.094,0.058,0.217,0.027,0.275-0.068
			c0.055-0.094,0.025-0.217-0.071-0.275c-0.248-0.149-0.496-0.29-0.763-0.401c-0.103-0.043-0.22,0.004-0.263,0.105
			C100.239,58.84,100.286,58.957,100.387,59L100.387,59z"/>
		<path style="fill:none;stroke:#000000;stroke-width:0.5;" d="M97.497,56.417c0.806-0.472,2.482-1.377,3.134-1.593"/>
		<path style="fill:none;stroke:#000000;stroke-width:0.5;" d="M101.281,55.911c1.149-0.579,2.868-1.614,2.868-1.614"/>
		<path style="fill:none;stroke:#000000;stroke-width:0.5;" d="M96.735,58.029c1.599,0.927,7.036,3.661,8.526,3.844"/>
		<path style="fill:none;stroke:#000000;stroke-width:0.5;" d="M100.543,58.929c0.733,0.459,1.765,0.941,1.765,0.941"/>
		<path style="fill:none;stroke:#000000;stroke-width:0.5;" d="M102.788,59.305c1.096,0.521,2.882,0.761,2.882,0.761"/>
		<g>
			<path style="fill:none;stroke:#000000;stroke-width:0.5;" d="M15.938,46.599c-16.4,4.8-18.8-24,48-16.8s69.2,23.6,46.8,26"/>
			<path d="M108.336,56.059c1.084-0.54,2.409-1.406,3.197-2.256l-0.481,1.965l0.887,1.818
				C110.989,56.922,109.511,56.357,108.336,56.059z"/>
		</g>
		<g>
			<path style="fill:none;stroke:#000000;stroke-width:0.5;" d="M16.413,53.197C0.991,45.838-5.98,73.884,61.11,77.451
				s72.081-12.238,50.353-18.187"/>
			<path d="M109.134,58.624c0.984,0.707,2.154,1.772,2.795,2.737l-0.161-2.016l1.166-1.653
				C111.89,58.196,110.34,58.518,109.134,58.624z"/>
		</g>
		<g>
			<path style="fill:none;stroke:#000000;stroke-width:0.5;" d="M6.738,48.599c-12.8-6.4-12.4-62,55.6-45.2
				c68,16.8,75.867,45.218,60,52"/>
			<path d="M120.117,56.351c0.878-0.834,1.892-2.049,2.396-3.093l0.115,2.019l1.38,1.479
				C122.906,56.399,121.327,56.292,120.117,56.351z"/>
		</g>
		<g>
			<path style="fill:none;stroke:#000000;stroke-width:0.5;" d="M3.538,51.799c-10.4,11.2,25.605,34.836,68,35.6
				c88.8,1.6,65.605-19.205,52.8-26.4"/>
			<path d="M122.233,59.816c1.197,0.189,2.778,0.252,3.913,0.017l-1.532,1.321l-0.332,1.995
				C123.894,62.057,123.018,60.74,122.233,59.816z"/>
		</g>
	</g>
</svg>
