<?xml version="1.0" encoding="iso-8859-1"?>
<!-- Generator: Adobe Illustrator 11 Build 196, SVG Export Plug-In . SVG Version: 6.0.0 Build 78)  -->
<!DOCTYPE svg PUBLIC "-//W3C//DTD SVG 1.0//EN"    "http://www.w3.org/TR/2001/REC-SVG-20010904/DTD/svg10.dtd" [
	<!ENTITY ns_flows "http://ns.adobe.com/Flows/1.0/">
	<!ENTITY ns_svg "http://www.w3.org/2000/svg">
	<!ENTITY ns_xlink "http://www.w3.org/1999/xlink">
]>
<svg  
	 width="147.431" height="66.983" viewBox="0 0 147.431 66.983" style="overflow:visible;enable-background:new 0 0 147.431 66.983"
	 xml:space="preserve">
	<style type="text/css">
	
	</style>
	<g id="Layer_1">
		<path d="M0.098,23.207c11.713-2.766,17.547,3.166,21.473,3.416c15.292,0.976,46.851,2.44,46.851,2.44s7.457-6.075,53.439-3.01
			c1.22,0.082,5.693,0.569,6.588-0.407c1.042-1.137,11.225-4.88,11.225-4.88s3.416,0,1.952,1.464
			c-1.464,1.464-5.369,2.928-5.369,2.928l10.33,1.545l0.813,1.22c0,0,1.139,0.895-10.655,0.163
			c-4.384-0.272,9.76,1.464,10.249,3.416c0.488,1.952-9.272,0.488-10.737,0c-1.464-0.488,9.11,1.79,9.11,3.742
			s-9.11-0.813-9.11-0.813s7.077,2.277,7.077,3.742c0,1.464-10.005-2.278-10.005-2.278s-6.914-1.789-9.598-1.789
			c-2.488,0-46.688,9.11-52.056,7.158S20.107,47.12,20.107,47.12l-2.44,11.713"/>
		<g>
			<circle style="fill:#FFFFFF;" cx="77.522" cy="35.141" r="2.07"/> 
			<g>
				<line style="fill:none;stroke:#000000;" x1="79.362" y1="36.981" x2="75.681" y2="33.301"/>
				<line style="fill:none;stroke:#000000;" x1="79.362" y1="33.301" x2="75.681" y2="36.981"/>
			</g>
		</g>
		<line style="fill:none;stroke:#000000;stroke-width:0.5;" x1="77.207" y1="44.192" x2="77.207" y2="64.038"/>
		<path d="M77.207,66.983c-0.514-1.386-1.392-3.105-2.32-4.171l2.32,0.84l2.32-0.84C78.598,63.878,77.721,65.598,77.207,66.983z"/>
		<g>
			<path style="fill:none;stroke:#000000;stroke-width:0.5;" d="M77.19,18.138c-3.27-9.016-31.803-1.113-33.838-5.964"/>
			<path style="fill:none;stroke:#000000;stroke-width:0.5;" d="M9.639,18.73c3.088-9.071,31.775-1.67,33.713-6.557"/>
		</g>
		<g>
			<g>
				<text transform="matrix(1 0 0 1 41.7114 10)"><tspan x="0" y="0" style="font-family:Liberation Sans; font-size:8.500000;">r</tspan></text>
			</g>
		</g>
		<rect y="25.947" style="fill:none;" width="147.401" height="2.835"/> 
	</g>
</svg>
