<?xml version="1.0" encoding="iso-8859-1"?>
<!-- Generator: Adobe Illustrator 11 Build 196, SVG Export Plug-In . SVG Version: 6.0.0 Build 78)  -->
<!DOCTYPE svg PUBLIC "-//W3C//DTD SVG 1.0//EN"    "http://www.w3.org/TR/2001/REC-SVG-20010904/DTD/svg10.dtd" [
	<!ENTITY ns_flows "http://ns.adobe.com/Flows/1.0/">
	<!ENTITY ns_svg "http://www.w3.org/2000/svg">
	<!ENTITY ns_xlink "http://www.w3.org/1999/xlink">
]>
<svg
	 width="147.401" height="111.441" viewBox="0 0 147.401 111.441"
	 style="overflow:visible;enable-background:new 0 0 147.401 111.441" xml:space="preserve">
	<metadata>
<?xpacket begin='﻿' id='W5M0MpCehiHzreSzNTczkc9d'?><x:xmpmeta xmlns:x='adobe:ns:meta/' x:xmptk='XMP toolkit 3.0-29, framework 1.6'>
<rdf:RDF xmlns:rdf='http://www.w3.org/1999/02/22-rdf-syntax-ns#' xmlns:iX='http://ns.adobe.com/iX/1.0/'>

 <rdf:Description rdf:about=''
  xmlns:pdf='http://ns.adobe.com/pdf/1.3/'>
 </rdf:Description>

 <rdf:Description rdf:about=''
  xmlns:tiff='http://ns.adobe.com/tiff/1.0/'>
 </rdf:Description>

 <rdf:Description rdf:about=''
  xmlns:xap='http://ns.adobe.com/xap/1.0/'
  xmlns:xapGImg='http://ns.adobe.com/xap/1.0/g/img/'>
  <xap:CreateDate>2006-07-16T20:54:54Z</xap:CreateDate>
  <xap:ModifyDate>2006-07-16T20:54:54Z</xap:ModifyDate>
  <xap:CreatorTool>Illustrator</xap:CreatorTool>
  <xap:Thumbnails>
   <rdf:Alt>
    <rdf:li rdf:parseType='Resource'>
     <xapGImg:format>JPEG</xapGImg:format>
     <xapGImg:width>256</xapGImg:width>
     <xapGImg:height>196</xapGImg:height>
     <xapGImg:image>/9j/4AAQSkZJRgABAgEASABIAAD/7QAsUGhvdG9zaG9wIDMuMAA4QklNA+0AAAAAABAASAAAAAEA&#xA;AQBIAAAAAQAB/+4ADkFkb2JlAGTAAAAAAf/bAIQABgQEBAUEBgUFBgkGBQYJCwgGBggLDAoKCwoK&#xA;DBAMDAwMDAwQDA4PEA8ODBMTFBQTExwbGxscHx8fHx8fHx8fHwEHBwcNDA0YEBAYGhURFRofHx8f&#xA;Hx8fHx8fHx8fHx8fHx8fHx8fHx8fHx8fHx8fHx8fHx8fHx8fHx8fHx8fHx8f/8AAEQgAxAEAAwER&#xA;AAIRAQMRAf/EAaIAAAAHAQEBAQEAAAAAAAAAAAQFAwIGAQAHCAkKCwEAAgIDAQEBAQEAAAAAAAAA&#xA;AQACAwQFBgcICQoLEAACAQMDAgQCBgcDBAIGAnMBAgMRBAAFIRIxQVEGE2EicYEUMpGhBxWxQiPB&#xA;UtHhMxZi8CRygvElQzRTkqKyY3PCNUQnk6OzNhdUZHTD0uIIJoMJChgZhJRFRqS0VtNVKBry4/PE&#xA;1OT0ZXWFlaW1xdXl9WZ2hpamtsbW5vY3R1dnd4eXp7fH1+f3OEhYaHiImKi4yNjo+Ck5SVlpeYmZ&#xA;qbnJ2en5KjpKWmp6ipqqusra6voRAAICAQIDBQUEBQYECAMDbQEAAhEDBCESMUEFURNhIgZxgZEy&#xA;obHwFMHR4SNCFVJicvEzJDRDghaSUyWiY7LCB3PSNeJEgxdUkwgJChgZJjZFGidkdFU38qOzwygp&#xA;0+PzhJSktMTU5PRldYWVpbXF1eX1RlZmdoaWprbG1ub2R1dnd4eXp7fH1+f3OEhYaHiImKi4yNjo&#xA;+DlJWWl5iZmpucnZ6fkqOkpaanqKmqq6ytrq+v/aAAwDAQACEQMRAD8A6pirsVdirsVdirsVdirs&#xA;VdirsVdirsVdirsVdirsVdirsVdirsVdirsVdirsVdirsVdirsVdirsVdirsVdirsVdirsVdirsV&#xA;dirsVdirsVdirsVdirsVdirsVdirsVdirsVdirsVdirsVdirsVdirsVdirsVdirsVdirsVdirsVd&#xA;irsVdirsVdirsVdirsVdirsVdirsVdirsVdirsVdirsVdirsVdirsVdirsVdirsVdirsVdirsVdi&#xA;rsVdirsVdirsVdirsVdirsVdirsVdirsVdirsVdirsVdirsVdirsVdirsVdirsVdirsVdirsVdir&#xA;sVdirsVdirsVdirsVdirsVdirsVdirsVdirsVdirsVdirsVdirsVdirsVdirsVdirsVdirsVdirs&#xA;VdirsVdirsVS/XXmXT+MMrQPLNbw+rHTmqyzpGxXkGFeLHtirMf+VW6b/wBXjVP+R0X/AFRxV3/K&#xA;rdN/6vGqf8jov+qOKu/5Vbpv/V41T/kdF/1RxV3/ACq3Tf8Aq8ap/wAjov8Aqjirv+VW6b/1eNU/&#xA;5HRf9UcVd/yq3Tf+rxqn/I6L/qjirv8AlVum/wDV41T/AJHRf9UcVd/yq3Tf+rxqn/I6L/qjirv+&#xA;VW6b/wBXjVP+R0X/AFRxV3/KrdN/6vGqf8jov+qOKu/5Vbpv/V41T/kdF/1RxV3/ACq3Tf8Aq8ap&#xA;/wAjov8Aqjirv+VW6b/1eNU/5HRf9UcVd/yq3Tf+rxqn/I6L/qjirv8AlVum/wDV41T/AJHRf9Uc&#xA;Vd/yq3Tf+rxqn/I6L/qjirv+VW6b/wBXjVP+R0X/AFRxVKNc8s+TtCeGPU/MeqQzXAd4oEcTSmOK&#xA;hkl9OG3kcRxggvIRxX9ojFVLTvJumX3mO4s4Nd1CbTW02yv7CeOeBhL9YluVlZXEZDKFjiIp/N74&#xA;qnn/ACq3Tf8Aq8ap/wAjov8AqjirGte8q2VteNZWOs6kGhXldXDSxOqMwJVQoiFSqK0jf5KkDfoq&#xA;mPl/8v4L+zkmudU1WNllZF/fQgEAAmn7rfgxMdR1K1xVNP8AlVum/wDV41T/AJHRf9UcVd/yq3Tf&#xA;+rxqn/I6L/qjirv+VW6b/wBXjVP+R0X/AFRxV3/KrdN/6vGqf8jov+qOKu/5Vbpv/V41T/kdF/1R&#xA;xVj2KuxV2KuxVLtc/wB4o/8AmLs/+ouLFXs2KuxV2KuxV2KuxV2KuxV2KuxV2KuxV2KuxV2KuxV2&#xA;KvEfLfmPWP8Ale/5jXH+H9Q1qTTodJ0+zWzksk+rWzQyTMD9dubPaeT94vDl79qqpT+SWoX9r5Vv&#xA;Nd9CWKz8reYdW0yeyajyRaPcGGeUARl1JtZysh4lvgVwtSwxV7P5i8wJa2CLYyo91dqDbygho0jb&#xA;/j4Y9Cir8Xv8gcVY3pGkPqV56PxiCOTldysSHAUhuBIP94zKit4Msh/b3VZ9FFHFEsUahI0AVFHQ&#xA;AdBiq/FXYq7FXYq7FXlWKuxV2KuxVLtc/wB4o/8AmLs/+ouLFXs2KuxV2KuxV2KuxV2KuxV2KuxV&#xA;2KuxV2KuxV2KuxV2KsEvfJfmHTPPmo+b/K8lpLJrlnFa6vp1/JLDGZ7QcbW6SSGOYkojFGQqKjow&#xA;xVW8l+WbT8vfJcenzT/X7+eeW4vrmgjN3f3bl5CFJIUV2Feiip74qxvQtEuI79LaxK/V7kNNFpxS&#xA;kUB5cxwNapAqyKnpkECsiCndV6dpWmwabYxWkJLBB8cjElnc/adia7scVReKuxV2KuxV2KuxV5Vi&#xA;rsVdirsVS7XP94o/+Yuz/wCouLFXs2KuxV2KuxV2KuxV2KuxV2KuxV2KuxV2KuxV2KuxV2Kqc88U&#xA;ELzTMEiiUvI56BQKk4q891fU5dUuhePGWiCenZ2jCpIm40BA35TLJGrAfsSGm6HFWYeX9FGnQNJM&#xA;ed7OB67k1pSrcfDdmZmIG7EnFU2xV2KuxV2KuxV2KuxV5VirsVdirsVS7XP94o/+Yuz/AOouLFXs&#xA;2KuxV2KuxV2KuxV2KuxV2KuxV2KuxV2KuxV2KuxV2KsI8zax+kZ5bKH47C3YJJQgCeVSvJK9lUsi&#xA;V7O6t0XFUf5U0bl/uVuhyZz/AKIKcapVj6xXsZGd3UfshvoCrKMVdirsVdirsVdirsVdiryrFXYq&#xA;7FXYql2uf7xR/wDMXZ/9RcWKvZsVdirsVdirsVdirsVdirsVdirsVdirsVdirsVdirG/NeuPDx02&#xA;zJNzNvcNGQHSI/soe0kpIRPAsPEYqlPlvREv7hJXCmwtzzLJUJLJvwVf+K/jd/8AVZF/ZxVnWKux&#xA;V2KuxV2KuxV2KuxV2KvKsVdirsVdiqXa5/vFH/zF2f8A1FxYq9mxV2KuxV2KuxV2KuxV2KuxV2Ku&#xA;xV2KuxV2KuxVLNf1qPS7TkBzupAwt4upJUVLU2qF/HYDcjFWGabp15qVy1sJS1wy8ru7qG4mQkO9&#xA;QKb/ABFKdQImH2cVeg21tBa28dvAnCGMcUUVNB8zucVVcVdirsVdirsVdirsVdirsVeVYq7FXYq7&#xA;FUu1z/eKP/mLs/8AqLixV7NirsVdirsVdirsVdirsVdirsVdirsVdirsVQ2o6hbafZS3ly3GGIVa&#xA;gqSegVR3JOwxVgF1Ne6jqrSuD9duXWC3iUg+mFLEKpAP926PIW7NGjfZfFWc6PpUOm2pjQAyyHnM&#xA;46FqBQFB6KigKo8BiqPxV2KuxV2KuxV2KuxV2KuxV2KvKsVdirsVdiqXa5/vFH/zF2f/AFFxYq9m&#xA;xV2KuxV2KuxV2KuxV2KuxV2KuxV2KuxVpmVVLMQFAqSdgAMVYBrmsjVbpX5GOxt5CbU7VLJyHr8f&#xA;mjsgP++2U7virIvK+iG0t1u7mPhdyqeMJNfRjagWPt8QREUn/JA98VT7FXYq7FXYq7FXYq7FXYq7&#xA;FXYq7FXlWKuxV2KuxVj3n64uLbylf3NtIYriD0pIZQFYq6TIysAwZTQjuKYqib3zZ5uivXsLTXtZ&#xA;1G7iQPcJa2+jAQh/sc5J7aGPk3UKGLU3pTFU58s/mX5utvWtvMGg3t9ElDZ38H6OinYGvJJ4hdiK&#xA;q7UdKA/yLSpVTz/laK/9Szq//Bab/wBluKu/5Wiv/Us6v/wWm/8AZbirv+Vor/1LOr/8Fpv/AGW4&#xA;q7/laK/9Szq//Bab/wBluKu/5Wiv/Us6v/wWm/8AZbirv+Vor/1LOr/8Fpv/AGW4q7/laK/9Szq/&#xA;/Bab/wBluKu/5Wiv/Us6v/wWm/8AZbirv+Vor/1LOr/8Fpv/AGW4q7/laK/9Szq//Bab/wBluKu/&#xA;5Wiv/Us6v/wWm/8AZbiqWan+YiatdRaQbK60cSo8x+viArOIxUorW8twhWMfvJUJDFFam1cVTzyr&#xA;onrSpfzqwtogBaRMakvtVm8eCoi17urP3xVl+KuxV2KuxV2KuxV2KuxV2KuxV2KuxV5VirsVdirs&#xA;VY1+Y3/KFan/AKkf/J1MVdDqEWh6vqiakjw2uoXC3drqAR2iasMcTRyuoYI6GL4eVAVpxqQaKo1P&#xA;N/ll5DGmoxNIByKAkmlaVoB0xVU/xPoP/LYn3N/TFXf4n0H/AJbE+5v6Yq7/ABPoP/LYn3N/TFXf&#xA;4n0H/lsT7m/pirv8T6D/AMtifc39MVd/ifQf+WxPub+mKu/xPoP/AC2J9zf0xV3+J9B/5bE+5v6Y&#xA;q7/E+g/8tifc39MVd/ifQf8AlsT7m/pirv8AE+g/8tifc39MVVdO04+bNb0qK0hmbS7G5+uX2pGO&#xA;SKELHG6CGKVgokeUycGCE8U5VIPEFV7GqqqhVAVVFFUbAAdhireKuxV2KuxV2KuxV2KuxV2KuxV2&#xA;KuxV5VirsVdirsVSfzZZQ32hyWUxYQ3U1tDIUNGCyXEamh7GhxVnP/KrNKJHPVtVdQalPrCLX2JS&#xA;NW+44qn/AJf8saH5ft5IdKtRB67c7iZneWaVwKBpZpWeWQgbDkxoNsVTXFXYq7FXYq7FXYq7FXYq&#xA;7FXYq7FXYq7FXYq7FXYq7FXYq7FXYq7FXYq7FXYq7FXlWKuxV2KuxVLtc/3ij/5i7P8A6i4sVezY&#xA;q7FXYq7FXYq7FXYq7FXYq7FXYq7FXYq7FXYq7FXYq7FXYq7FXYq7FXYq7FXYq7FXYq8qxV2KuxV2&#xA;Kpdrn+8Uf/MXZ/8AUXFir2bFXYq7FXYq7FXYq7FXYq7FXYq7FXYq7FXYq7FXYq7FXYq7FXYq7FXY&#xA;q7FXYq7FXYq7FXlWKuxV2KuxVLtc/wB4o/8AmLs/+ouLFXs2KuxV2KuxV2KuxV2KuxV2KuxV2Kux&#xA;V2KuxV2KuxV2KuxV2KuxV2KuxV2KuxV2KuxV2KvKsVdirsVdiqXa5/vFH/zF2f8A1FxYq9mxV2Ku&#xA;xV2KuxV2KuxV2KuxV2KuxV2KuxV2KuxV2KuxV2KuxV2KuxV2KuxV2KuxV2KuxV5VirsVdirsVS7X&#xA;P94o/wDmLs/+ouLFXs2KuxV2KuxV2KuxV2KuxV2KuxV2KuxV2KuxV2KuxV2KuxV2KuxV2KuxV2Ku&#xA;xV2KuxV2KvKsVdirsVdiqXa5/vFH/wAxdn/1FxYq9mxV2KuxV2KuxV2KuxV2KuxV2KuxV2KuxV2K&#xA;uxV2KuxV2KuxV2KuxV2KuxV2KuxV2KuxV5VirsVdirsVS7XP94o/+Yuz/wCouLFXs2KuxV2KuxV2&#xA;KuxV2KuxV2KuxV2KuxV2KuxV2KuxV2KuxV2KuxV2KuxV2KuxV2KuxV2KsZ/50j/iv/krirv+dI/4&#xA;r/5K4q7/AJ0j/iv/AJK4q7/nSP8Aiv8A5K4qoXv/ACr70V+ten6Xqw8a+t/eeqvpdP8AizjirLcV&#xA;dirsVdirsVdirsVdirsVdirsVdirsVdirsVdirsVdirsVdirsVdirsVdirsVdirsVf/Z</xapGImg:image>
    </rdf:li>
   </rdf:Alt>
  </xap:Thumbnails>
 </rdf:Description>

 <rdf:Description rdf:about=''
  xmlns:dc='http://purl.org/dc/elements/1.1/'>
  <dc:format>image/svg+xml</dc:format>
 </rdf:Description>

</rdf:RDF>
</x:xmpmeta>
                                                                                                                                                                                                                                                                                                                                                                                                                                                                                                                                                                                                                                                                                                                                                                                                                                                                                                                                                                                                                                                                                                                                                                                                                                                                                                                                                                                                                                                                                                                                                                                                                                                                                                                                                                                                                                                                                                                                                                                                                                                                                                                                <?xpacket end='w'?>
			</metadata>
		<g id="Layer_1">
			<g>
				<path style="fill:none;stroke:#000000;stroke-width:0.5;" d="M113.069,34.379c-3.161-2.217-5.227-5.888-5.227-10.042"/>
				<g>
					<g>
						<path style="fill:none;stroke:#808080;stroke-width:0.5;" d="M102.334,45.346c-1.649,0.738,2.021,3.832,0.66,4.476"/>
						<path style="fill:none;stroke:#808080;stroke-width:0.5;" d="M101.613,46.264c-1.649,0.738,2.021,3.832,0.659,4.476"/>
						<path style="fill:none;stroke:#808080;stroke-width:0.5;" d="M100.892,47.183c-1.649,0.738,2.021,3.832,0.66,4.476"/>
						<path style="fill:none;stroke:#808080;stroke-width:0.5;" d="M100.171,48.101c-1.649,0.738,2.021,3.832,0.66,4.476"/>
						<path style="fill:none;stroke:#808080;stroke-width:0.5;" d="M99.451,49.02c-1.649,0.738,2.02,3.832,0.659,4.476"/>
						<path style="fill:none;stroke:#808080;stroke-width:0.5;" d="M98.729,49.938c-1.649,0.738,2.021,3.833,0.66,4.476"/>
						<path style="fill:none;stroke:#808080;stroke-width:0.5;" d="M98.009,50.857c-1.649,0.738,2.021,3.832,0.659,4.476"/>
						<path style="fill:none;stroke:#808080;stroke-width:0.5;" d="M97.288,51.775c-1.649,0.738,2.02,3.832,0.659,4.476"/>
						<path style="fill:none;stroke:#808080;stroke-width:0.5;" d="M96.567,52.694c-1.649,0.738,2.021,3.832,0.66,4.476"/>
						<path style="fill:none;stroke:#808080;stroke-width:0.5;" d="M95.846,53.612c-1.649,0.738,2.021,3.832,0.66,4.476"/>
						<path style="fill:none;stroke:#808080;stroke-width:0.5;" d="M95.125,54.531c-1.649,0.738,2.021,3.832,0.66,4.476"/>
						<path style="fill:none;stroke:#808080;stroke-width:0.5;" d="M94.404,55.449c-1.649,0.738,2.021,3.833,0.66,4.476"/>
						<path style="fill:none;stroke:#808080;stroke-width:0.5;" d="M93.684,56.368c-1.649,0.738,2.02,3.833,0.659,4.476"/>
						<path style="fill:none;stroke:#808080;stroke-width:0.5;" d="M92.962,57.287c-1.649,0.738,2.021,3.832,0.66,4.476"/>
						<path style="fill:none;stroke:#808080;stroke-width:0.5;" d="M92.242,58.205c-1.649,0.738,2.021,3.832,0.659,4.476"/>
						<path style="fill:none;stroke:#808080;stroke-width:0.5;" d="M91.521,59.124c-1.649,0.738,2.021,3.832,0.66,4.476"/>
						<path style="fill:none;stroke:#808080;stroke-width:0.5;" d="M90.8,60.042c-1.649,0.738,2.021,3.832,0.66,4.476"/>
						<path style="fill:none;stroke:#808080;stroke-width:0.5;" d="M90.079,60.961c-1.649,0.738,2.021,3.832,0.659,4.476"/>
						<path style="fill:none;stroke:#808080;stroke-width:0.5;" d="M89.358,61.879c-1.649,0.738,2.021,3.832,0.66,4.476"/>
						<path style="fill:none;stroke:#808080;stroke-width:0.5;" d="M88.637,62.798c-1.649,0.738,2.021,3.832,0.66,4.476"/>
						<path style="fill:none;stroke:#808080;stroke-width:0.5;" d="M87.917,63.716c-1.649,0.738,2.02,3.832,0.659,4.476"/>
						<path style="fill:none;stroke:#808080;stroke-width:0.5;" d="M87.195,64.635c-1.649,0.738,2.021,3.832,0.66,4.476"/>
						<path style="fill:none;stroke:#808080;stroke-width:0.5;" d="M86.475,65.553c-1.649,0.738,2.021,3.832,0.66,4.476"/>
						<path style="fill:none;stroke:#808080;stroke-width:0.5;" d="M85.754,66.472c-1.649,0.738,2.02,3.832,0.659,4.476"/>
						<path style="fill:none;stroke:#808080;stroke-width:0.5;" d="M85.033,67.391c-1.649,0.738,2.021,3.832,0.66,4.476"/>
					</g>
					<g>
						<path style="fill:none;stroke:#808080;stroke-width:0.5;" d="M120.307,22.338c-1.649,0.738,2.021,3.832,0.66,4.476"/>
						<path style="fill:none;stroke:#808080;stroke-width:0.5;" d="M119.586,23.257c-1.649,0.738,2.02,3.832,0.659,4.476"/>
						<path style="fill:none;stroke:#808080;stroke-width:0.5;" d="M118.865,24.175c-1.649,0.738,2.021,3.832,0.66,4.476"/>
						<path style="fill:none;stroke:#808080;stroke-width:0.5;" d="M118.144,25.094c-1.649,0.738,2.02,3.833,0.659,4.476"/>
						<path style="fill:none;stroke:#808080;stroke-width:0.5;" d="M117.423,26.012c-1.649,0.738,2.021,3.833,0.66,4.476"/>
						<path style="fill:none;stroke:#808080;stroke-width:0.5;" d="M116.702,26.931c-1.649,0.738,2.021,3.832,0.66,4.476"/>
						<path style="fill:none;stroke:#808080;stroke-width:0.5;" d="M115.981,27.85c-1.649,0.738,2.02,3.832,0.659,4.476"/>
						<path style="fill:none;stroke:#808080;stroke-width:0.5;" d="M115.26,28.768c-1.649,0.738,2.021,3.832,0.66,4.476"/>
						<path style="fill:none;stroke:#808080;stroke-width:0.5;" d="M114.54,29.687c-1.649,0.738,2.021,3.832,0.66,4.476"/>
						<path style="fill:none;stroke:#808080;stroke-width:0.5;" d="M113.818,30.605c-1.649,0.738,2.021,3.833,0.66,4.476"/>
						<path style="fill:none;stroke:#808080;stroke-width:0.5;" d="M113.098,31.524c-1.649,0.738,2.021,3.832,0.66,4.476"/>
						<path style="fill:none;stroke:#808080;stroke-width:0.5;" d="M112.377,32.442c-1.649,0.738,2.021,3.832,0.659,4.476"/>
						<path style="fill:none;stroke:#808080;stroke-width:0.5;" d="M111.656,33.361c-1.649,0.738,2.02,3.832,0.659,4.476"/>
						<path style="fill:none;stroke:#808080;stroke-width:0.5;" d="M110.935,34.279c-1.649,0.738,2.021,3.832,0.66,4.476"/>
						<path style="fill:none;stroke:#808080;stroke-width:0.5;" d="M110.214,35.198c-1.649,0.738,2.021,3.832,0.66,4.476"/>
						<path style="fill:none;stroke:#808080;stroke-width:0.5;" d="M109.493,36.116c-1.649,0.738,2.021,3.833,0.66,4.476"/>
						<path style="fill:none;stroke:#808080;stroke-width:0.5;" d="M108.772,37.035c-1.649,0.739,2.021,3.833,0.66,4.476"/>
						<path style="fill:none;stroke:#808080;stroke-width:0.5;" d="M108.052,37.954c-1.649,0.738,2.02,3.832,0.659,4.476"/>
						<path style="fill:none;stroke:#808080;stroke-width:0.5;" d="M107.331,38.872c-1.649,0.738,2.021,3.832,0.66,4.476"/>
						<path style="fill:none;stroke:#808080;stroke-width:0.5;" d="M106.61,39.791c-1.649,0.738,2.02,3.832,0.659,4.476"/>
						<path style="fill:none;stroke:#808080;stroke-width:0.5;" d="M105.889,40.709c-1.649,0.738,2.021,3.832,0.66,4.476"/>
						<path style="fill:none;stroke:#808080;stroke-width:0.5;" d="M105.168,41.627c-1.649,0.738,2.021,3.832,0.66,4.476"/>
						<path style="fill:none;stroke:#808080;stroke-width:0.5;" d="M104.447,42.546c-1.649,0.738,2.02,3.832,0.659,4.476"/>
						<path style="fill:none;stroke:#808080;stroke-width:0.5;" d="M103.726,43.464c-1.649,0.739,2.021,3.833,0.66,4.476"/>
						<path style="fill:none;stroke:#808080;stroke-width:0.5;" d="M103.005,44.383c-1.649,0.738,2.021,3.832,0.66,4.476"/>
					</g>
				</g>
				<g>
					<path style="fill:#BFBFBF;stroke:#000000;stroke-width:0.5;" d="M22.542,74.86v-9.026h3.916v0.006
						c0.038-0.001,0.075-0.006,0.114-0.006c2.493,0,4.513,2.021,4.513,4.513c0,2.492-2.02,4.513-4.513,4.513
						c-0.039,0-0.076-0.005-0.114-0.006v0.006H22.542z"/>
					<path style="fill:#BFBFBF;stroke:#000000;stroke-width:0.5;" d="M83.555,67.526c1.558,0,2.82,1.263,2.82,2.821
						c0,1.558-1.263,2.82-2.82,2.82c-0.014,0-0.027-0.002-0.041-0.002v0.002h-56.41v-0.001c-0.009,0-0.019,0.001-0.028,0.001
						c-1.558,0-2.82-1.263-2.82-2.82c0-1.558,1.263-2.821,2.82-2.821c0.009,0,0.019,0.001,0.028,0.001v-0.001h56.41v0.002
						C83.528,67.528,83.541,67.526,83.555,67.526z"/>
				</g>
				<polygon style="fill:#BFBFBF;" points="147.306,24.278 22.333,24.278 22.333,111.441 0.045,111.441 0.045,0 15.169,0 22.333,0 
					147.306,0 "/>
				<polyline style="fill:none;stroke:#000000;stroke-width:0.5;" points="147.356,24.278 22.383,24.278 22.383,111.441 "/>
				<g>
					<text transform="matrix(1 0 0 1 101.7646 35.0044)"><tspan x="0" y="0" style="font-family:'Symbol'; font-size:12;">&#x3B8;</tspan></text>
				</g>
			</g>
			<rect y="54.303" style="fill:none;" width="147.401" height="2.834"/> 
		</g>
	</svg>
