<?xml version="1.0" encoding="UTF-8" standalone="no"?>
<!-- Created with Inkscape (http://www.inkscape.org/) -->

<svg
   xmlns:dc="http://purl.org/dc/elements/1.1/"
   xmlns:cc="http://creativecommons.org/ns#"
   xmlns:rdf="http://www.w3.org/1999/02/22-rdf-syntax-ns#"
   xmlns:svg="http://www.w3.org/2000/svg"
   xmlns="http://www.w3.org/2000/svg"
   xmlns:xlink="http://www.w3.org/1999/xlink"
   xmlns:sodipodi="http://sodipodi.sourceforge.net/DTD/sodipodi-0.dtd"
   xmlns:inkscape="http://www.inkscape.org/namespaces/inkscape"
   width="744.09448819"
   height="1052.3622047"
   id="svg3810"
   version="1.1"
   sodipodi:docname="battat.svg">
  <defs
     id="defs3812">
    <marker
       inkscape:stockid="Arrow2Mend"
       orient="auto"
       refY="0.0"
       refX="0.0"
       id="Arrow2Mend"
       style="overflow:visible;">
      <path
         id="path4433"
         style="font-size:12.0;fill-rule:evenodd;stroke-width:0.62500000;stroke-linejoin:round;"
         d="M 8.7185878,4.0337352 L -2.2072895,0.016013256 L 8.7185884,-4.0017078 C 6.9730900,-1.6296469 6.9831476,1.6157441 8.7185878,4.0337352 z "
         transform="scale(0.6) rotate(180) translate(0,0)" />
    </marker>
    <marker
       inkscape:stockid="Arrow2Mstart"
       orient="auto"
       refY="0.0"
       refX="0.0"
       id="Arrow2Mstart"
       style="overflow:visible">
      <path
         id="path4430"
         style="font-size:12.0;fill-rule:evenodd;stroke-width:0.62500000;stroke-linejoin:round"
         d="M 8.7185878,4.0337352 L -2.2072895,0.016013256 L 8.7185884,-4.0017078 C 6.9730900,-1.6296469 6.9831476,1.6157441 8.7185878,4.0337352 z "
         transform="scale(0.6) translate(0,0)" />
    </marker>
  </defs>
  <sodipodi:namedview
     id="base"
     pagecolor="#ffffff"
     bordercolor="#666666"
     borderopacity="1.0"
     inkscape:pageopacity="0.0"
     inkscape:pageshadow="2"
     inkscape:zoom="0.53194489"
     inkscape:cx="306.44157"
     inkscape:cy="690.28334"
     inkscape:document-units="mm"
     inkscape:current-layer="layer1"
     showgrid="false"
     inkscape:window-width="1280"
     inkscape:window-height="996"
     inkscape:window-x="0"
     inkscape:window-y="0"
     inkscape:window-maximized="1" />
  <metadata
     id="metadata3815">
    <rdf:RDF>
      <cc:Work
         rdf:about="">
        <dc:format>image/svg+xml</dc:format>
        <dc:type
           rdf:resource="http://purl.org/dc/dcmitype/StillImage" />
        <dc:title></dc:title>
      </cc:Work>
    </rdf:RDF>
  </metadata>
  <g
     inkscape:label="Layer 1"
     inkscape:groupmode="layer"
     id="layer1">
    <g
       transform="matrix(0.84652428,0.20866933,-0.20866933,0.84652428,88.633045,264.661)"
       style="color:#ffffff;fill:none;stroke:currentColor;stroke-width:1;stroke-linecap:butt;stroke-linejoin:miter"
       id="g22" />
    <g
       transform="matrix(0.84652428,0.20866933,-0.20866933,0.84652428,88.633045,264.661)"
       style="color:#000000;fill:none;stroke:currentColor;stroke-width:1;stroke-linecap:butt;stroke-linejoin:miter"
       id="g24" />
    <g
       transform="matrix(0.84652428,0.20866933,-0.20866933,0.84652428,88.633045,264.661)"
       style="color:#000000;fill:none;stroke:currentColor;stroke-width:1;stroke-linecap:butt;stroke-linejoin:miter"
       id="g32" />
    <g
       transform="matrix(0.84652428,0.20866933,-0.20866933,0.84652428,88.633045,264.661)"
       style="color:#000000;fill:none;stroke:currentColor;stroke-width:1;stroke-linecap:butt;stroke-linejoin:miter"
       id="g40" />
    <rect
       style="fill:#dedede;fill-opacity:1;stroke:none"
       id="rect5499"
       width="335.858"
       height="335.858"
       x="108.95417"
       y="178.27126" />
    <path
       inkscape:connector-curvature="0"
       style="fill:#a3a3a3;fill-opacity:1;stroke:none"
       d="m 320.82721,281.81088 -0.0122,0.0226 -130.58368,-5.64097 49.36897,21.70985 -50.46775,94.05225 112.74952,60.50057 50.47989,-94.07489 45.37285,29.15707 -76.87453,-105.67958 0.0122,-0.0226 -0.0226,-0.0121 -0.0226,-0.0121 z"
       id="rect5413" />
    <text
       xml:space="preserve"
       style="font-size:10px;font-style:normal;font-variant:normal;font-weight:normal;font-stretch:normal;text-indent:0;text-align:start;text-decoration:none;line-height:125%;letter-spacing:0px;word-spacing:0px;text-transform:none;direction:ltr;block-progression:tb;writing-mode:lr-tb;text-anchor:start;baseline-shift:baseline;color:#000000;fill:#000000;fill-opacity:1;fill-rule:nonzero;stroke:none;stroke-width:1px;marker:none;visibility:visible;display:inline;overflow:visible;enable-background:accumulate;font-family:FreeSans;-inkscape-font-specification:FreeSans"
       x="368.59171"
       y="222.66837"
       id="text5456"
       sodipodi:linespacing="125%"
       transform="matrix(0.88115758,0.47282272,-0.47282272,0.88115758,0,0)"><tspan
         sodipodi:role="line"
         id="tspan5458"
         x="368.59171"
         y="222.66837">direction of the solar</tspan><tspan
         sodipodi:role="line"
         x="368.59171"
         y="235.16837"
         id="tspan5460">system's motion relative</tspan><tspan
         sodipodi:role="line"
         x="368.59171"
         y="247.66837"
         id="tspan5466">to the &quot;special&quot; frame</tspan></text>
    <a
       transform="matrix(0.82959379,0.20449594,-0.20449594,0.82959379,78.619161,94.026557)"
       xlink:title="Plot #1"
       id="a26"
       style="stroke:#000000;stroke-width:1.20262408;stroke-miterlimit:4;stroke-opacity:1;stroke-dasharray:none">
      <g
         style="color:#ff0000;fill:none;stroke:#000000;stroke-width:1.20262408;stroke-linecap:butt;stroke-linejoin:miter;stroke-miterlimit:4;stroke-opacity:1;stroke-dasharray:none"
         id="g28">
        <path
           d="m 491.4,240 c 0.0103,-22.08533 -10.27559,-44.36535 -28.79629,-56.85754 -16.73697,-12.28204 -42.64559,-14.42696 -58.4636,0.47711 -12.54131,10.60762 -12.65433,32.83702 1.53379,42.06394 15.51101,11.84911 38.37852,6.13008 51.35749,-6.97261 17.50752,-16.56213 22.80771,-43.33694 16.25048,-66.13594 -5.94867,-21.66203 -22.27541,-40.11664 -42.95329,-48.85578 -20.15979,-8.440429 -44.94882,-7.007694 -62.38657,6.84796 -13.96512,10.84335 -21.67419,31.82337 -12.24396,47.96197 7.88292,14.9644 28.5564,19.62242 42.94289,11.4334 17.11447,-8.00239 26.31767,-27.24814 26.92505,-45.55106 0.25042,-20.09388 -8.46675,-39.826788 -23.18671,-53.480952 -15.50369,-14.625553 -37.19162,-22.848249 -58.56959,-21.107076 -20.6244,1.076988 -40.85203,11.536424 -52.61155,28.732833 -10.32686,14.942617 -13.10177,36.545235 -2.5214,52.049445 9.38231,15.67298 32.76801,20.11845 46.97831,8.53351 15.30904,-10.51928 19.71285,-31.40886 15.37869,-48.697356 -4.88274,-19.68923 -19.87366,-36.078085 -38.24998,-44.349186 -16.83123,-7.705128 -36.50279,-9.038711 -54.25981,-3.881321 -19.20018,5.474858 -35.88537,18.580059 -45.68562,35.981157 -8.59872,16.161543 -10.84832,36.126166 -3.08767,53.080276 6.84096,15.33118 24.04849,27.39534 41.19925,23.24974 18.69432,-3.08261 29.49215,-24.61069 24.73122,-42.14926 -3.58375,-18.872362 -19.64459,-33.364312 -37.47537,-39.126865 -20.02835,-6.655766 -42.56689,-3.261589 -60.56457,7.52727 -19.33012,11.961365 -33.41879,32.646695 -35.93839,55.391035 -3.00552,22.11629 6.08533,46.65727 25.76232,58.28007 14.42148,9.16825 36.4058,7.61072 46.08388,-7.55629 10.90984,-15.87798 1.66668,-38.56967 -14.72793,-46.62129 -19.67025,-11.57619 -45.54045,-6.96678 -63.09223,6.58025 -20.1448,14.99167 -31.04963,41.11213 -28.05842,66.03138 2.47638,23.50883 18.43162,46.3978 41.66841,53.14509 16.30531,5.17119 38.35144,-1.29923 43.16528,-19.20178 4.64757,-14.76638 -7.97752,-29.87201 -22.54799,-31.89758 -23.33993,-4.34035 -45.76247,13.25264 -53.67265,34.48212 -10.37694,25.53122 -2.62657,56.91071 18.0842,75.04344 16.91843,15.51755 44.90656,21.04872 64.23233,6.64989 10.49053,-7.98792 15.42605,-25.58118 4.50965,-35.17732 -11.91456,-11.17368 -31.11037,-4.35605 -39.84036,7.57806 -16.78649,21.79223 -11.1024,54.6152 7.78642,73.28833 18.79229,20.1914 52.73841,26.59805 75.75463,9.81141 12.58349,-8.49796 20.83916,-28.24322 9.2913,-40.84043 -10.02043,-10.19191 -27.24015,-2.4267 -31.49316,9.78832 -9.77329,22.1047 4.20998,48.47629 24.43278,59.24138 25.80482,16.06436 64.57862,9.07433 80.4249,-17.66104 8.61281,-12.95825 9.28507,-34.72447 -5.74383,-43.14692 -12.0947,-7.27803 -26.11323,5.66813 -25.13959,18.29707 -0.0219,22.75228 22.0985,39.24041 43.25146,41.48037 30.00221,3.95624 61.85099,-17.12979 67.65987,-47.24719 4.66228,-18.09847 -3.58901,-42.17841 -23.56864,-46.28801 -13.22895,-3.28302 -25.33884,10.99811 -21.19314,23.66359 4.7823,20.3056 28.67608,29.59985 47.76268,26.3352 30.98231,-3.71256 55.42007,-33.51658 54.86446,-64.42401 C 467.88201,282.84113 452.79736,258.43387 429.1,254.3 c -13.47815,-2.10882 -29.1321,6.66655 -29.62843,21.28787 -0.71627,17.72822 17.83672,29.63756 34.15179,28.66506 26.07978,-0.0963 48.39741,-21.40107 54.83768,-45.87519 2.27285,-5.79726 1.9657,-12.19086 2.93896,-18.27774"
           id="path30"
           inkscape:connector-curvature="0"
           style="stroke:#000000;stroke-width:1.20262408;stroke-miterlimit:4;stroke-opacity:1;stroke-dasharray:none" />
      </g>
    </a>
    <path
       sodipodi:type="arc"
       style="color:#000000;fill:none;stroke:#000000;stroke-width:0.55226648;stroke-linecap:butt;stroke-linejoin:miter;stroke-miterlimit:4;stroke-opacity:1;stroke-dasharray:2.20906581, 1.10453291;stroke-dashoffset:0;marker:none;visibility:visible;display:inline;overflow:visible;enable-background:accumulate"
       id="path3022"
       sodipodi:cx="215.58794"
       sodipodi:cy="199.20987"
       sodipodi:rx="136.71429"
       sodipodi:ry="136.71429"
       d="m 352.30223,199.20987 a 136.71429,136.71429 0 1 1 -273.428588,0 136.71429,136.71429 0 1 1 273.428588,0 z"
       transform="matrix(0.90326823,0.22265677,-0.22265677,0.90326823,126.32675,125.30455)" />
    <path
       sodipodi:type="arc"
       style="color:#000000;fill:#000000;fill-opacity:1;stroke:none;stroke-width:0.55226648;marker:none;visibility:visible;display:inline;overflow:visible;enable-background:accumulate"
       id="path3022-7"
       sodipodi:cx="215.58794"
       sodipodi:cy="199.20987"
       sodipodi:rx="136.71429"
       sodipodi:ry="136.71429"
       d="m 352.30223,199.20987 a 136.71429,136.71429 0 1 1 -273.428588,0 136.71429,136.71429 0 1 1 273.428588,0 z"
       transform="matrix(0.00992692,0.002447,-0.002447,0.00992692,275.22647,350.7123)" />
    <text
       xml:space="preserve"
       style="font-size:10px;font-style:normal;font-variant:normal;font-weight:normal;font-stretch:normal;text-indent:0;text-align:start;text-decoration:none;line-height:125%;letter-spacing:0px;word-spacing:0px;text-transform:none;direction:ltr;block-progression:tb;writing-mode:lr;text-anchor:start;baseline-shift:baseline;color:#000000;fill:#000000;fill-opacity:1;fill-rule:nonzero;stroke:none;stroke-width:1px;marker:none;visibility:visible;display:inline;overflow:visible;enable-background:accumulate;font-family:FreeSans;-inkscape-font-specification:FreeSans"
       x="271.57385"
       y="364.15955"
       id="text4367"
       sodipodi:linespacing="125%"><tspan
         sodipodi:role="line"
         id="tspan4369"
         x="271.57385"
         y="364.15955">sun</tspan></text>
    <text
       xml:space="preserve"
       style="font-size:10px;font-style:normal;font-variant:normal;font-weight:normal;font-stretch:normal;text-indent:0;text-align:start;text-decoration:none;line-height:125%;letter-spacing:0px;word-spacing:0px;text-transform:none;direction:ltr;block-progression:tb;writing-mode:lr-tb;text-anchor:start;baseline-shift:baseline;color:#000000;fill:#000000;fill-opacity:1;fill-rule:nonzero;stroke:none;stroke-width:1px;marker:none;visibility:visible;display:inline;overflow:visible;enable-background:accumulate;font-family:FreeSans;-inkscape-font-specification:FreeSans"
       x="-25.972376"
       y="583.91888"
       id="text4367-1"
       sodipodi:linespacing="125%"
       transform="matrix(0.75670908,-0.65375176,0.65375176,0.75670908,0,0)"><tspan
         sodipodi:role="line"
         id="tspan4369-7"
         x="-25.972376"
         y="583.91888">earth</tspan></text>
    <text
       xml:space="preserve"
       style="font-size:10px;font-style:normal;font-variant:normal;font-weight:normal;font-stretch:normal;text-indent:0;text-align:start;text-decoration:none;line-height:125%;letter-spacing:0px;word-spacing:0px;text-transform:none;direction:ltr;block-progression:tb;writing-mode:lr-tb;text-anchor:start;baseline-shift:baseline;color:#000000;fill:#000000;fill-opacity:1;fill-rule:nonzero;stroke:none;stroke-width:1px;marker:none;visibility:visible;display:inline;overflow:visible;enable-background:accumulate;font-family:FreeSans;-inkscape-font-specification:FreeSans"
       x="-27.68298"
       y="617.66101"
       id="text4367-2"
       sodipodi:linespacing="125%"
       transform="matrix(0.75670908,-0.65375176,0.65375176,0.75670908,0,0)"><tspan
         sodipodi:role="line"
         id="tspan4369-72"
         x="-27.68298"
         y="617.66101">moon</tspan></text>
    <path
       style="color:#000000;fill:none;stroke:#000000;stroke-width:0.71928763;stroke-linecap:butt;stroke-linejoin:miter;stroke-miterlimit:4;stroke-opacity:1;stroke-dasharray:none;stroke-dashoffset:0;marker:none;marker-start:url(#Arrow2Mstart);marker-end:url(#Arrow2Mend);visibility:visible;display:inline;overflow:visible;enable-background:accumulate"
       d="m 195.5222,433.87525 22.56484,17.80115"
       id="path4401"
       inkscape:connector-curvature="0" />
    <text
       xml:space="preserve"
       style="font-size:10px;font-style:normal;font-variant:normal;font-weight:normal;font-stretch:normal;text-indent:0;text-align:start;text-decoration:none;line-height:125%;letter-spacing:0px;word-spacing:0px;text-transform:none;direction:ltr;block-progression:tb;writing-mode:lr-tb;text-anchor:start;baseline-shift:baseline;color:#000000;fill:#000000;fill-opacity:1;fill-rule:nonzero;stroke:none;stroke-width:1px;marker:none;visibility:visible;display:inline;overflow:visible;enable-background:accumulate;font-family:FreeSans;-inkscape-font-specification:FreeSans"
       x="423.65701"
       y="217.34068"
       id="text5033"
       sodipodi:linespacing="125%"
       transform="matrix(0.78707821,0.61685322,-0.61685322,0.78707821,0,0)"><tspan
         sodipodi:role="line"
         id="tspan5035"
         x="423.65701"
         y="217.34068">small</tspan></text>
    <path
       style="color:#000000;fill:none;stroke:#000000;stroke-width:0.71928763;stroke-linecap:butt;stroke-linejoin:miter;stroke-miterlimit:4;stroke-opacity:1;stroke-dasharray:none;stroke-dashoffset:0;marker:none;marker-start:url(#Arrow2Mstart);marker-end:url(#Arrow2Mend);visibility:visible;display:inline;overflow:visible;enable-background:accumulate"
       d="m 295.05655,232.78289 52.73426,23.29236"
       id="path5039"
       inkscape:connector-curvature="0"
       sodipodi:nodetypes="cc" />
    <text
       xml:space="preserve"
       style="font-size:10px;font-style:normal;font-variant:normal;font-weight:normal;font-stretch:normal;text-indent:0;text-align:start;text-decoration:none;line-height:125%;letter-spacing:0px;word-spacing:0px;text-transform:none;direction:ltr;block-progression:tb;writing-mode:lr-tb;text-anchor:start;baseline-shift:baseline;color:#000000;fill:#000000;fill-opacity:1;fill-rule:nonzero;stroke:none;stroke-width:1px;marker:none;visibility:visible;display:inline;overflow:visible;enable-background:accumulate;font-family:FreeSans;-inkscape-font-specification:FreeSans"
       x="383.09329"
       y="102.10741"
       id="text5409"
       sodipodi:linespacing="125%"
       transform="matrix(0.91406443,0.405569,-0.405569,0.91406443,0,0)"><tspan
         sodipodi:role="line"
         id="tspan5411"
         x="383.09329"
         y="102.10741">large</tspan></text>
    <image
       y="178.27126"
       x="-168.17995"
       id="image5674"
       xlink:href="battat-source/mirror-on-moon.jpg"
       height="335.858"
       width="270.62573" />
  </g>
</svg>
