<?xml version="1.0" encoding="iso-8859-1"?>
<!-- Generator: Adobe Illustrator 11 Build 196, SVG Export Plug-In . SVG Version: 6.0.0 Build 78)  -->
<!DOCTYPE svg PUBLIC "-//W3C//DTD SVG 1.0//EN"    "http://www.w3.org/TR/2001/REC-SVG-20010904/DTD/svg10.dtd" [
	<!ENTITY ns_flows "http://ns.adobe.com/Flows/1.0/">
	<!ENTITY ns_svg "http://www.w3.org/2000/svg">
	<!ENTITY ns_xlink "http://www.w3.org/1999/xlink">
]>
<svg  
	 width="147.402" height="132.455" viewBox="0 0 147.402 132.455"
	 style="overflow:visible;enable-background:new 0 0 147.402 132.455" xml:space="preserve">
	<style type="text/css">
	
	</style>
	<g id="Layer_1">
		<path style="fill:#FFFFFF;stroke:#000000;stroke-width:0.5;" d="M38.692,21.077L26.686,32.255c0,0-7.452-17.388-4.14-20.699
			C25.858,8.243,34.138,0.377,34.138,0.377l4.14,5.692"/>
		<path style="fill:#FFFFFF;stroke:#000000;stroke-width:0.5;" d="M33.724,4.931c2.484,1.242,13.628,1.242,13.662,2.484
			c0.104,3.83-9.936,0.828-11.591,1.656"/>
		<path style="fill:#FFFFFF;stroke:#000000;stroke-width:0.5;" d="M35.38,10.727c-2.283,3.552,1.242,7.866,3.312,10.35
			c2.07,2.484-0.828,64.583,3.312,67.481c4.14,2.898,15.732,2.898,11.592-2.07c-4.14-4.968-8.28-63.755-7.866-67.895
			C46.144,14.453,39.106,4.931,35.38,10.727z"/>
		<path style="fill:#FFFFFF;stroke:#000000;stroke-width:0.5;" d="M41.693,89.904c3.105,1.242,13.973,3.726,13.973-3.105
			s0-2.484,0-2.484l22.666-2.173c0,0,41.606-6.831,43.78-6.21c2.173,0.621,2.484,6.521,0.621,6.521
			c-1.863,0-58.373,10.557-59.926,11.178c-1.552,0.621-16.456,5.589-18.009,3.415C43.246,94.872,41.693,89.904,41.693,89.904z"/>
		<path style="fill:#FFFFFF;stroke:#000000;stroke-width:0.5;" d="M53.803,82.142c0,0,3.726,0.311,5.278,0.311
			c1.553,0,62.1-7.142,62.72-8.384c0.621-1.242,1.63-1.087,2.717-0.621c1.427,0.612,1.32,3.726,1.009,5.279
			c-0.311,1.552-1.165,1.63-2.018,1.319c-2.279-0.829-3.881-1.009-3.881-1.009s-61.789,6.831-62.41,7.763
			S50.698,82.762,53.803,82.142z"/>
		<path style="fill:#FD9377;stroke:#000000;stroke-width:0.5;" d="M42.633,9.539c0.9,3,7.915,49.561,9,54
			c3.3,13.5,9.3,18,9.3,18.899c0,0.9,3.9-0.6,3.9-0.6s3.9-8.4,0-21.9c-6.189-21.423-19.5-48.9-19.5-50.4S42.633,9.539,42.633,9.539z
			"/>
		<path style="fill:none;stroke:#000000;stroke-width:0.2;" d="M48.033,34.139c0,0,5.1,29.7,8.7,34.2"/>
		<path style="fill:none;stroke:#000000;stroke-width:0.2;" d="M48.633,30.239c1.2,5.7,11.4,40.8,11.7,42"/>
		<path style="fill:none;stroke:#000000;stroke-width:0.2;" d="M54.033,39.539c1.8,5.1,7.8,17.7,8.1,31.8"/>
		<g>
			<g>
				<text transform="matrix(1 0 0 1 42.0332 106.4385)"><tspan x="0" y="0" style="font-family:Liberation Sans; font-size:7.650000;">axis</tspan></text>
			</g>
			<g>
				<text transform="matrix(1 0 0 1 42.0332 117.4385)"><tspan x="0" y="0" style="font-family:Liberation Sans; font-size:7.650000;">(elbow</tspan></text>
			</g>
			<g>
				<text transform="matrix(1 0 0 1 42.0332 128.4385)"><tspan x="0" y="0" style="font-family:Liberation Sans; font-size:7.650000;">joint)</tspan></text>
			</g>
		</g>
		<g>
			<line style="fill:none;stroke:#000000;" x1="110.733" y1="80.938" x2="110.733" y2="103.139"/>
			<path d="M110.733,105.583c-0.427-1.15-1.155-2.577-1.926-3.462l1.926,0.697l1.925-0.697
				C111.888,103.006,111.16,104.433,110.733,105.583z"/>
		</g>
		<g>
			<g>
				<text transform="matrix(1 0 0 1 100.5327 112.7388)"><tspan x="0" y="0" style="font-family:Liberation Sans; font-size:7.650000;">load&apos;s</tspan></text>
			</g>
			<g>
				<text transform="matrix(1 0 0 1 100.5327 123.7388)"><tspan x="0" y="0" style="font-family:Liberation Sans; font-size:7.650000;">force</tspan></text>
			</g>
		</g>
		<g>
			<line style="fill:none;stroke:#000000;" x1="71.676" y1="77.502" x2="58" y2="24.462"/>
			<path d="M57.39,22.094c0.7,1.007,1.762,2.207,2.729,2.871l-2.039-0.194l-1.69,1.155C56.915,24.877,57.264,23.314,57.39,22.094z"
				/>
		</g>
		<g>
			<g>
				<text transform="matrix(1 0 0 1 64.833 28.7393)"><tspan x="0" y="0" style="font-family:Liberation Sans; font-size:7.650000;">muscle&apos;s</tspan></text>
			</g>
			<g>
				<text transform="matrix(1 0 0 1 64.833 39.7393)"><tspan x="0" y="0" style="font-family:Liberation Sans; font-size:7.650000;">force</tspan></text>
			</g>
		</g>
		<g>
			<circle style="fill:#FFFFFF;stroke:#000000;stroke-width:1.5;" cx="49.702" cy="90.801" r="4.073"/> 
			<line style="fill:#FFFFFF;stroke:#000000;stroke-width:1.5;" x1="46.982" y1="88.091" x2="52.413" y2="93.521"/>
			<line style="fill:#FFFFFF;stroke:#000000;stroke-width:1.5;" x1="46.982" y1="93.521" x2="52.413" y2="88.091"/>
		</g>
		<rect y="57.025" style="fill:none;" width="147.402" height="2.834"/> 
	</g>
</svg>
