<?xml version="1.0" encoding="iso-8859-1"?>
<!-- Generator: Adobe Illustrator 11 Build 196, SVG Export Plug-In . SVG Version: 6.0.0 Build 78)  -->
<!DOCTYPE svg PUBLIC "-//W3C//DTD SVG 1.0//EN"    "http://www.w3.org/TR/2001/REC-SVG-20010904/DTD/svg10.dtd" [
	<!ENTITY ns_flows "http://ns.adobe.com/Flows/1.0/">
	<!ENTITY ns_svg "http://www.w3.org/2000/svg">
	<!ENTITY ns_xlink "http://www.w3.org/1999/xlink">
]>
<svg  
	 width="147.401" height="68.278" viewBox="0 0 147.401 68.278" style="overflow:visible;enable-background:new 0 0 147.401 68.278"
	 xml:space="preserve">
	<g id="Layer_1">
		<g>
			
				<radialGradient id="XMLID_4_" cx="47.5342" cy="14.3926" r="5.3852" fx="47.5342" fy="14.3926" gradientTransform="matrix(1.5 0 0 1.5 -36.4045 -17.3315)" gradientUnits="userSpaceOnUse">
				<stop  offset="0" style="stop-color:#FFFFFF"/>
				<stop  offset="0.1058" style="stop-color:#EAEAEA"/>
				<stop  offset="0.2207" style="stop-color:#D6D6D6"/>
				<stop  offset="0.3431" style="stop-color:#C4C4C4"/>
				<stop  offset="0.4732" style="stop-color:#B6B6B6"/>
				<stop  offset="0.6147" style="stop-color:#AAAAAA"/>
				<stop  offset="0.7759" style="stop-color:#A3A3A3"/>
				<stop  offset="1" style="stop-color:#A1A1A1"/>
				<midPointStop  offset="0" style="stop-color:#FFFFFF"/>
				<midPointStop  offset="0.23" style="stop-color:#FFFFFF"/>
				<midPointStop  offset="1" style="stop-color:#A1A1A1"/>
			</radialGradient>
			<ellipse style="fill:url(#XMLID_4_);" cx="38.396" cy="5.757" rx="6.364" ry="4.95"/> 
			
				<radialGradient id="XMLID_5_" cx="93.8672" cy="23.7261" r="4.6785" fx="93.8672" fy="23.7261" gradientTransform="matrix(1.5 0 0 1.5 -36.4045 -17.3315)" gradientUnits="userSpaceOnUse">
				<stop  offset="0" style="stop-color:#FFFFFF"/>
				<stop  offset="0.1058" style="stop-color:#EAEAEA"/>
				<stop  offset="0.2207" style="stop-color:#D6D6D6"/>
				<stop  offset="0.3431" style="stop-color:#C4C4C4"/>
				<stop  offset="0.4732" style="stop-color:#B6B6B6"/>
				<stop  offset="0.6147" style="stop-color:#AAAAAA"/>
				<stop  offset="0.7759" style="stop-color:#A3A3A3"/>
				<stop  offset="1" style="stop-color:#A1A1A1"/>
				<midPointStop  offset="0" style="stop-color:#FFFFFF"/>
				<midPointStop  offset="0.23" style="stop-color:#FFFFFF"/>
				<midPointStop  offset="1" style="stop-color:#A1A1A1"/>
			</radialGradient>
			<path style="fill:url(#XMLID_5_);" d="M105.715,24.262c3.176,1.505,6.7,0.722,7.87-1.749c1.17-2.47-0.456-5.693-3.633-7.197
				c-3.176-1.504-6.7-0.722-7.87,1.749C100.913,19.535,102.539,22.757,105.715,24.262z"/>
			
				<radialGradient id="XMLID_6_" cx="67.8672" cy="52.3926" r="6.0092" fx="67.8672" fy="52.3926" gradientTransform="matrix(1.5 0 0 1.5 -36.4045 -18.3315)" gradientUnits="userSpaceOnUse">
				<stop  offset="0" style="stop-color:#FFFFFF"/>
				<stop  offset="0.1058" style="stop-color:#EAEAEA"/>
				<stop  offset="0.2207" style="stop-color:#D6D6D6"/>
				<stop  offset="0.3431" style="stop-color:#C4C4C4"/>
				<stop  offset="0.4732" style="stop-color:#B6B6B6"/>
				<stop  offset="0.6147" style="stop-color:#AAAAAA"/>
				<stop  offset="0.7759" style="stop-color:#A3A3A3"/>
				<stop  offset="1" style="stop-color:#A1A1A1"/>
				<midPointStop  offset="0" style="stop-color:#FFFFFF"/>
				<midPointStop  offset="0.23" style="stop-color:#FFFFFF"/>
				<midPointStop  offset="1" style="stop-color:#A1A1A1"/>
			</radialGradient>
			<ellipse style="fill:url(#XMLID_6_);" cx="69.396" cy="61.757" rx="4.95" ry="6.364"/> 
			<line style="fill:none;stroke:#000000;stroke-width:0.5;" x1="64.447" y1="61.757" x2="73.896" y2="60.257"/>
			<path style="fill:none;stroke:#000000;stroke-width:0.5;" d="M69.396,68.121c-1.5-1.864-2-9.092,0-12.728"/>
			<path style="fill:none;stroke:#000000;stroke-width:0.5;" d="M105.715,24.262c3.681-2.504,4.294-3.888,4.237-8.946"/>
			<path style="fill:none;stroke:#000000;stroke-width:0.5;" d="M104.396,15.257c2,4,4.5,9.5,8.5,9"/>
			<path style="fill:none;stroke:#000000;stroke-width:0.5;" d="M39.084,0.132c-0.938,1.5-2.112,9.052-0.05,10.927"/>
			<path style="fill:none;stroke:#000000;stroke-width:0.5;" d="M32.146,5.007c1.312,0,11.812,1.5,12.375,0"/>
			<path style="fill:none;stroke:#000000;stroke-width:0.5;" d="M44.521,6.695c7.5,3.188,25.875,17.062,25.875,17.062"/>
			<path style="fill:none;stroke:#000000;stroke-width:0.5;" d="M105.271,24.132c-4.312,2.062-34.312,1.688-34.875-0.375"/>
			<path style="fill:none;stroke:#000000;stroke-width:0.5;" d="M69.521,56.049c-0.75-6,0.562-30.188,1.312-31.688"/>
			<path style="fill:none;stroke:#000000;stroke-width:0.5;" d="M71.075,24.022c7.532,13.545,5.622,16.993,5.39,20.852
				c-0.232,3.858,4.991,8.527,7.684,10.274s8.083,6.499,8.916,5.237"/>
		</g>
		<rect y="34.6" style="fill:none;" width="147.401" height="2.835"/> 
	</g>
</svg>
