<?xml version="1.0" encoding="iso-8859-1"?>
<!-- Generator: Adobe Illustrator 11 Build 196, SVG Export Plug-In . SVG Version: 6.0.0 Build 78)  -->
<!DOCTYPE svg PUBLIC "-//W3C//DTD SVG 1.0//EN"    "http://www.w3.org/TR/2001/REC-SVG-20010904/DTD/svg10.dtd" [
	<!ENTITY ns_flows "http://ns.adobe.com/Flows/1.0/">
	<!ENTITY ns_svg "http://www.w3.org/2000/svg">
	<!ENTITY ns_xlink "http://www.w3.org/1999/xlink">
]>
<svg
	 width="146.799" height="233.514" viewBox="0 0 146.799 233.514"
	 style="overflow:visible;enable-background:new 0 0 146.799 233.514" xml:space="preserve">
	<metadata>
<?xpacket begin='﻿' id='W5M0MpCehiHzreSzNTczkc9d'?><x:xmpmeta xmlns:x='adobe:ns:meta/' x:xmptk='XMP toolkit 3.0-29, framework 1.6'>
<rdf:RDF xmlns:rdf='http://www.w3.org/1999/02/22-rdf-syntax-ns#' xmlns:iX='http://ns.adobe.com/iX/1.0/'>

 <rdf:Description rdf:about=''
  xmlns:pdf='http://ns.adobe.com/pdf/1.3/'>
 </rdf:Description>

 <rdf:Description rdf:about=''
  xmlns:tiff='http://ns.adobe.com/tiff/1.0/'>
 </rdf:Description>

 <rdf:Description rdf:about=''
  xmlns:xap='http://ns.adobe.com/xap/1.0/'
  xmlns:xapGImg='http://ns.adobe.com/xap/1.0/g/img/'>
  <xap:CreateDate>2006-07-16T21:15:23Z</xap:CreateDate>
  <xap:ModifyDate>2006-07-16T21:15:23Z</xap:ModifyDate>
  <xap:CreatorTool>Illustrator</xap:CreatorTool>
  <xap:Thumbnails>
   <rdf:Alt>
    <rdf:li rdf:parseType='Resource'>
     <xapGImg:format>JPEG</xapGImg:format>
     <xapGImg:width>164</xapGImg:width>
     <xapGImg:height>256</xapGImg:height>
     <xapGImg:image>/9j/4AAQSkZJRgABAgEASABIAAD/7QAsUGhvdG9zaG9wIDMuMAA4QklNA+0AAAAAABAASAAAAAEA&#xA;AQBIAAAAAQAB/+4ADkFkb2JlAGTAAAAAAf/bAIQABgQEBAUEBgUFBgkGBQYJCwgGBggLDAoKCwoK&#xA;DBAMDAwMDAwQDA4PEA8ODBMTFBQTExwbGxscHx8fHx8fHx8fHwEHBwcNDA0YEBAYGhURFRofHx8f&#xA;Hx8fHx8fHx8fHx8fHx8fHx8fHx8fHx8fHx8fHx8fHx8fHx8fHx8fHx8fHx8f/8AAEQgBAACkAwER&#xA;AAIRAQMRAf/EAaIAAAAHAQEBAQEAAAAAAAAAAAQFAwIGAQAHCAkKCwEAAgIDAQEBAQEAAAAAAAAA&#xA;AQACAwQFBgcICQoLEAACAQMDAgQCBgcDBAIGAnMBAgMRBAAFIRIxQVEGE2EicYEUMpGhBxWxQiPB&#xA;UtHhMxZi8CRygvElQzRTkqKyY3PCNUQnk6OzNhdUZHTD0uIIJoMJChgZhJRFRqS0VtNVKBry4/PE&#xA;1OT0ZXWFlaW1xdXl9WZ2hpamtsbW5vY3R1dnd4eXp7fH1+f3OEhYaHiImKi4yNjo+Ck5SVlpeYmZ&#xA;qbnJ2en5KjpKWmp6ipqqusra6voRAAICAQIDBQUEBQYECAMDbQEAAhEDBCESMUEFURNhIgZxgZEy&#xA;obHwFMHR4SNCFVJicvEzJDRDghaSUyWiY7LCB3PSNeJEgxdUkwgJChgZJjZFGidkdFU38qOzwygp&#xA;0+PzhJSktMTU5PRldYWVpbXF1eX1RlZmdoaWprbG1ub2R1dnd4eXp7fH1+f3OEhYaHiImKi4yNjo&#xA;+DlJWWl5iZmpucnZ6fkqOkpaanqKmqq6ytrq+v/aAAwDAQACEQMRAD8A9U4q7FXYq7FXYq7FXYqk&#xA;V7ZjVdensbuWYWFra28wtoZHhWSSeSZWMrRlXdQsAASvHc8gdqKpNe22gw2d9qMHlOwn0yw9cTuU&#xA;t0nk+rMyzejEYyjAMjAc5Er91VUx1nQ9P0nTLvVdIQ6bcWMUl0IrUmK3lMSFyk1uv7pw4XiW48h+&#xA;yQcVZLirsVdirsVdirsVdirsVdirsVdirsVdirsVdirsVdirsVSm2/5SrUf+YGx/5PXeKpHqF2tv&#xA;oWv6Cy11OWS4js4Qd5/0tJK1uy9wvN3Ryfs+m7fZFcVTzzZ/yius/wDMDc/8mWxVNsVdirsVdirs&#xA;VdirsVdirsVdirsVdirsVdirsVdirsVdiqU23/KVaj/zA2P/ACeu8VUb6ytJvOWkXMsSvPbWV+0E&#xA;hFShaS1Qke/FiK+BPjiqt5s/5RXWf+YG5/5MtiqbYq858z6NqY/MPy+un6Bpk3l6YXH6beaOETzP&#xA;KBR4wUP9xx5tyILciBvir0G2tba1gS3tokggj2SKJQiKCa7KtAMVVcVdirsVdirsVdirsVdirsVd&#xA;irsVdirsVdirsVYtrC+a7bzJJd6VbLNZXNpBC7iOOZhLDLMxDLJd2XEcZhQjnU9eNPiVQNvqfnFP&#xA;MtrNqWiSz2yWl1HHNbC3icFpLYnnE11OgX4PhIm5Nv8AAAORVTTWLzUtV0260yz0m5U3sMlubu4M&#xA;UMMXqqULMC5mbiDUcYzXpUYqyPFUp1H/AI72kf8ARx/ybGKptirsVdirsVdirsVdirsVdirsVdir&#xA;sVdirsVdirsVdiqBmkUa1axes6s1tcsLcD4HCyQAuxr1TlQf6xxVHYq7FUp1H/jvaR/0cf8AJsYq&#xA;m2KuxV2KuxV2KuxV2KuxV2KuxV2KuxV2KuxV2KuxV2KoOWVxq1tCJwqPbzu1rx+JyjwgSBqbBORB&#xA;Fd+XtiqMxV2KpTqP/He0j/o4/wCTYxVNsVdirsVdirsVdirsVdirsVdirsVdirsVdirsVdiqTPqO&#xA;sXmoXlnpsdvDFYyJBPeXLNIfUaJJqJBHwqvCZfiaVTWvw03xVKdX1XzhpmqWyx2NnrZe2nkpDzs5&#xA;lVZrZG4hvrfJVEvNgpqQNlLAAquHnDWIp7MS6cZoLieC3nZYb22MIuJFiV+V1BHHIFZxUclanQHp&#xA;irL8VSnUf+O9pH/Rx/ybGKsU/MXzl5y8uTzXdhDp6aVbxQfVLe7DS3mrXk0rK1nZLFNGYnSNV+J4&#xA;3qW6cVY4qs/M38wtT8s6na2dvd6bpUElhd3wvtXjlkiuZrYoEsbf05bek0nOvVmp0RsVTW9/Mixs&#xA;/LXlrWv0beXj+aXtodOsLMQvN6t3avdIrGaSCMKEiILFqDvQVIVU/Jv5paP5qv4bK207ULBrq0lv&#xA;7KW+jhRJoraZLe44elLKwaKaVUPNVr1Xku+KszxV2KuxV2KuxV2KuxV2KuxV2KuxV2KpTo3/AB0d&#xA;e/5jk/6gbbFXXP8AylWnf8wN9/yetMVd5m/450P/ADHaf/1HQ4qm2KpTqP8Ax3tI/wCjj/k2MVSf&#xA;V/y9F/5obzLba9qOmaibdLRPq0enSpHEhYkRfXLO6ePmXPPgw5bV6DFVTX/IkutoyT+ZNYto5Rcx&#xA;Tx2sttGkltdMCbdk+rlaRqvGOVQJgCf3hrXFUwvvKWk3a6Cg9S3h8uXSXenQwkBeUVtLaIj8gxKC&#xA;O4boQagb+KqB8v8A5e6Lod7pt5aTXLy6XZXenW4laMq0V7cx3UjPxRauHhULSgpWoPXFWUYq7FXY&#xA;q7FXYq7FXYq7FXYq7FXYq7FUp0b/AI6Ovf8AMcn/AFA22Kuuf+Uq07/mBvv+T1pirvM3/HOh/wCY&#xA;7T/+o6HFU2xVKdR/472kf9HH/JsYqm2KuxV2KuxV2KuxV2KuxV2Ksd0w65runwam2oNplreRiezt&#xA;rNIZJFikHKMzS3CTqzlCGIRFCnar/aKqM/Q2o/8AV+vv+Asf+ybFXfobUf8Aq/X3/AWP/ZNirv0N&#xA;qP8A1fr7/gLH/smxV36G1H/q/X3/AAFj/wBk2Ku/Q2o/9X6+/wCAsf8AsmxV36G1H/q/X3/AWP8A&#xA;2TYqiNL0sWAuSbmW6lupfXmmn9MMWEaRAARJEoAWJf2cVQ9z/wApVp3/ADA33/J60xV3mb/jnQ/8&#xA;x2n/APUdDiqbYqlOo/8AHe0j/o4/5NjFU2xV2KuxV2KuxV2KuxV2KuxVJl8ti3eRtLv7nTo5GMjW&#xA;sXpSW/NtyVjnSX0wTuViKg9eu+Kr/wBHa9/1d/8Ap3j/AK4q79Ha9/1d/wDp3j/rirv0dr3/AFd/&#xA;+neP+uKu/R2vf9Xf/p3j/rirv0dr3/V3/wCneP8Arirv0dr3/V3/AOneP+uKt6HPfvLqdveTi4az&#xA;uhDFKEEZKNbQzbgEivKU4q1c/wDKVad/zA33/J60xV3mb/jnQ/8AMdp//UdDiqbYqlOo/wDHe0j/&#xA;AKOP+TYxVNsVdirsVdirsVdirsVdirsVdirsVdirsVdirsVdiqU6N/x0de/5jk/6gbbFXXP/AClW&#xA;nf8AMDff8nrTFXeZv+OdD/zHaf8A9R0OKptirDPMnnPR9N8/eW9AuUuP0lqPrGxRIXeOUFeMhEgH&#xA;AeiByk5EELQ71xVmeKuxV2KuxV2KuxV2KuxV2KuxV2KuxV2KuxV2KuxVKdG/46Ovf8xyf9QNtirr&#xA;n/lKtO/5gb7/AJPWmKu8zf8AHOh/5jtP/wCo6HFU2xVJLnydoV1fxahOty95b+p9Xm+u3gaP1qeo&#xA;I6SjgGoKhcVTa2t47aBIYy7ImwMsjyv1ru8hZz9JxVVxV2KuxV2KuxV2KuxV2KuxV2KuxV2KuxV2&#xA;KuxVKdG/46Ovf8xyf9QNtirrn/lKtO/5gb7/AJPWmKu8zf8AHOh/5jtP/wCo6HFU2xV2KuxV2Kux&#xA;V2KuxV2KuxV2KuxV2KuxVKm81eV0dkbWLFXQlXU3MQII6gjlirX+LPKv/V5sf+kmH/mrFXf4s8q/&#xA;9Xmx/wCkmH/mrFXf4s8q/wDV5sf+kmH/AJqxV3+LPKv/AFebH/pJh/5qxVR8t3tneXWuXFnPHcwN&#xA;fqFlhdXQkWVsDRlJGKoS98xaQvmm09KY3jW1peRXMdlHJdvFI0ttxWVLdZGjr6bfap0xVEa7qVnP&#xA;5btNSWQJZS3Gm3Ilk+ACJruB+TcqcaLua9MVRP8Aizyr/wBXmx/6SYf+asVd/izyr/1ebH/pJh/5&#xA;qxV3+LPKv/V5sf8ApJh/5qxV3+LPKv8A1ebH/pJh/wCasVcfNvlUddZsf+kmH/mrFU0R0kRZI2Do&#xA;4DI6moIO4IIxVdirsVdirsVdirsVY/5pjieWxbUInuNBUyfpCFFMicyF9F7hFqXgX4+YoQCVZhxB&#xA;IVR1lrflyS3X6jf2b2yfAnozRFBx24jiaCnhiqv+ltK/5bYP+Rqf1xV36W0r/ltg/wCRqf1xV36W&#xA;0r/ltg/5Gp/XFXfpbSv+W2D/AJGp/XFVeC4t50LwSpKgNCyMGFfCoxV5/J5tmtNFsY9Cuku7+3km&#xA;+vadBay6hKYlkKyUS3ZCjxsymjutenhiqa+WdS1+08qaTLNZ2t3ZpZW/7+2ulWQj0lAokgEPt/vR&#xA;TFUavnvQEIW9aWxk/aEyF41Hi08BmtwPnJiqYWnmXy5eIXs9Vs7lF2ZobiKQA+5Vjiqv+ltK/wCW&#xA;2D/kan9cVd+ltK/5bYP+Rqf1xVZNreiRRNJNf20cSj43eaMKB7kmmKpPoCaedbnn0GIRaJJCxu3i&#xA;XhazXZdSkluKBWPDn6sifCx4ipKniqybFXYq7FXYq7FXYq7FUPNYWM785raKV+nJ0VjQe5GKrP0T&#xA;pX/LFB/yKT+mKu/ROlf8sUH/ACKT+mKu/ROlf8sUH/IpP6Yq79E6V/yxQf8AIpP6Yql3lwWa32vp&#xA;aCMRpqCqyxcQA4srbkCF7+OKq1z/AMpVp3/MDff8nrTFWPecIV0K2a7PD/Dt1f2UupxSEBLWQ3sT&#xA;Pcjlt6Un+7V6Bvj7ucVZYNK0kios4CD0Ppp/TFUJd+U/K14we60iymkAosj28Rda/wAr8eS/QcVQ&#xA;X+BtKi/3hnuLOv2hyS6B+i9S54/7GmKuOjazb7pb6VqI6COSBrJgPEyL9bDH2Ea4qlPmjzfZ+UNG&#xA;n1vVPKd40FiOc82mxWtyFAFeYpLHKEHd2RQO+Kp/pHm3Rr+G2ElxFaahOis2mzuI7hGIqUMcgRzT&#xA;x408MVTrFXYq7FXYq7FXYq7FXYq7FXYq7FWO69qH1i5n0xbn6nYWkH1rXdQVzG0UBDcYUkBBjeQI&#xA;zM4NUQbUZ0YKqmg6tYAWumxaXcaPDJCZdPinjijSRFNWCrG8hRwGDFJArbk0+F+KqIuf+Uq07/mB&#xA;vv8Ak9aYq3q2sQQzHTksZtUuZYWlms7cQmkH2KyGeSKMB2qqgtVt6CitRVjPl6/Ty/c2FpDIZPJm&#xA;rkR6JLLVZNPuiTTT5A9GWJyCsIbeNx6R6xjFWd4q7FXYq0yqylWAZWFGU7gg9jiqlPZ2lxbm2ngj&#xA;ltiOJhdVZCB0HEimKpZ/hPRYzWySXTqfZSxmltogf5jDEywsf9ZDirjpvmOAf6LrC3AO5GoW0chr&#xA;4K1qbMKPmrYq3+kfMcH+9OjrcDopsLlJG+bLci0C/QzYq1/izRo9r1pdOI2dr6GW2iB8PXkUQt/s&#xA;XOKpn9cs/qf1314/qfp+t9Z5r6XpceXqc68ePHetaUxV11d2tpA1xdzR29ulOc0rBEWpAFWYgCpN&#xA;MVY/qvn3QbdoLexv7G6vbkt6avdxRwoiU5ySyAuQo5AABSSSNqVIVUV8yNT4vNWhA+AjrT2r9d3x&#xA;Vv8AxH/39Wh/8iv+z3FXf4j/AO/q0P8A5Ff9nuKu/wAR/wDf1aH/AMiv+z3FUBqGq+W4dJkt5Ncs&#xA;Lu71PULaS/kSWJEkQzxLIpQyPxQWsXp7sageJxVPddmtbmx03UrSVJxBqFo9rPGwdD68wtJKMKg/&#xA;up5FxVAz+YYRrcepy2s8OkWCXtjc6kwjaFZTPCCzLG7ypGpt35O6KqjcnjviqZ6OgbWNenbeUXMN&#xA;urnqIo7SGRU+QeeRv9liqQ3w8s3Fr5l8uarf21nDLdloYp5Y1KGaGG69VUdhX/SXaT54qg9M82XV&#xA;nd/oe981aPLxTlYahJHz9eNackkYXihZo69D9tfjFfjCqpv/AIj/AO/q0P8A5Ff9nuKu/wAR/wDf&#xA;1aH/AMiv+z3FWj5jNNvNWhA+8Vf+x7FV+nee9HN21hqeo6fHcBDLDdQXUbW8yKQrH4jWJwWFUYnY&#xA;/CzfFRVktvcW9zCk9vKk0EgrHLGwZGHiGFQcVVMVdirsVdirsVQGqaTHf+jIs0lrd2zFra7hK805&#xA;CjCjh0ZWH2lZSOh6gEKodbXzYBRtSsWPj9RmB+n/AEvFW/q3mr/q42P/AEgzf9leKu+reav+rjY/&#xA;9IM3/ZXirvq3mr/q42P/AEgzf9leKpZqGo3Nz5cubi5VReaNfI9+sYK0jsrpJ3dVJcgy2gEiryOz&#xA;AVxVMNflW4OmWETBpLy7gmDL8VIrRxdO5p+yfSWOvi64qgdW0G0ufMkcUck1mupWd0+o/Vn4C4MZ&#xA;t4VMqEMjN6chTnx5AUoRQYqi9FEdnrer6dTiXa3vLZd6eg1ulsACepV7VuXhVa9cVQltqhttJ13X&#xA;YVEgubqR9PiJ2leKOOzhUEdRPLB8BHUMMVVtV0LzBqdm1tcajZruHimjspVlikXdJY2+tni6ncfj&#xA;tiqH0q883S3M+mX1/YRanagMQLKXjPATRLiL/S+h6OvVG23HFmVTP6t5q/6uNj/0gzf9leKtNbeb&#xA;KfDqVgD4mxmP/Y4MVVNN0d7e5e+vblr7UZF9MzsqxpHGTyMUEa/YQtualmO3JjxWiqZ4q7FXYq7F&#xA;XYq7FXYq7FXYq7FXYqkOqLPpWotrMMbz2NwqxataxKXccTSO6jRRVigPGUdWShH2ArKojRNG8v2q&#xA;Je6TGjRTxKLeZJGmjEDfGqW5LOscPcJHRem2Kuuf+Uq07/mBvv8Ak9aYqr6noumal6bXkZLwhhHN&#xA;HI8Miq4HNPUiZH4PxHJa0NBUbDFUosjBrl3bfU4hH5a0pla0KqFiup4hSMxKNjbwdUalGcKy7ICy&#xA;rJsVS3W9IN/FFLbyfVtTtGMlheU5cHOzKw/aikHwyL3HSjBWCqXeXfO+k6xql1oYYRa/pkavqtgG&#xA;D+gzOyABxTkrFeSmg+EgkKTTFWR4q7FXYq7FXYq7FXYq7FXYq7FXYq7FVK6urW0t3ubqZLe3iHKW&#xA;aVgiKPFmYgDFUpGt6nfE/ofTmaCm19fFrWJu37uPi8706/EiKw+y+KorQtJfTLSSKSVZZJp5bmUx&#xA;x+jEHmcuwjj5PxBYlj8RqxJ74qpXP/KVad/zA33/ACetMVReraempaVe6c7mNL2CW3aRaFlEqFCR&#xA;XaoriqXfpHXtOAXUNPW8tVAH1zTalgB1Z7N/jVfARPK3tiqZadqen6lbC5sZ1uISSpZTurD7SOp3&#xA;Vl7qwqO+KorFWNan5Ss7fVD5l0Kyt7fzHGjRzSKqxfXYGId7edlA3YoCkhqUbxUsrKp1pep2up2S&#xA;XdtyCMSrxyDjJHIhKvHIp+y6MCGGKovFXYq7FXYq7FXYq7FXYq7FXYqgtU1SHT4UJRp7mdvTtLSO&#xA;nqTSUrxWtB0FWY7KKkkAYqlf1BLeGTXvNE8cklij3XAVazskjUszRKQC7ooNZmXkd+IQHjiqpp3n&#xA;fyvqVvolzZXwmh8xc/0O4jlHrelG0z7MgMZVI2Px8elOuKp7irG/M+s2Oh366zfvws9O0nUrq4b/&#xA;ACIntXanvttirwlJPMGieXtf07zBpt5ptx5utoddY3r27q+qJfRG/WH0JrgqnpXEARZAjUT7OKvp&#xA;rFUp1LQY57k6hYS/UNXAAF2gqsqr9mO4jqBNHv3+JangynfFV2j6015LPY3kP1TVrMKbq2qWQq9e&#xA;M0LkD1InKni1AaghgGBGKppiqQ6pZ3Wm3z65pkTTepT9L6fGKtcIihRNGo63ESgD/LQcNyE4qpxZ&#xA;3dre2sN3aSrPa3CLJBNGQyOjCqspHUEYqrYq7FXYq7FXYq7FXYq7FVG8vLaytJ7y6kEVtbRtLPKa&#xA;0VEHJjt4AYqlehWNzLM+uanF6epXacIYGoTaWpIZYBSo5NQNKR1fapVVoqln5n6Lr+veWDoGjKin&#xA;Vp4rbUbqUB44LInncM8XqQtKHRPS4I1Tz7dQqxHy75G876Z5u0qK9hgutH0vWdQ1OLUbRVtYFi1O&#xA;wm9SNLWSe4mTheSsKcm2YEbA0Vet4qk965TzNYuFLldPvyEWnJqS2mwqQKn54qq+WdcGu6DY6wtn&#xA;cWCX0QmS0u1VZ0Vvs81RnUcl+Ib9DiqZ4qsnnhghknnkWKCJS8srkKqqoqzMx2AA6nFWLHXvKnmt&#xA;gfK3mDTb/XNMBuLZ7O7huOAb4WSdYWdvQl+y4I8GHxqpCqf6RqcWp6fFdojRM3JJoHpzimjYpLE1&#xA;NuSOpU028NsVRuKscuQ3lu8kvkr+gLty+oR7n6pM5+K5Ub0icn98Oin9509Q4qyIEEVG4PQ4q3ir&#xA;sVdirsVdirsVdiqRayn6R1jT9I3NvCRqN+ARQrA4+rRN3HOf94PH0iDscVT3FXYqx3VodW03XP8A&#xA;EEd3cXWk/Vxb32jKAyxAMW+twKq82kWtHSu6br8QCsqn8M0M8Mc8EiywyqHilQhlZWFVZWGxBHQ4&#xA;qxzzXeS2V2byEgT2+j6pLDWv20a1K9N/tYqn9hZw2Vjb2UApDbRJDEP8mNQq/gMVV8VYx5m1rS9R&#xA;03zN5dsLgXWuWumzNcafEGeZBcQN6NVA6v8AsjqcVeZ+Z/y3816l+XceoavdfXb3TtAFnp2kaXY3&#xA;NldL6rW0sizMLm5mmdRaheCKgJr8JrTFXqVgItP1mEQeoNP1qBWj9f1PUF3bxqBz9b976ktsu4ff&#xA;90a/ETirIcVaZVZSrAMrCjKdwQexxVj1kT5du4tMlP8AuDun4aXMeltKxotm/gjV/cHoP7vb4OSr&#xA;IsVdirsVdirsVdirsVYD5r8xaro9rrOoaNBDd+Yr/ULPRNBhueQhkfgjUk4lG4RNNcSNQ9FOKqvl&#xA;X8wrnX9b0K2jhjjstV0GXVp1KsJorqK4ggeHdqAI0rqwK1qOuKs5xV2Ksdb/AJ1u5Mg28u3LkyDt&#xA;YzOR8QA2Fs5qW/32xr9gngqhPN4MmvaJaKT6l0HQKP2kjvLKeZT7GGJ6+2Kskv8AUbHT7Zrq9mWC&#xA;BSBzc0qzGiqo6szHZVG5OwxVKj+m9b6epo+ktWpPw38y+3UWyEfOSh/3WwxVNNP0yw063W3soEgi&#xA;Wuyjck7szMd2ZjuzE1J3OKorFUn80DhY296NpLC7t7gSfyRmQRTt/wBI8sgxVOMVdiqhe2VrfWk1&#xA;ndxLNbXCNHNE3RlYUIOKoDRm1O2ll0y/53CwANZ6kRX1oTsFmIAAmjOzdmFGG5ZVVTbFXYq7FXYq&#xA;7FXYqwoeRvLvmZLW4122TULfTr/Vnj025jimtJJZruWMSyxSI/N40BCb7VPtRVV8u/lf5d8vao9/&#xA;pEtxaj0by3tbNDCttbR386XMi28YjHBVlj5Iu4FTt0oqj9K8ua7punW9svmS71CeBArT6hFbS+oR&#xA;3b0Y7d/+HrTvXfFUV6XmyP4vrNhdf8VehNbb/wCv61z/AMQxVbLc+YjG63WkW08Dgq8UF2ZXZSDU&#xA;cJ4LdCCNt3xV5fqHma/sfPOi6fa6dPNaab9dFjNO0ciwSzBITazSWr3FfS5gRqPjPJEIBozKs8sL&#xA;vRIbldQ1ae6udRUGl7eWV1bW8NRRlt1ljEcKnep5FyPtM1BiqdQeZ/LVxIIoNWs5ZT0RLiJm+4NX&#xA;FUzxVj/mbzeuh3umWEWlXur3+rGYWttYm1VqW6CSQu13PaoBxP8ANirHrv8AM7ylruh6rpUVybLX&#xA;n07UnfRbsKl3H9TMttOGCNJGSskbfZdqgVFRvir0HFXYq7FXYq7FXYq7FXYq7FXYqk3l9jHea1Zd&#xA;Ft74vEu9eFzDHcFqHsZZJBt4eNcVTnFXYqg9S1aw02JZLuTiZG4QxIGeWV6V4RRoGd2pvRR036Yq&#xA;lv1PWda31EvpemmhXT4ZKXUg6/6RPEaRj/iuFj7yEEriqkmkaXcazdaY1rENNs9OgghtUULEguZZ&#xA;TIoVaBaC3iIpSn3YqiNKvLqxu10TU5Gll4k6bfv1uokG6yGgH1hAKuB9pfjX9pUVTa4tre5jMVxE&#xA;k0Z6pIoZfuNcVSxvKHlYqQmlWsDEEepBEsEgrWtJIgjjr2OKsa1H8q7CWfyraWUtxb6H5f8ArnqK&#xA;moX8N4frMdE4XMUizt8deQMoFNum2KoHVfIS6HqlnLokMMWhT2T6LdxSTTPdc9S1CKSSYFxK05fl&#xA;IZGeUN3qcVel4q7FXYq7FXYq7FXYq7FXYq7FUjuq2Pmm1uz/ALz6rD9RmbwngLzW3yDI8wJ8eAxV&#xA;gPmv8130v82tN0RNXsrfR7WS1sdY0yV4Bcz3GqCT0ZIlb97xtisJfjtSQ1+zsqnnlvXPPOr+WPrO&#xA;nvaXOofp7UbK5uL4FEh0+21G4gDRxwKnqyRxxoFVmXl1LV6qsr0zQbSyma7kd73UpFKy6hckNMVJ&#xA;rwWgVY49vsRqq96VqcVTPFUo0L95eazdDeOa+KQuRvxggigYA+Amjk/HFUXqul22p2bWs5ZNw8M8&#xA;ZAlikX7EsTEHi6HcGnz2xVC6Pqly80ml6mFTVbZeRZAVjuIa0WeGvbcCReqNtuCrMqm2KuxVI7z/&#xA;AE7zRZWi/wB1pMZv7g9P3syvb2ybj4gUM7HwKr44qnmKuxV2KuxV2KuxV2KuxV2KuxVB6vpsepad&#xA;NZu7RGQBop0oWiljYPFKtduUciq4rtUYqxzSNA8varoms6NqFgsdxf3LyeZLNZZhzu5Ap9ZJOfqB&#xA;JFjRoirDitBsVICrIdH0XTNGtHtNNh9C3knnunTk71mupmnmarlj8UkjNStB22xVHYqtkcpGzhS5&#xA;UEhFpyag6CpAqfniqReRZZ5/K9pd3FlPp1xevPdzWN2npzRPc3EkzI6VanxSbb9MVT/FWOeeNM02&#xA;XSjrdxbia/8ALqTanpbF5UVLiGFiOYiePmh6MrbHFXmcf566vZadJqX1nSPOMUWiTaxe2egg2slj&#xA;JC0AEV1LJd3ycWEz9lf4DRG6Yq9dvtajstITULq3lilkVBHp5MbXDTy0CW44O8ZkLnjs5Xvy474q&#xA;15f0yexs3e8ZZNTvZDdahIhJQzOAvBK0PCJFWNNvsqCd64qmeKuxV2KuxV2KuxV2KuxV2KuxV2Kp&#xA;NrmkXk00eqaTIsGs2qlUEhIguYq1NvccQTxJ3RwC0bbioLKyqI0nW7XUfViCtb39tQXlhNQTRFq8&#xA;SQCQyNQ8XUlW7HriqY4q808/eZNUtPPenaOmsatpemzaTc3jromnJqVw9xFcQxpzQ2WosqcJG34q&#xA;K03xVf8Al15w8/ahrsOheZbG3g9LQbLU57gl4r1p7meeH99bhPSjLLb1ZAfgPjy4oq9IxVC6pp8O&#xA;paZd6dOzLBewyW8rIQGCyoUYqSCK0O22KpB5n0by4nkOXyxqk8y6XdWQ0lPS+K7kBi9NVhVVbnNx&#xA;FQAh8aUxVFaLpN/M9rqets8l9bRenZwSGNjCGUK8sphCQvcyj7bIoRQSke3JnVT/ABV2KuxV2Kux&#xA;V2KuxV2KuxV2KuxV2KuxVL9U0Sx1L0pJecN3b1+q3sDenPEWoTwcfskqOSNVGp8QIxVBJL5q04cb&#xA;iFNct12Sa3Mdtd06DnFKyW7n+Z1kT2TFUMdS8o/pqPW70Pp+qRWz2SXF+k9oohkdJZIwZgkD/HEp&#xA;5LXpsaYq0b/8vhrzeYv0rZLqhtRYyXAvgqNbpI0qo8Ql9JuDuxVmXktTQ7nFUe3m7y6QTb3gviuz&#xA;LYJJfMv+stqszD6Riqw3/mO++GxsF06I9brUSGem+6W0DEt/s5IyPA4qr6boFrZ3LXs0kl9qbqUa&#xA;/uSGkCE1KRhQqRJsKrGoBoC1TviqaYq7FXYq7FXYq7FXYq7FXYq//9k=</xapGImg:image>
    </rdf:li>
   </rdf:Alt>
  </xap:Thumbnails>
 </rdf:Description>

 <rdf:Description rdf:about=''
  xmlns:dc='http://purl.org/dc/elements/1.1/'>
  <dc:format>image/svg+xml</dc:format>
 </rdf:Description>

</rdf:RDF>
</x:xmpmeta>
                                                                                                                                                                                                                                                                                                                                                                                                                                                                                                                                                                                                                                                                                                                                                                                                                                                                                                                                                                                                                                                                                                                                                                                                                                                                                                                                                                                                                                                                                                                                                                                                                                                                                                                                                                                                                                                                                                                                                                                                                                                                                                                                <?xpacket end='w'?>
			</metadata>
		<g id="Layer_1">
			<path style="fill:none;stroke:#000000;stroke-width:0.5;" d="M72.244,4.013c0.047-0.138,0.08-0.278,0.08-0.421
				c0-1.846-4.06-3.342-9.068-3.342s-9.067,1.496-9.067,3.342c0,0.031,0.01,0.06,0.012,0.09v22.235h7.325
				c0.973,0.846,3.003,1.429,5.358,1.429c2.353,0,4.375-0.584,5.349-1.429h0.012v-0.009c0.021-0.018,0.048-0.035,0.067-0.053v-2.122
				c-0.02-0.018-0.047-0.035-0.067-0.053V4.013z"/>
			<path style="fill:none;stroke:#000000;stroke-width:0.5;" d="M106.407,134.311h-26.61c-1.208-4.634-4.226-8.538-8.258-10.903
				v-6.653h34.868c3.935,0,7.125-1.744,7.125-3.895s-3.19-3.895-7.125-3.895H71.539V48.593h-7.325
				c-0.973-0.846-3.003-1.429-5.358-1.429c-2.353,0-4.375,0.584-5.349,1.429h-0.012v0.009c-0.021,0.018-0.048,0.035-0.067,0.053
				v2.122c0.02,0.018,0.047,0.035,0.067,0.053v17.01H7.375c-3.935,0-7.125,1.744-7.125,3.895s3.19,3.895,7.125,3.895h46.121v33.336
				H18.627c-3.935,0-7.125,1.744-7.125,3.895s3.19,3.895,7.125,3.895h34.869v6.653c-4.033,2.365-7.051,6.269-8.259,10.903h-26.61
				c-3.935,0-7.125,1.744-7.125,3.895c0,2.151,3.19,3.895,7.125,3.895h26.332c0.892,4.802,3.702,8.93,7.608,11.556
				c0.615,1.048,1.054,1.929-0.77,2.856c-16.395,4.663-28.406,19.737-28.406,37.626c0,21.608,17.518,39.125,39.125,39.125
				s39.125-17.518,39.125-39.125c0-17.687-11.74-32.625-27.849-37.468c-0.013-0.007-0.018-0.014-0.033-0.021
				c-2.205-1.002-1.67-1.938-1.002-3.074l-0.023-0.108c3.766-2.632,6.47-6.677,7.341-11.367h26.331c3.935,0,7.125-1.744,7.125-3.895
				C113.532,136.055,110.342,134.311,106.407,134.311z"/>
			<ellipse style="fill:#FFFFFF;stroke:#000000;stroke-width:0.5;" cx="57.867" cy="26.034" rx="3.733" ry="1.134"/> 
			<ellipse style="fill:#FFFFFF;stroke:#000000;stroke-width:0.5;" cx="67.843" cy="48.553" rx="3.733" ry="1.134"/> 
			<g>
				<g>
					<line style="fill:none;stroke:#000000;stroke-width:0.5;" x1="37.505" y1="191.933" x2="87.868" y2="198.127"/>
					<path d="M88.163,199.045c0.558,0.068,1.075-0.263,1.155-0.74c0.081-0.478-0.307-0.92-0.865-0.989
						c-0.558-0.068-1.076,0.263-1.156,0.74C87.218,198.534,87.605,198.977,88.163,199.045z"/>
					<path d="M36.92,192.744c0.558,0.068,1.076-0.263,1.156-0.74c0.08-0.477-0.307-0.92-0.865-0.988
						c-0.558-0.069-1.075,0.263-1.155,0.74C35.975,192.232,36.362,192.675,36.92,192.744z"/>
				</g>
				<g>
					<line style="fill:none;stroke:#000000;stroke-width:0.5;" x1="42.321" y1="208.073" x2="83.052" y2="181.987"/>
					<path d="M84.02,182.458c0.451-0.289,0.543-0.836,0.205-1.222c-0.337-0.386-0.977-0.465-1.429-0.176
						c-0.451,0.289-0.543,0.836-0.205,1.222C82.929,182.668,83.569,182.747,84.02,182.458z"/>
					<path d="M42.577,209c0.451-0.289,0.543-0.836,0.205-1.222c-0.337-0.386-0.978-0.465-1.429-0.176s-0.543,0.836-0.205,1.222
						S42.126,209.289,42.577,209z"/>
				</g>
				<g>
					<line style="fill:none;stroke:#000000;stroke-width:0.5;" x1="59.067" y1="216.572" x2="66.307" y2="173.488"/>
					<path d="M67.38,173.236c0.081-0.478-0.307-0.92-0.865-0.989s-1.075,0.263-1.156,0.74c-0.08,0.477,0.307,0.92,0.865,0.988
						C66.783,174.044,67.3,173.713,67.38,173.236z"/>
					<path d="M60.014,217.073c0.081-0.477-0.307-0.919-0.865-0.988c-0.558-0.068-1.075,0.263-1.155,0.74
						c-0.081,0.477,0.307,0.92,0.865,0.988C59.417,217.882,59.934,217.55,60.014,217.073z"/>
				</g>
				<g>
					<line style="fill:none;stroke:#000000;stroke-width:0.5;" x1="77.933" y1="212.452" x2="47.44" y2="177.608"/>
					<path d="M47.991,176.78c-0.338-0.386-0.978-0.464-1.429-0.176c-0.451,0.289-0.543,0.836-0.206,1.222
						c0.338,0.386,0.978,0.465,1.429,0.176S48.329,177.166,47.991,176.78z"/>
					<path d="M79.017,212.234c-0.338-0.386-0.978-0.465-1.429-0.176s-0.543,0.836-0.206,1.222c0.338,0.386,0.978,0.465,1.429,0.176
						S79.354,212.62,79.017,212.234z"/>
				</g>
			</g>
			<line style="fill:none;stroke:#000000;stroke-width:0.5;" x1="62.611" y1="15.515" x2="62.611" y2="26.407"/>
			<line style="fill:none;stroke:#000000;stroke-width:0.5;stroke-dasharray:2;" x1="62.611" y1="26.407" x2="62.611" y2="47.792"/>
			<line style="fill:none;stroke:#000000;stroke-width:0.5;" x1="62.611" y1="47.792" x2="62.611" y2="195.091"/>
			<path style="fill:none;stroke:#000000;stroke-width:0.5;" d="M65.472,5.41c0.002-0.017,0.014-0.033,0.014-0.05
				c0-0.572-1.215-1.037-2.714-1.037s-2.714,0.464-2.714,1.037c0,0.018,0.011,0.034,0.013,0.05h-0.112v5.708l0,0l2.781,4.817
				l2.781-4.817h0.009V5.41H65.472z"/>
			<g>
				<text transform="matrix(1 0 0 1 53.6562 227.6523)"><tspan x="0" y="0" style="font-family:'Helvetica'; font-size:10;">Pt</tspan></text>
			</g>
			<g>
				<text transform="matrix(1 0 0 1 78.9888 222.0361)"><tspan x="0" y="0" style="font-family:'Helvetica'; font-size:10;">Pt</tspan></text>
			</g>
			<g>
				<text transform="matrix(1 0 0 1 90.6855 201.6362)"><tspan x="0" y="0" style="font-family:'Helvetica'; font-size:10;">Pt</tspan></text>
			</g>
			<g>
				<text transform="matrix(1 0 0 1 86.1572 181.7891)"><tspan x="0" y="0" style="font-family:'Helvetica'; font-size:10;">Pt</tspan></text>
			</g>
			<g>
				<text transform="matrix(1 0 0 1 64.2812 168.0767)"><tspan x="0" y="0" style="font-family:'Helvetica'; font-size:10;">Al</tspan></text>
			</g>
			<g>
				<text transform="matrix(1 0 0 1 40.77 173.3691)"><tspan x="0" y="0" style="font-family:'Helvetica'; font-size:10;">Al</tspan></text>
			</g>
			<g>
				<text transform="matrix(1 0 0 1 25.3335 192.8149)"><tspan x="0" y="0" style="font-family:'Helvetica'; font-size:10;">Al</tspan></text>
			</g>
			<g>
				<text transform="matrix(1 0 0 1 30.145 213.8652)"><tspan x="0" y="0" style="font-family:'Helvetica'; font-size:10;">Al</tspan></text>
			</g>
			<line style="fill:none;stroke:#000000;stroke-width:0.5;" x1="81.021" y1="15.314" x2="89.04" y2="15.314"/>
			<line style="fill:none;stroke:#000000;stroke-width:0.5;" x1="81.021" y1="89.023" x2="89.04" y2="89.023"/>
			<g>
				<line style="fill:none;stroke:#000000;stroke-width:0.5;" x1="84.73" y1="18.627" x2="84.73" y2="86.367"/>
				<path d="M84.73,89.039c-0.422-1.257-1.144-2.817-1.907-3.784l1.907,0.761l1.906-0.761C85.874,86.222,85.152,87.782,84.73,89.039
					z"/>
				<path d="M84.73,15.955c0.422,1.257,1.144,2.817,1.907,3.784l-1.907-0.761l-1.906,0.761
					C83.587,18.772,84.308,17.212,84.73,15.955z"/>
			</g>
			<g>
				<text transform="matrix(1 0 0 1 89.5415 54.2065)"><tspan x="0" y="0" style="font-family:'Helvetica'; font-size:10;">2.9 m</tspan></text>
			</g>
			<polygon style="fill:#FFFFFF;stroke:#000000;stroke-width:0.5;" points="66.1,114.75 66.092,107.592 59.177,109.41 
				59.185,116.568 "/>
			<ellipse style="fill:#FFFFFF;stroke:#000000;stroke-width:0.5;" cx="71.565" cy="138.007" rx="3.875" ry="9.261"/> 
			<ellipse style="fill:#FFFFFF;stroke:#000000;stroke-width:0.5;" cx="53.205" cy="138.007" rx="3.875" ry="9.261"/> 
			<line style="fill:#FFFFFF;stroke:#000000;stroke-width:0.5;" x1="75.375" y1="138.006" x2="118.009" y2="138.006"/>
			<line style="fill:#FFFFFF;stroke:#000000;stroke-width:0.5;" x1="52.521" y1="138.006" x2="5.609" y2="138.006"/>
			
				<ellipse transform="matrix(-0.5384 0.8427 -0.8427 -0.5384 213.1362 160.0695)" style="fill:#FFFFFF;stroke:#000000;stroke-width:0.5;" cx="62.728" cy="138.408" rx="1.786" ry="3.399"/> 
			<line style="fill:none;stroke:#000000;stroke-width:0.5;" x1="146.744" y1="131.189" x2="62.638" y2="112.08"/>
			<path d="M106.648,121.954c1.204-0.16,2.741-0.55,3.764-1.1l-1.095,1.707l0.25,2.012
				C108.883,123.634,107.666,122.618,106.648,121.954z"/>
			<line style="fill:none;stroke:#000000;stroke-width:0.5;" x1="62.638" y1="112.08" x2="128.033" y2="188.392"/>
			<path d="M99.312,154.711c-1.062-0.589-2.528-1.193-3.678-1.361l1.896-0.717l0.999-1.764
				C98.52,152.03,98.892,153.572,99.312,154.711z"/>
		</g>
	</svg>
