<?xml version="1.0" encoding="iso-8859-1"?>
<!-- Generator: Adobe Illustrator 11 Build 196, SVG Export Plug-In . SVG Version: 6.0.0 Build 78)  -->
<!DOCTYPE svg PUBLIC "-//W3C//DTD SVG 1.0//EN"    "http://www.w3.org/TR/2001/REC-SVG-20010904/DTD/svg10.dtd" [
	<!ENTITY ns_flows "http://ns.adobe.com/Flows/1.0/">
	<!ENTITY ns_svg "http://www.w3.org/2000/svg">
	<!ENTITY ns_xlink "http://www.w3.org/1999/xlink">
]>
<svg  
	 width="147.401" height="97.684" viewBox="0 0 147.401 97.684" style="overflow:visible;enable-background:new 0 0 147.401 97.684"
	 xml:space="preserve">
	<style type="text/css">
	
	</style>
	<g id="Layer_1">
		<g>
			<circle style="fill:#D6D6D6;" cx="52.593" cy="39.583" r="37.643"/> 
			<circle style="fill:#EDEDED;" cx="52.593" cy="39.583" r="28.956"/> 
			<path style="fill:#FFFFFF;stroke:#000000;" d="M40.322,58.344c-6.177-3.959-10.274-10.879-10.274-18.761
				s4.097-14.801,10.274-18.761v-7.59c-10.001,4.562-16.956,14.641-16.956,26.351s6.955,21.789,16.956,26.351V58.344z"/>
			<path style="fill:#FFFFFF;stroke:#000000;" d="M64.887,58.344c6.176-3.959,10.273-10.879,10.273-18.761
				s-4.097-14.801-10.273-18.761v-7.59c10.001,4.562,16.956,14.641,16.956,26.351s-6.955,21.789-16.956,26.351V58.344z"/>
			<g>
				<path style="fill:none;stroke:#000000;" d="M92.396,62.779c3.89-6.547,6.124-14.194,6.124-22.362
					c0-9.266-2.874-17.86-7.78-24.939"/>
				<path d="M89.022,12.997c1.242,0.867,2.984,1.803,4.388,2.159l-2.444,0.647l-1.464,2.061
					C89.662,16.424,89.397,14.464,89.022,12.997z"/>
			</g>
			<g>
				<path style="fill:none;stroke:#000000;" d="M13.583,17.454c-3.89,6.547-6.124,14.194-6.124,22.362
					c0,9.266,2.875,17.859,7.78,24.939"/>
				<path d="M16.958,67.236c-1.242-0.867-2.984-1.803-4.388-2.159l2.444-0.647l1.464-2.061
					C16.318,63.809,16.583,65.769,16.958,67.236z"/>
			</g>
			<g>
				<line style="fill:none;stroke:#000000;" x1="81.843" y1="39.583" x2="81.843" y2="72.333"/>
				<path d="M81.843,75.351c-0.527-1.42-1.426-3.182-2.377-4.273l2.377,0.86l2.377-0.86C83.269,72.169,82.37,73.931,81.843,75.351z"
					/>
			</g>
			<g>
				<line style="fill:none;stroke:#000000;" x1="23.891" y1="39.161" x2="23.891" y2="6.411"/>
				<path d="M23.891,3.394c0.527,1.419,1.426,3.182,2.377,4.273l-2.377-0.86l-2.377,0.86C22.465,6.575,23.364,4.813,23.891,3.394z"
					/>
			</g>
			<g>
				<g>
					<text transform="matrix(1 0 0 1 72.1802 82.667)"><tspan x="0" y="0" style="font-family:Liberation Sans; font-size:7.650000;">shoe&apos;s force</tspan></text>
				</g>
				<g>
					<text transform="matrix(1 0 0 1 72.1802 93.667)"><tspan x="0" y="0" style="font-family:Liberation Sans; font-size:7.650000;">on drum</tspan></text>
				</g>
			</g>
			<g>
				<g>
					<text transform="matrix(1 0 0 1 101.5132 33.667)"><tspan x="0" y="0" style="font-family:Liberation Sans; font-size:7.650000;">motion of</tspan></text>
				</g>
				<g>
					<text transform="matrix(1 0 0 1 101.5132 44.667)"><tspan x="0" y="0" style="font-family:Liberation Sans; font-size:7.650000;">drum</tspan></text>
				</g>
			</g>
			<g>
				<g>
					<text transform="matrix(1 0 0 1 42.1802 9)"><tspan x="0" y="0" style="font-family:Liberation Sans-Bold'; font-size:7.650000;">drum</tspan></text>
				</g>
			</g>
			<g>
				<g>
					<text transform="matrix(1 0 0 1 46.8467 39.667)"><tspan x="0" y="0" style="font-family:Liberation Sans-Bold'; font-size:7.650000;">shoe</tspan></text>
				</g>
			</g>
			<path style="fill:none;stroke:#000000;stroke-width:0.6;" d="M67.513,39.667c2.333,4.333,8.333-1.667,9.667-2"/>
		</g>
		<rect y="36.52" style="fill:none;" width="147.401" height="2.835"/> 
	</g>
</svg>
