<?xml version="1.0" encoding="UTF-8" standalone="no"?>
<!-- Created with Inkscape (http://www.inkscape.org/) -->

<svg
   xmlns:dc="http://purl.org/dc/elements/1.1/"
   xmlns:cc="http://creativecommons.org/ns#"
   xmlns:rdf="http://www.w3.org/1999/02/22-rdf-syntax-ns#"
   xmlns:svg="http://www.w3.org/2000/svg"
   xmlns="http://www.w3.org/2000/svg"
   xmlns:xlink="http://www.w3.org/1999/xlink"
   xmlns:sodipodi="http://sodipodi.sourceforge.net/DTD/sodipodi-0.dtd"
   xmlns:inkscape="http://www.inkscape.org/namespaces/inkscape"
   width="210mm"
   height="297mm"
   viewBox="0 0 744.09448819 1052.3622047"
   id="svg3493"
   version="1.1"
   sodipodi:docname="bug-pe.svg">
  <defs
     id="defs3495">
    <marker
       inkscape:stockid="Arrow1Lend"
       orient="auto"
       refY="0.0"
       refX="0.0"
       id="Arrow1Lend"
       style="overflow:visible;"
       inkscape:isstock="true">
      <path
         id="path4403"
         d="M 0.0,0.0 L 5.0,-5.0 L -12.5,0.0 L 5.0,5.0 L 0.0,0.0 z "
         style="fill-rule:evenodd;stroke:#000000;stroke-width:1pt;stroke-opacity:1;fill:#000000;fill-opacity:1"
         transform="scale(0.8) rotate(180) translate(12.5,0)" />
    </marker>
    <linearGradient
       id="linearGradient3843-5-7-6">
      <stop
         style="stop-color:#ffffff;stop-opacity:1;"
         offset="0"
         id="stop3845-0-5-8" />
      <stop
         style="stop-color:#6f6f6f;stop-opacity:1;"
         offset="1"
         id="stop3847-41-8-8" />
    </linearGradient>
    <radialGradient
       inkscape:collect="always"
       xlink:href="#linearGradient3843-5-7-6"
       id="radialGradient6309-3"
       gradientUnits="userSpaceOnUse"
       gradientTransform="matrix(0.11535532,0,0,0.0868517,634.35493,185.70485)"
       cx="183.66785"
       cy="207.95218"
       fx="183.66785"
       fy="207.95218"
       r="115.51704" />
    <linearGradient
       gradientTransform="translate(0.0407082,-118.31724)"
       inkscape:collect="always"
       xlink:href="#linearGradient3843-5-7-6"
       id="linearGradient4199-3"
       x1="153.18256"
       y1="143.51595"
       x2="153.18123"
       y2="165.73412"
       gradientUnits="userSpaceOnUse" />
  </defs>
  <sodipodi:namedview
     id="base"
     pagecolor="#ffffff"
     bordercolor="#666666"
     borderopacity="1.0"
     inkscape:pageopacity="0.0"
     inkscape:pageshadow="2"
     inkscape:zoom="1.367005"
     inkscape:cx="140.1901"
     inkscape:cy="976.43628"
     inkscape:document-units="mm"
     inkscape:current-layer="layer1"
     showgrid="false"
     inkscape:window-width="1280"
     inkscape:window-height="998"
     inkscape:window-x="0"
     inkscape:window-y="0"
     inkscape:window-maximized="1" />
  <metadata
     id="metadata3498">
    <rdf:RDF>
      <cc:Work
         rdf:about="">
        <dc:format>image/svg+xml</dc:format>
        <dc:type
           rdf:resource="http://purl.org/dc/dcmitype/StillImage" />
        <dc:title />
      </cc:Work>
    </rdf:RDF>
  </metadata>
  <g
     inkscape:label="Layer 1"
     inkscape:groupmode="layer"
     id="layer1">
    <path
       style="color:#000000;clip-rule:nonzero;display:inline;overflow:visible;visibility:visible;opacity:1;isolation:auto;mix-blend-mode:normal;color-interpolation:sRGB;color-interpolation-filters:linearRGB;solid-color:#000000;solid-opacity:1;fill:#c7c7c7;fill-opacity:1;fill-rule:nonzero;stroke:none;stroke-width:0.875;stroke-linecap:butt;stroke-linejoin:miter;stroke-miterlimit:1;stroke-dasharray:none;stroke-dashoffset:0;stroke-opacity:1;color-rendering:auto;image-rendering:auto;shape-rendering:auto;text-rendering:auto;enable-background:accumulate"
       d="m 177.48645,159.07142 c -0.67501,0.0137 -1.2021,0.0583 -1.53125,0.14063 -2.63319,0.6583 -8.33907,3.94922 -9.2168,3.94922 -0.68582,0 -1.87941,1.70131 -2.38086,2.46289 -0.76498,0.24111 -1.47814,0.46491 -2.00781,0.60937 -2.41376,0.6583 -10.5332,0.87695 -10.5332,0.87695 0,0 -10.75118,-1.3164 -11.62891,-1.3164 -0.60672,0 -2.31775,0.69688 -3.54101,1.21484 l -1.88477,-0.24609 0.7793,0.0195 -4.70899,-0.26758 -5.85937,0 4.63672,0.11719 -6.50391,-0.12891 c 0.55556,0.004 1.30916,0.0117 1.50781,0.0117 l 0.35938,0 -7.02149,-0.17773 c 0.58589,0.0434 1.24276,0.0768 1.90821,0.10156 l -3.74219,-0.0742 c -1.79347,-0.65635 -3.60094,-1.27301 -4.11914,-1.35937 -1.06609,-0.17769 -7.10763,-2.57718 -7.81836,-2.66602 -0.71073,-0.0888 -8.260975,-0.88852 -9.060545,-0.35547 -0.0561,0.0374 -0.12207,0.12409 -0.18359,0.19141 l -1.90039,1.0664 c -4.00957,0.18915 -5.562498,3.10221 -5.824221,3.45118 -0.266524,0.35536 -0.265625,2.57617 -0.265625,2.57617 l 0.287109,-0.27539 -0.0918,0.49804 c -0.37836,0.27666 -0.725432,0.53683 -1.171875,0.84375 l -0.710937,0.0898 7.587886,1.27539 -1.37304,0.45703 0,0.66016 12.289058,1.0957 c 0,0 2.41427,3.5123 5.48633,3.95117 3.07206,0.43886 10.3125,2.85156 10.3125,2.85156 l 3.94922,2.19532 c 0,0 3.07316,2.63203 5.92578,3.50976 2.85263,0.87773 6.58203,1.53711 6.58203,1.53711 l 8.11914,3.07227 c 0,0 3.29132,2.41211 5.70508,2.41211 2.41377,0 7.02148,-0.21875 7.02148,-0.21875 l 4.38867,0.43945 c 0,0 8.11927,-1.31768 16.23829,-1.53711 8.11901,-0.21944 16.45881,1.53633 22.16406,2.41406 5.70526,0.87773 12.50684,6.5838 14.70117,7.90039 2.19433,1.3166 15.36028,10.31311 26.99023,15.14063 l 0,-37.3711 -1.74023,-0.54687 2.17969,0.39453 c -2.81179,-0.73994 -5.89424,-1.62043 -8.97657,-2.5293 l -21.32226,-6.69531 -7.22461,-3.2832 c 0,0 -7.24131,-5.92373 -8.77734,-6.58203 -1.34403,-0.57601 -13.27296,-1.99249 -17.99805,-1.89649 z"
       id="path3355-3"
       inkscape:connector-curvature="0" />
    <path
       style="color:#000000;clip-rule:nonzero;display:inline;overflow:visible;visibility:visible;opacity:1;isolation:auto;mix-blend-mode:normal;color-interpolation:sRGB;color-interpolation-filters:linearRGB;solid-color:#000000;solid-opacity:1;fill:#b2b2b2;fill-opacity:1;fill-rule:nonzero;stroke:none;stroke-width:0.875;stroke-linecap:butt;stroke-linejoin:miter;stroke-miterlimit:1;stroke-dasharray:none;stroke-dashoffset:0;stroke-opacity:1;color-rendering:auto;image-rendering:auto;shape-rendering:auto;text-rendering:auto;enable-background:accumulate"
       d="m 95.885027,169.40741 c -1.787092,0 -5.451535,0.78632 -8.769531,1.59765 l 5.751953,0.9668 -1.373047,0.45703 0,0.66016 12.289058,1.0957 c 0,0 2.41427,3.5123 5.48633,3.95117 3.07206,0.43886 10.3125,2.85157 10.3125,2.85157 l 3.94922,2.19531 c 0,0 3.07316,2.63203 5.92578,3.50976 2.85263,0.87773 6.58203,1.53711 6.58203,1.53711 l 8.11914,3.07227 c 0,0 3.29131,2.41211 5.70507,2.41211 2.41377,0 7.02149,-0.21875 7.02149,-0.21875 l 4.38867,0.43945 c 0,0 8.11926,-1.31768 16.23828,-1.53711 8.11901,-0.21944 16.45881,1.53633 22.16406,2.41406 5.70526,0.87773 12.50685,6.58381 14.70118,7.9004 2.19433,1.3166 15.36028,10.3131 26.99023,15.14062 l 0,-8.25195 c -4.98658,-2.06401 -11.41899,-4.87908 -14.20508,-6.86914 -4.71249,-3.36607 -19.52378,-13.12756 -25.24609,-13.80078 -5.72232,-0.67321 -35.3442,-0.67316 -39.04688,-1.00977 -3.70267,-0.33661 -26.25496,-4.37617 -30.63085,-6.73242 -4.37589,-2.35624 -32.650837,-11.78125 -36.353513,-11.78125 z"
       id="path3355-3-5"
       inkscape:connector-curvature="0" />
    <path
       style="color:#000000;display:inline;overflow:visible;visibility:visible;fill:none;fill-opacity:1;stroke:#000000;stroke-width:0.625;stroke-miterlimit:4;stroke-dasharray:5, 0.625;stroke-dashoffset:0;stroke-opacity:1;marker:none;enable-background:accumulate"
       d="m 165.5625,101.95898 c -0.25562,0.0103 -0.50141,0.0367 -0.73047,0.0801 -3.2242,0.61056 -4.32641,1.16536 -6.04883,3.51758 l -0.0156,0 c 0,0 -0.54071,0.5431 -0.82813,0.82813 -0.40974,0.14548 -0.71584,0.26008 -1.3125,0.68359 -0.76644,0.54402 -0.75,1.2793 -0.75,1.2793 0,0 0.067,0.0122 0.084,0.0156 -0.12715,0.12885 -0.36035,0.35699 -0.41797,0.41797 -0.38812,0.15921 -0.8949,0.37079 -1.21289,0.53125 -0.48946,0.24699 -0.23538,0.66897 -0.0274,1.14062 0.20805,0.47165 0.0906,0.67699 0.22852,0.78711 0.13795,0.11012 0.86719,0.9375 0.86719,0.9375 0,0 0.36149,-0.32895 0.49609,-0.31445 0.1346,0.0144 0.73298,-0.11193 0.98828,-0.20703 0.25529,-0.0951 0.67151,-0.28243 1.31055,-0.9082 0.13477,-0.13197 0.20284,-0.23844 0.24023,-0.33594 0.007,0.087 0.001,0.14079 0.0137,0.24023 0.16027,1.29707 0.55586,0.0197 1.50585,-0.20507 0.0431,-0.0102 0.0756,-0.0256 0.11524,-0.0371 l 0.0703,0.0918 -0.25586,0.10157 0.5625,0.29687 0.17578,0.22461 c 0.0778,0.24023 0.34909,1.07211 0.46289,1.22656 0.13072,0.17742 0.83008,0.7578 0.83008,0.75782 l 0.125,-0.14649 0.12696,0.16406 -0.0117,0.0586 -0.14063,0.0156 -0.25781,1.38867 c 0,0 -0.20146,1.36585 -0.13086,1.46875 0.007,0.01 0.044,0.005 0.0625,0.01 l 0.10742,0.58789 c 1.8e-4,0.0391 -0.008,0.0825 -0.002,0.11523 0.0301,0.15494 0.11138,0.53913 0.13867,0.66797 l 0.0488,0.29297 0.0195,0 -0.0879,0.22266 c 0,0 0.36552,0.0263 0.53906,0.0586 0.17358,0.0322 -0.0156,0.65235 -0.0156,0.65235 l 0.29687,-0.24024 0.32422,-0.60547 -0.23828,-0.32226 0.0273,-0.0137 -0.64843,-0.92774 0.0469,-0.5625 c 0.099,-0.0255 0.23828,-0.0606 0.23828,-0.0606 l -0.1543,-0.84765 0.18165,-1.94141 -0.0488,0.006 -0.0781,-0.51758 -0.0234,-0.0391 0.006,-0.008 c 0,0 -0.34952,-1.5493 -1.35742,-2.4336 l -0.0879,0.0352 -0.11719,-0.19531 c 0.26891,-0.25795 0.46766,-0.57554 0.83789,-0.91602 0.19011,-0.17481 0.25506,-0.34404 0.24415,-0.53711 l 0.43359,-0.39062 c 0.31794,0.38003 0.75272,0.7554 1.22266,1.10742 l -0.29297,1.33789 0.24218,0.11719 -0.0391,0.0156 c 0,0 1.29178,0.77994 1.52539,0.88672 0.15451,0.0706 0.63918,0.24022 1.06446,0.39258 l 1.00781,0.875 0.0508,0 c 0.29891,0.37557 0.713,0.89049 0.80859,0.9668 0.13795,0.11012 0.59961,1.0039 0.59961,1.0039 l -0.21289,-1.43945 -0.76172,-0.83203 -0.0762,-0.55078 0.0898,-0.0176 c 0,0 -0.87391,-0.87013 -1.05079,-0.99805 -0.0577,-0.0417 -0.1764,-0.12179 -0.32226,-0.20703 l -0.29883,-0.27539 0.31445,-0.20703 c 0.58914,-0.0343 1.23676,-0.16016 1.8711,-0.30274 l 0.17968,0.50782 -0.14843,0.084 c 0,0 1.47592,0.58025 1.62109,0.62305 0.14517,0.0428 1.15039,0.83203 1.15039,0.83203 l -0.50781,-1.10352 c 0,0 0.95778,-0.55061 1.09961,-0.60351 0.0388,-0.0145 -0.0472,-0.0676 -0.18164,-0.13477 l 1.27539,-0.90039 -0.0332,-0.041 c 0.0273,-0.11527 0.35144,-1.4949 0.26172,-2.48438 -0.0935,-1.03121 -0.51756,-1.64992 -1.89648,-3.00976 -1.20656,-1.18986 -3.52899,-1.90439 -5.31836,-1.83204 z"
       id="path3047-1-4-7"
       inkscape:connector-curvature="0" />
    <path
       style="color:#000000;clip-rule:nonzero;display:inline;overflow:visible;visibility:visible;opacity:1;isolation:auto;mix-blend-mode:normal;color-interpolation:sRGB;color-interpolation-filters:linearRGB;solid-color:#000000;solid-opacity:1;fill:none;fill-opacity:1;fill-rule:nonzero;stroke:#000000;stroke-width:0.875;stroke-linecap:butt;stroke-linejoin:miter;stroke-miterlimit:1;stroke-dasharray:none;stroke-dashoffset:0;stroke-opacity:1;color-rendering:auto;image-rendering:auto;shape-rendering:auto;text-rendering:auto;enable-background:accumulate"
       d="m 241.81506,180.33584 c -12.50767,-3.2915 -30.28174,-9.21619 -30.28174,-9.21619 l -7.24128,-3.29149 c 0,0 -7.24129,-5.92469 -8.77732,-6.58299 -1.53603,-0.65829 -16.89633,-2.41376 -19.52953,-1.75546 -2.63319,0.6583 -8.33845,3.94979 -9.21618,3.94979 -0.87773,0 -2.6332,2.85263 -2.6332,2.85263"
       id="path3355"
       inkscape:connector-curvature="0" />
    <path
       style="color:#000000;clip-rule:nonzero;display:inline;overflow:visible;visibility:visible;opacity:1;isolation:auto;mix-blend-mode:normal;color-interpolation:sRGB;color-interpolation-filters:linearRGB;solid-color:#000000;solid-opacity:1;fill:none;fill-opacity:1;fill-rule:nonzero;stroke:#000000;stroke-width:0.875;stroke-linecap:butt;stroke-linejoin:miter;stroke-miterlimit:1;stroke-dasharray:none;stroke-dashoffset:0;stroke-opacity:1;color-rendering:auto;image-rendering:auto;shape-rendering:auto;text-rendering:auto;enable-background:accumulate"
       d="m 174.44916,163.4395 c -4.38866,0.43887 -9.65505,2.41376 -12.06881,3.07206 -2.41376,0.6583 -10.53278,0.87774 -10.53278,0.87774 0,0 -10.75221,-1.3166 -11.62994,-1.3166 -0.87773,0 -4.82753,1.75546 -4.82753,1.75546"
       id="path3357"
       inkscape:connector-curvature="0" />
    <path
       style="color:#000000;clip-rule:nonzero;display:inline;overflow:visible;visibility:visible;opacity:1;isolation:auto;mix-blend-mode:normal;color-interpolation:sRGB;color-interpolation-filters:linearRGB;solid-color:#000000;solid-opacity:1;fill:none;fill-opacity:1;fill-rule:nonzero;stroke:#000000;stroke-width:0.875;stroke-linecap:butt;stroke-linejoin:miter;stroke-miterlimit:1;stroke-dasharray:none;stroke-dashoffset:0;stroke-opacity:1;color-rendering:auto;image-rendering:auto;shape-rendering:auto;text-rendering:auto;enable-background:accumulate"
       d="m 136.0484,176.16661 c 4.38866,1.09717 13.60484,4.38866 15.14087,4.38866 1.53603,0 12.06881,0.43887 14.26314,0.43887 2.19433,0 8.11902,-0.21944 8.11902,-0.21944"
       id="path3359"
       inkscape:connector-curvature="0" />
    <path
       style="color:#000000;clip-rule:nonzero;display:inline;overflow:visible;visibility:visible;opacity:1;isolation:auto;mix-blend-mode:normal;color-interpolation:sRGB;color-interpolation-filters:linearRGB;solid-color:#000000;solid-opacity:1;fill:none;fill-opacity:1;fill-rule:nonzero;stroke:#000000;stroke-width:0.875;stroke-linecap:butt;stroke-linejoin:miter;stroke-miterlimit:1;stroke-dasharray:none;stroke-dashoffset:0;stroke-opacity:1;color-rendering:auto;image-rendering:auto;shape-rendering:auto;text-rendering:auto;enable-background:accumulate"
       d="m 170.0605,181.65243 c 2.41376,0.87774 5.04696,1.53603 5.04696,1.53603"
       id="path3361"
       inkscape:connector-curvature="0" />
    <path
       style="color:#000000;clip-rule:nonzero;display:inline;overflow:visible;visibility:visible;opacity:1;isolation:auto;mix-blend-mode:normal;color-interpolation:sRGB;color-interpolation-filters:linearRGB;solid-color:#000000;solid-opacity:1;fill:none;fill-opacity:1;fill-rule:nonzero;stroke:#000000;stroke-width:0.875;stroke-linecap:butt;stroke-linejoin:miter;stroke-miterlimit:1;stroke-dasharray:none;stroke-dashoffset:0;stroke-opacity:1;color-rendering:auto;image-rendering:auto;shape-rendering:auto;text-rendering:auto;enable-background:accumulate"
       d="m 241.3762,217.85886 c -11.62995,-4.82752 -24.79592,-13.82427 -26.99025,-15.14087 -2.19433,-1.31659 -8.99675,-7.02185 -14.70201,-7.89958 -5.70525,-0.87773 -14.0437,-2.6332 -22.16272,-2.41376 -8.11902,0.21943 -16.23803,1.53603 -16.23803,1.53603 l -4.38866,-0.43887 c 0,0 -4.60809,0.21943 -7.02186,0.21943 -2.41376,0 -5.70525,-2.41376 -5.70525,-2.41376 l -8.11902,-3.07206 c 0,0 -3.73036,-0.6583 -6.58299,-1.53603 -2.85262,-0.87773 -5.92468,-3.51093 -5.92468,-3.51093 l -3.9498,-2.19432 c 0,0 -7.24128,-2.41377 -10.31334,-2.85263 -3.07206,-0.43887 -5.48583,-3.94979 -5.48583,-3.94979 l -12.288238,-1.09717 0,-0.6583"
       id="path3363"
       inkscape:connector-curvature="0" />
    <path
       style="color:#000000;clip-rule:nonzero;display:inline;overflow:visible;visibility:visible;opacity:1;isolation:auto;mix-blend-mode:normal;color-interpolation:sRGB;color-interpolation-filters:linearRGB;solid-color:#000000;solid-opacity:1;fill:none;fill-opacity:1;fill-rule:nonzero;stroke:#000000;stroke-width:0.875;stroke-linecap:butt;stroke-linejoin:miter;stroke-miterlimit:1;stroke-dasharray:none;stroke-dashoffset:0;stroke-opacity:1;color-rendering:auto;image-rendering:auto;shape-rendering:auto;text-rendering:auto;enable-background:accumulate"
       d="m 136.54892,168.56996 c -3.19828,1.86567 -3.73133,3.37597 -3.73133,4.17554 0,0.79957 2.75408,3.19828 3.10944,3.19828 0.35537,0 5.06395,0.44421 5.06395,0.44421 0,0 1.77683,-5.41932 1.5103,-6.30773 -0.26652,-0.88841 -5.95236,-1.86566 -5.95236,-1.86566 z"
       id="path3365"
       inkscape:connector-curvature="0" />
    <path
       style="color:#000000;clip-rule:nonzero;display:inline;overflow:visible;visibility:visible;opacity:1;isolation:auto;mix-blend-mode:normal;color-interpolation:sRGB;color-interpolation-filters:linearRGB;solid-color:#000000;solid-opacity:1;fill:none;fill-opacity:1;fill-rule:nonzero;stroke:#000000;stroke-width:0.875;stroke-linecap:butt;stroke-linejoin:miter;stroke-miterlimit:1;stroke-dasharray:none;stroke-dashoffset:0;stroke-opacity:1;color-rendering:auto;image-rendering:auto;shape-rendering:auto;text-rendering:auto;enable-background:accumulate"
       d="m 132.55107,168.92533 c -6.75193,0.17768 -11.54936,-0.17769 -12.26009,-0.62189 -0.71073,-0.44421 -7.19613,-2.84292 -8.26223,-3.0206 -1.06609,-0.17769 -7.10729,-2.5764 -7.81802,-2.66524 -0.71073,-0.0888 -8.262235,-0.88841 -9.061806,-0.35536 -0.799571,0.53304 -2.22103,4.35321 -2.22103,4.35321"
       id="path3367"
       inkscape:connector-curvature="0" />
    <path
       style="color:#000000;clip-rule:nonzero;display:inline;overflow:visible;visibility:visible;opacity:1;isolation:auto;mix-blend-mode:normal;color-interpolation:sRGB;color-interpolation-filters:linearRGB;solid-color:#000000;solid-opacity:1;fill:none;fill-opacity:1;fill-rule:nonzero;stroke:#000000;stroke-width:0.875;stroke-linecap:butt;stroke-linejoin:miter;stroke-miterlimit:1;stroke-dasharray:none;stroke-dashoffset:0;stroke-opacity:1;color-rendering:auto;image-rendering:auto;shape-rendering:auto;text-rendering:auto;enable-background:accumulate"
       d="m 117.98111,166.61545 c 2.39871,0.17769 5.95236,0.17769 6.66309,0.17769 0.71073,0 6.21889,0 6.21889,0 l 4.70858,0.26652"
       id="path3369"
       inkscape:connector-curvature="0" />
    <path
       style="color:#000000;clip-rule:nonzero;display:inline;overflow:visible;visibility:visible;opacity:1;isolation:auto;mix-blend-mode:normal;color-interpolation:sRGB;color-interpolation-filters:linearRGB;solid-color:#000000;solid-opacity:1;fill:none;fill-opacity:1;fill-rule:nonzero;stroke:#000000;stroke-width:0.875;stroke-linecap:butt;stroke-linejoin:miter;stroke-miterlimit:1;stroke-dasharray:none;stroke-dashoffset:0;stroke-opacity:1;color-rendering:auto;image-rendering:auto;shape-rendering:auto;text-rendering:auto;enable-background:accumulate"
       d="m 158.04849,189.89185 c -6.66309,0 -8.79528,0.35536 -10.5721,-1.15494 -1.77682,-1.5103 -5.15279,-2.22103 -6.57425,-2.39871 -1.42146,-0.17768 -10.74978,-3.10944 -12.17124,-3.82017 -1.42146,-0.71073 -11.01631,-4.26438 -11.46052,-4.5309 -0.4442,-0.26653 -9.77253,-5.15279 -9.77253,-5.15279 l -7.01845,-2.22103 -4.975111,-4.17554 c 0,0 -2.842919,0.35537 -2.93176,0.79957 -0.08884,0.44421 -0.08884,0.71073 -0.08884,0.71073 l 6.396566,2.04335"
       id="path3371"
       inkscape:connector-curvature="0" />
    <path
       style="color:#000000;clip-rule:nonzero;display:inline;overflow:visible;visibility:visible;opacity:1;isolation:auto;mix-blend-mode:normal;color-interpolation:sRGB;color-interpolation-filters:linearRGB;solid-color:#000000;solid-opacity:1;fill:none;fill-opacity:1;fill-rule:nonzero;stroke:#000000;stroke-width:0.875;stroke-linecap:butt;stroke-linejoin:miter;stroke-miterlimit:1;stroke-dasharray:none;stroke-dashoffset:0;stroke-opacity:1;color-rendering:auto;image-rendering:auto;shape-rendering:auto;text-rendering:auto;enable-background:accumulate"
       d="m 93.283259,163.50601 c -4.175537,0.0888 -5.774678,3.10944 -6.041202,3.46481 -0.266524,0.35536 -0.266524,2.57639 -0.266524,2.57639"
       id="path3373"
       inkscape:connector-curvature="0" />
    <path
       style="color:#000000;clip-rule:nonzero;display:inline;overflow:visible;visibility:visible;opacity:1;isolation:auto;mix-blend-mode:normal;color-interpolation:sRGB;color-interpolation-filters:linearRGB;solid-color:#000000;solid-opacity:1;fill:none;fill-opacity:1;fill-rule:nonzero;stroke:#000000;stroke-width:0.875;stroke-linecap:butt;stroke-linejoin:miter;stroke-miterlimit:1;stroke-dasharray:none;stroke-dashoffset:0;stroke-opacity:1;color-rendering:auto;image-rendering:auto;shape-rendering:auto;text-rendering:auto;enable-background:accumulate"
       d="m 85.99828,170.61331 c 1.421459,-0.97725 2.665236,-1.95451 2.665236,-1.95451 l 5.419313,2.39871 1.243777,1.33262 -10.039055,-1.68798 z"
       id="path3375"
       inkscape:connector-curvature="0" />
    <path
       style="color:#000000;clip-rule:nonzero;display:inline;overflow:visible;visibility:visible;opacity:1;isolation:auto;mix-blend-mode:normal;color-interpolation:sRGB;color-interpolation-filters:linearRGB;solid-color:#000000;solid-opacity:1;fill:none;fill-opacity:1;fill-rule:nonzero;stroke:#000000;stroke-width:0.875;stroke-linecap:butt;stroke-linejoin:miter;stroke-miterlimit:1;stroke-dasharray:none;stroke-dashoffset:0;stroke-opacity:1;color-rendering:auto;image-rendering:auto;shape-rendering:auto;text-rendering:auto;enable-background:accumulate"
       d="m 95.681971,171.76824 c 0.71073,0 7.462659,1.95451 7.462659,1.95451"
       id="path3377"
       inkscape:connector-curvature="0" />
    <path
       style="color:#000000;clip-rule:nonzero;display:inline;overflow:visible;visibility:visible;opacity:1;isolation:auto;mix-blend-mode:normal;color-interpolation:sRGB;color-interpolation-filters:linearRGB;solid-color:#000000;solid-opacity:1;fill:none;fill-opacity:1;fill-rule:nonzero;stroke:#000000;stroke-width:0.875;stroke-linecap:butt;stroke-linejoin:miter;stroke-miterlimit:1;stroke-dasharray:none;stroke-dashoffset:0;stroke-opacity:1;color-rendering:auto;image-rendering:auto;shape-rendering:auto;text-rendering:auto;enable-background:accumulate"
       d="m 151.82961,172.21245 c -0.26653,3.73133 -0.88841,5.86352 -0.88841,5.86352"
       id="path3379"
       inkscape:connector-curvature="0" />
    <path
       style="color:#000000;clip-rule:nonzero;display:inline;overflow:visible;visibility:visible;opacity:1;isolation:auto;mix-blend-mode:normal;color-interpolation:sRGB;color-interpolation-filters:linearRGB;solid-color:#000000;solid-opacity:1;fill:none;fill-opacity:1;fill-rule:nonzero;stroke:#000000;stroke-width:0.875;stroke-linecap:butt;stroke-linejoin:miter;stroke-miterlimit:1;stroke-dasharray:none;stroke-dashoffset:0;stroke-opacity:1;color-rendering:auto;image-rendering:auto;shape-rendering:auto;text-rendering:auto;enable-background:accumulate"
       d="m 154.85021,173.10086 c -0.0888,2.39871 -0.97725,5.33047 -0.97725,5.33047"
       id="path3381"
       inkscape:connector-curvature="0" />
    <rect
       style="color:#000000;clip-rule:nonzero;display:inline;overflow:visible;visibility:visible;opacity:1;isolation:auto;mix-blend-mode:normal;color-interpolation:sRGB;color-interpolation-filters:linearRGB;solid-color:#000000;solid-opacity:1;fill:none;fill-opacity:1;fill-rule:nonzero;stroke:#000000;stroke-width:1.12677169;stroke-linecap:butt;stroke-linejoin:miter;stroke-miterlimit:1;stroke-dasharray:2.25354331, 2.25354331;stroke-dashoffset:0;stroke-opacity:1;color-rendering:auto;image-rendering:auto;shape-rendering:auto;text-rendering:auto;enable-background:accumulate"
       id="rect3383"
       width="182.85229"
       height="44.469147"
       x="58.669094"
       y="115.6151" />
    <text
       xml:space="preserve"
       style="color:#000000;font-style:normal;font-variant:normal;font-weight:normal;font-stretch:normal;font-size:12.5px;line-height:125%;font-family:'Liberation Sans';-inkscape-font-specification:'Liberation Sans';text-indent:0;text-align:start;text-decoration:none;text-decoration-line:none;text-decoration-style:solid;text-decoration-color:#000000;letter-spacing:0px;word-spacing:0px;text-transform:none;direction:ltr;block-progression:tb;writing-mode:lr-tb;baseline-shift:baseline;text-anchor:start;white-space:normal;clip-rule:nonzero;display:inline;overflow:visible;visibility:visible;opacity:1;isolation:auto;mix-blend-mode:normal;color-interpolation:sRGB;color-interpolation-filters:linearRGB;solid-color:#000000;solid-opacity:1;fill:#000000;fill-opacity:1;fill-rule:nonzero;stroke:none;stroke-width:1.24999988px;stroke-linecap:butt;stroke-linejoin:miter;stroke-miterlimit:4;stroke-dasharray:none;stroke-dashoffset:0;stroke-opacity:1;marker:none;marker-start:none;marker-mid:none;marker-end:none;color-rendering:auto;image-rendering:auto;shape-rendering:auto;text-rendering:auto;enable-background:accumulate"
       x="127.09875"
       y="18.965759"
       id="text4189"
       sodipodi:linespacing="125%"><tspan
         sodipodi:role="line"
         id="tspan4191"
         x="127.09875"
         y="18.965759">Physics</tspan></text>
    <rect
       style="color:#000000;clip-rule:nonzero;display:inline;overflow:visible;visibility:visible;opacity:1;isolation:auto;mix-blend-mode:normal;color-interpolation:sRGB;color-interpolation-filters:linearRGB;solid-color:#000000;solid-opacity:1;fill:url(#linearGradient4199-3);fill-opacity:1;fill-rule:nonzero;stroke:none;stroke-width:0.875;stroke-linecap:butt;stroke-linejoin:miter;stroke-miterlimit:1;stroke-dasharray:none;stroke-dashoffset:0;stroke-opacity:1;color-rendering:auto;image-rendering:auto;shape-rendering:auto;text-rendering:auto;enable-background:accumulate"
       id="rect3385-1"
       width="183.17506"
       height="16.540188"
       x="58.42577"
       y="22.853462" />
    <g
       id="g4230-5-5-4"
       transform="matrix(-0.46094,0.17175527,0.17175527,0.46094,432.44557,-221.16987)">
      <path
         sodipodi:nodetypes="cssscssssc"
         inkscape:connector-curvature="0"
         id="path3047-1-4-7-4"
         d="m 668.32466,199.34313 c -5.35393,-3.63082 -7.75396,-3.93852 -14.58483,-2.76927 -3.73719,0.6397 -8.61551,4.0616 -10.27708,7.63088 -1.66156,3.56928 -2.03079,5.04623 -1.47694,7.07703 0.55385,2.0308 2.3385,4.67699 2.3385,4.67699 0,0 2.64619,-0.67694 4.49237,-1.23079 1.84618,-0.55385 8.73859,-0.61539 10.52323,-2.64619 1.78464,-2.0308 3.69236,-5.04623 3.87698,-7.07703 0.18462,-2.0308 0.0615,-4.24621 0.80001,-4.73853 0.73847,-0.49231 4.30776,-0.92309 4.30776,-0.92309 z"
         style="color:#000000;display:inline;overflow:visible;visibility:visible;fill:url(#radialGradient6309-3);fill-opacity:1;stroke:#000000;stroke-width:0.625;stroke-opacity:1;marker:none;enable-background:accumulate" />
      <path
         inkscape:connector-curvature="0"
         id="path3049-8-6-9-0"
         d="m 649.73977,199.28159 c -0.98463,2.3385 -1.35387,2.95389 -0.80001,3.69236 0.55385,0.73848 0.0615,2.0308 1.47694,1.29233 1.41541,-0.73847 2.3385,-1.96926 2.58465,-3.38466 0.24616,-1.41541 1.23079,-2.52312 -0.30769,-2.6462 -1.53849,-0.12308 -2.95389,1.04617 -2.95389,1.04617 z"
         style="color:#000000;display:inline;overflow:visible;visibility:visible;fill:#000000;fill-opacity:1;stroke:none;stroke-width:0.625;marker:none;enable-background:accumulate" />
      <path
         inkscape:connector-curvature="0"
         id="path3051-4-0-9-1"
         d="m 643.40122,206.23554 c -1.10771,1.47694 -1.41541,3.38466 -1.23079,3.7539 0.18462,0.36924 0.24616,1.90772 0.92309,2.21542 0.67693,0.30769 1.53848,1.53848 1.16925,0.24615 -0.36924,-1.29232 -0.6154,-2.03079 -0.18462,-3.07696 0.43077,-1.04617 0.86155,-1.96926 0.61539,-2.70774 -0.24616,-0.73847 -0.43077,-1.53848 -0.43077,-1.53848 z"
         style="color:#000000;display:inline;overflow:visible;visibility:visible;fill:#000000;fill-opacity:1;stroke:none;stroke-width:0.625;marker:none;enable-background:accumulate" />
      <path
         inkscape:connector-curvature="0"
         id="path3053-5-0-7-3"
         d="m 652.50904,208.57404 c -1.23079,-0.0615 -1.4154,0.24615 -1.78464,0.92308 -0.36924,0.67694 -0.80001,1.78465 0,1.96926 0.80001,0.18462 0.61539,0.6154 1.23079,0.36924 0.61539,-0.24616 1.35386,-0.36924 1.35386,-0.36924 0,0 -0.49231,-1.04616 -0.49231,-1.47694 0,-0.43078 -0.3077,-1.4154 -0.3077,-1.4154 z"
         style="color:#000000;display:inline;overflow:visible;visibility:visible;fill:#000000;fill-opacity:1;stroke:none;stroke-width:0.625;marker:none;enable-background:accumulate" />
      <path
         inkscape:connector-curvature="0"
         id="path3055-2-5-4-2"
         d="m 659.64761,205.25091 c -1.29233,-0.18462 -2.0308,-0.3077 -2.0308,0.49231 0,0.80002 -0.6154,1.66157 0.43077,1.53849 1.04617,-0.12308 1.60003,0 1.96926,-0.43078 0.36924,-0.43077 -0.12308,-0.98463 -0.12308,-0.98463 z"
         style="color:#000000;display:inline;overflow:visible;visibility:visible;fill:#000000;fill-opacity:1;stroke:none;stroke-width:0.625;marker:none;enable-background:accumulate" />
      <path
         inkscape:connector-curvature="0"
         id="path3057-4-5-4-9"
         d="m 664.44768,201.43547 c -0.3077,4.18468 -1.29233,5.60008 0.36923,6.27701 1.66157,0.67694 2.21542,1.66157 4.18468,1.41541 1.96926,-0.24616 3.63082,1.90772 3.01543,-0.67693 -0.6154,-2.58466 -1.41541,-2.70774 -0.55386,-3.63083 0.86155,-0.92309 2.0308,-1.7231 2.3385,-1.78464 0.3077,-0.0615 1.47694,-0.80001 1.47694,-0.80001 0,0 -0.49231,-1.4154 -2.33849,-1.90772 -1.84618,-0.49231 -2.27696,-0.36924 -3.7539,-0.36924 -1.47695,0 -4.73853,1.47695 -4.73853,1.47695 z"
         style="color:#000000;display:inline;overflow:visible;visibility:visible;fill:#000000;fill-opacity:1;stroke:none;stroke-width:0.625;marker:none;enable-background:accumulate" />
      <path
         sodipodi:nodetypes="cssscsssccc"
         inkscape:connector-curvature="0"
         id="path3059-4-2-4-5"
         d="m 672.01702,205.8663 c 0,1.10771 -1.10771,1.84618 0.55385,2.58466 1.66156,0.73847 2.58465,0.80001 3.13851,0.80001 0.55385,0 1.78464,-0.18462 2.0308,-0.3077 0.24615,-0.12308 1.16925,0.24616 1.16925,0.24616 0,0 0.80001,-2.09234 0.98463,-2.40004 0.18461,-0.30769 -0.18462,-0.61539 -0.12308,-1.66156 0.0615,-1.04617 0.24615,-2.0308 -0.86155,-2.15388 -1.10771,-0.12308 -3.69237,-0.18461 -3.69237,-0.18461 l -3.38466,2.40003 0.15881,0.57081 z"
         style="color:#000000;display:inline;overflow:visible;visibility:visible;fill:#000000;fill-opacity:1;stroke:none;stroke-width:0.625;marker:none;enable-background:accumulate" />
      <path
         inkscape:connector-curvature="0"
         id="path3061-9-9-7-4"
         d="m 666.78617,209.31251 c -1.29233,2.40003 -0.86155,5.60008 -0.86155,5.60008 l 1.23079,0.67693 c 0,0 0.92309,-1.60002 1.04617,-2.0308 0.12308,-0.43077 0,-3.01543 0,-3.01543 l 1.04617,-1.16924 z"
         style="color:#000000;display:inline;overflow:visible;visibility:visible;fill:#000000;fill-opacity:1;stroke:none;stroke-width:0.625;marker:none;enable-background:accumulate" />
      <path
         inkscape:connector-curvature="0"
         id="path3063-2-9-7-9"
         d="m 666.0477,216.08184 1.7231,3.56928 0.3077,1.7231 c 0,0 1.66156,-0.12308 1.7231,-0.36923 0.0615,-0.24616 -1.29233,-2.70774 -1.29233,-2.70774 l -1.47694,-2.46157 z"
         style="color:#000000;display:inline;overflow:visible;visibility:visible;fill:#000000;fill-opacity:1;stroke:none;stroke-width:0.625;marker:none;enable-background:accumulate" />
      <path
         inkscape:connector-curvature="0"
         id="path3065-2-9-3-6"
         d="m 669.12467,221.68192 0.0615,1.7231 0.30769,-0.18462 0.73848,0.86155 c 0,0 -0.18462,-1.23078 -0.24616,-1.60002 -0.0615,-0.36924 -0.43078,-0.92309 -0.43078,-0.92309 z"
         style="color:#000000;display:inline;overflow:visible;visibility:visible;fill:#000000;fill-opacity:1;stroke:none;stroke-width:0.625;marker:none;enable-background:accumulate" />
      <path
         inkscape:connector-curvature="0"
         id="path3067-8-3-8-9"
         d="m 668.69389,224.08195 -0.36923,1.29233 1.04617,0.92309 0.73847,0.24616 c 0,0 -0.80001,-1.04617 -0.49232,-1.23079 0.3077,-0.18462 0.98463,-0.49232 0.98463,-0.49232 l -0.55385,-0.61539 -0.98463,-0.0615 z"
         style="color:#000000;display:inline;overflow:visible;visibility:visible;fill:#000000;fill-opacity:1;stroke:none;stroke-width:0.625;marker:none;enable-background:accumulate" />
      <path
         inkscape:connector-curvature="0"
         id="path3069-0-0-5-6"
         d="m 659.89376,212.45101 c -1.90772,0.73848 -2.70773,2.0308 -2.95389,2.40004 -0.24615,0.36924 -1.29232,2.64619 -1.29232,2.64619 l 1.96926,-0.3077 c 0,0 2.27695,-1.90772 2.64619,-2.27695 0.36924,-0.36924 2.27696,-2.76927 2.27696,-2.76927 l -1.60003,-0.0615 z"
         style="color:#000000;display:inline;overflow:visible;visibility:visible;fill:#000000;fill-opacity:1;stroke:none;stroke-width:0.625;marker:none;enable-background:accumulate" />
      <path
         inkscape:connector-curvature="0"
         id="path3071-2-8-0-2"
         d="m 656.13986,218.42033 -0.92309,2.27696 0.6154,2.89235 c 0,0 0.24615,-2.0308 0.43077,-2.3385 0.18462,-0.30769 1.16925,-3.38466 1.16925,-3.38466 z"
         style="color:#000000;display:inline;overflow:visible;visibility:visible;fill:#000000;fill-opacity:1;stroke:none;stroke-width:0.625;marker:none;enable-background:accumulate" />
      <path
         inkscape:connector-curvature="0"
         id="path3073-4-8-6-6"
         d="m 649.24745,214.97413 c -0.24615,0.12308 -2.52311,2.15388 -2.21541,2.15388 0.30769,0 2.52311,0.36923 2.52311,0.36923 l -0.18462,2.46158 c 0,0 1.35387,-2.21542 1.60003,-2.40004 0.24615,-0.18462 2.64619,-2.33849 2.64619,-2.33849 l -1.60002,-0.24616 z"
         style="color:#000000;display:inline;overflow:visible;visibility:visible;fill:#000000;fill-opacity:1;stroke:none;stroke-width:0.625;marker:none;enable-background:accumulate" />
    </g>
    <rect
       style="color:#000000;clip-rule:nonzero;display:inline;overflow:visible;visibility:visible;opacity:1;isolation:auto;mix-blend-mode:normal;color-interpolation:sRGB;color-interpolation-filters:linearRGB;solid-color:#000000;solid-opacity:1;fill:none;fill-opacity:1;fill-rule:nonzero;stroke:#000000;stroke-width:1.12835455;stroke-linecap:butt;stroke-linejoin:miter;stroke-miterlimit:1;stroke-dasharray:none;stroke-dashoffset:0;stroke-opacity:1;color-rendering:auto;image-rendering:auto;shape-rendering:auto;text-rendering:auto;enable-background:accumulate"
       id="rect3383-6"
       width="182.85229"
       height="44.469147"
       x="58.709801"
       y="-4.7021403" />
    <path
       style="color:#000000;clip-rule:nonzero;display:inline;overflow:visible;visibility:visible;opacity:1;isolation:auto;mix-blend-mode:normal;color-interpolation:sRGB;color-interpolation-filters:linearRGB;solid-color:#000000;solid-opacity:1;fill:none;fill-opacity:1;fill-rule:nonzero;stroke:#000000;stroke-width:0.875;stroke-linecap:butt;stroke-linejoin:miter;stroke-miterlimit:1;stroke-dasharray:none;stroke-dashoffset:0;stroke-opacity:1;marker-end:url(#Arrow1Lend);color-rendering:auto;image-rendering:auto;shape-rendering:auto;text-rendering:auto;enable-background:accumulate"
       d="m 147.53173,113.23565 0,-70.619455"
       id="path4394"
       inkscape:connector-curvature="0" />
  </g>
</svg>
