<?xml version="1.0" encoding="iso-8859-1"?>
<!-- Generator: Adobe Illustrator 11 Build 196, SVG Export Plug-In . SVG Version: 6.0.0 Build 78)  -->
<!DOCTYPE svg PUBLIC "-//W3C//DTD SVG 1.0//EN"    "http://www.w3.org/TR/2001/REC-SVG-20010904/DTD/svg10.dtd" [
	<!ENTITY ns_flows "http://ns.adobe.com/Flows/1.0/">
	<!ENTITY ns_svg "http://www.w3.org/2000/svg">
	<!ENTITY ns_xlink "http://www.w3.org/1999/xlink">
]>
<svg
	 width="147.402" height="161.325" viewBox="0 0 147.402 161.325"
	 style="overflow:visible;enable-background:new 0 0 147.402 161.325" xml:space="preserve">
	<metadata>
<?xpacket begin='﻿' id='W5M0MpCehiHzreSzNTczkc9d'?><x:xmpmeta xmlns:x='adobe:ns:meta/' x:xmptk='XMP toolkit 3.0-29, framework 1.6'>
<rdf:RDF xmlns:rdf='http://www.w3.org/1999/02/22-rdf-syntax-ns#' xmlns:iX='http://ns.adobe.com/iX/1.0/'>

 <rdf:Description rdf:about=''
  xmlns:pdf='http://ns.adobe.com/pdf/1.3/'>
 </rdf:Description>

 <rdf:Description rdf:about=''
  xmlns:tiff='http://ns.adobe.com/tiff/1.0/'>
 </rdf:Description>

 <rdf:Description rdf:about=''
  xmlns:xap='http://ns.adobe.com/xap/1.0/'
  xmlns:xapGImg='http://ns.adobe.com/xap/1.0/g/img/'>
  <xap:CreateDate>2006-07-16T21:26:32Z</xap:CreateDate>
  <xap:ModifyDate>2006-07-16T21:26:32Z</xap:ModifyDate>
  <xap:CreatorTool>Illustrator</xap:CreatorTool>
  <xap:Thumbnails>
   <rdf:Alt>
    <rdf:li rdf:parseType='Resource'>
     <xapGImg:format>JPEG</xapGImg:format>
     <xapGImg:width>236</xapGImg:width>
     <xapGImg:height>256</xapGImg:height>
     <xapGImg:image>/9j/4AAQSkZJRgABAgEASABIAAD/7QAsUGhvdG9zaG9wIDMuMAA4QklNA+0AAAAAABAASAAAAAEA&#xA;AQBIAAAAAQAB/+4ADkFkb2JlAGTAAAAAAf/bAIQABgQEBAUEBgUFBgkGBQYJCwgGBggLDAoKCwoK&#xA;DBAMDAwMDAwQDA4PEA8ODBMTFBQTExwbGxscHx8fHx8fHx8fHwEHBwcNDA0YEBAYGhURFRofHx8f&#xA;Hx8fHx8fHx8fHx8fHx8fHx8fHx8fHx8fHx8fHx8fHx8fHx8fHx8fHx8fHx8f/8AAEQgBAADsAwER&#xA;AAIRAQMRAf/EAaIAAAAHAQEBAQEAAAAAAAAAAAQFAwIGAQAHCAkKCwEAAgIDAQEBAQEAAAAAAAAA&#xA;AQACAwQFBgcICQoLEAACAQMDAgQCBgcDBAIGAnMBAgMRBAAFIRIxQVEGE2EicYEUMpGhBxWxQiPB&#xA;UtHhMxZi8CRygvElQzRTkqKyY3PCNUQnk6OzNhdUZHTD0uIIJoMJChgZhJRFRqS0VtNVKBry4/PE&#xA;1OT0ZXWFlaW1xdXl9WZ2hpamtsbW5vY3R1dnd4eXp7fH1+f3OEhYaHiImKi4yNjo+Ck5SVlpeYmZ&#xA;qbnJ2en5KjpKWmp6ipqqusra6voRAAICAQIDBQUEBQYECAMDbQEAAhEDBCESMUEFURNhIgZxgZEy&#xA;obHwFMHR4SNCFVJicvEzJDRDghaSUyWiY7LCB3PSNeJEgxdUkwgJChgZJjZFGidkdFU38qOzwygp&#xA;0+PzhJSktMTU5PRldYWVpbXF1eX1RlZmdoaWprbG1ub2R1dnd4eXp7fH1+f3OEhYaHiImKi4yNjo&#xA;+DlJWWl5iZmpucnZ6fkqOkpaanqKmqq6ytrq+v/aAAwDAQACEQMRAD8A9U4q7FXYq8R/5yY8wefo&#xA;NK0rTvKFlOCuoWVxe6oSsUKzfWUFlbo0jIJC9wVZ6VC8RXqaKvWvLGrXmraFZ319YTaXfyxj65p9&#xA;wtHhmX4ZEB6OvIHi42YUOKppirsVdirsVdirsVdirsVdirsVdirsVdirsVdirsVdirsVdirsVdir&#xA;sVdirsVdirsVdirsVef/AJ3f8ohY/wDbc0X/ALqUGKvQMVdirsVdirsVdirsVdirsVdirsVdirsV&#xA;dirsVdirsVdirsVdirsVdirsVdirsVdirsVdirsVef8A53f8ohY/9tzRf+6lBir0DFXYq7FXYq7F&#xA;XYq7FXYq7FXYq7FXYq7FXYq7FXYq7FXYq7FXlv52/nVd/lrZW8sfl+TUjeFktrl7iGKHmqlmHBTJ&#xA;cNwXdv3YX/KxVm3kfUNa1LyhpGpa2sUeq39rHdXUUCsscbTr6gjUMWPwKwXcnpiqeYq7FXYq7FXY&#xA;q7FXYq7FXn/53f8AKIWP/bc0X/upQYq9AxV2KuxV2KuxV2KuxV2KuxV2KuxV2KuxV2KuxV2KuxV2&#xA;KpF5z846P5R0KXV9UZmRWWK1tIRznubiQ0it4I+ryO2wH0nYHFWJ+Vfy6udZa/8AM/5h28d3r+uW&#xA;r2S6UaPBpmnTBlNnCw6yOr/vpR1Ow26qvRoYUhhjhjFI41CIOuyigxVfirsVdirsVdirsVdirsVe&#xA;f/nd/wAohY/9tzRf+6lBir0DFXYq7FXYq7FXYq7FXYq7FXYq7FXYq7FXYq7FXYq7FUs8y+ZNG8ta&#xA;Hd63rNwtrp1khkmlbqf5UUftOx+FVG5O2KsI8l+W9Y8za7F+YXnK2NtcIrDyp5floRp1rIB+/mH/&#xA;AC1zD7X8g+Hr0VelYq7FXYq7FXYq7FXYq7FXYqh7/ULDT7SS8v7mKztIRWW5ndYo0HSrO5Cj6cVY&#xA;pqvnj8odWtkttR8y6HdQJLFcJG+oWpAlgcSRPtJ1V1BGKppYfmB5D1G7js9P8yaXeXkx4w20F7by&#xA;yOfBURyxPyxVP8VdirsVdirsVdirsVdirsVdirsVdirsVdirsVQup6np+l6fcajqNxHaWNpG0tzc&#xA;ysFREUVLMTirzXy3pt/+ZGuWnnTX4JLbynp8nreT9CmBUzSLUDVLuMgfEwP7hD9lfi71Kr1TFXYq&#xA;7FXYq7FXYq7FXYq7FXYq+I/zO/MK+8+ecZbuZ5Z9Ctp2i0bT424gW6txEqjiw9WcDkWKkioXoMVS&#xA;PUdDuJbxzpWkajDZ0HCO5BnlrTerxwwr1/ycVXyaEItDnN9ouoreh1Md43wWix9xJE0BYt4H1R8t&#xA;t1X0f/zjV5/1PzBoF/oWrzNc3uhmI293IxaSS0nDCNXY1LNG0TLy/l4133Kr2bFXYq7FXYq7FXYq&#xA;7FXYq7FXYq7FXn35p/nh5K/LY2kOtm4ur+9BaDT7FEkmEYqPVf1HiVU5DiN6k9AaGirybzb/AM5T&#xA;67eP6flHT006zKj/AEvUE9W5YkA1SJX9OMD/ACudfAYqq+W/+civO+h6jYx+e7OK70bUY1uIr+2j&#xA;CTpDIaCZREzRTIpBDIAHBr1YccVes675Xg/MG+0W/k1SG9/L+KIXv6Lt6ldQu+dYWuJAeL28QAYR&#xA;93+1WgGKs7AAFBsB0GKt4q7FXYq7FXYq7FXYq7FXYq8f/wCcrNU1LTfygvJtPupbOaS7tYnlgdo3&#xA;KM9SvJSDQ03xV8veUtcutBvbTU7WOKWWGOnpzKWQhk4kGhB+44qz/wD5Xp5lpSOxsox/ko4/42xV&#xA;C335xeaby3lhZIV9VShYBzQMKHYtT78VefWmqarpXnDy7c6ddzWcrXsKM8LshZRMnwtxI5Ka9Dti&#xA;r9DcVdirsVdirsVdirsVdirsVdiqncXFvbW8tzcypDbwo0k00jBEREFWZmNAAAKknFXw5+bOpaP5&#xA;v/NHVfNFiWl05/RhsDIOPMW8Sx+txO4V2Usld6dQDtiqM8gan5ctryez1y1hngvOKrLMgYKRUceR&#xA;3StftA7Yqq/mF+Xt3oSrfae73fl+QkxMTyaBm6pIBt22bv33xVHflh+YXmX8trixvLoGbyXrTs11&#xA;bhhIq8GCSzwcSxjmi2LxkDmtKjdWCr7HVlZQykMrCqsNwQe4xVvFXYq7FXYq7FXYq7FXYq7FWM/m&#xA;Vo+lav5D1201O1jvLYWU8whlHJRJDG0kbDwKsoIIxV8M20f7qNV/lUD7sVR405/5hirpLJ4051BA&#xA;64q9E/5x58t6Hrf5lL+l7KK9GnafNfWQmHIR3MVzbKkgFaEqHNK4q+ucVdirsVdirsVdirsVdirs&#xA;VWSyxQxPLK6xxRqXkkchVVVFSSTsABir5W/Or84JPONw+h6JMV8pwMPVkWqm/kQ1DN/xQpHwL+0f&#xA;iO3HFXmUdm0i8ieI7bVriqFnieNirD5HxxVnPkL8yk0uF9G8wKbrQ51MdSObRA7UKn7S+3bFWG+Y&#xA;LOxuvMFxYeWw91a3c6w6ZHxZTI8xCIgV6Hd24jl9OKvvHSrH6hpdnY+o0v1SCOD1XNWb00C8mPia&#xA;Yqi8VdirsVdirsVdirsVdirsVSHz/OLfyJ5jnI5CHS72QqO/G3c0xV8M26FTGO4oPuxVN1GKtXP9&#xA;ww/z64q9B/5xsd0/NABTQSaZdq48R6kDU+9Rir6txV2KuxV2KuxV2KuxV2KpV5q8zaR5X8vX3mDV&#xA;5DFp2nxmWdlUsxFQqqqjqzMQo9zir5P83/nx5w/MDS5LGW0j0by/M5b6rEztPcxg1RZ5CQOHSqqo&#xA;5Hr8O2KsNih5Gp+yMVRo+ziqHuURo259AKg+GKpPIQqlmNFG5J2AGKsx/IzyP5w8y/mbpOqW1rNY&#xA;6BoM8V/dX06PGsoWrIkdePMy0pt0WpPgVX2zirsVdirsVdirsVdirsVdirsVYl+bWpafp/5ZeaJ7&#xA;64jtopNMu4EeRgoaWeBo4kFerO7BVHc4q+Lol/eL8x+vFU06DFVGc1jbFWW/klqum6X+aOiz6hcx&#xA;2kMwnto5ZWCK0s0RWOOp2q7UA98VfYeKuxV2KuxV2KuxV2KuxV81f85I/mGNXuIvJWnSctMSXnqz&#xA;jpM9uQ3pf6iSca+J+QxV48iAkDoMVRAFNhiq+oCknpiqXXU5kPEfYH44q9U/Ib8n18z3ieZ9eg5e&#xA;XLOQ/UbWQELezxn7TD9qCJhv2dhT7IYFV9UYq7FXYq7FXYq7FXYq7FXYq7FXYq8c/wCcsbW5uPyd&#xA;uzBE8ogvLSWbgC3CMSULtToAWG+KvmdNmUnoCDiqNMinoRiqnIw4EVqTiqEFjd3uueX7Szhae5l1&#xA;a0EcMYLMaPU7DwG5xV9+4q7FXYq7FXYq7FXYqwT82vPJ8uaJ9UspKaxqAKQEdYo+jy/Psvv8sVfK&#xA;fmO3dFhvwCy25YTnuIpKcm/2LKpPtXFUvVgQGU1B3BGKq0cinrscVU7mfkOC/Z7nxxVl/wCUf5XX&#xA;PnzXGNwHi8tac6/pS6WqmV6BhaRMKHmykF2H2F8Cy4q+sLzU/LXliwsLe6nttJsHki07To3Kwxeo&#xA;VIhgj6KPhSij2xVNsVdirsVdirsVdirsVdirsVdirsVYv+Z0Mc/kDXIZF5RyWrI6nurEAjFXxZJb&#xA;zadMLK8JDr8MEzbLMg6Mp6cqfaXsfamKqgGKrZJI40LyMEQdWYgAfScVZx+SmnzTfmFo2pzRtHCk&#xA;3C0VxRm5A8paHcCgov09iMVfYOKuxV2KuxV2KuxVC6nqVppmn3F/eP6dtbIZJG9h2HuegHjir5d8&#xA;1a7eeYdbudUu9mmNIoq1Eca7Ig+Q+874qxvVb60020a6umIjBCqqgszuxoqIo3LE4qkWo6LJaVur&#xA;CNmtW+KWzAPJKmpeJevzT7vAqoCOeGVC8bhlHUg9Pn4YqidH0DzN5puzpflOyOo6gyklwyJDEq/a&#xA;Z5ZCqbV6Vr7Yq+vPyd/Lhfy+8k2+hvdG8vpZGvNSuP2GuplUSCOoB4LwAFdz170xVk+vaBo/mDSL&#xA;rR9ZtI73TbxDHcW8oqrA9x3Vgd1Ybg7jfFXnWna9rf5ZX8Gg+bbqXUvJdy6QaF5smoXtGb4UtNTY&#xA;U2rtHOdj+1/kqvVAQRUbg9DireKuxV2KuxV2KuxV2KuxV2Ksc/MQV8k6wP8Al3P6xir5nms4J42i&#xA;njWWJvtI4DKfmDtiqWXejeVrOJZbmwtI42dI1YwIfjkYKo2U9WNMVRUPl/RoZFlh0+2jkXdXSGNW&#xA;B9iBirL/AMu46edtHP8Ay8D9RxV9K4q7FXYq7FXYq7FXj35z+aTPOnl61f8AdQES3xHeTqif7EGp&#xA;96eGKvItRurSws5by7kEVvApaRz2A/WT2GKpBpem3eq3ia5qsRjVK/orT3H9yh/3bIN/3rf8L88V&#xA;TxosVQc2iWF3OpksoridiFUtEruSdgBUE4q+mfyu8hQeVNCUSxqNVuwHu2AHwD9mFadk7+J+jFWa&#xA;Yq7FUNqWm6fqdhcafqNvHd2N0hiuLaZQ8bowoVZT1xV5dBeap+UVxHZ6lJJqH5YTSCOx1Jy0tzor&#xA;OQEguTu0lpyPGOTqn2W2pir1aCeC4gjngkWWCVQ8UqEMjowqrKw2II3BGKqmKuxV2KuxV2KuxV2K&#xA;uxVj35gCvkzVh/xQf1jFXzn6eKpB52SmkQf8x1l/1Epiqf8Ap4qyH8v0p5z0k/8AF4/UcVfRmKux&#xA;V2KuxV2KpX5m1yHQ9FudRkoWiWkKH9uVtkX7+vtir5s1K8LNc6hfzAFi81zcSEAbnkzMTirELG1m&#xA;8z3sWrXsZj0S3bnpVm4FZmG31mUHt/vtfpxVkrRYqpNFir0r8mvJQu74+YrxK21m3GyRhs8wG7/K&#xA;Pt/lfLFXtmKuxV2KuxVTngguIJLe4jWaCZTHLFIAyOjCjKynYgjYg4q8plg1X8oZ2ubNLjU/yvkL&#xA;PdWS1mudDZmLGWAfbksvi+NN2j+0KitVXqdjfWWoWUF9Yzpc2dyiy29xEweN43FVZWGxBGKq+Kux&#xA;V2KuxV2KuxV2KpB58FfJ+qj/AIoP6xir589LFWPeeo6aPB/zH2P/AFEpirIfSxVPvIcdPOGlH/i8&#xA;fqOKvoTFXYq7FXYq7FXkP5ua+tzqSaWkgFtp6+pcGu3qsOp/1F/WcVeIBH85XvOhHlS0k+EdPr80&#xA;bDcim8CMP9kcVZUYQAABQDYAYqptHiqK0TQ7nWdWttNth+8uHClqVCqN2c+yrvir6S0rTLTS9Ot9&#xA;PtF4W9sgSMd9upPuTucVReKuxV2KuxV2KtMqspVgGVhRlO4IPY4q8pvtE1f8rLyfWvK9q9/5CuH9&#xA;bW/LMILTWDN/eXmnL/vv9qWD6Vp2VekaHruka9pNtq+j3cd7pt4nqW1zEaqy9PmCDsQdwdjviqPx&#xA;V2KuxV2KuxV2KpF54FfKWqD/AIpP6xirwX0vbFWN+fY6aLb/APbQsf8AqKjxVknpe2Kp55Hjp5t0&#xA;s/8AFw/UcVe94q7FXYq7FUFrWpxaZpdzfSUIgQsqn9pjsq/SxAxV8Z+dbbzx5h8+XYsraaXRXjig&#xA;1Vml+rRXNHaZ19Uhm6ylG9MHuMVeg21qsNrFCsSQrGiqIYzVEAFOKmi7D5Yq5osVUmixV6z+Uflg&#xA;WljJrdwn7+8HC2qN1hU7n/ZsPuGKvRMVdirsVdirsVdirsVdiry/XPK2veRdXufNnka2e+0m7kaf&#xA;zL5OiIAlJA53mnqaBLkUq8fSX2amKs68r+aND80aJb61olyt1YXIqrjZlYfajkU7o6HZlO4xVNsV&#xA;dirsVdirsVSXzoK+VtSH/FJ/WMVeHelirGfzBjpodv8A9tGw/wCouPFWTeliqdeTI6eadNP/ABcP&#xA;1HFXuOKuxV2KuxVgH5oaoSttpUbdf384H0qg/WfuxV520WKqTRYqpNFiqK0PRJdW1e20+Pb1nAdv&#xA;5UG7t9CjFXv9vBDbwRwQqEhiUJGg6BVFAPuxVUxV2KuxV2KuxV2KuxV2KuxV5t5n8la55d1q586/&#xA;l9Ehv5/j8w+WWPC31RQamSMjaK8AJ4vSjftd6qss8m+dNC836OuqaPKxRWMN3azKY7i2uE/vILiI&#xA;/EkiHqPpFRviqe4q7FXYq7FUn84CvlnUR/xUf1jFXi3pe2KvPfzc8t+Yr2zsrvQriZZhc28Nxaqx&#xA;MTVlX0ZuBqA0cvGrAdOuwxVm+kaU2n6bBaPPJdSRLSW5mYvJI53Z2LE9W7dB0G2Ksj8oR08zacf+&#xA;LR+o4q9pxV2KuxVokAEk0A3JOKvG9fvW1HVrm7JqsjkR+yL8K/gMVStosVUmixVSaLFXon5WaII4&#xA;rjVpF+KX9xbk/wAo3c/SaD6MVZ/irsVdirsVdirsVdirsVdirsVdiryn82NMh8ovP+ZmgXqaXrdu&#xA;EXVLF+ZtdYhSoEE0cSu3rha+lKq1Xo3w9FUR+Qv5sn8yNA1bUJkEF1Z6jNGtpUFo7WX95bVIAr8J&#xA;KVpuVOKvTsVdirsVSnzWK+Xb8f8AFR/WMVeQelirvSxV3pYqm3lSOnmKwP8AxaP1HFXr+KuxV2Kp&#xA;R5qvTaaJcMppJKPRT5vsf+Friry1osVUmixVSaLFViWzyypFGvKSRgqL4kmgGKva9K0+PT9Nt7KP&#xA;7MCBSR3b9pvpNTiqLxV2KuxV2KuxV2KuxV2KuxV2KuxV2KoG10PRbTULjUbSwt7e/u1Vbu6iiRJZ&#xA;QpJUSOoBfiWNOXSuKo7FXYq7FUr8ziugXw/4rP6xiryn0vbFXel7Yq70vbFU08sR01+xP/Fg/UcV&#xA;erYq7FXYqw/z3cl5La0B2UGVx7n4V/UcVYg0WKqbRYqotFiqeeSdM+s67HKwrHaqZT4cui/ia/Ri&#xA;r03FXYq7FXYq7FXYq7FXYq7FXYq7FXYq7FXYq7FXYq7FUt8xiuh3g/4rP6xirzP0sVd6WKu9LFUx&#xA;8uR01yzP/Fg/UcVem4q7FXYq8/1+X6xqtw/VVbgvyT4f4YqlbRYqpNFiqk0WKs48iWIh02W5I+K4&#xA;egP+Smw/4YnFWTYq7FXYq7FXYq7FXYq7FXYq7FXYq7FXYq7FXYq7FXYql+viujXY/wAj+OKvPPS9&#xA;sVd6XtirvS9sVR+gR01m0P8Alj9WKvRMVdiqnPKIoJJT0RS33CuKvP3QsSx3JNScVUmixVSaLFVJ&#xA;osVek6Zai10+3t6UMaAN/rUq344qisVdirsVdirsVdirsVdirsVdirsVdirsVdirsVdirsVQOtCu&#xA;lXI/yP44qwb0sVd6WKu9LFUbosdNVtj/AJeKs6xV2KoHWX46dKB1eij6Tv8AhirE2ixVSaLFVJos&#xA;VVdOtBNqFvGRUNIvIewNT+GKs/xV2KuxV2KuxV2KuxV2KuxV2KuxV2KuxV2KuxV2KuxV2KoPVhXT&#xA;bgf5OKsO9L2xV3pe2Ku9L2xVGaTHTUrc/wCXirMcVdiqW64awRp4tX7h/biqRNFiqk0WKqTRYqmH&#xA;l23rqQf/AH2jN9/w/wAcVZTirsVdirsVdirsVdirsVdirsVdirsVdirsVdirsVdirsVQ2pCtjMP8&#xA;nFWL+lirvSxV3pYqidNjpfQn/KxVlGKuxVLdWHJ0XwBP3/7WKpY0WKqTRYqpNFiqa+XoaNO/+qo/&#xA;EnFU6xV2KuxV2KuxV2KuxV2KuxV2KuxV2KuxV2KuxV2KuxV2KqF8K2ko/wAnFUg9L2xV3pe2Ku9L&#xA;2xVXsY6XcR/ysVT/ABV2KoC9XlL8gBiqEaLFVJosVUmixVNdHj427nxf9QGKo/FXYq7FXYq7FXYq&#xA;7FXYq7FXYq7FXYq7FXYq7FXYq7FXYqpXQrbuPbFUq9LFXelirvSxVVtY6XCH3xVNcVdiqHmSrk4q&#xA;oNFiqk0WKqTRYqmFgvG3HuTiqJxV2KuxV2KuxV2KuxV2KuxV2KuxV2KuxV2KuxV2KuxV2KrJhWJh&#xA;7Yqg/S9sVd6XtirvS9sVXQx0kU++Ko3FXYq0VBxVTaPFVJosVUmjxVFW4pCo+f68VVcVdirsVdir&#xA;sVdirsVdirsVdirsVdirsVdirsVdirsVdirRFRTFVnp4q708Vd6eKthKGuKr8VdirsVdirRAOKrG&#xA;jxVcgooGKrsVdirsVdirsVdirsVdirsVdirsVdirsVdirsVdirsVdirsVdirsVdirsVdirsVdirs&#xA;VdirsVdirsVdirsVdirsVdirsVdirsVdirsVdirsVdirsVdirsVdirsVdirsVdirsVdirsVdirsV&#xA;dirsVdirsVdirsVdirsVdirsVdirsVdirsVdirsVdirsVdirsVf/2Q==</xapGImg:image>
    </rdf:li>
   </rdf:Alt>
  </xap:Thumbnails>
 </rdf:Description>

 <rdf:Description rdf:about=''
  xmlns:dc='http://purl.org/dc/elements/1.1/'>
  <dc:format>image/svg+xml</dc:format>
 </rdf:Description>

</rdf:RDF>
</x:xmpmeta>
                                                                                                                                                                                                                                                                                                                                                                                                                                                                                                                                                                                                                                                                                                                                                                                                                                                                                                                                                                                                                                                                                                                                                                                                                                                                                                                                                                                                                                                                                                                                                                                                                                                                                                                                                                                                                                                                                                                                                                                                                                                                                                                                <?xpacket end='w'?>
			</metadata>
		<g id="Layer_1">
			<g>
				
					<linearGradient id="XMLID_9_" gradientUnits="userSpaceOnUse" x1="213.0154" y1="76.127" x2="213.0154" y2="-75.1183" gradientTransform="matrix(1 0 0 1 -193.813 73.8818)">
					<stop  offset="0" style="stop-color:#FFFFFF"/>
					<stop  offset="1" style="stop-color:#000000"/>
					<midPointStop  offset="0" style="stop-color:#FFFFFF"/>
					<midPointStop  offset="0.5" style="stop-color:#FFFFFF"/>
					<midPointStop  offset="1" style="stop-color:#000000"/>
				</linearGradient>
				<rect x="9.202" y="57.009" style="fill:url(#XMLID_9_);" width="20" height="93"/> 
				<g>
					
						<linearGradient id="XMLID_10_" gradientUnits="userSpaceOnUse" x1="116.9905" y1="71.6826" x2="49.4911" y2="-66.3177" gradientTransform="matrix(-0.9499 0.0166 0.0166 0.9499 157.6331 75.476)">
						<stop  offset="0" style="stop-color:#FFFFFF"/>
						<stop  offset="1" style="stop-color:#000000"/>
						<midPointStop  offset="0" style="stop-color:#FFFFFF"/>
						<midPointStop  offset="0.5" style="stop-color:#FFFFFF"/>
						<midPointStop  offset="1" style="stop-color:#000000"/>
					</linearGradient>
					<path style="fill:url(#XMLID_10_);" d="M76.316,48.366l15.706,12.631c-19.567,24.691-31.027,56.052-30.435,90.009
						c0.059,3.354,0.242,6.676,0.53,9.967l-20.189,0.352c-0.259-3.296-0.432-6.618-0.49-9.968
						C40.76,112.493,53.895,76.603,76.316,48.366z"/>
					<line style="fill:#404040;stroke:#000000;" x1="136.674" y1="94.49" x2="99.272" y2="59.833"/>
					<path d="M138.883,96.543c-0.683-1.352-1.364-3.208-1.518-4.648l-0.985,2.328l-2.247,1.16
						C135.58,95.426,137.484,95.964,138.883,96.543z"/>
					<line style="fill:none;stroke:#000000;" x1="103.033" y1="32.932" x2="120.066" y2="14.014"/>
					<path d="M122.091,11.773c-1.341,0.703-3.188,1.41-4.626,1.585l2.342,0.952l1.191,2.23
						C121.021,15.092,121.532,13.181,122.091,11.773z"/>
					<g>
						<line style="fill:none;stroke:#000000;" x1="75.573" y1="64.139" x2="58.54" y2="83.057"/>
						<path d="M56.515,85.298c1.341-0.703,3.188-1.411,4.626-1.585L58.8,82.761l-1.191-2.229
							C57.585,81.979,57.074,83.89,56.515,85.298z"/>
					</g>
					<g>
						<path d="M74.533,51.708c-0.528-0.472-0.533-1.328-0.011-1.911l1.894-2.117c0.521-0.584,1.373-0.674,1.9-0.202l0.229,0.205
							c0.528,0.472,0.533,1.328,0.011,1.912l-1.893,2.117c-0.522,0.583-1.373,0.674-1.901,0.202L74.533,51.708z"/>
						<path d="M100.943,49.919c-0.528-0.472-0.533-1.328-0.011-1.911l1.893-2.118c0.522-0.583,1.373-0.674,1.901-0.202l0.229,0.206
							c0.528,0.472,0.533,1.328,0.011,1.911l-1.894,2.118c-0.521,0.583-1.373,0.674-1.9,0.202L100.943,49.919z"/>
						<path d="M88.321,64.036c-0.528-0.472-0.533-1.328-0.011-1.912l1.894-2.117c0.521-0.584,1.373-0.674,1.9-0.202l0.23,0.205
							c0.528,0.472,0.533,1.328,0.011,1.912l-1.893,2.117c-0.522,0.584-1.373,0.674-1.901,0.202L88.321,64.036z"/>
						<path d="M87.156,37.591c-0.528-0.472-0.533-1.328-0.011-1.912l1.893-2.117c0.522-0.583,1.373-0.674,1.901-0.202l0.229,0.206
							c0.528,0.472,0.533,1.328,0.011,1.911l-1.894,2.118c-0.521,0.583-1.373,0.674-1.9,0.202L87.156,37.591z"/>
						
							<linearGradient id="XMLID_11_" gradientUnits="userSpaceOnUse" x1="238.0686" y1="58.1006" x2="224.2352" y2="30.434" gradientTransform="matrix(-0.6744 -0.603 -0.6665 0.7455 274.2509 155.9139)">
							<stop  offset="0" style="stop-color:#474747"/>
							<stop  offset="0.4785" style="stop-color:#414141"/>
							<stop  offset="1" style="stop-color:#333333"/>
							<midPointStop  offset="0" style="stop-color:#474747"/>
							<midPointStop  offset="0.63" style="stop-color:#474747"/>
							<midPointStop  offset="1" style="stop-color:#333333"/>
						</linearGradient>
						<path style="fill:url(#XMLID_11_);stroke:#000000;stroke-width:0.5;" d="M89.591,63.282c-2.613,2.914-6.867,3.359-9.502,0.995
							l-4.597-4.124c-2.636-2.364-2.654-6.644-0.042-9.557l15.158-15.725c2.612-2.914,6.278-3.885,8.914-1.521l4.597,4.124
							c2.636,2.364,2.231,6.266-0.381,9.179L89.591,63.282z"/>
						
							<ellipse transform="matrix(-0.6665 0.7455 -0.7455 -0.6665 187.894 -14.4556)" style="fill:#FFFFFF;" cx="97.18" cy="34.797" rx="0.328" ry="1.109"/> 
						
							<linearGradient id="XMLID_12_" gradientUnits="userSpaceOnUse" x1="72.2825" y1="-42.3257" x2="74.1157" y2="-30.9923" gradientTransform="matrix(0.5058 0.4523 0.4999 -0.5591 79.3074 -14.0726)">
							<stop  offset="0" style="stop-color:#9E9E9E"/>
							<stop  offset="0.31" style="stop-color:#9E9E9E"/>
							<stop  offset="0.48" style="stop-color:#D1D1D1"/>
							<stop  offset="0.63" style="stop-color:#9E9E9E"/>
							<stop  offset="1" style="stop-color:#9E9E9E"/>
							<midPointStop  offset="0" style="stop-color:#9E9E9E"/>
							<midPointStop  offset="0.5" style="stop-color:#9E9E9E"/>
							<midPointStop  offset="0.31" style="stop-color:#9E9E9E"/>
							<midPointStop  offset="0.5" style="stop-color:#9E9E9E"/>
							<midPointStop  offset="0.48" style="stop-color:#D1D1D1"/>
							<midPointStop  offset="0.5" style="stop-color:#D1D1D1"/>
							<midPointStop  offset="0.63" style="stop-color:#9E9E9E"/>
							<midPointStop  offset="0.5" style="stop-color:#9E9E9E"/>
							<midPointStop  offset="1" style="stop-color:#9E9E9E"/>
						</linearGradient>
						<path style="fill:url(#XMLID_12_);" d="M101.12,41.558c0.78,0.697,1.064,1.651,0.636,2.131l0,0
							c-0.429,0.479-1.409,0.303-2.188-0.394l-5.606-5.013c-0.78-0.697-1.065-1.651-0.636-2.131l0,0
							c0.429-0.479,1.409-0.303,2.188,0.395L101.12,41.558z"/>
						
							<linearGradient id="XMLID_13_" gradientUnits="userSpaceOnUse" x1="225.3899" y1="37.0024" x2="235.2649" y2="45.8774" gradientTransform="matrix(-0.6744 -0.603 -0.6665 0.7455 271.1611 159.3695)">
							<stop  offset="0" style="stop-color:#4D4D4D"/>
							<stop  offset="0.51" style="stop-color:#525252"/>
							<stop  offset="1" style="stop-color:#4D4D4D"/>
							<midPointStop  offset="0" style="stop-color:#4D4D4D"/>
							<midPointStop  offset="0.63" style="stop-color:#4D4D4D"/>
							<midPointStop  offset="0.51" style="stop-color:#525252"/>
							<midPointStop  offset="0.37" style="stop-color:#525252"/>
							<midPointStop  offset="1" style="stop-color:#4D4D4D"/>
						</linearGradient>
						<path style="fill:url(#XMLID_13_);" d="M79.611,55.896c-0.792-0.708-0.799-1.992-0.017-2.867l8.363-9.354
							c0.783-0.875,2.059-1.011,2.851-0.303l4.012,3.586c0.792,0.708,0.799,1.992,0.017,2.867l-8.363,9.354
							c-0.783,0.875-2.059,1.011-2.851,0.303L79.611,55.896z"/>
						
							<ellipse transform="matrix(-0.6665 0.7455 -0.7455 -0.6665 200.6562 -10.3832)" style="fill:#FFFFFF;" cx="102.65" cy="39.687" rx="0.328" ry="1.109"/> 
					</g>
				</g>
				<g>
					<path d="M28.604,60.232c0.708,0,1.282-0.635,1.282-1.417v-2.84c0-0.783-0.574-1.417-1.282-1.417h-0.308
						c-0.708,0-1.282,0.635-1.282,1.417v2.84c0,0.783,0.574,1.417,1.282,1.417H28.604z"/>
					<path d="M10.109,41.295c0.708,0,1.282-0.634,1.282-1.417v-2.84c0-0.783-0.574-1.417-1.282-1.417H9.801
						c-0.708,0-1.282,0.635-1.282,1.417v2.84c0,0.783,0.574,1.417,1.282,1.417H10.109z"/>
					<path d="M10.109,60.232c0.708,0,1.282-0.635,1.282-1.417v-2.84c0-0.783-0.574-1.417-1.282-1.417H9.801
						c-0.708,0-1.282,0.635-1.282,1.417l0,2.84c0,0.783,0.574,1.417,1.282,1.417H10.109z"/>
					<path d="M28.604,41.295c0.708,0,1.282-0.634,1.282-1.417v-2.84c0-0.783-0.574-1.417-1.282-1.417h-0.308
						c-0.708,0-1.282,0.635-1.282,1.417v2.84c0,0.783,0.574,1.417,1.282,1.417H28.604z"/>
					
						<linearGradient id="XMLID_14_" gradientUnits="userSpaceOnUse" x1="238.1599" y1="58.0547" x2="224.3265" y2="30.3881" gradientTransform="matrix(0.9046 0 0 1 -189.7977 4.8574)">
						<stop  offset="0" style="stop-color:#474747"/>
						<stop  offset="0.4785" style="stop-color:#414141"/>
						<stop  offset="1" style="stop-color:#333333"/>
						<midPointStop  offset="0" style="stop-color:#474747"/>
						<midPointStop  offset="0.63" style="stop-color:#474747"/>
						<midPointStop  offset="1" style="stop-color:#333333"/>
					</linearGradient>
					<path style="fill:url(#XMLID_14_);stroke:#000000;stroke-width:0.5;" d="M9.664,58.823c0.005,3.914,2.88,7.082,6.42,7.076
						l6.176-0.01c3.541-0.006,6.407-3.183,6.401-7.097l-0.819-21.825c-0.005-3.914-2.09-7.082-5.631-7.076l-6.176,0.01
						c-3.541,0.006-5.84,3.184-5.834,7.097L9.664,58.823z"/>
					<ellipse style="fill:#FFFFFF;" cx="22.993" cy="32.53" rx="1.109" ry="0.328"/> 
					
						<linearGradient id="XMLID_15_" gradientUnits="userSpaceOnUse" x1="72.5139" y1="-42.3628" x2="74.3472" y2="-31.0294" gradientTransform="matrix(-0.6785 0 0 -0.75 69.0178 7.8052)">
						<stop  offset="0" style="stop-color:#9E9E9E"/>
						<stop  offset="0.31" style="stop-color:#9E9E9E"/>
						<stop  offset="0.48" style="stop-color:#D1D1D1"/>
						<stop  offset="0.63" style="stop-color:#9E9E9E"/>
						<stop  offset="1" style="stop-color:#9E9E9E"/>
						<midPointStop  offset="0" style="stop-color:#9E9E9E"/>
						<midPointStop  offset="0.5" style="stop-color:#9E9E9E"/>
						<midPointStop  offset="0.31" style="stop-color:#9E9E9E"/>
						<midPointStop  offset="0.5" style="stop-color:#9E9E9E"/>
						<midPointStop  offset="0.48" style="stop-color:#D1D1D1"/>
						<midPointStop  offset="0.5" style="stop-color:#D1D1D1"/>
						<midPointStop  offset="0.63" style="stop-color:#9E9E9E"/>
						<midPointStop  offset="0.5" style="stop-color:#9E9E9E"/>
						<midPointStop  offset="1" style="stop-color:#9E9E9E"/>
					</linearGradient>
					<path style="fill:url(#XMLID_15_);" d="M15.55,34.945c-1.046,0-1.895,0.521-1.894,1.165l0,0c0,0.643,0.848,1.165,1.894,1.165
						h7.52c1.046,0,1.895-0.521,1.895-1.165l0,0c0-0.644-0.849-1.165-1.895-1.165H15.55z"/>
					
						<linearGradient id="XMLID_16_" gradientUnits="userSpaceOnUse" x1="225.4587" y1="36.9263" x2="235.3337" y2="45.8013" gradientTransform="matrix(0.9046 0 0 1 -189.7977 9.4932)">
						<stop  offset="0" style="stop-color:#4D4D4D"/>
						<stop  offset="0.51" style="stop-color:#525252"/>
						<stop  offset="1" style="stop-color:#4D4D4D"/>
						<midPointStop  offset="0" style="stop-color:#4D4D4D"/>
						<midPointStop  offset="0.63" style="stop-color:#4D4D4D"/>
						<midPointStop  offset="0.51" style="stop-color:#525252"/>
						<midPointStop  offset="0.37" style="stop-color:#525252"/>
						<midPointStop  offset="1" style="stop-color:#4D4D4D"/>
					</linearGradient>
					<path style="fill:url(#XMLID_16_);" d="M22.027,59.97c1.062,0,1.923-0.952,1.923-2.126V45.296c0-1.174-0.861-2.125-1.923-2.125
						h-5.381c-1.062,0-1.923,0.952-1.923,2.125v12.547c0,1.174,0.861,2.126,1.923,2.126H22.027z"/>
					<ellipse style="fill:#FFFFFF;" cx="15.656" cy="32.53" rx="1.109" ry="0.328"/> 
				</g>
				<g>
					<line style="fill:none;stroke:#000000;" x1="19.202" y1="69.509" x2="19.202" y2="92.509"/>
					<path d="M19.202,95.526c-0.527-1.42-1.426-3.182-2.377-4.273l2.377,0.86l2.377-0.86C20.628,92.345,19.729,94.106,19.202,95.526
						z"/>
				</g>
				<g>
					<line style="fill:none;stroke:#000000;" x1="19.202" y1="26.018" x2="19.202" y2="3.018"/>
					<path d="M19.202,0c0.527,1.42,1.426,3.182,2.377,4.273l-2.377-0.86l-2.377,0.86C17.776,3.182,18.676,1.42,19.202,0z"/>
				</g>
			</g>
			<rect y="79.245" style="fill:none;" width="147.402" height="2.835"/> 
		</g>
	</svg>
