<?xml version="1.0" encoding="UTF-8" standalone="no"?>
<!-- Generator: Adobe Illustrator 11 Build 196, SVG Export Plug-In . SVG Version: 6.0.0 Build 78)  -->
<svg
   xmlns:dc="http://purl.org/dc/elements/1.1/"
   xmlns:cc="http://web.resource.org/cc/"
   xmlns:rdf="http://www.w3.org/1999/02/22-rdf-syntax-ns#"
   xmlns:svg="http://www.w3.org/2000/svg"
   xmlns="http://www.w3.org/2000/svg"
   xmlns:sodipodi="http://inkscape.sourceforge.net/DTD/sodipodi-0.dtd"
   xmlns:inkscape="http://www.inkscape.org/namespaces/inkscape"
   width="275.789"
   height="203.285"
   viewBox="0 0 275.789 203.285"
   style="overflow:visible;enable-background:new 0 0 275.789 203.285"
   xml:space="preserve"
   id="svg2"
   sodipodi:version="0.32"
   sodipodi:docname="cartoon-bar-tab.svg"
   sodipodi:docbase="/home/bcrowell/Documents/writing/lm/trunk/1np/ch05/figs"><metadata
   id="metadata228"><rdf:RDF><cc:Work
       rdf:about=""><dc:format>image/svg+xml</dc:format><dc:type
         rdf:resource="http://purl.org/dc/dcmitype/StillImage" /></cc:Work></rdf:RDF></metadata><defs
   id="defs226">
		
		
		
		
		
		
		
		
		
		
	
			
			
			
			
			
			
			
			
			
			
			
			
			
			
			
			
			
			
			
			
			
			
			
			
			
			
			
			
			
			
			
			
			
			 
			
			
		
			 
			 
			
			
			 
		
			 
			 
			
			
			 
		
			 
			 
			
			
			 
		
			 
			 
			
			
			 
		
			
			
			
			
			
			
			
			
			
			
			
			
			
			
			
			
			
			
			
			
			
			
			
			
			
			
			
			
			
			
			
			
			
			 
			 
		</defs><sodipodi:namedview
   inkscape:cy="41.357201"
   inkscape:cx="74.372988"
   inkscape:zoom="1.4391897"
   inkscape:window-height="996"
   inkscape:window-width="1278"
   inkscape:pageshadow="2"
   inkscape:pageopacity="0.0"
   borderopacity="1.0"
   bordercolor="#666666"
   pagecolor="#ffffff"
   id="base"
   inkscape:window-x="0"
   inkscape:window-y="0"
   inkscape:current-layer="svg2" />
	<style
   type="text/css"
   id="style4">
	
	</style>
	<rect
   style="fill:#dedede;fill-opacity:1.0000000;fill-rule:evenodd;stroke:none;stroke-width:0.98588371pt;stroke-linecap:butt;stroke-linejoin:miter;stroke-opacity:1.0000000"
   id="rect2401"
   width="307.07950"
   height="165.45081"
   x="-20.076101"
   y="29.368862" /><path
   style="fill:none;stroke:#000000;stroke-width:0.50000000"
   d="M 170.91400,126.89300 C 170.28900,124.60100 170.28900,122.72600 169.03900,121.68500 C 167.78900,120.64300 165.91400,120.01800 165.28900,118.76800 C 164.66400,117.51800 164.66400,117.10100 164.03900,116.47600 C 163.41400,115.85100 162.16400,112.30900 161.95600,111.26800 C 161.74800,110.22600 161.53900,108.97600 161.53900,107.72600 C 161.53900,106.47600 161.53900,105.64300 161.33100,104.60100 C 161.12300,103.55900 160.70600,102.30900 160.70600,101.47600 C 160.70600,100.64300 160.28900,97.101000 160.49800,96.268000 C 160.70600,95.435000 159.45600,93.351000 159.87300,92.518000 C 160.29000,91.685000 160.91500,89.810000 160.91500,89.810000 C 160.91500,89.810000 161.12300,88.143000 161.54000,87.102000 C 161.95700,86.061000 162.79000,84.394000 163.41500,83.769000 C 164.04000,83.144000 165.29000,81.686000 166.33200,81.894000 C 167.37400,82.102000 167.99900,81.686000 169.24900,81.686000 C 170.49900,81.686000 172.16600,81.478000 173.20700,81.061000 C 174.24900,80.644000 175.91500,80.228000 176.95700,80.644000 C 177.99900,81.061000 180.29000,81.269000 181.33200,81.894000 C 182.37400,82.519000 184.04000,83.769000 184.66500,84.602000 C 185.29000,85.435000 186.54000,86.685000 187.37300,87.102000 C 188.20600,87.519000 190.29000,87.935000 190.29000,89.602000 C 190.29000,91.269000 191.95700,95.435000 191.95700,96.477000 C 191.95700,97.519000 191.54000,100.85200 191.54000,101.89400"
   id="path83" /><path
   style="fill:none;stroke:#000000;stroke-width:0.50000000"
   d="M 161.53900,96.060000 C 161.95600,95.227000 162.16400,95.018000 162.37200,93.352000 C 162.58000,91.685000 162.58000,90.227000 163.20500,89.394000 C 163.83000,88.561000 165.28800,86.477000 165.28800,86.477000 C 165.28800,86.477000 167.99600,85.019000 169.87100,84.810000 C 171.74600,84.602000 173.82900,83.977000 175.70400,84.393000 C 177.57900,84.810000 180.28700,84.185000 181.12100,85.435000 C 181.95400,86.685000 182.99600,86.268000 183.20400,88.352000 C 183.41200,90.435000 183.82900,91.894000 183.62100,93.144000 C 183.41300,94.394000 184.45400,95.436000 184.03800,96.477000 C 183.62200,97.518000 183.41300,98.144000 184.03800,99.185000 C 184.66300,100.22700 185.28800,102.93500 185.91300,103.35200"
   id="path85" /><path
   style="fill:none;stroke:#000000;stroke-width:0.50000000"
   d="M 185.08100,110.43500 C 185.70600,111.06000 186.12300,112.10200 187.37300,110.64300 C 188.62300,109.18500 188.83100,108.76800 189.45600,108.14300 C 190.08100,107.51800 191.12300,107.10100 191.33100,105.22600 C 191.53900,103.35100 191.33100,102.10100 190.70600,101.89300 C 190.08100,101.68500 189.45600,100.64300 188.62300,101.26800 C 187.79000,101.89300 186.95600,102.31000 186.54000,103.14300"
   id="path87" /><path
   style="fill:none;stroke:#000000;stroke-width:0.50000000"
   d="M 168.20600,98.143000 C 167.78900,99.393000 167.40800,100.08200 167.06000,101.08600 C 166.59100,102.44000 166.12200,104.39300 167.16400,104.81000 C 168.20600,105.22700 169.03900,103.76800 169.45600,104.39300"
   id="path89" /><path
   style="fill:none;stroke:#000000;stroke-width:0.50000000"
   d="M 165.70600,111.47700 C 166.53900,111.89400 169.66400,112.72700 170.28900,112.51900 C 170.91400,112.31100 172.37200,111.68600 173.20600,111.47700 C 174.03900,111.26900 173.83100,111.06000 172.78900,110.64400 C 171.74700,110.22700 171.12200,109.39400 169.87200,109.39400 C 168.62200,109.39400 167.37200,109.81100 166.53900,110.64400"
   id="path91" /><path
   style="fill:none;stroke:#000000;stroke-width:0.50000000"
   d="M 167.91900,119.99200 C 169.40300,119.91400 170.41900,120.30400 171.82500,119.60100 C 173.23200,118.89800 176.59100,117.72600 177.29400,117.57000 C 177.99700,117.41400 180.49700,117.02300 180.88700,116.78900 C 181.27800,116.55500 183.07500,114.68000 183.69900,113.58600"
   id="path93" /><path
   style="fill:none;stroke:#000000;stroke-width:0.50000000"
   d="M 172.29400,95.383000 C 173.38700,94.992000 176.66900,94.055000 177.76200,95.852000"
   id="path95" /><path
   style="fill:none;stroke:#000000;stroke-width:0.50000000"
   d="M 167.37300,95.930000 C 166.12300,95.071000 163.07600,95.071000 162.52900,96.008000"
   id="path97" /><path
   style="fill:none;stroke:#000000;stroke-width:0.50000000"
   d="M 172.37300,98.195000 C 173.38800,97.726000 175.81100,97.570000 176.74800,98.742000"
   id="path99" /><path
   style="fill:none;stroke:#000000;stroke-width:0.50000000"
   d="M 162.84100,98.586000 C 163.93500,98.117000 165.65300,98.117000 166.12200,98.508000"
   id="path101" /><path
   style="fill:none;stroke:#000000;stroke-width:0.50000000"
   d="M 172.76300,98.508000 C 173.93500,98.977000 175.65400,99.055000 176.20100,98.899000"
   id="path103" /><path
   style="fill:none;stroke:#000000;stroke-width:0.50000000"
   d="M 163.15300,99.211000 C 164.56000,99.836000 164.87200,99.758000 165.49700,99.133000"
   id="path105" /><path
   style="fill:none;stroke:#000000;stroke-width:0.50000000"
   d="M 167.84100,111.00800 C 168.46600,110.53900 170.34100,110.38300 170.81000,110.77400"
   id="path107" /><path
   style="fill:none;stroke:#000000;stroke-width:0.50000000"
   d="M 168.23200,111.39800 C 168.93500,111.55400 170.57500,111.55400 170.88800,111.16400"
   id="path109" /><path
   style="fill:none;stroke:#000000;stroke-width:0.50000000"
   d="M 116.95600,139.60200 C 116.95600,136.89400 116.53900,135.64400 117.16400,134.18500 C 117.78900,132.72700 119.24700,128.14300 119.24700,126.68500 C 119.24700,125.22700 117.78900,122.72700 117.37200,121.47700 C 116.95500,120.22700 115.91400,119.60200 115.91400,119.60200"
   id="path111" /><path
   style="fill:none;stroke:#000000;stroke-width:0.50000000"
   d="M 115.70600,122.10200 C 115.70600,118.35200 115.91400,113.35200 115.49800,111.68500 C 115.08100,110.01800 113.27100,108.57300 112.64600,110.65600 C 111.87400,113.23100 112.37300,119.63900 112.37300,120.26500"
   id="path113" /><path
   style="fill:none;stroke:#000000;stroke-width:0.50000000"
   d="M 107.16400,139.81000 C 107.16400,137.31000 106.74700,137.10200 106.12200,134.39300 C 105.49700,131.68500 104.87200,129.18500 104.45500,128.56000 C 104.03800,127.93500 102.78800,125.43500 103.62200,124.81000 C 104.45500,124.18500 105.08000,123.14300 106.12200,123.35200 C 107.16400,123.56000 109.24700,123.76900 109.87200,125.22700 C 110.49700,126.68500 112.16400,127.93500 111.33000,128.76900 C 110.49700,129.60200 109.87200,129.60200 109.24700,128.76900"
   id="path115" /><path
   style="fill:none;stroke:#000000;stroke-width:0.50000000"
   d="M 106.12300,122.31000 C 106.74800,121.47700 109.24800,121.06000 110.08100,121.47700 C 110.91400,121.89400 112.99800,125.43500 113.41400,126.68500 C 113.83000,127.93500 113.20600,129.18500 112.58100,129.39300"
   id="path117" /><path
   style="fill:none;stroke:#000000;stroke-width:0.50000000"
   d="M 110.49800,120.22700 C 111.74800,120.22700 114.66500,123.14400 115.29000,124.60200 C 115.91500,126.06000 115.91500,127.72700 115.29000,128.14400"
   id="path119" /><line
   style="fill:none;stroke:#000000;stroke-width:0.50000000"
   x1="166.95599"
   y1="120.64300"
   x2="166.53900"
   y2="122.51800"
   id="line121" /><path
   style="fill:none;stroke:#000000;stroke-width:0.50000000"
   d="M 185.91400,111.89300 C 185.70600,114.81000 186.33100,118.14300 186.33100,118.14300 C 187.37300,120.85100 186.95600,122.51800 186.95600,122.51800 L 185.70600,128.56000 L 182.58100,137.72700 L 181.33100,144.18500 L 179.45600,151.06000"
   id="path123" /><path
   style="fill:none;stroke:#000000;stroke-width:0.50000000"
   d="M 187.58100,119.60200 C 192.99800,122.31000 213.41400,131.06000 214.66400,133.14400"
   id="path125" /><path
   style="fill:none;stroke:#000000;stroke-width:0.50000000"
   d="M 165.08100,122.72700 C 162.16400,124.81000 162.16400,126.68500 158.41400,127.93500 C 154.66400,129.18500 141.74700,132.51800 141.74700,132.51800 L 129.66400,145.22600 L 118.41400,140.64300 L 117.99700,144.39300 L 110.91400,151.89300 L 107.58100,152.72600 L 107.58100,148.97600"
   id="path127" /><path
   style="fill:none;stroke:#000000;stroke-width:0.50000000"
   d="M 107.58100,141.06000 C 106.33100,142.72700 108.41400,145.85200 111.53900,145.43500 C 114.66400,145.01800 117.99700,141.06000 117.78900,139.39300"
   id="path129" /><path
   style="fill:none;stroke:#000000;stroke-width:0.50000000"
   d="M 106.74800,143.56000 C 107.99800,145.85200 106.95600,147.31000 107.99800,148.35200 C 109.04000,149.39400 110.49800,151.06000 110.49800,151.06000"
   id="path131" /><path
   style="fill:none;stroke:#000000;stroke-width:0.50000000"
   d="M 166.53900,123.76800 C 166.95600,125.85100 165.08100,125.85100 165.91400,129.39300 C 166.74700,132.93500 164.87200,134.60100 165.49700,140.43500 C 166.12200,146.26800 165.91400,152.10200 165.91400,152.10200"
   id="path133" /><path
   style="fill:none;stroke:#000000;stroke-width:0.50000000"
   d="M 167.78900,124.39300 C 168.62200,125.43500 171.74700,127.93500 172.78900,128.76800 C 173.83100,129.60100 175.91400,128.35100 177.37200,127.72600 C 178.83000,127.10100 182.16400,123.97600 183.20500,123.14300 C 184.24700,122.31000 186.33000,118.14300 186.33000,118.14300"
   id="path135" /><path
   style="fill:none;stroke:#000000;stroke-width:0.50000000"
   d="M 175.49800,129.81000 C 176.54000,130.43500 181.33100,138.76800 181.33100,138.76800"
   id="path137" /><path
   style="fill:none;stroke:#000000;stroke-width:0.50000000"
   d="M 171.95600,130.22700 C 170.28900,131.68500 167.58100,139.60200 167.58100,139.60200 L 166.33100,135.43500"
   id="path139" /><polyline
   style="fill:none;stroke:#000000;stroke-width:0.50000000"
   points="171.331,132.727 172.164,134.81 175.498,134.602      176.123,131.893 "
   id="polyline141" /><path
   style="fill:none;stroke:#000000;stroke-width:0.50000000"
   d="M 175.49800,134.60200 C 176.33100,137.51900 176.74800,148.14400 176.95600,149.81000"
   id="path143" /><path
   style="fill:none;stroke:#000000;stroke-width:0.50000000"
   d="M 171.53900,135.22700 C 170.91400,138.35200 166.53900,149.39400 166.74700,151.26900"
   id="path145" /><path
   style="fill:#dedede;stroke:#000000;stroke-width:0.50000000;fill-opacity:1.0000000"
   d="M 117.99800,128.14300 C 115.91500,127.93500 112.16500,127.93500 111.95600,128.76800 C 111.74800,129.60100 112.16400,131.47600 113.41400,131.06000 C 114.66400,130.64300 117.16400,130.64300 117.16400,130.64300"
   id="path147" /><ellipse
   style="fill:#ffffff;stroke:#000000;stroke-width:0.50000000"
   cx="174.14301"
   cy="98.400002"
   rx="0.51599997"
   ry="0.36800000"
   id="ellipse149"
   sodipodi:cx="174.14301"
   sodipodi:cy="98.400002"
   sodipodi:rx="0.51599997"
   sodipodi:ry="0.36800000" /><ellipse
   style="fill:#ffffff;stroke:#000000;stroke-width:0.50000000"
   cx="164.07800"
   cy="98.925003"
   rx="0.51599997"
   ry="0.36800000"
   id="ellipse151"
   sodipodi:cx="164.07800"
   sodipodi:cy="98.925003"
   sodipodi:rx="0.51599997"
   sodipodi:ry="0.36800000" /><polyline
   id="polyline153"
   points="275.789,154.102 94.289,154.102 23.289,194.102 "
   style="fill:#dedede;stroke:#000000;stroke-width:0.50000000;fill-opacity:1.0000000"
   transform="matrix(0.976530,0.000000,0.000000,0.888292,6.478735,17.18657)" /><ellipse
   style="fill:#dedede;stroke:#000000;stroke-width:0.50000000;fill-opacity:1.0000000"
   cx="162.75101"
   cy="182.27000"
   rx="4.5079999"
   ry="2.1040001"
   id="ellipse157"
   sodipodi:cx="162.75101"
   sodipodi:cy="182.27000"
   sodipodi:rx="4.5079999"
   sodipodi:ry="2.1040001" /><ellipse
   style="fill:#dedede;stroke:#000000;stroke-width:0.50000000;fill-opacity:1.0000000"
   cx="162.46700"
   cy="162.43600"
   rx="7.3860002"
   ry="2.9200001"
   id="ellipse159"
   sodipodi:cx="162.46700"
   sodipodi:cy="162.43600"
   sodipodi:rx="7.3860002"
   sodipodi:ry="2.9200001" /><polyline
   style="fill:#dedede;stroke:#000000;stroke-width:0.50000000;fill-opacity:1.0000000"
   points="155.066,162.613 161.866,173.664 161.866,182.447 "
   id="polyline161" /><polyline
   style="fill:#dedede;stroke:#000000;stroke-width:0.50000000;fill-opacity:1.0000000"
   points="170.216,162.649 163.417,173.699 163.417,182.482 "
   id="polyline163" /><rect
   x="162.25500"
   y="178.79900"
   style="fill:#ffffff"
   width="0.63800001"
   height="2.1250000"
   id="rect165" /><path
   id="path167"
   d="M 204.28900,177.10200 C 210.28900,179.60200 217.78900,188.10200 217.78900,188.10200 L 229.28900,178.60200 L 221.78900,168.60200 L 204.28900,177.10200 z "
   style="fill:#dedede;stroke:#000000;stroke-width:0.50000000;fill-opacity:1.0000000" /><ellipse
   style="fill:#dedede;stroke:#000000;stroke-width:0.50000000;fill-opacity:1.0000000"
   cx="215.41400"
   cy="170.97701"
   rx="4.5960002"
   ry="2.1210001"
   id="ellipse171"
   sodipodi:cx="215.41400"
   sodipodi:cy="170.97701"
   sodipodi:rx="4.5960002"
   sodipodi:ry="2.1210001" /><ellipse
   style="fill:#dedede;stroke:#000000;stroke-width:0.50000000;fill-opacity:1.0000000"
   cx="215.78799"
   cy="178.16400"
   rx="3.6770000"
   ry="1.6970000"
   id="ellipse173"
   sodipodi:cx="215.78799"
   sodipodi:cy="178.16400"
   sodipodi:rx="3.6770000"
   sodipodi:ry="1.6970000" /><line
   style="fill:#ffffff;stroke:#000000;stroke-width:0.50000000"
   x1="210.85201"
   y1="171.16400"
   x2="211.91400"
   y2="178.16400"
   id="line175" /><line
   style="fill:#ffffff;stroke:#000000;stroke-width:0.50000000"
   x1="220.00999"
   y1="170.97701"
   x2="219.46400"
   y2="178.16400"
   id="line177" /><rect
   x="212.28900"
   y="175.60201"
   style="fill:#dedede;fill-opacity:1.0000000"
   width="6.5000000"
   height="2.5000000"
   id="rect179" /><ellipse
   style="fill:#dedede;stroke:#000000;stroke-width:0.50000000;fill-opacity:1.0000000"
   cx="197.41600"
   cy="169.21700"
   rx="4.5960002"
   ry="2.1210001"
   id="ellipse183"
   sodipodi:cx="197.41600"
   sodipodi:cy="169.21700"
   sodipodi:rx="4.5960002"
   sodipodi:ry="2.1210001" /><ellipse
   style="fill:#dedede;stroke:#000000;stroke-width:0.50000000;fill-opacity:1.0000000"
   cx="197.78900"
   cy="176.40500"
   rx="3.6770000"
   ry="1.6970000"
   id="ellipse185"
   sodipodi:cx="197.78900"
   sodipodi:cy="176.40500"
   sodipodi:rx="3.6770000"
   sodipodi:ry="1.6970000" /><line
   style="fill:#ffffff;stroke:#000000;stroke-width:0.50000000"
   x1="192.85300"
   y1="169.40401"
   x2="193.91600"
   y2="176.40401"
   id="line187" /><line
   style="fill:#ffffff;stroke:#000000;stroke-width:0.50000000"
   x1="202.01199"
   y1="169.21700"
   x2="201.46600"
   y2="176.40401"
   id="line189" /><rect
   x="194.29100"
   y="173.84200"
   style="fill:#dedede;fill-opacity:1.0000000"
   width="6.5000000"
   height="2.5000000"
   id="rect191" /><ellipse
   style="fill:#dedede;stroke:#000000;stroke-width:0.50000000;fill-opacity:1.0000000"
   cx="222.91600"
   cy="182.21700"
   rx="4.5960002"
   ry="2.1210001"
   id="ellipse195"
   sodipodi:cx="222.91600"
   sodipodi:cy="182.21700"
   sodipodi:rx="4.5960002"
   sodipodi:ry="2.1210001" /><ellipse
   style="fill:#dedede;stroke:#000000;stroke-width:0.50000000;fill-opacity:1.0000000"
   cx="223.28900"
   cy="189.40500"
   rx="3.6770000"
   ry="1.6970000"
   id="ellipse197"
   sodipodi:cx="223.28900"
   sodipodi:cy="189.40500"
   sodipodi:rx="3.6770000"
   sodipodi:ry="1.6970000" /><line
   style="fill:#ffffff;stroke:#000000;stroke-width:0.50000000"
   x1="218.35300"
   y1="182.40401"
   x2="219.41600"
   y2="189.40401"
   id="line199" /><line
   style="fill:#ffffff;stroke:#000000;stroke-width:0.50000000"
   x1="227.51199"
   y1="182.21700"
   x2="226.96600"
   y2="189.40401"
   id="line201" /><rect
   x="219.79100"
   y="186.84200"
   style="fill:#dedede;fill-opacity:1.0000000"
   width="6.5000000"
   height="2.5000000"
   id="rect203" /><g
   id="g205"
   transform="translate(0.000000,24.00000)">
			<text
   id="text207"
   transform="translate(53.92430,25.60160)"><tspan
     id="tspan209"
     style="font-size:7.6500001px;font-family:Liberation Sans"
     y="0"
     x="0">Excuse me, ma'am, but it</tspan></text>

			<text
   id="text211"
   transform="translate(42.27250,36.60160)"><tspan
     id="tspan213"
     style="font-size:7.6500001px;font-family:Liberation Sans"
     y="0"
     x="0">appears that the money in your</tspan></text>

			<text
   id="text215"
   transform="translate(50.52880,47.60160)"><tspan
     id="tspan217"
     style="font-size:7.6500001px;font-family:Liberation Sans"
     y="0"
     x="0">purse would exactly cancel</tspan></text>

			<text
   id="text219"
   transform="translate(74.28320,58.60160)"><tspan
     id="tspan221"
     style="font-size:7.6500001px;font-family:Liberation Sans"
     y="0"
     x="0">out my bar tab.</tspan></text>

		</g><path
   id="path223"
   d="M 181.36700,61.671233 C 181.36700,45.906001 147.80900,33.124410 106.41400,33.124410 C 65.019000,33.124410 31.461000,45.905239 31.461000,61.671233 C 31.461000,77.437227 65.019000,90.218057 106.41400,90.218057 C 114.25800,90.218057 121.81700,89.757980 128.92300,88.906382 C 136.53300,97.291350 151.28900,99.662571 151.28900,99.662571 L 144.41200,86.275416 C 166.52200,81.310552 181.36700,72.153204 181.36700,61.671233 z "
   style="fill:none;stroke:#000000;stroke-width:0.43638167" />
<path
   style="fill:#dedede;fill-opacity:1.0000000;fill-rule:evenodd;stroke:none;stroke-width:0.25000000pt;stroke-linecap:butt;stroke-linejoin:miter;stroke-opacity:1.0000000"
   d="M 35.772840,72.059413 C 35.772840,72.059413 38.300459,76.131689 43.425910,78.483779 C 48.551361,80.835870 56.836337,83.644336 56.836337,83.644336 L 57.854406,82.591161 C 57.854406,82.591161 48.867314,79.396531 45.883318,77.886980 C 42.899323,76.377430 36.474956,70.760497 36.474956,70.760497 L 35.772840,72.059413 z "
   id="path1637" /><path
   style="fill:none;stroke:#000000;stroke-width:0.50000000"
   d="M 2.0823270,190.07849 C 1.7462193,188.54523 1.6515899,186.27919 1.6942193,184.62540 C 1.8238124,179.59787 2.6860000,174.02300 3.5740000,170.62600 C 4.4620000,167.22900 4.8280000,161.47000 5.0620000,157.53100 C 5.2970000,153.59200 5.2520000,146.66700 6.0840000,142.67200 C 6.9160000,138.67700 8.6160000,134.30000 10.782000,131.68800 C 12.948000,129.07500 14.844000,126.78900 16.934000,126.59400 C 19.025000,126.39800 25.717000,128.37200 27.126000,129.25700"
   id="path9"
   sodipodi:nodetypes="cssssssc" /><path
   style="fill:none;stroke:#000000;stroke-width:0.50000000"
   d="M 14.691210,190.39557 C 14.825629,189.07384 15.090933,186.93523 15.155444,185.95766 C 15.227825,184.86082 15.311000,183.38900 15.685000,180.94400 C 16.060000,178.49900 17.118000,167.25200 17.492000,164.80600 C 17.866000,162.36000 19.916000,145.59800 19.991000,143.18100"
   id="path11"
   sodipodi:nodetypes="csssc" /><path
   style="fill:none;stroke:#000000;stroke-width:0.50000000"
   d="M 21.620000,186.41500 C 21.901585,180.40270 21.128000,177.98872 17.799000,168.09200 C 16.747112,164.96486 18.196000,152.99000 21.342000,151.19000 C 24.488000,149.39000 36.380000,147.67600 42.167000,148.34000 C 47.954000,149.00500 47.683000,149.33100 49.773000,149.13600 C 51.863000,148.94100 56.914000,148.16800 60.582000,148.72900 C 64.250000,149.29000 66.480000,150.58800 67.871000,152.56700 C 69.261000,154.54600 70.098624,159.53009 69.716000,162.63900 C 69.160415,167.18397 65.848346,165.97339 66.185678,170.51773"
   id="path13"
   sodipodi:nodetypes="csssssssc" /><line
   style="fill:none;stroke:#000000;stroke-width:0.50000000"
   x1="66.874001"
   y1="145.12801"
   x2="66.125999"
   y2="150.01900"
   id="line15" /><path
   style="fill:none;stroke:#000000;stroke-width:0.50000000"
   d="M 76.177016,164.07714 C 76.284757,162.32765 76.086679,161.90759 76.267000,158.81651 C 76.459201,155.52181 76.332857,155.12600 76.318000,152.68100 C 76.302971,150.20761 76.265000,142.44200 75.771000,140.37900 C 75.277000,138.31700 76.436000,134.59200 73.823000,132.42600 C 71.210000,130.25900 70.259000,129.74600 67.514000,129.40000 C 64.769000,129.05400 62.110000,129.60400 60.317000,129.77100 C 58.525000,129.93800 55.128000,129.05100 54.690000,127.58500"
   id="path17"
   sodipodi:nodetypes="cssssssc" /><path
   style="fill:none;stroke:#000000;stroke-width:0.50000000"
   d="M 21.118000,127.17100 C 26.197000,126.71000 28.103000,125.12000 29.121000,121.44000 C 30.139000,117.76000 32.010000,114.97600 30.888000,106.30200 C 29.767000,97.628000 30.263000,94.244000 27.044000,89.172000"
   id="path19" /><path
   style="fill:none;stroke:#000000;stroke-width:0.50000000"
   d="M 25.993000,81.838000 C 29.812000,75.192000 33.475000,70.703000 39.279000,71.208000 C 45.082000,71.713000 49.060790,71.535874 53.137000,76.803000 C 55.296709,79.593695 56.843000,80.910000 57.538000,83.964000 C 58.233000,87.018000 58.899118,89.208100 58.179118,91.438100 C 57.679118,92.988100 57.521000,94.340000 56.764000,95.318000 C 56.072000,96.213000 55.958136,97.149373 56.213136,98.793373 C 56.442136,100.27537 56.841000,101.59800 57.580000,102.90300 C 58.319000,104.20800 58.407727,103.91859 58.327373,104.87010 C 58.327373,104.87010 57.749982,105.80886 57.241982,105.77286 C 56.733982,105.73686 57.102000,105.85900 56.680000,105.71200 C 56.258000,105.56400 54.905000,105.23300 54.905000,105.23300"
   id="path21"
   sodipodi:nodetypes="cssssssscssc" /><path
   style="fill:none;stroke:#000000;stroke-width:0.50000000"
   d="M 55.069000,111.43300 C 55.069000,111.43300 55.547000,112.88600 54.686000,114.40800 C 53.825000,115.93000 53.189000,116.63500 52.111000,116.55700 C 51.032000,116.47800 47.239000,115.86900 43.489000,113.51100"
   id="path23" /><path
   style="fill:none;stroke:#000000;stroke-width:0.50000000"
   d="M 48.944000,108.97000 C 50.171000,109.30900 52.694000,111.19600 55.112000,111.20400"
   id="path25" /><path
   style="fill:none;stroke:#000000;stroke-width:0.50000000"
   d="M 30.811000,107.38100 C 28.758000,109.23400 21.458000,110.95600 21.511000,106.78900 C 21.564000,102.62200 22.390000,100.43000 22.390000,100.43000 C 22.390000,100.43000 19.171000,95.358000 21.634000,93.618000 C 24.097000,91.878000 26.637000,89.059000 26.794000,86.902000"
   id="path27" /><path
   style="fill:none;stroke:#000000;stroke-width:0.50000000"
   d="M 25.358000,82.542000 C 23.496000,82.907000 21.930000,83.794000 21.399000,86.509000 C 20.868000,89.224000 18.318000,94.460000 20.067000,94.504000"
   id="path29" /><path
   style="fill:none;stroke:#000000;stroke-width:0.50000000"
   d="M 22.078000,84.056000 C 20.034000,83.491000 13.795000,90.128000 18.806000,93.495000"
   id="path31" /><path
   style="fill:none;stroke:#000000;stroke-width:0.50000000"
   d="M 15.987000,90.955000 C 16.195000,94.974000 17.143000,100.29900 20.606000,99.716000"
   id="path33" /><path
   style="fill:none;stroke:#000000;stroke-width:0.50000000"
   d="M 20.789000,100.64600 C 19.258000,102.20300 19.066000,103.69100 20.589000,104.55200"
   id="path35" /><path
   style="fill:none;stroke:#000000;stroke-width:0.50000000"
   d="M 20.432000,106.71000 C 18.709000,109.75500 20.971000,111.92100 22.902000,112.89600 C 24.833000,113.87100 26.443000,111.23500 26.896000,109.59900"
   id="path37" /><polyline
   style="fill:none;stroke:#000000;stroke-width:0.50000000"
   points="50.83,97.073 47.106,97.804 50.708,99.901 "
   id="polyline39" /><path
   style="fill:none;stroke:#000000;stroke-width:0.50000000"
   d="M 52.584000,96.143000 C 50.872000,95.785000 50.073000,92.569000 46.967000,94.600000"
   id="path41" /><path
   style="fill:none;stroke:#000000;stroke-width:0.50000000"
   d="M 51.814000,82.379000 C 51.814000,82.379000 48.969000,76.750000 48.003000,76.263000"
   id="path43" /><line
   style="fill:none;stroke:#000000;stroke-width:0.50000000"
   x1="48.282001"
   y1="81.622002"
   x2="44.202000"
   y2="78.071999"
   id="line45" /><path
   style="fill:none;stroke:#000000;stroke-width:0.50000000"
   d="M 53.711000,82.684000 C 53.346000,80.822000 51.493000,78.769000 51.493000,78.769000"
   id="path47" /><path
   style="fill:none;stroke:#000000;stroke-width:0.50000000"
   d="M 46.455000,82.657000 C 44.898000,81.126000 40.104000,79.359000 40.104000,79.359000"
   id="path49" /><path
   style="fill:none;stroke:#000000;stroke-width:0.50000000"
   d="M 42.105000,81.674000 C 38.460000,81.326000 35.894000,81.056000 35.894000,81.056000"
   id="path51" /><path
   style="fill:none;stroke:#000000;stroke-width:0.50000000"
   d="M 39.382000,83.562000 C 37.633000,83.519000 32.796000,83.500000 32.796000,83.500000"
   id="path53" /><path
   style="fill:none;stroke:#000000;stroke-width:0.50000000"
   d="M 37.329000,85.415000 C 35.728000,85.632000 32.674000,86.328000 32.674000,86.328000"
   id="path55" /><path
   style="fill:none;stroke:#000000;stroke-width:0.50000000"
   d="M 37.433000,87.424000 C 35.684000,87.381000 32.779000,88.338000 32.779000,88.338000"
   id="path57" /><path
   style="fill:none;stroke:#000000;stroke-width:0.50000000"
   d="M 37.389000,89.173000 C 36.197000,89.504000 31.430000,90.825000 32.587000,89.825000"
   id="path59" /><path
   style="fill:none;stroke:#000000;stroke-width:0.50000000"
   d="M 38.016000,90.887000 C 36.676000,90.956000 34.814000,91.322000 34.814000,91.322000"
   id="path61" /><path
   style="fill:none;stroke:#000000;stroke-width:0.50000000"
   d="M 35.927000,92.070000 C 34.178000,92.026000 32.099000,90.791000 32.099000,90.791000"
   id="path63" /><path
   style="fill:none;stroke:#000000;stroke-width:0.50000000"
   d="M 55.455000,109.14500 C 53.680000,108.66600 53.161000,109.33700 49.054000,108.75200"
   id="path65" /><path
   style="fill:none;stroke:#000000;stroke-width:0.50000000"
   d="M 55.347000,111.17000 C 55.953000,110.96300 55.753000,110.04100 55.753000,110.04100"
   id="path67" /><path
   style="fill:none;stroke:#000000;stroke-width:0.50000000"
   d="M 55.640000,109.02000 C 56.001000,109.47800 55.667000,110.02500 55.469000,110.05000"
   id="path69" /><path
   style="fill:none;stroke:#000000;stroke-width:0.50000000"
   d="M 56.680000,105.71200 C 55.888000,106.61900 56.724000,108.42800 55.895000,109.03800"
   id="path71" /><path
   style="fill:#dedede;stroke:#000000;stroke-width:0.50000000;fill-opacity:1.0000000"
   d="M 33.456000,96.228000 C 28.802000,97.141000 33.708000,98.499000 34.674000,98.986000 C 35.640000,99.473000 35.744000,101.48300 34.996000,102.59600 C 34.247000,103.70900 33.212000,101.88200 33.212000,101.88200 C 33.212000,101.88200 31.133000,100.64700 29.550000,96.027000 C 27.967000,91.407000 33.022000,93.026000 33.874000,93.922000"
   id="path73" /><circle
   style="fill:#dedede;stroke:#000000;stroke-width:0.50000000;fill-opacity:1.0000000"
   cx="34.258999"
   cy="101.43800"
   r="0.77800000"
   id="circle75"
   sodipodi:cx="34.258999"
   sodipodi:cy="101.43800"
   sodipodi:rx="0.77800000"
   sodipodi:ry="0.77800000" /><path
   style="fill:none;stroke:#000000;stroke-width:0.50000000"
   d="M 48.718000,116.37200 C 49.118000,120.37200 54.518000,128.77200 57.118000,129.57200"
   id="path77" /><path
   style="fill:none;stroke:#000000;stroke-width:0.50000000"
   d="M 50.601000,97.939000 C 50.314000,97.939000 50.082000,98.171000 50.082000,98.458000 C 50.082000,98.745000 50.314000,98.977000 50.601000,98.977000 C 50.629000,98.977000 50.655000,98.973000 50.682000,98.969000 C 50.733000,98.655000 50.768000,98.323000 50.783000,97.974000 C 50.726000,97.952000 50.665000,97.939000 50.601000,97.939000 z "
   id="path79" /></svg>