<?xml version="1.0" encoding="iso-8859-1"?>
<!-- Generator: Adobe Illustrator 11 Build 196, SVG Export Plug-In . SVG Version: 6.0.0 Build 78)  -->
<!DOCTYPE svg PUBLIC "-//W3C//DTD SVG 1.0//EN"    "http://www.w3.org/TR/2001/REC-SVG-20010904/DTD/svg10.dtd" [
	<!ENTITY ns_flows "http://ns.adobe.com/Flows/1.0/">
	<!ENTITY ns_svg "http://www.w3.org/2000/svg">
	<!ENTITY ns_xlink "http://www.w3.org/1999/xlink">
]>
<svg  
	 width="147.412" height="115.132" viewBox="0 0 147.412 115.132"
	 style="overflow:visible;enable-background:new 0 0 147.412 115.132" xml:space="preserve">
	<style type="text/css">
	
	</style>
	<g id="Layer_1">
		<g>
			<g>
				<rect x="1.118" style="fill:#D6D6D6;" width="12.953" height="14.248"/> 
				<line style="fill:none;stroke:#7F7F7F;" x1="14.435" y1="0.07" x2="14.435" y2="14.178"/>
			</g>
			<g>
				<path style="fill:none;stroke:#000000;stroke-width:0.5;stroke-miterlimit:1;" d="M15.612,9.787
					c-3.996,0-3.07-5.326-0.903-5.326s3.477,5.326-0.632,5.326h-1.648"/>
				<path style="fill:none;stroke:#000000;stroke-width:0.5;stroke-miterlimit:1;" d="M15.613,9.787
					c4.108,0,2.799-5.326,0.632-5.326s-3.092,5.326,0.903,5.326"/>
				<path style="fill:none;stroke:#000000;stroke-width:0.5;stroke-miterlimit:1;" d="M17.149,9.787
					c4.108,0,2.799-5.326,0.632-5.326s-3.092,5.326,0.903,5.326"/>
				<path style="fill:none;stroke:#000000;stroke-width:0.5;stroke-miterlimit:1;" d="M18.685,9.787
					c4.108,0,2.799-5.326,0.632-5.326s-3.092,5.326,0.903,5.326"/>
				<path style="fill:none;stroke:#000000;stroke-width:0.5;stroke-miterlimit:1;" d="M20.22,9.787c4.108,0,2.799-5.326,0.632-5.326
					s-3.093,5.326,0.903,5.326"/>
				<path style="fill:none;stroke:#000000;stroke-width:0.5;stroke-miterlimit:1;" d="M21.755,9.787
					c4.109,0,2.799-5.326,0.632-5.326s-3.093,5.326,0.903,5.326"/>
				<path style="fill:none;stroke:#000000;stroke-width:0.5;stroke-miterlimit:1;" d="M23.291,9.787
					c4.108,0,2.799-5.326,0.632-5.326s-3.093,5.326,0.903,5.326"/>
				<path style="fill:none;stroke:#000000;stroke-width:0.5;stroke-miterlimit:1;" d="M24.827,9.787
					c4.108,0,2.799-5.326,0.632-5.326s-3.093,5.326,0.903,5.326"/>
				<path style="fill:none;stroke:#000000;stroke-width:0.5;stroke-miterlimit:1;" d="M26.362,9.787
					c4.109,0,2.799-5.326,0.632-5.326s-3.093,5.326,0.903,5.326"/>
				<path style="fill:none;stroke:#000000;stroke-width:0.5;stroke-miterlimit:1;" d="M27.898,9.787
					c4.108,0,2.799-5.326,0.632-5.326s-3.093,5.326,0.903,5.326"/>
				<path style="fill:none;stroke:#000000;stroke-width:0.5;stroke-miterlimit:1;" d="M29.434,9.787
					c4.108,0,2.799-5.326,0.632-5.326s-3.093,5.326,0.903,5.326"/>
				<path style="fill:none;stroke:#000000;stroke-width:0.5;stroke-miterlimit:1;" d="M30.969,9.787
					c4.108,0,2.799-5.326,0.632-5.326s-3.093,5.326,0.903,5.326"/>
				<path style="fill:none;stroke:#000000;stroke-width:0.5;stroke-miterlimit:1;" d="M32.505,9.787
					c4.108,0,2.799-5.326,0.632-5.326s-3.093,5.326,0.903,5.326"/>
				<path style="fill:none;stroke:#000000;stroke-width:0.5;stroke-miterlimit:1;" d="M34.041,9.787
					c4.108,0,2.799-5.326,0.632-5.326s-3.093,5.326,0.903,5.326"/>
				<path style="fill:none;stroke:#000000;stroke-width:0.5;stroke-miterlimit:1;" d="M35.576,9.787
					c4.108,0,2.799-5.326,0.632-5.326s-3.093,5.326,0.903,5.326"/>
				<path style="fill:none;stroke:#000000;stroke-width:0.5;stroke-miterlimit:1;" d="M37.112,9.787
					c4.108,0,2.799-5.326,0.632-5.326c-2.167,0-3.093,5.326,0.903,5.326"/>
				<path style="fill:none;stroke:#000000;stroke-width:0.5;stroke-miterlimit:1;" d="M38.647,9.787
					c4.108,0,2.799-5.326,0.632-5.326s-3.093,5.326,0.903,5.326"/>
				<path style="fill:none;stroke:#000000;stroke-width:0.5;stroke-miterlimit:1;" d="M40.183,9.787
					c4.108,0,2.799-5.326,0.632-5.326c-2.167,0-3.092,5.326,0.903,5.326"/>
			</g>
			<g>
				<g>
					<path style="fill:none;stroke:#000000;stroke-width:0.5;stroke-miterlimit:1;" d="M19.56,108.012
						c-5.675,0-5.027-5.327-1.949-5.327c3.078,0,4.149,5.327-1.687,5.327H14.42"/>
					<path style="fill:none;stroke:#000000;stroke-width:0.5;stroke-miterlimit:1;" d="M19.56,108.012
						c5.836,0,4.765-5.327,1.687-5.327s-3.727,5.327,1.949,5.327"/>
					<path style="fill:none;stroke:#000000;stroke-width:0.5;stroke-miterlimit:1;" d="M23.195,108.012
						c5.835,0,4.765-5.327,1.687-5.327s-3.727,5.327,1.949,5.327"/>
					<path style="fill:none;stroke:#000000;stroke-width:0.5;stroke-miterlimit:1;" d="M26.831,108.012
						c5.836,0,4.765-5.327,1.687-5.327c-3.079,0-3.727,5.327,1.949,5.327"/>
					<path style="fill:none;stroke:#000000;stroke-width:0.5;stroke-miterlimit:1;" d="M30.466,108.012
						c5.835,0,4.765-5.327,1.687-5.327s-3.727,5.327,1.949,5.327"/>
					<path style="fill:none;stroke:#000000;stroke-width:0.5;stroke-miterlimit:1;" d="M34.102,108.012
						c5.835,0,4.765-5.327,1.687-5.327c-3.078,0-3.726,5.327,1.949,5.327"/>
					<path style="fill:none;stroke:#000000;stroke-width:0.5;stroke-miterlimit:1;" d="M37.737,108.012
						c5.836,0,4.765-5.327,1.687-5.327s-3.727,5.327,1.949,5.327"/>
					<path style="fill:none;stroke:#000000;stroke-width:0.5;stroke-miterlimit:1;" d="M41.373,108.012
						c5.835,0,4.765-5.327,1.687-5.327s-3.727,5.327,1.949,5.327"/>
					<path style="fill:none;stroke:#000000;stroke-width:0.5;stroke-miterlimit:1;" d="M45.008,108.012
						c5.835,0,4.765-5.327,1.687-5.327c-3.079,0-3.727,5.327,1.949,5.327"/>
					<path style="fill:none;stroke:#000000;stroke-width:0.5;stroke-miterlimit:1;" d="M48.643,108.012
						c5.836,0,4.765-5.327,1.687-5.327s-3.727,5.327,1.949,5.327"/>
					<path style="fill:none;stroke:#000000;stroke-width:0.5;stroke-miterlimit:1;" d="M52.279,108.012
						c5.835,0,4.765-5.327,1.687-5.327s-3.727,5.327,1.949,5.327"/>
					<path style="fill:none;stroke:#000000;stroke-width:0.5;stroke-miterlimit:1;" d="M55.914,108.012
						c5.836,0,4.765-5.327,1.687-5.327c-3.079,0-3.727,5.327,1.949,5.327"/>
					<path style="fill:none;stroke:#000000;stroke-width:0.5;stroke-miterlimit:1;" d="M59.549,108.012
						c5.836,0,4.765-5.327,1.687-5.327s-3.727,5.327,1.949,5.327"/>
					<path style="fill:none;stroke:#000000;stroke-width:0.5;stroke-miterlimit:1;" d="M63.185,108.012
						c5.835,0,4.765-5.327,1.687-5.327s-3.727,5.327,1.949,5.327"/>
					<path style="fill:none;stroke:#000000;stroke-width:0.5;stroke-miterlimit:1;" d="M66.82,108.012
						c5.836,0,4.765-5.327,1.687-5.327s-3.727,5.327,1.949,5.327"/>
					<path style="fill:none;stroke:#000000;stroke-width:0.5;stroke-miterlimit:1;" d="M70.456,108.012
						c5.836,0,4.765-5.327,1.687-5.327s-3.727,5.327,1.949,5.327"/>
					<path style="fill:none;stroke:#000000;stroke-width:0.5;stroke-miterlimit:1;" d="M74.091,108.012
						c5.835,0,4.765-5.327,1.687-5.327s-3.727,5.327,1.949,5.327"/>
					<path style="fill:none;stroke:#000000;stroke-width:0.5;stroke-miterlimit:1;" d="M77.727,108.012
						c5.836,0,4.765-5.327,1.687-5.327s-3.727,5.327,1.949,5.327"/>
				</g>
				<g>
					<rect x="1.118" y="98.224" style="fill:#D6D6D6;" width="12.953" height="14.249"/> 
					<line style="fill:none;stroke:#7F7F7F;" x1="14.435" y1="112.402" x2="14.435" y2="98.294"/>
				</g>
			</g>
			<g>
				<g>
					<text transform="matrix(1 0 0 1 31.3921 76.5137)"><tspan x="0" y="0" style="font-family:Liberation Sans; font-size:7.650000;">x</tspan></text>
				</g>
				<g>
					<text transform="matrix(1 0 0 1 35.8921 79.5137)"><tspan x="0" y="0" style="font-family:Liberation Sans; font-size:5.950000;">o</tspan></text>
				</g>
			</g>
			<g>
				<path style="fill:none;stroke:#000000;stroke-width:0.5;stroke-miterlimit:1;" d="M18.256,57.514
					c-4.597,0-3.775-5.326-1.282-5.326c2.494,0,3.655,5.326-1.072,5.326h-1.396"/>
				<path style="fill:none;stroke:#000000;stroke-width:0.5;stroke-miterlimit:1;" d="M18.258,57.514
					c4.727,0,3.565-5.326,1.072-5.326s-3.315,5.326,1.282,5.326"/>
				<path style="fill:none;stroke:#000000;stroke-width:0.5;stroke-miterlimit:1;" d="M20.613,57.514
					c4.727,0,3.565-5.326,1.072-5.326c-2.493,0-3.314,5.326,1.282,5.326"/>
				<path style="fill:none;stroke:#000000;stroke-width:0.5;stroke-miterlimit:1;" d="M22.969,57.514
					c4.727,0,3.565-5.326,1.072-5.326s-3.315,5.326,1.282,5.326"/>
				<path style="fill:none;stroke:#000000;stroke-width:0.5;stroke-miterlimit:1;" d="M25.325,57.514
					c4.727,0,3.565-5.326,1.072-5.326c-2.493,0-3.315,5.326,1.282,5.326"/>
				<path style="fill:none;stroke:#000000;stroke-width:0.5;stroke-miterlimit:1;" d="M27.681,57.514
					c4.727,0,3.565-5.326,1.072-5.326s-3.315,5.326,1.282,5.326"/>
				<path style="fill:none;stroke:#000000;stroke-width:0.5;stroke-miterlimit:1;" d="M30.037,57.514
					c4.727,0,3.565-5.326,1.072-5.326c-2.494,0-3.315,5.326,1.282,5.326"/>
				<path style="fill:none;stroke:#000000;stroke-width:0.5;stroke-miterlimit:1;" d="M32.392,57.514
					c4.727,0,3.565-5.326,1.072-5.326s-3.315,5.326,1.282,5.326"/>
				<path style="fill:none;stroke:#000000;stroke-width:0.5;stroke-miterlimit:1;" d="M34.748,57.514
					c4.727,0,3.565-5.326,1.072-5.326c-2.494,0-3.315,5.326,1.282,5.326"/>
				<path style="fill:none;stroke:#000000;stroke-width:0.5;stroke-miterlimit:1;" d="M37.104,57.514
					c4.727,0,3.565-5.326,1.072-5.326s-3.315,5.326,1.282,5.326"/>
				<path style="fill:none;stroke:#000000;stroke-width:0.5;stroke-miterlimit:1;" d="M39.459,57.514
					c4.727,0,3.565-5.326,1.072-5.326c-2.494,0-3.315,5.326,1.282,5.326"/>
				<path style="fill:none;stroke:#000000;stroke-width:0.5;stroke-miterlimit:1;" d="M41.815,57.514
					c4.727,0,3.565-5.326,1.072-5.326s-3.315,5.326,1.282,5.326"/>
				<path style="fill:none;stroke:#000000;stroke-width:0.5;stroke-miterlimit:1;" d="M44.171,57.514
					c4.727,0,3.565-5.326,1.072-5.326s-3.315,5.326,1.282,5.326"/>
				<path style="fill:none;stroke:#000000;stroke-width:0.5;stroke-miterlimit:1;" d="M46.526,57.514
					c4.727,0,3.565-5.326,1.072-5.326c-2.493,0-3.315,5.326,1.282,5.326"/>
				<path style="fill:none;stroke:#000000;stroke-width:0.5;stroke-miterlimit:1;" d="M48.882,57.514
					c4.727,0,3.565-5.326,1.072-5.326c-2.494,0-3.315,5.326,1.282,5.326"/>
				<path style="fill:none;stroke:#000000;stroke-width:0.5;stroke-miterlimit:1;" d="M51.238,57.514
					c4.727,0,3.565-5.326,1.072-5.326c-2.493,0-3.315,5.326,1.282,5.326"/>
				<path style="fill:none;stroke:#000000;stroke-width:0.5;stroke-miterlimit:1;" d="M53.594,57.514
					c4.727,0,3.565-5.326,1.072-5.326s-3.315,5.326,1.282,5.326"/>
				<path style="fill:none;stroke:#000000;stroke-width:0.5;stroke-miterlimit:1;" d="M55.949,57.514
					c4.727,0,3.565-5.326,1.072-5.326c-2.493,0-3.315,5.326,1.282,5.326"/>
			</g>
			<g>
				<rect x="0.948" y="47.726" style="fill:#D6D6D6;" width="12.953" height="14.249"/> 
				<line style="fill:none;stroke:#7F7F7F;" x1="14.264" y1="47.797" x2="14.264" y2="61.904"/>
			</g>
			<g>
				<path style="fill:#D6D6D6;stroke:#000000;" d="M63.392,13.014c1.325,0,2.4-1.075,2.4-2.4v-7.7c0-1.325-1.075-2.4-2.4-2.4h-19.5
					c-1.325,0-2.4,1.075-2.4,2.4v7.7c0,1.325,1.075,2.4,2.4,2.4H63.392z"/>
				<circle style="fill:#D6D6D6;stroke:#000000;" cx="45.917" cy="14.276" r="2.475"/> 
				<circle style="fill:#D6D6D6;stroke:#000000;" cx="62.392" cy="14.276" r="2.475"/> 
			</g>
			<g>
				<path style="fill:#D6D6D6;stroke:#000000;" d="M102.892,110.895c1.325,0,2.4-1.074,2.4-2.399v-7.7c0-1.325-1.075-2.4-2.4-2.4
					h-19.5c-1.325,0-2.4,1.075-2.4,2.4v7.7c0,1.325,1.075,2.399,2.4,2.399H102.892z"/>
				<circle style="fill:#D6D6D6;stroke:#000000;" cx="85.417" cy="112.157" r="2.475"/> 
				<circle style="fill:#D6D6D6;stroke:#000000;" cx="101.892" cy="112.157" r="2.475"/> 
			</g>
			<g>
				<path style="fill:#D6D6D6;stroke:#000000;" d="M80.642,61.764c1.325,0,2.4-1.075,2.4-2.4v-7.7c0-1.325-1.075-2.4-2.4-2.4h-19.5
					c-1.325,0-2.4,1.075-2.4,2.4v7.7c0,1.325,1.075,2.4,2.4,2.4H80.642z"/>
				<circle style="fill:#D6D6D6;stroke:#000000;" cx="63.167" cy="63.026" r="2.475"/> 
				<circle style="fill:#D6D6D6;stroke:#000000;" cx="79.642" cy="63.026" r="2.475"/> 
			</g>
			<g>
				<line style="fill:none;stroke:#000000;" x1="14.892" y1="67.514" x2="52.392" y2="67.514"/>
				<path d="M55.41,67.514c-1.42,0.527-3.182,1.426-4.273,2.377l0.86-2.377l-0.86-2.377C52.228,66.088,53.99,66.987,55.41,67.514z"
					/>
				<path d="M11.875,67.514c1.42-0.527,3.182-1.426,4.273-2.377l-0.86,2.377l0.86,2.377C15.056,68.939,13.294,68.04,11.875,67.514z"
					/>
			</g>
			<g>
				<g>
					<text transform="matrix(1 0 0 1 91.8921 52.5137)"><tspan x="0" y="0" style="font-family:Liberation Sans; font-size:7.650000;">equilibrium</tspan></text>
				</g>
				<g>
					<text transform="matrix(1 0 0 1 91.8921 63.5137)"><tspan x="0" y="0" style="font-family:Liberation Sans; font-size:7.650000;">position</tspan></text>
				</g>
			</g>
			<g>
				<g>
					<text transform="matrix(1 0 0 1 72.3921 9.5137)"><tspan x="0" y="0" style="font-family:Liberation Sans; font-size:7.650000;">compressed</tspan></text>
				</g>
			</g>
			<g>
				<g>
					<text transform="matrix(1 0 0 1 110.3921 107.0137)"><tspan x="0" y="0" style="font-family:Liberation Sans; font-size:7.650000;">stretched</tspan></text>
				</g>
			</g>
		</g>
		<rect y="87.201" style="fill:none;" width="147.401" height="2.835"/> 
	</g>
</svg>
