<?xml version="1.0" encoding="iso-8859-1"?>
<!-- Generator: Adobe Illustrator 11 Build 196, SVG Export Plug-In . SVG Version: 6.0.0 Build 78)  -->
<!DOCTYPE svg PUBLIC "-//W3C//DTD SVG 1.0//EN"    "http://www.w3.org/TR/2001/REC-SVG-20010904/DTD/svg10.dtd" [
	<!ENTITY ns_flows "http://ns.adobe.com/Flows/1.0/">
	<!ENTITY ns_svg "http://www.w3.org/2000/svg">
	<!ENTITY ns_xlink "http://www.w3.org/1999/xlink">
]>
<svg  
	 width="320.315" height="168.838" viewBox="0 0 320.315 168.838"
	 style="overflow:visible;enable-background:new 0 0 320.315 168.838" xml:space="preserve">
	<style type="text/css">
	
	</style>
	<g id="Layer_1">
		<g>
			<polygon style="fill:none;stroke:#000000;" points="111.156,59.906 111.156,66.906 57.156,66.906 57.156,59.906 50.656,59.906 
				50.656,149.906 57.156,149.906 57.156,142.844 111.156,142.844 111.156,149.906 117.656,149.906 117.656,59.906 "/>
			<rect x="92.125" y="75.125" style="fill:#DCDCDC;stroke:#000000;" width="12.25" height="57"/> 
			<line style="fill:none;stroke:#000000;" x1="104.375" y1="67.375" x2="104.375" y2="142.875"/>
			<line style="fill:none;stroke:#000000;stroke-width:1.5;" x1="83.875" y1="89.125" x2="83.875" y2="118.875"/>
			<line style="fill:none;stroke:#000000;" x1="65.875" y1="142.875" x2="65.875" y2="66.875"/>
			<rect x="60.375" y="102.125" style="fill:#FFFFFF;stroke:#000000;" width="23.5" height="3.5"/> 
			<line style="fill:#FFFFFF;stroke:#000000;" x1="97.375" y1="66.875" x2="97.375" y2="25.125"/>
			<line style="fill:#FFFFFF;stroke:#000000;" x1="87.406" y1="66.875" x2="87.406" y2="25.125"/>
			<line style="fill:#FFFFFF;stroke:#000000;" x1="87.375" y1="62.5" x2="56.875" y2="62.5"/>
			<line style="fill:#FFFFFF;stroke:#000000;" x1="97.875" y1="62.5" x2="110.625" y2="62.5"/>
			<line style="fill:#DCDCDC;stroke:#000000;" x1="57.125" y1="147.625" x2="111.125" y2="147.625"/>
			<line style="fill:none;stroke:#000000;stroke-width:0.5;" x1="82.625" y1="121.125" x2="72.375" y2="153.875"/>
			<line style="fill:none;stroke:#000000;stroke-width:0.5;" x1="102.875" y1="151.875" x2="98.583" y2="127.969"/>
			<g>
				<g>
					<g>
						<text transform="matrix(1 0 0 1 48.625 164.375)"><tspan x="0" y="0" style="font-family:Liberation Sans; font-size:8.500000;">polonium</tspan></text>
					</g>
				</g>
			</g>
			<g>
				<g>
					<g>
						<text transform="matrix(1 0 0 1 101.125 162.375)"><tspan x="0" y="0" style="font-family:Liberation Sans; font-size:8.500000;">beryllium</tspan></text>
					</g>
				</g>
			</g>
			<g>
				<g>
					<g>
						<text transform="matrix(1 0 0 1 77.75 10)"><tspan x="0" y="0" style="font-family:Liberation Sans; font-size:8.500000;">to vacuum</tspan></text>
					</g>
				</g>
				<g>
					<g>
						<text transform="matrix(1 0 0 1 77.75 22)"><tspan x="0" y="0" style="font-family:Liberation Sans; font-size:8.500000;">pump</tspan></text>
					</g>
				</g>
			</g>
			<line style="fill:none;stroke:#000000;" x1="162.25" y1="127.75" x2="162.25" y2="92.714"/>
			<line style="fill:none;stroke:#000000;stroke-width:2;" x1="199.75" y1="126.25" x2="199.75" y2="96.25"/>
			<line style="fill:none;stroke:#000000;stroke-width:0.5;" x1="199" y1="110.5" x2="251.875" y2="110.5"/>
			<rect x="206.412" y="73" style="fill:none;stroke:#000000;" width="10.302" height="31.875"/> 
			<rect x="206.412" y="116.688" style="fill:none;stroke:#000000;" width="10.302" height="31.875"/> 
			<polygon style="fill:#DCDCDC;stroke:#000000;" points="204.625,82.281 204.625,84.906 207.25,88.281 213.25,88.281 
				213.25,79.281 207.25,79.281 "/>
			<polygon style="fill:#FFFFFF;stroke:#000000;" points="209.125,82.589 165.25,82.589 162.25,82.589 162.25,85.161 162.25,92.714 
				165.25,92.714 165.25,85.161 209.125,85.161 "/>
			<polygon style="fill:#DCDCDC;stroke:#000000;" points="204.625,138.089 204.625,135.464 207.25,132.089 213.25,132.089 
				213.25,141.089 207.25,141.089 "/>
			<polygon style="fill:#FFFFFF;stroke:#000000;" points="209.125,137.875 165.25,137.875 162.25,137.875 162.25,135.304 
				162.25,127.75 165.25,127.75 165.25,135.304 209.125,135.304 "/>
			<rect x="206.412" y="101.875" style="fill:#DCDCDC;stroke:#000000;" width="24" height="6.375"/> 
			<rect x="206.412" y="112.938" style="fill:#DCDCDC;stroke:#000000;" width="24" height="6.375"/> 
			<rect x="88.188" y="62.875" style="fill:#FFFFFF;" width="8.438" height="6.281"/> 
		</g>
		<rect y="45.407" style="fill:none;" width="320.315" height="2.834"/> 
	</g>
</svg>
