<?xml version="1.0" encoding="UTF-8" standalone="no"?>
<!-- Created with Inkscape (http://www.inkscape.org/) -->

<svg
   xmlns:dc="http://purl.org/dc/elements/1.1/"
   xmlns:cc="http://creativecommons.org/ns#"
   xmlns:rdf="http://www.w3.org/1999/02/22-rdf-syntax-ns#"
   xmlns:svg="http://www.w3.org/2000/svg"
   xmlns="http://www.w3.org/2000/svg"
   xmlns:sodipodi="http://sodipodi.sourceforge.net/DTD/sodipodi-0.dtd"
   xmlns:inkscape="http://www.inkscape.org/namespaces/inkscape"
   sodipodi:docname="cm-examples.svg"
   sodipodi:version="0.32"
   id="svg2"
   height="297mm"
   width="210mm"
   version="1.1"
   inkscape:export-filename="/home/bcrowell/Documents/writing/books/physics/share/mechanics/figs/cm-examples.png"
   inkscape:export-xdpi="300.09366"
   inkscape:export-ydpi="300.09366">
  <defs
     id="defs3" />
  <sodipodi:namedview
     inkscape:window-y="0"
     inkscape:window-x="0"
     inkscape:window-height="996"
     inkscape:window-width="1278"
     inkscape:current-layer="layer1"
     inkscape:document-units="mm"
     inkscape:cy="671.87269"
     inkscape:cx="242.01875"
     inkscape:zoom="1.4939973"
     inkscape:pageshadow="2"
     inkscape:pageopacity="0.0"
     borderopacity="1.0"
     bordercolor="#666666"
     pagecolor="#ffffff"
     id="base"
     showgrid="false"
     inkscape:window-maximized="0" />
  <metadata
     id="metadata4">
    <rdf:RDF>
      <cc:Work
         rdf:about="">
        <dc:format>image/svg+xml</dc:format>
        <dc:type
           rdf:resource="http://purl.org/dc/dcmitype/StillImage" />
        <dc:title />
      </cc:Work>
    </rdf:RDF>
  </metadata>
  <g
     id="layer1"
     inkscape:groupmode="layer"
     inkscape:label="Layer 1">
    <rect
       y="253.69882"
       x="337.70291"
       height="118.46302"
       width="96.187920"
       id="rect6825"
       style="fill:#e0e0e0;fill-opacity:1.0000000;fill-rule:evenodd;stroke:none;stroke-width:1.0000000pt;stroke-linecap:butt;stroke-linejoin:miter;stroke-opacity:1.0000000" />
    <path
       id="path2125"
       d="m 383.60081,261.94564 -1.46414,0.17338 -2.77415,0.96325 -1.38708,1.38708 -0.57795,1.0403 c -0.3856,0.97285 -0.64198,1.76746 -0.92471,2.73563 l -0.13486,1.67605 -0.0963,2.06135 -0.52016,1.38707 -0.0193,-0.0193 -0.13486,0.30824 -1.31001,-0.17339 -0.0771,0.0771 -2.60077,0.84766 -4.87403,3.44843 -4.00711,4.31535 -5.16301,7.16656 -4.31535,6.02993 c 0,0 1.15442,-1.4394 -4.58506,4.87403 -5.73947,6.31343 -3.15945,8.61144 -3.15945,8.61143 l 1.13663,4.02638 2.02282,7.74451 2.87048,7.45553 2.29253,6.3189 0,6.02993 1.13663,5.72169 2.60077,4.8933 3.14019,4.87403 0,3.44843 0.57795,3.15945 1.0981,1.0981 4.58506,-0.17338 7.72524,0.46236 2.09988,-0.21192 0,-0.0385 0.32751,0 1.63752,-0.17338 -0.25045,-0.96325 0.28898,-0.57795 -0.28898,-0.86692 0.86692,-0.57795 -0.86692,-0.84766 -3.15945,-1.15589 -5.74096,-2.58151 -1.13663,-1.15589 -2.87048,-6.01067 -1.44487,-7.4748 -1.71458,-4.58506 -0.28897,-5.163 -0.57795,-4.60433 0.11559,-0.38529 -0.0578,-0.0193 0.42382,-2.31179 0.28898,-2.3118 c 0,0 0,-4.74991 0,-5.18227 0,-0.43236 -0.13485,-2.60077 -0.13486,-2.60077 l -0.57794,-5.47124 0.59721,-1.31002 -0.0771,-0.7706 1.71458,-3.44842 2.87048,-4.00711 3.44842,-2.3118 3.7374,-5.163 2.58151,-2.29253 1.4256,-3.7374 3.15945,-3.71814 2.29253,0.28898 8.61144,0.55868 6.60787,0.86692 8.03349,-0.28897 7.45553,-0.28898 2.50445,1.05958 5.24006,-0.7706 4.5658,-0.90546 0.3275,-0.80912 -4.60432,-0.28898 -4.58506,-0.57795 -4.02637,-0.86692 -3.42917,-0.55868 -5.18227,-1.1559 -3.71813,-0.86692 -2.29253,0 -4.02638,0.57795 -6.3189,-1.42561 0.28897,-0.86692 1.44488,-0.28898 0.28897,-0.57795 -0.28897,-1.71458 c 0,0 0.84766,-2.29125 0.84765,-4.87403 0,-2.58277 -2.57022,-4.59107 -3.71813,-5.45198 -0.10304,-0.0773 -0.33528,-0.13644 -0.48163,-0.21191 l -0.94398,-0.23118 -2.35032,-0.26971 z"
       style="fill:#000000;fill-opacity:1;fill-rule:evenodd;stroke:none;stroke-width:1;stroke-linecap:butt;stroke-linejoin:miter;stroke-opacity:1;stroke-miterlimit:4;stroke-dasharray:none"
       inkscape:connector-curvature="0" />
    <rect
       y="253.69882"
       x="33.497299"
       height="118.46302"
       width="63.787781"
       id="rect6817"
       style="fill:#e0e0e0;fill-opacity:1.0000000;fill-rule:evenodd;stroke:none;stroke-width:1.0000000pt;stroke-linecap:butt;stroke-linejoin:miter;stroke-opacity:1.0000000" />
    <g
       transform="matrix(1.027464,0.000000,0.000000,1.027464,-19.69554,-23.13107)"
       id="g6007">
      <g
         style="fill:#000000;fill-opacity:1.0000000;stroke:none;stroke-opacity:1.0000000"
         transform="translate(-0.315086,9.383270)"
         id="g4425">
        <rect
           y="287.36496"
           x="71.894012"
           height="22.466879"
           width="22.466879"
           id="rect4417"
           style="fill-rule:evenodd;stroke-width:1.0000000pt;stroke-linecap:butt;stroke-linejoin:miter" />
        <rect
           y="325.55865"
           x="71.894012"
           height="22.466879"
           width="22.466879"
           id="rect4419"
           style="fill-rule:evenodd;stroke-width:1.0000000pt;stroke-linecap:butt;stroke-linejoin:miter" />
      </g>
      <rect
         y="311.57166"
         x="71.578926"
         height="29.453531"
         width="2.7398634"
         id="rect4445"
         style="fill:#000000;fill-opacity:1.0000000;fill-rule:evenodd;stroke:none;stroke-width:1.0000000pt;stroke-linecap:butt;stroke-linejoin:miter;stroke-opacity:1.0000000" />
      <rect
         y="313.96902"
         x="91.305939"
         height="29.453531"
         width="2.7398634"
         id="rect4447"
         style="fill:#000000;fill-opacity:1.0000000;fill-rule:evenodd;stroke:none;stroke-width:1.0000000pt;stroke-linecap:butt;stroke-linejoin:miter;stroke-opacity:1.0000000" />
    </g>
    <rect
       y="253.69882"
       x="109.74198"
       height="118.46302"
       width="63.787781"
       id="rect6819"
       style="fill:#e0e0e0;fill-opacity:1.0000000;fill-rule:evenodd;stroke:none;stroke-width:1.0000000pt;stroke-linecap:butt;stroke-linejoin:miter;stroke-opacity:1.0000000" />
    <path
       id="rect5999"
       d="M 130.09295,266.06834 L 130.09295,283.75998 L 130.09295,289.15417 L 130.09295,340.94478 L 130.09295,359.79232 L 153.17879,359.79232 L 153.17879,336.70649 L 153.17879,289.15417 L 153.17879,283.75998 L 153.17879,266.06834 L 130.09295,266.06834 z M 132.91848,289.15417 L 150.38537,289.15417 L 150.38537,336.70649 L 132.91848,336.70649 L 132.91848,289.15417 z "
       style="fill:#000000;fill-opacity:1.0000000;fill-rule:evenodd;stroke:none;stroke-width:1.0000000pt;stroke-linecap:butt;stroke-linejoin:miter;stroke-opacity:1.0000000" />
    <rect
       y="253.69882"
       x="185.98668"
       height="118.46302"
       width="63.787781"
       id="rect6821"
       style="fill:#e0e0e0;fill-opacity:1.0000000;fill-rule:evenodd;stroke:none;stroke-width:1.0000000pt;stroke-linecap:butt;stroke-linejoin:miter;stroke-opacity:1.0000000" />
    <g
       transform="matrix(1.027464,0.000000,0.000000,1.027464,-20.63284,-126.8221)"
       id="g6038">
      <g
         style="fill:#000000;fill-opacity:1.0000000;stroke:none;stroke-opacity:1.0000000"
         transform="translate(139.1694,110.3026)"
         id="g6019">
        <rect
           y="287.36496"
           x="71.894012"
           height="22.466879"
           width="22.466879"
           id="rect6021"
           style="fill-rule:evenodd;stroke-width:1.0000000pt;stroke-linecap:butt;stroke-linejoin:miter" />
        <rect
           y="325.55865"
           x="71.894012"
           height="22.466879"
           width="22.466879"
           id="rect6023"
           style="fill-rule:evenodd;stroke-width:1.0000000pt;stroke-linecap:butt;stroke-linejoin:miter" />
      </g>
      <rect
         y="411.69315"
         x="211.06343"
         height="29.453531"
         width="2.7398634"
         id="rect6025"
         style="fill:#000000;fill-opacity:1.0000000;fill-rule:evenodd;stroke:none;stroke-width:1.0000000pt;stroke-linecap:butt;stroke-linejoin:miter;stroke-opacity:1.0000000" />
      <rect
         y="414.09052"
         x="230.79044"
         height="29.453531"
         width="2.7398634"
         id="rect6027"
         style="fill:#000000;fill-opacity:1.0000000;fill-rule:evenodd;stroke:none;stroke-width:1.0000000pt;stroke-linecap:butt;stroke-linejoin:miter;stroke-opacity:1.0000000" />
      <path
         id="path6029"
         d="M 230.74377,382.38852 L 230.74377,399.60727 L 230.74377,404.85727 L 230.74377,455.26352 L 230.74377,473.60727 L 253.21252,473.60727 L 253.21252,451.13852 L 253.21252,404.85727 L 253.21252,399.60727 L 253.21252,382.38852 L 230.74377,382.38852 z M 233.49377,404.85727 L 250.49377,404.85727 L 250.49377,451.13852 L 233.49377,451.13852 L 233.49377,404.85727 z "
         style="fill:#000000;fill-opacity:1.0000000;fill-rule:evenodd;stroke:none;stroke-width:1.0000000pt;stroke-linecap:butt;stroke-linejoin:miter;stroke-opacity:1.0000000" />
    </g>
    <rect
       y="253.69882"
       x="262.23138"
       height="118.46302"
       width="63.787781"
       id="rect6823"
       style="fill:#e0e0e0;fill-opacity:1.0000000;fill-rule:evenodd;stroke:none;stroke-width:1.0000000pt;stroke-linecap:butt;stroke-linejoin:miter;stroke-opacity:1.0000000" />
    <g
       transform="matrix(1.027464,0.000000,0.000000,1.027464,75.22394,-24.77639)"
       id="g6812">
      <path
         id="path6806"
         d="M 192.14577,320.62297 L 233.95446,305.46732 L 233.95446,283.34356 L 192.14577,298.49921 L 192.14577,320.62297 z "
         style="fill:#000000;fill-opacity:1.0000000;fill-rule:evenodd;stroke:none;stroke-width:0.25000000pt;stroke-linecap:butt;stroke-linejoin:miter;stroke-opacity:1.0000000" />
      <rect
         y="312.60962"
         x="192.14577"
         height="28.395069"
         width="2.6130431"
         id="rect6808"
         style="fill:#000000;fill-opacity:1.0000000;fill-rule:evenodd;stroke:none;stroke-width:1.0000000pt;stroke-linecap:butt;stroke-linejoin:miter;stroke-opacity:1.0000000" />
      <path
         id="path6810"
         d="M 192.14577,336.73674 L 233.95446,351.89239 L 233.95446,374.01615 L 192.14577,358.86050 L 192.14577,336.73674 z "
         style="fill:#000000;fill-opacity:1.0000000;fill-rule:evenodd;stroke:none;stroke-width:0.25000000pt;stroke-linecap:butt;stroke-linejoin:miter;stroke-opacity:1.0000000" />
    </g>
    <path
       transform="matrix(7.071070e-2,7.071070e-2,-7.071070e-2,7.071070e-2,80.78453,264.4095)"
       d="M 270.99609 450.75085 A 37.939453 37.939453 0 1 1  195.11719,450.75085 A 37.939453 37.939453 0 1 1  270.99609 450.75085 z"
       sodipodi:ry="37.939453"
       sodipodi:rx="37.939453"
       sodipodi:cy="450.75085"
       sodipodi:cx="233.05664"
       id="path6861"
       style="stroke-opacity:1.0000000;stroke-miterlimit:4.0000000;stroke-linejoin:miter;stroke-linecap:butt;stroke-width:12.500000;stroke:#000000;fill-rule:evenodd;fill-opacity:1.0000000;fill:#ffffff"
       sodipodi:type="arc" />
    <path
       id="path7621"
       d="M 68.002487,310.07763 L 62.671105,315.40901 L 62.601427,315.33933"
       style="fill:none;fill-opacity:0.75000000;fill-rule:evenodd;stroke:#000000;stroke-width:1.2500004;stroke-linecap:butt;stroke-linejoin:miter;stroke-miterlimit:4.0000000;stroke-opacity:1.0000000" />
    <path
       id="path7625"
       d="M 68.057578,315.42670 L 62.708653,310.07777 L 62.778331,310.00810"
       style="fill:none;fill-opacity:0.75000000;fill-rule:evenodd;stroke:#000000;stroke-width:1.2500004;stroke-linecap:butt;stroke-linejoin:miter;stroke-miterlimit:4.0000000;stroke-opacity:1.0000000" />
    <path
       transform="matrix(7.071070e-2,7.071070e-2,-7.071070e-2,7.071070e-2,157.0292,264.4095)"
       d="M 270.99609 450.75085 A 37.939453 37.939453 0 1 1  195.11719,450.75085 A 37.939453 37.939453 0 1 1  270.99609 450.75085 z"
       sodipodi:ry="37.939453"
       sodipodi:rx="37.939453"
       sodipodi:cy="450.75085"
       sodipodi:cx="233.05664"
       id="path7666"
       style="stroke-opacity:1.0000000;stroke-miterlimit:4.0000000;stroke-linejoin:miter;stroke-linecap:butt;stroke-width:12.500000;stroke:#000000;fill-rule:evenodd;fill-opacity:1.0000000;fill:#ffffff"
       sodipodi:type="arc" />
    <path
       id="path7668"
       d="M 144.24719,310.07764 L 138.91581,315.40902 L 138.84613,315.33934"
       style="fill:none;fill-opacity:0.75000000;fill-rule:evenodd;stroke:#000000;stroke-width:1.2500004;stroke-linecap:butt;stroke-linejoin:miter;stroke-miterlimit:4.0000000;stroke-opacity:1.0000000" />
    <path
       id="path7670"
       d="M 144.30228,315.42671 L 138.95335,310.07778 L 139.02303,310.00811"
       style="fill:none;fill-opacity:0.75000000;fill-rule:evenodd;stroke:#000000;stroke-width:1.2500004;stroke-linecap:butt;stroke-linejoin:miter;stroke-miterlimit:4.0000000;stroke-opacity:1.0000000" />
    <path
       transform="matrix(7.071070e-2,7.071070e-2,-7.071070e-2,7.071070e-2,233.2739,264.4095)"
       d="M 270.99609 450.75085 A 37.939453 37.939453 0 1 1  195.11719,450.75085 A 37.939453 37.939453 0 1 1  270.99609 450.75085 z"
       sodipodi:ry="37.939453"
       sodipodi:rx="37.939453"
       sodipodi:cy="450.75085"
       sodipodi:cx="233.05664"
       id="path7674"
       style="stroke-opacity:1.0000000;stroke-miterlimit:4.0000000;stroke-linejoin:miter;stroke-linecap:butt;stroke-width:12.500000;stroke:#000000;fill-rule:evenodd;fill-opacity:1.0000000;fill:#ffffff"
       sodipodi:type="arc" />
    <path
       id="path7676"
       d="M 220.49189,310.07761 L 215.16051,315.40899 L 215.09083,315.33931"
       style="fill:none;fill-opacity:0.75000000;fill-rule:evenodd;stroke:#000000;stroke-width:1.2500004;stroke-linecap:butt;stroke-linejoin:miter;stroke-miterlimit:4.0000000;stroke-opacity:1.0000000" />
    <path
       id="path7678"
       d="M 220.54698,315.42668 L 215.19805,310.07775 L 215.26773,310.00808"
       style="fill:none;fill-opacity:0.75000000;fill-rule:evenodd;stroke:#000000;stroke-width:1.2500004;stroke-linecap:butt;stroke-linejoin:miter;stroke-miterlimit:4.0000000;stroke-opacity:1.0000000" />
    <path
       transform="matrix(7.071070e-2,7.071070e-2,-7.071070e-2,7.071070e-2,309.5185,264.4095)"
       d="M 270.99609 450.75085 A 37.939453 37.939453 0 1 1  195.11719,450.75085 A 37.939453 37.939453 0 1 1  270.99609 450.75085 z"
       sodipodi:ry="37.939453"
       sodipodi:rx="37.939453"
       sodipodi:cy="450.75085"
       sodipodi:cx="233.05664"
       id="path7682"
       style="stroke-opacity:1.0000000;stroke-miterlimit:4.0000000;stroke-linejoin:miter;stroke-linecap:butt;stroke-width:12.500000;stroke:#000000;fill-rule:evenodd;fill-opacity:1.0000000;fill:#ffffff"
       sodipodi:type="arc" />
    <path
       id="path7684"
       d="M 296.73649,310.07762 L 291.40511,315.40900 L 291.33543,315.33932"
       style="fill:none;fill-opacity:0.75000000;fill-rule:evenodd;stroke:#000000;stroke-width:1.2500004;stroke-linecap:butt;stroke-linejoin:miter;stroke-miterlimit:4.0000000;stroke-opacity:1.0000000" />
    <path
       id="path7686"
       d="M 296.79158,315.42669 L 291.44265,310.07776 L 291.51233,310.00809"
       style="fill:none;fill-opacity:0.75000000;fill-rule:evenodd;stroke:#000000;stroke-width:1.2500004;stroke-linecap:butt;stroke-linejoin:miter;stroke-miterlimit:4.0000000;stroke-opacity:1.0000000" />
    <path
       transform="matrix(7.071070e-2,7.071070e-2,-7.071070e-2,7.071070e-2,391.8358,259.1523)"
       d="M 270.99609 450.75085 A 37.939453 37.939453 0 1 1  195.11719,450.75085 A 37.939453 37.939453 0 1 1  270.99609 450.75085 z"
       sodipodi:ry="37.939453"
       sodipodi:rx="37.939453"
       sodipodi:cy="450.75085"
       sodipodi:cx="233.05664"
       id="path7690"
       style="stroke-opacity:1.0000000;stroke-miterlimit:4.0000000;stroke-linejoin:miter;stroke-linecap:butt;stroke-width:12.500000;stroke:#000000;fill-rule:evenodd;fill-opacity:1.0000000;fill:#ffffff"
       sodipodi:type="arc" />
    <path
       id="path7692"
       d="M 379.05379,304.82046 L 373.72241,310.15184 L 373.65273,310.08216"
       style="fill:none;fill-opacity:0.75000000;fill-rule:evenodd;stroke:#000000;stroke-width:1.2500004;stroke-linecap:butt;stroke-linejoin:miter;stroke-miterlimit:4.0000000;stroke-opacity:1.0000000" />
    <path
       id="path7694"
       d="M 379.10888,310.16953 L 373.75995,304.82060 L 373.82963,304.75093"
       style="fill:none;fill-opacity:0.75000000;fill-rule:evenodd;stroke:#000000;stroke-width:1.2500004;stroke-linecap:butt;stroke-linejoin:miter;stroke-miterlimit:4.0000000;stroke-opacity:1.0000000" />
    <text
       sodipodi:linespacing="100%"
       id="text544"
       y="368.37247"
       x="112.67574"
       style="font-size:10.372579;font-style:normal;font-variant:normal;font-weight:normal;font-stretch:normal;fill:#000000;fill-opacity:1.0000000;stroke:none;stroke-width:1.0000000pt;stroke-linecap:butt;stroke-linejoin:miter;stroke-opacity:1.0000000;font-family:Liberation Sans;text-anchor:start;writing-mode:lr-tb"
       xml:space="preserve"><tspan
         y="368.37247"
         x="112.67574"
         id="tspan545"
         sodipodi:role="line">2</tspan></text>
    <text
       id="text9749"
       y="368.30243"
       x="36.079811"
       style="font-size:10.368000;font-style:normal;font-weight:normal;fill:#000000;fill-opacity:1.0000000;stroke:none;stroke-width:1.0000000pt;stroke-linecap:butt;stroke-linejoin:miter;stroke-opacity:1.0000000;font-family:Liberation Sans"
       xml:space="preserve"><tspan
         y="368.30243"
         x="36.079811"
         id="tspan9751"
         sodipodi:role="line">1</tspan></text>
    <text
       id="text9753"
       y="368.29736"
       x="188.2235"
       style="font-size:10.368000;font-style:normal;font-weight:normal;fill:#000000;fill-opacity:1.0000000;stroke:none;stroke-width:1.0000000pt;stroke-linecap:butt;stroke-linejoin:miter;stroke-opacity:1.0000000;font-family:Liberation Sans"
       xml:space="preserve"><tspan
         y="368.29736"
         x="188.22350"
         id="tspan9755"
         sodipodi:role="line">3</tspan></text>
    <text
       id="text9757"
       y="368.30243"
       x="264.69153"
       style="font-size:10.368000;font-style:normal;font-weight:normal;fill:#000000;fill-opacity:1.0000000;stroke:none;stroke-width:1.0000000pt;stroke-linecap:butt;stroke-linejoin:miter;stroke-opacity:1.0000000;font-family:Liberation Sans"
       xml:space="preserve"><tspan
         y="368.30243"
         x="264.69153"
         id="tspan9759"
         sodipodi:role="line">4</tspan></text>
    <text
       id="text9761"
       y="368.22903"
       x="340.51968"
       style="font-size:10.368000;font-style:normal;font-weight:normal;fill:#000000;fill-opacity:1.0000000;stroke:none;stroke-width:1.0000000pt;stroke-linecap:butt;stroke-linejoin:miter;stroke-opacity:1.0000000;font-family:Liberation Sans"
       xml:space="preserve"><tspan
         y="368.22903"
         x="340.51968"
         id="tspan9763"
         sodipodi:role="line">5</tspan></text>
  </g>
</svg>
