<?xml version="1.0" encoding="iso-8859-1"?>
<!-- Generator: Adobe Illustrator 11 Build 196, SVG Export Plug-In . SVG Version: 6.0.0 Build 78)  -->
<!DOCTYPE svg PUBLIC "-//W3C//DTD SVG 1.0//EN"    "http://www.w3.org/TR/2001/REC-SVG-20010904/DTD/svg10.dtd" [
	<!ENTITY ns_flows "http://ns.adobe.com/Flows/1.0/">
	<!ENTITY ns_svg "http://www.w3.org/2000/svg">
	<!ENTITY ns_xlink "http://www.w3.org/1999/xlink">
]>
<svg  
	 width="320.315" height="385.652" viewBox="0 0 320.315 385.652"
	 style="overflow:visible;enable-background:new 0 0 320.315 385.652" xml:space="preserve">
	<style type="text/css">
	
	</style>
	<g id="Layer_1">
		<g>
			
				<linearGradient id="XMLID_18_" gradientUnits="userSpaceOnUse" x1="405.375" y1="205.479" x2="326.625" y2="205.479" gradientTransform="matrix(0.663 0 0 0.663 0.3013 -75.6761)">
				<stop  offset="0" style="stop-color:#FFFFFF"/>
				<stop  offset="1" style="stop-color:#000000"/>
				<midPointStop  offset="0" style="stop-color:#FFFFFF"/>
				<midPointStop  offset="0.5" style="stop-color:#FFFFFF"/>
				<midPointStop  offset="1" style="stop-color:#000000"/>
			</linearGradient>
			<path style="fill:url(#XMLID_18_);" d="M261.535,44.74c-1.416-0.566-2.862-0.926-4.307-1.1v-0.122h-25.363v0.023
				c-6.458,0.309-12.456,4.294-15.014,10.688c-3.494,8.735,0.754,18.65,9.49,22.143c1.813,0.725,3.677,1.112,5.524,1.2v0.022h25.363
				v-0.121c5.985-0.719,11.401-4.599,13.798-10.59C274.52,58.147,270.271,48.233,261.535,44.74z"/>
			<g>
				<path style="fill:#DCF2D8;" d="M100.119,353.336l-0.759,0.011C98.431,353.894,98.858,353.857,100.119,353.336z"/>
				<path style="fill:#DCF2D8;" d="M228.816,351.54l-2.793-0.033l1.914-0.028c-18.525-0.975-32.305-1.823-39-11.7
					c-2.478-3.656-7.8-3.9-22.1-70.849c-7.749-36.277-8.084-45.855-13.853-45.906c-4.631-0.041-8.247,19.906-12.147,47.206
					c-3.9,27.299-9.1,49.399-20.353,67.559c-4.874,7.865-16.519,13.961-20.366,15.548l0.185-0.002l-1,0.481v1.196l-0.163,0.104
					h0.163h5.037h124.799L228.816,351.54z"/>
			</g>
			
				<line style="fill:none;stroke:#000000;stroke-width:0.0078;stroke-linecap:square;stroke-miterlimit:1;" x1="117.669" y1="354.792" x2="117.669" y2="206.591"/>
			
				<line style="fill:none;stroke:#000000;stroke-width:0.0078;stroke-linecap:square;stroke-miterlimit:1;" x1="135.869" y1="354.792" x2="135.869" y2="206.591"/>
			
				<line style="fill:none;stroke:#000000;stroke-width:0.0078;stroke-linecap:square;stroke-miterlimit:1;" x1="154.719" y1="354.792" x2="154.719" y2="206.591"/>
			
				<line style="fill:none;stroke:#000000;stroke-width:0.0078;stroke-linecap:square;stroke-miterlimit:1;" x1="173.569" y1="354.792" x2="173.569" y2="206.591"/>
			
				<line style="fill:none;stroke:#000000;stroke-width:0.0078;stroke-linecap:square;stroke-miterlimit:1;" x1="191.769" y1="354.792" x2="191.769" y2="206.917"/>
			
				<line style="fill:none;stroke:#000000;stroke-width:0.0078;stroke-linecap:square;stroke-miterlimit:1;" x1="210.619" y1="354.79" x2="210.619" y2="206.591"/>
			
				<line style="fill:none;stroke:#000000;stroke-width:0.0078;stroke-linecap:square;stroke-miterlimit:1;" x1="98.82" y1="338.542" x2="228.818" y2="338.542"/>
			
				<line style="fill:none;stroke:#000000;stroke-width:0.0078;stroke-linecap:square;stroke-miterlimit:1;" x1="98.82" y1="322.292" x2="228.818" y2="322.292"/>
			
				<line style="fill:none;stroke:#000000;stroke-width:0.0078;stroke-linecap:square;stroke-miterlimit:1;" x1="98.82" y1="306.043" x2="228.818" y2="306.043"/>
			
				<line style="fill:none;stroke:#000000;stroke-width:0.0078;stroke-linecap:square;stroke-miterlimit:1;" x1="98.82" y1="289.793" x2="228.818" y2="289.793"/>
			
				<line style="fill:none;stroke:#000000;stroke-width:0.0078;stroke-linecap:square;stroke-miterlimit:1;" x1="98.82" y1="273.543" x2="228.818" y2="273.543"/>
			
				<line style="fill:none;stroke:#000000;stroke-width:0.0078;stroke-linecap:square;stroke-miterlimit:1;" x1="98.82" y1="257.293" x2="228.818" y2="257.293"/>
			
				<line style="fill:none;stroke:#000000;stroke-width:0.0078;stroke-linecap:square;stroke-miterlimit:1;" x1="98.82" y1="241.043" x2="228.818" y2="241.043"/>
			
				<line style="fill:none;stroke:#000000;stroke-width:0.0078;stroke-linecap:square;stroke-miterlimit:1;" x1="98.82" y1="224.793" x2="228.818" y2="224.793"/>
			<rect x="99.142" y="206.591" style="fill:none;stroke:#000000;stroke-miterlimit:1;" width="129.999" height="148.523"/> 
			
				<line style="fill:none;stroke:#000000;stroke-linecap:square;stroke-miterlimit:1;" x1="95.892" y1="355.115" x2="98.492" y2="355.115"/>
			
				<line style="fill:none;stroke:#000000;stroke-linecap:square;stroke-miterlimit:1;" x1="95.892" y1="338.581" x2="98.492" y2="338.581"/>
			
				<line style="fill:none;stroke:#000000;stroke-linecap:square;stroke-miterlimit:1;" x1="95.892" y1="322.331" x2="98.492" y2="322.331"/>
			
				<line style="fill:none;stroke:#000000;stroke-linecap:square;stroke-miterlimit:1;" x1="95.892" y1="306.081" x2="98.492" y2="306.081"/>
			
				<line style="fill:none;stroke:#000000;stroke-linecap:square;stroke-miterlimit:1;" x1="95.892" y1="289.831" x2="98.492" y2="289.831"/>
			
				<line style="fill:none;stroke:#000000;stroke-linecap:square;stroke-miterlimit:1;" x1="95.892" y1="273.581" x2="98.492" y2="273.581"/>
			
				<line style="fill:none;stroke:#000000;stroke-linecap:square;stroke-miterlimit:1;" x1="95.892" y1="257.332" x2="98.492" y2="257.332"/>
			
				<line style="fill:none;stroke:#000000;stroke-linecap:square;stroke-miterlimit:1;" x1="95.892" y1="241.082" x2="98.492" y2="241.082"/>
			
				<line style="fill:none;stroke:#000000;stroke-linecap:square;stroke-miterlimit:1;" x1="95.892" y1="224.832" x2="98.492" y2="224.832"/>
			
				<line style="fill:none;stroke:#000000;stroke-linecap:square;stroke-miterlimit:1;" x1="99.142" y1="355.765" x2="99.142" y2="358.365"/>
			
				<line style="fill:none;stroke:#000000;stroke-linecap:square;stroke-miterlimit:1;" x1="117.748" y1="355.765" x2="117.748" y2="358.365"/>
			
				<line style="fill:none;stroke:#000000;stroke-linecap:square;stroke-miterlimit:1;" x1="135.948" y1="355.765" x2="135.948" y2="358.365"/>
			
				<line style="fill:none;stroke:#000000;stroke-linecap:square;stroke-miterlimit:1;" x1="154.798" y1="355.765" x2="154.798" y2="358.365"/>
			
				<line style="fill:none;stroke:#000000;stroke-linecap:square;stroke-miterlimit:1;" x1="173.647" y1="355.765" x2="173.647" y2="358.365"/>
			
				<line style="fill:none;stroke:#000000;stroke-linecap:square;stroke-miterlimit:1;" x1="191.847" y1="355.765" x2="191.847" y2="358.365"/>
			
				<line style="fill:none;stroke:#000000;stroke-linecap:square;stroke-miterlimit:1;" x1="210.697" y1="355.765" x2="210.697" y2="358.365"/>
			
				<line style="fill:none;stroke:#000000;stroke-linecap:square;stroke-miterlimit:1;" x1="228.897" y1="355.765" x2="228.897" y2="358.365"/>
			<g>
				<text transform="matrix(1 0 0 1 89.4922 357.8306)"><tspan x="0" y="0" style="font-family:Liberation Sans; font-size:8.500000;">0</tspan></text>
			</g>
			<g>
				<text transform="matrix(1 0 0 1 89.4922 341.5806)"><tspan x="0" y="0" style="font-family:Liberation Sans; font-size:8.500000;">1</tspan></text>
			</g>
			<g>
				<text transform="matrix(1 0 0 1 89.4922 325.3306)"><tspan x="0" y="0" style="font-family:Liberation Sans; font-size:8.500000;">2</tspan></text>
			</g>
			<g>
				<text transform="matrix(1 0 0 1 89.4922 309.0811)"><tspan x="0" y="0" style="font-family:Liberation Sans; font-size:8.500000;">3</tspan></text>
			</g>
			<g>
				<text transform="matrix(1 0 0 1 89.4922 292.8311)"><tspan x="0" y="0" style="font-family:Liberation Sans; font-size:8.500000;">4</tspan></text>
			</g>
			<g>
				<text transform="matrix(1 0 0 1 89.4922 276.5811)"><tspan x="0" y="0" style="font-family:Liberation Sans; font-size:8.500000;">5</tspan></text>
			</g>
			<g>
				<text transform="matrix(1 0 0 1 89.4922 260.3315)"><tspan x="0" y="0" style="font-family:Liberation Sans; font-size:8.500000;">6</tspan></text>
			</g>
			<g>
				<text transform="matrix(1 0 0 1 89.4922 244.0815)"><tspan x="0" y="0" style="font-family:Liberation Sans; font-size:8.500000;">7</tspan></text>
			</g>
			<g>
				<text transform="matrix(1 0 0 1 89.4922 227.8315)"><tspan x="0" y="0" style="font-family:Liberation Sans; font-size:8.500000;">8</tspan></text>
			</g>
			<g>
				<text transform="matrix(1 0 0 1 96.1421 367.1899)"><tspan x="0" y="0" style="font-family:Liberation Sans; font-size:8.500000;">0</tspan></text>
			</g>
			<g>
				<text transform="matrix(1 0 0 1 114.0981 367.1899)"><tspan x="0" y="0" style="font-family:Liberation Sans; font-size:8.500000;">1</tspan></text>
			</g>
			<g>
				<text transform="matrix(1 0 0 1 132.9482 367.1899)"><tspan x="0" y="0" style="font-family:Liberation Sans; font-size:8.500000;">2</tspan></text>
			</g>
			<g>
				<text transform="matrix(1 0 0 1 151.1479 367.1899)"><tspan x="0" y="0" style="font-family:Liberation Sans; font-size:8.500000;">3</tspan></text>
			</g>
			<g>
				<text transform="matrix(1 0 0 1 169.9976 367.1899)"><tspan x="0" y="0" style="font-family:Liberation Sans; font-size:8.500000;">4</tspan></text>
			</g>
			<g>
				<text transform="matrix(1 0 0 1 188.8477 367.1899)"><tspan x="0" y="0" style="font-family:Liberation Sans; font-size:8.500000;">5</tspan></text>
			</g>
			<g>
				<text transform="matrix(1 0 0 1 207.0474 367.1899)"><tspan x="0" y="0" style="font-family:Liberation Sans; font-size:8.500000;">6</tspan></text>
			</g>
			<g>
				<text transform="matrix(1 0 0 1 225.897 367.1899)"><tspan x="0" y="0" style="font-family:Liberation Sans; font-size:8.500000;">7</tspan></text>
			</g>
			<g>
				<text transform="matrix(1 0 0 1 151.4668 381.1895)"><tspan x="0" y="0" style="font-family:Liberation Sans; font-size:8.500000;">x (fm)</tspan></text>
			</g>
			<g>
				<text transform="matrix(1 0 0 1 57.0923 284.481)"><tspan x="0" y="0" style="font-family:Liberation Sans; font-size:8.500000;">F (N)</tspan></text>
			</g>
			<path style="fill:none;stroke:#F71BB3;stroke-width:3;stroke-linecap:square;stroke-miterlimit:1;" d="M99.142,353.49
				c4.225-2.275,14.653-5.116,21.125-15.559c11.253-18.159,16.453-40.259,20.353-67.559c3.9-27.3,7.516-47.247,12.147-47.206
				c5.769,0.051,6.104,9.629,13.853,45.906c14.3,66.95,19.622,67.193,22.1,70.85c6.695,9.877,20.475,10.725,39,11.7"/>
			
				<line style="fill:none;stroke:#000000;stroke-linecap:square;stroke-miterlimit:1;" x1="96.238" y1="206.616" x2="98.838" y2="206.616"/>
			<g>
				<text transform="matrix(1 0 0 1 89.7979 209.3716)"><tspan x="0" y="0" style="font-family:Liberation Sans; font-size:8.500000;">9</tspan></text>
			</g>
			<path style="fill:none;stroke:#000000;stroke-width:0.5;stroke-linecap:square;stroke-miterlimit:1;" d="M99.183,353.733
				c4.225-2.275,14.653-5.116,21.125-15.559c11.253-18.159,16.453-40.259,20.353-67.559c3.9-27.3,7.516-47.247,12.147-47.206
				c5.769,0.051,6.104,9.629,13.853,45.906c14.3,66.949,19.622,67.193,22.1,70.849c6.695,9.877,20.475,10.725,39,11.7"/>
			<circle style="fill:#FFFFFF;stroke:#000000;" cx="124.732" cy="90.107" r="17.035"/> 
			<circle style="fill:#FFFFFF;stroke:#000000;" cx="68.083" cy="76.145" r="17.035"/> 
			<circle style="stroke:#000000;" cx="87.542" cy="63.058" r="17.035"/> 
			<circle style="stroke:#000000;" cx="61.692" cy="48.314" r="17.035"/> 
			<circle style="stroke:#000000;" cx="119.097" cy="61.93" r="17.035"/> 
			<circle style="stroke:#000000;" cx="139.467" cy="44.965" r="17.035"/> 
			<circle style="stroke:#000000;" cx="105.608" cy="17.539" r="17.035"/> 
			<circle style="fill:#FFFFFF;stroke:#000000;" cx="73.036" cy="29.142" r="17.035"/> 
			<circle style="fill:#FFFFFF;stroke:#000000;" cx="100.218" cy="45.585" r="17.035"/> 
			<circle style="fill:#FFFFFF;stroke:#000000;" cx="121.675" cy="23.1" r="17.035"/> 
			<circle style="fill:#FFFFFF;stroke:#000000;" cx="138.259" cy="73.202" r="17.035"/> 
			<circle style="stroke:#000000;" cx="93.175" cy="93.486" r="17.035"/> 
			<circle style="stroke:#000000;" cx="233.002" cy="60.555" r="17.035"/> 
			<line style="fill:none;stroke:#000000;" x1="99.862" y1="202.556" x2="99.862" y2="116.629"/>
			<line style="fill:none;stroke:#000000;" x1="229.809" y1="202.556" x2="229.809" y2="117.629"/>
			<g>
				<line style="fill:none;stroke:#000000;" x1="104.808" y1="128.89" x2="226.189" y2="128.89"/>
				<path d="M230.17,128.89c-1.874,0.695-4.198,1.881-5.638,3.137l1.134-3.137l-1.134-3.137
					C225.973,127.008,228.297,128.195,230.17,128.89z"/>
				<path d="M100.827,128.89c1.874-0.695,4.198-1.881,5.638-3.137l-1.134,3.137l1.134,3.136
					C105.024,130.771,102.7,129.584,100.827,128.89z"/>
			</g>
			<g>
				<text transform="matrix(1 0 0 1 151.3208 122.5654)"><tspan x="0" y="0" style="font-family:Liberation Sans; font-size:8.500000;">x=7 fm</tspan></text>
			</g>
			<line style="fill:none;stroke:#000000;stroke-dasharray:2;" x1="210" y1="202.556" x2="210" y2="142.556"/>
			<g>
				<line style="fill:none;stroke:#000000;" x1="104.545" y1="153.556" x2="204.455" y2="153.556"/>
				<path d="M207.382,153.556c-1.377,0.511-3.086,1.383-4.145,2.306l0.834-2.306l-0.834-2.306
					C204.296,152.173,206.005,153.045,207.382,153.556z"/>
				<path d="M101.618,153.556c1.377-0.511,3.086-1.383,4.146-2.306l-0.834,2.306l0.834,2.306
					C104.704,154.939,102.995,154.067,101.618,153.556z"/>
			</g>
			<g>
				<text transform="matrix(1 0 0 1 146 148.5562)"><tspan x="0" y="0" style="font-family:Liberation Sans; font-size:8.500000;">x=6 fm</tspan></text>
			</g>
			<line style="fill:none;stroke:#000000;stroke-dasharray:2;" x1="191" y1="202.556" x2="191" y2="161.556"/>
			<line style="fill:none;stroke:#000000;stroke-dasharray:2;" x1="173" y1="202.556" x2="173" y2="177.556"/>
			<g>
				<text transform="matrix(1 0 0 1 139 176.5562)"><tspan x="0" y="0" style="font-family:Liberation Sans; font-size:8.500000;">etc.</tspan></text>
			</g>
		</g>
		<rect y="189.744" style="fill:none;" width="320.315" height="2.835"/> 
	</g>
</svg>
