<?xml version="1.0" encoding="UTF-8" standalone="no"?>
<!-- Generator: Adobe Illustrator 11 Build 196, SVG Export Plug-In . SVG Version: 6.0.0 Build 78)  -->
<svg
   xmlns:dc="http://purl.org/dc/elements/1.1/"
   xmlns:cc="http://web.resource.org/cc/"
   xmlns:rdf="http://www.w3.org/1999/02/22-rdf-syntax-ns#"
   xmlns:svg="http://www.w3.org/2000/svg"
   xmlns="http://www.w3.org/2000/svg"
   xmlns:sodipodi="http://inkscape.sourceforge.net/DTD/sodipodi-0.dtd"
   xmlns:inkscape="http://www.inkscape.org/namespaces/inkscape"
   width="73.282"
   height="244.18"
   viewBox="0 0 73.282 244.18"
   style="overflow:visible;enable-background:new 0 0 73.282 244.18"
   xml:space="preserve"
   id="svg2"
   sodipodi:version="0.32"
   sodipodi:docname="comet-goofy-orbit.svg"
   sodipodi:docbase="/home/bcrowell/Documents/writing/lm/trunk/3vw/ch01/figs"><metadata
   id="metadata16"><rdf:RDF><cc:Work
       rdf:about=""><dc:format>image/svg+xml</dc:format><dc:type
         rdf:resource="http://purl.org/dc/dcmitype/StillImage" /></cc:Work></rdf:RDF></metadata><defs
   id="defs14" /><sodipodi:namedview
   inkscape:cy="417.84947"
   inkscape:cx="305.25953"
   inkscape:zoom="0.43415836"
   inkscape:window-height="510"
   inkscape:window-width="712"
   inkscape:pageshadow="2"
   inkscape:pageopacity="0.0"
   borderopacity="1.0"
   bordercolor="#666666"
   pagecolor="#ffffff"
   id="base"
   inkscape:window-x="158"
   inkscape:window-y="158"
   inkscape:current-layer="svg2" />
	<rect
   style="fill:none;fill-opacity:0.75000000;fill-rule:evenodd;stroke:none;stroke-width:0.87896261pt;stroke-linecap:butt;stroke-linejoin:miter;stroke-opacity:1.0000000"
   id="rect1314"
   width="183.28625"
   height="36.852913"
   x="-64.634743"
   y="87.555115" /><g
   id="Layer_1">
		
			<ellipse
   transform="matrix(0.9181 0.3963 -0.3963 0.9181 33.3911 -9.6687)"
   style="fill:none;stroke:#000000;stroke-width:0.5;"
   cx="40.094"
   cy="75.974"
   rx="4.481"
   ry="82.454"
   id="ellipse5" /> 
		<path
   style="fill:none;stroke:#000000;stroke-width:0.5;"
   d="M71.27,136.966l-13,14.95l-7.8,18.85l-6.5,12.35    c-7.8,9.75-18.85,10.4-16.25-0.65c2.6-11.05-11.05-20.8-15.6-7.8c-4.55,13-9.75,25.35-11.7,35.75c-1.95,10.4,13.65,6.5,10.4,16.25    s6.5,15.6,14.95,16.9s13-0.65,14.95-9.75c1.95-9.1-16.25-13-2.6-20.15c13.65-7.15,20.15-11.7,22.75-15.6s4.55-12.35,5.2-20.15    c0.65-7.8-3.9-12.35-3.9-12.35l-5.85-5.85"
   id="path7" />
		<circle
   cx="20.895"
   cy="229.591"
   r="1.494"
   id="circle9" /> 
		<circle
   cx="12.103"
   cy="140.32"
   r="1.494"
   id="circle11" /> 
	</g>
</svg>