<?xml version="1.0" encoding="iso-8859-1"?>
<!-- Generator: Adobe Illustrator 11 Build 196, SVG Export Plug-In . SVG Version: 6.0.0 Build 78)  -->
<!DOCTYPE svg PUBLIC "-//W3C//DTD SVG 1.0//EN"    "http://www.w3.org/TR/2001/REC-SVG-20010904/DTD/svg10.dtd" [
	<!ENTITY ns_flows "http://ns.adobe.com/Flows/1.0/">
	<!ENTITY ns_svg "http://www.w3.org/2000/svg">
	<!ENTITY ns_xlink "http://www.w3.org/1999/xlink">
]>
<svg  
	 width="138.788" height="171.326" viewBox="0 0 138.788 171.326"
	 style="overflow:visible;enable-background:new 0 0 138.788 171.326" xml:space="preserve">
	<style type="text/css">
	
	</style>
	<g id="Layer_1">
		<polyline style="fill:#B4B4B4;stroke:#000000;stroke-width:1.5;" points="30.18,171.108 1.012,75.108 59.348,75.108 
			30.18,171.108 "/>
		<path style="fill:none;stroke:#000000;stroke-width:1.5;" d="M66.477,39.603c5.433,31.554,10.619,49.736,15.302,46.292
			c5.136-3.776,10.673-31.913,14.923-85.836"/>
		<ellipse style="fill:#B4B4B4;stroke:#000000;stroke-width:1.5;" cx="30.18" cy="75.108" rx="29.168" ry="7.425"/> 
		<polyline style="fill:none;stroke:#000000;stroke-width:1.5;" points="16.492,129.858 10.901,141.457 22.333,48.696 45.742,3.108 
			36.742,66.108 "/>
		<polyline style="fill:none;stroke:#000000;stroke-width:1.5;" points="19.492,142.608 14.992,147.108 42.759,147.108 
			52.759,134.358 42.742,134.358 "/>
		<polyline style="fill:none;stroke:#000000;stroke-width:1.5;" points="45.742,120.858 47.992,120.108 56.242,110.358 
			12.742,143.358 20.242,139.608 "/>
		<ellipse style="fill:none;stroke:#000000;stroke-width:1.5;" cx="80.333" cy="148.983" rx="10.607" ry="3.341"/> 
		
			<ellipse transform="matrix(0.6664 0.7456 -0.7456 0.6664 112.7255 -21.4773)" style="fill:none;stroke:#000000;stroke-width:1.5;" cx="80.364" cy="115.233" rx="2.121" ry="18.031"/> 
		<g>
			<text transform="matrix(1 0 0 1 99.2593 49.0532)"><tspan x="0" y="0" style="font-family:Liberation Sans; font-size:7.650000;">hyperbola</tspan></text>
		</g>
		<g>
			<text transform="matrix(1 0 0 1 99.2593 118.0532)"><tspan x="0" y="0" style="font-family:Liberation Sans; font-size:7.650000;">ellipse</tspan></text>
		</g>
		<g>
			<text transform="matrix(1 0 0 1 99.2593 150.0532)"><tspan x="0" y="0" style="font-family:Liberation Sans; font-size:7.650000;">circle</tspan></text>
		</g>
	</g>
</svg>
