<?xml version="1.0" encoding="UTF-8" standalone="no"?>
<!-- Created with Inkscape (http://www.inkscape.org/) -->
<svg
   xmlns:dc="http://purl.org/dc/elements/1.1/"
   xmlns:cc="http://web.resource.org/cc/"
   xmlns:rdf="http://www.w3.org/1999/02/22-rdf-syntax-ns#"
   xmlns:svg="http://www.w3.org/2000/svg"
   xmlns="http://www.w3.org/2000/svg"
   xmlns:xlink="http://www.w3.org/1999/xlink"
   xmlns:sodipodi="http://inkscape.sourceforge.net/DTD/sodipodi-0.dtd"
   xmlns:inkscape="http://www.inkscape.org/namespaces/inkscape"
   width="744.09448819"
   height="1052.3622047"
   id="svg2"
   sodipodi:version="0.32"
   sodipodi:docbase="/home/bcrowell/Documents/writing/lm/trunk/2cl/ch05/figs"
   sodipodi:docname="cow-tipping.svg">
  <defs
     id="defs4"><linearGradient
   id="XMLID_6_"
   gradientUnits="userSpaceOnUse"
   x1="116.9189"
   y1="-20.3745"
   x2="127.9268"
   y2="17.6077"
   gradientTransform="matrix(1.490100,-0.172300,0.172300,1.490100,59.27940,72.41240)">
				<stop
   offset="0"
   style="stop-color:#FFFFFF"
   id="stop3056" />

				<stop
   offset="1"
   style="stop-color:#000000"
   id="stop3058" />

				<midPointStop
   offset="0"
   style="stop-color:#FFFFFF"
   id="midPointStop3060" />

				<midPointStop
   offset="0.5"
   style="stop-color:#FFFFFF"
   id="midPointStop3062" />

				<midPointStop
   offset="1"
   style="stop-color:#000000"
   id="midPointStop3064" />

			</linearGradient>
<linearGradient
   id="XMLID_5_"
   gradientUnits="userSpaceOnUse"
   x1="116.7441"
   y1="-20.324"
   x2="127.752"
   y2="17.6582"
   gradientTransform="matrix(0.993400,-0.114900,0.114900,0.993400,1.999400,52.09070)">
				<stop
   offset="0"
   style="stop-color:#FFFFFF"
   id="stop2995" />

				<stop
   offset="1"
   style="stop-color:#000000"
   id="stop2997" />

				<midPointStop
   offset="0"
   style="stop-color:#FFFFFF"
   id="midPointStop2999" />

				<midPointStop
   offset="0.5"
   style="stop-color:#FFFFFF"
   id="midPointStop3001" />

				<midPointStop
   offset="1"
   style="stop-color:#000000"
   id="midPointStop3003" />

			</linearGradient>
<linearGradient
   id="XMLID_4_"
   gradientUnits="userSpaceOnUse"
   x1="89.812"
   y1="31.4717"
   x2="92.3118"
   y2="40.0967"
   gradientTransform="matrix(0.993400,-0.114900,0.114900,0.993400,-6.183700,12.14250)">
			<stop
   offset="0"
   style="stop-color:#D9D9D9"
   id="stop2960" />

			<stop
   offset="0.0821"
   style="stop-color:#E0E0E0"
   id="stop2962" />

			<stop
   offset="0.2784"
   style="stop-color:#EBEBEB"
   id="stop2964" />

			<stop
   offset="0.41"
   style="stop-color:#EEEEEE"
   id="stop2966" />

			<stop
   offset="0.539"
   style="stop-color:#EBEBEB"
   id="stop2968" />

			<stop
   offset="0.7232"
   style="stop-color:#E1E1E1"
   id="stop2970" />

			<stop
   offset="0.82"
   style="stop-color:#D9D9D9"
   id="stop2972" />

			<stop
   offset="1"
   style="stop-color:#D9D9D9"
   id="stop2974" />

			<midPointStop
   offset="0"
   style="stop-color:#D9D9D9"
   id="midPointStop2976" />

			<midPointStop
   offset="0.38"
   style="stop-color:#D9D9D9"
   id="midPointStop2978" />

			<midPointStop
   offset="0.41"
   style="stop-color:#EEEEEE"
   id="midPointStop2980" />

			<midPointStop
   offset="0.63"
   style="stop-color:#EEEEEE"
   id="midPointStop2982" />

			<midPointStop
   offset="0.82"
   style="stop-color:#D9D9D9"
   id="midPointStop2984" />

			<midPointStop
   offset="0.5"
   style="stop-color:#D9D9D9"
   id="midPointStop2986" />

			<midPointStop
   offset="1"
   style="stop-color:#D9D9D9"
   id="midPointStop2988" />

		</linearGradient>
<marker
   inkscape:stockid="Arrow2Mend"
   orient="auto"
   refY="0.0"
   refX="0.0"
   id="Arrow2Mend"
   style="overflow:visible;">
  <path
     sodipodi:nodetypes="cccc"
     id="path2690"
     style="font-size:12.0;fill-rule:evenodd;stroke-width:0.62500000;stroke-linejoin:round;"
     d="M 8.7185878,4.0337352 L -2.2072895,0.016013256 L 8.7185884,-4.0017078 C 6.9730900,-1.6296469 6.9831476,1.6157441 8.7185878,4.0337352 z "
     transform="scale(0.6) rotate(180) translate(-5,0)" />
</marker>
<marker
   inkscape:stockid="Arrow2Lend"
   orient="auto"
   refY="0.0"
   refX="0.0"
   id="Arrow2Lend"
   style="overflow:visible;">
  <path
     sodipodi:nodetypes="cccc"
     id="path2693"
     style="font-size:12.0;fill-rule:evenodd;stroke-width:0.62500000;stroke-linejoin:round;"
     d="M 8.7185878,4.0337352 L -2.2072895,0.016013256 L 8.7185884,-4.0017078 C 6.9730900,-1.6296469 6.9831476,1.6157441 8.7185878,4.0337352 z "
     transform="scale(1.1) rotate(180) translate(-5,0)" />
</marker>

		
		
		
		
		
		
		 
	
		
		
		
		
		
		
		
		
		
		
		
		
		
		
		
		 
	
		
		
			<linearGradient
   gradientTransform="matrix(0.993400,-0.114900,0.114900,0.993400,-6.183700,12.14250)"
   y2="40.096699"
   x2="92.311798"
   y1="31.471701"
   x1="89.811996"
   gradientUnits="userSpaceOnUse"
   id="linearGradient3145">
			<stop
   id="stop3147"
   style="stop-color:#D9D9D9"
   offset="0" />

			<stop
   id="stop3149"
   style="stop-color:#E0E0E0"
   offset="0.0821" />

			<stop
   id="stop3151"
   style="stop-color:#EBEBEB"
   offset="0.2784" />

			<stop
   id="stop3153"
   style="stop-color:#EEEEEE"
   offset="0.41" />

			<stop
   id="stop3155"
   style="stop-color:#EBEBEB"
   offset="0.539" />

			<stop
   id="stop3157"
   style="stop-color:#E1E1E1"
   offset="0.7232" />

			<stop
   id="stop3159"
   style="stop-color:#D9D9D9"
   offset="0.82" />

			<stop
   id="stop3161"
   style="stop-color:#D9D9D9"
   offset="1" />

			<midPointStop
   id="midPointStop3163"
   style="stop-color:#D9D9D9"
   offset="0" />

			<midPointStop
   id="midPointStop3165"
   style="stop-color:#D9D9D9"
   offset="0.38" />

			<midPointStop
   id="midPointStop3167"
   style="stop-color:#EEEEEE"
   offset="0.41" />

			<midPointStop
   id="midPointStop3169"
   style="stop-color:#EEEEEE"
   offset="0.63" />

			<midPointStop
   id="midPointStop3171"
   style="stop-color:#D9D9D9"
   offset="0.82" />

			<midPointStop
   id="midPointStop3173"
   style="stop-color:#D9D9D9"
   offset="0.5" />

			<midPointStop
   id="midPointStop3175"
   style="stop-color:#D9D9D9"
   offset="1" />

		</linearGradient>

		
		
		
		
		
		
		
		
		
		
		
		
		
		
		
		
		
		
		
		
		 
	<linearGradient
   inkscape:collect="always"
   xlink:href="#XMLID_4_"
   id="linearGradient3327"
   gradientUnits="userSpaceOnUse"
   gradientTransform="matrix(0.993400,-0.114900,0.114900,0.993400,161.8336,521.2447)"
   x1="89.812"
   y1="31.4717"
   x2="92.3118"
   y2="40.0967" />
</defs>
  <sodipodi:namedview
     id="base"
     pagecolor="#ffffff"
     bordercolor="#666666"
     borderopacity="1.0"
     inkscape:pageopacity="0.0"
     inkscape:pageshadow="2"
     inkscape:zoom="1.2894516"
     inkscape:cx="256.02394"
     inkscape:cy="626.88988"
     inkscape:document-units="mm"
     inkscape:current-layer="layer1"
     inkscape:window-width="1278"
     inkscape:window-height="996"
     inkscape:window-x="0"
     inkscape:window-y="0" />
  <metadata
     id="metadata7">
    <rdf:RDF>
      <cc:Work
         rdf:about="">
        <dc:format>image/svg+xml</dc:format>
        <dc:type
           rdf:resource="http://purl.org/dc/dcmitype/StillImage" />
      </cc:Work>
    </rdf:RDF>
  </metadata>
  <g
     inkscape:label="Layer 1"
     inkscape:groupmode="layer"
     id="layer1">
    <path
       style="fill:#e7e7e7;fill-opacity:1.0000000;fill-rule:evenodd;stroke:none;stroke-width:0.25000000pt;stroke-linecap:butt;stroke-linejoin:miter;stroke-opacity:1.0000000"
       d="M 250.86123,261.62989 C 248.56265,261.88529 237.56721,262.90999 233.73623,264.44239 C 229.90525,265.97478 230.14478,270.57362 227.07998,276.19239 L 227.64248,276.22364 L 225.89248,279.47364 L 225.82998,279.00489 C 225.82998,279.00489 219.93683,275.41653 216.36123,275.16114 C 212.78565,274.90574 205.14247,279.25490 205.14248,279.25489 L 202.07998,284.09864 C 202.07998,284.09864 206.67569,289.20516 211.01748,293.03614 C 215.12653,296.66177 221.48698,297.00307 226.92373,294.22364 L 228.70498,296.09864 L 228.64248,296.09864 C 228.43390,309.03061 231.52848,316.06985 233.11123,319.87989 L 232.95498,319.84864 C 232.95496,319.84864 231.16948,322.40346 229.89248,325.72364 C 228.61550,329.04381 227.33538,348.72759 227.07998,357.41114 C 226.82460,366.09469 232.72543,378.85290 233.23623,380.12989 C 233.74703,381.40689 232.21038,389.59096 231.95498,392.91114 C 231.69957,396.23133 236.55070,410.54320 240.89248,422.03614 L 244.20498,431.97364 L 244.70498,438.37989 L 245.23623,445.00489 L 246.76748,449.34864 L 247.26748,456.25489 L 245.98623,466.19239 L 240.89248,483.06739 C 240.89246,483.06740 245.73820,486.38529 250.07998,486.12989 C 254.42176,485.87449 257.98623,482.81739 257.98623,482.81739 L 257.23623,469.00489 L 257.23623,451.37989 L 261.04873,438.87989 C 261.04875,438.87989 261.30527,430.69581 259.51748,426.09864 C 257.72967,421.50146 256.47003,414.36712 257.23623,410.53614 C 258.00240,406.70515 257.98623,406.69239 257.98623,406.69239 C 257.98623,406.69240 264.88054,411.28614 266.92373,411.28614 C 268.96691,411.28615 277.92373,408.47364 277.92373,408.47364 L 282.26748,425.09864 L 280.20498,434.53614 L 280.98623,441.94239 L 280.20498,448.84864 L 282.26748,451.91114 L 284.82998,469.53614 C 284.83001,469.53615 280.98083,477.70516 281.23623,481.53614 C 281.49163,485.36712 281.73623,489.19239 281.73623,489.19239 C 281.73623,489.19239 295.54759,490.47904 297.07998,490.22364 C 298.61238,489.96823 297.82998,486.12989 297.82998,486.12989 L 296.54873,473.09864 L 293.76748,454.47364 L 296.82998,438.87989 L 302.17373,423.56739 C 302.17373,423.56739 303.58388,417.96574 304.92373,411.91114 L 307.95498,409.69239 C 307.68040,410.07830 306.76748,411.28614 306.76748,411.28614 L 313.89248,405.31739 L 315.14248,404.41114 L 314.45498,418.69239 L 316.48623,441.44239 L 314.70498,459.56739 L 313.17373,470.53614 C 313.17373,470.53614 317.26405,472.85829 321.86123,473.87989 C 326.45841,474.90148 331.04874,471.31738 331.04873,471.31739 L 329.76748,464.94239 L 330.51748,461.09864 C 330.51748,461.09864 331.54562,455.97707 328.73623,451.37989 C 325.92684,446.78272 327.98621,431.97363 327.98623,431.97364 L 333.07998,416.91114 L 330.26748,410.78614 L 332.04873,400.56739 L 334.86123,391.37989 C 334.86123,391.37989 334.11432,388.06968 336.92373,385.00489 C 339.73311,381.94011 348.40212,351.27139 349.42373,343.09864 C 350.44533,334.92588 347.65325,316.52794 347.14248,306.56739 C 346.63169,296.60684 345.35271,292.01796 342.79873,288.44239 C 340.24474,284.86681 334.11352,282.31852 331.04873,280.78614 C 327.98394,279.25375 320.04560,278.48982 317.23623,277.72364 C 314.42684,276.95744 302.69680,274.90884 292.73623,277.97364 L 292.82998,278.56739 L 289.95498,278.91114 C 286.76603,277.73465 280.99702,278.82836 276.36123,280.31739 L 274.23623,277.94239 L 275.36123,277.97364 C 275.36123,277.97364 271.79448,271.09553 270.51748,268.28614 C 269.24049,265.47675 266.44105,263.93275 264.14248,262.91114 C 261.84389,261.88955 253.15983,261.37448 250.86123,261.62989 z "
       id="path1386" />
    <g
       id="g2139"
       transform="translate(94.03624,8.671568)">
      <path
         id="path1364"
         d="M 138.93688,311.19524 L 138.93688,311.19524 C 138.93688,311.19524 137.14909,313.74923 135.87209,317.06941 C 134.59510,320.38959 133.31811,340.05529 133.06271,348.73884 C 132.80731,357.42240 138.68148,370.19233 139.19228,371.46932 C 139.70307,372.74632 138.17068,380.91908 137.91528,384.23926 C 137.65988,387.55944 142.51246,401.86177 146.85424,413.35471 L 150.17442,423.31526 L 150.68522,429.70022 L 151.19601,436.34059 L 152.72841,440.68236 L 153.23920,447.57813 L 151.96221,457.53868 L 146.85424,474.39499 C 146.85424,474.39499 151.70681,477.71517 156.04859,477.45977 C 160.39037,477.20437 163.96595,474.13959 163.96595,474.13959 L 163.19975,460.34806 L 163.19975,442.72555 L 167.03073,430.21102 C 167.03073,430.21102 167.28613,422.03826 165.49834,417.44109 C 163.71055,412.84391 162.43355,405.69275 163.19975,401.86177 C 163.96595,398.03079 163.96595,398.03079 163.96595,398.03079 C 163.96595,398.03079 170.86171,402.62796 172.90490,402.62796 C 174.94809,402.62796 183.88704,399.81858 183.88704,399.81858 L 188.22882,416.41949 L 186.18563,425.86924 L 186.95183,433.27580 L 186.18563,440.17157 L 188.22882,443.23635 L 190.78281,460.85886 C 190.78281,460.85886 186.95183,469.03162 187.20723,472.86260 C 187.46262,476.69358 187.71802,480.52456 187.71802,480.52456 C 187.71802,480.52456 201.50955,481.80155 203.04194,481.54615 C 204.57434,481.29075 203.80814,477.45977 203.80814,477.45977 L 202.53115,464.43444 L 199.72176,445.79034 L 202.78655,430.21102 L 208.14992,414.88710 C 208.14992,414.88710 214.53488,390.87962 214.27949,379.38668 C 214.02409,367.89374 214.02409,367.89374 214.02409,367.89374 L 217.59967,354.10222 C 217.59967,354.10222 220.40905,342.35388 218.87666,336.73511 C 217.34427,331.11633 217.34427,331.11633 217.34427,331.11633"
         style="fill:none;fill-opacity:0.75000000;fill-rule:evenodd;stroke:#000000;stroke-width:0.62500000;stroke-linecap:butt;stroke-linejoin:miter;stroke-miterlimit:4.0000000;stroke-dasharray:none;stroke-opacity:1.0000000" />
      <path
         id="path1366"
         d="M 133.82890,285.14457 C 128.21013,288.46476 121.31437,288.20936 116.97259,284.37838 C 112.63081,280.54740 108.03364,275.43942 108.03364,275.43942 L 111.09842,270.58685 C 111.09842,270.58685 118.76038,266.24507 122.33596,266.50047 C 125.91154,266.75587 131.78571,270.33145 131.78571,270.33145 L 131.78571,270.33145"
         style="fill:none;fill-opacity:0.75000000;fill-rule:evenodd;stroke:#000000;stroke-width:0.62500000;stroke-linecap:butt;stroke-linejoin:miter;stroke-miterlimit:4.0000000;stroke-dasharray:none;stroke-opacity:1.0000000" />
      <path
         id="path1368"
         d="M 133.06271,267.52207 C 136.12749,261.90329 135.87209,257.30612 139.70307,255.77373 C 143.53405,254.24133 154.51620,253.21974 156.81478,252.96434 C 159.11337,252.70894 167.79693,253.21974 170.09552,254.24133 C 172.39410,255.26293 175.20349,256.79532 176.48048,259.60471 C 177.75748,262.41409 181.33306,269.30986 181.33306,269.30986"
         style="fill:none;fill-opacity:0.75000000;fill-rule:evenodd;stroke:#000000;stroke-width:0.62500000;stroke-linecap:butt;stroke-linejoin:miter;stroke-miterlimit:4.0000000;stroke-dasharray:none;stroke-opacity:1.0000000" />
      <path
         id="path1370"
         d="M 176.73588,273.90703 C 180.56686,271.60844 193.33679,267.77746 197.16777,270.84225 C 200.99875,273.90703 199.72176,275.69482 199.72176,275.69482 C 199.72176,275.69482 192.31520,291.78494 187.20723,291.01874 C 182.09925,290.25255 178.01287,285.39997 178.01287,285.39997"
         style="fill:none;fill-opacity:0.75000000;fill-rule:evenodd;stroke:#000000;stroke-width:0.62500000;stroke-linecap:butt;stroke-linejoin:miter;stroke-miterlimit:4.0000000;stroke-dasharray:none;stroke-opacity:1.0000000" />
      <path
         id="path1372"
         d="M 169.07392,287.44316 C 169.07392,287.44316 173.92650,283.86758 175.71429,284.63378 C 177.50208,285.39997 177.75748,286.16617 177.75748,286.16617"
         style="fill:none;fill-opacity:0.75000000;fill-rule:evenodd;stroke:#000000;stroke-width:0.62500000;stroke-linecap:butt;stroke-linejoin:miter;stroke-miterlimit:4.0000000;stroke-dasharray:none;stroke-opacity:1.0000000" />
      <path
         id="path1374"
         d="M 139.95847,287.18776 C 137.14909,285.14457 135.10590,284.37838 135.10590,284.37838"
         style="fill:none;fill-opacity:0.75000000;fill-rule:evenodd;stroke:#000000;stroke-width:0.62500000;stroke-linecap:butt;stroke-linejoin:miter;stroke-miterlimit:4.0000000;stroke-dasharray:none;stroke-opacity:1.0000000" />
      <path
         id="path1376"
         d="M 159.87957,319.36800 L 157.32558,321.92198"
         style="fill:none;fill-opacity:0.75000000;fill-rule:evenodd;stroke:#000000;stroke-width:0.62500000;stroke-linecap:butt;stroke-linejoin:miter;stroke-miterlimit:4.0000000;stroke-dasharray:none;stroke-opacity:1.0000000" />
      <path
         id="path1378"
         d="M 146.85424,321.66658 L 144.81105,319.11260"
         style="fill:none;fill-opacity:0.75000000;fill-rule:evenodd;stroke:#000000;stroke-width:0.62500000;stroke-linecap:butt;stroke-linejoin:miter;stroke-miterlimit:4.0000000;stroke-dasharray:none;stroke-opacity:1.0000000" />
      <path
         id="path1380"
         d="M 134.59510,287.44316 C 134.33970,303.27788 139.70307,311.96143 140.21387,314.26002 C 140.72467,316.55861 139.70307,323.19898 140.72467,324.98677 C 141.74626,326.77456 151.70681,334.18112 158.85797,330.60554 C 166.00914,327.02996 168.56312,326.00836 169.07392,319.36800 C 169.58472,312.72763 175.96968,304.55487 176.73588,300.72389 C 177.50208,296.89291 177.50208,288.72016 177.50208,288.72016"
         style="fill:none;fill-opacity:0.75000000;fill-rule:evenodd;stroke:#000000;stroke-width:0.62500000;stroke-linecap:butt;stroke-linejoin:miter;stroke-miterlimit:4.0000000;stroke-dasharray:none;stroke-opacity:1.0000000" />
      <path
         id="path1382"
         d="M 198.70017,269.30986 C 208.66071,266.24507 220.40905,268.28826 223.21844,269.05446 C 226.02782,269.82065 233.94518,270.58685 237.00997,272.11924 C 240.07475,273.65163 246.20432,276.20562 248.75831,279.78120 C 251.31229,283.35678 252.58929,287.95396 253.10008,297.91451 C 253.61088,307.87506 256.42027,326.26376 255.39867,334.43652 C 254.37708,342.60927 245.69352,373.25712 242.88414,376.32190 C 240.07475,379.38668 240.84095,382.70687 240.84095,382.70687 L 238.03156,391.90122 L 236.24377,402.11717 L 239.05316,408.24673 L 233.94518,423.31526 C 233.94518,423.31526 231.90199,438.12838 234.71138,442.72555 C 237.52076,447.32273 236.49917,452.43070 236.49917,452.43070 L 235.73297,456.26168 L 237.00997,462.64665 C 237.00997,462.64665 232.41279,466.22223 227.81561,465.20064 C 223.21844,464.17904 219.13206,461.88045 219.13206,461.88045 L 220.66445,450.89831 L 222.45224,432.76501 L 220.40905,410.03452 L 221.17525,394.19981 L 221.17525,394.19981 L 220.40905,394.19981"
         style="fill:none;fill-opacity:0.75000000;fill-rule:evenodd;stroke:#000000;stroke-width:0.62500000;stroke-linecap:butt;stroke-linejoin:miter;stroke-miterlimit:4.0000000;stroke-dasharray:none;stroke-opacity:1.0000000" />
      <path
         id="path1384"
         d="M 212.74709,402.62796 C 212.74709,402.62796 220.40905,391.64582 222.96304,390.62423 C 225.51703,389.60263 235.98837,382.70687 237.52076,381.68527 C 239.05316,380.66368 239.05316,380.66368 239.05316,380.66368"
         style="fill:none;fill-opacity:0.75000000;fill-rule:evenodd;stroke:#000000;stroke-width:0.62500000;stroke-linecap:butt;stroke-linejoin:miter;stroke-miterlimit:4.0000000;stroke-dasharray:none;stroke-opacity:1.0000000" />
    </g>
    <g
       id="g2460"
       transform="translate(219.0861,281.7638)">
			<circle
   sodipodi:ry="4.0730000"
   sodipodi:rx="4.0730000"
   sodipodi:cy="90.801003"
   sodipodi:cx="49.702000"
   id="circle2462"
   r="4.0730000"
   cy="90.801003"
   cx="49.702000"
   style="fill:#ffffff;stroke:#000000;stroke-width:1.5000000" />
 
			<line
   id="line2464"
   y2="93.521004"
   x2="52.412998"
   y1="88.091003"
   x1="46.981998"
   style="fill:#ffffff;stroke:#000000;stroke-width:1.5000000" />

			<line
   id="line2466"
   y2="88.091003"
   x2="52.412998"
   y1="93.521004"
   x1="46.981998"
   style="fill:#ffffff;stroke:#000000;stroke-width:1.5000000" />

		</g>
    <g
       id="g2564"
       transform="translate(191.6796,391.2597)">
			<circle
   sodipodi:ry="4.0730000"
   sodipodi:rx="4.0730000"
   sodipodi:cy="90.801003"
   sodipodi:cx="49.702000"
   id="circle2566"
   r="4.0730000"
   cy="90.801003"
   cx="49.702000"
   style="fill:#ffffff;stroke:#000000;stroke-width:1.5000000" />
 
			<line
   id="line2568"
   y2="93.521004"
   x2="52.412998"
   y1="88.091003"
   x1="46.981998"
   style="fill:#ffffff;stroke:#000000;stroke-width:1.5000000" />

			<line
   id="line2570"
   y2="88.091003"
   x2="52.412998"
   y1="93.521004"
   x1="46.981998"
   style="fill:#ffffff;stroke:#000000;stroke-width:1.5000000" />

		</g>
    <path
       style="fill:none;fill-opacity:0.75000000;fill-rule:evenodd;stroke:#000000;stroke-width:0.87500000;stroke-linecap:butt;stroke-linejoin:miter;stroke-opacity:1.0000000;stroke-miterlimit:4.0000000;stroke-dasharray:3.5000000,3.5000000;stroke-dashoffset:0.0000000"
       d="M 241.75418,482.06071 L 308.80465,322.25710"
       id="path2574" />
    <path
       style="fill:none;fill-opacity:0.75000000;fill-rule:evenodd;stroke:#000000;stroke-width:0.87500000;stroke-linecap:butt;stroke-linejoin:miter;stroke-miterlimit:4.0000000;stroke-dasharray:3.5000000 3.5000000 ;stroke-dashoffset:0.0000000;stroke-opacity:1.0000000"
       d="M 242.49919,482.24696 L 268.94687,372.73120"
       id="path2576"
       sodipodi:nodetypes="cc" />
    <path
       style="fill:none;fill-opacity:0.75000000;fill-rule:evenodd;stroke:#000000;stroke-width:2.5000000;stroke-linecap:butt;stroke-linejoin:miter;marker-end:url(#Arrow2Mend);stroke-miterlimit:4.0000000;stroke-dasharray:none;stroke-opacity:1.0000000"
       d="M 268.78810,377.01497 L 268.78810,426.18532"
       id="path2578" />
    <path
       style="fill:none;fill-opacity:0.75000000;fill-rule:evenodd;stroke:#000000;stroke-width:2.5000000;stroke-linecap:butt;stroke-linejoin:miter;marker-end:url(#Arrow2Mend);stroke-miterlimit:4.0000000;stroke-dasharray:none;stroke-opacity:1.0000000"
       d="M 307.50089,322.81586 L 284.03323,313.13079"
       id="path2719" />
    <path
       style="fill:#000000;fill-opacity:1.0000000;fill-rule:evenodd;stroke:#000000;stroke-width:2.5000000;stroke-linecap:butt;stroke-linejoin:miter;marker-end:url(#Arrow2Mend);stroke-miterlimit:4.0000000;stroke-dasharray:none;stroke-opacity:1.0000000"
       d="M 241.38168,477.59069 L 241.38168,428.42034"
       id="path2723" />
    <g
       id="g2755"
       transform="translate(19.37013,24.21267)">
      <text
         sodipodi:linespacing="125.00000%"
         id="text2725"
         y="430.65536"
         x="206.36644"
         style="font-size:11.000000px;font-style:normal;font-variant:normal;font-weight:normal;font-stretch:normal;line-height:125.00000%;writing-mode:lr-tb;text-anchor:start;fill:#000000;fill-opacity:1.0000000;stroke:none;stroke-width:1.0000000pt;stroke-linecap:butt;stroke-linejoin:miter;stroke-opacity:1.0000000;font-family:Liberation Sans"
         xml:space="preserve"><tspan
           style="font-size:11.000000px;font-style:normal;font-variant:normal;font-weight:bold;font-stretch:normal;text-align:start;line-height:125.00000%;writing-mode:lr-tb;text-anchor:start;font-family:Liberation Sans"
           y="430.65536"
           x="206.36644"
           id="tspan2727"
           sodipodi:role="line">F</tspan></text>
      <text
         sodipodi:linespacing="125.00000%"
         id="text2729"
         y="435.12537"
         x="210.09146"
         style="font-size:11.000000px;font-style:normal;font-variant:normal;font-weight:normal;font-stretch:normal;line-height:125.00000%;writing-mode:lr-tb;text-anchor:start;fill:#000000;fill-opacity:1.0000000;stroke:none;stroke-width:1.0000000pt;stroke-linecap:butt;stroke-linejoin:miter;stroke-opacity:1.0000000;font-family:Liberation Sans"
         xml:space="preserve"><tspan
           style="font-size:9.0000000px;font-style:normal;font-variant:normal;font-weight:normal;font-stretch:normal;text-align:start;line-height:125.00000%;writing-mode:lr-tb;text-anchor:start;font-family:Liberation Sans"
           y="435.12537"
           x="210.09146"
           id="tspan2731"
           sodipodi:role="line">N</tspan></text>
    </g>
    <text
       xml:space="preserve"
       style="font-size:11.000000px;font-style:normal;font-variant:normal;font-weight:normal;font-stretch:normal;line-height:125.00000%;writing-mode:lr-tb;text-anchor:start;fill:#000000;fill-opacity:1.0000000;stroke:none;stroke-width:1.0000000pt;stroke-linecap:butt;stroke-linejoin:miter;stroke-opacity:1.0000000;font-family:Liberation Sans"
       x="261.22653"
       y="361.40442"
       id="text2733"
       sodipodi:linespacing="125.00000%"><tspan
         sodipodi:role="line"
         id="tspan2735"
         x="261.22653"
         y="361.40442"
         style="font-size:11.000000px;font-style:normal;font-variant:normal;font-weight:bold;font-stretch:normal;text-align:start;line-height:125.00000%;writing-mode:lr-tb;text-anchor:start;font-family:Liberation Sans">F</tspan></text>
    <text
       xml:space="preserve"
       style="font-size:11.000000px;font-style:normal;font-variant:normal;font-weight:normal;font-stretch:normal;line-height:125.00000%;writing-mode:lr-tb;text-anchor:start;fill:#000000;fill-opacity:1.0000000;stroke:none;stroke-width:1.0000000pt;stroke-linecap:butt;stroke-linejoin:miter;stroke-opacity:1.0000000;font-family:Liberation Sans"
       x="266.06906"
       y="365.50192"
       id="text2737"
       sodipodi:linespacing="125.00000%"><tspan
         sodipodi:role="line"
         id="tspan2739"
         x="266.06906"
         y="365.50192"
         style="font-size:9.0000000px;font-style:normal;font-variant:normal;font-weight:normal;font-stretch:normal;text-align:start;line-height:125.00000%;writing-mode:lr-tb;text-anchor:start;font-family:Liberation Sans">W</tspan></text>
    <g
       id="g2749"
       transform="translate(-77.48054,-3.725026)">
      <text
         sodipodi:linespacing="125.00000%"
         id="text2741"
         y="317.0766"
         x="374.83984"
         style="font-size:11.000000px;font-style:normal;font-variant:normal;font-weight:normal;font-stretch:normal;line-height:125.00000%;writing-mode:lr-tb;text-anchor:start;fill:#000000;fill-opacity:1.0000000;stroke:none;stroke-width:1.0000000pt;stroke-linecap:butt;stroke-linejoin:miter;stroke-opacity:1.0000000;font-family:Liberation Sans"
         xml:space="preserve"><tspan
           style="font-size:11.000000px;font-style:normal;font-variant:normal;font-weight:bold;font-stretch:normal;text-align:start;line-height:125.00000%;writing-mode:lr-tb;text-anchor:start;font-family:Liberation Sans"
           y="317.07660"
           x="374.83984"
           id="tspan2743"
           sodipodi:role="line">F</tspan></text>
      <text
         sodipodi:linespacing="125.00000%"
         id="text2745"
         y="321.1741"
         x="378.56485"
         style="font-size:11.000000px;font-style:normal;font-variant:normal;font-weight:normal;font-stretch:normal;line-height:125.00000%;writing-mode:lr-tb;text-anchor:start;fill:#000000;fill-opacity:1.0000000;stroke:none;stroke-width:1.0000000pt;stroke-linecap:butt;stroke-linejoin:miter;stroke-opacity:1.0000000;font-family:Liberation Sans"
         xml:space="preserve"><tspan
           style="font-size:9.0000000px;font-style:normal;font-variant:normal;font-weight:normal;font-stretch:normal;text-align:start;line-height:125.00000%;writing-mode:lr-tb;text-anchor:start;font-family:Liberation Sans"
           y="321.17410"
           x="378.56485"
           id="tspan2747"
           sodipodi:role="line">A</tspan></text>
    </g>
    <text
       xml:space="preserve"
       style="font-size:11.000000px;font-style:normal;font-variant:normal;font-weight:normal;font-stretch:normal;line-height:100.00000%;writing-mode:lr-tb;text-anchor:start;fill:#000000;fill-opacity:1.0000000;stroke:none;stroke-width:1.0000000pt;stroke-linecap:butt;stroke-linejoin:miter;stroke-opacity:1.0000000;font-family:Liberation Sans"
       x="248.45923"
       y="397.87515"
       id="text2761"
       sodipodi:linespacing="100.00000%"><tspan
         sodipodi:role="line"
         id="tspan2763"
         x="248.45923"
         y="397.87515">r</tspan></text>
    <text
       xml:space="preserve"
       style="font-size:11.000000px;font-style:normal;font-variant:normal;font-weight:normal;font-stretch:normal;line-height:125.00000%;writing-mode:lr-tb;text-anchor:start;fill:#000000;fill-opacity:1.0000000;stroke:none;stroke-width:1.0000000pt;stroke-linecap:butt;stroke-linejoin:miter;stroke-opacity:1.0000000;font-family:Liberation Sans"
       x="251.81175"
       y="401.60016"
       id="text2765"
       sodipodi:linespacing="125.00000%"><tspan
         sodipodi:role="line"
         id="tspan2767"
         x="251.81175"
         y="401.60016"
         style="font-size:9.0000000px;font-style:normal;font-variant:normal;font-weight:normal;font-stretch:normal;text-align:start;line-height:125.00000%;writing-mode:lr-tb;text-anchor:start;font-family:Liberation Sans">W</tspan></text>
    <text
       xml:space="preserve"
       style="font-size:11.000000px;font-style:normal;font-variant:normal;font-weight:normal;font-stretch:normal;line-height:100.00000%;writing-mode:lr-tb;text-anchor:start;fill:#000000;fill-opacity:1.0000000;stroke:none;stroke-width:1.0000000pt;stroke-linecap:butt;stroke-linejoin:miter;stroke-opacity:1.0000000;font-family:Liberation Sans"
       x="281.09399"
       y="398.72046"
       id="text2769"
       sodipodi:linespacing="100.00000%"><tspan
         sodipodi:role="line"
         id="tspan2771"
         x="281.09399"
         y="398.72046">r</tspan></text>
    <text
       xml:space="preserve"
       style="font-size:11.000000px;font-style:normal;font-variant:normal;font-weight:normal;font-stretch:normal;line-height:125.00000%;writing-mode:lr-tb;text-anchor:start;fill:#000000;fill-opacity:1.0000000;stroke:none;stroke-width:1.0000000pt;stroke-linecap:butt;stroke-linejoin:miter;stroke-opacity:1.0000000;font-family:Liberation Sans"
       x="284.4465"
       y="402.44547"
       id="text2773"
       sodipodi:linespacing="125.00000%"><tspan
         sodipodi:role="line"
         id="tspan2775"
         x="284.44650"
         y="402.44547"
         style="font-size:9.0000000px;font-style:normal;font-variant:normal;font-weight:normal;font-stretch:normal;text-align:start;line-height:125.00000%;writing-mode:lr-tb;text-anchor:start;font-family:Liberation Sans">A</tspan></text>
  </g>
</svg>
