<?xml version="1.0" encoding="iso-8859-1"?>
<!-- Generator: Adobe Illustrator 11 Build 196, SVG Export Plug-In . SVG Version: 6.0.0 Build 78)  -->
<!DOCTYPE svg PUBLIC "-//W3C//DTD SVG 1.0//EN"    "http://www.w3.org/TR/2001/REC-SVG-20010904/DTD/svg10.dtd" [
	<!ENTITY ns_flows "http://ns.adobe.com/Flows/1.0/">
	<!ENTITY ns_svg "http://www.w3.org/2000/svg">
	<!ENTITY ns_xlink "http://www.w3.org/1999/xlink">
]>
<svg  
	 width="320.315" height="43.414" viewBox="0 0 320.315 43.414" style="overflow:visible;enable-background:new 0 0 320.315 43.414"
	 xml:space="preserve">
	<style type="text/css">
	
	</style>
	<g id="Layer_1">
		<g>
			<g>
				<path style="fill:none;stroke:#000000;stroke-width:0.5;" d="M135.039,16.479c-25.199,1.974-43.11,7.003-43.11,12.896
					c0,7.615,29.918,13.789,66.822,13.789s66.822-6.174,66.822-13.789c0-7.615-29.918-13.789-66.822-13.789
					c-6.144,0-12.095,0.171-17.746,0.491"/>
				<path d="M137.99,16.252c1.388-0.606,3.096-1.604,4.132-2.616l-0.724,2.422l0.993,2.325
					C141.247,17.496,139.437,16.698,137.99,16.252z"/>
			</g>
			<circle cx="100.821" cy="29.375" r="1.178"/> 
			<circle cx="135.155" cy="16.333" r="1.178"/> 
			<g>
				<g>
					<text transform="matrix(1 0 0 1 105.3335 32.6665)"><tspan x="0" y="0" style="font-family:Liberation Sans; font-size:7.650000;">sun</tspan></text>
				</g>
			</g>
			<g>
				<g>
					<text transform="matrix(1 0 0 1 125.3335 9)"><tspan x="0" y="0" style="font-family:Liberation Sans; font-size:7.650000;">comet</tspan></text>
				</g>
			</g>
		</g>
		<rect y="29.854" style="fill:none;" width="320.315" height="2.834"/> 
	</g>
</svg>
