<?xml version="1.0" encoding="iso-8859-1"?>
<!-- Generator: Adobe Illustrator 11 Build 196, SVG Export Plug-In . SVG Version: 6.0.0 Build 78)  -->
<!DOCTYPE svg PUBLIC "-//W3C//DTD SVG 1.0//EN"    "http://www.w3.org/TR/2001/REC-SVG-20010904/DTD/svg10.dtd" [
	<!ENTITY ns_flows "http://ns.adobe.com/Flows/1.0/">
	<!ENTITY ns_svg "http://www.w3.org/2000/svg">
	<!ENTITY ns_xlink "http://www.w3.org/1999/xlink">
]>
<svg  
	 width="131.493" height="99.7" viewBox="0 0 131.493 99.7" style="overflow:visible;enable-background:new 0 0 131.493 99.7"
	 xml:space="preserve">
	<g id="Layer_1">
		<line style="fill:none;stroke:#000000;" x1="114.843" y1="54.4" x2="121.644" y2="22.4"/>
		<path style="fill:#7F7F7F;" d="M115.843,42.841c-1.093,0-1.98,1.773-1.98,3.96c0,0.348,0.03,0.679,0.072,1.001l-0.887-1.002
			l-9.948,8.811l-9.021-4.023l0.392-0.831l-3.028-1.429c1.546-1.05,2.995-3.564,3.67-6.691c0.956-4.428-0.001-8.392-2.139-8.854
			c-2.138-0.462-4.646,2.754-5.602,7.182c-0.536,2.482-0.47,4.818,0.068,6.474l-2.917-1.376l-7.789,16.505l-0.724-0.114
			l-3.062,19.359l3.895,0.616V82.8h11.2V64.378l4.124-8.739l12.335,5.502l0.674-1.511l0.062,0.071l10.194-9.029
			c0.132,0.056,0.27,0.088,0.411,0.088c1.093,0,1.98-1.773,1.98-3.96S116.937,42.841,115.843,42.841z"/>
		<path d="M62.443,16.418c20.776,0,40.144-6.024,56.457-16.418H5.986C22.3,10.393,41.667,16.418,62.443,16.418z"/>
		<rect x="37.243" y="71.2" style="fill:#DCDCDC;stroke:#000000;" width="51.6" height="28"/> 
		<line style="fill:#DCDCDC;stroke:#000000;stroke-width:0.5;" x1="43.243" y1="77.92" x2="43.243" y2="95.121"/>
		<line style="fill:#DCDCDC;stroke:#000000;stroke-width:0.5;" x1="57.243" y1="77.92" x2="57.243" y2="95.121"/>
		<line style="fill:#DCDCDC;stroke:#000000;stroke-width:0.5;" x1="73.243" y1="77.92" x2="73.243" y2="95.121"/>
		<line style="fill:#DCDCDC;stroke:#000000;stroke-width:0.5;" x1="82.443" y1="77.92" x2="82.443" y2="95.121"/>
		<line style="fill:#DCDCDC;stroke:#000000;stroke-width:0.5;" x1="40.043" y1="77.92" x2="40.043" y2="95.121"/>
		<line style="fill:#DCDCDC;stroke:#000000;stroke-width:0.5;" x1="38.843" y1="82.4" x2="48.043" y2="82.4"/>
		<line style="fill:#DCDCDC;stroke:#000000;stroke-width:0.5;" x1="54.443" y1="92" x2="67.243" y2="92"/>
		<line style="fill:#DCDCDC;stroke:#000000;stroke-width:0.5;" x1="68.043" y1="86.4" x2="86.843" y2="86.4"/>
		<line style="fill:none;stroke:#000000;" x1="0.443" y1="0.8" x2="37.243" y2="71.2"/>
		<line style="fill:none;stroke:#000000;" x1="88.843" y1="71.2" x2="124.043" y2="0.8"/>
		<line style="fill:none;stroke:#000000;" x1="53.643" y1="70.4" x2="40.843" y2="8"/>
		<path style="fill:none;stroke:#000000;" d="M73.243,70.8c0-1.6,13.6-64.4,13.6-64.4"/>
		<path style="fill:#DCDCDC;stroke:#000000;" d="M121.793,22.25c1.2,5.6,9.2,7.2,9.2,10.4s-1.6,12.4-1.6,12.4s-6.15-6.65-7.75-11.05
			c-1.6-4.4-0.25-10.55-0.25-10.55"/>
	</g>
</svg>
