<?xml version="1.0" encoding="iso-8859-1"?>
<!-- Generator: Adobe Illustrator 11 Build 196, SVG Export Plug-In . SVG Version: 6.0.0 Build 78)  -->
<!DOCTYPE svg PUBLIC "-//W3C//DTD SVG 1.0//EN"    "http://www.w3.org/TR/2001/REC-SVG-20010904/DTD/svg10.dtd" [
	<!ENTITY ns_flows "http://ns.adobe.com/Flows/1.0/">
	<!ENTITY ns_svg "http://www.w3.org/2000/svg">
	<!ENTITY ns_xlink "http://www.w3.org/1999/xlink">
]>
<svg  
	 width="263.29" height="172.677" viewBox="0 0 263.29 172.677" style="overflow:visible;enable-background:new 0 0 263.29 172.677"
	 xml:space="preserve">
	<style type="text/css">
	
	</style>
	<g id="Layer_1">
		<g>
			<g>
				<rect x="100.038" y="8.228" style="fill:#DCDCDC;" width="74.357" height="45.621"/> 
				<line style="fill:none;stroke:#000000;stroke-width:0.5;" x1="100.288" y1="8.228" x2="100.288" y2="53.849"/>
				<line style="fill:none;stroke:#000000;stroke-width:0.5;" x1="174.395" y1="31.039" x2="100.038" y2="31.039"/>
			</g>
			<g>
				<rect x="100.038" y="59.844" style="fill:#DCDCDC;" width="74.357" height="45.621"/> 
				<line style="fill:none;stroke:#000000;stroke-width:0.5;" x1="100.288" y1="59.844" x2="100.288" y2="105.464"/>
				<line style="fill:none;stroke:#000000;stroke-width:0.5;" x1="174.395" y1="82.654" x2="100.038" y2="82.654"/>
			</g>
			<g>
				<rect x="100.038" y="111.459" style="fill:#DCDCDC;" width="74.357" height="45.621"/> 
				<line style="fill:none;stroke:#000000;stroke-width:0.5;" x1="100.288" y1="111.459" x2="100.288" y2="157.08"/>
				<line style="fill:none;stroke:#000000;stroke-width:0.5;" x1="174.395" y1="134.27" x2="100.038" y2="134.27"/>
			</g>
		</g>
		<g>
			<g>
				<rect x="10.705" y="8.228" style="fill:#DCDCDC;" width="74.357" height="45.621"/> 
				<line style="fill:none;stroke:#000000;stroke-width:0.5;" x1="10.955" y1="8.228" x2="10.955" y2="53.849"/>
				<line style="fill:none;stroke:#000000;stroke-width:0.5;" x1="85.062" y1="31.039" x2="10.705" y2="31.039"/>
			</g>
			<g>
				<rect x="10.705" y="59.844" style="fill:#DCDCDC;" width="74.357" height="45.621"/> 
				<line style="fill:none;stroke:#000000;stroke-width:0.5;" x1="10.955" y1="59.844" x2="10.955" y2="105.464"/>
				<line style="fill:none;stroke:#000000;stroke-width:0.5;" x1="85.062" y1="82.654" x2="10.705" y2="82.654"/>
			</g>
			<g>
				<rect x="10.705" y="111.459" style="fill:#DCDCDC;" width="74.357" height="45.621"/> 
				<line style="fill:none;stroke:#000000;stroke-width:0.5;" x1="10.955" y1="111.459" x2="10.955" y2="157.08"/>
				<line style="fill:none;stroke:#000000;stroke-width:0.5;" x1="85.062" y1="134.27" x2="10.705" y2="134.27"/>
			</g>
		</g>
		<g>
			<text transform="matrix(1 0 0 1 45.3833 168.6602)"><tspan x="0" y="0" style="font-family:Liberation Sans; font-size:7.650000;">t</tspan></text>
		</g>
		<g>
			<text transform="matrix(1 0 0 1 0.2515 76.9165)"><tspan x="0" y="0" style="font-family:Liberation Sans; font-size:7.650000;">v</tspan></text>
		</g>
		<g>
			<text transform="matrix(1 0 0 1 0.2515 24.6953)"><tspan x="0" y="0" style="font-family:Liberation Sans; font-size:7.650000;">x</tspan></text>
		</g>
		<g>
			<text transform="matrix(1 0 0 1 0 129.3105)"><tspan x="0" y="0" style="font-family:Liberation Sans; font-size:7.650000;">a</tspan></text>
		</g>
		<line style="fill:none;stroke:#000000;stroke-miterlimit:1;" x1="11.529" y1="30.998" x2="84.196" y2="11.331"/>
		<line style="fill:none;stroke:#000000;stroke-miterlimit:1;" x1="11.071" y1="134.519" x2="83.737" y2="114.852"/>
		<line style="fill:none;stroke:#000000;stroke-miterlimit:1;" x1="11.716" y1="82.831" x2="84.383" y2="63.165"/>
		<g>
			<text transform="matrix(1 0 0 1 137.8604 168.6602)"><tspan x="0" y="0" style="font-family:Liberation Sans; font-size:7.650000;">t</tspan></text>
		</g>
		<g>
			<text transform="matrix(1 0 0 1 92.729 73.7256)"><tspan x="0" y="0" style="font-family:Liberation Sans; font-size:7.650000;">v</tspan></text>
		</g>
		<g>
			<text transform="matrix(1 0 0 1 92.729 24.6953)"><tspan x="0" y="0" style="font-family:Liberation Sans; font-size:7.650000;">x</tspan></text>
		</g>
		<g>
			<text transform="matrix(1 0 0 1 92.4775 126.1196)"><tspan x="0" y="0" style="font-family:Liberation Sans; font-size:7.650000;">a</tspan></text>
		</g>
		<g>
			<g>
				<rect x="187.858" y="8.628" style="fill:#DCDCDC;" width="74.357" height="45.621"/> 
				<line style="fill:none;stroke:#000000;stroke-width:0.5;" x1="188.108" y1="8.628" x2="188.108" y2="54.249"/>
				<line style="fill:none;stroke:#000000;stroke-width:0.5;" x1="262.215" y1="31.438" x2="187.858" y2="31.438"/>
			</g>
			<g>
				<rect x="187.858" y="60.243" style="fill:#DCDCDC;" width="74.357" height="45.621"/> 
				<line style="fill:none;stroke:#000000;stroke-width:0.5;" x1="188.108" y1="60.243" x2="188.108" y2="105.864"/>
				<line style="fill:none;stroke:#000000;stroke-width:0.5;" x1="262.215" y1="83.054" x2="187.858" y2="83.054"/>
			</g>
			<g>
				<rect x="187.858" y="111.859" style="fill:#DCDCDC;" width="74.357" height="45.621"/> 
				<line style="fill:none;stroke:#000000;stroke-width:0.5;" x1="188.108" y1="111.859" x2="188.108" y2="157.48"/>
				<line style="fill:none;stroke:#000000;stroke-width:0.5;" x1="262.215" y1="134.669" x2="187.858" y2="134.669"/>
			</g>
		</g>
		<g>
			<text transform="matrix(1 0 0 1 225.6807 168.6602)"><tspan x="0" y="0" style="font-family:Liberation Sans; font-size:7.650000;">t</tspan></text>
		</g>
		<g>
			<text transform="matrix(1 0 0 1 180.5488 74.1255)"><tspan x="0" y="0" style="font-family:Liberation Sans; font-size:7.650000;">v</tspan></text>
		</g>
		<g>
			<text transform="matrix(1 0 0 1 180.5488 24.6953)"><tspan x="0" y="0" style="font-family:Liberation Sans; font-size:7.650000;">x</tspan></text>
		</g>
		<g>
			<text transform="matrix(1 0 0 1 180.2974 126.5195)"><tspan x="0" y="0" style="font-family:Liberation Sans; font-size:7.650000;">a</tspan></text>
		</g>
		<polyline style="fill:none;stroke:#000000;stroke-miterlimit:1;" points="189.05,82.891 196.143,77.149 203.237,71.6 
			211.04,65.858 218.134,65.858 225.228,65.858 233.03,65.858 240.124,65.858 247.927,71.6 255.021,77.149 262.823,82.891 "/>
		<g>
			<path style="fill:none;stroke:#000000;stroke-linecap:square;stroke-miterlimit:1;" d="M188.762,53.674
				c7.271,0,11.764-2.705,22.227-9.878"/>
			<path style="fill:none;stroke:#000000;stroke-linecap:square;stroke-miterlimit:1;" d="M239.836,23.563
				c11.499-7.756,22.925-7.092,22.925-7.092"/>
			
				<line style="fill:none;stroke:#000000;stroke-linecap:square;stroke-miterlimit:1;" x1="239.836" y1="23.686" x2="210.871" y2="43.918"/>
		</g>
		<g>
			<path style="fill:none;stroke:#000000;" d="M188.023,133.908c21.676,0,6.864-13.333,36.849-13.333"/>
			<path style="fill:none;stroke:#000000;" d="M261.667,133.908c-21.676,0-6.864-13.333-36.849-13.333"/>
		</g>
		<path style="fill:none;stroke:#000000;stroke-linecap:square;stroke-miterlimit:1;" d="M101.411,48.728
			c22.589,0.018,45.884-11.86,72.247-35.487"/>
		<line style="fill:none;stroke:#000000;stroke-miterlimit:1;" x1="100.966" y1="82.821" x2="173.633" y2="63.154"/>
		<line style="fill:none;stroke:#000000;stroke-miterlimit:1;" x1="101.029" y1="133.571" x2="173.696" y2="113.904"/>
		
			<circle style="fill:#FFFFFF;stroke:#000000;stroke-width:0.5;stroke-linecap:square;stroke-miterlimit:1;" cx="29.687" cy="6.614" r="6.364"/> 
		<g>
			<text transform="matrix(1 0 0 1 27.1851 9.854)"><tspan x="0" y="0" style="font-family:Liberation Sans; font-size:7.650000;">1</tspan></text>
		</g>
		
			<circle style="fill:#FFFFFF;stroke:#000000;stroke-width:0.5;stroke-linecap:square;stroke-miterlimit:1;" cx="122.174" cy="6.614" r="6.364"/> 
		<g>
			<text transform="matrix(1 0 0 1 119.6724 9.854)"><tspan x="0" y="0" style="font-family:Liberation Sans; font-size:7.650000;">2</tspan></text>
		</g>
		
			<circle style="fill:#FFFFFF;stroke:#000000;stroke-width:0.5;stroke-linecap:square;stroke-miterlimit:1;" cx="201.687" cy="6.614" r="6.364"/> 
		<g>
			<text transform="matrix(1 0 0 1 199.1851 9.854)"><tspan x="0" y="0" style="font-family:Liberation Sans; font-size:7.650000;">3</tspan></text>
		</g>
	</g>
</svg>
