<?xml version="1.0" encoding="iso-8859-1"?>
<!-- Generator: Adobe Illustrator 11 Build 196, SVG Export Plug-In . SVG Version: 6.0.0 Build 78)  -->
<!DOCTYPE svg PUBLIC "-//W3C//DTD SVG 1.0//EN"    "http://www.w3.org/TR/2001/REC-SVG-20010904/DTD/svg10.dtd" [
	<!ENTITY ns_flows "http://ns.adobe.com/Flows/1.0/">
	<!ENTITY ns_svg "http://www.w3.org/2000/svg">
	<!ENTITY ns_xlink "http://www.w3.org/1999/xlink">
]>
<svg  
	 width="320.315" height="84.462" viewBox="0 0 320.315 84.462" style="overflow:visible;enable-background:new 0 0 320.315 84.462"
	 xml:space="preserve">
	<g id="Layer_1">
		<g>
			<g>
				<path style="fill:#74D0E4;" d="M136.196,70.535l0.6-4.2l-13.2-1.2l-14.1-1.5l-9.6-5.1l-5.7-6.9l-5.293-7.915l-1.512-19.278
					l5.67-22.68l-22.68-1.134l-2.268,21.924c0,0,2.268,7.56,2.268,8.694c0,1.134-0.378,9.828-0.378,10.962
					c0,0.783,0.18,6.439,0.292,9.86c-1.636,1.41-6.888,5.867-7.899,5.867c-1.2,0-5.4,0.9-6.3,0.6c-0.9-0.3-8.7,3-8.7,3l-5.7,2.7
					l-15,4.5l-9.3,1.5l-0.3,3.6l5.1,3l11.1-2.1l16.5,0.448l10.8,1.952l47.7-1.8l3.6,0.3c0,0,13.8,1.8,21.9,1.8
					S136.196,70.535,136.196,70.535z"/>
				<path style="fill:#EDEDED;stroke:#000000;stroke-width:0.5;" d="M81.673,49.084h-0.977h-0.45h-0.977
					c-1.778,14.703-14.291,26.098-29.474,26.098v8.402h30.45h0.45h30.45v-8.402C95.964,75.183,83.451,63.787,81.673,49.084z"/>
				<g>
					<line style="fill:none;stroke:#000000;" x1="96.597" y1="7.835" x2="96.597" y2="25.834"/>
					<path d="M96.597,28.55c-0.474-1.277-1.283-2.863-2.14-3.846l2.14,0.774l2.14-0.774C97.88,25.687,97.071,27.273,96.597,28.55z"
						/>
				</g>
				<g>
					<line style="fill:none;stroke:#000000;" x1="62.397" y1="7.835" x2="62.397" y2="25.834"/>
					<path d="M62.397,28.55c-0.474-1.277-1.283-2.863-2.14-3.846l2.14,0.774l2.14-0.774C63.68,25.687,62.871,27.273,62.397,28.55z"
						/>
				</g>
				<g>
					<line style="fill:none;stroke:#000000;" x1="115.727" y1="54.915" x2="133.727" y2="54.915"/>
					<path d="M136.442,54.915c-1.278,0.474-2.863,1.283-3.846,2.14l0.774-2.14l-0.774-2.14
						C133.579,53.631,135.165,54.44,136.442,54.915z"/>
				</g>
				<g>
					<line style="fill:none;stroke:#000000;" x1="43.513" y1="54.915" x2="25.513" y2="54.915"/>
					<path d="M22.797,54.915c1.278,0.474,2.863,1.283,3.846,2.14l-0.774-2.14l0.774-2.14C25.661,53.631,24.075,54.44,22.797,54.915z
						"/>
				</g>
			</g>
			<g>
				<path style="fill:#74D0E4;" d="M293.409,29.163l2.1,13.5l-6.9,9.6c0,0-6.6,7.2-7.8,9.3s-6.6-0.6-7.8-1.2
					c-1.2-0.6-5.7,3.9-5.7,3.9l-10.8-5.7l-7.2-6l-3.075-9.471l-1.512-19.278l5.67-22.68L227.712,0l-2.268,21.924
					c0,0,2.268,7.56,2.268,8.694c0,1.134-0.378,9.828-0.378,10.962c0,0.162,0.008,0.537,0.021,1.052l-1.146,0.931l-5.1,8.1
					l-12.3,8.7l-13.5-2.1l-7.8-7.2l-2.7-9.6l3.9-6.6l-10.5,0.9l-2.7,4.5l0.9,8.4l1.2,9l2.7,22.5l106.5-0.6l9.6-15l1.5-17.1l3.9-10.2
					v-12L293.409,29.163z"/>
				<path style="fill:#EDEDED;stroke:#000000;stroke-width:0.5;" d="M297.533,49.712c-1.772,14.654-14.209,26.02-29.324,26.095
					c-15.114-0.075-27.551-11.441-29.323-26.095h-0.977h-0.45h-0.977c-1.771,14.642-14.188,26-29.286,26.094
					c-15.097-0.094-27.516-11.452-29.286-26.094h-1.426v34.5h30.525h0.375h30.075h0.45h30.15h0.3h30.6v-34.5H297.533z"/>
				<g>
					<line style="fill:none;stroke:#000000;" x1="255.38" y1="7.59" x2="255.38" y2="25.59"/>
					<path d="M255.38,28.306c-0.474-1.278-1.283-2.863-2.14-3.846l2.14,0.773l2.14-0.773
						C256.664,25.443,255.854,27.028,255.38,28.306z"/>
				</g>
				<g>
					<line style="fill:none;stroke:#000000;" x1="219.389" y1="7.59" x2="219.389" y2="25.59"/>
					<path d="M219.389,28.306c-0.474-1.278-1.284-2.863-2.14-3.846l2.14,0.773l2.139-0.773
						C220.672,25.443,219.863,27.028,219.389,28.306z"/>
				</g>
				<g>
					<line style="fill:none;stroke:#000000;" x1="288.909" y1="39.679" x2="288.909" y2="21.679"/>
					<path d="M288.909,18.963c0.474,1.278,1.283,2.863,2.14,3.846l-2.14-0.774l-2.14,0.774
						C287.626,21.826,288.435,20.241,288.909,18.963z"/>
				</g>
				<g>
					<line style="fill:none;stroke:#000000;" x1="187.209" y1="39.679" x2="187.209" y2="21.679"/>
					<path d="M187.209,18.963c0.474,1.278,1.284,2.863,2.14,3.846l-2.14-0.774l-2.139,0.774
						C185.927,21.826,186.736,20.241,187.209,18.963z"/>
				</g>
			</g>
		</g>
		<rect y="58.174" style="fill:none;" width="320.315" height="2.834"/> 
	</g>
</svg>
