<?xml version="1.0" encoding="UTF-8" standalone="no"?>
<!-- Generator: Adobe Illustrator 11 Build 196, SVG Export Plug-In . SVG Version: 6.0.0 Build 78)  -->
<svg
   xmlns:dc="http://purl.org/dc/elements/1.1/"
   xmlns:cc="http://web.resource.org/cc/"
   xmlns:rdf="http://www.w3.org/1999/02/22-rdf-syntax-ns#"
   xmlns:svg="http://www.w3.org/2000/svg"
   xmlns="http://www.w3.org/2000/svg"
   xmlns:sodipodi="http://inkscape.sourceforge.net/DTD/sodipodi-0.dtd"
   xmlns:inkscape="http://www.inkscape.org/namespaces/inkscape"
   width="200.252"
   height="116.033"
   viewBox="0 0 200.252 116.033"
   style="overflow:visible;enable-background:new 0 0 200.252 116.033"
   xml:space="preserve"
   id="svg2"
   sodipodi:version="0.32"
   sodipodi:docname="dq-saxophone-2.svg"
   sodipodi:docbase="/home/bcrowell/Documents/writing/lm/trunk/1np/ch04/figs"><metadata
   id="metadata105"><rdf:RDF><cc:Work
       rdf:about=""><dc:format>image/svg+xml</dc:format><dc:type
         rdf:resource="http://purl.org/dc/dcmitype/StillImage" /></cc:Work></rdf:RDF></metadata><defs
   id="defs103">
		
			<radialGradient
   gradientUnits="userSpaceOnUse"
   gradientTransform="translate(-0.175300,284.6729)"
   fy="-192.2319"
   fx="70.874"
   r="6.8943"
   cy="-192.2319"
   cx="70.874"
   id="XMLID_14_">
			<stop
   id="stop8"
   style="stop-color:#F8F8F8"
   offset="0" />
			<stop
   id="stop10"
   style="stop-color:#C7C7C7"
   offset="1" />
			<midPointStop
   id="midPointStop12"
   style="stop-color:#F8F8F8"
   offset="0" />
			<midPointStop
   id="midPointStop14"
   style="stop-color:#F8F8F8"
   offset="0.5" />
			<midPointStop
   id="midPointStop16"
   style="stop-color:#C7C7C7"
   offset="1" />
		</radialGradient>
		
		
		
		
		
		
		
		
		
		
		
		
		
		
		
		
	</defs><sodipodi:namedview
   inkscape:cy="42.611180"
   inkscape:cx="101.34551"
   inkscape:zoom="2.1035278"
   inkscape:window-height="510"
   inkscape:window-width="712"
   inkscape:pageshadow="2"
   inkscape:pageopacity="0.0"
   borderopacity="1.0"
   bordercolor="#666666"
   pagecolor="#ffffff"
   id="base"
   inkscape:window-x="284"
   inkscape:window-y="284"
   inkscape:current-layer="svg2" />
	<style
   type="text/css"
   id="style4">
	
	</style>
	<path
   id="path18"
   d="M 112.95100,6.7100000 C 105.63900,6.7100000 97.883000,0.49600000 84.026000,1.5100000 C 70.701000,2.4850000 74.520000,54.810000 74.520000,67.241000 C 74.520000,79.672000 74.520000,89.178000 67.939000,89.178000 C 61.358000,89.178000 60.627000,76.747000 63.552000,74.553000 C 66.477000,72.359000 40.883000,71.628000 43.077000,74.553000 C 45.271000,77.478000 46.733000,105.99600 66.477000,105.99600 C 86.221000,105.99600 84.108000,70.896000 83.377000,57.734000 C 82.646000,44.572000 80.127000,14.835000 84.677000,9.9600000 C 88.606000,5.7500000 101.00800,9.3100000 106.12700,9.3100000 C 111.24600,9.3100000 112.95100,6.7100000 112.95100,6.7100000 z "
   style="fill:url(#XMLID_14_);stroke:#000000;stroke-width:0.50000000" /><path
   id="path20"
   d="M 44.003000,75.490000 C 46.907000,76.711000 59.754000,78.105000 63.017000,75.530000"
   style="fill:#dcdcdc;stroke:#000000;stroke-width:0.50000000" /><g
   id="g22">
			<line
   id="line24"
   y2="5.0000000"
   x2="176.24699"
   y1="5.0000000"
   x1="80.247002"
   style="fill:none;stroke:#000000;stroke-width:3.0000000" />
			<path
   id="path26"
   d="M 182.58400,5.0000000 C 179.60300,6.1060000 175.90200,7.9940000 173.61000,9.9930000 L 175.41600,5.0000000 L 173.61000,0.0070000000 C 175.90200,2.0060000 179.60300,3.8940000 182.58400,5.0000000 z " />
		</g><g
   id="g28">
			<text
   id="text30"
   transform="translate(186.2471,9.000000)"><tspan
     id="tspan32"
     style="font-size:7.6500001px;font-family:Liberation Sans"
     y="0"
     x="0">8 N</tspan></text>

		</g><g
   id="g34">
			<text
   id="text36"
   transform="translate(19.74660,45.23970)"><tspan
     id="tspan38"
     style="font-size:7.6500001px;font-family:Liberation Sans"
     y="0"
     x="0">2 N</tspan></text>

		</g><g
   id="g40">
			<line
   id="line42"
   y2="14.438000"
   x2="48.292999"
   y1="19.820000"
   x1="78.821999"
   style="fill:none;stroke:#000000;stroke-width:3.0000000" />
			<path
   id="path44"
   d="M 42.053000,13.337000 C 45.181000,12.765000 49.153000,11.548000 51.758000,9.9780000 L 49.112000,14.582000 L 50.024000,19.812000 C 48.113000,17.446000 44.797000,14.944000 42.053000,13.337000 z " />
		</g><g
   id="g46">
			<line
   id="line48"
   y2="35.213001"
   x2="108.59200"
   y1="29.830999"
   x1="78.063004"
   style="fill:none;stroke:#000000;stroke-width:3.0000000" />
			<path
   id="path50"
   d="M 114.83300,36.314000 C 111.70500,36.886000 107.73300,38.103000 105.12800,39.672000 L 107.77400,35.068000 L 106.86200,29.838000 C 108.77300,32.205000 112.08900,34.707000 114.83300,36.314000 z " />
		</g><g
   id="g52">
			<text
   id="text54"
   transform="translate(120.0000,41.01610)"><tspan
     id="tspan56"
     style="font-size:7.6500001px;font-family:Liberation Sans"
     y="0"
     x="0">3 N</tspan></text>

		</g><g
   id="g58">
			<text
   id="text60"
   transform="translate(23.00000,13.01610)"><tspan
     id="tspan62"
     style="font-size:7.6500001px;font-family:Liberation Sans"
     y="0"
     x="0">3 N</tspan></text>

		</g><g
   id="g64">
			<line
   id="line66"
   y2="42.016998"
   x2="52.167999"
   y1="42.016998"
   x1="77.167999"
   style="fill:none;stroke:#000000;stroke-width:3.0000000" />
			<path
   id="path68"
   d="M 45.832000,42.017000 C 48.813000,40.911000 52.514000,39.023000 54.806000,37.024000 L 53.000000,42.017000 L 54.806000,47.010000 C 52.513000,45.011000 48.813000,43.123000 45.832000,42.017000 z " />
		</g><g
   id="g70">
			<line
   id="line72"
   y2="72.100998"
   x2="112.76400"
   y1="92.099998"
   x1="78.123001"
   style="fill:none;stroke:#000000;stroke-width:3.0000000" />
			<path
   id="path74"
   d="M 118.25200,68.932000 C 116.22300,71.381000 113.96300,74.866000 112.97700,77.743000 L 112.04400,72.516000 L 107.98400,69.095000 C 110.96900,69.680000 115.11700,69.465000 118.25200,68.932000 z " />
		</g><g
   id="g76">
			<line
   id="line78"
   y2="104.04300"
   x2="19.861000"
   y1="84.043999"
   x1="54.501999"
   style="fill:none;stroke:#000000;stroke-width:3.0000000" />
			<path
   id="path80"
   d="M 14.373000,107.21100 C 16.402000,104.76200 18.662000,101.27700 19.648000,98.400000 L 20.581000,103.62700 L 24.641000,107.04800 C 21.656000,106.46400 17.508000,106.67900 14.373000,107.21100 z " />
		</g><g
   id="g82">
			<text
   id="text84"
   transform="translate(125.0000,71.01610)"><tspan
     id="tspan86"
     style="font-size:7.6500001px;font-family:Liberation Sans"
     y="0"
     x="0">4 N</tspan></text>

		</g><g
   id="g88">
			<text
   id="text90"
   transform="translate(0.000000,112.0161)"><tspan
     id="tspan92"
     style="font-size:7.6500001px;font-family:Liberation Sans"
     y="0"
     x="0">4 N</tspan></text>

		</g><g
   id="g96">
			<line
   id="line98"
   y2="64.140999"
   x2="81.281998"
   y1="69.797997"
   x1="75.625000"
   style="fill:none;stroke:#000000;stroke-width:3.0000000" />
			<line
   id="line100"
   y2="64.140999"
   x2="75.625000"
   y1="69.797997"
   x1="81.281998"
   style="fill:none;stroke:#000000;stroke-width:3.0000000" />
		</g>
</svg>