<?xml version="1.0" encoding="iso-8859-1"?>
<!-- Generator: Adobe Illustrator 11 Build 196, SVG Export Plug-In . SVG Version: 6.0.0 Build 78)  -->
<!DOCTYPE svg PUBLIC "-//W3C//DTD SVG 1.0//EN"    "http://www.w3.org/TR/2001/REC-SVG-20010904/DTD/svg10.dtd" [
	<!ENTITY ns_flows "http://ns.adobe.com/Flows/1.0/">
	<!ENTITY ns_svg "http://www.w3.org/2000/svg">
	<!ENTITY ns_xlink "http://www.w3.org/1999/xlink">
]>
<svg  
	 width="320.315" height="132.596" viewBox="0 0 320.315 132.596"
	 style="overflow:visible;enable-background:new 0 0 320.315 132.596" xml:space="preserve">
	<style type="text/css">
	
	</style>
	<g id="Layer_1">
		<g>
			<rect x="83.46" y="27.025" style="fill:#93DCEB;stroke:#000000;stroke-width:0.5;" width="42.707" height="9.72"/> 
			<rect x="83.46" y="51.224" style="fill:#93DCEB;stroke:#000000;stroke-width:0.5;" width="83.875" height="9.72"/> 
			<rect x="83.46" y="4.075" style="fill:#93DCEB;stroke:#000000;stroke-width:0.5;" width="14.621" height="9.72"/> 
			<rect x="83.46" y="4.075" style="fill:#FF0000;stroke:#000000;stroke-width:0.5;" width="8.08" height="9.72"/> 
			<rect x="83.46" y="51.224" style="fill:#FF0000;stroke:#000000;stroke-width:0.5;" width="23.854" height="9.72"/> 
			<rect x="83.46" y="74.038" style="fill:#93DCEB;stroke:#000000;stroke-width:0.5;" width="138.509" height="9.72"/> 
			<rect x="83.46" y="74.038" style="fill:#FF0000;stroke:#000000;stroke-width:0.5;" width="31.55" height="9.72"/> 
			<rect x="83.46" y="27.025" style="fill:#FF0000;stroke:#000000;stroke-width:0.5;" width="15.775" height="9.72"/> 
			<line style="fill:none;stroke:#000000;stroke-width:0.5;stroke-dasharray:2;" x1="88.75" y1="0.079" x2="118.5" y2="89.329"/>
			<path style="fill:none;stroke:#000000;stroke-width:0.5;stroke-dasharray:2;" d="M232.25,82.329c0,0-5-1.5-10.5-3.5
				c-19.854-7.22-31.5-10.75-54.5-22.75c-3.469-1.81-26-14.5-41-24.75c-13.917-9.51-28-22.75-28-22.75"/>
			<g>
				<g>
					<text transform="matrix(1 0 0 1 51.75 11.3291)"><tspan x="0" y="0" style="font-family:Liberation Sans; font-size:7.650000;">20 mph</tspan></text>
				</g>
			</g>
			<g>
				<g>
					<text transform="matrix(1 0 0 1 51.75 34.3188)"><tspan x="0" y="0" style="font-family:Liberation Sans; font-size:7.650000;">40 mph</tspan></text>
				</g>
			</g>
			<g>
				<g>
					<text transform="matrix(1 0 0 1 51.75 58.3188)"><tspan x="0" y="0" style="font-family:Liberation Sans; font-size:7.650000;">60 mph</tspan></text>
				</g>
			</g>
			<g>
				<g>
					<text transform="matrix(1 0 0 1 51.75 81.0688)"><tspan x="0" y="0" style="font-family:Liberation Sans; font-size:7.650000;">80 mph</tspan></text>
				</g>
			</g>
			<line style="fill:none;stroke:#000000;stroke-width:0.5;stroke-dasharray:2;" x1="96" y1="4.829" x2="153.75" y2="87.329"/>
			<g>
				<g>
					<text transform="matrix(1 0 0 1 102.25 95.5791)"><tspan x="0" y="0" style="font-family:Liberation Sans; font-size:7.650000;">distance</tspan></text>
				</g>
				<g>
					<text transform="matrix(1 0 0 1 102.25 106.5791)"><tspan x="0" y="0" style="font-family:Liberation Sans; font-size:7.650000;">covered</tspan></text>
				</g>
				<g>
					<text transform="matrix(1 0 0 1 102.25 117.5791)"><tspan x="0" y="0" style="font-family:Liberation Sans; font-size:7.650000;">before</tspan></text>
				</g>
				<g>
					<text transform="matrix(1 0 0 1 102.25 128.5791)"><tspan x="0" y="0" style="font-family:Liberation Sans; font-size:7.650000;">reacting</tspan></text>
				</g>
			</g>
			<g>
				<g>
					<text transform="matrix(1 0 0 1 153 95.5791)"><tspan x="0" y="0" style="font-family:Liberation Sans; font-size:7.650000;">one car</tspan></text>
				</g>
				<g>
					<text transform="matrix(1 0 0 1 153 106.5791)"><tspan x="0" y="0" style="font-family:Liberation Sans; font-size:7.650000;">length</tspan></text>
				</g>
				<g>
					<text transform="matrix(1 0 0 1 153 117.5791)"><tspan x="0" y="0" style="font-family:Liberation Sans; font-size:7.650000;">per 10</tspan></text>
				</g>
				<g>
					<text transform="matrix(1 0 0 1 153 128.5791)"><tspan x="0" y="0" style="font-family:Liberation Sans; font-size:7.650000;">mph</tspan></text>
				</g>
			</g>
			<g>
				<g>
					<text transform="matrix(1 0 0 1 217 95.5791)"><tspan x="0" y="0" style="font-family:Liberation Sans; font-size:7.650000;">actual</tspan></text>
				</g>
				<g>
					<text transform="matrix(1 0 0 1 217 106.5791)"><tspan x="0" y="0" style="font-family:Liberation Sans; font-size:7.650000;">stopping</tspan></text>
				</g>
				<g>
					<text transform="matrix(1 0 0 1 217 117.5791)"><tspan x="0" y="0" style="font-family:Liberation Sans; font-size:7.650000;">distance</tspan></text>
				</g>
			</g>
		</g>
		<rect y="66.517" style="fill:none;" width="320.315" height="2.835"/> 
	</g>
</svg>
