<?xml version="1.0" encoding="UTF-8" standalone="no"?>
<!-- Generator: Adobe Illustrator 11 Build 196, SVG Export Plug-In . SVG Version: 6.0.0 Build 78)  -->
<svg
   xmlns:dc="http://purl.org/dc/elements/1.1/"
   xmlns:cc="http://web.resource.org/cc/"
   xmlns:rdf="http://www.w3.org/1999/02/22-rdf-syntax-ns#"
   xmlns:svg="http://www.w3.org/2000/svg"
   xmlns="http://www.w3.org/2000/svg"
   xmlns:sodipodi="http://inkscape.sourceforge.net/DTD/sodipodi-0.dtd"
   xmlns:inkscape="http://www.inkscape.org/namespaces/inkscape"
   width="133.642"
   height="153.504"
   viewBox="0 0 133.642 153.504"
   style="overflow:visible;enable-background:new 0 0 133.642 153.504"
   xml:space="preserve"
   id="svg2"
   sodipodi:version="0.32"
   sodipodi:docname="driving-force-and-resonance.svg"
   sodipodi:docbase="/home/bcrowell/Documents/writing/lm/trunk/3vw/ch02/figs"><metadata
   id="metadata122"><rdf:RDF><cc:Work
       rdf:about=""><dc:format>image/svg+xml</dc:format><dc:type
         rdf:resource="http://purl.org/dc/dcmitype/StillImage" /></cc:Work></rdf:RDF></metadata><defs
   id="defs120">
		
		
		
		
		
		
		
		
		
		
		
		
		
		
		
		
		
		
	
			
		
			
		
			
		
			
		
			
		
			
			
			
			
			
		
			

		
			

		</defs><sodipodi:namedview
   inkscape:cy="55.582749"
   inkscape:cx="76.064564"
   inkscape:zoom="3.5798892"
   inkscape:window-height="996"
   inkscape:window-width="1278"
   inkscape:pageshadow="2"
   inkscape:pageopacity="0.0"
   borderopacity="1.0"
   bordercolor="#666666"
   pagecolor="#ffffff"
   id="base"
   inkscape:window-x="0"
   inkscape:window-y="0"
   inkscape:current-layer="svg2" />
	<style
   type="text/css"
   id="style4">
	
	</style>
	<rect
   style="fill:#dedede;fill-opacity:1.0000000;fill-rule:evenodd;stroke:none;stroke-width:1.0000000pt;stroke-linecap:butt;stroke-linejoin:miter;stroke-opacity:1.0000000"
   id="rect1420"
   width="184.25197"
   height="154.75339"
   x="-26.257795"
   y="0.42663848" /><path
   style="fill:none;stroke:#000000"
   d="M 122.44700,52.729000 C 118.78000,51.396000 117.44700,7.0620000 115.11400,7.3960000 C 112.78100,7.7290000 110.93400,48.999000 107.78100,47.729000 C 104.36400,46.354000 103.44800,11.729000 100.78100,12.396000 C 98.114000,13.063000 96.114000,43.063000 93.781000,42.396000 C 91.448000,41.729000 88.781000,16.729000 86.448000,17.396000 C 84.115000,18.063000 82.240000,38.167000 79.000000,37.192000 C 76.096000,36.318000 75.525000,21.803000 73.448000,22.396000 C 71.115000,23.063000 68.781000,33.396000 65.448000,32.063000 C 62.115000,30.730000 62.781000,25.396000 60.448000,26.396000 C 58.115000,27.396000 59.448000,29.063000 49.781000,29.063000 C 40.114000,29.063000 28.728854,29.063000 28.728854,29.063000"
   id="path9"
   sodipodi:nodetypes="cssssssssssc" /><line
   style="fill:none;stroke:#000000;stroke-width:0.50000000"
   x1="28.114000"
   y1="29.167000"
   x2="133.11400"
   y2="29.167000"
   id="line11" /><line
   style="fill:none;stroke:#000000;stroke-width:0.50000000"
   x1="28.364000"
   y1="47.833000"
   x2="28.364000"
   y2="10.333000"
   id="line13" /><g
   id="g15"
   transform="translate(6.000000,7.692458e-14)">
				<text
   transform="translate(16.36380,10.00000)"
   id="text17"><tspan
     x="0"
     y="0"
     style="font-size:8.5000000px;font-family:Liberation Sans"
     id="tspan19">x</tspan></text>


			</g><g
   id="g21"
   transform="translate(6.000000,5.316719e-13)">
				<text
   transform="translate(130.8638,31.50000)"
   id="text23"><tspan
     x="0"
     y="0"
     style="font-size:8.5000000px;font-family:Liberation Sans"
     id="tspan25">t</tspan></text>


			</g><line
   id="line27"
   y2="82.001999"
   x2="133.11400"
   y1="82.001999"
   x1="28.114000"
   style="fill:none;stroke:#000000;stroke-width:0.50000000" /><line
   id="line29"
   y2="63.168999"
   x2="28.364000"
   y1="100.66900"
   x1="28.364000"
   style="fill:none;stroke:#000000;stroke-width:0.50000000" /><text
   id="text33"
   x="22.3638"
   y="62.8354"><tspan
     x="22.3638"
     y="62.8354"
     style="font-size:8.5000000px;font-family:Liberation Sans"
     id="tspan35">F</tspan></text>

<text
   id="text39"
   x="136.8638"
   y="84.335403"><tspan
     x="136.8638"
     y="84.335403"
     style="font-size:8.5000000px;font-family:Liberation Sans"
     id="tspan41">t</tspan></text>
<line
   id="line43"
   y2="134.83701"
   x2="133.11400"
   y1="134.83701"
   x1="28.114000"
   style="fill:none;stroke:#000000;stroke-width:0.50000000" /><line
   id="line45"
   y2="116.00400"
   x2="28.364000"
   y1="153.50400"
   x1="28.364000"
   style="fill:none;stroke:#000000;stroke-width:0.50000000" /><text
   id="text49"
   x="22.3638"
   y="115.6709"><tspan
     x="22.3638"
     y="115.6709"
     style="font-size:8.5000000px;font-family:Liberation Sans"
     id="tspan51">F</tspan></text>

<text
   id="text55"
   x="136.8638"
   y="137.1709"><tspan
     x="136.8638"
     y="137.1709"
     style="font-size:8.5000000px;font-family:Liberation Sans"
     id="tspan57">t</tspan></text>
<polyline
   id="polyline59"
   points="61.748,82.021 61.748,68.021 64.082,68.021 64.082,82.021 75.186,82.021 "
   style="fill:none;stroke:#000000"
   transform="translate(-6.000000,7.692458e-14)" /><polyline
   id="polyline61"
   points="75.213,82.021 75.213,68.021 77.546,68.021 77.546,82.021 88.65,82.021 "
   style="fill:none;stroke:#000000"
   transform="translate(-6.000000,7.692458e-14)" /><polyline
   id="polyline63"
   points="88.677,82.021 88.677,68.021 91.011,68.021 91.011,82.021 102.115,82.021 "
   style="fill:none;stroke:#000000"
   transform="translate(-6.000000,7.692458e-14)" /><polyline
   id="polyline65"
   points="102.142,82.021 102.142,68.021 104.475,68.021 104.475,82.021     115.579,82.021 "
   style="fill:none;stroke:#000000"
   transform="translate(-6.000000,7.692458e-14)" /><polyline
   id="polyline67"
   points="115.606,82.021 115.606,68.021 117.939,68.021 117.939,82.021     129.044,82.021 "
   style="fill:none;stroke:#000000"
   transform="translate(-6.000000,7.692458e-14)" /><g
   id="g69"
   transform="translate(-6.000000,7.692458e-14)">
			<g
   id="g71">
				<path
   id="path73"
   d="M 59.503000,134.75400 C 60.633000,129.42100 61.023000,128.07800 61.375000,126.88800 C 61.728000,125.69900 61.950000,125.43000 62.098000,125.16100 C 62.246000,124.89200 62.598000,124.50900 62.858000,124.54700 C 63.118000,124.58600 63.396000,124.73900 63.599000,125.16100 C 63.803000,125.58300 64.118000,126.23500 64.341000,126.96400 C 64.563000,127.69300 64.767000,128.30700 65.082000,129.68800 C 65.397000,131.06900 65.323000,130.45600 66.194000,134.75300"
   style="fill:none;stroke:#000000" />
				<path
   id="path75"
   d="M 66.207000,134.75100 C 67.337000,140.08400 67.727000,141.42700 68.079000,142.61700 C 68.431000,143.80700 68.653000,144.07500 68.802000,144.34400 C 68.950000,144.61300 69.302000,144.99600 69.562000,144.95800 C 69.822000,144.91900 70.100000,144.76600 70.303000,144.34400 C 70.507000,143.92200 70.822000,143.27000 71.045000,142.54100 C 71.267000,141.81200 71.471000,141.19800 71.786000,139.81700 C 72.101000,138.43600 72.027000,139.04900 72.898000,134.75200"
   style="fill:none;stroke:#000000" />
			</g>
			<g
   id="g77">
				<path
   id="path79"
   d="M 72.874000,134.75400 C 74.004000,129.42100 74.394000,128.07800 74.746000,126.88800 C 75.098000,125.69800 75.320000,125.43000 75.469000,125.16100 C 75.617000,124.89200 75.969000,124.50900 76.229000,124.54700 C 76.488000,124.58600 76.767000,124.73900 76.970000,125.16100 C 77.174000,125.58300 77.489000,126.23500 77.712000,126.96400 C 77.934000,127.69300 78.138000,128.30700 78.453000,129.68800 C 78.768000,131.06900 78.694000,130.45600 79.565000,134.75300"
   style="fill:none;stroke:#000000" />
				<path
   id="path81"
   d="M 79.577000,134.75100 C 80.707000,140.08400 81.097000,141.42700 81.449000,142.61700 C 81.801000,143.80600 82.023000,144.07500 82.172000,144.34400 C 82.321000,144.61300 82.672000,144.99600 82.932000,144.95800 C 83.192000,144.91900 83.470000,144.76600 83.674000,144.34400 C 83.878000,143.92200 84.193000,143.27000 84.415000,142.54100 C 84.637000,141.81200 84.841000,141.19800 85.156000,139.81700 C 85.471000,138.43600 85.397000,139.04900 86.268000,134.75200"
   style="fill:none;stroke:#000000" />
			</g>
			<g
   id="g83">
				<path
   id="path85"
   d="M 86.244000,134.75400 C 87.374000,129.42100 87.764000,128.07800 88.116000,126.88800 C 88.468000,125.69800 88.690000,125.43000 88.839000,125.16100 C 88.987000,124.89200 89.339000,124.50900 89.599000,124.54700 C 89.859000,124.58600 90.137000,124.73900 90.341000,125.16100 C 90.545000,125.58300 90.860000,126.23500 91.082000,126.96400 C 91.304000,127.69300 91.508000,128.30700 91.823000,129.68800 C 92.138000,131.06900 92.064000,130.45600 92.935000,134.75300"
   style="fill:none;stroke:#000000" />
				<path
   id="path87"
   d="M 92.948000,134.75100 C 94.079000,140.08400 94.468000,141.42700 94.820000,142.61700 C 95.172000,143.80700 95.395000,144.07500 95.543000,144.34400 C 95.691000,144.61300 96.043000,144.99600 96.303000,144.95800 C 96.563000,144.91900 96.841000,144.76600 97.045000,144.34400 C 97.249000,143.92200 97.564000,143.27000 97.786000,142.54100 C 98.009000,141.81200 98.212000,141.19800 98.527000,139.81700 C 98.842000,138.43600 98.768000,139.04900 99.639000,134.75200"
   style="fill:none;stroke:#000000" />
			</g>
			<g
   id="g89">
				<path
   id="path91"
   d="M 99.615000,134.75400 C 100.74600,129.42100 101.13500,128.07800 101.48700,126.88800 C 101.83900,125.69800 102.06100,125.43000 102.21000,125.16100 C 102.35800,124.89200 102.71000,124.50900 102.97000,124.54700 C 103.23000,124.58600 103.50800,124.73900 103.71200,125.16100 C 103.91600,125.58300 104.23100,126.23500 104.45300,126.96400 C 104.67500,127.69300 104.87900,128.30700 105.19400,129.68800 C 105.50900,131.06900 105.43500,130.45600 106.30600,134.75300"
   style="fill:none;stroke:#000000" />
				<path
   id="path93"
   d="M 106.31800,134.75100 C 107.44900,140.08400 107.83800,141.42700 108.19000,142.61700 C 108.54200,143.80700 108.76500,144.07500 108.91300,144.34400 C 109.06100,144.61300 109.41300,144.99600 109.67300,144.95800 C 109.93200,144.91900 110.21000,144.76600 110.41400,144.34400 C 110.61800,143.92200 110.93300,143.27000 111.15500,142.54100 C 111.37800,141.81200 111.58100,141.19800 111.89700,139.81700 C 112.21200,138.43600 112.13800,139.04900 113.00900,134.75200"
   style="fill:none;stroke:#000000" />
			</g>
			<g
   id="g95">
				<path
   id="path97"
   d="M 112.98500,134.75400 C 114.11600,129.42100 114.50500,128.07800 114.85700,126.88800 C 115.20900,125.69800 115.43200,125.43000 115.58000,125.16100 C 115.72800,124.89200 116.08000,124.50900 116.34000,124.54700 C 116.59900,124.58600 116.87700,124.73900 117.08100,125.16100 C 117.28500,125.58300 117.60000,126.23500 117.82200,126.96400 C 118.04500,127.69300 118.24800,128.30700 118.56300,129.68800 C 118.87800,131.06900 118.80400,130.45600 119.67500,134.75300"
   style="fill:none;stroke:#000000" />
				<path
   id="path99"
   d="M 119.68900,134.75100 C 120.81900,140.08400 121.20900,141.42700 121.56100,142.61700 C 121.91300,143.80700 122.13600,144.07500 122.28400,144.34400 C 122.43200,144.61300 122.78400,144.99600 123.04400,144.95800 C 123.30300,144.91900 123.58100,144.76600 123.78500,144.34400 C 123.98900,143.92200 124.30400,143.27000 124.52600,142.54100 C 124.74900,141.81200 124.95200,141.19800 125.26800,139.81700 C 125.58300,138.43600 125.50900,139.04900 126.38000,134.75200"
   style="fill:none;stroke:#000000" />
			</g>
		</g><text
   id="text103"
   y="29.1665"
   x="-10"><tspan
     x="-10"
     y="29.1665"
     style="font-size:8.5000000px;font-family:Liberation Sans"
     id="tspan105">1</tspan></text>

<text
   id="text109"
   y="81.466797"
   x="-10"><tspan
     x="-10"
     y="81.466797"
     style="font-size:8.5000000px;font-family:Liberation Sans"
     id="tspan111">2</tspan></text>

<text
   id="text115"
   x="-9.7202005"
   y="133.7666"><tspan
     x="-9.7202005"
     y="133.7666"
     style="font-size:8.5000000px;font-family:Liberation Sans"
     id="tspan117">3</tspan></text>


</svg>