<?xml version="1.0" encoding="iso-8859-1"?>
<!-- Generator: Adobe Illustrator 11 Build 196, SVG Export Plug-In . SVG Version: 6.0.0 Build 78)  -->
<!DOCTYPE svg PUBLIC "-//W3C//DTD SVG 1.0//EN"    "http://www.w3.org/TR/2001/REC-SVG-20010904/DTD/svg10.dtd" [
	<!ENTITY ns_flows "http://ns.adobe.com/Flows/1.0/">
	<!ENTITY ns_svg "http://www.w3.org/2000/svg">
	<!ENTITY ns_xlink "http://www.w3.org/1999/xlink">
]>
<svg  
	 width="147.401" height="147.246" viewBox="0 0 147.401 147.246"
	 style="overflow:visible;enable-background:new 0 0 147.401 147.246" xml:space="preserve">
	<style type="text/css">
	
	</style>
	<g id="Layer_1">
		<g>
			<path style="fill:#74D0E4;stroke:#000000;stroke-dasharray:2;" d="M3.745,0.403c45.021,33,67.531,74.5,0,146.5"/>
			<g>
				<g>
					<text transform="matrix(1 0 0 1 50.4507 49.9033)"><tspan x="0" y="0" style="fill:#B3571B; font-family:Liberation Sans-Bold'; font-size:9.350000;">power</tspan></text>
				</g>
				<g>
					<text transform="matrix(1 0 0 1 82.8384 49.9033)"><tspan x="0" y="0" style="fill:#B3571B; font-family:Liberation Sans; font-size:7.650000;"> = rate of</tspan></text>
				</g>
				<g>
					<text transform="matrix(1 0 0 1 50.4507 60.9033)"><tspan x="0" y="0" style="fill:#B3571B; font-family:Liberation Sans; font-size:7.650000;">transferring energy</tspan></text>
				</g>
			</g>
			<g>
				<g>
					<text transform="matrix(1 0 0 1 39.4507 119.9033)"><tspan x="0" y="0" style="fill:#8D4516; font-family:Liberation Sans-Bold'; font-size:9.350000;">force</tspan></text>
				</g>
				<g>
					<text transform="matrix(1 0 0 1 66.3384 119.9033)"><tspan x="0" y="0" style="fill:#8D4516; font-family:Liberation Sans; font-size:8.500000;"> = rate of</tspan></text>
				</g>
				<g>
					<text transform="matrix(1 0 0 1 39.4507 131.9033)"><tspan x="0" y="0" style="fill:#8D4516; font-family:Liberation Sans; font-size:8.500000;">transferring momentum</tspan></text>
				</g>
			</g>
			<polygon style="fill:#EA4C52;" points="39.902,83.134 39.902,83.155 27.423,95.634 39.902,108.112 39.902,108.134 
				118.816,108.134 118.816,83.134 "/>
			<g>
				<g>
					<text transform="matrix(1 0 0 1 40.7925 99.9229)"><tspan x="0" y="0" style="fill:#FFFFFF; font-family:Liberation Sans-Bold'; font-size:10.200000;">momentum</tspan></text>
				</g>
			</g>
			<polygon style="fill:#FFDC00;stroke:#000000;stroke-width:0.5;" points="28.817,15.116 28.817,15.138 16.339,27.616 
				28.817,40.095 28.817,40.116 107.732,40.116 107.732,15.116 "/>
			<g>
				<g>
					<text transform="matrix(1 0 0 1 42.3657 31.1904)"><tspan x="0" y="0" style="font-family:Liberation Sans-Bold'; font-size:10.200000;">energy</tspan></text>
				</g>
			</g>
			<g>
				<g>
					<text transform="matrix(1 0 0 1 6.4507 69.4033)"><tspan x="0" y="0" style="font-family:Liberation Sans-Bold'; font-size:8.500000;">system</tspan></text>
				</g>
			</g>
		</g>
		<rect y="73.611" style="fill:none;" width="147.401" height="2.835"/> 
	</g>
</svg>
