<?xml version="1.0" encoding="iso-8859-1"?>
<!-- Generator: Adobe Illustrator 11 Build 196, SVG Export Plug-In . SVG Version: 6.0.0 Build 78)  -->
<!DOCTYPE svg PUBLIC "-//W3C//DTD SVG 1.0//EN"    "http://www.w3.org/TR/2001/REC-SVG-20010904/DTD/svg10.dtd" [
	<!ENTITY ns_flows "http://ns.adobe.com/Flows/1.0/">
	<!ENTITY ns_svg "http://www.w3.org/2000/svg">
	<!ENTITY ns_xlink "http://www.w3.org/1999/xlink">
]>
<svg  
	 width="147.401" height="48.02" viewBox="0 0 147.401 48.02" style="overflow:visible;enable-background:new 0 0 147.401 48.02"
	 xml:space="preserve">
	<g id="Layer_1">
		<g>
			<polygon style="fill:#D6D6D6;stroke:#000000;stroke-width:0.5;" points="88.567,0.25 8.647,0.25 8.647,33.73 68.047,33.73 "/>
			<polygon style="fill:#D6D6D6;stroke:#000000;stroke-width:0.5;" points="60.629,47.77 140.549,47.77 140.549,14.29 81.149,14.29 
				"/>
			<g>
				<line style="fill:none;stroke:#000000;" x1="81.977" y1="21.61" x2="74.144" y2="34.277"/>
				<path d="M72.241,37.356c0.359-1.782,0.553-4.147,0.271-5.862l1.884,2.378l2.969,0.623
					C75.705,35.009,73.675,36.239,72.241,37.356z"/>
			</g>
			<g>
				<line style="fill:none;stroke:#000000;" x1="68.667" y1="25.176" x2="76.5" y2="12.51"/>
				<path d="M78.402,9.431c-0.358,1.781-0.553,4.147-0.271,5.862l-1.884-2.378l-2.969-0.623
					C74.938,11.778,76.968,10.547,78.402,9.431z"/>
			</g>
		</g>
		<rect y="5.197" style="fill:none;" width="147.401" height="2.835"/> 
	</g>
</svg>
