<?xml version="1.0" encoding="iso-8859-1"?>
<!-- Generator: Adobe Illustrator 11 Build 196, SVG Export Plug-In . SVG Version: 6.0.0 Build 78)  -->
<!DOCTYPE svg PUBLIC "-//W3C//DTD SVG 1.0//EN"    "http://www.w3.org/TR/2001/REC-SVG-20010904/DTD/svg10.dtd" [
	<!ENTITY ns_flows "http://ns.adobe.com/Flows/1.0/">
	<!ENTITY ns_svg "http://www.w3.org/2000/svg">
	<!ENTITY ns_xlink "http://www.w3.org/1999/xlink">
]>
<svg  
	 width="115.573" height="265.021" viewBox="0 0 115.573 265.021"
	 style="overflow:visible;enable-background:new 0 0 115.573 265.021" xml:space="preserve">
	<style type="text/css">
	
	</style>
	<g id="Layer_1">
		<rect x="0.073" style="fill:#80D092;" width="115.5" height="29.25"/> 
		<rect x="0.073" y="170.312" style="fill:#80D092;" width="115.5" height="29.25"/> 
		<rect x="0.073" y="25.876" style="fill:#D9F1F7;" width="115.5" height="146.249"/> 
		<line style="fill:none;stroke:#000000;" x1="0.073" y1="25.876" x2="114.073" y2="25.876"/>
		<line style="fill:none;stroke:#000000;" x1="0" y1="172.062" x2="114" y2="172.062"/>
		<path style="fill:#B3571B;stroke:#000000;" d="M42.407,156.521c0,0-3.776,2.296,0.078,12.883c0.338,0.93,0.622,1.708,0.861,2.367
			l7.737-2.815c-0.273-0.75-0.604-1.659-1.01-2.774C46.071,155.188,42.407,156.521,42.407,156.521z"/>
		<g>
			<line style="fill:none;stroke:#000000;" x1="42.561" y1="158.37" x2="25.118" y2="110.446"/>
			<path d="M23.879,107.043c1.177,1.385,2.914,3.002,4.435,3.843l-3.034,0.006l-2.328,1.945
				C23.578,111.216,23.868,108.86,23.879,107.043z"/>
		</g>
		<text transform="matrix(1 0 0 1 15.9062 102.5)"><tspan x="0" y="0" style="font-family:Liberation Sans-Bold'; font-size:7.650000;">v</tspan><tspan x="5.005" y="3" style="font-family:Liberation Sans; font-size:5.950000;">BW</tspan></text>
		<text transform="matrix(1 0 0 1 45.0166 70.9414)"><tspan x="0" y="0" style="font-family:Liberation Sans-Bold'; font-size:7.650000;">v</tspan><tspan x="5.005" y="3" style="font-family:Liberation Sans; font-size:5.950000;">WL</tspan></text>
		<g>
			<line style="fill:none;stroke:#000000;" x1="60.906" y1="68.5" x2="73.406" y2="68.5"/>
			<path d="M77.027,68.5c-1.704,0.632-3.818,1.711-5.128,2.853l1.032-2.853l-1.032-2.853C73.209,66.789,75.324,67.868,77.027,68.5z"
				/>
		</g>
		<rect x="41.738" y="19" style="fill:#C57E2A;" width="8.5" height="18"/> 
		<path style="fill:none;stroke:#000000;" d="M36.906,141.5c3.5-2,6.562-1.75,8.062-1.75"/>
		<g>
			<text transform="matrix(1 0 0 1 38.4062 133.5)"><tspan x="0" y="0" style="font-family:'Symbol'; font-size:7;">&#x3B8;</tspan></text>
		</g>
		<line style="fill:none;stroke:#000000;stroke-width:0.5;stroke-dasharray:2;" x1="45.406" y1="129.5" x2="45.406" y2="156.5"/>
		<g>
			<line style="stroke:#000000;" x1="38.823" y1="256.558" x2="38.823" y2="226.558"/>
			<path d="M38.823,220.523c1.054,2.84,2.852,6.363,4.755,8.547l-4.755-1.72l-4.754,1.72
				C35.972,226.886,37.77,223.363,38.823,220.523z"/>
		</g>
		<g>
			<line style="stroke:#000000;" x1="38.948" y1="256.558" x2="68.948" y2="256.558"/>
			<path d="M74.983,256.558c-2.839,1.054-6.363,2.852-8.546,4.755l1.72-4.755l-1.72-4.754
				C68.62,253.707,72.144,255.505,74.983,256.558z"/>
		</g>
		<g>
			<text transform="matrix(1 0 0 1 78.8228 260.5576)"><tspan x="0" y="0" style="font-family:Liberation Sans; font-size:8.500000;">x</tspan></text>
		</g>
		<g>
			<text transform="matrix(1 0 0 1 35.4897 215.8916)"><tspan x="0" y="0" style="font-family:Liberation Sans; font-size:8.500000;">y</tspan></text>
		</g>
	</g>
</svg>
