<?xml version="1.0" encoding="iso-8859-1"?>
<!-- Generator: Adobe Illustrator 11 Build 196, SVG Export Plug-In . SVG Version: 6.0.0 Build 78)  -->
<!DOCTYPE svg PUBLIC "-//W3C//DTD SVG 1.0//EN"    "http://www.w3.org/TR/2001/REC-SVG-20010904/DTD/svg10.dtd" [
	<!ENTITY ns_flows "http://ns.adobe.com/Flows/1.0/">
	<!ENTITY ns_svg "http://www.w3.org/2000/svg">
	<!ENTITY ns_xlink "http://www.w3.org/1999/xlink">
]>
<svg  
	 width="131.604" height="178.75" viewBox="0 0 131.604 178.75" style="overflow:visible;enable-background:new 0 0 131.604 178.75"
	 xml:space="preserve">
	<style type="text/css">
	
	</style>
	<g id="Layer_1">
		<polygon style="fill:#B4B4B4;stroke:#000000;stroke-width:0.25;" points="59.438,137.567 59.438,25.067 12.938,25.067 
			12.938,161.567 15.938,161.567 59.438,161.567 98.438,161.567 98.438,137.567 "/>
		<g>
			<path style="fill:#7F7F7F;stroke:#000000;stroke-width:0.25;" d="M91.094,129.615c-0.654,0.105-1.424,0.772-1.719,1.491
				l-2.091,5.096c-0.295,0.719-0.003,1.216,0.651,1.111l10.713-1.72c0.654-0.105,1.424-0.772,1.719-1.491l2.091-5.096
				c0.295-0.719,0.003-1.216-0.651-1.111L91.094,129.615z"/>
			
				<ellipse transform="matrix(-0.1585 -0.9874 0.9874 -0.1585 -21.4897 241.2145)" style="stroke:#000000;stroke-width:0.25;" cx="92.05" cy="129.765" rx="0.707" ry="1.414"/> 
			
				<ellipse transform="matrix(-0.1585 -0.9874 0.9874 -0.1585 -9.6878 248.1727)" style="stroke:#000000;stroke-width:0.25;" cx="100.916" cy="128.215" rx="0.707" ry="1.414"/> 
		</g>
		<path style="fill:none;stroke:#000000;stroke-dasharray:2;" d="M95.604,131.4c-10-65.333-23.667-107.667-36.333-107.667H21.938"/>
		<g>
			<g>
				<line style="fill:none;stroke:#000000;" x1="62.667" y1="167.4" x2="95.333" y2="167.4"/>
				<path d="M98.351,167.4c-1.42,0.527-3.182,1.426-4.273,2.377l0.86-2.377l-0.86-2.377C95.169,165.975,96.931,166.874,98.351,167.4
					z"/>
				<path d="M59.649,167.4c1.42-0.527,3.182-1.426,4.273-2.377l-0.86,2.377l0.86,2.377C62.831,168.826,61.069,167.927,59.649,167.4z
					"/>
			</g>
			<path d="M98.351,167.4c-1.42,0.527-3.182,1.426-4.273,2.377l0.86-2.377l-0.86-2.377C95.169,165.975,96.931,166.874,98.351,167.4z
				"/>
			<path d="M59.649,167.4c1.42-0.527,3.182-1.426,4.273-2.377l-0.86,2.377l0.86,2.377C62.831,168.826,61.069,167.927,59.649,167.4z"
				/>
		</g>
		<g>
			<text transform="matrix(1 0 0 1 75 174.7334)"><tspan x="0" y="0" style="font-family:Liberation Sans; font-size:7.650000;">w</tspan></text>
		</g>
		<g>
			<line style="fill:none;stroke:#000000;" x1="8" y1="27.734" x2="8" y2="136.067"/>
			<path d="M8,139.084c-0.527-1.42-1.426-3.182-2.377-4.273L8,135.671l2.377-0.86C9.426,135.903,8.526,137.665,8,139.084z"/>
			<path d="M8,24.716c0.527,1.42,1.426,3.181,2.377,4.273L8,28.129l-2.377,0.86C6.574,27.897,7.474,26.136,8,24.716z"/>
		</g>
		<g>
			<text transform="matrix(1 0 0 1 0 85.3999)"><tspan x="0" y="0" style="font-family:Liberation Sans; font-size:7.650000;">h</tspan></text>
		</g>
		<g>
			<text transform="matrix(1 0 0 1 35.271 19.3999)"><tspan x="0" y="0" style="font-family:Liberation Sans; font-size:7.650000;">v</tspan></text>
			<text transform="matrix(1 0 0 1 39.771 22.3999)"><tspan x="0" y="0" style="font-family:Liberation Sans; font-size:7.650000;">x</tspan></text>
			<text transform="matrix(1 0 0 1 44.271 19.3999)"><tspan x="0" y="0" style="font-family:Liberation Sans; font-size:7.650000;">=?</tspan></text>
		</g>
		<g>
			<line style="stroke:#000000;" x1="86.604" y1="50.667" x2="86.604" y2="20.667"/>
			<path d="M86.604,14.632c1.054,2.84,2.852,6.363,4.755,8.547l-4.755-1.72l-4.754,1.72C83.753,20.995,85.551,17.471,86.604,14.632z
				"/>
		</g>
		<g>
			<line style="stroke:#000000;" x1="86.729" y1="50.667" x2="116.729" y2="50.667"/>
			<path d="M122.764,50.667c-2.839,1.054-6.363,2.852-8.546,4.755l1.72-4.755l-1.72-4.755
				C116.401,47.815,119.925,49.614,122.764,50.667z"/>
		</g>
		<g>
			<text transform="matrix(1 0 0 1 126.604 54.6665)"><tspan x="0" y="0" style="font-family:Liberation Sans; font-size:8.500000;">x</tspan></text>
		</g>
		<g>
			<text transform="matrix(1 0 0 1 83.271 10)"><tspan x="0" y="0" style="font-family:Liberation Sans; font-size:8.500000;">y</tspan></text>
		</g>
	</g>
</svg>
