<?xml version="1.0" encoding="iso-8859-1"?>
<!-- Generator: Adobe Illustrator 11 Build 196, SVG Export Plug-In . SVG Version: 6.0.0 Build 78)  -->
<!DOCTYPE svg PUBLIC "-//W3C//DTD SVG 1.0//EN"    "http://www.w3.org/TR/2001/REC-SVG-20010904/DTD/svg10.dtd" [
	<!ENTITY ns_flows "http://ns.adobe.com/Flows/1.0/">
	<!ENTITY ns_svg "http://www.w3.org/2000/svg">
	<!ENTITY ns_xlink "http://www.w3.org/1999/xlink">
]>
<svg  
	 width="117.278" height="203.017" viewBox="0 0 117.278 203.017"
	 style="overflow:visible;enable-background:new 0 0 117.278 203.017" xml:space="preserve">
	<style type="text/css">
	
	</style>
	<g id="Layer_1">
		<g>
			<rect x="32.768" y="0.5" style="fill:none;stroke:#000000;stroke-miterlimit:1;" width="81" height="84"/> 
			
				<line style="fill:none;stroke:#000000;stroke-linecap:square;stroke-miterlimit:1;" x1="27.768" y1="50.5" x2="31.768" y2="50.5"/>
			
				<line style="fill:none;stroke:#000000;stroke-linecap:square;stroke-miterlimit:1;" x1="27.768" y1="16.5" x2="31.768" y2="16.5"/>
			
				<line style="fill:none;stroke:#000000;stroke-linecap:square;stroke-miterlimit:1;" x1="32.768" y1="84.5" x2="32.768" y2="0.5"/>
			<g>
				<text transform="matrix(1 0 0 1 18.2676 54)"><tspan x="0" y="0" style="font-family:Liberation Sans; font-size:7.650000;">2</tspan></text>
			</g>
			<g>
				<text transform="matrix(1 0 0 1 18.2676 20)"><tspan x="0" y="0" style="font-family:Liberation Sans; font-size:7.650000;">4</tspan></text>
			</g>
			<g>
				<text transform="matrix(0 -1 1 0 9 47.0029)"><tspan x="0" y="0" style="font-family:Liberation Sans; font-size:7.650000;">x (m)</tspan></text>
			</g>
			<path style="fill:none;stroke:#000000;" d="M32.768,84.375c19.5,0,50.5-15,80.5-76.5"/>
		</g>
		<g>
			<rect x="32.768" y="84.5" style="fill:none;stroke:#000000;stroke-miterlimit:1;" width="81" height="85"/> 
			
				<line style="fill:none;stroke:#000000;stroke-linecap:square;stroke-miterlimit:1;" x1="27.768" y1="169.5" x2="31.768" y2="169.5"/>
			
				<line style="fill:none;stroke:#000000;stroke-linecap:square;stroke-miterlimit:1;" x1="27.768" y1="145.5" x2="31.768" y2="145.5"/>
			
				<line style="fill:none;stroke:#000000;stroke-linecap:square;stroke-miterlimit:1;" x1="27.768" y1="121.5" x2="31.768" y2="121.5"/>
			
				<line style="fill:none;stroke:#000000;stroke-linecap:square;stroke-miterlimit:1;" x1="27.768" y1="96.5" x2="31.768" y2="96.5"/>
			
				<line style="fill:none;stroke:#000000;stroke-linecap:square;stroke-miterlimit:1;" x1="32.768" y1="169.5" x2="32.768" y2="84.5"/>
			
				<line style="fill:none;stroke:#000000;stroke-linecap:square;stroke-miterlimit:1;" x1="32.768" y1="174.5" x2="32.768" y2="170.5"/>
			
				<line style="fill:none;stroke:#000000;stroke-linecap:square;stroke-miterlimit:1;" x1="59.768" y1="170.5" x2="59.768" y2="174.5"/>
			
				<line style="fill:none;stroke:#000000;stroke-linecap:square;stroke-miterlimit:1;" x1="86.768" y1="170.5" x2="86.768" y2="174.5"/>
			
				<line style="fill:none;stroke:#000000;stroke-linecap:square;stroke-miterlimit:1;" x1="113.768" y1="170.5" x2="113.768" y2="174.5"/>
			
				<line style="fill:none;stroke:#000000;stroke-linecap:square;stroke-miterlimit:1;" x1="32.768" y1="169.5" x2="113.768" y2="169.5"/>
			<g>
				<text transform="matrix(1 0 0 1 18.2676 173)"><tspan x="0" y="0" style="font-family:Liberation Sans; font-size:7.650000;">0</tspan></text>
			</g>
			<g>
				<text transform="matrix(1 0 0 1 18.2676 149)"><tspan x="0" y="0" style="font-family:Liberation Sans; font-size:7.650000;">1</tspan></text>
			</g>
			<g>
				<text transform="matrix(1 0 0 1 18.2676 125)"><tspan x="0" y="0" style="font-family:Liberation Sans; font-size:7.650000;">2</tspan></text>
			</g>
			<g>
				<text transform="matrix(1 0 0 1 18.2676 100)"><tspan x="0" y="0" style="font-family:Liberation Sans; font-size:7.650000;">3</tspan></text>
			</g>
			<g>
				<text transform="matrix(1 0 0 1 29.2676 187)"><tspan x="0" y="0" style="font-family:Liberation Sans; font-size:7.650000;">7</tspan></text>
			</g>
			<g>
				<text transform="matrix(1 0 0 1 56.2676 187)"><tspan x="0" y="0" style="font-family:Liberation Sans; font-size:7.650000;">8</tspan></text>
			</g>
			<g>
				<text transform="matrix(1 0 0 1 83.2676 187)"><tspan x="0" y="0" style="font-family:Liberation Sans; font-size:7.650000;">9</tspan></text>
			</g>
			<g>
				<text transform="matrix(1 0 0 1 107.2676 187)"><tspan x="0" y="0" style="font-family:Liberation Sans; font-size:7.650000;">10</tspan></text>
			</g>
			<g>
				<text transform="matrix(1 0 0 1 63.2676 199)"><tspan x="0" y="0" style="font-family:Liberation Sans; font-size:7.650000;">t (s)</tspan></text>
			</g>
			<g>
				<text transform="matrix(0 -1 1 0 9 143.0029)"><tspan x="0" y="0" style="font-family:Liberation Sans; font-size:7.650000;">v (m/s)</tspan></text>
			</g>
			
				<line style="fill:none;stroke:#000000;stroke-linecap:square;stroke-miterlimit:1;" x1="113.268" y1="95" x2="32.768" y2="169.5"/>
		</g>
	</g>
</svg>
