<?xml version="1.0" encoding="UTF-8" standalone="no"?>
<!-- Generator: Adobe Illustrator 11 Build 196, SVG Export Plug-In . SVG Version: 6.0.0 Build 78)  -->

<svg
   xmlns:dc="http://purl.org/dc/elements/1.1/"
   xmlns:cc="http://creativecommons.org/ns#"
   xmlns:rdf="http://www.w3.org/1999/02/22-rdf-syntax-ns#"
   xmlns:svg="http://www.w3.org/2000/svg"
   xmlns="http://www.w3.org/2000/svg"
   xmlns:xlink="http://www.w3.org/1999/xlink"
   xmlns:sodipodi="http://sodipodi.sourceforge.net/DTD/sodipodi-0.dtd"
   xmlns:inkscape="http://www.inkscape.org/namespaces/inkscape"
   width="146.433"
   height="102.35"
   viewBox="0 0 146.433 102.35"
   style="overflow:visible;enable-background:new 0 0 146.433 102.35"
   xml:space="preserve"
   id="svg2"
   version="1.1"
   sodipodi:docname="eg-pulleys-three-quarters.svg"
   inkscape:export-filename="/home/bcrowell/Documents/writing/books/physics/share/mechanics/figs/hw-other-pulleys.png"
   inkscape:export-xdpi="300"
   inkscape:export-ydpi="300"><metadata
   id="metadata97"><rdf:RDF><cc:Work
       rdf:about=""><dc:format>image/svg+xml</dc:format><dc:type
         rdf:resource="http://purl.org/dc/dcmitype/StillImage" /><dc:title /></cc:Work></rdf:RDF></metadata><defs
   id="defs95">
		
		
		
		
		
		
		
			<linearGradient
   gradientTransform="matrix(0.9,0,0,0.9,5.6225,10.075)"
   y2="90.2788"
   x2="151.0906"
   y1="90.2788"
   x1="132.2573"
   gradientUnits="userSpaceOnUse"
   id="XMLID_3_">
			<stop
   id="stop46"
   style="stop-color:#CBCBCB"
   offset="0" />
			<stop
   id="stop48"
   style="stop-color:#FFFFFF"
   offset="0.31" />
			<stop
   id="stop50"
   style="stop-color:#727272"
   offset="0.93" />
			<midPointStop
   id="midPointStop52"
   style="stop-color:#CBCBCB"
   offset="0" />
			<midPointStop
   id="midPointStop54"
   style="stop-color:#CBCBCB"
   offset="0.5" />
			<midPointStop
   id="midPointStop56"
   style="stop-color:#FFFFFF"
   offset="0.31" />
			<midPointStop
   id="midPointStop58"
   style="stop-color:#FFFFFF"
   offset="0.5" />
			<midPointStop
   id="midPointStop60"
   style="stop-color:#727272"
   offset="0.93" />
		</linearGradient>
		 
		
		
		
		
			<linearGradient
   gradientTransform="matrix(0.9,0,0,0.9,-119.0054,2.9426)"
   y2="90.2778"
   x2="151.0906"
   y1="90.2778"
   x1="132.2573"
   gradientUnits="userSpaceOnUse"
   id="XMLID_4_">
			<stop
   id="stop75"
   style="stop-color:#CBCBCB"
   offset="0" />
			<stop
   id="stop77"
   style="stop-color:#FFFFFF"
   offset="0.31" />
			<stop
   id="stop79"
   style="stop-color:#727272"
   offset="0.93" />
			<midPointStop
   id="midPointStop81"
   style="stop-color:#CBCBCB"
   offset="0" />
			<midPointStop
   id="midPointStop83"
   style="stop-color:#CBCBCB"
   offset="0.5" />
			<midPointStop
   id="midPointStop85"
   style="stop-color:#FFFFFF"
   offset="0.31" />
			<midPointStop
   id="midPointStop87"
   style="stop-color:#FFFFFF"
   offset="0.5" />
			<midPointStop
   id="midPointStop89"
   style="stop-color:#727272"
   offset="0.93" />
		</linearGradient>
		 
	<linearGradient
   inkscape:collect="always"
   xlink:href="#XMLID_4_"
   id="linearGradient3093"
   gradientUnits="userSpaceOnUse"
   gradientTransform="matrix(0.9,0,0,0.9,44.680799,8.0811207)"
   x1="132.2573"
   y1="90.2778"
   x2="151.0906"
   y2="90.2778" /><linearGradient
   inkscape:collect="always"
   xlink:href="#XMLID_3_"
   id="linearGradient3101"
   gradientUnits="userSpaceOnUse"
   gradientTransform="matrix(0.9,0,0,0.9,-5.9719391,-1.837125)"
   x1="132.2573"
   y1="90.2788"
   x2="151.0906"
   y2="90.2788" /><linearGradient
   inkscape:collect="always"
   xlink:href="#XMLID_4_"
   id="linearGradient4270"
   gradientUnits="userSpaceOnUse"
   gradientTransform="matrix(0.9,0,0,0.9,44.680799,8.0811207)"
   x1="132.2573"
   y1="90.2778"
   x2="151.0906"
   y2="90.2778" /><linearGradient
   inkscape:collect="always"
   xlink:href="#XMLID_3_"
   id="linearGradient4272"
   gradientUnits="userSpaceOnUse"
   gradientTransform="matrix(0.9,0,0,0.9,-5.9719391,-1.837125)"
   x1="132.2573"
   y1="90.2788"
   x2="151.0906"
   y2="90.2788" /><linearGradient
   gradientTransform="matrix(0.9,0,0,0.9,5.6225,10.075)"
   y2="90.278801"
   x2="151.09061"
   y1="90.278801"
   x1="132.25729"
   gradientUnits="userSpaceOnUse"
   id="XMLID_3_-1"><stop
     id="stop46-7"
     style="stop-color:#CBCBCB"
     offset="0" /><stop
     id="stop48-2"
     style="stop-color:#FFFFFF"
     offset="0.31" /><stop
     id="stop50-7"
     style="stop-color:#727272"
     offset="0.93" /><midPointStop
     id="midPointStop52-2"
     style="stop-color:#CBCBCB"
     offset="0" /><midPointStop
     id="midPointStop54-2"
     style="stop-color:#CBCBCB"
     offset="0.5" /><midPointStop
     id="midPointStop56-6"
     style="stop-color:#FFFFFF"
     offset="0.31" /><midPointStop
     id="midPointStop58-1"
     style="stop-color:#FFFFFF"
     offset="0.5" /><midPointStop
     id="midPointStop60-0"
     style="stop-color:#727272"
     offset="0.93" /></linearGradient><linearGradient
   gradientTransform="matrix(0.9,0,0,0.9,-119.0054,2.9426)"
   y2="90.277802"
   x2="151.09061"
   y1="90.277802"
   x1="132.25729"
   gradientUnits="userSpaceOnUse"
   id="XMLID_4_-1"><stop
     id="stop75-5"
     style="stop-color:#CBCBCB"
     offset="0" /><stop
     id="stop77-9"
     style="stop-color:#FFFFFF"
     offset="0.31" /><stop
     id="stop79-4"
     style="stop-color:#727272"
     offset="0.93" /><midPointStop
     id="midPointStop81-9"
     style="stop-color:#CBCBCB"
     offset="0" /><midPointStop
     id="midPointStop83-0"
     style="stop-color:#CBCBCB"
     offset="0.5" /><midPointStop
     id="midPointStop85-9"
     style="stop-color:#FFFFFF"
     offset="0.31" /><midPointStop
     id="midPointStop87-1"
     style="stop-color:#FFFFFF"
     offset="0.5" /><midPointStop
     id="midPointStop89-7"
     style="stop-color:#727272"
     offset="0.93" /></linearGradient><linearGradient
   inkscape:collect="always"
   xlink:href="#XMLID_3_-1"
   id="linearGradient3395"
   gradientUnits="userSpaceOnUse"
   gradientTransform="matrix(0.90000001,0,0,0.90000001,-267.63352,188.71365)"
   x1="132.25729"
   y1="90.278801"
   x2="151.09061"
   y2="90.278801" /></defs><sodipodi:namedview
   pagecolor="#ffffff"
   bordercolor="#666666"
   borderopacity="1"
   objecttolerance="10"
   gridtolerance="10"
   guidetolerance="10"
   inkscape:pageopacity="0"
   inkscape:pageshadow="2"
   inkscape:window-width="1280"
   inkscape:window-height="996"
   id="namedview93"
   showgrid="false"
   inkscape:zoom="3.4724246"
   inkscape:cx="241.1438"
   inkscape:cy="16.211348"
   inkscape:window-x="0"
   inkscape:window-y="0"
   inkscape:window-maximized="1"
   inkscape:current-layer="svg2" />
	
<path
   inkscape:connector-curvature="0"
   id="path5"
   d="m 290.32685,107.74566 c 0.018,-0.021 0.022,-0.044 0.035,-0.066 0.203,0.042 0.426,-0.001 0.571,-0.13 0.01,-0.009 0.013,-0.021 0.022,-0.03 0.002,0.002 0.005,0.004 0.006,0.006 0.202,0.183 0.558,0.206 0.795,0.051 0.06,-0.038 0.106,-0.083 0.139,-0.133 0.16,0.062 0.349,0.054 0.51,-0.013 0.13,0.104 0.269,0.201 0.427,0.282 0.244,0.124 0.562,0.078 0.741,-0.094 0.02,0.009 0.042,0.011 0.064,0.018 l 0,-1.293 c -0.007,0.005 -0.017,0.007 -0.023,0.012 -0.029,0.022 -0.044,0.051 -0.065,0.077 -0.082,-0.068 -0.163,-0.136 -0.247,-0.202 -0.185,-0.167 -0.49,-0.19 -0.723,-0.076 -0.164,-0.183 -0.481,-0.249 -0.74,-0.14 -0.094,0.042 -0.158,0.104 -0.207,0.173 -0.223,-0.105 -0.501,-0.07 -0.68,0.068 -0.022,-0.022 -0.05,-0.042 -0.071,-0.066 -0.184,-0.192 -0.536,-0.232 -0.786,-0.091 -0.114,0.064 -0.181,0.156 -0.209,0.254 -0.183,-0.026 -0.377,0.011 -0.513,0.124 -0.045,0.038 -0.075,0.081 -0.099,0.125 -0.225,-0.128 -0.454,-0.252 -0.696,-0.362 -0.215,-0.102 -0.481,-0.073 -0.662,0.05 -0.23,-0.098 -0.525,-0.066 -0.7,0.098 -0.018,0.017 -0.023,0.036 -0.037,0.054 -0.103,-0.067 -0.2,-0.137 -0.288,-0.216 -0.193,-0.182 -0.549,-0.212 -0.791,-0.061 -0.07,0.044 -0.117,0.101 -0.152,0.162 -0.194,-0.091 -0.448,-0.088 -0.639,0.024 -0.109,0.066 -0.171,0.157 -0.198,0.253 -0.157,-0.107 -0.313,-0.215 -0.469,-0.324 -0.233,-0.155 -0.588,-0.135 -0.791,0.047 -0.024,0.022 -0.035,0.048 -0.053,0.072 -0.069,-0.054 -0.138,-0.108 -0.201,-0.167 -0.189,-0.186 -0.545,-0.219 -0.791,-0.074 -0.058,0.035 -0.104,0.079 -0.139,0.125 -0.178,-0.167 -0.494,-0.214 -0.735,-0.092 -0.075,0.037 -0.13,0.088 -0.173,0.144 -0.221,-0.142 -0.554,-0.139 -0.763,0.018 -0.029,0.022 -0.044,0.051 -0.065,0.077 -0.082,-0.068 -0.163,-0.136 -0.247,-0.202 -0.185,-0.167 -0.49,-0.19 -0.723,-0.076 -0.163,-0.183 -0.48,-0.249 -0.739,-0.14 -0.094,0.042 -0.159,0.104 -0.207,0.173 -0.224,-0.105 -0.501,-0.07 -0.68,0.068 -0.023,-0.022 -0.05,-0.042 -0.071,-0.066 -0.185,-0.192 -0.536,-0.232 -0.786,-0.091 -0.113,0.064 -0.18,0.156 -0.209,0.254 -0.183,-0.026 -0.377,0.011 -0.513,0.124 -0.045,0.038 -0.075,0.081 -0.099,0.125 -0.225,-0.128 -0.454,-0.252 -0.696,-0.362 -0.215,-0.102 -0.481,-0.073 -0.662,0.05 -0.231,-0.098 -0.525,-0.066 -0.7,0.098 -0.018,0.017 -0.024,0.036 -0.038,0.054 -0.103,-0.067 -0.2,-0.137 -0.288,-0.216 -0.193,-0.182 -0.549,-0.212 -0.791,-0.061 -0.071,0.044 -0.118,0.101 -0.152,0.162 -0.193,-0.091 -0.448,-0.088 -0.638,0.024 -0.109,0.066 -0.171,0.157 -0.198,0.253 -0.157,-0.107 -0.313,-0.215 -0.469,-0.324 -0.233,-0.155 -0.588,-0.135 -0.791,0.047 -0.025,0.022 -0.036,0.048 -0.053,0.072 -0.069,-0.054 -0.138,-0.108 -0.202,-0.167 -0.189,-0.186 -0.544,-0.219 -0.791,-0.074 -0.059,0.035 -0.104,0.079 -0.139,0.125 -0.178,-0.167 -0.493,-0.214 -0.735,-0.092 -0.075,0.037 -0.13,0.088 -0.172,0.144 -0.221,-0.142 -0.554,-0.139 -0.763,0.018 -0.029,0.022 -0.044,0.051 -0.065,0.077 -0.082,-0.068 -0.163,-0.136 -0.247,-0.202 -0.185,-0.167 -0.49,-0.19 -0.723,-0.076 -0.164,-0.183 -0.481,-0.249 -0.739,-0.14 -0.095,0.042 -0.159,0.104 -0.208,0.173 -0.223,-0.105 -0.501,-0.07 -0.68,0.068 -0.022,-0.022 -0.05,-0.042 -0.07,-0.066 -0.185,-0.192 -0.536,-0.232 -0.786,-0.091 -0.114,0.064 -0.181,0.156 -0.209,0.254 -0.184,-0.026 -0.378,0.011 -0.513,0.124 -0.045,0.038 -0.075,0.081 -0.099,0.125 -0.225,-0.128 -0.454,-0.252 -0.696,-0.362 -0.215,-0.102 -0.481,-0.073 -0.662,0.05 -0.23,-0.098 -0.525,-0.066 -0.7,0.098 -0.018,0.017 -0.023,0.036 -0.038,0.054 -0.102,-0.067 -0.2,-0.137 -0.288,-0.216 -0.193,-0.182 -0.549,-0.212 -0.791,-0.061 -0.07,0.044 -0.118,0.101 -0.152,0.162 -0.194,-0.091 -0.448,-0.088 -0.638,0.024 -0.109,0.066 -0.171,0.157 -0.199,0.253 -0.157,-0.107 -0.313,-0.215 -0.469,-0.324 -0.232,-0.155 -0.588,-0.135 -0.791,0.047 -0.024,0.022 -0.035,0.048 -0.053,0.072 -0.069,-0.054 -0.138,-0.108 -0.201,-0.167 -0.189,-0.186 -0.545,-0.219 -0.791,-0.074 -0.059,0.035 -0.104,0.079 -0.139,0.125 -0.178,-0.167 -0.494,-0.214 -0.735,-0.092 -0.076,0.037 -0.13,0.088 -0.172,0.144 -0.221,-0.142 -0.554,-0.139 -0.763,0.018 -0.029,0.022 -0.044,0.051 -0.065,0.077 -0.082,-0.068 -0.163,-0.136 -0.247,-0.202 -0.185,-0.167 -0.49,-0.19 -0.723,-0.076 -0.163,-0.183 -0.48,-0.249 -0.739,-0.14 -0.094,0.042 -0.158,0.104 -0.207,0.173 -0.224,-0.105 -0.501,-0.07 -0.68,0.068 -0.023,-0.022 -0.05,-0.042 -0.071,-0.066 -0.185,-0.192 -0.536,-0.232 -0.786,-0.091 -0.114,0.064 -0.18,0.156 -0.209,0.254 -0.183,-0.026 -0.377,0.011 -0.513,0.124 -0.045,0.038 -0.075,0.081 -0.099,0.125 -0.225,-0.128 -0.454,-0.252 -0.696,-0.362 -0.215,-0.102 -0.481,-0.073 -0.662,0.05 -0.231,-0.098 -0.525,-0.066 -0.7,0.098 -0.017,0.017 -0.023,0.036 -0.037,0.054 -0.103,-0.067 -0.2,-0.137 -0.288,-0.216 -0.193,-0.182 -0.549,-0.212 -0.791,-0.061 -0.071,0.044 -0.118,0.101 -0.152,0.162 -0.193,-0.091 -0.448,-0.088 -0.638,0.024 -0.109,0.066 -0.171,0.157 -0.198,0.253 -0.157,-0.107 -0.313,-0.215 -0.469,-0.324 -0.233,-0.155 -0.588,-0.135 -0.791,0.047 -0.025,0.022 -0.035,0.048 -0.053,0.072 -0.069,-0.054 -0.139,-0.108 -0.202,-0.167 -0.188,-0.186 -0.544,-0.219 -0.791,-0.074 -0.059,0.035 -0.104,0.079 -0.139,0.125 -0.178,-0.167 -0.494,-0.214 -0.735,-0.092 -0.075,0.037 -0.129,0.088 -0.172,0.144 -0.221,-0.142 -0.554,-0.139 -0.763,0.018 -0.029,0.022 -0.044,0.051 -0.065,0.077 -0.082,-0.068 -0.163,-0.136 -0.247,-0.202 -0.185,-0.167 -0.49,-0.19 -0.723,-0.076 -0.164,-0.183 -0.481,-0.249 -0.74,-0.14 -0.094,0.042 -0.158,0.104 -0.207,0.173 -0.224,-0.105 -0.502,-0.07 -0.68,0.068 -0.023,-0.022 -0.05,-0.042 -0.071,-0.066 -0.185,-0.192 -0.536,-0.232 -0.786,-0.091 -0.114,0.064 -0.181,0.156 -0.209,0.254 -0.183,-0.026 -0.378,0.011 -0.513,0.124 -0.045,0.038 -0.075,0.081 -0.1,0.125 -0.225,-0.128 -0.454,-0.252 -0.696,-0.362 -0.215,-0.102 -0.481,-0.073 -0.662,0.05 -0.23,-0.098 -0.525,-0.066 -0.7,0.098 -0.018,0.017 -0.023,0.036 -0.037,0.054 -0.103,-0.067 -0.2,-0.137 -0.288,-0.216 -0.193,-0.182 -0.549,-0.212 -0.791,-0.061 -0.07,0.044 -0.117,0.101 -0.152,0.162 -0.194,-0.091 -0.448,-0.088 -0.639,0.024 -0.109,0.066 -0.171,0.157 -0.198,0.253 -0.157,-0.107 -0.314,-0.215 -0.47,-0.324 -0.232,-0.155 -0.588,-0.135 -0.791,0.047 -0.024,0.022 -0.035,0.048 -0.053,0.072 -0.069,-0.054 -0.139,-0.108 -0.202,-0.167 -0.189,-0.186 -0.545,-0.219 -0.791,-0.074 -0.059,0.035 -0.104,0.079 -0.139,0.125 -0.178,-0.167 -0.494,-0.214 -0.735,-0.092 -0.075,0.037 -0.13,0.088 -0.172,0.144 -0.221,-0.142 -0.554,-0.139 -0.763,0.018 -0.029,0.022 -0.044,0.051 -0.065,0.077 -0.082,-0.068 -0.163,-0.136 -0.247,-0.202 -0.185,-0.167 -0.49,-0.19 -0.723,-0.076 -0.164,-0.183 -0.481,-0.249 -0.74,-0.14 -0.094,0.042 -0.158,0.104 -0.207,0.173 -0.224,-0.105 -0.501,-0.07 -0.68,0.068 -0.023,-0.022 -0.05,-0.042 -0.071,-0.066 -0.184,-0.192 -0.536,-0.232 -0.786,-0.091 -0.25,0.142 -0.303,0.412 -0.119,0.604 0.259,0.321 0.721,0.506 0.984,0.823 0.202,0.183 0.558,0.206 0.795,0.051 0.06,-0.038 0.105,-0.083 0.139,-0.133 0.16,0.062 0.349,0.054 0.51,-0.013 0.13,0.104 0.269,0.201 0.427,0.282 0.244,0.124 0.561,0.078 0.741,-0.094 0.256,0.117 0.586,0.067 0.757,-0.126 0.004,-0.005 0.004,-0.011 0.008,-0.016 0.206,0.136 0.42,0.264 0.655,0.371 0.266,0.112 0.595,0.042 0.75,-0.156 0.187,0.032 0.39,-0.003 0.533,-0.118 0.026,-0.021 0.039,-0.048 0.059,-0.073 0.194,0.113 0.4,0.217 0.644,0.289 0.229,0.049 0.463,-0.018 0.599,-0.154 0.118,0.073 0.229,0.151 0.354,0.218 0.25,0.138 0.602,0.094 0.782,-0.101 0.057,-0.061 0.082,-0.129 0.092,-0.199 0.129,0.066 0.253,0.136 0.364,0.219 0.242,0.148 0.597,0.122 0.791,-0.067 0.03,-0.029 0.044,-0.062 0.063,-0.094 0.113,0.054 0.226,0.107 0.337,0.161 0.209,0.085 0.458,0.058 0.629,-0.054 0.233,0.149 0.578,0.135 0.781,-0.041 0.012,-0.01 0.016,-0.024 0.027,-0.035 0.121,0.075 0.241,0.149 0.364,0.221 0.259,0.131 0.611,0.081 0.782,-0.118 0.018,-0.021 0.022,-0.044 0.035,-0.066 0.203,0.042 0.426,-0.001 0.571,-0.13 0.01,-0.009 0.013,-0.021 0.021,-0.03 0.002,0.002 0.005,0.004 0.007,0.006 0.202,0.183 0.558,0.206 0.795,0.051 0.059,-0.038 0.105,-0.083 0.138,-0.133 0.16,0.062 0.349,0.054 0.51,-0.013 0.13,0.104 0.269,0.201 0.428,0.282 0.244,0.124 0.561,0.078 0.741,-0.094 0.256,0.117 0.586,0.067 0.757,-0.126 0.004,-0.005 0.004,-0.011 0.008,-0.016 0.206,0.136 0.42,0.264 0.655,0.371 0.266,0.112 0.595,0.042 0.75,-0.156 0.187,0.032 0.39,-0.003 0.532,-0.118 0.026,-0.021 0.04,-0.048 0.059,-0.073 0.194,0.113 0.4,0.217 0.644,0.289 0.229,0.049 0.463,-0.018 0.599,-0.154 0.118,0.073 0.229,0.151 0.354,0.218 0.25,0.138 0.602,0.094 0.782,-0.101 0.057,-0.061 0.082,-0.129 0.093,-0.199 0.128,0.066 0.253,0.136 0.364,0.219 0.242,0.148 0.598,0.122 0.791,-0.067 0.03,-0.029 0.044,-0.062 0.063,-0.094 0.113,0.054 0.226,0.107 0.336,0.161 0.209,0.085 0.458,0.058 0.629,-0.054 0.233,0.149 0.578,0.135 0.78,-0.041 0.012,-0.01 0.017,-0.024 0.027,-0.035 0.12,0.075 0.241,0.149 0.364,0.221 0.259,0.131 0.61,0.081 0.782,-0.118 0.018,-0.021 0.022,-0.044 0.035,-0.066 0.203,0.042 0.426,-0.001 0.571,-0.13 0.01,-0.009 0.013,-0.021 0.021,-0.03 0.002,0.002 0.005,0.004 0.007,0.006 0.202,0.183 0.558,0.206 0.795,0.051 0.059,-0.038 0.105,-0.083 0.139,-0.133 0.16,0.062 0.349,0.054 0.51,-0.013 0.13,0.104 0.269,0.201 0.427,0.282 0.244,0.124 0.561,0.078 0.741,-0.094 0.256,0.117 0.586,0.067 0.757,-0.126 0.004,-0.005 0.004,-0.011 0.008,-0.016 0.206,0.136 0.42,0.264 0.655,0.371 0.266,0.112 0.595,0.042 0.75,-0.156 0.187,0.032 0.39,-0.003 0.533,-0.118 0.026,-0.021 0.039,-0.048 0.059,-0.073 0.194,0.113 0.4,0.217 0.644,0.289 0.229,0.049 0.463,-0.018 0.599,-0.154 0.118,0.073 0.229,0.151 0.354,0.218 0.25,0.138 0.602,0.094 0.782,-0.101 0.057,-0.061 0.082,-0.129 0.092,-0.199 0.128,0.066 0.253,0.136 0.364,0.219 0.242,0.148 0.597,0.122 0.791,-0.067 0.03,-0.029 0.044,-0.062 0.063,-0.094 0.113,0.054 0.226,0.107 0.336,0.161 0.209,0.085 0.458,0.058 0.629,-0.054 0.233,0.149 0.578,0.135 0.781,-0.041 0.012,-0.01 0.016,-0.024 0.027,-0.035 0.12,0.075 0.24,0.149 0.363,0.221 0.259,0.131 0.61,0.081 0.782,-0.118 0.018,-0.021 0.022,-0.044 0.035,-0.066 0.203,0.042 0.426,-0.001 0.571,-0.13 0.01,-0.009 0.013,-0.021 0.022,-0.03 0.002,0.002 0.004,0.004 0.007,0.006 0.202,0.183 0.558,0.206 0.794,0.051 0.06,-0.038 0.106,-0.083 0.139,-0.133 0.16,0.062 0.348,0.054 0.51,-0.013 0.13,0.104 0.269,0.201 0.427,0.282 0.244,0.124 0.562,0.078 0.741,-0.094 0.256,0.117 0.586,0.067 0.756,-0.126 0.004,-0.005 0.004,-0.011 0.009,-0.016 0.206,0.136 0.419,0.264 0.654,0.371 0.266,0.112 0.595,0.042 0.75,-0.156 0.187,0.032 0.39,-0.003 0.533,-0.118 0.027,-0.021 0.04,-0.048 0.059,-0.073 0.194,0.113 0.4,0.217 0.644,0.289 0.229,0.049 0.463,-0.018 0.599,-0.154 0.118,0.073 0.229,0.151 0.354,0.218 0.25,0.138 0.602,0.094 0.782,-0.101 0.057,-0.061 0.082,-0.129 0.093,-0.199 0.128,0.066 0.253,0.136 0.364,0.219 0.242,0.148 0.598,0.122 0.791,-0.067 0.03,-0.029 0.044,-0.062 0.063,-0.094 0.113,0.054 0.226,0.107 0.336,0.161 0.209,0.085 0.458,0.058 0.629,-0.054 0.232,0.149 0.578,0.135 0.78,-0.041 0.013,-0.01 0.017,-0.024 0.027,-0.035 0.12,0.075 0.241,0.149 0.364,0.221 0.259,0.131 0.61,0.081 0.782,-0.118 0.018,-0.021 0.022,-0.044 0.035,-0.066 0.203,0.042 0.426,-0.001 0.571,-0.13 0.01,-0.009 0.013,-0.021 0.021,-0.03 0.002,0.002 0.005,0.004 0.007,0.006 0.202,0.183 0.558,0.206 0.795,0.051 0.059,-0.038 0.105,-0.083 0.139,-0.133 0.16,0.062 0.349,0.054 0.51,-0.013 0.13,0.104 0.268,0.201 0.427,0.282 0.244,0.124 0.561,0.078 0.741,-0.094 0.256,0.117 0.586,0.067 0.757,-0.126 0.004,-0.005 0.004,-0.011 0.008,-0.016 0.206,0.136 0.42,0.264 0.655,0.371 0.266,0.112 0.595,0.042 0.75,-0.156 0.187,0.032 0.39,-0.003 0.533,-0.118 0.026,-0.021 0.039,-0.048 0.059,-0.073 0.194,0.113 0.4,0.217 0.644,0.289 0.229,0.049 0.463,-0.018 0.599,-0.154 0.117,0.073 0.229,0.151 0.354,0.218 0.25,0.138 0.602,0.094 0.782,-0.101 0.057,-0.061 0.082,-0.129 0.093,-0.199 0.129,0.066 0.253,0.136 0.364,0.219 0.241,0.148 0.597,0.122 0.791,-0.067 0.03,-0.029 0.044,-0.062 0.063,-0.094 0.113,0.054 0.226,0.107 0.336,0.161 0.209,0.085 0.458,0.058 0.629,-0.054 0.233,0.149 0.578,0.135 0.781,-0.041 0.012,-0.01 0.016,-0.024 0.027,-0.035 0.12,0.075 0.241,0.149 0.364,0.221 0.27,0.146 0.621,0.096 0.792,-0.103 z"
   style="fill:#bfa794;stroke:#000000;stroke-width:0.44999999;overflow:visible" /><path
   inkscape:connector-curvature="0"
   style="fill:#bfa794;stroke:#000000;stroke-width:0.44999999;overflow:visible"
   d="m 228.02729,83.639806 c -0.0165,0.10925 0.0228,0.2165 0.0937,0.3125 0.199,0.32 0.548,0.4955 0.75,0.8125 0.155,0.182 0.443,0.2175 0.625,0.0625 0.045,-0.038 0.0687,-0.075 0.0937,-0.125 0.123,0.062 0.28225,0.0358 0.40625,-0.0312 0.1,0.104 0.1905,0.20025 0.3125,0.28125 0.188,0.124 0.4255,0.0772 0.5625,-0.0937 0.197,0.117 0.46275,0.068 0.59375,-0.125 0.158,0.135 0.32,0.267 0.5,0.375 0.204,0.112 0.47475,0.0418 0.59375,-0.15625 0.144,0.032 0.29625,-0.011 0.40625,-0.125 0.021,-0.022 0.0162,-0.0385 0.0312,-0.0625 0.149,0.114 0.313,0.20925 0.5,0.28125 0.176,0.049 0.36375,-0.0203 0.46875,-0.15625 0.09,0.073 0.154,0.15175 0.25,0.21875 0.192,0.138 0.486,0.10225 0.625,-0.0937 0.043,-0.061 0.0545,-0.14975 0.0625,-0.21875 0.099,0.066 0.19525,0.13675 0.28125,0.21875 0.186,0.149 0.44575,0.1265 0.59375,-0.0625 0.023,-0.028 0.0475,-0.0627 0.0625,-0.0937 0.086,0.053 0.165,0.10225 0.25,0.15625 0.161,0.086 0.37,0.0807 0.5,-0.0312 0.179,0.15 0.43775,0.1135 0.59375,-0.0625 0.009,-0.01 0.0232,-0.0203 0.0312,-0.0312 0.093,0.075 0.155,0.14675 0.25,0.21875 0.199,0.132 0.493,0.074 0.625,-0.125 0.014,-0.021 0.0212,-0.0405 0.0312,-0.0625 0.156,0.041 0.3265,0.003 0.4375,-0.125 0.008,-0.009 -0.007,-0.0213 0,-0.0312 0.155,0.182 0.443,0.2175 0.625,0.0625 0.045,-0.038 0.0687,-0.075 0.0937,-0.125 0.123,0.062 0.28225,0.0358 0.40625,-0.0312 0.1,0.104 0.1905,0.20025 0.3125,0.28125 0.188,0.124 0.45575,0.0772 0.59375,-0.0937 0.197,0.117 0.4315,0.068 0.5625,-0.125 0.158,0.135 0.32,0.267 0.5,0.375 0.204,0.112 0.47475,0.0418 0.59375,-0.15625 0.144,0.032 0.29625,-0.011 0.40625,-0.125 0.021,-0.022 0.0162,-0.0385 0.0312,-0.0625 0.149,0.114 0.313,0.20925 0.5,0.28125 0.176,0.049 0.36375,-0.0203 0.46875,-0.15625 0.09,0.073 0.18525,0.15175 0.28125,0.21875 0.192,0.138 0.45475,0.10225 0.59375,-0.0937 0.043,-0.061 0.0545,-0.14975 0.0625,-0.21875 0.099,0.066 0.19525,0.13675 0.28125,0.21875 0.186,0.149 0.477,0.1265 0.625,-0.0625 0.023,-0.028 0.0173,-0.0627 0.0312,-0.0937 0.087,0.053 0.165,0.10225 0.25,0.15625 0.161,0.086 0.369,0.0807 0.5,-0.0312 0.179,0.15 0.43775,0.1135 0.59375,-0.0625 0.009,-0.01 0.0222,-0.0203 0.0312,-0.0312 0.092,0.075 0.18625,0.14675 0.28125,0.21875 0.199,0.132 0.46175,0.10525 0.59375,-0.0937 0.014,-0.021 0.0212,-0.0718 0.0312,-0.0937 0.156,0.041 0.3265,0.003 0.4375,-0.125 8.7e-4,10e-4 0.0302,-0.001 0.0312,0 0.156,0.182 0.41175,0.18625 0.59375,0.0312 0.046,-0.038 0.0687,-0.075 0.0937,-0.125 0.123,0.062 0.28225,0.067 0.40625,0 0.1,0.104 0.22175,0.20025 0.34375,0.28125 0.188,0.124 0.4245,0.0772 0.5625,-0.0937 0.197,0.117 0.4315,0.0368 0.5625,-0.15625 0.003,-0.005 0.0282,0.005 0.0312,0 0.158,0.135 0.32,0.267 0.5,0.375 0.204,0.112 0.4435,0.0418 0.5625,-0.15625 0.144,0.032 0.29625,-0.011 0.40625,-0.125 0.021,-0.022 0.0475,-0.0385 0.0625,-0.0625 0.11102,0.0849 0.21405,0.1543 0.34375,0.21875 l 0,-1.5625 c -0.0999,0.0143 -0.17919,0.0731 -0.25,0.15625 -0.019,0.022 -0.0173,0.0687 -0.0312,0.0937 -0.053,-0.054 -0.10725,-0.1285 -0.15625,-0.1875 -0.145,-0.186 -0.436,-0.2075 -0.625,-0.0625 -0.045,0.035 -0.0667,0.078 -0.0937,0.125 -0.137,-0.167 -0.3765,-0.21575 -0.5625,-0.0937 -0.058,0.037 -0.12425,0.069 -0.15625,0.125 -0.17,-0.142 -0.4025,-0.12675 -0.5625,0.0312 -0.022,0.022 -0.0465,0.0677 -0.0625,0.0937 -0.063,-0.068 -0.1225,-0.15275 -0.1875,-0.21875 -0.142,-0.167 -0.3835,-0.1765 -0.5625,-0.0625 -0.125,-0.183 -0.3645,-0.26525 -0.5625,-0.15625 -0.073,0.041 -0.11925,0.1185 -0.15625,0.1875 -0.172,-0.105 -0.39425,-0.0745 -0.53125,0.0625 -0.017,-0.022 -0.0152,-0.0385 -0.0312,-0.0625 -0.142,-0.192 -0.433,-0.23575 -0.625,-0.0937 -0.087,0.064 -0.13425,0.152 -0.15625,0.25 -0.141,-0.026 -0.30125,0.012 -0.40625,0.125 -0.035,0.038 -0.0445,0.081 -0.0625,0.125 -0.172,-0.128 -0.34525,-0.265 -0.53125,-0.375 -0.166,-0.102 -0.362,-0.0605 -0.5,0.0625 -0.177,-0.098 -0.4285,-0.0702 -0.5625,0.0937 -0.013,0.016 0.01,0.0445 0,0.0625 -0.079,-0.067 -0.183,-0.14075 -0.25,-0.21875 -0.148,-0.182 -0.40875,-0.2135 -0.59375,-0.0625 -0.054,0.044 -0.098,0.0952 -0.125,0.15625 -0.148,-0.091 -0.32275,-0.0817 -0.46875,0.0312 -0.084,0.066 -0.13625,0.155 -0.15625,0.25 -0.121,-0.107 -0.255,-0.2045 -0.375,-0.3125 -0.179,-0.155 -0.43875,-0.15075 -0.59375,0.0312 -0.019,0.022 -0.0485,0.0375 -0.0625,0.0625 -0.053,-0.054 -0.10725,-0.0973 -0.15625,-0.15625 -0.145,-0.186 -0.40475,-0.2075 -0.59375,-0.0625 -0.045,0.035 -0.0667,0.078 -0.0937,0.125 -0.136,-0.167 -0.3775,-0.21575 -0.5625,-0.0937 -0.058,0.037 -0.12325,0.069 -0.15625,0.125 -0.17,-0.142 -0.4025,-0.12675 -0.5625,0.0312 -0.022,0.022 -0.0465,0.0365 -0.0625,0.0625 -0.063,-0.068 -0.1235,-0.1215 -0.1875,-0.1875 -0.142,-0.167 -0.3835,-0.1765 -0.5625,-0.0625 -0.125,-0.183 -0.3645,-0.26525 -0.5625,-0.15625 -0.072,0.041 -0.11925,0.1185 -0.15625,0.1875 -0.172,-0.105 -0.39425,-0.0745 -0.53125,0.0625 -0.018,-0.022 -0.0465,-0.0385 -0.0625,-0.0625 -0.142,-0.192 -0.40175,-0.23575 -0.59375,-0.0937 -0.087,0.064 -0.13425,0.152 -0.15625,0.25 -0.141,-0.026 -0.30125,0.012 -0.40625,0.125 -0.035,0.038 -0.0435,0.081 -0.0625,0.125 -0.172,-0.128 -0.34525,-0.265 -0.53125,-0.375 -0.166,-0.102 -0.39325,-0.0605 -0.53125,0.0625 -0.177,-0.098 -0.39625,-0.0702 -0.53125,0.0937 -0.014,0.016 -0.0203,0.0445 -0.0312,0.0625 -0.079,-0.067 -0.15175,-0.14075 -0.21875,-0.21875 -0.148,-0.182 -0.40875,-0.2135 -0.59375,-0.0625 -0.054,0.044 -0.098,0.0952 -0.125,0.15625 -0.149,-0.091 -0.353,-0.0817 -0.5,0.0312 -0.084,0.066 -0.105,0.155 -0.125,0.25 -0.121,-0.107 -0.255,-0.2045 -0.375,-0.3125 -0.179,-0.155 -0.43875,-0.15075 -0.59375,0.0312 -0.019,0.022 -0.0485,0.0375 -0.0625,0.0625 -0.053,-0.054 -0.10725,-0.0973 -0.15625,-0.15625 -0.145,-0.186 -0.40475,-0.2075 -0.59375,-0.0625 -0.045,0.035 -0.099,0.078 -0.125,0.125 -0.137,-0.167 -0.3765,-0.21575 -0.5625,-0.0937 -0.058,0.037 -0.093,0.069 -0.125,0.125 -0.17,-0.142 -0.43275,-0.12675 -0.59375,0.0312 -0.022,0.022 -0.0152,0.0365 -0.0312,0.0625 -0.063,-0.068 -0.1235,-0.1215 -0.1875,-0.1875 -0.142,-0.167 -0.3835,-0.20775 -0.5625,-0.0937 -0.125,-0.183 -0.3645,-0.234 -0.5625,-0.125 -0.072,0.041 -0.11925,0.1185 -0.15625,0.1875 -0.172,-0.105 -0.39425,-0.0745 -0.53125,0.0625 -0.018,-0.022 -0.0465,-0.0385 -0.0625,-0.0625 -0.142,-0.192 -0.40175,-0.23575 -0.59375,-0.0937 -0.096,0.071 -0.171,0.172 -0.1875,0.28125 z"
   id="path9-7-7-2" /><g
   style="overflow:visible"
   id="g11"
   transform="matrix(-1,0,0,-1,301.03173,121.88)"><circle
     sodipodi:ry="12.41"
     sodipodi:rx="12.41"
     sodipodi:cy="26.488001"
     sodipodi:cx="73.122002"
     id="circle13"
     r="12.41"
     cy="26.488001"
     cx="73.122002"
     style="fill:#ffffff;stroke:#000000;stroke-width:0.44999999"
     d="m 85.532001,26.488001 c 0,6.853854 -5.556146,12.41 -12.409999,12.41 -6.853854,0 -12.41,-5.556146 -12.41,-12.41 0,-6.853854 5.556146,-12.41 12.41,-12.41 6.853853,0 12.409999,5.556146 12.409999,12.41 z" /><circle
     sodipodi:ry="2.4820001"
     sodipodi:rx="2.4820001"
     sodipodi:cy="26.488001"
     sodipodi:cx="73.122002"
     id="circle15"
     r="2.4820001"
     cy="26.488001"
     cx="73.122002"
     style="fill:none;stroke:#000000;stroke-width:0.44999999"
     d="m 75.604002,26.488001 c 0,1.370771 -1.11123,2.482 -2.482,2.482 -1.370771,0 -2.482,-1.111229 -2.482,-2.482 0,-1.370771 1.111229,-2.482 2.482,-2.482 1.37077,0 2.482,1.111229 2.482,2.482 z" /></g><path
   inkscape:connector-curvature="0"
   style="fill:#bfa794;stroke:#000000;stroke-width:0.44999999;overflow:visible"
   d="m 250.87533,74.442906 c -0.0165,0.10925 0.0228,0.2165 0.0937,0.3125 0.199,0.32 0.548,0.4955 0.75,0.8125 0.155,0.182 0.443,0.2175 0.625,0.0625 0.045,-0.038 0.0688,-0.075 0.0937,-0.125 0.123,0.062 0.28225,0.0358 0.40625,-0.0312 0.1,0.104 0.1905,0.20025 0.3125,0.28125 0.188,0.124 0.4255,0.0772 0.5625,-0.0937 0.197,0.117 0.46275,0.068 0.59375,-0.125 0.158,0.135 0.32,0.267 0.5,0.375 0.204,0.112 0.47475,0.0418 0.59375,-0.15625 0.144,0.032 0.29625,-0.011 0.40625,-0.125 0.021,-0.022 0.0163,-0.0385 0.0312,-0.0625 0.149,0.114 0.313,0.20925 0.5,0.28125 0.176,0.049 0.36375,-0.0203 0.46875,-0.15625 0.09,0.073 0.154,0.15175 0.25,0.21875 0.192,0.138 0.486,0.10225 0.625,-0.0937 0.043,-0.061 0.0545,-0.14975 0.0625,-0.21875 0.099,0.066 0.19525,0.13675 0.28125,0.21875 0.186,0.149 0.44575,0.1265 0.59375,-0.0625 0.023,-0.028 0.0475,-0.0627 0.0625,-0.0937 0.086,0.053 0.165,0.10225 0.25,0.15625 0.161,0.086 0.37,0.0807 0.5,-0.0312 0.179,0.15 0.43775,0.1135 0.59375,-0.0625 0.009,-0.01 0.0232,-0.0203 0.0312,-0.0312 0.093,0.075 0.155,0.14675 0.25,0.21875 0.199,0.132 0.493,0.074 0.625,-0.125 0.014,-0.021 0.0212,-0.0405 0.0312,-0.0625 0.156,0.041 0.3265,0.003 0.4375,-0.125 0.008,-0.009 -0.007,-0.0213 0,-0.0312 0.155,0.182 0.443,0.2175 0.625,0.0625 0.045,-0.038 0.0687,-0.075 0.0937,-0.125 0.123,0.062 0.28225,0.0358 0.40625,-0.0312 0.1,0.104 0.1905,0.20025 0.3125,0.28125 0.188,0.124 0.45575,0.0772 0.59375,-0.0937 0.197,0.117 0.4315,0.068 0.5625,-0.125 0.158,0.135 0.32,0.267 0.5,0.375 0.204,0.112 0.47475,0.0418 0.59375,-0.15625 0.144,0.032 0.29625,-0.011 0.40625,-0.125 0.021,-0.022 0.0162,-0.0385 0.0312,-0.0625 0.149,0.114 0.313,0.20925 0.5,0.28125 0.176,0.049 0.36375,-0.0203 0.46875,-0.15625 0.09,0.073 0.18525,0.15175 0.28125,0.21875 0.192,0.138 0.45475,0.10225 0.59375,-0.0937 0.043,-0.061 0.0545,-0.14975 0.0625,-0.21875 0.099,0.066 0.19525,0.13675 0.28125,0.21875 0.186,0.149 0.477,0.1265 0.625,-0.0625 0.023,-0.028 0.0173,-0.0627 0.0312,-0.0937 0.087,0.053 0.165,0.10225 0.25,0.15625 0.161,0.086 0.369,0.0807 0.5,-0.0312 0.179,0.15 0.43775,0.1135 0.59375,-0.0625 0.009,-0.01 0.0222,-0.0203 0.0312,-0.0312 0.092,0.075 0.18625,0.14675 0.28125,0.21875 0.19899,0.132 0.46174,0.10525 0.59374,-0.0937 0.014,-0.021 0.0212,-0.0718 0.0312,-0.0937 0.156,0.041 0.3265,0.003 0.4375,-0.125 8.7e-4,10e-4 0.0302,-0.001 0.0312,0 0.156,0.182 0.41175,0.18625 0.59375,0.0312 0.046,-0.038 0.0687,-0.075 0.0937,-0.125 0.123,0.062 0.28225,0.067 0.40625,0 0.1,0.104 0.22175,0.20025 0.34375,0.28125 0.188,0.124 0.4245,0.0772 0.5625,-0.0937 0.197,0.117 0.4315,0.0368 0.5625,-0.15625 0.003,-0.005 0.0282,0.005 0.0312,0 0.158,0.135 0.32,0.267 0.5,0.375 0.204,0.112 0.4435,0.0418 0.5625,-0.15625 0.144,0.032 0.29625,-0.011 0.40625,-0.125 0.021,-0.022 0.0475,-0.0385 0.0625,-0.0625 0.11102,0.0849 0.21405,0.1543 0.34375,0.21875 l 0,-1.5625 c -0.0999,0.0143 -0.17919,0.0731 -0.25,0.15625 -0.019,0.022 -0.0173,0.0687 -0.0312,0.0937 -0.053,-0.054 -0.10725,-0.1285 -0.15625,-0.1875 -0.145,-0.186 -0.436,-0.2075 -0.625,-0.0625 -0.045,0.035 -0.0667,0.078 -0.0937,0.125 -0.137,-0.167 -0.3765,-0.21575 -0.5625,-0.0937 -0.058,0.037 -0.12425,0.069 -0.15625,0.125 -0.17,-0.142 -0.4025,-0.12675 -0.5625,0.0312 -0.022,0.022 -0.0465,0.0677 -0.0625,0.0937 -0.063,-0.068 -0.1225,-0.15275 -0.1875,-0.21875 -0.142,-0.167 -0.3835,-0.1765 -0.5625,-0.0625 -0.125,-0.183 -0.3645,-0.26525 -0.5625,-0.15625 -0.073,0.041 -0.11925,0.1185 -0.15625,0.1875 -0.172,-0.105 -0.39425,-0.0745 -0.53125,0.0625 -0.017,-0.022 -0.0152,-0.0385 -0.0312,-0.0625 -0.142,-0.192 -0.433,-0.23575 -0.625,-0.0937 -0.087,0.064 -0.13425,0.152 -0.15625,0.25 -0.141,-0.026 -0.30124,0.012 -0.40624,0.125 -0.035,0.038 -0.0445,0.081 -0.0625,0.125 -0.172,-0.128 -0.34525,-0.265 -0.53125,-0.375 -0.166,-0.102 -0.362,-0.0605 -0.5,0.0625 -0.177,-0.098 -0.4285,-0.0702 -0.5625,0.0937 -0.013,0.016 0.01,0.0445 0,0.0625 -0.079,-0.067 -0.183,-0.14075 -0.25,-0.21875 -0.148,-0.182 -0.40875,-0.2135 -0.59375,-0.0625 -0.054,0.044 -0.098,0.0952 -0.125,0.15625 -0.148,-0.091 -0.32275,-0.0817 -0.46875,0.0312 -0.084,0.066 -0.13625,0.155 -0.15625,0.25 -0.121,-0.107 -0.255,-0.2045 -0.375,-0.3125 -0.179,-0.155 -0.43875,-0.15075 -0.59375,0.0312 -0.019,0.022 -0.0485,0.0375 -0.0625,0.0625 -0.053,-0.054 -0.10725,-0.0973 -0.15625,-0.15625 -0.145,-0.186 -0.40475,-0.2075 -0.59375,-0.0625 -0.045,0.035 -0.0667,0.078 -0.0937,0.125 -0.136,-0.167 -0.3775,-0.21575 -0.5625,-0.0937 -0.058,0.037 -0.12325,0.069 -0.15625,0.125 -0.17,-0.142 -0.4025,-0.12675 -0.5625,0.0312 -0.022,0.022 -0.0465,0.0365 -0.0625,0.0625 -0.063,-0.068 -0.1235,-0.1215 -0.1875,-0.1875 -0.142,-0.167 -0.3835,-0.1765 -0.5625,-0.0625 -0.125,-0.183 -0.3645,-0.26525 -0.5625,-0.15625 -0.072,0.041 -0.11925,0.1185 -0.15625,0.1875 -0.172,-0.105 -0.39425,-0.0745 -0.53125,0.0625 -0.018,-0.022 -0.0465,-0.0385 -0.0625,-0.0625 -0.142,-0.192 -0.40175,-0.23575 -0.59375,-0.0937 -0.087,0.064 -0.13425,0.152 -0.15625,0.25 -0.141,-0.026 -0.30125,0.012 -0.40625,0.125 -0.035,0.038 -0.0435,0.081 -0.0625,0.125 -0.172,-0.128 -0.34525,-0.265 -0.53125,-0.375 -0.166,-0.102 -0.39325,-0.0605 -0.53125,0.0625 -0.177,-0.098 -0.39625,-0.0702 -0.53125,0.0937 -0.014,0.016 -0.0203,0.0445 -0.0312,0.0625 -0.079,-0.067 -0.15175,-0.14075 -0.21875,-0.21875 -0.148,-0.182 -0.40875,-0.2135 -0.59375,-0.0625 -0.054,0.044 -0.098,0.0952 -0.125,0.15625 -0.149,-0.091 -0.353,-0.0817 -0.5,0.0312 -0.084,0.066 -0.105,0.155 -0.125,0.25 -0.121,-0.107 -0.255,-0.2045 -0.375,-0.3125 -0.179,-0.155 -0.43875,-0.15075 -0.59375,0.0312 -0.019,0.022 -0.0485,0.0375 -0.0625,0.0625 -0.053,-0.054 -0.10725,-0.0973 -0.15625,-0.15625 -0.145,-0.186 -0.40475,-0.2075 -0.59375,-0.0625 -0.045,0.035 -0.099,0.078 -0.125,0.125 -0.137,-0.167 -0.3765,-0.21575 -0.5625,-0.0937 -0.058,0.037 -0.093,0.069 -0.125,0.125 -0.17,-0.142 -0.43275,-0.12675 -0.59375,0.0312 -0.022,0.022 -0.0152,0.0365 -0.0312,0.0625 -0.063,-0.068 -0.1235,-0.1215 -0.1875,-0.1875 -0.142,-0.167 -0.3835,-0.20775 -0.5625,-0.0937 -0.125,-0.183 -0.3645,-0.234 -0.5625,-0.125 -0.072,0.041 -0.11925,0.1185 -0.15625,0.1875 -0.172,-0.105 -0.39425,-0.0745 -0.53125,0.0625 -0.018,-0.022 -0.0465,-0.0385 -0.0625,-0.0625 -0.142,-0.192 -0.40175,-0.23575 -0.59375,-0.0937 -0.096,0.071 -0.171,0.172 -0.1875,0.28125 z"
   id="path9-7-7-2-2" /><path
   inkscape:connector-curvature="0"
   style="fill:#bfa794;stroke:#000000;stroke-width:0.44999999;overflow:visible"
   d="m 200.74625,93.66378 c -0.0165,0.10925 0.0228,0.2165 0.0937,0.3125 0.199,0.32 0.548,0.4955 0.75,0.8125 0.155,0.182 0.443,0.2175 0.625,0.0625 0.045,-0.038 0.0687,-0.075 0.0937,-0.125 0.123,0.062 0.28225,0.0358 0.40625,-0.0312 0.1,0.104 0.1905,0.20025 0.3125,0.28125 0.188,0.124 0.4255,0.0772 0.5625,-0.0937 0.197,0.117 0.46275,0.068 0.59375,-0.125 0.158,0.135 0.32,0.267 0.5,0.375 0.204,0.112 0.47475,0.0418 0.59375,-0.15625 0.144,0.032 0.29625,-0.011 0.40625,-0.125 0.021,-0.022 0.0162,-0.0385 0.0312,-0.0625 0.149,0.114 0.313,0.20925 0.5,0.28125 0.176,0.049 0.36375,-0.0203 0.46875,-0.15625 0.09,0.073 0.154,0.15175 0.25,0.21875 0.192,0.138 0.486,0.10225 0.625,-0.0937 0.043,-0.061 0.0545,-0.14975 0.0625,-0.21875 0.099,0.066 0.19525,0.13675 0.28125,0.21875 0.186,0.149 0.44575,0.1265 0.59375,-0.0625 0.023,-0.028 0.0475,-0.0627 0.0625,-0.0937 0.086,0.053 0.165,0.10225 0.25,0.15625 0.161,0.086 0.37,0.0807 0.5,-0.0312 0.179,0.15 0.43775,0.1135 0.59375,-0.0625 0.009,-0.01 0.0232,-0.0203 0.0312,-0.0312 0.093,0.075 0.155,0.14675 0.25,0.21875 0.199,0.132 0.493,0.074 0.625,-0.125 0.014,-0.021 0.0213,-0.0405 0.0312,-0.0625 0.156,0.041 0.3265,0.003 0.4375,-0.125 0.008,-0.009 -0.007,-0.0213 0,-0.0312 0.155,0.182 0.443,0.2175 0.625,0.0625 0.045,-0.038 0.0687,-0.075 0.0937,-0.125 0.123,0.062 0.28225,0.0358 0.40625,-0.0312 0.1,0.104 0.1905,0.20025 0.3125,0.28125 0.188,0.124 0.45575,0.0772 0.59375,-0.0937 0.197,0.117 0.4315,0.068 0.5625,-0.125 0.158,0.135 0.32,0.267 0.5,0.375 0.204,0.112 0.47475,0.0418 0.59375,-0.15625 0.144,0.032 0.29625,-0.011 0.40625,-0.125 0.021,-0.022 0.0162,-0.0385 0.0312,-0.0625 0.149,0.114 0.313,0.20925 0.5,0.28125 0.176,0.049 0.36375,-0.0203 0.46875,-0.15625 0.09,0.073 0.18525,0.15175 0.28125,0.21875 0.192,0.138 0.45475,0.10225 0.59375,-0.0937 0.043,-0.061 0.0545,-0.14975 0.0625,-0.21875 0.099,0.066 0.19525,0.13675 0.28125,0.21875 0.186,0.149 0.477,0.1265 0.625,-0.0625 0.023,-0.028 0.0172,-0.0627 0.0312,-0.0937 0.087,0.053 0.165,0.10225 0.25,0.15625 0.161,0.086 0.369,0.0807 0.5,-0.0312 0.179,0.15 0.43775,0.1135 0.59375,-0.0625 0.009,-0.01 0.0222,-0.0203 0.0312,-0.0312 0.092,0.075 0.18625,0.14675 0.28125,0.21875 0.199,0.132 0.46175,0.10525 0.59375,-0.0937 0.014,-0.021 0.0213,-0.0718 0.0312,-0.0937 0.156,0.041 0.3265,0.003 0.4375,-0.125 8.8e-4,0.001 0.0302,-0.001 0.0312,0 0.156,0.182 0.41175,0.18625 0.59375,0.0312 0.046,-0.038 0.0687,-0.075 0.0937,-0.125 0.123,0.062 0.28225,0.067 0.40625,0 0.1,0.104 0.22175,0.20025 0.34375,0.28125 0.188,0.124 0.4245,0.0772 0.5625,-0.0937 0.197,0.117 0.4315,0.0368 0.5625,-0.15625 0.003,-0.005 0.0282,0.005 0.0312,0 0.158,0.135 0.32,0.267 0.5,0.375 0.204,0.112 0.4435,0.0418 0.5625,-0.15625 0.144,0.032 0.29625,-0.011 0.40625,-0.125 0.021,-0.022 0.0475,-0.0385 0.0625,-0.0625 0.11102,0.0849 0.21406,0.1543 0.34375,0.21875 l 0,-1.5625 c -0.0999,0.0143 -0.17918,0.0731 -0.25,0.15625 -0.019,0.022 -0.0173,0.0687 -0.0312,0.0937 -0.053,-0.054 -0.10725,-0.1285 -0.15625,-0.1875 -0.145,-0.186 -0.436,-0.2075 -0.625,-0.0625 -0.045,0.035 -0.0667,0.078 -0.0937,0.125 -0.137,-0.167 -0.3765,-0.21575 -0.5625,-0.0937 -0.058,0.037 -0.12425,0.069 -0.15625,0.125 -0.17,-0.142 -0.4025,-0.12675 -0.5625,0.0312 -0.022,0.022 -0.0465,0.0677 -0.0625,0.0937 -0.063,-0.068 -0.1225,-0.15275 -0.1875,-0.21875 -0.142,-0.167 -0.3835,-0.1765 -0.5625,-0.0625 -0.125,-0.183 -0.3645,-0.26525 -0.5625,-0.15625 -0.073,0.041 -0.11925,0.1185 -0.15625,0.1875 -0.172,-0.105 -0.39425,-0.0745 -0.53125,0.0625 -0.017,-0.022 -0.0152,-0.0385 -0.0312,-0.0625 -0.142,-0.192 -0.433,-0.23575 -0.625,-0.0937 -0.087,0.064 -0.13425,0.152 -0.15625,0.25 -0.141,-0.026 -0.30125,0.012 -0.40625,0.125 -0.035,0.038 -0.0445,0.081 -0.0625,0.125 -0.172,-0.128 -0.34525,-0.265 -0.53125,-0.375 -0.166,-0.102 -0.362,-0.0605 -0.5,0.0625 -0.177,-0.098 -0.4285,-0.0702 -0.5625,0.0937 -0.013,0.016 0.01,0.0445 0,0.0625 -0.079,-0.067 -0.183,-0.14075 -0.25,-0.21875 -0.148,-0.182 -0.40875,-0.2135 -0.59375,-0.0625 -0.054,0.044 -0.098,0.0952 -0.125,0.15625 -0.148,-0.091 -0.32275,-0.0817 -0.46875,0.0312 -0.084,0.066 -0.13625,0.155 -0.15625,0.25 -0.121,-0.107 -0.255,-0.2045 -0.375,-0.3125 -0.179,-0.155 -0.43875,-0.15075 -0.59375,0.0312 -0.019,0.022 -0.0485,0.0375 -0.0625,0.0625 -0.053,-0.054 -0.10725,-0.0973 -0.15625,-0.15625 -0.145,-0.186 -0.40475,-0.2075 -0.59375,-0.0625 -0.045,0.035 -0.0667,0.078 -0.0937,0.125 -0.136,-0.167 -0.3775,-0.21575 -0.5625,-0.0937 -0.058,0.037 -0.12325,0.069 -0.15625,0.125 -0.17,-0.142 -0.4025,-0.12675 -0.5625,0.0312 -0.022,0.022 -0.0465,0.0365 -0.0625,0.0625 -0.063,-0.068 -0.1235,-0.1215 -0.1875,-0.1875 -0.142,-0.167 -0.3835,-0.1765 -0.5625,-0.0625 -0.125,-0.183 -0.3645,-0.26525 -0.5625,-0.15625 -0.072,0.041 -0.11925,0.1185 -0.15625,0.1875 -0.172,-0.105 -0.39425,-0.0745 -0.53125,0.0625 -0.018,-0.022 -0.0465,-0.0385 -0.0625,-0.0625 -0.142,-0.192 -0.40175,-0.23575 -0.59375,-0.0937 -0.087,0.064 -0.13425,0.152 -0.15625,0.25 -0.141,-0.026 -0.30125,0.012 -0.40625,0.125 -0.035,0.038 -0.0435,0.081 -0.0625,0.125 -0.172,-0.128 -0.34525,-0.265 -0.53125,-0.375 -0.166,-0.102 -0.39325,-0.0605 -0.53125,0.0625 -0.177,-0.098 -0.39625,-0.0702 -0.53125,0.0937 -0.014,0.016 -0.0203,0.0445 -0.0312,0.0625 -0.079,-0.067 -0.15175,-0.14075 -0.21875,-0.21875 -0.148,-0.182 -0.40875,-0.2135 -0.59375,-0.0625 -0.054,0.044 -0.098,0.0952 -0.125,0.15625 -0.149,-0.091 -0.353,-0.0817 -0.5,0.0312 -0.084,0.066 -0.105,0.155 -0.125,0.25 -0.121,-0.107 -0.255,-0.2045 -0.375,-0.3125 -0.179,-0.155 -0.43875,-0.15075 -0.59375,0.0312 -0.019,0.022 -0.0485,0.0375 -0.0625,0.0625 -0.053,-0.054 -0.10725,-0.0973 -0.15625,-0.15625 -0.145,-0.186 -0.40475,-0.2075 -0.59375,-0.0625 -0.045,0.035 -0.099,0.078 -0.125,0.125 -0.137,-0.167 -0.3765,-0.21575 -0.5625,-0.0937 -0.058,0.037 -0.093,0.069 -0.125,0.125 -0.17,-0.142 -0.43275,-0.12675 -0.59375,0.0312 -0.022,0.022 -0.0152,0.0365 -0.0312,0.0625 -0.063,-0.068 -0.1235,-0.1215 -0.1875,-0.1875 -0.142,-0.167 -0.3835,-0.20775 -0.5625,-0.0937 -0.125,-0.183 -0.3645,-0.234 -0.5625,-0.125 -0.072,0.041 -0.11925,0.1185 -0.15625,0.1875 -0.172,-0.105 -0.39425,-0.0745 -0.53125,0.0625 -0.018,-0.022 -0.0465,-0.0385 -0.0625,-0.0625 -0.142,-0.192 -0.40175,-0.23575 -0.59375,-0.0937 -0.096,0.071 -0.171,0.172 -0.1875,0.28125 z"
   id="path9-7" /><path
   inkscape:connector-curvature="0"
   id="path66"
   d="m 248.63568,72.1938 c 0.014,-0.021 0.017,-0.044 0.027,-0.066 0.156,0.042 0.327,-10e-4 0.439,-0.13 0.007,-0.009 0.01,-0.02 0.017,-0.03 10e-4,0.002 0.003,0.004 0.005,0.006 0.155,0.182 0.429,0.206 0.611,0.051 0.046,-0.038 0.081,-0.083 0.106,-0.133 0.123,0.062 0.268,0.054 0.392,-0.013 0.1,0.104 0.207,0.2 0.329,0.281 0.188,0.124 0.431,0.079 0.569,-0.093 0.015,0.009 0.033,0.011 0.049,0.018 l 0,-1.293 c -0.005,0.005 -0.012,0.006 -0.018,0.012 -0.022,0.022 -0.034,0.051 -0.05,0.077 -0.062,-0.068 -0.125,-0.136 -0.189,-0.202 -0.142,-0.167 -0.376,-0.19 -0.556,-0.076 -0.125,-0.183 -0.369,-0.249 -0.568,-0.14 -0.072,0.042 -0.122,0.104 -0.159,0.173 -0.172,-0.105 -0.386,-0.07 -0.522,0.068 -0.018,-0.022 -0.039,-0.042 -0.054,-0.066 -0.142,-0.192 -0.412,-0.233 -0.604,-0.091 -0.087,0.064 -0.138,0.156 -0.16,0.254 -0.141,-0.026 -0.291,0.011 -0.395,0.124 -0.035,0.038 -0.058,0.081 -0.076,0.125 -0.173,-0.128 -0.349,-0.252 -0.535,-0.362 -0.166,-0.102 -0.37,-0.073 -0.509,0.05 -0.177,-0.098 -0.403,-0.066 -0.538,0.098 -0.014,0.016 -0.018,0.036 -0.029,0.054 -0.079,-0.067 -0.154,-0.138 -0.221,-0.216 -0.148,-0.182 -0.422,-0.212 -0.607,-0.061 -0.055,0.044 -0.091,0.101 -0.117,0.162 -0.149,-0.091 -0.344,-0.088 -0.49,0.024 -0.084,0.066 -0.132,0.157 -0.153,0.253 -0.12,-0.107 -0.241,-0.215 -0.36,-0.324 -0.179,-0.155 -0.452,-0.135 -0.607,0.047 -0.019,0.022 -0.027,0.048 -0.041,0.073 -0.053,-0.054 -0.106,-0.108 -0.155,-0.167 -0.146,-0.186 -0.418,-0.219 -0.607,-0.074 -0.045,0.035 -0.08,0.078 -0.107,0.125 -0.137,-0.167 -0.379,-0.214 -0.565,-0.092 -0.058,0.037 -0.1,0.088 -0.132,0.144 -0.17,-0.142 -0.426,-0.139 -0.586,0.018 -0.022,0.022 -0.034,0.051 -0.05,0.077 -0.063,-0.068 -0.125,-0.136 -0.19,-0.202 -0.142,-0.167 -0.376,-0.19 -0.556,-0.076 -0.125,-0.183 -0.369,-0.249 -0.568,-0.14 -0.073,0.042 -0.122,0.104 -0.159,0.173 -0.172,-0.105 -0.386,-0.07 -0.522,0.068 -0.018,-0.022 -0.038,-0.042 -0.054,-0.066 -0.142,-0.192 -0.412,-0.233 -0.604,-0.091 -0.087,0.064 -0.139,0.156 -0.161,0.254 -0.141,-0.026 -0.291,0.011 -0.395,0.124 -0.035,0.038 -0.058,0.081 -0.076,0.125 -0.173,-0.128 -0.349,-0.252 -0.535,-0.362 -0.166,-0.102 -0.37,-0.073 -0.508,0.05 -0.177,-0.098 -0.404,-0.066 -0.538,0.098 -0.013,0.016 -0.018,0.036 -0.029,0.054 -0.079,-0.067 -0.154,-0.138 -0.221,-0.216 -0.148,-0.182 -0.422,-0.212 -0.607,-0.061 -0.054,0.044 -0.091,0.101 -0.117,0.162 -0.149,-0.091 -0.344,-0.088 -0.49,0.024 -0.084,0.066 -0.132,0.157 -0.152,0.253 -0.121,-0.107 -0.241,-0.215 -0.361,-0.324 -0.179,-0.155 -0.452,-0.135 -0.607,0.047 -0.019,0.022 -0.027,0.048 -0.041,0.073 -0.053,-0.054 -0.106,-0.108 -0.155,-0.167 -0.145,-0.186 -0.418,-0.219 -0.607,-0.074 -0.045,0.035 -0.08,0.078 -0.107,0.125 -0.137,-0.167 -0.379,-0.214 -0.565,-0.092 -0.058,0.037 -0.1,0.088 -0.132,0.144 -0.17,-0.142 -0.426,-0.139 -0.586,0.018 -0.022,0.022 -0.034,0.051 -0.05,0.077 -0.063,-0.068 -0.125,-0.136 -0.19,-0.202 -0.142,-0.167 -0.376,-0.19 -0.556,-0.076 -0.125,-0.183 -0.369,-0.249 -0.568,-0.14 -0.073,0.042 -0.122,0.104 -0.159,0.173 -0.172,-0.105 -0.385,-0.07 -0.522,0.068 -0.018,-0.022 -0.038,-0.042 -0.054,-0.066 -0.142,-0.192 -0.412,-0.233 -0.604,-0.091 -0.087,0.064 -0.139,0.156 -0.161,0.254 -0.141,-0.026 -0.29,0.011 -0.395,0.124 -0.035,0.038 -0.058,0.081 -0.076,0.125 -0.173,-0.128 -0.349,-0.252 -0.535,-0.362 -0.166,-0.102 -0.37,-0.073 -0.508,0.05 -0.177,-0.098 -0.404,-0.066 -0.538,0.098 -0.013,0.016 -0.018,0.036 -0.029,0.054 -0.079,-0.067 -0.154,-0.138 -0.221,-0.216 -0.148,-0.182 -0.422,-0.212 -0.607,-0.061 -0.055,0.044 -0.091,0.101 -0.117,0.162 -0.148,-0.091 -0.344,-0.088 -0.49,0.024 -0.084,0.066 -0.132,0.157 -0.152,0.253 -0.121,-0.107 -0.241,-0.215 -0.361,-0.324 -0.179,-0.155 -0.452,-0.135 -0.607,0.047 -0.019,0.022 -0.027,0.048 -0.041,0.073 -0.053,-0.054 -0.106,-0.108 -0.155,-0.167 -0.145,-0.186 -0.418,-0.219 -0.607,-0.074 -0.045,0.035 -0.08,0.078 -0.107,0.125 -0.136,-0.167 -0.379,-0.214 -0.564,-0.092 -0.058,0.037 -0.1,0.088 -0.133,0.144 -0.17,-0.142 -0.426,-0.139 -0.586,0.018 -0.022,0.022 -0.034,0.051 -0.05,0.077 -0.063,-0.068 -0.125,-0.136 -0.189,-0.202 -0.142,-0.167 -0.377,-0.19 -0.556,-0.076 -0.125,-0.183 -0.369,-0.249 -0.568,-0.14 -0.073,0.042 -0.122,0.104 -0.159,0.173 -0.172,-0.105 -0.385,-0.07 -0.522,0.068 -0.018,-0.022 -0.038,-0.042 -0.054,-0.066 -0.142,-0.192 -0.412,-0.233 -0.604,-0.091 -0.087,0.064 -0.139,0.156 -0.161,0.254 -0.141,-0.026 -0.29,0.011 -0.395,0.124 -0.035,0.038 -0.057,0.081 -0.076,0.125 -0.172,-0.128 -0.349,-0.252 -0.535,-0.362 -0.166,-0.102 -0.37,-0.073 -0.508,0.05 -0.177,-0.098 -0.404,-0.066 -0.538,0.098 -0.014,0.016 -0.018,0.036 -0.029,0.054 -0.079,-0.067 -0.154,-0.138 -0.221,-0.216 -0.148,-0.182 -0.422,-0.212 -0.607,-0.061 -0.054,0.044 -0.09,0.101 -0.117,0.162 -0.148,-0.091 -0.344,-0.088 -0.49,0.024 -0.084,0.066 -0.132,0.157 -0.152,0.253 -0.121,-0.107 -0.241,-0.215 -0.361,-0.324 -0.179,-0.155 -0.452,-0.135 -0.607,0.047 -0.019,0.022 -0.027,0.048 -0.041,0.073 -0.053,-0.054 -0.106,-0.108 -0.155,-0.167 -0.145,-0.186 -0.418,-0.219 -0.607,-0.074 -0.045,0.035 -0.08,0.078 -0.107,0.125 -0.136,-0.167 -0.379,-0.214 -0.564,-0.092 -0.058,0.037 -0.1,0.088 -0.133,0.144 -0.17,-0.142 -0.426,-0.139 -0.586,0.018 -0.022,0.022 -0.034,0.051 -0.05,0.077 -0.063,-0.068 -0.125,-0.136 -0.189,-0.202 -0.142,-0.167 -0.377,-0.19 -0.556,-0.076 -0.125,-0.183 -0.37,-0.249 -0.568,-0.14 -0.073,0.042 -0.122,0.104 -0.159,0.173 -0.172,-0.105 -0.385,-0.07 -0.522,0.068 -0.018,-0.022 -0.039,-0.042 -0.055,-0.066 -0.142,-0.192 -0.412,-0.233 -0.604,-0.091 -0.087,0.064 -0.139,0.156 -0.161,0.254 -0.141,-0.026 -0.29,0.011 -0.395,0.124 -0.035,0.038 -0.057,0.081 -0.076,0.125 -0.172,-0.128 -0.349,-0.252 -0.535,-0.362 -0.166,-0.102 -0.37,-0.073 -0.508,0.05 -0.177,-0.098 -0.403,-0.066 -0.538,0.098 -0.014,0.016 -0.018,0.036 -0.029,0.054 -0.079,-0.067 -0.154,-0.138 -0.221,-0.216 -0.148,-0.182 -0.422,-0.212 -0.607,-0.061 -0.054,0.044 -0.09,0.101 -0.117,0.162 -0.149,-0.091 -0.344,-0.088 -0.491,0.024 -0.084,0.066 -0.132,0.157 -0.152,0.253 -0.121,-0.107 -0.241,-0.215 -0.361,-0.324 -0.179,-0.155 -0.452,-0.135 -0.607,0.047 -0.019,0.022 -0.027,0.048 -0.041,0.073 -0.053,-0.054 -0.106,-0.108 -0.155,-0.167 -0.145,-0.186 -0.418,-0.219 -0.607,-0.074 -0.045,0.035 -0.08,0.078 -0.107,0.125 -0.136,-0.167 -0.379,-0.214 -0.564,-0.092 -0.058,0.037 -0.1,0.088 -0.132,0.144 -0.17,-0.142 -0.426,-0.139 -0.587,0.018 -0.022,0.022 -0.034,0.051 -0.05,0.077 -0.063,-0.068 -0.125,-0.136 -0.189,-0.202 -0.142,-0.167 -0.377,-0.19 -0.556,-0.076 -0.125,-0.183 -0.37,-0.249 -0.568,-0.14 -0.072,0.042 -0.122,0.104 -0.159,0.173 -0.172,-0.105 -0.386,-0.07 -0.522,0.068 -0.018,-0.022 -0.039,-0.042 -0.055,-0.066 -0.142,-0.192 -0.412,-0.233 -0.604,-0.091 -0.192,0.142 -0.233,0.412 -0.091,0.604 0.199,0.32 0.554,0.506 0.756,0.823 0.155,0.182 0.429,0.206 0.611,0.051 0.045,-0.038 0.081,-0.083 0.106,-0.133 0.123,0.062 0.268,0.054 0.392,-0.013 0.1,0.104 0.206,0.2 0.328,0.281 0.188,0.124 0.431,0.079 0.569,-0.093 0.197,0.117 0.451,0.067 0.582,-0.126 0.003,-0.005 0.003,-0.011 0.006,-0.016 0.159,0.136 0.323,0.263 0.503,0.371 0.204,0.112 0.457,0.042 0.576,-0.156 0.144,0.032 0.299,-0.003 0.409,-0.118 0.021,-0.022 0.03,-0.048 0.045,-0.073 0.149,0.114 0.308,0.217 0.495,0.29 0.176,0.049 0.355,-0.018 0.46,-0.155 0.09,0.073 0.176,0.152 0.272,0.219 0.192,0.138 0.462,0.094 0.601,-0.102 0.043,-0.061 0.063,-0.129 0.071,-0.198 0.099,0.066 0.194,0.136 0.28,0.219 0.186,0.148 0.459,0.122 0.607,-0.068 0.023,-0.028 0.034,-0.062 0.049,-0.093 0.086,0.053 0.173,0.107 0.258,0.161 0.161,0.085 0.352,0.058 0.483,-0.055 0.179,0.15 0.444,0.136 0.6,-0.04 0.009,-0.01 0.013,-0.024 0.021,-0.035 0.093,0.075 0.186,0.149 0.28,0.221 0.199,0.132 0.469,0.081 0.601,-0.118 0.014,-0.021 0.017,-0.044 0.027,-0.066 0.156,0.042 0.328,-10e-4 0.439,-0.13 0.008,-0.009 0.01,-0.02 0.017,-0.03 0.001,0.002 0.004,0.004 0.005,0.006 0.155,0.182 0.428,0.206 0.611,0.051 0.045,-0.038 0.081,-0.083 0.106,-0.133 0.123,0.062 0.268,0.054 0.392,-0.013 0.1,0.104 0.206,0.2 0.328,0.281 0.188,0.124 0.431,0.079 0.569,-0.093 0.197,0.117 0.451,0.067 0.582,-0.126 0.003,-0.005 0.003,-0.011 0.006,-0.016 0.158,0.136 0.323,0.263 0.503,0.371 0.204,0.112 0.457,0.042 0.576,-0.156 0.144,0.032 0.299,-0.003 0.409,-0.118 0.021,-0.022 0.03,-0.048 0.045,-0.073 0.149,0.114 0.307,0.217 0.495,0.29 0.176,0.049 0.355,-0.018 0.46,-0.155 0.09,0.073 0.176,0.152 0.272,0.219 0.192,0.138 0.462,0.094 0.601,-0.102 0.043,-0.061 0.063,-0.129 0.071,-0.198 0.099,0.066 0.194,0.136 0.28,0.219 0.186,0.148 0.459,0.122 0.607,-0.068 0.023,-0.028 0.034,-0.062 0.049,-0.093 0.086,0.053 0.173,0.107 0.258,0.161 0.161,0.085 0.352,0.058 0.483,-0.055 0.179,0.15 0.444,0.136 0.6,-0.04 0.009,-0.01 0.013,-0.024 0.021,-0.035 0.093,0.075 0.185,0.149 0.28,0.221 0.199,0.132 0.469,0.081 0.601,-0.118 0.014,-0.021 0.017,-0.044 0.027,-0.066 0.156,0.042 0.328,-0.001 0.439,-0.13 0.008,-0.009 0.01,-0.02 0.017,-0.03 0.001,0.002 0.003,0.004 0.005,0.006 0.155,0.182 0.428,0.206 0.611,0.051 0.045,-0.038 0.081,-0.083 0.106,-0.133 0.123,0.062 0.268,0.054 0.392,-0.013 0.1,0.104 0.206,0.2 0.328,0.281 0.188,0.124 0.431,0.079 0.569,-0.093 0.197,0.117 0.451,0.067 0.582,-0.126 0.003,-0.005 0.003,-0.011 0.006,-0.016 0.158,0.136 0.323,0.263 0.503,0.371 0.204,0.112 0.457,0.042 0.576,-0.156 0.144,0.032 0.299,-0.003 0.409,-0.118 0.021,-0.022 0.03,-0.048 0.045,-0.073 0.149,0.114 0.307,0.217 0.495,0.29 0.176,0.049 0.355,-0.018 0.46,-0.155 0.09,0.073 0.176,0.152 0.272,0.219 0.193,0.138 0.463,0.094 0.601,-0.102 0.043,-0.061 0.063,-0.129 0.071,-0.198 0.099,0.066 0.194,0.136 0.28,0.219 0.186,0.148 0.459,0.122 0.607,-0.068 0.023,-0.028 0.034,-0.062 0.048,-0.093 0.087,0.053 0.174,0.107 0.259,0.161 0.161,0.085 0.352,0.058 0.483,-0.055 0.179,0.15 0.444,0.136 0.6,-0.04 0.01,-0.01 0.013,-0.024 0.021,-0.035 0.093,0.075 0.185,0.149 0.28,0.221 0.199,0.132 0.469,0.081 0.601,-0.118 0.014,-0.021 0.017,-0.044 0.027,-0.066 0.156,0.042 0.328,-0.001 0.439,-0.13 0.008,-0.009 0.01,-0.02 0.017,-0.03 0.001,0.002 0.003,0.004 0.005,0.006 0.155,0.182 0.428,0.206 0.61,0.051 0.045,-0.038 0.082,-0.083 0.107,-0.133 0.123,0.062 0.268,0.054 0.392,-0.013 0.1,0.104 0.206,0.2 0.328,0.281 0.188,0.124 0.431,0.079 0.569,-0.093 0.197,0.117 0.451,0.067 0.582,-0.126 0.003,-0.005 0.003,-0.011 0.006,-0.016 0.158,0.136 0.323,0.263 0.503,0.371 0.204,0.112 0.458,0.042 0.577,-0.156 0.144,0.032 0.299,-0.003 0.409,-0.118 0.021,-0.022 0.03,-0.048 0.045,-0.073 0.149,0.114 0.307,0.217 0.495,0.29 0.175,0.049 0.355,-0.018 0.46,-0.155 0.09,0.073 0.176,0.152 0.272,0.219 0.192,0.138 0.462,0.094 0.601,-0.102 0.043,-0.061 0.063,-0.129 0.071,-0.198 0.099,0.066 0.195,0.136 0.28,0.219 0.186,0.148 0.459,0.122 0.607,-0.068 0.023,-0.028 0.034,-0.062 0.048,-0.093 0.087,0.053 0.174,0.107 0.259,0.161 0.161,0.085 0.352,0.058 0.483,-0.055 0.179,0.15 0.444,0.136 0.6,-0.04 0.01,-0.01 0.013,-0.024 0.021,-0.035 0.092,0.075 0.185,0.149 0.28,0.221 0.199,0.132 0.469,0.081 0.601,-0.118 0.014,-0.021 0.017,-0.044 0.027,-0.066 0.156,0.042 0.327,-10e-4 0.439,-0.13 0.007,-0.009 0.01,-0.02 0.017,-0.03 0.001,0.002 0.003,0.004 0.005,0.006 0.155,0.182 0.429,0.206 0.611,0.051 0.045,-0.038 0.081,-0.083 0.106,-0.133 0.123,0.062 0.268,0.054 0.393,-0.013 0.1,0.104 0.206,0.2 0.328,0.281 0.188,0.124 0.431,0.079 0.569,-0.093 0.197,0.117 0.45,0.067 0.581,-0.126 0.003,-0.005 0.004,-0.011 0.007,-0.016 0.158,0.136 0.322,0.263 0.503,0.371 0.204,0.112 0.458,0.042 0.576,-0.156 0.144,0.032 0.3,-0.003 0.41,-0.118 0.02,-0.022 0.03,-0.048 0.045,-0.073 0.149,0.114 0.308,0.217 0.495,0.29 0.175,0.049 0.355,-0.018 0.46,-0.155 0.09,0.073 0.175,0.152 0.272,0.219 0.192,0.138 0.462,0.094 0.601,-0.102 0.043,-0.061 0.062,-0.129 0.071,-0.198 0.099,0.066 0.194,0.136 0.279,0.219 0.186,0.148 0.459,0.122 0.608,-0.068 0.022,-0.028 0.034,-0.062 0.048,-0.093 0.086,0.053 0.173,0.107 0.259,0.161 0.161,0.085 0.352,0.058 0.483,-0.055 0.179,0.15 0.444,0.136 0.6,-0.04 0.01,-0.01 0.013,-0.024 0.021,-0.035 0.092,0.075 0.185,0.149 0.28,0.221 0.195,0.136 0.465,0.085 0.597,-0.113 z"
   style="fill:#bfa794;stroke:#000000;stroke-width:0.44999999;overflow:visible" /><g
   style="overflow:visible"
   id="g17"
   transform="matrix(-1,0,0,-1,322.29645,132.11597)"><circle
     sodipodi:ry="12.41"
     sodipodi:rx="12.41"
     sodipodi:cy="49.400002"
     sodipodi:cx="121.253"
     id="circle19"
     r="12.41"
     cy="49.400002"
     cx="121.253"
     style="fill:#ffffff;stroke:#000000;stroke-width:0.44999999"
     d="m 133.663,49.400002 c 0,6.853853 -5.55615,12.409999 -12.41,12.409999 -6.85386,0 -12.41,-5.556146 -12.41,-12.409999 0,-6.853854 5.55614,-12.41 12.41,-12.41 6.85385,0 12.41,5.556146 12.41,12.41 z" /><circle
     sodipodi:ry="2.4820001"
     sodipodi:rx="2.4820001"
     sodipodi:cy="49.400002"
     sodipodi:cx="121.253"
     id="circle21"
     r="2.4820001"
     cy="49.400002"
     cx="121.253"
     style="fill:none;stroke:#000000;stroke-width:0.44999999"
     d="m 123.735,49.400002 c 0,1.37077 -1.11123,2.482 -2.482,2.482 -1.37077,0 -2.482,-1.11123 -2.482,-2.482 0,-1.370771 1.11123,-2.482001 2.482,-2.482001 1.37077,0 2.482,1.11123 2.482,2.482001 z" /></g><path
   inkscape:connector-curvature="0"
   style="fill:#bfa794;stroke:#000000;stroke-width:0.44999999;overflow:visible"
   d="m 176.05078,82.22408 c -0.0165,0.10925 0.0228,0.2165 0.0937,0.3125 0.199,0.32 0.548,0.4955 0.75,0.8125 0.155,0.182 0.443,0.2175 0.625,0.0625 0.045,-0.038 0.0687,-0.075 0.0937,-0.125 0.123,0.062 0.28225,0.0358 0.40625,-0.0312 0.1,0.104 0.1905,0.20025 0.3125,0.28125 0.188,0.124 0.4255,0.0772 0.5625,-0.0937 0.197,0.117 0.46275,0.068 0.59375,-0.125 0.158,0.135 0.32,0.267 0.5,0.375 0.204,0.112 0.47475,0.0418 0.59375,-0.15625 0.144,0.032 0.29625,-0.011 0.40625,-0.125 0.021,-0.022 0.0162,-0.0385 0.0312,-0.0625 0.149,0.114 0.313,0.20925 0.5,0.28125 0.176,0.049 0.36375,-0.0203 0.46875,-0.15625 0.09,0.073 0.154,0.15175 0.25,0.21875 0.192,0.138 0.486,0.10225 0.625,-0.0937 0.043,-0.061 0.0545,-0.14975 0.0625,-0.21875 0.099,0.066 0.19525,0.13675 0.28125,0.21875 0.186,0.149 0.44575,0.1265 0.59375,-0.0625 0.023,-0.028 0.0475,-0.0627 0.0625,-0.0937 0.086,0.053 0.165,0.10225 0.25,0.15625 0.161,0.086 0.37,0.0807 0.5,-0.0312 0.179,0.15 0.43775,0.1135 0.59375,-0.0625 0.009,-0.01 0.0232,-0.0203 0.0312,-0.0312 0.093,0.075 0.155,0.14675 0.25,0.21875 0.199,0.132 0.493,0.074 0.625,-0.125 0.014,-0.021 0.0213,-0.0405 0.0312,-0.0625 0.156,0.041 0.3265,0.003 0.4375,-0.125 0.008,-0.009 -0.007,-0.0213 0,-0.0312 0.155,0.182 0.443,0.2175 0.625,0.0625 0.045,-0.038 0.0687,-0.075 0.0937,-0.125 0.123,0.062 0.28225,0.0358 0.40625,-0.0312 0.1,0.104 0.1905,0.20025 0.3125,0.28125 0.188,0.124 0.45575,0.0772 0.59375,-0.0937 0.197,0.117 0.4315,0.068 0.5625,-0.125 0.158,0.135 0.32,0.267 0.5,0.375 0.204,0.112 0.47475,0.0418 0.59375,-0.15625 0.144,0.032 0.29625,-0.011 0.40625,-0.125 0.021,-0.022 0.0162,-0.0385 0.0312,-0.0625 0.149,0.114 0.313,0.20925 0.5,0.28125 0.176,0.049 0.36375,-0.0203 0.46875,-0.15625 0.09,0.073 0.18525,0.15175 0.28125,0.21875 0.192,0.138 0.45475,0.10225 0.59375,-0.0937 0.043,-0.061 0.0545,-0.14975 0.0625,-0.21875 0.099,0.066 0.19525,0.13675 0.28125,0.21875 0.186,0.149 0.477,0.1265 0.625,-0.0625 0.023,-0.028 0.0172,-0.0627 0.0312,-0.0937 0.087,0.053 0.165,0.10225 0.25,0.15625 0.161,0.086 0.369,0.0807 0.5,-0.0312 0.179,0.15 0.43775,0.1135 0.59375,-0.0625 0.009,-0.01 0.0222,-0.0203 0.0312,-0.0312 0.092,0.075 0.18625,0.14675 0.28125,0.21875 0.199,0.132 0.46175,0.10525 0.59375,-0.0937 0.014,-0.021 0.0213,-0.0718 0.0312,-0.0937 0.156,0.041 0.3265,0.003 0.4375,-0.125 8.7e-4,0.001 0.0302,-10e-4 0.0312,0 0.156,0.182 0.41175,0.18625 0.59375,0.0312 0.046,-0.038 0.0687,-0.075 0.0937,-0.125 0.123,0.062 0.28225,0.067 0.40625,0 0.1,0.104 0.22175,0.20025 0.34375,0.28125 0.188,0.124 0.4245,0.0772 0.5625,-0.0937 0.197,0.117 0.4315,0.0368 0.5625,-0.15625 0.003,-0.005 0.0282,0.005 0.0312,0 0.158,0.135 0.32,0.267 0.5,0.375 0.204,0.112 0.4435,0.0418 0.5625,-0.15625 0.144,0.032 0.29625,-0.011 0.40625,-0.125 0.021,-0.022 0.0475,-0.0385 0.0625,-0.0625 0.11102,0.0849 0.21405,0.1543 0.34375,0.21875 l 0,-1.5625 c -0.0999,0.0143 -0.17918,0.0731 -0.25,0.15625 -0.019,0.022 -0.0172,0.0687 -0.0312,0.0937 -0.053,-0.054 -0.10725,-0.1285 -0.15625,-0.1875 -0.145,-0.186 -0.436,-0.2075 -0.625,-0.0625 -0.045,0.035 -0.0668,0.078 -0.0937,0.125 -0.137,-0.167 -0.3765,-0.21575 -0.5625,-0.0937 -0.058,0.037 -0.12425,0.069 -0.15625,0.125 -0.17,-0.142 -0.4025,-0.12675 -0.5625,0.0312 -0.022,0.022 -0.0465,0.0677 -0.0625,0.0937 -0.063,-0.068 -0.1225,-0.15275 -0.1875,-0.21875 -0.142,-0.167 -0.3835,-0.1765 -0.5625,-0.0625 -0.125,-0.183 -0.3645,-0.26525 -0.5625,-0.15625 -0.073,0.041 -0.11925,0.1185 -0.15625,0.1875 -0.172,-0.105 -0.39425,-0.0745 -0.53125,0.0625 -0.017,-0.022 -0.0153,-0.0385 -0.0312,-0.0625 -0.142,-0.192 -0.433,-0.23575 -0.625,-0.0937 -0.087,0.064 -0.13425,0.152 -0.15625,0.25 -0.141,-0.026 -0.30125,0.012 -0.40625,0.125 -0.035,0.038 -0.0445,0.081 -0.0625,0.125 -0.172,-0.128 -0.34525,-0.265 -0.53125,-0.375 -0.166,-0.102 -0.362,-0.0605 -0.5,0.0625 -0.177,-0.098 -0.4285,-0.0702 -0.5625,0.0937 -0.013,0.016 0.01,0.0445 0,0.0625 -0.079,-0.067 -0.183,-0.14075 -0.25,-0.21875 -0.148,-0.182 -0.40875,-0.2135 -0.59375,-0.0625 -0.054,0.044 -0.098,0.0952 -0.125,0.15625 -0.148,-0.091 -0.32275,-0.0817 -0.46875,0.0312 -0.084,0.066 -0.13625,0.155 -0.15625,0.25 -0.121,-0.107 -0.255,-0.2045 -0.375,-0.3125 -0.179,-0.155 -0.43875,-0.15075 -0.59375,0.0312 -0.019,0.022 -0.0485,0.0375 -0.0625,0.0625 -0.053,-0.054 -0.10725,-0.0973 -0.15625,-0.15625 -0.145,-0.186 -0.40475,-0.2075 -0.59375,-0.0625 -0.045,0.035 -0.0668,0.078 -0.0937,0.125 -0.136,-0.167 -0.3775,-0.21575 -0.5625,-0.0937 -0.058,0.037 -0.12325,0.069 -0.15625,0.125 -0.17,-0.142 -0.4025,-0.12675 -0.5625,0.0312 -0.022,0.022 -0.0465,0.0365 -0.0625,0.0625 -0.063,-0.068 -0.1235,-0.1215 -0.1875,-0.1875 -0.142,-0.167 -0.3835,-0.1765 -0.5625,-0.0625 -0.125,-0.183 -0.3645,-0.26525 -0.5625,-0.15625 -0.072,0.041 -0.11925,0.1185 -0.15625,0.1875 -0.172,-0.105 -0.39425,-0.0745 -0.53125,0.0625 -0.018,-0.022 -0.0465,-0.0385 -0.0625,-0.0625 -0.142,-0.192 -0.40175,-0.23575 -0.59375,-0.0937 -0.087,0.064 -0.13425,0.152 -0.15625,0.25 -0.141,-0.026 -0.30125,0.012 -0.40625,0.125 -0.035,0.038 -0.0435,0.081 -0.0625,0.125 -0.172,-0.128 -0.34525,-0.265 -0.53125,-0.375 -0.166,-0.102 -0.39325,-0.0605 -0.53125,0.0625 -0.177,-0.098 -0.39625,-0.0702 -0.53125,0.0937 -0.014,0.016 -0.0203,0.0445 -0.0312,0.0625 -0.079,-0.067 -0.15175,-0.14075 -0.21875,-0.21875 -0.148,-0.182 -0.40875,-0.2135 -0.59375,-0.0625 -0.054,0.044 -0.098,0.0952 -0.125,0.15625 -0.149,-0.091 -0.353,-0.0817 -0.5,0.0312 -0.084,0.066 -0.105,0.155 -0.125,0.25 -0.121,-0.107 -0.255,-0.2045 -0.375,-0.3125 -0.179,-0.155 -0.43875,-0.15075 -0.59375,0.0312 -0.019,0.022 -0.0485,0.0375 -0.0625,0.0625 -0.053,-0.054 -0.10725,-0.0973 -0.15625,-0.15625 -0.145,-0.186 -0.40475,-0.2075 -0.59375,-0.0625 -0.045,0.035 -0.099,0.078 -0.125,0.125 -0.137,-0.167 -0.3765,-0.21575 -0.5625,-0.0937 -0.058,0.037 -0.093,0.069 -0.125,0.125 -0.17,-0.142 -0.43275,-0.12675 -0.59375,0.0312 -0.022,0.022 -0.0153,0.0365 -0.0312,0.0625 -0.063,-0.068 -0.1235,-0.1215 -0.1875,-0.1875 -0.142,-0.167 -0.3835,-0.20775 -0.5625,-0.0937 -0.125,-0.183 -0.3645,-0.234 -0.5625,-0.125 -0.072,0.041 -0.11925,0.1185 -0.15625,0.1875 -0.172,-0.105 -0.39425,-0.0745 -0.53125,0.0625 -0.018,-0.022 -0.0465,-0.0385 -0.0625,-0.0625 -0.142,-0.192 -0.40175,-0.23575 -0.59375,-0.0937 -0.096,0.071 -0.171,0.172 -0.1875,0.28125 z"
   id="path9" /><rect
   style="fill:#ffffff;fill-opacity:1;stroke:#000000;stroke-width:0.875;stroke-miterlimit:4;stroke-opacity:1;stroke-dasharray:none;stroke-dashoffset:0;overflow:visible"
   id="rect3256"
   width="22.76313"
   height="6.2973204"
   x="-89.633316"
   y="250.8958"
   transform="matrix(0,-1,1,0,0,0)"
   ry="0" /><g
   style="overflow:visible"
   id="g23-6-1"
   transform="translate(153.45395,92.87944)"><line
     id="line25-1-7"
     y2="32.487999"
     x2="140.509"
     y1="0.088"
     x1="140.509"
     style="fill:none;stroke:#000000;stroke-width:0.44999999" /><line
     id="line27-0-7"
     y2="0.168"
     x2="144.717"
     y1="3.576"
     x1="140.883"
     style="fill:none;stroke:#000000;stroke-width:0.44999999" /><line
     id="line29-6-1"
     y2="29.601"
     x2="146.17101"
     y1="30.993"
     x1="144.605"
     style="fill:none;stroke:#000000;stroke-width:0.44999999" /><line
     id="line31-1-1"
     y2="2.6029999"
     x2="146.284"
     y1="7.402"
     x1="140.883"
     style="fill:none;stroke:#000000;stroke-width:0.44999999" /><line
     id="line33-5-5"
     y2="6.4289999"
     x2="146.284"
     y1="11.229"
     x1="140.883"
     style="fill:none;stroke:#000000;stroke-width:0.44999999" /><line
     id="line35-9-9"
     y2="10.256"
     x2="146.284"
     y1="15.056"
     x1="140.883"
     style="fill:none;stroke:#000000;stroke-width:0.44999999" /><line
     id="line37-4-7"
     y2="14.083"
     x2="146.284"
     y1="18.882999"
     x1="140.883"
     style="fill:none;stroke:#000000;stroke-width:0.44999999" /><line
     id="line39-9-7"
     y2="17.91"
     x2="146.284"
     y1="22.709"
     x1="140.883"
     style="fill:none;stroke:#000000;stroke-width:0.44999999" /><line
     id="line41-0-6"
     y2="21.736"
     x2="146.284"
     y1="26.535999"
     x1="140.883"
     style="fill:none;stroke:#000000;stroke-width:0.44999999" /><line
     id="line43-9-7"
     y2="25.563"
     x2="146.284"
     y1="30.363001"
     x1="140.883"
     style="fill:none;stroke:#000000;stroke-width:0.44999999" /></g><text
   xml:space="preserve"
   style="font-size:10px;font-style:normal;font-variant:normal;font-weight:normal;font-stretch:normal;text-indent:0;text-align:start;text-decoration:none;line-height:125%;letter-spacing:0px;word-spacing:0px;text-transform:none;direction:ltr;block-progression:tb;writing-mode:lr-tb;text-anchor:start;baseline-shift:baseline;color:#000000;fill:#000000;fill-opacity:1;fill-rule:nonzero;stroke:none;stroke-width:1px;marker:none;visibility:visible;display:inline;overflow:visible;enable-background:accumulate;font-family:FreeSans;-inkscape-font-specification:FreeSans"
   x="278.04782"
   y="78.159409"
   id="text3518"
   sodipodi:linespacing="125%"><tspan
     sodipodi:role="line"
     id="tspan3520"
     x="278.04782"
     y="78.159409">load</tspan></text>
<text
   xml:space="preserve"
   style="font-size:10px;font-style:normal;font-variant:normal;font-weight:normal;font-stretch:normal;text-indent:0;text-align:end;text-decoration:none;line-height:125%;letter-spacing:0px;word-spacing:0px;text-transform:none;direction:ltr;block-progression:tb;writing-mode:lr-tb;text-anchor:end;baseline-shift:baseline;color:#000000;fill:#000000;fill-opacity:1;fill-rule:nonzero;stroke:none;stroke-width:1px;marker:none;visibility:visible;display:inline;overflow:visible;enable-background:accumulate;font-family:FreeSans;-inkscape-font-specification:FreeSans"
   x="172.02457"
   y="79.023361"
   id="text3522"
   sodipodi:linespacing="125%"><tspan
     sodipodi:role="line"
     id="tspan3524"
     x="172.02457"
     y="79.023361">applied</tspan><tspan
     sodipodi:role="line"
     x="172.02457"
     y="91.523361"
     id="tspan3526">force, F</tspan></text>
<text
   xml:space="preserve"
   style="font-size:10px;font-style:normal;font-variant:normal;font-weight:normal;font-stretch:normal;text-indent:0;text-align:start;text-decoration:none;line-height:125%;letter-spacing:0px;word-spacing:0px;text-transform:none;direction:ltr;block-progression:tb;writing-mode:lr-tb;text-anchor:start;baseline-shift:baseline;color:#000000;fill:#000000;fill-opacity:1;fill-rule:nonzero;stroke:none;stroke-width:1px;marker:none;visibility:visible;display:inline;overflow:visible;enable-background:accumulate;font-family:FreeSans;-inkscape-font-specification:FreeSans"
   x="222.32304"
   y="64.592438"
   id="text3528"
   sodipodi:linespacing="125%"><tspan
     sodipodi:role="line"
     id="tspan3530"
     x="222.32304"
     y="64.592438">T</tspan></text>
<text
   xml:space="preserve"
   style="font-size:9px;font-style:normal;font-variant:normal;font-weight:normal;font-stretch:normal;text-indent:0;text-align:start;text-decoration:none;line-height:125%;letter-spacing:0px;word-spacing:0px;text-transform:none;direction:ltr;block-progression:tb;writing-mode:lr-tb;text-anchor:start;baseline-shift:baseline;color:#000000;fill:#000000;fill-opacity:1;fill-rule:nonzero;stroke:none;stroke-width:1px;marker:none;visibility:visible;display:inline;overflow:visible;enable-background:accumulate;font-family:FreeSans;-inkscape-font-specification:FreeSans"
   x="226.64279"
   y="68.048233"
   id="text3532"
   sodipodi:linespacing="125%"><tspan
     sodipodi:role="line"
     id="tspan3534"
     x="226.64279"
     y="68.048233">1</tspan></text>
<text
   xml:space="preserve"
   style="font-size:10px;font-style:normal;font-variant:normal;font-weight:normal;font-stretch:normal;text-indent:0;text-align:start;text-decoration:none;line-height:125%;letter-spacing:0px;word-spacing:0px;text-transform:none;direction:ltr;block-progression:tb;writing-mode:lr-tb;text-anchor:start;baseline-shift:baseline;color:#000000;fill:#000000;fill-opacity:1;fill-rule:nonzero;stroke:none;stroke-width:1px;marker:none;visibility:visible;display:inline;overflow:visible;enable-background:accumulate;font-family:FreeSans;-inkscape-font-specification:FreeSans"
   x="204.96146"
   y="106.57097"
   id="text3528-7"
   sodipodi:linespacing="125%"><tspan
     sodipodi:role="line"
     id="tspan3530-1"
     x="204.96146"
     y="106.57097">T</tspan></text>
<text
   xml:space="preserve"
   style="font-size:9px;font-style:normal;font-variant:normal;font-weight:normal;font-stretch:normal;text-indent:0;text-align:start;text-decoration:none;line-height:125%;letter-spacing:0px;word-spacing:0px;text-transform:none;direction:ltr;block-progression:tb;writing-mode:lr-tb;text-anchor:start;baseline-shift:baseline;color:#000000;fill:#000000;fill-opacity:1;fill-rule:nonzero;stroke:none;stroke-width:1px;marker:none;visibility:visible;display:inline;overflow:visible;enable-background:accumulate;font-family:FreeSans;-inkscape-font-specification:FreeSans"
   x="209.2812"
   y="110.02676"
   id="text3532-1"
   sodipodi:linespacing="125%"><tspan
     sodipodi:role="line"
     id="tspan3534-5"
     x="209.2812"
     y="110.02676">2</tspan></text>
<text
   xml:space="preserve"
   style="font-size:10px;font-style:normal;font-variant:normal;font-weight:normal;font-stretch:normal;text-indent:0;text-align:start;text-decoration:none;line-height:125%;letter-spacing:0px;word-spacing:0px;text-transform:none;direction:ltr;block-progression:tb;writing-mode:lr-tb;text-anchor:start;baseline-shift:baseline;color:#000000;fill:#000000;fill-opacity:1;fill-rule:nonzero;stroke:none;stroke-width:1px;marker:none;visibility:visible;display:inline;overflow:visible;enable-background:accumulate;font-family:FreeSans;-inkscape-font-specification:FreeSans"
   x="240.67137"
   y="95.627602"
   id="text3528-9"
   sodipodi:linespacing="125%"><tspan
     sodipodi:role="line"
     id="tspan3530-7"
     x="240.67137"
     y="95.627602">T</tspan></text>
<text
   xml:space="preserve"
   style="font-size:9px;font-style:normal;font-variant:normal;font-weight:normal;font-stretch:normal;text-indent:0;text-align:start;text-decoration:none;line-height:125%;letter-spacing:0px;word-spacing:0px;text-transform:none;direction:ltr;block-progression:tb;writing-mode:lr-tb;text-anchor:start;baseline-shift:baseline;color:#000000;fill:#000000;fill-opacity:1;fill-rule:nonzero;stroke:none;stroke-width:1px;marker:none;visibility:visible;display:inline;overflow:visible;enable-background:accumulate;font-family:FreeSans;-inkscape-font-specification:FreeSans"
   x="244.99112"
   y="99.083405"
   id="text3532-7"
   sodipodi:linespacing="125%"><tspan
     sodipodi:role="line"
     id="tspan3534-6"
     x="244.99112"
     y="99.083405">3</tspan></text>
<text
   xml:space="preserve"
   style="font-size:10px;font-style:normal;font-variant:normal;font-weight:normal;font-stretch:normal;text-indent:0;text-align:start;text-decoration:none;line-height:125%;letter-spacing:0px;word-spacing:0px;text-transform:none;direction:ltr;block-progression:tb;writing-mode:lr-tb;text-anchor:start;baseline-shift:baseline;color:#000000;fill:#000000;fill-opacity:1;fill-rule:nonzero;stroke:none;stroke-width:1px;marker:none;visibility:visible;display:inline;overflow:visible;enable-background:accumulate;font-family:FreeSans;-inkscape-font-specification:FreeSans"
   x="260.25424"
   y="121.5461"
   id="text3528-73"
   sodipodi:linespacing="125%"><tspan
     sodipodi:role="line"
     id="tspan3530-6"
     x="260.25424"
     y="121.5461">T</tspan></text>
<text
   xml:space="preserve"
   style="font-size:9px;font-style:normal;font-variant:normal;font-weight:normal;font-stretch:normal;text-indent:0;text-align:start;text-decoration:none;line-height:125%;letter-spacing:0px;word-spacing:0px;text-transform:none;direction:ltr;block-progression:tb;writing-mode:lr-tb;text-anchor:start;baseline-shift:baseline;color:#000000;fill:#000000;fill-opacity:1;fill-rule:nonzero;stroke:none;stroke-width:1px;marker:none;visibility:visible;display:inline;overflow:visible;enable-background:accumulate;font-family:FreeSans;-inkscape-font-specification:FreeSans"
   x="264.57397"
   y="125.00189"
   id="text3532-5"
   sodipodi:linespacing="125%"><tspan
     sodipodi:role="line"
     id="tspan3534-63"
     x="264.57397"
     y="125.00189">4</tspan></text>
<text
   xml:space="preserve"
   style="font-size:10px;font-style:normal;font-variant:normal;font-weight:normal;font-stretch:normal;text-indent:0;text-align:start;text-decoration:none;line-height:125%;letter-spacing:0px;word-spacing:0px;text-transform:none;direction:ltr;block-progression:tb;writing-mode:lr-tb;text-anchor:start;baseline-shift:baseline;color:#000000;fill:#000000;fill-opacity:1;fill-rule:nonzero;stroke:none;stroke-width:1px;marker:none;visibility:visible;display:inline;overflow:visible;enable-background:accumulate;font-family:FreeSans;-inkscape-font-specification:FreeSans"
   x="263.13406"
   y="67.693237"
   id="text3528-3"
   sodipodi:linespacing="125%"><tspan
     sodipodi:role="line"
     id="tspan3530-9"
     x="263.13406"
     y="67.693237">T</tspan></text>
<text
   xml:space="preserve"
   style="font-size:9px;font-style:normal;font-variant:normal;font-weight:normal;font-stretch:normal;text-indent:0;text-align:start;text-decoration:none;line-height:125%;letter-spacing:0px;word-spacing:0px;text-transform:none;direction:ltr;block-progression:tb;writing-mode:lr-tb;text-anchor:start;baseline-shift:baseline;color:#000000;fill:#000000;fill-opacity:1;fill-rule:nonzero;stroke:none;stroke-width:1px;marker:none;visibility:visible;display:inline;overflow:visible;enable-background:accumulate;font-family:FreeSans;-inkscape-font-specification:FreeSans"
   x="267.45383"
   y="71.149033"
   id="text3532-0"
   sodipodi:linespacing="125%"><tspan
     sodipodi:role="line"
     id="tspan3534-8"
     x="267.45383"
     y="71.149033">5</tspan></text>
<rect
   style="fill:none;stroke:none"
   id="rect3629"
   width="184.25197"
   height="8.06353"
   x="128.7285"
   y="94.626297" /></svg>