<?xml version="1.0" encoding="iso-8859-1"?>
<!-- Generator: Adobe Illustrator 11 Build 196, SVG Export Plug-In . SVG Version: 6.0.0 Build 78)  -->
<!DOCTYPE svg PUBLIC "-//W3C//DTD SVG 1.0//EN"    "http://www.w3.org/TR/2001/REC-SVG-20010904/DTD/svg10.dtd" [
	<!ENTITY ns_flows "http://ns.adobe.com/Flows/1.0/">
	<!ENTITY ns_svg "http://www.w3.org/2000/svg">
	<!ENTITY ns_xlink "http://www.w3.org/1999/xlink">
]>
<svg  
	 width="135.711" height="215.812" viewBox="0 0 135.711 215.812"
	 style="overflow:visible;enable-background:new 0 0 135.711 215.812" xml:space="preserve">
	<style type="text/css">
	
	</style>
	<g id="Layer_1">
		
			<rect x="36.318" y="0.25" style="fill:none;stroke:#000000;stroke-width:0.5;stroke-miterlimit:1;" width="99.143" height="96.044"/> 
		
			<line style="fill:none;stroke:#000000;stroke-width:0.5;stroke-linecap:square;stroke-miterlimit:1;" x1="34.22" y1="96.294" x2="36.699" y2="96.294"/>
		
			<line style="fill:none;stroke:#000000;stroke-width:0.5;stroke-linecap:square;stroke-miterlimit:1;" x1="34.22" y1="67.171" x2="36.699" y2="67.171"/>
		
			<line style="fill:none;stroke:#000000;stroke-width:0.5;stroke-linecap:square;stroke-miterlimit:1;" x1="34.22" y1="37.428" x2="36.699" y2="37.428"/>
		
			<line style="fill:none;stroke:#000000;stroke-width:0.5;stroke-linecap:square;stroke-miterlimit:1;" x1="34.22" y1="7.686" x2="36.699" y2="7.686"/>
		
			<line style="fill:none;stroke:#000000;stroke-width:0.5;stroke-linecap:square;stroke-miterlimit:1;" x1="36.318" y1="96.294" x2="36.318" y2="0.25"/>
		<g>
			<text transform="matrix(1 0 0 1 24.7031 97.8438)"><tspan x="0" y="0" style="font-family:Liberation Sans; font-size:7.650000;">0</tspan></text>
		</g>
		<g>
			<text transform="matrix(1 0 0 1 18.5068 68.7202)"><tspan x="0" y="0" style="font-family:Liberation Sans; font-size:7.650000;">200</tspan></text>
		</g>
		<g>
			<text transform="matrix(1 0 0 1 18.5068 38.9775)"><tspan x="0" y="0" style="font-family:Liberation Sans; font-size:7.650000;">400</tspan></text>
		</g>
		<g>
			<text transform="matrix(1 0 0 1 18.5068 9.2349)"><tspan x="0" y="0" style="font-family:Liberation Sans; font-size:7.650000;">600</tspan></text>
		</g>
		<path style="fill:none;stroke:#000000;stroke-linecap:square;stroke-miterlimit:1;" d="M36.203,96.256
			c3.64,0,10.843-3.641,12.857-4.647c2.014-1.007,11.153-7.436,12.935-8.985c1.781-1.549,14.174-13.322,16.42-15.568
			c2.246-2.247,56.56-65.108,56.56-65.108"/>
		
			<rect x="36.306" y="96.32" style="fill:none;stroke:#000000;stroke-width:0.5;stroke-miterlimit:1;" width="99.143" height="95.425"/> 
		
			<line style="fill:none;stroke:#000000;stroke-width:0.5;stroke-linecap:square;stroke-miterlimit:1;" x1="34.208" y1="191.745" x2="36.686" y2="191.745"/>
		
			<line style="fill:none;stroke:#000000;stroke-width:0.5;stroke-linecap:square;stroke-miterlimit:1;" x1="34.208" y1="174.395" x2="36.686" y2="174.395"/>
		
			<line style="fill:none;stroke:#000000;stroke-width:0.5;stroke-linecap:square;stroke-miterlimit:1;" x1="34.208" y1="157.045" x2="36.686" y2="157.045"/>
		
			<line style="fill:none;stroke:#000000;stroke-width:0.5;stroke-linecap:square;stroke-miterlimit:1;" x1="34.208" y1="139.695" x2="36.686" y2="139.695"/>
		
			<line style="fill:none;stroke:#000000;stroke-width:0.5;stroke-linecap:square;stroke-miterlimit:1;" x1="34.208" y1="122.345" x2="36.686" y2="122.345"/>
		
			<line style="fill:none;stroke:#000000;stroke-width:0.5;stroke-linecap:square;stroke-miterlimit:1;" x1="34.208" y1="104.995" x2="36.686" y2="104.995"/>
		
			<line style="fill:none;stroke:#000000;stroke-width:0.5;stroke-linecap:square;stroke-miterlimit:1;" x1="36.306" y1="191.745" x2="36.306" y2="96.32"/>
		
			<line style="fill:none;stroke:#000000;stroke-width:0.5;stroke-linecap:square;stroke-miterlimit:1;" x1="36.306" y1="192.365" x2="36.306" y2="194.843"/>
		
			<line style="fill:none;stroke:#000000;stroke-width:0.5;stroke-linecap:square;stroke-miterlimit:1;" x1="49.318" y1="192.365" x2="49.318" y2="194.843"/>
		
			<line style="fill:none;stroke:#000000;stroke-width:0.5;stroke-linecap:square;stroke-miterlimit:1;" x1="62.95" y1="192.365" x2="62.95" y2="194.843"/>
		
			<line style="fill:none;stroke:#000000;stroke-width:0.5;stroke-linecap:square;stroke-miterlimit:1;" x1="75.963" y1="192.365" x2="75.963" y2="194.843"/>
		
			<line style="fill:none;stroke:#000000;stroke-width:0.5;stroke-linecap:square;stroke-miterlimit:1;" x1="88.975" y1="192.365" x2="88.975" y2="194.843"/>
		
			<line style="fill:none;stroke:#000000;stroke-width:0.5;stroke-linecap:square;stroke-miterlimit:1;" x1="102.607" y1="192.365" x2="102.607" y2="194.843"/>
		
			<line style="fill:none;stroke:#000000;stroke-width:0.5;stroke-linecap:square;stroke-miterlimit:1;" x1="115.62" y1="192.365" x2="115.62" y2="194.843"/>
		
			<line style="fill:none;stroke:#000000;stroke-width:0.5;stroke-linecap:square;stroke-miterlimit:1;" x1="128.632" y1="192.365" x2="128.632" y2="194.843"/>
		
			<line style="fill:none;stroke:#000000;stroke-width:0.5;stroke-linecap:square;stroke-miterlimit:1;" x1="36.306" y1="191.745" x2="135.448" y2="191.745"/>
		<g>
			<text transform="matrix(1 0 0 1 24.6904 193.2939)"><tspan x="0" y="0" style="font-family:Liberation Sans; font-size:7.650000;">0</tspan></text>
		</g>
		<g>
			<text transform="matrix(1 0 0 1 21.5923 175.9443)"><tspan x="0" y="0" style="font-family:Liberation Sans; font-size:7.650000;">10</tspan></text>
		</g>
		<g>
			<text transform="matrix(1 0 0 1 21.5923 158.5942)"><tspan x="0" y="0" style="font-family:Liberation Sans; font-size:7.650000;">20</tspan></text>
		</g>
		<g>
			<text transform="matrix(1 0 0 1 21.5923 141.2441)"><tspan x="0" y="0" style="font-family:Liberation Sans; font-size:7.650000;">30</tspan></text>
		</g>
		<g>
			<text transform="matrix(1 0 0 1 21.5923 123.8945)"><tspan x="0" y="0" style="font-family:Liberation Sans; font-size:7.650000;">40</tspan></text>
		</g>
		<g>
			<text transform="matrix(1 0 0 1 21.5923 106.5444)"><tspan x="0" y="0" style="font-family:Liberation Sans; font-size:7.650000;">50</tspan></text>
		</g>
		<g>
			<text transform="matrix(1 0 0 1 33.9067 203.0493)"><tspan x="0" y="0" style="font-family:Liberation Sans; font-size:7.650000;">0</tspan></text>
		</g>
		<g>
			<text transform="matrix(1 0 0 1 46.9189 203.0493)"><tspan x="0" y="0" style="font-family:Liberation Sans; font-size:7.650000;">2</tspan></text>
		</g>
		<g>
			<text transform="matrix(1 0 0 1 59.9316 203.0493)"><tspan x="0" y="0" style="font-family:Liberation Sans; font-size:7.650000;">4</tspan></text>
		</g>
		<g>
			<text transform="matrix(1 0 0 1 73.5635 203.0493)"><tspan x="0" y="0" style="font-family:Liberation Sans; font-size:7.650000;">6</tspan></text>
		</g>
		<g>
			<text transform="matrix(1 0 0 1 86.5762 203.0493)"><tspan x="0" y="0" style="font-family:Liberation Sans; font-size:7.650000;">8</tspan></text>
		</g>
		<g>
			<text transform="matrix(1 0 0 1 98.3491 203.0493)"><tspan x="0" y="0" style="font-family:Liberation Sans; font-size:7.650000;">10</tspan></text>
		</g>
		<g>
			<text transform="matrix(1 0 0 1 111.3618 203.0493)"><tspan x="0" y="0" style="font-family:Liberation Sans; font-size:7.650000;">12</tspan></text>
		</g>
		<g>
			<text transform="matrix(1 0 0 1 124.374 203.0493)"><tspan x="0" y="0" style="font-family:Liberation Sans; font-size:7.650000;">14</tspan></text>
		</g>
		<g>
			<text transform="matrix(1 0 0 1 77.9009 211.7959)"><tspan x="0" y="0" style="font-family:Liberation Sans; font-size:7.650000;">t (s)</tspan></text>
		</g>
		<path style="fill:none;stroke:#000000;stroke-linecap:square;stroke-miterlimit:1;" d="M36.306,191.745
			c10.224-25.715,25.057-62.855,38.069-75.558c13.012-12.703,23.46-16.33,60.601-16.33"/>
		<g>
			<text transform="matrix(0 -1 1 0 9 55.7832)"><tspan x="0" y="0" style="font-family:Liberation Sans; font-size:7.650000;">x (m)</tspan></text>
		</g>
		<g>
			<text transform="matrix(0 -1 1 0 9 157.3594)"><tspan x="0" y="0" style="font-family:Liberation Sans; font-size:7.650000;">v (m/s)</tspan></text>
		</g>
	</g>
</svg>
