<?xml version="1.0" encoding="UTF-8" standalone="no"?>
<!-- Created with Inkscape (http://www.inkscape.org/) -->
<svg
   xmlns:dc="http://purl.org/dc/elements/1.1/"
   xmlns:cc="http://web.resource.org/cc/"
   xmlns:rdf="http://www.w3.org/1999/02/22-rdf-syntax-ns#"
   xmlns:svg="http://www.w3.org/2000/svg"
   xmlns="http://www.w3.org/2000/svg"
   xmlns:sodipodi="http://inkscape.sourceforge.net/DTD/sodipodi-0.dtd"
   xmlns:inkscape="http://www.inkscape.org/namespaces/inkscape"
   width="744.09448819"
   height="1052.3622047"
   id="svg2"
   sodipodi:version="0.32"
   sodipodi:docbase="/home/bcrowell/Documents/writing/lm/trunk/2cl/ch01/figs"
   sodipodi:docname="stevinus.svg">
  <defs
     id="defs4" />
  <sodipodi:namedview
     id="base"
     pagecolor="#ffffff"
     bordercolor="#666666"
     borderopacity="1.0"
     inkscape:pageopacity="0.0"
     inkscape:pageshadow="2"
     inkscape:zoom="2.2918747"
     inkscape:cx="244.70378"
     inkscape:cy="540.69090"
     inkscape:document-units="mm"
     inkscape:current-layer="layer1"
     inkscape:window-width="1278"
     inkscape:window-height="996"
     inkscape:window-x="0"
     inkscape:window-y="0" />
  <metadata
     id="metadata7">
    <rdf:RDF>
      <cc:Work
         rdf:about="">
        <dc:format>image/svg+xml</dc:format>
        <dc:type
           rdf:resource="http://purl.org/dc/dcmitype/StillImage" />
      </cc:Work>
    </rdf:RDF>
  </metadata>
  <g
     inkscape:label="Layer 1"
     inkscape:groupmode="layer"
     id="layer1">
    <path
       style="fill:none;fill-opacity:0.75000000;fill-rule:evenodd;stroke:#000000;stroke-width:0.86493963;stroke-linecap:butt;stroke-linejoin:miter;stroke-miterlimit:4.0000000;stroke-dasharray:none;stroke-opacity:1.0000000"
       d="M 92.734139,424.50762 L 124.47692,405.80205"
       id="path2112" />
    <path
       style="fill:none;fill-opacity:0.75000000;fill-rule:evenodd;stroke:#000000;stroke-width:0.86493963;stroke-linecap:butt;stroke-linejoin:miter;stroke-miterlimit:4.0000000;stroke-dasharray:none;stroke-opacity:1.0000000"
       d="M 93.300975,498.76307 L 97.268823,537.30788 L 108.60554,571.60143 L 136.09706,597.10903 L 173.22477,611.84675 L 209.50225,597.67586 L 236.71035,572.16826 L 247.76364,537.59130 L 249.46415,499.61333"
       id="path2110" />
    <path
       style="fill:none;fill-opacity:0.75000000;fill-rule:evenodd;stroke:#000000;stroke-width:0.86493963;stroke-linecap:butt;stroke-linejoin:miter;stroke-miterlimit:4.0000000;stroke-dasharray:none;stroke-opacity:1.0000000"
       d="M 126.17743,406.65230 L 248.04706,499.04649"
       id="path2106" />
    <path
       style="fill:none;fill-opacity:0.75000000;fill-rule:evenodd;stroke:#000000;stroke-width:0.86493963;stroke-linecap:butt;stroke-linejoin:miter;stroke-miterlimit:4.0000000;stroke-dasharray:none;stroke-opacity:1.0000000"
       d="M 93.017557,427.05839 L 93.017557,502.16409"
       id="path2104" />
    <path
       style="fill:#aaaaaa;fill-opacity:1.0000000;fill-rule:evenodd;stroke:#000000;stroke-width:0.86493963;stroke-linecap:butt;stroke-linejoin:miter;stroke-miterlimit:4.0000000;stroke-dasharray:none;stroke-opacity:1.0000000"
       d="M 112.26777,416.40634 C 111.11301,416.28879 110.50738,416.75080 109.98186,417.05505 C 108.93082,417.66354 108.10399,418.20911 108.15931,429.93647 L 108.03574,430.12181 L 108.03574,516.89379 L 236.51017,516.89379 C 237.35982,516.82057 242.82366,516.32554 242.87365,515.22570 C 242.92757,514.03960 238.81682,510.16256 232.18547,505.52602 L 232.18547,505.37156 L 117.98255,419.34096 C 117.93875,419.31003 117.90291,419.31234 117.85899,419.27918 C 115.14843,417.23242 113.42253,416.52390 112.26777,416.40634 z "
       id="rect1306" />
    <path
       sodipodi:type="arc"
       style="fill:#aaaaaa;fill-opacity:1.0000000;fill-rule:evenodd;stroke:#000000;stroke-width:2.6515152;stroke-linecap:butt;stroke-linejoin:miter;stroke-miterlimit:4.0000000;stroke-dasharray:none;stroke-opacity:1.0000000"
       id="path2040"
       sodipodi:cx="123.14377"
       sodipodi:cy="456.13989"
       sodipodi:rx="42.863781"
       sodipodi:ry="42.863781"
       d="M 166.00755 456.13989 A 42.863781 42.863781 0 1 1  80.279987,456.13989 A 42.863781 42.863781 0 1 1  166.00755 456.13989 z"
       transform="matrix(0.326206,0.000000,0.000000,0.326206,53.11297,275.4643)" />
    <path
       sodipodi:type="arc"
       style="fill:#aaaaaa;fill-opacity:1.0000000;fill-rule:evenodd;stroke:#000000;stroke-width:2.6515152;stroke-linecap:butt;stroke-linejoin:miter;stroke-miterlimit:4.0000000;stroke-dasharray:none;stroke-opacity:1.0000000"
       id="path2042"
       sodipodi:cx="123.14377"
       sodipodi:cy="456.13989"
       sodipodi:rx="42.863781"
       sodipodi:ry="42.863781"
       d="M 166.00755 456.13989 A 42.863781 42.863781 0 1 1  80.279987,456.13989 A 42.863781 42.863781 0 1 1  166.00755 456.13989 z"
       transform="matrix(0.326206,0.000000,0.000000,0.326206,53.11298,312.7159)" />
    <path
       sodipodi:type="arc"
       style="fill:#aaaaaa;fill-opacity:1.0000000;fill-rule:evenodd;stroke:#000000;stroke-width:2.6515152;stroke-linecap:butt;stroke-linejoin:miter;stroke-miterlimit:4.0000000;stroke-dasharray:none;stroke-opacity:1.0000000"
       id="path2044"
       sodipodi:cx="123.14377"
       sodipodi:cy="456.13989"
       sodipodi:rx="42.863781"
       sodipodi:ry="42.863781"
       d="M 166.00755 456.13989 A 42.863781 42.863781 0 1 1  80.279987,456.13989 A 42.863781 42.863781 0 1 1  166.00755 456.13989 z"
       transform="matrix(0.326206,0.000000,0.000000,0.326206,53.11297,349.9676)" />
    <path
       sodipodi:type="arc"
       style="fill:#aaaaaa;fill-opacity:1.0000000;fill-rule:evenodd;stroke:#000000;stroke-width:2.6515152;stroke-linecap:butt;stroke-linejoin:miter;stroke-miterlimit:4.0000000;stroke-dasharray:none;stroke-opacity:1.0000000"
       id="path2046"
       sodipodi:cx="123.14377"
       sodipodi:cy="456.13989"
       sodipodi:rx="42.863781"
       sodipodi:ry="42.863781"
       d="M 166.00755 456.13989 A 42.863781 42.863781 0 1 1  80.279987,456.13989 A 42.863781 42.863781 0 1 1  166.00755 456.13989 z"
       transform="matrix(0.260065,0.196917,-0.196917,0.260065,276.0289,333.8946)" />
    <path
       sodipodi:type="arc"
       style="fill:#aaaaaa;fill-opacity:1.0000000;fill-rule:evenodd;stroke:#000000;stroke-width:2.6515152;stroke-linecap:butt;stroke-linejoin:miter;stroke-miterlimit:4.0000000;stroke-dasharray:none;stroke-opacity:1.0000000"
       id="path2050"
       sodipodi:cx="123.14377"
       sodipodi:cy="456.13989"
       sodipodi:rx="42.863781"
       sodipodi:ry="42.863781"
       d="M 166.00755 456.13989 A 42.863781 42.863781 0 1 1  80.279987,456.13989 A 42.863781 42.863781 0 1 1  166.00755 456.13989 z"
       transform="matrix(0.196917,-0.260065,0.260065,0.196917,-17.19769,348.7712)" />
    <path
       sodipodi:type="arc"
       style="fill:#aaaaaa;fill-opacity:1.0000000;fill-rule:evenodd;stroke:#000000;stroke-width:2.6515152;stroke-linecap:butt;stroke-linejoin:miter;stroke-miterlimit:4.0000000;stroke-dasharray:none;stroke-opacity:1.0000000"
       id="path2052"
       sodipodi:cx="123.14377"
       sodipodi:cy="456.13989"
       sodipodi:rx="42.863781"
       sodipodi:ry="42.863781"
       d="M 166.00755 456.13989 A 42.863781 42.863781 0 1 1  80.279987,456.13989 A 42.863781 42.863781 0 1 1  166.00755 456.13989 z"
       transform="matrix(0.196917,-0.260065,0.260065,0.196917,14.40977,373.4001)" />
    <path
       sodipodi:type="arc"
       style="fill:#aaaaaa;fill-opacity:1.0000000;fill-rule:evenodd;stroke:#000000;stroke-width:2.6515152;stroke-linecap:butt;stroke-linejoin:miter;stroke-miterlimit:4.0000000;stroke-dasharray:none;stroke-opacity:1.0000000"
       id="path2054"
       sodipodi:cx="123.14377"
       sodipodi:cy="456.13989"
       sodipodi:rx="42.863781"
       sodipodi:ry="42.863781"
       d="M 166.00755 456.13989 A 42.863781 42.863781 0 1 1  80.279987,456.13989 A 42.863781 42.863781 0 1 1  166.00755 456.13989 z"
       transform="matrix(0.196917,-0.260065,0.260065,0.196917,44.88357,396.3285)" />
    <path
       sodipodi:type="arc"
       style="fill:#aaaaaa;fill-opacity:1.0000000;fill-rule:evenodd;stroke:#000000;stroke-width:2.6515152;stroke-linecap:butt;stroke-linejoin:miter;stroke-miterlimit:4.0000000;stroke-dasharray:none;stroke-opacity:1.0000000"
       id="path2064"
       sodipodi:cx="123.14377"
       sodipodi:cy="456.13989"
       sodipodi:rx="42.863781"
       sodipodi:ry="42.863781"
       d="M 166.00755 456.13989 A 42.863781 42.863781 0 1 1  80.279987,456.13989 A 42.863781 42.863781 0 1 1  166.00755 456.13989 z"
       transform="matrix(0.260065,0.196917,-0.196917,0.260065,306.5027,357.1065)" />
    <path
       sodipodi:type="arc"
       style="fill:#aaaaaa;fill-opacity:1.0000000;fill-rule:evenodd;stroke:#000000;stroke-width:2.6515152;stroke-linecap:butt;stroke-linejoin:miter;stroke-miterlimit:4.0000000;stroke-dasharray:none;stroke-opacity:1.0000000"
       id="path2079"
       sodipodi:cx="123.14377"
       sodipodi:cy="456.13989"
       sodipodi:rx="42.863781"
       sodipodi:ry="42.863781"
       d="M 166.00755 456.13989 A 42.863781 42.863781 0 1 1  80.279987,456.13989 A 42.863781 42.863781 0 1 1  166.00755 456.13989 z"
       transform="matrix(0.326206,0.000000,0.000000,0.326206,132.7712,462.7678)" />
    <g
       id="g2100"
       transform="matrix(0.988502,0.000000,0.000000,0.988502,0.623414,7.197226)"
       style="fill:#aaaaaa;fill-opacity:1.0000000">
      <path
         transform="matrix(0.330000,0.000000,0.000000,0.330000,96.12530,446.6771)"
         d="M 166.00755 456.13989 A 42.863781 42.863781 0 1 1  80.279987,456.13989 A 42.863781 42.863781 0 1 1  166.00755 456.13989 z"
         sodipodi:ry="42.863781"
         sodipodi:rx="42.863781"
         sodipodi:cy="456.13989"
         sodipodi:cx="123.14377"
         id="path2077"
         style="fill:#aaaaaa;fill-opacity:1.0000000;fill-rule:evenodd;stroke:#000000;stroke-width:2.6515152;stroke-linecap:butt;stroke-linejoin:miter;stroke-miterlimit:4.0000000;stroke-dasharray:none;stroke-opacity:1.0000000"
         sodipodi:type="arc" />
      <path
         transform="matrix(0.330000,0.000000,0.000000,0.330000,171.2444,446.6771)"
         d="M 166.00755 456.13989 A 42.863781 42.863781 0 1 1  80.279987,456.13989 A 42.863781 42.863781 0 1 1  166.00755 456.13989 z"
         sodipodi:ry="42.863781"
         sodipodi:rx="42.863781"
         sodipodi:cy="456.13989"
         sodipodi:cx="123.14377"
         id="path2081"
         style="fill:#aaaaaa;fill-opacity:1.0000000;fill-rule:evenodd;stroke:#000000;stroke-width:2.6515152;stroke-linecap:butt;stroke-linejoin:miter;stroke-miterlimit:4.0000000;stroke-dasharray:none;stroke-opacity:1.0000000"
         sodipodi:type="arc" />
    </g>
    <g
       id="g2096"
       transform="matrix(0.988502,0.000000,0.000000,0.988502,0.906917,7.197226)"
       style="fill:#aaaaaa;fill-opacity:1.0000000">
      <path
         transform="matrix(0.330000,0.000000,0.000000,0.330000,68.88740,420.2994)"
         d="M 166.00755 456.13989 A 42.863781 42.863781 0 1 1  80.279987,456.13989 A 42.863781 42.863781 0 1 1  166.00755 456.13989 z"
         sodipodi:ry="42.863781"
         sodipodi:rx="42.863781"
         sodipodi:cy="456.13989"
         sodipodi:cx="123.14377"
         id="path2075"
         style="fill:#aaaaaa;fill-opacity:1.0000000;fill-rule:evenodd;stroke:#000000;stroke-width:2.6515152;stroke-linecap:butt;stroke-linejoin:miter;stroke-miterlimit:4.0000000;stroke-dasharray:none;stroke-opacity:1.0000000"
         sodipodi:type="arc" />
      <path
         transform="matrix(0.330000,0.000000,0.000000,0.330000,197.9087,420.2994)"
         d="M 166.00755 456.13989 A 42.863781 42.863781 0 1 1  80.279987,456.13989 A 42.863781 42.863781 0 1 1  166.00755 456.13989 z"
         sodipodi:ry="42.863781"
         sodipodi:rx="42.863781"
         sodipodi:cy="456.13989"
         sodipodi:cx="123.14377"
         id="path2083"
         style="fill:#aaaaaa;fill-opacity:1.0000000;fill-rule:evenodd;stroke:#000000;stroke-width:2.6515152;stroke-linecap:butt;stroke-linejoin:miter;stroke-miterlimit:4.0000000;stroke-dasharray:none;stroke-opacity:1.0000000"
         sodipodi:type="arc" />
    </g>
    <g
       id="g2092"
       style="fill:#aaaaaa;fill-opacity:1.0000000"
       transform="matrix(0.988502,0.000000,0.000000,0.988502,0.906793,7.197226)">
      <path
         transform="matrix(0.330000,0.000000,0.000000,0.330000,57.70555,386.1805)"
         d="M 166.00755 456.13989 A 42.863781 42.863781 0 1 1  80.279987,456.13989 A 42.863781 42.863781 0 1 1  166.00755 456.13989 z"
         sodipodi:ry="42.863781"
         sodipodi:rx="42.863781"
         sodipodi:cy="456.13989"
         sodipodi:cx="123.14377"
         id="path2073"
         style="fill:#aaaaaa;fill-opacity:1.0000000;fill-rule:evenodd;stroke:#000000;stroke-width:2.6515152;stroke-linecap:butt;stroke-linejoin:miter;stroke-miterlimit:4.0000000;stroke-dasharray:none;stroke-opacity:1.0000000"
         sodipodi:type="arc" />
      <path
         transform="matrix(0.330000,0.000000,0.000000,0.330000,209.0908,386.1805)"
         d="M 166.00755 456.13989 A 42.863781 42.863781 0 1 1  80.279987,456.13989 A 42.863781 42.863781 0 1 1  166.00755 456.13989 z"
         sodipodi:ry="42.863781"
         sodipodi:rx="42.863781"
         sodipodi:cy="456.13989"
         sodipodi:cx="123.14377"
         id="path2085"
         style="fill:#aaaaaa;fill-opacity:1.0000000;fill-rule:evenodd;stroke:#000000;stroke-width:2.6515152;stroke-linecap:butt;stroke-linejoin:miter;stroke-miterlimit:4.0000000;stroke-dasharray:none;stroke-opacity:1.0000000"
         sodipodi:type="arc" />
    </g>
  </g>
</svg>
