<?xml version="1.0" encoding="iso-8859-1"?>
<!-- Generator: Adobe Illustrator 11 Build 196, SVG Export Plug-In . SVG Version: 6.0.0 Build 78)  -->
<!DOCTYPE svg PUBLIC "-//W3C//DTD SVG 1.0//EN"    "http://www.w3.org/TR/2001/REC-SVG-20010904/DTD/svg10.dtd" [
	<!ENTITY ns_flows "http://ns.adobe.com/Flows/1.0/">
	<!ENTITY ns_svg "http://www.w3.org/2000/svg">
	<!ENTITY ns_xlink "http://www.w3.org/1999/xlink">
]>
<svg  
	 width="133.666" height="78.106" viewBox="0 0 133.666 78.106" style="overflow:visible;enable-background:new 0 0 133.666 78.106"
	 xml:space="preserve">
	<style type="text/css">
	
	</style>
	<g id="Layer_1">
		<polyline style="fill:none;stroke:#000000;stroke-width:0.5;" points="35.521,5.175 35.521,53.175 131.44,53.175 "/>
		<g>
			<text transform="matrix(1 0 0 1 8.8806 30.3853)"><tspan x="0" y="0" style="font-family:Liberation Sans; font-size:8.500000;">v</tspan></text>
			<text transform="matrix(1 0 0 1 0 42.3853)"><tspan x="0" y="0" style="font-family:Liberation Sans; font-size:8.500000;">(m/s)</tspan></text>
		</g>
		<g>
			<text transform="matrix(1 0 0 1 77.5808 73.6431)"><tspan x="0" y="0" style="font-family:Liberation Sans; font-size:8.500000;">t (s)</tspan></text>
		</g>
		<line style="fill:none;stroke:#000000;" x1="35.455" y1="52.954" x2="131.387" y2="5.31"/>
		<g>
			<text transform="matrix(1 0 0 1 33.1926 63.6431)"><tspan x="0" y="0" style="font-family:Liberation Sans; font-size:6.800000;">0</tspan></text>
		</g>
		<g>
			<text transform="matrix(1 0 0 1 65.2004 63.6431)"><tspan x="0" y="0" style="font-family:Liberation Sans; font-size:6.800000;">1</tspan></text>
		</g>
		<g>
			<text transform="matrix(1 0 0 1 97.2083 63.6431)"><tspan x="0" y="0" style="font-family:Liberation Sans; font-size:6.800000;">2</tspan></text>
		</g>
		<g>
			<text transform="matrix(1 0 0 1 129.2166 63.6431)"><tspan x="0" y="0" style="font-family:Liberation Sans; font-size:6.800000;">3</tspan></text>
		</g>
		<line style="stroke:#000000;stroke-width:0.5;" x1="35.416" y1="52.987" x2="35.416" y2="56.654"/>
		<line style="stroke:#000000;stroke-width:0.5;" x1="67.424" y1="52.987" x2="67.424" y2="56.654"/>
		<line style="stroke:#000000;stroke-width:0.5;" x1="99.432" y1="52.987" x2="99.432" y2="56.654"/>
		<line style="stroke:#000000;stroke-width:0.5;" x1="131.44" y1="52.987" x2="131.44" y2="56.654"/>
		<g>
			<text transform="matrix(1 0 0 1 26.3625 55.8335)"><tspan x="0" y="0" style="font-family:Liberation Sans; font-size:6.800000;">0</tspan></text>
		</g>
		<g>
			<text transform="matrix(1 0 0 1 21.9153 39.8892)"><tspan x="0" y="0" style="font-family:Liberation Sans; font-size:6.800000;">10</tspan></text>
		</g>
		<g>
			<text transform="matrix(1 0 0 1 21.9153 23.9443)"><tspan x="0" y="0" style="font-family:Liberation Sans; font-size:6.800000;">20</tspan></text>
		</g>
		<g>
			<text transform="matrix(1 0 0 1 21.9153 8)"><tspan x="0" y="0" style="font-family:Liberation Sans; font-size:6.800000;">30</tspan></text>
		</g>
		<line style="fill:none;stroke:#000000;stroke-width:0.5;" x1="32.705" y1="52.954" x2="35.455" y2="52.954"/>
		<line style="fill:none;stroke:#000000;stroke-width:0.3;" x1="33.221" y1="5.143" x2="131.387" y2="5.143"/>
		<line style="fill:none;stroke:#000000;stroke-width:0.3;" x1="33.512" y1="21.164" x2="131.346" y2="21.164"/>
		<line style="fill:none;stroke:#000000;stroke-width:0.3;" x1="33.221" y1="36.831" x2="131.471" y2="36.831"/>
		<line style="fill:none;stroke:#000000;stroke-width:0.3;" x1="67.408" y1="52.987" x2="67.408" y2="5.31"/>
		<line style="fill:none;stroke:#000000;stroke-width:0.3;" x1="99.408" y1="52.899" x2="99.408" y2="5.222"/>
		<line style="fill:none;stroke:#000000;stroke-width:0.3;" x1="131.408" y1="53.024" x2="131.408" y2="5.347"/>
	</g>
</svg>
