<?xml version="1.0" encoding="UTF-8" standalone="no"?>
<!-- Generator: Adobe Illustrator 11 Build 196, SVG Export Plug-In . SVG Version: 6.0.0 Build 78)  -->

<svg
   xmlns:dc="http://purl.org/dc/elements/1.1/"
   xmlns:cc="http://creativecommons.org/ns#"
   xmlns:rdf="http://www.w3.org/1999/02/22-rdf-syntax-ns#"
   xmlns:svg="http://www.w3.org/2000/svg"
   xmlns="http://www.w3.org/2000/svg"
   xmlns:sodipodi="http://sodipodi.sourceforge.net/DTD/sodipodi-0.dtd"
   xmlns:inkscape="http://www.inkscape.org/namespaces/inkscape"
   width="141.369"
   height="144.66"
   viewBox="0 0 141.369 144.66"
   style="overflow:visible;enable-background:new 0 0 141.369 144.66"
   xml:space="preserve"
   id="svg2"
   version="1.1"
   sodipodi:docname="eg-sd-vegas.svg"><metadata
     id="metadata75"><rdf:RDF><cc:Work
         rdf:about=""><dc:format>image/svg+xml</dc:format><dc:type
           rdf:resource="http://purl.org/dc/dcmitype/StillImage" /></cc:Work></rdf:RDF></metadata><defs
     id="defs73" /><sodipodi:namedview
     pagecolor="#ffffff"
     bordercolor="#666666"
     borderopacity="1"
     objecttolerance="10"
     gridtolerance="10"
     guidetolerance="10"
     inkscape:pageopacity="0"
     inkscape:pageshadow="2"
     inkscape:window-width="1280"
     inkscape:window-height="997"
     id="namedview71"
     showgrid="false"
     inkscape:zoom="6.5256462"
     inkscape:cx="108.31303"
     inkscape:cy="120.46722"
     inkscape:window-x="0"
     inkscape:window-y="0"
     inkscape:window-maximized="1"
     inkscape:current-layer="svg2" /><style
     type="text/css"
     id="style4" /><g
     id="Layer_1"><polygon
       style="fill:#FFFF80;stroke:#000000;stroke-width:0.25;"
       points="57.396,11.524 57.396,74.312 120.574,61.053     120.184,55.983 122.524,54.813 120.574,40.383 117.454,34.143 116.284,22.054 117.064,19.324 120.964,18.154 124.084,19.713     126.034,17.764 128.764,18.543 128.374,20.104 131.884,20.104 135.394,25.563 138.514,26.343 141.244,19.713 141.244,11.524 "
       id="polygon7" /><polygon
       style="fill:#B3E2B3;stroke:#000000;stroke-width:0.25;"
       points="0.847,97.322 3.967,96.542 8.257,98.492 11.376,103.171     10.207,108.241 13.327,109.412 17.617,107.852 23.076,110.971 28.926,114.481 36.726,122.281 43.454,131.251 125.533,131.251     124.864,128.131 120.964,126.181 120.964,115.261 125.644,109.021 124.084,96.542 129.934,89.912 133.444,87.182 135.394,83.282     127.204,78.212 120.574,65.342 120.574,61.053 64.909,11.914 0.847,11.914 "
       id="polygon9" /><polygon
       style="fill:#B4B4B4;"
       points="15.759,88.211 13.029,89.771 7.959,85.481 2.109,88.601 8.739,92.111 4.839,95.621     4.249,96.487 8.349,98.351 11.469,103.031 10.299,108.101 13.419,109.271 17.708,107.71 21.68,109.979 22.778,108.88     24.338,101.861 18.489,97.961 21.608,95.621 25.898,97.181 26.678,92.501 17.708,90.941 "
       id="polygon11" /><circle
       cx="11.948"
       cy="98.377"
       r="1.379"
       id="circle13" /><polygon
       style="fill:#B4B4B4;"
       points="99.515,18.934 104.975,21.273 107.704,15.814 100.685,13.474 "
       id="polygon15" /><circle
       cx="102.426"
       cy="17.374"
       r="1.379"
       id="circle17" /><rect
       x="65.585"
       y="11.437"
       style="fill:#FFFF80;"
       width="75.268"
       height="1.95"
       id="rect19" /><rect
       x="0.847"
       y="11.48"
       style="fill:#B3E2B3;"
       width="65.908"
       height="1.95"
       id="rect21" /><rect
       x="0.327"
       y="11.654"
       style="fill:#B3E2B3;"
       width="0.78"
       height="84.498"
       id="rect23" /><polygon
       style="fill:#FFFF80;"
       points="66.755,13.43 64.545,11.48 66.755,11.48 "
       id="polygon25" /><line
       style="fill:none;stroke:#000000;stroke-width:0.25;"
       x1="66.582"
       y1="13.43"
       x2="64.545"
       y2="11.48"
       id="line27" /><g
       id="g29"><text
         transform="matrix(1 0 0 1 0 118.333)"
         id="text31"><tspan
           x="0"
           y="0"
           style="font-family:Liberation Sans; font-size:7.650000;"
           id="tspan33">Los</tspan></text>
<text
         transform="matrix(1 0 0 1 0 129.333)"
         id="text35"><tspan
           x="0"
           y="0"
           style="font-family:Liberation Sans; font-size:7.650000;"
           id="tspan37">Angeles</tspan></text>
</g><g
       id="g39"><text
         transform="translate(98.6665,9)"
         id="text41"><tspan
           x="0"
           y="0"
           style="font-size:7.6500001px;font-family:'Liberation Sans'"
           id="tspan43">Las Vegas</tspan></text>
<text
         transform="translate(121.1855,9)"
         id="text45"><tspan
           x="0"
           y="0"
           style="font-size:7.6500001px;font-family:'Liberation Sans'"
           id="tspan47" /></text>
</g><polygon
       style="fill:#B4B4B4;"
       points="42.139,128.581 44.889,127.206 46.764,128.393 49.014,128.706 49.389,130.456     49.326,131.018 43.656,131.171 41.826,128.768 "
       id="polygon49" /><g
       id="g51"><text
         transform="matrix(1 0 0 1 41.8262 140.6431)"
         id="text53"><tspan
           x="0"
           y="0"
           style="font-family:Liberation Sans; font-size:7.650000;"
           id="tspan55">San Diego</tspan></text>
</g><circle
       cx="43.656"
       cy="129.792"
       r="1.379"
       id="circle57" /><g
       id="g59"><line
         style="fill:none;stroke:#000000;"
         x1="43.656"
         y1="129.792"
         x2="15"
         y2="101.333"
         id="line61" /><path
         d="M12.432,98.783c1.654,0.752,3.915,1.477,5.649,1.589l-2.743,1.297l-1.278,2.751     C13.936,102.688,13.196,100.433,12.432,98.783z"
         id="path63" /></g><g
       id="g65"><line
         style="fill:none;stroke:#000000;"
         x1="12.667"
         y1="97.333"
         x2="99"
         y2="20.333"
         id="line67" /><path
         d="M101.707,17.922c-0.851,1.606-1.71,3.818-1.928,5.542l-1.129-2.816l-2.669-1.442     C97.719,19.187,100.015,18.584,101.707,17.922z"
         id="path69" /></g></g></svg>