<?xml version="1.0" encoding="UTF-8" standalone="no"?>
<!DOCTYPE svg PUBLIC "-//W3C//DTD SVG 20010904//EN"
"http://www.w3.org/TR/2001/REC-SVG-20010904/DTD/svg10.dtd">
<!-- Created with Inkscape (http://www.inkscape.org/) -->
<svg
   width="113.00000mm"
   height="77.000000mm"
   xmlns="http://www.w3.org/2000/svg"
   xmlns:cc="http://web.resource.org/cc/"
   xmlns:inkscape="http://www.inkscape.org/namespaces/inkscape"
   xmlns:sodipodi="http://sodipodi.sourceforge.net/DTD/sodipodi-0.dtd"
   xmlns:rdf="http://www.w3.org/1999/02/22-rdf-syntax-ns#"
   xmlns:dc="http://purl.org/dc/elements/1.1/"
   xmlns:xlink="http://www.w3.org/1999/xlink"
   id="svg31"
   sodipodi:version="0.32"
   sodipodi:docbase="/home/bcrowell/Documents/writing/lm/trunk/1np/ch03/figs"
   sodipodi:docname="eg-skydiver-graph-soln.svg">
  <defs
     id="defs3" />
  <sodipodi:namedview
     id="base"
     pagecolor="#ffffff"
     bordercolor="#666666"
     borderopacity="1.0"
     inkscape:pageopacity="0.0"
     inkscape:pageshadow="2"
     inkscape:zoom="1.2279853"
     inkscape:cx="201.36083"
     inkscape:cy="88.965025"
     inkscape:current-layer="layer1"
     inkscape:window-width="640"
     inkscape:window-height="536"
     inkscape:window-x="129"
     inkscape:window-y="21" />
  <metadata
     id="metadata4">
    <rdf:RDF
       id="RDF5">
      <cc:Work
         rdf:about=""
         id="Work6">
        <dc:format
           id="format7">image/svg+xml</dc:format>
        <dc:type
           id="type9"
           rdf:resource="http://purl.org/dc/dcmitype/StillImage" />
      </cc:Work>
    </rdf:RDF>
  </metadata>
  <g
     inkscape:label="Layer 1"
     inkscape:groupmode="layer"
     id="layer1">
    <g
       id="g29"
       transform="matrix(0.841500,0.000000,0.000000,0.841500,429.3951,580.0399)">
      <rect
         style="fill:none;fill-opacity:1.0000000;stroke:none;stroke-width:0.62500006;stroke-linecap:butt;stroke-linejoin:miter;stroke-miterlimit:4.0000000;stroke-dashoffset:0.0000000;stroke-opacity:1.0000000"
         id="rect241"
         width="359.14413"
         height="60.700413"
         x="-496.27679"
         y="-523.49951" />
      <rect
         x="-422.78534"
         y="-627.65521"
         style="fill:none;stroke:#000000;stroke-width:0.75000000;stroke-miterlimit:1.0000000"
         width="223.07101"
         height="214.70549"
         id="rect14" />
      <line
         style="fill:none;stroke:#000000;stroke-width:0.75000000;stroke-linecap:square;stroke-miterlimit:1.0000000"
         x1="-427.50583"
         y1="-412.94821"
         x2="-421.92883"
         y2="-412.94821"
         id="line16" />
      <line
         style="fill:none;stroke:#000000;stroke-width:0.75000000;stroke-linecap:square;stroke-miterlimit:1.0000000"
         x1="-427.50583"
         y1="-451.98569"
         x2="-421.92883"
         y2="-451.98569"
         id="line18" />
      <line
         style="fill:none;stroke:#000000;stroke-width:0.75000000;stroke-linecap:square;stroke-miterlimit:1.0000000"
         x1="-427.50583"
         y1="-491.02322"
         x2="-421.92883"
         y2="-491.02322"
         id="line20" />
      <line
         style="fill:none;stroke:#000000;stroke-width:0.75000000;stroke-linecap:square;stroke-miterlimit:1.0000000"
         x1="-427.50583"
         y1="-530.06226"
         x2="-421.92883"
         y2="-530.06226"
         id="line22" />
      <line
         style="fill:none;stroke:#000000;stroke-width:0.75000000;stroke-linecap:square;stroke-miterlimit:1.0000000"
         x1="-427.50583"
         y1="-569.09821"
         x2="-421.92883"
         y2="-569.09821"
         id="line24" />
      <line
         style="fill:none;stroke:#000000;stroke-width:0.75000000;stroke-linecap:square;stroke-miterlimit:1.0000000"
         x1="-427.50583"
         y1="-608.13574"
         x2="-421.92883"
         y2="-608.13574"
         id="line26" />
      <line
         style="fill:none;stroke:#000000;stroke-width:0.75000000;stroke-linecap:square;stroke-miterlimit:1.0000000"
         x1="-422.78534"
         y1="-412.94821"
         x2="-422.78534"
         y2="-627.65521"
         id="line28" />
      <line
         style="fill:none;stroke:#000000;stroke-width:0.75000000;stroke-linecap:square;stroke-miterlimit:1.0000000"
         x1="-422.78534"
         y1="-411.55472"
         x2="-422.78534"
         y2="-405.97769"
         id="line30" />
      <line
         style="fill:none;stroke:#000000;stroke-width:0.75000000;stroke-linecap:square;stroke-miterlimit:1.0000000"
         x1="-393.50684"
         y1="-411.55472"
         x2="-393.50684"
         y2="-405.97769"
         id="line32" />
      <line
         style="fill:none;stroke:#000000;stroke-width:0.75000000;stroke-linecap:square;stroke-miterlimit:1.0000000"
         x1="-362.83484"
         y1="-411.55472"
         x2="-362.83484"
         y2="-405.97769"
         id="line34" />
      <line
         style="fill:none;stroke:#000000;stroke-width:0.75000000;stroke-linecap:square;stroke-miterlimit:1.0000000"
         x1="-333.55634"
         y1="-411.55472"
         x2="-333.55634"
         y2="-405.97769"
         id="line36" />
      <line
         style="fill:none;stroke:#000000;stroke-width:0.75000000;stroke-linecap:square;stroke-miterlimit:1.0000000"
         x1="-304.27933"
         y1="-411.55472"
         x2="-304.27933"
         y2="-405.97769"
         id="line38" />
      <line
         style="fill:none;stroke:#000000;stroke-width:0.75000000;stroke-linecap:square;stroke-miterlimit:1.0000000"
         x1="-273.60583"
         y1="-411.55472"
         x2="-273.60583"
         y2="-405.97769"
         id="line40" />
      <line
         style="fill:none;stroke:#000000;stroke-width:0.75000000;stroke-linecap:square;stroke-miterlimit:1.0000000"
         x1="-244.32733"
         y1="-411.55472"
         x2="-244.32733"
         y2="-405.97769"
         id="line42" />
      <line
         style="fill:none;stroke:#000000;stroke-width:0.75000000;stroke-linecap:square;stroke-miterlimit:1.0000000"
         x1="-215.05032"
         y1="-411.55472"
         x2="-215.05032"
         y2="-405.97769"
         id="line44" />
      <line
         style="fill:none;stroke:#000000;stroke-width:0.75000000;stroke-linecap:square;stroke-miterlimit:1.0000000"
         x1="-422.78534"
         y1="-412.94821"
         x2="-199.71436"
         y2="-412.94821"
         id="line46" />
      <g
         id="g48"
         transform="matrix(1.500000,0.000000,0.000000,1.500000,-497.7223,-693.1287)">
        <text
           transform="translate(32.53560,189.1104)"
           id="text50"><tspan
             x="0"
             y="0"
             style="font-size:7.6500001;font-family:Liberation Sans"
             id="tspan51">0</tspan></text>
      </g>
      <g
         id="g55"
         transform="matrix(1.500000,0.000000,0.000000,1.500000,-497.7223,-693.1287)">
        <text
           transform="translate(27.88820,163.0854)"
           id="text57"><tspan
             x="0"
             y="0"
             style="font-size:7.6500001;font-family:Liberation Sans"
             id="tspan58">10</tspan></text>
      </g>
      <g
         id="g62"
         transform="matrix(1.500000,0.000000,0.000000,1.500000,-497.7223,-693.1287)">
        <text
           transform="translate(27.88820,137.0605)"
           id="text64"><tspan
             x="0"
             y="0"
             style="font-size:7.6500001;font-family:Liberation Sans"
             id="tspan65">20</tspan></text>
      </g>
      <g
         id="g69"
         transform="matrix(1.500000,0.000000,0.000000,1.500000,-497.7223,-693.1287)">
        <text
           transform="translate(27.88820,111.0352)"
           id="text71"><tspan
             x="0"
             y="0"
             style="font-size:7.6500001;font-family:Liberation Sans"
             id="tspan72">30</tspan></text>
      </g>
      <g
         id="g76"
         transform="matrix(1.500000,0.000000,0.000000,1.500000,-497.7223,-693.1287)">
        <text
           transform="translate(27.88820,85.01030)"
           id="text78"><tspan
             x="0"
             y="0"
             style="font-size:7.6500001;font-family:Liberation Sans"
             id="tspan79">40</tspan></text>
      </g>
      <g
         id="g83"
         transform="matrix(1.500000,0.000000,0.000000,1.500000,-497.7223,-693.1287)">
        <text
           transform="translate(27.88820,58.98540)"
           id="text85"><tspan
             x="0"
             y="0"
             style="font-size:7.6500001;font-family:Liberation Sans"
             id="tspan86">50</tspan></text>
      </g>
      <g
         id="g90"
         transform="matrix(1.500000,0.000000,0.000000,1.500000,-497.7223,-693.1287)">
        <text
           transform="translate(46.35940,203.7432)"
           id="text92"><tspan
             x="0"
             y="0"
             style="font-size:7.6500001;font-family:Liberation Sans"
             id="tspan93">0</tspan></text>
      </g>
      <g
         id="g97"
         transform="matrix(1.500000,0.000000,0.000000,1.500000,-497.7223,-693.1287)">
        <text
           transform="translate(65.87840,203.7432)"
           id="text99"><tspan
             x="0"
             y="0"
             style="font-size:7.6500001;font-family:Liberation Sans"
             id="tspan100">2</tspan></text>
      </g>
      <g
         id="g104"
         transform="matrix(1.500000,0.000000,0.000000,1.500000,-497.7223,-693.1287)">
        <text
           transform="translate(85.39700,203.7432)"
           id="text106"><tspan
             x="0"
             y="0"
             style="font-size:7.6500001;font-family:Liberation Sans"
             id="tspan107">4</tspan></text>
      </g>
      <g
         id="g111"
         transform="matrix(1.500000,0.000000,0.000000,1.500000,-497.7223,-693.1287)">
        <text
           transform="translate(105.8452,203.7432)"
           id="text113"><tspan
             x="0"
             y="0"
             style="font-size:7.6500001;font-family:Liberation Sans"
             id="tspan114">6</tspan></text>
      </g>
      <g
         id="g118"
         transform="matrix(1.500000,0.000000,0.000000,1.500000,-497.7223,-693.1287)">
        <text
           transform="translate(125.3638,203.7432)"
           id="text120"><tspan
             x="0"
             y="0"
             style="font-size:7.6500001;font-family:Liberation Sans"
             id="tspan121">8</tspan></text>
      </g>
      <g
         id="g125"
         transform="matrix(1.500000,0.000000,0.000000,1.500000,-497.7223,-693.1287)">
        <text
           transform="translate(143.0239,203.7432)"
           id="text127"><tspan
             x="0"
             y="0"
             style="font-size:7.6500001;font-family:Liberation Sans"
             id="tspan128">10</tspan></text>
      </g>
      <g
         id="g132"
         transform="matrix(1.500000,0.000000,0.000000,1.500000,-497.7223,-693.1287)">
        <text
           transform="translate(162.5425,203.7432)"
           id="text134"><tspan
             x="0"
             y="0"
             style="font-size:7.6500001;font-family:Liberation Sans"
             id="tspan135">12</tspan></text>
      </g>
      <g
         id="g139"
         transform="matrix(1.500000,0.000000,0.000000,1.500000,-497.7223,-693.1287)">
        <text
           transform="translate(182.0610,203.7432)"
           id="text141"><tspan
             x="0"
             y="0"
             style="font-size:7.6500001;font-family:Liberation Sans"
             id="tspan142">14</tspan></text>
      </g>
      <g
         id="g146"
         transform="matrix(1.500000,0.000000,0.000000,1.500000,-497.7223,-693.1287)">
        <text
           transform="translate(112.3516,216.8628)"
           id="text148"><tspan
             x="0"
             y="0"
             style="font-size:7.6500001;font-family:Liberation Sans"
             id="tspan149">t (s)</tspan></text>
      </g>
      <path
         style="fill:none;stroke:#000000;stroke-linecap:square;stroke-miterlimit:1.0000000"
         d="M -422.78534,-412.94820 C -399.78134,-470.80770 -366.40784,-554.37120 -337.12934,-582.95220 C -307.85084,-611.53320 -284.34284,-619.69620 -200.77784,-619.69620"
         id="path153" />
      <g
         id="g155"
         transform="matrix(1.500000,0.000000,0.000000,1.500000,-497.7223,-693.1287)">
        <text
           transform="matrix(0.000000,-1.000000,1.000000,0.000000,9.000000,135.2075)"
           id="text157"><tspan
             x="0"
             y="0"
             style="font-size:7.6500001;font-family:Liberation Sans"
             id="tspan158">v (m/s)</tspan></text>
      </g>
      <circle
         cx="79.905998"
         cy="117.18800"
         r="2.7579999"
         id="circle162"
         sodipodi:cx="79.905998"
         sodipodi:cy="117.18800"
         sodipodi:rx="2.7579999"
         sodipodi:ry="2.7579999"
         transform="matrix(1.500000,0.000000,0.000000,1.500000,-497.7223,-693.1287)" />
      <circle
         cx="119.65600"
         cy="63.242001"
         r="2.7579999"
         id="circle164"
         sodipodi:cx="119.65600"
         sodipodi:cy="63.242001"
         sodipodi:rx="2.7579999"
         sodipodi:ry="2.7579999"
         transform="matrix(1.500000,0.000000,0.000000,1.500000,-497.7223,-693.1287)" />
      <line
         style="fill:none;stroke:#000000;stroke-width:0.75000000"
         x1="-287.44183"
         y1="-617.75372"
         x2="-337.50433"
         y2="-587.94122"
         id="line166" />
      <circle
         style="fill:none;stroke:#000000"
         cx="139.53101"
         cy="50.625000"
         r="2.7579999"
         id="circle168"
         sodipodi:cx="139.53101"
         sodipodi:cy="50.625000"
         sodipodi:rx="2.7579999"
         sodipodi:ry="2.7579999"
         transform="matrix(1.500000,0.000000,0.000000,1.500000,-497.7223,-693.1287)" />
      <line
         style="fill:none;stroke:#000000;stroke-width:0.75000000"
         x1="-346.50433"
         y1="-584.00372"
         x2="-395.44183"
         y2="-484.44119"
         id="line170" />
      <circle
         style="fill:none;stroke:#000000"
         cx="100.67900"
         cy="72.750000"
         r="2.7579999"
         id="circle172"
         sodipodi:cx="100.67900"
         sodipodi:cy="72.750000"
         sodipodi:rx="2.7579999"
         sodipodi:ry="2.7579999"
         transform="matrix(1.500000,0.000000,0.000000,1.500000,-497.7223,-693.1287)" />
      <g
         id="g174"
         transform="matrix(1.500000,0.000000,0.000000,1.500000,-497.7223,-693.1287)">
        <text
           transform="translate(96.31150,171.7500)"
           id="text176"><tspan
             x="0"
             y="0"
             style="font-size:7.6500001;font-family:Liberation Sans"
             id="tspan177">(3.0 s, 28 m/s)</tspan></text>
      </g>
      <g
         id="g181"
         transform="matrix(1.500000,0.000000,0.000000,1.500000,-497.7223,-693.1287)">
        <text
           transform="translate(110.9365,141.7500)"
           id="text183"><tspan
             x="0"
             y="0"
             style="font-size:7.6500001;font-family:Liberation Sans"
             id="tspan184">(5.0 s, 42 m/s)</tspan></text>
      </g>
      <g
         id="g188"
         transform="matrix(1.500000,0.000000,0.000000,1.500000,-497.7223,-693.1287)">
        <text
           transform="translate(61.06150,16.87500)"
           id="text190"><tspan
             x="0"
             y="0"
             style="font-size:7.6500001;font-family:Liberation Sans"
             id="tspan191">(7.0 s, 47 m/s)</tspan></text>
      </g>
      <g
         id="g195"
         transform="matrix(1.500000,0.000000,0.000000,1.500000,-497.7223,-693.1287)">
        <text
           transform="translate(150.6865,9.000000)"
           id="text197"><tspan
             x="0"
             y="0"
             style="font-size:7.6500001;font-family:Liberation Sans"
             id="tspan198">(9.0 s, 52 m/s)</tspan></text>
      </g>
      <g
         id="g202"
         transform="matrix(1.500000,0.000000,0.000000,1.500000,-497.7223,-693.1287)">
        <path
           style="fill:none;stroke:#000000;stroke-width:0.50000000"
           d="M 94.718000,166.03100 C 71.843000,131.90600 101.84300,144.28100 84.968000,122.90600"
           id="path204" />
        <path
           d="M 83.146000,120.60100 C 84.407000,121.36900 86.159000,122.17400 87.547000,122.43400 L 85.208000,123.21200 L 83.908000,125.30600 C 83.977000,123.89600 83.601000,122.00500 83.146000,120.60100 z "
           id="path206" />
      </g>
      <g
         id="g209"
         transform="matrix(1.500000,0.000000,0.000000,1.500000,-497.7223,-693.1287)">
        <path
           style="fill:none;stroke:#000000;stroke-width:0.50000000"
           d="M 111.68700,132.75000 C 92.187000,95.250000 126.31200,110.25000 106.06200,82.125000"
           id="path211" />
        <path
           d="M 104.34300,79.736000 C 105.56900,80.560000 107.28400,81.441000 108.65900,81.763000 L 106.28800,82.437000 L 104.89700,84.472000 C 105.02700,83.066000 104.73500,81.160000 104.34300,79.736000 z "
           id="path213" />
      </g>
      <g
         id="g216"
         transform="matrix(1.500000,0.000000,0.000000,1.500000,-497.7223,-693.1287)">
        <path
           style="fill:none;stroke:#000000;stroke-width:0.50000000"
           d="M 103.43700,17.625000 C 96.687000,46.125000 125.56200,25.500000 120.68700,56.625000"
           id="path218" />
        <path
           d="M 120.23500,59.537000 C 119.94200,58.090000 119.34100,56.257000 118.58900,55.061000 L 120.75000,56.248000 L 123.17000,55.779000 C 122.08800,56.687000 120.95700,58.248000 120.23500,59.537000 z "
           id="path220" />
      </g>
      <g
         id="g223"
         transform="matrix(1.500000,0.000000,0.000000,1.500000,-497.7223,-693.1287)">
        <path
           style="fill:none;stroke:#000000;stroke-width:0.50000000"
           d="M 177.40600,10.500000 C 154.53100,60.375000 164.65600,11.625000 142.53100,43.875000"
           id="path225" />
        <path
           d="M 140.86600,46.297000 C 141.22500,44.865000 141.47400,42.953000 141.31200,41.550000 L 142.74900,43.553000 L 145.13500,44.173000 C 143.76700,44.526000 142.07200,45.446000 140.86600,46.297000 z "
           id="path227" />
      </g>
    </g>
  </g>
</svg>
