<?xml version="1.0" encoding="iso-8859-1"?>
<!-- Generator: Adobe Illustrator 11 Build 196, SVG Export Plug-In . SVG Version: 6.0.0 Build 78)  -->
<!DOCTYPE svg PUBLIC "-//W3C//DTD SVG 1.0//EN"    "http://www.w3.org/TR/2001/REC-SVG-20010904/DTD/svg10.dtd" [
	<!ENTITY ns_flows "http://ns.adobe.com/Flows/1.0/">
	<!ENTITY ns_svg "http://www.w3.org/2000/svg">
	<!ENTITY ns_xlink "http://www.w3.org/1999/xlink">
]>
<svg  
	 width="133.667" height="142.238" viewBox="0 0 133.667 142.238"
	 style="overflow:visible;enable-background:new 0 0 133.667 142.238" xml:space="preserve">
	<style type="text/css">
	
	</style>
	<g id="Layer_1">
		<g>
			<text transform="matrix(1 0 0 1 49.2979 130.2217)"><tspan x="0" y="0" style="font-family:'Symbol'; font-size:9;">&#x2206;</tspan></text>
			<text transform="matrix(1 0 0 1 54.8057 130.2217)"><tspan x="0" y="0" style="font-family:Liberation Sans; font-size:7.650000;">x</tspan></text>
		</g>
		<g>
			<text transform="matrix(1 0 0 1 10.6279 89.6138)"><tspan x="0" y="0" style="font-family:'Symbol'; font-size:9;">&#x2206;</tspan></text>
			<text transform="matrix(1 0 0 1 16.1357 89.6138)"><tspan x="0" y="0" style="font-family:Liberation Sans; font-size:7.650000;">y</tspan></text>
		</g>
		<polygon style="fill:#B3E2B3;stroke:#000000;stroke-width:0.25;" points="132.679,2.581 1.04,2.581 1.04,55.891 7.28,54.331 
			15.859,58.231 22.099,67.591 19.759,77.73 25.999,80.07 34.579,76.95 45.499,83.19 57.198,90.21 72.798,105.81 86.252,123.75 
			132.679,123.75 "/>
		<rect x="1.04" style="fill:#B3E2B3;" width="131.816" height="3.9"/> 
		<rect y="0.907" style="fill:#B3E2B3;" width="1.56" height="52.292"/> 
		<rect x="132.107" y="0.852" style="fill:#B3E2B3;" width="1.56" height="123.541"/> 
		<polygon style="fill:#B4B4B4;" points="30.863,37.669 25.403,40.79 15.264,32.21 3.564,38.45 16.824,45.47 9.024,52.489 
			7.843,54.222 16.043,57.949 22.283,67.309 19.943,77.449 26.184,79.789 34.763,76.668 42.705,81.207 44.903,79.009 48.023,64.969 
			36.323,57.169 42.563,52.489 51.143,55.609 52.703,46.25 34.763,43.129 "/>
		<circle cx="23.241" cy="58.002" r="2.758"/> 
		<g>
			<text transform="matrix(1 0 0 1 22.2563 23.8882)"><tspan x="0" y="0" style="font-family:Liberation Sans; font-size:7.650000;">Los</tspan></text>
			<text transform="matrix(1 0 0 1 22.2563 34.8882)"><tspan x="0" y="0" style="font-family:Liberation Sans; font-size:7.650000;">Angeles</tspan></text>
		</g>
		<polygon style="fill:#B4B4B4;" points="84.735,121.159 87.485,119.784 89.36,120.972 91.61,121.284 91.985,123.034 
			91.923,123.597 86.252,123.75 84.423,121.347 "/>
		<circle cx="86.252" cy="120.992" r="2.758"/> 
		<g>
			<line style="fill:none;stroke:#000000;" x1="85.317" y1="120.155" x2="26.817" y2="61.155"/>
			<path d="M22.568,56.87c2.748,1.275,6.505,2.511,9.394,2.721l-4.587,2.127l-2.166,4.569C25.023,63.396,23.819,59.627,22.568,56.87
				z"/>
		</g>
		<g>
			<line style="fill:none;stroke:#000000;" x1="88.672" y1="120.507" x2="28.923" y2="120.507"/>
			<path d="M22.888,120.507c2.839-1.054,6.363-2.852,8.547-4.755l-1.72,4.755l1.72,4.755
				C29.251,123.359,25.727,121.561,22.888,120.507z"/>
		</g>
		<g>
			<line style="fill:none;stroke:#000000;" x1="22.923" y1="120.222" x2="22.923" y2="62.722"/>
			<path d="M22.923,56.687c1.054,2.839,2.852,6.363,4.755,8.547l-4.755-1.72l-4.754,1.72C20.071,63.05,21.87,59.526,22.923,56.687z"
				/>
		</g>
		<g>
			<text transform="matrix(1 0 0 1 55.4644 83.3882)"><tspan x="0" y="0" style="font-family:Liberation Sans; font-size:7.650000;">|</tspan></text>
			<text transform="matrix(1 0 0 1 57.8022 83.3882)"><tspan x="0" y="0" style="font-family:'Symbol'; font-size:9;">&#x2206;</tspan></text>
			<text transform="matrix(1 0 0 1 63.3105 83.3882)"><tspan x="0" y="0" style="font-family:Liberation Sans-Bold'; font-size:7.650000;">r</tspan></text>
			<text transform="matrix(1 0 0 1 66.8125 83.3882)"><tspan x="0" y="0" style="font-family:Liberation Sans; font-size:7.650000;">|</tspan></text>
		</g>
		
			<line style="fill:none;stroke:#000000;stroke-width:0.5;stroke-dasharray:2;" x1="85.423" y1="120.749" x2="109.423" y2="120.749"/>
		<g>
			<text transform="matrix(1 0 0 1 90.9229 110.2217)"><tspan x="0" y="0" style="font-family:'Symbol'; font-size:9;">&#x3B8;</tspan></text>
		</g>
		<g>
			<text transform="matrix(1 0 0 1 84.4229 133.2217)"><tspan x="0" y="0" style="font-family:Liberation Sans; font-size:7.650000;">San Diego</tspan></text>
		</g>
		<path style="fill:none;stroke:#000000;" d="M96.423,121.222c0-9-10-14-18-9"/>
		<g>
			<text transform="matrix(1 0 0 1 34.9229 138.2217)"><tspan x="0" y="0" style="font-family:Liberation Sans; font-size:7.650000;">(negative)</tspan></text>
		</g>
	</g>
</svg>
