<?xml version="1.0" encoding="UTF-8" standalone="no"?>
<!-- Generator: Adobe Illustrator 11 Build 196, SVG Export Plug-In . SVG Version: 6.0.0 Build 78)  -->

<svg
   xmlns:dc="http://purl.org/dc/elements/1.1/"
   xmlns:cc="http://creativecommons.org/ns#"
   xmlns:rdf="http://www.w3.org/1999/02/22-rdf-syntax-ns#"
   xmlns:svg="http://www.w3.org/2000/svg"
   xmlns="http://www.w3.org/2000/svg"
   xmlns:sodipodi="http://sodipodi.sourceforge.net/DTD/sodipodi-0.dtd"
   xmlns:inkscape="http://www.inkscape.org/namespaces/inkscape"
   width="369.717"
   height="94.665"
   viewBox="0 0 369.717 94.665"
   style="overflow:visible;enable-background:new 0 0 369.717 94.665"
   xml:space="preserve"
   id="svg1"
   sodipodi:version="0.32"
   sodipodi:docname="eg-tractor.svg"
   version="1.1"><defs
     id="defs78" /><metadata
     id="metadata77"><rdf:RDF><cc:Work
         rdf:about=""><dc:format>image/svg+xml</dc:format><dc:type
           rdf:resource="http://purl.org/dc/dcmitype/StillImage" /></cc:Work></rdf:RDF></metadata><sodipodi:namedview
     id="base"
     pagecolor="#ffffff"
     bordercolor="#666666"
     borderopacity="1.0"
     inkscape:pageopacity="0.0"
     inkscape:pageshadow="2"
     inkscape:zoom="0.77752191"
     inkscape:cx="81.958589"
     inkscape:cy="20.192696"
     inkscape:window-width="1280"
     inkscape:window-height="996"
     inkscape:window-x="0"
     inkscape:window-y="0"
     inkscape:current-layer="svg1"
     showgrid="false"
     inkscape:window-maximized="1" /><path
     style="fill:#e9e9e9;fill-opacity:1.0000000;stroke:#000000"
     d="M 99.458686,61.947548 L 117.88669,39.219548 C 112.41569,34.584548 105.34069,31.783548 97.608686,31.783548 C 86.490686,31.783548 76.729686,37.568548 71.150686,46.286548 L 99.458686,61.947548 z "
     id="path170" /><circle
     style="stroke:#000000"
     cx="11.530000"
     cy="83.134003"
     r="11.031000"
     id="circle169"
     sodipodi:cx="11.530000"
     sodipodi:cy="83.134003"
     sodipodi:rx="11.031000"
     sodipodi:ry="11.031000"
     transform="translate(11.96464,-10.71122)" /><circle
     cx="87.380997"
     cy="68.327003"
     r="26.164000"
     id="circle167"
     sodipodi:cx="87.380997"
     sodipodi:cy="68.327003"
     sodipodi:rx="26.164000"
     sodipodi:ry="26.164000"
     transform="translate(10.64838,-7.418678)"
     style="stroke:none;stroke-opacity:1;fill:#353535;fill-opacity:1" /><path
     style="fill:#999999;fill-opacity:1.0000000;fill-rule:evenodd;stroke:none;stroke-width:0.25000000pt;stroke-linecap:butt;stroke-linejoin:miter;stroke-opacity:1.0000000;"
     d="M 61.210152,20.206619 L 59.365462,48.044662 L 70.098202,41.839797 L 67.247318,35.970330 L 69.092008,21.548212 L 65.905725,20.877415 L 65.067230,16.684939 L 67.582716,12.324764 L 67.582716,8.2999862 L 58.191569,7.6291900 L 56.849976,12.492463 L 59.030064,12.660162 L 60.036259,15.846444 L 61.880948,16.852638 L 63.054842,20.709716 L 61.210152,20.206619 z "
     id="path89" /><rect
     x="151.38100"
     y="19.070999"
     style="fill:#b4b4b4;stroke:#000000"
     width="10.000000"
     height="54.000000"
     id="rect4" /><rect
     x="43.117001"
     y="52.890999"
     style="fill:#dcdcdc"
     width="22.625999"
     height="14.300000"
     id="rect10" /><path
     style="fill:#b4b4b4;stroke:#000000"
     d="M 59.677000,49.212000 L 50.524000,50.138000 C 50.741000,52.281000 52.654000,53.843000 54.797000,53.625000 L 69.025000,52.185000 C 71.045000,51.980000 72.547000,50.268000 72.530000,48.278000 C 75.649000,32.660000 62.047000,45.120000 59.677000,49.212000 z "
     id="path12" /><rect
     x="14.130000"
     y="51.265999"
     style="fill:#dcdcdc"
     width="29.250000"
     height="23.399000"
     id="rect14" /><rect
     x="73.045578"
     y="-55.966293"
     transform="matrix(0.144599,0.989490,-0.989490,0.144599,0.000000,0.000000)"
     style="fill:#808080;stroke:#000000"
     width="4.8750472"
     height="45.824448"
     id="rect16" /><rect
     x="16.280806"
     y="56.771431"
     transform="matrix(0.999040,-4.380176e-2,4.380176e-2,0.999040,0.000000,0.000000)"
     style="fill:#808080;stroke:#000000"
     width="6.2397485"
     height="10.139592"
     id="rect18" /><path
     style="stroke:#000000;fill:#353535;fill-opacity:1"
     d="M 37.530000,45.416000 L 9.2560000,45.416000 C 4.9480000,45.416000 1.4560000,48.908000 1.4560000,53.216000 L 1.4560000,55.166000 L 4.3800000,55.166000 L 4.3800000,75.874000 C 5.7160000,76.946000 7.4090000,77.590000 9.2550000,77.590000 L 15.105000,77.590000 L 15.105000,63.940000 C 15.105000,59.632000 18.597000,56.140000 22.905000,56.140000 L 45.330000,56.140000 L 45.330000,53.215000 C 45.330000,48.908000 41.838000,45.416000 37.530000,45.416000 z "
     id="path20" /><circle
     style="stroke:#2b2b2b;stroke-opacity:1;fill:#353535;fill-opacity:1"
     cx="11.53"
     cy="83.134"
     r="11.031"
     id="circle22" /><circle
     style="fill:#ffffff;stroke:#000000;"
     cx="11.53"
     cy="83.135"
     r="7.942"
     id="circle24" /><rect
     x="57.667397"
     y="-43.707630"
     transform="matrix(-9.740439e-2,0.995245,-0.995245,-9.740439e-2,0.000000,0.000000)"
     style="fill:#808080;stroke:#000000"
     width="7.7996483"
     height="12.674429"
     id="rect26" /><path
     style="fill:#b4b4b4;stroke:#000000"
     d="M 67.105000,73.040000 L 47.768000,73.040000 C 44.798000,73.040000 42.278000,71.139000 41.340000,68.490000 L 37.933000,68.490000 C 37.887000,68.809000 37.856000,69.133000 37.856000,69.465000 C 37.856000,73.234000 40.911000,76.290000 44.681000,76.290000 L 67.106000,76.290000 L 67.106000,73.040000 L 67.105000,73.040000 z "
     id="path28" /><path
     style="fill:#e9e9e9;stroke:#000000;fill-opacity:1.0000000;"
     d="M 88.871000,68.532000 L 107.29900,45.804000 C 101.82800,41.169000 94.753000,38.368000 87.021000,38.368000 C 75.903000,38.368000 66.142000,44.153000 60.563000,52.871000 L 88.871000,68.532000 z "
     id="path30" /><circle
     cx="87.381"
     cy="68.327"
     r="26.164"
     id="circle32"
     style="fill:#353535;fill-opacity:1" /><circle
     style="fill:#ffffff;"
     cx="87.381"
     cy="68.326"
     r="16.745"
     id="circle34" /><circle
     style="fill:none;stroke:#000000;"
     cx="87.381"
     cy="68.327"
     r="5.861"
     id="circle36" /><line
     style="fill:#ffffff;stroke:#000000;stroke-width:2.0000000"
     x1="45.980000"
     y1="44.116001"
     x2="43.380001"
     y2="51.265999"
     id="line38" /><ellipse
     transform="matrix(-0.196000,0.980600,-0.980600,-0.196000,98.45110,4.745600)"
     style="fill:#ffffff;stroke:#000000;stroke-width:2.0000000;"
     cx="47.28"
     cy="42.734"
     rx="3.447"
     ry="11.031"
     id="ellipse40" /><path
     d="M 52.696000,9.3570000 C 55.290000,8.9660000 57.884000,9.0760000 60.524000,9.4510000 C 62.852000,9.7790000 65.133000,9.6070000 67.430000,9.6230000 L 67.696000,9.6230000 C 67.977000,9.6230000 68.243000,9.5290000 68.446000,9.3420000 L 69.102000,8.6230000 C 69.399000,7.4670000 69.883000,6.2480000 69.461000,5.0760000 C 68.492000,2.4200000 65.680000,1.3100000 63.305000,0.13800000 C 62.883000,-0.065000000 62.367000,-0.018000000 61.867000,0.10700000 C 58.883000,0.79500000 58.164000,3.7320000 57.508000,6.2160000 C 57.336000,6.8100000 57.680000,7.4350000 58.274000,7.6070000 C 58.868000,7.7790000 59.493000,7.4350000 59.665000,6.8260000 C 60.212000,5.0450000 60.556000,3.1540000 62.306000,2.1070000 C 64.134000,3.3410000 67.790000,4.1540000 67.228000,6.9820000 L 66.962000,7.6540000 L 67.696000,7.3730000 L 67.040000,7.3730000 C 64.056000,7.3890000 61.102000,7.2950000 58.087000,6.9510000 C 56.149000,6.7480000 54.212000,6.7630000 52.290000,7.1390000 C 51.681000,7.2480000 51.274000,7.8420000 51.384000,8.4510000 C 51.494000,9.0600000 52.086000,9.4670000 52.696000,9.3570000 L 52.696000,9.3570000 z "
     id="path51" /><path
     d="M 66.696000,10.842000 C 66.055000,11.967000 66.618000,13.608000 65.430000,14.483000 C 64.961000,14.889000 64.914000,15.592000 65.321000,16.061000 C 65.728000,16.530000 66.430000,16.577000 66.899000,16.170000 C 68.477000,15.186000 68.211000,13.186000 68.790000,11.654000 C 69.009000,11.060000 68.728000,10.420000 68.149000,10.201000 C 67.555000,9.9820000 66.915000,10.264000 66.696000,10.842000 L 66.696000,10.842000 z "
     id="path53" /><path
     d="M 56.696000,9.2320000 C 56.368000,10.138000 55.930000,11.029000 55.884000,12.013000 L 55.868000,12.513000 L 56.227000,11.685000 L 55.977000,11.919000 C 55.743000,12.138000 55.618000,12.435000 55.618000,12.747000 C 55.618000,13.372000 56.118000,13.872000 56.743000,13.872000 L 57.087000,13.872000 C 57.634000,13.872000 58.196000,13.872000 58.743000,13.872000 L 59.055000,13.872000 L 58.086000,13.310000 L 58.117000,13.060000 C 57.570000,15.498000 59.414000,17.216000 61.398000,18.263000 C 61.882000,18.654000 62.601000,18.575000 62.976000,18.091000 C 63.367000,17.607000 63.288000,16.888000 62.804000,16.497000 C 61.460000,15.685000 59.960000,14.841000 60.320000,13.013000 L 60.039000,12.185000 C 59.836000,11.841000 59.461000,11.623000 59.055000,11.623000 L 58.164000,11.623000 C 57.930000,11.623000 57.680000,11.623000 57.445000,11.623000 L 56.742000,11.623000 L 57.508000,13.576000 L 57.758000,13.342000 C 57.977000,13.139000 58.117000,12.842000 58.117000,12.530000 L 57.976000,12.171000 C 58.132000,11.421000 58.804000,10.921000 58.648000,10.030000 C 58.695000,10.046000 58.742000,10.046000 58.789000,10.061000 C 59.023000,9.4830000 58.727000,8.8270000 58.148000,8.6080000 C 57.571000,8.3730000 56.930000,8.6540000 56.696000,9.2320000 L 56.696000,9.2320000 z "
     id="path55" /><path
     style="fill:none;stroke:#000000"
     d="M 105.38100,53.071000 C 105.38100,53.071000 214.38100,53.071000 227.38100,53.071000 C 240.38100,53.071000 240.38100,41.071000 232.38100,41.071000 C 224.38100,41.071000 167.38100,40.071000 167.38100,40.071000 C 167.38100,40.071000 150.38100,53.071000 150.38100,41.071000"
     id="path58" /><ellipse
     style="fill:#b4b4b4;stroke:#000000;"
     cx="230.631"
     cy="46.571"
     rx="7.778"
     ry="6.01"
     id="ellipse60" /><path
     style="fill:#b4b4b4;stroke:#000000"
     d="M 322.04700,42.071000 C 322.04700,42.071000 331.38000,66.738000 329.38000,71.071000 C 327.38000,75.404000 328.38000,74.404000 328.38000,74.404000 L 336.71300,76.071000 L 337.71300,71.738000 C 337.71300,71.738000 342.71300,74.071000 348.71300,72.738000 C 354.71300,71.405000 346.71300,66.738000 346.71300,66.738000 L 368.04600,70.071000 L 356.71300,60.404000 L 348.04600,54.404000 C 348.04600,54.404000 343.04600,42.071000 342.37900,34.404000 C 341.71400,26.738000 323.71400,36.405000 322.04700,42.071000 z "
     id="path62" /><path
     style="fill:none;stroke:#000000;stroke-width:0.50000000"
     d="M 340.38100,37.071000 C 336.38100,43.071000 325.38100,46.404000 322.04800,42.071000"
     id="path64" /><line
     style="fill:none;stroke:#000000;stroke-width:0.50000000"
     x1="346.04700"
     y1="63.737999"
     x2="338.71399"
     y2="52.404999"
     id="line66" /><path
     style="fill:none;stroke:#000000;stroke-width:0.50000000"
     d="M 336.38100,68.738000 C 336.04800,65.405000 334.38100,58.738000 334.38100,58.738000"
     id="path68" /><line
     style="fill:none;stroke:#000000"
     x1="311.71399"
     y1="46.070999"
     x2="321.71399"
     y2="44.737999"
     id="line70" /><path
     style="fill:none;stroke:#000000"
     d="M 230.63000,46.571000 L 308.71400,46.571000 C 308.71400,46.571000 356.38100,57.404000 343.71400,41.404000"
     id="path72" /><line
     style="fill:none;stroke:#000000"
     x1="165.71400"
     y1="40.070999"
     x2="161.71400"
     y2="38.070999"
     id="line74" /><path
     sodipodi:type="arc"
     style="fill:#b4b4b4;fill-opacity:1.0000000;stroke:#000000;stroke-width:0.87500000;stroke-linecap:butt;stroke-linejoin:miter;stroke-miterlimit:4.0000000;stroke-dashoffset:0.0000000;stroke-opacity:1.0000000;"
     id="path165"
     sodipodi:cx="156.29552"
     sodipodi:cy="19.200424"
     sodipodi:rx="4.6955733"
     sodipodi:ry="2.1800878"
     d="M 160.99109 19.200424 A 4.6955733 2.1800878 0 1 1  151.59994,19.200424 A 4.6955733 2.1800878 0 1 1  160.99109 19.200424 z" /><path
     style="fill:#ffffff;fill-opacity:1.0000000;fill-rule:evenodd;stroke:none;stroke-width:0.25000000pt;stroke-linecap:butt;stroke-linejoin:miter;stroke-opacity:1.0000000"
     d="M 150.59375,69.677841 C 155.45702,72.528725 153.61233,72.361026 156.96631,72.528725 C 160.32029,72.696424 163.17118,69.342443 163.17118,69.342443 L 167.69905,69.510142 L 167.19596,73.534919 L 149.75525,75.211910 L 145.89818,73.702618 L 150.59375,69.677841 z "
     id="path166" /><path
     style="color:#000000;fill:#999999;fill-opacity:1;stroke:none;stroke-width:1;marker:none;visibility:visible;display:inline;overflow:visible;enable-background:accumulate"
     d="m 58.504174,27.437838 c 0,0 -1.955151,1.284183 -3.308718,6.467043 -0.409307,1.567252 -9.926159,1.503964 -9.926159,1.503964 l 0.751982,5.263871 11.730914,-0.601585 4.211097,-5.865457 2.406342,-10.076555 -2.105549,-2.85753 z"
     id="path3020"
     inkscape:connector-curvature="0"
     transform="translate(-3.4612137e-6,0)"
     sodipodi:nodetypes="csccccccc" /><path
     style="color:#000000;fill:#999999;fill-opacity:1;stroke:none;stroke-width:1;marker:none;visibility:visible;display:inline;overflow:visible;enable-background:accumulate"
     d="m 63.768046,31.197747 -7.219024,9.625365 -10.377347,3.30872 0.300793,3.308719 13.53567,-2.255945 2.85753,-5.564664 z"
     id="path3790"
     inkscape:connector-curvature="0"
     transform="translate(-3.4612137e-6,0)"
     sodipodi:nodetypes="ccccccc" /><path
     style="color:#000000;fill:#999999;fill-opacity:1;stroke:none;stroke-width:1;marker:none;visibility:visible;display:inline;overflow:visible;enable-background:accumulate"
     d="m 59.742838,44.493205 -13.518939,7.389113 3.99925,16.462032 -3.069192,2.325146 1.674105,0.930059 6.198297,-2.165952 -2.277217,-13.516087 7.446743,-4.176133 z"
     id="path3792"
     inkscape:connector-curvature="0"
     transform="translate(-3.4612137e-6,0)"
     sodipodi:nodetypes="ccccccccc" /></svg>