<?xml version="1.0" encoding="iso-8859-1"?>
<!-- Generator: Adobe Illustrator 11 Build 196, SVG Export Plug-In . SVG Version: 6.0.0 Build 78)  -->
<!DOCTYPE svg PUBLIC "-//W3C//DTD SVG 1.0//EN"    "http://www.w3.org/TR/2001/REC-SVG-20010904/DTD/svg10.dtd" [
	<!ENTITY ns_flows "http://ns.adobe.com/Flows/1.0/">
	<!ENTITY ns_svg "http://www.w3.org/2000/svg">
	<!ENTITY ns_xlink "http://www.w3.org/1999/xlink">
]>
<svg  
	 width="147.401" height="244.417" viewBox="0 0 147.401 244.417"
	 style="overflow:visible;enable-background:new 0 0 147.401 244.417" xml:space="preserve">
	<g id="Layer_1">
		<rect x="33.628" y="185.993" style="fill:#FCFCFC;" width="85.877" height="58.424"/> 
		
			<radialGradient id="XMLID_6_" cx="86" cy="46.9912" r="33.7951" fx="86" fy="46.9912" gradientTransform="matrix(1.2 0 0 1.2 -14.2022 -24.4282)" gradientUnits="userSpaceOnUse">
			<stop  offset="0" style="stop-color:#F0F9FB"/>
			<stop  offset="1" style="stop-color:#D6ECF1"/>
			<midPointStop  offset="0" style="stop-color:#F0F9FB"/>
			<midPointStop  offset="0.5" style="stop-color:#F0F9FB"/>
			<midPointStop  offset="1" style="stop-color:#D6ECF1"/>
		</radialGradient>
		<rect x="30.028" style="fill:url(#XMLID_6_);" width="85.877" height="150.756"/> 
		<rect x="26.429" y="150.463" style="fill:#F2F2F2;" width="85.876" height="36.939"/> 
		<path style="fill:#EEDFD2;" d="M71.884,30.848l-0.5,4.7l-1.2,2.8l-0.6,2.4l0.8,2.2l0.6-0.7c0,0,2.6-0.2,2.6,0.1
			c0,0.3,0.2,8.4,0.2,8.4l-1.9,5.5l-11.1,2.3l-4.3,0.8l-3.6,1.9l-1.1,1.1l-3-2.1l-2.8-5.4l0.7-3.2l3.9-1.1l3.9-2.3l2-4.4l-0.1-3.2
			l-1.5-5.1l-0.8-1.7l-2.3-1.8l-0.9-2.4l0.4-0.7l4.8-6.5L71.884,30.848z"/>
		<path style="fill:#E8D3C1;" d="M71.959,29.595c-0.267,0-0.478,0.211-0.478,0.479c-0.122,0.794-0.111,1.588-0.173,2.39
			c-0.239-0.092-0.51,0.012-0.615,0.249l-0.117,0.281c-0.155,0.615-0.29,1.247-0.451,1.868c-0.055,0.021-0.108,0.049-0.154,0.091
			c-0.656,0.534-1.13,1.233-1.336,2.091c-0.272,1.144-1.519,1.289-2.396,1.753l-0.305,0.23c-0.046,0.039-0.082,0.087-0.11,0.138
			c-0.629,0.093-1.261,0.165-1.896,0.189c-0.562,0.023-1.134-0.094-1.701-0.178l-0.31,0.042c-0.038,0.009-0.07,0.023-0.099,0.042
			c-0.229,0.136-0.305,0.427-0.173,0.656l0.103,0.155c0.361,0.352,0.839,0.609,1.336,0.652c1.941,0.178,3.905,0.056,5.817-0.328
			l0.3-0.099c0.08-0.033,0.15-0.084,0.202-0.15l0.146-0.178c0.347-0.474,0.867-0.825,1.083-1.369
			c0.291-0.736,0.492-1.486,0.783-2.236c0.459-1.2,0.712-2.442,0.834-3.722c0.08-0.862,0.08-1.711,0.188-2.568
			C72.438,29.806,72.227,29.595,71.959,29.595z"/>
		<polygon style="fill:#E1C2AC;" points="71.285,180.748 69.685,176.548 68.884,173.548 69.084,169.548 68.484,167.748 
			66.685,162.348 64.884,157.548 62.884,154.548 61.484,149.748 60.285,145.748 59.884,140.948 59.084,137.948 58.484,132.348 
			58.084,126.348 57.884,121.548 57.884,117.148 58.084,113.348 86.285,115.948 77.884,177.748 "/>
		<polyline style="fill:#E8D3C1;" points="95.035,104.248 73.984,116.548 72.785,146.548 74.785,167.748 82.035,168.647 
			82.234,165.248 84.435,159.248 86.234,150.448 87.035,145.848 87.234,140.648 86.234,136.248 86.435,131.848 89.834,129.448 
			94.234,126.248 96.634,124.048 98.435,120.648 99.034,117.248 98.834,113.248 98.035,111.248 97.435,107.248 96.035,104.848 "/>
		<polygon style="fill:#E0C0AB;" points="83.185,174.348 84.584,178.548 85.584,183.548 86.785,188.748 88.384,193.547 
			89.584,197.348 90.584,199.547 84.185,202.147 82.584,199.748 81.584,196.947 69.785,179.548 "/>
		<path style="fill:#E5CDBA;" d="M48.685,54.073c1.888-1,3.562-2.1,5.413-3.375c3.7-2.525,7.287-4.4,11.1-6.3l0.437-0.237
			l-0.4-1.125l-0.4,0.2c-4.062,2.587-7.887,5.075-12.038,7.988c-0.987,0.688-1.887,1.35-2.725,2.162l-0.238,0.15
			c-0.25,0.162-0.35,0.475-0.225,0.75c0.138,0.3,0.488,0.438,0.788,0.3l0.55-0.263c4.987-3.35,10.5-5.75,15.587-8.9l0.35-0.325
			l-0.937-0.738l-0.025,0.087c-3.95,3.638-9.562,4.788-13.4,8.575l-0.487,0.688c-0.113,0.138-0.163,0.312-0.125,0.487
			c0.062,0.325,0.387,0.538,0.712,0.475l0.638-0.188c4.4-3.45,9.425-6.012,14.6-8.087l0.588-0.225l-0.725-0.887l-0.075,0.15
			c-4.675,4.112-9.375,8.188-14.025,12.325l-0.337,0.3l0.95,0.688l0.038-0.113c2.337-2.925,5.188-5.387,8.388-7.312l0.6-0.262
			l-0.762-0.25l0.163,0.262l-0.062-0.462l-0.113,0.438c-0.825,1.925-2.15,3.538-3.175,5.35l-0.25,0.413
			c-0.15,0.237-0.112,0.538,0.075,0.737c0.238,0.238,0.613,0.238,0.85,0.013l0.888-0.863c2.125-2.25,4.837-3.762,7.262-5.625
			l0.238-0.175l-0.825-0.125l0.15,0.2l-0.025-0.688l-0.212,0.337c-0.95,1.262-2.137,2.337-2.925,3.725l-0.188,0.262
			c-0.163,0.25-0.125,0.575,0.087,0.775c0.237,0.225,0.625,0.213,0.85-0.025l0.45-0.475c0.812-0.65,1.575-1.35,2.325-2.075
			c-0.038,0.1-0.087,0.212-0.125,0.312c0.337,0,0.612-0.263,0.612-0.587c0.013-0.338-0.25-0.613-0.587-0.613
			c-1-0.312-1.375,0.888-2.1,1.3l-1.438,1.312l0.925,0.75l0.475-0.713c0.562-0.938,1.325-1.7,2.05-2.512l0.812-1.125
			c0.125-0.212,0.125-0.488-0.025-0.688l-0.15-0.2c-0.2-0.262-0.575-0.312-0.837-0.125l-0.637,0.462
			c-2,1.488-4.113,2.812-5.988,4.45l-1.9,1.862l0.925,0.75l0.262-0.412c0.775-1.438,1.8-2.713,2.562-4.15l0.85-1.95
			c0.05-0.15,0.025-0.325-0.05-0.462l-0.163-0.263c-0.15-0.263-0.475-0.375-0.75-0.25l-0.7,0.3
			c-3.225,1.913-6.012,4.425-8.475,7.225l-0.475,0.775c-0.087,0.213-0.05,0.463,0.1,0.638c0.225,0.25,0.6,0.275,0.85,0.05
			l0.337-0.287c4.013-3.613,8.125-7.113,12.15-10.7l2.15-2.013c0.112-0.162,0.137-0.375,0.062-0.562
			c-0.125-0.3-0.475-0.45-0.788-0.325l-0.575,0.225c-5.012,2-9.887,4.45-14.2,7.737l-0.837,0.475l0.625,0.9l0.313-0.475
			c3.7-3.587,8.95-4.788,12.875-8.1l0.775-0.825c0.15-0.238,0.112-0.55-0.1-0.75c-0.238-0.238-0.613-0.225-0.85,0.012l-0.362,0.263
			c-4.875,2.962-10.025,5.425-14.888,8.413l-0.862,0.55l0.575,1.05l0.5-0.4c4.238-3.65,9.325-6.075,13.688-9.562l1.075-0.45
			l-0.625-1.013l-0.337,0.163c-3.938,1.925-7.613,3.888-11.425,6.475c-1.812,1.237-3.425,2.3-5.275,3.275
			c-0.288,0.175-0.387,0.538-0.225,0.825C48.035,54.135,48.397,54.235,48.685,54.073L48.685,54.073z"/>
		<ellipse style="fill:#E8D3C1;" cx="63.334" cy="27.785" rx="8.697" ry="12.038"/> 
		<g>
			<polygon style="fill:#FFFFA8;" points="50.685,71.51 50.984,71.123 50.685,71.15 "/>
			<polygon style="fill:#FFFFA8;" points="115.935,87.973 115.534,87.173 113.534,86.973 114.134,84.973 112.195,85.569 
				112.134,84.773 110.134,83.373 104.134,85.573 103.535,82.773 92.535,89.373 92.131,89.562 90.884,90.298 90.509,90.598 
				89.135,87.635 88.785,86.723 87.734,81.323 87.734,75.173 87.285,69.473 86.685,65.573 85.739,64.857 88.634,64.973 
				93.435,63.623 98.534,60.023 97.935,56.873 96.584,52.673 93.884,48.923 91.484,45.323 87.734,39.623 85.035,38.273 
				81.435,38.423 77.834,41.123 74.535,42.023 73.72,41.96 73.935,43.223 73.935,47.873 74.084,51.623 72.134,56.273 71.924,56.705 
				70.785,56.873 64.484,57.773 59.234,59.123 60.435,61.673 61.978,64.348 61.334,64.823 59.384,65.648 57.959,65.723 
				51.584,63.373 51.584,62.873 48.435,60.773 47.234,57.773 46.035,52.073 46.484,51.323 43.935,51.623 39.135,52.223 
				35.984,54.173 34.484,59.123 32.535,62.123 29.984,67.523 26.385,74.273 23.984,77.873 22.785,82.373 23.685,86.573 
				25.785,88.973 30.285,88.523 34.635,86.423 38.234,83.423 40.635,80.573 41.685,79.373 42.233,79.218 38.16,72.848 
				39.959,72.098 42.285,70.748 45.209,68.723 47.459,67.898 48.959,67.673 50.984,68.123 52.935,69.398 52.259,70.448 
				50.984,71.123 51.959,71.873 51.81,72.773 50.685,73.493 50.685,74.129 51.209,74.798 51.134,75.698 49.92,76.247 49.935,76.298 
				50.228,76.957 51.584,76.573 51.584,77.723 53.834,83.273 55.035,87.023 55.634,92.423 56.535,95.273 55.535,94.973 
				52.935,94.373 49.535,95.573 46.734,96.173 49.935,98.573 50.135,100.373 46.535,101.773 43.134,103.173 40.935,103.973 
				42.935,104.573 41.135,105.173 37.535,106.173 35.334,106.773 38.734,107.173 43.535,105.973 47.535,106.573 43.535,106.973 
				41.334,107.973 43.935,108.173 42.935,108.973 38.935,109.973 40.535,110.173 44.935,109.773 43.134,111.573 46.734,110.773 
				50.135,111.973 50.935,110.173 52.935,108.973 55.334,109.373 57.935,107.973 57.734,111.973 57.935,112.773 60.134,113.573 
				63.134,115.173 65.734,116.973 68.935,118.773 71.134,120.773 73.935,122.773 83.334,111.573 84.734,109.173 86.535,106.573 
				89.935,104.973 93.134,104.573 96.134,104.773 110.935,104.573 110.734,102.973 107.935,102.373 114.935,102.173 
				108.734,100.773 98.734,98.973 92.734,97.173 102.935,98.573 106.334,98.973 109.334,97.173 109.334,94.773 99.534,93.573 
				108.334,93.173 115.534,94.773 115.935,92.373 117.134,90.773 "/>
		</g>
		<path style="fill:#E0C0AB;" d="M52.647,69.473l-1.95-1.275l-2.025-0.45l-1.5,0.225l-2.25,0.825l-2.925,2.025l-2.325,1.35
			l-1.8,0.75l0.073,0.117l-0.261,0.008v1.35l0.6,2.05l1.4,1.6l2.164,1.223l0.236,0.377l0.177-0.237l2.36,0.337h2.625l2.1-0.825
			l0.205-0.273l0.032-0.001l0.001-0.044l0.661-0.881l-0.578-1.301l0.005-0.12l1.173-0.53l0.075-0.9l-0.825-1.05l-0.355,0.676
			l0.02-0.524l1.76-1.126l0.15-0.9l-0.975-0.75l-0.113,0.146v-0.135l0.113-0.01l1.275-0.675L52.647,69.473z M42.411,79.211
			l0.204-0.272l0.549-0.023L42.411,79.211z"/>
		<polygon style="fill:#E0C0AB;" points="57.334,66.875 57.334,66.622 61.459,64.485 58.685,59.235 58.16,59.485 55.91,59.635 
			53.66,60.835 52.16,62.485 50.959,64.661 51.185,66.46 52.084,68.86 53.06,68.71 54.537,69.203 54.634,69.76 56.359,69.686 
			55.965,68.536 56.237,68.536 56.359,69.311 57.935,68.411 57.634,67.735 "/>
		<path style="stroke:#000000;stroke-width:0.36;" d="M70.834,20.398c0.75-3.6-0.499-4.89-1.95-5.55c-3.3-1.5-6.075-1.05-7.425-0.9
			c-1.35,0.15-6.225,1.95-6.975,3c-0.75,1.05-3.3,2.55-3.45,4.65s-0.45,5.1,0,6c0.45,0.9,3,0.75,3,0.75s0.15-3.15,0.45-3.9
			c0.3-0.75,2.7-4.2,3.6-4.8s3-1.8,3.45-2.25c0.45-0.45,2.7-0.9,3.75-0.9c1.05,0,4.2,2.55,4.2,2.55L70.834,20.398z"/>
		<polyline style="fill:none;stroke:#000000;stroke-width:0.36;" points="70.984,21.448 72.185,26.248 72.484,30.748 71.734,35.548 
			70.685,38.698 69.634,40.048 67.384,40.498 63.935,40.648 61.234,40.348 58.685,38.998 "/>
		<polyline style="fill:none;stroke:#000000;stroke-width:0.36;" points="52.984,29.698 51.334,28.348 50.584,29.098 50.885,31.648 
			52.535,33.748 53.884,34.348 "/>
		<polyline style="fill:none;stroke:#000000;stroke-width:0.36;" points="54.484,35.248 55.685,39.148 56.285,41.548 56.134,45.148 
			55.984,46.648 53.584,48.448 49.984,49.948 46.535,51.298 43.984,51.598 39.185,52.198 36.035,54.148 34.535,59.098 
			32.584,62.098 30.035,67.498 26.435,74.248 24.035,77.848 22.834,82.348 23.734,86.548 25.834,88.948 30.334,88.498 
			34.685,86.398 38.285,83.398 40.685,80.548 41.734,79.348 38.435,76.948 37.685,74.398 37.685,73.048 33.635,74.548 
			30.635,75.898 28.084,77.398 "/>
		<polyline style="fill:none;stroke:#000000;stroke-width:0.36;" points="66.785,24.448 66.785,26.098 67.384,27.748 67.685,28.648 
			"/>
		<polyline style="fill:none;stroke:#000000;stroke-width:0.36;" points="58.984,22.648 60.484,21.09 62.584,20.57 63.785,21.35 "/>
		<polyline style="fill:none;stroke:#000000;stroke-width:0.36;" points="67.685,21.598 69.035,21.448 70.685,22.498 "/>
		<polyline style="fill:none;stroke:#000000;stroke-width:0.36;" points="63.785,25.048 62.66,25.048 60.334,24.898 61.834,23.698 
			63.785,24.448 "/>
		<polyline style="fill:none;stroke:#000000;stroke-width:0.36;" points="68.134,25.048 69.554,25.428 70.834,25.798 70.234,24.148 
			69.185,23.998 68.134,24.598 "/>
		<polyline style="fill:none;stroke:#000000;stroke-width:0.36;" points="60.785,44.098 61.084,46.648 60.785,50.398 "/>
		<line style="fill:none;stroke:#000000;stroke-width:0.36;" x1="70.384" y1="40.198" x2="70.535" y2="43.648"/>
		<polyline style="fill:none;stroke:#000000;stroke-width:0.36;" points="86.734,65.548 87.334,69.448 87.785,75.148 87.785,81.298 
			88.834,86.698 90.334,90.598 "/>
		<polyline style="fill:none;stroke:#000000;stroke-width:0.36;" points="51.635,77.698 53.884,83.248 55.084,86.998 55.685,92.398 
			56.584,95.248 "/>
		<polyline style="fill:none;stroke:#000000;stroke-width:0.36;" points="51.635,62.848 48.484,60.748 47.285,57.748 46.084,52.048 
			"/>
		<polyline style="fill:none;stroke:#000000;stroke-width:0.36;" points="73.984,43.198 73.984,47.848 74.134,51.598 72.185,56.248 
			"/>
		<polyline style="fill:none;stroke:#000000;stroke-width:0.36;" points="58.384,59.323 56.134,59.473 53.884,60.673 52.385,62.323 
			51.185,64.498 51.41,66.298 52.31,68.698 53.285,68.548 "/>
		<polyline style="fill:none;stroke:#000000;stroke-width:0.36;" points="53.66,62.998 53.285,64.723 53.285,66.598 53.285,68.548 
			55.084,69.148 "/>
		<polyline style="fill:none;stroke:#000000;stroke-width:0.36;" points="61.384,64.798 59.435,65.623 58.009,65.698 "/>
		<polyline style="fill:none;stroke:#000000;stroke-width:0.36;" points="48.56,71.323 51.035,71.098 52.31,70.423 52.984,69.373 
			51.035,68.098 49.01,67.648 47.51,67.873 45.26,68.698 42.334,70.723 40.01,72.073 38.209,72.823 "/>
		<polyline style="fill:none;stroke:#000000;stroke-width:0.36;" points="51.035,71.098 52.01,71.848 51.859,72.748 49.984,73.948 
			48.709,74.098 "/>
		<polyline style="fill:none;stroke:#000000;stroke-width:0.36;" points="50.435,73.723 51.26,74.773 51.185,75.673 48.859,76.723 
			"/>
		<polyline style="fill:none;stroke:#000000;stroke-width:0.36;" points="49.984,76.273 50.584,77.623 49.685,78.823 47.584,79.648 
			44.959,79.648 42.334,79.273 "/>
		<polyline style="fill:none;stroke:#000000;stroke-width:0.36;" points="54.785,64.273 54.334,66.598 54.859,69.598 56.584,69.523 
			"/>
		<polyline style="fill:none;stroke:#000000;stroke-width:0.36;" points="56.06,65.398 56.359,67.723 56.584,69.148 58.16,68.248 
			57.859,67.573 "/>
		<polyline style="fill:none;stroke:#000000;stroke-width:0.36;" points="49.785,26.948 46.185,28.148 45.785,29.948 "/>
		<polyline style="fill:none;stroke:#000000;stroke-width:0.36;" points="48.785,29.148 46.785,30.948 47.385,31.948 "/>
		<polyline style="fill:none;stroke:#000000;stroke-width:0.36;" points="48.984,31.148 47.984,32.748 49.584,33.748 "/>
		<polyline style="fill:none;stroke:#000000;stroke-width:0.36;" points="83.185,93.748 92.584,89.348 103.584,82.748 "/>
		<polyline style="fill:none;stroke:#000000;stroke-width:0.36;" points="94.185,90.148 104.185,85.548 110.185,83.348 
			112.185,84.748 "/>
		<polyline style="fill:none;stroke:#000000;stroke-width:0.36;" points="93.584,92.148 103.984,88.948 108.984,86.548 
			114.185,84.948 113.584,86.948 115.584,87.148 "/>
		<polyline style="fill:none;stroke:#000000;stroke-width:0.36;" points="99.584,93.548 108.384,93.148 115.584,94.748 
			115.984,92.348 117.185,90.748 115.984,87.948 "/>
		<polyline style="fill:none;stroke:#000000;stroke-width:0.36;" points="92.785,97.148 102.984,98.548 106.384,98.948 
			109.384,97.148 109.384,94.748 "/>
		<polyline style="fill:none;stroke:#000000;stroke-width:0.36;" points="98.785,98.948 108.784,100.748 114.984,102.148 
			107.984,102.348 "/>
		<polyline style="fill:none;stroke:#000000;stroke-width:0.36;" points="55.584,94.948 52.984,94.348 49.584,95.548 46.785,96.148 
			49.984,98.548 50.185,100.348 46.584,101.748 43.185,103.148 40.984,103.948 42.984,104.548 "/>
		<polyline style="fill:none;stroke:#000000;stroke-width:0.36;" points="41.185,105.148 37.584,106.148 35.385,106.748 
			38.785,107.148 43.584,105.948 "/>
		<polyline style="fill:none;stroke:#000000;stroke-width:0.36;" points="47.584,106.548 43.584,106.948 41.385,107.948 
			43.984,108.148 "/>
		<polyline style="fill:none;stroke:#000000;stroke-width:0.36;" points="42.984,108.948 38.984,109.948 40.584,110.148 
			44.984,109.748 43.185,111.548 46.785,110.748 50.185,111.948 50.984,110.148 52.984,108.948 55.384,109.348 57.984,107.948 
			57.785,111.948 57.984,112.748 60.185,113.548 63.185,115.148 65.785,116.948 68.984,118.748 71.185,120.748 73.984,122.748 "/>
		<polyline style="fill:none;stroke:#000000;stroke-width:0.36;" points="96.185,104.748 97.584,107.148 98.185,111.148 
			98.984,113.148 99.185,117.148 98.584,120.548 96.785,123.948 94.384,126.148 89.984,129.348 86.584,131.748 86.384,136.148 
			87.384,140.548 87.185,145.748 86.384,150.348 84.584,159.147 82.384,165.147 82.185,168.548 "/>
		<polyline style="fill:none;stroke:#000000;stroke-width:0.36;" points="90.785,108.548 86.984,110.348 82.584,112.148 
			79.984,115.148 77.584,118.548 75.384,121.948 73.984,125.348 73.185,127.948 73.584,132.348 74.384,136.548 73.185,138.748 
			72.984,144.148 73.384,150.548 73.785,155.948 74.584,161.548 74.584,164.948 74.785,167.748 "/>
		<polyline style="fill:none;stroke:#000000;stroke-width:0.36;" points="57.984,113.348 57.785,117.148 57.785,121.548 
			57.984,126.348 58.384,132.348 58.984,137.948 59.785,140.948 60.185,145.748 61.384,149.748 62.785,154.548 64.785,157.548 
			66.584,162.348 68.384,167.748 68.984,169.548 68.785,173.548 69.584,176.548 71.185,180.748 "/>
		<polygon style="fill:#FFFFFF;stroke:#000000;stroke-width:0.36;" points="72.384,167.748 76.185,168.748 78.584,168.348 
			81.384,168.948 83.785,169.748 82.984,172.748 83.185,175.948 83.785,179.748 83.785,185.147 83.984,191.947 82.384,194.548 
			79.785,196.548 77.584,197.348 74.584,196.947 72.785,194.348 71.984,188.348 71.785,184.147 71.185,178.748 72.185,174.948 
			72.584,170.748 "/>
		<line style="fill:none;stroke:#000000;stroke-width:0.36;" x1="77.584" y1="197.348" x2="77.384" y2="202.348"/>
		<polyline style="fill:none;stroke:#000000;stroke-width:0.36;" points="83.384,173.748 84.785,177.948 85.785,182.948 
			86.984,188.147 88.584,192.948 89.785,196.748 90.785,198.947 "/>
		<polyline style="fill:none;stroke:#000000;stroke-width:0.36;" points="81.785,196.348 82.785,199.147 84.384,201.547 "/>
		<polygon style="fill:#FFFFFF;stroke:#000000;stroke-width:0.36;" points="83.384,202.547 85.984,201.947 88.984,200.947 
			90.984,199.547 92.185,201.348 94.384,204.547 96.185,208.147 98.785,215.147 100.784,219.748 102.185,223.547 100.584,227.547 
			98.185,229.547 95.384,228.748 92.185,226.547 89.984,223.947 88.185,220.748 87.584,214.748 86.984,210.947 85.185,206.947 "/>
		<polyline style="fill:none;stroke:#000000;stroke-width:0.36;" points="99.384,229.748 100.784,232.947 100.185,228.147 "/>
		<polygon style="fill:none;stroke:#000000;stroke-width:0.36;" points="57.509,66.738 57.509,66.484 61.634,64.348 58.859,59.098 
			58.334,59.348 56.084,59.498 53.834,60.698 52.334,62.348 51.134,64.523 51.359,66.323 52.259,68.723 53.234,68.573 
			54.712,69.065 54.81,69.623 56.535,69.548 56.14,68.398 56.412,68.398 56.535,69.173 58.109,68.273 57.81,67.598 "/>
		<path d="M47.2,29.651c0.005-0.394,0.295-0.647,0.609-0.778c0.539-0.225,1.003-0.619,1.608-0.675
			c0.328-0.042,0.558-0.342,0.516-0.67c-0.047-0.333-0.347-0.562-0.675-0.521c-1.27,0.366-3.037,0.923-3.239,2.438
			c-0.056,0.324,0.159,0.638,0.487,0.694C46.83,30.195,47.144,29.979,47.2,29.651L47.2,29.651z"/>
		<path d="M48.025,30.636c0.098-0.389,0.023-0.816,0.295-1.144c0.389-0.469,1.022-0.478,1.542-0.708
			c0.323-0.066,0.534-0.385,0.464-0.708c-0.065-0.323-0.384-0.535-0.708-0.464c-0.877,0.3-1.908,0.492-2.414,1.388
			c-0.253,0.45-0.277,0.928-0.361,1.411c-0.061,0.323,0.15,0.637,0.479,0.703C47.646,31.174,47.959,30.964,48.025,30.636
			L48.025,30.636z"/>
		<path style="fill:#D6AB92;" d="M87.297,109.423c0.788-1.575,2.513-1.612,3.975-1.5c0.525,0,0.938-0.45,0.938-0.975
			s-0.413-0.975-0.938-0.975c-1.913,0.15-3.825,0.338-5.4,2.1c-0.337,0.413-0.337,1.013,0.038,1.388
			C86.322,109.798,86.922,109.798,87.297,109.423L87.297,109.423z"/>
		<path style="fill:#DEBDA7;" d="M82.272,126.973c-0.487,1.5-0.112,3.075-0.487,4.575c-0.225,0.487,0.038,1.05,0.525,1.275
			c0.487,0.188,1.05-0.038,1.237-0.562c0.263-0.825-0.075-1.8,0.188-2.4c0.338-0.825,1.2-1.688,1.088-2.962
			c-0.038-0.15-0.413-0.3-0.675-0.45c-0.15-0.525-0.712-0.825-1.2-0.675C82.422,125.923,82.122,126.485,82.272,126.973
			L82.272,126.973z"/>
		<path style="fill:#E5BEB4;" d="M57.859,30.209c0.586,0.253,1.247,0.244,1.833,0.506c-0.014,0.319,0.169,0.581,0.225,0.881
			c0.155,0.506,0.694,0.787,1.2,0.628c0.506-0.155,0.788-0.694,0.633-1.2c-0.154-0.53-0.267-1.073-0.628-1.523
			c-0.624-0.769-1.636-0.872-2.536-1.031c0.01-0.009,0.014-0.023,0.023-0.033c-0.492-0.206-1.055,0.023-1.261,0.511
			C57.143,29.44,57.372,30.002,57.859,30.209L57.859,30.209z"/>
		<path style="fill:#E5BCB3;" d="M70.479,28.336c-0.435,0.345-0.652,0.863-0.862,1.358c-0.188,0.382-0.03,0.84,0.353,1.027
			s0.84,0.03,1.027-0.353c0.21-0.337,0.248-0.772,0.555-1.065c0.007,0.038,0.015,0.067,0.022,0.105
			c0.3-0.308,0.292-0.788-0.015-1.087C71.259,28.029,70.771,28.036,70.479,28.336L70.479,28.336z"/>
		<g>
			<circle style="fill:#A8511B;" cx="62.66" cy="24.518" r="0.53"/> 
			<circle cx="62.66" cy="24.518" r="0.269"/> 
		</g>
		<g>
			<circle style="fill:#A8511B;" cx="70.009" cy="25.004" r="0.53"/> 
			<circle cx="70.009" cy="25.004" r="0.269"/> 
		</g>
		<polyline style="fill:none;stroke:#000000;stroke-width:0.216;" points="61.834,18.598 65.06,18.073 68.285,18.748 "/>
		<line style="fill:none;stroke:#000000;stroke-width:0.216;" x1="63.56" y1="18.673" x2="65.285" y2="18.523"/>
		<path style="fill:#CF9B7D;" d="M66.832,28.948c0,0.098,0.08,0.178,0.178,0.178c0.099,0,0.178-0.08,0.178-0.178
			c0-0.099-0.08-0.178-0.178-0.178C66.911,28.77,66.832,28.85,66.832,28.948L66.832,28.948z"/>
		<path style="fill:#CF9B7D;" d="M65.716,28.812c-0.033,0.094-0.08,0.188-0.08,0.291c-0.023,0.094,0.033,0.192,0.131,0.216
			c0.094,0.028,0.192-0.033,0.216-0.126c0.023-0.084,0.042-0.173,0.07-0.258c0.033-0.094-0.014-0.197-0.108-0.23
			S65.749,28.718,65.716,28.812L65.716,28.812z"/>
		<line style="fill:none;stroke:#000000;stroke-width:0.216;" x1="67.685" y1="28.873" x2="67.234" y2="29.473"/>
		<path style="fill:#EEDFD2;" d="M58.472,34.26l-0.013-0.312c0-0.088-0.025-0.163-0.062-0.238l-0.237-0.337
			c-0.55-0.438-1.163-0.95-1.925-0.9l-0.487-0.138c-0.163-0.087-0.363-0.075-0.513,0.025c-0.156,0.113-0.222,0.292-0.196,0.462
			c-0.018,0.018-0.039,0.03-0.054,0.051c-0.15,0.225-0.087,0.525,0.125,0.675c0.01,0.011,0.021,0.021,0.032,0.031
			c-0.042,0.11-0.048,0.232-0.006,0.344c0.287,0.75,0.438,1.538,0.912,2.212l0.25,0.475c0.05,0.138,0.175,0.238,0.312,0.275
			l0.25,0.063c0.038,0.012,0.075,0.012,0.113,0.012c0.128,0.006,0.248-0.043,0.337-0.125v0.024v0.038
			c0.013,0.25,0.225,0.438,0.475,0.438c0.262,0.013,0.475-0.212,0.475-0.475v-0.25C58.322,35.823,58.597,35.061,58.472,34.26z
			 M56.728,35.301c-0.04-0.084-0.084-0.166-0.122-0.252c0.045,0.055,0.09,0.109,0.131,0.166
			C56.735,35.243,56.731,35.272,56.728,35.301z"/>
		<g>
			<polyline style="fill:none;stroke:#000000;stroke-width:0.36;" points="65.083,34.781 66.606,34.616 67.575,34.781 "/>
			<polyline style="fill:none;stroke:#000000;stroke-width:0.36;" points="64.598,33.63 66.26,32.809 67.645,33.137 "/>
			<path style="fill:#FFFFFF;" d="M65.537,34.098c0.502-0.175,1.013-0.257,1.532-0.303c0.152,0,0.277-0.149,0.277-0.329
				s-0.125-0.329-0.277-0.329c-0.597,0.031-1.173,0.175-1.748,0.354c-0.139,0.067-0.208,0.262-0.147,0.431
				C65.229,34.087,65.394,34.169,65.537,34.098L65.537,34.098z"/>
			<path style="fill:#D28895;" d="M68.397,33.502l-0.019-0.019l0.002-0.002l-0.032-0.038c-0.177-0.569-0.427-1.131-0.885-1.425
				c-0.181-0.007-0.36,0-0.541,0c-0.161-0.035-0.323-0.035-0.485-0.017c-0.002-0.027,0.003-0.055-0.008-0.081
				c-0.048-0.098-0.147-0.128-0.229-0.072c-0.095,0.066-0.182,0.144-0.286,0.185c-0.029,0.012-0.058,0.019-0.087,0.029
				c-0.247,0.021-0.493,0.034-0.744,0.074c-0.173,0.025-0.337,0.123-0.458,0.288l-0.16,0.19c-0.004,0.007,0.003,0.017,0,0.024
				c-0.027,0.059-0.037,0.128-0.004,0.191l0,0c0,0.002-0.001,0.004,0,0.005c0.005,0.01,0.017,0.01,0.023,0.019
				c-0.103,0.055-0.205,0.109-0.305,0.156c-0.083,0.052-0.117,0.169-0.074,0.267c0.039,0.098,0.143,0.134,0.221,0.087
				c0.686-0.349,1.39-0.776,2.128-0.931c0.204,0.006,0.405,0.001,0.601-0.032c0.371,0.271,0.662,0.661,0.919,1.07l-0.009,0.021
				c0.004,0.036,0.022,0.072,0.043,0.098l0.065,0.082v0.005l0.069,0.082c0.061,0.067,0.152,0.077,0.217,0.021
				C68.437,33.712,68.45,33.589,68.397,33.502z"/>
			<path style="fill:none;stroke:#000000;stroke-width:0.36;" d="M63.698,33.877c0,0,0.346-0.822,0.762-1.315
				c0.416-0.493,2.077-0.821,2.077-0.821l1.247,0.164l1.039,2.054"/>
			<path style="fill:#D28895;" d="M64.399,34.708c0.991-0.513,2.068-0.842,3.168-0.729c0.134,0.016,0.242,0.098,0.346,0.195
				l0.017,0.041l0.086-0.313l-0.091,0.031l0.104,0.005l-0.1-0.041c-0.796-0.272-1.58,0.046-2.372,0.195
				c-0.095,0.01-0.156,0.113-0.143,0.221c0.008,0.107,0.095,0.185,0.186,0.169c0.709-0.113,1.406-0.462,2.125-0.231l0.186,0.056
				c0.035,0.016,0.069,0.016,0.104,0.005l0.087-0.031c0.021-0.005,0.043-0.021,0.061-0.036c0.069-0.067,0.082-0.19,0.026-0.277
				l-0.203-0.195c-0.234-0.21-0.515-0.236-0.784-0.221c-1.017,0.067-2.034,0.267-2.96,0.806c-0.078,0.046-0.113,0.169-0.069,0.267
				C64.213,34.719,64.316,34.76,64.399,34.708L64.399,34.708z"/>
		</g>
		<path d="M49.416,28.86c-1.275,0.15-2.519,1.263-2.1,2.638c0.112,0.413,0.543,0.656,0.956,0.543
			c0.419-0.112,0.663-0.543,0.55-0.956c-0.069-0.6,0.65-0.612,1.05-0.731c0.413-0.125,0.644-0.562,0.519-0.975
			C50.266,28.967,49.828,28.735,49.416,28.86L49.416,28.86z"/>
		<path d="M49.316,30.373c-0.906,0.65-1.419,2.212-0.306,2.938c0.318,0.288,0.812,0.263,1.1-0.056c0.294-0.319,0.269-0.812-0.05-1.1
			c-0.05,0.05-0.1,0.106-0.15,0.156c0.038-0.332,0.163-0.631,0.462-0.788c0.319-0.294,0.337-0.788,0.044-1.106
			C50.128,30.104,49.635,30.085,49.316,30.373L49.316,30.373z"/>
		<polyline style="fill:none;stroke:#000000;stroke-width:0.36;" points="110.784,102.948 110.984,104.548 96.185,104.748 
			93.185,104.548 89.984,104.948 86.584,106.548 84.785,109.148 83.384,111.548 "/>
		<path style="fill:#FAFAA6;" d="M64.322,82.71c1.85-2.175,4.237-3.7,6.687-5.138l0.038,0.013l-0.812,0.125l0.038-0.013
			c1.663,0.325,3.3,0.638,4.938,1.188c0.5,0.175,1.038,0.15,1.562,0.15l0.475,0.013l0.038-3h-0.388
			c-2.675,0.05-5.425,0.038-7.8,1.675c-1.738,1.2-2.525,3.025-3.275,4.838l-0.2,0.55c-0.062,0.175-0.087,0.35-0.087,0.525
			c0,0.825,0.688,1.488,1.512,1.488l0.35-0.013c0.288,0,0.575-0.087,0.812-0.25l0.188-0.138c1.562-0.712,3.188-1.287,4.875-1.65
			l0.263-0.012l-1.562-1.913l0.212-0.2c-1.25,1.45-2.875,2.763-3.388,4.712l-0.087,0.638c-0.025,0.2-0.012,0.4,0.038,0.6
			c0.225,0.788,1.062,1.25,1.85,1.025l0.625-0.2c1.225-0.8,2.525-1.5,3.925-1.95l0.2,0.075l-1.575-1.6l0.188-0.45
			c-0.762,1.312-1.425,2.688-1.762,4.163c-0.25,0.788,0.2,1.625,0.987,1.875s1.638-0.2,1.875-0.988c0.3-1.212,0.788-2.35,1.4-3.438
			l0.3-0.95c0-0.05,0.013-0.113,0-0.163c-0.025-0.825-0.712-1.475-1.55-1.45l-0.45,0.025c-1.525,0.212-2.887,0.962-4.187,1.737
			l-0.788,0.425l1.9,1.625l0.1-0.537c0.575-1.062,1.487-1.85,2.25-2.75l0.812-1.4c0.05-0.175,0.075-0.35,0.05-0.537
			c-0.062-0.825-0.788-1.438-1.612-1.363l-0.763,0.062c-1.575,0.4-3.112,0.913-4.625,1.525l-1.35,0.713l0.825-0.263l-0.363,0.013
			l1.438,2l0.312-0.75c-0.012,0.025-0.025,0.062-0.037,0.087c0.412-1.163,0.938-2.312,1.9-3.087c1.65-1.325,3.825-1.25,5.837-1.325
			h0.825c0.825,0,1.487-0.663,1.5-1.487c0.012-0.825-0.663-1.5-1.488-1.513l-0.45-0.013h0.012c-0.312-0.025-0.65,0.075-0.925-0.012
			c-1.438-0.462-2.85-0.938-4.35-1.062l-0.975-0.225c-0.275-0.038-0.562,0.013-0.812,0.125l-0.562,0.3
			c0.013-0.013,0.013-0.013,0.025-0.025c-2.425,1.538-5,2.938-6.812,5.25c-0.65,0.513-0.75,1.462-0.225,2.1
			C62.734,83.135,63.685,83.235,64.322,82.71L64.322,82.71z"/>
		<path style="fill:#F8F8A4;" d="M73.285,64.161c-0.15-0.025-0.312-0.05-0.462-0.075c1.737,0.25,3.512,0.325,5.25,0.237
			c1.9-0.1,3.812-0.337,5.725-0.475c0.825,0,1.5-0.675,1.5-1.5c-0.012-0.838-0.675-1.5-1.512-1.5
			c-2.038,0.1-4.062,0.387-6.087,0.487c-1.788,0.075-3.588-0.3-5.413,0c-0.788,0.275-1.188,1.138-0.913,1.913
			C71.647,64.036,72.509,64.436,73.285,64.161L73.285,64.161z"/>
		<path style="fill:#F8F8A4;" d="M24.122,86.335c0.275,0.225,0.525,0.475,0.763,0.737h-0.05c0.163,0.212,0.375,0.375,0.625,0.475
			l0.05,0.013c3.025,1.55,6.05-0.475,8.662-1.888c0.713-0.413,0.95-1.337,0.538-2.05c-0.425-0.713-1.35-0.95-2.062-0.525
			c-1.025,0.6-2.1,1.013-3.15,1.65c-0.7,0.425-1.6,0.562-2.438,0.25l-0.475-0.225l0.625,0.462l-2.05,0.013
			c0.35-0.363,0.688-0.725,1.038-1.088c-0.6-0.575-1.55-0.55-2.125,0.05C23.497,84.811,23.522,85.76,24.122,86.335L24.122,86.335z"
			/>
		<polyline style="fill:none;stroke:#000000;stroke-width:0.36;" points="70.535,41.848 72.634,41.848 74.584,41.998 77.884,41.098 
			81.484,38.398 85.084,38.248 87.785,39.598 91.535,45.298 93.935,48.898 96.634,52.648 97.984,56.848 98.584,59.998 
			93.484,63.598 88.685,64.948 81.185,64.648 73.234,64.648 67.234,64.798 62.734,65.548 60.484,61.648 59.285,59.098 
			64.535,57.748 70.834,56.848 75.935,56.098 81.334,54.898 86.584,53.548 91.685,55.498 "/>
		<rect y="96.179" style="fill:none;" width="147.401" height="2.834"/> 
	</g>
</svg>
