<?xml version="1.0" encoding="iso-8859-1"?>
<!-- Generator: Adobe Illustrator 11 Build 196, SVG Export Plug-In . SVG Version: 6.0.0 Build 78)  -->
<!DOCTYPE svg PUBLIC "-//W3C//DTD SVG 1.0//EN"    "http://www.w3.org/TR/2001/REC-SVG-20010904/DTD/svg10.dtd" [
	<!ENTITY ns_flows "http://ns.adobe.com/Flows/1.0/">
	<!ENTITY ns_svg "http://www.w3.org/2000/svg">
	<!ENTITY ns_xlink "http://www.w3.org/1999/xlink">
]>
<svg  
	 width="153.656" height="189.548" viewBox="0 0 153.656 189.548"
	 style="overflow:visible;enable-background:new 0 0 153.656 189.548" xml:space="preserve">
	<style type="text/css">
	
	</style>
	<g id="Layer_1">
		<path style="fill:#DCDCDC;" d="M60.663,122.983V179.1h68.032v-56.116H60.663z M60.88,154.4v-15.167l11.911,0.019l38.291,15.148
			H60.88z"/>
		<path style="fill:#DCDCDC;" d="M64.085,24.862V78.98h57.586V24.862H64.085z M111.791,78.721h-39.26V34.781l39.26,15.08V78.721z"/>
		<line style="fill:none;stroke:#000000;" x1="60.571" y1="78.98" x2="127.497" y2="78.98"/>
		<line style="fill:none;stroke:#000000;" x1="60.831" y1="79.241" x2="60.831" y2="23.861"/>
		<g>
			<line style="fill:none;stroke:#000000;" x1="108.15" y1="48.301" x2="72.791" y2="34.781"/>
			<path d="M111.082,49.421c-1.574-0.015-3.62,0.204-5.034,0.724l1.719-1.99l0.047-2.63
				C108.521,46.855,109.898,48.383,111.082,49.421z"/>
		</g>
		<path style="fill:#B4B4B4;stroke:#000000;" d="M113.363,13.073V0.5H72.648v12.573c-5.002,2.97-8.214,7.024-8.563,11.528h57.842
			C121.578,20.097,118.366,16.043,113.363,13.073z"/>
		<line style="fill:none;stroke:#000000;stroke-width:0.3;" x1="64.471" y1="25.421" x2="64.471" y2="78.98"/>
		<line style="fill:none;stroke:#000000;stroke-width:0.3;" x1="66.682" y1="25.421" x2="66.682" y2="78.98"/>
		<line style="fill:none;stroke:#000000;stroke-width:0.3;" x1="68.893" y1="25.421" x2="68.893" y2="78.98"/>
		<line style="fill:none;stroke:#000000;stroke-width:0.3;" x1="71.104" y1="25.421" x2="71.104" y2="78.98"/>
		<line style="fill:none;stroke:#000000;stroke-width:0.3;" x1="73.315" y1="25.421" x2="73.315" y2="34.781"/>
		<line style="fill:none;stroke:#000000;stroke-width:0.3;" x1="75.526" y1="25.421" x2="75.526" y2="35.561"/>
		<line style="fill:none;stroke:#000000;stroke-width:0.3;" x1="77.737" y1="25.421" x2="77.737" y2="36.341"/>
		<line style="fill:none;stroke:#000000;stroke-width:0.3;" x1="79.948" y1="25.421" x2="79.948" y2="37.381"/>
		<line style="fill:none;stroke:#000000;stroke-width:0.3;" x1="82.159" y1="25.421" x2="82.159" y2="38.421"/>
		<line style="fill:none;stroke:#000000;stroke-width:0.3;" x1="84.37" y1="25.421" x2="84.37" y2="38.941"/>
		<line style="fill:none;stroke:#000000;stroke-width:0.3;" x1="86.581" y1="25.421" x2="86.581" y2="39.98"/>
		<line style="fill:none;stroke:#000000;stroke-width:0.3;" x1="88.792" y1="25.421" x2="88.792" y2="40.761"/>
		<line style="fill:none;stroke:#000000;stroke-width:0.3;" x1="91.003" y1="25.421" x2="91.003" y2="41.541"/>
		<line style="fill:none;stroke:#000000;stroke-width:0.3;" x1="93.214" y1="25.421" x2="93.214" y2="42.58"/>
		<line style="fill:none;stroke:#000000;stroke-width:0.3;" x1="95.425" y1="25.421" x2="95.425" y2="43.101"/>
		<line style="fill:none;stroke:#000000;stroke-width:0.3;" x1="97.637" y1="25.421" x2="97.637" y2="44.141"/>
		<line style="fill:none;stroke:#000000;stroke-width:0.3;" x1="99.847" y1="25.421" x2="99.847" y2="45.181"/>
		<line style="fill:none;stroke:#000000;stroke-width:0.3;" x1="102.058" y1="25.421" x2="102.058" y2="45.7"/>
		<line style="fill:none;stroke:#000000;stroke-width:0.3;" x1="104.269" y1="25.421" x2="104.269" y2="47"/>
		<line style="fill:none;stroke:#000000;stroke-width:0.3;" x1="106.48" y1="25.421" x2="106.48" y2="47.521"/>
		<line style="fill:none;stroke:#000000;stroke-width:0.3;" x1="108.691" y1="25.421" x2="108.691" y2="48.301"/>
		<line style="fill:none;stroke:#000000;stroke-width:0.3;" x1="110.902" y1="25.421" x2="110.902" y2="49.341"/>
		<line style="fill:none;stroke:#000000;stroke-width:0.3;" x1="113.113" y1="25.421" x2="113.113" y2="78.98"/>
		<line style="fill:none;stroke:#000000;stroke-width:0.3;" x1="115.324" y1="25.421" x2="115.324" y2="78.98"/>
		<line style="fill:none;stroke:#000000;stroke-width:0.3;" x1="117.535" y1="25.421" x2="117.535" y2="78.98"/>
		<line style="fill:none;stroke:#000000;stroke-width:0.3;" x1="119.746" y1="25.421" x2="119.746" y2="78.98"/>
		<text transform="matrix(1 0 0 1 133.6309 81.0605)"><tspan x="0" y="0" style="font-family:Liberation Sans; font-size:7.650000;">x</tspan></text>
		<text transform="matrix(1 0 0 1 58.8379 19.3184)"><tspan x="0" y="0" style="font-family:Liberation Sans; font-size:7.650000;">y</tspan></text>
		<line style="fill:none;stroke:#000000;" x1="60.571" y1="183.451" x2="127.497" y2="183.451"/>
		<line style="fill:none;stroke:#000000;" x1="60.831" y1="183.712" x2="60.831" y2="121.684"/>
		<g>
			<line style="fill:none;stroke:#000000;" x1="108.15" y1="152.771" x2="72.791" y2="139.252"/>
			<path d="M111.082,153.893c-1.574-0.016-3.62,0.203-5.034,0.723l1.719-1.99l0.047-2.629
				C108.521,151.326,109.898,152.854,111.082,153.893z"/>
		</g>
		<path style="fill:#B4B4B4;stroke:#000000;" d="M140.583,171.18h12.573v-40.716h-12.573c-2.971-5.002-7.024-8.215-11.528-8.563
			v57.842C133.559,179.395,137.612,176.183,140.583,171.18z"/>
		<text transform="matrix(1 0 0 1 133.6309 185.5312)"><tspan x="0" y="0" style="font-family:Liberation Sans; font-size:7.650000;">x</tspan></text>
		<text transform="matrix(1 0 0 1 58.8379 119.3008)"><tspan x="0" y="0" style="font-family:Liberation Sans; font-size:7.650000;">y</tspan></text>
		<line style="fill:none;stroke:#000000;stroke-width:0.3;" x1="128.479" y1="124.067" x2="60.88" y2="124.067"/>
		<line style="fill:none;stroke:#000000;stroke-width:0.3;" x1="128.479" y1="126.831" x2="60.88" y2="126.831"/>
		<line style="fill:none;stroke:#000000;stroke-width:0.3;" x1="128.479" y1="129.595" x2="60.88" y2="129.595"/>
		<line style="fill:none;stroke:#000000;stroke-width:0.3;" x1="128.479" y1="132.358" x2="60.88" y2="132.358"/>
		<line style="fill:none;stroke:#000000;stroke-width:0.3;" x1="128.479" y1="135.123" x2="60.88" y2="135.123"/>
		<line style="fill:none;stroke:#000000;stroke-width:0.3;" x1="128.479" y1="137.887" x2="60.88" y2="137.887"/>
		<line style="fill:none;stroke:#000000;stroke-width:0.3;" x1="128.479" y1="140.649" x2="75.83" y2="140.649"/>
		<line style="fill:none;stroke:#000000;stroke-width:0.3;" x1="128.479" y1="143.414" x2="83.413" y2="143.414"/>
		<line style="fill:none;stroke:#000000;stroke-width:0.3;" x1="128.479" y1="146.178" x2="90.78" y2="146.178"/>
		<line style="fill:none;stroke:#000000;stroke-width:0.3;" x1="128.479" y1="148.941" x2="97.93" y2="148.941"/>
		<line style="fill:none;stroke:#000000;stroke-width:0.3;" x1="128.479" y1="151.705" x2="104.646" y2="151.705"/>
		<line style="fill:none;stroke:#000000;stroke-width:0.3;" x1="128.479" y1="154.469" x2="60.88" y2="154.469"/>
		<line style="fill:none;stroke:#000000;stroke-width:0.3;" x1="128.479" y1="157.232" x2="60.88" y2="157.232"/>
		<line style="fill:none;stroke:#000000;stroke-width:0.3;" x1="128.479" y1="159.996" x2="60.88" y2="159.996"/>
		<line style="fill:none;stroke:#000000;stroke-width:0.3;" x1="128.479" y1="162.76" x2="60.88" y2="162.76"/>
		<line style="fill:none;stroke:#000000;stroke-width:0.3;" x1="128.479" y1="165.523" x2="60.88" y2="165.523"/>
		<line style="fill:none;stroke:#000000;stroke-width:0.3;" x1="128.479" y1="168.287" x2="60.88" y2="168.287"/>
		<line style="fill:none;stroke:#000000;stroke-width:0.3;" x1="128.479" y1="171.051" x2="60.88" y2="171.051"/>
		<line style="fill:none;stroke:#000000;stroke-width:0.3;" x1="128.479" y1="173.815" x2="60.88" y2="173.815"/>
		<line style="fill:none;stroke:#000000;stroke-width:0.3;" x1="128.479" y1="176.579" x2="60.88" y2="176.579"/>
		<g>
			<path style="fill:none;stroke:#000000;" d="M111.846,82.115c-1.809,7.13-18.089,1.097-19.22,4.936"/>
			<path style="fill:none;stroke:#000000;" d="M73.407,82.115c1.809,7.13,18.089,1.097,19.219,4.936"/>
		</g>
		<g>
			<path style="fill:none;stroke:#000000;" d="M59.006,153.804c-7.13-0.648-1.097-6.481-4.936-6.887"/>
			<path style="fill:none;stroke:#000000;" d="M59.006,140.031c-7.13,0.647-1.097,6.481-4.936,6.886"/>
		</g>
		<text transform="matrix(1 0 0 1 66.5308 95.1836)"><tspan x="0" y="0" style="font-family:Liberation Sans; font-size:7.650000;">x component</tspan><tspan x="7.51" y="10.8" style="font-family:Liberation Sans; font-size:7.650000;">(positive)</tspan></text>
		<text transform="matrix(1 0 0 1 0 143.4512)"><tspan x="0" y="0" style="font-family:Liberation Sans; font-size:7.650000;">y component</tspan><tspan x="11.509" y="10.8" style="font-family:Liberation Sans; font-size:7.650000;">(negative)</tspan></text>
	</g>
</svg>
