<?xml version="1.0" encoding="iso-8859-1"?>
<!-- Generator: Adobe Illustrator 11 Build 196, SVG Export Plug-In . SVG Version: 6.0.0 Build 78)  -->
<!DOCTYPE svg PUBLIC "-//W3C//DTD SVG 1.0//EN"    "http://www.w3.org/TR/2001/REC-SVG-20010904/DTD/svg10.dtd" [
	<!ENTITY ns_flows "http://ns.adobe.com/Flows/1.0/">
	<!ENTITY ns_svg "http://www.w3.org/2000/svg">
	<!ENTITY ns_xlink "http://www.w3.org/1999/xlink">
]>
<svg  
	 width="147.401" height="155.783" viewBox="0 0 147.401 155.783"
	 style="overflow:visible;enable-background:new 0 0 147.401 155.783" xml:space="preserve">
	<style type="text/css">
	
	</style>
	<g id="Layer_1">
		<g>
			<rect x="57.575" y="86.026" style="fill:#B4B4B4;" width="31.35" height="12"/> 
			<rect x="98" y="24.026" style="fill:#B4B4B4;" width="33" height="12"/> 
			<g>
				<line style="fill:none;stroke:#000000;" x1="94" y1="54.026" x2="94" y2="4.526"/>
				<path d="M94,0c0.79,2.13,2.139,4.772,3.566,6.41L94,5.12l-3.566,1.29C91.861,4.772,93.21,2.13,94,0z"/>
			</g>
			<g>
				<g>
					<text transform="matrix(1 0 0 1 100 33.0264)"><tspan x="0" y="0" style="fill:#FFFFFF; font-family:Liberation Sans-Bold'; font-size:7.650000;">motion</tspan></text>
				</g>
			</g>
			<g>
				<g>
					<line style="fill:none;stroke:#000000;" x1="54.906" y1="91.763" x2="27.906" y2="91.763"/>
					<path d="M23.38,91.763c2.129-0.79,4.772-2.139,6.41-3.566l-1.29,3.566l1.29,3.566C28.152,93.902,25.509,92.553,23.38,91.763z"
						/>
				</g>
				<g>
					<line style="fill:none;stroke:#000000;" x1="90.862" y1="91.763" x2="117.862" y2="91.763"/>
					<path d="M122.388,91.763c-2.129,0.79-4.772,2.139-6.41,3.566l1.29-3.566l-1.29-3.566
						C117.616,89.625,120.259,90.973,122.388,91.763z"/>
				</g>
			</g>
			<g>
				<g>
					<line style="fill:none;stroke:#000000;" x1="72.884" y1="109.741" x2="72.884" y2="136.741"/>
					<path d="M72.884,141.268c-0.79-2.13-2.139-4.772-3.566-6.41l3.566,1.29l3.566-1.29
						C75.023,136.495,73.674,139.138,72.884,141.268z"/>
				</g>
				<g>
					<line style="fill:none;stroke:#000000;" x1="72.884" y1="73.785" x2="72.884" y2="46.785"/>
					<path d="M72.884,42.259c0.791,2.13,2.139,4.772,3.566,6.41l-3.566-1.29l-3.566,1.29C70.745,47.031,72.094,44.389,72.884,42.259
						z"/>
				</g>
			</g>
			<g>
				<g>
					<text transform="matrix(1 0 0 1 62.5 95.0264)"><tspan x="0" y="0" style="fill:#FFFFFF; font-family:Liberation Sans-Bold'; font-size:7.650000;">force</tspan></text>
				</g>
			</g>
			<g>
				<g>
					<text transform="matrix(1 0 0 1 63.6865 39.0264)"><tspan x="0" y="0" style="font-family:Liberation Sans; font-size:7.650000;">W&gt;0</tspan></text>
				</g>
			</g>
			<g>
				<g>
					<text transform="matrix(1 0 0 1 63.6865 151.7661)"><tspan x="0" y="0" style="font-family:Liberation Sans; font-size:7.650000;">W&lt;0</tspan></text>
				</g>
			</g>
			<g>
				<g>
					<text transform="matrix(1 0 0 1 124.5 95.0264)"><tspan x="0" y="0" style="font-family:Liberation Sans; font-size:7.650000;">W=0</tspan></text>
				</g>
			</g>
			<g>
				<g>
					<text transform="matrix(1 0 0 1 2.5 94.5264)"><tspan x="0" y="0" style="font-family:Liberation Sans; font-size:7.650000;">W=0</tspan></text>
				</g>
			</g>
		</g>
		<rect y="79.214" style="fill:none;" width="147.401" height="2.835"/> 
	</g>
</svg>
