<?xml version="1.0" encoding="UTF-8" standalone="no"?>
<!-- Created with Inkscape (http://www.inkscape.org/) -->

<svg
   xmlns:dc="http://purl.org/dc/elements/1.1/"
   xmlns:cc="http://creativecommons.org/ns#"
   xmlns:rdf="http://www.w3.org/1999/02/22-rdf-syntax-ns#"
   xmlns:svg="http://www.w3.org/2000/svg"
   xmlns="http://www.w3.org/2000/svg"
   xmlns:sodipodi="http://sodipodi.sourceforge.net/DTD/sodipodi-0.dtd"
   xmlns:inkscape="http://www.inkscape.org/namespaces/inkscape"
   width="744.09448819"
   height="1052.3622047"
   id="svg2"
   version="1.1"
   sodipodi:docname="force-operational.svg">
  <defs
     id="defs4" />
  <sodipodi:namedview
     id="base"
     pagecolor="#ffffff"
     bordercolor="#666666"
     borderopacity="1.0"
     inkscape:pageopacity="0.0"
     inkscape:pageshadow="2"
     inkscape:zoom="1.5510502"
     inkscape:cx="323.67325"
     inkscape:cy="254.20624"
     inkscape:document-units="mm"
     inkscape:current-layer="layer1"
     showgrid="false"
     inkscape:window-width="1280"
     inkscape:window-height="998"
     inkscape:window-x="0"
     inkscape:window-y="0"
     inkscape:window-maximized="1" />
  <metadata
     id="metadata7">
    <rdf:RDF>
      <cc:Work
         rdf:about="">
        <dc:format>image/svg+xml</dc:format>
        <dc:type
           rdf:resource="http://purl.org/dc/dcmitype/StillImage" />
        <dc:title></dc:title>
      </cc:Work>
    </rdf:RDF>
  </metadata>
  <g
     inkscape:label="Layer 1"
     inkscape:groupmode="layer"
     id="layer1">
    <rect
       style="fill:#dedede;fill-opacity:1;stroke:none"
       id="rect3149-3"
       width="83.29953"
       height="71.546288"
       x="379.82089"
       y="763.53912" />
    <g
       id="g171"
       transform="matrix(-0.79785585,0,0,0.79785585,451.82552,749.64596)">
      <path
         id="path173"
         d="m 30.666,63.577 c 0,-7.488 11.632,-7.566 11.632,-0.006 0,7.56 -9.45,7.488 -9.45,0"
         style="fill:none;stroke:#000000"
         inkscape:connector-curvature="0" />
      <path
         id="path175"
         d="m 32.826,63.577 c 0,-7.488 11.632,-7.566 11.632,-0.006 0,7.56 -9.45,7.488 -9.45,0"
         style="fill:none;stroke:#000000"
         inkscape:connector-curvature="0" />
      <path
         id="path177"
         d="m 34.986,63.577 c 0,-7.488 11.632,-7.566 11.632,-0.006 0,7.56 -9.45,7.488 -9.45,0"
         style="fill:none;stroke:#000000"
         inkscape:connector-curvature="0" />
      <path
         id="path179"
         d="m 37.146,63.577 c 0,-7.488 11.632,-7.566 11.632,-0.006 0,7.56 -9.45,7.488 -9.45,0"
         style="fill:none;stroke:#000000"
         inkscape:connector-curvature="0" />
      <path
         id="path181"
         d="m 39.306,63.577 c 0,-7.488 11.632,-7.566 11.632,-0.006 0,7.56 -9.45,7.488 -9.45,0"
         style="fill:none;stroke:#000000"
         inkscape:connector-curvature="0" />
      <path
         id="path183"
         d="m 41.465,63.577 c 0,-7.488 11.632,-7.566 11.632,-0.006 0,7.56 -9.45,7.488 -9.45,0"
         style="fill:none;stroke:#000000"
         inkscape:connector-curvature="0" />
      <path
         id="path185"
         d="m 43.625,63.577 c 0,-7.488 11.632,-7.566 11.632,-0.006 0,7.56 -9.45,7.488 -9.45,0"
         style="fill:none;stroke:#000000"
         inkscape:connector-curvature="0" />
      <path
         id="path187"
         d="m 45.786,63.577 c 0,-7.488 11.632,-7.566 11.632,-0.006 0,7.56 -9.45,7.488 -9.45,0"
         style="fill:none;stroke:#000000"
         inkscape:connector-curvature="0" />
      <path
         id="path189"
         d="m 47.945,63.577 c 0,-7.488 11.632,-7.566 11.632,-0.006 0,7.56 -9.45,7.488 -9.45,0"
         style="fill:none;stroke:#000000"
         inkscape:connector-curvature="0" />
      <path
         id="path191"
         d="m 50.105,63.577 c 0,-7.488 11.632,-7.566 11.632,-0.006 0,7.56 -9.45,7.488 -9.45,0"
         style="fill:none;stroke:#000000"
         inkscape:connector-curvature="0" />
      <path
         id="path193"
         d="m 52.265,63.577 c 0,-7.488 11.632,-7.566 11.632,-0.006 0,7.56 -9.45,7.488 -9.45,0"
         style="fill:none;stroke:#000000"
         inkscape:connector-curvature="0" />
      <path
         id="path195"
         d="m 54.427,63.577 c 0,-7.488 11.68,-7.566 11.632,-0.006 -0.003,0.518 2.697,1.286 3.747,1.268 1.05,-0.019 9.037,-0.506 6.487,-0.975 -2.55,-0.469 -2.4,-0.207 -2.4,-0.207"
         style="fill:none;stroke:#000000"
         inkscape:connector-curvature="0" />
      <path
         id="path197"
         d="m 30.669,63.525 c -0.112,0.712 -8.887,0.562 -8.887,0.562 0,0 -4.05,-0.957 0.112,-0.957"
         style="fill:none;stroke:#000000"
         inkscape:connector-curvature="0" />
    </g>
    <rect
       style="fill:#dedede;fill-opacity:1;stroke:none"
       id="rect3149"
       width="91.92041"
       height="71.546288"
       x="278.94196"
       y="764.48529" />
    <path
       style="fill:#9c9c9c;fill-opacity:1;stroke:none"
       d="m 369.96172,781.46088 -9.05271,3.22271 -0.64572,0.14417 c -1.05079,0.054 -2.07399,0.0597 -2.63744,0.0845 -1.05523,0.0465 -4.00424,0.0594 -5.44572,0.21803 -1.44149,0.15861 -4.32619,1.37895 -6.1307,2.17733 -1.80451,0.79839 -6.59336,2.87734 -8.25054,2.93973 -1.65717,0.0624 -4.64585,0.80273 -7.69473,-0.2472 -3.04889,-1.04991 -3.62943,-0.49981 -4.74439,-0.60931 -1.11496,-0.10951 -3.01627,2.48068 -3.39522,2.51851 -0.37896,0.0378 -3.26494,2.69108 -3.76932,3.24193 -0.50439,0.55084 -3.92579,2.44751 -4.23772,2.56697 -0.29433,0.11272 -3.26077,3.15707 -5.36063,5.40887 l -3.18586,1.49386 c -0.25948,0.0448 -0.50892,0.087 -0.71807,0.11516 -7e-4,0.0125 -0.0109,0.0165 -0.0116,0.0289 l 0.0954,0.13904 -0.0927,0.0636 c -0.13896,2.68171 -0.25527,6.42268 -0.33635,10.26253 0.0375,-0.12082 0.0743,-0.24395 0.0872,-0.38496 l 1.08509,0.60314 c 0.30938,0.32777 0.64905,0.63194 0.99224,0.83465 0.13968,0.0825 0.32797,0.13368 0.53252,0.17997 l -0.006,0.43425 -0.5182,-0.006 c 0.5681,1.85694 -0.16768,3.21302 1.37999,4.26559 1.54767,1.05258 1.73799,1.43837 3.37193,0.84837 1.57058,-0.56711 2.76593,-0.89097 3.93234,-1.00972 l 1.64964,0.57759 c 1.56111,1.0084 2.74766,1.52134 3.8841,1.12096 0.89372,-0.31486 1.36459,-0.43334 1.90008,-1.05208 l 0.96986,-0.031 c 1.03723,0.22684 1.65122,0.34497 2.02352,0.10603 l 0.0289,0.0116 2.09971,-0.92163 0.0493,-0.081 c 0.22112,-4.6e-4 0.45604,0.007 0.69772,-0.0225 0.68357,-0.083 1.11292,-1.33425 1.18592,-2.07755 0.073,-0.74332 1.09045,-1.16924 1.46078,-1.88335 0.22559,-0.43504 0.75874,-0.94148 1.22308,-1.54194 l 0.10333,0.99887 c 0,0 0.48391,0.50511 1.81452,0.71093 1.33066,0.20574 1.42756,-0.16093 2.32551,-0.89826 0.44521,-0.36558 0.56163,-0.96107 0.53704,-1.63231 0.1298,0.20391 1.14607,1.75397 2.20387,2.37879 0.82898,0.48966 3.04485,0.30581 3.71438,-0.0893 0.12768,-0.0754 0.24258,-0.16762 0.34186,-0.26603 0.18077,-1.09494 0.36393,-2.28964 0.36393,-2.28964 l -1.88855,-5.343 2.13815,-1.81325 c 0,0 6.22699,0.5397 8.08821,0.52257 1.86122,-0.0171 5.83787,-0.39752 7.07901,-0.7724 1.24117,-0.37491 10.25955,-2.75555 10.25955,-2.75555 l 0.21403,0.22021 -0.0725,-22.43644 -1.62176,0.60939 c 0.86193,-0.38556 1.98388,-0.88409 1.98388,-0.88409 z"
       id="path3050-3"
       inkscape:connector-curvature="0" />
    <path
       style="fill:#ffffff;fill-opacity:1;stroke:none;stroke-width:0.875;stroke-miterlimit:4;stroke-dasharray:none;stroke-opacity:1"
       d="m 342.81391,805.42751 c -2.31406,-0.83491 -4.50339,-0.2179 -5.7205,-0.0601 l 0.34403,0.52431 c -2.71834,-1.58576 -5.43862,-0.76583 -6.85487,-0.58226 l 1.17093,1.72937 c -0.23871,-0.0968 -0.48507,-0.17453 -0.7351,-0.26121 l 0.23845,2.0441 0.0666,-0.0405 0.55686,2.08781 0.93067,1.70021 0.2077,0.82237 -0.15728,1.06233 -0.77414,1.30206 c 0,0 -0.0531,0.0251 -0.0608,0.026 l 0.0718,0.6167 c 0,0 0.46945,0.49928 1.80006,0.70513 1.33065,0.20574 1.44783,-0.1696 2.34577,-0.90693 0.44897,-0.36867 0.56425,-0.95421 0.53705,-1.63231 0.0963,0.15227 1.12002,1.75649 2.19806,2.39326 0.82898,0.48965 3.05065,0.29134 3.72019,-0.10378 0.61285,-0.36167 0.92252,-0.97112 0.75163,-1.99977 0.10237,0.14931 0.24535,0.35253 0.41058,0.56779 l -0.12609,-1.44473 0.30832,-1.60646 -0.33266,-3.52642 c 0,0 0.54708,-1.1767 0.12134,-2.94123 -0.34521,-0.19337 -0.67658,-0.35229 -1.01862,-0.4757 z M 309.97905,804.958 c -2.30882,-0.82218 -4.47476,-0.17114 -5.68869,-0.0138 l 0.34984,0.50983 c -2.73773,-1.63229 -5.49499,-0.81063 -6.92143,-0.62574 l 0.35271,0.54458 c -2.74306,-1.6453 -5.49217,-0.811 -6.92142,-0.62575 l 0.3527,0.54458 c -2.74306,-1.64529 -5.50083,-0.83128 -6.93009,-0.64602 l 0.27176,0.41134 c -1.76395,-1.24295 -2.97589,-0.41286 -4.32204,-0.23838 l 0.0751,0.14772 -0.0723,-0.029 -1.37365,11.25749 0.36197,-0.10679 -0.0845,0.58761 c 0,0 0.56782,0.11522 1.16362,0.1979 0.59579,0.0827 1.933,-0.76596 2.44164,-1.27161 0.13916,-0.13834 0.24582,-0.34972 0.32768,-0.60766 l 0.97589,-0.29731 c 0.34762,0.63978 0.88096,1.44963 1.52401,1.85418 1.11136,0.69917 2.61475,0.40942 4.01569,-0.33801 0.78803,-0.42044 1.0737,-1.27124 0.54103,-2.8569 l 0.32671,0.48376 c 0,0 1.11382,1.77765 2.24433,2.44541 0.82898,0.48967 3.05066,0.29135 3.72019,-0.10377 0.62739,-0.37026 0.90904,-0.99273 0.71114,-2.06641 0.27218,0.41304 1.19322,1.7088 2.14606,2.27162 0.82898,0.48966 3.04485,0.30582 3.71439,-0.0893 0.62739,-0.37026 0.92063,-1.02167 0.72274,-2.09535 0.27218,0.41304 1.17295,1.71747 2.12579,2.28029 0.82898,0.48965 3.05065,0.29135 3.72019,-0.10378 0.62919,-0.37131 0.91826,-1.00153 0.71693,-2.08087 0.27219,0.41304 1.19322,1.7088 2.14607,2.27162 0.82897,0.48966 3.03618,0.28554 3.70571,-0.10958 1.36749,-0.80702 1.16515,-2.8214 -2.30591,-8.02995 -1.30165,-1.95321 -2.74857,-2.97863 -4.13386,-3.47194 z"
       id="path3050-8"
       inkscape:connector-curvature="0" />
    <path
       style="fill:none;stroke:#000000;stroke-width:0.875;stroke-linecap:butt;stroke-linejoin:miter;stroke-miterlimit:4;stroke-dasharray:none;stroke-opacity:1"
       d="m 280.80672,804.81458 c 1.94228,-0.25176 3.57542,-1.86141 7.04648,3.34714 3.47106,5.20856 3.70846,7.29693 2.30752,8.04437 -1.40095,0.74743 -2.90495,1.04223 -4.01632,0.34306 -1.11136,-0.69917 -1.94749,-2.69885 -1.94749,-2.69885"
       id="path3050"
       inkscape:connector-curvature="0" />
    <path
       style="fill:none;stroke:#000000;stroke-width:0.875;stroke-linecap:butt;stroke-linejoin:miter;stroke-miterlimit:4;stroke-dasharray:none;stroke-opacity:1"
       d="m 284.85294,804.65293 c 1.94229,-0.25176 6.34783,-1.71031 9.81889,3.49825 3.47106,5.20855 3.67501,7.23735 2.30751,8.04436 -0.66953,0.39513 -2.89074,0.58919 -3.71972,0.0995 -1.13052,-0.66777 -2.24408,-2.45531 -2.24408,-2.45531"
       id="path3050-7"
       inkscape:connector-curvature="0"
       sodipodi:nodetypes="csssc" />
    <path
       style="fill:none;stroke:#000000;stroke-width:0.875;stroke-linecap:butt;stroke-linejoin:miter;stroke-miterlimit:4;stroke-dasharray:none;stroke-opacity:1"
       d="m 291.42476,804.74785 c 1.94228,-0.25175 6.34782,-1.7103 9.81889,3.49825 3.47105,5.20856 3.675,7.23734 2.30751,8.04437 -0.66953,0.39512 -2.89075,0.58917 -3.71972,0.0995 -1.13052,-0.66776 -2.24409,-2.4553 -2.24409,-2.4553"
       id="path3050-7-4"
       inkscape:connector-curvature="0"
       sodipodi:nodetypes="csssc" />
    <path
       style="fill:none;stroke:#000000;stroke-width:0.875;stroke-linecap:butt;stroke-linejoin:miter;stroke-miterlimit:4;stroke-dasharray:none;stroke-opacity:1"
       d="m 297.99658,804.84277 c 1.94228,-0.25175 6.34782,-1.7103 9.81888,3.49825 3.47106,5.20855 3.67501,7.23735 2.30752,8.04436 -0.66953,0.39513 -2.89075,0.58919 -3.71973,0.0995 -1.13051,-0.66777 -2.24408,-2.45531 -2.24408,-2.45531"
       id="path3050-7-41"
       inkscape:connector-curvature="0"
       sodipodi:nodetypes="csssc" />
    <path
       style="fill:none;stroke:#000000;stroke-width:0.875;stroke-linecap:butt;stroke-linejoin:miter;stroke-miterlimit:4;stroke-dasharray:none;stroke-opacity:1"
       d="m 304.5684,804.93769 c 1.94227,-0.25175 6.34781,-1.7103 9.81887,3.49825 3.47107,5.20856 3.67501,7.23735 2.30752,8.04437 -0.66953,0.39512 -2.89074,0.58918 -3.71972,0.0995 -1.13051,-0.66777 -2.24409,-2.45531 -2.24409,-2.45531"
       id="path3050-7-3"
       inkscape:connector-curvature="0"
       sodipodi:nodetypes="csssc" />
    <path
       style="fill:none;stroke:#000000;stroke-width:0.875;stroke-linecap:butt;stroke-linejoin:miter;stroke-miterlimit:4;stroke-dasharray:none;stroke-opacity:1"
       d="m 330.85565,805.31737 c 1.94228,-0.25175 6.34783,-1.7103 9.81889,3.49825 3.47105,5.20855 3.67501,7.23735 2.30751,8.04436 -0.66954,0.39513 -2.89075,0.58919 -3.71973,0.0995 -1.13051,-0.66776 -2.24408,-2.4553 -2.24408,-2.4553"
       id="path3050-7-44"
       inkscape:connector-curvature="0"
       sodipodi:nodetypes="csssc" />
    <path
       style="fill:none;stroke:#000000;stroke-width:0.875;stroke-linecap:butt;stroke-linejoin:miter;stroke-miterlimit:4;stroke-dasharray:none;stroke-opacity:1"
       d="m 280.68433,808.75779 c 2.59105,2.88755 3.08537,3.75742 3.158,4.24769 0.0726,0.49027 -0.013,2.10034 -0.52167,2.60599 -0.50864,0.50565 -1.84678,1.34049 -2.44257,1.25782 -0.5958,-0.0827 -1.16532,-0.18692 -1.16532,-0.18692"
       id="path3137"
       inkscape:connector-curvature="0" />
    <path
       style="fill:none;stroke:#000000;stroke-width:0.875;stroke-linecap:butt;stroke-linejoin:miter;stroke-miterlimit:4;stroke-dasharray:none;stroke-opacity:1"
       d="m 319.64266,798.57046 c -0.23494,1.62797 0.21967,2.34805 0.12476,3.31435 -0.0949,0.9663 -0.48115,1.07846 -0.53823,2.42371 -0.0571,1.34525 0.62053,2.08723 0.82295,3.08273 0.20241,0.9955 0.95302,0.99418 0.36833,2.36265 -0.58467,1.36849 -0.71145,1.13089 -0.52364,2.27505 0.18782,1.14416 0.27808,1.75341 0.83025,3.00841 0.55217,1.25499 0.11349,1.13686 1.3114,1.92993 1.19792,0.79309 3.00376,0.74531 3.00376,0.74531 l 0,0"
       id="path3139"
       inkscape:connector-curvature="0" />
    <path
       style="fill:none;stroke:#000000;stroke-width:0.875;stroke-linecap:butt;stroke-linejoin:miter;stroke-miterlimit:4;stroke-dasharray:none;stroke-opacity:1"
       d="m 329.66734,798.12913 c 0.88865,2.41375 0.37696,3.03893 -0.1188,4.26604 -0.49587,1.22708 -1.51316,1.65254 -1.76535,1.92796 -0.25219,0.27541 -0.39356,0.18649 -0.39356,0.18649"
       id="path3141"
       inkscape:connector-curvature="0" />
    <path
       style="fill:none;stroke:#000000;stroke-width:0.875;stroke-linecap:butt;stroke-linejoin:miter;stroke-miterlimit:4;stroke-dasharray:none;stroke-opacity:1"
       d="m 327.16532,803.7371 c -0.0438,0.44599 -0.46656,0.9298 -0.16792,1.70961 0.29866,0.77981 0.46324,1.39636 0.36834,2.36266 -0.0949,0.96629 -0.14468,2.23721 -0.5004,2.80266 -0.35573,0.56544 -0.88932,1.41361 -0.88932,1.41361 0,0 -0.0836,3.14378 -0.14203,3.73843 -0.0584,0.59464 -0.55416,1.82177 -0.55416,1.82177"
       id="path3143"
       inkscape:connector-curvature="0" />
    <path
       style="fill:none;stroke:#000000;stroke-width:0.875;stroke-linecap:butt;stroke-linejoin:miter;stroke-miterlimit:4;stroke-dasharray:none;stroke-opacity:1"
       d="m 325.2566,817.05822 -2.96858,-1.86756 c 0,0 -0.2502,-2.80134 0.40285,-3.33757 0.65305,-0.53625 2.42968,-0.28671 2.42968,-0.28671 l 0.49112,0.34843"
       id="path3145"
       inkscape:connector-curvature="0" />
    <path
       style="fill:none;stroke:#000000;stroke-width:0.875;stroke-linecap:butt;stroke-linejoin:miter;stroke-miterlimit:4;stroke-dasharray:none;stroke-opacity:1"
       d="m 308.10282,803.74108 c 2.09918,-2.27041 5.43742,-5.69492 5.74934,-5.81438 0.31193,-0.11946 3.72716,-2.03546 4.23154,-2.58631 0.50439,-0.55084 3.39068,-3.19423 3.76963,-3.23205 0.37896,-0.0378 2.28434,-2.62746 3.3993,-2.51795 1.11496,0.1095 1.69368,-0.43404 4.74257,0.61588 3.04888,1.04992 6.04998,0.29401 7.70716,0.23162 1.65717,-0.0624 6.43956,-2.1443 8.24407,-2.94269 1.80451,-0.79839 4.70075,-2.01489 6.14223,-2.17351 1.44149,-0.15861 4.36958,-0.17122 5.42481,-0.21768 1.05523,-0.0465 3.75304,-0.007 5.14209,-0.39554 1.38906,-0.38891 7.20344,-3.0449 7.20344,-3.0449"
       id="path3147"
       inkscape:connector-curvature="0" />
    <path
       style="fill:none;stroke:#000000;stroke-width:0.875;stroke-linecap:butt;stroke-linejoin:miter;stroke-miterlimit:4;stroke-dasharray:none;stroke-opacity:1"
       d="m 331.29531,806.7694 c 1.81446,0.6285 3.37674,1.53241 4.02514,2.57171 0.6484,1.0393 1.17005,1.84101 1.41759,3.14114 0.24755,1.30012 0.68158,2.9938 -0.21636,3.73113 -0.89794,0.73733 -1.00878,1.10169 -2.33943,0.89595 -1.33064,-0.20574 -1.80716,-0.70282 -1.80716,-0.70282 l 0,0"
       id="path3161"
       inkscape:connector-curvature="0" />
    <path
       style="fill:none;stroke:#000000;stroke-width:0.875;stroke-linecap:butt;stroke-linejoin:miter;stroke-miterlimit:4;stroke-dasharray:none;stroke-opacity:1"
       d="m 313.03187,804.75052 c 1.36715,-0.16591 2.15426,-0.5389 3.26192,-0.35506 1.10766,0.18383 2.69183,0.86476 2.69183,0.86476"
       id="path3163"
       inkscape:connector-curvature="0" />
    <path
       style="fill:none;stroke:#000000;stroke-width:0.875;stroke-linecap:butt;stroke-linejoin:miter;stroke-miterlimit:4;stroke-dasharray:none;stroke-opacity:1"
       d="m 306.4171,817.0841 c 0.5681,1.85694 -0.16525,3.21082 1.38242,4.26339 1.54766,1.05258 1.73416,1.44613 3.3681,0.85613 1.63395,-0.58999 2.86704,-0.91917 4.07823,-1.02536 1.2112,-0.10618 2.71241,-0.10884 3.2168,-0.65969 0.50438,-0.55084 2.26111,-3.15506 2.26111,-3.15506"
       id="path3165"
       inkscape:connector-curvature="0" />
    <path
       style="fill:none;stroke:#000000;stroke-width:0.875;stroke-linecap:butt;stroke-linejoin:miter;stroke-miterlimit:4;stroke-dasharray:none;stroke-opacity:1"
       d="m 316.62163,821.68862 c 1.62201,1.05988 2.84182,1.62997 4.00789,1.21916 1.16606,-0.41081 1.62664,-0.51567 2.42703,-1.78792 0.80038,-1.27225 2.88496,-3.39399 3.13715,-3.66941 0.25219,-0.27542 2.433,-2.61286 2.52061,-3.50482 0.0876,-0.89197 0.59796,-2.26775 0.72207,-3.53137 0.12411,-1.26363 0.069,-2.99513 0.28338,-3.64951 0.21438,-0.65437 0.71743,-1.95582 0.36768,-2.21531 -0.34976,-0.2595 -2.08856,-0.13009 -2.08856,-0.13009"
       id="path3167"
       inkscape:connector-curvature="0" />
    <path
       style="fill:none;stroke:#000000;stroke-width:0.875;stroke-linecap:butt;stroke-linejoin:miter;stroke-miterlimit:4;stroke-dasharray:none;stroke-opacity:1"
       d="m 328.94991,808.49029 c -0.67627,0.009 -1.08577,-0.40679 -1.08577,-0.40679"
       id="path3169"
       inkscape:connector-curvature="0" />
    <path
       style="fill:none;stroke:#000000;stroke-width:0.875;stroke-linecap:butt;stroke-linejoin:miter;stroke-miterlimit:4;stroke-dasharray:none;stroke-opacity:1"
       d="m 323.07247,821.72181 c 1.9107,0.4128 2.49074,0.61986 2.89027,-0.39156 0.39951,-1.01145 0.50904,-2.12639 1.26562,-2.95266 0.75657,-0.82626 1.14151,-1.68903 1.59346,-2.47016 0.45196,-0.78114 0.96364,-1.40632 1.24371,-2.72967 0.28007,-1.32334 -0.18582,-4.22091 -0.18582,-4.22091"
       id="path3171"
       inkscape:connector-curvature="0" />
    <path
       style="fill:none;stroke:#000000;stroke-width:0.875;stroke-linecap:butt;stroke-linejoin:miter;stroke-miterlimit:4;stroke-dasharray:none;stroke-opacity:1"
       d="m 330.58983,807.07535 c 0.95303,0.99417 1.1581,3.49089 1.54568,4.12933 0.38758,0.63845 1.17735,1.76669 0.83755,2.93408 -0.3398,1.16739 -1.55697,2.09851 -1.92729,2.81261 -0.37033,0.71411 -1.38773,1.13951 -1.46073,1.88283 -0.073,0.7433 -0.49444,1.97772 -1.17802,2.06068 -0.68357,0.083 -1.42687,0.01 -1.42687,0.01"
       id="path3173"
       inkscape:connector-curvature="0" />
    <path
       style="fill:none;stroke:#000000;stroke-width:0.875;stroke-linecap:butt;stroke-linejoin:miter;stroke-opacity:1;stroke-miterlimit:4;stroke-dasharray:none"
       d="m 344.18763,806.85748 c 0,0 6.22235,0.53199 8.08357,0.51486 1.86122,-0.0171 5.82837,-0.38957 7.06951,-0.76445 1.24115,-0.37489 10.26731,-2.7544 10.26731,-2.7544"
       id="path3099"
       inkscape:connector-curvature="0" />
    <path
       style="fill:none;stroke:#000000;stroke-width:0.875;stroke-linecap:butt;stroke-linejoin:miter;stroke-miterlimit:4;stroke-dasharray:none;stroke-opacity:1"
       d="m 337.12328,805.36331 c 0.89207,-0.10433 2.03583,-0.2371 2.30668,-0.31331 0.27085,-0.0762 1.99097,0.0591 2.25535,0.0912 0.26438,0.0321 1.52872,0.42825 1.7134,0.5208 0.18468,0.0925 0.47759,0.28395 0.47759,0.28395 0,0 0.25418,0.74885 0.2347,1.16615 -0.0195,0.4173 -0.41565,1.68164 -0.41565,1.68164 l 0.32566,2.73676 0.11072,0.87614 -0.40934,1.75811"
       id="path3120"
       inkscape:connector-curvature="0" />
    <g
       id="g9"
       transform="matrix(-1.3370826,0,0,1.4649999,562.66714,714.29258)">
      <line
         style="fill:none;stroke:#000000;stroke-width:0.44999999"
         x1="127.884"
         y1="33.676998"
         x2="127.884"
         y2="82.276001"
         id="line11" />
      <line
         style="fill:none;stroke:#000000;stroke-width:0.44999999"
         x1="128.446"
         y1="38.908001"
         x2="134.19701"
         y2="33.796001"
         id="line13" />
      <line
         style="fill:none;stroke:#000000;stroke-width:0.44999999"
         x1="134.028"
         y1="80.033997"
         x2="136.377"
         y2="77.945"
         id="line15" />
      <line
         style="fill:none;stroke:#000000;stroke-width:0.44999999"
         x1="128.446"
         y1="44.647999"
         x2="136.54601"
         y2="37.448002"
         id="line17" />
      <line
         style="fill:none;stroke:#000000;stroke-width:0.44999999"
         x1="128.446"
         y1="50.388"
         x2="136.54601"
         y2="43.188"
         id="line19" />
      <line
         style="fill:none;stroke:#000000;stroke-width:0.44999999"
         x1="128.446"
         y1="56.127998"
         x2="136.54601"
         y2="48.928001"
         id="line21" />
      <line
         style="fill:none;stroke:#000000;stroke-width:0.44999999"
         x1="128.446"
         y1="61.868999"
         x2="136.54601"
         y2="54.667999"
         id="line23" />
      <line
         style="fill:none;stroke:#000000;stroke-width:0.44999999"
         x1="128.446"
         y1="67.608002"
         x2="136.54601"
         y2="60.409"
         id="line25" />
      <line
         style="fill:none;stroke:#000000;stroke-width:0.44999999"
         x1="128.446"
         y1="73.348999"
         x2="136.54601"
         y2="66.149002"
         id="line27" />
      <line
         style="fill:none;stroke:#000000;stroke-width:0.44999999"
         x1="128.446"
         y1="79.088997"
         x2="136.54601"
         y2="71.889"
         id="line29" />
    </g>
    <path
       style="fill:#9c9c9c;fill-opacity:1;stroke:none;stroke-width:1.34101343"
       d="m 444.44697,777.98958 -7.6148,5.15059 -3.30122,2.81694 -1.27644,5.94179 1.40799,3.74163 c 0,0 0.96853,2.72938 0.96853,2.94946 0,0.22007 1.05624,0.0439 1.05624,0.0439 l 0.33031,-0.41704 c -0.3261,0.72245 -0.30641,1.48769 -0.22411,1.80456 0.10571,0.41211 1.36733,1.03964 1.85036,1.20823 0.48303,0.16859 2.42292,-0.55277 3.0732,-0.8672 0.65028,-0.31444 1.51228,-0.3908 2.18262,-0.34396 0.67169,0.0468 2.56087,-0.58864 3.63932,-1.23357 1.07845,-0.64493 4.94136,-1.86285 5.88333,-2.47298 0.94197,-0.61014 3.52144,-0.83619 4.93038,-1.05428 1.35811,-0.21003 3.0455,-1.51932 5.11356,-2.44668 l 0.20365,-0.0312 0.003,-0.0643 c 0.01,-0.004 0.0192,-0.009 0.0292,-0.0137 l -0.0282,-0.006 0.48037,-10.56816 -1.93707,-0.39657 -2.11246,-0.35176 -10.43175,-2.28882 -4.2259,-1.10106 z m 0.39657,8.40796 0.72398,4.86119 c -0.23432,0.34861 -0.53501,0.79069 -0.59535,0.89351 -0.20338,0.34521 -2.17287,1.51466 -2.91146,1.77825 -0.73725,0.26493 -2.95208,1.0566 -3.46589,1.33491 -0.23276,0.12669 -0.5568,0.4528 -0.9052,0.83796 l 0.33129,-0.41898 -0.48426,-0.83602 1.18777,-3.12485 2.50904,-2.11343 0.22021,-1.27644 1.76071,-0.30791 1.62916,-1.62819 z m 1.9361,2.86078 0.12083,0.15785 -0.0741,-0.0156 c 0,0 -0.34095,0.49977 -0.65088,0.95392 l 0.60411,-1.09618 z"
       id="path149-9"
       inkscape:connector-curvature="0" />
    <g
       id="g6358">
      <path
         id="path147"
         d="m 461.3419,781.80314 c -5.77356,-1.0731 -11.01325,-2.06457 -12.3767,-2.51816 -1.36344,-0.45359 -3.36779,-1.40224 -4.0542,-1.22429 -0.68774,0.17796 -2.80984,1.60563 -3.3397,2.10872 -0.52986,0.5031 -4.72455,3.2728 -5.15138,3.60329 -0.42817,0.3305 -2.19435,1.15338 -2.8821,3.31027 -0.68774,2.15689 -1.03563,3.9311 -0.9607,4.79279 0.0749,0.86035 1.09049,3.08949 1.35542,3.82674 0.26359,0.73725 0.48169,2.14752 0.89781,2.6252 0.41746,0.47901 1.13999,0.43887 1.13999,0.43887"
         style="fill:none;stroke:#000000;stroke-width:0.66900003;stroke-miterlimit:4;stroke-dasharray:none"
         inkscape:connector-curvature="0" />
      <path
         id="path149"
         d="m 463.06259,792.71871 c -2.17829,0.92993 -3.93913,2.33753 -5.3494,2.55562 -1.40894,0.2181 -3.98864,0.44423 -4.93061,1.05436 -0.94197,0.61014 -4.80483,1.82774 -5.88328,2.47267 -1.07844,0.64492 -2.96773,1.28048 -3.63942,1.23365 -0.67035,-0.0468 -1.53203,0.0294 -2.18231,0.34387 -0.65028,0.31444 -2.59041,1.03563 -3.07343,0.86704 -0.48303,-0.16859 -1.74478,-0.79612 -1.85049,-1.20823 -0.10704,-0.41211 -0.11507,-1.58288 0.61683,-2.43119 0.73324,-0.84964 1.67119,-2.04449 2.18499,-2.32414 0.5138,-0.27831 2.72822,-1.07042 3.46547,-1.33534 0.73859,-0.26359 2.70816,-1.43302 2.91154,-1.77823 0.20338,-0.34655 1.85449,-2.75098 1.85449,-2.75098"
         style="fill:none;stroke:#000000;stroke-width:0.66900003;stroke-miterlimit:4;stroke-dasharray:none"
         inkscape:connector-curvature="0" />
      <path
         id="path151"
         d="m 445.64825,790.84147 c 0,0 -0.5138,-6.24321 -0.31042,-6.58842"
         style="fill:none;stroke:#000000;stroke-width:0.66900003;stroke-miterlimit:4;stroke-dasharray:none"
         inkscape:connector-curvature="0" />
      <path
         id="path153"
         d="m 444.85748,786.64811 c -1.1614,1.18014 -3.06541,2.03781 -3.53238,1.64577"
         style="fill:none;stroke:#000000;stroke-width:0.66900003;stroke-miterlimit:4;stroke-dasharray:none"
         inkscape:connector-curvature="0" />
      <path
         id="path155"
         d="m 440.88356,787.85902 c -0.69444,0.28901 -2.7978,1.22429 -3.0052,1.27781 -0.20605,0.0535 -0.82957,2.46196 -1.02358,2.9878 -0.19402,0.52718 -0.41613,0.80415 -0.41613,0.80415 0,0 1.60697,1.81971 1.59359,2.33619"
         style="fill:none;stroke:#000000;stroke-width:0.66900003;stroke-miterlimit:4;stroke-dasharray:none"
         inkscape:connector-curvature="0" />
      <path
         id="path157"
         d="m 441.79207,789.3469 c -1.049,0.85767 -2.70146,2.21309 -2.70146,2.21309 l -0.9714,1.91203"
         style="fill:none;stroke:#000000;stroke-width:0.66900003;stroke-miterlimit:4;stroke-dasharray:none"
         inkscape:connector-curvature="0" />
      <line
         id="line159"
         y2="787.27698"
         x2="440.91568"
         y1="785.86536"
         x1="440.89291"
         style="fill:none;stroke:#000000;stroke-width:0.66900003;stroke-miterlimit:4;stroke-dasharray:none" />
      <line
         id="line161"
         y2="788.28448"
         x2="436.828"
         y1="788.5896"
         x1="437.34717"
         style="fill:none;stroke:#000000;stroke-width:0.66900003;stroke-miterlimit:4;stroke-dasharray:none" />
      <line
         id="line163"
         y2="792.78827"
         x2="436.03723"
         y1="792.72272"
         x1="435.53146"
         style="fill:none;stroke:#000000;stroke-width:0.66900003;stroke-miterlimit:4;stroke-dasharray:none" />
      <polyline
         transform="matrix(-1.338021,0,0,1.338021,463.19372,715.33962)"
         id="polyline165"
         points="19.939,63.062 18.358,62.079 17.266,63.549 "
         style="fill:none;stroke:#000000;stroke-width:0.49999218;stroke-miterlimit:4;stroke-dasharray:none" />
      <path
         id="path167"
         d="m 441.49102,797.30277 c 0,0 -0.1338,0.62084 0.10035,0.81753"
         style="fill:none;stroke:#000000;stroke-width:0.66900003;stroke-miterlimit:4;stroke-dasharray:none"
         inkscape:connector-curvature="0" />
      <polyline
         transform="matrix(-1.338021,0,0,1.338021,463.19372,715.33962)"
         id="polyline169"
         points="18.041,55.73 18.629,56.138 18.822,56.662 "
         style="fill:none;stroke:#000000;stroke-width:0.49999218;stroke-miterlimit:4;stroke-dasharray:none" />
    </g>
    <text
       xml:space="preserve"
       style="color:#000000;font-style:normal;font-variant:normal;font-weight:normal;font-stretch:normal;font-size:12.5px;line-height:125%;font-family:'Liberation Sans';-inkscape-font-specification:'Liberation Sans';text-indent:0;text-align:start;text-decoration:none;text-decoration-line:none;text-decoration-style:solid;text-decoration-color:#000000;letter-spacing:0px;word-spacing:0px;text-transform:none;direction:ltr;block-progression:tb;writing-mode:lr-tb;baseline-shift:baseline;text-anchor:start;white-space:normal;clip-rule:nonzero;display:inline;overflow:visible;visibility:visible;opacity:1;isolation:auto;mix-blend-mode:normal;color-interpolation:sRGB;color-interpolation-filters:linearRGB;solid-color:#000000;solid-opacity:1;fill:#000000;fill-opacity:1;fill-rule:nonzero;stroke:none;stroke-width:1.24999988px;stroke-linecap:butt;stroke-linejoin:miter;stroke-miterlimit:4;stroke-dasharray:none;stroke-dashoffset:0;stroke-opacity:1;marker:none;marker-start:none;marker-mid:none;marker-end:none;color-rendering:auto;image-rendering:auto;shape-rendering:auto;text-rendering:auto;enable-background:accumulate"
       x="358.50046"
       y="830.3844"
       id="text6338"
       sodipodi:linespacing="125%"><tspan
         sodipodi:role="line"
         id="tspan6340"
         x="358.50046"
         y="830.3844">1</tspan></text>
    <text
       xml:space="preserve"
       style="color:#000000;font-style:normal;font-variant:normal;font-weight:normal;font-stretch:normal;font-size:12.5px;line-height:125%;font-family:'Liberation Sans';-inkscape-font-specification:'Liberation Sans';text-indent:0;text-align:start;text-decoration:none;text-decoration-line:none;text-decoration-style:solid;text-decoration-color:#000000;letter-spacing:0px;word-spacing:0px;text-transform:none;direction:ltr;block-progression:tb;writing-mode:lr-tb;baseline-shift:baseline;text-anchor:start;white-space:normal;clip-rule:nonzero;display:inline;overflow:visible;visibility:visible;opacity:1;isolation:auto;mix-blend-mode:normal;color-interpolation:sRGB;color-interpolation-filters:linearRGB;solid-color:#000000;solid-opacity:1;fill:#000000;fill-opacity:1;fill-rule:nonzero;stroke:none;stroke-width:1.24999988px;stroke-linecap:butt;stroke-linejoin:miter;stroke-miterlimit:4;stroke-dasharray:none;stroke-dashoffset:0;stroke-opacity:1;marker:none;marker-start:none;marker-mid:none;marker-end:none;color-rendering:auto;image-rendering:auto;shape-rendering:auto;text-rendering:auto;enable-background:accumulate"
       x="451.60284"
       y="830.3844"
       id="text6342"
       sodipodi:linespacing="125%"><tspan
         sodipodi:role="line"
         id="tspan6344"
         x="451.60284"
         y="830.3844">2</tspan></text>
  </g>
</svg>
