<?xml version="1.0" encoding="iso-8859-1"?>
<!-- Generator: Adobe Illustrator 11 Build 196, SVG Export Plug-In . SVG Version: 6.0.0 Build 78)  -->
<!DOCTYPE svg PUBLIC "-//W3C//DTD SVG 1.0//EN"    "http://www.w3.org/TR/2001/REC-SVG-20010904/DTD/svg10.dtd" [
	<!ENTITY ns_flows "http://ns.adobe.com/Flows/1.0/">
	<!ENTITY ns_svg "http://www.w3.org/2000/svg">
	<!ENTITY ns_xlink "http://www.w3.org/1999/xlink">
]>
<svg  
	 width="94.639" height="92.954" viewBox="0 0 94.639 92.954" style="overflow:visible;enable-background:new 0 0 94.639 92.954"
	 xml:space="preserve">
	<style type="text/css">
	
	</style>
	<g id="Layer_1">
		<g>
			<line style="fill:none;stroke:#000000;" x1="13.599" y1="80.662" x2="87.849" y2="80.662"/>
			<path d="M94.639,80.662c-3.195,1.186-7.159,3.208-9.615,5.35l1.935-5.35l-1.935-5.349C87.48,77.454,91.444,79.477,94.639,80.662z
				"/>
			<line style="fill:none;stroke:#000000;" x1="13.032" y1="46.175" x2="44.393" y2="20.549"/>
			<path d="M49.65,16.253c-1.724,2.939-3.513,7.014-4.061,10.226l-1.887-5.367l-4.883-2.917
				C42.077,18.299,46.427,17.357,49.65,16.253z"/>
			<line style="fill:none;stroke:#000000;" x1="14.349" y1="52.506" x2="43.579" y2="52.506"/>
			<path d="M50.369,52.506c-3.194,1.185-7.159,3.208-9.615,5.35l1.935-5.35l-1.935-5.349C43.21,49.298,47.174,51.321,50.369,52.506z
				"/>
			<line style="fill:none;stroke:#000000;" x1="5.349" y1="45.412" x2="5.349" y2="21.271"/>
			<path d="M5.349,14.482c1.186,3.195,3.208,7.159,5.35,9.615l-5.35-1.935L0,24.097C2.141,21.641,4.164,17.677,5.349,14.482z"/>
		</g>
		<text transform="matrix(1 0 0 1 39.6235 89.9541)"><tspan x="0" y="0" style="font-family:'Myriad-Roman'; font-size:12;">motion</tspan></text>
		<text transform="matrix(0.7822 -0.623 0.623 0.7822 30.1064 23.6831)"><tspan x="0" y="0" style="font-family:'Myriad-Roman'; font-size:12;">f</tspan><tspan x="3.36" y="0" style="font-family:'Myriad-Roman'; font-size:12;">o</tspan><tspan x="9.948" y="0" style="font-family:'Myriad-Roman'; font-size:12;">rc</tspan><tspan x="19.107" y="0" style="font-family:'Myriad-Roman'; font-size:12;">e</tspan></text>
		<text transform="matrix(1 0 0 1 51.6133 57.1411)"><tspan x="0" y="0" style="font-family:'Myriad-Roman'; font-size:12;">F</tspan></text>
		<text transform="matrix(1 0 0 1 1.7612 10.4443)"><tspan x="0" y="0" style="font-family:'Myriad-Roman'; font-size:12;">F</tspan></text>
		<text transform="matrix(1 0 0 1 55.6665 61.438)"><tspan x="0" y="0" style="font-family:'Myriad-Roman'; font-size:9;">||</tspan></text>
		<line style="fill:none;stroke:#000000;" x1="4.178" y1="11.993" x2="9.491" y2="11.993"/>
		<g>
			<line style="fill:none;stroke:#000000;" x1="6.63" y1="11.993" x2="6.63" y2="8.724"/>
		</g>
	</g>
</svg>
