<?xml version="1.0" encoding="iso-8859-1"?>
<!-- Generator: Adobe Illustrator 11 Build 196, SVG Export Plug-In . SVG Version: 6.0.0 Build 78)  -->
<!DOCTYPE svg PUBLIC "-//W3C//DTD SVG 1.0//EN"    "http://www.w3.org/TR/2001/REC-SVG-20010904/DTD/svg10.dtd" [
	<!ENTITY ns_flows "http://ns.adobe.com/Flows/1.0/">
	<!ENTITY ns_svg "http://www.w3.org/2000/svg">
	<!ENTITY ns_xlink "http://www.w3.org/1999/xlink">
]>
<svg  
	 width="268.026" height="132.5" viewBox="0 0 268.026 132.5" style="overflow:visible;enable-background:new 0 0 268.026 132.5"
	 xml:space="preserve">
	<style type="text/css">
	
	</style>
	<g id="Layer_1">
		<line style="fill:none;stroke:#000000;stroke-width:0.5;" x1="28" y1="0" x2="28" y2="120"/>
		<g>
			<line style="fill:none;stroke:#000000;stroke-width:0.5;" x1="232" y1="31" x2="28" y2="31"/>
			<path d="M235.018,31c-1.42,0.527-3.182,1.426-4.273,2.378l0.86-2.378l-0.86-2.377C231.836,29.574,233.598,30.473,235.018,31z"/>
		</g>
		<g>
			<text transform="matrix(1 0 0 1 239 28)"><tspan x="0" y="0" style="font-family:Liberation Sans; font-size:7.650000;">applied</tspan></text>
			<text transform="matrix(1 0 0 1 239 39)"><tspan x="0" y="0" style="font-family:Liberation Sans; font-size:7.650000;">force</tspan></text>
		</g>
		<g>
			<text transform="matrix(1 0 0 1 0 70)"><tspan x="0" y="0" style="font-family:Liberation Sans; font-size:7.650000;">friction</tspan></text>
			<text transform="matrix(1 0 0 1 0 81)"><tspan x="0" y="0" style="font-family:Liberation Sans; font-size:7.650000;">force</tspan></text>
		</g>
		<g>
			<text transform="matrix(1 0 0 1 61.5 51.5)"><tspan x="0" y="0" style="font-family:Liberation Sans; font-size:7.650000;">static friction</tspan></text>
		</g>
		<g>
			<text transform="matrix(1 0 0 1 122.5 51.5)"><tspan x="0" y="0" style="font-family:Liberation Sans; font-size:7.650000;">kinetic friction</tspan></text>
		</g>
		<line style="fill:none;stroke:#000000;stroke-dasharray:3;" x1="116" y1="3.5" x2="116" y2="132.5"/>
		<polyline style="fill:none;stroke:#000000;stroke-width:3;" points="28,31 115.5,98.5 115.5,83.5 120.5,82.5 122.5,83.5 130.5,80 
			132.5,83.5 144.5,82 148.5,80 156.5,83.5 170.5,81 176.5,83 183.5,83.5 190,82 197.5,79.5 205,84.5 215,82.5 220.5,81 227,84.5 
			235,86.5 240.5,83.5 "/>
	</g>
</svg>
