<?xml version="1.0" encoding="UTF-8" standalone="no"?>
<!-- Created with Inkscape (http://www.inkscape.org/) -->

<svg
   xmlns:dc="http://purl.org/dc/elements/1.1/"
   xmlns:cc="http://creativecommons.org/ns#"
   xmlns:rdf="http://www.w3.org/1999/02/22-rdf-syntax-ns#"
   xmlns:svg="http://www.w3.org/2000/svg"
   xmlns="http://www.w3.org/2000/svg"
   xmlns:xlink="http://www.w3.org/1999/xlink"
   xmlns:sodipodi="http://sodipodi.sourceforge.net/DTD/sodipodi-0.dtd"
   xmlns:inkscape="http://www.inkscape.org/namespaces/inkscape"
   width="744.09448819"
   height="1052.3622047"
   id="svg2"
   sodipodi:version="0.32"
   sodipodi:docname="funicular-railroad.svg"
   inkscape:output_extension="org.inkscape.output.svg.inkscape"
   version="1.1">
  <defs
     id="defs4">
    <inkscape:perspective
       sodipodi:type="inkscape:persp3d"
       inkscape:vp_x="0 : 526.18109 : 1"
       inkscape:vp_y="0 : 1000 : 0"
       inkscape:vp_z="744.09448 : 526.18109 : 1"
       inkscape:persp3d-origin="372.04724 : 350.78739 : 1"
       id="perspective10" />
    <inkscape:perspective
       id="perspective2463"
       inkscape:persp3d-origin="372.04724 : 350.78739 : 1"
       inkscape:vp_z="744.09448 : 526.18109 : 1"
       inkscape:vp_y="0 : 1000 : 0"
       inkscape:vp_x="0 : 526.18109 : 1"
       sodipodi:type="inkscape:persp3d" />
  </defs>
  <sodipodi:namedview
     id="base"
     pagecolor="#ffffff"
     bordercolor="#666666"
     borderopacity="1.0"
     gridtolerance="10000"
     guidetolerance="10"
     objecttolerance="10"
     inkscape:pageopacity="0.0"
     inkscape:pageshadow="2"
     inkscape:zoom="2.4113274"
     inkscape:cx="564.61513"
     inkscape:cy="555.02636"
     inkscape:document-units="mm"
     inkscape:current-layer="layer1"
     showgrid="false"
     inkscape:window-width="1278"
     inkscape:window-height="996"
     inkscape:window-x="2"
     inkscape:window-y="2"
     inkscape:window-maximized="0" />
  <metadata
     id="metadata7">
    <rdf:RDF>
      <cc:Work
         rdf:about="">
        <dc:format>image/svg+xml</dc:format>
        <dc:type
           rdf:resource="http://purl.org/dc/dcmitype/StillImage" />
      </cc:Work>
    </rdf:RDF>
  </metadata>
  <g
     inkscape:label="Layer 1"
     inkscape:groupmode="layer"
     id="layer1">
    <image
       sodipodi:absref="/home/bcrowell/Documents/writing/books/physics/share/mechanics/figs/funicular-railroad-photo.jpg"
       xlink:href="funicular-railroad-photo.jpg"
       y="398.45654"
       x="243.50002"
       id="image2465"
       height="131.04527"
       width="400.39371" />
    <path
       style="opacity:1;fill:#ffffff;fill-opacity:1;fill-rule:nonzero;stroke:#ff0303;stroke-width:0.75902550999999985;stroke-linecap:butt;stroke-linejoin:miter;marker:none;marker-start:none;marker-mid:none;marker-end:none;stroke-miterlimit:4;stroke-dasharray:none;stroke-dashoffset:0;stroke-opacity:1;visibility:visible;display:inline;overflow:visible;enable-background:accumulate"
       d="M 510.16802,448.801 L 510.28794,449.03697 C 511.20547,450.55357 511.66784,452.55432 512.7601,453.78013 C 514.34038,452.39608 516.22014,451.56697 518.04345,450.42244 C 520.47225,448.58504 523.36129,447.12437 525.82162,445.39806 C 527.86585,444.02885 530.11093,442.99968 531.55339,440.88306 C 532.32012,438.73884 533.65599,436.03238 534.30102,433.8436 C 534.87192,431.22459 535.76774,428.05902 537.74708,426.14689 C 541.01278,422.92665 540.7412,424.5266 543.11552,425.36334 C 545.42852,426.91167 546.78324,428.3294 549.1819,428.30501 C 552.0976,428.24642 554.49258,426.69022 556.81629,425.04516 C 556.76478,425.40987 556.71235,425.77652 556.64435,426.1385 L 559.45318,431.48339 C 559.51744,430.87421 559.61378,430.26166 559.70616,429.65626 C 559.74841,429.18259 559.86548,428.73727 560.00833,428.2862 C 560.14669,427.80853 560.33209,427.348 560.54442,426.89877 C 560.79978,426.41538 561.06436,425.93457 561.33251,425.458 C 561.66842,424.91682 561.98105,424.3581 562.28128,423.79637 C 562.55504,423.27718 562.87731,422.78835 563.1703,422.28032 C 563.45948,421.85895 563.73704,421.43574 563.94006,420.96543 C 564.1348,420.6443 564.33515,420.32634 564.5416,420.01173 C 564.75161,419.69452 564.95653,419.37773 565.16831,419.06167 C 565.25967,418.93242 565.32775,418.7697 565.38896,418.60529 C 565.99719,418.05399 565.846,416.79582 565.37513,415.60812 C 565.01748,414.24337 564.26538,413.05394 563.37047,413.04116 C 563.18742,412.99748 563.0255,413.04062 562.87723,413.16223 C 562.86045,413.17025 562.84005,413.17118 562.82322,413.18007 C 562.49129,413.34851 562.11583,413.39207 561.75388,413.46155 C 561.31993,413.55617 560.88887,413.66478 560.45247,413.74784 C 560.08065,413.75702 559.71613,413.80906 559.34584,413.84392 C 558.89185,413.83446 558.44345,413.88793 557.98926,413.89079 C 557.55474,413.8854 557.12602,413.82514 556.6961,413.76691 C 556.26659,413.70657 555.8286,413.64148 555.39952,413.57827 C 554.96536,413.56076 554.57618,413.41543 554.16976,413.28365 C 553.94596,413.19695 553.82944,412.98668 553.64015,412.85952 C 553.39437,412.69442 553.55203,412.86028 553.38703,412.65558 C 553.11908,412.44818 552.766,412.39984 552.56628,412.11196 C 552.314,411.89103 552.22195,411.61536 551.91858,411.43927 C 551.73324,411.37545 551.57797,411.27064 551.40292,411.18427 L 553.12043,416.96169 C 553.262,417.05645 553.43093,417.13148 553.53881,417.26681 C 553.7204,417.52863 553.92686,417.75342 554.18652,417.93952 C 554.47712,418.09731 554.77213,418.24521 555.00725,418.48313 C 555.16772,418.58006 555.31828,418.69662 555.47598,418.79557 C 553.89025,419.93576 552.32051,421.09689 550.52612,421.89325 C 548.03938,423.57385 545.42645,422.01274 543.59186,420.16449 C 540.89212,418.65291 536.63094,418.58578 534.85594,421.54155 C 531.78293,423.76791 531.0988,427.72725 530.20407,431.16138 C 529.69638,433.58578 529.34783,435.6918 526.6292,437.5314 C 523.71652,439.50229 521.94629,440.69668 517.68438,443.17154 C 514.82996,444.9673 511.92859,446.01889 510.16802,448.801 z"
       id="path2483"
       sodipodi:nodetypes="ccccccccccccccccccccsscccssccccsccscccccccccccccscc" />
    <path
       style="opacity:1;fill:#ffffff;fill-opacity:1;fill-rule:nonzero;stroke:#ff0303;stroke-width:0.75902550999999985;stroke-linecap:butt;stroke-linejoin:miter;marker:none;marker-start:none;marker-mid:none;marker-end:none;stroke-miterlimit:4;stroke-dasharray:none;stroke-dashoffset:0;stroke-opacity:1;visibility:visible;display:inline;overflow:visible;enable-background:accumulate"
       d="M 589.02798,437.82711 L 588.89503,437.59822 C 587.89399,436.1354 587.32027,434.16369 586.16106,433.00099 C 584.66079,434.47139 582.83042,435.40448 581.07409,436.64936 C 578.75203,438.61992 575.94935,440.24013 573.58957,442.10154 C 571.62525,443.58311 569.44134,444.73642 568.11971,446.93052 C 567.47429,449.11431 566.29212,451.89136 565.7707,454.11283 C 565.34741,456.75971 564.63032,459.97049 562.76118,461.99049 C 559.68099,465.3886 559.86253,463.77595 557.44507,463.07352 C 555.04897,461.65719 553.61696,460.31757 551.22343,460.47628 C 548.31559,460.69809 546.01154,462.38601 543.78364,464.15865 C 543.81464,463.79163 543.84645,463.42261 543.89405,463.0574 L 540.79024,457.87823 C 540.76022,458.49005 540.69833,459.10705 540.64001,459.71667 C 540.62435,460.19196 540.53242,460.64313 540.41505,461.1015 C 540.30367,461.58617 540.14436,462.05637 539.95753,462.51679 C 539.72964,463.01372 539.49241,463.5086 539.25138,463.99944 C 538.94631,464.55858 538.66547,465.13394 538.39717,465.7116 C 538.15292,466.2453 537.85854,466.75142 537.59447,467.27507 C 537.32935,467.71197 537.07593,468.15007 536.89957,468.63101 C 536.72313,468.96255 536.5409,469.29122 536.35239,469.61691 C 536.16049,469.94538 535.97363,470.27316 535.77989,470.60058 C 535.69592,470.73475 535.63706,470.90103 535.58515,471.0686 C 535.00875,471.65311 535.23019,472.90084 535.76685,474.0603 C 536.20038,475.40287 537.01792,476.5483 537.91215,476.51093 C 538.09735,476.54429 538.2566,476.49216 538.39783,476.36243 C 538.41413,476.35348 538.43445,476.35141 538.45076,476.34159 C 538.77273,476.15482 539.14517,476.0903 539.50264,476.00065 C 539.93061,475.88186 540.35492,475.74928 540.78598,475.64192 C 541.1567,475.61192 541.51774,475.53955 541.8855,475.484 C 542.33929,475.46801 542.78399,475.3895 543.23731,475.36122 C 543.67145,475.34225 544.10288,475.3784 544.53538,475.41246 C 544.96759,475.44865 545.40855,475.4891 545.8405,475.52818 C 546.27496,475.52133 546.67166,475.64464 547.08483,475.75345 C 547.31313,475.82748 547.44125,476.03089 547.63736,476.14725 C 547.892,476.29832 547.7253,476.14155 547.90152,476.33669 C 548.18065,476.52875 548.53589,476.55723 548.75142,476.83347 C 549.01568,477.03993 549.12303,477.31001 549.43579,477.46884 C 549.62441,477.52218 549.78531,477.61812 549.96491,477.69455 L 547.92648,472.02241 C 547.77983,471.93572 547.60696,471.87027 547.49167,471.74119 C 547.2957,471.48996 547.07697,471.27709 546.8073,471.10583 C 546.50831,470.96457 546.20548,470.83343 545.9574,470.60904 C 545.79176,470.52126 545.6349,470.41332 545.47191,470.32335 C 546.99129,469.09612 548.49351,467.84889 550.24048,466.95327 C 552.62917,465.13601 555.32545,466.54831 557.26069,468.29089 C 560.04086,469.64887 564.29911,469.47721 565.90576,466.42665 C 568.84923,464.03165 569.3105,460.0402 570.01147,456.56134 C 570.38256,454.11232 570.61259,451.99008 573.22391,450.00108 C 576.02162,447.87014 577.72216,446.57847 581.83875,443.86875 C 584.5881,441.91593 587.42601,440.70347 589.02798,437.82711 z"
       id="path3261"
       sodipodi:nodetypes="ccccccccccccccccccccsscccssccccsccscccccccccccccscc" />
  </g>
</svg>
