<?xml version="1.0" encoding="iso-8859-1"?>
<!-- Generator: Adobe Illustrator 11 Build 196, SVG Export Plug-In . SVG Version: 6.0.0 Build 78)  -->
<!DOCTYPE svg PUBLIC "-//W3C//DTD SVG 1.0//EN"    "http://www.w3.org/TR/2001/REC-SVG-20010904/DTD/svg10.dtd" [
	<!ENTITY ns_flows "http://ns.adobe.com/Flows/1.0/">
	<!ENTITY ns_svg "http://www.w3.org/2000/svg">
	<!ENTITY ns_xlink "http://www.w3.org/1999/xlink">
]>
<svg  
	 width="147.402" height="77.524" viewBox="0 0 147.402 77.524" style="overflow:visible;enable-background:new 0 0 147.402 77.524"
	 xml:space="preserve">
	<g id="Layer_1">
		<g>
			<path style="fill:#B4B4B4;" d="M121.554,9.425c-0.645,3.742-1.175,7.499-1.427,11.334c-0.02,0.28-0.031,0.561-0.036,0.841
				c-0.342,0.285-0.677,0.579-1,0.885c-4.749,6.44-7.87,14.972-6.349,23.014h-7.281V24.05h1.138h7.15v-6.337V9.425h-7.15v8.288
				h-2.325V9.425h-5.312v8.288h-3.412V9.425h-7.15v8.288v6.337h7.15h3.412V45.5H75.384l6.559-36.075H51.065L55.014,45.5H42.737
				V9.425h-8.125V45.5h-6.5V9.425h-22.1V45.5h-3.9v31.525h132.599V45.5h-15.336c-0.015-0.088-0.018-0.176-0.041-0.264
				c-1.326-5.598,0.095-11.836,3.402-16.511c4.453,5.211,12.207,7.351,18.454,4.892c3.271-1.3,4.245-5.281,4.083-8.592
				c-0.163-3.169-2.661-5.545-5.484-6.764c-4.199-1.817-8.787-1.784-12.955-0.4c0.282-2.829,0.841-5.632,1.392-8.436H121.554z
				 M131.258,23.44c2.641-0.224,5.626-0.041,7.678,2.072c-0.244,0.894-0.244,1.849-0.772,2.641
				c-3.757-0.091-8.016-0.845-10.627-3.746C128.697,23.872,129.961,23.543,131.258,23.44z"/>
			<path style="fill:none;stroke:#000000;" d="M6.012,2.275V45.5h-3.9v31.525h132.599V45.5h-15.336
				c-0.015-0.088-0.018-0.176-0.041-0.264c-1.326-5.598,0.095-11.836,3.402-16.511c4.453,5.211,12.207,7.351,18.454,4.892
				c3.271-1.3,4.245-5.281,4.083-8.592c-0.163-3.169-2.661-5.545-5.484-6.764c-4.199-1.817-8.787-1.784-12.955-0.4
				c0.521-5.229,1.98-10.369,2.596-15.586h-6.545c-1.194,6.136-2.346,12.206-2.758,18.484c-0.02,0.28-0.031,0.561-0.036,0.841
				c-0.342,0.285-0.677,0.579-1,0.885c-4.749,6.44-7.87,14.972-6.349,23.014h-7.281V24.05h1.138h7.15v-6.337V2.275h-7.15v15.438
				h-2.325V2.275h-5.312v15.438h-3.412V2.275h-7.15v15.438v6.337h7.15h3.412V45.5H75.384l7.859-43.225h-32.96L55.014,45.5H42.737
				V2.275 M42.737,2.275h-8.125 M34.612,2.275V45.5h-6.5V2.275 M28.112,2.275h-22.1 M138.164,28.153
				c-3.757-0.091-8.016-0.845-10.627-3.746c1.16-0.535,2.424-0.864,3.721-0.967c2.641-0.224,5.626-0.041,7.678,2.072
				C138.692,26.406,138.692,27.361,138.164,28.153z"/>
			<rect x="2.437" style="fill:#FFFFFF;" width="129.349" height="3.9"/> 
			<circle style="fill:#FFFFFF;" cx="134.396" cy="31.094" r="1.414"/> 
			<circle style="fill:#FFFFFF;" cx="118.063" cy="30.76" r="1.414"/> 
			<circle style="fill:#FFFFFF;" cx="102.063" cy="30.76" r="1.414"/> 
			<circle style="fill:#FFFFFF;" cx="70.73" cy="30.76" r="1.414"/> 
			<circle style="fill:#FFFFFF;" cx="38.982" cy="30.76" r="1.414"/> 
			<circle style="fill:#FFFFFF;" cx="15.344" cy="30.76" r="1.414"/> 
		</g>
		<rect y="37.345" style="fill:none;" width="147.402" height="2.835"/> 
	</g>
</svg>
