<?xml version="1.0" encoding="iso-8859-1"?>
<!-- Generator: Adobe Illustrator 11 Build 196, SVG Export Plug-In . SVG Version: 6.0.0 Build 78)  -->
<!DOCTYPE svg PUBLIC "-//W3C//DTD SVG 1.0//EN"    "http://www.w3.org/TR/2001/REC-SVG-20010904/DTD/svg10.dtd" [
	<!ENTITY ns_flows "http://ns.adobe.com/Flows/1.0/">
	<!ENTITY ns_svg "http://www.w3.org/2000/svg">
	<!ENTITY ns_xlink "http://www.w3.org/1999/xlink">
]>
<svg
	 width="148.14" height="82.767" viewBox="0 0 148.14 82.767" style="overflow:visible;enable-background:new 0 0 148.14 82.767"
	 xml:space="preserve">
	<style type="text/css">
	
	</style>
	<g id="Layer_1">
		<polyline style="fill:none;stroke:#000000;stroke-width:0.5;" points="41.25,15.562 41.25,68.438 125.625,68.438 "/>
		<g>
			<text transform="matrix(1 0 0 1 0 27.1875)"><tspan x="0" y="0" style="font-family:Liberation Sans; font-size:7.650000;">energy of</tspan></text>
			<text transform="matrix(1 0 0 1 0 38.1875)"><tspan x="0" y="0" style="font-family:Liberation Sans; font-size:7.650000;">steady-</tspan></text>
			<text transform="matrix(1 0 0 1 0 49.1875)"><tspan x="0" y="0" style="font-family:Liberation Sans; font-size:7.650000;">state</tspan></text>
			<text transform="matrix(1 0 0 1 0 60.1875)"><tspan x="0" y="0" style="font-family:Liberation Sans; font-size:7.650000;">vibrations</tspan></text>
		</g>
		<g>
			<text transform="matrix(1 0 0 1 63.75 78.75)"><tspan x="0" y="0" style="font-family:Liberation Sans; font-size:7.650000;">frequency</tspan></text>
		</g>
		<path style="fill:none;stroke:#000000;" d="M41.438,60.375c29.812,0,27.562-34.875,33-34.875s-0.188,42.938,50.438,42.938"/>
		<line style="fill:none;stroke:#000000;stroke-width:0.5;stroke-dasharray:2;" x1="42.094" y1="25.125" x2="112.594" y2="25.125"/>
		<line style="fill:none;stroke:#000000;stroke-width:0.5;stroke-dasharray:2;" x1="42.094" y1="47.438" x2="112.594" y2="47.438"/>
		<g>
			<text transform="matrix(1 0 0 1 116.625 26.25)"><tspan x="0" y="0" style="font-family:Liberation Sans; font-size:7.650000;">max.</tspan></text>
		</g>
		<g>
			<text transform="matrix(1 0 0 1 113.625 50.25)"><tspan x="0" y="0" style="font-family:Liberation Sans; font-size:7.650000;">1/2 max.</tspan></text>
		</g>
		<line style="fill:none;stroke:#000000;stroke-width:0.5;stroke-dasharray:2;" x1="64.5" y1="47.062" x2="64.5" y2="10.688"/>
		<line style="fill:none;stroke:#000000;stroke-width:0.5;stroke-dasharray:2;" x1="83.062" y1="47.062" x2="83.062" y2="10.688"/>
		<g>
			<line style="fill:none;stroke:#000000;stroke-width:0.5;" x1="66.591" y1="14.625" x2="81.159" y2="14.625"/>
			<path d="M83.061,14.625c-0.895,0.332-2.004,0.898-2.692,1.498l0.542-1.498l-0.542-1.498
				C81.056,13.727,82.166,14.293,83.061,14.625z"/>
			<path d="M64.689,14.625c0.895-0.332,2.004-0.898,2.692-1.498l-0.542,1.498l0.542,1.498
				C66.694,15.523,65.584,14.957,64.689,14.625z"/>
		</g>
		<g>
			<text transform="matrix(1 0 0 1 60.375 9)"><tspan x="0" y="0" style="font-family:Liberation Sans; font-size:7.650000;">FWHM</tspan></text>
		</g>
	</g>
</svg>
