<?xml version="1.0" encoding="UTF-8" standalone="no"?>
<!-- Generator: Adobe Illustrator 11 Build 196, SVG Export Plug-In . SVG Version: 6.0.0 Build 78)  -->
<svg
   xmlns:a="http://ns.adobe.com/AdobeSVGViewerExtensions/3.0/"
   xmlns:dc="http://purl.org/dc/elements/1.1/"
   xmlns:cc="http://web.resource.org/cc/"
   xmlns:rdf="http://www.w3.org/1999/02/22-rdf-syntax-ns#"
   xmlns:svg="http://www.w3.org/2000/svg"
   xmlns="http://www.w3.org/2000/svg"
   xmlns:xlink="http://www.w3.org/1999/xlink"
   xmlns:sodipodi="http://sodipodi.sourceforge.net/DTD/sodipodi-0.dtd"
   xmlns:inkscape="http://www.inkscape.org/namespaces/inkscape"
   width="138.236"
   height="99.379"
   viewBox="0 0 138.236 99.379"
   style="overflow:visible;enable-background:new 0 0 138.236 99.379"
   xml:space="preserve"
   id="svg2"
   sodipodi:version="0.32"
   sodipodi:docname="gravitational-mass.svg"
   inkscape:output_extension="org.inkscape.output.svg.inkscape"
   sodipodi:docbase="/home/bcrowell/Documents/writing/books/physics/9share/mechanics/figs"><metadata
   id="metadata26"><rdf:RDF><cc:Work
       rdf:about=""><dc:format>image/svg+xml</dc:format><dc:type
         rdf:resource="http://purl.org/dc/dcmitype/StillImage" /></cc:Work></rdf:RDF></metadata><defs
   id="defs24"><linearGradient
   id="linearGradient4286"><stop
     style="stop-color:#ffffff;stop-opacity:1;"
     offset="0"
     id="stop4288" /><stop
     style="stop-color:#a0a0a0;stop-opacity:1;"
     offset="1"
     id="stop4290" /></linearGradient><marker
   inkscape:stockid="Arrow2Mend"
   orient="auto"
   refY="0.0"
   refX="0.0"
   id="Arrow2Mend"
   style="overflow:visible;"><path
     id="path3694"
     style="font-size:12.0;fill-rule:evenodd;stroke-width:0.62500000;stroke-linejoin:round;"
     d="M 8.7185878,4.0337352 L -2.2072895,0.016013256 L 8.7185884,-4.0017078 C 6.9730900,-1.6296469 6.9831476,1.6157441 8.7185878,4.0337352 z "
     transform="scale(0.6) rotate(180) translate(0,0)" /></marker><linearGradient
   inkscape:collect="always"
   xlink:href="#XMLID_10_"
   id="linearGradient3942"
   gradientUnits="userSpaceOnUse"
   gradientTransform="matrix(-1.3134915,-0.5451163,0.5451163,-1.3134915,-98.463672,168.42019)"
   x1="-114.9629"
   y1="61.7183"
   x2="-89.0181"
   y2="61.9043" /><linearGradient
   inkscape:collect="always"
   xlink:href="#XMLID_10_"
   id="linearGradient3940"
   gradientUnits="userSpaceOnUse"
   gradientTransform="matrix(1.420798,6.1196127e-2,-6.1196127e-2,1.420798,344.03053,33.538427)"
   x1="-114.9629"
   y1="61.7183"
   x2="-89.0181"
   y2="61.9043" /><linearGradient
   inkscape:collect="always"
   xlink:href="#XMLID_10_"
   id="linearGradient3938"
   gradientUnits="userSpaceOnUse"
   gradientTransform="matrix(1.4219766,1.985583e-2,-1.985583e-2,1.4219766,294.36363,26.623751)"
   x1="-114.9629"
   y1="61.7183"
   x2="-89.0181"
   y2="61.9043" /><linearGradient
   inkscape:collect="always"
   xlink:href="#XMLID_10_"
   id="linearGradient3936"
   gradientUnits="userSpaceOnUse"
   gradientTransform="matrix(1.4220612,-1.241014e-2,1.241014e-2,1.4220612,267.30835,24.568961)"
   x1="-114.9629"
   y1="61.7183"
   x2="-89.0181"
   y2="61.9043" /><linearGradient
   id="XMLID_10_"
   gradientUnits="userSpaceOnUse"
   x1="-114.9629"
   y1="61.7183"
   x2="-89.0181"
   y2="61.9043"
   gradientTransform="matrix(0.5945,0,0,0.5945,151.8038,28.2017)"><stop
     offset="0"
     style="stop-color:#999999"
     id="stop3482" /><stop
     offset="0.38"
     style="stop-color:#FFFFFF"
     id="stop3484" /><stop
     offset="1"
     style="stop-color:#808080"
     id="stop3486" /><midPointStop
     offset="0"
     style="stop-color:#999999" /><midPointStop
     offset="0.5"
     style="stop-color:#999999" /><midPointStop
     offset="0.38"
     style="stop-color:#FFFFFF" /><midPointStop
     offset="0.5"
     style="stop-color:#FFFFFF" /><midPointStop
     offset="1"
     style="stop-color:#808080" /></linearGradient><linearGradient
   inkscape:collect="always"
   xlink:href="#XMLID_10_"
   id="linearGradient3934"
   gradientUnits="userSpaceOnUse"
   gradientTransform="matrix(1.4220092,-1.7373984e-2,1.7373984e-2,1.4220092,314.68092,22.830372)"
   x1="-114.9629"
   y1="61.7183"
   x2="-89.0181"
   y2="61.9043" /><linearGradient
   inkscape:collect="always"
   xlink:href="#XMLID_10_"
   id="linearGradient2316"
   gradientUnits="userSpaceOnUse"
   gradientTransform="matrix(-0.9878098,-0.4099541,0.4099541,-0.9878098,205.473,59.582224)"
   x1="-114.9629"
   y1="61.7183"
   x2="-89.0181"
   y2="61.9043" /><linearGradient
   inkscape:collect="always"
   xlink:href="#XMLID_10_"
   id="linearGradient2323"
   gradientUnits="userSpaceOnUse"
   gradientTransform="matrix(-0.6226576,2.6818894e-2,2.6818894e-2,0.6226576,87.105839,49.392497)"
   x1="-114.9629"
   y1="61.7183"
   x2="-89.0181"
   y2="61.9043" /><linearGradient
   inkscape:collect="always"
   xlink:href="#XMLID_10_"
   id="linearGradient2326"
   gradientUnits="userSpaceOnUse"
   gradientTransform="matrix(-0.623174,8.7017171e-3,8.7017171e-3,0.623174,82.032606,41.303316)"
   x1="-114.9629"
   y1="61.7183"
   x2="-89.0181"
   y2="61.9043" /><linearGradient
   inkscape:collect="always"
   xlink:href="#XMLID_10_"
   id="linearGradient2329"
   gradientUnits="userSpaceOnUse"
   gradientTransform="matrix(-0.6232112,-5.4386811e-3,-5.4386811e-3,0.6232112,95.091009,39.201245)"
   x1="-114.9629"
   y1="61.7183"
   x2="-89.0181"
   y2="61.9043" /><linearGradient
   inkscape:collect="always"
   xlink:href="#XMLID_10_"
   id="linearGradient2332"
   gradientUnits="userSpaceOnUse"
   gradientTransform="matrix(-0.6231884,-7.614061e-3,-7.614061e-3,0.6231884,75.117731,39.050595)"
   x1="-114.9629"
   y1="61.7183"
   x2="-89.0181"
   y2="61.9043" />
		
		 
		 
		
		
		
		
		 
		 
	<radialGradient
   inkscape:collect="always"
   xlink:href="#linearGradient4286"
   id="radialGradient4292"
   cx="19.782629"
   cy="86.799431"
   fx="19.782629"
   fy="86.799431"
   r="5.3031323"
   gradientUnits="userSpaceOnUse" /><linearGradient
   inkscape:collect="always"
   xlink:href="#XMLID_10_"
   id="linearGradient4299"
   gradientUnits="userSpaceOnUse"
   gradientTransform="matrix(-0.6229595,1.8526756e-2,1.8526756e-2,0.6229595,100.52293,47.218117)"
   x1="-114.9629"
   y1="61.7183"
   x2="-89.0181"
   y2="61.9043" /></defs><sodipodi:namedview
   inkscape:cy="78.150799"
   inkscape:cx="132.94619"
   inkscape:zoom="1.1376678"
   inkscape:window-height="996"
   inkscape:window-width="1278"
   inkscape:pageshadow="2"
   inkscape:pageopacity="0.0"
   guidetolerance="10.0"
   gridtolerance="10.0"
   objecttolerance="10.0"
   borderopacity="1.0"
   bordercolor="#666666"
   pagecolor="#ffffff"
   id="base"
   inkscape:window-x="0"
   inkscape:window-y="0"
   inkscape:current-layer="svg2" />
	
<rect
   style="fill:#dedede;fill-opacity:1;fill-rule:evenodd;stroke:none;stroke-width:0.80661049pt;stroke-linecap:butt;stroke-linejoin:miter;stroke-opacity:1"
   id="rect2207"
   width="184.25198"
   height="151.42824"
   x="-2.7578442"
   y="-38.743496" /><g
   id="g2192"
   transform="translate(0.3566281,6.0146483)"><path
     style="fill:#7f7f7f"
     d="M 89.050164,-32.762791 L 89.050164,-33.044866 L 88.835065,-32.903185 L 88.621254,-33.044866 L 88.621254,-32.762791 L 28.942347,6.4547035 L 88.619967,6.4547035 L 89.048876,6.4547035 L 148.7265,6.4547035 L 89.050164,-32.762791 z M 88.835065,-19.5426 C 87.661684,-19.5426 86.70984,-20.494443 86.70984,-21.667825 C 86.70984,-22.841207 87.661684,-23.793051 88.835065,-23.793051 C 90.008447,-23.793051 90.960291,-22.841207 90.960291,-21.667825 C 90.960291,-20.494443 90.009735,-19.5426 88.835065,-19.5426 z "
     id="path5" /><ellipse
     transform="matrix(1.2880154,0,0,1.2880154,1.0944586e-2,-33.044866)"
     style="fill:#7f7f7f"
     cx="23.212"
     cy="92.014999"
     rx="22.274"
     ry="6.3639998"
     id="ellipse7"
     sodipodi:cx="23.212"
     sodipodi:cy="92.014999"
     sodipodi:rx="22.274"
     sodipodi:ry="6.3639998" /><ellipse
     transform="matrix(1.2880154,0,0,1.2880154,1.0944586e-2,-33.044866)"
     style="fill:#7f7f7f"
     cx="115.962"
     cy="93.014999"
     rx="22.274"
     ry="6.3639998"
     id="ellipse9"
     sodipodi:cx="115.962"
     sodipodi:cy="93.014999"
     sodipodi:rx="22.274"
     sodipodi:ry="6.3639998" /><polyline
     transform="matrix(1.2880154,0,0,1.2880154,1.0944586e-2,-33.044866)"
     style="fill:none;stroke:#000000"
     points="0.462,91 25.462,30.333 36.796,97.333 "
     id="polyline11" /><line
     style="fill:none;stroke:#000000;stroke-width:1.28801537"
     x1="55.990677"
     y1="81.588509"
     x2="32.806393"
     y2="6.0245066"
     id="line13" /><path
     style="font-size:13.29700756px;font-style:normal;font-variant:normal;font-weight:normal;font-stretch:normal;text-align:start;line-height:100%;writing-mode:lr-tb;text-anchor:start;fill:url(#linearGradient2332);stroke:#000000;stroke-width:0.60412872;stroke-miterlimit:4;stroke-dasharray:none;font-family:Liberation Sans"
     d="M 131.30622,76.11526 C 131.30758,76.004139 131.32251,75.897388 131.34268,75.790694 C 131.32662,75.732833 131.31475,75.67502 131.31546,75.616318 C 131.31897,75.329101 131.52357,75.057958 131.88722,74.813929 C 132.14807,74.572838 132.47926,74.410187 132.84686,74.35597 C 133.44917,74.142109 134.20405,73.968912 135.06102,73.848328 L 135.07234,72.921672 C 134.2818,72.581765 133.7947,72.119757 133.80085,71.615546 C 133.81316,70.608159 135.78969,69.814556 138.21639,69.844202 C 140.64206,69.873838 142.59861,70.714457 142.5863,71.722878 C 142.58013,72.227098 142.08293,72.677072 141.28326,72.99756 L 141.27193,73.92526 C 142.12676,74.066762 142.87717,74.258353 143.47303,74.486849 C 143.8392,74.550026 144.16631,74.720729 144.42121,74.968122 C 144.77877,75.220966 144.97668,75.497019 144.97318,75.784237 C 144.97246,75.842948 144.95918,75.900442 144.9417,75.957887 C 144.95928,76.064001 144.97158,76.172136 144.97023,76.283247 L 144.87772,83.853752 C 144.87489,84.086472 144.82501,84.307071 144.74075,84.510484 C 144.8189,84.6362 144.86241,84.764633 144.86081,84.895666 C 144.84705,86.021501 141.77815,86.896125 138.00547,86.850027 C 134.23279,86.80393 131.18619,85.853544 131.19993,84.728763 C 131.20153,84.597729 131.24817,84.470389 131.32937,84.346634 C 131.25114,84.14123 131.20563,83.919452 131.20847,83.686742 L 131.30098,76.115183 L 131.30622,76.11526 z "
     id="path3646" /><polyline
     transform="matrix(1.2880154,0,0,1.2880154,1.0944586e-2,-33.044866)"
     style="fill:none;stroke:#000000"
     points="137.624,91.521 112.624,30.854 101.291,97.854 "
     id="polyline15" /><line
     style="fill:none;stroke:#000000;stroke-width:1.28801537"
     x1="122.10965"
     y1="84.593452"
     x2="145.0724"
     y2="6.6955628"
     id="line17" /><circle
     transform="matrix(2.5569991,0,0,2.5569991,-19.272719,-151.00864)"
     style="fill:url(#radialGradient4292);fill-opacity:1;stroke:#000000;stroke-width:0.23626474;stroke-miterlimit:4;stroke-dasharray:none"
     cx="18.462"
     cy="88"
     r="5.1849999"
     id="circle19"
     sodipodi:cx="18.462"
     sodipodi:cy="88"
     sodipodi:rx="5.1849999"
     sodipodi:ry="5.1849999" /><path
     style="font-size:13.29700756px;font-style:normal;font-variant:normal;font-weight:normal;font-stretch:normal;text-align:start;line-height:100%;writing-mode:lr-tb;text-anchor:start;fill:url(#linearGradient2329);stroke:#000000;stroke-width:0.60412872;stroke-miterlimit:4;stroke-dasharray:none;font-family:Liberation Sans"
     d="M 151.40855,76.069543 C 151.40951,75.958422 151.42407,75.851622 151.44387,75.74485 C 151.42761,75.687047 151.41553,75.629293 151.41604,75.570581 C 151.41854,75.283344 151.62221,75.011496 151.98499,74.766201 C 152.245,74.524201 152.57562,74.3604 152.94303,74.304888 C 153.54458,74.088929 154.29885,73.913103 155.1554,73.789523 L 155.1635,72.862838 C 154.37177,72.525686 153.88305,72.065378 153.88746,71.561148 C 153.89624,70.553742 155.86998,69.753228 158.29678,69.774406 C 160.72254,69.795575 162.68201,70.62936 162.67321,71.637819 C 162.66881,72.142049 162.17317,72.593773 161.37464,72.917035 L 161.36654,73.844774 C 162.22186,73.983289 162.97294,74.17227 163.56959,74.398678 C 163.93597,74.460579 164.26369,74.630131 164.51943,74.876635 C 164.87788,75.128233 165.07677,75.40359 165.07426,75.690817 C 165.07374,75.749529 165.06067,75.80708 165.04338,75.864584 C 165.06133,75.97063 165.07402,76.078716 165.07306,76.189837 L 165.00698,83.760623 C 165.00496,83.993343 164.95585,84.214115 164.87229,84.417828 C 164.95088,84.543264 164.99484,84.671552 164.9937,84.802595 C 164.98387,85.928459 161.91804,86.813792 158.14522,86.78087 C 154.37241,86.747937 151.3225,85.808193 151.33232,84.683374 C 151.33346,84.552331 151.37966,84.424836 151.46042,84.300781 C 151.38147,84.095658 151.33518,83.874044 151.33721,83.641324 L 151.4033,76.069495 L 151.40855,76.069543 z "
     id="path3488" /><path
     style="font-size:13.29700756px;font-style:normal;font-variant:normal;font-weight:normal;font-stretch:normal;text-align:start;line-height:100%;writing-mode:lr-tb;text-anchor:start;fill:url(#linearGradient2326);stroke:#000000;stroke-width:0.60412872;stroke-miterlimit:4;stroke-dasharray:none;font-family:Liberation Sans"
     d="M 139.17208,76.884431 C 139.17052,76.77331 139.18266,76.66621 139.20004,76.559023 C 139.18245,76.501597 139.16908,76.444123 139.16825,76.385431 C 139.16424,76.098213 139.36169,75.821812 139.71881,75.568349 C 139.97326,75.320511 140.30008,75.149248 140.66613,75.085413 C 141.26265,74.855864 142.01273,74.662968 142.86626,74.519988 L 142.85331,73.593361 C 142.05414,73.274255 141.55511,72.82516 141.54807,72.320959 C 141.534,71.313601 143.48907,70.468527 145.91572,70.434638 C 148.34134,70.400768 150.31922,71.189886 150.3333,72.198278 C 150.34034,72.702479 149.85509,73.165328 149.06408,73.506627 L 149.07705,74.434317 C 149.93529,74.553394 150.69046,74.725275 151.29209,74.938083 C 151.65979,74.991662 151.99127,75.153743 152.25254,75.394379 C 152.6166,75.637771 152.82168,75.908556 152.82569,76.195773 C 152.82651,76.254465 152.81474,76.312297 152.79877,76.370187 C 152.81912,76.475799 152.83425,76.583566 152.8358,76.694687 L 152.94152,84.265018 C 152.94475,84.497728 152.90067,84.719564 152.82177,84.925103 C 152.90318,85.048732 152.95003,85.175986 152.95187,85.307019 C 152.96759,86.432815 149.92263,87.387474 146.15004,87.440163 C 142.37745,87.492843 139.307,86.622521 139.2913,85.497769 C 139.28947,85.366736 139.33276,85.238226 139.41069,85.112374 C 139.32712,84.909096 139.27581,84.688585 139.27256,84.455884 L 139.16683,76.884509 L 139.17208,76.884431 z "
     id="path3642" /><path
     style="font-size:13.29700756px;font-style:normal;font-variant:normal;font-weight:normal;font-stretch:normal;text-align:start;line-height:100%;writing-mode:lr-tb;text-anchor:start;fill:url(#linearGradient2323);stroke:#000000;stroke-width:0.60412872;stroke-miterlimit:4;stroke-dasharray:none;font-family:Liberation Sans"
     d="M 145.25579,83.297038 C 145.25101,83.186014 145.26003,83.078605 145.27427,82.970954 C 145.25504,82.914069 145.23998,82.857011 145.23746,82.798357 C 145.22509,82.511381 145.41441,82.229355 145.76401,81.965607 C 146.01116,81.710471 146.33286,81.529783 146.69691,81.455335 C 147.28649,81.208542 148.03064,80.993907 148.87965,80.826181 L 148.83977,79.900318 C 148.03166,79.604585 147.51978,79.170192 147.49808,78.666407 C 147.45472,77.65989 149.38439,76.758317 151.80903,76.653885 C 154.23263,76.549492 156.23264,77.280758 156.27604,78.288329 C 156.29774,78.792114 155.82614,79.268863 155.04539,79.633022 L 155.08532,80.559939 C 155.94667,80.654009 156.70651,80.803853 157.31408,80.999088 C 157.68318,81.041947 158.01923,81.194323 158.28739,81.427255 C 158.65837,81.659966 158.87124,81.924661 158.8836,82.211646 C 158.88612,82.2703 158.87604,82.328451 158.86176,82.386766 C 158.88517,82.49174 158.90344,82.599033 158.90822,82.710048 L 159.23401,90.274115 C 159.24403,90.506623 159.20642,90.729657 159.13352,90.9374 C 159.21848,91.058613 159.26903,91.184455 159.27466,91.315382 C 159.32312,92.440241 156.3072,93.483044 152.53775,93.645395 C 148.76828,93.807756 145.67383,93.027086 145.62542,91.903272 C 145.61978,91.772345 145.65932,91.642626 145.73356,91.514561 C 145.64411,91.313806 145.58641,91.09488 145.5764,90.862372 L 145.25054,83.297261 L 145.25579,83.297038 z "
     id="path3650" /><path
     inkscape:transform-center-y="-0.59624542"
     inkscape:transform-center-x="-7.4815775"
     style="font-size:13.29700756px;font-style:normal;font-variant:normal;font-weight:normal;font-stretch:normal;text-align:start;line-height:100%;writing-mode:lr-tb;text-anchor:start;fill:url(#linearGradient4299);stroke:#000000;stroke-width:0.60412872;stroke-miterlimit:4;stroke-dasharray:none;overflow:visible;font-family:Liberation Sans"
     d="M 158.21633,81.893831 C 158.21304,81.782753 158.22348,81.675474 158.23915,81.568022 C 158.22068,81.510885 158.20638,81.453633 158.20465,81.39495 C 158.19609,81.107836 158.38916,80.828354 158.74223,80.569285 C 158.99275,80.317461 159.31683,80.141073 159.68185,80.071478 C 160.27465,79.832556 161.02161,79.627847 161.87277,79.471439 L 161.84522,78.545127 C 161.04112,78.238662 160.53507,77.797492 160.52007,77.293462 C 160.49013,76.286458 162.43162,75.410655 164.85745,75.338512 C 167.28222,75.266396 169.2723,76.024225 169.30229,77.032283 C 169.31728,77.536313 168.83938,78.006741 168.05385,78.360474 L 168.08144,79.287841 C 168.94145,79.39337 169.69923,79.553316 170.30416,79.756623 C 170.67265,79.804392 171.00664,79.961229 171.27167,80.197711 C 171.63952,80.435339 171.84885,80.702845 171.85738,80.98997 C 171.85913,81.048652 171.84828,81.106663 171.83322,81.164783 C 171.85523,81.270058 171.87207,81.377586 171.87537,81.488654 L 172.10043,89.05639 C 172.10735,89.28901 172.06678,89.511523 171.99111,89.718277 C 172.07445,89.84061 172.12332,89.967115 172.1272,90.098104 C 172.16069,91.223508 169.13115,92.226068 165.35988,92.338219 C 161.58858,92.45038 158.5048,91.628583 158.47135,90.504223 C 158.46746,90.373232 158.50871,90.244052 158.58466,90.116986 C 158.49789,89.915058 158.44311,89.695383 158.43619,89.462764 L 158.21108,81.893984 L 158.21633,81.893831 z "
     id="path4297" /></g></svg>