<?xml version="1.0" encoding="iso-8859-1"?>
<!-- Generator: Adobe Illustrator 11 Build 196, SVG Export Plug-In . SVG Version: 6.0.0 Build 78)  -->
<!DOCTYPE svg PUBLIC "-//W3C//DTD SVG 1.0//EN"    "http://www.w3.org/TR/2001/REC-SVG-20010904/DTD/svg10.dtd" [
	<!ENTITY ns_flows "http://ns.adobe.com/Flows/1.0/">
	<!ENTITY ns_svg "http://www.w3.org/2000/svg">
	<!ENTITY ns_xlink "http://www.w3.org/1999/xlink">
]>
<svg
	 width="147.402" height="186.112" viewBox="0 0 147.402 186.112"
	 style="overflow:visible;enable-background:new 0 0 147.402 186.112" xml:space="preserve">
	<metadata>
<?xpacket begin='﻿' id='W5M0MpCehiHzreSzNTczkc9d'?><x:xmpmeta xmlns:x='adobe:ns:meta/' x:xmptk='XMP toolkit 3.0-29, framework 1.6'>
<rdf:RDF xmlns:rdf='http://www.w3.org/1999/02/22-rdf-syntax-ns#' xmlns:iX='http://ns.adobe.com/iX/1.0/'>

 <rdf:Description rdf:about=''
  xmlns:pdf='http://ns.adobe.com/pdf/1.3/'>
 </rdf:Description>

 <rdf:Description rdf:about=''
  xmlns:tiff='http://ns.adobe.com/tiff/1.0/'>
 </rdf:Description>

 <rdf:Description rdf:about=''
  xmlns:xap='http://ns.adobe.com/xap/1.0/'
  xmlns:xapGImg='http://ns.adobe.com/xap/1.0/g/img/'>
  <xap:CreateDate>2006-07-16T23:42:13Z</xap:CreateDate>
  <xap:ModifyDate>2006-07-16T23:42:13Z</xap:ModifyDate>
  <xap:CreatorTool>Illustrator</xap:CreatorTool>
  <xap:Thumbnails>
   <rdf:Alt>
    <rdf:li rdf:parseType='Resource'>
     <xapGImg:format>JPEG</xapGImg:format>
     <xapGImg:width>204</xapGImg:width>
     <xapGImg:height>256</xapGImg:height>
     <xapGImg:image>/9j/4AAQSkZJRgABAgEASABIAAD/7QAsUGhvdG9zaG9wIDMuMAA4QklNA+0AAAAAABAASAAAAAEA&#xA;AQBIAAAAAQAB/+4ADkFkb2JlAGTAAAAAAf/bAIQABgQEBAUEBgUFBgkGBQYJCwgGBggLDAoKCwoK&#xA;DBAMDAwMDAwQDA4PEA8ODBMTFBQTExwbGxscHx8fHx8fHx8fHwEHBwcNDA0YEBAYGhURFRofHx8f&#xA;Hx8fHx8fHx8fHx8fHx8fHx8fHx8fHx8fHx8fHx8fHx8fHx8fHx8fHx8fHx8f/8AAEQgBAADMAwER&#xA;AAIRAQMRAf/EAaIAAAAHAQEBAQEAAAAAAAAAAAQFAwIGAQAHCAkKCwEAAgIDAQEBAQEAAAAAAAAA&#xA;AQACAwQFBgcICQoLEAACAQMDAgQCBgcDBAIGAnMBAgMRBAAFIRIxQVEGE2EicYEUMpGhBxWxQiPB&#xA;UtHhMxZi8CRygvElQzRTkqKyY3PCNUQnk6OzNhdUZHTD0uIIJoMJChgZhJRFRqS0VtNVKBry4/PE&#xA;1OT0ZXWFlaW1xdXl9WZ2hpamtsbW5vY3R1dnd4eXp7fH1+f3OEhYaHiImKi4yNjo+Ck5SVlpeYmZ&#xA;qbnJ2en5KjpKWmp6ipqqusra6voRAAICAQIDBQUEBQYECAMDbQEAAhEDBCESMUEFURNhIgZxgZEy&#xA;obHwFMHR4SNCFVJicvEzJDRDghaSUyWiY7LCB3PSNeJEgxdUkwgJChgZJjZFGidkdFU38qOzwygp&#xA;0+PzhJSktMTU5PRldYWVpbXF1eX1RlZmdoaWprbG1ub2R1dnd4eXp7fH1+f3OEhYaHiImKi4yNjo&#xA;+DlJWWl5iZmpucnZ6fkqOkpaanqKmqq6ytrq+v/aAAwDAQACEQMRAD8A9U4q7FXYq7FXYq7FXYq7&#xA;FXYq7FVOeeKCCSeZgkMSl5HPRVUVJPyGKvlJdY8yfnV+YWkaXqmpT6f5SvfW1A6Fbyein6Mt2Cx+&#xA;vxIM01y7KOtEBPEYq+r0RURUUUVQAB7DFV2KuxV2KuxV2KuxV2KuxV2KuxV2KuxV2KuxV2KuxV2K&#xA;uxV2KuxV2KuxV2KsE/PLUtR0/wDKbzNLpttNdX09m1pDFbRtJJ/pREDuAgJHBJCxPamKvm38ufyW&#xA;f829J1HW0vjosOlPDpOlQywC5jYW0QeTlvC4+KRaFengcVTi7/Kv/nI7yVRtF1G+v7CHdBo+ovIg&#xA;HYmxvTufZOWKpda/85FfnLoN19S1a9t5bxKhrLXdONnMO2/om1O3yxV7b+R/5w+YPzBudXtNU0i2&#xA;sjo8duZLy0md45JLnmVQRyLyHwxk/bP44q9ZxV2KuxV2KuxV2KuxV2KuxV2KuxV2KuxV2KuxV2Ku&#xA;xV2KuxV2KuxV5r+bH5ja9pCTeX/JFmuqecfqkmoSow5Q2dnCpZpZuxeXh6cKV3Y1O3VVm/lrWrDX&#xA;dA0/XLCn1XVLeK8jpQmkyBqMR+0vQ/LFUzxVA6xoWia1aGz1jT7fUbRusF3Ekyf8C4YYqlvlHyF5&#xA;R8nw3kPlvTY9Nhv5hcXMcbOytIFCCgdm4gAfZWgxVkGKuxV2KuxV2KuxV2KuxV2KuxV2KuxV2Kux&#xA;V2KuxV2KuxV2KuxVh/5ieepfLtvaaZo9uupeb9ac2+haUTQM4FXnn3BWCEfFI30d8VVfy+8iw+Vd&#xA;Nna5uDqXmLVJPrWv61IAJbq5Ip/sYo/sxxjZV+nFUj/KD/cLceZvITmi+WdQaXTFP/Vt1Kt1bCvf&#xA;gzSR+3HFXo+KuxV2KuxV2KuxV2KuxV2KuxV2KuxV2KuxV2KuxV2KuxV2KuxV2KuxVj3nnzrpvlDQ&#xA;21K7R7m5ldbfTNNhBae8u5NoreFQCSzt7bDfFUn/AC78lanY3F35s81Ol1511pQLt0NYrK2BrFYW&#xA;v8scfVyPtvVjXbFWc4q8484/869+aflTzQPhs9cV/K+qntzmJuNPan/GZHjr/l4q9HxV2KuxV2Ku&#xA;xV2KuxV2KuxV2KuxV2KuxV2KuxV2KuxV2KuxV2KuxVLfMfmLR/LmiXmt6xcLa6dYxmSeZvnRVUft&#xA;MzEKqjck0xVhPkby7q/mHXF/MTzfbtb3rIyeV9Cl/wClZZSf7sdakfW7haGQ9VHw+wVekYq7FWKf&#xA;mj5Xn8zeQ9W0uzPDU/SFzpUo+0l7asJ7ZlP7P72NRXwxVHeRvNFv5q8n6R5hgAVdSto5pIx+xLSk&#xA;sfzSQMp+WKp7irsVdirsVdirsVdirsVdirsVdirsVdirsVdiry3zl/zkd+XXlbWZ9GuDe3moWcyw&#xA;X629s4jtmYjeWWb0l4gEGqctumKvUsVdirsVUrq6trS2lurqVILaBGknnkYIiIgqzMxoAABUk4q8&#xA;v0C1ufzP1+283apE8XkfSpfV8p6XMCpvZ1qBqlxGwB4D/j3Rv9fau6r1XFXYq7FUDrutWGh6Lf6z&#xA;qDmOx063kurlwKkRwoXag7mg2HfFXyV5T/5yB85eWjeLpOjWL+WbrULnUbbR7h5Rdww3chlaCO4Q&#xA;iJRyYsAYmoScVfVflHzRpnmryzp3mHTCxstShWaJXpzQnZkehI5IwKt7jFU4xV2KuxV2KuxV2Kux&#xA;V2KuxV2KuxV2KuxV2Kvk7/nKnygLHzvBrMKAW3mmyaCcj/ltslChie3KBkA/1Dir6G/KrzAfMP5b&#xA;+W9YZ/UmubCAXLeM8a+lN/yVRsVZXirsVeT30kn5s69JpdszD8tdGn46pdKSBrN5Ca/VYmBFbSFv&#xA;71ujsOI2FcVerRxxxRrHGoSNAFRFACqoFAAB0AxVdirsVdiqVea/L1t5j8s6roFy7RQarazWjypu&#xA;yCZCnMDapWtcVfDOqeWfO2kandaFcaej3tjK1s14JFEDFDxEvE0k4kb/AGcVfUv/ADjdM1t+X0Xl&#xA;6VuU2jSMoboWjuGablT/AIyM+KvVsVdirsVdirsVdirsVdirsVdirsVdirsVdirzL/nIvyo/mD8r&#xA;dRlt053+hsur2Y71tamVRTrygaQU8cVY5/ziXr6XvkHUNH5VOj6hIbdfC2vVFzGfpd5MVe4Yq8x8&#xA;46xqXnfXrj8vfLNw1vp1uAPOmvQkVt4X/wClfbNuPrMy1Dn/AHWv+VsFXoWj6PpmjaXa6Vpdulpp&#xA;9nGsNtbxiioi9B/U9ziqMxV2KuxV2KuxV5D+aflCN/MUeqxJ8N9GBMQP92xALX6U4/diqv8Altay&#xA;aVrQ2pFdIYZB2r1Q/eKfTir1fFXYq7FXYq7FXYq7FXYq7FXYq7FXYq7FXYq8z8xfn7+W+k63qPlr&#xA;Vfr36Ts+UdxZCwuJTIpXqnFCGRwdm6H5Yq+dPy185+Z/yzvvMl/o+i+vod4hitG1SYWbcLWWV7V3&#xA;jPNy/oyFeG2/7WKva/J35mfmN+ZH5NXuqeWILCLziLybT5H5PBbwqKOJoRJ6rM4hkQLzNOW56cSq&#xA;jvJvmLUPIug2+iXn5ea9axxszz3libfWTPM/xS3M8lvL6zSSNuf3fsB2xVkNr+en5WyzLb3WtLpN&#xA;0xp9X1aGfTmBHibpIl+kGmKsw0zWtH1WH19Lv7e/hH+7bWVJl/4JCwxVG4q7FXYq7FUBrGlxajae&#xA;i9OSMHjY9iNv1HFWPae2i23muPy88vHWVtP0mkHFqNbrKIuavTgaSUBANRtXqMVZhirsVdirsVdi&#xA;rsVdirsVdirsVdirsVdirsVY15y/LjyX5yjiHmHTI7ua3r9VvFZ4bmKu/wC7niKSKK78eVPEYqke&#xA;j/kH+U+mXAuf0DHqNyvSbU5Jb8j5LctKg+hcVZ7b29vbQpBbxJDBGKRxRqFRR4BRQDFVTFVG6tLW&#xA;7hMN1DHcQt9qKVQ6n5qwIxVh2pfkp+VOoTLPL5Zsre4U1WexVrGWp7+paGBq+9cVQY/KO6saN5f8&#xA;6+YtKKGscMt2mo249vSvo5zT25Yq4aR+eum0Fp5g0PzBHUlhqdjNYS07ASWckyfT6X0Yq4eefzQ0&#xA;/j+mvy/luYl2kudE1C2u607rBcfVJPo3+eKuX89PJVvQa9b6t5adui6xpt3brt39VUkhp786YqyX&#xA;Q/PvkjXuA0bX9P1B32WK3uYpJK+BQNzB9iMVYt+bf+4TUPK3nxTwj8v6gLXV36D9GapS2mZqbsIp&#xA;TFIB7Yq9HxV2KuxV2KuxV2KuxV2KuxV2KuxV2KuxV2KuxV2KuxV2KuxV2KuxV2KuxV2Ksa1v8tfy&#xA;91yp1by3pt5IdvWktYvVFfCQKHH0HFWL6p/zj15Fu9Nn0yxu9Y0bT7pGiuLOw1K5+rurdQ0Fw1xF&#xA;/wALirzXy5/zkf5h0jzveaJ5i0m4h8oaIkGmXVzcIDqNs8Q4Le3YTZ/WpykWMUUUK1/bVfSVpd2t&#xA;5aw3dpMlxa3CLLBPEwdHRxVWVhUEEGoIxVVxV2KuxV2KuxV2KuxV2KuxV2KuxV2KuxV2KuxV2Kux&#xA;V2KuxV2KuxV2KuxVJfOHnDy/5Q0G41zXbkW1jbj5ySOfsxRJ1d2PQD9W+Kvk+CL8yvzq/MLUfMuh&#xA;2tvpsWm27Q8JlAg9IAmKxuJVWs80pNWqaRjw2GKvTv8AnFPXLiaLzX5dEcltZaPcW00OnTE87Oe6&#xA;EyXVrQ7qqTWpIHvir3zFXYq7FXYq7FXYq7FXYq7FXYq7FXYq7FUo1HzRpOnammn3Unpv9Un1C6uG&#xA;KJBbWtvQPNcSOyiNSWovjRj0ViFUo0380PK2peWn8z2TyzaFHemwkvgq8BxnEBuN2r6HMg8uoX4i&#xA;KVxVl2KuxV2KuxV2KuxV2Ksb8++f/LnkfQZNY1yfhGPgtbVKNPczEfDDCn7TH7h1NBir5PuJ/P35&#xA;5fmHBbSkWxjHNIUq9rpFkSOch6epcSUoCd2anRRsq+uvJ3lDQ/KHl600HRIPRsbRaVO8kjnd5ZW/&#xA;adzux/hiqzQ/Jfl/RNc1zW9OgMN/5ilhm1Nq/CzwIUUqv7NeTMfEknFU9xV2KuxV2KuxV2KuxV2K&#xA;uxV2KuxV2KuxVhtvEbD82r6e5/u9d0e0j0+QjYSabPctcQg+JW8RwO9G/lOKsa1rRdT078rfPGlX&#xA;lr/p/mLUNYg0e25I5mbV7h47NhxLUr6oc13UAk0ocVeo2cLwWkEMkhleKNUeU9WKqAWPzxVWxV2K&#xA;uxV2KuxV2KvBf+cgPyW83eZ9bs/M/lq4OoXaKlk+j3cgWGBJCF+sWxNAlD8UoO5G4PbFXpH5Wflp&#xA;pPkDyyml2p+sahcET6tqTCj3NwRu3si/ZRew9ySVWZYq7FXYq7FXYq7FXYq7FXYq7FXYq7FXYq7F&#xA;XYq7FXYq7FXYq7FXYq7FXYq7FXYq7FXYq7FXYq7FXYq7FXYq7FXYq7FXYq7FXYq7FXYq7FXYq7FX&#xA;Yq7FXYq7FXYq7FXYq7FXYq7FXYq7FXYq7FXYq7FXYq7FXYq7FXYq7FXYq7FXYq7FXYq7FXYq7FXY&#xA;q7FXYqxb8y/zA0ryD5QvPMmooZkt+MdtaIwV555DRI1JrTuSaGigmm2Kp/pl8l/ptpfopRLuGOdU&#xA;O5USIHAPyrirG/PX5reRfJEQ/T2pJHeOKwabADNdyV6cYUq1D/M1F98VfPH5g/8AOUfnbUY5B5aj&#xA;h8saclWimuuE99Px3CkGsUIboQvJv8rFX0/5S8wQeY/LGla9DG0Uep2sVz6LghkMiBmQ1purVGKp&#xA;tirRIAqdgOpxVjKfmd+XcmswaJD5j0+fVriQQw2UFxHLIZDX4KRlqHbvirJ8VdirsVdirsVdirsV&#xA;dirsVdirsVdirsVdirsVdirsVdirw7/nKPT3utO8rG5qdGbUJrW8FKqJrq0kitnbfsxYD3OKvMdL&#xA;/Mr8/wDzbo9t5O8q6fPAujQx6Zf6hYJwleS3QRlpb+4KQ25cKGHp/F4HFWReVP8AnEzX7qZr3zfr&#xA;y2j3Dc7mHTq3F3IWNSZb65B+LxpG3zxV7J5R/JP8s/KrpPpuiQzaglG/SV7W7uuQ/aWSblwP+pxx&#xA;VnOKuxV87/8AORn5jw3F3P5Pt7l4tF0qJbvzbPCxVpS4/wBH05WBB/eVDyDuOK164qg/+cW1/KuZ&#xA;nv2ktk/MC4L8dPnjWFrW2BIjjsFb4XUxjk8ifEanltir6UxV2KuxV2KuxV2KuxV2KuxV2KuxV2Ku&#xA;xV2KuxVRvLuCztJ7u4bhBbxtLK/giKWY/cMVed/l7/zkD+X/AJ4v7bSrBrux1m7RpLbT763ZGkWN&#xA;DI7JLH6sJAUV3cH2xV6VirGvzI8ox+b/ACRq/l9iFmvID9TlO3p3MZElvJUfyyopxV5f/wA48eTv&#xA;zA8pXeuXnnS7srRdaFvIdKE8b3EdzEnD1WEf7lPUQ7hWJNB4bqvdcVdirsVdirxOz/5xh0C2/M8+&#xA;bJdRlv8AR5JpdQn0a8AlL3ztyRpJf92xKzFgrioIG5qcVSb81P8AnFrT73nrHkFY7C/VjNJobsY7&#xA;WR68uVrJ1tZa9KHh0+zirCvJv5//AJleSdQfQfNVrPrMNlRLjT9Q/carbr4pMRxuFpuC/wBrajYq&#xA;+i/In5reRvPENdC1FWvUXlPpdwPRvIvHnC25A/mWq++KsvxV2KuxV2KuxV2KuxV2KuxV2KuxV2Ku&#xA;xV59+fmuvo35ReZbiNqT3Vt9Qhp1LXzrbbe4WUn6MVeSf84n+VVuPMGteZ5Erb6VDHo+nN29WQLN&#xA;ckf5Sqsa/ScVfTmKsP8AzF88TeXbO10/SLcaj5t1uQ2ugaXXZ5aVeaam6wQL8cjeG3fFUo0L8ivI&#xA;0WmhvM+nW3mXzFdM1xq+t30SySz3Mu7la/3ca/ZjRdlUDvviqv8A8qB/Jv8A6lOx/wCBb/mrFXf8&#xA;qB/Jv/qU7H/gW/5qxV3/ACoH8m/+pTsf+Bb/AJqxV5j+dmj+Uvyuby5qXkLTotD83XV3KLa4t6+k&#xA;9pFH/pSXETFllQ+pHRdjyoQRTFUm8gf85Ged7LzPYWnnG9t9T0PUriO1mu/QjtZbR5jxjlrHxQxB&#xA;iOfIVA3rtir6n64qxD8xPys8o+fdPEGtWxS9hBFjqtvSO7tyd/3clN18Uaqnwriry/8AKr/nHTVv&#xA;Ln5hvrvmW5ttRtNHT/cBPCpRppZagzTxmvBok2C1I5NUHbFXv+KuxV2KuxV2KuxV2KuxV2KuxV2K&#xA;uxV2Kvn7/nL7zClp5e8vaNyobq9k1GYDqYtPhOx+ck6U9xir0X8jvKb+WPyv0OxnTjf3MP1/UK/a&#xA;+sXh9Zg3ugcJ/scVZD5x83aR5T8v3Ot6o7ehAAsUEY5TTzOeMUEKdWkkbZR/CuKsc/Lrylq4vLnz&#xA;t5uUN5v1iMILUHlHptjXlFYw+4+1K37T/LdVn2KuxV2KuxV5z+df5Uv+YGh2i2N0llrukyPPpk8w&#xA;Jgb1FCyQzcQWCSAD4l3BAO/TFXytH5D8z/poWmvwx2X6PmrNaIWd2ljPw8mIA4132rXFX1L+Ufmu&#xA;4l0+LQtTctNbrxsZ2O7RqP7snxUfZ9vlir0rFXYq7FXYq7FXYq7FXYq7FXYq7FXYq7FXYq8W/wCc&#xA;g5vPflq+0Lz75X1GS3tdNL2Wt2rh57P0JmDRzT24YDgHHCR1+MVUg7Yq8T/MDzVq3njzt5f13zVp&#xA;YtvLNjHbQalLprm/ga3S4M91KgUCRRKoVaFTQDqcVfWPl38xfJPmPy9ceYtH1aG40W05fW7xuUSw&#xA;+mgkf1RKEZOKMCeQxViXlCyu/wAwvMUHn/WYXi8uWBb/AARpEqleQOx1WdG/3ZKP7gH7Cb9TXFXq&#xA;OKuxV2KuxV2KuxVhXn7yJb6xTVLWMDUoVpIAP72Mdj/lL2+7wxVjuhaC8bo6Aq6kFWGxBGKvT47h&#xA;Y7JJruRYwFBkkchVB6VJNAK4qkr/AJj/AJeJdiyfzRpC3jMFW2N/bCUsTQAIZOVfoxVkIIIqNweh&#xA;xVvFXYq7FXYq7FXYq7FXYq7FXYq7FVksUUsTxSoskUilZI2AZWVhQgg7EEYq808xf845/ldq4na0&#xA;sZdAubgFZLjRpmtAVIoQYByt6Gv++8VYrqv5X6X5M0HyT5Mkupr7yrqvmRl8w8wqPezXEcktmk/E&#xA;GsfqQRo4/boOmKvd1VVUKoCqooqjYADsMVbxV2KuxV2KuxV2KuxVCS6XZSLKOBjMysrPGxRhyFCy&#xA;kdG9xir5Tb8nvzD/ADJt/LPmm2vLHUrK3tprOKfWpJazW1re3CWssyRJJ6kkkHHk1Pi2rvU4qkH5&#xA;f+SNQ85+edb8i3dxpegzaUt0JRa6alzHK9ndC1lVfUkSm7Bgd9u2KvpH8n/y985eRbW80bVfMSa9&#xA;oK8Do6NC8U1udxJGOck1IgOPFeTfR3Vei4q7FXYq7FXYq7FXYq7FXYq7FXYq7FXYqwL88rS4k/LP&#xA;VNQtFrfaE0GtWjfyvps6XTH/AJFxsMVZtZXkF7ZwXlu3O3uY0mhfxSRQyn7jiqvirsVdirsVdirs&#xA;VdirE/zX199A/LfzHqkZIuIbGWO1p1+sTj0YKf8APWRcVTPyboKeXvKWjaEgAGmWUFq1O7RRhWb/&#xA;AGTAnFXzNa3g8r/85Z3HI8IbvWGtpgP2hrNmkkYNCf8Ad7IcVfWWKuxV2KuxV2KuxV2KuxV2KuxV&#xA;2KuxV81f85Ief/zS0nzRa6HY3J0DQpUW60rUbQkyXs0NGdJZSBw9NqViUfEu5JBoFXsn5UfmHaef&#xA;PJ1rrKKsOoRk22r2Y/3ReRgeonU/Ca8k/wAkjFWUalYW+o6ddafcjlb3kMlvMvikqlGH3HFWG/kf&#xA;qFxd/lhosF2f9O0lJNIvF3qJdNla0Na9yIQfpxVneKuxV2KuxV2KuxV2KvO/zbH6SvfJnlZfj/TO&#xA;uwT3cR6NZ6WrX0wPtyijH04q9ExV8d/85KRXGk/m/e6lbfDdNZadq9s2/wDeWjugI/6R6Yq+udJ1&#xA;K21TSrPU7Y1tr6CO5gPikyB1/BsVReKuxV2KuxV2KuxV2KuxV2KuxV2Ksb/MHyHovnnyxc6Dqq8U&#xA;kpJaXSgGW2uEB9OeIn9pa/SKjocVfLP5f+Z9c/Jz80rjTPMo9GynaO08wBa+k8JJFrqcPSqLy+Lu&#xA;FLCnIYq+yEdHRXRgyMAVYGoIPQg4q89/Lemm+d/zB8uUokepw63bdqx6tbq8lB7XEElfc4q9ExV2&#xA;KuxV2KuxV2KuxV52B+mPz3JpztvKehUB/kvNXn/X9XtPxxV6Jirx384fyI1Hz/5rsdZs9Zh0qOGx&#xA;+oXPq27XLsolaVSqh4h/uxurYq9F8jeWpfK/lDSfL0l6dQOlW6Wq3jJ6RdI9k+Dk9OKUXr2xVPcV&#xA;dirsVdirsVdirsVdirsVdirsVdirzH89vyjt/Pvlz6xYokfmfS0d9MnegWVCKyWkx7xyjpX7Lb9K&#xA;1VeF+Sf+cifOuh/ljcaFYaZ9c1DReUNtrV43+j21mqjjG67GaaHdVVeq8evQqvRPJfm3zzqf6H/N&#xA;WLyvc6gt5pJ0bzJYW1ILh2tp/Wh1Czhm4C4jdZHAVWrvQE8cVet+UfzC8pebEkGjXyveW+15psyt&#xA;BeW7DYrNbyBZEodq0p4HFWR4q7FXYq7FXYqxLzZ+aPlHyzcpp9xPJqGuS/7z6FpkbXl/J8oI6lR/&#xA;lOVHviqSfl+8mlahq+uebli0LXfO+qg6ZplzPEZzb21skVrB8DMpkCozFVOxanXFXpGKuxV2KuxV&#xA;2KuxV2KuxV2KuxV2KuxV2KuxV2KvHPzS/Jr8wPN2qzXFl51dNEnIDeW7qOVLQLxoQz2ksLSgnejj&#xA;6cVUvJP/ADjhptjcwXnnC5g1oWZB0/RbeAwaXCR0doWZzO/h6nwjwPXFXs6qqqFUBVUUVRsAB2GK&#xA;sY83flt5S81PHc6jatDq1v8A7x61ZO1tfwEdDHcR0fb+Vqr7Yqxtf+Vu+Sx8ZH5geX06lRHaa3Cg&#xA;9qi3u+Kj/Idj44qyXyl+Y/lDzUZINLvQupQbXekXStbX8DD7Sy20oWRaeNOPgcVZPirCfMn5t+Vt&#xA;J1FtFsPW8w+Zui6FpCfWbhT0rMwIigUftGVhQb4qlX+H/wA1vOHx+YtTHkzRX66Josizag6+E+pE&#xA;cYz/AMw69P2sVZb5T8ieUvKVs9v5f0yGxEu9xMoLzzN/NNM5aWQ/6zHFXz5/zlj5Ts7XzBo3nHUt&#xA;YmuLORhZroAk4TxcF5mex4jorANLXvT4twAqzD8jPzivdTurPyjr9yNSmuYZJfL/AJhU1N5FAvJ4&#xA;LlaVW4iSpLftAGtGHxKvccVdirsVdirsVdirsVdirsVdirsVSnWPNfl/RnlTU7xbYwWsl/OWVyEt&#xA;omCNI7KCFqzUQHdzXiDQ4qgdN/MTyjqEgigu5YpzcRWjW93aXdpMk1wjSQCSK5iidFlVD6bsArH4&#xA;VJbbFWSYq7FXYq7FXYq7FWNebvy58n+bPTk1iwV763/3k1SBmgvYCNwYrmIrItDvStPbFWCWPlRN&#xA;cv28u3/5rTa3pFuzpHotncWsGoyemSskV7d2zevKE4kMFVD/ADYq9K8t+VPLflnTl07QNOg02zWl&#xA;Y4ECliP2nb7Tt/lMScVTbFWJ/mR+ZHl/yD5fbVdVYyzykx6dp0ZHr3U9No4x2A/aboo+gFV82+QP&#xA;JvmP87vP935o82uW0CzkCXqxswiPE8o9MtTWojWtZmG5+bVxV6Vr35N3WkfnR5U8w+UrIW/l+e7e&#xA;51q1gULDazxW7p6qIKKi3CPwYKPtLXvir3TFXYq7FXYq7FXYq7FXYq7FXYq7FXl+t3h0zzD59uLn&#xA;SW1y6ez0qfTdL9F7n14FLxIojjjmdkiu+cknBGKg8qbiqrH9Wg+ueUfMupT3V9fecNZk0u2je50q&#xA;+0q3jlS8BsbexivIoXdIZnZy3J3/AGmpir3DFXYq7FXYq+INO/5yW/NGNfVbzbEyszFba6srV+Kl&#xA;jQFkSNztTq2KsgtP+cvPP8FBcfoG8QdSYrqFz9KzOv8AwuKp1a/85pXsYAvfLVncHu9tqLxd9yFk&#xA;t37e+KpJ/wA476ZaXf5saJ5gjRxd6jBrOo3SlwwTnIIkoaCtBLQ+++KvsDFWL/mP+YGj+QvKtx5h&#xA;1RJJY42WG2toh8U1xJX04+VOKA03ZtgPuKr5KtLTzx+cn5jKl3P/ALkbheV1PGC1tpOnBt0hB/aN&#xA;aL3dtz3OKvsjyx5Z0byxoNloWjQC206wjEUMY6nuzuf2ndiWZu5NcVTXFXYq7FXYq7FXYq7FXYq7&#xA;FXYq7FXYqovZ2j3Ud28EbXcKPHDcFVMiJIVLor05BWMa8gOtB4Yq6eztLiSCSeCOWS1f1bZ3VWaO&#xA;Qqyc0JHwtwdlqOxI74qrYq7FXYq7FXYq7FWN/mN5sj8peSNY8wMrPJZW7G2jVS5e4kpHAlBXZpXU&#xA;HFXk/wDzjT+V/mLSEi80eY7VtOlTT103R9Ml/vlidllnuJl/YeV0UKvUKN8Ve+YqhNU0rTdW0640&#xA;3U7aO8sLpDHcW0yh43U9mU4qx78uvyx8q/l/plzYaBE4W8na4uLidvUmftHGXoDwiT4UH09SSVWW&#xA;Yq7FXYq7FXYq7FX/2Q==</xapGImg:image>
    </rdf:li>
   </rdf:Alt>
  </xap:Thumbnails>
 </rdf:Description>

 <rdf:Description rdf:about=''
  xmlns:dc='http://purl.org/dc/elements/1.1/'>
  <dc:format>image/svg+xml</dc:format>
 </rdf:Description>

</rdf:RDF>
</x:xmpmeta>
                                                                                                                                                                                                                                                                                                                                                                                                                                                                                                                                                                                                                                                                                                                                                                                                                                                                                                                                                                                                                                                                                                                                                                                                                                                                                                                                                                                                                                                                                                                                                                                                                                                                                                                                                                                                                                                                                                                                                                                                                                                                                                                                <?xpacket end='w'?>
			</metadata>
		<g id="Layer_1">
			<g>
				<polygon style="fill:none;stroke:#000000;" points="81.451,65.672 27.77,55.625 63.312,14.159 "/>
				<g>
					<path style="fill:#404040;stroke:#000000;" d="M66.586,5.811c4.209,1.098,17.525,3.384,17.525,3.384L83.24,12.53
						c0,0-11.877-3.735-17-5.071"/>
					<path style="fill:#808080;stroke:#000000;" d="M65.721,10.246l-0.596-0.155l0.13-0.499l0.588,0.154l1.204-4.617l-0.006-0.002
						c0.784-2.947,2.616-4.646,2.616-4.646s-4.436,1.255-5.155,4.01l0.007,0.002l-1.198,4.591L63.9,9.238l-0.13,0.499l-0.596-0.155
						L62.93,10.52l2.547,0.665L65.721,10.246z"/>
				</g>
				<g>
					<path style="fill:#404040;stroke:#000000;" d="M19.053,56.763c-1.154-4.194-5.832-16.869-5.832-16.869l3.324-0.915
						c0,0,2.704,12.153,4.108,17.258"/>
					<path style="fill:#808080;stroke:#000000;" d="M23.327,55.294l0.163,0.594l-0.497,0.137l-0.161-0.586l-4.6,1.266l0.002,0.006
						c-2.945,0.794-5.332,0.057-5.332,0.057s3.305,3.215,6.05,2.459L18.95,59.22l4.575-1.258l-0.161-0.586l0.497-0.137l0.163,0.594
						l0.935-0.257l-0.698-2.537L23.327,55.294z"/>
				</g>
				<g>
					<path style="fill:#404040;stroke:#000000;" d="M86.225,71.83c-3.056,3.097-11.693,13.485-11.693,13.485l-2.454-2.422
						c0,0,9.173-8.418,12.892-12.187"/>
					<path style="fill:#808080;stroke:#000000;" d="M82.816,68.864l0.433-0.438l0.367,0.362l-0.427,0.433l3.396,3.352l0.005-0.005
						c2.161,2.153,2.715,4.588,2.715,4.588s1.131-4.469-0.895-6.469l-0.005,0.005l-3.377-3.333L84.6,67.791l-0.367-0.362
						l0.433-0.438l-0.69-0.681l-1.849,1.873L82.816,68.864z"/>
				</g>
				
					<linearGradient id="XMLID_3_" gradientUnits="userSpaceOnUse" x1="-26.1016" y1="-54.2153" x2="9.5298" y2="-54.2153" gradientTransform="matrix(-0.1905 -0.5372 0.5372 -0.1905 102.6306 32.3649)">
					<stop  offset="0" style="stop-color:#FFFFFF"/>
					<stop  offset="1" style="stop-color:#000000"/>
					<midPointStop  offset="0" style="stop-color:#FFFFFF"/>
					<midPointStop  offset="0.5" style="stop-color:#FFFFFF"/>
					<midPointStop  offset="1" style="stop-color:#000000"/>
				</linearGradient>
				<path style="fill:url(#XMLID_3_);" d="M71.768,37.825c-1.78,0.631-2.726,2.559-2.159,4.346l-0.006,0.002l4.302,12.132
					c0.645,1.818,2.642,2.77,4.459,2.125c1.818-0.645,2.77-2.642,2.125-4.459l0.021-0.007L76.209,39.83l-0.026,0.009
					C75.497,38.095,73.548,37.193,71.768,37.825z"/>
				<circle style="fill:#404040;stroke:#000000;" cx="72.877" cy="41.114" r="3.493"/> 
			</g>
			<g>
				<polygon style="fill:none;stroke:#000000;" points="117.711,160.527 95.304,171.147 73.03,160.25 67.662,136.041 83.243,116.75 
					108.04,116.904 123.379,136.387 "/>
				<g>
					<path style="fill:#404040;stroke:#000000;" d="M122.768,167.964c-2.941,3.206-11.194,13.902-11.194,13.902l-2.541-2.331
						c0,0,8.86-8.747,12.439-12.648"/>
					<path style="fill:#808080;stroke:#000000;" d="M119.253,165.124l0.416-0.454l0.38,0.349l-0.411,0.448l3.516,3.225l0.004-0.005
						c2.238,2.073,2.881,4.486,2.881,4.486s0.968-4.507-1.13-6.432l-0.005,0.005l-3.497-3.208l-0.411,0.448l-0.38-0.349l0.416-0.454
						l-0.714-0.655l-1.779,1.939L119.253,165.124z"/>
				</g>
				<g>
					<path style="fill:#404040;stroke:#000000;" d="M130.526,135.986c0.673,4.298,3.89,17.419,3.89,17.419l-3.406,0.533
						c0,0-1.315-12.38-2.134-17.611"/>
					<path style="fill:#808080;stroke:#000000;" d="M126.114,136.963l-0.095-0.608l0.509-0.08l0.094,0.601l4.713-0.738l-0.001-0.007
						c3.016-0.457,5.304,0.545,5.304,0.545s-2.921-3.567-5.734-3.126l0.001,0.007l-4.688,0.734l0.094,0.601l-0.509,0.08
						l-0.095-0.608l-0.958,0.15l0.407,2.6L126.114,136.963z"/>
				</g>
				<g>
					<path style="fill:#404040;stroke:#000000;" d="M116.335,108.359c3.684,2.312,15.695,8.497,15.695,8.497l-1.833,2.92
						c0,0-10.204-7.133-14.688-9.948"/>
					<path style="fill:#808080;stroke:#000000;" d="M114.177,112.329l-0.521-0.327l0.274-0.437l0.515,0.323l2.537-4.041
						l-0.006-0.003c1.635-2.575,3.892-3.644,3.892-3.644s-4.608-0.137-6.122,2.274l0.007,0.004l-2.523,4.019l0.515,0.323
						l-0.274,0.437l-0.521-0.328l-0.516,0.821l2.229,1.399L114.177,112.329z"/>
				</g>
				<g>
					<path style="fill:#404040;stroke:#000000;" d="M81.976,108.376c4.04-1.612,16.116-7.669,16.116-7.669l1.278,3.202
						c0,0-11.777,4.038-16.694,6"/>
					<path style="fill:#808080;stroke:#000000;" d="M83.911,112.46l-0.572,0.228l-0.191-0.479l0.564-0.225l-1.769-4.431
						l-0.006,0.003c-1.117-2.838-0.649-5.292-0.649-5.292s-2.827,3.642-1.771,6.286l0.007-0.003l1.759,4.407l0.565-0.226
						l0.191,0.479l-0.572,0.228l0.359,0.901l2.444-0.976L83.911,112.46z"/>
				</g>
				<g>
					<path style="fill:#404040;stroke:#000000;" d="M60.377,131.981c1.258-4.164,4.051-17.382,4.051-17.382l3.3,0.997
						c0,0-4.186,11.725-5.717,16.793"/>
					<path style="fill:#808080;stroke:#000000;" d="M64.776,133.015l-0.178,0.589l-0.494-0.149l0.176-0.582l-4.567-1.38
						l-0.002,0.006c-2.915-0.896-4.542-2.792-4.542-2.792s1.084,4.48,3.81,5.304l0.002-0.007l4.542,1.373l0.176-0.582l0.494,0.149
						l-0.178,0.589l0.928,0.28l0.761-2.519L64.776,133.015z"/>
				</g>
				<g>
					<path style="fill:#404040;stroke:#000000;" d="M65.414,162.659c-2.471-3.58-11.064-14.004-11.064-14.004l2.837-1.958
						c0,0,6.558,10.583,9.565,14.939"/>
					<path style="fill:#808080;stroke:#000000;" d="M68.965,159.864l0.35,0.506l-0.424,0.293l-0.345-0.5l-3.926,2.71l0.004,0.006
						c-2.519,1.72-5.015,1.811-5.015,1.811s4.18,1.945,6.522,0.328l-0.004-0.006l3.905-2.696l-0.346-0.5l0.424-0.293l0.35,0.507
						l0.798-0.551l-1.495-2.166L68.965,159.864z"/>
				</g>
				<g>
					<path style="fill:#404040;stroke:#000000;" d="M93.998,179.858c-4.34-0.3-17.848-0.081-17.848-0.081l0.238-3.439
						c0,0,12.362,1.471,17.644,1.835"/>
					<path style="fill:#808080;stroke:#000000;" d="M94.026,175.34l0.614,0.042l-0.035,0.514l-0.606-0.042l-0.329,4.76l0.007,0
						c-0.225,3.042-1.711,5.049-1.711,5.049s4.127-2.055,4.323-4.895l-0.008,0l0.327-4.733l-0.606-0.042l0.036-0.514l0.614,0.042
						l0.067-0.967l-2.625-0.182L94.026,175.34z"/>
				</g>
				<g>
					
						<linearGradient id="XMLID_4_" gradientUnits="userSpaceOnUse" x1="-26.1016" y1="-53.7739" x2="9.5298" y2="-53.7739" gradientTransform="matrix(-0.355 -0.4459 0.4459 -0.355 136.7065 104.023)">
						<stop  offset="0" style="stop-color:#FFFFFF"/>
						<stop  offset="1" style="stop-color:#000000"/>
						<midPointStop  offset="0" style="stop-color:#FFFFFF"/>
						<midPointStop  offset="0.5" style="stop-color:#FFFFFF"/>
						<midPointStop  offset="1" style="stop-color:#000000"/>
					</linearGradient>
					<path style="fill:url(#XMLID_4_);" d="M109.584,119.18c-1.478,1.177-1.744,3.307-0.626,4.812l-0.005,0.004l8.017,10.071
						c1.201,1.509,3.399,1.759,4.908,0.558c1.509-1.202,1.759-3.399,0.558-4.908l0.017-0.014l-8.017-10.071l-0.021,0.018
						C113.198,118.222,111.062,118.003,109.584,119.18z"/>
					<circle style="fill:#404040;stroke:#000000;" cx="111.704" cy="121.929" r="3.493"/> 
				</g>
			</g>
			<g>
				<text transform="matrix(1 0 0 1 18.8296 85.9736)"><tspan x="0" y="0" style="font-family:'Helvetica'; font-size:9;">(1)</tspan></text>
			</g>
			<g>
				<text transform="matrix(1 0 0 1 41.8081 179.8472)"><tspan x="0" y="0" style="font-family:'Helvetica'; font-size:9;">(2)</tspan></text>
			</g>
			<rect y="38.607" style="fill:none;" width="147.402" height="2.834"/> 
		</g>
	</svg>
