<?xml version="1.0" encoding="iso-8859-1"?>
<!-- Generator: Adobe Illustrator 11 Build 196, SVG Export Plug-In . SVG Version: 6.0.0 Build 78)  -->
<!DOCTYPE svg PUBLIC "-//W3C//DTD SVG 1.0//EN"    "http://www.w3.org/TR/2001/REC-SVG-20010904/DTD/svg10.dtd" [
	<!ENTITY ns_flows "http://ns.adobe.com/Flows/1.0/">
	<!ENTITY ns_svg "http://www.w3.org/2000/svg">
	<!ENTITY ns_xlink "http://www.w3.org/1999/xlink">
]>
<svg
	 width="147.401" height="122.182" viewBox="0 0 147.401 122.182"
	 style="overflow:visible;enable-background:new 0 0 147.401 122.182" xml:space="preserve">
	<metadata>
<?xpacket begin='﻿' id='W5M0MpCehiHzreSzNTczkc9d'?><x:xmpmeta xmlns:x='adobe:ns:meta/' x:xmptk='XMP toolkit 3.0-29, framework 1.6'>
<rdf:RDF xmlns:rdf='http://www.w3.org/1999/02/22-rdf-syntax-ns#' xmlns:iX='http://ns.adobe.com/iX/1.0/'>

 <rdf:Description rdf:about=''
  xmlns:pdf='http://ns.adobe.com/pdf/1.3/'>
 </rdf:Description>

 <rdf:Description rdf:about=''
  xmlns:tiff='http://ns.adobe.com/tiff/1.0/'>
 </rdf:Description>

 <rdf:Description rdf:about=''
  xmlns:xap='http://ns.adobe.com/xap/1.0/'
  xmlns:xapGImg='http://ns.adobe.com/xap/1.0/g/img/'>
  <xap:CreateDate>2006-07-16T23:42:40Z</xap:CreateDate>
  <xap:ModifyDate>2006-07-16T23:42:40Z</xap:ModifyDate>
  <xap:CreatorTool>Illustrator</xap:CreatorTool>
  <xap:Thumbnails>
   <rdf:Alt>
    <rdf:li rdf:parseType='Resource'>
     <xapGImg:format>JPEG</xapGImg:format>
     <xapGImg:width>256</xapGImg:width>
     <xapGImg:height>212</xapGImg:height>
     <xapGImg:image>/9j/4AAQSkZJRgABAgEASABIAAD/7QAsUGhvdG9zaG9wIDMuMAA4QklNA+0AAAAAABAASAAAAAEA&#xA;AQBIAAAAAQAB/+4ADkFkb2JlAGTAAAAAAf/bAIQABgQEBAUEBgUFBgkGBQYJCwgGBggLDAoKCwoK&#xA;DBAMDAwMDAwQDA4PEA8ODBMTFBQTExwbGxscHx8fHx8fHx8fHwEHBwcNDA0YEBAYGhURFRofHx8f&#xA;Hx8fHx8fHx8fHx8fHx8fHx8fHx8fHx8fHx8fHx8fHx8fHx8fHx8fHx8fHx8f/8AAEQgA1AEAAwER&#xA;AAIRAQMRAf/EAaIAAAAHAQEBAQEAAAAAAAAAAAQFAwIGAQAHCAkKCwEAAgIDAQEBAQEAAAAAAAAA&#xA;AQACAwQFBgcICQoLEAACAQMDAgQCBgcDBAIGAnMBAgMRBAAFIRIxQVEGE2EicYEUMpGhBxWxQiPB&#xA;UtHhMxZi8CRygvElQzRTkqKyY3PCNUQnk6OzNhdUZHTD0uIIJoMJChgZhJRFRqS0VtNVKBry4/PE&#xA;1OT0ZXWFlaW1xdXl9WZ2hpamtsbW5vY3R1dnd4eXp7fH1+f3OEhYaHiImKi4yNjo+Ck5SVlpeYmZ&#xA;qbnJ2en5KjpKWmp6ipqqusra6voRAAICAQIDBQUEBQYECAMDbQEAAhEDBCESMUEFURNhIgZxgZEy&#xA;obHwFMHR4SNCFVJicvEzJDRDghaSUyWiY7LCB3PSNeJEgxdUkwgJChgZJjZFGidkdFU38qOzwygp&#xA;0+PzhJSktMTU5PRldYWVpbXF1eX1RlZmdoaWprbG1ub2R1dnd4eXp7fH1+f3OEhYaHiImKi4yNjo&#xA;+DlJWWl5iZmpucnZ6fkqOkpaanqKmqq6ytrq+v/aAAwDAQACEQMRAD8A6pirsVdirsVdirsVdirs&#xA;VdirsVdirsVdirsVdirsVdirsVdirsVdirsVdirsVdirsVdirsVdirsVdirsVdirsVdirsVdirsV&#xA;dirsVdirsVdirsVdirsVdirsVdirsVdirsVdirsVdirsVdirsVdirsVdirsVdirsVdirsVdirsVd&#xA;irsVdirsVdirsVdirsVdirsVdirsVdirsVdirsVdirsVdirsVdirsVdirsVdirsVdirsVT3/AJVc&#xA;v/Uzav8A8Dpv/ZFiqE1b8sr6LTbiXT/MeqSXkaF4Y3TTirldynw2YNWGw98VY95G0B9eN1b3nmXU&#xA;ku4TziES6cqtFsDsbRzyRj8VabFdhWmKss/5Vcv/AFM2r/8AA6b/ANkWKu/5Vcv/AFM2r/8AA6b/&#xA;ANkWKu/5Vcv/AFM2r/8AA6b/ANkWKu/5Vcv/AFM2r/8AA6b/ANkWKu/5Vcv/AFM2r/8AA6b/ANkW&#xA;Ku/5Vcv/AFM2r/8AA6b/ANkWKu/5Vcv/AFM2r/8AA6b/ANkWKu/5Vcv/AFM2r/8AA6b/ANkWKu/5&#xA;Vcv/AFM2r/8AA6b/ANkWKu/5Vcv/AFM2r/8AA6b/ANkWKu/5Vcv/AFM2r/8AA6b/ANkWKu/5Vcv/&#xA;AFM2r/8AA6b/ANkWKu/5Vcv/AFM2r/8AA6b/ANkWKu/5Vcv/AFM2r/8AA6b/ANkWKu/5Vcv/AFM2&#xA;r/8AA6b/ANkWKu/5Vcv/AFM2r/8AA6b/ANkWKu/5Vcv/AFM2r/8AA6b/ANkWKu/5Vcv/AFM2r/8A&#xA;A6b/ANkWKu/5Vcv/AFM2r/8AA6b/ANkWKu/5Vcv/AFM2r/8AA6b/ANkWKu/5Vcv/AFM2r/8AA6b/&#xA;ANkWKu/5Vcv/AFM2r/8AA6b/ANkWKu/5Vcv/AFM2r/8AA6b/ANkWKu/5Vcv/AFM2r/8AA6b/ANkW&#xA;Ku/5Vcv/AFM2r/8AA6b/ANkWKu/5Vcv/AFM2r/8AA6b/ANkWKsU88aA+hNa29n5l1J7uY85RKmnM&#xA;qQioGy2iHkzDaldg2xpTFWQaT+WV9LptvLqHmPVI7yRA80aJpwVC24T4rMmqjY++Kov/AJVcv/Uz&#xA;av8A8Dpv/ZFirOMVdiryrzJBP5S84Q6rap/oUpMyxrQD02IW4h6eLclHIDky0Vjir1KCaKeGOeFx&#xA;JDKoeORdwysKgj5jFV+KuxV2KuxV2KuxV2KuxV2KuxV2KuxV2KuxV2KuxV2KuxV2KuxV2KuxV2Ku&#xA;xVZPNFBDJPM4jhiUvJI2wVVFST8hiry3y3BN5t84TatdJ/oURE7RtuOCkrbw9PFeTDkRyVqqrYq9&#xA;VxV2KuxV2KpD500I6voU0cK1vbf99ZkVB5qDVAQVPxrVeo64qkf5W68Liwl0eZj61p+9tg2xNvIx&#xA;2oQn2Hr2pQgCoFcVZ1irsVdirsVdirsVdirsVdirsVdirsVdirsVdirsVdirsVdirsVdirsVdirs&#xA;VYL+aWu/V7CPSIWPrXf72547kW6N02D/AG39qUDA0G+Kp55L0I6RocMcq8b24pNeE1J9RgPgJJY/&#xA;AoC9T0xVPsVdirsVdirsVeU+aLS68recINWslJtp3a4jhQGrlmH1mHbb4gaj4T1HRU2VeoWl1Bd2&#xA;sN1buJLedFlicdGRxyU/ccVVsVdirsVdirsVdirsVdirsVdirsVdirsVdirsVdirsVdirsVdirsV&#xA;diqjd3UFpazXVw4jt4EaWVz0VEHJj9wxV5f5XtLrzT5wn1a9Ui2gdbiSFwaoVY/Vod9vhAqfhHQ9&#xA;VfdV6tirsVdirsVdirsVSXzfoI1vQp7MAfWFpNak0I9VOgoar8QqpqCN8VY5+V2vGa3uNGnP7y2J&#xA;mtSa1MTN+8U1Lbo5qamtGGw6Yqz3FXYq7FXYq7FXYq7FXYq7FXYq7FXYq7FXYq7FXYq7FXYq7FXY&#xA;q7FXYqwL80teMNtBo0B/eXJE11StRErfu0FCu7uKihrRTsemKsj8oaENE0KC0IH1hqzXRFAPVfqK&#xA;LRfhAC7AdMVTrFXYq7FXYq7FXYq7FXlnm+1m8sebYdetI/8ARpW9cKCAOZNJ4qt/vwOWHxUqxopN&#xA;MVenWtzBdW0N1A3OCdFlicd0cclP0g4qq4q7FXYq7FXYq7FXYq7FXYq7FXYq7FXYq7FXYq7FXYq7&#xA;FXYq7FVK6uYbW2muZ24QQI0kr+CIOTHbwAxV5j5QtJfM/m2bXrpP9Gib1ypoRzBpBFVf99hAzUan&#xA;JRVQa4q9TxV2KuxV2KuxV2KuxV2KpN5t0M6xok1tGP8AS4/31m1eP71AaLyqtA4qhNehxVjH5Wa2&#xA;DDNoMvwvByntEI4ssbN8aFaJx4ua/ZHWgqFrir0DFXYq7FXYq7FXYq7FXYq7FXYq7FXYq7FXYq7F&#xA;XYq7FXYq7FXYq8//ADT1sejDoMPxPPxuLtAAzNErURAtHrycV+yfs0NA1cVZP5S0P9DaJDbSf71S&#xA;fvrtq1PquBUVq1Qgog36DFU5xV2KuxV2KuxV2KuxV2KuxV5b51sZ/Lvmm21yxTjDNJ9YUV4p6wBE&#xA;6HZgvqpuTt1Yk0WmKvS7G9t76ygvLZucFzGssTdKq4qKjFVfFXYq7FXYq7FXYq7FXYq7FXYq7FXY&#xA;q7FXYq7FXYq7FXYqoX17b2NlPeXLcILaNpZW60VBU0GKvM/JVjP5i803Ot3ycoYZPrDCvJDKwAgQ&#xA;GihvSTeu/RSDRqYq9TxV2KuxV2KuxV2KuxV2KuxV2KpT5p0RdZ0WezFBPtLauduM0e6b9q/ZPscV&#xA;Yp+V2ttxuNDuCQ0Rae0Dgg0J/fx/FXdJDyPxMfiNTUEBV6DirsVdirsVdirsVdirsVdirsVdirsV&#xA;dirsVdirsVdirsVeffmjrbcbfQ7cktKVnuwgJNAf3Efw03eQch8Sn4RQ1IBVZX5W0RdG0WCzNDPv&#xA;LdON+U0m7796fZHsMVTbFXYq7FXYq7FXYq7FXYq7FXYq7FXl3niwutA802+vaegpcP6wQV+KdBxk&#xA;jNCP71Dtsx3agG5xV6TYX1tf2UF7bPzt7hFkjYeDCv3+OKojFXYq7FXYq7FXYq7FXYq7FXYq7FXY&#xA;q7FXYq7FXYqh7+9trGynvbluFvbo0krf5Kip+nFXm3kexutf80XGvaggpbv65Q1+GdhxjjFSf7pB&#xA;vsp2WoOxxV6jirsVdirsVdirsVdirsVdirsVdirsVSnzRoUet6LPYkhZWHK3kYVCyAECoPUEEq3s&#xA;TirEPyu1l4Jbny7dVWSMtLAj0DI4NJomHw0PL4h8IqedNhXFXouKuxV2KuxV2KuxV2KuxV2KuxV2&#xA;KuxV2KuxV2KuxV51+aOsvPLbeXbWrSSFZZ0ShZ3JpDEo+Kp5fEfhNDwrsa4qy/yvoUeiaLBYghpV&#xA;HK4kUUDSEAGgHQAAKvsBiqbYq7FXYq7FXYq7FXYq7FXYq7FXYq7FXYq8x8/6dc6J5htvMGnjj6sn&#xA;qsK8UE8a/GG2ICyxr8X2a0YluxVei6bqFtqNhb31sSYLhBIleor+ywFaMDsR44qicVdirsVdirsV&#xA;dirsVdirsVdirsVdirsVdiqG1LULbTrC4vrkkQW6GR6dTT9lQaVYnYDxxV515A0651vzDc+YNQHL&#xA;0pPVUV5IZ5F+ALsAVijb4ftUqpDdgq9OxV2KuxV2KuxV2KuxV2KuxV2KuxV2KuxV2KpZ5k0WPWdG&#xA;uLBiFkccreT+SZDyjb6GG9O2KsN/LHWpLe5ufLt5+7cM8tqrE19RT/pEfxdSGPKgLH7RJrXFXouK&#xA;uxV2KuxV2KuxV2KuxV2KuxV2KuxV2KuxV51+ZutyXF1beXbL95ISkt0qk15sf9HiPHoSRyoSp+yQ&#xA;a0qqzLy3osejaNb2CkNIg5XEn88znlI30sdq9sVTPFXYq7FXYq7FXYq7FXYq7FXYq7FXYq7FXYq7&#xA;FXmPn/TbnRvMNtr9gAguJFckAmlynYqvxESptQBj9r7PInFXoek6nbappttqFsaw3KBwKg8T0ZSR&#xA;UVVqqffFUXirsVdirsVdirsVdirsVdirsVdirsVQmranbaXptzqFyaQ2yFyKgcj0VQTQVZqKPfFX&#xA;nnkHTbnWfMNzr9+A628jMCQRW5fsFb4gIk2oQp+z9riDir07FXYq7FXYq7FXYq7FXYq7FXYq7FXY&#xA;q7FXYq7FXYql+v6RFq+kXOnyUBmT925FQsg3RqHrRgNu+KsI/LLVZ7O9uvL97VGLvJCrEnhMnwyw&#xA;1JNSQvMfJjQAjFXo+KuxV2KuxV2KuxV2KuxV2KuxV2KuxV5z+ZmrT3d9a+X7IF3V0kmVSRzmc0hh&#xA;qKbgNzI91NCAcVZtoGkRaRpFtYR0Pop+8ZRQNI27tTtViaDFUs17zvZaXq8ei29heavrD2zX72Fg&#xA;sJkjtVf0/WczywJQv8KqGLMQaA0xVHeVvNGi+adAs9e0Wf6zpt8paCXiVNVYo6srUIZXUqR4jFU1&#xA;xV2KuxV2KuxV2KuxV2KuxV2KuxV2KuxV2KuxV5l+Y2lzaVrdr5isF4SyspZ+wuIqFeR2osiCjDkB&#xA;sdmYgYq9B0jU4NU0y3v4No505cT1Vhs6N03RgVPuMVRmKuxV2KuxV2KuxV2KuxV2KuxVB6tqdvpe&#xA;m3F/PUxwLy4jqzHZUX3ZiFHvirzHyX5Xk8wazd+ZLqV7bUYSfQv4KchcSEsV+IMskcaGgR6rRtgj&#xA;A0Vei6Lql3O81hqUaQ6taUMyxV9KWJyRHPFy3CvxNVJJRgVqRRmVef6vp2pah+eWo2unapLo923l&#xA;OyKX8EcMzqBqlwSOFwksZDDbpXwxVE/84+XaDyJPoItkgl8q6pfaHcSxcjHcy2svJ7leZc1mMvJt&#xA;/tVpttir0zFXYq7FXYq7FXYq7FXYq7FXYq7FXYq7FXYq7FUBrukx6tpNxYO3Ayr+6l7pIvxI4oQf&#xA;hYA9cVYN+WWrTWeo3Xly7HBvilhiAACSRtwmTYLQGlR8IGx3Y1OKvSMVdirsVdirsVdirsVdirsV&#xA;dirzf8zdWmvNRtfLloObfDLNEQCHkkbhCm4aoFan4SNxupocVZzoWkx6TpNvYI3MxL+9l7vI3xO5&#xA;qSfiYk9cVQfmNPq8unaulRLZ3McElNuVveyJBKrH+VWZJT/xjGKsV1f8tv05+a0/mDU4ZBpC6FBp&#xA;1rcW13PaXAuEu5ppKPayQyqvCUA/FQ4qzLy75b0Py5pMWk6JaJZafDyKQpyarMaszu5Z3ZjuWYkn&#xA;FUzxV2KuxV2KuxV2KuxV2KuxV2KuxV2KuxV2KuxV2KvJfNGgWkHmzUJdRtEL6pKs+n33EBmEcCKY&#xA;0kWjRyxFGYAEGnxjflRVlPlPzZK0sej6xJyu2+GxvmoBcgCvB6UCzqBuOjj4l/aVVWY4q7FXYq7F&#xA;XYq7FXYq7FWHebPNkqyyaPo8nG7X4b6+WhFsCK8ErUNOwOw6IPib9lWVYt5X0C0n82afLp1ogfS5&#xA;Wn1C+4gsokgdRG8jVaSWUurEEk0+M78aqvS7XTbyHUZrqTVbq5glDBLCVbUQRVYEFGjgjmPECg5y&#xA;Nsd6nfFUMfL9xLp97ZXmsXt4t2KJNKtorwU3Bi9K3iU0ND+8VunzxVVj0m/XS5LNtavXuXbkupMl&#xA;n9YQVB4qq24gptT4oidzv0oq6fSb+TTYbRNavYbiJuT6iiWZnkG/wur27wU+IfZjB2G/Wqrd7pV/&#xA;cR2qw6zeWbW4pLJAlmWnNF3l9a3lAPwn+7C9T7UVTLFXYq7FXYq7FXYq7FXYq7FXYq7FXYq7FXYq&#xA;7FUHq2k2GrWEljfR+pBJQ7Eqyspqrow3V1O6sNwcVeZatpNzp1z+idW/fJNvY3w+AThPiG609O4j&#xA;pyIWnTmncKqyjyn5slaWPR9Yk5XbfDY3zUAuQBXg9KBZ1A3HRx8S/tKqrMcVdirsVdirsVdirDvN&#xA;nmyVZZNH0eTjdr8N9fLQi2BFeCVqGnYHYdEHxN+yrKsX0nSbnUbn9E6T+5SHe+vj8YgD/Ed2r6lx&#xA;JXkA1evN+wZV6bpOk2Gk2EdjYx+nBHU7kszMxqzux3Z2O7MdycVRmKuxV2KuxV2KuxV2KuxV2Kux&#xA;V2KuxV2KuxV2KuxV2KuxV2KuxV2KoPVtJsNWsJLG+j9SCSh2JVlZTVXRhurqd1Ybg4q8y1bSbnTr&#xA;n9E6t++Sbexvh8AnCfEN1p6dxHTkQtOnNO4VVlHlPzZK0sej6xJyu2+GxvmoBcgCvB6UCzqBuOjj&#xA;4l/aVVWY4q7FXYq7FWHebPNkqyyaPo8nG7X4b6+WhFsCK8ErUNOwOw6IPib9lWVYvpOk3Oo3P6J0&#xA;n9ykO99fH4xAH+I7tX1LiSvIBq9eb9gyr03SdJsNJsI7Gxj9OCOp3JZmZjVndjuzsd2Y7k4qjMVd&#xA;irsVdirsVdirsVdirsVdirsVdirsVdirsVdirsVdirsVdirsVdirsVQeraTYatYSWN9H6kElDsSr&#xA;KymqujDdXU7qw3BxV5lq2k3OnXP6J1b98k29jfD4BOE+IbrT07iOnIhadOadwqrKPKfmyVpY9H1i&#xA;Tldt8NjfNQC5AFeD0oFnUDcdHHxL+0qqsxxV2KsO82ebJVlk0fR5ON2vw318tCLYEV4JWoadgdh0&#xA;QfE37KsqwW0gv21mPSbORYtLmeOGfUSpb6lPNUhXduQlluSfg57hzV+XNQVXrFtbaJ5a0RwGSy0y&#xA;yjea4uJWoABV5JpZGO5O7MzHFUli/NTyLJBDN+kJIxczWtvbRTWt3DNK98xW1MUMkSyvHKQeMiqU&#xA;2O+xxVluKuxV2KuxV2KuxV2KuxV2KuxV2KuxV2KuxV2KuxV2KuxV2KuxV2KuxV2KuxVB6tpNhq1h&#xA;JY30fqQSUOxKsrKaq6MN1dTurDcHFXmWraTc6dc/onVv3yTb2N8PgE4T4hutPTuI6ciFp05p3Cqs&#xA;g0Pz5FYxCx8xzkSL8NnqHAt9ZHZGWMH9+O4UfGPiX9pVVa13z/b3ytpvly5DXBUNe3oFDao9QFCO&#xA;AfXbiaBlov2m7KyqQaTpNzqNz+idJ/cpDvfXx+MQB/iO7V9S4kryAavXm/YMq9DTyvo8egSaFFEY&#xA;7GWN43KsfVLPu0vqH4vV5fFz68t8VYV+Z2jeYvOv5JazpOnqH8wTwiF40IQS3FjdL9YRCaCkjW7q&#xA;tfHFWOebHvtb85eUfNtp5S1K60rynBO81s1tLa3D313GI7aFIJ1jd0tpEBaUDgvLkGIDYq9uxV2K&#xA;uxV2KuxV2KuxV2KuxV2KuxV2KuxV2KuxV2KuxV2KuxV2KuxV2KuxV2KuxVB6tpNhq1hJY30fqQSU&#xA;OxKsrKaq6MN1dTurDcHFXjhuoZJbrRtYowW5uLW1uXIQXItp2iDArx4Tgx8qLT+ZO4VVD2UMupJY&#xA;yQ3R+tJfrYQamgVmmt5ZxA5pTi3BWLbjjzTlTjir1jy3d6Da6NLFpdtewWlgpeVZ7G9hmkJBd3Cz&#xA;xJLPIxBJ4BmJ9ziqMj8xWD6XJqaxXotom4NG1jeLcEkgfDbNCJ2HxdVQjr4HFUustWtdOtbq+lhv&#xA;PqN9eNLZRR2F7JMqvEhk9S3SFpo6zLIfjQdfcYqmd7r1jZtbLNFdsbsVi9Cyu5wK0/vTDE4i+1/u&#xA;zj+BxVdPrdnBqUWnPHdG4mAKPHaXUkArX7VwkbQJ0/acYqj8VdirsVdirsVdirsVdirsVdirsVdi&#xA;rsVdirsVdirsVdirsVdirsVdirsVdirsVeRef/qX6du/0T6Hp8l/xF9ep9S9TitOHf1uHHn+x0/b&#xA;5YqifInD/EcH6f4fXfj/AEF9Xr9Urwfl9r4/rHo8uvw8a8d64q9UxV2KuxV2KuxV2KuxV2KuxV2K&#xA;uxV2KuxV2KuxV//Z</xapGImg:image>
    </rdf:li>
   </rdf:Alt>
  </xap:Thumbnails>
 </rdf:Description>

 <rdf:Description rdf:about=''
  xmlns:dc='http://purl.org/dc/elements/1.1/'>
  <dc:format>image/svg+xml</dc:format>
 </rdf:Description>

</rdf:RDF>
</x:xmpmeta>
                                                                                                                                                                                                                                                                                                                                                                                                                                                                                                                                                                                                                                                                                                                                                                                                                                                                                                                                                                                                                                                                                                                                                                                                                                                                                                                                                                                                                                                                                                                                                                                                                                                                                                                                                                                                                                                                                                                                                                                                                                                                                                                                <?xpacket end='w'?>
			</metadata>
		<g id="Layer_1">
			<g>
				<g>
					<path style="fill:none;stroke:#404040;stroke-width:0.3;" d="M106.279,75.738c-0.899,0.642,1.673,2.054,0.936,2.604"/>
					<path style="fill:none;stroke:#404040;stroke-width:0.3;" d="M105.958,76.375c-0.899,0.642,1.673,2.054,0.936,2.604"/>
					<path style="fill:none;stroke:#404040;stroke-width:0.3;" d="M105.636,77.013c-0.899,0.642,1.673,2.053,0.936,2.604"/>
					<path style="fill:none;stroke:#404040;stroke-width:0.3;" d="M105.315,77.651c-0.899,0.641,1.673,2.053,0.935,2.603"/>
					<path style="fill:none;stroke:#404040;stroke-width:0.3;" d="M104.994,78.288c-0.9,0.642,1.673,2.054,0.935,2.604"/>
					<path style="fill:none;stroke:#404040;stroke-width:0.3;" d="M104.672,78.926c-0.9,0.642,1.673,2.054,0.935,2.604"/>
					<path style="fill:none;stroke:#404040;stroke-width:0.3;" d="M104.351,79.563c-0.9,0.642,1.673,2.054,0.935,2.604"/>
					<path style="fill:none;stroke:#404040;stroke-width:0.3;" d="M104.03,80.201c-0.9,0.642,1.673,2.053,0.935,2.604"/>
					<path style="fill:none;stroke:#404040;stroke-width:0.3;" d="M103.708,80.839c-0.899,0.641,1.674,2.053,0.936,2.604"/>
					<path style="fill:none;stroke:#404040;stroke-width:0.3;" d="M103.387,81.476c-0.899,0.642,1.674,2.054,0.936,2.604"/>
					<path style="fill:none;stroke:#404040;stroke-width:0.3;" d="M103.065,82.114c-0.899,0.642,1.674,2.054,0.936,2.604"/>
					<path style="fill:none;stroke:#404040;stroke-width:0.3;" d="M102.744,82.751c-0.899,0.642,1.674,2.054,0.936,2.604"/>
					<path style="fill:none;stroke:#404040;stroke-width:0.3;" d="M102.423,83.389c-0.899,0.642,1.673,2.053,0.936,2.604"/>
					<path style="fill:none;stroke:#404040;stroke-width:0.3;" d="M102.102,84.027c-0.899,0.642,1.673,2.053,0.936,2.604"/>
					<path style="fill:none;stroke:#404040;stroke-width:0.3;" d="M101.78,84.665c-0.899,0.642,1.673,2.053,0.936,2.603"/>
					<path style="fill:none;stroke:#404040;stroke-width:0.3;" d="M101.459,85.302c-0.899,0.642,1.673,2.054,0.935,2.604"/>
					<path style="fill:none;stroke:#404040;stroke-width:0.3;" d="M101.138,85.939c-0.899,0.642,1.673,2.054,0.935,2.604"/>
					<path style="fill:none;stroke:#404040;stroke-width:0.3;" d="M100.816,86.577c-0.9,0.642,1.673,2.054,0.935,2.604"/>
					<path style="fill:none;stroke:#404040;stroke-width:0.3;" d="M100.495,87.215c-0.9,0.642,1.673,2.053,0.935,2.604"/>
					<path style="fill:none;stroke:#404040;stroke-width:0.3;" d="M100.174,87.853c-0.9,0.641,1.673,2.053,0.935,2.604"/>
					<path style="fill:none;stroke:#404040;stroke-width:0.3;" d="M99.852,88.49c-0.899,0.642,1.674,2.054,0.936,2.604"/>
					<path style="fill:none;stroke:#404040;stroke-width:0.3;" d="M99.531,89.127c-0.899,0.642,1.674,2.054,0.936,2.604"/>
					<path style="fill:none;stroke:#404040;stroke-width:0.3;" d="M99.209,89.765c-0.899,0.642,1.673,2.054,0.936,2.604"/>
					<path style="fill:none;stroke:#404040;stroke-width:0.3;" d="M98.888,90.403c-0.899,0.642,1.673,2.054,0.936,2.604"/>
					<path style="fill:none;stroke:#404040;stroke-width:0.3;" d="M98.567,91.041c-0.899,0.642,1.673,2.053,0.936,2.604"/>
				</g>
				<g>
					<path style="fill:none;stroke:#404040;stroke-width:0.3;" d="M114.378,59.829c-0.9,0.642,1.673,2.054,0.935,2.604"/>
					<path style="fill:none;stroke:#404040;stroke-width:0.3;" d="M114.057,60.466c-0.9,0.642,1.673,2.054,0.935,2.604"/>
					<path style="fill:none;stroke:#404040;stroke-width:0.3;" d="M113.735,61.104c-0.899,0.642,1.674,2.053,0.936,2.604"/>
					<path style="fill:none;stroke:#404040;stroke-width:0.3;" d="M113.414,61.742c-0.899,0.641,1.674,2.053,0.936,2.604"/>
					<path style="fill:none;stroke:#404040;stroke-width:0.3;" d="M113.092,62.379c-0.899,0.642,1.674,2.054,0.936,2.604"/>
					<path style="fill:none;stroke:#404040;stroke-width:0.3;" d="M112.771,63.017c-0.899,0.642,1.673,2.054,0.936,2.604"/>
					<path style="fill:none;stroke:#404040;stroke-width:0.3;" d="M112.45,63.654c-0.899,0.642,1.673,2.054,0.936,2.604"/>
					<path style="fill:none;stroke:#404040;stroke-width:0.3;" d="M112.128,64.292c-0.899,0.642,1.673,2.054,0.936,2.604"/>
					<path style="fill:none;stroke:#404040;stroke-width:0.3;" d="M111.807,64.93c-0.899,0.642,1.673,2.053,0.936,2.604"/>
					<path style="fill:none;stroke:#404040;stroke-width:0.3;" d="M111.486,65.567c-0.899,0.641,1.673,2.053,0.935,2.603"/>
					<path style="fill:none;stroke:#404040;stroke-width:0.3;" d="M111.165,66.205c-0.9,0.642,1.673,2.054,0.935,2.604"/>
					<path style="fill:none;stroke:#404040;stroke-width:0.3;" d="M110.843,66.842c-0.9,0.642,1.673,2.054,0.935,2.604"/>
					<path style="fill:none;stroke:#404040;stroke-width:0.3;" d="M110.522,67.48c-0.9,0.642,1.673,2.054,0.935,2.604"/>
					<path style="fill:none;stroke:#404040;stroke-width:0.3;" d="M110.201,68.118c-0.9,0.642,1.673,2.053,0.935,2.604"/>
					<path style="fill:none;stroke:#404040;stroke-width:0.3;" d="M109.879,68.755c-0.899,0.641,1.674,2.053,0.936,2.604"/>
					<path style="fill:none;stroke:#404040;stroke-width:0.3;" d="M109.558,69.393c-0.899,0.642,1.674,2.054,0.936,2.604"/>
					<path style="fill:none;stroke:#404040;stroke-width:0.3;" d="M109.236,70.03c-0.899,0.642,1.674,2.054,0.936,2.604"/>
					<path style="fill:none;stroke:#404040;stroke-width:0.3;" d="M108.915,70.668c-0.899,0.642,1.674,2.054,0.936,2.604"/>
					<path style="fill:none;stroke:#404040;stroke-width:0.3;" d="M108.594,71.306c-0.899,0.642,1.673,2.053,0.936,2.604"/>
					<path style="fill:none;stroke:#404040;stroke-width:0.3;" d="M108.272,71.943c-0.899,0.642,1.673,2.053,0.936,2.604"/>
					<path style="fill:none;stroke:#404040;stroke-width:0.3;" d="M107.951,72.581c-0.899,0.642,1.673,2.054,0.936,2.604"/>
					<path style="fill:none;stroke:#404040;stroke-width:0.3;" d="M107.63,73.218c-0.899,0.642,1.673,2.054,0.935,2.604"/>
					<path style="fill:none;stroke:#404040;stroke-width:0.3;" d="M107.309,73.856c-0.9,0.642,1.673,2.054,0.935,2.604"/>
					<path style="fill:none;stroke:#404040;stroke-width:0.3;" d="M106.987,74.494c-0.9,0.642,1.673,2.054,0.935,2.604"/>
					<path style="fill:none;stroke:#404040;stroke-width:0.3;" d="M106.666,75.131c-0.9,0.642,1.673,2.054,0.935,2.604"/>
				</g>
				<g>
					<path style="fill:none;stroke:#404040;stroke-width:0.3;" d="M122.415,44.068c-0.899,0.642,1.674,2.054,0.936,2.604"/>
					<path style="fill:none;stroke:#404040;stroke-width:0.3;" d="M122.093,44.706c-0.899,0.642,1.674,2.054,0.936,2.604"/>
					<path style="fill:none;stroke:#404040;stroke-width:0.3;" d="M121.772,45.344c-0.899,0.642,1.674,2.054,0.936,2.604"/>
					<path style="fill:none;stroke:#404040;stroke-width:0.3;" d="M121.451,45.981c-0.899,0.642,1.673,2.053,0.936,2.604"/>
					<path style="fill:none;stroke:#404040;stroke-width:0.3;" d="M121.129,46.619c-0.899,0.642,1.673,2.053,0.936,2.604"/>
					<path style="fill:none;stroke:#404040;stroke-width:0.3;" d="M120.808,47.257c-0.899,0.641,1.673,2.053,0.936,2.603"/>
					<path style="fill:none;stroke:#404040;stroke-width:0.3;" d="M120.487,47.894c-0.9,0.642,1.673,2.054,0.935,2.604"/>
					<path style="fill:none;stroke:#404040;stroke-width:0.3;" d="M120.166,48.532c-0.9,0.642,1.673,2.054,0.935,2.604"/>
					<path style="fill:none;stroke:#404040;stroke-width:0.3;" d="M119.844,49.169c-0.9,0.642,1.673,2.054,0.935,2.604"/>
					<path style="fill:none;stroke:#404040;stroke-width:0.3;" d="M119.523,49.807c-0.9,0.642,1.673,2.053,0.935,2.604"/>
					<path style="fill:none;stroke:#404040;stroke-width:0.3;" d="M119.202,50.445c-0.9,0.642,1.673,2.053,0.935,2.604"/>
					<path style="fill:none;stroke:#404040;stroke-width:0.3;" d="M118.88,51.083c-0.9,0.641,1.673,2.053,0.935,2.604"/>
					<path style="fill:none;stroke:#404040;stroke-width:0.3;" d="M118.559,51.72c-0.899,0.642,1.674,2.054,0.936,2.604"/>
					<path style="fill:none;stroke:#404040;stroke-width:0.3;" d="M118.237,52.357c-0.899,0.642,1.674,2.054,0.936,2.604"/>
					<path style="fill:none;stroke:#404040;stroke-width:0.3;" d="M117.916,52.995c-0.899,0.642,1.674,2.053,0.936,2.604"/>
					<path style="fill:none;stroke:#404040;stroke-width:0.3;" d="M117.595,53.633c-0.899,0.642,1.673,2.053,0.936,2.604"/>
					<path style="fill:none;stroke:#404040;stroke-width:0.3;" d="M117.273,54.271c-0.899,0.642,1.673,2.053,0.936,2.603"/>
					<path style="fill:none;stroke:#404040;stroke-width:0.3;" d="M116.952,54.908c-0.899,0.641,1.673,2.053,0.936,2.603"/>
					<path style="fill:none;stroke:#404040;stroke-width:0.3;" d="M116.631,55.545c-0.899,0.642,1.673,2.054,0.936,2.604"/>
					<path style="fill:none;stroke:#404040;stroke-width:0.3;" d="M116.31,56.183c-0.899,0.642,1.673,2.054,0.935,2.604"/>
					<path style="fill:none;stroke:#404040;stroke-width:0.3;" d="M115.988,56.821c-0.9,0.642,1.673,2.054,0.935,2.604"/>
					<path style="fill:none;stroke:#404040;stroke-width:0.3;" d="M115.667,57.458c-0.9,0.642,1.673,2.053,0.935,2.604"/>
					<path style="fill:none;stroke:#404040;stroke-width:0.3;" d="M115.346,58.096c-0.9,0.641,1.673,2.053,0.935,2.604"/>
					<path style="fill:none;stroke:#404040;stroke-width:0.3;" d="M115.024,58.733c-0.9,0.642,1.673,2.054,0.935,2.604"/>
					<path style="fill:none;stroke:#404040;stroke-width:0.3;" d="M114.703,59.371c-0.899,0.642,1.674,2.054,0.936,2.604"/>
				</g>
				<g>
					<path style="fill:none;stroke:#404040;stroke-width:0.3;" d="M130.514,28.16c-0.899,0.642,1.673,2.053,0.936,2.603"/>
					<path style="fill:none;stroke:#404040;stroke-width:0.3;" d="M130.192,28.797c-0.899,0.641,1.673,2.053,0.935,2.603"/>
					<path style="fill:none;stroke:#404040;stroke-width:0.3;" d="M129.871,29.435c-0.9,0.642,1.673,2.054,0.935,2.604"/>
					<path style="fill:none;stroke:#404040;stroke-width:0.3;" d="M129.55,30.072c-0.9,0.642,1.673,2.054,0.935,2.604"/>
					<path style="fill:none;stroke:#404040;stroke-width:0.3;" d="M129.229,30.71c-0.9,0.642,1.673,2.053,0.935,2.604"/>
					<path style="fill:none;stroke:#404040;stroke-width:0.3;" d="M128.907,31.348c-0.899,0.641,1.674,2.053,0.936,2.604"/>
					<path style="fill:none;stroke:#404040;stroke-width:0.3;" d="M128.585,31.985c-0.899,0.642,1.674,2.054,0.936,2.604"/>
					<path style="fill:none;stroke:#404040;stroke-width:0.3;" d="M128.264,32.623c-0.899,0.642,1.674,2.054,0.936,2.604"/>
					<path style="fill:none;stroke:#404040;stroke-width:0.3;" d="M127.943,33.26c-0.899,0.642,1.673,2.054,0.936,2.604"/>
					<path style="fill:none;stroke:#404040;stroke-width:0.3;" d="M127.622,33.898c-0.899,0.642,1.673,2.054,0.936,2.604"/>
					<path style="fill:none;stroke:#404040;stroke-width:0.3;" d="M127.3,34.536c-0.899,0.642,1.673,2.053,0.935,2.604"/>
					<path style="fill:none;stroke:#404040;stroke-width:0.3;" d="M126.979,35.173c-0.899,0.642,1.673,2.053,0.935,2.603"/>
					<path style="fill:none;stroke:#404040;stroke-width:0.3;" d="M126.658,35.811c-0.9,0.642,1.673,2.054,0.935,2.604"/>
					<path style="fill:none;stroke:#404040;stroke-width:0.3;" d="M126.336,36.448c-0.9,0.642,1.673,2.054,0.935,2.604"/>
					<path style="fill:none;stroke:#404040;stroke-width:0.3;" d="M126.015,37.086c-0.9,0.642,1.673,2.054,0.935,2.604"/>
					<path style="fill:none;stroke:#404040;stroke-width:0.3;" d="M125.694,37.724c-0.9,0.642,1.673,2.053,0.935,2.604"/>
					<path style="fill:none;stroke:#404040;stroke-width:0.3;" d="M125.373,38.361c-0.9,0.641,1.673,2.053,0.935,2.604"/>
					<path style="fill:none;stroke:#404040;stroke-width:0.3;" d="M125.051,38.999c-0.9,0.642,1.673,2.054,0.935,2.604"/>
					<path style="fill:none;stroke:#404040;stroke-width:0.3;" d="M124.729,39.636c-0.899,0.642,1.674,2.054,0.936,2.604"/>
					<path style="fill:none;stroke:#404040;stroke-width:0.3;" d="M124.408,40.274c-0.899,0.642,1.673,2.054,0.936,2.604"/>
					<path style="fill:none;stroke:#404040;stroke-width:0.3;" d="M124.087,40.912c-0.899,0.642,1.673,2.054,0.936,2.604"/>
					<path style="fill:none;stroke:#404040;stroke-width:0.3;" d="M123.766,41.549c-0.899,0.642,1.673,2.053,0.936,2.604"/>
					<path style="fill:none;stroke:#404040;stroke-width:0.3;" d="M123.444,42.187c-0.899,0.642,1.673,2.053,0.936,2.604"/>
					<path style="fill:none;stroke:#404040;stroke-width:0.3;" d="M123.123,42.824c-0.899,0.642,1.673,2.054,0.936,2.604"/>
					<path style="fill:none;stroke:#404040;stroke-width:0.3;" d="M122.802,43.462c-0.899,0.642,1.673,2.054,0.935,2.604"/>
				</g>
				<g>
					<path style="fill:none;stroke:#404040;stroke-width:0.3;" d="M138.551,12.399c-0.9,0.642,1.673,2.053,0.935,2.604"/>
					<path style="fill:none;stroke:#404040;stroke-width:0.3;" d="M138.229,13.037c-0.9,0.642,1.673,2.053,0.935,2.604"/>
					<path style="fill:none;stroke:#404040;stroke-width:0.3;" d="M137.908,13.674c-0.9,0.642,1.673,2.054,0.935,2.604"/>
					<path style="fill:none;stroke:#404040;stroke-width:0.3;" d="M137.587,14.312c-0.9,0.642,1.673,2.054,0.935,2.604"/>
					<path style="fill:none;stroke:#404040;stroke-width:0.3;" d="M137.265,14.95c-0.899,0.642,1.674,2.054,0.936,2.604"/>
					<path style="fill:none;stroke:#404040;stroke-width:0.3;" d="M136.944,15.587c-0.899,0.642,1.674,2.054,0.936,2.604"/>
					<path style="fill:none;stroke:#404040;stroke-width:0.3;" d="M136.623,16.225c-0.899,0.642,1.674,2.053,0.936,2.604"/>
					<path style="fill:none;stroke:#404040;stroke-width:0.3;" d="M136.301,16.863c-0.899,0.642,1.673,2.053,0.936,2.604"/>
					<path style="fill:none;stroke:#404040;stroke-width:0.3;" d="M135.98,17.5c-0.899,0.641,1.673,2.053,0.936,2.603"/>
					<path style="fill:none;stroke:#404040;stroke-width:0.3;" d="M135.659,18.138c-0.899,0.642,1.673,2.054,0.935,2.604"/>
					<path style="fill:none;stroke:#404040;stroke-width:0.3;" d="M135.337,18.775c-0.899,0.642,1.673,2.054,0.935,2.604"/>
					<path style="fill:none;stroke:#404040;stroke-width:0.3;" d="M135.016,19.413c-0.9,0.642,1.673,2.053,0.935,2.604"/>
					<path style="fill:none;stroke:#404040;stroke-width:0.3;" d="M134.695,20.051c-0.9,0.642,1.673,2.053,0.935,2.604"/>
					<path style="fill:none;stroke:#404040;stroke-width:0.3;" d="M134.374,20.688c-0.9,0.641,1.673,2.053,0.935,2.604"/>
					<path style="fill:none;stroke:#404040;stroke-width:0.3;" d="M134.052,21.326c-0.899,0.642,1.674,2.054,0.936,2.604"/>
					<path style="fill:none;stroke:#404040;stroke-width:0.3;" d="M133.73,21.963c-0.899,0.642,1.674,2.054,0.936,2.604"/>
					<path style="fill:none;stroke:#404040;stroke-width:0.3;" d="M133.409,22.601c-0.899,0.642,1.674,2.054,0.936,2.604"/>
					<path style="fill:none;stroke:#404040;stroke-width:0.3;" d="M133.088,23.239c-0.899,0.642,1.674,2.053,0.936,2.604"/>
					<path style="fill:none;stroke:#404040;stroke-width:0.3;" d="M132.767,23.876c-0.899,0.642,1.673,2.053,0.936,2.604"/>
					<path style="fill:none;stroke:#404040;stroke-width:0.3;" d="M132.445,24.514c-0.899,0.642,1.673,2.053,0.936,2.604"/>
					<path style="fill:none;stroke:#404040;stroke-width:0.3;" d="M132.124,25.151c-0.899,0.642,1.673,2.054,0.936,2.604"/>
					<path style="fill:none;stroke:#404040;stroke-width:0.3;" d="M131.803,25.789c-0.899,0.642,1.673,2.054,0.936,2.604"/>
					<path style="fill:none;stroke:#404040;stroke-width:0.3;" d="M131.481,26.427c-0.9,0.642,1.673,2.054,0.935,2.604"/>
					<path style="fill:none;stroke:#404040;stroke-width:0.3;" d="M131.16,27.064c-0.9,0.642,1.673,2.053,0.935,2.604"/>
					<path style="fill:none;stroke:#404040;stroke-width:0.3;" d="M130.839,27.702c-0.9,0.641,1.673,2.053,0.935,2.604"/>
				</g>
				<path style="fill:#BFBFBF;stroke:#000000;stroke-width:0.3;" d="M97.298,92.587c0.673-0.674,1.765-0.674,2.439,0
					c0.673,0.673,0.674,1.766,0,2.439c-0.006,0.006-0.013,0.011-0.019,0.017l0,0l-24.386,24.395l-0.001,0
					c-0.004,0.004-0.007,0.009-0.011,0.013c-0.674,0.673-1.766,0.674-2.439,0c-0.673-0.674-0.674-1.766,0-2.439
					c0.004-0.004,0.008-0.007,0.013-0.012l0,0L97.28,92.605l0.001,0.001C97.287,92.6,97.292,92.593,97.298,92.587z"/>
				<g>
					<path style="fill:none;stroke:#404040;stroke-width:0.3;" d="M41.122,75.738c0.9,0.642-1.673,2.054-0.935,2.604"/>
					<path style="fill:none;stroke:#404040;stroke-width:0.3;" d="M41.444,76.375c0.899,0.642-1.674,2.054-0.936,2.604"/>
					<path style="fill:none;stroke:#404040;stroke-width:0.3;" d="M41.765,77.013c0.899,0.642-1.674,2.053-0.936,2.604"/>
					<path style="fill:none;stroke:#404040;stroke-width:0.3;" d="M42.086,77.651c0.899,0.641-1.673,2.053-0.936,2.603"/>
					<path style="fill:none;stroke:#404040;stroke-width:0.3;" d="M42.408,78.288c0.899,0.642-1.673,2.054-0.936,2.604"/>
					<path style="fill:none;stroke:#404040;stroke-width:0.3;" d="M42.729,78.926c0.899,0.642-1.673,2.054-0.936,2.604"/>
					<path style="fill:none;stroke:#404040;stroke-width:0.3;" d="M43.05,79.563c0.899,0.642-1.673,2.054-0.936,2.604"/>
					<path style="fill:none;stroke:#404040;stroke-width:0.3;" d="M43.372,80.201c0.899,0.642-1.673,2.053-0.935,2.604"/>
					<path style="fill:none;stroke:#404040;stroke-width:0.3;" d="M43.693,80.839c0.9,0.641-1.673,2.053-0.935,2.604"/>
					<path style="fill:none;stroke:#404040;stroke-width:0.3;" d="M44.014,81.476c0.9,0.642-1.673,2.054-0.935,2.604"/>
					<path style="fill:none;stroke:#404040;stroke-width:0.3;" d="M44.335,82.114c0.9,0.642-1.673,2.054-0.935,2.604"/>
					<path style="fill:none;stroke:#404040;stroke-width:0.3;" d="M44.657,82.751c0.9,0.642-1.673,2.054-0.935,2.604"/>
					<path style="fill:none;stroke:#404040;stroke-width:0.3;" d="M44.979,83.389c0.899,0.642-1.674,2.053-0.936,2.604"/>
					<path style="fill:none;stroke:#404040;stroke-width:0.3;" d="M45.3,84.027c0.899,0.642-1.674,2.053-0.936,2.604"/>
					<path style="fill:none;stroke:#404040;stroke-width:0.3;" d="M45.621,84.665c0.899,0.642-1.674,2.053-0.936,2.603"/>
					<path style="fill:none;stroke:#404040;stroke-width:0.3;" d="M45.942,85.302c0.899,0.642-1.674,2.054-0.936,2.604"/>
					<path style="fill:none;stroke:#404040;stroke-width:0.3;" d="M46.264,85.939c0.899,0.642-1.673,2.054-0.936,2.604"/>
					<path style="fill:none;stroke:#404040;stroke-width:0.3;" d="M46.585,86.577c0.899,0.642-1.673,2.054-0.936,2.604"/>
					<path style="fill:none;stroke:#404040;stroke-width:0.3;" d="M46.906,87.215c0.899,0.642-1.673,2.053-0.935,2.604"/>
					<path style="fill:none;stroke:#404040;stroke-width:0.3;" d="M47.228,87.853c0.899,0.641-1.673,2.053-0.935,2.604"/>
					<path style="fill:none;stroke:#404040;stroke-width:0.3;" d="M47.549,88.49c0.899,0.642-1.673,2.054-0.935,2.604"/>
					<path style="fill:none;stroke:#404040;stroke-width:0.3;" d="M47.87,89.127c0.899,0.642-1.673,2.054-0.935,2.604"/>
					<path style="fill:none;stroke:#404040;stroke-width:0.3;" d="M48.191,89.765c0.9,0.642-1.673,2.054-0.935,2.604"/>
					<path style="fill:none;stroke:#404040;stroke-width:0.3;" d="M48.513,90.403c0.9,0.642-1.673,2.054-0.935,2.604"/>
					<path style="fill:none;stroke:#404040;stroke-width:0.3;" d="M48.834,91.041c0.899,0.642-1.674,2.053-0.936,2.604"/>
				</g>
				<g>
					<path style="fill:none;stroke:#404040;stroke-width:0.3;" d="M33.023,59.829c0.899,0.642-1.673,2.054-0.935,2.604"/>
					<path style="fill:none;stroke:#404040;stroke-width:0.3;" d="M33.345,60.466c0.899,0.642-1.673,2.054-0.935,2.604"/>
					<path style="fill:none;stroke:#404040;stroke-width:0.3;" d="M33.666,61.104c0.899,0.642-1.673,2.053-0.935,2.604"/>
					<path style="fill:none;stroke:#404040;stroke-width:0.3;" d="M33.987,61.742c0.9,0.641-1.673,2.053-0.935,2.604"/>
					<path style="fill:none;stroke:#404040;stroke-width:0.3;" d="M34.309,62.379c0.9,0.642-1.673,2.054-0.935,2.604"/>
					<path style="fill:none;stroke:#404040;stroke-width:0.3;" d="M34.63,63.017c0.9,0.642-1.673,2.054-0.935,2.604"/>
					<path style="fill:none;stroke:#404040;stroke-width:0.3;" d="M34.952,63.654c0.899,0.642-1.674,2.054-0.936,2.604"/>
					<path style="fill:none;stroke:#404040;stroke-width:0.3;" d="M35.273,64.292c0.899,0.642-1.674,2.054-0.936,2.604"/>
					<path style="fill:none;stroke:#404040;stroke-width:0.3;" d="M35.594,64.93c0.899,0.642-1.674,2.053-0.936,2.604"/>
					<path style="fill:none;stroke:#404040;stroke-width:0.3;" d="M35.916,65.567c0.899,0.641-1.673,2.053-0.936,2.603"/>
					<path style="fill:none;stroke:#404040;stroke-width:0.3;" d="M36.237,66.205c0.899,0.642-1.673,2.054-0.936,2.604"/>
					<path style="fill:none;stroke:#404040;stroke-width:0.3;" d="M36.558,66.842c0.899,0.642-1.673,2.054-0.936,2.604"/>
					<path style="fill:none;stroke:#404040;stroke-width:0.3;" d="M36.879,67.48c0.899,0.642-1.673,2.054-0.936,2.604"/>
					<path style="fill:none;stroke:#404040;stroke-width:0.3;" d="M37.201,68.118c0.9,0.642-1.673,2.053-0.935,2.604"/>
					<path style="fill:none;stroke:#404040;stroke-width:0.3;" d="M37.522,68.755c0.9,0.641-1.673,2.053-0.935,2.604"/>
					<path style="fill:none;stroke:#404040;stroke-width:0.3;" d="M37.843,69.393c0.9,0.642-1.673,2.054-0.935,2.604"/>
					<path style="fill:none;stroke:#404040;stroke-width:0.3;" d="M38.165,70.03c0.9,0.642-1.673,2.054-0.935,2.604"/>
					<path style="fill:none;stroke:#404040;stroke-width:0.3;" d="M38.486,70.668c0.9,0.642-1.673,2.054-0.935,2.604"/>
					<path style="fill:none;stroke:#404040;stroke-width:0.3;" d="M38.808,71.306c0.899,0.642-1.674,2.053-0.936,2.604"/>
					<path style="fill:none;stroke:#404040;stroke-width:0.3;" d="M39.129,71.943c0.899,0.642-1.674,2.053-0.936,2.604"/>
					<path style="fill:none;stroke:#404040;stroke-width:0.3;" d="M39.45,72.581c0.899,0.642-1.674,2.054-0.936,2.604"/>
					<path style="fill:none;stroke:#404040;stroke-width:0.3;" d="M39.771,73.218c0.899,0.642-1.674,2.054-0.936,2.604"/>
					<path style="fill:none;stroke:#404040;stroke-width:0.3;" d="M40.093,73.856c0.899,0.642-1.673,2.054-0.936,2.604"/>
					<path style="fill:none;stroke:#404040;stroke-width:0.3;" d="M40.414,74.494c0.899,0.642-1.673,2.054-0.936,2.604"/>
					<path style="fill:none;stroke:#404040;stroke-width:0.3;" d="M40.735,75.131c0.899,0.642-1.673,2.054-0.936,2.604"/>
				</g>
				<g>
					<path style="fill:none;stroke:#404040;stroke-width:0.3;" d="M24.986,44.068c0.899,0.642-1.673,2.054-0.935,2.604"/>
					<path style="fill:none;stroke:#404040;stroke-width:0.3;" d="M25.308,44.706c0.9,0.642-1.673,2.054-0.935,2.604"/>
					<path style="fill:none;stroke:#404040;stroke-width:0.3;" d="M25.629,45.344c0.9,0.642-1.673,2.054-0.935,2.604"/>
					<path style="fill:none;stroke:#404040;stroke-width:0.3;" d="M25.95,45.981c0.9,0.642-1.673,2.053-0.935,2.604"/>
					<path style="fill:none;stroke:#404040;stroke-width:0.3;" d="M26.272,46.619c0.899,0.642-1.674,2.053-0.936,2.604"/>
					<path style="fill:none;stroke:#404040;stroke-width:0.3;" d="M26.593,47.257c0.899,0.641-1.674,2.053-0.936,2.603"/>
					<path style="fill:none;stroke:#404040;stroke-width:0.3;" d="M26.915,47.894c0.899,0.642-1.673,2.054-0.936,2.604"/>
					<path style="fill:none;stroke:#404040;stroke-width:0.3;" d="M27.236,48.532c0.899,0.642-1.673,2.054-0.936,2.604"/>
					<path style="fill:none;stroke:#404040;stroke-width:0.3;" d="M27.557,49.169c0.899,0.642-1.673,2.054-0.936,2.604"/>
					<path style="fill:none;stroke:#404040;stroke-width:0.3;" d="M27.878,49.807c0.899,0.642-1.673,2.053-0.936,2.604"/>
					<path style="fill:none;stroke:#404040;stroke-width:0.3;" d="M28.2,50.445c0.899,0.642-1.673,2.053-0.935,2.604"/>
					<path style="fill:none;stroke:#404040;stroke-width:0.3;" d="M28.521,51.083c0.899,0.641-1.673,2.053-0.935,2.604"/>
					<path style="fill:none;stroke:#404040;stroke-width:0.3;" d="M28.842,51.72c0.9,0.642-1.673,2.054-0.935,2.604"/>
					<path style="fill:none;stroke:#404040;stroke-width:0.3;" d="M29.164,52.357c0.9,0.642-1.673,2.054-0.935,2.604"/>
					<path style="fill:none;stroke:#404040;stroke-width:0.3;" d="M29.485,52.995c0.9,0.642-1.673,2.053-0.935,2.604"/>
					<path style="fill:none;stroke:#404040;stroke-width:0.3;" d="M29.806,53.633c0.9,0.642-1.673,2.053-0.935,2.604"/>
					<path style="fill:none;stroke:#404040;stroke-width:0.3;" d="M30.127,54.271c0.9,0.642-1.673,2.053-0.935,2.603"/>
					<path style="fill:none;stroke:#404040;stroke-width:0.3;" d="M30.449,54.908c0.899,0.641-1.674,2.053-0.936,2.603"/>
					<path style="fill:none;stroke:#404040;stroke-width:0.3;" d="M30.771,55.545c0.899,0.642-1.674,2.054-0.936,2.604"/>
					<path style="fill:none;stroke:#404040;stroke-width:0.3;" d="M31.092,56.183c0.899,0.642-1.673,2.054-0.936,2.604"/>
					<path style="fill:none;stroke:#404040;stroke-width:0.3;" d="M31.413,56.821c0.899,0.642-1.673,2.054-0.936,2.604"/>
					<path style="fill:none;stroke:#404040;stroke-width:0.3;" d="M31.734,57.458c0.899,0.642-1.673,2.053-0.936,2.604"/>
					<path style="fill:none;stroke:#404040;stroke-width:0.3;" d="M32.056,58.096c0.899,0.641-1.673,2.053-0.936,2.604"/>
					<path style="fill:none;stroke:#404040;stroke-width:0.3;" d="M32.377,58.733c0.9,0.642-1.673,2.054-0.935,2.604"/>
					<path style="fill:none;stroke:#404040;stroke-width:0.3;" d="M32.698,59.371c0.9,0.642-1.673,2.054-0.935,2.604"/>
				</g>
				<g>
					<path style="fill:none;stroke:#404040;stroke-width:0.3;" d="M16.888,28.16c0.899,0.642-1.674,2.053-0.936,2.603"/>
					<path style="fill:none;stroke:#404040;stroke-width:0.3;" d="M17.209,28.797c0.899,0.641-1.674,2.053-0.936,2.603"/>
					<path style="fill:none;stroke:#404040;stroke-width:0.3;" d="M17.53,29.435c0.899,0.642-1.674,2.054-0.936,2.604"/>
					<path style="fill:none;stroke:#404040;stroke-width:0.3;" d="M17.852,30.072c0.899,0.642-1.673,2.054-0.936,2.604"/>
					<path style="fill:none;stroke:#404040;stroke-width:0.3;" d="M18.173,30.71c0.899,0.642-1.673,2.053-0.935,2.604"/>
					<path style="fill:none;stroke:#404040;stroke-width:0.3;" d="M18.494,31.348c0.899,0.641-1.673,2.053-0.935,2.604"/>
					<path style="fill:none;stroke:#404040;stroke-width:0.3;" d="M18.815,31.985c0.9,0.642-1.673,2.054-0.935,2.604"/>
					<path style="fill:none;stroke:#404040;stroke-width:0.3;" d="M19.137,32.623c0.9,0.642-1.673,2.054-0.935,2.604"/>
					<path style="fill:none;stroke:#404040;stroke-width:0.3;" d="M19.458,33.26c0.9,0.642-1.673,2.054-0.935,2.604"/>
					<path style="fill:none;stroke:#404040;stroke-width:0.3;" d="M19.78,33.898c0.899,0.642-1.674,2.054-0.936,2.604"/>
					<path style="fill:none;stroke:#404040;stroke-width:0.3;" d="M20.101,34.536c0.899,0.642-1.674,2.053-0.936,2.604"/>
					<path style="fill:none;stroke:#404040;stroke-width:0.3;" d="M20.422,35.173c0.899,0.642-1.674,2.053-0.936,2.603"/>
					<path style="fill:none;stroke:#404040;stroke-width:0.3;" d="M20.744,35.811c0.899,0.642-1.673,2.054-0.936,2.604"/>
					<path style="fill:none;stroke:#404040;stroke-width:0.3;" d="M21.065,36.448c0.899,0.642-1.673,2.054-0.936,2.604"/>
					<path style="fill:none;stroke:#404040;stroke-width:0.3;" d="M21.386,37.086c0.899,0.642-1.673,2.054-0.936,2.604"/>
					<path style="fill:none;stroke:#404040;stroke-width:0.3;" d="M21.708,37.724c0.899,0.642-1.673,2.053-0.935,2.604"/>
					<path style="fill:none;stroke:#404040;stroke-width:0.3;" d="M22.029,38.361c0.9,0.641-1.673,2.053-0.935,2.604"/>
					<path style="fill:none;stroke:#404040;stroke-width:0.3;" d="M22.35,38.999c0.9,0.642-1.673,2.054-0.935,2.604"/>
					<path style="fill:none;stroke:#404040;stroke-width:0.3;" d="M22.671,39.636c0.9,0.642-1.673,2.054-0.935,2.604"/>
					<path style="fill:none;stroke:#404040;stroke-width:0.3;" d="M22.993,40.274c0.9,0.642-1.673,2.054-0.935,2.604"/>
					<path style="fill:none;stroke:#404040;stroke-width:0.3;" d="M23.314,40.912c0.9,0.642-1.673,2.054-0.935,2.604"/>
					<path style="fill:none;stroke:#404040;stroke-width:0.3;" d="M23.635,41.549c0.9,0.642-1.673,2.053-0.935,2.604"/>
					<path style="fill:none;stroke:#404040;stroke-width:0.3;" d="M23.957,42.187c0.899,0.642-1.674,2.053-0.936,2.604"/>
					<path style="fill:none;stroke:#404040;stroke-width:0.3;" d="M24.278,42.824c0.899,0.642-1.674,2.054-0.936,2.604"/>
					<path style="fill:none;stroke:#404040;stroke-width:0.3;" d="M24.6,43.462c0.899,0.642-1.673,2.054-0.936,2.604"/>
				</g>
				<g>
					<path style="fill:none;stroke:#404040;stroke-width:0.3;" d="M8.851,12.399c0.899,0.642-1.673,2.053-0.936,2.604"/>
					<path style="fill:none;stroke:#404040;stroke-width:0.3;" d="M9.172,13.037c0.899,0.642-1.673,2.053-0.935,2.604"/>
					<path style="fill:none;stroke:#404040;stroke-width:0.3;" d="M9.493,13.674c0.899,0.642-1.673,2.054-0.936,2.604"/>
					<path style="fill:none;stroke:#404040;stroke-width:0.3;" d="M9.814,14.312c0.899,0.642-1.673,2.054-0.935,2.604"/>
					<path style="fill:none;stroke:#404040;stroke-width:0.3;" d="M10.136,14.95c0.9,0.642-1.673,2.054-0.935,2.604"/>
					<path style="fill:none;stroke:#404040;stroke-width:0.3;" d="M10.457,15.587c0.9,0.642-1.673,2.054-0.935,2.604"/>
					<path style="fill:none;stroke:#404040;stroke-width:0.3;" d="M10.779,16.225c0.899,0.642-1.674,2.053-0.936,2.604"/>
					<path style="fill:none;stroke:#404040;stroke-width:0.3;" d="M11.1,16.863c0.899,0.642-1.674,2.053-0.936,2.604"/>
					<path style="fill:none;stroke:#404040;stroke-width:0.3;" d="M11.421,17.5c0.899,0.641-1.674,2.053-0.936,2.603"/>
					<path style="fill:none;stroke:#404040;stroke-width:0.3;" d="M11.743,18.138c0.899,0.642-1.674,2.054-0.936,2.604"/>
					<path style="fill:none;stroke:#404040;stroke-width:0.3;" d="M12.064,18.775c0.899,0.642-1.674,2.054-0.936,2.604"/>
					<path style="fill:none;stroke:#404040;stroke-width:0.3;" d="M12.385,19.413c0.899,0.642-1.673,2.053-0.936,2.604"/>
					<path style="fill:none;stroke:#404040;stroke-width:0.3;" d="M12.707,20.051c0.899,0.642-1.673,2.053-0.936,2.604"/>
					<path style="fill:none;stroke:#404040;stroke-width:0.3;" d="M13.028,20.688c0.899,0.641-1.673,2.053-0.935,2.604"/>
					<path style="fill:none;stroke:#404040;stroke-width:0.3;" d="M13.349,21.326c0.899,0.642-1.673,2.054-0.935,2.604"/>
					<path style="fill:none;stroke:#404040;stroke-width:0.3;" d="M13.67,21.963c0.9,0.642-1.673,2.054-0.935,2.604"/>
					<path style="fill:none;stroke:#404040;stroke-width:0.3;" d="M13.992,22.601c0.9,0.642-1.673,2.054-0.935,2.604"/>
					<path style="fill:none;stroke:#404040;stroke-width:0.3;" d="M14.313,23.239c0.9,0.642-1.673,2.053-0.935,2.604"/>
					<path style="fill:none;stroke:#404040;stroke-width:0.3;" d="M14.634,23.876c0.9,0.642-1.673,2.053-0.935,2.604"/>
					<path style="fill:none;stroke:#404040;stroke-width:0.3;" d="M14.956,24.514c0.899,0.642-1.674,2.053-0.936,2.604"/>
					<path style="fill:none;stroke:#404040;stroke-width:0.3;" d="M15.277,25.151c0.899,0.642-1.674,2.054-0.936,2.604"/>
					<path style="fill:none;stroke:#404040;stroke-width:0.3;" d="M15.599,25.789c0.899,0.642-1.674,2.054-0.936,2.604"/>
					<path style="fill:none;stroke:#404040;stroke-width:0.3;" d="M15.92,26.427c0.899,0.642-1.673,2.054-0.936,2.604"/>
					<path style="fill:none;stroke:#404040;stroke-width:0.3;" d="M16.241,27.064c0.899,0.642-1.673,2.053-0.936,2.604"/>
					<path style="fill:none;stroke:#404040;stroke-width:0.3;" d="M16.562,27.702c0.899,0.641-1.673,2.053-0.936,2.604"/>
				</g>
				<circle style="fill:#BFBFBF;stroke:#000000;stroke-width:0.3;" cx="73.628" cy="118.248" r="3.784"/> 
				<path style="fill:#BFBFBF;stroke:#000000;stroke-width:0.3;" d="M50.103,92.587c-0.673-0.674-1.765-0.674-2.439,0
					s-0.674,1.766,0,2.439c0.006,0.006,0.013,0.011,0.019,0.017l-0.001,0l24.387,24.395l0,0c0.004,0.004,0.008,0.009,0.012,0.013
					c0.673,0.673,1.766,0.674,2.439,0c0.674-0.674,0.674-1.766,0-2.439c-0.004-0.004-0.009-0.007-0.013-0.012l0,0L50.121,92.605
					l0,0.001C50.114,92.6,50.109,92.593,50.103,92.587z"/>
			</g>
			<rect x="0.015" style="fill:#BFBFBF;" width="147.371" height="15.288"/> 
			<line style="fill:none;stroke:#000000;stroke-width:0.5;" x1="0.015" y1="15.135" x2="147.386" y2="15.135"/>
			<rect y="59.723" style="fill:none;" width="147.401" height="2.835"/> 
			
				<line style="fill:none;stroke:#000000;stroke-width:0.5;stroke-dasharray:2;" x1="78.393" y1="118.83" x2="101.357" y2="118.83"/>
			
				<line style="fill:none;stroke:#000000;stroke-width:0.5;stroke-dasharray:2;" x1="102.098" y1="93.538" x2="125.063" y2="93.538"/>
			<path style="fill:none;stroke:#000000;stroke-width:0.3;" d="M103.13,83.072c4.061,1.717,6.91,5.738,6.91,10.424"/>
			<path style="fill:none;stroke:#000000;stroke-width:0.3;" d="M84.393,107.483c2.755,2.755,4.459,6.561,4.459,10.765"/>
			<g>
				<text transform="matrix(1 0 0 1 111.3931 88.4961)"><tspan x="0" y="0" style="font-family:'Symbol'; font-size:10;">&#x3B2;</tspan></text>
			</g>
			<g>
				<text transform="matrix(1 0 0 1 90.3931 114.4961)"><tspan x="0" y="0" style="font-family:'Symbol'; font-size:10;">&#x3B1;</tspan></text>
			</g>
		</g>
	</svg>
