<?xml version="1.0" encoding="UTF-8" standalone="no"?>
<!-- Generator: Adobe Illustrator 11 Build 196, SVG Export Plug-In . SVG Version: 6.0.0 Build 78)  -->
<svg
   xmlns:xap="http://ns.adobe.com/xap/1.0/"
   xmlns:x="adobe:ns:meta/"
   xmlns:dc="http://purl.org/dc/elements/1.1/"
   xmlns:cc="http://web.resource.org/cc/"
   xmlns:rdf="http://www.w3.org/1999/02/22-rdf-syntax-ns#"
   xmlns:svg="http://www.w3.org/2000/svg"
   xmlns="http://www.w3.org/2000/svg"
   xmlns:xlink="http://www.w3.org/1999/xlink"
   xmlns:sodipodi="http://inkscape.sourceforge.net/DTD/sodipodi-0.dtd"
   xmlns:inkscape="http://www.inkscape.org/namespaces/inkscape"
   width="151.828"
   height="114.19"
   viewBox="0 0 151.828 114.19"
   style="overflow:visible;enable-background:new 0 0 151.828 114.19"
   xml:space="preserve"
   id="svg2"
   sodipodi:version="0.32"
   sodipodi:docname="high-jump.svg"
   sodipodi:docbase="/home/bcrowell/Documents/writing/lm/trunk/1np/ch02/figs"><defs
   id="defs271">
			
			
			
			
			
			
			
			
			
			
			
			
			
			
			
			
			
			
			
			
			
			
			
			
			
			
			
			
			
			
			
			
			

			
			
			 
			 
		</defs><sodipodi:namedview
   inkscape:cy="13.910062"
   inkscape:cx="9.4138803"
   inkscape:zoom="2.7039567"
   inkscape:window-height="938"
   inkscape:window-width="1228"
   inkscape:pageshadow="2"
   inkscape:pageopacity="0.0"
   borderopacity="1.0"
   bordercolor="#666666"
   pagecolor="#ffffff"
   id="base"
   inkscape:window-x="7"
   inkscape:window-y="35"
   inkscape:current-layer="svg2" />
	<style
   type="text/css"
   id="style4">
	
	</style>
	<metadata
   id="metadata6">
<xpacket
   id="xpacket8" /><x:xmpmeta
   x:xmptk="XMP toolkit 3.0-29, framework 1.6">

<metadata
   id="metadata273"><rdf:RDF>

 <rdf:Description
   rdf:about="">
 </rdf:Description>

 <rdf:Description
   rdf:about="">
 </rdf:Description>

 <rdf:Description
   rdf:about="">
  <xap:CreateDate>2004-11-15T23:46:32Z</xap:CreateDate>
  <xap:ModifyDate>2004-11-15T23:46:32Z</xap:ModifyDate>
  <xap:CreatorTool>Illustrator</xap:CreatorTool>
  
 </rdf:Description>

 <rdf:Description
   rdf:about="">
  <dc:format>image/svg+xml</dc:format>
 </rdf:Description>

<cc:Work
   rdf:about=""><dc:format>image/svg+xml</dc:format><dc:type
     rdf:resource="http://purl.org/dc/dcmitype/StillImage" /></cc:Work></rdf:RDF></metadata></x:xmpmeta>
                                                                                                                                                                                                                                                                                                                                                                                                                                                                                                                                                                                                                                                                                                                                                                                                                                                                                                                                                                                                                                                                                                                                                                                                                                                                                                                                                                                                                                                                                                                                                                                                                                                                                                                                                                                                                                                                                                                                                                                                                                                                                                                                <xpacket
   id="xpacket10" />
			</metadata>
		<image
   id="image1492"
   height="111.83262"
   width="143.04802"
   sodipodi:absref="/home/bcrowell/Documents/writing/lm/trunk/1np/ch02/figs/high-jump-photo.jpg"
   xlink:href="high-jump-photo.jpg"
   x="4.5183764"
   y="0.65904003" /><line
   id="line186"
   y2="36.680511"
   x2="80.264893"
   y1="36.680511"
   x1="78.264893"
   style="fill:none;stroke:#ffffff;stroke-dasharray:2.0000000 " /><line
   id="line188"
   y2="42.239510"
   x2="102.83889"
   y1="39.430511"
   x1="94.014893"
   style="fill:none;stroke:#ffffff;stroke-dasharray:2.0000000 " /><polyline
   id="polyline190"
   points="114.083,46.79 116.083,48.29 118.083,46.79      119.333,46.29 "
   style="fill:none;stroke:#ffffff;stroke-dasharray:2.0000000 "
   transform="translate(-4.068153,-1.109490)" /><polyline
   id="polyline192"
   points="128.44,47.406 131.833,49.29 132.316,51.474      131.827,54.444 "
   style="fill:none;stroke:#ffffff;stroke-dasharray:2.0000000 "
   transform="translate(-4.068153,-1.109490)" /><line
   id="line194"
   y2="51.930511"
   x2="83.014893"
   y1="51.430511"
   x1="78.264893"
   style="fill:none;stroke:#ffffff;stroke-dasharray:2.0000000 " /><path
   id="path196"
   d="M 69.264887,34.180515 L 63.514887,30.930515 L 60.514887,29.680515 C 60.514887,29.680515 58.652887,20.528515 63.264887,24.430515 C 66.514887,27.180515 69.264887,28.430515 69.264887,28.430515"
   style="fill:none;stroke:#ffffff;stroke-dasharray:2.0000000 " /><line
   id="line198"
   y2="34.930511"
   x2="81.264893"
   y1="32.680511"
   x1="78.014893"
   style="fill:none;stroke:#ffffff;stroke-dasharray:2.0000000 " /><path
   id="path200"
   d="M 41.014887,54.430515 C 39.480887,54.813515 40.014887,56.430515 40.014887,56.430515 C 40.014887,56.430515 41.634887,56.674515 41.764887,60.180515 C 41.826887,61.868515 41.764887,63.289510 41.635887,64.512510"
   style="fill:none;stroke:#ffffff;stroke-dasharray:2.0000000 " /><path
   id="path202"
   d="M 41.636887,64.512510 C 41.249887,68.180510 40.265887,70.055510 40.265887,71.930510 C 40.265887,74.430510 40.515887,81.180510 40.515887,81.180510 C 40.515887,81.180510 38.765887,90.430510 36.515887,90.680510 C 34.265887,90.930510 34.015887,78.680510 34.015887,77.930510 C 34.015887,77.542510 33.680887,70.926510 33.357887,64.425510"
   style="fill:none;stroke:#000000;stroke-dasharray:2.0000000 " /><path
   id="path204"
   d="M 33.357887,64.425510 C 33.056887,58.364515 32.765887,52.404515 32.765887,51.680515 C 32.765887,50.180515 40.515887,46.930515 46.265887,45.430515 C 52.015887,43.930515 56.515887,43.680515 56.515887,43.680515"
   style="fill:none;stroke:#ffffff;stroke-dasharray:2.0000000 " /><path
   id="path206"
   d="M 33.014887,74.680510 C 32.199887,72.336510 30.926887,68.827510 29.654887,65.409510"
   style="fill:none;stroke:#000000;stroke-dasharray:2.0000000 " /><path
   id="path208"
   d="M 29.654887,65.410510 C 27.806887,60.445515 25.959887,55.671515 25.514887,54.931515 C 24.764887,53.681515 22.764887,48.681515 24.264887,47.431515 C 25.764887,46.181515 42.014887,39.431515 50.014887,38.681515 C 58.014887,37.931515 64.514887,36.431515 69.014887,36.431515"
   style="fill:none;stroke:#ffffff;stroke-dasharray:2.0000000 " /><path
   id="path210"
   d="M 101.96789,56.926515 C 101.75789,57.402515 101.63689,57.927515 101.62789,58.480515 C 101.59289,60.693515 103.35689,62.515515 105.56989,62.551515 C 107.78189,62.587515 109.60489,60.822515 109.63989,58.609515 C 109.67589,56.397515 107.91089,54.574515 105.69789,54.539515 C 104.03889,54.512515 102.59889,55.498515 101.96789,56.926515"
   style="fill:#ffffff;stroke:#000000;stroke-width:0.50000000" /><path
   id="path212"
   d="M 4.7259669,98.485890 C 23.395967,66.156890 44.011887,62.110515 71.033887,57.993515"
   style="fill:none;stroke:#000000"
   sodipodi:nodetypes="cc" /><path
   id="path214"
   d="M 78.139888,57.155515 C 80.678888,56.943515 83.195888,56.825515 85.679888,56.796515"
   style="fill:none;stroke:#000000" /><path
   id="path216"
   d="M 85.679888,56.796515 C 92.659888,56.715515 99.383888,57.338515 105.63389,58.545515"
   style="fill:none;stroke:#ffffff" /><path
   id="path218"
   d="M 68.264887,60.930515 C 68.264887,61.211515 68.483887,61.430515 68.764887,61.430515 C 69.045887,61.430515 69.264887,61.211515 69.264887,60.930515 C 69.264887,60.649515 69.045887,60.430515 68.764887,60.430515 C 68.483887,60.430515 68.264887,60.649515 68.264887,60.930515 L 68.264887,60.930515 z "
   style="fill:#c7b134" /><path
   id="path220"
   d="M 68.874887,59.118515 C 68.593887,59.743515 67.812887,59.977515 67.640887,60.680515 L 67.531887,61.071515 L 67.640887,60.837515 L 67.421887,61.087515 C 67.343887,61.165515 67.296887,61.275515 67.280887,61.384515 L 67.264887,61.634515 L 67.748887,61.181515 L 67.498887,61.181515 C 67.310887,61.181515 67.139887,61.290515 67.060887,61.478515 C 66.951887,61.728515 67.060887,62.025515 67.310887,62.134515 L 67.732887,62.322515 C 67.826887,62.353515 67.904887,62.369515 67.998887,62.400515 L 68.607887,62.791515 C 68.638887,62.807515 68.669887,62.838515 68.701887,62.853515 C 68.935887,62.994515 69.232887,62.931515 69.389887,62.697515 L 69.655887,62.228515 C 69.811887,61.728515 69.749887,61.212515 69.764887,60.712515 L 69.764887,60.212515 C 69.764887,59.993515 69.623887,59.806515 69.436887,59.743515 C 69.170887,59.649515 68.889887,59.790515 68.795887,60.040515 L 68.717887,60.274515 C 68.670887,60.368515 68.608887,60.477515 68.561887,60.571515 L 68.514887,61.009515 L 68.623887,60.728515 L 68.373887,61.025515 L 68.389887,61.025515 L 68.186887,61.275515 C 68.139887,61.322515 68.108887,61.369515 68.092887,61.431515 C 68.014887,61.697515 68.154887,61.978515 68.404887,62.056515 L 68.513887,62.056515 C 68.904887,62.259515 68.966887,62.650515 69.029887,63.025510 C 69.138887,63.291510 69.435887,63.416510 69.685887,63.306510 C 69.935887,63.196510 70.060887,62.900515 69.951887,62.650515 C 69.795887,62.244515 69.623887,61.853515 69.373887,61.494515 L 68.732887,61.119515 L 68.951887,61.900515 L 69.154887,61.650515 C 69.170887,61.650515 69.170887,61.650515 69.170887,61.650515 L 69.404887,61.338515 C 69.466887,61.260515 69.513887,61.150515 69.513887,61.057515 L 69.669887,60.526515 L 69.638887,60.667515 L 69.732887,60.386515 L 68.763887,60.214515 L 68.763887,60.714515 C 68.763887,60.886515 68.763887,61.058515 68.763887,61.230515 L 68.529887,62.168515 L 69.185887,61.996515 L 68.763887,61.824515 C 68.732887,61.793515 68.716887,61.777515 68.685887,61.746515 L 67.716887,61.230515 L 67.528887,62.183515 L 67.778887,62.183515 C 68.028887,62.167515 68.247887,61.980515 68.262887,61.714515 L 68.278887,61.464515 L 68.153887,61.761515 L 68.387887,61.511515 C 68.434887,61.449515 68.481887,61.370515 68.496887,61.277515 L 68.746887,60.777515 C 68.730887,60.824515 68.730887,60.855515 68.715887,60.902515 C 68.903887,60.418515 69.262887,60.074515 69.653887,59.746515 C 69.825887,59.527515 69.794887,59.215515 69.575887,59.043515 C 69.356887,58.871515 69.046887,58.899515 68.874887,59.118515 L 68.874887,59.118515 z "
   style="fill:#c7b134" /><path
   id="path222"
   d="M 64.072887,62.498515 C 63.291887,63.165510 62.437887,63.748510 61.661887,64.425510 C 61.427887,64.576510 61.364887,64.883510 61.515887,65.118510 C 61.661887,65.347510 61.973887,65.415510 62.203887,65.264510 C 63.047887,64.550510 63.958887,63.925510 64.791887,63.196510 C 64.984887,62.998515 64.979887,62.680515 64.781887,62.488515 C 64.582887,62.295515 64.264887,62.300515 64.072887,62.498515 L 64.072887,62.498515 z "
   style="fill:#c7b134" /><path
   id="path224"
   d="M 64.989887,65.847510 C 64.708887,65.134510 64.588887,64.378510 64.848887,63.639510 L 64.848887,63.524510 C 64.848887,63.279510 64.671887,63.071510 64.426887,63.029510 C 64.155887,62.987515 63.895887,63.175510 63.853887,63.446510 L 63.832887,63.712510 C 63.894887,64.410510 64.030887,65.118510 63.868887,65.821510 L 63.868887,65.774510 L 64.259887,65.503510 L 64.405887,65.550510 C 64.082887,65.441510 63.853887,65.196510 63.587887,65.008510 L 63.457887,64.930510 L 63.696887,65.284510 L 63.665887,65.420510 C 63.707887,65.264510 63.738887,65.108510 63.764887,64.951510 L 63.816887,64.857510 C 63.863887,64.706510 63.842887,64.545510 63.748887,64.414510 L 63.691887,64.331510 C 63.555887,64.138510 63.311887,64.065510 63.097887,64.154510 L 62.857887,64.269510 C 62.695887,64.451510 62.482887,64.581510 62.326887,64.769510 L 62.248887,64.873510 C 62.060887,64.967510 61.946887,65.159510 61.961887,65.368510 L 61.972887,65.483510 C 61.982887,65.582510 62.019887,65.681510 62.081887,65.759510 L 62.138887,65.821510 C 62.268887,66.024510 62.414887,66.207510 62.591887,66.368510 C 62.747887,66.597510 63.060887,66.655510 63.284887,66.493510 C 63.513887,66.337510 63.570887,66.024510 63.414887,65.800510 C 63.305887,65.675510 63.201887,65.550510 63.102887,65.420510 L 62.857887,65.123510 L 62.966887,65.399510 L 62.961887,65.284510 L 62.852887,65.644510 L 63.060887,65.451510 C 63.122887,65.389510 63.185887,65.331510 63.248887,65.269510 L 63.467887,65.081510 L 62.873887,64.904510 L 62.931887,64.987510 L 62.884887,64.498510 L 62.822887,64.649510 C 62.780887,64.811510 62.765887,64.977510 62.718887,65.139510 L 62.713887,65.436510 C 62.734887,65.587510 62.822887,65.717510 62.953887,65.795510 L 63.115887,65.915510 C 63.099887,65.905510 63.089887,65.894510 63.073887,65.884510 C 63.381887,66.082510 63.641887,66.347510 64.000887,66.452510 L 64.370887,66.499510 C 64.542887,66.478510 64.688887,66.379510 64.761887,66.228510 L 64.865887,65.916510 C 64.865887,65.926510 64.860887,65.942510 64.860887,65.953510 C 64.980887,65.281510 64.975887,64.583510 64.850887,63.916510 L 64.845887,63.604510 L 63.850887,63.526510 L 63.832887,63.690510 C 63.509887,64.513510 63.770887,65.383510 64.040887,66.180510 C 64.134887,66.440510 64.420887,66.576510 64.681887,66.487510 C 64.942887,66.394510 65.077887,66.107510 64.989887,65.847510 L 64.989887,65.847510 z "
   style="fill:#c7b134" /><path
   id="path226"
   d="M 64.598887,62.597515 C 64.692887,62.087515 64.723887,61.571515 64.660887,61.055515 C 64.639887,60.899515 64.524887,60.763515 64.598887,60.555515 L 64.598887,60.472515 L 64.489887,60.784515 L 64.562887,60.696515 C 64.593887,60.654515 64.619887,60.608515 64.640887,60.555515 C 64.734887,60.300515 64.603887,60.008515 64.348887,59.909515 L 64.082887,59.847515 C 64.082887,59.852515 64.087887,59.852515 64.087887,59.858515 C 63.962887,59.847515 63.832887,59.842515 63.707887,59.847515 L 63.530887,59.847515 C 63.410887,59.847515 63.290887,59.894515 63.197887,59.977515 L 63.130887,60.039515 C 62.713887,60.513515 62.479887,61.279515 62.713887,61.898515 C 62.531887,62.351515 62.468887,62.841515 62.229887,63.273510 L 62.162887,63.320510 C 62.063887,63.445510 62.026887,63.601510 62.063887,63.758510 C 62.131887,64.024510 62.401887,64.190510 62.672887,64.123510 L 62.969887,63.993510 C 63.995887,63.410510 64.006887,62.196515 63.932887,61.155515 C 63.932887,60.879515 63.708887,60.655515 63.432887,60.655515 C 63.156887,60.655515 62.932887,60.879515 62.932887,61.155515 C 62.885887,61.827515 63.161887,62.712515 62.448887,63.124510 L 62.431887,63.154510 L 62.962887,63.920510 L 63.145887,63.665510 C 63.452887,62.915515 63.744887,62.123515 63.629887,61.280515 C 63.613887,61.139515 63.707887,60.988515 63.759887,60.842515 L 63.868887,60.717515 L 63.530887,60.847515 L 63.707887,60.847515 C 63.769887,60.847515 63.827887,60.847515 63.889887,60.847515 L 63.993887,60.847515 L 63.780887,60.066515 L 63.707887,60.155515 C 63.639887,60.243515 63.598887,60.358515 63.598887,60.472515 L 63.598887,60.660515 C 63.733887,61.301515 63.660887,61.952515 63.598887,62.598515 C 63.598887,62.874515 63.822887,63.098510 64.098887,63.098510 C 64.374887,63.097510 64.598887,62.873515 64.598887,62.597515 L 64.598887,62.597515 z "
   style="fill:#c7b134" /><path
   id="path228"
   d="M 61.114887,65.133510 C 60.838887,66.060510 60.755887,67.112510 61.260887,67.966510 C 61.953887,69.143510 62.750887,70.148510 63.708887,71.112510 C 63.979887,71.383510 64.171887,71.706510 64.406887,72.003510 L 64.521887,72.118510 L 64.510887,72.061510 L 64.521887,72.149510 C 64.557887,72.420510 64.807887,72.607510 65.078887,72.576510 C 65.354887,72.539510 65.547887,72.289510 65.510887,72.014510 L 65.479887,71.769510 C 65.141887,69.909510 64.458887,68.081510 64.682887,66.170510 L 64.682887,65.982510 C 64.682887,65.758510 64.531887,65.560510 64.318887,65.498510 L 64.016887,65.430510 C 63.428887,65.409510 62.875887,65.222510 62.318887,65.045510 L 61.959887,65.061510 C 61.797887,65.097510 61.662887,65.212510 61.605887,65.363510 L 61.538887,65.582510 C 61.408887,67.181510 62.350887,68.556510 63.246887,69.785510 L 63.283887,69.978510 C 63.314887,70.082510 63.382887,70.171510 63.471887,70.233510 L 63.559887,70.290510 C 63.637887,70.342510 63.726887,70.373510 63.820887,70.378510 C 64.096887,70.394510 64.330887,70.180510 64.346887,69.904510 L 64.351887,69.742510 C 64.179887,68.508510 64.293887,67.237510 63.856887,66.039510 C 63.773887,65.799510 63.512887,65.664510 63.262887,65.612510 L 63.064887,65.596510 C 62.955887,65.596510 62.851887,65.627510 62.762887,65.695510 L 62.674887,65.757510 C 62.580887,65.825510 62.512887,65.924510 62.481887,66.038510 L 62.450887,66.376510 C 62.565887,66.772510 62.768887,67.131510 62.851887,67.538510 C 62.872887,67.814510 63.106887,68.022510 63.382887,68.007510 C 63.658887,67.991510 63.866887,67.752510 63.851887,67.476510 C 63.825887,67.091510 63.658887,66.752510 63.507887,66.408510 L 63.449887,66.283510 L 63.261887,66.564510 L 63.350887,66.502510 L 63.042887,66.596510 L 62.985887,66.492510 C 62.975887,66.471510 62.959887,66.445510 62.948887,66.424510 C 63.250887,67.440510 63.188887,68.497510 63.323887,69.533510 L 63.344887,69.856510 L 64.125887,69.465510 L 64.042887,69.407510 L 64.225887,69.642510 L 64.110887,69.371510 C 64.120887,69.392510 64.131887,69.407510 64.141887,69.428510 C 63.521887,68.329510 62.599887,67.324510 62.516887,66.011510 L 62.532887,65.730510 L 62.178887,66.032510 L 62.350887,66.115510 C 62.798887,66.224510 63.241887,66.360510 63.699887,66.427510 L 64.048887,66.458510 L 63.683887,65.979510 L 63.683887,66.161510 C 63.459887,67.999510 64.037887,69.786510 64.433887,71.567510 L 64.522887,72.140510 L 65.511887,72.004510 L 65.501887,71.921510 C 65.485887,71.807510 65.428887,71.703510 65.350887,71.629510 L 65.241887,71.452510 C 64.257887,70.123510 63.017887,69.045510 62.173887,67.566510 C 61.803887,66.910510 61.850887,66.092510 62.085887,65.389510 C 62.158887,65.123510 61.996887,64.847510 61.731887,64.774510 C 61.466887,64.701510 61.186887,64.868510 61.114887,65.133510 L 61.114887,65.133510 z "
   style="fill:#c7b134" /><path
   id="path230"
   d="M 66.530887,61.717515 C 66.514887,61.816515 66.499887,61.915515 66.483887,62.014515 L 66.473887,61.946515 C 66.436887,62.061515 66.442887,62.186515 66.494887,62.300515 L 66.499887,62.279515 C 66.525887,62.529515 66.744887,62.685515 66.786887,62.914515 C 66.843887,63.247510 66.932887,63.534510 66.994887,63.867510 C 67.093887,64.409510 67.056887,64.924510 67.135887,65.456510 C 67.250887,66.263510 67.443887,67.029510 67.447887,67.836510 L 67.437887,67.836510 C 67.427887,67.951510 67.453887,68.065510 67.515887,68.164510 L 67.577887,68.258510 L 67.504887,68.065510 L 67.514887,68.148510 C 67.551887,68.361510 67.717887,68.533510 67.931887,68.565510 L 68.155887,68.596510 C 68.577887,68.607510 68.993887,68.508510 69.415887,68.513510 L 69.717887,68.388510 C 69.800887,68.341510 69.868887,68.263510 69.910887,68.180510 L 69.926887,68.138510 C 70.442887,67.195510 69.957887,66.133510 70.118887,65.112510 C 70.285887,64.045510 70.337887,63.029510 70.316887,61.987515 C 70.316887,61.711515 70.248887,61.430515 70.201887,61.144515 C 70.102887,60.555515 70.310887,60.019515 70.347887,59.451515 C 70.347887,59.175515 70.123887,58.951515 69.847887,58.951515 C 69.571887,58.946515 69.347887,59.170515 69.347887,59.446515 C 69.274887,59.800515 69.211887,60.170515 69.217887,60.514515 C 69.254887,62.050515 69.358887,63.545510 69.118887,65.113510 C 69.004887,65.874510 69.207887,66.613510 69.170887,67.368510 L 69.008887,67.743510 L 69.201887,67.530510 L 69.191887,67.540510 C 68.925887,67.498510 68.670887,67.550510 68.410887,67.597510 L 68.087887,67.582510 L 68.504887,67.993510 L 68.488887,67.910510 C 68.477887,67.837510 68.451887,67.775510 68.415887,67.712510 L 68.353887,67.618510 L 68.431887,67.940510 L 68.426887,67.919510 C 68.499887,67.018510 68.207887,66.153510 68.129887,65.263510 C 68.030887,64.159510 67.962887,62.987515 67.426887,62.013515 L 67.405887,61.883515 L 67.426887,62.237515 L 67.014887,61.846515 C 67.176887,61.888515 67.337887,61.935515 67.498887,61.976515 C 67.566887,61.710515 67.410887,61.434515 67.144887,61.361515 C 66.879887,61.295515 66.603887,61.451515 66.530887,61.717515 L 66.530887,61.717515 z "
   style="fill:#c7b134" /><path
   id="path232"
   d="M 67.290887,62.571515 C 67.920887,63.977510 68.030887,65.571510 68.264887,67.087510 L 68.269887,67.290510 C 68.290887,67.462510 68.399887,67.608510 68.555887,67.675510 C 68.805887,67.795510 69.102887,67.686510 69.217887,67.430510 L 69.373887,67.034510 C 69.581887,65.492510 69.738887,63.815510 69.113887,62.352515 C 68.967887,62.118515 68.655887,62.050515 68.420887,62.196515 C 68.191887,62.342515 68.118887,62.649515 68.264887,62.884515 C 68.618887,64.087510 68.629887,65.358510 68.415887,66.577510 L 68.311887,67.015510 L 69.264887,67.213510 L 69.254887,66.984510 C 68.983887,65.296510 68.905887,63.479510 68.071887,61.958515 C 67.904887,61.739515 67.587887,61.703515 67.373887,61.875515 C 67.155887,62.039515 67.119887,62.357515 67.290887,62.571515 L 67.290887,62.571515 z "
   style="fill:#c7b134" /><path
   id="path234"
   d="M 67.207887,61.727515 C 67.598887,61.633515 67.842887,61.342515 68.134887,61.092515 C 68.358887,60.925515 68.405887,60.613515 68.238887,60.394515 C 68.071887,60.170515 67.759887,60.123515 67.535887,60.290515 C 67.248887,60.410515 67.196887,60.774515 66.821887,60.800515 C 66.566887,60.904515 66.446887,61.201515 66.550887,61.457515 C 66.655887,61.711515 66.952887,61.831515 67.207887,61.727515 L 67.207887,61.727515 z "
   style="fill:none" /><path
   id="path236"
   d="M 67.040887,62.060515 C 67.957887,61.643515 68.467887,60.727515 69.129887,60.008515 C 69.296887,59.789515 69.259887,59.471515 69.040887,59.305515 C 68.821887,59.133515 68.509887,59.175515 68.342887,59.388515 C 67.780887,59.961515 67.384887,60.768515 66.654887,61.133515 C 66.399887,61.242515 66.279887,61.534515 66.383887,61.789515 C 66.493887,62.045515 66.785887,62.164515 67.040887,62.060515 L 67.040887,62.060515 z "
   style="fill:#c7b134" /><path
   id="path238"
   d="M 69.280887,55.217515 C 68.983887,55.608515 68.780887,56.071515 68.681887,56.550515 C 68.436887,56.602515 68.431887,56.862515 68.317887,57.034515 C 68.192887,57.279515 68.296887,57.581515 68.541887,57.706515 C 68.786887,57.826515 69.088887,57.727515 69.213887,57.482515 C 69.593887,56.971515 69.666887,56.299515 70.083887,55.810515 C 70.250887,55.591515 70.203887,55.273515 69.979887,55.112515 C 69.759887,54.946515 69.442887,54.993515 69.280887,55.217515 L 69.280887,55.217515 z "
   style="fill:#fefcf4" /><path
   id="path240"
   d="M 66.775887,59.222515 C 66.525887,59.582515 66.129887,59.795515 65.858887,60.134515 C 65.696887,60.358515 65.749887,60.671515 65.973887,60.832515 C 66.197887,60.993515 66.509887,60.941515 66.671887,60.717515 C 66.963887,60.399515 67.359887,60.186515 67.588887,59.805515 C 67.750887,59.576515 67.697887,59.263515 67.474887,59.107515 C 67.243887,58.946515 66.931887,58.998515 66.775887,59.222515 L 66.775887,59.222515 z "
   style="fill:#fefcf4" /><path
   id="path242"
   d="M 68.022887,59.024515 C 67.811887,59.129515 67.694887,59.352515 67.487887,59.465515 C 67.378887,59.551515 67.362887,59.711515 67.452887,59.817515 C 67.538887,59.922515 67.698887,59.938515 67.804887,59.852515 C 67.984887,59.754515 68.085887,59.571515 68.257887,59.461515 C 68.378887,59.399515 68.425887,59.246515 68.359887,59.125515 C 68.296887,59.004515 68.143887,58.957515 68.022887,59.024515 L 68.022887,59.024515 z "
   style="fill:#fefcf4" /><path
   id="path244"
   d="M 68.159887,57.270515 C 68.097887,57.383515 68.038887,57.500515 67.983887,57.618515 C 67.921887,57.739515 67.971887,57.891515 68.096887,57.950515 C 68.221887,58.012515 68.369887,57.962515 68.432887,57.837515 C 68.495887,57.712515 68.557887,57.591515 68.620887,57.466515 C 68.675887,57.337515 68.612887,57.193515 68.487887,57.138515 C 68.358887,57.082515 68.214887,57.145515 68.159887,57.270515 L 68.159887,57.270515 z "
   style="fill:#fefcf4" /><path
   id="path246"
   d="M 99.348888,100.18551 C 99.079888,100.63151 98.893888,101.13751 98.814888,101.68451 C 98.500888,103.87451 100.02189,105.90551 102.21189,106.22051 C 104.40189,106.53451 106.43289,105.01351 106.74789,102.82351 C 107.06189,100.63351 105.54189,98.602510 103.35189,98.287510 C 101.70889,98.052510 100.15589,98.848510 99.348888,100.18551"
   style="fill:#ffffff;stroke:#000000;stroke-width:0.50000000" /><text
   id="text248"
   x="109.0154"
   y="98.264015"><tspan
     id="tspan250"
     style="font-size:7.6500001px;font-family:Liberation Sans"
     y="98.264015"
     x="109.0154">center</tspan><tspan
     id="tspan252"
     style="font-size:7.6500001px;font-family:Liberation Sans"
     y="109.06402"
     x="109.0154">of mass</tspan></text>

<g
   id="g254"
   transform="translate(-4.068153,-1.109490)">
				<line
   id="line256"
   y2="62.181000"
   x2="111.47700"
   y1="57.127998"
   x1="107.92800"
   style="fill:#ffffff;stroke:#000000;stroke-width:2.0000000" />
				<line
   id="line258"
   y2="57.880001"
   x2="112.22900"
   y1="61.429001"
   x1="107.17600"
   style="fill:#ffffff;stroke:#000000;stroke-width:2.0000000" />
			</g><g
   id="g260"
   transform="translate(-4.068153,-1.109490)">
				<line
   id="line262"
   y2="105.88300"
   x2="108.71200"
   y1="100.83000"
   x1="105.16300"
   style="fill:#ffffff;stroke:#000000;stroke-width:2.0000000" />
				<line
   id="line264"
   y2="101.58200"
   x2="109.46400"
   y1="105.13100"
   x1="104.41100"
   style="fill:#ffffff;stroke:#000000;stroke-width:2.0000000" />
			</g>
	</svg>