<?xml version="1.0" encoding="UTF-8" standalone="no"?>
<!-- Created with Inkscape (http://www.inkscape.org/) -->

<svg
   xmlns:dc="http://purl.org/dc/elements/1.1/"
   xmlns:cc="http://creativecommons.org/ns#"
   xmlns:rdf="http://www.w3.org/1999/02/22-rdf-syntax-ns#"
   xmlns:svg="http://www.w3.org/2000/svg"
   xmlns="http://www.w3.org/2000/svg"
   xmlns:sodipodi="http://sodipodi.sourceforge.net/DTD/sodipodi-0.dtd"
   xmlns:inkscape="http://www.inkscape.org/namespaces/inkscape"
   width="113.00000mm"
   height="61.000000mm"
   id="svg2729"
   sodipodi:version="0.32"
   sodipodi:docname="hooke-definitions-small.svg"
   version="1.1">
  <defs
     id="defs3">
    <marker
       style="overflow:visible;"
       id="Arrow2L"
       refX="0.0"
       refY="0.0"
       orient="auto"
       inkscape:stockid="Arrow2L">
      <path
         transform="scale(1.1) translate(-5,0)"
         d="M 8.7185878,4.0337352 L -2.2072895,0.016013256 L 8.7185884,-4.0017078 C 6.9730900,-1.6296469 6.9831476,1.6157441 8.7185878,4.0337352 z "
         style="font-size:12.0;fill-rule:evenodd;stroke-width:0.62500000;stroke-linejoin:round;"
         id="path2555"
         sodipodi:nodetypes="cccc" />
    </marker>
  </defs>
  <sodipodi:namedview
     id="base"
     pagecolor="#ffffff"
     bordercolor="#666666"
     borderopacity="1.0"
     inkscape:pageopacity="0.0"
     inkscape:pageshadow="2"
     inkscape:zoom="0.86675373"
     inkscape:cx="78.508762"
     inkscape:cy="173.52792"
     inkscape:current-layer="layer1"
     inkscape:window-width="1280"
     inkscape:window-height="998"
     inkscape:window-x="0"
     inkscape:window-y="0"
     showgrid="false"
     inkscape:window-maximized="1" />
  <metadata
     id="metadata4">
    <rdf:RDF>
      <cc:Work
         rdf:about="">
        <dc:format>image/svg+xml</dc:format>
        <dc:type
           rdf:resource="http://purl.org/dc/dcmitype/StillImage" />
      </cc:Work>
    </rdf:RDF>
  </metadata>
  <g
     inkscape:label="Layer 1"
     inkscape:groupmode="layer"
     id="layer1">
    <g
       id="g4319">
      <path
         style="fill:none;stroke:#000000;stroke-width:0.75;stroke-miterlimit:4;stroke-dasharray:none"
         d="m 57.430733,51.543468 c 0,-15.876322 14.605467,-16.041699 14.605467,-0.01272 0,16.028978 -11.865483,15.876322 -11.865483,0"
         id="path12"
         inkscape:connector-curvature="0" />
      <path
         style="fill:none;stroke:#000000;stroke-width:0.75;stroke-miterlimit:4;stroke-dasharray:none"
         d="m 60.142843,51.543468 c 0,-15.876322 14.605467,-16.041699 14.605467,-0.01272 0,16.028978 -11.865483,15.876322 -11.865483,0"
         id="path14"
         inkscape:connector-curvature="0" />
      <path
         style="fill:none;stroke:#000000;stroke-width:0.75;stroke-miterlimit:4;stroke-dasharray:none"
         d="m 62.854953,51.543468 c 0,-15.876322 14.605467,-16.041699 14.605467,-0.01272 0,16.028978 -11.865482,15.876322 -11.865482,0"
         id="path16"
         inkscape:connector-curvature="0" />
      <path
         style="fill:none;stroke:#000000;stroke-width:0.75;stroke-miterlimit:4;stroke-dasharray:none"
         d="m 65.567063,51.543468 c 0,-15.876322 14.605467,-16.041699 14.605467,-0.01272 0,16.028978 -11.865482,15.876322 -11.865482,0"
         id="path18"
         inkscape:connector-curvature="0" />
      <path
         style="fill:none;stroke:#000000;stroke-width:0.75;stroke-miterlimit:4;stroke-dasharray:none"
         d="m 68.279173,51.543468 c 0,-15.876322 14.605467,-16.041699 14.605467,-0.01272 0,16.028978 -11.865482,15.876322 -11.865482,0"
         id="path20"
         inkscape:connector-curvature="0" />
      <path
         style="fill:none;stroke:#000000;stroke-width:0.75;stroke-miterlimit:4;stroke-dasharray:none"
         d="m 70.991283,51.543468 c 0,-15.876322 14.605468,-16.041699 14.605468,-0.01272 0,16.028978 -11.865483,15.876322 -11.865483,0"
         id="path22"
         inkscape:connector-curvature="0" />
      <path
         style="fill:none;stroke:#000000;stroke-width:0.75;stroke-miterlimit:4;stroke-dasharray:none"
         d="m 73.703394,51.543468 c 0,-15.876322 14.605466,-16.041699 14.605466,-0.01272 0,16.028978 -11.865482,15.876322 -11.865482,0"
         id="path24"
         inkscape:connector-curvature="0" />
      <path
         style="fill:none;stroke:#000000;stroke-width:0.75;stroke-miterlimit:4;stroke-dasharray:none"
         d="m 76.415504,51.543468 c 0,-15.876322 14.605466,-16.041699 14.605466,-0.01272 0,16.028978 -11.865482,15.876322 -11.865482,0"
         id="path26"
         inkscape:connector-curvature="0" />
      <path
         style="fill:none;stroke:#000000;stroke-width:0.75;stroke-miterlimit:4;stroke-dasharray:none"
         d="m 79.127614,51.543468 c 0,-15.876322 14.605468,-16.041699 14.605468,-0.01272 0,16.028978 -11.865484,15.876322 -11.865484,0"
         id="path28"
         inkscape:connector-curvature="0" />
      <path
         style="fill:none;stroke:#000000;stroke-width:0.75;stroke-miterlimit:4;stroke-dasharray:none"
         d="m 81.839724,51.543468 c 0,-15.876322 14.60547,-16.041699 14.60547,-0.01272 0,16.028978 -11.865485,15.876322 -11.865485,0"
         id="path30"
         inkscape:connector-curvature="0" />
      <path
         style="fill:none;stroke:#000000;stroke-width:0.75;stroke-miterlimit:4;stroke-dasharray:none"
         d="m 84.551834,51.543468 c 0,-15.876322 14.605463,-16.041699 14.605463,-0.01272 0,16.028978 -11.865478,15.876322 -11.865478,0"
         id="path32"
         inkscape:connector-curvature="0" />
      <path
         style="fill:none;stroke:#000000;stroke-width:0.75;stroke-miterlimit:4;stroke-dasharray:none"
         d="m 87.263944,51.543468 c 0,-15.876322 14.605466,-16.041699 14.605466,-0.01272 0,16.028978 -11.865478,15.876322 -11.865478,0"
         id="path34"
         inkscape:connector-curvature="0" />
      <path
         style="fill:none;stroke:#000000;stroke-width:0.75;stroke-miterlimit:4;stroke-dasharray:none"
         d="m 89.975298,51.543468 c 0,-15.876322 14.605472,-16.041699 14.605472,-0.01272 0,16.028978 -11.865484,15.876322 -11.865484,0"
         id="path36"
         inkscape:connector-curvature="0" />
      <path
         style="fill:none;stroke:#000000;stroke-width:0.75;stroke-miterlimit:4;stroke-dasharray:none"
         d="m 92.688168,51.543468 c 0,-15.876322 14.605462,-16.041699 14.605462,-0.01272 0,16.028978 -11.865482,15.876322 -11.865482,0"
         id="path38"
         inkscape:connector-curvature="0" />
      <path
         style="fill:none;stroke:#000000;stroke-width:0.75;stroke-miterlimit:4;stroke-dasharray:none"
         d="m 95.399522,51.543468 c 0,-15.876322 14.606218,-16.041699 14.606218,-0.01272 0,16.028978 -11.865481,15.876322 -11.865481,0"
         id="path40"
         inkscape:connector-curvature="0" />
      <path
         style="fill:none;stroke:#000000;stroke-width:0.75;stroke-miterlimit:4;stroke-dasharray:none"
         d="m 98.111634,51.543468 c 0,-15.876322 14.605466,-16.041699 14.605466,-0.01272 0,16.028978 -11.86549,15.876322 -11.86549,0"
         id="path42"
         inkscape:connector-curvature="0" />
      <path
         style="fill:none;stroke:#000000;stroke-width:0.75;stroke-miterlimit:4;stroke-dasharray:none"
         d="m 100.82375,51.543468 c 0,-15.876322 14.60546,-16.041699 14.60546,-0.01272 0,16.028978 -11.86548,15.876322 -11.86548,0"
         id="path44"
         inkscape:connector-curvature="0" />
      <path
         style="fill:none;stroke:#000000;stroke-width:0.75;stroke-miterlimit:4;stroke-dasharray:none"
         d="m 103.53585,51.543468 c 0,-15.876322 14.60547,-16.041699 14.60547,-0.01272 0,16.028978 -11.86548,15.876322 -11.86548,0"
         id="path46"
         inkscape:connector-curvature="0" />
      <path
         style="fill:none;stroke:#000000;stroke-width:0.75;stroke-miterlimit:4;stroke-dasharray:none"
         d="m 106.24796,51.543468 c 0,-15.876322 14.60547,-16.041699 14.60547,-0.01272 0,16.028978 -11.86548,15.876322 -11.86548,0"
         id="path48"
         inkscape:connector-curvature="0" />
      <path
         style="fill:none;stroke:#000000;stroke-width:0.75;stroke-miterlimit:4;stroke-dasharray:none"
         d="m 108.96007,51.543468 c 0,-15.876322 14.60547,-16.041699 14.60547,-0.01272 0,16.028978 -11.86548,15.876322 -11.86548,0"
         id="path50"
         inkscape:connector-curvature="0" />
      <path
         style="fill:none;stroke:#000000;stroke-width:0.75;stroke-miterlimit:4;stroke-dasharray:none"
         d="m 111.67218,51.543468 c 0,-15.876322 14.60547,-16.041699 14.60547,-0.01272 0,16.028978 -11.86549,15.876322 -11.86549,0"
         id="path52"
         inkscape:connector-curvature="0" />
      <path
         style="fill:none;stroke:#000000;stroke-width:0.75;stroke-miterlimit:4;stroke-dasharray:none"
         d="m 114.3843,51.543468 c 0,-15.876322 14.60546,-16.041699 14.60546,-0.01272 0,16.028978 -11.86548,15.876322 -11.86548,0"
         id="path54"
         inkscape:connector-curvature="0" />
      <path
         style="fill:none;stroke:#000000;stroke-width:0.75;stroke-miterlimit:4;stroke-dasharray:none"
         d="m 117.0964,51.543468 c 0,-15.876322 14.60547,-16.041699 14.60547,-0.01272 0,16.028978 -11.86548,15.876322 -11.86548,0"
         id="path56"
         inkscape:connector-curvature="0" />
      <path
         style="fill:none;stroke:#000000;stroke-width:0.75;stroke-miterlimit:4;stroke-dasharray:none"
         d="m 119.80851,51.543468 c 0,-15.876322 14.60547,-16.041699 14.60547,-0.01272 0,16.028978 -11.86548,15.876322 -11.86548,0"
         id="path58"
         inkscape:connector-curvature="0" />
      <path
         style="fill:none;stroke:#000000;stroke-width:0.75;stroke-miterlimit:4;stroke-dasharray:none"
         d="m 122.52062,51.543468 c 0,-15.876322 14.60547,-16.041699 14.60547,-0.01272 0,16.028978 -11.86548,15.876322 -11.86548,0"
         id="path60"
         inkscape:connector-curvature="0" />
      <path
         style="fill:none;stroke:#000000;stroke-width:0.75;stroke-miterlimit:4;stroke-dasharray:none"
         d="m 125.23274,51.543468 c 0,-15.876322 14.66498,-16.041699 14.60546,-0.01272 -0.003,1.096586 3.38637,2.726835 4.70476,2.686763 1.31838,-0.04007 11.34717,-1.073688 8.14537,-2.06723 -3.2018,-0.993542 -3.01346,-0.437617 -3.01346,-0.437617"
         id="path62"
         inkscape:connector-curvature="0" />
      <path
         style="fill:none;stroke:#000000;stroke-width:0.75;stroke-miterlimit:4;stroke-dasharray:none"
         d="m 57.435253,51.4347 c -0.141632,1.510668 -11.158827,1.192632 -11.158827,1.192632 0,0 -5.085206,-2.027792 0.141633,-2.027792"
         id="path64"
         inkscape:connector-curvature="0" />
    </g>
    <g
       id="g4375">
      <path
         style="fill:none;stroke:#000000;stroke-width:0.75;stroke-miterlimit:4;stroke-dasharray:none"
         d="m 59.498556,89.93796 c 0,-15.875685 18.987784,-16.0417 18.987784,-0.01272 0,16.02898 -15.425127,15.87632 -15.425127,0"
         id="path69"
         inkscape:connector-curvature="0" />
      <path
         style="fill:none;stroke:#000000;stroke-width:0.75;stroke-miterlimit:4;stroke-dasharray:none"
         d="m 63.024299,89.93796 c 0,-15.875685 18.987031,-16.0417 18.987031,-0.01272 0,16.02898 -15.425127,15.87632 -15.425127,0"
         id="path71"
         inkscape:connector-curvature="0" />
      <path
         style="fill:none;stroke:#000000;stroke-width:0.75;stroke-miterlimit:4;stroke-dasharray:none"
         d="m 66.550042,89.93796 c 0,-15.875685 18.987784,-16.0417 18.987784,-0.01272 0,16.02898 -15.425126,15.87632 -15.425126,0"
         id="path73"
         inkscape:connector-curvature="0" />
      <path
         style="fill:none;stroke:#000000;stroke-width:0.75;stroke-miterlimit:4;stroke-dasharray:none"
         d="m 70.075785,89.93796 c 0,-15.875685 18.987031,-16.0417 18.987031,-0.01272 0,16.02898 -15.425126,15.87632 -15.425126,0"
         id="path75"
         inkscape:connector-curvature="0" />
      <path
         style="fill:none;stroke:#000000;stroke-width:0.75;stroke-miterlimit:4;stroke-dasharray:none"
         d="m 73.601528,89.93796 c 0,-15.875685 18.987784,-16.0417 18.987784,-0.01272 0,16.02898 -15.425126,15.87632 -15.425126,0"
         id="path77"
         inkscape:connector-curvature="0" />
      <path
         style="fill:none;stroke:#000000;stroke-width:0.75;stroke-miterlimit:4;stroke-dasharray:none"
         d="m 77.127271,89.93796 c 0,-15.875685 18.987031,-16.0417 18.987031,-0.01272 0,16.02898 -15.425126,15.87632 -15.425126,0"
         id="path79"
         inkscape:connector-curvature="0" />
      <path
         style="fill:none;stroke:#000000;stroke-width:0.75;stroke-miterlimit:4;stroke-dasharray:none"
         d="m 80.653014,89.93796 c 0,-15.875685 18.987785,-16.0417 18.987785,-0.01272 0,16.02898 -15.425127,15.87632 -15.425127,0"
         id="path81"
         inkscape:connector-curvature="0" />
      <path
         style="fill:none;stroke:#000000;stroke-width:0.75;stroke-miterlimit:4;stroke-dasharray:none"
         d="m 84.178758,89.93796 c 0,-15.875685 18.987032,-16.0417 18.987032,-0.01272 0,16.02898 -15.425128,15.87632 -15.425128,0"
         id="path83"
         inkscape:connector-curvature="0" />
      <path
         style="fill:none;stroke:#000000;stroke-width:0.75;stroke-miterlimit:4;stroke-dasharray:none"
         d="m 87.704501,89.93796 c 0,-15.875685 18.987779,-16.0417 18.987779,-0.01272 0,16.02898 -15.425121,15.87632 -15.425121,0"
         id="path85"
         inkscape:connector-curvature="0" />
      <path
         style="fill:none;stroke:#000000;stroke-width:0.75;stroke-miterlimit:4;stroke-dasharray:none"
         d="m 91.230244,89.93796 c 0,-15.875685 18.987026,-16.0417 18.987026,-0.01272 0,16.02898 -15.425122,15.87632 -15.425122,0"
         id="path87"
         inkscape:connector-curvature="0" />
      <path
         style="fill:none;stroke:#000000;stroke-width:0.75;stroke-miterlimit:4;stroke-dasharray:none"
         d="m 94.755234,89.93796 c 0,-15.875685 18.987786,-16.0417 18.987786,-0.01272 0,16.02898 -15.425128,15.87632 -15.425128,0"
         id="path89"
         inkscape:connector-curvature="0" />
      <path
         style="fill:none;stroke:#000000;stroke-width:0.75;stroke-miterlimit:4;stroke-dasharray:none"
         d="m 98.28173,89.93796 c 0,-15.875685 18.98703,-16.0417 18.98703,-0.01272 0,16.02898 -15.42513,15.87632 -15.42513,0"
         id="path91"
         inkscape:connector-curvature="0" />
      <path
         style="fill:none;stroke:#000000;stroke-width:0.75;stroke-miterlimit:4;stroke-dasharray:none"
         d="m 101.80672,89.93796 c 0,-15.875685 18.98778,-16.0417 18.98778,-0.01272 0,16.02898 -15.42512,15.87632 -15.42512,0"
         id="path93"
         inkscape:connector-curvature="0" />
      <path
         style="fill:none;stroke:#000000;stroke-width:0.75;stroke-miterlimit:4;stroke-dasharray:none"
         d="m 105.33246,89.93796 c 0,-15.875685 18.98703,-16.0417 18.98703,-0.01272 0,16.02898 -15.42512,15.87632 -15.42512,0"
         id="path95"
         inkscape:connector-curvature="0" />
      <path
         style="fill:none;stroke:#000000;stroke-width:0.75;stroke-miterlimit:4;stroke-dasharray:none"
         d="m 108.85821,89.93796 c 0,-15.875685 18.98778,-16.0417 18.98778,-0.01272 0,16.02898 -15.42513,15.87632 -15.42513,0"
         id="path97"
         inkscape:connector-curvature="0" />
      <path
         style="fill:none;stroke:#000000;stroke-width:0.75;stroke-miterlimit:4;stroke-dasharray:none"
         d="m 112.38395,89.93796 c 0,-15.875685 18.98703,-16.0417 18.98703,-0.01272 0,16.02898 -15.42513,15.87632 -15.42513,0"
         id="path99"
         inkscape:connector-curvature="0" />
      <path
         style="fill:none;stroke:#000000;stroke-width:0.75;stroke-miterlimit:4;stroke-dasharray:none"
         d="m 115.90969,89.93796 c 0,-15.875685 18.98779,-16.0417 18.98779,-0.01272 0,16.02898 -15.42513,15.87632 -15.42513,0"
         id="path101"
         inkscape:connector-curvature="0" />
      <path
         style="fill:none;stroke:#000000;stroke-width:0.75;stroke-miterlimit:4;stroke-dasharray:none"
         d="m 119.43544,89.93796 c 0,-15.875685 18.98778,-16.0417 18.98778,-0.01272 0,16.02898 -15.42513,15.87632 -15.42513,0"
         id="path103"
         inkscape:connector-curvature="0" />
      <path
         style="fill:none;stroke:#000000;stroke-width:0.75;stroke-miterlimit:4;stroke-dasharray:none"
         d="m 122.96118,89.93796 c 0,-15.875685 18.98703,-16.0417 18.98703,-0.01272 0,16.02898 -15.42513,15.87632 -15.42513,0"
         id="path105"
         inkscape:connector-curvature="0" />
      <path
         style="fill:none;stroke:#000000;stroke-width:0.75;stroke-miterlimit:4;stroke-dasharray:none"
         d="m 126.48692,89.93796 c 0,-15.875685 18.98703,-16.0417 18.98703,-0.01272 0,16.02898 -15.42512,15.87632 -15.42512,0"
         id="path107"
         inkscape:connector-curvature="0" />
      <path
         style="fill:none;stroke:#000000;stroke-width:0.75;stroke-miterlimit:4;stroke-dasharray:none"
         d="m 130.01267,89.93796 c 0,-15.875685 18.98778,-16.0417 18.98778,-0.01272 0,16.02898 -15.42513,15.87632 -15.42513,0"
         id="path109"
         inkscape:connector-curvature="0" />
      <path
         style="fill:none;stroke:#000000;stroke-width:0.75;stroke-miterlimit:4;stroke-dasharray:none"
         d="m 133.53841,89.93796 c 0,-15.875685 18.98778,-16.0417 18.98778,-0.01272 0,16.02898 -15.42512,15.87632 -15.42512,0"
         id="path111"
         inkscape:connector-curvature="0" />
      <path
         style="fill:none;stroke:#000000;stroke-width:0.75;stroke-miterlimit:4;stroke-dasharray:none"
         d="m 137.06415,89.93796 c 0,-15.875685 18.98779,-16.0417 18.98779,-0.01272 0,16.02898 -15.42513,15.87632 -15.42513,0"
         id="path113"
         inkscape:connector-curvature="0" />
      <path
         style="fill:none;stroke:#000000;stroke-width:0.75;stroke-miterlimit:4;stroke-dasharray:none"
         d="m 140.58989,89.93796 c 0,-15.875685 18.98779,-16.0417 18.98779,-0.01272 0,16.02898 -15.42513,15.87632 -15.42513,0"
         id="path115"
         inkscape:connector-curvature="0" />
      <path
         style="fill:none;stroke:#000000;stroke-width:0.75;stroke-miterlimit:4;stroke-dasharray:none"
         d="m 144.11488,89.93796 c 0,-15.875685 18.98779,-16.0417 18.98779,-0.01272 0,16.02898 -15.42513,15.87632 -15.42513,0"
         id="path117"
         inkscape:connector-curvature="0" />
      <path
         style="fill:none;stroke:#000000;stroke-width:0.75;stroke-miterlimit:4;stroke-dasharray:none"
         d="m 147.64138,89.93796 c 0,-15.875685 19.06463,-16.041064 18.98779,-0.01272 -0.005,1.096585 4.4019,2.726834 6.1158,2.686762 1.71391,-0.03944 14.75238,-1.073687 10.59004,-2.06723 -4.16234,-0.993542 -3.91749,-0.437616 -3.91749,-0.437616"
         id="path119"
         inkscape:connector-curvature="0" />
      <path
         style="fill:none;stroke:#000000;stroke-width:0.75;stroke-miterlimit:4;stroke-dasharray:none"
         d="m 59.503829,89.829192 c -0.183821,1.510668 -14.506776,1.192632 -14.506776,1.192632 0,0 -6.610768,-2.027793 0.183821,-2.027793"
         id="path121"
         inkscape:connector-curvature="0" />
    </g>
    <g
       id="g124"
       transform="translate(-27.533522,31.610008)">
      <text
         transform="translate(184.0986,16.3748)"
         id="text126">
        <tspan
           x="0"
           y="0"
           style="font-size:10.19999981px;font-family:'Liberation Sans'"
           id="tspan127">relaxed</tspan>
      </text>
      <text
         transform="translate(184.0986,30.8748)"
         id="text130">
        <tspan
           x="0"
           y="0"
           style="font-size:10.19999981px;font-family:'Liberation Sans'"
           id="tspan131">spring</tspan>
      </text>
    </g>
    <g
       id="g135"
       transform="translate(-12.248369,5.6642082)">
      <text
         transform="translate(202.0986,69.4871)"
         id="text137">
        <tspan
           x="0"
           y="0"
           style="font-size:10.19999981px;font-family:'Liberation Sans'"
           id="tspan138">force F</tspan>
      </text>
      <text
         transform="translate(202.0986,83.9871)"
         id="text141">
        <tspan
           x="0"
           y="0"
           style="font-size:10.19999981px;font-family:'Liberation Sans'"
           id="tspan142">being</tspan>
      </text>
      <text
         transform="translate(202.0986,98.4871)"
         id="text145">
        <tspan
           x="0"
           y="0"
           style="font-size:10.19999981px;font-family:'Liberation Sans'"
           id="tspan146">applied</tspan>
      </text>
    </g>
    <g
       id="g2383"
       transform="matrix(1.1607255,0.41963336,-0.54125494,0.89990675,193.64545,48.41312)">
      <path
         style="fill:none;fill-opacity:0.75;fill-rule:evenodd;stroke:#000000;stroke-width:0.25pt;stroke-linecap:butt;stroke-linejoin:miter;stroke-opacity:1"
         d="m -104.4672,46.610143 0,6.550749"
         id="path2381"
         inkscape:connector-curvature="0" />
      <ellipse
         style="fill:#000000;fill-opacity:1;stroke:none;stroke-width:1.25;stroke-linecap:butt;stroke-linejoin:miter;stroke-miterlimit:4;stroke-dashoffset:0;stroke-opacity:1"
         id="path2382"
         transform="translate(0.689552,4.137315)"
         cx="-105.15675"
         cy="42.989994"
         rx="1.379105"
         ry="0.86194062" />
    </g>
    <g
       id="g2387"
       transform="matrix(1.1607255,0.45698539,-0.54125494,0.98000912,193.08483,86.165166)">
      <path
         style="fill:none;fill-opacity:0.75;fill-rule:evenodd;stroke:#000000;stroke-width:0.25pt;stroke-linecap:butt;stroke-linejoin:miter;stroke-opacity:1"
         d="m -104.4672,46.610143 0,6.550749"
         id="path2388"
         inkscape:connector-curvature="0" />
      <ellipse
         style="fill:#000000;fill-opacity:1;stroke:none;stroke-width:1.25;stroke-linecap:butt;stroke-linejoin:miter;stroke-miterlimit:4;stroke-dashoffset:0;stroke-opacity:1"
         id="path2389"
         transform="translate(0.689552,4.137315)"
         cx="-105.15675"
         cy="42.989994"
         rx="1.379105"
         ry="0.86194062" />
    </g>
    <rect
       style="fill:#a7a7a7;fill-opacity:1;stroke:none;stroke-width:1.25;stroke-linecap:butt;stroke-linejoin:miter;stroke-miterlimit:4;stroke-dashoffset:0;stroke-opacity:1"
       id="rect92"
       width="17.494772"
       height="34.32077"
       x="26.27947"
       y="35.767006" />
    <rect
       style="fill:#a7a7a7;fill-opacity:1;stroke:none;stroke-width:1.25;stroke-linecap:butt;stroke-linejoin:miter;stroke-miterlimit:4;stroke-dashoffset:0;stroke-opacity:1"
       id="rect167"
       width="17.494772"
       height="34.32077"
       x="26.27947"
       y="71.608315" />
    <path
       style="fill:none;fill-opacity:0.75;fill-rule:evenodd;stroke:#000000;stroke-width:0.17429945pt;stroke-linecap:butt;stroke-linejoin:miter;stroke-opacity:1"
       d="m 43.794991,35.772035 0,34.314954"
       id="path2390"
       inkscape:connector-curvature="0" />
    <path
       style="fill:none;fill-opacity:0.75;fill-rule:evenodd;stroke:#000000;stroke-width:0.17429945pt;stroke-linecap:butt;stroke-linejoin:miter;stroke-opacity:1"
       d="m 43.751459,71.610358 0,34.314962"
       id="path2391"
       inkscape:connector-curvature="0" />
    <path
       style="fill:none;fill-opacity:0.75;fill-rule:evenodd;stroke:#000000;stroke-width:0.75;stroke-linecap:butt;stroke-linejoin:miter;stroke-miterlimit:4;stroke-dasharray:none;stroke-opacity:1"
       d="m 61.160904,34.203074 0,-22.652254"
       id="path2392"
       inkscape:connector-curvature="0" />
    <path
       style="fill:none;fill-opacity:0.75;fill-rule:evenodd;stroke:#000000;stroke-width:0.75;stroke-linecap:butt;stroke-linejoin:miter;stroke-miterlimit:4;stroke-dasharray:none;stroke-opacity:1"
       d="m 131.43616,34.706455 0,-8.557513"
       id="path2393"
       inkscape:connector-curvature="0" />
    <path
       style="fill:none;fill-opacity:0.75;fill-rule:evenodd;stroke:#000000;stroke-width:0.75;stroke-linecap:butt;stroke-linejoin:miter;stroke-miterlimit:4;stroke-dasharray:none;stroke-opacity:1"
       d="m 156.76149,20.108336 0,-8.557516"
       id="path2394"
       inkscape:connector-curvature="0" />
    <path
       style="fill:none;fill-opacity:0.75;fill-rule:evenodd;stroke:#000000;stroke-width:0.75;stroke-linecap:butt;stroke-linejoin:miter;stroke-miterlimit:4;stroke-opacity:1;marker-start:url(#Arrow2L);stroke-dasharray:none"
       d="m 66.728543,15.82958 2.086728,0"
       id="path2567"
       inkscape:connector-curvature="0" />
    <path
       style="fill:none;fill-opacity:0.75;fill-rule:evenodd;stroke:#000000;stroke-width:0.75;stroke-linecap:butt;stroke-linejoin:miter;stroke-miterlimit:4;stroke-opacity:1;marker-start:url(#Arrow2L);stroke-dasharray:none"
       d="m 151.28912,15.82958 -2.08673,0"
       id="path2641"
       inkscape:connector-curvature="0" />
    <path
       style="fill:none;fill-opacity:0.75;fill-rule:evenodd;stroke:#000000;stroke-width:0.75;stroke-linecap:butt;stroke-linejoin:miter;stroke-miterlimit:4;stroke-opacity:1;marker-start:url(#Arrow2L);stroke-dasharray:none"
       d="m 66.728543,30.427697 2.086728,0"
       id="path2642"
       inkscape:connector-curvature="0" />
    <path
       style="fill:none;fill-opacity:0.75;fill-rule:evenodd;stroke:#000000;stroke-width:0.75;stroke-linecap:butt;stroke-linejoin:miter;stroke-miterlimit:4;stroke-opacity:1;marker-start:url(#Arrow2L);stroke-dasharray:none"
       d="m 125.70629,30.427697 -2.08672,0"
       id="path2643"
       inkscape:connector-curvature="0" />
    <path
       style="fill:none;fill-opacity:0.75;fill-rule:evenodd;stroke:#000000;stroke-width:0.75;stroke-linecap:butt;stroke-linejoin:miter;stroke-miterlimit:4;stroke-opacity:1;stroke-dasharray:none"
       d="m 66.677955,15.82958 84.238735,0"
       id="path2717"
       inkscape:connector-curvature="0" />
    <path
       style="fill:none;fill-opacity:0.75;fill-rule:evenodd;stroke:#000000;stroke-width:0.75;stroke-linecap:butt;stroke-linejoin:miter;stroke-miterlimit:4;stroke-opacity:1;stroke-dasharray:none"
       d="m 68.795689,30.427697 58.120011,0"
       id="path2718"
       inkscape:connector-curvature="0" />
    <rect
       style="opacity:1;fill:#ffffff;fill-opacity:1;stroke:none;stroke-width:0.75;stroke-linejoin:miter;stroke-miterlimit:4;stroke-dasharray:none;stroke-dashoffset:0;stroke-opacity:1"
       id="rect4404"
       width="10.960438"
       height="9.8067074"
       x="105.56632"
       y="10.489315" />
    <rect
       style="opacity:1;fill:#ffffff;fill-opacity:1;stroke:none;stroke-width:0.75;stroke-linejoin:miter;stroke-miterlimit:4;stroke-dasharray:none;stroke-dashoffset:0;stroke-opacity:1"
       id="rect4404-0"
       width="10.960438"
       height="9.8067074"
       x="92.298416"
       y="25.487808" />
    <text
       xml:space="preserve"
       style="font-style:normal;font-weight:normal;font-size:12px;font-family:helvetica;fill:#000000;fill-opacity:1;stroke:none;stroke-width:1pt;stroke-linecap:butt;stroke-linejoin:miter;stroke-opacity:1"
       x="108.2491"
       y="19.76104"
       id="text2719"><tspan
         sodipodi:role="line"
         id="tspan2720"
         x="108.2491"
         y="19.76104">x</tspan></text>
    <g
       id="g2728"
       transform="translate(55.64906,162.0698)">
      <text
         xml:space="preserve"
         style="font-style:normal;font-weight:normal;font-size:12px;font-family:helvetica;fill:#000000;fill-opacity:1;stroke:none;stroke-width:1pt;stroke-linecap:butt;stroke-linejoin:miter;stroke-opacity:1"
         x="37.580051"
         y="-129.16203"
         id="text2722"><tspan
           sodipodi:role="line"
           id="tspan2723"
           x="37.580051"
           y="-129.16203">x</tspan></text>
      <text
         xml:space="preserve"
         style="font-style:normal;font-variant:normal;font-weight:normal;font-stretch:normal;font-size:6px;line-height:100%;font-family:'Liberation Sans';writing-mode:lr-tb;text-anchor:start;fill:#000000;fill-opacity:1;stroke:none;stroke-width:1pt;stroke-linecap:butt;stroke-linejoin:miter;stroke-opacity:1"
         x="44.451473"
         y="-127.288"
         id="text2725"
         sodipodi:linespacing="100%"><tspan
           sodipodi:role="line"
           id="tspan2726"
           x="44.451473"
           y="-127.288">o</tspan></text>
    </g>
  </g>
</svg>
