<?xml version="1.0" encoding="UTF-8" standalone="no"?>
<!DOCTYPE svg PUBLIC "-//W3C//DTD SVG 20010904//EN"
"http://www.w3.org/TR/2001/REC-SVG-20010904/DTD/svg10.dtd">
<!-- Created with Inkscape (http://www.inkscape.org/) -->
<svg
   width="113.00000mm"
   height="61.000000mm"
   xmlns="http://www.w3.org/2000/svg"
   xmlns:cc="http://web.resource.org/cc/"
   xmlns:inkscape="http://www.inkscape.org/namespaces/inkscape"
   xmlns:sodipodi="http://sodipodi.sourceforge.net/DTD/sodipodi-0.dtd"
   xmlns:rdf="http://www.w3.org/1999/02/22-rdf-syntax-ns#"
   xmlns:dc="http://purl.org/dc/elements/1.1/"
   xmlns:xlink="http://www.w3.org/1999/xlink"
   id="svg2729"
   sodipodi:version="0.32"
   sodipodi:docbase="/home/bcrowell/Documents/writing/lm/trunk/1np/ch05/figs"
   sodipodi:docname="hooke-definitions.svg">
  <defs
     id="defs3">
    <marker
       style="overflow:visible;"
       id="Arrow2L"
       refX="0.0"
       refY="0.0"
       orient="auto"
       inkscape:stockid="Arrow2L">
      <path
         transform="scale(1.1) translate(-5,0)"
         d="M 8.7185878,4.0337352 L -2.2072895,0.016013256 L 8.7185884,-4.0017078 C 6.9730900,-1.6296469 6.9831476,1.6157441 8.7185878,4.0337352 z "
         style="font-size:12.0;fill-rule:evenodd;stroke-width:0.62500000;stroke-linejoin:round;"
         id="path2555"
         sodipodi:nodetypes="cccc" />
    </marker>
  </defs>
  <sodipodi:namedview
     id="base"
     pagecolor="#ffffff"
     bordercolor="#666666"
     borderopacity="1.0"
     inkscape:pageopacity="0.0"
     inkscape:pageshadow="2"
     inkscape:zoom="1.4869924"
     inkscape:cx="163.53480"
     inkscape:cy="90.980632"
     inkscape:current-layer="layer1"
     inkscape:window-width="640"
     inkscape:window-height="536"
     inkscape:window-x="83"
     inkscape:window-y="20" />
  <metadata
     id="metadata4">
    <rdf:RDF
       id="RDF5">
      <cc:Work
         rdf:about=""
         id="Work6">
        <dc:format
           id="format7">image/svg+xml</dc:format>
        <dc:type
           id="type9"
           rdf:resource="http://purl.org/dc/dcmitype/StillImage" />
      </cc:Work>
    </rdf:RDF>
  </metadata>
  <g
     inkscape:label="Layer 1"
     inkscape:groupmode="layer"
     id="layer1">
    <g
       id="g10"
       transform="matrix(1.539724,0.000000,0.000000,1.300000,25.13477,68.17173)">
			<path
   style="fill:none;stroke:#000000"
   d="M 42.093000,19.320000 C 42.093000,-5.6400000 61.480000,-5.9000000 61.480000,19.300000 C 61.480000,44.500000 45.730000,44.260000 45.730000,19.300000"
   id="path12" />



			<path
   style="fill:none;stroke:#000000"
   d="M 45.693000,19.320000 C 45.693000,-5.6400000 65.080000,-5.9000000 65.080000,19.300000 C 65.080000,44.500000 49.330000,44.260000 49.330000,19.300000"
   id="path14" />



			<path
   style="fill:none;stroke:#000000"
   d="M 49.293000,19.320000 C 49.293000,-5.6400000 68.680000,-5.9000000 68.680000,19.300000 C 68.680000,44.500000 52.930000,44.260000 52.930000,19.300000"
   id="path16" />



			<path
   style="fill:none;stroke:#000000"
   d="M 52.893000,19.320000 C 52.893000,-5.6400000 72.280000,-5.9000000 72.280000,19.300000 C 72.280000,44.500000 56.530000,44.260000 56.530000,19.300000"
   id="path18" />



			<path
   style="fill:none;stroke:#000000"
   d="M 56.493000,19.320000 C 56.493000,-5.6400000 75.880000,-5.9000000 75.880000,19.300000 C 75.880000,44.500000 60.130000,44.260000 60.130000,19.300000"
   id="path20" />



			<path
   style="fill:none;stroke:#000000"
   d="M 60.093000,19.320000 C 60.093000,-5.6400000 79.480000,-5.9000000 79.480000,19.300000 C 79.480000,44.500000 63.730000,44.260000 63.730000,19.300000"
   id="path22" />



			<path
   style="fill:none;stroke:#000000"
   d="M 63.693000,19.320000 C 63.693000,-5.6400000 83.080000,-5.9000000 83.080000,19.300000 C 83.080000,44.500000 67.330000,44.260000 67.330000,19.300000"
   id="path24" />



			<path
   style="fill:none;stroke:#000000"
   d="M 67.293000,19.320000 C 67.293000,-5.6400000 86.680000,-5.9000000 86.680000,19.300000 C 86.680000,44.500000 70.930000,44.260000 70.930000,19.300000"
   id="path26" />



			<path
   style="fill:none;stroke:#000000"
   d="M 70.893000,19.320000 C 70.893000,-5.6400000 90.280000,-5.9000000 90.280000,19.300000 C 90.280000,44.500000 74.530000,44.260000 74.530000,19.300000"
   id="path28" />



			<path
   style="fill:none;stroke:#000000"
   d="M 74.493000,19.320000 C 74.493000,-5.6400000 93.880000,-5.9000000 93.880000,19.300000 C 93.880000,44.500000 78.130000,44.260000 78.130000,19.300000"
   id="path30" />



			<path
   style="fill:none;stroke:#000000"
   d="M 78.093000,19.320000 C 78.093000,-5.6400000 97.480000,-5.9000000 97.480000,19.300000 C 97.480000,44.500000 81.730000,44.260000 81.730000,19.300000"
   id="path32" />



			<path
   style="fill:none;stroke:#000000"
   d="M 81.693000,19.320000 C 81.693000,-5.6400000 101.08000,-5.9000000 101.08000,19.300000 C 101.08000,44.500000 85.330000,44.260000 85.330000,19.300000"
   id="path34" />



			<path
   style="fill:none;stroke:#000000"
   d="M 85.292000,19.320000 C 85.292000,-5.6400000 104.67900,-5.9000000 104.67900,19.300000 C 104.67900,44.500000 88.929000,44.260000 88.929000,19.300000"
   id="path36" />



			<path
   style="fill:none;stroke:#000000"
   d="M 88.893000,19.320000 C 88.893000,-5.6400000 108.28000,-5.9000000 108.28000,19.300000 C 108.28000,44.500000 92.530000,44.260000 92.530000,19.300000"
   id="path38" />



			<path
   style="fill:none;stroke:#000000"
   d="M 92.492000,19.320000 C 92.492000,-5.6400000 111.88000,-5.9000000 111.88000,19.300000 C 111.88000,44.500000 96.130000,44.260000 96.130000,19.300000"
   id="path40" />



			<path
   style="fill:none;stroke:#000000"
   d="M 96.092000,19.320000 C 96.092000,-5.6400000 115.47900,-5.9000000 115.47900,19.300000 C 115.47900,44.500000 99.729000,44.260000 99.729000,19.300000"
   id="path42" />



			<path
   style="fill:none;stroke:#000000"
   d="M 99.692000,19.320000 C 99.692000,-5.6400000 119.07900,-5.9000000 119.07900,19.300000 C 119.07900,44.500000 103.32900,44.260000 103.32900,19.300000"
   id="path44" />



			<path
   style="fill:none;stroke:#000000"
   d="M 103.29200,19.320000 C 103.29200,-5.6400000 122.67900,-5.9000000 122.67900,19.300000 C 122.67900,44.500000 106.92900,44.260000 106.92900,19.300000"
   id="path46" />



			<path
   style="fill:none;stroke:#000000"
   d="M 106.89200,19.320000 C 106.89200,-5.6400000 126.27900,-5.9000000 126.27900,19.300000 C 126.27900,44.500000 110.52900,44.260000 110.52900,19.300000"
   id="path48" />



			<path
   style="fill:none;stroke:#000000"
   d="M 110.49200,19.320000 C 110.49200,-5.6400000 129.87900,-5.9000000 129.87900,19.300000 C 129.87900,44.500000 114.12900,44.260000 114.12900,19.300000"
   id="path50" />



			<path
   style="fill:none;stroke:#000000"
   d="M 114.09200,19.320000 C 114.09200,-5.6400000 133.47900,-5.9000000 133.47900,19.300000 C 133.47900,44.500000 117.72900,44.260000 117.72900,19.300000"
   id="path52" />



			<path
   style="fill:none;stroke:#000000"
   d="M 117.69200,19.320000 C 117.69200,-5.6400000 137.07900,-5.9000000 137.07900,19.300000 C 137.07900,44.500000 121.32900,44.260000 121.32900,19.300000"
   id="path54" />



			<path
   style="fill:none;stroke:#000000"
   d="M 121.29200,19.320000 C 121.29200,-5.6400000 140.67900,-5.9000000 140.67900,19.300000 C 140.67900,44.500000 124.92900,44.260000 124.92900,19.300000"
   id="path56" />



			<path
   style="fill:none;stroke:#000000"
   d="M 124.89200,19.320000 C 124.89200,-5.6400000 144.27900,-5.9000000 144.27900,19.300000 C 144.27900,44.500000 128.52900,44.260000 128.52900,19.300000"
   id="path58" />



			<path
   style="fill:none;stroke:#000000"
   d="M 128.49200,19.320000 C 128.49200,-5.6400000 147.87900,-5.9000000 147.87900,19.300000 C 147.87900,44.500000 132.12900,44.260000 132.12900,19.300000"
   id="path60" />



			<path
   style="fill:none;stroke:#000000"
   d="M 132.09200,19.320000 C 132.09200,-5.6400000 151.55800,-5.9000000 151.47900,19.300000 C 151.47400,21.024000 155.97400,23.587000 157.72400,23.524000 C 159.47400,23.461000 172.78600,21.836000 168.53600,20.274000 C 164.28600,18.712000 164.53600,19.586000 164.53600,19.586000"
   id="path62" />



			<path
   style="fill:none;stroke:#000000"
   d="M 42.099000,19.149000 C 41.911000,21.524000 27.287000,21.024000 27.287000,21.024000 C 27.287000,21.024000 20.537000,17.836000 27.475000,17.836000"
   id="path64" />



		</g>
    <g
       id="g67"
       transform="matrix(1.539724,0.000000,0.000000,1.300000,57.86897,68.17173)">
			<path
   style="fill:none;stroke:#000000"
   d="M 23.578000,79.682000 C 23.578000,54.723000 48.782000,54.462000 48.782000,79.662000 C 48.782000,104.86200 28.307000,104.62200 28.307000,79.662000"
   id="path69" />



			<path
   style="fill:none;stroke:#000000"
   d="M 28.258000,79.682000 C 28.258000,54.723000 53.461000,54.462000 53.461000,79.662000 C 53.461000,104.86200 32.986000,104.62200 32.986000,79.662000"
   id="path71" />



			<path
   style="fill:none;stroke:#000000"
   d="M 32.938000,79.682000 C 32.938000,54.723000 58.142000,54.462000 58.142000,79.662000 C 58.142000,104.86200 37.667000,104.62200 37.667000,79.662000"
   id="path73" />



			<path
   style="fill:none;stroke:#000000"
   d="M 37.618000,79.682000 C 37.618000,54.723000 62.821000,54.462000 62.821000,79.662000 C 62.821000,104.86200 42.346000,104.62200 42.346000,79.662000"
   id="path75" />



			<path
   style="fill:none;stroke:#000000"
   d="M 42.298000,79.682000 C 42.298000,54.723000 67.502000,54.462000 67.502000,79.662000 C 67.502000,104.86200 47.027000,104.62200 47.027000,79.662000"
   id="path77" />



			<path
   style="fill:none;stroke:#000000"
   d="M 46.978000,79.682000 C 46.978000,54.723000 72.181000,54.462000 72.181000,79.662000 C 72.181000,104.86200 51.706000,104.62200 51.706000,79.662000"
   id="path79" />



			<path
   style="fill:none;stroke:#000000"
   d="M 51.658000,79.682000 C 51.658000,54.723000 76.862000,54.462000 76.862000,79.662000 C 76.862000,104.86200 56.387000,104.62200 56.387000,79.662000"
   id="path81" />



			<path
   style="fill:none;stroke:#000000"
   d="M 56.338000,79.682000 C 56.338000,54.723000 81.541000,54.462000 81.541000,79.662000 C 81.541000,104.86200 61.066000,104.62200 61.066000,79.662000"
   id="path83" />



			<path
   style="fill:none;stroke:#000000"
   d="M 61.018000,79.682000 C 61.018000,54.723000 86.222000,54.462000 86.222000,79.662000 C 86.222000,104.86200 65.747000,104.62200 65.747000,79.662000"
   id="path85" />



			<path
   style="fill:none;stroke:#000000"
   d="M 65.698000,79.682000 C 65.698000,54.723000 90.901000,54.462000 90.901000,79.662000 C 90.901000,104.86200 70.426000,104.62200 70.426000,79.662000"
   id="path87" />



			<path
   style="fill:none;stroke:#000000"
   d="M 70.377000,79.682000 C 70.377000,54.723000 95.581000,54.462000 95.581000,79.662000 C 95.581000,104.86200 75.106000,104.62200 75.106000,79.662000"
   id="path89" />



			<path
   style="fill:none;stroke:#000000"
   d="M 75.058000,79.682000 C 75.058000,54.723000 100.26100,54.462000 100.26100,79.662000 C 100.26100,104.86200 79.786000,104.62200 79.786000,79.662000"
   id="path91" />



			<path
   style="fill:none;stroke:#000000"
   d="M 79.737000,79.682000 C 79.737000,54.723000 104.94100,54.462000 104.94100,79.662000 C 104.94100,104.86200 84.466000,104.62200 84.466000,79.662000"
   id="path93" />



			<path
   style="fill:none;stroke:#000000"
   d="M 84.417000,79.682000 C 84.417000,54.723000 109.62000,54.462000 109.62000,79.662000 C 109.62000,104.86200 89.145000,104.62200 89.145000,79.662000"
   id="path95" />



			<path
   style="fill:none;stroke:#000000"
   d="M 89.097000,79.682000 C 89.097000,54.723000 114.30100,54.462000 114.30100,79.662000 C 114.30100,104.86200 93.826000,104.62200 93.826000,79.662000"
   id="path97" />



			<path
   style="fill:none;stroke:#000000"
   d="M 93.777000,79.682000 C 93.777000,54.723000 118.98000,54.462000 118.98000,79.662000 C 118.98000,104.86200 98.505000,104.62200 98.505000,79.662000"
   id="path99" />



			<path
   style="fill:none;stroke:#000000"
   d="M 98.457000,79.682000 C 98.457000,54.723000 123.66100,54.462000 123.66100,79.662000 C 123.66100,104.86200 103.18600,104.62200 103.18600,79.662000"
   id="path101" />



			<path
   style="fill:none;stroke:#000000"
   d="M 103.13700,79.682000 C 103.13700,54.723000 128.34100,54.462000 128.34100,79.662000 C 128.34100,104.86200 107.86600,104.62200 107.86600,79.662000"
   id="path103" />



			<path
   style="fill:none;stroke:#000000"
   d="M 107.81700,79.682000 C 107.81700,54.723000 133.02000,54.462000 133.02000,79.662000 C 133.02000,104.86200 112.54500,104.62200 112.54500,79.662000"
   id="path105" />



			<path
   style="fill:none;stroke:#000000"
   d="M 112.49700,79.682000 C 112.49700,54.723000 137.70000,54.462000 137.70000,79.662000 C 137.70000,104.86200 117.22500,104.62200 117.22500,79.662000"
   id="path107" />



			<path
   style="fill:none;stroke:#000000"
   d="M 117.17700,79.682000 C 117.17700,54.723000 142.38100,54.462000 142.38100,79.662000 C 142.38100,104.86200 121.90600,104.62200 121.90600,79.662000"
   id="path109" />



			<path
   style="fill:none;stroke:#000000"
   d="M 121.85700,79.682000 C 121.85700,54.723000 147.06100,54.462000 147.06100,79.662000 C 147.06100,104.86200 126.58600,104.62200 126.58600,79.662000"
   id="path111" />



			<path
   style="fill:none;stroke:#000000"
   d="M 126.53700,79.682000 C 126.53700,54.723000 151.74100,54.462000 151.74100,79.662000 C 151.74100,104.86200 131.26600,104.62200 131.26600,79.662000"
   id="path113" />



			<path
   style="fill:none;stroke:#000000"
   d="M 131.21700,79.682000 C 131.21700,54.723000 156.42100,54.462000 156.42100,79.662000 C 156.42100,104.86200 135.94600,104.62200 135.94600,79.662000"
   id="path115" />



			<path
   style="fill:none;stroke:#000000"
   d="M 135.89600,79.682000 C 135.89600,54.723000 161.10000,54.462000 161.10000,79.662000 C 161.10000,104.86200 140.62500,104.62200 140.62500,79.662000"
   id="path117" />



			<path
   style="fill:none;stroke:#000000"
   d="M 140.57700,79.682000 C 140.57700,54.723000 165.88300,54.463000 165.78100,79.662000 C 165.77400,81.386000 171.62400,83.949000 173.89900,83.886000 C 176.17400,83.824000 193.48100,82.198000 187.95600,80.636000 C 182.43100,79.074000 182.75600,79.948000 182.75600,79.948000"
   id="path119" />



			<path
   style="fill:none;stroke:#000000"
   d="M 23.585000,79.511000 C 23.341000,81.886000 4.3290000,81.386000 4.3290000,81.386000 C 4.3290000,81.386000 -4.4460000,78.198000 4.5730000,78.198000"
   id="path121" />



		</g>
    <g
       id="g124"
       transform="translate(110.1843,74.66883)">
			<text
   transform="translate(184.0986,16.37480)"
   id="text126"><tspan
     x="0"
     y="0"
     style="font-size:10.200000;font-family:Liberation Sans"
     id="tspan127">relaxed</tspan></text>



			<text
   transform="translate(184.0986,30.87480)"
   id="text130"><tspan
     x="0"
     y="0"
     style="font-size:10.200000;font-family:Liberation Sans"
     id="tspan131">spring</tspan></text>



		</g>
    <g
       id="g135"
       transform="translate(152.5886,93.22073)">
			<text
   transform="translate(202.0986,69.48710)"
   id="text137"><tspan
     x="0"
     y="0"
     style="font-size:10.200000;font-family:Liberation Sans"
     id="tspan138">force F</tspan></text>



			<text
   transform="translate(202.0986,83.98710)"
   id="text141"><tspan
     x="0"
     y="0"
     style="font-size:10.200000;font-family:Liberation Sans"
     id="tspan142">being</tspan></text>



			<text
   transform="translate(202.0986,98.48710)"
   id="text145"><tspan
     x="0"
     y="0"
     style="font-size:10.200000;font-family:Liberation Sans"
     id="tspan146">applied</tspan></text>



		</g>
    <line
       style="fill:none"
       x1="393.01389"
       y1="13.151738"
       x2="393.01389"
       y2="90.151741"
       id="line150" />
    <g
       id="g2383"
       transform="matrix(2.372289,0.857646,-1.106216,1.839228,368.3418,86.88993)">
      <path
         style="fill:none;fill-opacity:0.75000000;fill-rule:evenodd;stroke:#000000;stroke-width:0.25000000pt;stroke-linecap:butt;stroke-linejoin:miter;stroke-opacity:1.0000000"
         d="M -104.46720,46.610143 L -104.46720,53.160892"
         id="path2381" />
      <path
         sodipodi:type="arc"
         style="fill:#000000;fill-opacity:1.0000000;stroke:none;stroke-width:1.2500000;stroke-linecap:butt;stroke-linejoin:miter;stroke-miterlimit:4.0000000;stroke-dashoffset:0.0000000;stroke-opacity:1.0000000"
         id="path2382"
         sodipodi:cx="-105.15675"
         sodipodi:cy="42.989994"
         sodipodi:rx="1.3791050"
         sodipodi:ry="0.86194062"
         d="M -103.77765 42.989994 A 1.3791050 0.86194062 0 1 1  -106.53586,42.989994 A 1.3791050 0.86194062 0 1 1  -103.77765 42.989994 z"
         transform="translate(0.689552,4.137315)" />
    </g>
    <g
       id="g2387"
       transform="matrix(2.372289,0.933986,-1.106216,2.002941,367.1960,164.0475)">
      <path
         style="fill:none;fill-opacity:0.75000000;fill-rule:evenodd;stroke:#000000;stroke-width:0.25000000pt;stroke-linecap:butt;stroke-linejoin:miter;stroke-opacity:1.0000000"
         d="M -104.46720,46.610143 L -104.46720,53.160892"
         id="path2388" />
      <path
         sodipodi:type="arc"
         style="fill:#000000;fill-opacity:1.0000000;stroke:none;stroke-width:1.2500000;stroke-linecap:butt;stroke-linejoin:miter;stroke-miterlimit:4.0000000;stroke-dashoffset:0.0000000;stroke-opacity:1.0000000"
         id="path2389"
         sodipodi:cx="-105.15675"
         sodipodi:cy="42.989994"
         sodipodi:rx="1.3791050"
         sodipodi:ry="0.86194062"
         d="M -103.77765 42.989994 A 1.3791050 0.86194062 0 1 1  -106.53586,42.989994 A 1.3791050 0.86194062 0 1 1  -103.77765 42.989994 z"
         transform="translate(0.689552,4.137315)" />
    </g>
    <rect
       style="fill:#a7a7a7;fill-opacity:1.0000000;stroke:none;stroke-width:1.2500000;stroke-linecap:butt;stroke-linejoin:miter;stroke-miterlimit:4.0000000;stroke-dashoffset:0.0000000;stroke-opacity:1.0000000"
       id="rect92"
       width="35.755787"
       height="70.144737"
       x="26.279470"
       y="61.043827" />
    <rect
       style="fill:#a7a7a7;fill-opacity:1.0000000;stroke:none;stroke-width:1.2500000;stroke-linecap:butt;stroke-linejoin:miter;stroke-miterlimit:4.0000000;stroke-dashoffset:0.0000000;stroke-opacity:1.0000000"
       id="rect167"
       width="35.755787"
       height="70.144737"
       x="26.279470"
       y="134.29623" />
    <path
       style="fill:none;fill-opacity:0.75000000;fill-rule:evenodd;stroke:#000000;stroke-width:0.35623298pt;stroke-linecap:butt;stroke-linejoin:miter;stroke-opacity:1.0000000"
       d="M 62.077663,61.054100 L 62.077663,131.18695"
       id="path2390" />
    <path
       style="fill:none;fill-opacity:0.75000000;fill-rule:evenodd;stroke:#000000;stroke-width:0.35623298pt;stroke-linecap:butt;stroke-linejoin:miter;stroke-opacity:1.0000000"
       d="M 61.988693,134.30041 L 61.988693,204.43326"
       id="path2391" />
    <path
       style="fill:none;fill-opacity:0.75000000;fill-rule:evenodd;stroke:#000000;stroke-width:1.2379444;stroke-linecap:butt;stroke-linejoin:miter;stroke-miterlimit:4.0000000;stroke-opacity:1.0000000"
       d="M 100.51758,57.847460 L 100.51758,11.550820"
       id="path2392" />
    <path
       style="fill:none;fill-opacity:0.75000000;fill-rule:evenodd;stroke:#000000;stroke-width:1.2379444;stroke-linecap:butt;stroke-linejoin:miter;stroke-miterlimit:4.0000000;stroke-opacity:1.0000000"
       d="M 239.43005,58.876270 L 239.43005,41.386440"
       id="path2393" />
    <path
       style="fill:none;fill-opacity:0.75000000;fill-rule:evenodd;stroke:#000000;stroke-width:1.2379444;stroke-linecap:butt;stroke-linejoin:miter;stroke-miterlimit:4.0000000;stroke-opacity:1.0000000"
       d="M 291.18993,29.040660 L 291.18993,11.550820"
       id="path2394" />
    <path
       style="fill:none;fill-opacity:0.75000000;fill-rule:evenodd;stroke:#000000;stroke-width:0.99035543;stroke-linecap:butt;stroke-linejoin:miter;stroke-miterlimit:4.0000000;stroke-opacity:1.0000000;marker-start:url(#Arrow2L)"
       d="M 108.94922,20.295740 L 113.21407,20.295740"
       id="path2567" />
    <path
       style="fill:none;fill-opacity:0.75000000;fill-rule:evenodd;stroke:#000000;stroke-width:0.99035543;stroke-linecap:butt;stroke-linejoin:miter;stroke-miterlimit:4.0000000;stroke-opacity:1.0000000;marker-start:url(#Arrow2L)"
       d="M 281.77399,20.295740 L 277.50914,20.295740"
       id="path2641" />
    <path
       style="fill:none;fill-opacity:0.75000000;fill-rule:evenodd;stroke:#000000;stroke-width:0.99035543;stroke-linecap:butt;stroke-linejoin:miter;stroke-miterlimit:4.0000000;stroke-opacity:1.0000000;marker-start:url(#Arrow2L)"
       d="M 108.94922,50.131350 L 113.21407,50.131350"
       id="path2642" />
    <path
       style="fill:none;fill-opacity:0.75000000;fill-rule:evenodd;stroke:#000000;stroke-width:0.99035543;stroke-linecap:butt;stroke-linejoin:miter;stroke-miterlimit:4.0000000;stroke-opacity:1.0000000;marker-start:url(#Arrow2L)"
       d="M 229.48785,50.131350 L 225.22300,50.131350"
       id="path2643" />
    <path
       style="fill:none;fill-opacity:0.75000000;fill-rule:evenodd;stroke:#000000;stroke-width:1.2379444;stroke-linecap:butt;stroke-linejoin:miter;stroke-miterlimit:4.0000000;stroke-opacity:1.0000000"
       d="M 108.84583,20.295740 L 281.01282,20.295740"
       id="path2717" />
    <path
       style="fill:none;fill-opacity:0.75000000;fill-rule:evenodd;stroke:#000000;stroke-width:1.2379444;stroke-linecap:butt;stroke-linejoin:miter;stroke-miterlimit:4.0000000;stroke-opacity:1.0000000"
       d="M 113.17405,50.131350 L 231.95963,50.131350"
       id="path2718" />
    <text
       xml:space="preserve"
       style="font-size:12.000000;font-style:normal;font-weight:normal;fill:#000000;fill-opacity:1.0000000;stroke:none;stroke-width:1.0000000pt;stroke-linecap:butt;stroke-linejoin:miter;stroke-opacity:1.0000000;font-family:helvetica"
       x="191.47581"
       y="12.998631"
       id="text2719"><tspan
         sodipodi:role="line"
         id="tspan2720"
         x="191.47581"
         y="12.998631">x</tspan></text>
    <g
       id="g2728"
       transform="translate(130.4261,173.4295)">
      <text
         xml:space="preserve"
         style="font-size:12.000000;font-style:normal;font-weight:normal;fill:#000000;fill-opacity:1.0000000;stroke:none;stroke-width:1.0000000pt;stroke-linecap:butt;stroke-linejoin:miter;stroke-opacity:1.0000000;font-family:helvetica"
         x="37.580051"
         y="-129.16203"
         id="text2722"><tspan
           sodipodi:role="line"
           id="tspan2723"
           x="37.580051"
           y="-129.16203">x</tspan></text>
      <text
         xml:space="preserve"
         style="font-size:6.0000000;font-style:normal;font-variant:normal;font-weight:normal;font-stretch:normal;fill:#000000;fill-opacity:1.0000000;stroke:none;stroke-width:1.0000000pt;stroke-linecap:butt;stroke-linejoin:miter;stroke-opacity:1.0000000;font-family:Liberation Sans;text-anchor:start;writing-mode:lr-tb"
         x="44.451473"
         y="-127.288"
         id="text2725"
         sodipodi:linespacing="100%"><tspan
           sodipodi:role="line"
           id="tspan2726"
           x="44.451473"
           y="-127.28800">o</tspan></text>
    </g>
  </g>
</svg>
