<?xml version="1.0" encoding="iso-8859-1"?>
<!-- Generator: Adobe Illustrator 11 Build 196, SVG Export Plug-In . SVG Version: 6.0.0 Build 78)  -->
<!DOCTYPE svg PUBLIC "-//W3C//DTD SVG 1.0//EN"    "http://www.w3.org/TR/2001/REC-SVG-20010904/DTD/svg10.dtd" [
	<!ENTITY ns_flows "http://ns.adobe.com/Flows/1.0/">
	<!ENTITY ns_svg "http://www.w3.org/2000/svg">
	<!ENTITY ns_xlink "http://www.w3.org/1999/xlink">
]>
<svg  
	 width="145.766" height="127.713" viewBox="0 0 145.766 127.713"
	 style="overflow:visible;enable-background:new 0 0 145.766 127.713" xml:space="preserve">
	<style type="text/css">
	
	</style>
	<g id="Layer_1">
		<g>
			<line style="fill:none;stroke:#000000;stroke-width:0.5;" x1="36.261" y1="0.25" x2="140.261" y2="0.25"/>
			<line style="fill:none;stroke:#000000;stroke-width:0.5;" x1="36.261" y1="8.754" x2="140.261" y2="8.754"/>
			<line style="fill:none;stroke:#000000;stroke-width:0.5;" x1="36.261" y1="17.258" x2="140.261" y2="17.258"/>
			<line style="fill:none;stroke:#000000;stroke-width:0.5;" x1="36.261" y1="25.762" x2="140.261" y2="25.762"/>
			<line style="fill:none;stroke:#000000;stroke-width:0.5;" x1="36.261" y1="34.266" x2="140.261" y2="34.266"/>
			<line style="fill:none;stroke:#000000;stroke-width:0.5;" x1="36.261" y1="42.77" x2="140.261" y2="42.77"/>
			<line style="fill:none;stroke:#000000;" x1="36.261" y1="51.273" x2="140.261" y2="51.273"/>
			<line style="fill:none;stroke:#000000;stroke-width:0.5;" x1="36.261" y1="59.778" x2="140.261" y2="59.778"/>
			<line style="fill:none;stroke:#000000;stroke-width:0.5;" x1="36.261" y1="68.282" x2="140.261" y2="68.282"/>
			<line style="fill:none;stroke:#000000;stroke-width:0.5;" x1="36.261" y1="76.785" x2="140.261" y2="76.785"/>
			<line style="fill:none;stroke:#000000;stroke-width:0.5;" x1="36.261" y1="85.29" x2="140.261" y2="85.29"/>
			<line style="fill:none;stroke:#000000;stroke-width:0.5;" x1="36.261" y1="93.793" x2="140.261" y2="93.793"/>
			<line style="fill:none;stroke:#000000;stroke-width:0.5;" x1="36.261" y1="102.297" x2="140.261" y2="102.297"/>
			<line style="fill:none;stroke:#000000;" x1="36.51" y1="0.399" x2="36.51" y2="102.493"/>
			<line style="fill:none;stroke:#000000;stroke-width:0.5;" x1="46.908" y1="0.399" x2="46.908" y2="102.493"/>
			<line style="fill:none;stroke:#000000;stroke-width:0.5;" x1="57.306" y1="0.399" x2="57.306" y2="102.493"/>
			<line style="fill:none;stroke:#000000;stroke-width:0.5;" x1="67.703" y1="0.399" x2="67.703" y2="102.493"/>
			<line style="fill:none;stroke:#000000;stroke-width:0.5;" x1="78.101" y1="0.399" x2="78.101" y2="102.493"/>
			<line style="fill:none;stroke:#000000;stroke-width:0.5;" x1="88.498" y1="0.399" x2="88.498" y2="102.493"/>
			<line style="fill:none;stroke:#000000;stroke-width:0.5;" x1="98.896" y1="0.399" x2="98.896" y2="102.493"/>
			<line style="fill:none;stroke:#000000;stroke-width:0.5;" x1="109.293" y1="0.399" x2="109.293" y2="102.493"/>
			<line style="fill:none;stroke:#000000;stroke-width:0.5;" x1="119.69" y1="0.399" x2="119.69" y2="102.493"/>
			<line style="fill:none;stroke:#000000;stroke-width:0.5;" x1="130.088" y1="0.399" x2="130.088" y2="102.493"/>
			<line style="fill:none;stroke:#000000;stroke-width:0.5;" x1="140.485" y1="0.399" x2="140.485" y2="102.493"/>
		</g>
		<g>
			<text transform="matrix(1 0 0 1 17.7612 46.25)"><tspan x="0" y="0" style="font-family:Liberation Sans; font-size:8.500000;">v</tspan></text>
			<text transform="matrix(1 0 0 1 0 58.25)"><tspan x="0" y="0" style="font-family:Liberation Sans; font-size:8.500000;">(m/s)</tspan></text>
		</g>
		<g>
			<text transform="matrix(1 0 0 1 27.7021 54.75)"><tspan x="0" y="0" style="font-family:Liberation Sans; font-size:8.500000;">0</tspan></text>
		</g>
		<g>
			<text transform="matrix(1 0 0 1 27.7021 13.25)"><tspan x="0" y="0" style="font-family:Liberation Sans; font-size:8.500000;">5</tspan></text>
		</g>
		<g>
			<text transform="matrix(1 0 0 1 22.1431 97.75)"><tspan x="0" y="0" style="font-family:Liberation Sans; font-size:8.500000;">&#x2013;5</tspan></text>
		</g>
		<g>
			<text transform="matrix(1 0 0 1 81.5493 123.25)"><tspan x="0" y="0" style="font-family:Liberation Sans; font-size:8.500000;">t (s)</tspan></text>
		</g>
		<g>
			<text transform="matrix(1 0 0 1 33.2021 112.9165)"><tspan x="0" y="0" style="font-family:Liberation Sans; font-size:8.500000;">0</tspan></text>
		</g>
		<g>
			<text transform="matrix(1 0 0 1 85.8125 112.9165)"><tspan x="0" y="0" style="font-family:Liberation Sans; font-size:8.500000;">5</tspan></text>
		</g>
		<g>
			<text transform="matrix(1 0 0 1 134.6431 112.9165)"><tspan x="0" y="0" style="font-family:Liberation Sans; font-size:8.500000;">10</tspan></text>
		</g>
		<line style="fill:none;stroke:#000000;" x1="36.51" y1="0.399" x2="57.011" y2="51.25"/>
		<line style="fill:none;stroke:#000000;" x1="57.011" y1="51.25" x2="140.485" y2="102.493"/>
	</g>
</svg>
