<?xml version="1.0" encoding="iso-8859-1"?>
<!-- Generator: Adobe Illustrator 11 Build 196, SVG Export Plug-In . SVG Version: 6.0.0 Build 78)  -->
<!DOCTYPE svg PUBLIC "-//W3C//DTD SVG 1.0//EN"    "http://www.w3.org/TR/2001/REC-SVG-20010904/DTD/svg10.dtd" [
	<!ENTITY ns_flows "http://ns.adobe.com/Flows/1.0/">
	<!ENTITY ns_svg "http://www.w3.org/2000/svg">
	<!ENTITY ns_xlink "http://www.w3.org/1999/xlink">
]>
<svg
	 width="147.401" height="100.331" viewBox="0 0 147.401 100.331"
	 style="overflow:visible;enable-background:new 0 0 147.401 100.331" xml:space="preserve">
	<style type="text/css">
	
	</style>
	<g id="Layer_1">
		<g>
			<line style="fill:#FFFFFF;stroke:#000000;stroke-width:0.5;" x1="77.332" y1="7.505" x2="129.4" y2="7.505"/>
			<path d="M132.328,7.505c-1.377,0.511-3.086,1.383-4.146,2.307l0.834-2.307l-0.834-2.307
				C129.241,6.122,130.95,6.994,132.328,7.505z"/>
			<path d="M74.404,7.505c1.377-0.511,3.087-1.384,4.146-2.307l-0.834,2.307l0.834,2.306C77.491,8.888,75.782,8.016,74.404,7.505z"
				/>
		</g>
		<rect x="99.45" y="2.38" style="fill:#FFFFFF;" width="9.999" height="10.249"/> 
		<rect x="10.749" y="31.158" style="fill:#FFFFFF;stroke:#000000;stroke-width:0.5;" width="5.529" height="13.824"/> 
		<rect x="0.323" y="29.641" style="fill:#FFFFFF;stroke:#000000;stroke-width:0.5;" width="26.727" height="3.994"/> 
		<rect x="130.844" y="31.158" style="fill:#FFFFFF;stroke:#000000;stroke-width:0.5;" width="5.529" height="13.824"/> 
		<polygon style="fill:#FFFFFF;stroke:#000000;stroke-width:0.5;" points="111.983,92.658 118.716,92.658 121.796,100.081 
			124.736,100.081 118.716,85.574 111.983,85.574 105.962,100.081 108.902,100.081 "/>
		<polygon style="fill:#FFFFFF;stroke:#000000;stroke-width:0.5;" points="28.56,92.658 35.293,92.658 38.373,100.081 
			41.313,100.081 35.293,85.574 28.56,85.574 22.54,100.081 25.479,100.081 "/>
		<g>
			<path style="fill:#FFFFFF;stroke:#000000;stroke-width:0.5;" d="M108.076,78.791l-12.139,0.962
				c-0.929,0.074-1.623,0.887-1.549,1.816c0.074,0.93,0.887,1.623,1.816,1.549l12.139-0.963c0.929-0.073,1.623-0.887,1.549-1.816
				S109.005,78.717,108.076,78.791z"/>
			<path style="fill:#FFFFFF;stroke:#000000;stroke-width:0.5;" d="M108.076,75.388L95.937,76.35
				c-0.929,0.074-1.623,0.887-1.549,1.816s0.887,1.623,1.816,1.549l12.139-0.962c0.929-0.074,1.623-0.887,1.549-1.816
				C109.818,76.007,109.005,75.314,108.076,75.388z"/>
			<path style="fill:#FFFFFF;stroke:#000000;stroke-width:0.5;" d="M108.076,71.984l-12.139,0.963
				c-0.929,0.074-1.623,0.887-1.549,1.816s0.887,1.623,1.816,1.549l12.139-0.963c0.929-0.074,1.623-0.887,1.549-1.816
				S109.005,71.911,108.076,71.984z"/>
			<path style="fill:#FFFFFF;stroke:#000000;stroke-width:0.5;" d="M108.076,68.581l-12.139,0.963
				c-0.929,0.074-1.623,0.887-1.549,1.816s0.887,1.623,1.816,1.549l12.139-0.963c0.929-0.073,1.623-0.887,1.549-1.816
				S109.005,68.508,108.076,68.581z"/>
			<path style="fill:#FFFFFF;stroke:#000000;stroke-width:0.5;" d="M108.076,65.178l-12.139,0.962
				c-0.929,0.074-1.623,0.887-1.549,1.816s0.887,1.623,1.816,1.549l12.139-0.962c0.929-0.074,1.623-0.887,1.549-1.816
				C109.818,65.798,109.005,65.104,108.076,65.178z"/>
			<path style="fill:#FFFFFF;stroke:#000000;stroke-width:0.5;" d="M108.076,61.775l-12.139,0.963
				c-0.929,0.074-1.623,0.887-1.549,1.816s0.887,1.623,1.816,1.549l12.139-0.963c0.929-0.074,1.623-0.887,1.549-1.816
				S109.005,61.701,108.076,61.775z"/>
			<path style="fill:#FFFFFF;stroke:#000000;stroke-width:0.5;" d="M108.076,58.372l-12.139,0.962
				c-0.929,0.074-1.623,0.887-1.549,1.816s0.887,1.623,1.816,1.549l12.139-0.963c0.929-0.074,1.623-0.887,1.549-1.816
				S109.005,58.298,108.076,58.372z"/>
			<path style="fill:#FFFFFF;stroke:#000000;stroke-width:0.5;" d="M108.076,54.969l-12.139,0.962
				c-0.929,0.074-1.623,0.887-1.549,1.816s0.887,1.623,1.816,1.549l12.139-0.962c0.929-0.074,1.623-0.887,1.549-1.816
				C109.818,55.588,109.005,54.895,108.076,54.969z"/>
			<path style="fill:#FFFFFF;stroke:#000000;stroke-width:0.5;" d="M108.076,51.565l-12.139,0.963
				c-0.929,0.073-1.623,0.887-1.549,1.816s0.887,1.623,1.816,1.549l12.139-0.963c0.929-0.074,1.623-0.887,1.549-1.816
				S109.005,51.492,108.076,51.565z"/>
			<path style="fill:#FFFFFF;stroke:#000000;stroke-width:0.5;" d="M108.076,48.162l-12.139,0.963
				c-0.929,0.074-1.623,0.887-1.549,1.816s0.887,1.623,1.816,1.549l12.139-0.963c0.929-0.074,1.623-0.887,1.549-1.816
				S109.005,48.089,108.076,48.162z"/>
		</g>
		<g>
			<path style="fill:#FFFFFF;stroke:#000000;stroke-width:0.5;" d="M51.687,78.791l-12.139,0.962
				c-0.93,0.074-1.623,0.887-1.549,1.816c0.074,0.93,0.887,1.623,1.816,1.549l12.139-0.963c0.929-0.073,1.623-0.887,1.549-1.816
				S52.616,78.717,51.687,78.791z"/>
			<path style="fill:#FFFFFF;stroke:#000000;stroke-width:0.5;" d="M51.687,75.388L39.547,76.35
				c-0.93,0.074-1.623,0.887-1.549,1.816s0.887,1.623,1.816,1.549l12.139-0.962c0.929-0.074,1.623-0.887,1.549-1.816
				C53.429,76.007,52.616,75.314,51.687,75.388z"/>
			<path style="fill:#FFFFFF;stroke:#000000;stroke-width:0.5;" d="M51.687,71.984l-12.139,0.963
				c-0.93,0.074-1.623,0.887-1.549,1.816s0.887,1.623,1.816,1.549l12.139-0.963c0.929-0.074,1.623-0.887,1.549-1.816
				S52.616,71.911,51.687,71.984z"/>
			<path style="fill:#FFFFFF;stroke:#000000;stroke-width:0.5;" d="M51.687,68.581l-12.139,0.963
				c-0.93,0.074-1.623,0.887-1.549,1.816s0.887,1.623,1.816,1.549l12.139-0.963c0.929-0.073,1.623-0.887,1.549-1.816
				S52.616,68.508,51.687,68.581z"/>
			<path style="fill:#FFFFFF;stroke:#000000;stroke-width:0.5;" d="M51.687,65.178l-12.139,0.962
				c-0.93,0.074-1.623,0.887-1.549,1.816s0.887,1.623,1.816,1.549l12.139-0.962c0.929-0.074,1.623-0.887,1.549-1.816
				C53.429,65.798,52.616,65.104,51.687,65.178z"/>
			<path style="fill:#FFFFFF;stroke:#000000;stroke-width:0.5;" d="M51.687,61.775l-12.139,0.963
				c-0.93,0.074-1.623,0.887-1.549,1.816s0.887,1.623,1.816,1.549l12.139-0.963c0.929-0.074,1.623-0.887,1.549-1.816
				S52.616,61.701,51.687,61.775z"/>
			<path style="fill:#FFFFFF;stroke:#000000;stroke-width:0.5;" d="M51.687,58.372l-12.139,0.962
				c-0.93,0.074-1.623,0.887-1.549,1.816s0.887,1.623,1.816,1.549l12.139-0.963c0.929-0.074,1.623-0.887,1.549-1.816
				S52.616,58.298,51.687,58.372z"/>
			<path style="fill:#FFFFFF;stroke:#000000;stroke-width:0.5;" d="M51.687,54.969l-12.139,0.962
				c-0.93,0.074-1.623,0.887-1.549,1.816s0.887,1.623,1.816,1.549l12.139-0.962c0.929-0.074,1.623-0.887,1.549-1.816
				C53.429,55.588,52.616,54.895,51.687,54.969z"/>
			<path style="fill:#FFFFFF;stroke:#000000;stroke-width:0.5;" d="M51.687,51.565l-12.139,0.963
				c-0.93,0.073-1.623,0.887-1.549,1.816s0.887,1.623,1.816,1.549l12.139-0.963c0.929-0.074,1.623-0.887,1.549-1.816
				S52.616,51.492,51.687,51.565z"/>
			<path style="fill:#FFFFFF;stroke:#000000;stroke-width:0.5;" d="M51.687,48.162l-12.139,0.963
				c-0.93,0.074-1.623,0.887-1.549,1.816s0.887,1.623,1.816,1.549l12.139-0.963c0.929-0.074,1.623-0.887,1.549-1.816
				S52.616,48.089,51.687,48.162z"/>
		</g>
		<polygon style="fill:#FFFFFF;stroke:#000000;stroke-width:0.5;" points="61.741,79.802 85.208,79.802 77.683,61.667 
			69.266,61.667 "/>
		<polygon style="fill:#FFFFFF;stroke:#000000;stroke-width:0.5;" points="85.208,49.969 61.741,49.969 69.266,68.103 
			77.683,68.103 "/>
		<circle style="fill:#FFFFFF;stroke:#000000;stroke-width:0.5;" cx="73.475" cy="64.847" r="3.233"/> 
		<circle style="fill:#FFFFFF;stroke:#000000;stroke-width:0.5;" cx="73.475" cy="64.847" r="2.346"/> 
		<circle style="fill:#FFFFFF;stroke:#000000;stroke-width:0.5;" cx="73.475" cy="64.847" r="0.235"/> 
		<rect x="7.812" y="43.906" style="fill:#FFFFFF;stroke:#000000;stroke-width:0.5;" width="131.327" height="6.912"/> 
		<rect x="27.617" y="79.561" style="fill:#FFFFFF;stroke:#000000;stroke-width:0.5;" width="91.716" height="6.912"/> 
		<rect x="120.418" y="29.641" style="fill:#FFFFFF;stroke:#000000;stroke-width:0.5;" width="26.726" height="3.994"/> 
		<line style="fill:#FFFFFF;stroke:#000000;stroke-width:0.5;" x1="73.453" y1="41.813" x2="73.453" y2="2.068"/>
		<line style="fill:#FFFFFF;stroke:#000000;stroke-width:0.5;" x1="133.446" y1="27.627" x2="133.446" y2="2.193"/>
		<line style="fill:#FFFFFF;stroke:#000000;stroke-width:0.5;" x1="102.575" y1="41.918" x2="102.575" y2="25.419"/>
		<g>
			<line style="fill:#FFFFFF;stroke:#000000;stroke-width:0.5;" x1="77.131" y1="29.273" x2="98.979" y2="29.273"/>
			<path d="M101.845,29.273c-1.349,0.5-3.022,1.354-4.059,2.258l0.817-2.258l-0.817-2.258
				C98.823,27.919,100.497,28.773,101.845,29.273z"/>
			<path d="M74.265,29.273c1.349-0.5,3.022-1.354,4.059-2.259l-0.817,2.259l0.817,2.258C77.287,30.627,75.614,29.773,74.265,29.273z
				"/>
		</g>
		<g>
			<text transform="matrix(1 0 0 1 101.8276 10)"><tspan x="0" y="0" style="font-family:Liberation Sans; font-size:8.500000;">a</tspan></text>
		</g>
		<rect x="82.952" y="23.628" style="fill:#FFFFFF;" width="9.999" height="10.249"/> 
		<g>
			<text transform="matrix(1 0 0 1 85.5776 31.75)"><tspan x="0" y="0" style="font-family:Liberation Sans; font-size:8.500000;">b</tspan></text>
		</g>
		<rect y="38.812" style="fill:none;" width="147.401" height="2.834"/> 
	</g>
</svg>
