<?xml version="1.0" encoding="iso-8859-1"?>
<!-- Generator: Adobe Illustrator 11 Build 196, SVG Export Plug-In . SVG Version: 6.0.0 Build 78)  -->
<!DOCTYPE svg PUBLIC "-//W3C//DTD SVG 1.0//EN"    "http://www.w3.org/TR/2001/REC-SVG-20010904/DTD/svg10.dtd" [
	<!ENTITY ns_flows "http://ns.adobe.com/Flows/1.0/">
	<!ENTITY ns_svg "http://www.w3.org/2000/svg">
	<!ENTITY ns_xlink "http://www.w3.org/1999/xlink">
]>
<svg  
	 width="152.769" height="85.452" viewBox="0 0 152.769 85.452" style="overflow:visible;enable-background:new 0 0 152.769 85.452"
	 xml:space="preserve">
	<style type="text/css">
	
	</style>
	<g id="Layer_1">
		<line style="fill:none;stroke:#000000;stroke-width:0.5;" x1="43.264" y1="0.508" x2="147.264" y2="0.508"/>
		<line style="fill:none;stroke:#000000;stroke-width:0.5;" x1="43.264" y1="9.012" x2="147.264" y2="9.012"/>
		<line style="fill:none;stroke:#000000;stroke-width:0.5;" x1="43.264" y1="17.517" x2="147.264" y2="17.517"/>
		<line style="fill:none;stroke:#000000;stroke-width:0.5;" x1="43.264" y1="26.021" x2="147.264" y2="26.021"/>
		<line style="fill:none;stroke:#000000;stroke-width:0.5;" x1="43.264" y1="34.524" x2="147.264" y2="34.524"/>
		<line style="fill:none;stroke:#000000;stroke-width:0.5;" x1="43.264" y1="43.028" x2="147.264" y2="43.028"/>
		<line style="fill:none;stroke:#000000;stroke-width:0.5;" x1="43.264" y1="51.532" x2="147.264" y2="51.532"/>
		<line style="fill:none;stroke:#000000;stroke-width:0.5;" x1="43.264" y1="60.036" x2="147.264" y2="60.036"/>
		<g>
			<line style="fill:none;stroke:#000000;" x1="43.513" y1="0.657" x2="43.513" y2="59.714"/>
			<line style="fill:none;stroke:#000000;stroke-width:0.5;" x1="53.911" y1="0.657" x2="53.911" y2="59.714"/>
			<line style="fill:none;stroke:#000000;stroke-width:0.5;" x1="64.309" y1="0.657" x2="64.309" y2="59.714"/>
			<line style="fill:none;stroke:#000000;stroke-width:0.5;" x1="74.706" y1="0.657" x2="74.706" y2="59.714"/>
			<line style="fill:none;stroke:#000000;stroke-width:0.5;" x1="85.104" y1="0.657" x2="85.104" y2="59.714"/>
			<line style="fill:none;stroke:#000000;stroke-width:0.5;" x1="95.501" y1="0.657" x2="95.501" y2="59.714"/>
			<line style="fill:none;stroke:#000000;stroke-width:0.5;" x1="105.899" y1="0.657" x2="105.899" y2="59.714"/>
			<line style="fill:none;stroke:#000000;stroke-width:0.5;" x1="116.296" y1="0.657" x2="116.296" y2="59.714"/>
			<line style="fill:none;stroke:#000000;stroke-width:0.5;" x1="126.694" y1="0.657" x2="126.694" y2="59.714"/>
			<line style="fill:none;stroke:#000000;stroke-width:0.5;" x1="137.091" y1="0.657" x2="137.091" y2="59.714"/>
			<line style="fill:none;stroke:#000000;stroke-width:0.5;" x1="147.489" y1="0.657" x2="147.489" y2="59.714"/>
		</g>
		<g>
			<text transform="matrix(1 0 0 1 22.2053 33.3223)"><tspan x="0" y="0" style="font-family:Liberation Sans; font-size:8.500000;">a</tspan></text>
			<text transform="matrix(1 0 0 1 0 45.3223)"><tspan x="0" y="0" style="font-family:Liberation Sans; font-size:8.500000;">(m/s</tspan></text>
			<text transform="matrix(1 0 0 1 19.4385 42.3223)"><tspan x="0" y="0" style="font-family:Liberation Sans; font-size:7.650000;">2</tspan></text>
			<text transform="matrix(1 0 0 1 24.4438 45.3223)"><tspan x="0" y="0" style="font-family:Liberation Sans; font-size:8.500000;">)</tspan></text>
		</g>
		<g>
			<text transform="matrix(1 0 0 1 29.1462 21.8223)"><tspan x="0" y="0" style="font-family:Liberation Sans; font-size:8.500000;">10</tspan></text>
		</g>
		<g>
			<text transform="matrix(1 0 0 1 34.7053 63.1553)"><tspan x="0" y="0" style="font-family:Liberation Sans; font-size:8.500000;">0</tspan></text>
		</g>
		<g>
			<text transform="matrix(1 0 0 1 88.5525 80.9888)"><tspan x="0" y="0" style="font-family:Liberation Sans; font-size:8.500000;">t (s)</tspan></text>
		</g>
		<g>
			<text transform="matrix(1 0 0 1 40.2053 70.6553)"><tspan x="0" y="0" style="font-family:Liberation Sans; font-size:8.500000;">0</tspan></text>
		</g>
		<g>
			<text transform="matrix(1 0 0 1 92.8157 70.6553)"><tspan x="0" y="0" style="font-family:Liberation Sans; font-size:8.500000;">5</tspan></text>
		</g>
		<g>
			<text transform="matrix(1 0 0 1 141.6462 70.6553)"><tspan x="0" y="0" style="font-family:Liberation Sans; font-size:8.500000;">10</tspan></text>
		</g>
		<path style="fill:none;stroke:#000000;" d="M43.639,59.997c22.803,0,41.29-18.487,41.29-41.29"/>
		<path style="fill:none;stroke:#000000;" d="M137.268,0.5c-22.804,0-41.291,18.691-41.291,41.746"/>
		<line style="fill:none;stroke:#000000;" x1="85.12" y1="17.935" x2="95.514" y2="42.926"/>
		<line style="fill:none;stroke:#000000;" x1="137.139" y1="0.426" x2="147.264" y2="17.517"/>
	</g>
</svg>
