<?xml version="1.0" encoding="iso-8859-1"?>
<!-- Generator: Adobe Illustrator 11 Build 196, SVG Export Plug-In . SVG Version: 6.0.0 Build 78)  -->
<!DOCTYPE svg PUBLIC "-//W3C//DTD SVG 1.0//EN"    "http://www.w3.org/TR/2001/REC-SVG-20010904/DTD/svg10.dtd" [
	<!ENTITY ns_flows "http://ns.adobe.com/Flows/1.0/">
	<!ENTITY ns_svg "http://www.w3.org/2000/svg">
	<!ENTITY ns_xlink "http://www.w3.org/1999/xlink">
]>
<svg  
	 width="137.674" height="82.352" viewBox="0 0 137.674 82.352" style="overflow:visible;enable-background:new 0 0 137.674 82.352"
	 xml:space="preserve">
	<g id="Layer_1">
		<g>
			<rect x="127.884" y="33.677" style="fill:#FFFFFF;" width="8.644" height="48.675"/> 
			<g>
				<line style="fill:none;stroke:#000000;stroke-width:0.45;" x1="127.884" y1="33.677" x2="127.884" y2="82.276"/>
				<line style="fill:none;stroke:#000000;stroke-width:0.45;" x1="128.446" y1="38.908" x2="134.197" y2="33.796"/>
				<line style="fill:none;stroke:#000000;stroke-width:0.45;" x1="134.028" y1="80.034" x2="136.377" y2="77.945"/>
				<line style="fill:none;stroke:#000000;stroke-width:0.45;" x1="128.446" y1="44.648" x2="136.546" y2="37.448"/>
				<line style="fill:none;stroke:#000000;stroke-width:0.45;" x1="128.446" y1="50.388" x2="136.546" y2="43.188"/>
				<line style="fill:none;stroke:#000000;stroke-width:0.45;" x1="128.446" y1="56.128" x2="136.546" y2="48.928"/>
				<line style="fill:none;stroke:#000000;stroke-width:0.45;" x1="128.446" y1="61.869" x2="136.546" y2="54.668"/>
				<line style="fill:none;stroke:#000000;stroke-width:0.45;" x1="128.446" y1="67.608" x2="136.546" y2="60.409"/>
				<line style="fill:none;stroke:#000000;stroke-width:0.45;" x1="128.446" y1="73.349" x2="136.546" y2="66.149"/>
				<line style="fill:none;stroke:#000000;stroke-width:0.45;" x1="128.446" y1="79.089" x2="136.546" y2="71.889"/>
			</g>
		</g>
		<g>
			<path style="fill:none;stroke:#000000;" d="M85.266,12.648c0-7.488,11.632-7.566,11.632-0.006c0,7.56-9.45,7.488-9.45,0"/>
			<path style="fill:none;stroke:#000000;" d="M87.425,12.648c0-7.488,11.632-7.566,11.632-0.006c0,7.56-9.45,7.488-9.45,0"/>
			<path style="fill:none;stroke:#000000;" d="M89.585,12.648c0-7.488,11.632-7.566,11.632-0.006c0,7.56-9.45,7.488-9.45,0"/>
			<path style="fill:none;stroke:#000000;" d="M91.746,12.648c0-7.488,11.632-7.566,11.632-0.006c0,7.56-9.45,7.488-9.45,0"/>
			<path style="fill:none;stroke:#000000;" d="M93.905,12.648c0-7.488,11.632-7.566,11.632-0.006c0,7.56-9.45,7.488-9.45,0"/>
			<path style="fill:none;stroke:#000000;" d="M96.065,12.648c0-7.488,11.632-7.566,11.632-0.006c0,7.56-9.45,7.488-9.45,0"/>
			<path style="fill:none;stroke:#000000;" d="M98.225,12.648c0-7.488,11.632-7.566,11.632-0.006c0,7.56-9.45,7.488-9.45,0"/>
			<path style="fill:none;stroke:#000000;" d="M100.385,12.648c0-7.488,11.632-7.566,11.632-0.006c0,7.56-9.45,7.488-9.45,0"/>
			<path style="fill:none;stroke:#000000;" d="M102.545,12.648c0-7.488,11.632-7.566,11.632-0.006c0,7.56-9.45,7.488-9.45,0"/>
			<path style="fill:none;stroke:#000000;" d="M104.706,12.648c0-7.488,11.632-7.566,11.632-0.006c0,7.56-9.45,7.488-9.45,0"/>
			<path style="fill:none;stroke:#000000;" d="M106.865,12.648c0-7.488,11.632-7.566,11.632-0.006c0,7.56-9.45,7.488-9.45,0"/>
			<path style="fill:none;stroke:#000000;" d="M109.027,12.648c0-7.488,11.68-7.566,11.632-0.006
				c-0.003,0.517,2.697,1.286,3.747,1.267c1.05-0.019,9.038-0.506,6.487-0.975c-2.55-0.469-2.4-0.206-2.4-0.206"/>
			<path style="fill:none;stroke:#000000;" d="M85.269,12.597c-0.113,0.712-8.888,0.562-8.888,0.562s-4.05-0.957,0.113-0.957"/>
		</g>
		<g>
			<path style="fill:none;stroke:#000000;stroke-width:0.5;" d="M45.484,9.535c4.315-0.802,8.231-1.543,9.25-1.882
				c1.019-0.339,2.516-1.048,3.03-0.915c0.514,0.132,2.1,1.2,2.496,1.576c0.396,0.376,3.531,2.446,3.851,2.693
				c0.32,0.247,1.64,0.862,2.154,2.474s0.774,2.938,0.718,3.582c-0.057,0.643-0.816,2.309-1.013,2.86
				c-0.197,0.551-0.36,1.605-0.671,1.962c-0.312,0.358-0.852,0.328-0.852,0.328"/>
			<path style="fill:none;stroke:#000000;stroke-width:0.5;" d="M44.198,17.692c1.628,0.695,2.945,1.747,3.998,1.91
				c1.054,0.163,2.981,0.332,3.686,0.788c0.704,0.456,3.591,1.366,4.397,1.848c0.807,0.482,2.218,0.957,2.72,0.922
				s1.145,0.022,1.631,0.257c0.487,0.235,1.937,0.774,2.297,0.648c0.361-0.126,1.304-0.594,1.384-0.902s0.086-1.183-0.462-1.817
				c-0.548-0.635-1.249-1.528-1.633-1.736c-0.384-0.209-2.039-0.801-2.59-0.998c-0.551-0.197-2.023-1.071-2.176-1.329
				c-0.152-0.259-1.386-2.056-1.386-2.056"/>
			<path style="fill:none;stroke:#000000;stroke-width:0.5;" d="M57.213,16.29c0,0,0.384-4.666,0.232-4.924"/>
			<path style="fill:none;stroke:#000000;stroke-width:0.5;" d="M57.804,13.156c0.868,0.882,2.291,1.523,2.64,1.23"/>
			<path style="fill:none;stroke:#000000;stroke-width:0.5;" d="M60.774,14.061c0.52,0.216,2.092,0.915,2.246,0.955
				c0.154,0.04,0.62,1.84,0.765,2.233c0.145,0.393,0.31,0.601,0.31,0.601s-1.2,1.36-1.19,1.746"/>
			<path style="fill:none;stroke:#000000;stroke-width:0.5;" d="M60.094,15.172c0.784,0.641,2.02,1.654,2.02,1.654l0.726,1.429"/>
			<line style="fill:none;stroke:#000000;stroke-width:0.5;" x1="60.767" y1="12.57" x2="60.75" y2="13.625"/>
			<line style="fill:none;stroke:#000000;stroke-width:0.5;" x1="63.417" y1="14.606" x2="63.805" y2="14.378"/>
			<line style="fill:none;stroke:#000000;stroke-width:0.5;" x1="64.773" y1="17.696" x2="64.396" y2="17.744"/>
			<polyline style="fill:none;stroke:#000000;stroke-width:0.5;" points="64.039,22.924 62.458,21.94 61.366,23.411 "/>
			<path style="fill:none;stroke:#000000;stroke-width:0.5;" d="M60.32,21.119c0,0,0.099,0.463-0.076,0.61"/>
			<polyline style="fill:none;stroke:#000000;stroke-width:0.5;" points="62.141,15.591 62.729,15.999 62.922,16.523 "/>
		</g>
		<rect x="71.579" y="6.638" style="fill:none;stroke:#000000;stroke-width:0.5;" width="7.8" height="30.6"/> 
		<path style="fill:none;stroke:#000000;" d="M75.11,23.243c-0.113,0.712-8.888,0.562-8.888,0.562s-4.05-0.957,0.113-0.957"/>
		<g>
			<path style="fill:none;stroke:#000000;" d="M85.266,32.138c0-7.488,11.632-7.566,11.632-0.006s-9.45,7.488-9.45,0"/>
			<path style="fill:none;stroke:#000000;" d="M87.426,32.138c0-7.488,11.632-7.566,11.632-0.006s-9.45,7.488-9.45,0"/>
			<path style="fill:none;stroke:#000000;" d="M89.585,32.138c0-7.488,11.632-7.566,11.632-0.006s-9.45,7.488-9.45,0"/>
			<path style="fill:none;stroke:#000000;" d="M91.746,32.138c0-7.488,11.632-7.566,11.632-0.006s-9.45,7.488-9.45,0"/>
			<path style="fill:none;stroke:#000000;" d="M93.905,32.138c0-7.488,11.632-7.566,11.632-0.006s-9.45,7.488-9.45,0"/>
			<path style="fill:none;stroke:#000000;" d="M96.065,32.138c0-7.488,11.632-7.566,11.632-0.006s-9.45,7.488-9.45,0"/>
			<path style="fill:none;stroke:#000000;" d="M98.226,32.138c0-7.488,11.632-7.566,11.632-0.006s-9.45,7.488-9.45,0"/>
			<path style="fill:none;stroke:#000000;" d="M100.385,32.138c0-7.488,11.632-7.566,11.632-0.006s-9.45,7.488-9.45,0"/>
			<path style="fill:none;stroke:#000000;" d="M102.545,32.138c0-7.488,11.632-7.566,11.632-0.006s-9.45,7.488-9.45,0"/>
			<path style="fill:none;stroke:#000000;" d="M104.706,32.138c0-7.488,11.632-7.566,11.632-0.006s-9.45,7.488-9.45,0"/>
			<path style="fill:none;stroke:#000000;" d="M106.865,32.138c0-7.488,11.632-7.566,11.632-0.006s-9.45,7.488-9.45,0"/>
			<path style="fill:none;stroke:#000000;" d="M109.027,32.138c0-7.488,11.68-7.566,11.632-0.006
				c-0.003,0.517,2.697,1.286,3.747,1.267c1.05-0.019,9.038-0.506,6.487-0.975c-2.55-0.469-2.4-0.206-2.4-0.206"/>
			<path style="fill:none;stroke:#000000;" d="M85.269,32.086c-0.113,0.712-8.888,0.562-8.888,0.562s-4.05-0.956,0.113-0.956"/>
		</g>
		<g>
			<path style="fill:none;stroke:#000000;" d="M85.266,63.962c0-7.488,11.632-7.566,11.632-0.006c0,7.56-9.45,7.488-9.45,0"/>
			<path style="fill:none;stroke:#000000;" d="M87.425,63.962c0-7.488,11.632-7.566,11.632-0.006c0,7.56-9.45,7.488-9.45,0"/>
			<path style="fill:none;stroke:#000000;" d="M89.585,63.962c0-7.488,11.632-7.566,11.632-0.006c0,7.56-9.45,7.488-9.45,0"/>
			<path style="fill:none;stroke:#000000;" d="M91.746,63.962c0-7.488,11.632-7.566,11.632-0.006c0,7.56-9.45,7.488-9.45,0"/>
			<path style="fill:none;stroke:#000000;" d="M93.905,63.962c0-7.488,11.632-7.566,11.632-0.006c0,7.56-9.45,7.488-9.45,0"/>
			<path style="fill:none;stroke:#000000;" d="M96.065,63.962c0-7.488,11.632-7.566,11.632-0.006c0,7.56-9.45,7.488-9.45,0"/>
			<path style="fill:none;stroke:#000000;" d="M98.225,63.962c0-7.488,11.632-7.566,11.632-0.006c0,7.56-9.45,7.488-9.45,0"/>
			<path style="fill:none;stroke:#000000;" d="M100.385,63.962c0-7.488,11.632-7.566,11.632-0.006c0,7.56-9.45,7.488-9.45,0"/>
			<path style="fill:none;stroke:#000000;" d="M102.545,63.962c0-7.488,11.632-7.566,11.632-0.006c0,7.56-9.45,7.488-9.45,0"/>
			<path style="fill:none;stroke:#000000;" d="M104.706,63.962c0-7.488,11.632-7.566,11.632-0.006c0,7.56-9.45,7.488-9.45,0"/>
			<path style="fill:none;stroke:#000000;" d="M106.865,63.962c0-7.488,11.632-7.566,11.632-0.006c0,7.56-9.45,7.488-9.45,0"/>
			<path style="fill:none;stroke:#000000;" d="M109.027,63.962c0-7.488,11.68-7.566,11.632-0.006
				c-0.003,0.517,2.697,1.286,3.747,1.267c1.05-0.019,9.038-0.506,6.487-0.975c-2.55-0.469-2.4-0.206-2.4-0.206"/>
			<path style="fill:none;stroke:#000000;" d="M85.269,63.911c-0.113,0.712-8.888,0.562-8.888,0.562s-4.05-0.956,0.113-0.956"/>
		</g>
		<g>
			<path style="fill:none;stroke:#000000;stroke-width:0.5;" d="M1.384,49.673c4.315-0.802,8.231-1.543,9.25-1.882
				c1.019-0.339,2.517-1.048,3.03-0.915c0.514,0.133,2.1,1.2,2.496,1.576c0.396,0.376,3.531,2.446,3.85,2.693
				c0.32,0.247,1.64,0.862,2.154,2.474s0.774,2.938,0.718,3.582c-0.056,0.643-0.815,2.309-1.013,2.86
				c-0.197,0.551-0.36,1.605-0.671,1.962c-0.312,0.358-0.852,0.328-0.852,0.328"/>
			<path style="fill:none;stroke:#000000;stroke-width:0.5;" d="M0.098,57.831c1.628,0.695,2.944,1.747,3.998,1.91
				c1.053,0.163,2.981,0.332,3.685,0.788c0.704,0.456,3.591,1.366,4.397,1.848s2.218,0.957,2.72,0.922
				c0.501-0.035,1.145,0.022,1.631,0.257s1.936,0.774,2.297,0.648c0.361-0.126,1.304-0.595,1.383-0.903
				c0.08-0.308,0.086-1.183-0.461-1.817c-0.548-0.635-1.249-1.528-1.633-1.737c-0.384-0.208-2.039-0.8-2.59-0.998
				c-0.552-0.197-2.024-1.071-2.176-1.329c-0.152-0.259-1.386-2.056-1.386-2.056"/>
			<path style="fill:none;stroke:#000000;stroke-width:0.5;" d="M13.113,56.428c0,0,0.384-4.666,0.232-4.924"/>
			<path style="fill:none;stroke:#000000;stroke-width:0.5;" d="M13.704,53.294c0.868,0.882,2.291,1.523,2.64,1.23"/>
			<path style="fill:none;stroke:#000000;stroke-width:0.5;" d="M16.674,54.199c0.519,0.216,2.091,0.915,2.246,0.955
				c0.154,0.04,0.62,1.84,0.765,2.233c0.145,0.394,0.311,0.601,0.311,0.601s-1.201,1.36-1.191,1.746"/>
			<path style="fill:none;stroke:#000000;stroke-width:0.5;" d="M15.995,55.311c0.784,0.641,2.019,1.654,2.019,1.654l0.726,1.429"/>
			<line style="fill:none;stroke:#000000;stroke-width:0.5;" x1="16.667" y1="52.709" x2="16.65" y2="53.764"/>
			<line style="fill:none;stroke:#000000;stroke-width:0.5;" x1="19.317" y1="54.745" x2="19.705" y2="54.517"/>
			<line style="fill:none;stroke:#000000;stroke-width:0.5;" x1="20.674" y1="57.834" x2="20.296" y2="57.883"/>
			<polyline style="fill:none;stroke:#000000;stroke-width:0.5;" points="19.939,63.062 18.358,62.079 17.266,63.549 "/>
			<path style="fill:none;stroke:#000000;stroke-width:0.5;" d="M16.22,61.257c0,0,0.1,0.464-0.075,0.611"/>
			<polyline style="fill:none;stroke:#000000;stroke-width:0.5;" points="18.041,55.73 18.629,56.138 18.822,56.662 "/>
		</g>
		<g>
			<path style="fill:none;stroke:#000000;" d="M30.666,63.577c0-7.488,11.632-7.566,11.632-0.006c0,7.56-9.45,7.488-9.45,0"/>
			<path style="fill:none;stroke:#000000;" d="M32.826,63.577c0-7.488,11.632-7.566,11.632-0.006c0,7.56-9.45,7.488-9.45,0"/>
			<path style="fill:none;stroke:#000000;" d="M34.986,63.577c0-7.488,11.632-7.566,11.632-0.006c0,7.56-9.45,7.488-9.45,0"/>
			<path style="fill:none;stroke:#000000;" d="M37.146,63.577c0-7.488,11.632-7.566,11.632-0.006c0,7.56-9.45,7.488-9.45,0"/>
			<path style="fill:none;stroke:#000000;" d="M39.306,63.577c0-7.488,11.632-7.566,11.632-0.006c0,7.56-9.45,7.488-9.45,0"/>
			<path style="fill:none;stroke:#000000;" d="M41.465,63.577c0-7.488,11.632-7.566,11.632-0.006c0,7.56-9.45,7.488-9.45,0"/>
			<path style="fill:none;stroke:#000000;" d="M43.625,63.577c0-7.488,11.632-7.566,11.632-0.006c0,7.56-9.45,7.488-9.45,0"/>
			<path style="fill:none;stroke:#000000;" d="M45.786,63.577c0-7.488,11.632-7.566,11.632-0.006c0,7.56-9.45,7.488-9.45,0"/>
			<path style="fill:none;stroke:#000000;" d="M47.945,63.577c0-7.488,11.632-7.566,11.632-0.006c0,7.56-9.45,7.488-9.45,0"/>
			<path style="fill:none;stroke:#000000;" d="M50.105,63.577c0-7.488,11.632-7.566,11.632-0.006c0,7.56-9.45,7.488-9.45,0"/>
			<path style="fill:none;stroke:#000000;" d="M52.265,63.577c0-7.488,11.632-7.566,11.632-0.006c0,7.56-9.45,7.488-9.45,0"/>
			<path style="fill:none;stroke:#000000;" d="M54.427,63.577c0-7.488,11.68-7.566,11.632-0.006
				c-0.003,0.518,2.697,1.286,3.747,1.268c1.05-0.019,9.037-0.506,6.487-0.975s-2.4-0.207-2.4-0.207"/>
			<path style="fill:none;stroke:#000000;" d="M30.669,63.525c-0.112,0.712-8.887,0.562-8.887,0.562s-4.05-0.957,0.112-0.957"/>
		</g>
		<g>
			<rect x="127.884" y="0.049" style="fill:#FFFFFF;" width="8.644" height="48.675"/> 
			<g>
				<line style="fill:none;stroke:#000000;stroke-width:0.45;" x1="127.884" y1="0.049" x2="127.884" y2="48.648"/>
				<line style="fill:none;stroke:#000000;stroke-width:0.45;" x1="128.446" y1="5.28" x2="134.197" y2="0.168"/>
				<line style="fill:none;stroke:#000000;stroke-width:0.45;" x1="134.028" y1="46.405" x2="136.377" y2="44.317"/>
				<line style="fill:none;stroke:#000000;stroke-width:0.45;" x1="128.446" y1="11.02" x2="136.546" y2="3.82"/>
				<line style="fill:none;stroke:#000000;stroke-width:0.45;" x1="128.446" y1="16.76" x2="136.546" y2="9.56"/>
				<line style="fill:none;stroke:#000000;stroke-width:0.45;" x1="128.446" y1="22.5" x2="136.546" y2="15.3"/>
				<line style="fill:none;stroke:#000000;stroke-width:0.45;" x1="128.446" y1="28.24" x2="136.546" y2="21.041"/>
				<line style="fill:none;stroke:#000000;stroke-width:0.45;" x1="128.446" y1="33.98" x2="136.546" y2="26.78"/>
				<line style="fill:none;stroke:#000000;stroke-width:0.45;" x1="128.446" y1="39.721" x2="136.546" y2="32.521"/>
				<line style="fill:none;stroke:#000000;stroke-width:0.45;" x1="128.446" y1="45.46" x2="136.546" y2="38.261"/>
			</g>
		</g>
		<rect x="124.674" y="41.422" style="fill:#FFFFFF;" width="13" height="12.583"/> 
	</g>
</svg>
