<?xml version="1.0" encoding="iso-8859-1"?>
<!-- Generator: Adobe Illustrator 11 Build 196, SVG Export Plug-In . SVG Version: 6.0.0 Build 78)  -->
<!DOCTYPE svg PUBLIC "-//W3C//DTD SVG 1.0//EN"    "http://www.w3.org/TR/2001/REC-SVG-20010904/DTD/svg10.dtd" [
	<!ENTITY ns_flows "http://ns.adobe.com/Flows/1.0/">
	<!ENTITY ns_svg "http://www.w3.org/2000/svg">
	<!ENTITY ns_xlink "http://www.w3.org/1999/xlink">
]>
<svg  
	 width="150.824" height="51.914" viewBox="0 0 150.824 51.914" style="overflow:visible;enable-background:new 0 0 150.824 51.914"
	 xml:space="preserve">
	<style type="text/css">
	
	</style>
	<g id="Layer_1">
		<g>
			<path style="fill:#FFFFFF;stroke:#000000;stroke-width:0.5;" d="M75.586,49.037c0.987,0,1.88-0.109,2.578-0.283V37.511h-5.101
				v11.256C73.754,48.933,74.625,49.037,75.586,49.037z"/>
			<ellipse style="fill:#FFFFFF;stroke:#000000;stroke-width:0.5;" cx="75.568" cy="37.446" rx="2.604" ry="0.766"/> 
		</g>
		<g>
			<path style="fill:none;stroke:#000000;stroke-width:0.5;" d="M71.343,45.55c-4.568,0.483-7.773,1.614-7.773,2.932
				c0,1.757,5.699,3.182,12.728,3.182s12.728-1.425,12.728-3.182c0-1.291-3.077-2.403-7.497-2.901"/>
			<path d="M79.126,45.31c1.176-0.292,2.657-0.848,3.611-1.507l-0.897,1.813l0.47,1.967C81.528,46.729,80.208,45.856,79.126,45.31z"
				/>
		</g>
		<polygon style="fill:#FFFFFF;stroke:#000000;stroke-width:0.5;" points="118.188,40.818 150.288,2.545 32.636,2.545 0.536,40.818 
			"/>
		<ellipse style="fill:none;stroke:#000000;stroke-width:0.5;" cx="75.441" cy="21.681" rx="4.007" ry="1.178"/> 
		<g>
			<path style="fill:#FFFFFF;stroke:#000000;stroke-width:0.5;" d="M75.448,22.877c0.988,0,1.88-0.109,2.579-0.284V11.351h-5.101
				v11.256C73.616,22.773,74.487,22.877,75.448,22.877z"/>
			<ellipse style="fill:#FFFFFF;stroke:#000000;stroke-width:0.5;" cx="75.43" cy="11.287" rx="2.604" ry="0.766"/> 
		</g>
		<path style="fill:none;stroke:#000000;stroke-width:0.5;" d="M98.181,18.235L80.63,17.26c0,0-5.966,1.507-7.917-0.443
			c0,0-0.312-0.875-0.062-0.875"/>
		<g>
			<polygon style="fill:#FFFFFF;stroke:#000000;stroke-width:0.5;" points="109.848,12.83 109.848,21.207 106.796,24.259 
				106.796,15.881 "/>
			<polygon style="fill:#FFFFFF;stroke:#000000;stroke-width:0.5;" points="107.099,15.473 109.829,12.743 98.779,12.743 
				96.049,15.473 "/>
			<rect x="95.826" y="15.509" style="fill:#FFFFFF;stroke:#000000;stroke-width:0.5;" width="11.05" height="8.673"/> 
		</g>
		<g>
			<polygon style="fill:#FFFFFF;stroke:#000000;stroke-width:0.5;" points="133.021,13.388 133.021,20.089 130.579,22.531 
				130.579,15.829 "/>
			<polygon style="fill:#FFFFFF;stroke:#000000;stroke-width:0.5;" points="130.821,15.501 133.005,13.318 124.166,13.318 
				121.981,15.501 "/>
			<rect x="121.803" y="15.531" style="fill:#FFFFFF;stroke:#000000;stroke-width:0.5;" width="8.84" height="6.939"/> 
		</g>
		<line style="fill:none;stroke:#000000;stroke-width:0.5;" x1="80.63" y1="17.26" x2="78.214" y2="15.96"/>
		<line style="fill:none;stroke:#000000;stroke-width:0.5;" x1="108.322" y1="18.544" x2="121.355" y2="18.235"/>
		<g>
			<text transform="matrix(1 0 0 1 82.4429 14.062)"><tspan x="0" y="0" style="font-family:Liberation Sans; font-size:7.650000;">L</tspan></text>
			<text transform="matrix(1 0 0 1 87.4482 17.062)"><tspan x="0" y="0" style="font-family:Liberation Sans; font-size:6.800000;">1</tspan></text>
		</g>
		<g>
			<text transform="matrix(1 0 0 1 111.3276 13.6123)"><tspan x="0" y="0" style="font-family:Liberation Sans; font-size:7.650000;">L</tspan></text>
			<text transform="matrix(1 0 0 1 116.333 16.6123)"><tspan x="0" y="0" style="font-family:Liberation Sans; font-size:6.800000;">2</tspan></text>
		</g>
		<g>
			<text transform="matrix(1 0 0 1 96.8843 9)"><tspan x="0" y="0" style="font-family:Liberation Sans; font-size:7.650000;">m</tspan></text>
			<text transform="matrix(1 0 0 1 104.3813 12)"><tspan x="0" y="0" style="font-family:Liberation Sans; font-size:6.800000;">1</tspan></text>
		</g>
		<g>
			<text transform="matrix(1 0 0 1 124.3052 9)"><tspan x="0" y="0" style="font-family:Liberation Sans; font-size:7.650000;">m</tspan></text>
			<text transform="matrix(1 0 0 1 131.8022 12)"><tspan x="0" y="0" style="font-family:Liberation Sans; font-size:6.800000;">2</tspan></text>
		</g>
	</g>
</svg>
