<?xml version="1.0" encoding="iso-8859-1"?>
<!-- Generator: Adobe Illustrator 11 Build 196, SVG Export Plug-In . SVG Version: 6.0.0 Build 78)  -->
<!DOCTYPE svg PUBLIC "-//W3C//DTD SVG 1.0//EN"    "http://www.w3.org/TR/2001/REC-SVG-20010904/DTD/svg10.dtd" [
	<!ENTITY ns_flows "http://ns.adobe.com/Flows/1.0/">
	<!ENTITY ns_svg "http://www.w3.org/2000/svg">
	<!ENTITY ns_xlink "http://www.w3.org/1999/xlink">
]>
<svg  
	 width="119.26" height="30.438" viewBox="0 0 119.26 30.438" style="overflow:visible;enable-background:new 0 0 119.26 30.438"
	 xml:space="preserve">
	<g id="Layer_1">
		<g>
			<circle style="fill:none;stroke:#000000;stroke-width:0.5;" cx="6.85" cy="15.1" r="0.796"/> 
			<circle style="fill:none;stroke:#000000;stroke-width:0.5;" cx="9.165" cy="17.64" r="0.796"/> 
			<circle style="fill:none;stroke:#000000;stroke-width:0.5;" cx="10.943" cy="19.948" r="0.796"/> 
			<circle style="fill:none;stroke:#000000;stroke-width:0.5;" cx="12.36" cy="22.174" r="0.796"/> 
			<circle style="fill:none;stroke:#000000;stroke-width:0.5;" cx="13.43" cy="24.23" r="0.795"/> 
			<circle style="fill:none;stroke:#000000;stroke-width:0.5;" cx="14.156" cy="25.958" r="0.795"/> 
			<circle style="fill:none;stroke:#000000;stroke-width:0.5;" cx="14.654" cy="27.331" r="0.796"/> 
			<circle style="fill:none;stroke:#000000;stroke-width:0.5;" cx="14.841" cy="28.419" r="0.159"/> 
			<circle style="fill:none;stroke:#000000;stroke-width:0.5;" cx="14.878" cy="28.197" r="0.796"/> 
			<circle style="fill:none;stroke:#000000;stroke-width:0.5;" cx="14.942" cy="29.274" r="0.795"/> 
			<circle style="fill:none;stroke:#000000;stroke-width:0.5;" cx="1.046" cy="10.252" r="0.795"/> 
			<circle style="fill:none;stroke:#000000;stroke-width:0.5;" cx="4.159" cy="12.639" r="0.796"/> 
			<g>
				<circle style="fill:none;stroke:#000000;stroke-width:0.5;" cx="23.098" cy="15.219" r="0.795"/> 
				<circle style="fill:none;stroke:#000000;stroke-width:0.5;" cx="20.784" cy="17.759" r="0.796"/> 
				<circle style="fill:none;stroke:#000000;stroke-width:0.5;" cx="19.005" cy="20.066" r="0.795"/> 
				<circle style="fill:none;stroke:#000000;stroke-width:0.5;" cx="17.588" cy="22.293" r="0.796"/> 
				<circle style="fill:none;stroke:#000000;stroke-width:0.5;" cx="16.519" cy="24.348" r="0.795"/> 
				<circle style="fill:none;stroke:#000000;stroke-width:0.5;" cx="15.792" cy="26.076" r="0.796"/> 
				<circle style="fill:none;stroke:#000000;stroke-width:0.5;" cx="15.293" cy="27.449" r="0.796"/> 
				<circle style="fill:none;stroke:#000000;stroke-width:0.5;" cx="15.106" cy="28.537" r="0.159"/> 
				<circle style="fill:none;stroke:#000000;stroke-width:0.5;" cx="15.07" cy="28.315" r="0.796"/> 
				<circle style="fill:none;stroke:#000000;stroke-width:0.5;" cx="15.006" cy="29.392" r="0.795"/> 
				<circle style="fill:none;stroke:#000000;stroke-width:0.5;" cx="59.646" cy="1.045" r="0.796"/> 
				<circle style="fill:none;stroke:#000000;stroke-width:0.5;" cx="54.603" cy="1.261" r="0.796"/> 
				<circle style="fill:none;stroke:#000000;stroke-width:0.5;" cx="49.742" cy="1.9" r="0.795"/> 
				<circle style="fill:none;stroke:#000000;stroke-width:0.5;" cx="45.029" cy="2.944" r="0.796"/> 
				<circle style="fill:none;stroke:#000000;stroke-width:0.5;" cx="40.532" cy="4.38" r="0.795"/> 
				<circle style="fill:none;stroke:#000000;stroke-width:0.5;" cx="36.259" cy="6.108" r="0.796"/> 
				<circle style="fill:none;stroke:#000000;stroke-width:0.5;" cx="32.42" cy="8.18" r="0.796"/> 
				<circle style="fill:none;stroke:#000000;stroke-width:0.5;" cx="28.902" cy="10.371" r="0.796"/> 
				<circle style="fill:none;stroke:#000000;stroke-width:0.5;" cx="25.789" cy="12.757" r="0.796"/> 
				<circle style="fill:none;stroke:#000000;stroke-width:0.5;" cx="96.215" cy="15.219" r="0.795"/> 
				<circle style="fill:none;stroke:#000000;stroke-width:0.5;" cx="98.529" cy="17.759" r="0.796"/> 
				<circle style="fill:none;stroke:#000000;stroke-width:0.5;" cx="100.308" cy="20.066" r="0.796"/> 
				<circle style="fill:none;stroke:#000000;stroke-width:0.5;" cx="101.725" cy="22.293" r="0.796"/> 
				<circle style="fill:none;stroke:#000000;stroke-width:0.5;" cx="102.794" cy="24.348" r="0.795"/> 
				<circle style="fill:none;stroke:#000000;stroke-width:0.5;" cx="103.521" cy="26.076" r="0.796"/> 
				<circle style="fill:none;stroke:#000000;stroke-width:0.5;" cx="104.019" cy="27.449" r="0.796"/> 
				<circle style="fill:none;stroke:#000000;stroke-width:0.5;" cx="104.206" cy="28.537" r="0.159"/> 
				<circle style="fill:none;stroke:#000000;stroke-width:0.5;" cx="104.243" cy="28.315" r="0.796"/> 
				<circle style="fill:none;stroke:#000000;stroke-width:0.5;" cx="104.307" cy="29.392" r="0.795"/> 
				<circle style="fill:none;stroke:#000000;stroke-width:0.5;" cx="64.71" cy="1.261" r="0.796"/> 
				<circle style="fill:none;stroke:#000000;stroke-width:0.5;" cx="69.57" cy="1.9" r="0.795"/> 
				<circle style="fill:none;stroke:#000000;stroke-width:0.5;" cx="74.283" cy="2.944" r="0.796"/> 
				<circle style="fill:none;stroke:#000000;stroke-width:0.5;" cx="78.781" cy="4.38" r="0.795"/> 
				<circle style="fill:none;stroke:#000000;stroke-width:0.5;" cx="83.054" cy="6.108" r="0.795"/> 
				<circle style="fill:none;stroke:#000000;stroke-width:0.5;" cx="86.893" cy="8.18" r="0.796"/> 
				<circle style="fill:none;stroke:#000000;stroke-width:0.5;" cx="90.411" cy="10.371" r="0.796"/> 
				<circle style="fill:none;stroke:#000000;stroke-width:0.5;" cx="93.524" cy="12.757" r="0.795"/> 
			</g>
			<circle style="fill:none;stroke:#000000;stroke-width:0.5;" cx="112.41" cy="15.344" r="0.795"/> 
			<circle style="fill:none;stroke:#000000;stroke-width:0.5;" cx="110.096" cy="17.884" r="0.796"/> 
			<circle style="fill:none;stroke:#000000;stroke-width:0.5;" cx="108.317" cy="20.191" r="0.795"/> 
			<circle style="fill:none;stroke:#000000;stroke-width:0.5;" cx="106.901" cy="22.418" r="0.796"/> 
			<circle style="fill:none;stroke:#000000;stroke-width:0.5;" cx="105.831" cy="24.473" r="0.795"/> 
			<circle style="fill:none;stroke:#000000;stroke-width:0.5;" cx="105.104" cy="26.201" r="0.796"/> 
			<circle style="fill:none;stroke:#000000;stroke-width:0.5;" cx="104.606" cy="27.574" r="0.795"/> 
			<circle style="fill:none;stroke:#000000;stroke-width:0.5;" cx="104.419" cy="28.662" r="0.159"/> 
			<circle style="fill:none;stroke:#000000;stroke-width:0.5;" cx="104.383" cy="28.44" r="0.796"/> 
			<circle style="fill:none;stroke:#000000;stroke-width:0.5;" cx="118.215" cy="10.496" r="0.796"/> 
			<circle style="fill:none;stroke:#000000;stroke-width:0.5;" cx="115.101" cy="12.882" r="0.796"/> 
		</g>
	</g>
</svg>
