<?xml version="1.0" encoding="UTF-8" standalone="no"?>
<!-- Generator: Adobe Illustrator 11 Build 196, SVG Export Plug-In . SVG Version: 6.0.0 Build 78)  -->

<svg
   xmlns:dc="http://purl.org/dc/elements/1.1/"
   xmlns:cc="http://creativecommons.org/ns#"
   xmlns:rdf="http://www.w3.org/1999/02/22-rdf-syntax-ns#"
   xmlns:svg="http://www.w3.org/2000/svg"
   xmlns="http://www.w3.org/2000/svg"
   xmlns:sodipodi="http://sodipodi.sourceforge.net/DTD/sodipodi-0.dtd"
   xmlns:inkscape="http://www.inkscape.org/namespaces/inkscape"
   width="115.573"
   height="265.021"
   viewBox="0 0 115.573 265.021"
   style="overflow:visible;enable-background:new 0 0 115.573 265.021"
   xml:space="preserve"
   id="svg2"
   version="1.1"
   sodipodi:docname="hw-cross-river.svg"><metadata
     id="metadata83"><rdf:RDF><cc:Work
         rdf:about=""><dc:format>image/svg+xml</dc:format><dc:type
           rdf:resource="http://purl.org/dc/dcmitype/StillImage" /><dc:title></dc:title></cc:Work></rdf:RDF></metadata><defs
     id="defs81" /><sodipodi:namedview
     pagecolor="#ffffff"
     bordercolor="#666666"
     borderopacity="1"
     objecttolerance="10"
     gridtolerance="10"
     guidetolerance="10"
     inkscape:pageopacity="0"
     inkscape:pageshadow="2"
     inkscape:window-width="1280"
     inkscape:window-height="998"
     id="namedview79"
     showgrid="false"
     inkscape:zoom="2.716531"
     inkscape:cx="16.580842"
     inkscape:cy="119.89405"
     inkscape:window-x="0"
     inkscape:window-y="0"
     inkscape:window-maximized="1"
     inkscape:current-layer="svg2" /><style
     type="text/css"
     id="style4" /><rect
     y="0"
     id="rect7"
     height="29.25"
     width="171.82184"
     style="fill:#80d092"
     x="-56.248833" /><rect
     id="rect9"
     height="29.25"
     width="171.82184"
     style="fill:#80d092"
     y="170.312"
     x="-56.248833" /><rect
     id="rect11"
     height="146.24899"
     width="171.82184"
     style="fill:#d9f1f7"
     y="25.875999"
     x="-56.248833" /><line
     id="line13"
     y2="25.875999"
     x2="114.073"
     y1="25.875999"
     x1="-55.84491"
     style="fill:none;stroke:#000000;stroke-width:0.875;stroke-miterlimit:4;stroke-dasharray:none" /><line
     id="line15"
     y2="172.062"
     x2="113.9642"
     y1="172.062"
     x1="-55.953716"
     style="fill:none;stroke:#000000;stroke-width:0.875;stroke-miterlimit:4;stroke-dasharray:none" /><path
     inkscape:connector-curvature="0"
     id="path17"
     d="m 50.407,156.521 c 0,0 -3.776,2.296 0.078,12.883 0.338,0.93 0.622,1.708 0.861,2.367 l 7.737,-2.815 c -0.273,-0.75 -0.604,-1.659 -1.01,-2.774 -4.002,-10.994 -7.666,-9.661 -7.666,-9.661 z"
     style="fill:#b3571b;stroke:#000000" /><g
     id="g19"
     transform="translate(8,0)"><line
       id="line21"
       y2="110.446"
       x2="25.118"
       y1="158.37"
       x1="42.561001"
       style="fill:none;stroke:#000000" /><path
       inkscape:connector-curvature="0"
       id="path23"
       d="m 23.879,107.043 c 1.177,1.385 2.914,3.002 4.435,3.843 l -3.034,0.006 -2.328,1.945 c 0.626,-1.621 0.916,-3.977 0.927,-5.794 z" /></g><text
     id="text25"
     x="23.9062"
     y="102.5"><tspan
       id="tspan27"
       style="font-size:7.6500001px;font-family:'Liberation Sans-Bold'"
       y="102.5"
       x="23.9062">v</tspan><tspan
       id="tspan29"
       style="font-size:5.94999981px;font-family:'Liberation Sans'"
       y="105.5"
       x="28.9112">BW</tspan></text>
<text
     id="text31"
     x="53.016602"
     y="70.941399"><tspan
       id="tspan33"
       style="font-size:7.6500001px;font-family:'Liberation Sans-Bold'"
       y="70.941399"
       x="53.016602">v</tspan><tspan
       id="tspan35"
       style="font-size:5.94999981px;font-family:'Liberation Sans'"
       y="73.941399"
       x="58.021599">WL</tspan></text>
<g
     id="g37"
     transform="translate(8,0)"><line
       id="line39"
       y2="68.5"
       x2="73.405998"
       y1="68.5"
       x1="60.905998"
       style="fill:none;stroke:#000000" /><path
       inkscape:connector-curvature="0"
       id="path41"
       d="m 77.027,68.5 c -1.704,0.632 -3.818,1.711 -5.128,2.853 L 72.931,68.5 71.899,65.647 c 1.31,1.142 3.425,2.221 5.128,2.853 z" /></g><rect
     id="rect43"
     height="18"
     width="8.5"
     style="fill:#c57e2a"
     y="19"
     x="49.737999" /><path
     inkscape:connector-curvature="0"
     id="path45"
     d="m 44.906,141.5 c 3.5,-2 6.562,-1.75 8.062,-1.75"
     style="fill:none;stroke:#000000" /><g
     id="g47"
     transform="translate(8,0)"><text
       id="text49"
       transform="translate(38.4062,133.5)"><tspan
         id="tspan51"
         style="font-size:7px;font-family:Symbol"
         y="0"
         x="0">θ</tspan></text>
</g><line
     id="line53"
     y2="156.5"
     x2="53.405998"
     y1="129.5"
     x1="53.405998"
     style="fill:none;stroke:#000000;stroke-width:0.5;stroke-dasharray:2" /><g
     id="g55"
     transform="translate(-77.034922,-141.72487)"><line
       id="line57"
       y2="226.558"
       x2="38.823002"
       y1="256.55801"
       x1="38.823002"
       style="stroke:#000000" /><path
       inkscape:connector-curvature="0"
       id="path59"
       d="m 38.823,220.523 c 1.054,2.84 2.852,6.363 4.755,8.547 l -4.755,-1.72 -4.754,1.72 c 1.903,-2.184 3.701,-5.707 4.754,-8.547 z" /></g><g
     id="g61"
     transform="translate(-77.034922,-141.72487)"><line
       id="line63"
       y2="256.55801"
       x2="68.947998"
       y1="256.55801"
       x1="38.948002"
       style="stroke:#000000" /><path
       inkscape:connector-curvature="0"
       id="path65"
       d="m 74.983,256.558 c -2.839,1.054 -6.363,2.852 -8.546,4.755 l 1.72,-4.755 -1.72,-4.754 c 2.183,1.903 5.707,3.701 8.546,4.754 z" /></g><g
     id="g67"
     transform="translate(-77.034922,-141.72487)"><text
       id="text69"
       transform="translate(78.8228,260.5576)"><tspan
         id="tspan71"
         style="font-size:8.5px;font-family:'Liberation Sans'"
         y="0"
         x="0">x</tspan></text>
</g><g
     id="g73"
     transform="translate(-77.034922,-141.72487)"><text
       id="text75"
       transform="translate(35.4897,215.8916)"><tspan
         id="tspan77"
         style="font-size:8.5px;font-family:'Liberation Sans'"
         y="0"
         x="0">y</tspan></text>
</g></svg>