<?xml version="1.0" encoding="UTF-8" standalone="no"?>
<!-- Created with Inkscape (http://www.inkscape.org/) -->

<svg
   xmlns:dc="http://purl.org/dc/elements/1.1/"
   xmlns:cc="http://creativecommons.org/ns#"
   xmlns:rdf="http://www.w3.org/1999/02/22-rdf-syntax-ns#"
   xmlns:svg="http://www.w3.org/2000/svg"
   xmlns="http://www.w3.org/2000/svg"
   xmlns:sodipodi="http://sodipodi.sourceforge.net/DTD/sodipodi-0.dtd"
   xmlns:inkscape="http://www.inkscape.org/namespaces/inkscape"
   width="744.09448819"
   height="1052.3622047"
   id="svg2"
   version="1.1"
   sodipodi:docname="hw-crevasse.svg">
  <defs
     id="defs4">
    <inkscape:perspective
       sodipodi:type="inkscape:persp3d"
       inkscape:vp_x="0 : 526.18109 : 1"
       inkscape:vp_y="0 : 1000 : 0"
       inkscape:vp_z="744.09448 : 526.18109 : 1"
       inkscape:persp3d-origin="372.04724 : 350.78739 : 1"
       id="perspective10" />
    <inkscape:perspective
       id="perspective3622"
       inkscape:persp3d-origin="0.5 : 0.33333333 : 1"
       inkscape:vp_z="1 : 0.5 : 1"
       inkscape:vp_y="0 : 1000 : 0"
       inkscape:vp_x="0 : 0.5 : 1"
       sodipodi:type="inkscape:persp3d" />
    <inkscape:perspective
       id="perspective2849"
       inkscape:persp3d-origin="0.5 : 0.33333333 : 1"
       inkscape:vp_z="1 : 0.5 : 1"
       inkscape:vp_y="0 : 1000 : 0"
       inkscape:vp_x="0 : 0.5 : 1"
       sodipodi:type="inkscape:persp3d" />
  </defs>
  <sodipodi:namedview
     id="base"
     pagecolor="#ffffff"
     bordercolor="#666666"
     borderopacity="1.0"
     inkscape:pageopacity="0.0"
     inkscape:pageshadow="2"
     inkscape:zoom="1.0897012"
     inkscape:cx="230.2897"
     inkscape:cy="921.70192"
     inkscape:document-units="mm"
     inkscape:current-layer="layer1"
     showgrid="false"
     inkscape:window-width="1440"
     inkscape:window-height="872"
     inkscape:window-x="0"
     inkscape:window-y="0"
     inkscape:window-maximized="1" />
  <metadata
     id="metadata7">
    <rdf:RDF>
      <cc:Work
         rdf:about="">
        <dc:format>image/svg+xml</dc:format>
        <dc:type
           rdf:resource="http://purl.org/dc/dcmitype/StillImage" />
        <dc:title />
      </cc:Work>
    </rdf:RDF>
  </metadata>
  <g
     inkscape:label="Layer 1"
     inkscape:groupmode="layer"
     id="layer1">
    <rect
       style="fill:#dedede;fill-opacity:1;fill-rule:evenodd;stroke:none"
       id="rect2816"
       width="184.25197"
       height="200"
       x="48.925983"
       y="89.65625" />
    <g
       id="g3666">
      <path
         transform="translate(-130.41233,-84.529777)"
         d="m 206.5507,211.55826 a 1.6956123,1.3502098 0 1 1 -3.39123,0 1.6956123,1.3502098 0 1 1 3.39123,0 z"
         sodipodi:ry="1.3502098"
         sodipodi:rx="1.6956123"
         sodipodi:cy="211.55826"
         sodipodi:cx="204.85509"
         id="path3597-4"
         style="fill:#b9b9b9;fill-opacity:1;stroke:#000000;stroke-width:0.625;stroke-miterlimit:4;stroke-opacity:1;stroke-dasharray:none"
         sodipodi:type="arc" />
      <path
         id="path3656"
         d="m 76.106981,126.14474 c 1.614002,-0.15131 7.31345,-0.75656 7.71695,-0.60525 0.403501,0.15131 4.236757,2.16881 4.236757,2.16881 l 6.355134,0.60525 -0.403497,1.21051"
         style="fill:none;stroke:#000000;stroke-width:1;stroke-linecap:butt;stroke-linejoin:miter;stroke-miterlimit:4;stroke-opacity:1;stroke-dasharray:none" />
      <path
         id="path3658"
         d="m 87.051458,127.29458 -1.022889,1.96054 5.540647,1.61957 0,0"
         style="fill:none;stroke:#000000;stroke-width:1px;stroke-linecap:butt;stroke-linejoin:miter;stroke-opacity:1" />
      <path
         id="path3660"
         d="m 77.334016,126.10122 4.432518,-3.40963 1.960536,3.23914"
         style="fill:none;stroke:#000000;stroke-width:1px;stroke-linecap:butt;stroke-linejoin:miter;stroke-opacity:1" />
      <path
         id="path3662"
         d="m 85.090921,125.67501 -8.950275,3.32439"
         style="fill:none;stroke:#000000;stroke-width:1px;stroke-linecap:butt;stroke-linejoin:miter;stroke-opacity:1" />
      <path
         id="path3664"
         d="m 75.884924,127.97651 0.767166,1.70481"
         style="fill:none;stroke:#000000;stroke-width:1px;stroke-linecap:butt;stroke-linejoin:miter;stroke-opacity:1" />
    </g>
    <path
       style="fill:#ffffff;fill-opacity:1;stroke:none"
       d="m 77.15625,129.60278 c 0,0 -15.511893,1.45333 -24.71875,0.96875 l -1.9375,1.9375 -1.9375,0 0,157.5 151.6875,0 0.46875,0 c 0,0 1.95293,-11.16972 2.4375,-16.5 0.48457,-5.33029 -2.42168,-18.40389 -2.90625,-24.21875 l 0,-0.1875 -4.875,-2.4375 -1.03125,-9.1875 -1.34375,-5.125 0,-9.875 -1.375,-4.78125 3.75,-9.53125 c 0,0 3.83497,-2.95205 4.875,-3.75 l 0,-10.375 c 0.48457,-4.36114 1.4375,-6.76425 1.4375,-10.15625 0,-3.392 -0.46875,-9.20215 -0.46875,-11.625 0,-1.00952 -0.44296,-2.12712 -0.96875,-3.375 l 0,-12.4375 c 0.74466,-1.10075 1.4375,-2.02294 1.4375,-2.625 0,-1.45371 0.96954,-9.66972 -0.96875,-15 -0.18171,-0.49971 -0.31951,-0.95724 -0.46875,-1.40625 l 0,-4.90625 -1.28125,0 c -0.14776,-0.90816 -0.1875,-1.4375 -0.1875,-1.4375 0,0 -5.81093,-0.48458 -9.6875,0 -3.87657,0.48457 -7.27693,0.95332 -17.9375,0.46875 -10.66058,-0.48457 -10.18435,0.0158 -17.9375,-0.46875 -7.75314,-0.48458 -9.18632,-0.48418 -12.09375,-0.96875 -2.90743,-0.48457 -11.1535,1.4375 -17.9375,1.4375 -6.784,0 -12.59021,1.46914 -21.3125,0.5 -8.722284,-0.96914 -10.1705,-0.5 -13.5625,-0.5 -3.392,0 -11.15625,-1.9375 -11.15625,-1.9375 z"
       id="rect3590" />
    <g
       id="g3607"
       transform="translate(-8.0415904,4.0925951)">
      <path
         d="m 206.5507,211.55826 c 0,0.7457 -0.75915,1.35021 -1.69561,1.35021 -0.93646,0 -1.69562,-0.60451 -1.69562,-1.35021 0,-0.7457 0.75916,-1.35021 1.69562,-1.35021 0.93646,0 1.69561,0.60451 1.69561,1.35021 z"
         sodipodi:ry="1.3502098"
         sodipodi:rx="1.6956123"
         sodipodi:cy="211.55826"
         sodipodi:cx="204.85509"
         id="path3597"
         style="fill:#b9b9b9;fill-opacity:1;stroke:#000000;stroke-width:0.625;stroke-miterlimit:4;stroke-opacity:1;stroke-dasharray:none"
         sodipodi:type="arc" />
      <path
         id="path3599"
         d="m 206.6763,211.52686 c 2.70042,-0.3768 8.28966,-0.8792 8.28966,-0.8792 l 5.40084,2.44921"
         style="fill:none;stroke:#000000;stroke-width:1px;stroke-linecap:butt;stroke-linejoin:miter;stroke-opacity:1" />
      <path
         id="path3601"
         d="m 214.65196,210.71046 4.64724,-0.75361 2.19801,1.75841"
         style="fill:none;stroke:#000000;stroke-width:1px;stroke-linecap:butt;stroke-linejoin:miter;stroke-opacity:1" />
      <path
         id="path3603"
         d="m 208.49752,211.58966 c 0,0 -0.314,3.89363 -0.69081,4.08203 -0.3768,0.1884 -2.57482,1.88402 -2.57482,1.88402"
         style="fill:none;stroke:#000000;stroke-width:1px;stroke-linecap:butt;stroke-linejoin:miter;stroke-opacity:1" />
      <path
         id="path3605"
         d="m 208.49752,210.83606 0.2512,-2.13522 -1.06761,-2.70042"
         style="fill:none;stroke:#000000;stroke-width:1px;stroke-linecap:butt;stroke-linejoin:miter;stroke-opacity:1" />
    </g>
    <path
       style="fill:none;stroke:#000000;stroke-width:1px;stroke-linecap:butt;stroke-linejoin:miter;stroke-opacity:1"
       d="m 84.217831,124.94315 115.245449,5.11445 1.70482,2.04577 3.96391,82.78323"
       id="path3674"
       sodipodi:nodetypes="cccc" />
    <text
       xml:space="preserve"
       style="font-size:10px;font-style:normal;font-weight:normal;fill:#000000;fill-opacity:1;stroke:none;font-family:Liberation Sans"
       x="78.762428"
       y="118.12389"
       id="text3676"><tspan
         sodipodi:role="line"
         id="tspan3678"
         x="78.762428"
         y="118.12389">m</tspan></text>
    <text
       xml:space="preserve"
       style="font-size:10px;font-style:normal;font-weight:normal;fill:#000000;fill-opacity:1;stroke:none;font-family:Liberation Sans"
       x="206.46117"
       y="230.28369"
       id="text3680"><tspan
         sodipodi:role="line"
         id="tspan3682"
         x="206.46117"
         y="230.28369">M</tspan></text>
    <text
       xml:space="preserve"
       style="font-size:10px;font-style:normal;font-weight:normal;fill:#000000;fill-opacity:1;stroke:none;font-family:Liberation Sans"
       x="70.076714"
       y="140.21606"
       id="text3687"><tspan
         sodipodi:role="line"
         id="tspan3689"
         x="70.076714"
         y="140.21606">μ</tspan></text>
    <text
       xml:space="preserve"
       style="font-size:40px;font-style:normal;font-weight:normal;fill:#000000;fill-opacity:1;stroke:none;font-family:Liberation Sans"
       x="76.395111"
       y="143.08807"
       id="text3691"><tspan
         sodipodi:role="line"
         id="tspan3693"
         x="76.395111"
         y="143.08807"
         style="font-size:9px">k</tspan></text>
    <path
       style="fill:#ffffff;fill-opacity:1;fill-rule:evenodd;stroke:none"
       d="m 229.4087,126.65421 c -0.28667,0.0478 -0.29805,0.24639 -1.0625,0.4375 -1.5289,0.38223 -2.28125,3.4375 -2.28125,3.4375 l -4.21875,0.375 c 0,0 0.002,4.96858 1.53125,9.9375 1.5289,4.96893 -0.36777,5.71622 -0.75,9.15625 -0.38222,3.44003 -0.0144,6.52385 0.75,11.87501 0.76445,5.35116 1.15625,9.15842 1.15625,15.65625 0,6.49783 -0.7836,9.57425 -2.3125,17.21875 -1.5289,7.64451 -0.375,12.20394 -0.375,22.90625 0,10.7023 1.14903,9.56937 1.53125,19.125 0.38223,9.55563 1.54082,9.94202 2.6875,17.96875 1.14668,8.02673 -0.7668,13.74007 -1.53125,22.53125 -0.4284,4.92659 0.24337,8.6648 1.4375,12.46875 l 7.375,0 0,-161.84376 c -0.45704,-0.45888 -0.86649,-0.7483 -1.1875,-0.8125 -1.91113,-0.38223 -2.46333,-0.48528 -2.75,-0.4375 z"
       id="rect2816-8" />
  </g>
</svg>
