<?xml version="1.0" encoding="iso-8859-1"?>
<!-- Generator: Adobe Illustrator 11 Build 196, SVG Export Plug-In . SVG Version: 6.0.0 Build 78)  -->
<!DOCTYPE svg PUBLIC "-//W3C//DTD SVG 1.0//EN"    "http://www.w3.org/TR/2001/REC-SVG-20010904/DTD/svg10.dtd" [
	<!ENTITY ns_flows "http://ns.adobe.com/Flows/1.0/">
	<!ENTITY ns_svg "http://www.w3.org/2000/svg">
	<!ENTITY ns_xlink "http://www.w3.org/1999/xlink">
]>
<svg  
	 width="147.404" height="116.097" viewBox="0 0 147.404 116.097"
	 style="overflow:visible;enable-background:new 0 0 147.404 116.097" xml:space="preserve">
	<g id="Layer_1">
		<g>
			<path style="fill:none;stroke:#000000;stroke-width:0.5;" d="M106.013,30.696l0.414-9.106l-2.069-6.002
				c0,0-1.656-3.312-3.104-4.139C99.804,10.621,95.458,10,91.111,9.586c0,0,0.414-7.451,10.762-8.899
				c10.349-1.449,14.488,1.035,16.35,2.69c1.863,1.656,4.554,7.244,5.174,9.935c0.621,2.69,0.621,11.59,0.414,13.66
				c-0.207,2.069-1.656,7.864-1.656,7.864l0.621,7.244l2.69,9.521l2.276,9.313l0.828,7.865l-15.315-0.621"/>
			<polyline style="fill:none;stroke:#000000;stroke-width:0.5;" points="103.115,31.524 99.597,32.559 97.32,33.801 94.836,36.905 
				92.146,38.354 88.627,38.354 83.867,38.975 76.209,37.319 73.105,36.905 72.691,40.424 71.449,43.942 70.208,44.77 "/>
			<polyline style="fill:none;stroke:#000000;stroke-width:0.5;" points="98.355,36.284 92.56,42.286 89.869,45.184 84.488,45.805 
				78.486,45.805 71.242,45.805 69.173,45.805 67.724,50.772 68.345,54.704 68.552,55.946 72.898,56.153 84.281,58.637 
				88.213,57.809 97.527,56.36 102.494,52.014 108.91,49.116 "/>
			<path style="fill:none;stroke:#000000;stroke-width:0.5;" d="M129.399,70.227c0.828,2.07,1.648,3.547,1.027,5.409
				c-0.621,1.863,0.317,2.758-2.167,4c-2.483,1.242-11,1.5-11,1.5l-13.167,0.333c0,0-27.961-0.744-39.275-0.314"/>
			<polyline style="fill:none;stroke:#000000;stroke-width:0.5;" points="63.783,69.309 71.036,68.571 78.9,66.708 85.523,64.639 
				94.215,63.811 101.459,63.397 "/>
			<polyline style="fill:none;stroke:#000000;stroke-width:0.5;" points="96.492,57.809 96.492,61.327 90.49,60.913 83.66,60.085 
				76.831,61.741 67.103,62.569 60.063,64.629 "/>
			<path style="fill:none;stroke:#000000;stroke-width:0.5;" d="M56.341,68.985c0,0-2.069,0.207-3.104-0.828
				c-1.035-1.035-1.862-3.104-2.483-4.346c-0.621-1.242-1.449-2.897-1.863-3.932s0-3.726-1.449-4.553s-2.276-1.035-3.726-1.449
				c-1.449-0.414-2.69,0-2.69,0l-1.242,8.899L38.956,74.78v8.486l2.897,0.414l6.416-0.621l9.728,0.414l3.519-0.828l2.483-0.207
				c0,0-0.207-12.211-1.035-13.867C62.136,66.915,56.341,68.985,56.341,68.985z"/>
			<path style="fill:none;stroke:#000000;stroke-width:0.5;" d="M61.308,66.294c-0.414-1.863-1.242-2.897-1.242-2.897l-2.69,0.414
				l-3.726,0.207l-2.897-5.588c0,0-0.621-3.312-1.656-4.139c-1.035-0.828-4.553-1.863-4.553-1.863h-1.656"/>
			<path style="fill:none;stroke:#000000;stroke-width:0.5;" d="M103.736,63.397c1.242,0.207,4.346,1.656,4.967,2.069
				c0.621,0.414,4.76,4.553,4.76,4.553"/>
			<path style="fill:none;stroke:#000000;stroke-width:0.5;" d="M91.525,10.828c-0.207,2.001-0.414,2.829-0.207,3.45"/>
			<path style="fill:none;stroke:#000000;stroke-width:0.5;" d="M93.457,10.759c0,0.966-0.414,2.553-0.207,3.104
				s0.207,0.69,0.207,0.69s2.967-6.623,2.277-3.794"/>
			<path style="fill:none;stroke:#000000;stroke-width:0.5;" d="M97.389,11.035c-0.069,1.725,0.138,2.897,0.138,2.897"/>
			<line style="fill:none;stroke:#000000;stroke-width:0.5;" x1="96.078" y1="12.069" x2="95.94" y2="14.415"/>
			<path style="fill:none;stroke:#000000;stroke-width:0.5;" d="M99.183,12.208c0,0,0,7.106,3.173,10.279"/>
			<path style="fill:none;stroke:#000000;stroke-width:0.5;" d="M101.528,14.139c0.345,5.519,1.242,7.796,1.932,8.762"/>
			<path style="fill:none;stroke:#000000;stroke-width:0.5;" d="M103.805,16.968c-0.069,3.794,1.173,5.795,1.173,5.795"/>
			<path style="fill:none;stroke:#B4B4B4;stroke-width:0.5;" d="M95.112,19.658c-0.828,0.552-1.656,1.518-1.656,2.139
				s0.207,2.208,1.035,3.173c0.828,0.966,1.173,2.897,1.449,3.38"/>
			<path style="fill:none;stroke:#000000;stroke-width:0.5;" d="M92.56,15.381c0.345,1.104,1.104,1.932,0.69,3.173
				c-0.414,1.242-1.932,2.484-1.863,3.519c0.069,1.035,0.828,1.38,0.828,1.38l0.621,0.138l0.138,1.449l0.345,0.621l0.621,0.069
				l0.483,0.207l0.345,0.759l-0.414,0.414l-0.138,0.69l0.138,0.897l0.483,0.483"/>
			<path style="fill:none;stroke:#000000;stroke-width:0.5;" d="M95.181,29.248c-0.207,0.621,0,1.518,0.207,1.794
				c0.207,0.276,1.656,0.896,1.656,0.896l0.828,0.345"/>
			<path style="fill:none;stroke:#000000;stroke-width:0.5;" d="M93.871,17.382c0,0,1.242,0.207,2.069,0.896
				c0.828,0.69,0.345,0.276,0.345,0.276l-1.725,0.483"/>
			<ellipse style="fill:none;stroke:#000000;stroke-width:0.5;" cx="94.975" cy="18.452" rx="0.097" ry="0.585"/> 
			<polyline style="fill:none;stroke:#000000;stroke-width:0.5;" points="93.732,16.14 94.285,16.002 95.25,16.14 95.664,16.485 "/>
			<polyline style="fill:none;stroke:#000000;stroke-width:0.5;" points="72.622,38.354 71.036,38.285 69.104,37.25 65.723,35.732 
				62.274,35.181 61.584,35.25 "/>
			<polyline style="fill:none;stroke:#000000;stroke-width:0.5;" points="65.999,36.491 64.62,36.629 63.309,36.836 62.55,37.388 
				61.377,37.664 61.515,38.63 62.274,39.044 63.24,39.044 64.62,38.975 65.93,38.975 66.896,38.699 "/>
			<polyline style="fill:none;stroke:#000000;stroke-width:0.5;" points="58.894,36.491 58.618,37.526 58.755,37.871 59.79,37.802 
				"/>
			<polyline style="fill:none;stroke:#000000;stroke-width:0.5;" points="61.791,39.803 61.239,40.355 60.273,39.941 59.652,39.458 
				59.583,38.354 "/>
			<polyline style="fill:none;stroke:#000000;stroke-width:0.5;" points="60.618,40.7 60.894,41.803 61.653,42.01 62.55,42.286 
				63.309,42.355 63.654,42.08 63.516,41.39 62.964,41.183 "/>
			<polyline style="fill:none;stroke:#000000;stroke-width:0.5;" points="61.86,42.493 61.998,43.045 62.55,43.252 63.792,43.597 
				64.274,43.252 64.413,42.7 "/>
			<polyline style="fill:none;stroke:#000000;stroke-width:0.5;" points="69.863,44.218 69.104,43.873 68.966,43.321 "/>
			<polyline style="fill:none;stroke:#000000;stroke-width:0.5;" points="68.483,43.873 67.517,43.873 67.024,43.818 "/>
			<polyline style="fill:none;stroke:#000000;stroke-width:0.5;" points="68.276,46.563 66.482,45.805 64.481,45.46 63.24,45.667 
				61.653,45.943 60.825,46.288 "/>
			<path style="fill:none;stroke:#000000;stroke-width:0.5;" d="M63.102,46.219l-1.586,0.483l-1.035,0.414l-1.793,0.069
				l-1.173,0.276l-0.759,0.621l0.069,1.311c0,0,0.276,0.276,0.483,0.345c0.207,0.069,1.311,0.207,1.311,0.207l0.896-0.138"/>
			<polyline style="fill:none;stroke:#000000;stroke-width:0.5;" points="57.652,50.289 57.997,51.531 58.618,51.669 59.79,51.669 
				60.48,51.669 "/>
			<polyline style="fill:none;stroke:#000000;stroke-width:0.5;" points="59.169,52.014 59.514,52.841 60.411,53.325 61.101,53.394 
				61.446,53.325 "/>
			<path style="fill:none;stroke:#000000;stroke-width:0.5;" d="M61.308,53.808l0.552,1.035l0.828-0.069
				c0,0,1.586,0.069,1.793,0.069s1.035,0,1.242-0.069c0.207-0.069,1.173-0.414,1.173-0.414l0.483-0.345"/>
			<line style="fill:none;stroke:#B4B4B4;stroke-width:0.5;" x1="59.928" y1="48.426" x2="59.859" y2="49.116"/>
			<polyline style="fill:none;stroke:#000000;stroke-width:0.5;" points="67.31,45.529 67.103,43.321 66.275,41.114 64.896,39.665 
				"/>
			<path style="fill:none;stroke:#000000;stroke-width:0.5;" d="M61.925,36.855l-3.307-0.708c0,0-4.14,0.69-4.346,0.552
				c-0.207-0.138-7.244,0.828-7.244,0.828l-8.209,0.345h-2.139c0,0-32.804,0.276-35.288,0.276"/>
			<path style="fill:none;stroke:#000000;stroke-width:0.5;" d="M65.585,45.046l-0.69-2.966l-1.173-1.104l-1.173-1.104l-2.139-1.518
				l-2.552-0.828l-2.691,0.621c0,0-16.35,1.035-18.075,1.035c0,0-35.184,0.517-35.598,0.517"/>
			<path style="fill:none;stroke:#000000;stroke-width:0.5;" d="M60.549,46.633c-0.621-0.276-1.518-0.345-2.139-0.345
				c-0.621,0-18.558,0.552-20.904,0.552c0,0-34.77,0.828-35.287,0.828"/>
			<path style="fill:none;stroke:#000000;stroke-width:0.5;" d="M56.479,47.667c-0.828-0.069-16.764,0.621-18.765,0.621
				c0,0-34.977,0.828-35.391,0.828"/>
			<polyline style="fill:none;stroke:#000000;stroke-width:0.5;" points="143.059,85.128 133.125,66.087 128.985,66.087 "/>
			<path style="fill:none;stroke:#000000;stroke-width:0.5;" d="M37.921,67.743c0,0-21.938-2.897-28.147,9.106
				s9.521,16.971,37.253,16.971c27.733,0,99.343,1.242,99.343,1.242l-2.897-8.279"/>
			<path style="fill:none;stroke:#000000;stroke-width:0.5;" d="M12.257,91.337c1.242,0.828,4.553,4.553,4.553,4.553
				s25.664,2.897,130.388,2.897"/>
			<line style="fill:none;stroke:#000000;stroke-width:0.5;" x1="40.405" y1="99.616" x2="36.679" y2="106.652"/>
			<line style="fill:none;stroke:#000000;stroke-width:0.5;" x1="43.716" y1="100.443" x2="40.405" y2="107.48"/>
			<line style="fill:none;stroke:#000000;stroke-width:0.5;" x1="121.173" y1="99.823" x2="125.312" y2="107.687"/>
			<line style="fill:none;stroke:#000000;stroke-width:0.5;" x1="124.898" y1="100.65" x2="128.624" y2="106.859"/>
			<path style="fill:none;stroke:#000000;stroke-width:0.5;" d="M145.957,108.696c-33.942,0.414-109.691,0.828-120.454,0.414
				c-10.762-0.414-11.176,0-12.832-3.312s-16.971,8.692-1.242,9.106c52.979,1.394,132.458,0.828,134.527,0.828
				c2.07,0,0.828-4.967,0.828-4.967"/>
			<path style="fill:none;stroke:#000000;stroke-width:0.5;" d="M3.979,81.403c-2.898,2.897-4.553,4.139-3.312,5.795
				s3.725,2.897,3.725,2.897l5.381,0.414"/>
			<polyline style="fill:none;stroke:#B4B4B4;stroke-width:0.5;" points="114.291,47.047 117.188,47.047 120.5,46.633 "/>
			<polyline style="fill:none;stroke:#B4B4B4;stroke-width:0.5;" points="124.019,64.018 119.465,64.018 118.43,64.846 "/>
			<polyline style="fill:none;stroke:#B4B4B4;stroke-width:0.5;" points="104.357,67.536 108.91,71.468 110.979,72.296 
				115.119,73.745 "/>
			<polyline style="fill:none;stroke:#B4B4B4;stroke-width:0.5;" points="119.465,72.296 121.949,74.78 125.26,76.643 "/>
			<polyline style="fill:none;stroke:#B4B4B4;stroke-width:0.5;" points="86.558,39.803 86.765,42.08 87.179,44.563 "/>
			<polyline style="fill:none;stroke:#B4B4B4;stroke-width:0.5;" points="88.006,40.424 88.627,42.08 89.456,43.114 "/>
			<line style="fill:none;stroke:#B4B4B4;stroke-width:0.5;" x1="89.456" y1="39.596" x2="89.662" y2="40.424"/>
			<polyline style="fill:none;stroke:#B4B4B4;stroke-width:0.5;" points="91.318,66.915 91.939,69.399 92.353,70.434 "/>
		</g>
		<rect x="0.002" y="90.657" style="fill:none;" width="147.401" height="2.834"/> 
	</g>
</svg>
