<?xml version="1.0" encoding="iso-8859-1"?>
<!-- Generator: Adobe Illustrator 11 Build 196, SVG Export Plug-In . SVG Version: 6.0.0 Build 78)  -->
<!DOCTYPE svg PUBLIC "-//W3C//DTD SVG 1.0//EN"    "http://www.w3.org/TR/2001/REC-SVG-20010904/DTD/svg10.dtd" [
	<!ENTITY ns_flows "http://ns.adobe.com/Flows/1.0/">
	<!ENTITY ns_svg "http://www.w3.org/2000/svg">
	<!ENTITY ns_xlink "http://www.w3.org/1999/xlink">
]>
<svg  
	 width="147.401" height="141.1" viewBox="0 0 147.401 141.1" style="overflow:visible;enable-background:new 0 0 147.401 141.1"
	 xml:space="preserve">
	<g id="Layer_1">
		
			<linearGradient id="XMLID_6_" gradientUnits="userSpaceOnUse" x1="97.958" y1="36.9165" x2="97.958" y2="60.6665" gradientTransform="matrix(1 0 0 1 -48.9165 64.7549)">
			<stop  offset="0" style="stop-color:#FFFFFF"/>
			<stop  offset="1" style="stop-color:#000000"/>
			<midPointStop  offset="0" style="stop-color:#FFFFFF"/>
			<midPointStop  offset="0.5" style="stop-color:#FFFFFF"/>
			<midPointStop  offset="1" style="stop-color:#000000"/>
		</linearGradient>
		<path style="fill:url(#XMLID_6_);" d="M53.331,106.005c0.001-0.042,0.013-0.082,0.013-0.125c0-2.375-1.926-4.301-4.302-4.301
			c-2.375,0-4.301,1.926-4.301,4.301c0,0.043,0.011,0.083,0.013,0.125h-0.086v10.583h8.75v-10.583H53.331z"/>
		<linearGradient id="XMLID_7_" gradientUnits="userSpaceOnUse" x1="97.9585" y1="36.9165" x2="97.9585" y2="60.6665">
			<stop  offset="0" style="stop-color:#FFFFFF"/>
			<stop  offset="1" style="stop-color:#000000"/>
			<midPointStop  offset="0" style="stop-color:#FFFFFF"/>
			<midPointStop  offset="0.5" style="stop-color:#FFFFFF"/>
			<midPointStop  offset="1" style="stop-color:#000000"/>
		</linearGradient>
		<path style="fill:url(#XMLID_7_);" d="M102.248,41.25c0.001-0.042,0.012-0.082,0.012-0.125c0-2.375-1.926-4.302-4.301-4.302
			c-2.376,0-4.302,1.926-4.302,4.302c0,0.043,0.011,0.083,0.013,0.125h-0.086v10.583h8.75V41.25H102.248z"/>
		<g>
			<polygon style="fill:#DCDCDC;stroke:#000000;stroke-width:0.5;" points="95,11.25 76,11.25 76,0.25 69,0.25 69,74.25 49,74.25 
				49,79.25 69,79.25 69,128.25 76,128.25 76,16.25 95,16.25 "/>
			<g>
				<rect x="46.5" y="66.75" style="fill:#7F7F7F;stroke:#000000;stroke-width:0.5;" width="5.333" height="25"/> 
				<path style="fill:#B4B4B4;stroke:#000000;stroke-width:0.5;" d="M52.962,89.262c0.994,0,1.8-0.806,1.8-1.8V71.038
					c0-0.994-0.806-1.8-1.8-1.8h-7.425c-0.994,0-1.8,0.806-1.8,1.8v16.424c0,0.994,0.806,1.8,1.8,1.8H52.962z"/>
			</g>
			<rect x="94.688" y="2.75" style="fill:#7F7F7F;stroke:#000000;stroke-width:0.5;" width="5.333" height="25"/> 
			<path style="fill:#B4B4B4;stroke:#000000;stroke-width:0.5;" d="M101.15,25.262c0.994,0,1.8-0.806,1.8-1.8V7.038
				c0-0.994-0.806-1.8-1.8-1.8h-7.425c-0.994,0-1.8,0.806-1.8,1.8v16.424c0,0.994,0.806,1.8,1.8,1.8H101.15z"/>
			
				<radialGradient id="XMLID_8_" cx="94.9375" cy="53.0625" r="5.0621" fx="94.9375" fy="53.0625" gradientTransform="matrix(1 0 0 1 2 -2.2427)" gradientUnits="userSpaceOnUse">
				<stop  offset="0" style="stop-color:#FFFFFF"/>
				<stop  offset="1" style="stop-color:#000000"/>
				<midPointStop  offset="0" style="stop-color:#FFFFFF"/>
				<midPointStop  offset="0.5" style="stop-color:#FFFFFF"/>
				<midPointStop  offset="1" style="stop-color:#000000"/>
			</radialGradient>
			<circle style="fill:url(#XMLID_8_);stroke:#000000;stroke-width:0.5;" cx="98" cy="52.007" r="4.243"/> 
			
				<linearGradient id="XMLID_9_" gradientUnits="userSpaceOnUse" x1="75.4995" y1="123.2314" x2="75.4995" y2="145.2314" gradientTransform="matrix(-1 0 0 -0.7 151 227.3618)">
				<stop  offset="0" style="stop-color:#FFFFFF"/>
				<stop  offset="1" style="stop-color:#000000"/>
				<midPointStop  offset="0" style="stop-color:#FFFFFF"/>
				<midPointStop  offset="0.5" style="stop-color:#FFFFFF"/>
				<midPointStop  offset="1" style="stop-color:#000000"/>
			</linearGradient>
			<rect x="37" y="126.4" style="fill:url(#XMLID_9_);" width="77" height="14.7"/> 
			
				<radialGradient id="XMLID_10_" cx="94.9375" cy="53.0625" r="5.0621" fx="94.9375" fy="53.0625" gradientTransform="matrix(1 0 0 1 -47 62.0073)" gradientUnits="userSpaceOnUse">
				<stop  offset="0" style="stop-color:#FFFFFF"/>
				<stop  offset="1" style="stop-color:#000000"/>
				<midPointStop  offset="0" style="stop-color:#FFFFFF"/>
				<midPointStop  offset="0.5" style="stop-color:#FFFFFF"/>
				<midPointStop  offset="1" style="stop-color:#000000"/>
			</radialGradient>
			<circle style="fill:url(#XMLID_10_);stroke:#000000;stroke-width:0.5;" cx="49" cy="116.257" r="4.243"/> 
		</g>
		<rect y="72.438" style="fill:none;" width="147.401" height="2.834"/> 
	</g>
</svg>
