<?xml version="1.0" encoding="iso-8859-1"?>
<!-- Generator: Adobe Illustrator 11 Build 196, SVG Export Plug-In . SVG Version: 6.0.0 Build 78)  -->
<!DOCTYPE svg PUBLIC "-//W3C//DTD SVG 1.0//EN"    "http://www.w3.org/TR/2001/REC-SVG-20010904/DTD/svg10.dtd" [
	<!ENTITY ns_flows "http://ns.adobe.com/Flows/1.0/">
	<!ENTITY ns_svg "http://www.w3.org/2000/svg">
	<!ENTITY ns_xlink "http://www.w3.org/1999/xlink">
]>
<svg  
	 width="147.402" height="108.564" viewBox="0 0 147.402 108.564"
	 style="overflow:visible;enable-background:new 0 0 147.402 108.564" xml:space="preserve">
	<style type="text/css">
	
	</style>
	<g id="Layer_1">
		<circle style="fill:none;stroke:#000000;stroke-width:0.5;" cx="90.312" cy="24.244" r="2.722"/> 
		<circle style="fill:none;stroke:#000000;stroke-width:0.5;" cx="13.999" cy="82.381" r="2.722"/> 
		<circle style="fill:none;stroke:#000000;stroke-width:0.5;" cx="141.985" cy="55.878" r="2.722"/> 
		<g>
			<line style="fill:none;stroke:#000000;stroke-width:0.5;" x1="3.009" y1="67.651" x2="79.024" y2="9.744"/>
			<line style="fill:none;stroke:#000000;stroke-width:0.5;" x1="0.779" y1="64.823" x2="5.144" y2="70.553"/>
			<line style="fill:none;stroke:#000000;stroke-width:0.5;" x1="76.889" y1="6.843" x2="81.254" y2="12.572"/>
		</g>
		<path d="M81.129,31.024c-1.229-0.778-2.941-1.601-4.303-1.881l2.317-0.727l1.315-2.041C80.367,27.764,80.705,29.633,81.129,31.024
			z"/>
		<g>
			<text transform="matrix(0.7955 -0.606 0.606 0.7955 20.0369 46.3794)"><tspan x="0" y="0" style="font-family:Liberation Sans; font-size:8.500000;">35.24 mm</tspan></text>
		</g>
		<g>
			<g>
				<line style="fill:none;stroke:#000000;stroke-width:0.5;" x1="18.238" y1="101.843" x2="146.137" y2="75.358"/>
				<line style="fill:none;stroke:#000000;stroke-width:0.5;" x1="17.273" y1="98.365" x2="18.733" y2="105.418"/>
				<line style="fill:none;stroke:#000000;stroke-width:0.5;" x1="145.669" y1="71.716" x2="147.13" y2="78.769"/>
			</g>
			<g>
				<text transform="matrix(0.9792 -0.2028 0.2028 0.9792 63.0686 104.1938)"><tspan x="0" y="0" style="font-family:Liberation Sans; font-size:8.500000;">48.01 mm</tspan></text>
			</g>
		</g>
		<path style="fill:none;stroke:#000000;stroke-width:0.5;" d="M101.855,24.245c0-6.375-5.168-11.543-11.543-11.543
			c-6.375,0-11.542,5.168-11.542,11.543c0,2.391,0.727,4.611,1.971,6.454"/>
		<polyline style="fill:none;stroke:#000000;stroke-width:0.5;stroke-dasharray:2;" points="90.312,24.245 13.999,82.381 
			141.985,55.878 "/>
		<g>
			<text transform="matrix(1 0 0 1 94.4739 10)"><tspan x="0" y="0" style="font-family:Liberation Sans; font-size:8.500000;">217.3</tspan></text>
			<text transform="matrix(1 0 0 1 119.4983 10)"><tspan x="0" y="0" style="font-family:Liberation Sans; font-size:8.500000;">&#xB0;</tspan></text>
		</g>
		<path style="fill:none;stroke:#000000;stroke-width:0.5;" d="M48.605,75.14c0.491,2.346,0.749,4.777,0.749,7.269"/>
		<path d="M48.581,75.158c0.774,1.231,1.966,2.71,3.075,3.55l-2.404-0.341l-2.066,1.276C47.866,78.43,48.365,76.597,48.581,75.158z"
			/>
		<g>
			<text transform="matrix(1 0 0 1 53.4968 82.3496)"><tspan x="0" y="0" style="font-family:Liberation Sans; font-size:8.500000;">1</tspan></text>
			<text transform="matrix(1 0 0 1 58.3181 82.3496)"><tspan x="0" y="0" style="font-family:Liberation Sans; font-size:8.500000;">1.7</tspan></text>
			<text transform="matrix(1 0 0 1 72.2195 82.3496)"><tspan x="0" y="0" style="font-family:Liberation Sans; font-size:8.500000;">&#xB0;</tspan></text>
		</g>
		<rect y="62.388" style="fill:none;" width="147.402" height="2.835"/> 
	</g>
</svg>
