<?xml version="1.0" encoding="UTF-8" standalone="no"?>
<!-- Created with Inkscape (http://www.inkscape.org/) -->

<svg
   xmlns:dc="http://purl.org/dc/elements/1.1/"
   xmlns:cc="http://creativecommons.org/ns#"
   xmlns:rdf="http://www.w3.org/1999/02/22-rdf-syntax-ns#"
   xmlns:svg="http://www.w3.org/2000/svg"
   xmlns="http://www.w3.org/2000/svg"
   xmlns:sodipodi="http://sodipodi.sourceforge.net/DTD/sodipodi-0.dtd"
   xmlns:inkscape="http://www.inkscape.org/namespaces/inkscape"
   width="744.09448819"
   height="1052.3622047"
   id="svg2"
   version="1.1"
   sodipodi:docname="hw-death-triangle.svg">
  <defs
     id="defs4" />
  <sodipodi:namedview
     id="base"
     pagecolor="#ffffff"
     bordercolor="#666666"
     borderopacity="1.0"
     inkscape:pageopacity="0.0"
     inkscape:pageshadow="2"
     inkscape:zoom="1.4566091"
     inkscape:cx="678.4908"
     inkscape:cy="391.2769"
     inkscape:document-units="mm"
     inkscape:current-layer="layer1"
     showgrid="false"
     inkscape:window-width="1280"
     inkscape:window-height="998"
     inkscape:window-x="0"
     inkscape:window-y="0"
     inkscape:window-maximized="1" />
  <metadata
     id="metadata7">
    <rdf:RDF>
      <cc:Work
         rdf:about="">
        <dc:format>image/svg+xml</dc:format>
        <dc:type
           rdf:resource="http://purl.org/dc/dcmitype/StillImage" />
        <dc:title></dc:title>
      </cc:Work>
    </rdf:RDF>
  </metadata>
  <g
     inkscape:label="Layer 1"
     inkscape:groupmode="layer"
     id="layer1">
    <g
       id="g3868"
       transform="matrix(0.9387902,0,0,0.9387902,30.856754,53.9591)">
      <path
         inkscape:connector-curvature="0"
         id="path3050"
         d="m 621.13415,770.93122 c 1.86535,4.75646 2.88606,6.08327 -2.60854,10.22345 -5.4946,4.14018 -11.42123,8.20767 -16.86568,7.82481 -5.44446,-0.38288 -8.28902,-0.63932 -9.92143,-2.29118 -1.63243,-1.65186 -3.37952,-3.67841 -3.31042,-6.46565 0.0691,-2.78724 0.90343,-11.44328 3.62305,-23.64723 2.71962,-12.20396 3.52684,-17.26602 7.65625,-18.83703 4.1294,-1.571 4.76822,-4.83993 11.82565,0.47908 7.05743,5.31901 8.42214,7.76992 8.43341,9.81543 0.0113,2.04551 -0.35576,1.85049 -0.35576,1.85049"
         style="color:#000000;fill:none;stroke:#000000;stroke-width:0.62500000000000000;stroke-linecap:butt;stroke-linejoin:miter;stroke-miterlimit:4;stroke-opacity:1;stroke-dasharray:none;stroke-dashoffset:0;marker:none;visibility:visible;display:inline;overflow:visible;enable-background:accumulate" />
      <path
         inkscape:connector-curvature="0"
         id="path3052"
         d="m 614.67209,776.59683 c -10.2014,6.50256 -15.81426,7.91284 -18.06607,6.24563 -2.2518,-1.66722 -2.77547,-3.04368 -2.0486,-7.36403 0.72687,-4.32034 1.3928,-11.18323 2.43704,-15.8056 1.04423,-4.62235 3.56881,-16.45928 4.88795,-17.17029 1.31914,-0.71103 3.81203,-1.26899 6.67554,0.72326 2.86352,1.99226 4.12891,3.44909 4.27788,4.94022 0.14896,1.49114 0.19862,1.98818 0.19862,1.98818 l 0.56205,-0.17199"
         style="color:#000000;fill:none;stroke:#000000;stroke-width:0.62500000000000000;stroke-linecap:butt;stroke-linejoin:miter;stroke-miterlimit:4;stroke-opacity:1;stroke-dasharray:none;stroke-dashoffset:0;marker:none;visibility:visible;display:inline;overflow:visible;enable-background:accumulate" />
      <path
         inkscape:connector-curvature="0"
         id="path3054"
         d="m 622.01357,770.4572 c 0,0 -8.0177,0.91684 -8.62174,0.2821 -0.60403,-0.63475 -0.96239,-11.17966 -0.63735,-11.79136 0.32505,-0.61171 7.44798,-0.43514 7.44798,-0.43514 0,0 0.92499,2.68793 1.36063,5.11582 0.43562,2.42788 0.45048,6.82858 0.45048,6.82858 z"
         style="color:#000000;fill:none;stroke:#000000;stroke-width:0.62500000000000000;stroke-linecap:butt;stroke-linejoin:miter;stroke-miterlimit:4;stroke-opacity:1;stroke-dasharray:none;stroke-dashoffset:0;marker:none;visibility:visible;display:inline;overflow:visible;enable-background:accumulate" />
      <path
         inkscape:connector-curvature="0"
         id="path3056"
         d="m 619.64809,758.37511 -0.9624,-11.17965 -4.34338,0.20221 -0.26101,10.52956"
         style="color:#000000;fill:none;stroke:#000000;stroke-width:0.62500000000000000;stroke-linecap:butt;stroke-linejoin:miter;stroke-miterlimit:4;stroke-opacity:1;stroke-dasharray:none;stroke-dashoffset:0;marker:none;visibility:visible;display:inline;overflow:visible;enable-background:accumulate" />
      <path
         inkscape:connector-curvature="0"
         id="path3058"
         d="m 619.95271,771.08786 0.54621,5.46748 -2.31322,0.81033 -2.82154,-1.18552 -0.25954,-4.53072"
         style="color:#000000;fill:none;stroke:#000000;stroke-width:0.62500000000000000;stroke-linecap:butt;stroke-linejoin:miter;stroke-miterlimit:4;stroke-opacity:1;stroke-dasharray:none;stroke-dashoffset:0;marker:none;visibility:visible;display:inline;overflow:visible;enable-background:accumulate" />
      <path
         transform="matrix(-0.18750837,-0.09963735,0.09963735,-0.18750837,647.95027,994.4533)"
         sodipodi:open="true"
         sodipodi:end="10.575948"
         sodipodi:start="4.2932211"
         d="m 611.51525,843.93063 c 2.42921,-1.08239 5.27593,0.009 6.35832,2.43862 1.08239,2.42921 -0.009,5.27593 -2.43862,6.35832 -2.42921,1.0824 -5.27593,-0.009 -6.35832,-2.43862 -1.08205,-2.42842 0.009,-5.27426 2.4366,-6.35742"
         sodipodi:ry="4.8153462"
         sodipodi:rx="4.8153462"
         sodipodi:cy="848.3291"
         sodipodi:cx="613.4751"
         id="path3060"
         style="color:#000000;fill:none;stroke:#000000;stroke-width:2.94343471999999995;stroke-linecap:butt;stroke-linejoin:miter;stroke-miterlimit:4;stroke-opacity:1;stroke-dasharray:none;stroke-dashoffset:0;marker:none;visibility:visible;display:inline;overflow:visible;enable-background:accumulate"
         sodipodi:type="arc" />
      <path
         sodipodi:open="true"
         sodipodi:end="10.575948"
         sodipodi:start="4.2932211"
         d="m 611.51525,843.93063 c 2.42921,-1.08239 5.27593,0.009 6.35832,2.43862 1.08239,2.42921 -0.009,5.27593 -2.43862,6.35832 -2.42921,1.0824 -5.27593,-0.009 -6.35832,-2.43862 -1.08205,-2.42842 0.009,-5.27426 2.4366,-6.35742"
         sodipodi:ry="4.8153462"
         sodipodi:rx="4.8153462"
         sodipodi:cy="848.3291"
         sodipodi:cx="613.4751"
         id="path3060-4"
         style="color:#000000;fill:none;stroke:#000000;stroke-width:2.94343471999999995;stroke-linecap:butt;stroke-linejoin:miter;stroke-miterlimit:4;stroke-opacity:1;stroke-dasharray:none;stroke-dashoffset:0;marker:none;visibility:visible;display:inline;overflow:visible;enable-background:accumulate"
         sodipodi:type="arc"
         transform="matrix(-0.18750837,-0.09963735,0.09963735,-0.18750837,646.82155,969.86917)" />
      <path
         inkscape:connector-curvature="0"
         id="path3080"
         d="m 621.43756,768.67357 -3.56613,-5.86479"
         style="color:#000000;fill:none;stroke:#000000;stroke-width:0.62500000000000000;stroke-linecap:butt;stroke-linejoin:miter;stroke-miterlimit:4;stroke-opacity:1;stroke-dasharray:none;stroke-dashoffset:0;marker:none;visibility:visible;display:inline;overflow:visible;enable-background:accumulate" />
      <path
         inkscape:connector-curvature="0"
         id="path3082"
         d="m 619.32044,768.67337 -3.70322,-5.60681"
         style="color:#000000;fill:none;stroke:#000000;stroke-width:0.62500000000000000;stroke-linecap:butt;stroke-linejoin:miter;stroke-miterlimit:4;stroke-opacity:1;stroke-dasharray:none;stroke-dashoffset:0;marker:none;visibility:visible;display:inline;overflow:visible;enable-background:accumulate" />
      <path
         inkscape:connector-curvature="0"
         id="path3084"
         d="m 616.49867,768.62955 c -1.85246,-2.24147 -3.2695,-5.17785 -3.2695,-5.17785"
         style="color:#000000;fill:none;stroke:#000000;stroke-width:0.62500000000000000;stroke-linecap:butt;stroke-linejoin:miter;stroke-miterlimit:4;stroke-opacity:1;stroke-dasharray:none;stroke-dashoffset:0;marker:none;visibility:visible;display:inline;overflow:visible;enable-background:accumulate" />
      <path
         inkscape:connector-curvature="0"
         id="path3086"
         d="m 621.70719,765.17784 c -1.28817,-1.80928 -1.81859,-2.55428 -1.81859,-2.55428"
         style="color:#000000;fill:none;stroke:#000000;stroke-width:0.62500000000000000;stroke-linecap:butt;stroke-linejoin:miter;stroke-miterlimit:4;stroke-opacity:1;stroke-dasharray:none;stroke-dashoffset:0;marker:none;visibility:visible;display:inline;overflow:visible;enable-background:accumulate" />
      <path
         inkscape:connector-curvature="0"
         id="path3088"
         d="m 612.92565,767.26024 c 1.05154,-2.35244 2.14496,-4.28565 2.14496,-4.28565"
         style="color:#000000;fill:none;stroke:#000000;stroke-width:0.62500000000000000;stroke-linecap:butt;stroke-linejoin:miter;stroke-miterlimit:4;stroke-opacity:1;stroke-dasharray:none;stroke-dashoffset:0;marker:none;visibility:visible;display:inline;overflow:visible;enable-background:accumulate" />
      <path
         inkscape:connector-curvature="0"
         id="path3090"
         d="m 614.3509,768.81155 c 2.38523,-4.4888 3.41086,-5.79638 3.41086,-5.79638"
         style="color:#000000;fill:none;stroke:#000000;stroke-width:0.62500000000000000;stroke-linecap:butt;stroke-linejoin:miter;stroke-miterlimit:4;stroke-opacity:1;stroke-dasharray:none;stroke-dashoffset:0;marker:none;visibility:visible;display:inline;overflow:visible;enable-background:accumulate" />
      <path
         inkscape:connector-curvature="0"
         id="path3092"
         d="m 617.83216,768.61033 c 1.86432,-3.50848 2.99811,-6.01571 2.99811,-6.01571"
         style="color:#000000;fill:none;stroke:#000000;stroke-width:0.62500000000000000;stroke-linecap:butt;stroke-linejoin:miter;stroke-miterlimit:4;stroke-opacity:1;stroke-dasharray:none;stroke-dashoffset:0;marker:none;visibility:visible;display:inline;overflow:visible;enable-background:accumulate" />
      <path
         inkscape:connector-curvature="0"
         id="path3094"
         d="m 619.81545,768.73791 c 1.42566,-2.68296 1.77732,-4.21635 1.77732,-4.21635"
         style="color:#000000;fill:none;stroke:#000000;stroke-width:0.62500000000000000;stroke-linecap:butt;stroke-linejoin:miter;stroke-miterlimit:4;stroke-opacity:1;stroke-dasharray:none;stroke-dashoffset:0;marker:none;visibility:visible;display:inline;overflow:visible;enable-background:accumulate" />
      <path
         inkscape:connector-curvature="0"
         id="path3096"
         d="m 616.23746,768.62307 c 1.69011,-2.80708 2.73042,-5.76096 2.73042,-5.76096"
         style="color:#000000;fill:none;stroke:#000000;stroke-width:0.62500000000000000;stroke-linecap:butt;stroke-linejoin:miter;stroke-miterlimit:4;stroke-opacity:1;stroke-dasharray:none;stroke-dashoffset:0;marker:none;visibility:visible;display:inline;overflow:visible;enable-background:accumulate" />
      <path
         inkscape:connector-curvature="0"
         id="path3098"
         d="m 613.34316,768.34223 c 1.74171,-2.77968 2.89968,-5.20789 2.89968,-5.20789"
         style="color:#000000;fill:none;stroke:#000000;stroke-width:0.62500000000000000;stroke-linecap:butt;stroke-linejoin:miter;stroke-miterlimit:4;stroke-opacity:1;stroke-dasharray:none;stroke-dashoffset:0;marker:none;visibility:visible;display:inline;overflow:visible;enable-background:accumulate" />
    </g>
    <path
       style="color:#000000;fill:#ffffff;fill-opacity:1;stroke:#000000;stroke-width:0.73375005;stroke-linecap:butt;stroke-linejoin:miter;stroke-miterlimit:4;stroke-opacity:1;stroke-dasharray:none;stroke-dashoffset:0;marker:none;visibility:visible;display:inline;overflow:visible;enable-background:accumulate"
       d="m 499.58649,641.12863 c -4.81531,-0.12316 -9.14113,2.02836 -11,5.96875 -2.70381,5.73147 0.8125,13.07453 7.875,16.40625 7.0625,3.33172 14.98369,1.38772 17.6875,-4.34375 2.70381,-5.73147 -0.8125,-13.07453 -7.875,-16.40625 -2.20703,-1.04116 -4.49872,-1.56902 -6.6875,-1.625 z m -0.40625,3.03125 c 1.88948,-0.11486 3.92696,0.26852 5.875,1.1875 5.19477,2.45062 7.77001,7.84676 5.78125,12.0625 -1.98876,4.21574 -7.80523,5.63812 -13,3.1875 -5.19477,-2.45062 -7.80126,-7.84676 -5.8125,-12.0625 1.24298,-2.63484 4.00712,-4.18356 7.15625,-4.375 z"
       id="path3037"
       inkscape:connector-curvature="0" />
    <path
       style="color:#000000;fill:none;stroke:#545454;stroke-width:4.69375;stroke-linecap:butt;stroke-linejoin:miter;stroke-miterlimit:4;stroke-opacity:1;stroke-dasharray:none;stroke-dashoffset:0;marker:none;visibility:visible;display:inline;overflow:visible;enable-background:accumulate"
       d="m 603.05408,752.54235 c 0,0 -3.01421,2.00947 -6.53078,1.00474 -3.51658,-1.00474 -90.06171,-92.79617 -90.06171,-92.79617 -2.94869,-2.52956 -0.74118,-3.73366 -0.47361,-4.06813 0.26758,-0.33447 3.94676,0.33447 3.94676,0.33447"
       id="path3887"
       inkscape:connector-curvature="0"
       sodipodi:nodetypes="csc" />
    <path
       style="color:#000000;fill:#ffffff;fill-opacity:1;stroke:#000000;stroke-width:0.73375005;stroke-linecap:butt;stroke-linejoin:miter;stroke-miterlimit:4;stroke-opacity:1;stroke-dasharray:none;stroke-dashoffset:0;marker:none;visibility:visible;display:inline;overflow:visible;enable-background:accumulate"
       d="m 697.30054,646.05884 c 4.81531,-0.12316 9.14113,2.02836 11,5.96875 2.70381,5.73147 -0.8125,13.07453 -7.875,16.40625 -7.0625,3.33172 -14.98369,1.38772 -17.6875,-4.34375 -2.70381,-5.73147 0.8125,-13.07453 7.875,-16.40625 2.20703,-1.04116 4.49872,-1.56902 6.6875,-1.625 z m 0.40625,3.03125 c -1.88948,-0.11486 -3.92696,0.26852 -5.875,1.1875 -5.19477,2.45062 -7.77001,7.84676 -5.78125,12.0625 1.98876,4.21574 7.80523,5.63812 13,3.1875 5.19477,-2.45062 7.80126,-7.84676 5.8125,-12.0625 -1.24298,-2.63484 -4.00712,-4.18356 -7.15625,-4.375 z"
       id="path3037-3"
       inkscape:connector-curvature="0" />
    <path
       style="color:#000000;fill:none;stroke:#545454;stroke-width:4.69395113;stroke-linecap:butt;stroke-linejoin:miter;stroke-miterlimit:4;stroke-opacity:1;stroke-dasharray:none;stroke-dashoffset:0;marker:none;visibility:visible;display:inline;overflow:visible;enable-background:accumulate"
       d="m 608.58013,749.02577 77.43947,-81.51556 c 7.58618,-7.45472 -0.35178,-7.92671 -0.35178,-7.92671"
       id="path3891"
       inkscape:connector-curvature="0"
       sodipodi:nodetypes="ccc" />
    <path
       style="color:#000000;fill:none;stroke:#545454;stroke-width:4.69395113000000030;stroke-linecap:butt;stroke-linejoin:miter;stroke-miterlimit:4;stroke-opacity:1;stroke-dasharray:none;stroke-dashoffset:0;marker:none;visibility:visible;display:inline;overflow:visible;enable-background:accumulate"
       d="m 600.06109,794.26115 0.29922,84.93535"
       id="path3893-9"
       inkscape:connector-curvature="0"
       sodipodi:nodetypes="cc" />
    <path
       style="color:#000000;fill:none;stroke:#545454;stroke-width:4.69395113000000030;stroke-linecap:butt;stroke-linejoin:miter;stroke-miterlimit:4;stroke-opacity:1;stroke-dasharray:none;stroke-dashoffset:0;marker:none;visibility:visible;display:inline;overflow:visible;enable-background:accumulate"
       d="m 592.06473,879.1965 -0.29922,-84.93535 c 2.36176,-10.34758 6.50956,-7.02934 6.50956,-7.02934"
       id="path3893-9-5"
       inkscape:connector-curvature="0"
       sodipodi:nodetypes="cc" />
    <text
       xml:space="preserve"
       style="font-size:10px;font-style:normal;font-variant:normal;font-weight:normal;font-stretch:normal;text-indent:0;text-align:start;text-decoration:none;line-height:125%;letter-spacing:0px;word-spacing:0px;text-transform:none;direction:ltr;block-progression:tb;writing-mode:lr;text-anchor:start;color:#000000;fill:#000000;fill-opacity:1;fill-rule:nonzero;stroke:none;stroke-width:1px;marker:none;visibility:visible;display:inline;overflow:visible;enable-background:accumulate;font-family:FreeSans;-inkscape-font-specification:FreeSans"
       x="605.39917"
       y="873.24597"
       id="text3964"
       sodipodi:linespacing="125%"><tspan
         sodipodi:role="line"
         id="tspan3966"
         x="605.39917"
         y="873.24597">to climber</tspan></text>
    <path
       sodipodi:type="arc"
       style="color:#000000;fill:none;stroke:#000000;stroke-width:1.25;stroke-linecap:butt;stroke-linejoin:miter;stroke-miterlimit:4;stroke-opacity:1;stroke-dasharray:2.5, 1.25;stroke-dashoffset:0;marker:none;visibility:visible;display:inline;overflow:visible;enable-background:accumulate"
       id="path3968"
       sodipodi:cx="601.77863"
       sodipodi:cy="739.78784"
       sodipodi:rx="37.24601"
       sodipodi:ry="37.24601"
       d="m 578.1419,711.00294 a 37.24601,37.24601 0 0 1 45.32373,-1.4961"
       sodipodi:start="4.0248841"
       sodipodi:end="5.3338995"
       sodipodi:open="true"
       transform="translate(0,16)" />
    <text
       xml:space="preserve"
       style="font-size:10px;font-style:normal;font-variant:normal;font-weight:normal;font-stretch:normal;text-indent:0;text-align:start;text-decoration:none;line-height:125%;letter-spacing:0px;word-spacing:0px;text-transform:none;direction:ltr;block-progression:tb;writing-mode:lr-tb;text-anchor:start;color:#000000;fill:#000000;fill-opacity:1;fill-rule:nonzero;stroke:none;stroke-width:1px;marker:none;visibility:visible;display:inline;overflow:visible;enable-background:accumulate;font-family:FreeSans;-inkscape-font-specification:FreeSans"
       x="598.51904"
       y="714.10498"
       id="text3979"
       sodipodi:linespacing="125%"><tspan
         sodipodi:role="line"
         id="tspan3981"
         x="598.51904"
         y="714.10498">θ</tspan></text>
    <path
       style="color:#000000;fill:none;stroke:#545454;stroke-width:4.6937499;stroke-linecap:butt;stroke-linejoin:miter;stroke-miterlimit:4;stroke-opacity:1;stroke-dasharray:none;stroke-dashoffset:0;marker:none;visibility:visible;display:inline;overflow:visible;enable-background:accumulate"
       d="m 516.02541,657.81195 163.60558,0.73425"
       id="path3941"
       inkscape:connector-curvature="0" />
  </g>
</svg>
