<?xml version="1.0" encoding="UTF-8" standalone="no"?>
<!-- Generator: Adobe Illustrator 11 Build 196, SVG Export Plug-In . SVG Version: 6.0.0 Build 78)  -->

<svg
   xmlns:dc="http://purl.org/dc/elements/1.1/"
   xmlns:cc="http://creativecommons.org/ns#"
   xmlns:rdf="http://www.w3.org/1999/02/22-rdf-syntax-ns#"
   xmlns:svg="http://www.w3.org/2000/svg"
   xmlns="http://www.w3.org/2000/svg"
   xmlns:xlink="http://www.w3.org/1999/xlink"
   xmlns:sodipodi="http://sodipodi.sourceforge.net/DTD/sodipodi-0.dtd"
   xmlns:inkscape="http://www.inkscape.org/namespaces/inkscape"
   width="146.433"
   height="102.35"
   viewBox="0 0 146.433 102.35"
   style="overflow:visible;enable-background:new 0 0 146.433 102.35"
   xml:space="preserve"
   id="svg2"
   version="1.1"
   sodipodi:docname="hw-evil-pulleys.svg"
   inkscape:export-filename="/home/bcrowell/Documents/writing/books/physics/share/mechanics/figs/hw-evil-pulleys.png"
   inkscape:export-xdpi="300"
   inkscape:export-ydpi="300"><metadata
   id="metadata97"><rdf:RDF><cc:Work
       rdf:about=""><dc:format>image/svg+xml</dc:format><dc:type
         rdf:resource="http://purl.org/dc/dcmitype/StillImage" /><dc:title /></cc:Work></rdf:RDF></metadata><defs
   id="defs95">
		
		
		
		
		
		
		
			<linearGradient
   gradientTransform="matrix(0.9,0,0,0.9,5.6225,10.075)"
   y2="90.2788"
   x2="151.0906"
   y1="90.2788"
   x1="132.2573"
   gradientUnits="userSpaceOnUse"
   id="XMLID_3_">
			<stop
   id="stop46"
   style="stop-color:#CBCBCB"
   offset="0" />
			<stop
   id="stop48"
   style="stop-color:#FFFFFF"
   offset="0.31" />
			<stop
   id="stop50"
   style="stop-color:#727272"
   offset="0.93" />
			<midPointStop
   id="midPointStop52"
   style="stop-color:#CBCBCB"
   offset="0" />
			<midPointStop
   id="midPointStop54"
   style="stop-color:#CBCBCB"
   offset="0.5" />
			<midPointStop
   id="midPointStop56"
   style="stop-color:#FFFFFF"
   offset="0.31" />
			<midPointStop
   id="midPointStop58"
   style="stop-color:#FFFFFF"
   offset="0.5" />
			<midPointStop
   id="midPointStop60"
   style="stop-color:#727272"
   offset="0.93" />
		</linearGradient>
		 
		
		
		
		
			<linearGradient
   gradientTransform="matrix(0.9,0,0,0.9,-119.0054,2.9426)"
   y2="90.2778"
   x2="151.0906"
   y1="90.2778"
   x1="132.2573"
   gradientUnits="userSpaceOnUse"
   id="XMLID_4_">
			<stop
   id="stop75"
   style="stop-color:#CBCBCB"
   offset="0" />
			<stop
   id="stop77"
   style="stop-color:#FFFFFF"
   offset="0.31" />
			<stop
   id="stop79"
   style="stop-color:#727272"
   offset="0.93" />
			<midPointStop
   id="midPointStop81"
   style="stop-color:#CBCBCB"
   offset="0" />
			<midPointStop
   id="midPointStop83"
   style="stop-color:#CBCBCB"
   offset="0.5" />
			<midPointStop
   id="midPointStop85"
   style="stop-color:#FFFFFF"
   offset="0.31" />
			<midPointStop
   id="midPointStop87"
   style="stop-color:#FFFFFF"
   offset="0.5" />
			<midPointStop
   id="midPointStop89"
   style="stop-color:#727272"
   offset="0.93" />
		</linearGradient>
		 
	<linearGradient
   inkscape:collect="always"
   xlink:href="#XMLID_4_"
   id="linearGradient3093"
   gradientUnits="userSpaceOnUse"
   gradientTransform="matrix(0.64033043,0,0,0.64033043,-82.224532,28.094599)"
   x1="132.2573"
   y1="90.2778"
   x2="151.0906"
   y2="90.2778" /><linearGradient
   inkscape:collect="always"
   xlink:href="#XMLID_3_"
   id="linearGradient3101"
   gradientUnits="userSpaceOnUse"
   gradientTransform="matrix(0.9,0,0,0.9,-94.980913,15.664079)"
   x1="132.2573"
   y1="90.2788"
   x2="151.0906"
   y2="90.2788" /><linearGradient
   inkscape:collect="always"
   xlink:href="#XMLID_3_-1"
   id="linearGradient3101-7"
   gradientUnits="userSpaceOnUse"
   gradientTransform="matrix(0.9,0,0,0.9,-94.980913,15.664079)"
   x1="132.25729"
   y1="90.278801"
   x2="151.09061"
   y2="90.278801" /><linearGradient
   gradientTransform="matrix(0.9,0,0,0.9,5.6225,10.075)"
   y2="90.278801"
   x2="151.09061"
   y1="90.278801"
   x1="132.25729"
   gradientUnits="userSpaceOnUse"
   id="XMLID_3_-1"><stop
     id="stop46-7"
     style="stop-color:#CBCBCB"
     offset="0" /><stop
     id="stop48-2"
     style="stop-color:#FFFFFF"
     offset="0.31" /><stop
     id="stop50-7"
     style="stop-color:#727272"
     offset="0.93" /><midPointStop
     id="midPointStop52-2"
     style="stop-color:#CBCBCB"
     offset="0" /><midPointStop
     id="midPointStop54-2"
     style="stop-color:#CBCBCB"
     offset="0.5" /><midPointStop
     id="midPointStop56-6"
     style="stop-color:#FFFFFF"
     offset="0.31" /><midPointStop
     id="midPointStop58-1"
     style="stop-color:#FFFFFF"
     offset="0.5" /><midPointStop
     id="midPointStop60-0"
     style="stop-color:#727272"
     offset="0.93" /></linearGradient><linearGradient
   y2="90.278801"
   x2="151.09061"
   y1="90.278801"
   x1="132.25729"
   gradientTransform="matrix(1.0710942,0,0,1.0710942,-107.8366,-79.928776)"
   gradientUnits="userSpaceOnUse"
   id="linearGradient3147"
   xlink:href="#XMLID_3_-1"
   inkscape:collect="always" /><linearGradient
   inkscape:collect="always"
   xlink:href="#XMLID_3_"
   id="linearGradient3858"
   gradientUnits="userSpaceOnUse"
   gradientTransform="matrix(0.9,0,0,0.9,-94.980913,15.664079)"
   x1="132.2573"
   y1="90.2788"
   x2="151.0906"
   y2="90.2788" /><linearGradient
   inkscape:collect="always"
   xlink:href="#XMLID_4_"
   id="linearGradient3860"
   gradientUnits="userSpaceOnUse"
   gradientTransform="matrix(0.64033043,0,0,0.64033043,-82.224532,28.094599)"
   x1="132.2573"
   y1="90.2778"
   x2="151.0906"
   y2="90.2778" /><linearGradient
   inkscape:collect="always"
   xlink:href="#XMLID_3_-1"
   id="linearGradient3862"
   gradientUnits="userSpaceOnUse"
   gradientTransform="matrix(1.0710942,0,0,1.0710942,-107.8366,-79.928776)"
   x1="132.25729"
   y1="90.278801"
   x2="151.09061"
   y2="90.278801" /></defs><sodipodi:namedview
   pagecolor="#ffffff"
   bordercolor="#666666"
   borderopacity="1"
   objecttolerance="10"
   gridtolerance="10"
   guidetolerance="10"
   inkscape:pageopacity="0"
   inkscape:pageshadow="2"
   inkscape:window-width="1280"
   inkscape:window-height="996"
   id="namedview93"
   showgrid="false"
   inkscape:zoom="0.71568151"
   inkscape:cx="-89.342334"
   inkscape:cy="36.916296"
   inkscape:window-x="0"
   inkscape:window-y="0"
   inkscape:window-maximized="1"
   inkscape:current-layer="svg2" />
	





<g
   id="g3049"
   transform="translate(31.370254,0)"><path
     style="fill:#bfa794;stroke:#000000;stroke-width:0.44999999"
     d="m 33.349587,41.553017 c -0.021,-0.014 -0.044,-0.017 -0.066,-0.027 0.042,-0.156 -10e-4,-0.328 -0.13,-0.439 -0.009,-0.008 -0.021,-0.01 -0.03,-0.017 0.002,-10e-4 0.004,-0.003 0.006,-0.005 0.183,-0.155 0.206,-0.428 0.051,-0.61 -0.038,-0.046 -0.083,-0.081 -0.133,-0.107 0.062,-0.123 0.054,-0.268 -0.013,-0.392 0.103,-0.1 0.2,-0.206 0.281,-0.328 0.125,-0.188 0.079,-0.431 -0.093,-0.569 0.009,-0.016 0.011,-0.033 0.018,-0.049 h -1.293 c 0.005,0.006 0.006,0.013 0.012,0.018 0.023,0.022 0.051,0.034 0.077,0.05 -0.068,0.063 -0.136,0.125 -0.202,0.19 -0.167,0.142 -0.19,0.376 -0.076,0.555 -0.183,0.126 -0.249,0.37 -0.14,0.568 0.042,0.073 0.104,0.122 0.173,0.159 -0.105,0.172 -0.07,0.385 0.068,0.522 -0.022,0.017 -0.042,0.038 -0.066,0.054 -0.192,0.142 -0.233,0.412 -0.091,0.604 0.064,0.087 0.156,0.139 0.254,0.161 -0.026,0.141 0.011,0.29 0.124,0.395 0.038,0.035 0.081,0.057 0.125,0.076 -0.128,0.172 -0.252,0.349 -0.362,0.535 -0.102,0.166 -0.073,0.37 0.05,0.508 -0.098,0.177 -0.066,0.404 0.098,0.538 0.016,0.014 0.036,0.018 0.054,0.029 -0.067,0.079 -0.138,0.154 -0.216,0.221 -0.182,0.148 -0.212,0.422 -0.061,0.607 0.044,0.054 0.101,0.09 0.162,0.117 -0.091,0.148 -0.089,0.344 0.023,0.49 0.066,0.084 0.157,0.132 0.253,0.152 -0.107,0.121 -0.215,0.241 -0.324,0.361 -0.155,0.179 -0.135,0.452 0.047,0.607 0.021,0.019 0.048,0.027 0.072,0.041 -0.054,0.053 -0.108,0.106 -0.167,0.155 -0.186,0.145 -0.219,0.418 -0.074,0.607 0.035,0.045 0.078,0.08 0.125,0.107 -0.167,0.136 -0.214,0.379 -0.092,0.565 0.037,0.058 0.088,0.099 0.144,0.132 -0.142,0.17 -0.139,0.426 0.018,0.586 0.023,0.022 0.051,0.034 0.077,0.05 -0.068,0.063 -0.136,0.125 -0.202,0.189 -0.167,0.142 -0.19,0.377 -0.076,0.556 -0.183,0.125 -0.249,0.37 -0.14,0.568 0.042,0.072 0.104,0.122 0.173,0.159 -0.105,0.172 -0.07,0.385 0.068,0.522 -0.022,0.017 -0.042,0.038 -0.066,0.054 -0.192,0.142 -0.233,0.412 -0.091,0.604 0.064,0.087 0.156,0.139 0.254,0.161 -0.026,0.141 0.011,0.29 0.124,0.395 0.038,0.035 0.081,0.057 0.125,0.076 -0.128,0.172 -0.252,0.349 -0.362,0.535 -0.102,0.166 -0.073,0.37 0.05,0.508 -0.098,0.177 -0.066,0.404 0.098,0.538 0.016,0.014 0.036,0.018 0.054,0.029 -0.067,0.079 -0.138,0.154 -0.216,0.221 -0.182,0.148 -0.212,0.422 -0.061,0.607 0.044,0.054 0.101,0.09 0.162,0.117 -0.091,0.148 -0.089,0.344 0.023,0.49 0.066,0.084 0.157,0.132 0.253,0.152 -0.107,0.121 -0.215,0.241 -0.324,0.361 -0.155,0.179 -0.135,0.452 0.047,0.607 0.021,0.019 0.048,0.027 0.072,0.041 -0.054,0.053 -0.108,0.106 -0.167,0.155 -0.186,0.145 -0.219,0.418 -0.074,0.607 0.035,0.045 0.078,0.08 0.125,0.106 -0.167,0.137 -0.214,0.379 -0.092,0.565 0.037,0.058 0.088,0.1 0.144,0.133 -0.142,0.17 -0.139,0.426 0.018,0.586 0.023,0.022 0.051,0.034 0.077,0.05 -0.068,0.062 -0.136,0.125 -0.202,0.189 -0.167,0.142 -0.19,0.377 -0.076,0.556 -0.183,0.125 -0.249,0.37 -0.14,0.568 0.042,0.072 0.104,0.122 0.173,0.159 -0.105,0.172 -0.07,0.385 0.068,0.522 -0.022,0.017 -0.042,0.038 -0.066,0.054 -0.192,0.142 -0.233,0.412 -0.091,0.604 0.064,0.087 0.156,0.139 0.254,0.161 -0.026,0.141 0.011,0.29 0.124,0.394 0.038,0.035 0.081,0.058 0.125,0.077 -0.128,0.172 -0.252,0.349 -0.362,0.535 -0.102,0.166 -0.073,0.37 0.05,0.508 -0.098,0.177 -0.066,0.403 0.098,0.538 0.016,0.014 0.036,0.018 0.054,0.029 -0.067,0.079 -0.138,0.154 -0.216,0.221 -0.182,0.148 -0.212,0.422 -0.061,0.607 0.044,0.054 0.101,0.09 0.162,0.117 -0.091,0.149 -0.089,0.344 0.023,0.491 0.066,0.084 0.157,0.132 0.253,0.152 -0.107,0.121 -0.215,0.241 -0.324,0.361 -0.155,0.179 -0.135,0.452 0.047,0.607 0.021,0.019 0.048,0.027 0.072,0.041 -0.054,0.053 -0.108,0.106 -0.167,0.155 -0.186,0.145 -0.219,0.418 -0.074,0.607 0.035,0.045 0.078,0.08 0.125,0.106 -0.167,0.137 -0.214,0.379 -0.092,0.565 0.037,0.058 0.088,0.1 0.144,0.132 -0.142,0.17 -0.139,0.426 0.018,0.586 0.023,0.022 0.051,0.034 0.077,0.05 -0.068,0.062 -0.136,0.125 -0.202,0.189 -0.167,0.142 -0.19,0.377 -0.076,0.556 -0.183,0.125 -0.249,0.37 -0.14,0.568 0.042,0.072 0.104,0.122 0.173,0.159 -0.105,0.172 -0.07,0.385 0.068,0.522 -0.022,0.018 -0.042,0.039 -0.066,0.055 -0.192,0.142 -0.233,0.412 -0.091,0.604 0.064,0.087 0.156,0.139 0.254,0.161 -0.026,0.141 0.011,0.29 0.124,0.394 0.038,0.035 0.081,0.058 0.125,0.076 -0.128,0.173 -0.252,0.349 -0.362,0.535 -0.102,0.165 -0.073,0.37 0.05,0.508 -0.098,0.177 -0.066,0.403 0.098,0.538 0.016,0.014 0.036,0.018 0.054,0.029 -0.067,0.079 -0.138,0.154 -0.216,0.221 -0.182,0.148 -0.212,0.422 -0.061,0.607 0.044,0.054 0.101,0.09 0.162,0.117 -0.091,0.149 -0.089,0.344 0.023,0.491 0.066,0.084 0.157,0.132 0.253,0.152 -0.107,0.121 -0.215,0.241 -0.324,0.36 -0.155,0.179 -0.135,0.453 0.047,0.608 0.021,0.019 0.048,0.027 0.072,0.041 -0.054,0.053 -0.108,0.106 -0.167,0.155 -0.186,0.145 -0.219,0.418 -0.074,0.607 0.035,0.045 0.078,0.08 0.125,0.106 -0.167,0.137 -0.214,0.379 -0.092,0.565 0.037,0.058 0.088,0.1 0.144,0.132 -0.142,0.17 -0.139,0.426 0.018,0.586 0.023,0.022 0.051,0.034 0.077,0.05 -0.068,0.062 -0.136,0.125 -0.202,0.189 -0.167,0.142 -0.19,0.377 -0.076,0.556 -0.183,0.125 -0.249,0.369 -0.14,0.568 0.042,0.072 0.104,0.122 0.173,0.159 -0.105,0.172 -0.07,0.386 0.068,0.522 -0.022,0.018 -0.042,0.039 -0.066,0.054 -0.192,0.142 -0.233,0.412 -0.091,0.604 0.064,0.087 0.156,0.139 0.254,0.161 -0.026,0.141 0.011,0.29 0.124,0.394 0.038,0.035 0.081,0.058 0.125,0.076 -0.128,0.173 -0.252,0.349 -0.362,0.535 -0.102,0.166 -0.073,0.37 0.05,0.509 -0.098,0.177 -0.066,0.403 0.098,0.538 0.016,0.014 0.036,0.018 0.054,0.029 -0.067,0.079 -0.138,0.154 -0.216,0.221 -0.182,0.148 -0.212,0.422 -0.061,0.607 0.044,0.054 0.101,0.09 0.162,0.117 -0.091,0.149 -0.089,0.344 0.023,0.491 0.066,0.083 0.157,0.132 0.253,0.152 -0.107,0.121 -0.215,0.241 -0.324,0.36 -0.155,0.179 -0.135,0.453 0.047,0.608 0.021,0.019 0.048,0.027 0.072,0.041 -0.054,0.053 -0.108,0.106 -0.167,0.155 -0.186,0.146 -0.219,0.418 -0.074,0.608 0.035,0.045 0.078,0.08 0.125,0.106 -0.167,0.137 -0.214,0.379 -0.092,0.565 0.037,0.058 0.088,0.1 0.144,0.132 -0.142,0.17 -0.139,0.426 0.018,0.586 0.023,0.022 0.051,0.034 0.077,0.05 -0.068,0.062 -0.136,0.125 -0.202,0.189 -0.167,0.142 -0.19,0.376 -0.076,0.556 -0.183,0.125 -0.249,0.369 -0.14,0.568 0.042,0.072 0.104,0.122 0.173,0.159 -0.105,0.172 -0.07,0.386 0.068,0.522 -0.022,0.018 -0.042,0.039 -0.066,0.054 -0.192,0.142 -0.233,0.412 -0.091,0.604 0.142,0.193 0.412,0.233 0.604,0.091 0.32,-0.199 0.506,-0.553 0.823,-0.756 0.183,-0.155 0.206,-0.429 0.051,-0.611 -0.038,-0.045 -0.083,-0.081 -0.133,-0.106 0.062,-0.123 0.054,-0.268 -0.013,-0.392 0.103,-0.1 0.2,-0.207 0.281,-0.328 0.125,-0.188 0.079,-0.432 -0.093,-0.569 0.117,-0.197 0.067,-0.451 -0.126,-0.582 -0.005,-0.003 -0.011,-0.003 -0.016,-0.007 0.135,-0.158 0.263,-0.322 0.37,-0.503 0.112,-0.204 0.042,-0.458 -0.156,-0.577 0.032,-0.143 -0.003,-0.299 -0.118,-0.409 -0.022,-0.021 -0.048,-0.03 -0.073,-0.045 0.114,-0.149 0.217,-0.308 0.289,-0.495 0.049,-0.176 -0.018,-0.356 -0.154,-0.46 0.073,-0.09 0.151,-0.176 0.218,-0.272 0.138,-0.192 0.094,-0.462 -0.102,-0.601 -0.061,-0.043 -0.129,-0.063 -0.198,-0.071 0.066,-0.099 0.136,-0.194 0.219,-0.28 0.148,-0.186 0.122,-0.459 -0.067,-0.607 -0.029,-0.023 -0.062,-0.034 -0.094,-0.049 0.053,-0.086 0.107,-0.173 0.161,-0.258 0.085,-0.161 0.058,-0.353 -0.055,-0.484 0.15,-0.179 0.136,-0.444 -0.04,-0.6 -0.01,-0.01 -0.024,-0.013 -0.035,-0.021 0.075,-0.092 0.149,-0.185 0.221,-0.279 0.131,-0.199 0.081,-0.469 -0.118,-0.601 -0.021,-0.014 -0.044,-0.017 -0.066,-0.027 0.042,-0.156 -0.001,-0.328 -0.13,-0.439 -0.009,-0.008 -0.021,-0.01 -0.03,-0.017 0.002,-0.002 0.004,-0.004 0.006,-0.005 0.183,-0.155 0.206,-0.429 0.051,-0.611 -0.038,-0.045 -0.083,-0.081 -0.133,-0.106 0.062,-0.123 0.054,-0.268 -0.013,-0.392 0.103,-0.1 0.2,-0.207 0.281,-0.328 0.125,-0.188 0.079,-0.432 -0.093,-0.569 0.117,-0.197 0.067,-0.451 -0.126,-0.582 -0.005,-0.003 -0.011,-0.003 -0.016,-0.007 0.135,-0.158 0.263,-0.322 0.37,-0.503 0.112,-0.204 0.042,-0.458 -0.156,-0.576 0.032,-0.144 -0.003,-0.3 -0.118,-0.409 -0.022,-0.021 -0.048,-0.03 -0.073,-0.045 0.114,-0.149 0.217,-0.308 0.289,-0.495 0.049,-0.176 -0.018,-0.356 -0.154,-0.46 0.073,-0.09 0.151,-0.176 0.218,-0.272 0.138,-0.192 0.094,-0.462 -0.102,-0.601 -0.061,-0.043 -0.129,-0.062 -0.198,-0.071 0.066,-0.099 0.136,-0.194 0.219,-0.28 0.148,-0.186 0.122,-0.459 -0.067,-0.607 -0.029,-0.023 -0.062,-0.034 -0.094,-0.049 0.053,-0.086 0.107,-0.173 0.161,-0.258 0.085,-0.161 0.058,-0.353 -0.055,-0.484 0.15,-0.179 0.136,-0.444 -0.04,-0.6 -0.01,-0.01 -0.024,-0.013 -0.035,-0.021 0.075,-0.093 0.149,-0.186 0.221,-0.28 0.131,-0.199 0.081,-0.469 -0.118,-0.601 -0.021,-0.014 -0.044,-0.018 -0.066,-0.027 0.042,-0.156 -10e-4,-0.328 -0.13,-0.439 -0.009,-0.008 -0.021,-0.01 -0.03,-0.017 0.002,-0.002 0.004,-0.004 0.006,-0.005 0.183,-0.155 0.206,-0.429 0.051,-0.611 -0.038,-0.045 -0.083,-0.081 -0.133,-0.106 0.062,-0.123 0.054,-0.268 -0.013,-0.392 0.103,-0.1 0.2,-0.206 0.281,-0.328 0.125,-0.188 0.079,-0.432 -0.093,-0.569 0.117,-0.197 0.067,-0.451 -0.126,-0.582 -0.005,-0.003 -0.011,-0.003 -0.016,-0.006 0.135,-0.158 0.263,-0.323 0.37,-0.503 0.112,-0.204 0.042,-0.458 -0.156,-0.576 0.032,-0.144 -0.003,-0.3 -0.118,-0.409 -0.022,-0.021 -0.048,-0.03 -0.073,-0.045 0.114,-0.149 0.217,-0.308 0.289,-0.495 0.049,-0.176 -0.018,-0.356 -0.154,-0.46 0.073,-0.09 0.151,-0.176 0.218,-0.272 0.138,-0.192 0.094,-0.462 -0.102,-0.601 -0.061,-0.043 -0.129,-0.063 -0.198,-0.071 0.066,-0.099 0.136,-0.194 0.219,-0.28 0.148,-0.186 0.122,-0.459 -0.067,-0.607 -0.029,-0.023 -0.062,-0.034 -0.094,-0.049 0.053,-0.086 0.107,-0.173 0.161,-0.258 0.085,-0.161 0.058,-0.353 -0.055,-0.483 0.15,-0.179 0.136,-0.444 -0.04,-0.6 -0.01,-0.009 -0.024,-0.013 -0.035,-0.021 0.075,-0.092 0.149,-0.185 0.221,-0.279 0.131,-0.199 0.081,-0.469 -0.118,-0.601 -0.021,-0.014 -0.044,-0.017 -0.066,-0.027 0.042,-0.156 -10e-4,-0.328 -0.13,-0.439 -0.009,-0.008 -0.021,-0.01 -0.03,-0.017 0.002,-10e-4 0.004,-0.004 0.006,-0.005 0.183,-0.155 0.206,-0.428 0.051,-0.611 -0.038,-0.045 -0.083,-0.081 -0.133,-0.106 0.062,-0.123 0.054,-0.268 -0.013,-0.392 0.103,-0.1 0.2,-0.206 0.281,-0.328 0.125,-0.188 0.079,-0.431 -0.093,-0.569 0.117,-0.197 0.067,-0.451 -0.126,-0.582 -0.005,-0.003 -0.011,-0.003 -0.016,-0.006 0.135,-0.159 0.263,-0.323 0.37,-0.503 0.112,-0.204 0.042,-0.457 -0.156,-0.576 0.032,-0.144 -0.003,-0.299 -0.118,-0.409 -0.022,-0.021 -0.048,-0.03 -0.073,-0.045 0.114,-0.149 0.217,-0.308 0.289,-0.495 0.049,-0.176 -0.018,-0.355 -0.154,-0.46 0.073,-0.09 0.151,-0.176 0.218,-0.272 0.138,-0.192 0.094,-0.462 -0.102,-0.601 -0.061,-0.043 -0.129,-0.063 -0.198,-0.071 0.066,-0.099 0.136,-0.194 0.219,-0.28 0.148,-0.186 0.122,-0.459 -0.067,-0.607 -0.029,-0.023 -0.062,-0.034 -0.094,-0.049 0.053,-0.086 0.107,-0.173 0.161,-0.258 0.085,-0.161 0.058,-0.353 -0.055,-0.483 0.15,-0.179 0.136,-0.444 -0.04,-0.6 -0.01,-0.009 -0.024,-0.012 -0.035,-0.021 0.075,-0.093 0.149,-0.185 0.221,-0.28 0.131,-0.199 0.081,-0.469 -0.118,-0.601 -0.021,-0.014 -0.044,-0.017 -0.066,-0.027 0.042,-0.156 -0.001,-0.328 -0.13,-0.439 -0.009,-0.008 -0.021,-0.01 -0.03,-0.017 0.002,-10e-4 0.004,-0.003 0.006,-0.005 0.183,-0.155 0.206,-0.428 0.051,-0.61 -0.038,-0.046 -0.083,-0.082 -0.133,-0.107 0.062,-0.123 0.054,-0.268 -0.013,-0.392 0.103,-0.1 0.2,-0.206 0.281,-0.328 0.125,-0.188 0.079,-0.431 -0.093,-0.569 0.117,-0.197 0.067,-0.451 -0.126,-0.582 -0.005,-0.003 -0.011,-0.003 -0.016,-0.006 0.135,-0.158 0.263,-0.323 0.37,-0.503 0.112,-0.204 0.042,-0.457 -0.156,-0.576 0.032,-0.144 -0.003,-0.299 -0.118,-0.409 -0.022,-0.021 -0.048,-0.03 -0.073,-0.045 0.114,-0.149 0.217,-0.307 0.289,-0.495 0.049,-0.176 -0.018,-0.355 -0.154,-0.46 0.073,-0.09 0.151,-0.176 0.218,-0.272 0.138,-0.192 0.094,-0.462 -0.102,-0.601 -0.061,-0.043 -0.129,-0.063 -0.198,-0.071 0.066,-0.099 0.136,-0.194 0.219,-0.28 0.148,-0.186 0.122,-0.459 -0.067,-0.607 -0.029,-0.023 -0.062,-0.034 -0.094,-0.048 0.053,-0.087 0.107,-0.174 0.161,-0.259 0.085,-0.161 0.058,-0.352 -0.055,-0.483 0.15,-0.179 0.136,-0.444 -0.04,-0.6 -0.01,-0.009 -0.024,-0.012 -0.035,-0.021 0.075,-0.092 0.149,-0.185 0.221,-0.28 0.157,-0.192 0.106,-0.462 -0.093,-0.594 z"
     id="path7"
     inkscape:connector-curvature="0" /><path
     id="path9"
     d="m 44.125,-14.90625 c -0.05453,0.01313 -0.10825,0.05825 -0.15625,0.09375 -0.32,0.199 -0.4955,0.548 -0.8125,0.75 -0.182,0.155 -0.2175,0.41175 -0.0625,0.59375 0.038,0.045 0.075,0.1 0.125,0.125 -0.062,0.123 -0.03575,0.251 0.03125,0.375 -0.104,0.1 -0.20025,0.22175 -0.28125,0.34375 -0.124,0.188 -0.07725,0.4255 0.09375,0.5625 -0.117,0.197 -0.068,0.46275 0.125,0.59375 -0.135,0.158 -0.267,0.32 -0.375,0.5 -0.112,0.204 -0.04175,0.4435 0.15625,0.5625 -0.032,0.144 0.011,0.29625 0.125,0.40625 0.022,0.021 0.06975,0.0475 0.09375,0.0625 -0.114,0.149 -0.2405,0.313 -0.3125,0.5 -0.049,0.176 0.02025,0.3325 0.15625,0.4375 -0.073,0.09 -0.15175,0.18525 -0.21875,0.28125 -0.138,0.192 -0.10225,0.45475 0.09375,0.59375 0.061,0.043 0.14975,0.08575 0.21875,0.09375 -0.066,0.099 -0.13675,0.19525 -0.21875,0.28125 -0.149,0.186 -0.1265,0.44575 0.0625,0.59375 0.028,0.023 0.06275,0.0475 0.09375,0.0625 -0.053,0.086 -0.10225,0.165 -0.15625,0.25 -0.086,0.161 -0.0495,0.33875 0.0625,0.46875 -0.15,0.179 -0.14475,0.43775 0.03125,0.59375 0.01,0.009 0.02025,0.02325 0.03125,0.03125 -0.075,0.093 -0.14675,0.18625 -0.21875,0.28125 -0.132,0.199 -0.074,0.46175 0.125,0.59375 0.021,0.014 0.0405,0.02125 0.0625,0.03125 -0.041,0.156 -0.003,0.3265 0.125,0.4375 0.009,0.008 0.02125,0.02425 0.03125,0.03125 -0.182,0.155 -0.2175,0.41175 -0.0625,0.59375 0.038,0.045 0.075,0.1 0.125,0.125 -0.062,0.123 -0.03575,0.251 0.03125,0.375 -0.104,0.1 -0.20025,0.22175 -0.28125,0.34375 -0.124,0.188 -0.07725,0.4245 0.09375,0.5625 -0.117,0.197 -0.068,0.46275 0.125,0.59375 -0.135,0.158 -0.267,0.32 -0.375,0.5 -0.112,0.204 -0.04175,0.4435 0.15625,0.5625 -0.032,0.144 0.011,0.3275 0.125,0.4375 0.022,0.021 0.0385,0.01625 0.0625,0.03125 -0.114,0.149 -0.20925,0.313 -0.28125,0.5 -0.049,0.176 0.02025,0.36375 0.15625,0.46875 -0.073,0.09 -0.15175,0.154 -0.21875,0.25 -0.138,0.192 -0.10225,0.45475 0.09375,0.59375 0.061,0.043 0.14975,0.08575 0.21875,0.09375 -0.066,0.099 -0.13675,0.19525 -0.21875,0.28125 -0.149,0.186 -0.1265,0.44575 0.0625,0.59375 0.028,0.023 0.06275,0.0485 0.09375,0.0625 -0.053,0.087 -0.10225,0.165 -0.15625,0.25 -0.086,0.161 -0.08075,0.33775 0.03125,0.46875 -0.15,0.179 -0.1135,0.469 0.0625,0.625 0.01,0.009 0.02025,-0.009 0.03125,0 -0.075,0.092 -0.14675,0.18625 -0.21875,0.28125 -0.132,0.199 -0.074,0.46175 0.125,0.59375 0.021,0.014 0.0405,0.02125 0.0625,0.03125 -0.041,0.156 -0.003,0.3265 0.125,0.4375 0.009,0.008 0.02125,0.02425 0.03125,0.03125 -0.182,0.156 -0.2175,0.443 -0.0625,0.625 l 1.5,0 c -0.03503,-0.036602 -0.08089,-0.070094 -0.125,-0.09375 0.105,-0.172 0.0745,-0.39425 -0.0625,-0.53125 0.022,-0.017 0.0385,-0.0465 0.0625,-0.0625 0.192,-0.142 0.23575,-0.40175 0.09375,-0.59375 -0.064,-0.087 -0.152,-0.13425 -0.25,-0.15625 0.026,-0.141 -0.012,-0.30125 -0.125,-0.40625 -0.038,-0.035 -0.081,-0.0445 -0.125,-0.0625 0.128,-0.172 0.265,-0.3765 0.375,-0.5625 0.102,-0.166 0.0605,-0.362 -0.0625,-0.5 0.098,-0.177 0.07025,-0.39725 -0.09375,-0.53125 -0.016,-0.013 -0.0445,-0.02125 -0.0625,-0.03125 0.067,-0.079 0.14075,-0.15175 0.21875,-0.21875 0.182,-0.148 0.2135,-0.40875 0.0625,-0.59375 -0.044,-0.054 -0.09525,-0.098 -0.15625,-0.125 0.091,-0.148 0.08175,-0.354 -0.03125,-0.5 -0.066,-0.084 -0.155,-0.13625 -0.25,-0.15625 0.107,-0.121 0.23575,-0.22375 0.34375,-0.34375 0.155,-0.179 0.1195,-0.47 -0.0625,-0.625 -0.022,-0.019 -0.0375,-0.01725 -0.0625,-0.03125 0.054,-0.053 0.09725,-0.10725 0.15625,-0.15625 0.186,-0.145 0.2075,-0.40475 0.0625,-0.59375 -0.035,-0.045 -0.078,-0.098 -0.125,-0.125 0.167,-0.136 0.21575,-0.3775 0.09375,-0.5625 -0.037,-0.058 -0.069,-0.092 -0.125,-0.125 0.142,-0.17 0.12675,-0.43375 -0.03125,-0.59375 -0.022,-0.022 -0.0365,-0.01525 -0.0625,-0.03125 0.068,-0.063 0.1215,-0.1235 0.1875,-0.1875 0.167,-0.142 0.20775,-0.3835 0.09375,-0.5625 0.183,-0.125 0.234,-0.3645 0.125,-0.5625 C 44.61525,-3.7595 44.569,-3.838 44.5,-3.875 c 0.105,-0.172 0.04325,-0.363 -0.09375,-0.5 0.022,-0.018 0.0385,-0.0465 0.0625,-0.0625 0.192,-0.142 0.23575,-0.40175 0.09375,-0.59375 -0.064,-0.087 -0.152,-0.13425 -0.25,-0.15625 0.026,-0.141 -0.012,-0.30125 -0.125,-0.40625 -0.038,-0.035 -0.081,-0.07475 -0.125,-0.09375 0.128,-0.172 0.265,-0.34525 0.375,-0.53125 0.102,-0.166 0.0605,-0.362 -0.0625,-0.5 0.098,-0.177 0.07025,-0.39625 -0.09375,-0.53125 -0.016,-0.014 -0.0445,-0.02025 -0.0625,-0.03125 0.067,-0.079 0.14075,-0.15175 0.21875,-0.21875 0.182,-0.148 0.2135,-0.44 0.0625,-0.625 -0.044,-0.054 -0.09525,-0.06675 -0.15625,-0.09375 0.091,-0.149 0.08175,-0.353 -0.03125,-0.5 -0.066,-0.084 -0.155,-0.13625 -0.25,-0.15625 0.107,-0.121 0.23575,-0.22375 0.34375,-0.34375 0.155,-0.179 0.1195,-0.47 -0.0625,-0.625 -0.022,-0.019 -0.0375,-0.01725 -0.0625,-0.03125 0.054,-0.053 0.09725,-0.1072497 0.15625,-0.15625 0.186,-0.145 0.2075,-0.436 0.0625,-0.625 -0.035,-0.045 -0.078,-0.06775 -0.125,-0.09375 0.167,-0.137 0.21575,-0.3765 0.09375,-0.5625 -0.037,-0.058 -0.069,-0.093 -0.125,-0.125 0.142,-0.17 0.12675,-0.43275 -0.03125,-0.59375 -0.022,-0.022 -0.0365,-0.0465 -0.0625,-0.0625 0.068,-0.063 0.1215,-0.1235 0.1875,-0.1875 0.167,-0.142 0.20775,-0.35225 0.09375,-0.53125 0.183,-0.125 0.234,-0.39575 0.125,-0.59375 -0.041,-0.072 -0.08725,-0.11925 -0.15625,-0.15625 0.105,-0.172 0.04325,-0.363 -0.09375,-0.5 0.022,-0.018 0.06975,-0.0465 0.09375,-0.0625 0.192,-0.142 0.2045,-0.433 0.0625,-0.625 -0.1065,-0.144 -0.273906,-0.195625 -0.4375,-0.15625 z"
     style="fill:#bfa794;stroke:#000000;stroke-width:0.44999999"
     inkscape:connector-curvature="0" /><g
     transform="matrix(0,-1,1,0,16.628295,107.98552)"
     id="g23">
			<line
   style="fill:none;stroke:#000000;stroke-width:0.44999999"
   x1="140.509"
   y1="0.088"
   x2="140.509"
   y2="32.487999"
   id="line25" />
			<line
   style="fill:none;stroke:#000000;stroke-width:0.44999999"
   x1="140.883"
   y1="3.576"
   x2="144.717"
   y2="0.168"
   id="line27" />
			<line
   style="fill:none;stroke:#000000;stroke-width:0.44999999"
   x1="144.605"
   y1="30.993"
   x2="146.17101"
   y2="29.601"
   id="line29" />
			<line
   style="fill:none;stroke:#000000;stroke-width:0.44999999"
   x1="140.883"
   y1="7.402"
   x2="146.284"
   y2="2.6029999"
   id="line31" />
			<line
   style="fill:none;stroke:#000000;stroke-width:0.44999999"
   x1="140.883"
   y1="11.229"
   x2="146.284"
   y2="6.4289999"
   id="line33" />
			<line
   style="fill:none;stroke:#000000;stroke-width:0.44999999"
   x1="140.883"
   y1="15.056"
   x2="146.284"
   y2="10.256"
   id="line35" />
			<line
   style="fill:none;stroke:#000000;stroke-width:0.44999999"
   x1="140.883"
   y1="18.882999"
   x2="146.284"
   y2="14.083"
   id="line37" />
			<line
   style="fill:none;stroke:#000000;stroke-width:0.44999999"
   x1="140.883"
   y1="22.709"
   x2="146.284"
   y2="17.91"
   id="line39" />
			<line
   style="fill:none;stroke:#000000;stroke-width:0.44999999"
   x1="140.883"
   y1="26.535999"
   x2="146.284"
   y2="21.736"
   id="line41" />
			<line
   style="fill:none;stroke:#000000;stroke-width:0.44999999"
   x1="140.883"
   y1="30.363001"
   x2="146.284"
   y2="25.563"
   id="line43" />
		</g><rect
     x="24.249584"
     y="86.114082"
     style="fill:url(#linearGradient3858);stroke:#000000;stroke-width:0.625;stroke-miterlimit:4;stroke-dasharray:none"
     width="16.5"
     height="21.6"
     id="rect62" /><path
     style="fill:#bfa794;stroke:#000000;stroke-width:0.44999999"
     d="M 9.707,43.615 C 9.686,43.601 9.663,43.598 9.641,43.588 9.683,43.432 9.64,43.26 9.511,43.149 9.502,43.141 9.49,43.139 9.481,43.132 9.483,43.131 9.485,43.128 9.487,43.127 9.67,42.972 9.693,42.699 9.538,42.517 9.5,42.471 9.455,42.436 9.405,42.41 9.467,42.287 9.459,42.142 9.392,42.018 9.495,41.918 9.592,41.812 9.673,41.69 9.797,41.502 9.751,41.259 9.579,41.121 9.588,41.105 9.59,41.088 9.597,41.072 H 8.305 c 0.005,0.006 0.006,0.013 0.012,0.018 0.023,0.022 0.051,0.034 0.077,0.05 -0.068,0.063 -0.136,0.125 -0.202,0.189 -0.167,0.142 -0.19,0.377 -0.076,0.556 -0.183,0.126 -0.249,0.37 -0.14,0.568 0.042,0.072 0.104,0.122 0.173,0.159 -0.105,0.172 -0.07,0.385 0.068,0.522 -0.022,0.017 -0.042,0.038 -0.066,0.054 -0.193,0.142 -0.233,0.412 -0.091,0.604 0.064,0.087 0.156,0.139 0.254,0.161 -0.026,0.141 0.011,0.29 0.124,0.395 0.038,0.035 0.081,0.057 0.125,0.076 -0.128,0.173 -0.252,0.349 -0.362,0.535 -0.102,0.166 -0.073,0.37 0.05,0.508 -0.098,0.177 -0.066,0.403 0.098,0.538 0.016,0.014 0.036,0.018 0.054,0.029 -0.067,0.079 -0.137,0.154 -0.216,0.221 -0.182,0.148 -0.212,0.422 -0.061,0.607 0.044,0.054 0.101,0.09 0.162,0.117 -0.091,0.148 -0.089,0.344 0.023,0.49 0.066,0.084 0.157,0.132 0.253,0.152 -0.107,0.121 -0.215,0.241 -0.324,0.361 -0.155,0.179 -0.135,0.452 0.047,0.607 0.021,0.019 0.048,0.027 0.072,0.041 -0.054,0.053 -0.108,0.106 -0.167,0.155 -0.186,0.145 -0.219,0.418 -0.074,0.607 0.035,0.045 0.078,0.08 0.125,0.106 -0.167,0.137 -0.214,0.379 -0.092,0.565 0.037,0.058 0.088,0.1 0.144,0.133 -0.142,0.17 -0.139,0.426 0.018,0.586 0.023,0.022 0.051,0.034 0.077,0.05 -0.068,0.063 -0.136,0.125 -0.202,0.189 -0.167,0.142 -0.19,0.377 -0.076,0.556 -0.183,0.125 -0.249,0.37 -0.14,0.568 0.042,0.072 0.104,0.122 0.173,0.159 -0.105,0.172 -0.07,0.385 0.068,0.522 -0.022,0.017 -0.042,0.038 -0.066,0.054 -0.192,0.142 -0.232,0.412 -0.091,0.604 0.064,0.087 0.156,0.139 0.254,0.161 -0.026,0.141 0.011,0.29 0.124,0.394 0.038,0.035 0.081,0.058 0.125,0.076 -0.128,0.173 -0.252,0.349 -0.362,0.535 -0.102,0.166 -0.073,0.37 0.05,0.508 -0.098,0.177 -0.066,0.403 0.098,0.538 0.016,0.014 0.036,0.018 0.054,0.029 -0.067,0.079 -0.137,0.154 -0.216,0.221 -0.182,0.148 -0.212,0.422 -0.061,0.607 0.044,0.054 0.101,0.09 0.162,0.117 -0.091,0.149 -0.089,0.344 0.023,0.491 0.066,0.084 0.157,0.132 0.253,0.152 -0.107,0.121 -0.215,0.241 -0.324,0.361 -0.155,0.179 -0.135,0.452 0.047,0.607 0.021,0.019 0.048,0.027 0.072,0.041 -0.054,0.053 -0.108,0.106 -0.167,0.155 -0.186,0.145 -0.219,0.418 -0.074,0.607 0.035,0.045 0.078,0.08 0.125,0.106 -0.167,0.137 -0.214,0.379 -0.092,0.565 0.037,0.058 0.088,0.099 0.144,0.132 -0.142,0.17 -0.139,0.426 0.018,0.586 0.023,0.022 0.051,0.034 0.077,0.05 -0.068,0.062 -0.136,0.125 -0.202,0.189 -0.167,0.142 -0.19,0.377 -0.076,0.556 -0.183,0.125 -0.249,0.37 -0.14,0.568 0.049,0.078 0.112,0.127 0.181,0.164 -0.105,0.172 -0.07,0.385 0.068,0.522 -0.022,0.017 -0.042,0.038 -0.066,0.054 -0.192,0.142 -0.232,0.412 -0.091,0.604 0.064,0.087 0.156,0.139 0.254,0.161 -0.026,0.141 0.011,0.29 0.124,0.394 0.038,0.035 0.081,0.058 0.125,0.076 -0.128,0.173 -0.252,0.349 -0.362,0.535 -0.102,0.165 -0.073,0.37 0.05,0.508 -0.098,0.177 -0.066,0.403 0.098,0.538 0.016,0.014 0.036,0.018 0.054,0.029 -0.067,0.079 -0.137,0.154 -0.216,0.221 -0.182,0.148 -0.212,0.422 -0.061,0.607 0.044,0.054 0.101,0.09 0.162,0.117 -0.091,0.149 -0.089,0.344 0.023,0.491 0.066,0.083 0.157,0.132 0.253,0.152 -0.107,0.121 -0.215,0.241 -0.324,0.36 -0.155,0.179 -0.135,0.453 0.047,0.608 0.021,0.019 0.048,0.027 0.072,0.041 -0.054,0.053 -0.108,0.106 -0.167,0.155 -0.186,0.145 -0.219,0.418 -0.074,0.607 0.035,0.045 0.078,0.08 0.125,0.106 -0.167,0.137 -0.214,0.379 -0.092,0.565 0.037,0.058 0.088,0.1 0.144,0.132 -0.142,0.17 -0.139,0.426 0.018,0.586 0.023,0.022 0.051,0.034 0.077,0.05 -0.068,0.062 -0.136,0.125 -0.202,0.189 -0.167,0.142 -0.19,0.377 -0.076,0.556 -0.183,0.125 -0.249,0.37 -0.14,0.568 0.042,0.072 0.104,0.122 0.173,0.159 -0.105,0.171 -0.07,0.385 0.068,0.522 -0.022,0.018 -0.042,0.039 -0.066,0.054 -0.192,0.142 -0.232,0.412 -0.091,0.604 0.064,0.087 0.156,0.139 0.254,0.161 -0.026,0.141 0.011,0.29 0.124,0.394 0.038,0.035 0.081,0.058 0.125,0.076 -0.128,0.173 -0.252,0.349 -0.362,0.535 -0.102,0.166 -0.073,0.37 0.05,0.509 -0.098,0.177 -0.066,0.403 0.098,0.538 0.016,0.014 0.036,0.018 0.054,0.029 -0.067,0.079 -0.137,0.154 -0.216,0.221 -0.182,0.148 -0.212,0.422 -0.061,0.607 0.044,0.054 0.101,0.09 0.162,0.117 -0.091,0.149 -0.089,0.344 0.023,0.491 0.066,0.083 0.157,0.132 0.253,0.152 -0.107,0.121 -0.215,0.241 -0.324,0.36 -0.155,0.179 -0.135,0.453 0.047,0.607 0.021,0.019 0.048,0.027 0.072,0.041 -0.054,0.053 -0.108,0.106 -0.167,0.155 -0.186,0.145 -0.219,0.418 -0.074,0.607 0.035,0.045 0.078,0.08 0.125,0.106 -0.167,0.137 -0.214,0.379 -0.092,0.565 0.037,0.058 0.088,0.1 0.144,0.132 -0.142,0.17 -0.139,0.426 0.018,0.586 0.023,0.022 0.051,0.034 0.077,0.05 -0.068,0.062 -0.136,0.125 -0.202,0.189 -0.167,0.142 -0.19,0.376 -0.076,0.556 -0.183,0.125 -0.249,0.369 -0.14,0.568 0.042,0.072 0.104,0.122 0.173,0.159 -0.105,0.172 -0.07,0.386 0.068,0.522 -0.022,0.018 -0.042,0.039 -0.066,0.054 -0.192,0.142 -0.232,0.412 -0.091,0.604 0.064,0.087 0.156,0.139 0.254,0.16 -0.026,0.141 0.011,0.291 0.124,0.395 0.038,0.035 0.081,0.058 0.125,0.076 -0.128,0.173 -0.252,0.349 -0.362,0.535 -0.102,0.166 -0.073,0.37 0.05,0.509 -0.098,0.177 -0.066,0.403 0.098,0.538 0.016,0.014 0.036,0.018 0.054,0.029 -0.067,0.079 -0.137,0.154 -0.216,0.221 -0.182,0.148 -0.212,0.421 -0.061,0.607 0.044,0.054 0.101,0.09 0.162,0.117 -0.091,0.149 -0.089,0.344 0.023,0.491 0.066,0.083 0.157,0.131 0.253,0.152 -0.107,0.121 -0.215,0.241 -0.324,0.36 -0.155,0.179 -0.135,0.453 0.047,0.607 0.021,0.019 0.048,0.027 0.072,0.041 -0.054,0.053 -0.108,0.106 -0.167,0.155 -0.186,0.145 -0.219,0.418 -0.074,0.607 0.035,0.045 0.078,0.081 0.125,0.107 -0.167,0.137 -0.214,0.379 -0.092,0.565 0.037,0.058 0.088,0.1 0.144,0.132 -0.142,0.17 -0.139,0.426 0.018,0.586 0.023,0.022 0.051,0.034 0.077,0.05 -0.068,0.062 -0.136,0.125 -0.202,0.189 -0.167,0.142 -0.19,0.376 -0.076,0.556 -0.183,0.125 -0.249,0.369 -0.14,0.568 0.042,0.073 0.104,0.122 0.173,0.159 -0.105,0.172 -0.07,0.386 0.068,0.522 -0.022,0.018 -0.042,0.039 -0.066,0.054 -0.192,0.142 -0.232,0.412 -0.091,0.604 0.141,0.192 0.412,0.232 0.604,0.091 0.32,-0.199 0.506,-0.553 0.823,-0.756 C 9.658,91.434 9.681,91.16 9.526,90.978 9.488,90.933 9.443,90.897 9.393,90.872 9.455,90.749 9.447,90.604 9.38,90.48 9.483,90.38 9.58,90.273 9.661,90.151 9.785,89.963 9.739,89.72 9.567,89.582 9.684,89.385 9.634,89.131 9.441,89 9.436,88.997 9.43,88.996 9.425,88.993 9.561,88.835 9.688,88.671 9.796,88.49 9.908,88.286 9.838,88.032 9.64,87.913 9.672,87.77 9.637,87.614 9.522,87.504 9.5,87.483 9.474,87.474 9.449,87.459 9.563,87.31 9.666,87.151 9.738,86.964 9.8,86.8 9.733,86.62 9.597,86.516 9.67,86.425 9.748,86.34 9.815,86.244 9.953,86.052 9.909,85.782 9.713,85.643 9.652,85.6 9.584,85.581 9.515,85.572 9.581,85.473 9.651,85.378 9.734,85.293 9.882,85.107 9.856,84.834 9.667,84.686 9.638,84.663 9.605,84.652 9.573,84.637 9.627,84.55 9.68,84.464 9.734,84.379 9.819,84.218 9.792,84.026 9.679,83.895 9.829,83.716 9.815,83.451 9.639,83.295 9.629,83.285 9.615,83.282 9.604,83.274 9.679,83.182 9.753,83.089 9.825,82.995 9.956,82.796 9.906,82.526 9.707,82.394 9.686,82.381 9.663,82.377 9.641,82.367 9.683,82.212 9.64,82.04 9.511,81.929 9.502,81.921 9.49,81.919 9.481,81.912 9.483,81.91 9.485,81.908 9.487,81.907 9.67,81.752 9.693,81.478 9.538,81.296 9.5,81.251 9.455,81.215 9.405,81.19 9.467,81.067 9.459,80.922 9.392,80.798 9.495,80.698 9.592,80.591 9.673,80.47 9.797,80.282 9.751,80.038 9.579,79.901 9.696,79.704 9.646,79.45 9.453,79.319 9.448,79.316 9.442,79.316 9.437,79.312 9.573,79.154 9.7,78.99 9.808,78.809 9.92,78.605 9.85,78.351 9.652,78.233 9.684,78.089 9.649,77.933 9.534,77.824 9.512,77.803 9.486,77.794 9.461,77.779 9.575,77.63 9.678,77.471 9.75,77.284 9.799,77.108 9.732,76.928 9.596,76.824 9.669,76.734 9.747,76.648 9.814,76.552 9.952,76.36 9.908,76.09 9.712,75.951 9.651,75.908 9.583,75.888 9.514,75.88 9.58,75.781 9.65,75.686 9.733,75.6 9.881,75.414 9.855,75.141 9.666,74.993 9.637,74.97 9.604,74.959 9.572,74.944 9.626,74.858 9.679,74.771 9.733,74.686 9.818,74.525 9.791,74.333 9.678,74.202 9.828,74.023 9.814,73.758 9.638,73.602 9.628,73.592 9.614,73.589 9.603,73.581 9.678,73.489 9.752,73.396 9.824,73.302 9.955,73.103 9.905,72.833 9.706,72.701 9.685,72.687 9.662,72.683 9.64,72.674 9.682,72.518 9.639,72.346 9.51,72.235 9.501,72.227 9.489,72.225 9.48,72.218 9.482,72.216 9.484,72.214 9.486,72.213 9.669,72.058 9.692,71.784 9.537,71.602 9.499,71.557 9.454,71.521 9.404,71.496 9.466,71.373 9.458,71.228 9.391,71.104 9.494,71.004 9.591,70.898 9.672,70.776 9.796,70.588 9.75,70.344 9.578,70.207 9.695,70.01 9.645,69.756 9.452,69.625 9.447,69.622 9.441,69.622 9.436,69.618 9.572,69.46 9.699,69.296 9.807,69.115 9.919,68.911 9.849,68.657 9.651,68.539 9.683,68.395 9.648,68.239 9.533,68.13 9.511,68.109 9.485,68.1 9.46,68.085 9.574,67.936 9.677,67.777 9.749,67.59 9.798,67.414 9.731,67.235 9.595,67.13 9.668,67.04 9.746,66.954 9.813,66.858 9.951,66.666 9.907,66.396 9.711,66.257 9.65,66.214 9.582,66.194 9.513,66.186 9.579,66.087 9.649,65.992 9.732,65.906 9.88,65.72 9.854,65.447 9.665,65.299 9.636,65.276 9.603,65.265 9.571,65.25 9.625,65.164 9.678,65.077 9.732,64.992 9.817,64.831 9.79,64.639 9.677,64.508 9.827,64.329 9.813,64.064 9.637,63.908 9.627,63.899 9.613,63.895 9.602,63.887 9.677,63.795 9.751,63.702 9.823,63.608 9.954,63.409 9.904,63.139 9.705,63.007 9.684,62.993 9.661,62.99 9.639,62.98 9.681,62.824 9.638,62.652 9.509,62.541 9.5,62.533 9.488,62.531 9.479,62.524 9.481,62.523 9.483,62.52 9.485,62.519 9.668,62.364 9.691,62.09 9.536,61.908 9.5,61.86 9.455,61.824 9.405,61.799 9.467,61.676 9.459,61.531 9.392,61.407 9.495,61.307 9.592,61.201 9.673,61.079 9.797,60.891 9.751,60.648 9.579,60.51 9.696,60.313 9.646,60.059 9.453,59.928 9.448,59.925 9.442,59.925 9.437,59.922 9.573,59.763 9.7,59.599 9.808,59.419 9.92,59.215 9.85,58.962 9.652,58.843 9.684,58.699 9.649,58.544 9.534,58.434 9.512,58.413 9.486,58.404 9.461,58.389 9.575,58.24 9.678,58.081 9.75,57.894 9.799,57.718 9.732,57.539 9.596,57.434 9.669,57.344 9.747,57.258 9.814,57.162 9.952,56.97 9.908,56.7 9.712,56.561 9.651,56.518 9.583,56.498 9.514,56.49 9.58,56.391 9.65,56.296 9.733,56.21 9.881,56.024 9.855,55.751 9.666,55.603 9.637,55.58 9.604,55.569 9.572,55.554 9.626,55.468 9.679,55.381 9.733,55.296 9.818,55.135 9.791,54.943 9.678,54.813 9.828,54.634 9.814,54.369 9.638,54.213 9.628,54.204 9.614,54.201 9.603,54.192 9.678,54.1 9.752,54.007 9.824,53.913 9.955,53.714 9.905,53.444 9.706,53.312 9.685,53.298 9.662,53.295 9.64,53.285 9.682,53.129 9.639,52.957 9.51,52.846 9.501,52.838 9.489,52.836 9.48,52.829 9.482,52.828 9.484,52.825 9.486,52.824 9.669,52.669 9.692,52.396 9.537,52.213 9.5,52.166 9.455,52.13 9.405,52.104 9.467,51.981 9.459,51.836 9.392,51.712 9.495,51.612 9.592,51.506 9.673,51.384 9.797,51.196 9.751,50.953 9.579,50.815 9.696,50.618 9.646,50.364 9.453,50.233 9.448,50.23 9.442,50.23 9.437,50.227 9.573,50.069 9.7,49.904 9.808,49.724 9.92,49.52 9.85,49.267 9.652,49.148 9.684,49.004 9.649,48.849 9.534,48.739 9.512,48.718 9.486,48.709 9.461,48.694 9.575,48.545 9.678,48.387 9.75,48.199 9.799,48.023 9.732,47.844 9.596,47.739 9.669,47.649 9.747,47.563 9.814,47.467 9.952,47.275 9.908,47.005 9.712,46.866 9.651,46.823 9.583,46.803 9.514,46.795 9.58,46.696 9.65,46.601 9.733,46.515 9.881,46.329 9.855,46.056 9.666,45.908 9.637,45.885 9.604,45.874 9.572,45.859 9.626,45.773 9.679,45.686 9.733,45.601 9.818,45.44 9.791,45.249 9.678,45.118 c 0.15,-0.179 0.136,-0.444 -0.04,-0.6 -0.01,-0.009 -0.024,-0.012 -0.035,-0.021 0.075,-0.092 0.149,-0.185 0.221,-0.28 0.133,-0.2 0.082,-0.47 -0.117,-0.602 z"
     id="path64"
     inkscape:connector-curvature="0" /><g
     id="g68">
			<circle
   style="fill:#ffffff;stroke:#000000;stroke-width:0.44999999"
   cx="20.809999"
   cy="38.112999"
   r="12.41"
   id="circle70"
   sodipodi:cx="20.809999"
   sodipodi:cy="38.112999"
   sodipodi:rx="12.41"
   sodipodi:ry="12.41"
   d="m 33.219999,38.112999 c 0,6.853854 -5.556146,12.41 -12.41,12.41 -6.853853,0 -12.4099994,-5.556146 -12.4099994,-12.41 0,-6.853854 5.5561464,-12.41 12.4099994,-12.41 6.853854,0 12.41,5.556146 12.41,12.41 z" /> 
			<circle
   style="fill:none;stroke:#000000;stroke-width:0.44999999"
   cx="20.809999"
   cy="38.112999"
   r="2.4820001"
   id="circle72"
   sodipodi:cx="20.809999"
   sodipodi:cy="38.112999"
   sodipodi:rx="2.4820001"
   sodipodi:ry="2.4820001"
   d="m 23.292,38.112999 c 0,1.370771 -1.11123,2.482 -2.482001,2.482 -1.37077,0 -2.482,-1.111229 -2.482,-2.482 0,-1.370771 1.11123,-2.482 2.482,-2.482 1.370771,0 2.482001,1.111229 2.482001,2.482 z" /> 
		</g><rect
     x="2.6053042"
     y="78.218521"
     style="fill:url(#linearGradient3860);stroke:#000000;stroke-width:0.625;stroke-miterlimit:4;stroke-dasharray:none"
     width="11.739391"
     height="15.36793"
     id="rect91" /><path
     style="fill:#bfa794;stroke:#000000;stroke-width:0.44999999"
     d="m 19.86125,35.682907 c 0.021,0.014 0.044,0.017 0.066,0.027 -0.042,0.156 10e-4,0.327 0.13,0.439 0.009,0.007 0.02,0.01 0.03,0.017 -0.002,0.001 -0.004,0.003 -0.006,0.005 -0.182,0.155 -0.206,0.429 -0.051,0.611 0.038,0.046 0.083,0.081 0.133,0.106 -0.062,0.123 -0.054,0.268 0.013,0.392 -0.104,0.1 -0.2,0.207 -0.281,0.329 -0.124,0.188 -0.079,0.431 0.093,0.569 -0.009,0.015 -0.011,0.033 -0.018,0.049 l 1.293,0 c -0.005,-0.005 -0.006,-0.012 -0.012,-0.018 -0.022,-0.022 -0.051,-0.034 -0.077,-0.05 0.068,-0.062 0.136,-0.125 0.202,-0.189 0.167,-0.142 0.19,-0.376 0.076,-0.556 0.183,-0.125 0.249,-0.369 0.14,-0.568 -0.042,-0.072 -0.104,-0.122 -0.173,-0.159 0.105,-0.172 0.07,-0.386 -0.068,-0.522 0.022,-0.018 0.042,-0.039 0.066,-0.054 0.192,-0.142 0.233,-0.412 0.091,-0.604 -0.064,-0.087 -0.156,-0.138 -0.254,-0.16 0.026,-0.141 -0.011,-0.291 -0.124,-0.395 -0.038,-0.035 -0.081,-0.058 -0.125,-0.076 0.128,-0.173 0.252,-0.349 0.362,-0.535 0.102,-0.166 0.073,-0.37 -0.05,-0.509 0.098,-0.177 0.066,-0.403 -0.098,-0.538 -0.016,-0.014 -0.036,-0.018 -0.054,-0.029 0.067,-0.079 0.138,-0.154 0.216,-0.221 0.182,-0.148 0.212,-0.422 0.061,-0.607 -0.044,-0.055 -0.101,-0.091 -0.162,-0.117 0.091,-0.149 0.088,-0.344 -0.024,-0.49 -0.066,-0.084 -0.157,-0.132 -0.253,-0.153 0.107,-0.12 0.215,-0.241 0.324,-0.36 0.155,-0.179 0.135,-0.452 -0.047,-0.607 -0.022,-0.019 -0.048,-0.027 -0.073,-0.041 0.054,-0.053 0.108,-0.106 0.167,-0.155 0.186,-0.146 0.219,-0.418 0.074,-0.607 -0.035,-0.045 -0.078,-0.08 -0.125,-0.107 0.167,-0.137 0.214,-0.379 0.092,-0.565 -0.037,-0.058 -0.088,-0.1 -0.144,-0.132 0.142,-0.17 0.139,-0.426 -0.018,-0.586 -0.022,-0.022 -0.051,-0.034 -0.077,-0.05 0.068,-0.063 0.136,-0.125 0.202,-0.19 0.167,-0.142 0.19,-0.376 0.076,-0.556 0.183,-0.125 0.249,-0.369 0.14,-0.568 -0.042,-0.073 -0.104,-0.122 -0.173,-0.159 0.105,-0.172 0.07,-0.386 -0.068,-0.522 0.022,-0.018 0.042,-0.038 0.066,-0.054 0.192,-0.142 0.233,-0.412 0.091,-0.604 -0.064,-0.087 -0.156,-0.139 -0.254,-0.161 0.026,-0.141 -0.011,-0.291 -0.124,-0.395 -0.038,-0.035 -0.081,-0.058 -0.125,-0.076 0.128,-0.173 0.252,-0.349 0.362,-0.535 0.102,-0.166 0.073,-0.37 -0.05,-0.508 0.098,-0.177 0.066,-0.404 -0.098,-0.538 -0.016,-0.013 -0.036,-0.018 -0.054,-0.029 0.067,-0.079 0.138,-0.154 0.216,-0.221 0.182,-0.148 0.212,-0.422 0.061,-0.607 -0.044,-0.054 -0.101,-0.091 -0.162,-0.117 0.091,-0.149 0.088,-0.344 -0.024,-0.49 -0.066,-0.084 -0.157,-0.132 -0.253,-0.152 0.107,-0.121 0.215,-0.241 0.324,-0.361 0.155,-0.179 0.135,-0.452 -0.047,-0.607 -0.022,-0.019 -0.048,-0.027 -0.073,-0.041 0.054,-0.053 0.108,-0.106 0.167,-0.155 0.186,-0.145 0.219,-0.418 0.074,-0.607 -0.035,-0.045 -0.078,-0.08 -0.125,-0.107 0.167,-0.137 0.214,-0.379 0.092,-0.565 -0.037,-0.058 -0.088,-0.1 -0.144,-0.132 0.142,-0.17 0.139,-0.426 -0.018,-0.586 -0.022,-0.022 -0.051,-0.034 -0.077,-0.05 0.068,-0.063 0.136,-0.125 0.202,-0.19 0.167,-0.142 0.19,-0.376 0.076,-0.556 0.183,-0.125 0.249,-0.369 0.14,-0.568 -0.042,-0.073 -0.104,-0.122 -0.173,-0.159 0.105,-0.172 0.07,-0.385 -0.068,-0.522 0.022,-0.018 0.042,-0.038 0.066,-0.054 0.192,-0.142 0.233,-0.412 0.091,-0.604 -0.064,-0.087 -0.156,-0.139 -0.254,-0.161 0.026,-0.141 -0.011,-0.29 -0.124,-0.395 -0.038,-0.035 -0.081,-0.058 -0.125,-0.076 0.128,-0.173 0.252,-0.349 0.362,-0.535 0.102,-0.166 0.073,-0.37 -0.05,-0.508 0.098,-0.177 0.066,-0.404 -0.098,-0.538 -0.016,-0.013 -0.036,-0.018 -0.054,-0.029 0.067,-0.079 0.138,-0.154 0.216,-0.221 0.182,-0.148 0.212,-0.422 0.061,-0.607 -0.044,-0.055 -0.101,-0.091 -0.162,-0.117 0.091,-0.148 0.088,-0.344 -0.024,-0.49 -0.066,-0.084 -0.157,-0.132 -0.253,-0.152 0.107,-0.121 0.215,-0.241 0.324,-0.361 0.155,-0.179 0.135,-0.452 -0.047,-0.607 -0.022,-0.019 -0.048,-0.027 -0.073,-0.041 0.054,-0.053 0.108,-0.106 0.167,-0.155 0.186,-0.145 0.219,-0.418 0.074,-0.607 -0.035,-0.045 -0.078,-0.08 -0.125,-0.107 0.167,-0.136 0.214,-0.379 0.092,-0.5640002 -0.037,-0.058 -0.088,-0.1 -0.144,-0.133 0.142,-0.17 0.139,-0.426 -0.018,-0.586 -0.022,-0.022 -0.051,-0.034 -0.077,-0.05 0.068,-0.063 0.136,-0.125 0.202,-0.189 0.167,-0.142 0.19,-0.377 0.076,-0.556 0.183,-0.125 0.249,-0.369 0.14,-0.568 -0.042,-0.073 -0.104,-0.122 -0.173,-0.159 0.105,-0.172 0.07,-0.385 -0.068,-0.522 0.022,-0.018 0.042,-0.038 0.066,-0.054 0.192,-0.142 0.233,-0.412 0.091,-0.604 -0.064,-0.087 -0.156,-0.139 -0.254,-0.161 0.026,-0.141 -0.011,-0.29 -0.124,-0.395 -0.038,-0.035 -0.081,-0.057 -0.125,-0.076 0.128,-0.172 0.252,-0.349 0.362,-0.535 0.102,-0.166 0.073,-0.37 -0.05,-0.508 0.098,-0.177 0.066,-0.404 -0.098,-0.538 -0.016,-0.014 -0.036,-0.018 -0.054,-0.029 0.067,-0.079 0.138,-0.154 0.216,-0.221 0.182,-0.148 0.212,-0.422 0.061,-0.607 -0.044,-0.054 -0.101,-0.09 -0.162,-0.117 0.091,-0.148 0.088,-0.344 -0.024,-0.49 -0.066,-0.084 -0.157,-0.132 -0.253,-0.152 0.107,-0.121 0.215,-0.241 0.324,-0.361 0.155,-0.179 0.135,-0.452 -0.047,-0.607 -0.022,-0.019 -0.048,-0.027 -0.073,-0.041 0.054,-0.053 0.108,-0.106 0.167,-0.155 0.186,-0.145 0.219,-0.418 0.074,-0.60700005 -0.035,-0.045 -0.078,-0.08 -0.125,-0.107 0.167,-0.136 0.214,-0.379 0.092,-0.564 -0.037,-0.058 -0.088,-0.1 -0.144,-0.133 0.142,-0.17 0.139,-0.426 -0.018,-0.586 -0.022,-0.022 -0.051,-0.034 -0.077,-0.05 0.068,-0.063 0.136,-0.125 0.202,-0.189 0.167,-0.142 0.19,-0.37699995 0.076,-0.55599995 0.183,-0.125 0.249,-0.37 0.14,-0.568 -0.042,-0.073 -0.104,-0.122 -0.173,-0.159 0.105,-0.172 0.07,-0.385 -0.068,-0.522 0.022,-0.018 0.042,-0.039 0.066,-0.055 0.192,-0.142 0.233,-0.412 0.091,-0.604 -0.064,-0.087 -0.156,-0.139 -0.254,-0.161 0.026,-0.141 -0.011,-0.29 -0.124,-0.395 -0.038,-0.035 -0.081,-0.057 -0.125,-0.076 0.128,-0.1720004 0.252,-0.3490004 0.362,-0.5350004 0.102,-0.166 0.073,-0.37 -0.05,-0.508 0.098,-0.177 0.066,-0.403 -0.098,-0.538 -0.016,-0.014 -0.036,-0.018 -0.054,-0.029 0.067,-0.079 0.138,-0.154 0.216,-0.221 0.182,-0.148 0.212,-0.422 0.061,-0.607 -0.044,-0.054 -0.101,-0.09 -0.162,-0.117 0.091,-0.149 0.088,-0.344 -0.024,-0.491 -0.066,-0.084 -0.157,-0.132 -0.253,-0.152 0.107,-0.121 0.215,-0.241 0.324,-0.361 0.155,-0.179 0.135,-0.452 -0.047,-0.607 -0.022,-0.019 -0.048,-0.027 -0.073,-0.041 0.054,-0.053 0.108,-0.106 0.167,-0.155 0.186,-0.145 0.219,-0.418 0.074,-0.607 -0.035,-0.045 -0.078,-0.08 -0.125,-0.107 0.167,-0.136 0.214,-0.379 0.092,-0.564 -0.037,-0.058 -0.088,-0.1 -0.144,-0.132 0.142,-0.17 0.139,-0.4260004 -0.018,-0.5870004 -0.022,-0.022 -0.051,-0.034 -0.077,-0.05 0.068,-0.063 0.136,-0.125 0.202,-0.189 0.167,-0.142 0.19,-0.377 0.076,-0.556 0.183,-0.125 0.249,-0.37 0.14,-0.568 -0.042,-0.072 -0.104,-0.122 -0.173,-0.159 0.105,-0.172 0.07,-0.386 -0.068,-0.522 0.022,-0.018 0.042,-0.039 0.066,-0.055 0.192,-0.142 0.233,-0.412 0.091,-0.604 -0.142,-0.192 -0.412,-0.233 -0.604,-0.091 -0.32,0.199 -0.506,0.554 -0.823,0.756 -0.182,0.155 -0.206,0.429 -0.051,0.611 0.038,0.045 0.083,0.081 0.133,0.106 -0.062,0.123 -0.054,0.268 0.013,0.392 -0.104,0.1 -0.2,0.206 -0.281,0.328 -0.124,0.188 -0.079,0.431 0.093,0.569 -0.117,0.197 -0.067,0.4510004 0.126,0.5820004 0.005,0.003 0.011,0.003 0.016,0.006 -0.136,0.159 -0.263,0.323 -0.371,0.503 -0.112,0.204 -0.042,0.457 0.156,0.576 -0.032,0.144 0.003,0.299 0.118,0.409 0.022,0.021 0.048,0.03 0.073,0.045 -0.114,0.149 -0.217,0.308 -0.29,0.495 -0.049,0.176 0.018,0.355 0.155,0.46 -0.073,0.09 -0.152,0.176 -0.219,0.272 -0.138,0.192 -0.094,0.462 0.102,0.601 0.061,0.043 0.129,0.063 0.198,0.071 -0.066,0.099 -0.136,0.194 -0.219,0.28 -0.148,0.186 -0.122,0.459 0.068,0.607 0.028,0.023 0.062,0.034 0.093,0.049 -0.053,0.086 -0.107,0.173 -0.161,0.258 -0.085,0.161 -0.058,0.352 0.055,0.483 -0.15,0.179 -0.136,0.444 0.04,0.6 0.01,0.009 0.024,0.013 0.035,0.021 -0.075,0.093 -0.149,0.186 -0.221,0.28 -0.132,0.199 -0.081,0.469 0.118,0.601 0.021,0.014 0.044,0.017 0.066,0.027 -0.042,0.156 10e-4,0.328 0.13,0.439 0.009,0.008 0.02,0.01 0.03,0.017 -0.002,10e-4 -0.004,0.004 -0.006,0.005 -0.182,0.155 -0.206,0.428 -0.051,0.611 0.038,0.045 0.083,0.081 0.133,0.106 -0.062,0.123 -0.054,0.268 0.013,0.392 -0.104,0.1 -0.2,0.206 -0.281,0.328 -0.124,0.188 -0.079,0.431 0.093,0.569 -0.117,0.197 -0.067,0.451 0.126,0.582 0.005,0.003 0.011,0.003 0.016,0.006 -0.136,0.158 -0.263,0.323 -0.371,0.503 -0.112,0.204 -0.042,0.457 0.156,0.576 -0.032,0.144 0.003,0.299 0.118,0.409 0.022,0.021 0.048,0.03 0.073,0.045 -0.114,0.149 -0.217,0.307 -0.29,0.495 -0.049,0.176 0.018,0.355 0.155,0.46 -0.073,0.09 -0.152,0.176 -0.219,0.272 -0.138,0.192 -0.094,0.462 0.102,0.601 0.061,0.043 0.129,0.063 0.198,0.071 -0.066,0.099 -0.136,0.194 -0.219,0.28 -0.148,0.186 -0.122,0.459 0.068,0.607 0.028,0.023 0.062,0.034 0.093,0.049 -0.053,0.086 -0.107,0.173 -0.161,0.258 -0.085,0.161 -0.058,0.352 0.055,0.483 -0.15,0.179 -0.136,0.444 0.04,0.6 0.01,0.009 0.024,0.013 0.035,0.021 -0.075,0.093 -0.149,0.185 -0.221,0.28 -0.132,0.199 -0.081,0.469 0.118,0.601 0.021,0.014 0.044,0.017 0.066,0.027 -0.042,0.156 0.001,0.328 0.13,0.439 0.009,0.008 0.02,0.01 0.03,0.017 -0.002,0.001 -0.004,0.003 -0.006,0.005 -0.182,0.155 -0.206,0.428 -0.051,0.611 0.038,0.045 0.083,0.081 0.133,0.106 -0.062,0.123 -0.054,0.268 0.013,0.392 -0.104,0.1 -0.2,0.206 -0.281,0.328 -0.124,0.188 -0.079,0.431 0.093,0.569 -0.117,0.197 -0.067,0.451 0.126,0.582 0.005,0.003 0.011,0.003 0.016,0.006 -0.136,0.158 -0.263,0.3229996 -0.371,0.5029996 -0.112,0.204 -0.042,0.457 0.156,0.576 -0.032,0.144 0.003,0.299 0.118,0.409 0.022,0.021 0.048,0.03 0.073,0.045 -0.114,0.149 -0.217,0.307 -0.29,0.495 -0.049,0.176 0.018,0.355 0.155,0.46 -0.073,0.09 -0.152,0.176 -0.219,0.272 -0.138,0.193 -0.094,0.463 0.102,0.601 0.061,0.043 0.129,0.063 0.198,0.071 -0.066,0.099 -0.136,0.194 -0.219,0.28 -0.148,0.186 -0.122,0.459 0.068,0.607 0.028,0.023 0.062,0.034 0.093,0.048 -0.053,0.087 -0.107,0.174 -0.161,0.259 -0.085,0.161 -0.058,0.352 0.055,0.483 -0.15,0.179 -0.136,0.444 0.04,0.6 0.01,0.01 0.024,0.013 0.035,0.021 -0.075,0.093 -0.149,0.185 -0.221,0.28 -0.132,0.199 -0.081,0.469 0.118,0.601 0.021,0.014 0.044,0.017 0.066,0.027 -0.042,0.156 0.001,0.328 0.13,0.439 0.009,0.008 0.02,0.01 0.03,0.017 -0.002,10e-4 -0.004,0.003 -0.006,0.005 -0.182,0.155 -0.206,0.428 -0.051,0.61 0.038,0.045 0.083,0.082 0.133,0.107 -0.062,0.123 -0.054,0.268 0.013,0.392 -0.104,0.1 -0.2,0.206 -0.281,0.328 -0.124,0.188 -0.079,0.431 0.093,0.569 -0.117,0.197 -0.067,0.451 0.126,0.582 0.005,0.003 0.011,0.003 0.016,0.006 -0.136,0.158 -0.263,0.323 -0.371,0.503 -0.112,0.204 -0.042,0.458 0.156,0.577 -0.032,0.144 0.003,0.299 0.118,0.409 0.022,0.021 0.048,0.03 0.073,0.045 -0.114,0.149 -0.217,0.307 -0.29,0.495 -0.049,0.175 0.018,0.355 0.155,0.46 -0.073,0.09 -0.152,0.176 -0.219,0.272 -0.138,0.192 -0.094,0.462 0.102,0.601 0.061,0.043 0.129,0.063 0.198,0.071 -0.066,0.099 -0.136,0.195 -0.219,0.28 -0.148,0.186 -0.122,0.459 0.068,0.607 0.028,0.023 0.062,0.034 0.093,0.048 -0.053,0.087 -0.107,0.174 -0.161,0.259 -0.085,0.161 -0.058,0.352 0.055,0.483 -0.15,0.179 -0.136,0.444 0.04,0.6 0.01,0.01 0.024,0.013 0.035,0.021 -0.075,0.092 -0.149,0.185 -0.221,0.28 -0.132,0.199 -0.081,0.469 0.118,0.601 0.021,0.014 0.044,0.017 0.066,0.027 -0.042,0.156 10e-4,0.327 0.13,0.439 0.009,0.007 0.02,0.01 0.03,0.017 -0.002,10e-4 -0.004,0.003 -0.006,0.005 -0.182,0.155 -0.206,0.429 -0.051,0.611 0.038,0.045 0.083,0.081 0.133,0.106 -0.062,0.123 -0.054,0.268 0.013,0.393 -0.104,0.1 -0.2,0.206 -0.281,0.328 -0.124,0.188 -0.079,0.431 0.093,0.569 -0.117,0.197 -0.067,0.45 0.126,0.581 0.005,0.003 0.011,0.004 0.016,0.007 -0.136,0.158 -0.263,0.322 -0.371,0.503 -0.112,0.204 -0.042,0.458 0.156,0.576 -0.032,0.144 0.003,0.3 0.118,0.41 0.022,0.02 0.048,0.03 0.073,0.045 -0.114,0.149 -0.217,0.308 -0.29,0.495 -0.049,0.175 0.018,0.355 0.155,0.46 -0.073,0.09 -0.152,0.175 -0.219,0.272 -0.138,0.192 -0.094,0.462 0.102,0.601 0.061,0.043 0.129,0.062 0.198,0.071 -0.066,0.099 -0.136,0.194 -0.219,0.279 -0.148,0.186 -0.122,0.459 0.068,0.608 0.028,0.022 0.062,0.034 0.093,0.048 -0.053,0.086 -0.107,0.173 -0.161,0.259 -0.085,0.161 -0.058,0.352 0.055,0.483 -0.15,0.179 -0.136,0.444 0.04,0.6 0.01,0.01 0.024,0.013 0.035,0.021 -0.075,0.092 -0.149,0.185 -0.221,0.28 -0.136,0.195 -0.085,0.465 0.113,0.597 z"
     id="path66"
     inkscape:connector-curvature="0" /><g
     transform="translate(-40.520819,-38.075597)"
     id="g11">
			<circle
   d="m 85.532001,26.488001 c 0,6.853854 -5.556146,12.41 -12.409999,12.41 -6.853854,0 -12.41,-5.556146 -12.41,-12.41 0,-6.853854 5.556146,-12.41 12.41,-12.41 6.853853,0 12.409999,5.556146 12.409999,12.41 z"
   style="fill:#ffffff;stroke:#000000;stroke-width:0.44999999"
   cx="73.122002"
   cy="26.488001"
   r="12.41"
   id="circle13"
   sodipodi:cx="73.122002"
   sodipodi:cy="26.488001"
   sodipodi:rx="12.41"
   sodipodi:ry="12.41" /> 
			<circle
   d="m 75.604002,26.488001 c 0,1.370771 -1.11123,2.482 -2.482,2.482 -1.370771,0 -2.482,-1.111229 -2.482,-2.482 0,-1.370771 1.111229,-2.482 2.482,-2.482 1.37077,0 2.482,1.111229 2.482,2.482 z"
   style="fill:none;stroke:#000000;stroke-width:0.44999999"
   cx="73.122002"
   cy="26.488001"
   r="2.4820001"
   id="circle15"
   sodipodi:cx="73.122002"
   sodipodi:cy="26.488001"
   sodipodi:rx="2.4820001"
   sodipodi:ry="2.4820001" /> 
		</g><rect
     x="34.060184"
     y="3.9141045"
     style="fill:url(#linearGradient3862);stroke:#000000;stroke-width:0.625;stroke-miterlimit:4;stroke-dasharray:none;overflow:visible"
     width="19.636728"
     height="25.706263"
     id="rect62-6" /><rect
     y="-32.486519"
     x="31.089249"
     height="21.657679"
     width="3.1438565"
     id="rect3946"
     style="fill:#ffffff;fill-opacity:1;stroke:#000000;stroke-width:0.625;stroke-miterlimit:4;stroke-opacity:1;stroke-dasharray:none;stroke-dashoffset:0" /><text
     sodipodi:linespacing="125%"
     id="text3948"
     y="102.00068"
     x="4.5411263"
     style="font-size:10px;font-style:normal;font-variant:normal;font-weight:normal;font-stretch:normal;text-indent:0;text-align:start;text-decoration:none;line-height:125%;letter-spacing:0px;word-spacing:0px;text-transform:none;direction:ltr;block-progression:tb;writing-mode:lr-tb;text-anchor:start;baseline-shift:baseline;color:#000000;fill:#000000;fill-opacity:1;fill-rule:nonzero;stroke:none;stroke-width:1px;marker:none;visibility:visible;display:inline;overflow:visible;enable-background:accumulate;font-family:FreeSans;-inkscape-font-specification:FreeSans"
     xml:space="preserve"><tspan
       y="102.00068"
       x="4.5411263"
       id="tspan3950"
       sodipodi:role="line">m</tspan></text>
<text
     sodipodi:linespacing="125%"
     id="text3952"
     y="106.5418"
     x="12.575426"
     style="font-size:9px;font-style:normal;font-variant:normal;font-weight:normal;font-stretch:normal;text-indent:0;text-align:start;text-decoration:none;line-height:125%;letter-spacing:0px;word-spacing:0px;text-transform:none;direction:ltr;block-progression:tb;writing-mode:lr-tb;text-anchor:start;baseline-shift:baseline;color:#000000;fill:#000000;fill-opacity:1;fill-rule:nonzero;stroke:none;stroke-width:1px;marker:none;visibility:visible;display:inline;overflow:visible;enable-background:accumulate;font-family:FreeSans;-inkscape-font-specification:FreeSans"
     xml:space="preserve"><tspan
       y="106.5418"
       x="12.575426"
       id="tspan3954"
       sodipodi:role="line">1</tspan></text>
<text
     sodipodi:linespacing="125%"
     id="text3948-1"
     y="116.39782"
     x="26.033892"
     style="font-size:10px;font-style:normal;font-variant:normal;font-weight:normal;font-stretch:normal;text-indent:0;text-align:start;text-decoration:none;line-height:125%;letter-spacing:0px;word-spacing:0px;text-transform:none;direction:ltr;block-progression:tb;writing-mode:lr-tb;text-anchor:start;baseline-shift:baseline;color:#000000;fill:#000000;fill-opacity:1;fill-rule:nonzero;stroke:none;stroke-width:1px;marker:none;visibility:visible;display:inline;overflow:visible;enable-background:accumulate;font-family:FreeSans;-inkscape-font-specification:FreeSans"
     xml:space="preserve"><tspan
       y="116.39782"
       x="26.033892"
       id="tspan3950-5"
       sodipodi:role="line">m</tspan></text>
<text
     sodipodi:linespacing="125%"
     id="text3952-9"
     y="120.93894"
     x="34.068192"
     style="font-size:9px;font-style:normal;font-variant:normal;font-weight:normal;font-stretch:normal;text-indent:0;text-align:start;text-decoration:none;line-height:125%;letter-spacing:0px;word-spacing:0px;text-transform:none;direction:ltr;block-progression:tb;writing-mode:lr-tb;text-anchor:start;baseline-shift:baseline;color:#000000;fill:#000000;fill-opacity:1;fill-rule:nonzero;stroke:none;stroke-width:1px;marker:none;visibility:visible;display:inline;overflow:visible;enable-background:accumulate;font-family:FreeSans;-inkscape-font-specification:FreeSans"
     xml:space="preserve"><tspan
       y="120.93894"
       x="34.068192"
       id="tspan3954-4"
       sodipodi:role="line">2</tspan></text>
<text
     sodipodi:linespacing="125%"
     id="text3948-9"
     y="38.150719"
     x="38.609318"
     style="font-size:10px;font-style:normal;font-variant:normal;font-weight:normal;font-stretch:normal;text-indent:0;text-align:start;text-decoration:none;line-height:125%;letter-spacing:0px;word-spacing:0px;text-transform:none;direction:ltr;block-progression:tb;writing-mode:lr-tb;text-anchor:start;baseline-shift:baseline;color:#000000;fill:#000000;fill-opacity:1;fill-rule:nonzero;stroke:none;stroke-width:1px;marker:none;visibility:visible;display:inline;overflow:visible;enable-background:accumulate;font-family:FreeSans;-inkscape-font-specification:FreeSans"
     xml:space="preserve"><tspan
       y="38.150719"
       x="38.609318"
       id="tspan3950-0"
       sodipodi:role="line">m</tspan></text>
<text
     sodipodi:linespacing="125%"
     id="text3952-91"
     y="42.691841"
     x="46.64362"
     style="font-size:9px;font-style:normal;font-variant:normal;font-weight:normal;font-stretch:normal;text-indent:0;text-align:start;text-decoration:none;line-height:125%;letter-spacing:0px;word-spacing:0px;text-transform:none;direction:ltr;block-progression:tb;writing-mode:lr-tb;text-anchor:start;baseline-shift:baseline;color:#000000;fill:#000000;fill-opacity:1;fill-rule:nonzero;stroke:none;stroke-width:1px;marker:none;visibility:visible;display:inline;overflow:visible;enable-background:accumulate;font-family:FreeSans;-inkscape-font-specification:FreeSans"
     xml:space="preserve"><tspan
       y="42.691841"
       x="46.64362"
       id="tspan3954-7"
       sodipodi:role="line">3</tspan></text>
</g>
<rect
   style="fill:none;stroke:none"
   id="rect3088"
   width="184.25197"
   height="18.278347"
   x="-32.604622"
   y="32.068558" /></svg>