<?xml version="1.0" encoding="iso-8859-1"?>
<!-- Generator: Adobe Illustrator 11 Build 196, SVG Export Plug-In . SVG Version: 6.0.0 Build 78)  -->
<!DOCTYPE svg PUBLIC "-//W3C//DTD SVG 1.0//EN"    "http://www.w3.org/TR/2001/REC-SVG-20010904/DTD/svg10.dtd" [
	<!ENTITY ns_flows "http://ns.adobe.com/Flows/1.0/">
	<!ENTITY ns_svg "http://www.w3.org/2000/svg">
	<!ENTITY ns_xlink "http://www.w3.org/1999/xlink">
]>
<svg  
	 width="128.009" height="180.218" viewBox="0 0 128.009 180.218"
	 style="overflow:visible;enable-background:new 0 0 128.009 180.218" xml:space="preserve">
	<style type="text/css">
	
	</style>
	<g id="Layer_1">
		<path d="M40.139,162.359c0.181,0,0.359-0.013,0.539-0.021l0.461-0.668l0.806,0.556c1.979-0.282,3.812-1.014,5.392-2.092
			l0.051-0.977l1.142,0.06c1.662-1.444,2.953-3.306,3.701-5.426l-0.408-0.934l0.785-0.343c0.229-0.96,0.364-1.958,0.364-2.989
			c0-1.149-0.167-2.254-0.454-3.31l-0.467-0.137l0.206-0.704c-0.627-1.797-1.636-3.416-2.941-4.752h-0.757v-0.736
			c-0.4-0.348-0.819-0.674-1.26-0.972l-1.74-0.573H34.44l-1.183,0.389c-1.105,0.706-2.084,1.583-2.924,2.582l0.236,1.09l-1.25,0.271
			c-1.028,1.613-1.707,3.469-1.924,5.468l0.83,0.93l-0.897,0.801c0.058,2.088,0.613,4.045,1.554,5.768l1,0.217l-0.222,1.024
			c1.073,1.521,2.448,2.812,4.065,3.749l0.815-0.333l0.389,0.951C36.523,161.957,38.282,162.359,40.139,162.359z"/>
		<path d="M104.306,162.359c0.181,0,0.359-0.013,0.539-0.021l0.461-0.668l0.806,0.556c1.979-0.282,3.812-1.014,5.392-2.092
			l0.051-0.977l1.142,0.06c1.662-1.444,2.953-3.306,3.702-5.426l-0.408-0.934l0.785-0.343c0.229-0.96,0.364-1.958,0.364-2.989
			c0-1.149-0.167-2.254-0.454-3.31l-0.467-0.137l0.207-0.704c-0.627-1.797-1.636-3.416-2.941-4.752h-0.756v-0.736
			c-0.4-0.348-0.819-0.674-1.259-0.972l-1.741-0.573h-11.12l-1.183,0.389c-1.105,0.706-2.084,1.583-2.924,2.582l0.236,1.09
			l-1.25,0.271c-1.028,1.613-1.708,3.469-1.924,5.468l0.83,0.93l-0.897,0.801c0.059,2.088,0.614,4.045,1.555,5.768l1,0.217
			l-0.222,1.024c1.073,1.521,2.448,2.812,4.065,3.749l0.815-0.333l0.389,0.951C100.69,161.957,102.449,162.359,104.306,162.359z"/>
		<rect x="17.509" y="23.18" style="fill:#DCDCDC;stroke:#000000;" width="110" height="128.151"/> 
		
			<linearGradient id="XMLID_56_" gradientUnits="userSpaceOnUse" x1="57.6545" y1="89.4297" x2="69.6545" y2="89.4297" gradientTransform="matrix(1.1 0 0 1.1 2.4634 -11.1176)">
			<stop  offset="0" style="stop-color:#BEBEBE"/>
			<stop  offset="0.62" style="stop-color:#FFFFFF"/>
			<stop  offset="1" style="stop-color:#7F7F7F"/>
			<midPointStop  offset="0" style="stop-color:#BEBEBE"/>
			<midPointStop  offset="0.5" style="stop-color:#BEBEBE"/>
			<midPointStop  offset="0.62" style="stop-color:#FFFFFF"/>
			<midPointStop  offset="0.5" style="stop-color:#FFFFFF"/>
			<midPointStop  offset="1" style="stop-color:#7F7F7F"/>
		</linearGradient>
		<rect x="66.459" y="8.055" style="fill:url(#XMLID_56_);stroke:#000000;" width="12.1" height="158.401"/> 
		<path d="M102.828,88.427c0-0.181-0.013-0.359-0.021-0.539l-0.668-0.461l0.557-0.806c-0.282-1.979-1.014-3.812-2.092-5.392
			l-0.977-0.051l0.06-1.142c-1.445-1.662-3.307-2.953-5.427-3.701l-0.934,0.407l-0.342-0.785c-0.961-0.229-1.958-0.364-2.989-0.364
			c-1.149,0-2.254,0.167-3.31,0.454l-0.137,0.467l-0.704-0.207c-1.797,0.627-3.416,1.636-4.752,2.941v0.757h-0.736
			c-0.348,0.4-0.674,0.819-0.972,1.26l-0.573,1.74v11.12l0.389,1.183c0.706,1.105,1.584,2.084,2.582,2.924l1.09-0.236l0.271,1.25
			c1.613,1.028,3.469,1.707,5.469,1.924l0.93-0.83l0.801,0.898c2.088-0.058,4.045-0.614,5.768-1.555l0.217-1l1.024,0.222
			c1.521-1.073,2.813-2.448,3.749-4.065l-0.333-0.816l0.951-0.389C102.426,92.043,102.828,90.283,102.828,88.427z"/>
		<path d="M42.458,88.427c0-0.181,0.013-0.359,0.021-0.539l0.668-0.461l-0.556-0.806c0.282-1.979,1.014-3.812,2.092-5.392
			l0.977-0.051l-0.06-1.142c1.445-1.662,3.306-2.953,5.427-3.701l0.934,0.407l0.342-0.785c0.961-0.229,1.958-0.364,2.99-0.364
			c1.149,0,2.254,0.167,3.31,0.454l0.137,0.467l0.704-0.207c1.797,0.627,3.416,1.636,4.752,2.941v0.757h0.736
			c0.348,0.4,0.674,0.819,0.972,1.26l0.572,1.74v11.12l-0.389,1.183c-0.706,1.105-1.583,2.084-2.582,2.924l-1.089-0.236l-0.271,1.25
			c-1.613,1.028-3.47,1.707-5.469,1.924l-0.93-0.83l-0.801,0.898c-2.088-0.058-4.045-0.614-5.768-1.555l-0.217-1l-1.024,0.222
			c-1.521-1.073-2.813-2.448-3.749-4.065l0.333-0.816l-0.951-0.389C42.861,92.043,42.458,90.283,42.458,88.427z"/>
		<rect x="94.6" y="70.999" style="fill:#DCDCDC;stroke:#000000;" width="17.967" height="34.833"/> 
		<rect x="29.7" y="70.999" style="fill:#DCDCDC;stroke:#000000;" width="17.967" height="34.833"/> 
		<g>
			<text transform="matrix(1 0 0 1 53.9004 176.2012)"><tspan x="0" y="0" style="font-family:Liberation Sans; font-size:7.650000;">steel rail</tspan></text>
		</g>
		<g>
			<text transform="matrix(1 0 0 1 101.9338 40.167)"><tspan x="0" y="0" style="font-family:Liberation Sans; font-size:7.650000;">car</tspan></text>
		</g>
		<g>
			<text transform="matrix(1 0 0 1 0 9)"><tspan x="0" y="0" style="font-family:Liberation Sans; font-size:7.650000;">rubber wheel</tspan></text>
		</g>
		<g>
			<path style="fill:none;stroke:#000000;stroke-width:0.5;" d="M48.515,11.819c11,22,2.567,40.333,6.233,59.034"/>
			<path d="M55.391,74.112c-0.869-1.421-2.213-3.133-3.471-4.11l2.749,0.425l2.385-1.432C56.257,70.376,55.659,72.468,55.391,74.112
				z"/>
		</g>
	</g>
</svg>
