<?xml version="1.0" encoding="UTF-8" standalone="no"?>
<!-- Generator: Adobe Illustrator 11 Build 196, SVG Export Plug-In . SVG Version: 6.0.0 Build 78)  -->

<svg
   xmlns:dc="http://purl.org/dc/elements/1.1/"
   xmlns:cc="http://creativecommons.org/ns#"
   xmlns:rdf="http://www.w3.org/1999/02/22-rdf-syntax-ns#"
   xmlns:svg="http://www.w3.org/2000/svg"
   xmlns="http://www.w3.org/2000/svg"
   xmlns:sodipodi="http://sodipodi.sourceforge.net/DTD/sodipodi-0.dtd"
   xmlns:inkscape="http://www.inkscape.org/namespaces/inkscape"
   width="292.057"
   height="102.517"
   viewBox="0 0 292.057 102.517"
   style="overflow:visible;enable-background:new 0 0 292.057 102.517"
   xml:space="preserve"
   id="svg1"
   sodipodi:version="0.32"
   sodipodi:docname="hw-fossil.svg"
   version="1.1"><defs
     id="defs111" /><metadata
     id="metadata110"><rdf:RDF><cc:Work
         rdf:about=""><dc:format>image/svg+xml</dc:format><dc:type
           rdf:resource="http://purl.org/dc/dcmitype/StillImage" /></cc:Work></rdf:RDF></metadata><sodipodi:namedview
     id="base"
     pagecolor="#ffffff"
     bordercolor="#666666"
     borderopacity="1.0"
     inkscape:pageopacity="0.0"
     inkscape:pageshadow="2"
     inkscape:zoom="2.137874"
     inkscape:cx="148.05261"
     inkscape:cy="7.2243798"
     inkscape:window-width="1280"
     inkscape:window-height="997"
     inkscape:window-x="0"
     inkscape:window-y="0"
     inkscape:current-layer="svg1"
     showgrid="false"
     inkscape:window-maximized="1" /><style
     type="text/css"
     id="style3" /><rect
     style="fill:#e1e1e1;fill-opacity:1.0000000;stroke:none;stroke-width:1.0000000;stroke-linecap:butt;stroke-linejoin:miter;stroke-miterlimit:4.0000000;stroke-dashoffset:0.0000000;stroke-opacity:1.0000000;"
     id="rect123"
     width="292.71194"
     height="103.38337"
     x="-5.8523010e-06"
     y="-0.24357438" /><g
     id="g7"
     transform="translate(-3.543307,3.543307)"><line
       style="fill:none;stroke:#000000;stroke-dasharray:3.0000000 "
       x1="151.37900"
       y1="0.66799998"
       x2="205.49600"
       y2="99.582001"
       id="line9" /><g
       id="g11"><line
         style="fill:none;stroke:#000000;stroke-dasharray:3.0000000 "
         x1="165.41600"
         y1="26.016001"
         x2="166.85201"
         y2="28.877001"
         id="line13" /><path
         d="M 168.20900,31.576000 C 167.10100,30.544000 165.50700,29.372000 164.16700,28.824000 L 166.67800,28.526000 L 168.41700,26.691000 C 168.05600,28.093000 168.04300,30.071000 168.20900,31.576000 z "
         id="path15" /></g><g
       id="g18"><line
         style="fill:none;stroke:#000000;stroke-dasharray:3.0000000 "
         x1="185.71700"
         y1="63.374001"
         x2="187.15300"
         y2="66.235001"
         id="line20" /><path
         d="M 188.51100,68.935000 C 187.40300,67.902000 185.80900,66.731000 184.46900,66.183000 L 186.98000,65.885000 L 188.71900,64.050000 C 188.35700,65.451000 188.34400,67.429000 188.51100,68.935000 z "
         id="path22" /></g></g><g
     id="g26"><line
       style="fill:none;stroke:#000000;stroke-dasharray:3;"
       x1="33.021"
       y1="62.386"
       x2="144.479"
       y2="45.364"
       id="line28" /><g
       id="g30"><line
         style="fill:none;stroke:#000000;stroke-dasharray:3;"
         x1="61.641"
         y1="57.865"
         x2="64.821"
         y2="57.494"
         id="line32" /><path
         d="M67.822,57.142c-1.349,0.688-2.995,1.785-3.969,2.857l0.579-2.461l-1.13-2.262      C64.496,56.095,66.351,56.784,67.822,57.142z"
         id="path34" /></g><g
       id="g37"><line
         style="fill:none;stroke:#000000;stroke-dasharray:3;"
         x1="103.689"
         y1="51.566"
         x2="106.87"
         y2="51.195"
         id="line39" /><path
         d="M109.87,50.843c-1.349,0.688-2.995,1.785-3.969,2.857l0.579-2.461l-1.13-2.262      C106.545,49.795,108.399,50.484,109.87,50.843z"
         id="path41" /></g></g><text
     id="text47"
     x="46.5"
     y="76.5"><tspan
       id="tspan48"
       style="font-size:7.6500001px;font-family:'Liberation Sans'"
       y="76.5"
       x="46.5">direction of motion</tspan></text>
<text
     id="text51"
     x="46.5"
     y="87.5"><tspan
       id="tspan52"
       style="font-size:7.6500001px;font-family:'Liberation Sans'"
       y="87.5"
       x="46.5">of fossil relative to</tspan></text>
<text
     id="text55"
     x="46.5"
     y="98.5"><tspan
       id="tspan56"
       style="font-size:7.6500001px;font-family:'Liberation Sans'"
       y="98.5"
       x="46.5">glacier, 2.3x10</tspan></text>
<text
     id="text63"
     x="96.540001"
     y="95.5"><tspan
       id="tspan64"
       style="font-size:7.6500001px;font-family:'Liberation Sans'"
       y="95.5"
       x="96.540001">−7</tspan></text>
<text
     id="text67"
     x="104.5425"
     y="98.5"><tspan
       id="tspan68"
       style="font-size:7.6500001px;font-family:'Liberation Sans'"
       y="98.5"
       x="104.5425"> m/s</tspan></text>
<text
     id="text74"
     x="184.9567"
     y="27.543306"><tspan
       id="tspan75"
       style="font-size:7.6500001px;font-family:'Liberation Sans'"
       y="27.543306"
       x="184.9567">direction of motion</tspan></text>
<text
     id="text78"
     x="184.9567"
     y="38.543308"><tspan
       id="tspan79"
       style="font-size:7.6500001px;font-family:'Liberation Sans'"
       y="38.543308"
       x="184.9567">of glacier relative</tspan></text>
<text
     id="text82"
     x="184.9567"
     y="49.543308"><tspan
       id="tspan83"
       style="font-size:7.6500001px;font-family:'Liberation Sans'"
       y="49.543308"
       x="184.9567">to continent, 1.1x10</tspan></text>
<text
     id="text86"
     x="253.51328"
     y="46.543308"><tspan
       id="tspan87"
       style="font-size:7.6500001px;font-family:'Liberation Sans'"
       y="46.543308"
       x="253.51328">−7</tspan></text>
<text
     id="text90"
     x="261.51578"
     y="49.543308"><tspan
       id="tspan91"
       style="font-size:7.6500001px;font-family:'Liberation Sans'"
       y="49.543308"
       x="261.51578"> m/s</tspan></text>
<g
     id="g95"
     transform="translate(7.086614,3.543307)"><line
       style="stroke:#000000"
       x1="10.000000"
       y1="76.500000"
       x2="10.000000"
       y2="15.000000"
       id="line97" /><path
       d="M 10.000000,11.982000 C 10.527000,13.402000 11.426000,15.164000 12.377000,16.255000 L 10.000000,15.396000 L 7.6230000,16.256000 C 8.5740000,15.164000 9.4730000,13.402000 10.000000,11.982000 z "
       id="path99" /></g><g
     id="g102"
     transform="translate(7.086614,3.543307)"><text
       transform="translate(0.000000,9.000000)"
       id="text104"><tspan
         x="0"
         y="0"
         style="font-size:7.6500001;font-family:Liberation Sans"
         id="tspan105">north</tspan></text>
</g></svg>