<?xml version="1.0" encoding="iso-8859-1"?>
<!-- Generator: Adobe Illustrator 11 Build 196, SVG Export Plug-In . SVG Version: 6.0.0 Build 78)  -->
<!DOCTYPE svg PUBLIC "-//W3C//DTD SVG 1.0//EN"    "http://www.w3.org/TR/2001/REC-SVG-20010904/DTD/svg10.dtd" [
	<!ENTITY ns_flows "http://ns.adobe.com/Flows/1.0/">
	<!ENTITY ns_svg "http://www.w3.org/2000/svg">
	<!ENTITY ns_xlink "http://www.w3.org/1999/xlink">
]>
<svg  
	 width="146.577" height="183.5" viewBox="0 0 146.577 183.5" style="overflow:visible;enable-background:new 0 0 146.577 183.5"
	 xml:space="preserve">
	<style type="text/css">
	
	</style>
	<g id="Layer_1">
		<path style="fill:none;stroke:#000000;stroke-width:0.5;" d="M131.369,91.225c2.818,0,5.103-2.284,5.103-5.102V72.627
			c0-2.818-2.284-5.102-5.103-5.102h-13.496c-2.818,0-5.102,2.284-5.102,5.102v13.496c0,2.818,2.284,5.102,5.102,5.102H131.369z"/>
		<path style="fill:#FFFFFF;stroke:#000000;stroke-width:0.5;" d="M87.372,119.147c-0.052,0-0.103,0.006-0.155,0.008h-2.658v9h2.658
			c0.052,0.002,0.103,0.008,0.155,0.008c2.489,0,4.508-2.018,4.508-4.508C91.879,121.166,89.861,119.147,87.372,119.147z"/>
		<rect x="70.62" y="17.75" style="fill:none;stroke:#000000;stroke-width:0.5;" width="5" height="165.5"/> 
		<path style="fill:none;stroke:#000000;stroke-width:0.5;" d="M81.614,139.35c1.491,0,2.7-1.209,2.7-2.7V110.66
			c0-1.491-1.209-2.7-2.7-2.7H64.625c-1.491,0-2.7,1.209-2.7,2.7v25.989c0,1.491,1.209,2.7,2.7,2.7H81.614z"/>
		<rect x="68.62" y="107.967" style="fill:none;stroke:#000000;stroke-width:0.5;stroke-dasharray:2;" width="9" height="31.375"/> 
		<rect x="61.354" y="31.125" style="fill:#FFFFFF;stroke:#000000;stroke-width:0.5;" width="23.531" height="2.8"/> 
		
			<rect x="104.894" y="26.353" transform="matrix(-0.7757 0.6311 -0.6311 -0.7757 222.8546 32.6709)" style="fill:#FFFFFF;stroke:#000000;stroke-width:0.5;" width="1.455" height="59.169"/> 
		
			<rect x="103.826" y="74.146" transform="matrix(-0.7713 -0.6365 0.6365 -0.7713 120.0482 247.6382)" style="fill:#FFFFFF;stroke:#000000;stroke-width:0.5;" width="1.382" height="56.208"/> 
		<g>
			<circle style="fill:#FFFFFF;stroke:#000000;stroke-width:0.5;" cx="124.403" cy="78.868" r="3.889"/> 
			<circle style="fill:#FFFFFF;stroke:#000000;stroke-width:0.5;" cx="124.403" cy="78.868" r="1.556"/> 
		</g>
		<g>
			<circle style="fill:#FFFFFF;stroke:#000000;stroke-width:0.5;" cx="86.857" cy="32.526" r="3.889"/> 
			<circle style="fill:#FFFFFF;stroke:#000000;stroke-width:0.5;" cx="86.857" cy="32.525" r="1.556"/> 
		</g>
		<g>
			<path style="fill:none;stroke:#000000;stroke-width:0.5;" d="M69.075,168.684c-4.568,0.483-7.774,1.614-7.774,2.932
				c0,1.757,5.699,3.182,12.728,3.182s12.728-1.425,12.728-3.182c0-1.291-3.076-2.403-7.497-2.902"/>
			<path d="M76.859,168.444c1.176-0.292,2.657-0.848,3.61-1.507l-0.897,1.813l0.471,1.967
				C79.26,169.863,77.94,168.99,76.859,168.444z"/>
		</g>
		<circle style="fill:#FFFFFF;stroke:#000000;stroke-width:0.5;" cx="86.747" cy="123.655" r="1.556"/> 
		<path style="fill:#FFFFFF;stroke:#000000;stroke-width:0.5;" d="M59.092,118.842c0.052,0,0.103,0.006,0.154,0.008h2.658v9h-2.658
			c-0.052,0.001-0.103,0.008-0.154,0.008c-2.49,0-4.508-2.019-4.508-4.508C54.584,120.86,56.602,118.842,59.092,118.842z"/>
		
			<rect x="40.114" y="26.048" transform="matrix(0.7757 0.6312 -0.6312 0.7757 44.2755 -13.2966)" style="fill:#FFFFFF;stroke:#000000;stroke-width:0.5;" width="1.455" height="59.168"/> 
		
			<rect x="40.942" y="73.84" transform="matrix(0.7758 -0.631 0.631 0.7758 -54.9897 49.124)" style="fill:#FFFFFF;stroke:#000000;stroke-width:0.5;" width="1.382" height="56.21"/> 
		<g>
			<circle style="fill:#FFFFFF;stroke:#000000;stroke-width:0.5;" cx="22.06" cy="78.562" r="3.889"/> 
			<circle style="fill:#FFFFFF;stroke:#000000;stroke-width:0.5;" cx="22.06" cy="78.562" r="1.556"/> 
		</g>
		<g>
			<circle style="fill:#FFFFFF;stroke:#000000;stroke-width:0.5;" cx="59.605" cy="32.22" r="3.889"/> 
			<circle style="fill:#FFFFFF;stroke:#000000;stroke-width:0.5;" cx="59.605" cy="32.22" r="1.556"/> 
		</g>
		<g>
			<text transform="matrix(1 0 0 1 138.2466 81.75)"><tspan x="0" y="0" style="font-family:Liberation Sans; font-size:8.500000;">m</tspan></text>
		</g>
		<g>
			<text transform="matrix(1 0 0 1 0 81.5698)"><tspan x="0" y="0" style="font-family:Liberation Sans; font-size:8.500000;">m</tspan></text>
		</g>
		<g>
			<text transform="matrix(1 0 0 1 50.9966 144)"><tspan x="0" y="0" style="font-family:Liberation Sans; font-size:8.500000;">M</tspan></text>
		</g>
		<g>
			<text transform="matrix(1 0 0 1 122.9966 42.5)"><tspan x="0" y="0" style="font-family:Liberation Sans; font-size:8.500000;">L</tspan></text>
		</g>
		<g>
			<line style="fill:#FFFFFF;stroke:#000000;stroke-width:0.5;" x1="101.904" y1="25.285" x2="133.964" y2="65.59"/>
			<path d="M135.467,67.479c-1.037-0.626-2.478-1.282-3.617-1.491l1.917-0.646l1.06-1.722
				C134.775,64.777,135.089,66.328,135.467,67.479z"/>
			<path d="M100.401,23.396c1.037,0.627,2.478,1.282,3.617,1.491l-1.917,0.646l-1.06,1.722
				C101.093,26.098,100.779,24.547,100.401,23.396z"/>
		</g>
		<g>
			<line style="fill:none;stroke:#000000;stroke-width:0.5;" x1="76.063" y1="14.735" x2="83.587" y2="14.735"/>
			<path d="M86.001,14.735c-1.136,0.422-2.545,1.141-3.418,1.902l0.688-1.902l-0.688-1.902
				C83.457,13.595,84.866,14.314,86.001,14.735z"/>
			<path d="M73.649,14.735c1.136-0.421,2.545-1.141,3.418-1.902l-0.688,1.902l0.688,1.902
				C76.194,15.876,74.785,15.157,73.649,14.735z"/>
		</g>
		<line style="fill:none;stroke:#000000;stroke-width:0.5;stroke-dasharray:2;" x1="86.768" y1="133.75" x2="86.768" y2="10"/>
		<line style="fill:none;stroke:#000000;stroke-width:0.5;stroke-dasharray:2;" x1="73.08" y1="26.5" x2="73.08" y2="10"/>
		<g>
			<text transform="matrix(1 0 0 1 77.2466 10)"><tspan x="0" y="0" style="font-family:Liberation Sans; font-size:8.500000;">a</tspan></text>
		</g>
		<path style="fill:none;stroke:#000000;stroke-width:0.5;" d="M86.857,52.406c4.335,0,8.347-1.388,11.614-3.743"/>
		<g>
			<text transform="matrix(1 0 0 1 91.4131 61.083)"><tspan x="0" y="0" style="font-family:'Symbol'; font-size:9;">&#x3B8;</tspan></text>
		</g>
		<line style="fill:none;" x1="142.747" y1="69.75" x2="142.747" y2="98.75"/>
		<g>
			<text transform="matrix(1 0 0 1 123.4766 120.1582)"><tspan x="0" y="0" style="font-family:Liberation Sans; font-size:8.500000;">L</tspan></text>
		</g>
		<g>
			<line style="fill:#FFFFFF;stroke:#000000;stroke-width:0.5;" x1="136.006" y1="93.069" x2="103.947" y2="133.373"/>
			<path d="M102.444,135.262c1.037-0.626,2.477-1.282,3.617-1.492l-1.917-0.646l-1.06-1.722
				C103.136,132.56,102.821,134.111,102.444,135.262z"/>
			<path d="M137.509,91.179c-1.037,0.626-2.477,1.282-3.617,1.491l1.917,0.646l1.06,1.722
				C136.817,93.881,137.131,92.331,137.509,91.179z"/>
		</g>
		<circle style="fill:#FFFFFF;stroke:#000000;stroke-width:0.5;" cx="58.747" cy="123.194" r="1.556"/> 
		<path style="fill:none;stroke:#000000;stroke-width:0.5;" d="M28.869,90.788c2.818,0,5.103-2.284,5.103-5.102V72.19
			c0-2.818-2.284-5.102-5.103-5.102H15.374c-2.818,0-5.102,2.284-5.102,5.102v13.496c0,2.818,2.284,5.102,5.102,5.102H28.869z"/>
	</g>
</svg>
