<?xml version="1.0" encoding="iso-8859-1"?>
<!-- Generator: Adobe Illustrator 11 Build 196, SVG Export Plug-In . SVG Version: 6.0.0 Build 78)  -->
<!DOCTYPE svg PUBLIC "-//W3C//DTD SVG 1.0//EN"    "http://www.w3.org/TR/2001/REC-SVG-20010904/DTD/svg10.dtd" [
	<!ENTITY ns_flows "http://ns.adobe.com/Flows/1.0/">
	<!ENTITY ns_svg "http://www.w3.org/2000/svg">
	<!ENTITY ns_xlink "http://www.w3.org/1999/xlink">
]>
<svg  
	 width="147.401" height="107.918" viewBox="0 0 147.401 107.918"
	 style="overflow:visible;enable-background:new 0 0 147.401 107.918" xml:space="preserve">
	<style type="text/css">
	
	</style>
	<g id="Layer_1">
		<circle style="fill:#EDEDED;stroke:#000000;" cx="73.576" cy="60.749" r="46.669"/> 
		<g>
			<path style="fill:#EDEDED;stroke:#000000;" d="M16.277,39.397C16.278,39.397,16.278,39.396,16.277,39.397l0.004,0.004
				L74.957,5.526L74.954,5.52c1.229-0.724,1.626-2.344,0.884-3.63c-0.743-1.286-2.344-1.752-3.586-1.05l-0.003-0.005L13.573,34.71
				l0.002,0.004c0,0,0,0-0.001,0c-1.244,0.718-1.648,2.349-0.901,3.642C13.419,39.65,15.033,40.115,16.277,39.397z"/>
			<path style="fill:#EDEDED;stroke:#000000;" d="M130.464,39.384C130.464,39.384,130.464,39.383,130.464,39.384l-0.003,0.004
				L71.785,5.512l0.003-0.005c-1.229-0.724-1.626-2.344-0.883-3.63c0.743-1.287,2.344-1.753,3.585-1.05l0.003-0.005l58.676,33.875
				l-0.002,0.005l0,0c1.245,0.718,1.648,2.349,0.902,3.642S131.709,40.102,130.464,39.384z"/>
			<circle cx="73.382" cy="3.249" r="1.193"/> 
		</g>
		<line style="fill:none;stroke:#000000;stroke-dasharray:2;" x1="73.382" y1="3.249" x2="125.576" y2="3.249"/>
		<path style="fill:none;stroke:#000000;stroke-width:0.5;" d="M98.6,17.763c2.497-4.349,3.924-9.39,3.924-14.764"/>
		<g>
			<g>
				<text transform="matrix(1 0 0 1 104.3257 13.9985)"><tspan x="0" y="0" style="font-family:'Symbol'; font-size:10;">&#x3B8;</tspan></text>
			</g>
		</g>
		<rect y="57.456" style="fill:none;" width="147.401" height="2.835"/> 
	</g>
</svg>
