<?xml version="1.0" encoding="iso-8859-1"?>
<!-- Generator: Adobe Illustrator 11 Build 196, SVG Export Plug-In . SVG Version: 6.0.0 Build 78)  -->
<!DOCTYPE svg PUBLIC "-//W3C//DTD SVG 1.0//EN"    "http://www.w3.org/TR/2001/REC-SVG-20010904/DTD/svg10.dtd" [
	<!ENTITY ns_flows "http://ns.adobe.com/Flows/1.0/">
	<!ENTITY ns_svg "http://www.w3.org/2000/svg">
	<!ENTITY ns_xlink "http://www.w3.org/1999/xlink">
]>
<svg  
	 width="270.512" height="183.517" viewBox="0 0 270.512 183.517"
	 style="overflow:visible;enable-background:new 0 0 270.512 183.517" xml:space="preserve">
	<style type="text/css">
	
	</style>
	<g id="Layer_1">
		<line style="fill:none;stroke:#000000;stroke-width:1.5;" x1="44.168" y1="7.496" x2="44.168" y2="160.504"/>
		<line style="fill:none;stroke:#000000;stroke-width:0.5;" x1="61.168" y1="7.496" x2="61.168" y2="160.504"/>
		<line style="fill:none;stroke:#000000;stroke-width:0.5;" x1="78.168" y1="7.496" x2="78.168" y2="160.504"/>
		<line style="fill:none;stroke:#000000;stroke-width:0.5;" x1="95.168" y1="7.496" x2="95.168" y2="160.504"/>
		<line style="fill:none;stroke:#000000;stroke-width:0.5;" x1="112.168" y1="7.496" x2="112.168" y2="160.504"/>
		<line style="fill:none;stroke:#000000;stroke-width:0.5;" x1="129.168" y1="7.496" x2="129.168" y2="160.504"/>
		<line style="fill:none;stroke:#000000;stroke-width:0.5;" x1="146.168" y1="7.496" x2="146.168" y2="160.504"/>
		<line style="fill:none;stroke:#000000;stroke-width:0.5;" x1="163.168" y1="7.496" x2="163.168" y2="160.504"/>
		<line style="fill:none;stroke:#000000;stroke-width:0.5;" x1="180.168" y1="7.496" x2="180.168" y2="160.504"/>
		<line style="fill:none;stroke:#000000;stroke-width:0.5;" x1="197.168" y1="7.496" x2="197.168" y2="160.504"/>
		<line style="fill:none;stroke:#000000;stroke-width:0.5;" x1="214.168" y1="7.496" x2="214.168" y2="160.504"/>
		<line style="fill:none;stroke:#000000;stroke-width:0.5;" x1="231.168" y1="7.496" x2="231.168" y2="160.504"/>
		<line style="fill:none;stroke:#000000;stroke-width:0.5;" x1="248.168" y1="7.496" x2="248.168" y2="160.504"/>
		<line style="fill:none;stroke:#000000;stroke-width:0.5;" x1="265.168" y1="7.496" x2="265.168" y2="160.504"/>
		<line style="fill:none;stroke:#000000;stroke-width:0.5;" x1="44.189" y1="7.396" x2="265.189" y2="7.396"/>
		<line style="fill:none;stroke:#000000;stroke-width:0.5;" x1="44.189" y1="24.396" x2="265.189" y2="24.396"/>
		<line style="fill:none;stroke:#000000;stroke-width:0.5;" x1="44.189" y1="41.396" x2="265.189" y2="41.396"/>
		<line style="fill:none;stroke:#000000;stroke-width:0.5;" x1="44.189" y1="58.396" x2="265.189" y2="58.396"/>
		<line style="fill:none;stroke:#000000;stroke-width:0.5;" x1="44.189" y1="75.396" x2="265.189" y2="75.396"/>
		<line style="fill:none;stroke:#000000;stroke-width:0.5;" x1="44.189" y1="92.896" x2="265.189" y2="92.896"/>
		<line style="fill:none;stroke:#000000;stroke-width:1.5;" x1="44.189" y1="143.146" x2="265.189" y2="143.146"/>
		<line style="fill:none;stroke:#000000;stroke-width:0.5;" x1="44.189" y1="109.396" x2="265.189" y2="109.396"/>
		<line style="fill:none;stroke:#000000;stroke-width:0.5;" x1="44.189" y1="126.396" x2="265.189" y2="126.396"/>
		<line style="fill:none;stroke:#000000;stroke-width:0.5;" x1="44.189" y1="143.396" x2="265.189" y2="143.396"/>
		<g>
			<text transform="matrix(1 0 0 1 58.5015 168.5)"><tspan x="0" y="0" style="font-family:Liberation Sans; font-size:7.650000;">1</tspan></text>
		</g>
		<g>
			<text transform="matrix(1 0 0 1 41.5015 168.5)"><tspan x="0" y="0" style="font-family:Liberation Sans; font-size:7.650000;">0</tspan></text>
		</g>
		<g>
			<text transform="matrix(1 0 0 1 75.5015 168.5)"><tspan x="0" y="0" style="font-family:Liberation Sans; font-size:7.650000;">2</tspan></text>
		</g>
		<g>
			<text transform="matrix(1 0 0 1 92.5015 168.5)"><tspan x="0" y="0" style="font-family:Liberation Sans; font-size:7.650000;">3</tspan></text>
		</g>
		<g>
			<text transform="matrix(1 0 0 1 109.5015 168.5)"><tspan x="0" y="0" style="font-family:Liberation Sans; font-size:7.650000;">4</tspan></text>
		</g>
		<g>
			<text transform="matrix(1 0 0 1 126.5015 168.5)"><tspan x="0" y="0" style="font-family:Liberation Sans; font-size:7.650000;">5</tspan></text>
		</g>
		<g>
			<text transform="matrix(1 0 0 1 143.5015 168.5)"><tspan x="0" y="0" style="font-family:Liberation Sans; font-size:7.650000;">6</tspan></text>
		</g>
		<g>
			<text transform="matrix(1 0 0 1 160.5015 168.5)"><tspan x="0" y="0" style="font-family:Liberation Sans; font-size:7.650000;">7</tspan></text>
		</g>
		<g>
			<text transform="matrix(1 0 0 1 177.5015 168.5)"><tspan x="0" y="0" style="font-family:Liberation Sans; font-size:7.650000;">8</tspan></text>
		</g>
		<g>
			<text transform="matrix(1 0 0 1 194.5015 168.5)"><tspan x="0" y="0" style="font-family:Liberation Sans; font-size:7.650000;">9</tspan></text>
		</g>
		<g>
			<text transform="matrix(1 0 0 1 209.5015 168.5)"><tspan x="0" y="0" style="font-family:Liberation Sans; font-size:7.650000;">10</tspan></text>
		</g>
		<g>
			<text transform="matrix(1 0 0 1 226.5015 168.5)"><tspan x="0" y="0" style="font-family:Liberation Sans; font-size:7.650000;">1</tspan></text>
			<text transform="matrix(1 0 0 1 230.8408 168.5)"><tspan x="0" y="0" style="font-family:Liberation Sans; font-size:7.650000;">1</tspan></text>
		</g>
		<g>
			<text transform="matrix(1 0 0 1 243.5015 168.5)"><tspan x="0" y="0" style="font-family:Liberation Sans; font-size:7.650000;">12</tspan></text>
		</g>
		<g>
			<text transform="matrix(1 0 0 1 260.5015 168.5)"><tspan x="0" y="0" style="font-family:Liberation Sans; font-size:7.650000;">13</tspan></text>
		</g>
		<g>
			<text transform="matrix(1 0 0 1 134.835 179.5)"><tspan x="0" y="0" style="font-family:Liberation Sans; font-size:7.650000;">time (s)</tspan></text>
		</g>
		<g>
			<text transform="matrix(1 0 0 1 36.5015 146.5)"><tspan x="0" y="0" style="font-family:Liberation Sans; font-size:7.650000;">0</tspan></text>
		</g>
		<g>
			<text transform="matrix(1 0 0 1 34.5015 163.5)"><tspan x="0" y="0" style="font-family:Liberation Sans; font-size:7.650000;">-1</tspan></text>
		</g>
		<g>
			<text transform="matrix(1 0 0 1 36.5015 129.5)"><tspan x="0" y="0" style="font-family:Liberation Sans; font-size:7.650000;">1</tspan></text>
		</g>
		<g>
			<text transform="matrix(1 0 0 1 36.5015 112.5)"><tspan x="0" y="0" style="font-family:Liberation Sans; font-size:7.650000;">2</tspan></text>
		</g>
		<g>
			<text transform="matrix(1 0 0 1 36.5015 95.5)"><tspan x="0" y="0" style="font-family:Liberation Sans; font-size:7.650000;">3</tspan></text>
		</g>
		<g>
			<text transform="matrix(1 0 0 1 36.5015 78.5)"><tspan x="0" y="0" style="font-family:Liberation Sans; font-size:7.650000;">4</tspan></text>
		</g>
		<g>
			<text transform="matrix(1 0 0 1 36.5015 61.5)"><tspan x="0" y="0" style="font-family:Liberation Sans; font-size:7.650000;">5</tspan></text>
		</g>
		<g>
			<text transform="matrix(1 0 0 1 36.5015 44)"><tspan x="0" y="0" style="font-family:Liberation Sans; font-size:7.650000;">6</tspan></text>
		</g>
		<g>
			<text transform="matrix(1 0 0 1 36.5015 26.5)"><tspan x="0" y="0" style="font-family:Liberation Sans; font-size:7.650000;">7</tspan></text>
		</g>
		<g>
			<text transform="matrix(1 0 0 1 36.5015 9)"><tspan x="0" y="0" style="font-family:Liberation Sans; font-size:7.650000;">8</tspan></text>
		</g>
		<g>
			<text transform="matrix(1 0 0 1 0 79.5)"><tspan x="0" y="0" style="font-family:Liberation Sans; font-size:7.650000;">velocity</tspan></text>
			<text transform="matrix(1 0 0 1 9.5164 90.5)"><tspan x="0" y="0" style="font-family:Liberation Sans; font-size:7.650000;">(m/s)</tspan></text>
		</g>
		<line style="fill:none;stroke:#000000;stroke-width:0.5;" x1="265.189" y1="160.396" x2="44.189" y2="160.396"/>
		<path style="fill:none;stroke:#000000;" d="M45.689,143.083c8-1.485,18-5.445,27-27.225c9-21.78,3.5-88.111,6.5-99.496
			s3-7.425,6-7.92c3-0.495,8.5,2.475,14.5,41.085c6,38.61,8.812,58.992,16.812,60.972s30-21.415,37.5-13s17.5,57,111.5,60.743"/>
	</g>
</svg>
