<?xml version="1.0" encoding="iso-8859-1"?>
<!-- Generator: Adobe Illustrator 11 Build 196, SVG Export Plug-In . SVG Version: 6.0.0 Build 78)  -->
<!DOCTYPE svg PUBLIC "-//W3C//DTD SVG 1.0//EN"    "http://www.w3.org/TR/2001/REC-SVG-20010904/DTD/svg10.dtd" [
	<!ENTITY ns_flows "http://ns.adobe.com/Flows/1.0/">
	<!ENTITY ns_svg "http://www.w3.org/2000/svg">
	<!ENTITY ns_xlink "http://www.w3.org/1999/xlink">
]>
<svg  
	 width="83.984" height="79.937" viewBox="0 0 83.984 79.937" style="overflow:visible;enable-background:new 0 0 83.984 79.937"
	 xml:space="preserve">
	<style type="text/css">
	
	</style>
	<g id="Layer_1">
		<circle style="stroke:#000000;" cx="13.228" cy="15.4" r="12.728"/> 
		<circle style="stroke:#000000;" cx="74.428" cy="71.8" r="7.637"/> 
		<g>
			<line style="stroke:#000000;" x1="30.628" y1="14.8" x2="52.228" y2="14.8"/>
			<path d="M57.056,14.8c-2.272,0.843-5.091,2.281-6.838,3.804l1.376-3.804l-1.376-3.804C51.966,12.519,54.784,13.957,57.056,14.8z"
				/>
		</g>
		<g>
			<line style="stroke:#000000;" x1="73.828" y1="55.628" x2="73.828" y2="34.028"/>
			<path d="M73.828,29.2c0.843,2.272,2.282,5.091,3.804,6.838l-3.804-1.376l-3.804,1.376C71.547,34.291,72.986,31.472,73.828,29.2z"
				/>
		</g>
		<g>
			<g>
				<text transform="matrix(1 0 0 1 40.228 9.0002)"><tspan x="0" y="0" style="font-family:Liberation Sans; font-size:7.650000;">v</tspan></text>
			</g>
			<g>
				<text transform="matrix(1 0 0 1 44.728 11.3997)"><tspan x="0" y="0" style="font-family:Liberation Sans; font-size:5.950000;">i</tspan></text>
			</g>
		</g>
		<g>
			<g>
				<text transform="matrix(1 0 0 1 77.929 43.9919)"><tspan x="0" y="0" style="font-family:Liberation Sans; font-size:7.650000;">v</tspan></text>
			</g>
			<g>
				<text transform="matrix(1 0 0 1 82.429 46.3918)"><tspan x="0" y="0" style="font-family:Liberation Sans; font-size:5.950000;">i</tspan></text>
			</g>
		</g>
	</g>
</svg>
