<?xml version="1.0" encoding="UTF-8" standalone="no"?>
<!-- Generator: Adobe Illustrator 11 Build 196, SVG Export Plug-In . SVG Version: 6.0.0 Build 78)  -->

<svg
   xmlns:dc="http://purl.org/dc/elements/1.1/"
   xmlns:cc="http://creativecommons.org/ns#"
   xmlns:rdf="http://www.w3.org/1999/02/22-rdf-syntax-ns#"
   xmlns:svg="http://www.w3.org/2000/svg"
   xmlns="http://www.w3.org/2000/svg"
   xmlns:xlink="http://www.w3.org/1999/xlink"
   xmlns:sodipodi="http://sodipodi.sourceforge.net/DTD/sodipodi-0.dtd"
   xmlns:inkscape="http://www.inkscape.org/namespaces/inkscape"
   width="147.401"
   height="85.38"
   viewBox="0 0 147.401 85.38"
   style="overflow:visible;enable-background:new 0 0 147.401 85.38"
   xml:space="preserve"
   id="svg2"
   version="1.1"
   sodipodi:docname="hw-labrolling.svg"
   inkscape:export-filename="/home/bcrowell/Documents/writing/books/physics/lm/n3/figs/hw-labrolling.png"
   inkscape:export-xdpi="300"
   inkscape:export-ydpi="300"><metadata
   id="metadata113"><rdf:RDF><cc:Work
       rdf:about=""><dc:format>image/svg+xml</dc:format><dc:type
         rdf:resource="http://purl.org/dc/dcmitype/StillImage" /><dc:title></dc:title></cc:Work></rdf:RDF></metadata><defs
   id="defs111">
		
		 
	<linearGradient
   inkscape:collect="always"
   xlink:href="#XMLID_3_"
   id="linearGradient3142"
   gradientUnits="userSpaceOnUse"
   gradientTransform="matrix(0.9291,0.3697,-0.3697,0.9291,65.1094,-219.2307)"
   x1="80.941399"
   y1="247.8813"
   x2="110.4414"
   y2="247.8813" /><linearGradient
   inkscape:collect="always"
   xlink:href="#XMLID_4_"
   id="linearGradient3144"
   gradientUnits="userSpaceOnUse"
   gradientTransform="matrix(0.9291,0.3697,-0.3697,0.9291,63.6187,-222.2454)"
   x1="80.941399"
   y1="247.8813"
   x2="110.4414"
   y2="247.8813" />
			
			
			
			
			
			
			 
			
			
			
			
			
			
		</defs><sodipodi:namedview
   pagecolor="#ffffff"
   bordercolor="#666666"
   borderopacity="1"
   objecttolerance="10"
   gridtolerance="10"
   guidetolerance="10"
   inkscape:pageopacity="0"
   inkscape:pageshadow="2"
   inkscape:window-width="1280"
   inkscape:window-height="996"
   id="namedview109"
   showgrid="false"
   inkscape:zoom="7.9523942"
   inkscape:cx="66.713268"
   inkscape:cy="44.313192"
   inkscape:window-x="0"
   inkscape:window-y="0"
   inkscape:window-maximized="1"
   inkscape:current-layer="svg2" />
	<style
   type="text/css"
   id="style4">
	
	</style>
	<polygon
   style="fill:#dcdcdc"
   points="1.004,84.916 147.213,84.916 1.004,26.703 "
   id="polygon9" /><line
   style="fill:none;stroke:#000000;stroke-width:0.5"
   x1="147.306"
   y1="85.148003"
   x2="1.096"
   y2="26.934999"
   id="line11" /><g
   id="g13">
				
					<linearGradient
   id="XMLID_3_"
   gradientUnits="userSpaceOnUse"
   x1="80.941399"
   y1="247.8813"
   x2="110.4414"
   y2="247.8813"
   gradientTransform="matrix(0.9291,0.3697,-0.3697,0.9291,65.1094,-219.2307)">
					<stop
   offset="0"
   style="stop-color:#FFFFFF"
   id="stop16" />
					<stop
   offset="1"
   style="stop-color:#000000"
   id="stop18" />
					<midPointStop
   offset="0"
   style="stop-color:#FFFFFF"
   id="midPointStop20" />
					<midPointStop
   offset="0.5"
   style="stop-color:#FFFFFF"
   id="midPointStop22" />
					<midPointStop
   offset="1"
   style="stop-color:#000000"
   id="midPointStop24" />
				</linearGradient>
				<path
   style="fill:url(#linearGradient3142)"
   d="m 64.725,43.083 -14.343,-5.708 -0.786,1.974 2.962,1.179 -0.46,1.157 c -1.209,-0.445 -2.56,0.147 -3.039,1.352 -0.39,0.98 -0.075,2.054 0.691,2.697 l 12.018,4.783 2.957,-7.434 z"
   id="path26"
   inkscape:connector-curvature="0" />
				
					<linearGradient
   id="XMLID_4_"
   gradientUnits="userSpaceOnUse"
   x1="80.941399"
   y1="247.8813"
   x2="110.4414"
   y2="247.8813"
   gradientTransform="matrix(0.9291,0.3697,-0.3697,0.9291,63.6187,-222.2454)">
					<stop
   offset="0"
   style="stop-color:#FFFFFF"
   id="stop29" />
					<stop
   offset="1"
   style="stop-color:#000000"
   id="stop31" />
					<midPointStop
   offset="0"
   style="stop-color:#FFFFFF"
   id="midPointStop33" />
					<midPointStop
   offset="0.5"
   style="stop-color:#FFFFFF"
   id="midPointStop35" />
					<midPointStop
   offset="1"
   style="stop-color:#000000"
   id="midPointStop37" />
				</linearGradient>
				<polygon
   style="fill:url(#linearGradient3144)"
   points="72.877,52.516 75.835,45.083 48.89,34.36 45.932,41.793 "
   id="polygon39" />
				
					<rect
   x="71.136002"
   y="38.297001"
   transform="matrix(-0.3698,0.9291,-0.9291,-0.3698,143.8231,-15.5879)"
   style="fill:#ffffff;stroke:#000000;stroke-width:0.5"
   width="12.125"
   height="5.375"
   id="rect41" /> 
				<circle
   cx="83.004997"
   cy="56.479"
   r="2.3859999"
   id="circle43"
   sodipodi:cx="83.004997"
   sodipodi:cy="56.479"
   sodipodi:rx="2.3859999"
   sodipodi:ry="2.3859999" /> 
				<circle
   cx="62.332001"
   cy="48.252998"
   r="2.3870001"
   id="circle45"
   sodipodi:cx="62.332001"
   sodipodi:cy="48.252998"
   sodipodi:rx="2.3870001"
   sodipodi:ry="2.3870001" /> 
				
					<rect
   x="70.078003"
   y="34.324001"
   transform="matrix(-0.3697,0.9291,-0.9291,-0.3697,146.8326,-1.952)"
   style="fill:#808080;stroke:#000000;stroke-width:0.5"
   width="8"
   height="29"
   id="rect47" /> 
				<g
   id="g49">
					<g
   id="g51">
						<line
   style="fill:none;stroke:#000000;stroke-width:0.5"
   x1="64.136002"
   y1="33.566002"
   x2="72.382004"
   y2="36.848"
   id="line53" />
						<path
   d="m 75.186,37.963 c -1.514,-0.035 -3.483,0.148 -4.85,0.629 l 1.678,-1.891 0.08,-2.527 c 0.663,1.288 1.967,2.775 3.092,3.789 z"
   id="path55"
   inkscape:connector-curvature="0" />
					</g>
					<g
   id="g57">
						<line
   style="fill:none;stroke:#000000;stroke-width:0.5"
   x1="91.786003"
   y1="44.57"
   x2="83.540001"
   y2="41.289001"
   id="line59" />
						<path
   d="m 80.736,40.172 c 1.514,0.036 3.483,-0.148 4.85,-0.629 l -1.678,1.891 -0.08,2.527 C 83.165,42.674 81.86,41.187 80.736,40.172 z"
   id="path61"
   inkscape:connector-curvature="0" />
					</g>
				</g>
			</g><path
   style="fill:none;stroke:#9f9f9f;stroke-width:0.50000000000000000;stroke-opacity:1"
   d="M 34.675,29.052 23.699,24.684 27.582,14.928 22.588,12.941 18.706,22.697 7.73,18.329 4.772,25.762 5.708,26.135 c -0.364,1.178 0.222,2.455 1.387,2.918 1.165,0.464 2.468,-0.062 3.013,-1.167 l 16.273,6.476 c -0.364,1.178 0.222,2.455 1.387,2.918 1.165,0.464 2.468,-0.062 3.013,-1.167 l 0.936,0.373 2.958,-7.434 z"
   id="path63"
   inkscape:connector-curvature="0" /><path
   style="fill:none;stroke:#9f9f9f;stroke-width:0.50000000000000000;stroke-opacity:1"
   d="m 142.08,71.667 -10.975,-4.367 3.882,-9.755 -4.994,-1.988 -3.882,9.756 -10.975,-4.368 -2.958,7.433 0.936,0.373 c -0.364,1.178 0.222,2.455 1.387,2.918 1.165,0.463 2.468,-0.062 3.013,-1.167 l 16.273,6.476 c -0.364,1.177 0.222,2.455 1.387,2.918 1.165,0.463 2.468,-0.062 3.013,-1.168 l 0.936,0.373 2.957,-7.434 z"
   id="path65"
   inkscape:connector-curvature="0" /><path
   style="fill:none;stroke:#9f9f9f;stroke-width:0.50000000000000000;stroke-opacity:1"
   d="m 137.101,69.667 -10.976,-4.367 3.883,-9.756 -4.994,-1.988 -3.882,9.756 -10.976,-4.368 -2.958,7.433 0.936,0.373 c -0.364,1.178 0.222,2.455 1.387,2.918 1.165,0.463 2.468,-0.062 3.013,-1.167 l 16.273,6.476 c -0.364,1.177 0.222,2.455 1.387,2.918 1.165,0.463 2.468,-0.062 3.013,-1.168 l 0.936,0.373 2.958,-7.433 z"
   id="path67"
   inkscape:connector-curvature="0" /><circle
   style="fill:#7f7f7f;stroke:#000000;stroke-width:0.5"
   cx="128.83701"
   cy="58.271"
   r="1.414"
   id="circle69"
   sodipodi:cx="128.83701"
   sodipodi:cy="58.271"
   sodipodi:rx="1.414"
   sodipodi:ry="1.414" /><g
   id="g71">
				<text
   transform="translate(22.8374,10)"
   id="text73"><tspan
     x="0"
     y="0"
     style="font-size:8.5px;font-family:Liberation Sans"
     id="tspan75">A</tspan></text>

			</g><g
   id="g77">
				<text
   transform="translate(124.8374,51.333)"
   id="text79"><tspan
     x="0"
     y="0"
     style="font-size:8.5px;font-family:Liberation Sans"
     id="tspan81">B</tspan></text>

			</g><g
   id="g83">
				<text
   transform="translate(133.8374,54.333)"
   id="text85"><tspan
     x="0"
     y="0"
     style="font-size:8.5px;font-family:Liberation Sans"
     id="tspan87">C</tspan></text>

			</g><g
   id="g89">
				<text
   transform="translate(93.1704,47.6665)"
   id="text91"><tspan
     x="0"
     y="0"
     style="font-size:8.5px;font-family:Liberation Sans"
     id="tspan93">w</tspan></text>

			</g><g
   id="g95">
				<polyline
   style="fill:none;stroke:#000000;stroke-width:0.5"
   points="112.874,27.142 119.207,29.809 119.207,54.809       123.54,56.475 "
   id="polyline97" />
				<path
   d="m 126.356,57.559 c -1.514,-0.018 -3.481,0.189 -4.842,0.685 l 1.656,-1.911 0.051,-2.527 c 0.678,1.279 1.999,2.751 3.135,3.753 z"
   id="path99"
   inkscape:connector-curvature="0" />
			</g><g
   id="g101">
				<text
   transform="translate(88.8374,25.333)"
   id="text103"><tspan
     x="0"
     y="0"
     style="font-size:8.5px;font-family:Liberation Sans"
     id="tspan105">sensor</tspan></text>

			</g><rect
   x="0"
   id="rect107"
   height="2.835"
   width="147.401"
   style="fill:none"
   y="79.208" />
</svg>