<?xml version="1.0" encoding="UTF-8" standalone="no"?>
<!-- Created with Inkscape (http://www.inkscape.org/) -->

<svg
   xmlns:dc="http://purl.org/dc/elements/1.1/"
   xmlns:cc="http://creativecommons.org/ns#"
   xmlns:rdf="http://www.w3.org/1999/02/22-rdf-syntax-ns#"
   xmlns:svg="http://www.w3.org/2000/svg"
   xmlns="http://www.w3.org/2000/svg"
   xmlns:xlink="http://www.w3.org/1999/xlink"
   xmlns:sodipodi="http://sodipodi.sourceforge.net/DTD/sodipodi-0.dtd"
   xmlns:inkscape="http://www.inkscape.org/namespaces/inkscape"
   width="744.09448819"
   height="1052.3622047"
   id="svg2"
   version="1.1"
   sodipodi:docname="hw-layback.svg">
  <defs
     id="defs4">
    <marker
       inkscape:stockid="Arrow2Mend"
       orient="auto"
       refY="0.0"
       refX="0.0"
       id="Arrow2Mend"
       style="overflow:visible;">
      <path
         id="path4035"
         style="fill-rule:evenodd;stroke-width:0.62500000;stroke-linejoin:round;"
         d="M 8.7185878,4.0337352 L -2.2072895,0.016013256 L 8.7185884,-4.0017078 C 6.9730900,-1.6296469 6.9831476,1.6157441 8.7185878,4.0337352 z "
         transform="scale(0.6) rotate(180) translate(0,0)" />
    </marker>
    <marker
       inkscape:stockid="Arrow2Mend"
       orient="auto"
       refY="0"
       refX="0"
       id="Arrow2Mend-8"
       style="overflow:visible">
      <path
         inkscape:connector-curvature="0"
         id="path4035-3"
         style="fill-rule:evenodd;stroke-width:0.625;stroke-linejoin:round"
         d="M 8.7185878,4.0337352 -2.2072895,0.01601326 8.7185884,-4.0017078 c -1.7454984,2.3720609 -1.7354408,5.6174519 -6e-7,8.035443 z"
         transform="scale(-0.6,-0.6)" />
    </marker>
  </defs>
  <sodipodi:namedview
     id="base"
     pagecolor="#ffffff"
     bordercolor="#666666"
     borderopacity="1.0"
     inkscape:pageopacity="0.0"
     inkscape:pageshadow="2"
     inkscape:zoom="1.680181"
     inkscape:cx="35.382876"
     inkscape:cy="621.08396"
     inkscape:document-units="mm"
     inkscape:current-layer="layer1"
     showgrid="false"
     inkscape:window-width="1440"
     inkscape:window-height="872"
     inkscape:window-x="0"
     inkscape:window-y="0"
     inkscape:window-maximized="1" />
  <metadata
     id="metadata7">
    <rdf:RDF>
      <cc:Work
         rdf:about="">
        <dc:format>image/svg+xml</dc:format>
        <dc:type
           rdf:resource="http://purl.org/dc/dcmitype/StillImage" />
      </cc:Work>
    </rdf:RDF>
  </metadata>
  <g
     inkscape:label="Layer 1"
     inkscape:groupmode="layer"
     id="layer1">
    <image
       y="430.46463"
       x="33.442867"
       id="image3087"
       xlink:href="hw-layback-bitmaps/layback.jpg"
       height="266.66058"
       width="400.39371" />
    <g
       id="g4135"
       transform="matrix(0.80562113,0,0,0.80562113,610.80526,201.77031)"
       style="fill:#ffffff;fill-opacity:1">
      <path
         id="path3066-9-9"
         d="m -450.53125,367.53125 c -2.01126,0.15546 -6.01265,1.18939 -8.5,1.5625 -2.84269,0.4264 -3.6875,3.84375 -3.6875,3.84375 l -4.96875,0.125 -9.53125,5.84375 c 0,0 -5.97487,1.55043 -9.8125,2.6875 -3.83764,1.13708 -18.0625,7.09375 -18.0625,7.09375 l -2.9375,2.34375 -0.9375,0.34375 -5.09375,3 -1.9375,0.75 -6.125,-8.84375 -2.375,-3.40625 -0.0313,-0.0625 -1.5,-2.15625 6.4375,5.5 c 0,0 -2.95668,-3.12704 -4.09375,-4.40625 -1.13708,-1.27921 -4.28435,-6.28125 -8.40625,-6.28125 l 3.4375,2.9375 -8.4375,-2.9375 -1,0.4375 c -14.16016,1.58335 -14.8058,6.70166 -17.1562,12.09375 -2.41629,5.54325 -3.6875,12.20064 -3.6875,13.90625 0,1.70562 3.53329,7.11896 4.8125,7.6875 1.27927,0.56854 2.28125,0.84375 2.28125,0.84375 L -551,408.5 l 0.90625,0.90625 c -2.83806,2.11717 -2.35379,7.35758 1.65625,7.875 1.21017,0.15615 2.14595,-0.0363 2.875,-0.40625 l -3.375,3.28125 -5.46875,-6.9375 c 0,0 0.21812,2.59804 0.96875,5.375 l -4.5,-5.375 -5.71875,3.96875 0,9.71875 c 0,0 1.72816,1.96818 4,3.6875 l -4,3.90625 1.1875,11.78125 -0.625,3.03125 -1,-16.65625 -5.75,27.375 -0.4375,22.0625 6.625,10.15625 0.4375,11.46875 2.5,2.1875 1.21875,6.625 c -0.31216,1.11087 -1.2803,4.46654 -2.40625,7.09375 -1.3244,3.09028 3.09375,4.84375 3.09375,4.84375 l 0,-0.34375 1.03125,0.25 -0.59375,1 0.875,7.9375 c 0,0 11.4995,7.51141 15.03125,9.71875 3.53175,2.20734 16.78125,0.875 16.78125,0.875 0,0 7.50744,4.85913 10.15625,6.625 2.64881,1.76588 10.13988,1.75347 15.4375,4.84375 5.29763,3.09028 17.22619,4.40625 19.875,4.40625 2.64881,0 12.34375,3.53125 12.34375,3.53125 0,0 4.91016,-2.61701 9.34375,-5.65625 0.1726,0.20169 5.25692,6.14231 6.125,8.3125 0.88293,2.20735 9.69048,5.74156 16.3125,10.15625 6.62203,4.41469 14.59375,8.84375 14.59375,8.84375 0,0 2.84791,-0.78603 5.4375,-1.9375 l -2.375,2.375 7.09375,14.125 7.5,5.75 c 0,0 7.0501,-3.97222 11.90625,-7.0625 4.85615,-3.09028 10.15575,-1.33532 13.6875,-5.75 3.53174,-4.41469 9.28125,-13.2495 9.28125,-16.78125 0,-3.53175 0.44196,-10.15625 -3.53125,-10.15625 -3.97322,0 -7.07391,0.8745 -9.28125,4.40625 -2.20735,3.53175 -8.83531,6.1875 -13.25,6.1875 -4.41469,0 -11.90625,-2.1875 -11.90625,-2.1875 l -2.71875,2.6875 c 0.82775,-1.48996 1.375,-2.6875 1.375,-2.6875 0,0 -4.39781,-3.10912 -8.8125,-4.875 -4.41468,-1.76587 -29.15625,-31.34375 -29.15625,-31.34375 l -0.78125,1.25 c 1.12637,-3.49245 1.87641,-6.05451 2.21875,-7.21875 l 0.21875,-0.34375 c 0,0 -0.0913,-0.061 -0.0937,-0.0625 0.0382,-0.13071 0.21875,-0.6875 0.21875,-0.6875 l -1.71875,-0.1875 c -0.63441,-0.37978 -1.00419,-0.59853 -2.125,-1.25 l 2.96875,0.5625 -6.1875,-3.96875 c 0,0 -0.8745,-3.08929 -4.40625,-7.0625 -3.53175,-3.97322 -6.625,-2.65625 -6.625,-2.65625 l -32.21875,-9.71875 -1.53125,-1.15625 11.375,-4.3125 0.0625,-0.0937 c 1.70168,-0.69352 6.40625,-3.04756 6.40625,-8.125 0,-0.0206 3e-5,-0.0419 0,-0.0625 l 2.375,-3.03125 5.90625,7.375 0.375,-0.21875 c 7.53228,9.263 16.34552,10.01912 24.03125,14.46875 8.3879,4.85616 11.03125,8.40625 11.03125,8.40625 l 0.59375,-1.46875 1.65625,2.5625 -0.9375,0.65625 c 0,0 5.30803,8.83184 9.28125,10.15625 3.97321,1.3244 9.28125,6.1875 9.28125,6.1875 0,0 6.15179,-12.80406 10.125,-17.21875 3.97322,-4.41468 8.39037,-3.53422 10.15625,-10.15625 1.76587,-6.62202 1.34375,-16.78125 1.34375,-16.78125 l -3.96875,-2.625 c 0,0 -7.94544,2.63244 -7.0625,5.28125 0.88294,2.64881 -0.46875,4.875 -0.46875,4.875 l -0.1875,0.125 -0.71875,2.6875 -16.25,4.21875 -4.96875,-3.6875 -2.28125,-0.4375 c -2.03357,-2.05795 -5.95653,-5.85693 -10,-8.65625 -5.38319,-3.72682 -17.00285,-14.48056 -18.46875,-15.84375 l -0.625,-2.3125 0.53125,-3.46875 -5.71875,-4.4375 1.21875,2.59375 -4.125,-3.71875 2.4375,-0.625 c 0,0 -11.90129,-6.17957 -19.40625,-7.0625 -7.50497,-0.88294 -12.80803,8.37053 -16.78125,12.34375 -2.97991,2.97991 -10.4301,5.97754 -13.96875,7.28125 l -3.71875,1.15625 3.5625,-23.09375 25.59375,-3 2.65625,-7.0625 c 0,0 0.11471,-3.02287 -0.71875,-6.34375 l 10.875,-5.5625 -7.9375,5.28125 8.46875,-5.53125 4.96875,-2.53125 5.53125,-1.625 c 0,0 3.86593,-4.08985 6.65625,-7.3125 l -2.03125,1.34375 4.125,-3.875 c -0.51462,0.67741 -1.25682,1.56465 -2.09375,2.53125 l 2.375,-1.5625 4.03125,-8.09375 12.96875,-2.40625 1.53125,-0.53125 0.0625,-0.90625 0.625,-0.84375 -0.59375,0.375 0.375,-4.53125 -0.34375,-0.1875 c -0.21673,-0.75077 -0.59551,-1.59375 -1.3125,-1.59375 -0.36259,0 -1.08978,-0.0301 -1.71875,-0.0625 l -0.46875,-0.25 3.15625,0.0313 0.59375,-1.5625 -1,-2.6875 -6.125,-0.28125 4.28125,0 0.28125,-1.4375 -1.84375,-1.84375 c 0,0 -5.7097,-0.72177 -6.5625,-0.4375 -0.85281,0.28427 -4.6875,0.71875 -4.6875,0.71875 l 1.4375,-4.6875 0.28125,-3.125 -1.71875,0 c 0,0 -1.27521,2.13609 -1.84375,2.5625 -0.56854,0.4264 -2.55646,4.66735 -3.125,5.09375 -0.56261,0.42196 -0.70908,2.95892 -1.125,7.28125 l -7.40625,6.625 -1.375,0.75 -2.09375,3.9375 -12.65625,5.71875 -6,6.90625 -8.21875,-0.9375 -1.03125,0.5625 -5.71875,2.71875 c -4.77928,-1.62613 -8.90625,-2.875 -8.90625,-2.875 l -5.3125,-3.09375 -1.71875,0.125 -1.21875,-2.15625 3.375,-2.53125 c 0,0 -0.13082,-3.47474 -0.21875,-6.03125 l 2.84375,-1.9375 0.71875,-0.28125 c 0.3308,-0.29265 0.75533,-0.64831 1.125,-0.96875 l 2.25,-1.53125 0.71875,-0.4375 c 2.80322,-1.43118 9.25,-4.625 9.25,-4.625 l 12.34375,-6.09375 11.5625,-6.40625 -4.0625,3.3125 c 0,0 -5.08092,2.28598 -7.625,3.65625 3.55271,-1.5118 7.28125,-3.09375 7.28125,-3.09375 0,0 3.27005,-2.5999 6.0625,-4.78125 l 13.09375,-7.21875 3.78125,0.96875 0.28125,0.125 c -0.25726,-0.17596 -0.84375,-0.59375 -0.84375,-0.59375 l -3.03125,-0.59375 1.0625,-0.59375 9.15625,3.59375 -0.46875,0.1875 c 2.32096,0.16968 4.78125,0.25 4.78125,0.25 l 3.84375,-0.3125 c 0,0 0.56552,-1.39923 0.28125,-3.53125 l -0.5,0.1875 0.1875,-0.5 -0.0625,-0.375 0.25,-0.0313 c 0,0 0.24851,-1.09645 -0.84375,-2.90625 l -0.0937,-0.5 0.21875,0 c 0,0 0.39165,-2.42474 -0.90625,-3.46875 l -0.0313,-0.15625 0.65625,-0.0625 0.125,-1.875 c 0,0 -0.96755,-1.23158 -3.03125,-1.8125 l -0.0937,-0.1875 0.4375,0.0313 c 0,0 0.26411,-1.00506 0.40625,-2 0.14213,-0.99494 -2.24902,-0.98287 -3.8125,-1.125 -0.19543,-0.0178 -0.46268,-0.0222 -0.75,0 z m -1.0625,18.375 c -0.52133,-0.0381 -0.96141,-0.10626 -1.4375,-0.15625 l -0.78125,1.0625 2.21875,-0.90625 z m -63.125,8.875 -1.0625,0.625 -0.15625,-0.21875 1.21875,-0.40625 z m -5.15625,99.25 0.8125,0.6875 -1.625,0.875 0.8125,-1.5625 z m 93.28125,10.46875 2.28125,1.53125 1.09375,-0.84375 -3.375,-0.6875 z m 15.34375,1.1875 -0.875,0.625 -1.8125,0 c 0.968,-0.20757 1.92208,-0.42761 2.6875,-0.625 z m -147.90625,8.75 0.40625,2.21875 -0.21875,3.375 -0.1875,-5.59375 z"
         style="fill:#ffffff;fill-opacity:1;stroke:none"
         inkscape:connector-curvature="0" />
    </g>
    <path
       style="color:#000000;fill:none;stroke:#000000;stroke-width:1.00702643;stroke-linecap:butt;stroke-linejoin:miter;stroke-miterlimit:4;stroke-opacity:1;stroke-dasharray:none;stroke-dashoffset:0;marker:none;visibility:visible;display:inline;overflow:visible;enable-background:accumulate"
       d="m 242.44465,450.45658 5.71547,47.20728"
       id="path3960-5"
       inkscape:connector-curvature="0"
       sodipodi:nodetypes="cc" />
    <path
       style="color:#000000;fill:none;stroke:#000000;stroke-width:1.00702643;stroke-linecap:butt;stroke-linejoin:miter;stroke-miterlimit:4;stroke-opacity:1;stroke-dasharray:none;stroke-dashoffset:0;marker:none;visibility:visible;display:inline;overflow:visible;enable-background:accumulate"
       d="m 274.51093,674.83796 3.43035,22.32423"
       id="path3960-5-3"
       inkscape:connector-curvature="0"
       sodipodi:nodetypes="cc" />
    <path
       style="color:#000000;fill:none;stroke:#000000;stroke-width:1.00702643;stroke-linecap:butt;stroke-linejoin:miter;stroke-miterlimit:4;stroke-opacity:1;stroke-dasharray:none;stroke-dashoffset:0;marker:none;visibility:visible;display:inline;overflow:visible;enable-background:accumulate"
       d="m 267.85367,629.83144 3.74933,27.29344"
       id="path3960-5-3-9"
       inkscape:connector-curvature="0"
       sodipodi:nodetypes="cc" />
    <path
       style="color:#000000;fill:none;stroke:#000000;stroke-width:1.00702643;stroke-linecap:butt;stroke-linejoin:miter;stroke-miterlimit:4;stroke-opacity:1;stroke-dasharray:none;stroke-dashoffset:0;marker:none;visibility:visible;display:inline;overflow:visible;enable-background:accumulate"
       d="m 253.89109,535.19053 10.73719,72.18274"
       id="path3960-5-3-9-9"
       inkscape:connector-curvature="0"
       sodipodi:nodetypes="cc" />
    <g
       id="g3990"
       style="stroke:#000000;stroke-width:1.25;stroke-miterlimit:4;stroke-opacity:1;stroke-dasharray:none"
       transform="matrix(0.80562113,0,0,0.80562113,6.5005868,158.38762)">
      <path
         inkscape:connector-curvature="0"
         id="path3066"
         d="m 304.17184,591.91048 c 0,0 24.72224,29.57839 29.13692,31.34426 4.41469,1.76588 8.82937,4.85616 8.82937,4.85616 0,0 -2.20734,4.85615 -4.41468,7.06349 -2.20734,2.20735 -8.82937,3.97322 -8.82937,3.97322 0,0 -7.94644,-4.41468 -14.56847,-8.82937 -6.62202,-4.41469 -15.4514,-7.94643 -16.33433,-10.15378 -0.88294,-2.20734 -6.18056,-8.3879 -6.18056,-8.3879"
         style="fill:none;stroke:#000000;stroke-width:1.25;stroke-linecap:butt;stroke-linejoin:miter;stroke-miterlimit:4;stroke-opacity:1;stroke-dasharray:none" />
      <path
         inkscape:connector-curvature="0"
         id="path3836"
         d="m 331.98436,639.58908 7.06349,14.12699 7.50497,5.73909 c 0,0 7.0635,-3.97321 11.91965,-7.06349 4.85615,-3.09028 10.15378,-1.32441 13.68553,-5.73909 3.53174,-4.41469 9.27084,-13.24406 9.27084,-16.77581 0,-3.53175 0.44146,-10.15378 -3.53175,-10.15378 -3.97322,0 -7.0635,0.88294 -9.27084,4.41469 -2.20735,3.53175 -8.82937,6.18056 -13.24406,6.18056 -4.41469,0 -11.91965,-2.20734 -11.91965,-2.20734"
         style="fill:none;stroke:#000000;stroke-width:1.25;stroke-linecap:butt;stroke-linejoin:miter;stroke-miterlimit:4;stroke-opacity:1;stroke-dasharray:none" />
      <path
         inkscape:connector-curvature="0"
         id="path3838"
         d="m 305.93771,584.84698 c 0,0 -4.85615,16.7758 -7.50496,21.19049 -2.64882,4.41468 -15.89287,11.47818 -15.89287,11.47818 0,0 -9.71231,-3.53175 -12.36112,-3.53175 -2.64881,0 -14.56846,-1.3244 -19.86609,-4.41468 -5.29762,-3.09028 -12.80259,-3.09028 -15.4514,-4.85616 -2.64881,-1.76587 -10.15377,-6.62203 -10.15377,-6.62203 0,0 -13.24406,1.32441 -16.77581,-0.88293 -3.53175,-2.20734 -15.00993,-9.71231 -15.00993,-9.71231 l -0.88294,-7.94643 3.97322,-6.62203"
         style="color:#000000;fill:none;stroke:#000000;stroke-width:1.25;stroke-linecap:butt;stroke-linejoin:miter;stroke-miterlimit:4;stroke-opacity:1;stroke-dasharray:none;stroke-dashoffset:0;marker:none;visibility:visible;display:inline;overflow:visible;enable-background:accumulate" />
      <path
         inkscape:connector-curvature="0"
         id="path3840"
         d="m 191.59735,578.66642 c 0,0 -4.41468,-1.76588 -3.09028,-4.85616 1.32441,-3.09028 2.64882,-7.94643 2.64882,-7.94643"
         style="color:#000000;fill:none;stroke:#000000;stroke-width:1.25;stroke-linecap:butt;stroke-linejoin:miter;stroke-miterlimit:4;stroke-opacity:1;stroke-dasharray:none;stroke-dashoffset:0;marker:none;visibility:visible;display:inline;overflow:visible;enable-background:accumulate" />
      <path
         inkscape:connector-curvature="0"
         id="path3842"
         d="m 195.1291,563.65649 c 7.50497,0.44147 18.10021,-4.85616 18.10021,-4.85616 l 18.54168,-10.15377 18.10021,7.50496 5.7391,4.41469 32.2272,9.71231 c 0,0 3.09028,-1.32441 6.62203,2.64881 3.53175,3.97321 4.41468,7.06349 4.41468,7.06349 l 6.18056,3.97322"
         style="color:#000000;fill:none;stroke:#000000;stroke-width:1.25;stroke-linecap:butt;stroke-linejoin:miter;stroke-miterlimit:4;stroke-opacity:1;stroke-dasharray:none;stroke-dashoffset:0;marker:none;visibility:visible;display:inline;overflow:visible;enable-background:accumulate" />
      <path
         inkscape:connector-curvature="0"
         id="path3844"
         d="m 278.56666,548.20509 c 7.94644,11.91965 17.65874,12.36112 26.04665,17.21727 8.3879,4.85616 11.03671,8.3879 11.03671,8.3879 l 3.53175,-8.82937 3.53175,-5.29762 c 0,0 -5.73909,-6.18056 -11.47819,-10.15378 -5.73909,-3.97321 -18.98314,-16.33433 -18.98314,-16.33433 0,0 -6.62203,1.3244 -8.38791,4.41468 -1.76587,3.09028 -5.29762,10.59525 -5.29762,10.59525 z"
         style="color:#000000;fill:none;stroke:#000000;stroke-width:1.25;stroke-linecap:butt;stroke-linejoin:miter;stroke-miterlimit:4;stroke-opacity:1;stroke-dasharray:none;stroke-dashoffset:0;marker:none;visibility:visible;display:inline;overflow:visible;enable-background:accumulate" />
      <path
         inkscape:connector-curvature="0"
         id="path3846"
         d="m 286.95456,523.48285 5.73909,4.41468 -0.88293,5.7391"
         style="color:#000000;fill:none;stroke:#000000;stroke-width:1.25;stroke-linecap:butt;stroke-linejoin:miter;stroke-miterlimit:4;stroke-opacity:1;stroke-dasharray:none;stroke-dashoffset:0;marker:none;visibility:visible;display:inline;overflow:visible;enable-background:accumulate" />
      <path
         inkscape:connector-curvature="0"
         id="path3848"
         d="m 284.30575,524.36579 c -5.29762,3.97321 -9.71231,11.47818 -9.71231,11.47818 l 1.32441,8.3879"
         style="color:#000000;fill:none;stroke:#000000;stroke-width:1.25;stroke-linecap:butt;stroke-linejoin:miter;stroke-miterlimit:4;stroke-opacity:1;stroke-dasharray:none;stroke-dashoffset:0;marker:none;visibility:visible;display:inline;overflow:visible;enable-background:accumulate" />
      <path
         inkscape:connector-curvature="0"
         id="path3850"
         d="m 271.94463,522.15844 c -1.3244,11.91965 0,18.54168 0,24.72224 0,6.18056 -7.06349,8.3879 -7.06349,8.3879"
         style="color:#000000;fill:none;stroke:#000000;stroke-width:1.25;stroke-linecap:butt;stroke-linejoin:miter;stroke-miterlimit:4;stroke-opacity:1;stroke-dasharray:none;stroke-dashoffset:0;marker:none;visibility:visible;display:inline;overflow:visible;enable-background:accumulate" />
      <path
         inkscape:connector-curvature="0"
         id="path3852"
         d="m 263.55673,526.57313 c 1.76587,13.24406 -1.76587,28.25399 -1.76587,28.25399"
         style="color:#000000;fill:none;stroke:#000000;stroke-width:1.25;stroke-linecap:butt;stroke-linejoin:miter;stroke-miterlimit:4;stroke-opacity:1;stroke-dasharray:none;stroke-dashoffset:0;marker:none;visibility:visible;display:inline;overflow:visible;enable-background:accumulate" />
      <path
         inkscape:connector-curvature="0"
         id="path3854"
         d="m 252.96148,531.42928 c 3.97322,11.03672 7.0635,22.5149 7.0635,22.5149"
         style="color:#000000;fill:none;stroke:#000000;stroke-width:1.25;stroke-linecap:butt;stroke-linejoin:miter;stroke-miterlimit:4;stroke-opacity:1;stroke-dasharray:none;stroke-dashoffset:0;marker:none;visibility:visible;display:inline;overflow:visible;enable-background:accumulate" />
      <path
         inkscape:connector-curvature="0"
         id="path3856"
         d="m 247.66386,533.19516 c 1.32441,7.94643 4.41469,18.10021 4.41469,18.10021"
         style="color:#000000;fill:none;stroke:#000000;stroke-width:1.25;stroke-linecap:butt;stroke-linejoin:miter;stroke-miterlimit:4;stroke-opacity:1;stroke-dasharray:none;stroke-dashoffset:0;marker:none;visibility:visible;display:inline;overflow:visible;enable-background:accumulate" />
      <path
         inkscape:connector-curvature="0"
         id="path3858"
         d="m 240.60036,536.28544 c 6.62203,6.18056 6.18056,7.94643 6.18056,7.94643"
         style="color:#000000;fill:none;stroke:#000000;stroke-width:1.25;stroke-linecap:butt;stroke-linejoin:miter;stroke-miterlimit:4;stroke-opacity:1;stroke-dasharray:none;stroke-dashoffset:0;marker:none;visibility:visible;display:inline;overflow:visible;enable-background:accumulate" />
      <path
         inkscape:connector-curvature="0"
         id="path3860"
         d="m 234.41981,534.96103 c 0,0 11.91965,-3.97322 15.89286,-7.94643 3.97322,-3.97322 9.27084,-13.24406 16.77581,-12.36112 7.50496,0.88293 19.42462,7.06349 19.42462,7.06349"
         style="color:#000000;fill:none;stroke:#000000;stroke-width:1.25;stroke-linecap:butt;stroke-linejoin:miter;stroke-miterlimit:4;stroke-opacity:1;stroke-dasharray:none;stroke-dashoffset:0;marker:none;visibility:visible;display:inline;overflow:visible;enable-background:accumulate" />
      <path
         inkscape:connector-curvature="0"
         id="path3862"
         d="m 316.97443,575.57614 c 0,0 5.29762,8.82937 9.27084,10.15378 3.97321,1.3244 9.27084,6.18056 9.27084,6.18056 0,0 6.18056,-12.80259 10.15377,-17.21728 3.97322,-4.41468 8.3879,-3.53175 10.15378,-10.15378 1.76587,-6.62202 1.3244,-16.7758 1.3244,-16.7758 l -3.97321,-2.64881 c 0,0 -7.94644,2.64881 -7.0635,5.29762 0.88294,2.64881 -0.44147,4.85615 -0.44147,4.85615"
         style="color:#000000;fill:none;stroke:#000000;stroke-width:1.25;stroke-linecap:butt;stroke-linejoin:miter;stroke-miterlimit:4;stroke-opacity:1;stroke-dasharray:none;stroke-dashoffset:0;marker:none;visibility:visible;display:inline;overflow:visible;enable-background:accumulate" />
      <path
         inkscape:connector-curvature="0"
         id="path3864"
         d="m 350.9675,556.15152 c 0,0 -7.94643,2.64881 -11.03671,3.53175 -3.09028,0.88294 -10.59524,2.20734 -10.59524,2.20734 l -4.41469,-1.76587"
         style="color:#000000;fill:none;stroke:#000000;stroke-width:1.25;stroke-linecap:butt;stroke-linejoin:miter;stroke-miterlimit:4;stroke-opacity:1;stroke-dasharray:none;stroke-dashoffset:0;marker:none;visibility:visible;display:inline;overflow:visible;enable-background:accumulate" />
      <path
         inkscape:connector-curvature="0"
         id="path3866"
         d="m 233.0954,544.23187 -0.44147,-8.3879"
         style="color:#000000;fill:none;stroke:#000000;stroke-width:1.25;stroke-linecap:butt;stroke-linejoin:miter;stroke-miterlimit:4;stroke-opacity:1;stroke-dasharray:none;stroke-dashoffset:0;marker:none;visibility:visible;display:inline;overflow:visible;enable-background:accumulate" />
      <path
         inkscape:connector-curvature="0"
         id="path3868"
         d="m 235.30274,513.77054 c 0,0 -1.3244,9.71231 -1.76587,14.12699 -0.44147,4.41469 -3.09028,9.71231 -3.09028,9.71231"
         style="color:#000000;fill:none;stroke:#000000;stroke-width:1.25;stroke-linecap:butt;stroke-linejoin:miter;stroke-miterlimit:4;stroke-opacity:1;stroke-dasharray:none;stroke-dashoffset:0;marker:none;visibility:visible;display:inline;overflow:visible;enable-background:accumulate" />
      <path
         inkscape:connector-curvature="0"
         id="path3870"
         d="m 231.77099,512.8876 30.01987,-3.53175 2.64881,-7.06349 c 0,0 0.44147,-11.03672 -6.18056,-14.127 -6.62203,-3.09028 -19.86609,-7.06349 -19.86609,-7.06349 l -5.29762,-3.09028 -13.24406,0.88293 c 0,0 -14.12699,1.76588 -18.54168,0.44147 -4.41468,-1.3244 -5.29762,-11.91965 -5.29762,-11.91965"
         style="color:#000000;fill:none;stroke:#000000;stroke-width:1.25;stroke-linecap:butt;stroke-linejoin:miter;stroke-miterlimit:4;stroke-opacity:1;stroke-dasharray:none;stroke-dashoffset:0;marker:none;visibility:visible;display:inline;overflow:visible;enable-background:accumulate" />
      <path
         inkscape:connector-curvature="0"
         id="path3872"
         d="m 192.48029,467.41634 -5.73909,3.97322 0,9.71231 c 0,0 5.29762,6.18056 9.71231,6.18056 4.41468,0 9.71231,-3.53175 9.71231,-3.53175"
         style="color:#000000;fill:none;stroke:#000000;stroke-width:1.25;stroke-linecap:butt;stroke-linejoin:miter;stroke-miterlimit:4;stroke-opacity:1;stroke-dasharray:none;stroke-dashoffset:0;marker:none;visibility:visible;display:inline;overflow:visible;enable-background:accumulate" />
      <path
         inkscape:connector-curvature="0"
         id="path3874"
         d="m 186.29973,486.84096 -5.73909,27.37105 -0.44147,22.07343 6.62203,10.15377 0.44147,11.47819 3.53175,3.09028"
         style="color:#000000;fill:none;stroke:#000000;stroke-width:1.25;stroke-linecap:butt;stroke-linejoin:miter;stroke-miterlimit:4;stroke-opacity:1;stroke-dasharray:none;stroke-dashoffset:0;marker:none;visibility:visible;display:inline;overflow:visible;enable-background:accumulate" />
      <path
         inkscape:connector-curvature="0"
         id="path3876"
         d="m 199.10232,544.67334 c -6.18056,6.62203 -7.50497,10.59524 -7.50497,10.59524"
         style="color:#000000;fill:none;stroke:#000000;stroke-width:1.25;stroke-linecap:butt;stroke-linejoin:miter;stroke-miterlimit:4;stroke-opacity:1;stroke-dasharray:none;stroke-dashoffset:0;marker:none;visibility:visible;display:inline;overflow:visible;enable-background:accumulate" />
      <path
         inkscape:connector-curvature="0"
         id="path3878"
         d="m 200.42673,527.45607 c 0,0 -10.15378,7.94643 -11.03672,12.36112 -0.88294,4.41468 -0.88294,4.41468 -0.88294,4.41468"
         style="color:#000000;fill:none;stroke:#000000;stroke-width:1.25;stroke-linecap:butt;stroke-linejoin:miter;stroke-miterlimit:4;stroke-opacity:1;stroke-dasharray:none;stroke-dashoffset:0;marker:none;visibility:visible;display:inline;overflow:visible;enable-background:accumulate" />
      <path
         inkscape:connector-curvature="0"
         id="path3880"
         d="m 187.62414,506.70704 c 0,0 10.15377,-5.29762 12.80259,-5.29762 2.64881,0 19.86608,-0.44147 19.86608,-0.44147 l 0,0 0,0"
         style="color:#000000;fill:none;stroke:#000000;stroke-width:1.25;stroke-linecap:butt;stroke-linejoin:miter;stroke-miterlimit:4;stroke-opacity:1;stroke-dasharray:none;stroke-dashoffset:0;marker:none;visibility:visible;display:inline;overflow:visible;enable-background:accumulate" />
      <path
         inkscape:connector-curvature="0"
         id="path3882"
         d="m 187.62414,504.05823 c 6.18056,-4.41468 17.21727,-9.71231 17.21727,-9.71231 0,0 4.41469,-0.44147 7.94644,0 3.53174,0.44147 7.50496,0.88294 7.50496,0.88294"
         style="color:#000000;fill:none;stroke:#000000;stroke-width:1.25;stroke-linecap:butt;stroke-linejoin:miter;stroke-miterlimit:4;stroke-opacity:1;stroke-dasharray:none;stroke-dashoffset:0;marker:none;visibility:visible;display:inline;overflow:visible;enable-background:accumulate" />
      <path
         inkscape:connector-curvature="0"
         id="path3884"
         d="m 266.64701,495.67033 11.47818,-7.50497 7.50497,-2.20734 c 0,0 7.94643,-8.3879 9.27084,-10.59524 1.3244,-2.20735 3.97321,-7.50497 3.97321,-7.50497 l 8.38791,-0.88294 5.29762,-0.88293 1.32441,-1.76588"
         style="color:#000000;fill:none;stroke:#000000;stroke-width:1.25;stroke-linecap:butt;stroke-linejoin:miter;stroke-miterlimit:4;stroke-opacity:1;stroke-dasharray:none;stroke-dashoffset:0;marker:none;visibility:visible;display:inline;overflow:visible;enable-background:accumulate" />
      <path
         inkscape:connector-curvature="0"
         id="path3886"
         d="m 252.99947,481.26562 10.37583,-0.28427 c 0,0 5.25897,-6.25392 6.39605,-6.82246 1.13708,-0.56854 11.5129,-6.25392 11.5129,-6.25392 l 7.95953,-7.8174 7.53313,-2.41629"
         style="color:#000000;fill:none;stroke:#000000;stroke-width:1.25;stroke-linecap:butt;stroke-linejoin:miter;stroke-miterlimit:4;stroke-opacity:1;stroke-dasharray:none;stroke-dashoffset:0;marker:none;visibility:visible;display:inline;overflow:visible;enable-background:accumulate" />
      <path
         inkscape:connector-curvature="0"
         id="path3888"
         d="m 291.8022,457.81342 c 0.42641,-4.40617 0.56854,-6.96459 1.13708,-7.391 0.56854,-0.4264 2.55842,-4.69044 3.12696,-5.11684 0.56854,-0.42641 1.84775,-2.55842 1.84775,-2.55842 l 1.70561,0 -0.28427,3.12696 -1.42134,4.69044 c 0,0 3.83763,-0.42641 4.69044,-0.71068 0.8528,-0.28427 6.53819,0.42641 6.53819,0.42641 l 1.84775,1.84775 -0.28427,1.42134 -4.26404,0 6.11179,0.28427 0.99494,2.70056 -0.56854,1.56348"
         style="color:#000000;fill:none;stroke:#000000;stroke-width:1.25;stroke-linecap:butt;stroke-linejoin:miter;stroke-miterlimit:4;stroke-opacity:1;stroke-dasharray:none;stroke-dashoffset:0;marker:none;visibility:visible;display:inline;overflow:visible;enable-background:accumulate" />
      <path
         inkscape:connector-curvature="0"
         id="path3890"
         d="m 306.86846,458.09769 c 0,0 3.83764,0.28427 5.11685,0.28427 1.27921,0 1.56348,2.70055 1.56348,2.70055 l -0.56854,1.27921 -4.97471,0"
         style="color:#000000;fill:none;stroke:#000000;stroke-width:1.25;stroke-linecap:butt;stroke-linejoin:miter;stroke-miterlimit:4;stroke-opacity:1;stroke-dasharray:none;stroke-dashoffset:0;marker:none;visibility:visible;display:inline;overflow:visible;enable-background:accumulate" />
      <path
         inkscape:connector-curvature="0"
         id="path3892"
         d="m 232.5321,451.13309 c 0.4264,3.6955 0.99494,22.31513 0.99494,22.31513 l -4.40617,3.26909 -5.54324,-2.27415 c 0,0 -2.55843,-6.53819 0.14213,-6.82246 2.70056,-0.28427 5.54325,-3.12696 5.96965,-3.6955 0.4264,-0.56854 1.98988,-9.80728 1.98988,-9.80728 0,0 -0.14213,-5.96965 -0.4264,-6.68032 -0.28427,-0.71068 -2.98482,-6.9646 -2.98482,-6.9646"
         style="color:#000000;fill:none;stroke:#000000;stroke-width:1.25;stroke-linecap:butt;stroke-linejoin:miter;stroke-miterlimit:4;stroke-opacity:1;stroke-dasharray:none;stroke-dashoffset:0;marker:none;visibility:visible;display:inline;overflow:visible;enable-background:accumulate" />
      <path
         inkscape:connector-curvature="0"
         id="path3894"
         d="m 232.9585,449.85388 6.11179,-1.98988 6.25392,-4.97471 c 0,0 14.21345,-5.96965 18.05109,-7.10673 3.83763,-1.13707 9.80728,-2.70055 9.80728,-2.70055 l 9.52301,-5.82752 4.97471,-0.14213 c 0,0 0.85281,-3.41123 3.6955,-3.83763 2.84269,-0.42641 7.67526,-1.70562 9.23874,-1.56348 1.56348,0.14213 3.97977,0.14213 3.83764,1.13707 -0.14214,0.99494 -0.42641,1.98989 -0.42641,1.98989 l -3.41123,-0.28427"
         style="color:#000000;fill:none;stroke:#000000;stroke-width:1.25;stroke-linecap:butt;stroke-linejoin:miter;stroke-miterlimit:4;stroke-opacity:1;stroke-dasharray:none;stroke-dashoffset:0;marker:none;visibility:visible;display:inline;overflow:visible;enable-background:accumulate" />
      <path
         inkscape:connector-curvature="0"
         id="path3896"
         d="m 303.59937,424.98034 c 2.13202,0.56854 3.12696,1.84775 3.12696,1.84775 l -0.14214,1.84775 -4.40617,0.4264"
         style="color:#000000;fill:none;stroke:#000000;stroke-width:1.25;stroke-linecap:butt;stroke-linejoin:miter;stroke-miterlimit:4;stroke-opacity:1;stroke-dasharray:none;stroke-dashoffset:0;marker:none;visibility:visible;display:inline;overflow:visible;enable-background:accumulate" />
      <path
         inkscape:connector-curvature="0"
         id="path3898"
         d="m 305.87352,428.81797 c 1.42135,0.99494 0.99494,3.55337 0.99494,3.55337 l -4.83257,0.28426"
         style="color:#000000;fill:none;stroke:#000000;stroke-width:1.25;stroke-linecap:butt;stroke-linejoin:miter;stroke-miterlimit:4;stroke-opacity:1;stroke-dasharray:none;stroke-dashoffset:0;marker:none;visibility:visible;display:inline;overflow:visible;enable-background:accumulate" />
      <path
         inkscape:connector-curvature="0"
         id="path3900"
         d="m 306.72633,432.79774 c 1.13708,1.84775 0.85281,2.98482 0.85281,2.98482 l -4.26404,0.56854"
         style="color:#000000;fill:none;stroke:#000000;stroke-width:1.25;stroke-linecap:butt;stroke-linejoin:miter;stroke-miterlimit:4;stroke-opacity:1;stroke-dasharray:none;stroke-dashoffset:0;marker:none;visibility:visible;display:inline;overflow:visible;enable-background:accumulate" />
      <path
         inkscape:connector-curvature="0"
         id="path3902"
         d="m 307.72127,436.49324 c 0.28427,2.13202 -0.28427,3.55336 -0.28427,3.55336 l -3.83763,0.28427 c 0,0 -7.67527,-0.14213 -8.67021,-0.85281 -0.99494,-0.71067 -2.84269,-1.98988 -2.84269,-1.98988 l -3.55336,-0.71067 -8.81234,3.83763 -9.66515,7.8174 c 0,0 -6.96459,3.12696 -8.67021,4.26403 -1.70561,1.13708 -10.37582,5.25898 -11.65503,5.25898 -1.27921,0 -4.54831,0.85281 -4.54831,0.85281 l -10.09155,7.10673"
         style="color:#000000;fill:none;stroke:#000000;stroke-width:1.25;stroke-linecap:butt;stroke-linejoin:miter;stroke-miterlimit:4;stroke-opacity:1;stroke-dasharray:none;stroke-dashoffset:0;marker:none;visibility:visible;display:inline;overflow:visible;enable-background:accumulate" />
      <path
         inkscape:connector-curvature="0"
         id="path3904"
         d="m 213.34394,470.88979 9.38088,3.41123"
         style="color:#000000;fill:none;stroke:#000000;stroke-width:1.25;stroke-linecap:butt;stroke-linejoin:miter;stroke-miterlimit:4;stroke-opacity:1;stroke-dasharray:none;stroke-dashoffset:0;marker:none;visibility:visible;display:inline;overflow:visible;enable-background:accumulate" />
      <path
         inkscape:connector-curvature="0"
         id="path3906"
         d="m 214.76528,430.38145 c 12.64998,7.24886 11.65504,15.77694 11.37077,18.05109 -0.28427,2.27415 -1.42135,7.95953 -1.42135,7.95953"
         style="color:#000000;fill:none;stroke:#000000;stroke-width:1.25;stroke-linecap:butt;stroke-linejoin:miter;stroke-miterlimit:4;stroke-opacity:1;stroke-dasharray:none;stroke-dashoffset:0;marker:none;visibility:visible;display:inline;overflow:visible;enable-background:accumulate" />
      <path
         inkscape:connector-curvature="0"
         id="path3908"
         d="m 221.58774,462.64599 c -2.84269,4.1219 -6.39605,7.95954 -8.95447,8.2438 -2.55843,0.28427 -4.26404,0.14214 -4.26404,0.14214"
         style="color:#000000;fill:none;stroke:#000000;stroke-width:1.25;stroke-linecap:butt;stroke-linejoin:miter;stroke-miterlimit:4;stroke-opacity:1;stroke-dasharray:none;stroke-dashoffset:0;marker:none;visibility:visible;display:inline;overflow:visible;enable-background:accumulate" />
      <path
         inkscape:connector-curvature="0"
         id="path3912"
         d="m 213.48607,429.95505 c -15.35053,1.42134 -15.91906,6.68032 -18.33535,12.22357 -2.41629,5.54325 -3.6955,12.22357 -3.6955,13.92918 0,1.70562 3.55336,7.10673 4.83257,7.67527 1.27922,0.56854 2.27416,0.85281 2.27416,0.85281"
         style="color:#000000;fill:none;stroke:#000000;stroke-width:1.25;stroke-linecap:butt;stroke-linejoin:miter;stroke-miterlimit:4;stroke-opacity:1;stroke-dasharray:none;stroke-dashoffset:0;marker:none;visibility:visible;display:inline;overflow:visible;enable-background:accumulate" />
      <path
         inkscape:connector-curvature="0"
         id="path3914"
         d="m 208.2271,448.43254 c -1.56348,6.53819 -2.98483,11.37076 -2.98483,11.37076"
         style="color:#000000;fill:none;stroke:#000000;stroke-width:1.25;stroke-linecap:butt;stroke-linejoin:miter;stroke-miterlimit:4;stroke-opacity:1;stroke-dasharray:none;stroke-dashoffset:0;marker:none;visibility:visible;display:inline;overflow:visible;enable-background:accumulate" />
      <path
         inkscape:connector-curvature="0"
         id="path3916"
         d="m 213.48607,454.97073 c -2.13201,3.69549 -5.54324,6.11178 -5.54324,6.11178"
         style="color:#000000;fill:none;stroke:#000000;stroke-width:1.25;stroke-linecap:butt;stroke-linejoin:miter;stroke-miterlimit:4;stroke-opacity:1;stroke-dasharray:none;stroke-dashoffset:0;marker:none;visibility:visible;display:inline;overflow:visible;enable-background:accumulate" />
      <path
         inkscape:connector-curvature="0"
         id="path3918"
         d="m 199.55689,453.69152 c 1.56348,3.41122 2.98482,6.39605 2.98482,6.39605"
         style="color:#000000;fill:none;stroke:#000000;stroke-width:1.25;stroke-linecap:butt;stroke-linejoin:miter;stroke-miterlimit:4;stroke-opacity:1;stroke-dasharray:none;stroke-dashoffset:0;marker:none;visibility:visible;display:inline;overflow:visible;enable-background:accumulate" />
      <path
         inkscape:connector-curvature="0"
         id="path3920"
         d="m 195.43499,456.96061 c 3.55336,3.55336 4.97471,4.40617 4.97471,4.40617"
         style="color:#000000;fill:none;stroke:#000000;stroke-width:1.25;stroke-linecap:butt;stroke-linejoin:miter;stroke-miterlimit:4;stroke-opacity:1;stroke-dasharray:none;stroke-dashoffset:0;marker:none;visibility:visible;display:inline;overflow:visible;enable-background:accumulate" />
      <path
         sodipodi:nodetypes="csc"
         inkscape:connector-curvature="0"
         id="path3922"
         d="m 201.2625,463.0724 c -3.83763,1.56347 -3.69549,7.8174 0.71068,8.38593 4.40617,0.56854 5.25897,-3.55336 5.25897,-3.55336"
         style="color:#000000;fill:none;stroke:#000000;stroke-width:1.25;stroke-linecap:butt;stroke-linejoin:miter;stroke-miterlimit:4;stroke-opacity:1;stroke-dasharray:none;stroke-dashoffset:0;marker:none;visibility:visible;display:inline;overflow:visible;enable-background:accumulate" />
      <path
         inkscape:connector-curvature="0"
         id="path3924"
         d="m 218.31865,429.67078 c 4.1219,0 7.24886,4.97471 8.38594,6.25392 1.13707,1.27921 4.1219,4.40617 4.1219,4.40617"
         style="color:#000000;fill:none;stroke:#000000;stroke-width:1.25;stroke-linecap:butt;stroke-linejoin:miter;stroke-miterlimit:4;stroke-opacity:1;stroke-dasharray:none;stroke-dashoffset:0;marker:none;visibility:visible;display:inline;overflow:visible;enable-background:accumulate" />
      <path
         inkscape:connector-curvature="0"
         id="path3926"
         d="m 225.85178,436.91964 c 1.42134,2.98483 2.84269,5.82752 2.70055,8.10167 -0.14213,2.27415 -0.14213,2.27415 -0.14213,2.27415"
         style="color:#000000;fill:none;stroke:#000000;stroke-width:1.25;stroke-linecap:butt;stroke-linejoin:miter;stroke-miterlimit:4;stroke-opacity:1;stroke-dasharray:none;stroke-dashoffset:0;marker:none;visibility:visible;display:inline;overflow:visible;enable-background:accumulate" />
      <path
         inkscape:connector-curvature="0"
         id="path3928"
         d="m 225.85178,456.96061 c -1.98989,-0.56854 -3.55337,-2.13202 -3.83763,-0.56854 -0.28427,1.56348 -0.56854,2.27415 -0.56854,3.2691 0,0.99494 1.84775,3.97976 1.84775,3.97976"
         style="color:#000000;fill:none;stroke:#000000;stroke-width:1.25;stroke-linecap:butt;stroke-linejoin:miter;stroke-miterlimit:4;stroke-opacity:1;stroke-dasharray:none;stroke-dashoffset:0;marker:none;visibility:visible;display:inline;overflow:visible;enable-background:accumulate" />
      <path
         sodipodi:nodetypes="cc"
         inkscape:connector-curvature="0"
         id="path3960-5-3-9-8"
         d="m 303.11135,440.06674 1.56918,9.77166"
         style="color:#000000;fill:none;stroke:#000000;stroke-width:1.25;stroke-linecap:butt;stroke-linejoin:miter;stroke-miterlimit:4;stroke-opacity:1;stroke-dasharray:none;stroke-dashoffset:0;marker:none;visibility:visible;display:inline;overflow:visible;enable-background:accumulate" />
    </g>
    <path
       style="color:#000000;fill:none;stroke:#000000;stroke-width:4.02810574;stroke-linecap:butt;stroke-linejoin:miter;stroke-miterlimit:4;stroke-opacity:1;stroke-dasharray:none;stroke-dashoffset:0;marker:none;marker-end:url(#Arrow2Mend);visibility:visible;display:inline;overflow:visible;enable-background:accumulate"
       d="M 252.69362,501.72391 339.57349,489.0803"
       id="path3978-0"
       inkscape:connector-curvature="0"
       sodipodi:nodetypes="cc" />
    <path
       style="color:#000000;fill:none;stroke:#000000;stroke-width:4.02810574;stroke-linecap:butt;stroke-linejoin:miter;stroke-miterlimit:4;stroke-opacity:1;stroke-dasharray:none;stroke-dashoffset:0;marker:none;marker-end:url(#Arrow2Mend);visibility:visible;display:inline;overflow:visible;enable-background:accumulate"
       d="m 254.0811,501.72602 -6.86099,-47.14491"
       id="path4000"
       inkscape:connector-curvature="0" />
    <path
       style="color:#000000;fill:none;stroke:#000000;stroke-width:4.02810574;stroke-linecap:butt;stroke-linejoin:miter;stroke-miterlimit:4;stroke-opacity:1;stroke-dasharray:none;stroke-dashoffset:0;marker:none;marker-end:url(#Arrow2Mend);visibility:visible;display:inline;overflow:visible;enable-background:accumulate"
       d="m 188.45267,597.75495 0,91.61223"
       id="path4002"
       inkscape:connector-curvature="0" />
    <rect
       style="opacity:0.98000004;fill:#ffffff;fill-opacity:0.38164254;stroke:none"
       id="rect3967"
       width="35.842533"
       height="27.694891"
       x="143.37013"
       y="651.57751" />
    <text
       xml:space="preserve"
       style="font-size:14.50118065px;font-style:normal;font-variant:normal;font-weight:bold;font-stretch:normal;text-align:start;line-height:100%;letter-spacing:0px;word-spacing:0px;writing-mode:lr-tb;text-anchor:start;fill:#000000;fill-opacity:1;stroke:none;font-family:FreeSans;-inkscape-font-specification:FreeSans Bold"
       x="147.99626"
       y="671.82776"
       id="text3864"
       sodipodi:linespacing="100%"><tspan
         sodipodi:role="line"
         id="tspan3866"
         x="147.99626"
         y="671.82776"><tspan
           style="font-size:22px"
           id="tspan3872">F</tspan><tspan
           style="font-size:16px;font-weight:bold;baseline-shift:sub;-inkscape-font-specification:FreeSans Bold"
           id="tspan3868">W</tspan></tspan></text>
    <rect
       style="opacity:0.98000004;fill:#ffffff;fill-opacity:0.38164254;stroke:none"
       id="rect3967-9-7"
       width="41.27644"
       height="27.694891"
       x="93.450714"
       y="690.24384"
       transform="matrix(0.98821388,-0.15307945,0.15307945,0.98821388,0,0)" />
    <text
       xml:space="preserve"
       style="font-size:14.50118065px;font-style:normal;font-variant:normal;font-weight:bold;font-stretch:normal;text-align:start;line-height:100%;letter-spacing:0px;word-spacing:0px;writing-mode:lr-tb;text-anchor:start;fill:#000000;fill-opacity:1;stroke:none;font-family:FreeSans;-inkscape-font-specification:FreeSans Bold"
       x="100.07346"
       y="709.17542"
       id="text3864-2"
       sodipodi:linespacing="100%"
       transform="matrix(0.98887419,-0.1487543,0.1487543,0.98887419,0,0)"><tspan
         sodipodi:role="line"
         id="tspan3866-1"
         x="100.07346"
         y="709.17542"><tspan
           style="font-size:22px"
           id="tspan3872-7">F</tspan><tspan
           style="font-size:16px;font-weight:bold;baseline-shift:sub;-inkscape-font-specification:FreeSans Bold"
           id="tspan3868-6">N1</tspan></tspan></text>
    <rect
       style="opacity:0.98000004;fill:#ffffff;fill-opacity:0.38164254;stroke:none"
       id="rect3967-9-0"
       width="41.27644"
       height="27.694891"
       x="268.79233"
       y="522.65887"
       transform="matrix(0.98821388,-0.15307945,0.15307945,0.98821388,0,0)" />
    <text
       xml:space="preserve"
       style="font-size:14.50118065px;font-style:normal;font-variant:normal;font-weight:bold;font-stretch:normal;text-align:start;line-height:100%;letter-spacing:0px;word-spacing:0px;writing-mode:lr-tb;text-anchor:start;fill:#000000;fill-opacity:1;stroke:none;font-family:FreeSans;-inkscape-font-specification:FreeSans Bold"
       x="275.59814"
       y="540.31836"
       id="text3864-2-7"
       sodipodi:linespacing="100%"
       transform="matrix(0.98887419,-0.1487543,0.1487543,0.98887419,0,0)"><tspan
         sodipodi:role="line"
         id="tspan3866-1-4"
         x="275.59814"
         y="540.31836"><tspan
           style="font-size:22px"
           id="tspan3872-7-6">F</tspan><tspan
           style="font-size:16px;font-weight:bold;baseline-shift:sub;-inkscape-font-specification:FreeSans Bold"
           id="tspan3868-6-3">N2</tspan></tspan></text>
    <rect
       style="opacity:0.98000004;fill:#ffffff;fill-opacity:0.38164254;stroke:none"
       id="rect3967-9-5"
       width="41.27644"
       height="27.694891"
       x="204.12445"
       y="667.98029"
       transform="matrix(0.98821388,-0.15307945,0.15307945,0.98821388,0,0)" />
    <text
       xml:space="preserve"
       style="font-size:14.50118065px;font-style:normal;font-variant:normal;font-weight:bold;font-stretch:normal;text-align:start;line-height:100%;letter-spacing:0px;word-spacing:0px;writing-mode:lr-tb;text-anchor:start;fill:#000000;fill-opacity:1;stroke:none;font-family:FreeSans;-inkscape-font-specification:FreeSans Bold"
       x="211.92047"
       y="688.15344"
       id="text3864-2-1"
       sodipodi:linespacing="100%"
       transform="matrix(0.98887419,-0.1487543,0.1487543,0.98887419,0,0)"><tspan
         sodipodi:role="line"
         id="tspan3866-1-47"
         x="211.92047"
         y="688.15344"><tspan
           style="font-size:22px"
           id="tspan3872-7-4">F</tspan><tspan
           style="font-size:16px;font-weight:bold;baseline-shift:sub;-inkscape-font-specification:FreeSans Bold"
           id="tspan3868-6-1">F1</tspan></tspan></text>
    <rect
       style="opacity:0.98000004;fill:#ffffff;fill-opacity:0.38164254;stroke:none"
       id="rect3967-9"
       width="41.27644"
       height="27.694891"
       x="129.07417"
       y="466.19058"
       transform="matrix(0.98821388,-0.15307945,0.15307945,0.98821388,0,0)" />
    <text
       xml:space="preserve"
       style="font-size:14.50118065px;font-style:normal;font-variant:normal;font-weight:bold;font-stretch:normal;text-align:start;line-height:100%;letter-spacing:0px;word-spacing:0px;writing-mode:lr-tb;text-anchor:start;fill:#000000;fill-opacity:1;stroke:none;font-family:FreeSans;-inkscape-font-specification:FreeSans Bold"
       x="136.70609"
       y="484.87332"
       id="text3864-2-7-5"
       sodipodi:linespacing="100%"
       transform="matrix(0.98887419,-0.1487543,0.1487543,0.98887419,0,0)"><tspan
         sodipodi:role="line"
         id="tspan3866-1-4-9"
         x="136.70609"
         y="484.87332"><tspan
           style="font-size:22px"
           id="tspan3872-7-6-1">F</tspan><tspan
           style="font-size:16px;font-weight:bold;baseline-shift:sub;-inkscape-font-specification:FreeSans Bold"
           id="tspan3868-6-3-3">F2</tspan></tspan></text>
    <path
       style="color:#000000;fill:none;stroke:#000000;stroke-width:4.02810574;stroke-linecap:butt;stroke-linejoin:miter;stroke-miterlimit:4;stroke-opacity:1;stroke-dasharray:none;stroke-dashoffset:0;marker:none;marker-end:url(#Arrow2Mend);visibility:visible;display:inline;overflow:visible;enable-background:accumulate"
       d="m 308.11782,670.29577 -65.47468,9.52852"
       id="path3978"
       inkscape:connector-curvature="0" />
    <path
       style="color:#000000;fill:none;stroke:#000000;stroke-width:4.02810574;stroke-linecap:butt;stroke-linejoin:miter;stroke-miterlimit:4;stroke-opacity:1;stroke-dasharray:none;stroke-dashoffset:0;marker:none;marker-end:url(#Arrow2Mend);visibility:visible;display:inline;overflow:visible;enable-background:accumulate"
       d="m 306.94944,671.91635 -4.20062,-28.86423"
       id="path3998"
       inkscape:connector-curvature="0" />
    <rect
       style="opacity:0.98000004;fill:#ffffff;fill-opacity:0.38164254;stroke:none"
       id="rect4060"
       width="67.132843"
       height="65.567604"
       x="33.460068"
       y="430.47031" />
    <g
       id="g4097"
       transform="translate(-7.7372618,-4.7613918)">
      <path
         inkscape:connector-curvature="0"
         id="path3070"
         d="m 55.098449,488.59645 32.01962,0"
         style="color:#000000;fill:none;stroke:#000000;stroke-width:1.875;stroke-linecap:butt;stroke-linejoin:miter;stroke-miterlimit:4;stroke-opacity:1;stroke-dasharray:none;stroke-dashoffset:0;marker:none;marker-end:url(#Arrow2Mend);visibility:visible;display:inline;overflow:visible;enable-background:accumulate" />
      <path
         inkscape:connector-curvature="0"
         id="path3070-1"
         d="m 55.958287,488.98544 0,-32.01962"
         style="color:#000000;fill:none;stroke:#000000;stroke-width:1.875;stroke-linecap:butt;stroke-linejoin:miter;stroke-miterlimit:4;stroke-opacity:1;stroke-dasharray:none;stroke-dashoffset:0;marker:none;marker-end:url(#Arrow2Mend);visibility:visible;display:inline;overflow:visible;enable-background:accumulate" />
      <text
         sodipodi:linespacing="100%"
         id="text4052"
         y="491.29483"
         x="91.798447"
         style="font-size:10px;font-style:normal;font-variant:normal;font-weight:normal;font-stretch:normal;text-align:start;line-height:100%;letter-spacing:0px;word-spacing:0px;writing-mode:lr-tb;text-anchor:start;fill:#000000;fill-opacity:1;stroke:none;font-family:FreeSans;-inkscape-font-specification:FreeSans"
         xml:space="preserve"><tspan
           y="491.29483"
           x="91.798447"
           id="tspan4054"
           sodipodi:role="line">x</tspan></text>
      <text
         sodipodi:linespacing="100%"
         id="text4056"
         y="450.58334"
         x="52.964443"
         style="font-size:10px;font-style:normal;font-variant:normal;font-weight:normal;font-stretch:normal;text-align:start;line-height:100%;letter-spacing:0px;word-spacing:0px;writing-mode:lr-tb;text-anchor:start;fill:#000000;fill-opacity:1;stroke:none;font-family:FreeSans;-inkscape-font-specification:FreeSans"
         xml:space="preserve"><tspan
           y="450.58334"
           x="52.964443"
           id="tspan4058"
           sodipodi:role="line">y</tspan></text>
    </g>
  </g>
</svg>
