<?xml version="1.0" encoding="UTF-8" standalone="no"?>
<!-- Created with Inkscape (http://www.inkscape.org/) -->

<svg
   xmlns:dc="http://purl.org/dc/elements/1.1/"
   xmlns:cc="http://creativecommons.org/ns#"
   xmlns:rdf="http://www.w3.org/1999/02/22-rdf-syntax-ns#"
   xmlns:svg="http://www.w3.org/2000/svg"
   xmlns="http://www.w3.org/2000/svg"
   xmlns:sodipodi="http://sodipodi.sourceforge.net/DTD/sodipodi-0.dtd"
   xmlns:inkscape="http://www.inkscape.org/namespaces/inkscape"
   width="744.09448819"
   height="1052.3622047"
   id="svg2"
   version="1.1"
   sodipodi:docname="lowering-climber.svg">
  <defs
     id="defs4" />
  <sodipodi:namedview
     id="base"
     pagecolor="#ffffff"
     bordercolor="#666666"
     borderopacity="1.0"
     inkscape:pageopacity="0.0"
     inkscape:pageshadow="2"
     inkscape:zoom="0.92176454"
     inkscape:cx="-45.128852"
     inkscape:cy="861.17016"
     inkscape:document-units="mm"
     inkscape:current-layer="layer1"
     showgrid="false"
     inkscape:window-width="1280"
     inkscape:window-height="998"
     inkscape:window-x="0"
     inkscape:window-y="0"
     inkscape:window-maximized="1" />
  <metadata
     id="metadata7">
    <rdf:RDF>
      <cc:Work
         rdf:about="">
        <dc:format>image/svg+xml</dc:format>
        <dc:type
           rdf:resource="http://purl.org/dc/dcmitype/StillImage" />
        <dc:title></dc:title>
      </cc:Work>
    </rdf:RDF>
  </metadata>
  <g
     inkscape:label="Layer 1"
     inkscape:groupmode="layer"
     id="layer1">
    <rect
       style="fill:#dedede;fill-opacity:1;stroke:none"
       id="rect4423"
       width="145.47487"
       height="253.62637"
       x="-96.721542"
       y="160.23029" />
    <g
       id="g4338"
       transform="translate(-4.3173311,-3.2064328)">
      <path
         inkscape:connector-curvature="0"
         id="path3853-0"
         d="m 26.324603,347.13578 -0.9375,0.71875 -0.75,1 -1.25,0.34375 0.40625,0.5625 -0.625,1.03125 0.15625,0.21875 -0.375,0.25 -0.28125,0.4375 0.75,0.9375 0.53125,0.0937 0.125,0.90625 -0.21875,1.5 0.59375,1.34375 0.125,0.75 c -0.251499,0.36076 -0.442409,0.7285 -0.5625,1.25 -0.303014,1.31586 -0.483854,2.58585 -0.78125,3.84375 -0.280066,1.18461 -0.727501,4.13839 -0.78125,4.5 l -1.6875,0.0625 c -0.498002,-0.13805 -0.866966,-0.34007 -1.4375,-0.59375 -0.841068,-0.37396 -2.022783,-0.72192 -2.3125,-0.75 -0.289718,-0.0281 0.139112,0.78319 0.3125,0.84375 1.214086,0.42406 1.970225,0.24716 1.4375,0.3125 -0.532724,0.0653 -1.657627,0.12989 -1.90625,0.28125 l -0.25,0.15625 1.1875,-0.0312 -0.25,0.75 c -0.08551,0.0431 -0.157422,0.11147 -0.1875,0.21875 -0.06995,0.24949 -0.08452,0.36524 0,0.4375 0.08452,0.0723 0.3125,0.0937 0.3125,0.0937 l 0.125,-0.34375 0.5625,0.71875 -0.3125,0.34375 1.0625,0.40625 0.28125,-0.34375 2.6875,-0.15625 0.03125,0.40625 c -0.417862,0.21687 -0.801504,0.43571 -0.96875,0.5 -0.36451,0.14013 -0.456371,0.37429 -1.09375,0.3125 -0.637377,-0.0618 -1.5625,-0.3125 -1.5625,-0.3125 0,0 0.544273,0.55372 0.3125,0.53125 -0.231774,-0.0225 -0.875,-0.0312 -0.875,-0.0312 0,0 -0.206868,1.5856 -0.03125,2.1875 0.175607,0.6019 -0.17743,1.30939 0.65625,1.15625 0.833675,-0.15314 1.131248,-0.3068 1.75,-0.65625 0.61875,-0.34943 0.996088,-0.75245 1.34375,-0.71875 0.260746,0.0253 0.358734,0.27588 0.90625,0.3125 l 0.125,0.8125 -0.09375,0 c 0,0 0.43215,6.13366 0.40625,7.15625 -0.01073,0.42351 0.04672,1.46301 0.125,2.59375 l -0.1875,0.0312 -0.03125,-0.21875 c -0.01,0.0635 -0.02069,0.18024 -0.03125,0.25 l -0.0625,0 -0.03125,0.6875 c -0.183595,1.28562 -0.410523,2.89421 -0.53125,3.53125 -0.149887,0.79091 -0.06649,4.315 0.3125,4.9375 0.378988,0.62251 1.28125,2.6875 1.28125,2.6875 l -0.03125,-0.5 1.9375,3.96875 -0.3125,0.96875 -0.09375,-0.25 c -0.278679,1.36419 -0.887682,1.58426 -1.96875,1.40625 -1.081064,-0.17803 -2.46875,-0.75 -2.46875,-0.75 l -0.84375,0.375 c 0,0 2.851048,2.32401 3.46875,2.75 0.617701,0.42598 2.9375,1.3125 2.9375,1.3125 l 0.625,-0.53125 -0.125,-0.3125 0.3125,-0.0937 0.59375,0 c 0.30207,1.34331 0.455904,2.51971 0.40625,3.53125 -0.07512,1.53037 -0.05936,2.70426 -1.53125,2.78125 -1.471893,0.077 -2.76167,-0.2099 -3.71875,-0.15625 -0.957081,0.0537 -2.041486,-0.92157 -1.71875,0.28125 0.322735,1.20283 1.568418,1.97858 3.28125,2.4375 1.712832,0.45891 4.851277,0.52646 5.65625,0.53125 0.804972,0.005 2.007263,-0.30761 2.1875,-0.65625 0.180237,-0.34864 0.100863,-0.86858 -0.25,-1.78125 -0.350861,-0.91267 -0.829261,-2.12185 -0.90625,-3.59375 -0.07699,-1.47188 0.09375,-4.84375 0.09375,-4.84375 l -0.25,-1.78125 -0.15625,-0.96875 0.9375,-0.25 c 0,0 -0.414849,-1.87174 -0.28125,-3.25 0.133599,-1.37826 -1.424257,-5.56135 -1.8125,-6.84375 -0.388243,-1.2824 -0.253329,-4.42812 0.25,-5.84375 0.50333,-1.41564 2.232225,-4.10892 2.03125,-5.8125 -0.200975,-1.70357 -0.01028,-2.77661 0.15625,-5.25 l -0.21875,0.0312 0,-0.0937 0.40625,-2.34375 0.0625,0.21875 c 0.09277,-0.63883 0.137302,-1.11591 0.1875,-1.625 l 0.0625,-0.4375 -0.03125,-0.0625 c 0.17093,-2.09394 0.02401,-3.30469 -0.09375,-5.34375 -0.152856,-2.64677 0.282137,-3.90262 -0.78125,-5 -1.063386,-1.09737 -2.292069,-2.36588 -2.75,-2.46875 -0.105201,-0.0236 -0.224801,-0.043 -0.34375,-0.0625 l -0.09375,-0.21875 c 1.860093,-1.69131 2.167528,-2.35829 2.25,-3.8125 0.08267,-1.45767 -2.16919,-3.26122 -2.5,-3.46875 -0.330812,-0.20753 -2.0625,-0.4375 -2.0625,-0.4375 z m -6.8125,22.09375 0.125,0 -0.1875,0.0937 0.0625,-0.0937 z"
         style="color:#000000;fill:#ffffff;fill-opacity:1;stroke:none;stroke-width:0.625;marker:none;visibility:visible;display:inline;overflow:visible;enable-background:accumulate" />
      <g
         id="g4290">
        <path
           style="color:#000000;fill:none;stroke:#000000;stroke-width:0.625;stroke-linecap:butt;stroke-linejoin:miter;stroke-miterlimit:4;stroke-opacity:1;stroke-dasharray:none;stroke-dashoffset:0;marker:none;visibility:visible;display:inline;overflow:visible;enable-background:accumulate"
           d="m 28.33002,355.0607 c 1.860093,-1.69131 2.159267,-2.36417 2.241739,-3.81838 0.08267,-1.45767 -2.141561,-3.24895 -2.472371,-3.45648 -0.330812,-0.20753 -2.063498,-0.43397 -2.063498,-0.43397 l -0.947784,0.72695 -0.738478,0.9812 -1.261746,0.3456 0.412998,0.56643 -0.628208,1.05038 0.15698,0.19068 -0.375744,0.25602 -0.276706,0.44108 0.726959,0.94778 0.979424,0.15341"
           id="path3853"
           inkscape:connector-curvature="0"
           sodipodi:nodetypes="cscccccccccccc" />
        <path
           style="color:#000000;fill:none;stroke:#000000;stroke-width:0.625;stroke-linecap:butt;stroke-linejoin:miter;stroke-miterlimit:4;stroke-opacity:1;stroke-dasharray:none;stroke-dashoffset:0;marker:none;visibility:visible;display:inline;overflow:visible;enable-background:accumulate"
           d="m 23.795643,353.56839 -0.232063,1.79062 0.670792,1.52722"
           id="path3855"
           inkscape:connector-curvature="0" />
        <path
           style="color:#000000;fill:none;stroke:#000000;stroke-width:0.625;stroke-linecap:butt;stroke-linejoin:miter;stroke-miterlimit:4;stroke-opacity:1;stroke-dasharray:none;stroke-dashoffset:0;marker:none;visibility:visible;display:inline;overflow:visible;enable-background:accumulate"
           d="m 32.176251,370.28945 c 0.527678,-3.63359 0.29235,-4.82616 0.139495,-7.47293 -0.152856,-2.64677 0.260427,-3.89344 -0.80296,-4.99082 -1.063386,-1.09737 -2.283753,-2.38542 -2.741684,-2.48829 -0.457933,-0.10287 -1.153254,-0.17027 -1.153254,-0.17027"
           id="path3857"
           inkscape:connector-curvature="0" />
        <path
           style="color:#000000;fill:none;stroke:#000000;stroke-width:0.625;stroke-linecap:butt;stroke-linejoin:miter;stroke-miterlimit:4;stroke-opacity:1;stroke-dasharray:none;stroke-dashoffset:0;marker:none;visibility:visible;display:inline;overflow:visible;enable-background:accumulate"
           d="m 25.939267,355.58929 c -1.241342,1.34188 -1.92927,1.80158 -2.232283,3.11743 -0.303014,1.31586 -0.484523,2.585 -0.781919,3.8429 -0.297396,1.25791 -0.808224,4.71766 -0.808224,4.71766 0,0 2.740192,0.0902 3.603727,0.23235 0.863537,0.14217 1.855969,0.76478 1.855969,0.76478 0,0 0.134799,-1.39064 0.280831,-2.89717 0.146033,-1.50653 0.02865,-3.91592 0.02865,-3.91592"
           id="path3859"
           inkscape:connector-curvature="0" />
        <path
           style="color:#000000;fill:none;stroke:#000000;stroke-width:0.625;stroke-linecap:butt;stroke-linejoin:miter;stroke-miterlimit:4;stroke-opacity:1;stroke-dasharray:none;stroke-dashoffset:0;marker:none;visibility:visible;display:inline;overflow:visible;enable-background:accumulate"
           d="m 23.380364,367.50673 c -0.17767,0.62615 0.392308,1.38326 -0.220821,1.67475 -0.613135,0.2915 -1.972141,1.03708 -2.336651,1.17721 -0.36451,0.14013 -0.44492,0.36629 -1.082299,0.3045 -0.637377,-0.0618 -1.547624,-0.32547 -1.547624,-0.32547 0,0 0.528884,0.57766 0.297111,0.55519 -0.231774,-0.0225 -0.874767,-0.0263 -0.874767,-0.0263 0,0 -0.209598,1.55886 -0.03398,2.16076 0.175607,0.6019 -0.187131,1.32708 0.646549,1.17394 0.833675,-0.15314 1.140242,-0.29888 1.758994,-0.64833 0.61875,-0.34943 1.011343,-0.77928 1.359005,-0.74558 0.347661,0.0337 0.360671,0.50287 1.611184,0.27316 1.250512,-0.22971 2.568424,-1.15475 2.811431,-1.24817 0.243007,-0.0934 1.215037,-0.46711 1.215037,-0.46711 l 0.299453,-2.48594"
           id="path3861"
           inkscape:connector-curvature="0" />
        <path
           style="color:#000000;fill:none;stroke:#000000;stroke-width:0.625;stroke-linecap:butt;stroke-linejoin:miter;stroke-miterlimit:4;stroke-opacity:1;stroke-dasharray:none;stroke-dashoffset:0;marker:none;visibility:visible;display:inline;overflow:visible;enable-background:accumulate"
           d="m 21.300015,367.2466 c -1.042983,-0.1011 -1.42612,-0.37219 -2.267189,-0.74616 -0.841068,-0.37396 -2.035415,-0.72369 -2.325132,-0.75177 -0.289718,-0.0281 0.153583,0.78996 0.326971,0.85052 1.214086,0.42406 1.964462,0.2489 1.431737,0.31424 -0.532724,0.0653 -1.6505,0.13246 -1.899123,0.28382 -0.248625,0.15137 -0.248625,0.15137 -0.248625,0.15137"
           id="path3863"
           inkscape:connector-curvature="0"
           sodipodi:nodetypes="csssccc" />
        <path
           style="color:#000000;fill:none;stroke:#000000;stroke-width:0.625;stroke-linecap:butt;stroke-linejoin:miter;stroke-miterlimit:4;stroke-opacity:1;stroke-dasharray:none;stroke-dashoffset:0;marker:none;visibility:visible;display:inline;overflow:visible;enable-background:accumulate"
           d="m 21.787522,369.4579 c -0.869152,-0.0842 -2.149524,-0.14989 -2.149524,-0.14989 l -0.671077,0.28588"
           id="path3865"
           inkscape:connector-curvature="0" />
        <path
           style="color:#000000;fill:none;stroke:#000000;stroke-width:0.625;stroke-linecap:butt;stroke-linejoin:miter;stroke-miterlimit:4;stroke-opacity:1;stroke-dasharray:none;stroke-dashoffset:0;marker:none;visibility:visible;display:inline;overflow:visible;enable-background:accumulate"
           d="m 15.555933,367.97654 c 0.237389,-0.0355 1.684201,-0.48012 1.684201,-0.48012 l 0.09975,0.14093 -0.926025,0.53933"
           id="path3867"
           inkscape:connector-curvature="0"
           sodipodi:nodetypes="cccc" />
        <path
           style="color:#000000;fill:none;stroke:#000000;stroke-width:0.625;stroke-linecap:butt;stroke-linejoin:miter;stroke-miterlimit:4;stroke-opacity:1;stroke-dasharray:none;stroke-dashoffset:0;marker:none;visibility:visible;display:inline;overflow:visible;enable-background:accumulate"
           d="m 18.15955,368.87228 -0.874767,-0.0263"
           id="path3869"
           inkscape:connector-curvature="0"
           sodipodi:nodetypes="cc" />
        <path
           style="color:#000000;fill:none;stroke:#000000;stroke-width:0.625;stroke-linecap:butt;stroke-linejoin:miter;stroke-miterlimit:4;stroke-opacity:1;stroke-dasharray:none;stroke-dashoffset:0;marker:none;visibility:visible;display:inline;overflow:visible;enable-background:accumulate"
           d="m 18.52406,368.73215 0.829836,0.48985 -0.536564,0.70834 -1.072842,-0.39644"
           id="path3871"
           inkscape:connector-curvature="0" />
        <path
           style="color:#000000;fill:none;stroke:#000000;stroke-width:0.625;stroke-linecap:butt;stroke-linejoin:miter;stroke-miterlimit:4;stroke-opacity:1;stroke-dasharray:none;stroke-dashoffset:0;marker:none;visibility:visible;display:inline;overflow:visible;enable-background:accumulate"
           d="m 17.748069,367.82961 c -0.408961,0.25325 -0.613998,0.19676 -0.683946,0.44626 -0.06995,0.24949 -0.100388,0.37468 -0.01587,0.44694 0.08452,0.0723 0.328465,0.10508 0.328465,0.10508"
           id="path3873"
           inkscape:connector-curvature="0" />
        <path
           style="color:#000000;fill:none;stroke:#000000;stroke-width:0.625;stroke-linecap:butt;stroke-linejoin:miter;stroke-miterlimit:4;stroke-opacity:1;stroke-dasharray:none;stroke-dashoffset:0;marker:none;visibility:visible;display:inline;overflow:visible;enable-background:accumulate"
           d="m 31.923254,372.48032 c -0.166531,2.47339 -0.344544,3.55446 -0.143569,5.25803 0.200975,1.70358 -1.524052,4.39201 -2.027382,5.80765 -0.503329,1.41563 -0.660604,4.54892 -0.272361,5.83132 0.388243,1.2824 1.960089,5.46194 1.82649,6.8402 -0.133599,1.37826 0.270933,3.248 0.270933,3.248 l -5.564836,1.51079 c 0,0 -1.510785,-5.56483 -1.920123,-6.62961 -0.409339,-1.06478 -0.928242,-4.77615 -0.9982,-6.32059 -0.06996,-1.54443 -0.453039,-5.90163 -0.427138,-6.92422 0.0259,-1.02259 -0.406041,-7.14184 -0.406041,-7.14184"
           id="path3875"
           inkscape:connector-curvature="0" />
        <path
           style="color:#000000;fill:none;stroke:#000000;stroke-width:0.625;stroke-linecap:butt;stroke-linejoin:miter;stroke-miterlimit:4;stroke-opacity:1;stroke-dasharray:none;stroke-dashoffset:0;marker:none;visibility:visible;display:inline;overflow:visible;enable-background:accumulate"
           d="m 22.580108,383.50977 c -0.192074,1.22614 -0.503686,3.68547 -0.653573,4.47638 -0.149887,0.79091 -0.05216,4.31501 0.326828,4.93751 0.378988,0.62251 1.277235,2.68657 1.277235,2.68657"
           id="path3877"
           inkscape:connector-curvature="0" />
        <path
           style="color:#000000;fill:none;stroke:#000000;stroke-width:0.625;stroke-linecap:butt;stroke-linejoin:miter;stroke-miterlimit:4;stroke-opacity:1;stroke-dasharray:none;stroke-dashoffset:0;marker:none;visibility:visible;display:inline;overflow:visible;enable-background:accumulate"
           d="m 25.029904,399.78274 c -0.278679,1.36419 -0.887124,1.5981 -1.968192,1.42009 -1.081064,-0.17803 -2.489675,-0.75388 -2.489675,-0.75388 l -0.840128,0.35789 c 0,0 2.849793,2.32644 3.467495,2.75243 0.617701,0.42598 2.948235,1.31088 2.948235,1.31088 l 0.636571,-0.52407"
           id="path3879"
           inkscape:connector-curvature="0" />
        <path
           style="color:#000000;fill:none;stroke:#000000;stroke-width:0.625;stroke-linecap:butt;stroke-linejoin:miter;stroke-miterlimit:4;stroke-opacity:1;stroke-dasharray:none;stroke-dashoffset:0;marker:none;visibility:visible;display:inline;overflow:visible;enable-background:accumulate"
           d="m 26.964805,401.72761 c 0.71801,2.41269 1.057033,4.20287 0.981912,5.73323 -0.07512,1.53037 -0.04255,2.70508 -1.51444,2.78207 -1.471893,0.077 -2.76355,-0.19464 -3.72063,-0.14099 -0.957081,0.0537 -2.033342,-0.92931 -1.710606,0.27351 0.322735,1.20283 1.565169,1.98226 3.278001,2.44118 1.712832,0.45891 4.85314,0.54367 5.658113,0.54846 0.804972,0.005 2.007798,-0.31793 2.188035,-0.66657 0.180237,-0.34864 0.08438,-0.87048 -0.266483,-1.78315 -0.350861,-0.91267 -0.818676,-2.12956 -0.895665,-3.60146 -0.07699,-1.47188 0.101379,-4.82278 0.101379,-4.82278 l -0.35531,-2.37754 0,0"
           id="path3881"
           inkscape:connector-curvature="0" />
      </g>
    </g>
    <g
       id="g4374"
       transform="translate(0,-6)">
      <g
         id="g4307">
        <path
           style="color:#000000;fill:none;stroke:#000000;stroke-width:0.625;stroke-linecap:butt;stroke-linejoin:miter;stroke-miterlimit:4;stroke-opacity:1;stroke-dasharray:none;stroke-dashoffset:0;marker:none;visibility:visible;display:inline;overflow:visible;enable-background:accumulate"
           d="m 14.3091,377.21159 c 3.199821,22.39874 3.069216,24.55373 2.089679,28.01476 -0.979537,3.46103 -5.699993,3.36912 -14.211831,2.86561"
           id="path3883"
           inkscape:connector-curvature="0"
           sodipodi:nodetypes="csc" />
        <path
           style="color:#000000;fill:none;stroke:#000000;stroke-width:0.625;stroke-linecap:butt;stroke-linejoin:miter;stroke-miterlimit:4;stroke-opacity:1;stroke-dasharray:none;stroke-dashoffset:0;marker:none;visibility:visible;display:inline;overflow:visible;enable-background:accumulate"
           d="m 11.762304,409.14449 c 0,1.95908 1.697864,3.46103 -0.391815,2.93861 -2.089679,-0.52242 -2.873308,-1.11014 -3.19982,-1.24074 -0.326513,-0.13061 -0.587723,-0.19591 -0.587723,-0.19591"
           id="path3885"
           inkscape:connector-curvature="0" />
        <path
           style="color:#000000;fill:none;stroke:#000000;stroke-width:0.625;stroke-linecap:butt;stroke-linejoin:miter;stroke-miterlimit:4;stroke-opacity:1;stroke-dasharray:none;stroke-dashoffset:0;marker:none;visibility:visible;display:inline;overflow:visible;enable-background:accumulate"
           d="m 8.521967,407.0246 c 1.632561,-2.15499 0.236424,-0.10039 1.281263,-0.49221 1.04484,-0.39181 1.306049,-2.28558 1.306049,-0.32651 0,1.95908 0.587723,2.28559 -0.457117,2.74271 -1.044839,0.45711 -1.175444,0.45711 -1.175444,0.45711"
           id="path3887"
           inkscape:connector-curvature="0"
           sodipodi:nodetypes="csssc" />
        <path
           style="color:#000000;fill:none;stroke:#000000;stroke-width:0.625;stroke-linecap:butt;stroke-linejoin:miter;stroke-miterlimit:4;stroke-opacity:1;stroke-dasharray:none;stroke-dashoffset:0;marker:none;visibility:visible;display:inline;overflow:visible;enable-background:accumulate"
           d="m 8.105366,406.663 c -1.371352,0 -1.763166,0.19591 -1.763166,0.19591 l -0.195908,0.26121 0,0"
           id="path3889"
           inkscape:connector-curvature="0" />
        <path
           style="color:#000000;fill:none;stroke:#000000;stroke-width:0.625;stroke-linecap:butt;stroke-linejoin:miter;stroke-miterlimit:4;stroke-opacity:1;stroke-dasharray:none;stroke-dashoffset:0;marker:none;visibility:visible;display:inline;overflow:visible;enable-background:accumulate"
           d="m 7.452341,406.07528 c -1.697864,-0.65303 -1.763166,-1.69787 -1.893771,-0.26121 -0.130605,1.43665 0,1.56726 0.326512,1.95907 0.326513,0.39182 0.78363,0.19591 0.78363,1.11014 0,0.91424 0.587722,1.04484 -0.26121,1.50196 -0.848932,0.45712 -1.436654,0.39182 -1.436654,0.39182"
           id="path3891"
           inkscape:connector-curvature="0" />
        <path
           style="color:#000000;fill:none;stroke:#000000;stroke-width:0.625;stroke-linecap:butt;stroke-linejoin:miter;stroke-miterlimit:4;stroke-opacity:1;stroke-dasharray:none;stroke-dashoffset:0;marker:none;visibility:visible;display:inline;overflow:visible;enable-background:accumulate"
           d="m 4.513731,407.83844 c -0.718328,1.50196 -0.195908,1.37136 -0.26121,2.15499 -0.0653,0.78363 -0.130605,1.89377 -0.130605,1.89377 l 0,0"
           id="path3893"
           inkscape:connector-curvature="0" />
        <path
           style="color:#000000;fill:none;stroke:#000000;stroke-width:0.625;stroke-linecap:butt;stroke-linejoin:miter;stroke-miterlimit:4;stroke-opacity:1;stroke-dasharray:none;stroke-dashoffset:0;marker:none;visibility:visible;display:inline;overflow:visible;enable-background:accumulate"
           d="m 5.81978,408.94859 c -0.587722,0.0653 0.52242,0 -1.828469,-0.0653 -2.350889,-0.0653 -2.220284,0.71833 -5.877222,-0.58772 -3.656938,-1.30605 -5.354802,-2.6774 -6.595549,-1.50196 -1.240747,1.17545 -1.175444,1.95908 -0.522419,1.76317 0.653024,-0.19591 0.914234,-0.26121 0.914234,-0.26121"
           id="path3895"
           inkscape:connector-curvature="0" />
        <path
           style="color:#000000;fill:none;stroke:#000000;stroke-width:0.625;stroke-linecap:butt;stroke-linejoin:miter;stroke-miterlimit:4;stroke-opacity:1;stroke-dasharray:none;stroke-dashoffset:0;marker:none;visibility:visible;display:inline;overflow:visible;enable-background:accumulate"
           d="m -3.71438,408.75268 c -2.677401,0 -3.199821,-0.19591 -3.265123,0.58772 -0.0653,0.78363 -0.391815,0.78363 0,1.30605 0.391815,0.52242 0.848932,1.30605 0.848932,1.30605"
           id="path3897"
           inkscape:connector-curvature="0" />
        <path
           style="color:#000000;fill:none;stroke:#000000;stroke-width:0.625;stroke-linecap:butt;stroke-linejoin:miter;stroke-miterlimit:4;stroke-opacity:1;stroke-dasharray:none;stroke-dashoffset:0;marker:none;visibility:visible;display:inline;overflow:visible;enable-background:accumulate"
           d="m -2.734843,410.77706 c 1.697864,-1.24075 1.893772,-1.24075 1.893772,-1.24075"
           id="path3899"
           inkscape:connector-curvature="0" />
        <path
           style="color:#000000;fill:none;stroke:#000000;stroke-width:0.625;stroke-linecap:butt;stroke-linejoin:miter;stroke-miterlimit:4;stroke-opacity:1;stroke-dasharray:none;stroke-dashoffset:0;marker:none;visibility:visible;display:inline;overflow:visible;enable-background:accumulate"
           d="m 1.31391,409.53631 c 1.697864,0.97954 1.697864,0.97954 1.697864,0.97954"
           id="path3901"
           inkscape:connector-curvature="0" />
        <path
           style="color:#000000;fill:none;stroke:#000000;stroke-width:0.625;stroke-linecap:butt;stroke-linejoin:miter;stroke-miterlimit:4;stroke-opacity:1;stroke-dasharray:none;stroke-dashoffset:0;marker:none;visibility:visible;display:inline;overflow:visible;enable-background:accumulate"
           d="m 0.138466,410.05873 c 2.546796,0.91423 0.587722,1.50195 0.587722,1.50195 l -2.481494,0.0653 0,0.58772"
           id="path3903"
           inkscape:connector-curvature="0" />
        <path
           style="color:#000000;fill:none;stroke:#000000;stroke-width:0.625;stroke-linecap:butt;stroke-linejoin:miter;stroke-miterlimit:4;stroke-opacity:1;stroke-dasharray:none;stroke-dashoffset:0;marker:none;visibility:visible;display:inline;overflow:visible;enable-background:accumulate"
           d="m -3.126658,409.53631 c -2.024376,0.52242 -2.742703,0.58772 -2.285586,1.11014 0.457117,0.52242 0.26121,0.32651 0.52242,0.58772 0.26121,0.26121 1.632561,0.58772 1.632561,0.58772"
           id="path3905"
           inkscape:connector-curvature="0" />
        <path
           style="color:#000000;fill:none;stroke:#000000;stroke-width:0.625;stroke-linecap:butt;stroke-linejoin:miter;stroke-miterlimit:4;stroke-opacity:1;stroke-dasharray:none;stroke-dashoffset:0;marker:none;visibility:visible;display:inline;overflow:visible;enable-background:accumulate"
           d="m -8.677367,409.99343 c -1.632562,1.04483 -1.632562,1.69786 -2.154981,1.24074 -0.52242,-0.45711 -0.78363,-0.71832 -0.78363,-0.71832"
           id="path3907"
           inkscape:connector-curvature="0" />
        <path
           style="color:#000000;fill:none;stroke:#000000;stroke-width:0.625;stroke-linecap:butt;stroke-linejoin:miter;stroke-miterlimit:4;stroke-opacity:1;stroke-dasharray:none;stroke-dashoffset:0;marker:none;visibility:visible;display:inline;overflow:visible;enable-background:accumulate"
           d="m -12.856725,410.84236 c 1.893772,0.97953 1.893772,1.56726 3.199821,1.04484 1.306049,-0.52242 0.914234,0.65302 1.436654,-1.24075 0.52242,-1.89377 0.391815,-2.35089 0.78363,-2.5468 0.391814,-0.1959 1.828469,-0.39181 2.350888,-0.1959 0.52242,0.1959 1.763167,1.50195 2.154982,1.82847 0.391814,0.32651 1.763166,1.56725 1.763166,1.56725 0,0 1.763167,0.91424 2.089679,0.84894 0.326512,-0.0653 2.350889,-0.52242 2.350889,-0.52242"
           id="path3909"
           inkscape:connector-curvature="0" />
      </g>
    </g>
    <g
       id="g4357">
      <path
         inkscape:connector-curvature="0"
         id="path3994-0"
         d="m -36.956816,268.42781 c -0.94628,-0.022 -1.77319,0.33099 -2.3125,0.8125 -0.8629,0.77042 -1.15022,1.88208 -1.15625,2.28125 -0.006,0.39917 0.08684,0.93902 0.375,1.3125 0.28815,0.37349 0.25,1.21875 0.25,1.21875 l 0.03125,0.59375 -0.03125,0.34375 0.65625,-0.0312 0.15625,0.625 0.1875,0.4375 0.6875,0.21875 0.625,-0.21875 c -0.1413,0.2335 -0.23002,0.49174 -0.28125,0.84375 -0.07222,0.49627 0.01676,0.67361 0.21875,0.8125 l -1.15625,1.625 -0.59375,0.71875 c 0.13727,-0.14275 0.2628,-0.28507 0.40625,-0.4375 l -0.1875,0.28125 -3.6875,4.21875 3.46875,-4.0625 c -0.38167,0.39691 -0.7361,0.75783 -0.96875,1.0625 -0.56871,0.74473 -1.48794,1.56239 -2.125,2.34375 -0.63706,0.78137 -2.59375,2.46875 -2.59375,2.46875 0,0 -0.89115,0.71817 -1.40625,0.90625 -0.51511,0.18809 -2.1875,1.5 -2.1875,1.5 l 0.21875,0.0312 -0.59375,0.4375 c -0.73127,0.0476 -1.39047,0.11998 -1.84375,0.40625 -0.9203,0.58122 -1.9849,1.06192 -2.5,1.25 -0.5151,0.18808 -1.8503,0.66841 -2.0625,1.75 -0.2122,1.08158 -0.42514,5.02172 -0.53125,5.5625 -0.1061,0.5408 -0.97272,6.46044 -1.03125,6.84375 -0.04798,0.31436 -0.64051,0.77246 -0.40625,1.125 l -0.5625,-0.21875 -2.125,-0.75 c 0,0 -2.85036,0.151 -3.28125,0.25 -0.43089,0.099 0.5,1.53125 0.5,1.53125 0,0 2.40103,1.00394 3.75,1.46875 1.34895,0.46487 2.24433,0.70262 3.625,1.0625 1.34876,0.35154 1.37855,-0.32712 1.96875,-1.78125 0.04595,-0.0468 0.125,-0.125 0.125,-0.125 l 0,-0.15625 c 0.03214,0.008 0.25,0.0625 0.25,0.0625 0,0 2.15233,-4.2806 1.71875,-5.5 -0.43357,-1.2194 -0.09375,-5.75 -0.09375,-5.75 0,0 1.19165,-0.77744 1.9375,-0.78125 0.74585,-0.004 3.0962,-0.17182 3.40625,-0.25 0.31004,-0.0782 3.40625,-1.25 3.40625,-1.25 l 0.03125,-0.53125 0.46875,-0.1875 0.21875,0.0625 c 0.01522,0.0857 0.03125,0.25 0.03125,0.25 l 1.28125,0.90625 0.125,-0.3125 0.46875,0.375 -0.75,0.5625 -0.09375,-0.1875 -0.40625,0.5625 -0.875,0.65625 -0.125,-0.21875 c 0,0 -2.4849,1.28067 -3,1.46875 -0.5151,0.18809 -2.42901,2.571 -2.75,2.875 -0.32099,0.30402 -1.19422,2.21846 -1.46875,2.9375 -0.27453,0.71905 -1.59375,1.6875 -1.59375,1.6875 l -2.03125,13.28125 -0.21875,0.25 -0.0625,-0.0312 c -1.66393,-0.55996 -1.80343,0.0406 -2.9375,-0.1875 -1.13408,-0.22806 -2.61435,-7.3e-4 -1.90625,0.5 0.7081,0.50035 1.7023,1.00344 3.15625,1.5 1.45396,0.49653 3.4375,1.3125 3.4375,1.3125 l 1.25,-2.03125 -0.375,-0.125 0.09375,-0.25 0.15625,0.0625 1.71875,-4.0625 c 0,0 0.82554,-3.42257 1,-4 0.1745,-0.57742 0.09375,-4.5 0.09375,-4.5 l 0.9375,-0.6875 c 0,0 2.82865,-1.90566 3.34375,-2.09375 0.5151,-0.18808 4.5,-2.25 4.5,-2.25 l -0.0625,-0.0937 2.09375,-1.125 0.125,-0.0625 0.65625,-0.21875 c 0,0 -0.08746,-0.0479 -0.125,-0.0625 l 1.3125,-0.6875 -0.15625,0.21875 c 0,0 0.50606,-0.30368 1.03125,-0.65625 l 0.03125,-0.0312 c 0.64864,-0.43827 1.37132,-0.97505 1.6875,-1.40625 0.55769,-0.76056 1.21289,-2.09181 1.9375,-3.75 l 0.46875,-0.71875 0.21875,-0.875 c 0.04228,0.14902 0.15625,0.625 0.15625,0.625 l 0.8125,-3.03125 c 0,0 0.05231,-0.22139 0.0625,-0.5625 l 0.125,0.28125 c 0,0 0.72371,-1.83467 0.96875,-3.59375 0.24504,-1.75908 -0.2959,-3.9396 -1.03125,-6.625 -0.54335,-1.98423 -2.55607,-3.32234 -4.5,-4.1875 l -0.1875,-0.40625 0.1875,-0.0937 c -0.35584,-3.37274 -0.78282,-4.41356 -2,-5.125 -0.60466,-0.35343 -1.21348,-0.48681 -1.78125,-0.5 z"
         style="color:#000000;fill:#ffffff;fill-opacity:1;stroke:none;stroke-width:0.62500000000000000;marker:none;visibility:visible;display:inline;overflow:visible;enable-background:accumulate" />
      <g
         id="g4323">
        <path
           style="color:#000000;fill:none;stroke:#000000;stroke-width:0.62500000000000000;stroke-linecap:butt;stroke-linejoin:miter;stroke-miterlimit:4;stroke-opacity:1;stroke-dasharray:none;stroke-dashoffset:0;marker:none;visibility:visible;display:inline;overflow:visible;enable-background:accumulate"
           d="m -33.398378,273.94687 c -0.35584,-3.37274 -0.78449,-4.41881 -2.00167,-5.13025 -1.61242,-0.94249 -3.23983,-0.46327 -4.102722,0.30715 -0.862895,0.77042 -1.143452,1.88864 -1.149483,2.28781 -0.006,0.39917 0.06121,0.93504 0.349364,1.30852 0.288152,0.37349 0.260232,1.22433 0.260232,1.22433 l 0.05138,0.58836 -0.04266,0.33082 0.640864,-0.0355 0.156366,0.62009 0.20394,0.46262 0.68241,0.20617 0.841,-0.31876"
           id="path3994"
           inkscape:connector-curvature="0"
           sodipodi:nodetypes="csssccccccccc" />
        <path
           style="color:#000000;fill:none;stroke:#000000;stroke-width:0.62500000000000000;stroke-linecap:butt;stroke-linejoin:miter;stroke-miterlimit:4;stroke-opacity:1;stroke-dasharray:none;stroke-dashoffset:0;marker:none;visibility:visible;display:inline;overflow:visible;enable-background:accumulate"
           d="m -35.383278,273.69088 c 2.29385,0.75027 5.73649,2.2487 6.47185,4.93412 0.73535,2.6854 1.28263,4.85571 1.03759,6.61479 -0.24504,1.75908 -0.97346,3.60125 -0.97346,3.60125"
           id="path3996"
           inkscape:connector-curvature="0" />
        <path
           style="color:#000000;fill:none;stroke:#000000;stroke-width:0.62500000000000000;stroke-linecap:butt;stroke-linejoin:miter;stroke-miterlimit:4;stroke-opacity:1;stroke-dasharray:none;stroke-dashoffset:0;marker:none;visibility:visible;display:inline;overflow:visible;enable-background:accumulate"
           d="m -35.961818,274.08894 c -1.38403,1.35767 -1.89913,1.54575 -2.05884,2.6432 -0.15971,1.09744 0.59217,0.69447 1.18925,1.56227 0.59708,0.86781 1.1209,1.59892 1.04652,2.03473 -0.0744,0.4358 -0.60378,2.56725 -0.60378,2.56725"
           id="path3998"
           inkscape:connector-curvature="0" />
        <path
           style="color:#000000;fill:none;stroke:#000000;stroke-width:0.62500000000000000;stroke-linecap:butt;stroke-linejoin:miter;stroke-miterlimit:4;stroke-opacity:1;stroke-dasharray:none;stroke-dashoffset:0;marker:none;visibility:visible;display:inline;overflow:visible;enable-background:accumulate"
           d="m -37.881268,277.97722 c -0.81644,1.18546 -2.052811,2.24403 -2.621524,2.98877 -0.568708,0.74473 -1.499957,1.55179 -2.13702,2.33315 -0.637062,0.78137 -2.583772,2.48461 -2.583772,2.48461 0,0 -0.899528,0.70207 -1.41463,0.89015 -0.515102,0.18809 -2.177454,1.51896 -2.177454,1.51896 l 0.976597,0.18048 1.27681,-0.24438"
           id="path4000"
           inkscape:connector-curvature="0" />
        <path
           style="color:#000000;fill:none;stroke:#000000;stroke-width:0.62500000000000000;stroke-linecap:butt;stroke-linejoin:miter;stroke-miterlimit:4;stroke-opacity:1;stroke-dasharray:none;stroke-dashoffset:0;marker:none;visibility:visible;display:inline;overflow:visible;enable-background:accumulate"
           d="m -34.454438,292.99002 c -0.98375,0.7912 -2.07247,1.55067 -2.90253,1.6436 -0.83006,0.0929 -2.956591,-0.26313 -2.956591,-0.26313 l 0,0"
           id="path4002"
           inkscape:connector-curvature="0" />
        <path
           style="color:#000000;fill:none;stroke:#000000;stroke-width:0.62500000000000000;stroke-linecap:butt;stroke-linejoin:miter;stroke-miterlimit:4;stroke-opacity:1;stroke-dasharray:none;stroke-dashoffset:0;marker:none;visibility:visible;display:inline;overflow:visible;enable-background:accumulate"
           d="m -41.295312,286.05402 c -0.485614,1.22812 -0.990888,1.76288 -0.929679,2.69792 0.06121,0.93505 -0.155912,1.8433 -0.152114,2.58915 0.0038,0.74584 0.185853,1.66011 0.185853,1.66011 l 1.274579,0.90065 1.48253,-3.39016 c 0,0 0.176685,-1.72245 0.161935,-2.24246 -0.0147,-0.52002 -0.320318,-2.73188 -0.320318,-2.73188 z"
           id="path4004"
           inkscape:connector-curvature="0" />
        <path
           style="color:#000000;fill:none;stroke:#000000;stroke-width:0.62500000000000000;stroke-linecap:butt;stroke-linejoin:miter;stroke-miterlimit:4;stroke-opacity:1;stroke-dasharray:none;stroke-dashoffset:0;marker:none;visibility:visible;display:inline;overflow:visible;enable-background:accumulate"
           d="m -41.748965,295.13979 c 0.365222,1.25604 0.405656,2.07024 1.071089,2.90142 0.665434,0.83117 1.902258,2.23598 1.902258,2.23598 l 2.3546,-0.77802 c 0,0 -1.91053,-0.6918 -2.70664,-1.84887 -0.796107,-1.15708 -1.555584,-2.24581 -1.555584,-2.24581 l -0.481153,-1.06192 z"
           id="path4006"
           inkscape:connector-curvature="0" />
        <path
           style="color:#000000;fill:none;stroke:#000000;stroke-width:0.62500000000000000;stroke-linecap:butt;stroke-linejoin:miter;stroke-miterlimit:4;stroke-opacity:1;stroke-dasharray:none;stroke-dashoffset:0;marker:none;visibility:visible;display:inline;overflow:visible;enable-background:accumulate"
           d="m -39.214128,285.42254 c 3.23603,-0.28258 5.26137,0.7876 6.4151,1.70902 1.15374,0.92143 2.06086,1.71104 2.35282,2.83038 0.29196,1.11933 0.59977,2.18616 0.59977,2.18616 l 0.79899,-3.02382 c 0,0 0.52337,-1.73227 -1.1028,-2.79642 -1.62617,-1.06416 -2.98987,-2.04902 -4.57562,-2.29897 -1.58574,-0.24995 -2.9615,-0.43647 -2.9615,-0.43647 z"
           id="path4008"
           inkscape:connector-curvature="0" />
        <path
           style="color:#000000;fill:none;stroke:#000000;stroke-width:0.62500000000000000;stroke-linecap:butt;stroke-linejoin:miter;stroke-miterlimit:4;stroke-opacity:1;stroke-dasharray:none;stroke-dashoffset:0;marker:none;visibility:visible;display:inline;overflow:visible;enable-background:accumulate"
           d="m -30.588498,292.89776 c -0.76505,1.77382 -1.47158,3.16433 -2.05615,3.96155 -0.58457,0.79722 -2.75108,2.09035 -2.75108,2.09035"
           id="path4010"
           inkscape:connector-curvature="0" />
        <path
           style="color:#000000;fill:none;stroke:#000000;stroke-width:0.62500000000000000;stroke-linecap:butt;stroke-linejoin:miter;stroke-miterlimit:4;stroke-opacity:1;stroke-dasharray:none;stroke-dashoffset:0;marker:none;visibility:visible;display:inline;overflow:visible;enable-background:accumulate"
           d="m -39.223478,301.00115 c 0,0 -4.001081,2.05639 -4.516183,2.24447 -0.515102,0.18809 -3.323591,2.08924 -3.323591,2.08924 l -0.95202,0.68621 c 0,0 0.0764,3.91844 -0.09805,4.49586 -0.174454,0.57743 -0.979488,4.00042 -0.979488,4.00042 l -1.741198,4.05672 -2.608807,-0.84543 2.048314,-13.4159 c 0,0 1.325505,-0.97436 1.600029,-1.69341 0.274529,-0.71904 1.139652,-2.63448 1.460642,-2.9385 0.320987,-0.304 2.248038,-2.7006 2.76314,-2.88869 0.515102,-0.18808 3.01243,-1.43854 3.01243,-1.43854"
           id="path4012"
           inkscape:connector-curvature="0" />
        <path
           style="color:#000000;fill:none;stroke:#000000;stroke-width:0.62500000000000000;stroke-linecap:butt;stroke-linejoin:miter;stroke-miterlimit:4;stroke-opacity:1;stroke-dasharray:none;stroke-dashoffset:0;marker:none;visibility:visible;display:inline;overflow:visible;enable-background:accumulate"
           d="m -42.719772,286.59749 c -1.303615,0.52271 -2.592484,1.56542 -4.110986,1.85135 -1.5185,0.28592 -3.277579,0.0409 -4.197883,0.62211 -0.9203,0.58122 -1.982225,1.06238 -2.497327,1.25046 -0.515102,0.18808 -1.855348,0.64242 -2.067553,1.72401 -0.212203,1.08158 -0.429983,5.02571 -0.536084,5.56649 -0.1061,0.5408 -0.979037,6.46381 -1.037561,6.84712 -0.05852,0.38331 -0.926332,0.98039 -0.118163,1.33914 0.808172,0.35873 3.952832,1.137 3.952832,1.137 0,0 2.151314,-4.27652 1.717742,-5.49592 -0.433571,-1.2194 -0.09383,-5.75681 -0.09383,-5.75681 0,0 1.209573,-0.78025 1.955423,-0.78406 0.745849,-0.004 3.083464,-0.15681 3.393508,-0.23499 0.310044,-0.0782 3.416517,-1.25918 3.416517,-1.25918"
           id="path4014"
           inkscape:connector-curvature="0" />
        <path
           style="color:#000000;fill:none;stroke:#000000;stroke-width:0.62500000000000000;stroke-linecap:butt;stroke-linejoin:miter;stroke-miterlimit:4;stroke-opacity:1;stroke-dasharray:none;stroke-dashoffset:0;marker:none;visibility:visible;display:inline;overflow:visible;enable-background:accumulate"
           d="m -53.700356,317.82264 c -1.66393,-0.55996 -1.785882,0.0333 -2.919956,-0.19477 -1.134076,-0.22806 -2.636715,0.005 -1.928618,0.50573 0.708101,0.50035 1.710384,0.97502 3.164331,1.47158 1.453958,0.49653 3.437743,1.32505 3.437743,1.32505 l 1.243523,-2.03026"
           id="path4016"
           inkscape:connector-curvature="0" />
        <path
           style="color:#000000;fill:none;stroke:#000000;stroke-width:0.62500000000000000;stroke-linecap:butt;stroke-linejoin:miter;stroke-miterlimit:4;stroke-opacity:1;stroke-dasharray:none;stroke-dashoffset:0;marker:none;visibility:visible;display:inline;overflow:visible;enable-background:accumulate"
           d="m -53.658389,307.06581 c -0.633262,1.52721 -0.6136,2.22057 -1.994285,1.86071 -1.38067,-0.35988 -2.288922,-0.57697 -3.637874,-1.04184 -1.348973,-0.46481 -3.736841,-1.4727 -3.736841,-1.4727 0,0 -0.942643,-1.4305 -0.511755,-1.52945 0.430891,-0.099 3.288525,-0.26672 3.288525,-0.26672 l 2.120497,0.75523"
           id="path4018"
           inkscape:connector-curvature="0" />
      </g>
    </g>
    <path
       style="color:#000000;fill:#5f5f5f;fill-opacity:1;stroke:none;stroke-width:0.62500000000000000;marker:none;visibility:visible;display:inline;overflow:visible;enable-background:accumulate"
       d="m -96.75,160.25 0,253.625 31.15625,0 0.375,-0.875 c 0,0 -2.113733,-6.39137 -1.6875,-9.375 0.426232,-2.98363 1.678785,-4.26021 2.53125,-9.375 0.852465,-5.11479 -2.96875,-12.34375 -2.96875,-12.34375 0,0 5.105017,-8.51893 5.53125,-12.78125 0.426233,-4.26233 2.988733,-10.22896 2.5625,-15.34375 -0.426232,-5.11479 -0.0062,-8.96769 2.125,-13.65625 2.131162,-4.68855 0.02359,-9.79912 -3.8125,-18.75 -3.836093,-8.95088 -3.428785,-17.48406 -4.28125,-25.15625 -0.852465,-7.67218 5.55889,-20.44155 8.96875,-27.6875 3.40986,-7.24596 7.227465,-19.2007 6.375,-36.25 -0.852465,-17.0493 -3.84375,-19.15625 -3.84375,-19.15625 0,0 9.608261,-13.26363 11.739424,-23.91944 2.131163,-10.65582 -8.307029,-13.59992 -10.864424,-28.51806 l -1.25,-0.4375 z"
       id="path4115"
       inkscape:connector-curvature="0"
       sodipodi:nodetypes="ccccsscssssssscsccc" />
    <path
       style="color:#000000;fill:none;stroke:#000000;stroke-width:0.625;stroke-linecap:butt;stroke-linejoin:miter;stroke-miterlimit:4;stroke-opacity:1;stroke-dasharray:none;stroke-dashoffset:0;marker:none;visibility:visible;display:inline;overflow:visible;enable-background:accumulate"
       d="m -65.744494,413.66105 0.375,-0.875 c 0,0 -2.11373,-6.39137 -1.6875,-9.375 0.42623,-2.98363 1.67879,-4.26021 2.53125,-9.375 0.85247,-5.11479 -2.96875,-12.34375 -2.96875,-12.34375 0,0 5.10502,-8.51893 5.53125,-12.78125 0.42624,-4.26233 2.98874,-10.22896 2.5625,-15.34375 -0.42623,-5.11479 -0.006,-8.96769 2.125,-13.65625 2.13116,-4.68855 0.0236,-9.79912 -3.8125,-18.75 -3.83609,-8.95088 -3.42878,-17.48406 -4.28125,-25.15625 -0.85246,-7.67218 5.55889,-20.44155 8.96875,-27.6875 3.40986,-7.24596 7.22747,-19.2007 6.375,-36.25 -0.85246,-17.0493 -3.84375,-19.15625 -3.84375,-19.15625 0,0 9.644951,-12.73545 11.776111,-23.39126 2.13117,-10.65582 -8.4891,-13.57562 -11.0465,-28.49376 l -1.220922,-0.23396"
       id="path4142"
       inkscape:connector-curvature="0"
       sodipodi:nodetypes="ccsscsscsssscscc" />
    <path
       style="color:#000000;fill:none;stroke:#000000;stroke-width:0.62500000000000000;stroke-linecap:butt;stroke-linejoin:miter;stroke-miterlimit:4;stroke-opacity:1;stroke-dasharray:none;stroke-dashoffset:0;marker:none;visibility:visible;display:inline;overflow:visible;enable-background:accumulate"
       d="m -40.633705,280.57575 0,-91.17187"
       id="path4391"
       inkscape:connector-curvature="0" />
    <path
       style="color:#000000;fill:none;stroke:#000000;stroke-width:0.62500000000000000;stroke-linecap:butt;stroke-linejoin:miter;stroke-miterlimit:4;stroke-opacity:1;stroke-dasharray:none;stroke-dashoffset:0;marker:none;visibility:visible;display:inline;overflow:visible;enable-background:accumulate"
       d="M -38.60202,189.14992 11.936151,361.84316"
       id="path4393"
       inkscape:connector-curvature="0" />
    <path
       style="color:#000000;fill:none;stroke:#000000;stroke-width:0.62500000000000000;stroke-linecap:butt;stroke-linejoin:miter;stroke-miterlimit:4;stroke-opacity:1;stroke-dasharray:none;stroke-dashoffset:0;marker:none;visibility:visible;display:inline;overflow:visible;enable-background:accumulate"
       d="m -41.86732,188.36703 c 0.800977,1.21229 0.736033,1.6236 1.147346,1.19064 0.411313,-0.43296 0.909218,-0.47625 0.714386,-1.10405 -0.194833,-0.62779 -1.472068,-1.71019 -1.472068,-1.71019"
       id="path4397"
       inkscape:connector-curvature="0" />
    <path
       style="color:#000000;fill:none;stroke:#000000;stroke-width:0.62500000000000000;stroke-linecap:butt;stroke-linejoin:miter;stroke-miterlimit:4;stroke-opacity:1;stroke-dasharray:none;stroke-dashoffset:0;marker:none;visibility:visible;display:inline;overflow:visible;enable-background:accumulate"
       d="m -40.113829,189.14636 c 1.342179,0.56285 1.710196,0.90922 1.840084,0.38967 0.129889,-0.51956 0.346369,-0.75769 -0.06494,-1.42878 -0.411313,-0.67108 -1.082402,-1.06075 -1.082402,-1.06075 l -0.714386,-0.0649 -0.584497,0.0649"
       id="path4399"
       inkscape:connector-curvature="0" />
    <path
       style="color:#000000;fill:none;stroke:#000000;stroke-width:0.62500000000000000;stroke-linecap:butt;stroke-linejoin:miter;stroke-miterlimit:4;stroke-opacity:1;stroke-dasharray:none;stroke-dashoffset:0;marker:none;visibility:visible;display:inline;overflow:visible;enable-background:accumulate"
       d="m -40.070533,186.74343 c -0.368016,-0.93087 -0.259776,-0.82263 -0.43296,-1.03911 -0.173185,-0.21648 -0.627794,-0.41131 -0.627794,-0.41131 l -0.606145,0.0649"
       id="path4401"
       inkscape:connector-curvature="0" />
    <path
       style="color:#000000;fill:none;stroke:#000000;stroke-width:0.62500000000000000;stroke-linecap:butt;stroke-linejoin:miter;stroke-miterlimit:4;stroke-opacity:1;stroke-dasharray:none;stroke-dashoffset:0;marker:none;visibility:visible;display:inline;overflow:visible;enable-background:accumulate"
       d="m -38.728354,189.23295 c -0.476257,-0.93086 -0.497905,-1.19064 -1.147346,-1.16899 -0.649442,0.0216 -0.844274,-0.23813 -1.017458,0.28142 -0.173185,0.51956 -0.0433,1.03911 -0.0433,1.03911"
       id="path4403"
       inkscape:connector-curvature="0" />
  </g>
</svg>
