<?xml version="1.0" encoding="UTF-8" standalone="no"?>
<!-- Generator: Adobe Illustrator 11 Build 196, SVG Export Plug-In . SVG Version: 6.0.0 Build 78)  -->

<svg
   xmlns:dc="http://purl.org/dc/elements/1.1/"
   xmlns:cc="http://creativecommons.org/ns#"
   xmlns:rdf="http://www.w3.org/1999/02/22-rdf-syntax-ns#"
   xmlns:svg="http://www.w3.org/2000/svg"
   xmlns="http://www.w3.org/2000/svg"
   xmlns:sodipodi="http://sodipodi.sourceforge.net/DTD/sodipodi-0.dtd"
   xmlns:inkscape="http://www.inkscape.org/namespaces/inkscape"
   width="109.18"
   height="16.947"
   viewBox="0 0 109.18 16.947"
   style="overflow:visible;enable-background:new 0 0 109.18 16.947"
   xml:space="preserve"
   id="svg2"
   version="1.1"
   sodipodi:docname="hw-mass-or-weight.svg"><metadata
   id="metadata59"><rdf:RDF><cc:Work
       rdf:about=""><dc:format>image/svg+xml</dc:format><dc:type
         rdf:resource="http://purl.org/dc/dcmitype/StillImage" /></cc:Work></rdf:RDF></metadata><defs
   id="defs57"><marker
   inkscape:stockid="Arrow2Mend"
   orient="auto"
   refY="0.0"
   refX="0.0"
   id="Arrow2Mend"
   style="overflow:visible;"><path
     id="path3671"
     style="font-size:12.0;fill-rule:evenodd;stroke-width:0.62500000;stroke-linejoin:round;"
     d="M 8.7185878,4.0337352 L -2.2072895,0.016013256 L 8.7185884,-4.0017078 C 6.9730900,-1.6296469 6.9831476,1.6157441 8.7185878,4.0337352 z "
     transform="scale(0.6) rotate(180) translate(0,0)" /></marker><marker
   inkscape:stockid="Arrow2Mstart"
   orient="auto"
   refY="0.0"
   refX="0.0"
   id="Arrow2Mstart"
   style="overflow:visible"><path
     id="path3668"
     style="font-size:12.0;fill-rule:evenodd;stroke-width:0.62500000;stroke-linejoin:round"
     d="M 8.7185878,4.0337352 L -2.2072895,0.016013256 L 8.7185884,-4.0017078 C 6.9730900,-1.6296469 6.9831476,1.6157441 8.7185878,4.0337352 z "
     transform="scale(0.6) translate(0,0)" /></marker><inkscape:perspective
   sodipodi:type="inkscape:persp3d"
   inkscape:vp_x="0 : 8.4735003 : 1"
   inkscape:vp_y="0 : 1000 : 0"
   inkscape:vp_z="109.18 : 8.4735003 : 1"
   inkscape:persp3d-origin="54.59 : 5.6490002 : 1"
   id="perspective61" />
		 
		
		 
		
		 
	
			 
			
		</defs><sodipodi:namedview
   pagecolor="#ffffff"
   bordercolor="#666666"
   borderopacity="1"
   objecttolerance="10"
   gridtolerance="10"
   guidetolerance="10"
   inkscape:pageopacity="0"
   inkscape:pageshadow="2"
   inkscape:window-width="1280"
   inkscape:window-height="996"
   id="namedview55"
   showgrid="false"
   inkscape:zoom="3.2416217"
   inkscape:cx="112.29949"
   inkscape:cy="0.93340173"
   inkscape:window-x="0"
   inkscape:window-y="0"
   inkscape:window-maximized="1"
   inkscape:current-layer="svg2" />
	<g
   id="g7">
			<path
   id="path9"
   d="m 17.219,5.411 c -6.603,0 -5.073,6.125 -1.492,6.125 3.581,0 5.744,-6.125 -1.044,-6.125 h -2.724"
   style="fill:none;stroke:#000000;stroke-width:0.5;stroke-miterlimit:1" />
			<path
   id="path11"
   d="m 17.22,5.411 c 6.789,0 4.625,6.125 1.044,6.125 -3.581,0 -5.11,-6.125 1.492,-6.125"
   style="fill:none;stroke:#000000;stroke-width:0.5;stroke-miterlimit:1" />
			<path
   id="path13"
   d="m 19.757,5.411 c 6.789,0 4.625,6.125 1.044,6.125 -3.581,0 -5.11,-6.125 1.492,-6.125"
   style="fill:none;stroke:#000000;stroke-width:0.5;stroke-miterlimit:1" />
			<path
   id="path15"
   d="m 22.295,5.411 c 6.789,0 4.625,6.125 1.044,6.125 -3.581,0 -5.11,-6.125 1.492,-6.125"
   style="fill:none;stroke:#000000;stroke-width:0.5;stroke-miterlimit:1" />
			<path
   id="path17"
   d="m 24.833,5.411 c 6.789,0 4.625,6.125 1.044,6.125 -3.581,0 -5.11,-6.125 1.492,-6.125"
   style="fill:none;stroke:#000000;stroke-width:0.5;stroke-miterlimit:1" />
			<path
   id="path19"
   d="m 27.37,5.411 c 6.789,0 4.625,6.125 1.044,6.125 -3.581,0 -5.11,-6.125 1.492,-6.125"
   style="fill:none;stroke:#000000;stroke-width:0.5;stroke-miterlimit:1" />
			<path
   id="path21"
   d="m 29.907,5.411 c 6.789,0 4.625,6.125 1.045,6.125 -3.581,0 -5.11,-6.125 1.492,-6.125"
   style="fill:none;stroke:#000000;stroke-width:0.5;stroke-miterlimit:1" />
			<path
   id="path23"
   d="m 32.445,5.411 c 6.789,0 4.625,6.125 1.044,6.125 -3.581,0 -5.11,-6.125 1.492,-6.125"
   style="fill:none;stroke:#000000;stroke-width:0.5;stroke-miterlimit:1" />
			<path
   id="path25"
   d="m 34.982,5.411 c 6.789,0 4.625,6.125 1.044,6.125 -3.581,0 -5.11,-6.125 1.492,-6.125"
   style="fill:none;stroke:#000000;stroke-width:0.5;stroke-miterlimit:1" />
			<path
   id="path27"
   d="m 37.52,5.411 c 6.789,0 4.625,6.125 1.044,6.125 -3.581,0 -5.11,-6.125 1.492,-6.125"
   style="fill:none;stroke:#000000;stroke-width:0.5;stroke-miterlimit:1" />
			<path
   id="path29"
   d="m 40.058,5.411 c 6.789,0 4.625,6.125 1.044,6.125 -3.581,0 -5.11,-6.125 1.492,-6.125"
   style="fill:none;stroke:#000000;stroke-width:0.5;stroke-miterlimit:1" />
			<path
   id="path31"
   d="m 42.595,5.411 c 6.789,0 4.625,6.125 1.044,6.125 -3.581,0 -5.11,-6.125 1.492,-6.125"
   style="fill:none;stroke:#000000;stroke-width:0.5;stroke-miterlimit:1" />
			<path
   id="path33"
   d="m 45.132,5.411 c 6.789,0 4.625,6.125 1.044,6.125 -3.581,0 -5.11,-6.125 1.492,-6.125"
   style="fill:none;stroke:#000000;stroke-width:0.5;stroke-miterlimit:1" />
			<path
   id="path35"
   d="m 47.67,5.411 c 6.789,0 4.625,6.125 1.044,6.125 -3.581,0 -5.11,-6.125 1.492,-6.125"
   style="fill:none;stroke:#000000;stroke-width:0.5;stroke-miterlimit:1" />
			<path
   id="path37"
   d="m 50.208,5.411 c 6.789,0 4.625,6.125 1.044,6.125 -3.581,0 -5.11,-6.125 1.492,-6.125"
   style="fill:none;stroke:#000000;stroke-width:0.5;stroke-miterlimit:1" />
			<path
   id="path39"
   d="m 52.745,5.411 c 6.789,0 4.625,6.125 1.044,6.125 -3.581,0 -5.11,-6.125 1.492,-6.125"
   style="fill:none;stroke:#000000;stroke-width:0.5;stroke-miterlimit:1" />
			<path
   id="path41"
   d="m 55.282,5.411 c 6.789,0 4.625,6.125 1.044,6.125 -3.581,0 -5.11,-6.125 1.492,-6.125"
   style="fill:none;stroke:#000000;stroke-width:0.5;stroke-miterlimit:1" />
			<path
   id="path43"
   d="m 57.82,5.411 c 6.789,0 4.625,6.125 1.044,6.125 -3.581,0 -5.11,-6.125 1.492,-6.125"
   style="fill:none;stroke:#000000;stroke-width:0.5;stroke-miterlimit:1" />
		</g><path
   style="fill:#b4b4b4"
   d="M 0 0.28125 L 0 19.53125 L 12.875 19.53125 L 14.15625 19.53125 L 111.875 19.53125 L 111.875 17 L 14.15625 17 L 14.15625 0.28125 L 0 0.28125 z "
   id="rect49" /><line
   style="fill:#7f7f7f;stroke:#7f7f7f;fill-opacity:1"
   x1="14.548"
   y1="0.361"
   x2="14.548"
   y2="16.584999"
   id="line51" />
<path
   style="color:#000000;fill:none;stroke:#7f7f7f;stroke-width:1.24757504;stroke-linecap:butt;stroke-linejoin:miter;stroke-miterlimit:4;stroke-opacity:1;stroke-dasharray:none;stroke-dashoffset:0;marker:none;visibility:visible;display:inline;overflow:visible;enable-background:accumulate"
   d="m 14.035888,16.947001 97.851422,0"
   id="path4304" /><g
   id="g4309"
   transform="translate(0,-0.58337608)"><rect
     x="61.779999"
     y="0.5"
     style="fill:#dcdcdc"
     width="46.898998"
     height="15.947"
     id="rect5" /><rect
     x="89.452003"
     y="0.5"
     style="fill:#7f7f7f;stroke:#000000"
     width="19.228001"
     height="15.947"
     id="rect45" /><rect
     x="61.779999"
     y="0.5"
     style="fill:#7f7f7f;stroke:#000000"
     width="19.228001"
     height="15.947"
     id="rect53" /><path
     id="path2867"
     d="m 70.754061,8.2530371 28.529619,0"
     style="color:#000000;fill:none;stroke:#000000;stroke-width:1.40547299;stroke-linecap:butt;stroke-linejoin:miter;stroke-miterlimit:4;stroke-opacity:1;stroke-dasharray:none;stroke-dashoffset:0;marker:none;marker-start:url(#Arrow2Mstart);marker-end:url(#Arrow2Mend);visibility:visible;display:inline;overflow:visible;enable-background:accumulate" /></g></svg>