<?xml version="1.0" encoding="UTF-8" standalone="no"?>
<!-- Created with Inkscape (http://www.inkscape.org/) -->

<svg
   xmlns:dc="http://purl.org/dc/elements/1.1/"
   xmlns:cc="http://creativecommons.org/ns#"
   xmlns:rdf="http://www.w3.org/1999/02/22-rdf-syntax-ns#"
   xmlns:svg="http://www.w3.org/2000/svg"
   xmlns="http://www.w3.org/2000/svg"
   xmlns:sodipodi="http://sodipodi.sourceforge.net/DTD/sodipodi-0.dtd"
   xmlns:inkscape="http://www.inkscape.org/namespaces/inkscape"
   width="744.09448819"
   height="1052.3622047"
   id="svg2"
   version="1.1"
   sodipodi:docname="hw-moment-of-inertia-lab.svg">
  <defs
     id="defs4" />
  <sodipodi:namedview
     id="base"
     pagecolor="#ffffff"
     bordercolor="#666666"
     borderopacity="1.0"
     inkscape:pageopacity="0.0"
     inkscape:pageshadow="2"
     inkscape:zoom="1.2135609"
     inkscape:cx="79.204507"
     inkscape:cy="954.12379"
     inkscape:document-units="px"
     inkscape:current-layer="layer1"
     showgrid="false"
     inkscape:window-width="1440"
     inkscape:window-height="872"
     inkscape:window-x="0"
     inkscape:window-y="0"
     inkscape:window-maximized="1" />
  <metadata
     id="metadata7">
    <rdf:RDF>
      <cc:Work
         rdf:about="">
        <dc:format>image/svg+xml</dc:format>
        <dc:type
           rdf:resource="http://purl.org/dc/dcmitype/StillImage" />
        <dc:title />
      </cc:Work>
    </rdf:RDF>
  </metadata>
  <g
     inkscape:label="Layer 1"
     inkscape:groupmode="layer"
     id="layer1">
    <rect
       style="fill:#dedede;fill-opacity:1;stroke:none"
       id="rect2985"
       width="184.25197"
       height="138.43677"
       x="-6.8736029"
       y="47.049274" />
    <g
       id="g4178"
       transform="translate(-1.8381679,-7.3526717)">
      <path
         id="rect4153-8"
         d="m 132.21875,152.5625 0,0.15625 -3.625,4.6875 c 0,0 2.11058,2.22513 3.625,3.8125 l 0,4.0625 3.90625,0 c 2.50234,2.59488 4.77373,4.92129 4.8125,4.84375 0.0928,-0.18568 4.1875,-4.8125 4.1875,-4.8125 l -0.15625,-0.15625 0,-12.59375 -12.75,0 z"
         style="fill:#ffffff;fill-opacity:1;stroke:#000000;stroke-width:0.625;stroke-miterlimit:4;stroke-opacity:1;stroke-dasharray:none;stroke-dashoffset:0"
         inkscape:connector-curvature="0" />
      <rect
         y="157.51855"
         x="128.33987"
         height="12.727922"
         width="12.727922"
         id="rect4153"
         style="fill:#ffffff;fill-opacity:1;stroke:#000000;stroke-width:0.625;stroke-miterlimit:4;stroke-opacity:1;stroke-dasharray:none;stroke-dashoffset:0" />
      <path
         inkscape:connector-curvature="0"
         id="path4176"
         d="m 140.79414,157.74148 4.08502,-5.10628"
         style="color:#000000;fill:none;stroke:#000000;stroke-width:0.625;stroke-linecap:butt;stroke-linejoin:miter;stroke-miterlimit:4;stroke-opacity:1;stroke-dasharray:none;stroke-dashoffset:0;marker:none;visibility:visible;display:inline;overflow:visible;enable-background:accumulate" />
    </g>
    <g
       id="g3778"
       transform="translate(0,8.1363892)">
      <path
         id="rect3757"
         d="m 32.59375,82.3125 0,14.84375 c -2.12e-4,0.01027 0,0.02097 0,0.03125 0,3.97573 15.868355,7.1875 35.4375,7.1875 19.569145,0 35.4375,-3.21177 35.4375,-7.1875 0,-0.06212 -0.0236,-0.125756 -0.0313,-0.1875 l 0,-14.6875 -70.84375,0 z"
         style="fill:#ffffff;fill-opacity:1;stroke:#000000;stroke-width:0.625;stroke-miterlimit:4;stroke-opacity:1;stroke-dasharray:none"
         inkscape:connector-curvature="0" />
      <path
         transform="matrix(1.5678804,0,0,0.86690155,-19.151507,7.8966327)"
         d="m 78.20425,85.845932 c 0,4.586143 -10.118072,8.303947 -22.599346,8.303947 -12.481274,0 -22.599346,-3.717804 -22.599346,-8.303947 0,-4.586143 10.118072,-8.303946 22.599346,-8.303946 12.481274,0 22.599346,3.717803 22.599346,8.303946 z"
         sodipodi:ry="8.3039465"
         sodipodi:rx="22.599346"
         sodipodi:cy="85.845932"
         sodipodi:cx="55.604904"
         id="path3755"
         style="fill:#ffffff;fill-opacity:1;stroke:#000000;stroke-width:0.53609121;stroke-miterlimit:4;stroke-opacity:1;stroke-dasharray:none"
         sodipodi:type="arc" />
    </g>
    <g
       id="g3947"
       transform="translate(-1.5821259,83.325295)">
      <path
         inkscape:connector-curvature="0"
         id="path3050-6"
         d="m 48.323664,-26.360719 c 0,0 0.146672,1.267315 0.06701,1.585826 -0.07962,0.318508 -0.383607,1.52563 -0.781746,1.764511 -0.398138,0.238882 -0.964339,1.819896 -1.36247,2.456915 -0.398138,0.637022 0.469047,1.51882 0.469047,1.51882 l -1.429478,1.429477 c 0,0 -0.149537,0.639013 0.08934,1.11678 0.209018,0.418042 0.600302,0.953625 1.228457,1.295464 0.07952,0.05095 0.183173,0.09114 0.290363,0.134013 0.294937,0.117974 0.580196,0.115404 0.871088,0.08934 l -0.06701,-0.04467 c 0.02695,-0.0026 0.06175,0.0033 0.08934,0 l 0.04467,0.04467 c -0.02166,0.0024 -0.04535,-0.0019 -0.06701,0 l 0.111677,0.06701 3.79705,-0.357369 0.178685,3.43968 0.223356,1.116779 -0.08934,0.111678 c 0,0 0.06683,-0.01833 0.111678,-0.02234 l 0.491383,2.4122436 -0.290362,-0.2456914 c 0.637018,1.1944114 0.715732,2.4696218 1.273128,4.2214258 0.557389,1.7518004 1.27994,3.67184389 1.51882,5.02550689 0.23888,1.35366731 0.07672,2.94638761 0.156349,3.66303711 0.07962,0.716645 -0.951718,0.307885 -1.429478,1.183786 -0.477767,0.875906 -0.491382,1.116779 -0.491382,1.116779 0,0 0.173874,-0.159258 1.049772,0 0.875905,0.159258 1.742176,1.041968 1.742176,0.245691 0,-0.796276 0.239873,-0.968234 0.558389,-1.764511 0.318509,-0.79627 0.312699,-0.71383 0.312699,-1.9878676 0,-1.2740412 0.156349,-2.0763004 0.156349,-3.35033801 0,-1.27403749 -0.156349,-1.10615399 -0.156349,-2.30056529 0,-0.7973505 -0.08557,-1.3920195 -0.156349,-1.7868469 l 0.625396,-0.4467118 0.08934,0.089342 0.55839,0.9380946 0.491383,2.63559919 0.625396,2.07720951 c 0,0 -0.15344,1.9801487 -0.312698,3.0153043 -0.159251,1.035156 -0.72155,1.83542 -0.96043,2.233558 -0.23888,0.398138 -1.274122,0.877893 -1.831518,1.11678 -0.557389,0.23888 0.491383,0.558389 0.491383,0.558389 0,0 0.941997,0.07672 1.340135,0.156349 0.398138,0.07962 1.362471,-0.245691 1.362471,-0.245691 0,0 0.319509,-0.776928 0.558389,-1.652833 0.238887,-0.875901 1.429478,-2.010203 1.429478,-2.010203 0,0 -0.15344,-0.718642 -0.312698,-1.1167794 -0.159258,-0.3981366 0.309789,-1.6548268 0.469047,-2.76961271 0.159251,-1.1147816 0.40204,-2.88038139 0.40204,-4.15441899 0,-0.3710109 -0.0036,-0.7857645 0,-1.1837861 0,0 1.04106,0.2262627 1.51882,0.067007 0.477767,-0.1592559 4.690477,-1.2731284 4.690477,-1.2731284 l 3.97573,-1.4294776 c 0,0 0.48557,1.5965407 0.80408,2.2335587 0.31851,0.637023 1.65674,2.5530668 2.05488,2.7919483 0.39813,0.2388814 1.27512,1.5013845 2.3899,2.45691442 1.11478,0.95553 0.003,1.36637468 -0.15635,1.76451138 -0.15925,0.3981373 -0.23306,1.421759 -0.31269,2.4569146 -0.0796,1.035156 -0.5662,0.475856 -1.36247,0.714739 -0.79627,0.238884 -0.55839,1.049772 -0.55839,1.049772 0,0 1.1333,0.312698 1.45181,0.312698 0.31851,0 1.67517,-0.647732 1.67517,-0.647732 0,0 0.46905,-2.1423104 0.46905,-2.8589547 0,-0.7166485 1.27312,-2.07720948 1.27312,-2.07720948 l -0.91576,-1.98786722 c 0.7304,0.97122642 1.48628,2.00733672 1.9432,2.6355992 0.63702,0.8759002 0.5662,0.797359 1.36247,2.3899077 0.79628,1.5925445 0.24569,2.7026055 0.24569,2.7026055 l -2.07721,0.871088 0.46905,0.335034 2.6356,0.156349 c 0,0 0.40494,-0.891522 0.24569,-1.608162 -0.15926,-0.716649 -0.32532,-2.3734737 -0.24569,-3.886392 0.0796,-1.51292328 -0.15635,-2.32290098 -0.15635,-2.32290098 l -1.92086,-2.61326352 -0.26803,-0.1786847 0.13402,-0.3573694 0.22335,0.2903626 -0.11168,-0.6253964 -0.75941,-4.7798155 c 0.0309,0.1853975 0.0613,0.4544302 0.0893,0.6924032 l -0.17869,-1.027437 c -0.0573,-0.3630951 -0.0906,-0.5239542 -0.13401,-0.7817455 l -0.0893,-0.55839 c -0.0953,-0.5176 -0.19436,-0.956115 -0.33504,-1.51882 -0.23888,-0.95553 -1.58582,-2.635599 -1.58582,-2.635599 l 1.27312,-1.116779 c 0,0 2.94249,-2.133591 3.261,-3.328003 0.31851,-1.194412 1.03035,-4.635176 0.87109,-5.829588 -0.15925,-1.194411 -0.96043,-1.898524 -0.96043,-1.898524 0,0 -0.39913,1.983054 -0.55839,2.858955 -0.15926,0.8759 -0.46324,1.914138 -0.78175,3.506687 -0.31851,1.592548 -0.73135,1.505292 -2.88129,2.858955 -2.14993,1.353667 -1.67036,0.328223 -2.54625,0.08934 -0.87591,-0.238885 -3.18437,-0.319508 -4.93617,-0.55839 -1.7518,-0.238881 -3.6544,-0.0058 -5.9636,0.312699 -2.309193,0.318511 -2.537538,0.156349 -3.015305,0.156349 -0.477767,0 -2.403609,-0.397225 -4.712809,-1.273129 l 3.931063,1.652834 -0.312698,0 -3.618365,-1.652834 -0.379705,-0.156349 -0.603061,-0.737074 0.268027,0.268027 c 0,0 -0.3166,-0.403038 -0.714738,-0.96043 -0.246056,-0.344483 -0.432882,-0.539283 -0.670068,-0.692404 l -0.603061,-0.737074 c 0.06719,-0.07465 0.116538,-0.166064 0.156349,-0.245691 0.159258,-0.318508 -0.153447,-1.038151 -0.312698,-1.675169 -0.159258,-0.637019 -0.160251,-0.629301 -0.558389,-1.027437 -0.398131,-0.398138 -0.958522,-0.5652 -1.675169,-0.804081 -0.716648,-0.238882 -0.960431,-0.379705 -0.960431,-0.379705 0.159251,0.557389 -0.0029,1.021627 0.156349,1.340135 l -0.178684,0.06701 0.02233,-0.312699 c 0,0 -0.08353,0.01262 -0.40204,-0.06701 -0.318509,-0.07963 -0.871088,0.06701 -0.871088,0.06701 0,0 -0.386509,-0.715735 -0.625396,-1.273128 -0.23888,-0.557393 -1.11678,-0.625396 -1.11678,-0.625396 z"
         style="fill:#ffffff;fill-opacity:1;stroke:none" />
      <g
         transform="translate(34.761763,5.5705046)"
         id="g3933">
        <path
           style="fill:none;stroke:#000000;stroke-width:0.625;stroke-linecap:butt;stroke-linejoin:miter;stroke-miterlimit:4;stroke-opacity:1;stroke-dasharray:none"
           d="m 16.181679,-20.94533 c -1.831426,-0.07963 -3.26472,0.637018 -4.060996,0.318511 -0.796276,-0.318511 -1.274043,-0.95553 -1.512923,-1.433294 -0.23888,-0.477766 -0.07962,-1.114785 -0.07962,-1.114785 l 1.433287,-1.433293 c 0,0 -0.875898,-0.8759 -0.47776,-1.512922 0.398131,-0.637019 0.955527,-2.229568 1.353665,-2.468449 0.398138,-0.238882 0.716647,-1.433293 0.796269,-1.751801 0.07963,-0.318511 -0.07962,-1.592548 -0.07962,-1.592548 0,0 0.875898,0.07963 1.114778,0.637018 0.238887,0.557393 0.637025,1.274038 0.637025,1.274038 0,0 0.557389,-0.159256 0.875899,-0.07963 0.318509,0.07963 0.398138,0.07963 0.398138,0.07963"
           id="path3050"
           inkscape:connector-curvature="0" />
        <path
           style="fill:none;stroke:#000000;stroke-width:0.625;stroke-linecap:butt;stroke-linejoin:miter;stroke-miterlimit:4;stroke-opacity:1;stroke-dasharray:none"
           d="m 16.739068,-28.589562 c 0,0 0.159258,-0.8759 0,-1.194412 -0.159251,-0.318507 0,-0.796274 -0.159251,-1.353663 0,0 0.23888,0.159256 0.955527,0.398137 0.716647,0.238881 1.274043,0.398137 1.672174,0.796275 0.398138,0.398136 0.398138,0.398136 0.557396,1.035155 0.159251,0.637019 0.477767,1.353667 0.318509,1.672175 -0.159258,0.318511 -0.637018,0.637018 -0.637018,0.637018"
           id="path3052"
           inkscape:connector-curvature="0" />
        <path
           style="fill:none;stroke:#000000;stroke-width:0.625;stroke-linecap:butt;stroke-linejoin:miter;stroke-miterlimit:4;stroke-opacity:1;stroke-dasharray:none"
           d="m 20.003794,-26.519247 c 0.557389,0.238878 0.796276,0.398134 1.194407,0.955526 0.398138,0.557393 0.716654,0.95553 0.716654,0.95553 l 0,0"
           id="path3054"
           inkscape:connector-curvature="0" />
        <path
           style="fill:none;stroke:#000000;stroke-width:0.625;stroke-linecap:butt;stroke-linejoin:miter;stroke-miterlimit:4;stroke-opacity:1;stroke-dasharray:none"
           d="m 22.631495,-23.971172 c 2.3092,0.875904 4.220254,1.274037 4.698021,1.274037 0.477767,0 0.716647,0.159256 3.02584,-0.159255 2.309199,-0.318508 4.220253,-0.557389 5.972056,-0.318508 1.751804,0.238881 4.060996,0.318508 4.936901,0.557393 0.875898,0.238881 0.398131,1.274037 2.548072,-0.07963 2.149942,-1.353663 2.54808,-1.274037 2.866589,-2.866586 0.318509,-1.592548 0.637018,-2.627704 0.796276,-3.503604 0.159251,-0.8759 0.557389,-2.866586 0.557389,-2.866586 0,0 0.796276,0.716645 0.955527,1.911056 0.159258,1.194411 -0.557389,4.61839 -0.875898,5.812802 -0.318509,1.194411 -3.264726,3.344348 -3.264726,3.344348 l -1.274037,1.114786 c 0,0 1.353666,1.672174 1.592546,2.627704 0.238887,0.955532 0.318509,1.353669 0.557396,2.866588"
           id="path3056"
           inkscape:connector-curvature="0" />
        <path
           style="fill:none;stroke:#000000;stroke-width:0.625;stroke-linecap:butt;stroke-linejoin:miter;stroke-miterlimit:4;stroke-opacity:1;stroke-dasharray:none"
           d="m 46.599345,-8.2845738 1.911061,2.6277042 c 0,0 0.23888,0.796274 0.159251,2.3091972 -0.07963,1.5129183 0.07963,3.18509324 0.238887,3.90174178 C 49.067795,1.2707136 48.669657,2.146616 48.669657,2.146616 L 46.041956,1.987365 45.564189,1.6688489 47.634501,0.7929508 c 0,0 0.557389,-1.11478591 -0.23888,-2.7073304 -0.796276,-1.5925487 -0.716647,-1.5129225 -1.353665,-2.3888227 -0.637018,-0.8759045 -1.911062,-2.6277049 -2.78696,-3.7424901 -0.875898,-1.1147816 -1.512923,-2.1499376 -2.627708,-3.2647226 -1.114778,-1.114782 -1.194407,-2.149938 -2.309192,-2.707331 -1.114786,-0.557392 -1.672175,-1.035155 -1.672175,-1.035155"
           id="path3058"
           inkscape:connector-curvature="0"
           sodipodi:nodetypes="ccssccccsssssc" />
        <path
           style="fill:none;stroke:#000000;stroke-width:0.625;stroke-linecap:butt;stroke-linejoin:miter;stroke-miterlimit:4;stroke-opacity:1;stroke-dasharray:none"
           d="m 45.0068,-4.9402211 c 0,0 -1.274044,1.353663 -1.274044,2.0703116 0,0.7166442 -0.47776,2.86658557 -0.47776,2.86658557 0,0 -1.353665,0.63701878 -1.672174,0.63701878 -0.318509,0 -1.433294,-0.3185076 -1.433294,-0.3185076 0,0 -0.23888,-0.79627401 0.557389,-1.035159 0.796276,-0.23888214 1.274043,0.31851117 1.353665,-0.71664495 0.07963,-1.0351555 0.159258,-2.0703116 0.318516,-2.468449 0.159251,-0.3981366 1.274037,-0.796274 0.159251,-1.7518039 -1.114785,-0.95553 -1.990683,-2.2295676 -2.388821,-2.468449 C 39.75139,-8.3642 38.397725,-10.275256 38.079216,-10.912279 37.760707,-11.549297 37.28294,-13.141846 37.28294,-13.141846 l -3.981367,1.433293 c 0,0 -4.220254,1.114785 -4.698021,1.274041 -0.47776,0.159256 -1.512923,-0.07963 -1.512923,-0.07963"
           id="path3060"
           inkscape:connector-curvature="0" />
        <path
           style="fill:none;stroke:#000000;stroke-width:0.625;stroke-linecap:butt;stroke-linejoin:miter;stroke-miterlimit:4;stroke-opacity:1;stroke-dasharray:none"
           d="m 26.931378,-13.619609 c 0.238887,1.592549 0.159251,3.025841 0.159251,4.299879 0,1.2740376 -0.23888,3.0258416 -0.398131,4.1406232 -0.159258,1.1147859 -0.637025,2.3888235 -0.477767,2.7869601 0.159258,0.3981374 0.318509,1.1147859 0.318509,1.1147859 0,0 -1.194407,1.11478164 -1.433294,1.99068184 C 24.861066,1.589227 24.542557,2.385496 24.542557,2.385496 c 0,0 -0.955527,0.318509 -1.353665,0.2388871 -0.398139,-0.079629 -1.353666,-0.1592581 -1.353666,-0.1592581 0,0 -1.035156,-0.318509 -0.477767,-0.557389 0.557396,-0.2388871 1.592553,-0.7166485 1.831433,-1.1147852 0.23888,-0.39813736 0.796276,-1.19441138 0.955527,-2.2295675 0.159258,-1.0351555 0.318509,-3.0258416 0.318509,-3.0258416 l -0.637018,-2.0703115 -0.477767,-2.6277042 -0.55739,-0.95553 -1.114785,-0.8759 c 0,0 -2.229563,-0.159256 -3.025839,-1.592549 -0.796276,-1.433293 -1.194407,-3.105467 -1.194407,-3.105467 l 0,0 0,0"
           id="path3062"
           inkscape:connector-curvature="0" />
        <path
           style="fill:none;stroke:#000000;stroke-width:0.625;stroke-linecap:butt;stroke-linejoin:miter;stroke-miterlimit:4;stroke-opacity:1;stroke-dasharray:none"
           d="m 17.535344,-14.017746 c 0.637018,1.194412 0.716647,2.468449 1.274043,4.2202532 0.557389,1.7518004 1.274036,3.6628603 1.512916,5.0165234 0.23888,1.3536673 0.07963,2.9462153 0.159258,3.6628639 0.07962,0.71664492 -0.955534,0.31850756 -1.433294,1.19440776 C 18.5705,0.95220603 18.5705,1.1910875 18.5705,1.1910875 c 0,0 0.159258,-0.1592553 1.035156,0 0.875905,0.1592559 1.751803,1.0351575 1.751803,0.2388821 0,-0.79627475 0.23888,-0.95552998 0.557396,-1.75180471 0.318509,-0.79627039 0.318509,-0.71664429 0.318509,-1.99068179 0,-1.2740412 0.159251,-2.0703152 0.159251,-3.3443527 0,-1.2740376 -0.159251,-1.1147817 -0.159251,-2.309193 0,-1.1944114 -0.238887,-2.2295674 -0.238887,-2.2295674 l 0,0"
           id="path3064"
           inkscape:connector-curvature="0" />
        <path
           style="fill:none;stroke:#000000;stroke-width:0.625;stroke-linecap:butt;stroke-linejoin:miter;stroke-miterlimit:4;stroke-opacity:1;stroke-dasharray:none"
           d="m 10.687389,-22.060113 c 0.716647,0.557389 0.637018,1.114783 1.433294,1.433294 0.796276,0.318507 1.592545,-0.07963 2.309192,-0.159256 0.716647,-0.07963 2.070313,-0.238882 2.070313,-0.238882 0,0 -0.23888,0.159252 0,0.637016 0.23888,0.477766 0.398138,2.388822 0.398138,2.388822"
           id="path3066"
           inkscape:connector-curvature="0" />
        <path
           style="fill:none;stroke:#000000;stroke-width:0.625;stroke-linecap:butt;stroke-linejoin:miter;stroke-miterlimit:4;stroke-opacity:1;stroke-dasharray:none"
           d="m 22.074106,-24.130428 c -0.159251,1.751804 -1.672174,5.335039 -2.46845,5.892428 -0.796269,0.557393 -2.627701,0.07963 -2.627701,0.07963"
           id="path3068"
           inkscape:connector-curvature="0" />
        <path
           style="fill:none;stroke:#000000;stroke-width:0.625;stroke-linecap:butt;stroke-linejoin:miter;stroke-miterlimit:4;stroke-opacity:1;stroke-dasharray:none"
           d="m 23.029633,-23.334153 c -0.23888,1.512918 -1.035156,3.264723 -1.672174,4.060997 -0.637018,0.796274 -1.592545,2.070315 -2.229563,2.548079 -0.637025,0.477764 -1.911061,0.557394 -1.911061,0.557394"
           id="path3070"
           inkscape:connector-curvature="0" />
        <path
           style="fill:none;stroke:#000000;stroke-width:0.625;stroke-linecap:butt;stroke-linejoin:miter;stroke-miterlimit:4;stroke-opacity:1;stroke-dasharray:none"
           d="m 45.803076,-13.93812 c 0.23888,1.433293 0.398131,4.777646 0.398131,4.777646 l 0.477767,0.6370188"
           id="path3072"
           inkscape:connector-curvature="0" />
      </g>
    </g>
    <path
       sodipodi:type="arc"
       style="fill:none;stroke:#000000;stroke-width:0.75052762;stroke-miterlimit:4;stroke-opacity:1;stroke-dasharray:none"
       id="path3755-6"
       sodipodi:cx="55.604904"
       sodipodi:cy="85.845932"
       sodipodi:rx="22.599346"
       sodipodi:ry="8.3039465"
       d="m 78.20425,85.845932 a 22.599346,8.3039465 0 1 1 -45.198692,0"
       transform="matrix(1.5864025,0,0,0.87714264,-19.932781,17.479912)"
       sodipodi:start="0"
       sodipodi:end="3.1415927"
       sodipodi:open="true" />
    <path
       sodipodi:type="arc"
       style="fill:none;stroke:#000000;stroke-width:0.75052762;stroke-miterlimit:4;stroke-opacity:1;stroke-dasharray:none"
       id="path3755-6-0"
       sodipodi:cx="55.604904"
       sodipodi:cy="85.845932"
       sodipodi:rx="22.599346"
       sodipodi:ry="8.3039465"
       d="m 78.20425,85.845932 a 22.599346,8.3039465 0 1 1 -45.198692,0"
       transform="matrix(1.5864025,0,0,0.87714264,-19.932781,23.684746)"
       sodipodi:start="0"
       sodipodi:end="3.1415927"
       sodipodi:open="true" />
    <path
       sodipodi:type="arc"
       style="fill:none;stroke:#000000;stroke-width:0.75052762;stroke-miterlimit:4;stroke-opacity:1;stroke-dasharray:none"
       id="path3755-6-6"
       sodipodi:cx="55.604904"
       sodipodi:cy="85.845932"
       sodipodi:rx="22.599346"
       sodipodi:ry="8.3039465"
       d="m 78.20425,85.845932 a 22.599346,8.3039465 0 1 1 -45.198692,0"
       transform="matrix(1.5864025,0,0,0.87714264,-19.932781,25.088716)"
       sodipodi:start="0"
       sodipodi:end="3.1415927"
       sodipodi:open="true" />
    <path
       sodipodi:type="arc"
       style="fill:none;stroke:#000000;stroke-width:0.75052762;stroke-miterlimit:4;stroke-opacity:1;stroke-dasharray:none"
       id="path3755-6-2"
       sodipodi:cx="55.604904"
       sodipodi:cy="85.845932"
       sodipodi:rx="22.599346"
       sodipodi:ry="8.3039465"
       d="m 78.20425,85.845932 a 22.599346,8.3039465 0 1 1 -45.198692,0"
       transform="matrix(1.5864025,0,0,0.87714264,-19.932781,26.085149)"
       sodipodi:start="0"
       sodipodi:end="3.1415927"
       sodipodi:open="true" />
    <path
       sodipodi:type="arc"
       style="fill:none;stroke:#000000;stroke-width:0.75052762;stroke-miterlimit:4;stroke-opacity:1;stroke-dasharray:none"
       id="path3755-6-61"
       sodipodi:cx="55.604904"
       sodipodi:cy="85.845932"
       sodipodi:rx="22.599346"
       sodipodi:ry="8.3039465"
       d="M 55.604905,94.149879 A 22.599346,8.3039465 0 0 1 33.005558,85.845932"
       transform="matrix(1.5864025,0,0,0.87714264,-20.118232,27.285345)"
       sodipodi:start="1.5707963"
       sodipodi:end="3.1415927"
       sodipodi:open="true" />
    <path
       sodipodi:type="arc"
       style="fill:none;stroke:#000000;stroke-width:0.75052762;stroke-miterlimit:4;stroke-opacity:1;stroke-dasharray:none"
       id="path3755-6-8"
       sodipodi:cx="55.604904"
       sodipodi:cy="85.845932"
       sodipodi:rx="22.599346"
       sodipodi:ry="8.3039465"
       d="m 78.20425,85.845932 a 22.599346,8.3039465 0 1 1 -45.198692,0"
       transform="matrix(1.5864025,0,0,0.87714264,-19.932781,22.348628)"
       sodipodi:start="0"
       sodipodi:end="3.1415927"
       sodipodi:open="true" />
    <path
       sodipodi:type="arc"
       style="fill:none;stroke:#000000;stroke-width:0.75052762;stroke-miterlimit:4;stroke-opacity:1;stroke-dasharray:none"
       id="path3755-6-7"
       sodipodi:cx="55.604904"
       sodipodi:cy="85.845932"
       sodipodi:rx="22.599346"
       sodipodi:ry="8.3039465"
       d="m 78.20425,85.845932 a 22.599346,8.3039465 0 1 1 -45.198692,0"
       transform="matrix(1.5864025,0,0,0.87714264,-19.932781,21.284304)"
       sodipodi:start="0"
       sodipodi:end="3.1415927"
       sodipodi:open="true" />
    <path
       sodipodi:type="arc"
       style="fill:none;stroke:#000000;stroke-width:0.75052762;stroke-miterlimit:4;stroke-opacity:1;stroke-dasharray:none"
       id="path3755-6-9"
       sodipodi:cx="55.604904"
       sodipodi:cy="85.845932"
       sodipodi:rx="22.599346"
       sodipodi:ry="8.3039465"
       d="m 78.20425,85.845932 a 22.599346,8.3039465 0 1 1 -45.198692,0"
       transform="matrix(1.5864025,0,0,0.87714264,-19.932781,20.084065)"
       sodipodi:start="0"
       sodipodi:end="3.1415927"
       sodipodi:open="true" />
    <path
       sodipodi:type="arc"
       style="fill:none;stroke:#000000;stroke-width:0.75052762;stroke-miterlimit:4;stroke-opacity:1;stroke-dasharray:none"
       id="path3755-6-20"
       sodipodi:cx="55.604904"
       sodipodi:cy="85.845932"
       sodipodi:rx="22.599346"
       sodipodi:ry="8.3039465"
       d="m 78.20425,85.845932 a 22.599346,8.3039465 0 1 1 -45.198692,0"
       transform="matrix(1.5864025,0,0,0.87714264,-19.932781,18.951803)"
       sodipodi:start="0"
       sodipodi:end="3.1415927"
       sodipodi:open="true" />
    <g
       id="g4117"
       transform="translate(-1.2460177,-2.4089675)">
      <path
         sodipodi:nodetypes="sccccscccsss"
         inkscape:connector-curvature="0"
         id="path4084-5"
         d="m 131.625,111.28125 c -2.13579,0 -3.98497,1.18405 -4.9375,2.9375 -0.0173,0.0319 -0.0458,0.0615 -0.0625,0.0937 -0.70924,0.90814 -0.70516,1.43823 -0.70516,1.43823 L 126,116.90625 c 0,3.1066 2.5184,5.625 5.625,5.625 0.46485,0 0.91171,-0.0812 1.34375,-0.1875 l 1.46426,-0.30916 1.06699,-1.06584 0.0937,-0.0937 c 1.01792,-1.01793 1.65625,-2.41545 1.65625,-3.96875 0,-3.1066 -2.5184,-5.625 -5.625,-5.625 z"
         style="fill:#ffffff;fill-opacity:1;stroke:#000000;stroke-width:0.625;stroke-miterlimit:4;stroke-opacity:1;stroke-dasharray:none" />
      <path
         d="m 135.75,118.73718 c 0,3.1066 -2.5184,5.625 -5.625,5.625 -3.1066,0 -5.625,-2.5184 -5.625,-5.625 0,-3.1066 2.5184,-5.625 5.625,-5.625 3.1066,0 5.625,2.5184 5.625,5.625 z"
         sodipodi:ry="5.625"
         sodipodi:rx="5.625"
         sodipodi:cy="118.73718"
         sodipodi:cx="130.125"
         id="path4084"
         style="fill:#ffffff;fill-opacity:1;stroke:#000000;stroke-width:0.625;stroke-miterlimit:4;stroke-opacity:1;stroke-dasharray:none"
         sodipodi:type="arc" />
    </g>
    <path
       style="color:#000000;fill:none;stroke:#000000;stroke-width:0.875;stroke-linecap:butt;stroke-linejoin:miter;stroke-miterlimit:4;stroke-opacity:1;stroke-dasharray:none;stroke-dashoffset:0;marker:none;visibility:visible;display:inline;overflow:visible;enable-background:accumulate"
       d="m 68.053751,109.86526 62.189639,0"
       id="path4058"
       inkscape:connector-curvature="0"
       sodipodi:nodetypes="cc" />
    <path
       sodipodi:type="arc"
       style="fill:none;stroke:#000000;stroke-width:1.00320649;stroke-miterlimit:4;stroke-opacity:1;stroke-dasharray:none"
       id="path4084-2"
       sodipodi:cx="130.125"
       sodipodi:cy="118.73718"
       sodipodi:rx="5.625"
       sodipodi:ry="5.625"
       d="m 130.125,113.11218 a 5.625,5.625 0 0 1 5.625,5.625"
       transform="matrix(0.87220332,0,0,0.87220332,16.637017,11.203693)"
       sodipodi:start="4.712389"
       sodipodi:end="6.2831853"
       sodipodi:open="true" />
    <path
       style="color:#000000;fill:none;stroke:#000000;stroke-width:0.875;stroke-linecap:butt;stroke-linejoin:miter;stroke-miterlimit:4;stroke-opacity:1;stroke-dasharray:none;stroke-dashoffset:0;marker:none;visibility:visible;display:inline;overflow:visible;enable-background:accumulate"
       d="m 135.0132,114.78279 0,32.74788"
       id="path4147"
       inkscape:connector-curvature="0" />
    <g
       id="g4232"
       transform="translate(0,14)">
      <path
         inkscape:connector-curvature="0"
         id="path4183"
         d="m 5.941856,118.74805 96.555164,0 40.10752,-56.447629"
         style="color:#000000;fill:none;stroke:#000000;stroke-width:0.5;stroke-linecap:butt;stroke-linejoin:miter;stroke-miterlimit:4;stroke-opacity:1;stroke-dasharray:none;stroke-dashoffset:0;marker:none;visibility:visible;display:inline;overflow:visible;enable-background:accumulate" />
      <path
         inkscape:connector-curvature="0"
         id="path4183-9"
         d="m 6.09721,125.94972 96.55516,0 40.10752,-56.447631"
         style="color:#000000;fill:none;stroke:#000000;stroke-width:0.5;stroke-linecap:butt;stroke-linejoin:miter;stroke-miterlimit:4;stroke-opacity:1;stroke-dasharray:none;stroke-dashoffset:0;marker:none;visibility:visible;display:inline;overflow:visible;enable-background:accumulate" />
      <path
         inkscape:connector-curvature="0"
         id="path4203"
         d="m 102.41877,118.29448 0,7.42165"
         style="color:#000000;fill:none;stroke:#000000;stroke-width:0.5;stroke-linecap:butt;stroke-linejoin:miter;stroke-miterlimit:4;stroke-opacity:1;stroke-dasharray:none;stroke-dashoffset:0;marker:none;visibility:visible;display:inline;overflow:visible;enable-background:accumulate" />
      <path
         inkscape:connector-curvature="0"
         id="path4205"
         d="m 89.483898,126.56432 0,40.07691"
         style="color:#000000;fill:none;stroke:#000000;stroke-width:0.5;stroke-linecap:butt;stroke-linejoin:miter;stroke-miterlimit:4;stroke-opacity:1;stroke-dasharray:none;stroke-dashoffset:0;marker:none;visibility:visible;display:inline;overflow:visible;enable-background:accumulate" />
      <path
         inkscape:connector-curvature="0"
         id="path4205-3"
         d="m 81.002012,126.88239 0,40.07691"
         style="color:#000000;fill:none;stroke:#000000;stroke-width:0.5;stroke-linecap:butt;stroke-linejoin:miter;stroke-miterlimit:4;stroke-opacity:1;stroke-dasharray:none;stroke-dashoffset:0;marker:none;visibility:visible;display:inline;overflow:visible;enable-background:accumulate" />
    </g>
    <path
       style="color:#000000;fill:none;stroke:#000000;stroke-width:0.5;stroke-linecap:butt;stroke-linejoin:miter;stroke-miterlimit:4;stroke-opacity:1;stroke-dasharray:none;stroke-dashoffset:0;marker:none;visibility:visible;display:inline;overflow:visible;enable-background:accumulate"
       d="m 62.200131,112.95084 c 0,0 0.145668,3.64169 -0.874007,4.07869 -1.019674,0.43701 -23.452508,7.57473 -23.452508,7.57473 0,0 1.31101,2.47635 1.893681,2.33068 0.582671,-0.14567 24.763518,-7.13772 29.279218,-8.44873 4.515701,-1.31101 21.121825,2.62202 21.121825,2.62202 l 8.448729,2.18502 1.31101,-2.33069 c 0,0 -7.13772,-0.72833 -10.779414,-2.76768 -3.641693,-2.03935 -8.594397,-4.80704 -8.594397,-4.80704"
       id="path4239"
       inkscape:connector-curvature="0" />
  </g>
</svg>
