<?xml version="1.0" encoding="iso-8859-1"?>
<!-- Generator: Adobe Illustrator 11 Build 196, SVG Export Plug-In . SVG Version: 6.0.0 Build 78)  -->
<!DOCTYPE svg PUBLIC "-//W3C//DTD SVG 1.0//EN"    "http://www.w3.org/TR/2001/REC-SVG-20010904/DTD/svg10.dtd" [
	<!ENTITY ns_flows "http://ns.adobe.com/Flows/1.0/">
	<!ENTITY ns_svg "http://www.w3.org/2000/svg">
	<!ENTITY ns_xlink "http://www.w3.org/1999/xlink">
]>
<svg  
	 width="145.146" height="77.53" viewBox="0 0 145.146 77.53" style="overflow:visible;enable-background:new 0 0 145.146 77.53"
	 xml:space="preserve">
	<style type="text/css">
	
	</style>
	<g id="Layer_1">
		
			<linearGradient id="XMLID_12_" gradientUnits="userSpaceOnUse" x1="-94.48" y1="-2.6499" x2="-94.48" y2="30.353" gradientTransform="matrix(-0.8863 0.1563 -0.1563 -0.8863 -30.4472 81.5135)">
			<stop  offset="0" style="stop-color:#FFFFFF"/>
			<stop  offset="1" style="stop-color:#000000"/>
			<midPointStop  offset="0" style="stop-color:#FFFFFF"/>
			<midPointStop  offset="0.5" style="stop-color:#FFFFFF"/>
			<midPointStop  offset="1" style="stop-color:#000000"/>
		</linearGradient>
		<polygon style="fill:url(#XMLID_12_);" points="0,48.282 5.157,77.53 102.208,60.418 97.051,31.17 "/>
		<g>
			<path d="M30.788,42.807c1.305-0.23,2.177-1.475,1.947-2.78L30.512,27.42c-0.23-1.306-1.475-2.177-2.781-1.947l-4.629,0.816
				c-1.305,0.23-2.177,1.475-1.947,2.78l2.223,12.606c0.23,1.306,1.475,2.177,2.781,1.947L30.788,42.807z"/>
			<path d="M70.918,35.73c1.306-0.23,2.177-1.475,1.947-2.78l-2.223-12.606c-0.23-1.305-1.475-2.177-2.78-1.947l-4.629,0.816
				c-1.306,0.23-2.177,1.475-1.947,2.781L63.509,34.6c0.23,1.306,1.475,2.177,2.781,1.947L70.918,35.73z"/>
			<path style="fill:#B4B4B4;" d="M68.042,7.754l-3.607,0.636c-0.023-0.248-0.049-0.496-0.093-0.745
				c-0.887-5.031-5.685-8.39-10.716-7.503l-22.65,3.994c-5.031,0.887-8.39,5.685-7.503,10.716c0.044,0.249,0.105,0.491,0.167,0.732
				l-3.607,0.636c-3.263,0.576-5.442,3.688-4.867,6.951l1.929,10.942c1.247,1.951,3.812,3.051,6.519,2.574l48.555-8.562
				c2.296-0.405,4.107-1.843,4.914-3.649l-2.09-11.854C74.417,9.358,71.305,7.179,68.042,7.754z M56.999,9.194l-26.097,4.602
				l-0.955-5.417l26.097-4.602L56.999,9.194z"/>
		</g>
		<line style="fill:#FFFFFF;stroke:#000000;stroke-width:0.5;" x1="100.304" y1="30.3" x2="132.92" y2="24.549"/>
		<g>
			<path style="fill:none;stroke:#000000;stroke-width:0.5;" d="M134.806,29.809c0-1.483-0.15-2.931-0.437-4.33"/>
			<path d="M134.013,23.75c0.468,0.752,1.19,1.656,1.864,2.17l-1.463-0.214l-1.262,0.771
				C133.569,25.741,133.878,24.625,134.013,23.75z"/>
			<path d="M134.806,31.574c-0.308-0.831-0.834-1.861-1.391-2.5l1.391,0.503l1.391-0.503
				C135.64,29.712,135.114,30.743,134.806,31.574z"/>
		</g>
		
			<line style="fill:none;stroke:#000000;stroke-width:0.5;stroke-dasharray:2;" x1="100.074" y1="30.854" x2="133.193" y2="30.854"/>
		<g>
			<text transform="matrix(1 0 0 1 139.4146 31.0425)"><tspan x="0" y="0" style="font-family:'Symbol'; font-size:11;">&#x3B8;</tspan></text>
		</g>
	</g>
</svg>
