<?xml version="1.0" encoding="iso-8859-1"?>
<!-- Generator: Adobe Illustrator 11 Build 196, SVG Export Plug-In . SVG Version: 6.0.0 Build 78)  -->
<!DOCTYPE svg PUBLIC "-//W3C//DTD SVG 1.0//EN"    "http://www.w3.org/TR/2001/REC-SVG-20010904/DTD/svg10.dtd" [
	<!ENTITY ns_flows "http://ns.adobe.com/Flows/1.0/">
	<!ENTITY ns_svg "http://www.w3.org/2000/svg">
	<!ENTITY ns_xlink "http://www.w3.org/1999/xlink">
]>
<svg  
	 width="147.402" height="150.747" viewBox="0 0 147.402 150.747"
	 style="overflow:visible;enable-background:new 0 0 147.402 150.747" xml:space="preserve">
	<g id="Layer_1">
		<path style="fill:#F3F3F3;" d="M117.517,131.988l-2.97-0.66l-0.04,0.013c0.001-0.004,0.001-0.009,0.002-0.013h0.038h2.64
			l1.65-2.31l1.98-11.22l-2.91-10.023l0.319-0.212l3.168-5.544l-1.584-7.524l-3.168-6.336l-1.369,1.289l2.049-5.562l-3.861-7.722
			l-2.574-6.435l-8.58-3.003l0.474,0.724l-2.934-1.369l-4.667-0.667l-15.552-0.247c-0.953-0.568-4.266-2.479-5.671-2.479
			c-1.65,0-24.09,3.3-24.09,3.3s-5.94,1.32-8.25,3.3s-17.16,32.01-21.78,45.87l0.642-0.438l-1.965,5.359c0,0,5,12.667,6,14
			c1,1.333,11.667,13,11.667,13l6.333,3.667l11.17-1.971l2.123-0.287l8.91-2.97l1.729-0.323c2.032,0.045,9.821,0.323,9.821,0.323
			l6.6-1.65l-0.063-0.216l7.825-1.712l6.099,0.938l4.29,0.66l11.88,0.99l6.93-0.99l1.65-7.92L117.517,131.988z M88.261,104.752
			l0.252-0.672l0.914-2.285l0.312,0.035l6.464-0.456l9.696,1.366l-4.942-0.834l5.021,0.644c-0.364,1.032-0.66,2.065-0.821,3.033
			c-0.366,2.199,0.372,3.967,1.268,5.24c-1.91-0.24-16.91-2.13-18.454-2.439l-0.4-1.43l0.906-1.035l1.32-3.96L88.261,104.752z
			 M106.606,111.075c0.175,0.231,0.352,0.44,0.528,0.633l-0.62,0.372L106.606,111.075z M105.253,133.911
			c0.057,0.135,0.118,0.264,0.18,0.393l-0.593,0.194L105.253,133.911z M116.573,109.016l0.04-0.378l0.709-0.473L116.573,109.016z"/>
		<g>
			<g>
				<line style="fill:none;stroke:#000000;stroke-width:0.5;" x1="46.124" y1="0.167" x2="46.124" y2="140.487"/>
				<line style="fill:none;stroke:#000000;stroke-width:0.5;" x1="55.479" y1="0.167" x2="55.479" y2="140.487"/>
				<line style="fill:none;stroke:#000000;stroke-width:0.5;" x1="64.833" y1="0.167" x2="64.833" y2="140.487"/>
				<line style="fill:none;stroke:#000000;stroke-width:0.5;" x1="74.188" y1="0.167" x2="74.188" y2="140.487"/>
				<line style="fill:none;stroke:#000000;stroke-width:0.5;" x1="83.542" y1="0.167" x2="83.542" y2="140.487"/>
				<line style="fill:none;stroke:#000000;stroke-width:0.5;" x1="92.896" y1="140.487" x2="92.896" y2="0.167"/>
				<line style="fill:none;stroke:#000000;stroke-width:0.5;" x1="102.251" y1="0.167" x2="102.251" y2="140.487"/>
				<line style="fill:none;stroke:#000000;stroke-width:0.5;" x1="111.605" y1="0.167" x2="111.605" y2="140.487"/>
				<line style="fill:none;stroke:#000000;stroke-width:0.5;" x1="120.96" y1="0.167" x2="120.96" y2="140.487"/>
			</g>
			<line style="fill:none;stroke:#000000;stroke-width:0.5;" x1="46.042" y1="0.25" x2="120.952" y2="0.25"/>
			<line style="fill:none;stroke:#000000;stroke-width:0.5;" x1="46.042" y1="9.604" x2="120.952" y2="9.604"/>
			<line style="fill:none;stroke:#000000;stroke-width:0.5;" x1="46.042" y1="18.958" x2="120.952" y2="18.958"/>
			<line style="fill:none;stroke:#000000;stroke-width:0.5;" x1="46.042" y1="28.313" x2="120.952" y2="28.313"/>
			<line style="fill:none;stroke:#000000;stroke-width:0.5;" x1="46.042" y1="37.667" x2="120.952" y2="37.667"/>
			<line style="fill:none;stroke:#000000;stroke-width:0.5;" x1="46.042" y1="47.022" x2="120.952" y2="47.022"/>
			<line style="fill:none;stroke:#000000;stroke-width:0.5;" x1="46.042" y1="56.376" x2="120.952" y2="56.376"/>
			<line style="fill:none;stroke:#000000;stroke-width:0.5;" x1="46.042" y1="65.73" x2="120.952" y2="65.73"/>
			<line style="fill:none;stroke:#000000;stroke-width:0.5;" x1="46.042" y1="75.085" x2="120.952" y2="75.085"/>
			<line style="fill:none;stroke:#000000;stroke-width:0.5;" x1="46.042" y1="84.439" x2="120.952" y2="84.439"/>
			<line style="fill:none;stroke:#000000;stroke-width:0.5;" x1="46.042" y1="93.794" x2="120.952" y2="93.794"/>
			<line style="fill:none;stroke:#000000;stroke-width:0.5;" x1="46.042" y1="103.148" x2="120.952" y2="103.148"/>
			<line style="fill:none;stroke:#000000;stroke-width:0.5;" x1="46.042" y1="112.502" x2="120.952" y2="112.502"/>
			<line style="fill:none;stroke:#000000;stroke-width:0.5;" x1="46.042" y1="121.857" x2="120.952" y2="121.857"/>
			<line style="fill:none;stroke:#000000;stroke-width:0.5;" x1="46.042" y1="131.211" x2="120.952" y2="131.211"/>
			<line style="fill:none;stroke:#000000;stroke-width:0.5;" x1="46.042" y1="140.565" x2="120.952" y2="140.565"/>
		</g>
		
			<radialGradient id="XMLID_6_" cx="93.6799" cy="15.4131" r="8.2403" fx="93.6799" fy="15.4131" gradientTransform="matrix(1.05 0 0 1.05 -4.6107 -0.8234)" gradientUnits="userSpaceOnUse">
			<stop  offset="0" style="stop-color:#EEEEEE"/>
			<stop  offset="1" style="stop-color:#CECECE"/>
			<midPointStop  offset="0" style="stop-color:#EEEEEE"/>
			<midPointStop  offset="0.5" style="stop-color:#EEEEEE"/>
			<midPointStop  offset="1" style="stop-color:#CECECE"/>
		</radialGradient>
		<path style="fill:url(#XMLID_6_);" d="M82.948,16.03c0.582-4.332,2.156-6.169,3.031-6.606s2.8-1.75,4.988-1.75
			s3.325-0.175,5.075,0.525c1.75,0.7,2.45,0.35,3.85,2.625c1.4,2.275,1.425,3.938,1.062,5.207c-0.362,1.269-0.887,3.631-2.025,5.469
			s-3.237,3.325-4.375,3.237c-1.138-0.087-3.85,0.35-5.25,0c-1.4-0.35-4.55-3.237-4.9-4.025
			C84.054,19.923,82.948,16.03,82.948,16.03z"/>
		<g>
			<path style="fill:#DFDFDF;stroke:#000000;stroke-width:0.5;" d="M83.989,32.085c3.235-3.688,5.407-3.371,5.407-3.371l3.792,0.896
				l0.7-2.217l-0.441-1.562l5.634-1.976l-0.689-0.886l2.2-1.042l-0.736-1.268l1.311-0.741l-0.546-1.657l1.259-0.627l-0.913-1.483
				l1.117-0.738l-2.102-3.299l0.143-0.222l0.553-0.099l-0.137-0.548l0.027-0.042l0.557-0.099l-0.138-0.552l0.024-0.038l0.561-0.1
				L101.43,9.86l0.021-0.033l0.564-0.101l-0.14-0.56l0.018-0.028l0.568-0.101l-0.141-0.563l0.016-0.024l0.572-0.102l-0.142-0.567
				l0.013-0.02l0.576-0.103l-0.143-0.571l0.01-0.015l0.579-0.103l-0.144-0.575l0.007-0.011l0.583-0.104l-0.145-0.578l0.004-0.007
				l0.587-0.104l-0.146-0.582l0.163-0.253l1.192,0.243c0,0,1.981,6.739,2.445,10.56s0.002,12.794-0.819,15.608
				c-0.822,2.813-15.667,22.646-21.178,28.355C80.84,65.23,69.484,77.078,65.566,84.726s-8.247,16.704-9.448,32.359
				s-2.115,17.705-2.115,17.705l-2.078,0.446c0,0-1.427-14.948,0.423-25.253c1.851-10.306,5.033-19.222,10.854-31.948
				c5.822-12.727,12.547-24.399,14.45-29.477C79.556,43.479,80.753,35.774,83.989,32.085z"/>
			<path style="fill:#E6E6E6;stroke:#000000;stroke-width:0.5;" d="M96.973,32.687c-2.573-4.178-4.767-4.227-4.767-4.227
				l-3.889,0.25l-0.319-2.303l0.658-2.214l-5.186-2.143l0.828-0.758l-1.995-1.396l0.937-1.127l-1.168-0.949l0.815-1.542
				l-1.137-0.829l1.148-1.31l-0.978-0.915l2.625-2.901l-0.104-0.242l-0.529-0.189l0.227-0.518l-0.02-0.046l-0.532-0.191l0.229-0.521
				l-0.018-0.041l-0.536-0.192l0.23-0.524l-0.015-0.036l-0.54-0.193L83.171,7.1l-0.014-0.031l-0.543-0.195l0.233-0.532l-0.011-0.026
				l-0.547-0.196l0.235-0.535l-0.009-0.021l-0.55-0.197l0.236-0.539L82.194,4.81L81.64,4.611l0.238-0.542l-0.005-0.012l-0.558-0.2
				l0.239-0.546l-0.003-0.007L80.99,3.103l0.241-0.549l-0.118-0.277l-1.217,0.04c0,0-3.08,6.312-4.176,10.002
				s-2.142,12.614-1.802,15.526c0.34,2.912,11.661,24.946,16.139,31.497c4.479,6.55,13.694,20.13,16.278,28.326
				c2.584,8.196,5.338,17.848,3.905,33.484c-1.434,15.635-0.875,17.809-0.875,17.809l1.975,0.787c0,0,3.906-14.499,3.805-24.969
				c-0.102-10.47-1.749-19.793-5.36-33.314c-3.612-13.521-8.291-26.154-9.319-31.478C99.438,44.662,99.547,36.864,96.973,32.687z"/>
			<circle style="fill:#D6D6D6;" cx="92.229" cy="40.279" r="3.285"/> 
			
				<radialGradient id="XMLID_7_" cx="103.1799" cy="38.9966" r="6.6039" fx="103.1799" fy="38.9966" gradientTransform="matrix(0.7237 0.055 -0.055 0.7237 15.2164 4.8355)" gradientUnits="userSpaceOnUse">
				<stop  offset="0" style="stop-color:#FFFFFF"/>
				<stop  offset="0.1281" style="stop-color:#F8F8F8"/>
				<stop  offset="0.4678" style="stop-color:#EAEAEA"/>
				<stop  offset="0.7694" style="stop-color:#E1E1E1"/>
				<stop  offset="1" style="stop-color:#DEDEDE"/>
				<midPointStop  offset="0" style="stop-color:#FFFFFF"/>
				<midPointStop  offset="0.35" style="stop-color:#FFFFFF"/>
				<midPointStop  offset="1" style="stop-color:#DEDEDE"/>
			</radialGradient>
			<circle style="fill:url(#XMLID_7_);" cx="86.729" cy="39.606" r="4.27"/> 
			
				<linearGradient id="XMLID_8_" gradientUnits="userSpaceOnUse" x1="129.3162" y1="20.9653" x2="121.8161" y2="20.5487" gradientTransform="matrix(0.7237 0.055 -0.055 0.7237 15.2164 4.8355)">
				<stop  offset="0" style="stop-color:#DFDFDF"/>
				<stop  offset="0.26" style="stop-color:#F8F8F8"/>
				<stop  offset="0.3285" style="stop-color:#F4F4F4"/>
				<stop  offset="0.5331" style="stop-color:#E9E9E9"/>
				<stop  offset="0.735" style="stop-color:#E2E2E2"/>
				<stop  offset="0.93" style="stop-color:#DFDFDF"/>
				<midPointStop  offset="0" style="stop-color:#DFDFDF"/>
				<midPointStop  offset="0.5" style="stop-color:#DFDFDF"/>
				<midPointStop  offset="0.26" style="stop-color:#F8F8F8"/>
				<midPointStop  offset="0.3" style="stop-color:#F8F8F8"/>
				<midPointStop  offset="0.93" style="stop-color:#DFDFDF"/>
			</linearGradient>
			<path style="fill:url(#XMLID_8_);stroke:#808080;stroke-width:0.5;" d="M99.08,23.855l7.281,2.047c0,0,1.554,0.3,1.84-1.073
				l-0.201,3.442c0,0-0.393,1.183-0.815,1.151c-0.422-0.032-12.375-3.973-12.375-3.973"/>
			
				<linearGradient id="XMLID_9_" gradientUnits="userSpaceOnUse" x1="131.696" y1="20.7759" x2="127.4738" y2="20.5413" gradientTransform="matrix(0.7237 0.055 -0.055 0.7237 15.2164 4.8355)">
				<stop  offset="0" style="stop-color:#DFDFDF"/>
				<stop  offset="0.26" style="stop-color:#F8F8F8"/>
				<stop  offset="0.3285" style="stop-color:#F4F4F4"/>
				<stop  offset="0.5331" style="stop-color:#E9E9E9"/>
				<stop  offset="0.735" style="stop-color:#E2E2E2"/>
				<stop  offset="0.93" style="stop-color:#DFDFDF"/>
				<midPointStop  offset="0" style="stop-color:#DFDFDF"/>
				<midPointStop  offset="0.5" style="stop-color:#DFDFDF"/>
				<midPointStop  offset="0.26" style="stop-color:#F8F8F8"/>
				<midPointStop  offset="0.3" style="stop-color:#F8F8F8"/>
				<midPointStop  offset="0.93" style="stop-color:#DFDFDF"/>
			</linearGradient>
			<line style="fill:url(#XMLID_9_);stroke:#000000;stroke-width:0.5;" x1="108.368" y1="24.235" x2="107.821" y2="29.653"/>
			
				<linearGradient id="XMLID_10_" gradientUnits="userSpaceOnUse" x1="118.6936" y1="19.2529" x2="107.4547" y2="18.6286" gradientTransform="matrix(0.7237 0.055 -0.055 0.7237 15.2164 4.8355)">
				<stop  offset="0" style="stop-color:#DFDFDF"/>
				<stop  offset="0.26" style="stop-color:#F8F8F8"/>
				<stop  offset="0.3285" style="stop-color:#F4F4F4"/>
				<stop  offset="0.5331" style="stop-color:#E9E9E9"/>
				<stop  offset="0.735" style="stop-color:#E2E2E2"/>
				<stop  offset="0.93" style="stop-color:#DFDFDF"/>
				<midPointStop  offset="0" style="stop-color:#DFDFDF"/>
				<midPointStop  offset="0.5" style="stop-color:#DFDFDF"/>
				<midPointStop  offset="0.26" style="stop-color:#F8F8F8"/>
				<midPointStop  offset="0.3" style="stop-color:#F8F8F8"/>
				<midPointStop  offset="0.93" style="stop-color:#DFDFDF"/>
			</linearGradient>
			<line style="fill:url(#XMLID_10_);stroke:#000000;stroke-width:0.5;" x1="93.447" y1="25.832" x2="99.033" y2="23.754"/>
		</g>
		<path style="fill:none;stroke:#B4B4B4;" d="M20.385,114.761c4.62-13.86,19.47-43.891,21.78-45.871s8.25-3.3,8.25-3.3
			s22.44-3.3,24.09-3.3s5.94,2.64,5.94,2.64l3.63,2.64l2.64,1.32l6.93-0.33l0.66,4.29l-0.33,1.65l-4.62-0.99l-1.65-4.62"/>
		<path style="fill:none;stroke:#B4B4B4;" d="M93.96,68.224c2.682,1.609,7.508,8.044,2.145,11.261
			c-5.362,3.218-9.652,3.218-9.652,3.218l-3.218-0.537l-12.87-4.826l-3.217-3.754"/>
		<polyline style="fill:none;stroke:#B4B4B4;" points="71.865,78.025 69.555,79.345 65.595,80.335 60.315,82.315 55.943,81.889 
			52.065,80.996 "/>
		<path style="fill:none;stroke:#B4B4B4;" d="M67.574,78.46l-2.64,7.26l-3.3,4.95l-1.32,7.92c0,0-3.63,10.23-9.57,13.86"/>
		<polyline style="fill:none;stroke:#B4B4B4;" points="44.144,149.741 56.355,148.091 65.264,145.121 67.244,141.821 "/>
		<line style="fill:none;stroke:#B4B4B4;" x1="82.094" y1="64.93" x2="93.315" y2="65.26"/>
		<polyline style="fill:none;stroke:#B4B4B4;" points="105.18,67.08 111.435,69.33 114.009,75.765 117.87,83.487 114.867,91.638 
			110.577,93.354 105.858,91.209 105.858,86.49 107.573,81.771 110.148,77.481 "/>
		<path style="fill:none;stroke:#B4B4B4;" d="M117.19,87.761l3.168,6.336l1.584,7.524l-3.168,5.544l-5.94,3.96l-3.564,1.584
			c0,0-4.356-2.772-3.564-7.524c0.792-4.752,4.752-11.088,4.752-11.088"/>
		<path style="fill:none;stroke:#B4B4B4;" d="M112.372,102.983c1.65,1.65,1.98,5.28,0.33,6.93"/>
		<path style="fill:none;stroke:#B4B4B4;" d="M111.135,115.42c0,0-3.96,4.62-2.97,6.6c0.99,1.98,3.3,8.91,3.3,8.91h6.27l1.65-2.31
			l1.98-11.22l-2.97-10.23"/>
		<polyline style="fill:none;stroke:#B4B4B4;" points="82.755,141.491 88.695,141.161 97.275,142.48 101.565,143.141 
			113.445,144.131 120.375,143.141 122.025,135.221 118.065,131.591 115.095,130.931 "/>
		<polyline style="fill:none;stroke:#B4B4B4;" points="103.215,80.483 98.367,80.939 92.307,84.126 86.651,85.948 86.366,88.723 "/>
		<polyline style="fill:none;stroke:#B4B4B4;" points="85.705,98.841 86.247,100.977 90.287,101.432 96.751,100.977 
			106.447,102.343 "/>
		<polyline style="fill:none;stroke:#B4B4B4;" points="103.875,87.7 100.245,87.371 93.975,87.041 87.705,87.041 "/>
		<path style="fill:none;stroke:#B4B4B4;" d="M107.175,110.45c0,0-17.005-2.134-18.655-2.464"/>
		<polyline style="fill:none;stroke:#B4B4B4;" points="108.495,128.291 94.965,126.311 84.074,125.65 "/>
		<path style="fill:none;stroke:#B4B4B4;" d="M112.125,91.331c0.33-2.64-1.65-5.61-1.65-5.61l1.65-2.31c0,0,2.31,2.31,2.31,4.29"/>
		<path style="fill:none;stroke:#B4B4B4;" d="M66.585,144.791c0.99,0,10.23,0.33,10.23,0.33l6.6-1.65l-1.65-5.61l2.97-8.58
			l-1.98-9.57l1.32-5.94l2.64-5.61l2.31-2.64l1.32-3.96"/>
		<rect y="93.246" style="fill:none;" width="147.402" height="2.835"/> 
	</g>
</svg>
