<?xml version="1.0" encoding="iso-8859-1"?>
<!-- Generator: Adobe Illustrator 11 Build 196, SVG Export Plug-In . SVG Version: 6.0.0 Build 78)  -->
<!DOCTYPE svg PUBLIC "-//W3C//DTD SVG 1.0//EN"    "http://www.w3.org/TR/2001/REC-SVG-20010904/DTD/svg10.dtd" [
	<!ENTITY ns_flows "http://ns.adobe.com/Flows/1.0/">
	<!ENTITY ns_svg "http://www.w3.org/2000/svg">
	<!ENTITY ns_xlink "http://www.w3.org/1999/xlink">
]>
<svg
	 width="100.396" height="143.667" viewBox="0 0 100.396 143.667"
	 style="overflow:visible;enable-background:new 0 0 100.396 143.667" xml:space="preserve">
	<style type="text/css">
	
	</style>
	<g id="Layer_1">
		<polygon style="fill:none;stroke:#000000;" points="7.5,0.5 7.5,135.167 76.833,135.167 76.833,1.833 83.167,1.833 
			83.167,143.167 0.5,143.167 0.5,0.5 "/>
		<rect x="10.333" y="7.667" style="fill:#B4B4B4;" width="63" height="85.5"/> 
		<g>
			<text transform="matrix(1 0 0 1 47.8335 119.4167)"><tspan x="0" y="0" style="font-family:Liberation Sans; font-size:8.500000;">air</tspan></text>
		</g>
		<g>
			<text transform="matrix(1 0 0 1 21.4585 117.9998)"><tspan x="0" y="0" style="font-family:Liberation Sans; font-size:8.500000;">x</tspan></text>
		</g>
		<g>
			<line style="fill:none;stroke:#000000;stroke-width:0.5;" x1="16.396" y1="131.5" x2="16.396" y2="97.5"/>
			<path d="M16.396,94.482c0.527,1.42,1.426,3.182,2.377,4.273l-2.377-0.86l-2.377,0.86C14.97,97.664,15.869,95.902,16.396,94.482z"
				/>
			<path d="M16.396,134.518c-0.527-1.42-1.426-3.181-2.378-4.273l2.378,0.86l2.377-0.86
				C17.822,131.336,16.923,133.098,16.396,134.518z"/>
		</g>
		<line style="fill:none;" x1="100.396" y1="143.5" x2="100.396" y2="18.167"/>
	</g>
</svg>
