<?xml version="1.0" encoding="iso-8859-1"?>
<!-- Generator: Adobe Illustrator 11 Build 196, SVG Export Plug-In . SVG Version: 6.0.0 Build 78)  -->
<!DOCTYPE svg PUBLIC "-//W3C//DTD SVG 1.0//EN"    "http://www.w3.org/TR/2001/REC-SVG-20010904/DTD/svg10.dtd" [
	<!ENTITY ns_flows "http://ns.adobe.com/Flows/1.0/">
	<!ENTITY ns_svg "http://www.w3.org/2000/svg">
	<!ENTITY ns_xlink "http://www.w3.org/1999/xlink">
]>
<svg  
	 width="320.315" height="193.017" viewBox="0 0 320.315 193.017"
	 style="overflow:visible;enable-background:new 0 0 320.315 193.017" xml:space="preserve">
	<style type="text/css">
	
	</style>
	<g id="Layer_1">
		<g>
			<rect x="89" y="6" style="fill:#FFFFFF;" width="173" height="153"/> 
			
				<line style="fill:none;stroke:#000000;stroke-width:0.5;stroke-linecap:square;stroke-miterlimit:1;" x1="107.25" y1="159.25" x2="107.25" y2="6.25"/>
			
				<line style="fill:none;stroke:#000000;stroke-width:0.5;stroke-linecap:square;stroke-miterlimit:1;" x1="153.25" y1="159.25" x2="153.25" y2="6.25"/>
			
				<line style="fill:none;stroke:#000000;stroke-width:0.5;stroke-linecap:square;stroke-miterlimit:1;" x1="198.25" y1="159.25" x2="198.25" y2="6.25"/>
			
				<line style="fill:none;stroke:#000000;stroke-width:0.5;stroke-linecap:square;stroke-miterlimit:1;" x1="244.25" y1="159.25" x2="244.25" y2="6.25"/>
			
				<line style="fill:none;stroke:#000000;stroke-width:0.5;stroke-linecap:square;stroke-miterlimit:1;" x1="89.25" y1="159.25" x2="89.25" y2="6.25"/>
			
				<line style="fill:none;stroke:#000000;stroke-width:0.5;stroke-linecap:square;stroke-miterlimit:1;" x1="98.25" y1="159.25" x2="98.25" y2="6.25"/>
			
				<line style="fill:none;stroke:#000000;stroke-width:0.5;stroke-linecap:square;stroke-miterlimit:1;" x1="116.25" y1="159.25" x2="116.25" y2="6.25"/>
			
				<line style="fill:none;stroke:#000000;stroke-width:0.5;stroke-linecap:square;stroke-miterlimit:1;" x1="126.25" y1="159.25" x2="126.25" y2="6.25"/>
			
				<line style="fill:none;stroke:#000000;stroke-width:0.5;stroke-linecap:square;stroke-miterlimit:1;" x1="135.25" y1="159.25" x2="135.25" y2="6.25"/>
			
				<line style="fill:none;stroke:#000000;stroke-width:0.5;stroke-linecap:square;stroke-miterlimit:1;" x1="144.25" y1="159.25" x2="144.25" y2="6.25"/>
			
				<line style="fill:none;stroke:#000000;stroke-width:0.5;stroke-linecap:square;stroke-miterlimit:1;" x1="162.25" y1="159.25" x2="162.25" y2="6.25"/>
			
				<line style="fill:none;stroke:#000000;stroke-width:0.5;stroke-linecap:square;stroke-miterlimit:1;" x1="171.25" y1="159.25" x2="171.25" y2="6.25"/>
			
				<line style="fill:none;stroke:#000000;stroke-width:0.5;stroke-linecap:square;stroke-miterlimit:1;" x1="180.25" y1="159.25" x2="180.25" y2="6.25"/>
			
				<line style="fill:none;stroke:#000000;stroke-width:0.5;stroke-linecap:square;stroke-miterlimit:1;" x1="189.25" y1="159.25" x2="189.25" y2="6.25"/>
			
				<line style="fill:none;stroke:#000000;stroke-width:0.5;stroke-linecap:square;stroke-miterlimit:1;" x1="207.25" y1="159.25" x2="207.25" y2="6.25"/>
			
				<line style="fill:none;stroke:#000000;stroke-width:0.5;stroke-linecap:square;stroke-miterlimit:1;" x1="217.25" y1="159.25" x2="217.25" y2="6.25"/>
			
				<line style="fill:none;stroke:#000000;stroke-width:0.5;stroke-linecap:square;stroke-miterlimit:1;" x1="226.25" y1="159.25" x2="226.25" y2="6.25"/>
			
				<line style="fill:none;stroke:#000000;stroke-width:0.5;stroke-linecap:square;stroke-miterlimit:1;" x1="235.25" y1="159.25" x2="235.25" y2="6.25"/>
			
				<line style="fill:none;stroke:#000000;stroke-width:0.5;stroke-linecap:square;stroke-miterlimit:1;" x1="253.25" y1="159.25" x2="253.25" y2="6.25"/>
			
				<line style="fill:none;stroke:#000000;stroke-width:0.5;stroke-linecap:square;stroke-miterlimit:1;" x1="262.25" y1="159.25" x2="262.25" y2="6.25"/>
			
				<line style="fill:none;stroke:#000000;stroke-width:0.5;stroke-linecap:square;stroke-miterlimit:1;" x1="89.25" y1="159.25" x2="262.25" y2="159.25"/>
			
				<line style="fill:none;stroke:#000000;stroke-width:0.5;stroke-linecap:square;stroke-miterlimit:1;" x1="89.25" y1="129.25" x2="262.25" y2="129.25"/>
			
				<line style="fill:none;stroke:#000000;stroke-width:0.5;stroke-linecap:square;stroke-miterlimit:1;" x1="89.25" y1="98.25" x2="262.25" y2="98.25"/>
			
				<line style="fill:none;stroke:#000000;stroke-width:0.5;stroke-linecap:square;stroke-miterlimit:1;" x1="89.25" y1="67.25" x2="262.25" y2="67.25"/>
			
				<line style="fill:none;stroke:#000000;stroke-width:0.5;stroke-linecap:square;stroke-miterlimit:1;" x1="89.25" y1="36.25" x2="262.25" y2="36.25"/>
			
				<line style="fill:none;stroke:#000000;stroke-width:0.5;stroke-linecap:square;stroke-miterlimit:1;" x1="89.25" y1="6.25" x2="262.25" y2="6.25"/>
			
				<line style="fill:none;stroke:#000000;stroke-width:0.5;stroke-linecap:square;stroke-miterlimit:1;" x1="89.25" y1="144.25" x2="262.25" y2="144.25"/>
			
				<line style="fill:none;stroke:#000000;stroke-width:0.5;stroke-linecap:square;stroke-miterlimit:1;" x1="89.25" y1="113.25" x2="262.25" y2="113.25"/>
			
				<line style="fill:none;stroke:#000000;stroke-width:0.5;stroke-linecap:square;stroke-miterlimit:1;" x1="89.25" y1="82.25" x2="262.25" y2="82.25"/>
			
				<line style="fill:none;stroke:#000000;stroke-width:0.5;stroke-linecap:square;stroke-miterlimit:1;" x1="89.25" y1="52.25" x2="262.25" y2="52.25"/>
			
				<line style="fill:none;stroke:#000000;stroke-width:0.5;stroke-linecap:square;stroke-miterlimit:1;" x1="89.25" y1="21.25" x2="262.25" y2="21.25"/>
			<rect x="89.5" y="6.5" style="fill:none;stroke:#000000;stroke-miterlimit:1;" width="173" height="153"/> 
			<line style="fill:none;stroke:#000000;stroke-linecap:square;stroke-miterlimit:1;" x1="84.5" y1="159.5" x2="88.5" y2="159.5"/>
			<line style="fill:none;stroke:#000000;stroke-linecap:square;stroke-miterlimit:1;" x1="84.5" y1="129.5" x2="88.5" y2="129.5"/>
			<line style="fill:none;stroke:#000000;stroke-linecap:square;stroke-miterlimit:1;" x1="84.5" y1="98.5" x2="88.5" y2="98.5"/>
			<line style="fill:none;stroke:#000000;stroke-linecap:square;stroke-miterlimit:1;" x1="84.5" y1="67.5" x2="88.5" y2="67.5"/>
			<line style="fill:none;stroke:#000000;stroke-linecap:square;stroke-miterlimit:1;" x1="84.5" y1="36.5" x2="88.5" y2="36.5"/>
			<line style="fill:none;stroke:#000000;stroke-linecap:square;stroke-miterlimit:1;" x1="84.5" y1="6.5" x2="88.5" y2="6.5"/>
			<line style="fill:none;stroke:#000000;stroke-linecap:square;stroke-miterlimit:1;" x1="89.5" y1="159.5" x2="89.5" y2="6.5"/>
			
				<line style="fill:none;stroke:#000000;stroke-linecap:square;stroke-miterlimit:1;" x1="107.5" y1="160.5" x2="107.5" y2="164.5"/>
			
				<line style="fill:none;stroke:#000000;stroke-linecap:square;stroke-miterlimit:1;" x1="153.5" y1="160.5" x2="153.5" y2="164.5"/>
			
				<line style="fill:none;stroke:#000000;stroke-linecap:square;stroke-miterlimit:1;" x1="198.5" y1="160.5" x2="198.5" y2="164.5"/>
			
				<line style="fill:none;stroke:#000000;stroke-linecap:square;stroke-miterlimit:1;" x1="244.5" y1="160.5" x2="244.5" y2="164.5"/>
			
				<line style="fill:none;stroke:#000000;stroke-linecap:square;stroke-miterlimit:1;" x1="89.5" y1="159.5" x2="262.5" y2="159.5"/>
			
				<line style="fill:none;stroke:#000000;stroke-width:2;stroke-linecap:square;stroke-miterlimit:1;" x1="107" y1="159" x2="108" y2="157"/>
			
				<line style="fill:none;stroke:#000000;stroke-width:2;stroke-linecap:square;stroke-miterlimit:1;" x1="108" y1="157" x2="110" y2="154"/>
			
				<line style="fill:none;stroke:#000000;stroke-width:2;stroke-linecap:square;stroke-miterlimit:1;" x1="110" y1="154" x2="111" y2="152"/>
			
				<line style="fill:none;stroke:#000000;stroke-width:2;stroke-linecap:square;stroke-miterlimit:1;" x1="111" y1="152" x2="112" y2="151"/>
			
				<line style="fill:none;stroke:#000000;stroke-width:2;stroke-linecap:square;stroke-miterlimit:1;" x1="112" y1="151" x2="113" y2="149"/>
			
				<line style="fill:none;stroke:#000000;stroke-width:2;stroke-linecap:square;stroke-miterlimit:1;" x1="113" y1="149" x2="114" y2="147"/>
			
				<line style="fill:none;stroke:#000000;stroke-width:2;stroke-linecap:square;stroke-miterlimit:1;" x1="114" y1="147" x2="115" y2="146"/>
			
				<line style="fill:none;stroke:#000000;stroke-width:2;stroke-linecap:square;stroke-miterlimit:1;" x1="115" y1="146" x2="116" y2="144"/>
			
				<line style="fill:none;stroke:#000000;stroke-width:2;stroke-linecap:square;stroke-miterlimit:1;" x1="116" y1="144" x2="117" y2="143"/>
			
				<line style="fill:none;stroke:#000000;stroke-width:2;stroke-linecap:square;stroke-miterlimit:1;" x1="117" y1="143" x2="118" y2="141"/>
			
				<line style="fill:none;stroke:#000000;stroke-width:2;stroke-linecap:square;stroke-miterlimit:1;" x1="118" y1="141" x2="119" y2="140"/>
			
				<line style="fill:none;stroke:#000000;stroke-width:2;stroke-linecap:square;stroke-miterlimit:1;" x1="119" y1="140" x2="120" y2="138"/>
			
				<line style="fill:none;stroke:#000000;stroke-width:2;stroke-linecap:square;stroke-miterlimit:1;" x1="120" y1="138" x2="121" y2="137"/>
			
				<line style="fill:none;stroke:#000000;stroke-width:2;stroke-linecap:square;stroke-miterlimit:1;" x1="121" y1="137" x2="122" y2="135"/>
			
				<line style="fill:none;stroke:#000000;stroke-width:2;stroke-linecap:square;stroke-miterlimit:1;" x1="122" y1="135" x2="123" y2="133"/>
			
				<line style="fill:none;stroke:#000000;stroke-width:2;stroke-linecap:square;stroke-miterlimit:1;" x1="123" y1="133" x2="124" y2="131"/>
			
				<line style="fill:none;stroke:#000000;stroke-width:2;stroke-linecap:square;stroke-miterlimit:1;" x1="124" y1="131" x2="125" y2="129"/>
			
				<line style="fill:none;stroke:#000000;stroke-width:2;stroke-linecap:square;stroke-miterlimit:1;" x1="125" y1="129" x2="127" y2="126"/>
			
				<line style="fill:none;stroke:#000000;stroke-width:2;stroke-linecap:square;stroke-miterlimit:1;" x1="127" y1="126" x2="128" y2="123"/>
			
				<line style="fill:none;stroke:#000000;stroke-width:2;stroke-linecap:square;stroke-miterlimit:1;" x1="128" y1="123" x2="129" y2="120"/>
			
				<line style="fill:none;stroke:#000000;stroke-width:2;stroke-linecap:square;stroke-miterlimit:1;" x1="129" y1="120" x2="130" y2="117"/>
			
				<line style="fill:none;stroke:#000000;stroke-width:2;stroke-linecap:square;stroke-miterlimit:1;" x1="130" y1="117" x2="131" y2="113"/>
			
				<line style="fill:none;stroke:#000000;stroke-width:2;stroke-linecap:square;stroke-miterlimit:1;" x1="131" y1="113" x2="132" y2="110"/>
			
				<line style="fill:none;stroke:#000000;stroke-width:2;stroke-linecap:square;stroke-miterlimit:1;" x1="132" y1="110" x2="133" y2="106"/>
			
				<line style="fill:none;stroke:#000000;stroke-width:2;stroke-linecap:square;stroke-miterlimit:1;" x1="133" y1="106" x2="134" y2="102"/>
			
				<line style="fill:none;stroke:#000000;stroke-width:2;stroke-linecap:square;stroke-miterlimit:1;" x1="134" y1="102" x2="135" y2="98"/>
			
				<line style="fill:none;stroke:#000000;stroke-width:2;stroke-linecap:square;stroke-miterlimit:1;" x1="135" y1="98" x2="136" y2="94"/>
			
				<line style="fill:none;stroke:#000000;stroke-width:2;stroke-linecap:square;stroke-miterlimit:1;" x1="136" y1="94" x2="137" y2="90"/>
			
				<line style="fill:none;stroke:#000000;stroke-width:2;stroke-linecap:square;stroke-miterlimit:1;" x1="137" y1="90" x2="138" y2="86"/>
			
				<line style="fill:none;stroke:#000000;stroke-width:2;stroke-linecap:square;stroke-miterlimit:1;" x1="138" y1="86" x2="139" y2="83"/>
			
				<line style="fill:none;stroke:#000000;stroke-width:2;stroke-linecap:square;stroke-miterlimit:1;" x1="139" y1="83" x2="140" y2="79"/>
			
				<line style="fill:none;stroke:#000000;stroke-width:2;stroke-linecap:square;stroke-miterlimit:1;" x1="140" y1="79" x2="141" y2="76"/>
			
				<line style="fill:none;stroke:#000000;stroke-width:2;stroke-linecap:square;stroke-miterlimit:1;" x1="141" y1="76" x2="142" y2="73"/>
			
				<line style="fill:none;stroke:#000000;stroke-width:2;stroke-linecap:square;stroke-miterlimit:1;" x1="142" y1="73" x2="143" y2="70"/>
			
				<line style="fill:none;stroke:#000000;stroke-width:2;stroke-linecap:square;stroke-miterlimit:1;" x1="143" y1="70" x2="144" y2="67"/>
			
				<line style="fill:none;stroke:#000000;stroke-width:2;stroke-linecap:square;stroke-miterlimit:1;" x1="144" y1="67" x2="145" y2="65"/>
			
				<line style="fill:none;stroke:#000000;stroke-width:2;stroke-linecap:square;stroke-miterlimit:1;" x1="145" y1="65" x2="146" y2="63"/>
			
				<line style="fill:none;stroke:#000000;stroke-width:2;stroke-linecap:square;stroke-miterlimit:1;" x1="146" y1="63" x2="147" y2="61"/>
			
				<line style="fill:none;stroke:#000000;stroke-width:2;stroke-linecap:square;stroke-miterlimit:1;" x1="147" y1="61" x2="148" y2="59"/>
			
				<line style="fill:none;stroke:#000000;stroke-width:2;stroke-linecap:square;stroke-miterlimit:1;" x1="148" y1="59" x2="149" y2="58"/>
			
				<line style="fill:none;stroke:#000000;stroke-width:2;stroke-linecap:square;stroke-miterlimit:1;" x1="149" y1="58" x2="150" y2="56"/>
			
				<line style="fill:none;stroke:#000000;stroke-width:2;stroke-linecap:square;stroke-miterlimit:1;" x1="150" y1="56" x2="151" y2="55"/>
			
				<line style="fill:none;stroke:#000000;stroke-width:2;stroke-linecap:square;stroke-miterlimit:1;" x1="151" y1="55" x2="152" y2="53"/>
			
				<line style="fill:none;stroke:#000000;stroke-width:2;stroke-linecap:square;stroke-miterlimit:1;" x1="152" y1="53" x2="153" y2="52"/>
			
				<line style="fill:none;stroke:#000000;stroke-width:2;stroke-linecap:square;stroke-miterlimit:1;" x1="153" y1="52" x2="154" y2="50"/>
			
				<line style="fill:none;stroke:#000000;stroke-width:2;stroke-linecap:square;stroke-miterlimit:1;" x1="154" y1="50" x2="155" y2="48"/>
			
				<line style="fill:none;stroke:#000000;stroke-width:2;stroke-linecap:square;stroke-miterlimit:1;" x1="155" y1="48" x2="156" y2="46"/>
			
				<line style="fill:none;stroke:#000000;stroke-width:2;stroke-linecap:square;stroke-miterlimit:1;" x1="156" y1="46" x2="157" y2="44"/>
			
				<line style="fill:none;stroke:#000000;stroke-width:2;stroke-linecap:square;stroke-miterlimit:1;" x1="157" y1="44" x2="158" y2="43"/>
			
				<line style="fill:none;stroke:#000000;stroke-width:2;stroke-linecap:square;stroke-miterlimit:1;" x1="158" y1="43" x2="159" y2="41"/>
			
				<line style="fill:none;stroke:#000000;stroke-width:2;stroke-linecap:square;stroke-miterlimit:1;" x1="159" y1="41" x2="160" y2="39"/>
			
				<line style="fill:none;stroke:#000000;stroke-width:2;stroke-linecap:square;stroke-miterlimit:1;" x1="160" y1="39" x2="161" y2="38"/>
			
				<line style="fill:none;stroke:#000000;stroke-width:2;stroke-linecap:square;stroke-miterlimit:1;" x1="161" y1="38" x2="162" y2="36"/>
			
				<line style="fill:none;stroke:#000000;stroke-width:2;stroke-linecap:square;stroke-miterlimit:1;" x1="162" y1="36" x2="163" y2="35"/>
			
				<line style="fill:none;stroke:#000000;stroke-width:2;stroke-linecap:square;stroke-miterlimit:1;" x1="163" y1="35" x2="167" y2="34"/>
			
				<line style="fill:none;stroke:#000000;stroke-width:2;stroke-linecap:square;stroke-miterlimit:1;" x1="167" y1="34" x2="170" y2="35"/>
			
				<line style="fill:none;stroke:#000000;stroke-width:2;stroke-linecap:square;stroke-miterlimit:1;" x1="170" y1="35" x2="171" y2="36"/>
			
				<line style="fill:none;stroke:#000000;stroke-width:2;stroke-linecap:square;stroke-miterlimit:1;" x1="171" y1="36" x2="172" y2="38"/>
			
				<line style="fill:none;stroke:#000000;stroke-width:2;stroke-linecap:square;stroke-miterlimit:1;" x1="172" y1="38" x2="173" y2="39"/>
			
				<line style="fill:none;stroke:#000000;stroke-width:2;stroke-linecap:square;stroke-miterlimit:1;" x1="173" y1="39" x2="174" y2="41"/>
			
				<line style="fill:none;stroke:#000000;stroke-width:2;stroke-linecap:square;stroke-miterlimit:1;" x1="174" y1="41" x2="175" y2="42"/>
			
				<line style="fill:none;stroke:#000000;stroke-width:2;stroke-linecap:square;stroke-miterlimit:1;" x1="175" y1="42" x2="176" y2="44"/>
			
				<line style="fill:none;stroke:#000000;stroke-width:2;stroke-linecap:square;stroke-miterlimit:1;" x1="176" y1="44" x2="177" y2="46"/>
			
				<line style="fill:none;stroke:#000000;stroke-width:2;stroke-linecap:square;stroke-miterlimit:1;" x1="177" y1="46" x2="178" y2="48"/>
			
				<line style="fill:none;stroke:#000000;stroke-width:2;stroke-linecap:square;stroke-miterlimit:1;" x1="178" y1="48" x2="179" y2="50"/>
			
				<line style="fill:none;stroke:#000000;stroke-width:2;stroke-linecap:square;stroke-miterlimit:1;" x1="179" y1="50" x2="180" y2="52"/>
			
				<line style="fill:none;stroke:#000000;stroke-width:2;stroke-linecap:square;stroke-miterlimit:1;" x1="180" y1="52" x2="181" y2="53"/>
			
				<line style="fill:none;stroke:#000000;stroke-width:2;stroke-linecap:square;stroke-miterlimit:1;" x1="181" y1="53" x2="182" y2="55"/>
			
				<line style="fill:none;stroke:#000000;stroke-width:2;stroke-linecap:square;stroke-miterlimit:1;" x1="182" y1="55" x2="183" y2="56"/>
			
				<line style="fill:none;stroke:#000000;stroke-width:2;stroke-linecap:square;stroke-miterlimit:1;" x1="183" y1="56" x2="184" y2="58"/>
			
				<line style="fill:none;stroke:#000000;stroke-width:2;stroke-linecap:square;stroke-miterlimit:1;" x1="184" y1="58" x2="185" y2="59"/>
			
				<line style="fill:none;stroke:#000000;stroke-width:2;stroke-linecap:square;stroke-miterlimit:1;" x1="185" y1="59" x2="186" y2="61"/>
			
				<line style="fill:none;stroke:#000000;stroke-width:2;stroke-linecap:square;stroke-miterlimit:1;" x1="186" y1="61" x2="187" y2="63"/>
			
				<line style="fill:none;stroke:#000000;stroke-width:2;stroke-linecap:square;stroke-miterlimit:1;" x1="187" y1="63" x2="188" y2="65"/>
			
				<line style="fill:none;stroke:#000000;stroke-width:2;stroke-linecap:square;stroke-miterlimit:1;" x1="188" y1="65" x2="189" y2="67"/>
			
				<line style="fill:none;stroke:#000000;stroke-width:2;stroke-linecap:square;stroke-miterlimit:1;" x1="189" y1="67" x2="190" y2="70"/>
			
				<line style="fill:none;stroke:#000000;stroke-width:2;stroke-linecap:square;stroke-miterlimit:1;" x1="190" y1="70" x2="191" y2="73"/>
			
				<line style="fill:none;stroke:#000000;stroke-width:2;stroke-linecap:square;stroke-miterlimit:1;" x1="191" y1="73" x2="192" y2="76"/>
			
				<line style="fill:none;stroke:#000000;stroke-width:2;stroke-linecap:square;stroke-miterlimit:1;" x1="192" y1="76" x2="193" y2="79"/>
			
				<line style="fill:none;stroke:#000000;stroke-width:2;stroke-linecap:square;stroke-miterlimit:1;" x1="193" y1="79" x2="194" y2="82"/>
			
				<line style="fill:none;stroke:#000000;stroke-width:2;stroke-linecap:square;stroke-miterlimit:1;" x1="194" y1="82" x2="195" y2="86"/>
			
				<line style="fill:none;stroke:#000000;stroke-width:2;stroke-linecap:square;stroke-miterlimit:1;" x1="195" y1="86" x2="196" y2="90"/>
			
				<line style="fill:none;stroke:#000000;stroke-width:2;stroke-linecap:square;stroke-miterlimit:1;" x1="196" y1="90" x2="197" y2="94"/>
			
				<line style="fill:none;stroke:#000000;stroke-width:2;stroke-linecap:square;stroke-miterlimit:1;" x1="197" y1="94" x2="198" y2="97"/>
			
				<line style="fill:none;stroke:#000000;stroke-width:2;stroke-linecap:square;stroke-miterlimit:1;" x1="198" y1="97" x2="199" y2="102"/>
			
				<line style="fill:none;stroke:#000000;stroke-width:2;stroke-linecap:square;stroke-miterlimit:1;" x1="199" y1="102" x2="200" y2="106"/>
			
				<line style="fill:none;stroke:#000000;stroke-width:2;stroke-linecap:square;stroke-miterlimit:1;" x1="200" y1="106" x2="201" y2="109"/>
			
				<line style="fill:none;stroke:#000000;stroke-width:2;stroke-linecap:square;stroke-miterlimit:1;" x1="201" y1="109" x2="202" y2="113"/>
			
				<line style="fill:none;stroke:#000000;stroke-width:2;stroke-linecap:square;stroke-miterlimit:1;" x1="202" y1="113" x2="203" y2="116"/>
			
				<line style="fill:none;stroke:#000000;stroke-width:2;stroke-linecap:square;stroke-miterlimit:1;" x1="203" y1="116" x2="204" y2="120"/>
			
				<line style="fill:none;stroke:#000000;stroke-width:2;stroke-linecap:square;stroke-miterlimit:1;" x1="204" y1="120" x2="205" y2="123"/>
			
				<line style="fill:none;stroke:#000000;stroke-width:2;stroke-linecap:square;stroke-miterlimit:1;" x1="205" y1="123" x2="206" y2="126"/>
			
				<line style="fill:none;stroke:#000000;stroke-width:2;stroke-linecap:square;stroke-miterlimit:1;" x1="206" y1="126" x2="207" y2="128"/>
			
				<line style="fill:none;stroke:#000000;stroke-width:2;stroke-linecap:square;stroke-miterlimit:1;" x1="207" y1="128" x2="208" y2="131"/>
			
				<line style="fill:none;stroke:#000000;stroke-width:2;stroke-linecap:square;stroke-miterlimit:1;" x1="208" y1="131" x2="209" y2="133"/>
			
				<line style="fill:none;stroke:#000000;stroke-width:2;stroke-linecap:square;stroke-miterlimit:1;" x1="209" y1="133" x2="210" y2="135"/>
			
				<line style="fill:none;stroke:#000000;stroke-width:2;stroke-linecap:square;stroke-miterlimit:1;" x1="210" y1="135" x2="211" y2="137"/>
			
				<line style="fill:none;stroke:#000000;stroke-width:2;stroke-linecap:square;stroke-miterlimit:1;" x1="211" y1="137" x2="212" y2="138"/>
			
				<line style="fill:none;stroke:#000000;stroke-width:2;stroke-linecap:square;stroke-miterlimit:1;" x1="212" y1="138" x2="213" y2="140"/>
			
				<line style="fill:none;stroke:#000000;stroke-width:2;stroke-linecap:square;stroke-miterlimit:1;" x1="213" y1="140" x2="214" y2="141"/>
			
				<line style="fill:none;stroke:#000000;stroke-width:2;stroke-linecap:square;stroke-miterlimit:1;" x1="214" y1="141" x2="215" y2="143"/>
			
				<line style="fill:none;stroke:#000000;stroke-width:2;stroke-linecap:square;stroke-miterlimit:1;" x1="215" y1="143" x2="216" y2="144"/>
			
				<line style="fill:none;stroke:#000000;stroke-width:2;stroke-linecap:square;stroke-miterlimit:1;" x1="216" y1="144" x2="218" y2="146"/>
			
				<line style="fill:none;stroke:#000000;stroke-width:2;stroke-linecap:square;stroke-miterlimit:1;" x1="218" y1="146" x2="219" y2="147"/>
			
				<line style="fill:none;stroke:#000000;stroke-width:2;stroke-linecap:square;stroke-miterlimit:1;" x1="219" y1="147" x2="220" y2="149"/>
			
				<line style="fill:none;stroke:#000000;stroke-width:2;stroke-linecap:square;stroke-miterlimit:1;" x1="220" y1="149" x2="221" y2="150"/>
			
				<line style="fill:none;stroke:#000000;stroke-width:2;stroke-linecap:square;stroke-miterlimit:1;" x1="221" y1="150" x2="222" y2="152"/>
			
				<line style="fill:none;stroke:#000000;stroke-width:2;stroke-linecap:square;stroke-miterlimit:1;" x1="222" y1="152" x2="223" y2="154"/>
			
				<line style="fill:none;stroke:#000000;stroke-width:2;stroke-linecap:square;stroke-miterlimit:1;" x1="223" y1="154" x2="224" y2="156"/>
			
				<line style="fill:none;stroke:#000000;stroke-width:2;stroke-linecap:square;stroke-miterlimit:1;" x1="224" y1="156" x2="225" y2="158"/>
			
				<line style="fill:none;stroke:#000000;stroke-width:2;stroke-linecap:square;stroke-miterlimit:1;" x1="225" y1="158" x2="226" y2="159"/>
			<g>
				<g>
					<text transform="matrix(1 0 0 1 75 162)"><tspan x="0" y="0" style="font-family:Liberation Sans; font-size:7.650000;">0</tspan></text>
				</g>
			</g>
			<g>
				<g>
					<text transform="matrix(1 0 0 1 75 132)"><tspan x="0" y="0" style="font-family:Liberation Sans; font-size:7.650000;">1</tspan></text>
				</g>
			</g>
			<g>
				<g>
					<text transform="matrix(1 0 0 1 75 101)"><tspan x="0" y="0" style="font-family:Liberation Sans; font-size:7.650000;">2</tspan></text>
				</g>
			</g>
			<g>
				<g>
					<text transform="matrix(1 0 0 1 75 70)"><tspan x="0" y="0" style="font-family:Liberation Sans; font-size:7.650000;">3</tspan></text>
				</g>
			</g>
			<g>
				<g>
					<text transform="matrix(1 0 0 1 75 39)"><tspan x="0" y="0" style="font-family:Liberation Sans; font-size:7.650000;">4</tspan></text>
				</g>
			</g>
			<g>
				<g>
					<text transform="matrix(1 0 0 1 75 9)"><tspan x="0" y="0" style="font-family:Liberation Sans; font-size:7.650000;">5</tspan></text>
				</g>
			</g>
			<g>
				<g>
					<text transform="matrix(1 0 0 1 104 176)"><tspan x="0" y="0" style="font-family:Liberation Sans; font-size:7.650000;">0</tspan></text>
				</g>
			</g>
			<g>
				<g>
					<text transform="matrix(1 0 0 1 150 176)"><tspan x="0" y="0" style="font-family:Liberation Sans; font-size:7.650000;">5</tspan></text>
				</g>
			</g>
			<g>
				<g>
					<text transform="matrix(1 0 0 1 192 176)"><tspan x="0" y="0" style="font-family:Liberation Sans; font-size:7.650000;">10</tspan></text>
				</g>
			</g>
			<g>
				<g>
					<text transform="matrix(1 0 0 1 238 176)"><tspan x="0" y="0" style="font-family:Liberation Sans; font-size:7.650000;">15</tspan></text>
				</g>
			</g>
			<g>
				<g>
					<text transform="matrix(1 0 0 1 170.5 189)"><tspan x="0" y="0" style="font-family:Liberation Sans; font-size:7.650000;">t (s)</tspan></text>
				</g>
			</g>
			<g>
				<g>
					<text transform="matrix(1 0 0 1 40.5 80.5)"><tspan x="0" y="0" style="font-family:Liberation Sans; font-size:7.650000;">F (MN)</tspan></text>
				</g>
			</g>
		</g>
		<rect y="91.188" style="fill:none;" width="320.315" height="2.834"/> 
	</g>
</svg>
