<?xml version="1.0" encoding="UTF-8" standalone="no"?>
<!-- Created with Inkscape (http://www.inkscape.org/) -->

<svg
   xmlns:dc="http://purl.org/dc/elements/1.1/"
   xmlns:cc="http://creativecommons.org/ns#"
   xmlns:rdf="http://www.w3.org/1999/02/22-rdf-syntax-ns#"
   xmlns:svg="http://www.w3.org/2000/svg"
   xmlns="http://www.w3.org/2000/svg"
   xmlns:sodipodi="http://sodipodi.sourceforge.net/DTD/sodipodi-0.dtd"
   xmlns:inkscape="http://www.inkscape.org/namespaces/inkscape"
   width="210mm"
   height="297mm"
   viewBox="0 0 210 297"
   version="1.1"
   id="svg8"
   sodipodi:docname="hw-rope-stretch.svg">
  <defs
     id="defs2">
    <marker
       inkscape:stockid="Arrow1Lend"
       orient="auto"
       refY="0.0"
       refX="0.0"
       id="Arrow1Lend"
       style="overflow:visible;"
       inkscape:isstock="true">
      <path
         id="path970"
         d="M 0.0,0.0 L 5.0,-5.0 L -12.5,0.0 L 5.0,5.0 L 0.0,0.0 z "
         style="fill-rule:evenodd;stroke:#000000;stroke-width:1pt;stroke-opacity:1;fill:#000000;fill-opacity:1"
         transform="scale(0.8) rotate(180) translate(12.5,0)" />
    </marker>
    <marker
       inkscape:stockid="Arrow1Lstart"
       orient="auto"
       refY="0.0"
       refX="0.0"
       id="Arrow1Lstart"
       style="overflow:visible"
       inkscape:isstock="true">
      <path
         id="path967"
         d="M 0.0,0.0 L 5.0,-5.0 L -12.5,0.0 L 5.0,5.0 L 0.0,0.0 z "
         style="fill-rule:evenodd;stroke:#000000;stroke-width:1pt;stroke-opacity:1;fill:#000000;fill-opacity:1"
         transform="scale(0.8) translate(12.5,0)" />
    </marker>
  </defs>
  <sodipodi:namedview
     id="base"
     pagecolor="#ffffff"
     bordercolor="#666666"
     borderopacity="1.0"
     inkscape:pageopacity="0.0"
     inkscape:pageshadow="2"
     inkscape:zoom="0.98736848"
     inkscape:cx="94.609839"
     inkscape:cy="-1131.8567"
     inkscape:document-units="mm"
     inkscape:current-layer="layer1"
     showgrid="false"
     inkscape:snap-global="false"
     inkscape:window-width="1280"
     inkscape:window-height="996"
     inkscape:window-x="0"
     inkscape:window-y="0"
     inkscape:window-maximized="1" />
  <metadata
     id="metadata5">
    <rdf:RDF>
      <cc:Work
         rdf:about="">
        <dc:format>image/svg+xml</dc:format>
        <dc:type
           rdf:resource="http://purl.org/dc/dcmitype/StillImage" />
        <dc:title></dc:title>
      </cc:Work>
    </rdf:RDF>
  </metadata>
  <g
     inkscape:label="Layer 1"
     inkscape:groupmode="layer"
     id="layer1">
    <rect
       style="fill:#dedede;fill-opacity:1;stroke:none;stroke-width:0.24694444;stroke-miterlimit:4;stroke-dasharray:none;stroke-opacity:1"
       id="rect963"
       width="51.054775"
       height="105.16064"
       x="-6.1021643"
       y="510.16895" />
    <path
       style="fill:none;stroke:#888888;stroke-width:0.90041065;stroke-linecap:butt;stroke-linejoin:miter;stroke-miterlimit:4;stroke-dasharray:none;stroke-opacity:1"
       d="m 18.255981,538.68696 c -3.780303,0.0619 -5.70144,0.24788 -7.064828,-0.2479 -1.3633875,-0.49577 -2.5408584,-1.48733 -2.5408584,-1.48733"
       id="path940"
       inkscape:connector-curvature="0"
       sodipodi:nodetypes="ccc" />
    <path
       style="fill:none;stroke:#888888;stroke-width:0.90041065;stroke-linecap:butt;stroke-linejoin:miter;stroke-miterlimit:4;stroke-dasharray:none;stroke-opacity:1"
       d="m 6.8531019,534.22496 c -1.4253598,-3.16058 -4.1521352,-7.00285 -4.7718568,-8.55215 -0.6197216,-1.54931 -4.0901629,-8.86202 -4.895801,-10.22542 -0.8056381,-1.36338 -3.4704413,-5.57749 -3.4704413,-5.57749"
       id="path942"
       inkscape:connector-curvature="0" />
    <path
       style="fill:#dedede;fill-opacity:1;stroke:#000000;stroke-width:0.24694444;stroke-linecap:butt;stroke-linejoin:miter;stroke-miterlimit:4;stroke-dasharray:none;stroke-opacity:1"
       d="m 16.539137,522.58149 c 5.698274,7.14698 7.340153,11.58971 9.271769,13.90765 1.931621,2.31795 1.100628,5.65353 0.519207,6.95383 -2.086815,1.44 -7.376452,1.73846 -8.342261,2.0282 -0.96581,0.28974 -2.80085,0.19316 -2.80085,0.19316 l 1.255554,5.31196 -4.635886,1.25555 h -0.772647 c 0,0 -2.1247811,-6.56751 -2.1247811,-7.72648 0,-1.15897 0.5794862,-3.09059 2.2213611,-3.47691 1.641877,-0.38633 5.215372,-1.93162 5.601695,-1.93162 0.386324,0 4.152979,-0.77265 4.152979,-0.77265"
       id="path880"
       inkscape:connector-curvature="0"
       sodipodi:nodetypes="cscsccccscsc" />
    <path
       style="fill:none;stroke:#000000;stroke-width:0.24694444;stroke-linecap:butt;stroke-linejoin:miter;stroke-miterlimit:4;stroke-dasharray:none;stroke-opacity:1"
       d="m 14.115983,532.42773 c 0.772648,1.73846 5.590986,5.89213 5.590986,5.89213"
       id="path882"
       inkscape:connector-curvature="0"
       sodipodi:nodetypes="cc" />
    <path
       style="fill:#dedede;fill-opacity:1;stroke:#000000;stroke-width:0.24694444;stroke-linecap:butt;stroke-linejoin:miter;stroke-miterlimit:4;stroke-dasharray:none;stroke-opacity:1"
       d="m 14.510937,531.85326 c 0,0 -5.0222089,4.92563 -5.4085327,5.21537 -0.3863238,0.28974 -6.3286454,1.63669 -6.3286454,1.63669 l -2.31040655,0.96063 -1.83268785,0.0636"
       id="path884"
       inkscape:connector-curvature="0"
       sodipodi:nodetypes="csccc" />
    <path
       style="fill:none;stroke:#000000;stroke-width:0.24694444;stroke-linecap:butt;stroke-linejoin:miter;stroke-miterlimit:4;stroke-dasharray:none;stroke-opacity:1"
       d="m 13.158802,524.99601 c -2.028199,0.96581 -1.835036,1.44872 -1.931617,2.60769 -0.09658,1.15897 -2.3179431,4.5393 -2.3179431,5.21537 0,0.67606 -4.3461432,2.80085 -4.3461432,2.80085 l -2.4145224,1.25555"
       id="path886"
       inkscape:connector-curvature="0" />
    <path
       style="fill:none;stroke:#000000;stroke-width:0.24694444;stroke-linecap:butt;stroke-linejoin:miter;stroke-miterlimit:4;stroke-dasharray:none;stroke-opacity:1"
       d="m 11.323766,514.37211 c 0.965809,0.19316 2.704266,-0.48291 3.959819,0.57949 1.255552,1.06238 1.352133,0.86922 1.545295,2.31793 0.193162,1.44872 0.676066,1.25556 0.193162,3.28376 -0.482905,2.0282 -0.482905,2.0282 -0.482905,2.0282"
       id="path888"
       inkscape:connector-curvature="0" />
    <path
       style="fill:none;stroke:#000000;stroke-width:0.24694444;stroke-linecap:butt;stroke-linejoin:miter;stroke-miterlimit:4;stroke-dasharray:none;stroke-opacity:1"
       d="m 24.941677,545.08485 c -0.869225,2.89743 -2.124779,5.89144 -2.124779,5.89144 0,0 2.124779,4.82905 2.414525,5.60169 0.289742,0.77265 0.193162,1.54529 0.193162,1.54529 0,0 -2.124783,0.48291 -2.317945,0.86923 -0.193163,0.38633 -2.0282,1.73846 -2.0282,1.73846 0,0 -2.511103,-4.34614 -2.511103,-4.92562 0,-0.5795 -1.255552,-4.24957 -0.772648,-6.47093 0.482905,-2.22136 0.482905,-3.47692 0.482905,-3.47692"
       id="path890"
       inkscape:connector-curvature="0" />
    <path
       style="fill:none;stroke:#000000;stroke-width:0.24694444;stroke-linecap:butt;stroke-linejoin:miter;stroke-miterlimit:4;stroke-dasharray:none;stroke-opacity:1"
       d="m 22.454417,559.83596 c 0.657524,1.05204 1.221112,2.81795 1.183541,3.23125 -0.03757,0.4133 -0.413301,1.16475 -0.413301,1.16475 v 0 l 0.09393,0.11272"
       id="path892"
       inkscape:connector-curvature="0" />
    <path
       style="fill:none;stroke:#000000;stroke-width:0.24694444;stroke-linecap:butt;stroke-linejoin:miter;stroke-miterlimit:4;stroke-dasharray:none;stroke-opacity:1"
       d="m 25.272365,558.38941 c 0.206651,1.35262 0.56359,3.34397 0.582378,3.64455 0.01879,0.30058 0.469657,1.69077 0.469657,1.69077"
       id="path894"
       inkscape:connector-curvature="0" />
    <path
       style="fill:none;stroke:#000000;stroke-width:0.24694444;stroke-linecap:butt;stroke-linejoin:miter;stroke-miterlimit:4;stroke-dasharray:none;stroke-opacity:1"
       d="m 22.924075,564.55133 c -0.469658,0.90174 -1.033246,1.72834 -1.296253,1.80349 -0.263011,0.0751 -1.127182,0.0188 -1.296256,0.0188 -0.169078,0 -0.356943,-0.0563 -0.319368,0.0751 0.03757,0.13151 0.112719,0.73267 0.169074,0.88296 0.05636,0.15029 0.713884,0.71388 0.97689,0.78903 0.26301,0.0751 0.976889,0.26301 1.822273,0 0.845385,-0.26301 1.747129,-0.86417 2.104068,-0.92053 0.35694,-0.0563 1.315041,0 1.690769,-0.16908 0.375727,-0.16908 0.789027,-0.46966 0.713879,-0.77024 -0.07514,-0.30058 -0.15029,-0.9581 -0.375725,-1.33383 -0.225438,-0.37572 -0.676309,-1.12717 -0.676309,-1.12717"
       id="path896"
       inkscape:connector-curvature="0" />
    <path
       style="fill:none;stroke:#000000;stroke-width:0.24694444;stroke-linecap:butt;stroke-linejoin:miter;stroke-miterlimit:4;stroke-dasharray:none;stroke-opacity:1"
       d="m 16.442796,551.19425 c 0.206649,1.12719 1.12718,3.75727 1.12718,3.75727"
       id="path898"
       inkscape:connector-curvature="0" />
    <path
       style="fill:none;stroke:#000000;stroke-width:0.24694444;stroke-linecap:butt;stroke-linejoin:miter;stroke-miterlimit:4;stroke-dasharray:none;stroke-opacity:1"
       d="m 13.36184,551.88935 c 0.563591,1.07082 1.070821,1.97256 1.108394,2.44222 0.03757,0.46966 -0.01878,1.16475 -0.01878,1.16475"
       id="path900"
       inkscape:connector-curvature="0" />
    <path
       style="fill:none;stroke:#000000;stroke-width:0.24694444;stroke-linecap:butt;stroke-linejoin:miter;stroke-miterlimit:4;stroke-dasharray:none;stroke-opacity:1"
       d="m 17.607548,555.47754 c -0.05636,0.45087 -0.281794,1.33383 -0.695093,1.42775 -0.4133,0.0939 -1.164752,0.13151 -1.164752,0.13151 l -1.052035,-1.14596"
       id="path902"
       inkscape:connector-curvature="0" />
    <path
       style="fill:none;stroke:#000000;stroke-width:0.24694444;stroke-linecap:butt;stroke-linejoin:miter;stroke-miterlimit:4;stroke-dasharray:none;stroke-opacity:1"
       d="m 17.926916,555.40239 c 0.676308,1.14597 0.845384,1.89742 0.695093,2.25436 -0.15029,0.35693 -0.770237,1.05203 -1.333828,1.0896 -0.56359,0.0376 -1.427759,0.30058 -1.953777,0.60116 -0.526017,0.30059 -1.540479,0.88296 -2.14164,0.92053 -0.601163,0.0376 -2.648871,-0.0563 -2.780376,-0.0939 -0.131505,-0.0376 -0.6011617,-0.0563 -0.7138792,-0.52602 -0.1127184,-0.46966 -0.1502915,-0.90175 0.075141,-1.05204 0.2254368,-0.15028 0.8641702,-0.37572 1.2398972,-0.50723 0.375727,-0.1315 0.864171,-0.50722 1.258683,-0.60116 0.394513,-0.0939 1.897419,-1.70955 1.897419,-1.70955"
       id="path904"
       inkscape:connector-curvature="0" />
    <path
       style="fill:none;stroke:#000000;stroke-width:0.24694444;stroke-linecap:butt;stroke-linejoin:miter;stroke-miterlimit:4;stroke-dasharray:none;stroke-opacity:1"
       d="m 1.9031047,536.6619 c -1.17031155,-0.57243 -2.00988282,-1.11942 -2.13709028,-1.29752 -0.1272087,-0.17809 -0.13992854,-0.17809 -0.41978563,-0.21625 -0.27985709,-0.0382 -0.85229239,-0.57244 -0.86501349,-0.38162 -0.012725,0.19081 0.1526496,0.44523 0.2544161,0.52155 0.1017664,0.0763 0.58515514,0.71236 0.75052594,0.85229 0.16536951,0.13993 0.34346015,0.39434 0.30529805,0.44523 -0.0381621,0.0509 -0.11448629,0.0636 -0.11448629,0.0636"
       id="path906"
       inkscape:connector-curvature="0" />
    <path
       style="fill:none;stroke:#000000;stroke-width:0.24694444;stroke-linecap:butt;stroke-linejoin:miter;stroke-miterlimit:4;stroke-dasharray:none;stroke-opacity:1"
       d="m 0.32572862,536.56013 c -0.61059742,0.0891 -2.08620762,0.4198 -2.40422702,0.47067 -0.3180193,0.0509 -0.8395709,0.10177 -0.8395709,0.10177"
       id="path908"
       inkscape:connector-curvature="0" />
    <path
       style="fill:none;stroke:#000000;stroke-width:0.24694444;stroke-linecap:butt;stroke-linejoin:miter;stroke-miterlimit:4;stroke-dasharray:none;stroke-opacity:1"
       d="m -2.6254917,537.80677 c 0.4706689,-0.0128 0.6742011,0.0763 0.9794996,-0.0254 0.3052993,-0.10177 0.521552,-0.16538 0.521552,-0.16538"
       id="path910"
       inkscape:connector-curvature="0" />
    <path
       style="fill:none;stroke:#000000;stroke-width:0.24694444;stroke-linecap:butt;stroke-linejoin:miter;stroke-miterlimit:4;stroke-dasharray:none;stroke-opacity:1"
       d="m -0.76825878,538.3156 c -0.47066882,0.0636 -0.96677882,0.19082 -1.05582412,0.2417 -0.089045,0.0509 -0.3816232,0.13993 -0.3816232,0.13993"
       id="path912"
       inkscape:connector-curvature="0" />
    <path
       style="fill:none;stroke:#000000;stroke-width:0.24694444;stroke-linecap:butt;stroke-linejoin:miter;stroke-miterlimit:4;stroke-dasharray:none;stroke-opacity:1"
       d="m -2.1166606,539.25694 c 0.5597138,0 1.1830323,-0.17809 1.1830323,-0.17809 l 0.30529806,-0.0381"
       id="path914"
       inkscape:connector-curvature="0" />
    <path
       style="fill:none;stroke:#000000;stroke-width:0.24694444;stroke-linecap:butt;stroke-linejoin:miter;stroke-miterlimit:4;stroke-dasharray:none;stroke-opacity:1"
       d="m 11.040015,515.39772 c -0.232972,0.62126 -0.543599,0.98366 -0.556543,1.30723 -0.01294,0.32356 0.07766,0.64713 -0.06471,0.86716 -0.142372,0.22003 -0.9836544,0.97071 -0.9836544,1.03543 0,0.0647 0.3494561,0.24591 0.3753411,0.33651 0.025889,0.0906 0.2847433,0.11649 0.2847433,0.11649"
       id="path916"
       inkscape:connector-curvature="0"
       sodipodi:nodetypes="cscscc" />
    <path
       style="fill:none;stroke:#000000;stroke-width:0.24694444;stroke-linecap:butt;stroke-linejoin:miter;stroke-miterlimit:4;stroke-dasharray:none;stroke-opacity:1"
       d="m 9.9139871,519.20291 c -0.1682565,0.1812 -0.3882849,0.11649 -0.3235701,0.23297 0.064719,0.11649 -0.01294,0.33652 -0.01294,0.33652 l 0.478883,0.1812"
       id="path918"
       inkscape:connector-curvature="0" />
    <path
       style="fill:none;stroke:#000000;stroke-width:0.24694444;stroke-linecap:butt;stroke-linejoin:miter;stroke-miterlimit:4;stroke-dasharray:none;stroke-opacity:1"
       d="m 9.9139871,520.03126 c -0.2329704,-0.0129 -0.3365122,-0.20709 -0.3365122,0.0259 0,0.23297 0.1682557,0.15532 0.1423698,0.38829 -0.025889,0.23297 -0.025889,0.44006 0,0.71186 0.025889,0.27179 0.2329713,0.6083 0.5047703,0.75067 0.271801,0.14237 0.931885,0.12943 1.074256,0.51772 0.142371,0.38828 0.517713,1.28134 0.517713,1.28134"
       id="path920"
       inkscape:connector-curvature="0" />
    <path
       style="fill:none;stroke:#000000;stroke-width:0.24694444;stroke-linecap:butt;stroke-linejoin:miter;stroke-miterlimit:4;stroke-dasharray:none;stroke-opacity:1"
       d="m -6.7523314,509.87905 c 0,0 0.7321572,0.58572 2.1964715,3.07505 1.4643143,2.48934 2.4893343,4.83224 3.66078592,7.9073 1.17145121,3.07506 2.63576558,3.66078 2.63576558,5.41796 0,1.75718 2.3429023,6.15013 2.3429023,6.15013 l 1.1714525,2.05003"
       id="path922"
       inkscape:connector-curvature="0" />
    <path
       style="fill:none;stroke:#000000;stroke-width:0.24694444;stroke-linecap:butt;stroke-linejoin:miter;stroke-miterlimit:4;stroke-dasharray:none;stroke-opacity:1"
       d="m 7.597949,538.14031 c 0.1464315,0.58573 2.1964718,2.92863 2.1964718,2.92863"
       id="path924"
       inkscape:connector-curvature="0" />
    <path
       style="fill:none;stroke:#000000;stroke-width:0.24694444;stroke-linecap:butt;stroke-linejoin:miter;stroke-miterlimit:4;stroke-dasharray:none;stroke-opacity:1"
       d="m 12.86948,552.05129 c 0.292863,2.05005 -0.292862,2.19648 0.292863,2.48934 0.585726,0.29287 0.878589,0.73216 0.878589,0.73216"
       id="path926"
       inkscape:connector-curvature="0" />
    <path
       style="fill:none;stroke:#000000;stroke-width:0.24694444;stroke-linecap:butt;stroke-linejoin:miter;stroke-miterlimit:4;stroke-dasharray:none;stroke-opacity:1"
       d="m 17.99458,559.9586 c 1.610746,3.22148 1.90361,5.1251 1.90361,5.1251 v 0"
       id="path928"
       inkscape:connector-curvature="0" />
    <path
       style="fill:none;stroke:#000000;stroke-width:0.24694444;stroke-linecap:butt;stroke-linejoin:miter;stroke-miterlimit:4;stroke-dasharray:none;stroke-opacity:1"
       d="m 21.655365,569.47664 c 1.025022,3.07506 2.196473,2.92863 2.196473,4.39294 0,1.46431 0.732157,2.7822 0.732157,2.7822"
       id="path930"
       inkscape:connector-curvature="0" />
    <path
       style="fill:none;stroke:#000000;stroke-width:0.24694444;stroke-linecap:butt;stroke-linejoin:miter;stroke-opacity:1;stroke-miterlimit:4;stroke-dasharray:none"
       d="m 24.505338,576.7104 c 2.354036,4.46028 2.477933,9.41614 2.849622,10.15952 0.37169,0.74338 0.991172,2.97353 1.734554,4.58419 0.743379,1.61066 1.238964,4.95587 1.238964,4.95587 l 1.115072,0.24779 v 0"
       id="path936"
       inkscape:connector-curvature="0" />
    <path
       style="fill:none;stroke:#000000;stroke-width:0.24694444;stroke-linecap:butt;stroke-linejoin:miter;stroke-opacity:1;stroke-miterlimit:4;stroke-dasharray:none"
       d="m 28.222235,597.15335 c 3.469107,-0.37169 7.805487,-0.74337 7.805487,-0.74337 l 5.575348,-0.37169 1.85845,4.33637 c 0,0 0.867276,10.15952 0.991172,11.52238 0.123897,1.36286 0.619483,3.59299 0.619483,3.59299"
       id="path938"
       inkscape:connector-curvature="0" />
    <path
       style="fill:none;stroke:#000000;stroke-width:0.26458333;stroke-linecap:butt;stroke-linejoin:miter;stroke-opacity:1;stroke-miterlimit:4;stroke-dasharray:none;marker-start:url(#Arrow1Lstart);marker-end:url(#Arrow1Lend)"
       d="m 30.917634,566.71566 9.356653,27.66317"
       id="path965"
       inkscape:connector-curvature="0" />
    <rect
       style="fill:#dedede;fill-opacity:1;stroke:none;stroke-width:0.26458332;stroke-miterlimit:4;stroke-dasharray:none;stroke-opacity:1"
       id="rect1285"
       width="4.4749207"
       height="4.4749207"
       x="33.765312"
       y="579.32684" />
    <text
       xml:space="preserve"
       style="font-style:normal;font-weight:normal;font-size:10.58333302px;line-height:1.25;font-family:sans-serif;letter-spacing:0px;word-spacing:0px;fill:#000000;fill-opacity:1;stroke:none;stroke-width:0.26458332"
       x="35.160095"
       y="582.61871"
       id="text1283"><tspan
         sodipodi:role="line"
         id="tspan1281"
         x="35.160095"
         y="582.61871"
         style="font-style:normal;font-variant:normal;font-weight:normal;font-stretch:normal;font-size:3.52777767px;font-family:'Liberation Sans';-inkscape-font-specification:'Liberation Sans';stroke-width:0.26458332">x</tspan></text>
    <path
       style="fill:none;fill-opacity:1;stroke:#000000;stroke-width:0.26458332;stroke-miterlimit:4;stroke-dasharray:none;stroke-opacity:1"
       id="path1287"
       sodipodi:type="arc"
       sodipodi:cx="26.342339"
       sodipodi:cy="596.52979"
       sodipodi:rx="10.073929"
       sodipodi:ry="10.073929"
       sodipodi:start="3.1415927"
       sodipodi:end="4.7215554"
       sodipodi:open="true"
       d="m 16.26841,596.52978 a 10.073929,10.073929 0 0 1 2.983308,-7.15591 10.073929,10.073929 0 0 1 7.182961,-2.91759" />
    <text
       xml:space="preserve"
       style="font-style:normal;font-variant:normal;font-weight:normal;font-stretch:normal;font-size:3.52777767px;line-height:1.25;font-family:'Liberation Sans';-inkscape-font-specification:'Liberation Sans';font-variant-ligatures:normal;font-variant-position:normal;font-variant-caps:normal;font-variant-numeric:normal;font-variant-alternates:normal;font-feature-settings:normal;text-indent:0;text-align:start;text-decoration:none;text-decoration-line:none;text-decoration-style:solid;text-decoration-color:#000000;letter-spacing:0px;word-spacing:0px;text-transform:none;writing-mode:lr-tb;direction:ltr;text-orientation:mixed;dominant-baseline:auto;baseline-shift:baseline;text-anchor:start;white-space:normal;shape-padding:0;opacity:1;vector-effect:none;fill:#000000;fill-opacity:1;stroke:none;stroke-width:0.26458332;stroke-linecap:butt;stroke-linejoin:miter;stroke-miterlimit:4;stroke-dasharray:none;stroke-dashoffset:0;stroke-opacity:1"
       x="16.748011"
       y="589.28632"
       id="text1291"><tspan
         sodipodi:role="line"
         id="tspan1289"
         x="16.748011"
         y="589.28632"
         style="stroke-width:0.26458332">θ</tspan></text>
  </g>
</svg>
