<?xml version="1.0" encoding="iso-8859-1"?>
<!-- Generator: Adobe Illustrator 11 Build 196, SVG Export Plug-In . SVG Version: 6.0.0 Build 78)  -->
<!DOCTYPE svg PUBLIC "-//W3C//DTD SVG 1.0//EN"    "http://www.w3.org/TR/2001/REC-SVG-20010904/DTD/svg10.dtd" [
	<!ENTITY ns_flows "http://ns.adobe.com/Flows/1.0/">
	<!ENTITY ns_svg "http://www.w3.org/2000/svg">
	<!ENTITY ns_xlink "http://www.w3.org/1999/xlink">
]>
<svg  
	 width="147.401" height="179.531" viewBox="0 0 147.401 179.531"
	 style="overflow:visible;enable-background:new 0 0 147.401 179.531" xml:space="preserve">
	<g id="Layer_1">
		<g>
			<path style="fill:none;stroke:#000000;" d="M48.318,126.926c3.174,0.045,6.411-0.06,9.632-0.277"/>
			<path style="fill:none;stroke:#000000;" d="M68.715,125.541c13.831-1.876,25.616-5.092,28.459-6.108
				c4.196-1.499,3.297-0.899,3.297-0.899s0.599,35.368,7.493,46.458c6.894,11.09,2.398,1.499,2.398,1.499s10.19,0.899,12.588-3.597
				c2.398-4.496,0.3-7.493,0.3-7.493s1.499-15.886,1.199-19.183c-0.3-3.297-1.798-20.082-1.798-20.082"/>
			<path style="fill:none;stroke:#000000;" d="M120.853,141.014c0.3-9.292,1.798-29.673,1.199-33.27
				c-0.6-3.597-1.799-10.19-4.196-11.689c-1.041-0.65-2.815-1.752-4.76-2.815"/>
			<path style="fill:none;stroke:#000000;" d="M108.793,91.165c-1.091-0.431-2.103-0.73-2.927-0.806c-3.297-0.3-6.894,0-6.894,0
				l-31.771,2.998"/>
			<path style="fill:none;stroke:#000000;" d="M44.422,31.613c-9.292,6.594-14.387,12.888-15.586,16.485"/>
			<path style="fill:none;stroke:#000000;stroke-width:0.5;" d="M46.52,37.008c-5.096,2.997-8.692,6.294-8.692,6.294"/>
			<path style="fill:none;stroke:#000000;" d="M39.926,38.506c-5.096,2.398-13.788,11.09-14.687,15.886
				c-0.899,4.795-8.692,17.084-8.692,17.084"/>
			<path style="fill:none;stroke:#000000;" d="M16.247,73.875c0,7.193-0.899,9.891-1.499,11.689s-0.6,5.995-0.6,5.995l1.798,5.395
				v4.196l2.098,6.594c0,0,2.998,2.248,4.796,3.147c1.798,0.899,12.289,3.447,12.289,3.447h23.079c0,0,6.894-15.286,6.894-17.084"/>
			<path style="fill:none;stroke:#000000;" d="M55.212,41.804c-0.3,8.992-2.098,16.485-1.798,18.283s0.6,8.093,0.6,8.093"/>
			<path style="fill:none;stroke:#000000;" d="M55.812,69.079c5.395,2.098,25.776,11.39,27.875,11.689s8.393,1.199,8.393,1.199
				l20.981-2.098"/>
			<path style="fill:none;stroke:#000000;stroke-width:0.5;" d="M113.06,66.381c0,0,0,11.39-1.199,14.687
				c-0.534,1.468,0.478,1.926,1.764,1.982"/>
			<path style="fill:none;stroke:#000000;" d="M113.625,83.05c1.602,0.07,3.631-0.483,3.631-0.483s1.499-14.087,0.899-14.986
				c-0.599-0.899-5.095-3.297-5.095-3.297l-0.899,1.499"/>
			<polyline style="fill:none;stroke:#000000;" points="110.961,63.384 107.365,61.885 105.267,60.687 102.27,61.286 99.572,58.289 
				97.773,58.888 96.575,57.689 94.477,58.888 "/>
			<polyline style="fill:none;stroke:#000000;stroke-width:0.5;" points="91.779,56.79 93.877,60.087 94.177,65.782 "/>
			<line style="fill:none;stroke:#000000;stroke-width:0.5;" x1="88.782" y1="57.089" x2="88.782" y2="60.986"/>
			<path style="fill:none;stroke:#000000;stroke-width:0.5;" d="M88.782,54.991c-0.899,0-3.597,2.698-3.597,2.698l-1.798,2.698"/>
			<line style="fill:none;stroke:#000000;stroke-width:0.5;" x1="83.986" y1="53.193" x2="83.686" y2="56.19"/>
			<polyline style="fill:none;stroke:#000000;stroke-width:0.5;" points="82.487,51.694 80.389,51.694 75.893,51.694 77.691,50.196 
				78.591,47.798 "/>
			<path style="fill:none;stroke:#000000;" d="M86.983,53.193l-2.398-1.499l-3.297-2.098c0,0-0.599-1.798-1.199-2.697
				c-0.599-0.899-4.496-3.297-4.496-3.297l-4.196-1.199l-3.297,0.3l-4.196,2.098l-2.398,1.499"/>
			<polyline style="fill:none;stroke:#000000;" points="70.498,42.103 68.1,37.308 65.403,36.708 60.607,36.408 57.31,37.008 
				51.915,39.106 "/>
			<path style="fill:none;stroke:#000000;" d="M47.719,30.713c0,0,1.499,1.199,3.297,1.499s5.695,1.499,5.695,1.499l5.695,1.199"/>
			<path style="fill:none;stroke:#000000;" d="M64.204,93.057c0,0-5.395-3.896-5.695-4.796c-0.17-0.51-0.195-5.752-0.185-10.191
				c0.007-3.38,2.583-4.795,2.583-4.795"/>
			<path style="fill:none;stroke:#000000;" d="M111.261,171.586c0.3,1.499,3.297,7.193,3.297,7.193l7.194-5.395l14.836-8.992
				l8.936-5.732l0.168-3.821l-7.156-0.637l-11.689,1.199"/>
			<polyline style="fill:none;stroke:#000000;" points="120.553,68.779 127.147,69.978 134.041,72.076 134.94,73.575 134.94,76.872 
				134.34,80.169 132.842,82.267 129.845,82.267 "/>
			<polyline style="fill:none;stroke:#000000;" points="120.553,76.272 123.25,76.572 126.847,79.27 128.646,78.071 "/>
			<line style="fill:none;stroke:#000000;" x1="132.542" y1="79.27" x2="21.342" y2="157.798"/>
			<line style="fill:none;stroke:#000000;" x1="130.2" y1="76.928" x2="19.001" y2="155.457"/>
			<path style="fill:none;stroke:#000000;" d="M76.23,42.89c0.787-0.337,1.911-0.787,2.585-1.124c0.675-0.337,4.496,0,4.496,0
				s3.035,0.449,3.372,0.337c0.337-0.112,1.573-1.574,1.573-1.911c0-0.337,0-1.798,0.337-2.136c0.337-0.337,1.124-1.236,1.124-1.236
				l-0.45-0.787l-1.236-0.674"/>
			<polyline style="fill:none;stroke:#000000;" points="89.831,35.584 90.505,35.247 91.179,33.673 "/>
			<polyline style="fill:none;stroke:#000000;" points="91.404,31.088 90.617,32.437 90.955,32.886 92.191,33.111 92.978,33.224 "/>
			<path style="fill:none;stroke:#000000;" d="M92.753,32.549l0.225,0.337c0,0,0.133,0.184,0.899,0.337
				c0.281,0.056,0.562-0.112,0.674-0.45c0.112-0.337-0.112-1.967-0.112-1.967l-0.168-1.518l-0.506-1.911"/>
			<line style="fill:none;stroke:#000000;" x1="92.229" y1="25.094" x2="88.782" y2="25.094"/>
			<path style="fill:none;stroke:#000000;" d="M89.081,25.918c0.225,0.15,1.874,1.273,1.874,1.273"/>
			<path style="fill:none;stroke:#000000;" d="M79.265,2.389c0.6-0.225,3.672-0.974,4.721-0.375c1.049,0.6,5.095,2.398,6.894,3.372
				c1.798,0.974,3.521,3.896,4.871,4.346"/>
			<path style="fill:none;stroke:#000000;stroke-width:0.5;" d="M90.355,6.66c0.3,0.075,2.098,3.747,3.297,4.421
				c1.199,0.674,2.547-0.075,4.121,1.724s1.499,3.072,1.499,3.072l0.45,3.597"/>
			<path style="fill:none;stroke:#000000;stroke-width:0.5;" d="M93.577,13.404l2.772,4.945c0,0,0.225,3.072,0.225,3.447
				s-0.3,3.597,0,3.672"/>
			<path style="fill:none;stroke:#000000;stroke-width:0.5;" d="M87.133,9.957c0,0,2.323,3.522,2.473,3.896
				c0.15,0.375,1.873,3.072,2.173,4.196s1.574,3.747,1.574,3.747"/>
			<polyline style="fill:none;stroke:#000000;stroke-width:0.5;" points="83.386,9.882 83.761,15.502 85.41,19.398 "/>
			<path style="fill:none;stroke:#000000;stroke-width:0.5;" d="M80.539,14.079l0.6,5.32l0.149,0.899c0,0,0,1.424-0.524,1.724
				c-0.524,0.3-0.824,0.449-0.824,0.449"/>
			<path style="fill:none;stroke:#000000;stroke-width:0.5;" d="M77.542,13.029c0,0-1.798,7.194-1.798,7.568s0.15,3.072,0.075,3.971
				c-0.075,0.899-0.15,2.922-0.15,2.922"/>
			<path style="fill:none;stroke:#000000;stroke-width:0.5;" d="M81.513,23.595c0,0.3-0.6,5.92-0.6,5.92"/>
			<path style="fill:none;stroke:#000000;" d="M77.617,2.089c0-0.225,5.095-1.424-0.899-1.574s-6.894,0.899-6.894,0.899
				S68.1,4.337,67.8,4.637c-0.299,0.299-3.747,1.948-3.747,1.948s0.45-1.499-1.049,2.023s-3.896,6.669-3.896,6.669"/>
			<path style="fill:none;stroke:#000000;stroke-width:0.5;" d="M65.403,13.104c0,0-2.473,4.871-2.623,5.17
				c-0.15,0.3-0.225,1.349-0.225,2.698c0,1.349,0,2.922,0,2.922"/>
			<path style="fill:none;stroke:#000000;stroke-width:0.5;" d="M64.129,11.156c0,0-1.124,2.623-0.974,2.922"/>
			<path style="fill:none;stroke:#000000;stroke-width:0.5;" d="M67.351,12.505c0,0-1.574,5.695-1.574,6.069
				c0,0.375,1.124,2.173,1.199,2.323"/>
			<polyline style="fill:none;stroke:#000000;stroke-width:0.5;" points="70.948,15.353 69.674,21.272 67.501,22.996 67.501,25.993 
				"/>
			<path style="fill:none;stroke:#000000;" d="M58.734,16.177c0,0-1.499,4.421-1.424,4.945s1.424,2.698,1.049,3.147
				c-0.375,0.45-0.824,1.649-0.824,1.649"/>
			<path style="fill:none;stroke:#000000;" d="M56.561,26.667c0,0-2.323,1.724-2.473,2.098s-0.524,1.124-0.375,1.349"/>
			<polyline style="fill:none;stroke:#000000;stroke-width:0.5;" points="57.834,28.091 56.71,31.538 57.46,32.812 "/>
			<path style="fill:none;stroke:#000000;stroke-width:0.5;" d="M61.731,27.491c0,0,1.798,3.522,1.874,3.747
				c0.075,0.225,0.375,0.6,0.375,0.6"/>
			<path style="fill:none;stroke:#000000;stroke-width:0.5;" d="M66.826,28.915c0,0,1.349,4.196,1.424,4.945
				c0.075,0.75,0.899,1.424,0.899,1.424"/>
			<path style="fill:none;stroke:#000000;stroke-width:0.5;" d="M73.645,27.042c0,0-0.599,5.17-0.449,5.545
				c0.15,0.375,1.424,3.821,1.424,4.271s-0.45,1.724-1.349,1.873c-0.899,0.15-1.049,0.3-1.049,0.3"/>
			<path style="fill:none;stroke:#000000;stroke-width:0.5;" d="M74.32,7.035c0,0-3.672,2.248-3.672,2.548s-0.974,4.496-0.974,4.871
				s-0.075,0.75-0.075,0.75"/>
			<path style="fill:none;stroke:#000000;" d="M77.579,35.865c0,0,1.686,3.035,1.854,3.091c0.169,0.056,3.147,1.686,3.147,1.686"/>
			<polygon style="fill:none;stroke:#000000;" points="2.609,128.875 27.337,128.425 27.787,133.82 0.811,132.921 "/>
			<line style="fill:none;stroke:#000000;" x1="2.609" y1="128.875" x2="12.051" y2="103.697"/>
			<line style="fill:none;stroke:#000000;" x1="27.337" y1="128.425" x2="27.337" y2="122.581"/>
			<polyline style="fill:none;stroke:#000000;" points="47.119,127.076 34.531,126.177 19.694,119.883 19.694,112.689 "/>
			<polygon style="fill:none;stroke:#000000;" points="128.046,175.632 128.046,170.687 134.79,170.237 137.487,174.733 "/>
			<line style="fill:none;stroke:#000000;" x1="134.79" y1="170.237" x2="135.24" y2="167.09"/>
			<line style="fill:none;stroke:#000000;" x1="137.487" y1="174.733" x2="137.937" y2="165.292"/>
			<polyline style="fill:none;stroke:#000000;" points="135.296,72.507 137.881,70.371 138.387,69.079 137.207,66.887 
				138.162,66.269 140.691,66.887 145.243,71.439 146.536,73.462 144.625,73.631 142.265,73.069 140.522,74.305 135.746,77.846 "/>
		</g>
		<rect y="123.836" style="fill:none;" width="147.401" height="2.834"/> 
	</g>
</svg>
