<?xml version="1.0" encoding="iso-8859-1"?>
<!-- Generator: Adobe Illustrator 11 Build 196, SVG Export Plug-In . SVG Version: 6.0.0 Build 78)  -->
<!DOCTYPE svg PUBLIC "-//W3C//DTD SVG 1.0//EN"    "http://www.w3.org/TR/2001/REC-SVG-20010904/DTD/svg10.dtd" [
	<!ENTITY ns_flows "http://ns.adobe.com/Flows/1.0/">
	<!ENTITY ns_svg "http://www.w3.org/2000/svg">
	<!ENTITY ns_xlink "http://www.w3.org/1999/xlink">
]>
<svg  
	 width="81" height="82.938" viewBox="0 0 81 82.938" style="overflow:visible;enable-background:new 0 0 81 82.938"
	 xml:space="preserve">
	<style type="text/css">
	
	</style>
	<g id="Layer_1">
		<path style="fill:#7F7F7F;stroke:#000000;" d="M73.047,64.25c-8.407,0.379-16.938-2.618-23.367-9.024h-0.083L30.961,36.59
			c-6.032-6.032-13.946-9.033-21.853-9.007H0.5V82h80V64.25H73.047z"/>
		<path style="fill:#7F7F7F;" d="M73.272,65.011c-8.491,0.383-17.107-2.644-23.601-9.114h-0.083L30.766,37.075
			c-6.092-6.092-14.085-9.123-22.071-9.097H0v54.96h80.8V65.011H73.272z"/>
		<line style="fill:none;stroke:#000000;stroke-width:0.5;" x1="9.167" y1="26" x2="9.167" y2="14.833"/>
		<line style="fill:none;stroke:#000000;stroke-width:0.5;" x1="70.542" y1="61.5" x2="70.542" y2="15"/>
		<line style="fill:none;stroke:#000000;stroke-width:0.5;" x1="30.167" y1="33" x2="30.167" y2="14.667"/>
		<line style="fill:none;stroke:#000000;stroke-width:0.5;" x1="50.021" y1="53" x2="50.021" y2="15"/>
		<g>
			<line style="fill:none;stroke:#000000;stroke-width:0.5;" x1="12.708" y1="19.312" x2="26.958" y2="19.312"/>
			<path d="M29.825,19.312c-1.349,0.5-3.022,1.354-4.06,2.259l0.817-2.259l-0.817-2.258C26.803,17.958,28.476,18.812,29.825,19.312z
				"/>
			<path d="M9.842,19.312c1.349-0.5,3.022-1.354,4.06-2.259l-0.817,2.259l0.817,2.258C12.864,20.667,11.19,19.813,9.842,19.312z"/>
		</g>
		<g>
			<line style="fill:none;stroke:#000000;stroke-width:0.5;" x1="53.188" y1="19.312" x2="67.438" y2="19.312"/>
			<path d="M70.304,19.312c-1.349,0.5-3.022,1.354-4.06,2.259l0.817-2.259l-0.817-2.258C67.282,17.958,68.955,18.812,70.304,19.312z
				"/>
			<path d="M50.321,19.312c1.349-0.5,3.022-1.354,4.06-2.259l-0.817,2.259l0.817,2.258C53.343,20.667,51.669,19.813,50.321,19.312z"
				/>
		</g>
		<g>
			<line style="fill:none;stroke:#000000;stroke-width:0.5;" x1="33.935" y1="19.292" x2="46.271" y2="19.292"/>
			<path d="M49.347,19.292c-1.447,0.516-3.242,1.397-4.355,2.329l0.876-2.329l-0.876-2.329C46.104,17.895,47.9,18.776,49.347,19.292
				z"/>
			<path d="M30.859,19.292c1.447-0.516,3.242-1.397,4.355-2.329l-0.876,2.329l0.876,2.329
				C34.102,20.688,32.306,19.808,30.859,19.292z"/>
		</g>
		<g>
			<text transform="matrix(1 0 0 1 17.5 12)"><tspan x="0" y="0" style="font-family:Liberation Sans; font-size:10.200000;">1</tspan></text>
		</g>
		<g>
			<text transform="matrix(1 0 0 1 37.5 12)"><tspan x="0" y="0" style="font-family:Liberation Sans; font-size:10.200000;">2</tspan></text>
		</g>
		<g>
			<text transform="matrix(1 0 0 1 57.5 12)"><tspan x="0" y="0" style="font-family:Liberation Sans; font-size:10.200000;">3</tspan></text>
		</g>
	</g>
</svg>
