<?xml version="1.0" encoding="UTF-8" standalone="no"?>
<!-- Generator: Adobe Illustrator 11 Build 196, SVG Export Plug-In . SVG Version: 6.0.0 Build 78)  -->
<svg
   xmlns:dc="http://purl.org/dc/elements/1.1/"
   xmlns:cc="http://web.resource.org/cc/"
   xmlns:rdf="http://www.w3.org/1999/02/22-rdf-syntax-ns#"
   xmlns:svg="http://www.w3.org/2000/svg"
   xmlns="http://www.w3.org/2000/svg"
   xmlns:sodipodi="http://sodipodi.sourceforge.net/DTD/sodipodi-0.dtd"
   xmlns:inkscape="http://www.inkscape.org/namespaces/inkscape"
   width="147.401"
   height="161.463"
   viewBox="0 0 147.401 161.463"
   style="overflow:visible;enable-background:new 0 0 147.401 161.463"
   xml:space="preserve"
   id="svg2"
   sodipodi:version="0.32"
   sodipodi:docname="hw-rod-finger-string.svg"
   inkscape:output_extension="org.inkscape.output.svg.inkscape"
   sodipodi:docbase="/home/bcrowell/Documents/writing/books/physics/2cl/ch05/figs"><metadata
   id="metadata90"><rdf:RDF><cc:Work
       rdf:about=""><dc:format>image/svg+xml</dc:format><dc:type
         rdf:resource="http://purl.org/dc/dcmitype/StillImage" /></cc:Work></rdf:RDF></metadata><defs
   id="defs88">
		
		 
	
			
			 
			
			
			
			
			
			
			
			
			 
			 
			
			
		
				 
				
					 
				
					 
				
					 
				 
				 
				 
				 
				
					 
			</defs><sodipodi:namedview
   inkscape:cy="86.513608"
   inkscape:cx="83.414613"
   inkscape:zoom="4.5501495"
   inkscape:window-height="996"
   inkscape:window-width="1278"
   inkscape:pageshadow="2"
   inkscape:pageopacity="0.0"
   guidetolerance="10.0"
   gridtolerance="10.0"
   objecttolerance="10.0"
   borderopacity="1.0"
   bordercolor="#666666"
   pagecolor="#ffffff"
   id="base"
   inkscape:window-x="0"
   inkscape:window-y="0"
   inkscape:current-layer="svg2" />
	<style
   type="text/css"
   id="style4">
	
	</style>
	<ellipse
   sodipodi:ry="5.7979999"
   sodipodi:rx="2.392"
   sodipodi:cy="73.417"
   sodipodi:cx="40.094002"
   id="ellipse11"
   ry="5.7979999"
   rx="2.392"
   cy="73.417"
   cx="40.094002"
   style="fill:#737373;fill-opacity:1" /><ellipse
   sodipodi:ry="3.1889999"
   sodipodi:rx="5.7979999"
   sodipodi:cy="84.625999"
   sodipodi:cx="34.724998"
   id="ellipse13"
   ry="3.1889999"
   rx="5.7979999"
   cy="84.625999"
   cx="34.724998"
   style="fill:#737373;fill-opacity:1"
   transform="matrix(-0.2249,-0.9744,0.9744,-0.2249,-39.9226,137.4961)" /><ellipse
   sodipodi:ry="3.1889999"
   sodipodi:rx="5.7979999"
   sodipodi:cy="87.304001"
   sodipodi:cx="29.125999"
   id="ellipse15"
   ry="3.1889999"
   rx="5.7979999"
   cy="87.304001"
   cx="29.125999"
   style="fill:#737373;fill-opacity:1"
   transform="matrix(-0.2249,-0.9744,0.9744,-0.2249,-49.3894,135.3219)" /><ellipse
   sodipodi:ry="3.1889999"
   sodipodi:rx="5.7979999"
   sodipodi:cy="90.549004"
   sodipodi:cx="24.184999"
   id="ellipse17"
   ry="3.1889999"
   rx="5.7979999"
   cy="90.549004"
   cx="24.184999"
   style="fill:#737373;fill-opacity:1"
   transform="matrix(-0.225,-0.9744,0.9744,-0.225,-58.6016,134.4852)" /><ellipse
   sodipodi:ry="8.408"
   sodipodi:rx="10.727"
   sodipodi:cy="97.146004"
   sodipodi:cx="32.060001"
   id="ellipse19"
   ry="8.408"
   rx="10.727"
   cy="97.146004"
   cx="32.060001"
   style="fill:#737373;fill-opacity:1" /><rect
   id="rect21"
   height="13.53"
   width="15.17"
   style="fill:#737373;fill-opacity:1"
   y="98.582001"
   x="25.705" /><ellipse
   sodipodi:ry="6.3779998"
   sodipodi:rx="4.059"
   sodipodi:cy="96.942001"
   sodipodi:cx="42.556999"
   id="ellipse23"
   ry="6.3779998"
   rx="4.059"
   cy="96.942001"
   cx="42.556999"
   style="fill:#737373;fill-opacity:1" /><rect
   id="rect25"
   height="24.927999"
   width="5.2579999"
   style="fill:#737373;fill-opacity:1"
   y="72.997002"
   x="37.425999" /><rect
   id="rect27"
   height="6.5600004"
   width="9.8400002"
   style="fill:#737373;fill-opacity:1"
   transform="matrix(-0.342,0.9397,-0.9397,-0.342,0,0)"
   y="-75.547073"
   x="78.9216" /><rect
   x="4"
   y="54.841999"
   style="fill:none;stroke:#000000;stroke-width:0.5"
   width="136.08"
   height="12.997"
   id="rect29" /><g
   id="g31">
				<g
   id="g33">
					<text
   transform="translate(68,65)"
   id="text35"><tspan
     x="0"
     y="0"
     style="font-size:8.5px;font-family:Liberation Sans"
     id="tspan37">m</tspan></text>

				</g>
			</g><line
   style="fill:none;stroke:#b4b4b4;stroke-width:3"
   x1="138"
   y1="54"
   x2="138"
   y2="0"
   id="line39" /><line
   style="fill:none;stroke:#000000;stroke-width:0.5"
   x1="41"
   y1="121"
   x2="41"
   y2="133"
   id="line41" /><line
   style="fill:none;stroke:#000000;stroke-width:0.5"
   x1="139"
   y1="121"
   x2="139"
   y2="133"
   id="line43" /><line
   style="fill:none;stroke:#000000;stroke-width:0.5"
   x1="6"
   y1="145"
   x2="6"
   y2="157"
   id="line45" /><line
   style="fill:none;stroke:#000000;stroke-width:0.5"
   x1="139"
   y1="145"
   x2="139"
   y2="157"
   id="line47" /><g
   id="g49">
				<line
   style="fill:none;stroke:#000000;stroke-width:0.5"
   x1="15"
   y1="152"
   x2="133"
   y2="152"
   id="line51" />
				<path
   d="M 136.018,152 C 134.598,152.527 132.836,153.426 131.745,154.377 L 132.605,152 L 131.745,149.623 C 132.836,150.574 134.598,151.474 136.018,152 z "
   id="path53" />
				<path
   d="M 11.982,152 C 13.402,151.473 15.164,150.574 16.255,149.623 L 15.396,152 L 16.256,154.377 C 15.164,153.426 13.402,152.526 11.982,152 z "
   id="path55" />
			</g><g
   id="g57">
				<line
   style="fill:none;stroke:#000000;stroke-width:0.5"
   x1="49"
   y1="128"
   x2="133"
   y2="128"
   id="line59" />
				<path
   d="M 136.018,128 C 134.598,128.527 132.836,129.426 131.745,130.377 L 132.605,128 L 131.745,125.623 C 132.836,126.574 134.598,127.474 136.018,128 z "
   id="path61" />
				<path
   d="M 45.982,128 C 47.402,127.473 49.164,126.574 50.255,125.623 L 49.396,128 L 50.256,130.377 C 49.164,129.426 47.402,128.526 45.982,128 z "
   id="path63" />
			</g><rect
   x="65"
   y="145"
   style="fill:#ffffff"
   width="13"
   height="14"
   id="rect65" /><rect
   x="85"
   y="122"
   style="fill:#ffffff"
   width="13"
   height="14"
   id="rect67" /><g
   id="g69">
				<g
   id="g71">
					<text
   transform="translate(88,132)"
   id="text73"><tspan
     x="0"
     y="0"
     style="font-size:8.5px;font-family:Liberation Sans"
     id="tspan75">b</tspan></text>

				</g>
			</g><g
   id="g77">
				<g
   id="g79">
					<text
   transform="translate(69,157)"
   id="text81"><tspan
     x="0"
     y="0"
     style="font-size:8.5px;font-family:Liberation Sans"
     id="tspan83">L</tspan></text>

				</g>
			</g><rect
   x="0"
   id="rect85"
   height="2.835"
   width="147.401"
   style="fill:none"
   y="77.188004" />
</svg>