<?xml version="1.0" encoding="UTF-8" standalone="no"?>
<!-- Generator: Adobe Illustrator 13.0.0, SVG Export Plug-In . SVG Version: 6.00 Build 14948)  -->

<svg
   xmlns:dc="http://purl.org/dc/elements/1.1/"
   xmlns:cc="http://creativecommons.org/ns#"
   xmlns:rdf="http://www.w3.org/1999/02/22-rdf-syntax-ns#"
   xmlns:svg="http://www.w3.org/2000/svg"
   xmlns="http://www.w3.org/2000/svg"
   xmlns:sodipodi="http://sodipodi.sourceforge.net/DTD/sodipodi-0.dtd"
   xmlns:inkscape="http://www.inkscape.org/namespaces/inkscape"
   version="1.0"
   id="svg2"
   x="0px"
   y="0px"
   width="2000px"
   height="729.984px"
   viewBox="0 0 2000 729.984"
   enable-background="new 0 0 2000 729.984"
   xml:space="preserve"
   sodipodi:docname="stride.svg"><title
   id="title3826">Largest Theropods</title><metadata
   id="metadata72"><rdf:RDF><cc:Work
       rdf:about=""><dc:format>image/svg+xml</dc:format><dc:type
         rdf:resource="http://purl.org/dc/dcmitype/StillImage" /><dc:title>Largest Theropods</dc:title><dc:description>Size comparison of selected giant theropod dinosaurs and a human. Adapted from illustrations and scale diagrams by ArthurWeasley, Steveoc 86, Scott Hartman, Ville Sinkkonen, and Gregory S. Paul.</dc:description><dc:creator><cc:Agent><dc:title>ArthurWeasley, Steveoc 86, Scott Hartman, Ville Sinkkonen, and Gregory S. Paul</dc:title></cc:Agent></dc:creator><dc:contributor><cc:Agent><dc:title>Wiki Commons users Dhatfield, MissMJ, Dinoguy2, FunkMonk, zapyon</dc:title></cc:Agent></dc:contributor><cc:license
         rdf:resource="http://creativecommons.org/licenses/by-nc-sa/3.0/" /><dc:source>http://commons.wikimedia.org/wiki/File:Largesttheropods.svg</dc:source><dc:language>any</dc:language><dc:subject><rdf:Bag><rdf:li>dinosaurs</rdf:li><rdf:li>theropods</rdf:li><rdf:li>theropoda</rdf:li><rdf:li>dinosauria</rdf:li><rdf:li>scale</rdf:li><rdf:li>sizes</rdf:li><rdf:li>spinosaurus</rdf:li><rdf:li>gigantosaurus</rdf:li><rdf:li>tyrannosaurus</rdf:li><rdf:li>mapusaurus</rdf:li></rdf:Bag></dc:subject></cc:Work><cc:License
       rdf:about="http://creativecommons.org/licenses/by-nc-sa/3.0/"><cc:permits
         rdf:resource="http://creativecommons.org/ns#Reproduction" /><cc:permits
         rdf:resource="http://creativecommons.org/ns#Distribution" /><cc:requires
         rdf:resource="http://creativecommons.org/ns#Notice" /><cc:requires
         rdf:resource="http://creativecommons.org/ns#Attribution" /><cc:prohibits
         rdf:resource="http://creativecommons.org/ns#CommercialUse" /><cc:permits
         rdf:resource="http://creativecommons.org/ns#DerivativeWorks" /><cc:requires
         rdf:resource="http://creativecommons.org/ns#ShareAlike" /></cc:License></rdf:RDF></metadata><defs
   id="defs70"><inkscape:perspective
   sodipodi:type="inkscape:persp3d"
   inkscape:vp_x="0 : 364.992 : 1"
   inkscape:vp_y="0 : 1000 : 0"
   inkscape:vp_z="2000 : 364.992 : 1"
   inkscape:persp3d-origin="1000 : 243.328 : 1"
   id="perspective74" /><filter
   inkscape:collect="always"
   id="filter3680"><feGaussianBlur
     inkscape:collect="always"
     stdDeviation="3.8453991"
     id="feGaussianBlur3682" /></filter><filter
   inkscape:collect="always"
   id="filter3708"><feGaussianBlur
     inkscape:collect="always"
     stdDeviation="3.9786649"
     id="feGaussianBlur3710" /></filter><filter
   inkscape:collect="always"
   id="filter3728"><feGaussianBlur
     inkscape:collect="always"
     stdDeviation="5.4087973"
     id="feGaussianBlur3730" /></filter><filter
   inkscape:collect="always"
   id="filter3732"><feGaussianBlur
     inkscape:collect="always"
     stdDeviation="5.4087973"
     id="feGaussianBlur3734" /></filter><filter
   inkscape:collect="always"
   id="filter3736"><feGaussianBlur
     inkscape:collect="always"
     stdDeviation="5.4087973"
     id="feGaussianBlur3738" /></filter><filter
   inkscape:collect="always"
   id="filter3740"
   x="-0.19938872"
   width="1.3987774"
   y="-0.073108947"
   height="1.1462179"><feGaussianBlur
     inkscape:collect="always"
     stdDeviation="5.4087973"
     id="feGaussianBlur3742" /></filter>
	
	
	
	
	
	
	
	
	
	










</defs><sodipodi:namedview
   pagecolor="#ffffff"
   bordercolor="#666666"
   borderopacity="1"
   objecttolerance="10"
   gridtolerance="10"
   guidetolerance="10"
   inkscape:pageopacity="0"
   inkscape:pageshadow="2"
   inkscape:window-width="1280"
   inkscape:window-height="998"
   id="namedview68"
   showgrid="false"
   inkscape:zoom="0.24530402"
   inkscape:cx="328.95719"
   inkscape:cy="83.145162"
   inkscape:window-x="0"
   inkscape:window-y="0"
   inkscape:window-maximized="1"
   inkscape:current-layer="svg2" />









<rect
   style="fill:#dedede;fill-opacity:1;stroke:none"
   id="rect4070"
   width="1850.7646"
   height="766.39594"
   x="-32.612591"
   y="-16.02903"
   transform="translate(0,-4.3945312e-6)" /><path
   style="color:#000000;fill:#000000;stroke:none;stroke-width:1.25000000000000000;stroke-linecap:butt;stroke-linejoin:miter;stroke-miterlimit:4;stroke-opacity:1;stroke-dasharray:none;stroke-dashoffset:0;marker:none;visibility:visible;display:inline;overflow:visible;enable-background:accumulate;fill-opacity:1"
   d="m 208.81205,153.66275 -0.75932,-9.87111 6.07454,-8.35248 6.83384,-5.31522 20.50155,9.1118 22.7795,2.27795 52.39284,10.63043 14.42701,-9.87112 11.38975,1.51864 12.90838,10.63043 10.63043,8.35248 29.61335,-0.75932 34.16924,7.59317 c 0,0 25.81677,5.31522 37.20651,13.6677 11.38975,8.35248 12.90839,13.6677 31.13198,18.98291 18.2236,5.31522 56.94874,-11.38975 70.61644,-28.85403 13.6677,-17.46428 47.07763,-63.02327 65.30122,-70.61644 18.2236,-7.593162 59.22669,-36.44719 88.84004,-40.243773 29.61334,-3.796583 43.28104,-7.593165 101.74842,9.111799 58.46737,16.704964 96.4332,19.74223 107.06363,31.131974 10.63043,11.38975 32.65061,44.79968 45.55899,75.17234 12.90838,30.37266 40.24381,64.54191 52.39281,69.09781 12.1491,4.5559 63.0233,26.57608 148.8261,32.65061 85.8027,6.07453 110.8602,13.6677 147.3074,15.94565 36.4472,2.27795 9.1118,-6.83385 94.1552,15.94564 85.0435,22.7795 202.7376,80.48756 247.5372,109.34159 44.7997,28.85402 47.837,38.72514 47.837,38.72514 l -116.9348,-48.59626 c 0,0 -89.5993,-43.28104 -176.1614,-54.67079 -86.5621,-11.38975 -150.3447,-10.63043 -271.8353,-1.51863 -121.4907,9.11179 -202.73755,28.85402 -202.73755,28.85402 l -30.37267,22.7795 -31.13197,-6.83385 -21.26087,22.7795 c 0,0 9.87112,9.87111 15.94565,25.05744 6.07453,15.18634 6.07453,33.40993 10.63043,45.559 4.5559,12.14906 16.70497,16.70496 21.26087,26.57608 4.55589,9.87111 8.35248,51.63352 12.14906,62.26395 3.79658,10.63043 16.70496,34.16925 16.70496,34.16925 l -9.11179,-0.75932 -3.79659,-5.31522 -6.07453,6.83385 -4.5559,29.61335 c 0,0 -37.96583,5.31521 -45.55899,4.5559 -7.59317,-0.75932 -12.90838,-4.5559 -12.90838,-4.5559 l -1.51864,-3.79658 -15.18633,1.51863 18.2236,-11.38975 22.7795,-3.79658 11.38974,-29.61335 -15.18633,-45.55899 c 0,0 -4.5559,-24.29813 -22.77949,-32.65061 -18.2236,-8.35248 -58.46738,-28.85403 -65.30123,-49.35558 -6.83384,-20.50154 -15.94564,-33.40992 -15.94564,-41.76241 0,-8.35248 0,-10.63043 0,-10.63043 l -7.59317,0.75932 3.79658,16.70496 c 0,0 1.51864,18.2236 -2.27794,26.57608 -3.79659,8.35248 -18.98292,30.37266 -19.74224,41.76241 -0.75931,11.38975 4.5559,30.37266 4.5559,30.37266 0,0 -11.38974,35.68788 -11.38974,46.31831 0,10.63043 0,37.20651 0,37.20651 l -7.59317,-10.63043 -1.51863,6.83385 -0.75932,13.6677 -47.07762,1.51863 -10.63044,3.03727 -4.5559,-6.07453 -14.42701,0.75931 0,-6.07453 39.48446,-15.94565 c 0,0 8.35248,-15.94565 14.42701,-28.85403 6.07454,-12.90838 3.79659,-22.77949 3.79659,-34.16924 0,-11.38975 -14.42702,-49.35558 -14.42702,-66.81986 0,-17.46428 -6.83385,-41.00309 -5.31521,-48.59626 1.51863,-7.59316 6.83385,-21.26086 6.83385,-21.26086 0,0 -34.92856,-15.94565 -44.04036,-18.98291 -9.1118,-3.03727 -47.07763,-10.63043 -47.07763,-10.63043 l 0.75932,10.63043 c 0,0 -3.03727,14.42701 -7.59317,20.50154 -4.5559,6.07454 -18.98291,25.05745 -18.98291,25.05745 l -1.51863,8.35248 -4.5559,3.79658 0.75931,14.42702 -6.07453,9.87111 -3.79658,-5.31521 -3.79659,24.29813 -6.07453,6.07453 -9.87111,13.6677 0.75931,-17.46428 9.1118,-26.57608 -9.87111,26.57608 -8.35248,9.1118 -12.90839,14.42701 -6.07453,3.79658 9.87112,-17.46428 -1.51864,-9.1118 11.38975,-16.70496 3.03727,-12.14906 3.79658,-9.87112 -8.35248,8.35248 -11.38975,11.38975 -27.33539,9.1118 17.46428,-12.90838 11.38974,-12.90838 18.2236,-16.70497 9.1118,-25.81676 9.87111,-17.46428 -24.29812,25.05745 -16.70497,24.29812 -10.63043,-4.55589 -12.90838,24.29813 -5.31522,-2.27795 -14.42701,12.14906 6.07453,-13.6677 17.46428,-19.74223 -22.02018,18.98292 -25.81676,18.98291 15.94565,-23.53881 2.27795,-7.59317 18.22359,-13.6677 -19.74223,2.27795 -19.74223,-6.83385 29.61335,-3.03726 10.63043,-7.59317 7.59316,-1.51863 35.68788,-37.20651 3.03727,-6.07453 -10.63043,-15.18633 -2.27795,-15.94565 -12.90838,-9.87112 c 0,0 -1.51864,-14.42701 -8.35249,-23.53881 -6.83384,-9.1118 -34.16924,-25.05745 -34.16924,-25.05745 l -16.70496,-1.51863 -4.5559,-7.59316 -27.3354,1.51863 c 0,0 -22.02018,-22.02018 -31.13198,-23.53881 -9.1118,-1.51864 -41.76241,-5.31522 -44.79967,-3.79659 -3.03727,1.51864 -7.59317,7.59317 -15.94565,7.59317 -8.35248,0 -26.57608,3.03726 -26.57608,3.03726 0,0 -25.81676,-0.75931 -29.61335,-0.75931 -3.79658,0 -21.26086,11.38975 -21.26086,11.38975 l -24.29813,13.66769 c 0,0 -12.90838,0 -15.18633,-3.79658 -2.27795,-3.79658 -8.35248,-9.87111 -8.35248,-9.87111 l 8.35248,-8.35249 -3.79658,-6.83384 9.1118,8.35248 -1.51864,-9.1118 -1.51863,4.5559 6.83385,-7.59317 3.79658,9.87112 1.51864,-10.63043 8.35248,9.87111 0,-8.35248 7.59316,3.79658 -1.51863,-4.5559 7.59317,3.03727 17.46428,-14.42702 c 0,0 -9.1118,-3.03726 -13.6677,-6.83384 -4.5559,-3.79659 -25.81676,-6.83385 -25.81676,-6.83385 l 15.94564,-5.31522 c 0,0 13.6677,-1.51863 22.7795,-0.75932 9.1118,0.75932 21.26086,-6.07453 21.26086,-6.07453 l 9.87112,-2.27795 2.27795,-37.20651 -4.5559,-1.51863 -9.1118,4.5559 0.75932,-5.31522 -6.83385,3.79659 0,-7.59317 -3.79659,7.59317 0,-9.1118 -8.35248,6.07453 0.75932,-8.35248 -12.14907,8.35248 3.79659,-10.63043 -15.18633,9.1118 8.35248,-10.63044 c 0,0 -17.46428,4.5559 -15.18633,0.75932 2.27795,-3.79658 6.83385,-14.42701 6.83385,-14.42701 l -30.37267,1.51863 -6.83384,12.14906 z"
   id="path3298"
   inkscape:connector-curvature="0"
   transform="translate(0,-4.3945312e-6)" /><path
   style="color:#000000;fill:#000000;stroke:none;stroke-width:1.25000000000000000;stroke-linecap:butt;stroke-linejoin:miter;stroke-miterlimit:4;stroke-opacity:1;stroke-dasharray:none;stroke-dashoffset:0;marker:none;visibility:visible;display:inline;overflow:visible;enable-background:accumulate;fill-opacity:1"
   d="m 76.073621,565.76931 c 0,0 -14.052544,5.76515 -15.49383,8.10724 -1.441287,2.34209 -7.927076,10.98981 -7.927076,10.98981 l 15.673991,24.50187 c 0,0 0.18016,9.00804 0.720643,11.71045 0.540482,2.70241 -6.846111,4.86434 -6.846111,4.86434 l 0.18016,4.50403 14.593027,-3.42306 -0.540482,-11.53029 -3.242895,-16.03432 -2.16193,-9.36836 -6.485789,-3.24289 19.81769,-3.42306 c 0,0 12.070775,15.67399 14.773187,17.65576 2.702414,1.98177 9.728684,9.00804 9.728684,9.00804 0,0 8.64772,-1.26112 10.98981,-2.52225 2.34209,-1.26113 15.85415,-8.82788 15.85415,-8.82788 l 9.90885,-6.30563 9.90884,-1.26112 -3.96354,-4.32386 -8.82788,-2.16193 -4.86434,-1.26113 -1.98177,1.08097 0.72065,4.32386 -5.58499,3.96353 c 0,0 -1.44129,1.08097 -3.78338,1.26113 -2.34209,0.18016 -4.68418,-0.18016 -5.9453,0.54048 -1.26113,0.72064 -8.46756,4.86434 -8.46756,4.86434 0,0 -2.88258,-4.86434 -3.2429,-7.92707 -0.36032,-3.06274 -6.48579,-12.97158 -6.48579,-12.97158 0,0 2.88258,-4.68418 1.08097,-9.36836 -1.80161,-4.68419 -8.64772,-11.89062 -8.64772,-11.89062 0,0 -0.540483,-7.56675 0,-10.44933 0.540482,-2.88257 3.423055,-17.29543 3.423055,-17.29543 l 5.044505,5.22466 -5.584987,-0.18016 -0.360322,3.60322 12.971579,2.88257 c 0,0 4.1437,-0.36032 4.32386,-1.26113 0.18016,-0.9008 -1.26113,-4.68418 -2.88257,-5.9453 -1.62145,-1.26113 -9.18821,-8.64772 -9.18821,-8.64772 l -5.40482,-7.02628 -7.386593,-1.98176 -3.423056,1.08096 4.684181,-4.86434 -4.143698,-6.84611 -8.287398,-7.20644 -10.449328,0.18016 c 0,0 -5.224663,1.80161 -4.864342,3.42306 0.360322,1.62145 0.360322,5.22466 0.360322,5.22466 l -2.16193,3.42306 -0.180161,3.96354 1.801608,1.26112 1.261126,4.32386 6.305629,0.72065 3.062734,6.66595 -7.026272,3.42305 -1.441287,8.46756 0,4.32386 c 0,0 -2.34209,2.70241 -2.34209,4.50402 0,1.80161 -0.900805,7.56676 -0.900805,7.56676 l -9.728684,2.52225 -8.107237,1.08096 -5.584985,1.08097 c 0,0 -1.261126,1.8016 -0.900804,3.42305 0.360321,1.62145 1.981769,3.78338 1.981769,3.78338 l 3.062734,-1.26113 4.864342,-2.16193 17.295439,-0.72064 2.161929,-0.18016 4.684182,-9.72868 c 0,0 3.062734,3.60321 3.423055,5.9453 0.360322,2.34209 0.180161,6.12547 0.180161,6.12547 z"
   id="path3300"
   inkscape:connector-curvature="0"
   sodipodi:nodetypes="csccsccccccccscscccccccccsscscscscccccssccccccccsccccccccccsccccsccccccsc" /></svg>