<?xml version="1.0" encoding="UTF-8" standalone="no"?>
<!-- Created with Inkscape (http://www.inkscape.org/) -->

<svg
   xmlns:dc="http://purl.org/dc/elements/1.1/"
   xmlns:cc="http://creativecommons.org/ns#"
   xmlns:rdf="http://www.w3.org/1999/02/22-rdf-syntax-ns#"
   xmlns:svg="http://www.w3.org/2000/svg"
   xmlns="http://www.w3.org/2000/svg"
   xmlns:sodipodi="http://sodipodi.sourceforge.net/DTD/sodipodi-0.dtd"
   xmlns:inkscape="http://www.inkscape.org/namespaces/inkscape"
   width="210mm"
   height="297mm"
   viewBox="0 0 744.09448819 1052.3622047"
   id="svg2"
   version="1.1"
   sodipodi:docname="hw-stemming.svg">
  <defs
     id="defs4" />
  <sodipodi:namedview
     id="base"
     pagecolor="#ffffff"
     bordercolor="#666666"
     borderopacity="1.0"
     inkscape:pageopacity="0.0"
     inkscape:pageshadow="2"
     inkscape:zoom="0.6033574"
     inkscape:cx="206.35014"
     inkscape:cy="757.59146"
     inkscape:document-units="mm"
     inkscape:current-layer="layer1"
     showgrid="false"
     inkscape:window-width="1280"
     inkscape:window-height="998"
     inkscape:window-x="0"
     inkscape:window-y="0"
     inkscape:window-maximized="1"
     showguides="true" />
  <metadata
     id="metadata7">
    <rdf:RDF>
      <cc:Work
         rdf:about="">
        <dc:format>image/svg+xml</dc:format>
        <dc:type
           rdf:resource="http://purl.org/dc/dcmitype/StillImage" />
      </cc:Work>
    </rdf:RDF>
  </metadata>
  <g
     inkscape:label="Layer 1"
     inkscape:groupmode="layer"
     id="layer1">
    <rect
       style="color:#000000;clip-rule:nonzero;display:inline;overflow:visible;visibility:visible;opacity:1;isolation:auto;mix-blend-mode:normal;color-interpolation:sRGB;color-interpolation-filters:linearRGB;solid-color:#000000;solid-opacity:1;fill:#dedede;fill-opacity:1;fill-rule:nonzero;stroke:none;stroke-width:0.875;stroke-linecap:butt;stroke-linejoin:miter;stroke-miterlimit:1;stroke-dasharray:none;stroke-dashoffset:0;stroke-opacity:1;color-rendering:auto;image-rendering:auto;shape-rendering:auto;text-rendering:auto;enable-background:accumulate"
       id="rect4218"
       width="184.25197"
       height="257.32291"
       x="111.23338"
       y="30.831295" />
    <path
       style="color:#000000;clip-rule:nonzero;display:inline;overflow:visible;visibility:visible;opacity:1;isolation:auto;mix-blend-mode:normal;color-interpolation:sRGB;color-interpolation-filters:linearRGB;solid-color:#000000;solid-opacity:1;fill:#ffffff;fill-opacity:1;fill-rule:evenodd;stroke:none;stroke-width:1;stroke-linecap:butt;stroke-linejoin:miter;stroke-miterlimit:4;stroke-dasharray:none;stroke-dashoffset:0;stroke-opacity:1;marker:none;marker-start:none;marker-mid:none;marker-end:none;color-rendering:auto;image-rendering:auto;shape-rendering:auto;text-rendering:auto;enable-background:accumulate"
       d="m 204.59915,91.173163 -2.49805,0.21679 -2.93359,1.95508 -0.94531,0.94532 c -0.23267,0.19099 -0.39063,0.33007 -0.39063,0.33007 0,0 -0.0203,0.0704 -0.0254,0.0859 l -1.35547,1.35547 -0.19922,0.64648 c -0.70299,1.09796 -1.19531,3.1543 -1.19531,3.1543 l -1.11719,0.609377 0.81641,2.73046 1.375,0.12305 1.96094,1.65625 1.18945,1.10938 -0.041,-0.14063 0.25391,0.21485 0.26953,2.09375 -1.16601,3.4414 c 0.23863,-0.23903 0.4422,-0.4938 0.61914,-0.75781 -0.54682,1.0805 -1.2129,2.40011 -1.93164,3.86914 l -8.11329,-0.17188 -0.39648,0.31055 c -3.04384,0.73991 -4.28233,1.22509 -5.82227,2.69922 -0.89842,0.86 -2.32108,3.04087 -3.48242,4.92578 l -4.27929,4.56641 -0.69727,0.41406 -0.26563,-0.0723 -0.0937,0.0449 c 0,0 -0.73225,0.62832 -1.44921,1.25391 -0.26136,0.216 -0.51292,0.44123 -0.75977,0.67383 -0.58717,0.52304 -1.10254,0.99365 -1.13477,1.07422 -0.0103,0.0258 -0.29613,0.39118 -0.38085,0.50976 -1.15583,1.34314 -2.05002,2.63311 -2.72266,3.53711 l -0.55469,-0.88281 0.33985,0.25195 c -0.22462,-0.30453 -0.49246,-0.62483 -0.77735,-0.95117 l -0.57812,-0.92187 -5.95703,-5.1875 -2.58985,-1.70508 c -5.98485,-4.40934 -12.76009,-8.68453 -15.82813,-10.58008 -0.4345,-0.28617 -1.61719,-1.06836 -1.61719,-1.06836 l -0.68359,0.23633 0.0937,-0.17578 c -0.75599,-0.14913 -1.52982,-0.1869 -2.26562,-0.16016 -2.20741,0.0802 -4.07032,0.74219 -4.07032,0.74219 0,0 -1.34611,1.81666 -0.64062,1.79102 0.70549,-0.0257 3.32422,-0.82813 3.32422,-0.82813 l 0.27539,0.008 -1.98828,1.68946 c -1.28007,0.62531 -2.34361,1.29495 -2.75,1.82031 -0.84341,1.09027 -4.70508,1.75976 -4.70508,1.75976 l 0.85156,1.18164 -0.0312,0.008 c 0,0 -0.76456,0.56186 -1.01953,0.71484 -0.25498,0.15299 0.50958,0.91862 1.01953,0.76563 0.20026,-0.0601 0.87342,-0.23798 1.52148,-0.41211 l 0.16016,0.76757 c 0,0 1.27038,-0.17217 2.50977,-0.47851 l 3.6582,0.36523 6.84961,-2.28515 c 7.72139,8.84378 19.27715,19.93716 20.16993,20.6914 0.99287,0.83882 3.47265,1.62305 3.47265,1.62305 0,0 1.86933,0.89589 2.38086,0.52734 0.51155,-0.36855 8.90261,-5.39835 9.66992,-5.95117 0.64929,-0.46779 5.85462,-4.47938 7.70703,-5.90625 l 0.5254,1.94336 -0.0234,0 c -0.36413,4.04287 0.93557,9.29696 0.63476,12.63672 -0.26741,2.96908 -1.71399,4.99091 -3.64648,6.75195 l -0.51367,0.16407 -8.02735,7.80468 -0.084,0.0859 c -4.37268,2.95156 -7.06908,5.01857 -8.88281,6.41797 -2.5637,1.97805 -4.87801,4.56607 -7.31641,6.73828 -0.51222,0.45631 -2.35772,4.51007 -3.77344,4.93359 -1.41572,0.42352 -5.3015,3.79304 -7.05078,6.39063 -1.74929,2.5976 -9.00344,15.85927 -10.28125,17.81055 -0.5826,0.88965 -2.14267,3.39307 -3.5918,5.72265 l -4.53516,6.49414 c -0.87039,-1.04271 -1.14501,-2.58377 -2.10156,-2.66992 -0.95654,-0.0861 -3.31621,0.11534 -3.77539,0.625 -0.45917,0.50968 -1.41344,3.4539 -1.54883,4.95703 -0.13538,1.50315 0.16399,2.77082 -0.0957,4.125 -0.25973,1.35419 0.12812,4.69507 2.45117,4.9043 2.32303,0.20923 5.37735,-1.58236 6.32031,-2.875 0.94298,-1.29265 9.96646,-9.71015 10.64844,-11.16406 0.68198,-1.45391 9.91396,-13.70966 10.50977,-14.20703 0.59582,-0.49737 8.21352,-10.14184 8.46094,-11.35938 0.24742,-1.21753 1.68564,-3.25031 3.1875,-3.5625 4.85283,-1.00877 14.41276,-2.55791 20.73047,-5.0293 1.7751,-0.69439 8.82617,-6.23047 8.82617,-6.23046 l 3.76172,-2.38086 c 0.86116,1.23303 3.16057,4.38965 5.3457,6.12304 1.87403,1.48661 7.97081,4.27555 13.55274,6.91211 l -0.45118,1.32031 0.14844,-1.24804 c -0.0445,0.49346 -0.43735,1.78565 -1.21484,1.82617 -0.77749,0.0405 -2.4916,1.26747 -2.58594,1.70117 -0.0943,0.4337 -0.48084,2.27773 -0.53516,2.88086 -0.0543,0.60312 0.0574,2.43693 0.28711,2.95508 0.22969,0.51816 0.87268,1.35055 1.2461,0.88672 0.37343,-0.46384 0.71164,-1.75906 0.73633,-2.03321 l 0.21679,-2.41211 0.15039,-0.0293 -0.0586,0.16992 0.16601,5.03125 -0.74804,1.37109 0.002,0.11914 -0.37109,0.29688 0.39062,0.7168 0.0137,0.61328 -0.20117,0.21875 0.36719,0.28711 c 0.10324,0.10618 0.24002,0.22915 0.38086,0.29883 l 0.13086,0.10156 c 0,0 0.0731,-0.0421 0.082,-0.0469 1.6e-4,-8e-5 0.002,9e-5 0.002,0 0.054,-0.006 0.10384,-0.0349 0.14649,-0.084 0.31332,-0.17132 1.13702,-0.63071 1.29883,-0.89258 0.19412,-0.31416 2.0305,-2.91358 2.47851,-3.5918 0.448,-0.67821 0.71236,-1.15047 0.8457,-2.63086 l -0.1289,0.125 0.0723,-0.33203 c 0.12591,-0.26023 0.22545,-0.49794 0.24024,-0.66211 0.0196,-0.21781 0.12366,-0.84907 0.21289,-1.41406 l 0.77734,-3.57226 c 1.00019,0.49219 1.96422,0.97288 2.78321,1.41015 3.76947,2.01262 16.79945,8.32264 19.01171,9.76172 2.21226,1.43907 10.72489,7.85439 13.73243,9.64063 3.00755,1.7862 16.60508,9.89837 18.00976,11.12695 1.40467,1.22858 2.51046,2.70504 3.87695,2.82812 1.36648,0.12307 6.76616,-4.76126 7.98243,-6.02929 1.21627,-1.26803 1.62443,-2.74798 1.03711,-6.9336 -0.5873,-4.18562 -4.69435,1.64439 -5.99805,2.35352 -1.30367,0.70911 -3.68649,2.69837 -5.33984,1.17187 -1.65336,-1.52648 -3.2692,-3.46327 -7.38477,-8.24218 -4.11557,-4.77892 -11.86956,-8.92012 -13.67188,-10.32227 -1.80231,-1.40215 -6.05192,-1.64735 -9.09765,-4.53906 -3.04573,-2.89171 -3.36664,-4.40875 -5.10742,-6.49414 -1.74078,-2.0854 -6.92664,-7.52049 -9.92188,-9.44336 -1.60904,-1.03297 -4.44558,-3.14749 -6.92773,-5.07422 0.88212,-4.82019 1.85035,-10.08147 1.99414,-10.78906 0.37143,-1.82763 0.34961,-6.17188 0.34961,-6.17188 l 0.70508,-3.24414 c 0,0 0.46223,-5.12926 0.55273,-8.42969 0.0848,-3.09297 0.37495,-14.52062 -3.0293,-19.31836 -10e-4,-0.002 -0.003,-0.004 -0.004,-0.006 l -0.57422,-1.19921 -3.91211,-0.97852 -1.03125,-0.12305 c -3.61605,-1.57278 -7.94531,-2.73437 -7.94531,-2.73437 l -1.20508,0.0273 0.0215,-0.70703 0.19141,-0.11914 -0.14844,-1.29883 0.12305,-4.0625 0.89648,-0.96093 1.93555,-1.22266 0.0527,-0.90625 0.15625,-0.16797 0.2168,-4.67187 -0.74023,-2.310547 c -5.9e-4,-0.12222 0.005,-0.16274 0.004,-0.29883 -0.006,-0.64697 -0.29968,-1.29499 -0.71094,-1.91406 l -0.29101,-0.91016 -1.00195,-0.66015 c -0.41906,-0.45109 -0.82241,-0.87576 -1.11524,-1.22657 -0.50264,-0.60214 -1.37763,-0.89146 -2.3457,-1.05859 l -0.96875,-0.63867 z m -4.68164,18.283197 0.01,0.0762 c 0,0 -0.12427,0.24889 -0.13476,0.26953 0.0446,-0.11552 0.088,-0.23143 0.125,-0.3457 z m 15.26562,27.23242 c -0.0863,2.54696 -0.59617,6.2226 -0.22851,7.7793 l 0.0957,0.4082 -0.0215,0.72656 0.60742,1.75782 0.0527,0.21875 0.002,-0.0664 0.3164,0.91602 0.75977,2.28125 -1.09766,4.99218 c 0.17577,-1.55818 0.24013,-2.1071 0.36328,-3.18164 l -0.44531,1.70703 -0.0293,1.98438 -0.66992,3.04883 c -0.11616,-0.22038 -0.24166,-0.43705 -0.34375,-0.66211 -0.8226,-1.81336 -1.68155,-2.98991 -5.63281,-6.50977 l 0.14258,-2.79101 0.10547,-0.23047 c -0.0853,0.89035 -0.1382,1.72269 -0.14258,2.3789 l 6.16601,-14.75781 z m 0.50586,10.89063 -0.0254,1.65625 c 0.28975,0.64241 0.48149,1.06789 0.59375,1.3164 0.003,-0.0258 0.043,-0.38086 0.043,-0.38086 l -0.61133,-2.59179 z"
       id="path4219-2"
       inkscape:connector-curvature="0" />
    <path
       style="color:#000000;clip-rule:nonzero;display:inline;overflow:visible;visibility:visible;opacity:1;isolation:auto;mix-blend-mode:normal;color-interpolation:sRGB;color-interpolation-filters:linearRGB;solid-color:#000000;solid-opacity:1;fill:#ffffff;fill-opacity:1;fill-rule:evenodd;stroke:none;stroke-width:0.875;stroke-linecap:butt;stroke-linejoin:miter;stroke-miterlimit:4;stroke-dasharray:none;stroke-dashoffset:0;stroke-opacity:1;marker:none;marker-start:none;marker-mid:none;marker-end:none;color-rendering:auto;image-rendering:auto;shape-rendering:auto;text-rendering:auto;enable-background:accumulate"
       d="m 111.39709,283.74296 8.68029,-4.96017 15.29385,-9.71366 21.08071,-4.54682 10.54036,-10.12701 9.50698,-5.37351 13.84714,-10.74703 5.16684,-3.72013 31.20772,18.60063 20.04734,11.16038 24.59416,14.8805 13.84714,7.44025 -1.65339,2.89343 -172.57249,-0.41335 z"
       id="path4448"
       inkscape:connector-curvature="0" />
    <g
       id="g4177">
      <g
         id="g4171">
        <path
           style="color:#000000;clip-rule:nonzero;display:inline;overflow:visible;visibility:visible;opacity:1;isolation:auto;mix-blend-mode:normal;color-interpolation:sRGB;color-interpolation-filters:linearRGB;solid-color:#000000;solid-opacity:1;fill:none;fill-opacity:1;fill-rule:evenodd;stroke:#000000;stroke-width:0.96625;stroke-linecap:butt;stroke-linejoin:miter;stroke-miterlimit:4;stroke-dasharray:none;stroke-dashoffset:0;stroke-opacity:1;marker:none;marker-start:none;marker-mid:none;marker-end:none;color-rendering:auto;image-rendering:auto;shape-rendering:auto;text-rendering:auto;enable-background:accumulate"
           d="m 199.64678,32.205008 0,14.406243 0.51501,3.457498 0,3.457499 0,9.219995 1.13861,26.209842"
           id="path4381"
           inkscape:connector-curvature="0"
           sodipodi:nodetypes="cccccc" />
        <path
           style="color:#000000;clip-rule:nonzero;display:inline;overflow:visible;visibility:visible;opacity:1;isolation:auto;mix-blend-mode:normal;color-interpolation:sRGB;color-interpolation-filters:linearRGB;solid-color:#000000;solid-opacity:1;fill:none;fill-opacity:1;fill-rule:evenodd;stroke:#000000;stroke-width:0.96625;stroke-linecap:butt;stroke-linejoin:miter;stroke-miterlimit:4;stroke-dasharray:none;stroke-dashoffset:0;stroke-opacity:1;marker:none;marker-start:none;marker-mid:none;marker-end:none;color-rendering:auto;image-rendering:auto;shape-rendering:auto;text-rendering:auto;enable-background:accumulate"
           d="m 195.52668,172.80994 0,4.61 -1.03002,15.55874 0,6.915 0.51502,13.82999 1.03002,11.52499 0.51501,5.7625 -1.03003,4.61 0,0"
           id="path4383"
           inkscape:connector-curvature="0" />
        <path
           style="color:#000000;clip-rule:nonzero;display:inline;overflow:visible;visibility:visible;opacity:1;isolation:auto;mix-blend-mode:normal;color-interpolation:sRGB;color-interpolation-filters:linearRGB;solid-color:#000000;solid-opacity:1;fill:none;fill-opacity:1;fill-rule:evenodd;stroke:#000000;stroke-width:0.96625;stroke-linecap:butt;stroke-linejoin:miter;stroke-miterlimit:4;stroke-dasharray:none;stroke-dashoffset:0;stroke-opacity:1;marker:none;marker-start:none;marker-mid:none;marker-end:none;color-rendering:auto;image-rendering:auto;shape-rendering:auto;text-rendering:auto;enable-background:accumulate"
           d="m 202.22184,239.07866 30.3857,17.28749 19.57045,11.52499 11.33026,6.915 21.11549,11.52499"
           id="path4385"
           inkscape:connector-curvature="0" />
        <path
           style="color:#000000;clip-rule:nonzero;display:inline;overflow:visible;visibility:visible;opacity:1;isolation:auto;mix-blend-mode:normal;color-interpolation:sRGB;color-interpolation-filters:linearRGB;solid-color:#000000;solid-opacity:1;fill:none;fill-opacity:1;fill-rule:evenodd;stroke:#000000;stroke-width:0.96625;stroke-linecap:butt;stroke-linejoin:miter;stroke-miterlimit:4;stroke-dasharray:none;stroke-dashoffset:0;stroke-opacity:1;marker:none;marker-start:none;marker-mid:none;marker-end:none;color-rendering:auto;image-rendering:auto;shape-rendering:auto;text-rendering:auto;enable-background:accumulate"
           d="m 190.89158,237.92616 -14.93535,11.52499 -9.27021,5.7625 -9.78522,9.79625 -22.14551,4.60999 -15.45035,9.79624"
           id="path4391"
           inkscape:connector-curvature="0" />
      </g>
      <g
         id="g4480">
        <path
           style="color:#000000;clip-rule:nonzero;display:inline;overflow:visible;visibility:visible;opacity:1;isolation:auto;mix-blend-mode:normal;color-interpolation:sRGB;color-interpolation-filters:linearRGB;solid-color:#000000;solid-opacity:1;fill:none;fill-opacity:1;fill-rule:evenodd;stroke:#000000;stroke-width:1;stroke-linecap:butt;stroke-linejoin:miter;stroke-miterlimit:4;stroke-dasharray:none;stroke-dashoffset:0;stroke-opacity:1;marker:none;marker-start:none;marker-mid:none;marker-end:none;color-rendering:auto;image-rendering:auto;shape-rendering:auto;text-rendering:auto;enable-background:accumulate"
           d="m 208.32217,151.5636 c 4.72371,4.14491 5.49841,5.24714 6.37832,7.18684 0.91624,2.01978 2.38081,3.94566 3.38784,5.00066 1.00703,1.05501 8.42487,6.82757 11.4201,8.75044 2.99524,1.92287 8.18132,7.35691 9.9221,9.44231 1.74078,2.08539 2.06107,3.60267 5.1068,6.49438 3.04573,2.89171 7.29415,3.1366 9.09646,4.53875 1.80232,1.40215 9.55691,5.54453 13.67248,10.32345 4.11557,4.77891 5.732,6.71535 7.38536,8.24183 1.65335,1.5265 4.03667,-0.46297 5.34034,-1.17208 1.3037,-0.70913 5.41041,-6.53833 5.99771,-2.35271 0.58732,4.18562 0.17864,5.66414 -1.03763,6.93217 -1.21627,1.26803 -6.61563,6.15425 -7.98211,6.03118 -1.36649,-0.12308 -2.47326,-1.60033 -3.87793,-2.82891 -1.40468,-1.22858 -15.00077,-9.34102 -18.00832,-11.12723 -3.00754,-1.78622 -11.52175,-8.20113 -13.73401,-9.6402 -2.21226,-1.43908 -15.24209,-7.74997 -19.01156,-9.76259 -5.97221,-3.18871 -17.70239,-8.12624 -20.43238,-10.29186 -2.73,-2.16561 -5.75853,-6.71846 -5.75779,-6.71782"
           id="path4219"
           inkscape:connector-curvature="0"
           sodipodi:nodetypes="csssssssssssssssszc" />
        <path
           style="color:#000000;clip-rule:nonzero;display:inline;overflow:visible;visibility:visible;opacity:1;isolation:auto;mix-blend-mode:normal;color-interpolation:sRGB;color-interpolation-filters:linearRGB;solid-color:#000000;solid-opacity:1;fill:none;fill-opacity:1;fill-rule:evenodd;stroke:#000000;stroke-width:1;stroke-linecap:butt;stroke-linejoin:miter;stroke-miterlimit:4;stroke-dasharray:none;stroke-dashoffset:0;stroke-opacity:1;marker:none;marker-start:none;marker-mid:none;marker-end:none;color-rendering:auto;image-rendering:auto;shape-rendering:auto;text-rendering:auto;enable-background:accumulate"
           d="m 182.24087,156.65341 c -9.48526,5.8958 -13.77732,9.25487 -16.46679,11.32995 -2.5637,1.97805 -4.87818,4.56564 -7.31658,6.73785 -0.51222,0.45631 -2.35788,4.51181 -3.7736,4.93533 -1.41572,0.42352 -5.30089,3.79303 -7.05019,6.39062 -1.74929,2.5976 -9.00492,15.85759 -10.28273,17.80887 -1.2778,1.95127 -6.92205,11.08591 -6.92205,11.08591 l -1.95978,3.40519 -0.64633,-0.47149"
           id="path4225"
           inkscape:connector-curvature="0"
           sodipodi:nodetypes="csssssccc" />
        <path
           style="color:#000000;clip-rule:nonzero;display:inline;overflow:visible;visibility:visible;opacity:1;isolation:auto;mix-blend-mode:normal;color-interpolation:sRGB;color-interpolation-filters:linearRGB;solid-color:#000000;solid-opacity:1;fill:none;fill-opacity:1;fill-rule:evenodd;stroke:#000000;stroke-width:1;stroke-linecap:butt;stroke-linejoin:miter;stroke-miterlimit:4;stroke-dasharray:none;stroke-dashoffset:0;stroke-opacity:1;marker:none;marker-start:none;marker-mid:none;marker-end:none;color-rendering:auto;image-rendering:auto;shape-rendering:auto;text-rendering:auto;enable-background:accumulate"
           d="m 129.22498,216.07334 c -0.87039,-1.04271 -1.14496,-2.58277 -2.10151,-2.66892 -0.95654,-0.0861 -3.31649,0.11457 -3.77567,0.62423 -0.45917,0.50968 -1.41318,3.45442 -1.54857,4.95755 -0.13538,1.50315 0.16379,2.7699 -0.0959,4.12408 -0.25973,1.35419 0.12812,4.6953 2.45117,4.90453 2.32303,0.20923 5.37727,-1.58204 6.32023,-2.87468 0.94298,-1.29265 9.96652,-9.70966 10.6485,-11.16357 0.68198,-1.45391 9.91351,-13.70939 10.50932,-14.20676 0.59582,-0.49737 8.2147,-10.14295 8.46212,-11.36049 0.24742,-1.21753 1.68417,-3.25019 3.18603,-3.56238 4.85283,-1.00877 14.41327,-2.55715 20.73098,-5.02854 1.7751,-0.69439 8.82663,-6.23063 8.82663,-6.23063"
           id="path4227"
           inkscape:connector-curvature="0"
           sodipodi:nodetypes="cccscsssssssc" />
        <path
           style="color:#000000;clip-rule:nonzero;display:inline;overflow:visible;visibility:visible;opacity:1;isolation:auto;mix-blend-mode:normal;color-interpolation:sRGB;color-interpolation-filters:linearRGB;solid-color:#000000;solid-opacity:1;fill:none;fill-opacity:1;fill-rule:evenodd;stroke:#000000;stroke-width:1;stroke-linecap:butt;stroke-linejoin:miter;stroke-miterlimit:4;stroke-dasharray:none;stroke-dashoffset:0;stroke-opacity:1;marker:none;marker-start:none;marker-mid:none;marker-end:none;color-rendering:auto;image-rendering:auto;shape-rendering:auto;text-rendering:auto;enable-background:accumulate"
           d="m 182.53925,154.16175 c 2.29931,-1.91935 4.08712,-4.06196 4.38792,-7.40172 0.30081,-3.33976 -0.99784,-8.59562 -0.63371,-12.63849"
           id="path4229"
           inkscape:connector-curvature="0" />
        <path
           style="color:#000000;clip-rule:nonzero;display:inline;overflow:visible;visibility:visible;opacity:1;isolation:auto;mix-blend-mode:normal;color-interpolation:sRGB;color-interpolation-filters:linearRGB;solid-color:#000000;solid-opacity:1;fill:none;fill-opacity:1;fill-rule:evenodd;stroke:#000000;stroke-width:1;stroke-linecap:butt;stroke-linejoin:miter;stroke-miterlimit:4;stroke-dasharray:none;stroke-dashoffset:0;stroke-opacity:1;marker:none;marker-start:none;marker-mid:none;marker-end:none;color-rendering:auto;image-rendering:auto;shape-rendering:auto;text-rendering:auto;enable-background:accumulate"
           d="m 209.17332,151.59894 c 0.0142,-2.12516 0.34668,-5.81648 1.68631,-8.88547 1.33964,-3.069 7.80197,-13.82794 7.80197,-13.82794"
           id="path4233"
           inkscape:connector-curvature="0" />
        <path
           style="color:#000000;clip-rule:nonzero;display:inline;overflow:visible;visibility:visible;opacity:1;isolation:auto;mix-blend-mode:normal;color-interpolation:sRGB;color-interpolation-filters:linearRGB;solid-color:#000000;solid-opacity:1;fill:none;fill-opacity:1;fill-rule:evenodd;stroke:#000000;stroke-width:1;stroke-linecap:butt;stroke-linejoin:miter;stroke-miterlimit:4;stroke-dasharray:none;stroke-dashoffset:0;stroke-opacity:1;marker:none;marker-start:none;marker-mid:none;marker-end:none;color-rendering:auto;image-rendering:auto;shape-rendering:auto;text-rendering:auto;enable-background:accumulate"
           d="m 218.4444,117.52497 c -3.74044,-1.75452 -8.75882,-3.09252 -8.75882,-3.09252 l -9.41118,0.21557 -0.27076,1.03883"
           id="path4243"
           inkscape:connector-curvature="0" />
        <path
           style="color:#000000;clip-rule:nonzero;display:inline;overflow:visible;visibility:visible;opacity:1;isolation:auto;mix-blend-mode:normal;color-interpolation:sRGB;color-interpolation-filters:linearRGB;solid-color:#000000;solid-opacity:1;fill:none;fill-opacity:1;fill-rule:evenodd;stroke:#000000;stroke-width:1;stroke-linecap:butt;stroke-linejoin:miter;stroke-miterlimit:4;stroke-dasharray:none;stroke-dashoffset:0;stroke-opacity:1;marker:none;marker-start:none;marker-mid:none;marker-end:none;color-rendering:auto;image-rendering:auto;shape-rendering:auto;text-rendering:auto;enable-background:accumulate"
           d="m 189.70111,114.90882 c -3.70122,0.86814 -4.91567,1.28762 -6.59257,2.89285 -1.6769,1.60518 -5.34824,8.05432 -5.34824,8.05432 l -4.10579,2.4442 c -2.89135,2.0247 -5.01615,5.45174 -6.15813,6.89778"
           id="path4279"
           inkscape:connector-curvature="0" />
        <path
           style="color:#000000;clip-rule:nonzero;display:inline;overflow:visible;visibility:visible;opacity:1;isolation:auto;mix-blend-mode:normal;color-interpolation:sRGB;color-interpolation-filters:linearRGB;solid-color:#000000;solid-opacity:1;fill:none;fill-opacity:1;fill-rule:evenodd;stroke:#000000;stroke-width:1;stroke-linecap:butt;stroke-linejoin:miter;stroke-miterlimit:4;stroke-dasharray:none;stroke-dashoffset:0;stroke-opacity:1;marker:none;marker-start:none;marker-mid:none;marker-end:none;color-rendering:auto;image-rendering:auto;shape-rendering:auto;text-rendering:auto;enable-background:accumulate"
           d="m 198.75412,111.85304 c 1.94775,-1.951 1.68956,-4.98671 1.68956,-4.98671"
           id="path4247"
           inkscape:connector-curvature="0" />
        <path
           style="color:#000000;clip-rule:nonzero;display:inline;overflow:visible;visibility:visible;opacity:1;isolation:auto;mix-blend-mode:normal;color-interpolation:sRGB;color-interpolation-filters:linearRGB;solid-color:#000000;solid-opacity:1;fill:none;fill-opacity:1;fill-rule:evenodd;stroke:#000000;stroke-width:1;stroke-linecap:butt;stroke-linejoin:miter;stroke-miterlimit:4;stroke-dasharray:none;stroke-dashoffset:0;stroke-opacity:1;marker:none;marker-start:none;marker-mid:none;marker-end:none;color-rendering:auto;image-rendering:auto;shape-rendering:auto;text-rendering:auto;enable-background:accumulate"
           d="m 208.09871,108.44182 c -0.22164,2.46088 -0.15507,5.65653 -0.15507,5.65653 l 0.75061,-0.464 0,0"
           id="path4249"
           inkscape:connector-curvature="0" />
        <path
           style="color:#000000;clip-rule:nonzero;display:inline;overflow:visible;visibility:visible;opacity:1;isolation:auto;mix-blend-mode:normal;color-interpolation:sRGB;color-interpolation-filters:linearRGB;solid-color:#000000;solid-opacity:1;fill:none;fill-opacity:1;fill-rule:evenodd;stroke:#000000;stroke-width:1;stroke-linecap:butt;stroke-linejoin:miter;stroke-miterlimit:4;stroke-dasharray:none;stroke-dashoffset:0;stroke-opacity:1;marker:none;marker-start:none;marker-mid:none;marker-end:none;color-rendering:auto;image-rendering:auto;shape-rendering:auto;text-rendering:auto;enable-background:accumulate"
           d="m 203.39372,99.689507 c -0.095,1.054673 -1.70702,3.213113 -1.13056,4.682663 0.57645,1.46953 0.46725,4.64936 0.46725,4.64936"
           id="path4251"
           inkscape:connector-curvature="0" />
        <path
           style="color:#000000;clip-rule:nonzero;display:inline;overflow:visible;visibility:visible;opacity:1;isolation:auto;mix-blend-mode:normal;color-interpolation:sRGB;color-interpolation-filters:linearRGB;solid-color:#000000;solid-opacity:1;fill:none;fill-opacity:1;fill-rule:evenodd;stroke:#000000;stroke-width:1;stroke-linecap:butt;stroke-linejoin:miter;stroke-miterlimit:4;stroke-dasharray:none;stroke-dashoffset:0;stroke-opacity:1;marker:none;marker-start:none;marker-mid:none;marker-end:none;color-rendering:auto;image-rendering:auto;shape-rendering:auto;text-rendering:auto;enable-background:accumulate"
           d="m 205.47138,100.23105 c 1.68024,2.98658 -0.73151,4.18699 -0.50662,5.62487 0.2249,1.43787 -0.42908,2.79659 -0.42908,2.79659"
           id="path4253"
           inkscape:connector-curvature="0" />
        <path
           style="color:#000000;clip-rule:nonzero;display:inline;overflow:visible;visibility:visible;opacity:1;isolation:auto;mix-blend-mode:normal;color-interpolation:sRGB;color-interpolation-filters:linearRGB;solid-color:#000000;solid-opacity:1;fill:none;fill-opacity:1;fill-rule:evenodd;stroke:#000000;stroke-width:1;stroke-linecap:butt;stroke-linejoin:miter;stroke-miterlimit:4;stroke-dasharray:none;stroke-dashoffset:0;stroke-opacity:1;marker:none;marker-start:none;marker-mid:none;marker-end:none;color-rendering:auto;image-rendering:auto;shape-rendering:auto;text-rendering:auto;enable-background:accumulate"
           d="m 202.80144,98.395745 c 1.82272,1.404585 3.93204,1.594567 3.93204,1.594567"
           id="path4255"
           inkscape:connector-curvature="0" />
        <path
           style="color:#000000;clip-rule:nonzero;display:inline;overflow:visible;visibility:visible;opacity:1;isolation:auto;mix-blend-mode:normal;color-interpolation:sRGB;color-interpolation-filters:linearRGB;solid-color:#000000;solid-opacity:1;fill:none;fill-opacity:1;fill-rule:evenodd;stroke:#000000;stroke-width:1;stroke-linecap:butt;stroke-linejoin:miter;stroke-miterlimit:4;stroke-dasharray:none;stroke-dashoffset:0;stroke-opacity:1;marker:none;marker-start:none;marker-mid:none;marker-end:none;color-rendering:auto;image-rendering:auto;shape-rendering:auto;text-rendering:auto;enable-background:accumulate"
           d="m 203.95272,99.385452 c 0.32151,2.332598 0.16319,4.090368 0.16319,4.090368 l 0.0175,1.7736"
           id="path4257"
           inkscape:connector-curvature="0" />
        <path
           style="color:#000000;clip-rule:nonzero;display:inline;overflow:visible;visibility:visible;opacity:1;isolation:auto;mix-blend-mode:normal;color-interpolation:sRGB;color-interpolation-filters:linearRGB;solid-color:#000000;solid-opacity:1;fill:none;fill-opacity:1;fill-rule:evenodd;stroke:#000000;stroke-width:1;stroke-linecap:butt;stroke-linejoin:miter;stroke-miterlimit:4;stroke-dasharray:none;stroke-dashoffset:0;stroke-opacity:1;marker:none;marker-start:none;marker-mid:none;marker-end:none;color-rendering:auto;image-rendering:auto;shape-rendering:auto;text-rendering:auto;enable-background:accumulate"
           d="m 203.05149,91.684552 c 1.75778,0.158319 4.05871,0.188356 5.01838,1.33801 0.95967,1.149653 3.10228,2.937461 3.11974,4.711064 0.0175,1.773602 -0.03,2.300934 -0.12502,3.355594 -0.095,1.05466 -3.62474,2.86318 -3.62474,2.86318"
           id="path4259"
           inkscape:connector-curvature="0" />
        <path
           style="color:#000000;clip-rule:nonzero;display:inline;overflow:visible;visibility:visible;opacity:1;isolation:auto;mix-blend-mode:normal;color-interpolation:sRGB;color-interpolation-filters:linearRGB;solid-color:#000000;solid-opacity:1;fill:none;fill-opacity:1;fill-rule:evenodd;stroke:#000000;stroke-width:1;stroke-linecap:butt;stroke-linejoin:miter;stroke-miterlimit:4;stroke-dasharray:none;stroke-dashoffset:0;stroke-opacity:1;marker:none;marker-start:none;marker-mid:none;marker-end:none;color-rendering:auto;image-rendering:auto;shape-rendering:auto;text-rendering:auto;enable-background:accumulate"
           d="m 201.35868,92.772504 c -1.6295,0.384844 -3.3698,2.000129 -3.3698,2.000129 0,0 -0.71732,2.061828 -0.12503,3.355595 0.59228,1.293765 3.00729,3.992122 3.00729,3.992122"
           id="path4261"
           inkscape:connector-curvature="0" />
        <path
           style="color:#000000;clip-rule:nonzero;display:inline;overflow:visible;visibility:visible;opacity:1;isolation:auto;mix-blend-mode:normal;color-interpolation:sRGB;color-interpolation-filters:linearRGB;solid-color:#000000;solid-opacity:1;fill:none;fill-opacity:1;fill-rule:evenodd;stroke:#000000;stroke-width:1;stroke-linecap:butt;stroke-linejoin:miter;stroke-miterlimit:4;stroke-dasharray:none;stroke-dashoffset:0;stroke-opacity:1;marker:none;marker-start:none;marker-mid:none;marker-end:none;color-rendering:auto;image-rendering:auto;shape-rendering:auto;text-rendering:auto;enable-background:accumulate"
           d="m 203.75623,93.697258 c -0.66982,1.534499 -0.54154,2.077662 -0.54154,2.077662"
           id="path4263"
           inkscape:connector-curvature="0" />
        <path
           style="color:#000000;clip-rule:nonzero;display:inline;overflow:visible;visibility:visible;opacity:1;isolation:auto;mix-blend-mode:normal;color-interpolation:sRGB;color-interpolation-filters:linearRGB;solid-color:#000000;solid-opacity:1;fill:none;fill-opacity:1;fill-rule:evenodd;stroke:#000000;stroke-width:1;stroke-linecap:butt;stroke-linejoin:miter;stroke-miterlimit:4;stroke-dasharray:none;stroke-dashoffset:0;stroke-opacity:1;marker:none;marker-start:none;marker-mid:none;marker-end:none;color-rendering:auto;image-rendering:auto;shape-rendering:auto;text-rendering:auto;enable-background:accumulate"
           d="m 205.68978,93.871409 c 2.65573,3.96046 2.88064,5.398341 2.88064,5.398341 l -2.41013,3.14978"
           id="path4267"
           inkscape:connector-curvature="0" />
        <path
           style="color:#000000;clip-rule:nonzero;display:inline;overflow:visible;visibility:visible;opacity:1;isolation:auto;mix-blend-mode:normal;color-interpolation:sRGB;color-interpolation-filters:linearRGB;solid-color:#000000;solid-opacity:1;fill:none;fill-opacity:1;fill-rule:evenodd;stroke:#000000;stroke-width:1;stroke-linecap:butt;stroke-linejoin:miter;stroke-miterlimit:4;stroke-dasharray:none;stroke-dashoffset:0;stroke-opacity:1;marker:none;marker-start:none;marker-mid:none;marker-end:none;color-rendering:auto;image-rendering:auto;shape-rendering:auto;text-rendering:auto;enable-background:accumulate"
           d="m 200.48142,94.642725 c -0.0792,0.878885 0.0507,3.371427 0.0507,3.371427"
           id="path4269"
           inkscape:connector-curvature="0" />
        <path
           style="color:#000000;clip-rule:nonzero;display:inline;overflow:visible;visibility:visible;opacity:1;isolation:auto;mix-blend-mode:normal;color-interpolation:sRGB;color-interpolation-filters:linearRGB;solid-color:#000000;solid-opacity:1;fill:none;fill-opacity:1;fill-rule:evenodd;stroke:#000000;stroke-width:1;stroke-linecap:butt;stroke-linejoin:miter;stroke-miterlimit:4;stroke-dasharray:none;stroke-dashoffset:0;stroke-opacity:1;marker:none;marker-start:none;marker-mid:none;marker-end:none;color-rendering:auto;image-rendering:auto;shape-rendering:auto;text-rendering:auto;enable-background:accumulate"
           d="m 196.58429,96.595357 c -0.79811,0.991334 -1.3713,3.420553 -1.3713,3.420553 l -1.118,0.60811 0.81719,2.73165 1.58199,0.14249 2.94235,2.74585"
           id="path4271"
           inkscape:connector-curvature="0" />
        <path
           style="color:#000000;clip-rule:nonzero;display:inline;overflow:visible;visibility:visible;opacity:1;isolation:auto;mix-blend-mode:normal;color-interpolation:sRGB;color-interpolation-filters:linearRGB;solid-color:#000000;solid-opacity:1;fill:none;fill-opacity:1;fill-rule:evenodd;stroke:#000000;stroke-width:1;stroke-linecap:butt;stroke-linejoin:miter;stroke-miterlimit:4;stroke-dasharray:none;stroke-dashoffset:0;stroke-opacity:1;marker:none;marker-start:none;marker-mid:none;marker-end:none;color-rendering:auto;image-rendering:auto;shape-rendering:auto;text-rendering:auto;enable-background:accumulate"
           d="m 211.83102,100.44944 -0.33084,5.6407 -3.19402,2.01596"
           id="path4273"
           inkscape:connector-curvature="0" />
        <path
           style="color:#000000;clip-rule:nonzero;display:inline;overflow:visible;visibility:visible;opacity:1;isolation:auto;mix-blend-mode:normal;color-interpolation:sRGB;color-interpolation-filters:linearRGB;solid-color:#000000;solid-opacity:1;fill:none;fill-opacity:1;fill-rule:evenodd;stroke:#000000;stroke-width:1;stroke-linecap:butt;stroke-linejoin:miter;stroke-miterlimit:4;stroke-dasharray:none;stroke-dashoffset:0;stroke-opacity:1;marker:none;marker-start:none;marker-mid:none;marker-end:none;color-rendering:auto;image-rendering:auto;shape-rendering:auto;text-rendering:auto;enable-background:accumulate"
           d="m 167.62873,134.0989 c -5.20121,-7.05179 -27.40777,-20.37317 -27.40777,-20.37317"
           id="path4281"
           inkscape:connector-curvature="0" />
        <path
           style="color:#000000;clip-rule:nonzero;display:inline;overflow:visible;visibility:visible;opacity:1;isolation:auto;mix-blend-mode:normal;color-interpolation:sRGB;color-interpolation-filters:linearRGB;solid-color:#000000;solid-opacity:1;fill:none;fill-opacity:1;fill-rule:evenodd;stroke:#000000;stroke-width:1;stroke-linecap:butt;stroke-linejoin:miter;stroke-miterlimit:4;stroke-dasharray:none;stroke-dashoffset:0;stroke-opacity:1;marker:none;marker-start:none;marker-mid:none;marker-end:none;color-rendering:auto;image-rendering:auto;shape-rendering:auto;text-rendering:auto;enable-background:accumulate"
           d="m 139.69184,113.74495 c -3.02396,-0.59651 -6.33658,0.5835 -6.33658,0.5835 0,0 -1.34688,1.815 -0.64139,1.78936 0.70549,-0.0257 3.32543,-0.82727 3.32543,-0.82727 l 2.652,0.0802 c -2.62635,0.62526 -6.27249,2.34721 -7.11588,3.4375 -0.84341,1.09027 -4.70436,1.7604 -4.70436,1.7604 l 1.11591,1.5489 9.38949,-4.04994"
           id="path4283"
           inkscape:connector-curvature="0" />
        <path
           style="color:#000000;clip-rule:nonzero;display:inline;overflow:visible;visibility:visible;opacity:1;isolation:auto;mix-blend-mode:normal;color-interpolation:sRGB;color-interpolation-filters:linearRGB;solid-color:#000000;solid-opacity:1;fill:none;fill-opacity:1;fill-rule:evenodd;stroke:#000000;stroke-width:1;stroke-linecap:butt;stroke-linejoin:miter;stroke-miterlimit:4;stroke-dasharray:none;stroke-dashoffset:0;stroke-opacity:1;marker:none;marker-start:none;marker-mid:none;marker-end:none;color-rendering:auto;image-rendering:auto;shape-rendering:auto;text-rendering:auto;enable-background:accumulate"
           d="m 139.91928,118.29969 c 7.41705,9.09183 21.64921,22.74791 22.64208,23.58672 0.99287,0.83882 3.47109,1.62365 3.47109,1.62365 0,0 1.8698,0.89443 2.38133,0.52588 0.51155,-0.36855 8.90275,-5.39793 9.67006,-5.95075 0.76731,-0.55282 9.1077,-6.9802 9.1077,-6.9802"
           id="path4285"
           inkscape:connector-curvature="0" />
        <path
           style="color:#000000;clip-rule:nonzero;display:inline;overflow:visible;visibility:visible;opacity:1;isolation:auto;mix-blend-mode:normal;color-interpolation:sRGB;color-interpolation-filters:linearRGB;solid-color:#000000;solid-opacity:1;fill:none;fill-opacity:1;fill-rule:evenodd;stroke:#000000;stroke-width:1;stroke-linecap:butt;stroke-linejoin:miter;stroke-miterlimit:4;stroke-dasharray:none;stroke-dashoffset:0;stroke-opacity:1;marker:none;marker-start:none;marker-mid:none;marker-end:none;color-rendering:auto;image-rendering:auto;shape-rendering:auto;text-rendering:auto;enable-background:accumulate"
           d="m 222.41665,118.60223 c 4.18014,4.09867 3.85519,16.89016 3.7647,20.1906 -0.0905,3.30043 -0.55234,8.4285 -0.55234,8.4285 l -0.70585,3.245 c 0,0 0.0223,4.34453 -0.34913,6.17216 -0.37139,1.82762 -4.82626,26.03398 -4.99253,27.88009 -0.16628,1.84609 -0.9024,5.86025 -0.9763,6.68074 -0.0739,0.82049 -1.80669,3.21295 -1.80669,3.21295 l -2.49529,0.88649 0.11636,-1.20174 1.85596,-1.01845 c 0.24832,-0.19045 0.8001,-2.37249 0.8001,-2.37249"
           id="path4308"
           inkscape:connector-curvature="0"
           sodipodi:nodetypes="csccssscccc" />
        <path
           style="color:#000000;clip-rule:nonzero;display:inline;overflow:visible;visibility:visible;opacity:1;isolation:auto;mix-blend-mode:normal;color-interpolation:sRGB;color-interpolation-filters:linearRGB;solid-color:#000000;solid-opacity:1;fill:none;fill-opacity:1;fill-rule:evenodd;stroke:#000000;stroke-width:1;stroke-linecap:butt;stroke-linejoin:miter;stroke-miterlimit:4;stroke-dasharray:none;stroke-dashoffset:0;stroke-opacity:1;marker:none;marker-start:none;marker-mid:none;marker-end:none;color-rendering:auto;image-rendering:auto;shape-rendering:auto;text-rendering:auto;enable-background:accumulate"
           d="m 216.17629,125.89807 c -0.27712,3.07684 -1.05687,7.14234 -0.84985,9.43563 0.20702,2.29331 -0.6651,7.38442 -0.216,9.28594 l 1.34727,5.70459 c 0,0 -1.70349,14.32163 -1.79397,17.62207 -0.0905,3.30043 0.63212,16.14334 0.63212,16.14334"
           id="path4310"
           inkscape:connector-curvature="0"
           sodipodi:nodetypes="csscsc" />
        <path
           style="color:#000000;clip-rule:nonzero;display:inline;overflow:visible;visibility:visible;opacity:1;isolation:auto;mix-blend-mode:normal;color-interpolation:sRGB;color-interpolation-filters:linearRGB;solid-color:#000000;solid-opacity:1;fill:none;fill-opacity:1;fill-rule:evenodd;stroke:#000000;stroke-width:1;stroke-linecap:butt;stroke-linejoin:miter;stroke-miterlimit:4;stroke-dasharray:none;stroke-dashoffset:0;stroke-opacity:1;marker:none;marker-start:none;marker-mid:none;marker-end:none;color-rendering:auto;image-rendering:auto;shape-rendering:auto;text-rendering:auto;enable-background:accumulate"
           d="m 218.4215,192.06713 c -0.13334,1.48039 -0.3971,1.9541 -0.8451,2.63231 -0.44801,0.67822 -2.28498,3.27648 -2.4791,3.59064 -0.19412,0.31417 -1.52927,1.02302 -1.52927,1.02302 l -0.87777,-0.68708 0.98097,-1.0724 1.17459,-1.99463"
           id="path4312"
           inkscape:connector-curvature="0" />
        <path
           style="color:#000000;clip-rule:nonzero;display:inline;overflow:visible;visibility:visible;opacity:1;isolation:auto;mix-blend-mode:normal;color-interpolation:sRGB;color-interpolation-filters:linearRGB;solid-color:#000000;solid-opacity:1;fill:none;fill-opacity:1;fill-rule:evenodd;stroke:#000000;stroke-width:1;stroke-linecap:butt;stroke-linejoin:miter;stroke-miterlimit:4;stroke-dasharray:none;stroke-dashoffset:0;stroke-opacity:1;marker:none;marker-start:none;marker-mid:none;marker-end:none;color-rendering:auto;image-rendering:auto;shape-rendering:auto;text-rendering:auto;enable-background:accumulate"
           d="m 215.1953,184.31453 c -0.0445,0.49346 -0.43712,1.78468 -1.21461,1.8252 -0.77749,0.0405 -2.491,1.26805 -2.58534,1.70175 -0.0943,0.4337 -0.48156,2.27813 -0.53588,2.88126 -0.0543,0.60312 0.0569,2.43719 0.28657,2.95534 0.22969,0.51816 0.87334,1.34997 1.24676,0.88614 0.37343,-0.46384 0.71126,-1.75999 0.73595,-2.03414 0.0247,-0.27415 0.21729,-2.41249 0.21729,-2.41249 l 1.18105,-0.22527"
           id="path4314"
           inkscape:connector-curvature="0" />
        <path
           style="color:#000000;clip-rule:nonzero;display:inline;overflow:visible;visibility:visible;opacity:1;isolation:auto;mix-blend-mode:normal;color-interpolation:sRGB;color-interpolation-filters:linearRGB;solid-color:#000000;solid-opacity:1;fill:#ffffff;fill-opacity:1;fill-rule:evenodd;stroke:none;stroke-width:0.875;stroke-linecap:butt;stroke-linejoin:miter;stroke-miterlimit:4;stroke-dasharray:none;stroke-dashoffset:0;stroke-opacity:1;marker:none;marker-start:none;marker-mid:none;marker-end:none;color-rendering:auto;image-rendering:auto;shape-rendering:auto;text-rendering:auto;enable-background:accumulate"
           d="m 215.94036,159.42319 -0.30667,3.24195 6.13342,6.44009 0.56954,-3.81148 z"
           id="path4345"
           inkscape:connector-curvature="0"
           sodipodi:nodetypes="ccccc" />
        <path
           style="color:#000000;clip-rule:nonzero;display:inline;overflow:visible;visibility:visible;opacity:1;isolation:auto;mix-blend-mode:normal;color-interpolation:sRGB;color-interpolation-filters:linearRGB;solid-color:#000000;solid-opacity:1;fill:#ffffff;fill-opacity:1;fill-rule:evenodd;stroke:none;stroke-width:0.875;stroke-linecap:butt;stroke-linejoin:miter;stroke-miterlimit:4;stroke-dasharray:none;stroke-dashoffset:0;stroke-opacity:1;marker:none;marker-start:none;marker-mid:none;marker-end:none;color-rendering:auto;image-rendering:auto;shape-rendering:auto;text-rendering:auto;enable-background:accumulate"
           d="m 215.80893,183.1683 -0.21905,2.45337 3.11052,1.62098 0.35048,-2.80385 z"
           id="path4347"
           inkscape:connector-curvature="0" />
        <path
           style="color:#000000;clip-rule:nonzero;display:inline;overflow:visible;visibility:visible;opacity:1;isolation:auto;mix-blend-mode:normal;color-interpolation:sRGB;color-interpolation-filters:linearRGB;solid-color:#000000;solid-opacity:1;fill:none;fill-opacity:1;fill-rule:evenodd;stroke:#000000;stroke-width:0.875;stroke-linecap:butt;stroke-linejoin:miter;stroke-miterlimit:4;stroke-dasharray:none;stroke-dashoffset:0;stroke-opacity:1;marker:none;marker-start:none;marker-mid:none;marker-end:none;color-rendering:auto;image-rendering:auto;shape-rendering:auto;text-rendering:auto;enable-background:accumulate"
           d="m 139.01183,118.80039 c -2.03979,0.71392 -5.8644,2.70272 -6.98629,3.16167 -1.12188,0.45896 -3.82461,1.12189 -4.33456,1.27487 -0.50995,0.15299 -1.27487,-0.61193 -1.01989,-0.76492 0.25497,-0.15298 1.01989,-0.71393 1.01989,-0.71393"
           id="path4415"
           inkscape:connector-curvature="0" />
        <path
           style="color:#000000;clip-rule:nonzero;display:inline;overflow:visible;visibility:visible;opacity:1;isolation:auto;mix-blend-mode:normal;color-interpolation:sRGB;color-interpolation-filters:linearRGB;solid-color:#000000;solid-opacity:1;fill:none;fill-opacity:1;fill-rule:evenodd;stroke:#000000;stroke-width:0.875;stroke-linecap:butt;stroke-linejoin:miter;stroke-miterlimit:4;stroke-dasharray:none;stroke-dashoffset:0;stroke-opacity:1;marker:none;marker-start:none;marker-mid:none;marker-end:none;color-rendering:auto;image-rendering:auto;shape-rendering:auto;text-rendering:auto;enable-background:accumulate"
           d="m 140.18471,120.43222 c -2.85571,1.0199 -5.30346,0.86691 -6.11937,1.78482 -0.81592,0.91791 -4.69152,1.37686 -4.69152,1.37686 l -0.25498,-1.22388"
           id="path4417"
           inkscape:connector-curvature="0" />
        <path
           style="color:#000000;clip-rule:nonzero;display:inline;overflow:visible;visibility:visible;opacity:1;isolation:auto;mix-blend-mode:normal;color-interpolation:sRGB;color-interpolation-filters:linearRGB;solid-color:#000000;solid-opacity:1;fill:none;fill-opacity:1;fill-rule:evenodd;stroke:#000000;stroke-width:0.875;stroke-linecap:butt;stroke-linejoin:miter;stroke-miterlimit:4;stroke-dasharray:none;stroke-dashoffset:0;stroke-opacity:1;marker:none;marker-start:none;marker-mid:none;marker-end:none;color-rendering:auto;image-rendering:auto;shape-rendering:auto;text-rendering:auto;enable-background:accumulate"
           d="m 141.10261,120.89117 c -2.70272,1.42786 -3.67162,1.47885 -4.38555,1.88681 -0.71393,0.40796 -3.11068,0.45895 -3.11068,0.45895 l 0.30597,-0.9179"
           id="path4419"
           inkscape:connector-curvature="0" />
        <path
           style="color:#000000;clip-rule:nonzero;display:inline;overflow:visible;visibility:visible;opacity:1;isolation:auto;mix-blend-mode:normal;color-interpolation:sRGB;color-interpolation-filters:linearRGB;solid-color:#000000;solid-opacity:1;fill:none;fill-opacity:1;fill-rule:evenodd;stroke:#000000;stroke-width:0.875;stroke-linecap:butt;stroke-linejoin:miter;stroke-miterlimit:4;stroke-dasharray:none;stroke-dashoffset:0;stroke-opacity:1;marker:none;marker-start:none;marker-mid:none;marker-end:none;color-rendering:auto;image-rendering:auto;shape-rendering:auto;text-rendering:auto;enable-background:accumulate"
           d="m 213.7148,196.09848 -1.22897,0.97817 0.45146,0.82766"
           id="path4478"
           inkscape:connector-curvature="0"
           sodipodi:nodetypes="ccc" />
      </g>
    </g>
  </g>
</svg>
