<?xml version="1.0" encoding="iso-8859-1"?>
<!-- Generator: Adobe Illustrator 11 Build 196, SVG Export Plug-In . SVG Version: 6.0.0 Build 78)  -->
<!DOCTYPE svg PUBLIC "-//W3C//DTD SVG 1.0//EN"    "http://www.w3.org/TR/2001/REC-SVG-20010904/DTD/svg10.dtd" [
	<!ENTITY ns_flows "http://ns.adobe.com/Flows/1.0/">
	<!ENTITY ns_svg "http://www.w3.org/2000/svg">
	<!ENTITY ns_xlink "http://www.w3.org/1999/xlink">
]>
<svg  
	 width="147.401" height="60.253" viewBox="0 0 147.401 60.253" style="overflow:visible;enable-background:new 0 0 147.401 60.253"
	 xml:space="preserve">
	<g id="Layer_1">
		<path style="fill:none;stroke:#000000;" d="M130.573,8.885V12.2h-9.262V8.3c0-4.308-3.492-7.8-7.8-7.8h-99.45
			c-4.308,0-7.799,3.492-7.799,7.8v17.55c0,4.308,3.492,7.8,7.799,7.8h99.45c4.308,0,7.8-3.492,7.8-7.8v-3.9h9.262v3.315h3.9V21.95
			V12.2V8.885H130.573z"/>
		<g>
			<rect x="49.703" y="9.224" style="fill:none;stroke:#000000;stroke-width:0.5;" width="0.434" height="12.35"/> 
			<rect x="42.581" y="8.913" style="fill:none;stroke:#000000;stroke-width:0.5;" width="0.433" height="12.35"/> 
			<rect x="34.32" y="9.996" style="fill:none;stroke:#000000;stroke-width:0.5;" width="0.434" height="12.35"/> 
			<path style="fill:#C98C6D;stroke:#000000;stroke-width:0.5;" d="M29.553,20.491l0.867,6.066h15.6c0,0,3.9-3.033,4.767-3.466
				c0.867-0.434,3.683-1.95,4.333-1.95c0.65,0-9.1-0.433-9.1-0.433l-11.483-0.217l-1.3-1.517l-4.117-0.65L29.553,20.491z"/>
			<path style="fill:#FFFFFF;stroke:#000000;stroke-width:0.5;" d="M51.003,10.308c0,0,3.466,8.233,4.116,8.883
				c0.65,0.65-2.816,0.65-2.816,0.65L51.003,10.308z"/>
			<polygon style="fill:#FFFFFF;stroke:#000000;stroke-width:0.5;" points="44.07,11.174 41.037,13.774 40.82,17.458 45.153,14.857 
				"/>
			<polygon style="fill:#FFFFFF;stroke:#000000;stroke-width:0.5;" points="35.62,13.124 33.02,14.641 33.454,16.591 36.92,15.724 
				"/>
		</g>
		<g>
			
				<rect x="93.267" y="9.224" style="fill:none;stroke:#000000;stroke-width:0.5;stroke-dasharray:2;" width="0.433" height="12.35"/> 
			
				<rect x="86.144" y="8.913" style="fill:none;stroke:#000000;stroke-width:0.5;stroke-dasharray:2;" width="0.433" height="12.35"/> 
			
				<rect x="77.883" y="9.996" style="fill:none;stroke:#000000;stroke-width:0.5;stroke-dasharray:2;" width="0.433" height="12.35"/> 
			<path style="fill:#FFFFFF;stroke:#000000;stroke-width:0.5;stroke-dasharray:2;" d="M73.117,20.491l0.867,6.066h15.6
				c0,0,3.9-3.033,4.767-3.466c0.867-0.434,3.684-1.95,4.333-1.95s-9.1-0.433-9.1-0.433L78.1,20.491l-1.3-1.517l-4.117-0.65
				L73.117,20.491z"/>
			<path style="fill:#FFFFFF;stroke:#000000;stroke-width:0.5;stroke-dasharray:2;" d="M94.566,10.308c0,0,3.467,8.233,4.117,8.883
				c0.65,0.65-2.817,0.65-2.817,0.65L94.566,10.308z"/>
			<polygon style="fill:#FFFFFF;stroke:#000000;stroke-width:0.5;stroke-dasharray:2;" points="87.633,11.174 84.6,13.774 
				84.383,17.458 88.716,14.857 "/>
			<polygon style="fill:#FFFFFF;stroke:#000000;stroke-width:0.5;stroke-dasharray:2;" points="79.183,13.124 76.583,14.641 
				77.017,16.591 80.483,15.724 "/>
		</g>
		<polygon style="fill:#B3571B;stroke:#000000;stroke-width:0.5;" points="3.455,60.003 14.604,33.084 25.752,60.003 "/>
		<path style="fill:#7FC863;stroke:#000000;stroke-width:0.5;" d="M137.146,60.003c4.308,0,7.8-2.586,7.8-5.778v-5.457
			c0-3.191-3.492-5.778-7.8-5.778h-47.45c-4.308,0-7.8,2.587-7.8,5.778v5.457c0,3.191,3.492,5.778,7.8,5.778H137.146z"/>
		<rect x="98.579" y="48.183" style="fill:#FFFFFF;stroke:#000000;stroke-width:0.5;" width="29.683" height="7.008"/> 
		<rect x="91.538" y="38.823" style="stroke:#000000;stroke-width:0.5;" width="43.766" height="3.683"/> 
		<polygon style="fill:#B3571B;stroke:#000000;stroke-width:0.5;" points="110.281,38.704 113.091,33.836 115.901,38.704 "/>
		<rect y="47.814" style="fill:none;" width="147.401" height="2.835"/> 
	</g>
</svg>
