<?xml version="1.0" encoding="UTF-8" standalone="no"?>
<!-- Created with Inkscape (http://www.inkscape.org/) -->

<svg
   xmlns:dc="http://purl.org/dc/elements/1.1/"
   xmlns:cc="http://creativecommons.org/ns#"
   xmlns:rdf="http://www.w3.org/1999/02/22-rdf-syntax-ns#"
   xmlns:svg="http://www.w3.org/2000/svg"
   xmlns="http://www.w3.org/2000/svg"
   xmlns:sodipodi="http://sodipodi.sourceforge.net/DTD/sodipodi-0.dtd"
   xmlns:inkscape="http://www.inkscape.org/namespaces/inkscape"
   width="744.09448819"
   height="1052.3622047"
   id="svg2"
   version="1.1"
   sodipodi:docname="hw-telephone-wire.svg">
  <defs
     id="defs4" />
  <sodipodi:namedview
     id="base"
     pagecolor="#ffffff"
     bordercolor="#666666"
     borderopacity="1.0"
     inkscape:pageopacity="0.0"
     inkscape:pageshadow="2"
     inkscape:zoom="3.5317913"
     inkscape:cx="165.9585"
     inkscape:cy="382.196"
     inkscape:document-units="mm"
     inkscape:current-layer="layer1"
     showgrid="false"
     inkscape:window-width="1440"
     inkscape:window-height="872"
     inkscape:window-x="0"
     inkscape:window-y="0"
     inkscape:window-maximized="1" />
  <metadata
     id="metadata7">
    <rdf:RDF>
      <cc:Work
         rdf:about="">
        <dc:format>image/svg+xml</dc:format>
        <dc:type
           rdf:resource="http://purl.org/dc/dcmitype/StillImage" />
        <dc:title></dc:title>
      </cc:Work>
    </rdf:RDF>
  </metadata>
  <g
     inkscape:label="Layer 1"
     inkscape:groupmode="layer"
     id="layer1">
    <rect
       style="fill:#dedede;fill-opacity:1;stroke:none"
       id="rect4002"
       width="184.25197"
       height="104.21535"
       x="49.949978"
       y="612.0965" />
    <g
       id="g4017"
       transform="matrix(0.97991114,0,0,0.97991114,3.1715744,11.800264)">
      <path
         sodipodi:nodetypes="csscccc"
         inkscape:connector-curvature="0"
         id="path3818"
         d="m 60.745775,718.98202 c 0,0 2.229237,-88.83271 2.365651,-91.209 0.483973,-8.43071 0.09009,-7.15116 -2.012714,-8.20257 -2.102801,-1.0514 -4.959053,0.45473 -4.959053,0.45473 l -0.388034,9.85064 -0.788551,25.49646 -2.628502,63.34689"
         style="color:#000000;fill:#ffffff;fill-opacity:1;stroke:#000000;stroke-width:0.625;stroke-miterlimit:4;stroke-opacity:1;stroke-dasharray:none;marker:none;visibility:visible;display:inline;overflow:visible;enable-background:accumulate" />
      <path
         inkscape:connector-curvature="0"
         id="path3820"
         d="m 62.934073,646.77183 c 0.906723,-0.14317 3.388279,-0.3102 3.388279,-0.3102 l 0.119306,-0.62038 0.62039,-0.26248 0.477223,1.52711 -2.50542,0.78742 c 0,0 -0.906722,1.02603 -1.121471,1.5987 -0.214751,0.57267 -1.026029,1.55097 -1.026029,1.55097"
         style="color:#000000;fill:none;stroke:#000000;stroke-width:0.625;stroke-linecap:butt;stroke-linejoin:miter;stroke-miterlimit:4;stroke-opacity:1;stroke-dasharray:none;stroke-dashoffset:0;marker:none;visibility:visible;display:inline;overflow:visible;enable-background:accumulate" />
      <path
         inkscape:connector-curvature="0"
         id="path3822"
         d="m 63.053377,647.91716 c 0,0 1.073752,-0.28633 1.026029,-0.19089 -0.04772,0.0955 -1.169194,1.76573 -1.169194,1.76573"
         style="color:#000000;fill:none;stroke:#000000;stroke-width:0.625;stroke-linecap:butt;stroke-linejoin:miter;stroke-miterlimit:4;stroke-opacity:1;stroke-dasharray:none;stroke-dashoffset:0;marker:none;visibility:visible;display:inline;overflow:visible;enable-background:accumulate" />
      <path
         inkscape:connector-curvature="0"
         id="path3824"
         d="m 53.086251,692.32549 -2.382789,0 -1.04843,-0.19062 -0.142967,-0.90546 -0.714838,-0.14297 -0.285933,1.95389 0.619525,0.38125 0.04765,-0.47656 1.71561,0.52421 1.906234,2.90701"
         style="color:#000000;fill:none;stroke:#000000;stroke-width:0.625;stroke-linecap:butt;stroke-linejoin:miter;stroke-miterlimit:4;stroke-opacity:1;stroke-dasharray:none;stroke-dashoffset:0;marker:none;visibility:visible;display:inline;overflow:visible;enable-background:accumulate" />
      <path
         inkscape:connector-curvature="0"
         id="path3826"
         d="m 52.847974,693.27861 c 0,0 -1.334363,-0.47656 -1.191397,-0.23828 0.142967,0.23828 1.096086,1.57264 1.096086,1.57264"
         style="color:#000000;fill:none;stroke:#000000;stroke-width:0.625;stroke-linecap:butt;stroke-linejoin:miter;stroke-miterlimit:4;stroke-opacity:1;stroke-dasharray:none;stroke-dashoffset:0;marker:none;visibility:visible;display:inline;overflow:visible;enable-background:accumulate" />
      <path
         inkscape:connector-curvature="0"
         id="path3828"
         d="m 61.854924,692.70674 3.240593,-0.19063 -0.04766,-0.95311 0.810149,-0.0477 0.571871,1.76327 -0.571871,0.4289 c 0,0 -0.09531,-0.57187 -0.476558,-0.4289 -0.381247,0.14297 -1.71561,0.38124 -1.71561,0.38124 l -1.620297,2.43045"
         style="color:#000000;fill:none;stroke:#000000;stroke-width:0.625;stroke-linecap:butt;stroke-linejoin:miter;stroke-miterlimit:4;stroke-opacity:1;stroke-dasharray:none;stroke-dashoffset:0;marker:none;visibility:visible;display:inline;overflow:visible;enable-background:accumulate" />
      <path
         inkscape:connector-curvature="0"
         id="path3830"
         d="m 61.902579,694.66063 0.714838,-1.14374 -0.571871,-0.0477"
         style="color:#000000;fill:none;stroke:#000000;stroke-width:0.625;stroke-linecap:butt;stroke-linejoin:miter;stroke-miterlimit:4;stroke-opacity:1;stroke-dasharray:none;stroke-dashoffset:0;marker:none;visibility:visible;display:inline;overflow:visible;enable-background:accumulate" />
      <path
         inkscape:connector-curvature="0"
         id="path3832"
         d="m 63.228472,630.75799 c 1.443905,-0.37997 2.355845,-0.98793 1.747884,-1.4059 -0.607958,-0.41798 -1.405905,-0.114 -1.405905,-0.114"
         style="color:#000000;fill:none;stroke:#000000;stroke-width:0.625;stroke-linecap:butt;stroke-linejoin:miter;stroke-miterlimit:4;stroke-opacity:1;stroke-dasharray:none;stroke-dashoffset:0;marker:none;visibility:visible;display:inline;overflow:visible;enable-background:accumulate" />
      <path
         inkscape:connector-curvature="0"
         id="path3834"
         d="m 63.570451,627.94618 c 0.797947,-0.11399 1.785881,0.076 1.785881,0.076 l 0.721952,0.37998 -0.759949,0.68395"
         style="color:#000000;fill:none;stroke:#000000;stroke-width:0.625;stroke-linecap:butt;stroke-linejoin:miter;stroke-miterlimit:4;stroke-opacity:1;stroke-dasharray:none;stroke-dashoffset:0;marker:none;visibility:visible;display:inline;overflow:visible;enable-background:accumulate" />
    </g>
    <g
       id="g4004"
       transform="matrix(0.97991114,0,0,0.97991114,3.1715744,11.800264)">
      <path
         sodipodi:nodetypes="csscccc"
         inkscape:connector-curvature="0"
         id="path3818-4"
         d="m 219.9108,718.93645 c 0,0 -0.54443,-90.87086 -0.63576,-93.24932 -0.32403,-8.43836 0.0455,-7.15158 2.16788,-8.16292 2.12236,-1.01134 4.94954,0.54867 4.94954,0.54867 l 0.20118,9.85623 0.30496,25.50683 1.56328,65.49949"
         style="color:#000000;fill:#ffffff;fill-opacity:1;stroke:#000000;stroke-width:0.625;stroke-miterlimit:4;stroke-opacity:1;stroke-dasharray:none;marker:none;visibility:visible;display:inline;overflow:visible;enable-background:accumulate" />
      <path
         inkscape:connector-curvature="0"
         id="path3820-0"
         d="m 219.21282,665.91295 c -0.90385,-0.16034 -3.38179,-0.37439 -3.38179,-0.37439 l -0.10752,-0.62254 -0.6153,-0.27419 -0.5061,1.51779 2.49004,0.83478 c 0,0 0.88711,1.04304 1.09096,1.61968 0.20385,0.57663 0.99644,1.57015 0.99644,1.57015"
         style="color:#000000;fill:none;stroke:#000000;stroke-width:0.625;stroke-linecap:butt;stroke-linejoin:miter;stroke-miterlimit:4;stroke-opacity:1;stroke-dasharray:none;stroke-dashoffset:0;marker:none;visibility:visible;display:inline;overflow:visible;enable-background:accumulate" />
      <path
         inkscape:connector-curvature="0"
         id="path3822-9"
         d="m 219.07182,667.05581 c 0,0 -1.06813,-0.30664 -1.02223,-0.2103 0.0459,0.0963 1.13551,1.78757 1.13551,1.78757"
         style="color:#000000;fill:none;stroke:#000000;stroke-width:0.625;stroke-linecap:butt;stroke-linejoin:miter;stroke-miterlimit:4;stroke-opacity:1;stroke-dasharray:none;stroke-dashoffset:0;marker:none;visibility:visible;display:inline;overflow:visible;enable-background:accumulate" />
      <path
         inkscape:connector-curvature="0"
         id="path3824-8"
         d="m 227.67898,678.31116 2.38236,0.0452 1.05186,-0.17071 0.16011,-0.90259 0.71742,-0.12938 0.24883,1.95896 -0.62664,0.36943 -0.0386,-0.47738 -1.72525,0.49159 -1.961,2.87034"
         style="color:#000000;fill:none;stroke:#000000;stroke-width:0.625;stroke-linecap:butt;stroke-linejoin:miter;stroke-miterlimit:4;stroke-opacity:1;stroke-dasharray:none;stroke-dashoffset:0;marker:none;visibility:visible;display:inline;overflow:visible;enable-background:accumulate" />
      <path
         inkscape:connector-curvature="0"
         id="path3826-8"
         d="m 227.89914,679.26862 c 0,0 1.34316,-0.45117 1.1957,-0.21564 -0.14746,0.23552 -1.1257,1.55157 -1.1257,1.55157"
         style="color:#000000;fill:none;stroke:#000000;stroke-width:0.625;stroke-linecap:butt;stroke-linejoin:miter;stroke-miterlimit:4;stroke-opacity:1;stroke-dasharray:none;stroke-dashoffset:0;marker:none;visibility:visible;display:inline;overflow:visible;enable-background:accumulate" />
      <path
         inkscape:connector-curvature="0"
         id="path3828-0"
         d="m 219.30007,690.63301 -3.2364,-0.25204 0.0657,-0.95204 -0.8091,-0.063 -0.6052,1.7521 0.56364,0.43967 c 0,0 0.10613,-0.56995 0.4846,-0.41979 0.37847,0.15018 1.70807,0.41371 1.70807,0.41371 l 1.57393,2.46074"
         style="color:#000000;fill:none;stroke:#000000;stroke-width:0.625;stroke-linecap:butt;stroke-linejoin:miter;stroke-miterlimit:4;stroke-opacity:1;stroke-dasharray:none;stroke-dashoffset:0;marker:none;visibility:visible;display:inline;overflow:visible;enable-background:accumulate" />
      <path
         inkscape:connector-curvature="0"
         id="path3830-8"
         d="m 219.21538,692.58564 -0.69303,-1.15709 0.57267,-0.0368"
         style="color:#000000;fill:none;stroke:#000000;stroke-width:0.625;stroke-linecap:butt;stroke-linejoin:miter;stroke-miterlimit:4;stroke-opacity:1;stroke-dasharray:none;stroke-dashoffset:0;marker:none;visibility:visible;display:inline;overflow:visible;enable-background:accumulate" />
      <path
         inkscape:connector-curvature="0"
         id="path3832-6"
         d="m 219.10141,628.66935 c -1.43644,-0.40728 -2.33668,-1.03243 -1.72091,-1.43879 0.61577,-0.40637 1.40781,-0.0873 1.40781,-0.0873"
         style="color:#000000;fill:none;stroke:#000000;stroke-width:0.625;stroke-linecap:butt;stroke-linejoin:miter;stroke-miterlimit:4;stroke-opacity:1;stroke-dasharray:none;stroke-dashoffset:0;marker:none;visibility:visible;display:inline;overflow:visible;enable-background:accumulate" />
      <path
         inkscape:connector-curvature="0"
         id="path3834-7"
         d="m 218.81281,625.85156 c -0.79564,-0.1291 -1.787,0.0421 -1.787,0.0421 l -0.72903,0.36621 0.74685,0.69825"
         style="color:#000000;fill:none;stroke:#000000;stroke-width:0.625;stroke-linecap:butt;stroke-linejoin:miter;stroke-miterlimit:4;stroke-opacity:1;stroke-dasharray:none;stroke-dashoffset:0;marker:none;visibility:visible;display:inline;overflow:visible;enable-background:accumulate" />
      <path
         inkscape:connector-curvature="0"
         id="path3824-8-8"
         d="m 227.04786,643.8498 2.38236,0.0452 1.05186,-0.1707 0.16011,-0.90259 0.71742,-0.12939 0.24883,1.95896 -0.62664,0.36943 -0.0386,-0.47738 -1.72524,0.49159 -1.96101,2.87034"
         style="color:#000000;fill:none;stroke:#000000;stroke-width:0.625;stroke-linecap:butt;stroke-linejoin:miter;stroke-miterlimit:4;stroke-opacity:1;stroke-dasharray:none;stroke-dashoffset:0;marker:none;visibility:visible;display:inline;overflow:visible;enable-background:accumulate" />
      <path
         inkscape:connector-curvature="0"
         id="path3826-8-5"
         d="m 227.26803,644.80727 c 0,0 1.34315,-0.45117 1.1957,-0.21565 -0.14746,0.23553 -1.12571,1.55158 -1.12571,1.55158"
         style="color:#000000;fill:none;stroke:#000000;stroke-width:0.625;stroke-linecap:butt;stroke-linejoin:miter;stroke-miterlimit:4;stroke-opacity:1;stroke-dasharray:none;stroke-dashoffset:0;marker:none;visibility:visible;display:inline;overflow:visible;enable-background:accumulate" />
    </g>
    <path
       style="color:#000000;fill:none;stroke:#000000;stroke-width:1.22488892;stroke-linecap:butt;stroke-linejoin:miter;stroke-miterlimit:4;stroke-opacity:1;stroke-dasharray:none;stroke-dashoffset:0;marker:none;visibility:visible;display:inline;overflow:visible;enable-background:accumulate"
       d="m 67.50404,627.43843 c 30.204248,8.55138 27.480163,8.5836 53.98576,11.6541 16.05651,1.86002 32.22472,0.66939 40.35373,-0.38187 9.58323,-1.23933 21.61191,-3.17491 28.84001,-5.27844 6.38193,-1.8573 15.03439,-4.46488 18.15897,-5.75138 3.12458,-1.28648 6.03746,-2.28565 6.03746,-2.28565"
       id="path3984"
       inkscape:connector-curvature="0"
       sodipodi:nodetypes="cssssc" />
    <path
       style="color:#000000;fill:none;stroke:#000000;stroke-width:1.22488892;stroke-linecap:butt;stroke-linejoin:miter;stroke-miterlimit:4;stroke-opacity:1;stroke-dasharray:none;stroke-dashoffset:0;marker:none;visibility:visible;display:inline;overflow:visible;enable-background:accumulate"
       d="m 58.2285,626.12668 c -2.728046,2.23204 -7.440125,3.47206 -7.440125,3.47206"
       id="path3988"
       inkscape:connector-curvature="0" />
    <path
       style="color:#000000;fill:none;stroke:#000000;stroke-width:1.22488892;stroke-linecap:butt;stroke-linejoin:miter;stroke-miterlimit:4;stroke-opacity:1;stroke-dasharray:none;stroke-dashoffset:0;marker:none;visibility:visible;display:inline;overflow:visible;enable-background:accumulate"
       d="m 225.63131,625.87868 c 1.98404,0.99201 8.18414,2.72804 8.18414,2.72804"
       id="path3990"
       inkscape:connector-curvature="0" />
    <path
       style="color:#000000;fill:none;stroke:#000000;stroke-width:0.61244446;stroke-linecap:butt;stroke-linejoin:miter;stroke-miterlimit:4;stroke-opacity:1;stroke-dasharray:3.67466677, 3.67466677;stroke-dashoffset:0;marker:none;visibility:visible;display:inline;overflow:visible;enable-background:accumulate"
       d="m 68.148667,627.6147 46.128783,15.62427"
       id="path3992"
       inkscape:connector-curvature="0" />
    <path
       sodipodi:type="arc"
       style="fill:none;stroke:#000000;stroke-width:0.16881953;stroke-miterlimit:4;stroke-opacity:1;stroke-dasharray:none;stroke-dashoffset:0"
       id="path3994"
       sodipodi:cx="76.809143"
       sodipodi:cy="639.72345"
       sodipodi:rx="11.453753"
       sodipodi:ry="11.453753"
       d="m 88.262897,639.72345 a 11.453753,11.453753 0 0 1 -0.53838,3.47031"
       transform="matrix(3.6278059,0,0,3.6278059,-212.65163,-1693.4789)"
       sodipodi:start="0"
       sodipodi:end="0.30782319"
       sodipodi:open="true" />
    <text
       xml:space="preserve"
       style="font-size:10px;font-style:normal;font-variant:normal;font-weight:normal;font-stretch:normal;text-align:start;line-height:100%;letter-spacing:0px;word-spacing:0px;writing-mode:lr-tb;text-anchor:start;fill:#000000;fill-opacity:1;stroke:none;font-family:FreeSans;-inkscape-font-specification:Sans"
       x="109.18784"
       y="636.48175"
       id="text3998"
       sodipodi:linespacing="100%"><tspan
         sodipodi:role="line"
         id="tspan4000"
         x="109.18784"
         y="636.48175">θ</tspan></text>
  </g>
</svg>
