<?xml version="1.0" encoding="iso-8859-1"?>
<!-- Generator: Adobe Illustrator 11 Build 196, SVG Export Plug-In . SVG Version: 6.0.0 Build 78)  -->
<!DOCTYPE svg PUBLIC "-//W3C//DTD SVG 1.0//EN"    "http://www.w3.org/TR/2001/REC-SVG-20010904/DTD/svg10.dtd" [
	<!ENTITY ns_flows "http://ns.adobe.com/Flows/1.0/">
	<!ENTITY ns_svg "http://www.w3.org/2000/svg">
	<!ENTITY ns_xlink "http://www.w3.org/1999/xlink">
]>
<svg  
	 width="150.801" height="158.51" viewBox="0 0 150.801 158.51" style="overflow:visible;enable-background:new 0 0 150.801 158.51"
	 xml:space="preserve">
	<style type="text/css">
	
	</style>
	<g id="Layer_1">
		<line style="fill:none;stroke:#000000;stroke-width:1.5;" x1="47.906" y1="6.859" x2="47.906" y2="137.68"/>
		<line style="fill:none;stroke:#000000;stroke-width:0.5;" x1="62.44" y1="6.859" x2="62.44" y2="137.68"/>
		<line style="fill:none;stroke:#000000;stroke-width:0.5;" x1="76.975" y1="6.859" x2="76.975" y2="137.68"/>
		<line style="fill:none;stroke:#000000;stroke-width:0.5;" x1="91.51" y1="6.859" x2="91.51" y2="137.68"/>
		<line style="fill:none;stroke:#000000;stroke-width:0.5;" x1="106.045" y1="6.859" x2="106.045" y2="137.68"/>
		<line style="fill:none;stroke:#000000;stroke-width:0.5;" x1="120.58" y1="6.859" x2="120.58" y2="137.68"/>
		<line style="fill:none;stroke:#000000;stroke-width:0.5;" x1="135.115" y1="6.859" x2="135.115" y2="137.68"/>
		<line style="fill:none;stroke:#000000;stroke-width:0.5;" x1="149.649" y1="6.859" x2="149.649" y2="137.68"/>
		<line style="fill:none;stroke:#000000;stroke-width:0.5;" x1="48.356" y1="6.773" x2="150.09" y2="6.773"/>
		<line style="fill:none;stroke:#000000;stroke-width:0.5;" x1="48.356" y1="21.308" x2="150.09" y2="21.308"/>
		<line style="fill:none;stroke:#000000;stroke-width:0.5;" x1="48.356" y1="35.843" x2="150.09" y2="35.843"/>
		<line style="fill:none;stroke:#000000;stroke-width:0.5;" x1="48.356" y1="50.378" x2="150.09" y2="50.378"/>
		<line style="fill:none;stroke:#000000;stroke-width:0.5;" x1="48.356" y1="64.913" x2="150.09" y2="64.913"/>
		<line style="fill:none;stroke:#000000;stroke-width:0.5;" x1="48.356" y1="79.448" x2="150.09" y2="79.448"/>
		<line style="fill:none;stroke:#000000;stroke-width:0.5;" x1="48.356" y1="93.983" x2="150.09" y2="93.983"/>
		<line style="fill:none;stroke:#000000;stroke-width:0.5;" x1="48.356" y1="108.518" x2="150.09" y2="108.518"/>
		<line style="fill:none;stroke:#000000;stroke-width:0.5;" x1="48.356" y1="123.052" x2="150.09" y2="123.052"/>
		<line style="fill:none;stroke:#000000;stroke-width:1.5;" x1="48.356" y1="137.587" x2="150.09" y2="137.587"/>
		<g>
			<text transform="matrix(1 0 0 1 45.6255 145.5161)"><tspan x="0" y="0" style="font-family:Liberation Sans; font-size:7.650000;">0</tspan></text>
		</g>
		<g>
			<text transform="matrix(1 0 0 1 74.6951 145.5161)"><tspan x="0" y="0" style="font-family:Liberation Sans; font-size:7.650000;">4</tspan></text>
		</g>
		<g>
			<text transform="matrix(1 0 0 1 103.2 145.5161)"><tspan x="0" y="0" style="font-family:Liberation Sans; font-size:7.650000;">8</tspan></text>
		</g>
		<g>
			<text transform="matrix(1 0 0 1 130.2698 145.5161)"><tspan x="0" y="0" style="font-family:Liberation Sans; font-size:7.650000;">12</tspan></text>
		</g>
		<g>
			<text transform="matrix(1 0 0 1 87.8049 154.4937)"><tspan x="0" y="0" style="font-family:Liberation Sans; font-size:7.650000;">time (s)</tspan></text>
		</g>
		<g>
			<text transform="matrix(1 0 0 1 41.3506 139.814)"><tspan x="0" y="0" style="font-family:Liberation Sans; font-size:7.650000;">0</tspan></text>
		</g>
		<g>
			<text transform="matrix(1 0 0 1 36.5029 125.2788)"><tspan x="0" y="0" style="font-family:Liberation Sans; font-size:7.650000;">10</tspan></text>
		</g>
		<g>
			<text transform="matrix(1 0 0 1 36.5029 110.7441)"><tspan x="0" y="0" style="font-family:Liberation Sans; font-size:7.650000;">20</tspan></text>
		</g>
		<g>
			<text transform="matrix(1 0 0 1 36.5029 96.2095)"><tspan x="0" y="0" style="font-family:Liberation Sans; font-size:7.650000;">30</tspan></text>
		</g>
		<g>
			<text transform="matrix(1 0 0 1 36.5029 81.6743)"><tspan x="0" y="0" style="font-family:Liberation Sans; font-size:7.650000;">40</tspan></text>
		</g>
		<g>
			<text transform="matrix(1 0 0 1 36.5029 67.1396)"><tspan x="0" y="0" style="font-family:Liberation Sans; font-size:7.650000;">50</tspan></text>
		</g>
		<g>
			<text transform="matrix(1 0 0 1 36.5029 52.605)"><tspan x="0" y="0" style="font-family:Liberation Sans; font-size:7.650000;">60</tspan></text>
		</g>
		<g>
			<text transform="matrix(1 0 0 1 36.5029 38.0698)"><tspan x="0" y="0" style="font-family:Liberation Sans; font-size:7.650000;">70</tspan></text>
		</g>
		<g>
			<text transform="matrix(1 0 0 1 36.5029 23.5352)"><tspan x="0" y="0" style="font-family:Liberation Sans; font-size:7.650000;">80</tspan></text>
		</g>
		<g>
			<text transform="matrix(1 0 0 1 36.5029 9)"><tspan x="0" y="0" style="font-family:Liberation Sans; font-size:7.650000;">90</tspan></text>
		</g>
		<g>
			<text transform="matrix(1 0 0 1 0 67.9946)"><tspan x="0" y="0" style="font-family:Liberation Sans; font-size:7.650000;">distance</tspan></text>
			<text transform="matrix(1 0 0 1 20.0259 78.9946)"><tspan x="0" y="0" style="font-family:Liberation Sans; font-size:7.650000;">(m)</tspan></text>
		</g>
		<path style="fill:none;stroke:#000000;stroke-width:1.5;" d="M48.458,138.05C54.87,117.958,73.68,88.888,78.81,88.461
			s32.062-1.71,33.345-3.42c1.282-1.71,11.97-27.787,15.39-29.07s7.695-0.855,10.26-2.137c2.565-1.282,11.43-44.495,12.285-47.06"/>
	</g>
</svg>
