<?xml version="1.0" encoding="iso-8859-1"?>
<!-- Generator: Adobe Illustrator 11 Build 196, SVG Export Plug-In . SVG Version: 6.0.0 Build 78)  -->
<!DOCTYPE svg PUBLIC "-//W3C//DTD SVG 1.0//EN"    "http://www.w3.org/TR/2001/REC-SVG-20010904/DTD/svg10.dtd" [
	<!ENTITY ns_flows "http://ns.adobe.com/Flows/1.0/">
	<!ENTITY ns_svg "http://www.w3.org/2000/svg">
	<!ENTITY ns_xlink "http://www.w3.org/1999/xlink">
]>
<svg  
	 width="146.433" height="102.35" viewBox="0 0 146.433 102.35" style="overflow:visible;enable-background:new 0 0 146.433 102.35"
	 xml:space="preserve">
	<g id="Layer_1">
		<path style="fill:#BFA794;stroke:#000000;stroke-width:0.45;" d="M76.937,14.185c-0.018,0.021-0.022,0.044-0.035,0.066
			c-0.203-0.042-0.426,0.001-0.571,0.13c-0.01,0.009-0.013,0.021-0.022,0.03c-0.002-0.002-0.005-0.004-0.006-0.006
			c-0.202-0.183-0.558-0.206-0.795-0.051c-0.06,0.038-0.106,0.083-0.139,0.133c-0.16-0.062-0.349-0.054-0.51,0.013
			c-0.13-0.104-0.269-0.201-0.427-0.282c-0.244-0.124-0.562-0.078-0.741,0.094c-0.02-0.009-0.042-0.011-0.064-0.018v1.293
			c0.007-0.005,0.017-0.007,0.023-0.012c0.029-0.022,0.044-0.051,0.065-0.077c0.082,0.068,0.163,0.136,0.247,0.202
			c0.185,0.167,0.49,0.19,0.723,0.076c0.164,0.183,0.481,0.249,0.74,0.14c0.094-0.042,0.158-0.104,0.207-0.173
			c0.223,0.105,0.501,0.07,0.68-0.068c0.022,0.022,0.05,0.042,0.071,0.066c0.184,0.192,0.536,0.232,0.786,0.091
			c0.114-0.064,0.181-0.156,0.209-0.254c0.183,0.026,0.377-0.011,0.513-0.124c0.045-0.038,0.075-0.081,0.099-0.125
			c0.225,0.128,0.454,0.252,0.696,0.362c0.215,0.102,0.481,0.073,0.662-0.05c0.23,0.098,0.525,0.066,0.7-0.098
			c0.018-0.017,0.023-0.036,0.037-0.054c0.103,0.067,0.2,0.137,0.288,0.216c0.193,0.182,0.549,0.212,0.791,0.061
			c0.07-0.044,0.117-0.101,0.152-0.162c0.194,0.091,0.448,0.088,0.639-0.024c0.109-0.066,0.171-0.157,0.198-0.253
			c0.157,0.107,0.313,0.215,0.469,0.324c0.233,0.155,0.588,0.135,0.791-0.047c0.024-0.022,0.035-0.048,0.053-0.072
			c0.069,0.054,0.138,0.108,0.201,0.167c0.189,0.186,0.545,0.219,0.791,0.074c0.058-0.035,0.104-0.079,0.139-0.125
			c0.178,0.167,0.494,0.214,0.735,0.092c0.075-0.037,0.13-0.088,0.173-0.144c0.221,0.142,0.554,0.139,0.763-0.018
			c0.029-0.022,0.044-0.051,0.065-0.077c0.082,0.068,0.163,0.136,0.247,0.202c0.185,0.167,0.49,0.19,0.723,0.076
			c0.163,0.183,0.48,0.249,0.739,0.14c0.094-0.042,0.159-0.104,0.207-0.173c0.224,0.105,0.501,0.07,0.68-0.068
			c0.023,0.022,0.05,0.042,0.071,0.066c0.185,0.192,0.536,0.232,0.786,0.091c0.113-0.064,0.18-0.156,0.209-0.254
			c0.183,0.026,0.377-0.011,0.513-0.124c0.045-0.038,0.075-0.081,0.099-0.125c0.225,0.128,0.454,0.252,0.696,0.362
			c0.215,0.102,0.481,0.073,0.662-0.05c0.231,0.098,0.525,0.066,0.7-0.098c0.018-0.017,0.024-0.036,0.038-0.054
			c0.103,0.067,0.2,0.137,0.288,0.216c0.193,0.182,0.549,0.212,0.791,0.061c0.071-0.044,0.118-0.101,0.152-0.162
			c0.193,0.091,0.448,0.088,0.638-0.024c0.109-0.066,0.171-0.157,0.198-0.253c0.157,0.107,0.313,0.215,0.469,0.324
			c0.233,0.155,0.588,0.135,0.791-0.047c0.025-0.022,0.036-0.048,0.053-0.072c0.069,0.054,0.138,0.108,0.202,0.167
			c0.189,0.186,0.544,0.219,0.791,0.074c0.059-0.035,0.104-0.079,0.139-0.125c0.178,0.167,0.493,0.214,0.735,0.092
			c0.075-0.037,0.13-0.088,0.172-0.144c0.221,0.142,0.554,0.139,0.763-0.018c0.029-0.022,0.044-0.051,0.065-0.077
			c0.082,0.068,0.163,0.136,0.247,0.202c0.185,0.167,0.49,0.19,0.723,0.076c0.164,0.183,0.481,0.249,0.739,0.14
			c0.095-0.042,0.159-0.104,0.208-0.173c0.223,0.105,0.501,0.07,0.68-0.068c0.022,0.022,0.05,0.042,0.07,0.066
			c0.185,0.192,0.536,0.232,0.786,0.091c0.114-0.064,0.181-0.156,0.209-0.254c0.184,0.026,0.378-0.011,0.513-0.124
			c0.045-0.038,0.075-0.081,0.099-0.125c0.225,0.128,0.454,0.252,0.696,0.362c0.215,0.102,0.481,0.073,0.662-0.05
			c0.23,0.098,0.525,0.066,0.7-0.098c0.018-0.017,0.023-0.036,0.038-0.054c0.102,0.067,0.2,0.137,0.288,0.216
			c0.193,0.182,0.549,0.212,0.791,0.061c0.07-0.044,0.118-0.101,0.152-0.162c0.194,0.091,0.448,0.088,0.638-0.024
			c0.109-0.066,0.171-0.157,0.199-0.253c0.157,0.107,0.313,0.215,0.469,0.324c0.232,0.155,0.588,0.135,0.791-0.047
			c0.024-0.022,0.035-0.048,0.053-0.072c0.069,0.054,0.138,0.108,0.201,0.167c0.189,0.186,0.545,0.219,0.791,0.074
			c0.059-0.035,0.104-0.079,0.139-0.125c0.178,0.167,0.494,0.214,0.735,0.092c0.076-0.037,0.13-0.088,0.172-0.144
			c0.221,0.142,0.554,0.139,0.763-0.018c0.029-0.022,0.044-0.051,0.065-0.077c0.082,0.068,0.163,0.136,0.247,0.202
			c0.185,0.167,0.49,0.19,0.723,0.076c0.163,0.183,0.48,0.249,0.739,0.14c0.094-0.042,0.158-0.104,0.207-0.173
			c0.224,0.105,0.501,0.07,0.68-0.068c0.023,0.022,0.05,0.042,0.071,0.066c0.185,0.192,0.536,0.232,0.786,0.091
			c0.114-0.064,0.18-0.156,0.209-0.254c0.183,0.026,0.377-0.011,0.513-0.124c0.045-0.038,0.075-0.081,0.099-0.125
			c0.225,0.128,0.454,0.252,0.696,0.362c0.215,0.102,0.481,0.073,0.662-0.05c0.231,0.098,0.525,0.066,0.7-0.098
			c0.017-0.017,0.023-0.036,0.037-0.054c0.103,0.067,0.2,0.137,0.288,0.216c0.193,0.182,0.549,0.212,0.791,0.061
			c0.071-0.044,0.118-0.101,0.152-0.162c0.193,0.091,0.448,0.088,0.638-0.024c0.109-0.066,0.171-0.157,0.198-0.253
			c0.157,0.107,0.313,0.215,0.469,0.324c0.233,0.155,0.588,0.135,0.791-0.047c0.025-0.022,0.035-0.048,0.053-0.072
			c0.069,0.054,0.139,0.108,0.202,0.167c0.188,0.186,0.544,0.219,0.791,0.074c0.059-0.035,0.104-0.079,0.139-0.125
			c0.178,0.167,0.494,0.214,0.735,0.092c0.075-0.037,0.129-0.088,0.172-0.144c0.221,0.142,0.554,0.139,0.763-0.018
			c0.029-0.022,0.044-0.051,0.065-0.077c0.082,0.068,0.163,0.136,0.247,0.202c0.185,0.167,0.49,0.19,0.723,0.076
			c0.164,0.183,0.481,0.249,0.74,0.14c0.094-0.042,0.158-0.104,0.207-0.173c0.224,0.105,0.502,0.07,0.68-0.068
			c0.023,0.022,0.05,0.042,0.071,0.066c0.185,0.192,0.536,0.232,0.786,0.091c0.114-0.064,0.181-0.156,0.209-0.254
			c0.183,0.026,0.378-0.011,0.513-0.124c0.045-0.038,0.075-0.081,0.1-0.125c0.225,0.128,0.454,0.252,0.696,0.362
			c0.215,0.102,0.481,0.073,0.662-0.05c0.23,0.098,0.525,0.066,0.7-0.098c0.018-0.017,0.023-0.036,0.037-0.054
			c0.103,0.067,0.2,0.137,0.288,0.216c0.193,0.182,0.549,0.212,0.791,0.061c0.07-0.044,0.117-0.101,0.152-0.162
			c0.194,0.091,0.448,0.088,0.639-0.024c0.109-0.066,0.171-0.157,0.198-0.253c0.157,0.107,0.314,0.215,0.47,0.324
			c0.232,0.155,0.588,0.135,0.791-0.047c0.024-0.022,0.035-0.048,0.053-0.072c0.069,0.054,0.139,0.108,0.202,0.167
			c0.189,0.186,0.545,0.219,0.791,0.074c0.059-0.035,0.104-0.079,0.139-0.125c0.178,0.167,0.494,0.214,0.735,0.092
			c0.075-0.037,0.13-0.088,0.172-0.144c0.221,0.142,0.554,0.139,0.763-0.018c0.029-0.022,0.044-0.051,0.065-0.077
			c0.082,0.068,0.163,0.136,0.247,0.202c0.185,0.167,0.49,0.19,0.723,0.076c0.164,0.183,0.481,0.249,0.74,0.14
			c0.094-0.042,0.158-0.104,0.207-0.173c0.224,0.105,0.501,0.07,0.68-0.068c0.023,0.022,0.05,0.042,0.071,0.066
			c0.184,0.192,0.536,0.232,0.786,0.091c0.25-0.142,0.303-0.412,0.119-0.604c-0.259-0.321-0.721-0.506-0.984-0.823
			c-0.202-0.183-0.558-0.206-0.795-0.051c-0.06,0.038-0.105,0.083-0.139,0.133c-0.16-0.062-0.349-0.054-0.51,0.013
			c-0.13-0.104-0.269-0.201-0.427-0.282c-0.244-0.124-0.561-0.078-0.741,0.094c-0.256-0.117-0.586-0.067-0.757,0.126
			c-0.004,0.005-0.004,0.011-0.008,0.016c-0.206-0.136-0.42-0.264-0.655-0.371c-0.266-0.112-0.595-0.042-0.75,0.156
			c-0.187-0.032-0.39,0.003-0.533,0.118c-0.026,0.021-0.039,0.048-0.059,0.073c-0.194-0.113-0.4-0.217-0.644-0.289
			c-0.229-0.049-0.463,0.018-0.599,0.154c-0.118-0.073-0.229-0.151-0.354-0.218c-0.25-0.138-0.602-0.094-0.782,0.101
			c-0.057,0.061-0.082,0.129-0.092,0.199c-0.129-0.066-0.253-0.136-0.364-0.219c-0.242-0.148-0.597-0.122-0.791,0.067
			c-0.03,0.029-0.044,0.062-0.063,0.094c-0.113-0.054-0.226-0.107-0.337-0.161c-0.209-0.085-0.458-0.058-0.629,0.054
			c-0.233-0.149-0.578-0.135-0.781,0.041c-0.012,0.01-0.016,0.024-0.027,0.035c-0.121-0.075-0.241-0.149-0.364-0.221
			c-0.259-0.131-0.611-0.081-0.782,0.118c-0.018,0.021-0.022,0.044-0.035,0.066c-0.203-0.042-0.426,0.001-0.571,0.13
			c-0.01,0.009-0.013,0.021-0.021,0.03c-0.002-0.002-0.005-0.004-0.007-0.006c-0.202-0.183-0.558-0.206-0.795-0.051
			c-0.059,0.038-0.105,0.083-0.138,0.133c-0.16-0.062-0.349-0.054-0.51,0.013c-0.13-0.104-0.269-0.201-0.428-0.282
			c-0.244-0.124-0.561-0.078-0.741,0.094c-0.256-0.117-0.586-0.067-0.757,0.126c-0.004,0.005-0.004,0.011-0.008,0.016
			c-0.206-0.136-0.42-0.264-0.655-0.371c-0.266-0.112-0.595-0.042-0.75,0.156c-0.187-0.032-0.39,0.003-0.532,0.118
			c-0.026,0.021-0.04,0.048-0.059,0.073c-0.194-0.113-0.4-0.217-0.644-0.289c-0.229-0.049-0.463,0.018-0.599,0.154
			c-0.118-0.073-0.229-0.151-0.354-0.218c-0.25-0.138-0.602-0.094-0.782,0.101c-0.057,0.061-0.082,0.129-0.093,0.199
			c-0.128-0.066-0.253-0.136-0.364-0.219c-0.242-0.148-0.598-0.122-0.791,0.067c-0.03,0.029-0.044,0.062-0.063,0.094
			c-0.113-0.054-0.226-0.107-0.336-0.161c-0.209-0.085-0.458-0.058-0.629,0.054c-0.233-0.149-0.578-0.135-0.78,0.041
			c-0.012,0.01-0.017,0.024-0.027,0.035c-0.12-0.075-0.241-0.149-0.364-0.221c-0.259-0.131-0.61-0.081-0.782,0.118
			c-0.018,0.021-0.022,0.044-0.035,0.066c-0.203-0.042-0.426,0.001-0.571,0.13c-0.01,0.009-0.013,0.021-0.021,0.03
			c-0.002-0.002-0.005-0.004-0.007-0.006c-0.202-0.183-0.558-0.206-0.795-0.051c-0.059,0.038-0.105,0.083-0.139,0.133
			c-0.16-0.062-0.349-0.054-0.51,0.013c-0.13-0.104-0.269-0.201-0.427-0.282c-0.244-0.124-0.561-0.078-0.741,0.094
			c-0.256-0.117-0.586-0.067-0.757,0.126c-0.004,0.005-0.004,0.011-0.008,0.016c-0.206-0.136-0.42-0.264-0.655-0.371
			c-0.266-0.112-0.595-0.042-0.75,0.156c-0.187-0.032-0.39,0.003-0.533,0.118c-0.026,0.021-0.039,0.048-0.059,0.073
			c-0.194-0.113-0.4-0.217-0.644-0.289c-0.229-0.049-0.463,0.018-0.599,0.154c-0.118-0.073-0.229-0.151-0.354-0.218
			c-0.25-0.138-0.602-0.094-0.782,0.101c-0.057,0.061-0.082,0.129-0.092,0.199c-0.128-0.066-0.253-0.136-0.364-0.219
			c-0.242-0.148-0.597-0.122-0.791,0.067c-0.03,0.029-0.044,0.062-0.063,0.094c-0.113-0.054-0.226-0.107-0.336-0.161
			c-0.209-0.085-0.458-0.058-0.629,0.054c-0.233-0.149-0.578-0.135-0.781,0.041c-0.012,0.01-0.016,0.024-0.027,0.035
			c-0.12-0.075-0.24-0.149-0.363-0.221c-0.259-0.131-0.61-0.081-0.782,0.118c-0.018,0.021-0.022,0.044-0.035,0.066
			c-0.203-0.042-0.426,0.001-0.571,0.13c-0.01,0.009-0.013,0.021-0.022,0.03c-0.002-0.002-0.004-0.004-0.007-0.006
			c-0.202-0.183-0.558-0.206-0.794-0.051c-0.06,0.038-0.106,0.083-0.139,0.133c-0.16-0.062-0.348-0.054-0.51,0.013
			c-0.13-0.104-0.269-0.201-0.427-0.282c-0.244-0.124-0.562-0.078-0.741,0.094c-0.256-0.117-0.586-0.067-0.756,0.126
			c-0.004,0.005-0.004,0.011-0.009,0.016c-0.206-0.136-0.419-0.264-0.654-0.371c-0.266-0.112-0.595-0.042-0.75,0.156
			c-0.187-0.032-0.39,0.003-0.533,0.118c-0.027,0.021-0.04,0.048-0.059,0.073c-0.194-0.113-0.4-0.217-0.644-0.289
			c-0.229-0.049-0.463,0.018-0.599,0.154c-0.118-0.073-0.229-0.151-0.354-0.218c-0.25-0.138-0.602-0.094-0.782,0.101
			c-0.057,0.061-0.082,0.129-0.093,0.199c-0.128-0.066-0.253-0.136-0.364-0.219c-0.242-0.148-0.598-0.122-0.791,0.067
			c-0.03,0.029-0.044,0.062-0.063,0.094c-0.113-0.054-0.226-0.107-0.336-0.161c-0.209-0.085-0.458-0.058-0.629,0.054
			c-0.232-0.149-0.578-0.135-0.78,0.041c-0.013,0.01-0.017,0.024-0.027,0.035c-0.12-0.075-0.241-0.149-0.364-0.221
			c-0.259-0.131-0.61-0.081-0.782,0.118c-0.018,0.021-0.022,0.044-0.035,0.066c-0.203-0.042-0.426,0.001-0.571,0.13
			c-0.01,0.009-0.013,0.021-0.021,0.03c-0.002-0.002-0.005-0.004-0.007-0.006c-0.202-0.183-0.558-0.206-0.795-0.051
			c-0.059,0.038-0.105,0.083-0.139,0.133c-0.16-0.062-0.349-0.054-0.51,0.013c-0.13-0.104-0.268-0.201-0.427-0.282
			c-0.244-0.124-0.561-0.078-0.741,0.094c-0.256-0.117-0.586-0.067-0.757,0.126c-0.004,0.005-0.004,0.011-0.008,0.016
			c-0.206-0.136-0.42-0.264-0.655-0.371c-0.266-0.112-0.595-0.042-0.75,0.156c-0.187-0.032-0.39,0.003-0.533,0.118
			c-0.026,0.021-0.039,0.048-0.059,0.073c-0.194-0.113-0.4-0.217-0.644-0.289c-0.229-0.049-0.463,0.018-0.599,0.154
			c-0.117-0.073-0.229-0.151-0.354-0.218c-0.25-0.138-0.602-0.094-0.782,0.101c-0.057,0.061-0.082,0.129-0.093,0.199
			c-0.129-0.066-0.253-0.136-0.364-0.219c-0.241-0.148-0.597-0.122-0.791,0.067c-0.03,0.029-0.044,0.062-0.063,0.094
			c-0.113-0.054-0.226-0.107-0.336-0.161c-0.209-0.085-0.458-0.058-0.629,0.054c-0.233-0.149-0.578-0.135-0.781,0.041
			c-0.012,0.01-0.016,0.024-0.027,0.035c-0.12-0.075-0.241-0.149-0.364-0.221C77.459,13.936,77.108,13.986,76.937,14.185z"/>
		<path style="fill:#BFA794;stroke:#000000;stroke-width:0.45;" d="M133.953,49.238c-0.021-0.014-0.044-0.017-0.066-0.027
			c0.042-0.156-0.001-0.328-0.13-0.439c-0.009-0.008-0.021-0.01-0.03-0.017c0.002-0.001,0.004-0.003,0.006-0.005
			c0.183-0.155,0.206-0.428,0.051-0.61c-0.038-0.046-0.083-0.081-0.133-0.107c0.062-0.123,0.054-0.268-0.013-0.392
			c0.103-0.1,0.2-0.206,0.281-0.328c0.125-0.188,0.079-0.431-0.093-0.569c0.009-0.016,0.011-0.033,0.018-0.049h-1.293
			c0.005,0.006,0.006,0.013,0.012,0.018c0.023,0.022,0.051,0.034,0.077,0.05c-0.068,0.063-0.136,0.125-0.202,0.19
			c-0.167,0.142-0.19,0.376-0.076,0.555c-0.183,0.126-0.249,0.37-0.14,0.568c0.042,0.073,0.104,0.122,0.173,0.159
			c-0.105,0.172-0.07,0.385,0.068,0.522c-0.022,0.017-0.042,0.038-0.066,0.054c-0.192,0.142-0.233,0.412-0.091,0.604
			c0.064,0.087,0.156,0.139,0.254,0.161c-0.026,0.141,0.011,0.29,0.124,0.395c0.038,0.035,0.081,0.057,0.125,0.076
			c-0.128,0.172-0.252,0.349-0.362,0.535c-0.102,0.166-0.073,0.37,0.05,0.508c-0.098,0.177-0.066,0.404,0.098,0.538
			c0.016,0.014,0.036,0.018,0.054,0.029c-0.067,0.079-0.138,0.154-0.216,0.221c-0.182,0.148-0.212,0.422-0.061,0.607
			c0.044,0.054,0.101,0.09,0.162,0.117c-0.091,0.148-0.089,0.344,0.023,0.49c0.066,0.084,0.157,0.132,0.253,0.152
			c-0.107,0.121-0.215,0.241-0.324,0.361c-0.155,0.179-0.135,0.452,0.047,0.607c0.021,0.019,0.048,0.027,0.072,0.041
			c-0.054,0.053-0.108,0.106-0.167,0.155c-0.186,0.145-0.219,0.418-0.074,0.607c0.035,0.045,0.078,0.08,0.125,0.107
			c-0.167,0.136-0.214,0.379-0.092,0.565c0.037,0.058,0.088,0.099,0.144,0.132c-0.142,0.17-0.139,0.426,0.018,0.586
			c0.023,0.022,0.051,0.034,0.077,0.05c-0.068,0.063-0.136,0.125-0.202,0.189c-0.167,0.142-0.19,0.377-0.076,0.556
			c-0.183,0.125-0.249,0.37-0.14,0.568c0.042,0.072,0.104,0.122,0.173,0.159c-0.105,0.172-0.07,0.385,0.068,0.522
			c-0.022,0.017-0.042,0.038-0.066,0.054c-0.192,0.142-0.233,0.412-0.091,0.604c0.064,0.087,0.156,0.139,0.254,0.161
			c-0.026,0.141,0.011,0.29,0.124,0.395c0.038,0.035,0.081,0.057,0.125,0.076c-0.128,0.172-0.252,0.349-0.362,0.535
			c-0.102,0.166-0.073,0.37,0.05,0.508c-0.098,0.177-0.066,0.404,0.098,0.538c0.016,0.014,0.036,0.018,0.054,0.029
			c-0.067,0.079-0.138,0.154-0.216,0.221c-0.182,0.148-0.212,0.422-0.061,0.607c0.044,0.054,0.101,0.09,0.162,0.117
			c-0.091,0.148-0.089,0.344,0.023,0.49c0.066,0.084,0.157,0.132,0.253,0.152c-0.107,0.121-0.215,0.241-0.324,0.361
			c-0.155,0.179-0.135,0.452,0.047,0.607c0.021,0.019,0.048,0.027,0.072,0.041c-0.054,0.053-0.108,0.106-0.167,0.155
			c-0.186,0.145-0.219,0.418-0.074,0.607c0.035,0.045,0.078,0.08,0.125,0.106c-0.167,0.137-0.214,0.379-0.092,0.565
			c0.037,0.058,0.088,0.1,0.144,0.133c-0.142,0.17-0.139,0.426,0.018,0.586c0.023,0.022,0.051,0.034,0.077,0.05
			c-0.068,0.062-0.136,0.125-0.202,0.189c-0.167,0.142-0.19,0.377-0.076,0.556c-0.183,0.125-0.249,0.37-0.14,0.568
			c0.042,0.072,0.104,0.122,0.173,0.159c-0.105,0.172-0.07,0.385,0.068,0.522c-0.022,0.017-0.042,0.038-0.066,0.054
			c-0.192,0.142-0.233,0.412-0.091,0.604c0.064,0.087,0.156,0.139,0.254,0.161c-0.026,0.141,0.011,0.29,0.124,0.394
			c0.038,0.035,0.081,0.058,0.125,0.077c-0.128,0.172-0.252,0.349-0.362,0.535c-0.102,0.166-0.073,0.37,0.05,0.508
			c-0.098,0.177-0.066,0.403,0.098,0.538c0.016,0.014,0.036,0.018,0.054,0.029c-0.067,0.079-0.138,0.154-0.216,0.221
			c-0.182,0.148-0.212,0.422-0.061,0.607c0.044,0.054,0.101,0.09,0.162,0.117c-0.091,0.149-0.089,0.344,0.023,0.491
			c0.066,0.084,0.157,0.132,0.253,0.152c-0.107,0.121-0.215,0.241-0.324,0.361c-0.155,0.179-0.135,0.452,0.047,0.607
			c0.021,0.019,0.048,0.027,0.072,0.041c-0.054,0.053-0.108,0.106-0.167,0.155c-0.186,0.145-0.219,0.418-0.074,0.607
			c0.035,0.045,0.078,0.08,0.125,0.106c-0.167,0.137-0.214,0.379-0.092,0.565c0.037,0.058,0.088,0.1,0.144,0.132
			c-0.142,0.17-0.139,0.426,0.018,0.586c0.023,0.022,0.051,0.034,0.077,0.05c-0.068,0.062-0.136,0.125-0.202,0.189
			c-0.167,0.142-0.19,0.377-0.076,0.556c-0.183,0.125-0.249,0.37-0.14,0.568c0.042,0.072,0.104,0.122,0.173,0.159
			c-0.105,0.172-0.07,0.385,0.068,0.522c-0.022,0.018-0.042,0.039-0.066,0.055c-0.192,0.142-0.233,0.412-0.091,0.604
			c0.064,0.087,0.156,0.139,0.254,0.161c-0.026,0.141,0.011,0.29,0.124,0.394c0.038,0.035,0.081,0.058,0.125,0.076
			c-0.128,0.173-0.252,0.349-0.362,0.535c-0.102,0.165-0.073,0.37,0.05,0.508c-0.098,0.177-0.066,0.403,0.098,0.538
			c0.016,0.014,0.036,0.018,0.054,0.029c-0.067,0.079-0.138,0.154-0.216,0.221c-0.182,0.148-0.212,0.422-0.061,0.607
			c0.044,0.054,0.101,0.09,0.162,0.117c-0.091,0.149-0.089,0.344,0.023,0.491c0.066,0.084,0.157,0.132,0.253,0.152
			c-0.107,0.121-0.215,0.241-0.324,0.36c-0.155,0.179-0.135,0.453,0.047,0.608c0.021,0.019,0.048,0.027,0.072,0.041
			c-0.054,0.053-0.108,0.106-0.167,0.155c-0.186,0.145-0.219,0.418-0.074,0.607c0.035,0.045,0.078,0.08,0.125,0.106
			c-0.167,0.137-0.214,0.379-0.092,0.565c0.037,0.058,0.088,0.1,0.144,0.132c-0.142,0.17-0.139,0.426,0.018,0.586
			c0.023,0.022,0.051,0.034,0.077,0.05c-0.068,0.062-0.136,0.125-0.202,0.189c-0.167,0.142-0.19,0.377-0.076,0.556
			c-0.183,0.125-0.249,0.369-0.14,0.568c0.042,0.072,0.104,0.122,0.173,0.159c-0.105,0.172-0.07,0.386,0.068,0.522
			c-0.022,0.018-0.042,0.039-0.066,0.054c-0.192,0.142-0.233,0.412-0.091,0.604c0.064,0.087,0.156,0.139,0.254,0.161
			c-0.026,0.141,0.011,0.29,0.124,0.394c0.038,0.035,0.081,0.058,0.125,0.076c-0.128,0.173-0.252,0.349-0.362,0.535
			c-0.102,0.166-0.073,0.37,0.05,0.509c-0.098,0.177-0.066,0.403,0.098,0.538c0.016,0.014,0.036,0.018,0.054,0.029
			c-0.067,0.079-0.138,0.154-0.216,0.221c-0.182,0.148-0.212,0.422-0.061,0.607c0.044,0.054,0.101,0.09,0.162,0.117
			c-0.091,0.149-0.089,0.344,0.023,0.491c0.066,0.083,0.157,0.132,0.253,0.152c-0.107,0.121-0.215,0.241-0.324,0.36
			c-0.155,0.179-0.135,0.453,0.047,0.608c0.021,0.019,0.048,0.027,0.072,0.041c-0.054,0.053-0.108,0.106-0.167,0.155
			c-0.186,0.146-0.219,0.418-0.074,0.608c0.035,0.045,0.078,0.08,0.125,0.106c-0.167,0.137-0.214,0.379-0.092,0.565
			c0.037,0.058,0.088,0.1,0.144,0.132c-0.142,0.17-0.139,0.426,0.018,0.586c0.023,0.022,0.051,0.034,0.077,0.05
			c-0.068,0.062-0.136,0.125-0.202,0.189c-0.167,0.142-0.19,0.376-0.076,0.556c-0.183,0.125-0.249,0.369-0.14,0.568
			c0.042,0.072,0.104,0.122,0.173,0.159c-0.105,0.172-0.07,0.386,0.068,0.522c-0.022,0.018-0.042,0.039-0.066,0.054
			c-0.192,0.142-0.233,0.412-0.091,0.604c0.142,0.193,0.412,0.233,0.604,0.091c0.32-0.199,0.506-0.553,0.823-0.756
			c0.183-0.155,0.206-0.429,0.051-0.611c-0.038-0.045-0.083-0.081-0.133-0.106c0.062-0.123,0.054-0.268-0.013-0.392
			c0.103-0.1,0.2-0.207,0.281-0.328c0.125-0.188,0.079-0.432-0.093-0.569c0.117-0.197,0.067-0.451-0.126-0.582
			c-0.005-0.003-0.011-0.003-0.016-0.007c0.135-0.158,0.263-0.322,0.37-0.503c0.112-0.204,0.042-0.458-0.156-0.577
			c0.032-0.143-0.003-0.299-0.118-0.409c-0.022-0.021-0.048-0.03-0.073-0.045c0.114-0.149,0.217-0.308,0.289-0.495
			c0.049-0.176-0.018-0.356-0.154-0.46c0.073-0.09,0.151-0.176,0.218-0.272c0.138-0.192,0.094-0.462-0.102-0.601
			c-0.061-0.043-0.129-0.063-0.198-0.071c0.066-0.099,0.136-0.194,0.219-0.28c0.148-0.186,0.122-0.459-0.067-0.607
			c-0.029-0.023-0.062-0.034-0.094-0.049c0.053-0.086,0.107-0.173,0.161-0.258c0.085-0.161,0.058-0.353-0.055-0.484
			c0.15-0.179,0.136-0.444-0.04-0.6c-0.01-0.01-0.024-0.013-0.035-0.021c0.075-0.092,0.149-0.185,0.221-0.279
			c0.131-0.199,0.081-0.469-0.118-0.601c-0.021-0.014-0.044-0.017-0.066-0.027c0.042-0.156-0.001-0.328-0.13-0.439
			c-0.009-0.008-0.021-0.01-0.03-0.017c0.002-0.002,0.004-0.004,0.006-0.005c0.183-0.155,0.206-0.429,0.051-0.611
			c-0.038-0.045-0.083-0.081-0.133-0.106c0.062-0.123,0.054-0.268-0.013-0.392c0.103-0.1,0.2-0.207,0.281-0.328
			c0.125-0.188,0.079-0.432-0.093-0.569c0.117-0.197,0.067-0.451-0.126-0.582c-0.005-0.003-0.011-0.003-0.016-0.007
			c0.135-0.158,0.263-0.322,0.37-0.503c0.112-0.204,0.042-0.458-0.156-0.576c0.032-0.144-0.003-0.3-0.118-0.409
			c-0.022-0.021-0.048-0.03-0.073-0.045c0.114-0.149,0.217-0.308,0.289-0.495c0.049-0.176-0.018-0.356-0.154-0.46
			c0.073-0.09,0.151-0.176,0.218-0.272c0.138-0.192,0.094-0.462-0.102-0.601c-0.061-0.043-0.129-0.062-0.198-0.071
			c0.066-0.099,0.136-0.194,0.219-0.28c0.148-0.186,0.122-0.459-0.067-0.607c-0.029-0.023-0.062-0.034-0.094-0.049
			c0.053-0.086,0.107-0.173,0.161-0.258c0.085-0.161,0.058-0.353-0.055-0.484c0.15-0.179,0.136-0.444-0.04-0.6
			c-0.01-0.01-0.024-0.013-0.035-0.021c0.075-0.093,0.149-0.186,0.221-0.28c0.131-0.199,0.081-0.469-0.118-0.601
			c-0.021-0.014-0.044-0.018-0.066-0.027c0.042-0.156-0.001-0.328-0.13-0.439c-0.009-0.008-0.021-0.01-0.03-0.017
			c0.002-0.002,0.004-0.004,0.006-0.005c0.183-0.155,0.206-0.429,0.051-0.611c-0.038-0.045-0.083-0.081-0.133-0.106
			c0.062-0.123,0.054-0.268-0.013-0.392c0.103-0.1,0.2-0.206,0.281-0.328c0.125-0.188,0.079-0.432-0.093-0.569
			c0.117-0.197,0.067-0.451-0.126-0.582c-0.005-0.003-0.011-0.003-0.016-0.006c0.135-0.158,0.263-0.323,0.37-0.503
			c0.112-0.204,0.042-0.458-0.156-0.576c0.032-0.144-0.003-0.3-0.118-0.409c-0.022-0.021-0.048-0.03-0.073-0.045
			c0.114-0.149,0.217-0.308,0.289-0.495c0.049-0.176-0.018-0.356-0.154-0.46c0.073-0.09,0.151-0.176,0.218-0.272
			c0.138-0.192,0.094-0.462-0.102-0.601c-0.061-0.043-0.129-0.063-0.198-0.071c0.066-0.099,0.136-0.194,0.219-0.28
			c0.148-0.186,0.122-0.459-0.067-0.607c-0.029-0.023-0.062-0.034-0.094-0.049c0.053-0.086,0.107-0.173,0.161-0.258
			c0.085-0.161,0.058-0.353-0.055-0.483c0.15-0.179,0.136-0.444-0.04-0.6c-0.01-0.009-0.024-0.013-0.035-0.021
			c0.075-0.092,0.149-0.185,0.221-0.279c0.131-0.199,0.081-0.469-0.118-0.601c-0.021-0.014-0.044-0.017-0.066-0.027
			c0.042-0.156-0.001-0.328-0.13-0.439c-0.009-0.008-0.021-0.01-0.03-0.017c0.002-0.001,0.004-0.004,0.006-0.005
			c0.183-0.155,0.206-0.428,0.051-0.611c-0.038-0.045-0.083-0.081-0.133-0.106c0.062-0.123,0.054-0.268-0.013-0.392
			c0.103-0.1,0.2-0.206,0.281-0.328c0.125-0.188,0.079-0.431-0.093-0.569c0.117-0.197,0.067-0.451-0.126-0.582
			c-0.005-0.003-0.011-0.003-0.016-0.006c0.135-0.159,0.263-0.323,0.37-0.503c0.112-0.204,0.042-0.457-0.156-0.576
			c0.032-0.144-0.003-0.299-0.118-0.409c-0.022-0.021-0.048-0.03-0.073-0.045c0.114-0.149,0.217-0.308,0.289-0.495
			c0.049-0.176-0.018-0.355-0.154-0.46c0.073-0.09,0.151-0.176,0.218-0.272c0.138-0.192,0.094-0.462-0.102-0.601
			c-0.061-0.043-0.129-0.063-0.198-0.071c0.066-0.099,0.136-0.194,0.219-0.28c0.148-0.186,0.122-0.459-0.067-0.607
			c-0.029-0.023-0.062-0.034-0.094-0.049c0.053-0.086,0.107-0.173,0.161-0.258c0.085-0.161,0.058-0.353-0.055-0.483
			c0.15-0.179,0.136-0.444-0.04-0.6c-0.01-0.009-0.024-0.012-0.035-0.021c0.075-0.093,0.149-0.185,0.221-0.28
			c0.131-0.199,0.081-0.469-0.118-0.601c-0.021-0.014-0.044-0.017-0.066-0.027c0.042-0.156-0.001-0.328-0.13-0.439
			c-0.009-0.008-0.021-0.01-0.03-0.017c0.002-0.001,0.004-0.003,0.006-0.005c0.183-0.155,0.206-0.428,0.051-0.61
			c-0.038-0.046-0.083-0.082-0.133-0.107c0.062-0.123,0.054-0.268-0.013-0.392c0.103-0.1,0.2-0.206,0.281-0.328
			c0.125-0.188,0.079-0.431-0.093-0.569c0.117-0.197,0.067-0.451-0.126-0.582c-0.005-0.003-0.011-0.003-0.016-0.006
			c0.135-0.158,0.263-0.323,0.37-0.503c0.112-0.204,0.042-0.457-0.156-0.576c0.032-0.144-0.003-0.299-0.118-0.409
			c-0.022-0.021-0.048-0.03-0.073-0.045c0.114-0.149,0.217-0.307,0.289-0.495c0.049-0.176-0.018-0.355-0.154-0.46
			c0.073-0.09,0.151-0.176,0.218-0.272c0.138-0.192,0.094-0.462-0.102-0.601c-0.061-0.043-0.129-0.063-0.198-0.071
			c0.066-0.099,0.136-0.194,0.219-0.28c0.148-0.186,0.122-0.459-0.067-0.607c-0.029-0.023-0.062-0.034-0.094-0.048
			c0.053-0.087,0.107-0.174,0.161-0.259c0.085-0.161,0.058-0.352-0.055-0.483c0.15-0.179,0.136-0.444-0.04-0.6
			c-0.01-0.009-0.024-0.012-0.035-0.021c0.075-0.092,0.149-0.185,0.221-0.28C134.203,49.64,134.152,49.37,133.953,49.238z"/>
		<path style="fill:#BFA794;stroke:#000000;stroke-width:0.45;" d="M74.38,37.214c-0.014,0.021-0.017,0.044-0.027,0.066
			c-0.156-0.041-0.328,0.002-0.439,0.13c-0.007,0.009-0.01,0.02-0.017,0.03c-0.001-0.002-0.003-0.004-0.005-0.006
			c-0.155-0.182-0.429-0.206-0.611-0.051c-0.045,0.038-0.081,0.083-0.106,0.133c-0.123-0.062-0.268-0.054-0.392,0.013
			c-0.1-0.104-0.207-0.2-0.328-0.281c-0.188-0.124-0.432-0.078-0.57,0.093c-0.015-0.009-0.033-0.011-0.049-0.018v1.293
			c0.005-0.005,0.012-0.006,0.018-0.012c0.022-0.022,0.034-0.051,0.05-0.077c0.062,0.068,0.125,0.136,0.189,0.202
			c0.142,0.167,0.376,0.19,0.556,0.076c0.125,0.183,0.369,0.249,0.568,0.14c0.072-0.041,0.122-0.104,0.159-0.173
			c0.172,0.105,0.386,0.069,0.522-0.068c0.018,0.022,0.039,0.042,0.054,0.066c0.142,0.192,0.412,0.233,0.604,0.091
			c0.087-0.064,0.139-0.156,0.161-0.254c0.141,0.026,0.291-0.011,0.395-0.124c0.035-0.038,0.058-0.081,0.076-0.125
			c0.173,0.128,0.349,0.252,0.535,0.362c0.166,0.102,0.37,0.073,0.509-0.05c0.177,0.098,0.403,0.066,0.538-0.098
			c0.013-0.016,0.018-0.036,0.029-0.054c0.079,0.067,0.154,0.138,0.221,0.216c0.149,0.182,0.422,0.212,0.608,0.061
			c0.054-0.044,0.09-0.101,0.117-0.162c0.149,0.091,0.344,0.089,0.491-0.024c0.083-0.066,0.131-0.157,0.152-0.252
			c0.12,0.107,0.241,0.215,0.36,0.323c0.179,0.155,0.452,0.135,0.607-0.047c0.019-0.022,0.027-0.048,0.041-0.073
			c0.053,0.054,0.106,0.108,0.155,0.167c0.145,0.186,0.418,0.219,0.607,0.074c0.045-0.035,0.08-0.078,0.107-0.125
			c0.137,0.167,0.379,0.214,0.565,0.092c0.058-0.037,0.1-0.088,0.132-0.144c0.17,0.142,0.426,0.14,0.586-0.018
			c0.022-0.022,0.034-0.051,0.05-0.077c0.062,0.068,0.125,0.136,0.189,0.202c0.142,0.167,0.376,0.19,0.556,0.076
			c0.125,0.183,0.369,0.249,0.568,0.14c0.073-0.041,0.122-0.104,0.159-0.173c0.172,0.105,0.386,0.069,0.522-0.068
			c0.018,0.022,0.038,0.042,0.054,0.066c0.142,0.192,0.412,0.233,0.604,0.091c0.087-0.064,0.139-0.156,0.161-0.254
			c0.141,0.026,0.291-0.011,0.395-0.124c0.035-0.038,0.058-0.081,0.076-0.125c0.173,0.128,0.349,0.252,0.535,0.362
			c0.166,0.102,0.37,0.073,0.508-0.05c0.177,0.098,0.404,0.066,0.538-0.098c0.013-0.016,0.018-0.036,0.028-0.054
			c0.079,0.067,0.154,0.138,0.221,0.216c0.148,0.182,0.422,0.212,0.607,0.061c0.054-0.044,0.09-0.101,0.117-0.162
			c0.149,0.091,0.344,0.089,0.49-0.024c0.084-0.066,0.132-0.157,0.153-0.252c0.12,0.107,0.241,0.215,0.36,0.323
			c0.179,0.155,0.452,0.135,0.607-0.047c0.019-0.022,0.027-0.048,0.041-0.073c0.053,0.054,0.106,0.108,0.155,0.167
			c0.145,0.186,0.418,0.219,0.607,0.074c0.045-0.035,0.08-0.078,0.107-0.125c0.137,0.167,0.379,0.214,0.565,0.092
			c0.058-0.037,0.1-0.088,0.132-0.144c0.17,0.142,0.426,0.14,0.586-0.018c0.022-0.022,0.034-0.051,0.05-0.077
			c0.062,0.068,0.125,0.136,0.189,0.202c0.142,0.167,0.376,0.19,0.555,0.076c0.126,0.183,0.37,0.249,0.568,0.14
			c0.073-0.041,0.122-0.104,0.159-0.173c0.172,0.105,0.385,0.069,0.522-0.068c0.018,0.022,0.038,0.042,0.054,0.066
			c0.142,0.192,0.412,0.233,0.604,0.091c0.087-0.064,0.139-0.156,0.161-0.254c0.141,0.026,0.29-0.011,0.395-0.124
			c0.035-0.038,0.058-0.081,0.076-0.125c0.172,0.128,0.349,0.252,0.535,0.362c0.166,0.102,0.37,0.073,0.508-0.05
			c0.178,0.098,0.404,0.066,0.538-0.098c0.014-0.016,0.018-0.036,0.029-0.054c0.079,0.067,0.154,0.138,0.221,0.216
			c0.148,0.182,0.422,0.212,0.607,0.061c0.054-0.044,0.091-0.101,0.117-0.162c0.149,0.091,0.344,0.089,0.49-0.024
			c0.084-0.066,0.132-0.157,0.152-0.252c0.121,0.107,0.241,0.215,0.361,0.323c0.179,0.155,0.452,0.135,0.607-0.047
			c0.019-0.022,0.027-0.048,0.041-0.073c0.053,0.054,0.106,0.108,0.155,0.167c0.145,0.186,0.418,0.219,0.607,0.074
			c0.045-0.035,0.08-0.078,0.107-0.125c0.137,0.167,0.379,0.214,0.565,0.092c0.058-0.037,0.1-0.088,0.132-0.144
			c0.17,0.142,0.426,0.14,0.586-0.018c0.022-0.022,0.034-0.051,0.05-0.077c0.063,0.068,0.125,0.136,0.19,0.202
			c0.142,0.167,0.376,0.19,0.555,0.076c0.125,0.183,0.37,0.249,0.568,0.14c0.073-0.041,0.122-0.104,0.159-0.173
			c0.172,0.105,0.385,0.069,0.522-0.068c0.017,0.022,0.038,0.042,0.054,0.066c0.142,0.192,0.412,0.233,0.604,0.091
			c0.087-0.064,0.139-0.156,0.161-0.254c0.141,0.026,0.29-0.011,0.395-0.124c0.035-0.038,0.058-0.081,0.076-0.125
			c0.172,0.128,0.349,0.252,0.535,0.362c0.166,0.102,0.37,0.073,0.508-0.05c0.177,0.098,0.404,0.066,0.538-0.098
			c0.013-0.016,0.018-0.036,0.028-0.054c0.079,0.067,0.154,0.138,0.221,0.216c0.148,0.182,0.422,0.212,0.607,0.061
			c0.054-0.044,0.09-0.101,0.117-0.162c0.148,0.091,0.344,0.089,0.49-0.024c0.084-0.066,0.132-0.157,0.152-0.252
			c0.121,0.107,0.241,0.215,0.361,0.323c0.179,0.155,0.452,0.135,0.607-0.047c0.019-0.022,0.027-0.048,0.041-0.073
			c0.053,0.054,0.106,0.108,0.155,0.167c0.145,0.186,0.418,0.219,0.607,0.074c0.045-0.035,0.08-0.078,0.107-0.125
			c0.136,0.167,0.379,0.214,0.564,0.092c0.058-0.037,0.1-0.088,0.133-0.144c0.17,0.142,0.426,0.14,0.586-0.018
			c0.022-0.022,0.034-0.051,0.05-0.077c0.063,0.068,0.125,0.136,0.189,0.202c0.142,0.167,0.377,0.19,0.556,0.076
			c0.125,0.183,0.37,0.249,0.568,0.14c0.072-0.041,0.122-0.104,0.159-0.173c0.172,0.105,0.385,0.069,0.522-0.068
			c0.018,0.022,0.039,0.042,0.055,0.066c0.142,0.192,0.412,0.233,0.604,0.091c0.087-0.064,0.139-0.156,0.161-0.254
			c0.141,0.026,0.29-0.011,0.395-0.124c0.035-0.038,0.057-0.081,0.076-0.125c0.172,0.128,0.349,0.252,0.535,0.362
			c0.166,0.102,0.37,0.073,0.508-0.05c0.177,0.098,0.403,0.066,0.538-0.098c0.014-0.016,0.018-0.036,0.029-0.054
			c0.079,0.067,0.154,0.138,0.221,0.216c0.148,0.182,0.422,0.212,0.607,0.061c0.054-0.044,0.09-0.101,0.117-0.162
			c0.149,0.091,0.344,0.089,0.491-0.024c0.084-0.066,0.132-0.157,0.152-0.252c0.121,0.107,0.241,0.215,0.361,0.323
			c0.179,0.155,0.452,0.135,0.607-0.047c0.019-0.022,0.027-0.048,0.041-0.073c0.053,0.054,0.106,0.108,0.155,0.167
			c0.145,0.186,0.418,0.219,0.607,0.074c0.045-0.035,0.08-0.078,0.106-0.125c0.137,0.167,0.379,0.214,0.565,0.092
			c0.058-0.037,0.1-0.088,0.132-0.144c0.17,0.142,0.426,0.14,0.587-0.018c0.022-0.022,0.034-0.051,0.05-0.077
			c0.063,0.068,0.125,0.136,0.189,0.202c0.142,0.167,0.377,0.19,0.556,0.076c0.125,0.183,0.37,0.249,0.568,0.14
			c0.072-0.041,0.122-0.104,0.159-0.173c0.172,0.105,0.385,0.069,0.522-0.068c0.018,0.022,0.039,0.042,0.055,0.066
			c0.142,0.192,0.412,0.233,0.604,0.091c0.192-0.142,0.233-0.412,0.091-0.604c-0.199-0.32-0.554-0.506-0.756-0.823
			c-0.155-0.182-0.429-0.206-0.611-0.051c-0.045,0.038-0.081,0.083-0.106,0.133c-0.123-0.062-0.268-0.054-0.392,0.013
			c-0.1-0.104-0.206-0.2-0.328-0.281c-0.188-0.124-0.432-0.078-0.569,0.093c-0.197-0.117-0.451-0.067-0.582,0.126
			c-0.003,0.005-0.003,0.011-0.006,0.016c-0.158-0.135-0.323-0.263-0.503-0.371c-0.204-0.112-0.457-0.042-0.576,0.156
			c-0.144-0.032-0.299,0.003-0.409,0.117c-0.021,0.022-0.03,0.049-0.045,0.073c-0.149-0.114-0.308-0.217-0.495-0.289
			c-0.176-0.049-0.355,0.018-0.46,0.154c-0.09-0.073-0.176-0.152-0.272-0.219c-0.192-0.138-0.462-0.094-0.601,0.102
			c-0.043,0.061-0.063,0.129-0.071,0.198c-0.099-0.066-0.194-0.136-0.28-0.218c-0.186-0.149-0.459-0.122-0.607,0.067
			c-0.023,0.028-0.034,0.062-0.049,0.093c-0.086-0.053-0.173-0.107-0.258-0.161c-0.161-0.086-0.353-0.058-0.483,0.054
			c-0.179-0.15-0.444-0.136-0.6,0.04c-0.009,0.01-0.013,0.024-0.021,0.035c-0.093-0.075-0.185-0.149-0.28-0.221
			c-0.199-0.132-0.469-0.081-0.601,0.118c-0.014,0.021-0.017,0.044-0.027,0.066c-0.156-0.041-0.328,0.002-0.439,0.13
			c-0.008,0.009-0.01,0.02-0.017,0.03c-0.001-0.002-0.004-0.004-0.005-0.006c-0.155-0.182-0.429-0.206-0.611-0.051
			c-0.045,0.038-0.081,0.083-0.106,0.133c-0.123-0.062-0.268-0.054-0.392,0.013c-0.1-0.104-0.206-0.2-0.328-0.281
			c-0.188-0.124-0.431-0.078-0.569,0.093c-0.197-0.117-0.451-0.067-0.582,0.126c-0.003,0.005-0.003,0.011-0.006,0.016
			c-0.158-0.135-0.323-0.263-0.503-0.371c-0.204-0.112-0.457-0.042-0.576,0.156c-0.144-0.032-0.299,0.003-0.409,0.117
			c-0.021,0.022-0.03,0.049-0.045,0.073c-0.149-0.114-0.308-0.217-0.495-0.289c-0.176-0.049-0.355,0.018-0.46,0.154
			c-0.09-0.073-0.176-0.152-0.272-0.219c-0.192-0.138-0.462-0.094-0.601,0.102c-0.043,0.061-0.063,0.129-0.071,0.198
			c-0.099-0.066-0.194-0.136-0.28-0.218c-0.186-0.149-0.459-0.122-0.607,0.067c-0.023,0.028-0.034,0.062-0.048,0.093
			c-0.087-0.053-0.174-0.107-0.259-0.161c-0.161-0.086-0.352-0.058-0.483,0.054c-0.179-0.15-0.444-0.136-0.6,0.04
			c-0.009,0.01-0.012,0.024-0.021,0.035c-0.092-0.075-0.185-0.149-0.28-0.221c-0.199-0.132-0.469-0.081-0.601,0.118
			c-0.014,0.021-0.017,0.044-0.027,0.066c-0.156-0.041-0.328,0.002-0.439,0.13c-0.008,0.009-0.01,0.02-0.017,0.03
			c-0.001-0.002-0.003-0.004-0.005-0.006c-0.156-0.182-0.429-0.206-0.611-0.051c-0.046,0.038-0.082,0.083-0.107,0.133
			c-0.123-0.062-0.268-0.054-0.392,0.013c-0.1-0.104-0.206-0.2-0.328-0.281c-0.188-0.124-0.431-0.078-0.569,0.093
			c-0.197-0.117-0.451-0.067-0.582,0.126c-0.003,0.005-0.003,0.011-0.006,0.016c-0.158-0.135-0.323-0.263-0.503-0.371
			c-0.204-0.112-0.457-0.042-0.576,0.156c-0.144-0.032-0.299,0.003-0.409,0.117c-0.021,0.022-0.03,0.049-0.045,0.073
			c-0.149-0.114-0.307-0.217-0.495-0.289c-0.176-0.049-0.355,0.018-0.46,0.154c-0.09-0.073-0.176-0.152-0.272-0.219
			c-0.192-0.138-0.462-0.094-0.601,0.102c-0.043,0.061-0.063,0.129-0.071,0.198c-0.099-0.066-0.194-0.136-0.28-0.218
			c-0.186-0.149-0.459-0.122-0.607,0.067c-0.023,0.028-0.034,0.062-0.048,0.093c-0.087-0.053-0.174-0.107-0.259-0.161
			c-0.161-0.086-0.352-0.058-0.483,0.054c-0.179-0.15-0.444-0.136-0.6,0.04c-0.009,0.01-0.012,0.024-0.021,0.035
			c-0.092-0.075-0.185-0.149-0.28-0.221c-0.199-0.132-0.469-0.081-0.601,0.118c-0.014,0.021-0.017,0.044-0.027,0.066
			c-0.156-0.041-0.328,0.002-0.439,0.13c-0.008,0.009-0.01,0.02-0.017,0.03c-0.001-0.002-0.003-0.004-0.005-0.006
			c-0.155-0.182-0.429-0.206-0.611-0.051c-0.046,0.038-0.081,0.083-0.107,0.133c-0.123-0.062-0.268-0.054-0.392,0.013
			c-0.1-0.104-0.207-0.2-0.329-0.281c-0.188-0.124-0.431-0.078-0.569,0.093c-0.197-0.117-0.451-0.067-0.582,0.126
			c-0.003,0.005-0.003,0.011-0.006,0.016c-0.158-0.135-0.323-0.263-0.503-0.371c-0.204-0.112-0.458-0.042-0.577,0.156
			c-0.144-0.032-0.299,0.003-0.409,0.117c-0.021,0.022-0.03,0.049-0.045,0.073c-0.149-0.114-0.307-0.217-0.495-0.289
			c-0.175-0.049-0.355,0.018-0.46,0.154c-0.09-0.073-0.176-0.152-0.272-0.219c-0.192-0.138-0.463-0.094-0.601,0.102
			c-0.043,0.061-0.063,0.129-0.071,0.198c-0.099-0.066-0.194-0.136-0.28-0.218c-0.186-0.149-0.459-0.122-0.607,0.067
			c-0.023,0.028-0.034,0.062-0.048,0.093c-0.087-0.053-0.173-0.107-0.259-0.161c-0.161-0.086-0.352-0.058-0.483,0.054
			c-0.179-0.15-0.444-0.136-0.6,0.04c-0.01,0.01-0.013,0.024-0.021,0.035c-0.092-0.075-0.185-0.149-0.28-0.221
			c-0.199-0.132-0.469-0.081-0.601,0.118c-0.014,0.021-0.017,0.044-0.027,0.066c-0.156-0.041-0.328,0.002-0.439,0.13
			c-0.007,0.009-0.01,0.02-0.017,0.03c-0.001-0.002-0.003-0.004-0.005-0.006c-0.155-0.182-0.429-0.206-0.611-0.051
			c-0.045,0.038-0.081,0.083-0.107,0.133c-0.123-0.062-0.268-0.054-0.392,0.013c-0.1-0.104-0.207-0.2-0.329-0.281
			c-0.188-0.124-0.431-0.078-0.569,0.093c-0.197-0.117-0.451-0.067-0.581,0.126c-0.003,0.005-0.004,0.011-0.007,0.016
			c-0.158-0.135-0.322-0.263-0.503-0.371c-0.204-0.112-0.458-0.042-0.577,0.156c-0.144-0.032-0.299,0.003-0.409,0.117
			c-0.02,0.022-0.03,0.049-0.045,0.073c-0.149-0.114-0.307-0.217-0.495-0.289c-0.175-0.049-0.355,0.018-0.46,0.154
			c-0.09-0.073-0.176-0.152-0.272-0.219c-0.192-0.138-0.462-0.094-0.601,0.102c-0.043,0.061-0.063,0.129-0.071,0.198
			c-0.099-0.066-0.194-0.136-0.28-0.218c-0.186-0.149-0.459-0.122-0.607,0.067c-0.022,0.028-0.034,0.062-0.048,0.093
			c-0.087-0.053-0.173-0.107-0.259-0.161c-0.161-0.086-0.352-0.058-0.483,0.054c-0.179-0.15-0.444-0.136-0.6,0.04
			c-0.01,0.01-0.013,0.024-0.021,0.035c-0.092-0.075-0.185-0.149-0.279-0.221C74.782,36.965,74.512,37.016,74.38,37.214z"/>
		<g>
			<circle style="fill:#FFFFFF;stroke:#000000;stroke-width:0.45;" cx="73.122" cy="26.488" r="12.41"/> 
			<circle style="fill:none;stroke:#000000;stroke-width:0.45;" cx="73.122" cy="26.488" r="2.482"/> 
		</g>
		<g>
			<circle style="fill:#FFFFFF;stroke:#000000;stroke-width:0.45;" cx="121.253" cy="49.4" r="12.41"/> 
			<circle style="fill:none;stroke:#000000;stroke-width:0.45;" cx="121.253" cy="49.4" r="2.482"/> 
		</g>
		<g>
			<line style="fill:none;stroke:#000000;stroke-width:0.45;" x1="140.509" y1="0.088" x2="140.509" y2="32.488"/>
			<line style="fill:none;stroke:#000000;stroke-width:0.45;" x1="140.883" y1="3.576" x2="144.717" y2="0.168"/>
			<line style="fill:none;stroke:#000000;stroke-width:0.45;" x1="144.605" y1="30.993" x2="146.171" y2="29.601"/>
			<line style="fill:none;stroke:#000000;stroke-width:0.45;" x1="140.883" y1="7.402" x2="146.284" y2="2.603"/>
			<line style="fill:none;stroke:#000000;stroke-width:0.45;" x1="140.883" y1="11.229" x2="146.284" y2="6.429"/>
			<line style="fill:none;stroke:#000000;stroke-width:0.45;" x1="140.883" y1="15.056" x2="146.284" y2="10.256"/>
			<line style="fill:none;stroke:#000000;stroke-width:0.45;" x1="140.883" y1="18.883" x2="146.284" y2="14.083"/>
			<line style="fill:none;stroke:#000000;stroke-width:0.45;" x1="140.883" y1="22.709" x2="146.284" y2="17.91"/>
			<line style="fill:none;stroke:#000000;stroke-width:0.45;" x1="140.883" y1="26.536" x2="146.284" y2="21.736"/>
			<line style="fill:none;stroke:#000000;stroke-width:0.45;" x1="140.883" y1="30.363" x2="146.284" y2="25.563"/>
		</g>
		
			<linearGradient id="XMLID_3_" gradientUnits="userSpaceOnUse" x1="132.2573" y1="90.2788" x2="151.0906" y2="90.2788" gradientTransform="matrix(0.9 0 0 0.9 5.6225 10.075)">
			<stop  offset="0" style="stop-color:#CBCBCB"/>
			<stop  offset="0.31" style="stop-color:#FFFFFF"/>
			<stop  offset="0.93" style="stop-color:#727272"/>
			<midPointStop  offset="0" style="stop-color:#CBCBCB"/>
			<midPointStop  offset="0.5" style="stop-color:#CBCBCB"/>
			<midPointStop  offset="0.31" style="stop-color:#FFFFFF"/>
			<midPointStop  offset="0.5" style="stop-color:#FFFFFF"/>
			<midPointStop  offset="0.93" style="stop-color:#727272"/>
		</linearGradient>
		<rect x="124.853" y="80.525" style="fill:url(#XMLID_3_);stroke:#000000;stroke-width:0.45;" width="16.5" height="21.6"/> 
		<path style="fill:#BFA794;stroke:#000000;stroke-width:0.45;" d="M9.707,43.615c-0.021-0.014-0.044-0.017-0.066-0.027
			c0.042-0.156-0.001-0.328-0.13-0.439c-0.009-0.008-0.021-0.01-0.03-0.017c0.002-0.001,0.004-0.004,0.006-0.005
			c0.183-0.155,0.206-0.428,0.051-0.61C9.5,42.471,9.455,42.436,9.405,42.41c0.062-0.123,0.054-0.268-0.013-0.392
			c0.103-0.1,0.2-0.206,0.281-0.328c0.124-0.188,0.078-0.431-0.094-0.569c0.009-0.016,0.011-0.033,0.018-0.049H8.305
			c0.005,0.006,0.006,0.013,0.012,0.018c0.023,0.022,0.051,0.034,0.077,0.05c-0.068,0.063-0.136,0.125-0.202,0.189
			c-0.167,0.142-0.19,0.377-0.076,0.556c-0.183,0.126-0.249,0.37-0.14,0.568c0.042,0.072,0.104,0.122,0.173,0.159
			c-0.105,0.172-0.07,0.385,0.068,0.522c-0.022,0.017-0.042,0.038-0.066,0.054C7.958,43.33,7.918,43.6,8.06,43.792
			c0.064,0.087,0.156,0.139,0.254,0.161c-0.026,0.141,0.011,0.29,0.124,0.395c0.038,0.035,0.081,0.057,0.125,0.076
			c-0.128,0.173-0.252,0.349-0.362,0.535c-0.102,0.166-0.073,0.37,0.05,0.508c-0.098,0.177-0.066,0.403,0.098,0.538
			c0.016,0.014,0.036,0.018,0.054,0.029c-0.067,0.079-0.137,0.154-0.216,0.221c-0.182,0.148-0.212,0.422-0.061,0.607
			c0.044,0.054,0.101,0.09,0.162,0.117c-0.091,0.148-0.089,0.344,0.023,0.49c0.066,0.084,0.157,0.132,0.253,0.152
			c-0.107,0.121-0.215,0.241-0.324,0.361c-0.155,0.179-0.135,0.452,0.047,0.607c0.021,0.019,0.048,0.027,0.072,0.041
			c-0.054,0.053-0.108,0.106-0.167,0.155c-0.186,0.145-0.219,0.418-0.074,0.607c0.035,0.045,0.078,0.08,0.125,0.106
			c-0.167,0.137-0.214,0.379-0.092,0.565c0.037,0.058,0.088,0.1,0.144,0.133c-0.142,0.17-0.139,0.426,0.018,0.586
			c0.023,0.022,0.051,0.034,0.077,0.05c-0.068,0.063-0.136,0.125-0.202,0.189c-0.167,0.142-0.19,0.377-0.076,0.556
			c-0.183,0.125-0.249,0.37-0.14,0.568c0.042,0.072,0.104,0.122,0.173,0.159c-0.105,0.172-0.07,0.385,0.068,0.522
			c-0.022,0.017-0.042,0.038-0.066,0.054c-0.192,0.142-0.232,0.412-0.091,0.604c0.064,0.087,0.156,0.139,0.254,0.161
			c-0.026,0.141,0.011,0.29,0.124,0.394c0.038,0.035,0.081,0.058,0.125,0.076c-0.128,0.173-0.252,0.349-0.362,0.535
			c-0.102,0.166-0.073,0.37,0.05,0.508c-0.098,0.177-0.066,0.403,0.098,0.538c0.016,0.014,0.036,0.018,0.054,0.029
			c-0.067,0.079-0.137,0.154-0.216,0.221c-0.182,0.148-0.212,0.422-0.061,0.607c0.044,0.054,0.101,0.09,0.162,0.117
			c-0.091,0.149-0.089,0.344,0.023,0.491c0.066,0.084,0.157,0.132,0.253,0.152c-0.107,0.121-0.215,0.241-0.324,0.361
			c-0.155,0.179-0.135,0.452,0.047,0.607c0.021,0.019,0.048,0.027,0.072,0.041c-0.054,0.053-0.108,0.106-0.167,0.155
			c-0.186,0.145-0.219,0.418-0.074,0.607c0.035,0.045,0.078,0.08,0.125,0.106c-0.167,0.137-0.214,0.379-0.092,0.565
			c0.037,0.058,0.088,0.099,0.144,0.132c-0.142,0.17-0.139,0.426,0.018,0.586c0.023,0.022,0.051,0.034,0.077,0.05
			c-0.068,0.062-0.136,0.125-0.202,0.189c-0.167,0.142-0.19,0.377-0.076,0.556c-0.183,0.125-0.249,0.37-0.14,0.568
			C8.017,61.914,8.08,61.963,8.149,62c-0.105,0.172-0.07,0.385,0.068,0.522c-0.022,0.017-0.042,0.038-0.066,0.054
			c-0.192,0.142-0.232,0.412-0.091,0.604c0.064,0.087,0.156,0.139,0.254,0.161c-0.026,0.141,0.011,0.29,0.124,0.394
			c0.038,0.035,0.081,0.058,0.125,0.076c-0.128,0.173-0.252,0.349-0.362,0.535c-0.102,0.165-0.073,0.37,0.05,0.508
			c-0.098,0.177-0.066,0.403,0.098,0.538c0.016,0.014,0.036,0.018,0.054,0.029c-0.067,0.079-0.137,0.154-0.216,0.221
			c-0.182,0.148-0.212,0.422-0.061,0.607c0.044,0.054,0.101,0.09,0.162,0.117c-0.091,0.149-0.089,0.344,0.023,0.491
			c0.066,0.083,0.157,0.132,0.253,0.152c-0.107,0.121-0.215,0.241-0.324,0.36c-0.155,0.179-0.135,0.453,0.047,0.608
			c0.021,0.019,0.048,0.027,0.072,0.041c-0.054,0.053-0.108,0.106-0.167,0.155c-0.186,0.145-0.219,0.418-0.074,0.607
			c0.035,0.045,0.078,0.08,0.125,0.106c-0.167,0.137-0.214,0.379-0.092,0.565c0.037,0.058,0.088,0.1,0.144,0.132
			c-0.142,0.17-0.139,0.426,0.018,0.586c0.023,0.022,0.051,0.034,0.077,0.05c-0.068,0.062-0.136,0.125-0.202,0.189
			c-0.167,0.142-0.19,0.377-0.076,0.556c-0.183,0.125-0.249,0.37-0.14,0.568c0.042,0.072,0.104,0.122,0.173,0.159
			c-0.105,0.171-0.07,0.385,0.068,0.522c-0.022,0.018-0.042,0.039-0.066,0.054c-0.192,0.142-0.232,0.412-0.091,0.604
			c0.064,0.087,0.156,0.139,0.254,0.161c-0.026,0.141,0.011,0.29,0.124,0.394c0.038,0.035,0.081,0.058,0.125,0.076
			c-0.128,0.173-0.252,0.349-0.362,0.535c-0.102,0.166-0.073,0.37,0.05,0.509c-0.098,0.177-0.066,0.403,0.098,0.538
			c0.016,0.014,0.036,0.018,0.054,0.029c-0.067,0.079-0.137,0.154-0.216,0.221c-0.182,0.148-0.212,0.422-0.061,0.607
			c0.044,0.054,0.101,0.09,0.162,0.117c-0.091,0.149-0.089,0.344,0.023,0.491c0.066,0.083,0.157,0.132,0.253,0.152
			c-0.107,0.121-0.215,0.241-0.324,0.36c-0.155,0.179-0.135,0.453,0.047,0.607c0.021,0.019,0.048,0.027,0.072,0.041
			c-0.054,0.053-0.108,0.106-0.167,0.155c-0.186,0.145-0.219,0.418-0.074,0.607c0.035,0.045,0.078,0.08,0.125,0.106
			c-0.167,0.137-0.214,0.379-0.092,0.565c0.037,0.058,0.088,0.1,0.144,0.132c-0.142,0.17-0.139,0.426,0.018,0.586
			c0.023,0.022,0.051,0.034,0.077,0.05c-0.068,0.062-0.136,0.125-0.202,0.189c-0.167,0.142-0.19,0.376-0.076,0.556
			c-0.183,0.125-0.249,0.369-0.14,0.568c0.042,0.072,0.104,0.122,0.173,0.159c-0.105,0.172-0.07,0.386,0.068,0.522
			c-0.022,0.018-0.042,0.039-0.066,0.054c-0.192,0.142-0.232,0.412-0.091,0.604c0.064,0.087,0.156,0.139,0.254,0.16
			c-0.026,0.141,0.011,0.291,0.124,0.395c0.038,0.035,0.081,0.058,0.125,0.076c-0.128,0.173-0.252,0.349-0.362,0.535
			c-0.102,0.166-0.073,0.37,0.05,0.509c-0.098,0.177-0.066,0.403,0.098,0.538c0.016,0.014,0.036,0.018,0.054,0.029
			c-0.067,0.079-0.137,0.154-0.216,0.221c-0.182,0.148-0.212,0.421-0.061,0.607c0.044,0.054,0.101,0.09,0.162,0.117
			c-0.091,0.149-0.089,0.344,0.023,0.491c0.066,0.083,0.157,0.131,0.253,0.152c-0.107,0.121-0.215,0.241-0.324,0.36
			c-0.155,0.179-0.135,0.453,0.047,0.607c0.021,0.019,0.048,0.027,0.072,0.041c-0.054,0.053-0.108,0.106-0.167,0.155
			c-0.186,0.145-0.219,0.418-0.074,0.607c0.035,0.045,0.078,0.081,0.125,0.107c-0.167,0.137-0.214,0.379-0.092,0.565
			c0.037,0.058,0.088,0.1,0.144,0.132c-0.142,0.17-0.139,0.426,0.018,0.586c0.023,0.022,0.051,0.034,0.077,0.05
			c-0.068,0.062-0.136,0.125-0.202,0.189c-0.167,0.142-0.19,0.376-0.076,0.556c-0.183,0.125-0.249,0.369-0.14,0.568
			c0.042,0.073,0.104,0.122,0.173,0.159c-0.105,0.172-0.07,0.386,0.068,0.522c-0.022,0.018-0.042,0.039-0.066,0.054
			c-0.192,0.142-0.232,0.412-0.091,0.604s0.412,0.232,0.604,0.091c0.32-0.199,0.506-0.553,0.823-0.756
			c0.183-0.155,0.206-0.429,0.051-0.611c-0.038-0.045-0.083-0.081-0.133-0.106c0.062-0.123,0.054-0.268-0.013-0.392
			c0.103-0.1,0.2-0.207,0.281-0.329c0.124-0.188,0.078-0.431-0.094-0.569c0.117-0.197,0.067-0.451-0.126-0.582
			c-0.005-0.003-0.011-0.004-0.016-0.007c0.136-0.158,0.263-0.322,0.371-0.503c0.112-0.204,0.042-0.458-0.156-0.577
			c0.032-0.143-0.003-0.299-0.118-0.409c-0.022-0.021-0.048-0.03-0.073-0.045c0.114-0.149,0.217-0.308,0.289-0.495
			C9.8,86.8,9.733,86.62,9.597,86.516c0.073-0.091,0.151-0.176,0.218-0.272c0.138-0.192,0.094-0.462-0.102-0.601
			c-0.061-0.043-0.129-0.062-0.198-0.071c0.066-0.099,0.136-0.194,0.219-0.279c0.148-0.186,0.122-0.459-0.067-0.607
			c-0.029-0.023-0.062-0.034-0.094-0.049c0.054-0.087,0.107-0.173,0.161-0.258c0.085-0.161,0.058-0.353-0.055-0.484
			c0.15-0.179,0.136-0.444-0.04-0.6c-0.01-0.01-0.024-0.013-0.035-0.021c0.075-0.092,0.149-0.185,0.221-0.279
			c0.131-0.199,0.081-0.469-0.118-0.601c-0.021-0.013-0.044-0.017-0.066-0.027c0.042-0.155-0.001-0.327-0.13-0.438
			c-0.009-0.008-0.021-0.01-0.03-0.017c0.002-0.002,0.004-0.004,0.006-0.005c0.183-0.155,0.206-0.429,0.051-0.611
			c-0.038-0.045-0.083-0.081-0.133-0.106c0.062-0.123,0.054-0.268-0.013-0.392c0.103-0.1,0.2-0.207,0.281-0.328
			c0.124-0.188,0.078-0.432-0.094-0.569c0.117-0.197,0.067-0.451-0.126-0.582c-0.005-0.003-0.011-0.003-0.016-0.007
			c0.136-0.158,0.263-0.322,0.371-0.503c0.112-0.204,0.042-0.458-0.156-0.576c0.032-0.144-0.003-0.3-0.118-0.409
			c-0.022-0.021-0.048-0.03-0.073-0.045c0.114-0.149,0.217-0.308,0.289-0.495c0.049-0.176-0.018-0.356-0.154-0.46
			c0.073-0.09,0.151-0.176,0.218-0.272c0.138-0.192,0.094-0.462-0.102-0.601c-0.061-0.043-0.129-0.063-0.198-0.071
			c0.066-0.099,0.136-0.194,0.219-0.28c0.148-0.186,0.122-0.459-0.067-0.607c-0.029-0.023-0.062-0.034-0.094-0.049
			c0.054-0.086,0.107-0.173,0.161-0.258c0.085-0.161,0.058-0.353-0.055-0.484c0.15-0.179,0.136-0.444-0.04-0.6
			c-0.01-0.01-0.024-0.013-0.035-0.021c0.075-0.092,0.149-0.185,0.221-0.279c0.131-0.199,0.081-0.469-0.118-0.601
			c-0.021-0.014-0.044-0.018-0.066-0.027c0.042-0.156-0.001-0.328-0.13-0.439c-0.009-0.008-0.021-0.01-0.03-0.017
			c0.002-0.002,0.004-0.004,0.006-0.005c0.183-0.155,0.206-0.429,0.051-0.611c-0.038-0.045-0.083-0.081-0.133-0.106
			c0.062-0.123,0.054-0.268-0.013-0.392c0.103-0.1,0.2-0.206,0.281-0.328c0.124-0.188,0.078-0.432-0.094-0.569
			c0.117-0.197,0.067-0.451-0.126-0.582c-0.005-0.003-0.011-0.003-0.016-0.007c0.136-0.158,0.263-0.322,0.371-0.503
			c0.112-0.204,0.042-0.458-0.156-0.576c0.032-0.144-0.003-0.3-0.118-0.409c-0.022-0.021-0.048-0.03-0.073-0.045
			c0.114-0.149,0.217-0.308,0.289-0.495c0.049-0.176-0.018-0.355-0.154-0.46c0.073-0.09,0.151-0.176,0.218-0.272
			c0.138-0.192,0.094-0.462-0.102-0.601c-0.061-0.043-0.129-0.063-0.198-0.071c0.066-0.099,0.136-0.194,0.219-0.28
			c0.148-0.186,0.122-0.459-0.067-0.607c-0.029-0.023-0.062-0.034-0.094-0.049c0.054-0.086,0.107-0.173,0.161-0.258
			c0.085-0.161,0.058-0.353-0.055-0.484c0.15-0.179,0.136-0.444-0.04-0.6c-0.01-0.009-0.024-0.013-0.035-0.021
			c0.075-0.092,0.149-0.185,0.221-0.279c0.131-0.199,0.081-0.469-0.118-0.601c-0.021-0.014-0.044-0.017-0.066-0.027
			c0.042-0.156-0.001-0.328-0.13-0.439c-0.009-0.008-0.021-0.01-0.03-0.017c0.002-0.001,0.004-0.004,0.006-0.005
			c0.183-0.155,0.206-0.429,0.051-0.611C9.5,61.86,9.455,61.824,9.405,61.799c0.062-0.123,0.054-0.268-0.013-0.392
			c0.103-0.1,0.2-0.206,0.281-0.328c0.124-0.188,0.078-0.431-0.094-0.569c0.117-0.197,0.067-0.451-0.126-0.582
			c-0.005-0.003-0.011-0.003-0.016-0.006c0.136-0.159,0.263-0.323,0.371-0.503c0.112-0.204,0.042-0.457-0.156-0.576
			c0.032-0.144-0.003-0.299-0.118-0.409c-0.022-0.021-0.048-0.03-0.073-0.045c0.114-0.149,0.217-0.308,0.289-0.495
			c0.049-0.176-0.018-0.355-0.154-0.46c0.073-0.09,0.151-0.176,0.218-0.272c0.138-0.192,0.094-0.462-0.102-0.601
			c-0.061-0.043-0.129-0.063-0.198-0.071c0.066-0.099,0.136-0.194,0.219-0.28c0.148-0.186,0.122-0.459-0.067-0.607
			c-0.029-0.023-0.062-0.034-0.094-0.049c0.054-0.086,0.107-0.173,0.161-0.258c0.085-0.161,0.058-0.353-0.055-0.483
			c0.15-0.179,0.136-0.444-0.04-0.6c-0.01-0.009-0.024-0.012-0.035-0.021c0.075-0.092,0.149-0.185,0.221-0.279
			c0.131-0.199,0.081-0.469-0.118-0.601c-0.021-0.014-0.044-0.017-0.066-0.027c0.042-0.156-0.001-0.328-0.13-0.439
			c-0.009-0.008-0.021-0.01-0.03-0.017c0.002-0.001,0.004-0.004,0.006-0.005c0.183-0.155,0.206-0.428,0.051-0.611
			C9.5,52.166,9.455,52.13,9.405,52.104c0.062-0.123,0.054-0.268-0.013-0.392c0.103-0.1,0.2-0.206,0.281-0.328
			c0.124-0.188,0.078-0.431-0.094-0.569c0.117-0.197,0.067-0.451-0.126-0.582c-0.005-0.003-0.011-0.003-0.016-0.006
			c0.136-0.158,0.263-0.323,0.371-0.503c0.112-0.204,0.042-0.457-0.156-0.576c0.032-0.144-0.003-0.299-0.118-0.409
			c-0.022-0.021-0.048-0.03-0.073-0.045c0.114-0.149,0.217-0.307,0.289-0.495c0.049-0.176-0.018-0.355-0.154-0.46
			c0.073-0.09,0.151-0.176,0.218-0.272c0.138-0.192,0.094-0.462-0.102-0.601c-0.061-0.043-0.129-0.063-0.198-0.071
			c0.066-0.099,0.136-0.194,0.219-0.28c0.148-0.186,0.122-0.459-0.067-0.607c-0.029-0.023-0.062-0.034-0.094-0.049
			c0.054-0.086,0.107-0.173,0.161-0.258c0.085-0.161,0.058-0.352-0.055-0.483c0.15-0.179,0.136-0.444-0.04-0.6
			c-0.01-0.009-0.024-0.012-0.035-0.021c0.075-0.092,0.149-0.185,0.221-0.28C9.957,44.017,9.906,43.747,9.707,43.615z"/>
		<path style="fill:#BFA794;stroke:#000000;stroke-width:0.45;" d="M24.774,25.717c-0.014,0.021-0.017,0.044-0.027,0.066
			c-0.156-0.042-0.327,0.001-0.439,0.13c-0.007,0.009-0.01,0.02-0.017,0.03c-0.001-0.002-0.003-0.004-0.005-0.006
			c-0.155-0.182-0.429-0.206-0.611-0.051c-0.046,0.038-0.081,0.083-0.106,0.133c-0.123-0.062-0.268-0.054-0.392,0.013
			c-0.1-0.104-0.207-0.2-0.329-0.281c-0.188-0.124-0.431-0.079-0.569,0.093c-0.015-0.009-0.033-0.011-0.049-0.018v1.293
			c0.005-0.005,0.012-0.006,0.018-0.012c0.022-0.022,0.034-0.051,0.05-0.077c0.062,0.068,0.125,0.136,0.189,0.202
			c0.142,0.167,0.376,0.19,0.556,0.076c0.125,0.183,0.369,0.249,0.568,0.14c0.072-0.042,0.122-0.104,0.159-0.173
			c0.172,0.105,0.386,0.07,0.522-0.068c0.018,0.022,0.039,0.042,0.054,0.066c0.142,0.192,0.412,0.233,0.604,0.091
			c0.087-0.064,0.138-0.156,0.16-0.254c0.141,0.026,0.291-0.011,0.395-0.124c0.035-0.038,0.058-0.081,0.076-0.125
			c0.173,0.128,0.349,0.252,0.535,0.362c0.166,0.102,0.37,0.073,0.509-0.05c0.177,0.098,0.403,0.066,0.538-0.098
			c0.014-0.016,0.018-0.036,0.029-0.054c0.079,0.067,0.154,0.138,0.221,0.216c0.148,0.182,0.422,0.212,0.607,0.061
			c0.055-0.044,0.091-0.101,0.117-0.162c0.149,0.091,0.344,0.088,0.49-0.024c0.084-0.066,0.132-0.157,0.153-0.253
			c0.12,0.107,0.241,0.215,0.36,0.324c0.179,0.155,0.452,0.135,0.607-0.047c0.019-0.022,0.027-0.048,0.041-0.073
			c0.053,0.054,0.106,0.108,0.155,0.167c0.146,0.186,0.418,0.219,0.607,0.074c0.045-0.035,0.08-0.078,0.107-0.125
			c0.137,0.167,0.379,0.214,0.565,0.092c0.058-0.037,0.1-0.088,0.132-0.144c0.17,0.142,0.426,0.139,0.586-0.018
			c0.022-0.022,0.034-0.051,0.05-0.077c0.063,0.068,0.125,0.136,0.19,0.202c0.142,0.167,0.376,0.19,0.556,0.076
			c0.125,0.183,0.369,0.249,0.568,0.14c0.073-0.042,0.122-0.104,0.159-0.173c0.172,0.105,0.386,0.07,0.522-0.068
			c0.018,0.022,0.038,0.042,0.054,0.066c0.142,0.192,0.412,0.233,0.604,0.091c0.087-0.064,0.139-0.156,0.161-0.254
			c0.141,0.026,0.291-0.011,0.395-0.124c0.035-0.038,0.058-0.081,0.076-0.125c0.173,0.128,0.349,0.252,0.535,0.362
			c0.166,0.102,0.37,0.073,0.508-0.05c0.177,0.098,0.404,0.066,0.538-0.098c0.013-0.016,0.018-0.036,0.029-0.054
			c0.079,0.067,0.154,0.138,0.221,0.216c0.148,0.182,0.422,0.212,0.607,0.061c0.054-0.044,0.091-0.101,0.117-0.162
			c0.149,0.091,0.344,0.088,0.49-0.024c0.084-0.066,0.132-0.157,0.152-0.253c0.121,0.107,0.241,0.215,0.361,0.324
			c0.179,0.155,0.452,0.135,0.607-0.047c0.019-0.022,0.027-0.048,0.041-0.073c0.053,0.054,0.106,0.108,0.155,0.167
			c0.145,0.186,0.418,0.219,0.607,0.074c0.045-0.035,0.08-0.078,0.107-0.125c0.137,0.167,0.379,0.214,0.565,0.092
			c0.058-0.037,0.1-0.088,0.132-0.144c0.17,0.142,0.426,0.139,0.586-0.018c0.022-0.022,0.034-0.051,0.05-0.077
			c0.063,0.068,0.125,0.136,0.19,0.202c0.142,0.167,0.376,0.19,0.556,0.076c0.125,0.183,0.369,0.249,0.568,0.14
			c0.073-0.042,0.122-0.104,0.159-0.173c0.172,0.105,0.385,0.07,0.522-0.068c0.018,0.022,0.038,0.042,0.054,0.066
			c0.142,0.192,0.412,0.233,0.604,0.091c0.087-0.064,0.139-0.156,0.161-0.254c0.141,0.026,0.29-0.011,0.395-0.124
			c0.035-0.038,0.058-0.081,0.076-0.125c0.173,0.128,0.349,0.252,0.535,0.362c0.166,0.102,0.37,0.073,0.508-0.05
			c0.177,0.098,0.404,0.066,0.538-0.098c0.013-0.016,0.018-0.036,0.029-0.054c0.079,0.067,0.154,0.138,0.221,0.216
			c0.148,0.182,0.422,0.212,0.607,0.061c0.055-0.044,0.091-0.101,0.117-0.162c0.148,0.091,0.344,0.088,0.49-0.024
			c0.084-0.066,0.132-0.157,0.152-0.253c0.121,0.107,0.241,0.215,0.361,0.324c0.179,0.155,0.452,0.135,0.607-0.047
			c0.019-0.022,0.027-0.048,0.041-0.073c0.053,0.054,0.106,0.108,0.155,0.167c0.145,0.186,0.418,0.219,0.607,0.074
			c0.045-0.035,0.08-0.078,0.107-0.125c0.136,0.167,0.379,0.214,0.564,0.092c0.058-0.037,0.1-0.088,0.133-0.144
			c0.17,0.142,0.426,0.139,0.586-0.018c0.022-0.022,0.034-0.051,0.05-0.077c0.063,0.068,0.125,0.136,0.189,0.202
			c0.142,0.167,0.377,0.19,0.556,0.076c0.125,0.183,0.369,0.249,0.568,0.14c0.073-0.042,0.122-0.104,0.159-0.173
			c0.172,0.105,0.385,0.07,0.522-0.068c0.018,0.022,0.038,0.042,0.054,0.066c0.142,0.192,0.412,0.233,0.604,0.091
			c0.087-0.064,0.139-0.156,0.161-0.254c0.141,0.026,0.29-0.011,0.395-0.124c0.035-0.038,0.057-0.081,0.076-0.125
			c0.172,0.128,0.349,0.252,0.535,0.362c0.166,0.102,0.37,0.073,0.508-0.05c0.177,0.098,0.404,0.066,0.538-0.098
			c0.014-0.016,0.018-0.036,0.029-0.054c0.079,0.067,0.154,0.138,0.221,0.216c0.148,0.182,0.422,0.212,0.607,0.061
			c0.054-0.044,0.09-0.101,0.117-0.162c0.148,0.091,0.344,0.088,0.49-0.024c0.084-0.066,0.132-0.157,0.152-0.253
			c0.121,0.107,0.241,0.215,0.361,0.324c0.179,0.155,0.452,0.135,0.607-0.047c0.019-0.022,0.027-0.048,0.041-0.073
			c0.053,0.054,0.106,0.108,0.155,0.167c0.145,0.186,0.418,0.219,0.607,0.074c0.045-0.035,0.08-0.078,0.107-0.125
			c0.136,0.167,0.379,0.214,0.564,0.092c0.058-0.037,0.1-0.088,0.133-0.144c0.17,0.142,0.426,0.139,0.586-0.018
			c0.022-0.022,0.034-0.051,0.05-0.077c0.063,0.068,0.125,0.136,0.189,0.202c0.142,0.167,0.377,0.19,0.556,0.076
			c0.125,0.183,0.37,0.249,0.568,0.14c0.073-0.042,0.122-0.104,0.159-0.173c0.172,0.105,0.385,0.07,0.522-0.068
			c0.018,0.022,0.039,0.042,0.055,0.066c0.142,0.192,0.412,0.233,0.604,0.091c0.087-0.064,0.139-0.156,0.161-0.254
			c0.141,0.026,0.29-0.011,0.395-0.124c0.035-0.038,0.057-0.081,0.076-0.125c0.172,0.128,0.349,0.252,0.535,0.362
			c0.166,0.102,0.37,0.073,0.508-0.05c0.177,0.098,0.403,0.066,0.538-0.098c0.014-0.016,0.018-0.036,0.029-0.054
			c0.079,0.067,0.154,0.138,0.221,0.216c0.148,0.182,0.422,0.212,0.607,0.061c0.054-0.044,0.09-0.101,0.117-0.162
			c0.149,0.091,0.344,0.088,0.491-0.024c0.084-0.066,0.132-0.157,0.152-0.253c0.121,0.107,0.241,0.215,0.361,0.324
			c0.179,0.155,0.452,0.135,0.607-0.047c0.019-0.022,0.027-0.048,0.041-0.073c0.053,0.054,0.106,0.108,0.155,0.167
			c0.145,0.186,0.418,0.219,0.607,0.074c0.045-0.035,0.08-0.078,0.107-0.125c0.136,0.167,0.379,0.214,0.564,0.092
			c0.058-0.037,0.1-0.088,0.132-0.144c0.17,0.142,0.426,0.139,0.587-0.018c0.022-0.022,0.034-0.051,0.05-0.077
			c0.063,0.068,0.125,0.136,0.189,0.202c0.142,0.167,0.377,0.19,0.556,0.076c0.125,0.183,0.37,0.249,0.568,0.14
			c0.072-0.042,0.122-0.104,0.159-0.173c0.172,0.105,0.386,0.07,0.522-0.068c0.018,0.022,0.039,0.042,0.055,0.066
			c0.142,0.192,0.412,0.233,0.604,0.091c0.192-0.142,0.233-0.412,0.091-0.604c-0.199-0.32-0.554-0.506-0.756-0.823
			c-0.155-0.182-0.429-0.206-0.611-0.051c-0.045,0.038-0.081,0.083-0.106,0.133c-0.123-0.062-0.268-0.054-0.392,0.013
			c-0.1-0.104-0.206-0.2-0.328-0.281c-0.188-0.124-0.431-0.079-0.569,0.093c-0.197-0.117-0.451-0.067-0.582,0.126
			c-0.003,0.005-0.003,0.011-0.006,0.016c-0.159-0.136-0.323-0.263-0.503-0.371c-0.204-0.112-0.457-0.042-0.576,0.156
			c-0.144-0.032-0.299,0.003-0.409,0.118c-0.021,0.022-0.03,0.048-0.045,0.073c-0.149-0.114-0.308-0.217-0.495-0.29
			c-0.176-0.049-0.355,0.018-0.46,0.155c-0.09-0.073-0.176-0.152-0.272-0.219c-0.192-0.138-0.462-0.094-0.601,0.102
			c-0.043,0.061-0.063,0.129-0.071,0.198c-0.099-0.066-0.194-0.136-0.28-0.219c-0.186-0.148-0.459-0.122-0.607,0.068
			c-0.023,0.028-0.034,0.062-0.049,0.093c-0.086-0.053-0.173-0.107-0.258-0.161c-0.161-0.085-0.352-0.058-0.483,0.055
			c-0.179-0.15-0.444-0.136-0.6,0.04c-0.009,0.01-0.013,0.024-0.021,0.035c-0.093-0.075-0.186-0.149-0.28-0.221
			c-0.199-0.132-0.469-0.081-0.601,0.118c-0.014,0.021-0.017,0.044-0.027,0.066c-0.156-0.042-0.328,0.001-0.439,0.13
			c-0.008,0.009-0.01,0.02-0.017,0.03c-0.001-0.002-0.004-0.004-0.005-0.006c-0.155-0.182-0.428-0.206-0.611-0.051
			c-0.045,0.038-0.081,0.083-0.106,0.133c-0.123-0.062-0.268-0.054-0.392,0.013c-0.1-0.104-0.206-0.2-0.328-0.281
			c-0.188-0.124-0.431-0.079-0.569,0.093c-0.197-0.117-0.451-0.067-0.582,0.126c-0.003,0.005-0.003,0.011-0.006,0.016
			c-0.158-0.136-0.323-0.263-0.503-0.371c-0.204-0.112-0.457-0.042-0.576,0.156c-0.144-0.032-0.299,0.003-0.409,0.118
			c-0.021,0.022-0.03,0.048-0.045,0.073c-0.149-0.114-0.307-0.217-0.495-0.29c-0.176-0.049-0.355,0.018-0.46,0.155
			c-0.09-0.073-0.176-0.152-0.272-0.219c-0.192-0.138-0.462-0.094-0.601,0.102c-0.043,0.061-0.063,0.129-0.071,0.198
			c-0.099-0.066-0.194-0.136-0.28-0.219c-0.186-0.148-0.459-0.122-0.607,0.068c-0.023,0.028-0.034,0.062-0.049,0.093
			c-0.086-0.053-0.173-0.107-0.258-0.161c-0.161-0.085-0.352-0.058-0.483,0.055c-0.179-0.15-0.444-0.136-0.6,0.04
			c-0.009,0.01-0.013,0.024-0.021,0.035c-0.093-0.075-0.185-0.149-0.28-0.221c-0.199-0.132-0.469-0.081-0.601,0.118
			c-0.014,0.021-0.017,0.044-0.027,0.066c-0.156-0.042-0.328,0.001-0.439,0.13c-0.008,0.009-0.01,0.02-0.017,0.03
			c-0.001-0.002-0.003-0.004-0.005-0.006c-0.155-0.182-0.428-0.206-0.611-0.051c-0.045,0.038-0.081,0.083-0.106,0.133
			c-0.123-0.062-0.268-0.054-0.392,0.013c-0.1-0.104-0.206-0.2-0.328-0.281c-0.188-0.124-0.431-0.079-0.569,0.093
			c-0.197-0.117-0.451-0.067-0.582,0.126c-0.003,0.005-0.003,0.011-0.006,0.016c-0.158-0.136-0.323-0.263-0.503-0.371
			c-0.204-0.112-0.457-0.042-0.576,0.156c-0.144-0.032-0.299,0.003-0.409,0.118c-0.021,0.022-0.03,0.048-0.045,0.073
			c-0.149-0.114-0.307-0.217-0.495-0.29c-0.176-0.049-0.355,0.018-0.46,0.155c-0.09-0.073-0.176-0.152-0.272-0.219
			c-0.193-0.138-0.463-0.094-0.601,0.102c-0.043,0.061-0.063,0.129-0.071,0.198c-0.099-0.066-0.194-0.136-0.28-0.219
			c-0.186-0.148-0.459-0.122-0.607,0.068c-0.023,0.028-0.034,0.062-0.048,0.093c-0.087-0.053-0.174-0.107-0.259-0.161
			c-0.161-0.085-0.352-0.058-0.483,0.055c-0.179-0.15-0.444-0.136-0.6,0.04c-0.01,0.01-0.013,0.024-0.021,0.035
			c-0.093-0.075-0.185-0.149-0.28-0.221c-0.199-0.132-0.469-0.081-0.601,0.118c-0.014,0.021-0.017,0.044-0.027,0.066
			c-0.156-0.042-0.328,0.001-0.439,0.13c-0.008,0.009-0.01,0.02-0.017,0.03c-0.001-0.002-0.003-0.004-0.005-0.006
			c-0.155-0.182-0.428-0.206-0.61-0.051c-0.045,0.038-0.082,0.083-0.107,0.133c-0.123-0.062-0.268-0.054-0.392,0.013
			c-0.1-0.104-0.206-0.2-0.328-0.281c-0.188-0.124-0.431-0.079-0.569,0.093c-0.197-0.117-0.451-0.067-0.582,0.126
			c-0.003,0.005-0.003,0.011-0.006,0.016c-0.158-0.136-0.323-0.263-0.503-0.371c-0.204-0.112-0.458-0.042-0.577,0.156
			c-0.144-0.032-0.299,0.003-0.409,0.118c-0.021,0.022-0.03,0.048-0.045,0.073c-0.149-0.114-0.307-0.217-0.495-0.29
			c-0.175-0.049-0.355,0.018-0.46,0.155c-0.09-0.073-0.176-0.152-0.272-0.219c-0.192-0.138-0.462-0.094-0.601,0.102
			c-0.043,0.061-0.063,0.129-0.071,0.198c-0.099-0.066-0.195-0.136-0.28-0.219c-0.186-0.148-0.459-0.122-0.607,0.068
			c-0.023,0.028-0.034,0.062-0.048,0.093c-0.087-0.053-0.174-0.107-0.259-0.161c-0.161-0.085-0.352-0.058-0.483,0.055
			c-0.179-0.15-0.444-0.136-0.6,0.04c-0.01,0.01-0.013,0.024-0.021,0.035c-0.092-0.075-0.185-0.149-0.28-0.221
			c-0.199-0.132-0.469-0.081-0.601,0.118c-0.014,0.021-0.017,0.044-0.027,0.066c-0.156-0.042-0.327,0.001-0.439,0.13
			c-0.007,0.009-0.01,0.02-0.017,0.03c-0.001-0.002-0.003-0.004-0.005-0.006c-0.155-0.182-0.429-0.206-0.611-0.051
			c-0.045,0.038-0.081,0.083-0.106,0.133c-0.123-0.062-0.268-0.054-0.393,0.013c-0.1-0.104-0.206-0.2-0.328-0.281
			c-0.188-0.124-0.431-0.079-0.569,0.093c-0.197-0.117-0.45-0.067-0.581,0.126c-0.003,0.005-0.004,0.011-0.007,0.016
			c-0.158-0.136-0.322-0.263-0.503-0.371c-0.204-0.112-0.458-0.042-0.576,0.156c-0.144-0.032-0.3,0.003-0.41,0.118
			c-0.02,0.022-0.03,0.048-0.045,0.073c-0.149-0.114-0.308-0.217-0.495-0.29c-0.175-0.049-0.355,0.018-0.46,0.155
			c-0.09-0.073-0.175-0.152-0.272-0.219c-0.192-0.138-0.462-0.094-0.601,0.102c-0.043,0.061-0.062,0.129-0.071,0.198
			c-0.099-0.066-0.194-0.136-0.279-0.219c-0.186-0.148-0.459-0.122-0.608,0.068c-0.022,0.028-0.034,0.062-0.048,0.093
			c-0.086-0.053-0.173-0.107-0.259-0.161c-0.161-0.085-0.352-0.058-0.483,0.055c-0.179-0.15-0.444-0.136-0.6,0.04
			c-0.01,0.01-0.013,0.024-0.021,0.035c-0.092-0.075-0.185-0.149-0.28-0.221C25.176,25.468,24.906,25.519,24.774,25.717z"/>
		<g>
			<circle style="fill:#FFFFFF;stroke:#000000;stroke-width:0.45;" cx="20.81" cy="38.113" r="12.41"/> 
			<circle style="fill:none;stroke:#000000;stroke-width:0.45;" cx="20.81" cy="38.113" r="2.482"/> 
		</g>
		
			<linearGradient id="XMLID_4_" gradientUnits="userSpaceOnUse" x1="132.2573" y1="90.2778" x2="151.0906" y2="90.2778" gradientTransform="matrix(0.9 0 0 0.9 -119.0054 2.9426)">
			<stop  offset="0" style="stop-color:#CBCBCB"/>
			<stop  offset="0.31" style="stop-color:#FFFFFF"/>
			<stop  offset="0.93" style="stop-color:#727272"/>
			<midPointStop  offset="0" style="stop-color:#CBCBCB"/>
			<midPointStop  offset="0.5" style="stop-color:#CBCBCB"/>
			<midPointStop  offset="0.31" style="stop-color:#FFFFFF"/>
			<midPointStop  offset="0.5" style="stop-color:#FFFFFF"/>
			<midPointStop  offset="0.93" style="stop-color:#727272"/>
		</linearGradient>
		<rect x="0.225" y="73.393" style="fill:url(#XMLID_4_);stroke:#000000;stroke-width:0.45;" width="16.5" height="21.6"/> 
	</g>
</svg>
