<?xml version="1.0" encoding="iso-8859-1"?>
<!-- Generator: Adobe Illustrator 11 Build 196, SVG Export Plug-In . SVG Version: 6.0.0 Build 78)  -->
<!DOCTYPE svg PUBLIC "-//W3C//DTD SVG 1.0//EN"    "http://www.w3.org/TR/2001/REC-SVG-20010904/DTD/svg10.dtd" [
	<!ENTITY ns_flows "http://ns.adobe.com/Flows/1.0/">
	<!ENTITY ns_svg "http://www.w3.org/2000/svg">
	<!ENTITY ns_xlink "http://www.w3.org/1999/xlink">
]>
<svg  
	 width="88.969" height="72.486" viewBox="0 0 88.969 72.486" style="overflow:visible;enable-background:new 0 0 88.969 72.486"
	 xml:space="preserve">
	<style type="text/css">
	
	</style>
	<g id="Layer_1">
		<g>
			<line style="fill:none;stroke:#000000;" x1="0.451" y1="72.27" x2="33.451" y2="3.27"/>
			<path d="M35.011,0c-0.165,1.81-0.104,4.183,0.361,5.857l-2.129-2.162l-3.019-0.3C31.82,2.706,33.706,1.265,35.011,0z"/>
		</g>
		<g>
			<line style="fill:none;stroke:#000000;" x1="88.951" y1="52.77" x2="46.951" y2="51.27"/>
			<path d="M43.334,51.144c1.726-0.571,3.877-1.574,5.227-2.668l-1.133,2.814l0.93,2.888C47.089,52.99,45.015,51.836,43.334,51.144z
				"/>
		</g>
		<text transform="matrix(1 0 0 1 1.4512 30.27)"><tspan x="0" y="0" style="font-family:Liberation Sans-Bold'; font-size:7.650000;">A</tspan></text>
		<text transform="matrix(1 0 0 1 52.9512 66.27)"><tspan x="0" y="0" style="font-family:Liberation Sans-Bold'; font-size:7.650000;">B</tspan></text>
	</g>
</svg>
