<?xml version="1.0" encoding="iso-8859-1"?>
<!-- Generator: Adobe Illustrator 11 Build 196, SVG Export Plug-In . SVG Version: 6.0.0 Build 78)  -->
<!DOCTYPE svg PUBLIC "-//W3C//DTD SVG 1.0//EN"    "http://www.w3.org/TR/2001/REC-SVG-20010904/DTD/svg10.dtd" [
	<!ENTITY ns_flows "http://ns.adobe.com/Flows/1.0/">
	<!ENTITY ns_svg "http://www.w3.org/2000/svg">
	<!ENTITY ns_xlink "http://www.w3.org/1999/xlink">
]>
<svg  
	 width="99.135" height="83.258" viewBox="0 0 99.135 83.258" style="overflow:visible;enable-background:new 0 0 99.135 83.258"
	 xml:space="preserve">
	<g id="Layer_1">
		<g>
			<path style="fill:#B4B4B4;stroke:#000000;" d="M1.125,1.232v21.545c14.097,0.767,28.873,1.175,44.1,1.175
				c18.436,0,36.211-0.599,52.919-1.708V1.232H1.125z"/>
			<path style="fill:#B4B4B4;" d="M0.135,0v21.985c14.385,0.783,29.462,1.199,45,1.199c18.812,0,36.95-0.611,54-1.743V0H0.135z"/>
		</g>
		<g>
			<path style="fill:#B4B4B4;stroke:#000000;" d="M0.99,68.486v13.559h97.02V60.859C61.625,61.302,28.195,64.076,0.99,68.486z"/>
			<path style="fill:#B4B4B4;" d="M0,69.423v13.835h99V61.64C61.873,62.092,27.76,64.922,0,69.423z"/>
		</g>
		<line style="fill:none;stroke:#000000;" x1="0.469" y1="11.246" x2="98.802" y2="11.246"/>
		<path style="stroke:#000000;" d="M52.188,60.769c0.934,0.4-1.667,13.733,2.6,13.733s0.6-12.466,1.733-13.667"/>
		<line style="fill:none;stroke:#000000;" x1="52.25" y1="25.642" x2="49.917" y2="29.309"/>
		<line style="fill:none;stroke:#000000;" x1="58.25" y1="26.309" x2="59.583" y2="28.642"/>
		<line style="fill:none;stroke:#000000;" x1="49.583" y1="25.309" x2="46.583" y2="27.976"/>
		<line style="fill:none;stroke:#000000;" x1="52.917" y1="12.976" x2="50.25" y2="15.309"/>
		<line style="fill:none;stroke:#000000;" x1="56.917" y1="12.309" x2="59.583" y2="14.642"/>
		<rect x="52.583" y="22.976" style="fill:#FFFFFF;" width="5.333" height="2.667"/> 
		<line style="fill:none;stroke:#000000;" x1="54.917" y1="58.976" x2="54.917" y2="12.642"/>
	</g>
</svg>
