<?xml version="1.0" encoding="iso-8859-1"?>
<!-- Generator: Adobe Illustrator 11 Build 196, SVG Export Plug-In . SVG Version: 6.0.0 Build 78)  -->
<!DOCTYPE svg PUBLIC "-//W3C//DTD SVG 1.0//EN"    "http://www.w3.org/TR/2001/REC-SVG-20010904/DTD/svg10.dtd" [
	<!ENTITY ns_flows "http://ns.adobe.com/Flows/1.0/">
	<!ENTITY ns_svg "http://www.w3.org/2000/svg">
	<!ENTITY ns_xlink "http://www.w3.org/1999/xlink">
]>
<svg  
	 width="506.832" height="653.562" viewBox="0 0 506.832 653.562"
	 style="overflow:visible;enable-background:new 0 0 506.832 653.562" xml:space="preserve">
	<style type="text/css">
	
	</style>
	<g id="Layer_1">
		<rect x="10.584" y="2.814" style="fill:#DCDCDC;" width="484.546" height="208.049"/> 
		<line style="fill:none;stroke:#000000;stroke-width:2;" x1="11.502" y1="2.822" x2="11.502" y2="210.856"/>
		<line style="fill:none;stroke:#000000;stroke-width:2;" x1="11.387" y1="106.839" x2="494.901" y2="106.839"/>
		<g>
			<text transform="matrix(1 0 0 1 503.4983 110.7996)"><tspan x="0" y="0" style="font-family:Liberation Sans; font-size:10.200000;">t</tspan></text>
		</g>
		<g>
			<text transform="matrix(1 0 0 1 0 12.0002)"><tspan x="0" y="0" style="font-family:Liberation Sans; font-size:10.200000;">x</tspan></text>
		</g>
		<rect x="10.584" y="224.163" style="fill:#DCDCDC;" width="484.546" height="208.049"/> 
		<line style="fill:none;stroke:#000000;stroke-width:2;" x1="11.502" y1="224.171" x2="11.502" y2="432.205"/>
		<line style="fill:none;stroke:#000000;stroke-width:2;" x1="11.387" y1="328.188" x2="494.901" y2="328.188"/>
		<g>
			<text transform="matrix(1 0 0 1 503.4983 332.1492)"><tspan x="0" y="0" style="font-family:Liberation Sans; font-size:10.200000;">t</tspan></text>
		</g>
		<g>
			<text transform="matrix(1 0 0 1 0 233.3494)"><tspan x="0" y="0" style="font-family:Liberation Sans; font-size:10.200000;">v</tspan></text>
		</g>
		<rect x="10.584" y="445.513" style="fill:#DCDCDC;" width="484.546" height="208.049"/> 
		<line style="fill:none;stroke:#000000;stroke-width:2;" x1="11.502" y1="445.521" x2="11.502" y2="653.554"/>
		<line style="fill:none;stroke:#000000;stroke-width:2;" x1="11.387" y1="549.537" x2="494.901" y2="549.537"/>
		<g>
			<text transform="matrix(1 0 0 1 503.4983 553.4983)"><tspan x="0" y="0" style="font-family:Liberation Sans; font-size:10.200000;">t</tspan></text>
		</g>
		<g>
			<text transform="matrix(1 0 0 1 0 454.6985)"><tspan x="0" y="0" style="font-family:Liberation Sans; font-size:10.200000;">a</tspan></text>
		</g>
		<g>
			<line style="fill:none;stroke:#B4B4B4;stroke-width:0.5;stroke-dasharray:2;" x1="37.379" y1="3.377" x2="37.379" y2="653.486"/>
			<line style="fill:none;stroke:#B4B4B4;stroke-width:0.5;stroke-dasharray:2;" x1="64.308" y1="3.377" x2="64.308" y2="653.486"/>
			<line style="fill:none;stroke:#B4B4B4;stroke-width:0.5;stroke-dasharray:2;" x1="91.237" y1="3.377" x2="91.237" y2="653.486"/>
			
				<line style="fill:none;stroke:#B4B4B4;stroke-width:0.5;stroke-dasharray:2;" x1="118.166" y1="3.377" x2="118.166" y2="653.486"/>
			
				<line style="fill:none;stroke:#B4B4B4;stroke-width:0.5;stroke-dasharray:2;" x1="145.095" y1="3.377" x2="145.095" y2="653.486"/>
			
				<line style="fill:none;stroke:#B4B4B4;stroke-width:0.5;stroke-dasharray:2;" x1="172.024" y1="3.377" x2="172.024" y2="653.486"/>
			
				<line style="fill:none;stroke:#B4B4B4;stroke-width:0.5;stroke-dasharray:2;" x1="198.953" y1="3.377" x2="198.953" y2="653.486"/>
			
				<line style="fill:none;stroke:#B4B4B4;stroke-width:0.5;stroke-dasharray:2;" x1="225.882" y1="3.377" x2="225.882" y2="653.486"/>
			
				<line style="fill:none;stroke:#B4B4B4;stroke-width:0.5;stroke-dasharray:2;" x1="252.811" y1="3.377" x2="252.811" y2="653.486"/>
			<line style="fill:none;stroke:#B4B4B4;stroke-width:0.5;stroke-dasharray:2;" x1="279.74" y1="3.377" x2="279.74" y2="653.486"/>
			
				<line style="fill:none;stroke:#B4B4B4;stroke-width:0.5;stroke-dasharray:2;" x1="306.669" y1="3.377" x2="306.669" y2="653.486"/>
			
				<line style="fill:none;stroke:#B4B4B4;stroke-width:0.5;stroke-dasharray:2;" x1="333.598" y1="3.377" x2="333.598" y2="653.486"/>
			
				<line style="fill:none;stroke:#B4B4B4;stroke-width:0.5;stroke-dasharray:2;" x1="360.528" y1="3.377" x2="360.528" y2="653.486"/>
			
				<line style="fill:none;stroke:#B4B4B4;stroke-width:0.5;stroke-dasharray:2;" x1="387.456" y1="3.377" x2="387.456" y2="653.486"/>
			
				<line style="fill:none;stroke:#B4B4B4;stroke-width:0.5;stroke-dasharray:2;" x1="414.385" y1="3.377" x2="414.385" y2="653.486"/>
			
				<line style="fill:none;stroke:#B4B4B4;stroke-width:0.5;stroke-dasharray:2;" x1="441.315" y1="3.377" x2="441.315" y2="653.486"/>
			
				<line style="fill:none;stroke:#B4B4B4;stroke-width:0.5;stroke-dasharray:2;" x1="468.244" y1="3.377" x2="468.244" y2="653.486"/>
			
				<line style="fill:none;stroke:#B4B4B4;stroke-width:0.5;stroke-dasharray:2;" x1="495.173" y1="3.377" x2="495.173" y2="653.486"/>
		</g>
	</g>
</svg>
