<?xml version="1.0" encoding="iso-8859-1"?>
<!-- Generator: Adobe Illustrator 11 Build 196, SVG Export Plug-In . SVG Version: 6.0.0 Build 78)  -->
<!DOCTYPE svg PUBLIC "-//W3C//DTD SVG 1.0//EN"    "http://www.w3.org/TR/2001/REC-SVG-20010904/DTD/svg10.dtd" [
	<!ENTITY ns_flows "http://ns.adobe.com/Flows/1.0/">
	<!ENTITY ns_svg "http://www.w3.org/2000/svg">
	<!ENTITY ns_xlink "http://www.w3.org/1999/xlink">
]>
<svg  
	 width="147.239" height="103.357" viewBox="0 0 147.239 103.357"
	 style="overflow:visible;enable-background:new 0 0 147.239 103.357" xml:space="preserve">
	<style type="text/css">
	
	</style>
	<g id="Layer_1">
		<line style="fill:none;stroke:#000000;stroke-width:0.5;" x1="14.623" y1="44.772" x2="14.623" y2="0"/>
		<line style="fill:none;stroke:#000000;stroke-width:0.5;" x1="14.17" y1="22.386" x2="133.973" y2="22.386"/>
		<g>
			<text transform="matrix(1 0 0 1 0 22.5933)"><tspan x="0" y="0" style="font-family:Liberation Sans; font-size:9.350000;">x</tspan></text>
		</g>
		<line style="fill:none;stroke:#000000;stroke-width:0.5;" x1="14.623" y1="57.803" x2="14.623" y2="102.575"/>
		<g>
			<text transform="matrix(1 0 0 1 0 81.1968)"><tspan x="0" y="0" style="font-family:Liberation Sans; font-size:9.350000;">v</tspan></text>
		</g>
		<line style="fill:none;stroke:#000000;stroke-width:0.5;" x1="14.17" y1="80.188" x2="133.973" y2="80.188"/>
		<g>
			<text transform="matrix(1 0 0 1 135.9321 26.9565)"><tspan x="0" y="0" style="font-family:Liberation Sans; font-size:9.350000;">t</tspan></text>
		</g>
		<g>
			<text transform="matrix(1 0 0 1 135.9321 84.6377)"><tspan x="0" y="0" style="font-family:Liberation Sans; font-size:9.350000;">t</tspan></text>
		</g>
		
			<line style="fill:none;stroke:#000000;stroke-width:0.5;stroke-dasharray:3;" x1="118.035" y1="0.903" x2="118.035" y2="103.357"/>
		<line style="fill:none;stroke:#000000;stroke-width:0.5;stroke-dasharray:3;" x1="39.4" y1="0.903" x2="39.4" y2="103.357"/>
		<line style="fill:none;stroke:#000000;stroke-width:0.5;stroke-dasharray:3;" x1="65.611" y1="0.903" x2="65.611" y2="103.357"/>
		<line style="fill:none;stroke:#000000;stroke-width:0.5;stroke-dasharray:3;" x1="91.823" y1="0.903" x2="91.823" y2="103.357"/>
		<path style="fill:none;stroke:#000000;stroke-width:3;" d="M19.953,18.469c18.09,0,19.447-14.924,32.109-14.924
			c12.663,0,20.803,25.326,45.677,25.326s17.638,0,17.638,0"/>
		<line style="fill:none;stroke:#000000;stroke-width:3;" x1="110.609" y1="28.889" x2="116.037" y2="28.889"/>
		<line style="fill:none;" x1="147.239" y1="17.679" x2="147.239" y2="82.679"/>
	</g>
</svg>
