<?xml version="1.0" encoding="iso-8859-1"?>
<!-- Generator: Adobe Illustrator 11 Build 196, SVG Export Plug-In . SVG Version: 6.0.0 Build 78)  -->
<!DOCTYPE svg PUBLIC "-//W3C//DTD SVG 1.0//EN"    "http://www.w3.org/TR/2001/REC-SVG-20010904/DTD/svg10.dtd" [
	<!ENTITY ns_flows "http://ns.adobe.com/Flows/1.0/">
	<!ENTITY ns_svg "http://www.w3.org/2000/svg">
	<!ENTITY ns_xlink "http://www.w3.org/1999/xlink">
]>
<svg
	 width="147.401" height="121.691" viewBox="0 0 147.401 121.691"
	 style="overflow:visible;enable-background:new 0 0 147.401 121.691" xml:space="preserve">
	<metadata>
<?xpacket begin='﻿' id='W5M0MpCehiHzreSzNTczkc9d'?><x:xmpmeta xmlns:x='adobe:ns:meta/' x:xmptk='XMP toolkit 3.0-29, framework 1.6'>
<rdf:RDF xmlns:rdf='http://www.w3.org/1999/02/22-rdf-syntax-ns#' xmlns:iX='http://ns.adobe.com/iX/1.0/'>

 <rdf:Description rdf:about=''
  xmlns:pdf='http://ns.adobe.com/pdf/1.3/'>
 </rdf:Description>

 <rdf:Description rdf:about=''
  xmlns:tiff='http://ns.adobe.com/tiff/1.0/'>
 </rdf:Description>

 <rdf:Description rdf:about=''
  xmlns:xap='http://ns.adobe.com/xap/1.0/'
  xmlns:xapGImg='http://ns.adobe.com/xap/1.0/g/img/'>
  <xap:CreateDate>2006-07-16T23:49:59Z</xap:CreateDate>
  <xap:ModifyDate>2006-07-16T23:49:59Z</xap:ModifyDate>
  <xap:CreatorTool>Illustrator</xap:CreatorTool>
  <xap:Thumbnails>
   <rdf:Alt>
    <rdf:li rdf:parseType='Resource'>
     <xapGImg:format>JPEG</xapGImg:format>
     <xapGImg:width>256</xapGImg:width>
     <xapGImg:height>212</xapGImg:height>
     <xapGImg:image>/9j/4AAQSkZJRgABAgEASABIAAD/7QAsUGhvdG9zaG9wIDMuMAA4QklNA+0AAAAAABAASAAAAAEA&#xA;AQBIAAAAAQAB/+4ADkFkb2JlAGTAAAAAAf/bAIQABgQEBAUEBgUFBgkGBQYJCwgGBggLDAoKCwoK&#xA;DBAMDAwMDAwQDA4PEA8ODBMTFBQTExwbGxscHx8fHx8fHx8fHwEHBwcNDA0YEBAYGhURFRofHx8f&#xA;Hx8fHx8fHx8fHx8fHx8fHx8fHx8fHx8fHx8fHx8fHx8fHx8fHx8fHx8fHx8f/8AAEQgA1AEAAwER&#xA;AAIRAQMRAf/EAaIAAAAHAQEBAQEAAAAAAAAAAAQFAwIGAQAHCAkKCwEAAgIDAQEBAQEAAAAAAAAA&#xA;AQACAwQFBgcICQoLEAACAQMDAgQCBgcDBAIGAnMBAgMRBAAFIRIxQVEGE2EicYEUMpGhBxWxQiPB&#xA;UtHhMxZi8CRygvElQzRTkqKyY3PCNUQnk6OzNhdUZHTD0uIIJoMJChgZhJRFRqS0VtNVKBry4/PE&#xA;1OT0ZXWFlaW1xdXl9WZ2hpamtsbW5vY3R1dnd4eXp7fH1+f3OEhYaHiImKi4yNjo+Ck5SVlpeYmZ&#xA;qbnJ2en5KjpKWmp6ipqqusra6voRAAICAQIDBQUEBQYECAMDbQEAAhEDBCESMUEFURNhIgZxgZEy&#xA;obHwFMHR4SNCFVJicvEzJDRDghaSUyWiY7LCB3PSNeJEgxdUkwgJChgZJjZFGidkdFU38qOzwygp&#xA;0+PzhJSktMTU5PRldYWVpbXF1eX1RlZmdoaWprbG1ub2R1dnd4eXp7fH1+f3OEhYaHiImKi4yNjo&#xA;+DlJWWl5iZmpucnZ6fkqOkpaanqKmqq6ytrq+v/aAAwDAQACEQMRAD8A9U4q7FXYq7FXYq7FWP8A&#xA;nLz/AOTvJdhHfeZ9Ui023mYpBzDvJIw3PpxRK8j8a78V274qs8l/mJ5L87Wct55X1WLUobdgk6qH&#xA;jkjJrx5xSrHIobieJK0PbFWR4q7FXYq7FXYq7FXYq7FXYq7FXYq7FXYq7FXYq7FXYq7FXYq7FXYq&#xA;7FXYq7FXYq7FXYq7FXYq7FWBeedH/L7SPMdj+Zfm3UPqh0O2azs1uGRrZXlYv6kcXptK1x1C8DWg&#xA;6YqxLyTa+Y9T88+afzRsNAk0vTrvSPqWjaTeBbW51K4iImS6mViqxB+PBWc9DXpirEr/APNbz95Z&#xA;sLHzLqn5h6Drd9JdQR6p5BsorJ2gSaTjLHFdW8kk5eEdS/w1r8TbclX0virsVdirsVdirsVdirsV&#xA;dirsVdirsVdirsVdirsVdirsVdirsVQl7q+k2ArfXsFqPGeVI+v+sR4Yqq2d7Z3ttHd2c8dzazDl&#xA;FPC6yRuvirKSCPliqtirsVdiqjPeWluQJ544S32RIyrWnhU4qpfpbSv+W2D/AJGp/XFXfpbSv+W2&#xA;D/kan9cVd+ltK/5bYP8Akan9cVeTfmX5Y88az+YWj+ZfLd75ZurDRbNo7Ow1+e5eOO8lkJkukit1&#xA;48xGEVWLmnWlaHFVeSx/NfzPouueXvOureVrLS9U06a2gutCkvDcpcyFQhcXLBDFx5cwDU4qwOf8&#xA;j/Nt75Qm0J73yZo0lvHCtrPpFs8c189tIjx/pG6cGTj8BY+mpq1D02xV9CaVqw/Rln+lr2x/SnoR&#xA;/X/qsv8Ao/1jgPV9H1Dz9PnXjy3p1xVFfpbSv+W2D/kan9cVd+ltK/5bYP8Akan9cVVIb+xnfhBc&#xA;RSvSvFHVjTxoDiqvirsVdirsVdirsVdirsVdirsVdirErbWfNPmG6mk0M2unaBC7wxapdRtdTXjx&#xA;sUka3hSSBYoldSFkdm59QnGjFVF/4d8xyENN5qvY268bS30+NN67Unt7lqeHxffirTeTopAW1DWt&#xA;WuwKlj9cezHff/QBaYql13pf5cWV+mnahq3HUpOCx2t7rN09weZogVZ7lpPiPQDriqZ/8q88jMKS&#xA;6FZXApQC4hSf5/3ofriqKs/KHlOxNbLRbC1NSaw2sMe5FCfhUdsVTfFXYq7FXYq8y/Mewsbzzlpa&#xA;3dvFcKunXJVZUVwD68O45A4qk3+HfL//AFbLT/kRH/zTirv8O+X/APq2Wn/IiP8A5pxV3+HfL/8A&#xA;1bLT/kRH/wA04q7/AA75f/6tlp/yIj/5pxV3+HfL/wD1bLT/AJER/wDNOKu/w75f/wCrZaf8iI/+&#xA;acVd/h3y/wD9Wy0/5ER/804q7/Dvl/8A6tlp/wAiI/8AmnFXf4d8v/8AVstP+REf/NOKsV85WzaV&#xA;qWkz6Esmm3jrcRmfTYnWTi/pqWf6uvMrHy9Tj+2yhP2sVQY8x+f1QSfpDWQSC4gklmAJPOQRGSlB&#xA;QtHCX6bTyfYjSiq7/Enn0AK2sawIxs81JudBxjLLGVry4o8wQivJ4YuvqVVaHmf8wChf9K6mG68D&#xA;JKYg3EkR+qF+x6kqp6n++4pZP2oiFW081+eS5P6Z1gx8tm4uH9NW6+nwH7wxxV49BLMidI5BirS+&#xA;bfzB5gHWdQD/AGQKyNDyoE+1wVzGHlLVrUwxcq85kOKr7nW/Osdy8lnqWtyWsoaa2iea6J4FXkWK&#xA;R6NwZWdYJDWq+nO+1IuKqxNf89rIQmra4wB4sx+scyOQXkI3VgJOEbPw6epLHH0SUYq03mb8wqqf&#xA;0rqauwFFEk/p8itQORXeP1Jqc61MMLP9qWM4q23mjz2rEfpfWSnKpA9QThKk8eJQqJSkIWh2E0pX&#xA;7ELjFXN5p/MAAJ+mtSVzs0n74ohoqc6cSzRh5Hk61MUaftzA4qitI80+e7nVbC0fVtSWK/vrW1nF&#xA;w1GjhupwktSEC+okTqg40/etIV+GFaKvbPMWsW/lTRdOtNKsxNO81tY6Xo8I/eSxKy+qkIqoBitk&#xA;dwXYKOPxEDfFUu1HW9V1DzF5ZsJdEvdMia+luJpbmWyIaOCznoALa4uG/vWj6gYqmXmW0tdV13Rt&#xA;EvCslk63Oo3Ni4qtwtn6UaLID8LRpLdI5U9WC9q4qnVtqdjdXd3aW8vqT2DJHdqA1EeRBIqFqcS3&#xA;BlYgGoBFeoxVFYq7FXYq7FXYq7FXnPnz/lNNN/7Ztx/yfhxVAYq7FXYq7FXYq7FXYq7FXYqq+Xf+&#xA;U90n/mEvv+ZOKvUMVdirsVdirsVdirsVdirsVdiqTeb9Lu9T8vXVvY8f0hGYrvTw5ohurOVLm3Dn&#xA;eimWJQ23TFWP6JHpWseeoPMWn6RJZtDps8Oo3lzatayNc3UlsY4quqmV4o7Z1dlqFqFr2CqbbXf5&#xA;hHfbR9KG3Yvqdwf+GVdP+5vfFXWxFz+YF8xPJdN0y2ijPg95PM8y18eNrCfpGKozy/ZWlidStoLl&#xA;bmU301zcgAB43uiJxG9Cd1R14/5NMVV9T1/SNNsr28urpFh0+n1sKebozgFI+C1b1JOa8EpVqinU&#xA;YqkmnaoNItJ9d83agmm3Gqsph0+4nAjtokr6NtGteLzUesrJUs5oKqqYqmWkeYn1a5P1bTbuLTlU&#xA;kajdx/VlkaoAWOCXjcHueTRqvgTiqc4q7FXYq858+f8AKaab/wBs24/5Pw4qgMVdirsVdirsVdir&#xA;sVdirsVVfLv/ACnuk/8AMJff8ycVeoYq7FXYq7FXYq7FXYq7FXYq7FXYq7FWGeftNu7ea08y2Fxe&#xA;W31OkGtrp6q802nHkaiNkl5tbyP6g4ry4+oF3YYqxry7+Yn5e+WtV1q3m1767BqlxHqGn36zvqjv&#xA;F9TgheJ2i9eWN0kiZhG4A4t8H7QVVF+SvzJ8vfXNduNadtC/SmoG8sZtR/0e3mt1tobeIpM/GMSG&#xA;O2DNEzchvtTFUyh8s6P5zvpPMV3Fc21uJ410uS3uLi1a4htVdY7mREZOJMk8vpOtG4cW5bgBVkuk&#xA;+VPLmk3D3VjYRR3sg4y37gy3Ug8JLiQvM/8AsmOKptirsVdirsVec+fP+U003/tm3H/J+HFUBirs&#xA;VdirsVdirsVdirsVdiqr5d/5T3Sf+YS+/wCZOKvUMVdirsVdirsVdirsVdirsVdirsVdirsVdirs&#xA;VdirsVdirsVdirsVec+fP+U003/tm3H/ACfhxVAYq7FXYq7FXYq7FXYq7FXYqq+Xf+U90n/mEvv+&#xA;ZOKvUMVdirsVdirsVdirsVdirsVdirsVdirsVdirsVdirsVdirsVdirsVec+fP8AlNNN/wC2bcf8&#xA;n4cVQGKuxV2KuxV2KuxV2KuxV2Kqvl3/AJT3Sf8AmEvv+ZOKvUMVdirsVdirsVdirsVdirsVdirs&#xA;VdirsVdirsVdirsVdirsVdirsVec+fP+U003/tm3H/J+HFUBirsVdirsVdirsVdirsVdiqr5d/5T&#xA;3Sf+YS+/5k4q9QxV2KuxV2KuxV2KuxV2KuxV2KuxV2KuxV2KuxV2KuxV2KuxV2KuxV5z58/5TTTf&#xA;+2bcf8n4cVQGKuxV2KuxV2KuxV2KuxV2Kqvl3/lPdJ/5hL7/AJk4q9QxV2KuxV2KuxV2KuxV2Kux&#xA;V2KuxV2KuxV2KuxV2KuxV2KuxV2KuxV5z58/5TTTf+2bcf8AJ+HFUBirsVdirsVdirsVdirsVdiq&#xA;r5d/5T3Sf+YS+/5k4q9H1DUtO02zlvtRuobKygHKa6uJFiiRfFncqqj5nFUJpPmryvrFpNeaRrFl&#xA;qNpbV+sXNpcxTxx0BJ5vGzKuwrviqM0/UdP1KyivtOuor2yuF5wXVu6yxOvSqOhKsPkcVRGKuxV2&#xA;KuxV2KuxV2KuxV2KuxV2KuxV2KuxV2KuxV2KuxV5z58/5TTTf+2bcf8AJ+HFUBirsVdirFvzRvLu&#xA;y/L7XbqznktrqG1Zop4WaORGqN1ZSCD8sVee61p3nTRLbypq8PmzUJdU8w3dtpt7DMwksohfRsQ8&#xA;NuRQNFTZmJJO574qyDy/b6v5a/M6Py82uahrOm6lpcl6y6nKJ3inimC1jai8VK1+EDFXpeKuxV2K&#xA;qvl3/lPdJ/5hL7/mTiqb/mR+W+nectQ0C61u/VPLegSz3upaPKlYLxjGBE00hkRUWCjNurVBI2xV&#xA;5Zp9h5Y1H8y9X1v8tdPitPKdhoF9Za/qNjF9X066umQmKK3VAsUjRkBmZBT36VVQ35e+b/zr0P8A&#xA;JvSdd0fQNJm8p6LYmSW2u5pxqd1BCWaaaH0/3Ma/a4h6sQK0NQMVfQPlbzDZeZPLmma/YhhaanbR&#xA;3USv9pRIobi3up2OKppirsVdirsVdirsVdirsVdirsVdirsVdirsVdirsVdirznz5/ymmm/9s24/&#xA;5Pw4qgMVdirsVSfzd5f/AMQ+WtR0T1/qv1+Ew/WOHqcKkb8OSV+/FUv17yV+lrPy3b/XPR/w/f2l&#xA;/wAvS5+t9UUr6dOa8OfLrvTwOKoi48qet54s/NP1rj9VsZLH6n6deXqSc+fqctqdKcfpxVkGKuxV&#xA;2Kqvl3/lPdJ/5hL7/mTiqD/PXRPPuuXmgWGj+XJPMvleJ5bnzBpkeoW+mrdOoAtoZJJW5mNWq7KF&#xA;IbbFUTous/mffWc3l26/LKPyxo0llcwQ3MGrWE8cLGB/SjW2gSPZ3ou1AK1xVhmhaN/zkJpv5YW/&#xA;5cr5Ysj9as2sh5jbUIUFlBcgiRJrZebSSRB2CvExFOJoTXFXtvk3y1b+V/Kmk+XreQyxaXaxWwmI&#xA;oXMagM5Hbk1TTFU5xV2KuxV2KuxV2KuxV2KuxV2KuxV2KuxV2KuxV2KuxV5z58/5TTTf+2bcf8n4&#xA;cVQGKuxV2KuxV2KuxV2KuxV2Kqvl3/lPdJ/5hL7/AJk4q9QxV2KuxV2KuxV2KuxV2KuxV2KuxV2K&#xA;uxV2KuxV2KuxV2KuxV2KuxV5z58/5TTTf+2bcf8AJ+HFUBirsVdirsVdirsVdirsVdiqr5d/5T3S&#xA;f+YS+/5k4q9QxV2KuxV2KuxV2KuxV2KuxV2KuxV2KuxV2KuxV2KuxV2KuxV2KuxV5z58/wCU003/&#xA;ALZtx/yfhxVAYq7FXYq7FXYq7FXYq7FXYqq+Xf8AlPdJ/wCYS+/5k4q9QxV2KuxV2KuxV2KuxV2K&#xA;uxV2KuxV2KuxV2KuxV2KuxV2KuxV2KuxV5z58/5TTTf+2bcf8n4cVQGKuxV2KuxV2KuxV2KuxV2K&#xA;qvl3/lPdJ/5hL7/mTir1DFXYq7FXYq7FXYq7FXYq7FXYq7FXYq7FXYq7FXYq7FXYq7FXYq7FXnPn&#xA;z/lNNN/7Ztx/yfhxVAYq7FXYq7FXYq7FXYq7FXYqq+Xf+U90n/mEvv8AmTir1DFXYq7FXYq7FXYq&#xA;7FXYq7FXYq7FXYq7FXYq7FXYq7FXYq7FXYq7FXnPnz/lNNN/7Ztx/wAn4cVQGKuxV2KuxV2KuxV2&#xA;KuxV2Kqvl3/lPdJ/5hL7/mTir1DFXYq7FXYq7FXYq7FXYq7FXYq7FXYq7FXYq7FXYq7FXYq7FXYq&#xA;7FXnPnz/AJTTTf8Atm3H/J+HFUBirsVdirsVdirsVdirsVdiqr5d/wCU90n/AJhL7/mTir1DFXYq&#xA;7FXYq7FXYq7FXYq7FXYq7FXYq7FXYq7FXYq7FXYq7FXYq7FXnPnz/lNNN/7Ztx/yfhxVAYq7FXYq&#xA;7FXYq7FXYq7FXYqq+Xf+U90n/mEvv+ZOKvUMVdirsVdirsVdirsVdirsVdirsVdirsVdirsVdirs&#xA;VdirsVdirEPNXn+fQdTFimjT36mNZPXilhRfiJHGkjBtqYq8482edfMOp65Z6nYeW3IgtpbaSKe7&#xA;hjNZJEcMCgl/kxVLf8Xedf8AqVY/+4jH/wBUsVd/i7zr/wBSrH/3EY/+qWKu/wAXedf+pVj/AO4j&#xA;H/1SxV3+LvOv/Uqx/wDcRj/6pYq7/F3nX/qVY/8AuIx/9UsVd/i7zr/1Ksf/AHEY/wDqlirv8Xed&#xA;f+pVj/7iMf8A1SxV3+LvOv8A1Ksf/cRj/wCqWKu/xd51/wCpVj/7iMf/AFSxVFaD5u8zWvmS01W9&#xA;8tFIbWC4i4Q3kMrM0/p0+0sQAHp4qzf/AJW/df8AUs3f/SRa/wDNeKu/5W/df9Szd/8ASRa/814q&#xA;7/lb91/1LN3/ANJFr/zXirv+Vv3X/Us3f/SRa/8ANeKu/wCVv3X/AFLN3/0kWv8AzXirv+Vv3X/U&#xA;s3f/AEkWv/NeKu/5W/df9Szd/wDSRa/814q7/lb91/1LN3/0kWv/ADXirv8Alb91/wBSzd/9JFr/&#xA;AM14q7/lb91/1LN3/wBJFr/zXirv+Vv3X/Us3f8A0kWv/NeKu/5W/df9Szd/9JFr/wA14q7/AJW/&#xA;df8AUs3f/SRa/wDNeKu/5W/df9Szd/8ASRa/814q7/lb91/1LN3/ANJFr/zXir0K1mM9tDOUMZlR&#xA;XMZIJXkK0JG22KquKuxV2KuxVgHni29TWlan+6UH4tirH/qPtirvqPtirvqPtirvqPtirvqPtirv&#xA;qPtirvqPtirvqPtirvqPtirvqPtirvqPtirvqPtirvqPtirvqPtirvqPtirvqPtirvqPtirvqPti&#xA;rvqPtirvqPtirvqPtirvqPtirvqPtirvqPtirvqPtirvqPtir1mzFLOAeEaf8RGKq2KuxV2KuxVi&#xA;vmW29TUQ1P8Adaj8TiqVfUfbFXfUfbFXfUfbFXfUfbFXfUfbFXfUfbFXfUfbFXfUfbFXfUfbFXfU&#xA;fbFXfUfbFXfUfbFXfUfbFXfUfbFXfUfbFXfUfbFXfUfbFXfUfbFXfUfbFXfUfbFXfUfbFXfUfbFX&#xA;fUfbFXfUfbFXfUfbFXfUfbFWd24pbxDwRf1YqqYq7FXYq7FUq1K29S4DU/ZA/XiqE+o+2Ku+o+2K&#xA;u+o+2Ku+o+2Ku+o+2Ku+o+2Ku+o+2Ku+o+2Ku+o+2Ku+o+2Ku+o+2Ku+o+2Ku+o+2Ku+o+2Ku+o+&#xA;2Ku+o+2Ku+o+2Ku+o+2Ku+o+2Ku+o+2Ku+o+2Ku+o+2Ku+o+2Ku+o+2Ku+o+2Ku+o+2Kp9GKRqPA&#xA;D9WKrsVdirsVdiqlJ6fL4uuKrP3GKu/cYq79xirv3GKu/cYq79xirv3GKu/cYq79xirv3GKu/cYq&#xA;79xirv3GKu/cYq79xirv3GKu/cYq79xirv3GKu/cYq79xirv3GKu/cYq79xirv3GKu/cYqrjoKYq&#xA;3irsVdir/9k=</xapGImg:image>
    </rdf:li>
   </rdf:Alt>
  </xap:Thumbnails>
 </rdf:Description>

 <rdf:Description rdf:about=''
  xmlns:dc='http://purl.org/dc/elements/1.1/'>
  <dc:format>image/svg+xml</dc:format>
 </rdf:Description>

</rdf:RDF>
</x:xmpmeta>
                                                                                                                                                                                                                                                                                                                                                                                                                                                                                                                                                                                                                                                                                                                                                                                                                                                                                                                                                                                                                                                                                                                                                                                                                                                                                                                                                                                                                                                                                                                                                                                                                                                                                                                                                                                                                                                                                                                                                                                                                                                                                                                                <?xpacket end='w'?>
			</metadata>
		<g id="Layer_1">
			<g>
				<g>
					<g>
						<path style="fill:none;stroke:#000000;stroke-width:0.5;" d="M55.327,14.877c1.429-0.743,1.558,3.532,2.761,2.938"/>
						<path style="fill:none;stroke:#000000;stroke-width:0.5;" d="M56.367,14.882c1.429-0.743,1.559,3.532,2.761,2.938"/>
						<path style="fill:none;stroke:#000000;stroke-width:0.5;" d="M57.408,14.887c1.429-0.743,1.559,3.532,2.762,2.938"/>
						<path style="fill:none;stroke:#000000;stroke-width:0.5;" d="M58.449,14.892c1.429-0.743,1.558,3.532,2.761,2.938"/>
						<path style="fill:none;stroke:#000000;stroke-width:0.5;" d="M59.489,14.897c1.429-0.743,1.559,3.532,2.761,2.938"/>
						<path style="fill:none;stroke:#000000;stroke-width:0.5;" d="M60.53,14.902c1.429-0.743,1.559,3.533,2.761,2.938"/>
						<path style="fill:none;stroke:#000000;stroke-width:0.5;" d="M61.57,14.906c1.429-0.743,1.559,3.533,2.762,2.938"/>
						<path style="fill:none;stroke:#000000;stroke-width:0.5;" d="M62.611,14.911c1.429-0.743,1.558,3.533,2.761,2.938"/>
						<path style="fill:none;stroke:#000000;stroke-width:0.5;" d="M63.652,14.916c1.429-0.743,1.559,3.533,2.761,2.938"/>
						<path style="fill:none;stroke:#000000;stroke-width:0.5;" d="M64.692,14.921c1.429-0.743,1.559,3.533,2.761,2.938"/>
						<path style="fill:none;stroke:#000000;stroke-width:0.5;" d="M65.733,14.926c1.428-0.743,1.558,3.532,2.761,2.938"/>
						<path style="fill:none;stroke:#000000;stroke-width:0.5;" d="M66.774,14.931c1.429-0.743,1.558,3.532,2.761,2.938"/>
						<path style="fill:none;stroke:#000000;stroke-width:0.5;" d="M67.814,14.936c1.429-0.743,1.559,3.532,2.761,2.938"/>
						<path style="fill:none;stroke:#000000;stroke-width:0.5;" d="M68.855,14.941c1.429-0.743,1.559,3.532,2.761,2.938"/>
						<path style="fill:none;stroke:#000000;stroke-width:0.5;" d="M69.896,14.946c1.428-0.743,1.558,3.532,2.761,2.938"/>
						<path style="fill:none;stroke:#000000;stroke-width:0.5;" d="M70.937,14.951c1.429-0.743,1.558,3.532,2.761,2.938"/>
						<path style="fill:none;stroke:#000000;stroke-width:0.5;" d="M71.977,14.956c1.429-0.743,1.559,3.532,2.761,2.938"/>
						<path style="fill:none;stroke:#000000;stroke-width:0.5;" d="M73.018,14.961c1.429-0.743,1.559,3.532,2.761,2.938"/>
						<path style="fill:none;stroke:#000000;stroke-width:0.5;" d="M74.059,14.966c1.428-0.743,1.558,3.532,2.761,2.938"/>
						<path style="fill:none;stroke:#000000;stroke-width:0.5;" d="M75.099,14.97c1.429-0.743,1.558,3.533,2.761,2.938"/>
						<path style="fill:none;stroke:#000000;stroke-width:0.5;" d="M76.14,14.975c1.429-0.743,1.559,3.533,2.761,2.938"/>
						<path style="fill:none;stroke:#000000;stroke-width:0.5;" d="M77.181,14.98c1.428-0.743,1.558,3.533,2.761,2.938"/>
						<path style="fill:none;stroke:#000000;stroke-width:0.5;" d="M78.221,14.985c1.428-0.743,1.558,3.533,2.761,2.938"/>
						<path style="fill:none;stroke:#000000;stroke-width:0.5;" d="M79.262,14.99c1.429-0.743,1.558,3.532,2.761,2.938"/>
						<path style="fill:none;stroke:#000000;stroke-width:0.5;" d="M80.302,14.995c1.429-0.743,1.559,3.532,2.761,2.938"/>
						<path style="fill:none;stroke:#000000;stroke-width:0.5;" d="M81.343,15c1.429-0.743,1.559,3.532,2.761,2.938"/>
						<path style="fill:none;stroke:#000000;stroke-width:0.5;" d="M82.59,14.877c1.429-0.743,1.559,3.532,2.761,2.938"/>
						<path style="fill:none;stroke:#000000;stroke-width:0.5;" d="M83.631,14.882c1.428-0.743,1.558,3.532,2.761,2.938"/>
						<path style="fill:none;stroke:#000000;stroke-width:0.5;" d="M84.672,14.887c1.428-0.743,1.558,3.532,2.761,2.938"/>
						<path style="fill:none;stroke:#000000;stroke-width:0.5;" d="M85.712,14.892c1.429-0.743,1.558,3.532,2.761,2.938"/>
						<path style="fill:none;stroke:#000000;stroke-width:0.5;" d="M86.753,14.897c1.429-0.743,1.559,3.532,2.761,2.938"/>
						<path style="fill:none;stroke:#000000;stroke-width:0.5;" d="M87.794,14.902c1.428-0.743,1.558,3.533,2.761,2.938"/>
						<path style="fill:none;stroke:#000000;stroke-width:0.5;" d="M88.834,14.906c1.428-0.743,1.558,3.533,2.761,2.938"/>
						<path style="fill:none;stroke:#000000;stroke-width:0.5;" d="M89.875,14.911c1.429-0.743,1.558,3.533,2.761,2.938"/>
						<path style="fill:none;stroke:#000000;stroke-width:0.5;" d="M90.916,14.916c1.429-0.743,1.559,3.533,2.761,2.938"/>
						<path style="fill:none;stroke:#000000;stroke-width:0.5;" d="M91.957,14.921c1.428-0.743,1.558,3.533,2.761,2.938"/>
						<path style="fill:none;stroke:#000000;stroke-width:0.5;" d="M92.997,14.926c1.428-0.743,1.558,3.532,2.761,2.938"/>
						<path style="fill:none;stroke:#000000;stroke-width:0.5;" d="M94.038,14.931c1.429-0.743,1.559,3.532,2.761,2.938"/>
						<path style="fill:none;stroke:#000000;stroke-width:0.5;" d="M95.078,14.936c1.429-0.743,1.559,3.532,2.761,2.938"/>
						<path style="fill:none;stroke:#000000;stroke-width:0.5;" d="M96.119,14.941c1.428-0.743,1.558,3.532,2.761,2.938"/>
						<path style="fill:none;stroke:#000000;stroke-width:0.5;" d="M97.16,14.946c1.428-0.743,1.558,3.532,2.761,2.938"/>
						<path style="fill:none;stroke:#000000;stroke-width:0.5;" d="M98.2,14.951c1.429-0.743,1.559,3.532,2.761,2.938"/>
						<path style="fill:none;stroke:#000000;stroke-width:0.5;" d="M99.241,14.956c1.429-0.743,1.559,3.532,2.761,2.938"/>
						<path style="fill:none;stroke:#000000;stroke-width:0.5;" d="M100.282,14.961c1.428-0.743,1.558,3.532,2.761,2.938"/>
						<path style="fill:none;stroke:#000000;stroke-width:0.5;" d="M101.322,14.966c1.429-0.743,1.559,3.532,2.761,2.938"/>
						<path style="fill:none;stroke:#000000;stroke-width:0.5;" d="M102.363,14.97c1.429-0.743,1.559,3.533,2.761,2.938"/>
						<path style="fill:none;stroke:#000000;stroke-width:0.5;" d="M103.403,14.975c1.429-0.743,1.559,3.533,2.761,2.938"/>
						<path style="fill:none;stroke:#000000;stroke-width:0.5;" d="M104.444,14.98c1.428-0.743,1.558,3.533,2.761,2.938"/>
						<path style="fill:none;stroke:#000000;stroke-width:0.5;" d="M105.485,14.985c1.429-0.743,1.558,3.533,2.761,2.938"/>
						<path style="fill:none;stroke:#000000;stroke-width:0.5;" d="M106.525,14.99c1.429-0.743,1.559,3.532,2.761,2.938"/>
						<path style="fill:none;stroke:#000000;stroke-width:0.5;" d="M107.566,14.995c1.429-0.743,1.559,3.532,2.762,2.938"/>
						<path style="fill:none;stroke:#000000;stroke-width:0.5;" d="M108.607,15c1.428-0.743,1.558,3.532,2.761,2.938"/>
					</g>
					<g>
						
							<linearGradient id="XMLID_24_" gradientUnits="userSpaceOnUse" x1="8.6367" y1="157.3943" x2="8.6367" y2="139.8943" gradientTransform="matrix(1 0 0 1 59.095 -35.7485)">
							<stop  offset="0" style="stop-color:#FFFFFF"/>
							<stop  offset="1" style="stop-color:#A3A3A3"/>
							<midPointStop  offset="0" style="stop-color:#FFFFFF"/>
							<midPointStop  offset="0.5" style="stop-color:#FFFFFF"/>
							<midPointStop  offset="1" style="stop-color:#A3A3A3"/>
						</linearGradient>
						<rect x="6.232" y="104.1" style="fill:url(#XMLID_24_);" width="123" height="17.591"/> 
						<line style="fill:none;stroke:#000000;stroke-width:0.5;" x1="129.232" y1="104.35" x2="6.232" y2="104.35"/>
					</g>
					<rect x="11.607" y="13.833" style="fill:#BFBFBF;stroke:#000000;stroke-width:0.5;" width="46.5" height="90"/> 
					<g>
						<path style="fill:none;stroke:#000000;stroke-width:0.5;" d="M138.951,8.941c-2.285,0.39-10.065,0.91-11.238,0.91
							s-5.372,0.39-5.866,0.52c-0.494,0.13-3.767,0.26-4.446,0.39s-3.582,0.325-3.828,0.455c-0.247,0.13-1.791,0.91-1.976,1.43
							c-0.186,0.52-1.667,2.795-1.729,3.25s-0.371,2.145-0.247,2.795s0.494,2.015,0.679,2.405s0.556,1.17,0.803,1.235
							c0.247,0.065,0.741,0.26,1.173-0.13s0.741-0.585,0.803-1.43c0.062-0.845,0-1.495,0-1.755c0-0.455,1.111-1.625,1.111-1.625
							h0.185c0,0-0.185-0.195,0.247-0.26c0.433-0.065,2.594-0.26,2.841-0.26c0.247,0,0.741-0.13,0.741-0.13"/>
						<path style="fill:none;stroke:#000000;stroke-width:0.5;" d="M118.574,14.076c-0.062,1.3-0.371,2.795-0.494,3.705
							s-0.494,2.21-0.741,3.445c-0.247,1.235-0.679,1.755,0.185,2.665s0.926,1.69,1.297,2.34c0.259,0.454,0.91,1.036,1.469,1.167
							c0,0,6.064-0.257,6.435-0.452"/>
						<path style="fill:none;stroke:#000000;stroke-width:0.5;" d="M122.525,17.066c-0.309,1.625-0.617,3.51-0.803,4.68
							c-0.185,1.17-0.741,2.99-0.556,3.705c0.186,0.715,1.358,1.56,2.223,1.56c0.864,0,1.791-0.585,2.1-1.56
							c0.309-0.975,0.494-3.12,0.494-3.12"/>
						<path style="fill:none;stroke:#000000;stroke-width:0.5;" d="M125.366,25.646c0.988,0.91,2.223,2.08,3.334,1.755
							c1.112-0.325,1.359-1.235,1.853-2.08c0.058-0.099,0.125-0.199,0.2-0.299"/>
						<path style="fill:none;stroke:#000000;stroke-width:0.5;" d="M130.491,22.591c0.37,0.91,0.741,1.625,0.741,1.625"/>
						<path style="fill:none;stroke:#000000;stroke-width:0.5;" d="M126.292,17.456c-0.741,0.65-1.235,2.21-0.741,3.12"/>
						<path style="fill:none;stroke:#000000;stroke-width:0.5;" d="M124.131,13.946c-1.42,0.455-1.667,2.535-1.667,2.535"/>
						<path style="fill:none;stroke:#000000;stroke-width:0.5;" d="M125.86,13.491c2.161,0.065,2.655,0,2.655,0"/>
						<line style="fill:none;stroke:#000000;stroke-width:0.5;" x1="114.128" y1="15.831" x2="114.622" y2="17.131"/>
						<line style="fill:none;stroke:#000000;stroke-width:0.5;" x1="111.658" y1="18.756" x2="113.263" y2="18.951"/>
						<path style="fill:none;stroke:#000000;stroke-width:0.5;" d="M131.911,24.216c1.729-0.13,8.954-2.6,9.139-3.12"/>
						<path style="fill:none;stroke:#000000;stroke-width:0.5;" d="M135.678,19.081c0,0-3.211,4.42-4.075,5.07"/>
						<path style="fill:none;stroke:#000000;stroke-width:0.5;" d="M118.018,24.281c0.617,0.26,3.087-0.325,3.272-0.52"/>
					</g>
					<polygon style="fill:#FFFFFF;" points="109.857,18.25 109.857,17.083 110.357,15.083 111.773,16.25 112.19,17.583 110.94,19 
						"/>
				</g>
				<g>
					<text transform="matrix(1 0 0 1 28.9399 11.9998)"><tspan x="0" y="0" style="font-family:'Helvetica'; font-size:12;">2a</tspan></text>
				</g>
				<g>
					<text transform="matrix(1 0 0 1 61.6069 63.3333)"><tspan x="0" y="0" style="font-family:'Helvetica'; font-size:12;">2b</tspan></text>
				</g>
			</g>
			<rect y="59.789" style="fill:none;" width="147.401" height="2.834"/> 
			<g>
				<text transform="matrix(1 0 0 1 30.6367 62.3943)"><tspan x="0" y="0" style="font-family:'Helvetica'; font-size:12;">m</tspan></text>
			</g>
		</g>
	</svg>
