<?xml version="1.0" encoding="UTF-8" standalone="no"?>
<!-- Generator: Adobe Illustrator 11 Build 196, SVG Export Plug-In . SVG Version: 6.0.0 Build 78)  -->

<svg
   xmlns:dc="http://purl.org/dc/elements/1.1/"
   xmlns:cc="http://creativecommons.org/ns#"
   xmlns:rdf="http://www.w3.org/1999/02/22-rdf-syntax-ns#"
   xmlns:svg="http://www.w3.org/2000/svg"
   xmlns="http://www.w3.org/2000/svg"
   xmlns:xlink="http://www.w3.org/1999/xlink"
   xmlns:sodipodi="http://sodipodi.sourceforge.net/DTD/sodipodi-0.dtd"
   xmlns:inkscape="http://www.inkscape.org/namespaces/inkscape"
   width="146.433"
   height="102.35"
   viewBox="0 0 146.433 102.35"
   style="overflow:visible;enable-background:new 0 0 146.433 102.35"
   xml:space="preserve"
   id="svg2"
   version="1.1"
   sodipodi:docname="impossible-machine.svg"
   inkscape:export-filename="/home/bcrowell/Documents/writing/books/physics/share/mechanics/figs/eg-impossible-machine.png"
   inkscape:export-xdpi="300"
   inkscape:export-ydpi="300"><metadata
   id="metadata97"><rdf:RDF><cc:Work
       rdf:about=""><dc:format>image/svg+xml</dc:format><dc:type
         rdf:resource="http://purl.org/dc/dcmitype/StillImage" /><dc:title /></cc:Work></rdf:RDF></metadata><defs
   id="defs95">
		
		
		
		
		
		
		
			<linearGradient
   gradientTransform="matrix(0.9,0,0,0.9,5.6225,10.075)"
   y2="90.2788"
   x2="151.0906"
   y1="90.2788"
   x1="132.2573"
   gradientUnits="userSpaceOnUse"
   id="XMLID_3_">
			<stop
   id="stop46"
   style="stop-color:#CBCBCB"
   offset="0" />
			<stop
   id="stop48"
   style="stop-color:#FFFFFF"
   offset="0.31" />
			<stop
   id="stop50"
   style="stop-color:#727272"
   offset="0.93" />
			<midPointStop
   id="midPointStop52"
   style="stop-color:#CBCBCB"
   offset="0" />
			<midPointStop
   id="midPointStop54"
   style="stop-color:#CBCBCB"
   offset="0.5" />
			<midPointStop
   id="midPointStop56"
   style="stop-color:#FFFFFF"
   offset="0.31" />
			<midPointStop
   id="midPointStop58"
   style="stop-color:#FFFFFF"
   offset="0.5" />
			<midPointStop
   id="midPointStop60"
   style="stop-color:#727272"
   offset="0.93" />
		</linearGradient>
		 
		
		
		
		
			<linearGradient
   gradientTransform="matrix(0.9,0,0,0.9,-119.0054,2.9426)"
   y2="90.2778"
   x2="151.0906"
   y1="90.2778"
   x1="132.2573"
   gradientUnits="userSpaceOnUse"
   id="XMLID_4_">
			<stop
   id="stop75"
   style="stop-color:#CBCBCB"
   offset="0" />
			<stop
   id="stop77"
   style="stop-color:#FFFFFF"
   offset="0.31" />
			<stop
   id="stop79"
   style="stop-color:#727272"
   offset="0.93" />
			<midPointStop
   id="midPointStop81"
   style="stop-color:#CBCBCB"
   offset="0" />
			<midPointStop
   id="midPointStop83"
   style="stop-color:#CBCBCB"
   offset="0.5" />
			<midPointStop
   id="midPointStop85"
   style="stop-color:#FFFFFF"
   offset="0.31" />
			<midPointStop
   id="midPointStop87"
   style="stop-color:#FFFFFF"
   offset="0.5" />
			<midPointStop
   id="midPointStop89"
   style="stop-color:#727272"
   offset="0.93" />
		</linearGradient>
		 
	<linearGradient
   inkscape:collect="always"
   xlink:href="#XMLID_4_"
   id="linearGradient3093"
   gradientUnits="userSpaceOnUse"
   gradientTransform="matrix(0.9,0,0,0.9,44.680799,8.0811207)"
   x1="132.2573"
   y1="90.2778"
   x2="151.0906"
   y2="90.2778" /><linearGradient
   inkscape:collect="always"
   xlink:href="#XMLID_3_"
   id="linearGradient3101"
   gradientUnits="userSpaceOnUse"
   gradientTransform="matrix(0.9,0,0,0.9,-5.9719391,-1.837125)"
   x1="132.2573"
   y1="90.2788"
   x2="151.0906"
   y2="90.2788" /><linearGradient
   inkscape:collect="always"
   xlink:href="#XMLID_4_"
   id="linearGradient4270"
   gradientUnits="userSpaceOnUse"
   gradientTransform="matrix(0.9,0,0,0.9,44.680799,8.0811207)"
   x1="132.2573"
   y1="90.2778"
   x2="151.0906"
   y2="90.2778" /><linearGradient
   inkscape:collect="always"
   xlink:href="#XMLID_3_"
   id="linearGradient4272"
   gradientUnits="userSpaceOnUse"
   gradientTransform="matrix(0.9,0,0,0.9,-5.9719391,-1.837125)"
   x1="132.2573"
   y1="90.2788"
   x2="151.0906"
   y2="90.2788" /><linearGradient
   gradientTransform="matrix(0.9,0,0,0.9,5.6225,10.075)"
   y2="90.278801"
   x2="151.09061"
   y1="90.278801"
   x1="132.25729"
   gradientUnits="userSpaceOnUse"
   id="XMLID_3_-1"><stop
     id="stop46-7"
     style="stop-color:#CBCBCB"
     offset="0" /><stop
     id="stop48-2"
     style="stop-color:#FFFFFF"
     offset="0.31" /><stop
     id="stop50-7"
     style="stop-color:#727272"
     offset="0.93" /><midPointStop
     id="midPointStop52-2"
     style="stop-color:#CBCBCB"
     offset="0" /><midPointStop
     id="midPointStop54-2"
     style="stop-color:#CBCBCB"
     offset="0.5" /><midPointStop
     id="midPointStop56-6"
     style="stop-color:#FFFFFF"
     offset="0.31" /><midPointStop
     id="midPointStop58-1"
     style="stop-color:#FFFFFF"
     offset="0.5" /><midPointStop
     id="midPointStop60-0"
     style="stop-color:#727272"
     offset="0.93" /></linearGradient><linearGradient
   gradientTransform="matrix(0.9,0,0,0.9,-119.0054,2.9426)"
   y2="90.277802"
   x2="151.09061"
   y1="90.277802"
   x1="132.25729"
   gradientUnits="userSpaceOnUse"
   id="XMLID_4_-1"><stop
     id="stop75-5"
     style="stop-color:#CBCBCB"
     offset="0" /><stop
     id="stop77-9"
     style="stop-color:#FFFFFF"
     offset="0.31" /><stop
     id="stop79-4"
     style="stop-color:#727272"
     offset="0.93" /><midPointStop
     id="midPointStop81-9"
     style="stop-color:#CBCBCB"
     offset="0" /><midPointStop
     id="midPointStop83-0"
     style="stop-color:#CBCBCB"
     offset="0.5" /><midPointStop
     id="midPointStop85-9"
     style="stop-color:#FFFFFF"
     offset="0.31" /><midPointStop
     id="midPointStop87-1"
     style="stop-color:#FFFFFF"
     offset="0.5" /><midPointStop
     id="midPointStop89-7"
     style="stop-color:#727272"
     offset="0.93" /></linearGradient><linearGradient
   inkscape:collect="always"
   xlink:href="#XMLID_3_-1"
   id="linearGradient3395"
   gradientUnits="userSpaceOnUse"
   gradientTransform="matrix(0.90000001,0,0,0.90000001,-267.63352,188.71365)"
   x1="132.25729"
   y1="90.278801"
   x2="151.09061"
   y2="90.278801" /><linearGradient
   inkscape:collect="always"
   xlink:href="#XMLID_3_-17"
   id="linearGradient3097"
   gradientUnits="userSpaceOnUse"
   gradientTransform="matrix(0.9,0,0,0.9,18.336964,-1.837125)"
   x1="132.25729"
   y1="90.278801"
   x2="151.09061"
   y2="90.278801" /><linearGradient
   gradientTransform="matrix(0.9,0,0,0.9,5.6225,10.075)"
   y2="90.278801"
   x2="151.09061"
   y1="90.278801"
   x1="132.25729"
   gradientUnits="userSpaceOnUse"
   id="XMLID_3_-17"><stop
     id="stop46-2"
     style="stop-color:#CBCBCB"
     offset="0" /><stop
     id="stop48-7"
     style="stop-color:#FFFFFF"
     offset="0.31" /><stop
     id="stop50-2"
     style="stop-color:#727272"
     offset="0.93" /><midPointStop
     id="midPointStop52-26"
     style="stop-color:#CBCBCB"
     offset="0" /><midPointStop
     id="midPointStop54-1"
     style="stop-color:#CBCBCB"
     offset="0.5" /><midPointStop
     id="midPointStop56-0"
     style="stop-color:#FFFFFF"
     offset="0.31" /><midPointStop
     id="midPointStop58-6"
     style="stop-color:#FFFFFF"
     offset="0.5" /><midPointStop
     id="midPointStop60-1"
     style="stop-color:#727272"
     offset="0.93" /></linearGradient><linearGradient
   y2="90.278801"
   x2="151.09061"
   y1="90.278801"
   x1="132.25729"
   gradientTransform="matrix(0.90000001,0,0,0.90000001,105.18088,126.82392)"
   gradientUnits="userSpaceOnUse"
   id="linearGradient3594"
   xlink:href="#XMLID_3_-17"
   inkscape:collect="always" /><linearGradient
   y2="90.278801"
   x2="151.09061"
   y1="90.278801"
   x1="132.25729"
   gradientTransform="matrix(0.90000001,0,0,0.90000001,127.09667,133.41346)"
   gradientUnits="userSpaceOnUse"
   id="linearGradient3594-5"
   xlink:href="#XMLID_3_-17-9"
   inkscape:collect="always" /><linearGradient
   gradientTransform="matrix(0.9,0,0,0.9,5.6225,10.075)"
   y2="90.278801"
   x2="151.09061"
   y1="90.278801"
   x1="132.25729"
   gradientUnits="userSpaceOnUse"
   id="XMLID_3_-17-9"><stop
     id="stop46-2-4"
     style="stop-color:#CBCBCB"
     offset="0" /><stop
     id="stop48-7-9"
     style="stop-color:#FFFFFF"
     offset="0.31" /><stop
     id="stop50-2-0"
     style="stop-color:#727272"
     offset="0.93" /><midPointStop
     id="midPointStop52-26-9"
     style="stop-color:#CBCBCB"
     offset="0" /><midPointStop
     id="midPointStop54-1-1"
     style="stop-color:#CBCBCB"
     offset="0.5" /><midPointStop
     id="midPointStop56-0-7"
     style="stop-color:#FFFFFF"
     offset="0.31" /><midPointStop
     id="midPointStop58-6-7"
     style="stop-color:#FFFFFF"
     offset="0.5" /><midPointStop
     id="midPointStop60-1-1"
     style="stop-color:#727272"
     offset="0.93" /></linearGradient><linearGradient
   y2="90.278801"
   x2="151.09061"
   y1="90.278801"
   x1="132.25729"
   gradientTransform="matrix(0.39456008,0,0,0.39456008,221.58439,75.513483)"
   gradientUnits="userSpaceOnUse"
   id="linearGradient3646"
   xlink:href="#XMLID_3_-17-9"
   inkscape:collect="always" /><linearGradient
   y2="90.278801"
   x2="151.09061"
   y1="90.278801"
   x1="132.25729"
   gradientTransform="matrix(0.39456008,0,0,0.39456008,221.58439,75.513483)"
   gradientUnits="userSpaceOnUse"
   id="linearGradient3646-7"
   xlink:href="#XMLID_3_-17-9-1"
   inkscape:collect="always" /><linearGradient
   gradientTransform="matrix(0.9,0,0,0.9,5.6225,10.075)"
   y2="90.278801"
   x2="151.09061"
   y1="90.278801"
   x1="132.25729"
   gradientUnits="userSpaceOnUse"
   id="XMLID_3_-17-9-1"><stop
     id="stop46-2-4-7"
     style="stop-color:#CBCBCB"
     offset="0" /><stop
     id="stop48-7-9-2"
     style="stop-color:#FFFFFF"
     offset="0.31" /><stop
     id="stop50-2-0-7"
     style="stop-color:#727272"
     offset="0.93" /><midPointStop
     id="midPointStop52-26-9-2"
     style="stop-color:#CBCBCB"
     offset="0" /><midPointStop
     id="midPointStop54-1-1-2"
     style="stop-color:#CBCBCB"
     offset="0.5" /><midPointStop
     id="midPointStop56-0-7-6"
     style="stop-color:#FFFFFF"
     offset="0.31" /><midPointStop
     id="midPointStop58-6-7-1"
     style="stop-color:#FFFFFF"
     offset="0.5" /><midPointStop
     id="midPointStop60-1-1-0"
     style="stop-color:#727272"
     offset="0.93" /></linearGradient><linearGradient
   y2="90.278801"
   x2="151.09061"
   y1="90.278801"
   x1="132.25729"
   gradientTransform="matrix(0.39456009,0,0,0.39456009,206.02847,180.02326)"
   gradientUnits="userSpaceOnUse"
   id="linearGradient3081"
   xlink:href="#XMLID_3_-17-9-1"
   inkscape:collect="always" /><linearGradient
   y2="90.278801"
   x2="151.09061"
   y1="90.278801"
   x1="132.25729"
   gradientTransform="matrix(0.39456009,0,0,0.39456009,206.02847,180.02326)"
   gradientUnits="userSpaceOnUse"
   id="linearGradient3081-1"
   xlink:href="#XMLID_3_-17-9-1-5"
   inkscape:collect="always" /><linearGradient
   gradientTransform="matrix(0.9,0,0,0.9,5.6225,10.075)"
   y2="90.278801"
   x2="151.09061"
   y1="90.278801"
   x1="132.25729"
   gradientUnits="userSpaceOnUse"
   id="XMLID_3_-17-9-1-5"><stop
     id="stop46-2-4-7-9"
     style="stop-color:#CBCBCB"
     offset="0" /><stop
     id="stop48-7-9-2-4"
     style="stop-color:#FFFFFF"
     offset="0.31" /><stop
     id="stop50-2-0-7-9"
     style="stop-color:#727272"
     offset="0.93" /><midPointStop
     id="midPointStop52-26-9-2-0"
     style="stop-color:#CBCBCB"
     offset="0" /><midPointStop
     id="midPointStop54-1-1-2-9"
     style="stop-color:#CBCBCB"
     offset="0.5" /><midPointStop
     id="midPointStop56-0-7-6-1"
     style="stop-color:#FFFFFF"
     offset="0.31" /><midPointStop
     id="midPointStop58-6-7-1-7"
     style="stop-color:#FFFFFF"
     offset="0.5" /><midPointStop
     id="midPointStop60-1-1-0-7"
     style="stop-color:#727272"
     offset="0.93" /></linearGradient><linearGradient
   y2="90.278801"
   x2="151.09061"
   y1="90.278801"
   x1="132.25729"
   gradientTransform="matrix(0.3945601,0,0,0.3945601,192.29407,180.02325)"
   gradientUnits="userSpaceOnUse"
   id="linearGradient3133"
   xlink:href="#XMLID_3_-17-9-1-5"
   inkscape:collect="always" /><linearGradient
   inkscape:collect="always"
   xlink:href="#XMLID_3_-17-9"
   id="linearGradient3107"
   gradientUnits="userSpaceOnUse"
   gradientTransform="matrix(0.39456008,0,0,0.39456008,221.58439,75.513483)"
   x1="132.25729"
   y1="90.278801"
   x2="151.09061"
   y2="90.278801" /><linearGradient
   inkscape:collect="always"
   xlink:href="#XMLID_3_-17-9-1"
   id="linearGradient3109"
   gradientUnits="userSpaceOnUse"
   gradientTransform="matrix(0.39456009,0,0,0.39456009,206.02847,180.02326)"
   x1="132.25729"
   y1="90.278801"
   x2="151.09061"
   y2="90.278801" /><linearGradient
   inkscape:collect="always"
   xlink:href="#XMLID_3_-17-9-1-5"
   id="linearGradient3111"
   gradientUnits="userSpaceOnUse"
   gradientTransform="matrix(0.3945601,0,0,0.3945601,192.29407,180.02325)"
   x1="132.25729"
   y1="90.278801"
   x2="151.09061"
   y2="90.278801" /></defs><sodipodi:namedview
   pagecolor="#ffffff"
   bordercolor="#666666"
   borderopacity="1"
   objecttolerance="10"
   gridtolerance="10"
   guidetolerance="10"
   inkscape:pageopacity="0"
   inkscape:pageshadow="2"
   inkscape:window-width="1280"
   inkscape:window-height="996"
   id="namedview93"
   showgrid="false"
   inkscape:zoom="1.6882807"
   inkscape:cx="177.09531"
   inkscape:cy="-104.76987"
   inkscape:window-x="0"
   inkscape:window-y="0"
   inkscape:window-maximized="1"
   inkscape:current-layer="svg2" />
	












<rect
   style="fill:none;stroke:none"
   id="rect3629"
   width="184.25197"
   height="8.06353"
   x="128.7285"
   y="94.626297" />





<g
   id="g3086"
   transform="translate(-44.927029,0)"><path
     id="path9-7-7-2-5"
     d="m 278.03227,90.280802 c -0.10925,-0.0165 -0.2165,0.0228 -0.3125,0.0937 -0.32,0.199 -0.4955,0.548 -0.8125,0.75 -0.182,0.155 -0.2175,0.443 -0.0625,0.625 0.038,0.045 0.075,0.0687 0.125,0.0937 -0.062,0.123 -0.0358,0.28225 0.0312,0.40625 -0.104,0.1 -0.20025,0.1905 -0.28125,0.3125 -0.124,0.188 -0.0772,0.4255 0.0937,0.5625 -0.117,0.197 -0.068,0.46275 0.125,0.59375 -0.135,0.158 -0.267,0.32 -0.375,0.5 -0.112,0.204 -0.0418,0.47475 0.15625,0.59375 -0.032,0.144 0.011,0.29625 0.125,0.40625 0.022,0.021 0.0385,0.0162 0.0625,0.0312 -0.114,0.149 -0.20925,0.313 -0.28125,0.5 -0.049,0.176 0.0203,0.36375 0.15625,0.46875 -0.073,0.09 -0.15175,0.154 -0.21875,0.25 -0.138,0.192 -0.10225,0.486 0.0937,0.625 0.061,0.043 0.14975,0.0545 0.21875,0.0625 -0.066,0.099 -0.13675,0.19525 -0.21875,0.28125 -0.149,0.186 -0.1265,0.44575 0.0625,0.59375 0.028,0.023 0.0627,0.0475 0.0937,0.0625 -0.053,0.086 -0.10225,0.165 -0.15625,0.25 -0.086,0.161 -0.0807,0.37 0.0312,0.5 -0.15,0.179 -0.1135,0.43775 0.0625,0.59375 0.01,0.009 0.0203,0.0232 0.0312,0.0312 -0.075,0.093 -0.14675,0.155 -0.21875,0.25 -0.132,0.199 -0.074,0.492998 0.125,0.624998 0.021,0.014 0.0405,0.0212 0.0625,0.0312 -0.041,0.156 -0.003,0.3265 0.125,0.4375 0.009,0.008 0.0213,-0.007 0.0312,0 -0.182,0.155 -0.2175,0.443 -0.0625,0.625 0.038,0.045 0.075,0.0687 0.125,0.0937 -0.062,0.123 -0.0358,0.28225 0.0312,0.40625 -0.104,0.1 -0.20025,0.1905 -0.28125,0.3125 -0.124,0.188 -0.0772,0.45575 0.0937,0.59375 -0.117,0.197 -0.068,0.4315 0.125,0.5625 -0.135,0.158 -0.267,0.32 -0.375,0.5 -0.112,0.204 -0.0418,0.47475 0.15625,0.59375 -0.032,0.144 0.011,0.29625 0.125,0.40625 0.022,0.021 0.0385,0.0162 0.0625,0.0312 -0.114,0.149 -0.20925,0.313 -0.28125,0.5 -0.049,0.176 0.0203,0.36375 0.15625,0.46875 -0.073,0.09 -0.15175,0.18525 -0.21875,0.28125 -0.138,0.192 -0.10225,0.45475 0.0937,0.59375 0.061,0.043 0.14975,0.0545 0.21875,0.0625 -0.066,0.099 -0.13675,0.19525 -0.21875,0.28125 -0.149,0.186 -0.1265,0.477 0.0625,0.625 0.028,0.023 0.0627,0.0173 0.0937,0.0312 -0.053,0.087 -0.10225,0.165 -0.15625,0.25 -0.086,0.161 -0.0807,0.369 0.0312,0.5 -0.15,0.179 -0.1135,0.43775 0.0625,0.59375 0.01,0.009 0.0203,0.0222 0.0312,0.0312 -0.075,0.092 -0.14675,0.18625 -0.21875,0.28125 -0.132,0.199 -0.10525,0.46175 0.0937,0.59375 0.021,0.014 0.0718,0.0212 0.0937,0.0312 -0.041,0.156 -0.003,0.3265 0.125,0.4375 -10e-4,8.7e-4 10e-4,0.0302 0,0.0312 -0.182,0.156 -0.18625,0.41175 -0.0312,0.59375 0.038,0.046 0.075,0.0687 0.125,0.0937 -0.062,0.123 -0.067,0.28225 0,0.40625 -0.104,0.1 -0.20025,0.22175 -0.28125,0.34375 -0.124,0.188 -0.0772,0.4245 0.0937,0.5625 -0.117,0.197 -0.0368,0.4315 0.15625,0.5625 0.005,0.003 -0.005,0.0282 0,0.0312 -0.135,0.158 -0.267,0.32 -0.375,0.5 -0.112,0.204 -0.0418,0.4435 0.15625,0.5625 -0.032,0.144 0.011,0.29625 0.125,0.40625 0.022,0.021 0.0385,0.0475 0.0625,0.0625 -0.0849,0.11102 -0.1543,0.21405 -0.21875,0.34375 l 1.5625,0 c -0.0143,-0.0999 -0.0731,-0.17919 -0.15625,-0.25 -0.022,-0.019 -0.0687,-0.0173 -0.0937,-0.0312 0.054,-0.053 0.1285,-0.10725 0.1875,-0.15625 0.186,-0.145 0.2075,-0.436 0.0625,-0.625 -0.035,-0.045 -0.078,-0.0667 -0.125,-0.0937 0.167,-0.137 0.21575,-0.3765 0.0937,-0.5625 -0.037,-0.058 -0.069,-0.12425 -0.125,-0.15625 0.142,-0.17 0.12675,-0.4025 -0.0312,-0.5625 -0.022,-0.022 -0.0677,-0.0465 -0.0937,-0.0625 0.068,-0.063 0.15275,-0.1225 0.21875,-0.1875 0.167,-0.142 0.1765,-0.3835 0.0625,-0.5625 0.183,-0.125 0.26525,-0.3645 0.15625,-0.5625 -0.041,-0.073 -0.1185,-0.11925 -0.1875,-0.15625 0.105,-0.172 0.0745,-0.39425 -0.0625,-0.53125 0.022,-0.017 0.0385,-0.0152 0.0625,-0.0312 0.192,-0.142 0.23575,-0.433 0.0937,-0.625 -0.064,-0.087 -0.152,-0.13425 -0.25,-0.15625 0.026,-0.141 -0.012,-0.30125 -0.125,-0.40625 -0.038,-0.035 -0.081,-0.0445 -0.125,-0.0625 0.128,-0.172 0.265,-0.34525 0.375,-0.53125 0.102,-0.166 0.0605,-0.362 -0.0625,-0.5 0.098,-0.177 0.0702,-0.4285 -0.0937,-0.5625 -0.016,-0.013 -0.0445,0.01 -0.0625,0 0.067,-0.079 0.14075,-0.183 0.21875,-0.25 0.182,-0.148 0.2135,-0.40875 0.0625,-0.59375 -0.044,-0.054 -0.0952,-0.098 -0.15625,-0.125 0.091,-0.148 0.0817,-0.32275 -0.0312,-0.46875 -0.066,-0.084 -0.155,-0.13625 -0.25,-0.15625 0.107,-0.121 0.2045,-0.255 0.3125,-0.375 0.155,-0.179 0.15075,-0.43875 -0.0312,-0.59375 -0.022,-0.019 -0.0375,-0.0485 -0.0625,-0.0625 0.054,-0.053 0.0973,-0.10725 0.15625,-0.15625 0.186,-0.145 0.2075,-0.40475 0.0625,-0.59375 -0.035,-0.045 -0.078,-0.0667 -0.125,-0.0937 0.167,-0.136 0.21575,-0.3775 0.0937,-0.5625 -0.037,-0.058 -0.069,-0.12325 -0.125,-0.15625 0.142,-0.17 0.12675,-0.4025 -0.0312,-0.5625 -0.022,-0.022 -0.0365,-0.0465 -0.0625,-0.0625 0.068,-0.063 0.1215,-0.1235 0.1875,-0.1875 0.167,-0.142 0.1765,-0.3835 0.0625,-0.5625 0.183,-0.125 0.26525,-0.3645 0.15625,-0.5625 -0.041,-0.072 -0.1185,-0.11925 -0.1875,-0.15625 0.105,-0.172 0.0745,-0.39425 -0.0625,-0.53125 0.022,-0.018 0.0385,-0.0465 0.0625,-0.0625 0.192,-0.142 0.23575,-0.40175 0.0937,-0.59375 -0.064,-0.087 -0.152,-0.13425 -0.25,-0.156248 0.026,-0.141 -0.012,-0.30125 -0.125,-0.40625 -0.038,-0.035 -0.081,-0.0435 -0.125,-0.0625 0.128,-0.172 0.265,-0.34525 0.375,-0.53125 0.102,-0.166 0.0605,-0.39325 -0.0625,-0.53125 0.098,-0.177 0.0702,-0.39625 -0.0937,-0.53125 -0.016,-0.014 -0.0445,-0.0203 -0.0625,-0.0312 0.067,-0.079 0.14075,-0.15175 0.21875,-0.21875 0.182,-0.148 0.2135,-0.40875 0.0625,-0.59375 -0.044,-0.054 -0.0952,-0.098 -0.15625,-0.125 0.091,-0.149 0.0817,-0.353 -0.0312,-0.5 -0.066,-0.084 -0.155,-0.105 -0.25,-0.125 0.107,-0.121 0.2045,-0.255 0.3125,-0.375 0.155,-0.179 0.15075,-0.43875 -0.0312,-0.59375 -0.022,-0.019 -0.0375,-0.0485 -0.0625,-0.0625 0.054,-0.053 0.0973,-0.10725 0.15625,-0.15625 0.186,-0.145 0.2075,-0.40475 0.0625,-0.59375 -0.035,-0.045 -0.078,-0.099 -0.125,-0.125 0.167,-0.137 0.21575,-0.3765 0.0937,-0.5625 -0.037,-0.058 -0.069,-0.093 -0.125,-0.125 0.142,-0.17 0.12675,-0.43275 -0.0312,-0.59375 -0.022,-0.022 -0.0365,-0.0152 -0.0625,-0.0312 0.068,-0.063 0.1215,-0.1235 0.1875,-0.1875 0.167,-0.142 0.20775,-0.3835 0.0937,-0.5625 0.183,-0.125 0.234,-0.3645 0.125,-0.5625 -0.041,-0.072 -0.1185,-0.11925 -0.1875,-0.15625 0.105,-0.172 0.0745,-0.39425 -0.0625,-0.53125 0.022,-0.018 0.0385,-0.0465 0.0625,-0.0625 0.192,-0.142 0.23575,-0.40175 0.0937,-0.59375 -0.071,-0.096 -0.172,-0.171 -0.28125,-0.1875 z"
     style="fill:#bfa794;stroke:#000000;stroke-width:0.44999999;overflow:visible"
     inkscape:connector-curvature="0" /><path
     id="path5"
     d="m 255.28125,73.34375 c -0.0545,0.017 -0.10825,0.04775 -0.15625,0.09375 -0.321,0.259 -0.52675,0.737 -0.84375,1 -0.183,0.202 -0.18625,0.54425 -0.0312,0.78125 0.038,0.06 0.075,0.12225 0.125,0.15625 -0.062,0.16 -0.067,0.339 0,0.5 -0.104,0.13 -0.20025,0.2795 -0.28125,0.4375 -0.124,0.244 -0.0782,0.53875 0.0937,0.71875 -0.117,0.256 -0.068,0.579 0.125,0.75 0.005,0.004 0.0263,0.02725 0.0312,0.03125 -0.136,0.206 -0.268,0.42125 -0.375,0.65625 -0.112,0.266 -0.0418,0.595 0.15625,0.75 -0.032,0.187 0.01,0.38825 0.125,0.53125 0.021,0.026 0.0375,0.0425 0.0625,0.0625 -0.113,0.194 -0.20925,0.381 -0.28125,0.625 -0.049,0.229 0.0203,0.45775 0.15625,0.59375 -0.073,0.118 -0.15175,0.25 -0.21875,0.375 -0.138,0.25 -0.10125,0.60125 0.0937,0.78125 0.061,0.057 0.1175,0.08375 0.1875,0.09375 -0.066,0.129 -0.13575,0.23275 -0.21875,0.34375 -0.148,0.242 -0.1265,0.6185 0.0625,0.8125 0.029,0.03 0.0617,0.0435 0.0937,0.0625 -0.054,0.113 -0.10225,0.2015 -0.15625,0.3125 -0.085,0.209 -0.0495,0.48525 0.0625,0.65625 -0.149,0.233 -0.14475,0.57825 0.0312,0.78125 0.01,0.012 0.0203,-0.011 0.0312,0 -0.075,0.121 -0.14675,0.252 -0.21875,0.375 -0.131,0.259 -0.074,0.61025 0.125,0.78125 0.021,0.018 0.0405,0.01825 0.0625,0.03125 -0.042,0.203 -0.004,0.44875 0.125,0.59375 0.009,0.01 0.0223,-0.008 0.0312,0 -0.183,0.202 -0.18625,0.5755 -0.0312,0.8125 0.038,0.059 0.075,0.092 0.125,0.125 -0.062,0.16 -0.067,0.37025 0,0.53125 -0.104,0.13 -0.20025,0.24725 -0.28125,0.40625 -0.124,0.244 -0.0782,0.57 0.0937,0.75 -0.117,0.256 -0.068,0.579 0.125,0.75 0.005,0.004 0.0263,-0.004 0.0312,0 -0.136,0.206 -0.268,0.42125 -0.375,0.65625 -0.112,0.266 -0.0418,0.595 0.15625,0.75 -0.032,0.187 0.01,0.38925 0.125,0.53125 0.021,0.026 0.0375,0.0435 0.0625,0.0625 -0.113,0.194 -0.20925,0.41225 -0.28125,0.65625 -0.049,0.229 0.0203,0.45775 0.15625,0.59375 -0.073,0.118 -0.15175,0.21875 -0.21875,0.34375 -0.138,0.25 -0.10125,0.60125 0.0937,0.78125 0.061,0.057 0.1175,0.08275 0.1875,0.09375 -0.066,0.128 -0.13575,0.264 -0.21875,0.375 -0.148,0.242 -0.1265,0.58825 0.0625,0.78125 0.029,0.03 0.0617,0.0435 0.0937,0.0625 -0.054,0.113 -0.10225,0.23375 -0.15625,0.34375 -0.085,0.209 -0.0495,0.454 0.0625,0.625 -0.149,0.233 -0.14475,0.57925 0.0312,0.78125 0.01,0.012 0.0203,0.02125 0.0312,0.03125 -0.075,0.12 -0.14675,0.252 -0.21875,0.375 -0.131,0.259 -0.074,0.60925 0.125,0.78125 0.021,0.018 0.0405,0.01825 0.0625,0.03125 -0.042,0.203 -0.004,0.4175 0.125,0.5625 0.009,0.01 0.0223,0.02325 0.0312,0.03125 -0.183,0.202 -0.18625,0.5755 -0.0312,0.8125 0.038,0.059 0.075,0.091 0.125,0.125 -0.062,0.16 -0.067,0.339 0,0.5 -0.104,0.13 -0.20025,0.2795 -0.28125,0.4375 -0.124,0.244 -0.0782,0.57 0.0937,0.75 -0.117,0.256 -0.068,0.579 0.125,0.75 0.005,0.004 0.0263,-0.004 0.0312,0 -0.136,0.206 -0.268,0.42125 -0.375,0.65625 -0.112,0.266 -0.0418,0.595 0.15625,0.75 -0.032,0.187 0.01,0.38825 0.125,0.53125 0.021,0.026 0.0375,0.0425 0.0625,0.0625 -0.113,0.194 -0.20925,0.41225 -0.28125,0.65625 -0.049,0.229 0.0203,0.45775 0.15625,0.59375 -0.073,0.118 -0.15175,0.21875 -0.21875,0.34375 -0.138,0.25 -0.10125,0.60125 0.0937,0.78125 0.061,0.057 0.1175,0.0837 0.1875,0.0937 -0.066,0.128 -0.13575,0.264 -0.21875,0.375 -0.148,0.242 -0.1265,0.58725 0.0625,0.78125 0.029,0.03 0.0617,0.0435 0.0937,0.0625 -0.054,0.113 -0.10225,0.23375 -0.15625,0.34375 -0.085,0.209 -0.0495,0.454 0.0625,0.625 -0.149,0.233 -0.14475,0.57825 0.0312,0.78125 0.01,0.012 0.0203,0.0203 0.0312,0.0312 -0.075,0.12 -0.14675,0.22075 -0.21875,0.34375 -0.131,0.259 -0.074,0.6405 0.125,0.8125 0.021,0.018 0.0405,0.0182 0.0625,0.0312 -0.042,0.203 -0.004,0.4175 0.125,0.5625 0.009,0.01 0.0223,0.0222 0.0312,0.0312 -0.183,0.202 -0.18625,0.54525 -0.0312,0.78125 0.038,0.06 0.075,0.12325 0.125,0.15625 -0.062,0.16 -0.067,0.338 0,0.5 -0.104,0.13 -0.20025,0.2795 -0.28125,0.4375 -0.124,0.244 -0.0782,0.53975 0.0937,0.71875 -0.117,0.256 -0.068,0.61125 0.125,0.78125 0.005,0.004 0.0263,-0.005 0.0312,0 -0.136,0.206 -0.268,0.42125 -0.375,0.65625 -0.112,0.266 -0.0418,0.595 0.15625,0.75 -0.032,0.187 0.01,0.38825 0.125,0.53125 0.021,0.027 0.0375,0.0435 0.0625,0.0625 -0.113,0.194 -0.20925,0.381 -0.28125,0.625 -0.049,0.229 0.0203,0.489 0.15625,0.625 -0.073,0.118 -0.15175,0.21875 -0.21875,0.34375 -0.138,0.25 -0.10125,0.60125 0.0937,0.78125 0.061,0.057 0.1175,0.0828 0.1875,0.0937 -0.066,0.128 -0.13575,0.23275 -0.21875,0.34375 -0.148,0.242 -0.1265,0.6195 0.0625,0.8125 0.029,0.03 0.0617,0.0435 0.0937,0.0625 -0.054,0.113 -0.10225,0.23375 -0.15625,0.34375 -0.085,0.209 -0.0495,0.454 0.0625,0.625 -0.149,0.232 -0.14475,0.57925 0.0312,0.78125 0.01,0.013 0.0203,0.0212 0.0312,0.0312 -0.075,0.12 -0.14675,0.22075 -0.21875,0.34375 -0.131,0.259 -0.074,0.60925 0.125,0.78125 0.021,0.018 0.0405,0.0182 0.0625,0.0312 -0.042,0.203 -0.004,0.44875 0.125,0.59375 0.009,0.01 0.0223,-0.008 0.0312,0 -0.183,0.202 -0.18625,0.5755 -0.0312,0.8125 0.038,0.059 0.075,0.091 0.125,0.125 -0.062,0.16 -0.067,0.37025 0,0.53125 -0.104,0.13 -0.20025,0.24725 -0.28125,0.40625 -0.124,0.244 -0.0782,0.57 0.0937,0.75 -0.117,0.256 -0.068,0.579 0.125,0.75 0.005,0.004 0.0263,0.0273 0.0312,0.0312 -0.136,0.206 -0.268,0.39 -0.375,0.625 -0.112,0.266 -0.0418,0.595 0.15625,0.75 -0.032,0.187 0.01,0.4195 0.125,0.5625 0.021,0.026 0.0375,0.0112 0.0625,0.0312 -0.113,0.194 -0.20925,0.41225 -0.28125,0.65625 -0.049,0.229 0.0203,0.45775 0.15625,0.59375 -0.073,0.117 -0.15175,0.25 -0.21875,0.375 -0.138,0.25 -0.10125,0.60125 0.0937,0.78125 0.061,0.057 0.1175,0.0828 0.1875,0.0937 -0.066,0.129 -0.13575,0.23275 -0.21875,0.34375 -0.148,0.241 -0.1265,0.6185 0.0625,0.8125 0.029,0.03 0.0617,0.0435 0.0937,0.0625 -0.054,0.113 -0.10225,0.2025 -0.15625,0.3125 -0.085,0.209 -0.0495,0.454 0.0625,0.625 -0.149,0.233 -0.14475,0.57825 0.0312,0.78125 0.01,0.012 0.0203,0.0203 0.0312,0.0312 -0.075,0.12 -0.14675,0.252 -0.21875,0.375 -0.146,0.27 -0.074,0.61025 0.125,0.78125 0.021,0.018 0.0405,0.0182 0.0625,0.0312 -0.042,0.203 -0.004,0.44875 0.125,0.59375 0.009,0.01 0.0223,-0.009 0.0312,0 -0.002,0.002 0.002,0.0302 0,0.0312 -0.183,0.202 -0.2175,0.54425 -0.0625,0.78125 0.038,0.06 0.075,0.092 0.125,0.125 -0.062,0.16 -0.0358,0.37025 0.0312,0.53125 -0.0383,0.0478 -0.0578,0.10547 -0.0937,0.15625 -0.0617,0.0872 -0.13631,0.15014 -0.1875,0.25 -0.124,0.244 -0.0782,0.571 0.0937,0.75 -0.009,0.02 -0.0242,0.0405 -0.0312,0.0625 l 0.21875,0 c -0.0213,0.12877 -0.0505,0.25363 0,0.375 -0.104,0.13 -0.20025,0.2795 -0.28125,0.4375 -0.124,0.244 -0.0782,0.57 0.0937,0.75 -0.117,0.256 -0.068,0.579 0.125,0.75 0.005,0.004 0.0263,-0.004 0.0312,0 -0.136,0.206 -0.268,0.42125 -0.375,0.65625 -0.112,0.266 -0.0418,0.595 0.15625,0.75 -0.032,0.187 0.01,0.38825 0.125,0.53125 0.021,0.026 0.0375,0.0425 0.0625,0.0625 -0.113,0.194 -0.20925,0.41225 -0.28125,0.65625 -0.049,0.229 0.0203,0.45775 0.15625,0.59375 -0.073,0.118 -0.15175,0.21875 -0.21875,0.34375 -0.138,0.25 -0.10125,0.60125 0.0937,0.78125 0.061,0.057 0.1175,0.0838 0.1875,0.0937 -0.066,0.129 -0.13575,0.264 -0.21875,0.375 -0.148,0.242 -0.1265,0.58725 0.0625,0.78125 0.029,0.03 0.0617,0.0435 0.0937,0.0625 -0.054,0.113 -0.10225,0.23275 -0.15625,0.34375 -0.085,0.209 -0.0495,0.454 0.0625,0.625 -0.149,0.233 -0.14475,0.57825 0.0312,0.78125 0.01,0.012 0.0203,0.0203 0.0312,0.0312 -0.075,0.121 -0.14675,0.252 -0.21875,0.375 -0.131,0.259 -0.074,0.61025 0.125,0.78125 0.021,0.018 0.0405,0.0182 0.0625,0.0312 -0.042,0.203 -0.004,0.4175 0.125,0.5625 0.009,0.01 0.0223,0.0232 0.0312,0.0312 -0.183,0.202 -0.18625,0.54425 -0.0312,0.78125 0.038,0.059 0.075,0.12325 0.125,0.15625 -0.062,0.16 -0.067,0.339 0,0.5 -0.104,0.13 -0.20025,0.2785 -0.28125,0.4375 -0.124,0.244 -0.0782,0.53875 0.0937,0.71875 -0.117,0.256 -0.068,0.61025 0.125,0.78125 0.005,0.004 0.0263,-0.004 0.0312,0 -0.136,0.206 -0.268,0.42125 -0.375,0.65625 -0.112,0.266 -0.0418,0.595 0.15625,0.75 -0.032,0.187 0.01,0.38925 0.125,0.53125 0.021,0.026 0.0375,0.0435 0.0625,0.0625 -0.113,0.194 -0.20925,0.381 -0.28125,0.625 -0.049,0.229 0.0203,0.489 0.15625,0.625 -0.073,0.118 -0.15175,0.21875 -0.21875,0.34375 -0.138,0.25 -0.10125,0.60125 0.0937,0.78125 0.061,0.057 0.1175,0.0828 0.1875,0.0937 -0.066,0.128 -0.13575,0.264 -0.21875,0.375 -0.148,0.242 -0.1265,0.58825 0.0625,0.78125 0.029,0.03 0.0617,0.0435 0.0937,0.0625 -0.054,0.113 -0.10225,0.23375 -0.15625,0.34375 -0.085,0.209 -0.0495,0.454 0.0625,0.625 -0.149,0.233 -0.14475,0.57925 0.0312,0.78125 0.01,0.012 0.0203,0.0213 0.0312,0.0312 -0.075,0.12 -0.14675,0.22075 -0.21875,0.34375 -0.131,0.259 -0.074,0.60925 0.125,0.78125 0.021,0.018 0.0405,0.0182 0.0625,0.0312 -0.042,0.203 -0.004,0.44875 0.125,0.59375 0.009,0.01 0.0223,-0.008 0.0312,0 -0.002,0.002 0.002,0.0292 0,0.0312 -0.183,0.202 -0.18625,0.54425 -0.0312,0.78125 0.038,0.059 0.075,0.091 0.125,0.125 -0.062,0.16 -0.067,0.37025 0,0.53125 -0.104,0.13 -0.20025,0.24825 -0.28125,0.40625 -0.124,0.244 -0.0782,0.57 0.0937,0.75 -0.117,0.256 -0.068,0.579 0.125,0.75 0.005,0.004 0.0263,0.0273 0.0312,0.0312 -0.136,0.206 -0.268,0.42125 -0.375,0.65625 -0.112,0.266 -0.0418,0.595 0.15625,0.75 -0.032,0.187 0.01,0.38825 0.125,0.53125 0.021,0.026 0.0375,0.0425 0.0625,0.0625 -0.113,0.194 -0.20925,0.381 -0.28125,0.625 -0.049,0.229 0.0203,0.45775 0.15625,0.59375 -0.073,0.118 -0.15175,0.25 -0.21875,0.375 -0.138,0.25 -0.10125,0.60125 0.0937,0.78125 0.061,0.057 0.1175,0.0838 0.1875,0.0937 -0.066,0.128 -0.13575,0.23275 -0.21875,0.34375 -0.148,0.242 -0.1265,0.6185 0.0625,0.8125 0.029,0.03 0.0617,0.0435 0.0937,0.0625 -0.054,0.113 -0.10225,0.2025 -0.15625,0.3125 -0.085,0.209 -0.0495,0.454 0.0625,0.625 -0.149,0.233 -0.14475,0.57825 0.0312,0.78125 0.01,0.012 0.0203,0.0203 0.0312,0.0312 -0.075,0.12 -0.14675,0.252 -0.21875,0.375 -0.131,0.259 -0.074,0.60925 0.125,0.78125 0.021,0.018 0.0405,0.0182 0.0625,0.0312 -0.042,0.203 -0.004,0.4175 0.125,0.5625 0.009,0.01 0.0223,0.0223 0.0312,0.0312 -0.183,0.202 -0.18625,0.5765 -0.0312,0.8125 0.038,0.06 0.075,0.092 0.125,0.125 -0.062,0.16 -0.067,0.338 0,0.5 -0.104,0.13 -0.20025,0.2795 -0.28125,0.4375 -0.124,0.244 -0.0782,0.571 0.0937,0.75 -0.117,0.256 -0.068,0.58 0.125,0.75 0.005,0.004 0.0263,-0.005 0.0312,0 -0.136,0.206 -0.268,0.42125 -0.375,0.65625 -0.112,0.266 -0.0418,0.595 0.15625,0.75 -0.032,0.187 0.01,0.38825 0.125,0.53125 0.021,0.027 0.0375,0.0435 0.0625,0.0625 -0.113,0.194 -0.20925,0.41225 -0.28125,0.65625 -0.049,0.229 0.0203,0.45775 0.15625,0.59375 -0.073,0.118 -0.15175,0.21875 -0.21875,0.34375 -0.138,0.25 -0.10125,0.60125 0.0937,0.78125 0.061,0.057 0.1175,0.0828 0.1875,0.0937 -0.066,0.128 -0.13575,0.264 -0.21875,0.375 -0.148,0.242 -0.1265,0.58825 0.0625,0.78125 0.029,0.03 0.0617,0.0435 0.0937,0.0625 -0.054,0.113 -0.10225,0.23375 -0.15625,0.34375 -0.085,0.209 -0.0495,0.454 0.0625,0.625 -0.149,0.232 -0.14475,0.57925 0.0312,0.78125 0.01,0.013 0.0203,0.0213 0.0312,0.0312 -0.075,0.12 -0.14675,0.252 -0.21875,0.375 -0.131,0.259 -0.074,0.60925 0.125,0.78125 0.021,0.018 0.0405,0.0182 0.0625,0.0312 -0.042,0.203 -0.004,0.4175 0.125,0.5625 0.009,0.01 0.0223,0.0232 0.0312,0.0312 -0.183,0.202 -0.18625,0.54425 -0.0312,0.78125 0.038,0.059 0.075,0.12225 0.125,0.15625 -0.062,0.16 -0.067,0.339 0,0.5 -0.104,0.13 -0.20025,0.2785 -0.28125,0.4375 -0.124,0.244 -0.0782,0.57 0.0937,0.75 -0.117,0.256 -0.068,0.579 0.125,0.75 0.005,0.004 0.0263,-0.004 0.0312,0 -0.136,0.206 -0.268,0.42125 -0.375,0.65625 -0.112,0.266 -0.0418,0.595 0.15625,0.75 -0.032,0.187 0.01,0.38825 0.125,0.53125 0.021,0.026 0.0375,0.0425 0.0625,0.0625 -0.113,0.194 -0.20925,0.41225 -0.28125,0.65625 -0.049,0.229 0.0203,0.45775 0.15625,0.59375 -0.073,0.117 -0.15175,0.21875 -0.21875,0.34375 -0.138,0.25 -0.10125,0.60125 0.0937,0.78125 0.061,0.057 0.1175,0.0828 0.1875,0.0937 -0.066,0.129 -0.13575,0.264 -0.21875,0.375 -0.148,0.241 -0.1265,0.58725 0.0625,0.78125 0.029,0.03 0.0617,0.0435 0.0937,0.0625 -0.054,0.113 -0.10225,0.23375 -0.15625,0.34375 -0.085,0.209 -0.0495,0.454 0.0625,0.625 -0.149,0.233 -0.14475,0.57825 0.0312,0.78125 0.01,0.012 0.0203,0.0203 0.0312,0.0312 -0.075,0.12 -0.14675,0.22075 -0.21875,0.34375 -0.146,0.27 -0.074,0.6415 0.125,0.8125 0.021,0.018 0.0405,0.0182 0.0625,0.0312 -0.042,0.203 -0.004,0.4175 0.125,0.5625 0.009,0.01 0.0223,0.0223 0.0312,0.0312 -0.183,0.202 -0.2175,0.54425 -0.0625,0.78125 0.038,0.06 0.075,0.12325 0.125,0.15625 -0.062,0.16 -0.0358,0.339 0.0312,0.5 -0.104,0.13 -0.20025,0.2795 -0.28125,0.4375 -0.124,0.244 -0.0782,0.571 0.0937,0.75 -0.009,0.02 -0.0242,0.0405 -0.0312,0.0625 l 1.3125,0 c -0.005,-0.007 -0.0263,-0.0252 -0.0312,-0.0312 -0.022,-0.029 -0.0365,-0.0415 -0.0625,-0.0625 0.068,-0.082 0.1215,-0.166 0.1875,-0.25 0.167,-0.185 0.20775,-0.48575 0.0937,-0.71875 0.183,-0.164 0.234,-0.491 0.125,-0.75 -0.042,-0.094 -0.0873,-0.16975 -0.15625,-0.21875 0.105,-0.223 0.0443,-0.47725 -0.0937,-0.65625 0.022,-0.022 0.0697,-0.0728 0.0937,-0.0937 0.192,-0.184 0.2035,-0.53125 0.0625,-0.78125 -0.064,-0.114 -0.152,-0.1595 -0.25,-0.1875 0.026,-0.183 -0.012,-0.39525 -0.125,-0.53125 -0.038,-0.045 -0.081,-0.0697 -0.125,-0.0937 0.128,-0.225 0.265,-0.4455 0.375,-0.6875 0.102,-0.215 0.0605,-0.47525 -0.0625,-0.65625 0.098,-0.23 0.0702,-0.54375 -0.0937,-0.71875 -0.017,-0.018 -0.0445,-0.0172 -0.0625,-0.0312 0.067,-0.103 0.13975,-0.19325 0.21875,-0.28125 0.182,-0.193 0.2135,-0.5705 0.0625,-0.8125 -0.044,-0.07 -0.0952,-0.09 -0.15625,-0.125 0.091,-0.194 0.0807,-0.46525 -0.0312,-0.65625 -0.066,-0.109 -0.154,-0.1605 -0.25,-0.1875 0.107,-0.157 0.23475,-0.31275 0.34375,-0.46875 0.155,-0.233 0.1195,-0.6095 -0.0625,-0.8125 -0.022,-0.024 -0.0385,-0.0132 -0.0625,-0.0312 0.054,-0.069 0.0973,-0.15575 0.15625,-0.21875 0.186,-0.189 0.23875,-0.53525 0.0937,-0.78125 -0.035,-0.058 -0.079,-0.09 -0.125,-0.125 0.167,-0.178 0.1845,-0.509 0.0625,-0.75 -0.037,-0.075 -0.069,-0.11325 -0.125,-0.15625 0.142,-0.221 0.12575,-0.57225 -0.0312,-0.78125 -0.022,-0.029 -0.0365,-0.0415 -0.0625,-0.0625 0.068,-0.082 0.1215,-0.166 0.1875,-0.25 0.167,-0.185 0.20775,-0.48575 0.0937,-0.71875 0.183,-0.163 0.234,-0.491 0.125,-0.75 -0.042,-0.094 -0.0873,-0.1395 -0.15625,-0.1875 0.105,-0.224 0.0443,-0.5085 -0.0937,-0.6875 0.022,-0.023 0.0697,-0.0415 0.0937,-0.0625 0.192,-0.185 0.23475,-0.53125 0.0937,-0.78125 -0.064,-0.113 -0.18325,-0.18975 -0.28125,-0.21875 0.026,-0.183 -0.012,-0.39525 -0.125,-0.53125 -0.038,-0.045 -0.081,-0.0697 -0.125,-0.0937 0.128,-0.225 0.265,-0.4455 0.375,-0.6875 0.102,-0.215 0.0605,-0.47525 -0.0625,-0.65625 0.098,-0.231 0.0702,-0.54375 -0.0937,-0.71875 -0.017,-0.018 -0.0132,-0.0172 -0.0312,-0.0312 0.067,-0.103 0.1085,-0.19325 0.1875,-0.28125 0.182,-0.193 0.2135,-0.53925 0.0625,-0.78125 -0.044,-0.071 -0.0952,-0.12225 -0.15625,-0.15625 0.091,-0.193 0.0807,-0.46625 -0.0312,-0.65625 -0.066,-0.109 -0.154,-0.1605 -0.25,-0.1875 0.107,-0.157 0.23475,-0.31275 0.34375,-0.46875 0.155,-0.233 0.1195,-0.57825 -0.0625,-0.78125 -0.022,-0.025 -0.0385,-0.0455 -0.0625,-0.0625 0.054,-0.069 0.0973,-0.1235 0.15625,-0.1875 0.186,-0.189 0.23875,-0.5655 0.0937,-0.8125 -0.035,-0.059 -0.079,-0.09 -0.125,-0.125 0.167,-0.178 0.21575,-0.508 0.0937,-0.75 -0.037,-0.075 -0.10025,-0.11425 -0.15625,-0.15625 0.142,-0.221 0.12575,-0.57225 -0.0312,-0.78125 -0.022,-0.029 -0.0365,-0.0415 -0.0625,-0.0625 0.068,-0.082 0.1215,-0.166 0.1875,-0.25 0.167,-0.185 0.20775,-0.48575 0.0937,-0.71875 0.183,-0.164 0.234,-0.46075 0.125,-0.71875 -0.042,-0.095 -0.0873,-0.16975 -0.15625,-0.21875 0.105,-0.223 0.0755,-0.5085 -0.0625,-0.6875 0.022,-0.022 0.0385,-0.0425 0.0625,-0.0625 0.192,-0.185 0.23475,-0.53125 0.0937,-0.78125 -0.064,-0.114 -0.18325,-0.19075 -0.28125,-0.21875 0.026,-0.184 0.0192,-0.365 -0.0937,-0.5 -0.038,-0.045 -0.081,-0.0697 -0.125,-0.0937 0.128,-0.225 0.23375,-0.47675 0.34375,-0.71875 0.102,-0.215 0.0605,-0.47525 -0.0625,-0.65625 0.098,-0.23 0.0702,-0.5125 -0.0937,-0.6875 -0.017,-0.018 -0.0132,-0.0475 -0.0312,-0.0625 0.067,-0.102 0.13975,-0.19325 0.21875,-0.28125 0.182,-0.193 0.18225,-0.53925 0.0312,-0.78125 -0.044,-0.07 -0.0952,-0.12225 -0.15625,-0.15625 0.091,-0.194 0.112,-0.435 0,-0.625 -0.066,-0.109 -0.18525,-0.19075 -0.28125,-0.21875 0.107,-0.157 0.23475,-0.31275 0.34375,-0.46875 0.155,-0.232 0.1195,-0.57825 -0.0625,-0.78125 -0.022,-0.024 -0.0385,-0.0445 -0.0625,-0.0625 0.054,-0.069 0.0973,-0.1245 0.15625,-0.1875 0.186,-0.189 0.23875,-0.53525 0.0937,-0.78125 -0.035,-0.059 -0.079,-0.12125 -0.125,-0.15625 0.167,-0.178 0.21575,-0.47775 0.0937,-0.71875 -0.037,-0.076 -0.10025,-0.1455 -0.15625,-0.1875 0.142,-0.221 0.12575,-0.541 -0.0312,-0.75 -0.022,-0.029 -0.0365,-0.0415 -0.0625,-0.0625 0.068,-0.082 0.1215,-0.166 0.1875,-0.25 0.167,-0.185 0.20775,-0.48575 0.0937,-0.71875 0.183,-0.163 0.234,-0.491 0.125,-0.75 -0.042,-0.094 -0.0873,-0.16975 -0.15625,-0.21875 0.105,-0.224 0.0755,-0.5085 -0.0625,-0.6875 0.022,-0.023 0.0385,-0.0415 0.0625,-0.0625 0.192,-0.185 0.23475,-0.53125 0.0937,-0.78125 -0.064,-0.114 -0.152,-0.18975 -0.25,-0.21875 0.026,-0.183 -0.012,-0.364 -0.125,-0.5 -0.038,-0.045 -0.081,-0.0697 -0.125,-0.0937 0.128,-0.225 0.23375,-0.4455 0.34375,-0.6875 0.102,-0.215 0.0917,-0.5065 -0.0312,-0.6875 0.098,-0.231 0.039,-0.5125 -0.125,-0.6875 -0.017,-0.017 -0.0132,-0.0172 -0.0312,-0.0312 0.067,-0.103 0.13975,-0.19325 0.21875,-0.28125 0.182,-0.193 0.2135,-0.5705 0.0625,-0.8125 -0.044,-0.071 -0.1265,-0.12225 -0.1875,-0.15625 0.091,-0.193 0.112,-0.435 0,-0.625 -0.066,-0.109 -0.154,-0.1605 -0.25,-0.1875 0.107,-0.157 0.2035,-0.31275 0.3125,-0.46875 0.155,-0.233 0.1195,-0.6095 -0.0625,-0.8125 -0.022,-0.025 -0.0385,-0.0132 -0.0625,-0.0312 0.054,-0.069 0.0973,-0.15575 0.15625,-0.21875 0.186,-0.188 0.23875,-0.53425 0.0937,-0.78125 -0.035,-0.059 -0.079,-0.12125 -0.125,-0.15625 0.167,-0.178 0.21575,-0.47775 0.0937,-0.71875 -0.037,-0.075 -0.10025,-0.1445 -0.15625,-0.1875 0.142,-0.221 0.157,-0.541 0,-0.75 -0.022,-0.029 -0.0677,-0.0415 -0.0937,-0.0625 0.068,-0.082 0.15275,-0.166 0.21875,-0.25 0.167,-0.185 0.1765,-0.48575 0.0625,-0.71875 0.183,-0.164 0.234,-0.491 0.125,-0.75 -0.042,-0.094 -0.0873,-0.1385 -0.15625,-0.1875 0.105,-0.224 0.0755,-0.5095 -0.0625,-0.6875 0.022,-0.023 0.0385,-0.0728 0.0625,-0.0937 0.192,-0.185 0.23475,-0.53125 0.0937,-0.78125 -0.064,-0.114 -0.152,-0.1595 -0.25,-0.1875 0.026,-0.183 -0.012,-0.39625 -0.125,-0.53125 -0.038,-0.045 -0.081,-0.0687 -0.125,-0.0937 0.128,-0.225 0.23375,-0.4455 0.34375,-0.6875 0.102,-0.215 0.0917,-0.47525 -0.0312,-0.65625 0.098,-0.23 0.0702,-0.54375 -0.0937,-0.71875 -0.017,-0.018 -0.0445,-0.0172 -0.0625,-0.0312 0.067,-0.103 0.13975,-0.19325 0.21875,-0.28125 0.182,-0.193 0.2135,-0.5705 0.0625,-0.8125 -0.044,-0.07 -0.0952,-0.09 -0.15625,-0.125 0.091,-0.194 0.0807,-0.46525 -0.0312,-0.65625 -0.066,-0.109 -0.154,-0.1605 -0.25,-0.1875 0.107,-0.157 0.2035,-0.31275 0.3125,-0.46875 0.155,-0.232 0.15075,-0.6095 -0.0312,-0.8125 -0.022,-0.024 -0.0697,-0.0132 -0.0937,-0.0312 0.054,-0.069 0.1285,-0.15575 0.1875,-0.21875 0.186,-0.189 0.2075,-0.53525 0.0625,-0.78125 -0.035,-0.059 -0.079,-0.09 -0.125,-0.125 0.167,-0.178 0.21575,-0.509 0.0937,-0.75 -0.037,-0.075 -0.10025,-0.11425 -0.15625,-0.15625 0.142,-0.221 0.157,-0.57225 0,-0.78125 -0.022,-0.029 -0.0677,-0.0415 -0.0937,-0.0625 0.068,-0.082 0.15275,-0.166 0.21875,-0.25 0.167,-0.185 0.1765,-0.48575 0.0625,-0.71875 0.183,-0.164 0.26525,-0.491 0.15625,-0.75 -0.042,-0.094 -0.1185,-0.1385 -0.1875,-0.1875 0.0171,-0.0364 0.0214,-0.0865 0.0312,-0.125 0.008,-0.0204 0.0251,-0.0411 0.0312,-0.0625 0.002,-0.01 -0.001,-0.0212 0,-0.0312 0.0375,-0.155 0.04,-0.32313 -0.0312,-0.46875 0.16927,-0.1517 0.20185,-0.40973 0.125,-0.65625 -0.003,-0.0188 0.005,-0.0441 0,-0.0625 -0.007,-0.0152 -0.0234,-0.0175 -0.0312,-0.0312 -0.0128,-0.0387 -0.0113,-0.0896 -0.0312,-0.125 -0.0222,-0.0391 -0.0661,-0.0332 -0.0937,-0.0625 0.004,-0.009 -0.004,-0.022 0,-0.0312 0.0899,-0.218 0.0387,-0.48451 -0.0937,-0.65625 0.022,-0.022 0.0697,-0.0415 0.0937,-0.0625 0.192,-0.184 0.2035,-0.53125 0.0625,-0.78125 -0.064,-0.114 -0.152,-0.19075 -0.25,-0.21875 0.026,-0.183 -0.012,-0.364 -0.125,-0.5 -0.038,-0.045 -0.081,-0.0697 -0.125,-0.0937 0.128,-0.225 0.265,-0.47675 0.375,-0.71875 0.102,-0.215 0.0605,-0.47525 -0.0625,-0.65625 0.098,-0.23 0.0702,-0.5125 -0.0937,-0.6875 -0.017,-0.018 -0.0445,-0.0172 -0.0625,-0.0312 0.067,-0.103 0.13975,-0.2245 0.21875,-0.3125 0.182,-0.193 0.2135,-0.53925 0.0625,-0.78125 -0.044,-0.07 -0.0952,-0.12125 -0.15625,-0.15625 0.091,-0.194 0.0807,-0.434 -0.0312,-0.625 -0.066,-0.109 -0.154,-0.19175 -0.25,-0.21875 0.107,-0.157 0.23475,-0.31275 0.34375,-0.46875 0.155,-0.233 0.1195,-0.57825 -0.0625,-0.78125 -0.022,-0.024 -0.0385,-0.0445 -0.0625,-0.0625 0.054,-0.069 0.0973,-0.1245 0.15625,-0.1875 0.186,-0.189 0.23875,-0.53525 0.0937,-0.78125 -0.035,-0.058 -0.079,-0.12125 -0.125,-0.15625 0.167,-0.178 0.1845,-0.47775 0.0625,-0.71875 -0.037,-0.075 -0.069,-0.1445 -0.125,-0.1875 0.142,-0.221 0.12575,-0.541 -0.0312,-0.75 -0.022,-0.029 -0.0365,-0.0415 -0.0625,-0.0625 0.068,-0.082 0.1215,-0.166 0.1875,-0.25 0.167,-0.185 0.20775,-0.48575 0.0937,-0.71875 0.183,-0.163 0.234,-0.491 0.125,-0.75 -0.042,-0.094 -0.0873,-0.17075 -0.15625,-0.21875 0.105,-0.224 0.0443,-0.47725 -0.0937,-0.65625 0.022,-0.023 0.0697,-0.0727 0.0937,-0.0937 0.192,-0.185 0.23475,-0.53125 0.0937,-0.78125 -0.064,-0.113 -0.18325,-0.18975 -0.28125,-0.21875 0.026,-0.183 -0.012,-0.364 -0.125,-0.5 -0.038,-0.045 -0.081,-0.0697 -0.125,-0.0937 0.128,-0.225 0.265,-0.4455 0.375,-0.6875 0.102,-0.215 0.0605,-0.5065 -0.0625,-0.6875 0.098,-0.231 0.0702,-0.5125 -0.0937,-0.6875 -0.017,-0.018 -0.0132,-0.0173 -0.0312,-0.0312 0.067,-0.103 0.1085,-0.19325 0.1875,-0.28125 0.182,-0.193 0.2135,-0.5705 0.0625,-0.8125 -0.044,-0.071 -0.0952,-0.12225 -0.15625,-0.15625 0.091,-0.193 0.0807,-0.435 -0.0312,-0.625 -0.066,-0.109 -0.154,-0.1605 -0.25,-0.1875 0.107,-0.157 0.23475,-0.31275 0.34375,-0.46875 0.155,-0.233 0.1195,-0.6095 -0.0625,-0.8125 -0.022,-0.025 -0.0385,-0.0143 -0.0625,-0.0312 0.054,-0.069 0.0973,-0.15475 0.15625,-0.21875 0.186,-0.189 0.23875,-0.53425 0.0937,-0.78125 -0.035,-0.059 -0.079,-0.12125 -0.125,-0.15625 0.167,-0.178 0.21575,-0.47675 0.0937,-0.71875 -0.037,-0.075 -0.10025,-0.1455 -0.15625,-0.1875 0.142,-0.221 0.12575,-0.541 -0.0312,-0.75 -0.022,-0.029 -0.0365,-0.0415 -0.0625,-0.0625 0.068,-0.082 0.1215,-0.166 0.1875,-0.25 0.167,-0.185 0.20775,-0.48575 0.0937,-0.71875 0.183,-0.164 0.234,-0.492 0.125,-0.75 -0.042,-0.095 -0.0873,-0.16975 -0.15625,-0.21875 0.105,-0.223 0.0755,-0.47725 -0.0625,-0.65625 0.022,-0.022 0.0385,-0.0738 0.0625,-0.0937 0.192,-0.185 0.23475,-0.53125 0.0937,-0.78125 -0.064,-0.114 -0.18325,-0.1595 -0.28125,-0.1875 0.026,-0.184 0.0192,-0.39625 -0.0937,-0.53125 -0.038,-0.045 -0.081,-0.0697 -0.125,-0.0937 0.128,-0.225 0.23375,-0.4455 0.34375,-0.6875 0.102,-0.215 0.0605,-0.47525 -0.0625,-0.65625 0.098,-0.23 0.0702,-0.54375 -0.0937,-0.71875 -0.017,-0.018 -0.0132,-0.0162 -0.0312,-0.0312 0.067,-0.102 0.13975,-0.19325 0.21875,-0.28125 0.182,-0.193 0.18225,-0.5705 0.0312,-0.8125 -0.044,-0.07 -0.0952,-0.091 -0.15625,-0.125 0.091,-0.194 0.112,-0.46625 0,-0.65625 -0.066,-0.109 -0.18525,-0.1595 -0.28125,-0.1875 0.107,-0.157 0.23475,-0.31275 0.34375,-0.46875 0.155,-0.232 0.1195,-0.6095 -0.0625,-0.8125 -0.022,-0.024 -0.0385,-0.0132 -0.0625,-0.0312 0.054,-0.069 0.0973,-0.15575 0.15625,-0.21875 0.186,-0.189 0.23875,-0.53525 0.0937,-0.78125 -0.035,-0.059 -0.079,-0.09 -0.125,-0.125 0.167,-0.178 0.21575,-0.509 0.0937,-0.75 -0.037,-0.076 -0.10025,-0.11425 -0.15625,-0.15625 0.142,-0.221 0.12575,-0.57225 -0.0312,-0.78125 -0.022,-0.029 -0.0365,-0.0415 -0.0625,-0.0625 0.068,-0.082 0.1215,-0.166 0.1875,-0.25 0.167,-0.185 0.20775,-0.48575 0.0937,-0.71875 0.183,-0.163 0.234,-0.491 0.125,-0.75 -0.042,-0.094 -0.0873,-0.1385 -0.15625,-0.1875 0.105,-0.224 0.0755,-0.5085 -0.0625,-0.6875 0.022,-0.023 0.0385,-0.0415 0.0625,-0.0625 0.192,-0.185 0.23475,-0.53125 0.0937,-0.78125 -0.064,-0.114 -0.152,-0.18975 -0.25,-0.21875 0.026,-0.183 -0.012,-0.39525 -0.125,-0.53125 -0.038,-0.045 -0.081,-0.06975 -0.125,-0.09375 0.128,-0.225 0.23375,-0.4455 0.34375,-0.6875 0.102,-0.215 0.0917,-0.47525 -0.0312,-0.65625 0.098,-0.231 0.039,-0.54375 -0.125,-0.71875 -0.017,-0.017 -0.0132,-0.01725 -0.0312,-0.03125 0.067,-0.103 0.13975,-0.19325 0.21875,-0.28125 0.182,-0.193 0.2135,-0.53925 0.0625,-0.78125 -0.044,-0.071 -0.1265,-0.12225 -0.1875,-0.15625 0.091,-0.193 0.112,-0.46625 0,-0.65625 -0.066,-0.109 -0.154,-0.1605 -0.25,-0.1875 0.107,-0.157 0.2035,-0.31275 0.3125,-0.46875 0.155,-0.233 0.1195,-0.57825 -0.0625,-0.78125 -0.022,-0.025 -0.0385,-0.0445 -0.0625,-0.0625 0.054,-0.069 0.0973,-0.1245 0.15625,-0.1875 0.186,-0.188 0.23875,-0.5655 0.0937,-0.8125 -0.035,-0.059 -0.079,-0.09 -0.125,-0.125 0.167,-0.178 0.21575,-0.509 0.0937,-0.75 -0.037,-0.075 -0.10025,-0.11325 -0.15625,-0.15625 0.142,-0.221 0.157,-0.57225 0,-0.78125 -0.022,-0.029 -0.0677,-0.0415 -0.0937,-0.0625 0.068,-0.082 0.15275,-0.166 0.21875,-0.25 0.167,-0.185 0.1765,-0.48575 0.0625,-0.71875 0.183,-0.164 0.234,-0.45975 0.125,-0.71875 -0.042,-0.094 -0.0873,-0.16975 -0.15625,-0.21875 0.105,-0.224 0.0755,-0.5095 -0.0625,-0.6875 0.022,-0.023 0.0385,-0.0415 0.0625,-0.0625 0.192,-0.185 0.23475,-0.53125 0.0937,-0.78125 -0.064,-0.114 -0.152,-0.19075 -0.25,-0.21875 0.026,-0.183 -0.012,-0.365 -0.125,-0.5 -0.038,-0.045 -0.081,-0.06875 -0.125,-0.09375 0.128,-0.225 0.23375,-0.47675 0.34375,-0.71875 0.102,-0.215 0.0917,-0.47525 -0.0312,-0.65625 0.098,-0.23 0.0702,-0.5125 -0.0937,-0.6875 -0.017,-0.018 -0.0445,-0.01725 -0.0625,-0.03125 0.067,-0.103 0.13975,-0.2245 0.21875,-0.3125 0.182,-0.193 0.2135,-0.53925 0.0625,-0.78125 -0.044,-0.07 -0.0952,-0.12125 -0.15625,-0.15625 0.091,-0.194 0.0807,-0.434 -0.0312,-0.625 -0.066,-0.109 -0.154,-0.19175 -0.25,-0.21875 0.107,-0.157 0.2035,-0.31275 0.3125,-0.46875 0.155,-0.232 0.15075,-0.57825 -0.0312,-0.78125 -0.022,-0.024 -0.0697,-0.0445 -0.0937,-0.0625 0.054,-0.069 0.1285,-0.1245 0.1875,-0.1875 0.186,-0.189 0.2075,-0.53525 0.0625,-0.78125 -0.035,-0.059 -0.079,-0.12125 -0.125,-0.15625 0.167,-0.178 0.21575,-0.47775 0.0937,-0.71875 -0.037,-0.075 -0.10025,-0.1455 -0.15625,-0.1875 0.142,-0.221 0.157,-0.541 0,-0.75 -0.022,-0.029 -0.0677,-0.0415 -0.0937,-0.0625 0.068,-0.082 0.15275,-0.166 0.21875,-0.25 0.167,-0.185 0.1765,-0.517 0.0625,-0.75 0.183,-0.164 0.26525,-0.45975 0.15625,-0.71875 -0.042,-0.094 -0.1185,-0.16975 -0.1875,-0.21875 0.105,-0.224 0.0755,-0.5085 -0.0625,-0.6875 0.022,-0.023 0.0385,-0.0415 0.0625,-0.0625 0.192,-0.184 0.23475,-0.53125 0.0937,-0.78125 -0.1065,-0.1875 -0.27391,-0.26975 -0.4375,-0.21875 z"
     style="fill:#bfa794;stroke:#000000;stroke-width:0.44999999;overflow:visible"
     inkscape:connector-curvature="0" /><path
     id="path9-7-7-2"
     d="m 278.03227,74.58317 c -0.10925,-0.0165 -0.2165,0.0228 -0.3125,0.0937 -0.32,0.199 -0.4955,0.548 -0.8125,0.75 -0.182,0.155 -0.2175,0.443 -0.0625,0.625 0.038,0.045 0.075,0.0687 0.125,0.0937 -0.062,0.123 -0.0358,0.28225 0.0312,0.40625 -0.104,0.1 -0.20025,0.1905 -0.28125,0.3125 -0.124,0.188 -0.0772,0.4255 0.0937,0.5625 -0.117,0.197 -0.068,0.46275 0.125,0.59375 -0.135,0.158 -0.267,0.32 -0.375,0.5 -0.112,0.204 -0.0418,0.47475 0.15625,0.59375 -0.032,0.144 0.011,0.29625 0.125,0.40625 0.022,0.021 0.0385,0.0162 0.0625,0.0312 -0.114,0.149 -0.20925,0.313 -0.28125,0.5 -0.049,0.176 0.0203,0.36375 0.15625,0.46875 -0.073,0.09 -0.15175,0.154 -0.21875,0.25 -0.138,0.192 -0.10225,0.486 0.0937,0.625 0.061,0.043 0.14975,0.0545 0.21875,0.0625 -0.066,0.099 -0.13675,0.19525 -0.21875,0.28125 -0.149,0.186 -0.1265,0.44575 0.0625,0.59375 0.028,0.023 0.0627,0.0475 0.0937,0.0625 -0.053,0.086 -0.10225,0.165 -0.15625,0.25 -0.086,0.161 -0.0807,0.37 0.0312,0.5 -0.15,0.179 -0.1135,0.43775 0.0625,0.59375 0.01,0.009 0.0203,0.0232 0.0312,0.0312 -0.075,0.093 -0.14675,0.155 -0.21875,0.25 -0.132,0.199 -0.074,0.493 0.125,0.625 0.021,0.014 0.0405,0.0212 0.0625,0.0312 -0.041,0.156 -0.003,0.3265 0.125,0.4375 0.009,0.008 0.0213,-0.007 0.0312,0 -0.182,0.155 -0.2175,0.443 -0.0625,0.625 0.038,0.045 0.075,0.0687 0.125,0.0937 -0.062,0.123 -0.0358,0.28225 0.0312,0.40625 -0.104,0.1 -0.20025,0.1905 -0.28125,0.3125 -0.124,0.188 -0.0772,0.45575 0.0937,0.59375 -0.117,0.197 -0.068,0.4315 0.125,0.5625 -0.135,0.158 -0.267,0.32 -0.375,0.5 -0.112,0.204 -0.0418,0.47475 0.15625,0.59375 -0.032,0.144 0.011,0.29625 0.125,0.40625 0.022,0.021 0.0385,0.0162 0.0625,0.0312 -0.114,0.149 -0.20925,0.313 -0.28125,0.5 -0.049,0.176 0.0203,0.36375 0.15625,0.46875 -0.073,0.09 -0.15175,0.18525 -0.21875,0.28125 -0.138,0.192 -0.10225,0.45475 0.0937,0.59375 0.061,0.043 0.14975,0.0545 0.21875,0.0625 -0.066,0.099 -0.13675,0.19525 -0.21875,0.28125 -0.149,0.186 -0.1265,0.477 0.0625,0.625 0.028,0.023 0.0627,0.0173 0.0937,0.0312 -0.053,0.087 -0.10225,0.165 -0.15625,0.25 -0.086,0.161 -0.0807,0.369 0.0312,0.5 -0.15,0.179 -0.1135,0.43775 0.0625,0.59375 0.01,0.009 0.0203,0.0222 0.0312,0.0312 -0.075,0.092 -0.14675,0.18625 -0.21875,0.28125 -0.132,0.199 -0.10525,0.46175 0.0937,0.59375 0.021,0.014 0.0718,0.0212 0.0937,0.0312 -0.041,0.156 -0.003,0.3265 0.125,0.4375 -10e-4,8.7e-4 10e-4,0.0302 0,0.0312 -0.182,0.156 -0.18625,0.41175 -0.0312,0.59375 0.038,0.046 0.075,0.0687 0.125,0.0937 -0.062,0.123 -0.067,0.28225 0,0.40625 -0.104,0.1 -0.20025,0.22175 -0.28125,0.34375 -0.124,0.188 -0.0772,0.4245 0.0937,0.5625 -0.117,0.197 -0.0368,0.4315 0.15625,0.5625 0.005,0.003 -0.005,0.0282 0,0.0312 -0.135,0.158 -0.267,0.32 -0.375,0.5 -0.112,0.204 -0.0418,0.4435 0.15625,0.5625 -0.032,0.144 0.011,0.29625 0.125,0.40625 0.022,0.021 0.0385,0.0475 0.0625,0.0625 -0.0849,0.11102 -0.1543,0.21405 -0.21875,0.34375 l 1.5625,0 c -0.0143,-0.0999 -0.0731,-0.17919 -0.15625,-0.25 -0.022,-0.019 -0.0687,-0.0173 -0.0937,-0.0312 0.054,-0.053 0.1285,-0.10725 0.1875,-0.15625 0.186,-0.145 0.2075,-0.436 0.0625,-0.625 -0.035,-0.045 -0.078,-0.0667 -0.125,-0.0937 0.167,-0.137 0.21575,-0.3765 0.0937,-0.5625 -0.037,-0.058 -0.069,-0.12425 -0.125,-0.15625 0.142,-0.17 0.12675,-0.4025 -0.0312,-0.5625 -0.022,-0.022 -0.0677,-0.0465 -0.0937,-0.0625 0.068,-0.063 0.15275,-0.1225 0.21875,-0.1875 0.167,-0.142 0.1765,-0.3835 0.0625,-0.5625 0.183,-0.125 0.26525,-0.3645 0.15625,-0.5625 -0.041,-0.073 -0.1185,-0.11925 -0.1875,-0.15625 0.105,-0.172 0.0745,-0.39425 -0.0625,-0.53125 0.022,-0.017 0.0385,-0.0152 0.0625,-0.0312 0.192,-0.142 0.23575,-0.433 0.0937,-0.625 -0.064,-0.087 -0.152,-0.13425 -0.25,-0.15625 0.026,-0.141 -0.012,-0.30125 -0.125,-0.40625 -0.038,-0.035 -0.081,-0.0445 -0.125,-0.0625 0.128,-0.172 0.265,-0.34525 0.375,-0.53125 0.102,-0.166 0.0605,-0.362 -0.0625,-0.5 0.098,-0.177 0.0702,-0.4285 -0.0937,-0.5625 -0.016,-0.013 -0.0445,0.01 -0.0625,0 0.067,-0.079 0.14075,-0.183 0.21875,-0.25 0.182,-0.148 0.2135,-0.40875 0.0625,-0.59375 -0.044,-0.054 -0.0952,-0.098 -0.15625,-0.125 0.091,-0.148 0.0817,-0.32275 -0.0312,-0.46875 -0.066,-0.084 -0.155,-0.13625 -0.25,-0.15625 0.107,-0.121 0.2045,-0.255 0.3125,-0.375 0.155,-0.179 0.15075,-0.43875 -0.0312,-0.59375 -0.022,-0.019 -0.0375,-0.0485 -0.0625,-0.0625 0.054,-0.053 0.0973,-0.10725 0.15625,-0.15625 0.186,-0.145 0.2075,-0.40475 0.0625,-0.59375 -0.035,-0.045 -0.078,-0.0667 -0.125,-0.0937 0.167,-0.136 0.21575,-0.3775 0.0937,-0.5625 -0.037,-0.058 -0.069,-0.12325 -0.125,-0.15625 0.142,-0.17 0.12675,-0.4025 -0.0312,-0.5625 -0.022,-0.022 -0.0365,-0.0465 -0.0625,-0.0625 0.068,-0.063 0.1215,-0.1235 0.1875,-0.1875 0.167,-0.142 0.1765,-0.3835 0.0625,-0.5625 0.183,-0.125 0.26525,-0.3645 0.15625,-0.5625 -0.041,-0.072 -0.1185,-0.11925 -0.1875,-0.15625 0.105,-0.172 0.0745,-0.39425 -0.0625,-0.53125 0.022,-0.018 0.0385,-0.0465 0.0625,-0.0625 0.192,-0.142 0.23575,-0.40175 0.0937,-0.59375 -0.064,-0.087 -0.152,-0.13425 -0.25,-0.15625 0.026,-0.141 -0.012,-0.30125 -0.125,-0.40625 -0.038,-0.035 -0.081,-0.0435 -0.125,-0.0625 0.128,-0.172 0.265,-0.34525 0.375,-0.53125 0.102,-0.166 0.0605,-0.39325 -0.0625,-0.53125 0.098,-0.177 0.0702,-0.39625 -0.0937,-0.53125 -0.016,-0.014 -0.0445,-0.0203 -0.0625,-0.0312 0.067,-0.079 0.14075,-0.15175 0.21875,-0.21875 0.182,-0.148 0.2135,-0.40875 0.0625,-0.59375 -0.044,-0.054 -0.0952,-0.098 -0.15625,-0.125 0.091,-0.149 0.0817,-0.353 -0.0312,-0.5 -0.066,-0.084 -0.155,-0.105 -0.25,-0.125 0.107,-0.121 0.2045,-0.255 0.3125,-0.375 0.155,-0.179 0.15075,-0.43875 -0.0312,-0.59375 -0.022,-0.019 -0.0375,-0.0485 -0.0625,-0.0625 0.054,-0.053 0.0973,-0.10725 0.15625,-0.15625 0.186,-0.145 0.2075,-0.40475 0.0625,-0.59375 -0.035,-0.045 -0.078,-0.099 -0.125,-0.125 0.167,-0.137 0.21575,-0.3765 0.0937,-0.5625 -0.037,-0.058 -0.069,-0.093 -0.125,-0.125 0.142,-0.17 0.12675,-0.43275 -0.0312,-0.59375 -0.022,-0.022 -0.0365,-0.0152 -0.0625,-0.0312 0.068,-0.063 0.1215,-0.1235 0.1875,-0.1875 0.167,-0.142 0.20775,-0.3835 0.0937,-0.5625 0.183,-0.125 0.234,-0.3645 0.125,-0.5625 -0.041,-0.072 -0.1185,-0.11925 -0.1875,-0.15625 0.105,-0.172 0.0745,-0.39425 -0.0625,-0.53125 0.022,-0.018 0.0385,-0.0465 0.0625,-0.0625 0.192,-0.142 0.23575,-0.40175 0.0937,-0.59375 -0.071,-0.096 -0.172,-0.171 -0.28125,-0.1875 z"
     style="fill:#bfa794;stroke:#000000;stroke-width:0.44999999;overflow:visible"
     inkscape:connector-curvature="0" /><g
     transform="matrix(0,-1,1,0,239.91356,147.58761)"
     id="g11"
     style="overflow:visible"><circle
       d="m 85.532001,26.488001 c 0,6.853854 -5.556146,12.41 -12.409999,12.41 -6.853854,0 -12.41,-5.556146 -12.41,-12.41 0,-6.853854 5.556146,-12.41 12.41,-12.41 6.853853,0 12.409999,5.556146 12.409999,12.41 z"
       style="fill:#ffffff;stroke:#000000;stroke-width:0.44999999"
       cx="73.122002"
       cy="26.488001"
       r="12.41"
       id="circle13"
       sodipodi:cx="73.122002"
       sodipodi:cy="26.488001"
       sodipodi:rx="12.41"
       sodipodi:ry="12.41" /><circle
       d="m 75.604002,26.488001 c 0,1.370771 -1.11123,2.482 -2.482,2.482 -1.370771,0 -2.482,-1.111229 -2.482,-2.482 0,-1.370771 1.111229,-2.482 2.482,-2.482 1.37077,0 2.482,1.111229 2.482,2.482 z"
       style="fill:none;stroke:#000000;stroke-width:0.44999999"
       cx="73.122002"
       cy="26.488001"
       r="2.4820001"
       id="circle15"
       sodipodi:cx="73.122002"
       sodipodi:cy="26.488001"
       sodipodi:rx="2.4820001"
       sodipodi:ry="2.4820001" /></g><rect
     x="273.85498"
     y="106.39877"
     style="fill:url(#linearGradient3107);stroke:#000000;stroke-width:0.45000002;stroke-miterlimit:4;stroke-dasharray:none;overflow:visible"
     width="7.2336016"
     height="9.4694424"
     id="rect62-1" /><rect
     y="90.542686"
     x="269.84024"
     height="9.7914295"
     width="15.26311"
     id="rect4445"
     style="fill:#000000;fill-opacity:1;stroke:none" /><text
     sodipodi:linespacing="125%"
     id="text4465"
     y="99.18219"
     x="274.11679"
     style="font-size:10px;font-style:normal;font-variant:normal;font-weight:normal;font-stretch:normal;text-indent:0;text-align:start;text-decoration:none;line-height:125%;letter-spacing:0px;word-spacing:0px;text-transform:none;direction:ltr;block-progression:tb;writing-mode:lr-tb;text-anchor:start;baseline-shift:baseline;color:#000000;fill:#ffffff;fill-opacity:1;fill-rule:nonzero;stroke:none;stroke-width:1px;marker:none;visibility:visible;display:inline;overflow:visible;enable-background:accumulate;font-family:FreeSans;-inkscape-font-specification:FreeSans"
     xml:space="preserve"><tspan
       y="99.18219"
       x="274.11679"
       id="tspan4467"
       sodipodi:role="line">X</tspan></text>
<text
     sodipodi:linespacing="125%"
     id="text4477"
     y="108.60384"
     x="281.26404"
     style="font-size:10px;font-style:normal;font-variant:normal;font-weight:normal;font-stretch:normal;text-indent:0;text-align:start;text-decoration:none;line-height:125%;letter-spacing:0px;word-spacing:0px;text-transform:none;direction:ltr;block-progression:tb;writing-mode:lr-tb;text-anchor:start;baseline-shift:baseline;color:#000000;fill:#000000;fill-opacity:1;fill-rule:nonzero;stroke:none;stroke-width:1px;marker:none;visibility:visible;display:inline;overflow:visible;enable-background:accumulate;font-family:FreeSans;-inkscape-font-specification:FreeSans"
     xml:space="preserve"><tspan
       y="108.60384"
       x="281.26404"
       id="tspan4479"
       sodipodi:role="line">T</tspan></text>
<text
     sodipodi:linespacing="125%"
     id="text4481"
     y="87.150818"
     x="279.60162"
     style="font-size:10px;font-style:normal;font-variant:normal;font-weight:normal;font-stretch:normal;text-indent:0;text-align:start;text-decoration:none;line-height:125%;letter-spacing:0px;word-spacing:0px;text-transform:none;direction:ltr;block-progression:tb;writing-mode:lr-tb;text-anchor:start;baseline-shift:baseline;color:#000000;fill:#000000;fill-opacity:1;fill-rule:nonzero;stroke:none;stroke-width:1px;marker:none;visibility:visible;display:inline;overflow:visible;enable-background:accumulate;font-family:FreeSans;-inkscape-font-specification:FreeSans"
     xml:space="preserve"><tspan
       y="87.150818"
       x="279.60162"
       id="tspan4483"
       sodipodi:role="line">2T</tspan></text>
<rect
     x="258.29907"
     y="210.90854"
     style="fill:url(#linearGradient3109);stroke:#000000;stroke-width:0.45000002;stroke-miterlimit:4;stroke-dasharray:none;overflow:visible"
     width="7.2336016"
     height="9.4694424"
     id="rect62-1-6" /><rect
     x="244.56467"
     y="210.90854"
     style="fill:url(#linearGradient3111);stroke:#000000;stroke-width:0.45000002;stroke-miterlimit:4;stroke-dasharray:none;overflow:visible"
     width="7.2336016"
     height="9.4694424"
     id="rect62-1-6-1" /><rect
     y="220.44351"
     x="240.7775"
     height="2.4433205"
     width="28.135138"
     id="rect3164"
     style="fill:#ffffff;fill-opacity:1;stroke:#000000;stroke-width:0.625;stroke-miterlimit:4;stroke-opacity:1;stroke-dasharray:none" /><path
     inkscape:connector-curvature="0"
     id="path3934"
     d="m 254.69698,204.89515 -13.54929,2.66543 0,12.88293"
     style="color:#000000;fill:none;stroke:#000000;stroke-width:0.875;stroke-linecap:butt;stroke-linejoin:miter;stroke-miterlimit:4;stroke-opacity:1;stroke-dasharray:none;stroke-dashoffset:0;marker:none;visibility:visible;display:inline;overflow:visible;enable-background:accumulate" /><path
     inkscape:connector-curvature="0"
     id="path3934-1"
     d="m 254.51188,204.96919 13.54929,2.66543 0,12.88293"
     style="color:#000000;fill:none;stroke:#000000;stroke-width:0.875;stroke-linecap:butt;stroke-linejoin:miter;stroke-miterlimit:4;stroke-opacity:1;stroke-dasharray:none;stroke-dashoffset:0;marker:none;visibility:visible;display:inline;overflow:visible;enable-background:accumulate" /></g></svg>