<?xml version="1.0" encoding="iso-8859-1"?>
<!-- Generator: Adobe Illustrator 11 Build 196, SVG Export Plug-In . SVG Version: 6.0.0 Build 78)  -->
<!DOCTYPE svg PUBLIC "-//W3C//DTD SVG 1.0//EN"    "http://www.w3.org/TR/2001/REC-SVG-20010904/DTD/svg10.dtd" [
	<!ENTITY ns_flows "http://ns.adobe.com/Flows/1.0/">
	<!ENTITY ns_svg "http://www.w3.org/2000/svg">
	<!ENTITY ns_xlink "http://www.w3.org/1999/xlink">
]>
<svg
	 width="120.5" height="76.143" viewBox="0 0 120.5 76.143" style="overflow:visible;enable-background:new 0 0 120.5 76.143"
	 xml:space="preserve">
	<style type="text/css">
	
	</style>
	<g id="Layer_1">
		<rect width="120.5" height="75.227"/> 
		<path style="fill:#DCDCDC;stroke:#FFFFFF;stroke-width:0.5;" d="M6.545,37.953c0,10.705,9.629,20.072,24.022,25.221l2.786-25.221
			L13.472,22.951C9.077,27.344,6.545,32.472,6.545,37.953z"/>
		<path style="fill:#DCDCDC;stroke:#FFFFFF;stroke-width:0.5;" d="M34.479,37.828l70.905-6.953
			c-2.957-7.244-10.419-13.442-20.538-17.482L34.479,37.828z"/>
		
			<ellipse style="fill:none;stroke:#FFFFFF;stroke-width:2;stroke-dasharray:3;" cx="56.417" cy="37.934" rx="49.559" ry="29.425"/> 
		<circle style="fill:#FFFFFF;" cx="33.667" cy="37.934" r="1.885"/> 
		<g>
			<text transform="matrix(1 0 0 1 26.3335 32.7798)"><tspan x="0" y="0" style="fill:#FFFFFF; font-family:Liberation Sans-Bold'; font-size:7.650000;">sun</tspan></text>
		</g>
		<g>
			<text transform="matrix(1 0 0 1 109.5 34.6133)"><tspan x="0" y="0" style="fill:#FFFFFF; font-family:Liberation Sans-Bold'; font-size:7.650000;">P</tspan></text>
		</g>
		<g>
			<text transform="matrix(1 0 0 1 86.6665 11.4468)"><tspan x="0" y="0" style="fill:#FFFFFF; font-family:Liberation Sans-Bold'; font-size:7.650000;">Q</tspan></text>
		</g>
		<g>
			<text transform="matrix(1 0 0 1 7 20.7798)"><tspan x="0" y="0" style="fill:#FFFFFF; font-family:Liberation Sans-Bold'; font-size:7.650000;">R</tspan></text>
		</g>
		<g>
			<text transform="matrix(1 0 0 1 26.8335 72.1133)"><tspan x="0" y="0" style="fill:#FFFFFF; font-family:Liberation Sans-Bold'; font-size:7.650000;">S</tspan></text>
		</g>
	</g>
</svg>
