<?xml version="1.0" encoding="UTF-8" standalone="no"?>
<!-- Generator: Adobe Illustrator 11 Build 196, SVG Export Plug-In . SVG Version: 6.0.0 Build 78)  -->
<svg
   xmlns:dc="http://purl.org/dc/elements/1.1/"
   xmlns:cc="http://web.resource.org/cc/"
   xmlns:rdf="http://www.w3.org/1999/02/22-rdf-syntax-ns#"
   xmlns:svg="http://www.w3.org/2000/svg"
   xmlns="http://www.w3.org/2000/svg"
   xmlns:sodipodi="http://inkscape.sourceforge.net/DTD/sodipodi-0.dtd"
   xmlns:inkscape="http://www.inkscape.org/namespaces/inkscape"
   width="153.749"
   height="338.891"
   viewBox="0 0 153.749 338.891"
   style="overflow:visible;enable-background:new 0 0 153.749 338.891"
   xml:space="preserve"
   id="svg2"
   sodipodi:version="0.32"
   sodipodi:docname="mass-on-spring.svg"
   sodipodi:docbase="/home/bcrowell/Documents/writing/lm/trunk/3vw/ch01/figs"><metadata
   id="metadata750"><rdf:RDF><cc:Work
       rdf:about=""><dc:format>image/svg+xml</dc:format><dc:type
         rdf:resource="http://purl.org/dc/dcmitype/StillImage" /></cc:Work></rdf:RDF></metadata><defs
   id="defs748">
		
		
		
		
		
		
		
		
		
		
		
		 
		
		 
		
		 
		
		 
		
		 
		
		 
		
		 
		
		 
		
		 
		
		
		
		
		
		
		
		
		
		
		
		
		
		
		
		
		
		 
		
	</defs><sodipodi:namedview
   inkscape:cy="178.62167"
   inkscape:cx="92.567499"
   inkscape:zoom="2.1662017"
   inkscape:window-height="996"
   inkscape:window-width="1278"
   inkscape:pageshadow="2"
   inkscape:pageopacity="0.0"
   borderopacity="1.0"
   bordercolor="#666666"
   pagecolor="#ffffff"
   id="base"
   inkscape:window-x="0"
   inkscape:window-y="0"
   inkscape:current-layer="svg2" />
	<style
   type="text/css"
   id="style4">
	
	</style>
	<rect
   style="fill:#ebebeb;fill-opacity:1.0000000;fill-rule:evenodd;stroke:none;stroke-width:1.0000000pt;stroke-linecap:butt;stroke-linejoin:miter;stroke-opacity:1.0000000"
   id="rect2048"
   width="184.25198"
   height="339.30359"
   x="-0.46163753"
   y="0.51068640" /><g
   id="g7"
   transform="translate(18.29659,-4.000000)">
			<path
   id="path9"
   d="M 62.926000,263.58300 C 57.194000,263.58300 58.218000,268.90900 61.327000,268.90900 C 64.436000,268.90900 65.885000,263.58300 59.991000,263.58300 L 58.251000,263.58300"
   style="fill:none;stroke:#000000;stroke-width:0.50000000;stroke-miterlimit:1.0000000" />
			<path
   id="path11"
   d="M 62.928000,263.58300 C 68.822000,263.58300 67.373000,268.90900 64.264000,268.90900 C 61.155000,268.90900 60.131000,263.58300 65.863000,263.58300"
   style="fill:none;stroke:#000000;stroke-width:0.50000000;stroke-miterlimit:1.0000000" />
			<path
   id="path13"
   d="M 65.865000,263.58300 C 71.759000,263.58300 70.310000,268.90900 67.201000,268.90900 C 64.092000,268.90900 63.068000,263.58300 68.800000,263.58300"
   style="fill:none;stroke:#000000;stroke-width:0.50000000;stroke-miterlimit:1.0000000" />
			<path
   id="path15"
   d="M 68.803000,263.58300 C 74.697000,263.58300 73.248000,268.90900 70.139000,268.90900 C 67.030000,268.90900 66.006000,263.58300 71.738000,263.58300"
   style="fill:none;stroke:#000000;stroke-width:0.50000000;stroke-miterlimit:1.0000000" />
			<path
   id="path17"
   d="M 71.740000,263.58300 C 77.634000,263.58300 76.185000,268.90900 73.076000,268.90900 C 69.968000,268.90900 68.943000,263.58300 74.675000,263.58300"
   style="fill:none;stroke:#000000;stroke-width:0.50000000;stroke-miterlimit:1.0000000" />
			<path
   id="path19"
   d="M 74.677000,263.58300 C 80.571000,263.58300 79.122000,268.90900 76.013000,268.90900 C 72.904000,268.90900 71.880000,263.58300 77.612000,263.58300"
   style="fill:none;stroke:#000000;stroke-width:0.50000000;stroke-miterlimit:1.0000000" />
			<path
   id="path21"
   d="M 77.615000,263.58300 C 83.509000,263.58300 82.060000,268.90900 78.951000,268.90900 C 75.842000,268.90900 74.818000,263.58300 80.550000,263.58300"
   style="fill:none;stroke:#000000;stroke-width:0.50000000;stroke-miterlimit:1.0000000" />
			<path
   id="path23"
   d="M 80.552000,263.58300 C 86.446000,263.58300 84.997000,268.90900 81.888000,268.90900 C 78.779000,268.90900 77.755000,263.58300 83.487000,263.58300"
   style="fill:none;stroke:#000000;stroke-width:0.50000000;stroke-miterlimit:1.0000000" />
			<path
   id="path25"
   d="M 83.489000,263.58300 C 89.383000,263.58300 87.934000,268.90900 84.825000,268.90900 C 81.716000,268.90900 80.692000,263.58300 86.424000,263.58300"
   style="fill:none;stroke:#000000;stroke-width:0.50000000;stroke-miterlimit:1.0000000" />
			<path
   id="path27"
   d="M 86.427000,263.58300 C 92.321000,263.58300 90.872000,268.90900 87.763000,268.90900 C 84.654000,268.90900 83.630000,263.58300 89.361000,263.58300"
   style="fill:none;stroke:#000000;stroke-width:0.50000000;stroke-miterlimit:1.0000000" />
			<path
   id="path29"
   d="M 89.364000,263.58300 C 95.258000,263.58300 93.809000,268.90900 90.700000,268.90900 C 87.591000,268.90900 86.567000,263.58300 92.299000,263.58300"
   style="fill:none;stroke:#000000;stroke-width:0.50000000;stroke-miterlimit:1.0000000" />
			<path
   id="path31"
   d="M 92.301000,263.58300 C 98.195000,263.58300 96.746000,268.90900 93.637000,268.90900 C 90.528000,268.90900 89.504000,263.58300 95.236000,263.58300"
   style="fill:none;stroke:#000000;stroke-width:0.50000000;stroke-miterlimit:1.0000000" />
			<path
   id="path33"
   d="M 95.238000,263.58300 C 101.13200,263.58300 99.683000,268.90900 96.574000,268.90900 C 93.465000,268.90900 92.441000,263.58300 98.173000,263.58300"
   style="fill:none;stroke:#000000;stroke-width:0.50000000;stroke-miterlimit:1.0000000" />
			<path
   id="path35"
   d="M 98.176000,263.58300 C 104.07000,263.58300 102.62100,268.90900 99.512000,268.90900 C 96.403000,268.90900 95.379000,263.58300 101.11100,263.58300"
   style="fill:none;stroke:#000000;stroke-width:0.50000000;stroke-miterlimit:1.0000000" />
			<path
   id="path37"
   d="M 101.11300,263.58300 C 107.00700,263.58300 105.55800,268.90900 102.44900,268.90900 C 99.341000,268.90900 98.316000,263.58300 104.04800,263.58300"
   style="fill:none;stroke:#000000;stroke-width:0.50000000;stroke-miterlimit:1.0000000" />
			<path
   id="path39"
   d="M 104.05000,263.58300 C 109.94400,263.58300 108.49500,268.90900 105.38600,268.90900 C 102.27700,268.90900 101.25300,263.58300 106.98500,263.58300"
   style="fill:none;stroke:#000000;stroke-width:0.50000000;stroke-miterlimit:1.0000000" />
			<path
   id="path41"
   d="M 106.98800,263.58300 C 112.88200,263.58300 111.43300,268.90900 108.32400,268.90900 C 105.21500,268.90900 104.19100,263.58300 109.92300,263.58300"
   style="fill:none;stroke:#000000;stroke-width:0.50000000;stroke-miterlimit:1.0000000" />
			<path
   id="path43"
   d="M 109.92500,263.58300 C 115.81900,263.58300 114.37000,268.90900 111.26100,268.90900 C 108.15200,268.90900 107.12800,263.58300 112.86000,263.58300"
   style="fill:none;stroke:#000000;stroke-width:0.50000000;stroke-miterlimit:1.0000000" />
		</g><g
   id="g45"
   transform="translate(18.29659,-4.000000)">
			<path
   id="path47"
   d="M 62.090000,219.73100 C 56.159000,219.73100 56.837000,225.05800 60.053000,225.05800 C 63.269000,225.05800 64.389000,219.73100 58.290000,219.73100 L 56.719000,219.73100"
   style="fill:none;stroke:#000000;stroke-width:0.50000000;stroke-miterlimit:1.0000000" />
			<path
   id="path49"
   d="M 62.090000,219.73100 C 68.188000,219.73100 67.069000,225.05800 63.853000,225.05800 C 60.637000,225.05800 59.958000,219.73100 65.890000,219.73100"
   style="fill:none;stroke:#000000;stroke-width:0.50000000;stroke-miterlimit:1.0000000" />
			<path
   id="path51"
   d="M 65.889000,219.73100 C 71.988000,219.73100 70.868000,225.05800 67.652000,225.05800 C 64.436000,225.05800 63.758000,219.73100 69.689000,219.73100"
   style="fill:none;stroke:#000000;stroke-width:0.50000000;stroke-miterlimit:1.0000000" />
			<path
   id="path53"
   d="M 69.688000,219.73100 C 75.787000,219.73100 74.667000,225.05800 71.451000,225.05800 C 68.234000,225.05800 67.556000,219.73100 73.488000,219.73100"
   style="fill:none;stroke:#000000;stroke-width:0.50000000;stroke-miterlimit:1.0000000" />
			<path
   id="path55"
   d="M 73.487000,219.73100 C 79.585000,219.73100 78.466000,225.05800 75.250000,225.05800 C 72.034000,225.05800 71.356000,219.73100 77.287000,219.73100"
   style="fill:none;stroke:#000000;stroke-width:0.50000000;stroke-miterlimit:1.0000000" />
			<path
   id="path57"
   d="M 77.286000,219.73100 C 83.385000,219.73100 82.265000,225.05800 79.049000,225.05800 C 75.833000,225.05800 75.155000,219.73100 81.086000,219.73100"
   style="fill:none;stroke:#000000;stroke-width:0.50000000;stroke-miterlimit:1.0000000" />
			<path
   id="path59"
   d="M 81.085000,219.73100 C 87.183000,219.73100 86.064000,225.05800 82.848000,225.05800 C 79.632000,225.05800 78.953000,219.73100 84.885000,219.73100"
   style="fill:none;stroke:#000000;stroke-width:0.50000000;stroke-miterlimit:1.0000000" />
			<path
   id="path61"
   d="M 84.884000,219.73100 C 90.983000,219.73100 89.863000,225.05800 86.647000,225.05800 C 83.431000,225.05800 82.753000,219.73100 88.684000,219.73100"
   style="fill:none;stroke:#000000;stroke-width:0.50000000;stroke-miterlimit:1.0000000" />
			<path
   id="path63"
   d="M 88.683000,219.73100 C 94.782000,219.73100 93.662000,225.05800 90.446000,225.05800 C 87.229000,225.05800 86.551000,219.73100 92.483000,219.73100"
   style="fill:none;stroke:#000000;stroke-width:0.50000000;stroke-miterlimit:1.0000000" />
			<path
   id="path65"
   d="M 92.482000,219.73100 C 98.581000,219.73100 97.461000,225.05800 94.245000,225.05800 C 91.029000,225.05800 90.351000,219.73100 96.282000,219.73100"
   style="fill:none;stroke:#000000;stroke-width:0.50000000;stroke-miterlimit:1.0000000" />
			<path
   id="path67"
   d="M 96.281000,219.73100 C 102.37900,219.73100 101.26000,225.05800 98.044000,225.05800 C 94.827000,225.05800 94.149000,219.73100 100.08000,219.73100"
   style="fill:none;stroke:#000000;stroke-width:0.50000000;stroke-miterlimit:1.0000000" />
			<path
   id="path69"
   d="M 100.08000,219.73100 C 106.17800,219.73100 105.05900,225.05800 101.84300,225.05800 C 98.627000,225.05800 97.949000,219.73100 103.88000,219.73100"
   style="fill:none;stroke:#000000;stroke-width:0.50000000;stroke-miterlimit:1.0000000" />
			<path
   id="path71"
   d="M 103.87900,219.73100 C 109.97800,219.73100 108.85800,225.05800 105.64200,225.05800 C 102.42600,225.05800 101.74800,219.73100 107.67900,219.73100"
   style="fill:none;stroke:#000000;stroke-width:0.50000000;stroke-miterlimit:1.0000000" />
			<path
   id="path73"
   d="M 107.67800,219.73100 C 113.77600,219.73100 112.65700,225.05800 109.44000,225.05800 C 106.22400,225.05800 105.54600,219.73100 111.47700,219.73100"
   style="fill:none;stroke:#000000;stroke-width:0.50000000;stroke-miterlimit:1.0000000" />
			<path
   id="path75"
   d="M 111.47700,219.73100 C 117.57600,219.73100 116.45600,225.05800 113.24000,225.05800 C 110.02400,225.05800 109.34600,219.73100 115.27700,219.73100"
   style="fill:none;stroke:#000000;stroke-width:0.50000000;stroke-miterlimit:1.0000000" />
			<path
   id="path77"
   d="M 115.27600,219.73100 C 121.37400,219.73100 120.25500,225.05800 117.03900,225.05800 C 113.82200,225.05800 113.14400,219.73100 119.07600,219.73100"
   style="fill:none;stroke:#000000;stroke-width:0.50000000;stroke-miterlimit:1.0000000" />
			<path
   id="path79"
   d="M 119.07500,219.73100 C 125.17300,219.73100 124.05400,225.05800 120.83800,225.05800 C 117.62200,225.05800 116.94400,219.73100 122.87500,219.73100"
   style="fill:none;stroke:#000000;stroke-width:0.50000000;stroke-miterlimit:1.0000000" />
			<path
   id="path81"
   d="M 122.87400,219.73100 C 128.97300,219.73100 127.85300,225.05800 124.63700,225.05800 C 121.42000,225.05800 120.74200,219.73100 126.67300,219.73100"
   style="fill:none;stroke:#000000;stroke-width:0.50000000;stroke-miterlimit:1.0000000" />
		</g><g
   id="g83"
   transform="translate(18.29659,-4.000000)">
			<path
   id="path85"
   d="M 63.828000,197.80500 C 59.178000,197.80500 59.709000,203.13200 62.231000,203.13200 C 64.753000,203.13200 65.631000,197.80500 60.849000,197.80500 L 59.617000,197.80500"
   style="fill:none;stroke:#000000;stroke-width:0.50000000;stroke-miterlimit:1.0000000" />
			<path
   id="path87"
   d="M 63.827000,197.80500 C 68.609000,197.80500 67.731000,203.13200 65.209000,203.13200 C 62.687000,203.13200 62.155000,197.80500 66.806000,197.80500"
   style="fill:none;stroke:#000000;stroke-width:0.50000000;stroke-miterlimit:1.0000000" />
			<path
   id="path89"
   d="M 66.806000,197.80500 C 71.588000,197.80500 70.710000,203.13200 68.188000,203.13200 C 65.666000,203.13200 65.135000,197.80500 69.785000,197.80500"
   style="fill:none;stroke:#000000;stroke-width:0.50000000;stroke-miterlimit:1.0000000" />
			<path
   id="path91"
   d="M 69.785000,197.80500 C 74.567000,197.80500 73.689000,203.13200 71.167000,203.13200 C 68.645000,203.13200 68.113000,197.80500 72.764000,197.80500"
   style="fill:none;stroke:#000000;stroke-width:0.50000000;stroke-miterlimit:1.0000000" />
			<path
   id="path93"
   d="M 72.764000,197.80500 C 77.545000,197.80500 76.668000,203.13200 74.146000,203.13200 C 71.624000,203.13200 71.093000,197.80500 75.743000,197.80500"
   style="fill:none;stroke:#000000;stroke-width:0.50000000;stroke-miterlimit:1.0000000" />
			<path
   id="path95"
   d="M 75.742000,197.80500 C 80.524000,197.80500 79.646000,203.13200 77.124000,203.13200 C 74.602000,203.13200 74.070000,197.80500 78.721000,197.80500"
   style="fill:none;stroke:#000000;stroke-width:0.50000000;stroke-miterlimit:1.0000000" />
			<path
   id="path97"
   d="M 78.721000,197.80500 C 83.502000,197.80500 82.625000,203.13200 80.103000,203.13200 C 77.581000,203.13200 77.050000,197.80500 81.700000,197.80500"
   style="fill:none;stroke:#000000;stroke-width:0.50000000;stroke-miterlimit:1.0000000" />
			<path
   id="path99"
   d="M 81.700000,197.80500 C 86.482000,197.80500 85.604000,203.13200 83.082000,203.13200 C 80.560000,203.13200 80.028000,197.80500 84.679000,197.80500"
   style="fill:none;stroke:#000000;stroke-width:0.50000000;stroke-miterlimit:1.0000000" />
			<path
   id="path101"
   d="M 84.679000,197.80500 C 89.460000,197.80500 88.583000,203.13200 86.061000,203.13200 C 83.539000,203.13200 83.008000,197.80500 87.658000,197.80500"
   style="fill:none;stroke:#000000;stroke-width:0.50000000;stroke-miterlimit:1.0000000" />
			<path
   id="path103"
   d="M 87.657000,197.80500 C 92.439000,197.80500 91.561000,203.13200 89.039000,203.13200 C 86.517000,203.13200 85.985000,197.80500 90.636000,197.80500"
   style="fill:none;stroke:#000000;stroke-width:0.50000000;stroke-miterlimit:1.0000000" />
			<path
   id="path105"
   d="M 90.636000,197.80500 C 95.417000,197.80500 94.540000,203.13200 92.018000,203.13200 C 89.496000,203.13200 88.965000,197.80500 93.615000,197.80500"
   style="fill:none;stroke:#000000;stroke-width:0.50000000;stroke-miterlimit:1.0000000" />
			<path
   id="path107"
   d="M 93.615000,197.80500 C 98.397000,197.80500 97.519000,203.13200 94.997000,203.13200 C 92.475000,203.13200 91.943000,197.80500 96.594000,197.80500"
   style="fill:none;stroke:#000000;stroke-width:0.50000000;stroke-miterlimit:1.0000000" />
			<path
   id="path109"
   d="M 96.593000,197.80500 C 101.37500,197.80500 100.49700,203.13200 97.975000,203.13200 C 95.453000,203.13200 94.922000,197.80500 99.572000,197.80500"
   style="fill:none;stroke:#000000;stroke-width:0.50000000;stroke-miterlimit:1.0000000" />
			<path
   id="path111"
   d="M 99.572000,197.80500 C 104.35400,197.80500 103.47600,203.13200 100.95400,203.13200 C 98.432000,203.13200 97.900000,197.80500 102.55100,197.80500"
   style="fill:none;stroke:#000000;stroke-width:0.50000000;stroke-miterlimit:1.0000000" />
			<path
   id="path113"
   d="M 102.55100,197.80500 C 107.33200,197.80500 106.45500,203.13200 103.93300,203.13200 C 101.41100,203.13200 100.88000,197.80500 105.53000,197.80500"
   style="fill:none;stroke:#000000;stroke-width:0.50000000;stroke-miterlimit:1.0000000" />
			<path
   id="path115"
   d="M 105.53000,197.80500 C 110.31200,197.80500 109.43400,203.13200 106.91200,203.13200 C 104.39000,203.13200 103.85800,197.80500 108.50900,197.80500"
   style="fill:none;stroke:#000000;stroke-width:0.50000000;stroke-miterlimit:1.0000000" />
			<path
   id="path117"
   d="M 108.50900,197.80500 C 113.29000,197.80500 112.41300,203.13200 109.89100,203.13200 C 107.36900,203.13200 106.83800,197.80500 111.48800,197.80500"
   style="fill:none;stroke:#000000;stroke-width:0.50000000;stroke-miterlimit:1.0000000" />
			<path
   id="path119"
   d="M 111.48700,197.80500 C 116.26900,197.80500 115.39100,203.13200 112.86900,203.13200 C 110.34700,203.13200 109.81600,197.80500 114.46600,197.80500"
   style="fill:none;stroke:#000000;stroke-width:0.50000000;stroke-miterlimit:1.0000000" />
		</g><g
   id="g121"
   transform="translate(18.29659,-4.000000)">
			<path
   id="path123"
   d="M 61.812000,153.95300 C 56.071000,153.95300 57.401000,159.28000 60.515000,159.28000 C 63.628000,159.28000 65.510000,153.95300 59.606000,153.95300 L 57.238000,153.95300"
   style="fill:none;stroke:#000000;stroke-width:0.50000000;stroke-miterlimit:1.0000000" />
			<path
   id="path125"
   d="M 61.812000,153.95300 C 67.715000,153.95300 65.834000,159.28000 62.720000,159.28000 C 59.606000,159.28000 58.277000,153.95300 64.018000,153.95300"
   style="fill:none;stroke:#000000;stroke-width:0.50000000;stroke-miterlimit:1.0000000" />
			<path
   id="path127"
   d="M 64.019000,153.95300 C 69.922000,153.95300 68.041000,159.28000 64.927000,159.28000 C 61.813000,159.28000 60.484000,153.95300 66.225000,153.95300"
   style="fill:none;stroke:#000000;stroke-width:0.50000000;stroke-miterlimit:1.0000000" />
			<path
   id="path129"
   d="M 66.226000,153.95300 C 72.129000,153.95300 70.248000,159.28000 67.134000,159.28000 C 64.020000,159.28000 62.690000,153.95300 68.431000,153.95300"
   style="fill:none;stroke:#000000;stroke-width:0.50000000;stroke-miterlimit:1.0000000" />
			<path
   id="path131"
   d="M 68.432000,153.95300 C 74.335000,153.95300 72.454000,159.28000 69.340000,159.28000 C 66.226000,159.28000 64.896000,153.95300 70.638000,153.95300"
   style="fill:none;stroke:#000000;stroke-width:0.50000000;stroke-miterlimit:1.0000000" />
			<path
   id="path133"
   d="M 70.639000,153.95300 C 76.542000,153.95300 74.661000,159.28000 71.547000,159.28000 C 68.433000,159.28000 67.103000,153.95300 72.844000,153.95300"
   style="fill:none;stroke:#000000;stroke-width:0.50000000;stroke-miterlimit:1.0000000" />
			<path
   id="path135"
   d="M 72.845000,153.95300 C 78.748000,153.95300 76.867000,159.28000 73.753000,159.28000 C 70.639000,159.28000 69.309000,153.95300 75.050000,153.95300"
   style="fill:none;stroke:#000000;stroke-width:0.50000000;stroke-miterlimit:1.0000000" />
			<path
   id="path137"
   d="M 75.052000,153.95300 C 80.955000,153.95300 79.074000,159.28000 75.960000,159.28000 C 72.846000,159.28000 71.516000,153.95300 77.257000,153.95300"
   style="fill:none;stroke:#000000;stroke-width:0.50000000;stroke-miterlimit:1.0000000" />
			<path
   id="path139"
   d="M 77.258000,153.95300 C 83.161000,153.95300 81.280000,159.28000 78.166000,159.28000 C 75.052000,159.28000 73.722000,153.95300 79.463000,153.95300"
   style="fill:none;stroke:#000000;stroke-width:0.50000000;stroke-miterlimit:1.0000000" />
			<path
   id="path141"
   d="M 79.465000,153.95300 C 85.368000,153.95300 83.487000,159.28000 80.373000,159.28000 C 77.259000,159.28000 75.929000,153.95300 81.670000,153.95300"
   style="fill:none;stroke:#000000;stroke-width:0.50000000;stroke-miterlimit:1.0000000" />
			<path
   id="path143"
   d="M 81.671000,153.95300 C 87.574000,153.95300 85.693000,159.28000 82.579000,159.28000 C 79.465000,159.28000 78.135000,153.95300 83.876000,153.95300"
   style="fill:none;stroke:#000000;stroke-width:0.50000000;stroke-miterlimit:1.0000000" />
			<path
   id="path145"
   d="M 83.878000,153.95300 C 89.781000,153.95300 87.900000,159.28000 84.786000,159.28000 C 81.672000,159.28000 80.342000,153.95300 86.083000,153.95300"
   style="fill:none;stroke:#000000;stroke-width:0.50000000;stroke-miterlimit:1.0000000" />
			<path
   id="path147"
   d="M 86.084000,153.95300 C 91.987000,153.95300 90.106000,159.28000 86.992000,159.28000 C 83.878000,159.28000 82.548000,153.95300 88.289000,153.95300"
   style="fill:none;stroke:#000000;stroke-width:0.50000000;stroke-miterlimit:1.0000000" />
			<path
   id="path149"
   d="M 88.291000,153.95300 C 94.194000,153.95300 92.313000,159.28000 89.199000,159.28000 C 86.085000,159.28000 84.755000,153.95300 90.496000,153.95300"
   style="fill:none;stroke:#000000;stroke-width:0.50000000;stroke-miterlimit:1.0000000" />
			<path
   id="path151"
   d="M 90.498000,153.95300 C 96.401000,153.95300 94.520000,159.28000 91.406000,159.28000 C 88.292000,159.28000 86.962000,153.95300 92.703000,153.95300"
   style="fill:none;stroke:#000000;stroke-width:0.50000000;stroke-miterlimit:1.0000000" />
			<path
   id="path153"
   d="M 92.704000,153.95300 C 98.607000,153.95300 96.726000,159.28000 93.612000,159.28000 C 90.498000,159.28000 89.168000,153.95300 94.909000,153.95300"
   style="fill:none;stroke:#000000;stroke-width:0.50000000;stroke-miterlimit:1.0000000" />
			<path
   id="path155"
   d="M 94.910000,153.95300 C 100.81300,153.95300 98.932000,159.28000 95.818000,159.28000 C 92.705000,159.28000 91.375000,153.95300 97.116000,153.95300"
   style="fill:none;stroke:#000000;stroke-width:0.50000000;stroke-miterlimit:1.0000000" />
			<path
   id="path157"
   d="M 97.117000,153.95300 C 103.02000,153.95300 101.13900,159.28000 98.025000,159.28000 C 94.911000,159.28000 93.582000,153.95300 99.323000,153.95300"
   style="fill:none;stroke:#000000;stroke-width:0.50000000;stroke-miterlimit:1.0000000" />
		</g><g
   id="g159"
   transform="translate(18.29659,-4.000000)">
			<path
   id="path161"
   d="M 63.386000,175.87900 C 57.645000,175.87900 58.975000,181.20500 62.089000,181.20500 C 65.203000,181.20500 67.084000,175.87900 61.181000,175.87900 L 58.813000,175.87900"
   style="fill:none;stroke:#000000;stroke-width:0.50000000;stroke-miterlimit:1.0000000" />
			<path
   id="path163"
   d="M 63.387000,175.87900 C 69.290000,175.87900 67.409000,181.20500 64.295000,181.20500 C 61.181000,181.20500 59.851000,175.87900 65.592000,175.87900"
   style="fill:none;stroke:#000000;stroke-width:0.50000000;stroke-miterlimit:1.0000000" />
			<path
   id="path165"
   d="M 65.594000,175.87900 C 71.497000,175.87900 69.616000,181.20500 66.502000,181.20500 C 63.388000,181.20500 62.058000,175.87900 67.799000,175.87900"
   style="fill:none;stroke:#000000;stroke-width:0.50000000;stroke-miterlimit:1.0000000" />
			<path
   id="path167"
   d="M 67.800000,175.87900 C 73.703000,175.87900 71.822000,181.20500 68.708000,181.20500 C 65.594000,181.20500 64.264000,175.87900 70.005000,175.87900"
   style="fill:none;stroke:#000000;stroke-width:0.50000000;stroke-miterlimit:1.0000000" />
			<path
   id="path169"
   d="M 70.007000,175.87900 C 75.910000,175.87900 74.029000,181.20500 70.915000,181.20500 C 67.801000,181.20500 66.471000,175.87900 72.212000,175.87900"
   style="fill:none;stroke:#000000;stroke-width:0.50000000;stroke-miterlimit:1.0000000" />
			<path
   id="path171"
   d="M 72.213000,175.87900 C 78.116000,175.87900 76.235000,181.20500 73.121000,181.20500 C 70.007000,181.20500 68.677000,175.87900 74.418000,175.87900"
   style="fill:none;stroke:#000000;stroke-width:0.50000000;stroke-miterlimit:1.0000000" />
			<path
   id="path173"
   d="M 74.419000,175.87900 C 80.322000,175.87900 78.441000,181.20500 75.328000,181.20500 C 72.214000,181.20500 70.884000,175.87900 76.625000,175.87900"
   style="fill:none;stroke:#000000;stroke-width:0.50000000;stroke-miterlimit:1.0000000" />
			<path
   id="path175"
   d="M 76.626000,175.87900 C 82.529000,175.87900 80.648000,181.20500 77.534000,181.20500 C 74.420000,181.20500 73.090000,175.87900 78.831000,175.87900"
   style="fill:none;stroke:#000000;stroke-width:0.50000000;stroke-miterlimit:1.0000000" />
			<path
   id="path177"
   d="M 78.833000,175.87900 C 84.736000,175.87900 82.855000,181.20500 79.741000,181.20500 C 76.627000,181.20500 75.298000,175.87900 81.039000,175.87900"
   style="fill:none;stroke:#000000;stroke-width:0.50000000;stroke-miterlimit:1.0000000" />
			<path
   id="path179"
   d="M 81.039000,175.87900 C 86.942000,175.87900 85.061000,181.20500 81.947000,181.20500 C 78.833000,181.20500 77.504000,175.87900 83.245000,175.87900"
   style="fill:none;stroke:#000000;stroke-width:0.50000000;stroke-miterlimit:1.0000000" />
			<path
   id="path181"
   d="M 83.246000,175.87900 C 89.149000,175.87900 87.268000,181.20500 84.154000,181.20500 C 81.040000,181.20500 79.711000,175.87900 85.452000,175.87900"
   style="fill:none;stroke:#000000;stroke-width:0.50000000;stroke-miterlimit:1.0000000" />
			<path
   id="path183"
   d="M 85.452000,175.87900 C 91.355000,175.87900 89.474000,181.20500 86.360000,181.20500 C 83.246000,181.20500 81.917000,175.87900 87.657000,175.87900"
   style="fill:none;stroke:#000000;stroke-width:0.50000000;stroke-miterlimit:1.0000000" />
			<path
   id="path185"
   d="M 87.659000,175.87900 C 93.562000,175.87900 91.681000,181.20500 88.567000,181.20500 C 85.453000,181.20500 84.124000,175.87900 89.864000,175.87900"
   style="fill:none;stroke:#000000;stroke-width:0.50000000;stroke-miterlimit:1.0000000" />
			<path
   id="path187"
   d="M 89.865000,175.87900 C 95.768000,175.87900 93.887000,181.20500 90.773000,181.20500 C 87.659000,181.20500 86.330000,175.87900 92.070000,175.87900"
   style="fill:none;stroke:#000000;stroke-width:0.50000000;stroke-miterlimit:1.0000000" />
			<path
   id="path189"
   d="M 92.072000,175.87900 C 97.975000,175.87900 96.094000,181.20500 92.980000,181.20500 C 89.866000,181.20500 88.536000,175.87900 94.277000,175.87900"
   style="fill:none;stroke:#000000;stroke-width:0.50000000;stroke-miterlimit:1.0000000" />
			<path
   id="path191"
   d="M 94.278000,175.87900 C 100.18100,175.87900 98.300000,181.20500 95.186000,181.20500 C 92.072000,181.20500 90.742000,175.87900 96.483000,175.87900"
   style="fill:none;stroke:#000000;stroke-width:0.50000000;stroke-miterlimit:1.0000000" />
			<path
   id="path193"
   d="M 96.485000,175.87900 C 102.38800,175.87900 100.50700,181.20500 97.393000,181.20500 C 94.279000,181.20500 92.949000,175.87900 98.690000,175.87900"
   style="fill:none;stroke:#000000;stroke-width:0.50000000;stroke-miterlimit:1.0000000" />
			<path
   id="path195"
   d="M 98.691000,175.87900 C 104.59400,175.87900 102.71300,181.20500 99.599000,181.20500 C 96.485000,181.20500 95.155000,175.87900 100.89600,175.87900"
   style="fill:none;stroke:#000000;stroke-width:0.50000000;stroke-miterlimit:1.0000000" />
		</g><g
   id="g197"
   transform="translate(18.29659,-4.000000)">
			<path
   id="path199"
   d="M 63.386000,307.43500 C 57.645000,307.43500 58.975000,312.76200 62.089000,312.76200 C 65.203000,312.76200 67.084000,307.43500 61.181000,307.43500 L 58.813000,307.43500"
   style="fill:none;stroke:#000000;stroke-width:0.50000000;stroke-miterlimit:1.0000000" />
			<path
   id="path201"
   d="M 63.387000,307.43500 C 69.290000,307.43500 67.409000,312.76200 64.295000,312.76200 C 61.181000,312.76200 59.851000,307.43500 65.592000,307.43500"
   style="fill:none;stroke:#000000;stroke-width:0.50000000;stroke-miterlimit:1.0000000" />
			<path
   id="path203"
   d="M 65.594000,307.43500 C 71.497000,307.43500 69.616000,312.76200 66.502000,312.76200 C 63.388000,312.76200 62.058000,307.43500 67.799000,307.43500"
   style="fill:none;stroke:#000000;stroke-width:0.50000000;stroke-miterlimit:1.0000000" />
			<path
   id="path205"
   d="M 67.800000,307.43500 C 73.703000,307.43500 71.822000,312.76200 68.708000,312.76200 C 65.594000,312.76200 64.264000,307.43500 70.005000,307.43500"
   style="fill:none;stroke:#000000;stroke-width:0.50000000;stroke-miterlimit:1.0000000" />
			<path
   id="path207"
   d="M 70.007000,307.43500 C 75.910000,307.43500 74.029000,312.76200 70.915000,312.76200 C 67.801000,312.76200 66.471000,307.43500 72.212000,307.43500"
   style="fill:none;stroke:#000000;stroke-width:0.50000000;stroke-miterlimit:1.0000000" />
			<path
   id="path209"
   d="M 72.213000,307.43500 C 78.116000,307.43500 76.235000,312.76200 73.121000,312.76200 C 70.007000,312.76200 68.677000,307.43500 74.418000,307.43500"
   style="fill:none;stroke:#000000;stroke-width:0.50000000;stroke-miterlimit:1.0000000" />
			<path
   id="path211"
   d="M 74.419000,307.43500 C 80.322000,307.43500 78.441000,312.76200 75.328000,312.76200 C 72.214000,312.76200 70.884000,307.43500 76.625000,307.43500"
   style="fill:none;stroke:#000000;stroke-width:0.50000000;stroke-miterlimit:1.0000000" />
			<path
   id="path213"
   d="M 76.626000,307.43500 C 82.529000,307.43500 80.648000,312.76200 77.534000,312.76200 C 74.420000,312.76200 73.090000,307.43500 78.831000,307.43500"
   style="fill:none;stroke:#000000;stroke-width:0.50000000;stroke-miterlimit:1.0000000" />
			<path
   id="path215"
   d="M 78.833000,307.43500 C 84.736000,307.43500 82.855000,312.76200 79.741000,312.76200 C 76.627000,312.76200 75.298000,307.43500 81.039000,307.43500"
   style="fill:none;stroke:#000000;stroke-width:0.50000000;stroke-miterlimit:1.0000000" />
			<path
   id="path217"
   d="M 81.039000,307.43500 C 86.942000,307.43500 85.061000,312.76200 81.947000,312.76200 C 78.833000,312.76200 77.504000,307.43500 83.245000,307.43500"
   style="fill:none;stroke:#000000;stroke-width:0.50000000;stroke-miterlimit:1.0000000" />
			<path
   id="path219"
   d="M 83.246000,307.43500 C 89.149000,307.43500 87.268000,312.76200 84.154000,312.76200 C 81.040000,312.76200 79.711000,307.43500 85.452000,307.43500"
   style="fill:none;stroke:#000000;stroke-width:0.50000000;stroke-miterlimit:1.0000000" />
			<path
   id="path221"
   d="M 85.452000,307.43500 C 91.355000,307.43500 89.474000,312.76200 86.360000,312.76200 C 83.246000,312.76200 81.917000,307.43500 87.657000,307.43500"
   style="fill:none;stroke:#000000;stroke-width:0.50000000;stroke-miterlimit:1.0000000" />
			<path
   id="path223"
   d="M 87.659000,307.43500 C 93.562000,307.43500 91.681000,312.76200 88.567000,312.76200 C 85.453000,312.76200 84.124000,307.43500 89.864000,307.43500"
   style="fill:none;stroke:#000000;stroke-width:0.50000000;stroke-miterlimit:1.0000000" />
			<path
   id="path225"
   d="M 89.865000,307.43500 C 95.768000,307.43500 93.887000,312.76200 90.773000,312.76200 C 87.659000,312.76200 86.330000,307.43500 92.070000,307.43500"
   style="fill:none;stroke:#000000;stroke-width:0.50000000;stroke-miterlimit:1.0000000" />
			<path
   id="path227"
   d="M 92.072000,307.43500 C 97.975000,307.43500 96.094000,312.76200 92.980000,312.76200 C 89.866000,312.76200 88.536000,307.43500 94.277000,307.43500"
   style="fill:none;stroke:#000000;stroke-width:0.50000000;stroke-miterlimit:1.0000000" />
			<path
   id="path229"
   d="M 94.278000,307.43500 C 100.18100,307.43500 98.300000,312.76200 95.186000,312.76200 C 92.072000,312.76200 90.742000,307.43500 96.483000,307.43500"
   style="fill:none;stroke:#000000;stroke-width:0.50000000;stroke-miterlimit:1.0000000" />
			<path
   id="path231"
   d="M 96.485000,307.43500 C 102.38800,307.43500 100.50700,312.76200 97.393000,312.76200 C 94.279000,312.76200 92.949000,307.43500 98.690000,307.43500"
   style="fill:none;stroke:#000000;stroke-width:0.50000000;stroke-miterlimit:1.0000000" />
			<path
   id="path233"
   d="M 98.691000,307.43500 C 104.59400,307.43500 102.71300,312.76200 99.599000,312.76200 C 96.485000,312.76200 95.155000,307.43500 100.89600,307.43500"
   style="fill:none;stroke:#000000;stroke-width:0.50000000;stroke-miterlimit:1.0000000" />
		</g><g
   id="g235"
   transform="translate(18.29659,-4.000000)">
			<path
   id="path237"
   d="M 63.476000,285.50900 C 57.735000,285.50900 59.065000,290.83600 62.179000,290.83600 C 65.293000,290.83600 67.174000,285.50900 61.271000,285.50900 L 58.903000,285.50900"
   style="fill:none;stroke:#000000;stroke-width:0.50000000;stroke-miterlimit:1.0000000" />
			<path
   id="path239"
   d="M 63.477000,285.50900 C 69.380000,285.50900 67.499000,290.83600 64.385000,290.83600 C 61.271000,290.83600 59.941000,285.50900 65.682000,285.50900"
   style="fill:none;stroke:#000000;stroke-width:0.50000000;stroke-miterlimit:1.0000000" />
			<path
   id="path241"
   d="M 65.684000,285.50900 C 71.587000,285.50900 69.706000,290.83600 66.592000,290.83600 C 63.478000,290.83600 62.148000,285.50900 67.889000,285.50900"
   style="fill:none;stroke:#000000;stroke-width:0.50000000;stroke-miterlimit:1.0000000" />
			<path
   id="path243"
   d="M 67.890000,285.50900 C 73.793000,285.50900 71.912000,290.83600 68.798000,290.83600 C 65.684000,290.83600 64.355000,285.50900 70.096000,285.50900"
   style="fill:none;stroke:#000000;stroke-width:0.50000000;stroke-miterlimit:1.0000000" />
			<path
   id="path245"
   d="M 70.097000,285.50900 C 76.000000,285.50900 74.119000,290.83600 71.005000,290.83600 C 67.891000,290.83600 66.561000,285.50900 72.302000,285.50900"
   style="fill:none;stroke:#000000;stroke-width:0.50000000;stroke-miterlimit:1.0000000" />
			<path
   id="path247"
   d="M 72.303000,285.50900 C 78.206000,285.50900 76.325000,290.83600 73.211000,290.83600 C 70.097000,290.83600 68.768000,285.50900 74.509000,285.50900"
   style="fill:none;stroke:#000000;stroke-width:0.50000000;stroke-miterlimit:1.0000000" />
			<path
   id="path249"
   d="M 74.509000,285.50900 C 80.412000,285.50900 78.531000,290.83600 75.417000,290.83600 C 72.303000,290.83600 70.974000,285.50900 76.714000,285.50900"
   style="fill:none;stroke:#000000;stroke-width:0.50000000;stroke-miterlimit:1.0000000" />
			<path
   id="path251"
   d="M 76.716000,285.50900 C 82.619000,285.50900 80.738000,290.83600 77.624000,290.83600 C 74.510000,290.83600 73.181000,285.50900 78.921000,285.50900"
   style="fill:none;stroke:#000000;stroke-width:0.50000000;stroke-miterlimit:1.0000000" />
			<path
   id="path253"
   d="M 78.922000,285.50900 C 84.825000,285.50900 82.944000,290.83600 79.830000,290.83600 C 76.716000,290.83600 75.387000,285.50900 81.127000,285.50900"
   style="fill:none;stroke:#000000;stroke-width:0.50000000;stroke-miterlimit:1.0000000" />
			<path
   id="path255"
   d="M 81.129000,285.50900 C 87.032000,285.50900 85.151000,290.83600 82.037000,290.83600 C 78.923000,290.83600 77.594000,285.50900 83.334000,285.50900"
   style="fill:none;stroke:#000000;stroke-width:0.50000000;stroke-miterlimit:1.0000000" />
			<path
   id="path257"
   d="M 83.335000,285.50900 C 89.238000,285.50900 87.357000,290.83600 84.243000,290.83600 C 81.129000,290.83600 79.799000,285.50900 85.540000,285.50900"
   style="fill:none;stroke:#000000;stroke-width:0.50000000;stroke-miterlimit:1.0000000" />
			<path
   id="path259"
   d="M 85.542000,285.50900 C 91.445000,285.50900 89.564000,290.83600 86.450000,290.83600 C 83.336000,290.83600 82.006000,285.50900 87.747000,285.50900"
   style="fill:none;stroke:#000000;stroke-width:0.50000000;stroke-miterlimit:1.0000000" />
			<path
   id="path261"
   d="M 87.749000,285.50900 C 93.652000,285.50900 91.771000,290.83600 88.657000,290.83600 C 85.543000,290.83600 84.213000,285.50900 89.954000,285.50900"
   style="fill:none;stroke:#000000;stroke-width:0.50000000;stroke-miterlimit:1.0000000" />
			<path
   id="path263"
   d="M 89.955000,285.50900 C 95.858000,285.50900 93.977000,290.83600 90.863000,290.83600 C 87.749000,290.83600 86.419000,285.50900 92.160000,285.50900"
   style="fill:none;stroke:#000000;stroke-width:0.50000000;stroke-miterlimit:1.0000000" />
			<path
   id="path265"
   d="M 92.162000,285.50900 C 98.065000,285.50900 96.184000,290.83600 93.070000,290.83600 C 89.956000,290.83600 88.626000,285.50900 94.367000,285.50900"
   style="fill:none;stroke:#000000;stroke-width:0.50000000;stroke-miterlimit:1.0000000" />
			<path
   id="path267"
   d="M 94.368000,285.50900 C 100.27100,285.50900 98.390000,290.83600 95.276000,290.83600 C 92.162000,290.83600 90.832000,285.50900 96.573000,285.50900"
   style="fill:none;stroke:#000000;stroke-width:0.50000000;stroke-miterlimit:1.0000000" />
			<path
   id="path269"
   d="M 96.575000,285.50900 C 102.47800,285.50900 100.59700,290.83600 97.483000,290.83600 C 94.369000,290.83600 93.039000,285.50900 98.780000,285.50900"
   style="fill:none;stroke:#000000;stroke-width:0.50000000;stroke-miterlimit:1.0000000" />
			<path
   id="path271"
   d="M 98.781000,285.50900 C 104.68400,285.50900 102.80300,290.83600 99.689000,290.83600 C 96.575000,290.83600 95.245000,285.50900 100.98600,285.50900"
   style="fill:none;stroke:#000000;stroke-width:0.50000000;stroke-miterlimit:1.0000000" />
		</g><g
   id="g273"
   transform="translate(18.29659,-4.000000)">
			<path
   id="path275"
   d="M 62.901000,241.65700 C 56.970000,241.65700 57.648000,246.98300 60.864000,246.98300 C 64.080000,246.98300 65.200000,241.65700 59.101000,241.65700 L 57.530000,241.65700"
   style="fill:none;stroke:#000000;stroke-width:0.50000000;stroke-miterlimit:1.0000000" />
			<path
   id="path277"
   d="M 62.901000,241.65700 C 68.999000,241.65700 67.880000,246.98300 64.664000,246.98300 C 61.448000,246.98300 60.769000,241.65700 66.701000,241.65700"
   style="fill:none;stroke:#000000;stroke-width:0.50000000;stroke-miterlimit:1.0000000" />
			<path
   id="path279"
   d="M 66.700000,241.65700 C 72.799000,241.65700 71.679000,246.98300 68.463000,246.98300 C 65.247000,246.98300 64.569000,241.65700 70.500000,241.65700"
   style="fill:none;stroke:#000000;stroke-width:0.50000000;stroke-miterlimit:1.0000000" />
			<path
   id="path281"
   d="M 70.499000,241.65700 C 76.598000,241.65700 75.478000,246.98300 72.262000,246.98300 C 69.045000,246.98300 68.367000,241.65700 74.298000,241.65700"
   style="fill:none;stroke:#000000;stroke-width:0.50000000;stroke-miterlimit:1.0000000" />
			<path
   id="path283"
   d="M 74.298000,241.65700 C 80.396000,241.65700 79.277000,246.98300 76.061000,246.98300 C 72.845000,246.98300 72.166000,241.65700 78.098000,241.65700"
   style="fill:none;stroke:#000000;stroke-width:0.50000000;stroke-miterlimit:1.0000000" />
			<path
   id="path285"
   d="M 78.097000,241.65700 C 84.196000,241.65700 83.076000,246.98300 79.860000,246.98300 C 76.644000,246.98300 75.966000,241.65700 81.897000,241.65700"
   style="fill:none;stroke:#000000;stroke-width:0.50000000;stroke-miterlimit:1.0000000" />
			<path
   id="path287"
   d="M 81.896000,241.65700 C 87.994000,241.65700 86.875000,246.98300 83.659000,246.98300 C 80.443000,246.98300 79.764000,241.65700 85.696000,241.65700"
   style="fill:none;stroke:#000000;stroke-width:0.50000000;stroke-miterlimit:1.0000000" />
			<path
   id="path289"
   d="M 85.695000,241.65700 C 91.794000,241.65700 90.674000,246.98300 87.458000,246.98300 C 84.242000,246.98300 83.564000,241.65700 89.495000,241.65700"
   style="fill:none;stroke:#000000;stroke-width:0.50000000;stroke-miterlimit:1.0000000" />
			<path
   id="path291"
   d="M 89.494000,241.65700 C 95.593000,241.65700 94.473000,246.98300 91.257000,246.98300 C 88.040000,246.98300 87.362000,241.65700 93.294000,241.65700"
   style="fill:none;stroke:#000000;stroke-width:0.50000000;stroke-miterlimit:1.0000000" />
			<path
   id="path293"
   d="M 93.293000,241.65700 C 99.392000,241.65700 98.272000,246.98300 95.056000,246.98300 C 91.840000,246.98300 91.162000,241.65700 97.093000,241.65700"
   style="fill:none;stroke:#000000;stroke-width:0.50000000;stroke-miterlimit:1.0000000" />
			<path
   id="path295"
   d="M 97.092000,241.65700 C 103.19000,241.65700 102.07100,246.98300 98.855000,246.98300 C 95.638000,246.98300 94.960000,241.65700 100.89100,241.65700"
   style="fill:none;stroke:#000000;stroke-width:0.50000000;stroke-miterlimit:1.0000000" />
			<path
   id="path297"
   d="M 100.89100,241.65700 C 106.98900,241.65700 105.87000,246.98300 102.65400,246.98300 C 99.438000,246.98300 98.760000,241.65700 104.69100,241.65700"
   style="fill:none;stroke:#000000;stroke-width:0.50000000;stroke-miterlimit:1.0000000" />
			<path
   id="path299"
   d="M 104.69000,241.65700 C 110.78900,241.65700 109.66900,246.98300 106.45300,246.98300 C 103.23700,246.98300 102.55900,241.65700 108.49000,241.65700"
   style="fill:none;stroke:#000000;stroke-width:0.50000000;stroke-miterlimit:1.0000000" />
			<path
   id="path301"
   d="M 108.48900,241.65700 C 114.58700,241.65700 113.46800,246.98300 110.25100,246.98300 C 107.03500,246.98300 106.35700,241.65700 112.28800,241.65700"
   style="fill:none;stroke:#000000;stroke-width:0.50000000;stroke-miterlimit:1.0000000" />
			<path
   id="path303"
   d="M 112.28800,241.65700 C 118.38700,241.65700 117.26700,246.98300 114.05100,246.98300 C 110.83500,246.98300 110.15700,241.65700 116.08800,241.65700"
   style="fill:none;stroke:#000000;stroke-width:0.50000000;stroke-miterlimit:1.0000000" />
			<path
   id="path305"
   d="M 116.08700,241.65700 C 122.18600,241.65700 121.06600,246.98300 117.85000,246.98300 C 114.63400,246.98300 113.95600,241.65700 119.88700,241.65700"
   style="fill:none;stroke:#000000;stroke-width:0.50000000;stroke-miterlimit:1.0000000" />
			<path
   id="path307"
   d="M 119.88600,241.65700 C 125.98400,241.65700 124.86500,246.98300 121.64900,246.98300 C 118.43300,246.98300 117.75500,241.65700 123.68600,241.65700"
   style="fill:none;stroke:#000000;stroke-width:0.50000000;stroke-miterlimit:1.0000000" />
			<path
   id="path309"
   d="M 123.68500,241.65700 C 129.78400,241.65700 128.66400,246.98300 125.44800,246.98300 C 122.23100,246.98300 121.55300,241.65700 127.48400,241.65700"
   style="fill:none;stroke:#000000;stroke-width:0.50000000;stroke-miterlimit:1.0000000" />
		</g><g
   id="g311"
   transform="translate(18.29659,-4.000000)">
			<path
   id="path313"
   d="M 63.667000,329.36100 C 57.935000,329.36100 58.959000,334.68700 62.068000,334.68700 C 65.177000,334.68700 66.625000,329.36100 60.732000,329.36100 L 58.992000,329.36100"
   style="fill:none;stroke:#000000;stroke-width:0.50000000;stroke-miterlimit:1.0000000" />
			<path
   id="path315"
   d="M 63.669000,329.36100 C 69.563000,329.36100 68.114000,334.68700 65.005000,334.68700 C 61.897000,334.68700 60.872000,329.36100 66.604000,329.36100"
   style="fill:none;stroke:#000000;stroke-width:0.50000000;stroke-miterlimit:1.0000000" />
			<path
   id="path317"
   d="M 66.606000,329.36100 C 72.500000,329.36100 71.051000,334.68700 67.942000,334.68700 C 64.833000,334.68700 63.809000,329.36100 69.541000,329.36100"
   style="fill:none;stroke:#000000;stroke-width:0.50000000;stroke-miterlimit:1.0000000" />
			<path
   id="path319"
   d="M 69.544000,329.36100 C 75.438000,329.36100 73.989000,334.68700 70.880000,334.68700 C 67.771000,334.68700 66.747000,329.36100 72.479000,329.36100"
   style="fill:none;stroke:#000000;stroke-width:0.50000000;stroke-miterlimit:1.0000000" />
			<path
   id="path321"
   d="M 72.481000,329.36100 C 78.375000,329.36100 76.926000,334.68700 73.817000,334.68700 C 70.708000,334.68700 69.684000,329.36100 75.416000,329.36100"
   style="fill:none;stroke:#000000;stroke-width:0.50000000;stroke-miterlimit:1.0000000" />
			<path
   id="path323"
   d="M 75.418000,329.36100 C 81.312000,329.36100 79.863000,334.68700 76.754000,334.68700 C 73.645000,334.68700 72.621000,329.36100 78.353000,329.36100"
   style="fill:none;stroke:#000000;stroke-width:0.50000000;stroke-miterlimit:1.0000000" />
			<path
   id="path325"
   d="M 78.355000,329.36100 C 84.249000,329.36100 82.801000,334.68700 79.691000,334.68700 C 76.582000,334.68700 75.558000,329.36100 81.290000,329.36100"
   style="fill:none;stroke:#000000;stroke-width:0.50000000;stroke-miterlimit:1.0000000" />
			<path
   id="path327"
   d="M 81.293000,329.36100 C 87.187000,329.36100 85.738000,334.68700 82.629000,334.68700 C 79.520000,334.68700 78.496000,329.36100 84.228000,329.36100"
   style="fill:none;stroke:#000000;stroke-width:0.50000000;stroke-miterlimit:1.0000000" />
			<path
   id="path329"
   d="M 84.230000,329.36100 C 90.124000,329.36100 88.675000,334.68700 85.566000,334.68700 C 82.457000,334.68700 81.433000,329.36100 87.165000,329.36100"
   style="fill:none;stroke:#000000;stroke-width:0.50000000;stroke-miterlimit:1.0000000" />
			<path
   id="path331"
   d="M 87.168000,329.36100 C 93.062000,329.36100 91.613000,334.68700 88.504000,334.68700 C 85.395000,334.68700 84.371000,329.36100 90.103000,329.36100"
   style="fill:none;stroke:#000000;stroke-width:0.50000000;stroke-miterlimit:1.0000000" />
			<path
   id="path333"
   d="M 90.105000,329.36100 C 95.999000,329.36100 94.550000,334.68700 91.441000,334.68700 C 88.332000,334.68700 87.308000,329.36100 93.040000,329.36100"
   style="fill:none;stroke:#000000;stroke-width:0.50000000;stroke-miterlimit:1.0000000" />
			<path
   id="path335"
   d="M 93.042000,329.36100 C 98.936000,329.36100 97.487000,334.68700 94.378000,334.68700 C 91.269000,334.68700 90.244000,329.36100 95.977000,329.36100"
   style="fill:none;stroke:#000000;stroke-width:0.50000000;stroke-miterlimit:1.0000000" />
			<path
   id="path337"
   d="M 95.979000,329.36100 C 101.87300,329.36100 100.42400,334.68700 97.315000,334.68700 C 94.206000,334.68700 93.182000,329.36100 98.914000,329.36100"
   style="fill:none;stroke:#000000;stroke-width:0.50000000;stroke-miterlimit:1.0000000" />
			<path
   id="path339"
   d="M 98.917000,329.36100 C 104.81100,329.36100 103.36200,334.68700 100.25300,334.68700 C 97.144000,334.68700 96.120000,329.36100 101.85200,329.36100"
   style="fill:none;stroke:#000000;stroke-width:0.50000000;stroke-miterlimit:1.0000000" />
			<path
   id="path341"
   d="M 101.85400,329.36100 C 107.74800,329.36100 106.29900,334.68700 103.19000,334.68700 C 100.08100,334.68700 99.057000,329.36100 104.78900,329.36100"
   style="fill:none;stroke:#000000;stroke-width:0.50000000;stroke-miterlimit:1.0000000" />
			<path
   id="path343"
   d="M 104.79200,329.36100 C 110.68600,329.36100 109.23700,334.68700 106.12800,334.68700 C 103.01900,334.68700 101.99500,329.36100 107.72700,329.36100"
   style="fill:none;stroke:#000000;stroke-width:0.50000000;stroke-miterlimit:1.0000000" />
			<path
   id="path345"
   d="M 107.72900,329.36100 C 113.62300,329.36100 112.17400,334.68700 109.06500,334.68700 C 105.95700,334.68700 104.93200,329.36100 110.66400,329.36100"
   style="fill:none;stroke:#000000;stroke-width:0.50000000;stroke-miterlimit:1.0000000" />
			<path
   id="path347"
   d="M 110.66600,329.36100 C 116.56000,329.36100 115.11100,334.68700 112.00200,334.68700 C 108.89300,334.68700 107.86900,329.36100 113.60100,329.36100"
   style="fill:none;stroke:#000000;stroke-width:0.50000000;stroke-miterlimit:1.0000000" />
		</g><g
   id="g349"
   transform="translate(18.29659,-4.000000)">
			<path
   id="path351"
   d="M 61.647000,132.02700 C 55.915000,132.02700 56.939000,137.35400 60.048000,137.35400 C 63.157000,137.35400 64.606000,132.02700 58.712000,132.02700 L 56.972000,132.02700"
   style="fill:none;stroke:#000000;stroke-width:0.50000000;stroke-miterlimit:1.0000000" />
			<path
   id="path353"
   d="M 61.649000,132.02700 C 67.543000,132.02700 66.094000,137.35400 62.985000,137.35400 C 59.877000,137.35400 58.852000,132.02700 64.584000,132.02700"
   style="fill:none;stroke:#000000;stroke-width:0.50000000;stroke-miterlimit:1.0000000" />
			<path
   id="path355"
   d="M 64.586000,132.02700 C 70.480000,132.02700 69.031000,137.35400 65.922000,137.35400 C 62.813000,137.35400 61.789000,132.02700 67.521000,132.02700"
   style="fill:none;stroke:#000000;stroke-width:0.50000000;stroke-miterlimit:1.0000000" />
			<path
   id="path357"
   d="M 67.524000,132.02700 C 73.418000,132.02700 71.969000,137.35400 68.860000,137.35400 C 65.751000,137.35400 64.727000,132.02700 70.459000,132.02700"
   style="fill:none;stroke:#000000;stroke-width:0.50000000;stroke-miterlimit:1.0000000" />
			<path
   id="path359"
   d="M 70.461000,132.02700 C 76.355000,132.02700 74.906000,137.35400 71.797000,137.35400 C 68.688000,137.35400 67.664000,132.02700 73.396000,132.02700"
   style="fill:none;stroke:#000000;stroke-width:0.50000000;stroke-miterlimit:1.0000000" />
			<path
   id="path361"
   d="M 73.398000,132.02700 C 79.292000,132.02700 77.843000,137.35400 74.734000,137.35400 C 71.625000,137.35400 70.601000,132.02700 76.333000,132.02700"
   style="fill:none;stroke:#000000;stroke-width:0.50000000;stroke-miterlimit:1.0000000" />
			<path
   id="path363"
   d="M 76.336000,132.02700 C 82.230000,132.02700 80.781000,137.35400 77.672000,137.35400 C 74.563000,137.35400 73.539000,132.02700 79.270000,132.02700"
   style="fill:none;stroke:#000000;stroke-width:0.50000000;stroke-miterlimit:1.0000000" />
			<path
   id="path365"
   d="M 79.273000,132.02700 C 85.167000,132.02700 83.718000,137.35400 80.609000,137.35400 C 77.500000,137.35400 76.476000,132.02700 82.208000,132.02700"
   style="fill:none;stroke:#000000;stroke-width:0.50000000;stroke-miterlimit:1.0000000" />
			<path
   id="path367"
   d="M 82.210000,132.02700 C 88.104000,132.02700 86.655000,137.35400 83.546000,137.35400 C 80.437000,137.35400 79.413000,132.02700 85.145000,132.02700"
   style="fill:none;stroke:#000000;stroke-width:0.50000000;stroke-miterlimit:1.0000000" />
			<path
   id="path369"
   d="M 85.148000,132.02700 C 91.042000,132.02700 89.593000,137.35400 86.484000,137.35400 C 83.375000,137.35400 82.350000,132.02700 88.083000,132.02700"
   style="fill:none;stroke:#000000;stroke-width:0.50000000;stroke-miterlimit:1.0000000" />
			<path
   id="path371"
   d="M 88.085000,132.02700 C 93.979000,132.02700 92.530000,137.35400 89.421000,137.35400 C 86.312000,137.35400 85.288000,132.02700 91.020000,132.02700"
   style="fill:none;stroke:#000000;stroke-width:0.50000000;stroke-miterlimit:1.0000000" />
			<path
   id="path373"
   d="M 91.022000,132.02700 C 96.916000,132.02700 95.467000,137.35400 92.358000,137.35400 C 89.249000,137.35400 88.225000,132.02700 93.957000,132.02700"
   style="fill:none;stroke:#000000;stroke-width:0.50000000;stroke-miterlimit:1.0000000" />
			<path
   id="path375"
   d="M 93.959000,132.02700 C 99.853000,132.02700 98.404000,137.35400 95.295000,137.35400 C 92.186000,137.35400 91.162000,132.02700 96.894000,132.02700"
   style="fill:none;stroke:#000000;stroke-width:0.50000000;stroke-miterlimit:1.0000000" />
			<path
   id="path377"
   d="M 96.897000,132.02700 C 102.79100,132.02700 101.34200,137.35400 98.233000,137.35400 C 95.124000,137.35400 94.100000,132.02700 99.832000,132.02700"
   style="fill:none;stroke:#000000;stroke-width:0.50000000;stroke-miterlimit:1.0000000" />
			<path
   id="path379"
   d="M 99.834000,132.02700 C 105.72800,132.02700 104.27900,137.35400 101.17000,137.35400 C 98.061000,137.35400 97.037000,132.02700 102.76900,132.02700"
   style="fill:none;stroke:#000000;stroke-width:0.50000000;stroke-miterlimit:1.0000000" />
			<path
   id="path381"
   d="M 102.77100,132.02700 C 108.66500,132.02700 107.21600,137.35400 104.10700,137.35400 C 100.99800,137.35400 99.974000,132.02700 105.70600,132.02700"
   style="fill:none;stroke:#000000;stroke-width:0.50000000;stroke-miterlimit:1.0000000" />
			<path
   id="path383"
   d="M 105.70900,132.02700 C 111.60300,132.02700 110.15400,137.35400 107.04500,137.35400 C 103.93700,137.35400 102.91200,132.02700 108.64400,132.02700"
   style="fill:none;stroke:#000000;stroke-width:0.50000000;stroke-miterlimit:1.0000000" />
			<path
   id="path385"
   d="M 108.64600,132.02700 C 114.54000,132.02700 113.09100,137.35400 109.98200,137.35400 C 106.87300,137.35400 105.84900,132.02700 111.58100,132.02700"
   style="fill:none;stroke:#000000;stroke-width:0.50000000;stroke-miterlimit:1.0000000" />
		</g><g
   id="g387"
   transform="translate(18.29659,-4.000000)">
			<rect
   id="rect389"
   height="14.248000"
   width="12.306000"
   style="fill:#b4b4b4"
   y="324.12100"
   x="46.838001" /> 
			<line
   id="line391"
   y2="324.19101"
   x2="59.488998"
   y1="338.29901"
   x1="59.488998"
   style="fill:none;stroke:#7f7f7f" />
		</g><rect
   id="rect393"
   height="13.867000"
   width="16.719999"
   style="fill:#7f7f7f;stroke:#000000"
   y="320.31201"
   x="133.25160" /><g
   id="g395"
   transform="translate(18.29659,-4.000000)">
			<rect
   id="rect397"
   height="14.248000"
   width="12.306000"
   style="fill:#b4b4b4"
   y="302.18900"
   x="46.838001" /> 
			<line
   id="line399"
   y2="302.25900"
   x2="59.488998"
   y1="316.36700"
   x1="59.488998"
   style="fill:none;stroke:#7f7f7f" />
		</g><rect
   id="rect401"
   height="13.867000"
   width="16.719999"
   style="fill:#7f7f7f;stroke:#000000"
   y="298.37900"
   x="119.59260" /><g
   id="g403"
   transform="translate(18.29659,-4.000000)">
			<rect
   id="rect405"
   height="14.249000"
   width="12.306000"
   style="fill:#b4b4b4"
   y="280.01001"
   x="46.838001" /> 
			<line
   id="line407"
   y2="294.18799"
   x2="59.488998"
   y1="280.07999"
   x1="59.488998"
   style="fill:none;stroke:#7f7f7f" />
		</g><rect
   id="rect409"
   height="13.867000"
   width="16.719999"
   style="fill:#7f7f7f;stroke:#000000"
   y="276.20099"
   x="119.22959" /><g
   id="g411"
   transform="translate(18.29659,-4.000000)">
			<rect
   id="rect413"
   height="14.249000"
   width="12.306000"
   style="fill:#b4b4b4"
   y="258.16101"
   x="46.838001" /> 
			<line
   id="line415"
   y2="272.33899"
   x2="59.488998"
   y1="258.23099"
   x1="59.488998"
   style="fill:none;stroke:#7f7f7f" />
		</g><rect
   id="rect417"
   height="13.867000"
   width="16.719999"
   style="fill:#7f7f7f;stroke:#000000"
   y="254.35199"
   x="130.21960" /><g
   id="g419"
   transform="translate(18.29659,-4.000000)">
			<rect
   id="rect421"
   height="14.248000"
   width="12.306000"
   style="fill:#b4b4b4"
   y="237.22301"
   x="46.838001" /> 
			<line
   id="line423"
   y2="251.39999"
   x2="59.488998"
   y1="237.29300"
   x1="59.488998"
   style="fill:none;stroke:#7f7f7f" />
		</g><rect
   id="rect425"
   height="13.867000"
   width="16.719999"
   style="fill:#7f7f7f;stroke:#000000"
   y="233.41299"
   x="142.91960" /><g
   id="g427"
   transform="translate(18.29659,-4.000000)">
			<rect
   id="rect429"
   height="14.249000"
   width="12.306000"
   style="fill:#b4b4b4"
   y="214.87900"
   x="46.838001" /> 
			<line
   id="line431"
   y2="214.95000"
   x2="59.488998"
   y1="229.05701"
   x1="59.488998"
   style="fill:none;stroke:#7f7f7f" />
		</g><rect
   id="rect433"
   height="13.867000"
   width="16.719999"
   style="fill:#7f7f7f;stroke:#000000"
   y="211.07001"
   x="142.82260" /><g
   id="g435"
   transform="translate(18.29659,-4.000000)">
			<rect
   id="rect437"
   height="14.249000"
   width="12.306000"
   style="fill:#b4b4b4"
   y="192.95000"
   x="46.838001" /> 
			<line
   id="line439"
   y2="193.02100"
   x2="59.488998"
   y1="207.12801"
   x1="59.488998"
   style="fill:none;stroke:#7f7f7f" />
		</g><rect
   id="rect441"
   height="13.867000"
   width="16.719999"
   style="fill:#7f7f7f;stroke:#000000"
   y="189.14101"
   x="132.31261" /><g
   id="g443"
   transform="translate(18.29659,-4.000000)">
			<rect
   id="rect445"
   height="14.249000"
   width="12.306000"
   style="fill:#b4b4b4"
   y="171.37000"
   x="46.838001" /> 
			<line
   id="line447"
   y2="171.44000"
   x2="59.488998"
   y1="185.54700"
   x1="59.488998"
   style="fill:none;stroke:#7f7f7f" />
		</g><rect
   id="rect449"
   height="13.867000"
   width="16.719999"
   style="fill:#7f7f7f;stroke:#000000"
   y="167.56100"
   x="119.57160" /><g
   id="g451"
   transform="translate(18.29659,-4.000000)">
			<rect
   id="rect453"
   height="14.249000"
   width="12.306000"
   style="fill:#b4b4b4"
   y="150.31200"
   x="46.838001" /> 
			<line
   id="line455"
   y2="164.49001"
   x2="59.488998"
   y1="150.38200"
   x1="59.488998"
   style="fill:none;stroke:#7f7f7f" />
		</g><rect
   id="rect457"
   height="13.867000"
   width="16.719999"
   style="fill:#7f7f7f;stroke:#000000"
   y="146.50301"
   x="118.85760" /><g
   id="g459"
   transform="translate(14.29659,4.000000)">
			<path
   id="path461"
   d="M 61.655000,3.0970000 C 55.843000,3.0970000 56.881000,8.4230000 60.034000,8.4230000 C 63.187000,8.4230000 64.656000,3.0970000 58.679000,3.0970000 L 56.914000,3.0970000"
   style="fill:none;stroke:#000000;stroke-width:0.50000000;stroke-miterlimit:1.0000000" />
			<path
   id="path463"
   d="M 61.657000,3.0970000 C 67.634000,3.0970000 66.165000,8.4230000 63.012000,8.4230000 C 59.859000,8.4230000 58.820000,3.0970000 64.633000,3.0970000"
   style="fill:none;stroke:#000000;stroke-width:0.50000000;stroke-miterlimit:1.0000000" />
			<path
   id="path465"
   d="M 64.636000,3.0970000 C 70.613000,3.0970000 69.144000,8.4230000 65.991000,8.4230000 C 62.838000,8.4230000 61.800000,3.0970000 67.612000,3.0970000"
   style="fill:none;stroke:#000000;stroke-width:0.50000000;stroke-miterlimit:1.0000000" />
			<path
   id="path467"
   d="M 67.615000,3.0970000 C 73.592000,3.0970000 72.123000,8.4230000 68.970000,8.4230000 C 65.817000,8.4230000 64.778000,3.0970000 70.591000,3.0970000"
   style="fill:none;stroke:#000000;stroke-width:0.50000000;stroke-miterlimit:1.0000000" />
			<path
   id="path469"
   d="M 70.593000,3.0970000 C 76.570000,3.0970000 75.101000,8.4230000 71.948000,8.4230000 C 68.795000,8.4230000 67.756000,3.0970000 73.569000,3.0970000"
   style="fill:none;stroke:#000000;stroke-width:0.50000000;stroke-miterlimit:1.0000000" />
			<path
   id="path471"
   d="M 73.572000,3.0970000 C 79.549000,3.0970000 78.080000,8.4230000 74.927000,8.4230000 C 71.774000,8.4230000 70.736000,3.0970000 76.549000,3.0970000"
   style="fill:none;stroke:#000000;stroke-width:0.50000000;stroke-miterlimit:1.0000000" />
			<path
   id="path473"
   d="M 76.551000,3.0970000 C 82.528000,3.0970000 81.059000,8.4230000 77.906000,8.4230000 C 74.753000,8.4230000 73.715000,3.0970000 79.527000,3.0970000"
   style="fill:none;stroke:#000000;stroke-width:0.50000000;stroke-miterlimit:1.0000000" />
			<path
   id="path475"
   d="M 79.530000,3.0970000 C 85.507000,3.0970000 84.038000,8.4230000 80.885000,8.4230000 C 77.732000,8.4230000 76.694000,3.0970000 82.506000,3.0970000"
   style="fill:none;stroke:#000000;stroke-width:0.50000000;stroke-miterlimit:1.0000000" />
			<path
   id="path477"
   d="M 82.508000,3.0970000 C 88.485000,3.0970000 87.016000,8.4230000 83.863000,8.4230000 C 80.710000,8.4230000 79.672000,3.0970000 85.484000,3.0970000"
   style="fill:none;stroke:#000000;stroke-width:0.50000000;stroke-miterlimit:1.0000000" />
			<path
   id="path479"
   d="M 85.487000,3.0970000 C 91.464000,3.0970000 89.995000,8.4230000 86.842000,8.4230000 C 83.690000,8.4230000 82.651000,3.0970000 88.463000,3.0970000"
   style="fill:none;stroke:#000000;stroke-width:0.50000000;stroke-miterlimit:1.0000000" />
			<path
   id="path481"
   d="M 88.466000,3.0970000 C 94.443000,3.0970000 92.974000,8.4230000 89.821000,8.4230000 C 86.668000,8.4230000 85.629000,3.0970000 91.442000,3.0970000"
   style="fill:none;stroke:#000000;stroke-width:0.50000000;stroke-miterlimit:1.0000000" />
			<path
   id="path483"
   d="M 91.445000,3.0970000 C 97.422000,3.0970000 95.953000,8.4230000 92.800000,8.4230000 C 89.647000,8.4230000 88.609000,3.0970000 94.422000,3.0970000"
   style="fill:none;stroke:#000000;stroke-width:0.50000000;stroke-miterlimit:1.0000000" />
			<path
   id="path485"
   d="M 94.423000,3.0970000 C 100.40000,3.0970000 98.931000,8.4230000 95.778000,8.4230000 C 92.625000,8.4230000 91.586000,3.0970000 97.399000,3.0970000"
   style="fill:none;stroke:#000000;stroke-width:0.50000000;stroke-miterlimit:1.0000000" />
			<path
   id="path487"
   d="M 97.402000,3.0970000 C 103.37900,3.0970000 101.91000,8.4230000 98.757000,8.4230000 C 95.604000,8.4230000 94.566000,3.0970000 100.37800,3.0970000"
   style="fill:none;stroke:#000000;stroke-width:0.50000000;stroke-miterlimit:1.0000000" />
			<path
   id="path489"
   d="M 100.38100,3.0970000 C 106.35800,3.0970000 104.88900,8.4230000 101.73600,8.4230000 C 98.584000,8.4230000 97.545000,3.0970000 103.35800,3.0970000"
   style="fill:none;stroke:#000000;stroke-width:0.50000000;stroke-miterlimit:1.0000000" />
			<path
   id="path491"
   d="M 103.36000,3.0970000 C 109.33700,3.0970000 107.86800,8.4230000 104.71500,8.4230000 C 101.56300,8.4230000 100.52400,3.0970000 106.33600,3.0970000"
   style="fill:none;stroke:#000000;stroke-width:0.50000000;stroke-miterlimit:1.0000000" />
			<path
   id="path493"
   d="M 106.33800,3.0970000 C 112.31500,3.0970000 110.84600,8.4230000 107.69300,8.4230000 C 104.54000,8.4230000 103.50100,3.0970000 109.31400,3.0970000"
   style="fill:none;stroke:#000000;stroke-width:0.50000000;stroke-miterlimit:1.0000000" />
			<path
   id="path495"
   d="M 109.31700,3.0970000 C 115.29400,3.0970000 113.82500,8.4230000 110.67200,8.4230000 C 107.51900,8.4230000 106.48100,3.0970000 112.29300,3.0970000"
   style="fill:none;stroke:#000000;stroke-width:0.50000000;stroke-miterlimit:1.0000000" />
		</g><g
   id="g497"
   transform="translate(10.00000,4.000000)">
			<text
   id="text499"
   transform="translate(0.000000,9.000000)"><tspan
     id="tspan501"
     style="font-size:7.6500001px;font-family:Liberation Sans"
     y="0"
     x="0">1</tspan></text>


		</g><g
   id="g503"
   transform="translate(10.00000,4.000000)">
			<text
   id="text505"
   transform="translate(0.000000,41.67720)"><tspan
     id="tspan507"
     style="font-size:7.6500001px;font-family:Liberation Sans"
     y="0"
     x="0">2</tspan></text>


		</g><g
   id="g509"
   transform="translate(10.00000,6.000000)">
			<text
   id="text511"
   transform="translate(0.000000,75.46780)"><tspan
     id="tspan513"
     style="font-size:7.6500001px;font-family:Liberation Sans"
     y="0"
     x="0">3</tspan></text>


		</g><g
   id="g515"
   transform="translate(10.00000,-4.000000)">
			<text
   id="text517"
   transform="translate(0.000000,137.9351)"><tspan
     id="tspan519"
     style="font-size:7.6500001px;font-family:Liberation Sans"
     y="0"
     x="0">4</tspan></text>


		</g><g
   id="g521"
   transform="translate(10.00000,-4.000000)">
			<text
   id="text523"
   transform="translate(0.000000,159.8174)"><tspan
     id="tspan525"
     style="font-size:7.6500001px;font-family:Liberation Sans"
     y="0"
     x="0">5</tspan></text>


		</g><g
   id="g527"
   transform="translate(10.00000,-4.000000)">
			<text
   id="text529"
   transform="translate(0.000000,181.6997)"><tspan
     id="tspan531"
     style="font-size:7.6500001px;font-family:Liberation Sans"
     y="0"
     x="0">6</tspan></text>


		</g><g
   id="g533"
   transform="translate(10.00000,-4.000000)">
			<text
   id="text535"
   transform="translate(0.000000,203.5815)"><tspan
     id="tspan537"
     style="font-size:7.6500001px;font-family:Liberation Sans"
     y="0"
     x="0">7</tspan></text>


		</g><g
   id="g539"
   transform="translate(10.00000,-4.000000)">
			<text
   id="text541"
   transform="translate(0.000000,225.4639)"><tspan
     id="tspan543"
     style="font-size:7.6500001px;font-family:Liberation Sans"
     y="0"
     x="0">8</tspan></text>


		</g><g
   id="g545"
   transform="translate(10.00000,-4.000000)">
			<text
   id="text547"
   transform="translate(0.000000,247.3462)"><tspan
     id="tspan549"
     style="font-size:7.6500001px;font-family:Liberation Sans"
     y="0"
     x="0">9</tspan></text>


		</g><g
   id="g551"
   transform="translate(10.00000,-4.000000)">
			<text
   id="text553"
   transform="translate(0.000000,269.2280)"><tspan
     id="tspan555"
     style="font-size:7.6500001px;font-family:Liberation Sans"
     y="0"
     x="0">10</tspan></text>


		</g><g
   id="g557"
   transform="translate(10.00000,-4.000000)">
			<text
   id="text559"
   transform="translate(0.000000,291.1104)"><tspan
     id="tspan561"
     style="font-size:7.6500001px;font-family:Liberation Sans"
     y="0"
     x="0">11</tspan></text>


		</g><g
   id="g563"
   transform="translate(10.00000,-4.000000)">
			<text
   id="text565"
   transform="translate(0.000000,312.9927)"><tspan
     id="tspan567"
     style="font-size:7.6500001px;font-family:Liberation Sans"
     y="0"
     x="0">12</tspan></text>


		</g><g
   id="g569"
   transform="translate(10.00000,-4.000000)">
			<text
   id="text571"
   transform="translate(0.000000,334.8745)"><tspan
     id="tspan573"
     style="font-size:7.6500001px;font-family:Liberation Sans"
     y="0"
     x="0">13</tspan></text>


		</g><g
   id="g575"
   transform="translate(14.29659,4.000000)">
			<g
   id="g577">
				<path
   id="path579"
   d="M 26.683000,27.921000 C 30.758000,28.571000 31.376000,28.636000 34.155000,28.766000 C 36.933000,28.896000 38.168000,28.701000 39.897000,28.896000 C 41.626000,29.091000 42.491000,29.611000 44.034000,29.936000 C 45.578000,30.261000 49.097000,30.911000 49.283000,31.236000 C 49.469000,31.561000 50.395000,33.056000 50.765000,34.421000 C 51.136000,35.786000 51.444000,36.826000 51.259000,37.281000 C 51.074000,37.736000 50.271000,39.621000 50.086000,39.881000 C 49.852000,40.210000 49.345000,41.766000 48.913000,41.831000 C 48.481000,41.896000 47.740000,40.856000 47.555000,40.011000 C 47.369000,39.166000 47.909000,38.233000 48.049000,37.663000 C 48.111000,37.411000 47.555000,35.396000 46.999000,35.136000 C 46.443000,34.876000 45.517000,34.746000 45.023000,35.006000 C 44.529000,35.266000 43.603000,35.006000 43.541000,35.461000 C 43.479000,35.916000 43.788000,37.021000 44.035000,37.606000 C 44.282000,38.191000 44.776000,39.556000 44.714000,40.336000 C 44.652000,41.116000 44.158000,41.766000 43.665000,41.961000 C 43.171000,42.156000 41.874000,42.351000 41.503000,42.091000 C 41.132000,41.831000 40.454000,41.376000 40.207000,40.466000 C 39.960000,39.556000 40.639000,42.936000 40.639000,43.131000 C 40.639000,43.326000 40.083000,44.236000 39.342000,44.301000 C 38.601000,44.366000 37.243000,44.496000 36.996000,44.041000 C 36.749000,43.586000 36.564000,42.546000 36.255000,41.831000 C 35.946000,41.116000 37.058000,44.301000 36.008000,44.821000 C 34.958000,45.341000 34.279000,45.406000 33.723000,45.081000 C 33.167000,44.756000 32.180000,43.716000 32.056000,43.066000 C 31.932000,42.416000 30.883000,39.881000 30.883000,39.881000"
   style="fill:none;stroke:#000000;stroke-width:0.50000000" />
				<path
   id="path581"
   d="M 22.361000,34.941000 C 22.361000,34.941000 23.657000,36.306000 24.028000,36.826000 C 24.399000,37.346000 25.386000,38.776000 26.251000,39.426000 C 27.115000,40.076000 30.326000,41.051000 30.820000,41.441000 C 31.314000,41.831000 31.931000,42.416000 31.931000,42.416000"
   style="fill:none;stroke:#000000;stroke-width:0.50000000" />
				<line
   id="line583"
   y2="40.271000"
   x2="40.144001"
   y1="37.736000"
   x1="39.465000"
   style="fill:none;stroke:#000000;stroke-width:0.50000000" />
				<line
   id="line585"
   y2="38.841000"
   x2="35.637001"
   y1="41.636002"
   x1="36.192001"
   style="fill:none;stroke:#000000;stroke-width:0.50000000" />
				<path
   id="path587"
   d="M 32.858000,37.996000 C 33.722000,38.321000 35.019000,37.671000 35.019000,37.281000"
   style="fill:none;stroke:#000000;stroke-width:0.50000000" />
				<path
   id="path589"
   d="M 36.254000,35.201000 C 37.674000,35.396000 37.859000,34.811000 37.613000,34.161000"
   style="fill:none;stroke:#000000;stroke-width:0.50000000" />
				<line
   id="line591"
   y2="35.460999"
   x2="43.541000"
   y1="32.276001"
   x1="42.491001"
   style="fill:none;stroke:#000000;stroke-width:0.50000000" />
				<line
   id="line593"
   y2="37.289001"
   x2="49.839001"
   y1="37.418999"
   x1="48.233002"
   style="fill:none;stroke:#000000;stroke-width:0.50000000" />
				<path
   id="path595"
   d="M 47.369000,33.576000 C 47.369000,33.576000 46.813000,34.746000 46.998000,35.136000"
   style="fill:none;stroke:#000000;stroke-width:0.50000000" />
			</g>
			<g
   id="g597">
				<path
   id="path599"
   d="M 151.41400,30.439000 C 149.12900,30.829000 141.34900,31.349000 140.17600,31.349000 C 139.00300,31.349000 134.80300,31.739000 134.31000,31.869000 C 133.81600,31.999000 130.54300,32.129000 129.86400,32.259000 C 129.18500,32.389000 126.28200,32.584000 126.03500,32.714000 C 125.78800,32.844000 124.24400,33.624000 124.05900,34.144000 C 123.87400,34.664000 122.39200,36.939000 122.33000,37.394000 C 122.26800,37.849000 121.96000,39.539000 122.08300,40.189000 C 122.20600,40.839000 122.57700,42.204000 122.76200,42.594000 C 122.94700,42.984000 123.31800,43.764000 123.56500,43.829000 C 123.81200,43.894000 124.30600,44.089000 124.73800,43.699000 C 125.17100,43.309000 125.47900,43.114000 125.54100,42.269000 C 125.60300,41.424000 125.54100,40.774000 125.54100,40.514000 C 125.54100,40.059000 126.65300,38.889000 126.65300,38.889000 L 126.83800,38.889000 C 126.83800,38.889000 126.65300,38.694000 127.08500,38.629000 C 127.51700,38.564000 129.67800,38.369000 129.92500,38.369000 C 130.17200,38.369000 130.66600,38.239000 130.66600,38.239000"
   style="fill:none;stroke:#000000;stroke-width:0.50000000" />
				<path
   id="path601"
   d="M 131.03700,35.574000 C 130.97500,36.874000 130.66600,38.369000 130.54300,39.279000 C 130.41900,40.189000 130.04900,41.489000 129.80200,42.724000 C 129.55500,43.959000 129.12300,44.479000 129.98800,45.389000 C 130.85200,46.299000 130.91400,47.079000 131.28400,47.729000 C 131.54300,48.184000 132.19500,48.765000 132.75300,48.896000 C 132.75300,48.896000 138.81700,48.639000 139.18800,48.444000"
   style="fill:none;stroke:#000000;stroke-width:0.50000000" />
				<path
   id="path603"
   d="M 134.98900,38.564000 C 134.68000,40.189000 134.37100,42.074000 134.18600,43.244000 C 134.00100,44.414000 133.44500,46.234000 133.63000,46.949000 C 133.81500,47.664000 134.98800,48.509000 135.85300,48.509000 C 136.71800,48.509000 137.64400,47.924000 137.95300,46.949000 C 138.26200,45.974000 138.44700,43.829000 138.44700,43.829000"
   style="fill:none;stroke:#000000;stroke-width:0.50000000" />
				<path
   id="path605"
   d="M 137.82900,47.144000 C 138.81700,48.054000 140.05200,49.224000 141.16300,48.899000 C 142.27400,48.574000 142.52100,47.664000 143.01600,46.819000 C 143.07400,46.720000 143.14100,46.620000 143.21600,46.520000"
   style="fill:none;stroke:#000000;stroke-width:0.50000000" />
				<path
   id="path607"
   d="M 142.95400,44.089000 C 143.32500,44.999000 143.69500,45.714000 143.69500,45.714000"
   style="fill:none;stroke:#000000;stroke-width:0.50000000" />
				<path
   id="path609"
   d="M 138.75500,38.954000 C 138.01400,39.604000 137.52000,41.164000 138.01400,42.074000"
   style="fill:none;stroke:#000000;stroke-width:0.50000000" />
				<path
   id="path611"
   d="M 136.59400,35.444000 C 135.17400,35.899000 134.92700,37.979000 134.92700,37.979000"
   style="fill:none;stroke:#000000;stroke-width:0.50000000" />
				<path
   id="path613"
   d="M 138.32300,34.989000 C 140.48400,35.054000 140.97800,34.989000 140.97800,34.989000"
   style="fill:none;stroke:#000000;stroke-width:0.50000000" />
				<line
   id="line615"
   y2="38.629002"
   x2="127.08500"
   y1="37.328999"
   x1="126.59100"
   style="fill:none;stroke:#000000;stroke-width:0.50000000" />
				<line
   id="line617"
   y2="40.449001"
   x2="125.72700"
   y1="40.254002"
   x1="124.12100"
   style="fill:none;stroke:#000000;stroke-width:0.50000000" />
				<path
   id="path619"
   d="M 144.37500,45.714000 C 146.10400,45.584000 153.32900,43.114000 153.51400,42.594000"
   style="fill:none;stroke:#000000;stroke-width:0.50000000" />
				<path
   id="path621"
   d="M 148.14100,40.579000 C 148.14100,40.579000 144.93000,44.999000 144.06500,45.649000"
   style="fill:none;stroke:#000000;stroke-width:0.50000000" />
				<path
   id="path623"
   d="M 130.48100,45.779000 C 131.09900,46.039000 133.56800,45.454000 133.75400,45.259000"
   style="fill:none;stroke:#000000;stroke-width:0.50000000" />
			</g>
			<g
   id="g625">
				<path
   id="path627"
   d="M 56.320000,35.048000 C 50.389000,35.048000 51.067000,40.374000 54.283000,40.374000 C 57.499000,40.374000 58.619000,35.048000 52.520000,35.048000 L 50.950000,35.048000"
   style="fill:none;stroke:#000000;stroke-width:0.50000000;stroke-miterlimit:1.0000000" />
				<path
   id="path629"
   d="M 56.320000,35.048000 C 62.418000,35.048000 61.299000,40.374000 58.083000,40.374000 C 54.867000,40.374000 54.188000,35.048000 60.119000,35.048000"
   style="fill:none;stroke:#000000;stroke-width:0.50000000;stroke-miterlimit:1.0000000" />
				<path
   id="path631"
   d="M 60.119000,35.048000 C 66.218000,35.048000 65.098000,40.374000 61.882000,40.374000 C 58.666000,40.374000 57.988000,35.048000 63.919000,35.048000"
   style="fill:none;stroke:#000000;stroke-width:0.50000000;stroke-miterlimit:1.0000000" />
				<path
   id="path633"
   d="M 63.918000,35.048000 C 70.017000,35.048000 68.897000,40.374000 65.681000,40.374000 C 62.465000,40.374000 61.787000,35.048000 67.718000,35.048000"
   style="fill:none;stroke:#000000;stroke-width:0.50000000;stroke-miterlimit:1.0000000" />
				<path
   id="path635"
   d="M 67.717000,35.048000 C 73.815000,35.048000 72.696000,40.374000 69.480000,40.374000 C 66.264000,40.374000 65.585000,35.048000 71.517000,35.048000"
   style="fill:none;stroke:#000000;stroke-width:0.50000000;stroke-miterlimit:1.0000000" />
				<path
   id="path637"
   d="M 71.516000,35.048000 C 77.615000,35.048000 76.495000,40.374000 73.279000,40.374000 C 70.063000,40.374000 69.385000,35.048000 75.316000,35.048000"
   style="fill:none;stroke:#000000;stroke-width:0.50000000;stroke-miterlimit:1.0000000" />
				<path
   id="path639"
   d="M 75.315000,35.048000 C 81.413000,35.048000 80.294000,40.374000 77.078000,40.374000 C 73.861000,40.374000 73.183000,35.048000 79.115000,35.048000"
   style="fill:none;stroke:#000000;stroke-width:0.50000000;stroke-miterlimit:1.0000000" />
				<path
   id="path641"
   d="M 79.114000,35.048000 C 85.213000,35.048000 84.093000,40.374000 80.877000,40.374000 C 77.661000,40.374000 76.983000,35.048000 82.914000,35.048000"
   style="fill:none;stroke:#000000;stroke-width:0.50000000;stroke-miterlimit:1.0000000" />
				<path
   id="path643"
   d="M 82.914000,35.048000 C 89.012000,35.048000 87.893000,40.374000 84.677000,40.374000 C 81.461000,40.374000 80.783000,35.048000 86.714000,35.048000"
   style="fill:none;stroke:#000000;stroke-width:0.50000000;stroke-miterlimit:1.0000000" />
				<path
   id="path645"
   d="M 86.712000,35.048000 C 92.810000,35.048000 91.691000,40.374000 88.475000,40.374000 C 85.259000,40.374000 84.581000,35.048000 90.512000,35.048000"
   style="fill:none;stroke:#000000;stroke-width:0.50000000;stroke-miterlimit:1.0000000" />
				<path
   id="path647"
   d="M 90.512000,35.048000 C 96.610000,35.048000 95.491000,40.374000 92.275000,40.374000 C 89.058000,40.374000 88.380000,35.048000 94.311000,35.048000"
   style="fill:none;stroke:#000000;stroke-width:0.50000000;stroke-miterlimit:1.0000000" />
				<path
   id="path649"
   d="M 94.311000,35.048000 C 100.40900,35.048000 99.290000,40.374000 96.074000,40.374000 C 92.858000,40.374000 92.180000,35.048000 98.111000,35.048000"
   style="fill:none;stroke:#000000;stroke-width:0.50000000;stroke-miterlimit:1.0000000" />
				<path
   id="path651"
   d="M 98.109000,35.048000 C 104.20800,35.048000 103.08800,40.374000 99.872000,40.374000 C 96.656000,40.374000 95.978000,35.048000 101.90900,35.048000"
   style="fill:none;stroke:#000000;stroke-width:0.50000000;stroke-miterlimit:1.0000000" />
				<path
   id="path653"
   d="M 101.90900,35.048000 C 108.00700,35.048000 106.88800,40.374000 103.67200,40.374000 C 100.45600,40.374000 99.777000,35.048000 105.70900,35.048000"
   style="fill:none;stroke:#000000;stroke-width:0.50000000;stroke-miterlimit:1.0000000" />
				<path
   id="path655"
   d="M 105.70800,35.048000 C 111.80600,35.048000 110.68700,40.374000 107.47100,40.374000 C 104.25500,40.374000 103.57700,35.048000 109.50800,35.048000"
   style="fill:none;stroke:#000000;stroke-width:0.50000000;stroke-miterlimit:1.0000000" />
				<path
   id="path657"
   d="M 109.50600,35.048000 C 115.60500,35.048000 114.48500,40.374000 111.26900,40.374000 C 108.05200,40.374000 107.37400,35.048000 113.30600,35.048000"
   style="fill:none;stroke:#000000;stroke-width:0.50000000;stroke-miterlimit:1.0000000" />
				<path
   id="path659"
   d="M 113.30600,35.048000 C 119.40500,35.048000 118.28500,40.374000 115.06900,40.374000 C 111.85300,40.374000 111.17500,35.048000 117.10600,35.048000"
   style="fill:none;stroke:#000000;stroke-width:0.50000000;stroke-miterlimit:1.0000000" />
				<path
   id="path661"
   d="M 117.10400,35.048000 C 123.20300,35.048000 122.08300,40.374000 118.86700,40.374000 C 115.65100,40.374000 114.97300,35.048000 120.90400,35.048000"
   style="fill:none;stroke:#000000;stroke-width:0.50000000;stroke-miterlimit:1.0000000" />
			</g>
		</g><g
   id="g663"
   transform="translate(14.29659,4.000000)">
			<g
   id="g665">
				<path
   id="path667"
   d="M 49.131000,80.800000 C 50.659000,79.084000 51.984000,78.977000 52.392000,78.334000 C 52.799000,77.690000 55.143000,75.116000 55.754000,73.830000 C 56.365000,72.543000 58.199000,69.433000 58.810000,68.896000 C 59.421000,68.359000 60.542000,66.858000 60.950000,66.429000 C 61.358000,66.000000 62.580000,63.748000 62.988000,63.104000 C 63.271000,62.658000 64.109000,61.388000 64.618000,61.495000 C 65.127000,61.602000 66.044000,61.924000 66.146000,62.460000 C 66.248000,62.997000 66.146000,64.391000 65.840000,64.927000 C 65.534000,65.463000 63.191000,69.861000 62.987000,70.397000 C 62.783000,70.933000 61.968000,72.328000 61.663000,72.971000 C 61.357000,73.615000 61.765000,77.047000 61.459000,77.798000 C 61.154000,78.548000 60.644000,79.836000 60.033000,81.444000 C 59.422000,83.053000 57.893000,85.520000 56.671000,86.270000 C 55.448000,87.021000 50.354000,88.201000 50.354000,88.201000"
   style="fill:none;stroke:#000000;stroke-width:0.50000000" />
				<path
   id="path669"
   d="M 59.830000,81.980000 C 60.136000,81.873000 61.358000,81.122000 62.071000,79.942000 C 62.784000,78.762000 63.396000,77.475000 63.803000,76.296000 C 64.210000,75.116000 63.905000,74.365000 64.312000,72.971000 C 64.720000,71.577000 65.535000,71.577000 65.942000,70.505000 C 66.349000,69.432000 67.470000,68.682000 67.674000,68.145000 C 67.878000,67.609000 68.795000,66.429000 68.795000,65.249000 C 68.795000,64.069000 67.267000,64.177000 66.146000,64.069000 C 66.146000,64.069000 67.063000,62.460000 67.267000,61.710000 C 67.471000,60.959000 68.490000,59.458000 68.795000,59.029000 C 69.101000,58.600000 68.999000,56.884000 68.999000,56.348000 C 68.999000,55.811000 67.675000,55.704000 67.267000,55.704000 C 66.860000,55.704000 66.656000,56.776000 66.248000,57.312000 C 65.841000,57.849000 64.720000,59.779000 64.109000,60.958000 L 59.931000,66.750000 L 57.995000,69.646000"
   style="fill:none;stroke:#000000;stroke-width:0.50000000" />
				<path
   id="path671"
   d="M 66.860000,55.275000 C 67.064000,54.739000 67.573000,53.452000 68.082000,53.345000 C 68.592000,53.238000 69.814000,53.238000 69.916000,54.095000 C 70.018000,54.953000 70.018000,55.811000 69.407000,57.205000"
   style="fill:none;stroke:#000000;stroke-width:0.50000000" />
				<line
   id="line673"
   y2="69.431999"
   x2="66.146004"
   y1="68.467003"
   x1="65.432999"
   style="fill:none;stroke:#000000;stroke-width:0.50000000" />
				<path
   id="path675"
   d="M 51.271000,81.229000 C 52.188000,82.516000 51.984000,84.232000 51.984000,84.232000"
   style="fill:none;stroke:#000000;stroke-width:0.50000000" />
				<line
   id="line677"
   y2="72.005997"
   x2="63.498001"
   y1="72.542000"
   x1="64.415001"
   style="fill:none;stroke:#000000;stroke-width:0.50000000" />
				<line
   id="line679"
   y2="85.412003"
   x2="57.792000"
   y1="81.122002"
   x1="61.358002"
   style="fill:none;stroke:#000000;stroke-width:0.50000000" />
			</g>
			<g
   id="g681">
				<path
   id="path683"
   d="M 109.24000,91.223000 C 108.15300,90.183000 107.16500,89.767000 106.47400,88.415000 C 105.78200,87.063000 104.10200,83.527000 104.00400,83.111000 C 103.90600,82.695000 103.01600,79.263000 103.01600,79.263000 C 103.01600,79.263000 101.92900,77.079000 101.63300,76.767000 C 101.33700,76.455000 99.657000,74.687000 99.460000,74.167000 C 99.263000,73.647000 99.658000,71.983000 99.658000,71.983000 L 101.04100,71.671000 C 101.04100,71.671000 102.72100,72.192000 103.01700,72.607000 C 103.31300,73.023000 104.59800,73.855000 104.69600,74.375000 C 104.79500,74.895000 105.78300,76.975000 105.78300,76.975000"
   style="fill:none;stroke:#000000;stroke-width:0.50000000" />
				<polyline
   id="polyline685"
   points="104.399,73.855 103.609,68.967 102.423,64.911       101.831,61.063 101.633,58.775 102.028,57.319 102.917,57.215 "
   style="fill:none;stroke:#000000;stroke-width:0.50000000" />
				<path
   id="path687"
   d="M 106.07900,71.775000 L 105.19000,66.679000 L 104.10300,62.623000 L 102.91800,59.087000 L 103.11500,56.279000 C 103.11500,56.279000 103.70800,54.927000 104.59700,55.031000 C 105.21800,55.103000 105.98000,56.279000 105.98000,56.279000 L 106.07900,57.631000"
   style="fill:none;stroke:#000000;stroke-width:0.50000000" />
				<path
   id="path689"
   d="M 106.86900,68.759000 L 105.78200,64.391000 L 104.59600,60.335000 C 104.59600,60.335000 104.49700,58.255000 105.09000,58.047000 C 105.68300,57.839000 106.67100,57.527000 106.96700,57.943000 C 107.26300,58.359000 107.75800,58.671000 107.85600,59.399000 C 107.95500,60.127000 108.54800,62.103000 108.54800,62.103000 L 108.94300,63.975000"
   style="fill:none;stroke:#000000;stroke-width:0.50000000" />
				<polyline
   id="polyline691"
   points="108.746,72.919 108.252,70.111 107.561,66.471       107.956,64.599 109.734,64.08 110.624,65.223 110.821,67.095 111.315,70.215 112.105,73.231 113.291,76.455 116.65,83.215       118.33,90.911 "
   style="fill:none;stroke:#000000;stroke-width:0.50000000" />
				<line
   id="line693"
   y2="76.247002"
   x2="103.51000"
   y1="76.974998"
   x1="102.12700"
   style="fill:none;stroke:#000000;stroke-width:0.50000000" />
			</g>
			<g
   id="g695">
				<path
   id="path697"
   d="M 70.705000,64.712000 C 65.960000,64.712000 67.059000,70.039000 69.633000,70.039000 C 72.207000,70.039000 73.761000,64.712000 68.883000,64.712000 L 66.925000,64.712000"
   style="fill:none;stroke:#000000;stroke-width:0.50000000;stroke-miterlimit:1.0000000" />
				<path
   id="path699"
   d="M 70.705000,64.712000 C 75.584000,64.712000 74.029000,70.039000 71.455000,70.039000 C 68.882000,70.039000 67.783000,64.712000 72.528000,64.712000"
   style="fill:none;stroke:#000000;stroke-width:0.50000000;stroke-miterlimit:1.0000000" />
				<path
   id="path701"
   d="M 72.529000,64.712000 C 77.407000,64.712000 75.853000,70.039000 73.279000,70.039000 C 70.705000,70.039000 69.607000,64.712000 74.351000,64.712000"
   style="fill:none;stroke:#000000;stroke-width:0.50000000;stroke-miterlimit:1.0000000" />
				<path
   id="path703"
   d="M 74.353000,64.712000 C 79.231000,64.712000 77.677000,70.039000 75.103000,70.039000 C 72.529000,70.039000 71.431000,64.712000 76.175000,64.712000"
   style="fill:none;stroke:#000000;stroke-width:0.50000000;stroke-miterlimit:1.0000000" />
				<path
   id="path705"
   d="M 76.176000,64.712000 C 81.055000,64.712000 79.500000,70.039000 76.926000,70.039000 C 74.353000,70.039000 73.254000,64.712000 77.998000,64.712000"
   style="fill:none;stroke:#000000;stroke-width:0.50000000;stroke-miterlimit:1.0000000" />
				<path
   id="path707"
   d="M 78.000000,64.712000 C 82.878000,64.712000 81.324000,70.039000 78.750000,70.039000 C 76.176000,70.039000 75.078000,64.712000 79.822000,64.712000"
   style="fill:none;stroke:#000000;stroke-width:0.50000000;stroke-miterlimit:1.0000000" />
				<path
   id="path709"
   d="M 79.823000,64.712000 C 84.702000,64.712000 83.147000,70.039000 80.573000,70.039000 C 78.000000,70.039000 76.901000,64.712000 81.645000,64.712000"
   style="fill:none;stroke:#000000;stroke-width:0.50000000;stroke-miterlimit:1.0000000" />
				<path
   id="path711"
   d="M 81.646000,64.712000 C 86.525000,64.712000 84.970000,70.039000 82.396000,70.039000 C 79.823000,70.039000 78.724000,64.712000 83.468000,64.712000"
   style="fill:none;stroke:#000000;stroke-width:0.50000000;stroke-miterlimit:1.0000000" />
				<path
   id="path713"
   d="M 83.470000,64.712000 C 88.348000,64.712000 86.794000,70.039000 84.220000,70.039000 C 81.646000,70.039000 80.548000,64.712000 85.292000,64.712000"
   style="fill:none;stroke:#000000;stroke-width:0.50000000;stroke-miterlimit:1.0000000" />
				<path
   id="path715"
   d="M 85.293000,64.712000 C 90.172000,64.712000 88.617000,70.039000 86.043000,70.039000 C 83.470000,70.039000 82.371000,64.712000 87.115000,64.712000"
   style="fill:none;stroke:#000000;stroke-width:0.50000000;stroke-miterlimit:1.0000000" />
				<path
   id="path717"
   d="M 87.117000,64.712000 C 91.996000,64.712000 90.441000,70.039000 87.867000,70.039000 C 85.294000,70.039000 84.195000,64.712000 88.939000,64.712000"
   style="fill:none;stroke:#000000;stroke-width:0.50000000;stroke-miterlimit:1.0000000" />
				<path
   id="path719"
   d="M 88.940000,64.712000 C 93.819000,64.712000 92.264000,70.039000 89.691000,70.039000 C 87.117000,70.039000 86.018000,64.712000 90.763000,64.712000"
   style="fill:none;stroke:#000000;stroke-width:0.50000000;stroke-miterlimit:1.0000000" />
				<path
   id="path721"
   d="M 90.764000,64.712000 C 95.643000,64.712000 94.088000,70.039000 91.514000,70.039000 C 88.941000,70.039000 87.842000,64.712000 92.586000,64.712000"
   style="fill:none;stroke:#000000;stroke-width:0.50000000;stroke-miterlimit:1.0000000" />
				<path
   id="path723"
   d="M 92.588000,64.712000 C 97.466000,64.712000 95.912000,70.039000 93.338000,70.039000 C 90.764000,70.039000 89.666000,64.712000 94.410000,64.712000"
   style="fill:none;stroke:#000000;stroke-width:0.50000000;stroke-miterlimit:1.0000000" />
				<path
   id="path725"
   d="M 94.411000,64.712000 C 99.290000,64.712000 97.735000,70.039000 95.162000,70.039000 C 92.588000,70.039000 91.489000,64.712000 96.234000,64.712000"
   style="fill:none;stroke:#000000;stroke-width:0.50000000;stroke-miterlimit:1.0000000" />
				<path
   id="path727"
   d="M 96.235000,64.712000 C 101.11400,64.712000 99.559000,70.039000 96.985000,70.039000 C 94.411000,70.039000 93.313000,64.712000 98.057000,64.712000"
   style="fill:none;stroke:#000000;stroke-width:0.50000000;stroke-miterlimit:1.0000000" />
				<path
   id="path729"
   d="M 98.059000,64.712000 C 102.93700,64.712000 101.38300,70.039000 98.809000,70.039000 C 96.235000,70.039000 95.137000,64.712000 99.881000,64.712000"
   style="fill:none;stroke:#000000;stroke-width:0.50000000;stroke-miterlimit:1.0000000" />
				<path
   id="path731"
   d="M 99.882000,64.712000 C 104.76100,64.712000 103.20600,70.039000 100.63200,70.039000 C 98.059000,70.039000 96.960000,64.712000 101.70400,64.712000"
   style="fill:none;stroke:#000000;stroke-width:0.50000000;stroke-miterlimit:1.0000000" />
			</g>
		</g><g
   id="g733"
   transform="translate(18.29659,-4.000000)">
			<rect
   id="rect735"
   height="14.249000"
   width="12.306000"
   style="fill:#b4b4b4"
   y="127.57000"
   x="46.838001" /> 
			<line
   id="line737"
   y2="141.74800"
   x2="59.488998"
   y1="127.64000"
   x1="59.488998"
   style="fill:none;stroke:#7f7f7f" />
		</g><rect
   id="rect739"
   height="13.867000"
   width="16.719999"
   style="fill:#7f7f7f;stroke:#000000"
   y="123.76100"
   x="130.92760" /><g
   id="g741"
   transform="translate(18.29659,-4.000000)">
			<path
   id="path743"
   d="M 141.29100,130.75600 C 140.57000,122.52000 140.51600,96.843000 140.51600,96.843000 L 133.98900,97.414000 C 133.98900,97.414000 137.21500,120.85500 138.09200,130.87900"
   style="fill:#7f7f7f;stroke:#000000;stroke-width:0.50000000" />
			<path
   id="path745"
   d="M 132.70600,130.96700 L 132.80800,132.13300 L 133.78400,132.04800 L 133.68300,130.89700 L 142.71600,130.10600 L 142.71700,130.11900 C 148.48900,129.58500 152.25300,126.69200 152.25300,126.69200 C 152.25300,126.69200 148.49200,134.60600 143.10200,135.07800 L 143.10100,135.06400 L 134.11700,135.85000 L 134.01600,134.69900 L 133.04000,134.78400 L 133.14200,135.95000 L 131.30600,136.11100 L 130.87000,131.12900 L 132.70600,130.96700 z "
   style="fill:#b4b4b4;stroke:#000000;stroke-width:0.50000000" />
		</g>
</svg>