<?xml version="1.0" encoding="iso-8859-1"?>
<!-- Generator: Adobe Illustrator 11 Build 196, SVG Export Plug-In . SVG Version: 6.0.0 Build 78)  -->
<!DOCTYPE svg PUBLIC "-//W3C//DTD SVG 1.0//EN"    "http://www.w3.org/TR/2001/REC-SVG-20010904/DTD/svg10.dtd" [
	<!ENTITY ns_flows "http://ns.adobe.com/Flows/1.0/">
	<!ENTITY ns_svg "http://www.w3.org/2000/svg">
	<!ENTITY ns_xlink "http://www.w3.org/1999/xlink">
]>
<svg  
	 width="140.171" height="256.697" viewBox="0 0 140.171 256.697"
	 style="overflow:visible;enable-background:new 0 0 140.171 256.697" xml:space="preserve">
	<g id="Layer_1">
		<g>
			<circle style="fill:#DCDCDC;stroke:#000000;stroke-width:0.5;" cx="59.196" cy="59.196" r="58.946"/> 
			<g>
				<path style="fill:#DCDCDC;stroke:#000000;stroke-width:0.5;" d="M127.296,25.32c0.804-0.655,0.941-1.815,0.307-2.628
					c-0.873-1.072-2.043-1.937-2.857-2.987c-1.646-2.171-1.156-5.056-1.91-7.604c1.016-0.036,2.003-0.258,2.912-0.806l0.778-0.496
					c0.507-0.229,0.905-0.7,1.039-1.273l0.131-0.523c0.084-0.355,0.081-0.744-0.055-1.098l-0.153-0.395
					c-0.261-0.688-0.918-1.174-1.665-1.204l0.184,0.137c-1.5-0.515-3.208-0.231-4.673,0.512c-0.345-0.503-0.923-0.812-1.552-0.802
					c-0.009-0.049-0.011-0.097-0.025-0.146c-0.269-0.978-1.3-1.588-2.298-1.31c-2.477,0.626-4.963,1.232-7.226,2.445
					c-0.954,0.429-1.358,1.539-0.938,2.473c0.116,0.258,0.287,0.473,0.489,0.647c-1.431,0.467-2.816,1.084-4.19,1.705
					c-0.606-0.754-1.682-0.947-2.487-0.422c-1.116,0.722-2.25,1.403-3.282,2.257c-0.822,0.614-1,1.793-0.386,2.615
					s1.792,1,2.615,0.386c0.592-0.407,1.148-0.878,1.734-1.305c0.533,0.557,1.38,0.758,2.118,0.426
					c0.963-0.405,1.916-0.859,2.88-1.281c-1.056,0.845-2.147,1.626-3.244,2.418c-0.49-0.249-1.08-0.293-1.614-0.052
					c-1.006,0.477-2.049,0.873-2.82,1.708c-0.775,0.666-0.874,1.858-0.178,2.644c0.666,0.775,1.849,0.853,2.624,0.187
					c0.177-0.195,0.365-0.371,0.566-0.526c0.705,0.562,1.715,0.561,2.397-0.051c2.987-1.775,5.337-4.34,8.201-6.261
					c1.586-0.268,3.22-0.186,4.807-0.458c0.745,3.464,0.293,7.439,4.246,9.578c0.419,0.227,0.647,0.734,0.898,1.183
					C125.323,25.817,126.483,25.955,127.296,25.32z M118.443,10.692c-0.125,0.021-0.251,0.036-0.378,0.049
					c0.113-0.079,0.228-0.156,0.342-0.234C118.418,10.569,118.432,10.63,118.443,10.692z"/>
				<g>
					<line style="fill:none;stroke:#000000;stroke-width:0.5;" x1="125.625" y1="25.35" x2="116.529" y2="29.442"/>
					<circle style="fill:#7F7F7F;stroke:#000000;stroke-width:0.5;" cx="114.579" cy="30.319" r="2.519"/> 
				</g>
			</g>
			<line style="fill:none;stroke:#000000;stroke-dasharray:3;" x1="106.296" y1="34.969" x2="10.145" y2="82.092"/>
			<g>
				<line style="fill:none;stroke:#000000;stroke-width:0.5;" x1="93.644" y1="26.008" x2="67.643" y2="21.78"/>
				<path d="M64.809,21.322c1.412-0.278,3.201-0.852,4.37-1.578l-1.169,2.098l0.444,2.36C67.575,23.144,66.06,22.032,64.809,21.322z
					"/>
			</g>
			<g>
				<line style="fill:none;stroke:#000000;stroke-width:0.5;" x1="105.647" y1="50.617" x2="92.972" y2="73.709"/>
				<path d="M91.588,76.225c1.088-0.941,2.642-1.998,3.934-2.472l-2.373-0.371l-1.587-1.803
					C91.855,72.924,91.798,74.802,91.588,76.225z"/>
			</g>
			<g>
				<line style="fill:none;stroke:#000000;stroke-width:0.5;" x1="101.056" y1="41.033" x2="81.243" y2="58.393"/>
				<path d="M79.082,60.283c1.344-0.513,3.166-0.973,4.542-0.977l-2.103-1.161l-0.874-2.237
					C80.462,57.273,79.766,59.018,79.082,60.283z"/>
			</g>
			<g>
				<line style="fill:none;stroke:#000000;stroke-width:0.5;" x1="98.37" y1="35.526" x2="72.492" y2="40.452"/>
				<path d="M69.672,40.991c1.231-0.744,2.716-1.896,3.566-2.978l-0.38,2.372l1.225,2.066C72.894,41.757,71.09,41.231,69.672,40.991
					z"/>
			</g>
			<g>
				<line style="fill:none;stroke:#000000;stroke-width:0.5;" x1="46.268" y1="25.198" x2="34.398" y2="22.531"/>
				<path d="M31.601,21.907c1.426-0.193,3.246-0.659,4.456-1.314l-1.292,2.025L35.067,25C34.253,23.891,32.808,22.691,31.601,21.907
					z"/>
			</g>
			<g>
				<line style="fill:none;stroke:#000000;stroke-width:0.5;" x1="76.303" y1="86.776" x2="71.096" y2="97.771"/>
				<path d="M69.866,100.36c1.03-1.005,2.518-2.152,3.779-2.702l-2.391-0.229l-1.691-1.705
					C69.936,97.048,69.992,98.927,69.866,100.36z"/>
			</g>
			<g>
				<line style="fill:none;stroke:#000000;stroke-width:0.5;" x1="66.491" y1="75.791" x2="58.609" y2="85.058"/>
				<path d="M56.749,87.239c1.255-0.703,2.99-1.424,4.351-1.628l-2.25-0.841l-1.191-2.086
					C57.676,84.059,57.242,85.887,56.749,87.239z"/>
			</g>
			<g>
				<line style="fill:none;stroke:#000000;stroke-width:0.5;" x1="49.112" y1="40.16" x2="36.957" y2="40.667"/>
				<path d="M34.093,40.79c1.327-0.556,2.963-1.479,3.962-2.426l-0.722,2.291l0.91,2.222C37.169,42.017,35.462,41.233,34.093,40.79z
					"/>
			</g>
			<g>
				<line style="fill:none;stroke:#000000;stroke-width:0.5;" x1="60.201" y1="65.639" x2="50.02" y2="72.299"/>
				<path d="M47.62,73.864c1.403-0.319,3.271-0.521,4.634-0.332l-1.92-1.443l-0.553-2.337C49.408,71.076,48.475,72.707,47.62,73.864
					z"/>
			</g>
			<g>
				<line style="fill:none;stroke:#000000;stroke-width:0.5;" x1="54.351" y1="53.643" x2="42.834" y2="57.567"/>
				<path d="M40.123,58.495c1.116-0.909,2.424-2.257,3.115-3.447l-0.045,2.401l1.501,1.875
					C43.421,58.802,41.561,58.533,40.123,58.495z"/>
			</g>
			<g>
				<line style="stroke:#000000;stroke-width:0.5;" x1="33.027" y1="89.903" x2="29.037" y2="94.35"/>
				<path d="M27.12,96.481c1.273-0.669,3.027-1.345,4.392-1.513l-2.227-0.9l-1.135-2.116C28.13,93.326,27.648,95.143,27.12,96.481z"
					/>
			</g>
			<g>
				<line style="stroke:#000000;stroke-width:0.5;" x1="52.671" y1="104.656" x2="49.881" y2="109.939"/>
				<path d="M48.539,112.472c1.072-0.959,2.609-2.04,3.893-2.535l-2.378-0.333l-1.616-1.777
					C48.752,109.166,48.726,111.045,48.539,112.472z"/>
			</g>
			<g>
				<line style="stroke:#000000;stroke-width:0.5;" x1="17.97" y1="33.511" x2="12.089" y2="32.457"/>
				<path d="M9.267,31.956c1.416-0.255,3.214-0.8,4.394-1.507l-1.202,2.079l0.406,2.367C12.003,33.822,10.506,32.686,9.267,31.956z"
					/>
			</g>
			<g>
				<line style="stroke:#000000;stroke-width:0.5;" x1="18.246" y1="59.599" x2="12.285" y2="60.005"/>
				<path d="M9.426,60.204c1.312-0.591,2.923-1.557,3.896-2.53l-0.661,2.309l0.969,2.198C12.534,61.35,10.806,60.612,9.426,60.204z"
					/>
			</g>
		</g>
		<g>
			<circle style="fill:#DCDCDC;stroke:#000000;stroke-width:0.5;" cx="59.198" cy="197.5" r="58.946"/> 
			<path style="fill:#DCDCDC;stroke:#000000;stroke-width:0.5;" d="M127.3,163.625c0.804-0.654,0.941-1.815,0.307-2.628
				c-0.873-1.072-2.043-1.937-2.857-2.987c-1.646-2.171-1.156-5.056-1.91-7.604c1.016-0.036,2.003-0.258,2.912-0.806l0.778-0.496
				c0.507-0.229,0.905-0.7,1.039-1.273l0.131-0.523c0.084-0.355,0.081-0.744-0.055-1.099l-0.153-0.395
				c-0.261-0.688-0.918-1.174-1.665-1.205l0.184,0.137c-1.5-0.515-3.208-0.231-4.673,0.512c-0.345-0.502-0.923-0.812-1.552-0.801
				c-0.01-0.049-0.011-0.098-0.025-0.146c-0.269-0.978-1.3-1.588-2.298-1.31c-2.477,0.626-4.963,1.232-7.226,2.445
				c-0.955,0.429-1.358,1.539-0.938,2.473c0.116,0.258,0.287,0.473,0.489,0.646c-1.431,0.468-2.815,1.084-4.19,1.705
				c-0.607-0.754-1.682-0.946-2.487-0.422c-1.116,0.722-2.25,1.403-3.281,2.257c-0.822,0.614-1,1.793-0.386,2.615
				s1.793,1,2.615,0.386c0.592-0.408,1.148-0.878,1.734-1.305c0.533,0.557,1.381,0.758,2.119,0.426
				c0.963-0.405,1.915-0.859,2.88-1.281c-1.056,0.845-2.147,1.626-3.244,2.418c-0.489-0.249-1.08-0.292-1.614-0.052
				c-1.006,0.477-2.049,0.873-2.82,1.708c-0.775,0.666-0.874,1.857-0.178,2.644c0.666,0.774,1.848,0.853,2.623,0.187
				c0.177-0.195,0.365-0.371,0.566-0.526c0.704,0.562,1.715,0.561,2.397-0.05c2.987-1.775,5.337-4.34,8.201-6.261
				c1.585-0.268,3.22-0.187,4.806-0.458c0.745,3.464,0.293,7.439,4.246,9.578c0.419,0.227,0.647,0.734,0.898,1.183
				C125.326,164.123,126.486,164.26,127.3,163.625z M118.447,148.997c-0.125,0.021-0.251,0.036-0.378,0.049
				c0.113-0.079,0.228-0.156,0.342-0.234C118.421,148.874,118.435,148.936,118.447,148.997z"/>
			<g>
				<line style="fill:none;stroke:#000000;stroke-width:0.5;" x1="124.36" y1="164.146" x2="116.721" y2="170.559"/>
				<circle style="fill:#7F7F7F;stroke:#000000;stroke-width:0.5;" cx="115.084" cy="171.934" r="2.519"/> 
			</g>
			<line style="fill:none;stroke:#000000;stroke-dasharray:3;" x1="106.298" y1="173.275" x2="10.147" y2="220.396"/>
			<line style="fill:none;stroke:#000000;stroke-dasharray:3;" x1="111.638" y1="174.695" x2="29.531" y2="243.423"/>
			<path style="fill:#B4B4B4;stroke:#000000;stroke-width:0.5;" d="M93.163,209.081c3.85,6.303,6.358,3.117,8.253,2.468
				c1.895-0.648,6.298-4.483,6.298-4.483s-2.604-8.846-2.619-10.747c-0.015-1.9-3.805-0.603-5.709-1.222
				c-1.905-0.618-3.775,3.197-6.298,4.483s-3.142,3.191-3.126,5.091S93.163,209.081,93.163,209.081z"/>
			<g>
				<line style="fill:none;stroke:#000000;stroke-width:0.5;" x1="94.597" y1="163.297" x2="68.596" y2="159.069"/>
				<path d="M65.761,158.611c1.412-0.277,3.201-0.852,4.37-1.578l-1.168,2.098l0.444,2.36
					C68.527,160.433,67.013,159.321,65.761,158.611z"/>
			</g>
			<g>
				<line style="fill:none;stroke:#000000;stroke-width:0.5;" x1="102.009" y1="178.322" x2="82.196" y2="195.682"/>
				<path d="M80.034,197.573c1.345-0.512,3.166-0.973,4.542-0.977l-2.103-1.161l-0.874-2.237
					C81.415,194.562,80.719,196.307,80.034,197.573z"/>
			</g>
			<g>
				<line style="fill:none;stroke:#000000;stroke-width:0.5;" x1="99.323" y1="172.816" x2="73.445" y2="177.741"/>
				<path d="M70.625,178.281c1.231-0.744,2.716-1.896,3.566-2.978l-0.38,2.372l1.225,2.066
					C73.847,179.046,72.043,178.52,70.625,178.281z"/>
			</g>
			<g>
				<line style="fill:none;stroke:#000000;stroke-width:0.5;" x1="47.221" y1="162.487" x2="35.351" y2="159.821"/>
				<path d="M32.554,159.196c1.426-0.193,3.246-0.659,4.456-1.314l-1.292,2.024l0.302,2.383
					C35.206,161.18,33.76,159.98,32.554,159.196z"/>
			</g>
			<g>
				<line style="fill:none;stroke:#000000;stroke-width:0.5;" x1="77.256" y1="224.065" x2="72.049" y2="235.06"/>
				<path d="M70.819,237.649c1.029-1.005,2.518-2.152,3.779-2.703l-2.391-0.228l-1.691-1.705
					C70.889,234.337,70.944,236.216,70.819,237.649z"/>
			</g>
			<g>
				<line style="fill:none;stroke:#000000;stroke-width:0.5;" x1="67.444" y1="213.081" x2="59.562" y2="222.347"/>
				<path d="M57.702,224.528c1.255-0.703,2.99-1.424,4.351-1.628l-2.25-0.841l-1.19-2.085
					C58.628,221.348,58.195,223.176,57.702,224.528z"/>
			</g>
			<g>
				<line style="fill:none;stroke:#000000;stroke-width:0.5;" x1="50.064" y1="177.448" x2="37.909" y2="177.955"/>
				<path d="M35.046,178.079c1.327-0.556,2.963-1.479,3.962-2.426l-0.722,2.291l0.911,2.223
					C38.123,179.306,36.415,178.522,35.046,178.079z"/>
			</g>
			<g>
				<line style="fill:none;stroke:#000000;stroke-width:0.5;" x1="61.154" y1="202.928" x2="50.973" y2="209.588"/>
				<path d="M48.572,211.153c1.403-0.319,3.271-0.521,4.634-0.332l-1.92-1.443l-0.552-2.337
					C50.36,208.365,49.427,209.996,48.572,211.153z"/>
			</g>
			<g>
				<line style="fill:none;stroke:#000000;stroke-width:0.5;" x1="55.303" y1="190.932" x2="43.788" y2="194.856"/>
				<path d="M41.076,195.784c1.115-0.909,2.424-2.257,3.114-3.447l-0.045,2.401l1.502,1.874
					C44.374,196.091,42.514,195.823,41.076,195.784z"/>
			</g>
			<g>
				<line style="stroke:#000000;stroke-width:0.5;" x1="33.98" y1="227.192" x2="29.99" y2="231.639"/>
				<path d="M28.073,233.77c1.273-0.669,3.027-1.345,4.393-1.513l-2.227-0.9l-1.135-2.116
					C29.083,230.615,28.601,232.432,28.073,233.77z"/>
			</g>
			<g>
				<line style="stroke:#000000;stroke-width:0.5;" x1="53.624" y1="241.945" x2="50.833" y2="247.228"/>
				<path d="M49.492,249.76c1.072-0.958,2.609-2.04,3.893-2.535l-2.379-0.333l-1.615-1.777
					C49.706,246.455,49.679,248.334,49.492,249.76z"/>
			</g>
			<g>
				<line style="stroke:#000000;stroke-width:0.5;" x1="18.923" y1="170.8" x2="13.042" y2="169.746"/>
				<path d="M10.22,169.245c1.416-0.255,3.214-0.8,4.395-1.507l-1.203,2.079l0.406,2.367
					C12.956,171.111,11.459,169.975,10.22,169.245z"/>
			</g>
			<g>
				<line style="stroke:#000000;stroke-width:0.5;" x1="19.199" y1="196.887" x2="13.238" y2="197.294"/>
				<path d="M10.379,197.493c1.312-0.591,2.923-1.557,3.896-2.53l-0.662,2.309l0.969,2.198
					C13.486,198.638,11.758,197.9,10.379,197.493z"/>
			</g>
			<g>
				<line style="fill:none;stroke:#000000;stroke-width:0.5;" x1="106.067" y1="186.945" x2="86.435" y2="224.707"/>
				<path d="M85.116,227.251c0.178-1.428,0.192-3.307-0.131-4.644l1.627,1.767l2.38,0.317
					C87.712,225.194,86.182,226.285,85.116,227.251z"/>
			</g>
		</g>
		<line style="fill:none;" x1="140.171" y1="199.608" x2="140.171" y2="82.758"/>
	</g>
</svg>
