<?xml version="1.0" encoding="iso-8859-1"?>
<!-- Generator: Adobe Illustrator 11 Build 196, SVG Export Plug-In . SVG Version: 6.0.0 Build 78)  -->
<!DOCTYPE svg PUBLIC "-//W3C//DTD SVG 1.0//EN"    "http://www.w3.org/TR/2001/REC-SVG-20010904/DTD/svg10.dtd" [
	<!ENTITY ns_flows "http://ns.adobe.com/Flows/1.0/">
	<!ENTITY ns_svg "http://www.w3.org/2000/svg">
	<!ENTITY ns_xlink "http://www.w3.org/1999/xlink">
]>
<svg  
	 width="147.401" height="223.37" viewBox="0 0 147.401 223.37" style="overflow:visible;enable-background:new 0 0 147.401 223.37"
	 xml:space="preserve">
	<style type="text/css">
	
	</style>
	<g id="Layer_1">
		<rect x="65.034" y="21.135" style="fill:#B4B4B4;stroke:#000000;" width="10.608" height="30.576"/> 
		<g>
			<line style="fill:#7F7F7F;stroke:#000000;" x1="90.532" y1="18.09" x2="79.924" y2="24.954"/>
			<path d="M77.394,26.595c0.906-1.213,1.896-2.925,2.296-4.317l0.57,2.463l2.014,1.529C80.84,26.064,78.872,26.266,77.394,26.595z"
				/>
		</g>
		<g>
			<line style="fill:#7F7F7F;stroke:#000000;" x1="91.728" y1="55.831" x2="81.12" y2="48.966"/>
			<path d="M78.583,47.325c1.478,0.329,3.446,0.531,4.879,0.326l-2.014,1.529l-0.569,2.463
				C80.479,50.25,79.488,48.539,78.583,47.325z"/>
		</g>
		<g>
			<line style="fill:#7F7F7F;stroke:#000000;" x1="49.712" y1="18.09" x2="60.32" y2="24.954"/>
			<path d="M62.857,26.595c-1.478-0.329-3.446-0.531-4.879-0.325l2.014-1.529l0.569-2.463C60.96,23.67,61.951,25.382,62.857,26.595z
				"/>
		</g>
		<g>
			<line style="fill:#7F7F7F;stroke:#000000;" x1="48.516" y1="55.831" x2="59.124" y2="48.966"/>
			<path d="M61.653,47.325c-0.906,1.213-1.896,2.926-2.296,4.318l-0.57-2.463l-2.013-1.529
				C58.208,47.856,60.175,47.654,61.653,47.325z"/>
		</g>
		<g>
			<line style="fill:#7F7F7F;stroke:#000000;" x1="70.338" y1="4.408" x2="70.338" y2="17.928"/>
			<path d="M70.338,20.946c-0.526-1.42-1.426-3.182-2.377-4.273l2.377,0.86l2.377-0.86C71.764,17.764,70.865,19.526,70.338,20.946z"
				/>
		</g>
		<g>
			<line style="fill:#7F7F7F;stroke:#000000;" x1="44.765" y1="36.422" x2="58.285" y2="36.422"/>
			<path d="M61.302,36.422c-1.42,0.527-3.182,1.426-4.273,2.378l0.86-2.378l-0.86-2.377C58.121,34.997,59.882,35.896,61.302,36.422z
				"/>
		</g>
		<g>
			<line style="fill:#7F7F7F;stroke:#000000;" x1="70.338" y1="70.238" x2="70.338" y2="56.718"/>
			<path d="M70.338,53.7c0.527,1.42,1.426,3.182,2.377,4.273l-2.377-0.86l-2.377,0.86C68.912,56.882,69.812,55.12,70.338,53.7z"/>
		</g>
		<g>
			<line style="fill:#7F7F7F;stroke:#000000;" x1="97.081" y1="36.423" x2="83.562" y2="36.423"/>
			<path d="M80.544,36.423c1.419-0.527,3.181-1.426,4.273-2.377l-0.86,2.377l0.86,2.377C83.725,37.849,81.963,36.949,80.544,36.423z
				"/>
		</g>
		<g>
			<g>
				<text transform="matrix(1 0 0 1 37.4961 9)"><tspan x="0" y="0" style="font-family:Liberation Sans; font-size:7.650000;">1</tspan></text>
			</g>
		</g>
		<path style="fill:#DCDCDC;stroke:#000000;" d="M96.127,144.812c0,0,1.04-5.893,2.08-7.973s5.547-6.586,5.547-10.747
			s-6.24-9.36-6.24-9.36l-10.747-4.16c0,0-1.733-11.44-2.426-13.52c-0.694-2.08-11.44-8.32-11.44-8.32l-16.64,9.013v17.68
			l2.427,13.866l7.28,11.787c0,0,8.32,1.04,10.4-0.347s8.667-2.08,8.667-2.08L96.127,144.812z"/>
		<g>
			<line style="fill:#7F7F7F;stroke:#000000;" x1="93.007" y1="88.648" x2="93.007" y2="105.548"/>
			<path d="M93.007,108.565c-0.527-1.42-1.426-3.182-2.378-4.273l2.378,0.86l2.377-0.86
				C94.433,105.384,93.534,107.146,93.007,108.565z"/>
		</g>
		<g>
			<line style="fill:#7F7F7F;stroke:#000000;" x1="59.682" y1="78.456" x2="74.317" y2="86.906"/>
			<path d="M76.931,88.415c-1.493-0.253-3.468-0.355-4.89-0.078l1.934-1.629l0.444-2.489C74.888,85.589,75.964,87.249,76.931,88.415
				z"/>
		</g>
		<g>
			<line style="fill:#7F7F7F;stroke:#000000;" x1="35.708" y1="117.514" x2="50.343" y2="109.065"/>
			<path d="M52.957,107.556c-0.966,1.166-2.042,2.826-2.512,4.195L50,109.263l-1.934-1.629
				C49.488,107.912,51.463,107.81,52.957,107.556z"/>
		</g>
		<g>
			<line style="fill:#7F7F7F;stroke:#000000;" x1="55.024" y1="154.125" x2="55.024" y2="137.226"/>
			<path d="M55.026,134.205c0.527,1.42,1.426,3.182,2.377,4.273l-2.378-0.86l-2.377,0.86
				C53.601,137.386,54.5,135.625,55.026,134.205z"/>
		</g>
		<g>
			<line style="fill:#7F7F7F;stroke:#000000;" x1="89.668" y1="158.798" x2="75.033" y2="150.349"/>
			<path d="M72.415,148.842c1.493,0.253,3.468,0.356,4.89,0.078l-1.934,1.629l-0.444,2.489
				C74.457,151.667,73.381,150.008,72.415,148.842z"/>
		</g>
		<g>
			<line style="fill:#7F7F7F;stroke:#000000;" x1="121.434" y1="122.625" x2="106.798" y2="131.075"/>
			<path d="M104.183,132.587c0.966-1.166,2.043-2.826,2.513-4.195l0.444,2.489l1.933,1.629
				C107.651,132.231,105.676,132.333,104.183,132.587z"/>
		</g>
		<g>
			<g>
				<text transform="matrix(1 0 0 1 37.4961 84.8394)"><tspan x="0" y="0" style="font-family:Liberation Sans; font-size:7.650000;">2</tspan></text>
			</g>
		</g>
		<g>
			<g>
				<text transform="matrix(1 0 0 1 37.2031 173.7002)"><tspan x="0" y="0" style="font-family:Liberation Sans; font-size:7.650000;">3</tspan></text>
			</g>
		</g>
		<g>
			<path style="fill:#DCDCDC;stroke:#000000;" d="M91.324,199.766l-0.136-0.076c0.011-0.02,0.023-0.039,0.035-0.059
				c4.689-8.429,1.658-19.064-6.771-23.753s-19.064-1.658-23.753,6.771c-0.011,0.02-0.021,0.041-0.032,0.061l-0.001-0.001
				l-4.146,7.454l1.979,1.101c0.049,6.084,3.275,11.97,8.972,15.139s12.399,2.808,17.595-0.359l2.113,1.176L91.324,199.766z"/>
			<circle style="fill:#DCDCDC;stroke:#000000;" cx="71.464" cy="199.38" r="17.465"/> 
		</g>
		<circle style="stroke:#000000;" cx="93.9" cy="204.467" r="3.033"/> 
		<path style="fill:none;stroke:#000000;stroke-width:2;stroke-dasharray:3;" d="M91.248,212.416
			c-5.362,7.486-14.837,11.483-24.409,9.408c-12.849-2.786-21.007-15.461-18.221-28.31c2.786-12.849,15.461-21.007,28.31-18.221
			c9.164,1.987,15.942,9.004,18.065,17.527"/>
		<path d="M95.576,198.969c-1.235-2.766-3.256-6.166-5.297-8.222l4.856,1.41l4.634-2.023
			C98.01,192.436,96.443,196.068,95.576,198.969z"/>
		<rect y="113.355" style="fill:none;" width="147.401" height="2.834"/> 
	</g>
</svg>
