<?xml version="1.0" encoding="UTF-8" standalone="no"?>
<!-- Generator: Adobe Illustrator 11 Build 196, SVG Export Plug-In . SVG Version: 6.0.0 Build 78)  -->
<svg
   xmlns:a="http://ns.adobe.com/AdobeSVGViewerExtensions/3.0/"
   xmlns:dc="http://purl.org/dc/elements/1.1/"
   xmlns:cc="http://web.resource.org/cc/"
   xmlns:rdf="http://www.w3.org/1999/02/22-rdf-syntax-ns#"
   xmlns:svg="http://www.w3.org/2000/svg"
   xmlns="http://www.w3.org/2000/svg"
   xmlns:sodipodi="http://inkscape.sourceforge.net/DTD/sodipodi-0.dtd"
   xmlns:inkscape="http://www.inkscape.org/namespaces/inkscape"
   width="141.665"
   height="154.209"
   viewBox="0 0 141.665 154.209"
   style="overflow:visible;enable-background:new 0 0 141.665 154.209"
   xml:space="preserve"
   id="svg2"
   sodipodi:version="0.32"
   sodipodi:docname="nmr.svg"
   sodipodi:docbase="/home/bcrowell/Documents/writing/lm/trunk/3vw/ch02/figs"><metadata
   id="metadata103"><rdf:RDF><cc:Work
       rdf:about=""><dc:format>image/svg+xml</dc:format><dc:type
         rdf:resource="http://purl.org/dc/dcmitype/StillImage" /></cc:Work></rdf:RDF></metadata><defs
   id="defs101">
		 
		
		
		 
		
		
		 
		
		
		
		
		
			
		
			<radialGradient
   gradientUnits="userSpaceOnUse"
   gradientTransform="matrix(1.424300,0.728900,-0.728900,1.424300,-9.899400,-124.6208)"
   fy="128"
   fx="88.8169"
   r="25.9326"
   cy="128"
   cx="88.8169"
   id="XMLID_4_">
			<stop
   id="stop32"
   style="stop-color:#EBEBEB"
   offset="0" />
			<stop
   id="stop34"
   style="stop-color:#D6D6D6"
   offset="0.09" />
			<stop
   id="stop36"
   style="stop-color:#B4B4B4"
   offset="0.21" />
			<stop
   id="stop38"
   style="stop-color:#B4B4B4"
   offset="1" />
			<midPointStop
   style="stop-color:#EBEBEB"
   offset="0" />
			<midPointStop
   style="stop-color:#EBEBEB"
   offset="0.5" />
			<midPointStop
   style="stop-color:#D6D6D6"
   offset="0.09" />
			<midPointStop
   style="stop-color:#D6D6D6"
   offset="0.5" />
			<midPointStop
   style="stop-color:#B4B4B4"
   offset="0.21" />
			<midPointStop
   style="stop-color:#B4B4B4"
   offset="0.5" />
			<midPointStop
   style="stop-color:#B4B4B4"
   offset="1" />
		</radialGradient>
		 
		
		
			<radialGradient
   gradientUnits="userSpaceOnUse"
   gradientTransform="matrix(1.187100,1.072700,-1.072700,1.187100,103.8616,-124.4280)"
   fy="128"
   fx="88.8169"
   r="25.9326"
   cy="128"
   cx="88.8169"
   id="XMLID_5_">
			<stop
   id="stop49"
   style="stop-color:#EBEBEB"
   offset="0" />
			<stop
   id="stop51"
   style="stop-color:#D6D6D6"
   offset="0.09" />
			<stop
   id="stop53"
   style="stop-color:#B4B4B4"
   offset="0.21" />
			<stop
   id="stop55"
   style="stop-color:#B4B4B4"
   offset="1" />
			<midPointStop
   style="stop-color:#EBEBEB"
   offset="0" />
			<midPointStop
   style="stop-color:#EBEBEB"
   offset="0.5" />
			<midPointStop
   style="stop-color:#D6D6D6"
   offset="0.09" />
			<midPointStop
   style="stop-color:#D6D6D6"
   offset="0.5" />
			<midPointStop
   style="stop-color:#B4B4B4"
   offset="0.21" />
			<midPointStop
   style="stop-color:#B4B4B4"
   offset="0.5" />
			<midPointStop
   style="stop-color:#B4B4B4"
   offset="1" />
		</radialGradient>
		 
		
		
			<radialGradient
   gradientUnits="userSpaceOnUse"
   gradientTransform="matrix(1.424300,0.728900,-0.728900,1.424300,81.96460,-124.6393)"
   fy="128"
   fx="88.8169"
   r="25.9326"
   cy="128"
   cx="88.8169"
   id="XMLID_6_">
			<stop
   id="stop66"
   style="stop-color:#EBEBEB"
   offset="0" />
			<stop
   id="stop68"
   style="stop-color:#D6D6D6"
   offset="0.09" />
			<stop
   id="stop70"
   style="stop-color:#B4B4B4"
   offset="0.21" />
			<stop
   id="stop72"
   style="stop-color:#B4B4B4"
   offset="1" />
			<midPointStop
   style="stop-color:#EBEBEB"
   offset="0" />
			<midPointStop
   style="stop-color:#EBEBEB"
   offset="0.5" />
			<midPointStop
   style="stop-color:#D6D6D6"
   offset="0.09" />
			<midPointStop
   style="stop-color:#D6D6D6"
   offset="0.5" />
			<midPointStop
   style="stop-color:#B4B4B4"
   offset="0.21" />
			<midPointStop
   style="stop-color:#B4B4B4"
   offset="0.5" />
			<midPointStop
   style="stop-color:#B4B4B4"
   offset="1" />
		</radialGradient>
		 
		
		
		
		
		
		
	</defs><sodipodi:namedview
   inkscape:cy="73.705825"
   inkscape:cx="74.857478"
   inkscape:zoom="1.7366334"
   inkscape:window-height="510"
   inkscape:window-width="712"
   inkscape:pageshadow="2"
   inkscape:pageopacity="0.0"
   borderopacity="1.0"
   bordercolor="#666666"
   pagecolor="#ffffff"
   id="base"
   inkscape:window-x="452"
   inkscape:window-y="452"
   inkscape:current-layer="svg2" />
	<style
   type="text/css"
   id="style4">
	
	</style>
	<rect
   style="fill:#dedede;fill-opacity:1.0000000;fill-rule:evenodd;stroke:none;stroke-width:1.0000000pt;stroke-linecap:butt;stroke-linejoin:miter;stroke-opacity:1.0000000"
   id="rect1401"
   width="184.25198"
   height="154.32158"
   x="-20.153936"
   y="1.0390792" /><circle
   sodipodi:ry="21.955999"
   sodipodi:rx="21.955999"
   sodipodi:cy="45.448002"
   sodipodi:cx="22.455000"
   id="circle7"
   r="21.955999"
   cy="45.448002"
   cx="22.455000"
   style="fill:none;stroke:#000000"
   transform="translate(0.000000,4.000000)" /><line
   id="line9"
   y2="37.617001"
   x2="31.400999"
   y1="63.714001"
   x1="11.892000"
   style="fill:none;stroke:#000000" /><path
   id="path11"
   d="M 33.479000,34.838000 C 32.987000,36.508000 32.602000,38.751000 32.727000,40.411000 L 31.129000,37.982000 L 28.347000,37.137000 C 29.975000,36.787000 32.017000,35.783000 33.479000,34.838000 z " /><circle
   sodipodi:ry="21.955999"
   sodipodi:rx="21.955999"
   sodipodi:cy="45.375999"
   sodipodi:cx="70.982002"
   id="circle13"
   r="21.955999"
   cy="45.375999"
   cx="70.982002"
   style="fill:none;stroke:#000000"
   transform="translate(0.000000,4.000000)" /><line
   id="line15"
   y2="35.752003"
   x2="76.292999"
   y1="66.009003"
   x1="64.203003"
   style="fill:none;stroke:#000000" /><path
   id="path17"
   d="M 77.581000,32.530000 C 77.538000,34.271000 77.746000,36.536000 78.296000,38.108000 L 76.124000,36.175000 L 73.218000,36.079000 C 74.700000,35.319000 76.413000,33.821000 77.581000,32.530000 z " /><circle
   sodipodi:ry="21.955999"
   sodipodi:rx="21.955999"
   sodipodi:cy="46.637001"
   sodipodi:cx="119.20900"
   id="circle19"
   r="21.955999"
   cy="46.637001"
   cx="119.20900"
   style="fill:none;stroke:#000000"
   transform="translate(0.000000,4.000000)" /><line
   id="line21"
   y2="38.806000"
   x2="128.15500"
   y1="64.903000"
   x1="108.64600"
   style="fill:none;stroke:#000000" /><path
   id="path23"
   d="M 130.23300,36.027000 C 129.74100,37.697000 129.35600,39.940000 129.48100,41.600000 L 127.88300,39.171000 L 125.10100,38.326000 C 126.72900,37.976000 128.77100,36.972000 130.23300,36.027000 z " /><line
   id="line25"
   y2="22.500999"
   x2="37.882000"
   y1="76.394997"
   x1="7.0289998"
   style="fill:none;stroke:#000000;stroke-width:0.50000000;stroke-dasharray:2.0000000 " /><line
   id="line27"
   y2="22.430000"
   x2="86.408997"
   y1="76.321999"
   x1="55.556000"
   style="fill:none;stroke:#000000;stroke-width:0.50000000;stroke-dasharray:2.0000000 " /><line
   id="line29"
   y2="23.691000"
   x2="134.63600"
   y1="77.583000"
   x1="103.78300"
   style="fill:none;stroke:#000000;stroke-width:0.50000000;stroke-dasharray:2.0000000 " /><circle
   sodipodi:ry="15.274000"
   sodipodi:rx="15.274000"
   sodipodi:cy="132.04401"
   sodipodi:cx="23.235001"
   id="circle40"
   r="15.274000"
   cy="132.04401"
   cx="23.235001"
   style="fill:url(#XMLID_4_);stroke:#4c4c4c;stroke-opacity:1.0000000;stroke-width:0.62500003;stroke-miterlimit:4.0000000;stroke-dasharray:none"
   transform="translate(0.000000,-4.000000)" /><g
   id="g42"
   transform="translate(0.000000,-4.000000)">
			<path
   id="path44"
   d="M 10.895000,121.85400 C 7.3430000,122.77600 4.8950000,124.51800 4.2620000,126.94900 C 2.8280000,132.45100 11.224000,139.40200 23.015000,142.47400 C 28.509000,143.90500 33.770000,144.24200 37.968000,143.63700"
   style="fill:none;stroke:#000000" />
			<path
   id="path46"
   d="M 43.701000,142.80200 C 41.147000,144.19200 38.046000,146.38400 36.232000,148.49100 L 37.214000,143.73700 L 34.929000,139.45500 C 37.264000,140.96500 40.858000,142.19000 43.701000,142.80200 z " />
		</g><circle
   sodipodi:ry="15.273000"
   sodipodi:rx="15.273000"
   sodipodi:cy="132.09599"
   sodipodi:cx="69.647003"
   id="circle57"
   r="15.273000"
   cy="132.09599"
   cx="69.647003"
   style="fill:url(#XMLID_5_);stroke:#4c4c4c;stroke-opacity:1.0000000;stroke-width:0.62500003;stroke-miterlimit:4.0000000;stroke-dasharray:none"
   transform="translate(0.000000,-4.000000)" /><g
   id="g59"
   transform="translate(0.000000,-4.000000)">
			<path
   id="path61"
   d="M 67.746000,117.07600 C 64.432000,115.49900 61.438000,115.26000 59.389000,116.71600 C 54.755000,120.01000 56.719000,130.73100 63.777000,140.66300 C 67.066000,145.29000 70.880000,148.93000 74.485000,151.16400"
   style="fill:none;stroke:#000000" />
			<path
   id="path63"
   d="M 79.414000,154.20900 C 76.564000,153.63300 72.780000,153.31800 70.035000,153.76700 L 73.844000,150.75700 L 74.845000,146.00700 C 75.664000,148.66400 77.629000,151.91400 79.414000,154.20900 z " />
		</g><circle
   sodipodi:ry="15.273000"
   sodipodi:rx="15.273000"
   sodipodi:cy="132.02600"
   sodipodi:cx="115.09900"
   id="circle74"
   r="15.273000"
   cy="132.02600"
   cx="115.09900"
   style="fill:url(#XMLID_6_);stroke:#4c4c4c;stroke-opacity:1.0000000;stroke-width:0.62500003;stroke-miterlimit:4.0000000;stroke-dasharray:none"
   transform="translate(0.000000,-4.000000)" /><g
   id="g76"
   transform="translate(0.000000,-4.000000)">
			<path
   id="path78"
   d="M 102.76300,121.89200 C 99.210000,122.81300 96.763000,124.55600 96.129000,126.98700 C 94.695000,132.48900 103.09100,139.44000 114.88100,142.51200 C 120.37500,143.94400 125.63600,144.28100 129.83400,143.67500"
   style="fill:none;stroke:#000000" />
			<path
   id="path80"
   d="M 135.56800,142.84100 C 133.01400,144.23100 129.91200,146.42200 128.09800,148.52900 L 129.08100,143.77600 L 126.79500,139.49400 C 129.13100,141.00300 132.72600,142.22900 135.56800,142.84100 z " />
		</g><path
   id="path82"
   d="M 17.375000,114.03200 C 13.139000,113.07300 9.6270000,113.60700 7.8700000,115.86000 C 4.4110000,120.29400 9.0610000,129.70400 18.257000,136.87900 C 27.453000,144.05400 37.712000,146.27500 41.171000,141.84100 C 43.429000,138.94600 42.231000,133.93100 38.568000,128.80100"
   style="fill:none;stroke:#000000;stroke-width:0.50000000;stroke-dasharray:2.0000000 " /><path
   id="path84"
   d="M 63.783000,114.29600 C 59.322000,113.17600 55.599000,113.66200 53.773000,116.00300 C 50.314000,120.43700 54.964000,129.84700 64.161000,137.02200 C 73.357000,144.19600 83.616000,146.41800 87.075000,141.98400 C 89.233000,139.21700 88.234000,134.51300 84.943000,129.62400"
   style="fill:none;stroke:#000000;stroke-width:0.50000000;stroke-dasharray:2.0000000 " /><path
   id="path86"
   d="M 108.79900,114.20600 C 105.11000,113.60300 102.09200,114.23700 100.50600,116.27000 C 97.047000,120.70400 101.69800,130.11400 110.89400,137.28900 C 120.09000,144.46300 130.34900,146.68500 133.80800,142.25100 C 136.18200,139.20800 134.73600,133.82100 130.62200,128.42100"
   style="fill:none;stroke:#000000;stroke-width:0.50000000;stroke-dasharray:2.0000000 " /><g
   id="g88"
   transform="translate(0.000000,4.000000)">
			<text
   id="text90"
   transform="translate(6.983400,10.00000)"><tspan
     id="tspan92"
     style="font-size:8.5000000px;font-family:Liberation Sans"
     y="0"
     x="0">1</tspan></text>

		</g><g
   id="g94"
   transform="translate(0.000000,-4.000000)">
			<text
   id="text96"
   transform="translate(6.983400,108.3335)"><tspan
     id="tspan98"
     style="font-size:8.5000000px;font-family:Liberation Sans"
     y="0"
     x="0">2</tspan></text>

		</g>
</svg>