<?xml version="1.0" encoding="UTF-8" standalone="no"?>
<!-- Created with Inkscape (http://www.inkscape.org/) -->

<svg
   xmlns:dc="http://purl.org/dc/elements/1.1/"
   xmlns:cc="http://creativecommons.org/ns#"
   xmlns:rdf="http://www.w3.org/1999/02/22-rdf-syntax-ns#"
   xmlns:svg="http://www.w3.org/2000/svg"
   xmlns="http://www.w3.org/2000/svg"
   xmlns:sodipodi="http://sodipodi.sourceforge.net/DTD/sodipodi-0.dtd"
   xmlns:inkscape="http://www.inkscape.org/namespaces/inkscape"
   id="svg3054"
   version="1.1"
   width="203"
   height="299"
   sodipodi:docname="partridge-normal-and-friction.svg">
  <metadata
     id="metadata3060">
    <rdf:RDF>
      <cc:Work
         rdf:about="">
        <dc:format>image/svg+xml</dc:format>
        <dc:type
           rdf:resource="http://purl.org/dc/dcmitype/StillImage" />
        <dc:title></dc:title>
      </cc:Work>
    </rdf:RDF>
  </metadata>
  <defs
     id="defs3058">
    <marker
       inkscape:stockid="Arrow2Mend"
       orient="auto"
       refY="0.0"
       refX="0.0"
       id="Arrow2Mend"
       style="overflow:visible;">
      <path
         id="path4180"
         style="font-size:12.0;fill-rule:evenodd;stroke-width:0.62500000;stroke-linejoin:round;"
         d="M 8.7185878,4.0337352 L -2.2072895,0.016013256 L 8.7185884,-4.0017078 C 6.9730900,-1.6296469 6.9831476,1.6157441 8.7185878,4.0337352 z "
         transform="scale(0.6) rotate(180) translate(0,0)" />
    </marker>
  </defs>
  <sodipodi:namedview
     pagecolor="#ffffff"
     bordercolor="#666666"
     borderopacity="1"
     objecttolerance="10"
     gridtolerance="10"
     guidetolerance="10"
     inkscape:pageopacity="0"
     inkscape:pageshadow="2"
     inkscape:window-width="1280"
     inkscape:window-height="996"
     id="namedview3056"
     showgrid="false"
     inkscape:zoom="1.4244601"
     inkscape:cx="176.26994"
     inkscape:cy="147.91207"
     inkscape:window-x="0"
     inkscape:window-y="0"
     inkscape:window-maximized="1"
     inkscape:current-layer="svg3054" />
  <rect
     style="fill:#dedede;fill-opacity:1;stroke:none"
     id="rect4036"
     width="175.8735"
     height="211.17242"
     x="-9.3711843"
     y="59.418877" />
  <g
     id="g4138">
    <path
       inkscape:connector-curvature="0"
       id="path3880-9"
       d="m 146.41651,76.457391 c 0.25312,10.8844 -2.53125,25.818769 -2.53125,30.375029 0,4.55625 -1.26563,21.00941 -0.50625,23.79378 0.75937,2.78438 1.26562,14.42814 1.26562,18.9844 0,4.55625 -1.26562,18.47814 -1.26562,18.47814 0,0 1.26562,4.80938 0.75937,7.84689 -0.50625,3.0375 -2.27812,2.27813 -2.025,5.0625 0.25313,2.78439 2.78438,5.06251 3.0375,7.84689 0.25313,2.78438 -1.51875,7.08751 -1.51875,7.08751 0,0 -2.53125,-2.025 -3.0375,3.79688 -0.50625,5.82188 -1.77188,13.66877 -1.77188,13.66877 l -2.35493,21.89742 0.56669,35.13471 29.46781,0 0,-194.657579 -20.11744,0"
       style="color:#000000;fill:#ffffff;fill-opacity:1;stroke:none;stroke-width:0.875;marker:none;visibility:visible;display:inline;overflow:visible;enable-background:accumulate" />
    <g
       transform="matrix(0.89347296,0,0,0.89347296,-1.0007448,50.66653)"
       id="g4003">
      <path
         style="color:#000000;fill:none;stroke:#000000;stroke-width:0.875;stroke-linecap:butt;stroke-linejoin:miter;stroke-miterlimit:4;stroke-opacity:1;stroke-dasharray:none;stroke-dashoffset:0;marker:none;visibility:visible;display:inline;overflow:visible;enable-background:accumulate"
         d="m 165.01841,28.443764 c 0.2833,12.182114 -2.83305,28.897106 -2.83305,33.996595 0,5.09949 -1.41653,23.514312 -0.56661,26.630667 0.84991,3.116354 1.41652,16.148384 1.41652,21.247874 0,5.09949 -1.41652,20.68126 -1.41652,20.68126 0,0 1.41652,5.38279 0.84991,8.78245 -0.56661,3.39966 -2.54974,2.54975 -2.26644,5.6661 0.28331,3.11636 3.11636,5.6661 3.39966,8.78246 0.28331,3.11635 -1.69983,7.93253 -1.69983,7.93253 0,0 -2.83305,-2.26643 -3.39966,4.24958 -0.56661,6.51601 -1.98313,15.29847 -1.98313,15.29847"
         id="path3880"
         inkscape:connector-curvature="0" />
      <path
         style="color:#000000;fill:none;stroke:#000000;stroke-width:0.875;stroke-linecap:butt;stroke-linejoin:miter;stroke-miterlimit:4;stroke-opacity:1;stroke-dasharray:none;stroke-dashoffset:0;marker:none;visibility:visible;display:inline;overflow:visible;enable-background:accumulate"
         d="m 153.96951,205.79267 c 0.28331,16.43169 0.28331,40.2293 0.28331,40.2293"
         id="path3882"
         inkscape:connector-curvature="0" />
      <path
         style="color:#000000;fill:none;stroke:#000000;stroke-width:0.875;stroke-linecap:butt;stroke-linejoin:miter;stroke-miterlimit:4;stroke-opacity:1;stroke-dasharray:none;stroke-dashoffset:0;marker:none;visibility:visible;display:inline;overflow:visible;enable-background:accumulate"
         d="m 161.05214,181.14514 c 3.96627,19.54804 1.98313,30.31363 1.98313,31.44685 0,1.13322 3.11636,3.96627 3.96627,-5.6661 0.84992,-9.63237 -0.56661,-11.3322 0.28331,-18.41482 0.84991,-7.08263 0.2833,-15.29847 0.2833,-15.29847"
         id="path3884"
         inkscape:connector-curvature="0" />
      <path
         style="color:#000000;fill:none;stroke:#000000;stroke-width:0.875;stroke-linecap:butt;stroke-linejoin:miter;stroke-miterlimit:4;stroke-opacity:1;stroke-dasharray:none;stroke-dashoffset:0;marker:none;visibility:visible;display:inline;overflow:visible;enable-background:accumulate"
         d="m 168.98468,112.58534 c 1.41652,9.34906 -1.69983,17.2816 0.2833,22.9477 1.98314,5.6661 -0.2833,13.31533 -0.2833,15.01516 0,1.69983 -1.69983,8.78246 -2.26644,5.3828 -0.56661,-3.39966 -0.28331,-4.53288 -0.28331,-7.64924 0,-3.11635 0.28331,-7.08262 0.56661,-9.63237 0.28331,-2.54974 -2.54974,-4.53288 -1.69983,-9.91567 0.84992,-5.38279 3.68297,-16.14838 3.68297,-16.14838 z"
         id="path3886"
         inkscape:connector-curvature="0" />
      <path
         style="color:#000000;fill:none;stroke:#000000;stroke-width:0.875;stroke-linecap:butt;stroke-linejoin:miter;stroke-miterlimit:4;stroke-opacity:1;stroke-dasharray:none;stroke-dashoffset:0;marker:none;visibility:visible;display:inline;overflow:visible;enable-background:accumulate"
         d="m 170.4012,49.125026 c 1.13322,7.365929 -1.69983,8.499149 0.56661,13.598638 2.26644,5.09949 1.41653,5.6661 0.84992,9.349064 -0.56661,3.682965 -2.83305,11.332198 -2.83305,11.332198"
         id="path3888"
         inkscape:connector-curvature="0" />
      <path
         style="color:#000000;fill:none;stroke:#000000;stroke-width:0.875;stroke-linecap:butt;stroke-linejoin:miter;stroke-miterlimit:4;stroke-opacity:1;stroke-dasharray:none;stroke-dashoffset:0;marker:none;visibility:visible;display:inline;overflow:visible;enable-background:accumulate"
         d="m 173.80086,120.23457 c 1.69983,8.21584 3.11636,12.18211 3.39966,14.73186 0.28331,2.54974 -3.39966,1.98313 -2.54974,7.93254 0.84991,5.9494 1.41652,14.16525 1.41652,14.16525"
         id="path3890"
         inkscape:connector-curvature="0" />
    </g>
  </g>
  <path
     style="color:#000000;fill:#ffffff;fill-opacity:1;stroke:none;stroke-width:0.875;marker:none;visibility:visible;display:inline;overflow:visible;enable-background:accumulate"
     d="m 39.030435,76.669371 c -0.844993,0.11037 0.09273,2.64328 1.312289,5.55629 l -0.5305,0.0837 0,-0.61426 c -3.063602,-2.50658 -4.744475,-1.39114 -3.908944,0.55842 0.337197,0.78681 1.043862,2.99511 1.759025,5.27708 -3.791086,-1.53805 -4.748085,-0.96217 -3.964786,0.86555 0.323598,0.75507 1.134907,2.48992 1.870709,4.10439 l -0.502579,0.80971 c -6.645705,-2.03649 -6.081307,1.23877 -4.160233,3.43429 1.688905,1.93018 6.11131,6.749059 7.426994,8.180839 l 0.753867,1.75902 -2.345366,-1.5915 c -6.40571,-2.50658 -8.622693,-1.39185 -6.673126,0.27921 1.759668,1.50829 9.544176,9.29528 11.196333,10.94505 -0.405896,-0.10481 -0.857698,-0.23788 -1.451894,-0.36297 -5.291674,-1.11405 -5.023677,0.84043 -4.188154,1.95447 0.835531,1.11404 7.817888,6.95233 7.817888,6.95233 0,0 -1.955169,-0.55491 -2.233682,0.83763 -0.278505,1.39254 0.0027,3.63044 1.116841,3.90895 1.114045,0.27851 1.396051,0.27921 1.396051,0.27921 -3.899133,1.11404 1.954473,8.34839 1.954473,8.34839 0,0 -2.512893,-0.83062 -2.512893,1.95447 0,1.61175 1.389878,3.28889 2.568735,4.43945 l -0.08372,0.19545 -0.251289,-0.44674 c -1.39254,3.62062 -0.302226,5.83761 1.647341,6.67313 0.366476,0.15706 0.647786,0.25941 0.921394,0.36297 l 0.418815,1.061 -0.781789,-0.86555 c -1.114035,2.50658 1.116842,4.18815 1.116842,4.18815 2.506584,6.68423 0.008,3.32611 3.350523,4.71866 0.123773,0.0515 0.185735,0.0888 0.307132,0.1396 3.149545,4.32158 5.126256,4.90572 9.437308,5.4446 2.219699,0.27746 7.620993,0.33454 12.4807,0.33506 l -1.284367,1.64734 0.502578,-0.86555 c -2.801591,3.1938 -4.934508,6.06207 -6.673126,8.68344 l -19.40516,24.54258 c -7.899847,3.69576 -17.911587,6.71869 -19.600564,7.98542 -2.22808,1.67105 -11.131377,3.32681 -7.510757,4.99786 3.620621,1.67105 7.789968,3.35052 7.789968,3.35052 0,0 8.73678,-5.37041 11.39178,-6.28223 l -0.80971,1.00516 c 36.763241,0.55702 32.867958,-2.7928 34.817525,-3.07131 1.949567,-0.27851 6.402323,0.55561 9.744439,-0.55842 1.966766,-0.65559 7.294322,-3.43258 11.698912,-5.89134 0.590907,2.58314 1.423972,6.25431 1.423972,6.25431 l 0.139605,0 c 0.623868,4.04748 0.742834,7.9549 1.507736,9.10225 0.999519,1.49929 2.226259,2.33657 4.076469,2.28953 l 0.69803,1.2006 -0.33505,-0.1396 c -0.27852,1.67106 1.12245,3.324 3.35052,3.88102 2.22808,0.55702 5.86342,4.46737 5.86342,4.46737 0,0 -1.11404,2.7935 0,3.35052 1.11403,0.55702 2.48847,-0.2771 3.88102,0.55842 1.39254,0.83553 4.19096,4.44295 5.30499,5.8355 1.11404,1.39254 2.76419,0.008 2.76419,3.07131 0,3.0636 1.67526,6.67313 1.67526,6.67313 0,0 1.95728,3.91034 3.07131,4.46736 1.11404,0.55702 3.90895,0.83763 3.90895,0.83763 l -3.07132,-1.67526 -0.83763,-1.67526 -0.41881,-0.78179 c 0.62095,-0.24681 0.97723,-0.61426 0.97723,-0.61426 0,0 0.83553,-0.56123 0,-1.67527 -0.83553,-1.11403 -2.51289,-3.60181 -2.51289,-3.60181 0,0 0.56473,0.83272 3.07131,-1.11684 2.50659,-1.94957 5.00067,-2.79981 6.11471,-5.86342 1.11403,-3.0636 0.28272,-5.00207 1.67526,-6.67312 1.39255,-1.67106 -1.11053,-4.19026 1.39605,-5.02579 2.50659,-0.83553 3.35053,-1.67526 3.35053,-1.67526 l -3.35053,-1.08892 -0.83763,1.00516 0.25129,-0.67011 0.89347,-1.75902 c 1.16715,-1.62025 2.76419,-3.04339 2.76419,-3.04339 0,0 -1.95728,-0.55702 -3.07132,0 -1.11403,0.55701 -1.95587,0.56262 -2.51289,2.23368 -0.55702,1.67105 -1.92655,7.78997 -1.92655,7.78997 0,0 -0.83904,4.19096 -1.39605,5.30499 -0.55304,1.10604 -5.48532,3.29102 -5.55629,3.3226 0,-0.0522 -0.31344,-0.39615 -2.82002,-2.48497 -2.29386,-1.91156 -7.44795,-7.23719 -10.55415,-10.47038 l -1.87071,-2.03824 -3.12716,-2.56873 c 0.14248,-0.14451 0.25129,-0.30036 0.25129,-0.5305 0,-1.67106 1.39605,-9.46523 1.39605,-9.46523 l 0.0279,0 3.37845,-22.00178 c 0.74206,0.36593 2.05116,1.18495 4.66281,2.79211 4.47677,2.75493 5.86764,3.57619 6.86857,2.95963 l -0.75387,1.47981 c 3.62062,3.62062 8.93473,1.95447 8.93473,1.95447 0,0 2.48217,-1.40656 1.36813,-5.5842 -1.11403,-4.17764 -1.92374,-10.55836 -0.80971,-12.22941 1.11404,-1.67106 -0.29942,-5.02509 2.76419,-4.74658 3.0636,0.27851 8.65551,-0.55842 8.65551,-0.55842 l -7.28988,-1.61443 c 0,0 -0.30621,-6.45155 -0.86323,-8.1226 -0.55701,-1.67106 -0.43224,-6.45084 0.40329,-9.23593 0.83552,-2.7851 4.96192,-5.54311 6.63298,-6.10012 1.67106,-0.55702 -2.51499,-1.95307 -3.35052,-1.39606 -0.83553,0.55703 -3.07482,0.005 -4.46736,2.23369 -1.39255,2.22807 -3.87963,6.95865 -3.32261,9.46523 0.55702,2.50658 -1.39605,14.77022 -1.39605,14.77022 l -1.39605,9.46523 -0.75387,1.50774 c -0.15829,-0.5071 -0.36401,-1.07164 -0.64218,-1.78695 -1.94956,-5.01317 -5.30079,-7.23785 -3.62974,-9.74444 1.67107,-2.50658 4.18816,-10.86128 4.18816,-10.86128 0,0 3.63044,-4.73758 3.90894,-12.25733 0.27852,-7.51976 -2.23087,-16.15239 -1.11684,-21.72257 1.11404,-5.57019 1.95097,-10.03627 0.55842,-15.04944 -1.29853,-4.67468 -2.32032,-6.83693 -2.45705,-7.11986 l 0.64219,-1.34021 0.1396,0.11168 c 0,0 -0.0105,-0.11746 -0.0279,-0.33505 l 0.22337,-1.92655 -0.19544,-0.11168 c 0.0485,-0.5542 0.11929,-1.14729 0.27921,-1.78693 0.55701,-2.228069 1.39605,-7.538679 1.39605,-7.538679 0,0 -4.68065,1.58305 -7.25947,6.70105 l -0.11168,-0.0558 -1.67527,1.619409 -0.16752,0.22337 c -8.09827,5.53754 -9.19315,12.99104 -9.46523,14.35139 -0.009,0.0475 -0.0184,0.18303 -0.0279,0.25129 l -0.78179,1.00516 0.67011,-0.0279 c -1.11786,4.47145 -0.94932,12.31318 -0.94932,12.31318 l -2.42913,5.38876 -6.5056,6.17055 -4.467363,1.11685 -2.233683,-1.50775 -2.624576,-3.15508 0.362973,-0.83763 C 88.503272,128.28059 86.630035,124.49368 78.259506,112.88294 69.625716,100.90705 63.489282,93.673291 63.489282,93.673291 c 0,0 -8.351185,-16.41826 -9.46523,-16.69678 -0.499764,-0.12493 -0.880455,1.01795 -1.005157,2.93171 -3.887331,-2.45034 -6.328067,-1.14906 -6.812731,1.89863 l -1.200604,0.0558 c -3.543076,-3.86431 -5.310598,-5.2801 -5.975101,-5.19331 z"
     id="path3834-4"
     inkscape:connector-curvature="0"
     sodipodi:nodetypes="ccccscsccscccscsscssccscccsccccscscccccsscccsscccscccscsssscscccccscssssccccccsscscscccscccscccsssccsssssscccsscsssccccccscccccsccccccccccscscccsc" />
  <path
     style="color:#000000;fill:none;stroke:#000000;stroke-width:0.78178883;stroke-linecap:butt;stroke-linejoin:miter;stroke-miterlimit:4;stroke-opacity:1;stroke-dasharray:none;stroke-dashoffset:0;marker:none;visibility:visible;display:inline;overflow:visible;enable-background:accumulate"
     d="m 124.07804,100.67301 c -8.63379,5.57018 -9.74782,13.36845 -10.02633,14.76099 -0.27851,1.39255 -0.55702,11.97591 -0.55702,13.08994 0,1.11404 -2.50659,5.8487 -6.40571,8.9123 -3.89914,3.0636 -3.34212,2.7851 -3.34212,2.7851"
     id="path3834"
     inkscape:connector-curvature="0" />
  <path
     style="color:#000000;fill:none;stroke:#000000;stroke-width:0.78178883;stroke-linecap:butt;stroke-linejoin:miter;stroke-miterlimit:4;stroke-opacity:1;stroke-dasharray:none;stroke-dashoffset:0;marker:none;visibility:visible;display:inline;overflow:visible;enable-background:accumulate"
     d="m 109.31705,143.00643 c -10.304847,-6.40572 -6.12721,2.22808 -13.646959,-6.12721 -7.519753,-8.35528 -9.190808,-11.9759 -17.824599,-23.9518 -8.63379,-11.9759 -14.760995,-19.217147 -14.760995,-19.217147 0,0 -8.355282,-16.432053 -9.469319,-16.710562 -1.114037,-0.278509 -1.671056,5.570188 0,12.811431 1.671056,7.241243 1.671056,7.241243 1.671056,7.241243 l 0,0 0,0"
     id="path3836"
     inkscape:connector-curvature="0" />
  <path
     style="color:#000000;fill:none;stroke:#000000;stroke-width:0.78178883;stroke-linecap:butt;stroke-linejoin:miter;stroke-miterlimit:4;stroke-opacity:1;stroke-dasharray:none;stroke-dashoffset:0;marker:none;visibility:visible;display:inline;overflow:visible;enable-background:accumulate"
     d="m 52.77965,80.063314 c -6.405715,-4.17764 -8.9123,1.671056 -5.570187,8.9123 3.342112,7.241243 3.342112,7.241243 3.342112,7.241243 l 0,0 0,0"
     id="path3838"
     inkscape:connector-curvature="0" />
  <path
     style="color:#000000;fill:none;stroke:#000000;stroke-width:0.78178883;stroke-linecap:butt;stroke-linejoin:miter;stroke-miterlimit:4;stroke-opacity:1;stroke-dasharray:none;stroke-dashoffset:0;marker:none;visibility:visible;display:inline;overflow:visible;enable-background:accumulate"
     d="m 44.702879,82.01288 c -8.9123,-9.747827 -6.684225,-4.177641 -4.17764,1.671056 2.506584,5.848697 4.734659,13.368449 4.734659,13.368449 l 0,0 0,0"
     id="path3840"
     inkscape:connector-curvature="0" />
  <path
     style="color:#000000;fill:none;stroke:#000000;stroke-width:0.78178883;stroke-linecap:butt;stroke-linejoin:miter;stroke-miterlimit:4;stroke-opacity:1;stroke-dasharray:none;stroke-dashoffset:0;marker:none;visibility:visible;display:inline;overflow:visible;enable-background:accumulate"
     d="M 39.411201,81.73437 C 36.347598,79.227786 34.676542,80.341824 35.51207,82.291389 36.347598,84.240955 39.411201,94.5458 39.411201,94.5458"
     id="path3842"
     inkscape:connector-curvature="0" />
  <path
     style="color:#000000;fill:none;stroke:#000000;stroke-width:0.78178883;stroke-linecap:butt;stroke-linejoin:miter;stroke-miterlimit:4;stroke-opacity:1;stroke-dasharray:none;stroke-dashoffset:0;marker:none;visibility:visible;display:inline;overflow:visible;enable-background:accumulate"
     d="m 38.018654,87.861576 c -4.45615,-1.949566 -5.570187,-1.392547 -4.734659,0.557019 0.835528,1.949565 4.17764,9.190809 4.17764,9.190809"
     id="path3844"
     inkscape:connector-curvature="0" />
  <path
     style="color:#000000;fill:none;stroke:#000000;stroke-width:0.78178883;stroke-linecap:butt;stroke-linejoin:miter;stroke-miterlimit:4;stroke-opacity:1;stroke-dasharray:none;stroke-dashoffset:0;marker:none;visibility:visible;display:inline;overflow:visible;enable-background:accumulate"
     d="m 34.955052,93.431764 c -6.962734,-2.228075 -6.405716,1.114036 -4.45615,3.342111 1.949565,2.228075 8.355281,9.190805 8.355281,9.190805"
     id="path3846"
     inkscape:connector-curvature="0" />
  <path
     style="color:#000000;fill:none;stroke:#000000;stroke-width:0.78178883;stroke-linecap:butt;stroke-linejoin:miter;stroke-miterlimit:4;stroke-opacity:1;stroke-dasharray:none;stroke-dashoffset:0;marker:none;visibility:visible;display:inline;overflow:visible;enable-background:accumulate"
     d="m 36.347598,105.12916 c -6.405715,-2.50659 -8.63379,-1.39255 -6.684224,0.27851 1.949565,1.67105 12.254411,11.9759 12.254411,11.9759 0,0 2.785094,-0.27851 -2.506584,-1.39255 -5.291678,-1.11404 -5.013168,0.83553 -4.177641,1.94957 0.835529,1.11403 7.798263,6.96273 7.798263,6.96273 0,0 -1.949565,-0.55702 -2.228075,0.83553 -0.278509,1.39255 0,3.62062 1.114037,3.89913 1.114038,0.27851 1.392547,0.27851 1.392547,0.27851 -3.899131,1.11404 1.949566,8.35528 1.949566,8.35528 0,0 -2.506585,-0.83553 -2.506585,1.94957 0,2.78509 4.177641,5.84869 4.177641,5.84869 l 0,0"
     id="path3848"
     inkscape:connector-curvature="0" />
  <path
     style="color:#000000;fill:none;stroke:#000000;stroke-width:0.78178883;stroke-linecap:butt;stroke-linejoin:miter;stroke-miterlimit:4;stroke-opacity:1;stroke-dasharray:none;stroke-dashoffset:0;marker:none;visibility:visible;display:inline;overflow:visible;enable-background:accumulate"
     d="m 44.981388,144.39898 c -1.392546,3.62062 -0.278509,5.8487 1.671056,6.68422 1.949566,0.83553 2.506585,0.83553 2.506585,0.83553"
     id="path3850"
     inkscape:connector-curvature="0" />
  <path
     style="color:#000000;fill:none;stroke:#000000;stroke-width:0.78178883;stroke-linecap:butt;stroke-linejoin:miter;stroke-miterlimit:4;stroke-opacity:1;stroke-dasharray:none;stroke-dashoffset:0;marker:none;visibility:visible;display:inline;overflow:visible;enable-background:accumulate"
     d="m 47.209463,151.64022 c -1.114038,2.50658 1.114037,4.17764 1.114037,4.17764 l 0,0 c 2.506584,6.68423 0,3.34211 3.342113,4.73466 3.342112,1.39255 5.848696,2.50658 5.848696,2.50658"
     id="path3852"
     inkscape:connector-curvature="0" />
  <path
     style="color:#000000;fill:none;stroke:#000000;stroke-width:0.78178883;stroke-linecap:butt;stroke-linejoin:miter;stroke-miterlimit:4;stroke-opacity:1;stroke-dasharray:none;stroke-dashoffset:0;marker:none;visibility:visible;display:inline;overflow:visible;enable-background:accumulate"
     d="m 51.665613,160.27401 c 3.342112,4.73466 5.291677,5.29168 9.747827,5.8487 4.45615,0.55702 21.72373,0.2785 21.72373,0.2785 l 0,0"
     id="path3854"
     inkscape:connector-curvature="0" />
  <path
     style="color:#000000;fill:none;stroke:#000000;stroke-width:0.78178883;stroke-linecap:butt;stroke-linejoin:miter;stroke-miterlimit:4;stroke-opacity:1;stroke-dasharray:none;stroke-dashoffset:0;marker:none;visibility:visible;display:inline;overflow:visible;enable-background:accumulate"
     d="m 73.110833,167.23674 c -13.925468,15.87503 -12.254411,24.23032 -19.495655,29.52199 -7.241243,5.29169 -23.951804,10.02634 -26.179879,11.6974 -2.228075,1.67105 -11.140374,3.34211 -7.519753,5.01317 3.620622,1.67105 7.798262,3.34211 7.798262,3.34211 0,0 9.469318,-5.8487 11.697393,-6.40572 2.228075,-0.55701 10.026337,-2.78509 10.026337,-2.78509"
     id="path3856"
     inkscape:connector-curvature="0" />
  <path
     style="color:#000000;fill:none;stroke:#000000;stroke-width:0.78178883;stroke-linecap:butt;stroke-linejoin:miter;stroke-miterlimit:4;stroke-opacity:1;stroke-dasharray:none;stroke-dashoffset:0;marker:none;visibility:visible;display:inline;overflow:visible;enable-background:accumulate"
     d="m 42.753313,211.51973 c 6.684225,-1.11404 16.989071,-5.29168 16.989071,-5.29168"
     id="path3858"
     inkscape:connector-curvature="0" />
  <path
     style="color:#000000;fill:none;stroke:#000000;stroke-width:0.78178883;stroke-linecap:butt;stroke-linejoin:miter;stroke-miterlimit:4;stroke-opacity:1;stroke-dasharray:none;stroke-dashoffset:0;marker:none;visibility:visible;display:inline;overflow:visible;enable-background:accumulate"
     d="m 38.297164,211.51973 c 36.763235,0.55702 32.864104,-2.78509 34.813669,-3.0636 1.949566,-0.27851 6.405715,0.55701 9.747828,-0.55702 3.342112,-1.11404 16.432052,-8.35528 18.103109,-9.74783 1.67106,-1.39255 5.57019,-3.0636 6.96273,-5.8487 1.39255,-2.78509 1.67106,-4.73465 3.62062,-5.01317 1.94957,-0.2785 -0.55702,-1.94956 6.68423,2.50659 7.24124,4.45615 6.40571,3.89913 8.9123,0.27851 2.50658,-3.62062 3.62062,-2.7851 1.67105,-7.79826 -1.94956,-5.01317 -5.29167,-7.24125 -3.62062,-9.74783 1.67106,-2.50659 4.17765,-10.86186 4.17765,-10.86186 0,0 3.62062,-4.73466 3.89912,-12.25441 0.27852,-7.51976 -2.22807,-16.15355 -1.11403,-21.72374 1.11403,-5.57018 1.94956,-10.02633 0.55701,-15.0395 -1.39254,-5.01317 -2.50658,-7.24124 -2.50658,-7.24124 0,0 -0.55702,0.83552 -2.22807,0 -1.67106,-0.83553 -3.62062,-2.7851 -3.62062,-2.7851"
     id="path3860"
     inkscape:connector-curvature="0" />
  <path
     style="color:#000000;fill:none;stroke:#000000;stroke-width:0.78178883;stroke-linecap:butt;stroke-linejoin:miter;stroke-miterlimit:4;stroke-opacity:1;stroke-dasharray:none;stroke-dashoffset:0;marker:none;visibility:visible;display:inline;overflow:visible;enable-background:accumulate"
     d="m 94.834563,202.88594 c 1.949565,5.29168 1.671056,12.81143 2.785094,14.48249 1.114037,1.67105 2.506583,2.50658 4.734663,2.22807 2.22807,-0.2785 6.40571,0.55702 6.40571,-1.11403 0,-1.67106 1.39255,-9.46933 1.39255,-9.46933"
     id="path3862"
     inkscape:connector-curvature="0" />
  <path
     style="color:#000000;fill:none;stroke:#000000;stroke-width:0.78178883;stroke-linecap:butt;stroke-linejoin:miter;stroke-miterlimit:4;stroke-opacity:1;stroke-dasharray:none;stroke-dashoffset:0;marker:none;visibility:visible;display:inline;overflow:visible;enable-background:accumulate"
     d="m 102.07581,220.71054 c -0.27851,1.67106 1.11403,3.34211 3.34211,3.89913 2.22808,0.55702 5.8487,4.45615 5.8487,4.45615 0,0 -1.11404,2.78509 0,3.34211 1.11403,0.55702 2.50658,-0.27851 3.89913,0.55702 1.39254,0.83553 4.17764,4.45615 5.29167,5.8487 1.11404,1.39255 2.78509,0 2.78509,3.0636 0,3.0636 1.67107,6.68422 1.67107,6.68422 0,0 1.94956,3.89914 3.0636,4.45616 1.11403,0.55701 3.89912,0.83553 3.89912,0.83553 l -3.0636,-1.67107 -0.83552,-1.67105"
     id="path3864"
     inkscape:connector-curvature="0" />
  <path
     style="color:#000000;fill:none;stroke:#000000;stroke-width:0.78178883;stroke-linecap:butt;stroke-linejoin:miter;stroke-miterlimit:4;stroke-opacity:1;stroke-dasharray:none;stroke-dashoffset:0;marker:none;visibility:visible;display:inline;overflow:visible;enable-background:accumulate"
     d="m 126.30612,249.95402 c 1.39255,0 2.22808,-0.83553 2.22808,-0.83553 0,0 0.83553,-0.55702 0,-1.67105 -0.83553,-1.11404 -2.50659,-3.62062 -2.50659,-3.62062 0,0 0.55702,0.83552 3.0636,-1.11404 2.50659,-1.94956 5.01317,-2.7851 6.12721,-5.8487 1.11404,-3.0636 0.27851,-5.01317 1.67105,-6.68422 1.39255,-1.67106 -1.11403,-4.17764 1.39255,-5.01317 2.50659,-0.83553 3.34212,-1.67106 3.34212,-1.67106 l -3.34212,-1.11403 -1.11403,1.39254"
     id="path3866"
     inkscape:connector-curvature="0" />
  <path
     style="color:#000000;fill:none;stroke:#000000;stroke-width:0.78178883;stroke-linecap:butt;stroke-linejoin:miter;stroke-miterlimit:4;stroke-opacity:1;stroke-dasharray:none;stroke-dashoffset:0;marker:none;visibility:visible;display:inline;overflow:visible;enable-background:accumulate"
     d="m 138.00352,221.82457 c 1.11403,-1.94956 3.3421,-3.89912 3.3421,-3.89912 0,0 -1.94956,-0.55702 -3.0636,0 -1.11403,0.55702 -1.94956,0.55702 -2.50658,2.22807 -0.55702,1.67105 -1.94957,7.79827 -1.94957,7.79827 0,0 -0.83552,4.17763 -1.39254,5.29167 -0.55703,1.11404 -5.57019,3.34212 -5.57019,3.34212 0,0 0.55702,0.2785 -2.7851,-2.50659 -3.3421,-2.7851 -13.08994,-13.08994 -13.08994,-13.08994"
     id="path3868"
     inkscape:connector-curvature="0" />
  <path
     style="color:#000000;fill:none;stroke:#000000;stroke-width:0.78178883;stroke-linecap:butt;stroke-linejoin:miter;stroke-miterlimit:4;stroke-opacity:1;stroke-dasharray:none;stroke-dashoffset:0;marker:none;visibility:visible;display:inline;overflow:visible;enable-background:accumulate"
     d="m 112.65917,227.39476 c 3.0636,1.94957 11.41887,8.63379 11.41887,8.63379"
     id="path3870"
     inkscape:connector-curvature="0" />
  <path
     sodipodi:nodetypes="ccsssccsssssscc"
     style="color:#000000;fill:none;stroke:#000000;stroke-width:0.78178883;stroke-linecap:butt;stroke-linejoin:miter;stroke-miterlimit:4;stroke-opacity:1;stroke-dasharray:none;stroke-dashoffset:0;marker:none;visibility:visible;display:inline;overflow:visible;enable-background:accumulate"
     d="m 124.35656,194.25215 c 3.62062,3.62062 8.91229,1.94957 8.91229,1.94957 0,0 2.50659,-1.39255 1.39255,-5.57019 -1.11403,-4.17764 -1.94957,-10.58336 -0.83553,-12.25441 1.11404,-1.67106 -0.2785,-5.01317 2.7851,-4.73466 3.0636,0.27851 8.63379,-0.55702 8.63379,-0.55702 l -6.98765,-2.17825 c 0,0 -0.17663,-6.11262 -0.73365,-7.78367 -0.55701,-1.67107 -0.12157,-6.77197 0.71396,-9.55706 0.83552,-2.78509 4.22224,-4.98985 5.8933,-5.54686 1.67106,-0.55702 -2.50658,-1.94957 -3.34211,-1.39255 -0.83553,0.55702 -3.06361,0 -4.45615,2.22808 -1.39255,2.22807 -3.89913,6.96273 -3.34211,9.46931 0.55702,2.50658 -1.39255,14.761 -1.39255,14.761 l -1.39255,9.46932"
     id="path3872"
     inkscape:connector-curvature="0" />
  <path
     style="color:#000000;fill:none;stroke:#000000;stroke-width:0.78178883;stroke-linecap:butt;stroke-linejoin:miter;stroke-miterlimit:4;stroke-opacity:1;stroke-dasharray:none;stroke-dashoffset:0;marker:none;visibility:visible;display:inline;overflow:visible;enable-background:accumulate"
     d="m 125.19208,99.837479 c 2.50659,-5.570187 7.51975,-7.241244 7.51975,-7.241244 0,0 -0.83553,5.291678 -1.39254,7.519755 -0.55702,2.22807 -0.27851,4.17764 -0.27851,4.17764"
     id="path3874"
     inkscape:connector-curvature="0" />
  <path
     style="color:#000000;fill:none;stroke:#000000;stroke-width:0.78178883;stroke-linecap:butt;stroke-linejoin:miter;stroke-miterlimit:4;stroke-opacity:1;stroke-dasharray:none;stroke-dashoffset:0;marker:none;visibility:visible;display:inline;overflow:visible;enable-background:accumulate"
     d="m 131.31929,95.659838 c -2.22808,5.570192 -2.22808,7.241242 -2.22808,7.241242 l 0,0"
     id="path3876"
     inkscape:connector-curvature="0" />
  <path
     style="color:#000000;fill:none;stroke:#000000;stroke-width:2.5;stroke-linecap:butt;stroke-linejoin:miter;stroke-miterlimit:4;stroke-opacity:1;stroke-dasharray:none;stroke-dashoffset:0;marker:none;marker-end:url(#Arrow2Mend);visibility:visible;display:inline;overflow:visible;enable-background:accumulate"
     d="m 138.4239,132.73807 0,-55.772142"
     id="path4594"
     inkscape:connector-curvature="0" />
  <g
     id="g4813"
     transform="translate(-61.083772,201.17807)">
    <text
       sodipodi:linespacing="125%"
       id="text4778"
       y="-40.944469"
       x="61.747726"
       style="font-size:18px;font-style:normal;font-variant:normal;font-weight:normal;font-stretch:normal;text-indent:0;text-align:start;text-decoration:none;line-height:125%;letter-spacing:0px;word-spacing:0px;text-transform:none;direction:ltr;block-progression:tb;writing-mode:lr-tb;text-anchor:start;color:#000000;fill:#000000;fill-opacity:1;fill-rule:nonzero;stroke:none;stroke-width:1px;marker:none;visibility:visible;display:inline;overflow:visible;enable-background:accumulate;font-family:FreeSans;-inkscape-font-specification:FreeSans"
       xml:space="preserve"><tspan
         y="-40.944469"
         x="61.747726"
         id="tspan4780"
         sodipodi:role="line">F</tspan></text>
    <text
       sodipodi:linespacing="125%"
       id="text4782"
       y="-32.97702"
       x="69.715172"
       style="font-size:14px;font-style:normal;font-variant:normal;font-weight:normal;font-stretch:normal;text-indent:0;text-align:start;text-decoration:none;line-height:125%;letter-spacing:0px;word-spacing:0px;text-transform:none;direction:ltr;block-progression:tb;writing-mode:lr-tb;text-anchor:start;color:#000000;fill:#000000;fill-opacity:1;fill-rule:nonzero;stroke:none;stroke-width:1px;marker:none;visibility:visible;display:inline;overflow:visible;enable-background:accumulate;font-family:FreeSans;-inkscape-font-specification:FreeSans"
       xml:space="preserve"><tspan
         y="-32.97702"
         x="69.715172"
         id="tspan4784"
         sodipodi:role="line">N</tspan></text>
  </g>
  <g
     id="g4819"
     transform="translate(-19.918621,118.84778)">
    <text
       sodipodi:linespacing="125%"
       id="text4778-5"
       y="-41.02301"
       x="132.10649"
       style="font-size:18px;font-style:normal;font-variant:normal;font-weight:normal;font-stretch:normal;text-indent:0;text-align:start;text-decoration:none;line-height:125%;letter-spacing:0px;word-spacing:0px;text-transform:none;direction:ltr;block-progression:tb;writing-mode:lr-tb;text-anchor:start;color:#000000;fill:#000000;fill-opacity:1;fill-rule:nonzero;stroke:none;stroke-width:1px;marker:none;visibility:visible;display:inline;overflow:visible;enable-background:accumulate;font-family:FreeSans;-inkscape-font-specification:FreeSans"
       xml:space="preserve"><tspan
         y="-41.02301"
         x="132.10649"
         id="tspan4780-9"
         sodipodi:role="line">F</tspan></text>
    <text
       sodipodi:linespacing="125%"
       id="text4782-7"
       y="-33.055561"
       x="140.07393"
       style="font-size:14px;font-style:normal;font-variant:normal;font-weight:normal;font-stretch:normal;text-indent:0;text-align:start;text-decoration:none;line-height:125%;letter-spacing:0px;word-spacing:0px;text-transform:none;direction:ltr;block-progression:tb;writing-mode:lr-tb;text-anchor:start;color:#000000;fill:#000000;fill-opacity:1;fill-rule:nonzero;stroke:none;stroke-width:1px;marker:none;visibility:visible;display:inline;overflow:visible;enable-background:accumulate;font-family:FreeSans;-inkscape-font-specification:FreeSans"
       xml:space="preserve"><tspan
         y="-33.055561"
         x="140.07393"
         id="tspan4784-7"
         sodipodi:role="line">S</tspan></text>
  </g>
  <path
     style="color:#000000;fill:#989898;stroke:none;stroke-width:0.87500000000000000;stroke-linecap:butt;stroke-linejoin:miter;stroke-miterlimit:4;stroke-opacity:1;stroke-dasharray:none;stroke-dashoffset:0;marker:none;visibility:visible;display:inline;overflow:visible;enable-background:accumulate;fill-opacity:1"
     d="m 120.18818,103.63506 1.47869,6.92029 c 0,0 0.17744,1.3604 1.18295,3.78545 1.00552,2.42506 2.7208,7.09773 4.0812,8.93131 1.3604,1.83358 3.48971,5.67818 3.90375,7.03858 0.41403,1.3604 1.06466,2.54335 1.06466,2.54335 l 0.47318,-5.14585 0.35488,-3.54887 c 0,0 -1.41954,-0.53232 -2.83909,-2.72079 -1.41954,-2.18847 -4.61352,-7.6892 -4.73181,-8.39898 -0.1183,-0.70977 -3.48972,-10.46914 -3.48972,-10.46914 z"
     id="path4844"
     inkscape:connector-curvature="0" />
  <path
     sodipodi:type="arc"
     style="color:#000000;fill:#ffffff;stroke:#000000;stroke-width:1px;stroke-linecap:butt;stroke-linejoin:miter;stroke-miterlimit:4;stroke-opacity:1;stroke-dasharray:none;stroke-dashoffset:0;marker:none;visibility:visible;display:inline;overflow:visible;enable-background:accumulate;fill-opacity:1"
     id="path3878"
     sodipodi:cx="121.96278"
     sodipodi:cy="65.627541"
     sodipodi:rx="2.053961"
     sodipodi:ry="2.1247871"
     d="m 121.12682,63.686701 a 2.053961,2.1247871 0 1 1 -8.6e-4,3.96e-4"
     sodipodi:start="4.2932211"
     sodipodi:end="10.575948"
     sodipodi:open="true"
     transform="matrix(0.89347296,0,0,0.89347296,14.345359,52.432946)" />
  <path
     sodipodi:type="arc"
     style="color:#000000;fill:#000000;fill-opacity:1;stroke:none;stroke-width:1px;marker:none;visibility:visible;display:inline;overflow:visible;enable-background:accumulate"
     id="path3878-6"
     sodipodi:cx="121.96278"
     sodipodi:cy="65.627541"
     sodipodi:rx="2.053961"
     sodipodi:ry="2.1247871"
     d="m 121.12682,63.686701 a 2.053961,2.1247871 0 1 1 -8.6e-4,3.96e-4"
     sodipodi:start="4.2932211"
     sodipodi:end="10.575948"
     sodipodi:open="true"
     transform="matrix(0.5410744,0,0,0.5410744,57.356509,75.397475)" />
  <g
     id="g4924">
    <path
       inkscape:connector-curvature="0"
       d="m 109.10582,155.40187 c 0.4628,0.70781 0.98825,1.37493 1.51549,2.03586 0.47312,0.65835 1.01417,1.26315 1.47649,1.92896 0.33501,0.44247 0.68169,0.87292 1.04084,1.29511 0.28027,0.30126 0.59432,0.56619 0.8973,0.84443 0.45909,0.38525 0.92626,0.75932 1.43989,1.0695 0.22679,0.097 0.43439,0.2285 0.65371,0.3403 0,0 -2.80584,1.83375 -2.80584,1.83375 l 0,0 c -0.21687,-0.12329 -0.43165,-0.25016 -0.65,-0.37085 -0.51449,-0.34149 -0.99747,-0.72482 -1.48185,-1.10729 -0.32361,-0.27984 -0.65091,-0.5539 -0.92423,-0.88552 -0.35724,-0.43542 -0.70006,-0.88136 -1.02413,-1.34237 -0.44751,-0.66519 -0.98305,-1.26654 -1.44444,-1.92248 -0.51948,-0.6706 -1.02938,-1.34893 -1.5831,-1.99218 0,0 2.88987,-1.72722 2.88987,-1.72722 z"
       id="path4912"
       style="fill:#989898;fill-opacity:1;stroke:none" />
    <path
       inkscape:connector-curvature="0"
       d="m 107.93697,161.02351 c 0.48263,0.58848 1.05043,1.09505 1.64066,1.572 0.55261,0.45034 1.13442,0.86094 1.70983,1.28092 0.36287,0.25407 0.75091,0.47659 1.10647,0.74047 0.0537,0.0342 0.10748,0.0684 0.16121,0.10258 0,0 -2.8294,1.81271 -2.8294,1.81271 l 0,0 c -0.0554,-0.0381 -0.11078,-0.0763 -0.16617,-0.1144 -0.36411,-0.25193 -0.73613,-0.49227 -1.09224,-0.75593 -0.56669,-0.42884 -1.11658,-0.87927 -1.67367,-1.32045 -0.60337,-0.49203 -1.16454,-1.02855 -1.74201,-1.54977 0,0 2.88532,-1.76813 2.88532,-1.76813 z"
       id="path4914"
       style="fill:#989898;fill-opacity:1;stroke:none" />
    <path
       inkscape:connector-curvature="0"
       d="m 102.91589,160.48235 c 0.20313,0.77792 0.69222,1.43797 1.10925,2.11279 0.44453,0.67703 0.97004,1.28795 1.4996,1.8978 0.41778,0.4668 0.78936,0.97145 1.19825,1.44608 0.2656,0.2963 0.12835,0.1584 0.40996,0.41546 0,0 -2.8368,1.74817 -2.8368,1.74817 l 0,0 c -0.29033,-0.28677 -0.14886,-0.13823 -0.4241,-0.44592 -0.40773,-0.47501 -0.77629,-0.9806 -1.18663,-1.45301 -0.53404,-0.62663 -1.03652,-1.27368 -1.49084,-1.96143 -0.44508,-0.70671 -0.92696,-1.39654 -1.256893,-2.16766 0,0 2.978203,-1.59228 2.978203,-1.59228 z"
       id="path4916"
       style="fill:#989898;fill-opacity:1;stroke:none" />
    <path
       inkscape:connector-curvature="0"
       d="m 109.98505,167.55886 c 0.53599,0.32998 1.03223,0.72288 1.55766,1.07019 0.47135,0.35824 0.98504,0.66507 1.53522,0.88499 0.35684,0.1588 0.17934,0.0854 0.53212,0.22118 0,0 -2.77149,1.8551 -2.77149,1.8551 l 0,0 c -0.35322,-0.14988 -0.17602,-0.073 -0.53156,-0.23073 -0.55317,-0.25582 -1.08713,-0.55982 -1.56356,-0.94221 -0.50983,-0.35781 -1.00703,-0.75463 -1.5838,-0.99949 0,0 2.82541,-1.85903 2.82541,-1.85903 z"
       id="path4918"
       style="fill:#989898;fill-opacity:1;stroke:none" />
    <path
       inkscape:connector-curvature="0"
       d="m 97.926675,162.25613 c 0.340482,0.60116 0.776,1.14099 1.200079,1.68425 0.408677,0.50369 0.822891,1.00101 1.240736,1.49647 0.43897,0.59742 0.6836,1.29893 0.96643,1.97667 0.3197,0.77897 0.62744,1.56278 0.94441,2.34285 0.24985,0.65933 0.56017,1.29607 0.93771,1.89149 0.41548,0.58903 0.91786,1.10988 1.41817,1.62638 0.45975,0.41618 0.91046,0.84261 1.35792,1.27144 0.23387,0.19245 0.11658,0.0957 0.35187,0.29028 0,0 -2.84019,1.77556 -2.84019,1.77556 l 0,0 c -0.24201,-0.20426 -0.12229,-0.0991 -0.359,-0.31557 -0.44073,-0.43552 -0.88138,-0.87139 -1.32916,-1.29979 -0.51853,-0.53055 -1.03873,-1.06351 -1.46342,-1.67497 -0.401438,-0.60571 -0.694179,-1.27661 -0.947019,-1.95658 -0.323603,-0.7756 -0.623384,-1.5608 -0.942309,-2.33836 -0.282632,-0.63984 -0.526986,-1.30619 -0.948214,-1.87169 -0.427552,-0.49326 -0.813504,-1.01823 -1.230734,-1.52021 -0.432417,-0.55702 -0.852618,-1.12261 -1.274049,-1.68767 0,0 2.91677,-1.69055 2.91677,-1.69055 z"
       id="path4920"
       style="fill:#989898;fill-opacity:1;stroke:none" />
    <path
       inkscape:connector-curvature="0"
       d="m 94.940644,167.54614 c 0.08609,0.51193 0.194736,1.02849 0.345914,1.52586 0.131817,0.43904 0.357507,0.84016 0.527886,1.26393 0.212985,0.47555 0.381735,0.969 0.608129,1.43833 0.340447,0.6108 0.704503,1.20484 1.121251,1.76652 0.419145,0.56245 0.801796,1.15074 1.228874,1.70724 0.332491,0.48181 0.696303,0.93986 1.038545,1.4145 0.271547,0.40194 0.582747,0.77166 0.884097,1.15024 0.23487,0.29515 0.4889,0.52505 0.8027,0.73065 0.39211,0.18345 0.81551,0.31234 1.23675,0.41499 0.3665,0.0511 0.72189,0.10217 1.07926,0.19837 0,0 -2.76695,1.90629 -2.76695,1.90629 l 0,0 c -0.35488,-0.0858 -0.71986,-0.11073 -1.072621,-0.20742 -0.446144,-0.12965 -0.903881,-0.25459 -1.302118,-0.50069 -0.339219,-0.22438 -0.60849,-0.50442 -0.862432,-0.82102 -0.29887,-0.38555 -0.588137,-0.77688 -0.870229,-1.17494 -0.339492,-0.47265 -0.70068,-0.9288 -1.023978,-1.41311 -0.422699,-0.5619 -0.791512,-1.16081 -1.219768,-1.71885 -0.422362,-0.58053 -0.806744,-1.18703 -1.169333,-1.80657 -0.236648,-0.47379 -0.422085,-0.96955 -0.637735,-1.45293 -0.167503,-0.43558 -0.411711,-0.83954 -0.537646,-1.29122 -0.14829,-0.50679 -0.236235,-1.0316 -0.388797,-1.53789 0,0 2.978201,-1.59228 2.978201,-1.59228 z"
       id="path4922"
       style="fill:#989898;fill-opacity:1;stroke:none" />
  </g>
  <path
     style="color:#000000;fill:none;stroke:#000000;stroke-width:2.5;stroke-linecap:butt;stroke-linejoin:miter;stroke-miterlimit:4;stroke-opacity:1;stroke-dasharray:none;stroke-dashoffset:0;marker:none;marker-end:url(#Arrow2Mend);visibility:visible;display:inline;overflow:visible;enable-background:accumulate"
     d="m 124.82336,160.23361 -96.937291,0"
     id="path4148"
     inkscape:connector-curvature="0" />
</svg>
