<?xml version="1.0" encoding="iso-8859-1"?>
<!-- Generator: Adobe Illustrator 11 Build 196, SVG Export Plug-In . SVG Version: 6.0.0 Build 78)  -->
<!DOCTYPE svg PUBLIC "-//W3C//DTD SVG 1.0//EN"    "http://www.w3.org/TR/2001/REC-SVG-20010904/DTD/svg10.dtd" [
	<!ENTITY ns_flows "http://ns.adobe.com/Flows/1.0/">
	<!ENTITY ns_svg "http://www.w3.org/2000/svg">
	<!ENTITY ns_xlink "http://www.w3.org/1999/xlink">
]>
<svg  
	 width="147.401" height="212.543" viewBox="0 0 147.401 212.543"
	 style="overflow:visible;enable-background:new 0 0 147.401 212.543" xml:space="preserve">
	<style type="text/css">
	
	</style>
	<g id="Layer_1">
		<g>
			<polygon style="fill:#FF0000;" points="96.081,195.903 89.37,183.859 89.319,183.949 89.319,183.857 45.335,183.857 
				45.335,207.949 89.319,207.949 89.319,207.857 89.37,207.948 "/>
			<circle style="fill:#00C9E0;stroke:#000000;" cx="8.625" cy="37.826" r="3.536"/> 
			<circle style="fill:#00C9E0;stroke:#000000;" cx="16" cy="36.424" r="3.536"/> 
			<circle style="fill:#00C9E0;stroke:#000000;" cx="16.66" cy="43.362" r="3.536"/> 
			<circle style="fill:#00C9E0;stroke:#000000;" cx="22.66" cy="39.862" r="3.536"/> 
			<circle style="fill:#00C9E0;stroke:#000000;" cx="29.66" cy="36.862" r="3.536"/> 
			<circle style="fill:#00C9E0;stroke:#000000;" cx="29" cy="44.362" r="3.536"/> 
			<circle style="fill:#00C9E0;stroke:#000000;" cx="36.731" cy="36.862" r="3.536"/> 
			<circle style="fill:#00C9E0;stroke:#000000;" cx="36.089" cy="43.862" r="3.536"/> 
			<circle style="fill:#00C9E0;stroke:#000000;" cx="42.938" cy="41.737" r="3.536"/> 
			<circle style="fill:#00C9E0;stroke:#000000;" cx="50.089" cy="39.362" r="3.536"/> 
			<circle style="fill:#00C9E0;stroke:#000000;" cx="57.625" cy="37.897" r="3.536"/> 
			<circle style="fill:#00C9E0;stroke:#000000;" cx="55.089" cy="44.862" r="3.536"/> 
			<circle style="fill:#00C9E0;stroke:#000000;" cx="47.661" cy="46.362" r="3.536"/> 
			<circle style="fill:#00C9E0;stroke:#000000;" cx="9.16" cy="44.862" r="3.536"/> 
			<circle style="fill:#00C9E0;stroke:#000000;" cx="20.16" cy="50.362" r="3.536"/> 
			<circle style="fill:#00C9E0;stroke:#000000;" cx="27.232" cy="50.362" r="3.536"/> 
			<circle style="fill:#00C9E0;stroke:#000000;" cx="38.312" cy="50.674" r="3.536"/> 
			<circle style="fill:#00C9E0;stroke:#000000;" cx="45.125" cy="53.826" r="3.536"/> 
			<circle style="fill:#00C9E0;stroke:#000000;" cx="53.125" cy="52.326" r="3.536"/> 
			<circle style="fill:#00C9E0;stroke:#000000;" cx="10.312" cy="51.674" r="3.536"/> 
			<circle style="fill:#00C9E0;stroke:#000000;" cx="136.062" cy="37.063" r="3.536"/> 
			<circle style="fill:#00C9E0;stroke:#000000;" cx="118.125" cy="7.397" r="3.536"/> 
			<circle style="fill:#00C9E0;stroke:#000000;" cx="128.027" cy="42.598" r="3.536"/> 
			<circle style="fill:#00C9E0;stroke:#000000;" cx="118.464" cy="37.924" r="3.536"/> 
			<circle style="fill:#00C9E0;stroke:#000000;" cx="103.292" cy="30.493" r="3.536"/> 
			<circle style="fill:#00C9E0;stroke:#000000;" cx="115.688" cy="43.598" r="3.536"/> 
			<circle style="fill:#00C9E0;stroke:#000000;" cx="93.481" cy="4.036" r="3.536"/> 
			<circle style="fill:#00C9E0;stroke:#000000;" cx="108.598" cy="43.098" r="3.536"/> 
			<circle style="fill:#00C9E0;stroke:#000000;" cx="133.438" cy="51.723" r="3.536"/> 
			<circle style="fill:#00C9E0;stroke:#000000;" cx="126.089" cy="19.862" r="3.536"/> 
			<circle style="fill:#00C9E0;stroke:#000000;" cx="87.062" cy="37.134" r="3.536"/> 
			<circle style="fill:#00C9E0;stroke:#000000;" cx="89.598" cy="44.098" r="3.536"/> 
			<circle style="fill:#00C9E0;stroke:#000000;" cx="97.027" cy="45.598" r="3.536"/> 
			<circle style="fill:#00C9E0;stroke:#000000;" cx="135.527" cy="44.098" r="3.536"/> 
			<circle style="fill:#00C9E0;stroke:#000000;" cx="125.527" cy="50.598" r="3.536"/> 
			<circle style="fill:#00C9E0;stroke:#000000;" cx="117.456" cy="49.598" r="3.536"/> 
			<circle style="fill:#00C9E0;stroke:#000000;" cx="106.375" cy="49.911" r="3.536"/> 
			<circle style="fill:#00C9E0;stroke:#000000;" cx="99.562" cy="53.063" r="3.536"/> 
			<circle style="fill:#00C9E0;stroke:#000000;" cx="87.562" cy="51.563" r="3.536"/> 
			<circle style="fill:#00C9E0;stroke:#000000;" cx="111.438" cy="54.723" r="3.536"/> 
			<polygon style="fill:#FF0000;stroke:#FFFFFF;" points="97.655,23.841 91.331,18.342 91.283,18.383 91.283,18.341 49.834,18.341 
				49.834,29.341 91.283,29.341 91.283,29.299 91.331,29.34 "/>
			<g>
				<g>
					<text transform="matrix(1 0 0 1 54.2915 26.9036)"><tspan x="0" y="0" style="fill:#FFFFFF; font-family:Liberation Sans-Bold'; font-size:7.650000;">boiling</tspan></text>
				</g>
			</g>
			<g>
				<circle style="fill:#80D092;stroke:#000000;" cx="9.292" cy="83.212" r="3.535"/> 
				<circle style="fill:#80D092;stroke:#000000;" cx="16.625" cy="83.212" r="3.535"/> 
				<circle style="fill:#80D092;stroke:#000000;" cx="23.958" cy="83.212" r="3.535"/> 
				<circle style="fill:#80D092;stroke:#000000;" cx="31.292" cy="83.212" r="3.535"/> 
				<circle style="fill:#80D092;stroke:#000000;" cx="38.625" cy="83.212" r="3.535"/> 
				<circle style="fill:#80D092;stroke:#000000;" cx="45.958" cy="83.212" r="3.535"/> 
				<circle style="fill:#80D092;stroke:#000000;" cx="53.291" cy="83.212" r="3.535"/> 
				<circle style="fill:#80D092;stroke:#000000;" cx="9.292" cy="90.546" r="3.536"/> 
				<circle style="fill:#80D092;stroke:#000000;" cx="16.625" cy="90.546" r="3.536"/> 
				<circle style="fill:#80D092;stroke:#000000;" cx="23.958" cy="90.546" r="3.536"/> 
				<circle style="fill:#80D092;stroke:#000000;" cx="31.292" cy="90.546" r="3.536"/> 
				<circle style="fill:#80D092;stroke:#000000;" cx="38.625" cy="90.546" r="3.536"/> 
				<circle style="fill:#80D092;stroke:#000000;" cx="45.958" cy="90.546" r="3.536"/> 
				<circle style="fill:#80D092;stroke:#000000;" cx="53.291" cy="90.546" r="3.536"/> 
				<circle style="fill:#80D092;stroke:#000000;" cx="9.292" cy="97.879" r="3.535"/> 
				<circle style="fill:#80D092;stroke:#000000;" cx="16.625" cy="97.879" r="3.535"/> 
				<circle style="fill:#80D092;stroke:#000000;" cx="23.958" cy="97.879" r="3.535"/> 
				<circle style="fill:#80D092;stroke:#000000;" cx="31.292" cy="97.879" r="3.535"/> 
				<circle style="fill:#80D092;stroke:#000000;" cx="38.625" cy="97.879" r="3.535"/> 
				<circle style="fill:#80D092;stroke:#000000;" cx="45.958" cy="97.879" r="3.535"/> 
				<circle style="fill:#80D092;stroke:#000000;" cx="53.291" cy="97.879" r="3.535"/> 
				<circle style="fill:#80D092;stroke:#000000;" cx="9.292" cy="105.212" r="3.536"/> 
				<circle style="fill:#80D092;stroke:#000000;" cx="16.625" cy="105.212" r="3.536"/> 
				<circle style="fill:#80D092;stroke:#000000;" cx="23.958" cy="105.212" r="3.536"/> 
				<circle style="fill:#80D092;stroke:#000000;" cx="31.292" cy="105.212" r="3.536"/> 
				<circle style="fill:#80D092;stroke:#000000;" cx="38.625" cy="105.212" r="3.536"/> 
				<circle style="fill:#80D092;stroke:#000000;" cx="45.958" cy="105.212" r="3.536"/> 
				<circle style="fill:#80D092;stroke:#000000;" cx="53.291" cy="105.212" r="3.536"/> 
			</g>
			<g>
				<circle style="fill:#80D092;stroke:#000000;" cx="88.481" cy="83.276" r="3.535"/> 
				<circle style="fill:#80D092;stroke:#000000;" cx="87.334" cy="90.519" r="3.535"/> 
				<circle style="fill:#80D092;stroke:#000000;" cx="86.187" cy="97.762" r="3.535"/> 
				<circle style="fill:#80D092;stroke:#000000;" cx="85.041" cy="105.004" r="3.535"/> 
			</g>
			<g>
				<circle style="fill:#80D092;stroke:#000000;" cx="96.283" cy="83.201" r="3.536"/> 
				<circle style="fill:#80D092;stroke:#000000;" cx="95.517" cy="90.494" r="3.535"/> 
				<circle style="fill:#80D092;stroke:#000000;" cx="94.751" cy="97.787" r="3.535"/> 
				<circle style="fill:#80D092;stroke:#000000;" cx="93.985" cy="105.08" r="3.535"/> 
			</g>
			<g>
				<circle style="fill:#80D092;stroke:#000000;" cx="104.084" cy="83.155" r="3.536"/> 
				<circle style="fill:#80D092;stroke:#000000;" cx="103.7" cy="90.478" r="3.535"/> 
				<circle style="fill:#80D092;stroke:#000000;" cx="103.316" cy="97.801" r="3.535"/> 
				<circle style="fill:#80D092;stroke:#000000;" cx="102.932" cy="105.124" r="3.535"/> 
			</g>
			<g>
				<circle style="fill:#80D092;stroke:#000000;" cx="135.263" cy="83.276" r="3.535"/> 
				<circle style="fill:#80D092;stroke:#000000;" cx="136.41" cy="90.519" r="3.535"/> 
				<circle style="fill:#80D092;stroke:#000000;" cx="137.556" cy="97.762" r="3.535"/> 
				<circle style="fill:#80D092;stroke:#000000;" cx="138.703" cy="105.005" r="3.535"/> 
			</g>
			<g>
				<circle style="fill:#80D092;stroke:#000000;" cx="127.45" cy="83.201" r="3.535"/> 
				<circle style="fill:#80D092;stroke:#000000;" cx="128.216" cy="90.494" r="3.536"/> 
				<circle style="fill:#80D092;stroke:#000000;" cx="128.982" cy="97.787" r="3.536"/> 
				<circle style="fill:#80D092;stroke:#000000;" cx="129.749" cy="105.08" r="3.535"/> 
			</g>
			<g>
				<circle style="fill:#80D092;stroke:#000000;" cx="119.66" cy="83.156" r="3.536"/> 
				<circle style="fill:#80D092;stroke:#000000;" cx="120.043" cy="90.48" r="3.536"/> 
				<circle style="fill:#80D092;stroke:#000000;" cx="120.428" cy="97.803" r="3.535"/> 
				<circle style="fill:#80D092;stroke:#000000;" cx="120.812" cy="105.126" r="3.536"/> 
			</g>
			<g>
				<circle style="fill:#80D092;stroke:#000000;" cx="111.872" cy="83.141" r="3.536"/> 
				<circle style="fill:#80D092;stroke:#000000;" cx="111.872" cy="90.474" r="3.536"/> 
				<circle style="fill:#80D092;stroke:#000000;" cx="111.872" cy="97.807" r="3.536"/> 
				<circle style="fill:#80D092;stroke:#000000;" cx="111.872" cy="105.141" r="3.536"/> 
			</g>
			<polygon style="fill:#FF0000;stroke:#FFFFFF;" points="94.854,92.918 88.53,87.419 88.482,87.461 88.482,87.418 47.034,87.418 
				47.034,98.418 88.482,98.418 88.482,98.376 88.53,98.418 "/>
			<g>
				<g>
					<text transform="matrix(1 0 0 1 49.1182 96.1584)"><tspan x="0" y="0" style="fill:#FFFFFF; font-family:Liberation Sans-Bold'; font-size:7.650000;">bending</tspan></text>
				</g>
			</g>
			<g>
				<circle style="fill:#FFFF00;stroke:#000000;" cx="9.494" cy="137.362" r="3.535"/> 
				<circle style="fill:#FFFF00;stroke:#000000;" cx="16.827" cy="137.362" r="3.535"/> 
				<circle style="fill:#FFFF00;stroke:#000000;" cx="24.161" cy="137.362" r="3.535"/> 
				<circle style="fill:#FFFF00;stroke:#000000;" cx="31.494" cy="137.362" r="3.535"/> 
				<circle style="fill:#FFFF00;stroke:#000000;" cx="38.827" cy="137.362" r="3.535"/> 
				<circle style="fill:#FFFF00;stroke:#000000;" cx="46.161" cy="137.362" r="3.535"/> 
				<circle style="fill:#FFFF00;stroke:#000000;" cx="53.494" cy="137.362" r="3.535"/> 
				<circle style="fill:#FFFF00;stroke:#000000;" cx="9.494" cy="144.695" r="3.536"/> 
				<circle style="fill:#FFFF00;stroke:#000000;" cx="16.827" cy="144.695" r="3.536"/> 
				<circle style="fill:#FFFF00;stroke:#000000;" cx="24.161" cy="144.695" r="3.536"/> 
				<circle style="fill:#FFFF00;stroke:#000000;" cx="31.494" cy="144.695" r="3.536"/> 
				<circle style="fill:#FFFF00;stroke:#000000;" cx="38.827" cy="144.695" r="3.536"/> 
				<circle style="fill:#FFFF00;stroke:#000000;" cx="46.161" cy="144.695" r="3.536"/> 
				<circle style="fill:#FFFF00;stroke:#000000;" cx="53.494" cy="144.695" r="3.536"/> 
				<circle style="fill:#FFFF00;stroke:#000000;" cx="9.494" cy="152.028" r="3.535"/> 
				<circle style="fill:#FFFF00;stroke:#000000;" cx="16.827" cy="152.028" r="3.535"/> 
				<circle style="fill:#FFFF00;stroke:#000000;" cx="24.161" cy="152.028" r="3.535"/> 
				<circle style="fill:#FFFF00;stroke:#000000;" cx="31.494" cy="152.028" r="3.535"/> 
				<circle style="fill:#FFFF00;stroke:#000000;" cx="38.827" cy="152.028" r="3.535"/> 
				<circle style="fill:#FFFF00;stroke:#000000;" cx="46.161" cy="152.028" r="3.535"/> 
				<circle style="fill:#FFFF00;stroke:#000000;" cx="53.494" cy="152.028" r="3.535"/> 
				<circle style="fill:#FFFF00;stroke:#000000;" cx="9.494" cy="159.362" r="3.536"/> 
				<circle style="fill:#FFFF00;stroke:#000000;" cx="16.827" cy="159.362" r="3.536"/> 
				<circle style="fill:#FFFF00;stroke:#000000;" cx="24.161" cy="159.362" r="3.536"/> 
				<circle style="fill:#FFFF00;stroke:#000000;" cx="31.494" cy="159.362" r="3.536"/> 
				<circle style="fill:#FFFF00;stroke:#000000;" cx="38.827" cy="159.362" r="3.536"/> 
				<circle style="fill:#FFFF00;stroke:#000000;" cx="46.161" cy="159.362" r="3.536"/> 
				<circle style="fill:#FFFF00;stroke:#000000;" cx="53.494" cy="159.362" r="3.536"/> 
			</g>
			<g>
				<circle style="fill:#FFFF00;stroke:#000000;" cx="85.696" cy="137.362" r="3.535"/> 
				<circle style="fill:#FFFF00;stroke:#000000;" cx="93.03" cy="137.362" r="3.535"/> 
				<circle style="fill:#FFFF00;stroke:#000000;" cx="100.363" cy="137.362" r="3.535"/> 
				<circle style="fill:#FFFF00;stroke:#000000;" cx="115.696" cy="137.362" r="3.535"/> 
				<circle style="fill:#FFFF00;stroke:#000000;" cx="123.029" cy="137.362" r="3.535"/> 
				<circle style="fill:#FFFF00;stroke:#000000;" cx="130.363" cy="137.362" r="3.535"/> 
				<circle style="fill:#FFFF00;stroke:#000000;" cx="137.696" cy="137.362" r="3.535"/> 
				<circle style="fill:#FFFF00;stroke:#000000;" cx="85.696" cy="144.696" r="3.536"/> 
				<circle style="fill:#FFFF00;stroke:#000000;" cx="93.03" cy="144.696" r="3.536"/> 
				<circle style="fill:#FFFF00;stroke:#000000;" cx="100.363" cy="144.696" r="3.536"/> 
				<circle style="fill:#FFFF00;stroke:#000000;" cx="115.696" cy="144.696" r="3.536"/> 
				<circle style="fill:#FFFF00;stroke:#000000;" cx="123.029" cy="144.696" r="3.536"/> 
				<circle style="fill:#FFFF00;stroke:#000000;" cx="130.363" cy="144.696" r="3.536"/> 
				<circle style="fill:#FFFF00;stroke:#000000;" cx="137.696" cy="144.696" r="3.536"/> 
				<circle style="fill:#FFFF00;stroke:#000000;" cx="85.696" cy="152.029" r="3.535"/> 
				<circle style="fill:#FFFF00;stroke:#000000;" cx="93.03" cy="152.029" r="3.535"/> 
				<circle style="fill:#FFFF00;stroke:#000000;" cx="100.363" cy="152.029" r="3.535"/> 
				<circle style="fill:#FFFF00;stroke:#000000;" cx="115.696" cy="152.029" r="3.535"/> 
				<circle style="fill:#FFFF00;stroke:#000000;" cx="123.029" cy="152.029" r="3.535"/> 
				<circle style="fill:#FFFF00;stroke:#000000;" cx="130.363" cy="152.029" r="3.535"/> 
				<circle style="fill:#FFFF00;stroke:#000000;" cx="137.696" cy="152.029" r="3.535"/> 
				<circle style="fill:#FFFF00;stroke:#000000;" cx="85.696" cy="159.362" r="3.536"/> 
				<circle style="fill:#FFFF00;stroke:#000000;" cx="93.03" cy="159.362" r="3.536"/> 
				<circle style="fill:#FFFF00;stroke:#000000;" cx="100.363" cy="159.362" r="3.536"/> 
				<circle style="fill:#FFFF00;stroke:#000000;" cx="115.696" cy="159.362" r="3.536"/> 
				<circle style="fill:#FFFF00;stroke:#000000;" cx="123.029" cy="159.362" r="3.536"/> 
				<circle style="fill:#FFFF00;stroke:#000000;" cx="130.363" cy="159.362" r="3.536"/> 
				<circle style="fill:#FFFF00;stroke:#000000;" cx="137.696" cy="159.362" r="3.536"/> 
			</g>
			<polygon style="fill:#FF0000;stroke:#FFFFFF;" points="95.087,147.079 88.763,141.58 88.715,141.622 88.715,141.579 
				47.267,141.579 47.267,152.579 88.715,152.579 88.715,152.537 88.763,152.579 "/>
			<g>
				<g>
					<text transform="matrix(1 0 0 1 49.3208 150.2961)"><tspan x="0" y="0" style="fill:#FFFFFF; font-family:Liberation Sans-Bold'; font-size:7.650000;">breaking</tspan></text>
				</g>
			</g>
			<circle style="fill:#B4A3D3;stroke:#000000;" cx="10.125" cy="199.376" r="3.536"/> 
			<circle style="fill:#00BA76;stroke:#000000;" cx="19.019" cy="195.174" r="4.773"/> 
			<circle style="fill:#B4A3D3;stroke:#000000;" cx="33.327" cy="208.508" r="3.536"/> 
			<circle style="fill:#B4A3D3;stroke:#000000;" cx="102.398" cy="202.897" r="3.536"/> 
			<circle style="fill:#00BA76;stroke:#000000;" cx="111.292" cy="198.695" r="4.773"/> 
			<circle style="fill:#B4A3D3;stroke:#000000;" cx="117.862" cy="206.028" r="3.536"/> 
			<g>
				<g>
					<text transform="matrix(1 0 0 1 47.604 192.5701)"><tspan x="0" y="0" style="fill:#FFFFFF; font-family:Liberation Sans-Bold'; font-size:7.650000;">chemical</tspan></text>
				</g>
				<g>
					<text transform="matrix(1 0 0 1 47.604 203.5701)"><tspan x="0" y="0" style="fill:#FFFFFF; font-family:Liberation Sans-Bold'; font-size:7.650000;">reactions</tspan></text>
				</g>
			</g>
		</g>
		<rect y="110.57" style="fill:none;" width="147.401" height="2.834"/> 
	</g>
</svg>
