<?xml version="1.0" encoding="UTF-8" standalone="no"?>
<!DOCTYPE svg PUBLIC "-//W3C//DTD SVG 20010904//EN"
"http://www.w3.org/TR/2001/REC-SVG-20010904/DTD/svg10.dtd">
<!-- Generator: Adobe Illustrator 11 Build 196, SVG Export Plug-In . SVG Version: 6.0.0 Build 78)  -->
<svg
   width="133"
   height="117.5"
   viewBox="0 0 133 117.5"
   style="overflow:visible;enable-background:new 0 0 133 117.5"
   xml:space="preserve"
   xmlns="http://www.w3.org/2000/svg"
   xmlns:xap="http://ns.adobe.com/xap/1.0/"
   xmlns:rdf="http://www.w3.org/1999/02/22-rdf-syntax-ns#"
   xmlns:xml="http://www.w3.org/XML/1998/namespace"
   xmlns:dc="http://purl.org/dc/elements/1.1/"
   xmlns:x="adobe:ns:meta/"
   xmlns:xlink="http://www.w3.org/1999/xlink"
   xmlns:sodipodi="http://sodipodi.sourceforge.net/DTD/sodipodi-0.dtd"
   xmlns:inkscape="http://www.inkscape.org/namespaces/inkscape"
   id="svg510"
   sodipodi:version="0.32"
   xmlns:cc="http://web.resource.org/cc/"
   sodipodi:docname="pears.svg"
   sodipodi:docbase="/home/bcrowell/Documents/writing/lm/trunk/1np/ch02/figs"><defs
   id="defs580">
			
				
			
			
			
				
			
			
			
				
			
			
		
				
				
			</defs>
<sodipodi:namedview
   id="base"
   pagecolor="#ffffff"
   bordercolor="#666666"
   borderopacity="1.0"
   inkscape:pageopacity="0.0"
   inkscape:pageshadow="2"
   inkscape:zoom="1.0000000"
   inkscape:cx="74.500000"
   inkscape:cy="23.000000"
   inkscape:window-width="758"
   inkscape:window-height="553"
   inkscape:window-x="16"
   inkscape:window-y="0"
   inkscape:current-layer="svg510" />

	<metadata
   id="metadata512">
<xpacket
   id="xpacket514" />
<x:xmpmeta
   x:xmptk="XMP toolkit 3.0-29, framework 1.6"
   id="xmpmeta515">

<metadata
   id="metadata581">
  <rdf:RDF
     id="RDF517">

 <rdf:Description
   rdf:about=""
   id="Description519">
 </rdf:Description>


 <rdf:Description
   rdf:about=""
   id="Description522">
 </rdf:Description>


 <rdf:Description
   rdf:about=""
   id="Description525">
  <xap:CreateDate
   id="CreateDate527">2004-11-15T22:28:31Z</xap:CreateDate>

  <xap:ModifyDate
   id="ModifyDate530">2004-11-15T22:28:31Z</xap:ModifyDate>

  <xap:CreatorTool
   id="CreatorTool533">Illustrator</xap:CreatorTool>

  
 </rdf:Description>


 <rdf:Description
   rdf:about=""
   id="Description537">
  <dc:format
   id="format539">image/svg+xml</dc:format>

 </rdf:Description>


<cc:Work
   rdf:about=""
   id="Work582">
  <dc:format
     id="format583">image/svg+xml</dc:format>
  <dc:type
     id="type585"
     rdf:resource="http://purl.org/dc/dcmitype/StillImage" />
</cc:Work>
</rdf:RDF>
</metadata>
</x:xmpmeta>

                                                                                                                                                                                                                                                                                                                                                                                                                                                                                                                                                                                                                                                                                                                                                                                                                                                                                                                                                                                                                                                                                                                                                                                                                                                                                                                                                                                                                                                                                                                                                                                                                                                                                                                                                                                                                                                                                                                                                                                                                                                                                                                                <xpacket
   id="xpacket545" />

			</metadata>

		<path
   style="fill:#945b0f;fill-opacity:1.0000000;fill-rule:evenodd;stroke:none;stroke-width:0.25000000pt;stroke-linecap:butt;stroke-linejoin:miter;stroke-opacity:1.0000000"
   d="M 16.403598,43.702646 C 13.269656,51.041332 14.910197,47.676909 14.110848,50.515696 C 13.311497,53.354480 14.131420,55.415358 13.205853,58.800875 C 12.280279,62.186391 10.429310,67.085879 8.8309559,69.020363 C 7.2326032,70.954841 6.2861100,73.183788 5.3185185,76.127701 C 4.3509269,79.071613 4.6448648,84.034389 4.9811703,85.695679 C 5.3174699,87.356968 6.4105847,91.352503 8.9969273,93.245316 C 11.583270,95.138129 13.097419,94.191981 16.188474,95.769409 C 19.279531,97.346841 20.772409,98.987210 22.749080,99.155618 C 24.725754,99.324031 30.003912,99.534807 34.840984,94.172963 C 39.678056,88.811125 39.636737,80.883343 38.732955,76.067713 C 37.829171,71.252080 32.299092,66.520137 31.290006,63.407815 C 30.280924,60.295491 28.325867,53.797475 26.601816,50.664054 C 24.877761,47.530635 20.083574,43.976361 20.083574,43.976361 L 16.403598,43.702646 z "
   id="path718" />
<path
   style="fill:#cb915b;fill-opacity:1.0000000;fill-rule:evenodd;stroke:none;stroke-width:0.23750000pt;stroke-linecap:butt;stroke-linejoin:miter;stroke-opacity:1.0000000"
   d="M 16.916274,44.442856 C 13.939028,51.414609 15.497543,48.218404 14.738162,50.915254 C 13.978778,53.612099 14.757707,55.569934 13.878416,58.786172 C 12.999121,62.002412 11.240700,66.656929 9.7222631,68.494688 C 8.2038271,70.332441 7.3046588,72.449943 6.3854505,75.246658 C 5.4662364,78.043372 5.7454777,82.758011 6.0649660,84.336240 C 6.3844499,85.914462 7.4229117,89.710220 9.8799351,91.508393 C 12.336962,93.306564 13.775402,92.407724 16.711904,93.906280 C 19.648411,95.404843 21.066643,96.963190 22.944484,97.123179 C 24.822321,97.283171 29.836573,97.483411 34.431793,92.389657 C 39.027008,87.295912 38.987755,79.764517 38.129165,75.189671 C 37.270567,70.614820 32.016991,66.119474 31.058363,63.162767 C 30.099734,60.206060 28.242430,54.032943 26.604582,51.056195 C 24.966728,48.079446 20.412250,44.702886 20.412250,44.702886 L 16.916274,44.442856 z "
   id="path719" />
<path
   style="fill:#d1b868;fill-opacity:1.0000000;fill-rule:evenodd;stroke:none;stroke-width:0.25000000pt;stroke-linecap:butt;stroke-linejoin:miter;stroke-opacity:1.0000000"
   d="M 19.514943,53.922789 C 18.000451,58.612022 13.752300,62.670147 12.868917,64.625721 C 11.985535,66.581299 8.7464705,73.751746 8.6200704,76.170022 C 8.4936739,78.588296 6.3271515,84.854615 7.9882665,86.389857 C 9.6493815,87.925099 13.728774,89.586735 16.125955,90.428099 C 18.523133,91.269464 21.130398,94.318850 25.378201,94.003818 C 29.626006,93.688781 31.413689,90.934204 33.033136,88.284753 C 34.652586,85.635300 35.704378,81.703054 35.746740,78.401567 C 35.789104,75.100084 37.681745,74.385286 33.581603,69.695532 C 29.481466,65.005779 27.441856,63.239188 26.474791,60.568467 C 25.507721,57.897745 25.171593,54.364910 22.774412,53.523547 C 20.377232,52.682178 19.514943,53.922789 19.514943,53.922789 z "
   id="path720" />
<path
   style="fill:#e7c774;fill-opacity:1.0000000;fill-rule:evenodd;stroke:none;stroke-width:0.25000000pt;stroke-linecap:butt;stroke-linejoin:miter;stroke-opacity:1.0000000"
   d="M 13.036982,66.392140 C 17.159085,61.009200 23.446671,60.589214 26.264187,63.975079 C 29.081704,67.360939 34.738003,71.546155 34.863708,76.614056 C 34.989409,81.681958 32.171026,87.653814 30.804021,89.209803 C 29.437019,90.765789 23.885495,90.491905 22.056143,89.061789 C 20.226788,87.631675 17.745402,87.778648 15.894950,87.063503 C 14.044505,86.348360 10.427984,82.058191 10.932872,79.871268 C 11.437762,77.684340 12.973350,72.280138 12.195444,70.660863 C 11.417535,69.041591 13.036982,66.392140 13.036982,66.392140 z "
   id="path721" />
<path
   sodipodi:type="arc"
   style="fill:#ffebaa;fill-opacity:1.0000000;stroke:none;stroke-width:1.0000000pt;stroke-linecap:butt;stroke-linejoin:miter;stroke-opacity:1.0000000;"
   id="path724"
   sodipodi:cx="199.78374"
   sodipodi:cy="641.12512"
   sodipodi:rx="2.3339221"
   sodipodi:ry="2.3339221"
   d="M 202.11766 641.12512 A 2.3339221 2.3339221 0 1 1  197.44982,641.12512 A 2.3339221 2.3339221 0 1 1  202.11766 641.12512 z"
   transform="matrix(0.360420,-0.225216,0.225216,0.360420,-194.9289,-112.5582)" />
<path
   sodipodi:type="arc"
   style="fill:#ffebaa;fill-opacity:1.0000000;stroke:none;stroke-width:1.0000000pt;stroke-linecap:butt;stroke-linejoin:miter;stroke-opacity:1.0000000;"
   id="path725"
   sodipodi:cx="210.51978"
   sodipodi:cy="629.68890"
   sodipodi:rx="0.93356889"
   sodipodi:ry="1.1669611"
   d="M 211.45334 629.68890 A 0.93356889 1.1669611 0 1 1  209.58621,629.68890 A 0.93356889 1.1669611 0 1 1  211.45334 629.68890 z"
   transform="matrix(0.360420,-0.225216,0.225216,0.360420,-194.9289,-112.5582)" />
<path
   sodipodi:type="arc"
   style="fill:#ffebaa;fill-opacity:1.0000000;stroke:none;stroke-width:1.0000000pt;stroke-linecap:butt;stroke-linejoin:miter;stroke-opacity:1.0000000;"
   id="path726"
   sodipodi:cx="204.68498"
   sodipodi:cy="671.46606"
   sodipodi:rx="2.5673144"
   sodipodi:ry="2.3339221"
   d="M 207.25230 671.46606 A 2.5673144 2.3339221 0 1 1  202.11767,671.46606 A 2.5673144 2.3339221 0 1 1  207.25230 671.46606 z"
   transform="matrix(0.360420,-0.225216,0.225216,0.360420,-194.9289,-112.5582)" />
<path
   sodipodi:type="arc"
   style="fill:#ffebaa;fill-opacity:1.0000000;stroke:none;stroke-width:1.0000000pt;stroke-linecap:butt;stroke-linejoin:miter;stroke-opacity:1.0000000;"
   id="path727"
   sodipodi:cx="181.11237"
   sodipodi:cy="634.59009"
   sodipodi:rx="2.3339221"
   sodipodi:ry="1.8671378"
   d="M 183.44629 634.59009 A 2.3339221 1.8671378 0 1 1  178.77844,634.59009 A 2.3339221 1.8671378 0 1 1  183.44629 634.59009 z"
   transform="matrix(0.360420,-0.225216,0.225216,0.360420,-194.9289,-112.5582)" />
<path
   sodipodi:type="arc"
   style="fill:#ffebaa;fill-opacity:1.0000000;stroke:none;stroke-width:1.0000000pt;stroke-linecap:butt;stroke-linejoin:miter;stroke-opacity:1.0000000;"
   id="path728"
   sodipodi:cx="221.02243"
   sodipodi:cy="657.46252"
   sodipodi:rx="1.6337456"
   sodipodi:ry="3.2674911"
   d="M 222.65618 657.46252 A 1.6337456 3.2674911 0 1 1  219.38868,657.46252 A 1.6337456 3.2674911 0 1 1  222.65618 657.46252 z"
   transform="matrix(0.360420,-0.225216,0.225216,0.360420,-194.9289,-112.5582)" />
<path
   sodipodi:type="arc"
   style="fill:#e7c774;fill-opacity:1.0000000;stroke:none;stroke-width:1.0000000pt;stroke-linecap:butt;stroke-linejoin:miter;stroke-opacity:1.0000000;"
   id="path729"
   sodipodi:cx="220.55565"
   sodipodi:cy="611.48425"
   sodipodi:rx="3.0340989"
   sodipodi:ry="3.0340989"
   d="M 223.58975 611.48425 A 3.0340989 3.0340989 0 1 1  217.52155,611.48425 A 3.0340989 3.0340989 0 1 1  223.58975 611.48425 z"
   transform="matrix(0.360420,-0.225216,0.225216,0.360420,-194.9289,-112.5582)" />
<path
   sodipodi:type="arc"
   style="fill:#e7c774;fill-opacity:1.0000000;stroke:none;stroke-width:1.0000000pt;stroke-linecap:butt;stroke-linejoin:miter;stroke-opacity:1.0000000;"
   id="path730"
   sodipodi:cx="206.55211"
   sodipodi:cy="606.58307"
   sodipodi:rx="1.1669611"
   sodipodi:ry="0.93356889"
   d="M 207.71907 606.58307 A 1.1669611 0.93356889 0 1 1  205.38515,606.58307 A 1.1669611 0.93356889 0 1 1  207.71907 606.58307 z"
   transform="matrix(0.360420,-0.225216,0.225216,0.360420,-194.9289,-112.5582)" />
<path
   sodipodi:type="arc"
   style="fill:#e7c774;fill-opacity:1.0000000;stroke:none;stroke-width:1.0000000pt;stroke-linecap:butt;stroke-linejoin:miter;stroke-opacity:1.0000000;"
   id="path731"
   sodipodi:cx="198.14999"
   sodipodi:cy="626.42139"
   sodipodi:rx="2.1005299"
   sodipodi:ry="1.1669611"
   d="M 200.25052 626.42139 A 2.1005299 1.1669611 0 1 1  196.04946,626.42139 A 2.1005299 1.1669611 0 1 1  200.25052 626.42139 z"
   transform="matrix(0.360420,-0.225216,0.225216,0.360420,-194.9289,-112.5582)" />
<path
   sodipodi:type="arc"
   style="fill:#e7c774;fill-opacity:1.0000000;stroke:none;stroke-width:1.0000000pt;stroke-linecap:butt;stroke-linejoin:miter;stroke-opacity:1.0000000;"
   id="path732"
   sodipodi:cx="165.70848"
   sodipodi:cy="643.22565"
   sodipodi:rx="0.93356889"
   sodipodi:ry="2.1005299"
   d="M 166.64205 643.22565 A 0.93356889 2.1005299 0 1 1  164.77491,643.22565 A 0.93356889 2.1005299 0 1 1  166.64205 643.22565 z"
   transform="matrix(0.360420,-0.225216,0.225216,0.360420,-194.9289,-112.5582)" />
<path
   sodipodi:type="arc"
   style="fill:#e7c774;fill-opacity:1.0000000;stroke:none;stroke-width:1.0000000pt;stroke-linecap:butt;stroke-linejoin:miter;stroke-opacity:1.0000000;"
   id="path733"
   sodipodi:cx="177.84486"
   sodipodi:cy="627.35498"
   sodipodi:rx="0.93356889"
   sodipodi:ry="1.1669611"
   d="M 178.77843 627.35498 A 0.93356889 1.1669611 0 1 1  176.91129,627.35498 A 0.93356889 1.1669611 0 1 1  178.77843 627.35498 z"
   transform="matrix(0.360420,-0.225216,0.225216,0.360420,-194.9289,-112.5582)" />
<path
   sodipodi:type="arc"
   style="fill:#e7c774;fill-opacity:1.0000000;stroke:none;stroke-width:1.0000000pt;stroke-linecap:butt;stroke-linejoin:miter;stroke-opacity:1.0000000;"
   id="path734"
   sodipodi:cx="179.24522"
   sodipodi:cy="678.46783"
   sodipodi:rx="2.3339221"
   sodipodi:ry="1.4003533"
   d="M 181.57915 678.46783 A 2.3339221 1.4003533 0 1 1  176.91130,678.46783 A 2.3339221 1.4003533 0 1 1  181.57915 678.46783 z"
   transform="matrix(0.360420,-0.225216,0.225216,0.360420,-194.9289,-112.5582)" />
<path
   sodipodi:type="arc"
   style="fill:#cb915b;fill-opacity:1.0000000;stroke:none;stroke-width:1.0000000pt;stroke-linecap:butt;stroke-linejoin:miter;stroke-opacity:1.0000000;"
   id="path735"
   sodipodi:cx="212.85370"
   sodipodi:cy="607.51660"
   sodipodi:rx="0.93356889"
   sodipodi:ry="0.93356889"
   d="M 213.78727 607.51660 A 0.93356889 0.93356889 0 1 1  211.92013,607.51660 A 0.93356889 0.93356889 0 1 1  213.78727 607.51660 z"
   transform="matrix(0.360420,-0.225216,0.225216,0.360420,-194.9289,-112.5582)" />
<path
   sodipodi:type="arc"
   style="fill:#cb915b;fill-opacity:1.0000000;stroke:none;stroke-width:1.0000000pt;stroke-linecap:butt;stroke-linejoin:miter;stroke-opacity:1.0000000;"
   id="path736"
   sodipodi:cx="220.08887"
   sodipodi:cy="643.45898"
   sodipodi:rx="1.6337456"
   sodipodi:ry="0.93356889"
   d="M 221.72261 643.45898 A 1.6337456 0.93356889 0 1 1  218.45512,643.45898 A 1.6337456 0.93356889 0 1 1  221.72261 643.45898 z"
   transform="matrix(0.360420,-0.225216,0.225216,0.360420,-194.9289,-112.5582)" />
<path
   sodipodi:type="arc"
   style="fill:#cb915b;fill-opacity:1.0000000;stroke:none;stroke-width:1.0000000pt;stroke-linecap:butt;stroke-linejoin:miter;stroke-opacity:1.0000000;"
   id="path737"
   sodipodi:cx="224.99010"
   sodipodi:cy="639.72473"
   sodipodi:rx="2.3339221"
   sodipodi:ry="3.7342756"
   d="M 227.32402 639.72473 A 2.3339221 3.7342756 0 1 1  222.65617,639.72473 A 2.3339221 3.7342756 0 1 1  227.32402 639.72473 z"
   transform="matrix(0.360420,-0.225216,0.225216,0.360420,-194.9289,-112.5582)" />
<path
   style="fill:#5d2a0f;fill-opacity:1.0000000;fill-rule:evenodd;stroke:none;stroke-width:0.25000000pt;stroke-linecap:butt;stroke-linejoin:miter;stroke-opacity:1.0000000"
   d="M 8.2077416,36.628777 L 9.9039251,33.654956 L 10.886912,35.228059 L 13.565876,36.014814 L 16.465930,38.030505 L 18.161503,41.619100 L 18.726558,44.273611 L 17.055237,44.224299 L 16.047795,41.299382 L 14.008057,38.472687 L 9.8790663,36.678086 L 8.2077416,36.628777 z "
   id="path739" />
<g
   id="g552"
   transform="translate(-0.168745,-3.711344e-2)">
				<line
   style="fill:none;stroke:#000000;stroke-width:2.0000000"
   x1="19.881001"
   y1="76.500000"
   x2="24.594999"
   y2="71.786003"
   id="line554" />

				<line
   style="fill:none;stroke:#000000;stroke-width:2.0000000"
   x1="24.594999"
   y1="76.500000"
   x2="19.881001"
   y2="71.786003"
   id="line556" />

			</g>
<g
   id="g687"
   transform="matrix(-0.420864,-5.914852e-2,5.914852e-2,-0.420864,145.2920,356.9828)">
  <path
     style="fill:#945b0f;fill-opacity:1.0000000;fill-rule:evenodd;stroke:none;stroke-width:0.25000000pt;stroke-linecap:butt;stroke-linejoin:miter;stroke-opacity:1.0000000"
     d="M 226.85706,575.30849 C 211.45317,586.04453 218.92172,581.37668 213.78709,586.04453 C 208.65246,590.71237 207.71889,595.84700 201.65070,601.44842 C 195.58250,607.04983 185.78003,614.51838 180.17861,616.38552 C 174.57720,618.25265 169.90935,621.52015 164.30793,626.18799 C 158.70651,630.85583 153.10509,641.12509 151.70474,644.85937 C 150.30438,648.59364 147.50367,657.92933 150.30438,664.93110 C 153.10509,671.93287 157.30616,671.93287 161.50722,678.93463 C 165.70828,685.93640 166.64185,691.07103 170.37613,693.87173 C 174.11041,696.67244 184.37967,703.67421 200.71713,699.00636 C 217.05458,694.33852 226.85706,678.46785 231.05812,667.73181 C 235.25918,656.99576 230.12455,640.65831 231.99168,633.18976 C 233.85882,625.72121 238.05988,610.31732 238.52667,601.91520 C 238.99345,593.51308 233.85882,580.44312 233.85882,580.44312 L 226.85706,575.30849 z "
     id="path688" />
  <path
     style="fill:#cb915b;fill-opacity:1.0000000;fill-rule:evenodd;stroke:none;stroke-width:0.23750000pt;stroke-linecap:butt;stroke-linejoin:miter;stroke-opacity:1.0000000"
     d="M 226.95711,577.42475 C 212.32341,587.62399 219.41854,583.18953 214.54064,587.62399 C 209.66274,592.05844 208.77585,596.93634 203.01107,602.25768 C 197.24628,607.57902 187.93393,614.67415 182.61258,616.44793 C 177.29124,618.22170 172.85678,621.32583 167.53544,625.76028 C 162.21409,630.19472 156.89274,639.95052 155.56240,643.49809 C 154.23206,647.04564 151.57139,655.91455 154.23206,662.56623 C 156.89274,669.21791 160.88375,669.21791 164.87476,675.86958 C 168.86577,682.52127 169.75266,687.39916 173.30023,690.05983 C 176.84779,692.72050 186.60359,699.37219 202.12418,694.93773 C 217.64475,690.50328 226.95711,675.42614 230.94812,665.22691 C 234.93912,655.02766 230.06122,639.50708 231.83500,632.41196 C 233.60878,625.31684 237.59979,610.68314 238.04324,602.70113 C 238.48668,594.71911 233.60878,582.30265 233.60878,582.30265 L 226.95711,577.42475 z "
     id="path689" />
  <path
     style="fill:#d1b868;fill-opacity:1.0000000;fill-rule:evenodd;stroke:none;stroke-width:0.25000000pt;stroke-linecap:butt;stroke-linejoin:miter;stroke-opacity:1.0000000"
     d="M 220.32225,599.58128 C 211.45335,607.04983 197.91660,609.85054 193.71554,612.65124 C 189.51448,615.45195 174.11060,625.72121 170.84310,630.38905 C 167.57561,635.05689 155.43922,644.85937 156.83957,649.99400 C 158.23992,655.12863 164.30812,663.53075 168.04240,668.19859 C 171.77667,672.86643 173.17703,682.20212 182.04593,686.86997 C 190.91484,691.53781 197.91660,688.27032 204.45158,685.00283 C 210.98657,681.73534 217.98833,675.20036 222.18939,668.66537 C 226.39045,662.13039 231.05830,663.06396 228.72437,648.59364 C 226.39045,634.12333 224.52331,628.05513 225.92367,621.52015 C 227.32402,614.98516 231.05830,607.51661 227.32402,602.84877 C 223.58975,598.18092 220.32225,599.58128 220.32225,599.58128 z "
     id="path690" />
  <path
     style="fill:#e7c774;fill-opacity:1.0000000;fill-rule:evenodd;stroke:none;stroke-width:0.25000000pt;stroke-linecap:butt;stroke-linejoin:miter;stroke-opacity:1.0000000"
     d="M 191.84840,616.38552 C 206.78551,610.78410 219.85547,617.78587 221.25582,628.05513 C 222.65618,638.32438 228.72437,653.72827 222.65618,663.99753 C 216.58798,674.26679 203.51802,682.66891 198.85017,684.06926 C 194.18233,685.46961 183.44628,678.00106 181.57915,672.86643 C 179.71201,667.73180 174.57738,664.93110 171.77667,661.19682 C 168.97597,657.46255 167.10883,644.39258 170.84310,640.65831 C 174.57738,636.92403 184.37985,628.05513 184.84664,623.85407 C 185.31342,619.65301 191.84840,616.38552 191.84840,616.38552 z "
     id="path691" />
  <path
     style="fill:#ffe589;fill-opacity:1.0000000;fill-rule:evenodd;stroke:none;stroke-width:0.25000000pt;stroke-linecap:butt;stroke-linejoin:miter;stroke-opacity:1.0000000"
     d="M 173.82251,657.40017 C 175.29351,661.07765 176.27417,666.22613 180.44199,668.43262 C 184.60981,670.63912 190.24862,670.14878 192.70028,667.45196 C 195.15193,664.75514 195.39710,661.56798 191.96478,657.89050 C 188.53246,654.21301 181.91298,651.51619 179.46133,652.74202 C 177.00967,653.96785 173.82251,657.40017 173.82251,657.40017 z "
     id="path692" />
  <path
     style="fill:#fff2c8;fill-opacity:1.0000000;fill-rule:evenodd;stroke:none;stroke-width:0.25000000pt;stroke-linecap:butt;stroke-linejoin:miter;stroke-opacity:1.0000000"
     d="M 185.76235,657.70144 C 179.50215,654.42943 173.20001,658.09654 177.22673,662.04586 C 181.25346,665.99517 187.83297,668.38992 189.38915,665.47913 C 190.94534,662.56835 185.76235,657.70144 185.76235,657.70144 z "
     id="path693" />
  <path
     sodipodi:type="arc"
     style="fill:#ffebaa;fill-opacity:1.0000000;stroke:none;stroke-width:1.0000000pt;stroke-linecap:butt;stroke-linejoin:miter;stroke-opacity:1.0000000"
     id="path694"
     sodipodi:cx="199.78374"
     sodipodi:cy="641.12512"
     sodipodi:rx="2.3339221"
     sodipodi:ry="2.3339221"
     d="M 202.11766 641.12512 A 2.3339221 2.3339221 0 1 1  197.44982,641.12512 A 2.3339221 2.3339221 0 1 1  202.11766 641.12512 z" />
  <path
     sodipodi:type="arc"
     style="fill:#ffebaa;fill-opacity:1.0000000;stroke:none;stroke-width:1.0000000pt;stroke-linecap:butt;stroke-linejoin:miter;stroke-opacity:1.0000000"
     id="path695"
     sodipodi:cx="210.51978"
     sodipodi:cy="629.68890"
     sodipodi:rx="0.93356889"
     sodipodi:ry="1.1669611"
     d="M 211.45334 629.68890 A 0.93356889 1.1669611 0 1 1  209.58621,629.68890 A 0.93356889 1.1669611 0 1 1  211.45334 629.68890 z" />
  <path
     sodipodi:type="arc"
     style="fill:#ffebaa;fill-opacity:1.0000000;stroke:none;stroke-width:1.0000000pt;stroke-linecap:butt;stroke-linejoin:miter;stroke-opacity:1.0000000"
     id="path696"
     sodipodi:cx="204.68498"
     sodipodi:cy="671.46606"
     sodipodi:rx="2.5673144"
     sodipodi:ry="2.3339221"
     d="M 207.25230 671.46606 A 2.5673144 2.3339221 0 1 1  202.11767,671.46606 A 2.5673144 2.3339221 0 1 1  207.25230 671.46606 z" />
  <path
     sodipodi:type="arc"
     style="fill:#ffebaa;fill-opacity:1.0000000;stroke:none;stroke-width:1.0000000pt;stroke-linecap:butt;stroke-linejoin:miter;stroke-opacity:1.0000000"
     id="path697"
     sodipodi:cx="181.11237"
     sodipodi:cy="634.59009"
     sodipodi:rx="2.3339221"
     sodipodi:ry="1.8671378"
     d="M 183.44629 634.59009 A 2.3339221 1.8671378 0 1 1  178.77844,634.59009 A 2.3339221 1.8671378 0 1 1  183.44629 634.59009 z" />
  <path
     sodipodi:type="arc"
     style="fill:#ffebaa;fill-opacity:1.0000000;stroke:none;stroke-width:1.0000000pt;stroke-linecap:butt;stroke-linejoin:miter;stroke-opacity:1.0000000"
     id="path698"
     sodipodi:cx="221.02243"
     sodipodi:cy="657.46252"
     sodipodi:rx="1.6337456"
     sodipodi:ry="3.2674911"
     d="M 222.65618 657.46252 A 1.6337456 3.2674911 0 1 1  219.38868,657.46252 A 1.6337456 3.2674911 0 1 1  222.65618 657.46252 z" />
  <path
     sodipodi:type="arc"
     style="fill:#e7c774;fill-opacity:1.0000000;stroke:none;stroke-width:1.0000000pt;stroke-linecap:butt;stroke-linejoin:miter;stroke-opacity:1.0000000"
     id="path699"
     sodipodi:cx="220.55565"
     sodipodi:cy="611.48425"
     sodipodi:rx="3.0340989"
     sodipodi:ry="3.0340989"
     d="M 223.58975 611.48425 A 3.0340989 3.0340989 0 1 1  217.52155,611.48425 A 3.0340989 3.0340989 0 1 1  223.58975 611.48425 z" />
  <path
     sodipodi:type="arc"
     style="fill:#e7c774;fill-opacity:1.0000000;stroke:none;stroke-width:1.0000000pt;stroke-linecap:butt;stroke-linejoin:miter;stroke-opacity:1.0000000"
     id="path700"
     sodipodi:cx="206.55211"
     sodipodi:cy="606.58307"
     sodipodi:rx="1.1669611"
     sodipodi:ry="0.93356889"
     d="M 207.71907 606.58307 A 1.1669611 0.93356889 0 1 1  205.38515,606.58307 A 1.1669611 0.93356889 0 1 1  207.71907 606.58307 z" />
  <path
     sodipodi:type="arc"
     style="fill:#e7c774;fill-opacity:1.0000000;stroke:none;stroke-width:1.0000000pt;stroke-linecap:butt;stroke-linejoin:miter;stroke-opacity:1.0000000"
     id="path701"
     sodipodi:cx="198.14999"
     sodipodi:cy="626.42139"
     sodipodi:rx="2.1005299"
     sodipodi:ry="1.1669611"
     d="M 200.25052 626.42139 A 2.1005299 1.1669611 0 1 1  196.04946,626.42139 A 2.1005299 1.1669611 0 1 1  200.25052 626.42139 z" />
  <path
     sodipodi:type="arc"
     style="fill:#e7c774;fill-opacity:1.0000000;stroke:none;stroke-width:1.0000000pt;stroke-linecap:butt;stroke-linejoin:miter;stroke-opacity:1.0000000"
     id="path702"
     sodipodi:cx="165.70848"
     sodipodi:cy="643.22565"
     sodipodi:rx="0.93356889"
     sodipodi:ry="2.1005299"
     d="M 166.64205 643.22565 A 0.93356889 2.1005299 0 1 1  164.77491,643.22565 A 0.93356889 2.1005299 0 1 1  166.64205 643.22565 z" />
  <path
     sodipodi:type="arc"
     style="fill:#e7c774;fill-opacity:1.0000000;stroke:none;stroke-width:1.0000000pt;stroke-linecap:butt;stroke-linejoin:miter;stroke-opacity:1.0000000"
     id="path703"
     sodipodi:cx="177.84486"
     sodipodi:cy="627.35498"
     sodipodi:rx="0.93356889"
     sodipodi:ry="1.1669611"
     d="M 178.77843 627.35498 A 0.93356889 1.1669611 0 1 1  176.91129,627.35498 A 0.93356889 1.1669611 0 1 1  178.77843 627.35498 z" />
  <path
     sodipodi:type="arc"
     style="fill:#e7c774;fill-opacity:1.0000000;stroke:none;stroke-width:1.0000000pt;stroke-linecap:butt;stroke-linejoin:miter;stroke-opacity:1.0000000"
     id="path704"
     sodipodi:cx="179.24522"
     sodipodi:cy="678.46783"
     sodipodi:rx="2.3339221"
     sodipodi:ry="1.4003533"
     d="M 181.57915 678.46783 A 2.3339221 1.4003533 0 1 1  176.91130,678.46783 A 2.3339221 1.4003533 0 1 1  181.57915 678.46783 z" />
  <path
     sodipodi:type="arc"
     style="fill:#cb915b;fill-opacity:1.0000000;stroke:none;stroke-width:1.0000000pt;stroke-linecap:butt;stroke-linejoin:miter;stroke-opacity:1.0000000"
     id="path705"
     sodipodi:cx="212.85370"
     sodipodi:cy="607.51660"
     sodipodi:rx="0.93356889"
     sodipodi:ry="0.93356889"
     d="M 213.78727 607.51660 A 0.93356889 0.93356889 0 1 1  211.92013,607.51660 A 0.93356889 0.93356889 0 1 1  213.78727 607.51660 z" />
  <path
     sodipodi:type="arc"
     style="fill:#cb915b;fill-opacity:1.0000000;stroke:none;stroke-width:1.0000000pt;stroke-linecap:butt;stroke-linejoin:miter;stroke-opacity:1.0000000"
     id="path706"
     sodipodi:cx="220.08887"
     sodipodi:cy="643.45898"
     sodipodi:rx="1.6337456"
     sodipodi:ry="0.93356889"
     d="M 221.72261 643.45898 A 1.6337456 0.93356889 0 1 1  218.45512,643.45898 A 1.6337456 0.93356889 0 1 1  221.72261 643.45898 z" />
  <path
     sodipodi:type="arc"
     style="fill:#cb915b;fill-opacity:1.0000000;stroke:none;stroke-width:1.0000000pt;stroke-linecap:butt;stroke-linejoin:miter;stroke-opacity:1.0000000"
     id="path707"
     sodipodi:cx="224.99010"
     sodipodi:cy="639.72473"
     sodipodi:rx="2.3339221"
     sodipodi:ry="3.7342756"
     d="M 227.32402 639.72473 A 2.3339221 3.7342756 0 1 1  222.65617,639.72473 A 2.3339221 3.7342756 0 1 1  227.32402 639.72473 z" />
  <path
     style="fill:#ffffff;fill-opacity:1.0000000;fill-rule:evenodd;stroke:none;stroke-width:0.25000000pt;stroke-linecap:butt;stroke-linejoin:miter;stroke-opacity:1.0000000"
     d="M 184.79241,659.60507 C 181.50440,657.88653 180.28898,659.79226 180.95894,660.81880 C 181.62891,661.84535 183.15688,665.53228 185.20997,664.19234 C 187.26307,662.85242 184.79241,659.60507 184.79241,659.60507 z "
     id="path708" />
  <path
     style="fill:#5d2a0f;fill-opacity:1.0000000;fill-rule:evenodd;stroke:none;stroke-width:0.25000000pt;stroke-linecap:butt;stroke-linejoin:miter;stroke-opacity:1.0000000"
     d="M 219.32320,550.97406 L 226.41575,547.15500 L 226.41575,551.51964 L 230.78039,556.42986 L 234.05387,564.06798 L 232.96271,573.34285 L 230.78039,579.34423 L 227.50691,577.16191 L 229.14365,570.06936 L 228.59807,561.88566 L 222.59669,553.15638 L 219.32320,550.97406 z "
     id="path709" />
</g>
<path
   style="fill:#945b0f;fill-opacity:1.0000000;fill-rule:evenodd;stroke:none;stroke-width:0.25000000pt;stroke-linecap:butt;stroke-linejoin:miter;stroke-opacity:1.0000000"
   d="M 75.107960,45.218008 C 68.561307,49.780825 71.735441,47.796989 69.553223,49.780825 C 67.371005,51.764657 66.974238,53.946875 64.395257,56.327479 C 61.816273,58.708078 57.650223,61.882211 55.269619,62.675746 C 52.889020,63.469276 50.905184,64.857964 48.524580,66.841796 C 46.143977,68.825628 43.763373,73.190063 43.168224,74.777132 C 42.573072,76.364197 41.382770,80.331865 42.573072,83.307618 C 43.763373,86.283370 45.548828,86.283370 47.334278,89.259118 C 49.119729,92.234870 49.516496,94.417088 51.103565,95.607385 C 52.690634,96.797687 57.055070,99.773439 63.998490,97.789603 C 70.941906,95.805771 75.107960,89.060736 76.893411,84.497919 C 78.678861,79.935098 76.496644,72.991682 77.290174,69.817548 C 78.083709,66.643414 79.869159,60.096761 80.067545,56.525860 C 80.265926,52.954959 78.083709,47.400226 78.083709,47.400226 L 75.107960,45.218008 z "
   id="path587" />
<path
   style="fill:#cb915b;fill-opacity:1.0000000;fill-rule:evenodd;stroke:none;stroke-width:0.23750000pt;stroke-linecap:butt;stroke-linejoin:miter;stroke-opacity:1.0000000"
   d="M 75.150482,46.117419 C 68.931159,50.452096 71.946590,48.567450 69.873482,50.452096 C 67.800375,52.336737 67.423446,54.409844 64.973415,56.671414 C 62.523379,58.932984 58.565630,61.948414 56.304057,62.702270 C 54.042487,63.456123 52.157841,64.775378 49.896272,66.660019 C 47.634698,68.544656 45.373124,72.690871 44.807730,74.198588 C 44.242335,75.706297 43.111551,79.475584 44.242335,82.302548 C 45.373124,85.129512 47.069304,85.129512 48.765483,87.956472 C 50.461662,90.783440 50.838590,92.856543 52.346308,93.987328 C 53.854021,95.118113 58.000236,97.945081 64.596486,96.060435 C 71.192729,94.175794 75.150482,87.768010 76.846661,83.433337 C 78.542836,79.098655 76.469728,72.502409 77.223585,69.486983 C 77.977441,66.471557 79.673621,60.252235 79.862087,56.859880 C 80.050549,53.467522 77.977441,48.190526 77.977441,48.190526 L 75.150482,46.117419 z "
   id="path588" />
<path
   style="fill:#d1b868;fill-opacity:1.0000000;fill-rule:evenodd;stroke:none;stroke-width:0.25000000pt;stroke-linecap:butt;stroke-linejoin:miter;stroke-opacity:1.0000000"
   d="M 72.330666,55.533944 C 68.561384,58.708078 62.808265,59.898380 61.022814,61.088677 C 59.237364,62.278979 52.690715,66.643414 51.302027,68.627246 C 49.913344,70.611078 44.755378,74.777132 45.350527,76.959350 C 45.945676,79.141568 48.524661,82.712469 50.111730,84.696301 C 51.698795,86.680133 52.293948,90.647801 56.063230,92.631637 C 59.832517,94.615469 62.808265,93.226786 65.585632,91.838103 C 68.363002,90.449419 71.338750,87.672053 73.124201,84.894682 C 74.909651,82.117316 76.893487,82.514083 75.901567,76.364197 C 74.909651,70.214315 74.116117,67.635330 74.711270,64.857964 C 75.306418,62.080593 76.893487,58.906459 75.306418,56.922627 C 73.719354,54.938791 72.330666,55.533944 72.330666,55.533944 z "
   id="path589" />
<path
   style="fill:#e7c774;fill-opacity:1.0000000;fill-rule:evenodd;stroke:none;stroke-width:0.25000000pt;stroke-linecap:butt;stroke-linejoin:miter;stroke-opacity:1.0000000"
   d="M 60.229280,62.675746 C 66.577552,60.295142 72.132285,63.270895 72.727434,67.635330 C 73.322586,71.999762 75.901567,78.546415 73.322586,82.910850 C 70.743601,87.275286 65.188868,90.846187 63.205032,91.441335 C 61.221200,92.036484 56.658379,88.862351 55.864849,86.680133 C 55.071314,84.497915 52.889097,83.307618 51.698795,81.720549 C 50.508497,80.133484 49.714963,74.578746 51.302027,72.991682 C 52.889097,71.404613 57.055146,67.635330 57.253532,65.849880 C 57.451914,64.064429 60.229280,62.675746 60.229280,62.675746 z "
   id="path590" />
<path
   sodipodi:type="arc"
   style="fill:#ffebaa;fill-opacity:1.0000000;stroke:none;stroke-width:1.0000000pt;stroke-linecap:butt;stroke-linejoin:miter;stroke-opacity:1.0000000;"
   id="path593"
   sodipodi:cx="199.78374"
   sodipodi:cy="641.12512"
   sodipodi:rx="2.3339221"
   sodipodi:ry="2.3339221"
   d="M 202.11766 641.12512 A 2.3339221 2.3339221 0 1 1  197.44982,641.12512 A 2.3339221 2.3339221 0 1 1  202.11766 641.12512 z"
   transform="matrix(0.425000,0.000000,0.000000,0.425000,-21.30629,-199.2881)" />
<path
   sodipodi:type="arc"
   style="fill:#ffebaa;fill-opacity:1.0000000;stroke:none;stroke-width:1.0000000pt;stroke-linecap:butt;stroke-linejoin:miter;stroke-opacity:1.0000000;"
   id="path594"
   sodipodi:cx="210.51978"
   sodipodi:cy="629.68890"
   sodipodi:rx="0.93356889"
   sodipodi:ry="1.1669611"
   d="M 211.45334 629.68890 A 0.93356889 1.1669611 0 1 1  209.58621,629.68890 A 0.93356889 1.1669611 0 1 1  211.45334 629.68890 z"
   transform="matrix(0.425000,0.000000,0.000000,0.425000,-21.30629,-199.2881)" />
<path
   sodipodi:type="arc"
   style="fill:#ffebaa;fill-opacity:1.0000000;stroke:none;stroke-width:1.0000000pt;stroke-linecap:butt;stroke-linejoin:miter;stroke-opacity:1.0000000;"
   id="path595"
   sodipodi:cx="204.68498"
   sodipodi:cy="671.46606"
   sodipodi:rx="2.5673144"
   sodipodi:ry="2.3339221"
   d="M 207.25230 671.46606 A 2.5673144 2.3339221 0 1 1  202.11767,671.46606 A 2.5673144 2.3339221 0 1 1  207.25230 671.46606 z"
   transform="matrix(0.425000,0.000000,0.000000,0.425000,-21.30629,-199.2881)" />
<path
   sodipodi:type="arc"
   style="fill:#ffebaa;fill-opacity:1.0000000;stroke:none;stroke-width:1.0000000pt;stroke-linecap:butt;stroke-linejoin:miter;stroke-opacity:1.0000000;"
   id="path596"
   sodipodi:cx="181.11237"
   sodipodi:cy="634.59009"
   sodipodi:rx="2.3339221"
   sodipodi:ry="1.8671378"
   d="M 183.44629 634.59009 A 2.3339221 1.8671378 0 1 1  178.77844,634.59009 A 2.3339221 1.8671378 0 1 1  183.44629 634.59009 z"
   transform="matrix(0.425000,0.000000,0.000000,0.425000,-21.30629,-199.2881)" />
<path
   sodipodi:type="arc"
   style="fill:#ffebaa;fill-opacity:1.0000000;stroke:none;stroke-width:1.0000000pt;stroke-linecap:butt;stroke-linejoin:miter;stroke-opacity:1.0000000;"
   id="path597"
   sodipodi:cx="221.02243"
   sodipodi:cy="657.46252"
   sodipodi:rx="1.6337456"
   sodipodi:ry="3.2674911"
   d="M 222.65618 657.46252 A 1.6337456 3.2674911 0 1 1  219.38868,657.46252 A 1.6337456 3.2674911 0 1 1  222.65618 657.46252 z"
   transform="matrix(0.425000,0.000000,0.000000,0.425000,-21.30629,-199.2881)" />
<path
   sodipodi:type="arc"
   style="fill:#e7c774;fill-opacity:1.0000000;stroke:none;stroke-width:1.0000000pt;stroke-linecap:butt;stroke-linejoin:miter;stroke-opacity:1.0000000;"
   id="path598"
   sodipodi:cx="220.55565"
   sodipodi:cy="611.48425"
   sodipodi:rx="3.0340989"
   sodipodi:ry="3.0340989"
   d="M 223.58975 611.48425 A 3.0340989 3.0340989 0 1 1  217.52155,611.48425 A 3.0340989 3.0340989 0 1 1  223.58975 611.48425 z"
   transform="matrix(0.425000,0.000000,0.000000,0.425000,-21.30629,-199.2881)" />
<path
   sodipodi:type="arc"
   style="fill:#e7c774;fill-opacity:1.0000000;stroke:none;stroke-width:1.0000000pt;stroke-linecap:butt;stroke-linejoin:miter;stroke-opacity:1.0000000;"
   id="path599"
   sodipodi:cx="206.55211"
   sodipodi:cy="606.58307"
   sodipodi:rx="1.1669611"
   sodipodi:ry="0.93356889"
   d="M 207.71907 606.58307 A 1.1669611 0.93356889 0 1 1  205.38515,606.58307 A 1.1669611 0.93356889 0 1 1  207.71907 606.58307 z"
   transform="matrix(0.425000,0.000000,0.000000,0.425000,-21.30629,-199.2881)" />
<path
   sodipodi:type="arc"
   style="fill:#e7c774;fill-opacity:1.0000000;stroke:none;stroke-width:1.0000000pt;stroke-linecap:butt;stroke-linejoin:miter;stroke-opacity:1.0000000;"
   id="path600"
   sodipodi:cx="198.14999"
   sodipodi:cy="626.42139"
   sodipodi:rx="2.1005299"
   sodipodi:ry="1.1669611"
   d="M 200.25052 626.42139 A 2.1005299 1.1669611 0 1 1  196.04946,626.42139 A 2.1005299 1.1669611 0 1 1  200.25052 626.42139 z"
   transform="matrix(0.425000,0.000000,0.000000,0.425000,-21.30629,-199.2881)" />
<path
   sodipodi:type="arc"
   style="fill:#e7c774;fill-opacity:1.0000000;stroke:none;stroke-width:1.0000000pt;stroke-linecap:butt;stroke-linejoin:miter;stroke-opacity:1.0000000;"
   id="path601"
   sodipodi:cx="165.70848"
   sodipodi:cy="643.22565"
   sodipodi:rx="0.93356889"
   sodipodi:ry="2.1005299"
   d="M 166.64205 643.22565 A 0.93356889 2.1005299 0 1 1  164.77491,643.22565 A 0.93356889 2.1005299 0 1 1  166.64205 643.22565 z"
   transform="matrix(0.425000,0.000000,0.000000,0.425000,-21.30629,-199.2881)" />
<path
   sodipodi:type="arc"
   style="fill:#e7c774;fill-opacity:1.0000000;stroke:none;stroke-width:1.0000000pt;stroke-linecap:butt;stroke-linejoin:miter;stroke-opacity:1.0000000;"
   id="path602"
   sodipodi:cx="177.84486"
   sodipodi:cy="627.35498"
   sodipodi:rx="0.93356889"
   sodipodi:ry="1.1669611"
   d="M 178.77843 627.35498 A 0.93356889 1.1669611 0 1 1  176.91129,627.35498 A 0.93356889 1.1669611 0 1 1  178.77843 627.35498 z"
   transform="matrix(0.425000,0.000000,0.000000,0.425000,-21.30629,-199.2881)" />
<path
   sodipodi:type="arc"
   style="fill:#e7c774;fill-opacity:1.0000000;stroke:none;stroke-width:1.0000000pt;stroke-linecap:butt;stroke-linejoin:miter;stroke-opacity:1.0000000;"
   id="path603"
   sodipodi:cx="179.24522"
   sodipodi:cy="678.46783"
   sodipodi:rx="2.3339221"
   sodipodi:ry="1.4003533"
   d="M 181.57915 678.46783 A 2.3339221 1.4003533 0 1 1  176.91130,678.46783 A 2.3339221 1.4003533 0 1 1  181.57915 678.46783 z"
   transform="matrix(0.425000,0.000000,0.000000,0.425000,-21.30629,-199.2881)" />
<path
   sodipodi:type="arc"
   style="fill:#cb915b;fill-opacity:1.0000000;stroke:none;stroke-width:1.0000000pt;stroke-linecap:butt;stroke-linejoin:miter;stroke-opacity:1.0000000;"
   id="path604"
   sodipodi:cx="212.85370"
   sodipodi:cy="607.51660"
   sodipodi:rx="0.93356889"
   sodipodi:ry="0.93356889"
   d="M 213.78727 607.51660 A 0.93356889 0.93356889 0 1 1  211.92013,607.51660 A 0.93356889 0.93356889 0 1 1  213.78727 607.51660 z"
   transform="matrix(0.425000,0.000000,0.000000,0.425000,-21.30629,-199.2881)" />
<path
   sodipodi:type="arc"
   style="fill:#cb915b;fill-opacity:1.0000000;stroke:none;stroke-width:1.0000000pt;stroke-linecap:butt;stroke-linejoin:miter;stroke-opacity:1.0000000;"
   id="path605"
   sodipodi:cx="220.08887"
   sodipodi:cy="643.45898"
   sodipodi:rx="1.6337456"
   sodipodi:ry="0.93356889"
   d="M 221.72261 643.45898 A 1.6337456 0.93356889 0 1 1  218.45512,643.45898 A 1.6337456 0.93356889 0 1 1  221.72261 643.45898 z"
   transform="matrix(0.425000,0.000000,0.000000,0.425000,-21.30629,-199.2881)" />
<path
   sodipodi:type="arc"
   style="fill:#cb915b;fill-opacity:1.0000000;stroke:none;stroke-width:1.0000000pt;stroke-linecap:butt;stroke-linejoin:miter;stroke-opacity:1.0000000;"
   id="path606"
   sodipodi:cx="224.99010"
   sodipodi:cy="639.72473"
   sodipodi:rx="2.3339221"
   sodipodi:ry="3.7342756"
   d="M 227.32402 639.72473 A 2.3339221 3.7342756 0 1 1  222.65617,639.72473 A 2.3339221 3.7342756 0 1 1  227.32402 639.72473 z"
   transform="matrix(0.425000,0.000000,0.000000,0.425000,-21.30629,-199.2881)" />
<path
   style="fill:#5d2a0f;fill-opacity:1.0000000;fill-rule:evenodd;stroke:none;stroke-width:0.25000000pt;stroke-linecap:butt;stroke-linejoin:miter;stroke-opacity:1.0000000"
   d="M 71.906070,34.875876 L 74.920404,33.252775 L 74.920404,35.107747 L 76.775376,37.194590 L 78.166605,40.440792 L 77.702862,44.382611 L 76.775376,46.933198 L 75.384147,46.005712 L 76.079761,42.991378 L 75.847890,39.513306 L 73.297303,35.803362 L 71.906070,34.875876 z "
   id="path608" />
<line
   style="fill:none;stroke:#000000;stroke-width:2.0000000"
   x1="61.471325"
   y1="76.430588"
   x2="66.185326"
   y2="71.716583"
   id="line572" />
<line
   style="fill:none;stroke:#000000;stroke-width:2.0000000"
   x1="66.185326"
   y1="76.430588"
   x2="61.471325"
   y2="71.716583"
   id="line574" />
<line
   style="fill:none;stroke:#000000;stroke-width:2.0000000"
   x1="22.238001"
   y1="3.5433071"
   x2="22.238001"
   y2="52.376308"
   id="line550" />
<line
   style="fill:none;stroke:#000000;stroke-width:2.0825343"
   x1="98.938004"
   y1="3.6275442"
   x2="98.938004"
   y2="54.947742"
   id="line567" />
<line
   style="fill:none;stroke:#000000;stroke-width:2.0000000"
   x1="63.875000"
   y1="4.0433073"
   x2="63.875000"
   y2="60.376308"
   id="line577" />

	<g
   id="g747"
   transform="translate(76.76370,0.195691)">
				<line
   style="fill:none;stroke:#000000;stroke-width:2.0000000"
   x1="19.881001"
   y1="76.500000"
   x2="24.594999"
   y2="71.786003"
   id="line749" />

				<line
   style="fill:none;stroke:#000000;stroke-width:2.0000000"
   x1="24.594999"
   y1="76.500000"
   x2="19.881001"
   y2="71.786003"
   id="line751" />

			</g>
</svg>
