<?xml version="1.0" encoding="iso-8859-1"?>
<!-- Generator: Adobe Illustrator 11 Build 196, SVG Export Plug-In . SVG Version: 6.0.0 Build 78)  -->
<!DOCTYPE svg PUBLIC "-//W3C//DTD SVG 1.0//EN"    "http://www.w3.org/TR/2001/REC-SVG-20010904/DTD/svg10.dtd" [
	<!ENTITY ns_flows "http://ns.adobe.com/Flows/1.0/">
	<!ENTITY ns_svg "http://www.w3.org/2000/svg">
	<!ENTITY ns_xlink "http://www.w3.org/1999/xlink">
]>
<svg  
	 width="145.948" height="141.428" viewBox="0 0 145.948 141.428"
	 style="overflow:visible;enable-background:new 0 0 145.948 141.428" xml:space="preserve">
	<g id="Layer_1">
		
			<radialGradient id="XMLID_9_" cx="199.208" cy="-52.0215" r="10" fx="199.208" fy="-52.0215" gradientTransform="matrix(0.375 0 0 0.375 -11.3132 53.3219)" gradientUnits="userSpaceOnUse">
			<stop  offset="0" style="stop-color:#E9E9E9"/>
			<stop  offset="1" style="stop-color:#000000"/>
			<midPointStop  offset="0" style="stop-color:#E9E9E9"/>
			<midPointStop  offset="0.5" style="stop-color:#E9E9E9"/>
			<midPointStop  offset="1" style="stop-color:#000000"/>
		</radialGradient>
		<circle style="fill:url(#XMLID_9_);stroke:#000000;" cx="61.515" cy="35.689" r="5.834"/> 
		
			<rect x="70.095" y="-30.099" transform="matrix(-0.0534 0.9986 -0.9986 -0.0534 117.4756 -28.3136)" style="fill:#B5B5B5;stroke:#000000;" width="4.125" height="143.247"/> 
		
			<radialGradient id="XMLID_10_" cx="199.208" cy="-52.0215" r="10" fx="199.208" fy="-52.0215" gradientTransform="matrix(0.375 0 0 0.375 65.7283 59.3219)" gradientUnits="userSpaceOnUse">
			<stop  offset="0" style="stop-color:#E9E9E9"/>
			<stop  offset="1" style="stop-color:#000000"/>
			<midPointStop  offset="0" style="stop-color:#E9E9E9"/>
			<midPointStop  offset="0.5" style="stop-color:#E9E9E9"/>
			<midPointStop  offset="1" style="stop-color:#000000"/>
		</radialGradient>
		<circle style="fill:url(#XMLID_10_);stroke:#000000;" cx="138.556" cy="41.689" r="5.834"/> 
		
			<radialGradient id="XMLID_11_" cx="199.208" cy="-52.0215" r="10" fx="199.208" fy="-52.0215" gradientTransform="matrix(0.375 0 0 0.375 44.1658 122.6967)" gradientUnits="userSpaceOnUse">
			<stop  offset="0" style="stop-color:#E9E9E9"/>
			<stop  offset="1" style="stop-color:#000000"/>
			<midPointStop  offset="0" style="stop-color:#E9E9E9"/>
			<midPointStop  offset="0.5" style="stop-color:#E9E9E9"/>
			<midPointStop  offset="1" style="stop-color:#000000"/>
		</radialGradient>
		<circle style="fill:url(#XMLID_11_);stroke:#000000;" cx="116.994" cy="105.064" r="5.834"/> 
		
			<radialGradient id="XMLID_12_" cx="199.208" cy="-52.0215" r="10" fx="199.208" fy="-52.0215" gradientTransform="matrix(0.375 0 0 0.375 -15.2717 150.4467)" gradientUnits="userSpaceOnUse">
			<stop  offset="0" style="stop-color:#E9E9E9"/>
			<stop  offset="1" style="stop-color:#000000"/>
			<midPointStop  offset="0" style="stop-color:#E9E9E9"/>
			<midPointStop  offset="0.5" style="stop-color:#E9E9E9"/>
			<midPointStop  offset="1" style="stop-color:#000000"/>
		</radialGradient>
		<circle style="fill:url(#XMLID_12_);stroke:#000000;" cx="57.556" cy="132.814" r="5.834"/> 
		
			<radialGradient id="XMLID_13_" cx="199.208" cy="-52.0215" r="10" fx="199.208" fy="-52.0215" gradientTransform="matrix(0.375 0 0 0.375 -35.5217 142.1967)" gradientUnits="userSpaceOnUse">
			<stop  offset="0" style="stop-color:#E9E9E9"/>
			<stop  offset="1" style="stop-color:#000000"/>
			<midPointStop  offset="0" style="stop-color:#E9E9E9"/>
			<midPointStop  offset="0.5" style="stop-color:#E9E9E9"/>
			<midPointStop  offset="1" style="stop-color:#000000"/>
		</radialGradient>
		<circle style="fill:url(#XMLID_13_);stroke:#000000;" cx="37.306" cy="124.564" r="5.834"/> 
		<g>
			
				<rect x="40.586" y="17.232" transform="matrix(-0.9931 0.1174 -0.1174 -0.9931 93.7091 31.7588)" style="fill:#B5B5B5;stroke:#000000;" width="10.667" height="2.812"/> 
			<circle style="fill:#B4B4B4;stroke:#000000;" cx="51.396" cy="19.536" r="1.326"/> 
		</g>
		<g>
			<rect x="49.119" y="75.595" style="fill:#D6D6D6;stroke:#000000;" width="2.812" height="10.666"/> 
			<rect x="49.119" y="86.225" style="fill:#D6D6D6;stroke:#000000;" width="2.812" height="10.666"/> 
			<rect x="49.119" y="96.855" style="fill:#D6D6D6;stroke:#000000;" width="2.812" height="10.667"/> 
			<rect x="49.119" y="107.485" style="fill:#D6D6D6;stroke:#000000;" width="2.812" height="10.667"/> 
			<rect x="49.119" y="118.115" style="fill:#D6D6D6;stroke:#000000;" width="2.812" height="10.666"/> 
			<path style="fill:#D6D6D6;stroke:#000000;" d="M49.119,128.413v12.516h13.828v-2.719c0,0-10.717,0.703-11.062-9.328
				c-0.012-0.34-0.023-0.469-0.023-0.469H49.119z"/>
			<circle style="fill:#B4B4B4;stroke:#000000;" cx="52.059" cy="86.225" r="1.326"/> 
			<circle style="fill:#B4B4B4;stroke:#000000;" cx="52.059" cy="75.595" r="1.326"/> 
			<circle style="fill:#B4B4B4;stroke:#000000;" cx="52.059" cy="96.855" r="1.326"/> 
			<circle style="fill:#B4B4B4;stroke:#000000;" cx="52.059" cy="107.485" r="1.326"/> 
			<circle style="fill:#B4B4B4;stroke:#000000;" cx="52.059" cy="118.115" r="1.326"/> 
			<circle style="fill:#B4B4B4;stroke:#000000;" cx="52.059" cy="128.745" r="1.326"/> 
		</g>
		<g>
			<path style="fill:#EDEDED;stroke:#000000;" d="M52.025,19.643c-15.23,0-27.577,12.347-27.577,27.577
				c0,15.23,12.347,27.578,27.577,27.578c15.23,0,27.577-12.347,27.577-27.578C79.602,31.99,67.255,19.643,52.025,19.643z
				 M74.008,45.42H53.825V25.237C64.572,26.106,73.139,34.673,74.008,45.42z M50.225,25.237V45.42H30.042
				C30.911,34.673,39.478,26.106,50.225,25.237z M30.042,49.02h20.183v20.183C39.478,68.334,30.911,59.767,30.042,49.02z
				 M53.825,69.203V49.02h20.183C73.139,59.767,64.572,68.334,53.825,69.203z"/>
			<circle style="fill:#EDEDED;stroke:#000000;" cx="52.025" cy="47.22" r="1.485"/> 
		</g>
		<g>
			<rect x="29.619" y="67.435" style="fill:#D6D6D6;stroke:#000000;" width="2.812" height="10.666"/> 
			<rect x="29.619" y="78.065" style="fill:#D6D6D6;stroke:#000000;" width="2.812" height="10.666"/> 
			<rect x="29.619" y="88.695" style="fill:#D6D6D6;stroke:#000000;" width="2.812" height="10.666"/> 
			<rect x="29.619" y="99.325" style="fill:#D6D6D6;stroke:#000000;" width="2.812" height="10.666"/> 
			<rect x="29.619" y="109.955" style="fill:#D6D6D6;stroke:#000000;" width="2.812" height="10.666"/> 
			<path style="fill:#D6D6D6;stroke:#000000;" d="M29.619,120.252v12.516h13.828v-2.719c0,0-10.717,0.703-11.062-9.328
				c-0.012-0.34-0.023-0.469-0.023-0.469H29.619z"/>
			<circle style="fill:#B4B4B4;stroke:#000000;" cx="32.559" cy="78.065" r="1.326"/> 
			<circle style="fill:#B4B4B4;stroke:#000000;" cx="32.559" cy="67.435" r="1.326"/> 
			<circle style="fill:#B4B4B4;stroke:#000000;" cx="32.559" cy="88.695" r="1.326"/> 
			<circle style="fill:#B4B4B4;stroke:#000000;" cx="32.559" cy="99.325" r="1.326"/> 
			<circle style="fill:#B4B4B4;stroke:#000000;" cx="32.559" cy="109.955" r="1.326"/> 
			<circle style="fill:#B4B4B4;stroke:#000000;" cx="32.559" cy="120.585" r="1.326"/> 
		</g>
		<rect x="20.806" y="46.81" style="fill:#D6D6D6;stroke:#000000;" width="2.812" height="10.666"/> 
		<rect x="20.806" y="57.44" style="fill:#D6D6D6;stroke:#000000;" width="2.812" height="10.666"/> 
		<rect x="20.806" y="68.07" style="fill:#D6D6D6;stroke:#000000;" width="2.812" height="10.666"/> 
		<rect x="20.806" y="78.7" style="fill:#D6D6D6;stroke:#000000;" width="2.812" height="10.666"/> 
		<rect x="20.806" y="89.33" style="fill:#D6D6D6;stroke:#000000;" width="2.812" height="10.666"/> 
		<circle style="fill:#B4B4B4;stroke:#000000;" cx="23.746" cy="57.44" r="1.326"/> 
		<circle style="fill:#B4B4B4;stroke:#000000;" cx="23.746" cy="46.81" r="1.326"/> 
		<circle style="fill:#B4B4B4;stroke:#000000;" cx="23.746" cy="68.07" r="1.326"/> 
		<circle style="fill:#B4B4B4;stroke:#000000;" cx="23.746" cy="78.7" r="1.326"/> 
		<circle style="fill:#B4B4B4;stroke:#000000;" cx="23.746" cy="89.33" r="1.326"/> 
		<circle style="fill:#B4B4B4;stroke:#000000;" cx="23.746" cy="99.96" r="1.326"/> 
		<g>
			
				<rect x="69.67" y="70.039" transform="matrix(0.7071 0.7071 -0.7071 0.7071 72.4904 -32.1096)" style="fill:#B5B5B5;stroke:#000000;" width="10.666" height="2.813"/> 
			
				<rect x="77.187" y="77.555" transform="matrix(0.7071 0.7071 -0.7071 0.7071 80.0035 -35.2231)" style="fill:#B5B5B5;stroke:#000000;" width="10.666" height="2.813"/> 
			
				<rect x="84.703" y="85.072" transform="matrix(0.7071 0.7071 -0.7071 0.7071 87.516 -38.3365)" style="fill:#B5B5B5;stroke:#000000;" width="10.666" height="2.812"/> 
			
				<rect x="92.219" y="92.588" transform="matrix(0.7071 0.7071 -0.7071 0.7071 95.0364 -41.4498)" style="fill:#B5B5B5;stroke:#000000;" width="10.666" height="2.812"/> 
			
				<rect x="99.736" y="100.104" transform="matrix(0.7071 0.7071 -0.7071 0.7071 102.5577 -44.5633)" style="fill:#B5B5B5;stroke:#000000;" width="10.666" height="2.813"/> 
			<path style="fill:#D6D6D6;stroke:#000000;" d="M107.585,106.016l8.85,8.85l9.778-9.778l-1.922-1.922
				c0,0-7.081,8.075-14.418,1.227c-0.249-0.232-0.348-0.315-0.348-0.315L107.585,106.016z"/>
			<circle style="fill:#B4B4B4;stroke:#000000;" cx="79.833" cy="74.106" r="1.326"/> 
			<circle style="fill:#B4B4B4;stroke:#000000;" cx="72.316" cy="66.589" r="1.326"/> 
			<circle style="fill:#B4B4B4;stroke:#000000;" cx="87.35" cy="81.622" r="1.326"/> 
			<circle style="fill:#B4B4B4;stroke:#000000;" cx="94.866" cy="89.139" r="1.326"/> 
			<circle style="fill:#B4B4B4;stroke:#000000;" cx="102.383" cy="96.655" r="1.326"/> 
			<circle style="fill:#B4B4B4;stroke:#000000;" cx="109.899" cy="104.172" r="1.326"/> 
		</g>
		<g>
			<rect x="80.115" y="47.314" style="fill:#D6D6D6;stroke:#000000;" width="10.666" height="2.812"/> 
			<rect x="90.745" y="47.314" style="fill:#D6D6D6;stroke:#000000;" width="10.666" height="2.812"/> 
			<rect x="101.375" y="47.314" style="fill:#D6D6D6;stroke:#000000;" width="10.666" height="2.812"/> 
			<rect x="112.004" y="47.314" style="fill:#D6D6D6;stroke:#000000;" width="10.666" height="2.812"/> 
			<rect x="122.634" y="47.314" style="fill:#D6D6D6;stroke:#000000;" width="10.666" height="2.812"/> 
			<path style="fill:#D6D6D6;stroke:#000000;" d="M132.932,50.126h12.516V36.298h-2.719c0,0,0.703,10.717-9.328,11.062
				c-0.34,0.012-0.469,0.023-0.469,0.023V50.126z"/>
			<circle style="fill:#B4B4B4;stroke:#000000;" cx="90.745" cy="47.187" r="1.326"/> 
			<circle style="fill:#B4B4B4;stroke:#000000;" cx="80.115" cy="47.187" r="1.326"/> 
			<circle style="fill:#B4B4B4;stroke:#000000;" cx="101.375" cy="47.187" r="1.326"/> 
			<circle style="fill:#B4B4B4;stroke:#000000;" cx="112.004" cy="47.187" r="1.326"/> 
			<circle style="fill:#B4B4B4;stroke:#000000;" cx="122.634" cy="47.187" r="1.326"/> 
			<circle style="fill:#B4B4B4;stroke:#000000;" cx="133.264" cy="47.187" r="1.326"/> 
		</g>
		<g>
			<g>
				
					<rect x="70.953" y="23.354" transform="matrix(0.6859 -0.7277 0.7277 0.6859 5.9423 63.2881)" style="fill:#B5B5B5;stroke:#000000;" width="10.666" height="2.812"/> 
				<circle style="fill:#B4B4B4;stroke:#000000;" cx="71.512" cy="27.589" r="1.326"/> 
			</g>
			<g>
				<rect x="79.353" y="9.132" style="fill:#D6D6D6;stroke:#000000;" width="2.812" height="10.666"/> 
				<circle style="fill:#B4B4B4;stroke:#000000;" cx="79.226" cy="19.798" r="1.326"/> 
			</g>
			<g>
				
					<rect x="70.392" y="3.669" transform="matrix(-0.853 -0.522 0.522 -0.853 137.6659 48.9311)" style="fill:#B5B5B5;stroke:#000000;" width="10.666" height="2.813"/> 
				<circle style="fill:#B4B4B4;stroke:#000000;" cx="79.473" cy="9.167" r="1.326"/> 
			</g>
			<g>
				
					<rect x="59.722" y="1.153" transform="matrix(-0.9935 0.1141 -0.1141 -0.9935 129.9781 -2.32)" style="fill:#B5B5B5;stroke:#000000;" width="10.666" height="2.812"/> 
				<circle style="fill:#B4B4B4;stroke:#000000;" cx="70.529" cy="3.474" r="1.326"/> 
			</g>
			<g>
				
					<rect x="48.641" y="2.83" transform="matrix(-0.979 0.204 -0.204 -0.979 107.6775 -2.627)" style="fill:#B5B5B5;stroke:#000000;" width="10.666" height="2.813"/> 
				<circle style="fill:#B4B4B4;stroke:#000000;" cx="59.508" cy="4.649" r="1.326"/> 
			</g>
			<g>
				<path style="fill:#D6D6D6;stroke:#000000;" d="M48.534,3.653L36.086,4.95l1.433,13.754l2.704-0.282
					c0,0-1.809-10.586,8.132-11.969c0.336-0.047,0.463-0.072,0.463-0.072L48.534,3.653z"/>
				<circle style="fill:#B4B4B4;stroke:#000000;" cx="48.508" cy="6.612" r="1.326"/> 
			</g>
		</g>
		<g>
			
				<rect x="30.248" y="21.331" transform="matrix(-0.8041 0.5945 -0.5945 -0.8041 77.709 19.8692)" style="fill:#B5B5B5;stroke:#000000;" width="10.666" height="2.812"/> 
			<circle style="fill:#B4B4B4;stroke:#000000;" cx="40.781" cy="20.8" r="1.326"/> 
		</g>
		<g>
			
				<rect x="22.52" y="28.29" transform="matrix(-0.6105 0.792 -0.792 -0.6105 68.3768 25.7669)" style="fill:#B5B5B5;stroke:#000000;" width="10.666" height="2.812"/> 
			<circle style="fill:#B4B4B4;stroke:#000000;" cx="32.323" cy="26.408" r="1.326"/> 
		</g>
		<g>
			
				<rect x="16.35" y="36.83" transform="matrix(-0.5404 0.8414 -0.8414 -0.5404 65.5733 40.6563)" style="fill:#B5B5B5;stroke:#000000;" width="10.666" height="2.812"/> 
			<circle style="fill:#B4B4B4;stroke:#000000;" cx="25.856" cy="34.578" r="1.326"/> 
		</g>
		<g>
			
				<rect x="11.161" y="46.095" transform="matrix(-0.4266 0.9044 -0.9044 -0.4266 66.4921 52.8464)" style="fill:#B5B5B5;stroke:#000000;" width="10.666" height="2.812"/> 
			<circle style="fill:#B4B4B4;stroke:#000000;" cx="20.156" cy="43.332" r="1.326"/> 
		</g>
		<g>
			
				<rect x="21.461" y="28.591" transform="matrix(-0.7071 0.7071 -0.7071 -0.7071 66.951 32.2626)" style="fill:#B5B5B5;stroke:#000000;" width="10.666" height="2.813"/> 
			<circle style="fill:#B4B4B4;stroke:#000000;" cx="31.649" cy="27.311" r="1.326"/> 
		</g>
		<g>
			
				<rect x="13.944" y="36.108" transform="matrix(-0.7071 0.7071 -0.7071 -0.7071 59.4352 50.4078)" style="fill:#B5B5B5;stroke:#000000;" width="10.666" height="2.812"/> 
			<circle style="fill:#B4B4B4;stroke:#000000;" cx="24.133" cy="34.827" r="1.326"/> 
		</g>
		<g>
			
				<rect x="6.569" y="43.639" transform="matrix(-0.6905 0.7233 -0.7233 -0.6905 52.7018 67.5424)" style="fill:#B5B5B5;stroke:#000000;" width="10.666" height="2.813"/> 
			<circle style="fill:#B4B4B4;stroke:#000000;" cx="16.693" cy="42.247" r="1.326"/> 
		</g>
		<g>
			
				<rect x="0.654" y="52.812" transform="matrix(-0.3671 0.9302 -0.9302 -0.3671 58.6182 68.5534)" style="fill:#B5B5B5;stroke:#000000;" width="10.666" height="2.813"/> 
			<circle style="fill:#B4B4B4;stroke:#000000;" cx="9.371" cy="49.821" r="1.326"/> 
		</g>
		<g>
			<rect x="2.29" y="59.632" style="fill:#D6D6D6;stroke:#000000;" width="2.812" height="10.666"/> 
			<circle style="fill:#B4B4B4;stroke:#000000;" cx="5.23" cy="59.632" r="1.326"/> 
		</g>
		
			<radialGradient id="XMLID_14_" cx="199.208" cy="-52.0215" r="10" fx="199.208" fy="-52.0215" gradientTransform="matrix(0.375 0 0 0.375 -43.7717 122.3219)" gradientUnits="userSpaceOnUse">
			<stop  offset="0" style="stop-color:#E9E9E9"/>
			<stop  offset="1" style="stop-color:#000000"/>
			<midPointStop  offset="0" style="stop-color:#E9E9E9"/>
			<midPointStop  offset="0.5" style="stop-color:#E9E9E9"/>
			<midPointStop  offset="1" style="stop-color:#000000"/>
		</radialGradient>
		<circle style="fill:url(#XMLID_14_);stroke:#000000;" cx="29.056" cy="104.689" r="5.834"/> 
		
			<radialGradient id="XMLID_15_" cx="199.208" cy="-52.0215" r="10" fx="199.208" fy="-52.0215" gradientTransform="matrix(0.375 0 0 0.375 -62.3342 92.3219)" gradientUnits="userSpaceOnUse">
			<stop  offset="0" style="stop-color:#E9E9E9"/>
			<stop  offset="1" style="stop-color:#000000"/>
			<midPointStop  offset="0" style="stop-color:#E9E9E9"/>
			<midPointStop  offset="0.5" style="stop-color:#E9E9E9"/>
			<midPointStop  offset="1" style="stop-color:#000000"/>
		</radialGradient>
		<circle style="fill:url(#XMLID_15_);stroke:#000000;" cx="10.494" cy="74.689" r="5.834"/> 
		
			<radialGradient id="XMLID_16_" cx="199.208" cy="-52.0215" r="10" fx="199.208" fy="-52.0215" gradientTransform="matrix(0.375 0 0 0.375 -51.8342 75.0719)" gradientUnits="userSpaceOnUse">
			<stop  offset="0" style="stop-color:#E9E9E9"/>
			<stop  offset="1" style="stop-color:#000000"/>
			<midPointStop  offset="0" style="stop-color:#E9E9E9"/>
			<midPointStop  offset="0.5" style="stop-color:#E9E9E9"/>
			<midPointStop  offset="1" style="stop-color:#000000"/>
		</radialGradient>
		<circle style="fill:url(#XMLID_16_);stroke:#000000;" cx="20.994" cy="57.439" r="5.834"/> 
		<path style="fill:#D6D6D6;stroke:#000000;" d="M20.806,99.627v12.516h13.828v-2.719c0,0-10.717,0.703-11.062-9.328
			c-0.012-0.34-0.023-0.469-0.023-0.469H20.806z"/>
		<g>
			<path style="fill:#D6D6D6;stroke:#000000;" d="M2.29,69.93v12.516h13.828v-2.719c0,0-10.717,0.703-11.062-9.328
				c-0.012-0.34-0.023-0.469-0.023-0.469H2.29z"/>
			<circle style="fill:#B4B4B4;stroke:#000000;" cx="5.23" cy="70.262" r="1.326"/> 
		</g>
		<g>
			<path style="fill:#D6D6D6;stroke:#000000;" d="M12.583,52.287v12.516h13.828v-2.719c0,0-10.717,0.703-11.062-9.328
				c-0.012-0.34-0.023-0.469-0.023-0.469H12.583z"/>
			<circle style="fill:#B4B4B4;stroke:#000000;" cx="15.522" cy="52.619" r="1.326"/> 
		</g>
	</g>
</svg>
