<?xml version="1.0" encoding="iso-8859-1"?>
<!-- Generator: Adobe Illustrator 11 Build 196, SVG Export Plug-In . SVG Version: 6.0.0 Build 78)  -->
<!DOCTYPE svg PUBLIC "-//W3C//DTD SVG 1.0//EN"    "http://www.w3.org/TR/2001/REC-SVG-20010904/DTD/svg10.dtd" [
	<!ENTITY ns_flows "http://ns.adobe.com/Flows/1.0/">
	<!ENTITY ns_svg "http://www.w3.org/2000/svg">
	<!ENTITY ns_xlink "http://www.w3.org/1999/xlink">
]>
<svg  
	 width="134.054" height="91.621" viewBox="0 0 134.054 91.621" style="overflow:visible;enable-background:new 0 0 134.054 91.621"
	 xml:space="preserve">
	<g id="Layer_1">
		<g>
			<path style="fill:#DCDCDC;stroke:#000000;stroke-width:0.5;" d="M23.2,7.661H0.25v79.649h0.028
				c0.241,2.256,5.241,4.06,11.39,4.06c6.15,0,11.149-1.804,11.391-4.06H23.2V7.661z"/>
			<ellipse style="fill:#DCDCDC;stroke:#000000;stroke-width:0.5;" cx="11.725" cy="7.661" rx="11.413" ry="4.229"/> 
		</g>
		<g>
			<polygon style="fill:#DCDCDC;stroke:#000000;stroke-width:0.5;" points="25.065,6.311 18.166,12.611 126.765,84.311 
				133.665,77.111 "/>
			<path style="fill:#DCDCDC;stroke:#000000;stroke-width:0.5;" d="M29.865,15.011c-1.083,1.029-2.466,1.334-3.09,0.682
				c-0.624-0.652-0.252-2.015,0.831-3.043c1.083-1.029,2.467-1.334,3.091-0.682S30.948,13.982,29.865,15.011z"/>
		</g>
		<circle style="stroke:#000000;" cx="85.553" cy="51.311" r="2.52"/> 
		<g>
			<line style="stroke:#000000;" x1="82.121" y1="48.779" x2="34.421" y2="17.28"/>
			<path d="M32.155,15.783c1.328,0.309,3.097,0.507,4.389,0.334l-1.825,1.359l-0.533,2.212
				C33.838,18.432,32.96,16.883,32.155,15.783z"/>
		</g>
		<g>
			<path style="fill:none;stroke:#000000;" d="M108.84,69.761c2.475-1.575,2.7-0.9,2.7-0.9l-19.8-13.95"/>
			<path d="M89.52,53.348c1.317,0.35,3.08,0.603,4.376,0.47l-1.866,1.302l-0.602,2.194C91.119,56.047,90.29,54.472,89.52,53.348z"/>
		</g>
		<path style="fill:#DCDCDC;stroke:#000000;stroke-width:0.5;" d="M24.766,22.511c-8.539-13.059,48.6,76.5,84.599,53.4
			c2.7-3.9,3.6-4.5,3.6-4.5s-6.6,2.7-6-3.6s-2.7,1.2-5.1,2.7c-17.605,11.003-68.699-38.4-69-46.2
			C32.565,16.511,29.865,30.311,24.766,22.511z"/>
		<g>
			<path style="fill:none;stroke:#000000;" d="M28.291,19.811v4.05c0,0,51.299,67.049,78.074,48.375"/>
			<path d="M108.592,70.682c-0.777,1.12-1.614,2.69-1.93,3.955l-0.589-2.198l-1.859-1.312
				C105.51,71.268,107.273,71.024,108.592,70.682z"/>
		</g>
		<path d="M18.47,0.721c-15.758-3.765-24,8.221-3.344,12.854c1.317,0.295,2.274-2.43,1.079-2.755
			c-15.204-4.144-5.437-8.656,1.588-7.08C18.232,3.838,18.47,0.721,18.47,0.721z"/>
	</g>
</svg>
