<?xml version="1.0" encoding="iso-8859-1"?>
<!-- Generator: Adobe Illustrator 11 Build 196, SVG Export Plug-In . SVG Version: 6.0.0 Build 78)  -->
<!DOCTYPE svg PUBLIC "-//W3C//DTD SVG 1.0//EN"    "http://www.w3.org/TR/2001/REC-SVG-20010904/DTD/svg10.dtd" [
	<!ENTITY ns_flows "http://ns.adobe.com/Flows/1.0/">
	<!ENTITY ns_svg "http://www.w3.org/2000/svg">
	<!ENTITY ns_xlink "http://www.w3.org/1999/xlink">
]>
<svg  
	 width="149.819" height="338.825" viewBox="0 0 149.819 338.825"
	 style="overflow:visible;enable-background:new 0 0 149.819 338.825" xml:space="preserve">
	<style type="text/css">
	
	</style>
	<g id="Layer_1">
		
			<line style="fill:none;stroke:#000000;stroke-linecap:square;stroke-miterlimit:1;" x1="33.13" y1="282.083" x2="36.93" y2="282.083"/>
		
			<line style="fill:none;stroke:#000000;stroke-linecap:square;stroke-miterlimit:1;" x1="33.13" y1="257.384" x2="36.93" y2="257.384"/>
		
			<line style="fill:none;stroke:#000000;stroke-linecap:square;stroke-miterlimit:1;" x1="33.13" y1="232.683" x2="36.93" y2="232.683"/>
		
			<line style="fill:none;stroke:#000000;stroke-linecap:square;stroke-miterlimit:1;" x1="54.98" y1="307.733" x2="54.98" y2="311.533"/>
		
			<line style="fill:none;stroke:#000000;stroke-linecap:square;stroke-miterlimit:1;" x1="95.83" y1="307.733" x2="95.83" y2="311.533"/>
		
			<line style="fill:none;stroke:#000000;stroke-linecap:square;stroke-miterlimit:1;" x1="137.63" y1="307.733" x2="137.63" y2="311.533"/>
		<g>
			<text transform="matrix(1 0 0 1 19.3552 285.4084)"><tspan x="0" y="0" style="font-family:Liberation Sans; font-size:7.650000;">-5</tspan></text>
		</g>
		<g>
			<text transform="matrix(1 0 0 1 24.1052 260.7083)"><tspan x="0" y="0" style="font-family:Liberation Sans; font-size:7.650000;">0</tspan></text>
		</g>
		<g>
			<text transform="matrix(1 0 0 1 24.1052 236.0085)"><tspan x="0" y="0" style="font-family:Liberation Sans; font-size:7.650000;">5</tspan></text>
		</g>
		<g>
			<text transform="matrix(1 0 0 1 46.905 323.4084)"><tspan x="0" y="0" style="font-family:Liberation Sans; font-size:7.650000;">0.5</tspan></text>
		</g>
		<g>
			<text transform="matrix(1 0 0 1 92.5051 323.4084)"><tspan x="0" y="0" style="font-family:Liberation Sans; font-size:7.650000;">1</tspan></text>
		</g>
		<g>
			<text transform="matrix(1 0 0 1 129.5549 323.4084)"><tspan x="0" y="0" style="font-family:Liberation Sans; font-size:7.650000;">1.5</tspan></text>
		</g>
		<g>
			<text transform="matrix(1 0 0 1 78.2551 334.8083)"><tspan x="0" y="0" style="font-family:Liberation Sans; font-size:7.650000;">t (s)</tspan></text>
		</g>
		<g>
			<text transform="matrix(0 -1 1 0 9.0002 275.3201)"><tspan x="0" y="0" style="font-family:Liberation Sans; font-size:7.650000;">v (m/s)</tspan></text>
		</g>
		<line style="fill:none;stroke:#000000;stroke-miterlimit:1;" x1="38.355" y1="229.042" x2="137.788" y2="285.408"/>
		
			<line style="fill:none;stroke:#000000;stroke-linecap:square;stroke-miterlimit:1;" x1="33.455" y1="168.863" x2="37.255" y2="168.863"/>
		
			<line style="fill:none;stroke:#000000;stroke-linecap:square;stroke-miterlimit:1;" x1="33.455" y1="128.963" x2="37.255" y2="128.963"/>
		<g>
			<text transform="matrix(1 0 0 1 24.4304 172.1882)"><tspan x="0" y="0" style="font-family:Liberation Sans; font-size:7.650000;">1</tspan></text>
		</g>
		<g>
			<text transform="matrix(1 0 0 1 24.4304 132.2883)"><tspan x="0" y="0" style="font-family:Liberation Sans; font-size:7.650000;">2</tspan></text>
		</g>
		<g>
			<text transform="matrix(0 -1 1 0 10.1614 170.0798)"><tspan x="0" y="0" style="font-family:Liberation Sans; font-size:7.650000;">x (m)</tspan></text>
		</g>
		<path style="fill:none;stroke:#000000;stroke-linecap:square;stroke-miterlimit:1;" d="M38.028,195.629
			c33.333-96.667,61.979-96.146,99.312-0.812"/>
		
			<line style="fill:none;stroke:#000000;stroke-width:0.5;stroke-linecap:square;stroke-miterlimit:1;" x1="37.653" y1="257.316" x2="137.278" y2="257.316"/>
		
			<rect x="37.59" y="112.754" style="fill:none;stroke:#000000;stroke-width:0.5;stroke-linecap:square;stroke-miterlimit:1;" width="100.04" height="194.979"/> 
		
			<line style="fill:none;stroke:#000000;stroke-width:0.5;stroke-linecap:square;stroke-miterlimit:1;" x1="38.09" y1="209.254" x2="137.59" y2="209.254"/>
		
			<linearGradient id="XMLID_3_" gradientUnits="userSpaceOnUse" x1="214.1028" y1="61.8787" x2="214.1028" y2="51.2537" gradientTransform="matrix(-0.9 0 0 -0.9 324.5818 106.6177)">
			<stop  offset="0" style="stop-color:#E4E4E4"/>
			<stop  offset="0.0181" style="stop-color:#E2E2E2"/>
			<stop  offset="0.309" style="stop-color:#CCCCCC"/>
			<stop  offset="0.579" style="stop-color:#BABABA"/>
			<stop  offset="0.8176" style="stop-color:#AFAFAF"/>
			<stop  offset="1" style="stop-color:#ABABAB"/>
			<midPointStop  offset="0" style="stop-color:#E4E4E4"/>
			<midPointStop  offset="0.35" style="stop-color:#E4E4E4"/>
			<midPointStop  offset="1" style="stop-color:#ABABAB"/>
		</linearGradient>
		<path style="fill:url(#XMLID_3_);" d="M134.865,53.534c0-1.643-1.332-2.975-2.975-2.975s-2.975,1.332-2.975,2.975v6.9h5.919
			v-6.589C134.844,53.742,134.865,53.641,134.865,53.534z"/>
		
			<linearGradient id="XMLID_4_" gradientUnits="userSpaceOnUse" x1="214.1023" y1="61.8787" x2="214.1023" y2="51.2537" gradientTransform="matrix(0.9 0 0 0.9 -144.9888 14.9999)">
			<stop  offset="0" style="stop-color:#E4E4E4"/>
			<stop  offset="0.0181" style="stop-color:#E2E2E2"/>
			<stop  offset="0.309" style="stop-color:#CCCCCC"/>
			<stop  offset="0.579" style="stop-color:#BABABA"/>
			<stop  offset="0.8176" style="stop-color:#AFAFAF"/>
			<stop  offset="1" style="stop-color:#ABABAB"/>
			<midPointStop  offset="0" style="stop-color:#E4E4E4"/>
			<midPointStop  offset="0.35" style="stop-color:#E4E4E4"/>
			<midPointStop  offset="1" style="stop-color:#ABABAB"/>
		</linearGradient>
		<path style="fill:url(#XMLID_4_);" d="M44.728,68.084c0,1.643,1.332,2.975,2.975,2.975s2.975-1.332,2.975-2.975v-6.9H44.76v6.588
			C44.749,67.876,44.728,67.977,44.728,68.084z"/>
		<path d="M27.382,66.433c3.701,1.938,7.135,4.49,9.78,7.738l0.255,0.417c0.116,0.22,0.371,0.348,0.626,0.29l0.29-0.07
			c0.127-0.023,0.232-0.104,0.313-0.208l0.185-0.255c2.216-2.355,4.397-5.151,7.738-5.812c0.291-0.081,0.464-0.383,0.383-0.685
			c-0.081-0.29-0.383-0.464-0.684-0.383c-3.388,0.615-5.673,3.376-7.913,5.743l-0.603,0.731l0.325-0.208l-0.29,0.058l0.568,0.208
			l-0.325-0.522c-2.75-3.388-6.334-6.033-10.186-8.063c-0.278-0.128-0.604,0-0.743,0.278C26.976,65.969,27.104,66.294,27.382,66.433
			L27.382,66.433z"/>
		<path d="M29.281,62.863c-1.392-0.29-2.784-0.568-4.177-0.87l-0.696-0.197l0.371,0.267l-0.174-0.313
			c-1.845-2.599-0.499-5.975,2.135-7.379c1.311-0.696,2.75-1.636,4.188-1.16c2.935,0.963,4.188,4.2,5.023,6.972l0.128,0.499
			l0.487-0.708l-0.058,0.047c-1.137-0.406-2.216-1.114-3.458-1.137H32.82c-0.023,0-0.046,0-0.058,0
			c-0.313,0.035-0.534,0.313-0.499,0.615l0.07,0.453c0.302,1.079,0.882,2.552-0.035,3.341c-1.334,1.137-2.808-0.36-4.014-1.125
			c-0.267-0.139-0.603-0.046-0.754,0.232c-0.15,0.267-0.046,0.604,0.221,0.754c1.601,1.276,4.281,2.761,5.754,0.406
			c0.696-1.09,0.267-2.413,0.023-3.585l-0.162-0.591l-0.557,0.615l0.604,0.023c-0.012,0-0.012,0-0.023,0
			c0.847,0.197,1.636,0.545,2.413,0.939l0.87,0.116c0.023,0,0.035,0,0.058-0.012c0.302-0.058,0.499-0.348,0.441-0.65l-0.139-0.545
			c0,0.012,0,0.023,0,0.035c-0.94-3.179-2.622-6.764-5.998-7.901c-3.086-0.081-6.114,1.59-7.68,4.327
			c-0.998,1.729-0.986,3.817,0.058,5.523l0.406,0.766c0.058,0.093,0.14,0.162,0.232,0.22l0.58,0.197
			c-0.023-0.012-0.035-0.012-0.058-0.023c1.485,0.336,2.981,0.626,4.478,0.939c0.302,0.07,0.592-0.127,0.661-0.429
			C29.768,63.223,29.583,62.933,29.281,62.863L29.281,62.863z"/>
		<path d="M30.466,56.817c0,0.313,0.244,0.557,0.557,0.557c0.313,0,0.557-0.244,0.557-0.557s-0.244-0.557-0.557-0.557
			C30.709,56.26,30.466,56.504,30.466,56.817L30.466,56.817z"/>
		<path d="M27.174,64.182c1.237,4.827,2.073,9.807,1.81,14.773c-0.417,7.966-0.433,15.917-2.042,23.744l-0.046,0.789
			c0,0.278,0.186,0.511,0.448,0.557l0.619,0.124c2.243,0,4.486,0,6.729,0c0.31,0,0.557-0.248,0.557-0.557
			c0-0.31-0.248-0.557-0.557-0.557c-1.949,0-3.898,0-5.847,0l-1.284-0.093l0.449,0.542l-0.046-0.696
			c1.902-7.843,1.655-15.871,2.119-23.884c0.309-5.058-0.572-10.163-1.856-15.082c-0.077-0.294-0.402-0.448-0.696-0.355
			C27.236,63.563,27.081,63.888,27.174,64.182L27.174,64.182z"/>
		<path d="M29.649,81.384c1.825,6.249,4.424,12.499,4.192,19.104l-0.016,0.711c0,0.217,0.124,0.418,0.325,0.511l0.588,0.232
			c1.903-0.248,3.79,0.557,5.631,0c0.31-0.046,0.526-0.325,0.479-0.634c-0.031-0.294-0.325-0.51-0.619-0.479
			c-1.655,0.511-3.326-0.201-5.012,0.016l-0.588-0.139l0.31,0.51l0.016-0.681v0.016c0.263-6.729-2.397-13.179-4.254-19.552
			c-0.108-0.294-0.433-0.434-0.727-0.325C29.695,80.78,29.54,81.105,29.649,81.384L29.649,81.384z"/>
		<ellipse style="fill:none;stroke:#000000;" cx="30.592" cy="57.037" rx="1.4" ry="1.05"/> 
		<circle cx="47.703" cy="60.728" r="2.975"/> 
		<path d="M73.59,62.754c-1.397,0.266-2.79,0.543-4.191,0.798l-0.719,0.085l0.445,0.104l-0.281-0.222
			c-2.7-1.693-2.752-5.327-0.858-7.633c0.944-1.146,1.912-2.565,3.423-2.677c3.08-0.236,5.479,2.273,7.313,4.513l0.31,0.412
			l0.178-0.84l-0.036,0.065c-1.206,0.061-2.474-0.179-3.629,0.276l-0.214,0.089c-0.021,0.009-0.042,0.018-0.053,0.022
			c-0.276,0.152-0.373,0.494-0.225,0.759l0.238,0.391c0.692,0.881,1.793,2.019,1.249,3.099c-0.796,1.562-2.73,0.745-4.139,0.5
			c-0.3-0.026-0.575,0.188-0.607,0.503c-0.037,0.304,0.188,0.575,0.493,0.612c1.968,0.564,5.013,0.908,5.47-1.832
			c0.225-1.274-0.679-2.331-1.354-3.32l-0.377-0.484l-0.278,0.781l0.566-0.21c-0.011,0.004-0.011,0.004-0.021,0.009
			c0.857-0.143,1.72-0.124,2.589-0.057l0.848-0.227c0.021-0.009,0.032-0.014,0.049-0.033c0.256-0.169,0.327-0.513,0.158-0.769
			l-0.338-0.45c0.004,0.011,0.009,0.021,0.014,0.032c-2.087-2.575-5.016-5.241-8.569-4.997c-2.881,1.109-5.037,3.813-5.434,6.942
			c-0.258,1.979,0.553,3.903,2.171,5.078l0.668,0.552c0.089,0.063,0.191,0.097,0.299,0.114l0.611-0.04
			c-0.026-0.002-0.037,0.002-0.062,0.001c1.5-0.259,2.994-0.565,4.496-0.85c0.306-0.051,0.498-0.345,0.446-0.65
			C74.178,62.899,73.895,62.702,73.59,62.754L73.59,62.754z"/>
		<path d="M72.396,56.822c0.12,0.289,0.438,0.421,0.728,0.301c0.289-0.12,0.421-0.438,0.301-0.728s-0.439-0.421-0.728-0.301
			C72.407,56.214,72.276,56.533,72.396,56.822L72.396,56.822z"/>
		<path d="M69.709,64.182c1.237,4.827,2.073,9.807,1.81,14.773c-0.417,7.966-0.433,15.917-2.042,23.744l-0.046,0.789
			c0,0.278,0.186,0.511,0.448,0.557l0.619,0.124c2.243,0,4.486,0,6.729,0c0.31,0,0.557-0.248,0.557-0.557
			c0-0.31-0.248-0.557-0.557-0.557c-1.949,0-3.898,0-5.847,0l-1.284-0.093l0.449,0.542l-0.047-0.696
			c1.903-7.843,1.655-15.871,2.12-23.884c0.309-5.058-0.573-10.163-1.856-15.082c-0.077-0.294-0.402-0.448-0.696-0.355
			C69.77,63.563,69.616,63.888,69.709,64.182L69.709,64.182z"/>
		<path d="M72.184,81.384c1.825,6.249,4.424,12.499,4.192,19.104l-0.016,0.711c0,0.217,0.124,0.418,0.325,0.511l0.587,0.232
			c1.903-0.248,3.79,0.557,5.631,0c0.309-0.046,0.526-0.325,0.479-0.634c-0.031-0.294-0.325-0.51-0.619-0.479
			c-1.655,0.511-3.326-0.201-5.012,0.016l-0.587-0.139l0.309,0.51l0.016-0.681v0.016c0.263-6.729-2.398-13.179-4.254-19.552
			c-0.108-0.294-0.433-0.434-0.727-0.325C72.23,80.78,72.075,81.105,72.184,81.384L72.184,81.384z"/>
		
			<ellipse transform="matrix(0.3836 0.9235 -0.9235 0.3836 97.2475 -31.961)" style="fill:none;stroke:#000000;" cx="72.567" cy="56.87" rx="1.05" ry="1.4"/> 
		<circle cx="87.069" cy="25.193" r="2.975"/> 
		<path d="M113.466,62.863c-1.393-0.29-2.785-0.568-4.177-0.87l-0.696-0.197l0.372,0.267l-0.174-0.313
			c-1.845-2.599-0.499-5.975,2.135-7.379c1.311-0.696,2.75-1.636,4.188-1.16c2.935,0.963,4.188,4.2,5.023,6.972l0.128,0.499
			l0.487-0.708l-0.058,0.047c-1.137-0.406-2.216-1.114-3.457-1.137h-0.232c-0.023,0-0.046,0-0.058,0
			c-0.313,0.035-0.534,0.313-0.499,0.615l0.069,0.453c0.302,1.079,0.882,2.552-0.035,3.341c-1.334,1.137-2.808-0.36-4.014-1.125
			c-0.267-0.139-0.603-0.046-0.754,0.232c-0.151,0.267-0.046,0.604,0.22,0.754c1.601,1.276,4.281,2.761,5.754,0.406
			c0.696-1.09,0.267-2.413,0.023-3.585l-0.163-0.591l-0.557,0.615l0.604,0.023c-0.012,0-0.012,0-0.023,0
			c0.847,0.197,1.636,0.545,2.413,0.939l0.87,0.116c0.023,0,0.035,0,0.058-0.012c0.302-0.058,0.499-0.348,0.441-0.65l-0.139-0.545
			c0,0.012,0,0.023,0,0.035c-0.94-3.179-2.622-6.764-5.998-7.901c-3.086-0.081-6.114,1.59-7.68,4.327
			c-0.998,1.729-0.986,3.817,0.058,5.523l0.406,0.766c0.058,0.093,0.139,0.162,0.232,0.22l0.58,0.197
			c-0.023-0.012-0.035-0.012-0.058-0.023c1.485,0.336,2.981,0.626,4.478,0.939c0.302,0.07,0.592-0.127,0.662-0.429
			C113.953,63.223,113.767,62.933,113.466,62.863L113.466,62.863z"/>
		<path d="M114.607,57.206c0,0.313,0.244,0.557,0.557,0.557c0.313,0,0.557-0.244,0.557-0.557s-0.244-0.557-0.557-0.557
			C114.85,56.649,114.607,56.892,114.607,57.206L114.607,57.206z"/>
		<path d="M111.358,64.182c1.237,4.827,2.073,9.807,1.81,14.773c-0.418,7.966-0.433,15.917-2.042,23.744l-0.046,0.789
			c0,0.278,0.186,0.511,0.448,0.557l0.619,0.124c2.243,0,4.486,0,6.729,0c0.309,0,0.557-0.248,0.557-0.557
			c0-0.31-0.248-0.557-0.557-0.557c-1.949,0-3.898,0-5.848,0l-1.284-0.093l0.449,0.542l-0.046-0.696
			c1.902-7.843,1.655-15.871,2.119-23.884c0.309-5.058-0.572-10.163-1.856-15.082c-0.077-0.294-0.402-0.448-0.696-0.355
			C111.42,63.563,111.265,63.888,111.358,64.182L111.358,64.182z"/>
		<path d="M113.833,81.384c1.825,6.249,4.424,12.499,4.192,19.104l-0.015,0.711c0,0.217,0.124,0.418,0.325,0.511l0.588,0.232
			c1.902-0.248,3.79,0.557,5.63,0c0.31-0.046,0.526-0.325,0.479-0.634c-0.031-0.294-0.325-0.51-0.619-0.479
			c-1.655,0.511-3.326-0.201-5.012,0.016l-0.588-0.139l0.31,0.51l0.015-0.681v0.016c0.263-6.729-2.397-13.179-4.254-19.552
			c-0.108-0.294-0.433-0.434-0.727-0.325C113.88,80.78,113.725,81.105,113.833,81.384L113.833,81.384z"/>
		<ellipse style="fill:none;stroke:#000000;" cx="114.777" cy="57.037" rx="1.4" ry="1.05"/> 
		<circle cx="131.889" cy="60.248" r="2.975"/> 
		<path d="M72.311,69.942c3.217-0.495,6.543-1.083,9.745-0.263l0.402,0.031c0.201,0.016,0.387-0.093,0.495-0.263l0.263-0.464
			c0.944-2.475,1.655-5.027,2.815-7.41c0.124-0.278,0-0.604-0.278-0.727s-0.619,0-0.743,0.278c-1.036,2.228-1.686,4.61-2.676,6.853
			l-0.31,0.881l0.495-0.263l-0.634-0.108c-3.249-0.619-6.59-0.201-9.823,0.371c-0.294,0.062-0.479,0.356-0.417,0.665
			C71.708,69.818,72.002,70.003,72.311,69.942L72.311,69.942z"/>
		<path d="M112.19,67.049c-1.114,3.914-0.325,8.152-2.305,11.818l-0.093,0.155c-0.093,0.17-0.093,0.371,0,0.542l0.155,0.278
			c0.062,0.093,0.155,0.17,0.248,0.217l0.278,0.093c1.47,1.376,3.063,2.661,4.208,4.347c0.186,0.247,0.542,0.309,0.789,0.124
			s0.294-0.526,0.124-0.773c-1.083-1.562-2.491-2.815-3.898-4.068l-1.021-0.727l0.248,0.232l-0.155-0.278v0.542l0.356-0.882
			c0,0.016,0,0.031,0,0.047c1.794-3.512,1.067-7.564,2.119-11.292c0.108-0.294-0.046-0.603-0.34-0.711S112.298,66.755,112.19,67.049
			L112.19,67.049z"/>
		<line style="fill:none;stroke:#000000;stroke-dasharray:2;" x1="87.069" y1="59.828" x2="87.069" y2="29.903"/>
		<path style="fill:none;stroke:#000000;stroke-dasharray:2;" d="M129.573,54.878c0,0,0-21.262,0-25.425
			c0-4.162,2.025-4.5,2.025-0.225c0,4.275,0,27,0,27"/>
		<g>
			<text transform="matrix(1 0 0 1 33.969 8.9998)"><tspan x="0" y="0" style="font-family:Liberation Sans; font-size:7.650000;">a =</tspan></text>
			<text transform="matrix(1 0 0 1 21.8762 19.9998)"><tspan x="0" y="0" style="font-family:'Symbol'; font-size:9;">&#x2212;</tspan></text>
			<text transform="matrix(1 0 0 1 26.8171 19.9998)"><tspan x="0" y="0" style="font-family:Liberation Sans; font-size:7.650000;">10 m/s</tspan></text>
			<text transform="matrix(1 0 0 1 53.8259 17.9998)"><tspan x="0" y="0" style="font-family:Liberation Sans; font-size:7.650000;">2</tspan></text>
		</g>
		<g>
			<text transform="matrix(1 0 0 1 79.8816 8.9998)"><tspan x="0" y="0" style="font-family:Liberation Sans; font-size:7.650000;">a =</tspan></text>
			<text transform="matrix(1 0 0 1 67.7888 19.9998)"><tspan x="0" y="0" style="font-family:'Symbol'; font-size:9;">&#x2212;</tspan></text>
			<text transform="matrix(1 0 0 1 72.7297 19.9998)"><tspan x="0" y="0" style="font-family:Liberation Sans; font-size:7.650000;">10 m/s</tspan></text>
			<text transform="matrix(1 0 0 1 99.7385 17.9998)"><tspan x="0" y="0" style="font-family:Liberation Sans; font-size:7.650000;">2</tspan></text>
		</g>
		<g>
			<text transform="matrix(1 0 0 1 124.9563 8.9998)"><tspan x="0" y="0" style="font-family:Liberation Sans; font-size:7.650000;">a =</tspan></text>
			<text transform="matrix(1 0 0 1 112.8635 19.9998)"><tspan x="0" y="0" style="font-family:'Symbol'; font-size:9;">&#x2212;</tspan></text>
			<text transform="matrix(1 0 0 1 117.8044 19.9998)"><tspan x="0" y="0" style="font-family:Liberation Sans; font-size:7.650000;">10 m/s</tspan></text>
			<text transform="matrix(1 0 0 1 144.8132 17.9998)"><tspan x="0" y="0" style="font-family:Liberation Sans; font-size:7.650000;">2</tspan></text>
		</g>
		<g>
			<line style="fill:none;stroke:#B4B4B4;stroke-width:6;" x1="49.611" y1="105.108" x2="49.611" y2="121.775"/>
			<polygon style="fill:#B4B4B4;" points="59.293,120.348 49.638,126.447 39.984,120.348 39.984,120.286 59.293,120.286 "/>
			<polygon style="fill:#B4B4B4;" points="39.928,106.534 49.583,100.435 59.238,106.534 59.238,106.596 39.928,106.596 "/>
		</g>
		<g>
			<line style="fill:none;stroke:#B4B4B4;stroke-width:6;" x1="88.924" y1="96.775" x2="88.924" y2="113.441"/>
			<polygon style="fill:#B4B4B4;" points="98.606,112.015 88.951,118.114 79.296,112.015 79.296,111.953 98.606,111.953 "/>
			<polygon style="fill:#B4B4B4;" points="79.241,98.2 88.896,92.102 98.551,98.2 98.551,98.262 79.241,98.262 "/>
		</g>
		<g>
			<line style="fill:none;stroke:#B4B4B4;stroke-width:6;" x1="130.59" y1="105.775" x2="130.59" y2="122.441"/>
			<polygon style="fill:#B4B4B4;" points="140.273,121.015 130.617,127.114 120.963,121.015 120.963,120.953 140.273,120.953 "/>
			<polygon style="fill:#B4B4B4;" points="120.908,107.2 130.562,101.102 140.217,107.2 140.217,107.262 120.908,107.262 "/>
		</g>
	</g>
</svg>
