<?xml version="1.0" encoding="iso-8859-1"?>
<!-- Generator: Adobe Illustrator 11 Build 196, SVG Export Plug-In . SVG Version: 6.0.0 Build 78)  -->
<!DOCTYPE svg PUBLIC "-//W3C//DTD SVG 1.0//EN"    "http://www.w3.org/TR/2001/REC-SVG-20010904/DTD/svg10.dtd" [
	<!ENTITY ns_flows "http://ns.adobe.com/Flows/1.0/">
	<!ENTITY ns_svg "http://www.w3.org/2000/svg">
	<!ENTITY ns_xlink "http://www.w3.org/1999/xlink">
]>
<svg  
	 width="60.146" height="160.893" viewBox="0 0 60.146 160.893" style="overflow:visible;enable-background:new 0 0 60.146 160.893"
	 xml:space="preserve">
	<style type="text/css">
	
	</style>
	<g id="Layer_1">
		<g>
			<text transform="matrix(1 0 0 1 2 18.0002)"><tspan x="0" y="0" style="font-family:Liberation Sans-Bold'; font-size:15.300000;">P</tspan></text>
			<text transform="matrix(1 0 0 1 14.0059 18.0002)"><tspan x="0" y="0" style="font-family:Liberation Sans; font-size:11.900000;">air of</tspan></text>
		</g>
		<g>
			<text transform="matrix(1 0 0 1 1 34.8542)"><tspan x="0" y="0" style="font-family:Liberation Sans-Bold'; font-size:15.300000;">O</tspan></text>
			<text transform="matrix(1 0 0 1 15.001 34.8542)"><tspan x="0" y="0" style="font-family:Liberation Sans; font-size:11.900000;">pposite</tspan></text>
		</g>
		<g>
			<text transform="matrix(1 0 0 1 2 51.7083)"><tspan x="0" y="0" style="font-family:Liberation Sans-Bold'; font-size:15.300000;">F</tspan></text>
			<text transform="matrix(1 0 0 1 12.9951 51.7083)"><tspan x="0" y="0" style="font-family:Liberation Sans; font-size:11.900000;">orces</tspan></text>
		</g>
		<g>
			<text transform="matrix(1 0 0 1 1 68.5627)"><tspan x="0" y="0" style="font-family:Liberation Sans-Bold'; font-size:15.300000;">O</tspan></text>
			<text transform="matrix(1 0 0 1 15.001 68.5627)"><tspan x="0" y="0" style="font-family:Liberation Sans; font-size:11.900000;">f the</tspan></text>
		</g>
		<g>
			<text transform="matrix(1 0 0 1 1 85.4167)"><tspan x="0" y="0" style="font-family:Liberation Sans-Bold'; font-size:15.300000;">S</tspan></text>
			<text transform="matrix(1 0 0 1 13.0059 85.4167)"><tspan x="0" y="0" style="font-family:Liberation Sans; font-size:11.900000;">ame</tspan></text>
		</g>
		<g>
			<text transform="matrix(1 0 0 1 1 102.2708)"><tspan x="0" y="0" style="font-family:Liberation Sans-Bold'; font-size:15.300000;">T</tspan></text>
			<text transform="matrix(1 0 0 1 11.9951 102.2708)"><tspan x="0" y="0" style="font-family:Liberation Sans; font-size:11.900000;">ype</tspan></text>
		</g>
		<g>
			<text transform="matrix(1 0 0 1 3 119.1252)"><tspan x="0" y="0" style="font-family:Liberation Sans-Bold'; font-size:15.300000;">I</tspan></text>
			<text transform="matrix(1 0 0 1 8.001 119.1252)"><tspan x="0" y="0" style="font-family:Liberation Sans; font-size:11.900000;">nvolving</tspan></text>
		</g>
		<g>
			<text transform="matrix(1 0 0 1 1 135.9792)"><tspan x="0" y="0" style="font-family:Liberation Sans-Bold'; font-size:15.300000;">T</tspan></text>
			<text transform="matrix(1 0 0 1 11.9951 135.9792)"><tspan x="0" y="0" style="font-family:Liberation Sans; font-size:11.900000;">wo</tspan></text>
		</g>
		<g>
			<text transform="matrix(1 0 0 1 0 152.8333)"><tspan x="0" y="0" style="font-family:Liberation Sans-Bold'; font-size:15.300000;">O</tspan></text>
			<text transform="matrix(1 0 0 1 14.001 152.8333)"><tspan x="0" y="0" style="font-family:Liberation Sans; font-size:11.900000;">bjects</tspan></text>
		</g>
		<line style="fill:none;stroke:#000000;" x1="1" y1="54.208" x2="55" y2="54.208"/>
		<line style="fill:none;stroke:#000000;" x1="1" y1="105.188" x2="55" y2="105.188"/>
	</g>
</svg>
