<?xml version="1.0" encoding="iso-8859-1"?>
<!-- Generator: Adobe Illustrator 11 Build 196, SVG Export Plug-In . SVG Version: 6.0.0 Build 78)  -->
<!DOCTYPE svg PUBLIC "-//W3C//DTD SVG 1.0//EN"    "http://www.w3.org/TR/2001/REC-SVG-20010904/DTD/svg10.dtd" [
	<!ENTITY ns_flows "http://ns.adobe.com/Flows/1.0/">
	<!ENTITY ns_svg "http://www.w3.org/2000/svg">
	<!ENTITY ns_xlink "http://www.w3.org/1999/xlink">
]>
<svg  
	 width="147.619" height="248.764" viewBox="0 0 147.619 248.764"
	 style="overflow:visible;enable-background:new 0 0 147.619 248.764" xml:space="preserve">
	<style type="text/css">
	
	</style>
	<g id="Layer_1">
		<path style="fill:none;stroke:#000000;stroke-width:0.95;" d="M22.39,38.243c1.254-2.533,2.586-5.621,3.213-6.017
			c0.627-0.396,1.725-0.792,2.743-0.396c1.019,0.396,3.214,1.504,3.214,1.504s2.038,0.871,2.821,1.425
			c0.784,0.555,2.273,1.979,3.527,2.85c1.254,0.871,2.43,2.138,4.703,2.375"/>
		<path style="fill:none;stroke:#000000;stroke-width:0.95;" d="M29.6,43.31l0.157-4.75c0,0,1.803,1.188,3.135,1.742
			c1.333,0.554,2.822,0.316,3.37,0.792c0.549,0.475,3.135,1.425,3.527,1.742"/>
		<path style="fill:none;stroke:#000000;stroke-width:0.95;" d="M36.732,46.793c-2.821,0.317-2.586,0.079-3.997-0.712
			c-1.411-0.792-5.878-4.354-7.445-5.384c-1.568-1.029-3.214-2.533-4.311-3.325s-1.175-0.633-1.175-0.633l-2.195-0.237l-1.332,2.216
			l-0.471,5.542l-0.157,2.455"/>
		<polyline style="fill:none;stroke:#000000;stroke-width:0.95;" points="36.34,51.701 29.757,48.376 26.387,46.951 23.173,45.447 
			21.135,43.389 19.881,42.28 "/>
		<path style="fill:none;stroke:#000000;stroke-width:0.95;" d="M28.581,48.93l-1.411,2.059l-0.94,0.871l-0.47,0.158l-0.235,1.346
			c0,0-0.157,2.058-4.311,2.454s-5.251-1.583-5.643-2.059c-0.392-0.475-0.627-1.82-0.627-1.82l-1.725-3.009l-1.881-2.612
			l-1.333-1.583l-0.627-1.188"/>
		<polyline style="fill:none;stroke:#000000;stroke-width:0.95;" points="21.057,36.501 20.43,33.414 20.117,31.672 20.273,28.743 
			20.352,27.001 20.352,25.576 "/>
		<g>
			<polyline style="fill:none;stroke:#000000;stroke-width:0.95;" points="21.003,26.719 22.847,24.679 24.493,22.938 
				26.687,20.087 28.96,17.396 30.528,15.496 32.252,13.279 33.819,11.221 35.309,9.4 36.406,8.133 37.033,5.679 37.582,4.017 
				37.189,3.304 36.014,4.492 35.779,5.205 "/>
			<polyline style="fill:none;stroke:#000000;stroke-width:0.95;" points="36.484,3.067 36.719,1.958 36.406,1.483 35.544,2.354 
				35.152,4.017 "/>
			<path style="fill:none;stroke:#000000;stroke-width:0.95;" d="M34.995,1.562l-0.079-0.95L34.29,0.534l-0.078,1.108l-0.313,1.9
				c0,0-0.47,1.346-0.549,1.742c-0.078,0.396-0.313,1.267-0.548,1.9c-0.235,0.633-1.254,2.058-1.725,2.691s-1.097,1.583-4.232,4.434
				c-3.135,2.85-3.841,4.671-4.703,5.779c-0.623,0.8-1.98,2.302-3.453,3.373"/>
		</g>
		<path style="fill:none;stroke:#000000;stroke-width:0.95;" d="M17.765,21.776c-1.567-1.742-2.508-2.613-3.762-2.771
			c-1.254-0.158-2.508,0.396-3.057,0.95c-0.549,0.554-1.725,1.741-1.254,4.275c0.471,2.533-0.078,1.9-0.078,1.9l-0.94,1.029
			l-0.157,2.375l0.784,0.396l1.567-1.267"/>
		<polyline style="fill:none;stroke:#000000;stroke-width:0.475;" points="16.59,22.251 14.708,23.28 13.847,24.785 13.219,26.685 
			12.044,25.734 11.26,24.943 10.555,25.497 10.947,27.001 12.357,27.555 "/>
		<path style="fill:none;stroke:#000000;stroke-width:0.95;" d="M18,22.093c0,0.792,0.078,2.534,0.078,2.534L18,25.418l0.94,1.583
			l-0.706,0.475l-0.157,0.871l0.235,1.267l-0.627,0.792l-1.489,0.079l-0.706,0.317l0.079,0.95"/>
		<path style="fill:none;stroke:#000000;stroke-width:0.95;" d="M8.047,30.564c-0.47,0.792-0.784,1.741-0.784,2.137
			s-0.235,2.375-0.235,2.375"/>
		<path style="fill:none;stroke:#000000;stroke-width:0.475;" d="M10.555,31.593c1.567,0.712,2.508,2.138,3.135,3.246"/>
		<path style="fill:none;stroke:#000000;stroke-width:0.95;" d="M11.887,35.551c-0.47,0.792-1.019,1.979-1.019,1.979l-0.862,1.979
			l-0.392,2.534l-0.94,2.137l-1.803,1.583l-2.194,0.079l-1.646-1.504l0.078-1.979l0.313-1.742l0.706-0.95l0.157-1.188l0.627-1.267
			l1.019-1.188l0.548,0.079l0.392,0.792l-0.784,0.95l-0.392,0.554h0.627l0.549,0.079l0.862,0.237l0.235,0.95H7.185l-1.019,0.079
			l1.725,0.792l0.627,0.238L8.36,41.331l-0.157,0.316v0.396"/>
		<path style="fill:none;stroke:#000000;stroke-width:0.95;" d="M48.645,34.839l-3.057,2.454c0,0-3.448,3.246-4.624,4.275
			s-3.057,2.454-3.84,4.354s-1.567,4.909-0.079,5.462c1.489,0.555,3.213,0.713,3.762-0.079c0.549-0.792,1.881-1.821,1.881-1.821"/>
		<path style="fill:none;stroke:#000000;stroke-width:0.95;" d="M46.764,35.234c0,0,0.313-1.821,1.097-1.821
			s1.411,0.633,1.489,1.346c0.078,0.713,0.078,2.771,0.078,2.771v0.792"/>
		<path style="fill:none;stroke:#000000;stroke-width:0.95;" d="M49.194,42.28l-0.313,1.425l-0.862,1.029
			c0,0-2.273,2.137-3.292,2.929"/>
		
			<ellipse transform="matrix(-0.1025 0.9947 -0.9947 -0.1025 91.5812 2.0956)" style="fill:none;stroke:#000000;stroke-width:0.95;" cx="44.845" cy="42.361" rx="0.672" ry="1.164"/> 
		
			<ellipse transform="matrix(-0.1025 0.9947 -0.9947 -0.1025 92.7696 -10.7)" style="fill:none;stroke:#000000;stroke-width:0.95;" cx="51.212" cy="36.501" rx="0.672" ry="1.164"/> 
		<path style="fill:none;stroke:#000000;stroke-width:0.95;" d="M50.005,44.05c-0.326,0.086-0.554,0.27-0.578,0.503
			c-0.038,0.369,0.45,0.723,1.089,0.79s1.188-0.177,1.227-0.546c0.027-0.267-0.219-0.525-0.598-0.673"/>
		<path style="fill:none;stroke:#000000;stroke-width:0.95;" d="M43.708,50.37c-0.51,0.02-0.91,0.243-0.942,0.556
			c-0.038,0.369,0.449,0.723,1.088,0.79s1.188-0.177,1.227-0.546c0.026-0.256-0.201-0.505-0.557-0.656"/>
		<path style="fill:none;stroke:#000000;stroke-width:0.95;" d="M22.39,102.873c1.254-2.533,2.586-5.621,3.213-6.016
			c0.627-0.396,1.725-0.792,2.743-0.396c1.019,0.396,3.214,1.504,3.214,1.504s2.038,0.871,2.821,1.425s2.273,1.979,3.527,2.85
			c1.254,0.871,2.43,2.137,4.703,2.375"/>
		<path style="fill:none;stroke:#000000;stroke-width:0.95;" d="M29.6,107.939l0.157-4.75c0,0,1.803,1.188,3.135,1.742
			c1.333,0.554,2.822,0.316,3.37,0.792c0.549,0.475,3.135,1.425,3.527,1.742"/>
		<path style="fill:none;stroke:#000000;stroke-width:0.95;" d="M36.732,111.423c-2.821,0.317-2.586,0.079-3.997-0.712
			s-5.878-4.354-7.445-5.383c-1.568-1.029-3.214-2.533-4.311-3.325c-1.097-0.792-1.175-0.633-1.175-0.633l-2.195-0.237l-1.332,2.216
			l-0.471,5.542l-0.157,2.454"/>
		<polyline style="fill:none;stroke:#000000;stroke-width:0.95;" points="36.34,116.331 29.757,113.006 26.387,111.581 
			23.173,110.077 21.135,108.019 19.881,106.91 "/>
		<path style="fill:none;stroke:#000000;stroke-width:0.95;" d="M28.581,113.561l-1.411,2.058l-0.94,0.871l-0.47,0.158l-0.235,1.346
			c0,0-0.157,2.059-4.311,2.454c-4.154,0.396-5.251-1.583-5.643-2.058c-0.392-0.475-0.627-1.821-0.627-1.821l-1.725-3.008
			l-1.881-2.613l-1.333-1.583l-0.627-1.188"/>
		<polyline style="fill:none;stroke:#000000;stroke-width:0.95;" points="21.057,101.131 20.43,98.044 20.117,96.302 20.273,93.373 
			20.352,91.631 20.352,90.206 "/>
		<path style="fill:none;stroke:#000000;stroke-width:0.95;" d="M17.765,86.406c-1.567-1.742-2.508-2.613-3.762-2.771
			c-1.254-0.158-2.508,0.396-3.057,0.95c-0.549,0.554-1.725,1.742-1.254,4.275c0.471,2.533-0.078,1.9-0.078,1.9l-0.94,1.029
			l-0.157,2.375l0.784,0.396l1.567-1.267"/>
		<polyline style="fill:none;stroke:#000000;stroke-width:0.475;" points="16.59,86.881 14.708,87.91 13.847,89.415 13.219,91.314 
			12.044,90.365 11.26,89.573 10.555,90.127 10.947,91.631 12.357,92.186 "/>
		<path style="fill:none;stroke:#000000;stroke-width:0.95;" d="M18,86.723c0,0.792,0.078,2.534,0.078,2.534L18,90.048l0.94,1.583
			l-0.706,0.475l-0.157,0.871l0.235,1.267l-0.627,0.792l-1.489,0.08l-0.706,0.316l0.079,0.95"/>
		<path style="fill:none;stroke:#000000;stroke-width:0.95;" d="M8.047,95.194c-0.47,0.792-0.784,1.742-0.784,2.137
			c0,0.396-0.235,2.375-0.235,2.375"/>
		<path style="fill:none;stroke:#000000;stroke-width:0.475;" d="M10.555,96.223c1.567,0.713,2.508,2.138,3.135,3.246"/>
		<path style="fill:none;stroke:#000000;stroke-width:0.95;" d="M11.887,100.181c-0.47,0.792-1.019,1.979-1.019,1.979l-0.862,1.979
			l-0.392,2.533l-0.94,2.138l-1.803,1.583l-2.194,0.079l-1.646-1.504l0.078-1.979l0.313-1.742l0.706-0.95l0.157-1.188l0.627-1.267
			l1.019-1.188l0.548,0.079l0.392,0.792l-0.784,0.95l-0.392,0.554h0.627l0.549,0.079l0.862,0.237l0.235,0.95H7.185l-1.019,0.079
			l1.725,0.792l0.627,0.237L8.36,105.96l-0.157,0.316v0.396"/>
		<path style="fill:none;stroke:#000000;stroke-width:0.95;" d="M48.645,99.469l-3.057,2.454c0,0-3.448,3.246-4.624,4.275
			c-1.176,1.029-3.057,2.454-3.84,4.354c-0.784,1.9-1.567,4.908-0.079,5.462c1.489,0.554,3.213,0.712,3.762-0.079
			c0.549-0.792,1.881-1.821,1.881-1.821"/>
		<path style="fill:none;stroke:#000000;stroke-width:0.95;" d="M46.764,99.865c0,0,0.313-1.821,1.097-1.821
			s1.411,0.633,1.489,1.346s0.078,2.771,0.078,2.771v0.792"/>
		<path style="fill:none;stroke:#000000;stroke-width:0.95;" d="M49.194,106.91l-0.313,1.425l-0.862,1.029
			c0,0-2.273,2.137-3.292,2.929"/>
		
			<ellipse transform="matrix(-0.1025 0.9947 -0.9947 -0.1025 155.8705 73.3518)" style="fill:none;stroke:#000000;stroke-width:0.95;" cx="44.845" cy="106.991" rx="0.672" ry="1.164"/> 
		
			<ellipse transform="matrix(-0.1025 0.9947 -0.9947 -0.1025 157.0592 60.5538)" style="fill:none;stroke:#000000;stroke-width:0.95;" cx="51.212" cy="101.131" rx="0.672" ry="1.164"/> 
		<path style="fill:none;stroke:#000000;stroke-width:0.95;" d="M50.005,108.68c-0.326,0.086-0.554,0.27-0.578,0.503
			c-0.038,0.369,0.45,0.723,1.089,0.79s1.188-0.177,1.227-0.546c0.027-0.267-0.219-0.524-0.598-0.673"/>
		<path style="fill:none;stroke:#000000;stroke-width:0.95;" d="M43.708,115c-0.51,0.02-0.91,0.243-0.942,0.556
			c-0.038,0.369,0.449,0.723,1.088,0.79s1.188-0.177,1.227-0.546c0.026-0.257-0.201-0.506-0.557-0.656"/>
		<path style="fill:none;stroke:#000000;stroke-width:0.95;" d="M22.39,167.503c1.254-2.533,2.586-5.621,3.213-6.017
			c0.627-0.396,1.725-0.792,2.743-0.396c1.019,0.396,3.214,1.504,3.214,1.504s2.038,0.871,2.821,1.425s2.273,1.979,3.527,2.85
			c1.254,0.871,2.43,2.137,4.703,2.375"/>
		<path style="fill:none;stroke:#000000;stroke-width:0.95;" d="M29.6,172.569l0.157-4.75c0,0,1.803,1.188,3.135,1.742
			c1.333,0.554,2.822,0.317,3.37,0.792c0.549,0.475,3.135,1.425,3.527,1.741"/>
		<path style="fill:none;stroke:#000000;stroke-width:0.95;" d="M36.732,176.053c-2.821,0.317-2.586,0.079-3.997-0.712
			s-5.878-4.354-7.445-5.383c-1.568-1.029-3.214-2.533-4.311-3.325c-1.097-0.792-1.175-0.633-1.175-0.633l-2.195-0.237l-1.332,2.217
			l-0.471,5.542l-0.157,2.454"/>
		<polyline style="fill:none;stroke:#000000;stroke-width:0.95;" points="36.34,180.961 29.757,177.636 26.387,176.211 
			23.173,174.707 21.135,172.648 19.881,171.541 "/>
		<path style="fill:none;stroke:#000000;stroke-width:0.95;" d="M28.581,178.19l-1.411,2.058l-0.94,0.871l-0.47,0.158l-0.235,1.346
			c0,0-0.157,2.059-4.311,2.454c-4.154,0.396-5.251-1.583-5.643-2.058c-0.392-0.475-0.627-1.821-0.627-1.821l-1.725-3.008
			l-1.881-2.613l-1.333-1.583l-0.627-1.188"/>
		<polyline style="fill:none;stroke:#000000;stroke-width:0.95;" points="21.057,165.761 20.43,162.674 20.117,160.932 
			20.273,158.003 20.352,156.261 20.352,156.683 "/>
		<path style="fill:none;stroke:#000000;stroke-width:0.95;" d="M17.765,151.036c-1.567-1.742-2.508-2.612-3.762-2.771
			c-1.254-0.158-2.508,0.396-3.057,0.95c-0.549,0.554-1.725,1.742-1.254,4.275c0.471,2.533-0.078,1.9-0.078,1.9l-0.94,1.029
			l-0.157,2.375l0.784,0.396l1.567-1.267"/>
		<polyline style="fill:none;stroke:#000000;stroke-width:0.475;" points="16.59,151.511 14.708,152.541 13.847,154.044 
			13.219,155.944 12.044,154.995 11.26,154.203 10.555,154.757 10.947,156.261 12.357,156.815 "/>
		<path style="fill:none;stroke:#000000;stroke-width:0.95;" d="M18,151.353c0,0.792,0.078,2.533,0.078,2.533L18,154.678l0.94,1.583
			l-0.706,0.475l-0.157,0.871l0.235,1.267l-0.627,0.792l-1.489,0.079l-0.706,0.316l0.079,0.95"/>
		<path style="fill:none;stroke:#000000;stroke-width:0.95;" d="M8.047,159.824c-0.47,0.792-0.784,1.742-0.784,2.137
			c0,0.396-0.235,2.375-0.235,2.375"/>
		<path style="fill:none;stroke:#000000;stroke-width:0.475;" d="M10.555,160.853c1.567,0.712,2.508,2.137,3.135,3.246"/>
		<path style="fill:none;stroke:#000000;stroke-width:0.95;" d="M11.887,164.811c-0.47,0.792-1.019,1.979-1.019,1.979l-0.862,1.979
			l-0.392,2.533l-0.94,2.138l-1.803,1.583l-2.194,0.08l-1.646-1.504l0.078-1.979l0.313-1.742l0.706-0.95l0.157-1.188l0.627-1.267
			l1.019-1.188l0.548,0.079l0.392,0.792l-0.784,0.95l-0.392,0.554h0.627l0.549,0.079l0.862,0.238l0.235,0.95H7.185l-1.019,0.079
			l1.725,0.792l0.627,0.237L8.36,170.59l-0.157,0.317v0.396"/>
		<path style="fill:none;stroke:#000000;stroke-width:0.95;" d="M48.645,164.099l-3.057,2.454c0,0-3.448,3.246-4.624,4.275
			c-1.176,1.029-3.057,2.455-3.84,4.354s-1.567,4.908-0.079,5.462c1.489,0.554,3.213,0.712,3.762-0.079
			c0.549-0.792,1.881-1.821,1.881-1.821"/>
		<path style="fill:none;stroke:#000000;stroke-width:0.95;" d="M46.764,164.495c0,0,0.313-1.821,1.097-1.821
			s1.411,0.633,1.489,1.346s0.078,2.771,0.078,2.771v0.792"/>
		<path style="fill:none;stroke:#000000;stroke-width:0.95;" d="M49.194,171.541l-0.313,1.425l-0.862,1.029
			c0,0-2.273,2.137-3.292,2.929"/>
		
			<ellipse transform="matrix(-0.1025 0.9947 -0.9947 -0.1025 220.159 144.6017)" style="fill:none;stroke:#000000;stroke-width:0.95;" cx="44.845" cy="171.621" rx="0.672" ry="1.164"/> 
		
			<ellipse transform="matrix(-0.1025 0.9947 -0.9947 -0.1025 221.3502 131.8142)" style="fill:none;stroke:#000000;stroke-width:0.95;" cx="51.212" cy="165.761" rx="0.672" ry="1.164"/> 
		<path style="fill:none;stroke:#000000;stroke-width:0.95;" d="M50.005,173.31c-0.326,0.086-0.554,0.27-0.578,0.503
			c-0.038,0.369,0.45,0.723,1.089,0.79c0.639,0.067,1.188-0.177,1.227-0.546c0.027-0.266-0.219-0.524-0.598-0.673"/>
		<path style="fill:none;stroke:#000000;stroke-width:0.95;" d="M43.708,179.63c-0.51,0.02-0.91,0.243-0.942,0.556
			c-0.038,0.369,0.449,0.723,1.088,0.79s1.188-0.177,1.227-0.546c0.026-0.257-0.201-0.506-0.557-0.656"/>
		<path style="fill:none;stroke:#000000;stroke-width:0.95;" d="M20.623,231.149c1.67-2.275,3.513-5.082,4.199-5.362
			s1.834-0.477,2.77,0.091c0.936,0.568,2.906,2.045,2.906,2.045s1.857,1.215,2.533,1.898c0.677,0.683,1.898,2.348,2.983,3.425
			c1.085,1.078,2.025,2.531,4.223,3.164"/>
		<path style="fill:none;stroke:#000000;stroke-width:0.95;" d="M26.853,237.403l0.971-4.65c0,0,1.571,1.486,2.788,2.265
			s2.724,0.807,3.183,1.371c0.458,0.564,2.842,1.953,3.174,2.334"/>
		<path style="fill:none;stroke:#000000;stroke-width:0.95;" d="M33.278,242.084c-2.833-0.183-2.561-0.375-3.814-1.402
			c-1.253-1.027-5.041-5.319-6.407-6.607s-2.729-3.059-3.674-4.03c-0.944-0.972-1.049-0.83-1.049-0.83l-2.12-0.619l-1.693,1.949
			l-1.416,5.375l-0.576,2.389"/>
		<polyline style="fill:none;stroke:#000000;stroke-width:0.95;" points="32.048,246.849 26.136,242.42 23.062,240.426 
			20.156,238.381 18.503,235.997 17.459,234.685 "/>
		<path style="fill:none;stroke:#000000;stroke-width:0.95;" d="M24.883,242.759l-1.743,1.78l-1.076,0.693l-0.49,0.073l-0.463,1.284
			c0,0-0.508,2-4.667,1.661c-4.159-0.339-4.899-2.48-5.203-3.017c-0.304-0.537-0.305-1.903-0.305-1.903l-1.181-3.265l-1.403-2.902
			l-1.04-1.793l-0.414-1.28"/>
		<polyline style="fill:none;stroke:#000000;stroke-width:0.95;" points="19.61,229.2 19.523,226.049 19.514,224.279 
			20.172,221.422 20.548,219.721 20.793,218.317 "/>
		<polyline style="fill:none;stroke:#000000;stroke-width:0.95;" points="20.41,219.614 25.265,219.096 27.64,218.896 
			31.154,218.234 "/>
		<polyline style="fill:none;stroke:#000000;stroke-width:0.95;" points="31.389,218.31 32.961,215.149 34.036,212.926 
			35.187,210.358 36.224,207.982 37.24,205.855 38.007,204.361 38.037,201.827 38.178,200.08 37.629,199.482 36.768,200.918 
			36.707,201.667 "/>
		<polyline style="fill:none;stroke:#000000;stroke-width:0.95;" points="36.888,199.421 36.854,198.289 36.438,197.902 
			35.806,198.956 35.818,200.665 "/>
		<path style="fill:none;stroke:#000000;stroke-width:0.95;" d="M35.086,198.319l-0.3-0.903l-0.628,0.074l0.186,1.095l0.144,1.921
			c0,0-0.14,1.42-0.122,1.823c0.017,0.403-0.006,1.306-0.084,1.978c-0.079,0.672-0.732,2.301-1.04,3.029
			c-0.307,0.728-0.692,1.802-3.064,5.324c-1.057,1.57-1.694,2.826-2.126,3.849"/>
		<path style="fill:none;stroke:#000000;stroke-width:0.95;" d="M28.981,214.875c-0.463,0.131-0.858,0.245-1.229,0.313
			c-1.373,0.251-4.686,0.564-6.73-0.208"/>
		<path style="fill:none;stroke:#000000;stroke-width:0.95;" d="M18.899,214.122c-1.245-1.99-2.021-3.013-3.229-3.389
			c-1.208-0.375-2.538-0.05-3.174,0.4c-0.635,0.449-1.997,1.413-1.97,3.99c0.028,2.577-0.404,1.857-0.404,1.857l-1.103,0.849
			l-0.562,2.312l0.704,0.527l1.762-0.973"/>
		<polyline style="fill:none;stroke:#000000;stroke-width:0.475;" points="17.66,214.383 15.63,215.067 14.523,216.397 
			13.579,218.158 12.584,217.016 11.949,216.099 11.159,216.521 11.286,218.071 12.58,218.864 "/>
		<path style="fill:none;stroke:#000000;stroke-width:0.95;" d="M19.076,214.475c-0.136,0.78-0.358,2.509-0.358,2.509l-0.213,0.766
			l0.654,1.724l-0.776,0.344l-0.304,0.83l0.014,1.289l-0.753,0.67l-1.48-0.184l-0.749,0.188l-0.086,0.949"/>
		<path style="fill:none;stroke:#000000;stroke-width:0.95;" d="M7.818,221.071c-0.599,0.697-1.071,1.578-1.139,1.968
			c-0.068,0.39-0.64,2.298-0.64,2.298"/>
		<path style="fill:none;stroke:#000000;stroke-width:0.475;" d="M10.111,222.524c1.421,0.977,2.103,2.545,2.53,3.746"/>
		<path style="fill:none;stroke:#000000;stroke-width:0.95;" d="M10.743,226.656c-0.599,0.697-1.344,1.771-1.344,1.771l-1.189,1.798
			l-0.821,2.426l-1.293,1.94l-2.047,1.243l-2.175-0.307l-1.362-1.77l0.417-1.935l0.608-1.661l0.858-0.812l0.358-1.142l0.835-1.137
			l1.207-0.991l0.527,0.174l0.25,0.849L4.637,227.9l-0.481,0.477l0.618,0.11l0.527,0.174l0.808,0.385l0.068,0.977l-0.771-0.137
			l-1.017-0.101l1.562,1.082l0.577,0.344l-0.25,0.518l-0.209,0.284L6,232.403"/>
		<path style="fill:none;stroke:#000000;stroke-width:0.95;" d="M47.064,232.401l-3.432,1.881c0,0-3.954,2.592-5.289,3.399
			c-1.335,0.808-3.432,1.881-4.53,3.615c-1.099,1.733-2.388,4.559-1.016,5.366c1.371,0.807,3.042,1.265,3.718,0.582
			s2.166-1.463,2.166-1.463"/>
		<path style="fill:none;stroke:#000000;stroke-width:0.95;" d="M45.144,232.461c0,0,0.622-1.738,1.393-1.601
			c0.772,0.137,1.281,0.871,1.235,1.586s-0.399,2.742-0.399,2.742l-0.136,0.78"/>
		<path style="fill:none;stroke:#000000;stroke-width:0.95;" d="M46.325,239.826l-0.554,1.348l-1.025,0.862
			c0,0-2.606,1.707-3.745,2.308"/>
		<path style="fill:none;stroke:#000000;stroke-width:0.95;" d="M41.846,239.789c0.618,0.179,1.201,0.034,1.302-0.323
			s-0.318-0.791-0.936-0.969c-0.618-0.178-1.201-0.034-1.302,0.323C40.809,239.176,41.228,239.61,41.846,239.789z"/>
		<path style="fill:none;stroke:#000000;stroke-width:0.95;" d="M49.124,235.134c0.618,0.178,1.201,0.034,1.302-0.323
			c0.101-0.357-0.318-0.791-0.936-0.969c-0.618-0.178-1.201-0.034-1.302,0.323C48.086,234.522,48.505,234.956,49.124,235.134z"/>
		<path style="fill:none;stroke:#000000;stroke-width:0.95;" d="M46.821,241.711c-0.336,0.028-0.592,0.168-0.656,0.394
			c-0.101,0.356,0.318,0.791,0.936,0.969c0.618,0.179,1.201,0.034,1.302-0.323c0.073-0.257-0.125-0.555-0.473-0.768"/>
		<path style="fill:none;stroke:#000000;stroke-width:0.95;" d="M39.533,246.831c-0.506-0.07-0.938,0.08-1.024,0.382
			c-0.101,0.357,0.318,0.791,0.936,0.969c0.618,0.178,1.201,0.034,1.302-0.323c0.07-0.248-0.111-0.533-0.435-0.744"/>
		<polyline style="fill:none;stroke:#000000;stroke-width:0.95;" points="20.108,157.856 24.744,156.312 27.024,155.608 
			30.319,154.21 "/>
		<polyline style="fill:none;stroke:#000000;stroke-width:0.95;" points="31.104,154.135 33.152,151.265 34.56,149.242 
			36.099,146.89 37.495,144.709 38.832,142.771 39.823,141.419 40.25,138.921 40.662,137.219 40.213,136.541 39.138,137.822 
			38.961,138.551 "/>
		<polyline style="fill:none;stroke:#000000;stroke-width:0.95;" points="39.491,136.363 39.636,135.239 39.285,134.791 
			38.496,135.73 38.24,137.419 "/>
		<path style="fill:none;stroke:#000000;stroke-width:0.95;" d="M37.886,134.986l-0.155-0.94l-0.631-0.027l0.012,1.111l-0.159,1.919
			c0,0-0.36,1.38-0.406,1.781c-0.046,0.401-0.21,1.288-0.393,1.939c-0.184,0.65-1.083,2.155-1.501,2.825s-0.966,1.669-3.859,4.768
			c-1.29,1.382-2.116,2.52-2.703,3.461"/>
		<path style="fill:none;stroke:#000000;stroke-width:0.95;" d="M27.493,151.391c-0.425,0.228-0.788,0.423-1.135,0.569
			c-1.289,0.539-4.461,1.553-6.622,1.234"/>
		<g>
			<polyline style="fill:none;stroke:#000000;stroke-width:0.95;" points="20.935,92.492 22.779,90.453 24.425,88.711 
				26.619,85.861 28.892,83.169 30.459,81.269 32.184,79.052 33.751,76.994 35.24,75.173 36.338,73.907 36.965,71.453 37.513,69.79 
				37.121,69.078 35.946,70.265 35.71,70.978 "/>
			<polyline style="fill:none;stroke:#000000;stroke-width:0.95;" points="36.416,68.84 36.651,67.731 36.338,67.257 35.476,68.127 
				35.083,69.79 "/>
			<path style="fill:none;stroke:#000000;stroke-width:0.95;" d="M34.927,67.336l-0.078-0.95l-0.627-0.079l-0.079,1.108l-0.313,1.9
				c0,0-0.47,1.346-0.549,1.742c-0.078,0.396-0.313,1.267-0.548,1.9c-0.235,0.633-1.254,2.059-1.724,2.692s-1.098,1.583-4.232,4.433
				c-3.135,2.85-3.84,4.671-4.703,5.779c-0.622,0.8-1.979,2.301-3.453,3.373"/>
		</g>
		<g>
			<g>
				<text transform="matrix(1 0 0 1 41.7354 28.1094)"><tspan x="0" y="0" style="font-family:Liberation Sans; font-size:7.650000;">PE=3000 J</tspan></text>
			</g>
		</g>
		<g>
			<g>
				<text transform="matrix(1 0 0 1 103.3354 28.1094)"><tspan x="0" y="0" style="font-family:Liberation Sans; font-size:7.650000;">KE=0</tspan></text>
			</g>
		</g>
		<g>
			<g>
				<text transform="matrix(1 0 0 1 41.7354 94.3105)"><tspan x="0" y="0" style="font-family:Liberation Sans; font-size:7.650000;">PE=2000 J</tspan></text>
			</g>
		</g>
		<g>
			<g>
				<text transform="matrix(1 0 0 1 103.3354 94.3105)"><tspan x="0" y="0" style="font-family:Liberation Sans; font-size:7.650000;">KE=1000 J</tspan></text>
			</g>
		</g>
		<g>
			<g>
				<text transform="matrix(1 0 0 1 41.7354 160.5117)"><tspan x="0" y="0" style="font-family:Liberation Sans; font-size:7.650000;">PE=1000 J</tspan></text>
			</g>
		</g>
		<g>
			<g>
				<text transform="matrix(1 0 0 1 103.3354 160.5117)"><tspan x="0" y="0" style="font-family:Liberation Sans; font-size:7.650000;">KE=2000 J</tspan></text>
			</g>
		</g>
		<g>
			<g>
				<text transform="matrix(1 0 0 1 41.7354 226.7124)"><tspan x="0" y="0" style="font-family:Liberation Sans; font-size:7.650000;">PE=0</tspan></text>
			</g>
		</g>
		<g>
			<g>
				<text transform="matrix(1 0 0 1 103.3354 226.7124)"><tspan x="0" y="0" style="font-family:Liberation Sans; font-size:7.650000;">KE=3000 J</tspan></text>
			</g>
		</g>
	</g>
</svg>
