<?xml version="1.0" encoding="iso-8859-1"?>
<!-- Generator: Adobe Illustrator 11 Build 196, SVG Export Plug-In . SVG Version: 6.0.0 Build 78)  -->
<!DOCTYPE svg PUBLIC "-//W3C//DTD SVG 1.0//EN"    "http://www.w3.org/TR/2001/REC-SVG-20010904/DTD/svg10.dtd" [
	<!ENTITY ns_flows "http://ns.adobe.com/Flows/1.0/">
	<!ENTITY ns_svg "http://www.w3.org/2000/svg">
	<!ENTITY ns_xlink "http://www.w3.org/1999/xlink">
]>
<svg  
	 width="147.402" height="123" viewBox="0 0 147.402 123" style="overflow:visible;enable-background:new 0 0 147.402 123"
	 xml:space="preserve">
	<g id="Layer_1">
		<g>
			<rect x="0.201" style="fill:#DCDCDC;" width="147" height="123"/> 
			
				<rect x="38.613" y="54.994" transform="matrix(0.8191 0.5736 -0.5736 0.8191 52.9424 -23.6021)" style="fill:#404040;" width="50.572" height="34.32"/> 
			<polyline style="fill:none;stroke:#000000;stroke-width:1.5;" points="33.296,71.674 74.722,100.681 94.407,72.568 
				52.981,43.561 "/>
			
				<linearGradient id="XMLID_6_" gradientUnits="userSpaceOnUse" x1="-313.0244" y1="-152.3672" x2="-274.0244" y2="-152.3672" gradientTransform="matrix(0.4474 -0.639 0.758 0.5308 310.2187 -34.2317)">
				<stop  offset="0" style="stop-color:#545454"/>
				<stop  offset="0.105" style="stop-color:#B3B3B3"/>
				<stop  offset="0.21" style="stop-color:#ECECEC"/>
				<stop  offset="0.3788" style="stop-color:#EAEAEA"/>
				<stop  offset="0.5294" style="stop-color:#E4E4E4"/>
				<stop  offset="0.6731" style="stop-color:#DADADA"/>
				<stop  offset="0.8125" style="stop-color:#CACACA"/>
				<stop  offset="0.9476" style="stop-color:#B4B4B4"/>
				<stop  offset="0.96" style="stop-color:#B2B2B2"/>
				<stop  offset="1" style="stop-color:#7A7A7A"/>
				<midPointStop  offset="0" style="stop-color:#545454"/>
				<midPointStop  offset="0.49" style="stop-color:#545454"/>
				<midPointStop  offset="0.21" style="stop-color:#ECECEC"/>
				<midPointStop  offset="0.73" style="stop-color:#ECECEC"/>
				<midPointStop  offset="0.96" style="stop-color:#B2B2B2"/>
				<midPointStop  offset="0.5" style="stop-color:#B2B2B2"/>
				<midPointStop  offset="1" style="stop-color:#7A7A7A"/>
			</linearGradient>
			<polygon style="fill:url(#XMLID_6_);" points="34.023,70.583 75.208,99.421 93.485,73.318 52.3,44.48 "/>
			<g>
				
					<rect x="46.085" y="47.267" transform="matrix(-0.8192 -0.5736 0.5736 -0.8192 53.4126 140.0739)" style="fill:#808080;" width="5.406" height="28.7"/> 
				
					<linearGradient id="XMLID_7_" gradientUnits="userSpaceOnUse" x1="-313.0244" y1="-154.479" x2="-272.0283" y2="-154.479" gradientTransform="matrix(0.443 -0.6326 0.6326 0.443 274.5927 -56.2693)">
					<stop  offset="0" style="stop-color:#FFFFFF"/>
					<stop  offset="0.0352" style="stop-color:#FDFDFD"/>
					<stop  offset="0.0526" style="stop-color:#F9F9F9"/>
					<stop  offset="0.0661" style="stop-color:#F3F3F3"/>
					<stop  offset="0.0775" style="stop-color:#E9E9E9"/>
					<stop  offset="0.0877" style="stop-color:#DBDBDB"/>
					<stop  offset="0.097" style="stop-color:#C9C9C9"/>
					<stop  offset="0.1055" style="stop-color:#B1B1B1"/>
					<stop  offset="0.1134" style="stop-color:#929292"/>
					<stop  offset="0.12" style="stop-color:#686868"/>
					<stop  offset="0.1387" style="stop-color:#909090"/>
					<stop  offset="0.1637" style="stop-color:#B4B4B4"/>
					<stop  offset="0.1898" style="stop-color:#CECECE"/>
					<stop  offset="0.2165" style="stop-color:#E1E1E1"/>
					<stop  offset="0.244" style="stop-color:#EEEEEE"/>
					<stop  offset="0.2728" style="stop-color:#F7F7F7"/>
					<stop  offset="0.3036" style="stop-color:#FDFDFD"/>
					<stop  offset="0.34" style="stop-color:#FFFFFF"/>
					<stop  offset="0.5587" style="stop-color:#FDFDFD"/>
					<stop  offset="0.6375" style="stop-color:#FAFAFA"/>
					<stop  offset="0.6937" style="stop-color:#F4F4F4"/>
					<stop  offset="0.7391" style="stop-color:#EBEBEB"/>
					<stop  offset="0.778" style="stop-color:#DFDFDF"/>
					<stop  offset="0.8125" style="stop-color:#CECECE"/>
					<stop  offset="0.8436" style="stop-color:#BABABA"/>
					<stop  offset="0.8713" style="stop-color:#9F9F9F"/>
					<stop  offset="0.88" style="stop-color:#949494"/>
					<stop  offset="0.9057" style="stop-color:#B8B8B8"/>
					<stop  offset="0.9367" style="stop-color:#D8D8D8"/>
					<stop  offset="0.9639" style="stop-color:#ECECEC"/>
					<stop  offset="0.9859" style="stop-color:#F8F8F8"/>
					<stop  offset="1" style="stop-color:#FCFCFC"/>
					<midPointStop  offset="0" style="stop-color:#FFFFFF"/>
					<midPointStop  offset="0.83" style="stop-color:#FFFFFF"/>
					<midPointStop  offset="0.12" style="stop-color:#686868"/>
					<midPointStop  offset="0.26" style="stop-color:#686868"/>
					<midPointStop  offset="0.34" style="stop-color:#FFFFFF"/>
					<midPointStop  offset="0.87" style="stop-color:#FFFFFF"/>
					<midPointStop  offset="0.88" style="stop-color:#949494"/>
					<midPointStop  offset="0.39" style="stop-color:#949494"/>
					<midPointStop  offset="1" style="stop-color:#FCFCFC"/>
				</linearGradient>
				<polygon style="fill:url(#XMLID_7_);" points="56.946,48.003 55.575,47.044 37.416,72.979 38.786,73.938 "/>
				
					<linearGradient id="XMLID_8_" gradientUnits="userSpaceOnUse" x1="-313.0244" y1="-153.936" x2="-272.0283" y2="-153.936" gradientTransform="matrix(0.443 -0.6326 0.3036 0.2126 224.9433 -91.1677)">
					<stop  offset="0" style="stop-color:#FFFFFF"/>
					<stop  offset="0.0352" style="stop-color:#FDFDFD"/>
					<stop  offset="0.0526" style="stop-color:#F9F9F9"/>
					<stop  offset="0.0661" style="stop-color:#F3F3F3"/>
					<stop  offset="0.0775" style="stop-color:#E9E9E9"/>
					<stop  offset="0.0877" style="stop-color:#DBDBDB"/>
					<stop  offset="0.097" style="stop-color:#C9C9C9"/>
					<stop  offset="0.1055" style="stop-color:#B1B1B1"/>
					<stop  offset="0.1134" style="stop-color:#929292"/>
					<stop  offset="0.12" style="stop-color:#686868"/>
					<stop  offset="0.1387" style="stop-color:#909090"/>
					<stop  offset="0.1637" style="stop-color:#B4B4B4"/>
					<stop  offset="0.1898" style="stop-color:#CECECE"/>
					<stop  offset="0.2165" style="stop-color:#E1E1E1"/>
					<stop  offset="0.244" style="stop-color:#EEEEEE"/>
					<stop  offset="0.2728" style="stop-color:#F7F7F7"/>
					<stop  offset="0.3036" style="stop-color:#FDFDFD"/>
					<stop  offset="0.34" style="stop-color:#FFFFFF"/>
					<stop  offset="0.5587" style="stop-color:#FDFDFD"/>
					<stop  offset="0.6375" style="stop-color:#FAFAFA"/>
					<stop  offset="0.6937" style="stop-color:#F4F4F4"/>
					<stop  offset="0.7391" style="stop-color:#EBEBEB"/>
					<stop  offset="0.778" style="stop-color:#DFDFDF"/>
					<stop  offset="0.8125" style="stop-color:#CECECE"/>
					<stop  offset="0.8436" style="stop-color:#BABABA"/>
					<stop  offset="0.8713" style="stop-color:#9F9F9F"/>
					<stop  offset="0.88" style="stop-color:#949494"/>
					<stop  offset="0.9057" style="stop-color:#B8B8B8"/>
					<stop  offset="0.9367" style="stop-color:#D8D8D8"/>
					<stop  offset="0.9639" style="stop-color:#ECECEC"/>
					<stop  offset="0.9859" style="stop-color:#F8F8F8"/>
					<stop  offset="1" style="stop-color:#FCFCFC"/>
					<midPointStop  offset="0" style="stop-color:#FFFFFF"/>
					<midPointStop  offset="0.83" style="stop-color:#FFFFFF"/>
					<midPointStop  offset="0.12" style="stop-color:#686868"/>
					<midPointStop  offset="0.26" style="stop-color:#686868"/>
					<midPointStop  offset="0.34" style="stop-color:#FFFFFF"/>
					<midPointStop  offset="0.87" style="stop-color:#FFFFFF"/>
					<midPointStop  offset="0.88" style="stop-color:#949494"/>
					<midPointStop  offset="0.39" style="stop-color:#949494"/>
					<midPointStop  offset="1" style="stop-color:#FCFCFC"/>
				</linearGradient>
				<polygon style="fill:url(#XMLID_8_);" points="57.868,48.649 57.21,48.188 39.05,74.123 39.708,74.584 "/>
				
					<linearGradient id="XMLID_9_" gradientUnits="userSpaceOnUse" x1="-313.0244" y1="-153.938" x2="-272.0293" y2="-153.938" gradientTransform="matrix(0.443 -0.6326 0.3036 0.2126 225.9711 -90.4474)">
					<stop  offset="0" style="stop-color:#FFFFFF"/>
					<stop  offset="0.0352" style="stop-color:#FDFDFD"/>
					<stop  offset="0.0526" style="stop-color:#F9F9F9"/>
					<stop  offset="0.0661" style="stop-color:#F3F3F3"/>
					<stop  offset="0.0775" style="stop-color:#E9E9E9"/>
					<stop  offset="0.0877" style="stop-color:#DBDBDB"/>
					<stop  offset="0.097" style="stop-color:#C9C9C9"/>
					<stop  offset="0.1055" style="stop-color:#B1B1B1"/>
					<stop  offset="0.1134" style="stop-color:#929292"/>
					<stop  offset="0.12" style="stop-color:#686868"/>
					<stop  offset="0.1387" style="stop-color:#909090"/>
					<stop  offset="0.1637" style="stop-color:#B4B4B4"/>
					<stop  offset="0.1898" style="stop-color:#CECECE"/>
					<stop  offset="0.2165" style="stop-color:#E1E1E1"/>
					<stop  offset="0.244" style="stop-color:#EEEEEE"/>
					<stop  offset="0.2728" style="stop-color:#F7F7F7"/>
					<stop  offset="0.3036" style="stop-color:#FDFDFD"/>
					<stop  offset="0.34" style="stop-color:#FFFFFF"/>
					<stop  offset="0.5587" style="stop-color:#FDFDFD"/>
					<stop  offset="0.6375" style="stop-color:#FAFAFA"/>
					<stop  offset="0.6937" style="stop-color:#F4F4F4"/>
					<stop  offset="0.7391" style="stop-color:#EBEBEB"/>
					<stop  offset="0.778" style="stop-color:#DFDFDF"/>
					<stop  offset="0.8125" style="stop-color:#CECECE"/>
					<stop  offset="0.8436" style="stop-color:#BABABA"/>
					<stop  offset="0.8713" style="stop-color:#9F9F9F"/>
					<stop  offset="0.88" style="stop-color:#949494"/>
					<stop  offset="0.9057" style="stop-color:#B8B8B8"/>
					<stop  offset="0.9367" style="stop-color:#D8D8D8"/>
					<stop  offset="0.9639" style="stop-color:#ECECEC"/>
					<stop  offset="0.9859" style="stop-color:#F8F8F8"/>
					<stop  offset="1" style="stop-color:#FCFCFC"/>
					<midPointStop  offset="0" style="stop-color:#FFFFFF"/>
					<midPointStop  offset="0.83" style="stop-color:#FFFFFF"/>
					<midPointStop  offset="0.12" style="stop-color:#686868"/>
					<midPointStop  offset="0.26" style="stop-color:#686868"/>
					<midPointStop  offset="0.34" style="stop-color:#FFFFFF"/>
					<midPointStop  offset="0.87" style="stop-color:#FFFFFF"/>
					<midPointStop  offset="0.88" style="stop-color:#949494"/>
					<midPointStop  offset="0.39" style="stop-color:#949494"/>
					<midPointStop  offset="1" style="stop-color:#FCFCFC"/>
				</linearGradient>
				<polygon style="fill:url(#XMLID_9_);" points="58.896,49.369 58.238,48.908 40.078,74.843 40.736,75.303 "/>
				
					<linearGradient id="XMLID_10_" gradientUnits="userSpaceOnUse" x1="-313.0706" y1="-134.1255" x2="-272.074" y2="-134.1255" gradientTransform="matrix(0.443 -0.6326 0.6326 0.443 273.7433 -56.9075)">
					<stop  offset="0" style="stop-color:#FFFFFF"/>
					<stop  offset="0.0352" style="stop-color:#FDFDFD"/>
					<stop  offset="0.0526" style="stop-color:#F9F9F9"/>
					<stop  offset="0.0661" style="stop-color:#F3F3F3"/>
					<stop  offset="0.0775" style="stop-color:#E9E9E9"/>
					<stop  offset="0.0877" style="stop-color:#DBDBDB"/>
					<stop  offset="0.097" style="stop-color:#C9C9C9"/>
					<stop  offset="0.1055" style="stop-color:#B1B1B1"/>
					<stop  offset="0.1134" style="stop-color:#929292"/>
					<stop  offset="0.12" style="stop-color:#686868"/>
					<stop  offset="0.1387" style="stop-color:#909090"/>
					<stop  offset="0.1637" style="stop-color:#B4B4B4"/>
					<stop  offset="0.1898" style="stop-color:#CECECE"/>
					<stop  offset="0.2165" style="stop-color:#E1E1E1"/>
					<stop  offset="0.244" style="stop-color:#EEEEEE"/>
					<stop  offset="0.2728" style="stop-color:#F7F7F7"/>
					<stop  offset="0.3036" style="stop-color:#FDFDFD"/>
					<stop  offset="0.34" style="stop-color:#FFFFFF"/>
					<stop  offset="0.5587" style="stop-color:#FDFDFD"/>
					<stop  offset="0.6375" style="stop-color:#FAFAFA"/>
					<stop  offset="0.6937" style="stop-color:#F4F4F4"/>
					<stop  offset="0.7391" style="stop-color:#EBEBEB"/>
					<stop  offset="0.778" style="stop-color:#DFDFDF"/>
					<stop  offset="0.8125" style="stop-color:#CECECE"/>
					<stop  offset="0.8436" style="stop-color:#BABABA"/>
					<stop  offset="0.8713" style="stop-color:#9F9F9F"/>
					<stop  offset="0.88" style="stop-color:#949494"/>
					<stop  offset="0.9057" style="stop-color:#B8B8B8"/>
					<stop  offset="0.9367" style="stop-color:#D8D8D8"/>
					<stop  offset="0.9639" style="stop-color:#ECECEC"/>
					<stop  offset="0.9859" style="stop-color:#F8F8F8"/>
					<stop  offset="1" style="stop-color:#FCFCFC"/>
					<midPointStop  offset="0" style="stop-color:#FFFFFF"/>
					<midPointStop  offset="0.83" style="stop-color:#FFFFFF"/>
					<midPointStop  offset="0.12" style="stop-color:#686868"/>
					<midPointStop  offset="0.26" style="stop-color:#686868"/>
					<midPointStop  offset="0.34" style="stop-color:#FFFFFF"/>
					<midPointStop  offset="0.87" style="stop-color:#FFFFFF"/>
					<midPointStop  offset="0.88" style="stop-color:#949494"/>
					<midPointStop  offset="0.39" style="stop-color:#949494"/>
					<midPointStop  offset="1" style="stop-color:#FCFCFC"/>
				</linearGradient>
				<path style="fill:url(#XMLID_10_);" d="M60.961,50.815l-1.377-0.964l-18.16,25.935l1.377,0.964l1.55-2.214l10.437,7.308
					l-1.55,2.214l1.377,0.964l0.06-0.085c1.035-0.098,4.476-3.893,8.41-9.225l2.866,2.007l3.838-5.482l-2.866-2.007
					c3.664-5.521,6.054-10.051,5.792-11.058l0.06-0.085l-1.377-0.964l-1.513,2.161l-10.438-7.308L60.961,50.815z"/>
				<path style="fill:none;stroke:#000000;stroke-width:0.5;" d="M56.966,47.974l-1.371-0.959l-18.16,25.935l1.37,0.96l0.849-1.212
					l0.264,0.185l-0.849,1.213l0.658,0.46l0.849-1.212l0.37,0.259l-0.849,1.212l0.658,0.461l0.849-1.212l0.688,0.481l-0.849,1.212
					l1.377,0.964l1.55-2.214l10.437,7.308l-1.55,2.214l1.377,0.964l0.06-0.085c1.035-0.098,4.476-3.893,8.41-9.225l2.866,2.007
					l3.838-5.482l-2.866-2.007c3.664-5.521,6.053-10.052,5.792-11.058l0.06-0.085l-1.377-0.964l-1.513,2.161l-10.438-7.308
					l1.513-2.161l-1.377-0.964l-0.849,1.212l-0.688-0.481l0.849-1.213l-0.658-0.46l-0.849,1.212l-0.37-0.259l0.849-1.212
					l-0.658-0.46l-0.849,1.212l-0.264-0.185L56.966,47.974z"/>
			</g>
			<g>
				<path style="fill:none;stroke:#000000;stroke-width:0.5;" d="M84.495,86.433c-2.558,2.873-3.228,3.579-3.823,4.203
					c-0.595,0.624-0.764,0.741-0.916,0.871c-0.151,0.129-0.401,0.291-0.448,0.226c-0.047-0.065-0.05-0.2,0.081-0.476
					c0.13-0.276,0.332-0.703,0.589-1.158s0.47-0.842,0.984-1.687c0.514-0.845,0.269-0.48,1.894-3.091"/>
				<path style="fill:none;stroke:#000000;stroke-width:0.5;" d="M82.852,85.32c2.004-3.249,2.483-4.084,2.906-4.825
					c0.422-0.741,0.483-0.932,0.562-1.111c0.078-0.179,0.156-0.458,0.076-0.479c-0.08-0.021-0.213,0.021-0.444,0.229
					c-0.23,0.209-0.586,0.531-0.953,0.912c-0.366,0.382-0.679,0.7-1.347,1.44c-0.667,0.74-0.387,0.4-2.438,2.722"/>
				<path style="fill:none;stroke:#000000;stroke-width:0.5;" d="M81.211,84.206c-2.559,2.873-3.228,3.579-3.823,4.203
					s-0.764,0.741-0.916,0.871c-0.151,0.129-0.401,0.292-0.449,0.226c-0.047-0.065-0.05-0.199,0.081-0.475
					c0.131-0.276,0.333-0.703,0.59-1.158s0.47-0.842,0.984-1.687c0.514-0.845,0.269-0.48,1.894-3.092"/>
				<path style="fill:none;stroke:#000000;stroke-width:0.5;" d="M79.568,83.093c2.005-3.249,2.484-4.084,2.906-4.825
					c0.422-0.741,0.483-0.932,0.562-1.111c0.079-0.179,0.157-0.458,0.077-0.479s-0.214,0.021-0.444,0.229
					c-0.23,0.208-0.586,0.531-0.953,0.912s-0.679,0.7-1.347,1.44C79.701,80,79.982,79.66,77.93,81.981"/>
				<path style="fill:none;stroke:#000000;stroke-width:0.5;" d="M77.928,81.978c-2.558,2.874-3.228,3.579-3.823,4.204
					c-0.595,0.624-0.764,0.741-0.916,0.871c-0.151,0.13-0.402,0.291-0.448,0.227c-0.048-0.065-0.05-0.2,0.081-0.476
					c0.131-0.276,0.333-0.703,0.59-1.158c0.257-0.456,0.47-0.842,0.984-1.687c0.514-0.845,0.269-0.48,1.894-3.091"/>
				<path style="fill:none;stroke:#000000;stroke-width:0.5;" d="M76.285,80.866c2.005-3.249,2.484-4.084,2.906-4.825
					c0.423-0.741,0.483-0.933,0.562-1.111c0.079-0.179,0.157-0.458,0.077-0.479c-0.08-0.021-0.213,0.021-0.444,0.229
					c-0.23,0.208-0.586,0.531-0.953,0.912s-0.679,0.7-1.347,1.44c-0.668,0.74-0.388,0.4-2.439,2.722"/>
				<path style="fill:none;stroke:#000000;stroke-width:0.5;" d="M74.645,79.751c-2.558,2.873-3.228,3.58-3.823,4.204
					s-0.764,0.741-0.916,0.871c-0.151,0.13-0.401,0.291-0.449,0.226c-0.047-0.065-0.049-0.199,0.081-0.476
					c0.131-0.276,0.333-0.703,0.59-1.158c0.257-0.456,0.47-0.842,0.984-1.687c0.514-0.845,0.269-0.48,1.894-3.091"/>
				<path style="fill:none;stroke:#000000;stroke-width:0.5;" d="M73.002,78.639c2.004-3.249,2.484-4.084,2.907-4.825
					c0.422-0.741,0.483-0.933,0.561-1.111c0.079-0.179,0.157-0.458,0.077-0.479s-0.214,0.021-0.444,0.229
					c-0.23,0.208-0.586,0.531-0.953,0.912c-0.367,0.381-0.679,0.7-1.347,1.44c-0.668,0.74-0.387,0.4-2.438,2.722"/>
				<path style="fill:none;stroke:#000000;stroke-width:0.5;" d="M71.362,77.524c-2.559,2.873-3.228,3.58-3.823,4.204
					s-0.764,0.741-0.916,0.871c-0.151,0.13-0.401,0.292-0.449,0.226c-0.047-0.065-0.049-0.199,0.081-0.475
					c0.131-0.276,0.333-0.703,0.59-1.158c0.257-0.456,0.47-0.842,0.984-1.687s0.27-0.48,1.894-3.091"/>
				<path style="fill:none;stroke:#000000;stroke-width:0.5;" d="M69.719,76.412c2.005-3.249,2.484-4.084,2.906-4.826
					c0.423-0.741,0.483-0.932,0.562-1.111s0.157-0.458,0.077-0.479s-0.214,0.021-0.444,0.229s-0.586,0.531-0.953,0.912
					s-0.679,0.7-1.347,1.44c-0.668,0.74-0.388,0.4-2.439,2.722"/>
			</g>
			<polygon style="fill:#DCDCDC;" points="52.3,44.48 55.186,46.449 36.811,72.574 34.023,70.583 "/>
		</g>
		<rect y="60.083" style="fill:none;" width="147.402" height="2.834"/> 
	</g>
</svg>
