<?xml version="1.0" encoding="iso-8859-1"?>
<!-- Generator: Adobe Illustrator 11 Build 196, SVG Export Plug-In . SVG Version: 6.0.0 Build 78)  -->
<!DOCTYPE svg PUBLIC "-//W3C//DTD SVG 1.0//EN"    "http://www.w3.org/TR/2001/REC-SVG-20010904/DTD/svg10.dtd" [
	<!ENTITY ns_flows "http://ns.adobe.com/Flows/1.0/">
	<!ENTITY ns_svg "http://www.w3.org/2000/svg">
	<!ENTITY ns_xlink "http://www.w3.org/1999/xlink">
]>
<svg  
	 width="320.315" height="81.011" viewBox="0 0 320.315 81.011" style="overflow:visible;enable-background:new 0 0 320.315 81.011"
	 xml:space="preserve">
	<g id="Layer_1">
		<path style="fill:#D6D6D6;stroke:#000000;" d="M140.324,62.099V16.306h-8.55v45.758c-0.062,0.128-0.099,0.261-0.099,0.397
			c0,1.051,1.955,1.904,4.366,1.904c2.411,0,4.366-0.853,4.366-1.904C140.408,62.337,140.376,62.216,140.324,62.099z"/>
		<g>
			<g>
				<rect x="39.209" y="45.221" style="fill:#EDEDED;" width="19.346" height="12.226"/> 
				<path style="fill:#D6D6D6;stroke:#000000;" d="M53.368,42.076l-7.826,0.792c0.185,1.833,1.821,3.167,3.653,2.982l12.164-1.231
					c1.727-0.175,3.011-1.639,2.998-3.341C67.024,27.924,55.394,38.578,53.368,42.076z"/>
				<rect x="14.426" y="43.832" style="fill:#EDEDED;" width="25.008" height="20.007"/> 
				
					<rect x="37.559" y="40.185" transform="matrix(0.1447 0.9895 -0.9895 0.1447 93.0524 11.9005)" style="fill:#B5B5B5;stroke:#000000;" width="4.168" height="39.179"/> 
				
					<rect x="18.567" y="47.764" transform="matrix(0.999 -0.0438 0.0438 0.999 -2.2637 0.981)" style="fill:#B5B5B5;stroke:#000000;" width="5.335" height="8.669"/> 
				<path style="stroke:#000000;" d="M34.433,38.83H10.258c-3.683,0-6.669,2.986-6.669,6.669v1.667H6.09v17.706
					c1.142,0.917,2.59,1.467,4.168,1.467h5.001v-11.67c0-3.683,2.986-6.669,6.669-6.669h19.173v-2.5
					C41.102,41.816,38.116,38.83,34.433,38.83z"/>
				<circle style="stroke:#000000;" cx="12.203" cy="71.079" r="9.431"/> 
				<circle style="fill:#FFFFFF;stroke:#000000;" cx="12.203" cy="71.079" r="6.791"/> 
				
					<rect x="25.68" y="50.084" transform="matrix(-0.0975 0.9952 -0.9952 -0.0975 87.0797 32.0349)" style="fill:#B5B5B5;stroke:#000000;" width="6.669" height="10.837"/> 
				<path style="fill:#D6D6D6;stroke:#000000;" d="M59.719,62.449H43.186c-2.54,0-4.694-1.625-5.496-3.89h-2.913
					c-0.039,0.273-0.066,0.55-0.066,0.833c0,3.223,2.612,5.835,5.835,5.835h19.173V62.449z"/>
				<path style="fill:#FFFFFF;stroke:#000000;" d="M78.329,58.594l15.755-19.432c-4.678-3.963-10.726-6.357-17.337-6.357
					c-9.506,0-17.852,4.946-22.622,12.4L78.329,58.594z"/>
				<circle cx="77.055" cy="58.419" r="22.37"/> 
				<circle style="fill:#FFFFFF;" cx="77.055" cy="58.419" r="14.317"/> 
				<circle style="fill:none;stroke:#000000;" cx="77.055" cy="58.419" r="5.011"/> 
				<line style="fill:#FFFFFF;stroke:#000000;stroke-width:2;" x1="41.657" y1="37.719" x2="39.434" y2="43.832"/>
				
					<ellipse transform="matrix(-0.1959 0.9806 -0.9806 -0.1959 86.9772 1.7556)" style="fill:#FFFFFF;stroke:#000000;stroke-width:2;" cx="42.769" cy="36.538" rx="2.947" ry="9.431"/> 
			</g>
			<path d="M37.026,55.644c1.389,0.463,2.796,0.802,4.221,1.104l0.392,0.036c0.392,0.053,0.766-0.089,1.033-0.356l0.303-0.303
				c0.231-0.231,0.356-0.534,0.374-0.855l0.018-0.463c0.303-2.333,0.232-4.685,0.944-7c0.57-1.817-0.071-3.74,0.41-5.575
				l0.338-0.695l-0.499,0.552l-0.089-0.036c2.333-0.143,4.667-0.053,7-0.071h0.801c0.285,0,0.535-0.089,0.766-0.249l0.303-0.214
				c0.285-0.214,0.463-0.517,0.517-0.873l0.071-0.57c0.089-2.155,1.069-4.097,1.3-6.252c0.534-5.023,0.285-9.975,0.695-14.945
				c0.018-0.712-0.552-1.3-1.247-1.318c-0.712-0.018-1.3,0.534-1.318,1.247c-0.463,6.84,0.071,13.787-1.995,20.413l-0.053,1.086
				l0.516-0.873l-0.303,0.231l0.748-0.25h-0.801c-2.423,0.054-4.827-0.106-7.25,0.089l-0.979,0.392
				c-0.214,0.125-0.374,0.303-0.499,0.517l-0.303,0.748c-0.232,0.57-0.392,1.176-0.445,1.781c-0.125,1.514,0.196,3.046-0.232,4.471
				c-0.712,2.315-0.552,4.631-0.961,6.929l-0.018,0.837l0.374-0.873l-0.285,0.303l1.033-0.374l-0.588-0.071
				c-1.318-0.231-2.547-0.73-3.83-1.051c-0.694-0.125-1.372,0.338-1.496,1.033C35.869,54.842,36.332,55.52,37.026,55.644
				L37.026,55.644z"/>
			<path d="M42.103,38.847c1.871-0.231,3.616,0.605,5.469,0.517c0.41-0.018,0.891-0.143,1.175-0.428
				c2.921-2.832,5.255-5.735,7.695-9.173c0.409-0.605,0.801-1.158,1.033-1.834c0.303-0.641,0.036-1.407-0.605-1.71
				c-0.641-0.285-1.407-0.018-1.71,0.624c-1.834,3.776-5.219,6.395-7.517,9.85c-1.871,0.143-3.652-0.712-5.54-0.41
				c-0.712,0-1.282,0.57-1.282,1.282C40.82,38.277,41.39,38.847,42.103,38.847L42.103,38.847z"/>
			<path d="M42.833,34.216c1.888,0.588,4.097,1.016,5.932,0.071l0.16-0.053c0.231-0.071,0.428-0.196,0.588-0.374l0.534-0.766
				c1.318-4.008,3.741-7.428,5.486-11.24c0.231-0.659-0.107-1.407-0.766-1.639c-0.659-0.249-1.407,0.089-1.639,0.748
				c-1.621,3.491-3.883,6.645-5.112,10.313l-0.445,0.909l0.57-0.392l-0.979,0.428c0.071-0.018,0.143-0.036,0.213-0.054
				c-1.247,0.196-2.547,0.036-3.723-0.374c-0.677-0.231-1.389,0.125-1.621,0.802C41.8,33.272,42.156,33.984,42.833,34.216
				L42.833,34.216z"/>
			<path d="M54.643,18.612c2.138-0.018,4.061,1.033,6.163,1.247l0.837,0.125L60.77,19.45l0.231,0.338l0.018-1.497l-0.338,0.463
				c-1.3,2.832-3.153,5.237-5.219,7.695c-2.12,2.529-2.208,5.771-2.921,8.942c-0.25,1.015-1.033,1.781-1.3,2.814
				c-0.25,0.659,0.106,1.389,0.766,1.639c0.659,0.231,1.407-0.107,1.639-0.784c1.835-2.726,1.639-6.074,2.779-9.084
				c0.196-0.517,0.374-1.051,0.695-1.479c1.853-2.511,3.972-4.542,5.201-7.338l0.766-1.354c0.321-0.445,0.339-1.033,0.018-1.496
				l-0.231-0.321c-0.196-0.285-0.517-0.48-0.873-0.534l-0.837-0.125c-2.191-0.302-4.24-1.354-6.52-1.282
				c-0.712,0-1.283,0.57-1.283,1.282C53.36,18.042,53.93,18.612,54.643,18.612L54.643,18.612z"/>
			<path d="M47.399,8c2.218-0.334,4.436-0.24,6.693,0.081c1.99,0.28,3.941,0.133,5.905,0.146h0.227c0.24,0,0.467-0.08,0.641-0.24
				l0.561-0.615c0.254-0.988,0.668-2.03,0.307-3.032c-0.828-2.271-3.233-3.22-5.263-4.222c-0.361-0.174-0.802-0.133-1.229-0.026
				c-2.552,0.587-3.167,3.099-3.728,5.223c-0.147,0.508,0.147,1.042,0.655,1.189s1.042-0.147,1.189-0.668
				c0.467-1.523,0.761-3.14,2.258-4.034c1.563,1.055,4.689,1.75,4.208,4.168l-0.227,0.574l0.628-0.24h-0.561
				c-2.552,0.013-5.077-0.067-7.655-0.361c-1.657-0.174-3.313-0.16-4.957,0.16c-0.521,0.094-0.868,0.601-0.775,1.123
				C46.371,7.747,46.878,8.094,47.399,8L47.399,8z"/>
			<path d="M59.369,9.27c-0.548,0.961-0.067,2.364-1.082,3.112c-0.401,0.348-0.441,0.949-0.094,1.35s0.949,0.441,1.349,0.093
				c1.35-0.841,1.122-2.552,1.617-3.861c0.187-0.507-0.054-1.055-0.548-1.242C60.104,8.535,59.556,8.775,59.369,9.27L59.369,9.27z"
				/>
			<path d="M50.819,7.894c-0.28,0.774-0.654,1.536-0.694,2.378l-0.014,0.427l0.308-0.708l-0.214,0.201
				c-0.2,0.187-0.307,0.44-0.307,0.708c0,0.534,0.427,0.962,0.962,0.962h0.294c0.467,0,0.948,0,1.416,0h0.267l-0.828-0.481
				l0.026-0.213c-0.467,2.084,1.109,3.553,2.806,4.448c0.414,0.334,1.028,0.268,1.349-0.146c0.334-0.415,0.267-1.029-0.147-1.363
				c-1.149-0.695-2.431-1.416-2.124-2.979l-0.24-0.708c-0.174-0.293-0.495-0.481-0.842-0.481h-0.762c-0.2,0-0.414,0-0.614,0h-0.601
				l0.654,1.67l0.214-0.201c0.187-0.174,0.307-0.427,0.307-0.695l-0.12-0.307c0.134-0.641,0.708-1.069,0.574-1.83
				c0.041,0.013,0.081,0.013,0.121,0.027c0.2-0.495-0.054-1.056-0.548-1.243C51.567,7.159,51.02,7.399,50.819,7.894L50.819,7.894z"
				/>
		</g>
		<path style="fill:none;stroke:#000000;" d="M92.444,45.375c0,0,93.194,0,104.309,0c11.115,0,11.115-10.26,4.275-10.26
			s-55.575-0.855-55.575-0.855s-14.535,11.115-14.535,0.855"/>
		<ellipse style="fill:#D6D6D6;stroke:#000000;" cx="199.532" cy="39.818" rx="6.65" ry="5.139"/> 
		<path style="fill:#D6D6D6;stroke:#000000;" d="M277.692,35.971c0,0,7.98,21.09,6.27,24.795c-1.71,3.705-0.855,2.85-0.855,2.85
			l7.125,1.425l0.855-3.705c0,0,4.275,1.995,9.405,0.855s-1.71-5.13-1.71-5.13l18.24,2.85l-9.69-8.265l-7.41-5.13
			c0,0-4.275-10.545-4.845-17.1C294.507,22.861,279.118,31.125,277.692,35.971z"/>
		<path style="fill:none;stroke:#000000;stroke-width:0.5;" d="M293.367,31.696c-3.42,5.13-12.825,7.98-15.675,4.275"/>
		<line style="fill:none;stroke:#000000;stroke-width:0.5;" x1="298.212" y1="54.496" x2="291.942" y2="44.806"/>
		<path style="fill:none;stroke:#000000;stroke-width:0.5;" d="M289.947,58.771c-0.285-2.85-1.71-8.55-1.71-8.55"/>
		<line style="fill:none;stroke:#000000;" x1="268.857" y1="39.391" x2="277.408" y2="38.25"/>
		<path style="fill:none;stroke:#000000;" d="M199.532,39.818h66.761c0,0,40.755,9.263,29.925-4.417"/>
		<line style="fill:none;stroke:#000000;" x1="144.029" y1="34.261" x2="140.609" y2="32.551"/>
		<rect y="73.032" style="fill:none;" width="320.315" height="2.835"/> 
		<ellipse style="fill:#D6D6D6;stroke:#000000;" cx="136.042" cy="16.29" rx="4.366" ry="1.903"/> 
	</g>
</svg>
