<?xml version="1.0" encoding="UTF-8" standalone="no"?>
<!-- Created with Inkscape (http://www.inkscape.org/) -->

<svg
   xmlns:dc="http://purl.org/dc/elements/1.1/"
   xmlns:cc="http://creativecommons.org/ns#"
   xmlns:rdf="http://www.w3.org/1999/02/22-rdf-syntax-ns#"
   xmlns:svg="http://www.w3.org/2000/svg"
   xmlns="http://www.w3.org/2000/svg"
   xmlns:sodipodi="http://sodipodi.sourceforge.net/DTD/sodipodi-0.dtd"
   xmlns:inkscape="http://www.inkscape.org/namespaces/inkscape"
   width="210mm"
   height="297mm"
   viewBox="0 0 744.09448819 1052.3622047"
   id="svg2"
   version="1.1"
   sodipodi:docname="pulley-table-two-blocks-sloth.svg">
  <defs
     id="defs4" />
  <sodipodi:namedview
     id="base"
     pagecolor="#ffffff"
     bordercolor="#666666"
     borderopacity="1.0"
     inkscape:pageopacity="0.0"
     inkscape:pageshadow="2"
     inkscape:zoom="3.9455749"
     inkscape:cx="117.34871"
     inkscape:cy="951.48788"
     inkscape:document-units="mm"
     inkscape:current-layer="layer1"
     showgrid="false"
     inkscape:window-width="1280"
     inkscape:window-height="998"
     inkscape:window-x="0"
     inkscape:window-y="0"
     inkscape:window-maximized="1" />
  <metadata
     id="metadata7">
    <rdf:RDF>
      <cc:Work
         rdf:about="">
        <dc:format>image/svg+xml</dc:format>
        <dc:type
           rdf:resource="http://purl.org/dc/dcmitype/StillImage" />
        <dc:title />
      </cc:Work>
    </rdf:RDF>
  </metadata>
  <g
     inkscape:label="Layer 1"
     inkscape:groupmode="layer"
     id="layer1">
    <rect
       style="color:#000000;clip-rule:nonzero;display:inline;overflow:visible;visibility:visible;opacity:1;isolation:auto;mix-blend-mode:normal;color-interpolation:sRGB;color-interpolation-filters:linearRGB;solid-color:#000000;solid-opacity:1;fill:#dedede;fill-opacity:1;fill-rule:nonzero;stroke:none;stroke-width:0.875;stroke-linecap:butt;stroke-linejoin:miter;stroke-miterlimit:1;stroke-dasharray:none;stroke-dashoffset:0;stroke-opacity:1;color-rendering:auto;image-rendering:auto;shape-rendering:auto;text-rendering:auto;enable-background:accumulate"
       id="rect4936"
       width="184.25197"
       height="124.58648"
       x="23.571411"
       y="25.811436" />
    <path
       id="path4244"
       d="m 109.37673,43.650062 c -0.0173,0.03708 -0.021,0.07777 -0.0335,0.116622 -0.19321,-0.07416 -0.40501,0.002 -0.54373,0.229687 -0.008,0.01589 -0.0123,0.03529 -0.021,0.05303 -10e-4,-0.0029 -0.004,-0.0068 -0.007,-0.01063 -0.19197,-0.321571 -0.53134,-0.363981 -0.75677,-0.09008 -0.0569,0.06717 -0.1003,0.146657 -0.13131,0.235008 -0.15235,-0.109554 -0.33193,-0.09544 -0.48552,0.02291 -0.1239,-0.18376 -0.25639,-0.353381 -0.40749,-0.496496 -0.23285,-0.219093 -0.53383,-0.139583 -0.70476,0.16432 -0.0185,-0.01591 -0.0409,-0.01942 -0.0606,-0.03181 l 0,2.284571 c 0.007,-0.0097 0.0148,-0.01063 0.0222,-0.02115 0.0273,-0.0388 0.0421,-0.09008 0.0619,-0.136051 0.0768,0.12016 0.15481,0.240301 0.23408,0.356913 0.17588,0.295068 0.46572,0.3357 0.68866,0.134286 0.15482,0.323339 0.45703,0.439951 0.70352,0.247359 0.0892,-0.07419 0.1511,-0.18376 0.19693,-0.305665 0.21304,0.185524 0.47809,0.12367 0.64654,-0.120151 0.0222,0.0388 0.0483,0.07419 0.0668,0.116612 0.17588,0.339239 0.51029,0.41169 0.7481,0.160792 0.10771,-0.113082 0.17093,-0.275629 0.19818,-0.448792 0.17464,0.04592 0.36043,-0.0194 0.48924,-0.219098 0.0434,-0.06717 0.0719,-0.143118 0.0941,-0.220863 0.21427,0.226176 0.43227,0.445264 0.66263,0.63962 0.20562,0.180221 0.45828,0.128983 0.63044,-0.08832 0.21924,0.173163 0.49916,0.116621 0.66637,-0.173144 0.0173,-0.02827 0.0222,-0.06366 0.0359,-0.09544 0.0978,0.118376 0.19074,0.24383 0.27372,0.381635 0.18331,0.321575 0.52269,0.374577 0.75182,0.10778 0.0681,-0.07779 0.11265,-0.178447 0.14491,-0.286226 0.18455,0.160782 0.42608,0.155488 0.60691,-0.04241 0.10401,-0.116621 0.16349,-0.277403 0.18951,-0.447028 0.14862,0.189063 0.29849,0.37989 0.44588,0.572472 0.22171,0.273875 0.55983,0.238537 0.75182,-0.08306 0.0236,-0.0388 0.0335,-0.08481 0.0508,-0.128983 0.0656,0.09544 0.13131,0.190818 0.19198,0.295069 0.18083,0.328642 0.51773,0.386948 0.75182,0.130747 0.0557,-0.0619 0.0991,-0.137815 0.13254,-0.220853 0.1697,0.295058 0.46942,0.378096 0.69981,0.162547 0.0719,-0.06541 0.1239,-0.155489 0.16348,-0.254437 0.21057,0.250908 0.52764,0.245595 0.72582,-0.03178 0.0272,-0.0388 0.0421,-0.09008 0.0619,-0.13605 0.0781,0.12015 0.15482,0.240301 0.23534,0.356913 0.17587,0.295068 0.4657,0.3357 0.68865,0.134276 0.15481,0.323349 0.45703,0.43996 0.7035,0.247369 0.0904,-0.07419 0.15111,-0.18376 0.19694,-0.305675 0.21304,0.185524 0.4781,0.123689 0.64654,-0.120141 0.0222,0.0388 0.0471,0.07419 0.0668,0.116612 0.17588,0.339239 0.5103,0.41168 0.7481,0.160792 0.10771,-0.113083 0.17216,-0.275639 0.19941,-0.448793 0.17465,0.04601 0.36044,-0.0194 0.48925,-0.219088 0.0434,-0.06717 0.0719,-0.143128 0.0941,-0.220862 0.21427,0.226156 0.43226,0.445254 0.66264,0.63961 0.20561,0.180211 0.45827,0.128973 0.6292,-0.08832 0.21922,0.173154 0.50039,0.116612 0.66636,-0.173163 0.0161,-0.02827 0.0222,-0.06366 0.0359,-0.09544 0.0978,0.118377 0.19074,0.24383 0.27373,0.381645 0.1833,0.321575 0.52267,0.374577 0.75181,0.10779 0.0668,-0.07779 0.11266,-0.178467 0.14492,-0.286246 0.18455,0.160792 0.42607,0.155489 0.6069,-0.04241 0.10401,-0.116622 0.16349,-0.277394 0.18826,-0.447028 0.14988,0.189062 0.29851,0.37989 0.44714,0.572472 0.22169,0.273875 0.55983,0.238536 0.75182,-0.08306 0.0236,-0.0388 0.0335,-0.08481 0.0508,-0.128973 0.0656,0.09544 0.13132,0.190808 0.19198,0.295059 0.1796,0.328642 0.51773,0.386948 0.75182,0.130747 0.0557,-0.0619 0.0991,-0.137815 0.13255,-0.220853 0.16969,0.295068 0.46942,0.378116 0.6998,0.162547 0.0719,-0.06541 0.1239,-0.155489 0.16349,-0.254427 0.21055,0.250898 0.52764,0.245585 0.7258,-0.03178 0.0273,-0.0388 0.0421,-0.09008 0.0619,-0.13604 0.0781,0.12014 0.15484,0.240291 0.23534,0.356903 0.17588,0.295068 0.46571,0.335709 0.68865,0.134276 0.15483,0.323348 0.45704,0.43996 0.70352,0.247369 0.0904,-0.07419 0.15111,-0.18375 0.19694,-0.305675 0.21303,0.185534 0.47684,0.123689 0.64653,-0.120141 0.0222,0.0388 0.0471,0.07419 0.0668,0.116612 0.17588,0.339239 0.51029,0.41168 0.7481,0.160792 0.10771,-0.113083 0.17216,-0.275639 0.19941,-0.448793 0.17464,0.04592 0.3592,-0.0194 0.48923,-0.219088 0.0434,-0.06717 0.0719,-0.143118 0.0941,-0.220862 0.21429,0.226156 0.43228,0.445254 0.66264,0.63961 0.20562,0.180221 0.45828,0.128983 0.62921,-0.08832 0.21923,0.173153 0.50039,0.116612 0.66636,-0.173163 0.0161,-0.02827 0.0222,-0.06366 0.0359,-0.09544 0.0978,0.118377 0.19074,0.24383 0.27373,0.381655 0.1833,0.321565 0.52267,0.374567 0.75182,0.10778 0.0681,-0.07779 0.11265,-0.178467 0.14491,-0.286246 0.1833,0.160792 0.42607,0.155489 0.60691,-0.04231 0.104,-0.116612 0.16349,-0.277394 0.18825,-0.447018 0.14987,0.189053 0.29851,0.37987 0.44714,0.572462 0.2217,0.273865 0.55983,0.238537 0.75182,-0.08306 0.0236,-0.0388 0.0335,-0.08481 0.0508,-0.128973 0.0656,0.09544 0.13131,0.190827 0.19197,0.295068 0.1796,0.328632 0.51772,0.386938 0.75182,0.130747 0.0557,-0.0619 0.0991,-0.137815 0.13255,-0.220862 0.16844,0.295078 0.46942,0.378116 0.69855,0.162556 0.0718,-0.06541 0.12391,-0.155489 0.16474,-0.254426 0.21056,0.250897 0.52764,0.245594 0.72581,-0.03178 0.0272,-0.0388 0.0421,-0.09017 0.0619,-0.13605 0.0781,0.120141 0.15483,0.240282 0.2341,0.356903 0.17588,0.295068 0.46693,0.33571 0.68864,0.134276 0.15484,0.323339 0.45705,0.439951 0.70352,0.247359 0.0904,-0.07419 0.1511,-0.18374 0.19693,-0.305665 0.21304,0.185524 0.47686,0.12369 0.64654,-0.12014 0.0222,0.0388 0.0471,0.07419 0.067,0.116611 0.17588,0.339239 0.51029,0.41168 0.74811,0.160783 0.10771,-0.113073 0.17216,-0.27563 0.1994,-0.448783 0.17465,0.04601 0.3592,-0.0194 0.48925,-0.219088 0.0434,-0.06717 0.0705,-0.143118 0.0941,-0.220863 0.21303,0.226156 0.43226,0.445254 0.66264,0.63961 0.2056,0.180211 0.45828,0.128983 0.62919,-0.08832 0.21924,0.173143 0.50039,0.116612 0.66636,-0.173153 0.0173,-0.02827 0.0222,-0.06366 0.0359,-0.09544 0.0978,0.118376 0.19074,0.243829 0.27373,0.381644 0.18332,0.321565 0.52269,0.374577 0.75182,0.10778 0.0668,-0.07779 0.11142,-0.178456 0.14491,-0.286236 0.18332,0.160782 0.42608,0.155489 0.60691,-0.04231 0.10401,-0.116611 0.16349,-0.277404 0.18827,-0.447018 0.14986,0.189053 0.29849,0.379871 0.44712,0.572462 0.22171,0.273865 0.55985,0.238527 0.75182,-0.08306 0.0235,-0.0388 0.0335,-0.08481 0.0508,-0.128973 0.0656,0.09544 0.13131,0.190827 0.19198,0.295058 0.17959,0.328643 0.51773,0.386948 0.75181,0.130757 0.0557,-0.0619 0.0991,-0.137824 0.13255,-0.220862 0.16846,0.295068 0.46944,0.378116 0.69857,0.162556 0.0718,-0.06541 0.1239,-0.155488 0.16472,-0.254426 0.21057,0.250888 0.52764,0.245594 0.72582,-0.03178 0.0273,-0.0388 0.0421,-0.09008 0.0619,-0.136051 0.0781,0.120151 0.15482,0.240292 0.23409,0.356913 0.17588,0.295059 0.46695,0.3357 0.68866,0.134286 0.15482,0.323329 0.45826,0.439941 0.70351,0.247349 0.0904,-0.07419 0.15111,-0.18375 0.19694,-0.305665 0.21304,0.185524 0.47684,0.12368 0.64653,-0.12015 0.0222,0.0388 0.0483,0.07428 0.0681,0.116612 0.17588,0.339248 0.5103,0.411689 0.7481,0.160792 0.10771,-0.113083 0.17216,-0.27563 0.19941,-0.448783 0.17465,0.04601 0.3592,-0.0194 0.48925,-0.219098 0.0434,-0.06717 0.0707,-0.143118 0.0941,-0.220863 0.21304,0.226166 0.43226,0.445254 0.66264,0.639611 0.2056,0.18023 0.45827,0.128992 0.6292,-0.08832 0.21922,0.173153 0.49915,0.116612 0.66636,-0.173144 0.0173,-0.02827 0.0222,-0.06366 0.036,-0.09544 0.0978,0.118377 0.19074,0.24383 0.27372,0.381645 0.18331,0.321575 0.52268,0.374577 0.75182,0.10778 0.067,-0.07779 0.11142,-0.178456 0.14491,-0.286226 0.18456,0.160772 0.42608,0.155469 0.60815,-0.0425 0.10401,-0.116612 0.16349,-0.277404 0.18827,-0.447018 0.14986,0.189053 0.29849,0.37988 0.44712,0.572472 0.22171,0.273855 0.55984,0.238517 0.75182,-0.08306 0.0235,-0.0388 0.0335,-0.08481 0.0508,-0.128982 0.0656,0.09544 0.13131,0.190827 0.19197,0.295068 0.1796,0.328632 0.51774,0.386948 0.75182,0.130747 0.0557,-0.0619 0.0991,-0.137815 0.13255,-0.220862 0.16846,0.295068 0.46942,0.378115 0.69857,0.162556 0.0718,-0.06541 0.1239,-0.155479 0.16349,-0.254426 0.21055,0.250887 0.52764,0.245594 0.72705,-0.03178 0.0273,-0.0388 0.0421,-0.09008 0.0619,-0.13605 0.0781,0.120151 0.15482,0.240301 0.23409,0.356913 0.17588,0.295058 0.46695,0.33571 0.68866,0.134286 0.15482,0.323329 0.45826,0.43995 0.7035,0.247359 0.0892,-0.07428 0.15112,-0.18376 0.19695,-0.305665 0.21302,0.185514 0.47809,0.123679 0.64653,-0.12016 0.0224,0.0388 0.0483,0.07419 0.0682,0.116611 0.17588,0.339249 0.51029,0.41169 0.7481,0.160792 0.2378,-0.250897 0.28858,-0.727951 0.11265,-1.06719 -0.24648,-0.565404 -0.68618,-0.894046 -0.93637,-1.454137 -0.19198,-0.321566 -0.53135,-0.363976 -0.75677,-0.09008 -0.0557,0.06717 -0.10031,0.146647 -0.13132,0.234988 -0.15234,-0.109544 -0.33193,-0.09544 -0.48551,0.02291 -0.12391,-0.18375 -0.25515,-0.353375 -0.40626,-0.49649 -0.23285,-0.219094 -0.53383,-0.139583 -0.70476,0.16432 -0.24399,-0.20672 -0.55859,-0.118378 -0.72085,0.222626 -0.004,0.0097 -0.004,0.0194 -0.007,0.02827 -0.19693,-0.240287 -0.40006,-0.464691 -0.623,-0.655503 -0.25268,-0.197899 -0.56603,-0.07416 -0.71343,0.275632 -0.17835,-0.0565 -0.37034,0.0052 -0.50658,0.208482 -0.0259,0.0388 -0.0372,0.08481 -0.0557,0.128983 -0.18455,-0.201424 -0.38148,-0.383407 -0.61309,-0.512392 -0.21799,-0.08656 -0.4397,0.03181 -0.56975,0.273867 -0.11142,-0.128986 -0.21799,-0.268569 -0.3369,-0.386946 -0.23781,-0.243831 -0.57222,-0.166087 -0.74438,0.180226 -0.0532,0.10778 -0.0781,0.227925 -0.088,0.349836 -0.12267,-0.116613 -0.24029,-0.240289 -0.3468,-0.386947 -0.23039,-0.261493 -0.56851,-0.215551 -0.75182,0.120154 -0.0285,0.04947 -0.0421,0.109546 -0.0607,0.164321 -0.10648,-0.09368 -0.21427,-0.189058 -0.31956,-0.284475 -0.19941,-0.150181 -0.43598,-0.102462 -0.59823,0.09719 -0.2217,-0.265035 -0.54993,-0.240298 -0.74315,0.07065 -0.011,0.01766 -0.0161,0.04245 -0.0261,0.06186 -0.11512,-0.132518 -0.23037,-0.263269 -0.34681,-0.390479 -0.24647,-0.233233 -0.58089,-0.143124 -0.74438,0.208486 -0.0173,0.03708 -0.021,0.07777 -0.0335,0.116612 -0.19322,-0.07416 -0.40626,0.002 -0.54374,0.229701 -0.01,0.01589 -0.0123,0.03529 -0.021,0.05303 -0.001,-0.0029 -0.005,-0.0068 -0.007,-0.01062 -0.19199,-0.321576 -0.53012,-0.363975 -0.75677,-0.09008 -0.0557,0.06717 -0.1003,0.146647 -0.13132,0.234998 -0.15234,-0.109554 -0.33194,-0.09544 -0.48552,0.02291 -0.12391,-0.18375 -0.25515,-0.353385 -0.40625,-0.4965 -0.23287,-0.219093 -0.53383,-0.139582 -0.70476,0.16432 -0.244,-0.206719 -0.55861,-0.118377 -0.72086,0.222626 -0.004,0.0097 -0.004,0.0194 -0.007,0.02827 -0.19569,-0.240297 -0.40006,-0.464699 -0.623,-0.655513 -0.25267,-0.197899 -0.56604,-0.07426 -0.71343,0.275623 -0.17835,-0.0565 -0.37033,0.0052 -0.50658,0.208501 -0.0261,0.0388 -0.0372,0.08481 -0.0557,0.128983 -0.18455,-0.201434 -0.38024,-0.383416 -0.61309,-0.512402 -0.21799,-0.08656 -0.4397,0.03181 -0.56975,0.273867 -0.11142,-0.128985 -0.218,-0.268568 -0.33689,-0.386946 -0.23782,-0.243831 -0.57223,-0.166086 -0.7444,0.180227 -0.0532,0.10777 -0.0781,0.227924 -0.0879,0.349835 -0.12267,-0.116612 -0.24029,-0.240288 -0.34681,-0.386947 -0.23036,-0.261492 -0.5685,-0.215561 -0.75182,0.120155 -0.0285,0.04947 -0.0421,0.109547 -0.0606,0.16432 -0.10648,-0.09368 -0.21428,-0.189057 -0.31955,-0.284475 -0.19941,-0.15018 -0.43598,-0.102461 -0.59823,0.09719 -0.22171,-0.265036 -0.54994,-0.240298 -0.74315,0.07065 -0.011,0.01766 -0.0161,0.04245 -0.0259,0.06187 -0.11512,-0.132518 -0.22915,-0.26327 -0.34681,-0.390489 -0.24648,-0.233223 -0.58089,-0.143115 -0.74439,0.208496 -0.0173,0.03708 -0.021,0.07777 -0.0335,0.116612 -0.19321,-0.07416 -0.40625,0.002 -0.54374,0.229692 -0.01,0.01589 -0.0123,0.03529 -0.021,0.05293 -0.001,-0.0029 -0.004,-0.0068 -0.007,-0.01063 -0.19198,-0.321576 -0.53011,-0.363975 -0.75678,-0.09008 -0.0557,0.06717 -0.1003,0.146647 -0.13131,0.234988 -0.15233,-0.109544 -0.33193,-0.09544 -0.48552,0.02291 -0.1239,-0.18376 -0.25514,-0.353376 -0.40626,-0.496491 -0.23285,-0.219093 -0.53382,-0.139582 -0.70475,0.16432 -0.24399,-0.206719 -0.5586,-0.118377 -0.72085,0.222627 -0.004,0.0097 -0.004,0.0194 -0.007,0.02827 -0.1957,-0.240298 -0.40006,-0.464691 -0.62301,-0.655514 -0.25267,-0.197889 -0.56603,-0.07416 -0.71342,0.275632 -0.17835,-0.0565 -0.37034,0.0052 -0.50658,0.208503 -0.0259,0.0388 -0.0372,0.08481 -0.0557,0.128982 -0.18455,-0.201434 -0.38024,-0.383417 -0.61309,-0.512402 -0.218,-0.08656 -0.4397,0.03181 -0.56976,0.273867 -0.11141,-0.128986 -0.21799,-0.268568 -0.33689,-0.386946 -0.23904,-0.243831 -0.57346,-0.166087 -0.74439,0.180226 -0.0532,0.10777 -0.0781,0.227925 -0.088,0.349837 -0.12267,-0.116614 -0.24029,-0.2403 -0.34681,-0.386948 -0.23036,-0.261492 -0.5685,-0.215561 -0.75182,0.120154 -0.0285,0.04947 -0.0421,0.109537 -0.0594,0.164311 -0.10771,-0.09368 -0.21551,-0.189048 -0.32079,-0.284465 -0.19941,-0.15018 -0.43598,-0.102461 -0.59824,0.09719 -0.22171,-0.265036 -0.54992,-0.240298 -0.74314,0.07065 -0.0123,0.01766 -0.0161,0.04246 -0.0259,0.06187 -0.11526,-0.132508 -0.22913,-0.26326 -0.3468,-0.390479 -0.24648,-0.233224 -0.5809,-0.143115 -0.74439,0.208497 -0.0173,0.03708 -0.021,0.07777 -0.0335,0.116611 -0.19322,-0.07416 -0.40626,0.002 -0.54373,0.229692 -0.01,0.01589 -0.0123,0.03529 -0.021,0.05293 -0.001,-0.0029 -0.004,-0.0068 -0.007,-0.01063 -0.19198,-0.321577 -0.53011,-0.363976 -0.75553,-0.09008 -0.0557,0.06717 -0.10154,0.146647 -0.13255,0.234988 -0.15235,-0.109544 -0.33195,-0.09544 -0.48553,0.02291 -0.1239,-0.183759 -0.25515,-0.353376 -0.40625,-0.496491 -0.23285,-0.219094 -0.53383,-0.139583 -0.70475,0.16432 -0.24401,-0.206719 -0.55861,-0.118378 -0.72087,0.222627 -0.004,0.0097 -0.004,0.0194 -0.007,0.02827 -0.19569,-0.240299 -0.40006,-0.464691 -0.623,-0.655515 -0.25266,-0.197888 -0.56727,-0.07416 -0.71466,0.275634 -0.17835,-0.0565 -0.37034,0.0052 -0.50658,0.208492 -0.0259,0.0388 -0.0372,0.08481 -0.0557,0.128993 -0.18455,-0.201435 -0.38024,-0.383417 -0.61309,-0.512403 -0.21676,-0.08656 -0.4397,0.03181 -0.56975,0.273867 -0.11142,-0.128985 -0.218,-0.268569 -0.33689,-0.386946 -0.23782,-0.243831 -0.57224,-0.166086 -0.7444,0.180216 -0.0532,0.107781 -0.0781,0.227935 -0.088,0.349847 -0.12267,-0.116614 -0.24152,-0.2403 -0.34681,-0.386948 -0.23036,-0.261493 -0.5685,-0.215561 -0.75182,0.120144 -0.0285,0.04947 -0.0421,0.109547 -0.0594,0.16432 -0.10771,-0.09368 -0.21551,-0.189047 -0.32079,-0.284464 -0.19941,-0.15018 -0.43598,-0.102461 -0.59824,0.09719 -0.22171,-0.265036 -0.54992,-0.240299 -0.74314,0.07065 -0.0124,0.01767 -0.0161,0.04246 -0.0261,0.06187 -0.11389,-0.132507 -0.22914,-0.263259 -0.34681,-0.390478 -0.24648,-0.233223 -0.58089,-0.143115 -0.74438,0.208496 -0.0173,0.03708 -0.021,0.07777 -0.0335,0.116612 -0.19323,-0.07416 -0.40502,0.002 -0.54374,0.229691 -0.008,0.01589 -0.0124,0.03529 -0.021,0.05293 -0.001,-0.0029 -0.004,-0.0068 -0.007,-0.01063 -0.19198,-0.321576 -0.53135,-0.363976 -0.75677,-0.09008 -0.0557,0.06717 -0.10031,0.146647 -0.13132,0.234988 -0.15235,-0.109544 -0.33194,-0.09544 -0.48676,0.02291 -0.12391,-0.18376 -0.25515,-0.353375 -0.40625,-0.496491 -0.23286,-0.219094 -0.53384,-0.139583 -0.70475,0.164321 -0.24401,-0.20673 -0.55738,-0.118379 -0.71962,0.222626 -0.004,0.0097 -0.005,0.0194 -0.008,0.02827 -0.19571,-0.240298 -0.39883,-0.46469 -0.62302,-0.655514 -0.25266,-0.197889 -0.56727,-0.07416 -0.71341,0.275633 -0.17837,-0.0565 -0.37159,0.0052 -0.50783,0.208493 -0.0248,0.0388 -0.0372,0.08481 -0.0557,0.128972 -0.18455,-0.201415 -0.38148,-0.383396 -0.61309,-0.512382 -0.21676,-0.08656 -0.4397,0.03181 -0.56975,0.273866 -0.11142,-0.128984 -0.21675,-0.268567 -0.33689,-0.386946 -0.23782,-0.24383 -0.57223,-0.166085 -0.7444,0.180217 -0.0532,0.10778 -0.0768,0.227934 -0.0879,0.349846 -0.12267,-0.116612 -0.24029,-0.2403 -0.34556,-0.386947 -0.23038,-0.261493 -0.56851,-0.215561 -0.75306,0.120144 -0.0273,0.04947 -0.0421,0.109547 -0.0594,0.16432 -0.10648,-0.09368 -0.21427,-0.189047 -0.32079,-0.284464 -0.19941,-0.15018 -0.43598,-0.102461 -0.59824,0.09719 -0.22169,-0.265035 -0.54992,-0.240298 -0.74314,0.07065 -0.0123,0.01766 -0.0161,0.04245 -0.0261,0.06186 -0.11389,-0.132508 -0.22914,-0.26326 -0.34681,-0.390479 -0.24152,-0.240288 -0.57594,-0.15018 -0.73943,0.199654 z"
       style="fill:#bfa794;stroke:#000000;stroke-width:0.66569895"
       inkscape:connector-curvature="0" />
    <path
       id="path4244-5"
       d="m 175.28037,111.9377 c 0.0371,0.0173 0.0778,0.021 0.11662,0.0335 -0.0742,0.19321 0.002,0.40501 0.22969,0.54373 0.0159,0.008 0.0353,0.0123 0.053,0.021 -0.003,0.001 -0.007,0.004 -0.0106,0.007 -0.32158,0.19197 -0.36399,0.53134 -0.0901,0.75677 0.0672,0.0569 0.14665,0.1003 0.235,0.13131 -0.10955,0.15235 -0.0954,0.33193 0.0229,0.48552 -0.18376,0.1239 -0.35338,0.25639 -0.49649,0.40749 -0.2191,0.23285 -0.13959,0.53383 0.16432,0.70476 -0.0159,0.0185 -0.0194,0.0409 -0.0318,0.0606 l 2.28457,0 c -0.01,-0.007 -0.0106,-0.0148 -0.0212,-0.0222 -0.0388,-0.0273 -0.0901,-0.0421 -0.13605,-0.0619 0.12016,-0.0768 0.2403,-0.15481 0.35691,-0.23408 0.29507,-0.17588 0.3357,-0.46572 0.13429,-0.68866 0.32333,-0.15482 0.43995,-0.45703 0.24735,-0.70352 -0.0742,-0.0892 -0.18376,-0.1511 -0.30566,-0.19693 0.18552,-0.21304 0.12367,-0.47809 -0.12015,-0.64654 0.0388,-0.0222 0.0742,-0.0483 0.11661,-0.0668 0.33924,-0.17588 0.41169,-0.51029 0.16079,-0.7481 -0.11308,-0.10771 -0.27563,-0.17093 -0.44879,-0.19818 0.0459,-0.17464 -0.0194,-0.36043 -0.2191,-0.48924 -0.0672,-0.0434 -0.14312,-0.0719 -0.22086,-0.0941 0.22618,-0.21427 0.44526,-0.43227 0.63962,-0.66263 0.18022,-0.20562 0.12898,-0.45828 -0.0883,-0.63044 0.17316,-0.21924 0.11662,-0.49916 -0.17314,-0.66637 -0.0283,-0.0173 -0.0637,-0.0222 -0.0954,-0.0359 0.11837,-0.0978 0.24383,-0.19074 0.38163,-0.27372 0.32158,-0.18331 0.37458,-0.52269 0.10778,-0.75182 -0.0778,-0.0681 -0.17845,-0.11265 -0.28623,-0.14491 0.16079,-0.18455 0.15549,-0.42608 -0.0424,-0.60691 -0.11662,-0.10401 -0.2774,-0.16349 -0.44702,-0.18951 0.18906,-0.14862 0.37989,-0.29849 0.57247,-0.44588 0.27387,-0.22171 0.23854,-0.55983 -0.0831,-0.75182 -0.0388,-0.0236 -0.0848,-0.0335 -0.12898,-0.0508 0.0954,-0.0656 0.19081,-0.13131 0.29506,-0.19198 0.32865,-0.18083 0.38695,-0.51773 0.13075,-0.75182 -0.0619,-0.0557 -0.13781,-0.0991 -0.22085,-0.13254 0.29506,-0.1697 0.37809,-0.46942 0.16255,-0.69981 -0.0654,-0.0719 -0.15549,-0.1239 -0.25444,-0.16348 0.25091,-0.21057 0.24559,-0.52764 -0.0318,-0.72582 -0.0388,-0.0272 -0.0901,-0.0421 -0.13605,-0.0619 0.12015,-0.0781 0.2403,-0.15482 0.35691,-0.23534 0.29507,-0.17587 0.3357,-0.4657 0.13428,-0.68865 0.32335,-0.15481 0.43996,-0.45703 0.24737,-0.7035 -0.0742,-0.0904 -0.18376,-0.15111 -0.30568,-0.19694 0.18553,-0.21304 0.12369,-0.4781 -0.12014,-0.64654 0.0388,-0.0222 0.0742,-0.0471 0.11661,-0.0668 0.33924,-0.17588 0.41168,-0.5103 0.16079,-0.7481 -0.11308,-0.10771 -0.27563,-0.17216 -0.44879,-0.19941 0.046,-0.17465 -0.0194,-0.36044 -0.21909,-0.48925 -0.0672,-0.0434 -0.14312,-0.0719 -0.22086,-0.0941 0.22616,-0.21427 0.44526,-0.43226 0.63961,-0.66264 0.18021,-0.20561 0.12897,-0.45827 -0.0883,-0.6292 0.17316,-0.21922 0.11661,-0.50039 -0.17316,-0.66636 -0.0283,-0.0161 -0.0637,-0.0222 -0.0954,-0.0359 0.11838,-0.0978 0.24383,-0.19074 0.38164,-0.27373 0.32158,-0.1833 0.37458,-0.52267 0.10779,-0.75181 -0.0778,-0.0668 -0.17846,-0.11266 -0.28624,-0.14492 0.16079,-0.18455 0.15549,-0.42607 -0.0424,-0.6069 -0.11662,-0.10401 -0.2774,-0.16349 -0.44703,-0.18826 0.18906,-0.14988 0.37989,-0.29851 0.57247,-0.44714 0.27388,-0.22169 0.23854,-0.55983 -0.0831,-0.75182 -0.0388,-0.0236 -0.0848,-0.0335 -0.12897,-0.0508 0.0954,-0.0656 0.19081,-0.13132 0.29506,-0.19198 0.32864,-0.1796 0.38695,-0.51773 0.13074,-0.75182 -0.0619,-0.0557 -0.13781,-0.0991 -0.22085,-0.13255 0.29507,-0.16969 0.37812,-0.46942 0.16255,-0.6998 -0.0654,-0.0719 -0.15549,-0.1239 -0.25443,-0.16349 0.2509,-0.21055 0.24559,-0.52764 -0.0318,-0.7258 -0.0388,-0.0273 -0.0901,-0.0421 -0.13604,-0.0619 0.12014,-0.0781 0.24029,-0.15484 0.3569,-0.23534 0.29507,-0.17588 0.33571,-0.46571 0.13428,-0.68865 0.32335,-0.15483 0.43996,-0.45704 0.24737,-0.70352 -0.0742,-0.0904 -0.18375,-0.15111 -0.30568,-0.19694 0.18554,-0.21303 0.12369,-0.47684 -0.12014,-0.64653 0.0388,-0.0222 0.0742,-0.0471 0.11662,-0.0668 0.33923,-0.17588 0.41168,-0.51029 0.16079,-0.7481 -0.11309,-0.10771 -0.27564,-0.17216 -0.4488,-0.19941 0.0459,-0.17464 -0.0194,-0.3592 -0.21908,-0.48923 -0.0672,-0.0434 -0.14312,-0.0719 -0.22087,-0.0941 0.22616,-0.21429 0.44526,-0.43228 0.63961,-0.66264 0.18023,-0.20562 0.12899,-0.45828 -0.0883,-0.62921 0.17316,-0.21923 0.11662,-0.50039 -0.17316,-0.66636 -0.0283,-0.0161 -0.0637,-0.0222 -0.0954,-0.0359 0.11838,-0.0978 0.24383,-0.19074 0.38166,-0.27373 0.32156,-0.1833 0.37456,-0.52267 0.10778,-0.75182 -0.0778,-0.0681 -0.17847,-0.11265 -0.28625,-0.14491 0.16079,-0.1833 0.15549,-0.42607 -0.0423,-0.60691 -0.11661,-0.104 -0.27739,-0.16349 -0.44702,-0.18825 0.18906,-0.14987 0.37987,-0.29851 0.57246,-0.44714 0.27387,-0.2217 0.23854,-0.55983 -0.0831,-0.75182 -0.0388,-0.0236 -0.0848,-0.0335 -0.12897,-0.0508 0.0954,-0.0656 0.19083,-0.13131 0.29507,-0.19197 0.32863,-0.1796 0.38694,-0.51772 0.13075,-0.75182 -0.0619,-0.0557 -0.13782,-0.0991 -0.22087,-0.13255 0.29508,-0.16844 0.37812,-0.46942 0.16256,-0.69855 -0.0654,-0.0718 -0.15549,-0.12391 -0.25443,-0.16474 0.2509,-0.21056 0.2456,-0.52764 -0.0318,-0.72581 -0.0388,-0.0272 -0.0902,-0.0421 -0.13605,-0.0619 0.12015,-0.0781 0.24029,-0.15483 0.35691,-0.2341 0.29507,-0.17588 0.33571,-0.46693 0.13427,-0.68864 0.32334,-0.15484 0.43995,-0.45705 0.24736,-0.70352 -0.0742,-0.0904 -0.18374,-0.1511 -0.30566,-0.19693 0.18552,-0.21304 0.12369,-0.47686 -0.12014,-0.64654 0.0388,-0.0222 0.0742,-0.0471 0.11661,-0.067 0.33924,-0.17588 0.41168,-0.51029 0.16078,-0.74811 -0.11307,-0.10771 -0.27563,-0.17216 -0.44878,-0.1994 0.046,-0.17465 -0.0194,-0.3592 -0.21909,-0.48925 -0.0672,-0.0434 -0.14312,-0.0705 -0.22086,-0.0941 0.22615,-0.21303 0.44525,-0.43226 0.63961,-0.66264 0.18021,-0.2056 0.12898,-0.45828 -0.0883,-0.62919 0.17314,-0.21924 0.11661,-0.50039 -0.17316,-0.66636 -0.0283,-0.0173 -0.0637,-0.0222 -0.0954,-0.0359 0.11838,-0.0978 0.24383,-0.19074 0.38165,-0.27373 0.32156,-0.18332 0.37458,-0.52269 0.10778,-0.75182 -0.0778,-0.0668 -0.17846,-0.11142 -0.28624,-0.14491 0.16078,-0.18332 0.15549,-0.42608 -0.0423,-0.60691 -0.11661,-0.10401 -0.2774,-0.16349 -0.44702,-0.18827 0.18906,-0.14986 0.37988,-0.29849 0.57247,-0.44712 0.27386,-0.22171 0.23852,-0.55985 -0.0831,-0.75182 -0.0388,-0.0235 -0.0848,-0.0335 -0.12898,-0.0508 0.0954,-0.0656 0.19083,-0.13131 0.29506,-0.19198 0.32864,-0.17959 0.38695,-0.51773 0.13076,-0.75181 -0.0619,-0.0557 -0.13783,-0.0991 -0.22086,-0.13255 0.29506,-0.16846 0.37811,-0.46944 0.16255,-0.69857 -0.0654,-0.0718 -0.15549,-0.1239 -0.25442,-0.16472 0.25088,-0.21057 0.24559,-0.52764 -0.0318,-0.72582 -0.0388,-0.0273 -0.0901,-0.0421 -0.13605,-0.0619 0.12015,-0.0781 0.24029,-0.15482 0.35691,-0.23409 0.29506,-0.17588 0.3357,-0.46695 0.13428,-0.68866 0.32333,-0.15482 0.43995,-0.45826 0.24735,-0.70351 -0.0742,-0.0904 -0.18375,-0.15111 -0.30566,-0.19694 0.18552,-0.21304 0.12368,-0.47684 -0.12015,-0.64653 0.0388,-0.0222 0.0743,-0.0483 0.11661,-0.0681 0.33925,-0.17588 0.41169,-0.5103 0.16079,-0.7481 -0.11308,-0.10771 -0.27563,-0.17216 -0.44878,-0.19941 0.046,-0.17465 -0.0194,-0.3592 -0.2191,-0.48925 -0.0672,-0.0434 -0.14312,-0.0707 -0.22086,-0.0941 0.22616,-0.21304 0.44525,-0.43226 0.63961,-0.66264 0.18023,-0.2056 0.12899,-0.45827 -0.0883,-0.6292 0.17315,-0.21922 0.11661,-0.49915 -0.17314,-0.66636 -0.0283,-0.0173 -0.0637,-0.0222 -0.0954,-0.036 0.11837,-0.0978 0.24383,-0.19074 0.38164,-0.27372 0.32158,-0.18331 0.37458,-0.52268 0.10778,-0.75182 -0.0778,-0.067 -0.17846,-0.11142 -0.28623,-0.14491 0.16078,-0.18456 0.15547,-0.42608 -0.0425,-0.60815 -0.11661,-0.10401 -0.2774,-0.16349 -0.44701,-0.18827 0.18905,-0.14986 0.37988,-0.29849 0.57247,-0.44712 0.27385,-0.22171 0.23852,-0.55984 -0.0831,-0.75182 -0.0388,-0.0235 -0.0848,-0.0335 -0.12898,-0.0508 0.0954,-0.0656 0.19082,-0.13131 0.29506,-0.19197 0.32864,-0.1796 0.38695,-0.51774 0.13075,-0.75182 -0.0619,-0.0557 -0.13781,-0.0991 -0.22086,-0.13255 0.29507,-0.16846 0.37811,-0.46942 0.16256,-0.69857 -0.0654,-0.0718 -0.15548,-0.1239 -0.25443,-0.16349 0.25089,-0.21055 0.24559,-0.52764 -0.0318,-0.72705 -0.0388,-0.0273 -0.0901,-0.0421 -0.13605,-0.0619 0.12015,-0.0781 0.2403,-0.15482 0.35691,-0.23409 0.29506,-0.17588 0.33571,-0.46695 0.13429,-0.68866 0.32333,-0.15482 0.43995,-0.45826 0.24736,-0.7035 -0.0743,-0.0892 -0.18376,-0.15112 -0.30567,-0.19695 0.18552,-0.21302 0.12368,-0.47809 -0.12016,-0.64653 0.0388,-0.0224 0.0742,-0.0483 0.11661,-0.0682 0.33925,-0.17588 0.41169,-0.51029 0.1608,-0.7481 -0.2509,-0.2378 -0.72796,-0.28858 -1.06719,-0.11265 -0.56541,0.24648 -0.89405,0.68618 -1.45414,0.93637 -0.32157,0.19198 -0.36398,0.53135 -0.0901,0.75677 0.0672,0.0557 0.14665,0.10031 0.23499,0.13132 -0.10955,0.15234 -0.0954,0.33193 0.0229,0.48551 -0.18375,0.12391 -0.35338,0.25515 -0.49649,0.40626 -0.2191,0.23285 -0.13959,0.53383 0.16432,0.70476 -0.20672,0.24399 -0.11838,0.55859 0.22262,0.72085 0.01,0.004 0.0194,0.004 0.0283,0.007 -0.24028,0.19693 -0.46469,0.40006 -0.6555,0.623 -0.1979,0.25268 -0.0742,0.56603 0.27563,0.71343 -0.0565,0.17835 0.005,0.37034 0.20848,0.50658 0.0388,0.0259 0.0848,0.0372 0.12899,0.0557 -0.20143,0.18455 -0.38341,0.38148 -0.5124,0.61309 -0.0866,0.21799 0.0318,0.4397 0.27387,0.56975 -0.12898,0.11142 -0.26857,0.21799 -0.38694,0.3369 -0.24384,0.23781 -0.16609,0.57222 0.18022,0.74438 0.10778,0.0532 0.22793,0.0781 0.34984,0.088 -0.11662,0.12267 -0.24029,0.24029 -0.38695,0.3468 -0.26149,0.23039 -0.21555,0.56851 0.12015,0.75182 0.0495,0.0285 0.10955,0.0421 0.16433,0.0607 -0.0937,0.10648 -0.18906,0.21427 -0.28448,0.31956 -0.15018,0.19941 -0.10246,0.43598 0.0972,0.59823 -0.26503,0.2217 -0.2403,0.54993 0.0707,0.74315 0.0177,0.011 0.0425,0.0161 0.0619,0.0261 -0.13252,0.11512 -0.26327,0.23037 -0.39048,0.34681 -0.23323,0.24647 -0.14312,0.58089 0.20849,0.74438 0.0371,0.0173 0.0778,0.021 0.11661,0.0335 -0.0742,0.19322 0.002,0.40626 0.2297,0.54374 0.0159,0.01 0.0353,0.0123 0.053,0.021 -0.003,10e-4 -0.007,0.005 -0.0106,0.007 -0.32158,0.19199 -0.36397,0.53012 -0.0901,0.75677 0.0672,0.0557 0.14665,0.1003 0.235,0.13132 -0.10956,0.15234 -0.0954,0.33194 0.0229,0.48552 -0.18375,0.12391 -0.35339,0.25515 -0.4965,0.40625 -0.21909,0.23287 -0.13958,0.53383 0.16432,0.70476 -0.20672,0.244 -0.11838,0.55861 0.22262,0.72086 0.01,0.004 0.0194,0.004 0.0283,0.007 -0.24029,0.19569 -0.46469,0.40006 -0.65551,0.623 -0.1979,0.25267 -0.0743,0.56604 0.27562,0.71343 -0.0565,0.17835 0.005,0.37033 0.20851,0.50658 0.0388,0.0261 0.0848,0.0372 0.12898,0.0557 -0.20144,0.18455 -0.38342,0.38024 -0.5124,0.61309 -0.0866,0.21799 0.0318,0.4397 0.27386,0.56975 -0.12898,0.11142 -0.26856,0.218 -0.38694,0.33689 -0.24383,0.23782 -0.16609,0.57223 0.18022,0.7444 0.10777,0.0532 0.22793,0.0781 0.34984,0.0879 -0.11661,0.12267 -0.24029,0.24029 -0.38695,0.34681 -0.26149,0.23036 -0.21556,0.5685 0.12016,0.75182 0.0495,0.0285 0.10954,0.0421 0.16432,0.0606 -0.0937,0.10648 -0.18906,0.21428 -0.28448,0.31955 -0.15018,0.19941 -0.10246,0.43598 0.0972,0.59823 -0.26503,0.22171 -0.2403,0.54994 0.0707,0.74315 0.0177,0.011 0.0425,0.0161 0.0619,0.0259 -0.13252,0.11512 -0.26327,0.22915 -0.39049,0.34681 -0.23322,0.24648 -0.14311,0.58089 0.2085,0.74439 0.0371,0.0173 0.0778,0.021 0.11661,0.0335 -0.0742,0.19321 0.002,0.40625 0.22969,0.54374 0.0159,0.01 0.0353,0.0123 0.0529,0.021 -0.003,10e-4 -0.007,0.004 -0.0106,0.007 -0.32157,0.19198 -0.36397,0.53011 -0.0901,0.75678 0.0672,0.0557 0.14665,0.1003 0.23499,0.13131 -0.10954,0.15233 -0.0954,0.33193 0.0229,0.48552 -0.18376,0.1239 -0.35337,0.25514 -0.49649,0.40626 -0.21909,0.23285 -0.13958,0.53382 0.16432,0.70475 -0.20672,0.24399 -0.11838,0.5586 0.22263,0.72085 0.01,0.004 0.0194,0.004 0.0283,0.007 -0.2403,0.1957 -0.46469,0.40006 -0.65552,0.62301 -0.19789,0.25267 -0.0742,0.56603 0.27564,0.71342 -0.0565,0.17835 0.005,0.37034 0.2085,0.50658 0.0388,0.0259 0.0848,0.0372 0.12898,0.0557 -0.20143,0.18455 -0.38342,0.38024 -0.5124,0.61309 -0.0866,0.218 0.0318,0.4397 0.27387,0.56976 -0.12899,0.11141 -0.26857,0.21799 -0.38695,0.33689 -0.24383,0.23904 -0.16609,0.57346 0.18023,0.74439 0.10777,0.0532 0.22792,0.0781 0.34983,0.088 -0.11661,0.12267 -0.2403,0.24029 -0.38695,0.34681 -0.26149,0.23036 -0.21556,0.5685 0.12016,0.75182 0.0495,0.0285 0.10954,0.0421 0.16431,0.0594 -0.0937,0.10771 -0.18905,0.21551 -0.28447,0.32079 -0.15018,0.19941 -0.10246,0.43598 0.0972,0.59824 -0.26503,0.22171 -0.24029,0.54992 0.0707,0.74314 0.0177,0.0123 0.0425,0.0161 0.0619,0.0259 -0.1325,0.11526 -0.26326,0.22913 -0.39047,0.3468 -0.23323,0.24648 -0.14312,0.5809 0.20849,0.74439 0.0371,0.0173 0.0778,0.021 0.11661,0.0335 -0.0742,0.19322 0.002,0.40626 0.2297,0.54373 0.0159,0.01 0.0353,0.0123 0.0529,0.021 -0.003,10e-4 -0.007,0.004 -0.0106,0.007 -0.32158,0.19198 -0.36398,0.53011 -0.0901,0.75553 0.0672,0.0557 0.14664,0.10154 0.23498,0.13255 -0.10954,0.15235 -0.0954,0.33195 0.0229,0.48553 -0.18376,0.1239 -0.35337,0.25515 -0.49649,0.40625 -0.21909,0.23285 -0.13958,0.53383 0.16432,0.70475 -0.20672,0.24401 -0.11838,0.55861 0.22263,0.72087 0.01,0.004 0.0194,0.004 0.0283,0.007 -0.2403,0.19569 -0.46469,0.40006 -0.65552,0.623 -0.19788,0.25266 -0.0742,0.56727 0.27564,0.71466 -0.0565,0.17835 0.005,0.37034 0.20849,0.50658 0.0388,0.0259 0.0848,0.0372 0.12899,0.0557 -0.20143,0.18455 -0.38341,0.38024 -0.5124,0.61309 -0.0866,0.21676 0.0318,0.4397 0.27387,0.56975 -0.12899,0.11142 -0.26857,0.218 -0.38695,0.33689 -0.24383,0.23782 -0.16608,0.57224 0.18022,0.7444 0.10778,0.0532 0.22793,0.0781 0.34984,0.088 -0.11661,0.12267 -0.2403,0.24152 -0.38694,0.34681 -0.2615,0.23036 -0.21556,0.5685 0.12014,0.75182 0.0495,0.0285 0.10955,0.0421 0.16432,0.0594 -0.0937,0.10771 -0.18905,0.21551 -0.28446,0.32079 -0.15018,0.19941 -0.10246,0.43598 0.0972,0.59824 -0.26504,0.22171 -0.2403,0.54992 0.0707,0.74314 0.0177,0.0124 0.0425,0.0161 0.0619,0.0261 -0.13251,0.11389 -0.26326,0.22914 -0.39048,0.34681 -0.23322,0.24648 -0.14312,0.58089 0.20849,0.74438 0.0371,0.0173 0.0778,0.021 0.11662,0.0335 -0.0742,0.19323 0.002,0.40502 0.22969,0.54374 0.0159,0.008 0.0353,0.0124 0.0529,0.021 -0.003,0.001 -0.007,0.004 -0.0106,0.007 -0.32158,0.19198 -0.36398,0.53135 -0.0901,0.75677 0.0672,0.0557 0.14664,0.10031 0.23499,0.13132 -0.10955,0.15235 -0.0954,0.33194 0.0229,0.48676 -0.18376,0.12391 -0.35338,0.25515 -0.4965,0.40625 -0.21909,0.23286 -0.13958,0.53384 0.16433,0.70475 -0.20673,0.24401 -0.11838,0.55738 0.22262,0.71962 0.01,0.004 0.0194,0.005 0.0283,0.008 -0.2403,0.19571 -0.46469,0.39883 -0.65551,0.62302 -0.19789,0.25266 -0.0742,0.56727 0.27563,0.71341 -0.0565,0.17837 0.005,0.37159 0.20849,0.50783 0.0388,0.0248 0.0848,0.0372 0.12898,0.0557 -0.20142,0.18455 -0.3834,0.38148 -0.51239,0.61309 -0.0866,0.21676 0.0318,0.4397 0.27387,0.56975 -0.12898,0.11142 -0.26857,0.21675 -0.38695,0.33689 -0.24383,0.23782 -0.16608,0.57223 0.18022,0.7444 0.10778,0.0532 0.22793,0.0768 0.34985,0.0879 -0.11662,0.12267 -0.2403,0.24029 -0.38695,0.34556 -0.26149,0.23038 -0.21556,0.56851 0.12014,0.75306 0.0495,0.0273 0.10955,0.0421 0.16432,0.0594 -0.0937,0.10648 -0.18904,0.21427 -0.28446,0.32079 -0.15018,0.19941 -0.10246,0.43598 0.0972,0.59824 -0.26504,0.22169 -0.2403,0.54992 0.0707,0.74314 0.0177,0.0123 0.0425,0.0161 0.0619,0.0261 -0.13251,0.11389 -0.26326,0.22914 -0.39048,0.34681 -0.24029,0.24152 -0.15018,0.57594 0.19965,0.73943 z"
       style="fill:#bfa794;stroke:#000000;stroke-width:0.66569895"
       inkscape:connector-curvature="0" />
    <rect
       style="color:#000000;clip-rule:nonzero;display:inline;overflow:visible;visibility:visible;opacity:1;isolation:auto;mix-blend-mode:normal;color-interpolation:sRGB;color-interpolation-filters:linearRGB;solid-color:#000000;solid-opacity:1;fill:#dedede;fill-opacity:1;fill-rule:nonzero;stroke:#000000;stroke-width:1.00996745;stroke-linecap:butt;stroke-linejoin:miter;stroke-miterlimit:1;stroke-dasharray:none;stroke-dashoffset:0;stroke-opacity:1;color-rendering:auto;image-rendering:auto;shape-rendering:auto;text-rendering:auto;enable-background:accumulate"
       id="rect4220"
       width="61.739338"
       height="34.55891"
       x="62.398857"
       y="32.211205" />
    <rect
       style="color:#000000;clip-rule:nonzero;display:inline;overflow:visible;visibility:visible;opacity:1;isolation:auto;mix-blend-mode:normal;color-interpolation:sRGB;color-interpolation-filters:linearRGB;solid-color:#000000;solid-opacity:1;fill:#dedede;fill-opacity:1;fill-rule:nonzero;stroke:#000000;stroke-width:0.875;stroke-linecap:butt;stroke-linejoin:miter;stroke-miterlimit:1;stroke-dasharray:none;stroke-dashoffset:0;stroke-opacity:1;color-rendering:auto;image-rendering:auto;shape-rendering:auto;text-rendering:auto;enable-background:accumulate"
       id="rect4222"
       width="35.869942"
       height="30.577654"
       x="159.06261"
       y="87.990021" />
    <circle
       style="color:#000000;display:inline;overflow:visible;visibility:visible;fill:#dedede;fill-opacity:1;fill-rule:nonzero;stroke:#000000;stroke-width:0.875;stroke-linecap:butt;stroke-linejoin:miter;stroke-opacity:1;marker:none;enable-background:accumulate;stroke-miterlimit:4;stroke-dasharray:none"
       id="path4226"
       cx="169.20616"
       cy="52.855114"
       r="9.2348232" />
    <path
       style="color:#000000;clip-rule:nonzero;display:inline;overflow:visible;visibility:visible;opacity:1;isolation:auto;mix-blend-mode:normal;color-interpolation:sRGB;color-interpolation-filters:linearRGB;solid-color:#000000;solid-opacity:1;fill:#dedede;fill-opacity:1;fill-rule:nonzero;stroke:#000000;stroke-width:0.875;stroke-linecap:butt;stroke-linejoin:miter;stroke-miterlimit:1;stroke-dasharray:none;stroke-dashoffset:0;stroke-opacity:1;color-rendering:auto;image-rendering:auto;shape-rendering:auto;text-rendering:auto;enable-background:accumulate"
       d="m 143.18575,66.232838 24.99135,-14.112764 1.47008,2.646143 -23.22726,13.230716"
       id="path4228"
       inkscape:connector-curvature="0" />
    <path
       style="color:#000000;clip-rule:nonzero;display:inline;overflow:visible;visibility:visible;opacity:1;isolation:auto;mix-blend-mode:normal;color-interpolation:sRGB;color-interpolation-filters:linearRGB;solid-color:#000000;solid-opacity:1;fill:none;fill-opacity:1;fill-rule:nonzero;stroke:#000000;stroke-width:0.875;stroke-linecap:butt;stroke-linejoin:miter;stroke-miterlimit:1;stroke-dasharray:none;stroke-dashoffset:0;stroke-opacity:1;color-rendering:auto;image-rendering:auto;shape-rendering:auto;text-rendering:auto;enable-background:accumulate"
       d="m 56.198068,66.82087 89.927842,0 0,79.67831"
       id="path4224"
       inkscape:connector-curvature="0"
       sodipodi:nodetypes="ccc" />
    <text
       xml:space="preserve"
       style="color:#000000;font-style:normal;font-variant:normal;font-weight:normal;font-stretch:normal;font-size:12.5px;line-height:125%;font-family:'Liberation Sans';-inkscape-font-specification:'Liberation Sans';text-indent:0;text-align:start;text-decoration:none;text-decoration-line:none;text-decoration-style:solid;text-decoration-color:#000000;letter-spacing:0px;word-spacing:0px;text-transform:none;direction:ltr;block-progression:tb;writing-mode:lr-tb;baseline-shift:baseline;text-anchor:start;white-space:normal;clip-rule:nonzero;display:inline;overflow:visible;visibility:visible;opacity:1;isolation:auto;mix-blend-mode:normal;color-interpolation:sRGB;color-interpolation-filters:linearRGB;solid-color:#000000;solid-opacity:1;fill:#000000;fill-opacity:1;fill-rule:nonzero;stroke:none;stroke-width:1.24999988px;stroke-linecap:butt;stroke-linejoin:miter;stroke-miterlimit:4;stroke-dasharray:none;stroke-dashoffset:0;stroke-opacity:1;marker:none;marker-start:none;marker-mid:none;marker-end:none;color-rendering:auto;image-rendering:auto;shape-rendering:auto;text-rendering:auto;enable-background:accumulate"
       x="88.709129"
       y="52.634071"
       id="text4938"
       sodipodi:linespacing="125%"><tspan
         sodipodi:role="line"
         id="tspan4940"
         x="88.709129"
         y="52.634071">A</tspan></text>
    <text
       xml:space="preserve"
       style="color:#000000;font-style:normal;font-variant:normal;font-weight:normal;font-stretch:normal;font-size:12.5px;line-height:125%;font-family:'Liberation Sans';-inkscape-font-specification:'Liberation Sans';text-indent:0;text-align:start;text-decoration:none;text-decoration-line:none;text-decoration-style:solid;text-decoration-color:#000000;letter-spacing:0px;word-spacing:0px;text-transform:none;direction:ltr;block-progression:tb;writing-mode:lr-tb;baseline-shift:baseline;text-anchor:start;white-space:normal;clip-rule:nonzero;display:inline;overflow:visible;visibility:visible;opacity:1;isolation:auto;mix-blend-mode:normal;color-interpolation:sRGB;color-interpolation-filters:linearRGB;solid-color:#000000;solid-opacity:1;fill:#000000;fill-opacity:1;fill-rule:nonzero;stroke:none;stroke-width:1.24999988px;stroke-linecap:butt;stroke-linejoin:miter;stroke-miterlimit:4;stroke-dasharray:none;stroke-dashoffset:0;stroke-opacity:1;marker:none;marker-start:none;marker-mid:none;marker-end:none;color-rendering:auto;image-rendering:auto;shape-rendering:auto;text-rendering:auto;enable-background:accumulate"
       x="173.14049"
       y="105.55408"
       id="text4942"
       sodipodi:linespacing="125%"><tspan
         sodipodi:role="line"
         id="tspan4944"
         x="173.14049"
         y="105.55408">B</tspan></text>
    <g
       id="g5044"
       transform="matrix(0.99243844,0.12274344,-0.12274344,0.99243844,9.4105951,26.662259)">
      <path
         inkscape:connector-curvature="0"
         id="path4220"
         d="m 47.833446,49.455675 c 0,0 2.967321,1.4521 2.967321,1.76777 0,0.31567 -1.01015,1.38896 -2.083438,2.58852 -1.073287,1.19955 -3.34613,2.77792 -3.598668,3.28299 -0.252538,0.50508 -4.798224,3.78807 -4.798224,3.78807"
         style="color:#000000;clip-rule:nonzero;display:inline;overflow:visible;visibility:visible;opacity:1;isolation:auto;mix-blend-mode:normal;color-interpolation:sRGB;color-interpolation-filters:linearRGB;solid-color:#000000;solid-opacity:1;fill:none;fill-opacity:1;fill-rule:nonzero;stroke:#000000;stroke-width:0.875;stroke-linecap:butt;stroke-linejoin:miter;stroke-miterlimit:1;stroke-dasharray:none;stroke-dashoffset:0;stroke-opacity:1;color-rendering:auto;image-rendering:auto;shape-rendering:auto;text-rendering:auto;enable-background:accumulate" />
      <path
         inkscape:connector-curvature="0"
         id="path4222"
         d="m 48.275388,49.013735 2.967319,-0.12627 c 0,0 1.51523,-2.33597 1.6415,-2.84105 0.12627,-0.50508 -0.82075,-1.13642 -1.6415,-2.58852 -0.82074,-1.45209 -1.894032,-2.90419 -2.020301,-3.28299 -0.126269,-0.37881 -2.209709,-3.85121 -2.399113,-4.41942 -0.189403,-0.56821 -5.618972,-1.6415 -6.692259,-1.6415 -1.073287,0 -8.396893,2.77792 -9.091373,2.96733 -0.69448,0.1894 -4.230014,1.57836 -4.861359,2.33597 -0.631346,0.75762 -5.555839,6.31346 -5.555839,6.31346"
         style="color:#000000;clip-rule:nonzero;display:inline;overflow:visible;visibility:visible;opacity:1;isolation:auto;mix-blend-mode:normal;color-interpolation:sRGB;color-interpolation-filters:linearRGB;solid-color:#000000;solid-opacity:1;fill:none;fill-opacity:1;fill-rule:nonzero;stroke:#000000;stroke-width:0.875;stroke-linecap:butt;stroke-linejoin:miter;stroke-miterlimit:1;stroke-dasharray:none;stroke-dashoffset:0;stroke-opacity:1;color-rendering:auto;image-rendering:auto;shape-rendering:auto;text-rendering:auto;enable-background:accumulate" />
      <path
         inkscape:connector-curvature="0"
         id="path4224-3"
         d="m 52.272917,46.636315 c -0.11765,-0.56866 -0.35296,-0.50983 -0.52944,-0.35296 -0.17648,0.15687 -0.47061,0.96083 -0.37257,0.98044 0.098,0.0196 0.54905,0.0196 0.54905,0.0196"
         style="color:#000000;clip-rule:nonzero;display:inline;overflow:visible;visibility:visible;opacity:1;isolation:auto;mix-blend-mode:normal;color-interpolation:sRGB;color-interpolation-filters:linearRGB;solid-color:#000000;solid-opacity:1;fill:none;fill-opacity:1;fill-rule:nonzero;stroke:#000000;stroke-width:0.875;stroke-linecap:butt;stroke-linejoin:miter;stroke-miterlimit:1;stroke-dasharray:none;stroke-dashoffset:0;stroke-opacity:1;color-rendering:auto;image-rendering:auto;shape-rendering:auto;text-rendering:auto;enable-background:accumulate" />
      <path
         inkscape:connector-curvature="0"
         id="path4226-6"
         d="m 47.919755,44.067555 c -0.764745,-0.33335 -1.156922,-0.56866 -1.686361,-0.49022 -0.529439,0.0784 -1.470663,0.33335 -1.705969,0.50983 -0.235307,0.17648 -1.50988,0.90201 -1.921666,1.27457 -0.411786,0.37257 -2.137364,1.52949 -2.137364,1.52949"
         style="color:#000000;clip-rule:nonzero;display:inline;overflow:visible;visibility:visible;opacity:1;isolation:auto;mix-blend-mode:normal;color-interpolation:sRGB;color-interpolation-filters:linearRGB;solid-color:#000000;solid-opacity:1;fill:none;fill-opacity:1;fill-rule:nonzero;stroke:#000000;stroke-width:0.875;stroke-linecap:butt;stroke-linejoin:miter;stroke-miterlimit:1;stroke-dasharray:none;stroke-dashoffset:0;stroke-opacity:1;color-rendering:auto;image-rendering:auto;shape-rendering:auto;text-rendering:auto;enable-background:accumulate" />
      <path
         inkscape:connector-curvature="0"
         id="path4230"
         d="m 47.31188,44.636215 c -0.6667,0.50983 -0.627483,0.72552 -1.058877,0.70592 -0.431395,-0.0196 -1.392228,-0.58827 -1.392228,-0.58827"
         style="color:#000000;clip-rule:nonzero;display:inline;overflow:visible;visibility:visible;opacity:1;isolation:auto;mix-blend-mode:normal;color-interpolation:sRGB;color-interpolation-filters:linearRGB;solid-color:#000000;solid-opacity:1;fill:none;fill-opacity:1;fill-rule:nonzero;stroke:#000000;stroke-width:0.875;stroke-linecap:butt;stroke-linejoin:miter;stroke-miterlimit:1;stroke-dasharray:none;stroke-dashoffset:0;stroke-opacity:1;color-rendering:auto;image-rendering:auto;shape-rendering:auto;text-rendering:auto;enable-background:accumulate" />
      <path
         inkscape:connector-curvature="0"
         id="path4232"
         d="m 47.01592,36.676125 c -2.55126,0 -5.435293,3.99327 -5.435293,3.99327"
         style="color:#000000;clip-rule:nonzero;display:inline;overflow:visible;visibility:visible;opacity:1;isolation:auto;mix-blend-mode:normal;color-interpolation:sRGB;color-interpolation-filters:linearRGB;solid-color:#000000;solid-opacity:1;fill:none;fill-opacity:1;fill-rule:nonzero;stroke:#000000;stroke-width:0.5;stroke-linecap:butt;stroke-linejoin:miter;stroke-miterlimit:1;stroke-dasharray:none;stroke-dashoffset:0;stroke-opacity:1;color-rendering:auto;image-rendering:auto;shape-rendering:auto;text-rendering:auto;enable-background:accumulate" />
      <path
         inkscape:connector-curvature="0"
         id="path4234"
         d="m 38.585669,35.677805 c 1.442017,2.55126 -0.776471,10.20504 -0.776471,10.20504"
         style="color:#000000;clip-rule:nonzero;display:inline;overflow:visible;visibility:visible;opacity:1;isolation:auto;mix-blend-mode:normal;color-interpolation:sRGB;color-interpolation-filters:linearRGB;solid-color:#000000;solid-opacity:1;fill:none;fill-opacity:1;fill-rule:nonzero;stroke:#000000;stroke-width:0.5;stroke-linecap:butt;stroke-linejoin:miter;stroke-miterlimit:1;stroke-dasharray:none;stroke-dashoffset:0;stroke-opacity:1;color-rendering:auto;image-rendering:auto;shape-rendering:auto;text-rendering:auto;enable-background:accumulate" />
      <path
         inkscape:connector-curvature="0"
         id="path4236"
         d="m 31.375585,39.227385 c 3.105882,1.55294 2.884034,6.54454 2.884034,6.54454"
         style="color:#000000;clip-rule:nonzero;display:inline;overflow:visible;visibility:visible;opacity:1;isolation:auto;mix-blend-mode:normal;color-interpolation:sRGB;color-interpolation-filters:linearRGB;solid-color:#000000;solid-opacity:1;fill:none;fill-opacity:1;fill-rule:nonzero;stroke:#000000;stroke-width:0.5;stroke-linecap:butt;stroke-linejoin:miter;stroke-miterlimit:1;stroke-dasharray:none;stroke-dashoffset:0;stroke-opacity:1;color-rendering:auto;image-rendering:auto;shape-rendering:auto;text-rendering:auto;enable-background:accumulate" />
      <path
         inkscape:connector-curvature="0"
         id="path4238"
         d="m 33.594072,36.787045 c 1.663866,1.10924 2.329412,3.32773 2.329412,3.32773"
         style="color:#000000;clip-rule:nonzero;display:inline;overflow:visible;visibility:visible;opacity:1;isolation:auto;mix-blend-mode:normal;color-interpolation:sRGB;color-interpolation-filters:linearRGB;solid-color:#000000;solid-opacity:1;fill:none;fill-opacity:1;fill-rule:nonzero;stroke:#000000;stroke-width:0.5;stroke-linecap:butt;stroke-linejoin:miter;stroke-miterlimit:1;stroke-dasharray:none;stroke-dashoffset:0;stroke-opacity:1;color-rendering:auto;image-rendering:auto;shape-rendering:auto;text-rendering:auto;enable-background:accumulate" />
      <path
         inkscape:connector-curvature="0"
         id="path4240"
         d="m 36.58903,36.897975 c 0.554622,3.77142 0.221849,7.98655 0.221849,7.98655"
         style="color:#000000;clip-rule:nonzero;display:inline;overflow:visible;visibility:visible;opacity:1;isolation:auto;mix-blend-mode:normal;color-interpolation:sRGB;color-interpolation-filters:linearRGB;solid-color:#000000;solid-opacity:1;fill:none;fill-opacity:1;fill-rule:nonzero;stroke:#000000;stroke-width:0.5;stroke-linecap:butt;stroke-linejoin:miter;stroke-miterlimit:1;stroke-dasharray:none;stroke-dashoffset:0;stroke-opacity:1;color-rendering:auto;image-rendering:auto;shape-rendering:auto;text-rendering:auto;enable-background:accumulate" />
      <path
         inkscape:connector-curvature="0"
         id="path4242"
         d="m 26.827686,42.998815 c 3.771428,2.21848 4.215126,6.87731 4.215126,6.87731"
         style="color:#000000;clip-rule:nonzero;display:inline;overflow:visible;visibility:visible;opacity:1;isolation:auto;mix-blend-mode:normal;color-interpolation:sRGB;color-interpolation-filters:linearRGB;solid-color:#000000;solid-opacity:1;fill:none;fill-opacity:1;fill-rule:nonzero;stroke:#000000;stroke-width:0.5;stroke-linecap:butt;stroke-linejoin:miter;stroke-miterlimit:1;stroke-dasharray:none;stroke-dashoffset:0;stroke-opacity:1;color-rendering:auto;image-rendering:auto;shape-rendering:auto;text-rendering:auto;enable-background:accumulate" />
      <path
         inkscape:connector-curvature="0"
         id="path4244-7"
         d="m 23.278106,49.876125 c 5.989916,0.66554 7.210084,5.43529 7.210084,5.43529"
         style="color:#000000;clip-rule:nonzero;display:inline;overflow:visible;visibility:visible;opacity:1;isolation:auto;mix-blend-mode:normal;color-interpolation:sRGB;color-interpolation-filters:linearRGB;solid-color:#000000;solid-opacity:1;fill:none;fill-opacity:1;fill-rule:nonzero;stroke:#000000;stroke-width:0.5;stroke-linecap:butt;stroke-linejoin:miter;stroke-miterlimit:1;stroke-dasharray:none;stroke-dashoffset:0;stroke-opacity:1;color-rendering:auto;image-rendering:auto;shape-rendering:auto;text-rendering:auto;enable-background:accumulate" />
    </g>
  </g>
</svg>
