<?xml version="1.0" encoding="iso-8859-1"?>
<!-- Generator: Adobe Illustrator 11 Build 196, SVG Export Plug-In . SVG Version: 6.0.0 Build 78)  -->
<!DOCTYPE svg PUBLIC "-//W3C//DTD SVG 1.0//EN"    "http://www.w3.org/TR/2001/REC-SVG-20010904/DTD/svg10.dtd" [
	<!ENTITY ns_flows "http://ns.adobe.com/Flows/1.0/">
	<!ENTITY ns_svg "http://www.w3.org/2000/svg">
	<!ENTITY ns_xlink "http://www.w3.org/1999/xlink">
]>
<svg  
	 width="147.401" height="63.591" viewBox="0 0 147.401 63.591" style="overflow:visible;enable-background:new 0 0 147.401 63.591"
	 xml:space="preserve">
	<g id="Layer_1">
		<g>
			
				<line style="fill:none;stroke:#000000;stroke-width:0.5;stroke-dasharray:2;" x1="103.074" y1="63.591" x2="103.074" y2="5.279"/>
			
				<rect x="71.186" y="-36.352" transform="matrix(0.1009 0.9949 -0.9949 0.1009 74.1245 -66.8841)" style="fill:#B5B5B5;stroke:#000000;stroke-width:0.5;" width="5.76" height="87.84"/> 
			<g>
				<rect x="119.714" y="9.168" style="fill:#D6D6D6;stroke:#000000;stroke-width:0.5;" width="26.353" height="5.76"/> 
				<rect x="144.067" y="9.648" style="fill:#D6D6D6;" width="2.24" height="4.8"/> 
			</g>
			<g>
				<rect x="2.25" y="9.168" style="fill:#D6D6D6;stroke:#000000;stroke-width:0.5;" width="26.352" height="5.76"/> 
				<rect x="2.01" y="9.648" style="fill:#D6D6D6;" width="2.24" height="4.8"/> 
			</g>
			<ellipse style="stroke:#000000;stroke-width:0.5;" cx="29.506" cy="8.528" rx="1.811" ry="2.037"/> 
			<path style="fill:#B4B4B4;stroke:#000000;stroke-width:0.5;" d="M100.608,37.198c2.491,1.58,9.043-0.364,7.042-2.82
				c-2.001-2.456-5.152-3.099-6.49-2.592C99.822,32.293,97.587,35.282,100.608,37.198z"/>
			<g>
				<line style="fill:#B4B4B4;stroke:#404040;" x1="103.074" y1="28.848" x2="103.074" y2="19.568"/>
				<path style="fill:#B4B4B4;stroke:#404040;" d="M103.074,16.671c0.505,1.363,1.369,3.054,2.282,4.103l-2.282-0.826l-2.282,0.826
					C101.705,19.725,102.568,18.034,103.074,16.671z"/>
			</g>
		</g>
		<rect y="16.445" style="fill:none;" width="147.401" height="2.834"/> 
	</g>
</svg>
