<?xml version="1.0" encoding="iso-8859-1"?>
<!-- Generator: Adobe Illustrator 11 Build 196, SVG Export Plug-In . SVG Version: 6.0.0 Build 78)  -->
<!DOCTYPE svg PUBLIC "-//W3C//DTD SVG 1.0//EN"    "http://www.w3.org/TR/2001/REC-SVG-20010904/DTD/svg10.dtd" [
	<!ENTITY ns_flows "http://ns.adobe.com/Flows/1.0/">
	<!ENTITY ns_svg "http://www.w3.org/2000/svg">
	<!ENTITY ns_xlink "http://www.w3.org/1999/xlink">
]>
<svg  
	 width="147.401" height="62.582" viewBox="0 0 147.401 62.582" style="overflow:visible;enable-background:new 0 0 147.401 62.582"
	 xml:space="preserve">
	<g id="Layer_1">
		
			<rect x="70.387" y="-36.352" transform="matrix(0.1009 0.9949 -0.9949 0.1009 73.4058 -66.0889)" style="fill:#B5B5B5;stroke:#000000;stroke-width:0.5;" width="5.76" height="87.84"/> 
		<g>
			<rect x="118.915" y="9.168" style="fill:#D6D6D6;stroke:#000000;stroke-width:0.5;" width="26.353" height="5.76"/> 
			<rect x="143.268" y="9.648" style="fill:#D6D6D6;" width="2.24" height="4.8"/> 
		</g>
		<g>
			<rect x="1.45" y="9.168" style="fill:#D6D6D6;stroke:#000000;stroke-width:0.5;" width="26.352" height="5.76"/> 
			<rect x="1.21" y="9.648" style="fill:#D6D6D6;" width="2.24" height="4.8"/> 
		</g>
		<ellipse style="stroke:#000000;stroke-width:0.5;" cx="28.707" cy="8.528" rx="1.811" ry="2.037"/> 
		<g>
			<line style="fill:none;stroke:#000000;stroke-miterlimit:1;" x1="42.99" y1="25.804" x2="29.974" y2="17.894"/>
			<line style="fill:none;stroke:#000000;stroke-miterlimit:1;" x1="43.761" y1="16.823" x2="29.974" y2="17.894"/>
			<path style="fill:none;stroke:#000000;stroke-miterlimit:1;" d="M39.23,23.239c1.183-2.104,1.004-4.402,0.703-5.834"/>
			<path style="fill:none;stroke:#000000;stroke-miterlimit:1;" d="M40.007,21.329c-2.192-0.564-1.54-2.491,0.104-2.51"/>
		</g>
		<line style="fill:none;stroke:#000000;stroke-width:0.5;stroke-dasharray:2;" x1="44.18" y1="24.591" x2="102.18" y2="59.924"/>
		<line style="fill:none;stroke:#000000;stroke-width:0.5;stroke-dasharray:2;" x1="43.847" y1="22.258" x2="101.847" y2="44.258"/>
		<line style="fill:none;stroke:#000000;stroke-width:0.5;stroke-dasharray:2;" x1="44.18" y1="19.591" x2="101.847" y2="27.924"/>
		<line style="fill:none;stroke:#000000;stroke-width:0.5;stroke-dasharray:2;" x1="44.513" y1="17.924" x2="101.513" y2="12.924"/>
		<path style="fill:#B4B4B4;stroke:#000000;stroke-width:0.5;" d="M100.375,46.198c2.491,1.58,9.043-0.364,7.042-2.82
			c-2.001-2.456-5.152-3.099-6.49-2.592S97.354,44.282,100.375,46.198z"/>
		<path style="fill:#B4B4B4;stroke:#000000;stroke-width:0.5;" d="M100.202,31.094c2.491,1.58,9.043-0.364,7.042-2.82
			c-2.001-2.456-5.152-3.099-6.49-2.592C99.416,26.188,97.181,29.177,100.202,31.094z"/>
		<path style="fill:#B4B4B4;stroke:#000000;stroke-width:0.5;" d="M100.202,17.052c2.491,1.581,9.043-0.364,7.042-2.82
			c-2.001-2.456-5.152-3.099-6.49-2.592C99.416,12.147,97.181,15.135,100.202,17.052z"/>
		<path style="fill:#B4B4B4;stroke:#000000;stroke-width:0.5;" d="M100.14,61.76c2.491,1.581,9.043-0.364,7.042-2.82
			s-5.152-3.099-6.49-2.592S97.119,59.844,100.14,61.76z"/>
		<rect y="16.799" style="fill:none;" width="147.401" height="2.834"/> 
	</g>
</svg>
