<?xml version="1.0" encoding="iso-8859-1"?>
<!-- Generator: Adobe Illustrator 11 Build 196, SVG Export Plug-In . SVG Version: 6.0.0 Build 78)  -->
<!DOCTYPE svg PUBLIC "-//W3C//DTD SVG 1.0//EN"    "http://www.w3.org/TR/2001/REC-SVG-20010904/DTD/svg10.dtd" [
	<!ENTITY ns_flows "http://ns.adobe.com/Flows/1.0/">
	<!ENTITY ns_svg "http://www.w3.org/2000/svg">
	<!ENTITY ns_xlink "http://www.w3.org/1999/xlink">
]>
<svg  
	 width="147.401" height="53.309" viewBox="0 0 147.401 53.309" style="overflow:visible;enable-background:new 0 0 147.401 53.309"
	 xml:space="preserve">
	<style type="text/css">
	
	</style>
	<g id="Layer_1">
		
			<rect x="70.72" y="-36.352" transform="matrix(0.1009 0.9949 -0.9949 0.1009 73.7056 -66.4207)" style="fill:#B5B5B5;stroke:#000000;stroke-width:0.5;" width="5.76" height="87.84"/> 
		<g>
			<rect x="119.249" y="9.168" style="fill:#D6D6D6;stroke:#000000;stroke-width:0.5;" width="26.353" height="5.76"/> 
			<rect x="143.601" y="9.648" style="fill:#D6D6D6;" width="2.24" height="4.8"/> 
		</g>
		<g>
			<rect x="1.784" y="9.168" style="fill:#D6D6D6;stroke:#000000;stroke-width:0.5;" width="26.352" height="5.76"/> 
			<rect x="1.544" y="9.648" style="fill:#D6D6D6;" width="2.24" height="4.8"/> 
		</g>
		<ellipse style="stroke:#000000;stroke-width:0.5;" cx="29.04" cy="8.528" rx="1.811" ry="2.037"/> 
		<path style="fill:#B4B4B4;stroke:#000000;stroke-width:0.5;" d="M79.275,46.231c1.645,2.449,8.426,3.304,7.582,0.25
			c-0.844-3.053-3.471-4.909-4.9-4.983S77.279,43.262,79.275,46.231z"/>
		<g>
			<line style="fill:#B4B4B4;stroke:#404040;" x1="81.441" y1="42.052" x2="79.657" y2="32.945"/>
			<path style="fill:#B4B4B4;stroke:#404040;" d="M79.1,30.102c0.758,1.24,1.931,2.734,3.029,3.587l-2.399-0.371l-2.081,1.249
				C78.344,33.362,78.866,31.537,79.1,30.102z"/>
		</g>
		<line style="fill:none;stroke:#000000;stroke-width:0.5;stroke-dasharray:2;" x1="29.04" y1="8.528" x2="81.847" y2="44.258"/>
		<g>
			<path style="fill:none;stroke:#000000;" d="M87.932,48.055c3.712,1.513,3.835-5.129,5.863-4.362"/>
			<path style="fill:none;stroke:#000000;" d="M94.978,36.482c3.049,2.603-2.796,5.762-1.183,7.211"/>
		</g>
		<g>
			<g>
				<text transform="matrix(1 0 0 1 76.5132 27.5913)"><tspan x="0" y="0" style="font-family:Liberation Sans-Black'; font-size:7.650000;">v</tspan></text>
			</g>
		</g>
		<g>
			<g>
				<text transform="matrix(1 0 0 1 96.1802 48.2578)"><tspan x="0" y="0" style="font-family:Liberation Sans; font-size:7.650000;">v</tspan></text>
			</g>
			<g>
				<text transform="matrix(1 0 0 1 100.6802 51.2578)"><tspan x="0" y="0" style="font-family:'Symbol'; font-size:7;">&#x22A5;</tspan></text>
			</g>
		</g>
		<rect y="14.111" style="fill:none;" width="147.401" height="2.834"/> 
	</g>
</svg>
