<?xml version="1.0" encoding="iso-8859-1"?>
<!-- Generator: Adobe Illustrator 11 Build 196, SVG Export Plug-In . SVG Version: 6.0.0 Build 78)  -->
<!DOCTYPE svg PUBLIC "-//W3C//DTD SVG 1.0//EN"    "http://www.w3.org/TR/2001/REC-SVG-20010904/DTD/svg10.dtd" [
	<!ENTITY ns_flows "http://ns.adobe.com/Flows/1.0/">
	<!ENTITY ns_svg "http://www.w3.org/2000/svg">
	<!ENTITY ns_xlink "http://www.w3.org/1999/xlink">
]>
<svg  
	 width="147.401" height="355.838" viewBox="0 0 147.401 355.838"
	 style="overflow:visible;enable-background:new 0 0 147.401 355.838" xml:space="preserve">
	<g id="Layer_1">
		<g>
			<circle style="fill:#BCE5AB;stroke:#000000;stroke-width:0.5;" cx="59.123" cy="25.32" r="4.28"/> 
			<circle style="fill:#BCE5AB;stroke:#000000;stroke-width:0.5;" cx="84.343" cy="62.568" r="4.28"/> 
			<circle style="fill:#BCE5AB;stroke:#000000;stroke-width:0.5;" cx="37.771" cy="85.472" r="4.28"/> 
			<circle style="fill:#BCE5AB;stroke:#000000;stroke-width:0.5;" cx="124.065" cy="106.412" r="4.28"/> 
			<circle style="fill:#BCE5AB;stroke:#000000;stroke-width:0.5;" cx="96.953" cy="100.701" r="4.28"/> 
			<rect x="2.863" y="0.5" style="fill:none;stroke:#000000;" width="140.845" height="117.564"/> 
			<circle style="fill:#BCE5AB;stroke:#000000;stroke-width:0.5;" cx="9.835" cy="74.608" r="4.28"/> 
			<g>
				<polyline style="fill:none;stroke:#000000;stroke-width:3;" points="118.487,17.96 4.415,93.232 48.647,118.064 106.071,83.144 
					"/>
				<path d="M110.196,80.287c-1.531,1.936-3.223,4.679-3.937,6.929l-0.816-4.039l-3.21-2.582
					C104.559,80.996,107.773,80.756,110.196,80.287z"/>
			</g>
			<path style="fill:none;stroke:#000000;stroke-linecap:round;stroke-linejoin:round;" d="M145.882,128.998
				c-0.97,0-5.696,0.323-5.696,6.467v103.25H6.384V135.788c0-3.88-1.152-7.113-3.739-7.113"/>
			<circle style="fill:#8CC6E0;stroke:#000000;stroke-width:0.5;" cx="103.384" cy="163.893" r="4.025"/> 
			<circle style="fill:#8CC6E0;stroke:#000000;stroke-width:0.5;" cx="49.661" cy="228.251" r="4.025"/> 
			<circle style="fill:#8CC6E0;stroke:#000000;stroke-width:0.5;" cx="41.45" cy="189.985" r="4.025"/> 
			<circle style="fill:#8CC6E0;stroke:#000000;stroke-width:0.5;" cx="132.467" cy="197.222" r="4.025"/> 
			<circle style="fill:#8CC6E0;stroke:#000000;stroke-width:0.5;" cx="87.217" cy="216.685" r="4.025"/> 
			<circle style="fill:#8CC6E0;stroke:#000000;stroke-width:0.5;" cx="98.895" cy="194.79" r="4.025"/> 
			<circle style="fill:#8CC6E0;stroke:#000000;stroke-width:0.5;" cx="131.007" cy="222.169" r="4.025"/> 
			<circle style="fill:#8CC6E0;stroke:#000000;stroke-width:0.5;" cx="99.168" cy="184.633" r="4.025"/> 
			<circle style="fill:#8CC6E0;stroke:#000000;stroke-width:0.5;" cx="88.008" cy="157.583" r="4.025"/> 
			<circle style="fill:#8CC6E0;stroke:#000000;stroke-width:0.5;" cx="108.063" cy="190.745" r="4.025"/> 
			<circle style="fill:#8CC6E0;stroke:#000000;stroke-width:0.5;" cx="121.276" cy="229.335" r="4.025"/> 
			<circle style="fill:#8CC6E0;stroke:#000000;stroke-width:0.5;" cx="111.058" cy="223.983" r="4.025"/> 
			<circle style="fill:#8CC6E0;stroke:#000000;stroke-width:0.5;" cx="92.736" cy="210.131" r="4.025"/> 
			<circle style="fill:#8CC6E0;stroke:#000000;stroke-width:0.5;" cx="103.273" cy="203.061" r="4.025"/> 
			<circle style="fill:#8CC6E0;stroke:#000000;stroke-width:0.5;" cx="111.058" cy="200.628" r="4.025"/> 
			<circle style="fill:#8CC6E0;stroke:#000000;stroke-width:0.5;" cx="116.277" cy="187.978" r="4.025"/> 
			<circle style="fill:#8CC6E0;stroke:#000000;stroke-width:0.5;" cx="109.112" cy="172.895" r="4.025"/> 
			<circle style="fill:#8CC6E0;stroke:#000000;stroke-width:0.5;" cx="102.574" cy="177.273" r="4.025"/> 
			<circle style="fill:#8CC6E0;stroke:#000000;stroke-width:0.5;" cx="109.112" cy="182.139" r="4.025"/> 
			<circle style="fill:#8CC6E0;stroke:#000000;stroke-width:0.5;" cx="117.155" cy="177.228" r="4.025"/> 
			<circle style="fill:#8CC6E0;stroke:#000000;stroke-width:0.5;" cx="113.46" cy="163.422" r="4.025"/> 
			<circle style="fill:#8CC6E0;stroke:#000000;stroke-width:0.5;" cx="122.249" cy="168.029" r="4.025"/> 
			<circle style="fill:#8CC6E0;stroke:#000000;stroke-width:0.5;" cx="126.628" cy="175.194" r="4.025"/> 
			<circle style="fill:#8CC6E0;stroke:#000000;stroke-width:0.5;" cx="125.457" cy="183.553" r="4.025"/> 
			<circle style="fill:#8CC6E0;stroke:#000000;stroke-width:0.5;" cx="124.013" cy="194.364" r="4.025"/> 
			<circle style="fill:#8CC6E0;stroke:#000000;stroke-width:0.5;" cx="120.424" cy="201.662" r="4.025"/> 
			<circle style="fill:#8CC6E0;stroke:#000000;stroke-width:0.5;" cx="108.549" cy="210.207" r="4.025"/> 
			<circle style="fill:#8CC6E0;stroke:#000000;stroke-width:0.5;" cx="118.144" cy="211.393" r="4.025"/> 
			<circle style="fill:#8CC6E0;stroke:#000000;stroke-width:0.5;" cx="126.081" cy="208.079" r="4.025"/> 
			<circle style="fill:#8CC6E0;stroke:#000000;stroke-width:0.5;" cx="100.354" cy="211.819" r="4.025"/> 
			<circle style="fill:#8CC6E0;stroke:#000000;stroke-width:0.5;" cx="35.593" cy="181.713" r="4.025"/> 
			<circle style="fill:#8CC6E0;stroke:#000000;stroke-width:0.5;" cx="40.082" cy="212.609" r="4.025"/> 
			<circle style="fill:#8CC6E0;stroke:#000000;stroke-width:0.5;" cx="39.808" cy="202.453" r="4.025"/> 
			<circle style="fill:#8CC6E0;stroke:#000000;stroke-width:0.5;" cx="30.914" cy="208.565" r="4.025"/> 
			<circle style="fill:#8CC6E0;stroke:#000000;stroke-width:0.5;" cx="35.703" cy="220.881" r="4.025"/> 
			<circle style="fill:#8CC6E0;stroke:#000000;stroke-width:0.5;" cx="27.918" cy="218.448" r="4.025"/> 
			<circle style="fill:#8CC6E0;stroke:#000000;stroke-width:0.5;" cx="22.699" cy="205.798" r="4.025"/> 
			<circle style="fill:#8CC6E0;stroke:#000000;stroke-width:0.5;" cx="29.864" cy="190.715" r="4.025"/> 
			<circle style="fill:#8CC6E0;stroke:#000000;stroke-width:0.5;" cx="36.402" cy="195.094" r="4.025"/> 
			<circle style="fill:#8CC6E0;stroke:#000000;stroke-width:0.5;" cx="29.864" cy="199.959" r="4.025"/> 
			<circle style="fill:#8CC6E0;stroke:#000000;stroke-width:0.5;" cx="21.821" cy="195.048" r="4.025"/> 
			<circle style="fill:#8CC6E0;stroke:#000000;stroke-width:0.5;" cx="25.516" cy="181.242" r="4.025"/> 
			<circle style="fill:#8CC6E0;stroke:#000000;stroke-width:0.5;" cx="16.727" cy="185.849" r="4.025"/> 
			<circle style="fill:#8CC6E0;stroke:#000000;stroke-width:0.5;" cx="12.348" cy="193.015" r="4.025"/> 
			<circle style="fill:#8CC6E0;stroke:#000000;stroke-width:0.5;" cx="13.519" cy="201.373" r="4.025"/> 
			<circle style="fill:#8CC6E0;stroke:#000000;stroke-width:0.5;" cx="14.963" cy="212.184" r="4.025"/> 
			<circle style="fill:#8CC6E0;stroke:#000000;stroke-width:0.5;" cx="18.552" cy="219.482" r="4.025"/> 
			<circle style="fill:#8CC6E0;stroke:#000000;stroke-width:0.5;" cx="30.427" cy="228.027" r="4.025"/> 
			<circle style="fill:#8CC6E0;stroke:#000000;stroke-width:0.5;" cx="20.833" cy="229.213" r="4.025"/> 
			<circle style="fill:#8CC6E0;stroke:#000000;stroke-width:0.5;" cx="12.896" cy="225.899" r="4.025"/> 
			<circle style="fill:#8CC6E0;stroke:#000000;stroke-width:0.5;" cx="38.622" cy="229.639" r="4.025"/> 
			<circle style="fill:#8CC6E0;stroke:#000000;stroke-width:0.5;" cx="12.782" cy="179.843" r="4.025"/> 
			<circle style="fill:#8CC6E0;stroke:#000000;stroke-width:0.5;" cx="41.663" cy="153.113" r="4.025"/> 
			<circle style="fill:#8CC6E0;stroke:#000000;stroke-width:0.5;" cx="41.48" cy="143.834" r="4.025"/> 
			<circle style="fill:#8CC6E0;stroke:#000000;stroke-width:0.5;" cx="17.461" cy="152.991" r="4.025"/> 
			<circle style="fill:#8CC6E0;stroke:#000000;stroke-width:0.5;" cx="25.676" cy="155.759" r="4.025"/> 
			<circle style="fill:#8CC6E0;stroke:#000000;stroke-width:0.5;" cx="18.51" cy="170.842" r="4.025"/> 
			<circle style="fill:#8CC6E0;stroke:#000000;stroke-width:0.5;" cx="11.972" cy="166.463" r="4.025"/> 
			<circle style="fill:#8CC6E0;stroke:#000000;stroke-width:0.5;" cx="18.51" cy="161.597" r="4.025"/> 
			<circle style="fill:#8CC6E0;stroke:#000000;stroke-width:0.5;" cx="26.554" cy="166.509" r="4.025"/> 
			<circle style="fill:#8CC6E0;stroke:#000000;stroke-width:0.5;" cx="47.399" cy="209.143" r="4.025"/> 
			<circle style="fill:#8CC6E0;stroke:#000000;stroke-width:0.5;" cx="29.325" cy="174.936" r="4.025"/> 
			<circle style="fill:#8CC6E0;stroke:#000000;stroke-width:0.5;" cx="36.026" cy="168.542" r="4.025"/> 
			<circle style="fill:#8CC6E0;stroke:#000000;stroke-width:0.5;" cx="34.855" cy="160.183" r="4.025"/> 
			<circle style="fill:#8CC6E0;stroke:#000000;stroke-width:0.5;" cx="33.411" cy="149.373" r="4.025"/> 
			<circle style="fill:#8CC6E0;stroke:#000000;stroke-width:0.5;" cx="119.816" cy="160.244" r="4.025"/> 
			<circle style="fill:#8CC6E0;stroke:#000000;stroke-width:0.5;" cx="109.659" cy="159.97" r="4.025"/> 
			<circle style="fill:#8CC6E0;stroke:#000000;stroke-width:0.5;" cx="115.772" cy="151.076" r="4.025"/> 
			<circle style="fill:#8CC6E0;stroke:#000000;stroke-width:0.5;" cx="128.088" cy="155.865" r="4.025"/> 
			<circle style="fill:#8CC6E0;stroke:#000000;stroke-width:0.5;" cx="125.655" cy="148.08" r="4.025"/> 
			<circle style="fill:#8CC6E0;stroke:#000000;stroke-width:0.5;" cx="97.921" cy="150.026" r="4.025"/> 
			<circle style="fill:#8CC6E0;stroke:#000000;stroke-width:0.5;" cx="102.3" cy="156.564" r="4.025"/> 
			<circle style="fill:#8CC6E0;stroke:#000000;stroke-width:0.5;" cx="107.166" cy="150.026" r="4.025"/> 
			<circle style="fill:#8CC6E0;stroke:#000000;stroke-width:0.5;" cx="88.449" cy="145.678" r="4.025"/> 
			<circle style="fill:#8CC6E0;stroke:#000000;stroke-width:0.5;" cx="135.234" cy="150.589" r="4.025"/> 
			<circle style="fill:#8CC6E0;stroke:#000000;stroke-width:0.5;" cx="130.034" cy="165.109" r="4.025"/> 
			<circle style="fill:#8CC6E0;stroke:#000000;stroke-width:0.5;" cx="94.272" cy="168.139" r="4.025"/> 
			<circle style="fill:#8CC6E0;stroke:#000000;stroke-width:0.5;" cx="63.376" cy="163.65" r="4.025"/> 
			<circle style="fill:#8CC6E0;stroke:#000000;stroke-width:0.5;" cx="73.533" cy="163.924" r="4.025"/> 
			<circle style="fill:#8CC6E0;stroke:#000000;stroke-width:0.5;" cx="67.42" cy="172.818" r="4.025"/> 
			<circle style="fill:#8CC6E0;stroke:#000000;stroke-width:0.5;" cx="55.104" cy="168.029" r="4.025"/> 
			<circle style="fill:#8CC6E0;stroke:#000000;stroke-width:0.5;" cx="57.537" cy="175.814" r="4.025"/> 
			<circle style="fill:#8CC6E0;stroke:#000000;stroke-width:0.5;" cx="63.763" cy="181.151" r="4.025"/> 
			<circle style="fill:#8CC6E0;stroke:#000000;stroke-width:0.5;" cx="85.271" cy="173.868" r="4.025"/> 
			<circle style="fill:#8CC6E0;stroke:#000000;stroke-width:0.5;" cx="80.892" cy="167.33" r="4.025"/> 
			<circle style="fill:#8CC6E0;stroke:#000000;stroke-width:0.5;" cx="79.49" cy="178.202" r="4.025"/> 
			<circle style="fill:#8CC6E0;stroke:#000000;stroke-width:0.5;" cx="71.135" cy="180.168" r="4.025"/> 
			<circle style="fill:#8CC6E0;stroke:#000000;stroke-width:0.5;" cx="94.743" cy="178.216" r="4.025"/> 
			<circle style="fill:#8CC6E0;stroke:#000000;stroke-width:0.5;" cx="90.136" cy="187.004" r="4.025"/> 
			<circle style="fill:#8CC6E0;stroke:#000000;stroke-width:0.5;" cx="84.405" cy="193.929" r="4.025"/> 
			<circle style="fill:#8CC6E0;stroke:#000000;stroke-width:0.5;" cx="69.169" cy="188.032" r="4.025"/> 
			<circle style="fill:#8CC6E0;stroke:#000000;stroke-width:0.5;" cx="61.306" cy="190.98" r="4.025"/> 
			<circle style="fill:#8CC6E0;stroke:#000000;stroke-width:0.5;" cx="56.503" cy="185.18" r="4.025"/> 
			<circle style="fill:#8CC6E0;stroke:#000000;stroke-width:0.5;" cx="47.958" cy="173.305" r="4.025"/> 
			<circle style="fill:#8CC6E0;stroke:#000000;stroke-width:0.5;" cx="46.772" cy="182.899" r="4.025"/> 
			<circle style="fill:#8CC6E0;stroke:#000000;stroke-width:0.5;" cx="50.087" cy="190.836" r="4.025"/> 
			<circle style="fill:#8CC6E0;stroke:#000000;stroke-width:0.5;" cx="46.346" cy="165.109" r="4.025"/> 
			<circle style="fill:#8CC6E0;stroke:#000000;stroke-width:0.5;" cx="69.787" cy="231.863" r="4.025"/> 
			<circle style="fill:#8CC6E0;stroke:#000000;stroke-width:0.5;" cx="62.799" cy="224.488" r="4.025"/> 
			<circle style="fill:#8CC6E0;stroke:#000000;stroke-width:0.5;" cx="73.411" cy="222.521" r="4.025"/> 
			<circle style="fill:#8CC6E0;stroke:#000000;stroke-width:0.5;" cx="87.217" cy="232.741" r="4.025"/> 
			<circle style="fill:#8CC6E0;stroke:#000000;stroke-width:0.5;" cx="79.671" cy="230.237" r="4.025"/> 
			<circle style="fill:#8CC6E0;stroke:#000000;stroke-width:0.5;" cx="77.262" cy="214.755" r="4.025"/> 
			<circle style="fill:#8CC6E0;stroke:#000000;stroke-width:0.5;" cx="61.53" cy="209.156" r="4.025"/> 
			<circle style="fill:#8CC6E0;stroke:#000000;stroke-width:0.5;" cx="60.004" cy="216.876" r="4.025"/> 
			<circle style="fill:#8CC6E0;stroke:#000000;stroke-width:0.5;" cx="68.067" cy="215.693" r="4.025"/> 
			<circle style="fill:#8CC6E0;stroke:#000000;stroke-width:0.5;" cx="70.282" cy="206.533" r="4.025"/> 
			<circle style="fill:#8CC6E0;stroke:#000000;stroke-width:0.5;" cx="57.907" cy="199.383" r="4.025"/> 
			<circle style="fill:#8CC6E0;stroke:#000000;stroke-width:0.5;" cx="67.379" cy="196.427" r="4.025"/> 
			<circle style="fill:#8CC6E0;stroke:#000000;stroke-width:0.5;" cx="75.542" cy="198.397" r="4.025"/> 
			<circle style="fill:#8CC6E0;stroke:#000000;stroke-width:0.5;" cx="80.625" cy="205.135" r="4.025"/> 
			<circle style="fill:#8CC6E0;stroke:#000000;stroke-width:0.5;" cx="89.871" cy="221.499" r="4.025"/> 
			<circle style="fill:#8CC6E0;stroke:#000000;stroke-width:0.5;" cx="55.664" cy="231.841" r="4.025"/> 
			<circle style="fill:#8CC6E0;stroke:#000000;stroke-width:0.5;" cx="95.139" cy="229.993" r="4.025"/> 
			<circle style="fill:#8CC6E0;stroke:#000000;stroke-width:0.5;" cx="98.408" cy="222.037" r="4.025"/> 
			<circle style="fill:#8CC6E0;stroke:#000000;stroke-width:0.5;" cx="48.219" cy="218.704" r="4.025"/> 
			<circle style="fill:#8CC6E0;stroke:#000000;stroke-width:0.5;" cx="52.185" cy="159.271" r="4.025"/> 
			<circle style="fill:#8CC6E0;stroke:#000000;stroke-width:0.5;" cx="49.752" cy="151" r="4.025"/> 
			<circle style="fill:#8CC6E0;stroke:#000000;stroke-width:0.5;" cx="58.51" cy="152.946" r="4.025"/> 
			<circle style="fill:#8CC6E0;stroke:#000000;stroke-width:0.5;" cx="67.086" cy="153.979" r="4.025"/> 
			<circle style="fill:#8CC6E0;stroke:#000000;stroke-width:0.5;" cx="76.771" cy="145.191" r="4.025"/> 
			<circle style="fill:#8CC6E0;stroke:#000000;stroke-width:0.5;" cx="76.999" cy="155.865" r="4.025"/> 
			<circle style="fill:#8CC6E0;stroke:#000000;stroke-width:0.5;" cx="133.926" cy="187.004" r="4.025"/> 
			<circle style="fill:#8CC6E0;stroke:#000000;stroke-width:0.5;" cx="90.623" cy="201.601" r="4.025"/> 
			<circle style="fill:#8CC6E0;stroke:#000000;stroke-width:0.5;" cx="135.462" cy="174.293" r="4.025"/> 
			<circle style="fill:#8CC6E0;stroke:#000000;stroke-width:0.5;" cx="133.926" cy="214.251" r="4.025"/> 
			<circle style="fill:#8CC6E0;stroke:#000000;stroke-width:0.5;" cx="122.249" cy="220.577" r="4.025"/> 
			<circle style="fill:#8CC6E0;stroke:#000000;stroke-width:0.5;" cx="112.031" cy="231.768" r="4.025"/> 
			<circle style="fill:#8CC6E0;stroke:#000000;stroke-width:0.5;" cx="131.007" cy="233.228" r="4.025"/> 
			<circle style="fill:#8CC6E0;stroke:#000000;stroke-width:0.5;" cx="103.76" cy="229.821" r="4.025"/> 
			<circle style="fill:#8CC6E0;stroke:#000000;stroke-width:0.5;" cx="48.292" cy="199.655" r="4.025"/> 
			<circle style="fill:#8CC6E0;stroke:#000000;stroke-width:0.5;" cx="133.926" cy="205.98" r="4.025"/> 
			<circle style="fill:#8CC6E0;stroke:#000000;stroke-width:0.5;" cx="61.506" cy="145.724" r="4.025"/> 
			<polyline style="fill:none;stroke:#000000;stroke-width:3;" points="94.272,164.114 95.217,156.086 90.793,152.154 
				82.93,150.188 82.438,158.052 87.354,163.95 85.879,170.83 90.302,173.288 89.319,180.66 78.998,187.049 "/>
			<path d="M75.087,189.789c1.44-1.85,3.026-4.469,3.688-6.612l0.805,3.831l3.069,2.429
				C80.438,189.073,77.386,189.326,75.087,189.789z"/>
			<circle style="fill:#FFFFB9;stroke:#000000;stroke-width:0.5;" cx="12.235" cy="254.84" r="5.72"/> 
			<circle style="fill:#FFFFB9;stroke:#000000;stroke-width:0.5;" cx="24.113" cy="254.84" r="5.72"/> 
			<circle style="fill:#FFFFB9;stroke:#000000;stroke-width:0.5;" cx="35.992" cy="254.84" r="5.72"/> 
			<circle style="fill:#FFFFB9;stroke:#000000;stroke-width:0.5;" cx="47.87" cy="254.84" r="5.72"/> 
			<circle style="fill:#FFFFB9;stroke:#000000;stroke-width:0.5;" cx="59.749" cy="254.84" r="5.72"/> 
			<circle style="fill:#FFFFB9;stroke:#000000;stroke-width:0.5;" cx="71.627" cy="254.84" r="5.72"/> 
			<circle style="fill:#FFFFB9;stroke:#000000;stroke-width:0.5;" cx="83.505" cy="254.84" r="5.72"/> 
			<circle style="fill:#FFFFB9;stroke:#000000;stroke-width:0.5;" cx="95.384" cy="254.84" r="5.72"/> 
			<circle style="fill:#FFFFB9;stroke:#000000;stroke-width:0.5;" cx="107.262" cy="254.84" r="5.72"/> 
			<circle style="fill:#FFFFB9;stroke:#000000;stroke-width:0.5;" cx="119.141" cy="254.84" r="5.72"/> 
			<circle style="fill:#FFFFB9;stroke:#000000;stroke-width:0.5;" cx="131.019" cy="254.84" r="5.72"/> 
			<circle style="fill:#FFFFB9;stroke:#000000;stroke-width:0.5;" cx="12.235" cy="266.719" r="5.72"/> 
			<circle style="fill:#FFFFB9;stroke:#000000;stroke-width:0.5;" cx="24.113" cy="266.719" r="5.72"/> 
			<circle style="fill:#FFFFB9;stroke:#000000;stroke-width:0.5;" cx="35.992" cy="266.719" r="5.72"/> 
			<circle style="fill:#FFFFB9;stroke:#000000;stroke-width:0.5;" cx="47.87" cy="266.719" r="5.72"/> 
			<circle style="fill:#FFFFB9;stroke:#000000;stroke-width:0.5;" cx="59.749" cy="266.719" r="5.72"/> 
			<circle style="fill:#FFFFB9;stroke:#000000;stroke-width:0.5;" cx="71.627" cy="266.719" r="5.72"/> 
			<circle style="fill:#FFFFB9;stroke:#000000;stroke-width:0.5;" cx="83.505" cy="266.719" r="5.72"/> 
			<circle style="fill:#FFFFB9;stroke:#000000;stroke-width:0.5;" cx="95.384" cy="266.719" r="5.72"/> 
			<circle style="fill:#FFFFB9;stroke:#000000;stroke-width:0.5;" cx="107.262" cy="266.719" r="5.72"/> 
			<circle style="fill:#FFFFB9;stroke:#000000;stroke-width:0.5;" cx="119.141" cy="266.719" r="5.72"/> 
			<circle style="fill:#FFFFB9;stroke:#000000;stroke-width:0.5;" cx="131.019" cy="266.719" r="5.72"/> 
			<circle style="fill:#FFFFB9;stroke:#000000;stroke-width:0.5;" cx="12.235" cy="278.597" r="5.72"/> 
			<circle style="fill:#FFFFB9;stroke:#000000;stroke-width:0.5;" cx="24.113" cy="278.597" r="5.72"/> 
			<circle style="fill:#FFFFB9;stroke:#000000;stroke-width:0.5;" cx="35.992" cy="278.597" r="5.72"/> 
			<circle style="fill:#FFFFB9;stroke:#000000;stroke-width:0.5;" cx="47.87" cy="278.597" r="5.72"/> 
			<circle style="fill:#FFFFB9;stroke:#000000;stroke-width:0.5;" cx="59.749" cy="278.597" r="5.72"/> 
			<circle style="fill:#FFFFB9;stroke:#000000;stroke-width:0.5;" cx="71.627" cy="278.597" r="5.72"/> 
			<circle style="fill:#FFFFB9;stroke:#000000;stroke-width:0.5;" cx="83.505" cy="278.597" r="5.72"/> 
			<circle style="fill:#FFFFB9;stroke:#000000;stroke-width:0.5;" cx="95.384" cy="278.597" r="5.72"/> 
			<circle style="fill:#FFFFB9;stroke:#000000;stroke-width:0.5;" cx="107.262" cy="278.597" r="5.72"/> 
			<circle style="fill:#FFFFB9;stroke:#000000;stroke-width:0.5;" cx="119.141" cy="278.597" r="5.72"/> 
			<circle style="fill:#FFFFB9;stroke:#000000;stroke-width:0.5;" cx="131.019" cy="278.597" r="5.72"/> 
			<circle style="fill:#FFFFB9;stroke:#000000;stroke-width:0.5;" cx="12.235" cy="290.476" r="5.72"/> 
			<circle style="fill:#FFFFB9;stroke:#000000;stroke-width:0.5;" cx="24.113" cy="290.476" r="5.72"/> 
			<circle style="fill:#FFFFB9;stroke:#000000;stroke-width:0.5;" cx="35.992" cy="290.476" r="5.72"/> 
			<circle style="fill:#FFFFB9;stroke:#000000;stroke-width:0.5;" cx="47.87" cy="290.476" r="5.72"/> 
			<circle style="fill:#FFFFB9;stroke:#000000;stroke-width:0.5;" cx="59.749" cy="290.476" r="5.72"/> 
			<circle style="fill:#FFFFB9;stroke:#000000;stroke-width:0.5;" cx="71.627" cy="290.476" r="5.72"/> 
			<circle style="fill:#FFFFB9;stroke:#000000;stroke-width:0.5;" cx="83.505" cy="290.476" r="5.72"/> 
			<circle style="fill:#FFFFB9;stroke:#000000;stroke-width:0.5;" cx="95.384" cy="290.476" r="5.72"/> 
			<circle style="fill:#FFFFB9;stroke:#000000;stroke-width:0.5;" cx="107.262" cy="290.476" r="5.72"/> 
			<circle style="fill:#FFFFB9;stroke:#000000;stroke-width:0.5;" cx="119.141" cy="290.476" r="5.72"/> 
			<circle style="fill:#FFFFB9;stroke:#000000;stroke-width:0.5;" cx="131.019" cy="290.476" r="5.72"/> 
			<circle style="fill:#FFFFB9;stroke:#000000;stroke-width:0.5;" cx="12.235" cy="302.354" r="5.72"/> 
			<circle style="fill:#FFFFB9;stroke:#000000;stroke-width:0.5;" cx="24.113" cy="302.354" r="5.72"/> 
			<circle style="fill:#FFFFB9;stroke:#000000;stroke-width:0.5;" cx="35.992" cy="302.354" r="5.72"/> 
			<circle style="fill:#FFFFB9;stroke:#000000;stroke-width:0.5;" cx="47.87" cy="302.354" r="5.72"/> 
			<circle style="fill:#FFFFB9;stroke:#000000;stroke-width:0.5;" cx="59.749" cy="302.354" r="5.72"/> 
			<circle style="fill:#FFFFB9;stroke:#000000;stroke-width:0.5;" cx="71.627" cy="302.354" r="5.72"/> 
			<circle style="fill:#FFFFB9;stroke:#000000;stroke-width:0.5;" cx="83.505" cy="302.354" r="5.72"/> 
			<circle style="fill:#FFFFB9;stroke:#000000;stroke-width:0.5;" cx="95.384" cy="302.354" r="5.72"/> 
			<circle style="fill:#FFFFB9;stroke:#000000;stroke-width:0.5;" cx="107.262" cy="302.354" r="5.72"/> 
			<circle style="fill:#FFFFB9;stroke:#000000;stroke-width:0.5;" cx="119.141" cy="302.354" r="5.72"/> 
			<circle style="fill:#FFFFB9;stroke:#000000;stroke-width:0.5;" cx="131.019" cy="302.354" r="5.72"/> 
			<circle style="fill:#FFFFB9;stroke:#000000;stroke-width:0.5;" cx="12.235" cy="314.232" r="5.72"/> 
			<circle style="fill:#FFFFB9;stroke:#000000;stroke-width:0.5;" cx="24.113" cy="314.232" r="5.72"/> 
			<circle style="fill:#FFFFB9;stroke:#000000;stroke-width:0.5;" cx="35.992" cy="314.232" r="5.72"/> 
			<circle style="fill:#FFFFB9;stroke:#000000;stroke-width:0.5;" cx="47.87" cy="314.232" r="5.72"/> 
			<circle style="fill:#FFFFB9;stroke:#000000;stroke-width:0.5;" cx="59.749" cy="314.232" r="5.72"/> 
			<circle style="fill:#FFFFB9;stroke:#000000;stroke-width:0.5;" cx="71.627" cy="314.232" r="5.72"/> 
			<circle style="fill:#FFFFB9;stroke:#000000;stroke-width:0.5;" cx="83.505" cy="314.232" r="5.72"/> 
			<circle style="fill:#FFFFB9;stroke:#000000;stroke-width:0.5;" cx="95.384" cy="314.232" r="5.72"/> 
			<circle style="fill:#FFFFB9;stroke:#000000;stroke-width:0.5;" cx="107.262" cy="314.232" r="5.72"/> 
			<circle style="fill:#FFFFB9;stroke:#000000;stroke-width:0.5;" cx="119.141" cy="314.232" r="5.72"/> 
			<circle style="fill:#FFFFB9;stroke:#000000;stroke-width:0.5;" cx="131.019" cy="314.232" r="5.72"/> 
			<circle style="fill:#FFFFB9;stroke:#000000;stroke-width:0.5;" cx="12.235" cy="326.111" r="5.72"/> 
			<circle style="fill:#FFFFB9;stroke:#000000;stroke-width:0.5;" cx="24.113" cy="326.111" r="5.72"/> 
			<circle style="fill:#FFFFB9;stroke:#000000;stroke-width:0.5;" cx="35.992" cy="326.111" r="5.72"/> 
			<circle style="fill:#FFFFB9;stroke:#000000;stroke-width:0.5;" cx="47.87" cy="326.111" r="5.72"/> 
			<circle style="fill:#FFFFB9;stroke:#000000;stroke-width:0.5;" cx="59.749" cy="326.111" r="5.72"/> 
			<circle style="fill:#FFFFB9;stroke:#000000;stroke-width:0.5;" cx="71.627" cy="326.111" r="5.72"/> 
			<circle style="fill:#FFFFB9;stroke:#000000;stroke-width:0.5;" cx="83.505" cy="326.111" r="5.72"/> 
			<circle style="fill:#FFFFB9;stroke:#000000;stroke-width:0.5;" cx="95.384" cy="326.111" r="5.72"/> 
			<circle style="fill:#FFFFB9;stroke:#000000;stroke-width:0.5;" cx="107.262" cy="326.111" r="5.72"/> 
			<circle style="fill:#FFFFB9;stroke:#000000;stroke-width:0.5;" cx="119.141" cy="326.111" r="5.72"/> 
			<circle style="fill:#FFFFB9;stroke:#000000;stroke-width:0.5;" cx="131.019" cy="326.111" r="5.72"/> 
			<circle style="fill:#FFFFB9;stroke:#000000;stroke-width:0.5;" cx="12.235" cy="337.989" r="5.72"/> 
			<circle style="fill:#FFFFB9;stroke:#000000;stroke-width:0.5;" cx="24.113" cy="337.989" r="5.72"/> 
			<circle style="fill:#FFFFB9;stroke:#000000;stroke-width:0.5;" cx="35.992" cy="337.989" r="5.72"/> 
			<circle style="fill:#FFFFB9;stroke:#000000;stroke-width:0.5;" cx="47.87" cy="337.989" r="5.72"/> 
			<circle style="fill:#FFFFB9;stroke:#000000;stroke-width:0.5;" cx="59.749" cy="337.989" r="5.72"/> 
			<circle style="fill:#FFFFB9;stroke:#000000;stroke-width:0.5;" cx="71.627" cy="337.989" r="5.72"/> 
			<circle style="fill:#FFFFB9;stroke:#000000;stroke-width:0.5;" cx="83.505" cy="337.989" r="5.72"/> 
			<circle style="fill:#FFFFB9;stroke:#000000;stroke-width:0.5;" cx="95.384" cy="337.989" r="5.72"/> 
			<circle style="fill:#FFFFB9;stroke:#000000;stroke-width:0.5;" cx="107.262" cy="337.989" r="5.72"/> 
			<circle style="fill:#FFFFB9;stroke:#000000;stroke-width:0.5;" cx="119.141" cy="337.989" r="5.72"/> 
			<circle style="fill:#FFFFB9;stroke:#000000;stroke-width:0.5;" cx="131.019" cy="337.989" r="5.72"/> 
			<circle style="fill:#FFFFB9;stroke:#000000;stroke-width:0.5;" cx="12.235" cy="349.868" r="5.72"/> 
			<circle style="fill:#FFFFB9;stroke:#000000;stroke-width:0.5;" cx="24.113" cy="349.868" r="5.72"/> 
			<circle style="fill:#FFFFB9;stroke:#000000;stroke-width:0.5;" cx="35.992" cy="349.868" r="5.72"/> 
			<circle style="fill:#FFFFB9;stroke:#000000;stroke-width:0.5;" cx="47.87" cy="349.868" r="5.72"/> 
			<circle style="fill:#FFFFB9;stroke:#000000;stroke-width:0.5;" cx="59.749" cy="349.868" r="5.72"/> 
			<circle style="fill:#FFFFB9;stroke:#000000;stroke-width:0.5;" cx="71.627" cy="349.868" r="5.72"/> 
			<circle style="fill:#FFFFB9;stroke:#000000;stroke-width:0.5;" cx="83.505" cy="349.868" r="5.72"/> 
			<circle style="fill:#FFFFB9;stroke:#000000;stroke-width:0.5;" cx="95.384" cy="349.868" r="5.72"/> 
			<circle style="fill:#FFFFB9;stroke:#000000;stroke-width:0.5;" cx="107.262" cy="349.868" r="5.72"/> 
			<circle style="fill:#FFFFB9;stroke:#000000;stroke-width:0.5;" cx="119.141" cy="349.868" r="5.72"/> 
			<circle style="fill:#FFFFB9;stroke:#000000;stroke-width:0.5;" cx="131.019" cy="349.868" r="5.72"/> 
			<path d="M116.163,319.773c-3.124,1.159-7,3.137-9.401,5.23l1.892-5.23l-1.892-5.23
				C109.163,316.636,113.039,318.614,116.163,319.773z"/>
			<polyline style="fill:none;stroke:#000000;stroke-width:3;" points="109.054,314.256 114.181,309.496 106.359,308.378 
				99.654,319.553 113.064,319.553 "/>
			<circle style="fill:#BCE5AB;stroke:#000000;stroke-width:0.5;" cx="119.736" cy="17.125" r="4.28"/> 
			<path style="fill:#FFFFFF;" d="M140.991,239.255c0.08-0.383,0.061-0.77,0.061-1.156c0,0.049,0.003,0.095,0.003,0.144
				c0.03-0.14,0.045-0.284,0.057-0.428c0.022,0.14-0.012,0.28-0.099,0.417c0.144-0.261,0.227-0.549,0.326-0.83
				c-0.026,0.144-0.03,0.295-0.151,0.406c0.492-0.663,0.917-1.406,1.159-2.202c-0.015,0.068-0.03,0.14-0.045,0.208
				c0.277-0.458,0.125-1.054-0.333-1.33c-0.458-0.273-1.053-0.125-1.33,0.333c-0.348,0.777-0.761,1.512-1.208,2.239
				c0.03-0.068,0.061-0.14,0.091-0.208c-0.057,0.118-0.117,0.235-0.163,0.356c0.038-0.049,0.072-0.103,0.11-0.152
				c-0.47,0.637-0.314,1.463-0.417,2.202c0,0.534,0.436,0.97,0.97,0.97S140.991,239.789,140.991,239.255L140.991,239.255z"/>
			<path style="fill:#FFFFFF;" d="M136.092,241.176c1.178-0.326,2.353-0.902,3.141-1.864c-0.004,0.012-0.008,0.026-0.012,0.038
				c0.409-0.345,0.466-0.958,0.122-1.368c-0.345-0.409-0.955-0.466-1.368-0.121c-0.591,0.689-1.394,1.167-2.27,1.413
				c-0.523,0.106-0.864,0.618-0.758,1.145C135.054,240.941,135.565,241.282,136.092,241.176L136.092,241.176z"/>
			<g>
				<path style="fill:#FFFFFF;" d="M5.789,239.368c-0.08-0.382-0.061-0.769-0.061-1.155c0,0.049-0.004,0.095-0.004,0.144
					c-0.031-0.14-0.046-0.284-0.057-0.428c-0.022,0.14,0.011,0.28,0.099,0.417c-0.144-0.261-0.227-0.549-0.326-0.83
					c0.027,0.144,0.031,0.295,0.152,0.405c-0.492-0.663-0.917-1.406-1.159-2.201c0.015,0.068,0.03,0.14,0.045,0.208
					c-0.276-0.458-0.125-1.053,0.333-1.33c0.458-0.273,1.053-0.125,1.33,0.333c0.349,0.776,0.761,1.512,1.209,2.239
					c-0.031-0.068-0.061-0.14-0.091-0.208c0.057,0.117,0.117,0.235,0.163,0.356c-0.038-0.049-0.072-0.102-0.11-0.151
					c0.47,0.637,0.315,1.462,0.417,2.201c0,0.535-0.436,0.97-0.97,0.97C6.225,240.338,5.789,239.903,5.789,239.368L5.789,239.368z"
					/>
				<path style="fill:#FFFFFF;" d="M10.688,241.29c-1.178-0.326-2.353-0.902-3.141-1.864c0.004,0.011,0.008,0.026,0.011,0.038
					c-0.409-0.345-0.466-0.959-0.121-1.368c0.345-0.409,0.955-0.466,1.368-0.121c0.591,0.689,1.395,1.167,2.27,1.413
					c0.523,0.106,0.864,0.618,0.758,1.145C11.726,241.055,11.215,241.396,10.688,241.29L10.688,241.29z"/>
			</g>
			<path style="fill:none;stroke:#000000;" d="M11.678,238.709c-2.122,0-5.335-3.456-5.335-4.911"/>
			<path style="fill:none;stroke:#000000;stroke-linecap:round;stroke-linejoin:round;" d="M135.171,238.588
				c2.425,0,4.911-2.546,4.911-4.79"/>
		</g>
		<rect y="134.972" style="fill:none;" width="147.401" height="2.834"/> 
	</g>
</svg>
