<?xml version="1.0" encoding="UTF-8" standalone="no"?>
<!-- Created with Inkscape (http://www.inkscape.org/) -->
<svg
   xmlns:a="http://ns.adobe.com/AdobeSVGViewerExtensions/3.0/"
   xmlns:dc="http://purl.org/dc/elements/1.1/"
   xmlns:cc="http://web.resource.org/cc/"
   xmlns:rdf="http://www.w3.org/1999/02/22-rdf-syntax-ns#"
   xmlns:svg="http://www.w3.org/2000/svg"
   xmlns="http://www.w3.org/2000/svg"
   xmlns:xlink="http://www.w3.org/1999/xlink"
   xmlns:sodipodi="http://inkscape.sourceforge.net/DTD/sodipodi-0.dtd"
   xmlns:inkscape="http://www.inkscape.org/namespaces/inkscape"
   width="744.09448819"
   height="1052.3622047"
   id="svg3494"
   sodipodi:version="0.32"
   sodipodi:docbase="/home/bcrowell/Documents/writing/lm/trunk/3vw/ch02/figs"
   sodipodi:docname="resonance-proof-3.svg">
  <defs
     id="defs3496"><linearGradient
   gradientTransform="translate(-253.8955,380.0771)"
   y2="-66.033302"
   x2="297.11469"
   y1="-14.699700"
   x1="337.78101"
   gradientUnits="userSpaceOnUse"
   id="XMLID_6_">
				<stop
   id="stop154"
   style="stop-color:#FFFFFF"
   offset="0" />

				<stop
   id="stop156"
   style="stop-color:#000000"
   offset="1" />

				<midPointStop
   style="stop-color:#FFFFFF"
   offset="0" />

				<midPointStop
   style="stop-color:#FFFFFF"
   offset="0.5" />

				<midPointStop
   style="stop-color:#000000"
   offset="1" />

			</linearGradient>

			
				<linearGradient
   id="linearGradient3506"
   gradientUnits="userSpaceOnUse"
   x1="337.78101"
   y1="-14.699700"
   x2="297.11469"
   y2="-66.033302"
   gradientTransform="translate(-253.8955,380.0771)">
				<stop
   offset="0"
   style="stop-color:#FFFFFF"
   id="stop3508" />

				<stop
   offset="1"
   style="stop-color:#000000"
   id="stop3510" />

				<midPointStop
   offset="0"
   style="stop-color:#FFFFFF" />

				<midPointStop
   offset="0.5"
   style="stop-color:#FFFFFF" />

				<midPointStop
   offset="1"
   style="stop-color:#000000" />

			</linearGradient>

			
			
			
			
				 
			
		<linearGradient
   inkscape:collect="always"
   xlink:href="#XMLID_6_"
   id="linearGradient3600"
   gradientUnits="userSpaceOnUse"
   gradientTransform="translate(52.65090,578.2048)"
   x1="337.78101"
   y1="-14.699700"
   x2="297.11469"
   y2="-66.033302" />
</defs>
  <sodipodi:namedview
     id="base"
     pagecolor="#ffffff"
     bordercolor="#666666"
     borderopacity="1.0"
     inkscape:pageopacity="0.0"
     inkscape:pageshadow="2"
     inkscape:zoom="1.0000000"
     inkscape:cx="365.18272"
     inkscape:cy="550.69767"
     inkscape:document-units="mm"
     inkscape:current-layer="layer1"
     inkscape:window-width="712"
     inkscape:window-height="510"
     inkscape:window-x="80"
     inkscape:window-y="384" />
  <metadata
     id="metadata3499">
    <rdf:RDF>
      <cc:Work
         rdf:about="">
        <dc:format>image/svg+xml</dc:format>
        <dc:type
           rdf:resource="http://purl.org/dc/dcmitype/StillImage" />
      </cc:Work>
    </rdf:RDF>
  </metadata>
  <g
     inkscape:label="Layer 1"
     inkscape:groupmode="layer"
     id="layer1">
    <rect
       style="fill:#dedede;fill-opacity:1.0000000;fill-rule:evenodd;stroke:none;stroke-width:1.0000000pt;stroke-linecap:butt;stroke-linejoin:miter;stroke-opacity:1.0000000"
       id="rect3399"
       width="184.25197"
       height="134.76416"
       x="271.68149"
       y="444.25845" />
    <g
       id="g3378"
       transform="matrix(0.998630,5.233596e-2,-5.233596e-2,0.998630,-14.12034,62.10359)">
      <path
         id="path3277"
         d="M 430.35094,428.18416 L 418.85094,440.93416 C 420.34169,442.08239 421.76621,443.33182 423.13219,444.62166 L 434.31969,431.74666 C 433.01741,430.53819 431.73899,429.29586 430.35094,428.18416 z "
         style="fill:#7f7f7f;fill-opacity:1.0000000;fill-rule:evenodd;stroke:none;stroke-width:1.0000000pt;stroke-linecap:butt;stroke-linejoin:miter;stroke-opacity:1.0000000" />
      <path
         id="path3305"
         d="M 432.02383,429.57441 L 420.16148,441.98798 C 421.61855,443.17867 423.00649,444.46859 424.33477,445.79723 L 435.88836,433.24970 C 434.62141,432.00423 433.37929,430.72561 432.02383,429.57441 z "
         style="fill:#848484;fill-opacity:1.0000000;fill-rule:evenodd;stroke:none;stroke-width:1.0000000pt;stroke-linecap:butt;stroke-linejoin:miter;stroke-opacity:1.0000000" />
      <path
         id="path3307"
         d="M 433.64718,431.08142 L 421.43232,443.14828 C 422.85451,444.38042 424.20473,445.70978 425.49421,447.07612 L 437.40429,434.86646 C 436.17372,433.58503 434.96895,432.27116 433.64718,431.08142 z "
         style="fill:#898989;fill-opacity:1.0000000;fill-rule:evenodd;stroke:none;stroke-width:1.0000000pt;stroke-linecap:butt;stroke-linejoin:miter;stroke-opacity:1.0000000" />
      <path
         id="path3309"
         d="M 435.61543,432.82737 L 423.05818,444.53751 C 424.44431,445.81008 425.75567,447.17779 427.00530,448.58068 L 439.26201,436.71903 C 438.06884,435.40269 436.90239,434.05467 435.61543,432.82737 z "
         style="fill:#8e8e8e;fill-opacity:1.0000000;fill-rule:evenodd;stroke:none;stroke-width:1.0000000pt;stroke-linecap:butt;stroke-linejoin:miter;stroke-opacity:1.0000000" />
      <path
         id="path3311"
         d="M 437.34765,434.69608 L 424.45842,446.03977 C 425.80734,447.35173 427.07877,448.75663 428.28748,450.19492 L 440.88064,438.69110 C 439.72588,437.34096 438.59873,435.95992 437.34765,434.69608 z "
         style="fill:#939393;fill-opacity:1.0000000;fill-rule:evenodd;stroke:none;stroke-width:1.0000000pt;stroke-linecap:butt;stroke-linejoin:miter;stroke-opacity:1.0000000" />
      <path
         id="path3313"
         d="M 439.30039,436.55813 L 426.08987,447.52599 C 427.40046,448.87625 428.63092,450.31717 429.79770,451.78967 L 442.71688,440.65323 C 441.60148,439.27039 440.51456,437.85747 439.30039,436.55813 z "
         style="fill:#989898;fill-opacity:1.0000000;fill-rule:evenodd;stroke:none;stroke-width:1.0000000pt;stroke-linecap:butt;stroke-linejoin:miter;stroke-opacity:1.0000000" />
      <path
         id="path3315"
         d="M 440.67341,438.32069 L 427.15257,448.90361 C 428.42373,450.29105 429.61219,451.76681 430.73609,453.27228 L 443.97058,442.51246 C 442.89545,441.09808 441.84967,439.65445 440.67341,438.32069 z "
         style="fill:#9d9d9d;fill-opacity:1.0000000;fill-rule:evenodd;stroke:none;stroke-width:1.0000000pt;stroke-linecap:butt;stroke-linejoin:miter;stroke-opacity:1.0000000" />
      <path
         id="path3317"
         d="M 442.15804,440.20587 L 428.33808,450.39511 C 429.56876,451.81857 430.71423,453.32793 431.79431,454.86514 L 445.33314,444.49086 C 444.29918,443.04610 443.29540,441.57296 442.15804,440.20587 z "
         style="fill:#a2a2a2;fill-opacity:1.0000000;fill-rule:evenodd;stroke:none;stroke-width:1.0000000pt;stroke-linecap:butt;stroke-linejoin:miter;stroke-opacity:1.0000000" />
      <path
         id="path3319"
         d="M 443.63796,441.86513 L 429.53034,451.65222 C 430.71952,453.11052 431.82106,454.65224 432.85644,456.21992 L 446.68836,446.23976 C 445.69643,444.76584 444.73548,443.26441 443.63796,441.86513 z "
         style="fill:#a7a7a7;fill-opacity:1.0000000;fill-rule:evenodd;stroke:none;stroke-width:1.0000000pt;stroke-linecap:butt;stroke-linejoin:miter;stroke-opacity:1.0000000" />
      <path
         id="path3321"
         d="M 444.90696,443.79127 L 430.52338,453.16808 C 431.67008,454.66002 432.72677,456.23282 433.71658,457.82966 L 447.83014,448.25192 C 446.88106,446.75005 445.96374,445.22157 444.90696,443.79127 z "
         style="fill:#acacac;fill-opacity:1.0000000;fill-rule:evenodd;stroke:none;stroke-width:1.0000000pt;stroke-linecap:butt;stroke-linejoin:miter;stroke-opacity:1.0000000" />
      <path
         id="path3323"
         d="M 445.91698,445.11675 L 431.26937,454.07551 C 432.37264,455.59985 433.38360,457.20242 434.32702,458.82710 L 448.71051,449.65972 C 447.80507,448.13114 446.93214,446.57688 445.91698,445.11675 z "
         style="fill:#b1b1b1;fill-opacity:1.0000000;fill-rule:evenodd;stroke:none;stroke-width:1.0000000pt;stroke-linecap:butt;stroke-linejoin:miter;stroke-opacity:1.0000000" />
      <path
         id="path3325"
         d="M 446.68978,446.56404 L 431.79029,455.09732 C 432.84921,456.65279 433.81360,458.28381 434.70985,459.93498 L 449.35134,451.18556 C 448.49029,449.63154 447.66248,448.05279 446.68978,446.56404 z "
         style="fill:#b6b6b6;fill-opacity:1.0000000;fill-rule:evenodd;stroke:none;stroke-width:1.0000000pt;stroke-linecap:butt;stroke-linejoin:miter;stroke-opacity:1.0000000" />
      <path
         id="path3327"
         d="M 447.57365,448.01688 L 432.43463,456.11761 C 433.44833,457.70292 434.36535,459.36104 435.21369,461.03733 L 450.10104,452.71312 C 449.28509,451.13495 448.50308,449.53302 447.57365,448.01688 z "
         style="fill:#bbbbbb;fill-opacity:1.0000000;fill-rule:evenodd;stroke:none;stroke-width:1.0000000pt;stroke-linecap:butt;stroke-linejoin:miter;stroke-opacity:1.0000000" />
      <path
         id="path3329"
         d="M 448.56846,449.70741 L 433.20247,457.36887 C 434.17010,458.98271 435.03899,460.66655 435.83872,462.36657 L 450.95958,454.47448 C 450.18941,452.87346 449.45385,451.24968 448.56846,449.70741 z "
         style="fill:#c0c0c0;fill-opacity:1.0000000;fill-rule:evenodd;stroke:none;stroke-width:1.0000000pt;stroke-linecap:butt;stroke-linejoin:miter;stroke-opacity:1.0000000" />
      <path
         id="path3331"
         d="M 449.55787,451.40321 L 433.97765,458.61905 C 434.89841,460.26008 435.71846,461.96824 436.46890,463.69058 L 451.81074,456.23716 C 451.08699,454.61462 450.39849,452.97034 449.55787,451.40321 z "
         style="fill:#c5c5c5;fill-opacity:1.0000000;fill-rule:evenodd;stroke:none;stroke-width:1.0000000pt;stroke-linecap:butt;stroke-linejoin:miter;stroke-opacity:1.0000000" />
      <path
         id="path3333"
         d="M 450.30945,453.10409 L 434.52792,459.86832 C 435.40104,461.53518 436.17157,463.26625 436.87210,465.00948 L 452.42220,458.00091 C 451.74546,456.35820 451.10460,454.69478 450.30945,453.10409 z "
         style="fill:#cacaca;fill-opacity:1.0000000;fill-rule:evenodd;stroke:none;stroke-width:1.0000000pt;stroke-linecap:butt;stroke-linejoin:miter;stroke-opacity:1.0000000" />
      <path
         id="path3335"
         d="M 451.28767,454.92605 L 435.31791,461.23306 C 436.14267,462.92437 436.86304,464.67691 437.51309,466.43959 L 453.25854,459.88167 C 452.62938,458.22016 452.03669,456.53897 451.28767,454.92605 z "
         style="fill:#cfcfcf;fill-opacity:1.0000000;fill-rule:evenodd;stroke:none;stroke-width:1.0000000pt;stroke-linecap:butt;stroke-linejoin:miter;stroke-opacity:1.0000000" />
      <path
         id="path3337"
         d="M 452.02777,456.63664 L 435.88303,462.48120 C 436.65874,464.19556 437.32835,465.96811 437.92738,467.74878 L 453.85513,461.64695 C 453.27407,459.96802 452.73004,458.27046 452.02777,456.63664 z "
         style="fill:#d4d4d4;fill-opacity:1.0000000;fill-rule:evenodd;stroke:none;stroke-width:1.0000000pt;stroke-linecap:butt;stroke-linejoin:miter;stroke-opacity:1.0000000" />
      <path
         id="path3339"
         d="M 452.87808,458.58414 L 436.57175,463.96141 C 437.29777,465.69739 437.91607,467.48849 438.46358,469.28567 L 454.56042,463.64499 C 454.02794,461.95003 453.53302,460.23750 452.87808,458.58414 z "
         style="fill:#d9d9d9;fill-opacity:1.0000000;fill-rule:evenodd;stroke:none;stroke-width:1.0000000pt;stroke-linecap:butt;stroke-linejoin:miter;stroke-opacity:1.0000000" />
    </g>
    <g
       id="g160"
       transform="translate(306.5464,198.1277)">
				<path
   style="fill:none;stroke:#000000;stroke-width:0.50000000;stroke-miterlimit:1.0000000"
   d="M 32.483000,356.09300 C 28.430000,360.14600 32.921000,363.18800 35.119000,360.99000 C 37.317000,358.79200 34.575000,354.00100 30.408000,358.16900 L 29.178000,359.39900"
   id="path162" />

				<path
   style="fill:none;stroke:#000000;stroke-width:0.50000000;stroke-miterlimit:1.0000000"
   d="M 32.484000,356.09200 C 36.651000,351.92500 39.394000,356.71500 37.195000,358.91300 C 34.996000,361.11100 30.506000,358.07000 34.559000,354.01700"
   id="path164" />

				<path
   style="fill:none;stroke:#000000;stroke-width:0.50000000;stroke-miterlimit:1.0000000"
   d="M 34.561000,354.01500 C 38.728000,349.84700 41.470000,354.63800 39.272000,356.83600 C 37.074000,359.03400 32.583000,355.99200 36.636000,351.93900"
   id="path166" />

				<path
   style="fill:none;stroke:#000000;stroke-width:0.50000000;stroke-miterlimit:1.0000000"
   d="M 36.638000,351.93800 C 40.806000,347.77100 43.548000,352.56100 41.349000,354.75900 C 39.150000,356.95700 34.660000,353.91500 38.713000,349.86200"
   id="path168" />

				<path
   style="fill:none;stroke:#000000;stroke-width:0.50000000;stroke-miterlimit:1.0000000"
   d="M 38.715000,349.86100 C 42.882000,345.69400 45.625000,350.48400 43.426000,352.68200 C 41.227000,354.88000 36.737000,351.83800 40.790000,347.78600"
   id="path170" />

				<path
   style="fill:none;stroke:#000000;stroke-width:0.50000000;stroke-miterlimit:1.0000000"
   d="M 40.792000,347.78400 C 44.959000,343.61700 47.701000,348.40700 45.503000,350.60600 C 43.305000,352.80400 38.814000,349.76200 42.867000,345.70900"
   id="path172" />

				<path
   style="fill:none;stroke:#000000;stroke-width:0.50000000;stroke-miterlimit:1.0000000"
   d="M 42.869000,345.70700 C 47.037000,341.54000 49.779000,346.33000 47.580000,348.52800 C 45.381000,350.72600 40.891000,347.68400 44.944000,343.63200"
   id="path174" />

				<path
   style="fill:none;stroke:#000000;stroke-width:0.50000000;stroke-miterlimit:1.0000000"
   d="M 44.946000,343.63000 C 49.113000,339.46300 51.856000,344.25300 49.657000,346.45100 C 47.458000,348.64900 42.968000,345.60700 47.021000,341.55500"
   id="path176" />

				<path
   style="fill:none;stroke:#000000;stroke-width:0.50000000;stroke-miterlimit:1.0000000"
   d="M 47.023000,341.55300 C 51.190000,337.38600 53.933000,342.17600 51.734000,344.37500 C 49.536000,346.57300 45.045000,343.53100 49.098000,339.47800"
   id="path178" />

				<path
   style="fill:none;stroke:#000000;stroke-width:0.50000000;stroke-miterlimit:1.0000000"
   d="M 49.100000,339.47600 C 53.268000,335.30800 56.010000,340.09900 53.811000,342.29700 C 51.612000,344.49500 47.122000,341.45300 51.175000,337.40000"
   id="path180" />

				<path
   style="fill:none;stroke:#000000;stroke-width:0.50000000;stroke-miterlimit:1.0000000"
   d="M 51.177000,337.39900 C 55.344000,333.23200 58.087000,338.02200 55.888000,340.22000 C 53.689000,342.41800 49.199000,339.37600 53.252000,335.32400"
   id="path182" />

				<path
   style="fill:none;stroke:#000000;stroke-width:0.50000000;stroke-miterlimit:1.0000000"
   d="M 53.254000,335.32200 C 57.421000,331.15500 60.163000,335.94600 57.965000,338.14300 C 55.766000,340.34200 51.276000,337.30000 55.329000,333.24700"
   id="path184" />

				<path
   style="fill:none;stroke:#000000;stroke-width:0.50000000;stroke-miterlimit:1.0000000"
   d="M 55.331000,333.24500 C 59.498000,329.07800 62.240000,333.86800 60.042000,336.06600 C 57.844000,338.26400 53.353000,335.22200 57.406000,331.16900"
   id="path186" />

				<path
   style="fill:none;stroke:#000000;stroke-width:0.50000000;stroke-miterlimit:1.0000000"
   d="M 57.408000,331.16800 C 61.575000,327.00100 64.318000,331.79100 62.119000,333.98900 C 59.920000,336.18700 55.430000,333.14500 59.483000,329.09300"
   id="path188" />

				<path
   style="fill:none;stroke:#000000;stroke-width:0.50000000;stroke-miterlimit:1.0000000"
   d="M 59.485000,329.09100 C 63.652000,324.92400 66.395000,329.71400 64.196000,331.91300 C 61.998000,334.11100 57.507000,331.06900 61.560000,327.01600"
   id="path190" />

				<path
   style="fill:none;stroke:#000000;stroke-width:0.50000000;stroke-miterlimit:1.0000000"
   d="M 61.562000,327.01400 C 65.729000,322.84600 68.471000,327.63700 66.273000,329.83500 C 64.075000,332.03300 59.584000,328.99100 63.637000,324.93800"
   id="path192" />

				<path
   style="fill:none;stroke:#000000;stroke-width:0.50000000;stroke-miterlimit:1.0000000"
   d="M 63.639000,324.93700 C 67.806000,320.77000 70.549000,325.56000 68.350000,327.75800 C 66.151000,329.95600 61.661000,326.91400 65.714000,322.86200"
   id="path194" />

				<path
   style="fill:none;stroke:#000000;stroke-width:0.50000000;stroke-miterlimit:1.0000000"
   d="M 65.716000,322.86000 C 69.883000,318.69300 72.625000,323.48400 70.427000,325.68200 C 68.229000,327.88000 63.738000,324.83800 67.791000,320.78500"
   id="path196" />

			</g>
    <g
       id="g198"
       transform="translate(306.5464,198.1277)">
				<path
   style="fill:none;stroke:#000000;stroke-width:0.50000000"
   d="M 84.039000,251.71200 C 84.216000,255.83500 84.275000,256.45300 84.703000,259.20200 C 85.130000,261.95100 85.568000,263.12100 85.722000,264.85500 C 85.876000,266.58800 85.539000,267.53900 85.529000,269.11600 C 85.519000,270.69400 85.585000,274.27200 85.303000,274.51800 C 85.022000,274.76500 83.742000,275.97100 82.478000,276.60600 C 81.214000,277.24200 80.257000,277.75200 79.774000,277.66100 C 79.291000,277.57100 77.284000,277.16100 76.992000,277.03100 C 76.623000,276.86700 74.997000,276.68100 74.847000,276.27100 C 74.697000,275.86100 75.568000,274.92700 76.359000,274.57700 C 77.150000,274.22700 78.172000,274.56900 78.758000,274.59200 C 79.017000,274.60200 80.881000,273.65500 81.025000,273.05900 C 81.169000,272.46300 81.111000,271.52900 80.758000,271.09700 C 80.404000,270.66500 80.474000,269.70500 80.016000,269.73600 C 79.558000,269.76600 78.537000,270.29000 78.013000,270.64900 C 77.489000,271.00800 76.250000,271.76400 75.474000,271.85900 C 74.697000,271.95400 73.962000,271.60000 73.672000,271.15500 C 73.382000,270.71000 72.932000,269.47800 73.113000,269.06300 C 73.294000,268.64800 73.604000,267.89200 74.446000,267.46800 C 75.288000,267.04500 72.112000,268.38500 71.921000,268.42400 C 71.730000,268.46300 70.728000,268.10000 70.516000,267.38700 C 70.305000,266.67400 69.906000,265.36900 70.303000,265.03600 C 70.700000,264.70300 71.681000,264.31400 72.321000,263.86900 C 72.960000,263.42400 70.061000,265.14900 69.342000,264.22400 C 68.623000,263.29900 68.424000,262.64700 68.631000,262.03700 C 68.839000,261.42800 69.660000,260.25200 70.273000,260.00100 C 70.885000,259.75100 73.160000,258.21500 73.160000,258.21500"
   id="path200" />

				<path
   style="fill:none;stroke:#000000;stroke-width:0.50000000"
   d="M 76.297000,248.87800 C 76.297000,248.87800 75.219000,250.42100 74.783000,250.88800 C 74.347000,251.35500 73.144000,252.60800 72.679000,253.58500 C 72.214000,254.56200 71.901000,257.90300 71.617000,258.46500 C 71.333000,259.02700 70.884000,259.74900 70.884000,259.74900"
   id="path202" />

				<line
   style="fill:none;stroke:#000000;stroke-width:0.50000000"
   x1="76.973999"
   y1="266.19601"
   x2="74.625999"
   y2="267.36801"
   id="line204" />

				<line
   style="fill:none;stroke:#000000;stroke-width:0.50000000"
   x1="72.499001"
   y1="263.76801"
   x2="75.126999"
   y2="262.66501"
   id="line206" />

				<path
   style="fill:none;stroke:#000000;stroke-width:0.50000000"
   d="M 75.400000,259.77400 C 75.254000,260.68600 76.150000,261.82700 76.532000,261.74900"
   id="path208" />

				<path
   style="fill:none;stroke:#000000;stroke-width:0.50000000"
   d="M 78.817000,262.54300 C 78.909000,263.97400 79.520000,264.03800 80.107000,263.66700"
   id="path210" />

				<line
   style="fill:none;stroke:#000000;stroke-width:0.50000000"
   x1="82.928001"
   y1="268.07001"
   x2="80.016998"
   y2="269.73499"
   id="line212" />

				<line
   style="fill:none;stroke:#000000;stroke-width:0.50000000"
   x1="79.035004"
   y1="274.72400"
   x2="79.483002"
   y2="276.27100"
   id="line214" />

				<path
   style="fill:none;stroke:#000000;stroke-width:0.50000000"
   d="M 82.628000,273.11000 C 82.628000,273.11000 81.371000,272.79900 81.025000,273.05800"
   id="path216" />

			</g>
    <rect
       x="-641.23199"
       y="-101.18067"
       transform="matrix(-0.707107,-0.707107,0.707107,-0.707107,0.000000,0.000000)"
       style="fill:#404040;stroke:#000000"
       width="13.866867"
       height="16.719839"
       id="rect218" />
    <line
       style="fill:none;stroke:#000000;stroke-width:0.50000000"
       x1="384.20639"
       y1="503.37567"
       x2="386.33139"
       y2="474.13168"
       id="line220" />
  </g>
</svg>
