<?xml version="1.0" encoding="UTF-8" standalone="no"?>
<!-- Created with Inkscape (http://www.inkscape.org/) -->
<svg
   xmlns:a="http://ns.adobe.com/AdobeSVGViewerExtensions/3.0/"
   xmlns:dc="http://purl.org/dc/elements/1.1/"
   xmlns:cc="http://web.resource.org/cc/"
   xmlns:rdf="http://www.w3.org/1999/02/22-rdf-syntax-ns#"
   xmlns:svg="http://www.w3.org/2000/svg"
   xmlns="http://www.w3.org/2000/svg"
   xmlns:xlink="http://www.w3.org/1999/xlink"
   xmlns:sodipodi="http://inkscape.sourceforge.net/DTD/sodipodi-0.dtd"
   xmlns:inkscape="http://www.inkscape.org/namespaces/inkscape"
   width="744.09448819"
   height="1052.3622047"
   id="svg2480"
   sodipodi:version="0.32"
   sodipodi:docbase="/home/bcrowell/Documents/writing/lm/trunk/3vw/ch02/figs"
   sodipodi:docname="resonance-proof-1.svg">
  <defs
     id="defs2482">
    <linearGradient
       gradientTransform="translate(-248.4312,75.58200)"
       y2="-66.033302"
       x2="297.11469"
       y1="-14.699700"
       x1="337.78101"
       gradientUnits="userSpaceOnUse"
       id="XMLID_4_">
      <stop
         id="stop10"
         style="stop-color:#FFFFFF"
         offset="0" />
      <stop
         id="stop12"
         style="stop-color:#000000"
         offset="1" />
      <midPointStop
         style="stop-color:#FFFFFF"
         offset="0" />
      <midPointStop
         style="stop-color:#FFFFFF"
         offset="0.5" />
      <midPointStop
         style="stop-color:#000000"
         offset="1" />
    </linearGradient>
    <linearGradient
       id="linearGradient2492"
       gradientUnits="userSpaceOnUse"
       x1="337.78101"
       y1="-14.699700"
       x2="297.11469"
       y2="-66.033302"
       gradientTransform="translate(-248.4312,75.58200)">
      <stop
         offset="0"
         style="stop-color:#FFFFFF"
         id="stop2494" />
      <stop
         offset="1"
         style="stop-color:#000000"
         id="stop2496" />
      <midPointStop
         offset="0"
         style="stop-color:#FFFFFF" />
      <midPointStop
         offset="0.5"
         style="stop-color:#FFFFFF" />
      <midPointStop
         offset="1"
         style="stop-color:#000000" />
    </linearGradient>
    <linearGradient
       inkscape:collect="always"
       xlink:href="#XMLID_4_"
       id="linearGradient3376"
       gradientUnits="userSpaceOnUse"
       gradientTransform="translate(-2.661400,430.1678)"
       x1="337.78101"
       y1="-14.699700"
       x2="297.11469"
       y2="-66.033302" />
  </defs>
  <sodipodi:namedview
     id="base"
     pagecolor="#ffffff"
     bordercolor="#666666"
     borderopacity="1.0"
     inkscape:pageopacity="0.0"
     inkscape:pageshadow="2"
     inkscape:zoom="3.8193548"
     inkscape:cx="304.00000"
     inkscape:cy="659.50000"
     inkscape:document-units="mm"
     inkscape:current-layer="layer1"
     inkscape:window-width="1278"
     inkscape:window-height="996"
     inkscape:window-x="12"
     inkscape:window-y="136" />
  <metadata
     id="metadata2485">
    <rdf:RDF>
      <cc:Work
         rdf:about="">
        <dc:format>image/svg+xml</dc:format>
        <dc:type
           rdf:resource="http://purl.org/dc/dcmitype/StillImage" />
      </cc:Work>
    </rdf:RDF>
  </metadata>
  <g
     inkscape:label="Layer 1"
     inkscape:groupmode="layer"
     id="layer1">
    <rect
       style="fill:#dedede;fill-opacity:1.0000000;fill-rule:evenodd;stroke:none;stroke-width:1.0000000pt;stroke-linecap:butt;stroke-linejoin:miter;stroke-opacity:1.0000000"
       id="rect3399"
       width="184.25197"
       height="86.954536"
       x="223.00000"
       y="341.40762" />
    <g
       id="g3378"
       transform="matrix(0.998630,5.233596e-2,-5.233596e-2,0.998630,-63.76087,-84.86464)">
      <path
         id="path3277"
         d="M 430.35094,428.18416 L 418.85094,440.93416 C 420.34169,442.08239 421.76621,443.33182 423.13219,444.62166 L 434.31969,431.74666 C 433.01741,430.53819 431.73899,429.29586 430.35094,428.18416 z "
         style="fill:#7f7f7f;fill-opacity:1.0000000;fill-rule:evenodd;stroke:none;stroke-width:1.0000000pt;stroke-linecap:butt;stroke-linejoin:miter;stroke-opacity:1.0000000" />
      <path
         id="path3305"
         d="M 432.02383,429.57441 L 420.16148,441.98798 C 421.61855,443.17867 423.00649,444.46859 424.33477,445.79723 L 435.88836,433.24970 C 434.62141,432.00423 433.37929,430.72561 432.02383,429.57441 z "
         style="fill:#848484;fill-opacity:1.0000000;fill-rule:evenodd;stroke:none;stroke-width:1.0000000pt;stroke-linecap:butt;stroke-linejoin:miter;stroke-opacity:1.0000000" />
      <path
         id="path3307"
         d="M 433.64718,431.08142 L 421.43232,443.14828 C 422.85451,444.38042 424.20473,445.70978 425.49421,447.07612 L 437.40429,434.86646 C 436.17372,433.58503 434.96895,432.27116 433.64718,431.08142 z "
         style="fill:#898989;fill-opacity:1.0000000;fill-rule:evenodd;stroke:none;stroke-width:1.0000000pt;stroke-linecap:butt;stroke-linejoin:miter;stroke-opacity:1.0000000" />
      <path
         id="path3309"
         d="M 435.61543,432.82737 L 423.05818,444.53751 C 424.44431,445.81008 425.75567,447.17779 427.00530,448.58068 L 439.26201,436.71903 C 438.06884,435.40269 436.90239,434.05467 435.61543,432.82737 z "
         style="fill:#8e8e8e;fill-opacity:1.0000000;fill-rule:evenodd;stroke:none;stroke-width:1.0000000pt;stroke-linecap:butt;stroke-linejoin:miter;stroke-opacity:1.0000000" />
      <path
         id="path3311"
         d="M 437.34765,434.69608 L 424.45842,446.03977 C 425.80734,447.35173 427.07877,448.75663 428.28748,450.19492 L 440.88064,438.69110 C 439.72588,437.34096 438.59873,435.95992 437.34765,434.69608 z "
         style="fill:#939393;fill-opacity:1.0000000;fill-rule:evenodd;stroke:none;stroke-width:1.0000000pt;stroke-linecap:butt;stroke-linejoin:miter;stroke-opacity:1.0000000" />
      <path
         id="path3313"
         d="M 439.30039,436.55813 L 426.08987,447.52599 C 427.40046,448.87625 428.63092,450.31717 429.79770,451.78967 L 442.71688,440.65323 C 441.60148,439.27039 440.51456,437.85747 439.30039,436.55813 z "
         style="fill:#989898;fill-opacity:1.0000000;fill-rule:evenodd;stroke:none;stroke-width:1.0000000pt;stroke-linecap:butt;stroke-linejoin:miter;stroke-opacity:1.0000000" />
      <path
         id="path3315"
         d="M 440.67341,438.32069 L 427.15257,448.90361 C 428.42373,450.29105 429.61219,451.76681 430.73609,453.27228 L 443.97058,442.51246 C 442.89545,441.09808 441.84967,439.65445 440.67341,438.32069 z "
         style="fill:#9d9d9d;fill-opacity:1.0000000;fill-rule:evenodd;stroke:none;stroke-width:1.0000000pt;stroke-linecap:butt;stroke-linejoin:miter;stroke-opacity:1.0000000" />
      <path
         id="path3317"
         d="M 442.15804,440.20587 L 428.33808,450.39511 C 429.56876,451.81857 430.71423,453.32793 431.79431,454.86514 L 445.33314,444.49086 C 444.29918,443.04610 443.29540,441.57296 442.15804,440.20587 z "
         style="fill:#a2a2a2;fill-opacity:1.0000000;fill-rule:evenodd;stroke:none;stroke-width:1.0000000pt;stroke-linecap:butt;stroke-linejoin:miter;stroke-opacity:1.0000000" />
      <path
         id="path3319"
         d="M 443.63796,441.86513 L 429.53034,451.65222 C 430.71952,453.11052 431.82106,454.65224 432.85644,456.21992 L 446.68836,446.23976 C 445.69643,444.76584 444.73548,443.26441 443.63796,441.86513 z "
         style="fill:#a7a7a7;fill-opacity:1.0000000;fill-rule:evenodd;stroke:none;stroke-width:1.0000000pt;stroke-linecap:butt;stroke-linejoin:miter;stroke-opacity:1.0000000" />
      <path
         id="path3321"
         d="M 444.90696,443.79127 L 430.52338,453.16808 C 431.67008,454.66002 432.72677,456.23282 433.71658,457.82966 L 447.83014,448.25192 C 446.88106,446.75005 445.96374,445.22157 444.90696,443.79127 z "
         style="fill:#acacac;fill-opacity:1.0000000;fill-rule:evenodd;stroke:none;stroke-width:1.0000000pt;stroke-linecap:butt;stroke-linejoin:miter;stroke-opacity:1.0000000" />
      <path
         id="path3323"
         d="M 445.91698,445.11675 L 431.26937,454.07551 C 432.37264,455.59985 433.38360,457.20242 434.32702,458.82710 L 448.71051,449.65972 C 447.80507,448.13114 446.93214,446.57688 445.91698,445.11675 z "
         style="fill:#b1b1b1;fill-opacity:1.0000000;fill-rule:evenodd;stroke:none;stroke-width:1.0000000pt;stroke-linecap:butt;stroke-linejoin:miter;stroke-opacity:1.0000000" />
      <path
         id="path3325"
         d="M 446.68978,446.56404 L 431.79029,455.09732 C 432.84921,456.65279 433.81360,458.28381 434.70985,459.93498 L 449.35134,451.18556 C 448.49029,449.63154 447.66248,448.05279 446.68978,446.56404 z "
         style="fill:#b6b6b6;fill-opacity:1.0000000;fill-rule:evenodd;stroke:none;stroke-width:1.0000000pt;stroke-linecap:butt;stroke-linejoin:miter;stroke-opacity:1.0000000" />
      <path
         id="path3327"
         d="M 447.57365,448.01688 L 432.43463,456.11761 C 433.44833,457.70292 434.36535,459.36104 435.21369,461.03733 L 450.10104,452.71312 C 449.28509,451.13495 448.50308,449.53302 447.57365,448.01688 z "
         style="fill:#bbbbbb;fill-opacity:1.0000000;fill-rule:evenodd;stroke:none;stroke-width:1.0000000pt;stroke-linecap:butt;stroke-linejoin:miter;stroke-opacity:1.0000000" />
      <path
         id="path3329"
         d="M 448.56846,449.70741 L 433.20247,457.36887 C 434.17010,458.98271 435.03899,460.66655 435.83872,462.36657 L 450.95958,454.47448 C 450.18941,452.87346 449.45385,451.24968 448.56846,449.70741 z "
         style="fill:#c0c0c0;fill-opacity:1.0000000;fill-rule:evenodd;stroke:none;stroke-width:1.0000000pt;stroke-linecap:butt;stroke-linejoin:miter;stroke-opacity:1.0000000" />
      <path
         id="path3331"
         d="M 449.55787,451.40321 L 433.97765,458.61905 C 434.89841,460.26008 435.71846,461.96824 436.46890,463.69058 L 451.81074,456.23716 C 451.08699,454.61462 450.39849,452.97034 449.55787,451.40321 z "
         style="fill:#c5c5c5;fill-opacity:1.0000000;fill-rule:evenodd;stroke:none;stroke-width:1.0000000pt;stroke-linecap:butt;stroke-linejoin:miter;stroke-opacity:1.0000000" />
      <path
         id="path3333"
         d="M 450.30945,453.10409 L 434.52792,459.86832 C 435.40104,461.53518 436.17157,463.26625 436.87210,465.00948 L 452.42220,458.00091 C 451.74546,456.35820 451.10460,454.69478 450.30945,453.10409 z "
         style="fill:#cacaca;fill-opacity:1.0000000;fill-rule:evenodd;stroke:none;stroke-width:1.0000000pt;stroke-linecap:butt;stroke-linejoin:miter;stroke-opacity:1.0000000" />
      <path
         id="path3335"
         d="M 451.28767,454.92605 L 435.31791,461.23306 C 436.14267,462.92437 436.86304,464.67691 437.51309,466.43959 L 453.25854,459.88167 C 452.62938,458.22016 452.03669,456.53897 451.28767,454.92605 z "
         style="fill:#cfcfcf;fill-opacity:1.0000000;fill-rule:evenodd;stroke:none;stroke-width:1.0000000pt;stroke-linecap:butt;stroke-linejoin:miter;stroke-opacity:1.0000000" />
      <path
         id="path3337"
         d="M 452.02777,456.63664 L 435.88303,462.48120 C 436.65874,464.19556 437.32835,465.96811 437.92738,467.74878 L 453.85513,461.64695 C 453.27407,459.96802 452.73004,458.27046 452.02777,456.63664 z "
         style="fill:#d4d4d4;fill-opacity:1.0000000;fill-rule:evenodd;stroke:none;stroke-width:1.0000000pt;stroke-linecap:butt;stroke-linejoin:miter;stroke-opacity:1.0000000" />
      <path
         id="path3339"
         d="M 452.87808,458.58414 L 436.57175,463.96141 C 437.29777,465.69739 437.91607,467.48849 438.46358,469.28567 L 454.56042,463.64499 C 454.02794,461.95003 453.53302,460.23750 452.87808,458.58414 z "
         style="fill:#d9d9d9;fill-opacity:1.0000000;fill-rule:evenodd;stroke:none;stroke-width:1.0000000pt;stroke-linecap:butt;stroke-linejoin:miter;stroke-opacity:1.0000000" />
    </g>
    <g
       id="g16"
       transform="translate(250.7445,354.8476)">
      <path
         style="fill:none;stroke:#000000;stroke-width:0.50000000;stroke-miterlimit:1.0000000"
         d="M 37.947000,51.599000 C 33.894000,55.652000 38.385000,58.694000 40.583000,56.495000 C 42.781000,54.296000 40.040000,49.506000 35.872000,53.674000 L 34.642000,54.904000"
         id="path18" />
      <path
         style="fill:none;stroke:#000000;stroke-width:0.50000000;stroke-miterlimit:1.0000000"
         d="M 37.948000,51.597000 C 42.115000,47.430000 44.858000,52.220000 42.659000,54.419000 C 40.461000,56.617000 35.970000,53.575000 40.023000,49.522000"
         id="path20" />
      <path
         style="fill:none;stroke:#000000;stroke-width:0.50000000;stroke-miterlimit:1.0000000"
         d="M 40.026000,49.520000 C 44.193000,45.352000 46.936000,50.143000 44.737000,52.341000 C 42.538000,54.539000 38.048000,51.497000 42.101000,47.444000"
         id="path22" />
      <path
         style="fill:none;stroke:#000000;stroke-width:0.50000000;stroke-miterlimit:1.0000000"
         d="M 42.103000,47.443000 C 46.270000,43.276000 49.012000,48.066000 46.814000,50.264000 C 44.616000,52.462000 40.125000,49.420000 44.178000,45.367000"
         id="path24" />
      <path
         style="fill:none;stroke:#000000;stroke-width:0.50000000;stroke-miterlimit:1.0000000"
         d="M 44.179000,45.366000 C 48.346000,41.199000 51.089000,45.989000 48.890000,48.187000 C 46.691000,50.385000 42.201000,47.343000 46.254000,43.291000"
         id="path26" />
      <path
         style="fill:none;stroke:#000000;stroke-width:0.50000000;stroke-miterlimit:1.0000000"
         d="M 46.257000,43.289000 C 50.424000,39.122000 53.167000,43.913000 50.968000,46.111000 C 48.769000,48.309000 44.279000,45.267000 48.332000,41.214000"
         id="path28" />
      <path
         style="fill:none;stroke:#000000;stroke-width:0.50000000;stroke-miterlimit:1.0000000"
         d="M 48.334000,41.212000 C 52.501000,37.045000 55.243000,41.835000 53.045000,44.033000 C 50.847000,46.231000 46.356000,43.189000 50.409000,39.137000"
         id="path30" />
      <path
         style="fill:none;stroke:#000000;stroke-width:0.50000000;stroke-miterlimit:1.0000000"
         d="M 50.410000,39.135000 C 54.578000,34.968000 57.320000,39.758000 55.121000,41.956000 C 52.922000,44.154000 48.432000,41.113000 52.485000,37.060000"
         id="path32" />
      <path
         style="fill:none;stroke:#000000;stroke-width:0.50000000;stroke-miterlimit:1.0000000"
         d="M 52.488000,37.058000 C 56.655000,32.890000 59.398000,37.681000 57.199000,39.879000 C 55.000000,42.077000 50.510000,39.035000 54.563000,34.982000"
         id="path34" />
      <path
         style="fill:none;stroke:#000000;stroke-width:0.50000000;stroke-miterlimit:1.0000000"
         d="M 54.565000,34.981000 C 58.732000,30.814000 61.475000,35.604000 59.276000,37.802000 C 57.078000,40.000000 52.587000,36.958000 56.640000,32.905000"
         id="path36" />
      <path
         style="fill:none;stroke:#000000;stroke-width:0.50000000;stroke-miterlimit:1.0000000"
         d="M 56.641000,32.904000 C 60.808000,28.737000 63.551000,33.527000 61.352000,35.725000 C 59.154000,37.924000 54.663000,34.882000 58.716000,30.829000"
         id="path38" />
      <path
         style="fill:none;stroke:#000000;stroke-width:0.50000000;stroke-miterlimit:1.0000000"
         d="M 58.719000,30.827000 C 62.886000,26.660000 65.629000,31.451000 63.430000,33.649000 C 61.231000,35.847000 56.741000,32.805000 60.794000,28.752000"
         id="path40" />
      <path
         style="fill:none;stroke:#000000;stroke-width:0.50000000;stroke-miterlimit:1.0000000"
         d="M 60.796000,28.750000 C 64.963000,24.583000 67.705000,29.373000 65.507000,31.571000 C 63.308000,33.769000 58.818000,30.727000 62.871000,26.674000"
         id="path42" />
      <path
         style="fill:none;stroke:#000000;stroke-width:0.50000000;stroke-miterlimit:1.0000000"
         d="M 62.872000,26.673000 C 67.039000,22.506000 69.782000,27.296000 67.583000,29.494000 C 65.384000,31.692000 60.894000,28.650000 64.947000,24.598000"
         id="path44" />
      <path
         style="fill:none;stroke:#000000;stroke-width:0.50000000;stroke-miterlimit:1.0000000"
         d="M 64.949000,24.596000 C 69.116000,20.429000 71.859000,25.219000 69.660000,27.418000 C 67.462000,29.616000 62.971000,26.574000 67.024000,22.521000"
         id="path46" />
      <path
         style="fill:none;stroke:#000000;stroke-width:0.50000000;stroke-miterlimit:1.0000000"
         d="M 67.027000,22.519000 C 71.194000,18.351000 73.937000,23.142000 71.738000,25.340000 C 69.540000,27.538000 65.050000,24.496000 69.102000,20.443000"
         id="path48" />
      <path
         style="fill:none;stroke:#000000;stroke-width:0.50000000;stroke-miterlimit:1.0000000"
         d="M 69.103000,20.442000 C 73.270000,16.275000 76.013000,21.065000 73.814000,23.263000 C 71.615000,25.461000 67.125000,22.419000 71.178000,18.367000"
         id="path50" />
      <path
         style="fill:none;stroke:#000000;stroke-width:0.50000000;stroke-miterlimit:1.0000000"
         d="M 71.180000,18.365000 C 75.347000,14.198000 78.090000,18.989000 75.891000,21.187000 C 73.692000,23.385000 69.202000,20.343000 73.255000,16.290000"
         id="path52" />
    </g>
    <g
       id="g54"
       transform="translate(250.7445,354.8476)">
      <path
         style="fill:none;stroke:#000000;stroke-width:0.50000000"
         d="M 18.179000,23.423000 C 22.034000,21.950000 22.601000,21.698000 25.074000,20.423000 C 27.547000,19.148000 28.518000,18.362000 30.114000,17.667000 C 31.710000,16.972000 32.718000,16.991000 34.218000,16.501000 C 35.718000,16.012000 39.092000,14.816000 39.414000,15.005000 C 39.736000,15.194000 41.286000,16.026000 42.289000,17.024000 C 43.292000,18.021000 44.079000,18.768000 44.145000,19.254000 C 44.211000,19.740000 44.458000,21.775000 44.428000,22.092000 C 44.389000,22.494000 44.727000,24.095000 44.386000,24.367000 C 44.044000,24.639000 42.883000,24.108000 42.300000,23.469000 C 41.717000,22.829000 41.719000,21.752000 41.555000,21.188000 C 41.483000,20.939000 39.995000,19.471000 39.384000,19.523000 C 38.773000,19.575000 37.905000,19.925000 37.607000,20.397000 C 37.309000,20.869000 36.377000,21.106000 36.551000,21.532000 C 36.724000,21.957000 37.544000,22.760000 38.050000,23.143000 C 38.556000,23.526000 39.666000,24.462000 40.002000,25.168000 C 40.338000,25.875000 40.235000,26.685000 39.904000,27.100000 C 39.573000,27.515000 38.548000,28.332000 38.097000,28.292000 C 37.646000,28.251000 36.830000,28.197000 36.162000,27.532000 C 35.494000,26.867000 37.770000,29.456000 37.868000,29.625000 C 37.966000,29.794000 37.939000,30.860000 37.329000,31.287000 C 36.720000,31.713000 35.608000,32.504000 35.167000,32.234000 C 34.726000,31.963000 34.045000,31.154000 33.421000,30.690000 C 32.796000,30.225000 35.350000,32.429000 34.701000,33.403000 C 34.051000,34.378000 33.495000,34.774000 32.851000,34.770000 C 32.207000,34.766000 30.832000,34.358000 30.400000,33.857000 C 29.968000,33.356000 27.793000,31.684000 27.793000,31.684000"
         id="path56" />
      <path
         style="fill:none;stroke:#000000;stroke-width:0.50000000"
         d="M 17.941000,31.664000 C 17.941000,31.664000 19.746000,32.199000 20.327000,32.464000 C 20.908000,32.730000 22.478000,33.475000 23.552000,33.606000 C 24.625000,33.737000 27.894000,32.978000 28.517000,33.069000 C 29.140000,33.160000 29.967000,33.359000 29.967000,33.359000"
         id="path58" />
      <line
         style="fill:none;stroke:#000000;stroke-width:0.50000000"
         x1="34.154999"
         y1="25.541000"
         x2="36.008999"
         y2="27.396999"
         id="line60" />
      <line
         style="fill:none;stroke:#000000;stroke-width:0.50000000"
         x1="33.266998"
         y1="30.554001"
         x2="31.389999"
         y2="28.410000"
         id="line62" />
      <path
         style="fill:none;stroke:#000000;stroke-width:0.50000000"
         d="M 28.561000,29.066000 C 29.472000,28.916000 30.270000,27.705000 30.076000,27.367000"
         id="path64" />
      <path
         style="fill:none;stroke:#000000;stroke-width:0.50000000"
         d="M 30.107000,24.949000 C 31.435000,24.408000 31.303000,23.809000 30.764000,23.369000"
         id="path66" />
      <line
         style="fill:none;stroke:#000000;stroke-width:0.50000000"
         x1="34.048000"
         y1="19.299000"
         x2="36.549000"
         y2="21.534000"
         id="line68" />
      <line
         style="fill:none;stroke:#000000;stroke-width:0.50000000"
         x1="41.591999"
         y1="20.886000"
         x2="42.917999"
         y2="19.971001"
         id="line70" />
      <path
         style="fill:none;stroke:#000000;stroke-width:0.50000000"
         d="M 38.924000,17.989000 C 38.924000,17.989000 39.027000,19.280000 39.382000,19.526000"
         id="path72" />
    </g>
    <rect
       x="-501.13757"
       y="-32.280407"
       transform="matrix(-0.707107,-0.707107,0.707107,-0.707107,0.000000,0.000000)"
       style="fill:#404040;stroke:#000000"
       width="13.866871"
       height="16.719845"
       id="rect74" />
    <line
       style="fill:none;stroke:#000000;stroke-width:0.50000000"
       x1="321.72546"
       y1="367.37762"
       x2="293.31348"
       y2="374.61761"
       id="line76" />
  </g>
</svg>
