<?xml version="1.0" encoding="iso-8859-1"?>
<!-- Generator: Adobe Illustrator 11 Build 196, SVG Export Plug-In . SVG Version: 6.0.0 Build 78)  -->
<!DOCTYPE svg PUBLIC "-//W3C//DTD SVG 1.0//EN"    "http://www.w3.org/TR/2001/REC-SVG-20010904/DTD/svg10.dtd" [
	<!ENTITY ns_flows "http://ns.adobe.com/Flows/1.0/">
	<!ENTITY ns_svg "http://www.w3.org/2000/svg">
	<!ENTITY ns_xlink "http://www.w3.org/1999/xlink">
]>
<svg  
	 width="119.488" height="81.557" viewBox="0 0 119.488 81.557" style="overflow:visible;enable-background:new 0 0 119.488 81.557"
	 xml:space="preserve">
	<style type="text/css">
	
	</style>
	<g id="Layer_1">
		
			<radialGradient id="XMLID_6_" cx="36.3589" cy="-209.8237" r="6.8943" fx="36.3589" fy="-209.8237" gradientTransform="matrix(0.7671 0 0 0.7671 5.5862 231.7597)" gradientUnits="userSpaceOnUse">
			<stop  offset="0" style="stop-color:#F8F8F8"/>
			<stop  offset="1" style="stop-color:#C7C7C7"/>
			<midPointStop  offset="0" style="stop-color:#F8F8F8"/>
			<midPointStop  offset="0.5" style="stop-color:#F8F8F8"/>
			<midPointStop  offset="1" style="stop-color:#C7C7C7"/>
		</radialGradient>
		<path style="fill:url(#XMLID_6_);stroke:#000000;stroke-width:0.5;" d="M66,5.142c-5.61,0-11.56-4.767-22.189-3.989
			c-10.222,0.748-7.292,40.887-7.292,50.423c0,9.537,0,16.829-5.049,16.829c-5.048,0-5.609-9.537-3.366-11.219
			c2.244-1.683-17.39-2.244-15.707,0c1.683,2.244,2.805,24.121,17.951,24.121c15.146,0,13.525-26.926,12.964-37.023
			c-0.561-10.098-2.493-32.91,0.998-36.649c3.014-3.229,12.528-0.499,16.455-0.499S66,5.142,66,5.142z"/>
		<path style="fill:#DCDCDC;stroke:#000000;stroke-width:0.5;" d="M13.108,57.905c2.228,0.937,12.083,2.006,14.586,0.03"/>
		<g>
			<line style="fill:none;stroke:#000000;stroke-width:3;" x1="40.491" y1="38.018" x2="71.176" y2="38.018"/>
			<path d="M76.037,38.018c-2.287,0.849-5.125,2.297-6.884,3.83l1.386-3.83l-1.386-3.83C70.912,35.721,73.75,37.169,76.037,38.018z"
				/>
		</g>
		<g>
			<line style="fill:none;stroke:#000000;stroke-width:3;" x1="40.912" y1="3.83" x2="114.556" y2="3.83"/>
			<path d="M119.417,3.83c-2.287,0.849-5.125,2.297-6.884,3.83l1.385-3.83L112.533,0C114.292,1.533,117.13,2.981,119.417,3.83z"/>
		</g>
		<g>
			<line style="fill:none;stroke:#000000;stroke-width:3;" x1="36.309" y1="32.213" x2="12.528" y2="32.213"/>
			<path d="M7.667,32.213c2.288-0.849,5.125-2.297,6.884-3.83l-1.385,3.83l1.385,3.83C12.792,34.51,9.954,33.062,7.667,32.213z"/>
		</g>
		<g>
			<line style="fill:none;stroke:#000000;stroke-width:3;" x1="39.377" y1="65.967" x2="58.556" y2="65.967"/>
			<path d="M63.417,65.967c-2.288,0.849-5.125,2.297-6.885,3.831l1.385-3.831l-1.385-3.83C58.292,63.67,61.129,65.119,63.417,65.967
				z"/>
		</g>
		<g>
			<text transform="matrix(1 0 0 1 100.2271 16.3984)"><tspan x="0" y="0" style="font-family:Liberation Sans; font-size:7.650000;">+8 N</tspan></text>
		</g>
		<g>
			<text transform="matrix(1 0 0 1 80.0347 39.1177)"><tspan x="0" y="0" style="font-family:Liberation Sans; font-size:7.650000;">+4 N</tspan></text>
		</g>
		<g>
			<text transform="matrix(1 0 0 1 65.4595 69.8027)"><tspan x="0" y="0" style="font-family:Liberation Sans; font-size:7.650000;">+2 N</tspan></text>
		</g>
		<g>
			<text transform="matrix(1 0 0 1 0 26.6987)"><tspan x="0" y="0" style="font-family:Liberation Sans; font-size:7.650000;">-3 N</tspan></text>
		</g>
	</g>
</svg>
