<?xml version="1.0" encoding="iso-8859-1"?>
<!-- Generator: Adobe Illustrator 11 Build 196, SVG Export Plug-In . SVG Version: 6.0.0 Build 78)  -->
<!DOCTYPE svg PUBLIC "-//W3C//DTD SVG 1.0//EN"    "http://www.w3.org/TR/2001/REC-SVG-20010904/DTD/svg10.dtd" [
	<!ENTITY ns_flows "http://ns.adobe.com/Flows/1.0/">
	<!ENTITY ns_svg "http://www.w3.org/2000/svg">
	<!ENTITY ns_xlink "http://www.w3.org/1999/xlink">
]>
<svg
	 width="112.966" height="86.25" viewBox="0 0 112.966 86.25" style="overflow:visible;enable-background:new 0 0 112.966 86.25"
	 xml:space="preserve">
	<g id="Layer_1">
		<g>
			<path style="fill:none;stroke:#000000;" d="M0,0.5c1.408,0,2.582,9.25,2.66,10C2.738,11.25,4.224,23,4.694,27.25
				C5.163,31.5,7.197,51.75,7.588,55S9.7,73.25,10.717,78.25c1.017,5,1.721,7.5,2.973,7.5s2.503-5,3.207-8.75
				c0.704-3.75,2.112-13,2.738-17c0.626-4,2.66-17.75,3.599-22.5c0.938-4.75,2.269-12.5,5.006-12.5"/>
			<path style="fill:none;stroke:#000000;" d="M28.253,25c1.408,0,2.582,4.625,2.66,5s1.564,6.25,2.034,8.375
				s2.503,12.25,2.895,13.875s2.112,9.125,3.129,11.625s1.721,3.75,2.972,3.75c1.252,0,2.503-2.5,3.208-4.375s2.112-6.5,2.738-8.5
				s2.66-8.875,3.598-11.25c0.939-2.375,2.269-6.25,5.006-6.25"/>
			<path style="fill:none;stroke:#000000;" d="M56.505,37.22c1.408,0,2.582,2.312,2.66,2.5c0.079,0.188,1.565,3.125,2.034,4.188
				s2.503,6.125,2.894,6.938s2.112,4.562,3.129,5.812c1.017,1.25,1.721,1.875,2.973,1.875c1.252,0,2.503-1.25,3.207-2.188
				c0.704-0.938,2.112-3.25,2.738-4.25c0.625-1,2.659-4.438,3.598-5.625c0.938-1.188,2.269-3.125,5.006-3.125"/>
			<path style="fill:none;stroke:#000000;" d="M84.727,43.36c1.408,0,2.582,1.156,2.66,1.25s1.564,1.562,2.034,2.094
				c0.47,0.531,2.503,3.062,2.895,3.469s2.112,2.281,3.129,2.906s1.721,0.938,2.973,0.938c1.251,0,2.503-0.625,3.207-1.094
				s2.112-1.625,2.738-2.125c0.626-0.5,2.66-2.219,3.598-2.812c0.939-0.594,2.269-1.562,5.006-1.562"/>
		</g>
	</g>
</svg>
