<?xml version="1.0" encoding="iso-8859-1"?>
<!-- Generator: Adobe Illustrator 11 Build 196, SVG Export Plug-In . SVG Version: 6.0.0 Build 78)  -->
<!DOCTYPE svg PUBLIC "-//W3C//DTD SVG 1.0//EN"    "http://www.w3.org/TR/2001/REC-SVG-20010904/DTD/svg10.dtd" [
	<!ENTITY ns_flows "http://ns.adobe.com/Flows/1.0/">
	<!ENTITY ns_svg "http://www.w3.org/2000/svg">
	<!ENTITY ns_xlink "http://www.w3.org/1999/xlink">
]>
<svg
	 width="116.373" height="189.249" viewBox="0 0 116.373 189.249"
	 style="overflow:visible;enable-background:new 0 0 116.373 189.249" xml:space="preserve">
	<g id="Layer_1">
		<circle style="fill:none;stroke:#000000;" cx="58.078" cy="58.133" r="55.154"/> 
		<line style="fill:none;stroke:#000000;stroke-width:0.5;" x1="113.203" y1="59.07" x2="113.203" y2="188.07"/>
		<line style="fill:none;stroke:#000000;stroke-width:0.5;" x1="2.953" y1="58.883" x2="2.953" y2="187.883"/>
		<circle cx="113.232" cy="58.186" r="3.14"/> 
		<circle cx="3.141" cy="58.186" r="3.14"/> 
		<circle cx="111.357" cy="43.939" r="3.14"/> 
		<circle cx="105.858" cy="30.664" r="3.141"/> 
		<circle cx="97.111" cy="19.264" r="3.14"/> 
		<circle cx="85.712" cy="10.516" r="3.141"/> 
		<circle cx="72.437" cy="5.017" r="3.14"/> 
		<circle cx="58.191" cy="3.141" r="3.14"/> 
		<circle cx="43.945" cy="5.015" r="3.14"/> 
		<circle cx="30.67" cy="10.512" r="3.141"/> 
		<circle cx="19.269" cy="19.258" r="3.141"/> 
		<circle cx="10.521" cy="30.656" r="3.14"/> 
		<circle cx="5.02" cy="43.931" r="3.141"/> 
		<circle cx="113.232" cy="185.952" r="3.141"/> 
		<circle cx="3.141" cy="185.952" r="3.141"/> 
		<circle cx="111.357" cy="185.952" r="3.141"/> 
		<circle cx="105.858" cy="185.952" r="3.14"/> 
		<circle cx="97.111" cy="185.952" r="3.14"/> 
		<circle cx="85.712" cy="186.109" r="3.141"/> 
		<circle cx="72.437" cy="185.952" r="3.14"/> 
		<circle cx="58.191" cy="185.952" r="3.14"/> 
		<circle cx="43.945" cy="185.952" r="3.14"/> 
		<circle cx="30.67" cy="185.952" r="3.14"/> 
		<circle cx="19.269" cy="185.952" r="3.141"/> 
		<circle cx="10.521" cy="186.109" r="3.141"/> 
		<circle cx="5.02" cy="185.952" r="3.14"/> 
		<line style="fill:none;stroke:#000000;" x1="3.141" y1="185.952" x2="113.232" y2="185.952"/>
		<line style="fill:none;stroke:#000000;stroke-width:0.5;" x1="111.357" y1="43.939" x2="111.357" y2="185.952"/>
		<line style="fill:none;stroke:#000000;stroke-width:0.5;" x1="105.858" y1="30.664" x2="105.858" y2="185.229"/>
		<line style="fill:none;stroke:#000000;stroke-width:0.5;" x1="97.111" y1="19.264" x2="97.111" y2="185.952"/>
		<line style="fill:none;stroke:#000000;stroke-width:0.5;" x1="85.712" y1="10.36" x2="85.712" y2="185.604"/>
		<line style="fill:none;stroke:#000000;stroke-width:0.5;" x1="72.328" y1="4.104" x2="72.328" y2="184.854"/>
		<line style="fill:none;stroke:#000000;stroke-width:0.5;" x1="58.078" y1="2.978" x2="58.078" y2="185.952"/>
		<line style="fill:none;stroke:#000000;stroke-width:0.5;" x1="43.945" y1="5.015" x2="43.945" y2="185.604"/>
		<line style="fill:none;stroke:#000000;stroke-width:0.5;" x1="30.669" y1="10.512" x2="30.669" y2="185.952"/>
		<line style="fill:none;stroke:#000000;stroke-width:0.5;" x1="19.269" y1="19.258" x2="19.269" y2="185.952"/>
		<line style="fill:none;stroke:#000000;stroke-width:0.5;" x1="10.678" y1="30.499" x2="10.678" y2="185.952"/>
		<line style="fill:none;stroke:#000000;stroke-width:0.5;" x1="4.453" y1="43.104" x2="4.453" y2="185.952"/>
	</g>
</svg>
