<?xml version="1.0" encoding="UTF-8" standalone="no"?>
<!-- Generator: Adobe Illustrator 11 Build 196, SVG Export Plug-In . SVG Version: 6.0.0 Build 78)  -->
<svg
   xmlns:dc="http://purl.org/dc/elements/1.1/"
   xmlns:cc="http://web.resource.org/cc/"
   xmlns:rdf="http://www.w3.org/1999/02/22-rdf-syntax-ns#"
   xmlns:svg="http://www.w3.org/2000/svg"
   xmlns="http://www.w3.org/2000/svg"
   xmlns:sodipodi="http://inkscape.sourceforge.net/DTD/sodipodi-0.dtd"
   xmlns:inkscape="http://www.inkscape.org/namespaces/inkscape"
   width="143.249"
   height="250.398"
   viewBox="0 0 143.249 250.398"
   style="overflow:visible;enable-background:new 0 0 143.249 250.398"
   xml:space="preserve"
   id="svg2"
   sodipodi:version="0.32"
   sodipodi:docname="sinusoidal-x-t.svg"
   sodipodi:docbase="/home/bcrowell/Documents/writing/lm/trunk/3vw/ch01/figs"><metadata
   id="metadata206"><rdf:RDF><cc:Work
       rdf:about=""><dc:format>image/svg+xml</dc:format><dc:type
         rdf:resource="http://purl.org/dc/dcmitype/StillImage" /></cc:Work></rdf:RDF></metadata><defs
   id="defs204">
		
		
		
		
		
		
		
		
		
		
		
		
		
		
		
		
		
		
		
		
		
		
		
		
		
		
		
		
		
		
	
			
			
			
			
			
			
			
			
			
		
			
			
			
			
			
		</defs><sodipodi:namedview
   inkscape:cy="102.61768"
   inkscape:cx="86.220013"
   inkscape:zoom="2.4986071"
   inkscape:window-height="996"
   inkscape:window-width="1278"
   inkscape:pageshadow="2"
   inkscape:pageopacity="0.0"
   borderopacity="1.0"
   bordercolor="#666666"
   pagecolor="#ffffff"
   id="base"
   inkscape:window-x="0"
   inkscape:window-y="0"
   inkscape:current-layer="svg2" />
	<style
   type="text/css"
   id="style4">
	
	</style>
	<rect
   style="fill:#dedede;fill-opacity:1.0000000;fill-rule:evenodd;stroke:none;stroke-width:1.0000000pt;stroke-linecap:butt;stroke-linejoin:miter;stroke-opacity:1.0000000"
   id="rect1504"
   width="184.25198"
   height="251.74028"
   x="-9.6053524"
   y="0.25862268" /><path
   id="path7"
   d="M 39.826000,30.656000 C 41.544000,23.989000 42.135000,22.311000 42.670000,20.824000 C 43.205000,19.337000 43.543000,19.002000 43.768000,18.666000 C 43.993000,18.330000 44.528000,17.851000 44.922000,17.898000 C 45.316000,17.946000 45.738000,18.138000 46.048000,18.666000 C 46.358000,19.193000 46.836000,20.009000 47.174000,20.920000 C 47.512000,21.831000 47.821000,22.598000 48.300000,24.325000 C 48.779000,26.052000 48.666000,25.284000 49.989000,30.656000"
   style="fill:none;stroke:#000000" /><path
   id="path9"
   d="M 50.010000,30.653000 C 51.727000,37.320000 52.319000,38.999000 52.853000,40.486000 C 53.388000,41.973000 53.726000,42.308000 53.951000,42.644000 C 54.176000,42.980000 54.711000,43.459000 55.105000,43.411000 C 55.500000,43.363000 55.921000,43.171000 56.231000,42.644000 C 56.541000,42.116000 57.019000,41.301000 57.357000,40.390000 C 57.695000,39.479000 58.004000,38.711000 58.483000,36.985000 C 58.962000,35.258000 58.849000,36.026000 60.172000,30.654000"
   style="fill:none;stroke:#000000" /><path
   id="path11"
   d="M 60.193000,30.656000 C 61.910000,23.989000 62.502000,22.311000 63.037000,20.824000 C 63.572000,19.337000 63.910000,19.002000 64.135000,18.666000 C 64.360000,18.330000 64.895000,17.851000 65.289000,17.898000 C 65.683000,17.946000 66.105000,18.138000 66.415000,18.666000 C 66.725000,19.193000 67.203000,20.009000 67.541000,20.920000 C 67.879000,21.831000 68.188000,22.598000 68.667000,24.325000 C 69.146000,26.052000 69.033000,25.284000 70.356000,30.656000"
   style="fill:none;stroke:#000000" /><path
   id="path13"
   d="M 70.377000,30.653000 C 72.094000,37.320000 72.686000,38.999000 73.221000,40.486000 C 73.756000,41.973000 74.094000,42.308000 74.319000,42.644000 C 74.544000,42.980000 75.079000,43.459000 75.473000,43.411000 C 75.867000,43.363000 76.289000,43.171000 76.599000,42.644000 C 76.909000,42.116000 77.388000,41.301000 77.725000,40.390000 C 78.063000,39.479000 78.372000,38.711000 78.851000,36.985000 C 79.330000,35.259000 79.217000,36.026000 80.540000,30.654000"
   style="fill:none;stroke:#000000" /><path
   id="path15"
   d="M 80.561000,30.656000 C 82.279000,23.989000 82.870000,22.311000 83.405000,20.824000 C 83.940000,19.337000 84.278000,19.002000 84.503000,18.666000 C 84.728000,18.330000 85.263000,17.851000 85.657000,17.898000 C 86.051000,17.946000 86.473000,18.138000 86.783000,18.666000 C 87.093000,19.193000 87.572000,20.009000 87.909000,20.920000 C 88.247000,21.831000 88.556000,22.598000 89.035000,24.325000 C 89.514000,26.052000 89.401000,25.284000 90.724000,30.656000"
   style="fill:none;stroke:#000000" /><path
   id="path17"
   d="M 90.745000,30.653000 C 92.462000,37.320000 93.054000,38.999000 93.588000,40.486000 C 94.123000,41.973000 94.461000,42.308000 94.686000,42.644000 C 94.911000,42.980000 95.446000,43.459000 95.840000,43.411000 C 96.235000,43.363000 96.656000,43.171000 96.966000,42.644000 C 97.276000,42.116000 97.755000,41.301000 98.092000,40.390000 C 98.430000,39.479000 98.739000,38.711000 99.218000,36.985000 C 99.697000,35.258000 99.584000,36.026000 100.90700,30.654000"
   style="fill:none;stroke:#000000" /><path
   id="path19"
   d="M 100.92800,30.656000 C 102.64500,23.989000 103.23700,22.311000 103.77100,20.824000 C 104.30600,19.337000 104.64400,19.002000 104.86900,18.666000 C 105.09500,18.330000 105.62900,17.851000 106.02300,17.898000 C 106.41800,17.946000 106.84000,18.138000 107.14900,18.666000 C 107.45900,19.193000 107.93700,20.009000 108.27500,20.920000 C 108.61300,21.831000 108.92200,22.598000 109.40100,24.325000 C 109.88000,26.052000 109.76700,25.284000 111.09000,30.656000"
   style="fill:none;stroke:#000000" /><path
   id="path21"
   d="M 111.11200,30.653000 C 112.82900,37.320000 113.42100,38.999000 113.95600,40.486000 C 114.49100,41.973000 114.82900,42.308000 115.05400,42.644000 C 115.27900,42.980000 115.81400,43.459000 116.20800,43.411000 C 116.60200,43.363000 117.02400,43.171000 117.33400,42.644000 C 117.64400,42.116000 118.12300,41.301000 118.46000,40.390000 C 118.79800,39.479000 119.10700,38.711000 119.58600,36.985000 C 120.06500,35.259000 119.95200,36.026000 121.27500,30.654000"
   style="fill:none;stroke:#000000" /><path
   id="path23"
   d="M 121.29500,30.656000 C 123.01200,23.989000 123.60400,22.311000 124.13900,20.824000 C 124.67400,19.337000 125.01200,19.002000 125.23700,18.666000 C 125.46200,18.330000 125.99700,17.851000 126.39100,17.898000 C 126.78500,17.946000 127.20700,18.138000 127.51700,18.666000 C 127.82700,19.193000 128.30600,20.009000 128.64300,20.920000 C 128.98100,21.831000 129.29000,22.598000 129.76900,24.325000 C 130.24800,26.052000 130.13500,25.284000 131.45800,30.656000"
   style="fill:none;stroke:#000000" /><path
   id="path25"
   d="M 131.47900,30.653000 C 133.19700,37.320000 133.78800,38.999000 134.32300,40.486000 C 134.85800,41.973000 135.19600,42.308000 135.42100,42.644000 C 135.64600,42.980000 136.18100,43.459000 136.57500,43.411000 C 136.96900,43.363000 137.39100,43.171000 137.70100,42.644000 C 138.01100,42.116000 138.49000,41.301000 138.82700,40.390000 C 139.16500,39.479000 139.47400,38.711000 139.95300,36.985000 C 140.43200,35.258000 140.31900,36.026000 141.64200,30.654000"
   style="fill:none;stroke:#000000" /><polyline
   id="polyline27"
   points="19.218,13.06 19.218,54.37 136.263,54.37 "
   style="fill:none;stroke:#000000"
   transform="translate(12.00000,-7.494005e-16)" /><g
   id="g29"
   transform="translate(12.00000,-7.494005e-16)">
			<text
   id="text31"
   transform="translate(16.92290,10.00000)"><tspan
     id="tspan33"
     style="font-size:8.5000000px;font-family:Liberation Sans"
     y="0"
     x="0">x</tspan></text>

		</g><g
   id="g35"
   transform="translate(12.00000,-7.494005e-16)">
			<text
   id="text37"
   transform="translate(140.4707,57.81200)"><tspan
     id="tspan39"
     style="font-size:8.5000000px;font-family:Liberation Sans"
     y="0"
     x="0">t</tspan></text>

		</g><g
   id="g41"
   transform="translate(2.000000,2.000000)">
			<text
   id="text43"
   transform="translate(0.000000,32.47660)"><tspan
     id="tspan45"
     style="font-size:8.5000000px;font-family:Liberation Sans"
     y="0"
     x="0">1</tspan></text>

		</g><polyline
   style="fill:none;stroke:#000000"
   points="19.218,75.768 19.218,117.077 136.263,117.077 "
   id="polyline49"
   transform="translate(12.00000,-7.494005e-16)" /><g
   id="g51"
   transform="translate(12.00000,-7.494005e-16)">
				<text
   transform="translate(16.92290,72.70750)"
   id="text53"><tspan
     x="0"
     y="0"
     style="font-size:8.5000000px;font-family:Liberation Sans"
     id="tspan55">x</tspan></text>

			</g><g
   id="g57"
   transform="translate(12.00000,-7.494005e-16)">
				<text
   transform="translate(140.4707,120.5200)"
   id="text59"><tspan
     x="0"
     y="0"
     style="font-size:8.5000000px;font-family:Liberation Sans"
     id="tspan61">t</tspan></text>

			</g><polyline
   style="fill:none;stroke:#000000"
   points="27.568,94.14 32.743,81.99 42.868,107.415 53.218,81.99 63.343,107.64      73.468,82.215 83.593,107.415 93.943,81.765 104.068,107.64 114.192,81.765 124.542,107.189 129.717,95.04 "
   id="polyline63"
   transform="translate(12.00000,-7.494005e-16)" /><g
   id="g65"
   transform="translate(2.000000,2.000000)">
				<text
   transform="translate(0.000000,94.77490)"
   id="text67"><tspan
     x="0"
     y="0"
     style="font-size:8.5000000px;font-family:Liberation Sans"
     id="tspan69">2</tspan></text>

			</g><polyline
   style="fill:none;stroke:#000000"
   points="19.078,138.475 19.078,179.785 136.123,179.785 "
   id="polyline73"
   transform="translate(12.00000,-7.494005e-16)" /><g
   id="g75"
   transform="translate(12.00000,-7.494005e-16)">
				<text
   transform="translate(16.78320,135.4150)"
   id="text77"><tspan
     x="0"
     y="0"
     style="font-size:8.5000000px;font-family:Liberation Sans"
     id="tspan79">x</tspan></text>

			</g><g
   id="g81"
   transform="translate(12.00000,-7.494005e-16)">
				<text
   transform="translate(140.3306,183.2275)"
   id="text83"><tspan
     x="0"
     y="0"
     style="font-size:8.5000000px;font-family:Liberation Sans"
     id="tspan85">t</tspan></text>

			</g><path
   style="fill:none;stroke:#000000"
   d="M 39.541000,157.26300 C 41.903000,148.48800 43.479000,147.02600 43.816000,147.92600 C 44.153000,148.82600 45.053000,148.03800 45.616000,147.36400 C 46.179000,146.69000 48.203000,147.47600 48.654000,148.93900 C 49.104000,150.40100 52.535000,198.94500 60.298000,157.20800"
   id="path87" /><path
   style="fill:none;stroke:#000000"
   d="M 60.205000,157.26300 C 62.568000,148.48800 64.143000,147.02600 64.480000,147.92600 C 64.818000,148.82600 65.718000,148.03800 66.280000,147.36400 C 66.842000,146.69000 68.867000,147.47600 69.318000,148.93900 C 69.768000,150.40100 73.199000,198.94500 80.962000,157.20800"
   id="path89" /><path
   style="fill:none;stroke:#000000"
   d="M 80.870000,157.26300 C 83.233000,148.48800 84.808000,147.02600 85.145000,147.92600 C 85.483000,148.82600 86.383000,148.03800 86.945000,147.36400 C 87.507000,146.69000 89.532000,147.47600 89.982000,148.93900 C 90.432000,150.40100 93.863000,198.94500 101.62600,157.20800"
   id="path91" /><path
   style="fill:none;stroke:#000000"
   d="M 101.53400,157.26300 C 103.89600,148.48800 105.47200,147.02600 105.80900,147.92600 C 106.14600,148.82600 107.04600,148.03800 107.60900,147.36400 C 108.17200,146.69000 110.19700,147.47600 110.64700,148.93900 C 111.09700,150.40100 114.52800,198.94500 122.29100,157.20800"
   id="path93" /><path
   style="fill:none;stroke:#000000"
   d="M 122.19900,157.26300 C 124.56100,148.48800 126.13700,147.02600 126.47400,147.92600 C 126.81100,148.82600 127.71100,148.03800 128.27400,147.36400 C 128.83700,146.69000 130.86100,147.47600 131.31200,148.93900 C 131.76200,150.40100 135.19300,198.94500 142.95600,157.20800"
   id="path95" /><g
   id="g97"
   transform="translate(2.000000,2.000000)">
				<text
   transform="translate(0.139600,157.0732)"
   id="text99"><tspan
     x="0"
     y="0"
     style="font-size:8.5000000px;font-family:Liberation Sans"
     id="tspan101">3</tspan></text>

			</g><polyline
   id="polyline103"
   points="19.078,201.183 19.078,242.493 136.123,242.493 "
   style="fill:none;stroke:#000000"
   transform="translate(12.00000,-7.494005e-16)" /><g
   id="g105"
   transform="translate(12.00000,-7.494005e-16)">
			<text
   id="text107"
   transform="translate(16.78320,198.1226)"><tspan
     id="tspan109"
     style="font-size:8.5000000px;font-family:Liberation Sans"
     y="0"
     x="0">x</tspan></text>

		</g><g
   id="g111"
   transform="translate(12.00000,-7.494005e-16)">
			<text
   id="text113"
   transform="translate(140.3306,245.9351)"><tspan
     id="tspan115"
     style="font-size:8.5000000px;font-family:Liberation Sans"
     y="0"
     x="0">t</tspan></text>

		</g><g
   id="g117"
   transform="translate(2.000000,2.000000)">
			<text
   id="text119"
   transform="translate(0.139600,219.7808)"><tspan
     id="tspan121"
     style="font-size:8.5000000px;font-family:Liberation Sans"
     y="0"
     x="0">4</tspan></text>

		</g><g
   id="g123"
   transform="translate(12.00000,-7.494005e-16)">
			<path
   id="path125"
   d="M 27.029000,219.35300 C 28.923000,212.68600 29.574000,211.00800 30.164000,209.52100 C 30.754000,208.03400 31.126000,207.69800 31.374000,207.36200 C 31.623000,207.02700 32.212000,206.54700 32.647000,206.59500 C 33.082000,206.64300 33.547000,206.83500 33.888000,207.36200 C 34.230000,207.89000 34.758000,208.70500 35.130000,209.61600 C 35.503000,210.52700 35.844000,211.29500 36.372000,213.02100 C 36.900000,214.74800 36.776000,213.98000 38.235000,219.35200"
   style="fill:none;stroke:#000000" />
			<path
   id="path127"
   d="M 38.256000,219.35000 C 40.150000,226.01700 40.801000,227.69500 41.391000,229.18200 C 41.981000,230.66900 42.353000,231.00500 42.601000,231.34000 C 42.850000,231.67600 43.439000,232.15500 43.874000,232.10800 C 44.309000,232.06100 44.774000,231.86800 45.116000,231.34000 C 45.457000,230.81300 45.985000,229.99700 46.358000,229.08600 C 46.731000,228.17500 47.072000,227.40700 47.599000,225.68100 C 48.127000,223.95400 48.003000,224.72200 49.462000,219.35000"
   style="fill:none;stroke:#000000" />
		</g><g
   id="g129"
   transform="translate(12.00000,-7.494005e-16)">
			<path
   id="path131"
   d="M 27.029000,219.32600 C 28.923000,205.99300 29.574000,202.63600 30.164000,199.66100 C 30.754000,196.68800 31.126000,196.01600 31.374000,195.34500 C 31.623000,194.67400 32.212000,193.71400 32.647000,193.81000 C 33.082000,193.90600 33.547000,194.28900 33.888000,195.34500 C 34.230000,196.40000 34.758000,198.03100 35.130000,199.85400 C 35.503000,201.67600 35.844000,203.21100 36.372000,206.66400 C 36.900000,210.11800 36.776000,208.58300 38.235000,219.32600"
   style="fill:none;stroke:#000000" />
			<path
   id="path133"
   d="M 38.256000,219.32000 C 39.588000,228.69500 40.305000,233.13700 40.818000,235.98300"
   style="fill:none;stroke:#000000" />
			<path
   id="path135"
   d="M 46.921000,235.99800 C 47.119000,234.95500 47.336000,233.70800 47.600000,231.98200 C 48.128000,228.52900 48.004000,230.06400 49.463000,219.32000"
   style="fill:none;stroke:#000000" />
			<line
   id="line137"
   y2="235.72701"
   x2="46.790001"
   y1="235.72701"
   x1="40.726002"
   style="fill:none;stroke:#000000" />
		</g><g
   id="g139"
   transform="translate(12.00000,-7.494005e-16)">
			<path
   id="path141"
   d="M 49.422000,219.35300 C 51.316000,212.68600 51.967000,211.00800 52.557000,209.52100 C 53.147000,208.03400 53.519000,207.69800 53.767000,207.36200 C 54.016000,207.02700 54.605000,206.54700 55.040000,206.59500 C 55.475000,206.64300 55.940000,206.83500 56.282000,207.36200 C 56.623000,207.89000 57.151000,208.70500 57.524000,209.61600 C 57.897000,210.52700 58.238000,211.29500 58.766000,213.02100 C 59.293000,214.74800 59.169000,213.98000 60.628000,219.35200"
   style="fill:none;stroke:#000000" />
			<path
   id="path143"
   d="M 60.650000,219.35000 C 62.543000,226.01700 63.195000,227.69500 63.785000,229.18200 C 64.375000,230.66900 64.747000,231.00500 64.996000,231.34000 C 65.244000,231.67600 65.834000,232.15500 66.268000,232.10800 C 66.702000,232.06100 67.168000,231.86800 67.510000,231.34000 C 67.851000,230.81300 68.379000,229.99700 68.752000,229.08600 C 69.125000,228.17500 69.466000,227.40700 69.994000,225.68100 C 70.521000,223.95400 70.397000,224.72200 71.856000,219.35000"
   style="fill:none;stroke:#000000" />
		</g><g
   id="g145"
   transform="translate(12.00000,-7.494005e-16)">
			<path
   id="path147"
   d="M 49.422000,219.32600 C 51.316000,205.99300 51.967000,202.63600 52.557000,199.66100 C 53.147000,196.68800 53.519000,196.01600 53.767000,195.34500 C 54.016000,194.67400 54.605000,193.71400 55.040000,193.81000 C 55.475000,193.90600 55.940000,194.28900 56.282000,195.34500 C 56.624000,196.40100 57.151000,198.03100 57.524000,199.85400 C 57.897000,201.67600 58.238000,203.21100 58.766000,206.66400 C 59.293000,210.11800 59.169000,208.58300 60.628000,219.32600"
   style="fill:none;stroke:#000000" />
			<path
   id="path149"
   d="M 60.650000,219.32000 C 61.981000,228.69500 62.699000,233.13700 63.212000,235.98300"
   style="fill:none;stroke:#000000" />
			<path
   id="path151"
   d="M 69.315000,235.99800 C 69.513000,234.95500 69.730000,233.70800 69.994000,231.98200 C 70.521000,228.52900 70.397000,230.06400 71.856000,219.32000"
   style="fill:none;stroke:#000000" />
			<line
   id="line153"
   y2="235.72701"
   x2="69.183998"
   y1="235.72701"
   x1="63.119999"
   style="fill:none;stroke:#000000" />
		</g><g
   id="g155"
   transform="translate(12.00000,-7.494005e-16)">
			<path
   id="path157"
   d="M 71.816000,219.35300 C 73.710000,212.68600 74.361000,211.00800 74.951000,209.52100 C 75.541000,208.03400 75.913000,207.69800 76.162000,207.36200 C 76.411000,207.02700 77.000000,206.54700 77.434000,206.59500 C 77.868000,206.64300 78.334000,206.83500 78.676000,207.36200 C 79.017000,207.89000 79.545000,208.70500 79.918000,209.61600 C 80.291000,210.52700 80.632000,211.29500 81.160000,213.02100 C 81.688000,214.74700 81.563000,213.98000 83.022000,219.35200"
   style="fill:none;stroke:#000000" />
			<path
   id="path159"
   d="M 83.044000,219.35000 C 84.938000,226.01700 85.589000,227.69500 86.179000,229.18200 C 86.769000,230.66900 87.141000,231.00500 87.389000,231.34000 C 87.637000,231.67600 88.227000,232.15500 88.661000,232.10800 C 89.095000,232.06100 89.561000,231.86800 89.903000,231.34000 C 90.245000,230.81300 90.772000,229.99700 91.145000,229.08600 C 91.518000,228.17500 91.859000,227.40700 92.387000,225.68100 C 92.915000,223.95500 92.790000,224.72200 94.249000,219.35000"
   style="fill:none;stroke:#000000" />
		</g><g
   id="g161"
   transform="translate(12.00000,-7.494005e-16)">
			<path
   id="path163"
   d="M 71.816000,219.32600 C 73.710000,205.99300 74.361000,202.63600 74.951000,199.66100 C 75.541000,196.68800 75.913000,196.01600 76.162000,195.34500 C 76.411000,194.67400 77.000000,193.71400 77.434000,193.81000 C 77.869000,193.90600 78.334000,194.28900 78.676000,195.34500 C 79.018000,196.40100 79.545000,198.03100 79.918000,199.85400 C 80.291000,201.67600 80.632000,203.21100 81.160000,206.66400 C 81.688000,210.11800 81.563000,208.58300 83.022000,219.32600"
   style="fill:none;stroke:#000000" />
			<path
   id="path165"
   d="M 83.044000,219.32000 C 84.375000,228.69500 85.093000,233.13700 85.606000,235.98300"
   style="fill:none;stroke:#000000" />
			<path
   id="path167"
   d="M 91.708000,235.99800 C 91.906000,234.95500 92.123000,233.70800 92.387000,231.98200 C 92.915000,228.52900 92.790000,230.06400 94.249000,219.32000"
   style="fill:none;stroke:#000000" />
			<line
   id="line169"
   y2="235.72701"
   x2="91.578003"
   y1="235.72701"
   x1="85.514000"
   style="fill:none;stroke:#000000" />
		</g><g
   id="g171"
   transform="translate(12.00000,-7.494005e-16)">
			<path
   id="path173"
   d="M 94.210000,219.35300 C 96.104000,212.68600 96.755000,211.00800 97.345000,209.52100 C 97.935000,208.03400 98.307000,207.69800 98.555000,207.36200 C 98.804000,207.02700 99.393000,206.54700 99.828000,206.59500 C 100.26300,206.64300 100.72800,206.83500 101.06900,207.36200 C 101.41100,207.89000 101.93800,208.70500 102.31100,209.61600 C 102.68400,210.52700 103.02500,211.29500 103.55300,213.02100 C 104.08100,214.74800 103.95600,213.98000 105.41500,219.35200"
   style="fill:none;stroke:#000000" />
			<path
   id="path175"
   d="M 105.43800,219.35000 C 107.33200,226.01700 107.98300,227.69500 108.57300,229.18200 C 109.16300,230.66900 109.53500,231.00500 109.78300,231.34000 C 110.03200,231.67600 110.62100,232.15500 111.05600,232.10800 C 111.49100,232.06100 111.95600,231.86800 112.29700,231.34000 C 112.63900,230.81300 113.16700,229.99700 113.53900,229.08600 C 113.91100,228.17500 114.25300,227.40700 114.78000,225.68100 C 115.30800,223.95400 115.18400,224.72200 116.64200,219.35000"
   style="fill:none;stroke:#000000" />
		</g><g
   id="g177"
   transform="translate(12.00000,-7.494005e-16)">
			<path
   id="path179"
   d="M 94.210000,219.32600 C 96.104000,205.99300 96.755000,202.63600 97.345000,199.66100 C 97.935000,196.68800 98.307000,196.01600 98.555000,195.34500 C 98.804000,194.67400 99.393000,193.71400 99.828000,193.81000 C 100.26300,193.90600 100.72800,194.28900 101.06900,195.34500 C 101.41100,196.40000 101.93800,198.03100 102.31100,199.85400 C 102.68400,201.67600 103.02500,203.21100 103.55300,206.66400 C 104.08100,210.11800 103.95600,208.58300 105.41500,219.32600"
   style="fill:none;stroke:#000000" />
			<path
   id="path181"
   d="M 105.43800,219.32000 C 106.77000,228.69500 107.48700,233.13700 108.00000,235.98300"
   style="fill:none;stroke:#000000" />
			<path
   id="path183"
   d="M 114.10200,235.99800 C 114.30000,234.95500 114.51700,233.70800 114.78100,231.98200 C 115.30900,228.52900 115.18500,230.06400 116.64300,219.32000"
   style="fill:none;stroke:#000000" />
			<line
   id="line185"
   y2="235.72701"
   x2="113.97100"
   y1="235.72701"
   x1="107.90700"
   style="fill:none;stroke:#000000" />
		</g><g
   id="g187"
   transform="translate(12.00000,-7.494005e-16)">
			<path
   id="path189"
   d="M 116.60400,219.35300 C 118.49800,212.68600 119.14900,211.00800 119.73900,209.52100 C 120.32900,208.03400 120.70100,207.69800 120.94900,207.36200 C 121.19800,207.02700 121.78700,206.54700 122.22200,206.59500 C 122.65700,206.64300 123.12200,206.83500 123.46400,207.36200 C 123.80500,207.89000 124.33300,208.70500 124.70600,209.61600 C 125.07900,210.52700 125.42000,211.29500 125.94700,213.02100 C 126.47500,214.74800 126.35100,213.98000 127.81000,219.35200"
   style="fill:none;stroke:#000000" />
			<path
   id="path191"
   d="M 127.83200,219.35000 C 129.72500,226.01700 130.37700,227.69500 130.96700,229.18200 C 131.55700,230.66900 131.92900,231.00500 132.17800,231.34000 C 132.42600,231.67600 133.01600,232.15500 133.45000,232.10800 C 133.88400,232.06100 134.35000,231.86800 134.69200,231.34000 C 135.03300,230.81300 135.56100,229.99700 135.93400,229.08600 C 136.30700,228.17500 136.64800,227.40700 137.17600,225.68100 C 137.70300,223.95400 137.57900,224.72200 139.03800,219.35000"
   style="fill:none;stroke:#000000" />
		</g><g
   id="g193"
   transform="translate(12.00000,-7.494005e-16)">
			<path
   id="path195"
   d="M 116.60400,219.32600 C 118.49800,205.99300 119.14900,202.63600 119.73900,199.66100 C 120.32900,196.68800 120.70100,196.01600 120.94900,195.34500 C 121.19800,194.67400 121.78700,193.71400 122.22200,193.81000 C 122.65700,193.90600 123.12200,194.28900 123.46400,195.34500 C 123.80500,196.40000 124.33300,198.03100 124.70600,199.85400 C 125.07900,201.67600 125.42000,203.21100 125.94700,206.66400 C 126.47500,210.11800 126.35100,208.58300 127.81000,219.32600"
   style="fill:none;stroke:#000000" />
			<path
   id="path197"
   d="M 127.83200,219.32000 C 129.16300,228.69500 129.88000,233.13700 130.39400,235.98300"
   style="fill:none;stroke:#000000" />
			<path
   id="path199"
   d="M 136.49600,235.99800 C 136.69400,234.95500 136.91100,233.70800 137.17500,231.98200 C 137.70200,228.52900 137.57800,230.06400 139.03700,219.32000"
   style="fill:none;stroke:#000000" />
			<line
   id="line201"
   y2="235.72701"
   x2="136.36501"
   y1="235.72701"
   x1="130.30099"
   style="fill:none;stroke:#000000" />
		</g>
</svg>