<?xml version="1.0" encoding="iso-8859-1"?>
<!-- Generator: Adobe Illustrator 11 Build 196, SVG Export Plug-In . SVG Version: 6.0.0 Build 78)  -->
<!DOCTYPE svg PUBLIC "-//W3C//DTD SVG 1.0//EN"    "http://www.w3.org/TR/2001/REC-SVG-20010904/DTD/svg10.dtd" [
	<!ENTITY ns_flows "http://ns.adobe.com/Flows/1.0/">
	<!ENTITY ns_svg "http://www.w3.org/2000/svg">
	<!ENTITY ns_xlink "http://www.w3.org/1999/xlink">
]>
<svg  
	 width="147.401" height="123.805" viewBox="0 0 147.401 123.805"
	 style="overflow:visible;enable-background:new 0 0 147.401 123.805" xml:space="preserve">
	<g id="Layer_1">
		<g>
			<path style="fill:none;stroke:#000000;stroke-width:0.5;" d="M111.248,64.276l1.312,12.068l1.686,7.488l1.312,4.932l2.498,3.107
				l2.998,1.332l5.746,3.424l4.497,2.636l4.997,3.919l0.999,1.804l0.328,0.396l2.951-0.373l1.616-0.232l-0.648-1.494
				c0,0-2.748-7.19-6.245-10.826c-3.497-3.636-7.744-4.228-7.744-4.228l-1.749-1.563l-0.25-4.338l-0.5-5.617l-0.25-4.338
				l-0.53-8.899l1.249-1.983l0.781-2.056l-0.25-2.84l-1.25-4.102l-1.749-3.348l-2.248-2.847l-1-2.823l-1.249-3.847l-0.999-3.842
				v-3.823l-0.75-3.328l-1.249-3.337l-2.248-3.102l-3.498-1.597"/>
			<path style="fill:none;stroke:#000000;stroke-width:0.5;" d="M110.81,75.164l-2.748,3.515l-2.748,2.496l-0.999,1.51l1.998,5.136
				l2.249,3.866l0.75,3.328v3.059l0.25,3.318l0.937,2.344l-2.436,0.431l-2.811,0.232c0,0-5.184-14.15-7.182-16.737
				c-1.998-2.587-2.998-4.646-3.248-5.925c-0.25-1.279,0-3.823,0-3.823l2.249-4.034l2.748-5.045l2.248-3.015l1.999-2.51l0.999-2.02
				l1.499-1.5l1-0.745"/>
			<polyline style="fill:none;stroke:#000000;stroke-width:0.5;" points="116.056,46.718 112.06,47.916 110.81,50.695 
				110.311,54.509 "/>
			<polyline style="fill:none;stroke:#000000;stroke-width:0.5;" points="108.312,58.038 109.561,56.533 109.811,55.519 
				108.562,52.691 107.563,50.123 106.563,47.045 105.064,43.193 103.815,40.875 102.816,38.562 "/>
			<polyline style="fill:none;stroke:#000000;stroke-width:0.5;" points="107.563,31.007 103.815,35.522 100.318,38.513 
				97.57,41.519 92.824,44.996 88.078,46.943 84.83,47.645 80.583,48.837 77.585,49.799 76.822,49.724 "/>
			<line style="fill:none;stroke:#000000;stroke-width:0.5;" x1="88.078" y1="45.159" x2="90.576" y2="44.697"/>
			<polyline style="fill:none;stroke:#000000;stroke-width:0.5;" points="71.09,49.673 69.935,50.049 69.373,51.186 71.2,51.46 
				72.839,51.491 74.588,50.761 76.087,50.535 "/>
			<line style="fill:none;stroke:#000000;stroke-width:0.5;" x1="108.141" y1="16.727" x2="108.576" y2="18.741"/>
			<polyline style="fill:none;stroke:#000000;stroke-width:0.5;" points="91.849,7.055 90.211,8.105 90.812,10.442 92.811,11.648 
				"/>
			<polyline style="fill:none;stroke:#000000;stroke-width:0.5;" points="92.507,8.344 92.137,9.553 93.017,10.116 "/>
			<polyline style="fill:none;stroke:#000000;stroke-width:0.5;" points="92.845,5.521 94.762,2.696 97.115,1.886 101.032,0.267 
				103.895,1.229 106.938,3.32 108.032,6.623 109.734,8.797 109.232,11.297 109.445,14.037 108.211,15.491 "/>
			<polyline style="fill:none;stroke:#000000;stroke-width:0.5;" points="93.832,7.455 95.592,8.58 97.517,10.028 99.59,10.991 "/>
			<polyline style="fill:none;stroke:#000000;stroke-width:0.5;" points="95.765,5.436 97.213,6.723 98.735,7.768 100.167,8.25 "/>
			<path style="fill:none;stroke:#000000;stroke-width:0.5;" d="M97.164,4.305l3.192,1.606l1.596,0.803l1.687,1.368l3.027,1.285
				c0,0-0.535,0.888-0.757,1.613c-0.222,0.726-0.519,1.694-0.519,1.694l0.436,2.015"/>
			<path style="fill:none;stroke:#000000;stroke-width:0.5;" d="M103.777,11.064c0,0-1.176,0.405-0.428,2.258
				c0.749,1.853,1.464,2.093,1.464,2.093"/>
			<polyline style="fill:none;stroke:#000000;stroke-width:0.5;" points="100.052,2.606 102.438,3.408 103.976,5.26 105.975,6.465 
				106.542,7.19 "/>
			<line style="fill:none;stroke:#000000;stroke-width:0.5;" x1="107.949" y1="10.332" x2="107.594" y2="12.348"/>
			<polyline style="fill:none;stroke:#000000;stroke-width:0.5;" points="98.95,2.77 99.846,4.139 101.919,5.102 103.515,5.906 "/>
			<polyline style="fill:none;stroke:#000000;stroke-width:0.5;" points="82.332,49.126 85.83,48.938 88.577,48.227 91.575,47.265 
				93.823,46.544 96.571,44.813 99.319,43.337 100.818,41.327 102.067,39.821 "/>
			<polyline style="fill:none;stroke:#000000;stroke-width:0.5;" points="114.308,27.314 112.06,30.839 110.561,32.594 "/>
			<polyline style="fill:none;stroke:#000000;stroke-width:0.5;" points="115.057,30.642 111.31,34.647 107.812,35.345 "/>
			<polyline style="fill:none;stroke:#000000;stroke-width:0.5;" points="93.427,10.171 93.814,11.001 94.206,11.333 94.032,12.226 
				93.788,13.345 93.472,14.539 93.363,15.053 93.373,15.507 94.298,15.868 94.784,15.731 95.312,15.458 "/>
			<polyline style="fill:none;stroke:#000000;stroke-width:0.5;" points="95.327,13.312 95.105,14.038 95.293,14.551 96.174,14.897 
				96.762,15.395 97.789,16.391 "/>
			<polyline style="fill:none;stroke:#000000;stroke-width:0.5;" points="95.438,15.851 96.012,16.394 96.018,16.696 96.375,16.816 
				96.278,17.134 96.773,17.451 97.241,17.858 97.262,18.916 97.52,19.203 98.135,19.61 99.183,19.412 99.864,19.44 100.829,19.514 
				102.39,20.54 103.66,21.867 "/>
			<polyline style="fill:none;stroke:#000000;stroke-width:0.5;" points="101.579,10.459 102.254,10.186 102.451,11.152 
				102.044,12.967 "/>
			<line style="fill:none;stroke:#000000;stroke-width:0.5;" x1="101.203" y1="11.684" x2="101.451" y2="12.968"/>
			<polyline style="fill:none;stroke:#000000;stroke-width:0.5;" points="101.939,9.279 102.965,9.474 103.701,9.971 "/>
			<polyline style="fill:none;stroke:#000000;stroke-width:0.5;" points="94.8,12.133 95.459,11.754 94.754,11.317 "/>
			<line style="fill:none;stroke:#000000;stroke-width:0.5;" x1="96.873" y1="16.483" x2="96.741" y2="16.589"/>
			<polyline style="fill:none;stroke:#000000;stroke-width:0.5;" points="104.315,105.528 101.599,107.96 99.069,109.441 
				96.259,109.865 95.229,112.043 95.229,113.381 95.509,114.247 97.102,114.278 99.725,114.328 101.973,114.372 111.06,114.165 
				112.653,112.953 113.402,110.769 112.934,106.841 112.465,105.208 111.248,103.75 104.409,104.669 "/>
			<polyline style="fill:none;stroke:#000000;stroke-width:0.5;" points="103.753,104.657 103.004,103.591 101.317,103.367 
				101.599,104.615 103.004,105.025 "/>
			<polyline style="fill:none;stroke:#000000;stroke-width:0.5;" points="102.348,105.585 101.692,105.668 101.973,106.438 "/>
			<path style="fill:none;stroke:#000000;stroke-width:0.5;" d="M95.697,114.537c0,0-3.373,2.038-0.562,2.666
				c2.81,0.627,15.738,0.304,15.738,0.304l3.747-0.119"/>
			<path style="fill:none;stroke:#000000;stroke-width:0.5;" d="M105.533,115.014c0,0-0.375,0.662,0.094,1.053
				c0.468,0.392-4.216,0.11-4.216,0.11l-0.562-1.062L105.533,115.014z"/>
			<path style="fill:none;stroke:#000000;stroke-width:0.5;" d="M111.903,114.754c0,0-0.469,1.138,0.187,1.438"/>
			<polyline style="fill:none;stroke:#000000;stroke-width:0.5;" points="136.213,106.431 133.496,108.863 130.967,110.344 
				128.156,110.767 127.126,112.946 127.126,114.284 127.407,115.149 129,115.18 131.623,115.23 133.871,115.274 142.958,115.067 
				144.55,113.855 145.299,111.671 144.831,107.744 144.363,106.11 143.145,104.653 136.307,105.572 "/>
			<path style="fill:none;stroke:#000000;stroke-width:0.5;" d="M127.594,115.439c0,0-3.373,2.038-0.562,2.666
				c2.811,0.628,15.738,0.304,15.738,0.304l3.748-0.119"/>
			<path style="fill:none;stroke:#000000;stroke-width:0.5;" d="M137.431,115.917c0,0-0.375,0.662,0.094,1.053
				c0.468,0.391-4.216,0.109-4.216,0.109l-0.562-1.062L137.431,115.917z"/>
			<path style="fill:none;stroke:#000000;stroke-width:0.5;" d="M143.801,115.657c0,0-0.468,1.138,0.188,1.437"/>
			<path style="fill:none;stroke:#000000;stroke-width:0.5;" d="M135.76,107.537c0.375,0.74,1.343,1.3,1.343,1.3
				s0.593,0.999-0.75,0.91c-1.342-0.09-1.436-0.505-1.436-0.505l0.062-1.05l-0.125-0.863c0,0-0.156-0.799-0.156-0.895
				s0.687,0.109,0.687,0.109"/>
			<polyline style="fill:none;stroke:#000000;stroke-width:0.5;" points="30.247,32.19 31.996,37.067 34.743,41.198 38.491,39.231 
				42.487,38.544 45.735,37.077 43.237,32.187 39.74,26.511 37.242,24.169 35.992,21.852 34.244,19.778 28.498,22.216 26,24.717 
				23.002,33.58 21.503,37.119 18.506,46.492 16.257,52.056 14.759,58.144 15.008,61.717 19.005,61.539 24.751,60.376 
				28.998,62.497 30.747,63.295 32.745,63.079 33.744,60.294 36.492,55.76 38.241,50.951 39.989,43.338 39.989,41.299 "/>
			<path style="fill:none;stroke:#000000;stroke-width:0.5;" d="M45.735,38.097l1.999,3.607l1.249,3.083l1.999,0.548l4.497,0.597
				l4.247,0.847l4.747-0.164l1.717-0.46l0.89-2.277l0.656-2.568l0.843,0.16l-0.609,2.155l0.796-1.673l0.656,0.204l-1.202,4.278
				l1.015-2.8l0.187,2.584l-1.952,3.26c0,0,1.905,0.372,1.952,1.089c0.051,0.788-1.483,0.083-3.451,0.157
				c-4.496,0.168-5.995,0.139-5.995,0.139l-7.744,0.105l-3.248-0.063l-2.998-1.077l-1.499-2.323l-2.498-4.126l-1.249-3.083"/>
			<path style="fill:none;stroke:#000000;stroke-width:0.5;" d="M50.481,14.484c0-3.058-0.5-5.107-2.249-6.415
				s-5.746-2.405-5.746-2.405l-3.997,1.197l-2.499,2.246l-1.749,4.299l0.25,4.083l1.749,0.798l1.249,0.024"/>
			<path style="fill:none;stroke:#000000;stroke-width:0.5;" d="M35.836,9.009c-0.094-0.575,0.14-1.574-1.358-1.221
				c-1.499,0.354-2.623,0.667-3.091,1.756c-0.469,1.09-1.218,3.609-0.937,4.14c0.281,0.531,1.171,1.074,1.92,1.136
				c0.75,0.062,1.827-0.442,1.874-0.776"/>
			<line style="fill:none;stroke:#000000;stroke-width:0.5;" x1="34.743" y1="9.848" x2="32.495" y2="9.55"/>
			<path style="fill:none;stroke:#000000;stroke-width:0.5;" d="M31.746,11.829c0,0,0.25,1.024,1.499,0.539"/>
			<path style="fill:none;stroke:#000000;stroke-width:0.5;" d="M48.982,12.927c-0.999-2.313-2.998-2.862-5.246-3.67
				c-2.248-0.808-4.497-0.852-4.497-0.852"/>
			<path style="fill:none;stroke:#000000;stroke-width:0.5;" d="M47.234,13.402c-3.498-2.106-6.495-3.184-7.994-3.213"/>
			<path style="fill:none;stroke:#000000;stroke-width:0.5;" d="M44.486,14.878c-0.999-1.293-2.998-2.352-4.746-2.895
				c-1.749-0.543-2.998-0.568-2.998-0.568l-1.749-0.034"/>
			<line style="fill:none;stroke:#000000;stroke-width:0.5;" x1="38.99" y1="13.243" x2="36.242" y2="12.681"/>
			<path style="fill:none;stroke:#000000;stroke-width:0.5;" d="M37.991,15.263c-0.749-0.27-2.248-1.573-2.248-1.573"/>
			<polyline style="fill:none;stroke:#000000;stroke-width:0.5;" points="49.865,16.305 49.583,17.494 48.694,18.767 48.506,19.958 
				48.319,20.958 48.085,21.599 47.968,22.027 47.78,22.381 47.359,22.421 46.68,22.074 46.445,21.687 46.165,21.49 "/>
			<path style="fill:none;stroke:#000000;stroke-width:0.5;" d="M38.6,24.498l0.562-0.467l0.609-0.514l0.593,0.107l1.218,0.406
				c0,0,0.609,0.426,0.749,0.428c0.141,0.003,0.687,0.491,0.687,0.491l0.812-0.175l0.219-0.314l0.156-0.507l-0.078-0.352l0.117-0.38
				c0,0,0.07-0.333,0.211-0.378c0.141-0.045,0.703,0.062,0.703,0.062v-0.239l-0.188-0.386l0.609-0.083l-0.093-0.336L46,21.63"/>
			<path style="fill:none;stroke:#000000;stroke-width:0.5;" d="M48.108,18.135l-0.703-0.396c0,0-0.516-0.01-0.656-0.013
				c-0.141-0.003-0.609-0.06-0.609-0.06"/>
			<line style="fill:none;stroke:#000000;stroke-width:0.5;" x1="46.796" y1="18.062" x2="47.546" y2="18.649"/>
			<polyline style="fill:none;stroke:#000000;stroke-width:0.5;" points="45.766,18.902 46.469,19.584 46.469,20.11 "/>
			<polyline style="fill:none;stroke:#000000;stroke-width:0.5;" points="41.504,15.904 40.989,15.369 40.473,16.362 "/>
			<path style="fill:none;stroke:#000000;stroke-width:0.5;" d="M15.133,62.739l0.375,2.428l0.625,1.796c0,0,0.375,2.683,0.5,3.96
				s0.625,4.6,0.625,4.6l0.25,2.936l1,3.842l0.375,2.556l0.625,1.541l-0.25,0.378c0,0-2.249,1.231-2.873,1.474
				s-2.873,1.601-2.873,1.601l-2.499,2.118l-1.374,2.013L6.64,97.621l-2.248,4.035l-0.25,1.143l1.749,1.053l2.374,0.045l1.874,0.036
				l1.374-0.993l3.747-2.604l5.996-4.982l2.998-1.854L26,92.897l2.748-2.623l1.874-4.424l0.875-4.698l0.5-4.706l-0.25-3.063
				l-0.25-5.357l-1-3.078l-0.5-1.539"/>
			<path style="fill:none;stroke:#000000;stroke-width:0.5;" d="M32.37,78.492l1.374,1.429l1.499,0.793l0.125,1.404l-1.499,3.539
				l-1.374,1.375l-1.374,3.16l-0.875,4.698c0,0,0,3.696,0,4.206s-0.125,2.164-0.125,2.164"/>
			<polyline style="fill:none;stroke:#000000;stroke-width:0.5;" points="35.618,102.131 39.49,92.52 42.238,86.329 44.236,83.309 
				45.36,79.38 44.86,75.802 42.737,72.065 39.115,65.75 35.868,62.375 34.494,61.456 "/>
			<polyline style="fill:none;stroke:#000000;stroke-width:0.5;" points="36.448,103.428 39.029,105.839 41.432,107.338 
				44.102,107.844 45.081,109.951 45.081,111.222 44.813,112.034 43.301,112.005 40.809,111.957 38.673,111.916 30.041,111.386 
				28.528,110.176 27.816,108.074 28.261,104.36 28.706,102.825 29.863,101.485 36.359,102.609 "/>
			<polyline style="fill:none;stroke:#000000;stroke-width:0.5;" points="42.345,105.353 42.968,105.456 42.701,106.177 "/>
			<path style="fill:none;stroke:#000000;stroke-width:0.5;" d="M44.636,112.303c0,0,3.204,2.059,0.534,2.552
				c-2.669,0.494-14.951-0.289-14.951-0.289l-3.56-0.25"/>
			<path style="fill:none;stroke:#000000;stroke-width:0.5;" d="M35.292,112.395c0,0,0.356,0.643-0.089,0.997
				c-0.445,0.354,4.005,0.259,4.005,0.259l0.534-0.988L35.292,112.395z"/>
			<path style="fill:none;stroke:#000000;stroke-width:0.5;" d="M29.24,111.915c0,0,0.445,1.098-0.178,1.358"/>
			<polyline style="fill:none;stroke:#000000;stroke-width:0.5;" points="10.174,104.914 12.755,107.324 15.158,108.824 
				17.827,109.329 18.806,111.437 18.806,112.708 18.539,113.52 17.026,113.49 14.535,113.442 12.398,113.401 3.766,112.871 
				2.253,111.662 1.542,109.56 1.986,105.845 2.431,104.31 3.588,102.971 10.085,104.095 "/>
			<path style="fill:none;stroke:#000000;stroke-width:0.5;" d="M18.361,113.789c0,0,3.204,2.06,0.534,2.553
				c-2.67,0.493-14.951-0.289-14.951-0.289l-3.56-0.25"/>
			<path style="fill:none;stroke:#000000;stroke-width:0.5;" d="M9.017,113.881c0,0,0.356,0.642-0.089,0.997
				c-0.445,0.354,4.005,0.259,4.005,0.259l0.534-0.989L9.017,113.881z"/>
			<path style="fill:none;stroke:#000000;stroke-width:0.5;" d="M2.965,113.4c0,0,0.445,1.098-0.178,1.359"/>
			<path style="fill:none;stroke:#000000;stroke-width:0.5;" d="M10.604,105.981c-0.356,0.689-1.275,1.186-1.275,1.186
				s-0.564,0.927,0.712,0.892c1.275-0.036,1.364-0.428,1.364-0.428l-0.059-1l0.119-0.815c0,0,0.148-0.754,0.148-0.845
				s-0.653,0.078-0.653,0.078"/>
			<polyline style="fill:none;stroke:#000000;stroke-width:0.5;" points="108.062,20.821 106.938,21.946 104.065,23.038 
				101.317,25.024 99.569,27.539 97.57,29.794 96.321,32.064 93.823,35.075 92.075,37.589 89.327,39.321 86.329,40.537 
				83.581,42.778 77.086,45.711 74.588,46.428 73.089,45.124 71.84,43.571 71.09,42.027 70.841,39.219 70.091,39.459 71.09,44.066 
				70.341,42.522 70.091,40.733 69.092,40.714 69.342,42.248 70.091,44.812 69.092,43.772 68.343,44.268 70.091,46.851 
				71.34,48.659 72.839,49.197 "/>
		</g>
		<rect y="120.971" style="fill:none;" width="147.401" height="2.834"/> 
	</g>
</svg>
