<?xml version="1.0" encoding="UTF-8" standalone="no"?>
<!-- Generator: Adobe Illustrator 11 Build 196, SVG Export Plug-In . SVG Version: 6.0.0 Build 78)  -->

<svg
   xmlns:dc="http://purl.org/dc/elements/1.1/"
   xmlns:cc="http://creativecommons.org/ns#"
   xmlns:rdf="http://www.w3.org/1999/02/22-rdf-syntax-ns#"
   xmlns:svg="http://www.w3.org/2000/svg"
   xmlns="http://www.w3.org/2000/svg"
   xmlns:sodipodi="http://sodipodi.sourceforge.net/DTD/sodipodi-0.dtd"
   xmlns:inkscape="http://www.inkscape.org/namespaces/inkscape"
   width="147.401"
   height="249.608"
   viewBox="0 0 147.401 249.608"
   style="overflow:visible;enable-background:new 0 0 147.401 249.608"
   xml:space="preserve"
   id="svg2"
   version="1.1"
   sodipodi:docname="skid.svg"><metadata
   id="metadata137"><rdf:RDF><cc:Work
       rdf:about=""><dc:format>image/svg+xml</dc:format><dc:type
         rdf:resource="http://purl.org/dc/dcmitype/StillImage" /></cc:Work></rdf:RDF></metadata><defs
   id="defs135">
		
		
		
		
		
		
		
		
		
		
		
		
		
		
		
		
		
		
		
		
		
		
		
		
		
		
		
		
		
		
		
		
		
		
		
		
		
		
		
		
		
		
		
		
		
		
		
		
		
		
		
		
		
		
		
		
		
		
		
		 
		
	</defs><sodipodi:namedview
   pagecolor="#ffffff"
   bordercolor="#666666"
   borderopacity="1"
   objecttolerance="10"
   gridtolerance="10"
   guidetolerance="10"
   inkscape:pageopacity="0"
   inkscape:pageshadow="2"
   inkscape:window-width="1280"
   inkscape:window-height="996"
   id="namedview133"
   showgrid="false"
   inkscape:zoom="2.5569938"
   inkscape:cx="83.519027"
   inkscape:cy="115.3132"
   inkscape:window-x="0"
   inkscape:window-y="0"
   inkscape:window-maximized="1"
   inkscape:current-layer="svg2" />
	<path
   inkscape:connector-curvature="0"
   style="overflow:visible"
   d="m 33.501416,96.264107 c -1.91362,-0.10559 -3.7227,0.73664 -4.375,2.281247 -3.995761,13.384426 -18.331551,27.105946 -7.218751,42.843746 2.39704,3.459 5.03927,7.50149 2.5,11.40625 -1.7744,2.77776 -3.63125,5.57259 -5.5,8.375 4.24066,3.58752 8.06428,2.48633 10.156251,1.34375 1.84817,-3.46437 3.56125,-7.00345 5.03125,-10.65625 2.23423,-5.57154 -1.4615,-12.99695 -6.937501,-18.15625 0.973581,-11.28285 6.734331,-21.28717 11.062501,-31.5 0.96996,-2.03173 -0.27891,-4.560823 -2.8125,-5.499993 -0.62762,-0.2555 -1.26838,-0.4023 -1.90625,-0.4375 z"
   id="path9-4" /><polygon
   id="polygon5"
   points="130.088,72.539 131.088,52.706 137.254,51.206 138.671,61.706 137.254,69.289 134.921,72.039 "
   style="fill:#dcdcdc"
   transform="matrix(0.96626868,0.25753609,-0.25753609,0.96626868,34.627568,-14.770675)" /><polygon
   id="polygon7"
   points="101.4,99.664 104.463,93.289 85.65,95.414 89.15,100.477 98.275,101.414 "
   style="fill:#eeeeee"
   transform="matrix(0.96626868,0.25753609,-0.25753609,0.96626868,34.627568,-14.770675)" /><path
   d="M 135.34375 114.125 C 133.43013 114.01941 131.62105 114.86164 130.96875 116.40625 C 126.97299 129.79068 112.6372 143.5122 123.75 159.25 C 126.14704 162.709 128.78927 166.75149 126.25 170.65625 C 124.4756 173.43401 122.61875 176.22884 120.75 179.03125 C 124.99066 182.61877 128.81428 181.51758 130.90625 180.375 C 132.75442 176.91063 134.4675 173.37155 135.9375 169.71875 C 138.17173 164.14721 134.476 156.7218 129 151.5625 C 129.97358 140.27965 135.73433 130.27533 140.0625 120.0625 C 141.03246 118.03077 139.78359 115.50167 137.25 114.5625 C 136.62238 114.307 135.98162 114.1602 135.34375 114.125 z "
   id="path9" /><path
   inkscape:connector-curvature="0"
   id="path11"
   d="m 152.20967,86.093233 c 0,0 0.6333,1.238888 0.95937,1.219198 0.32704,-0.01943 4.48442,0.445942 4.48442,0.445942 l 2.11233,-1.899057 0.96494,-4.024237 1.55171,-7.829476 0.4786,-5.010764 -0.51684,-7.096477 -4.48317,7.583212 -5.55136,16.611659 z"
   style="fill:#b4b4b4" /><g
   id="g13"
   transform="matrix(0.96626868,0.25753609,-0.25753609,0.96626868,34.627568,-14.770675)">
			<path
   inkscape:connector-curvature="0"
   id="path15"
   d="m 122.508,93.453 c 0.552,1.655 1.379,6.344 1.931,7.447 0.551,1.104 2.482,2.207 2.482,2.207 l 6.068,-0.276 3.861,-1.655 c 0,0 1.379,-1.379 1.379,-4.137 0,-2.758 0.276,-18.481 -0.276,-20.963 -0.552,-2.482 -1.931,-8.275 -2.482,-9.378"
   style="fill:#b4b4b4" />
			<polyline
   id="polyline17"
   points="134.989,67.387 134.472,66.146 133.748,69.973 "
   style="fill:#b4b4b4" />
			<polygon
   id="polygon19"
   points="124.542,94.591 122.267,93.04 121.75,91.591 124.335,90.66 "
   style="fill:#b4b4b4" />
		</g><polyline
   id="polyline21"
   points="111.75,93.729 127.335,88.074 131.852,79.213 132.852,68.628 "
   style="fill:#dcdcdc"
   transform="matrix(0.96626868,0.25753609,-0.25753609,0.96626868,34.627568,-14.770675)" /><polygon
   id="polygon23"
   points="141.816,40.08 138.23,45.734 139.333,64.353 143.933,48.207 143.471,41.321 "
   style="fill:#dcdcdc"
   transform="matrix(0.96626868,0.25753609,-0.25753609,0.96626868,34.627568,-14.770675)" /><path
   inkscape:connector-curvature="0"
   id="path25"
   d="m 32.541217,66.437265 c 0,0 -15.858261,-3.155514 -16.071243,-2.35641 -0.21324,0.800071 -1.838344,2.078677 -2.718169,3.772215 l 2.718169,-3.772215 1.745912,-2.531764 c 0.999152,-2.945022 1.185269,-5.250869 1.318076,-7.356699 0.13255,-2.104864 -1.31963,-5.490039 -0.733735,-7.6883 0.586152,-2.199227 0.491561,-5.863178 2.997714,-8.836031 2.504929,-2.972145 5.356583,-5.637652 6.928635,-6.717207 1.572052,-1.079555 9.021243,-5.731019 9.021243,-5.731019 0,0 0.625026,-0.481267 1.618344,-1.249361 l 2.365606,1.025832 c 12.313468,4.138768 51.901504,9.836302 87.953161,14.877967 l 4.87742,0.443056 3.91705,-3.451646 0.90391,-13.032825 -4.64952,-2.50181 L 106.87202,14.477457 58.654224,9.3300038 C 61.250351,7.7203028 63.530042,6.4009003 63.530042,6.4009003 69.579079,4.58758 76.001965,4.5866744 81.212489,5.1195468 c 5.210524,0.5328725 15.991777,1.0509082 36.767151,4.2326398 20.77607,3.1829554 21.86885,3.9016264 25.61298,5.1137614 3.74412,1.212134 7.27623,3.22363 9.42212,7.221114 2.14589,3.997484 7.8781,16.229332 8.2116,17.38935 0.33376,1.159052 0.53282,1.212104 0.53282,1.212104 l 0.55902,-3.705004 c 0,0 1.66545,-0.62621 2.46456,-0.413228 0.80007,0.21324 3.6116,0.105684 5.54332,1.691667 1.93267,1.58624 2.01214,2.891742 0.5868,4.224624 -1.42535,1.332883 -2.18533,1.773006 -6.79677,1.399806 -4.61073,-0.371977 -1.15905,0.33376 -1.15905,0.33376 l 0.70664,2.971209 1.91969,5.649968 0.46628,2.265503 c 0,0 -1.07868,8.062148 -2.62361,10.647479 l 1.23738,-8.661492 c 0,0 -2.47783,7.689236 -2.59742,8.941685 -0.11958,1.25245 -0.79939,2.999298 -0.79939,2.999298 l -4.39661,8.462153 -5.809,8.942622 -2.65163,2.718817 3.99686,-11.781054 c 0,0 1.29163,-5.649938 -0.13371,-4.317055 -1.42631,1.332624 -6.20809,12.047572 -7.1549,14.792319 -0.94584,2.745004 -2.51792,7.035873 -3.49018,8.276324 -0.97297,1.239227 -5.32946,7.143433 -7.14188,7.517273 -1.81215,0.37289 -10.56707,1.89347 -13.52532,1.7477 l -6.21087,-0.79846 c 0,0 -25.02589,-4.10142 -32.729314,-5.726129 C 74.317598,96.843845 47.638254,92.515966 38.083293,90.611996 28.528333,88.708025 20.039027,86.016949 17.54735,84.924399 15.055674,83.831849 14.628515,82.219452 14.628515,82.219452 L 12.74889,80.434161 c 0,0 -1.292537,-0.772948 -1.01328,-2.624484 0.285119,-1.854113 -0.101694,-2.814114 0.337493,-5.265702 l 1.678702,-4.690905"
   style="fill:#dcdcdc" /><path
   inkscape:connector-curvature="0"
   id="path29"
   d="m 44.523432,92.503362 -1.385824,3.056189 -3.392884,3.092526 -3.891261,0.67565 -5.010764,-0.478596 c 0,0 -2.434357,-2.64723 -3.624939,-3.534786 -1.190325,-0.888523 -2.488065,-3.517414 -2.915364,-6.200978 l -0.678772,-3.141786 20.416903,3.7268 0.706643,2.971209"
   style="fill:#b4b4b4" /><path
   inkscape:connector-curvature="0"
   id="path31"
   d="m 13.772514,68.097654 c 0.879567,-1.692572 2.504929,-2.972145 2.717911,-3.771249 0.212983,-0.799104 16.071244,2.35641 16.071244,2.35641"
   style="fill:none;stroke:#000000;stroke-width:0.5" /><path
   inkscape:connector-curvature="0"
   id="path33"
   d="m 18.235372,61.794383 c 0.999409,-2.945988 1.185269,-5.250869 1.318076,-7.356699 0.132807,-2.10583 -1.31963,-5.490038 -0.733478,-7.689266 0.585895,-2.198261 0.491561,-5.863178 2.997456,-8.835065 2.50493,-2.972145 5.356584,-5.637652 6.928636,-6.717207 1.572051,-1.079554 9.021242,-5.731019 9.021242,-5.731019 0,0 11.579482,-8.903181 14.123533,-11.222221 2.545016,-2.318782 11.659914,-7.5974222 11.659914,-7.5974222 6.049038,-1.8133202 12.47289,-1.8139683 17.682447,-1.2813534 5.210782,0.5319062 15.992035,1.0499419 36.767152,4.2326398 20.77511,3.1826978 21.86788,3.9013688 25.61298,5.1137608 3.74509,1.212392 7.27623,3.223631 9.42212,7.221115 2.14589,3.997483 7.87784,16.230298 8.2116,17.38935 0.33376,1.159051 0.53281,1.212104 0.53281,1.212104 l 0.55903,-3.705005 c 0,0 1.66571,-0.627176 2.46578,-0.413936 0.79911,0.212983 3.61135,0.10665 5.54332,1.691667 1.93293,1.585274 2.0124,2.890776 0.5868,4.224624 -1.42631,1.332625 -2.18507,1.772039 -6.7958,1.400063 -4.61073,-0.371976 -1.16002,0.333503 -1.16002,0.333503 l 0.70665,2.971209 1.91968,5.649968 0.46628,2.265502 c 0,0 -1.07771,8.062406 -2.62361,10.64748"
   style="fill:none;stroke:#000000;stroke-width:0.5" /><path
   inkscape:connector-curvature="0"
   id="path35"
   d="m 24.169694,89.067649 c 0.42659,2.682341 1.724073,5.312198 2.914397,6.200721 1.190325,0.888522 3.624939,3.534785 3.624939,3.534785 l 5.010507,0.479563 3.891261,-0.67565 3.393592,-3.091302 1.384859,-3.056447"
   style="fill:none;stroke:#000000;stroke-width:0.5" /><path
   inkscape:connector-curvature="0"
   id="path37"
   d="m 34.972696,91.375664 c 0.514785,1.279743 0.888891,3.091191 1.741445,4.175324 0.853521,1.08439 1.848493,1.634177 1.848493,1.634177"
   style="fill:none;stroke:#000000;stroke-width:0.5" /><path
   inkscape:connector-curvature="0"
   id="path39"
   d="m 128.73547,106.94618 c 0.10716,1.74133 -0.30132,6.48515 -0.0523,7.69407 0.24931,1.20795 1.82989,2.77176 1.82989,2.77176 l 5.9344,1.29604 4.15795,-0.60457 c 0,0 1.68763,-0.97735 2.39817,-3.64328 0.71054,-2.66594 5.02622,-17.786534 5.13204,-20.326972 0.10679,-2.540182 0.26525,-8.493176 0.0169,-9.700873"
   style="fill:none;stroke:#000000;stroke-width:0.5" /><path
   inkscape:connector-curvature="0"
   id="path41"
   d="m 142.80609,96.994174 c -1.20759,4.530836 -1.1178,7.409046 -0.88708,9.754576"
   style="fill:none;stroke:#000000;stroke-width:0.5" /><path
   inkscape:connector-curvature="0"
   id="path43"
   d="m 79.330164,73.707337 c 0.811141,0.140642 1.581223,-0.403385 1.721608,-1.213559 l 1.501164,-8.68433 c 0.140385,-0.810174 -0.403385,-1.581223 -1.214525,-1.721865 L 60.911677,58.556866 c -0.810174,-0.140384 -1.581223,0.403385 -1.721607,1.213559 l -1.501165,8.68433 c -0.140384,0.810174 0.403385,1.581223 1.213559,1.721608 l 20.4277,3.530974 z"
   style="fill:none;stroke:#b4b4b4;stroke-width:0.5" /><path
   inkscape:connector-curvature="0"
   id="path45"
   d="m 41.750997,25.242565 c 12.313725,4.137802 51.901504,9.836301 87.953163,14.877967"
   style="fill:none;stroke:#000000;stroke-width:0.5" /><path
   inkscape:connector-curvature="0"
   id="path47"
   d="m 112.05761,17.43365 c -0.21298,0.799104 -0.6392,2.398278 -0.6392,2.398278 l 2.45295,1.509647 4.86834,1.012942 3.00274,0.514675"
   style="fill:none;stroke:#000000;stroke-width:0.5" /><line
   id="line49"
   y2="19.085087"
   x2="119.32545"
   y1="18.498001"
   x1="120.33781"
   style="fill:none;stroke:#000000;stroke-width:0.5" /><polyline
   id="polyline51"
   points="93.318,10.901 94.421,11.453 94.697,12.556 "
   style="fill:none;stroke:#000000;stroke-width:0.5"
   transform="matrix(0.96626868,0.25753609,-0.25753609,0.96626868,34.627568,-14.770675)" /><polyline
   id="polyline53"
   points="55.253,27.727 56.632,23.313 59.942,21.658 67.39,20.279     72.354,20.555 74.837,23.313 74.837,26.623 "
   style="fill:none;stroke:#b4b4b4;stroke-width:0.5"
   transform="matrix(0.96626868,0.25753609,-0.25753609,0.96626868,34.627568,-14.770675)" /><polyline
   id="polyline55"
   points="96.076,23.038 96.352,20.555 97.731,18.348 102.42,17.245     106.833,17.245 111.522,16.969 "
   style="fill:none;stroke:#b4b4b4;stroke-width:0.5"
   transform="matrix(0.96626868,0.25753609,-0.25753609,0.96626868,34.627568,-14.770675)" /><polyline
   id="polyline57"
   points="12.775,53.931 19.946,74.618 24.636,80.411 34.29,80.135     "
   style="fill:none;stroke:#000000;stroke-width:0.5"
   transform="matrix(0.96626868,0.25753609,-0.25753609,0.96626868,34.627568,-14.770675)" /><line
   id="line59"
   y2="79.4468"
   x2="85.53846"
   y1="76.304077"
   x1="68.392471"
   style="fill:none;stroke:#000000;stroke-width:0.5" /><polyline
   id="polyline61"
   points="83.112,77.101 90.008,75.997 94.421,73.515 95.249,63.86     "
   style="fill:none;stroke:#000000;stroke-width:0.5"
   transform="matrix(0.96626868,0.25753609,-0.25753609,0.96626868,34.627568,-14.770675)" /><line
   id="line63"
   y2="54.833981"
   x2="116.3629"
   y1="66.277267"
   x1="112.17043"
   style="fill:none;stroke:#000000;stroke-width:0.5" /><polyline
   id="polyline65"
   points="97.731,57.241 106.558,56.689 112.35,56.137 120.35,54.482     123.108,52.551 123.108,48.414 119.798,44.552 117.04,43.173 110.419,43.449 "
   style="fill:none;stroke:#000000;stroke-width:0.5"
   transform="matrix(0.96626868,0.25753609,-0.25753609,0.96626868,34.627568,-14.770675)" /><line
   id="line67"
   y2="53.998539"
   x2="118.58294"
   y1="54.922062"
   x1="122.04797"
   style="fill:none;stroke:#000000;stroke-width:0.5" /><line
   id="line69"
   y2="61.478294"
   x2="122.01334"
   y1="56.023827"
   x1="124.03838"
   style="fill:none;stroke:#b4b4b4;stroke-width:0.5" /><line
   id="line71"
   y2="64.534485"
   x2="120.62753"
   y1="63.00639"
   x1="121.32043"
   style="fill:none;stroke:#000000;stroke-width:0.5" /><polyline
   id="polyline73"
   points="10.844,53.379 7.534,53.379 5.879,53.379 6.707,56.413     7.81,60.551 9.189,63.033 10.017,64.412 14.154,64.412 "
   style="fill:none;stroke:#000000;stroke-width:0.5"
   transform="matrix(0.96626868,0.25753609,-0.25753609,0.96626868,34.627568,-14.770675)" /><polyline
   id="polyline75"
   points="3.396,64.688 6.707,64.964 8.085,63.033 "
   style="fill:none;stroke:#000000;stroke-width:0.5"
   transform="matrix(0.96626868,0.25753609,-0.25753609,0.96626868,34.627568,-14.770675)" /><line
   id="line77"
   y2="37.878239"
   x2="23.825193"
   y1="38.641975"
   x1="25.619013"
   style="fill:none;stroke:#000000;stroke-width:0.5" /><path
   inkscape:connector-curvature="0"
   id="path79"
   d="m 93.146111,102.31336 c 0.569458,2.15019 1.545834,3.83755 1.545834,3.83755 l 1.599175,0.42623"
   style="fill:none;stroke:#000000;stroke-width:0.5" /><polyline
   id="polyline81"
   points="96.904,101.925 99.662,101.649 102.145,99.443     103.523,96.409 "
   style="fill:none;stroke:#000000;stroke-width:0.5"
   transform="matrix(0.96626868,0.25753609,-0.25753609,0.96626868,34.627568,-14.770675)" /><polyline
   id="polyline83"
   points="93.87,97.236 92.214,99.443 91.938,102.477 93.87,103.029     94.697,100.822 93.594,99.995 "
   style="fill:none;stroke:#000000;stroke-width:0.5"
   transform="matrix(0.96626868,0.25753609,-0.25753609,0.96626868,34.627568,-14.770675)" /><line
   id="line85"
   y2="104.33731"
   x2="102.88332"
   y1="105.98994"
   x1="101.58595"
   style="fill:none;stroke:#000000;stroke-width:0.5" /><polyline
   id="polyline87"
   points="44.771,43.449 45.047,45.104 48.909,45.104 56.908,44.276     59.667,44.276 60.494,42.346 56.632,42.346 51.391,42.622 45.875,42.897 "
   style="fill:none;stroke:#b4b4b4;stroke-width:0.5"
   transform="matrix(0.96626868,0.25753609,-0.25753609,0.96626868,34.627568,-14.770675)" /><line
   id="line89"
   y2="67.190147"
   x2="63.113567"
   y1="65.253204"
   x1="63.344181"
   style="fill:none;stroke:#b4b4b4;stroke-width:0.5" /><line
   id="line91"
   y2="68.735611"
   x2="63.557529"
   y1="64.151329"
   x1="65.636269"
   style="fill:none;stroke:#b4b4b4;stroke-width:0.5" /><polyline
   id="polyline93"
   points="51.943,71.308 51.943,73.239 53.322,73.239 53.322,71.308     "
   style="fill:none;stroke:#b4b4b4;stroke-width:0.5"
   transform="matrix(0.96626868,0.25753609,-0.25753609,0.96626868,34.627568,-14.770675)" /><polyline
   id="polyline95"
   points="51.943,68.826 53.046,68.826 53.874,69.929 "
   style="fill:none;stroke:#b4b4b4;stroke-width:0.5"
   transform="matrix(0.96626868,0.25753609,-0.25753609,0.96626868,34.627568,-14.770675)" /><polyline
   id="polyline97"
   points="56.908,68.274 55.805,71.032 55.805,72.963 "
   style="fill:none;stroke:#b4b4b4;stroke-width:0.5"
   transform="matrix(0.96626868,0.25753609,-0.25753609,0.96626868,34.627568,-14.770675)" /><path
   inkscape:connector-curvature="0"
   id="path99"
   d="M 70.125527,66.132294"
   style="fill:none;stroke:#b4b4b4;stroke-width:0.5" /><polyline
   id="polyline101"
   points="59.115,68.55 60.218,69.377 59.391,71.308 "
   style="fill:none;stroke:#b4b4b4;stroke-width:0.5"
   transform="matrix(0.96626868,0.25753609,-0.25753609,0.96626868,34.627568,-14.770675)" /><line
   id="line103"
   y2="71.630974"
   x2="73.349159"
   y1="71.346649"
   x1="72.282394"
   style="fill:none;stroke:#b4b4b4;stroke-width:0.5" /><polyline
   id="polyline105"
   points="62.149,72.136 63.528,69.929 62.976,67.722 61.873,67.446     61.873,69.929 "
   style="fill:none;stroke:#b4b4b4;stroke-width:0.5"
   transform="matrix(0.96626868,0.25753609,-0.25753609,0.96626868,34.627568,-14.770675)" /><polyline
   id="polyline107"
   points="65.183,67.722 65.183,69.653 66.286,69.929 "
   style="fill:none;stroke:#b4b4b4;stroke-width:0.5"
   transform="matrix(0.96626868,0.25753609,-0.25753609,0.96626868,34.627568,-14.770675)" /><polyline
   id="polyline109"
   points="45.323,69.102 46.702,69.102 46.978,70.205 45.875,72.687     45.323,73.791 46.702,73.791 "
   style="fill:none;stroke:#b4b4b4;stroke-width:0.5"
   transform="matrix(0.96626868,0.25753609,-0.25753609,0.96626868,34.627568,-14.770675)" /><polyline
   id="polyline111"
   points="111.247,10.556 113.729,23.382 110.833,27.727 "
   style="fill:none;stroke:#000000;stroke-width:0.5"
   transform="matrix(0.96626868,0.25753609,-0.25753609,0.96626868,34.627568,-14.770675)" /><path
   inkscape:connector-curvature="0"
   id="path113"
   d="m 152.36385,86.303014 c 0,0 0.63304,1.239855 0.95937,1.219199 0.32729,-0.0204 4.48442,0.445942 4.48442,0.445942 l 2.11233,-1.899057 0.96519,-4.025204 1.55145,-7.82851 0.4786,-5.010764"
   style="fill:none;stroke:#000000;stroke-width:0.5" /><line
   id="line115"
   y2="77.599823"
   x2="160.6787"
   y1="71.789948"
   x1="161.37027"
   style="fill:none;stroke:#000000;stroke-width:0.5" /><line
   id="line117"
   y2="51.069332"
   x2="150.30121"
   y1="46.490982"
   x1="159.22844"
   style="fill:none;stroke:#b4b4b4;stroke-width:0.5" /><path
   inkscape:connector-curvature="0"
   id="path119"
   d="m 86.318855,20.421785 c 0.772608,-2.898806 1.41828,-4.117635 3.657256,-4.484389 2.238976,-0.366754 2.944682,-0.607117 4.783962,0.525778 1.83928,1.132895 1.685478,1.306129 1.859567,3.064267 0.17383,1.759105 0.12052,1.959123 0.12052,1.959123"
   style="fill:#7f7f7f;stroke:#000000;stroke-width:0.5" /><polygon
   id="polygon121"
   points="37.965,97.591 20.277,97.073 14.175,97.28 14.899,101.314 25.036,101.418 38.793,100.59 "
   style="fill:#dcdcdc"
   transform="matrix(0.96626868,0.25753609,-0.25753609,0.96626868,34.627568,-14.770675)" /><path
   inkscape:connector-curvature="0"
   id="path123"
   d="m 114.77446,104.43811 c 0,0 -25.02589,-4.10141 -32.729314,-5.726128 C 74.342688,97.087526 47.663343,92.759647 38.108383,90.855677 28.553423,88.951706 20.064116,86.26063 17.57244,85.16808 15.080763,84.07553 14.653605,82.463133 14.653605,82.463133 L 12.77398,80.677842 c 0,0 -1.292537,-0.772948 -1.013023,-2.62545 0.279515,-1.852502 -0.107556,-2.811536 0.331631,-5.263125"
   style="fill:none;stroke:#000000;stroke-width:0.5" /><path
   inkscape:connector-curvature="0"
   id="path125"
   d="m 164.68703,56.938164 c 0,0 -2.47784,7.689236 -2.59742,8.941686 -0.11958,1.252449 -0.79913,2.998331 -0.79913,2.998331 l -4.39688,8.46312 -5.80899,8.942621 -2.65163,2.718817 3.99686,-11.781053 c 0,0 1.29163,-5.649939 -0.13345,-4.318023 -1.42631,1.332625 -6.2081,12.047573 -7.15394,14.792577 -0.94584,2.745005 -2.51818,7.03684 -3.49114,8.276067 -0.97297,1.239227 -5.32947,7.143433 -7.14188,7.517273 -1.81241,0.37385 -10.56708,1.89347 -13.52532,1.7477"
   style="fill:none;stroke:#000000;stroke-width:0.5" /><polygon
   id="polygon127"
   points="21.14,81.179 17.002,89.178 1.004,86.695 2.845,81.1 16.175,79.386 "
   style="fill:#dcdcdc"
   transform="matrix(0.96626868,0.25753609,-0.25753609,0.96626868,34.627568,-14.770675)" /><rect
   x="29.655552"
   id="rect129"
   height="2.8340001"
   width="147.401"
   style="fill:none"
   y="34.536713"
   transform="matrix(0.96626868,0.25753609,-0.25753609,0.96626868,0,0)" /><polyline
   id="polyline131"
   points="59.088,21.664 60.4,15.977 64.275,14.664 67.213,15.289 68.525,17.039 69.338,19.414     69.525,20.289 "
   style="fill:#7f7f7f"
   transform="matrix(0.96626868,0.25753609,-0.25753609,0.96626868,34.627568,-14.770675)" />
</svg>