<?xml version="1.0" encoding="iso-8859-1"?>
<!-- Generator: Adobe Illustrator 11 Build 196, SVG Export Plug-In . SVG Version: 6.0.0 Build 78)  -->
<!DOCTYPE svg PUBLIC "-//W3C//DTD SVG 1.0//EN"    "http://www.w3.org/TR/2001/REC-SVG-20010904/DTD/svg10.dtd" [
	<!ENTITY ns_flows "http://ns.adobe.com/Flows/1.0/">
	<!ENTITY ns_svg "http://www.w3.org/2000/svg">
	<!ENTITY ns_xlink "http://www.w3.org/1999/xlink">
]>
<svg  
	 width="147.401" height="74.634" viewBox="0 0 147.401 74.634" style="overflow:visible;enable-background:new 0 0 147.401 74.634"
	 xml:space="preserve">
	<g id="Layer_1">
		<g>
			<path style="fill:#EDEDED;" d="M68.055,72.784c11.433,8.637,41.372-14.831,30.322-32.079
				c-11.05-17.249,12.025-26.228,2.241-31.829c-9.785-5.602-34.094,13.364-34.292,20.437C66.128,36.384,48.271,57.836,68.055,72.784
				z"/>
			<path style="fill:#EDEDED;" d="M53.776,71.193c14.328-0.121,23.758-36.974,4.485-43.913C38.987,20.343,51.808-0.841,40.637,0.683
				S21.754,32.058,25.909,37.785C30.063,43.512,28.982,71.402,53.776,71.193z"/>
		</g>
		<g>
			<path style="fill:none;stroke:#000000;stroke-width:0.5;" d="M68.007,72.429c11.432,8.638,41.372-14.831,30.321-32.079
				s12.025-26.228,2.241-31.829c-9.785-5.602-34.094,13.364-34.292,20.437C66.081,36.03,48.224,57.482,68.007,72.429z"/>
			<path style="fill:none;stroke:#000000;stroke-width:0.5;" d="M53.729,70.839c14.328-0.121,23.758-36.975,4.485-43.913
				C38.94,19.988,51.76-1.195,40.589,0.328S21.706,31.704,25.861,37.431C30.015,43.158,28.935,71.048,53.729,70.839z"/>
		</g>
		<circle cx="80.266" cy="43.687" r="2.386"/> 
		<circle cx="44.849" cy="38.854" r="2.386"/> 
		<g>
			<path style="fill:none;stroke:#000000;stroke-width:0.5;stroke-dasharray:3;" d="M12.243,10.966
				C31.92,31.1,52.954,64.687,130.853,27.39"/>
			<path d="M134.938,25.43c-1.58,1.632-3.381,3.99-4.242,5.985l-0.376-3.774l-2.704-2.659
				C129.709,25.562,132.675,25.637,134.938,25.43z"/>
		</g>
		<rect y="47.592" style="fill:none;" width="147.401" height="2.835"/> 
	</g>
</svg>
