<?xml version="1.0" encoding="iso-8859-1"?>
<!-- Generator: Adobe Illustrator 11 Build 196, SVG Export Plug-In . SVG Version: 6.0.0 Build 78)  -->
<!DOCTYPE svg PUBLIC "-//W3C//DTD SVG 1.0//EN"    "http://www.w3.org/TR/2001/REC-SVG-20010904/DTD/svg10.dtd" [
	<!ENTITY ns_flows "http://ns.adobe.com/Flows/1.0/">
	<!ENTITY ns_svg "http://www.w3.org/2000/svg">
	<!ENTITY ns_xlink "http://www.w3.org/1999/xlink">
]>
<svg  
	 width="138.612" height="193.601" viewBox="0 0 138.612 193.601"
	 style="overflow:visible;enable-background:new 0 0 138.612 193.601" xml:space="preserve">
	<style type="text/css">
	
	</style>
	<g id="Layer_1">
		<g>
			<g>
				<g>
					<path style="fill:none;stroke:#000000;stroke-width:0.5;stroke-miterlimit:1;" d="M19.336,11.127
						c-5.676,0-5.027-5.326-1.949-5.326c3.079,0,4.149,5.326-1.687,5.326h-1.504"/>
					<path style="fill:none;stroke:#000000;stroke-width:0.5;stroke-miterlimit:1;" d="M19.335,11.127
						c5.836,0,4.765-5.326,1.687-5.326s-3.727,5.326,1.949,5.326"/>
					<path style="fill:none;stroke:#000000;stroke-width:0.5;stroke-miterlimit:1;" d="M22.971,11.127
						c5.835,0,4.765-5.326,1.687-5.326s-3.727,5.326,1.949,5.326"/>
					<path style="fill:none;stroke:#000000;stroke-width:0.5;stroke-miterlimit:1;" d="M26.606,11.127
						c5.836,0,4.765-5.326,1.687-5.326c-3.078,0-3.726,5.326,1.949,5.326"/>
					<path style="fill:none;stroke:#000000;stroke-width:0.5;stroke-miterlimit:1;" d="M30.242,11.127
						c5.836,0,4.765-5.326,1.687-5.326s-3.727,5.326,1.949,5.326"/>
					<path style="fill:none;stroke:#000000;stroke-width:0.5;stroke-miterlimit:1;" d="M33.877,11.127
						c5.835,0,4.765-5.326,1.687-5.326s-3.727,5.326,1.949,5.326"/>
					<path style="fill:none;stroke:#000000;stroke-width:0.5;stroke-miterlimit:1;" d="M37.513,11.127
						c5.836,0,4.765-5.326,1.687-5.326c-3.079,0-3.727,5.326,1.949,5.326"/>
					<path style="fill:none;stroke:#000000;stroke-width:0.5;stroke-miterlimit:1;" d="M41.148,11.127
						c5.836,0,4.765-5.326,1.687-5.326s-3.727,5.326,1.949,5.326"/>
					<path style="fill:none;stroke:#000000;stroke-width:0.5;stroke-miterlimit:1;" d="M44.784,11.127
						c5.835,0,4.765-5.326,1.687-5.326c-3.078,0-3.726,5.326,1.949,5.326"/>
					<path style="fill:none;stroke:#000000;stroke-width:0.5;stroke-miterlimit:1;" d="M48.419,11.127
						c5.836,0,4.765-5.326,1.687-5.326s-3.727,5.326,1.949,5.326"/>
					<path style="fill:none;stroke:#000000;stroke-width:0.5;stroke-miterlimit:1;" d="M52.054,11.127
						c5.836,0,4.765-5.326,1.687-5.326s-3.727,5.326,1.949,5.326"/>
					<path style="fill:none;stroke:#000000;stroke-width:0.5;stroke-miterlimit:1;" d="M55.69,11.127
						c5.835,0,4.765-5.326,1.687-5.326c-3.079,0-3.727,5.326,1.949,5.326"/>
					<path style="fill:none;stroke:#000000;stroke-width:0.5;stroke-miterlimit:1;" d="M59.325,11.127
						c5.836,0,4.765-5.326,1.687-5.326s-3.727,5.326,1.949,5.326"/>
					<path style="fill:none;stroke:#000000;stroke-width:0.5;stroke-miterlimit:1;" d="M62.961,11.127
						c5.835,0,4.765-5.326,1.687-5.326s-3.727,5.326,1.949,5.326"/>
					<path style="fill:none;stroke:#000000;stroke-width:0.5;stroke-miterlimit:1;" d="M66.596,11.127
						c5.836,0,4.765-5.326,1.687-5.326c-3.079,0-3.727,5.326,1.949,5.326"/>
					<path style="fill:none;stroke:#000000;stroke-width:0.5;stroke-miterlimit:1;" d="M70.231,11.127
						c5.836,0,4.765-5.326,1.687-5.326s-3.727,5.326,1.949,5.326"/>
					<path style="fill:none;stroke:#000000;stroke-width:0.5;stroke-miterlimit:1;" d="M73.867,11.127
						c5.835,0,4.765-5.326,1.687-5.326s-3.727,5.326,1.949,5.326"/>
					<path style="fill:none;stroke:#000000;stroke-width:0.5;stroke-miterlimit:1;" d="M77.502,11.127
						c5.836,0,4.765-5.326,1.687-5.326s-3.727,5.326,1.949,5.326"/>
				</g>
				<g>
					<rect x="0.894" y="1.34" style="fill:#D6D6D6;" width="12.953" height="14.248"/> 
					<line style="fill:none;stroke:#7F7F7F;" x1="14.21" y1="15.518" x2="14.21" y2="1.41"/>
				</g>
			</g>
			
				<radialGradient id="XMLID_7_" cx="139.8662" cy="-8.8457" r="13.6015" fx="139.8662" fy="-8.8457" gradientTransform="matrix(0.855 0 0 0.855 2.6756 11.7874)" gradientUnits="userSpaceOnUse">
				<stop  offset="0" style="stop-color:#F7F7F7"/>
				<stop  offset="0.0381" style="stop-color:#EEEEEE"/>
				<stop  offset="0.1874" style="stop-color:#CDCDCD"/>
				<stop  offset="0.3366" style="stop-color:#ABABAB"/>
				<stop  offset="0.4823" style="stop-color:#888888"/>
				<stop  offset="0.6236" style="stop-color:#666666"/>
				<stop  offset="0.7595" style="stop-color:#454545"/>
				<stop  offset="0.8877" style="stop-color:#232323"/>
				<stop  offset="1" style="stop-color:#000000"/>
				<midPointStop  offset="0" style="stop-color:#F7F7F7"/>
				<midPointStop  offset="0.32" style="stop-color:#F7F7F7"/>
				<midPointStop  offset="1" style="stop-color:#000000"/>
			</radialGradient>
			<circle style="fill:url(#XMLID_7_);" cx="119.659" cy="8.464" r="8.464"/> 
		</g>
		<g>
			<g>
				<g>
					<path style="fill:none;stroke:#000000;stroke-width:0.5;stroke-miterlimit:1;" d="M18.458,46.462
						c-5.675,0-5.027-5.327-1.949-5.327s4.149,5.327-1.687,5.327h-1.504"/>
					<path style="fill:none;stroke:#000000;stroke-width:0.5;stroke-miterlimit:1;" d="M18.458,46.462
						c5.836,0,4.765-5.327,1.687-5.327c-3.079,0-3.727,5.327,1.949,5.327"/>
					<path style="fill:none;stroke:#000000;stroke-width:0.5;stroke-miterlimit:1;" d="M22.093,46.462
						c5.836,0,4.765-5.327,1.687-5.327s-3.727,5.327,1.949,5.327"/>
					<path style="fill:none;stroke:#000000;stroke-width:0.5;stroke-miterlimit:1;" d="M25.729,46.462
						c5.835,0,4.765-5.327,1.687-5.327s-3.727,5.327,1.949,5.327"/>
					<path style="fill:none;stroke:#000000;stroke-width:0.5;stroke-miterlimit:1;" d="M29.364,46.462
						c5.836,0,4.765-5.327,1.687-5.327c-3.079,0-3.727,5.327,1.949,5.327"/>
					<path style="fill:none;stroke:#000000;stroke-width:0.5;stroke-miterlimit:1;" d="M33,46.462c5.836,0,4.765-5.327,1.687-5.327
						s-3.727,5.327,1.949,5.327"/>
					<path style="fill:none;stroke:#000000;stroke-width:0.5;stroke-miterlimit:1;" d="M36.635,46.462
						c5.835,0,4.765-5.327,1.687-5.327s-3.727,5.327,1.949,5.327"/>
					<path style="fill:none;stroke:#000000;stroke-width:0.5;stroke-miterlimit:1;" d="M40.271,46.462
						c5.836,0,4.765-5.327,1.687-5.327s-3.727,5.327,1.949,5.327"/>
					<path style="fill:none;stroke:#000000;stroke-width:0.5;stroke-miterlimit:1;" d="M43.906,46.462
						c5.835,0,4.765-5.327,1.687-5.327s-3.727,5.327,1.949,5.327"/>
					<path style="fill:none;stroke:#000000;stroke-width:0.5;stroke-miterlimit:1;" d="M47.542,46.462
						c5.836,0,4.765-5.327,1.687-5.327c-3.078,0-3.726,5.327,1.949,5.327"/>
					<path style="fill:none;stroke:#000000;stroke-width:0.5;stroke-miterlimit:1;" d="M51.177,46.462
						c5.836,0,4.765-5.327,1.687-5.327s-3.727,5.327,1.949,5.327"/>
					<path style="fill:none;stroke:#000000;stroke-width:0.5;stroke-miterlimit:1;" d="M54.812,46.462
						c5.835,0,4.765-5.327,1.687-5.327s-3.727,5.327,1.949,5.327"/>
					<path style="fill:none;stroke:#000000;stroke-width:0.5;stroke-miterlimit:1;" d="M58.448,46.462
						c5.836,0,4.765-5.327,1.687-5.327c-3.078,0-3.726,5.327,1.949,5.327"/>
					<path style="fill:none;stroke:#000000;stroke-width:0.5;stroke-miterlimit:1;" d="M62.083,46.462
						c5.836,0,4.765-5.327,1.687-5.327s-3.727,5.327,1.949,5.327"/>
					<path style="fill:none;stroke:#000000;stroke-width:0.5;stroke-miterlimit:1;" d="M65.719,46.462
						c5.835,0,4.765-5.327,1.687-5.327s-3.727,5.327,1.949,5.327"/>
					<path style="fill:none;stroke:#000000;stroke-width:0.5;stroke-miterlimit:1;" d="M69.354,46.462
						c5.836,0,4.765-5.327,1.687-5.327c-3.079,0-3.727,5.327,1.949,5.327"/>
					<path style="fill:none;stroke:#000000;stroke-width:0.5;stroke-miterlimit:1;" d="M72.989,46.462
						c5.836,0,4.765-5.327,1.687-5.327s-3.727,5.327,1.949,5.327"/>
					<path style="fill:none;stroke:#000000;stroke-width:0.5;stroke-miterlimit:1;" d="M76.625,46.462
						c5.835,0,4.765-5.327,1.687-5.327s-3.727,5.327,1.949,5.327"/>
				</g>
				<g>
					<rect x="0.017" y="36.674" style="fill:#D6D6D6;" width="12.953" height="14.249"/> 
					<line style="fill:none;stroke:#7F7F7F;" x1="13.333" y1="50.852" x2="13.333" y2="36.745"/>
				</g>
			</g>
			
				<radialGradient id="XMLID_8_" cx="139.8662" cy="-8.8457" r="13.6015" fx="139.8662" fy="-8.8457" gradientTransform="matrix(0.855 0 0 0.855 -28.7543 47.1221)" gradientUnits="userSpaceOnUse">
				<stop  offset="0" style="stop-color:#F7F7F7"/>
				<stop  offset="0.0381" style="stop-color:#EEEEEE"/>
				<stop  offset="0.1874" style="stop-color:#CDCDCD"/>
				<stop  offset="0.3366" style="stop-color:#ABABAB"/>
				<stop  offset="0.4823" style="stop-color:#888888"/>
				<stop  offset="0.6236" style="stop-color:#666666"/>
				<stop  offset="0.7595" style="stop-color:#454545"/>
				<stop  offset="0.8877" style="stop-color:#232323"/>
				<stop  offset="1" style="stop-color:#000000"/>
				<midPointStop  offset="0" style="stop-color:#F7F7F7"/>
				<midPointStop  offset="0.32" style="stop-color:#F7F7F7"/>
				<midPointStop  offset="1" style="stop-color:#000000"/>
			</radialGradient>
			<circle style="fill:url(#XMLID_8_);" cx="88.229" cy="43.799" r="8.464"/> 
		</g>
		<g>
			<g>
				<path style="fill:none;stroke:#000000;stroke-width:0.5;stroke-miterlimit:1;" d="M17.52,81.796
					c-4.597,0-3.775-5.327-1.282-5.327c2.494,0,3.655,5.327-1.072,5.327h-1.396"/>
				<path style="fill:none;stroke:#000000;stroke-width:0.5;stroke-miterlimit:1;" d="M17.522,81.796
					c4.727,0,3.565-5.327,1.072-5.327c-2.494,0-3.315,5.327,1.282,5.327"/>
				<path style="fill:none;stroke:#000000;stroke-width:0.5;stroke-miterlimit:1;" d="M19.877,81.796
					c4.727,0,3.565-5.327,1.072-5.327c-2.493,0-3.315,5.327,1.282,5.327"/>
				<path style="fill:none;stroke:#000000;stroke-width:0.5;stroke-miterlimit:1;" d="M22.233,81.796
					c4.727,0,3.565-5.327,1.072-5.327s-3.315,5.327,1.282,5.327"/>
				<path style="fill:none;stroke:#000000;stroke-width:0.5;stroke-miterlimit:1;" d="M24.589,81.796
					c4.727,0,3.565-5.327,1.072-5.327c-2.493,0-3.315,5.327,1.282,5.327"/>
				<path style="fill:none;stroke:#000000;stroke-width:0.5;stroke-miterlimit:1;" d="M26.945,81.796
					c4.727,0,3.565-5.327,1.072-5.327s-3.315,5.327,1.282,5.327"/>
				<path style="fill:none;stroke:#000000;stroke-width:0.5;stroke-miterlimit:1;" d="M29.3,81.796c4.727,0,3.565-5.327,1.072-5.327
					c-2.493,0-3.314,5.327,1.282,5.327"/>
				<path style="fill:none;stroke:#000000;stroke-width:0.5;stroke-miterlimit:1;" d="M31.656,81.796
					c4.727,0,3.565-5.327,1.072-5.327s-3.315,5.327,1.282,5.327"/>
				<path style="fill:none;stroke:#000000;stroke-width:0.5;stroke-miterlimit:1;" d="M34.012,81.796
					c4.727,0,3.565-5.327,1.072-5.327c-2.494,0-3.315,5.327,1.282,5.327"/>
				<path style="fill:none;stroke:#000000;stroke-width:0.5;stroke-miterlimit:1;" d="M36.368,81.796
					c4.727,0,3.565-5.327,1.072-5.327s-3.315,5.327,1.282,5.327"/>
				<path style="fill:none;stroke:#000000;stroke-width:0.5;stroke-miterlimit:1;" d="M38.724,81.796
					c4.727,0,3.565-5.327,1.072-5.327c-2.494,0-3.315,5.327,1.282,5.327"/>
				<path style="fill:none;stroke:#000000;stroke-width:0.5;stroke-miterlimit:1;" d="M41.079,81.796
					c4.727,0,3.565-5.327,1.072-5.327c-2.493,0-3.315,5.327,1.282,5.327"/>
				<path style="fill:none;stroke:#000000;stroke-width:0.5;stroke-miterlimit:1;" d="M43.435,81.796
					c4.727,0,3.565-5.327,1.072-5.327c-2.494,0-3.315,5.327,1.282,5.327"/>
				<path style="fill:none;stroke:#000000;stroke-width:0.5;stroke-miterlimit:1;" d="M45.791,81.796
					c4.727,0,3.565-5.327,1.072-5.327s-3.315,5.327,1.282,5.327"/>
				<path style="fill:none;stroke:#000000;stroke-width:0.5;stroke-miterlimit:1;" d="M48.146,81.796
					c4.727,0,3.565-5.327,1.072-5.327c-2.494,0-3.315,5.327,1.282,5.327"/>
				<path style="fill:none;stroke:#000000;stroke-width:0.5;stroke-miterlimit:1;" d="M50.502,81.796
					c4.727,0,3.565-5.327,1.072-5.327c-2.493,0-3.315,5.327,1.282,5.327"/>
				<path style="fill:none;stroke:#000000;stroke-width:0.5;stroke-miterlimit:1;" d="M52.858,81.796
					c4.727,0,3.565-5.327,1.072-5.327s-3.315,5.327,1.282,5.327"/>
				<path style="fill:none;stroke:#000000;stroke-width:0.5;stroke-miterlimit:1;" d="M55.213,81.796
					c4.727,0,3.565-5.327,1.072-5.327c-2.493,0-3.314,5.327,1.282,5.327"/>
			</g>
			<g>
				<rect x="0.017" y="72.009" style="fill:#D6D6D6;" width="12.953" height="14.249"/> 
				<line style="fill:none;stroke:#7F7F7F;" x1="13.333" y1="86.187" x2="13.333" y2="72.08"/>
			</g>
			
				<radialGradient id="XMLID_9_" cx="139.8662" cy="-8.8457" r="13.6015" fx="139.8662" fy="-8.8457" gradientTransform="matrix(0.855 0 0 0.855 -51.1088 82.4565)" gradientUnits="userSpaceOnUse">
				<stop  offset="0" style="stop-color:#F7F7F7"/>
				<stop  offset="0.0381" style="stop-color:#EEEEEE"/>
				<stop  offset="0.1874" style="stop-color:#CDCDCD"/>
				<stop  offset="0.3366" style="stop-color:#ABABAB"/>
				<stop  offset="0.4823" style="stop-color:#888888"/>
				<stop  offset="0.6236" style="stop-color:#666666"/>
				<stop  offset="0.7595" style="stop-color:#454545"/>
				<stop  offset="0.8877" style="stop-color:#232323"/>
				<stop  offset="1" style="stop-color:#000000"/>
				<midPointStop  offset="0" style="stop-color:#F7F7F7"/>
				<midPointStop  offset="0.32" style="stop-color:#F7F7F7"/>
				<midPointStop  offset="1" style="stop-color:#000000"/>
			</radialGradient>
			<circle style="fill:url(#XMLID_9_);" cx="65.875" cy="79.133" r="8.464"/> 
		</g>
		<g>
			<g>
				<rect y="107.344" style="fill:#D6D6D6;" width="12.953" height="14.248"/> 
				<line style="fill:none;stroke:#7F7F7F;" x1="13.316" y1="107.414" x2="13.316" y2="121.521"/>
			</g>
			<g>
				<path style="fill:none;stroke:#000000;stroke-width:0.5;stroke-miterlimit:1;" d="M17.462,117.131
					c-4.995,0-3.838-5.326-1.129-5.326s4.346,5.326-0.79,5.326h-2.06"/>
				<path style="fill:none;stroke:#000000;stroke-width:0.5;stroke-miterlimit:1;" d="M17.463,117.131
					c5.136,0,3.499-5.326,0.79-5.326c-2.708,0-3.866,5.326,1.129,5.326"/>
				<path style="fill:none;stroke:#000000;stroke-width:0.5;stroke-miterlimit:1;" d="M19.382,117.131
					c5.136,0,3.499-5.326,0.791-5.326c-2.709,0-3.866,5.326,1.128,5.326"/>
				<path style="fill:none;stroke:#000000;stroke-width:0.5;stroke-miterlimit:1;" d="M21.302,117.131
					c5.135,0,3.499-5.326,0.79-5.326c-2.709,0-3.866,5.326,1.128,5.326"/>
				<path style="fill:none;stroke:#000000;stroke-width:0.5;stroke-miterlimit:1;" d="M23.222,117.131
					c5.135,0,3.499-5.326,0.79-5.326s-3.866,5.326,1.129,5.326"/>
				<path style="fill:none;stroke:#000000;stroke-width:0.5;stroke-miterlimit:1;" d="M25.141,117.131
					c5.135,0,3.499-5.326,0.79-5.326c-2.708,0-3.866,5.326,1.129,5.326"/>
				<path style="fill:none;stroke:#000000;stroke-width:0.5;stroke-miterlimit:1;" d="M27.061,117.131
					c5.136,0,3.499-5.326,0.79-5.326c-2.708,0-3.866,5.326,1.129,5.326"/>
				<path style="fill:none;stroke:#000000;stroke-width:0.5;stroke-miterlimit:1;" d="M28.98,117.131
					c5.135,0,3.499-5.326,0.79-5.326c-2.708,0-3.866,5.326,1.129,5.326"/>
				<path style="fill:none;stroke:#000000;stroke-width:0.5;stroke-miterlimit:1;" d="M30.9,117.131c5.135,0,3.499-5.326,0.79-5.326
					c-2.709,0-3.866,5.326,1.128,5.326"/>
				<path style="fill:none;stroke:#000000;stroke-width:0.5;stroke-miterlimit:1;" d="M32.819,117.131
					c5.135,0,3.499-5.326,0.79-5.326c-2.709,0-3.866,5.326,1.128,5.326"/>
				<path style="fill:none;stroke:#000000;stroke-width:0.5;stroke-miterlimit:1;" d="M34.739,117.131
					c5.136,0,3.499-5.326,0.79-5.326s-3.866,5.326,1.129,5.326"/>
				<path style="fill:none;stroke:#000000;stroke-width:0.5;stroke-miterlimit:1;" d="M36.658,117.131
					c5.136,0,3.499-5.326,0.79-5.326s-3.866,5.326,1.129,5.326"/>
				<path style="fill:none;stroke:#000000;stroke-width:0.5;stroke-miterlimit:1;" d="M38.578,117.131
					c5.136,0,3.499-5.326,0.79-5.326c-2.708,0-3.865,5.326,1.129,5.326"/>
				<path style="fill:none;stroke:#000000;stroke-width:0.5;stroke-miterlimit:1;" d="M40.497,117.131
					c5.136,0,3.499-5.326,0.791-5.326c-2.709,0-3.866,5.326,1.128,5.326"/>
				<path style="fill:none;stroke:#000000;stroke-width:0.5;stroke-miterlimit:1;" d="M42.417,117.131
					c5.135,0,3.499-5.326,0.79-5.326s-3.866,5.326,1.128,5.326"/>
				<path style="fill:none;stroke:#000000;stroke-width:0.5;stroke-miterlimit:1;" d="M44.336,117.131
					c5.135,0,3.499-5.326,0.79-5.326s-3.866,5.326,1.128,5.326"/>
				<path style="fill:none;stroke:#000000;stroke-width:0.5;stroke-miterlimit:1;" d="M46.256,117.131
					c5.136,0,3.499-5.326,0.79-5.326c-2.708,0-3.866,5.326,1.129,5.326"/>
				<path style="fill:none;stroke:#000000;stroke-width:0.5;stroke-miterlimit:1;" d="M48.175,117.131
					c5.136,0,3.499-5.326,0.79-5.326c-2.708,0-3.866,5.326,1.129,5.326"/>
			</g>
			
				<radialGradient id="XMLID_10_" cx="139.8662" cy="-8.8457" r="13.6015" fx="139.8662" fy="-8.8457" gradientTransform="matrix(0.855 0 0 0.855 -58.5275 117.7913)" gradientUnits="userSpaceOnUse">
				<stop  offset="0" style="stop-color:#F7F7F7"/>
				<stop  offset="0.0381" style="stop-color:#EEEEEE"/>
				<stop  offset="0.1874" style="stop-color:#CDCDCD"/>
				<stop  offset="0.3366" style="stop-color:#ABABAB"/>
				<stop  offset="0.4823" style="stop-color:#888888"/>
				<stop  offset="0.6236" style="stop-color:#666666"/>
				<stop  offset="0.7595" style="stop-color:#454545"/>
				<stop  offset="0.8877" style="stop-color:#232323"/>
				<stop  offset="1" style="stop-color:#000000"/>
				<midPointStop  offset="0" style="stop-color:#F7F7F7"/>
				<midPointStop  offset="0.32" style="stop-color:#F7F7F7"/>
				<midPointStop  offset="1" style="stop-color:#000000"/>
			</radialGradient>
			<circle style="fill:url(#XMLID_10_);" cx="58.456" cy="114.468" r="8.464"/> 
		</g>
		<g>
			<g>
				<path style="fill:none;stroke:#000000;stroke-width:0.5;stroke-miterlimit:1;" d="M17.308,152.466
					c-4.597,0-3.775-5.327-1.282-5.327s3.655,5.327-1.072,5.327h-1.396"/>
				<path style="fill:none;stroke:#000000;stroke-width:0.5;stroke-miterlimit:1;" d="M17.31,152.466
					c4.727,0,3.565-5.327,1.072-5.327c-2.494,0-3.315,5.327,1.282,5.327"/>
				<path style="fill:none;stroke:#000000;stroke-width:0.5;stroke-miterlimit:1;" d="M19.666,152.466
					c4.727,0,3.565-5.327,1.072-5.327s-3.315,5.327,1.282,5.327"/>
				<path style="fill:none;stroke:#000000;stroke-width:0.5;stroke-miterlimit:1;" d="M22.021,152.466
					c4.727,0,3.565-5.327,1.072-5.327c-2.494,0-3.315,5.327,1.282,5.327"/>
				<path style="fill:none;stroke:#000000;stroke-width:0.5;stroke-miterlimit:1;" d="M24.377,152.466
					c4.727,0,3.565-5.327,1.072-5.327s-3.315,5.327,1.282,5.327"/>
				<path style="fill:none;stroke:#000000;stroke-width:0.5;stroke-miterlimit:1;" d="M26.733,152.466
					c4.727,0,3.565-5.327,1.072-5.327c-2.494,0-3.315,5.327,1.282,5.327"/>
				<path style="fill:none;stroke:#000000;stroke-width:0.5;stroke-miterlimit:1;" d="M29.088,152.466
					c4.727,0,3.565-5.327,1.072-5.327c-2.493,0-3.315,5.327,1.282,5.327"/>
				<path style="fill:none;stroke:#000000;stroke-width:0.5;stroke-miterlimit:1;" d="M31.444,152.466
					c4.727,0,3.565-5.327,1.072-5.327c-2.494,0-3.315,5.327,1.282,5.327"/>
				<path style="fill:none;stroke:#000000;stroke-width:0.5;stroke-miterlimit:1;" d="M33.8,152.466
					c4.727,0,3.565-5.327,1.072-5.327c-2.493,0-3.314,5.327,1.282,5.327"/>
				<path style="fill:none;stroke:#000000;stroke-width:0.5;stroke-miterlimit:1;" d="M36.156,152.466
					c4.727,0,3.565-5.327,1.072-5.327s-3.315,5.327,1.282,5.327"/>
				<path style="fill:none;stroke:#000000;stroke-width:0.5;stroke-miterlimit:1;" d="M38.511,152.466
					c4.727,0,3.565-5.327,1.072-5.327c-2.493,0-3.314,5.327,1.282,5.327"/>
				<path style="fill:none;stroke:#000000;stroke-width:0.5;stroke-miterlimit:1;" d="M40.867,152.466
					c4.727,0,3.565-5.327,1.072-5.327s-3.315,5.327,1.282,5.327"/>
				<path style="fill:none;stroke:#000000;stroke-width:0.5;stroke-miterlimit:1;" d="M43.223,152.466
					c4.727,0,3.565-5.327,1.072-5.327c-2.494,0-3.315,5.327,1.282,5.327"/>
				<path style="fill:none;stroke:#000000;stroke-width:0.5;stroke-miterlimit:1;" d="M45.579,152.466
					c4.727,0,3.565-5.327,1.072-5.327s-3.315,5.327,1.282,5.327"/>
				<path style="fill:none;stroke:#000000;stroke-width:0.5;stroke-miterlimit:1;" d="M47.934,152.466
					c4.727,0,3.565-5.327,1.072-5.327c-2.493,0-3.314,5.327,1.282,5.327"/>
				<path style="fill:none;stroke:#000000;stroke-width:0.5;stroke-miterlimit:1;" d="M50.29,152.466
					c4.727,0,3.565-5.327,1.072-5.327c-2.493,0-3.315,5.327,1.282,5.327"/>
				<path style="fill:none;stroke:#000000;stroke-width:0.5;stroke-miterlimit:1;" d="M52.646,152.466
					c4.727,0,3.565-5.327,1.072-5.327c-2.494,0-3.315,5.327,1.282,5.327"/>
				<path style="fill:none;stroke:#000000;stroke-width:0.5;stroke-miterlimit:1;" d="M55.001,152.466
					c4.727,0,3.565-5.327,1.072-5.327s-3.315,5.327,1.282,5.327"/>
			</g>
			<g>
				<rect y="142.678" style="fill:#D6D6D6;" width="12.953" height="14.249"/> 
				<line style="fill:none;stroke:#7F7F7F;" x1="13.316" y1="142.749" x2="13.316" y2="156.856"/>
			</g>
			
				<radialGradient id="XMLID_11_" cx="139.8662" cy="-8.8457" r="13.6015" fx="139.8662" fy="-8.8457" gradientTransform="matrix(0.855 0 0 0.855 -51.1088 153.126)" gradientUnits="userSpaceOnUse">
				<stop  offset="0" style="stop-color:#F7F7F7"/>
				<stop  offset="0.0381" style="stop-color:#EEEEEE"/>
				<stop  offset="0.1874" style="stop-color:#CDCDCD"/>
				<stop  offset="0.3366" style="stop-color:#ABABAB"/>
				<stop  offset="0.4823" style="stop-color:#888888"/>
				<stop  offset="0.6236" style="stop-color:#666666"/>
				<stop  offset="0.7595" style="stop-color:#454545"/>
				<stop  offset="0.8877" style="stop-color:#232323"/>
				<stop  offset="1" style="stop-color:#000000"/>
				<midPointStop  offset="0" style="stop-color:#F7F7F7"/>
				<midPointStop  offset="0.32" style="stop-color:#F7F7F7"/>
				<midPointStop  offset="1" style="stop-color:#000000"/>
			</radialGradient>
			<circle style="fill:url(#XMLID_11_);" cx="65.875" cy="149.802" r="8.464"/> 
		</g>
		<g>
			<g>
				<g>
					<path style="fill:none;stroke:#000000;stroke-width:0.5;stroke-miterlimit:1;" d="M18.441,187.8
						c-5.675,0-5.027-5.327-1.949-5.327s4.149,5.327-1.687,5.327h-1.504"/>
					<path style="fill:none;stroke:#000000;stroke-width:0.5;stroke-miterlimit:1;" d="M18.441,187.8
						c5.836,0,4.765-5.327,1.687-5.327c-3.079,0-3.727,5.327,1.949,5.327"/>
					<path style="fill:none;stroke:#000000;stroke-width:0.5;stroke-miterlimit:1;" d="M22.077,187.8
						c5.836,0,4.765-5.327,1.687-5.327s-3.727,5.327,1.949,5.327"/>
					<path style="fill:none;stroke:#000000;stroke-width:0.5;stroke-miterlimit:1;" d="M25.712,187.8
						c5.835,0,4.765-5.327,1.687-5.327s-3.727,5.327,1.949,5.327"/>
					<path style="fill:none;stroke:#000000;stroke-width:0.5;stroke-miterlimit:1;" d="M29.348,187.8
						c5.836,0,4.765-5.327,1.687-5.327s-3.727,5.327,1.949,5.327"/>
					<path style="fill:none;stroke:#000000;stroke-width:0.5;stroke-miterlimit:1;" d="M32.983,187.8
						c5.836,0,4.765-5.327,1.687-5.327s-3.727,5.327,1.949,5.327"/>
					<path style="fill:none;stroke:#000000;stroke-width:0.5;stroke-miterlimit:1;" d="M36.619,187.8
						c5.835,0,4.765-5.327,1.687-5.327s-3.727,5.327,1.949,5.327"/>
					<path style="fill:none;stroke:#000000;stroke-width:0.5;stroke-miterlimit:1;" d="M40.254,187.8
						c5.836,0,4.765-5.327,1.687-5.327s-3.727,5.327,1.949,5.327"/>
					<path style="fill:none;stroke:#000000;stroke-width:0.5;stroke-miterlimit:1;" d="M43.89,187.8
						c5.835,0,4.765-5.327,1.687-5.327s-3.727,5.327,1.949,5.327"/>
					<path style="fill:none;stroke:#000000;stroke-width:0.5;stroke-miterlimit:1;" d="M47.525,187.8
						c5.836,0,4.765-5.327,1.687-5.327c-3.078,0-3.726,5.327,1.949,5.327"/>
					<path style="fill:none;stroke:#000000;stroke-width:0.5;stroke-miterlimit:1;" d="M51.16,187.8
						c5.836,0,4.765-5.327,1.687-5.327s-3.727,5.327,1.949,5.327"/>
					<path style="fill:none;stroke:#000000;stroke-width:0.5;stroke-miterlimit:1;" d="M54.796,187.8
						c5.835,0,4.765-5.327,1.687-5.327s-3.727,5.327,1.949,5.327"/>
					<path style="fill:none;stroke:#000000;stroke-width:0.5;stroke-miterlimit:1;" d="M58.431,187.8
						c5.836,0,4.765-5.327,1.687-5.327c-3.078,0-3.726,5.327,1.949,5.327"/>
					<path style="fill:none;stroke:#000000;stroke-width:0.5;stroke-miterlimit:1;" d="M62.066,187.8
						c5.836,0,4.765-5.327,1.687-5.327s-3.727,5.327,1.949,5.327"/>
					<path style="fill:none;stroke:#000000;stroke-width:0.5;stroke-miterlimit:1;" d="M65.702,187.8
						c5.835,0,4.765-5.327,1.687-5.327s-3.727,5.327,1.949,5.327"/>
					<path style="fill:none;stroke:#000000;stroke-width:0.5;stroke-miterlimit:1;" d="M69.337,187.8
						c5.836,0,4.765-5.327,1.687-5.327c-3.079,0-3.727,5.327,1.949,5.327"/>
					<path style="fill:none;stroke:#000000;stroke-width:0.5;stroke-miterlimit:1;" d="M72.973,187.8
						c5.836,0,4.765-5.327,1.687-5.327s-3.727,5.327,1.949,5.327"/>
					<path style="fill:none;stroke:#000000;stroke-width:0.5;stroke-miterlimit:1;" d="M76.608,187.8
						c5.835,0,4.765-5.327,1.687-5.327s-3.727,5.327,1.949,5.327"/>
				</g>
				<g>
					<rect y="178.013" style="fill:#D6D6D6;" width="12.953" height="14.249"/> 
					<line style="fill:none;stroke:#7F7F7F;" x1="13.316" y1="192.191" x2="13.316" y2="178.083"/>
				</g>
			</g>
			
				<radialGradient id="XMLID_12_" cx="139.8662" cy="-8.8457" r="13.6015" fx="139.8662" fy="-8.8457" gradientTransform="matrix(0.855 0 0 0.855 -28.7543 188.4607)" gradientUnits="userSpaceOnUse">
				<stop  offset="0" style="stop-color:#F7F7F7"/>
				<stop  offset="0.0381" style="stop-color:#EEEEEE"/>
				<stop  offset="0.1874" style="stop-color:#CDCDCD"/>
				<stop  offset="0.3366" style="stop-color:#ABABAB"/>
				<stop  offset="0.4823" style="stop-color:#888888"/>
				<stop  offset="0.6236" style="stop-color:#666666"/>
				<stop  offset="0.7595" style="stop-color:#454545"/>
				<stop  offset="0.8877" style="stop-color:#232323"/>
				<stop  offset="1" style="stop-color:#000000"/>
				<midPointStop  offset="0" style="stop-color:#F7F7F7"/>
				<midPointStop  offset="0.32" style="stop-color:#F7F7F7"/>
				<midPointStop  offset="1" style="stop-color:#000000"/>
			</radialGradient>
			<circle style="fill:url(#XMLID_12_);" cx="88.229" cy="185.137" r="8.464"/> 
		</g>
		<g>
			<line style="fill:none;stroke:#000000;" x1="81.755" y1="61.466" x2="63.8" y2="61.466"/>
			<path d="M61.22,61.466c1.214-0.45,2.72-1.219,3.653-2.033l-0.735,2.033l0.735,2.033C63.94,62.685,62.434,61.916,61.22,61.466z"/>
		</g>
		<g>
			<line style="fill:none;stroke:#000000;" x1="60.599" y1="167.47" x2="78.554" y2="167.47"/>
			<path d="M81.134,167.47c-1.214,0.45-2.721,1.219-3.654,2.033l0.735-2.033l-0.735-2.033C78.413,166.25,79.92,167.02,81.134,167.47
				z"/>
		</g>
		<g>
			<line style="fill:none;stroke:#000000;" x1="51.815" y1="132.135" x2="54.808" y2="132.135"/>
			<path d="M57.388,132.135c-1.214,0.451-2.72,1.219-3.654,2.033l0.735-2.033l-0.735-2.032
				C54.667,130.916,56.174,131.685,57.388,132.135z"/>
		</g>
		<g>
			<line style="fill:none;stroke:#000000;" x1="57.596" y1="96.801" x2="54.604" y2="96.801"/>
			<path d="M52.024,96.801c1.214-0.451,2.72-1.219,3.654-2.033l-0.735,2.033l0.735,2.032C54.744,98.02,53.238,97.251,52.024,96.801z
				"/>
		</g>
		<line style="fill:#FFFFFF;stroke:#000000;stroke-width:0.5;" x1="127.069" y1="1.344" x2="130.917" y2="1.344"/>
		<line style="fill:#FFFFFF;stroke:#000000;stroke-width:0.5;" x1="127.924" y1="15.024" x2="131.772" y2="15.024"/>
		<line style="fill:#FFFFFF;stroke:#000000;stroke-width:0.5;" x1="130.917" y1="6.474" x2="138.612" y2="6.474"/>
		<line style="fill:#FFFFFF;stroke:#000000;stroke-width:0.5;" x1="131.772" y1="10.749" x2="135.619" y2="10.749"/>
		<g>
			<text transform="matrix(1 0 0 1 86.8662 64.1543)"><tspan x="0" y="0" style="font-family:Liberation Sans; font-size:7.650000;">d=&#x2013;5 cm</tspan></text>
		</g>
		<g>
			<text transform="matrix(1 0 0 1 62.2812 99.9741)"><tspan x="0" y="0" style="font-family:Liberation Sans; font-size:7.650000;">d=&#x2013;2 cm</tspan></text>
		</g>
		<g>
			<text transform="matrix(1 0 0 1 62.0312 135.2241)"><tspan x="0" y="0" style="font-family:Liberation Sans; font-size:7.650000;">d=2 cm</tspan></text>
		</g>
		<g>
			<text transform="matrix(1 0 0 1 86.2812 170.2241)"><tspan x="0" y="0" style="font-family:Liberation Sans; font-size:7.650000;">d=5 cm</tspan></text>
		</g>
	</g>
</svg>
