<?xml version="1.0" encoding="iso-8859-1"?>
<!-- Generator: Adobe Illustrator 11 Build 196, SVG Export Plug-In . SVG Version: 6.0.0 Build 78)  -->
<!DOCTYPE svg PUBLIC "-//W3C//DTD SVG 1.0//EN"    "http://www.w3.org/TR/2001/REC-SVG-20010904/DTD/svg10.dtd" [
	<!ENTITY ns_flows "http://ns.adobe.com/Flows/1.0/">
	<!ENTITY ns_svg "http://www.w3.org/2000/svg">
	<!ENTITY ns_xlink "http://www.w3.org/1999/xlink">
]>
<svg  
	 width="147.401" height="91.601" viewBox="0 0 147.401 91.601" style="overflow:visible;enable-background:new 0 0 147.401 91.601"
	 xml:space="preserve">
	<style type="text/css">
	
	</style>
	<g id="Layer_1">
		<path style="fill:#B3571B;stroke:#000000;stroke-width:0.5;" d="M131.463,39.076c-13.066-13.039-34.3-21.523-58.278-21.523
			c-23.979,0-45.212,8.484-58.278,21.523H131.463z"/>
		<path style="fill:#B3571B;" d="M131.463,39.926c-13.066-13.039-34.3-21.522-58.278-21.522c-23.979,0-45.212,8.484-58.278,21.522
			H131.463z"/>
		<circle style="stroke:#000000;stroke-width:0.3;" cx="73.185" cy="13.25" r="4.243"/> 
		<circle style="stroke:#000000;stroke-width:0.3;" cx="73.185" cy="75.708" r="4.243"/> 
		<path style="fill:#B3571B;stroke:#000000;stroke-width:0.5;" d="M135.123,62.75h-9.153
			c-13.154,10.461-32.122,17.034-53.222,17.034S32.68,73.211,19.526,62.75h-8.278v28h123.875V62.75z"/>
		<path style="fill:#B3571B;" d="M135.123,63.601h-9.153c-13.154,10.461-32.122,17.034-53.222,17.034S32.68,74.062,19.526,63.601
			h-8.278v28h123.875V63.601z"/>
		<g>
			<g>
				<text transform="matrix(1 0 0 1 79.5757 9)"><tspan x="0" y="0" style="font-family:Liberation Sans; font-size:7.650000;">unstable</tspan></text>
			</g>
		</g>
		<g>
			<g>
				<text transform="matrix(1 0 0 1 75.0757 67.75)"><tspan x="0" y="0" style="font-family:Liberation Sans; font-size:7.650000;">stable</tspan></text>
			</g>
		</g>
		<rect y="47.458" style="fill:none;" width="147.401" height="2.835"/> 
	</g>
</svg>
