<?xml version="1.0" encoding="UTF-8" standalone="no"?>
<!-- Created with Inkscape (http://www.inkscape.org/) -->

<svg
   xmlns:dc="http://purl.org/dc/elements/1.1/"
   xmlns:cc="http://creativecommons.org/ns#"
   xmlns:rdf="http://www.w3.org/1999/02/22-rdf-syntax-ns#"
   xmlns:svg="http://www.w3.org/2000/svg"
   xmlns="http://www.w3.org/2000/svg"
   xmlns:sodipodi="http://sodipodi.sourceforge.net/DTD/sodipodi-0.dtd"
   xmlns:inkscape="http://www.inkscape.org/namespaces/inkscape"
   width="113.00000mm"
   height="55.000000mm"
   id="svg343"
   sodipodi:version="0.32"
   sodipodi:docname="swing-rock-simple.svg"
   version="1.1">
  <metadata
     id="metadata7" />
  <metadata
     id="metadata6" />
  <metadata
     id="metadata345" />
  <defs
     id="defs3" />
  <sodipodi:namedview
     id="base"
     pagecolor="#ffffff"
     bordercolor="#666666"
     borderopacity="1.0"
     inkscape:pageopacity="0.0"
     inkscape:pageshadow="2"
     inkscape:zoom="1.417361"
     inkscape:cx="149.34797"
     inkscape:cy="185.53259"
     inkscape:current-layer="layer1"
     inkscape:window-width="1280"
     inkscape:window-height="998"
     inkscape:window-x="0"
     inkscape:window-y="0"
     showgrid="false"
     inkscape:window-maximized="1" />
  <metadata
     id="metadata4">
    <rdf:RDF>
      <cc:Work
         rdf:about="">
        <dc:format>image/svg+xml</dc:format>
        <dc:type
           rdf:resource="http://purl.org/dc/dcmitype/StillImage" />
      </cc:Work>
    </rdf:RDF>
  </metadata>
  <g
     inkscape:label="Layer 1"
     inkscape:groupmode="layer"
     id="layer1">
    <rect
       style="fill:#e0e0e0;fill-opacity:1.0000000"
       id="rect346"
       width="197.26569"
       height="194.75888"
       x="0.011356761"
       y="0.18931358" />
    <circle
       style="fill:none;stroke:#000000;stroke-width:0.50000000"
       cx="55.383999"
       cy="55.383999"
       r="55.133999"
       id="circle4"
       sodipodi:cx="55.383999"
       sodipodi:cy="55.383999"
       sodipodi:rx="55.133999"
       sodipodi:ry="55.133999"
       transform="matrix(1.622246,0.000000,0.000000,1.622246,13.21639,10.45334)" />
    <line
       style="fill:none;stroke:#000000"
       x1="103.06286"
       y1="100.29978"
       x2="171.85587"
       y2="51.646999"
       id="line40" />
    <path
       style="fill:#7f7f7f"
       d="M 171.89152,56.528332 L 180.17633,55.345715 L 184.91005,43.509807 C 184.91005,43.509807 177.80948,38.776093 173.07414,43.509807 C 168.33880,48.243521 167.15619,51.794618 167.15619,51.794618 L 171.89152,56.528332 z "
       id="path42" />
    <line
       id="line108"
       y2="8.2014294"
       x2="147.84053"
       y1="44.786064"
       x1="173.34802"
       style="fill:none;stroke:#000000;stroke-width:0.80000001;stroke-miterlimit:4;stroke-dasharray:2.40000004,2.40000004;stroke-dashoffset:0" />
    <path
       inkscape:connector-curvature="0"
       id="path110"
       d="m 145.28933,4.565593 c 1.22642,0.8516792 2.94762,1.7698704 4.33464,2.117031 l -2.40903,0.645654 -1.43893,2.0375409 c 0.15411,-1.4210875 -0.11194,-3.3548047 -0.48668,-4.8002259 z" />
    <g
       id="g422"
       transform="matrix(1.046610,0.000000,0.000000,1.046610,-19.07418,-7.519975)">
      <path
         style="fill:none;fill-opacity:0.75000000;fill-rule:evenodd;stroke:#000000;stroke-width:0.50000000;stroke-linecap:butt;stroke-linejoin:miter;stroke-miterlimit:4.0000000;stroke-opacity:1.0000000"
         d="M 94.440681,119.94435 C 97.250135,119.27008 99.272943,118.59581 101.07099,118.59581 C 102.86904,118.59581 106.57752,119.15770 107.58893,119.15770 C 108.60033,119.15770 113.09546,118.93294 115.23064,118.37105 C 117.36583,117.80916 120.28766,117.92154 121.07431,116.23587 C 121.86096,114.55019 121.97333,111.62836 121.97333,111.62836 C 121.97333,111.62836 120.17528,113.20166 119.05150,113.08928 C 117.92772,112.97690 116.80394,112.52739 116.57918,111.17885 C 116.35442,109.83031 116.24205,109.60555 116.24205,109.60555 L 112.87070,110.95409 L 107.81368,111.51598 L 106.35277,110.27982 L 101.29575,110.61696 L 101.07099,108.25702 L 100.39672,106.57134 L 100.39672,106.57134"
         id="path262" />
      <path
         style="fill:none;fill-opacity:0.75000000;fill-rule:evenodd;stroke:#000000;stroke-width:0.50000000;stroke-linecap:butt;stroke-linejoin:miter;stroke-miterlimit:4.0000000;stroke-opacity:1.0000000"
         d="M 122.08571,110.84171 C 122.08571,110.84171 121.63620,106.79610 121.63620,106.23421 C 121.63620,105.67232 122.08571,105.22280 122.08571,105.22280 L 122.75998,103.98664 L 122.87236,102.63811 L 121.63620,100.84006 L 120.51242,99.716275 L 119.72577,99.603897 L 119.38864,100.05341 L 119.38864,100.05341"
         id="path263" />
      <path
         style="fill:none;fill-opacity:0.75000000;fill-rule:evenodd;stroke:#000000;stroke-width:0.50000000;stroke-linecap:butt;stroke-linejoin:miter;stroke-miterlimit:4.0000000;stroke-opacity:1.0000000"
         d="M 118.53866,101.03780 L 119.00276,100.21670 L 120.07377,100.32380 L 120.35937,100.71650 L 121.32328,102.57292 L 121.32328,102.57292 L 121.32328,102.57292"
         id="path264" />
      <path
         style="fill:none;fill-opacity:0.75000000;fill-rule:evenodd;stroke:#000000;stroke-width:0.50000000;stroke-linecap:butt;stroke-linejoin:miter;stroke-miterlimit:4.0000000;stroke-opacity:1.0000000"
         d="M 117.49889,101.82006 L 117.76885,101.22615 L 119.44257,101.33414 L 120.14445,103.22382"
         id="path265" />
      <path
         style="fill:none;fill-opacity:0.75000000;fill-rule:evenodd;stroke:#000000;stroke-width:0.50000000;stroke-linecap:butt;stroke-linejoin:miter;stroke-miterlimit:4.0000000;stroke-opacity:1.0000000"
         d="M 115.77118,102.73790 L 116.52705,103.16983 L 116.41907,105.05952 L 116.41907,105.05952"
         id="path266" />
      <path
         style="fill:none;fill-opacity:0.75000000;fill-rule:evenodd;stroke:#000000;stroke-width:0.50000000;stroke-linecap:butt;stroke-linejoin:miter;stroke-miterlimit:4.0000000;stroke-opacity:1.0000000"
         d="M 118.36275,104.89755 L 118.36275,103.22382 L 117.39091,102.14400 L 115.87916,102.09001 L 115.77118,102.68391"
         id="path267" />
      <path
         style="fill:none;fill-opacity:0.75000000;fill-rule:evenodd;stroke:#000000;stroke-width:0.50000000;stroke-linecap:butt;stroke-linejoin:miter;stroke-miterlimit:4.0000000;stroke-opacity:1.0000000"
         d="M 115.44723,102.95387 L 114.58337,103.06185 L 114.69136,104.68158 L 115.12328,106.51728 L 116.31109,107.32714 L 116.95898,107.54311 L 116.95898,107.54311"
         id="path268" />
      <path
         style="fill:none;fill-opacity:0.75000000;fill-rule:evenodd;stroke:#000000;stroke-width:0.50000000;stroke-linecap:butt;stroke-linejoin:miter;stroke-miterlimit:4.0000000;stroke-opacity:1.0000000"
         d="M 116.20311,107.75907 L 116.14911,109.16284 L 116.04113,109.16284"
         id="path269" />
      <path
         style="fill:none;fill-opacity:0.75000000;fill-rule:evenodd;stroke:#000000;stroke-width:0.50000000;stroke-linecap:butt;stroke-linejoin:miter;stroke-miterlimit:4.0000000;stroke-opacity:1.0000000"
         d="M 78.949273,95.071173 L 76.573667,95.071173 L 74.090078,96.798887 L 74.198060,93.451442 L 73.550167,91.183817 L 72.254382,90.751888 L 68.582989,91.291799 L 67.935097,94.855209 L 67.287204,98.418619 L 67.287204,101.44212 L 67.395186,102.73790"
         id="path270" />
      <path
         style="fill:none;fill-opacity:0.75000000;fill-rule:evenodd;stroke:#000000;stroke-width:0.50000000;stroke-linecap:butt;stroke-linejoin:miter;stroke-miterlimit:4.0000000;stroke-opacity:1.0000000"
         d="M 80.676987,114.72392 L 77.977434,113.75208 L 72.578328,111.48446 L 70.310703,109.54078 L 68.151061,107.16517 L 67.179222,103.92571 L 67.179222,103.06185"
         id="path271" />
      <path
         style="fill:none;fill-opacity:0.75000000;fill-rule:evenodd;stroke:#000000;stroke-width:0.50000000;stroke-linecap:butt;stroke-linejoin:miter;stroke-miterlimit:4.0000000;stroke-opacity:1.0000000"
         d="M 78.085416,101.87405 C 78.085416,101.87405 75.385863,101.33414 74.737970,103.16983 C 74.090078,105.00553 75.061917,106.62526 75.709810,107.48912 C 76.357702,108.35297 76.357702,108.35297 76.357702,108.35297"
         id="path272" />
      <path
         style="fill:none;fill-opacity:0.75000000;fill-rule:evenodd;stroke:#000000;stroke-width:0.50000000;stroke-linecap:butt;stroke-linejoin:miter;stroke-miterlimit:4.0000000;stroke-opacity:1.0000000"
         d="M 66.855275,101.87405 C 65.667472,101.44212 65.127562,102.09001 64.695633,102.95387 C 64.263705,103.81772 64.263705,106.08535 64.803615,106.94921 C 65.343526,107.81306 66.639311,109.54078 69.770793,111.91638 C 72.902274,114.29199 75.061917,115.80374 75.817792,115.80374 C 76.573667,115.80374 77.869452,115.47979 78.193398,114.50796 C 78.517345,113.53612 78.517345,113.96804 78.517345,113.96804 L 78.517345,113.96804 L 78.517345,113.96804"
         id="path273" />
      <path
         style="fill:none;fill-opacity:0.75000000;fill-rule:evenodd;stroke:#000000;stroke-width:0.50000000;stroke-linecap:butt;stroke-linejoin:miter;stroke-miterlimit:4.0000000;stroke-opacity:1.0000000"
         d="M 68.798954,90.859871 L 69.662811,88.592246 L 70.958596,87.188478 L 72.686310,87.512425 L 74.414024,88.052335 L 75.277881,88.592246 L 74.845953,89.996014 L 74.306042,91.183817 L 74.306042,91.183817"
         id="path275" />
      <path
         style="fill:none;fill-opacity:0.75000000;fill-rule:evenodd;stroke:#000000;stroke-width:0.50000000;stroke-linecap:butt;stroke-linejoin:miter;stroke-miterlimit:4.0000000;stroke-opacity:1.0000000"
         d="M 72.038417,87.728389 L 71.282542,88.700228 L 71.066578,88.916192"
         id="path276" />
      <path
         style="fill:none;fill-opacity:0.75000000;fill-rule:evenodd;stroke:#000000;stroke-width:0.50000000;stroke-linecap:butt;stroke-linejoin:miter;stroke-miterlimit:4.0000000;stroke-opacity:1.0000000"
         d="M 73.226221,88.052335 L 72.794292,89.132157"
         id="path277" />
      <path
         style="fill:none;fill-opacity:0.75000000;fill-rule:evenodd;stroke:#000000;stroke-width:0.50000000;stroke-linecap:butt;stroke-linejoin:miter;stroke-miterlimit:4.0000000;stroke-opacity:1.0000000"
         d="M 73.982096,88.376282 L 73.766131,89.024174"
         id="path278" />
      <path
         style="fill:none;fill-opacity:0.75000000;fill-rule:evenodd;stroke:#000000;stroke-width:0.50000000;stroke-linecap:butt;stroke-linejoin:miter;stroke-miterlimit:4.0000000;stroke-opacity:1.0000000"
         d="M 81.972773,93.451442 C 81.972773,93.451442 79.921112,93.235477 78.949273,97.554762 C 77.977434,101.87405 77.977434,101.87405 77.977434,101.87405"
         id="path279" />
      <path
         style="fill:none;fill-opacity:0.75000000;fill-rule:evenodd;stroke:#000000;stroke-width:0.50000000;stroke-linecap:butt;stroke-linejoin:miter;stroke-miterlimit:4.0000000;stroke-opacity:1.0000000"
         d="M 82.188737,94.531263 C 80.784969,97.122834 77.113577,103.27781 77.437524,108.02903 C 77.761470,112.78024 77.545506,109.86472 77.545506,109.86472 L 77.545506,109.86472 L 77.545506,109.86472"
         id="path280" />
      <path
         style="fill:none;fill-opacity:0.75000000;fill-rule:evenodd;stroke:#000000;stroke-width:0.50000000;stroke-linecap:butt;stroke-linejoin:miter;stroke-miterlimit:4.0000000;stroke-opacity:1.0000000"
         d="M 83.484522,95.611084 C 80.784969,100.47028 79.273220,100.68624 79.273220,103.70974 C 79.273220,106.73324 79.381202,111.91638 79.381202,111.91638 L 79.381202,111.91638 L 79.381202,111.91638"
         id="path281" />
      <path
         style="fill:none;fill-opacity:0.75000000;fill-rule:evenodd;stroke:#000000;stroke-width:0.50000000;stroke-linecap:butt;stroke-linejoin:miter;stroke-miterlimit:4.0000000;stroke-opacity:1.0000000"
         d="M 84.672326,100.03835 C 81.756809,105.32947 80.892952,108.67692 80.892952,111.48446 C 80.892952,114.29199 80.892952,114.29199 80.892952,114.29199"
         id="path282" />
      <path
         style="fill:none;fill-opacity:0.75000000;fill-rule:evenodd;stroke:#000000;stroke-width:0.50000000;stroke-linecap:butt;stroke-linejoin:miter;stroke-miterlimit:4.0000000;stroke-opacity:1.0000000"
         d="M 85.968111,103.49378 C 83.700487,107.48912 83.160576,109.10885 83.160576,111.59244 C 83.160576,114.07603 82.728648,116.23567 82.728648,116.23567"
         id="path283" />
      <path
         style="fill:none;fill-opacity:0.75000000;fill-rule:evenodd;stroke:#000000;stroke-width:0.50000000;stroke-linecap:butt;stroke-linejoin:miter;stroke-miterlimit:4.0000000;stroke-opacity:1.0000000"
         d="M 88.019772,107.81306 C 86.831968,112.88822 85.428201,117.74742 85.428201,117.74742"
         id="path284" />
      <path
         style="fill:none;fill-opacity:0.75000000;fill-rule:evenodd;stroke:#000000;stroke-width:0.50000000;stroke-linecap:butt;stroke-linejoin:miter;stroke-miterlimit:4.0000000;stroke-opacity:1.0000000"
         d="M 87.155915,105.00553 C 84.780308,110.94454 84.132415,116.45163 84.024433,117.53145 C 83.916451,118.61128 83.808469,118.71926 83.808469,118.71926"
         id="path285" />
      <path
         style="fill:none;fill-opacity:0.75000000;fill-rule:evenodd;stroke:#000000;stroke-width:0.50000000;stroke-linecap:butt;stroke-linejoin:miter;stroke-miterlimit:4.0000000;stroke-opacity:1.0000000"
         d="M 89.747486,108.67692 C 88.559682,116.12769 87.695825,120.77092 87.695825,120.77092"
         id="path286" />
      <path
         style="fill:none;fill-opacity:0.75000000;fill-rule:evenodd;stroke:#000000;stroke-width:0.50000000;stroke-linecap:butt;stroke-linejoin:miter;stroke-miterlimit:4.0000000;stroke-opacity:1.0000000"
         d="M 92.231074,109.86472 C 92.447039,115.80374 92.231074,116.12769 92.123092,118.82724 C 92.015110,121.52679 91.691164,120.98688 91.691164,120.98688"
         id="path287" />
      <path
         style="fill:none;fill-opacity:0.75000000;fill-rule:evenodd;stroke:#000000;stroke-width:0.50000000;stroke-linecap:butt;stroke-linejoin:miter;stroke-miterlimit:4.0000000;stroke-opacity:1.0000000"
         d="M 94.390717,110.08069 C 95.902467,114.83190 95.362556,117.53145 95.362556,117.53145"
         id="path288" />
      <path
         style="fill:none;fill-opacity:0.75000000;fill-rule:evenodd;stroke:#000000;stroke-width:0.50000000;stroke-linecap:butt;stroke-linejoin:miter;stroke-miterlimit:4.0000000;stroke-opacity:1.0000000"
         d="M 96.766324,108.89288 C 98.602020,109.75674 98.170091,111.59244 98.170091,111.59244"
         id="path289" />
      <path
         style="fill:none;fill-opacity:0.75000000;fill-rule:evenodd;stroke:#000000;stroke-width:0.50000000;stroke-linecap:butt;stroke-linejoin:miter;stroke-miterlimit:4.0000000;stroke-opacity:1.0000000"
         d="M 95.686502,109.97271 C 97.090270,112.24033 97.306234,113.86006 97.306234,113.86006"
         id="path290" />
      <path
         style="fill:none;fill-opacity:0.75000000;fill-rule:evenodd;stroke:#000000;stroke-width:0.50000000;stroke-linecap:butt;stroke-linejoin:miter;stroke-miterlimit:4.0000000;stroke-opacity:1.0000000"
         d="M 96.550359,107.48912 C 98.170091,107.70508 99.465877,109.64876 99.465877,109.64876"
         id="path291" />
      <path
         style="fill:none;fill-opacity:0.75000000;fill-rule:evenodd;stroke:#000000;stroke-width:0.50000000;stroke-linecap:butt;stroke-linejoin:miter;stroke-miterlimit:4.0000000;stroke-opacity:1.0000000"
         d="M 95.362556,105.00553 C 99.249913,105.97737 99.897805,106.62526 99.897805,106.62526"
         id="path292" />
      <path
         style="fill:none;fill-opacity:0.75000000;fill-rule:evenodd;stroke:#000000;stroke-width:0.50000000;stroke-linecap:butt;stroke-linejoin:miter;stroke-miterlimit:4.0000000;stroke-opacity:1.0000000"
         d="M 92.231074,104.24965 C 96.874306,103.92571 99.789823,104.78956 99.789823,104.78956"
         id="path293" />
      <path
         style="fill:none;fill-opacity:0.75000000;fill-rule:evenodd;stroke:#000000;stroke-width:0.50000000;stroke-linecap:butt;stroke-linejoin:miter;stroke-miterlimit:4.0000000;stroke-opacity:1.0000000"
         d="M 90.179414,101.22615 C 95.578520,101.01019 100.00579,102.09001 100.00579,102.09001"
         id="path294" />
      <path
         style="fill:none;fill-opacity:0.75000000;fill-rule:evenodd;stroke:#000000;stroke-width:0.50000000;stroke-linecap:butt;stroke-linejoin:miter;stroke-miterlimit:4.0000000;stroke-opacity:1.0000000"
         d="M 91.475200,103.27781 C 95.038610,102.84589 100.43772,103.49378 100.43772,103.49378"
         id="path295" />
      <path
         style="fill:none;fill-opacity:0.75000000;fill-rule:evenodd;stroke:#000000;stroke-width:0.50000000;stroke-linecap:butt;stroke-linejoin:miter;stroke-miterlimit:4.0000000;stroke-opacity:1.0000000"
         d="M 86.939950,100.47028 C 84.132415,104.14167 81.324880,112.13235 81.216898,114.83190 C 81.108916,117.53145 81.324880,115.37181 81.324880,115.37181"
         id="path296" />
      <path
         style="fill:none;fill-opacity:0.75000000;fill-rule:evenodd;stroke:#000000;stroke-width:0.50000000;stroke-linecap:butt;stroke-linejoin:miter;stroke-miterlimit:4.0000000;stroke-opacity:1.0000000"
         d="M 88.991611,99.714405 C 92.555021,98.526601 97.522199,98.418619 99.033948,98.958530 C 100.54570,99.498440 100.54570,99.498440 100.54570,99.498440"
         id="path297" />
      <path
         style="fill:none;fill-opacity:0.75000000;fill-rule:evenodd;stroke:#000000;stroke-width:0.50000000;stroke-linecap:butt;stroke-linejoin:miter;stroke-miterlimit:4.0000000;stroke-opacity:1.0000000"
         d="M 88.235736,97.122834 C 92.770985,95.827048 95.686502,96.474941 96.874306,96.690905 C 98.062109,96.906869 98.062109,96.906869 98.062109,96.906869"
         id="path298" />
      <path
         style="fill:none;fill-opacity:0.75000000;fill-rule:evenodd;stroke:#000000;stroke-width:0.50000000;stroke-linecap:butt;stroke-linejoin:miter;stroke-miterlimit:4.0000000;stroke-opacity:1.0000000"
         d="M 87.371879,94.855209 C 90.827307,93.775388 95.578520,94.639245 95.578520,94.639245 L 95.578520,94.639245"
         id="path299" />
      <path
         style="fill:none;fill-opacity:0.75000000;fill-rule:evenodd;stroke:#000000;stroke-width:0.50000000;stroke-linecap:butt;stroke-linejoin:miter;stroke-miterlimit:4.0000000;stroke-opacity:1.0000000"
         d="M 85.320219,93.127495 C 87.479861,91.507763 89.639504,91.075835 92.878967,92.263638 C 96.118431,93.451442 96.118431,93.451442 96.118431,93.451442"
         id="path300" />
      <path
         style="fill:none;fill-opacity:0.75000000;fill-rule:evenodd;stroke:#000000;stroke-width:0.50000000;stroke-linecap:butt;stroke-linejoin:miter;stroke-miterlimit:4.0000000;stroke-opacity:1.0000000"
         d="M 83.160576,92.047674 C 84.996272,89.996014 86.616004,88.808210 88.667664,89.456103 C 90.719325,90.103996 91.799146,90.643906 91.799146,90.643906"
         id="path301" />
    </g>
  </g>
</svg>
