<?xml version="1.0" encoding="UTF-8" standalone="no"?>
<!-- Created with Inkscape (http://www.inkscape.org/) -->

<svg
   xmlns:dc="http://purl.org/dc/elements/1.1/"
   xmlns:cc="http://creativecommons.org/ns#"
   xmlns:rdf="http://www.w3.org/1999/02/22-rdf-syntax-ns#"
   xmlns:svg="http://www.w3.org/2000/svg"
   xmlns="http://www.w3.org/2000/svg"
   xmlns:sodipodi="http://sodipodi.sourceforge.net/DTD/sodipodi-0.dtd"
   xmlns:inkscape="http://www.inkscape.org/namespaces/inkscape"
   width="744.09448819"
   height="1052.3622047"
   id="svg2"
   version="1.1"
   sodipodi:docname="tension-is-not-a-type-of-force.svg">
  <defs
     id="defs4" />
  <sodipodi:namedview
     id="base"
     pagecolor="#ffffff"
     bordercolor="#666666"
     borderopacity="1.0"
     inkscape:pageopacity="0.0"
     inkscape:pageshadow="2"
     inkscape:zoom="1.8175442"
     inkscape:cx="234.05812"
     inkscape:cy="312.97765"
     inkscape:document-units="mm"
     inkscape:current-layer="layer1"
     showgrid="false"
     inkscape:window-width="1280"
     inkscape:window-height="996"
     inkscape:window-x="0"
     inkscape:window-y="0"
     inkscape:window-maximized="1" />
  <metadata
     id="metadata7">
    <rdf:RDF>
      <cc:Work
         rdf:about="">
        <dc:format>image/svg+xml</dc:format>
        <dc:type
           rdf:resource="http://purl.org/dc/dcmitype/StillImage" />
        <dc:title />
      </cc:Work>
    </rdf:RDF>
  </metadata>
  <g
     inkscape:label="Layer 1"
     inkscape:groupmode="layer"
     id="layer1">
    <rect
       style="fill:#dedede;fill-opacity:1;stroke:none"
       id="rect3149"
       width="184.25197"
       height="143.4126"
       x="278.94196"
       y="692.61896" />
    <path
       style="fill:#9c9c9c;fill-opacity:1;stroke:none"
       d="m 433.65625,701.03988 -14.4375,12.75 -1.09375,0.75 c -1.91462,0.8845 -3.81399,1.65846 -4.84375,2.125 -1.92853,0.87375 -7.40532,3.09814 -9.96875,4.46875 -2.56345,1.37061 -7.01976,5.79328 -9.78125,8.625 -2.76149,2.83172 -10.11972,10.2725 -13.15625,11.625 -3.03652,1.3525 -8.04438,4.95976 -14.5,5.28125 -6.45562,0.32151 -7.12524,1.77809 -9.28125,2.40625 -2.15602,0.62816 -3.76071,6.86563 -4.4375,7.21875 -0.67681,0.35312 -4.06637,7.44261 -4.59375,8.84375 -0.52738,1.40114 -5.47757,7.48252 -5.96875,7.9375 -0.46348,0.42931 -3.71094,8.30644 -5.9375,14.0625 l -4.8125,5.15625 c -0.44931,0.27698 -0.88192,0.54153 -1.25,0.75 0.008,0.0237 -0.008,0.0388 0,0.0625 l 0.28125,0.1875 -0.125,0.1875 c 1.74234,5.09284 4.31712,12.13945 7.03125,19.34375 -0.0203,-0.25279 -0.0437,-0.50933 -0.125,-0.78125 l 2.46875,0.3125 c 0.82015,0.37896 1.67902,0.69142 2.46875,0.8125 0.32144,0.0493 0.70991,0.004 1.125,-0.0625 l 0.3125,0.8125 -0.96875,0.375 c 2.4424,3.03086 2.08532,6.10273 5.75,6.90625 3.66469,0.80352 4.30661,1.37926 6.90625,-0.9375 2.49884,-2.22692 4.48108,-3.72131 6.5625,-4.8125 l 3.5,-0.15625 c 3.65674,0.7113 6.24694,0.7803 8.0625,-0.8125 1.42778,-1.25259 2.21541,-1.82433 2.75,-3.375 l 1.78125,-0.78125 c 2.09895,-0.35186 3.32939,-0.59019 3.84375,-1.3125 l 0.0625,0 3.21875,-3.28125 0.0312,-0.1875 c 0.41104,-0.16584 0.8535,-0.32762 1.28125,-0.5625 1.20986,-0.66436 1.07502,-3.31267 0.65625,-4.75 -0.41877,-1.43736 1.15633,-2.98889 1.3125,-4.59375 0.0951,-0.97767 0.70913,-2.31767 1.125,-3.78125 l 0.9375,1.78125 c 0,0 1.27716,0.57867 3.90625,-0.0312 2.6291,-0.61006 2.53581,-1.36452 3.65625,-3.40625 0.55552,-1.01231 0.32782,-2.20705 -0.21875,-3.4375 0.39363,0.28252 3.44085,2.40806 5.875,2.78125 1.9076,0.29247 5.89293,-1.70285 6.84375,-2.9375 0.18132,-0.23544 0.32623,-0.49284 0.4375,-0.75 -0.48063,-2.17193 -1.03125,-4.53125 -1.03125,-4.53125 l -7.5,-8.53125 2.625,-4.96875 c 0,0 11.9876,-3.64195 15.4375,-5.0625 3.44991,-1.42055 10.56439,-5.09527 12.59375,-6.71875 C 434.49811,754.41639 449.5,743.25863 449.5,743.25863 l 0.5625,0.25 -16.875,-41.6875 -2.5625,2.34375 c 1.3159,-1.36041 3.03125,-3.125 3.03125,-3.125 z"
       id="path3050-3"
       inkscape:connector-curvature="0" />
    <path
       style="fill:#ffffff;fill-opacity:1;stroke:none"
       d="m 401.03125,765.88363 c -4.92809,0.17325 -8.54085,2.95465 -10.6875,4.15625 l 1.03125,0.71875 c -6.24046,-0.92202 -10.68962,2.63305 -13.1875,4.03125 l 3.46875,2.34375 c -0.51633,-0.002 -1.03266,0.0372 -1.5625,0.0625 l 1.96875,3.625 0.0937,-0.125 2.59375,3.46875 3,2.46875 1,1.375 0.5,2.09375 -0.46875,3 c 0,0 -0.0801,0.0863 -0.0937,0.0937 l 0.59375,1.09375 c 0,0 1.24591,0.57861 3.875,-0.0312 2.6291,-0.61005 2.56706,-1.39577 3.6875,-3.4375 0.56021,-1.02086 0.33781,-2.19623 -0.21875,-3.4375 0.29282,0.21143 3.39428,2.43217 5.875,2.8125 1.9076,0.29247 5.89292,-1.7341 6.84375,-2.96875 0.87033,-1.13013 0.99172,-2.49501 -0.0937,-4.28125 0.30187,0.2014 0.71949,0.47281 1.1875,0.75 l -1.3125,-2.59375 -0.625,-3.21875 -3.25,-6.3125 c 0,0 0.13986,-2.59735 -1.96875,-5.5625 -0.78651,-0.10218 -1.52158,-0.15061 -2.25,-0.125 z m -61.4375,23.625 c -4.90886,0.19303 -8.45271,3.02029 -10.59375,4.21875 l 1.03125,0.6875 c -6.31124,-0.99412 -10.8279,2.59174 -13.34375,4 l 1.0625,0.75 c -6.33087,-1.01433 -10.82293,2.58897 -13.34375,4 l 1.0625,0.75 c -6.33086,-1.01433 -10.85417,2.5577 -13.375,3.96875 l 0.8125,0.5625 c -4.2091,-0.99633 -5.84451,1.45225 -8.21875,2.78125 l 0.25,0.21875 -0.15625,0 5.84375,21.96875 0.59375,-0.46875 0.28125,1.15625 c 0,0 1.14237,-0.20929 2.3125,-0.5 1.17012,-0.29073 3.02474,-2.86726 3.59375,-4.1875 0.15568,-0.3612 0.1964,-0.83404 0.15625,-1.375 l 1.59375,-1.28125 c 1.12408,0.9309 2.72057,2.03966 4.21875,2.3125 2.58928,0.47156 5.17006,-1.18919 7.21875,-3.625 1.1524,-1.37016 1.04907,-3.16616 -1.125,-5.71875 l 0.96875,0.65625 c 0,0 3.39852,2.47616 6,2.875 1.9076,0.29248 5.89293,-1.73409 6.84375,-2.96875 0.89097,-1.15694 0.95052,-2.52515 -0.21875,-4.375 0.81455,0.56535 3.49487,2.28884 5.6875,2.625 1.9076,0.29247 5.89292,-1.70285 6.84375,-2.9375 0.89097,-1.15694 0.95051,-2.58764 -0.21875,-4.4375 0.81455,0.56535 3.46363,2.32008 5.65625,2.65625 1.90761,0.29246 5.89294,-1.73409 6.84375,-2.96875 0.89354,-1.16025 0.96111,-2.54841 -0.21875,-4.40625 0.81456,0.56535 3.49487,2.28884 5.6875,2.625 1.9076,0.29247 5.86168,-1.73411 6.8125,-2.96875 1.942,-2.52171 0.0626,-6.11837 -10.28125,-13.21875 -3.87895,-2.66264 -7.33594,-3.49081 -10.28125,-3.375 z"
       id="path3050-8"
       inkscape:connector-curvature="0" />
    <path
       style="fill:none;stroke:#000000;stroke-width:0.71270287;stroke-linecap:butt;stroke-linejoin:miter;stroke-miterlimit:4;stroke-opacity:1;stroke-dasharray:none"
       d="m 285.21344,811.00766 c 3.42566,-1.91754 5.26303,-6.13071 15.60688,0.96968 10.34386,7.10039 12.3437,10.80855 10.295,13.24437 -2.04871,2.43581 -4.62685,4.10642 -7.21614,3.63487 -2.58928,-0.47156 -5.63684,-3.56799 -5.63684,-3.56799"
       id="path3050"
       inkscape:connector-curvature="0" />
    <path
       style="fill:none;stroke:#000000;stroke-width:0.71270287;stroke-linecap:butt;stroke-linejoin:miter;stroke-miterlimit:4;stroke-opacity:1;stroke-dasharray:none"
       d="m 292.62058,807.68798 c 3.42566,-1.91754 10.53365,-7.91811 20.87751,-0.81772 10.34386,7.10038 12.237,10.72266 10.29499,13.24436 -0.95082,1.23466 -4.93845,3.25297 -6.84606,2.9605 -2.60148,-0.39884 -6.00691,-2.89361 -6.00691,-2.89361"
       id="path3050-7"
       inkscape:connector-curvature="0"
       sodipodi:nodetypes="csssc" />
    <path
       style="fill:none;stroke:#000000;stroke-width:0.71270287;stroke-linecap:butt;stroke-linejoin:miter;stroke-miterlimit:4;stroke-opacity:1;stroke-dasharray:none"
       d="m 304.91786,802.96125 c 3.42566,-1.91752 10.53364,-7.91809 20.87751,-0.81771 10.34385,7.10039 12.23699,10.72265 10.29499,13.24437 -0.95082,1.23465 -4.93846,3.25295 -6.84606,2.96048 -2.60149,-0.39884 -6.00692,-2.8936 -6.00692,-2.8936"
       id="path3050-7-4"
       inkscape:connector-curvature="0"
       sodipodi:nodetypes="csssc" />
    <path
       style="fill:none;stroke:#000000;stroke-width:0.71270287;stroke-linecap:butt;stroke-linejoin:miter;stroke-miterlimit:4;stroke-opacity:1;stroke-dasharray:none"
       d="m 317.21514,798.23453 c 3.42565,-1.91753 10.53364,-7.9181 20.8775,-0.81772 10.34386,7.10039 12.237,10.72267 10.29499,13.24437 -0.95081,1.23465 -4.93845,3.25296 -6.84605,2.9605 -2.60148,-0.39885 -6.00693,-2.89362 -6.00693,-2.89362"
       id="path3050-7-41"
       inkscape:connector-curvature="0"
       sodipodi:nodetypes="csssc" />
    <path
       style="fill:none;stroke:#000000;stroke-width:0.71270287;stroke-linecap:butt;stroke-linejoin:miter;stroke-miterlimit:4;stroke-opacity:1;stroke-dasharray:none"
       d="m 329.51241,793.50781 c 3.42565,-1.91753 10.53364,-7.91809 20.8775,-0.81771 10.34387,7.10038 12.237,10.72265 10.29499,13.24437 -0.95081,1.23464 -4.93845,3.25296 -6.84605,2.96048 -2.60148,-0.39884 -6.00692,-2.8936 -6.00692,-2.8936"
       id="path3050-7-3"
       inkscape:connector-curvature="0"
       sodipodi:nodetypes="csssc" />
    <path
       style="fill:none;stroke:#000000;stroke-width:0.71270287;stroke-linecap:butt;stroke-linejoin:miter;stroke-miterlimit:4;stroke-opacity:1;stroke-dasharray:none"
       d="m 378.70148,774.60092 c 3.42566,-1.91753 10.53366,-7.9181 20.87752,-0.81772 10.34385,7.10039 12.237,10.72266 10.29499,13.24437 -0.95083,1.23465 -4.93846,3.25297 -6.84607,2.96049 -2.60148,-0.39885 -6.00691,-2.8936 -6.00691,-2.8936"
       id="path3050-7-44"
       inkscape:connector-curvature="0"
       sodipodi:nodetypes="csssc" />
    <path
       style="fill:none;stroke:#000000;stroke-width:0.71270287;stroke-linecap:butt;stroke-linejoin:miter;stroke-miterlimit:4;stroke-opacity:1;stroke-dasharray:none"
       d="m 287.92783,818.43506 c 6.97491,3.4389 8.54359,4.68843 9.04451,5.54634 0.50092,0.85793 1.54285,3.91729 0.97383,5.23751 -0.56902,1.32024 -2.43565,3.87181 -3.60578,4.16253 -1.17012,0.29072 -2.30746,0.5217 -2.30746,0.5217"
       id="path3137"
       inkscape:connector-curvature="0" />
    <path
       style="fill:none;stroke:#000000;stroke-width:0.71270287;stroke-linecap:butt;stroke-linejoin:miter;stroke-miterlimit:4;stroke-opacity:1;stroke-dasharray:none"
       d="m 352.80646,770.41487 c 0.77756,3.20404 2.16059,4.2045 2.70499,6.07305 0.54441,1.86856 -0.0905,2.36541 0.80701,4.91075 0.89753,2.54534 2.71177,3.42018 3.83112,5.12122 1.11933,1.70104 2.5148,1.13854 2.44806,4.12075 -0.0667,2.98222 -0.47984,2.63476 0.72325,4.62327 1.2031,1.98851 1.82559,3.05464 3.78923,4.9775 1.96365,1.92285 1.05936,2.03038 3.87973,2.61207 2.82039,0.5817 6.14439,-0.85455 6.14439,-0.85455 l 0,0"
       id="path3139"
       inkscape:connector-curvature="0" />
    <path
       style="fill:none;stroke:#000000;stroke-width:0.71270287;stroke-linecap:butt;stroke-linejoin:miter;stroke-miterlimit:4;stroke-opacity:1;stroke-dasharray:none"
       d="m 371.12747,762.11426 c 3.45421,3.82761 2.9687,5.37248 2.96194,8.02535 -0.007,2.65287 -1.58217,4.20342 -1.84587,4.90399 -0.26369,0.70056 -0.59304,0.64059 -0.59304,0.64059"
       id="path3141"
       inkscape:connector-curvature="0" />
    <path
       style="fill:none;stroke:#000000;stroke-width:0.71270287;stroke-linecap:butt;stroke-linejoin:miter;stroke-miterlimit:4;stroke-opacity:1;stroke-dasharray:none"
       d="m 370.65679,774.41434 c 0.25127,0.86241 -0.17427,2.07794 0.96317,3.3059 1.13745,1.22795 1.90367,2.25221 2.44808,4.12075 0.5444,1.86855 1.40004,4.27015 1.16013,5.58754 -0.23993,1.31738 -0.5998,3.29346 -0.5998,3.29346 0,0 2.19004,5.91121 2.52505,7.06108 0.33502,1.14988 0.32827,3.80276 0.32827,3.80276"
       id="path3143"
       inkscape:connector-curvature="0" />
    <path
       style="fill:none;stroke:#000000;stroke-width:0.71270287;stroke-linecap:butt;stroke-linejoin:miter;stroke-miterlimit:4;stroke-opacity:1;stroke-dasharray:none"
       d="m 377.04481,800.62156 -6.91627,-1.25958 c 0,0 -2.5556,-5.02504 -1.74073,-6.50992 0.81485,-1.4849 4.30635,-2.34622 4.30635,-2.34622 l 1.17366,0.2818"
       id="path3145"
       inkscape:connector-curvature="0" />
    <path
       style="fill:none;stroke:#000000;stroke-width:0.71270287;stroke-linecap:butt;stroke-linejoin:miter;stroke-miterlimit:4;stroke-opacity:1;stroke-dasharray:none"
       d="m 335.19517,788.64451 c 2.21142,-5.79017 5.86693,-14.65197 6.35812,-15.10695 0.49118,-0.45498 5.41546,-6.56773 5.94283,-7.96887 0.52739,-1.40114 3.92489,-8.47249 4.60169,-8.8256 0.6768,-0.35313 2.28949,-6.5926 4.44551,-7.22075 2.15601,-0.62816 2.82714,-2.07118 9.28276,-2.39268 6.45561,-0.32149 11.47498,-3.96698 14.51151,-5.31949 3.03652,-1.35249 10.3805,-8.79398 13.14199,-11.6257 2.76149,-2.83172 7.24212,-7.25586 9.80557,-8.62647 2.56344,-1.37061 8.00158,-3.57875 9.9301,-4.4525 1.92853,-0.87374 6.97734,-2.81254 9.27141,-4.57247 2.29409,-1.75993 11.12972,-11.03941 11.12972,-11.03941"
       id="path3147"
       inkscape:connector-curvature="0" />
    <path
       style="fill:none;stroke:#000000;stroke-width:0.71270287;stroke-linecap:butt;stroke-linejoin:miter;stroke-miterlimit:4;stroke-opacity:1;stroke-dasharray:none"
       d="m 380.60283,776.9743 c 3.84462,-0.18452 7.42555,0.33152 9.4073,1.78129 1.98174,1.44978 3.5504,2.55211 4.98098,4.78621 1.43058,2.2341 3.50175,5.06124 2.38133,7.10297 -1.12044,2.04172 -1.05479,2.80228 -3.68389,3.41233 -2.62908,0.61006 -3.88649,0.0408 -3.88649,0.0408 l 0,0"
       id="path3161"
       inkscape:connector-curvature="0" />
    <path
       style="fill:none;stroke:#000000;stroke-width:0.71270287;stroke-linecap:butt;stroke-linejoin:miter;stroke-miterlimit:4;stroke-opacity:1;stroke-dasharray:none"
       d="m 345.11852,786.84489 c 2.41972,-1.32873 3.60579,-2.60991 5.80369,-3.09433 2.19789,-0.48443 5.65319,-0.39958 5.65319,-0.39958"
       id="path3163"
       inkscape:connector-curvature="0" />
    <path
       style="fill:none;stroke:#000000;stroke-width:0.71270287;stroke-linecap:butt;stroke-linejoin:miter;stroke-miterlimit:4;stroke-opacity:1;stroke-dasharray:none"
       d="m 342.0144,814.7261 c 2.44239,3.03085 2.08819,6.09682 5.75287,6.90034 3.66468,0.80352 4.30527,1.39655 6.90492,-0.92021 2.59965,-2.31676 4.64814,-3.84921 6.82226,-4.95044 2.17412,-1.10124 4.96505,-2.22625 5.49244,-3.6274 0.52739,-1.40114 1.85263,-7.55685 1.85263,-7.55685"
       id="path3165"
       inkscape:connector-curvature="0" />
    <path
       style="fill:none;stroke:#000000;stroke-width:0.71270287;stroke-linecap:butt;stroke-linejoin:miter;stroke-miterlimit:4;stroke-opacity:1;stroke-dasharray:none"
       d="m 364.43479,815.67879 c 3.80842,0.76164 6.50317,0.91214 8.36604,-0.72217 1.86288,-1.6343 2.64152,-2.17302 3.18135,-5.13715 0.53982,-2.96411 2.83499,-8.4668 3.09869,-9.16737 0.26369,-0.70057 2.57696,-6.67635 2.07443,-8.40116 -0.50252,-1.72481 -0.57951,-4.66515 -1.29143,-7.10864 -0.71191,-2.44349 -2.10629,-5.62375 -2.19572,-7.00111 -0.0894,-1.37737 -0.12453,-4.17397 -0.96884,-4.39578 -0.84431,-0.22183 -3.98268,1.31628 -3.98268,1.31628"
       id="path3167"
       inkscape:connector-curvature="0" />
    <path
       style="fill:none;stroke:#000000;stroke-width:0.71270287;stroke-linecap:butt;stroke-linejoin:miter;stroke-miterlimit:4;stroke-opacity:1;stroke-dasharray:none"
       d="m 377.52333,781.92583 c -1.25173,0.52063 -2.32352,0.0533 -2.32352,0.0533"
       id="path3169"
       inkscape:connector-curvature="0" />
    <path
       style="fill:none;stroke:#000000;stroke-width:0.71270287;stroke-linecap:butt;stroke-linejoin:miter;stroke-miterlimit:4;stroke-opacity:1;stroke-dasharray:none"
       d="m 376.46093,810.92748 c 3.86273,-0.6576 5.09636,-0.70515 5.08502,-2.88494 -0.0114,-2.1798 -0.6395,-4.33581 0.15159,-6.43752 0.79107,-2.10171 0.86349,-3.99403 1.12151,-5.78449 0.25803,-1.79047 0.74353,-3.33535 0.27721,-6.00632 -0.46631,-2.67097 -3.49499,-7.71411 -3.49499,-7.71411"
       id="path3171"
       inkscape:connector-curvature="0" />
    <path
       style="fill:none;stroke:#000000;stroke-width:0.71270287;stroke-linecap:butt;stroke-linejoin:miter;stroke-miterlimit:4;stroke-opacity:1;stroke-dasharray:none"
       d="m 379.5186,778.06986 c 2.51481,1.13853 4.75916,5.63051 5.95659,6.52912 1.19742,0.89862 3.50852,2.40838 3.74735,4.83376 0.23883,2.42538 -1.33091,5.06582 -1.48708,6.67067 -0.15616,1.60486 -1.73157,3.15539 -1.31279,4.59275 0.41877,1.43733 0.55574,4.04833 -0.65412,4.7127 -1.20985,0.66436 -2.64719,1.08313 -2.64719,1.08313"
       id="path3173"
       inkscape:connector-curvature="0" />
    <g
       id="g4001"
       transform="matrix(1.1403246,0,0,1.1403246,-39.142427,-95.547762)">
      <rect
         y="557.19775"
         x="278.94196"
         height="122.28548"
         width="161.57852"
         id="rect3149-8"
         style="fill:#dedede;fill-opacity:1;stroke:none" />
      <path
         id="path3050-9-0"
         d="m 335.84674,554.69744 c -3.35241,0.18602 -3.5304,2.44547 -5.75,4.625 -2.95947,2.90603 -1.72579,7.57479 0.53125,19.09375 2.25703,11.51894 4.79106,19.26459 5.78125,21.6875 0.9902,2.42291 3.25538,3.50672 5.28125,4.3125 2.02585,0.80578 4.5801,-0.0602 9.40625,-1.78125 4.82613,-1.72104 8.39653,-7.43299 11.5625,-13.0625 2.99552,-5.32642 1.87689,-6.3224 -1.125,-9.28125 l -1,-1.4375 -0.9375,0 -1.09375,0.65625 0.6875,3.21875 1.75,2.375 -1.46875,1.375 -1.84375,0.625 c -6.32396,9.43353 -10.62321,12.74197 -13.1875,12.15625 -2.56428,-0.58575 -3.52936,-1.57349 -4.53125,-5.5625 -1.00189,-3.98901 -3.0323,-10.13175 -3.875,-14.5 -0.8427,-4.36824 -3.11665,-15.48555 -2.25,-16.59375 0.86663,-1.10821 2.78728,-2.54115 6,-1.90625 3.21273,0.6349 4.84161,1.43005 5.53125,2.65625 l 0.9375,1.625 0.40625,-0.375 4.125,-3.78125 1.3125,1.96875 -0.28125,-0.53125 c 0,0 0.37377,0.036 -0.40625,-1.71875 -0.77999,-1.75479 -2.86542,-3.33361 -10.9375,-5.25 -2.01802,-0.4791 -3.50753,-0.65576 -4.625,-0.59375 z"
         style="color:#000000;fill:#ffffff;fill-opacity:1;stroke:none;stroke-width:0.58674389;marker:none;visibility:visible;display:inline;overflow:visible;enable-background:accumulate"
         inkscape:connector-curvature="0" />
      <path
         inkscape:connector-curvature="0"
         id="path3050-9"
         d="m 331.56671,557.25 c -0.45448,0.63306 -0.92896,1.31653 -1.625,2 -2.95947,2.90604 -1.75704,7.57479 0.5,19.09375 2.25703,11.51894 4.79106,19.26459 5.78125,21.6875 0.9902,2.42291 3.25538,3.50672 5.28125,4.3125 2.02585,0.80578 4.5801,-0.029 9.40625,-1.75 4.82613,-1.72103 8.39653,-7.46424 11.5625,-13.09375 3.16597,-5.62952 1.7703,-6.36213 -1.625,-9.75 l -9.21875,-17.53125 c 0,0 0.37377,0.036 -0.40625,-1.71875 -0.49246,-1.10792 -1.50411,-2.14874 -4.21875,-3.25 l -15.4375,0 z"
         style="color:#000000;fill:none;stroke:#000000;stroke-width:0.58674389;stroke-linecap:butt;stroke-linejoin:miter;stroke-miterlimit:4;stroke-opacity:1;stroke-dasharray:none;stroke-dashoffset:0;marker:none;visibility:visible;display:inline;overflow:visible;enable-background:accumulate" />
      <path
         inkscape:connector-curvature="0"
         id="path3052"
         d="m 357.61456,587.04356 c -6.32396,9.43353 -10.61965,12.75999 -13.18394,12.17427 -2.56428,-0.58575 -3.53295,-1.57223 -4.53484,-5.56124 -1.00189,-3.989 -3.01365,-10.14152 -3.85635,-14.50977 -0.8427,-4.36823 -3.12925,-15.4981 -2.2626,-16.6063 0.86663,-1.10821 2.80027,-2.5268 6.01299,-1.89192 3.21273,0.6349 4.84952,1.41118 5.53916,2.63738 0.68963,1.22622 0.91951,1.63494 0.91951,1.63494 l 0.41857,-0.35955"
         style="color:#000000;fill:none;stroke:#000000;stroke-width:0.58674389;stroke-linecap:butt;stroke-linejoin:miter;stroke-miterlimit:4;stroke-opacity:1;stroke-dasharray:none;stroke-dashoffset:0;marker:none;visibility:visible;display:inline;overflow:visible;enable-background:accumulate" />
      <path
         inkscape:connector-curvature="0"
         id="path3054"
         d="m 361.6158,578.99913 c 0,0 -6.54956,3.80775 -7.30803,3.48937 -0.75847,-0.31839 -5.03765,-9.25153 -4.98849,-9.89996 0.0492,-0.64845 6.24103,-3.17897 6.24103,-3.17897 0,0 1.80766,1.96315 3.09659,3.88696 1.2889,1.92381 2.9589,5.7026 2.9589,5.7026 z"
         style="color:#000000;fill:#ffffff;fill-opacity:1;stroke:#000000;stroke-width:0.58674389;stroke-linecap:butt;stroke-linejoin:miter;stroke-miterlimit:4;stroke-opacity:1;stroke-dasharray:none;stroke-dashoffset:0;marker:none;visibility:visible;display:inline;overflow:visible;enable-background:accumulate" />
      <path
         inkscape:connector-curvature="0"
         id="path3056"
         d="m 355.03172,569.49993 -5.03765,-9.25152 -3.65894,1.80952 3.74077,9.15319"
         style="color:#000000;fill:#ffffff;fill-opacity:1;stroke:#000000;stroke-width:0.58674389;stroke-linecap:butt;stroke-linejoin:miter;stroke-miterlimit:4;stroke-opacity:1;stroke-dasharray:none;stroke-dashoffset:0;marker:none;visibility:visible;display:inline;overflow:visible;enable-background:accumulate" />
      <path
         inkscape:connector-curvature="0"
         id="path3058"
         d="m 360.08106,580.31754 2.52866,4.49607 -1.6841,1.56796 -2.87283,0.043 -1.92937,-3.79845"
         style="color:#000000;fill:#ffffff;fill-opacity:1;stroke:#000000;stroke-width:0.58674389;stroke-linecap:butt;stroke-linejoin:miter;stroke-miterlimit:4;stroke-opacity:1;stroke-dasharray:none;stroke-dashoffset:0;marker:none;visibility:visible;display:inline;overflow:visible;enable-background:accumulate" />
      <path
         transform="matrix(-0.19876932,-0.01507114,0.01507114,-0.19876932,468.27264,761.85734)"
         sodipodi:open="true"
         sodipodi:end="10.575948"
         sodipodi:start="4.2932211"
         d="m 611.51525,843.93063 c 2.42921,-1.08239 5.27593,0.009 6.35832,2.43862 1.08239,2.42921 -0.009,5.27593 -2.43862,6.35832 -2.42921,1.0824 -5.27593,-0.009 -6.35832,-2.43862 -1.08205,-2.42842 0.009,-5.27426 2.4366,-6.35742"
         sodipodi:ry="4.8153462"
         sodipodi:rx="4.8153462"
         sodipodi:cy="848.3291"
         sodipodi:cx="613.4751"
         id="path3060"
         style="color:#000000;fill:#ffffff;fill-opacity:1;stroke:#000000;stroke-width:2.94343472;stroke-linecap:butt;stroke-linejoin:miter;stroke-miterlimit:4;stroke-opacity:1;stroke-dasharray:none;stroke-dashoffset:0;marker:none;visibility:visible;display:inline;overflow:visible;enable-background:accumulate"
         sodipodi:type="arc" />
      <path
         sodipodi:open="true"
         sodipodi:end="10.575948"
         sodipodi:start="4.2932211"
         d="m 611.51525,843.93063 c 2.42921,-1.08239 5.27593,0.009 6.35832,2.43862 1.08239,2.42921 -0.009,5.27593 -2.43862,6.35832 -2.42921,1.0824 -5.27593,-0.009 -6.35832,-2.43862 -1.08205,-2.42842 0.009,-5.27426 2.4366,-6.35742"
         sodipodi:ry="4.8153462"
         sodipodi:rx="4.8153462"
         sodipodi:cy="848.3291"
         sodipodi:cx="613.4751"
         id="path3060-4"
         style="color:#000000;fill:#ffffff;fill-opacity:1;stroke:#000000;stroke-width:2.94343472;stroke-linecap:butt;stroke-linejoin:miter;stroke-miterlimit:4;stroke-opacity:1;stroke-dasharray:none;stroke-dashoffset:0;marker:none;visibility:visible;display:inline;overflow:visible;enable-background:accumulate"
         sodipodi:type="arc"
         transform="matrix(-0.19876932,-0.01507114,0.01507114,-0.19876932,458.04409,741.14127)" />
      <path
         inkscape:connector-curvature="0"
         id="path3080"
         d="m 360.44878,577.68221 -5.27526,-3.70049"
         style="color:#000000;fill:#ffffff;fill-opacity:1;stroke:#000000;stroke-width:0.58674389;stroke-linecap:butt;stroke-linejoin:miter;stroke-miterlimit:4;stroke-opacity:1;stroke-dasharray:none;stroke-dashoffset:0;marker:none;visibility:visible;display:inline;overflow:visible;enable-background:accumulate" />
      <path
         inkscape:connector-curvature="0"
         id="path3082"
         d="m 358.62809,578.47931 -5.296,-3.42702"
         style="color:#000000;fill:#ffffff;fill-opacity:1;stroke:#000000;stroke-width:0.58674389;stroke-linecap:butt;stroke-linejoin:miter;stroke-miterlimit:4;stroke-opacity:1;stroke-dasharray:none;stroke-dashoffset:0;marker:none;visibility:visible;display:inline;overflow:visible;enable-background:accumulate" />
      <path
         inkscape:connector-curvature="0"
         id="path3084"
         d="m 356.185,579.50425 c -2.43711,-1.22995 -4.76148,-3.22147 -4.76148,-3.22147"
         style="color:#000000;fill:#ffffff;fill-opacity:1;stroke:#000000;stroke-width:0.58674389;stroke-linecap:butt;stroke-linejoin:miter;stroke-miterlimit:4;stroke-opacity:1;stroke-dasharray:none;stroke-dashoffset:0;marker:none;visibility:visible;display:inline;overflow:visible;enable-background:accumulate" />
      <path
         inkscape:connector-curvature="0"
         id="path3086"
         d="m 359.36422,574.57452 c -1.7891,-1.07079 -2.52579,-1.51171 -2.52579,-1.51171"
         style="color:#000000;fill:#ffffff;fill-opacity:1;stroke:#000000;stroke-width:0.58674389;stroke-linecap:butt;stroke-linejoin:miter;stroke-miterlimit:4;stroke-opacity:1;stroke-dasharray:none;stroke-dashoffset:0;marker:none;visibility:visible;display:inline;overflow:visible;enable-background:accumulate" />
      <path
         inkscape:connector-curvature="0"
         id="path3088"
         d="m 352.59673,579.67223 c 0.0184,-2.41896 0.23066,-4.4932 0.23066,-4.4932"
         style="color:#000000;fill:#ffffff;fill-opacity:1;stroke:#000000;stroke-width:0.58674389;stroke-linecap:butt;stroke-linejoin:miter;stroke-miterlimit:4;stroke-opacity:1;stroke-dasharray:none;stroke-dashoffset:0;marker:none;visibility:visible;display:inline;overflow:visible;enable-background:accumulate" />
      <path
         inkscape:connector-curvature="0"
         id="path3090"
         d="m 354.40657,580.46956 c 0.36078,-4.75838 0.75036,-6.26905 0.75036,-6.26905"
         style="color:#000000;fill:#ffffff;fill-opacity:1;stroke:#000000;stroke-width:0.58674389;stroke-linecap:butt;stroke-linejoin:miter;stroke-miterlimit:4;stroke-opacity:1;stroke-dasharray:none;stroke-dashoffset:0;marker:none;visibility:visible;display:inline;overflow:visible;enable-background:accumulate" />
      <path
         inkscape:connector-curvature="0"
         id="path3092"
         d="m 357.3245,578.98554 c 0.282,-3.71918 0.31283,-6.30223 0.31283,-6.30223"
         style="color:#000000;fill:#ffffff;fill-opacity:1;stroke:#000000;stroke-width:0.58674389;stroke-linecap:butt;stroke-linejoin:miter;stroke-miterlimit:4;stroke-opacity:1;stroke-dasharray:none;stroke-dashoffset:0;marker:none;visibility:visible;display:inline;overflow:visible;enable-background:accumulate" />
      <path
         inkscape:connector-curvature="0"
         id="path3094"
         d="m 359.07807,578.3484 c 0.21565,-2.84409 -0.0594,-4.29516 -0.0594,-4.29516"
         style="color:#000000;fill:#ffffff;fill-opacity:1;stroke:#000000;stroke-width:0.58674389;stroke-linecap:butt;stroke-linejoin:miter;stroke-miterlimit:4;stroke-opacity:1;stroke-dasharray:none;stroke-dashoffset:0;marker:none;visibility:visible;display:inline;overflow:visible;enable-background:accumulate" />
      <path
         inkscape:connector-curvature="0"
         id="path3096"
         d="m 355.95794,579.59703 c 0.39631,-3.05041 0.17855,-5.98235 0.17855,-5.98235"
         style="color:#000000;fill:#ffffff;fill-opacity:1;stroke:#000000;stroke-width:0.58674389;stroke-linecap:butt;stroke-linejoin:miter;stroke-miterlimit:4;stroke-opacity:1;stroke-dasharray:none;stroke-dashoffset:0;marker:none;visibility:visible;display:inline;overflow:visible;enable-background:accumulate" />
      <path
         inkscape:connector-curvature="0"
         id="path3098"
         d="m 353.36322,580.44547 c 0.45101,-3.04629 0.53239,-5.57049 0.53239,-5.57049"
         style="color:#000000;fill:#ffffff;fill-opacity:1;stroke:#000000;stroke-width:0.58674389;stroke-linecap:butt;stroke-linejoin:miter;stroke-miterlimit:4;stroke-opacity:1;stroke-dasharray:none;stroke-dashoffset:0;marker:none;visibility:visible;display:inline;overflow:visible;enable-background:accumulate" />
      <g
         transform="translate(9.5342445,-18.115065)"
         id="g3929">
        <path
           style="color:#000000;fill:#606060;fill-opacity:1;stroke:#606060;stroke-width:4.69395113;stroke-linecap:butt;stroke-linejoin:miter;stroke-miterlimit:4;stroke-opacity:1;stroke-dasharray:none;stroke-dashoffset:0;marker:none;visibility:visible;display:inline;overflow:visible;enable-background:accumulate"
           d="m 345.67413,619.1954 34.07463,77.08862"
           id="path3893-9"
           inkscape:connector-curvature="0"
           sodipodi:nodetypes="cc" />
        <path
           style="fill:#606060;fill-opacity:1;stroke:none"
           d="m 343.75275,620.02616 1.67342,-1.18759 1.7274,-1.7274 0.64778,1.56546 -1.67342,1.9973 z"
           id="path3923"
           inkscape:connector-curvature="0" />
      </g>
      <path
         sodipodi:nodetypes="ccc"
         inkscape:connector-curvature="0"
         id="path3893-9-5"
         d="m 380.29802,678.55815 -32.95847,-74.74396 c -1.98735,-10.42597 3.14317,-9.05022 3.14317,-9.05022"
         style="color:#000000;fill:none;stroke:#606060;stroke-width:4.69395113;stroke-linecap:butt;stroke-linejoin:miter;stroke-miterlimit:4;stroke-opacity:1;stroke-dasharray:none;stroke-dashoffset:0;marker:none;visibility:visible;display:inline;overflow:visible;enable-background:accumulate" />
      <path
         inkscape:connector-curvature="0"
         id="path3919"
         d="m 350.91182,592.57234 1.29555,0.91768 -2.15925,2.80702 -0.5938,-2.42916 z"
         style="fill:#606060;fill-opacity:1;stroke:none" />
      <path
         inkscape:connector-curvature="0"
         id="path3227"
         d="m 331.08854,557.03635 0.23064,0.17299 0.65349,0 -0.1922,0.34596 1.44152,1.40308 c 0,0 11.89735,0.0384 11.97423,0 0.0769,-0.0384 1.72983,-0.94179 1.72983,-0.94179 l 0.15376,-0.82647 0.84569,0.0192 -0.59583,-0.48051 -16.10659,0.0192 z"
         style="fill:#ffffff;fill-opacity:1;stroke:none" />
      <path
         inkscape:connector-curvature="0"
         id="path3997"
         d="m 330.13926,557.23039 c 3.16107,4.24046 2.00458,4.24046 3.93207,5.01146 1.92748,0.77099 3.16107,2.08168 4.31756,1.31068 1.15649,-0.77099 3.00687,-2.08168 3.00687,-2.08168 0,0 -1.31069,0.6939 -2.31298,-0.92519 -1.00229,-1.61908 -1.77328,-3.16107 -1.77328,-3.16107"
         style="fill:#ffffff;fill-opacity:1;stroke:#000000;stroke-width:0.625;stroke-linecap:butt;stroke-linejoin:miter;stroke-miterlimit:4;stroke-opacity:1;stroke-dasharray:none" />
    </g>
    <text
       xml:space="preserve"
       style="font-size:10px;font-style:normal;font-weight:normal;line-height:125%;letter-spacing:0px;word-spacing:0px;fill:#000000;fill-opacity:1;stroke:none;font-family:Sans"
       x="445.5213"
       y="823.89197"
       id="text4059"
       sodipodi:linespacing="125%"><tspan
         sodipodi:role="line"
         id="tspan4061"
         x="445.5213"
         y="823.89197">2</tspan></text>
    <text
       xml:space="preserve"
       style="font-size:10px;font-style:normal;font-weight:normal;line-height:125%;letter-spacing:0px;word-spacing:0px;fill:#000000;fill-opacity:1;stroke:none;font-family:Sans"
       x="445.5213"
       y="664.2749"
       id="text4063"
       sodipodi:linespacing="125%"><tspan
         sodipodi:role="line"
         id="tspan4065"
         x="445.5213"
         y="664.2749">1</tspan></text>
    <path
       style="fill:none;stroke:#000000;stroke-width:1px;stroke-linecap:butt;stroke-linejoin:miter;stroke-opacity:1"
       d="m 404.6539,767.51905 c 0,0 11.97321,-3.65284 15.42311,-5.07339 3.44991,-1.42055 10.55266,-5.0734 12.58202,-6.69688 2.02936,-1.62349 17.0466,-12.78496 17.0466,-12.78496"
       id="path3099"
       inkscape:connector-curvature="0" />
    <path
       style="fill:none;stroke:#000000;stroke-width:0.625;stroke-linecap:butt;stroke-linejoin:miter;stroke-miterlimit:4;stroke-opacity:1;stroke-dasharray:none"
       d="m 390.39629,770.01003 c 1.58181,-0.85968 3.61064,-1.96007 4.05767,-2.30394 0.44704,-0.34387 3.74819,-1.37548 4.264,-1.51303 0.51581,-0.13754 3.16361,-0.34387 3.57625,-0.30948 0.41265,0.0344 1.10039,0.17194 1.10039,0.17194 0,0 1.03161,1.20354 1.30671,1.99444 0.2751,0.79091 0.48142,3.43871 0.48142,3.43871 l 2.6478,4.84858 0.85968,1.54741 0.55019,3.57626"
       id="path3120"
       inkscape:connector-curvature="0" />
    <path
       style="fill:none;stroke:#000000;stroke-width:1;stroke-linecap:butt;stroke-linejoin:miter;stroke-opacity:1;stroke-miterlimit:4;stroke-dasharray:4,2;stroke-dashoffset:0"
       d="M 320.15692,604.84137 396.2825,569.50429"
       id="path3037"
       inkscape:connector-curvature="0" />
    <text
       xml:space="preserve"
       style="font-size:10px;font-style:normal;font-weight:normal;line-height:125%;letter-spacing:0px;word-spacing:0px;fill:#000000;fill-opacity:1;stroke:none;font-family:Sans;text-anchor:end;text-align:end"
       x="140.47861"
       y="695.99573"
       id="text3039"
       sodipodi:linespacing="125%"
       transform="matrix(0.90700545,-0.42111888,0.42111888,0.90700545,0,0)"><tspan
         sodipodi:role="line"
         id="tspan3041"
         x="91.020607"
         y="695.99573">surface of</tspan><tspan
         sodipodi:role="line"
         x="91.020607"
         y="708.49573"
         id="tspan3043">contact</tspan></text>
    <path
       style="fill:none;stroke:#000000;stroke-width:1;stroke-linecap:butt;stroke-linejoin:miter;stroke-miterlimit:4;stroke-opacity:1;stroke-dasharray:4, 2;stroke-dashoffset:0"
       d="m 314.38035,795.51301 78.35604,-30.06898"
       id="path3037-7"
       inkscape:connector-curvature="0" />
    <text
       xml:space="preserve"
       style="font-size:10px;font-style:normal;font-weight:normal;text-align:end;line-height:125%;letter-spacing:0px;word-spacing:0px;text-anchor:end;fill:#000000;fill-opacity:1;stroke:none;font-family:Sans"
       x="31.776688"
       y="837.74945"
       id="text3039-2"
       sodipodi:linespacing="125%"
       transform="matrix(0.93358676,-0.35835145,0.35835145,0.93358676,0,0)"><tspan
         sodipodi:role="line"
         id="tspan3041-8"
         x="31.776688"
         y="837.74945">surface of</tspan><tspan
         sodipodi:role="line"
         x="31.776688"
         y="850.24945"
         id="tspan3043-4">contact</tspan></text>
    <path
       style="fill:none;stroke:#000000;stroke-width:1;stroke-linecap:butt;stroke-linejoin:miter;stroke-miterlimit:4;stroke-opacity:1;stroke-dasharray:4, 2;stroke-dashoffset:0"
       d="m 326.70029,822.56081 78.35604,-30.06898"
       id="path3037-7-9"
       inkscape:connector-curvature="0" />
  </g>
</svg>
