<?xml version="1.0" encoding="UTF-8" standalone="no"?>
<!-- Created with Inkscape (http://www.inkscape.org/) -->

<svg
   xmlns:dc="http://purl.org/dc/elements/1.1/"
   xmlns:cc="http://creativecommons.org/ns#"
   xmlns:rdf="http://www.w3.org/1999/02/22-rdf-syntax-ns#"
   xmlns:svg="http://www.w3.org/2000/svg"
   xmlns="http://www.w3.org/2000/svg"
   xmlns:sodipodi="http://sodipodi.sourceforge.net/DTD/sodipodi-0.dtd"
   xmlns:inkscape="http://www.inkscape.org/namespaces/inkscape"
   width="744.09448819"
   height="1052.3622047"
   id="svg2"
   sodipodi:version="0.32"
   sodipodi:docname="tetherball.svg"
   version="1.1">
  <defs
     id="defs4">
    <marker
       inkscape:stockid="Arrow2Mend"
       orient="auto"
       refY="0.0"
       refX="0.0"
       id="Arrow2Mend"
       style="overflow:visible;">
      <path
         sodipodi:nodetypes="cccc"
         id="path3331"
         style="font-size:12.0;fill-rule:evenodd;stroke-width:0.62500000;stroke-linejoin:round;"
         d="M 8.7185878,4.0337352 L -2.2072895,0.016013256 L 8.7185884,-4.0017078 C 6.9730900,-1.6296469 6.9831476,1.6157441 8.7185878,4.0337352 z "
         transform="scale(0.6) rotate(180) translate(-5,0)" />
    </marker>
    <marker
       inkscape:stockid="Arrow2Mstart"
       orient="auto"
       refY="0.0"
       refX="0.0"
       id="Arrow2Mstart"
       style="overflow:visible">
      <path
         sodipodi:nodetypes="cccc"
         id="path3322"
         style="font-size:12.0;fill-rule:evenodd;stroke-width:0.62500000;stroke-linejoin:round"
         d="M 8.7185878,4.0337352 L -2.2072895,0.016013256 L 8.7185884,-4.0017078 C 6.9730900,-1.6296469 6.9831476,1.6157441 8.7185878,4.0337352 z "
         transform="scale(0.6) translate(-5,0)" />
    </marker>
  </defs>
  <sodipodi:namedview
     id="base"
     pagecolor="#ffffff"
     bordercolor="#666666"
     borderopacity="1.0"
     inkscape:pageopacity="0.0"
     inkscape:pageshadow="2"
     inkscape:zoom="1.0594012"
     inkscape:cx="279.25646"
     inkscape:cy="666.14217"
     inkscape:document-units="mm"
     inkscape:current-layer="layer1"
     inkscape:window-width="1278"
     inkscape:window-height="996"
     inkscape:window-x="0"
     inkscape:window-y="0"
     showgrid="false"
     inkscape:window-maximized="0" />
  <metadata
     id="metadata7">
    <rdf:RDF>
      <cc:Work
         rdf:about="">
        <dc:format>image/svg+xml</dc:format>
        <dc:type
           rdf:resource="http://purl.org/dc/dcmitype/StillImage" />
      </cc:Work>
    </rdf:RDF>
  </metadata>
  <g
     inkscape:label="Layer 1"
     inkscape:groupmode="layer"
     id="layer1">
    <path
       sodipodi:type="arc"
       style="fill:none;stroke:#000000;stroke-width:0.69999999;stroke-linecap:butt;stroke-linejoin:miter;stroke-miterlimit:4;stroke-opacity:1;stroke-dasharray:2.1, 2.1;stroke-dashoffset:0"
       id="path2465"
       sodipodi:cx="318.75653"
       sodipodi:cy="351.9931"
       sodipodi:rx="85.984062"
       sodipodi:ry="31.894304"
       d="m 302.72362,320.65817 a 85.984062,31.894304 0 1 1 -65.48028,41.48562"
       transform="matrix(0.835751,0,0,0.835751,31.07096,85.729)"
       sodipodi:start="4.5248274"
       sodipodi:end="9.1008844"
       sodipodi:open="true" />
    <path
       style="fill:none;fill-opacity:0.75000000;fill-rule:evenodd;stroke:#000000;stroke-width:0.73963988;stroke-linecap:butt;stroke-linejoin:miter;stroke-miterlimit:4.0000000;stroke-dasharray:none;stroke-opacity:1.0000000"
       d="M 242.09452,352.92852 L 295.73479,185.83471"
       id="path2165"
       sodipodi:nodetypes="cc" />
    <path
       style="fill:none;fill-opacity:0.75000000;fill-rule:evenodd;stroke:#000000;stroke-width:0.73963988;stroke-linecap:butt;stroke-linejoin:miter;stroke-miterlimit:4.0000000;stroke-dasharray:none;stroke-opacity:1.0000000"
       d="M 291.15364,549.36199 L 296.36542,175.99006 L 297.34063,171.84504"
       id="path2167" />
    <path
       style="fill:none;fill-opacity:0.75000000;fill-rule:evenodd;stroke:#000000;stroke-width:0.73963988;stroke-linecap:butt;stroke-linejoin:miter;stroke-miterlimit:4.0000000;stroke-dasharray:none;stroke-opacity:1.0000000"
       d="M 300.06099,548.00626 L 302.15220,170.32833 L 297.69852,171.00619"
       id="path2169" />
    <path
       sodipodi:type="arc"
       style="fill:#ffffff;fill-opacity:1.0000000;fill-rule:evenodd;stroke:#000000;stroke-width:1.4908398;stroke-linecap:butt;stroke-linejoin:miter;stroke-miterlimit:4.0000000;stroke-dasharray:none;stroke-opacity:1.0000000"
       id="path2163"
       sodipodi:cx="310.19556"
       sodipodi:cy="325.81189"
       sodipodi:rx="25.598663"
       sodipodi:ry="25.598663"
       d="M 335.79422 325.81189 A 25.598663 25.598663 0 1 1  284.59689,325.81189 A 25.598663 25.598663 0 1 1  335.79422 325.81189 z"
       transform="matrix(0.540731,-3.269163e-2,3.269163e-2,0.540731,58.88269,200.9270)" />
    <rect
       style="fill:#ffffff;fill-opacity:1.0000000;fill-rule:evenodd;stroke:none;stroke-width:1.0000000pt;stroke-linecap:butt;stroke-linejoin:miter;stroke-opacity:1.0000000"
       id="rect2463"
       width="6.5080452"
       height="4.7154102"
       x="294.33759"
       y="351.59323" />
    <path
       style="fill:none;stroke:#000000;stroke-width:0.73128235;stroke-linecap:butt;stroke-linejoin:miter;stroke-miterlimit:4;stroke-opacity:1;stroke-dasharray:none;marker-start:none;marker-end:url(#Arrow2Mend)"
       d="m 235.58179,367.3675 30.66926,-11.75543"
       id="path3364"
       inkscape:connector-curvature="0" />
    <path
       style="fill:none;fill-opacity:0.75000000;fill-rule:evenodd;stroke:#000000;stroke-width:0.73963988;stroke-linecap:butt;stroke-linejoin:miter;stroke-miterlimit:4.0000000;stroke-dasharray:none;stroke-opacity:1.0000000"
       d="M 210.33261,400.01050 C 210.33261,400.01050 205.99180,395.56202 206.86144,392.36035 C 209.01598,384.42831 213.01285,383.81409 213.01285,383.81409 L 219.28404,382.15349 L 225.17179,378.80267 L 224.79073,383.84429 C 224.79073,383.84429 225.51313,386.18249 221.63411,387.51939 C 217.75508,388.85628 214.22080,389.74052 214.22080,389.74052 L 212.71289,393.59852 L 212.71289,393.59852 L 212.71289,393.59852"
       id="path2075"
       sodipodi:nodetypes="csccccscccc" />
    <path
       style="fill:none;fill-opacity:0.75000000;fill-rule:evenodd;stroke:#000000;stroke-width:0.73963988;stroke-linecap:butt;stroke-linejoin:miter;stroke-miterlimit:4.0000000;stroke-dasharray:none;stroke-opacity:1.0000000"
       d="M 229.59345,378.52351 C 231.64750,379.50554 233.10547,381.43464 232.26056,383.30600 C 231.41566,385.17735 231.37163,385.91814 230.16512,386.74029 C 228.95860,387.56243 228.93105,387.67143 228.93105,387.67143"
       id="path2077"
       sodipodi:nodetypes="cssc" />
    <path
       style="fill:none;fill-opacity:0.75000000;fill-rule:evenodd;stroke:#000000;stroke-width:0.73963988;stroke-linecap:butt;stroke-linejoin:miter;stroke-miterlimit:4.0000000;stroke-dasharray:none;stroke-opacity:1.0000000"
       d="M 209.33184,403.75927 C 209.33184,403.75927 212.83464,400.43011 217.30552,399.38587 C 221.77639,398.34162 223.53101,398.32382 223.53101,398.32382 C 223.53101,398.32382 218.53626,403.61187 218.95624,405.09244 C 219.37621,406.57300 219.20752,408.57247 219.20752,408.57247 L 212.30086,414.33889"
       id="path2079" />
    <path
       style="fill:#ffffff;fill-opacity:1.0000000;fill-rule:evenodd;stroke:#000000;stroke-width:0.73963988;stroke-linecap:butt;stroke-linejoin:miter;stroke-miterlimit:4.0000000;stroke-dasharray:none;stroke-opacity:1.0000000"
       d="M 220.87458,407.90763 L 228.18983,405.16072 C 228.18983,405.16072 229.77925,394.18389 229.08522,392.30116 C 228.39120,390.41842 230.06175,376.79508 230.06175,376.79508 C 230.06175,376.79508 233.21449,375.48442 232.76021,374.01403 C 231.97863,371.48426 229.38248,370.23385 228.29429,370.22580 C 226.75536,370.21441 223.92235,370.37815 223.92235,370.37815 C 223.92235,370.37815 222.32009,374.76788 224.34875,375.15225 C 226.37741,375.53662 223.95447,386.84588 223.69822,388.19831 C 223.44198,389.55075 224.55102,397.74653 224.55102,397.74653"
       id="path2081"
       sodipodi:nodetypes="ccscsscssc" />
    <path
       style="fill:none;fill-opacity:0.75000000;fill-rule:evenodd;stroke:#000000;stroke-width:0.73963988;stroke-linecap:butt;stroke-linejoin:miter;stroke-miterlimit:4.0000000;stroke-dasharray:none;stroke-opacity:1.0000000"
       d="M 223.43696,389.76392 C 223.17056,389.72534 220.99700,390.20602 220.99700,390.20602 C 220.99700,390.20602 222.20718,390.60192 222.80829,390.63250 C 223.40940,390.66309 223.55595,390.64325 223.55595,390.64325"
       id="path2083" />
    <path
       style="fill:none;fill-opacity:0.75000000;fill-rule:evenodd;stroke:#000000;stroke-width:0.73963988;stroke-linecap:butt;stroke-linejoin:miter;stroke-miterlimit:4.0000000;stroke-dasharray:none;stroke-opacity:1.0000000"
       d="M 223.15956,389.09256 C 222.24551,388.95508 221.62566,389.33743 221.44743,389.39886 C 221.26919,389.46030 220.45623,389.79416 220.45623,389.79416"
       id="path2085" />
    <path
       style="fill:none;fill-opacity:0.75000000;fill-rule:evenodd;stroke:#000000;stroke-width:0.73963988;stroke-linecap:butt;stroke-linejoin:miter;stroke-miterlimit:4.0000000;stroke-dasharray:none;stroke-opacity:1.0000000"
       d="M 229.23847,397.89601 C 229.13460,398.50702 229.51310,399.64974 229.50124,399.83789 C 229.48939,400.02605 228.87754,400.74312 228.87754,400.74312"
       id="path2089" />
    <path
       style="fill:none;fill-opacity:0.75000000;fill-rule:evenodd;stroke:#000000;stroke-width:0.73963988;stroke-linecap:butt;stroke-linejoin:miter;stroke-miterlimit:4.0000000;stroke-dasharray:none;stroke-opacity:1.0000000"
       d="M 212.87155,394.40230 C 212.05061,394.40146 210.41478,394.99591 210.58226,395.68215 C 210.74974,396.36838 210.97091,398.27858 212.21279,398.63288 C 213.45466,398.98717 214.49542,398.95826 214.49542,398.95826"
       id="path2091" />
    <path
       style="fill:none;fill-opacity:0.75000000;fill-rule:evenodd;stroke:#000000;stroke-width:0.73963988;stroke-linecap:butt;stroke-linejoin:miter;stroke-miterlimit:4.0000000;stroke-dasharray:none;stroke-opacity:1.0000000"
       d="M 214.84243,390.21802 C 215.43168,390.43676 215.97740,390.88527 215.97740,390.88527"
       id="path2093" />
    <path
       style="fill:none;fill-opacity:0.75000000;fill-rule:evenodd;stroke:#000000;stroke-width:0.73963988;stroke-linecap:butt;stroke-linejoin:miter;stroke-miterlimit:4.0000000;stroke-dasharray:none;stroke-opacity:1.0000000"
       d="M 214.62865,390.84392 L 215.79833,391.76763"
       id="path2095" />
    <path
       style="fill:none;fill-opacity:0.75000000;fill-rule:evenodd;stroke:#000000;stroke-width:0.73963988;stroke-linecap:butt;stroke-linejoin:miter;stroke-miterlimit:4.0000000;stroke-dasharray:none;stroke-opacity:1.0000000"
       d="M 213.93661,391.79570 L 215.85202,392.99161"
       id="path2097" />
    <path
       style="fill:none;fill-opacity:0.75000000;fill-rule:evenodd;stroke:#000000;stroke-width:0.73963988;stroke-linecap:butt;stroke-linejoin:miter;stroke-miterlimit:4.0000000;stroke-dasharray:none;stroke-opacity:1.0000000"
       d="M 214.37024,391.14006 L 215.86774,392.28059"
       id="path2099" />
    <path
       style="fill:none;fill-opacity:0.75000000;fill-rule:evenodd;stroke:#000000;stroke-width:0.73963988;stroke-linecap:butt;stroke-linejoin:miter;stroke-miterlimit:4.0000000;stroke-dasharray:none;stroke-opacity:1.0000000"
       d="M 214.72116,393.18195 L 215.95421,394.02246"
       id="path2101" />
    <path
       style="fill:none;fill-opacity:0.75000000;fill-rule:evenodd;stroke:#000000;stroke-width:0.73963988;stroke-linecap:butt;stroke-linejoin:miter;stroke-miterlimit:4.0000000;stroke-dasharray:none;stroke-opacity:1.0000000"
       d="M 213.59417,392.84941 L 214.67569,393.67313"
       id="path2103" />
    <path
       style="fill:none;fill-opacity:0.75000000;fill-rule:evenodd;stroke:#000000;stroke-width:0.73963988;stroke-linecap:butt;stroke-linejoin:miter;stroke-miterlimit:4.0000000;stroke-dasharray:none;stroke-opacity:1.0000000"
       d="M 213.64375,393.21580 L 215.73546,394.61172"
       id="path2105" />
    <path
       style="fill:none;fill-opacity:0.75000000;fill-rule:evenodd;stroke:#000000;stroke-width:0.73963988;stroke-linecap:butt;stroke-linejoin:miter;stroke-miterlimit:4.0000000;stroke-dasharray:none;stroke-opacity:1.0000000"
       d="M 209.30706,404.13764 C 209.30706,404.13764 207.98041,409.54086 207.74117,410.89235 C 207.50194,412.24384 207.98574,415.81913 207.98574,415.81913 L 208.22105,415.99835"
       id="path2107" />
    <path
       style="fill:none;fill-opacity:0.75000000;fill-rule:evenodd;stroke:#000000;stroke-width:0.73963988;stroke-linecap:butt;stroke-linejoin:miter;stroke-miterlimit:4.0000000;stroke-dasharray:none;stroke-opacity:1.0000000"
       d="M 210.11685,413.63123 C 210.11685,413.63123 206.13201,418.49715 206.62794,419.43257 C 207.12387,420.36799 207.82707,421.27536 207.82707,421.27536"
       id="path2109" />
    <path
       style="fill:none;fill-opacity:0.75000000;fill-rule:evenodd;stroke:#000000;stroke-width:0.73963988;stroke-linecap:butt;stroke-linejoin:miter;stroke-miterlimit:4.0000000;stroke-dasharray:none;stroke-opacity:1.0000000"
       d="M 208.45433,420.45177 C 208.45433,420.45177 207.68909,424.93479 207.91192,425.80164 C 208.13475,426.66848 207.99332,426.79315 207.99332,426.79315"
       id="path2111" />
    <path
       style="fill:none;fill-opacity:0.75000000;fill-rule:evenodd;stroke:#000000;stroke-width:0.73963988;stroke-linecap:butt;stroke-linejoin:miter;stroke-miterlimit:4.0000000;stroke-dasharray:none;stroke-opacity:1.0000000"
       d="M 213.67560,422.38347 C 213.67560,422.38347 206.15207,428.78354 206.28256,430.13777 C 206.41305,431.49198 206.31095,432.29727 206.31095,432.29727"
       id="path2113" />
    <path
       style="fill:none;fill-opacity:0.75000000;fill-rule:evenodd;stroke:#000000;stroke-width:0.73963988;stroke-linecap:butt;stroke-linejoin:miter;stroke-miterlimit:4.0000000;stroke-dasharray:none;stroke-opacity:1.0000000"
       d="M 206.06317,432.80568 L 206.49361,435.59673"
       id="path2115" />
    <path
       style="fill:none;fill-opacity:0.75000000;fill-rule:evenodd;stroke:#000000;stroke-width:0.73963988;stroke-linecap:butt;stroke-linejoin:miter;stroke-miterlimit:4.0000000;stroke-dasharray:none;stroke-opacity:1.0000000"
       d="M 206.44334,436.39500 C 206.44334,436.39500 202.83678,442.10674 202.86638,443.10526 C 202.89596,444.10379 202.86981,446.64003 202.86981,446.64003 C 202.86981,446.64003 202.52884,450.74904 202.57793,451.11175 C 202.62701,451.47446 202.33203,454.36367 202.33203,454.36367 L 201.77832,459.24018 C 201.77832,459.24018 205.03298,459.11636 205.44750,459.06026 C 205.86203,459.00416 209.12798,459.35369 210.08716,458.64348 C 211.04634,457.93327 214.06723,458.42150 214.27449,458.39345 C 214.48176,458.36540 217.06982,458.38454 217.81900,458.07209 C 218.56820,457.75966 221.89689,456.62328 223.31268,456.16788 C 224.72846,455.71247 227.41587,455.29604 227.41587,455.29604 C 227.41587,455.29604 229.66926,455.57153 229.74913,455.77179 C 229.82898,455.97204 231.04060,457.12720 231.04060,457.12720 C 231.04060,457.12720 231.52656,449.41058 231.54332,449.14448 C 231.56008,448.87839 228.65187,444.15375 228.41929,443.60481 C 228.18672,443.05587 225.90611,439.45989 225.90611,439.45989 L 225.89911,439.40808"
       id="path2119" />
    <path
       style="fill:none;fill-opacity:0.75000000;fill-rule:evenodd;stroke:#000000;stroke-width:0.73963988;stroke-linecap:butt;stroke-linejoin:miter;stroke-miterlimit:4.0000000;stroke-dasharray:none;stroke-opacity:1.0000000"
       d="M 228.95848,443.69014 C 229.00602,443.26159 232.34649,437.53310 232.19378,437.18441 C 232.04107,436.83573 231.76642,435.97589 231.62072,435.67902 C 231.47501,435.38216 230.65228,431.64167 230.63397,431.11649 C 230.61567,430.59132 230.61223,427.05656 230.61223,427.05656 L 230.60522,427.00474"
       id="path2121" />
    <path
       style="fill:none;fill-opacity:0.75000000;fill-rule:evenodd;stroke:#000000;stroke-width:0.73963988;stroke-linecap:butt;stroke-linejoin:miter;stroke-miterlimit:4.0000000;stroke-dasharray:none;stroke-opacity:1.0000000"
       d="M 228.11335,408.97984 C 229.02381,409.85917 233.95009,414.68007 234.65758,416.00898 C 235.36504,417.33789 235.98327,420.73670 236.12623,421.40330 C 236.26920,422.06989 235.89555,423.59786 235.89555,423.59786 L 235.90410,424.44094"
       id="path2123" />
    <path
       style="fill:none;fill-opacity:0.75000000;fill-rule:evenodd;stroke:#000000;stroke-width:0.73963988;stroke-linecap:butt;stroke-linejoin:miter;stroke-miterlimit:4.0000000;stroke-dasharray:none;stroke-opacity:1.0000000"
       d="M 236.80376,419.78144 C 236.96348,420.18194 241.52006,425.00011 241.52006,425.00011 L 245.45996,427.21073 C 245.45996,427.21073 241.30614,426.92859 240.62005,427.70736 C 239.93396,428.48615 239.00436,430.19487 239.00436,430.19487 L 237.21374,433.33924 L 234.41106,431.34409"
       id="path2125" />
    <path
       style="fill:none;fill-opacity:0.75000000;fill-rule:evenodd;stroke:#000000;stroke-width:0.73963988;stroke-linecap:butt;stroke-linejoin:miter;stroke-miterlimit:4.0000000;stroke-dasharray:none;stroke-opacity:1.0000000"
       d="M 243.66043,427.55977 C 243.86496,427.90144 244.98969,428.80454 244.98969,428.80454"
       id="path2127" />
    <path
       style="fill:none;fill-opacity:0.75000000;fill-rule:evenodd;stroke:#000000;stroke-width:0.73963988;stroke-linecap:butt;stroke-linejoin:miter;stroke-miterlimit:4.0000000;stroke-dasharray:none;stroke-opacity:1.0000000"
       d="M 244.30788,430.00486 C 244.30788,430.00486 245.94187,428.04251 246.65600,427.47100 C 247.37013,426.89948 249.32903,424.99870 249.32903,424.99870 L 249.59358,424.22419"
       id="path2129" />
    <path
       style="fill:none;fill-opacity:0.75000000;fill-rule:evenodd;stroke:#000000;stroke-width:0.73963988;stroke-linecap:butt;stroke-linejoin:miter;stroke-miterlimit:4.0000000;stroke-dasharray:none;stroke-opacity:1.0000000"
       d="M 238.60148,432.67657 C 238.60148,432.67657 240.44070,434.96039 241.69283,435.63520 C 242.94497,436.30999 244.44643,437.26763 244.71954,437.33620 C 244.99264,437.40478 245.72935,437.77997 246.19142,437.29532 C 246.65349,436.81068 248.53252,434.70965 249.10096,433.84126 C 249.66939,432.97288 251.78065,429.46853 252.34908,428.60014 C 252.91752,427.73176 254.21803,424.86478 254.83126,423.93755 C 255.44449,423.01034 256.89463,418.90953 256.89463,418.90953 L 257.55386,416.76249"
       id="path2131" />
    <path
       style="fill:none;fill-opacity:0.75000000;fill-rule:evenodd;stroke:#000000;stroke-width:0.73963988;stroke-linecap:butt;stroke-linejoin:miter;stroke-miterlimit:4.0000000;stroke-dasharray:none;stroke-opacity:1.0000000"
       d="M 249.60606,423.53657 C 249.60606,423.53657 250.36465,420.95398 249.57458,419.79454 C 248.78451,418.63510 248.49311,418.04136 248.49311,418.04136 L 249.13985,416.58196 C 249.13985,416.58196 249.86801,416.11407 249.99969,416.30731 C 250.13136,416.50055 251.30245,418.13609 251.30245,418.13609 L 251.35034,419.65978 L 251.35034,419.65978"
       id="path2133" />
    <path
       style="fill:none;fill-opacity:0.75000000;fill-rule:evenodd;stroke:#000000;stroke-width:0.73963988;stroke-linecap:butt;stroke-linejoin:miter;stroke-miterlimit:4.0000000;stroke-dasharray:none;stroke-opacity:1.0000000"
       d="M 250.84004,416.66848 L 251.47275,415.10545 L 253.43355,415.94817 C 253.43355,415.94817 254.27117,416.67906 254.47997,417.44229 C 254.68877,418.20549 253.66803,419.24062 253.66803,419.24062"
       id="path2135" />
    <path
       style="fill:none;fill-opacity:0.75000000;fill-rule:evenodd;stroke:#000000;stroke-width:0.73963988;stroke-linecap:butt;stroke-linejoin:miter;stroke-miterlimit:4.0000000;stroke-dasharray:none;stroke-opacity:1.0000000"
       d="M 253.08605,414.93990 C 253.08605,414.93990 253.39541,414.10657 253.66852,414.17514 C 253.94162,414.24372 255.21051,414.65242 255.29739,414.90449 C 255.38426,415.15657 255.85214,415.88472 255.88721,416.14380 C 255.92226,416.40287 255.76562,417.58489 255.79367,417.79216 C 255.82172,417.99942 255.72236,418.43498 255.72236,418.43498"
       id="path2137" />
    <path
       style="fill:none;fill-opacity:0.75000000;fill-rule:evenodd;stroke:#000000;stroke-width:0.73963988;stroke-linecap:butt;stroke-linejoin:miter;stroke-miterlimit:4.0000000;stroke-dasharray:none;stroke-opacity:1.0000000"
       d="M 254.19642,413.78713 C 254.19642,413.78713 254.27473,413.19611 254.91755,413.26742 C 255.56039,413.33873 257.11093,414.65908 257.11093,414.65908 L 257.33805,415.94747"
       id="path2139" />
    <path
       style="fill:none;fill-opacity:0.75000000;fill-rule:evenodd;stroke:#000000;stroke-width:0.73963988;stroke-linecap:butt;stroke-linejoin:miter;stroke-miterlimit:4.0000000;stroke-dasharray:none;stroke-opacity:1.0000000"
       d="M 202.33659,460.46710 C 202.44847,461.29390 208.03506,478.57962 208.37695,480.21724 C 208.71882,481.85488 211.45306,490.50574 211.45306,490.50574 C 211.45306,490.50574 219.46619,491.94724 222.15087,491.34339 C 224.83555,490.73955 231.88697,487.74064 231.88697,487.74064 L 234.15338,486.71229 L 234.81331,481.81187"
       id="path2143" />
    <path
       style="fill:none;fill-opacity:0.75000000;fill-rule:evenodd;stroke:#000000;stroke-width:0.73963988;stroke-linecap:butt;stroke-linejoin:miter;stroke-miterlimit:4.0000000;stroke-dasharray:none;stroke-opacity:1.0000000"
       d="M 235.09830,486.58442 C 235.09830,486.58442 240.66570,485.95133 241.20832,485.51706 C 241.75094,485.08280 245.37080,483.39018 245.37080,483.39018 L 237.80198,467.45520 L 234.95044,463.27051 L 231.09003,458.74121"
       id="path2145" />
    <path
       style="fill:none;fill-opacity:0.75000000;fill-rule:evenodd;stroke:#000000;stroke-width:0.73963988;stroke-linecap:butt;stroke-linejoin:miter;stroke-miterlimit:4.0000000;stroke-dasharray:none;stroke-opacity:1.0000000"
       d="M 245.84678,485.12994 C 246.47907,486.24717 246.30405,489.39807 246.56602,490.44513 C 246.82798,491.49218 247.71953,496.30293 247.83141,497.12974 C 247.94329,497.95654 250.85063,510.55314 250.85063,510.55314 C 250.85063,510.55314 252.03610,516.64718 252.21814,517.10365 C 252.40020,517.56014 253.46675,519.21998 253.46675,519.21998"
       id="path2147" />
    <path
       style="fill:none;fill-opacity:0.75000000;fill-rule:evenodd;stroke:#000000;stroke-width:0.73963988;stroke-linecap:butt;stroke-linejoin:miter;stroke-miterlimit:4.0000000;stroke-dasharray:none;stroke-opacity:1.0000000"
       d="M 235.14354,489.58524 L 237.74367,498.13396 C 237.74367,498.13396 238.96735,503.62144 239.26752,504.06194 C 239.56767,504.50243 240.84201,507.69777 240.84201,507.69777 L 244.48296,516.82732 L 245.48287,520.66118"
       id="path2149" />
    <path
       style="fill:none;fill-opacity:0.75000000;fill-rule:evenodd;stroke:#000000;stroke-width:0.73963988;stroke-linecap:butt;stroke-linejoin:miter;stroke-miterlimit:4.0000000;stroke-dasharray:none;stroke-opacity:1.0000000"
       d="M 227.07974,490.43588 C 227.27154,491.85325 228.57161,496.12762 228.54316,497.69508 C 228.51471,499.26255 227.19674,501.96672 226.22960,502.81927 C 225.26247,503.67179 219.19769,507.73999 218.80515,508.39450 C 218.41260,509.04900 211.42592,516.97055 211.42592,516.97055 C 211.42592,516.97055 207.24474,521.62580 206.66391,522.66662 C 206.08308,523.70744 204.25446,527.08211 204.25446,527.08211"
       id="path2151" />
    <path
       style="fill:none;fill-opacity:0.75000000;fill-rule:evenodd;stroke:#000000;stroke-width:0.73963988;stroke-linecap:butt;stroke-linejoin:miter;stroke-miterlimit:4.0000000;stroke-dasharray:none;stroke-opacity:1.0000000"
       d="M 213.22639,499.16633 C 210.45285,502.66888 206.26192,506.36321 206.26192,506.36321 C 206.26192,506.36321 202.77697,512.60814 201.97589,513.79903 C 201.17483,514.98994 197.91012,521.08478 196.99094,522.29166 C 196.07175,523.49855 194.54601,524.66724 194.54601,524.66724 L 194.54601,524.66724"
       id="path2153" />
    <path
       style="fill:none;fill-opacity:0.75000000;fill-rule:evenodd;stroke:#000000;stroke-width:0.73963988;stroke-linecap:butt;stroke-linejoin:miter;stroke-miterlimit:4.0000000;stroke-dasharray:none;stroke-opacity:1.0000000"
       d="M 192.34977,525.32526 C 190.76984,526.98239 186.31071,530.47247 185.98210,531.59943 C 185.65350,532.72640 185.24225,535.90928 187.94643,537.22724 C 190.65061,538.54520 191.82553,539.22816 194.24554,540.22375 C 196.66554,541.21933 200.87054,544.73977 204.21948,545.48938 C 207.56842,546.23898 208.47514,546.71767 210.03285,545.78522 C 211.59056,544.85276 212.83565,545.16539 213.71313,542.76137 C 214.59059,540.35735 216.03019,539.44087 213.49207,538.46128 C 210.95395,537.48168 210.34116,538.28626 208.92649,535.83158 C 207.51183,533.37689 206.33690,532.69394 206.41331,531.48082 C 206.48970,530.26770 204.80683,527.60875 204.80683,527.60875"
       id="path2155" />
    <path
       style="fill:none;fill-opacity:0.75000000;fill-rule:evenodd;stroke:#000000;stroke-width:0.73963988;stroke-linecap:butt;stroke-linejoin:miter;stroke-miterlimit:4.0000000;stroke-dasharray:none;stroke-opacity:1.0000000"
       d="M 192.49362,526.38829 C 192.91541,528.61650 194.81852,531.12537 197.21279,531.04194 C 199.60706,530.95850 202.70650,528.97547 202.70650,528.97547"
       id="path2157" />
    <path
       style="fill:none;fill-opacity:0.75000000;fill-rule:evenodd;stroke:#000000;stroke-width:0.73963988;stroke-linecap:butt;stroke-linejoin:miter;stroke-miterlimit:4.0000000;stroke-dasharray:none;stroke-opacity:1.0000000"
       d="M 245.13828,521.67003 C 244.43310,523.56963 242.33629,526.74004 242.82824,528.59791 C 243.32021,530.45579 243.35569,532.49571 244.71890,532.79236 C 246.08209,533.08901 249.86178,532.57755 251.35907,532.97632 C 252.85636,533.37510 254.38563,534.01011 256.91400,534.02880 C 259.44237,534.04750 263.81263,533.45612 265.31616,533.01210 C 266.81970,532.56809 269.37650,531.01933 269.37650,531.01933 C 269.37650,531.01933 270.01774,528.64728 268.69275,527.74407 C 267.36774,526.84087 263.36430,525.69872 262.59167,525.32216 C 261.81904,524.94560 257.41953,522.65426 257.23749,522.19779 C 257.05544,521.74131 254.91610,519.26441 254.91610,519.26441"
       id="path2159" />
    <path
       style="fill:none;fill-opacity:0.75000000;fill-rule:evenodd;stroke:#000000;stroke-width:0.73963988;stroke-linecap:butt;stroke-linejoin:miter;stroke-miterlimit:4.0000000;stroke-dasharray:none;stroke-opacity:1.0000000"
       d="M 253.83084,520.13293 C 252.99781,521.08760 250.60082,523.81752 249.10352,523.41875 C 247.60623,523.01997 245.99705,521.79438 245.99705,521.79438"
       id="path2161" />
    <text
       xml:space="preserve"
       style="font-size:8.35751247px;font-style:normal;font-variant:normal;font-weight:normal;font-stretch:normal;text-align:start;line-height:125%;writing-mode:lr-tb;text-anchor:start;fill:#000000;fill-opacity:1;stroke:none;font-family:Liberation Sans"
       x="260.04483"
       y="352.08685"
       id="text3457"
       sodipodi:linespacing="125%"><tspan
         sodipodi:role="line"
         id="tspan3459"
         x="260.04483"
         y="352.08685">F</tspan></text>
  </g>
</svg>
