<?xml version="1.0" encoding="iso-8859-1"?>
<!-- Generator: Adobe Illustrator 11 Build 196, SVG Export Plug-In . SVG Version: 6.0.0 Build 78)  -->
<!DOCTYPE svg PUBLIC "-//W3C//DTD SVG 1.0//EN"    "http://www.w3.org/TR/2001/REC-SVG-20010904/DTD/svg10.dtd" [
	<!ENTITY ns_flows "http://ns.adobe.com/Flows/1.0/">
	<!ENTITY ns_svg "http://www.w3.org/2000/svg">
	<!ENTITY ns_xlink "http://www.w3.org/1999/xlink">
]>
<svg  
	 width="143.567" height="20.113" viewBox="0 0 143.567 20.113" style="overflow:visible;enable-background:new 0 0 143.567 20.113"
	 xml:space="preserve">
	<g id="Layer_1">
		<g>
			<g>
				<path style="fill:#7F7F7F;stroke:#000000;" d="M65.383,4.979c0-1.617-1.306-2.929-2.921-2.939V2.008H44.675v0.031
					c-1.624,0-2.94,1.316-2.94,2.94s1.317,2.94,2.94,2.94v0.031h17.787V7.918C64.077,7.908,65.383,6.596,65.383,4.979z"/>
				<g>
					<line style="fill:none;stroke:#FFFFFF;" x1="44.916" y1="2.944" x2="44.916" y2="5.1"/>
					<line style="fill:none;stroke:#FFFFFF;" x1="46.301" y1="2.944" x2="46.301" y2="5.1"/>
					<line style="fill:none;stroke:#FFFFFF;" x1="47.688" y1="2.944" x2="47.688" y2="5.1"/>
					<line style="fill:none;stroke:#FFFFFF;" x1="49.073" y1="2.944" x2="49.073" y2="5.1"/>
					<line style="fill:none;stroke:#FFFFFF;" x1="50.459" y1="2.944" x2="50.459" y2="5.1"/>
					<line style="fill:none;stroke:#FFFFFF;" x1="51.846" y1="2.944" x2="51.846" y2="5.1"/>
					<line style="fill:none;stroke:#FFFFFF;" x1="53.231" y1="2.944" x2="53.231" y2="5.1"/>
					<line style="fill:none;stroke:#FFFFFF;" x1="54.618" y1="2.944" x2="54.618" y2="5.1"/>
					<line style="fill:none;stroke:#FFFFFF;" x1="56.003" y1="2.944" x2="56.003" y2="5.1"/>
					<line style="fill:none;stroke:#FFFFFF;" x1="57.39" y1="2.944" x2="57.39" y2="5.1"/>
					<line style="fill:none;stroke:#FFFFFF;" x1="58.775" y1="2.944" x2="58.775" y2="5.1"/>
					<line style="fill:none;stroke:#FFFFFF;" x1="60.162" y1="2.944" x2="60.162" y2="5.1"/>
					<line style="fill:none;stroke:#FFFFFF;" x1="61.548" y1="2.944" x2="61.548" y2="5.1"/>
				</g>
				<polygon style="fill:#B4B4B4;stroke:#FFFFFF;" points="52.529,4.975 51.451,6.053 51.451,7.285 53.829,7.285 53.829,5.986 "/>
			</g>
			<path style="fill:none;stroke:#000000;" d="M41.758,5.004c-2.079,0.231-8.316,2.31-4.62-0.924"/>
			<path style="fill:none;stroke:#000000;" d="M65.321,5.206c2.079-0.231,8.316-2.31,4.62,0.924"/>
		</g>
		<g>
			<g>
				<path style="fill:#7F7F7F;stroke:#000000;" d="M99.132,4.748c0,1.617-1.306,2.929-2.921,2.939v0.032H78.423V7.688
					c-1.624,0-2.94-1.316-2.94-2.94s1.316-2.94,2.94-2.94V1.776H96.21v0.032C97.826,1.819,99.132,3.131,99.132,4.748z"/>
				<g>
					<line style="fill:none;stroke:#FFFFFF;" x1="78.664" y1="6.783" x2="78.664" y2="4.627"/>
					<line style="fill:none;stroke:#FFFFFF;" x1="80.05" y1="6.783" x2="80.05" y2="4.627"/>
					<line style="fill:none;stroke:#FFFFFF;" x1="81.436" y1="6.783" x2="81.436" y2="4.627"/>
					<line style="fill:none;stroke:#FFFFFF;" x1="82.822" y1="6.783" x2="82.822" y2="4.627"/>
					<line style="fill:none;stroke:#FFFFFF;" x1="84.208" y1="6.783" x2="84.208" y2="4.627"/>
					<line style="fill:none;stroke:#FFFFFF;" x1="85.594" y1="6.783" x2="85.594" y2="4.627"/>
					<line style="fill:none;stroke:#FFFFFF;" x1="86.98" y1="6.783" x2="86.98" y2="4.627"/>
					<line style="fill:none;stroke:#FFFFFF;" x1="88.366" y1="6.783" x2="88.366" y2="4.627"/>
					<line style="fill:none;stroke:#FFFFFF;" x1="89.752" y1="6.783" x2="89.752" y2="4.627"/>
					<line style="fill:none;stroke:#FFFFFF;" x1="91.138" y1="6.783" x2="91.138" y2="4.627"/>
					<line style="fill:none;stroke:#FFFFFF;" x1="92.524" y1="6.783" x2="92.524" y2="4.627"/>
					<line style="fill:none;stroke:#FFFFFF;" x1="93.91" y1="6.783" x2="93.91" y2="4.627"/>
					<line style="fill:none;stroke:#FFFFFF;" x1="95.296" y1="6.783" x2="95.296" y2="4.627"/>
				</g>
				<polygon style="fill:#B4B4B4;stroke:#FFFFFF;" points="86.278,4.752 85.2,3.674 85.2,2.442 87.577,2.442 87.577,3.741 "/>
			</g>
			<path style="fill:none;stroke:#000000;" d="M75.507,4.72c-2.079,0.231-8.316,2.31-4.62-0.924"/>
			<path style="fill:none;stroke:#000000;" d="M99.069,4.521c2.079,0.231,8.316,2.31,4.62-0.924"/>
		</g>
		<path style="fill:#FFFFFF;stroke:#000000;" d="M143.543,4.457c-8.86-0.429-22.072-3.292-22.072-3.292s-4.389,0-4.851,0
			c-1.213,0-2.183,0.866-2.183,0.866c-0.215,0.92,1.94,2.079,1.94,2.079s-8.004-0.346-9.945-0.173
			c-1.94,0.173-3.638,0.693-2.668,1.386c0.97,0.693,7.519,2.079,8.489,2.079c0.971,0,4.366,0,4.366,0s-5.586,0.7-5.094,1.906
			c0.188,0.46,1.213,0.866,5.094,0.693c0,0-4.608,0.693-3.638,2.079s4.608,0.693,4.608,0.693s-3.638,0.346-3.153,1.559
			c0.485,1.213,2.953,1.443,4.366,0.866c1.698-0.693,6.549-2.079,10.187-2.426c3.639-0.346,11.4-1.732,13.098-1.732"/>
		<path style="fill:#FFFFFF;stroke:#000000;" d="M0.034,4.889C8.472,4.317,21.055,0.5,21.055,0.5s4.18,0,4.62,0
			c1.155,0,2.079,1.155,2.079,1.155c0.205,1.227-1.848,2.772-1.848,2.772s7.623-0.462,9.471-0.231
			c1.848,0.231,3.465,0.924,2.541,1.848c-0.924,0.924-7.161,2.772-8.085,2.772c-0.924,0-4.158,0-4.158,0s5.32,0.933,4.851,2.541
			c-0.179,0.614-1.155,1.155-4.851,0.924c0,0,4.389,0.924,3.465,2.772c-0.924,1.848-4.389,0.924-4.389,0.924
			s3.465,0.462,3.003,2.079s-2.812,1.924-4.158,1.155c-1.617-0.924-6.237-2.772-9.702-3.234c-3.465-0.462-10.857-2.31-12.474-2.31"
			/>
	</g>
</svg>
