<?xml version="1.0" encoding="iso-8859-1"?>
<!-- Generator: Adobe Illustrator 11 Build 196, SVG Export Plug-In . SVG Version: 6.0.0 Build 78)  -->
<!DOCTYPE svg PUBLIC "-//W3C//DTD SVG 1.0//EN"    "http://www.w3.org/TR/2001/REC-SVG-20010904/DTD/svg10.dtd" [
	<!ENTITY ns_flows "http://ns.adobe.com/Flows/1.0/">
	<!ENTITY ns_svg "http://www.w3.org/2000/svg">
	<!ENTITY ns_xlink "http://www.w3.org/1999/xlink">
]>
<svg  
	 width="147.402" height="55.459" viewBox="0 0 147.402 55.459" style="overflow:visible;enable-background:new 0 0 147.402 55.459"
	 xml:space="preserve">
	<g id="Layer_1">
		<circle style="fill:#D6D6D6;stroke:#000000;" cx="139.68" cy="35.926" r="6.364"/> 
		<g>
			
				<ellipse transform="matrix(0.342 0.9397 -0.9397 0.342 56.6038 -8.8643)" style="fill:#00A0C6;" cx="34.632" cy="35.987" rx="18.71" ry="24.438"/> 
			<circle cx="34.632" cy="35.987" r="16.971"/> 
			<line style="fill:none;stroke:#000000;stroke-width:0.5;stroke-dasharray:3;" x1="0.802" y1="48.299" x2="68.46" y2="23.674"/>
		</g>
		<g>
			<path style="fill:none;stroke:#FFFFFF;stroke-width:0.5;" d="M47.946,40.245c0.429-1.343,0.661-2.774,0.661-4.259
				c0-5.042-2.669-9.459-6.671-11.917"/>
			<path style="fill:#FFFFFF;" d="M39.878,22.804c1.188,0.235,2.766,0.36,3.909,0.168l-1.582,1.261l-0.409,1.98
				C41.45,25.108,40.625,23.757,39.878,22.804z"/>
		</g>
		<g>
			<path style="fill:none;stroke:#000000;stroke-width:0.5;" d="M139.248,25.845c-0.753-8.161-2.448-16.048-4.975-23.554"/>
			<path d="M133.504,0c0.762,0.942,1.893,2.048,2.893,2.633l-2.022-0.045l-1.583,1.259C133.235,2.776,133.467,1.211,133.504,0z"/>
		</g>
		<rect y="43.088" style="fill:none;" width="147.402" height="2.834"/> 
	</g>
</svg>
