<?xml version="1.0" encoding="UTF-8" standalone="no"?>
<!DOCTYPE svg PUBLIC "-//W3C//DTD SVG 20010904//EN"
"http://www.w3.org/TR/2001/REC-SVG-20010904/DTD/svg10.dtd">
<!-- Generator: Adobe Illustrator 11 Build 196, SVG Export Plug-In . SVG Version: 6.0.0 Build 78)  -->
<svg
   width="140.688"
   height="150.876"
   viewBox="0 0 140.688 150.876"
   style="overflow:visible;enable-background:new 0 0 140.688 150.876"
   xml:space="preserve"
   xmlns="http://www.w3.org/2000/svg"
   xmlns:xml="http://www.w3.org/XML/1998/namespace"
   xmlns:sodipodi="http://sodipodi.sourceforge.net/DTD/sodipodi-0.dtd"
   xmlns:inkscape="http://www.inkscape.org/namespaces/inkscape"
   xmlns:xlink="http://www.w3.org/1999/xlink"
   id="svg1"
   sodipodi:version="0.32"
   xmlns:rdf="http://www.w3.org/1999/02/22-rdf-syntax-ns#"
   xmlns:cc="http://web.resource.org/cc/"
   xmlns:dc="http://purl.org/dc/elements/1.1/"
   sodipodi:docname="tied-rocks-2.svg"
   sodipodi:docbase="/home/bcrowell/Documents/writing/lm/trunk/1np/ch03/figs"><defs
   id="defs89">
		
		
		
		
		
		
		
		
		
		
		
		
		
		
	
			
			
			
		
			
			
			
		
			
			
			
		
			
			
			
		</defs>
<metadata
   id="metadata88">
  <rdf:RDF
     id="RDF90">
    <cc:Work
       rdf:about=""
       id="Work91">
      <dc:format
         id="format92">image/svg+xml</dc:format>
      <dc:type
         id="type94"
         rdf:resource="http://purl.org/dc/dcmitype/StillImage" />
    </cc:Work>
  </rdf:RDF>
</metadata>
<sodipodi:namedview
   id="base"
   pagecolor="#ffffff"
   bordercolor="#666666"
   borderopacity="1.0"
   inkscape:pageopacity="0.0"
   inkscape:pageshadow="2"
   inkscape:zoom="3.3305494"
   inkscape:cx="56.275201"
   inkscape:cy="-1.2578223"
   inkscape:window-width="798"
   inkscape:window-height="576"
   inkscape:window-x="0"
   inkscape:window-y="0"
   inkscape:current-layer="svg1" />

	<style
   type="text/css"
   id="style3">
	
	</style>

	<rect
   style="fill:#e0e0e0;fill-opacity:1.0000000;stroke:none;stroke-width:0.62500000;stroke-linecap:butt;stroke-linejoin:miter;stroke-miterlimit:4.0000000;stroke-dasharray:1.2500000 0.62500002 ;stroke-dashoffset:0.0000000;stroke-opacity:1.0000000"
   id="rect110"
   width="46.097954"
   height="150.31941"
   x="49.605408"
   y="0.055524357" />
<polygon
   style="fill:#cbcbcb;fill-opacity:1.0000000;stroke:#000000;stroke-width:0.62500000;stroke-miterlimit:4.0000000;stroke-opacity:1.0000000"
   points="80.542000,18.881000 80.542000,23.081000 85.942000,22.481000 90.742000,20.081000 91.942000,14.081000 82.942000,11.081000 80.542000,18.881000 "
   id="polygon9"
   transform="translate(-3.736379e-33,1.035842e-6)" />
<polygon
   style="fill:#cbcbcb;fill-opacity:1.0000000;stroke:#000000;stroke-width:0.62500000;stroke-miterlimit:4.0000000;stroke-opacity:1.0000000"
   points="53.408000,18.581000 53.408000,28.181000 63.008000,29.381000 67.809000,23.981000 77.408000,26.381000 79.809000,14.981000 78.608000,12.581000 69.008000,9.5810000 66.608000,1.1810000 63.608000,4.1810000 54.008000,7.7810000 51.008000,13.781000 53.408000,18.581000 "
   id="polygon11"
   transform="translate(-3.736379e-33,1.035842e-6)" />
<path
   style="fill:none;stroke:#000000"
   d="M 51.375000,17.923000 C 56.175000,21.923000 95.375000,21.123000 92.975000,17.923000"
   id="path13" />
<rect
   style="fill:#e0e0e0;fill-opacity:1.0000000;stroke:none;stroke-width:0.62500000;stroke-linecap:butt;stroke-linejoin:miter;stroke-miterlimit:4.0000000;stroke-dasharray:1.2500000 0.62500002 ;stroke-dashoffset:0.0000000;stroke-opacity:1.0000000"
   id="rect109"
   width="46.996586"
   height="150.31941"
   x="0.051747974"
   y="0.55658984" />
<polygon
   style="fill:#cbcbcb;fill-opacity:1.0000000;stroke:#000000;stroke-width:0.62500000;stroke-miterlimit:4.0000000;stroke-opacity:1.0000000"
   points="34.275000,11.395000 34.275000,15.595000 39.675000,14.995000 44.475000,12.595000 45.675000,6.5950000 36.675000,3.5950000 34.275000,11.395000 "
   id="polygon16"
   transform="translate(-3.736379e-33,1.035842e-6)" />
<polygon
   style="fill:#a6a6a6;fill-opacity:1.0000000;stroke:#000000;stroke-opacity:1.0000000;stroke-width:0.62499998;stroke-miterlimit:4.0000000;stroke-dasharray:none;"
   points="34.275000,25.779000 34.275000,29.979000 39.675000,29.379000 44.475000,26.979000 45.675000,20.979000 36.675000,17.979000 34.275000,25.779000 "
   id="polygon18" />
<polygon
   style="fill:#cbcbcb;fill-opacity:1.0000000;stroke:#000000;stroke-width:0.62500000;stroke-miterlimit:4.0000000;stroke-opacity:1.0000000"
   points="2.6720000,21.894000 2.6720000,31.494000 12.272000,32.694000 17.073000,27.293000 26.672000,29.694000 29.073000,18.293000 27.873000,15.894000 18.272000,12.894000 15.873000,4.4940000 12.873000,7.4940000 3.2720000,11.093000 0.27200000,17.093000 2.6720000,21.894000 "
   id="polygon20"
   transform="translate(-3.736379e-33,1.035842e-6)" />
<polygon
   style="fill:#7f7f7f;stroke:#000000;stroke-width:0.50000000;"
   points="34.259,40.179 34.259,44.379 39.66,43.779 44.459,41.379     45.66,35.379 36.66,32.379 "
   id="polygon22" />
<polygon
   style="fill:#a6a6a6;fill-opacity:1.0000000;stroke:#000000;stroke-opacity:1.0000000;stroke-width:0.62499998;stroke-miterlimit:4.0000000;stroke-dasharray:none;"
   points="2.6720000,51.331000 2.6720000,60.931000 12.272000,62.130000 17.073000,56.730000 26.672000,59.130000 29.073000,47.730000 27.873000,45.331000 18.272000,42.331000 15.873000,33.930000 12.873000,36.930000 3.2720000,40.530000 0.27200000,46.530000 2.6720000,51.331000 "
   id="polygon24"
   transform="translate(1.035842e-6,-6.004780e-13)" />
<polygon
   style="fill:#7f7f7f;stroke:#000000;stroke-width:0.50000000;"
   points="2.679,98.207 2.679,107.807 12.279,109.007     17.079,103.607 26.679,106.007 29.08,94.607 27.879,92.207 18.279,89.207 15.879,80.807 12.879,83.807 3.279,87.407 0.279,93.407     "
   id="polygon26" />
<g
   id="g28">
			<polygon
   style="fill:#7F7F7F;stroke:#000000;stroke-width:0.5;"
   points="80.542,116.815 80.542,121.016 85.942,120.416      90.742,118.016 91.942,112.016 82.942,109.016 "
   id="polygon30" />

			<polygon
   style="fill:#7F7F7F;stroke:#000000;stroke-width:0.5;"
   points="53.408,116.516 53.408,126.116 63.008,127.315      67.809,121.916 77.408,124.315 79.809,112.916 78.608,110.516 69.008,107.516 66.608,99.116 63.608,102.116 54.008,105.715      51.008,111.716 "
   id="polygon32" />

			<path
   style="fill:none;stroke:#000000;stroke-width:3;"
   d="M51.075,116.674c4.8,4,44,3.2,41.6,0"
   id="path34" />

		</g>
<polygon
   style="fill:#a6a6a6;fill-opacity:1.0000000;stroke:#000000;stroke-opacity:1.0000000;stroke-width:0.62499998;stroke-miterlimit:4.0000000;stroke-dasharray:none;"
   points="80.408000,67.806000 80.408000,72.006000 85.809000,71.406000 90.608000,69.006000 91.809000,63.006000 82.809000,60.006000 80.408000,67.806000 "
   id="polygon39"
   transform="translate(1.035842e-6,-5.294237e-13)" />
<polygon
   style="fill:#a6a6a6;fill-opacity:1.0000000;stroke:#000000;stroke-opacity:1.0000000;stroke-width:0.62499998;stroke-miterlimit:4.0000000;stroke-dasharray:none;"
   points="53.275000,67.506000 53.275000,77.106000 62.875000,78.306000 67.675000,72.906000 77.275000,75.306000 79.675000,63.906000 78.475000,61.506000 68.875000,58.506000 66.475000,50.106000 63.475000,53.106000 53.875000,56.706000 50.875000,62.706000 53.275000,67.506000 "
   id="polygon41"
   transform="translate(1.035842e-6,-6.004780e-13)" />
<path
   style="fill:none;stroke:#000000"
   d="M 50.620001,66.896000 C 55.420001,70.896000 94.620006,70.096000 92.219999,66.896000"
   id="path43" />
<rect
   style="fill:#e0e0e0;fill-opacity:1.0000000;stroke:none;stroke-width:0.62500000;stroke-linecap:butt;stroke-linejoin:miter;stroke-miterlimit:4.0000000;stroke-dasharray:1.2500000 0.62500002 ;stroke-dashoffset:0.0000000;stroke-opacity:1.0000000"
   id="rect111"
   width="42.251259"
   height="150.31941"
   x="98.091927"
   y="0.55658966" />
<polygon
   style="fill:#cbcbcb;fill-opacity:1.0000000;stroke:#000000;stroke-width:0.62500000;stroke-miterlimit:4.0000000;stroke-opacity:1.0000000"
   points="128.61500,11.868000 130.05100,15.814000 134.92000,13.403000 138.61000,9.5060000 137.68600,3.4580000 128.20300,3.7170000 128.61500,11.868000 "
   id="polygon48"
   transform="translate(-3.736379e-33,1.035842e-6)" />
<polygon
   style="fill:#cbcbcb;fill-opacity:1.0000000;stroke:#000000;stroke-width:0.62500000;stroke-miterlimit:4.0000000;stroke-opacity:1.0000000"
   points="103.01500,20.865000 106.29800,29.886000 115.73000,27.731000 118.39400,21.015000 128.23600,19.987000 126.59200,8.4530000 124.64400,6.6080000 114.59600,7.0730000 109.46800,0.0000000 107.67500,3.8450000 99.885000,10.511000 99.118000,17.176000 103.01500,20.865000 "
   id="polygon50"
   transform="translate(-3.736379e-33,1.035842e-6)" />
<path
   style="fill:none;stroke:#000000"
   d="M 100.87900,20.942000 C 106.75700,23.059000 143.32000,8.9000000 139.97100,6.7140001"
   id="path52" />
<polygon
   style="fill:#a6a6a6;fill-opacity:1.0000000;stroke:#000000;stroke-opacity:1.0000000;stroke-width:0.62499998;stroke-miterlimit:4.0000000;stroke-dasharray:none;"
   points="127.95500,32.026000 130.97800,34.941000 134.29400,30.638000 135.89800,25.517000 132.41200,20.488000 124.00600,24.885000 127.95500,32.026000 "
   id="polygon71"
   transform="translate(1.035842e-6,-3.162609e-13)" />
<polygon
   style="fill:#a6a6a6;fill-opacity:1.0000000;stroke:#000000;stroke-opacity:1.0000000;stroke-width:0.62499998;stroke-miterlimit:4.0000000;stroke-dasharray:none;"
   points="108.90600,51.350000 115.81600,58.014000 123.34300,51.936000 122.78800,44.732000 131.17900,39.487000 124.63800,29.847000 122.07800,29.045000 113.25500,33.874000 105.54200,29.771000 105.62000,34.013000 101.54800,43.422000 103.78500,49.746000 108.90600,51.350000 "
   id="polygon73"
   transform="translate(1.035842e-6,-6.004780e-13)" />
<path
   style="fill:none;stroke:#000000"
   d="M 106.62400,52.838000 C 112.83500,52.159000 139.46800,23.385000 135.49900,22.892000"
   id="path75" />
<g
   id="g78">
			<polygon
   style="fill:#7F7F7F;stroke:#000000;stroke-width:0.5;"
   points="125.055,57.24 129.125,58.272 129.872,52.89      128.725,47.647 123.204,45.01 118.084,52.996 "
   id="polygon80" />

			<polygon
   style="fill:#7F7F7F;stroke:#000000;stroke-width:0.5;"
   points="118.094,83.466 127.399,85.826 130.922,76.816      126.868,70.836 131.554,62.12 121.094,56.992 118.473,57.565 113.205,66.133 104.473,66.395 106.643,70.04 107.773,80.23      112.852,84.613 "
   id="polygon82" />

			<path
   style="fill:none;stroke:#000000;stroke-width:3;"
   d="M117.674,85.767c5.057-3.669,13.917-41.863,10.226-40.323"
   id="path84" />

		</g>

<text
   xml:space="preserve"
   style="font-size:8.0000000;font-style:normal;font-variant:normal;font-weight:normal;font-stretch:normal;fill:#000000;fill-opacity:1.0000000;stroke:none;stroke-width:1.0000000pt;stroke-linecap:butt;stroke-linejoin:miter;stroke-opacity:1.0000000;font-family:Liberation Sans;text-anchor:start;writing-mode:lr-tb"
   x="21.813009"
   y="145.56209"
   id="text100"
   sodipodi:linespacing="100%"><tspan
     sodipodi:role="line"
     id="tspan101"
     x="21.813009"
     y="145.56209">1</tspan></text>
<text
   xml:space="preserve"
   style="font-size:8.0000000;font-style:normal;font-variant:normal;font-weight:normal;font-stretch:normal;fill:#000000;fill-opacity:1.0000000;stroke:none;stroke-width:1.0000000pt;stroke-linecap:butt;stroke-linejoin:miter;stroke-opacity:1.0000000;font-family:Liberation Sans;text-anchor:start;writing-mode:lr-tb"
   x="70.652069"
   y="145.61482"
   id="text103"
   sodipodi:linespacing="100%"><tspan
     sodipodi:role="line"
     id="tspan104"
     x="70.652069"
     y="145.61482">2</tspan></text>
<text
   xml:space="preserve"
   style="font-size:8.0000000;font-style:normal;font-variant:normal;font-weight:normal;font-stretch:normal;fill:#000000;fill-opacity:1.0000000;stroke:none;stroke-width:1.0000000pt;stroke-linecap:butt;stroke-linejoin:miter;stroke-opacity:1.0000000;font-family:Liberation Sans;text-anchor:start;writing-mode:lr-tb"
   x="117.3749"
   y="145.55818"
   id="text106"
   sodipodi:linespacing="100%"><tspan
     sodipodi:role="line"
     id="tspan107"
     x="117.37490"
     y="145.55818">3</tspan></text>
</svg>
