<?xml version="1.0" encoding="UTF-8" standalone="no"?>
<!DOCTYPE svg PUBLIC "-//W3C//DTD SVG 20010904//EN"
"http://www.w3.org/TR/2001/REC-SVG-20010904/DTD/svg10.dtd">
<!-- Generator: Adobe Illustrator 11 Build 196, SVG Export Plug-In . SVG Version: 6.0.0 Build 78)  -->
<svg
   width="132.687"
   height="67.104"
   viewBox="0 0 132.687 67.104"
   style="overflow:visible;enable-background:new 0 0 132.687 67.104"
   xml:space="preserve"
   xmlns="http://www.w3.org/2000/svg"
   xmlns:xml="http://www.w3.org/XML/1998/namespace"
   xmlns:sodipodi="http://sodipodi.sourceforge.net/DTD/sodipodi-0.dtd"
   xmlns:inkscape="http://www.inkscape.org/namespaces/inkscape"
   xmlns:xlink="http://www.w3.org/1999/xlink"
   id="svg413"
   sodipodi:version="0.32"
   xmlns:rdf="http://www.w3.org/1999/02/22-rdf-syntax-ns#"
   xmlns:cc="http://web.resource.org/cc/"
   xmlns:dc="http://purl.org/dc/elements/1.1/"
   sodipodi:docname="tied-rocks-1.svg"
   sodipodi:docbase="/home/bcrowell/Documents/writing/lm/trunk/1np/ch03/figs"><defs
   id="defs448">
		
		
		
		
		
		
		
		
		
		
		
		
		
		
		
	</defs>
<metadata
   id="metadata447">
  <rdf:RDF
     id="RDF449">
    <cc:Work
       rdf:about=""
       id="Work450">
      <dc:format
         id="format451">image/svg+xml</dc:format>
      <dc:type
         id="type453"
         rdf:resource="http://purl.org/dc/dcmitype/StillImage" />
    </cc:Work>
  </rdf:RDF>
</metadata>
<sodipodi:namedview
   id="base"
   pagecolor="#ffffff"
   bordercolor="#666666"
   borderopacity="1.0"
   inkscape:pageopacity="0.0"
   inkscape:pageshadow="2"
   inkscape:zoom="5.1625255"
   inkscape:cx="75.079532"
   inkscape:cy="20.148229"
   inkscape:window-width="640"
   inkscape:window-height="536"
   inkscape:window-x="-9"
   inkscape:window-y="-1"
   inkscape:current-layer="svg413" />

	<rect
   style="fill:#e0e0e0;fill-opacity:1.0000000;stroke:none;stroke-width:0.62500006;stroke-linecap:butt;stroke-linejoin:miter;stroke-miterlimit:4.0000000;stroke-dashoffset:0.0000000;stroke-opacity:1.0000000;"
   id="rect673"
   width="133.67294"
   height="67.421043"
   x="-1.9109302e-06"
   y="0.072671711" />
<polygon
   style="fill:#cbcbcb;fill-opacity:1.0000000;stroke:#000000;stroke-width:0.62500006;stroke-miterlimit:4.0000000;stroke-opacity:1.0000000"
   points="118.94700,20.056000 118.94700,24.256000 124.34700,23.656000 129.14700,21.256000 130.34700,15.256000 121.34700,12.256000 118.94700,20.056000 "
   id="polygon416"
   transform="translate(0.213160,-0.824683)" />
<polygon
   style="fill:#cbcbcb;fill-opacity:1.0000000;stroke:#000000;stroke-width:0.62500006;stroke-miterlimit:4.0000000;stroke-opacity:1.0000000"
   points="91.813000,19.756000 91.813000,29.356000 101.41400,30.556000 106.21400,25.156000 115.81400,27.556000 118.21400,16.156000 117.01400,13.756000 107.41400,10.756000 105.01400,2.3560000 102.01400,5.3560000 92.414000,8.9560000 89.414000,14.956000 91.813000,19.756000 "
   id="polygon418"
   transform="translate(0.213160,-0.824683)" />
<path
   style="fill:none;stroke:#000000"
   d="M 89.993159,18.273317 C 94.793156,22.273317 133.99316,21.473317 131.59316,18.273317"
   id="path420" />
<polygon
   style="fill:#cbcbcb;fill-opacity:1.0000000;stroke:#000000;stroke-width:0.62500006;stroke-miterlimit:4.0000000;stroke-opacity:1.0000000"
   points="52.213000,17.700000 52.213000,21.900000 57.614000,21.300000 62.414000,18.900000 63.614000,12.900000 54.614000,9.9000000 52.213000,17.700000 "
   id="polygon422"
   transform="translate(0.213160,0.781587)" />
<polygon
   style="fill:#a6a6a6;fill-opacity:1.0000000;stroke:#000000;stroke-width:0.62500006;stroke-miterlimit:4.0000000;stroke-opacity:1.0000000"
   points="52.213000,31.307000 52.213000,35.506000 57.614000,34.906000 62.414000,32.506000 63.614000,26.506000 54.614000,23.506000 52.213000,31.307000 "
   id="polygon424"
   transform="translate(0.213160,0.781587)" />
<polygon
   style="fill:#cbcbcb;fill-opacity:1.0000000;stroke:#000000;stroke-width:0.62500006;stroke-miterlimit:4.0000000;stroke-opacity:1.0000000"
   points="2.6800000,17.400000 2.6800000,27.000000 12.280000,28.200000 17.080000,22.800000 26.680000,25.200000 29.080000,13.800000 27.880000,11.400000 18.280000,8.4000000 15.880000,0.0000000 12.880000,3.0000000 3.2800000,6.6000000 0.28000000,12.600000 2.6800000,17.400000 "
   id="polygon426"
   transform="translate(0.213160,0.781587)" />
<polygon
   style="fill:#7f7f7f;stroke:#000000;stroke-width:0.62500006;stroke-miterlimit:4.0000000"
   points="52.213000,53.984000 52.213000,58.184000 57.614000,57.584000 62.414000,55.184000 63.614000,49.184000 54.614000,46.184000 52.213000,53.984000 "
   id="polygon428"
   transform="translate(0.213160,0.781587)" />
<polygon
   style="fill:#a6a6a6;fill-opacity:1.0000000;stroke:#000000;stroke-width:0.62500006;stroke-miterlimit:4.0000000;stroke-opacity:1.0000000"
   points="2.6800000,31.006000 2.6800000,40.606000 12.280000,41.807000 17.080000,36.406000 26.680000,38.807000 29.080000,27.406000 27.880000,25.006000 18.280000,22.006000 15.880000,13.606000 12.880000,16.606000 3.2800000,20.206000 0.28000000,26.207000 2.6800000,31.006000 "
   id="polygon430"
   transform="translate(0.213160,0.781587)" />
<polygon
   style="fill:#7f7f7f;stroke:#000000;stroke-width:0.62500006;stroke-miterlimit:4.0000000"
   points="2.6800000,53.684000 2.6800000,63.284000 12.280000,64.484000 17.080000,59.084000 26.680000,61.484000 29.080000,50.084000 27.880000,47.684000 18.280000,44.684000 15.880000,36.284000 12.880000,39.284000 3.2800000,42.884000 0.28000000,48.884000 2.6800000,53.684000 "
   id="polygon432"
   transform="translate(0.213160,0.781587)" />
<polygon
   style="fill:#a6a6a6;fill-opacity:1.0000000;stroke:#000000;stroke-width:0.62500006;stroke-miterlimit:4.0000000;stroke-opacity:1.0000000"
   points="118.94700,33.663000 118.94700,37.863000 124.34700,37.263000 129.14700,34.862000 130.34700,28.862000 121.34700,25.862000 118.94700,33.663000 "
   id="polygon434"
   transform="translate(0.213160,-0.824683)" />
<polygon
   style="fill:#7f7f7f;stroke:#000000;stroke-width:0.50000000"
   points="118.94700,56.340000 118.94700,60.540000 124.34700,59.940000 129.14700,57.540000 130.34700,51.540000 121.34700,48.540000 118.94700,56.340000 "
   id="polygon436"
   transform="translate(0.213160,-0.824683)" />
<polygon
   style="fill:#a6a6a6;fill-opacity:1.0000000;stroke:#000000;stroke-width:0.62500006;stroke-miterlimit:4.0000000;stroke-opacity:1.0000000"
   points="91.813000,33.362000 91.813000,42.963000 101.41400,44.163000 106.21400,38.763000 115.81400,41.163000 118.21400,29.763000 117.01400,27.362000 107.41400,24.362000 105.01400,15.962000 102.01400,18.962000 92.414000,22.562000 89.414000,28.562000 91.813000,33.362000 "
   id="polygon438"
   transform="translate(0.213160,-0.824683)" />
<polygon
   style="fill:#7f7f7f;stroke:#000000;stroke-width:0.62500006;stroke-miterlimit:4.0000000"
   points="91.813000,56.040000 91.813000,65.640000 101.41400,66.840000 106.21400,61.440000 115.81400,63.840000 118.21400,52.440000 117.01400,50.040000 107.41400,47.040000 105.01400,38.640000 102.01400,41.640000 92.414000,45.240000 89.414000,51.240000 91.813000,56.040000 "
   id="polygon440"
   transform="translate(0.213160,-0.824683)" />
<path
   style="fill:none;stroke:#000000;stroke-width:3.0000000"
   d="M 89.693159,55.373317 C 94.493156,59.373317 133.69316,58.573317 131.29316,55.373317"
   id="path442" />
<path
   style="fill:none;stroke:#000000"
   d="M 89.372162,31.928317 C 94.172156,35.928317 133.37216,35.128317 130.97216,31.928317"
   id="path444" />

</svg>
