<?xml version="1.0" encoding="iso-8859-1"?>
<!-- Generator: Adobe Illustrator 11 Build 196, SVG Export Plug-In . SVG Version: 6.0.0 Build 78)  -->
<!DOCTYPE svg PUBLIC "-//W3C//DTD SVG 1.0//EN"    "http://www.w3.org/TR/2001/REC-SVG-20010904/DTD/svg10.dtd" [
	<!ENTITY ns_flows "http://ns.adobe.com/Flows/1.0/">
	<!ENTITY ns_svg "http://www.w3.org/2000/svg">
	<!ENTITY ns_xlink "http://www.w3.org/1999/xlink">
]>
<svg  
	 width="115.911" height="54.275" viewBox="0 0 115.911 54.275" style="overflow:visible;enable-background:new 0 0 115.911 54.275"
	 xml:space="preserve">
	<style type="text/css">
	
	</style>
	<g id="Layer_1">
		<g>
			<line style="fill:none;stroke:#000000;" x1="29.5" y1="0.091" x2="37" y2="40.591"/>
			<path d="M38.099,46.525c-1.553-2.6-3.963-5.737-6.232-7.538l4.989,0.825l4.362-2.557C39.744,39.75,38.618,43.542,38.099,46.525z"
				/>
		</g>
		<text transform="matrix(1 0 0 1 0 37.0913)"><tspan x="0" y="0" style="font-family:Liberation Sans-Bold'; font-size:7.650000;">B</tspan></text>
		<text transform="matrix(1 0 0 1 39.3335 23.0913)"><tspan x="0" y="0" style="font-family:Liberation Sans-Bold'; font-size:7.650000;">A</tspan></text>
		<line style="fill:none;stroke:#000000;" x1="78.776" y1="3.191" x2="86.276" y2="43.691"/>
		<path d="M87.375,49.625c-1.553-2.6-3.963-5.737-6.231-7.538l4.988,0.826l4.362-2.557C89.021,42.85,87.894,46.642,87.375,49.625z"
			/>
		<line style="fill:none;stroke:#000000;" x1="88.165" y1="48.659" x2="103.451" y2="36.042"/>
		<path d="M108.106,32.2c-1.52,2.62-3.093,6.25-3.565,9.107l-1.7-4.762l-4.353-2.572C101.383,34.051,105.246,33.195,108.106,32.2z"
			/>
		<g>
			<line style="fill:none;stroke:#000000;" x1="79.886" y1="3.596" x2="103.219" y2="27.596"/>
			<path d="M107.426,31.923c-2.735-1.302-6.48-2.574-9.367-2.813l4.607-2.082l2.211-4.547
				C105.035,25.374,106.201,29.153,107.426,31.923z"/>
		</g>
		<text transform="matrix(1 0 0 1 97.6562 10.3462)"><tspan x="0" y="0" style="font-family:Liberation Sans-Bold'; font-size:7.650000;">A</tspan><tspan x="6.5" y="0" style="font-family:Liberation Sans; font-size:7.650000;">+</tspan><tspan x="11.756" y="0" style="font-family:Liberation Sans-Bold'; font-size:7.650000;">B</tspan></text>
		<text transform="matrix(1 0 0 1 68.418 29.5786)"><tspan x="0" y="0" style="font-family:Liberation Sans-Bold'; font-size:7.650000;">A</tspan></text>
		<text transform="matrix(1 0 0 1 95.752 50.2456)"><tspan x="0" y="0" style="font-family:Liberation Sans-Bold'; font-size:7.650000;">B</tspan></text>
		<line style="fill:none;stroke:#000000;" x1="0.672" y1="47.176" x2="15.959" y2="34.559"/>
		<path d="M20.614,30.717c-1.519,2.62-3.092,6.25-3.565,9.107l-1.7-4.762l-4.353-2.572C13.891,32.569,17.753,31.712,20.614,30.717z"
			/>
	</g>
</svg>
