<?xml version="1.0" encoding="iso-8859-1"?>
<!-- Generator: Adobe Illustrator 11 Build 196, SVG Export Plug-In . SVG Version: 6.0.0 Build 78)  -->
<!DOCTYPE svg PUBLIC "-//W3C//DTD SVG 1.0//EN"    "http://www.w3.org/TR/2001/REC-SVG-20010904/DTD/svg10.dtd" [
	<!ENTITY ns_flows "http://ns.adobe.com/Flows/1.0/">
	<!ENTITY ns_svg "http://www.w3.org/2000/svg">
	<!ENTITY ns_xlink "http://www.w3.org/1999/xlink">
]>
<svg  
	 width="147.401" height="111.39" viewBox="0 0 147.401 111.39" style="overflow:visible;enable-background:new 0 0 147.401 111.39"
	 xml:space="preserve">
	<style type="text/css">
	
	</style>
	<g id="Layer_1">
		<g>
			<g>
				<text transform="matrix(1 0 0 1 6.8467 12)"><tspan x="0" y="0" style="font-family:Liberation Sans; font-size:10.200000;">axis</tspan></text>
			</g>
		</g>
		<circle cx="110.43" cy="19.688" r="1.885"/> 
		<g>
			<line style="fill:none;stroke:#000000;" x1="16.225" y1="17.92" x2="19.76" y2="21.456"/>
			<line style="fill:none;stroke:#000000;" x1="16.225" y1="21.456" x2="19.76" y2="17.92"/>
		</g>
		<g>
			<line style="fill:none;stroke:#000000;" x1="138.18" y1="19.688" x2="121.18" y2="19.688"/>
			<path d="M117.559,19.688c1.704-0.632,3.818-1.711,5.128-2.854l-1.032,2.854l1.032,2.853
				C121.376,21.399,119.263,20.32,117.559,19.688z"/>
		</g>
		<g>
			<g>
				<text transform="matrix(1 0 0 1 126.8467 15.3335)"><tspan x="0" y="0" style="font-family:Liberation Sans; font-size:10.200000;">F</tspan></text>
			</g>
		</g>
		<circle cx="110.43" cy="67.9" r="1.885"/> 
		<g>
			<line style="fill:none;stroke:#000000;" x1="16.225" y1="66.132" x2="19.76" y2="69.667"/>
			<line style="fill:none;stroke:#000000;" x1="16.225" y1="69.667" x2="19.76" y2="66.132"/>
		</g>
		<g>
			<line style="fill:none;stroke:#000000;" x1="110.244" y1="93.345" x2="110.244" y2="76.345"/>
			<path d="M110.244,72.724c0.632,1.704,1.711,3.818,2.853,5.128l-2.853-1.032l-2.853,1.032
				C108.533,76.542,109.612,74.428,110.244,72.724z"/>
		</g>
		<g>
			<g>
				<text transform="matrix(1 0 0 1 107.1797 106.0347)"><tspan x="0" y="0" style="font-family:Liberation Sans; font-size:10.200000;">F</tspan></text>
			</g>
		</g>
		<rect y="35.208" style="fill:none;" width="147.401" height="2.834"/> 
	</g>
</svg>
