<?xml version="1.0" encoding="iso-8859-1"?>
<!-- Generator: Adobe Illustrator 11 Build 196, SVG Export Plug-In . SVG Version: 6.0.0 Build 78)  -->
<!DOCTYPE svg PUBLIC "-//W3C//DTD SVG 1.0//EN"    "http://www.w3.org/TR/2001/REC-SVG-20010904/DTD/svg10.dtd" [
	<!ENTITY ns_flows "http://ns.adobe.com/Flows/1.0/">
	<!ENTITY ns_svg "http://www.w3.org/2000/svg">
	<!ENTITY ns_xlink "http://www.w3.org/1999/xlink">
]>
<svg  
	 width="147.401" height="49.608" viewBox="0 0 147.401 49.608" style="overflow:visible;enable-background:new 0 0 147.401 49.608"
	 xml:space="preserve">
	<g id="Layer_1">
		<g>
			<line style="fill:#D6D6D6;stroke:#000000;" x1="83.326" y1="26.108" x2="21.076" y2="26.108"/>
			<g>
				<rect x="99.883" y="22.214" style="fill:#FFFFFF;" width="9.503" height="6.006"/> 
				<path style="fill:#D6D6D6;stroke:#000000;" d="M102.431,20.669l3.844,0.389c-0.091,0.9-0.895,1.556-1.794,1.465l-5.976-0.605
					c-0.849-0.086-1.479-0.805-1.473-1.641C95.722,13.717,101.436,18.951,102.431,20.669z"/>
				<rect x="109.276" y="21.532" style="fill:#EDEDED;" width="12.285" height="9.828"/> 
				
					<rect x="108.15" y="19.74" transform="matrix(-0.1445 0.9895 -0.9895 -0.1445 154.0072 -74.4201)" style="fill:#FFFFFF;stroke:#000000;" width="2.047" height="19.247"/> 
				
					<rect x="116.906" y="23.463" transform="matrix(-0.999 -0.044 0.044 -0.999 235.1935 56.3584)" style="fill:#FFFFFF;stroke:#000000;" width="2.621" height="4.259"/> 
				<path style="fill:#FFFFFF;stroke:#000000;" d="M111.733,19.075h11.875c1.81,0,3.276,1.467,3.276,3.276v0.819h-1.229v8.698
					c-0.561,0.45-1.272,0.721-2.047,0.721h-2.457v-5.733c0-1.81-1.467-3.276-3.276-3.276h-9.419v-1.229
					C108.457,20.542,109.923,19.075,111.733,19.075z"/>
				<circle style="stroke:#000000;" cx="122.653" cy="34.917" r="4.633"/> 
				<circle style="fill:#FFFFFF;stroke:#000000;" cx="122.653" cy="34.917" r="3.336"/> 
				
					<rect x="112.757" y="24.603" transform="matrix(0.0973 0.9953 -0.9953 0.0973 130.3955 -89.2403)" style="fill:#FFFFFF;stroke:#000000;" width="3.276" height="5.324"/> 
				<path style="fill:#FFFFFF;stroke:#000000;" d="M99.311,30.678h8.122c1.248,0,2.306-0.799,2.7-1.912h1.431
					c0.019,0.134,0.032,0.271,0.032,0.41c0,1.583-1.283,2.867-2.866,2.867h-9.419V30.678z"/>
				<path style="fill:#FFFFFF;stroke:#000000;" d="M90.169,28.784l-7.74-9.545c2.298-1.947,5.27-3.123,8.517-3.123
					c4.669,0,8.77,2.43,11.112,6.091L90.169,28.784z"/>
				<circle cx="90.795" cy="28.698" r="10.989"/> 
				<circle style="fill:#FFFFFF;" cx="90.795" cy="28.698" r="7.033"/> 
				<circle style="fill:none;stroke:#000000;" cx="90.795" cy="28.698" r="2.462"/> 
				<line style="fill:#FFFFFF;stroke:#000000;stroke-width:2;" x1="108.184" y1="18.529" x2="109.276" y2="21.532"/>
				
					<ellipse transform="matrix(0.196 0.9806 -0.9806 0.196 104.1462 -91.1195)" style="fill:#FFFFFF;stroke:#000000;stroke-width:2;" cx="107.638" cy="17.948" rx="1.448" ry="4.633"/> 
				<path d="M110.458,27.334c-0.682,0.228-1.374,0.394-2.074,0.542l-0.192,0.018c-0.192,0.026-0.376-0.043-0.507-0.175l-0.149-0.149
					c-0.114-0.114-0.175-0.263-0.184-0.42l-0.009-0.228c-0.149-1.146-0.114-2.301-0.464-3.439c-0.28-0.893,0.035-1.837-0.201-2.739
					l-0.167-0.341l0.245,0.271l0.044-0.018c-1.146-0.07-2.292-0.026-3.439-0.035h-0.394c-0.14,0-0.263-0.044-0.376-0.123
					l-0.149-0.105c-0.14-0.105-0.227-0.253-0.253-0.429l-0.035-0.28c-0.044-1.059-0.525-2.013-0.639-3.071
					c-0.263-2.468-0.14-4.9-0.341-7.341c-0.009-0.35,0.271-0.639,0.613-0.647c0.35-0.009,0.639,0.262,0.647,0.612
					c0.228,3.36-0.035,6.772,0.98,10.028l0.026,0.534l-0.253-0.429l0.148,0.114l-0.367-0.123h0.394
					c1.19,0.026,2.372-0.052,3.562,0.043l0.481,0.193c0.105,0.061,0.184,0.148,0.245,0.253l0.148,0.368
					c0.114,0.28,0.193,0.578,0.219,0.875c0.061,0.744-0.096,1.496,0.114,2.196c0.35,1.138,0.271,2.275,0.472,3.404l0.009,0.412
					l-0.184-0.429l0.14,0.149l-0.508-0.184l0.289-0.035c0.647-0.114,1.251-0.359,1.881-0.516c0.341-0.062,0.674,0.166,0.735,0.507
					C111.027,26.941,110.8,27.273,110.458,27.334L110.458,27.334z"/>
				<path d="M107.965,19.083c-0.918-0.113-1.776,0.298-2.686,0.254c-0.202-0.009-0.438-0.07-0.578-0.21
					c-1.435-1.392-2.582-2.817-3.78-4.506c-0.201-0.297-0.394-0.569-0.507-0.901c-0.149-0.315-0.018-0.691,0.297-0.84
					c0.315-0.14,0.691-0.009,0.84,0.306c0.901,1.855,2.564,3.141,3.693,4.839c0.919,0.07,1.794-0.35,2.721-0.201
					c0.35,0,0.63,0.28,0.63,0.63S108.315,19.083,107.965,19.083L107.965,19.083z"/>
				<path d="M107.606,16.808c-0.927,0.289-2.012,0.499-2.914,0.035l-0.079-0.026c-0.114-0.035-0.21-0.096-0.289-0.184l-0.262-0.376
					c-0.647-1.969-1.838-3.649-2.695-5.521c-0.114-0.324,0.053-0.691,0.376-0.805c0.324-0.123,0.691,0.043,0.805,0.367
					c0.796,1.715,1.908,3.264,2.512,5.066l0.219,0.446l-0.28-0.192l0.481,0.21c-0.035-0.009-0.07-0.018-0.105-0.026
					c0.612,0.097,1.251,0.018,1.829-0.184c0.333-0.114,0.683,0.061,0.796,0.394S107.938,16.694,107.606,16.808L107.606,16.808z"/>
				<path d="M101.805,9.143c-1.05-0.009-1.995,0.507-3.027,0.612l-0.412,0.062l0.429-0.263l-0.114,0.167l-0.009-0.735l0.166,0.228
					c0.639,1.392,1.549,2.573,2.564,3.78c1.041,1.242,1.085,2.835,1.435,4.393c0.123,0.499,0.507,0.875,0.639,1.382
					c0.123,0.324-0.053,0.683-0.376,0.805c-0.324,0.114-0.691-0.052-0.805-0.385c-0.901-1.338-0.805-2.983-1.365-4.462
					c-0.096-0.254-0.184-0.516-0.341-0.726c-0.91-1.234-1.951-2.231-2.555-3.605l-0.376-0.666c-0.157-0.218-0.167-0.507-0.009-0.735
					l0.114-0.157c0.096-0.14,0.254-0.236,0.429-0.263l0.411-0.061c1.076-0.149,2.083-0.666,3.203-0.63c0.35,0,0.63,0.28,0.63,0.63
					C102.435,8.863,102.155,9.143,101.805,9.143L101.805,9.143z"/>
				<path d="M105.363,3.93c-1.089-0.164-2.179-0.118-3.288,0.039c-0.978,0.138-1.936,0.066-2.901,0.072h-0.111
					c-0.118,0-0.229-0.04-0.315-0.118l-0.276-0.302c-0.125-0.485-0.328-0.998-0.151-1.49c0.407-1.116,1.588-1.582,2.585-2.074
					c0.178-0.085,0.394-0.066,0.604-0.013c1.253,0.289,1.556,1.522,1.831,2.566c0.072,0.25-0.072,0.512-0.322,0.584
					c-0.249,0.072-0.512-0.072-0.584-0.329c-0.229-0.748-0.374-1.542-1.109-1.981c-0.768,0.518-2.304,0.859-2.067,2.047l0.112,0.282
					l-0.309-0.118h0.275c1.253,0.006,2.494-0.033,3.761-0.177c0.813-0.085,1.627-0.079,2.435,0.079
					c0.256,0.046,0.427,0.295,0.38,0.551C105.868,3.805,105.619,3.976,105.363,3.93L105.363,3.93z"/>
				<path d="M99.483,4.554c0.269,0.472,0.033,1.162,0.532,1.529c0.197,0.171,0.216,0.466,0.046,0.663
					c-0.171,0.197-0.466,0.216-0.663,0.046c-0.663-0.414-0.551-1.253-0.794-1.896c-0.092-0.25,0.026-0.519,0.269-0.611
					C99.122,4.192,99.391,4.311,99.483,4.554L99.483,4.554z"/>
				<path d="M103.683,3.877c0.138,0.381,0.322,0.755,0.341,1.168l0.006,0.21l-0.151-0.348l0.105,0.099
					c0.099,0.092,0.151,0.216,0.151,0.348c0,0.263-0.21,0.473-0.472,0.473h-0.145c-0.23,0-0.466,0-0.696,0h-0.131l0.407-0.236
					l-0.013-0.105c0.229,1.024-0.545,1.746-1.378,2.186c-0.203,0.164-0.505,0.131-0.663-0.072c-0.164-0.204-0.131-0.505,0.072-0.669
					c0.564-0.341,1.194-0.696,1.043-1.463l0.118-0.348c0.085-0.145,0.243-0.236,0.414-0.236h0.374c0.098,0,0.203,0,0.302,0h0.295
					l-0.322,0.82l-0.105-0.099c-0.092-0.085-0.151-0.21-0.151-0.341l0.059-0.151c-0.066-0.315-0.348-0.525-0.282-0.899
					c-0.02,0.006-0.04,0.006-0.059,0.013c-0.099-0.243,0.026-0.519,0.269-0.61C103.315,3.517,103.584,3.635,103.683,3.877
					L103.683,3.877z"/>
			</g>
			<path style="fill:#D6D6D6;stroke:#000000;" d="M19.576,25.108h15c0,0-0.5,13.75,8.75,15S16.076,40.858,19.576,25.108z"/>
			<path style="fill:#D6D6D6;stroke:#000000;" d="M15.576,41.108l3.75-2.25l6.5-0.25c0,0,1.75,3,2.5,2.75s6.25-2.75,6.25-2.75h6.5
				l12.25,1c0,0-1.25,3,1.25,3s10,0.25,11,0s4.75-0.75,5.75-0.75s7.5-2.5,8.5-2.5s5.25,0.5,6,0.5s11.75-0.25,11.75-0.25l7.75-1.25
				l6.75,0.25l9.75,2.25l4.25-1.25l5.75,1.75v7.75h-116.5L15.576,41.108z"/>
		</g>
		<rect y="43.566" style="fill:none;" width="147.401" height="2.835"/> 
	</g>
</svg>
