<?xml version="1.0" encoding="iso-8859-1"?>
<!-- Generator: Adobe Illustrator 11 Build 196, SVG Export Plug-In . SVG Version: 6.0.0 Build 78)  -->
<!DOCTYPE svg PUBLIC "-//W3C//DTD SVG 1.0//EN"    "http://www.w3.org/TR/2001/REC-SVG-20010904/DTD/svg10.dtd" [
	<!ENTITY ns_flows "http://ns.adobe.com/Flows/1.0/">
	<!ENTITY ns_svg "http://www.w3.org/2000/svg">
	<!ENTITY ns_xlink "http://www.w3.org/1999/xlink">
]>
<svg  
	 width="147.402" height="111.012" viewBox="0 0 147.402 111.012"
	 style="overflow:visible;enable-background:new 0 0 147.402 111.012" xml:space="preserve">
	<g id="Layer_1">
		
			<rect x="35.286" y="27.047" transform="matrix(-0.7117 0.7025 -0.7025 -0.7117 87.8944 34.9)" style="fill:#B5B5B5;stroke:#000000;" width="3" height="16.875"/> 
		<g>
			<rect x="95.829" y="22.215" style="fill:#FFFFFF;" width="9.503" height="6.006"/> 
			<path style="fill:#D6D6D6;stroke:#000000;" d="M98.376,20.67l3.844,0.389c-0.091,0.9-0.895,1.556-1.795,1.465l-5.975-0.605
				c-0.849-0.086-1.479-0.805-1.473-1.642C91.667,13.717,97.381,18.951,98.376,20.67z"/>
			<rect x="105.221" y="21.532" style="fill:#EDEDED;" width="12.285" height="9.828"/> 
			
				<rect x="104.095" y="19.741" transform="matrix(-0.1445 0.9895 -0.9895 -0.1445 149.3636 -70.4089)" style="fill:#FFFFFF;stroke:#000000;" width="2.048" height="19.247"/> 
			
				<rect x="112.852" y="23.464" transform="matrix(-0.999 -0.044 0.044 -0.999 227.088 56.1811)" style="fill:#FFFFFF;stroke:#000000;" width="2.621" height="4.259"/> 
			<path style="fill:#FFFFFF;stroke:#000000;" d="M107.678,19.075h11.875c1.809,0,3.276,1.467,3.276,3.276v0.819h-1.229v8.697
				c-0.561,0.451-1.272,0.721-2.047,0.721h-2.457v-5.733c0-1.809-1.467-3.276-3.276-3.276h-9.419v-1.229
				C104.402,20.542,105.869,19.075,107.678,19.075z"/>
			<circle style="stroke:#000000;" cx="118.598" cy="34.917" r="4.633"/> 
			<circle style="fill:#FFFFFF;stroke:#000000;" cx="118.598" cy="34.917" r="3.336"/> 
			
				<rect x="108.702" y="24.604" transform="matrix(0.0973 0.9953 -0.9953 0.0973 126.7359 -85.2044)" style="fill:#FFFFFF;stroke:#000000;" width="3.276" height="5.324"/> 
			<path style="fill:#FFFFFF;stroke:#000000;" d="M95.256,30.678h8.122c1.248,0,2.306-0.798,2.7-1.911h1.431
				c0.02,0.134,0.033,0.27,0.033,0.41c0,1.583-1.283,2.866-2.866,2.866h-9.419V30.678z"/>
			<path style="fill:#FFFFFF;stroke:#000000;" d="M86.114,28.784l-7.74-9.546c2.298-1.947,5.27-3.123,8.517-3.123
				c4.669,0,8.77,2.43,11.112,6.092L86.114,28.784z"/>
			<circle cx="86.74" cy="28.698" r="10.989"/> 
			<circle style="fill:#FFFFFF;" cx="86.74" cy="28.698" r="7.033"/> 
			<circle style="fill:none;stroke:#000000;" cx="86.74" cy="28.698" r="2.462"/> 
			<line style="fill:#FFFFFF;stroke:#000000;stroke-width:2;" x1="104.129" y1="18.529" x2="105.221" y2="21.532"/>
			
				<ellipse transform="matrix(0.196 0.9806 -0.9806 0.196 100.8865 -87.1431)" style="fill:#FFFFFF;stroke:#000000;stroke-width:2;" cx="103.583" cy="17.949" rx="1.448" ry="4.633"/> 
			<path d="M106.404,27.335c-0.682,0.228-1.374,0.394-2.074,0.542l-0.192,0.018c-0.192,0.026-0.376-0.044-0.507-0.175l-0.149-0.149
				c-0.114-0.114-0.175-0.263-0.184-0.42l-0.008-0.228c-0.149-1.146-0.114-2.301-0.464-3.439c-0.28-0.893,0.035-1.837-0.201-2.739
				l-0.167-0.341l0.245,0.271l0.044-0.018c-1.146-0.07-2.292-0.026-3.439-0.035h-0.394c-0.14,0-0.263-0.044-0.376-0.123
				l-0.149-0.105c-0.14-0.105-0.228-0.254-0.253-0.429l-0.035-0.28c-0.044-1.059-0.525-2.013-0.639-3.072
				c-0.263-2.467-0.14-4.9-0.341-7.341c-0.009-0.35,0.271-0.639,0.612-0.647c0.35-0.009,0.639,0.263,0.647,0.612
				c0.228,3.36-0.035,6.773,0.98,10.028l0.026,0.534l-0.253-0.429l0.148,0.114l-0.367-0.122h0.394
				c1.19,0.026,2.372-0.053,3.561,0.043l0.481,0.193c0.105,0.061,0.184,0.148,0.245,0.253l0.148,0.368
				c0.114,0.28,0.193,0.577,0.219,0.875c0.061,0.744-0.097,1.496,0.113,2.196c0.35,1.137,0.271,2.275,0.473,3.404l0.009,0.411
				l-0.184-0.429l0.14,0.149l-0.508-0.184l0.289-0.035c0.648-0.114,1.251-0.359,1.881-0.517c0.341-0.061,0.674,0.167,0.735,0.508
				C106.973,26.941,106.745,27.274,106.404,27.335L106.404,27.335z"/>
			<path d="M103.91,19.083c-0.918-0.114-1.776,0.297-2.686,0.254c-0.202-0.009-0.438-0.07-0.578-0.21
				c-1.435-1.392-2.582-2.818-3.78-4.506c-0.201-0.298-0.394-0.569-0.507-0.901c-0.149-0.315-0.018-0.691,0.297-0.84
				c0.315-0.14,0.691-0.009,0.84,0.306c0.901,1.855,2.564,3.141,3.693,4.839c0.919,0.07,1.793-0.35,2.721-0.201
				c0.35,0,0.63,0.28,0.63,0.63S104.26,19.083,103.91,19.083L103.91,19.083z"/>
			<path d="M103.551,16.809c-0.927,0.289-2.012,0.499-2.914,0.035l-0.079-0.026c-0.114-0.035-0.21-0.096-0.289-0.184l-0.263-0.376
				c-0.647-1.969-1.837-3.649-2.695-5.521c-0.114-0.324,0.052-0.691,0.376-0.805c0.324-0.123,0.691,0.044,0.805,0.368
				c0.796,1.715,1.908,3.264,2.512,5.066l0.219,0.446l-0.28-0.193l0.481,0.21c-0.035-0.009-0.07-0.018-0.105-0.026
				c0.612,0.096,1.251,0.018,1.829-0.184c0.333-0.113,0.683,0.062,0.796,0.394S103.884,16.695,103.551,16.809L103.551,16.809z"/>
			<path d="M97.75,9.144c-1.05-0.009-1.995,0.507-3.027,0.612l-0.412,0.061l0.429-0.262l-0.113,0.166l-0.009-0.735l0.167,0.228
				c0.639,1.391,1.549,2.573,2.564,3.78c1.041,1.243,1.085,2.835,1.435,4.393c0.122,0.499,0.507,0.875,0.639,1.382
				c0.123,0.324-0.053,0.683-0.376,0.805c-0.324,0.114-0.691-0.053-0.805-0.385c-0.901-1.339-0.805-2.984-1.365-4.462
				c-0.096-0.254-0.184-0.517-0.341-0.727c-0.91-1.233-1.951-2.231-2.555-3.605l-0.376-0.665c-0.158-0.219-0.167-0.507-0.009-0.735
				l0.114-0.158c0.096-0.14,0.254-0.236,0.429-0.262l0.411-0.062c1.076-0.148,2.083-0.665,3.203-0.63c0.35,0,0.63,0.28,0.63,0.63
				S98.1,9.144,97.75,9.144L97.75,9.144z"/>
			<path d="M101.309,3.93c-1.089-0.164-2.179-0.118-3.288,0.04c-0.978,0.138-1.936,0.065-2.901,0.072h-0.111
				c-0.118,0-0.23-0.04-0.315-0.118l-0.276-0.302c-0.125-0.486-0.328-0.998-0.151-1.49c0.407-1.116,1.588-1.582,2.585-2.074
				c0.178-0.085,0.394-0.066,0.604-0.013c1.253,0.289,1.556,1.522,1.831,2.566c0.072,0.249-0.072,0.512-0.322,0.584
				c-0.249,0.072-0.512-0.072-0.584-0.328c-0.229-0.748-0.374-1.542-1.109-1.982c-0.768,0.519-2.304,0.86-2.067,2.048l0.112,0.282
				l-0.309-0.118h0.275c1.253,0.006,2.494-0.033,3.761-0.177c0.813-0.085,1.627-0.079,2.435,0.079
				c0.256,0.046,0.427,0.295,0.38,0.551C101.813,3.806,101.564,3.976,101.309,3.93L101.309,3.93z"/>
			<path d="M95.428,4.554c0.269,0.473,0.033,1.162,0.532,1.529c0.197,0.17,0.216,0.466,0.046,0.663
				c-0.171,0.197-0.466,0.217-0.663,0.046c-0.663-0.413-0.551-1.253-0.794-1.896c-0.092-0.249,0.026-0.518,0.269-0.61
				C95.067,4.193,95.336,4.311,95.428,4.554L95.428,4.554z"/>
			<path d="M99.628,3.878c0.138,0.38,0.321,0.755,0.341,1.168l0.006,0.21l-0.151-0.348l0.105,0.099
				c0.099,0.092,0.151,0.216,0.151,0.348c0,0.263-0.21,0.473-0.472,0.473h-0.145c-0.23,0-0.466,0-0.696,0h-0.131l0.407-0.236
				l-0.013-0.105c0.229,1.023-0.545,1.746-1.378,2.185c-0.203,0.164-0.505,0.131-0.663-0.072c-0.164-0.204-0.131-0.505,0.072-0.669
				c0.564-0.341,1.194-0.696,1.043-1.463l0.118-0.348c0.085-0.145,0.243-0.236,0.413-0.236h0.375c0.098,0,0.203,0,0.302,0h0.295
				l-0.322,0.82l-0.105-0.098c-0.092-0.085-0.151-0.21-0.151-0.341l0.059-0.151c-0.066-0.315-0.348-0.525-0.282-0.899
				c-0.02,0.007-0.04,0.007-0.059,0.013c-0.099-0.243,0.026-0.519,0.269-0.61C99.261,3.517,99.53,3.635,99.628,3.878L99.628,3.878z"
				/>
		</g>
		<rect x="41.928" y="40.012" style="fill:#B4B4B4;stroke:#000000;" width="88.5" height="70.5"/> 
		<rect x="42.651" y="40.648" style="fill:#B4B4B4;" width="88.054" height="70.145"/> 
		<circle style="fill:#D6D6D6;stroke:#000000;" cx="28.709" cy="27.355" r="3.978"/> 
		<line style="fill:#D6D6D6;stroke:#000000;" x1="28.709" y1="23.378" x2="76.428" y2="23.378"/>
		<line style="fill:#D6D6D6;stroke:#000000;" x1="23.928" y1="26.887" x2="23.928" y2="73.387"/>
		<rect x="15.303" y="72.637" style="fill:#D6D6D6;stroke:#000000;" width="17.25" height="21"/> 
		<rect y="80.75" style="fill:none;" width="147.402" height="2.835"/> 
	</g>
</svg>
