<?xml version="1.0" encoding="UTF-8" standalone="no"?>
<!-- Created with Inkscape (http://www.inkscape.org/) -->

<svg
   xmlns:dc="http://purl.org/dc/elements/1.1/"
   xmlns:cc="http://creativecommons.org/ns#"
   xmlns:rdf="http://www.w3.org/1999/02/22-rdf-syntax-ns#"
   xmlns:svg="http://www.w3.org/2000/svg"
   xmlns="http://www.w3.org/2000/svg"
   xmlns:sodipodi="http://sodipodi.sourceforge.net/DTD/sodipodi-0.dtd"
   xmlns:inkscape="http://www.inkscape.org/namespaces/inkscape"
   width="210mm"
   height="297mm"
   viewBox="0 0 744.09448819 1052.3622047"
   id="svg5988"
   version="1.1"
   sodipodi:docname="tractor-and-black-box.svg">
  <defs
     id="defs5990" />
  <sodipodi:namedview
     id="base"
     pagecolor="#ffffff"
     bordercolor="#666666"
     borderopacity="1.0"
     inkscape:pageopacity="0.0"
     inkscape:pageshadow="2"
     inkscape:zoom="1.578093"
     inkscape:cx="263.15875"
     inkscape:cy="611.74455"
     inkscape:document-units="mm"
     inkscape:current-layer="layer1"
     showgrid="false"
     inkscape:window-width="1280"
     inkscape:window-height="998"
     inkscape:window-x="0"
     inkscape:window-y="0"
     inkscape:window-maximized="1" />
  <metadata
     id="metadata5993">
    <rdf:RDF>
      <cc:Work
         rdf:about="">
        <dc:format>image/svg+xml</dc:format>
        <dc:type
           rdf:resource="http://purl.org/dc/dcmitype/StillImage" />
        <dc:title />
      </cc:Work>
    </rdf:RDF>
  </metadata>
  <g
     inkscape:label="Layer 1"
     inkscape:groupmode="layer"
     id="layer1">
    <rect
       style="color:#000000;clip-rule:nonzero;display:inline;overflow:visible;visibility:visible;opacity:1;isolation:auto;mix-blend-mode:normal;color-interpolation:sRGB;color-interpolation-filters:linearRGB;solid-color:#000000;solid-opacity:1;fill:#dedede;fill-opacity:1;fill-rule:nonzero;stroke:none;stroke-width:0.875;stroke-linecap:butt;stroke-linejoin:miter;stroke-miterlimit:1;stroke-dasharray:none;stroke-dashoffset:0;stroke-opacity:1;color-rendering:auto;image-rendering:auto;shape-rendering:auto;text-rendering:auto;enable-background:accumulate"
       id="rect6536-6"
       width="160.35394"
       height="151.89552"
       x="78.146133"
       y="276.87335" />
    <rect
       style="color:#000000;clip-rule:nonzero;display:inline;overflow:visible;visibility:visible;opacity:1;isolation:auto;mix-blend-mode:normal;color-interpolation:sRGB;color-interpolation-filters:linearRGB;solid-color:#000000;solid-opacity:1;fill:#dedede;fill-opacity:1;fill-rule:nonzero;stroke:none;stroke-width:0.875;stroke-linecap:butt;stroke-linejoin:miter;stroke-miterlimit:1;stroke-dasharray:none;stroke-dashoffset:0;stroke-opacity:1;color-rendering:auto;image-rendering:auto;shape-rendering:auto;text-rendering:auto;enable-background:accumulate"
       id="rect6536-0"
       width="186.1797"
       height="151.89552"
       x="435.21527"
       y="276.87335" />
    <g
       id="g6915"
       transform="translate(8,167.30598)">
      <g
         transform="translate(451.24193,141.36256)"
         id="g7">
        <rect
           x="79.339996"
           y="28.187"
           style="fill:none;stroke:#000000;stroke-width:0.5"
           width="65.550003"
           height="65.550003"
           id="rect9" />
        <polyline
           style="fill:none;stroke:#000000;stroke-width:0.5"
           points="51.563,0.416 117.113,0.416 144.92,28.223 "
           id="polyline11" />
        <polyline
           style="fill:none;stroke:#000000;stroke-width:0.5"
           points="79.396,28.41 51.59,0.604 51.59,66.153 79.396,93.96 "
           id="polyline13" />
      </g>
      <ellipse
         cx="511.53494"
         cy="191.54855"
         rx="2.016"
         ry="4.1560001"
         id="ellipse15" />
      <g
         transform="translate(451.24193,141.36256)"
         id="g17">
        <path
           inkscape:connector-curvature="0"
           style="fill:#bfbfbf;stroke:#000000;stroke-width:0.5"
           d="m 61.372,49.123 c -11.877,8.639 -32.792,13.04 -34.537,28.062 2.204,5.727 6.134,11.192 11.841,15.042 8.129,5.419 18.51,2.991 26.552,-0.992 l 1.239,-1.128 c 0.179,-0.223 0.309,-0.417 0.322,-0.666 l 0.151,-1.23 C 68.285,80.22 60.627,74.232 55.428,68.707 52.295,65.376 46.382,63.751 41.025,64.759 26.958,67.423 12.904,71.342 2.828,80.519 c -0.504,0.529 -0.414,1.26 0.216,1.683 0.63,0.423 1.502,0.347 2.007,-0.181 9.279,-8.301 22.035,-11.962 34.817,-14.616 3.417,-0.745 7.074,-0.662 10.022,0.848 7.088,3.604 11.377,10.309 14.332,16.872 l -0.235,4.048 0.273,-0.637 -2.026,1.396 c -6.77,2.896 -15.13,4.895 -21.717,0.403 C 35.291,86.813 31.218,81.791 29.626,76.377 33.152,63.108 51.933,59.262 62.975,51.1 c 0.639,-0.364 0.812,-1.125 0.377,-1.66 -0.435,-0.535 -1.342,-0.681 -1.98,-0.317 l 0,0 z"
           id="path19" />
        <path
           inkscape:connector-curvature="0"
           style="fill:#bfbfbf"
           d="m 32.682,69.877 c 0,0 1.685,-2.526 5.528,-4.958 3.843,-2.433 0.609,-1.551 0.609,-1.551 l -5.684,2.819 -3.075,3.379 -0.809,1.304 0.601,0.741 2.83,-1.734 z"
           id="path21" />
      </g>
      <path
         inkscape:connector-curvature="0"
         style="fill:#dedede;fill-opacity:1"
         d="m 513.20293,189.38156 c 0,0 0.95,1.543 -0.059,4.512 -1.009,2.969 0.416,7.185 1.603,7.244 1.188,0.06 7.006,-3.028 7.244,-4.394 0.238,-1.366 1.603,-8.134 0.594,-9.381 -1.01,-1.247 -9.382,2.019 -9.382,2.019 z"
         id="path23" />
      <path
         inkscape:connector-curvature="0"
         style="fill:none;stroke:#000000;stroke-width:0.5"
         d="m 510.27993,195.03556 c 0.356,0.478 0.789,0.758 1.256,0.758 1.216,0 2.202,-1.9 2.202,-4.245 0,-2.345 -0.986,-4.245 -2.202,-4.245 -1.217,0 -2.203,1.9 -2.203,4.245 0,0.34 0.021,0.671 0.06,0.988"
         id="path27" />
    </g>
    <g
       transform="translate(90.617923,303.17996)"
       style="overflow:visible"
       id="Layer_1-9">
      <rect
         x="35.285999"
         y="27.047001"
         transform="matrix(-0.7117,0.7025,-0.7025,-0.7117,87.8944,34.9)"
         style="fill:#b5b5b5;stroke:#000000"
         width="3"
         height="16.875"
         id="rect36" />
      <g
         id="g38">
        <rect
           x="95.829002"
           y="22.215"
           style="fill:#ffffff"
           width="9.5030003"
           height="6.006"
           id="rect40" />
        <path
           inkscape:connector-curvature="0"
           style="fill:#d6d6d6;stroke:#000000"
           d="m 98.376,20.67 3.844,0.389 c -0.091,0.9 -0.895,1.556 -1.795,1.465 L 94.45,21.919 c -0.849,-0.086 -1.479,-0.805 -1.473,-1.642 -1.31,-6.56 4.404,-1.326 5.399,0.393 z"
           id="path42" />
        <rect
           x="105.221"
           y="21.532"
           style="fill:#ededed"
           width="12.285"
           height="9.8280001"
           id="rect44" />
        <rect
           x="104.095"
           y="19.740999"
           transform="matrix(-0.1445,0.9895,-0.9895,-0.1445,149.3636,-70.4089)"
           style="fill:#ffffff;stroke:#000000"
           width="2.0480001"
           height="19.247"
           id="rect46" />
        <rect
           x="112.852"
           y="23.464001"
           transform="matrix(-0.999,-0.044,0.044,-0.999,227.088,56.1811)"
           style="fill:#ffffff;stroke:#000000"
           width="2.6210001"
           height="4.2589998"
           id="rect48" />
        <path
           inkscape:connector-curvature="0"
           style="fill:#ffffff;stroke:#000000"
           d="m 107.678,19.075 11.875,0 c 1.809,0 3.276,1.467 3.276,3.276 l 0,0.819 -1.229,0 0,8.697 c -0.561,0.451 -1.272,0.721 -2.047,0.721 l -2.457,0 0,-5.733 c 0,-1.809 -1.467,-3.276 -3.276,-3.276 l -9.419,0 0,-1.229 c 0.001,-1.808 1.468,-3.275 3.277,-3.275 z"
           id="path50" />
        <circle
           style="stroke:#000000"
           cx="118.598"
           cy="34.917"
           r="4.6329999"
           id="circle52" />
        <circle
           style="fill:#ffffff;stroke:#000000"
           cx="118.598"
           cy="34.917"
           r="3.336"
           id="circle54" />
        <rect
           x="108.702"
           y="24.604"
           transform="matrix(0.0973,0.9953,-0.9953,0.0973,126.7359,-85.2044)"
           style="fill:#ffffff;stroke:#000000"
           width="3.276"
           height="5.3239999"
           id="rect56" />
        <path
           inkscape:connector-curvature="0"
           style="fill:#ffffff;stroke:#000000"
           d="m 95.256,30.678 8.122,0 c 1.248,0 2.306,-0.798 2.7,-1.911 l 1.431,0 c 0.02,0.134 0.033,0.27 0.033,0.41 0,1.583 -1.283,2.866 -2.866,2.866 l -9.419,0 0,-1.365 z"
           id="path58" />
        <path
           inkscape:connector-curvature="0"
           style="fill:#ffffff;stroke:#000000"
           d="m 86.114,28.784 -7.74,-9.546 c 2.298,-1.947 5.27,-3.123 8.517,-3.123 4.669,0 8.77,2.43 11.112,6.092 l -11.889,6.577 z"
           id="path60" />
        <circle
           cx="86.739998"
           cy="28.698"
           r="10.989"
           id="circle62" />
        <circle
           style="fill:#ffffff"
           cx="86.739998"
           cy="28.698"
           r="7.033"
           id="circle64" />
        <circle
           style="fill:none;stroke:#000000"
           cx="86.739998"
           cy="28.698"
           r="2.4619999"
           id="circle66" />
        <line
           style="fill:#ffffff;stroke:#000000;stroke-width:2"
           x1="104.129"
           y1="18.528999"
           x2="105.221"
           y2="21.532"
           id="line68" />
        <ellipse
           transform="matrix(0.196,0.9806,-0.9806,0.196,100.8865,-87.1431)"
           style="fill:#ffffff;stroke:#000000;stroke-width:2"
           cx="103.583"
           cy="17.948999"
           rx="1.448"
           ry="4.6329999"
           id="ellipse70" />
        <path
           inkscape:connector-curvature="0"
           d="m 106.404,27.335 c -0.682,0.228 -1.374,0.394 -2.074,0.542 l -0.192,0.018 c -0.192,0.026 -0.376,-0.044 -0.507,-0.175 l -0.149,-0.149 c -0.114,-0.114 -0.175,-0.263 -0.184,-0.42 l -0.008,-0.228 c -0.149,-1.146 -0.114,-2.301 -0.464,-3.439 -0.28,-0.893 0.035,-1.837 -0.201,-2.739 l -0.167,-0.341 0.245,0.271 0.044,-0.018 c -1.146,-0.07 -2.292,-0.026 -3.439,-0.035 l -0.394,0 c -0.14,0 -0.263,-0.044 -0.376,-0.123 l -0.149,-0.105 c -0.14,-0.105 -0.228,-0.254 -0.253,-0.429 l -0.035,-0.28 c -0.044,-1.059 -0.525,-2.013 -0.639,-3.072 -0.263,-2.467 -0.14,-4.9 -0.341,-7.341 -0.009,-0.35 0.271,-0.639 0.612,-0.647 0.35,-0.009 0.639,0.263 0.647,0.612 0.228,3.36 -0.035,6.773 0.98,10.028 l 0.026,0.534 -0.253,-0.429 0.148,0.114 -0.367,-0.122 0.394,0 c 1.19,0.026 2.372,-0.053 3.561,0.043 l 0.481,0.193 c 0.105,0.061 0.184,0.148 0.245,0.253 l 0.148,0.368 c 0.114,0.28 0.193,0.577 0.219,0.875 0.061,0.744 -0.097,1.496 0.113,2.196 0.35,1.137 0.271,2.275 0.473,3.404 l 0.009,0.411 -0.184,-0.429 0.14,0.149 -0.508,-0.184 0.289,-0.035 c 0.648,-0.114 1.251,-0.359 1.881,-0.517 0.341,-0.061 0.674,0.167 0.735,0.508 0.063,0.344 -0.165,0.677 -0.506,0.738 l 0,0 z"
           id="path72" />
        <path
           inkscape:connector-curvature="0"
           d="m 103.91,19.083 c -0.918,-0.114 -1.776,0.297 -2.686,0.254 -0.202,-0.009 -0.438,-0.07 -0.578,-0.21 -1.435,-1.392 -2.582,-2.818 -3.78,-4.506 -0.201,-0.298 -0.394,-0.569 -0.507,-0.901 -0.149,-0.315 -0.018,-0.691 0.297,-0.84 0.315,-0.14 0.691,-0.009 0.84,0.306 0.901,1.855 2.564,3.141 3.693,4.839 0.919,0.07 1.793,-0.35 2.721,-0.201 0.35,0 0.63,0.28 0.63,0.63 0,0.35 -0.28,0.629 -0.63,0.629 l 0,0 z"
           id="path74" />
        <path
           inkscape:connector-curvature="0"
           d="m 103.551,16.809 c -0.927,0.289 -2.012,0.499 -2.914,0.035 l -0.079,-0.026 c -0.114,-0.035 -0.21,-0.096 -0.289,-0.184 l -0.263,-0.376 c -0.647,-1.969 -1.837,-3.649 -2.695,-5.521 -0.114,-0.324 0.052,-0.691 0.376,-0.805 0.324,-0.123 0.691,0.044 0.805,0.368 0.796,1.715 1.908,3.264 2.512,5.066 l 0.219,0.446 -0.28,-0.193 0.481,0.21 c -0.035,-0.009 -0.07,-0.018 -0.105,-0.026 0.612,0.096 1.251,0.018 1.829,-0.184 0.333,-0.113 0.683,0.062 0.796,0.394 0.113,0.332 -0.06,0.682 -0.393,0.796 l 0,0 z"
           id="path76" />
        <path
           inkscape:connector-curvature="0"
           d="M 97.75,9.144 C 96.7,9.135 95.755,9.651 94.723,9.756 L 94.311,9.817 94.74,9.555 94.627,9.721 94.618,8.986 94.785,9.214 c 0.639,1.391 1.549,2.573 2.564,3.78 1.041,1.243 1.085,2.835 1.435,4.393 0.122,0.499 0.507,0.875 0.639,1.382 0.123,0.324 -0.053,0.683 -0.376,0.805 -0.324,0.114 -0.691,-0.053 -0.805,-0.385 C 97.341,17.85 97.437,16.205 96.877,14.727 96.781,14.473 96.693,14.21 96.536,14 95.626,12.767 94.585,11.769 93.981,10.395 L 93.605,9.73 C 93.447,9.511 93.438,9.223 93.596,8.995 L 93.71,8.837 c 0.096,-0.14 0.254,-0.236 0.429,-0.262 L 94.55,8.513 c 1.076,-0.148 2.083,-0.665 3.203,-0.63 0.35,0 0.63,0.28 0.63,0.63 0,0.35 -0.283,0.631 -0.633,0.631 l 0,0 z"
           id="path78" />
        <path
           inkscape:connector-curvature="0"
           d="M 101.309,3.93 C 100.22,3.766 99.13,3.812 98.021,3.97 97.043,4.108 96.085,4.035 95.12,4.042 l -0.111,0 c -0.118,0 -0.23,-0.04 -0.315,-0.118 L 94.418,3.622 C 94.293,3.136 94.09,2.624 94.267,2.132 94.674,1.016 95.855,0.55 96.852,0.058 97.03,-0.027 97.246,-0.008 97.456,0.045 98.709,0.334 99.012,1.567 99.287,2.611 99.359,2.86 99.215,3.123 98.965,3.195 98.716,3.267 98.453,3.123 98.381,2.867 98.152,2.119 98.007,1.325 97.272,0.885 96.504,1.404 94.968,1.745 95.205,2.933 l 0.112,0.282 -0.309,-0.118 0.275,0 c 1.253,0.006 2.494,-0.033 3.761,-0.177 0.813,-0.085 1.627,-0.079 2.435,0.079 0.256,0.046 0.427,0.295 0.38,0.551 -0.046,0.256 -0.295,0.426 -0.55,0.38 l 0,0 z"
           id="path80" />
        <path
           inkscape:connector-curvature="0"
           d="m 95.428,4.554 c 0.269,0.473 0.033,1.162 0.532,1.529 0.197,0.17 0.216,0.466 0.046,0.663 C 95.835,6.943 95.54,6.963 95.343,6.792 94.68,6.379 94.792,5.539 94.549,4.896 c -0.092,-0.249 0.026,-0.518 0.269,-0.61 0.249,-0.093 0.518,0.025 0.61,0.268 l 0,0 z"
           id="path82" />
        <path
           inkscape:connector-curvature="0"
           d="m 99.628,3.878 c 0.138,0.38 0.321,0.755 0.341,1.168 l 0.006,0.21 -0.151,-0.348 0.105,0.099 c 0.099,0.092 0.151,0.216 0.151,0.348 0,0.263 -0.21,0.473 -0.472,0.473 l -0.145,0 c -0.23,0 -0.466,0 -0.696,0 l -0.131,0 L 99.043,5.592 99.03,5.487 C 99.259,6.51 98.485,7.233 97.652,7.672 97.449,7.836 97.147,7.803 96.989,7.6 96.825,7.396 96.858,7.095 97.061,6.931 97.625,6.59 98.255,6.235 98.104,5.468 L 98.222,5.12 c 0.085,-0.145 0.243,-0.236 0.413,-0.236 l 0.375,0 c 0.098,0 0.203,0 0.302,0 l 0.295,0 -0.322,0.82 L 99.18,5.606 C 99.088,5.521 99.029,5.396 99.029,5.265 L 99.088,5.114 C 99.022,4.799 98.74,4.589 98.806,4.215 c -0.02,0.007 -0.04,0.007 -0.059,0.013 -0.099,-0.243 0.026,-0.519 0.269,-0.61 0.245,-0.101 0.514,0.017 0.612,0.26 l 0,0 z"
           id="path84" />
      </g>
      <rect
         x="41.928001"
         y="40.012001"
         style="fill:#b4b4b4;stroke:#000000"
         width="88.5"
         height="70.5"
         id="rect86" />
      <rect
         x="42.651001"
         y="40.647999"
         style="fill:#b4b4b4"
         width="88.054001"
         height="70.144997"
         id="rect88" />
      <circle
         style="fill:#d6d6d6;stroke:#000000"
         cx="28.709"
         cy="27.355"
         r="3.9779999"
         id="circle90" />
      <line
         style="fill:#d6d6d6;stroke:#000000"
         x1="28.709"
         y1="23.378"
         x2="76.428001"
         y2="23.378"
         id="line92" />
      <line
         style="fill:#d6d6d6;stroke:#000000"
         x1="23.927999"
         y1="26.886999"
         x2="23.927999"
         y2="73.387001"
         id="line94" />
      <rect
         x="15.303"
         y="72.637001"
         style="fill:#d6d6d6;stroke:#000000"
         width="17.25"
         height="21"
         id="rect96" />
      <rect
         x="0"
         y="80.75"
         style="fill:none"
         width="147.40199"
         height="2.835"
         id="rect98" />
    </g>
    <text
       xml:space="preserve"
       style="color:#000000;font-style:normal;font-variant:normal;font-weight:normal;font-stretch:normal;font-size:12.5px;line-height:125%;font-family:'Liberation Sans';-inkscape-font-specification:'Liberation Sans';text-indent:0;text-align:start;text-decoration:none;text-decoration-line:none;text-decoration-style:solid;text-decoration-color:#000000;letter-spacing:0px;word-spacing:0px;text-transform:none;direction:ltr;block-progression:tb;writing-mode:lr-tb;baseline-shift:baseline;text-anchor:start;white-space:normal;clip-rule:nonzero;display:inline;overflow:visible;visibility:visible;opacity:1;isolation:auto;mix-blend-mode:normal;color-interpolation:sRGB;color-interpolation-filters:linearRGB;solid-color:#000000;solid-opacity:1;fill:#000000;fill-opacity:1;fill-rule:nonzero;stroke:none;stroke-width:1.24999988px;stroke-linecap:butt;stroke-linejoin:miter;stroke-miterlimit:4;stroke-dasharray:none;stroke-dashoffset:0;stroke-opacity:1;marker:none;marker-start:none;marker-mid:none;marker-end:none;color-rendering:auto;image-rendering:auto;shape-rendering:auto;text-rendering:auto;enable-background:accumulate"
       x="88.909683"
       y="299.49792"
       id="text6987"
       sodipodi:linespacing="125%"><tspan
         sodipodi:role="line"
         id="tspan6989"
         x="88.909683"
         y="299.49792">1</tspan></text>
    <rect
       style="color:#000000;clip-rule:nonzero;display:inline;overflow:visible;visibility:visible;opacity:1;isolation:auto;mix-blend-mode:normal;color-interpolation:sRGB;color-interpolation-filters:linearRGB;solid-color:#000000;solid-opacity:1;fill:#dedede;fill-opacity:1;fill-rule:nonzero;stroke:none;stroke-width:0.875;stroke-linecap:butt;stroke-linejoin:miter;stroke-miterlimit:1;stroke-dasharray:none;stroke-dashoffset:0;stroke-opacity:1;color-rendering:auto;image-rendering:auto;shape-rendering:auto;text-rendering:auto;enable-background:accumulate"
       id="rect6536-7"
       width="171.58252"
       height="65.435387"
       x="251.06642"
       y="363.31906" />
    <g
       transform="translate(266.04906,370.86638)"
       style="overflow:visible"
       id="Layer_1-2">
      <g
         id="g109">
        <line
           style="fill:#d6d6d6;stroke:#000000"
           x1="83.325996"
           y1="26.108"
           x2="21.076"
           y2="26.108"
           id="line111" />
        <g
           id="g113">
          <rect
             x="99.883003"
             y="22.214001"
             style="fill:#ffffff"
             width="9.5030003"
             height="6.006"
             id="rect115" />
          <path
             inkscape:connector-curvature="0"
             style="fill:#d6d6d6;stroke:#000000"
             d="m 102.431,20.669 3.844,0.389 c -0.091,0.9 -0.895,1.556 -1.794,1.465 l -5.976,-0.605 c -0.849,-0.086 -1.479,-0.805 -1.473,-1.641 -1.31,-6.56 4.404,-1.326 5.399,0.392 z"
             id="path117" />
          <rect
             x="109.276"
             y="21.532"
             style="fill:#ededed"
             width="12.285"
             height="9.8280001"
             id="rect119" />
          <rect
             x="108.15"
             y="19.74"
             transform="matrix(-0.1445,0.9895,-0.9895,-0.1445,154.0072,-74.4201)"
             style="fill:#ffffff;stroke:#000000"
             width="2.0469999"
             height="19.247"
             id="rect121" />
          <rect
             x="116.906"
             y="23.462999"
             transform="matrix(-0.999,-0.044,0.044,-0.999,235.1935,56.3584)"
             style="fill:#ffffff;stroke:#000000"
             width="2.6210001"
             height="4.2589998"
             id="rect123" />
          <path
             inkscape:connector-curvature="0"
             style="fill:#ffffff;stroke:#000000"
             d="m 111.733,19.075 11.875,0 c 1.81,0 3.276,1.467 3.276,3.276 l 0,0.819 -1.229,0 0,8.698 c -0.561,0.45 -1.272,0.721 -2.047,0.721 l -2.457,0 0,-5.733 c 0,-1.81 -1.467,-3.276 -3.276,-3.276 l -9.419,0 0,-1.229 c 10e-4,-1.809 1.467,-3.276 3.277,-3.276 z"
             id="path125" />
          <circle
             style="stroke:#000000"
             cx="122.653"
             cy="34.917"
             r="4.6329999"
             id="circle127" />
          <circle
             style="fill:#ffffff;stroke:#000000"
             cx="122.653"
             cy="34.917"
             r="3.336"
             id="circle129" />
          <rect
             x="112.757"
             y="24.603001"
             transform="matrix(0.0973,0.9953,-0.9953,0.0973,130.3955,-89.2403)"
             style="fill:#ffffff;stroke:#000000"
             width="3.276"
             height="5.3239999"
             id="rect131" />
          <path
             inkscape:connector-curvature="0"
             style="fill:#ffffff;stroke:#000000"
             d="m 99.311,30.678 8.122,0 c 1.248,0 2.306,-0.799 2.7,-1.912 l 1.431,0 c 0.019,0.134 0.032,0.271 0.032,0.41 0,1.583 -1.283,2.867 -2.866,2.867 l -9.419,0 0,-1.365 z"
             id="path133" />
          <path
             inkscape:connector-curvature="0"
             style="fill:#ffffff;stroke:#000000"
             d="m 90.169,28.784 -7.74,-9.545 c 2.298,-1.947 5.27,-3.123 8.517,-3.123 4.669,0 8.77,2.43 11.112,6.091 l -11.889,6.577 z"
             id="path135" />
          <circle
             cx="90.794998"
             cy="28.698"
             r="10.989"
             id="circle137" />
          <circle
             style="fill:#ffffff"
             cx="90.794998"
             cy="28.698"
             r="7.033"
             id="circle139" />
          <circle
             style="fill:none;stroke:#000000"
             cx="90.794998"
             cy="28.698"
             r="2.4619999"
             id="circle141" />
          <line
             style="fill:#ffffff;stroke:#000000;stroke-width:2"
             x1="108.184"
             y1="18.528999"
             x2="109.276"
             y2="21.532"
             id="line143" />
          <ellipse
             transform="matrix(0.196,0.9806,-0.9806,0.196,104.1462,-91.1195)"
             style="fill:#ffffff;stroke:#000000;stroke-width:2"
             cx="107.638"
             cy="17.948"
             rx="1.448"
             ry="4.6329999"
             id="ellipse145" />
          <path
             inkscape:connector-curvature="0"
             d="m 110.458,27.334 c -0.682,0.228 -1.374,0.394 -2.074,0.542 l -0.192,0.018 C 108,27.92 107.816,27.851 107.685,27.719 l -0.149,-0.149 c -0.114,-0.114 -0.175,-0.263 -0.184,-0.42 l -0.009,-0.228 c -0.149,-1.146 -0.114,-2.301 -0.464,-3.439 -0.28,-0.893 0.035,-1.837 -0.201,-2.739 l -0.167,-0.341 0.245,0.271 0.044,-0.018 c -1.146,-0.07 -2.292,-0.026 -3.439,-0.035 l -0.394,0 c -0.14,0 -0.263,-0.044 -0.376,-0.123 l -0.149,-0.105 c -0.14,-0.105 -0.227,-0.253 -0.253,-0.429 l -0.035,-0.28 c -0.044,-1.059 -0.525,-2.013 -0.639,-3.071 -0.263,-2.468 -0.14,-4.9 -0.341,-7.341 -0.009,-0.35 0.271,-0.639 0.613,-0.647 0.35,-0.009 0.639,0.262 0.647,0.612 0.228,3.36 -0.035,6.772 0.98,10.028 l 0.026,0.534 -0.253,-0.429 0.148,0.114 -0.367,-0.123 0.394,0 c 1.19,0.026 2.372,-0.052 3.562,0.043 l 0.481,0.193 c 0.105,0.061 0.184,0.148 0.245,0.253 l 0.148,0.368 c 0.114,0.28 0.193,0.578 0.219,0.875 0.061,0.744 -0.096,1.496 0.114,2.196 0.35,1.138 0.271,2.275 0.472,3.404 l 0.009,0.412 -0.184,-0.429 0.14,0.149 -0.508,-0.184 0.289,-0.035 c 0.647,-0.114 1.251,-0.359 1.881,-0.516 0.341,-0.062 0.674,0.166 0.735,0.507 0.062,0.344 -0.165,0.676 -0.507,0.737 l 0,0 z"
             id="path147" />
          <path
             inkscape:connector-curvature="0"
             d="m 107.965,19.083 c -0.918,-0.113 -1.776,0.298 -2.686,0.254 -0.202,-0.009 -0.438,-0.07 -0.578,-0.21 -1.435,-1.392 -2.582,-2.817 -3.78,-4.506 -0.201,-0.297 -0.394,-0.569 -0.507,-0.901 -0.149,-0.315 -0.018,-0.691 0.297,-0.84 0.315,-0.14 0.691,-0.009 0.84,0.306 0.901,1.855 2.564,3.141 3.693,4.839 0.919,0.07 1.794,-0.35 2.721,-0.201 0.35,0 0.63,0.28 0.63,0.63 0,0.35 -0.28,0.629 -0.63,0.629 l 0,0 z"
             id="path149" />
          <path
             inkscape:connector-curvature="0"
             d="m 107.606,16.808 c -0.927,0.289 -2.012,0.499 -2.914,0.035 l -0.079,-0.026 c -0.114,-0.035 -0.21,-0.096 -0.289,-0.184 l -0.262,-0.376 c -0.647,-1.969 -1.838,-3.649 -2.695,-5.521 -0.114,-0.324 0.053,-0.691 0.376,-0.805 0.324,-0.123 0.691,0.043 0.805,0.367 0.796,1.715 1.908,3.264 2.512,5.066 l 0.219,0.446 -0.28,-0.192 0.481,0.21 c -0.035,-0.009 -0.07,-0.018 -0.105,-0.026 0.612,0.097 1.251,0.018 1.829,-0.184 0.333,-0.114 0.683,0.061 0.796,0.394 0.113,0.333 -0.062,0.682 -0.394,0.796 l 0,0 z"
             id="path151" />
          <path
             inkscape:connector-curvature="0"
             d="M 101.805,9.143 C 100.755,9.134 99.81,9.65 98.778,9.755 l -0.412,0.062 0.429,-0.263 -0.114,0.167 -0.009,-0.735 0.166,0.228 c 0.639,1.392 1.549,2.573 2.564,3.78 1.041,1.242 1.085,2.835 1.435,4.393 0.123,0.499 0.507,0.875 0.639,1.382 0.123,0.324 -0.053,0.683 -0.376,0.805 -0.324,0.114 -0.691,-0.052 -0.805,-0.385 -0.901,-1.338 -0.805,-2.983 -1.365,-4.462 -0.096,-0.254 -0.184,-0.516 -0.341,-0.726 -0.91,-1.234 -1.951,-2.231 -2.555,-3.605 L 97.658,9.73 C 97.501,9.512 97.491,9.223 97.649,8.995 l 0.114,-0.157 c 0.096,-0.14 0.254,-0.236 0.429,-0.263 l 0.411,-0.061 c 1.076,-0.149 2.083,-0.666 3.203,-0.63 0.35,0 0.63,0.28 0.63,0.63 -0.001,0.349 -0.281,0.629 -0.631,0.629 l 0,0 z"
             id="path153" />
          <path
             inkscape:connector-curvature="0"
             d="m 105.363,3.93 c -1.089,-0.164 -2.179,-0.118 -3.288,0.039 -0.978,0.138 -1.936,0.066 -2.901,0.072 l -0.111,0 c -0.118,0 -0.229,-0.04 -0.315,-0.118 L 98.472,3.621 c -0.125,-0.485 -0.328,-0.998 -0.151,-1.49 0.407,-1.116 1.588,-1.582 2.585,-2.074 0.178,-0.085 0.394,-0.066 0.604,-0.013 1.253,0.289 1.556,1.522 1.831,2.566 0.072,0.25 -0.072,0.512 -0.322,0.584 -0.249,0.072 -0.512,-0.072 -0.584,-0.329 -0.229,-0.748 -0.374,-1.542 -1.109,-1.981 -0.768,0.518 -2.304,0.859 -2.067,2.047 l 0.112,0.282 -0.309,-0.118 0.275,0 c 1.253,0.006 2.494,-0.033 3.761,-0.177 0.813,-0.085 1.627,-0.079 2.435,0.079 0.256,0.046 0.427,0.295 0.38,0.551 -0.045,0.257 -0.294,0.428 -0.55,0.382 l 0,0 z"
             id="path155" />
          <path
             inkscape:connector-curvature="0"
             d="m 99.483,4.554 c 0.269,0.472 0.033,1.162 0.532,1.529 0.197,0.171 0.216,0.466 0.046,0.663 C 99.89,6.943 99.595,6.962 99.398,6.792 98.735,6.378 98.847,5.539 98.604,4.896 98.512,4.646 98.63,4.377 98.873,4.285 c 0.249,-0.093 0.518,0.026 0.61,0.269 l 0,0 z"
             id="path157" />
          <path
             inkscape:connector-curvature="0"
             d="m 103.683,3.877 c 0.138,0.381 0.322,0.755 0.341,1.168 l 0.006,0.21 -0.151,-0.348 0.105,0.099 c 0.099,0.092 0.151,0.216 0.151,0.348 0,0.263 -0.21,0.473 -0.472,0.473 l -0.145,0 c -0.23,0 -0.466,0 -0.696,0 l -0.131,0 0.407,-0.236 -0.013,-0.105 c 0.229,1.024 -0.545,1.746 -1.378,2.186 -0.203,0.164 -0.505,0.131 -0.663,-0.072 -0.164,-0.204 -0.131,-0.505 0.072,-0.669 0.564,-0.341 1.194,-0.696 1.043,-1.463 l 0.118,-0.348 c 0.085,-0.145 0.243,-0.236 0.414,-0.236 l 0.374,0 c 0.098,0 0.203,0 0.302,0 l 0.295,0 -0.322,0.82 -0.105,-0.099 c -0.092,-0.085 -0.151,-0.21 -0.151,-0.341 l 0.059,-0.151 c -0.066,-0.315 -0.348,-0.525 -0.282,-0.899 -0.02,0.006 -0.04,0.006 -0.059,0.013 -0.099,-0.243 0.026,-0.519 0.269,-0.61 0.244,-0.1 0.513,0.018 0.612,0.26 l 0,0 z"
             id="path159" />
        </g>
        <path
           inkscape:connector-curvature="0"
           style="fill:#d6d6d6;stroke:#000000"
           d="m 19.576,25.108 15,0 c 0,0 -0.5,13.75 8.75,15 9.25,1.25 -27.25,0.75 -23.75,-15 z"
           id="path161" />
        <path
           inkscape:connector-curvature="0"
           style="fill:#d6d6d6;stroke:#000000"
           d="m 15.576,41.108 3.75,-2.25 6.5,-0.25 c 0,0 1.75,3 2.5,2.75 0.75,-0.25 6.25,-2.75 6.25,-2.75 l 6.5,0 12.25,1 c 0,0 -1.25,3 1.25,3 2.5,0 10,0.25 11,0 1,-0.25 4.75,-0.75 5.75,-0.75 1,0 7.5,-2.5 8.5,-2.5 1,0 5.25,0.5 6,0.5 0.75,0 11.75,-0.25 11.75,-0.25 l 7.75,-1.25 6.75,0.25 9.75,2.25 4.25,-1.25 5.75,1.75 0,7.75 -116.5,0 0.25,-8 z"
           id="path163" />
      </g>
      <rect
         x="0"
         y="43.566002"
         style="fill:none"
         width="147.401"
         height="2.835"
         id="rect165" />
    </g>
    <text
       xml:space="preserve"
       style="color:#000000;font-style:normal;font-variant:normal;font-weight:normal;font-stretch:normal;font-size:12.5px;line-height:125%;font-family:'Liberation Sans';-inkscape-font-specification:'Liberation Sans';text-indent:0;text-align:start;text-decoration:none;text-decoration-line:none;text-decoration-style:solid;text-decoration-color:#000000;letter-spacing:0px;word-spacing:0px;text-transform:none;direction:ltr;block-progression:tb;writing-mode:lr-tb;baseline-shift:baseline;text-anchor:start;white-space:normal;clip-rule:nonzero;display:inline;overflow:visible;visibility:visible;opacity:1;isolation:auto;mix-blend-mode:normal;color-interpolation:sRGB;color-interpolation-filters:linearRGB;solid-color:#000000;solid-opacity:1;fill:#000000;fill-opacity:1;fill-rule:nonzero;stroke:none;stroke-width:1.24999988px;stroke-linecap:butt;stroke-linejoin:miter;stroke-miterlimit:4;stroke-dasharray:none;stroke-dashoffset:0;stroke-opacity:1;marker:none;marker-start:none;marker-mid:none;marker-end:none;color-rendering:auto;image-rendering:auto;shape-rendering:auto;text-rendering:auto;enable-background:accumulate"
       x="260.95633"
       y="385.94363"
       id="text6991"
       sodipodi:linespacing="125%"><tspan
         sodipodi:role="line"
         id="tspan6993"
         x="260.95633"
         y="385.94363">3</tspan></text>
    <rect
       style="color:#000000;clip-rule:nonzero;display:inline;overflow:visible;visibility:visible;opacity:1;isolation:auto;mix-blend-mode:normal;color-interpolation:sRGB;color-interpolation-filters:linearRGB;solid-color:#000000;solid-opacity:1;fill:#dedede;fill-opacity:1;fill-rule:nonzero;stroke:none;stroke-width:0.875;stroke-linecap:butt;stroke-linejoin:miter;stroke-miterlimit:1;stroke-dasharray:none;stroke-dashoffset:0;stroke-opacity:1;color-rendering:auto;image-rendering:auto;shape-rendering:auto;text-rendering:auto;enable-background:accumulate"
       id="rect6536-7-8"
       width="171.58252"
       height="77.786835"
       x="251.06641"
       y="276.87335" />
    <g
       transform="translate(278.34586,295.79965)"
       style="overflow:visible"
       id="Layer_1-27">
      <g
         id="g176">
        <line
           style="fill:#d6d6d6;stroke:#000000;stroke-width:1.5"
           x1="92.75"
           y1="21.327"
           x2="77.5"
           y2="21.327"
           id="line178" />
        <g
           id="g180">
          <rect
             x="109.308"
             y="22.214001"
             style="fill:#ffffff"
             width="9.5030003"
             height="6.006"
             id="rect182" />
          <path
             inkscape:connector-curvature="0"
             style="fill:#d6d6d6;stroke:#000000"
             d="m 111.855,20.669 3.844,0.389 c -0.091,0.9 -0.895,1.556 -1.794,1.465 l -5.976,-0.605 c -0.849,-0.086 -1.479,-0.805 -1.473,-1.641 -1.31,-6.56 4.404,-1.327 5.399,0.392 z"
             id="path184" />
          <rect
             x="118.7"
             y="21.531"
             style="fill:#ededed"
             width="12.285"
             height="9.8280001"
             id="rect186" />
          <rect
             x="117.574"
             y="19.74"
             transform="matrix(-0.1445,0.9895,-0.9895,-0.1445,164.7931,-83.746)"
             style="fill:#ffffff;stroke:#000000"
             width="2.0469999"
             height="19.247"
             id="rect188" />
          <rect
             x="126.331"
             y="23.462999"
             transform="matrix(-0.999,-0.0438,0.0438,-0.999,254.0388,56.7488)"
             style="fill:#ffffff;stroke:#000000"
             width="2.6210001"
             height="4.2589998"
             id="rect190" />
          <path
             inkscape:connector-curvature="0"
             style="fill:#ffffff;stroke:#000000"
             d="m 121.157,19.074 11.875,0 c 1.81,0 3.276,1.467 3.276,3.276 l 0,0.819 -1.229,0 0,8.698 c -0.561,0.45 -1.272,0.721 -2.047,0.721 l -2.457,0 0,-5.733 c 0,-1.81 -1.467,-3.276 -3.276,-3.276 l -9.419,0 0,-1.228 c 0.001,-1.81 1.468,-3.277 3.277,-3.277 z"
             id="path192" />
          <circle
             style="stroke:#000000"
             cx="132.077"
             cy="34.917"
             r="4.6329999"
             id="circle194" />
          <circle
             style="fill:#ffffff;stroke:#000000"
             cx="132.077"
             cy="34.917"
             r="3.336"
             id="circle196" />
          <rect
             x="122.181"
             y="24.603001"
             transform="matrix(0.0973,0.9953,-0.9953,0.0973,138.902,-98.6203)"
             style="fill:#ffffff;stroke:#000000"
             width="3.276"
             height="5.3239999"
             id="rect198" />
          <path
             inkscape:connector-curvature="0"
             style="fill:#ffffff;stroke:#000000"
             d="m 108.735,30.677 8.122,0 c 1.248,0 2.306,-0.798 2.7,-1.911 l 1.431,0 c 0.019,0.134 0.032,0.27 0.032,0.409 0,1.583 -1.283,2.867 -2.866,2.867 l -9.419,0 0,-1.365 z"
             id="path200" />
          <path
             inkscape:connector-curvature="0"
             style="fill:#ffffff;stroke:#000000"
             d="m 99.593,28.783 -7.74,-9.545 c 2.298,-1.947 5.27,-3.123 8.517,-3.123 4.669,0 8.77,2.43 11.112,6.091 l -11.889,6.577 z"
             id="path202" />
          <circle
             cx="100.219"
             cy="28.697001"
             r="10.989"
             id="circle204" />
          <circle
             style="fill:#ffffff"
             cx="100.219"
             cy="28.697001"
             r="7.033"
             id="circle206" />
          <circle
             style="fill:none;stroke:#000000"
             cx="100.219"
             cy="28.697001"
             r="2.4619999"
             id="circle208" />
          <line
             style="fill:#ffffff;stroke:#000000;stroke-width:2"
             x1="117.608"
             y1="18.528"
             x2="118.7"
             y2="21.531"
             id="line210" />
          <ellipse
             transform="matrix(0.196,0.9806,-0.9806,0.196,111.7233,-100.3615)"
             style="fill:#ffffff;stroke:#000000;stroke-width:2"
             cx="117.062"
             cy="17.948"
             rx="1.448"
             ry="4.6329999"
             id="ellipse212" />
          <path
             inkscape:connector-curvature="0"
             d="m 119.883,27.334 c -0.682,0.228 -1.374,0.394 -2.074,0.542 l -0.192,0.018 c -0.192,0.026 -0.376,-0.043 -0.507,-0.175 l -0.149,-0.149 c -0.114,-0.114 -0.175,-0.262 -0.184,-0.42 l -0.009,-0.228 c -0.149,-1.146 -0.114,-2.301 -0.464,-3.439 -0.28,-0.892 0.035,-1.837 -0.201,-2.739 l -0.167,-0.341 0.245,0.271 0.044,-0.018 c -1.146,-0.07 -2.292,-0.026 -3.439,-0.035 l -0.394,0 c -0.14,0 -0.263,-0.043 -0.376,-0.122 l -0.149,-0.105 c -0.14,-0.104 -0.227,-0.253 -0.253,-0.428 l -0.035,-0.28 c -0.044,-1.059 -0.525,-2.013 -0.639,-3.071 -0.263,-2.468 -0.14,-4.9 -0.341,-7.341 -0.009,-0.35 0.271,-0.639 0.613,-0.647 0.35,-0.009 0.639,0.262 0.647,0.612 0.228,3.36 -0.035,6.772 0.98,10.028 l 0.026,0.534 -0.253,-0.429 0.148,0.114 -0.367,-0.123 0.394,0 c 1.19,0.026 2.372,-0.053 3.562,0.043 l 0.481,0.193 c 0.105,0.061 0.184,0.148 0.245,0.253 l 0.148,0.368 c 0.114,0.28 0.193,0.578 0.219,0.875 0.061,0.744 -0.096,1.497 0.114,2.196 0.35,1.138 0.271,2.275 0.472,3.404 l 0.009,0.411 -0.184,-0.429 0.14,0.149 -0.508,-0.184 0.289,-0.035 c 0.647,-0.114 1.251,-0.359 1.881,-0.516 0.341,-0.062 0.674,0.166 0.735,0.507 0.062,0.342 -0.166,0.675 -0.507,0.736 l 0,0 z"
             id="path214" />
          <path
             inkscape:connector-curvature="0"
             d="m 117.389,19.083 c -0.918,-0.113 -1.776,0.298 -2.686,0.254 -0.202,-0.009 -0.438,-0.07 -0.578,-0.21 -1.435,-1.391 -2.582,-2.817 -3.78,-4.506 -0.201,-0.297 -0.394,-0.569 -0.507,-0.901 -0.149,-0.315 -0.018,-0.691 0.297,-0.84 0.315,-0.14 0.691,-0.009 0.84,0.306 0.901,1.855 2.564,3.141 3.693,4.839 0.919,0.07 1.794,-0.35 2.721,-0.201 0.35,0 0.63,0.28 0.63,0.63 0,0.35 -0.28,0.629 -0.63,0.629 l 0,0 z"
             id="path216" />
          <path
             inkscape:connector-curvature="0"
             d="m 117.03,16.808 c -0.927,0.289 -2.012,0.499 -2.914,0.035 l -0.079,-0.026 c -0.114,-0.035 -0.21,-0.096 -0.289,-0.184 l -0.262,-0.376 c -0.647,-1.969 -1.838,-3.649 -2.695,-5.521 -0.114,-0.324 0.053,-0.691 0.376,-0.805 0.324,-0.123 0.691,0.044 0.805,0.367 0.796,1.715 1.908,3.264 2.512,5.066 l 0.219,0.446 -0.28,-0.192 0.481,0.21 c -0.035,-0.009 -0.07,-0.018 -0.105,-0.026 0.612,0.096 1.251,0.018 1.829,-0.184 0.333,-0.114 0.683,0.062 0.796,0.394 0.114,0.332 -0.061,0.682 -0.394,0.796 l 0,0 z"
             id="path218" />
          <path
             inkscape:connector-curvature="0"
             d="m 111.229,9.143 c -1.05,-0.009 -1.995,0.507 -3.027,0.612 l -0.412,0.061 0.429,-0.262 -0.114,0.167 -0.009,-0.735 0.166,0.228 c 0.639,1.392 1.549,2.573 2.564,3.78 1.041,1.242 1.085,2.835 1.435,4.393 0.123,0.499 0.507,0.875 0.639,1.382 0.123,0.324 -0.053,0.683 -0.376,0.805 -0.324,0.114 -0.691,-0.052 -0.805,-0.385 -0.901,-1.339 -0.805,-2.984 -1.365,-4.463 -0.096,-0.254 -0.184,-0.516 -0.341,-0.726 -0.91,-1.234 -1.951,-2.231 -2.555,-3.605 L 107.082,9.73 c -0.157,-0.219 -0.167,-0.508 -0.009,-0.735 l 0.114,-0.157 c 0.096,-0.14 0.254,-0.236 0.429,-0.263 l 0.411,-0.061 c 1.076,-0.149 2.083,-0.665 3.203,-0.63 0.35,0 0.63,0.28 0.63,0.63 -0.001,0.348 -0.281,0.629 -0.631,0.629 l 0,0 z"
             id="path220" />
          <path
             inkscape:connector-curvature="0"
             d="m 114.788,3.93 c -1.089,-0.164 -2.179,-0.118 -3.288,0.039 -0.978,0.138 -1.936,0.066 -2.901,0.072 l -0.111,0 c -0.118,0 -0.229,-0.039 -0.315,-0.118 l -0.276,-0.302 c -0.125,-0.486 -0.328,-0.998 -0.151,-1.49 0.407,-1.116 1.588,-1.582 2.585,-2.074 0.178,-0.085 0.394,-0.065 0.604,-0.013 1.253,0.289 1.556,1.522 1.831,2.566 0.072,0.25 -0.072,0.512 -0.322,0.584 -0.249,0.072 -0.512,-0.072 -0.584,-0.328 -0.229,-0.749 -0.374,-1.542 -1.109,-1.982 -0.768,0.518 -2.304,0.859 -2.067,2.047 l 0.112,0.282 -0.309,-0.118 0.275,0 c 1.253,0.006 2.494,-0.033 3.761,-0.177 0.813,-0.085 1.627,-0.079 2.435,0.079 0.256,0.046 0.427,0.295 0.38,0.551 -0.046,0.257 -0.295,0.428 -0.55,0.382 l 0,0 z"
             id="path222" />
          <path
             inkscape:connector-curvature="0"
             d="m 108.907,4.553 c 0.269,0.472 0.033,1.161 0.532,1.529 0.197,0.171 0.216,0.466 0.046,0.663 -0.171,0.197 -0.466,0.216 -0.663,0.046 -0.663,-0.414 -0.551,-1.253 -0.794,-1.897 -0.092,-0.249 0.026,-0.518 0.269,-0.61 0.249,-0.092 0.518,0.026 0.61,0.269 l 0,0 z"
             id="path224" />
          <path
             inkscape:connector-curvature="0"
             d="m 113.107,3.877 c 0.138,0.381 0.322,0.755 0.341,1.168 l 0.006,0.21 -0.151,-0.348 0.105,0.098 c 0.099,0.092 0.151,0.217 0.151,0.348 0,0.263 -0.21,0.473 -0.472,0.473 l -0.145,0 c -0.23,0 -0.466,0 -0.696,0 l -0.131,0 0.407,-0.236 -0.013,-0.105 c 0.229,1.024 -0.545,1.746 -1.378,2.186 -0.203,0.164 -0.505,0.131 -0.663,-0.072 -0.164,-0.204 -0.131,-0.505 0.072,-0.669 0.564,-0.341 1.194,-0.695 1.043,-1.463 l 0.118,-0.348 c 0.085,-0.145 0.243,-0.236 0.414,-0.236 l 0.374,0 c 0.098,0 0.203,0 0.302,0 l 0.295,0 -0.322,0.82 -0.105,-0.099 c -0.092,-0.085 -0.151,-0.21 -0.151,-0.341 l 0.059,-0.151 c -0.066,-0.315 -0.348,-0.525 -0.282,-0.899 -0.02,0.006 -0.04,0.006 -0.059,0.013 -0.099,-0.243 0.026,-0.519 0.269,-0.61 0.245,-0.1 0.514,0.018 0.612,0.261 l 0,0 z"
             id="path226" />
        </g>
        <rect
           x="11.25"
           y="2.3269999"
           style="fill:#d6d6d6;stroke:#000000"
           width="70"
           height="31.25"
           id="rect228" />
        <circle
           style="fill:#d6d6d6;stroke:#000000;stroke-width:3"
           cx="74.125"
           cy="34.327"
           r="3.8889999"
           id="circle230" />
        <circle
           style="fill:#d6d6d6;stroke:#000000;stroke-width:3"
           cx="17.688"
           cy="34.014"
           r="3.8889999"
           id="circle232" />
      </g>
      <rect
         x="0"
         y="11.014"
         style="fill:none"
         width="147.401"
         height="2.835"
         id="rect234" />
    </g>
    <text
       xml:space="preserve"
       style="color:#000000;font-style:normal;font-variant:normal;font-weight:normal;font-stretch:normal;font-size:12.5px;line-height:125%;font-family:'Liberation Sans';-inkscape-font-specification:'Liberation Sans';text-indent:0;text-align:start;text-decoration:none;text-decoration-line:none;text-decoration-style:solid;text-decoration-color:#000000;letter-spacing:0px;word-spacing:0px;text-transform:none;direction:ltr;block-progression:tb;writing-mode:lr-tb;baseline-shift:baseline;text-anchor:start;white-space:normal;clip-rule:nonzero;display:inline;overflow:visible;visibility:visible;opacity:1;isolation:auto;mix-blend-mode:normal;color-interpolation:sRGB;color-interpolation-filters:linearRGB;solid-color:#000000;solid-opacity:1;fill:#000000;fill-opacity:1;fill-rule:nonzero;stroke:none;stroke-width:1.24999988px;stroke-linecap:butt;stroke-linejoin:miter;stroke-miterlimit:4;stroke-dasharray:none;stroke-dashoffset:0;stroke-opacity:1;marker:none;marker-start:none;marker-mid:none;marker-end:none;color-rendering:auto;image-rendering:auto;shape-rendering:auto;text-rendering:auto;enable-background:accumulate"
       x="260.99295"
       y="302.26202"
       id="text6995"
       sodipodi:linespacing="125%"><tspan
         sodipodi:role="line"
         id="tspan6997"
         x="260.99295"
         y="302.26202">2</tspan></text>
    <text
       xml:space="preserve"
       style="color:#000000;font-style:normal;font-variant:normal;font-weight:normal;font-stretch:normal;font-size:12.5px;line-height:125%;font-family:'Liberation Sans';-inkscape-font-specification:'Liberation Sans';text-indent:0;text-align:start;text-decoration:none;text-decoration-line:none;text-decoration-style:solid;text-decoration-color:#000000;letter-spacing:0px;word-spacing:0px;text-transform:none;direction:ltr;block-progression:tb;writing-mode:lr-tb;baseline-shift:baseline;text-anchor:start;white-space:normal;clip-rule:nonzero;display:inline;overflow:visible;visibility:visible;opacity:1;isolation:auto;mix-blend-mode:normal;color-interpolation:sRGB;color-interpolation-filters:linearRGB;solid-color:#000000;solid-opacity:1;fill:#000000;fill-opacity:1;fill-rule:nonzero;stroke:none;stroke-width:1.24999988px;stroke-linecap:butt;stroke-linejoin:miter;stroke-miterlimit:4;stroke-dasharray:none;stroke-dashoffset:0;stroke-opacity:1;marker:none;marker-start:none;marker-mid:none;marker-end:none;color-rendering:auto;image-rendering:auto;shape-rendering:auto;text-rendering:auto;enable-background:accumulate"
       x="450.28455"
       y="299.49792"
       id="text6999"
       sodipodi:linespacing="125%"><tspan
         sodipodi:role="line"
         id="tspan7001"
         x="450.28455"
         y="299.49792">4</tspan></text>
  </g>
</svg>
