<?xml version="1.0" encoding="iso-8859-1"?>
<!-- Generator: Adobe Illustrator 11 Build 196, SVG Export Plug-In . SVG Version: 6.0.0 Build 78)  -->
<!DOCTYPE svg PUBLIC "-//W3C//DTD SVG 1.0//EN"    "http://www.w3.org/TR/2001/REC-SVG-20010904/DTD/svg10.dtd" [
	<!ENTITY ns_flows "http://ns.adobe.com/Flows/1.0/">
	<!ENTITY ns_svg "http://www.w3.org/2000/svg">
	<!ENTITY ns_xlink "http://www.w3.org/1999/xlink">
]>
<svg  
	 width="147.44" height="162.913" viewBox="0 0 147.44 162.913" style="overflow:visible;enable-background:new 0 0 147.44 162.913"
	 xml:space="preserve">
	<style type="text/css">
	
	</style>
	<g id="Layer_1">
		<path style="fill:#BBE4F0;stroke:#000000;stroke-dasharray:2;" d="M0.365,0.403c45.021,33,67.531,74.5,0,146.5"/>
		<g>
			<g>
				<text transform="matrix(1 0 0 1 43.5706 37.4033)"><tspan x="0" y="0" style="fill:#B3571B; font-family:Liberation Sans-Bold'; font-size:9.350000;">power</tspan></text>
			</g>
			<g>
				<text transform="matrix(1 0 0 1 75.9583 37.4033)"><tspan x="0" y="0" style="fill:#B3571B; font-family:Liberation Sans; font-size:7.650000;"> = rate of</tspan></text>
			</g>
			<g>
				<text transform="matrix(1 0 0 1 43.5706 48.4033)"><tspan x="0" y="0" style="fill:#B3571B; font-family:Liberation Sans; font-size:7.650000;">transferring energy</tspan></text>
			</g>
		</g>
		<g>
			<g>
				<text transform="matrix(1 0 0 1 44.0706 92.4033)"><tspan x="0" y="0" style="fill:#8D4516; font-family:Liberation Sans-Bold'; font-size:9.350000;">force</tspan></text>
			</g>
			<g>
				<text transform="matrix(1 0 0 1 70.9583 92.4033)"><tspan x="0" y="0" style="fill:#8D4516; font-family:Liberation Sans; font-size:8.500000;"> = rate of</tspan></text>
			</g>
			<g>
				<text transform="matrix(1 0 0 1 44.0706 104.4033)"><tspan x="0" y="0" style="fill:#8D4516; font-family:Liberation Sans; font-size:8.500000;">transferring momentum</tspan></text>
			</g>
		</g>
		<polygon style="fill:#F99EA3;stroke:#000000;stroke-width:0.5;" points="37.522,56.634 37.522,56.655 25.043,69.134 
			37.522,81.612 37.522,81.634 116.436,81.634 116.436,56.634 "/>
		<g>
			<g>
				<text transform="matrix(1 0 0 1 38.4124 73.4229)"><tspan x="0" y="0" style="font-family:Liberation Sans-Bold'; font-size:10.200000;">momentum</tspan></text>
			</g>
		</g>
		<polygon style="fill:#FEECA1;stroke:#000000;stroke-width:0.5;" points="16.437,2.116 16.437,2.138 3.959,14.616 16.437,27.095 
			16.437,27.116 95.352,27.116 95.352,2.116 "/>
		<g>
			<g>
				<text transform="matrix(1 0 0 1 29.9856 18.1904)"><tspan x="0" y="0" style="font-family:Liberation Sans-Bold'; font-size:10.200000;">energy</tspan></text>
			</g>
		</g>
		<g>
			<g>
				<text transform="matrix(1 0 0 1 1.0706 58.4033)"><tspan x="0" y="0" style="font-family:Liberation Sans-Bold'; font-size:8.500000;">system</tspan></text>
			</g>
		</g>
		<polygon style="fill:#FACB99;stroke:#000000;stroke-width:0.5;" points="21.602,111.403 21.602,111.425 9.124,123.903 
			21.602,136.382 21.602,136.403 100.517,136.403 100.517,111.403 "/>
		<g>
			<g>
				<text transform="matrix(1 0 0 1 15.1555 146.4502)"><tspan x="0" y="0" style="fill:#8D4516; font-family:Liberation Sans-Bold'; font-size:9.350000;">torque</tspan></text>
			</g>
			<g>
				<text transform="matrix(1 0 0 1 49.3669 146.4502)"><tspan x="0" y="0" style="fill:#8D4516; font-family:Liberation Sans; font-size:8.500000;"> = rate of trans-</tspan></text>
			</g>
			<g>
				<text transform="matrix(1 0 0 1 15.1555 158.4502)"><tspan x="0" y="0" style="fill:#8D4516; font-family:Liberation Sans; font-size:8.500000;">ferring angular momentum</tspan></text>
			</g>
		</g>
		<g>
			<g>
				<text transform="matrix(1 0 0 1 29.1506 120.6924)"><tspan x="0" y="0" style="font-family:Liberation Sans-Bold'; font-size:10.200000;">angular</tspan></text>
			</g>
			<g>
				<text transform="matrix(1 0 0 1 29.1506 135.1924)"><tspan x="0" y="0" style="font-family:Liberation Sans-Bold'; font-size:10.200000;">momentum</tspan></text>
			</g>
		</g>
	</g>
</svg>
