<?xml version="1.0" encoding="iso-8859-1"?>
<!-- Generator: Adobe Illustrator 11 Build 196, SVG Export Plug-In . SVG Version: 6.0.0 Build 78)  -->
<!DOCTYPE svg PUBLIC "-//W3C//DTD SVG 1.0//EN"    "http://www.w3.org/TR/2001/REC-SVG-20010904/DTD/svg10.dtd" [
	<!ENTITY ns_flows "http://ns.adobe.com/Flows/1.0/">
	<!ENTITY ns_svg "http://www.w3.org/2000/svg">
	<!ENTITY ns_xlink "http://www.w3.org/1999/xlink">
]>
<svg  
	 width="147.402" height="123.017" viewBox="0 0 147.402 123.017"
	 style="overflow:visible;enable-background:new 0 0 147.402 123.017" xml:space="preserve">
	<style type="text/css">
	
	</style>
	<g id="Layer_1">
		<g>
			<polygon style="fill:#D6D6D6;" points="61.18,67.481 95.18,67.481 95.18,90.481 "/>
			<g>
				<line style="fill:none;stroke:#000000;stroke-width:0.5;" x1="19.123" y1="66.863" x2="107.923" y2="66.863"/>
				<path d="M109.432,66.863c-0.71,0.264-1.591,0.713-2.137,1.189l0.43-1.189l-0.43-1.188
					C107.841,66.151,108.722,66.6,109.432,66.863z"/>
			</g>
			<g>
				<line style="fill:none;stroke:#000000;stroke-width:0.5;" x1="19.231" y1="67.459" x2="19.231" y2="6.863"/>
				<path d="M19.231,5.354c0.263,0.71,0.713,1.591,1.188,2.137l-1.188-0.43l-1.189,0.43C18.519,6.945,18.968,6.064,19.231,5.354z"/>
			</g>
			<g>
				<g>
					<text transform="matrix(1 0 0 1 9.3467 11)"><tspan x="0" y="0" style="font-family:Liberation Sans; font-size:9.350000;">F</tspan></text>
				</g>
			</g>
			<g>
				<g>
					<text transform="matrix(1 0 0 1 111.1802 67)"><tspan x="0" y="0" style="font-family:Liberation Sans; font-size:9.350000;">x</tspan></text>
				</g>
			</g>
			<line style="fill:none;stroke:#000000;stroke-width:1.5;" x1="21.523" y1="39.134" x2="110.323" y2="101.535"/>
			<g>
				<path style="fill:none;stroke:#000000;" d="M61.351,65.332c1.567-8.227,15.674-1.266,16.654-5.695"/>
				<path style="fill:none;stroke:#000000;" d="M94.658,65.332c-1.567-8.227-15.674-1.266-16.653-5.695"/>
			</g>
			<g>
				<path style="fill:none;stroke:#000000;" d="M100.834,92.903c5.286-1.193,0.813-11.926,3.659-12.671"/>
				<path style="fill:none;stroke:#000000;" d="M100.834,67.562c5.286,1.192,0.813,11.925,3.659,12.67"/>
			</g>
			<g>
				<g>
					<text transform="matrix(1 0 0 1 71.5137 56.6665)"><tspan x="0" y="0" style="font-family:Liberation Sans; font-size:7.650000;">x-x</tspan></text>
				</g>
				<g>
					<text transform="matrix(1 0 0 1 83.5083 59.6665)"><tspan x="0" y="0" style="font-family:Liberation Sans; font-size:5.950000;">o</tspan></text>
				</g>
			</g>
			<g>
				<g>
					<text transform="matrix(1 0 0 1 108.4927 82)"><tspan x="0" y="0" style="font-family:Liberation Sans; font-size:7.650000;">k(x-x</tspan></text>
				</g>
				<g>
					<text transform="matrix(1 0 0 1 127.9824 85)"><tspan x="0" y="0" style="font-family:Liberation Sans; font-size:5.950000;">o</tspan></text>
				</g>
				<g>
					<text transform="matrix(1 0 0 1 131.8735 82)"><tspan x="0" y="0" style="font-family:Liberation Sans; font-size:7.650000;">)</tspan></text>
				</g>
			</g>
			<g>
				<g>
					<text transform="matrix(1 0 0 1 19.8467 119)"><tspan x="0" y="0" style="font-family:Liberation Sans; font-size:7.650000;">area = work performed</tspan></text>
				</g>
			</g>
			<path style="fill:none;stroke:#000000;stroke-width:0.5;" d="M61.91,108.685c-0.667-19.667,20.667-25.333,21-32.667"/>
		</g>
		<rect y="34.499" style="fill:none;" width="147.402" height="2.835"/> 
	</g>
</svg>
