<?xml version="1.0" encoding="iso-8859-1"?>
<!-- Generator: Adobe Illustrator 11 Build 196, SVG Export Plug-In . SVG Version: 6.0.0 Build 78)  -->
<!DOCTYPE svg PUBLIC "-//W3C//DTD SVG 1.0//EN"    "http://www.w3.org/TR/2001/REC-SVG-20010904/DTD/svg10.dtd" [
	<!ENTITY ns_flows "http://ns.adobe.com/Flows/1.0/">
	<!ENTITY ns_svg "http://www.w3.org/2000/svg">
	<!ENTITY ns_xlink "http://www.w3.org/1999/xlink">
]>
<svg  
	 width="147.401" height="126.305" viewBox="0 0 147.401 126.305"
	 style="overflow:visible;enable-background:new 0 0 147.401 126.305" xml:space="preserve">
	<style type="text/css">
	
	</style>
	<g id="Layer_1">
		<path style="fill:#FFFFFF;stroke:#000000;stroke-width:0.5;" d="M56.019,20.69L44.237,31.659c0,0-7.313-17.063-4.063-20.313
			c3.25-3.25,11.375-10.969,11.375-10.969l4.276,5.8"/>
		<path style="fill:#FFFFFF;stroke:#000000;stroke-width:0.5;" d="M52.684,7.981c-2.24,3.485,1.219,7.719,3.25,10.157
			c2.031,2.438-0.812,63.378,3.25,66.222c4.062,2.844,15.438,2.844,11.375-2.031c-4.062-4.875-8.125-62.565-7.719-66.628
			C63.247,11.637,56.34,2.293,52.684,7.981z"/>
		<path style="fill:#FFFFFF;stroke:#000000;stroke-width:0.5;" d="M58.879,85.679c3.047,1.219,13.711,3.657,13.711-3.047
			c0-6.703,0-2.438,0-2.438l22.243-2.133c0,0,40.83-6.704,42.963-6.094c2.133,0.609,2.438,6.399,0.609,6.399
			c-1.828,0-57.284,10.36-58.807,10.969s-16.149,5.484-17.673,3.352C60.403,90.555,58.879,85.679,58.879,85.679z"/>
		<path style="fill:#FFFFFF;stroke:#000000;stroke-width:0.5;" d="M70.763,78.062c0,0,3.657,0.305,5.18,0.305
			s60.94-7.008,61.549-8.227s1.6-1.066,2.667-0.609c1.4,0.6,1.295,3.656,0.99,5.18c-0.305,1.524-1.143,1.6-1.981,1.295
			c-2.236-0.813-3.809-0.99-3.809-0.99s-60.635,6.704-61.245,7.618C73.505,83.547,67.716,78.672,70.763,78.062z"/>
		<path style="fill:#FD9377;stroke:#000000;stroke-width:0.5;" d="M59.507,88.364c-1.767-2.944-1.767-18.842-0.883-35.623
			s-0.589-33.267-0.589-35.328l-3.238-0.589c0,0-0.002,7.149-1.653,21.731c-0.327-11.283-1.291-19.934-1.291-21.142l-2.65,0.589
			c0,0-3.238,22.08-2.944,37.389c0.21,10.927,5.068,23.798,7.833,30.274c0.996,3.131,1.896,5.083,2.176,5.642
			c0.883,1.767,7.36,2.061,7.36,2.061S61.273,91.307,59.507,88.364z"/>
		<g>
			<g>
				<text transform="matrix(1 0 0 1 67.0791 100.2893)"><tspan x="0" y="0" style="font-family:Liberation Sans; font-size:7.650000;">axis</tspan></text>
			</g>
			<g>
				<text transform="matrix(1 0 0 1 67.0791 111.2893)"><tspan x="0" y="0" style="font-family:Liberation Sans; font-size:7.650000;">(elbow</tspan></text>
			</g>
			<g>
				<text transform="matrix(1 0 0 1 67.0791 122.2888)"><tspan x="0" y="0" style="font-family:Liberation Sans; font-size:7.650000;">joint)</tspan></text>
			</g>
		</g>
		<g>
			<line style="fill:none;stroke:#000000;" x1="119.594" y1="75.36" x2="119.594" y2="59.573"/>
			<path d="M119.594,57.835c0.304,0.818,0.821,1.833,1.37,2.461l-1.37-0.495l-1.369,0.495
				C118.772,59.667,119.291,58.653,119.594,57.835z"/>
		</g>
		<g>
			<g>
				<text transform="matrix(1 0 0 1 110.2471 45.0349)"><tspan x="0" y="0" style="font-family:Liberation Sans; font-size:7.650000;">load&apos;s</tspan></text>
			</g>
			<g>
				<text transform="matrix(1 0 0 1 110.2471 56.0349)"><tspan x="0" y="0" style="font-family:Liberation Sans; font-size:7.650000;">force</tspan></text>
			</g>
		</g>
		<g>
			<line style="fill:none;stroke:#000000;" x1="60.272" y1="90.008" x2="34.819" y2="48.588"/>
			<path d="M33.908,47.107c0.687,0.538,1.659,1.131,2.455,1.38l-1.426,0.295l-0.908,1.139
				C34.167,49.098,34.077,47.963,33.908,47.107z"/>
		</g>
		<g>
			<g>
				<text transform="matrix(1 0 0 1 6.209 40.7034)"><tspan x="0" y="0" style="font-family:Liberation Sans; font-size:7.650000;">muscle&apos;s</tspan></text>
			</g>
			<g>
				<text transform="matrix(1 0 0 1 6.209 51.7034)"><tspan x="0" y="0" style="font-family:Liberation Sans; font-size:7.650000;">force</tspan></text>
			</g>
		</g>
		<path style="fill:none;stroke:#000000;stroke-width:0.2;" d="M48.572,34.55c-0.213,6.613-1.494,22.827,1.493,33.28"/>
		<path style="fill:none;stroke:#000000;stroke-width:0.2;" d="M50.492,35.19c0.427,9.173,0.427,30.08,2.56,37.333"/>
		<path style="fill:none;stroke:#000000;stroke-width:0.2;" d="M55.826,36.896c-0.427,7.04-2.347,31.787-0.64,40.534"/>
		<path style="fill:none;stroke:#000000;stroke-width:0.2;" d="M56.892,29.216c0,9.6-1.28,21.974-1.28,25.387"/>
		<g>
			<circle style="fill:#FFFFFF;stroke:#000000;stroke-width:1.5;" cx="66.701" cy="86.243" r="4.073"/> 
			<line style="fill:#FFFFFF;stroke:#000000;stroke-width:1.5;" x1="63.98" y1="83.532" x2="69.411" y2="88.963"/>
			<line style="fill:#FFFFFF;stroke:#000000;stroke-width:1.5;" x1="63.98" y1="88.963" x2="69.411" y2="83.532"/>
		</g>
		<path style="fill:#FFFFFF;stroke:#000000;stroke-width:0.5;" d="M49.235,4.919c2.484,1.242,13.628,1.243,13.662,2.484
			C63,11.233,52.96,8.231,51.305,9.059"/>
		<rect y="55.45" style="fill:none;" width="147.401" height="2.834"/> 
	</g>
</svg>
