<?xml version="1.0" encoding="iso-8859-1"?>
<!-- Generator: Adobe Illustrator 11 Build 196, SVG Export Plug-In . SVG Version: 6.0.0 Build 78)  -->
<!DOCTYPE svg PUBLIC "-//W3C//DTD SVG 1.0//EN"    "http://www.w3.org/TR/2001/REC-SVG-20010904/DTD/svg10.dtd" [
	<!ENTITY ns_flows "http://ns.adobe.com/Flows/1.0/">
	<!ENTITY ns_svg "http://www.w3.org/2000/svg">
	<!ENTITY ns_xlink "http://www.w3.org/1999/xlink">
]>
<svg
	 width="147.939" height="234.712" viewBox="0 0 147.939 234.712"
	 style="overflow:visible;enable-background:new 0 0 147.939 234.712" xml:space="preserve">
	<metadata>
<?xpacket begin='﻿' id='W5M0MpCehiHzreSzNTczkc9d'?><x:xmpmeta xmlns:x='adobe:ns:meta/' x:xmptk='XMP toolkit 3.0-29, framework 1.6'>
<rdf:RDF xmlns:rdf='http://www.w3.org/1999/02/22-rdf-syntax-ns#' xmlns:iX='http://ns.adobe.com/iX/1.0/'>

 <rdf:Description rdf:about=''
  xmlns:pdf='http://ns.adobe.com/pdf/1.3/'>
 </rdf:Description>

 <rdf:Description rdf:about=''
  xmlns:tiff='http://ns.adobe.com/tiff/1.0/'>
 </rdf:Description>

 <rdf:Description rdf:about=''
  xmlns:xap='http://ns.adobe.com/xap/1.0/'
  xmlns:xapGImg='http://ns.adobe.com/xap/1.0/g/img/'>
  <xap:CreateDate>2006-07-17T02:40:41Z</xap:CreateDate>
  <xap:ModifyDate>2006-07-17T02:40:41Z</xap:ModifyDate>
  <xap:CreatorTool>Illustrator</xap:CreatorTool>
  <xap:Thumbnails>
   <rdf:Alt>
    <rdf:li rdf:parseType='Resource'>
     <xapGImg:format>JPEG</xapGImg:format>
     <xapGImg:width>164</xapGImg:width>
     <xapGImg:height>256</xapGImg:height>
     <xapGImg:image>/9j/4AAQSkZJRgABAgEASABIAAD/7QAsUGhvdG9zaG9wIDMuMAA4QklNA+0AAAAAABAASAAAAAEA&#xA;AQBIAAAAAQAB/+4ADkFkb2JlAGTAAAAAAf/bAIQABgQEBAUEBgUFBgkGBQYJCwgGBggLDAoKCwoK&#xA;DBAMDAwMDAwQDA4PEA8ODBMTFBQTExwbGxscHx8fHx8fHx8fHwEHBwcNDA0YEBAYGhURFRofHx8f&#xA;Hx8fHx8fHx8fHx8fHx8fHx8fHx8fHx8fHx8fHx8fHx8fHx8fHx8fHx8fHx8f/8AAEQgBAACkAwER&#xA;AAIRAQMRAf/EAaIAAAAHAQEBAQEAAAAAAAAAAAQFAwIGAQAHCAkKCwEAAgIDAQEBAQEAAAAAAAAA&#xA;AQACAwQFBgcICQoLEAACAQMDAgQCBgcDBAIGAnMBAgMRBAAFIRIxQVEGE2EicYEUMpGhBxWxQiPB&#xA;UtHhMxZi8CRygvElQzRTkqKyY3PCNUQnk6OzNhdUZHTD0uIIJoMJChgZhJRFRqS0VtNVKBry4/PE&#xA;1OT0ZXWFlaW1xdXl9WZ2hpamtsbW5vY3R1dnd4eXp7fH1+f3OEhYaHiImKi4yNjo+Ck5SVlpeYmZ&#xA;qbnJ2en5KjpKWmp6ipqqusra6voRAAICAQIDBQUEBQYECAMDbQEAAhEDBCESMUEFURNhIgZxgZEy&#xA;obHwFMHR4SNCFVJicvEzJDRDghaSUyWiY7LCB3PSNeJEgxdUkwgJChgZJjZFGidkdFU38qOzwygp&#xA;0+PzhJSktMTU5PRldYWVpbXF1eX1RlZmdoaWprbG1ub2R1dnd4eXp7fH1+f3OEhYaHiImKi4yNjo&#xA;+DlJWWl5iZmpucnZ6fkqOkpaanqKmqq6ytrq+v/aAAwDAQACEQMRAD8AJvPX55J+ZF3bLDBdad5Y&#xA;tJvTntFkUyz0cM0pAHAN6ZHBWqFNd98VZIJf+cZv0bX0dUFxxpxrL69aVr9r0K9sVeRXX1X61N9U&#xA;5i15t9XEtPU9Op4c+Pw8uPWmKsx/Lt/ypUTjzvHetMXH1ZoCfq4jpvy9MiXlX6KYqivOOrflzpl7&#xA;Y3/5by6jZ6nby8pLh2YQhR04+oTIWJ7H4adRir3v8mfzgsvzI0zUJEsnsb/SJUt72NmDxuXU8ZI2&#xA;FNmKN8JG3vir0XFXYq7FXYq7FXYq7FXlF9+c2tal5ou/Lvkfy8dZnsWZLm8mlEUIKNwY7gDgG2DF&#xA;xXsMVSrzz5t/PnQdDk1i7h0ewsoiok+rkySqXbgu0zsrEk/s1/Xirx+//Ob8zr6vra/cRg9rcR2/&#xA;/JlUxVnVl/ypy50eK580+d9V1m9kjDTwSPdUDkboIzG7bEkVL0xVgdl+a8/5eatquoeTVlutAegi&#xA;07U2+2tVHN/SKhXG/Ejtsa4q+tPJfmWDzR5T0jzFBH6Meq2sV16HIP6bSKC0fIUrwaq1piqdYq7F&#xA;X5xeTo5ItOnjkUpIlw6ujAhgwVQQQehGKp7irsVdirsVe1/84XRSi286ylGET31uqyUPEsomLAHp&#xA;UBhX54q+lcVdirsVdirsVdirzP8A5yP1PXdL/JzXr/RLuWyvYRbBriBmSVYpLmOOTg67r8L7kHpX&#xA;FXyh5e8wa1ZxQ6hp+oXNneTxKZbm3mkikbkAW5OhDGp674qidU13W9WdZNV1C5v3T7D3U0kxHyMh&#xA;bFUDirsVQ2pwNPp1zCo5M8TBQNyWpt+OKvr/AP5xxt9YtvyY8uW+rW0tpdxRzgRTqUk9I3MrQsVa&#xA;hUGMrSvbfFXpWKuxV80/n4uh6f8Am1otxfWavpptLafUoYlAMq/Wp/UJAKcmKjud/HFWLyau7OTB&#xA;5s0GOE/YjbSZYyo7LwTTZFWnsxxVb+lrr/qb/L//AHC5/wDvF4q79LXX/U3+X/8AuFz/APeLxVKP&#xA;OOpaTd2mnRxXFtf6tCZjfajZWv1OB424CGPgY4GkZCrnmY12YDemKvrryNa21v5O0VLeJIVextpG&#xA;WNQoLtCpZiBTcnqcVT3FXYq7FXYq7FXYqx/z/wCVV82eS9Z8uGUQHU7WSCOdhyCSEVjcgUqFcA4q&#xA;+Px+V/mDQPMkHkrUri2OoRJzku4TI9uIvTM5cVjSRuEYNQErUUFcVV7fS/JbS+lBc6tq0o6x21nF&#xA;Ap/1Waa4f74xiqdR+VljQPF5H1ERn7M+r3bQxt2rVYbJQP8AZ7eOKrjFcWv/AB6eVNHp0DzR6kw+&#xA;avLqTV26EYqkPm+/0l7vTpNMkt5r+3hH6QvrG3+qWss4kZlMUBSGnFOILemvI/s9yq+09Pu0vbC2&#xA;vI/sXMSTJTfaRQw/XiqIxV2Kvl//AJyg/wCU/wBP/wC2VD/1E3GKvH8VdirsVdir7o8m/wDKIaH/&#xA;ANs+1/5MriqcYq7FXYq7FXYq7FXYq+Zf+clYbjT/AD/pmq2kj280tlG0c8TFHWWGVxyVlowIUrQ4&#xA;q81ufPXnS5j9OfXb9ov99fWJVT58QwWv0YqkskskrmSV2d2+07Ekn5k4qtxV2Kvtf8rtQ+v/AJd+&#xA;Xrgmp+owxMfFoV9In70xVlOKuxV8v/8AOUH/ACn+n/8AbKh/6ibjFXlsWh63NGskWn3MkbCqusMj&#xA;KR7EDFV3+HfMH/Vsu/8AkRJ/zTirv8O+YP8Aq2Xf/IiT/mnFUJcWtzbSelcwvBKNzHIpRqfJqHFX&#xA;3H5N/wCUQ0P/ALZ9r/yZXFU4xV2KuxV2KuxV2KuxV4J/zlVYFrTy9qAG0clzbuf+Mgjdf+INir56&#xA;xV2KrkjkkYJGpdz0VQST9AxVEXGl6nbxCa4tJoYj0kkjdVP0kAYq+qf+cddQ+tfllaw1r9Rubi3+&#xA;VX9an/JbFXpuKuxV4L+bFrb3X56eXYbiNZYv0WHKOKjkj3bqaezKDirJcVdirsVYT+btnbS+UJbi&#xA;SNWntpIjDJT4l5OFYA+BBxV7n5N/5RDQ/wDtn2v/ACZXFU4xV2KuxV2KuxV2KuxV5R/zkrYC5/Lp&#xA;bim9lfQTV70ZXiI++QYq858n/lToDaTa32rK17cXUSTemHZI0DqGUDgVJIB33xVltr5K8pWtPR0m&#xA;1qOjPGsh+9+RxVNobe3gXjBEkS/yooUfhiqldXFgZ49OuSrSXkchS3deQkjj4iSu1KD1B18cVQ//&#xA;ADjbL9WtPNGh/wDVu1ENx329QNF3/wCYfFXs+KuxV4V+Z/8A5Pry5/2yj/2OYqyDFUn1XzF9RnEM&#xA;GnXWpPxZm+p+g3EqQChEksR5VcbDoDU0GKpLq/5r+VNG0/67qwvLAMIzDBPayxySmQElYwwAJQqQ&#xA;9SKEeBUlVLfP3mPTdW8l6pDbsUu7SWAXVo5QyR8pqKSY2kRlbgeLKxB8cVfQPk3/AJRDQ/8Atn2v&#xA;/JlcVTjFXYq7FXYq7FXYq7FWGfnHYG+/LHzBABXhbfWP+kd1n7f8Y8Vee+Qbr615N0mWteMAi/5E&#xA;kxf8aYqyDFXYqwHUvzS8rQeaXtFuIZIdGjnXWbkhQ1uzFQAjOyswBRlkCBvi4L1NMVTz8lryGH81&#xA;vNNlDIr2+oWqX8LoQVcFkkVlIrWoua7Yq93xV2KvjH8u/wAxPM3n78xrHXPMM0cl0jXFvbpFGsaR&#xA;QLbySLGoUVIDStuxLb9cVe84qxK6sr3SNYl1Kw0AXyK7FZYLk/WXS+ZWuuMUxWLmJYIj8TheHQil&#xA;MVedfmr+Wvm/zhp6app8M5vLe8uXXTL1oY3MEyQqvoUmlRQvo9GZS25oNgVUp0f8udb8teSNX1PW&#xA;Lc2N3dx2lu1q063DuyT82mYp8KVBVVTkaUNeuKvbf+cW/wAxvMnm3RNb07W5I5x5fnhtrCdUWN/Q&#xA;ZXVI3CBVPARbNSp71xV7hirsVdirsVdirsVdirHPzD1jy/pXkzVp9fvYrHTZreS1knm6FrhDGqhQ&#xA;CWJ5dAMVeLfk/d+t5OWKtfqtxLFTwrST/mZirN8Vdir5i1v8hvOq+drhobKPU9Gurl5hP9aitqxS&#xA;OWo/ImUFKjlxjb2xVH/mjZaz5JTTk0fUri0vbLTbOP69ayPBIxhPot8SFTT92DSvhir7D/L7XJde&#xA;8ieXtZmf1LjUNOtbi4elKzSQqZOgH7dcVZBir4o/KzyP5m8mfmBZ6N5is2sr4S3MsakqyyRfV5I1&#xA;lRlJBRmjahxV9BYq7FXYqw/82P8AlCLz/jJD/wAnVxVGf84oeRfM3lvR/MOo61aGzh1u5hm05HZS&#xA;8kMaufV4qTxVvVHGu/0UxV7zirsVdirsVdirsVdirxr/AJy20w3n5L6hOBX9HXdpc/8ABSi38R/v&#xA;/FXnH5AX/r6New17W84H/GVCD/xAYq9XxV2KpXeQBvMGmzfVGlMcN0ovQ5Cw8zF8BSnxepx2Pbj7&#xA;4q85/PDy9JrN5othBJHFc6n6llHJMSqK7PGI2cqGbiGk3IU4q+iPy08p3PlHyHovlu6uVu7nTbcR&#xA;TXCAhGcsXYJWh4qW4rXsMVZPiryb85Pyu8yeYdX0/wAzeWLhU1ewiFuYHYR8kV2dGjY/DWsjBg2x&#xA;H3FVjsWh/n8kaq2j6bKw6u8qBj8+M6j8MVX/AKG/Pz/qx6X/AMjR/wBlGKu/Q35+f9WPS/8AkaP+&#xA;yjFUr1L8rPzl82Xdvaa2tppmlq4aQxyI0a+LcEaR3an2QTT3GKvoTTrGGw0+2sYK+haRJBFyNTwj&#xA;UKtT8hiqIxV2KuxV2KuxV2KuxVLvMPl/SPMWiXmiaxbi60y/jMVzASy8lqDsykMpBAIINQcVfNF5&#xA;Z2H5SfmDeaUlrcf4cuIIhYyMeb+nxU8wzU58JOan/OqqfSfm55PAX0nuLiRukUUJ5V8PiKj8cVVY&#xA;vO/mC+30fyfq16h6SNE8a+1WVZFHTxxVQns/zj1DX9Na38siwkMN0ITcTBoOJ9HmZqMpDDbhX/K2&#xA;OKpz5e/I/wA433muy1/zpqVtLFZSJNHZWxZyTG3JY90jRE5DelSfxxV7nirsVdirsVdirsVdirsV&#xA;dirsVdirsVdirsVdirsVQep6No+qxLFqdjb38SHkkdzEkyhvEBwwBxVdZaXplgvGxtIbVelII0jF&#xA;P9iBiqKxVJb+5hTzVo9u15NFNNb3rR2SD9zMIzByeQ/zR8hw/wBY4qnWKuxV2KvkLz3+eqfmLeQw&#xA;2a3eneVbWYxXFurr61wOQLSlRRa+mRxRiQD3xVPxF/zjMNNp62qG4415Ul9etKU+z6Fe/hiryK6+&#xA;q/WpvqnM2vNvq5lp6np1PDnx+Hlx60xVmP5dp+VLCc+d5L1Zg4+rLAD9XMdN+Xpgy8q/RTFUZ5v1&#xA;X8vNHvbK/wDy1vNRttSik5SyMWWEINwB6lJSeXUGqkdcVe9/k1+b9h+ZGl38sVnJY3+kTLb30LEO&#xA;jFweMkbCmzcG2IqMVeh4q7FXYq7FXYq7FXYq7FXnP5u/m3D5Is4ILCOG91u6YhIJGqkKKAS8yoQ+&#xA;/IcVqK7mu2KoS1j/AOchb+zW5e60HTWdeawFZZGFRUBmUTJ9KscVeP8AmH85/wA29O1S60ybXYDJ&#xA;au0MklnDayRMR+0knpk/q+/FVbyV5481+adaa01/8xm8u26xllVwkRnIIrwkHpRx8O/JqmuwO9FU&#xA;y8+aufLUUN95f/M++1rVFlU/URcNcQle7MUd4QB/KwNcVem/lD+dujef5LrSPRltfMGlQRyX8bqB&#xA;FLUBXlgIZjx5no1DuOuKvTMVfnD5NR002dHUq63DBlIoQQq1BGKp9irsVdirsVe1f84XRyC286yF&#xA;SI2vbdVeh4llExYA+I5CvzxV9LYq7FXYq7FXYq7FXYq7FXwH5n9dfzX8+Rzszv8Api6KljyPD6xL&#xA;w3/1OOKrvrd0IvS9aT0qU9PkeNPClaYqo4qpPX6zFulOL1B+32+z7eOKquKvQf8AnFOZ4fzs1yDf&#xA;07jRpGoBX4lmtSCT2G7DFX1/ir5n/Pe28u6Z+bWjzXVjGumyW1vc6pDBGFM1bqb1XcIU5syrQmtT&#xA;44qxmXVImlcxeYvKqRFiY0OhEELXYGulSdv8o/M4qt/Sf/fx+VP+4F/3p8Vd+k/+/j8qf9wL/vT4&#xA;qlHnC90W4stPS3msrzV42mN9faZaGxtmiYJ6MfpGK25OpDksIl2IHxYq+ufIdlZ2nk3RY7SCO3R7&#xA;K3ldIkVAZHiVnchQKsx3J74qn2KuxV2KuxV2KuxV2KuxV8s/n5+UmneXNbu/O9nfSOfMN5xuNPdF&#xA;CxyGMu7rIDvyZSaFe/XFWNT+T9H04wwXcGr6jdNBFcSPYwIluRPGJFEUriVnUBqc+I3rQYqiYfKM&#xA;LAmDyP5lueOxkebjGK/zBbD4aD/L98VU5fLU8d5AR5JSNAknJtR1B43A+GhB9S1FDQ1NKYqs13TN&#xA;Hi0G9lvdO0zSNRjMf6Mi02/e8mlYyKJEniNzehEERZuZ4fEABWuyr2z/AJxp07SU8jyajBZwx6lL&#xA;dSwXd6saLNIqcWRXkA5sqhtgTtir13FXy/8A85Qf8p/p/wD2yof+om4xV4/irsVdirsVfdHk3/lE&#xA;ND/7Z9r/AMmVxVOMVdirsVdirsVdirsVdiryT/nJqAy/l5buK/uNShkNBXrFMm//AAeKvmmDXtct&#xA;7ZbWDUbqK2Q1SBJpFQE9woNBiqEmuLicgzSvKR0LsWpX54qhZFrdQt6ZaiuPUrsteO1PfFVbFX07&#xA;/wA4vT8vI+owmv7vUpGBPSjwQ7D6VxV7Hir5f/5yg/5T/T/+2VD/ANRNxiryyDRdYuIxLBYXEsTf&#xA;ZkSJ2U/IgUxVf/h3zB/1bLv/AJESf804q7/DvmD/AKtl3/yIk/5pxVBz289vIYp42ilXqjqVYfQc&#xA;Vfcnk3/lEND/AO2fa/8AJlcVTjFXYq7FXYq7FXYq7FXYq82/5yFt/V/K7UXpX0JraSvhWdUr/wAP&#xA;ir5IxV2KqMgH1uHZ68XoR9j9n7Xv4YqrYq+iv+cVpw2leYLfasc9vId9/jRxuP8AYYq92xV4J+bV&#xA;na3n55+XYLqNZoTpgcxsKqTG9261Hsyg4qyXFW8VdirCPzdsbSbyjLdSRK1xbSRGGWnxLycKwr4E&#xA;Hpir3Tyb/wAohof/AGz7X/kyuKpxirsVdirsVdirsVdirsVYR+ddv9Y/K7X46A0hjk3/AOKpkk/4&#xA;1xV4p5C/LXy9daFbapqkZvJ7tfUWMsyxotSAAFKkmnWuKsvi8ieT4/s6RbH/AFk59P8AWriqhNoX&#xA;li38wabDHaQW8skN06W0VvEIpOBiq7kL9pOQ4/M4qm9xomjXMBgnsYJISCCjRpTfrTbbFUu/5x6t&#xA;odM83edNIhqsMbwGFGqW4RvKF3+UmKvdMVeFfmf/AOT68uf9so/9jmKsgxVjXm3z/oPlWFLjVvVW&#xA;0YshuYgroJQCRFTkHLtToqmnU0FTiqI8sec9D8xwh7B3Sb0kuDazr6cwikLKj8an4SUI2OKpZ+bH&#xA;/KEXn+vD/wAnVxV7b5N/5RDQ/wDtn2v/ACZXFU4xV2KuxV2KuxV2KuxV2KsZ/MyAT/l55kQ02026&#xA;k3Ff7uJn/wCNcVeUfllL6vkfS27hZU61+zM6/wAMVZRiqR6n5g0uy16ztbnWrazJhlabT5WjV5OT&#xA;RrE/JjVOJJAH7XL2xVPMVSH8pG9D85/NVpuPVsln49QaNAa1/wCeuKvc8VfGf5f/AJj+ZPzB/Mew&#xA;1zX2iNzG1xbW8cCCNI4FglkSMd24tK27EnFXu+KvHPzn/LfX/MGnMmh2KUs7o3kKpMWe6e9otxyW&#xA;SnB42RSPi48DtSlMVU/yJ/LPzJ5e1G61zXoXs7mW1NklvJMkzSKZEcOQlQgRYlVQWJ69BTFWb/mx&#xA;/wAoRef68P8AydXFU3/5xd/MjzH5u0XW9P1popB5fmgtbGaNBG3oMjqqOF2PAQ7GlTXfFXt2KuxV&#xA;2KuxV2KuxV2KuxVhP5v+ePLnlLyVeTa5O8SamkmnWiRIZHeeeJwABsAAASSSB9NMVeWflFKH8lwr&#xA;t+6mmTb3blv/AMFirNMVfJPm7TvPGl/mfq0Ej3VrPrdzLEt9DE8zyWc0qkGHgCxogUERkED4PEYq&#xA;+mfItjqth5O0ey1Vi+oW9rHHcFjVgQuysfFRQHFXmH5g/mB5g/Lv8wbvzDoYga6mhgimjnVnR4WV&#xA;OSkKUNSYRvXFX1X+n4/8Kf4g9P8Ad/UPr/pchTj6PrceX8cVfHn5U+SvM/k7z7Y6R5jsXsL4yXMq&#xA;RuVYPEbeSMSIykgqWjahxV9CYq7FXYqw/wDNj/lCLz/Xh/5OriqK/wCcTvJHmby7pPmPUNas2soN&#xA;ZuYJtOEhHOSJFdvU4gmit6o41xV73irsVdirsVdirsVdirsVfPv/ADmnbk/lrpF0oJaDWYgaCoCv&#xA;bXG5+lQMVSv8lJhJ5VuUrXhePQf5LRRkfjXFXoOKpbdQytrunyrbxPHHDch7ljSWMsYuKoK7h6Hl&#xA;t2GKplirwb8/NC1TVvMMVhpVpNfahd2sBgtLeNpJXImcEBVBJoqknwGKvpj9Ba//AMqW/QH1dP8A&#xA;EH+G/qH1XmOH1z6j6Xp868aertWuKsZ/Ob8svNGva1p3mfytKp1WwhFu1uzrGSquzo0bP8FayMGD&#xA;GlMVY7Dp/wCfqRhZfK9pK46v9Zt1J+YFzTFV/wBR/Pj/AKlS0/6Srf8A7KcVd9R/Pj/qVLT/AKSr&#xA;f/spxVKtR/LX86fN13DZa1aW+j6UJAzkTQugp+0VikmkdgOg6V8MVfQ+nWMNhp9rYwV9G0ijgiru&#xA;eMahVr9AxVE4q7FXYq7FXYq7FXYq7FUs8x+WdA8y6VLpOu2MWoadMQXt5hUclNVYEUKsOxBrir5l&#xA;0jXV/LzzHrPl3WLKWC1+tM9s0YrxSpCMAxHJHQKQQcVZC35v+T9ghuZGJoEWLff5kYqhJvzBs7vW&#xA;bG6s/Leq3jwR3ES3CxEcPU9MlQilw3Ph3pSnviqZjzf5xnUGy8j6vLyB4vJDKiVH+V6TDFUR+XHk&#xA;f8wNW/MW183eZrI6XaacjehC4Cs1UZUjRCS4AMhZmb5fJV75irsVdirsVdirsVdirsVdirsVdirs&#xA;VdirsVdirsVQ13punXhU3drDcFKhDLGr0r1pyBpiqrDb28IIhiSIHqEULWnyxVKb8Q/4q0ctHdNN&#xA;9XvfTlj/AN5VFYOQn/y229P5NiqdYq7FXYq+SPP/AOfEf5gXlvDpL3um+WLWYx3CghZrg8gTKVVq&#xA;U9MjgjHrWuKsi/6x1/Rlf07rH1jj0rcevXr/AL69CvbwxV5DdahOLmYWt3cNbB29AyOQ5jr8PMAk&#xA;cqdaYqzH8up/y6mNwfO+q6jbShh9WWAyGAoRuXMSyScq+wHzxVF+cdc8k6JfWV/+XGt6odQik5TP&#xA;K0ggCAbU9VUcknqrAqRir3f8n/zf0r8yNNv5ba1ls77SZUt7+GShUs6kq8bA7qxRtjuKYq9AxV2K&#xA;uxV2KuxV2KuxV2KsX/Mn8wNK8g+UbrzJqcUlxBbtHHHbQ09SSSVgqqCxAHWpJ7D6MVfM9v590jzl&#xA;50k1fzrf6ja6DcKz2VvZvX0FJUxRso5UXhXmUWpbfFU387S/krHokreWNX1WbVwAbZA03pFiQCJf&#xA;rCJsB/KcVeVSanfC6hX65OCVchA7cTTjud+2KvW/Kkv5Fvodu+vaxq0erempu43M/H1afGsXoI68&#xA;OX2eRr44qlFh+aumeQPN1xqPly51HU/KIT/SbG7cCSWq9VqAoKPTixANNj1xV9Hf8rK8v/8AKtv+&#xA;Vg8Zv0N9R/SHpcR6/Gn93xrx58vh+1SvemKvgzyYCNMmBFCJ2BB/1ExVP8VdirsVdir2r/nC1HFv&#xA;52cqeBvbYBqbEgTEivtUYq+lsVdirsVdirsVdirsVdirxf8A5y5ikf8AJm8ZFLLHe2jSECoVTJxq&#xA;f9kwGKvl/T/94Lb/AIxJ/wARGKojFVJ3IuYl9TiGVyY6fapTevamKquKpfr/APxxrv8A1P44q+lP&#xA;Qn/6E54em3P9A8+NDXhz58qeHH4q+GKpD+e1l5a0z82NHe5so4tLltre51SK3jCGXldzeq7iPgXZ&#xA;lXc1qfHFWOS303qMbfWvKggJrEP0TBsvb+909pP+CJOKrPr17/1e/Kn/AHCbX/vG4q769e/9Xvyp&#xA;/wBwm1/7xuKpP5xutHmtNPWKSyudZQy/X7rS7c2tq0R4eihj9OBDKpD8mSNRQgbkYq+uPIOn2Fj5&#xA;N0ZLK2itUls7eaVYUWMNI8KF3YKBVmPU9TirIMVdirsVdirsVdirsVdiqldWtrd28ltdQpcW0qlZ&#xA;YJVDo6nqGVgQR88VfHkDaDZebfM9vL9SsrkXM8WjzXtubiyhK3JDK0KpMo/djinKJlHgOoVRH169&#xA;/wCr35U/7hNr/wB43FVJ72++sxf7nPKIHF6g6Tacz9n7P+43p44qrC+ugQX1vypw/a/3E25277Jp&#xA;vL/gd8VW+VIPLWp/nBp0NlaxTaJcXaL9WkjrC/7v94RFLypG0gZkVui0GKvr30IPQ9D019Djw9Kg&#xA;4cKU48elKbUxV8x/85Qf8p/p/wD2yof+om4xV4/irsVdirsVfdHk3/lEND/7Z9r/AMmVxVOMVdir&#xA;sVdirsVdirsVdirsVfC/nL/lL9c/7aF1/wAnmxVJ8VUnVjcxMEUgK9XP2hXjsPniqrirMPyg/wDJ&#xA;meXv+Ytf+InFX2hir5f/AOcoP+U/0/8A7ZUP/UTcYq8oi03UZUEkVrNIjdHWNiD9IGKrv0Rqv/LF&#xA;P/yKf+mKu/RGq/8ALFP/AMin/piqHlilicxyo0bjqjAqR9BxV9y+Tf8AlEND/wC2fa/8mVxVOMVd&#xA;irsVdirsVdirsVdirsVfDHnBWbzjraqCWOo3QAG5JM7Yqgf0Rqv/ACxT/wDIp/6YqoyaNqpuoW/R&#xA;9w1Fcep6b0WvHalO+Kqp0rVACTZzgDckxv8A0xVk35Q/+TM8vf8AMWv/ABE4q+0MVeB/m3ZWt7+e&#xA;Xl23u4lmgbSwzRuKqTG9261Hf4lGKsmAAAAFAOgxVvFXYqwb83tPs5vKcl5JEpurWSP0ZqfEodwr&#xA;CvgQemKvdvJv/KIaH/2z7X/kyuKpxirsVdirsVdirsVdirsVdir5r8hWVo/nDzhePErXMWoypFKR&#xA;VlVppSwXwrQVxVn+KpXeel/iDTeSTmT0brhIn9worFUS/wCUduH+yxVNMVYPc6fZ2350eU7iCJY5&#xA;bqXlcFRTmy8gGI8ad8VfRuKvCvzP/wDJ9eXP+2Uf+xzFWQYqxrWfzB8s6TrsOgzzmXWJ43mWziAL&#xA;LGkbSEszFEBKoaLy5HsNxiqd6ZqdjqdlHfWMwntpa8JFr1UlWUg7hlYEEHcHbFWM/mx/yhF5/rw/&#xA;8nVxV7b5N/5RDQ/+2fa/8mVxVOMVdirsVdirsVdirsVdirsVfOX5f/8AKS+c/wDtqSf8nZcVZxir&#xA;z2P82/I175mjt7fVZfSs/VgnlVaWbPIyKrO5PKilaK/HjuTWm+KvQsVYfqP/AJODyX/xkb9ZxV9C&#xA;4q+NvIf5leYfzD/MjT9c1wQpcRfWLWCO3TgiQLBLKq7liSDK25xV7pir56/N38oPOuoeepvMOh27&#xA;aja35iMiRzJDNEyRrEyVkZfhKpswrTofdV6z+WHlOfyt5Sh0y4ASVpprhoA/qiETOWWL1KLzKLQF&#xA;qCpriqn+bH/KEXn+vD/ydXFU7/5xi/MzXvOOh6xp2rpD/wA67LBaWc0KlC0DIyoripBZfR+0OtcV&#xA;e1Yq7FXYq7FXYq7FXYq7FXnn58+f9X8iflxe67o6RtqXqw21u8w5ohmehcrtyIUGg8fHpirx78kd&#xA;RutTg1nUrtg11eyw3FwygKDJKHdyAOnxNir0m7t1ubSa2ZiizxtGWXZgHBWo998VfKtv+RfnO38z&#xA;jQby2R7a8WU29+twiRcIiB9Y4fFI3DmP3ZUHfr3xV9WwxCKGOIEkRqFBPU0FN8VeS/nT5i1Ty3rO&#xA;la7pTrHqOnwvNbO6h1Dh6bqdj1xV7L/ytDWP+VBf8rC+rQ/pf9FfW/Q+L0PX+xWleXHl8XGvtXvi&#xA;r5w/KTyd5l8pefbPSfMVhJp9+Jbl1ilGzx/V3QSRsKq6FkYBhsaYq+h8VdirsVYf+bH/AChF5/rw&#xA;/wDJ1cVV/wDnEnyb5l0HSvMt/rFhJY2+r3UEmnesOLSxosh9QL14ESrxPfFXv2KuxV2KuxV2KuxV&#xA;2KuxV5b/AM5J+Ude80/lVfadoVq17qEc8FytqlPUdIn+MID1YA1p37b4q8p/Ie1ubTT9UtbmNobm&#xA;3a3inhcUZHRXVlYHoQRQ4q9TxVLbr1P07p9JLZU9G55RyU+ssaxUMO1eI/3Zv/LiqZYq8Z/PrStR&#xA;1a8sNO022ku7+6t3jt7aFS0jsXGyqOuKvXP8BeZ/+hZv8HfVR/iH9C+l9S5rX1v7z0eVePL9nrSv&#xA;em+Kt/nP+Wvm3Wte0zzT5UdX1OxhFs9sXSNuKu7q6GQhDX1WDhj0p13xVI7ex/PVIws/lS2lcbF1&#xA;u7ZK/R67Yqq/VPzt/wCpPg/6Trb/AKrYq76p+dv/AFJ8H/Sdbf8AVbFUk1X8uvzq83XFvp+rafb6&#xA;RpXqBpZFmgdBTbkwjllkcgE0A2/Xir6H02xi0/TrWwhJMNpDHBGW6lYlCCv0DFUTirsVdirsVdir&#xA;sVdirsVdir581r8r/wA0/L/nPU9T8pQRanpuqTPcNG8sSD945fhKkrwnkhYgMh6fdiqI+o/nx/1K&#xA;lp/0lW//AGU4qhJ9J/PJ9TtZ28oWLSxRzLHI13b81D8OQX/Suh4iu3hiqLNj+fNDTypaA9ibq3/7&#xA;KcVVfIH5XfmFdefbbzT5zRLOPTqtb2yyRyFm4kIqCFpFVFLcjVqn6a4q92xV/9k=</xapGImg:image>
    </rdf:li>
   </rdf:Alt>
  </xap:Thumbnails>
 </rdf:Description>

 <rdf:Description rdf:about=''
  xmlns:dc='http://purl.org/dc/elements/1.1/'>
  <dc:format>image/svg+xml</dc:format>
 </rdf:Description>

</rdf:RDF>
</x:xmpmeta>
                                                                                                                                                                                                                                                                                                                                                                                                                                                                                                                                                                                                                                                                                                                                                                                                                                                                                                                                                                                                                                                                                                                                                                                                                                                                                                                                                                                                                                                                                                                                                                                                                                                                                                                                                                                                                                                                                                                                                                                                                                                                                                                                <?xpacket end='w'?>
			</metadata>
		<g id="Layer_1">
			<g>
				<g>
					<g>
						<path d="M35.563,174.457c0,1.228,0.995,2.222,2.223,2.222l0,0c1.228,0,2.223-0.995,2.223-2.222v-6.668
							c0-1.228-0.995-2.223-2.223-2.223l0,0c-1.228,0-2.223,0.995-2.223,2.223V174.457z"/>
						<path d="M35.563,223.912c0,1.228,0.995,2.223,2.223,2.223l0,0c1.228,0,2.223-0.995,2.223-2.223v-6.668
							c0-1.227-0.995-2.223-2.223-2.223l0,0c-1.228,0-2.223,0.996-2.223,2.223V223.912z"/>
						<path d="M0,174.457c0,1.228,0.995,2.222,2.223,2.222l0,0c1.228,0,2.223-0.995,2.223-2.222v-6.668
							c0-1.228-0.995-2.223-2.223-2.223l0,0c-1.228,0-2.223,0.995-2.223,2.223V174.457z"/>
						<path d="M0,223.912c0,1.228,0.995,2.223,2.223,2.223l0,0c1.228,0,2.223-0.995,2.223-2.223v-6.668
							c0-1.227-0.995-2.223-2.223-2.223l0,0c-1.228,0-2.223,0.996-2.223,2.223V223.912z"/>
						<path style="fill:#404040;" d="M2.778,228.357c0,2.455,1.99,4.445,4.445,4.445h25.561c2.456,0,4.446-1.991,4.446-4.445
							v-62.235c0-2.455-1.99-4.445-4.446-4.445H7.224c-2.455,0-4.445,1.99-4.445,4.445V228.357z"/>
						<path style="fill:#BFBFBF;" d="M5.55,226.787c0,1.982,2.589,3.588,5.782,3.588h17.345c3.193,0,5.781-1.606,5.781-3.588
							v-25.569c0-1.982-2.588-3.589-5.781-3.589H11.332c-3.193,0-5.782,1.607-5.782,3.589V226.787z"/>
						<ellipse style="fill:#FFFFFF;" cx="29.358" cy="165.236" rx="4.322" ry="1.473"/> 
						<ellipse style="fill:#FFFFFF;" cx="11.021" cy="165.236" rx="4.322" ry="1.473"/> 
						<path style="fill:#404040;stroke:#FFFFFF;" d="M6.575,179.365c0,1.036,1.12,1.875,2.5,1.875h21.116
							c1.381,0,2.5-0.84,2.5-1.875l0,0c0-1.036-1.12-1.875-2.5-1.875H9.076C7.695,177.49,6.575,178.33,6.575,179.365L6.575,179.365z
							"/>
					</g>
					<g>
						
							<radialGradient id="XMLID_7_" cx="109.126" cy="-182.5103" r="13.7823" fx="109.126" fy="-182.5103" gradientTransform="matrix(0 0.3704 -0.3704 0 -45.8186 174.8768)" gradientUnits="userSpaceOnUse">
							<stop  offset="0" style="stop-color:#CCCCCC"/>
							<stop  offset="0.22" style="stop-color:#000000"/>
							<midPointStop  offset="0" style="stop-color:#CCCCCC"/>
							<midPointStop  offset="0.5" style="stop-color:#CCCCCC"/>
							<midPointStop  offset="0.22" style="stop-color:#000000"/>
						</radialGradient>
						<circle style="fill:url(#XMLID_7_);" cx="20.364" cy="214.371" r="3.929"/> 
						
							<ellipse transform="matrix(-0.3569 0.9342 -0.9342 -0.3569 225.579 267.3635)" style="fill:none;stroke:#FFFFFF;stroke-width:0.4;" cx="20.756" cy="211.332" rx="0.218" ry="0.371"/> 
						
							<ellipse transform="matrix(-0.3569 0.9342 -0.9342 -0.3569 227.803 266.8235)" style="fill:none;stroke:#FFFFFF;stroke-width:0.4;" cx="22.053" cy="211.828" rx="0.218" ry="0.371"/> 
						
							<ellipse transform="matrix(-0.357 0.9341 -0.9341 -0.357 227.0215 268.8521)" style="fill:none;stroke:#FFFFFF;stroke-width:0.4;" cx="20.982" cy="212.559" rx="0.262" ry="0.371"/> 
					</g>
				</g>
				<g>
					<g>
						<path d="M35.563,93.636c0,1.228,0.995,2.223,2.223,2.223l0,0c1.228,0,2.223-0.996,2.223-2.223v-6.668
							c0-1.228-0.995-2.223-2.223-2.223l0,0c-1.228,0-2.223,0.995-2.223,2.223V93.636z"/>
						<path d="M35.563,143.091c0,1.228,0.995,2.223,2.223,2.223l0,0c1.228,0,2.223-0.995,2.223-2.223v-6.668
							c0-1.228-0.995-2.223-2.223-2.223l0,0c-1.228,0-2.223,0.995-2.223,2.223V143.091z"/>
						<path d="M0,93.636c0,1.228,0.995,2.223,2.223,2.223l0,0c1.228,0,2.223-0.996,2.223-2.223v-6.668
							c0-1.228-0.995-2.223-2.223-2.223l0,0C0.995,84.745,0,85.74,0,86.968V93.636z"/>
						<path d="M0,143.091c0,1.228,0.995,2.223,2.223,2.223l0,0c1.228,0,2.223-0.995,2.223-2.223v-6.668
							c0-1.228-0.995-2.223-2.223-2.223l0,0C0.995,134.2,0,135.195,0,136.422V143.091z"/>
						<path style="fill:#404040;" d="M2.778,147.536c0,2.455,1.99,4.445,4.445,4.445h25.561c2.456,0,4.446-1.991,4.446-4.445V85.301
							c0-2.455-1.99-4.445-4.446-4.445H7.224c-2.455,0-4.445,1.991-4.445,4.445V147.536z"/>
						<path style="fill:#BFBFBF;" d="M5.55,145.966c0,1.982,2.589,3.588,5.782,3.588h17.345c3.193,0,5.781-1.606,5.781-3.588
							v-25.569c0-1.982-2.588-3.589-5.781-3.589H11.332c-3.193,0-5.782,1.606-5.782,3.589V145.966z"/>
						<ellipse style="fill:#FFFFFF;" cx="29.358" cy="84.416" rx="4.322" ry="1.473"/> 
						<ellipse style="fill:#FFFFFF;" cx="11.021" cy="84.416" rx="4.322" ry="1.473"/> 
						<path style="fill:#404040;stroke:#FFFFFF;" d="M6.575,98.544c0,1.036,1.12,1.875,2.5,1.875h21.116c1.381,0,2.5-0.84,2.5-1.875
							l0,0c0-1.036-1.12-1.875-2.5-1.875H9.076C7.695,96.669,6.575,97.509,6.575,98.544L6.575,98.544z"/>
					</g>
					<g>
						
							<radialGradient id="XMLID_8_" cx="109.126" cy="-182.5103" r="13.7823" fx="109.126" fy="-182.5103" gradientTransform="matrix(0 0.3704 -0.3704 0 -43.5979 94.1874)" gradientUnits="userSpaceOnUse">
							<stop  offset="0" style="stop-color:#CCCCCC"/>
							<stop  offset="0.22" style="stop-color:#000000"/>
							<midPointStop  offset="0" style="stop-color:#CCCCCC"/>
							<midPointStop  offset="0.5" style="stop-color:#CCCCCC"/>
							<midPointStop  offset="0.22" style="stop-color:#000000"/>
						</radialGradient>
						<circle style="fill:url(#XMLID_8_);" cx="22.585" cy="133.682" r="3.929"/> 
						
							<ellipse transform="matrix(-0.3569 0.9342 -0.9342 -0.3569 153.2168 155.8027)" style="fill:none;stroke:#FFFFFF;stroke-width:0.4;" cx="22.977" cy="130.643" rx="0.218" ry="0.371"/> 
						
							<ellipse transform="matrix(-0.3569 0.9342 -0.9342 -0.3569 155.4408 155.2628)" style="fill:none;stroke:#FFFFFF;stroke-width:0.4;" cx="24.275" cy="131.138" rx="0.218" ry="0.371"/> 
						
							<ellipse transform="matrix(-0.357 0.9341 -0.9341 -0.357 154.664 157.2788)" style="fill:none;stroke:#FFFFFF;stroke-width:0.4;" cx="23.202" cy="131.869" rx="0.262" ry="0.371"/> 
					</g>
					<circle style="fill:none;stroke:#000000;stroke-dasharray:2;" cx="20.236" cy="133.553" r="3.929"/> 
				</g>
				<g>
					<g>
						<path d="M35.563,12.815c0,1.228,0.995,2.223,2.223,2.223l0,0c1.228,0,2.223-0.996,2.223-2.223V6.147
							c0-1.228-0.995-2.223-2.223-2.223l0,0c-1.228,0-2.223,0.995-2.223,2.223V12.815z"/>
						<path d="M35.563,62.27c0,1.228,0.995,2.223,2.223,2.223l0,0c1.228,0,2.223-0.996,2.223-2.223v-6.668
							c0-1.227-0.995-2.223-2.223-2.223l0,0c-1.228,0-2.223,0.996-2.223,2.223V62.27z"/>
						<path d="M0,12.815c0,1.228,0.995,2.223,2.223,2.223l0,0c1.228,0,2.223-0.996,2.223-2.223V6.147
							c0-1.228-0.995-2.223-2.223-2.223l0,0C0.995,3.924,0,4.919,0,6.147V12.815z"/>
						<path d="M0,62.27c0,1.228,0.995,2.223,2.223,2.223l0,0c1.228,0,2.223-0.996,2.223-2.223v-6.668
							c0-1.227-0.995-2.223-2.223-2.223l0,0C0.995,53.379,0,54.375,0,55.602V62.27z"/>
						<path style="fill:#404040;" d="M2.778,66.715c0,2.455,1.99,4.445,4.445,4.445h25.561c2.456,0,4.446-1.99,4.446-4.445V4.48
							c0-2.455-1.99-4.445-4.446-4.445H7.224c-2.455,0-4.445,1.99-4.445,4.445V66.715z"/>
						<path style="fill:#BFBFBF;" d="M5.55,65.145c0,1.982,2.589,3.588,5.782,3.588h17.345c3.193,0,5.781-1.606,5.781-3.588V39.576
							c0-1.982-2.588-3.588-5.781-3.588H11.332c-3.193,0-5.782,1.606-5.782,3.588V65.145z"/>
						<ellipse style="fill:#FFFFFF;" cx="29.358" cy="3.595" rx="4.322" ry="1.473"/> 
						<ellipse style="fill:#FFFFFF;" cx="11.021" cy="3.595" rx="4.322" ry="1.473"/> 
						<path style="fill:#404040;stroke:#FFFFFF;" d="M6.575,17.724c0,1.036,1.12,1.875,2.5,1.875h21.116c1.381,0,2.5-0.84,2.5-1.875
							l0,0c0-1.036-1.12-1.875-2.5-1.875H9.076C7.695,15.848,6.575,16.688,6.575,17.724L6.575,17.724z"/>
					</g>
					<circle style="fill:none;stroke:#000000;stroke-dasharray:2;" cx="20.236" cy="52.815" r="3.929"/> 
					<circle style="fill:none;stroke:#000000;stroke-dasharray:2;" cx="22.585" cy="52.816" r="3.929"/> 
					<g>
						
							<radialGradient id="XMLID_9_" cx="109.126" cy="-182.5103" r="13.7823" fx="109.126" fy="-182.5103" gradientTransform="matrix(0 0.3704 -0.3704 0 -36.6521 13.4489)" gradientUnits="userSpaceOnUse">
							<stop  offset="0" style="stop-color:#CCCCCC"/>
							<stop  offset="0.22" style="stop-color:#000000"/>
							<midPointStop  offset="0" style="stop-color:#CCCCCC"/>
							<midPointStop  offset="0.5" style="stop-color:#CCCCCC"/>
							<midPointStop  offset="0.22" style="stop-color:#000000"/>
						</radialGradient>
						<circle style="fill:url(#XMLID_9_);" cx="29.531" cy="52.944" r="3.929"/> 
						
							<ellipse transform="matrix(-0.3569 0.9342 -0.9342 -0.3569 87.2197 39.7622)" style="fill:none;stroke:#FFFFFF;stroke-width:0.4;" cx="29.923" cy="49.905" rx="0.218" ry="0.371"/> 
						
							<ellipse transform="matrix(-0.3565 0.9343 -0.9343 -0.3565 89.439 39.1987)" style="fill:none;stroke:#FFFFFF;stroke-width:0.4;" cx="31.22" cy="50.4" rx="0.218" ry="0.371"/> 
						
							<ellipse transform="matrix(-0.3567 0.9342 -0.9342 -0.3567 88.6696 41.2058)" style="fill:none;stroke:#FFFFFF;stroke-width:0.4;" cx="30.148" cy="51.131" rx="0.262" ry="0.371"/> 
					</g>
				</g>
				<g>
					<g>
						<path d="M143.494,174.422c0,1.228,0.995,2.223,2.223,2.223l0,0c1.228,0,2.223-0.995,2.223-2.223v-6.668
							c0-1.228-0.995-2.223-2.223-2.223l0,0c-1.228,0-2.223,0.995-2.223,2.223V174.422z"/>
						<path d="M143.494,223.877c0,1.227,0.995,2.223,2.223,2.223l0,0c1.228,0,2.223-0.996,2.223-2.223v-6.668
							c0-1.228-0.995-2.223-2.223-2.223l0,0c-1.228,0-2.223,0.995-2.223,2.223V223.877z"/>
						<path d="M107.931,174.422c0,1.228,0.995,2.223,2.223,2.223l0,0c1.228,0,2.223-0.995,2.223-2.223v-6.668
							c0-1.228-0.995-2.223-2.223-2.223l0,0c-1.228,0-2.223,0.995-2.223,2.223V174.422z"/>
						<path d="M107.931,223.877c0,1.227,0.995,2.223,2.223,2.223l0,0c1.228,0,2.223-0.996,2.223-2.223v-6.668
							c0-1.228-0.995-2.223-2.223-2.223l0,0c-1.228,0-2.223,0.995-2.223,2.223V223.877z"/>
						<path style="fill:#404040;" d="M110.709,228.322c0,2.455,1.99,4.445,4.446,4.445h25.561c2.455,0,4.445-1.991,4.445-4.445
							v-62.235c0-2.455-1.99-4.445-4.445-4.445h-25.561c-2.456,0-4.446,1.99-4.446,4.445V228.322z"/>
						<path style="fill:#BFBFBF;" d="M113.481,226.752c0,1.982,2.588,3.588,5.782,3.588h17.345c3.193,0,5.782-1.606,5.782-3.588
							v-25.569c0-1.982-2.589-3.589-5.782-3.589h-17.345c-3.193,0-5.782,1.607-5.782,3.589V226.752z"/>
						<ellipse style="fill:#FFFFFF;" cx="137.289" cy="165.202" rx="4.322" ry="1.473"/> 
						<ellipse style="fill:#FFFFFF;" cx="118.951" cy="165.202" rx="4.322" ry="1.473"/> 
						<path style="fill:#404040;stroke:#FFFFFF;" d="M114.506,179.331c0,1.036,1.119,1.875,2.5,1.875h21.116
							c1.381,0,2.5-0.84,2.5-1.875l0,0c0-1.036-1.119-1.875-2.5-1.875h-21.116C115.625,177.455,114.506,178.295,114.506,179.331
							L114.506,179.331z"/>
					</g>
					<g>
						
							<radialGradient id="XMLID_10_" cx="109.126" cy="-182.5103" r="13.7823" fx="109.126" fy="-182.5103" gradientTransform="matrix(0 0.3704 -0.3704 0 62.1121 174.8424)" gradientUnits="userSpaceOnUse">
							<stop  offset="0" style="stop-color:#CCCCCC"/>
							<stop  offset="0.22" style="stop-color:#000000"/>
							<midPointStop  offset="0" style="stop-color:#CCCCCC"/>
							<midPointStop  offset="0.5" style="stop-color:#CCCCCC"/>
							<midPointStop  offset="0.22" style="stop-color:#000000"/>
						</radialGradient>
						<circle style="fill:url(#XMLID_10_);" cx="128.295" cy="214.337" r="3.929"/> 
						
							<ellipse transform="matrix(-0.3569 0.9342 -0.9342 -0.3569 371.9962 166.4925)" style="fill:none;stroke:#FFFFFF;stroke-width:0.4;" cx="128.687" cy="211.298" rx="0.218" ry="0.371"/> 
						
							<ellipse transform="matrix(-0.3569 0.9342 -0.9342 -0.3569 374.2202 165.9526)" style="fill:none;stroke:#FFFFFF;stroke-width:0.4;" cx="129.985" cy="211.793" rx="0.218" ry="0.371"/> 
						
							<ellipse transform="matrix(-0.357 0.9341 -0.9341 -0.357 373.4556 167.9883)" style="fill:none;stroke:#FFFFFF;stroke-width:0.4;" cx="128.912" cy="212.524" rx="0.262" ry="0.371"/> 
					</g>
				</g>
				<g>
					<path d="M139.56,94.223c0.085,1.225,1.147,2.148,2.372,2.062l0,0c1.225-0.086,2.148-1.148,2.062-2.373l-0.465-6.652
						c-0.086-1.224-1.148-2.147-2.373-2.062l0,0c-1.224,0.085-2.147,1.148-2.062,2.372L139.56,94.223z"/>
					<path d="M143.009,143.557c0.085,1.224,1.148,2.147,2.373,2.062l0,0c1.224-0.085,2.147-1.148,2.062-2.372l-0.465-6.652
						c-0.086-1.225-1.148-2.148-2.373-2.062l0,0c-1.225,0.086-2.148,1.148-2.062,2.373L143.009,143.557z"/>
					<path d="M104.083,96.704c0.085,1.225,1.147,2.148,2.372,2.062l0,0c1.225-0.086,2.148-1.148,2.062-2.373l-0.465-6.652
						c-0.085-1.224-1.147-2.147-2.372-2.062l0,0c-1.225,0.086-2.148,1.148-2.062,2.373L104.083,96.704z"/>
					<path d="M107.533,146.038c0.085,1.225,1.147,2.148,2.372,2.062l0,0c1.225-0.085,2.148-1.147,2.062-2.372l-0.465-6.652
						c-0.085-1.225-1.148-2.148-2.373-2.062l0,0c-1.224,0.085-2.147,1.147-2.062,2.372L107.533,146.038z"/>
					<path style="fill:#404040;" d="M110.615,150.278c0.171,2.449,2.295,4.295,4.745,4.125l25.498-1.783
						c2.449-0.171,4.296-2.295,4.125-4.745l-4.341-62.083c-0.171-2.449-2.295-4.296-4.745-4.125l-25.498,1.783
						c-2.449,0.171-4.295,2.296-4.125,4.745L110.615,150.278z"/>
					<path style="fill:#BFBFBF;" d="M113.27,148.519c0.138,1.977,2.833,3.399,6.018,3.176l17.303-1.21
						c3.185-0.223,5.655-2.006,5.517-3.983l-1.783-25.506c-0.139-1.977-2.833-3.399-6.018-3.177l-17.302,1.21
						c-3.186,0.223-5.656,2.006-5.518,3.983L113.27,148.519z"/>
					
						<ellipse transform="matrix(-0.9976 0.0698 -0.0698 -0.9976 271.0907 161.4496)" style="fill:#FFFFFF;" cx="132.726" cy="85.458" rx="4.322" ry="1.473"/> 
					
						<ellipse transform="matrix(-0.9976 0.0698 -0.0698 -0.9976 234.6403 165.2797)" style="fill:#FFFFFF;" cx="114.434" cy="86.737" rx="4.322" ry="1.474"/> 
					<path style="fill:#404040;stroke:#FFFFFF;" d="M110.985,101.142c0.072,1.033,1.247,1.793,2.625,1.696l21.064-1.473
						c1.377-0.096,2.436-1.012,2.363-2.045l0,0c-0.072-1.033-1.248-1.792-2.625-1.696l-21.064,1.473
						C111.971,99.193,110.913,100.108,110.985,101.142L110.985,101.142z"/>
				</g>
				<g>
					
						<radialGradient id="XMLID_11_" cx="109.126" cy="-182.5103" r="13.7823" fx="109.126" fy="-182.5103" gradientTransform="matrix(0.0259 0.3695 -0.3695 0.0259 60.8785 100.5927)" gradientUnits="userSpaceOnUse">
						<stop  offset="0" style="stop-color:#CCCCCC"/>
						<stop  offset="0.22" style="stop-color:#000000"/>
						<midPointStop  offset="0" style="stop-color:#CCCCCC"/>
						<midPointStop  offset="0.5" style="stop-color:#CCCCCC"/>
						<midPointStop  offset="0.22" style="stop-color:#000000"/>
					</radialGradient>
					<circle style="fill:url(#XMLID_11_);" cx="129.406" cy="135.077" r="3.929"/> 
					
						<ellipse transform="matrix(-0.2906 0.9568 -0.9568 -0.2906 293.5658 46.3935)" style="fill:none;stroke:#FFFFFF;stroke-width:0.4;" cx="129.585" cy="132.018" rx="0.218" ry="0.371"/> 
					
						<ellipse transform="matrix(-0.2906 0.9568 -0.9568 -0.2906 295.6675 45.643)" style="fill:none;stroke:#FFFFFF;stroke-width:0.4;" cx="130.915" cy="132.421" rx="0.218" ry="0.371"/> 
					
						<ellipse transform="matrix(-0.2909 0.9567 -0.9567 -0.2909 295.1498 47.7086)" style="fill:none;stroke:#FFFFFF;stroke-width:0.4;" cx="129.896" cy="133.225" rx="0.262" ry="0.371"/> 
				</g>
				<g>
					<path d="M129.506,12.313c0.171,1.215,1.295,2.062,2.511,1.892l0,0c1.215-0.171,2.062-1.295,1.892-2.511l-0.928-6.603
						c-0.171-1.215-1.295-2.062-2.51-1.892l0,0c-1.216,0.171-2.062,1.295-1.892,2.51L129.506,12.313z"/>
					<path d="M136.389,61.286c0.171,1.215,1.295,2.062,2.51,1.892l0,0c1.216-0.171,2.062-1.295,1.892-2.51l-0.928-6.603
						c-0.171-1.216-1.295-2.062-2.51-1.892l0,0c-1.216,0.17-2.062,1.294-1.892,2.51L136.389,61.286z"/>
					<path d="M94.29,17.263c0.171,1.215,1.295,2.062,2.51,1.892l0,0c1.216-0.171,2.062-1.295,1.892-2.511l-0.928-6.603
						c-0.171-1.215-1.295-2.062-2.511-1.892l0,0c-1.215,0.171-2.062,1.295-1.892,2.51L94.29,17.263z"/>
					<path d="M101.173,66.236c0.171,1.215,1.295,2.062,2.51,1.892l0,0c1.216-0.171,2.062-1.295,1.892-2.51l-0.928-6.603
						c-0.171-1.216-1.295-2.062-2.511-1.892l0,0c-1.215,0.171-2.062,1.294-1.892,2.51L101.173,66.236z"/>
					<path style="fill:#404040;" d="M104.543,70.251c0.341,2.431,2.589,4.125,5.021,3.783l25.312-3.558
						c2.431-0.342,4.125-2.59,3.783-5.021l-8.662-61.629c-0.341-2.431-2.589-4.125-5.021-3.783L99.664,3.602
						c-2.431,0.342-4.125,2.59-3.783,5.021L104.543,70.251z"/>
					<path style="fill:#BFBFBF;" d="M107.069,68.311c0.276,1.962,3.063,3.193,6.225,2.749l17.176-2.415
						c3.162-0.444,5.501-2.396,5.226-4.358l-3.559-25.319c-0.276-1.963-3.063-3.194-6.225-2.749l-17.176,2.414
						c-3.162,0.444-5.501,2.396-5.226,4.358L107.069,68.311z"/>
					
						<ellipse transform="matrix(-0.9903 0.1392 -0.1392 -0.9903 243.531 -8.9397)" style="fill:#FFFFFF;" cx="122.078" cy="4.046" rx="4.322" ry="1.474"/> 
					
						<ellipse transform="matrix(-0.9903 0.1392 -0.1392 -0.9903 207.7462 -1.3318)" style="fill:#FFFFFF;" cx="103.92" cy="6.598" rx="4.322" ry="1.473"/> 
					<path style="fill:#404040;stroke:#FFFFFF;" d="M101.484,21.208c0.144,1.025,1.369,1.701,2.737,1.509l20.91-2.939
						c1.368-0.192,2.359-1.18,2.215-2.206l0,0c-0.144-1.025-1.37-1.701-2.737-1.509l-20.91,2.939
						C102.332,19.195,101.34,20.183,101.484,21.208L101.484,21.208z"/>
				</g>
				<g>
					
						<radialGradient id="XMLID_12_" cx="109.126" cy="-182.5103" r="13.7823" fx="109.126" fy="-182.5103" gradientTransform="matrix(0.0516 0.3668 -0.3668 0.0516 58.2463 23.2271)" gradientUnits="userSpaceOnUse">
						<stop  offset="0" style="stop-color:#CCCCCC"/>
						<stop  offset="0.22" style="stop-color:#000000"/>
						<midPointStop  offset="0" style="stop-color:#CCCCCC"/>
						<midPointStop  offset="0.5" style="stop-color:#CCCCCC"/>
						<midPointStop  offset="0.22" style="stop-color:#000000"/>
					</radialGradient>
					<circle style="fill:url(#XMLID_12_);" cx="129.118" cy="52.89" r="3.929"/> 
					
						<ellipse transform="matrix(-0.2238 0.9746 -0.9746 -0.2238 206.534 -64.8315)" style="fill:none;stroke:#FFFFFF;stroke-width:0.4;" cx="129.083" cy="49.826" rx="0.218" ry="0.371"/> 
					
						<ellipse transform="matrix(-0.2236 0.9747 -0.9747 -0.2236 208.464 -65.7915)" style="fill:none;stroke:#FFFFFF;stroke-width:0.4;" cx="130.437" cy="50.136" rx="0.218" ry="0.371"/> 
					
						<ellipse transform="matrix(-0.2236 0.9747 -0.9747 -0.2236 208.1499 -63.7811)" style="fill:none;stroke:#FFFFFF;stroke-width:0.4;" cx="129.477" cy="51.009" rx="0.262" ry="0.371"/> 
				</g>
				<line style="fill:none;stroke:#000000;stroke-dasharray:2;" x1="129.093" y1="42.543" x2="129.093" y2="234.712"/>
			</g>
			<rect x="0.269" y="115.956" style="fill:none;" width="147.402" height="2.835"/> 
		</g>
	</svg>
