<?xml version="1.0" encoding="iso-8859-1"?>
<!-- Generator: Adobe Illustrator 11 Build 196, SVG Export Plug-In . SVG Version: 6.0.0 Build 78)  -->
<!DOCTYPE svg PUBLIC "-//W3C//DTD SVG 1.0//EN"    "http://www.w3.org/TR/2001/REC-SVG-20010904/DTD/svg10.dtd" [
	<!ENTITY ns_flows "http://ns.adobe.com/Flows/1.0/">
	<!ENTITY ns_svg "http://www.w3.org/2000/svg">
	<!ENTITY ns_xlink "http://www.w3.org/1999/xlink">
]>
<svg
	 width="100.082" height="117.495" viewBox="0 0 100.082 117.495"
	 style="overflow:visible;enable-background:new 0 0 100.082 117.495" xml:space="preserve">
	<style type="text/css">
	
	</style>
	<g id="Layer_1">
		<path style="fill:#00C9E0;" d="M78.966,50.664h-9.806v25.748c0.005,0.222,0.017,0.442,0.017,0.666
			c0,16.255-13.178,29.433-29.434,29.433S10.311,93.333,10.311,77.078c0-0.279,0.013-0.554,0.021-0.831v-60.25H0.528v61.146
			C0.518,77.512,0.5,77.878,0.5,78.25c0,21.674,17.57,39.245,39.244,39.245S78.989,99.924,78.989,78.25
			c0-0.298-0.016-0.592-0.022-0.888V50.664z"/>
		<g>
			<path style="fill:none;stroke:#000000;" d="M0.528,0v76.643C0.518,77.012,0.5,77.378,0.5,77.75
				c0,21.674,17.57,39.245,39.244,39.245S78.989,99.424,78.989,77.75c0-0.298-0.016-0.592-0.022-0.888V0"/>
			<path style="fill:none;stroke:#000000;" d="M69.161,0v75.912c0.005,0.222,0.017,0.442,0.017,0.666
				c0,16.255-13.178,29.433-29.434,29.433S10.311,92.833,10.311,76.578c0-0.279,0.013-0.554,0.021-0.831V0"/>
		</g>
		<line style="fill:none;stroke:#000000;stroke-width:0.5;stroke-dasharray:2;" x1="11.932" y1="15.997" x2="92.599" y2="15.997"/>
		<line style="fill:none;stroke:#000000;stroke-width:0.5;stroke-dasharray:2;" x1="11.932" y1="50.352" x2="92.599" y2="50.352"/>
		<line style="fill:none;stroke:#000000;stroke-width:0.5;stroke-dasharray:2;" x1="11.932" y1="33.174" x2="92.599" y2="33.174"/>
		<g>
			<line style="fill:none;stroke:#000000;stroke-width:0.5;" x1="88.744" y1="18.331" x2="88.744" y2="30.331"/>
			<path d="M88.744,32.745c-0.421-1.136-1.141-2.545-1.902-3.418l1.902,0.688l1.902-0.688
				C89.885,30.199,89.166,31.609,88.744,32.745z"/>
			<path d="M88.744,15.917c0.421,1.136,1.141,2.545,1.902,3.419l-1.902-0.688l-1.902,0.688
				C87.604,18.462,88.323,17.052,88.744,15.917z"/>
		</g>
		<g>
			<text transform="matrix(1 0 0 1 92.0776 27.6641)"><tspan x="0" y="0" style="font-family:Liberation Sans; font-size:10.200000;">A</tspan></text>
		</g>
	</g>
</svg>
