<?xml version="1.0" encoding="iso-8859-1"?>
<!-- Generator: Adobe Illustrator 11 Build 196, SVG Export Plug-In . SVG Version: 6.0.0 Build 78)  -->
<!DOCTYPE svg PUBLIC "-//W3C//DTD SVG 1.0//EN"    "http://www.w3.org/TR/2001/REC-SVG-20010904/DTD/svg10.dtd" [
	<!ENTITY ns_flows "http://ns.adobe.com/Flows/1.0/">
	<!ENTITY ns_svg "http://www.w3.org/2000/svg">
	<!ENTITY ns_xlink "http://www.w3.org/1999/xlink">
]>
<svg
	 width="147.401" height="88.451" viewBox="0 0 147.401 88.451" style="overflow:visible;enable-background:new 0 0 147.401 88.451"
	 xml:space="preserve">
	<metadata>
<?xpacket begin='﻿' id='W5M0MpCehiHzreSzNTczkc9d'?><x:xmpmeta xmlns:x='adobe:ns:meta/' x:xmptk='XMP toolkit 3.0-29, framework 1.6'>
<rdf:RDF xmlns:rdf='http://www.w3.org/1999/02/22-rdf-syntax-ns#' xmlns:iX='http://ns.adobe.com/iX/1.0/'>

 <rdf:Description rdf:about=''
  xmlns:pdf='http://ns.adobe.com/pdf/1.3/'>
 </rdf:Description>

 <rdf:Description rdf:about=''
  xmlns:tiff='http://ns.adobe.com/tiff/1.0/'>
 </rdf:Description>

 <rdf:Description rdf:about=''
  xmlns:xap='http://ns.adobe.com/xap/1.0/'
  xmlns:xapGImg='http://ns.adobe.com/xap/1.0/g/img/'>
  <xap:CreateDate>2006-07-17T02:44:58Z</xap:CreateDate>
  <xap:ModifyDate>2006-07-17T02:44:58Z</xap:ModifyDate>
  <xap:CreatorTool>Illustrator</xap:CreatorTool>
  <xap:Thumbnails>
   <rdf:Alt>
    <rdf:li rdf:parseType='Resource'>
     <xapGImg:format>JPEG</xapGImg:format>
     <xapGImg:width>256</xapGImg:width>
     <xapGImg:height>156</xapGImg:height>
     <xapGImg:image>/9j/4AAQSkZJRgABAgEASABIAAD/7QAsUGhvdG9zaG9wIDMuMAA4QklNA+0AAAAAABAASAAAAAEA&#xA;AQBIAAAAAQAB/+4ADkFkb2JlAGTAAAAAAf/bAIQABgQEBAUEBgUFBgkGBQYJCwgGBggLDAoKCwoK&#xA;DBAMDAwMDAwQDA4PEA8ODBMTFBQTExwbGxscHx8fHx8fHx8fHwEHBwcNDA0YEBAYGhURFRofHx8f&#xA;Hx8fHx8fHx8fHx8fHx8fHx8fHx8fHx8fHx8fHx8fHx8fHx8fHx8fHx8fHx8f/8AAEQgAnAEAAwER&#xA;AAIRAQMRAf/EAaIAAAAHAQEBAQEAAAAAAAAAAAQFAwIGAQAHCAkKCwEAAgIDAQEBAQEAAAAAAAAA&#xA;AQACAwQFBgcICQoLEAACAQMDAgQCBgcDBAIGAnMBAgMRBAAFIRIxQVEGE2EicYEUMpGhBxWxQiPB&#xA;UtHhMxZi8CRygvElQzRTkqKyY3PCNUQnk6OzNhdUZHTD0uIIJoMJChgZhJRFRqS0VtNVKBry4/PE&#xA;1OT0ZXWFlaW1xdXl9WZ2hpamtsbW5vY3R1dnd4eXp7fH1+f3OEhYaHiImKi4yNjo+Ck5SVlpeYmZ&#xA;qbnJ2en5KjpKWmp6ipqqusra6voRAAICAQIDBQUEBQYECAMDbQEAAhEDBCESMUEFURNhIgZxgZEy&#xA;obHwFMHR4SNCFVJicvEzJDRDghaSUyWiY7LCB3PSNeJEgxdUkwgJChgZJjZFGidkdFU38qOzwygp&#xA;0+PzhJSktMTU5PRldYWVpbXF1eX1RlZmdoaWprbG1ub2R1dnd4eXp7fH1+f3OEhYaHiImKi4yNjo&#xA;+DlJWWl5iZmpucnZ6fkqOkpaanqKmqq6ytrq+v/aAAwDAQACEQMRAD8A9U4q03Q4qwjzP+3iryTz&#xA;P+3ir2z8r/8AyWnlL/ti6f8A9QseKsnxV2KuxV2KuxV2KuxV2KuxVg35kxJNeaNDJVom+ssyVIBK&#xA;qlCaeFcVYv8AojTv98j72/rirv0Rp3++R97f1xV6B5AJPlGwqSaeqoJJJoszgCp8AMVZDirsVdir&#xA;sVdirsVdirsVdirGPzQ/8ln5t/7Yuo/9QsmKvAPLf7OKvVfLf7GKvS7T/eaP/VGKq2KuxVpuhxVh&#xA;Hmf9vFXknmf9vFXtn5X/APktPKX/AGxdP/6hY8VZPirsVdirsVdiqGv9RsdPtmub2dLeBeruab+A&#xA;8SewG+KsZn836heUfToBY6eaFdR1FJokkU9GjIjZFB6hnO/8uKo2C51dJo4ZLp0u5BWBLpYZLaeg&#xA;5FYpYEiYGg/aFab8SBiqNh8yaZ6fG7lS0vEJWaydwZlcdlUfE4PVSo3G+KsS87Xs11qmkN9WeG2A&#xA;uRFJMODuaR1IjPxKv+tQ+3iqlmKuxVkfkbUbi08s2Yu4GNmzTeldQhpOI9Z9pUALL/rCo8eOKp/N&#xA;5gsDGgsJY7+5mb04IIZFNW3JLkcuCqASxpt7mgxVL573WvUkjiuPVmhFbgwxxx2sNBXi8szMzEDr&#xA;x38QuKoS187vbEDWI0NqaBdVsw0lvv05j4io7clLD5Yqym2ube5gSe2lSaCQVSWNgysPYjbFVXFX&#xA;Yq7FXYq7FWMfmh/5LPzb/wBsXUf+oWTFXgHlv9nFXqvlv9jFXpdp/vNH/qjFVbFXYq03Q4qwjzP+&#xA;3iryTzP+3ir2z8r/APyWnlL/ALYun/8AULHirJ8VdirsVWySxxRtJK4SNAWd2ICgDqSTirDdZ/MN&#xA;Rzh0K2a8Kq7PqDxym1QRAFyDGrNJTkOlF3G+KsZfT7m+5anrl210FlgtnvA0VxZwtKyvKGjKIYwI&#xA;3VPh6NWrdsVZpDbXFrLJDaxJbahAnqrawkrZ3kNaNxjaojbsabqSKllO6rcVvBPGbOzPCx1G3+va&#xA;XtQ288ZU/CP2QGdHVex5dsVT3T7r65YW13x4/WIkl4+HNQ1PxxVi/n7T9TuLnSp7KzlvFg9cTLDw&#xA;5L6ipxNHZP5TirHPqPmD/qyXn3Q/9VMVd9R8wf8AVkvPuh/6qYqzfyVZ3dn5Zsre7haC4X1C8L0L&#xA;LzldgDxJHRvHFUdq8zWun3VzAqi6EZWJyP22+FK+3IjFUpnitYEkgdGl0zSEStuByNzeSfGoev2m&#xA;+JW36u9T0xVTu7OW6drW64XV68fqXYlZ/qVpE1QF9NSnqE0NK7nckqKDFWF2i6po6rqWj3jQwyJI&#xA;5a54R2ly1u4RuEQJYtKpBU0Via0O9cVZfo35hWNw4ttXiOmXVeKyyVFtJtUFJGC05DccqfM4qywE&#xA;EVG4PQ4q3irsVdirGPzQ/wDJZ+bf+2LqP/ULJirwDy3+zir1Xy3+xir0u0/3mj/1RiqtirsVaboc&#xA;VYR5n/bxV5J5n/bxV7Z+V/8A5LTyl/2xdP8A+oWPFWT4q7FWMa7570+wZ7bT4ZNV1BSEMNsCyI7H&#xA;iqySKGAJbagqa4qxG4/TfmC5B1SY3UcPrXH6NsyECrbkLVre5jBblI68eZJKhhTemKom10yyjhS3&#xA;gaPnqFgg0y/tx9XrcIzl45wDRizuqtyHWi8a0xVE/WvrUn1+Uenaai0djqxUACK7UhYpmVq8DvGw&#xA;r9mhVt6Yqj7TVIrBrCy1KRbe50y7kt/rDApA9uYHYBZW+EBVKfCW5fCK4qp6XfT6t6MWkq3oqlzy&#xA;vQKRQ/XJvUAVjs0kMW3EftEVpQ4qzWCGOCGOGJeMUShEUdlUUA+7FV+KuxV2KuxVQvrRLyyntXYq&#xA;s6Mhdeq8hSo9x1xViN3rP1G6lt9ZAtZJbq0ujK1VgkaNo45PTc/CQoiWShPICvhirU98NThbT9Nk&#xA;WWfUr+YXtyByiSCEsq1bdWrHFH8H7Q60BriqBW9kiH6StEM3BG03QI5PjUqCqtKoP2i3BRy/aZ+J&#xA;+EVxVCajpunm2vlV0eDTLWCKS8ugbhprmJn4x24Y0UFl4EUpTbjTfFVttd+YPLFz9XsZGlsxL6ce&#xA;kXsgknKugkQxLCGMf8mxI5EVG+yrMtB86aTqzJAedlqDCv1K5HB294yaBxsem/iBiqf4q7FWMfmh&#xA;/wCSz82/9sXUf+oWTFXgHlv9nFXqvlv9jFXpdp/vNH/qjFVbFXYq03Q4qwjzP+3iryTzP+3ir2z8&#xA;r/8AyWnlL/ti6f8A9QseKsmZlVSzEKqirMdgAO5xVhOrzaprnqJ6r2ulkQosCfC7m8lEMTSkb7K3&#xA;qGPpQqDXeiq6Dy7oNu8BW0iijj1IwM6jg6KIHhhHqLRwWkKN1ryauKoNhqNtIbSLk+paCZJLQ0Pq&#xA;S2bsKggfb/3WW23FQKuK4qh72Ozg066MbsLCe3GpaLdQqXMEqinpyceXEfYTpTYb898VU7rUrm+1&#xA;S7t9Lg+tXU00D3ENo0dxYyGAiQySl+BTkwVTuP2hVqYqnmj+QQpE2szeruzDTrZpEs1LmpHAn4gK&#xA;BabCgAIOKsuiiihjWKJFjiQcURAFUAdgB0xVfirsVdirsVdirsVUrq0truBoLmJJoX+1HIAyn6Di&#xA;rDtV8jXlu4uNFm+sRo4kOl30kskRohjKoeYFClFo9eg+IDbFUkh1uW0nijuozHqWm2lxBZpfmK1j&#xA;h4hRG8SBpHZniTrUiuwam+KoxYrGGFGiYy6To9vHeSzSBka7uZCVjCBxup9FUDA/ZqorWuKq9tbX&#xA;s1zFpbMy3uozx3+qz7iZI4irInIbx/3YJ3+AsqjbcKqknlbRL1IFFugW7vby3SenKXiFkcSeofiY&#xA;iWCqknoadDuqidE1TVNOaJL6VrnTpYxIHkJaWAhhHKOZ+KSOKUgEsahWBrscVZjirGPzQ/8AJZ+b&#xA;f+2LqP8A1CyYq8A8t/s4q9V8t/sYq9LtP95o/wDVGKq2KuxVpuhxVhHmf9vFXknmf9vFXtn5X/8A&#xA;ktPKX/bF0/8A6hY8VTjX45JdD1COMFne3lARerVQ/CPc9MVSy6CTT3EUMqouoRQ3um3J/uzLbUYK&#xA;fYcEb3FfDFUgv/PnkWAS3N7rFhFaakpTUdPlvIEnjmiHpmWJS6lyvHi3Df4VZa91Ur13z/5fthaa&#xA;kutWt0LaKX6vq1rNEsjBuKpFcI49OhYgsfmQqnFUDo2qeRLoJLqvnDRbGARxRra2eo20UsqwfZa4&#xA;dJmXkTQtxr2+IUxVmlh5/wDyn0+2W3svM2h28CioRL+0Ff8AKJ9TcnuTiqJ/5Wf+Wv8A1Nujbbn/&#xA;AHIWvT/kZiq+H8yPy7mk9OHzTpEkhoAiX9sx36bCTFWQo6SIskbB0cBkdTUEHcEEYquxV2KuxV2K&#xA;qc9xBbwvPcSLDDGOUksjBVUDuWNAMVY8/wCZn5cRtxfzXo6NSvFtQtQafTJiq3/laH5af9TbovSv&#xA;/HQten/IzFUJqXnn8pNSiEd55n0V/TIeOQajbJJGwNQyOsgZDUdQcVYPquv+T9KVptN83aLqkEMY&#xA;WFZ7+3luofSJeERhp1jop+H4QDRj8JxVO9J86eXJYNRvpNZtrG2vGSa41S5ngF28IiROESRVUfEr&#xA;UIPwgg0qa4qmGn+fPJtyFutM1bTphbILPR9Mhu4HYGSih5gjt6deIAruq17niFU4kitYY5oZD6tt&#xA;pWnTW97LTaSW44Oy0/mIi5Ef5YxVkNmsy2cCzGsyxoJT1+IKOX44qx780P8AyWfm3/ti6j/1CyYq&#xA;8A8t/s4q9V8t/sYq9LtP95o/9UYqrYq7FWm6HFWEeZ/28VeSeZ/28Vexfl7qdnZ/lp5QWVi08mi6&#xA;f6NvGC8r0tY68UXc07noO+Kp21nqGpD/AE8m0sj/AMeMTVkceE8q9vFE+liNsVYN5pt5vMrGzaNf&#xA;0dJqX6D0G0NRb+pBHIb6+nRSok9BIZ0hib4OSb/bHBVj6/l/pmoz21vFDHJbajqF1ZW31hBLJ9Vs&#xA;mYXN9cPt60jvAI4eYZUVoytPiBVYrqn5c6TfaloNhGttaad5pF8+gNOjyixtbCH1FlKVWOc30QV2&#xA;EgHpBv3dGFcVSi08g+WdQsbW9WzsLKPUtNvdZSGQXEn1OOyM6yadI7Nykab1CWmf95H6cvArSPgq&#xA;0PIeg1Eh020J/QQ83/Uws3qG3Mw/3DBuVefL4frX9/z2+z8OKo+x/LDy0JJ5GtbK8t9J061127WB&#xA;Z0a7s5like0gIcGNraKAusqn1JOcQkY1l5qs3m8jeW9HS+t/qdu1nojW1zMYVEIk0e75xpdo0PD0&#xA;by19KWs8VGkSP46lqqqn2jRT+VbyZYGVIbHUYLDWbZFEUFxbX5RbTUEhSkcM6PMEnZFVZOMjEbJx&#xA;VYd/zllHHJZeWFkUOvr3ZowBFfTj8cVfO/1Oz/3xH/wC/wBMVd9Ts/8AfEf/AAC/0xV9k/kSAPym&#xA;8ugCgEEgA9hPJiqSX0H+KptPvtTuClrqkM+qW7Ghj0/RbbhwkhU1Vbu69aNjMw5opcRlStSqkk/l&#xA;Dy1d6eJtZsYobA6fJ5h1m3VFZrPTwC1vaQ1rxuJwjme6qZWKOA4DLxVYZq35a6Vo2oX1te2No9zp&#xA;2mJ5imtUMoMiNOkZ0ZHDbMpSi3X98zOnI8eQZVCat5F8vaNZ6xdPbWWoReW7bT7ucJ9YhS/XVPSS&#xA;OAMjB4Pquzh4vjlDR+oxPMsqr6h+Wuh6ddaxYzxWdzJoN1Z6fcTOksP1xtWRyl0VgZRAtl61WSGi&#xA;yCOTnVuPFVPND/LfRTcX0V3HHNounauPL97HEtGlmuJQsepKjVjjb1p44HhjQRf3jAfZAVT+x8h2&#xA;cTQWU6R20Q1A6Lei2jCG2mSJpba5jLM/7q8jaISwf3fxr8P2mKrJvJsf6Oj07TJYQNJ1WS60q60s&#xA;lnittTsBKXe35lnS3uY7WRwpPw0SlCzYqzQJqmmiictRsV6KT/pUY9mO0wHvRvdjiqS/mJf2d7+V&#xA;/m97aQOF0bUVkXdXRvqknwuhoyt7MMVeEeW/2cVeq+W/2MVel2n+80f+qMVVsVdirTdDirCPM/7e&#xA;KvJPM/7eKvQfyz0Ozk8o+XuGp6jpl3daVYusaNAizItqlHjYxycttyvMlflTFWZf4RkbaXXdVkTu&#xA;n1hI/wDhoo43/HFUq12x0jyxD5ZlhLRadp+rPJcPLJJPKfr8NzFJIzyM8jk3N2ryMTsvI9BiqSaH&#xA;q2m2V9oSPcRh9P1HUtInSvxJHeymW0mIO/CXhAtf5pAK9cVY3cz6ZHrH5e6de3MVoNAtNY0fWnkq&#xA;og+rWP1VJJOgiSXhzjLEc1I41xVINK+oPommx3l5FaS3Pl3Wvr6yK4NtcySXpS2kBUUc/WLii9T6&#xA;D0xVUN/AZTdc1Fz/AIDVDakPy/SovBKNP7fvvUAj9L7f+TiqbaPdWNkuqxWl3FeSy+VrCy0xF5j6&#xA;xe3NtBaiBaj7SsLZmA+yJlJ74qy7Xikq+aLO2b1Re2Wn+U7VqGr3rC4MvED7SxRX6u5H2eL1+ycV&#xA;Tyx0+z8w33mh5uR064mh0+KWNijM9itZJY3HeO4kZK/zRnFXj3/OSunazY23lyO+1ZtUt/VuvRee&#xA;CKO4B4R15yQelE4+US4q8PxV2Kvqn8mfKyX35YaFLPqmpLFJDJ/o0F01tGv79xRWgEco/wCDxVkG&#xA;taNZ2Wp6XpUAFrpl9pF5oFoSWIjlCRPbRgsSTWGKXc7/AA+JxVJDLLq+mTwRBY7vzR5Yk0qGNzQR&#xA;alpouEmtXJ/3YrXb1X/it/DFWL+cNc03VPMuravYTLIJfK0c9jbmpeW+a8glWx49PWrDCpj+1WQb&#xA;YqkfmV9Oj0Lzdb6ffQ3nPS9BbTHj5SfWXQWgmRAQTIY47eGQ7MVEoJpU4qjvM0+ivqXnRor6I20l&#xA;5o8VqwdmEtqYZ0u50cE81tluJ2cqfhELV3xVkWh3NlcXfmDSLaZLi9v/ADVCLWOMir2kV5+kJ5x/&#xA;kJxuYhIP24+Na0oqmv6Z0y9upGjuI/S1nzHFfoQyEpaaVBAn1lqbiOWXT1CN+0JF6qcVTny5plj5&#xA;k8vXF2tzJbPc6rdajY3dq8YmgImeOCVQyyR1eABirodmPIVriqbLpvnyIcI9esJY12V7nTJHmP8A&#xA;rtDeW8ZP+rGuKsG/NLS9XuPKHmR5tX+t3ttpV4bn9H2sdqqRrbu7xzzO1w3BqU9LlyIP+yCrzTy3&#xA;+zir1Xy3+xir0u0/3mj/ANUYqrYq7FWm6HFWEeZ/28VeSeZ/28Vezfl1Z2t3+VvlOC5jWWI6Npx4&#xA;t2ItYyCD1BHYjcYqnS2es2vw214lzCPsx3akyAeHrIRUD/KQnxOKpZeaYLiSWwuRFcXl/FIdTuZY&#xA;xJHFZvVfRRJOS0f7IDbGjMwPQqsF1X8tYL5GurfWr21srpUgs0nSO9ubiFAeESRlVJip8SeoXZdz&#xA;VBXFWG+bvyxvk1CddQ1rUOGpRRSaqvqQGa4W1osTzQmSVXMFVaMcwBuVpQ4qm2mfklb6+Jrm2/MH&#xA;UriaWVLi9jkjjExuYuSxTTKzcvVi5Ujc7rxXifhWiqZf9C43vLn/AI41Pl9b/SVfTj/3vr/vZ9r+&#xA;/p8PPrTbpirof+ccb+GWKWHzzqkckEr3Nu6xxho7iUKJZ0PL4ZZeJ9Rxu3Jq/aaqrItE/J64sPq6&#xA;3fma9uorSN4bb0oobaRI5TWYLIgYo8zVMkyBZmJNZMVZ/p2nWOm2MFhYQJbWdsgjggjHFUVegAxV&#xA;5X/zkJ5E81+a7TQx5esfr72Utw1zGJYYiqyIgU/vnjB3XscVeMf8qJ/Nz/qXH/6S7D/soxV3/Kif&#xA;zc/6lx/+kuw/7KMVfS/5U6Dqmgfl7oukarD9X1C1idbiEMr8WaV3pyQsp2bscVZDq2k6fq1hLYah&#xA;F61tLxLLVkYMjB0dHUqyOjqGVlIKkAjfFWA6z+T+oXz3H1XzXe2aXUkc8z+jbvMZ4QBFMJAqBJUC&#xA;qPVRRIwFGdsVSFP+cdL5HDp541NXFydQDCOOv11qcrofF/fMBRpPtEEiu5xVqH/nHO+ga3eHzzqk&#xA;Ulm0kto6IitFNOAJ5YyGqry0PqMN25NUmpqqk+ufk3p/liyha48/ala/VYpo9OtLeOMSolwG9ZLd&#xA;FZTGspb46FVJpyOwoqx7yf8Aln5w1W7nuLbzDeWcEFp9V023iMMlxFYyuXWMx+paBY2B5eiPgX4a&#xA;8tgFWSWf5Ww6In1/Wdcv9U0MqbPU760aSxntVOyi+tXM4ktk5VcAqgrykjdSzBV6do41P9JT6bdv&#xA;EvmHS1ieK9RPSiv9PlJWNpI1FA6mNkcL9hgGFFcLiqetY6tdVW8vFhtz9qC0Vkc+xnZi1P8AUCn3&#xA;xVJvzHtba1/K3zXBbRLDCmi6jxjQAAVtZCemKvBfLf7OKvVfLf7GKvS7T/eaP/VGKq2KuxVpuhxV&#xA;hHmf9vFXknmf9vFXtn5X/wDktPKX/bF0/wD6hY8VZPirG9VYC61K3k2a7+oxk+NtLP6Eig+3J6+H&#xA;LFV800xubu5gp9beZdM00kVEa0DSuF9jyZvEIBiqUXkmnLqLWi849N01Xe/uELevczygRBDIKNV2&#xA;YrXlUlWHwgbqseudEnjS0uoPUi1QafHecbMsZ4xEAHaWWR13kjbpTqtAD3VTrTfP99p8zWeuqt5H&#xA;E/ptqNnxYqePP97GhI+zUkp4EU2xVm9hqFjqFst1ZTpcW7/ZkjIYV8D4EdwcVRGKuxV2KuxV2Kux&#xA;V2KuxVCalqmnaZatdX9wltAv7bmlTStFHVj7DfFWD6p591LUJvqmjp+j7ZiwN7c8RM6xjk/oxuQo&#xA;PYVqakbDeirD9U0T021m6vy7y2WkxXl8l2eU7w3UsgvXVg7B1jt7cKHNfhdhsajFWdWU+nSay2lS&#xA;zMyakPrukXTn/SoXjjWFxyPxVQxcWr02V68xiqbQt9YntJbmJGe+9bTNVgpWORoUkYOVP7P7pwP8&#xA;l98VY95In9fVPLcKyNcPpuh30E87Esxia8tobOSQk1JmSzkZT3oxxV6JirGPzQ/8ln5t/wC2LqP/&#xA;AFCyYq8A8t/s4q9V8t/sYq9LtP8AeaP/AFRiqtirsVabocVYR5n/AG8VeSeZ/wBvFXtn5X/+S08p&#xA;f9sXT/8AqFjxVk+KpdrOi22qW/pyM8MqhljnjNHUP9oe6mgqPkRQgEKsR1VvNmiyie6C3VnHcrct&#xA;qFvDzZawG3kZ4fUXh8B5915fMDFUJY3elXK2sE8oSx9W7u7tuay3F5OHCheEJbZ0l/2S1oAN8VVf&#xA;RvZ4RBO/oX+vxG51BkIrBZjszdhRzv4KsfvirrmeK/BnEJQ3M9ta6Pp8ZaGLhbyiskwTqFMvBtqK&#xA;fhA25YqgYtG1G01SaTy/cGO5S6a1aaAKlmx9P1VjZXdy3Bi0dKGm24pirJdI88ShUi1+1Ni7KrC8&#xA;j+K3PIlfj3LREMpU8qgEfa6Yqy1WVlDKQysKqw3BB7jFW8VdirsVdiq2SSONGkkYJGgLM7GgAHUk&#xA;nFWI6p52u51eHy5afWXFB9en+CAF5BCnBSQzlpPgB2Fa9QDRVjsei31zqsE+szNNdzXTW0VzdqJL&#xA;VzCGLRpwZfTLTx8QtFqvTlviqKtpLW2tbeSZHNqi3FjrllKxkVHmdWeWLlXiGeJz4EjjTniq02M8&#xA;Ly3EyetqmgwqlyjkkXOnEsafF8MlAJAtf2HKn48VSXUI7PSLf9HwM9zY2F5HLomqRSwpqGnFlVpI&#xA;WhufTDosSFRzDcjT1FJ+PFUbZ235oeYUVLWSDSrOSSaZtbuLZknBliaEPb2y3D/vPTb4SxVVqT8d&#xA;AMVZ55S8o6X5Y0wWViZJWIQT3c5DSyekgjjBKhVVURQqIqhVHQYqneKsY/ND/wAln5t/7Yuo/wDU&#xA;LJirwDy3+zir1Xy3+xir0u0/3mj/ANUYqrYq7FWm6HFWEeZ/28VeSeZ/28Ve2flf/wCS08pf9sXT&#xA;/wDqFjxVk+KuxV2Ksc1XyXZTzfW9NlbTL3n6jNCWEUjEEH1IlZB8QYglSDvirDrxNW0O3ubLUYTb&#xA;Q3dqbZ7m3AdLgxhvTU3Ez/BzV2Q8lDbDj7Ko43sFxJcXNnwF0qW1jo9lbOHWFJ6IJnkQMiN+/YCu&#xA;wO3xbYqn9hb2lksFmki/VNHL3Wp3Q2j9Yo1Ix12UOWpX4QFHfFWk09Ls2VtcRlJLuG+mmQ7PHFcz&#xA;LKB7OrulPcYqiPK0kkcMNu20FzaQ3tug6RmRf30ajsoajKO3KnQDFWQYq7FXYq7FWO+Z2e5FzbBu&#xA;MVna/WpBtvLIzJASD1WMxs9PEDwxVRe2hsxfpDGR9Qmsp0iAqfqkSp9kdTQpMR4nFXX1jDdpcaY7&#xA;oEu3N7o9wT+7Z3WskdR3qzHbfi1V3GKpCdQsYJRcXqq0s9tcQ65p8zLEXktmVWlhJ+F2LIacWpWp&#xA;BDVxVCWcGua4kdvZxfWI4reG0fUrgBFQLUzKk8Eg9VSfg+EGo+0e5VZjpHk2xs5/rl9I+pakWMn1&#xA;mepVWNN44yWC/ZG5q2w3xVkGKuxV2KsY/ND/AMln5t/7Yuo/9QsmKvAPLf7OKvVfLf7GKvS7T/ea&#xA;P/VGKq2KuxVpuhxVhHmf9vFXknmf9vFXtn5X/wDktPKX/bF0/wD6hY8VZPirsVdirsVWSxRSxtFK&#xA;iyRuCrowDKQeoIPXFWI6v5DYLJJoVy1sWC1sJZJTbkxv6iceDqycXJIG679B1xVDxan6Xp2mqWv1&#xA;VrbiYtOY29lZ+oPiDF3mkaZVbcFQR3K8sVTKAyX/AK8drOLq5vqJfalD/cQQCv7mB9wzUY0p+0Sz&#xA;U2XFUa80WnawXuk9CxaCK3spx/coVLFlc/7rLVUCuxoN67Yqkv5hT3QutIghuZ7eKX6w0n1eaWAs&#xA;UVONWiZGNOR74qxr07n/AKuOo/8AcQvP+quKu9O5/wCrjqP/AHELz/qrirOvI9zNN5UsprmZ5ZKS&#xA;hppXLsQkrqOTsSTQDqTiqpH6GqajcPChl0ye0NtcznaOUhjwERr8QCyScmG24oTvRVCTzT2ckTXU&#xA;y22o2imKK+uPhtruHsskg2R+++4apUFSQVUrlv5Z0ex0e0+trLVvqL/V7uzjcHkGWWOdGhWu45f7&#xA;FRiqK0byCqRxvrly1+6KFFoHkNsDy5sWV2YyFn+I1otf2dhirLkRERURQqKAFUCgAHQAYquxV2Ku&#xA;xV2KsY/ND/yWfm3/ALYuo/8AULJirwDy3+zir1Xy3+xir0u0/wB5o/8AVGKq2KuxVpuhxVhHmf8A&#xA;bxV5J5n/AG8Ve2flf/5LTyl/2xdP/wCoWPFWT4q7FXYq7FXYq7FXYq7FWmVWUqwDKwoyncEHscVe&#xA;fedtNgstU0cWzOluy3PG1rWJCBH/AHYP2B/kj4fAYqlmKuxVknkbSVu/LNm99KZ7cNN6VlTjCB67&#xA;7yL/ALsP+t8PgO+KswAAFBsB0GKt4q7FXYq7FXYq7FXYq7FWMfmh/wCSz82/9sXUf+oWTFXgHlv9&#xA;nFXqvlv9jFXpdp/vNH/qjFVbFXYq0d8VSy98vWF5X1jJv/KQP4YqkF7+VHle8r6z3O/XjIo/40xV&#xA;kuh6Ra6Lomn6PaF2tdNtobO3aQguY4IxGhYgKC3Fd9sVR2KuxV2KuxV2KuxV2KuxV2KsK/MSK5N3&#xA;pE0VtcXEcf1gSG2gluCpZU48hErkVoeuKsa9W4/6t2o/9w+9/wCqOKu9W4/6t2o/9w+9/wCqOKs7&#xA;8iQzw+VbGOeKSCX96TFKjRuA0zsOSOFZdj3GKp/irsVdirsVdirsVdirsVdiqB13SLXWtE1DR7su&#xA;tpqVtNZ3DRkBxHPGY3KkhgG4tttirFLP8nfKVpT0nutv5pFP/GmKp7ZeT9JtKekZdv5mB/hiqdRo&#xA;saKi9FFBXFV2KuxV2KuxV2KuxV2KuxV2KuxV2KuxV2KuxV2KuxV2KuxV2KuxV2KuxV2KuxV2KuxV&#xA;2KuxV2KuxV2KuxV2KuxV2KuxV2KuxVLdK8xaJq9xfQaZdx3jabKLe9eE8445ivIxFx8JdQRyUGq1&#xA;FcVTLFXYq7FXYqwjQfza8rX17qljqt9Y6Je2Gr3WkWtrdXsKy3X1YqomjST0m+NnpxAanicVZvir&#xA;sVdirR6ePtiqXaB5i0TzBpsepaNeR3tnJUepGd1YbMjqaMjqdmVgCD1GKu1/zFonl/TZNS1m8jsr&#xA;OOg9SQ7sx2VEUVZ3Y7KqgknoMVTEdPD2xVvFXYq7FUk17zZp2ianoenXcczz6/dtZWbRKpRZFieY&#xA;mUsykLxjP2Qd+2Kp3irsVdirsVS3VfMWiaRcWMGp3cdm2pSm3snmPCOSYLyEQc/CHYA8VJq1DTFU&#xA;yxV2KuxV2KuxV2KuxV2KuxViv5jeQk87eX5NHfWL/R1flWbT5fT51FOMy0/eR+K1FfHFWE/k1+Tu&#xA;q+TtBvvL2rXtwBBePNZX2nXUsENzDMi0Z4garKpUqwPbjQnFXoH+Dbb/AKuuq/8ASfP/AM1Yq7/B&#xA;tt/1ddV/6T5/+asVd/g22/6uuq/9J8//ADViqO0rQ4tOkkdLy8uTIApW6uJJ1FDWqhyaHFXjvldf&#xA;Jf8Ahz85G1JbcP8ApnVxrJm48zB6dYK13415en/l1pvirOPIXlvUbzyD5Yk1q91C21RNKs0uoorm&#xA;WCjLCPtopH7zsx61xVPP8G23/V11X/pPn/5qxV3+Dbb/AKuuq/8ASfP/AM1Yq0fJ1sAT+lNWNOwv&#xA;p6/8SxV5T+Vn/OPmr6N5ovfOes61eadfajdS3Y0PTpysQSSRpFjvZTy9cgN8Sjav7RxV35p/84+a&#xA;vrPmiy856NrV5qN9p11FdnQ9RnLRFI5FkaOylHH0CQvwqdq/tDFXqw8nWxAP6U1YV7G+nr/xLFW/&#xA;8G23/V11X/pPn/5qxV3+Dbb/AKuuq/8ASfP/AM1Yq7/Btt/1ddV/6T5/+asVYV+dmk6Zq+v/AJd6&#xA;dqlTYXOussyBivMCzmIjJBB4yMAjDuDTFW9D0Sx0n82tc8q6CDpvly70O11G6sLBvq8VtfG6khVo&#xA;Vi4iFpoU+MLTlSpxVmn+Dbb/AKuuq/8ASfP/AM1Yq7/Btt/1ddV/6T5/+asVd/g22/6uuq/9J8//&#xA;ADVirz/85fyd1XzjoNj5e0m9uCJ7xJr2+1G6lnhtoYUarJETVpWLBVA7cqkYqzb8ufISeSfL8ejp&#xA;rF/rCpxpNqEvqcKCnGFafu4/BamnjirKsVdirsVdirsVdirsVdirsVdirsVdirsVdiqRz+RfJM96&#xA;t/P5f02W+SVp0u3s4GlE0jcnkEhTlzZty1ak4qnmKuxV2KuxV2KuxV2KuxV2KuxVIvNPkjyv5qSz&#xA;TXrL66unzG5s/wB5LEY5ihT1FMToeQDfCex3G4BxVW8v+VNC0Bbn9GQOs144kvLq4nnu7mZlHFPV&#xA;uLl5pnCDZQz0Xtiqb4q7FXYq7FXYq7FXYq7FXYq7FXYq7FXYq7FXYq7FXYq7FXYq7FXYq7FXYq7F&#xA;XYq7FXYq7FXYq7FXYq7FXYq7FXYq7FXYq7FXYq7FXYq//9k=</xapGImg:image>
    </rdf:li>
   </rdf:Alt>
  </xap:Thumbnails>
 </rdf:Description>

 <rdf:Description rdf:about=''
  xmlns:dc='http://purl.org/dc/elements/1.1/'>
  <dc:format>image/svg+xml</dc:format>
 </rdf:Description>

</rdf:RDF>
</x:xmpmeta>
                                                                                                                                                                                                                                                                                                                                                                                                                                                                                                                                                                                                                                                                                                                                                                                                                                                                                                                                                                                                                                                                                                                                                                                                                                                                                                                                                                                                                                                                                                                                                                                                                                                                                                                                                                                                                                                                                                                                                                                                                                                                                                                                <?xpacket end='w'?>
			</metadata>
		<g id="Layer_1">
			<g>
				<g>
					<line style="fill:none;stroke:#000000;stroke-width:0.5;" x1="77.076" y1="79.451" x2="123.576" y2="79.451"/>
					<path d="M126.593,79.451c-1.42,0.527-3.182,1.426-4.273,2.377l0.86-2.377l-0.86-2.377
						C123.412,78.025,125.173,78.924,126.593,79.451z"/>
					<path d="M74.058,79.451c1.42-0.527,3.182-1.426,4.273-2.377l-0.86,2.377l0.86,2.377C77.24,80.876,75.478,79.977,74.058,79.451z
						"/>
				</g>
				<g>
					<line style="fill:none;stroke:#000000;stroke-width:0.5;" x1="23.826" y1="79.451" x2="70.326" y2="79.451"/>
					<path d="M73.343,79.451c-1.42,0.527-3.182,1.426-4.273,2.377l0.86-2.377l-0.86-2.377
						C70.162,78.025,71.923,78.924,73.343,79.451z"/>
					<path d="M20.808,79.451c1.42-0.527,3.182-1.426,4.273-2.377l-0.86,2.377l0.86,2.377C23.99,80.876,22.228,79.977,20.808,79.451z
						"/>
				</g>
			</g>
			<g>
				<g>
					
						<linearGradient id="XMLID_3_" gradientUnits="userSpaceOnUse" x1="-82.2656" y1="76.1182" x2="-71.7656" y2="76.1182" gradientTransform="matrix(-1 0 0 -1 -63.3252 109.1182)">
						<stop  offset="0" style="stop-color:#636363"/>
						<stop  offset="1" style="stop-color:#FFFFFF"/>
						<midPointStop  offset="0" style="stop-color:#636363"/>
						<midPointStop  offset="0.5" style="stop-color:#636363"/>
						<midPointStop  offset="1" style="stop-color:#FFFFFF"/>
					</linearGradient>
					<rect x="8.44" style="fill:url(#XMLID_3_);" width="10.5" height="66"/> 
					<line style="fill:none;stroke:#000000;stroke-width:0.5;" x1="18.753" y1="66" x2="18.753" y2="0"/>
				</g>
				<path style="fill:none;stroke:#000000;stroke-width:0.5;" d="M83.09,33.004c0-7.488,11.632-7.566,11.632-0.006
					c0,7.56-9.45,7.488-9.45,0"/>
				<path style="fill:none;stroke:#000000;stroke-width:0.5;" d="M85.25,33.004c0-7.488,11.632-7.566,11.632-0.006
					c0,7.56-9.45,7.488-9.45,0"/>
				<path style="fill:none;stroke:#000000;stroke-width:0.5;" d="M87.41,33.004c0-7.488,11.632-7.566,11.632-0.006
					c0,7.56-9.45,7.488-9.45,0"/>
				<path style="fill:none;stroke:#000000;stroke-width:0.5;" d="M89.57,33.004c0-7.488,11.632-7.566,11.632-0.006
					c0,7.56-9.45,7.488-9.45,0"/>
				<path style="fill:none;stroke:#000000;stroke-width:0.5;" d="M91.73,33.004c0-7.488,11.632-7.566,11.632-0.006
					c0,7.56-9.45,7.488-9.45,0"/>
				<path style="fill:none;stroke:#000000;stroke-width:0.5;" d="M93.89,33.004c0-7.488,11.632-7.566,11.632-0.006
					c0,7.56-9.45,7.488-9.45,0"/>
				<path style="fill:none;stroke:#000000;stroke-width:0.5;" d="M96.05,33.004c0-7.488,11.632-7.566,11.632-0.006
					c0,7.56-9.45,7.488-9.45,0"/>
				<path style="fill:none;stroke:#000000;stroke-width:0.5;" d="M98.21,33.004c0-7.488,11.632-7.566,11.632-0.006
					c0,7.56-9.45,7.488-9.45,0"/>
				<path style="fill:none;stroke:#000000;stroke-width:0.5;" d="M100.37,33.004c0-7.488,11.632-7.566,11.632-0.006
					c0,7.56-9.45,7.488-9.45,0"/>
				<path style="fill:none;stroke:#000000;stroke-width:0.5;" d="M102.53,33.004c0-7.488,11.632-7.566,11.632-0.006
					c0,7.56-9.45,7.488-9.45,0"/>
				<path style="fill:none;stroke:#000000;stroke-width:0.5;" d="M104.689,33.004c0-7.488,11.632-7.566,11.632-0.006
					c0,7.56-9.45,7.488-9.45,0"/>
				<path style="fill:none;stroke:#000000;stroke-width:0.5;" d="M106.852,33.004c0-7.488,11.68-7.566,11.632-0.006
					c-0.003,0.517,2.697,1.286,3.747,1.267c0.702-0.012,4.505-0.234,6.187-0.521"/>
				<path style="fill:none;stroke:#000000;stroke-width:0.5;" d="M83.093,32.953c-0.113,0.712-8.887,0.562-8.887,0.562
					s-4.05-0.956,0.112-0.956"/>
				<path style="fill:none;stroke:#000000;stroke-width:0.5;" d="M28.49,33.004c0-7.488,11.632-7.566,11.632-0.006
					c0,7.56-9.45,7.488-9.45,0"/>
				<path style="fill:none;stroke:#000000;stroke-width:0.5;" d="M30.65,33.004c0-7.488,11.632-7.566,11.632-0.006
					c0,7.56-9.45,7.488-9.45,0"/>
				<path style="fill:none;stroke:#000000;stroke-width:0.5;" d="M32.81,33.004c0-7.488,11.632-7.566,11.632-0.006
					c0,7.56-9.45,7.488-9.45,0"/>
				<path style="fill:none;stroke:#000000;stroke-width:0.5;" d="M34.97,33.004c0-7.488,11.632-7.566,11.632-0.006
					c0,7.56-9.45,7.488-9.45,0"/>
				<path style="fill:none;stroke:#000000;stroke-width:0.5;" d="M37.13,33.004c0-7.488,11.632-7.566,11.632-0.006
					c0,7.56-9.45,7.488-9.45,0"/>
				<path style="fill:none;stroke:#000000;stroke-width:0.5;" d="M39.29,33.004c0-7.488,11.632-7.566,11.632-0.006
					c0,7.56-9.45,7.488-9.45,0"/>
				<path style="fill:none;stroke:#000000;stroke-width:0.5;" d="M41.45,33.004c0-7.488,11.632-7.566,11.632-0.006
					c0,7.56-9.45,7.488-9.45,0"/>
				<path style="fill:none;stroke:#000000;stroke-width:0.5;" d="M43.61,33.004c0-7.488,11.632-7.566,11.632-0.006
					c0,7.56-9.45,7.488-9.45,0"/>
				<path style="fill:none;stroke:#000000;stroke-width:0.5;" d="M45.77,33.004c0-7.488,11.632-7.566,11.632-0.006
					c0,7.56-9.45,7.488-9.45,0"/>
				<path style="fill:none;stroke:#000000;stroke-width:0.5;" d="M47.93,33.004c0-7.488,11.632-7.566,11.632-0.006
					c0,7.56-9.45,7.488-9.45,0"/>
				<path style="fill:none;stroke:#000000;stroke-width:0.5;" d="M50.09,33.004c0-7.488,11.632-7.566,11.632-0.006
					c0,7.56-9.45,7.488-9.45,0"/>
				<path style="fill:none;stroke:#000000;stroke-width:0.5;" d="M52.252,33.004c0-7.488,11.679-7.566,11.632-0.006
					c-0.003,0.517,2.697,1.286,3.747,1.267c1.05-0.019,9.038-0.506,6.487-0.975c-2.55-0.469-2.4-0.207-2.4-0.207"/>
				<path style="fill:none;stroke:#000000;stroke-width:0.5;" d="M28.493,32.953c-0.112,0.713-8.887,0.562-8.887,0.562
					s-0.054-0.013-0.143-0.035"/>
				<g>
					<path style="fill:none;stroke:#808080;stroke-width:0.5;" d="M27.925,27.586c-3.655-6.536,7.272-12.735,10.961-6.137
						c3.69,6.598-5.252,11.517-8.907,4.981"/>
					<path style="fill:none;stroke:#808080;stroke-width:0.5;" d="M29.961,26.447c-3.655-6.535,7.272-12.735,10.961-6.137
						c3.69,6.598-5.252,11.516-8.907,4.981"/>
					<path style="fill:none;stroke:#808080;stroke-width:0.5;" d="M31.997,25.309c-3.655-6.535,7.271-12.735,10.961-6.137
						c3.689,6.598-5.253,11.517-8.908,4.981"/>
					<path style="fill:none;stroke:#808080;stroke-width:0.5;" d="M34.033,24.17c-3.655-6.536,7.272-12.735,10.962-6.137
						c3.689,6.598-5.253,11.517-8.908,4.981"/>
					<path style="fill:none;stroke:#808080;stroke-width:0.5;" d="M36.069,23.032c-3.655-6.536,7.272-12.735,10.961-6.137
						c3.69,6.598-5.253,11.517-8.907,4.981"/>
					<path style="fill:none;stroke:#808080;stroke-width:0.5;" d="M38.104,21.893c-3.654-6.535,7.272-12.735,10.962-6.137
						c3.689,6.598-5.253,11.516-8.907,4.981"/>
					<path style="fill:none;stroke:#808080;stroke-width:0.5;" d="M40.141,20.754c-3.655-6.535,7.272-12.735,10.962-6.137
						c3.689,6.598-5.253,11.517-8.908,4.981"/>
					<path style="fill:none;stroke:#808080;stroke-width:0.5;" d="M42.177,19.616c-3.655-6.535,7.272-12.735,10.961-6.137
						c3.69,6.598-5.252,11.517-8.907,4.981"/>
					<path style="fill:none;stroke:#808080;stroke-width:0.5;" d="M44.213,18.478c-3.655-6.536,7.271-12.735,10.961-6.137
						c3.69,6.598-5.253,11.516-8.908,4.981"/>
					<path style="fill:none;stroke:#808080;stroke-width:0.5;" d="M46.249,17.339c-3.654-6.535,7.272-12.735,10.962-6.137
						c3.689,6.598-5.253,11.516-8.908,4.981"/>
					<path style="fill:none;stroke:#808080;stroke-width:0.5;" d="M48.285,16.2c-3.655-6.535,7.272-12.735,10.961-6.137
						c3.69,6.598-5.253,11.517-8.907,4.981"/>
					<path style="fill:none;stroke:#808080;stroke-width:0.5;" d="M50.322,15.061c-3.654-6.535,7.316-12.76,10.962-6.137
						c0.25,0.453,3.169-0.299,4.15-0.869c0.98-0.57,8.271-5.206,5.639-4.271c-2.633,0.935-2.363,1.085-2.363,1.085"/>
					<path style="fill:none;stroke:#808080;stroke-width:0.5;" d="M27.903,27.54c0.242,0.681-8.103,5.175-8.103,5.175
						s-0.375,0.114-0.803,0.218"/>
				</g>
				<g>
					<path style="fill:none;stroke:#808080;stroke-width:0.5;" d="M119.12,27.713c3.655-6.535-7.271-12.735-10.961-6.137
						c-3.689,6.598,5.253,11.517,8.908,4.981"/>
					<path style="fill:none;stroke:#808080;stroke-width:0.5;" d="M117.084,26.574c3.655-6.535-7.272-12.735-10.962-6.137
						c-3.689,6.598,5.253,11.517,8.908,4.981"/>
					<path style="fill:none;stroke:#808080;stroke-width:0.5;" d="M115.048,25.436c3.655-6.536-7.272-12.735-10.961-6.137
						c-3.69,6.598,5.253,11.517,8.907,4.981"/>
					<path style="fill:none;stroke:#808080;stroke-width:0.5;" d="M113.013,24.297c3.654-6.535-7.272-12.735-10.962-6.137
						c-3.689,6.598,5.253,11.516,8.907,4.981"/>
					<path style="fill:none;stroke:#808080;stroke-width:0.5;" d="M110.977,23.159c3.654-6.535-7.272-12.735-10.962-6.137
						c-3.689,6.598,5.253,11.517,8.908,4.981"/>
					<path style="fill:none;stroke:#808080;stroke-width:0.5;" d="M108.94,22.021c3.655-6.536-7.272-12.735-10.961-6.137
						c-3.69,6.598,5.252,11.517,8.907,4.981"/>
					<path style="fill:none;stroke:#808080;stroke-width:0.5;" d="M106.904,20.882c3.655-6.536-7.271-12.735-10.961-6.137
						s5.253,11.517,8.907,4.981"/>
					<path style="fill:none;stroke:#808080;stroke-width:0.5;" d="M104.869,19.743c3.654-6.535-7.272-12.735-10.962-6.137
						c-3.689,6.598,5.253,11.516,8.908,4.981"/>
					<path style="fill:none;stroke:#808080;stroke-width:0.5;" d="M102.833,18.604c3.655-6.535-7.272-12.735-10.961-6.137
						c-3.69,6.598,5.252,11.517,8.907,4.981"/>
					<path style="fill:none;stroke:#808080;stroke-width:0.5;" d="M100.796,17.466c3.655-6.536-7.272-12.735-10.961-6.137
						c-3.69,6.598,5.253,11.517,8.907,4.981"/>
					<path style="fill:none;stroke:#808080;stroke-width:0.5;" d="M98.761,16.328c3.655-6.536-7.272-12.735-10.962-6.137
						c-3.689,6.598,5.253,11.516,8.908,4.981"/>
					<path style="fill:none;stroke:#808080;stroke-width:0.5;" d="M96.723,15.188c3.655-6.536-7.316-12.76-10.961-6.137
						c-0.25,0.454-3.17-0.299-4.15-0.869s-8.271-5.206-5.639-4.271s2.363,1.085,2.363,1.085"/>
					<path style="fill:none;stroke:#808080;stroke-width:0.5;" d="M119.142,27.667c-0.242,0.681,8.103,5.176,8.103,5.176
						s0.528,0.16,1.043,0.273"/>
				</g>
				<rect x="67.291" y="27.907" style="fill:#404040;stroke:#000000;stroke-width:0.5;" width="11.667" height="12"/> 
				<path style="fill:none;stroke:#000000;stroke-width:0.5;" d="M103.987,47.546c-3.654-6.536,7.272-12.735,10.962-6.137
					c3.689,6.598-5.253,11.517-8.908,4.981"/>
				<path style="fill:none;stroke:#000000;stroke-width:0.5;" d="M106.023,46.408c-3.655-6.536,7.272-12.735,10.961-6.137
					c3.69,6.598-5.252,11.516-8.907,4.981"/>
				<g>
					<path style="fill:none;stroke:#808080;stroke-width:0.5;" d="M85.664,57.793c-3.655-6.535,7.272-12.735,10.961-6.137
						c3.69,6.598-5.252,11.517-8.907,4.981"/>
					<path style="fill:none;stroke:#808080;stroke-width:0.5;" d="M87.7,56.654c-3.655-6.535,7.272-12.735,10.961-6.137
						c3.69,6.598-5.252,11.517-8.907,4.981"/>
					<path style="fill:none;stroke:#808080;stroke-width:0.5;" d="M89.736,55.516c-3.655-6.536,7.271-12.735,10.961-6.137
						s-5.253,11.517-8.907,4.981"/>
					<path style="fill:none;stroke:#808080;stroke-width:0.5;" d="M91.771,54.377c-3.655-6.535,7.272-12.735,10.962-6.137
						c3.689,6.598-5.253,11.516-8.908,4.981"/>
					<path style="fill:none;stroke:#808080;stroke-width:0.5;" d="M93.808,53.239c-3.655-6.535,7.272-12.735,10.961-6.137
						c3.69,6.598-5.253,11.517-8.907,4.981"/>
					<path style="fill:none;stroke:#808080;stroke-width:0.5;" d="M95.844,52.101c-3.655-6.536,7.271-12.735,10.961-6.137
						c3.689,6.598-5.253,11.517-8.907,4.981"/>
					<path style="fill:none;stroke:#808080;stroke-width:0.5;" d="M97.879,50.962c-3.655-6.536,7.272-12.735,10.962-6.137
						c3.689,6.598-5.253,11.517-8.908,4.981"/>
					<path style="fill:none;stroke:#808080;stroke-width:0.5;" d="M99.916,49.823c-3.655-6.535,7.272-12.735,10.961-6.137
						c3.69,6.598-5.252,11.516-8.907,4.981"/>
					<path style="fill:none;stroke:#808080;stroke-width:0.5;" d="M101.951,48.685c-3.654-6.535,7.272-12.735,10.962-6.137
						s-5.253,11.517-8.907,4.981"/>
					<path style="fill:none;stroke:#808080;stroke-width:0.5;" d="M108.062,45.268c-3.655-6.536,7.316-12.76,10.961-6.137
						c0.25,0.453,3.17-0.299,4.15-0.869c0.634-0.369,3.906-2.437,5.429-3.6"/>
					<path style="fill:none;stroke:#808080;stroke-width:0.5;" d="M85.642,57.747c0.242,0.681-8.103,5.176-8.103,5.176
						s-4.284,1.3-0.361-0.894"/>
				</g>
				<g>
					<path style="fill:none;stroke:#808080;stroke-width:0.5;" d="M61.506,57.804c3.655-6.536-7.272-12.735-10.961-6.137
						c-3.69,6.598,5.252,11.517,8.907,4.981"/>
					<path style="fill:none;stroke:#808080;stroke-width:0.5;" d="M59.47,56.665c3.655-6.535-7.271-12.735-10.961-6.137
						c-3.69,6.598,5.253,11.516,8.907,4.981"/>
					<path style="fill:none;stroke:#808080;stroke-width:0.5;" d="M57.434,55.526c3.654-6.535-7.272-12.735-10.962-6.137
						c-3.689,6.598,5.253,11.516,8.908,4.981"/>
					<path style="fill:none;stroke:#808080;stroke-width:0.5;" d="M55.398,54.388c3.655-6.535-7.272-12.735-10.961-6.137
						c-3.69,6.598,5.252,11.517,8.907,4.981"/>
					<path style="fill:none;stroke:#808080;stroke-width:0.5;" d="M53.362,53.25c3.655-6.536-7.272-12.735-10.961-6.137
						c-3.69,6.598,5.253,11.517,8.907,4.981"/>
					<path style="fill:none;stroke:#808080;stroke-width:0.5;" d="M51.326,52.111c3.654-6.535-7.272-12.735-10.962-6.137
						c-3.689,6.598,5.253,11.516,8.907,4.981"/>
					<path style="fill:none;stroke:#808080;stroke-width:0.5;" d="M49.29,50.972c3.655-6.535-7.272-12.735-10.961-6.137
						c-3.69,6.598,5.252,11.517,8.907,4.981"/>
					<path style="fill:none;stroke:#808080;stroke-width:0.5;" d="M47.254,49.833c3.655-6.535-7.272-12.735-10.961-6.137
						c-3.69,6.598,5.253,11.517,8.907,4.981"/>
					<path style="fill:none;stroke:#808080;stroke-width:0.5;" d="M45.218,48.695c3.654-6.536-7.272-12.735-10.962-6.137
						c-3.689,6.598,5.253,11.517,8.908,4.981"/>
					<path style="fill:none;stroke:#808080;stroke-width:0.5;" d="M43.182,47.557c3.655-6.535-7.272-12.735-10.962-6.137
						c-3.689,6.598,5.253,11.517,8.908,4.981"/>
					<path style="fill:none;stroke:#808080;stroke-width:0.5;" d="M41.146,46.418c3.655-6.535-7.271-12.735-10.961-6.137
						s5.253,11.517,8.907,4.981"/>
					<path style="fill:none;stroke:#808080;stroke-width:0.5;" d="M39.108,45.278c3.654-6.535-7.316-12.76-10.962-6.137
						c-0.249,0.453-3.169-0.299-4.15-0.869c-0.611-0.355-3.675-2.291-5.258-3.471"/>
					<path style="fill:none;stroke:#808080;stroke-width:0.5;" d="M61.528,57.757c-0.242,0.681,8.103,5.176,8.103,5.176
						s4.284,1.3,0.36-0.894"/>
				</g>
				<rect x="67.291" y="0.574" style="fill:#BFBFBF;stroke:#404040;stroke-width:0.5;" width="11.667" height="12"/> 
				<rect x="67.291" y="56.24" style="fill:#BFBFBF;stroke:#404040;stroke-width:0.5;" width="11.667" height="12"/> 
				<g>
					
						<linearGradient id="XMLID_4_" gradientUnits="userSpaceOnUse" x1="-163.4502" y1="-106.5493" x2="-163.4502" y2="-121.5493" gradientTransform="matrix(0 0.75 -0.75 0 48.8029 155.5874)">
						<stop  offset="0" style="stop-color:#636363"/>
						<stop  offset="1" style="stop-color:#FFFFFF"/>
						<midPointStop  offset="0" style="stop-color:#636363"/>
						<midPointStop  offset="0.5" style="stop-color:#636363"/>
						<midPointStop  offset="1" style="stop-color:#FFFFFF"/>
					</linearGradient>
					<rect x="128.461" style="fill:url(#XMLID_4_);" width="10.5" height="66"/> 
					<line style="fill:none;stroke:#000000;stroke-width:0.5;" x1="128.648" y1="0" x2="128.648" y2="66"/>
				</g>
			</g>
			<rect y="32.828" style="fill:none;" width="147.401" height="2.835"/> 
			<rect x="44.141" y="74.097" style="fill:#FFFFFF;" width="8" height="10"/> 
			<g>
				<text transform="matrix(1 0 0 1 46.1406 83.6963)"><tspan x="0" y="0" style="font-family:'Helvetica'; font-size:10;">b</tspan></text>
			</g>
			<rect x="96.861" y="74.097" style="fill:#FFFFFF;" width="8" height="10"/> 
			<g>
				<text transform="matrix(1 0 0 1 98.8613 83.9883)"><tspan x="0" y="0" style="font-family:'Helvetica'; font-size:10;">b</tspan></text>
			</g>
		</g>
	</svg>
