<?xml version="1.0" encoding="UTF-8" standalone="no"?>
<!-- Created with Inkscape (http://www.inkscape.org/) -->
<svg
   xmlns:dc="http://purl.org/dc/elements/1.1/"
   xmlns:cc="http://web.resource.org/cc/"
   xmlns:rdf="http://www.w3.org/1999/02/22-rdf-syntax-ns#"
   xmlns:svg="http://www.w3.org/2000/svg"
   xmlns="http://www.w3.org/2000/svg"
   xmlns:xlink="http://www.w3.org/1999/xlink"
   xmlns:sodipodi="http://inkscape.sourceforge.net/DTD/sodipodi-0.dtd"
   xmlns:inkscape="http://www.inkscape.org/namespaces/inkscape"
   width="744.09448819"
   height="1052.3622047"
   id="svg1339"
   sodipodi:version="0.32"
   sodipodi:docbase="/home/bcrowell/Documents/writing/lm/trunk/3vw/ch04/figs"
   sodipodi:docname="viola-harmonic.svg">
  <defs
     id="defs1341" />
  <sodipodi:namedview
     id="base"
     pagecolor="#ffffff"
     bordercolor="#666666"
     borderopacity="1.0"
     inkscape:pageopacity="0.0"
     inkscape:pageshadow="2"
     inkscape:zoom="2.4815544"
     inkscape:cx="398.44742"
     inkscape:cy="524.50630"
     inkscape:document-units="mm"
     inkscape:current-layer="layer1"
     inkscape:window-width="1278"
     inkscape:window-height="996"
     inkscape:window-x="0"
     inkscape:window-y="0" />
  <metadata
     id="metadata1344">
    <rdf:RDF>
      <cc:Work
         rdf:about="">
        <dc:format>image/svg+xml</dc:format>
        <dc:type
           rdf:resource="http://purl.org/dc/dcmitype/StillImage" />
      </cc:Work>
    </rdf:RDF>
  </metadata>
  <g
     inkscape:label="Layer 1"
     inkscape:groupmode="layer"
     id="layer1">
    <rect
       style="fill:#dedede;fill-opacity:1.0000000;fill-rule:evenodd;stroke:none;stroke-width:1.0000000pt;stroke-linecap:butt;stroke-linejoin:miter;stroke-opacity:1.0000000;overflow:visible"
       id="rect1376"
       width="184.25197"
       height="250.65131"
       x="282.10803"
       y="375.20166" />
    <g
       id="g1366"
       transform="translate(56.81923,-6.880280)">
      <text
         y="401.85019"
         x="235.7193"
         id="text25">
        <tspan
           id="tspan27"
           style="font-size:10.200000px;font-family:Liberation Sans"
           y="401.85019"
           x="235.7193">f</tspan>
      </text>
      <text
         y="404.85019"
         x="239.05331"
         id="text29">
        <tspan
           id="tspan31"
           style="font-size:8.5000000px;font-family:Liberation Sans"
           y="404.85019"
           x="239.05331">o</tspan>
      </text>
    </g>
    <g
       id="g1372"
       transform="translate(56.81923,1.036074)">
      <text
         y="451.85019"
         x="232.38382"
         id="text35">
        <tspan
           id="tspan37"
           style="font-size:10.200000px;font-family:Liberation Sans"
           y="451.85019"
           x="232.38382">2f</tspan>
      </text>
      <text
         y="454.85019"
         x="242.3916"
         id="text39">
        <tspan
           id="tspan41"
           style="font-size:8.5000000px;font-family:Liberation Sans"
           y="454.85019"
           x="242.3916">o</tspan>
      </text>
    </g>
    <g
       id="g1378"
       transform="translate(56.81923,-32.04758)">
      <text
         y="542.85022"
         x="232.38382"
         id="text45">
        <tspan
           id="tspan47"
           style="font-size:10.200000px;font-family:Liberation Sans"
           y="542.85022"
           x="232.38382">3f</tspan>
      </text>
      <text
         y="545.85022"
         x="242.3916"
         id="text49">
        <tspan
           id="tspan51"
           style="font-size:8.5000000px;font-family:Liberation Sans"
           y="545.85022"
           x="242.3916">o</tspan>
      </text>
    </g>
    <g
       id="g1384"
       transform="translate(56.81923,-56.81923)">
      <text
         y="627.53821"
         x="231.4043"
         id="text65">
        <tspan
           id="tspan67"
           style="font-size:10.200000px;font-family:Liberation Sans"
           y="627.53821"
           x="231.4043">4f</tspan>
      </text>
      <text
         y="630.53821"
         x="241.41211"
         id="text69">
        <tspan
           id="tspan71"
           style="font-size:8.5000000px;font-family:Liberation Sans"
           y="630.53821"
           x="241.41211">o</tspan>
      </text>
    </g>
    <g
       id="g1345"
       transform="translate(0.000000,-13.29812)">
      <path
         style="fill:none;stroke:#000000;stroke-width:2.1250000;stroke-miterlimit:4.0000000;stroke-dasharray:none"
         d="M 292.71872,426.73014 C 335.96858,407.61714 352.35369,404.04671 373.57568,404.04671 C 394.79767,404.04671 411.45195,407.19727 454.70019,426.52054"
         id="path7" />
      <line
         style="fill:none;stroke:#000000;stroke-width:0.63477474"
         x1="290.59442"
         y1="427.32568"
         x2="456.60529"
         y2="427.32568"
         id="line15" />
      <g
         transform="matrix(1.060661,-1.060660,1.060661,1.060660,-270.8524,178.3497)"
         id="g2144">
        <rect
           style="fill:#1e1e1e;fill-opacity:1.0000000;fill-rule:evenodd;stroke:none;stroke-width:1.0000000pt;stroke-linecap:butt;stroke-linejoin:miter;stroke-opacity:1.0000000"
           id="rect2140"
           width="55.275520"
           height="6.4775996"
           x="159.78079"
           y="419.06885" />
        <rect
           style="fill:#1e1e1e;fill-opacity:1.0000000;fill-rule:evenodd;stroke:none;stroke-width:1.0000000pt;stroke-linecap:butt;stroke-linejoin:miter;stroke-opacity:1.0000000"
           id="rect2142"
           width="55.275520"
           height="6.4775996"
           x="-449.94540"
           y="184.17975"
           transform="matrix(0.000000,-1.000000,1.000000,0.000000,0.000000,0.000000)" />
      </g>
      <path
         style="fill:none;stroke:#000000;stroke-width:2.1250000;stroke-miterlimit:4.0000000;stroke-dasharray:none"
         d="M 293.08040,427.80768 C 336.33025,446.92068 352.71536,450.49111 373.93735,450.49111 C 395.15934,450.49111 411.81362,447.34055 455.06186,428.01728"
         id="path2173" />
    </g>
    <g
       id="g1353"
       transform="translate(0.000000,-25.63053)">
      <path
         style="fill:none;stroke:#000000;stroke-width:2.1250000;stroke-miterlimit:4.0000000;stroke-dasharray:none"
         d="M 293.11038,499.05274 C 308.15289,512.16781 319.70435,522.79869 333.13511,523.07453 C 346.56588,523.35036 363.22176,510.51113 373.96573,498.91440 C 384.71130,487.31768 400.55970,475.58262 414.25963,475.58262 C 427.95955,475.58262 442.46536,487.04101 454.28436,499.32857"
         id="path9" />
      <line
         style="fill:none;stroke:#000000;stroke-width:0.63477474"
         x1="290.59442"
         y1="499.50769"
         x2="456.60529"
         y2="499.50769"
         id="line17" />
      <path
         style="fill:none;stroke:#000000;stroke-width:2.1250000;stroke-miterlimit:4.0000000;stroke-dasharray:none"
         d="M 293.48414,499.02134 C 308.52665,485.90627 320.07811,475.27539 333.50887,474.99955 C 346.93964,474.72372 363.59552,487.56295 374.33949,499.15968 C 385.08506,510.75640 400.93346,522.49146 414.63339,522.49146 C 428.33331,522.49146 442.83912,511.03307 454.65812,498.74551"
         id="path2175" />
    </g>
    <g
       id="g1358"
       transform="translate(0.000000,-38.98134)">
      <path
         style="fill:none;stroke:#000000;stroke-width:2.1250000;stroke-miterlimit:4.0000000;stroke-dasharray:none"
         d="M 292.85088,571.89563 C 302.52142,558.48575 311.38608,547.91648 320.25073,547.91648 C 331.80219,547.91648 337.98005,559.43325 347.91975,573.00026 C 357.85945,586.56727 365.64907,595.24437 374.24456,595.24437 C 382.84006,595.24437 393.58563,582.78104 402.71945,568.74075 C 411.85328,554.70046 421.25465,547.75841 427.43251,547.75841 C 433.61037,547.75841 440.59572,550.91329 454.56321,571.73756"
         id="path11" />
      <line
         style="fill:none;stroke:#000000;stroke-width:0.63477474"
         x1="292.20618"
         y1="571.68970"
         x2="458.21704"
         y2="571.68970"
         id="line19" />
      <g
         transform="matrix(1.060661,-1.060661,1.060661,1.060661,-271.3635,322.4676)"
         id="g2167">
        <rect
           style="fill:#1e1e1e;fill-opacity:1.0000000;fill-rule:evenodd;stroke:none;stroke-width:1.0000000pt;stroke-linecap:butt;stroke-linejoin:miter;stroke-opacity:1.0000000"
           id="rect2169"
           width="55.275520"
           height="6.4775996"
           x="159.78079"
           y="419.06885" />
        <rect
           style="fill:#1e1e1e;fill-opacity:1.0000000;fill-rule:evenodd;stroke:none;stroke-width:1.0000000pt;stroke-linecap:butt;stroke-linejoin:miter;stroke-opacity:1.0000000"
           id="rect2171"
           width="55.275520"
           height="6.4775996"
           x="-449.94540"
           y="184.17975"
           transform="matrix(0.000000,-1.000000,1.000000,0.000000,0.000000,0.000000)" />
      </g>
      <path
         style="fill:none;stroke:#000000;stroke-width:2.1250000;stroke-miterlimit:4.0000000;stroke-dasharray:none"
         d="M 293.64681,572.19372 C 303.31735,585.60360 312.18201,596.17287 321.04666,596.17287 C 332.59812,596.17287 338.77598,584.65610 348.71568,571.08909 C 358.65538,557.52208 366.44500,548.84498 375.04049,548.84498 C 383.63599,548.84498 394.38156,561.30831 403.51538,575.34860 C 412.64921,589.38889 422.05058,596.33094 428.22844,596.33094 C 434.40630,596.33094 441.39165,593.17606 455.35914,572.35179"
         id="path2177" />
    </g>
    <g
       id="g2205"
       transform="translate(170.1849,103.6782)">
      <g
         transform="translate(0.000000,-0.215920)"
         id="g2200">
        <path
           id="path2183"
           d="M 123.64968,488.39486 C 131.17094,501.50993 136.94667,512.14081 143.66205,512.41665 C 150.37743,512.69248 158.70537,499.85325 164.07736,488.25652 C 169.45014,476.65980 177.37434,464.92474 184.22431,464.92474 C 191.07427,464.92474 198.32717,476.38313 204.23667,488.67069"
           style="fill:none;stroke:#000000;stroke-width:2.1250000;stroke-miterlimit:4.0000000;stroke-dasharray:none" />
        <line
           id="line2185"
           y2="488.84982"
           x2="205.39714"
           y1="488.84982"
           x1="122.39171"
           style="fill:none;stroke:#000000;stroke-width:0.44885352" />
        <path
           id="path2187"
           d="M 123.83656,488.36346 C 131.35782,475.24839 137.13355,464.61751 143.84893,464.34167 C 150.56431,464.06584 158.89225,476.90507 164.26424,488.50180 C 169.63702,500.09852 177.56122,511.83358 184.41119,511.83358 C 191.26115,511.83358 198.51405,500.37519 204.42355,488.08763"
           style="fill:none;stroke:#000000;stroke-width:2.1250000;stroke-miterlimit:4.0000000;stroke-dasharray:none" />
      </g>
      <g
         transform="translate(4.318400,-63.26456)"
         id="g2195">
        <path
           id="path2189"
           d="M 199.85829,551.44350 C 207.37955,564.55857 213.15528,575.18945 219.87066,575.46529 C 226.58604,575.74112 234.91398,562.90189 240.28597,551.30516 C 245.65875,539.70844 253.58295,527.97338 260.43292,527.97338 C 267.28288,527.97338 274.53578,539.43177 280.44528,551.71933"
           style="fill:none;stroke:#000000;stroke-width:2.1250000;stroke-miterlimit:4.0000000;stroke-dasharray:none" />
        <line
           id="line2191"
           y2="551.89844"
           x2="281.60574"
           y1="551.89844"
           x1="198.60031"
           style="fill:none;stroke:#000000;stroke-width:0.44885352" />
        <path
           id="path2193"
           d="M 200.04517,551.41210 C 207.56643,538.29703 213.34216,527.66615 220.05754,527.39031 C 226.77292,527.11448 235.10086,539.95371 240.47285,551.55044 C 245.84563,563.14716 253.76983,574.88222 260.61980,574.88222 C 267.46976,574.88222 274.72266,563.42383 280.63216,551.13627"
           style="fill:none;stroke:#000000;stroke-width:2.1250000;stroke-miterlimit:4.0000000;stroke-dasharray:none" />
      </g>
    </g>
    <image
       id="image2389"
       height="164.44637"
       width="184.25197"
       xlink:href="viola-harmonic-bitmaps/viola-harmonic.jpg"
       x="282.10803"
       y="201.55637" />
  </g>
</svg>
