<?xml version="1.0" encoding="iso-8859-1"?>
<!-- Generator: Adobe Illustrator 11 Build 196, SVG Export Plug-In . SVG Version: 6.0.0 Build 78)  -->
<!DOCTYPE svg PUBLIC "-//W3C//DTD SVG 1.0//EN"    "http://www.w3.org/TR/2001/REC-SVG-20010904/DTD/svg10.dtd" [
	<!ENTITY ns_flows "http://ns.adobe.com/Flows/1.0/">
	<!ENTITY ns_svg "http://www.w3.org/2000/svg">
	<!ENTITY ns_xlink "http://www.w3.org/1999/xlink">
]>
<svg
	 width="147.401" height="71.535" viewBox="0 0 147.401 71.535" style="overflow:visible;enable-background:new 0 0 147.401 71.535"
	 xml:space="preserve">
	<g id="Layer_1">
		<rect x="22.068" y="27.949" style="fill:#B4B4B4;stroke:#000000;stroke-width:0.5;" width="67.502" height="9.927"/> 
		<path style="fill:none;stroke:#000000;stroke-width:0.5;" d="M94.621,17.401c1.588,5.559,10.324,3.971,7.941-0.794
			c-2.383-4.765-9.493-8.254-14.146-6.444C83.677,12.006,54.682,18,46.932,19.5c0,0-11.25,3.25-44.75,3.25"/>
		<path style="fill:none;stroke:#000000;stroke-width:0.5;" d="M2.074,44.804c0,0,7.755-0.259,19.389,0
			C33.096,45.062,91.26,52.3,91.26,52.3c7.147,2.382,10.746,1.799,15.511,7.755c4.765,5.956,18.927-0.572,22.5-7.72
			c3.574-7.147-11.329-11.218-13.711-2.879c0,0-0.517,3.102,0.776,3.878c1.292,0.775,8.272,1.809,8.272-0.517"/>
		<rect y="34.562" style="fill:none;" width="147.401" height="2.834"/> 
		<path style="fill:none;stroke:#000000;stroke-width:0.5;" d="M119.179,41.701c-4.653,2.068-8.531,3.103-8.531,8.014"/>
		<path style="fill:none;stroke:#000000;stroke-width:0.5;" d="M108.322,39.375c-2.327,4.912-4.653,11.633-4.136,13.701"/>
		<path style="fill:none;stroke:#000000;stroke-width:0.5;" d="M3.367,51.266c11.375,0,35.933,1.292,40.328,1.551
			c4.395,0.258,8.79-1.034,23.007,1.034c14.218,2.068,34.899,8.789,41.103,10.34c6.205,1.551,13.701,1.551,19.647,0.775
			s10.857-2.585,12.667-2.585"/>
		<path style="fill:none;stroke:#000000;stroke-width:0.5;" d="M1.041,10.163c13.184,0,72.641-4.136,76.001-4.395
			c3.361-0.259,18.096,0,23.524,2.326c5.429,2.327,23.783,5.688,27.402,5.946c3.619,0.259,14.735,0.259,19.388,0"/>
		<path style="fill:none;stroke:#000000;stroke-width:0.5;" d="M4.432,65.75c17.5,0,84.75,3,103,4.5s26.5,1,30.25,0.75"/>
		<path style="fill:none;stroke:#000000;stroke-width:0.5;" d="M2.432,0.25c22.75,0,82.75,0.25,85.75,0.5s50.5,3.75,53.75,3.75"/>
	</g>
</svg>
