<?xml version="1.0" encoding="UTF-8" standalone="no"?>
<!-- Generator: Adobe Illustrator 11 Build 196, SVG Export Plug-In . SVG Version: 6.0.0 Build 78)  -->

<svg
   xmlns:dc="http://purl.org/dc/elements/1.1/"
   xmlns:cc="http://creativecommons.org/ns#"
   xmlns:rdf="http://www.w3.org/1999/02/22-rdf-syntax-ns#"
   xmlns:svg="http://www.w3.org/2000/svg"
   xmlns="http://www.w3.org/2000/svg"
   xmlns:sodipodi="http://sodipodi.sourceforge.net/DTD/sodipodi-0.dtd"
   xmlns:inkscape="http://www.inkscape.org/namespaces/inkscape"
   width="147.401"
   height="167.497"
   viewBox="0 0 147.401 167.497"
   style="overflow:visible;enable-background:new 0 0 147.401 167.497"
   xml:space="preserve"
   id="svg2"
   version="1.1"
   sodipodi:docname="waiter.svg"><metadata
   id="metadata146"><rdf:RDF><cc:Work
       rdf:about=""><dc:format>image/svg+xml</dc:format><dc:type
         rdf:resource="http://purl.org/dc/dcmitype/StillImage" /></cc:Work></rdf:RDF></metadata><defs
   id="defs144" /><sodipodi:namedview
   pagecolor="#ffffff"
   bordercolor="#666666"
   borderopacity="1"
   objecttolerance="10"
   gridtolerance="10"
   guidetolerance="10"
   inkscape:pageopacity="0"
   inkscape:pageshadow="2"
   inkscape:window-width="1280"
   inkscape:window-height="996"
   id="namedview142"
   showgrid="false"
   inkscape:zoom="1.5701774"
   inkscape:cx="-39.980919"
   inkscape:cy="83.748497"
   inkscape:window-x="0"
   inkscape:window-y="0"
   inkscape:window-maximized="1"
   inkscape:current-layer="svg2" />
	<rect
   style="fill:none;fill-opacity:1;stroke:none"
   id="rect3123"
   width="206.3461"
   height="11.463673"
   x="-28.022314"
   y="73.240135" /><g
   id="Layer_1">
		<linearGradient
   id="XMLID_11_"
   gradientUnits="userSpaceOnUse"
   x1="31.3589"
   y1="95.4585"
   x2="49.413"
   y2="95.4585">
			<stop
   offset="0"
   style="stop-color:#FFFFFF"
   id="stop6" />
			<stop
   offset="1"
   style="stop-color:#000000"
   id="stop8" />
			<midPointStop
   offset="0"
   style="stop-color:#FFFFFF"
   id="midPointStop10" />
			<midPointStop
   offset="0.5"
   style="stop-color:#FFFFFF"
   id="midPointStop12" />
			<midPointStop
   offset="1"
   style="stop-color:#000000"
   id="midPointStop14" />
		</linearGradient>
		<polygon
   style="fill:url(#XMLID_11_);"
   points="31.625,85.208 33.25,105.708 40.625,107.583 44.5,107.208 46.875,106.458     48,91.458 49.125,84.333 39.125,83.333 "
   id="polygon16" />
		<polygon
   style="fill:#DCDCDC;"
   points="147.125,4.333 146.75,45.208 142.25,28.958 141.25,19.833 138.125,14.833 126,8.708     117.375,8.583 114.25,8.708 113.5,6.458 116.125,4.583 126.375,1.708 136.5,0.708 146.125,2.333 "
   id="polygon18" />
		<path
   style="fill:#7F7F7F;"
   d="M146.417,112.167l-1.167,54.5c0,0-26.5,0-27.167,0c-0.667,0-16,0-16,0l8-13l7.833-12.333l10.667-14    L146.417,112.167z"
   id="path20" />
		<polyline
   style="fill:none;stroke:#000000;stroke-width:0.5;"
   points="113.058,9.47 115,3.583 123.583,0.25 133.333,0.254     144.392,2.097 146.849,3.326 "
   id="polyline22" />
		<polyline
   style="fill:none;stroke:#000000;stroke-width:0.5;"
   points="115.516,9.47 123.503,8.241 130.875,11.313 139.477,16.228     141.934,24.215 143.777,35.888 146.849,44.49 "
   id="polyline24" />
		<path
   style="fill:none;stroke:#000000;stroke-width:0.5;"
   d="M113.058,11.005c-4.301,4.608-5.836,6.758-7.065,10.138    c-1.229,3.379-1.536,8.601-2.458,10.137c-0.922,1.536-2.458,3.072-2.458,4.301s0.921,5.222,0.614,6.144    c-0.307,0.921-3.379,5.222-3.379,5.222s-6.144,5.529-6.451,9.83s0.921,3.379,2.15,4.301C95.241,62,96.777,62,96.777,62    l0.921,1.843l0.308,4.608c0,0-1.229,2.15,1.229,3.994c2.458,1.843,3.687,1.229,3.687,1.229l3.993,0.614"
   id="path26" />
		<path
   style="fill:none;stroke:#000000;stroke-width:0.5;"
   d="M100.771,73.98c0,0-1.536,0.922-1.536,1.843    c0,0.922,0.614,2.765,1.229,4.915c0.614,2.15,0.614,3.379,0,5.222c-0.615,1.843-1.229,5.53,1.229,7.68s6.451,1.843,9.216,1.536    c2.765-0.307,8.909-2.458,10.137-3.379"
   id="path28" />
		<path
   style="fill:none;stroke:#000000;stroke-width:0.5;"
   d="M146.542,76.13c-0.307,1.843-3.072,5.222-3.993,6.144    c-0.922,0.921-7.373,4.608-8.294,4.608"
   id="path30" />
		<path
   style="fill:none;stroke:#000000;stroke-width:0.5;"
   d="M116.744,95.176c1.843,0.615,7.68,0.922,9.523,4.301"
   id="path32" />
		<path
   style="fill:none;stroke:#000000;stroke-width:0.5;"
   d="M122.888,98.556c0,0,5.837,8.909,7.065,12.902"
   id="path34" />
		<path
   style="fill:none;stroke:#000000;stroke-width:0.5;"
   d="M147.156,100.706c-7.373,2.765-15.359,8.294-16.281,9.523"
   id="path36" />
		<path
   style="fill:none;stroke:#000000;stroke-width:0.5;"
   d="M146.849,108.386c-6.451,3.379-16.588,7.065-16.588,7.065"
   id="path38" />
		<path
   style="fill:none;stroke:#000000;stroke-width:0.5;"
   d="M129.339,120.059c1.536-0.614,16.588-6.451,17.51-6.758"
   id="path40" />
		<path
   style="fill:#7F7F7F;stroke:#000000;stroke-width:0.5;"
   d="M125.96,120.007c-0.614,1.792-2.15,3.981-0.614,4.578    c1.536,0.597,2.765-0.199,4.301-0.597c1.536-0.398,2.15-1.394,2.458-2.588c0.307-1.194-2.458-3.781-2.458-3.781l-2.15,1.393    c0,0-1.536,1.792-2.458-1.592c-0.921-3.383,3.687-2.786,4.301-0.597"
   id="path42" />
		<path
   style="fill:none;stroke:#000000;stroke-width:0.5;"
   d="M146.849,111.765c-5.222,3.379-20.582,17.51-25.189,23.961    c-4.608,6.451-19.968,31.641-19.968,31.641"
   id="path44" />
		<polyline
   style="fill:none;stroke:#000000;stroke-width:0.5;"
   points="146.849,135.111 141.934,147.092 128.725,149.242     120.431,165.831 "
   id="polyline46" />
		<path
   style="fill:none;stroke:#000000;stroke-width:0.5;"
   d="M123.195,124.36c-3.686,5.222-20.889,29.49-24.882,40.856"
   id="path48" />
		<path
   style="fill:#7F7F7F;stroke:#000000;stroke-width:0.5;"
   d="M117.896,133.46c0.115,1.152,1.997,1.613,2.534,1.19    s0.691-2.304,0.039-2.535s-1.689-0.46-2.035,0.23c-0.346,0.691-0.5,0.999-0.5,0.999"
   id="path50" />
		<path
   style="fill:#7F7F7F;stroke:#000000;stroke-width:0.5;"
   d="M108.604,146.785c0.307,1.997,1.536,1.536,1.997,0.615    c0.461-0.922,0.614-1.69-0.461-1.843c-1.075-0.154-1.536,0.614-1.536,0.614"
   id="path52" />
		<path
   style="fill:none;stroke:#000000;stroke-width:0.5;"
   d="M107.529,34.199c1.689,0,2.765-0.922,4.608-0.614    c1.843,0.307,3.993,1.997,5.529,2.765s3.533,1.229,3.533,1.229"
   id="path54" />
		<polyline
   style="fill:none;stroke:#000000;stroke-width:0.5;"
   points="111.676,46.087 117.973,43.875 117.052,43.177     113.979,42.362 111.983,41.664 "
   id="polyline56" />
		<path
   style="fill:#B4B4B4;stroke:#000000;stroke-width:0.5;"
   d="M111.83,42.186c-0.308,1.075-0.461,2.304,0,2.918    c0.46,0.614,1.229,0.921,1.229-0.461s-0.614-2.611-0.614-2.611"
   id="path58" />
		<path
   style="fill:none;stroke:#000000;stroke-width:0.5;"
   d="M95.855,59.542c0-0.768,2.458-0.614,2.918-0.307"
   id="path60" />
		<path
   style="fill:none;stroke:#000000;stroke-width:0.5;"
   d="M99.234,70.601c0.461,0,2.304,0.153,2.765,0.461"
   id="path62" />
		<path
   style="fill:none;stroke:#000000;stroke-width:0.5;"
   d="M100.617,76.284c0.768,0,2.15,0,2.611-0.307"
   id="path64" />
		<path
   style="fill:none;stroke:#000000;stroke-width:0.5;"
   d="M104.149,71.983c0,0,1.229,0.768,1.689,0.921"
   id="path66" />
		<path
   style="fill:#7F7F7F;stroke:#000000;stroke-width:0.5;"
   d="M97.626,163.68l-12.288-24.575c0,0-6.144,5.529-9.216,6.144    c-3.072,0.614-12.288,0.614-12.288,0.614l8.601,21.503"
   id="path68" />
		<path
   style="fill:none;stroke:#000000;stroke-width:0.5;"
   d="M83.481,138.491l-1.395-3.687c0,0-10.459,2.458-15.341,2.458    s-3.487,3.072-3.487,3.072l0.697,3.072"
   id="path70" />
		<polyline
   style="fill:none;stroke:#000000;stroke-width:0.5;"
   points="62.76,137.876 61.224,135.726 59.228,134.036     56.923,129.428 56.002,126.203 54.159,123.438 52.93,121.288 50.626,118.523 "
   id="polyline72" />
		<polyline
   style="fill:none;stroke:#000000;stroke-width:0.5;"
   points="80.577,134.19 80.424,131.886 81.499,127.125     82.267,124.82 83.803,121.749 85.185,119.752 87.028,117.602 "
   id="polyline74" />
		<g
   id="g76">
			<path
   style="fill:none;stroke:#B4B4B4;stroke-width:0.5;"
   d="M105.378,58.774c0,0.768,0.153,2.15-0.461,2.611"
   id="path78" />
			<path
   style="fill:none;stroke:#B4B4B4;stroke-width:0.5;"
   d="M107.375,65.686c0,0,1.382,2.458,1.843,3.533"
   id="path80" />
			<path
   style="fill:none;stroke:#B4B4B4;stroke-width:0.5;"
   d="M108.911,28.516c0.768-0.154,2.15-0.614,2.15-0.614"
   id="path82" />
			<path
   style="fill:none;stroke:#B4B4B4;stroke-width:0.5;"
   d="M112.751,22.986c0.614,0,1.997,0,1.997,0"
   id="path84" />
			<polyline
   style="fill:none;stroke:#B4B4B4;stroke-width:0.5;"
   points="69.211,128.507 68.904,126.203 69.672,123.438      71.208,122.056 73.512,119.905 "
   id="polyline86" />
			<line
   style="fill:none;stroke:#B4B4B4;stroke-width:0.5;"
   x1="69.979"
   y1="119.752"
   x2="69.672"
   y2="121.288"
   id="line88" />
			<line
   style="fill:none;stroke:#B4B4B4;stroke-width:0.5;"
   x1="65.064"
   y1="122.67"
   x2="63.375"
   y2="124.82"
   id="line90" />
			<line
   style="fill:none;stroke:#B4B4B4;stroke-width:0.5;"
   x1="61.224"
   y1="120.212"
   x2="61.224"
   y2="121.134"
   id="line92" />
			<line
   style="fill:none;stroke:#B4B4B4;stroke-width:0.5;"
   x1="59.228"
   y1="122.824"
   x2="58.152"
   y2="123.746"
   id="line94" />
			<line
   style="fill:none;stroke:#B4B4B4;stroke-width:0.5;"
   x1="59.842"
   y1="130.35"
   x2="59.996"
   y2="131.886"
   id="line96" />
		</g>
		<path
   style="fill:none;stroke:#000000;stroke-width:0.5;"
   d="M83.19,96.358c-1.776-0.014-3.569-0.021-5.376-0.021    c-10.57,0-20.645,0.24-29.817,0.673"
   id="path98" />
		<path
   style="fill:none;stroke:#B4B4B4;stroke-width:0.5;"
   d="M47.997,97.011c-6.201,0.293-11.99,0.675-17.242,1.132"
   id="path100" />
		<path
   style="fill:none;stroke:#000000;stroke-width:0.5;"
   d="M30.755,98.143c-18.279,1.588-30.053,4.081-30.053,6.883    c0,4.799,34.525,8.689,77.112,8.689c19.668,0,37.616-0.83,51.238-2.195"
   id="path102" />
		<path
   style="fill:none;stroke:#000000;stroke-width:0.5;"
   d="M121.746,97.884c-1.552-0.121-3.146-0.236-4.778-0.345"
   id="path104" />
		<path
   style="fill:none;stroke:#000000;stroke-width:0.5;"
   d="M7.518,110.872c4.019,1.114,10.028,2.113,17.532,2.94"
   id="path106" />
		<path
   style="fill:none;stroke:#000000;stroke-width:0.5;"
   d="M34.097,114.668c12.643,1.021,28.141,1.623,44.885,1.623    c5.64,0,11.138-0.068,16.433-0.198"
   id="path108" />
		<path
   style="fill:none;stroke:#000000;stroke-width:0.5;"
   d="M97.424,116.041c11.012-0.304,21.095-0.875,29.679-1.649"
   id="path110" />
		<path
   style="fill:#B4B4B4;stroke:#000000;stroke-width:0.5;"
   d="M96.653,88.022l-8.785-1.618    c-3.072,1.053-4.992,3.333-4.992,4.035c0,0.702,0,1.228,0,1.228l13.885-0.423"
   id="path112" />
		<polyline
   style="fill:none;stroke:#000000;stroke-width:0.5;"
   points="112.06,95.954 111.676,100.946 111.676,102.866     83.26,105.554 82.492,93.65 "
   id="polyline114" />
		<path
   style="fill:none;stroke:#000000;stroke-width:0.5;"
   d="M80.574,101.858c-4.275,0.589-6.919,1.404-6.919,2.304    c0,1.799,10.576,3.258,23.622,3.258c13.046,0,23.623-1.459,23.623-3.258c0-0.9-2.644-1.714-6.918-2.304"
   id="path116" />
		<g
   id="g118">
			<ellipse
   style="fill:none;stroke:#000000;stroke-width:0.5;"
   cx="40.19"
   cy="76.052"
   rx="9.503"
   ry="2.715"
   id="ellipse120" /> 
			<ellipse
   style="fill:none;stroke:#000000;stroke-width:0.5;"
   cx="40.431"
   cy="106.051"
   rx="8.078"
   ry="2.308"
   id="ellipse122" /> 
			<path
   style="fill:none;stroke:#000000;stroke-width:0.5;"
   d="M30.111,77.972c1.44,6.24,2.4,25.919,2.4,25.919"
   id="path124" />
			<path
   style="fill:none;stroke:#000000;stroke-width:0.5;"
   d="M50.271,78.931c-0.96,5.76-1.44,20.16-1.44,25.439"
   id="path126" />
		</g>
		<rect
   y="106.896"
   style="fill:none;"
   width="147.401"
   height="2.834"
   id="rect128" /> 
		<polyline
   style="fill:#7F7F7F;"
   points="130.417,116 131.25,118.5 143.917,113.5 146.083,112.833 146.417,109.667 145.75,109     130.75,115.5 "
   id="polyline130" />
		<ellipse
   style="fill:#B4B4B4;stroke:#000000;stroke-width:0.5;"
   cx="111.625"
   cy="43.748"
   rx="0.265"
   ry="0.398"
   id="ellipse132" /> 
		<polygon
   style="fill:#DCDCDC;"
   points="83.375,100.396 83.5,104.958 110.875,102.458 111.625,98.771 97.312,100.021 "
   id="polygon134" />
		<path
   style="fill:#DCDCDC;"
   d="M82.875,94.146l0.25,4.5l10-0.062c0,0,4.25,0,4.438,0s5-0.625,5.375-0.625s4.562-0.375,4.562-0.375    l4,0.125l0.25-2.312l-6.25,0.75l-5.188-3.188H91.25L82.875,94.146z"
   id="path136" />
		<polygon
   style="fill:#B4B4B4;"
   points="87.562,86.708 84.562,87.583 84.062,88.646 83.625,90.771 83.688,91.396 95.438,91.021     97.812,89.896 97.438,88.521 "
   id="polygon138" />
		<polygon
   style="fill:#B4B4B4;"
   points="96.375,90.646 99.188,90.771 98.688,89.021 99.188,88.583 96.375,88.521 "
   id="polygon140" />
	</g>
</svg>