<?xml version="1.0" encoding="iso-8859-1"?>
<!-- Generator: Adobe Illustrator 11 Build 196, SVG Export Plug-In . SVG Version: 6.0.0 Build 78)  -->
<!DOCTYPE svg PUBLIC "-//W3C//DTD SVG 1.0//EN"    "http://www.w3.org/TR/2001/REC-SVG-20010904/DTD/svg10.dtd" [
	<!ENTITY ns_flows "http://ns.adobe.com/Flows/1.0/">
	<!ENTITY ns_svg "http://www.w3.org/2000/svg">
	<!ENTITY ns_xlink "http://www.w3.org/1999/xlink">
]>
<svg  
	 width="147.401" height="163.578" viewBox="0 0 147.401 163.578"
	 style="overflow:visible;enable-background:new 0 0 147.401 163.578" xml:space="preserve">
	<style type="text/css">
	
	</style>
	<g id="Layer_1">
		<path style="fill:#FDDDCE;stroke:#404040;stroke-width:0.5;" d="M19.249,39.066c8.4,1.008,8.4-4.033,12.8-2.017
			c4.4,2.017,6.8,8.57,12.8,5.041s13.2-21.677,10.4-26.718c-2.8-5.041-8.8-15.123-20.8-15.123s-21.2,4.033-21.2,13.107
			C13.249,22.431,13.249,35.538,19.249,39.066"/>
		<path style="fill:#DCF2F7;stroke:#404040;stroke-width:0.5;" d="M86.849,74.578c5.337,9.336,20.8,20.994,28,16.095
			c7.2-4.899,18.8-21.693,18.8-33.59c0-11.896-4.8-41.987-12.4-43.387c-7.6-1.399-32.8-1.399-33.6,6.298
			c-0.8,7.698-5.6,30.791-6,37.089C81.25,63.382,82.449,66.881,86.849,74.578z"/>
		<path style="fill:#DCF2D8;stroke:#404040;stroke-width:0.5;" d="M75.368,111.663c1.147,9.178,15.504,3.264,17.952,12.24
			c2.448,8.976-7.752,5.304-24.072,12.648c-16.32,7.344-40.8,6.12-51.409,4.488c-10.608-1.632-15.504-9.384-13.056-18.36
			c2.448-8.976,4.08-16.729,19.176-18.769s30.6-1.224,35.904,2.448C65.168,110.031,74.96,108.399,75.368,111.663z"/>
		<g>
			<g>
				<text transform="matrix(1 0 0 1 19.6982 12.5757)"><tspan x="0" y="0" style="font-family:Liberation Sans; font-size:7.650000;">kinetic</tspan></text>
			</g>
			<g>
				<text transform="matrix(1 0 0 1 13.6934 23.5757)"><tspan x="0" y="0" style="font-family:Liberation Sans; font-size:7.650000;">energy of</tspan></text>
			</g>
			<g>
				<text transform="matrix(1 0 0 1 22.4482 34.5757)"><tspan x="0" y="0" style="font-family:Liberation Sans; font-size:7.650000;">a car</tspan></text>
			</g>
		</g>
		<g>
			<g>
				<text transform="matrix(1 0 0 1 89.8999 28.876)"><tspan x="0" y="0" style="font-family:Liberation Sans; font-size:7.650000;">chemical</tspan></text>
			</g>
			<g>
				<text transform="matrix(1 0 0 1 90.6436 39.876)"><tspan x="0" y="0" style="font-family:Liberation Sans; font-size:7.650000;">potential</tspan></text>
			</g>
			<g>
				<text transform="matrix(1 0 0 1 93.8955 50.876)"><tspan x="0" y="0" style="font-family:Liberation Sans; font-size:7.650000;">energy</tspan></text>
			</g>
			<g>
				<text transform="matrix(1 0 0 1 103.8975 61.876)"><tspan x="0" y="0" style="font-family:Liberation Sans; font-size:7.650000;">of</tspan></text>
			</g>
			<g>
				<text transform="matrix(1 0 0 1 100.396 72.876)"><tspan x="0" y="0" style="font-family:Liberation Sans; font-size:7.650000;">gas</tspan></text>
			</g>
		</g>
		<g>
			<g>
				<text transform="matrix(1 0 0 1 6.7871 122.4761)"><tspan x="0" y="0" style="font-family:Liberation Sans; font-size:7.650000;">car&apos;s gravitational</tspan></text>
			</g>
			<g>
				<text transform="matrix(1 0 0 1 9.6392 133.4761)"><tspan x="0" y="0" style="font-family:Liberation Sans; font-size:7.650000;">potential energy</tspan></text>
			</g>
		</g>
		<path style="fill:#DCD2E8;stroke:#404040;stroke-width:0.5;" d="M93.25,157.477c6.8,4.4,17.2,10,20.8,1.2
			c3.6-8.8-7.2-14.8-8.4-19.6c-1.2-4.8-4.4-11.2-6.8-4.4c-2.4,6.8,5.6,8.8-2.4,11.6c-8,2.8-20.4,0.8-16.8,6
			C83.25,157.477,93.25,157.477,93.25,157.477z"/>
		<g>
			<g>
				<text transform="matrix(1 0 0 1 93.1973 154.6763)"><tspan x="0" y="0" style="font-family:Liberation Sans; font-size:7.650000;">etc.</tspan></text>
			</g>
		</g>
		<path style="fill:#EDEDED;stroke:#404040;stroke-width:0.5;" d="M129.031,119.783c2.969-9.969,3.531-19.906,1.906-30.219
			c-0.472-2.971-1.727-5.622-3.133-8.181l11.84-2.832l-18.784-9.549L108.43,86.017l12.336-2.95
			c4.598,7.199,4.565,16.012,3.671,24.31c-0.812,7.75-3.25,14.75-4.531,22.594c-0.312,1.844-0.25,3.969-2.688,5.094
			c-0.294,0.269-0.517,0.581-0.698,0.911l-9.88-9.98l1.586,21.012l20.995,1.796l-7.992-8.072c0.249-0.131,0.49-0.284,0.708-0.479
			C128.062,135.345,126.938,126.72,129.031,119.783z"/>
		<path style="fill:#EDEDED;stroke:#404040;stroke-width:0.5;" d="M48.221,92.801c-0.27-8.283-4.362-15.834-6.971-23.768
			c-2.113-6.469-1.019-13.299-0.341-20.017l12.061-0.331l-16.416-13.21L20.888,49.566l12.818-0.352
			c-0.523,5.407-0.72,10.826-0.394,16.194c0.406,6.875,4.094,13,6.562,19.469c1.001,2.663,1.298,5.443,1.291,8.25l-14.947,0.69
			l16.66,12.901l15.4-14.381L48.221,92.801z"/>
		<path style="fill:#EDEDED;stroke:#404040;stroke-width:0.5;" d="M89.915,53.609L87.58,32.668l-5.671,8.396
			c-0.572-0.736-1.205-1.418-2.034-1.938c-5.68-3.575-12.685-3.011-17.785-6.951L68.503,19.5l-19.429,8.154l4.94,20.484l4.901-9.687
			c4.892,3.4,11.397,3.872,16.772,6.458c0.869,0.424,1.477,1.331,2.119,2.232l-8.189,12.125L89.915,53.609z"/>
		<path style="fill:#EDEDED;stroke:#404040;stroke-width:0.5;" d="M95.693,83.919l10.384,3.7L95.544,69.37l-19.699,7.477
			l13.315,4.744c-2.121,6.74-3.797,13.522-5.597,20.567c-0.487,1.881-0.89,3.715-1.198,5.58l-10.114-3.351l10.938,18.009
			l19.527-7.916l-13.609-4.509C90.403,101.062,93.748,92.681,95.693,83.919z"/>
		<g>
			<g>
				<text transform="matrix(1 0 0 1 22 74.8452)"><tspan x="0" y="0" style="font-family:Liberation Sans-Black'; font-size:10.200000;">work</tspan></text>
			</g>
		</g>
		<g>
			<g>
				<text transform="matrix(1 0 0 1 70.9199 98.6226)"><tspan x="0" y="0" style="font-family:Liberation Sans-Black'; font-size:10.200000;">work</tspan></text>
			</g>
		</g>
		<g>
			<g>
				<text transform="matrix(1 0 0 1 111.4199 112.6226)"><tspan x="0" y="0" style="font-family:Liberation Sans-Black'; font-size:10.200000;">work</tspan></text>
			</g>
		</g>
		<g>
			<g>
				<text transform="matrix(1 0 0 1 53.4199 42.1226)"><tspan x="0" y="0" style="font-family:Liberation Sans-Black'; font-size:10.200000;">work</tspan></text>
			</g>
		</g>
		<rect y="100.033" style="fill:none;" width="147.401" height="2.834"/> 
	</g>
</svg>
