<?xml version="1.0" encoding="iso-8859-1"?>
<!-- Generator: Adobe Illustrator 11 Build 196, SVG Export Plug-In . SVG Version: 6.0.0 Build 78)  -->
<!DOCTYPE svg PUBLIC "-//W3C//DTD SVG 1.0//EN"    "http://www.w3.org/TR/2001/REC-SVG-20010904/DTD/svg10.dtd" [
	<!ENTITY ns_flows "http://ns.adobe.com/Flows/1.0/">
	<!ENTITY ns_svg "http://www.w3.org/2000/svg">
	<!ENTITY ns_xlink "http://www.w3.org/1999/xlink">
]>
<svg  
	 width="320.315" height="77.081" viewBox="0 0 320.315 77.081" style="overflow:visible;enable-background:new 0 0 320.315 77.081"
	 xml:space="preserve">
	<style type="text/css">
	
	</style>
	<g id="Layer_1">
		<g>
			<polygon style="fill:#D6D6D6;stroke:#000000;" points="35.119,61.123 37.446,66.624 33.845,71.39 27.917,70.655 25.59,65.154 
				29.19,60.387 "/>
			
				<linearGradient id="XMLID_5_" gradientUnits="userSpaceOnUse" x1="112.6523" y1="105.1389" x2="115.1522" y2="113.764" gradientTransform="matrix(-0.0903 -0.7804 0.7804 -0.0903 -55.2115 137.0904)">
				<stop  offset="0" style="stop-color:#D9D9D9"/>
				<stop  offset="0.0821" style="stop-color:#E0E0E0"/>
				<stop  offset="0.2784" style="stop-color:#EBEBEB"/>
				<stop  offset="0.41" style="stop-color:#EEEEEE"/>
				<stop  offset="0.539" style="stop-color:#EBEBEB"/>
				<stop  offset="0.7232" style="stop-color:#E1E1E1"/>
				<stop  offset="0.82" style="stop-color:#D9D9D9"/>
				<stop  offset="1" style="stop-color:#D9D9D9"/>
				<midPointStop  offset="0" style="stop-color:#D9D9D9"/>
				<midPointStop  offset="0.38" style="stop-color:#D9D9D9"/>
				<midPointStop  offset="0.41" style="stop-color:#EEEEEE"/>
				<midPointStop  offset="0.63" style="stop-color:#EEEEEE"/>
				<midPointStop  offset="0.82" style="stop-color:#D9D9D9"/>
				<midPointStop  offset="0.5" style="stop-color:#D9D9D9"/>
				<midPointStop  offset="1" style="stop-color:#D9D9D9"/>
			</linearGradient>
			<path style="fill:url(#XMLID_5_);stroke:#000000;" d="M1.425,3.578l21.257,50.703c-3.087,3.279-3.973,8.763-1.829,13.876
				c1.881,4.487,5.601,7.518,9.527,8.26l-4.691-11.19l0.137-0.058l3.594-4.738l5.926,0.747l2.316,5.506l-0.005,0.007l2.382,5.683
				c2.228-3.32,2.676-8.102,0.793-12.593c-2.144-5.114-6.675-8.326-11.178-8.424L8.398,0.655L1.425,3.578z"/>
			<line style="fill:none;stroke:#000000;stroke-width:0.5;" x1="2.629" y1="6.725" x2="36.414" y2="15.074"/>
			<path d="M39.175,15.755c-1.418,0.161-3.234,0.586-4.449,1.209l1.325-1.981l-0.25-2.37C36.586,13.731,37.995,14.952,39.175,15.755
				z"/>
			<polygon style="fill:#D6D6D6;stroke:#000000;" points="134.688,40.927 140.66,40.871 143.695,46.016 140.757,51.216 
				134.784,51.272 131.749,46.127 "/>
			
				<linearGradient id="XMLID_6_" gradientUnits="userSpaceOnUse" x1="113.0591" y1="105.0212" x2="115.5589" y2="113.6463" gradientTransform="matrix(-0.7559 -0.2139 0.2139 -0.7559 170.8303 153.2574)">
				<stop  offset="0" style="stop-color:#D9D9D9"/>
				<stop  offset="0.0821" style="stop-color:#E0E0E0"/>
				<stop  offset="0.2784" style="stop-color:#EBEBEB"/>
				<stop  offset="0.41" style="stop-color:#EEEEEE"/>
				<stop  offset="0.539" style="stop-color:#EBEBEB"/>
				<stop  offset="0.7232" style="stop-color:#E1E1E1"/>
				<stop  offset="0.82" style="stop-color:#D9D9D9"/>
				<stop  offset="1" style="stop-color:#D9D9D9"/>
				<midPointStop  offset="0" style="stop-color:#D9D9D9"/>
				<midPointStop  offset="0.38" style="stop-color:#D9D9D9"/>
				<midPointStop  offset="0.41" style="stop-color:#EEEEEE"/>
				<midPointStop  offset="0.63" style="stop-color:#EEEEEE"/>
				<midPointStop  offset="0.82" style="stop-color:#D9D9D9"/>
				<midPointStop  offset="0.5" style="stop-color:#D9D9D9"/>
				<midPointStop  offset="1" style="stop-color:#D9D9D9"/>
			</linearGradient>
			<path style="fill:url(#XMLID_6_);stroke:#000000;" d="M68.647,50.153l54.977-0.335c1.856,4.104,6.588,7.011,12.133,6.978
				c4.866-0.03,9.085-2.314,11.267-5.661l-12.133,0.074l-0.001-0.149l-3.011-5.128l2.948-5.195l5.973-0.044l0.004,0.008l6.162-0.038
				c-2.221-3.324-6.471-5.561-11.34-5.531c-5.544,0.034-10.241,2.999-12.047,7.125l-54.977,0.335L68.647,50.153z"/>
			<line style="fill:none;stroke:#000000;stroke-width:0.5;" x1="77.622" y1="50.24" x2="57.03" y2="22.185"/>
			<path d="M55.348,19.891c0.392,1.373,0.691,3.213,0.577,4.574l1.327-1.98l2.286-0.672C58.207,21.514,56.541,20.676,55.348,19.891z
				"/>
			<polygon style="fill:#D6D6D6;stroke:#000000;" points="187.314,61.236 181.492,62.572 177.424,58.199 179.177,52.489 
				184.999,51.152 189.067,55.525 "/>
			
				<linearGradient id="XMLID_7_" gradientUnits="userSpaceOnUse" x1="112.8237" y1="105.0891" x2="115.3236" y2="113.7141" gradientTransform="matrix(0.7842 0.0466 -0.0466 0.7842 128.0419 -40.9297)">
				<stop  offset="0" style="stop-color:#D9D9D9"/>
				<stop  offset="0.0821" style="stop-color:#E0E0E0"/>
				<stop  offset="0.2784" style="stop-color:#EBEBEB"/>
				<stop  offset="0.41" style="stop-color:#EEEEEE"/>
				<stop  offset="0.539" style="stop-color:#EBEBEB"/>
				<stop  offset="0.7232" style="stop-color:#E1E1E1"/>
				<stop  offset="0.82" style="stop-color:#D9D9D9"/>
				<stop  offset="1" style="stop-color:#D9D9D9"/>
				<midPointStop  offset="0" style="stop-color:#D9D9D9"/>
				<midPointStop  offset="0.38" style="stop-color:#D9D9D9"/>
				<midPointStop  offset="0.41" style="stop-color:#EEEEEE"/>
				<midPointStop  offset="0.63" style="stop-color:#EEEEEE"/>
				<midPointStop  offset="0.82" style="stop-color:#D9D9D9"/>
				<midPointStop  offset="0.5" style="stop-color:#D9D9D9"/>
				<midPointStop  offset="1" style="stop-color:#D9D9D9"/>
			</linearGradient>
			<path style="fill:url(#XMLID_7_);stroke:#000000;" d="M249.834,38.047l-53.624,12.13c-2.693-3.61-7.94-5.434-13.348-4.21
				c-4.746,1.073-8.376,4.211-9.789,7.948l11.835-2.677l0.033,0.145l4.042,4.362l-1.765,5.707l-5.824,1.325l-0.006-0.006
				l-6.01,1.359c2.883,2.77,7.514,4.042,12.264,2.968c5.408-1.223,9.359-5.127,10.236-9.545l53.624-12.129L249.834,38.047z"/>
			<line style="fill:none;stroke:#000000;stroke-width:0.5;" x1="246.274" y1="46.556" x2="241.892" y2="12.031"/>
			<path d="M241.532,9.21c0.661,1.265,1.711,2.806,2.731,3.714l-2.326-0.522l-2.121,1.086
				C240.576,12.355,241.208,10.601,241.532,9.21z"/>
			<polygon style="fill:#D6D6D6;stroke:#000000;" points="270.089,21.726 266.207,17.186 268.197,11.554 274.069,10.462 
				277.952,15.002 275.961,20.634 "/>
			
				<linearGradient id="XMLID_8_" gradientUnits="userSpaceOnUse" x1="112.5156" y1="105.1785" x2="115.0155" y2="113.8035" gradientTransform="matrix(0.3221 0.7166 -0.7166 0.3221 332.955 -77.6405)">
				<stop  offset="0" style="stop-color:#D9D9D9"/>
				<stop  offset="0.0821" style="stop-color:#E0E0E0"/>
				<stop  offset="0.2784" style="stop-color:#EBEBEB"/>
				<stop  offset="0.41" style="stop-color:#EEEEEE"/>
				<stop  offset="0.539" style="stop-color:#EBEBEB"/>
				<stop  offset="0.7232" style="stop-color:#E1E1E1"/>
				<stop  offset="0.82" style="stop-color:#D9D9D9"/>
				<stop  offset="1" style="stop-color:#D9D9D9"/>
				<midPointStop  offset="0" style="stop-color:#D9D9D9"/>
				<midPointStop  offset="0.38" style="stop-color:#D9D9D9"/>
				<midPointStop  offset="0.41" style="stop-color:#EEEEEE"/>
				<midPointStop  offset="0.63" style="stop-color:#EEEEEE"/>
				<midPointStop  offset="0.82" style="stop-color:#D9D9D9"/>
				<midPointStop  offset="0.5" style="stop-color:#D9D9D9"/>
				<midPointStop  offset="1" style="stop-color:#D9D9D9"/>
			</linearGradient>
			<path style="fill:url(#XMLID_8_);stroke:#000000;" d="M319.606,66.384l-35.595-41.899c1.951-4.06,1.136-9.553-2.454-13.779
				c-3.15-3.708-7.612-5.471-11.578-4.991l7.856,9.247l-0.114,0.096l-1.992,5.603l-5.875,1.08l-3.873-4.547l0.003-0.008
				l-3.989-4.696c-1.119,3.838-0.1,8.531,3.052,12.242c3.59,4.226,8.88,5.917,13.202,4.648l35.595,41.898L319.606,66.384z"/>
			<line style="fill:none;stroke:#000000;stroke-width:0.5;" x1="290.778" y1="32.94" x2="282.523" y2="66.748"/>
			<path d="M281.847,69.51c0.8-1.183,2.017-2.595,3.133-3.382l-2.37,0.256l-1.985-1.319
				C281.253,66.278,281.682,68.092,281.847,69.51z"/>
			<g>
				<text transform="matrix(1 0 0 1 0.0039 71.6135)"><tspan x="0" y="0" style="font-family:Liberation Sans; font-size:8.500000;">(1)</tspan></text>
			</g>
			<g>
				<text transform="matrix(1 0 0 1 104.481 71.6135)"><tspan x="0" y="0" style="font-family:Liberation Sans; font-size:8.500000;">(2)</tspan></text>
			</g>
			<g>
				<text transform="matrix(1 0 0 1 214.0786 71.6135)"><tspan x="0" y="0" style="font-family:Liberation Sans; font-size:8.500000;">(3)</tspan></text>
			</g>
			<g>
				<text transform="matrix(1 0 0 1 302.458 33.1194)"><tspan x="0" y="0" style="font-family:Liberation Sans; font-size:8.500000;">(4)</tspan></text>
			</g>
		</g>
		<rect y="37.123" style="fill:none;" width="320.315" height="2.835"/> 
	</g>
</svg>
