<?xml version="1.0" encoding="iso-8859-1"?>
<!-- Generator: Adobe Illustrator 11 Build 196, SVG Export Plug-In . SVG Version: 6.0.0 Build 78)  -->
<!DOCTYPE svg PUBLIC "-//W3C//DTD SVG 1.0//EN"    "http://www.w3.org/TR/2001/REC-SVG-20010904/DTD/svg10.dtd" [
	<!ENTITY ns_flows "http://ns.adobe.com/Flows/1.0/">
	<!ENTITY ns_svg "http://www.w3.org/2000/svg">
	<!ENTITY ns_xlink "http://www.w3.org/1999/xlink">
]>
<svg  
	 width="145.753" height="142.017" viewBox="0 0 145.753 142.017"
	 style="overflow:visible;enable-background:new 0 0 145.753 142.017" xml:space="preserve">
	<style type="text/css">
	
	</style>
	<g id="Layer_1">
		<rect x="38.242" y="5.5" style="fill:none;stroke:#000000;stroke-miterlimit:1;" width="104" height="104"/> 
		
			<line style="fill:none;stroke:#000000;stroke-linecap:square;stroke-miterlimit:1;" x1="33.242" y1="109.5" x2="37.242" y2="109.5"/>
		
			<line style="fill:none;stroke:#000000;stroke-linecap:square;stroke-miterlimit:1;" x1="33.242" y1="91.5" x2="37.242" y2="91.5"/>
		
			<line style="fill:none;stroke:#000000;stroke-linecap:square;stroke-miterlimit:1;" x1="33.242" y1="74.5" x2="37.242" y2="74.5"/>
		
			<line style="fill:none;stroke:#000000;stroke-linecap:square;stroke-miterlimit:1;" x1="33.242" y1="57.5" x2="37.242" y2="57.5"/>
		
			<line style="fill:none;stroke:#000000;stroke-linecap:square;stroke-miterlimit:1;" x1="33.242" y1="39.5" x2="37.242" y2="39.5"/>
		
			<line style="fill:none;stroke:#000000;stroke-linecap:square;stroke-miterlimit:1;" x1="33.242" y1="22.5" x2="37.242" y2="22.5"/>
		<line style="fill:none;stroke:#000000;stroke-linecap:square;stroke-miterlimit:1;" x1="33.242" y1="5.5" x2="37.242" y2="5.5"/>
		
			<line style="fill:none;stroke:#000000;stroke-linecap:square;stroke-miterlimit:1;" x1="38.242" y1="109.5" x2="38.242" y2="5.5"/>
		
			<line style="fill:none;stroke:#000000;stroke-linecap:square;stroke-miterlimit:1;" x1="38.242" y1="110.5" x2="38.242" y2="114.5"/>
		
			<line style="fill:none;stroke:#000000;stroke-linecap:square;stroke-miterlimit:1;" x1="59.242" y1="110.5" x2="59.242" y2="114.5"/>
		
			<line style="fill:none;stroke:#000000;stroke-linecap:square;stroke-miterlimit:1;" x1="79.242" y1="110.5" x2="79.242" y2="114.5"/>
		
			<line style="fill:none;stroke:#000000;stroke-linecap:square;stroke-miterlimit:1;" x1="100.242" y1="110.5" x2="100.242" y2="114.5"/>
		
			<line style="fill:none;stroke:#000000;stroke-linecap:square;stroke-miterlimit:1;" x1="121.242" y1="110.5" x2="121.242" y2="114.5"/>
		
			<line style="fill:none;stroke:#000000;stroke-linecap:square;stroke-miterlimit:1;" x1="142.242" y1="110.5" x2="142.242" y2="114.5"/>
		
			<line style="fill:none;stroke:#000000;stroke-linecap:square;stroke-miterlimit:1;" x1="38.242" y1="109.5" x2="142.242" y2="109.5"/>
		<g>
			<text transform="matrix(1 0 0 1 23.7422 113)"><tspan x="0" y="0" style="font-family:Liberation Sans; font-size:7.650000;">0</tspan></text>
		</g>
		<g>
			<text transform="matrix(1 0 0 1 23.7422 95)"><tspan x="0" y="0" style="font-family:Liberation Sans; font-size:7.650000;">5</tspan></text>
		</g>
		<g>
			<text transform="matrix(1 0 0 1 17.7422 78)"><tspan x="0" y="0" style="font-family:Liberation Sans; font-size:7.650000;">10</tspan></text>
		</g>
		<g>
			<text transform="matrix(1 0 0 1 17.7422 61)"><tspan x="0" y="0" style="font-family:Liberation Sans; font-size:7.650000;">15</tspan></text>
		</g>
		<g>
			<text transform="matrix(1 0 0 1 17.7422 43)"><tspan x="0" y="0" style="font-family:Liberation Sans; font-size:7.650000;">20</tspan></text>
		</g>
		<g>
			<text transform="matrix(1 0 0 1 17.7422 26)"><tspan x="0" y="0" style="font-family:Liberation Sans; font-size:7.650000;">25</tspan></text>
		</g>
		<g>
			<text transform="matrix(1 0 0 1 17.7422 9)"><tspan x="0" y="0" style="font-family:Liberation Sans; font-size:7.650000;">30</tspan></text>
		</g>
		<g>
			<text transform="matrix(1 0 0 1 34.7422 127)"><tspan x="0" y="0" style="font-family:Liberation Sans; font-size:7.650000;">0</tspan></text>
		</g>
		<g>
			<text transform="matrix(1 0 0 1 55.7422 127)"><tspan x="0" y="0" style="font-family:Liberation Sans; font-size:7.650000;">2</tspan></text>
		</g>
		<g>
			<text transform="matrix(1 0 0 1 75.7422 127)"><tspan x="0" y="0" style="font-family:Liberation Sans; font-size:7.650000;">4</tspan></text>
		</g>
		<g>
			<text transform="matrix(1 0 0 1 96.7422 127)"><tspan x="0" y="0" style="font-family:Liberation Sans; font-size:7.650000;">6</tspan></text>
		</g>
		<g>
			<text transform="matrix(1 0 0 1 117.7422 127)"><tspan x="0" y="0" style="font-family:Liberation Sans; font-size:7.650000;">8</tspan></text>
		</g>
		<g>
			<text transform="matrix(1 0 0 1 135.7422 127)"><tspan x="0" y="0" style="font-family:Liberation Sans; font-size:7.650000;">10</tspan></text>
		</g>
		<g>
			<text transform="matrix(1 0 0 1 79.7422 138)"><tspan x="0" y="0" style="font-family:Liberation Sans; font-size:7.650000;">t (s)</tspan></text>
		</g>
		<g>
			<text transform="matrix(1 0 0 1 4.4922 54.5)"><tspan x="0" y="0" style="font-family:Liberation Sans; font-size:7.650000;">x</tspan></text>
			<text transform="matrix(1 0 0 1 0 65.5)"><tspan x="0" y="0" style="font-family:Liberation Sans; font-size:7.650000;">(m)</tspan></text>
		</g>
		<path style="fill:none;stroke:#000000;" d="M38.305,92c79.5-166,15.014,82.465,103.5-86"/>
	</g>
</svg>
