<?xml version="1.0" encoding="iso-8859-1"?>
<!-- Generator: Adobe Illustrator 11 Build 196, SVG Export Plug-In . SVG Version: 6.0.0 Build 78)  -->
<!DOCTYPE svg PUBLIC "-//W3C//DTD SVG 1.0//EN"    "http://www.w3.org/TR/2001/REC-SVG-20010904/DTD/svg10.dtd" [
	<!ENTITY ns_flows "http://ns.adobe.com/Flows/1.0/">
	<!ENTITY ns_svg "http://www.w3.org/2000/svg">
	<!ENTITY ns_xlink "http://www.w3.org/1999/xlink">
]>
<svg
	 width="320.315" height="111.017" viewBox="0 0 320.315 111.017"
	 style="overflow:visible;enable-background:new 0 0 320.315 111.017" xml:space="preserve">
	<metadata>
<?xpacket begin='﻿' id='W5M0MpCehiHzreSzNTczkc9d'?><x:xmpmeta xmlns:x='adobe:ns:meta/' x:xmptk='XMP toolkit 3.0-29, framework 1.6'>
<rdf:RDF xmlns:rdf='http://www.w3.org/1999/02/22-rdf-syntax-ns#' xmlns:iX='http://ns.adobe.com/iX/1.0/'>

 <rdf:Description rdf:about=''
  xmlns:pdf='http://ns.adobe.com/pdf/1.3/'>
 </rdf:Description>

 <rdf:Description rdf:about=''
  xmlns:tiff='http://ns.adobe.com/tiff/1.0/'>
 </rdf:Description>

 <rdf:Description rdf:about=''
  xmlns:xap='http://ns.adobe.com/xap/1.0/'
  xmlns:xapGImg='http://ns.adobe.com/xap/1.0/g/img/'>
  <xap:CreateDate>2006-10-15T19:33:58Z</xap:CreateDate>
  <xap:ModifyDate>2006-10-15T19:33:58Z</xap:ModifyDate>
  <xap:CreatorTool>Illustrator</xap:CreatorTool>
  <xap:Thumbnails>
   <rdf:Alt>
    <rdf:li rdf:parseType='Resource'>
     <xapGImg:format>JPEG</xapGImg:format>
     <xapGImg:width>256</xapGImg:width>
     <xapGImg:height>92</xapGImg:height>
     <xapGImg:image>/9j/4AAQSkZJRgABAgEASABIAAD/7QAsUGhvdG9zaG9wIDMuMAA4QklNA+0AAAAAABAASAAAAAEA&#xA;AQBIAAAAAQAB/+4ADkFkb2JlAGTAAAAAAf/bAIQABgQEBAUEBgUFBgkGBQYJCwgGBggLDAoKCwoK&#xA;DBAMDAwMDAwQDA4PEA8ODBMTFBQTExwbGxscHx8fHx8fHx8fHwEHBwcNDA0YEBAYGhURFRofHx8f&#xA;Hx8fHx8fHx8fHx8fHx8fHx8fHx8fHx8fHx8fHx8fHx8fHx8fHx8fHx8fHx8f/8AAEQgAXAEAAwER&#xA;AAIRAQMRAf/EAaIAAAAHAQEBAQEAAAAAAAAAAAQFAwIGAQAHCAkKCwEAAgIDAQEBAQEAAAAAAAAA&#xA;AQACAwQFBgcICQoLEAACAQMDAgQCBgcDBAIGAnMBAgMRBAAFIRIxQVEGE2EicYEUMpGhBxWxQiPB&#xA;UtHhMxZi8CRygvElQzRTkqKyY3PCNUQnk6OzNhdUZHTD0uIIJoMJChgZhJRFRqS0VtNVKBry4/PE&#xA;1OT0ZXWFlaW1xdXl9WZ2hpamtsbW5vY3R1dnd4eXp7fH1+f3OEhYaHiImKi4yNjo+Ck5SVlpeYmZ&#xA;qbnJ2en5KjpKWmp6ipqqusra6voRAAICAQIDBQUEBQYECAMDbQEAAhEDBCESMUEFURNhIgZxgZEy&#xA;obHwFMHR4SNCFVJicvEzJDRDghaSUyWiY7LCB3PSNeJEgxdUkwgJChgZJjZFGidkdFU38qOzwygp&#xA;0+PzhJSktMTU5PRldYWVpbXF1eX1RlZmdoaWprbG1ub2R1dnd4eXp7fH1+f3OEhYaHiImKi4yNjo&#xA;+DlJWWl5iZmpucnZ6fkqOkpaanqKmqq6ytrq+v/aAAwDAQACEQMRAD8A4/8AkR+Ulr+Znme80m71&#xA;CTTrays2u3kiQSO59RIwo5EAfbrXFWK/mD5VHlPzrrHltbj62mmXLwJcleBdRupK1NDQ774qmX5Q&#xA;+QIvP3n3T/LM141jBdLNJLcogdwsMTSEKpIFW403xVW/OX8uYfy989XHly3vWv7eOGGeK4kQI/GV&#xA;a8WAJFQQdxiqQ+SfLn+JvN+j+XvX+rDVbyG0Nxx5+mJXCluNRWgPSuKs2/Pv8nbP8sdd02xs9Rk1&#xA;G31G2acNMixujI/Bh8JIIOxGKvLsVezfnz+QNl+WOlaPf2mryal+kJHt50liWPi6IH5JxZvhO+x+&#xA;/FXjOKva/N//ADj1Z6B+Sem/mGmsST3l3b2N3PYtEqxBL8KQiMG5VT1VqT1oemKvFMVe16D/AM49&#xA;WeqfkVcfmS2sSR3sdvd3cWniJTF6dnM8RRm5cuTeixqOlRtirxTFXtf5M/8AOPVn+YfkXWfMk+sS&#xA;WE1jcTWlpbpErqXht0m5yEsDQ+sBQeBxV4pir1j8gfyWsPzPv9ZgvdTl06LS4oXX0Y1kZ2nZgK8i&#xA;AAojP34q821/Sm0fXdS0lpBM2nXU1o0wHEOYJGj5AVNK8a4qzD8kvyyt/wAxvOw8v3N8+n26Wst3&#xA;LNGgdyIyqhVDEAVaQbnFUt/NbyPH5G8/6t5Wiujexac0Xp3LKEZkngjnXkoJFVEvE+NMVUfy08nJ&#xA;5z89aP5Ze5NnHqUxSS5VebIiI0jcVJG5CUGKp9+en5V235aecYNCtb99Qt7qxivo5pUEbqJJJIij&#xA;cSQfihJr74qwnQNKbWNd03SVkELajdQ2izEcghnkWPkRUVpyrir03/nID8j7H8rptD+papLqUOsL&#xA;c8hNGsbRvamKpBUkEMJx8qYq8jxV7P8Am5+QNl5E/LzQfNlvq8l7LqctvBdW0kSoqvcWz3AaNgxN&#xA;F9Iih8cVeMYq9ruv+cerOD8iU/MkaxIb4wR3baf6S+l6ck4i4B+XLkA1a/RTvirxTFXtf5ff849W&#xA;fmv8o9V88y6xJa3dml5JbWSxK0ZFnHzo7Fg3xkEbdPfFXimKvZvyG/IGy/M7StYv7vV5NN/R8iW8&#xA;CRRLJyd0L8n5MvwjbYffirx66gNvcywE8jE7ISOhKmmKsy/KnzT+Y/ljWrrU/I1pNd3Zg+r3iRWr&#xA;Xi+k7BhzVVbj8SVB26Yqh9e8s/mlr2s3ms6roGrXGo38rT3UxsLheTuamgWMADwAxVGeTdN/Nzyf&#xA;5itfMGheX9Ug1K05iN30+eRCsilHVlaOhBViMVb86WH5v+cvME+v6/oOqXGoXAVWZdPnRFRBxVEV&#xA;Y6AAYql+j+U/zP0fVbTVdN8v6tb39jMlxazrY3BKSRsGVqGMg7jocVTj80Nb/N3zleQax5x0q8iF&#xA;nC0MDGwltoUQcpX6oN6AsST0HgMVeexxySyLHGpeRyFRFBLFiaAADqTir1Pz/r358+fbLTrPzJou&#xA;pXEGm1MAj0yaIs7KFaSQrGOTEL8vbFWFf8q98/8A/Us6r/0g3P8AzRirN9b8xfn5rXkWx8kX+j6k&#xA;+gWCwxxRLpkySNHbCkKSOI6ssYAp8hWuKsI/5V75/wD+pZ1X/pBuf+aMVZvZeYvz8svy+l8g22j6&#xA;knl2USIY/wBGTeqIpnMkkQl9Plxd2YnvuRWmKvLrqyvLSQR3cElvIyh1SVGRirbqwDAbHscVej/l&#xA;v53/ADo8veWdQ07ybZ3k+i6o7mWSKxe6RJmjETvFIEYK/EKD16DFWJf8q98//wDUs6r/ANINz/zR&#xA;irLvy71H87/y+vLy68t6DqML38axXKTabNKjBCWQ0aPYrU0+eKsYv/JX5k399cX135d1aW7u5Xnu&#xA;JTY3ALSSMWdiBGBuxriqdeRIfzi8j6+uu+X9A1OG+WN4G9TTp5EaOSnJWVo/EA/RiqT+e/8AH+r6&#xA;7f8AmPzZp95Ff3jJLdXFxayW6AECKIAFVCqFQIvyxVB+R9S806X5p0/U/K0Us2u2Tma0jghNw54q&#xA;Q49IBuS8CQ23TFWTefU/OXz1rv6b8xaDqc96IUt4hHp08aRxRksERVj6cnZvmTiqRWfkj8yLK8gv&#xA;LXy9q8N1bSJNBKtlcckkjYMrD4OoIrirK/zF1b88/wAwpLB/M2h6jP8AoxJEtEi0yaJQZipkYhY9&#xA;2b01r222xVh3/KvfP/8A1LOq/wDSDc/80YqzLzr5l/PPzR5V03QPMWk6g2jaOUeH/cbLES0UZhje&#xA;WQRipVGI+nfFXmE0MsMrwzI0U0TFJI3BVlZTQqwO4IOKvUB5q/PTUPy2tvJUWl6hN5VeNDA0WnSs&#xA;0lvy9aNROsZ5R1IYEdRTemKsM/5V75//AOpZ1X/pBuf+aMVZv5f8xfn5oHkq+8m6Xo+pQ6Lf+qJV&#xA;OmTNKqzgLKqSGOqh1FD89qYqwj/lXvn/AP6lnVf+kG5/5oxVmv5e69+fPkCC/t/LWi6lBDqPEzxy&#xA;6ZNKA6AhZE5xmjAH5HuMVecatpWt6fcMNWsrizuJGbkt1E8LFqBm2cLvRwfpGKvpL/nB3/jq+bv+&#xA;MFl/xObFX1pirsVdirsVeOf85RSt/wAq/wDR/Yb63IfGqWM6j/k4cVfEnlP/AJSrRv8AmOtv+Ty4&#xA;q/T7FXYq7FXYq7FX5vfmq3LzBaN42Fufv5Yq+t/+cQ//ACTdt/zHXf8AxIYq9qxV2KuxV2KvmT/n&#xA;Lpv3N6temm2Jp87+T+mKvJv+cUP/ACduj/8AGC8/6hpMVfemKuxV2KuxViH5stx8g6kevx2o++7i&#xA;GKvzy85f8pfrn/bQuv8Ak82Kv0R/Kf8A8lZ5N/7Yem/9QkeKsrxV2KuxV2Kvhf8A5yklE3nEygUV&#xA;r2+QA9f3XoRH7zGcVZp/zg7/AMdXzd/xgsv+JzYq+tMVdirsVdirxH/nKEj/AA5EO/6P1Ugf88os&#xA;VfF/lP8A5SrRv+Y62/5PLir9PsVdirsVdiqG1N3j027kQlXSGRlYdQQpIIxV+dH5rgDzFagdBYQU&#xA;+9sVfW3/ADiH/wCSbtv+Y67/AOJDFXtWKuxV2KuxV8v/APOWsqudTC/7q07T42/1vr0j/qcYq8r/&#xA;AOcUP/J26P8A8YLz/qGkxV96Yq7FXYq7FWG/m+xH5faiR/v2zH33sIxV+evnL/lL9c/7aF1/yebF&#xA;X6I/lP8A+Ss8m/8AbD03/qEjxVleKuxV2KuxV8If85LknzMCf+rjq4+65UYqzv8A5wd/46vm7/jB&#xA;Zf8AE5sVfWmKuxV2KuxV4f8A85Rf8cCD/tm6t/ybhxV8Y+U/+Uq0b/mOtv8Ak8uKv0+xV2KuxV2K&#xA;pT5ukki8qa1JGxSRLC5ZGGxBELEEYq/Pr84lVfNkaqKKtpEAPYM+KvrH/nEP/wAk3bf8x13/AMSG&#xA;KvasVdirsVdir5a/5yt+3rn/ADCaf/1EDFXmH/OKH/k7dH/4wXn/AFDSYq+9MVdirsVdirCPzllK&#xA;eQ7mOlfWuLRCfDjcxyf8aUxV+fXnL/lL9c/7aF1/yebFX6I/lP8A+Ss8m/8AbD03/qEjxVleKuxV&#xA;2KuxV8Hf85JMW8yVP/Vz1gfddAYqnf8Azivr17okHmy7tTHEX/R0Mt3OpeK3jeSesrgFe9EWpoGY&#xA;E7bYq+sfIev32t6TcXN28U4huXgt72BeMc8aojc13Zfhd2jbiaclPToFWS4q7FXYq8P/AOcov+OB&#xA;B/2zdW/5Nw4q+MfKf/KVaN/zHW3/ACeXFX355689azomsyWtrJbQiG2Se1tZ0LyXsjFwY4yHUndQ&#xA;gCAtyPeoGKvQsVdirsVSfzl/yiGuf9s+6/5Mtir8/fzk/wCUuT/mEi/4k+KvrD/nEP8A8k3bf8x1&#xA;3/xIYqyrz/531TRNYFnBd2mnwrZrdQy3cbSfWJTJIrRgB4yVjEa8gnxHmOm1VWc2M8txZW880LW0&#xA;0saPJbsatGzKCUJHdTtiqvirsVfK/wDzlU5aXXwf2bbTwP8Akep/jirzP/nFD/yduj/8YLz/AKhp&#xA;MVfemKpb5k1G603QL+/tIhNc2sDyxIwYrVRWrBfiIXqQNziqQeQPNN/rkuoxXFzb30FqIGivbZeK&#xA;F5fU5xEqzoWQRq2xrRhXsSqzHFWCfnR/yhD/APMXa/8AJ0Yq/P7zl/yl+uf9tC6/5PNir9Efyn/8&#xA;lZ5N/wC2Hpv/AFCR4qyvFXYqx/zvrl7ouii7tTHEXmSKW7mUtFbowNZXAK9wEFTQMwJqNiqs8i6/&#xA;e63pE1zdPHP6Nw8EN5ApWOeNURuairD4WZo24mnJT06BV8Yf85I/8pH/ANvTWf8AqLGKs+/5wd/4&#xA;6vm7/jBZf8TmxV9aYq7FXYq7FXh//OUX/HAg/wC2bq3/ACbhxV8Y+U/+Uq0b/mOtv+Ty4q/T7FXY&#xA;q7FXYqk/nL/lENc/7Z91/wAmWxV+fv5yf8pcn/MJF/xJ8VfWH/OIf/km7b/mOu/+JDFXtWKuxV2K&#xA;uxV8s/8AOVgAfXSBubXTyf8ApIAxV5j/AM4of+Tt0f8A4wXn/UNJir70xV2KuxV2KsE/Oj/lCH/5&#xA;i7X/AJOjFX5/ecv+Uv1z/toXX/J5sVfoj+U//krPJv8A2w9N/wCoSPFWV4q7FXYq7FXwb/zkh/yk&#xA;f/b01n/qLGKs+/5wd/46vm7/AIwWX/E5sVfWmKuxV2KuxV4h/wA5RKf8Pwt2GnasD9McP9MVfGHl&#xA;P/lKtG/5jrb/AJPLir9PsVdirsVdiqA1+CO40LUreT+7mtZo3psaNGwP68Vfnh+bbs/ma3djVmso&#xA;ST7ktir60/5xD/8AJN23/Mdd/wDEhir2rFXYq7FXYq+W/wDnLBHR9Z5CnqWWnyIfFfrRSv8AwSHF&#xA;Xl//ADih/wCTt0f/AIwXn/UNJir70xV2KuxV2KsM/OEA/l7qNf8Af1l/1HQYq/Pbzl/yl+uf9tC6&#xA;/wCTzYq/RH8p/wDyVnk3/th6b/1CR4qyvFXYq7FXYq+D/wDnJUAeZdv+rlq//UUuKs8/5wd/46vm&#xA;7/jBZf8AE5sVfWmKuxV2KuxV4t/zlFF/zqCXFdxbajDx9pLbnX6PSxV8VeU/+Uq0b/mOtv8Ak8uK&#xA;v0+xV2KuxV2KrJoUmhkhkFY5FKOOmzChxV+cH5pknXrMk1J0+3JPj9rwxV9cf84h/wDkm7b/AJjr&#xA;v/iQxV7VirsVdirsVfMX/OXIPG/PY6Zp4H0ahLiryj/nFD/yduj/APGC8/6hpMVfemKuxV2KuxVh&#xA;35ugH8v9RBFR6lmfpF5CRir89POX/KX65/20Lr/k82Kv0R/Kf/yVnk3/ALYem/8AUJHirK8Vdirs&#xA;Vdir4S/5yaTh5p4U4kahqhKnb7c6OD9IauKse/JOy/NnUtcvtN/Li+exvZLcT6g6ypChiibivJnB&#xA;r8UlAB44qi/MP5v/AJ8eXtbvdE1XzPfQajp8rQXMQkjYB1PZlBBB6g4qivJv5m/85BecPMVr5f0L&#xA;zNeT6ld8zGjyxxoFjUu7MzLQAKpOKr/O35kf85C+S/ME2ga/5mvINQgVJCI5Y5EZJF5Kysq7g4ql&#xA;2ifnL+eut6xZaPpvme+m1DUJktrWLnGvKSRgqjkwAG56nFUf+buo/nt5bmh0Lz3qz3Ud9A8kCs8N&#xA;xG0bhopOLcao1CQehxV5Pb3E1tcRXEDmOeF1kikHVXU1Uj5EYq9x8/67/wA5P+QrLTrzzJ5gu7eD&#xA;UqiAxzxSlXVQzRyBQeLAN8vfFWFf8r+/OT/qbL7/AIJf+acVZxrOr/8AOUWj+Q7PzzfeYLpNBvUh&#xA;ljkW4haVY7neF3jAqA9Vp33FcVYP/wAr+/OT/qbL7/gl/wCacVZxp+r/APOUV/8Al9N5+tvMF03l&#xA;6FZZDIbiEStFA5jlkWMivFWVvfY7Yq8U1bWdS1e6F1qE3rThFjDBVQBF+yoVAqgD5Yq9Y/KXT/8A&#xA;nIO/8mX935C1Ka28v6XLKJIEnii5TiMTSLGripbiyneg3GKsa/5X9+cn/U2X3/BL/wA04qy78u/N&#xA;X/OSv5g3l5a+W/Ml1M9hGsty808USKHJVBVl3LUNPlirGL/88PzvsL64sbvzRfxXdpK8FxEXQlZI&#xA;2KupIBGzCmKp15E/ML/nIjzxr66F5f8AM13NfNG87epLHGixx05MzMviQPpxVjn5oeYPzUg1u/8A&#xA;K/njUZLm/szHFdJIYpKpQTw0lRalCJA4Fe/SuKpP+W485yedNNt/Jc72/mO6doLKWN1jI5oRJVn2&#xA;A4cq+2Ks/wDP/nz/AJyL8h66uieYvMt3DeyQJdRelNHKjxSFlDKyr/MjLv4YqkNh+eH53399b2Np&#xA;5ov5bu7lSC3iDoC0kjBUUEgDdjTFWVfmN5l/5yY/Lyawj8y+ZLmEaksjWkkM8UqsYSokU8VqCvqL&#xA;9+KsO/5X9+cn/U2X3/BL/wA04qy/z1qP/OSnl3yjp2ueZ9ZnbQ9ZaNYkeWCejunrxLLFxNCVQsOt&#xA;Kdjirxa7uri7upru4f1Li4dpZpDQFnclmO225OKvarSf/nJbSPyttPN1prVxb+ULWCKO1RJ4ucdq&#xA;jC3iIipy4CgA7036Yqw//lf35yf9TZff8Ev/ADTirOPLmr/85ReYvJl95x0vzBdSaLYCZpXa4hSR&#xA;hbrzlKRkVbiPv7Yqwf8A5X9+cn/U2X3/AAS/804qzb8vdb/5yf8AP9rf3XlvzDdTwacVWdpbiGKr&#xA;uCyonIbtQfL3xV5H5o81+Z/MN36nmC8e8u4WeryKgfm1A/Iqqlj8AG/hirMfyI/Nu1/LPzPeatd6&#xA;fJqNte2bWjxxOI3Q+okgYcgQfsUpirE/PvmpvNnnLV/MjW4tf0pcvOtsG58FOyqWoKmg3NMVTT8o&#xA;fP8AF5B8+6f5mms2voLVZo5bZHCOVmiaMlWIIqvKu+Kq35y/mND+YXnq48x29k1hbyQwwRW8jh34&#xA;xLTkxAAqSTsMVY/5N8xv5Z82aR5gSAXLaVdw3Yt2biJPScNx5AGladaYqzj8+/zis/zO13Tb6z06&#xA;TTrfTrZoAszrI7s782PwgAAbAYq8uxV7L+e/5/Wv5naRothb6RJpr6fI9xdPJKJA0joE4x0VfhG+&#xA;5+7FXjWKvafOH/OQtvr/AOSul/l5Fo7wXVpb2Vpc37ShoylgFCtGoAPJ/SUmvTfrirxbFXteg/8A&#xA;OQtnpf5FXH5bNo8kl7Jb3dpFqAlUReneTPKXZePLkvrMKDrQb4q8UxV7V+TH/OQtt+XnkjWfLc+j&#xA;vfvfTy3dnOkojAkmgSErICD8I9FTVd9zirxXFXq35BfnTZ/lhqOrz3mmSajBqkMSAQyLG6PCzFft&#xA;AghhIa4q841/VW1jXdS1ZoxC2o3U120IPIIZ5Gk4g0FacqYqzD8kvzNt/wAufOw8wXNi+oW72stp&#xA;LDG4RwJCrBlLAg0aMbHFUr/NPzwPPPn7VvNItfqSai8fp2xbmVSCFIE5NQfEViBPviqn+WnnFPJn&#xA;nrR/Mz2xvI9NmLyWytwZ0dGjbixB3AeoxVPvz0/NS2/MvzjBrtrYPp9va2MVjHDK4kdhHJJKXbiA&#xA;B8UxFPbFWEaFqsmka3p+rRoJZNPuYbpImJCs0EgkCkjseOKvTvz+/PCz/NGTQvqmlyabFpCXPP1Z&#xA;VkZ3ujFyA4gDiogFD3r2xV5Hir2X82vz+tfPf5daB5Th0iSyn0uWCe6unlDoz29s9uBGoUGjeqW3&#xA;6U74q8axV7Tef85C28/5Exflsmjut6IY7STUDKDF6Ucwm5qlOXI8QtK07+2KvFsVe1/l9/zkLZ+V&#xA;Pyj1XyNLo8l1d3iXkdterKqxgXkfCrqVLfASTt19sVeKYq9l/Ib8/rX8sdN1ixu9IfUk1B0ngeKU&#xA;RFZEUrxfkG+E7bjce+KvH7qc3FzLORxMrs5A6Asa4q+//wDrGP8A78r/ALlOKu/6xj/78r/uU4q7&#xA;/rGP/vyv+5Tirv8ArGP/AL8r/uU4q7/rGP8A78r/ALlOKu/6xj/78r/uU4q7/rGP/vyv+5Tirv8A&#xA;rGP/AL8r/uU4q7/rGP8A78r/ALlOKu/6xj/78r/uU4q7/rGP/vyv+5Tirv8ArGP/AL8r/uU4q7/r&#xA;GP8A78r/ALlOKu/6xj/78r/uU4q7/rGP/vyv+5Tirv8ArGP/AL8r/uU4q7/rGP8A78r/ALlOKu/6&#xA;xj/78r/uU4q7/rGP/vyv+5Tirv8ArGP/AL8r/uU4q7/rGP8A78r/ALlOKu/6xj/78r/uU4q7/rGP&#xA;/vyv+5Tirv8ArGP/AL8r/uU4q7/rGP8A78r/ALlOKu/6xj/78r/uU4q7/rGP/vyv+5Tirv8ArGP/&#xA;AL8r/uU4q7/rGP8A78r/ALlOKu/6xj/78r/uU4q7/rGP/vyv+5Tirv8ArGP/AL8r/uU4q//Z</xapGImg:image>
    </rdf:li>
   </rdf:Alt>
  </xap:Thumbnails>
 </rdf:Description>

 <rdf:Description rdf:about=''
  xmlns:dc='http://purl.org/dc/elements/1.1/'>
  <dc:format>image/svg+xml</dc:format>
 </rdf:Description>

</rdf:RDF>
</x:xmpmeta>
                                                                                                                                                                                                                                                                                                                                                                                                                                                                                                                                                                                                                                                                                                                                                                                                                                                                                                                                                                                                                                                                                                                                                                                                                                                                                                                                                                                                                                                                                                                                                                                                                                                                                                                                                                                                                                                                                                                                                                                                                                                                                                                                <?xpacket end='w'?>
			</metadata>
		<g id="Layer_1">
			<rect x="0.073" width="320.241" height="111.017"/> 
			<rect x="256.266" width="64.048" height="111.017"/> 
			<rect x="261.604" y="19.214" style="fill:#FFFFFF;" width="53.374" height="72.588"/> 
			<rect x="192.218" width="64.048" height="111.017"/> 
			<rect x="197.555" y="19.214" style="fill:#FFFFFF;" width="53.374" height="72.588"/> 
			<rect x="128.169" width="64.048" height="111.017"/> 
			<rect x="133.554" y="19.355" style="fill:#FFFFFF;" width="53.374" height="72.589"/> 
			<rect x="64.121" width="64.049" height="111.017"/> 
			<rect x="69.458" y="19.214" style="fill:#FFFFFF;" width="53.374" height="72.588"/> 
			<rect x="0.072" width="64.048" height="111.017"/> 
			<rect x="5.41" y="19.214" style="fill:#FFFFFF;" width="53.374" height="72.588"/> 
			<circle style="fill:#BFBFBF;stroke:#000000;stroke-width:0.5;" cx="76.811" cy="56.762" r="3.107"/> 
			<circle style="fill:#BFBFBF;stroke:#000000;stroke-width:0.5;" cx="10.259" cy="56.762" r="3.107"/> 
			<circle style="fill:#BFBFBF;stroke:#000000;stroke-width:0.5;" cx="147.364" cy="56.762" r="3.107"/> 
			<circle style="fill:#BFBFBF;stroke:#000000;stroke-width:0.5;" cx="221.916" cy="56.762" r="3.107"/> 
			<circle style="fill:#BFBFBF;stroke:#000000;stroke-width:0.5;" cx="300.469" cy="56.762" r="3.107"/> 
			<g>
				<path style="fill:#FFFFFF;" d="M11.602,98.562c0-0.767-0.622-1.388-1.388-1.388H7.439c-0.767,0-1.388,0.621-1.388,1.388v5.551
					c0,0.766,0.621,1.388,1.388,1.388h2.775c0.766,0,1.388-0.622,1.388-1.388V98.562z"/>
				<path style="fill:#FFFFFF;" d="M32.952,98.562c0-0.767-0.622-1.388-1.388-1.388h-2.775c-0.767,0-1.388,0.621-1.388,1.388v5.551
					c0,0.766,0.622,1.388,1.388,1.388h2.775c0.766,0,1.388-0.622,1.388-1.388V98.562z"/>
				<path style="fill:#FFFFFF;" d="M54.301,98.562c0-0.767-0.621-1.388-1.388-1.388h-2.775c-0.766,0-1.388,0.621-1.388,1.388v5.551
					c0,0.766,0.622,1.388,1.388,1.388h2.775c0.767,0,1.388-0.622,1.388-1.388V98.562z"/>
				<path style="fill:#FFFFFF;" d="M75.65,98.562c0-0.767-0.621-1.388-1.388-1.388h-2.775c-0.767,0-1.388,0.621-1.388,1.388v5.551
					c0,0.766,0.621,1.388,1.388,1.388h2.775c0.767,0,1.388-0.622,1.388-1.388V98.562z"/>
				<path style="fill:#FFFFFF;" d="M97,98.562c0-0.767-0.622-1.388-1.388-1.388h-2.775c-0.767,0-1.388,0.621-1.388,1.388v5.551
					c0,0.766,0.621,1.388,1.388,1.388h2.775c0.766,0,1.388-0.622,1.388-1.388V98.562z"/>
				<path style="fill:#FFFFFF;" d="M118.349,98.562c0-0.767-0.621-1.388-1.388-1.388h-2.775c-0.766,0-1.388,0.621-1.388,1.388v5.551
					c0,0.766,0.622,1.388,1.388,1.388h2.775c0.767,0,1.388-0.622,1.388-1.388V98.562z"/>
				<path style="fill:#FFFFFF;" d="M139.699,98.562c0-0.767-0.621-1.388-1.388-1.388h-2.775c-0.766,0-1.388,0.621-1.388,1.388v5.551
					c0,0.766,0.622,1.388,1.388,1.388h2.775c0.767,0,1.388-0.622,1.388-1.388V98.562z"/>
				<path style="fill:#FFFFFF;" d="M161.048,98.562c0-0.767-0.621-1.388-1.388-1.388h-2.775c-0.767,0-1.388,0.621-1.388,1.388v5.551
					c0,0.766,0.621,1.388,1.388,1.388h2.775c0.767,0,1.388-0.622,1.388-1.388V98.562z"/>
				<path style="fill:#FFFFFF;" d="M182.398,98.562c0-0.767-0.622-1.388-1.388-1.388h-2.775c-0.767,0-1.388,0.621-1.388,1.388v5.551
					c0,0.766,0.621,1.388,1.388,1.388h2.775c0.766,0,1.388-0.622,1.388-1.388V98.562z"/>
				<path style="fill:#FFFFFF;" d="M203.748,98.562c0-0.767-0.622-1.388-1.388-1.388h-2.775c-0.767,0-1.388,0.621-1.388,1.388v5.551
					c0,0.766,0.622,1.388,1.388,1.388h2.775c0.766,0,1.388-0.622,1.388-1.388V98.562z"/>
				<path style="fill:#FFFFFF;" d="M225.097,98.562c0-0.767-0.621-1.388-1.388-1.388h-2.775c-0.766,0-1.388,0.621-1.388,1.388v5.551
					c0,0.766,0.622,1.388,1.388,1.388h2.775c0.767,0,1.388-0.622,1.388-1.388V98.562z"/>
				<path style="fill:#FFFFFF;" d="M246.446,98.562c0-0.767-0.622-1.388-1.388-1.388h-2.775c-0.767,0-1.388,0.621-1.388,1.388v5.551
					c0,0.766,0.621,1.388,1.388,1.388h2.775c0.766,0,1.388-0.622,1.388-1.388V98.562z"/>
				<path style="fill:#FFFFFF;" d="M267.796,98.562c0-0.767-0.622-1.388-1.388-1.388h-2.775c-0.767,0-1.388,0.621-1.388,1.388v5.551
					c0,0.766,0.621,1.388,1.388,1.388h2.775c0.766,0,1.388-0.622,1.388-1.388V98.562z"/>
				<path style="fill:#FFFFFF;" d="M289.145,98.562c0-0.767-0.621-1.388-1.388-1.388h-2.775c-0.766,0-1.388,0.621-1.388,1.388v5.551
					c0,0.766,0.622,1.388,1.388,1.388h2.775c0.767,0,1.388-0.622,1.388-1.388V98.562z"/>
				<path style="fill:#FFFFFF;" d="M310.495,98.562c0-0.767-0.621-1.388-1.388-1.388h-2.775c-0.766,0-1.388,0.621-1.388,1.388v5.551
					c0,0.766,0.622,1.388,1.388,1.388h2.775c0.767,0,1.388-0.622,1.388-1.388V98.562z"/>
			</g>
			<g>
				<path style="fill:#FFFFFF;" d="M11.602,5.905c0-0.766-0.622-1.388-1.388-1.388H7.439c-0.767,0-1.388,0.622-1.388,1.388v5.551
					c0,0.766,0.621,1.388,1.388,1.388h2.775c0.766,0,1.388-0.622,1.388-1.388V5.905z"/>
				<path style="fill:#FFFFFF;" d="M32.952,5.905c0-0.766-0.622-1.388-1.388-1.388h-2.775c-0.767,0-1.388,0.622-1.388,1.388v5.551
					c0,0.766,0.622,1.388,1.388,1.388h2.775c0.766,0,1.388-0.622,1.388-1.388V5.905z"/>
				<path style="fill:#FFFFFF;" d="M54.301,5.905c0-0.766-0.621-1.388-1.388-1.388h-2.775c-0.766,0-1.388,0.622-1.388,1.388v5.551
					c0,0.766,0.622,1.388,1.388,1.388h2.775c0.767,0,1.388-0.622,1.388-1.388V5.905z"/>
				<path style="fill:#FFFFFF;" d="M75.65,5.905c0-0.766-0.621-1.388-1.388-1.388h-2.775c-0.767,0-1.388,0.622-1.388,1.388v5.551
					c0,0.766,0.621,1.388,1.388,1.388h2.775c0.767,0,1.388-0.622,1.388-1.388V5.905z"/>
				<path style="fill:#FFFFFF;" d="M97,5.905c0-0.766-0.622-1.388-1.388-1.388h-2.775c-0.767,0-1.388,0.622-1.388,1.388v5.551
					c0,0.766,0.621,1.388,1.388,1.388h2.775c0.766,0,1.388-0.622,1.388-1.388V5.905z"/>
				<path style="fill:#FFFFFF;" d="M118.349,5.905c0-0.766-0.621-1.388-1.388-1.388h-2.775c-0.766,0-1.388,0.622-1.388,1.388v5.551
					c0,0.766,0.622,1.388,1.388,1.388h2.775c0.767,0,1.388-0.622,1.388-1.388V5.905z"/>
				<path style="fill:#FFFFFF;" d="M139.699,5.905c0-0.766-0.621-1.388-1.388-1.388h-2.775c-0.766,0-1.388,0.622-1.388,1.388v5.551
					c0,0.766,0.622,1.388,1.388,1.388h2.775c0.767,0,1.388-0.622,1.388-1.388V5.905z"/>
				<path style="fill:#FFFFFF;" d="M161.048,5.905c0-0.766-0.621-1.388-1.388-1.388h-2.775c-0.767,0-1.388,0.622-1.388,1.388v5.551
					c0,0.766,0.621,1.388,1.388,1.388h2.775c0.767,0,1.388-0.622,1.388-1.388V5.905z"/>
				<path style="fill:#FFFFFF;" d="M182.398,5.905c0-0.766-0.622-1.388-1.388-1.388h-2.775c-0.767,0-1.388,0.622-1.388,1.388v5.551
					c0,0.766,0.621,1.388,1.388,1.388h2.775c0.766,0,1.388-0.622,1.388-1.388V5.905z"/>
				<path style="fill:#FFFFFF;" d="M203.748,5.905c0-0.766-0.622-1.388-1.388-1.388h-2.775c-0.767,0-1.388,0.622-1.388,1.388v5.551
					c0,0.766,0.622,1.388,1.388,1.388h2.775c0.766,0,1.388-0.622,1.388-1.388V5.905z"/>
				<path style="fill:#FFFFFF;" d="M225.097,5.905c0-0.766-0.621-1.388-1.388-1.388h-2.775c-0.766,0-1.388,0.622-1.388,1.388v5.551
					c0,0.766,0.622,1.388,1.388,1.388h2.775c0.767,0,1.388-0.622,1.388-1.388V5.905z"/>
				<path style="fill:#FFFFFF;" d="M246.446,5.905c0-0.766-0.622-1.388-1.388-1.388h-2.775c-0.767,0-1.388,0.622-1.388,1.388v5.551
					c0,0.766,0.621,1.388,1.388,1.388h2.775c0.766,0,1.388-0.622,1.388-1.388V5.905z"/>
				<path style="fill:#FFFFFF;" d="M267.796,5.905c0-0.766-0.622-1.388-1.388-1.388h-2.775c-0.767,0-1.388,0.622-1.388,1.388v5.551
					c0,0.766,0.621,1.388,1.388,1.388h2.775c0.766,0,1.388-0.622,1.388-1.388V5.905z"/>
				<path style="fill:#FFFFFF;" d="M289.145,5.905c0-0.766-0.621-1.388-1.388-1.388h-2.775c-0.766,0-1.388,0.622-1.388,1.388v5.551
					c0,0.766,0.622,1.388,1.388,1.388h2.775c0.767,0,1.388-0.622,1.388-1.388V5.905z"/>
				<path style="fill:#FFFFFF;" d="M310.495,5.905c0-0.766-0.621-1.388-1.388-1.388h-2.775c-0.766,0-1.388,0.622-1.388,1.388v5.551
					c0,0.766,0.622,1.388,1.388,1.388h2.775c0.767,0,1.388-0.622,1.388-1.388V5.905z"/>
			</g>
			<rect y="10.031" style="fill:none;" width="320.315" height="2.834"/> 
			<g>
				<path style="fill:#808080;" d="M56.606,91.803h2.177V19.214h-1.917c-0.744,12.773-1.133,25.642-1.133,38.602
					C55.733,69.216,56.029,80.547,56.606,91.803z"/>
				<path style="fill:none;stroke:#000000;stroke-width:0.5;" d="M56.724,18.676C55.98,31.45,55.59,44.318,55.59,57.279
					c0,11.4,0.297,22.73,0.873,33.986"/>
			</g>
			<g>
				<path style="fill:#808080;" d="M120.793,91.803h2.177V19.214h-1.917c-0.744,12.773-1.133,25.642-1.133,38.602
					C119.92,69.216,120.217,80.547,120.793,91.803z"/>
				<path style="fill:none;stroke:#000000;stroke-width:0.5;" d="M120.912,18.676c-0.744,12.773-1.134,25.642-1.134,38.603
					c0,11.4,0.297,22.73,0.873,33.986"/>
			</g>
			<g>
				<path style="fill:#808080;" d="M184.793,91.803h2.178V19.214h-1.917c-0.744,12.773-1.133,25.642-1.133,38.602
					C183.92,69.216,184.217,80.547,184.793,91.803z"/>
				<path style="fill:none;stroke:#000000;stroke-width:0.5;" d="M184.912,18.676c-0.744,12.773-1.134,25.642-1.134,38.603
					c0,11.4,0.297,22.73,0.873,33.986"/>
			</g>
			<g>
				<path style="fill:#808080;" d="M248.793,91.803h2.178V19.214h-1.917c-0.744,12.773-1.133,25.642-1.133,38.602
					C247.92,69.216,248.217,80.547,248.793,91.803z"/>
				<path style="fill:none;stroke:#000000;stroke-width:0.5;" d="M248.912,18.676c-0.744,12.773-1.134,25.642-1.134,38.603
					c0,11.4,0.297,22.73,0.873,33.986"/>
			</g>
			<g>
				<path style="fill:#808080;" d="M312.918,91.803h2.178V19.214h-1.917c-0.744,12.773-1.133,25.642-1.133,38.602
					C312.045,69.216,312.342,80.547,312.918,91.803z"/>
				<path style="fill:none;stroke:#000000;stroke-width:0.5;" d="M313.037,18.676c-0.744,12.773-1.134,25.642-1.134,38.603
					c0,11.4,0.297,22.73,0.873,33.986"/>
			</g>
		</g>
	</svg>
