<?xml version="1.0" encoding="iso-8859-1"?>
<!-- Generator: Adobe Illustrator 11 Build 196, SVG Export Plug-In . SVG Version: 6.0.0 Build 78)  -->
<!DOCTYPE svg PUBLIC "-//W3C//DTD SVG 1.0//EN"    "http://www.w3.org/TR/2001/REC-SVG-20010904/DTD/svg10.dtd" [
	<!ENTITY ns_flows "http://ns.adobe.com/Flows/1.0/">
	<!ENTITY ns_svg "http://www.w3.org/2000/svg">
	<!ENTITY ns_xlink "http://www.w3.org/1999/xlink">
]>
<svg
	 width="320.315" height="111.017" viewBox="0 0 320.315 111.017"
	 style="overflow:visible;enable-background:new 0 0 320.315 111.017" xml:space="preserve">
	<metadata>
<?xpacket begin='﻿' id='W5M0MpCehiHzreSzNTczkc9d'?><x:xmpmeta xmlns:x='adobe:ns:meta/' x:xmptk='XMP toolkit 3.0-29, framework 1.6'>
<rdf:RDF xmlns:rdf='http://www.w3.org/1999/02/22-rdf-syntax-ns#' xmlns:iX='http://ns.adobe.com/iX/1.0/'>

 <rdf:Description rdf:about=''
  xmlns:pdf='http://ns.adobe.com/pdf/1.3/'>
 </rdf:Description>

 <rdf:Description rdf:about=''
  xmlns:tiff='http://ns.adobe.com/tiff/1.0/'>
 </rdf:Description>

 <rdf:Description rdf:about=''
  xmlns:xap='http://ns.adobe.com/xap/1.0/'
  xmlns:xapGImg='http://ns.adobe.com/xap/1.0/g/img/'>
  <xap:CreateDate>2006-10-15T19:35:48Z</xap:CreateDate>
  <xap:ModifyDate>2006-10-15T19:35:48Z</xap:ModifyDate>
  <xap:CreatorTool>Illustrator</xap:CreatorTool>
  <xap:Thumbnails>
   <rdf:Alt>
    <rdf:li rdf:parseType='Resource'>
     <xapGImg:format>JPEG</xapGImg:format>
     <xapGImg:width>256</xapGImg:width>
     <xapGImg:height>92</xapGImg:height>
     <xapGImg:image>/9j/4AAQSkZJRgABAgEASABIAAD/7QAsUGhvdG9zaG9wIDMuMAA4QklNA+0AAAAAABAASAAAAAEA&#xA;AQBIAAAAAQAB/+4ADkFkb2JlAGTAAAAAAf/bAIQABgQEBAUEBgUFBgkGBQYJCwgGBggLDAoKCwoK&#xA;DBAMDAwMDAwQDA4PEA8ODBMTFBQTExwbGxscHx8fHx8fHx8fHwEHBwcNDA0YEBAYGhURFRofHx8f&#xA;Hx8fHx8fHx8fHx8fHx8fHx8fHx8fHx8fHx8fHx8fHx8fHx8fHx8fHx8fHx8f/8AAEQgAXAEAAwER&#xA;AAIRAQMRAf/EAaIAAAAHAQEBAQEAAAAAAAAAAAQFAwIGAQAHCAkKCwEAAgIDAQEBAQEAAAAAAAAA&#xA;AQACAwQFBgcICQoLEAACAQMDAgQCBgcDBAIGAnMBAgMRBAAFIRIxQVEGE2EicYEUMpGhBxWxQiPB&#xA;UtHhMxZi8CRygvElQzRTkqKyY3PCNUQnk6OzNhdUZHTD0uIIJoMJChgZhJRFRqS0VtNVKBry4/PE&#xA;1OT0ZXWFlaW1xdXl9WZ2hpamtsbW5vY3R1dnd4eXp7fH1+f3OEhYaHiImKi4yNjo+Ck5SVlpeYmZ&#xA;qbnJ2en5KjpKWmp6ipqqusra6voRAAICAQIDBQUEBQYECAMDbQEAAhEDBCESMUEFURNhIgZxgZEy&#xA;obHwFMHR4SNCFVJicvEzJDRDghaSUyWiY7LCB3PSNeJEgxdUkwgJChgZJjZFGidkdFU38qOzwygp&#xA;0+PzhJSktMTU5PRldYWVpbXF1eX1RlZmdoaWprbG1ub2R1dnd4eXp7fH1+f3OEhYaHiImKi4yNjo&#xA;+DlJWWl5iZmpucnZ6fkqOkpaanqKmqq6ytrq+v/aAAwDAQACEQMRAD8A4/8AkR+Ulr+Znme80m71&#xA;CTTrays2u3kiQSO59RIwo5EAfbrXFWK/mD5VHlPzrrHltbj62mmXLwJcleBdRupK1NDQ774qmX5Q&#xA;+QIvP3n3T/LM141jBdLNJLcogdwsMTSEKpIFW403xVW/OX8uYfy989XHly3vWv7eOGGeK4kQI/GV&#xA;a8WAJFQQdxiqQ+SfLn+JvN+j+XvX+rDVbyG0Nxx5+mJXCluNRWgPSuKs2/Pv8nbP8sdd02xs9Rk1&#xA;G31G2acNMixujI/Bh8JIIOxGKvLsVezfnz+QNl+WOlaPf2mryal+kJHt50liWPi6IH5JxZvhO+x+&#xA;/FXjOKva/N//ADj1Z6B+Sem/mGmsST3l3b2N3PYtEqxBL8KQiMG5VT1VqT1oemKvFMVe16D/AM49&#xA;WeqfkVcfmS2sSR3sdvd3cWniJTF6dnM8RRm5cuTeixqOlRtirxTFXtf5M/8AOPVn+YfkXWfMk+sS&#xA;WE1jcTWlpbpErqXht0m5yEsDQ+sBQeBxV4pir1j8gfyWsPzPv9ZgvdTl06LS4oXX0Y1kZ2nZgK8i&#xA;AAojP34q821/Sm0fXdS0lpBM2nXU1o0wHEOYJGj5AVNK8a4qzD8kvyyt/wAxvOw8v3N8+n26Wst3&#xA;LNGgdyIyqhVDEAVaQbnFUt/NbyPH5G8/6t5Wiujexac0Xp3LKEZkngjnXkoJFVEvE+NMVUfy08nJ&#xA;5z89aP5Ze5NnHqUxSS5VebIiI0jcVJG5CUGKp9+en5V235aecYNCtb99Qt7qxivo5pUEbqJJJIij&#xA;cSQfihJr74qwnQNKbWNd03SVkELajdQ2izEcghnkWPkRUVpyrir03/nID8j7H8rptD+papLqUOsL&#xA;c8hNGsbRvamKpBUkEMJx8qYq8jxV7P8Am5+QNl5E/LzQfNlvq8l7LqctvBdW0kSoqvcWz3AaNgxN&#xA;F9Iih8cVeMYq9ruv+cerOD8iU/MkaxIb4wR3baf6S+l6ck4i4B+XLkA1a/RTvirxTFXtf5ff849W&#xA;fmv8o9V88y6xJa3dml5JbWSxK0ZFnHzo7Fg3xkEbdPfFXimKvZvyG/IGy/M7StYv7vV5NN/R8iW8&#xA;CRRLJyd0L8n5MvwjbYffirx66gNvcywE8jE7ISOhKmmKsy/KnzT+Y/ljWrrU/I1pNd3Zg+r3iRWr&#xA;Xi+k7BhzVVbj8SVB26Yqh9e8s/mlr2s3ms6roGrXGo38rT3UxsLheTuamgWMADwAxVGeTdN/Nzyf&#xA;5itfMGheX9Ug1K05iN30+eRCsilHVlaOhBViMVb86WH5v+cvME+v6/oOqXGoXAVWZdPnRFRBxVEV&#xA;Y6AAYql+j+U/zP0fVbTVdN8v6tb39jMlxazrY3BKSRsGVqGMg7jocVTv8zNU/OTzvdx6z5s0W/C6&#xA;dbsiuunzW8MMKkyOzHhQeLMxxV51HHJLIscal5HIVEUEsWJoAAOpOKvU/P8Ar358+fbLTrPzJoup&#xA;XEGm1MAj0yaIs7KFaSQrGOTEL8vbFWFf8q98/wD/AFLOq/8ASDc/80YqzfW/MX5+a15FsfJF/o+p&#xA;PoFgsMcUS6ZMkjR2wpCkjiOrLGAKfIVrirCP+Ve+f/8AqWdV/wCkG5/5oxVm9l5i/Pyy/L6XyDba&#xA;PqSeXZRIhj/Rk3qiKZzJJEJfT5cXdmJ77kVpirzHUdM1LTbprTUbSayu0AL29xG0UgDCoqjhWFRv&#xA;ir0T8t/O/wCdHl7yzqGneTbO8n0XVHcyyRWL3SJM0Yid4pAjBX4hQevQYqxL/lXvn/8A6lnVf+kG&#xA;5/5oxVl35d6j+d/5fXl5deW9B1GF7+NYrlJtNmlRghLIaNHsVqafPFWMX/kr8yb++uL678u6tLd3&#xA;crz3EpsbgFpJGLOxAjA3Y1xVOvIkP5xeR9fXXfL+ganDfLG8Depp08iNHJTkrK0fiAfoxVKvPkP5&#xA;i6tq995q826ZfQ3N9Ipuby4tJbeKoUJGgLIqgKiBVHgMVQHkfUvNOl+adP1PytFLNrtk5mtI4ITc&#xA;OeKkOPSAbkvAkNt0xVk3n1Pzl89a7+m/MWg6nPeiFLeIR6dPGkcUZLBEVY+nJ2b5k4qkVn5I/Miy&#xA;vILy18vavDdW0iTQSrZXHJJI2DKw+DqCK4qyv8xdW/PP8wpLB/M2h6jP+jEkS0SLTJolBmKmRiFj&#xA;3ZvTWvbbbFWHf8q98/8A/Us6r/0g3P8AzRirNfOGvfnz5u8s6Z5b1vRdSn0vSSj26JpkyOzxRmGN&#xA;pHWOrFUZh9O+KvLZoZoJpIJ42imiYpLE4KsrKaMrKdwQeoxV6gPNX56ah+W1t5Ki0vUJvKrxoYGi&#xA;06Vmkt+XrRqJ1jPKOpDAjqKb0xVhn/KvfP8A/wBSzqv/AEg3P/NGKs38v+Yvz80DyVfeTdL0fUod&#xA;Fv8A1RKp0yZpVWcBZVSQx1UOoofntTFWEf8AKvfP/wD1LOq/9INz/wA0YqzX8vde/PnyBBf2/lrR&#xA;dSgh1HiZ45dMmlAdAQsic4zRgD8j3GKvO9Z0TzBpkytrWn3VhLclnT63DJAZKH4ivqKtdzvTFX0f&#xA;/wA4O/8AHV83f8YLL/ic2KvrTFXYq7FXYqxT82P/ACVnnL/th6l/1CSYq/Ozyn/ylWjf8x1t/wAn&#xA;lxV+n2KuxV2KuxV2Kvgv/nK//wAnbrH/ABgs/wDqGjxV9Ff84h/+Sbtv+Y67/wCJDFXtWKuxV2Ku&#xA;xV4r/wA5ef8Akm7n/mOtP+JHFXzr/wA4of8Ak7dH/wCMF5/1DSYq+9MVdirsVdirsVfmX+YX/Kf+&#xA;Zv8Atq33/US+Kv0J/Kf/AMlZ5N/7Yem/9QkeKsrxV2KuxV2Kvkv/AJzi/wCOr5R/4wXv/E4cVd/z&#xA;g7/x1fN3/GCy/wCJzYq+tMVS/wAwasmj6DqWrvGZk061nu2iBClxBG0hUE9K8aYqxH8tvzHv/NF9&#xA;f2GoWcUE9rFHcRy2zO0ZSRmXg4YfCylfhavx77LxxVn2KsU/Nj/yVnnL/th6l/1CSYq/Ozyn/wAp&#xA;Vo3/ADHW3/J5cVfp9irsVdirsVdir4L/AOcr/wDydusf8YLP/qGjxV9Ff84h/wDkm7b/AJjrv/iQ&#xA;xV7VirsVdirsVeK/85ef+Sbuf+Y60/4kcVfOv/OKH/k7dH/4wXn/AFDSYq+9MVdirsVdirsVfmX+&#xA;YX/Kf+Zv+2rff9RL4q/Qn8p//JWeTf8Ath6b/wBQkeKsrxV2KuxV2Kvkv/nOL/jq+Uf+MF7/AMTh&#xA;xV3/ADg7/wAdXzd/xgsv+JzYq+tMVaZVdSrAMrCjKdwQexxVBaXoeiaRHJHpWn22nxykNKlrDHCG&#xA;IFAWEYWtBiqOxVin5sf+Ss85f9sPUv8AqEkxV+dnlP8A5SrRv+Y62/5PLir9PsVdiryLzrD+aDfm&#xA;D/uIa+FmzQHSmhZhYiNUT1RdBf3f95z5eqORWnDelFXruKuxV8F/85X/APk7dY/4wWf/AFDR4q+i&#xA;v+cQ/wDyTdt/zHXf/Ehir2rFUNqOpafplnJe6jcxWlpFT1LiZxGi1IUVZiBuTQeJxVrTdT07U7OO&#xA;9065ivLOWvp3EDrIjcSVYBlJFQwIPgcVRWKvFf8AnLz/AMk3c/8AMdaf8SOKvnX/AJxQ/wDJ26P/&#xA;AMYLz/qGkxV96Yq7FXYq7FXYq/Mv8wv+U/8AM3/bVvv+ol8VfoT+U/8A5Kzyb/2w9N/6hI8VZXir&#xA;sVdirsVfJf8AznF/x1fKP/GC9/4nDirv+cHf+Or5u/4wWX/E5sVfWmKoTV9Sh0vSr3U5lZ4bGCW5&#xA;lRKcisKF2C1IFSF2qcVSTyv5wuNXv7iwvLFbK6hiW4j9KY3CPGzFDVjHCVZWHSnfY9aKsmxVin5s&#xA;f+Ss85f9sPUv+oSTFX52eU/+Uq0b/mOtv+Ty4q/T7FXYqw/WfzBGm6vd2gsPWstOaNNQujKEdS8a&#xA;TMYouDcwkcqk1dSdwAdqqswxV2Kvgv8A5yv/APJ26x/xgs/+oaPFX0V/ziH/AOSbtv8AmOu/+JDF&#xA;XtWKsE/OOwF/5XtraOQpftexnTgQDE0wjkLCbcEJ6PqGq7ggUB6FV35O6eth5Zurd3L34vZDqIAp&#xA;Gsxii4iLqSno+mancmuw6BVneKvFf+cvP/JN3P8AzHWn/Ejir51/5xQ/8nbo/wDxgvP+oaTFX3pi&#xA;rsVYD5d/NzTNb8zposVjLFBdPLHp18XVhKYUeQlo6Axq6Rsybk0+0FO2Ks+xV2KvzL/ML/lP/M3/&#xA;AG1b7/qJfFX6E/lP/wCSs8m/9sPTf+oSPFWV4q7FXYq7FXyX/wA5xf8AHV8o/wDGC9/4nDirv+cH&#xA;f+Or5u/4wWX/ABObFX1piqyeCGeGSCeNZYJVKSxOAyMjCjKynYgjqMVQGi+XNF0VZV0y1Fv63ESN&#xA;yZ2KxghF5OWbinI8VrQVNMVTLFWKfmx/5Kzzl/2w9S/6hJMVfnZ5T/5SrRv+Y62/5PLir9PsVdiq&#xA;VXflbQLzU01O5s0kvUKH1KsAxiNYzIgISQofslwePbFU1xV2Kvgv/nK//wAnbrH/ABgs/wDqGjxV&#xA;9Ff84h/+Sbtv+Y67/wCJDFXtWKoTVNK0/VLNrO/hE1uxDcalSGU1VlZSrKynoykEYq1pek6fpVmt&#xA;pYQiGAEsRVmZmY1ZndyzMx7liTiqMxV4r/zl5/5Ju5/5jrT/AIkcVfOv/OKH/k7dH/4wXn/UNJir&#xA;70xV2KsX0nyp5BtPM1zf6bBbjXkLyTok7O0Jn3dxbl2SEvy3ZUFanxOKsoxV2KvzL/ML/lP/ADN/&#xA;21b7/qJfFX6E/lP/AOSs8m/9sPTf+oSPFWV4q81/N/zR5u0SXTE0aWWysp1lM99FAk5MylRHCfUj&#xA;lRKhiQKcnPT7JBVZx5butTu/L2mXWqQ/V9TntYZL2DiU4TPGDIvA1K0Yn4T06YqmWKvkv/nOL/jq&#xA;+Uf+MF7/AMThxV3/ADg7/wAdXzd/xgsv+JzYq+tMVdirsVdirFPzY/8AJWecv+2HqX/UJJir87PK&#xA;f/KVaN/zHW3/ACeXFX6fYq7FXYq7FXYq+C/+cr//ACdusf8AGCz/AOoaPFX0V/ziH/5Ju2/5jrv/&#xA;AIkMVe1Yq7FXYq7FXiv/ADl5/wCSbuf+Y60/4kcVfOv/ADih/wCTt0f/AIwXn/UNJir70xV2KsB8&#xA;v+QNX0/X7O7nmtjaafNczx3EZc3Nx9YSRT6ylFVWYy85GDtyda0FdlWfYq7FX5l/mF/yn/mb/tq3&#xA;3/US+Kv0J/Kf/wAlZ5N/7Yem/wDUJHirK8VdirsVdir5L/5zi/46vlH/AIwXv/E4cVd/zg7/AMdX&#xA;zd/xgsv+JzYq+tMVdirsVdirFPzY/wDJWecv+2HqX/UJJir87PKf/KVaN/zHW3/J5cVfp9irsVdi&#xA;rsVdir4L/wCcr/8Aydusf8YLP/qGjxV9Ff8AOIf/AJJu2/5jrv8A4kMVe1Yq7FXYq7FXiv8Azl5/&#xA;5Ju5/wCY60/4kcVfOv8Azih/5O3R/wDjBef9Q0mKvvTFXYq7FXYq7FX5l/mF/wAp/wCZv+2rff8A&#xA;US+Kv0J/Kf8A8lZ5N/7Yem/9QkeKsrxVh/nfzZquj39nZWL2lv8AWIJ7h7m9R5FIhKAqiJJB9kPy&#xA;clthTbeoVZB5e1STVdB07U5IvQkvraK4aEGoUyoGIBIBI32qMVTDFXyX/wA5xf8AHV8o/wDGC9/4&#xA;nDiryX8k7L82dS1y+038uL57G9ktxPqDrKkKGKJuK8mcGvxSUAHjiqL8w/m/+fHl7W73RNV8z30G&#xA;o6fK0FzEJI2AdT2ZQQQeoOKoryb+Zv8AzkF5w8xWvl/QvM15PqV3zMaPLHGgWNS7szMtAAqk4qv8&#xA;7fmR/wA5C+S/ME2ga/5mvINQgVJCI5Y5EZJF5Kysq7g4ql2ifnL+eut6xZaPpvme+m1DUJktrWLn&#xA;GvKSRgqjkwAG56nFU2/NTzB/zkL5Qc+XvOOv3DQavaSBo0mjlimt5KxSoSor0qCMVeQW9xNbXEVx&#xA;A5jnhdZIpB1V1NVI+RGKvcfP+u/85P8AkKy0688yeYLu3g1KogMc8UpV1UM0cgUHiwDfL3xVhX/K&#xA;/vzk/wCpsvv+CX/mnFWcazq//OUWj+Q7PzzfeYLpNBvUhljkW4haVY7neF3jAqA9Vp33FcVYP/yv&#xA;785P+psvv+CX/mnFWcafq/8AzlFf/l9N5+tvMF03l6FZZDIbiEStFA5jlkWMivFWVvfY7Yq8Z8w+&#xA;Y9c8x6pJq2uXkl/qMwVZbmUguwRQqg0A6KKYq9T/ACl0/wD5yDv/ACZf3fkLUprby/pcsokgSeKL&#xA;lOIxNIsauKluLKd6DcYqxr/lf35yf9TZff8ABL/zTirLvy781f8AOSv5g3l5a+W/Ml1M9hGsty80&#xA;8USKHJVBVl3LUNPlirGL/wDPD877C+uLG780X8V3aSvBcRF0JWSNirqSARswpiqdeRPzC/5yI88a&#xA;+uheX/M13NfNG87epLHGixx05MzMviQPpxVIfzR82fm/Bf33krzxrNxcvZSxtc2UkiSRluIlicMg&#xA;3BRww+eKpF+W485yedNNt/Jc72/mO6doLKWN1jI5oRJVn2A4cq+2Ks/8/wDnz/nIvyHrq6J5i8y3&#xA;cN7JAl1F6U0cqPFIWUMrKv8AMjLv4YqkNh+eH53399b2Np5ov5bu7lSC3iDoC0kjBUUEgDdjTFWV&#xA;fmN5l/5yY/Lyawj8y+ZLmEaksjWkkM8UqsYSokU8VqCvqL9+KsO/5X9+cn/U2X3/AAS/804qzXzh&#xA;rv8Azk/5R8s6Z5k1vzBdwaXqxRLd0nid1eWMzRrIiiqlkVj9G+KvELy8ub28nvLqQzXVzI808rfa&#xA;eSRizMfck1xV7VaT/wDOS2kflbaebrTWri38oWsEUdqiTxc47VGFvERFTlwFAB3pv0xVh/8Ayv78&#xA;5P8AqbL7/gl/5pxVmWj3X/OS3m3yReebbbWJr3QdNMkr/WJYC5NqvOR443XcoD1+7FWG/wDK/vzk&#xA;/wCpsvv+CX/mnFWbfl7rf/OT/n+1v7ry35hup4NOKrO0txDFV3BZUTkN2oPl74q8p83+d/OXmi4h&#xA;/wAT6nPqU1jzjg+sEEx8iOYFAOpUYqyv8iPzbtfyz8z3mrXenyajbXtm1o8cTiN0PqJIGHIEH7FK&#xA;YqxPz75qbzZ5y1fzI1uLX9KXLzrbBufBTsqlqCpoNzTFU0/KHz/F5B8+6f5mms2voLVZo5bZHCOV&#xA;miaMlWIIqvKu+Kq35y/mND+YXnq48x29k1hbyQwwRW8jh34xLTkxAAqSTsMVY/5N8xv5Z82aR5gS&#xA;AXLaVdw3Yt2biJPScNx5AGladaYqzj8+/wA4rP8AM7XdNvrPTpNOt9OtmgCzOsjuzvzY/CAABsBi&#xA;ry7FXsv57/n9a/mdpGi2FvpEmmvp8j3F08kokDSOgTjHRV+Eb7n7sVeNYq9p84f85C2+v/krpf5e&#xA;RaO8F1aW9laXN+0oaMpYBQrRqADyf0lJr0364q8WxV7XoP8AzkLZ6X+RVx+WzaPJJeyW93aRagJV&#xA;EXp3kzyl2Xjy5L6zCg60G+KvFMVe1fkx/wA5C235eeSNZ8tz6O9+99PLd2c6SiMCSaBISsgIPwj0&#xA;VNV33OKvFcVerfkF+dNn+WGo6vPeaZJqMGqQxIBDIsbo8LMV+0CCGEhrirzjX9VbWNd1LVmjELaj&#xA;dTXbQg8ghnkaTiDQVpypirMPyS/M23/LnzsPMFzYvqFu9rLaSwxuEcCQqwZSwINGjGxxVK/zT88D&#xA;zz5+1bzSLX6kmovH6dsW5lUghSBOTUHxFYgT74qp/lp5xTyZ560fzM9sbyPTZi8lsrcGdHRo24sQ&#xA;dwHqMVT789PzUtvzL84wa7a2D6fb2tjFYxwyuJHYRySSl24gAfFMRT2xVhGharJpGt6fq0aCWTT7&#xA;mG6SJiQrNBIJApI7Hjir078/vzws/wA0ZNC+qaXJpsWkJc8/VlWRne6MXIDiAOKiAUPevbFXkeKv&#xA;Zfza/P6189/l1oHlOHSJLKfS5YJ7q6eUOjPb2z24EahQaN6pbfpTvirxrFXtN5/zkLbz/kTF+Wya&#xA;O63ohjtJNQMoMXpRzCbmqU5cjxC0rTv7Yq8WxV7X+X3/ADkLZ+VPyj1XyNLo8l1d3iXkdterKqxg&#xA;XkfCrqVLfASTt19sVeKYq9l/Ib8/rX8sdN1ixu9IfUk1B0ngeKURFZEUrxfkG+E7bjce+KvH7qc3&#xA;FzLORxMrs5A6Asa4q+//APrGP/vyv+5Tirv+sY/+/K/7lOKu/wCsY/8Avyv+5Tirv+sY/wDvyv8A&#xA;uU4q7/rGP/vyv+5Tirv+sY/+/K/7lOKu/wCsY/8Avyv+5Tirv+sY/wDvyv8AuU4q7/rGP/vyv+5T&#xA;irv+sY/+/K/7lOKu/wCsY/8Avyv+5Tirv+sY/wDvyv8AuU4q7/rGP/vyv+5Tirv+sY/+/K/7lOKu&#xA;/wCsY/8Avyv+5Tirv+sY/wDvyv8AuU4q7/rGP/vyv+5Tirv+sY/+/K/7lOKu/wCsY/8Avyv+5Tir&#xA;v+sY/wDvyv8AuU4q7/rGP/vyv+5Tirv+sY/+/K/7lOKu/wCsY/8Avyv+5Tirv+sY/wDvyv8AuU4q&#xA;7/rGP/vyv+5Tirv+sY/+/K/7lOKu/wCsY/8Avyv+5Tirv+sY/wDvyv8AuU4q7/rGP/vyv+5Tirv+&#xA;sY/+/K/7lOKu/wCsY/8Avyv+5Tirv+sY/wDvyv8AuU4q/wD/2Q==</xapGImg:image>
    </rdf:li>
   </rdf:Alt>
  </xap:Thumbnails>
 </rdf:Description>

 <rdf:Description rdf:about=''
  xmlns:dc='http://purl.org/dc/elements/1.1/'>
  <dc:format>image/svg+xml</dc:format>
 </rdf:Description>

</rdf:RDF>
</x:xmpmeta>
                                                                                                                                                                                                                                                                                                                                                                                                                                                                                                                                                                                                                                                                                                                                                                                                                                                                                                                                                                                                                                                                                                                                                                                                                                                                                                                                                                                                                                                                                                                                                                                                                                                                                                                                                                                                                                                                                                                                                                                                                                                                                                                                <?xpacket end='w'?>
			</metadata>
		<g id="Layer_1">
			<rect x="0.073" width="320.241" height="111.017"/> 
			<rect x="256.266" width="64.048" height="111.017"/> 
			<rect x="261.604" y="19.214" style="fill:#FFFFFF;" width="53.374" height="72.588"/> 
			<rect x="192.218" width="64.048" height="111.017"/> 
			<rect x="197.555" y="19.214" style="fill:#FFFFFF;" width="53.374" height="72.588"/> 
			<rect x="128.169" width="64.048" height="111.017"/> 
			<rect x="133.554" y="19.355" style="fill:#FFFFFF;" width="53.374" height="72.589"/> 
			<rect x="64.121" width="64.049" height="111.017"/> 
			<rect x="69.458" y="19.214" style="fill:#FFFFFF;" width="53.374" height="72.588"/> 
			<rect x="0.072" width="64.048" height="111.017"/> 
			<rect x="5.41" y="19.214" style="fill:#FFFFFF;" width="53.374" height="72.588"/> 
			<circle style="fill:#BFBFBF;stroke:#000000;stroke-width:0.5;" cx="96.145" cy="58.656" r="3.106"/> 
			<circle style="fill:#BFBFBF;stroke:#000000;stroke-width:0.5;" cx="32.096" cy="58.563" r="3.107"/> 
			<circle style="fill:#808080;stroke:#000000;stroke-width:0.5;" cx="96.145" cy="44.911" r="3.106"/> 
			<circle style="fill:#808080;stroke:#000000;stroke-width:0.5;" cx="32.096" cy="37.868" r="3.107"/> 
			<circle style="fill:#BFBFBF;stroke:#000000;stroke-width:0.5;" cx="160.194" cy="58.762" r="3.107"/> 
			<circle style="fill:#BFBFBF;stroke:#000000;stroke-width:0.5;" cx="224.242" cy="72.743" r="3.107"/> 
			<circle style="fill:#BFBFBF;stroke:#000000;stroke-width:0.5;" cx="288.291" cy="87.244" r="3.106"/> 
			<circle style="fill:#808080;stroke:#000000;stroke-width:0.5;" cx="160.194" cy="51.954" r="3.107"/> 
			<circle style="fill:#808080;stroke:#000000;stroke-width:0.5;" cx="224.242" cy="58.998" r="3.107"/> 
			<circle style="fill:#808080;stroke:#000000;stroke-width:0.5;" cx="288.291" cy="66.042" r="3.106"/> 
			<g>
				<path style="fill:#FFFFFF;" d="M11.602,98.562c0-0.767-0.622-1.388-1.388-1.388H7.439c-0.767,0-1.388,0.621-1.388,1.388v5.551
					c0,0.766,0.621,1.388,1.388,1.388h2.775c0.766,0,1.388-0.622,1.388-1.388V98.562z"/>
				<path style="fill:#FFFFFF;" d="M32.952,98.562c0-0.767-0.622-1.388-1.388-1.388h-2.775c-0.767,0-1.388,0.621-1.388,1.388v5.551
					c0,0.766,0.622,1.388,1.388,1.388h2.775c0.766,0,1.388-0.622,1.388-1.388V98.562z"/>
				<path style="fill:#FFFFFF;" d="M54.301,98.562c0-0.767-0.621-1.388-1.388-1.388h-2.775c-0.766,0-1.388,0.621-1.388,1.388v5.551
					c0,0.766,0.622,1.388,1.388,1.388h2.775c0.767,0,1.388-0.622,1.388-1.388V98.562z"/>
				<path style="fill:#FFFFFF;" d="M75.65,98.562c0-0.767-0.621-1.388-1.388-1.388h-2.775c-0.767,0-1.388,0.621-1.388,1.388v5.551
					c0,0.766,0.621,1.388,1.388,1.388h2.775c0.767,0,1.388-0.622,1.388-1.388V98.562z"/>
				<path style="fill:#FFFFFF;" d="M97,98.562c0-0.767-0.622-1.388-1.388-1.388h-2.775c-0.767,0-1.388,0.621-1.388,1.388v5.551
					c0,0.766,0.621,1.388,1.388,1.388h2.775c0.766,0,1.388-0.622,1.388-1.388V98.562z"/>
				<path style="fill:#FFFFFF;" d="M118.349,98.562c0-0.767-0.621-1.388-1.388-1.388h-2.775c-0.766,0-1.388,0.621-1.388,1.388v5.551
					c0,0.766,0.622,1.388,1.388,1.388h2.775c0.767,0,1.388-0.622,1.388-1.388V98.562z"/>
				<path style="fill:#FFFFFF;" d="M139.699,98.562c0-0.767-0.621-1.388-1.388-1.388h-2.775c-0.766,0-1.388,0.621-1.388,1.388v5.551
					c0,0.766,0.622,1.388,1.388,1.388h2.775c0.767,0,1.388-0.622,1.388-1.388V98.562z"/>
				<path style="fill:#FFFFFF;" d="M161.048,98.562c0-0.767-0.621-1.388-1.388-1.388h-2.775c-0.767,0-1.388,0.621-1.388,1.388v5.551
					c0,0.766,0.621,1.388,1.388,1.388h2.775c0.767,0,1.388-0.622,1.388-1.388V98.562z"/>
				<path style="fill:#FFFFFF;" d="M182.398,98.562c0-0.767-0.622-1.388-1.388-1.388h-2.775c-0.767,0-1.388,0.621-1.388,1.388v5.551
					c0,0.766,0.621,1.388,1.388,1.388h2.775c0.766,0,1.388-0.622,1.388-1.388V98.562z"/>
				<path style="fill:#FFFFFF;" d="M203.748,98.562c0-0.767-0.622-1.388-1.388-1.388h-2.775c-0.767,0-1.388,0.621-1.388,1.388v5.551
					c0,0.766,0.622,1.388,1.388,1.388h2.775c0.766,0,1.388-0.622,1.388-1.388V98.562z"/>
				<path style="fill:#FFFFFF;" d="M225.097,98.562c0-0.767-0.621-1.388-1.388-1.388h-2.775c-0.766,0-1.388,0.621-1.388,1.388v5.551
					c0,0.766,0.622,1.388,1.388,1.388h2.775c0.767,0,1.388-0.622,1.388-1.388V98.562z"/>
				<path style="fill:#FFFFFF;" d="M246.446,98.562c0-0.767-0.622-1.388-1.388-1.388h-2.775c-0.767,0-1.388,0.621-1.388,1.388v5.551
					c0,0.766,0.621,1.388,1.388,1.388h2.775c0.766,0,1.388-0.622,1.388-1.388V98.562z"/>
				<path style="fill:#FFFFFF;" d="M267.796,98.562c0-0.767-0.622-1.388-1.388-1.388h-2.775c-0.767,0-1.388,0.621-1.388,1.388v5.551
					c0,0.766,0.621,1.388,1.388,1.388h2.775c0.766,0,1.388-0.622,1.388-1.388V98.562z"/>
				<path style="fill:#FFFFFF;" d="M289.145,98.562c0-0.767-0.621-1.388-1.388-1.388h-2.775c-0.766,0-1.388,0.621-1.388,1.388v5.551
					c0,0.766,0.622,1.388,1.388,1.388h2.775c0.767,0,1.388-0.622,1.388-1.388V98.562z"/>
				<path style="fill:#FFFFFF;" d="M310.495,98.562c0-0.767-0.621-1.388-1.388-1.388h-2.775c-0.766,0-1.388,0.621-1.388,1.388v5.551
					c0,0.766,0.622,1.388,1.388,1.388h2.775c0.767,0,1.388-0.622,1.388-1.388V98.562z"/>
			</g>
			<g>
				<path style="fill:#FFFFFF;" d="M11.602,5.905c0-0.766-0.622-1.388-1.388-1.388H7.439c-0.767,0-1.388,0.622-1.388,1.388v5.551
					c0,0.766,0.621,1.388,1.388,1.388h2.775c0.766,0,1.388-0.622,1.388-1.388V5.905z"/>
				<path style="fill:#FFFFFF;" d="M32.952,5.905c0-0.766-0.622-1.388-1.388-1.388h-2.775c-0.767,0-1.388,0.622-1.388,1.388v5.551
					c0,0.766,0.622,1.388,1.388,1.388h2.775c0.766,0,1.388-0.622,1.388-1.388V5.905z"/>
				<path style="fill:#FFFFFF;" d="M54.301,5.905c0-0.766-0.621-1.388-1.388-1.388h-2.775c-0.766,0-1.388,0.622-1.388,1.388v5.551
					c0,0.766,0.622,1.388,1.388,1.388h2.775c0.767,0,1.388-0.622,1.388-1.388V5.905z"/>
				<path style="fill:#FFFFFF;" d="M75.65,5.905c0-0.766-0.621-1.388-1.388-1.388h-2.775c-0.767,0-1.388,0.622-1.388,1.388v5.551
					c0,0.766,0.621,1.388,1.388,1.388h2.775c0.767,0,1.388-0.622,1.388-1.388V5.905z"/>
				<path style="fill:#FFFFFF;" d="M97,5.905c0-0.766-0.622-1.388-1.388-1.388h-2.775c-0.767,0-1.388,0.622-1.388,1.388v5.551
					c0,0.766,0.621,1.388,1.388,1.388h2.775c0.766,0,1.388-0.622,1.388-1.388V5.905z"/>
				<path style="fill:#FFFFFF;" d="M118.349,5.905c0-0.766-0.621-1.388-1.388-1.388h-2.775c-0.766,0-1.388,0.622-1.388,1.388v5.551
					c0,0.766,0.622,1.388,1.388,1.388h2.775c0.767,0,1.388-0.622,1.388-1.388V5.905z"/>
				<path style="fill:#FFFFFF;" d="M139.699,5.905c0-0.766-0.621-1.388-1.388-1.388h-2.775c-0.766,0-1.388,0.622-1.388,1.388v5.551
					c0,0.766,0.622,1.388,1.388,1.388h2.775c0.767,0,1.388-0.622,1.388-1.388V5.905z"/>
				<path style="fill:#FFFFFF;" d="M161.048,5.905c0-0.766-0.621-1.388-1.388-1.388h-2.775c-0.767,0-1.388,0.622-1.388,1.388v5.551
					c0,0.766,0.621,1.388,1.388,1.388h2.775c0.767,0,1.388-0.622,1.388-1.388V5.905z"/>
				<path style="fill:#FFFFFF;" d="M182.398,5.905c0-0.766-0.622-1.388-1.388-1.388h-2.775c-0.767,0-1.388,0.622-1.388,1.388v5.551
					c0,0.766,0.621,1.388,1.388,1.388h2.775c0.766,0,1.388-0.622,1.388-1.388V5.905z"/>
				<path style="fill:#FFFFFF;" d="M203.748,5.905c0-0.766-0.622-1.388-1.388-1.388h-2.775c-0.767,0-1.388,0.622-1.388,1.388v5.551
					c0,0.766,0.622,1.388,1.388,1.388h2.775c0.766,0,1.388-0.622,1.388-1.388V5.905z"/>
				<path style="fill:#FFFFFF;" d="M225.097,5.905c0-0.766-0.621-1.388-1.388-1.388h-2.775c-0.766,0-1.388,0.622-1.388,1.388v5.551
					c0,0.766,0.622,1.388,1.388,1.388h2.775c0.767,0,1.388-0.622,1.388-1.388V5.905z"/>
				<path style="fill:#FFFFFF;" d="M246.446,5.905c0-0.766-0.622-1.388-1.388-1.388h-2.775c-0.767,0-1.388,0.622-1.388,1.388v5.551
					c0,0.766,0.621,1.388,1.388,1.388h2.775c0.766,0,1.388-0.622,1.388-1.388V5.905z"/>
				<path style="fill:#FFFFFF;" d="M267.796,5.905c0-0.766-0.622-1.388-1.388-1.388h-2.775c-0.767,0-1.388,0.622-1.388,1.388v5.551
					c0,0.766,0.621,1.388,1.388,1.388h2.775c0.766,0,1.388-0.622,1.388-1.388V5.905z"/>
				<path style="fill:#FFFFFF;" d="M289.145,5.905c0-0.766-0.621-1.388-1.388-1.388h-2.775c-0.766,0-1.388,0.622-1.388,1.388v5.551
					c0,0.766,0.622,1.388,1.388,1.388h2.775c0.767,0,1.388-0.622,1.388-1.388V5.905z"/>
				<path style="fill:#FFFFFF;" d="M310.495,5.905c0-0.766-0.621-1.388-1.388-1.388h-2.775c-0.766,0-1.388,0.622-1.388,1.388v5.551
					c0,0.766,0.622,1.388,1.388,1.388h2.775c0.767,0,1.388-0.622,1.388-1.388V5.905z"/>
			</g>
			<rect y="10.031" style="fill:none;" width="320.315" height="2.834"/> 
		</g>
	</svg>
