<?xml version="1.0" encoding="UTF-8" standalone="no"?>
<!-- Created with Inkscape (http://www.inkscape.org/) -->
<svg
   xmlns:dc="http://purl.org/dc/elements/1.1/"
   xmlns:cc="http://web.resource.org/cc/"
   xmlns:rdf="http://www.w3.org/1999/02/22-rdf-syntax-ns#"
   xmlns:svg="http://www.w3.org/2000/svg"
   xmlns="http://www.w3.org/2000/svg"
   xmlns:sodipodi="http://inkscape.sourceforge.net/DTD/sodipodi-0.dtd"
   xmlns:inkscape="http://www.inkscape.org/namespaces/inkscape"
   width="744.09448819"
   height="1052.3622047"
   id="svg2"
   sodipodi:version="0.32"
   sodipodi:docbase="/home/bcrowell/Documents/writing/lm/trunk/7je/ch02/figs"
   sodipodi:docname="law-of-periods-example.svg">
  <defs
     id="defs4">
    <marker
       inkscape:stockid="Arrow2Mend"
       orient="auto"
       refY="0.0"
       refX="0.0"
       id="Arrow2Mend"
       style="overflow:visible;">
      <path
         sodipodi:nodetypes="cccc"
         id="path2237"
         style="font-size:12.0;fill-rule:evenodd;stroke-width:0.62500000;stroke-linejoin:round;"
         d="M 8.7185878,4.0337352 L -2.2072895,0.016013256 L 8.7185884,-4.0017078 C 6.9730900,-1.6296469 6.9831476,1.6157441 8.7185878,4.0337352 z "
         transform="scale(0.6) rotate(180) translate(-5,0)" />
    </marker>
  </defs>
  <sodipodi:namedview
     id="base"
     pagecolor="#ffffff"
     bordercolor="#666666"
     borderopacity="1.0"
     inkscape:pageopacity="0.0"
     inkscape:pageshadow="2"
     inkscape:zoom="0.29154191"
     inkscape:cx="132.04949"
     inkscape:cy="695.24288"
     inkscape:document-units="px"
     inkscape:current-layer="layer1"
     inkscape:window-width="1275"
     inkscape:window-height="964"
     inkscape:window-x="0"
     inkscape:window-y="0" />
  <metadata
     id="metadata7">
    <rdf:RDF>
      <cc:Work
         rdf:about="">
        <dc:format>image/svg+xml</dc:format>
        <dc:type
           rdf:resource="http://purl.org/dc/dcmitype/StillImage" />
      </cc:Work>
    </rdf:RDF>
  </metadata>
  <g
     inkscape:label="Layer 1"
     inkscape:groupmode="layer"
     id="layer1">
    <rect
       style="fill:#000000;fill-opacity:1.0000000;stroke:none"
       id="rect1306"
       width="400.39371"
       height="159.87894"
       x="34.285713"
       y="243.91183" />
    <path
       style="fill:#7e7e7e;fill-opacity:1.0000000;stroke:none"
       d="M 34.281249,243.91042 L 34.281249,308.97292 L 37.031249,308.97292 L 37.031249,403.78542 L 416.62500,403.78542 C 416.93011,397.70142 417.09375,391.56978 417.09375,385.41042 C 417.09376,335.19696 406.81822,287.37670 388.28125,243.91042 L 53.812499,243.91042 L 37.031249,243.91042 L 34.281249,243.91042 z "
       id="rect2111" />
    <path
       style="fill:#c8c8c8;fill-opacity:1.0000000;stroke:none"
       d="M 53.036986,295.10353 C 46.614237,295.10353 40.331567,295.76453 34.286986,297.04103 L 34.286986,403.79103 L 141.47448,403.79103 C 142.69944,397.86388 143.34948,391.70434 143.34948,385.41603 C 143.34948,335.55492 102.89808,295.10355 53.036986,295.10353 z "
       id="rect2106" />
    <path
       sodipodi:type="arc"
       style="fill:#ffffff;fill-opacity:1.0000000;stroke:none"
       id="path2035"
       sodipodi:cx="95.763550"
       sodipodi:cy="434.03705"
       sodipodi:rx="4.3349752"
       sodipodi:ry="4.3349752"
       d="M 100.09853 434.03705 A 4.3349752 4.3349752 0 1 1  91.428575,434.03705 A 4.3349752 4.3349752 0 1 1  100.09853 434.03705 z"
       transform="matrix(0.204344,0.000000,0.000000,0.204344,32.71613,297.1677)" />
    <path
       style="fill:none;fill-opacity:0.75000000;fill-rule:evenodd;stroke:#000000;stroke-width:0.87500000;stroke-linecap:butt;stroke-linejoin:miter;stroke-miterlimit:4.0000000;stroke-dasharray:none;stroke-opacity:1.0000000;marker-end:url(#Arrow2Mend)"
       d="M 143.47103,386.11055 C 143.47103,358.04565 134.24453,345.11537 133.12304,343.30185 C 129.87933,338.05655 128.39945,335.72922 128.39945,335.72922"
       id="path1371"
       sodipodi:nodetypes="csc" />
    <path
       sodipodi:type="arc"
       style="fill:#ffffff;fill-opacity:1.0000000;stroke:none"
       id="path2037"
       sodipodi:cx="95.763550"
       sodipodi:cy="434.03705"
       sodipodi:rx="4.3349752"
       sodipodi:ry="4.3349752"
       d="M 100.09853 434.03705 A 4.3349752 4.3349752 0 1 1  91.428575,434.03705 A 4.3349752 4.3349752 0 1 1  100.09853 434.03705 z"
       transform="matrix(0.204344,0.000000,0.000000,0.204344,123.9427,297.2643)" />
    <path
       sodipodi:type="arc"
       style="fill:#ffffff;fill-opacity:1.0000000;stroke:none"
       id="path2039"
       sodipodi:cx="95.763550"
       sodipodi:cy="434.03705"
       sodipodi:rx="4.3349752"
       sodipodi:ry="4.3349752"
       d="M 100.09853 434.03705 A 4.3349752 4.3349752 0 1 1  91.428575,434.03705 A 4.3349752 4.3349752 0 1 1  100.09853 434.03705 z"
       transform="matrix(0.204344,0.000000,0.000000,0.204344,397.4680,294.7933)" />
    <path
       sodipodi:type="arc"
       style="fill:#ffffff;fill-opacity:1.0000000;stroke:none"
       id="path2051"
       sodipodi:cx="95.763550"
       sodipodi:cy="434.03705"
       sodipodi:rx="4.3349752"
       sodipodi:ry="4.3349752"
       d="M 100.09853 434.03705 A 4.3349752 4.3349752 0 1 1  91.428575,434.03705 A 4.3349752 4.3349752 0 1 1  100.09853 434.03705 z"
       transform="matrix(0.204344,0.000000,0.000000,0.204344,395.8436,261.5581)" />
    <path
       sodipodi:type="arc"
       style="fill:#ffffff;fill-opacity:1.0000000;stroke:none"
       id="path2047"
       sodipodi:cx="95.763550"
       sodipodi:cy="434.03705"
       sodipodi:rx="4.3349752"
       sodipodi:ry="4.3349752"
       d="M 100.09853 434.03705 A 4.3349752 4.3349752 0 1 1  91.428575,434.03705 A 4.3349752 4.3349752 0 1 1  100.09853 434.03705 z"
       transform="matrix(0.204344,0.000000,0.000000,0.204344,397.4680,261.3146)" />
    <path
       sodipodi:type="arc"
       style="fill:#ffffff;fill-opacity:1.0000000;stroke:none"
       id="path1340"
       sodipodi:cx="95.763550"
       sodipodi:cy="434.03705"
       sodipodi:rx="4.3349752"
       sodipodi:ry="4.3349752"
       d="M 100.09853 434.03705 A 4.3349752 4.3349752 0 1 1  91.428575,434.03705 A 4.3349752 4.3349752 0 1 1  100.09853 434.03705 z"
       transform="matrix(0.204344,0.000000,0.000000,0.204344,124.1704,228.2559)" />
    <path
       sodipodi:type="arc"
       style="fill:#ffffff;fill-opacity:1.0000000;stroke:none"
       id="path2049"
       sodipodi:cx="95.763550"
       sodipodi:cy="434.03705"
       sodipodi:rx="4.3349752"
       sodipodi:ry="4.3349752"
       d="M 100.09853 434.03705 A 4.3349752 4.3349752 0 1 1  91.428575,434.03705 A 4.3349752 4.3349752 0 1 1  100.09853 434.03705 z"
       transform="matrix(0.204344,0.000000,0.000000,0.204344,106.0104,242.9519)" />
    <g
       id="g2266"
       transform="translate(1.988461,0.000000)">
      <path
         sodipodi:nodetypes="csc"
         id="path2104"
         d="M 415.09511,383.49754 C 414.87149,368.19447 414.56683,367.56218 414.04528,358.86831 C 413.98850,357.92190 413.75061,355.08735 413.75061,355.08735"
         style="fill:none;fill-opacity:0.75000000;fill-rule:evenodd;stroke:#ffffff;stroke-width:0.87500000;stroke-linecap:butt;stroke-linejoin:miter;marker-end:none;stroke-miterlimit:4.0000000;stroke-dasharray:none;stroke-opacity:1.0000000" />
      <path
         id="path2264"
         d="M 413.42077,351.35943 L 411.80551,357.18089 C 411.80551,357.18089 412.72697,356.35699 413.75683,356.32447 C 414.78670,356.29195 415.95750,356.82314 415.95750,356.82314 L 413.42077,351.35943 z "
         style="fill:#ffffff;fill-opacity:1.0000000;fill-rule:evenodd;stroke:none;stroke-width:1.0000000px;stroke-linecap:butt;stroke-linejoin:miter;stroke-opacity:1.0000000" />
    </g>
    <text
       xml:space="preserve"
       style="font-size:12.000000px;font-style:normal;font-weight:normal;fill:#000000;fill-opacity:1.0000000;stroke:none;stroke-width:1.0000000px;stroke-linecap:butt;stroke-linejoin:miter;stroke-opacity:1.0000000;font-family:Liberation Sans"
       x="44.036751"
       y="397.69513"
       id="text1322"><tspan
         sodipodi:role="line"
         id="tspan1324"
         x="44.036751"
         y="397.69513">sun</tspan></text>
    <text
       xml:space="preserve"
       style="font-size:12.000000px;font-style:normal;font-weight:normal;fill:#000000;fill-opacity:1.0000000;stroke:none;stroke-width:1.0000000px;stroke-linecap:butt;stroke-linejoin:miter;stroke-opacity:1.0000000;font-family:Liberation Sans"
       x="147.0742"
       y="397.69513"
       id="text1326"><tspan
         sodipodi:role="line"
         id="tspan1328"
         x="147.07420"
         y="397.69513">Jupiter</tspan></text>
    <text
       xml:space="preserve"
       style="font-size:12.000000px;font-style:normal;font-weight:normal;fill:#ffffff;fill-opacity:1.0000000;stroke:none;stroke-width:1.0000000px;stroke-linecap:butt;stroke-linejoin:miter;stroke-opacity:1.0000000;font-family:Liberation Sans"
       x="370.25073"
       y="397.69513"
       id="text1330"><tspan
         sodipodi:role="line"
         id="tspan1332"
         x="370.25073"
         y="397.69513">Uranus</tspan></text>
    <text
       xml:space="preserve"
       style="font-size:12.000000px;font-style:normal;font-weight:normal;fill:#000000;fill-opacity:1.0000000;stroke:none;stroke-width:1.0000000px;stroke-linecap:butt;stroke-linejoin:miter;stroke-opacity:1.0000000;font-family:Liberation Sans"
       x="131.91597"
       y="389.4325"
       id="text1334"><tspan
         sodipodi:role="line"
         id="tspan1336"
         x="131.91597"
         y="389.43250">A</tspan></text>
    <text
       xml:space="preserve"
       style="font-size:12.000000px;font-style:normal;font-weight:normal;fill:#000000;fill-opacity:1.0000000;stroke:none;stroke-width:1.0000000px;stroke-linecap:butt;stroke-linejoin:miter;stroke-opacity:1.0000000;font-family:Liberation Sans"
       x="113.58613"
       y="339.85318"
       id="text1338"><tspan
         sodipodi:role="line"
         id="tspan1340"
         x="113.58613"
         y="339.85318">B</tspan></text>
    <text
       xml:space="preserve"
       style="font-size:12.000000px;font-style:normal;font-weight:normal;fill:#000000;fill-opacity:1.0000000;stroke:none;stroke-width:1.0000000px;stroke-linecap:butt;stroke-linejoin:miter;stroke-opacity:1.0000000;font-family:Liberation Sans"
       x="146.8484"
       y="316.47824"
       id="text1342"><tspan
         sodipodi:role="line"
         id="tspan1344"
         x="146.84840"
         y="316.47824">C</tspan></text>
    <text
       xml:space="preserve"
       style="font-size:12.000000px;font-style:normal;font-weight:normal;fill:#ffffff;fill-opacity:1.0000000;stroke:none;stroke-width:1.0000000px;stroke-linecap:butt;stroke-linejoin:miter;stroke-opacity:1.0000000;font-family:Liberation Sans"
       x="405.505"
       y="387.34454"
       id="text1346"><tspan
         sodipodi:role="line"
         id="tspan1348"
         x="405.50500"
         y="387.34454">D</tspan></text>
    <text
       xml:space="preserve"
       style="font-size:12.000000px;font-style:normal;font-weight:normal;fill:#ffffff;fill-opacity:1.0000000;stroke:none;stroke-width:1.0000000px;stroke-linecap:butt;stroke-linejoin:miter;stroke-opacity:1.0000000;font-family:Liberation Sans"
       x="403.24954"
       y="354.57791"
       id="text1350"><tspan
         sodipodi:role="line"
         id="tspan1352"
         x="403.24954"
         y="354.57791">E</tspan></text>
    <text
       xml:space="preserve"
       style="font-size:12.000000px;font-style:normal;font-weight:normal;fill:#ffffff;fill-opacity:1.0000000;stroke:none;stroke-width:1.0000000px;stroke-linecap:butt;stroke-linejoin:miter;stroke-opacity:1.0000000;font-family:Liberation Sans"
       x="421.04895"
       y="352.71585"
       id="text1354"><tspan
         sodipodi:role="line"
         id="tspan1356"
         x="421.04895"
         y="352.71585">F</tspan></text>
  </g>
</svg>
