<?xml version="1.0" encoding="iso-8859-1"?>
<!-- Generator: Adobe Illustrator 11 Build 196, SVG Export Plug-In . SVG Version: 6.0.0 Build 78)  -->
<!DOCTYPE svg PUBLIC "-//W3C//DTD SVG 1.0//EN"    "http://www.w3.org/TR/2001/REC-SVG-20010904/DTD/svg10.dtd" [
	<!ENTITY ns_flows "http://ns.adobe.com/Flows/1.0/">
	<!ENTITY ns_svg "http://www.w3.org/2000/svg">
	<!ENTITY ns_xlink "http://www.w3.org/1999/xlink">
]>
<svg
	 width="256.193" height="285.91" viewBox="0 0 256.193 285.91" style="overflow:visible;enable-background:new 0 0 256.193 285.91"
	 xml:space="preserve">
	<metadata>
<?xpacket begin='﻿' id='W5M0MpCehiHzreSzNTczkc9d'?><x:xmpmeta xmlns:x='adobe:ns:meta/' x:xmptk='XMP toolkit 3.0-29, framework 1.6'>
<rdf:RDF xmlns:rdf='http://www.w3.org/1999/02/22-rdf-syntax-ns#' xmlns:iX='http://ns.adobe.com/iX/1.0/'>

 <rdf:Description rdf:about=''
  xmlns:pdf='http://ns.adobe.com/pdf/1.3/'>
 </rdf:Description>

 <rdf:Description rdf:about=''
  xmlns:tiff='http://ns.adobe.com/tiff/1.0/'>
 </rdf:Description>

 <rdf:Description rdf:about=''
  xmlns:xap='http://ns.adobe.com/xap/1.0/'
  xmlns:xapGImg='http://ns.adobe.com/xap/1.0/g/img/'>
  <xap:CreateDate>2006-10-15T19:41:12Z</xap:CreateDate>
  <xap:ModifyDate>2006-10-15T19:41:12Z</xap:ModifyDate>
  <xap:CreatorTool>Illustrator</xap:CreatorTool>
  <xap:Thumbnails>
   <rdf:Alt>
    <rdf:li rdf:parseType='Resource'>
     <xapGImg:format>JPEG</xapGImg:format>
     <xapGImg:width>232</xapGImg:width>
     <xapGImg:height>256</xapGImg:height>
     <xapGImg:image>/9j/4AAQSkZJRgABAgEASABIAAD/7QAsUGhvdG9zaG9wIDMuMAA4QklNA+0AAAAAABAASAAAAAEA&#xA;AQBIAAAAAQAB/+4ADkFkb2JlAGTAAAAAAf/bAIQABgQEBAUEBgUFBgkGBQYJCwgGBggLDAoKCwoK&#xA;DBAMDAwMDAwQDA4PEA8ODBMTFBQTExwbGxscHx8fHx8fHx8fHwEHBwcNDA0YEBAYGhURFRofHx8f&#xA;Hx8fHx8fHx8fHx8fHx8fHx8fHx8fHx8fHx8fHx8fHx8fHx8fHx8fHx8fHx8f/8AAEQgBAADoAwER&#xA;AAIRAQMRAf/EAaIAAAAHAQEBAQEAAAAAAAAAAAQFAwIGAQAHCAkKCwEAAgIDAQEBAQEAAAAAAAAA&#xA;AQACAwQFBgcICQoLEAACAQMDAgQCBgcDBAIGAnMBAgMRBAAFIRIxQVEGE2EicYEUMpGhBxWxQiPB&#xA;UtHhMxZi8CRygvElQzRTkqKyY3PCNUQnk6OzNhdUZHTD0uIIJoMJChgZhJRFRqS0VtNVKBry4/PE&#xA;1OT0ZXWFlaW1xdXl9WZ2hpamtsbW5vY3R1dnd4eXp7fH1+f3OEhYaHiImKi4yNjo+Ck5SVlpeYmZ&#xA;qbnJ2en5KjpKWmp6ipqqusra6voRAAICAQIDBQUEBQYECAMDbQEAAhEDBCESMUEFURNhIgZxgZEy&#xA;obHwFMHR4SNCFVJicvEzJDRDghaSUyWiY7LCB3PSNeJEgxdUkwgJChgZJjZFGidkdFU38qOzwygp&#xA;0+PzhJSktMTU5PRldYWVpbXF1eX1RlZmdoaWprbG1ub2R1dnd4eXp7fH1+f3OEhYaHiImKi4yNjo&#xA;+DlJWWl5iZmpucnZ6fkqOkpaanqKmqq6ytrq+v/aAAwDAQACEQMRAD8A82eT9Dj1/wA26JoUkpgj&#xA;1a/tbF51AZkW5mWIuAaVK864qzv/AJyF/KfRPy2812Ol6Nd3N1ZXtkt1/phjaVH9R4yOUaRKR8FR&#xA;8OKsY/KvyfZ+cvzB0Xy1ezyW1pqMzJPNDx9QIkbSME5AqCQlASDTrQ9MVTP88fy70v8AL/8AMC58&#xA;vaXcz3VikEM8L3XAygSrUqzIqK1COoUYq78jvy70v8wPzAtvL2qXM9rYvBNPM9rwEpES1Cqzq6rU&#xA;nqVOKpZ+ank+z8m/mDrXlqynkubTTplSCabj6hR41kUPxAUkB6EgCvWg6Yqyf/nHr8p9E/MnzXfa&#xA;XrN3c2tlZWTXX+hmNZXf1EjA5SJKoHx1Pw4qwTzhocegebdb0KOUzx6Tf3Vik7AKzrbTNEHIFaFu&#xA;FcVem/8AOOn5JaB+Zz+YTrF9d2aaRHbC3Fn6YLSXXrUZzIklVT0PsgCteopiryC7g+r3U1vy5ejI&#xA;0fKlK8SRWmKvZfyY/IvQPPf5f+ZvMeo6hd2t5pRljsIrf0/S5xW/rcpg6szglgOKlenXfZV4pir2&#xA;r8vPyL0DzN+SnmXz3d6hdw6ppCXslnbxen9XIsbcTkShlZ29Tdaqy098VeK4q9qtPyL0Cb/nHV/z&#xA;NbULsa0PUlW0Hp/VRHHem04FePqFiF5cuftxxV4rir2vzh+RegaH+ROifmDb6hdy6vfi1kuraT0/&#xA;q3C7BIWNQodSm3xFzXwFdlXimKva/wA5/wAi9A8ifl/5Z8x6dqF3dXmqmKO/iuPT9LnLb+tyhCKr&#xA;IAVI4sW69dt1XjVpB9Yuobflx9aRY+VK05ECtMVev/8AORf5JaB+WL+Xjo99d3iavHci4F56ZKyW&#xA;vo1ZDGkdFf1/skGlOpriryzy1pUer+Y9K0mSQxR6heW9q8qgFlWeVYywB7jlir0P/nIb8qNB/Lbz&#xA;Vp+l6JdXV1aXtkLpjetG8iv6rxkBokiWlEH7OKsP/Lbytbea/PeieXbqZ7e21O6SGeaIAuqGpbjy&#xA;2qQKAnp4HFWQ/nz+Wmk/l357/QOk3VxdWMlpDdxPd8DKpkLKys0axq28dQeI6098VQX5LeQtO8+f&#xA;mJp3lrUria1sblZpJ5bfj6vGGJpOKFw6qSV6lT8sVUPzg8kWPkf8x9Z8r2FxLdWWntCYJp+PqlJ7&#xA;eOcB+AVSV9XjUAVpWgxVO/8AnH78rtG/MjzvcaJrF1cWlja2Et87WhRZXZJYolQNIsiqKzcj8J6U&#xA;71xVmP5GeXIPLX/OUMnl+CZriDS5tTtYpnADskUMiqWA2rTrTFXnP5bflX+YfnR59Q8nwB5tIlhZ&#xA;5xcR27xStV4mQuyGoMdQR0xVnWv/APOOn/ORvmK+F/rsJ1O8CCNbi61GCVwi1IUFpDQCp2xVDaZ/&#xA;zjH+f2lX8Go6bYrZ39swkt7qC/t45EYd1ZZARiqrrf8Azjb/AM5D67qMmpaza/pG/lCiS6udQglk&#xA;IQcVBZpCaADbFXaJ/wA42/8AOQ+hajHqWjWv6Ov4gwjurbUIIpAHHFgGWQGhB3xV5t+Yug+cND83&#xA;X1l5wd5PMJ4TXsskwuHYyoHVmlBYH4SO+Ks9/Lv8mPz7/R9r5p8lh7GHU4P3N3b30VvI8LNXiw5q&#xA;1OS1ocVXXX/OLP57XdzLdXWmxz3Nw7SzzyX1uzu7nkzMxkqSxNSTiqZ+Xv8AnH//AJyX8ttcNoAk&#xA;0prtQlybTUoYfUVa8eXCQV48jTwxVKD/AM4o/ncxJOkQEnck3ttUn/g8VTfR/wDnH7/nJbRbK8sd&#xA;IElhZaivC+t7fUoY45l4laOqyAH4WIxV4dZ2k95eQWduOU9zIkMSkgAu7BVFT7nFXuNl/wA4/f8A&#xA;OS1jol1oVkJLbRr0lrvTotShSCUsAG5xiTieQUA+OKpR/wBCn/nb/wBWiD/pMtv+a8VThfyB/wCc&#xA;mE8ut5aX1B5fZuTaUNSh+rEl/U/u/U4/b+L574qk/wD0Kf8Anb/1aIP+ky2/5rxV3nn8rfz98veQ&#xA;HPmeab/B+jmJhZm/jmhiLyiGLjCsjdHmoKDauKsA8j+Q/MvnfWm0by7brc6gsL3BjeRIh6aFVY8p&#xA;Co6uMVer6x+QP/OTGtafZ6dq/qX9hp4C2VrcalDJHEAoQcFaQgUUUHtiqTj/AJxQ/O4Go0iAEdD9&#xA;ctv+a8VTbX/+cff+clfMX1b9PLJqn1NDHa/W9Shm9NWpUJzkNK8RXxpiqWQ/84rfnnBNHPBpcUU0&#xA;TB4pUvrdWVlNVZWElQQehxVjv5weVPzW0TUrC4/MWeW5v7yJ1spp7pbtvShYclBVn4gNJWnvirvy&#xA;y/Kf8z/NcZ8weSoaNplyI1vEuo7aWKdVWQFCzI2wYbjFWXa3/wA43f8AORGu6g+pa1bfpG/kCq91&#xA;c6hBLIQooo5NITQDpiq3Rv8AnGr/AJyE0TUYtS0i0FhqEFfRure/t45F5Aq1GWQHdSQcVW6t/wA4&#xA;zf8AOQOsajPqWq2S32oXJDT3Vxf28kjkAKOTNISaAAD2xVX0D/nHT/nI3y9f/pDQoDpl6UMRuLXU&#xA;IInKMQSpKyCoJA2xVE/kLovmPRf+cl4dO8ylm16Jb1tRd5ROzSy2jSlmlBbkW51JrirOv+cHf+OV&#xA;5u/4z2X/ABCbFXuv5b+aLfzF5ee4TV7XWri1vL21nvLNoihWG6lSBisTOq84AjjfcGvQ4qyrFXYq&#xA;7FXwX/zlh/5O3V/+MFn/ANQyYq+tPyB/8k35T/5gV/4k2KvQMVdirsVdir8wfKf/AClWjf8AMdbf&#xA;8nlxV+n2KuxV2KuxV5V/zlH/AOSJ8zf9GP8A3ULfFXzr/wA4bf8Ak3Jv+2Vc/wDJ2HFX2/irsVdi&#xA;rsVfJf8AznF/x1fKP/GC9/4nDirKv+cJv+UA13/tqn/qGixV9FYq7FXYq7FXyroH/rbWo/8APb/u&#xA;mLiqL/5wd/45Xm7/AIz2X/EJsVfT+KuxV2KuxV8F/wDOWH/k7dX/AOMFn/1DJir60/IH/wAk35T/&#xA;AOYFf+JNir0DFXYq7FXYq/MHyn/ylWjf8x1t/wAnlxV+n2KuxV2KuxV5V/zlH/5InzN/0Y/91C3x&#xA;V86/84bf+Tcm/wC2Vc/8nYcVfb+KoDXdas9F0m41S8Dm3tgCyxgM5LMEVVBIFSzAbnFUN5W806d5&#xA;l01r+wSWOOOVoZIpwqurqqtQ8GdfsuDscVTjFXyX/wA5xf8AHV8o/wDGC9/4nDirKv8AnCb/AJQD&#xA;Xf8Atqn/AKhosVfRWKsN/MfyPe+aoLFba5ji+qPIXhm5em/qBaP8Ib4k4bbftHFWU6ZaPZabaWby&#xA;md7aGOFp22ZzGoUudzu1K9cVROKvlXQP/W2tR/57f90xcVRf/ODv/HK83f8AGey/4hNir6fxViX5&#xA;jebNW8t6Zb3OnW0crTS+nJNOrPFGKVAKo0Zq3Y1ptiqfaDf3WoaNZXt1bm1ubiFZJYDX4WYV77jx&#xA;338cVR+Kvgv/AJyw/wDJ26v/AMYLP/qGTFX1p+QP/km/Kf8AzAr/AMSbFXoGKsD8xeefMened7PR&#xA;LXT45bGdoVLMshllEjAO8bhlRQld6qem5A6Ks8xV2KvzB8p/8pVo3/Mdbf8AJ5cVfp9irsVYF5H8&#xA;7eZNb8y6jp2o2KW9tbI7/Cjq8MiuiLDIxJBLKS3QdD22CrPcVeVf85R/+SJ8zf8ARj/3ULfFXzr/&#xA;AM4bf+Tcm/7ZVz/ydhxV9v4qhtRtbC7sZ7fUESSykQ+usn2OI3qT2pSte3XFVDQtO0Ww05IdGjiS&#xA;xLM6mFuasxNGJerFjtTc9qYqmGKvkv8A5zi/46vlH/jBe/8AE4cVZV/zhN/ygGu/9tU/9Q0WKvor&#xA;FXYq7FXYq+VdA/8AW2tR/wCe3/dMXFUX/wA4O/8AHK83f8Z7L/iE2Kvp/FXYq7FXYq+C/wDnLD/y&#xA;dur/APGCz/6hkxV9afkD/wCSb8p/8wK/8SbFXoGKpJf+a7Ky1QWLxOwBVZ5hTijSUK7HcijVbw99&#xA;6Kp3irsVfmD5T/5SrRv+Y62/5PLir9PsVdirG/Lvla50vUpbqW4WSP0mhj415Sc3V+clejDj4mtT&#xA;0xVkmKvKv+co/wDyRPmb/ox/7qFvir51/wCcNv8Aybk3/bKuf+TsOKvt/FUFrOm/pLTZbP1PRMnE&#xA;rJTlQo4cVFRUVXffFVDy9oraTZyQPP8AWJJZTK7heC1KqlFUs9NkHfFU0xV8l/8AOcX/AB1fKP8A&#xA;xgvf+Jw4qyr/AJwm/wCUA13/ALap/wCoaLFX0VirH/Nfl2fWVtTE0Z+rl+UM1eB58aPsH+JeNBt3&#xA;OKpzY2zWtlb2zSGVoIkjaU7FiiheR3PWlcVV8VfKugf+ttaj/wA9v+6YuKov/nB3/jlebv8AjPZf&#xA;8QmxV9P4qkXmu71q2t4DpqyUZiJpIYvWkXb4QE4ybHep44qmWlSXsmnW8l6nC6ZAZVpQ19x2JHUd&#xA;sVReKvgv/nLD/wAnbq//ABgs/wDqGTFX1p+QP/km/Kf/ADAr/wASbFXoGKoOfR9NuLyO9mgV7mKh&#xA;SSpG6mqkgGjcT0qNsVRmKuxV+YPlP/lKtG/5jrb/AJPLir9PsVdirsVdiryr/nKP/wAkT5m/6Mf+&#xA;6hb4q+df+cNv/JuTf9sq5/5Ow4q+38VdirsVdir5L/5zi/46vlH/AIwXv/E4cVZV/wA4Tf8AKAa7&#xA;/wBtU/8AUNFir6KxV2KuxV2KvlXQP/W2tR/57f8AdMXFUX/zg7/xyvN3/Gey/wCITYq+n8VdirsV&#xA;dir4L/5yw/8AJ26v/wAYLP8A6hkxV9afkD/5Jvyn/wAwK/8AEmxV6BirsVdirsVfmD5T/wCUq0b/&#xA;AJjrb/k8uKv0+xV2KuxV2KvKv+co/wDyRPmb/ox/7qFvir51/wCcNv8Aybk3/bKuf+TsOKvt/FXY&#xA;q7FXYq+S/wDnOL/jq+Uf+MF7/wAThxVlX/OE3/KAa7/21T/1DRYq+isVdirsVdir5V0D/wBba1H/&#xA;AJ7f90xcVeHflf8AmF+ZnlzUV0TyNqP1O61+5t7f0TDayiWdm9KEcrmOQJ8UlOoHjir0T8wfzb/5&#xA;yf8AIOsRaT5j1+OG5nhFzA0VrpsqPGWK1DLb9mUihxVLPKv5+f8AORvmjzBZaBo/mJZdS1CT07dH&#xA;s9NRahSzFma3oAFUnFUT52/O3/nJbyX5gm0DX/MCw6hCqSER2mmyIySLyVlZbfcHFW/I/wCdf/OS&#xA;3nbzBFoOg+YUl1CVHlAltNNjQJGvJiWa3xV5v+adz54n89amvniUTeZrdkgvpFWFVPpooj4iBUjp&#xA;6fEggfPfFXoP5Peff+cideEPlDyLrEcdtpVqXSGWCwCRQKwXeSaF3b4nA6k4qgtX/wCcjv8AnIPS&#xA;NWvdJv8AzH6V9p9xLaXcQstOYLLA5jkXktuQaMp3GKsm/Lr8y/8AnKr8wpb9PLWuxz/oxI3u3mtt&#xA;MiUGYsI1Ba33ZvTanbbfFWIy/wDOT/58xSvFJ5l4yRsVdfqOnbEGhH+8+Ksw8mfmN/zlb5x0HVdc&#xA;0PXI5dO0gN9akkttMjLMkZlZI1aD4iE3+nFXz7aXU9pdQ3du3C4t5FlhegPF0IZTQgg0I74q+gtA&#xA;/Mb/AJyt17yRqfnTTdcjl0PSfVN25ttMWSlugkmZYzBUhEbkfwrirDP+ho/z2/6mb/px0/8A7J8V&#xA;ZnH+Y3/OVsn5dH8wk1yNvLQLAzC20z1eKzG3L+l6HLiJRx8e9Kb4qwz/AKGj/Pb/AKmb/px0/wD7&#xA;J8VT/wDMHW/+ckNT/KaPWvNepxXXkvXPq5aJYrBJWVpBNAzCGJJFBeJT8LfPvirynyb5480eTNXb&#xA;V/LV79Q1FomtzP6UM37tyCy8ZkkTcoN6VxV7V5w/Mb/nK3yh5d0rzBrmuRwadrHEWpS20x3BeP1U&#xA;WRFgqpKVP68VYdH/AM5P/nzJIsaeZeTuQqqLHT6kk0A/3nxVl/5h/mV/zlV+X36N/wATa7Hb/pVJ&#xA;HtfSttMl3h4eorcINivqr7b7HFWLad/zkp/zkBqOoW2n2fmP1Lu8lS3t4/qWnLyklYIi1a3AFWPf&#xA;FUH+fb/nDFrem2H5m3kd5ew27Tac8K2yoIpn4vvbRxb8ov2hiqD/ACl/MD82tKvoPKfkLUxaS61d&#xA;qVt2htJFadlCcjJcxyFQFTffFWY+e/zn/wCcmfI+vtoXmDzAkN8saTr6dppsiNHJXiystv4gj6MV&#xA;UvJf54/85J+cvMVt5f0LzCkuo3Qdo1ktNNjQLEhkcszW/ZVxVS82/nz/AM5IeU/MV75e1vzCINTs&#xA;GVZ41s9NdfjRZEZWW3oQyOrD54qj/wAv/wA3/wDnJzz7rkmi+XfMMc17Fbvdy+ta6bEixIyoWLNb&#xA;/wA0iig8cVVvyRufNdx/zlFz82yibzJGb6HU5AIlBlgtXiNBCFjpRB9kYq8T8tateaD5j0rXYIPW&#xA;n0m8t76KJwwR3tpVlVWpvQlKGmKsr/OP81dU/M3zDa6vdaYmmrZ2wtIbeJml2DtIWZ2C1JL/AMox&#xA;VIvIPmrUPJvnDS/M1pardT6bKZBby8grqyNG61XcVVzQ9j44qjvzU/MDUvzC84XHmS7sFsWljihj&#xA;tYizhUiWgq7AciTU9Birvyr/ADA1L8vfOFv5ktLBb5oo5YZLWUsgZJVoaOoPEg0PQ4qgPP3mvUPO&#xA;XnDVPM13araz6nKJDbxciqKqBEWrbmioKnufDFU+/Jz81dU/LLzDdava6YmpLeWxtJreVmi2LrIG&#xA;V1DUIKfynFWJ+Y9Vvte8w6prl1CI7nVbue9njjDBFe4kaVgtamgLbVOKs6/Jb86tY/K6XWDaaTHq&#xA;cerpAJEld4ij2xk9Ngyhqj983IU8Nx3VecXBuJ7iWd4yHldnYAGlWNTTFXpf5Y/nhrXkLyjrvlu2&#xA;0iK+h1nm6XEjOjQySQ+ixIUHmtApp8Pz32VeYelL/I33HFXp/k/88Na8sflbrfkG30iK4h1kXSHU&#xA;HZw0SXkKwSj0wKMQoPE8hQ+OKvMPRl/kb7jir063/O/XIfyYf8rxpMJtGLqup8n9QRPcm7ZfTpx5&#xA;eoSOVfs9q74q8x9GX+RvuOKvTvMn54a5rn5T6V+Xcukww2+m+gragrOXkjtgRGPTIop6cjU18Bir&#xA;zH0Zf5G+44q9O/Mz88Nc8+eT9B8tXekw2cWjcGe5iZ2aaSOH0VIVh8A4kkirfPFXmtubiCeOdEPO&#xA;Jldag0qpqK4q9I/Of86tX/NH9C/XdIj039DpOB6LvJ6j3Ppc2+IDiB6A4jf5nFWAaJf3ekazYarB&#xA;D6k2n3MN1FG4bizQyCRQ1KGhK74qzL85PzW1L8zfMFpq9zpa6YLO1FpHBG7S1AkaQszlU7v4Yqxz&#xA;yR5kvfKfm3SvMdvai5l0u4WdbeTkquBsVLDcVB64qm/5tfmPqX5jebT5hu9PXTyLeO1itoi0nFIu&#xA;RqzsF5Es57DFUL+WXnnUfIXnOy8z2lkt7JaCRGtZSyK6TRtGw5KCVNG2NDiql+Y/nHUPPHnTU/NN&#xA;3ZraTai0Z+rRcmVFhiSBBybcnhGKnuewxVNPyf8AzO1P8tPNUuvWmmpqP1i0kspraVmjqkjxyVV1&#xA;DUIeFex2r88VZ7/zj5rt95k/5ySTzDdwCCfU21G7mijDcEMsEjcQWqaCtN8VfZP+J/LX/V2s/wDp&#xA;Ii/5qxV3+J/LX/V2s/8ApIi/5qxV3+J/LX/V2s/+kiL/AJqxV3+J/LX/AFdrP/pIi/5qxV3+J/LX&#xA;/V2s/wDpIi/5qxV3+J/LX/V2sv8ApIi/5qxV3+J/LX/V2s/+kiL/AJqxV3+J/LX/AFdrP/pIi/5q&#xA;xV3+J/LX/V2s/wDpIi/5qxV3+J/LX/V2s/8ApIi/5qxV3+J/LX/V2s/+kiL/AJqxV3+J/LX/AFdr&#xA;L/pIi/5qxV3+J/LX/V2s/wDpIi/5qxV3+J/LX/V2s/8ApIi/5qxV3+J/LX/V2s/+kiL/AJqxV3+J&#xA;/LX/AFdrP/pIi/5qxV3+J/LX/V2s/wDpIi/5qxV3+J/LX/V2sv8ApIi/5qxV3+J/LX/V2s/+kiL/&#xA;AJqxV3+J/LX/AFdrP/pIi/5qxV3+J/LX/V2s/wDpIi/5qxV3+J/LX/V2s/8ApIi/5qxV3+J/LX/V&#xA;2sv+kiL/AJqxV3+J/LX/AFdrP/pIi/5qxV3+J/LX/V2s/wDpIi/5qxV3+J/LX/V2s/8ApIi/5qxV&#xA;3+J/LX/V2s/+kiL/AJqxV3+J/LX/AFdrP/pIi/5qxVWtdb0a7mENpf21xMQSI4pkdqDqaKScVfmj&#xA;5M0SDXvOGhaFPI0MGrahaWMsqU5olzOkTMtdqgPUVxVnX/OQv5T6J+W3mux0vRru5urK9sluv9MM&#xA;bSo/qPGRyjSJSPgqPhxVjP5UeT7Hzj+Yei+Wr+aW3stRmZJ5YOIlCJE8h4FwygnhSpB+WKpl+eP5&#xA;d6X+X/5gXPl7S7me6sUghnhe64GUCValWZFRWoR1CjFV35Gfl5pP5gfmBb+XtWuLi2sXt555XtCi&#xA;ykxLVQrSLIo3O/wnFUr/ADX8n2Pk78w9a8tWE0txZadMqQSz8TKUeJJBzKBVJHOlQB8sVZR/zjz+&#xA;VGg/mT5q1DS9burq1tLKyN0psmjSRn9VIwC0qSrSjn9nFWB+c9Eg0HzhruhQSNNBpOoXdjFK9Obp&#xA;bTvErNTapCVNMVem/wDOOX5J+XvzOl8wHW767tItIS1EC2RiVme6M3xO0qSjiog+yBvXqKbqvH7y&#xA;AW93PADyEMjRhuleLEVxV7N+Sv5F+XfPfkHzN5j1S/vLa60oyx2MNsYhHzit/W5S80dnBLAcVK9O&#xA;u+yrxPFXtn5e/kZ5d8z/AJJeZPPd1f3kGr6Qt9JaQRGL6sVsbdZ+Mishcl9xUOKeB7qvE8Ve2W35&#xA;GeXZ/wDnHQ/mZ9fvF1sCST6rWI2vCO+a048eHqVKry5c/oxV4nir23zj+RnlvQ/yH0X8wLa+vJNZ&#xA;v1tJLm3kMRtuN0CSqKsayKV23Ln5b7KvEsVe2/nT+RnlvyJ+X3lrzHpl9eXN7qzRR3sdyYjFyltj&#xA;NyiCRoygMpFGZtu/iq8YtIPrF1Db8uPrSLHypWnIgVpir2D/AJyL/JPy7+WP+HP0Ne3l5+lkuhdf&#xA;XDEaPa+j8UfppHQN652NaU64q8r8taVHq/mPStJkkMUeoXlvavKoBZVnlWMsAe45Yq9D/wCchvyo&#xA;0H8tvNWn6Xol1dXVpe2QumN60byK/qvGQGiSJaUQfs4qxD8tPK1n5r8+6H5dvZZILTUrpYZ5YePq&#xA;BCCW4Fgyg0GxIPyxVkH58/lppP5d+e/0DpN1cXVjJaQ3cT3fAyqZCysrNGsatvHUHiOtPfFUH+Sn&#xA;kLS/Pf5iaf5b1See2sblJ5JpLUoJaQwtIApdZFFSvdTiqh+cXknTvJH5kax5X02ea4sdPMHoTXBU&#xA;ylZ7aOejlFRSQZaVCjFU7/5x8/K7RPzI87XWiazc3NrZW2ny33OzaNZWdJoYgvKRJVA/fVPw9sVZ&#xA;j+R/l228tf8AOUkugWsrzW2lzanawSy05skUMiqW4gCtOtBirz38r/yl8/eeHudQ8pekk2jyws07&#xA;z/V5I5Wq8TRt1qDHWo6Yq9A1/wD5xo/5yF8xXwv9duIdTvAgjW4ur/1XCLUhQWBoBU7YqhdO/wCc&#xA;VPzz02+gv9P+q2l7bOJLe5hvQkiOvRlZQCDiqrrP/OL35+a3qMupaxJb6hqE1PVurm+EkjcQFWrM&#xA;CdgKDFXaN/zi9+fmiajFqWjyW+n6hDX0rq2vhHIvIFWoygHcGhxV5b+ZHlvzX5d84X2nebJvrGvk&#xA;pPezmUzl2nQSBmkO7EhsVeh/lz+Rf55SadZebfJ10mnJqMBMFzDe/V5Whc7qwXehK9DiqrP/AM4l&#xA;fnXcTyTzxWcs8rF5ZXvAzu7GrMzEVJJ3JOKploH/ADjd/wA5F+XnuH0K8j0truP0rk2moGEyJ2Dc&#xA;KVp2xVKj/wA4h/nKTU29iSep+tr/AExVNtH/AOccf+cjdFsryx0i9SwstRXhfW9vqJjjmXiVo6rQ&#xA;H4WIxV4LY2c17e29nAAZ7mRIYgTQc5GCrU/M4q95sf8AnG//AJyLsNGu9EsbyO20e/Nb2wi1ApBK&#xA;SADzQfCagAHxGKpT/wBCh/nJ/wAs1j/0lr/TFU2X/nG//nItfL7eXFvIxoLv6raWNQP1cvXlX0/s&#xA;/aHL574qlP8A0KH+cn/LNY/9Ja/0xVT8+/k9+eXlr8vnk8x3/qeUtFaN108XxmiiaWUQoY4en25v&#xA;oqcVefeQPy+8x+e9dbRPL6RPfLA9yVmkES+nGVVviPerjFXrerf843/85F6vYWWn6reR31jpy8LC&#xA;2uNQMkcK0C0jVqhfhUD5YqlQ/wCcQ/zlBqLexBHQ/W1/piqa6/8A843f85F+YXt3128j1RrSP0rY&#xA;3eoGYxp3C860r3xVLIf+cSfzqgmjngis4pomDxSpeKrKymqsrAVBB6HFWMfnP5O/NLy/qenT/mFf&#xA;NqF9fQutnM9ybphFAw5LU/ZHKWtMVd+Vv5O/mR5yt31/ye0ULaZdCNbk3H1eWOdFWRWQjfbkNxir&#xA;M9b/AOcYfz/13UH1LWpoNRv5AqvdXN96shCiijkwJoB0xVZpP/OLX586PqMOpaU9tY39uS0F1b3w&#xA;jkQkEHiygHcGhxVbqn/OK/57arqE+o6mba9v7ludxdT3okkdulWZgScVV9C/5xk/5yC8v6gNR0Oe&#xA;DTb5VZBc2t/6T8G+0tVA2Phirf5D6Br+gf8AOTMWk+YX9XW7dbxr+X1DMXkltGlLGQ7sTzqTirOf&#xA;+cHf+OV5u/4z2X/EJsVey/lT5zPmqz1a5i1e31nT7a89CwvIxFHO0axrzaaGJm9NWl5+lzCuUoSO&#xA;hKrOsVdirsVfBf8Azlh/5O3V/wDjBZ/9QyYq+tPyB/8AJN+U/wDmBX/iTYq9AxV2KuxV2KvzB8p/&#xA;8pVo3/Mdbf8AJ5cVfp9irsVdirsVeVf85R/+SJ8zf9GP/dQt8VfOv/OG3/k3Jv8AtlXP/J2HFX2/&#xA;irsVdirsVfJf/OcX/HV8o/8AGC9/4nDirKv+cJv+UA13/tqn/qGixV9FYq7FXYq7FXyroH/rbWo/&#xA;89v+6YuKov8A5wd/45Xm7/jPZf8AEJsVfT+KsT/MTylqfmXTbe2sLpIWhlLyQzFlikBFAWKhzVe2&#xA;3fFU80DTrjTdFsrC5nNzPbRLHJOa/EVHau9B0FcVTDFXwX/zlh/5O3V/+MFn/wBQyYq+tPyB/wDJ&#xA;N+U/+YFf+JNir0DFWO6l588vabr0OiXUjrdylFLhaxI0v2A7V2rUdqDvirIsVdir8wfKf/KVaN/z&#xA;HW3/ACeXFX6fYq7FXYq7FXlX/OUf/kifM3/Rj/3ULfFXzr/zht/5Nyb/ALZVz/ydhxV9v4q7FXYq&#xA;7FXyX/znF/x1fKP/ABgvf+Jw4qyr/nCb/lANd/7ap/6hosVfRWKuxV2KuxV8q6B/621qP/Pb/umL&#xA;iqL/AOcHf+OV5u/4z2X/ABCbFX0/iqlc3drax+rczJBFWnOVgi1ParEDFVRWVlDKQVIqCNwQcVbx&#xA;V8F/85Yf+Tt1f/jBZ/8AUMmKvrT8gf8AyTflP/mBX/iTYq9AxVj+peWvJ915httRv4ojrKlWtw0r&#xA;IzmM/A3pBgrlabEqfwGKsgxV2KvzB8p/8pVo3/Mdbf8AJ5cVfp9irsVYD5F84+aNY8z6np+qWqw2&#xA;1qjMyqhUwSiRVSJmqa81LHfrxqNsVZ9iryr/AJyj/wDJE+Zv+jH/ALqFvir51/5w2/8AJuTf9sq5&#xA;/wCTsOKvt/FUp81ajqOm+X72+06D6zeQIGiiILDdgGYqtCQiktT2xVLvy817Wdc0A3mqwiKZZmii&#xA;kVSgljVVIkof8ospptUYqyfFXyX/AM5xf8dXyj/xgvf+Jw4qyr/nCb/lANd/7ap/6hosVfRWKsN/&#xA;MfzZr3l2CxfSrWOZbh3E88yPIicOJRKIyfE9TTf9k4qynTLi4udNtLi5hNvcTQxyTW5rWN3UFkNd&#xA;/hJpiqJxV8q6B/621qP/AD2/7pi4qi/+cHf+OV5u/wCM9l/xCbFX0/iqT+YtAbV44RHcfV5YCxUs&#xA;nqIQwANVDR77bGvjiqO0uxFhp8FmHMghXjzO1e+w7DwHYYqisVfBf/OWH/k7dX/4wWf/AFDJir60&#xA;/IH/AMk35T/5gV/4k2KvQMVY9qXlP67rC34uzHGWjeWLhViYqU4SBl4fZH7JIO4OKshxV2KvzB8p&#xA;/wDKVaN/zHW3/J5cVfp9irsVY55f8qzaVqT3L3AljWJ4YlAIZg7K5Z/8ocO3Xrt0xVkeKvKv+co/&#xA;/JE+Zv8Aox/7qFvir51/5w2/8m5N/wBsq5/5Ow4q+38VQ2oX9vYWcl3cE+lHSoUVJLEKqj3LEDFV&#xA;LR9YtdVtmnt1dPTcxyRyABlYANQ8Sw+ywOxxVHYq+S/+c4v+Or5R/wCMF7/xOHFWVf8AOE3/ACgG&#xA;u/8AbVP/AFDRYq+isVdirsVdir5V0D/1trUf+e3/AHTFxVF/84O/8crzd/xnsv8AiE2Kvp/FXYq7&#xA;FXYq+C/+csP/ACdur/8AGCz/AOoZMVfWn5A/+Sb8p/8AMCv/ABJsVegYq7FXYq7FX5g+U/8AlKtG&#xA;/wCY62/5PLir9PsVdirsVdiryr/nKP8A8kT5m/6Mf+6hb4q+df8AnDb/AMm5N/2yrn/k7Dir7fxV&#xA;Ru7S3vLZ7a5QSQyCjqajoaggihBBFQRiqnp2mWOnW5gs4/TjLF2BZnJYgCpZyzHYAbnFUVir5L/5&#xA;zi/46vlH/jBe/wDE4cVZV/zhN/ygGu/9tU/9Q0WKvorFWP8AmzW9R0tbX6oqKkxf1J5VLKpTjxTY&#xA;ru9T36A08QqnNjNNPZW808ZhmliR5YTUFGZQWU132O2Kq+KvlXQP/W2tR/57f90xcVRf/ODv/HK8&#xA;3f8AGey/4hNir6fxV2KuxV2Kvgv/AJyw/wDJ26v/AMYLP/qGTFX1p+QP/km/Kf8AzAr/AMSbFXoG&#xA;KuxV2KuxV+YPlP8A5SrRv+Y62/5PLir9PsVdirsVdiryr/nKP/yRPmb/AKMf+6hb4q+df+cNv/Ju&#xA;Tf8AbKuf+TsOKvt/FXYq7FXYq+S/+c4v+Or5R/4wXv8AxOHFWVf84Tf8oBrv/bVP/UNFir6KxV2K&#xA;uxV2KvlXQP8A1trUf+e3/dMXFXhP5Z+dvzH0XVItC8lao1hda/dW9t6YWErJO7+lDyaVH47ydcVe&#xA;h/mR+Yf/ADkp+XmtQ6R5g8zn6xcQC5gktltpY2jLMnUwqwIZCKEYqlPlP86f+cg/NXmKw8v6R5ml&#xA;fUdRk9KASR2qIKAszMxi2CqpJ/DFUX58/Nb/AJyM8j+ZJvL+u+Z3W+hRJOUCWskbJIvJWVvRB+8D&#xA;FXeQ/wA1v+cjPPHmSHy/oXmd2vpkeTlOlrHGqRryZmb0SfuBxV5/+aR86r561S3863P1vzHaukF5&#xA;OChVgiL6ZUxhFoY+JGwPjvirPfyc80f85AeZpE8peSfMAtbbSrUyrHOIEiigVwoHIxSOas4p1xVL&#xA;NX/Pz8+9I1a90m/8zTxX2n3EtpdxCK0YLLA5jkXksRBoyncYqyr8tfOf/OT/AOYr6kvlzzLyGlRx&#xA;vdNcC1iHKbl6Ua/uWqz+m3ttuRirDJf+cjPzwileKTzROskbFXX0bXYg0I/usVZt5G82f85RedfL&#xA;2ra/ovmUHT9HDfWDOLWN3ZI/VZIl9E1IWn2qDfr1xV4Da3M9rcxXNu/pzwOssTihKuh5Kd/AjFXv&#xA;3l3zZ/zlF5h8h6p5303zKG0bSPWNyri1WdltoxLMyJ6NCERq7sCabVxVg/8A0Mj+dv8A1NM//Im2&#xA;/wCqWKs3h83f85RS/lo35ip5k/511WYdLX1yizfV2kEfo/ZEtV6170pvirCP+hkfzt/6mmf/AJE2&#xA;3/VLFWS+fbr/AJyHvfylg8w+adaW88na4YOVrW39XiziWB5FSNCAzRqw4tXpUdcVeU+U/OXmbyjq&#xA;h1Xy7fNp+oNE0BnRUc+m5BZaSK43Kjtir2jzt5u/5yi8meXNI8wa35k4WGshfq/pC1keNnj9VUlX&#xA;0RQlK/ZJG3XFWFRf85GfnhLKkUfmidpJGCovo2u5JoB/dYqzT8yvOP8Azk9+XP6M/wAR+Zwv6WSV&#xA;rb6uLWWhg4eoj/uVoV9VelR4HFWJaZ/zkB+e+palaadaeZ5nu72aO3t0MVqoMkrBEBJioKs2KrPz&#xA;7tPza0/XdN078x9Tj1O7S2afT5YTGyLFK/Fx8EcJryi3qMVS78qPOf5qWep23lLyNq50+XWrpeMJ&#xA;WH0zMyhebtIjkAKu9PDpXFWYfmD+aH/OR/kLzE2g695nYXgiSdHgS1kjeOStGU+ip6qRuB0xVD+S&#xA;Pzc/5yJ86eZbXy7onmd21C75lDMlrHGqxoXdmb0jsFXsK4qs85fnH/zkN5P8zX3lzWvM0ialp7Ks&#xA;wiS1dCJEWVGVhFuGR1bx8d8VR35dfmT/AM5JfmDr76H5f8zk3cdu93M9wttHGkUbKhYkQsftyKtA&#xA;D18MVRn5HSeaH/5ygp5rm9fzFEb+DUpfgPKWG1eI0MYCEUQUoMVeN+XJdd0HzDpeuWthJJc6VdwX&#xA;sEckUhRnt5FlUNShoSu9DirKfzc/MLzX+Zev22r6jo/1E2lsLWCC3jlYcQ7OWZnFSSznFUk8h615&#xA;h8nebtM8zWWmPc3OmyGRIJo5ODhkaNgStCPhc0OKo38zvNvmf8wPNs/mTUNKa0mljjhS3gjlKKkS&#xA;8Ru1SSepOKt/lf5v8y/l95th8x2GkteTRRSwtbzxyhWWVaHdRUEbHFUD581rzD5x83al5lvdMe2u&#xA;dSlEjQQxycECoqKoLVJ+FBU4qnf5R/mF5r/LTX7nV9O0f68bu2NrPBcRyqOJdXDKyCoIZBirFvMc&#xA;uu695h1TXLqwkjudVu572eOOKQIr3EjSsFrU0BbapxVm35O/mv5x/K+XVm03RFv49XSETJcRzLxe&#xA;3L+mylKbfvmqO+2+KvPLjT9Xnnkneym5ysztSJ6VY1NNsVejflt+bvnPyH5U1vy5Y6It3bazzb1p&#xA;45g8UkkPosw40DDiBt7Yq82/RWqf8sc//It/6Yq9J8pfm75z8s/lnrXkK00RZbPWRcq97JHN6saX&#xA;kSwygKKKfgHwnsfHFXm36J1X/ljn/wCRb/0xV6TD+bvnOH8nj+WCaIv6OPNTqBjm9f03uTdleP2K&#xA;+o1K+Hau+KvNv0Tqv/LHP/yLf+mKvS/MX5vectc/KvTPy8n0JYrLThAgvkSb1XS2BEY4n4QelT+r&#xA;FXmn6J1T/ljn/wCRb/0xV6T+Y35u+c/PXlDQ/LWoaIttDoxRvrMMc3OV4ofRUkNUL8JJIHfwxV5z&#xA;Bp+sQTxzJZz84mDrWJyKqajtir0P84PzX84fmf8Aof8ASmhrY/odJwn1aOY+o9z6fqMedaD9ytB+&#xA;JxVgujLrmk6vY6rb2MrXGn3EV1CrxSFC8LiRQwFDSq774qy783vzD80/mXr1rq+oaL9QNnbC1ihg&#xA;SVgVDtIWZnHWr4qx/wAman5g8qeatM8xWemvPcaZOs8cMscnB6bFTxodwcVTb81POnmj8xfNTeYd&#xA;R0k2cggjtoreCOUqscVTuzbklnJxVD/lr5o8yeQ/OFn5msdKa7ntFlT6vPHKEZZo2jbdQCCA1Riq&#xA;j+YXmDzJ53846l5o1DTXt7rUWjLQQxScEWKJIY1HKpPwRip7nFU0/KTz55o/LXzNNrun6Mb6S4tJ&#xA;LKWCdJVXhJJHLVSgqCGhX6MVZ5/zj/qOta//AM5Hr5kv7FraXUm1G7nVY3WKMzQyHiC1dgWoKnFX&#xA;2virsVdirsVdirsVdirsVdirsVdirsVdirsVdirsVdirsVdirsVdirsVdirsVdirsVdirsVdir8x&#xA;PKOkSa/5r0XQTctbjVr+2sTOKsYxczLFz41FePOtK4qzT8+Pyqi/LPzPZaVaanLqNve2i3aSSqI3&#xA;Q+o8ZU8SQfsVrirHPy08pv5z89aP5Ze8ezj1KYpJcqObIiI0jcVJG5CUGKpj+cv5fj8vfPVx5ct9&#xA;Qkv7eOGGeK4kXg/GVa8WAJFQQdxirvya/L8fmF56t/LlxqElhbyQzTy3Ea834xLXioJAqSRucVS3&#xA;8y/KbeTPPWr+WUvHvI9NmCR3LDgzI6LItVBO4D0OKsk/If8AKqL8zPM97pV3qcunW9laNdvJEokd&#xA;z6iRhRyIA+3WuKsK816RNoHmjWNBNybg6TfXNiZxVRIbaZoufGppy4VpXFXov5B/krF+aL699Z1i&#xA;XTE0iO3EfpxiUvJderxLcmX4V9A1HevUYq8quhPb3MsBkLGJ2QsCaEqaVxV63+UH5GweffI/mLzJ&#xA;cazNYyaQZI7W3jjDh3ig9YmQlhseQFBirx/1Zf52+84q9g8ifkdB5n/J3zD59fWZra70dbySGyEY&#xA;aN1sYFnYMxYNVwSop098VeP+tL/O33nFXr9r+R0c/wCQb/mf+mZReDnIum+mPT9KO8NmVL8uXKql&#xA;60p2p3xV5B60v87fecVev+a/yNj0L8ldH/MNNZlnu9QFtJPYGMLGqXQJUI/ItVdq16+2KvIPWl/n&#xA;b7zir1/83PyNj8heRvLnmWHWZb6bVzHHdW7xhFR5YPXBjYMTQcSN8VeS2onuLmKASFTK6oGJNAWN&#xA;K4q9V/Pz8lYvyufQfq2sS6mmrx3Ak9SMRFJLX0uRXizfC3rig7U6nFXmvl7T5dY1/TNJ+sND+kbu&#xA;C09bduHryLHy41Facq0rirPPz5/Kq3/LPzNY6VZanNqMF7Zi79SZQjq3qPGV+EkEfBXFWKfl95ak&#xA;82eddH8ttdtaJqdykD3IBcop3YhaipoNt8VT387fy4T8ufOx8v22oyahbvaxXcU0i8HAkLKVYKSD&#xA;RozuMVQf5Q+Rv8fefdP8szX8ljBdLNJLcoObhYYmkIVSQKtxpviqj+a3k0+RvP8Aq3laK+e9i05o&#xA;vTuWHBmSeCOdeSgkVUS8T40xVOPyL/LGP8y/OM+hXWpS6fb2tjLfSTRKJHYRyRxBF5EAfFMDX2xV&#xA;m35DaDL5a/5ybby6bprpdLk1K09cgr6gihkUMVqaVpWlcVeb/lv+W/5learl9V8kWDXNzos8MpuU&#xA;uLe3eGapkhZfXkiJIMdRTwxVnfm38kf+cn/N+pJqXmTSpdSvY4xDHLLfaaOMakkKqpOqqKsTsMVQ&#xA;Wh/848f85GaDq1rq+kaE9nqVm/qW1zHfadyRqEd7gg1BoQdiMVVvMv5B/wDOSvmbV5dY17RpNQ1K&#xA;cKslxLfadXig4qoCzhVAA6AYq35Y/Ib/AJyW8r6vHrGgaNJp+pRKyJcR32mk8XHFlKtOykEeIxV5&#xA;3+ZGm+d7DzlfxeeA48zSlJ78ySRSsTIgZDygZ4/sUoFOw2xVnn5Zfll/zkVp9tB5q8h2MlvBqlvx&#xA;ivI7rT19WBmBo0c8tftJ+0tcVUb/AP5xq/5yC1C+ub+98vtcXt3K89zO9/p5eSWVi7ux+sdWYknF&#xA;U68ofk7/AM5UeTpbqTyzp02mNfIsd36V9ppEioSVqrzsKryPFuoqadcVSB/+cX/z4d2d/LRZ2JLM&#xA;b7TyST1JP1jFWQeXPyf/AOcq/LWl6hpWhWE9hp+qKVvreO+03i9VKEjlOSjFTTktD9wxV4ba2091&#xA;cxW1unqTzusUSCgLO54qN/EnFXtGl/ll/wA5RaV5ZvfK+nabfW2g6iXN7YpNacX9RQsg5GTmA6qA&#xA;wUgEdcVY7/0Ld+dv/UrT/wDI62/6q4qyJfyy/wCcol8of4OXTb4eWeRb9GCa0EdTJ6pFfU58fU+L&#xA;jWld8VY7/wBC3fnb/wBStP8A8jrb/qriqY+dPLH/ADkTpf5eLp3mm3vIfJWjmEiGSS2aOL4xFCCY&#xA;2MrAPKAoNQNvDFWA+TfI/mjznq7aR5asvr+orE1wYPVhh/doQGblM8abFxtWuKvW/Mf5Rf8AOVnm&#xA;TSbDSNcsJr/TdMAFlbyX2mUTinpqSVnBchdqsSfvOKscX/nF78+FYMvloqymqsL7TwQR3H+kYqyD&#xA;zd+Tv/OVPnD6l/iXTptU/R6NHZ+tfab8Afjz+zOtS3BeTHc0xVI7X/nGb8/rS6hu7Xy60NzbussE&#xA;yX+nhkdCGVlIuNiCKjFUp/OfSvzitdW0+7/M4SHULmFo9PeSa1lrDC1WCi0ZkWjS9wK1xVS/LH8t&#xA;vzZ1+RfMvkOxeWXSbkKl7Hc2sDRXCqHAC3EkZPwsOxB6YqyzzR+RH/OTHmrVn1fzBo8mo6i6rGZ5&#xA;b7TRREFFVVWdVUDwA98VWeW/yB/5yT8taxBrOhaK9hqdtyENzHfaaSA6lGFGnZSCrEUIxVb5g/5x&#xA;9/5yP8xaxc6zrWiPfandlWuLqS+07kxVQi9JwAFVQAANhiqJ8p/kf/zk75R1RtU8t6TJpt+8TQPN&#xA;He6aeUTkMyMrzspHJFO46jFUb+Q+neadP/5yajtfNYZfMYF7JqfqSRysZprV5SS8TOhqHB+E4qzn&#xA;/nB3/jlebv8AjPZf8QmxV7N+V/mbU9bGuJdajDq9pY3ixafqcBgdJonhVz+8tgsVVckcacl6MScV&#xA;ZzirsVdir4L/AOcsP/J26v8A8YLP/qGTFX1p+QP/AJJvyn/zAr/xJsVegYq7FXYq7FX5g+U/+Uq0&#xA;b/mOtv8Ak8uKv0+xV2KuxV2KvKv+co//ACRPmb/ox/7qFvir51/5w2/8m5N/2yrn/k7Dir7fxV2K&#xA;uxV2Kvkv/nOL/jq+Uf8AjBe/8ThxVlX/ADhN/wAoBrv/AG1T/wBQ0WKvorFXYq7FXYq+VdA/9ba1&#xA;H/nt/wB0xcVRf/ODv/HK83f8Z7L/AIhNir6fxVLtb8w6NodslzqlyLaKRuCEqzszUrsqBmP3Yqi7&#xA;S7try1iurWRZredRJFKu4ZWFQRiqtir4L/5yw/8AJ26v/wAYLP8A6hkxV9afkD/5Jvyn/wAwK/8A&#xA;EmxV6BirsVdirsVfmD5T/wCUq0b/AJjrb/k8uKv0+xV2KuxV2KvKv+co/wDyRPmb/ox/7qFvir51&#xA;/wCcNv8Aybk3/bKuf+TsOKvt/FXYq7FXYq+S/wDnOL/jq+Uf+MF7/wAThxVlX/OE3/KAa7/21T/1&#xA;DRYq+isVSzXPMuh6FHFJqt0LZZ2KxDi7sxXc0VAzUFdzSmKphDNFPDHNC4khlUPHIpqrKwqCCOxG&#xA;Kr8VfKugf+ttaj/z2/7pi4qi/wDnB3/jlebv+M9l/wAQmxV9P4qknmnyhpPmW2hgvzIhgYvDNCwV&#xA;15CjD4ldaGgrtiqY6XptppmnW+n2ilbe2QRxgmpoO5PcnqcVRWKvgv8A5yw/8nbq/wDxgs/+oZMV&#xA;fWn5A/8Akm/Kf/MCv/EmxV6BirAvMnlnzpe+d7HUbC9MemRNEQfUKrCqEGVTEPt+pT6ejUAxVnuK&#xA;uxV+YPlP/lKtG/5jrb/k8uKv0+xV2KsE8kfmFqPmHzJqGl3FittFbRvIpXl6kRSRU9KapI5tzr0H&#xA;Q4qzvFXlX/OUf/kifM3/AEY/91C3xV86/wDOG3/k3Jv+2Vc/8nYcVfb+KpT5qstVvvL97a6VP9Xv&#xA;5UAhlDFDswLKGG6llBWvauKpd+Xmj69pOgG11qb1LgzM8MZcyGKIqoEZbcfaDNsab4qyfFXyX/zn&#xA;F/x1fKP/ABgvf+Jw4qyr/nCb/lANd/7ap/6hosVfRWKpB5r8l6P5mS2GoNLG9oXMMsDKrASU5qeS&#xA;uKHgvbtiqc2dpBZ2cFpbrwt7aNIoUqTREUKoqd+gxVWxV8q6B/621qP/AD2/7pi4qi/+cHf+OV5u&#xA;/wCM9l/xCbFX0/iqX6vrdnpUSPOHd5SRHFGAWNOp+IqKCvjiqKs7uC8tY7mBuUUo5KTsfcEdiDsc&#xA;VVsVfBf/ADlh/wCTt1f/AIwWf/UMmKvrT8gf/JN+U/8AmBX/AIk2KvQMVYvq2s69b+YYrS2iJgLR&#xA;iOLhyEytT1GL0qvHfofhpU1GKsoxV2KvzB8p/wDKVaN/zHW3/J5cVfp9irsVYx5b8s6lpmqzXdzN&#xA;HIjxtGWRmLzMzK3qS1VaMOJ7nqd8VZPiryr/AJyj/wDJE+Zv+jH/ALqFvir51/5w2/8AJuTf9sq5&#xA;/wCTsOKvt/FUDrd/Lp+lz3kUfqSRAUU1oOTBSzU/ZQHkfYdsVQvlbWbjVtOe4nVAySmNZIqiOQBV&#xA;bkoJb+bj1O4xVOMVfJf/ADnF/wAdXyj/AMYL3/icOKsq/wCcJv8AlANd/wC2qf8AqGixV9FYqgtS&#xA;1jTtNWM3kvp+qSI1Cu7GnU8UDGgqN8VRUUscsSSxMHjkUMjqagqwqCD74qvxV8q6B/621qP/AD2/&#xA;7pi4qi/+cHf+OV5u/wCM9l/xCbFX0/iqD1PSNP1ONY72IyBDVCrvGwr1o0ZVqHuK4qr21tBbW8dv&#xA;AgjhiAVEHYD59cVVcVfBf/OWH/k7dX/4wWf/AFDJir60/IH/AMk35T/5gV/4k2KvQMVdirsVdir8&#xA;wfKf/KVaN/zHW3/J5cVfp9irsVdirsVeVf8AOUf/AJInzN/0Y/8AdQt8VfOv/OG3/k3Jv+2Vc/8A&#xA;J2HFX2/irsVdirsVfJf/ADnF/wAdXyj/AMYL3/icOKsq/wCcJv8AlANd/wC2qf8AqGixV9FYqlms&#xA;6BZ6t6LTvJFJByEckRUHi9OS/Grih4jt2xVHW1vFbW0VtCOMMKLHGta0VBQCp9hiqrir5V0D/wBb&#xA;a1H/AJ7f90xcVRf/ADg7/wAcrzd/xnsv+ITYq+n8VdirsVdir4L/AOcsP/J26v8A8YLP/qGTFX1p&#xA;+QP/AJJvyn/zAr/xJsVegYq7FXYq7FX5g+U/+Uq0b/mOtv8Ak8uKv0+xV2KuxV2KvKv+co//ACRP&#xA;mb/ox/7qFvir51/5w2/8m5N/2yrn/k7Dir7fxV2KuxV2Kvkv/nOL/jq+Uf8AjBe/8ThxVlX/ADhN&#xA;/wAoBrv/AG1T/wBQ0WKvorFXYq7FXYq+VdA/9ba1H/nt/wB0xcVeI/lb+Zn5j+U7t9I8lTql1rtx&#xA;BCLcwwzNLPyMcKqZQaVMlMVeh+c/zz/5ya8laoml+Z54tOvZYhPFGbaxlVo2JUMskIkQ7qRs22Ko&#xA;Dy9/zkf/AM5C+YtatNF0a+hu9Tvn9O1t1tLNSzUJ+06qqgAEkk0GKq/mv/nIL/nI/wAp61NonmG7&#xA;isNTgCtJA1rZv8LjkrK8aujAjurHFW/KX/OQH/OSHm7WotE8u3cN/qcyu6QC2so/hjHJiXlCIoA8&#xA;WxV5n+aWo+d7/wA8ajJ53UJ5mhKQX6BYlCmKNVQD0f3Z+Cm67Hrir0L8p/zQ/wCch9UtYPKPkJ47&#xA;uPSbblHbGGyX04FYLVpbngD8Tjq1cVUdS/5yf/PrTNRutNv9ShgvrKaS3uoGs7XkksTFHQ0Qiqsp&#xA;GKp95J/Ob/nKTzxLeR+Vnj1JtPRZLwrbWESxiQkIC0wjUs3E0UGpofDFWNP/AM5WfnhG7Rvq0Kuh&#xA;KspsraoI2IPwYqyfyv8AnF/zlP5q0jUdY0Bo77TdJBa/uBbWMYTihkIUSBGkYIKlUBPTxGKvn6xv&#xA;JrK9t7yAgT20iTREio5xsGWo+YxV9F6P+d//ADk9rPlO/wDNumWVpc+X9M9T69erBAOHpKHkIjaQ&#xA;SsEVgWKqQB8jirF/+hvPzk/5abH/AKRF/rirKF/O/wD5yefyR/jhbK0bysGK/pEQQEfDL6JPpep6&#xA;vESDjy4Ur3xVi/8A0N5+cn/LTY/9Ii/1xVH/AJjeff8AnIfXfyr+veaLC3j8k679X43kcdurvSUT&#xA;QnikjTIGaEbsgB+kYq8n8j+fPMvkjWm1ny7cLbag0L25keNJR6blWYcZAw6oMVe0eaPzg/5yo8ra&#xA;Lp2ta+0djpmq8fqNw1vYPz5J6ihlj5vGSm9HAP3YqxdP+crfzwd1RNWhZ2ICqLK2JJPQAenirJfO&#xA;v5y/85S+SfqP+KHj039JI72XK3sJOYj48/7oScSvqLVWod8VY/Z/85Sfnte3kFna6nDNdXMiQwRL&#xA;ZW3J5JGCqo+DqSaYqk/56ap+cNxrGm2X5nRLDqFtA8tgiLa09GZ6MeVqWRvii7moxVQ/Kb8zfzV0&#xA;CZPK3kSZPX1i6DR2jQwSNJOyhB8cwoo4qOpAHXFWZ+bvz9/5yT8n6y+i+Y7mLT9SRFlMLWtlICji&#xA;qsrxK6MD/kt1264qp+Vv+chf+cjPNWt2+h6BeQ32qXPIw24tbKOojUuxLyKiKAqnqcVU/Mf/ADkb&#xA;/wA5EeW9butD1y9istVsmCXNs9paMVLKHX4kVlYMrBgVJBBqMVRnkz89v+cl/OmrNpHlm5h1DUEh&#xA;a4eEW1jEFiRlVnLzCNAOTqOvfFV35H6h5p1D/nKAXPmscfMX+nRamvFEpNDaPERSP4NuFPh2xV4p&#xA;5U1w6B5o0fXhD9YOk31tfCAtxEhtpll4cqGnLhStMVZj+eP5uL+ZvmWz1aPTTpkNlaLaRwtL6zN+&#xA;8eQsWCoOr0pTFWPflx5xbyZ530nzOtsLz9GymRrUt6fNXRo2AajUPFzQ064qmH5wfmN/ysPztceZ&#xA;BY/o6OSKKCK1MnqsFiWlWfilSTXtirvyf/Mb/lXnna38yGx/SMccUsEtqJPSYrKtKq/F6EGnbFUv&#xA;/Mfzi3nPzvq3mdrYWf6SlEi2ob1OCoixqC1FqeKCpp1xVkP5Hfm4v5ZeZbzVpNNOpw3to1pJCsvo&#xA;sv7xJAwYq46pSlMVYb5o1yTX/M2r67JEIJNWvbi+eBSWVGuZWlKAmlQvOmKvQfyK/PH/AJVa+uct&#xA;J/SqaxHBxAm9ExyW3q8K/A9Vb1zX5Yq8vuZ2uLiWdgA0rs7AdAWNdsVerflN+fA8g+S/MPlp9H/S&#xA;H6YMjwXIm9L0nlg9E814PyUUU7Ed8VeSYq9b8kfnwPK/5Ra/5BGj/WptZW7SPUPW4LGt7AsD1j4E&#xA;sUAJHxYq8kxV61bfnw0H5FP+V36IBkYui6p63wiKS7N2axcftcmK/apTfFXkuKvWvNP58Nrv5N6R&#xA;+XX6IEEunC3SXUvW5K6WoITjFxHFm2rVj/RV5Lir1r81/wA+G8++SfL3lr9ECwbRjG9xdet6gleK&#xA;D0RwTivBTUncnFXlVtO1vcRTqAWidXUHoSprvir1D89fzx/5Wk+h8dJ/RSaPHPyBm9YySXPpc6fA&#xA;lFX0BT54q850DVW0fXdN1ZYxM2nXUN2sJPEOYJFk4k0NK8aYqzn88vzci/M3zJZatFpjaXFZWgtF&#xA;heUTMx9R5CxYLGB9ulKYqxfyB5q/wl5z0jzJ9W+tjS7hZ2tuXp81FQVDUahofDFU7/Of8zh+Y/nM&#xA;+YVsP0bEttFaRWxk9VuMRZuTPxQVLOeg6YqhPyn8/nyD55sPM/1P6+losqSWvP0iyzRNGeL0ahHK&#xA;vTFVH80fPB89efNV81G0+ojUWi4WvP1OCQQpAtXotSViBO3XFU3/ACS/NUfln5vm159O/ScNzZSW&#xA;MtuJPRYLJJHKHVirioaEDcdDirOPyC8xv5m/5yZHmF4BbNqsmpXZt1bkI/VgkbjyIFaV60xV/9k=</xapGImg:image>
    </rdf:li>
   </rdf:Alt>
  </xap:Thumbnails>
 </rdf:Description>

 <rdf:Description rdf:about=''
  xmlns:dc='http://purl.org/dc/elements/1.1/'>
  <dc:format>image/svg+xml</dc:format>
 </rdf:Description>

</rdf:RDF>
</x:xmpmeta>
                                                                                                                                                                                                                                                                                                                                                                                                                                                                                                                                                                                                                                                                                                                                                                                                                                                                                                                                                                                                                                                                                                                                                                                                                                                                                                                                                                                                                                                                                                                                                                                                                                                                                                                                                                                                                                                                                                                                                                                                                                                                                                                                <?xpacket end='w'?>
			</metadata>
		<g id="Layer_1">
			<g>
				<polygon points="0.001,197.097 256.193,197.097 256.193,285.91 0.001,285.91 0.001,197.097 "/>
				<polygon points="0,197.097 51.238,197.097 51.238,285.91 0,285.91 0,197.097 "/>
				<polygon style="fill:#FFFFFF;" points="4.271,212.468 46.97,212.468 46.97,270.538 4.271,270.538 4.271,212.468 "/>
				<polygon points="51.239,197.097 102.478,197.097 102.478,285.91 51.239,285.91 51.239,197.097 "/>
				<polygon style="fill:#FFFFFF;" points="55.509,212.468 98.208,212.468 98.208,270.538 55.509,270.538 55.509,212.468 "/>
				<polygon points="102.478,197.097 153.716,197.097 153.716,285.91 102.478,285.91 102.478,197.097 "/>
				<polygon style="fill:#FFFFFF;" points="106.71,212.581 149.409,212.581 149.409,270.652 106.71,270.652 106.71,212.581 "/>
				<polygon points="153.717,197.097 204.956,197.097 204.956,285.91 153.717,285.91 153.717,197.097 "/>
				<polygon style="fill:#FFFFFF;" points="157.986,212.468 200.686,212.468 200.686,270.538 157.986,270.538 157.986,212.468 "/>
				<polygon points="204.955,197.097 256.193,197.097 256.193,285.91 204.955,285.91 204.955,197.097 "/>
				<polygon style="fill:#FFFFFF;" points="209.226,212.468 251.925,212.468 251.925,270.538 209.226,270.538 209.226,212.468 "/>
				<path style="fill:#BFBFBF;" d="M181.82,247.459c0,1.372-1.112,2.485-2.484,2.485c-1.371,0-2.484-1.113-2.484-2.485
					c0-1.371,1.113-2.484,2.484-2.484C180.708,244.975,181.82,246.088,181.82,247.459L181.82,247.459z"/>
				<path style="fill:none;stroke:#000000;stroke-width:0.4;stroke-miterlimit:10;" d="M181.82,247.459
					c0,1.372-1.112,2.485-2.484,2.485c-1.371,0-2.484-1.113-2.484-2.485c0-1.371,1.113-2.484,2.484-2.484
					C180.708,244.975,181.82,246.088,181.82,247.459L181.82,247.459z"/>
				<path style="fill:#BFBFBF;" d="M233.061,250.724c0,1.372-1.113,2.486-2.485,2.486s-2.485-1.114-2.485-2.486
					s1.113-2.485,2.485-2.485S233.061,249.352,233.061,250.724L233.061,250.724z"/>
				<path style="fill:none;stroke:#000000;stroke-width:0.4;stroke-miterlimit:10;" d="M233.061,250.724
					c0,1.372-1.113,2.486-2.485,2.486s-2.485-1.114-2.485-2.486s1.113-2.485,2.485-2.485S233.061,249.352,233.061,250.724
					L233.061,250.724z"/>
				<path style="fill:#808080;" d="M181.82,235.764c0,1.372-1.112,2.485-2.484,2.485c-1.371,0-2.484-1.113-2.484-2.485
					c0-1.371,1.113-2.484,2.484-2.484C180.708,233.279,181.82,234.393,181.82,235.764L181.82,235.764z"/>
				<path style="fill:none;stroke:#000000;stroke-width:0.4;stroke-miterlimit:10;" d="M181.82,235.764
					c0,1.372-1.112,2.485-2.484,2.485c-1.371,0-2.484-1.113-2.484-2.485c0-1.371,1.113-2.484,2.484-2.484
					C180.708,233.279,181.82,234.393,181.82,235.764L181.82,235.764z"/>
				<path style="fill:#808080;" d="M233.061,232.867c0,1.372-1.113,2.485-2.485,2.485s-2.485-1.113-2.485-2.485
					s1.113-2.485,2.485-2.485S233.061,231.495,233.061,232.867L233.061,232.867z"/>
				<path style="fill:none;stroke:#000000;stroke-width:0.4;stroke-miterlimit:10;" d="M233.061,232.867
					c0,1.372-1.113,2.485-2.485,2.485s-2.485-1.113-2.485-2.485s1.113-2.485,2.485-2.485S233.061,231.495,233.061,232.867
					L233.061,232.867z"/>
				<path style="fill:#BFBFBF;" d="M130.582,244.106c0,1.372-1.113,2.485-2.485,2.485s-2.485-1.113-2.485-2.485
					s1.113-2.485,2.485-2.485S130.582,242.734,130.582,244.106L130.582,244.106z"/>
				<path style="fill:none;stroke:#000000;stroke-width:0.4;stroke-miterlimit:10;" d="M130.582,244.106
					c0,1.372-1.113,2.485-2.485,2.485s-2.485-1.113-2.485-2.485s1.113-2.485,2.485-2.485S130.582,242.734,130.582,244.106
					L130.582,244.106z"/>
				<path style="fill:#BFBFBF;" d="M79.344,246.759c0,1.372-1.113,2.486-2.485,2.486s-2.486-1.114-2.486-2.486
					s1.114-2.485,2.486-2.485S79.344,245.387,79.344,246.759L79.344,246.759z"/>
				<path style="fill:none;stroke:#000000;stroke-width:0.4;stroke-miterlimit:10;" d="M79.344,246.759
					c0,1.372-1.113,2.486-2.485,2.486s-2.486-1.114-2.486-2.486s1.114-2.485,2.486-2.485S79.344,245.387,79.344,246.759
					L79.344,246.759z"/>
				<path style="fill:#BFBFBF;" d="M28.105,249.829c0,1.372-1.113,2.486-2.485,2.486s-2.486-1.114-2.486-2.486
					s1.114-2.485,2.486-2.485S28.105,248.457,28.105,249.829L28.105,249.829z"/>
				<path style="fill:none;stroke:#000000;stroke-width:0.4;stroke-miterlimit:10;" d="M28.105,249.829
					c0,1.372-1.113,2.486-2.485,2.486s-2.486-1.114-2.486-2.486s1.114-2.485,2.486-2.485S28.105,248.457,28.105,249.829
					L28.105,249.829z"/>
				<path style="fill:#808080;" d="M130.582,238.659c0,1.372-1.113,2.485-2.485,2.485s-2.485-1.113-2.485-2.485
					s1.113-2.485,2.485-2.485S130.582,237.287,130.582,238.659L130.582,238.659z"/>
				<path style="fill:none;stroke:#000000;stroke-width:0.4;stroke-miterlimit:10;" d="M130.582,238.659
					c0,1.372-1.113,2.485-2.485,2.485s-2.485-1.113-2.485-2.485s1.113-2.485,2.485-2.485S130.582,237.287,130.582,238.659
					L130.582,238.659z"/>
				<path style="fill:#808080;" d="M79.344,235.764c0,1.372-1.113,2.486-2.485,2.486s-2.486-1.114-2.486-2.486
					s1.114-2.485,2.486-2.485S79.344,234.392,79.344,235.764L79.344,235.764z"/>
				<path style="fill:none;stroke:#000000;stroke-width:0.4;stroke-miterlimit:10;" d="M79.344,235.764
					c0,1.372-1.113,2.486-2.485,2.486s-2.486-1.114-2.486-2.486s1.114-2.485,2.486-2.485S79.344,234.392,79.344,235.764
					L79.344,235.764z"/>
				<path style="fill:#808080;" d="M28.105,232.867c0,1.372-1.113,2.485-2.485,2.485s-2.486-1.113-2.486-2.485
					s1.114-2.485,2.486-2.485S28.105,231.495,28.105,232.867L28.105,232.867z"/>
				<path style="fill:none;stroke:#000000;stroke-width:0.4;stroke-miterlimit:10;" d="M28.105,232.867
					c0,1.372-1.113,2.485-2.485,2.485s-2.486-1.113-2.486-2.485s1.114-2.485,2.486-2.485S28.105,231.495,28.105,232.867
					L28.105,232.867z"/>
				<path style="fill:#FFFFFF;" d="M246.971,275.946c0-0.613,0.497-1.11,1.11-1.11h2.22c0.613,0,1.11,0.497,1.11,1.11v4.44
					c0,0.613-0.497,1.111-1.11,1.111h-2.22c-0.613,0-1.11-0.498-1.11-1.111V275.946L246.971,275.946z"/>
				<path style="fill:#FFFFFF;" d="M229.892,275.946c0-0.613,0.496-1.11,1.11-1.11h2.22c0.612,0,1.11,0.497,1.11,1.11v4.44
					c0,0.613-0.498,1.111-1.11,1.111h-2.22c-0.614,0-1.11-0.498-1.11-1.111V275.946L229.892,275.946z"/>
				<path style="fill:#FFFFFF;" d="M212.812,275.946c0-0.613,0.496-1.11,1.11-1.11h2.22c0.612,0,1.11,0.497,1.11,1.11v4.44
					c0,0.613-0.498,1.111-1.11,1.111h-2.22c-0.614,0-1.11-0.498-1.11-1.111V275.946L212.812,275.946z"/>
				<path style="fill:#FFFFFF;" d="M195.732,275.946c0-0.613,0.496-1.11,1.11-1.11h2.22c0.613,0,1.11,0.497,1.11,1.11v4.44
					c0,0.613-0.497,1.111-1.11,1.111h-2.22c-0.614,0-1.11-0.498-1.11-1.111V275.946L195.732,275.946z"/>
				<path style="fill:#FFFFFF;" d="M178.652,275.946c0-0.613,0.497-1.11,1.11-1.11h2.22c0.613,0,1.11,0.497,1.11,1.11v4.44
					c0,0.613-0.497,1.111-1.11,1.111h-2.22c-0.613,0-1.11-0.498-1.11-1.111V275.946L178.652,275.946z"/>
				<path style="fill:#FFFFFF;" d="M161.573,275.946c0-0.613,0.496-1.11,1.11-1.11h2.22c0.612,0,1.11,0.497,1.11,1.11v4.44
					c0,0.613-0.498,1.111-1.11,1.111h-2.22c-0.614,0-1.11-0.498-1.11-1.111V275.946L161.573,275.946z"/>
				<path style="fill:#FFFFFF;" d="M144.493,275.946c0-0.613,0.496-1.11,1.11-1.11h2.22c0.612,0,1.11,0.497,1.11,1.11v4.44
					c0,0.613-0.498,1.111-1.11,1.111h-2.22c-0.614,0-1.11-0.498-1.11-1.111V275.946L144.493,275.946z"/>
				<path style="fill:#FFFFFF;" d="M127.414,275.946c0-0.613,0.497-1.11,1.11-1.11h2.22c0.613,0,1.11,0.497,1.11,1.11v4.44
					c0,0.613-0.497,1.111-1.11,1.111h-2.22c-0.614,0-1.11-0.498-1.11-1.111V275.946L127.414,275.946z"/>
				<path style="fill:#FFFFFF;" d="M110.333,275.946c0-0.613,0.497-1.11,1.11-1.11h2.22c0.614,0,1.11,0.497,1.11,1.11v4.44
					c0,0.613-0.498,1.111-1.11,1.111h-2.22c-0.613,0-1.11-0.498-1.11-1.111V275.946L110.333,275.946z"/>
				<path style="fill:#FFFFFF;" d="M93.254,275.946c0-0.613,0.497-1.11,1.11-1.11h2.22c0.613,0,1.11,0.497,1.11,1.11v4.44
					c0,0.613-0.498,1.111-1.11,1.111h-2.22c-0.614,0-1.11-0.498-1.11-1.111V275.946L93.254,275.946z"/>
				<path style="fill:#FFFFFF;" d="M76.174,275.946c0-0.613,0.497-1.11,1.11-1.11h2.22c0.613,0,1.11,0.497,1.11,1.11v4.44
					c0,0.613-0.498,1.111-1.11,1.111h-2.22c-0.613,0-1.11-0.498-1.11-1.111V275.946L76.174,275.946z"/>
				<path style="fill:#FFFFFF;" d="M59.095,275.946c0-0.613,0.498-1.11,1.11-1.11h2.22c0.613,0,1.11,0.497,1.11,1.11v4.44
					c0,0.613-0.497,1.111-1.11,1.111h-2.22c-0.613,0-1.11-0.498-1.11-1.111V275.946L59.095,275.946z"/>
				<path style="fill:#FFFFFF;" d="M42.015,275.946c0-0.613,0.498-1.11,1.11-1.11h2.22c0.613,0,1.11,0.497,1.11,1.11v4.44
					c0,0.613-0.497,1.111-1.11,1.111h-2.22c-0.613,0-1.11-0.498-1.11-1.111V275.946L42.015,275.946z"/>
				<path style="fill:#FFFFFF;" d="M24.936,275.946c0-0.613,0.497-1.11,1.11-1.11h2.22c0.613,0,1.11,0.497,1.11,1.11v4.44
					c0,0.613-0.498,1.111-1.11,1.111h-2.22c-0.614,0-1.11-0.498-1.11-1.111V275.946L24.936,275.946L24.936,275.946z"/>
				<path style="fill:#FFFFFF;" d="M7.856,275.946c0-0.613,0.497-1.11,1.11-1.11h2.22c0.613,0,1.11,0.497,1.11,1.11v4.44
					c0,0.613-0.498,1.111-1.11,1.111h-2.22c-0.614,0-1.11-0.498-1.11-1.111V275.946L7.856,275.946z"/>
				<path style="fill:#FFFFFF;" d="M246.971,201.82c0-0.612,0.497-1.11,1.11-1.11h2.22c0.613,0,1.11,0.498,1.11,1.11v4.441
					c0,0.612-0.497,1.11-1.11,1.11h-2.22c-0.613,0-1.11-0.498-1.11-1.11V201.82L246.971,201.82z"/>
				<path style="fill:#FFFFFF;" d="M229.892,201.82c0-0.612,0.496-1.11,1.11-1.11h2.22c0.612,0,1.11,0.498,1.11,1.11v4.441
					c0,0.612-0.498,1.11-1.11,1.11h-2.22c-0.614,0-1.11-0.498-1.11-1.11V201.82L229.892,201.82z"/>
				<path style="fill:#FFFFFF;" d="M212.812,201.82c0-0.612,0.496-1.11,1.11-1.11h2.22c0.612,0,1.11,0.498,1.11,1.11v4.441
					c0,0.612-0.498,1.11-1.11,1.11h-2.22c-0.614,0-1.11-0.498-1.11-1.11V201.82L212.812,201.82z"/>
				<path style="fill:#FFFFFF;" d="M195.732,201.82c0-0.612,0.496-1.11,1.11-1.11h2.22c0.613,0,1.11,0.498,1.11,1.11v4.441
					c0,0.612-0.497,1.11-1.11,1.11h-2.22c-0.614,0-1.11-0.498-1.11-1.11V201.82L195.732,201.82z"/>
				<path style="fill:#FFFFFF;" d="M178.652,201.82c0-0.612,0.497-1.11,1.11-1.11h2.22c0.613,0,1.11,0.498,1.11,1.11v4.441
					c0,0.612-0.497,1.11-1.11,1.11h-2.22c-0.613,0-1.11-0.498-1.11-1.11V201.82L178.652,201.82z"/>
				<path style="fill:#FFFFFF;" d="M161.573,201.82c0-0.612,0.496-1.11,1.11-1.11h2.22c0.612,0,1.11,0.498,1.11,1.11v4.441
					c0,0.612-0.498,1.11-1.11,1.11h-2.22c-0.614,0-1.11-0.498-1.11-1.11V201.82L161.573,201.82z"/>
				<path style="fill:#FFFFFF;" d="M144.493,201.82c0-0.612,0.496-1.11,1.11-1.11h2.22c0.612,0,1.11,0.498,1.11,1.11v4.441
					c0,0.612-0.498,1.11-1.11,1.11h-2.22c-0.614,0-1.11-0.498-1.11-1.11V201.82L144.493,201.82z"/>
				<path style="fill:#FFFFFF;" d="M127.414,201.82c0-0.612,0.497-1.11,1.11-1.11h2.22c0.613,0,1.11,0.498,1.11,1.11v4.441
					c0,0.612-0.497,1.11-1.11,1.11h-2.22c-0.614,0-1.11-0.498-1.11-1.11V201.82L127.414,201.82z"/>
				<path style="fill:#FFFFFF;" d="M110.333,201.82c0-0.612,0.497-1.11,1.11-1.11h2.22c0.614,0,1.11,0.498,1.11,1.11v4.441
					c0,0.612-0.498,1.11-1.11,1.11h-2.22c-0.613,0-1.11-0.498-1.11-1.11V201.82L110.333,201.82z"/>
				<path style="fill:#FFFFFF;" d="M93.254,201.82c0-0.612,0.497-1.11,1.11-1.11h2.22c0.613,0,1.11,0.498,1.11,1.11v4.441
					c0,0.612-0.498,1.11-1.11,1.11h-2.22c-0.614,0-1.11-0.498-1.11-1.11V201.82L93.254,201.82z"/>
				<path style="fill:#FFFFFF;" d="M76.174,201.82c0-0.612,0.497-1.11,1.11-1.11h2.22c0.613,0,1.11,0.498,1.11,1.11v4.441
					c0,0.612-0.498,1.11-1.11,1.11h-2.22c-0.613,0-1.11-0.498-1.11-1.11V201.82L76.174,201.82z"/>
				<path style="fill:#FFFFFF;" d="M59.095,201.82c0-0.612,0.498-1.11,1.11-1.11h2.22c0.613,0,1.11,0.498,1.11,1.11v4.441
					c0,0.612-0.497,1.11-1.11,1.11h-2.22c-0.613,0-1.11-0.498-1.11-1.11V201.82L59.095,201.82z"/>
				<path style="fill:#FFFFFF;" d="M42.015,201.82c0-0.612,0.498-1.11,1.11-1.11h2.22c0.613,0,1.11,0.498,1.11,1.11v4.441
					c0,0.612-0.497,1.11-1.11,1.11h-2.22c-0.613,0-1.11-0.498-1.11-1.11V201.82L42.015,201.82z"/>
				<path style="fill:#FFFFFF;" d="M24.936,201.82c0-0.612,0.497-1.11,1.11-1.11h2.22c0.613,0,1.11,0.498,1.11,1.11v4.441
					c0,0.612-0.498,1.11-1.11,1.11h-2.22c-0.614,0-1.11-0.498-1.11-1.11V201.82L24.936,201.82L24.936,201.82z"/>
				<path style="fill:#FFFFFF;" d="M7.856,201.82c0-0.612,0.497-1.11,1.11-1.11h2.22c0.613,0,1.11,0.498,1.11,1.11v4.441
					c0,0.612-0.498,1.11-1.11,1.11h-2.22c-0.614,0-1.11-0.498-1.11-1.11V201.82L7.856,201.82z"/>
				<polygon points="0.001,0 256.193,0 256.193,88.813 0.001,88.813 0.001,0 "/>
				<polygon points="0,0 51.238,0 51.238,88.814 0,88.814 0,0 "/>
				<polygon style="fill:#FFFFFF;" points="4.271,15.371 46.97,15.371 46.97,73.442 4.271,73.442 4.271,15.371 "/>
				<polygon points="51.239,0 102.478,0 102.478,88.814 51.239,88.814 51.239,0 "/>
				<polygon style="fill:#FFFFFF;" points="55.509,15.371 98.208,15.371 98.208,73.442 55.509,73.442 55.509,15.371 "/>
				<polygon points="102.478,0 153.716,0 153.716,88.814 102.478,88.814 102.478,0 "/>
				<polygon style="fill:#FFFFFF;" points="106.71,15.484 149.409,15.484 149.409,73.555 106.71,73.555 106.71,15.484 "/>
				<polygon points="153.717,0 204.956,0 204.956,88.814 153.717,88.814 153.717,0 "/>
				<polygon style="fill:#FFFFFF;" points="157.986,15.371 200.686,15.371 200.686,73.442 157.986,73.442 157.986,15.371 "/>
				<polygon points="204.955,0 256.193,0 256.193,88.814 204.955,88.814 204.955,0 "/>
				<polygon style="fill:#FFFFFF;" points="209.226,15.371 251.925,15.371 251.925,73.442 209.226,73.442 209.226,15.371 "/>
				<path style="fill:#BFBFBF;" d="M181.82,46.625c0,1.372-1.112,2.484-2.484,2.484c-1.371,0-2.484-1.113-2.484-2.484
					c0-1.372,1.113-2.485,2.484-2.485C180.708,44.14,181.82,45.253,181.82,46.625L181.82,46.625z"/>
				<path style="fill:none;stroke:#000000;stroke-width:0.4;stroke-miterlimit:10;" d="M181.82,46.625
					c0,1.372-1.112,2.484-2.484,2.484c-1.371,0-2.484-1.113-2.484-2.484c0-1.372,1.113-2.485,2.484-2.485
					C180.708,44.14,181.82,45.253,181.82,46.625L181.82,46.625z"/>
				<path style="fill:#BFBFBF;" d="M233.061,47.19c0,1.372-1.113,2.485-2.485,2.485s-2.485-1.113-2.485-2.485
					s1.113-2.486,2.485-2.486S233.061,45.818,233.061,47.19L233.061,47.19z"/>
				<path style="fill:none;stroke:#000000;stroke-width:0.4;stroke-miterlimit:10;" d="M233.061,47.19
					c0,1.372-1.113,2.485-2.485,2.485s-2.485-1.113-2.485-2.485s1.113-2.486,2.485-2.486S233.061,45.818,233.061,47.19
					L233.061,47.19z"/>
				<path style="fill:#808080;" d="M181.82,34.929c0,1.372-1.112,2.485-2.484,2.485c-1.371,0-2.484-1.113-2.484-2.485
					s1.113-2.485,2.484-2.485C180.708,32.444,181.82,33.557,181.82,34.929L181.82,34.929z"/>
				<path style="fill:none;stroke:#000000;stroke-width:0.4;stroke-miterlimit:10;" d="M181.82,34.929
					c0,1.372-1.112,2.485-2.484,2.485c-1.371,0-2.484-1.113-2.484-2.485s1.113-2.485,2.484-2.485
					C180.708,32.444,181.82,33.557,181.82,34.929L181.82,34.929z"/>
				<path style="fill:#808080;" d="M233.061,29.334c0,1.372-1.113,2.485-2.485,2.485s-2.485-1.113-2.485-2.485
					s1.113-2.486,2.485-2.486S233.061,27.962,233.061,29.334L233.061,29.334z"/>
				<path style="fill:none;stroke:#000000;stroke-width:0.4;stroke-miterlimit:10;" d="M233.061,29.334
					c0,1.372-1.113,2.485-2.485,2.485s-2.485-1.113-2.485-2.485s1.113-2.486,2.485-2.486S233.061,27.962,233.061,29.334
					L233.061,29.334z"/>
				<path style="fill:#BFBFBF;" d="M130.582,47.01c0,1.372-1.113,2.486-2.485,2.486s-2.485-1.114-2.485-2.486
					s1.113-2.485,2.485-2.485S130.582,45.638,130.582,47.01L130.582,47.01z"/>
				<path style="fill:none;stroke:#000000;stroke-width:0.4;stroke-miterlimit:10;" d="M130.582,47.01
					c0,1.372-1.113,2.486-2.485,2.486s-2.485-1.114-2.485-2.486s1.113-2.485,2.485-2.485S130.582,45.638,130.582,47.01
					L130.582,47.01z"/>
				<path style="fill:#BFBFBF;" d="M79.344,52.657c0,1.372-1.113,2.486-2.485,2.486s-2.486-1.114-2.486-2.486
					s1.114-2.485,2.486-2.485S79.344,51.285,79.344,52.657L79.344,52.657z"/>
				<path style="fill:none;stroke:#000000;stroke-width:0.4;stroke-miterlimit:10;" d="M79.344,52.657
					c0,1.372-1.113,2.486-2.485,2.486s-2.486-1.114-2.486-2.486s1.114-2.485,2.486-2.485S79.344,51.285,79.344,52.657L79.344,52.657
					z"/>
				<path style="fill:#BFBFBF;" d="M28.105,58.72c0,1.372-1.113,2.486-2.485,2.486s-2.486-1.114-2.486-2.486
					c0-1.372,1.114-2.485,2.486-2.485S28.105,57.348,28.105,58.72L28.105,58.72z"/>
				<path style="fill:none;stroke:#000000;stroke-width:0.4;stroke-miterlimit:10;" d="M28.105,58.72
					c0,1.372-1.113,2.486-2.485,2.486s-2.486-1.114-2.486-2.486c0-1.372,1.114-2.485,2.486-2.485S28.105,57.348,28.105,58.72
					L28.105,58.72z"/>
				<path style="fill:#808080;" d="M130.582,41.563c0,1.372-1.113,2.486-2.485,2.486s-2.485-1.114-2.485-2.486
					s1.113-2.485,2.485-2.485S130.582,40.191,130.582,41.563L130.582,41.563z"/>
				<path style="fill:none;stroke:#000000;stroke-width:0.4;stroke-miterlimit:10;" d="M130.582,41.563
					c0,1.372-1.113,2.486-2.485,2.486s-2.485-1.114-2.485-2.486s1.113-2.485,2.485-2.485S130.582,40.191,130.582,41.563
					L130.582,41.563z"/>
				<path style="fill:#808080;" d="M79.344,41.661c0,1.372-1.113,2.486-2.485,2.486s-2.486-1.114-2.486-2.486
					s1.114-2.485,2.486-2.485S79.344,40.289,79.344,41.661L79.344,41.661z"/>
				<path style="fill:none;stroke:#000000;stroke-width:0.4;stroke-miterlimit:10;" d="M79.344,41.661
					c0,1.372-1.113,2.486-2.485,2.486s-2.486-1.114-2.486-2.486s1.114-2.485,2.486-2.485S79.344,40.289,79.344,41.661L79.344,41.661
					z"/>
				<path style="fill:#808080;" d="M28.105,41.758c0,1.372-1.113,2.486-2.485,2.486s-2.486-1.114-2.486-2.486
					s1.114-2.485,2.486-2.485S28.105,40.386,28.105,41.758L28.105,41.758z"/>
				<path style="fill:none;stroke:#000000;stroke-width:0.4;stroke-miterlimit:10;" d="M28.105,41.758
					c0,1.372-1.113,2.486-2.485,2.486s-2.486-1.114-2.486-2.486s1.114-2.485,2.486-2.485S28.105,40.386,28.105,41.758L28.105,41.758
					z"/>
				<path style="fill:#FFFFFF;" d="M246.971,78.85c0-0.613,0.497-1.11,1.11-1.11h2.22c0.613,0,1.11,0.498,1.11,1.11v4.441
					c0,0.613-0.497,1.11-1.11,1.11h-2.22c-0.613,0-1.11-0.498-1.11-1.11V78.85L246.971,78.85z"/>
				<path style="fill:#FFFFFF;" d="M229.892,78.85c0-0.613,0.496-1.11,1.11-1.11h2.22c0.612,0,1.11,0.498,1.11,1.11v4.441
					c0,0.613-0.498,1.11-1.11,1.11h-2.22c-0.614,0-1.11-0.498-1.11-1.11V78.85L229.892,78.85z"/>
				<path style="fill:#FFFFFF;" d="M212.812,78.85c0-0.613,0.496-1.11,1.11-1.11h2.22c0.612,0,1.11,0.498,1.11,1.11v4.441
					c0,0.613-0.498,1.11-1.11,1.11h-2.22c-0.614,0-1.11-0.498-1.11-1.11V78.85L212.812,78.85z"/>
				<path style="fill:#FFFFFF;" d="M195.732,78.85c0-0.613,0.496-1.11,1.11-1.11h2.22c0.613,0,1.11,0.498,1.11,1.11v4.441
					c0,0.613-0.497,1.11-1.11,1.11h-2.22c-0.614,0-1.11-0.498-1.11-1.11V78.85L195.732,78.85z"/>
				<path style="fill:#FFFFFF;" d="M178.652,78.85c0-0.613,0.497-1.11,1.11-1.11h2.22c0.613,0,1.11,0.498,1.11,1.11v4.441
					c0,0.613-0.497,1.11-1.11,1.11h-2.22c-0.613,0-1.11-0.498-1.11-1.11V78.85L178.652,78.85z"/>
				<path style="fill:#FFFFFF;" d="M161.573,78.85c0-0.613,0.496-1.11,1.11-1.11h2.22c0.612,0,1.11,0.498,1.11,1.11v4.441
					c0,0.613-0.498,1.11-1.11,1.11h-2.22c-0.614,0-1.11-0.498-1.11-1.11V78.85L161.573,78.85z"/>
				<path style="fill:#FFFFFF;" d="M144.493,78.85c0-0.613,0.496-1.11,1.11-1.11h2.22c0.612,0,1.11,0.498,1.11,1.11v4.441
					c0,0.613-0.498,1.11-1.11,1.11h-2.22c-0.614,0-1.11-0.498-1.11-1.11V78.85L144.493,78.85z"/>
				<path style="fill:#FFFFFF;" d="M127.414,78.85c0-0.613,0.497-1.11,1.11-1.11h2.22c0.613,0,1.11,0.498,1.11,1.11v4.441
					c0,0.613-0.497,1.11-1.11,1.11h-2.22c-0.614,0-1.11-0.498-1.11-1.11V78.85L127.414,78.85z"/>
				<path style="fill:#FFFFFF;" d="M110.333,78.85c0-0.613,0.497-1.11,1.11-1.11h2.22c0.614,0,1.11,0.498,1.11,1.11v4.441
					c0,0.613-0.498,1.11-1.11,1.11h-2.22c-0.613,0-1.11-0.498-1.11-1.11V78.85L110.333,78.85z"/>
				<path style="fill:#FFFFFF;" d="M93.254,78.85c0-0.613,0.497-1.11,1.11-1.11h2.22c0.613,0,1.11,0.498,1.11,1.11v4.441
					c0,0.613-0.498,1.11-1.11,1.11h-2.22c-0.614,0-1.11-0.498-1.11-1.11V78.85L93.254,78.85z"/>
				<path style="fill:#FFFFFF;" d="M76.174,78.85c0-0.613,0.497-1.11,1.11-1.11h2.22c0.613,0,1.11,0.498,1.11,1.11v4.441
					c0,0.613-0.498,1.11-1.11,1.11h-2.22c-0.613,0-1.11-0.498-1.11-1.11V78.85L76.174,78.85z"/>
				<path style="fill:#FFFFFF;" d="M59.095,78.85c0-0.613,0.498-1.11,1.11-1.11h2.22c0.613,0,1.11,0.498,1.11,1.11v4.441
					c0,0.613-0.497,1.11-1.11,1.11h-2.22c-0.613,0-1.11-0.498-1.11-1.11V78.85L59.095,78.85z"/>
				<path style="fill:#FFFFFF;" d="M42.015,78.85c0-0.613,0.498-1.11,1.11-1.11h2.22c0.613,0,1.11,0.498,1.11,1.11v4.441
					c0,0.613-0.497,1.11-1.11,1.11h-2.22c-0.613,0-1.11-0.498-1.11-1.11V78.85L42.015,78.85z"/>
				<path style="fill:#FFFFFF;" d="M24.936,78.85c0-0.613,0.497-1.11,1.11-1.11h2.22c0.613,0,1.11,0.498,1.11,1.11v4.441
					c0,0.613-0.498,1.11-1.11,1.11h-2.22c-0.614,0-1.11-0.498-1.11-1.11V78.85L24.936,78.85L24.936,78.85z"/>
				<path style="fill:#FFFFFF;" d="M7.856,78.85c0-0.613,0.497-1.11,1.11-1.11h2.22c0.613,0,1.11,0.498,1.11,1.11v4.441
					c0,0.613-0.498,1.11-1.11,1.11h-2.22c-0.614,0-1.11-0.498-1.11-1.11V78.85L7.856,78.85z"/>
				<path style="fill:#FFFFFF;" d="M246.971,4.724c0-0.613,0.497-1.11,1.11-1.11h2.22c0.613,0,1.11,0.498,1.11,1.11v4.441
					c0,0.612-0.497,1.11-1.11,1.11h-2.22c-0.613,0-1.11-0.498-1.11-1.11V4.724L246.971,4.724z"/>
				<path style="fill:#FFFFFF;" d="M229.892,4.724c0-0.613,0.496-1.11,1.11-1.11h2.22c0.612,0,1.11,0.498,1.11,1.11v4.441
					c0,0.612-0.498,1.11-1.11,1.11h-2.22c-0.614,0-1.11-0.498-1.11-1.11V4.724L229.892,4.724z"/>
				<path style="fill:#FFFFFF;" d="M212.812,4.724c0-0.613,0.496-1.11,1.11-1.11h2.22c0.612,0,1.11,0.498,1.11,1.11v4.441
					c0,0.612-0.498,1.11-1.11,1.11h-2.22c-0.614,0-1.11-0.498-1.11-1.11V4.724L212.812,4.724z"/>
				<path style="fill:#FFFFFF;" d="M195.732,4.724c0-0.613,0.496-1.11,1.11-1.11h2.22c0.613,0,1.11,0.498,1.11,1.11v4.441
					c0,0.612-0.497,1.11-1.11,1.11h-2.22c-0.614,0-1.11-0.498-1.11-1.11V4.724L195.732,4.724z"/>
				<path style="fill:#FFFFFF;" d="M178.652,4.724c0-0.613,0.497-1.11,1.11-1.11h2.22c0.613,0,1.11,0.498,1.11,1.11v4.441
					c0,0.612-0.497,1.11-1.11,1.11h-2.22c-0.613,0-1.11-0.498-1.11-1.11V4.724L178.652,4.724z"/>
				<path style="fill:#FFFFFF;" d="M161.573,4.724c0-0.613,0.496-1.11,1.11-1.11h2.22c0.612,0,1.11,0.498,1.11,1.11v4.441
					c0,0.612-0.498,1.11-1.11,1.11h-2.22c-0.614,0-1.11-0.498-1.11-1.11V4.724L161.573,4.724z"/>
				<path style="fill:#FFFFFF;" d="M144.493,4.724c0-0.613,0.496-1.11,1.11-1.11h2.22c0.612,0,1.11,0.498,1.11,1.11v4.441
					c0,0.612-0.498,1.11-1.11,1.11h-2.22c-0.614,0-1.11-0.498-1.11-1.11V4.724L144.493,4.724z"/>
				<path style="fill:#FFFFFF;" d="M127.414,4.724c0-0.613,0.497-1.11,1.11-1.11h2.22c0.613,0,1.11,0.498,1.11,1.11v4.441
					c0,0.612-0.497,1.11-1.11,1.11h-2.22c-0.614,0-1.11-0.498-1.11-1.11V4.724L127.414,4.724z"/>
				<path style="fill:#FFFFFF;" d="M110.333,4.724c0-0.613,0.497-1.11,1.11-1.11h2.22c0.614,0,1.11,0.498,1.11,1.11v4.441
					c0,0.612-0.498,1.11-1.11,1.11h-2.22c-0.613,0-1.11-0.498-1.11-1.11V4.724L110.333,4.724z"/>
				<path style="fill:#FFFFFF;" d="M93.254,4.724c0-0.613,0.497-1.11,1.11-1.11h2.22c0.613,0,1.11,0.498,1.11,1.11v4.441
					c0,0.612-0.498,1.11-1.11,1.11h-2.22c-0.614,0-1.11-0.498-1.11-1.11V4.724L93.254,4.724z"/>
				<path style="fill:#FFFFFF;" d="M76.174,4.724c0-0.613,0.497-1.11,1.11-1.11h2.22c0.613,0,1.11,0.498,1.11,1.11v4.441
					c0,0.612-0.498,1.11-1.11,1.11h-2.22c-0.613,0-1.11-0.498-1.11-1.11V4.724L76.174,4.724z"/>
				<path style="fill:#FFFFFF;" d="M59.095,4.724c0-0.613,0.498-1.11,1.11-1.11h2.22c0.613,0,1.11,0.498,1.11,1.11v4.441
					c0,0.612-0.497,1.11-1.11,1.11h-2.22c-0.613,0-1.11-0.498-1.11-1.11V4.724L59.095,4.724z"/>
				<path style="fill:#FFFFFF;" d="M42.015,4.724c0-0.613,0.498-1.11,1.11-1.11h2.22c0.613,0,1.11,0.498,1.11,1.11v4.441
					c0,0.612-0.497,1.11-1.11,1.11h-2.22c-0.613,0-1.11-0.498-1.11-1.11V4.724L42.015,4.724z"/>
				<path style="fill:#FFFFFF;" d="M24.936,4.724c0-0.613,0.497-1.11,1.11-1.11h2.22c0.613,0,1.11,0.498,1.11,1.11v4.441
					c0,0.612-0.498,1.11-1.11,1.11h-2.22c-0.614,0-1.11-0.498-1.11-1.11V4.724L24.936,4.724L24.936,4.724z"/>
				<path style="fill:#FFFFFF;" d="M7.856,4.724c0-0.613,0.497-1.11,1.11-1.11h2.22c0.613,0,1.11,0.498,1.11,1.11v4.441
					c0,0.612-0.498,1.11-1.11,1.11h-2.22c-0.614,0-1.11-0.498-1.11-1.11V4.724L7.856,4.724z"/>
				<polygon points="0.001,98.097 256.193,98.097 256.193,186.91 0.001,186.91 0.001,98.097 "/>
				<polygon points="0,98.097 51.238,98.097 51.238,186.91 0,186.91 0,98.097 "/>
				<polygon style="fill:#FFFFFF;" points="4.271,113.468 46.97,113.468 46.97,171.538 4.271,171.538 4.271,113.468 "/>
				<polygon points="51.239,98.097 102.478,98.097 102.478,186.91 51.239,186.91 51.239,98.097 "/>
				<polygon style="fill:#FFFFFF;" points="55.509,113.468 98.208,113.468 98.208,171.538 55.509,171.538 55.509,113.468 "/>
				<polygon points="102.478,98.097 153.716,98.097 153.716,186.91 102.478,186.91 102.478,98.097 "/>
				<polygon style="fill:#FFFFFF;" points="106.71,113.581 149.409,113.581 149.409,171.652 106.71,171.652 106.71,113.581 "/>
				<polygon points="153.717,98.097 204.956,98.097 204.956,186.91 153.717,186.91 153.717,98.097 "/>
				<polygon style="fill:#FFFFFF;" points="157.986,113.468 200.686,113.468 200.686,171.538 157.986,171.538 157.986,113.468 "/>
				<polygon points="204.955,98.097 256.193,98.097 256.193,186.91 204.955,186.91 204.955,98.097 "/>
				<polygon style="fill:#FFFFFF;" points="209.226,113.468 251.925,113.468 251.925,171.538 209.226,171.538 209.226,113.468 "/>
				<path style="fill:#BFBFBF;" d="M181.82,151.453c0,1.371-1.112,2.484-2.484,2.484c-1.371,0-2.484-1.113-2.484-2.484
					c0-1.372,1.113-2.485,2.484-2.485C180.708,148.968,181.82,150.081,181.82,151.453L181.82,151.453z"/>
				<path style="fill:none;stroke:#000000;stroke-width:0.4;stroke-miterlimit:10;" d="M181.82,151.453
					c0,1.371-1.112,2.484-2.484,2.484c-1.371,0-2.484-1.113-2.484-2.484c0-1.372,1.113-2.485,2.484-2.485
					C180.708,148.968,181.82,150.081,181.82,151.453L181.82,151.453z"/>
				<path style="fill:#BFBFBF;" d="M233.061,157.71c0,1.372-1.113,2.486-2.485,2.486s-2.485-1.114-2.485-2.486
					s1.113-2.485,2.485-2.485S233.061,156.338,233.061,157.71L233.061,157.71z"/>
				<path style="fill:none;stroke:#000000;stroke-width:0.4;stroke-miterlimit:10;" d="M233.061,157.71
					c0,1.372-1.113,2.486-2.485,2.486s-2.485-1.114-2.485-2.486s1.113-2.485,2.485-2.485S233.061,156.338,233.061,157.71
					L233.061,157.71z"/>
				<path style="fill:#808080;" d="M181.82,139.757c0,1.372-1.112,2.485-2.484,2.485c-1.371,0-2.484-1.113-2.484-2.485
					s1.113-2.485,2.484-2.485C180.708,137.272,181.82,138.385,181.82,139.757L181.82,139.757z"/>
				<path style="fill:none;stroke:#000000;stroke-width:0.4;stroke-miterlimit:10;" d="M181.82,139.757
					c0,1.372-1.112,2.485-2.484,2.485c-1.371,0-2.484-1.113-2.484-2.485s1.113-2.485,2.484-2.485
					C180.708,137.272,181.82,138.385,181.82,139.757L181.82,139.757z"/>
				<path style="fill:#808080;" d="M233.061,139.854c0,1.372-1.113,2.485-2.485,2.485s-2.485-1.113-2.485-2.485
					s1.113-2.486,2.485-2.486S233.061,138.482,233.061,139.854L233.061,139.854z"/>
				<path style="fill:none;stroke:#000000;stroke-width:0.4;stroke-miterlimit:10;" d="M233.061,139.854
					c0,1.372-1.113,2.485-2.485,2.485s-2.485-1.113-2.485-2.485s1.113-2.486,2.485-2.486S233.061,138.482,233.061,139.854
					L233.061,139.854z"/>
				<path style="fill:#BFBFBF;" d="M130.582,145.106c0,1.372-1.113,2.485-2.485,2.485s-2.485-1.113-2.485-2.485
					s1.113-2.486,2.485-2.486S130.582,143.734,130.582,145.106L130.582,145.106z"/>
				<path style="fill:none;stroke:#000000;stroke-width:0.4;stroke-miterlimit:10;" d="M130.582,145.106
					c0,1.372-1.113,2.485-2.485,2.485s-2.485-1.113-2.485-2.485s1.113-2.486,2.485-2.486S130.582,143.734,130.582,145.106
					L130.582,145.106z"/>
				<path style="fill:#BFBFBF;" d="M79.344,144.767c0,1.372-1.113,2.485-2.485,2.485s-2.486-1.113-2.486-2.485
					s1.114-2.486,2.486-2.486S79.344,143.395,79.344,144.767L79.344,144.767z"/>
				<path style="fill:none;stroke:#000000;stroke-width:0.4;stroke-miterlimit:10;" d="M79.344,144.767
					c0,1.372-1.113,2.485-2.485,2.485s-2.486-1.113-2.486-2.485s1.114-2.486,2.486-2.486S79.344,143.395,79.344,144.767
					L79.344,144.767z"/>
				<path style="fill:#BFBFBF;" d="M28.105,144.843c0,1.372-1.113,2.485-2.485,2.485s-2.486-1.113-2.486-2.485
					c0-1.373,1.114-2.486,2.486-2.486S28.105,143.47,28.105,144.843L28.105,144.843z"/>
				<path style="fill:none;stroke:#000000;stroke-width:0.4;stroke-miterlimit:10;" d="M28.105,144.843
					c0,1.372-1.113,2.485-2.485,2.485s-2.486-1.113-2.486-2.485c0-1.373,1.114-2.486,2.486-2.486S28.105,143.47,28.105,144.843
					L28.105,144.843z"/>
				<path style="fill:#808080;" d="M130.582,139.659c0,1.372-1.113,2.485-2.485,2.485s-2.485-1.113-2.485-2.485
					s1.113-2.485,2.485-2.485S130.582,138.287,130.582,139.659L130.582,139.659z"/>
				<path style="fill:none;stroke:#000000;stroke-width:0.4;stroke-miterlimit:10;" d="M130.582,139.659
					c0,1.372-1.113,2.485-2.485,2.485s-2.485-1.113-2.485-2.485s1.113-2.485,2.485-2.485S130.582,138.287,130.582,139.659
					L130.582,139.659z"/>
				<path style="fill:#808080;" d="M79.344,133.771c0,1.372-1.113,2.485-2.485,2.485s-2.486-1.113-2.486-2.485
					s1.114-2.486,2.486-2.486S79.344,132.398,79.344,133.771L79.344,133.771z"/>
				<path style="fill:none;stroke:#000000;stroke-width:0.4;stroke-miterlimit:10;" d="M79.344,133.771
					c0,1.372-1.113,2.485-2.485,2.485s-2.486-1.113-2.486-2.485s1.114-2.486,2.486-2.486S79.344,132.398,79.344,133.771
					L79.344,133.771z"/>
				<path style="fill:#808080;" d="M28.105,127.881c0,1.372-1.113,2.485-2.485,2.485s-2.486-1.113-2.486-2.485
					s1.114-2.486,2.486-2.486S28.105,126.509,28.105,127.881L28.105,127.881z"/>
				<path style="fill:none;stroke:#000000;stroke-width:0.4;stroke-miterlimit:10;" d="M28.105,127.881
					c0,1.372-1.113,2.485-2.485,2.485s-2.486-1.113-2.486-2.485s1.114-2.486,2.486-2.486S28.105,126.509,28.105,127.881
					L28.105,127.881z"/>
				<path style="fill:#FFFFFF;" d="M246.971,176.946c0-0.613,0.497-1.11,1.11-1.11h2.22c0.613,0,1.11,0.497,1.11,1.11v4.44
					c0,0.613-0.497,1.111-1.11,1.111h-2.22c-0.613,0-1.11-0.498-1.11-1.111V176.946L246.971,176.946z"/>
				<path style="fill:#FFFFFF;" d="M229.892,176.946c0-0.613,0.496-1.11,1.11-1.11h2.22c0.612,0,1.11,0.497,1.11,1.11v4.44
					c0,0.613-0.498,1.111-1.11,1.111h-2.22c-0.614,0-1.11-0.498-1.11-1.111V176.946L229.892,176.946z"/>
				<path style="fill:#FFFFFF;" d="M212.812,176.946c0-0.613,0.496-1.11,1.11-1.11h2.22c0.612,0,1.11,0.497,1.11,1.11v4.44
					c0,0.613-0.498,1.111-1.11,1.111h-2.22c-0.614,0-1.11-0.498-1.11-1.111V176.946L212.812,176.946z"/>
				<path style="fill:#FFFFFF;" d="M195.732,176.946c0-0.613,0.496-1.11,1.11-1.11h2.22c0.613,0,1.11,0.497,1.11,1.11v4.44
					c0,0.613-0.497,1.111-1.11,1.111h-2.22c-0.614,0-1.11-0.498-1.11-1.111V176.946L195.732,176.946z"/>
				<path style="fill:#FFFFFF;" d="M178.652,176.946c0-0.613,0.497-1.11,1.11-1.11h2.22c0.613,0,1.11,0.497,1.11,1.11v4.44
					c0,0.613-0.497,1.111-1.11,1.111h-2.22c-0.613,0-1.11-0.498-1.11-1.111V176.946L178.652,176.946z"/>
				<path style="fill:#FFFFFF;" d="M161.573,176.946c0-0.613,0.496-1.11,1.11-1.11h2.22c0.612,0,1.11,0.497,1.11,1.11v4.44
					c0,0.613-0.498,1.111-1.11,1.111h-2.22c-0.614,0-1.11-0.498-1.11-1.111V176.946L161.573,176.946z"/>
				<path style="fill:#FFFFFF;" d="M144.493,176.946c0-0.613,0.496-1.11,1.11-1.11h2.22c0.612,0,1.11,0.497,1.11,1.11v4.44
					c0,0.613-0.498,1.111-1.11,1.111h-2.22c-0.614,0-1.11-0.498-1.11-1.111V176.946L144.493,176.946z"/>
				<path style="fill:#FFFFFF;" d="M127.414,176.946c0-0.613,0.497-1.11,1.11-1.11h2.22c0.613,0,1.11,0.497,1.11,1.11v4.44
					c0,0.613-0.497,1.111-1.11,1.111h-2.22c-0.614,0-1.11-0.498-1.11-1.111V176.946L127.414,176.946z"/>
				<path style="fill:#FFFFFF;" d="M110.333,176.946c0-0.613,0.497-1.11,1.11-1.11h2.22c0.614,0,1.11,0.497,1.11,1.11v4.44
					c0,0.613-0.498,1.111-1.11,1.111h-2.22c-0.613,0-1.11-0.498-1.11-1.111V176.946L110.333,176.946z"/>
				<path style="fill:#FFFFFF;" d="M93.254,176.946c0-0.613,0.497-1.11,1.11-1.11h2.22c0.613,0,1.11,0.497,1.11,1.11v4.44
					c0,0.613-0.498,1.111-1.11,1.111h-2.22c-0.614,0-1.11-0.498-1.11-1.111V176.946L93.254,176.946z"/>
				<path style="fill:#FFFFFF;" d="M76.174,176.946c0-0.613,0.497-1.11,1.11-1.11h2.22c0.613,0,1.11,0.497,1.11,1.11v4.44
					c0,0.613-0.498,1.111-1.11,1.111h-2.22c-0.613,0-1.11-0.498-1.11-1.111V176.946L76.174,176.946z"/>
				<path style="fill:#FFFFFF;" d="M59.095,176.946c0-0.613,0.498-1.11,1.11-1.11h2.22c0.613,0,1.11,0.497,1.11,1.11v4.44
					c0,0.613-0.497,1.111-1.11,1.111h-2.22c-0.613,0-1.11-0.498-1.11-1.111V176.946L59.095,176.946z"/>
				<path style="fill:#FFFFFF;" d="M42.015,176.946c0-0.613,0.498-1.11,1.11-1.11h2.22c0.613,0,1.11,0.497,1.11,1.11v4.44
					c0,0.613-0.497,1.111-1.11,1.111h-2.22c-0.613,0-1.11-0.498-1.11-1.111V176.946L42.015,176.946z"/>
				<path style="fill:#FFFFFF;" d="M24.936,176.946c0-0.613,0.497-1.11,1.11-1.11h2.22c0.613,0,1.11,0.497,1.11,1.11v4.44
					c0,0.613-0.498,1.111-1.11,1.111h-2.22c-0.614,0-1.11-0.498-1.11-1.111V176.946L24.936,176.946L24.936,176.946z"/>
				<path style="fill:#FFFFFF;" d="M7.856,176.946c0-0.613,0.497-1.11,1.11-1.11h2.22c0.613,0,1.11,0.497,1.11,1.11v4.44
					c0,0.613-0.498,1.111-1.11,1.111h-2.22c-0.614,0-1.11-0.498-1.11-1.111V176.946L7.856,176.946z"/>
				<path style="fill:#FFFFFF;" d="M246.971,102.821c0-0.613,0.497-1.11,1.11-1.11h2.22c0.613,0,1.11,0.498,1.11,1.11v4.441
					c0,0.613-0.497,1.11-1.11,1.11h-2.22c-0.613,0-1.11-0.498-1.11-1.11V102.821L246.971,102.821z"/>
				<path style="fill:#FFFFFF;" d="M229.892,102.821c0-0.613,0.496-1.11,1.11-1.11h2.22c0.612,0,1.11,0.498,1.11,1.11v4.441
					c0,0.613-0.498,1.11-1.11,1.11h-2.22c-0.614,0-1.11-0.498-1.11-1.11V102.821L229.892,102.821z"/>
				<path style="fill:#FFFFFF;" d="M212.812,102.821c0-0.613,0.496-1.11,1.11-1.11h2.22c0.612,0,1.11,0.498,1.11,1.11v4.441
					c0,0.613-0.498,1.11-1.11,1.11h-2.22c-0.614,0-1.11-0.498-1.11-1.11V102.821L212.812,102.821z"/>
				<path style="fill:#FFFFFF;" d="M195.732,102.821c0-0.613,0.496-1.11,1.11-1.11h2.22c0.613,0,1.11,0.498,1.11,1.11v4.441
					c0,0.613-0.497,1.11-1.11,1.11h-2.22c-0.614,0-1.11-0.498-1.11-1.11V102.821L195.732,102.821z"/>
				<path style="fill:#FFFFFF;" d="M178.652,102.821c0-0.613,0.497-1.11,1.11-1.11h2.22c0.613,0,1.11,0.498,1.11,1.11v4.441
					c0,0.613-0.497,1.11-1.11,1.11h-2.22c-0.613,0-1.11-0.498-1.11-1.11V102.821L178.652,102.821z"/>
				<path style="fill:#FFFFFF;" d="M161.573,102.821c0-0.613,0.496-1.11,1.11-1.11h2.22c0.612,0,1.11,0.498,1.11,1.11v4.441
					c0,0.613-0.498,1.11-1.11,1.11h-2.22c-0.614,0-1.11-0.498-1.11-1.11V102.821L161.573,102.821z"/>
				<path style="fill:#FFFFFF;" d="M144.493,102.821c0-0.613,0.496-1.11,1.11-1.11h2.22c0.612,0,1.11,0.498,1.11,1.11v4.441
					c0,0.613-0.498,1.11-1.11,1.11h-2.22c-0.614,0-1.11-0.498-1.11-1.11V102.821L144.493,102.821z"/>
				<path style="fill:#FFFFFF;" d="M127.414,102.821c0-0.613,0.497-1.11,1.11-1.11h2.22c0.613,0,1.11,0.498,1.11,1.11v4.441
					c0,0.613-0.497,1.11-1.11,1.11h-2.22c-0.614,0-1.11-0.498-1.11-1.11V102.821L127.414,102.821z"/>
				<path style="fill:#FFFFFF;" d="M110.333,102.821c0-0.613,0.497-1.11,1.11-1.11h2.22c0.614,0,1.11,0.498,1.11,1.11v4.441
					c0,0.613-0.498,1.11-1.11,1.11h-2.22c-0.613,0-1.11-0.498-1.11-1.11V102.821L110.333,102.821z"/>
				<path style="fill:#FFFFFF;" d="M93.254,102.821c0-0.613,0.497-1.11,1.11-1.11h2.22c0.613,0,1.11,0.498,1.11,1.11v4.441
					c0,0.613-0.498,1.11-1.11,1.11h-2.22c-0.614,0-1.11-0.498-1.11-1.11V102.821L93.254,102.821z"/>
				<path style="fill:#FFFFFF;" d="M76.174,102.821c0-0.613,0.497-1.11,1.11-1.11h2.22c0.613,0,1.11,0.498,1.11,1.11v4.441
					c0,0.613-0.498,1.11-1.11,1.11h-2.22c-0.613,0-1.11-0.498-1.11-1.11V102.821L76.174,102.821z"/>
				<path style="fill:#FFFFFF;" d="M59.095,102.821c0-0.613,0.498-1.11,1.11-1.11h2.22c0.613,0,1.11,0.498,1.11,1.11v4.441
					c0,0.613-0.497,1.11-1.11,1.11h-2.22c-0.613,0-1.11-0.498-1.11-1.11V102.821L59.095,102.821z"/>
				<path style="fill:#FFFFFF;" d="M42.015,102.821c0-0.613,0.498-1.11,1.11-1.11h2.22c0.613,0,1.11,0.498,1.11,1.11v4.441
					c0,0.613-0.497,1.11-1.11,1.11h-2.22c-0.613,0-1.11-0.498-1.11-1.11V102.821L42.015,102.821z"/>
				<path style="fill:#FFFFFF;" d="M24.936,102.821c0-0.613,0.497-1.11,1.11-1.11h2.22c0.613,0,1.11,0.498,1.11,1.11v4.441
					c0,0.613-0.498,1.11-1.11,1.11h-2.22c-0.614,0-1.11-0.498-1.11-1.11V102.821L24.936,102.821L24.936,102.821z"/>
				<path style="fill:#FFFFFF;" d="M7.856,102.821c0-0.613,0.497-1.11,1.11-1.11h2.22c0.613,0,1.11,0.498,1.11,1.11v4.441
					c0,0.613-0.498,1.11-1.11,1.11h-2.22c-0.614,0-1.11-0.498-1.11-1.11V102.821L7.856,102.821z"/>
				<polyline points="9.089,25.896 10.378,25.896 10.378,21.447 8.976,21.729 8.976,21.01 10.371,20.729 11.16,20.729 11.16,25.896 
					12.449,25.896 12.449,26.561 9.089,26.561 9.089,25.896 "/>
				<path d="M9.925,124.204h2.754v0.664H8.976v-0.664c0.299-0.31,0.707-0.725,1.223-1.246c0.518-0.523,0.844-0.861,0.977-1.012
					c0.252-0.284,0.428-0.523,0.527-0.719c0.102-0.198,0.152-0.392,0.152-0.582c0-0.31-0.109-0.562-0.328-0.758
					c-0.216-0.195-0.499-0.293-0.848-0.293c-0.248,0-0.509,0.043-0.785,0.129c-0.273,0.086-0.566,0.216-0.879,0.391v-0.797
					c0.317-0.127,0.615-0.224,0.891-0.289s0.528-0.098,0.758-0.098c0.604,0,1.086,0.151,1.445,0.453s0.539,0.706,0.539,1.211
					c0,0.24-0.046,0.467-0.137,0.684c-0.088,0.213-0.251,0.466-0.488,0.758c-0.065,0.076-0.272,0.294-0.621,0.656
					C11.053,123.051,10.561,123.555,9.925,124.204"/>
				<path d="M11.613,219.921c0.377,0.081,0.672,0.249,0.883,0.504c0.213,0.255,0.32,0.57,0.32,0.945
					c0,0.575-0.198,1.021-0.594,1.336c-0.396,0.315-0.958,0.473-1.688,0.473c-0.245,0-0.498-0.024-0.758-0.074
					c-0.258-0.047-0.525-0.118-0.801-0.215v-0.762c0.219,0.128,0.458,0.224,0.719,0.289s0.533,0.098,0.816,0.098
					c0.495,0,0.871-0.098,1.129-0.293c0.26-0.195,0.391-0.479,0.391-0.852c0-0.344-0.121-0.612-0.363-0.805
					c-0.24-0.195-0.574-0.293-1.004-0.293h-0.68v-0.648h0.711c0.388,0,0.685-0.077,0.891-0.23c0.206-0.156,0.309-0.38,0.309-0.672
					c0-0.3-0.107-0.528-0.32-0.688c-0.211-0.161-0.514-0.242-0.91-0.242c-0.216,0-0.448,0.023-0.695,0.07s-0.52,0.12-0.816,0.219
					v-0.703c0.299-0.083,0.579-0.146,0.84-0.188c0.263-0.042,0.51-0.062,0.742-0.062c0.599,0,1.073,0.137,1.422,0.41
					c0.349,0.271,0.523,0.638,0.523,1.102c0,0.323-0.092,0.597-0.277,0.82C12.217,219.682,11.954,219.835,11.613,219.921"/>
			</g>
		</g>
	</svg>
